<?xml version="1.0" encoding="utf-8" standalone="no"?>
<!DOCTYPE svg PUBLIC "-//W3C//DTD SVG 1.1//EN"
  "http://www.w3.org/Graphics/SVG/1.1/DTD/svg11.dtd">
<svg xmlns:xlink="http://www.w3.org/1999/xlink" width="337.932812pt" height="277.31625pt" viewBox="0 0 337.932812 277.31625" xmlns="http://www.w3.org/2000/svg" version="1.1">
 <metadata>
  <rdf:RDF xmlns:dc="http://purl.org/dc/elements/1.1/" xmlns:cc="http://creativecommons.org/ns#" xmlns:rdf="http://www.w3.org/1999/02/22-rdf-syntax-ns#">
   <cc:Work>
    <dc:type rdf:resource="http://purl.org/dc/dcmitype/StillImage"/>
    <dc:date>2026-06-15T14:39:06.053502</dc:date>
    <dc:format>image/svg+xml</dc:format>
    <dc:creator>
     <cc:Agent>
      <dc:title>Matplotlib v3.8.4, https://matplotlib.org/</dc:title>
     </cc:Agent>
    </dc:creator>
   </cc:Work>
  </rdf:RDF>
 </metadata>
 <defs>
  <style type="text/css">*{stroke-linejoin: round; stroke-linecap: butt}</style>
 </defs>
 <g id="figure_1">
  <g id="patch_1">
   <path d="M 0 277.31625 
L 337.932812 277.31625 
L 337.932812 0 
L 0 0 
z
" style="fill: #ffffff"/>
  </g>
  <g id="axes_1">
   <g id="patch_2">
    <path d="M 43.78125 239.76 
L 322.78125 239.76 
L 322.78125 37.296 
L 43.78125 37.296 
z
" style="fill: #ffffff"/>
   </g>
   <g id="matplotlib.axis_1">
    <g id="xtick_1">
     <g id="line2d_1">
      <defs>
       <path id="maf56a5c196" d="M 0 0 
L 0 3.5 
" style="stroke: #000000; stroke-width: 0.8"/>
      </defs>
      <g>
       <use xlink:href="#maf56a5c196" x="43.78125" y="239.76" style="stroke: #000000; stroke-width: 0.8"/>
      </g>
     </g>
     <g id="text_1">
      <!-- 0.0 -->
      <g transform="translate(35.829688 254.358437) scale(0.1 -0.1)">
       <defs>
        <path id="DejaVuSans-30" d="M 2034 4250 
Q 1547 4250 1301 3770 
Q 1056 3291 1056 2328 
Q 1056 1369 1301 889 
Q 1547 409 2034 409 
Q 2525 409 2770 889 
Q 3016 1369 3016 2328 
Q 3016 3291 2770 3770 
Q 2525 4250 2034 4250 
z
M 2034 4750 
Q 2819 4750 3233 4129 
Q 3647 3509 3647 2328 
Q 3647 1150 3233 529 
Q 2819 -91 2034 -91 
Q 1250 -91 836 529 
Q 422 1150 422 2328 
Q 422 3509 836 4129 
Q 1250 4750 2034 4750 
z
" transform="scale(0.015625)"/>
        <path id="DejaVuSans-2e" d="M 684 794 
L 1344 794 
L 1344 0 
L 684 0 
L 684 794 
z
" transform="scale(0.015625)"/>
       </defs>
       <use xlink:href="#DejaVuSans-30"/>
       <use xlink:href="#DejaVuSans-2e" x="63.623047"/>
       <use xlink:href="#DejaVuSans-30" x="95.410156"/>
      </g>
     </g>
    </g>
    <g id="xtick_2">
     <g id="line2d_2">
      <g>
       <use xlink:href="#maf56a5c196" x="99.58125" y="239.76" style="stroke: #000000; stroke-width: 0.8"/>
      </g>
     </g>
     <g id="text_2">
      <!-- 0.2 -->
      <g transform="translate(91.629688 254.358437) scale(0.1 -0.1)">
       <defs>
        <path id="DejaVuSans-32" d="M 1228 531 
L 3431 531 
L 3431 0 
L 469 0 
L 469 531 
Q 828 903 1448 1529 
Q 2069 2156 2228 2338 
Q 2531 2678 2651 2914 
Q 2772 3150 2772 3378 
Q 2772 3750 2511 3984 
Q 2250 4219 1831 4219 
Q 1534 4219 1204 4116 
Q 875 4013 500 3803 
L 500 4441 
Q 881 4594 1212 4672 
Q 1544 4750 1819 4750 
Q 2544 4750 2975 4387 
Q 3406 4025 3406 3419 
Q 3406 3131 3298 2873 
Q 3191 2616 2906 2266 
Q 2828 2175 2409 1742 
Q 1991 1309 1228 531 
z
" transform="scale(0.015625)"/>
       </defs>
       <use xlink:href="#DejaVuSans-30"/>
       <use xlink:href="#DejaVuSans-2e" x="63.623047"/>
       <use xlink:href="#DejaVuSans-32" x="95.410156"/>
      </g>
     </g>
    </g>
    <g id="xtick_3">
     <g id="line2d_3">
      <g>
       <use xlink:href="#maf56a5c196" x="155.38125" y="239.76" style="stroke: #000000; stroke-width: 0.8"/>
      </g>
     </g>
     <g id="text_3">
      <!-- 0.4 -->
      <g transform="translate(147.429688 254.358437) scale(0.1 -0.1)">
       <defs>
        <path id="DejaVuSans-34" d="M 2419 4116 
L 825 1625 
L 2419 1625 
L 2419 4116 
z
M 2253 4666 
L 3047 4666 
L 3047 1625 
L 3713 1625 
L 3713 1100 
L 3047 1100 
L 3047 0 
L 2419 0 
L 2419 1100 
L 313 1100 
L 313 1709 
L 2253 4666 
z
" transform="scale(0.015625)"/>
       </defs>
       <use xlink:href="#DejaVuSans-30"/>
       <use xlink:href="#DejaVuSans-2e" x="63.623047"/>
       <use xlink:href="#DejaVuSans-34" x="95.410156"/>
      </g>
     </g>
    </g>
    <g id="xtick_4">
     <g id="line2d_4">
      <g>
       <use xlink:href="#maf56a5c196" x="211.18125" y="239.76" style="stroke: #000000; stroke-width: 0.8"/>
      </g>
     </g>
     <g id="text_4">
      <!-- 0.6 -->
      <g transform="translate(203.229688 254.358437) scale(0.1 -0.1)">
       <defs>
        <path id="DejaVuSans-36" d="M 2113 2584 
Q 1688 2584 1439 2293 
Q 1191 2003 1191 1497 
Q 1191 994 1439 701 
Q 1688 409 2113 409 
Q 2538 409 2786 701 
Q 3034 994 3034 1497 
Q 3034 2003 2786 2293 
Q 2538 2584 2113 2584 
z
M 3366 4563 
L 3366 3988 
Q 3128 4100 2886 4159 
Q 2644 4219 2406 4219 
Q 1781 4219 1451 3797 
Q 1122 3375 1075 2522 
Q 1259 2794 1537 2939 
Q 1816 3084 2150 3084 
Q 2853 3084 3261 2657 
Q 3669 2231 3669 1497 
Q 3669 778 3244 343 
Q 2819 -91 2113 -91 
Q 1303 -91 875 529 
Q 447 1150 447 2328 
Q 447 3434 972 4092 
Q 1497 4750 2381 4750 
Q 2619 4750 2861 4703 
Q 3103 4656 3366 4563 
z
" transform="scale(0.015625)"/>
       </defs>
       <use xlink:href="#DejaVuSans-30"/>
       <use xlink:href="#DejaVuSans-2e" x="63.623047"/>
       <use xlink:href="#DejaVuSans-36" x="95.410156"/>
      </g>
     </g>
    </g>
    <g id="xtick_5">
     <g id="line2d_5">
      <g>
       <use xlink:href="#maf56a5c196" x="266.98125" y="239.76" style="stroke: #000000; stroke-width: 0.8"/>
      </g>
     </g>
     <g id="text_5">
      <!-- 0.8 -->
      <g transform="translate(259.029688 254.358437) scale(0.1 -0.1)">
       <defs>
        <path id="DejaVuSans-38" d="M 2034 2216 
Q 1584 2216 1326 1975 
Q 1069 1734 1069 1313 
Q 1069 891 1326 650 
Q 1584 409 2034 409 
Q 2484 409 2743 651 
Q 3003 894 3003 1313 
Q 3003 1734 2745 1975 
Q 2488 2216 2034 2216 
z
M 1403 2484 
Q 997 2584 770 2862 
Q 544 3141 544 3541 
Q 544 4100 942 4425 
Q 1341 4750 2034 4750 
Q 2731 4750 3128 4425 
Q 3525 4100 3525 3541 
Q 3525 3141 3298 2862 
Q 3072 2584 2669 2484 
Q 3125 2378 3379 2068 
Q 3634 1759 3634 1313 
Q 3634 634 3220 271 
Q 2806 -91 2034 -91 
Q 1263 -91 848 271 
Q 434 634 434 1313 
Q 434 1759 690 2068 
Q 947 2378 1403 2484 
z
M 1172 3481 
Q 1172 3119 1398 2916 
Q 1625 2713 2034 2713 
Q 2441 2713 2670 2916 
Q 2900 3119 2900 3481 
Q 2900 3844 2670 4047 
Q 2441 4250 2034 4250 
Q 1625 4250 1398 4047 
Q 1172 3844 1172 3481 
z
" transform="scale(0.015625)"/>
       </defs>
       <use xlink:href="#DejaVuSans-30"/>
       <use xlink:href="#DejaVuSans-2e" x="63.623047"/>
       <use xlink:href="#DejaVuSans-38" x="95.410156"/>
      </g>
     </g>
    </g>
    <g id="xtick_6">
     <g id="line2d_6">
      <g>
       <use xlink:href="#maf56a5c196" x="322.78125" y="239.76" style="stroke: #000000; stroke-width: 0.8"/>
      </g>
     </g>
     <g id="text_6">
      <!-- 1.0 -->
      <g transform="translate(314.829687 254.358437) scale(0.1 -0.1)">
       <defs>
        <path id="DejaVuSans-31" d="M 794 531 
L 1825 531 
L 1825 4091 
L 703 3866 
L 703 4441 
L 1819 4666 
L 2450 4666 
L 2450 531 
L 3481 531 
L 3481 0 
L 794 0 
L 794 531 
z
" transform="scale(0.015625)"/>
       </defs>
       <use xlink:href="#DejaVuSans-31"/>
       <use xlink:href="#DejaVuSans-2e" x="63.623047"/>
       <use xlink:href="#DejaVuSans-30" x="95.410156"/>
      </g>
     </g>
    </g>
    <g id="text_7">
     <!-- False Positive Rate -->
     <g transform="translate(136.814844 268.036562) scale(0.1 -0.1)">
      <defs>
       <path id="DejaVuSans-46" d="M 628 4666 
L 3309 4666 
L 3309 4134 
L 1259 4134 
L 1259 2759 
L 3109 2759 
L 3109 2228 
L 1259 2228 
L 1259 0 
L 628 0 
L 628 4666 
z
" transform="scale(0.015625)"/>
       <path id="DejaVuSans-61" d="M 2194 1759 
Q 1497 1759 1228 1600 
Q 959 1441 959 1056 
Q 959 750 1161 570 
Q 1363 391 1709 391 
Q 2188 391 2477 730 
Q 2766 1069 2766 1631 
L 2766 1759 
L 2194 1759 
z
M 3341 1997 
L 3341 0 
L 2766 0 
L 2766 531 
Q 2569 213 2275 61 
Q 1981 -91 1556 -91 
Q 1019 -91 701 211 
Q 384 513 384 1019 
Q 384 1609 779 1909 
Q 1175 2209 1959 2209 
L 2766 2209 
L 2766 2266 
Q 2766 2663 2505 2880 
Q 2244 3097 1772 3097 
Q 1472 3097 1187 3025 
Q 903 2953 641 2809 
L 641 3341 
Q 956 3463 1253 3523 
Q 1550 3584 1831 3584 
Q 2591 3584 2966 3190 
Q 3341 2797 3341 1997 
z
" transform="scale(0.015625)"/>
       <path id="DejaVuSans-6c" d="M 603 4863 
L 1178 4863 
L 1178 0 
L 603 0 
L 603 4863 
z
" transform="scale(0.015625)"/>
       <path id="DejaVuSans-73" d="M 2834 3397 
L 2834 2853 
Q 2591 2978 2328 3040 
Q 2066 3103 1784 3103 
Q 1356 3103 1142 2972 
Q 928 2841 928 2578 
Q 928 2378 1081 2264 
Q 1234 2150 1697 2047 
L 1894 2003 
Q 2506 1872 2764 1633 
Q 3022 1394 3022 966 
Q 3022 478 2636 193 
Q 2250 -91 1575 -91 
Q 1294 -91 989 -36 
Q 684 19 347 128 
L 347 722 
Q 666 556 975 473 
Q 1284 391 1588 391 
Q 1994 391 2212 530 
Q 2431 669 2431 922 
Q 2431 1156 2273 1281 
Q 2116 1406 1581 1522 
L 1381 1569 
Q 847 1681 609 1914 
Q 372 2147 372 2553 
Q 372 3047 722 3315 
Q 1072 3584 1716 3584 
Q 2034 3584 2315 3537 
Q 2597 3491 2834 3397 
z
" transform="scale(0.015625)"/>
       <path id="DejaVuSans-65" d="M 3597 1894 
L 3597 1613 
L 953 1613 
Q 991 1019 1311 708 
Q 1631 397 2203 397 
Q 2534 397 2845 478 
Q 3156 559 3463 722 
L 3463 178 
Q 3153 47 2828 -22 
Q 2503 -91 2169 -91 
Q 1331 -91 842 396 
Q 353 884 353 1716 
Q 353 2575 817 3079 
Q 1281 3584 2069 3584 
Q 2775 3584 3186 3129 
Q 3597 2675 3597 1894 
z
M 3022 2063 
Q 3016 2534 2758 2815 
Q 2500 3097 2075 3097 
Q 1594 3097 1305 2825 
Q 1016 2553 972 2059 
L 3022 2063 
z
" transform="scale(0.015625)"/>
       <path id="DejaVuSans-20" transform="scale(0.015625)"/>
       <path id="DejaVuSans-50" d="M 1259 4147 
L 1259 2394 
L 2053 2394 
Q 2494 2394 2734 2622 
Q 2975 2850 2975 3272 
Q 2975 3691 2734 3919 
Q 2494 4147 2053 4147 
L 1259 4147 
z
M 628 4666 
L 2053 4666 
Q 2838 4666 3239 4311 
Q 3641 3956 3641 3272 
Q 3641 2581 3239 2228 
Q 2838 1875 2053 1875 
L 1259 1875 
L 1259 0 
L 628 0 
L 628 4666 
z
" transform="scale(0.015625)"/>
       <path id="DejaVuSans-6f" d="M 1959 3097 
Q 1497 3097 1228 2736 
Q 959 2375 959 1747 
Q 959 1119 1226 758 
Q 1494 397 1959 397 
Q 2419 397 2687 759 
Q 2956 1122 2956 1747 
Q 2956 2369 2687 2733 
Q 2419 3097 1959 3097 
z
M 1959 3584 
Q 2709 3584 3137 3096 
Q 3566 2609 3566 1747 
Q 3566 888 3137 398 
Q 2709 -91 1959 -91 
Q 1206 -91 779 398 
Q 353 888 353 1747 
Q 353 2609 779 3096 
Q 1206 3584 1959 3584 
z
" transform="scale(0.015625)"/>
       <path id="DejaVuSans-69" d="M 603 3500 
L 1178 3500 
L 1178 0 
L 603 0 
L 603 3500 
z
M 603 4863 
L 1178 4863 
L 1178 4134 
L 603 4134 
L 603 4863 
z
" transform="scale(0.015625)"/>
       <path id="DejaVuSans-74" d="M 1172 4494 
L 1172 3500 
L 2356 3500 
L 2356 3053 
L 1172 3053 
L 1172 1153 
Q 1172 725 1289 603 
Q 1406 481 1766 481 
L 2356 481 
L 2356 0 
L 1766 0 
Q 1100 0 847 248 
Q 594 497 594 1153 
L 594 3053 
L 172 3053 
L 172 3500 
L 594 3500 
L 594 4494 
L 1172 4494 
z
" transform="scale(0.015625)"/>
       <path id="DejaVuSans-76" d="M 191 3500 
L 800 3500 
L 1894 563 
L 2988 3500 
L 3597 3500 
L 2284 0 
L 1503 0 
L 191 3500 
z
" transform="scale(0.015625)"/>
       <path id="DejaVuSans-52" d="M 2841 2188 
Q 3044 2119 3236 1894 
Q 3428 1669 3622 1275 
L 4263 0 
L 3584 0 
L 2988 1197 
Q 2756 1666 2539 1819 
Q 2322 1972 1947 1972 
L 1259 1972 
L 1259 0 
L 628 0 
L 628 4666 
L 2053 4666 
Q 2853 4666 3247 4331 
Q 3641 3997 3641 3322 
Q 3641 2881 3436 2590 
Q 3231 2300 2841 2188 
z
M 1259 4147 
L 1259 2491 
L 2053 2491 
Q 2509 2491 2742 2702 
Q 2975 2913 2975 3322 
Q 2975 3731 2742 3939 
Q 2509 4147 2053 4147 
L 1259 4147 
z
" transform="scale(0.015625)"/>
      </defs>
      <use xlink:href="#DejaVuSans-46"/>
      <use xlink:href="#DejaVuSans-61" x="48.394531"/>
      <use xlink:href="#DejaVuSans-6c" x="109.673828"/>
      <use xlink:href="#DejaVuSans-73" x="137.457031"/>
      <use xlink:href="#DejaVuSans-65" x="189.556641"/>
      <use xlink:href="#DejaVuSans-20" x="251.080078"/>
      <use xlink:href="#DejaVuSans-50" x="282.867188"/>
      <use xlink:href="#DejaVuSans-6f" x="339.544922"/>
      <use xlink:href="#DejaVuSans-73" x="400.726562"/>
      <use xlink:href="#DejaVuSans-69" x="452.826172"/>
      <use xlink:href="#DejaVuSans-74" x="480.609375"/>
      <use xlink:href="#DejaVuSans-69" x="519.818359"/>
      <use xlink:href="#DejaVuSans-76" x="547.601562"/>
      <use xlink:href="#DejaVuSans-65" x="606.78125"/>
      <use xlink:href="#DejaVuSans-20" x="668.304688"/>
      <use xlink:href="#DejaVuSans-52" x="700.091797"/>
      <use xlink:href="#DejaVuSans-61" x="767.324219"/>
      <use xlink:href="#DejaVuSans-74" x="828.603516"/>
      <use xlink:href="#DejaVuSans-65" x="867.8125"/>
     </g>
    </g>
   </g>
   <g id="matplotlib.axis_2">
    <g id="ytick_1">
     <g id="line2d_7">
      <defs>
       <path id="m5ba99caafb" d="M 0 0 
L -3.5 0 
" style="stroke: #000000; stroke-width: 0.8"/>
      </defs>
      <g>
       <use xlink:href="#m5ba99caafb" x="43.78125" y="239.76" style="stroke: #000000; stroke-width: 0.8"/>
      </g>
     </g>
     <g id="text_8">
      <!-- 0.0 -->
      <g transform="translate(20.878125 243.559219) scale(0.1 -0.1)">
       <use xlink:href="#DejaVuSans-30"/>
       <use xlink:href="#DejaVuSans-2e" x="63.623047"/>
       <use xlink:href="#DejaVuSans-30" x="95.410156"/>
      </g>
     </g>
    </g>
    <g id="ytick_2">
     <g id="line2d_8">
      <g>
       <use xlink:href="#m5ba99caafb" x="43.78125" y="201.195429" style="stroke: #000000; stroke-width: 0.8"/>
      </g>
     </g>
     <g id="text_9">
      <!-- 0.2 -->
      <g transform="translate(20.878125 204.994647) scale(0.1 -0.1)">
       <use xlink:href="#DejaVuSans-30"/>
       <use xlink:href="#DejaVuSans-2e" x="63.623047"/>
       <use xlink:href="#DejaVuSans-32" x="95.410156"/>
      </g>
     </g>
    </g>
    <g id="ytick_3">
     <g id="line2d_9">
      <g>
       <use xlink:href="#m5ba99caafb" x="43.78125" y="162.630857" style="stroke: #000000; stroke-width: 0.8"/>
      </g>
     </g>
     <g id="text_10">
      <!-- 0.4 -->
      <g transform="translate(20.878125 166.430076) scale(0.1 -0.1)">
       <use xlink:href="#DejaVuSans-30"/>
       <use xlink:href="#DejaVuSans-2e" x="63.623047"/>
       <use xlink:href="#DejaVuSans-34" x="95.410156"/>
      </g>
     </g>
    </g>
    <g id="ytick_4">
     <g id="line2d_10">
      <g>
       <use xlink:href="#m5ba99caafb" x="43.78125" y="124.066286" style="stroke: #000000; stroke-width: 0.8"/>
      </g>
     </g>
     <g id="text_11">
      <!-- 0.6 -->
      <g transform="translate(20.878125 127.865504) scale(0.1 -0.1)">
       <use xlink:href="#DejaVuSans-30"/>
       <use xlink:href="#DejaVuSans-2e" x="63.623047"/>
       <use xlink:href="#DejaVuSans-36" x="95.410156"/>
      </g>
     </g>
    </g>
    <g id="ytick_5">
     <g id="line2d_11">
      <g>
       <use xlink:href="#m5ba99caafb" x="43.78125" y="85.501714" style="stroke: #000000; stroke-width: 0.8"/>
      </g>
     </g>
     <g id="text_12">
      <!-- 0.8 -->
      <g transform="translate(20.878125 89.300933) scale(0.1 -0.1)">
       <use xlink:href="#DejaVuSans-30"/>
       <use xlink:href="#DejaVuSans-2e" x="63.623047"/>
       <use xlink:href="#DejaVuSans-38" x="95.410156"/>
      </g>
     </g>
    </g>
    <g id="ytick_6">
     <g id="line2d_12">
      <g>
       <use xlink:href="#m5ba99caafb" x="43.78125" y="46.937143" style="stroke: #000000; stroke-width: 0.8"/>
      </g>
     </g>
     <g id="text_13">
      <!-- 1.0 -->
      <g transform="translate(20.878125 50.736362) scale(0.1 -0.1)">
       <use xlink:href="#DejaVuSans-31"/>
       <use xlink:href="#DejaVuSans-2e" x="63.623047"/>
       <use xlink:href="#DejaVuSans-30" x="95.410156"/>
      </g>
     </g>
    </g>
    <g id="text_14">
     <!-- True Positive Rate -->
     <g transform="translate(14.798438 183.057687) rotate(-90) scale(0.1 -0.1)">
      <defs>
       <path id="DejaVuSans-54" d="M -19 4666 
L 3928 4666 
L 3928 4134 
L 2272 4134 
L 2272 0 
L 1638 0 
L 1638 4134 
L -19 4134 
L -19 4666 
z
" transform="scale(0.015625)"/>
       <path id="DejaVuSans-72" d="M 2631 2963 
Q 2534 3019 2420 3045 
Q 2306 3072 2169 3072 
Q 1681 3072 1420 2755 
Q 1159 2438 1159 1844 
L 1159 0 
L 581 0 
L 581 3500 
L 1159 3500 
L 1159 2956 
Q 1341 3275 1631 3429 
Q 1922 3584 2338 3584 
Q 2397 3584 2469 3576 
Q 2541 3569 2628 3553 
L 2631 2963 
z
" transform="scale(0.015625)"/>
       <path id="DejaVuSans-75" d="M 544 1381 
L 544 3500 
L 1119 3500 
L 1119 1403 
Q 1119 906 1312 657 
Q 1506 409 1894 409 
Q 2359 409 2629 706 
Q 2900 1003 2900 1516 
L 2900 3500 
L 3475 3500 
L 3475 0 
L 2900 0 
L 2900 538 
Q 2691 219 2414 64 
Q 2138 -91 1772 -91 
Q 1169 -91 856 284 
Q 544 659 544 1381 
z
M 1991 3584 
L 1991 3584 
z
" transform="scale(0.015625)"/>
      </defs>
      <use xlink:href="#DejaVuSans-54"/>
      <use xlink:href="#DejaVuSans-72" x="46.333984"/>
      <use xlink:href="#DejaVuSans-75" x="87.447266"/>
      <use xlink:href="#DejaVuSans-65" x="150.826172"/>
      <use xlink:href="#DejaVuSans-20" x="212.349609"/>
      <use xlink:href="#DejaVuSans-50" x="244.136719"/>
      <use xlink:href="#DejaVuSans-6f" x="300.814453"/>
      <use xlink:href="#DejaVuSans-73" x="361.996094"/>
      <use xlink:href="#DejaVuSans-69" x="414.095703"/>
      <use xlink:href="#DejaVuSans-74" x="441.878906"/>
      <use xlink:href="#DejaVuSans-69" x="481.087891"/>
      <use xlink:href="#DejaVuSans-76" x="508.871094"/>
      <use xlink:href="#DejaVuSans-65" x="568.050781"/>
      <use xlink:href="#DejaVuSans-20" x="629.574219"/>
      <use xlink:href="#DejaVuSans-52" x="661.361328"/>
      <use xlink:href="#DejaVuSans-61" x="728.59375"/>
      <use xlink:href="#DejaVuSans-74" x="789.873047"/>
      <use xlink:href="#DejaVuSans-65" x="829.082031"/>
     </g>
    </g>
   </g>
   <g id="line2d_13">
    <path d="M 43.78125 239.76 
L 43.78125 237.714134 
L 44.14548 237.714134 
L 44.14548 237.458401 
L 44.50971 237.458401 
L 44.50971 234.133869 
L 44.873939 234.133869 
L 44.873939 232.599469 
L 45.238169 232.599469 
L 45.238169 231.83227 
L 45.602399 231.83227 
L 45.602399 230.29787 
L 45.966629 230.29787 
L 45.966629 228.252005 
L 46.330858 228.252005 
L 46.330858 226.461872 
L 46.695088 226.461872 
L 46.695088 223.90454 
L 47.059318 223.90454 
L 47.059318 223.648806 
L 47.787777 223.648806 
L 47.787777 222.881607 
L 48.516237 222.881607 
L 48.516237 220.068541 
L 48.880467 220.068541 
L 48.880467 218.278408 
L 49.244696 218.278408 
L 49.244696 214.698143 
L 49.608926 214.698143 
L 49.608926 212.652277 
L 49.973156 212.652277 
L 49.973156 211.885078 
L 50.337386 211.629344 
L 50.337386 210.862145 
L 50.701616 210.862145 
L 50.701616 210.094945 
L 51.065845 210.094945 
L 51.065845 207.793346 
L 51.430075 207.793346 
L 51.430075 203.445881 
L 51.794305 203.445881 
L 51.794305 203.190148 
L 52.158535 203.190148 
L 52.158535 200.888549 
L 52.522764 200.888549 
L 52.522764 200.121349 
L 52.886994 200.121349 
L 52.886994 199.865616 
L 53.251224 199.865616 
L 53.251224 197.308283 
L 53.615454 197.308283 
L 53.615454 196.796817 
L 53.979683 196.796817 
L 53.979683 193.728018 
L 54.343913 193.728018 
L 54.343913 193.472285 
L 54.708143 193.472285 
L 54.708143 191.426419 
L 56.529292 191.426419 
L 56.529292 190.147753 
L 57.257751 190.147753 
L 57.257751 189.89202 
L 57.621981 189.89202 
L 57.621981 189.12482 
L 57.986211 188.869087 
L 57.986211 187.590421 
L 58.350441 187.590421 
L 58.350441 187.078954 
L 59.0789 187.078954 
L 59.0789 186.823221 
L 59.44313 186.823221 
L 59.44313 186.311754 
L 60.171589 186.311754 
L 60.171589 184.777355 
L 60.535819 184.777355 
L 60.535819 182.987222 
L 60.900049 182.987222 
L 60.900049 180.174157 
L 61.264279 180.174157 
L 61.264279 177.616825 
L 61.992738 177.616825 
L 61.992738 176.849625 
L 62.356968 176.849625 
L 62.356968 174.803759 
L 62.721198 174.803759 
L 62.721198 174.292293 
L 63.085428 174.292293 
L 63.085428 174.036559 
L 64.178117 174.036559 
L 64.178117 173.780826 
L 64.906576 173.780826 
L 64.906576 173.26936 
L 65.270806 173.26936 
L 65.270806 173.013626 
L 65.635036 173.013626 
L 65.635036 172.757893 
L 65.999266 172.757893 
L 65.999266 170.712027 
L 66.363495 170.712027 
L 66.363495 166.108829 
L 66.727725 166.108829 
L 66.727725 165.597363 
L 67.456185 165.597363 
L 67.456185 164.318696 
L 67.820414 164.318696 
L 67.820414 164.062963 
L 68.184644 164.062963 
L 68.184644 159.204032 
L 68.548874 159.204032 
L 68.548874 158.181099 
L 68.913104 158.181099 
L 68.913104 157.669632 
L 70.005793 157.669632 
L 70.005793 157.413899 
L 70.370023 157.413899 
L 70.370023 153.066434 
L 70.734253 153.066434 
L 70.734253 151.787768 
L 71.098482 151.787768 
L 71.098482 151.276302 
L 71.462712 151.276302 
L 71.462712 150.509102 
L 71.826942 150.509102 
L 71.826942 149.741902 
L 72.555401 149.741902 
L 72.555401 147.440303 
L 72.919631 147.440303 
L 72.919631 147.18457 
L 73.283861 146.928837 
L 73.283861 146.161637 
L 73.648091 146.161637 
L 73.648091 145.394437 
L 74.01232 145.394437 
L 74.01232 142.325638 
L 74.37655 142.325638 
L 74.37655 141.046972 
L 75.10501 141.046972 
L 75.10501 140.535506 
L 75.833469 140.535506 
L 75.833469 140.279773 
L 76.197699 140.279773 
L 76.197699 139.768306 
L 76.561929 139.768306 
L 76.561929 139.512573 
L 76.926159 139.512573 
L 76.926159 138.745373 
L 77.290388 138.745373 
L 77.290388 138.233907 
L 78.383078 138.233907 
L 78.383078 136.699507 
L 78.747307 136.699507 
L 78.747307 136.443774 
L 79.111537 136.443774 
L 79.111537 136.188041 
L 79.475767 136.188041 
L 79.475767 135.165108 
L 79.839997 135.165108 
L 79.839997 134.142175 
L 80.204227 134.142175 
L 80.204227 132.352042 
L 80.568456 132.352042 
L 80.568456 132.096309 
L 81.296916 132.096309 
L 81.296916 131.840576 
L 81.661146 131.840576 
L 81.661146 131.584843 
L 82.389605 131.584843 
L 82.389605 131.32911 
L 83.846524 131.32911 
L 83.846524 130.817643 
L 84.210754 130.817643 
L 84.210754 130.306177 
L 84.574984 130.306177 
L 84.574984 130.050443 
L 86.031903 130.050443 
L 86.031903 129.79471 
L 86.396133 129.79471 
L 86.396133 129.02751 
L 87.124592 129.02751 
L 87.124592 128.516044 
L 87.853052 128.516044 
L 87.853052 128.260311 
L 88.217281 128.260311 
L 88.217281 126.214445 
L 88.581511 126.214445 
L 88.581511 125.447245 
L 88.945741 125.447245 
L 88.945741 123.657113 
L 89.6742 123.657113 
L 89.6742 123.401379 
L 90.03843 123.401379 
L 90.03843 122.63418 
L 90.40266 122.63418 
L 90.40266 122.122713 
L 90.76689 122.122713 
L 90.76689 121.86698 
L 91.131119 121.86698 
L 91.131119 121.355513 
L 92.223809 121.355513 
L 92.223809 121.09978 
L 92.588039 120.844047 
L 92.588039 120.332581 
L 92.952268 120.332581 
L 92.952268 120.076847 
L 93.316498 120.076847 
L 93.316498 119.821114 
L 93.680728 119.821114 
L 93.680728 119.053914 
L 94.773417 119.053914 
L 94.773417 118.542448 
L 95.137647 118.542448 
L 95.137647 118.286715 
L 95.501877 118.286715 
L 95.501877 118.030981 
L 96.230336 118.030981 
L 96.230336 117.775248 
L 96.958796 117.775248 
L 96.958796 116.752315 
L 97.323025 116.752315 
L 97.323025 116.240849 
L 97.687255 116.240849 
L 97.687255 115.985116 
L 98.051485 115.985116 
L 98.051485 115.217916 
L 98.415715 115.217916 
L 98.415715 114.962183 
L 98.779945 114.962183 
L 98.779945 114.706449 
L 99.508404 114.706449 
L 99.508404 113.93925 
L 99.872634 113.93925 
L 99.872634 112.916317 
L 100.601093 112.916317 
L 100.601093 112.40485 
L 101.693783 112.40485 
L 101.693783 111.637651 
L 102.058012 111.637651 
L 102.058012 111.126184 
L 102.422242 111.126184 
L 102.422242 109.591785 
L 102.786472 109.591785 
L 102.786472 109.336052 
L 103.879161 109.336052 
L 103.879161 108.824585 
L 104.243391 108.824585 
L 104.243391 107.801652 
L 104.607621 107.801652 
L 104.607621 107.545919 
L 106.06454 107.545919 
L 106.06454 106.522986 
L 106.42877 106.522986 
L 106.42877 106.01152 
L 107.885689 106.01152 
L 107.885689 103.965654 
L 108.249918 103.965654 
L 108.249918 102.942721 
L 109.342608 102.942721 
L 109.342608 102.175521 
L 109.706837 102.175521 
L 109.706837 101.152588 
L 110.435297 101.152588 
L 110.435297 100.385388 
L 111.163757 100.385388 
L 111.163757 100.129655 
L 112.984905 100.129655 
L 112.984905 99.618189 
L 113.713365 99.618189 
L 113.713365 98.595256 
L 114.441824 98.595256 
L 114.441824 98.339523 
L 114.806054 98.339523 
L 114.806054 98.083789 
L 115.170284 98.083789 
L 115.170284 96.54939 
L 115.534514 96.54939 
L 115.534514 96.293657 
L 116.262973 96.293657 
L 116.262973 96.037923 
L 117.719892 96.037923 
L 117.719892 95.526457 
L 118.448352 95.526457 
L 118.448352 94.247791 
L 118.812582 94.247791 
L 118.812582 93.992058 
L 119.176811 93.992058 
L 119.176811 91.946192 
L 119.541041 91.946192 
L 119.541041 91.178992 
L 120.269501 91.178992 
L 120.269501 90.923259 
L 120.63373 90.923259 
L 120.63373 90.667526 
L 120.99796 90.667526 
L 120.99796 90.411792 
L 121.36219 90.411792 
L 121.36219 88.877393 
L 121.72642 88.877393 
L 121.72642 88.62166 
L 122.090649 88.62166 
L 122.090649 88.365926 
L 122.454879 88.365926 
L 122.454879 87.85446 
L 122.819109 87.85446 
L 122.819109 87.598727 
L 123.547569 87.598727 
L 123.547569 86.831527 
L 123.911798 86.831527 
L 123.911798 86.320061 
L 124.276028 86.320061 
L 124.276028 86.064327 
L 125.004488 86.064327 
L 125.004488 85.808594 
L 125.368717 85.808594 
L 125.368717 85.552861 
L 125.732947 85.552861 
L 125.732947 85.041394 
L 126.097177 85.041394 
L 126.097177 84.274195 
L 126.461407 84.274195 
L 126.461407 83.762728 
L 126.825636 83.762728 
L 126.825636 83.506995 
L 127.189866 83.506995 
L 127.189866 83.251262 
L 127.554096 83.251262 
L 127.554096 82.995529 
L 127.918326 82.995529 
L 127.918326 80.949663 
L 128.282555 80.949663 
L 128.282555 80.69393 
L 128.646785 80.69393 
L 128.646785 80.438196 
L 130.103704 80.438196 
L 130.103704 80.182463 
L 130.467934 80.182463 
L 130.467934 79.92673 
L 130.832164 79.92673 
L 130.832164 79.415263 
L 131.196394 79.415263 
L 131.196394 78.136597 
L 132.289083 78.136597 
L 132.289083 77.880864 
L 132.653313 77.880864 
L 132.653313 77.369397 
L 133.381772 77.369397 
L 133.381772 77.113664 
L 134.474461 77.113664 
L 134.474461 76.857931 
L 134.838691 76.857931 
L 134.838691 76.602198 
L 135.567151 76.602198 
L 135.567151 76.346465 
L 136.29561 76.346465 
L 136.29561 75.834998 
L 137.02407 75.834998 
L 137.02407 75.579265 
L 137.3883 75.579265 
L 137.3883 75.067798 
L 137.752529 75.067798 
L 137.752529 74.556332 
L 138.480989 74.556332 
L 138.480989 74.044865 
L 138.845219 74.044865 
L 138.845219 73.533399 
L 139.573678 73.533399 
L 139.573678 73.277666 
L 139.937908 73.277666 
L 139.937908 73.021933 
L 142.123287 73.021933 
L 142.123287 72.766199 
L 142.487516 72.766199 
L 142.487516 72.254733 
L 142.851746 72.254733 
L 142.851746 71.999 
L 143.215976 71.999 
L 143.215976 71.743266 
L 143.580206 71.743266 
L 143.580206 70.976067 
L 144.308665 70.976067 
L 144.308665 70.720333 
L 145.401354 70.720333 
L 145.401354 70.4646 
L 145.765584 70.4646 
L 145.765584 69.953134 
L 146.129814 69.953134 
L 146.129814 69.441667 
L 146.494044 69.441667 
L 146.494044 69.185934 
L 147.222503 69.185934 
L 147.222503 68.930201 
L 147.586733 68.930201 
L 147.586733 68.674468 
L 149.407882 68.674468 
L 149.407882 68.418734 
L 150.136341 68.418734 
L 150.136341 68.163001 
L 150.500571 68.163001 
L 150.500571 67.907268 
L 151.229031 67.907268 
L 151.229031 67.395801 
L 151.59326 67.395801 
L 151.59326 67.140068 
L 152.32172 67.140068 
L 152.32172 66.884335 
L 152.68595 66.884335 
L 152.68595 66.628602 
L 153.414409 66.628602 
L 153.414409 65.349936 
L 153.778639 65.349936 
L 153.778639 65.094202 
L 156.328247 65.094202 
L 156.328247 64.838469 
L 158.513626 64.838469 
L 158.513626 64.071269 
L 158.877856 64.071269 
L 158.877856 63.815536 
L 159.242086 63.815536 
L 159.242086 63.30407 
L 159.970545 63.30407 
L 159.970545 62.792603 
L 161.427464 62.792603 
L 161.427464 62.53687 
L 162.520153 62.53687 
L 162.520153 62.281137 
L 162.884383 62.281137 
L 162.884383 62.025404 
L 163.977072 62.025404 
L 163.977072 61.76967 
L 164.705532 61.76967 
L 164.705532 61.513937 
L 166.526681 61.513937 
L 166.526681 61.258204 
L 167.25514 61.258204 
L 167.25514 61.002471 
L 167.9836 61.002471 
L 167.9836 60.746737 
L 168.712059 60.746737 
L 168.712059 60.491004 
L 169.076289 60.491004 
L 169.076289 59.723804 
L 170.897438 59.723804 
L 170.897438 59.468071 
L 171.990127 59.468071 
L 171.990127 59.212338 
L 172.718587 59.212338 
L 172.718587 58.956605 
L 173.082817 58.956605 
L 173.082817 58.700872 
L 174.175506 58.700872 
L 174.175506 58.445138 
L 174.539736 58.445138 
L 174.539736 58.189405 
L 178.546263 58.189405 
L 178.546263 57.677939 
L 179.274723 57.677939 
L 179.274723 57.422205 
L 180.003182 57.422205 
L 180.003182 57.166472 
L 180.367412 57.166472 
L 180.367412 56.910739 
L 181.824331 56.910739 
L 181.824331 56.655006 
L 184.00971 56.655006 
L 184.00971 56.399272 
L 185.830858 56.399272 
L 185.830858 56.143539 
L 186.559318 56.143539 
L 186.559318 55.887806 
L 188.380467 55.887806 
L 188.380467 55.632073 
L 188.744696 55.632073 
L 188.744696 55.37634 
L 189.473156 55.37634 
L 189.473156 55.120606 
L 190.565845 55.120606 
L 190.565845 54.60914 
L 190.930075 54.60914 
L 190.930075 54.353407 
L 191.658535 54.353407 
L 191.658535 54.097673 
L 192.751224 54.097673 
L 192.751224 53.84194 
L 196.029292 53.84194 
L 196.029292 53.586207 
L 197.850441 53.586207 
L 197.850441 53.330474 
L 201.128508 53.330474 
L 201.128508 53.07474 
L 203.678117 53.07474 
L 203.678117 52.563274 
L 204.042347 52.563274 
L 204.042347 52.307541 
L 207.320414 52.307541 
L 207.320414 52.051808 
L 207.684644 52.051808 
L 207.684644 51.796074 
L 210.234253 51.796074 
L 210.598482 51.540341 
L 212.783861 51.540341 
L 212.783861 51.284608 
L 213.148091 51.284608 
L 213.148091 51.028875 
L 214.24078 51.028875 
L 214.24078 50.773141 
L 214.96924 50.773141 
L 214.96924 50.517408 
L 220.796916 50.517408 
L 220.796916 50.261675 
L 221.525375 50.261675 
L 221.525375 50.005942 
L 222.618065 50.005942 
L 222.618065 49.750208 
L 231.723809 49.750208 
L 231.723809 49.494475 
L 237.187255 49.494475 
L 237.187255 49.238742 
L 251.392216 49.238742 
L 251.392216 48.983009 
L 265.961407 48.983009 
L 265.961407 48.727275 
L 267.782555 48.727275 
L 267.782555 48.471542 
L 276.52407 48.471542 
L 276.52407 48.215809 
L 278.709448 48.215809 
L 278.709448 47.960076 
L 279.802138 47.960076 
L 279.802138 47.704343 
L 285.629814 47.704343 
L 285.629814 47.448609 
L 305.662451 47.448609 
L 305.662451 47.192876 
L 317.682033 47.192876 
L 317.682033 46.937143 
L 322.78125 46.937143 
L 322.78125 46.937143 
" clip-path="url(#p9d2cd854b2)" style="fill: none; stroke: #ff8c00; stroke-width: 2; stroke-linecap: square"/>
   </g>
   <g id="line2d_14">
    <path d="M 43.78125 239.76 
L 322.78125 46.937143 
" clip-path="url(#p9d2cd854b2)" style="fill: none; stroke-dasharray: 7.4,3.2; stroke-dashoffset: 0; stroke: #000080; stroke-width: 2"/>
   </g>
   <g id="patch_3">
    <path d="M 43.78125 239.76 
L 43.78125 37.296 
" style="fill: none; stroke: #000000; stroke-width: 0.8; stroke-linejoin: miter; stroke-linecap: square"/>
   </g>
   <g id="patch_4">
    <path d="M 322.78125 239.76 
L 322.78125 37.296 
" style="fill: none; stroke: #000000; stroke-width: 0.8; stroke-linejoin: miter; stroke-linecap: square"/>
   </g>
   <g id="patch_5">
    <path d="M 43.78125 239.76 
L 322.78125 239.76 
" style="fill: none; stroke: #000000; stroke-width: 0.8; stroke-linejoin: miter; stroke-linecap: square"/>
   </g>
   <g id="patch_6">
    <path d="M 43.78125 37.296 
L 322.78125 37.296 
" style="fill: none; stroke: #000000; stroke-width: 0.8; stroke-linejoin: miter; stroke-linecap: square"/>
   </g>
   <g id="text_15">
    <!-- Baseline Model -->
    <g transform="translate(149.259844 31.296) scale(0.09 -0.09)">
     <defs>
      <path id="DejaVuSans-42" d="M 1259 2228 
L 1259 519 
L 2272 519 
Q 2781 519 3026 730 
Q 3272 941 3272 1375 
Q 3272 1813 3026 2020 
Q 2781 2228 2272 2228 
L 1259 2228 
z
M 1259 4147 
L 1259 2741 
L 2194 2741 
Q 2656 2741 2882 2914 
Q 3109 3088 3109 3444 
Q 3109 3797 2882 3972 
Q 2656 4147 2194 4147 
L 1259 4147 
z
M 628 4666 
L 2241 4666 
Q 2963 4666 3353 4366 
Q 3744 4066 3744 3513 
Q 3744 3084 3544 2831 
Q 3344 2578 2956 2516 
Q 3422 2416 3680 2098 
Q 3938 1781 3938 1306 
Q 3938 681 3513 340 
Q 3088 0 2303 0 
L 628 0 
L 628 4666 
z
" transform="scale(0.015625)"/>
      <path id="DejaVuSans-6e" d="M 3513 2113 
L 3513 0 
L 2938 0 
L 2938 2094 
Q 2938 2591 2744 2837 
Q 2550 3084 2163 3084 
Q 1697 3084 1428 2787 
Q 1159 2491 1159 1978 
L 1159 0 
L 581 0 
L 581 3500 
L 1159 3500 
L 1159 2956 
Q 1366 3272 1645 3428 
Q 1925 3584 2291 3584 
Q 2894 3584 3203 3211 
Q 3513 2838 3513 2113 
z
" transform="scale(0.015625)"/>
      <path id="DejaVuSans-4d" d="M 628 4666 
L 1569 4666 
L 2759 1491 
L 3956 4666 
L 4897 4666 
L 4897 0 
L 4281 0 
L 4281 4097 
L 3078 897 
L 2444 897 
L 1241 4097 
L 1241 0 
L 628 0 
L 628 4666 
z
" transform="scale(0.015625)"/>
      <path id="DejaVuSans-64" d="M 2906 2969 
L 2906 4863 
L 3481 4863 
L 3481 0 
L 2906 0 
L 2906 525 
Q 2725 213 2448 61 
Q 2172 -91 1784 -91 
Q 1150 -91 751 415 
Q 353 922 353 1747 
Q 353 2572 751 3078 
Q 1150 3584 1784 3584 
Q 2172 3584 2448 3432 
Q 2725 3281 2906 2969 
z
M 947 1747 
Q 947 1113 1208 752 
Q 1469 391 1925 391 
Q 2381 391 2643 752 
Q 2906 1113 2906 1747 
Q 2906 2381 2643 2742 
Q 2381 3103 1925 3103 
Q 1469 3103 1208 2742 
Q 947 2381 947 1747 
z
" transform="scale(0.015625)"/>
     </defs>
     <use xlink:href="#DejaVuSans-42"/>
     <use xlink:href="#DejaVuSans-61" x="68.603516"/>
     <use xlink:href="#DejaVuSans-73" x="129.882812"/>
     <use xlink:href="#DejaVuSans-65" x="181.982422"/>
     <use xlink:href="#DejaVuSans-6c" x="243.505859"/>
     <use xlink:href="#DejaVuSans-69" x="271.289062"/>
     <use xlink:href="#DejaVuSans-6e" x="299.072266"/>
     <use xlink:href="#DejaVuSans-65" x="362.451172"/>
     <use xlink:href="#DejaVuSans-20" x="423.974609"/>
     <use xlink:href="#DejaVuSans-4d" x="455.761719"/>
     <use xlink:href="#DejaVuSans-6f" x="542.041016"/>
     <use xlink:href="#DejaVuSans-64" x="603.222656"/>
     <use xlink:href="#DejaVuSans-65" x="666.699219"/>
     <use xlink:href="#DejaVuSans-6c" x="728.222656"/>
    </g>
   </g>
   <g id="legend_1">
    <g id="patch_7">
     <path d="M 199.503125 234.76 
L 315.78125 234.76 
Q 317.78125 234.76 317.78125 232.76 
L 317.78125 219.081875 
Q 317.78125 217.081875 315.78125 217.081875 
L 199.503125 217.081875 
Q 197.503125 217.081875 197.503125 219.081875 
L 197.503125 232.76 
Q 197.503125 234.76 199.503125 234.76 
z
" style="fill: #ffffff; opacity: 0.8; stroke: #cccccc; stroke-linejoin: miter"/>
    </g>
    <g id="line2d_15">
     <path d="M 201.503125 225.180312 
L 211.503125 225.180312 
L 221.503125 225.180312 
" style="fill: none; stroke: #ff8c00; stroke-width: 2; stroke-linecap: square"/>
    </g>
    <g id="text_16">
     <!-- ROC area = 0.83 -->
     <g transform="translate(229.503125 228.680312) scale(0.1 -0.1)">
      <defs>
       <path id="DejaVuSans-4f" d="M 2522 4238 
Q 1834 4238 1429 3725 
Q 1025 3213 1025 2328 
Q 1025 1447 1429 934 
Q 1834 422 2522 422 
Q 3209 422 3611 934 
Q 4013 1447 4013 2328 
Q 4013 3213 3611 3725 
Q 3209 4238 2522 4238 
z
M 2522 4750 
Q 3503 4750 4090 4092 
Q 4678 3434 4678 2328 
Q 4678 1225 4090 567 
Q 3503 -91 2522 -91 
Q 1538 -91 948 565 
Q 359 1222 359 2328 
Q 359 3434 948 4092 
Q 1538 4750 2522 4750 
z
" transform="scale(0.015625)"/>
       <path id="DejaVuSans-43" d="M 4122 4306 
L 4122 3641 
Q 3803 3938 3442 4084 
Q 3081 4231 2675 4231 
Q 1875 4231 1450 3742 
Q 1025 3253 1025 2328 
Q 1025 1406 1450 917 
Q 1875 428 2675 428 
Q 3081 428 3442 575 
Q 3803 722 4122 1019 
L 4122 359 
Q 3791 134 3420 21 
Q 3050 -91 2638 -91 
Q 1578 -91 968 557 
Q 359 1206 359 2328 
Q 359 3453 968 4101 
Q 1578 4750 2638 4750 
Q 3056 4750 3426 4639 
Q 3797 4528 4122 4306 
z
" transform="scale(0.015625)"/>
       <path id="DejaVuSans-3d" d="M 678 2906 
L 4684 2906 
L 4684 2381 
L 678 2381 
L 678 2906 
z
M 678 1631 
L 4684 1631 
L 4684 1100 
L 678 1100 
L 678 1631 
z
" transform="scale(0.015625)"/>
       <path id="DejaVuSans-33" d="M 2597 2516 
Q 3050 2419 3304 2112 
Q 3559 1806 3559 1356 
Q 3559 666 3084 287 
Q 2609 -91 1734 -91 
Q 1441 -91 1130 -33 
Q 819 25 488 141 
L 488 750 
Q 750 597 1062 519 
Q 1375 441 1716 441 
Q 2309 441 2620 675 
Q 2931 909 2931 1356 
Q 2931 1769 2642 2001 
Q 2353 2234 1838 2234 
L 1294 2234 
L 1294 2753 
L 1863 2753 
Q 2328 2753 2575 2939 
Q 2822 3125 2822 3475 
Q 2822 3834 2567 4026 
Q 2313 4219 1838 4219 
Q 1578 4219 1281 4162 
Q 984 4106 628 3988 
L 628 4550 
Q 988 4650 1302 4700 
Q 1616 4750 1894 4750 
Q 2613 4750 3031 4423 
Q 3450 4097 3450 3541 
Q 3450 3153 3228 2886 
Q 3006 2619 2597 2516 
z
" transform="scale(0.015625)"/>
      </defs>
      <use xlink:href="#DejaVuSans-52"/>
      <use xlink:href="#DejaVuSans-4f" x="69.482422"/>
      <use xlink:href="#DejaVuSans-43" x="148.193359"/>
      <use xlink:href="#DejaVuSans-20" x="218.017578"/>
      <use xlink:href="#DejaVuSans-61" x="249.804688"/>
      <use xlink:href="#DejaVuSans-72" x="311.083984"/>
      <use xlink:href="#DejaVuSans-65" x="349.947266"/>
      <use xlink:href="#DejaVuSans-61" x="411.470703"/>
      <use xlink:href="#DejaVuSans-20" x="472.75"/>
      <use xlink:href="#DejaVuSans-3d" x="504.537109"/>
      <use xlink:href="#DejaVuSans-20" x="588.326172"/>
      <use xlink:href="#DejaVuSans-30" x="620.113281"/>
      <use xlink:href="#DejaVuSans-2e" x="683.736328"/>
      <use xlink:href="#DejaVuSans-38" x="715.523438"/>
      <use xlink:href="#DejaVuSans-33" x="779.146484"/>
     </g>
    </g>
   </g>
  </g>
  <g id="text_17">
   <!-- ROC Curve - Tp = 10, Pct = 100.0% -->
   <g transform="translate(80.311484 15.558281) scale(0.11 -0.11)">
    <defs>
     <path id="DejaVuSans-2d" d="M 313 2009 
L 1997 2009 
L 1997 1497 
L 313 1497 
L 313 2009 
z
" transform="scale(0.015625)"/>
     <path id="DejaVuSans-70" d="M 1159 525 
L 1159 -1331 
L 581 -1331 
L 581 3500 
L 1159 3500 
L 1159 2969 
Q 1341 3281 1617 3432 
Q 1894 3584 2278 3584 
Q 2916 3584 3314 3078 
Q 3713 2572 3713 1747 
Q 3713 922 3314 415 
Q 2916 -91 2278 -91 
Q 1894 -91 1617 61 
Q 1341 213 1159 525 
z
M 3116 1747 
Q 3116 2381 2855 2742 
Q 2594 3103 2138 3103 
Q 1681 3103 1420 2742 
Q 1159 2381 1159 1747 
Q 1159 1113 1420 752 
Q 1681 391 2138 391 
Q 2594 391 2855 752 
Q 3116 1113 3116 1747 
z
" transform="scale(0.015625)"/>
     <path id="DejaVuSans-2c" d="M 750 794 
L 1409 794 
L 1409 256 
L 897 -744 
L 494 -744 
L 750 256 
L 750 794 
z
" transform="scale(0.015625)"/>
     <path id="DejaVuSans-63" d="M 3122 3366 
L 3122 2828 
Q 2878 2963 2633 3030 
Q 2388 3097 2138 3097 
Q 1578 3097 1268 2742 
Q 959 2388 959 1747 
Q 959 1106 1268 751 
Q 1578 397 2138 397 
Q 2388 397 2633 464 
Q 2878 531 3122 666 
L 3122 134 
Q 2881 22 2623 -34 
Q 2366 -91 2075 -91 
Q 1284 -91 818 406 
Q 353 903 353 1747 
Q 353 2603 823 3093 
Q 1294 3584 2113 3584 
Q 2378 3584 2631 3529 
Q 2884 3475 3122 3366 
z
" transform="scale(0.015625)"/>
     <path id="DejaVuSans-25" d="M 4653 2053 
Q 4381 2053 4226 1822 
Q 4072 1591 4072 1178 
Q 4072 772 4226 539 
Q 4381 306 4653 306 
Q 4919 306 5073 539 
Q 5228 772 5228 1178 
Q 5228 1588 5073 1820 
Q 4919 2053 4653 2053 
z
M 4653 2450 
Q 5147 2450 5437 2106 
Q 5728 1763 5728 1178 
Q 5728 594 5436 251 
Q 5144 -91 4653 -91 
Q 4153 -91 3862 251 
Q 3572 594 3572 1178 
Q 3572 1766 3864 2108 
Q 4156 2450 4653 2450 
z
M 1428 4353 
Q 1159 4353 1004 4120 
Q 850 3888 850 3481 
Q 850 3069 1003 2837 
Q 1156 2606 1428 2606 
Q 1700 2606 1854 2837 
Q 2009 3069 2009 3481 
Q 2009 3884 1853 4118 
Q 1697 4353 1428 4353 
z
M 4250 4750 
L 4750 4750 
L 1831 -91 
L 1331 -91 
L 4250 4750 
z
M 1428 4750 
Q 1922 4750 2215 4408 
Q 2509 4066 2509 3481 
Q 2509 2891 2217 2550 
Q 1925 2209 1428 2209 
Q 931 2209 642 2551 
Q 353 2894 353 3481 
Q 353 4063 643 4406 
Q 934 4750 1428 4750 
z
" transform="scale(0.015625)"/>
    </defs>
    <use xlink:href="#DejaVuSans-52"/>
    <use xlink:href="#DejaVuSans-4f" x="69.482422"/>
    <use xlink:href="#DejaVuSans-43" x="148.193359"/>
    <use xlink:href="#DejaVuSans-20" x="218.017578"/>
    <use xlink:href="#DejaVuSans-43" x="249.804688"/>
    <use xlink:href="#DejaVuSans-75" x="319.628906"/>
    <use xlink:href="#DejaVuSans-72" x="383.007812"/>
    <use xlink:href="#DejaVuSans-76" x="424.121094"/>
    <use xlink:href="#DejaVuSans-65" x="483.300781"/>
    <use xlink:href="#DejaVuSans-20" x="544.824219"/>
    <use xlink:href="#DejaVuSans-2d" x="576.611328"/>
    <use xlink:href="#DejaVuSans-20" x="612.695312"/>
    <use xlink:href="#DejaVuSans-54" x="644.482422"/>
    <use xlink:href="#DejaVuSans-70" x="705.566406"/>
    <use xlink:href="#DejaVuSans-20" x="769.042969"/>
    <use xlink:href="#DejaVuSans-3d" x="800.830078"/>
    <use xlink:href="#DejaVuSans-20" x="884.619141"/>
    <use xlink:href="#DejaVuSans-31" x="916.40625"/>
    <use xlink:href="#DejaVuSans-30" x="980.029297"/>
    <use xlink:href="#DejaVuSans-2c" x="1043.652344"/>
    <use xlink:href="#DejaVuSans-20" x="1075.439453"/>
    <use xlink:href="#DejaVuSans-50" x="1107.226562"/>
    <use xlink:href="#DejaVuSans-63" x="1167.529297"/>
    <use xlink:href="#DejaVuSans-74" x="1222.509766"/>
    <use xlink:href="#DejaVuSans-20" x="1261.71875"/>
    <use xlink:href="#DejaVuSans-3d" x="1293.505859"/>
    <use xlink:href="#DejaVuSans-20" x="1377.294922"/>
    <use xlink:href="#DejaVuSans-31" x="1409.082031"/>
    <use xlink:href="#DejaVuSans-30" x="1472.705078"/>
    <use xlink:href="#DejaVuSans-30" x="1536.328125"/>
    <use xlink:href="#DejaVuSans-2e" x="1599.951172"/>
    <use xlink:href="#DejaVuSans-30" x="1631.738281"/>
    <use xlink:href="#DejaVuSans-25" x="1695.361328"/>
   </g>
  </g>
 </g>
 <defs>
  <clipPath id="p9d2cd854b2">
   <rect x="43.78125" y="37.296" width="279" height="202.464"/>
  </clipPath>
 </defs>
</svg>
