<?xml version="1.0" encoding="utf-8" standalone="no"?>
<!DOCTYPE svg PUBLIC "-//W3C//DTD SVG 1.1//EN"
  "http://www.w3.org/Graphics/SVG/1.1/DTD/svg11.dtd">
<svg xmlns:xlink="http://www.w3.org/1999/xlink" width="337.932812pt" height="277.31625pt" viewBox="0 0 337.932812 277.31625" xmlns="http://www.w3.org/2000/svg" version="1.1">
 <metadata>
  <rdf:RDF xmlns:dc="http://purl.org/dc/elements/1.1/" xmlns:cc="http://creativecommons.org/ns#" xmlns:rdf="http://www.w3.org/1999/02/22-rdf-syntax-ns#">
   <cc:Work>
    <dc:type rdf:resource="http://purl.org/dc/dcmitype/StillImage"/>
    <dc:date>2026-06-15T14:38:26.894278</dc:date>
    <dc:format>image/svg+xml</dc:format>
    <dc:creator>
     <cc:Agent>
      <dc:title>Matplotlib v3.8.4, https://matplotlib.org/</dc:title>
     </cc:Agent>
    </dc:creator>
   </cc:Work>
  </rdf:RDF>
 </metadata>
 <defs>
  <style type="text/css">*{stroke-linejoin: round; stroke-linecap: butt}</style>
 </defs>
 <g id="figure_1">
  <g id="patch_1">
   <path d="M 0 277.31625 
L 337.932812 277.31625 
L 337.932812 0 
L 0 0 
z
" style="fill: #ffffff"/>
  </g>
  <g id="axes_1">
   <g id="patch_2">
    <path d="M 43.78125 239.76 
L 322.78125 239.76 
L 322.78125 37.296 
L 43.78125 37.296 
z
" style="fill: #ffffff"/>
   </g>
   <g id="matplotlib.axis_1">
    <g id="xtick_1">
     <g id="line2d_1">
      <defs>
       <path id="mb9e229e480" d="M 0 0 
L 0 3.5 
" style="stroke: #000000; stroke-width: 0.8"/>
      </defs>
      <g>
       <use xlink:href="#mb9e229e480" x="43.78125" y="239.76" style="stroke: #000000; stroke-width: 0.8"/>
      </g>
     </g>
     <g id="text_1">
      <!-- 0.0 -->
      <g transform="translate(35.829688 254.358437) scale(0.1 -0.1)">
       <defs>
        <path id="DejaVuSans-30" d="M 2034 4250 
Q 1547 4250 1301 3770 
Q 1056 3291 1056 2328 
Q 1056 1369 1301 889 
Q 1547 409 2034 409 
Q 2525 409 2770 889 
Q 3016 1369 3016 2328 
Q 3016 3291 2770 3770 
Q 2525 4250 2034 4250 
z
M 2034 4750 
Q 2819 4750 3233 4129 
Q 3647 3509 3647 2328 
Q 3647 1150 3233 529 
Q 2819 -91 2034 -91 
Q 1250 -91 836 529 
Q 422 1150 422 2328 
Q 422 3509 836 4129 
Q 1250 4750 2034 4750 
z
" transform="scale(0.015625)"/>
        <path id="DejaVuSans-2e" d="M 684 794 
L 1344 794 
L 1344 0 
L 684 0 
L 684 794 
z
" transform="scale(0.015625)"/>
       </defs>
       <use xlink:href="#DejaVuSans-30"/>
       <use xlink:href="#DejaVuSans-2e" x="63.623047"/>
       <use xlink:href="#DejaVuSans-30" x="95.410156"/>
      </g>
     </g>
    </g>
    <g id="xtick_2">
     <g id="line2d_2">
      <g>
       <use xlink:href="#mb9e229e480" x="99.58125" y="239.76" style="stroke: #000000; stroke-width: 0.8"/>
      </g>
     </g>
     <g id="text_2">
      <!-- 0.2 -->
      <g transform="translate(91.629688 254.358437) scale(0.1 -0.1)">
       <defs>
        <path id="DejaVuSans-32" d="M 1228 531 
L 3431 531 
L 3431 0 
L 469 0 
L 469 531 
Q 828 903 1448 1529 
Q 2069 2156 2228 2338 
Q 2531 2678 2651 2914 
Q 2772 3150 2772 3378 
Q 2772 3750 2511 3984 
Q 2250 4219 1831 4219 
Q 1534 4219 1204 4116 
Q 875 4013 500 3803 
L 500 4441 
Q 881 4594 1212 4672 
Q 1544 4750 1819 4750 
Q 2544 4750 2975 4387 
Q 3406 4025 3406 3419 
Q 3406 3131 3298 2873 
Q 3191 2616 2906 2266 
Q 2828 2175 2409 1742 
Q 1991 1309 1228 531 
z
" transform="scale(0.015625)"/>
       </defs>
       <use xlink:href="#DejaVuSans-30"/>
       <use xlink:href="#DejaVuSans-2e" x="63.623047"/>
       <use xlink:href="#DejaVuSans-32" x="95.410156"/>
      </g>
     </g>
    </g>
    <g id="xtick_3">
     <g id="line2d_3">
      <g>
       <use xlink:href="#mb9e229e480" x="155.38125" y="239.76" style="stroke: #000000; stroke-width: 0.8"/>
      </g>
     </g>
     <g id="text_3">
      <!-- 0.4 -->
      <g transform="translate(147.429688 254.358437) scale(0.1 -0.1)">
       <defs>
        <path id="DejaVuSans-34" d="M 2419 4116 
L 825 1625 
L 2419 1625 
L 2419 4116 
z
M 2253 4666 
L 3047 4666 
L 3047 1625 
L 3713 1625 
L 3713 1100 
L 3047 1100 
L 3047 0 
L 2419 0 
L 2419 1100 
L 313 1100 
L 313 1709 
L 2253 4666 
z
" transform="scale(0.015625)"/>
       </defs>
       <use xlink:href="#DejaVuSans-30"/>
       <use xlink:href="#DejaVuSans-2e" x="63.623047"/>
       <use xlink:href="#DejaVuSans-34" x="95.410156"/>
      </g>
     </g>
    </g>
    <g id="xtick_4">
     <g id="line2d_4">
      <g>
       <use xlink:href="#mb9e229e480" x="211.18125" y="239.76" style="stroke: #000000; stroke-width: 0.8"/>
      </g>
     </g>
     <g id="text_4">
      <!-- 0.6 -->
      <g transform="translate(203.229688 254.358437) scale(0.1 -0.1)">
       <defs>
        <path id="DejaVuSans-36" d="M 2113 2584 
Q 1688 2584 1439 2293 
Q 1191 2003 1191 1497 
Q 1191 994 1439 701 
Q 1688 409 2113 409 
Q 2538 409 2786 701 
Q 3034 994 3034 1497 
Q 3034 2003 2786 2293 
Q 2538 2584 2113 2584 
z
M 3366 4563 
L 3366 3988 
Q 3128 4100 2886 4159 
Q 2644 4219 2406 4219 
Q 1781 4219 1451 3797 
Q 1122 3375 1075 2522 
Q 1259 2794 1537 2939 
Q 1816 3084 2150 3084 
Q 2853 3084 3261 2657 
Q 3669 2231 3669 1497 
Q 3669 778 3244 343 
Q 2819 -91 2113 -91 
Q 1303 -91 875 529 
Q 447 1150 447 2328 
Q 447 3434 972 4092 
Q 1497 4750 2381 4750 
Q 2619 4750 2861 4703 
Q 3103 4656 3366 4563 
z
" transform="scale(0.015625)"/>
       </defs>
       <use xlink:href="#DejaVuSans-30"/>
       <use xlink:href="#DejaVuSans-2e" x="63.623047"/>
       <use xlink:href="#DejaVuSans-36" x="95.410156"/>
      </g>
     </g>
    </g>
    <g id="xtick_5">
     <g id="line2d_5">
      <g>
       <use xlink:href="#mb9e229e480" x="266.98125" y="239.76" style="stroke: #000000; stroke-width: 0.8"/>
      </g>
     </g>
     <g id="text_5">
      <!-- 0.8 -->
      <g transform="translate(259.029688 254.358437) scale(0.1 -0.1)">
       <defs>
        <path id="DejaVuSans-38" d="M 2034 2216 
Q 1584 2216 1326 1975 
Q 1069 1734 1069 1313 
Q 1069 891 1326 650 
Q 1584 409 2034 409 
Q 2484 409 2743 651 
Q 3003 894 3003 1313 
Q 3003 1734 2745 1975 
Q 2488 2216 2034 2216 
z
M 1403 2484 
Q 997 2584 770 2862 
Q 544 3141 544 3541 
Q 544 4100 942 4425 
Q 1341 4750 2034 4750 
Q 2731 4750 3128 4425 
Q 3525 4100 3525 3541 
Q 3525 3141 3298 2862 
Q 3072 2584 2669 2484 
Q 3125 2378 3379 2068 
Q 3634 1759 3634 1313 
Q 3634 634 3220 271 
Q 2806 -91 2034 -91 
Q 1263 -91 848 271 
Q 434 634 434 1313 
Q 434 1759 690 2068 
Q 947 2378 1403 2484 
z
M 1172 3481 
Q 1172 3119 1398 2916 
Q 1625 2713 2034 2713 
Q 2441 2713 2670 2916 
Q 2900 3119 2900 3481 
Q 2900 3844 2670 4047 
Q 2441 4250 2034 4250 
Q 1625 4250 1398 4047 
Q 1172 3844 1172 3481 
z
" transform="scale(0.015625)"/>
       </defs>
       <use xlink:href="#DejaVuSans-30"/>
       <use xlink:href="#DejaVuSans-2e" x="63.623047"/>
       <use xlink:href="#DejaVuSans-38" x="95.410156"/>
      </g>
     </g>
    </g>
    <g id="xtick_6">
     <g id="line2d_6">
      <g>
       <use xlink:href="#mb9e229e480" x="322.78125" y="239.76" style="stroke: #000000; stroke-width: 0.8"/>
      </g>
     </g>
     <g id="text_6">
      <!-- 1.0 -->
      <g transform="translate(314.829687 254.358437) scale(0.1 -0.1)">
       <defs>
        <path id="DejaVuSans-31" d="M 794 531 
L 1825 531 
L 1825 4091 
L 703 3866 
L 703 4441 
L 1819 4666 
L 2450 4666 
L 2450 531 
L 3481 531 
L 3481 0 
L 794 0 
L 794 531 
z
" transform="scale(0.015625)"/>
       </defs>
       <use xlink:href="#DejaVuSans-31"/>
       <use xlink:href="#DejaVuSans-2e" x="63.623047"/>
       <use xlink:href="#DejaVuSans-30" x="95.410156"/>
      </g>
     </g>
    </g>
    <g id="text_7">
     <!-- False Positive Rate -->
     <g transform="translate(136.814844 268.036562) scale(0.1 -0.1)">
      <defs>
       <path id="DejaVuSans-46" d="M 628 4666 
L 3309 4666 
L 3309 4134 
L 1259 4134 
L 1259 2759 
L 3109 2759 
L 3109 2228 
L 1259 2228 
L 1259 0 
L 628 0 
L 628 4666 
z
" transform="scale(0.015625)"/>
       <path id="DejaVuSans-61" d="M 2194 1759 
Q 1497 1759 1228 1600 
Q 959 1441 959 1056 
Q 959 750 1161 570 
Q 1363 391 1709 391 
Q 2188 391 2477 730 
Q 2766 1069 2766 1631 
L 2766 1759 
L 2194 1759 
z
M 3341 1997 
L 3341 0 
L 2766 0 
L 2766 531 
Q 2569 213 2275 61 
Q 1981 -91 1556 -91 
Q 1019 -91 701 211 
Q 384 513 384 1019 
Q 384 1609 779 1909 
Q 1175 2209 1959 2209 
L 2766 2209 
L 2766 2266 
Q 2766 2663 2505 2880 
Q 2244 3097 1772 3097 
Q 1472 3097 1187 3025 
Q 903 2953 641 2809 
L 641 3341 
Q 956 3463 1253 3523 
Q 1550 3584 1831 3584 
Q 2591 3584 2966 3190 
Q 3341 2797 3341 1997 
z
" transform="scale(0.015625)"/>
       <path id="DejaVuSans-6c" d="M 603 4863 
L 1178 4863 
L 1178 0 
L 603 0 
L 603 4863 
z
" transform="scale(0.015625)"/>
       <path id="DejaVuSans-73" d="M 2834 3397 
L 2834 2853 
Q 2591 2978 2328 3040 
Q 2066 3103 1784 3103 
Q 1356 3103 1142 2972 
Q 928 2841 928 2578 
Q 928 2378 1081 2264 
Q 1234 2150 1697 2047 
L 1894 2003 
Q 2506 1872 2764 1633 
Q 3022 1394 3022 966 
Q 3022 478 2636 193 
Q 2250 -91 1575 -91 
Q 1294 -91 989 -36 
Q 684 19 347 128 
L 347 722 
Q 666 556 975 473 
Q 1284 391 1588 391 
Q 1994 391 2212 530 
Q 2431 669 2431 922 
Q 2431 1156 2273 1281 
Q 2116 1406 1581 1522 
L 1381 1569 
Q 847 1681 609 1914 
Q 372 2147 372 2553 
Q 372 3047 722 3315 
Q 1072 3584 1716 3584 
Q 2034 3584 2315 3537 
Q 2597 3491 2834 3397 
z
" transform="scale(0.015625)"/>
       <path id="DejaVuSans-65" d="M 3597 1894 
L 3597 1613 
L 953 1613 
Q 991 1019 1311 708 
Q 1631 397 2203 397 
Q 2534 397 2845 478 
Q 3156 559 3463 722 
L 3463 178 
Q 3153 47 2828 -22 
Q 2503 -91 2169 -91 
Q 1331 -91 842 396 
Q 353 884 353 1716 
Q 353 2575 817 3079 
Q 1281 3584 2069 3584 
Q 2775 3584 3186 3129 
Q 3597 2675 3597 1894 
z
M 3022 2063 
Q 3016 2534 2758 2815 
Q 2500 3097 2075 3097 
Q 1594 3097 1305 2825 
Q 1016 2553 972 2059 
L 3022 2063 
z
" transform="scale(0.015625)"/>
       <path id="DejaVuSans-20" transform="scale(0.015625)"/>
       <path id="DejaVuSans-50" d="M 1259 4147 
L 1259 2394 
L 2053 2394 
Q 2494 2394 2734 2622 
Q 2975 2850 2975 3272 
Q 2975 3691 2734 3919 
Q 2494 4147 2053 4147 
L 1259 4147 
z
M 628 4666 
L 2053 4666 
Q 2838 4666 3239 4311 
Q 3641 3956 3641 3272 
Q 3641 2581 3239 2228 
Q 2838 1875 2053 1875 
L 1259 1875 
L 1259 0 
L 628 0 
L 628 4666 
z
" transform="scale(0.015625)"/>
       <path id="DejaVuSans-6f" d="M 1959 3097 
Q 1497 3097 1228 2736 
Q 959 2375 959 1747 
Q 959 1119 1226 758 
Q 1494 397 1959 397 
Q 2419 397 2687 759 
Q 2956 1122 2956 1747 
Q 2956 2369 2687 2733 
Q 2419 3097 1959 3097 
z
M 1959 3584 
Q 2709 3584 3137 3096 
Q 3566 2609 3566 1747 
Q 3566 888 3137 398 
Q 2709 -91 1959 -91 
Q 1206 -91 779 398 
Q 353 888 353 1747 
Q 353 2609 779 3096 
Q 1206 3584 1959 3584 
z
" transform="scale(0.015625)"/>
       <path id="DejaVuSans-69" d="M 603 3500 
L 1178 3500 
L 1178 0 
L 603 0 
L 603 3500 
z
M 603 4863 
L 1178 4863 
L 1178 4134 
L 603 4134 
L 603 4863 
z
" transform="scale(0.015625)"/>
       <path id="DejaVuSans-74" d="M 1172 4494 
L 1172 3500 
L 2356 3500 
L 2356 3053 
L 1172 3053 
L 1172 1153 
Q 1172 725 1289 603 
Q 1406 481 1766 481 
L 2356 481 
L 2356 0 
L 1766 0 
Q 1100 0 847 248 
Q 594 497 594 1153 
L 594 3053 
L 172 3053 
L 172 3500 
L 594 3500 
L 594 4494 
L 1172 4494 
z
" transform="scale(0.015625)"/>
       <path id="DejaVuSans-76" d="M 191 3500 
L 800 3500 
L 1894 563 
L 2988 3500 
L 3597 3500 
L 2284 0 
L 1503 0 
L 191 3500 
z
" transform="scale(0.015625)"/>
       <path id="DejaVuSans-52" d="M 2841 2188 
Q 3044 2119 3236 1894 
Q 3428 1669 3622 1275 
L 4263 0 
L 3584 0 
L 2988 1197 
Q 2756 1666 2539 1819 
Q 2322 1972 1947 1972 
L 1259 1972 
L 1259 0 
L 628 0 
L 628 4666 
L 2053 4666 
Q 2853 4666 3247 4331 
Q 3641 3997 3641 3322 
Q 3641 2881 3436 2590 
Q 3231 2300 2841 2188 
z
M 1259 4147 
L 1259 2491 
L 2053 2491 
Q 2509 2491 2742 2702 
Q 2975 2913 2975 3322 
Q 2975 3731 2742 3939 
Q 2509 4147 2053 4147 
L 1259 4147 
z
" transform="scale(0.015625)"/>
      </defs>
      <use xlink:href="#DejaVuSans-46"/>
      <use xlink:href="#DejaVuSans-61" x="48.394531"/>
      <use xlink:href="#DejaVuSans-6c" x="109.673828"/>
      <use xlink:href="#DejaVuSans-73" x="137.457031"/>
      <use xlink:href="#DejaVuSans-65" x="189.556641"/>
      <use xlink:href="#DejaVuSans-20" x="251.080078"/>
      <use xlink:href="#DejaVuSans-50" x="282.867188"/>
      <use xlink:href="#DejaVuSans-6f" x="339.544922"/>
      <use xlink:href="#DejaVuSans-73" x="400.726562"/>
      <use xlink:href="#DejaVuSans-69" x="452.826172"/>
      <use xlink:href="#DejaVuSans-74" x="480.609375"/>
      <use xlink:href="#DejaVuSans-69" x="519.818359"/>
      <use xlink:href="#DejaVuSans-76" x="547.601562"/>
      <use xlink:href="#DejaVuSans-65" x="606.78125"/>
      <use xlink:href="#DejaVuSans-20" x="668.304688"/>
      <use xlink:href="#DejaVuSans-52" x="700.091797"/>
      <use xlink:href="#DejaVuSans-61" x="767.324219"/>
      <use xlink:href="#DejaVuSans-74" x="828.603516"/>
      <use xlink:href="#DejaVuSans-65" x="867.8125"/>
     </g>
    </g>
   </g>
   <g id="matplotlib.axis_2">
    <g id="ytick_1">
     <g id="line2d_7">
      <defs>
       <path id="m4e53fc8a25" d="M 0 0 
L -3.5 0 
" style="stroke: #000000; stroke-width: 0.8"/>
      </defs>
      <g>
       <use xlink:href="#m4e53fc8a25" x="43.78125" y="239.76" style="stroke: #000000; stroke-width: 0.8"/>
      </g>
     </g>
     <g id="text_8">
      <!-- 0.0 -->
      <g transform="translate(20.878125 243.559219) scale(0.1 -0.1)">
       <use xlink:href="#DejaVuSans-30"/>
       <use xlink:href="#DejaVuSans-2e" x="63.623047"/>
       <use xlink:href="#DejaVuSans-30" x="95.410156"/>
      </g>
     </g>
    </g>
    <g id="ytick_2">
     <g id="line2d_8">
      <g>
       <use xlink:href="#m4e53fc8a25" x="43.78125" y="201.195429" style="stroke: #000000; stroke-width: 0.8"/>
      </g>
     </g>
     <g id="text_9">
      <!-- 0.2 -->
      <g transform="translate(20.878125 204.994647) scale(0.1 -0.1)">
       <use xlink:href="#DejaVuSans-30"/>
       <use xlink:href="#DejaVuSans-2e" x="63.623047"/>
       <use xlink:href="#DejaVuSans-32" x="95.410156"/>
      </g>
     </g>
    </g>
    <g id="ytick_3">
     <g id="line2d_9">
      <g>
       <use xlink:href="#m4e53fc8a25" x="43.78125" y="162.630857" style="stroke: #000000; stroke-width: 0.8"/>
      </g>
     </g>
     <g id="text_10">
      <!-- 0.4 -->
      <g transform="translate(20.878125 166.430076) scale(0.1 -0.1)">
       <use xlink:href="#DejaVuSans-30"/>
       <use xlink:href="#DejaVuSans-2e" x="63.623047"/>
       <use xlink:href="#DejaVuSans-34" x="95.410156"/>
      </g>
     </g>
    </g>
    <g id="ytick_4">
     <g id="line2d_10">
      <g>
       <use xlink:href="#m4e53fc8a25" x="43.78125" y="124.066286" style="stroke: #000000; stroke-width: 0.8"/>
      </g>
     </g>
     <g id="text_11">
      <!-- 0.6 -->
      <g transform="translate(20.878125 127.865504) scale(0.1 -0.1)">
       <use xlink:href="#DejaVuSans-30"/>
       <use xlink:href="#DejaVuSans-2e" x="63.623047"/>
       <use xlink:href="#DejaVuSans-36" x="95.410156"/>
      </g>
     </g>
    </g>
    <g id="ytick_5">
     <g id="line2d_11">
      <g>
       <use xlink:href="#m4e53fc8a25" x="43.78125" y="85.501714" style="stroke: #000000; stroke-width: 0.8"/>
      </g>
     </g>
     <g id="text_12">
      <!-- 0.8 -->
      <g transform="translate(20.878125 89.300933) scale(0.1 -0.1)">
       <use xlink:href="#DejaVuSans-30"/>
       <use xlink:href="#DejaVuSans-2e" x="63.623047"/>
       <use xlink:href="#DejaVuSans-38" x="95.410156"/>
      </g>
     </g>
    </g>
    <g id="ytick_6">
     <g id="line2d_12">
      <g>
       <use xlink:href="#m4e53fc8a25" x="43.78125" y="46.937143" style="stroke: #000000; stroke-width: 0.8"/>
      </g>
     </g>
     <g id="text_13">
      <!-- 1.0 -->
      <g transform="translate(20.878125 50.736362) scale(0.1 -0.1)">
       <use xlink:href="#DejaVuSans-31"/>
       <use xlink:href="#DejaVuSans-2e" x="63.623047"/>
       <use xlink:href="#DejaVuSans-30" x="95.410156"/>
      </g>
     </g>
    </g>
    <g id="text_14">
     <!-- True Positive Rate -->
     <g transform="translate(14.798438 183.057687) rotate(-90) scale(0.1 -0.1)">
      <defs>
       <path id="DejaVuSans-54" d="M -19 4666 
L 3928 4666 
L 3928 4134 
L 2272 4134 
L 2272 0 
L 1638 0 
L 1638 4134 
L -19 4134 
L -19 4666 
z
" transform="scale(0.015625)"/>
       <path id="DejaVuSans-72" d="M 2631 2963 
Q 2534 3019 2420 3045 
Q 2306 3072 2169 3072 
Q 1681 3072 1420 2755 
Q 1159 2438 1159 1844 
L 1159 0 
L 581 0 
L 581 3500 
L 1159 3500 
L 1159 2956 
Q 1341 3275 1631 3429 
Q 1922 3584 2338 3584 
Q 2397 3584 2469 3576 
Q 2541 3569 2628 3553 
L 2631 2963 
z
" transform="scale(0.015625)"/>
       <path id="DejaVuSans-75" d="M 544 1381 
L 544 3500 
L 1119 3500 
L 1119 1403 
Q 1119 906 1312 657 
Q 1506 409 1894 409 
Q 2359 409 2629 706 
Q 2900 1003 2900 1516 
L 2900 3500 
L 3475 3500 
L 3475 0 
L 2900 0 
L 2900 538 
Q 2691 219 2414 64 
Q 2138 -91 1772 -91 
Q 1169 -91 856 284 
Q 544 659 544 1381 
z
M 1991 3584 
L 1991 3584 
z
" transform="scale(0.015625)"/>
      </defs>
      <use xlink:href="#DejaVuSans-54"/>
      <use xlink:href="#DejaVuSans-72" x="46.333984"/>
      <use xlink:href="#DejaVuSans-75" x="87.447266"/>
      <use xlink:href="#DejaVuSans-65" x="150.826172"/>
      <use xlink:href="#DejaVuSans-20" x="212.349609"/>
      <use xlink:href="#DejaVuSans-50" x="244.136719"/>
      <use xlink:href="#DejaVuSans-6f" x="300.814453"/>
      <use xlink:href="#DejaVuSans-73" x="361.996094"/>
      <use xlink:href="#DejaVuSans-69" x="414.095703"/>
      <use xlink:href="#DejaVuSans-74" x="441.878906"/>
      <use xlink:href="#DejaVuSans-69" x="481.087891"/>
      <use xlink:href="#DejaVuSans-76" x="508.871094"/>
      <use xlink:href="#DejaVuSans-65" x="568.050781"/>
      <use xlink:href="#DejaVuSans-20" x="629.574219"/>
      <use xlink:href="#DejaVuSans-52" x="661.361328"/>
      <use xlink:href="#DejaVuSans-61" x="728.59375"/>
      <use xlink:href="#DejaVuSans-74" x="789.873047"/>
      <use xlink:href="#DejaVuSans-65" x="829.082031"/>
     </g>
    </g>
   </g>
   <g id="line2d_13">
    <path d="M 43.78125 239.76 
L 44.14548 239.76 
L 44.14548 237.969867 
L 44.50971 237.969867 
L 44.50971 237.714134 
L 44.873939 237.714134 
L 44.873939 234.901069 
L 45.238169 234.901069 
L 45.238169 233.366669 
L 45.602399 233.366669 
L 45.602399 232.599469 
L 46.330858 232.599469 
L 46.330858 232.343736 
L 46.695088 232.343736 
L 46.695088 232.088003 
L 47.059318 232.088003 
L 47.059318 227.996271 
L 47.423548 227.996271 
L 47.423548 227.484805 
L 47.787777 227.484805 
L 47.787777 225.694672 
L 48.152007 225.694672 
L 48.152007 223.648806 
L 49.244696 223.648806 
L 49.244696 222.881607 
L 49.608926 222.881607 
L 49.608926 221.602941 
L 50.701616 221.602941 
L 50.701616 220.324274 
L 51.065845 220.324274 
L 51.065845 220.068541 
L 51.430075 220.068541 
L 51.430075 216.488276 
L 51.794305 216.488276 
L 51.794305 215.721076 
L 52.158535 215.465343 
L 52.158535 212.652277 
L 52.522764 212.652277 
L 52.522764 211.373611 
L 52.886994 211.373611 
L 52.886994 210.350678 
L 53.615454 210.350678 
L 53.615454 210.094945 
L 53.979683 210.094945 
L 53.979683 209.327745 
L 55.436602 209.327745 
L 55.436602 207.281879 
L 55.800832 207.281879 
L 55.800832 206.258947 
L 56.529292 206.258947 
L 56.529292 203.957347 
L 56.893522 203.957347 
L 56.893522 200.377082 
L 57.257751 200.377082 
L 57.257751 200.121349 
L 57.621981 200.121349 
L 57.986211 199.865616 
L 57.986211 198.842683 
L 58.350441 198.842683 
L 58.350441 198.331216 
L 58.71467 198.331216 
L 58.71467 194.750951 
L 59.80736 194.750951 
L 59.80736 194.495218 
L 60.171589 194.495218 
L 60.171589 193.216552 
L 60.535819 193.216552 
L 60.535819 192.705085 
L 60.900049 192.705085 
L 60.900049 191.170686 
L 61.264279 191.170686 
L 61.264279 187.078954 
L 61.628508 187.078954 
L 61.628508 186.823221 
L 61.992738 186.823221 
L 61.992738 186.056021 
L 62.356968 186.056021 
L 62.356968 184.521622 
L 62.721198 184.521622 
L 62.721198 181.96429 
L 63.085428 181.96429 
L 63.085428 178.128291 
L 63.449657 178.128291 
L 63.449657 176.593892 
L 63.813887 176.593892 
L 63.813887 174.803759 
L 64.178117 174.548026 
L 64.178117 173.525093 
L 64.542347 173.525093 
L 64.542347 172.50216 
L 64.906576 172.50216 
L 64.906576 171.223494 
L 65.270806 171.223494 
L 65.270806 170.200561 
L 65.999266 170.200561 
L 65.999266 169.689094 
L 67.091955 169.689094 
L 67.091955 168.921895 
L 67.456185 168.921895 
L 67.456185 168.410428 
L 67.820414 168.410428 
L 67.820414 167.643228 
L 68.184644 167.643228 
L 68.184644 166.108829 
L 68.548874 166.108829 
L 68.548874 164.57443 
L 69.277334 164.57443 
L 69.277334 163.551497 
L 69.641563 163.295764 
L 70.005793 163.295764 
L 70.005793 163.04003 
L 70.370023 162.784297 
L 70.370023 161.505631 
L 70.734253 161.249898 
L 71.098482 161.249898 
L 71.098482 159.459765 
L 71.462712 159.459765 
L 71.462712 158.692565 
L 71.826942 158.692565 
L 71.826942 158.436832 
L 72.919631 158.436832 
L 72.919631 156.390966 
L 73.283861 156.390966 
L 73.283861 155.623767 
L 73.648091 155.623767 
L 73.648091 154.3451 
L 74.37655 154.3451 
L 74.37655 153.322167 
L 75.10501 153.322167 
L 75.10501 152.810701 
L 75.46924 152.810701 
L 75.46924 151.020568 
L 75.833469 151.020568 
L 75.833469 149.741902 
L 76.197699 149.741902 
L 76.197699 148.974703 
L 77.290388 148.974703 
L 77.290388 148.718969 
L 77.654618 148.718969 
L 77.654618 147.95177 
L 78.018848 147.95177 
L 78.018848 147.696036 
L 78.383078 147.696036 
L 78.383078 144.882971 
L 79.111537 144.882971 
L 79.111537 144.627238 
L 79.475767 144.627238 
L 79.475767 140.791239 
L 79.839997 140.791239 
L 79.839997 139.512573 
L 80.204227 139.512573 
L 80.204227 137.978174 
L 80.932686 137.978174 
L 80.932686 137.466707 
L 81.296916 137.466707 
L 81.296916 135.420841 
L 81.661146 135.420841 
L 81.661146 134.909375 
L 82.025375 134.909375 
L 82.025375 133.886442 
L 82.389605 133.886442 
L 82.389605 133.374975 
L 82.753835 133.374975 
L 82.753835 131.840576 
L 83.118065 131.840576 
L 83.118065 131.32911 
L 83.482294 131.073376 
L 83.482294 129.02751 
L 84.210754 129.02751 
L 84.210754 127.493111 
L 84.939213 127.493111 
L 84.939213 126.214445 
L 85.303443 126.214445 
L 85.303443 125.958712 
L 85.667673 125.958712 
L 85.667673 125.191512 
L 86.031903 125.191512 
L 86.031903 124.935779 
L 86.396133 124.935779 
L 86.396133 124.168579 
L 87.124592 124.168579 
L 87.124592 121.611247 
L 87.488822 121.611247 
L 87.488822 121.09978 
L 87.853052 121.09978 
L 87.853052 120.332581 
L 88.217281 120.332581 
L 88.217281 118.542448 
L 88.581511 118.542448 
L 88.581511 117.263782 
L 89.6742 117.263782 
L 89.6742 116.240849 
L 90.76689 116.240849 
L 90.76689 115.985116 
L 91.131119 115.985116 
L 91.131119 115.473649 
L 91.495349 115.473649 
L 91.495349 114.706449 
L 93.316498 114.706449 
L 93.316498 114.450716 
L 93.680728 114.450716 
L 93.680728 112.660584 
L 94.044958 112.660584 
L 94.044958 112.40485 
L 94.409187 112.40485 
L 94.409187 111.126184 
L 95.501877 111.126184 
L 95.501877 110.358984 
L 96.230336 110.358984 
L 96.230336 109.847518 
L 96.958796 109.847518 
L 96.958796 109.336052 
L 97.323025 109.336052 
L 97.323025 108.824585 
L 97.687255 108.824585 
L 97.687255 108.057385 
L 98.051485 108.057385 
L 98.051485 107.034452 
L 98.415715 107.034452 
L 98.415715 106.778719 
L 98.779945 106.778719 
L 98.779945 106.267253 
L 99.508404 106.267253 
L 99.508404 106.01152 
L 99.872634 106.01152 
L 99.872634 104.988587 
L 100.236864 104.988587 
L 100.236864 104.732853 
L 100.601093 104.732853 
L 100.601093 104.221387 
L 100.965323 104.221387 
L 100.965323 103.965654 
L 101.329553 103.965654 
L 101.329553 103.454187 
L 101.693783 103.454187 
L 101.693783 103.198454 
L 102.058012 103.198454 
L 102.058012 102.942721 
L 102.422242 102.942721 
L 102.422242 102.431254 
L 102.786472 102.431254 
L 102.786472 102.175521 
L 103.514931 102.175521 
L 103.514931 100.641122 
L 103.879161 100.641122 
L 103.879161 99.873922 
L 104.243391 99.873922 
L 104.243391 99.362455 
L 104.607621 99.362455 
L 104.607621 98.850989 
L 105.33608 98.850989 
L 105.33608 98.595256 
L 105.70031 98.595256 
L 105.70031 97.572323 
L 106.42877 97.572323 
L 106.42877 97.31659 
L 106.792999 97.31659 
L 106.792999 95.78219 
L 107.521459 95.78219 
L 107.521459 95.526457 
L 107.885689 95.526457 
L 107.885689 94.759257 
L 108.249918 94.759257 
L 108.249918 94.503524 
L 108.614148 94.503524 
L 108.614148 93.992058 
L 109.342608 93.992058 
L 109.342608 93.736324 
L 110.071067 93.736324 
L 110.071067 93.480591 
L 110.435297 93.480591 
L 110.435297 92.713391 
L 110.799527 92.713391 
L 110.799527 92.201925 
L 111.527986 92.201925 
L 111.527986 91.946192 
L 111.892216 91.946192 
L 111.892216 90.923259 
L 112.984905 90.923259 
L 112.984905 90.156059 
L 113.713365 90.156059 
L 113.713365 88.877393 
L 115.170284 88.877393 
L 115.170284 88.365926 
L 115.534514 88.365926 
L 115.534514 87.342994 
L 115.898743 87.342994 
L 115.898743 87.08726 
L 116.627203 87.08726 
L 116.627203 86.831527 
L 118.084122 86.831527 
L 118.084122 85.808594 
L 118.448352 85.808594 
L 118.448352 85.552861 
L 118.812582 85.552861 
L 118.812582 85.041394 
L 120.63373 85.041394 
L 120.63373 84.785661 
L 121.36219 84.785661 
L 121.36219 84.274195 
L 122.454879 84.274195 
L 122.454879 83.506995 
L 122.819109 83.506995 
L 122.819109 83.251262 
L 124.640258 83.251262 
L 124.640258 82.484062 
L 125.004488 82.484062 
L 125.004488 82.228329 
L 125.368717 82.228329 
L 125.368717 81.972596 
L 126.461407 81.972596 
L 126.461407 81.716862 
L 127.189866 81.716862 
L 127.189866 81.205396 
L 127.918326 81.205396 
L 127.918326 80.69393 
L 128.282555 80.69393 
L 128.282555 80.182463 
L 129.011015 80.182463 
L 129.011015 78.903797 
L 130.103704 78.903797 
L 130.103704 78.648064 
L 130.467934 78.648064 
L 130.832164 78.39233 
L 132.289083 78.39233 
L 132.289083 77.880864 
L 132.653313 77.880864 
L 132.653313 77.369397 
L 133.381772 77.369397 
L 133.381772 76.346465 
L 134.110232 76.346465 
L 134.110232 76.090731 
L 134.838691 76.090731 
L 134.838691 74.812065 
L 135.202921 74.812065 
L 135.202921 73.533399 
L 135.567151 73.533399 
L 135.567151 73.277666 
L 136.29561 73.277666 
L 136.29561 72.766199 
L 138.116759 72.766199 
L 138.116759 72.254733 
L 138.845219 72.254733 
L 138.845219 71.999 
L 139.937908 71.999 
L 139.937908 71.743266 
L 141.030597 71.743266 
L 141.030597 71.487533 
L 142.123287 71.487533 
L 142.123287 70.976067 
L 142.487516 70.976067 
L 142.487516 70.4646 
L 143.944435 70.4646 
L 143.944435 69.185934 
L 144.308665 69.185934 
L 144.308665 68.930201 
L 146.858273 68.930201 
L 146.858273 68.674468 
L 147.586733 68.674468 
L 147.586733 67.907268 
L 147.950963 67.907268 
L 147.950963 67.651535 
L 148.315193 67.651535 
L 148.315193 67.140068 
L 149.043652 67.140068 
L 149.043652 66.628602 
L 149.772112 66.628602 
L 149.772112 66.117135 
L 150.136341 66.117135 
L 150.136341 64.327003 
L 151.229031 64.327003 
L 151.229031 63.30407 
L 151.95749 63.30407 
L 151.95749 63.048336 
L 153.778639 63.048336 
L 153.778639 62.792603 
L 154.871328 62.792603 
L 154.871328 62.53687 
L 155.599788 62.53687 
L 155.599788 62.281137 
L 155.964018 62.281137 
L 155.964018 62.025404 
L 157.056707 62.025404 
L 157.056707 61.513937 
L 157.785166 61.513937 
L 158.149396 61.258204 
L 158.877856 61.258204 
L 158.877856 60.746737 
L 159.606315 60.746737 
L 159.606315 60.491004 
L 160.699005 60.491004 
L 160.699005 60.235271 
L 161.063234 60.235271 
L 161.063234 59.979538 
L 161.427464 59.979538 
L 161.427464 59.468071 
L 161.791694 59.468071 
L 161.791694 59.212338 
L 162.884383 59.212338 
L 162.884383 58.956605 
L 164.705532 58.956605 
L 164.705532 58.700872 
L 165.069762 58.700872 
L 165.069762 58.445138 
L 166.162451 58.445138 
L 166.162451 58.189405 
L 167.61937 58.189405 
L 167.61937 57.933672 
L 169.804749 57.933672 
L 169.804749 57.677939 
L 170.168978 57.677939 
L 170.168978 56.910739 
L 171.990127 56.910739 
L 171.990127 56.399272 
L 172.718587 56.399272 
L 172.718587 56.143539 
L 173.082817 56.143539 
L 173.082817 55.887806 
L 173.447046 55.887806 
L 173.447046 55.632073 
L 174.175506 55.632073 
L 174.175506 55.37634 
L 177.089344 55.37634 
L 177.089344 55.120606 
L 177.453574 55.120606 
L 177.453574 54.864873 
L 177.817804 54.864873 
L 177.817804 54.60914 
L 180.003182 54.60914 
L 180.003182 54.097673 
L 180.731642 54.097673 
L 180.731642 53.330474 
L 184.00971 53.330474 
L 184.00971 53.07474 
L 185.102399 53.07474 
L 185.102399 52.819007 
L 187.287777 52.819007 
L 187.287777 52.563274 
L 187.652007 52.563274 
L 187.652007 52.051808 
L 189.837386 52.051808 
L 189.837386 51.796074 
L 190.201616 51.540341 
L 191.294305 51.540341 
L 191.294305 51.284608 
L 192.022764 51.284608 
L 192.022764 51.028875 
L 194.208143 51.028875 
L 194.208143 50.773141 
L 196.393522 50.773141 
L 196.393522 50.517408 
L 197.850441 50.517408 
L 197.850441 50.261675 
L 201.492738 50.261675 
L 201.492738 50.005942 
L 210.234253 50.005942 
L 210.234253 49.494475 
L 212.055401 49.494475 
L 212.055401 49.238742 
L 212.783861 49.238742 
L 212.783861 48.983009 
L 215.697699 48.983009 
L 215.697699 48.727275 
L 223.710754 48.727275 
L 223.710754 48.471542 
L 248.114148 48.471542 
L 248.114148 48.215809 
L 253.213365 48.215809 
L 253.213365 47.704343 
L 254.670284 47.704343 
L 254.670284 47.448609 
L 271.789083 47.448609 
L 271.789083 47.192876 
L 279.437908 47.192876 
L 279.437908 46.937143 
L 322.78125 46.937143 
L 322.78125 46.937143 
" clip-path="url(#p2ee8422f58)" style="fill: none; stroke: #ff8c00; stroke-width: 2; stroke-linecap: square"/>
   </g>
   <g id="line2d_14">
    <path d="M 43.78125 239.76 
L 322.78125 46.937143 
" clip-path="url(#p2ee8422f58)" style="fill: none; stroke-dasharray: 7.4,3.2; stroke-dashoffset: 0; stroke: #000080; stroke-width: 2"/>
   </g>
   <g id="patch_3">
    <path d="M 43.78125 239.76 
L 43.78125 37.296 
" style="fill: none; stroke: #000000; stroke-width: 0.8; stroke-linejoin: miter; stroke-linecap: square"/>
   </g>
   <g id="patch_4">
    <path d="M 322.78125 239.76 
L 322.78125 37.296 
" style="fill: none; stroke: #000000; stroke-width: 0.8; stroke-linejoin: miter; stroke-linecap: square"/>
   </g>
   <g id="patch_5">
    <path d="M 43.78125 239.76 
L 322.78125 239.76 
" style="fill: none; stroke: #000000; stroke-width: 0.8; stroke-linejoin: miter; stroke-linecap: square"/>
   </g>
   <g id="patch_6">
    <path d="M 43.78125 37.296 
L 322.78125 37.296 
" style="fill: none; stroke: #000000; stroke-width: 0.8; stroke-linejoin: miter; stroke-linecap: square"/>
   </g>
   <g id="text_15">
    <!-- Baseline Model -->
    <g transform="translate(149.259844 31.296) scale(0.09 -0.09)">
     <defs>
      <path id="DejaVuSans-42" d="M 1259 2228 
L 1259 519 
L 2272 519 
Q 2781 519 3026 730 
Q 3272 941 3272 1375 
Q 3272 1813 3026 2020 
Q 2781 2228 2272 2228 
L 1259 2228 
z
M 1259 4147 
L 1259 2741 
L 2194 2741 
Q 2656 2741 2882 2914 
Q 3109 3088 3109 3444 
Q 3109 3797 2882 3972 
Q 2656 4147 2194 4147 
L 1259 4147 
z
M 628 4666 
L 2241 4666 
Q 2963 4666 3353 4366 
Q 3744 4066 3744 3513 
Q 3744 3084 3544 2831 
Q 3344 2578 2956 2516 
Q 3422 2416 3680 2098 
Q 3938 1781 3938 1306 
Q 3938 681 3513 340 
Q 3088 0 2303 0 
L 628 0 
L 628 4666 
z
" transform="scale(0.015625)"/>
      <path id="DejaVuSans-6e" d="M 3513 2113 
L 3513 0 
L 2938 0 
L 2938 2094 
Q 2938 2591 2744 2837 
Q 2550 3084 2163 3084 
Q 1697 3084 1428 2787 
Q 1159 2491 1159 1978 
L 1159 0 
L 581 0 
L 581 3500 
L 1159 3500 
L 1159 2956 
Q 1366 3272 1645 3428 
Q 1925 3584 2291 3584 
Q 2894 3584 3203 3211 
Q 3513 2838 3513 2113 
z
" transform="scale(0.015625)"/>
      <path id="DejaVuSans-4d" d="M 628 4666 
L 1569 4666 
L 2759 1491 
L 3956 4666 
L 4897 4666 
L 4897 0 
L 4281 0 
L 4281 4097 
L 3078 897 
L 2444 897 
L 1241 4097 
L 1241 0 
L 628 0 
L 628 4666 
z
" transform="scale(0.015625)"/>
      <path id="DejaVuSans-64" d="M 2906 2969 
L 2906 4863 
L 3481 4863 
L 3481 0 
L 2906 0 
L 2906 525 
Q 2725 213 2448 61 
Q 2172 -91 1784 -91 
Q 1150 -91 751 415 
Q 353 922 353 1747 
Q 353 2572 751 3078 
Q 1150 3584 1784 3584 
Q 2172 3584 2448 3432 
Q 2725 3281 2906 2969 
z
M 947 1747 
Q 947 1113 1208 752 
Q 1469 391 1925 391 
Q 2381 391 2643 752 
Q 2906 1113 2906 1747 
Q 2906 2381 2643 2742 
Q 2381 3103 1925 3103 
Q 1469 3103 1208 2742 
Q 947 2381 947 1747 
z
" transform="scale(0.015625)"/>
     </defs>
     <use xlink:href="#DejaVuSans-42"/>
     <use xlink:href="#DejaVuSans-61" x="68.603516"/>
     <use xlink:href="#DejaVuSans-73" x="129.882812"/>
     <use xlink:href="#DejaVuSans-65" x="181.982422"/>
     <use xlink:href="#DejaVuSans-6c" x="243.505859"/>
     <use xlink:href="#DejaVuSans-69" x="271.289062"/>
     <use xlink:href="#DejaVuSans-6e" x="299.072266"/>
     <use xlink:href="#DejaVuSans-65" x="362.451172"/>
     <use xlink:href="#DejaVuSans-20" x="423.974609"/>
     <use xlink:href="#DejaVuSans-4d" x="455.761719"/>
     <use xlink:href="#DejaVuSans-6f" x="542.041016"/>
     <use xlink:href="#DejaVuSans-64" x="603.222656"/>
     <use xlink:href="#DejaVuSans-65" x="666.699219"/>
     <use xlink:href="#DejaVuSans-6c" x="728.222656"/>
    </g>
   </g>
   <g id="legend_1">
    <g id="patch_7">
     <path d="M 199.503125 234.76 
L 315.78125 234.76 
Q 317.78125 234.76 317.78125 232.76 
L 317.78125 219.081875 
Q 317.78125 217.081875 315.78125 217.081875 
L 199.503125 217.081875 
Q 197.503125 217.081875 197.503125 219.081875 
L 197.503125 232.76 
Q 197.503125 234.76 199.503125 234.76 
z
" style="fill: #ffffff; opacity: 0.8; stroke: #cccccc; stroke-linejoin: miter"/>
    </g>
    <g id="line2d_15">
     <path d="M 201.503125 225.180312 
L 211.503125 225.180312 
L 221.503125 225.180312 
" style="fill: none; stroke: #ff8c00; stroke-width: 2; stroke-linecap: square"/>
    </g>
    <g id="text_16">
     <!-- ROC area = 0.83 -->
     <g transform="translate(229.503125 228.680312) scale(0.1 -0.1)">
      <defs>
       <path id="DejaVuSans-4f" d="M 2522 4238 
Q 1834 4238 1429 3725 
Q 1025 3213 1025 2328 
Q 1025 1447 1429 934 
Q 1834 422 2522 422 
Q 3209 422 3611 934 
Q 4013 1447 4013 2328 
Q 4013 3213 3611 3725 
Q 3209 4238 2522 4238 
z
M 2522 4750 
Q 3503 4750 4090 4092 
Q 4678 3434 4678 2328 
Q 4678 1225 4090 567 
Q 3503 -91 2522 -91 
Q 1538 -91 948 565 
Q 359 1222 359 2328 
Q 359 3434 948 4092 
Q 1538 4750 2522 4750 
z
" transform="scale(0.015625)"/>
       <path id="DejaVuSans-43" d="M 4122 4306 
L 4122 3641 
Q 3803 3938 3442 4084 
Q 3081 4231 2675 4231 
Q 1875 4231 1450 3742 
Q 1025 3253 1025 2328 
Q 1025 1406 1450 917 
Q 1875 428 2675 428 
Q 3081 428 3442 575 
Q 3803 722 4122 1019 
L 4122 359 
Q 3791 134 3420 21 
Q 3050 -91 2638 -91 
Q 1578 -91 968 557 
Q 359 1206 359 2328 
Q 359 3453 968 4101 
Q 1578 4750 2638 4750 
Q 3056 4750 3426 4639 
Q 3797 4528 4122 4306 
z
" transform="scale(0.015625)"/>
       <path id="DejaVuSans-3d" d="M 678 2906 
L 4684 2906 
L 4684 2381 
L 678 2381 
L 678 2906 
z
M 678 1631 
L 4684 1631 
L 4684 1100 
L 678 1100 
L 678 1631 
z
" transform="scale(0.015625)"/>
       <path id="DejaVuSans-33" d="M 2597 2516 
Q 3050 2419 3304 2112 
Q 3559 1806 3559 1356 
Q 3559 666 3084 287 
Q 2609 -91 1734 -91 
Q 1441 -91 1130 -33 
Q 819 25 488 141 
L 488 750 
Q 750 597 1062 519 
Q 1375 441 1716 441 
Q 2309 441 2620 675 
Q 2931 909 2931 1356 
Q 2931 1769 2642 2001 
Q 2353 2234 1838 2234 
L 1294 2234 
L 1294 2753 
L 1863 2753 
Q 2328 2753 2575 2939 
Q 2822 3125 2822 3475 
Q 2822 3834 2567 4026 
Q 2313 4219 1838 4219 
Q 1578 4219 1281 4162 
Q 984 4106 628 3988 
L 628 4550 
Q 988 4650 1302 4700 
Q 1616 4750 1894 4750 
Q 2613 4750 3031 4423 
Q 3450 4097 3450 3541 
Q 3450 3153 3228 2886 
Q 3006 2619 2597 2516 
z
" transform="scale(0.015625)"/>
      </defs>
      <use xlink:href="#DejaVuSans-52"/>
      <use xlink:href="#DejaVuSans-4f" x="69.482422"/>
      <use xlink:href="#DejaVuSans-43" x="148.193359"/>
      <use xlink:href="#DejaVuSans-20" x="218.017578"/>
      <use xlink:href="#DejaVuSans-61" x="249.804688"/>
      <use xlink:href="#DejaVuSans-72" x="311.083984"/>
      <use xlink:href="#DejaVuSans-65" x="349.947266"/>
      <use xlink:href="#DejaVuSans-61" x="411.470703"/>
      <use xlink:href="#DejaVuSans-20" x="472.75"/>
      <use xlink:href="#DejaVuSans-3d" x="504.537109"/>
      <use xlink:href="#DejaVuSans-20" x="588.326172"/>
      <use xlink:href="#DejaVuSans-30" x="620.113281"/>
      <use xlink:href="#DejaVuSans-2e" x="683.736328"/>
      <use xlink:href="#DejaVuSans-38" x="715.523438"/>
      <use xlink:href="#DejaVuSans-33" x="779.146484"/>
     </g>
    </g>
   </g>
  </g>
  <g id="text_17">
   <!-- ROC Curve - Tp = 5, Pct = 100.0% -->
   <g transform="translate(83.810859 15.558281) scale(0.11 -0.11)">
    <defs>
     <path id="DejaVuSans-2d" d="M 313 2009 
L 1997 2009 
L 1997 1497 
L 313 1497 
L 313 2009 
z
" transform="scale(0.015625)"/>
     <path id="DejaVuSans-70" d="M 1159 525 
L 1159 -1331 
L 581 -1331 
L 581 3500 
L 1159 3500 
L 1159 2969 
Q 1341 3281 1617 3432 
Q 1894 3584 2278 3584 
Q 2916 3584 3314 3078 
Q 3713 2572 3713 1747 
Q 3713 922 3314 415 
Q 2916 -91 2278 -91 
Q 1894 -91 1617 61 
Q 1341 213 1159 525 
z
M 3116 1747 
Q 3116 2381 2855 2742 
Q 2594 3103 2138 3103 
Q 1681 3103 1420 2742 
Q 1159 2381 1159 1747 
Q 1159 1113 1420 752 
Q 1681 391 2138 391 
Q 2594 391 2855 752 
Q 3116 1113 3116 1747 
z
" transform="scale(0.015625)"/>
     <path id="DejaVuSans-35" d="M 691 4666 
L 3169 4666 
L 3169 4134 
L 1269 4134 
L 1269 2991 
Q 1406 3038 1543 3061 
Q 1681 3084 1819 3084 
Q 2600 3084 3056 2656 
Q 3513 2228 3513 1497 
Q 3513 744 3044 326 
Q 2575 -91 1722 -91 
Q 1428 -91 1123 -41 
Q 819 9 494 109 
L 494 744 
Q 775 591 1075 516 
Q 1375 441 1709 441 
Q 2250 441 2565 725 
Q 2881 1009 2881 1497 
Q 2881 1984 2565 2268 
Q 2250 2553 1709 2553 
Q 1456 2553 1204 2497 
Q 953 2441 691 2322 
L 691 4666 
z
" transform="scale(0.015625)"/>
     <path id="DejaVuSans-2c" d="M 750 794 
L 1409 794 
L 1409 256 
L 897 -744 
L 494 -744 
L 750 256 
L 750 794 
z
" transform="scale(0.015625)"/>
     <path id="DejaVuSans-63" d="M 3122 3366 
L 3122 2828 
Q 2878 2963 2633 3030 
Q 2388 3097 2138 3097 
Q 1578 3097 1268 2742 
Q 959 2388 959 1747 
Q 959 1106 1268 751 
Q 1578 397 2138 397 
Q 2388 397 2633 464 
Q 2878 531 3122 666 
L 3122 134 
Q 2881 22 2623 -34 
Q 2366 -91 2075 -91 
Q 1284 -91 818 406 
Q 353 903 353 1747 
Q 353 2603 823 3093 
Q 1294 3584 2113 3584 
Q 2378 3584 2631 3529 
Q 2884 3475 3122 3366 
z
" transform="scale(0.015625)"/>
     <path id="DejaVuSans-25" d="M 4653 2053 
Q 4381 2053 4226 1822 
Q 4072 1591 4072 1178 
Q 4072 772 4226 539 
Q 4381 306 4653 306 
Q 4919 306 5073 539 
Q 5228 772 5228 1178 
Q 5228 1588 5073 1820 
Q 4919 2053 4653 2053 
z
M 4653 2450 
Q 5147 2450 5437 2106 
Q 5728 1763 5728 1178 
Q 5728 594 5436 251 
Q 5144 -91 4653 -91 
Q 4153 -91 3862 251 
Q 3572 594 3572 1178 
Q 3572 1766 3864 2108 
Q 4156 2450 4653 2450 
z
M 1428 4353 
Q 1159 4353 1004 4120 
Q 850 3888 850 3481 
Q 850 3069 1003 2837 
Q 1156 2606 1428 2606 
Q 1700 2606 1854 2837 
Q 2009 3069 2009 3481 
Q 2009 3884 1853 4118 
Q 1697 4353 1428 4353 
z
M 4250 4750 
L 4750 4750 
L 1831 -91 
L 1331 -91 
L 4250 4750 
z
M 1428 4750 
Q 1922 4750 2215 4408 
Q 2509 4066 2509 3481 
Q 2509 2891 2217 2550 
Q 1925 2209 1428 2209 
Q 931 2209 642 2551 
Q 353 2894 353 3481 
Q 353 4063 643 4406 
Q 934 4750 1428 4750 
z
" transform="scale(0.015625)"/>
    </defs>
    <use xlink:href="#DejaVuSans-52"/>
    <use xlink:href="#DejaVuSans-4f" x="69.482422"/>
    <use xlink:href="#DejaVuSans-43" x="148.193359"/>
    <use xlink:href="#DejaVuSans-20" x="218.017578"/>
    <use xlink:href="#DejaVuSans-43" x="249.804688"/>
    <use xlink:href="#DejaVuSans-75" x="319.628906"/>
    <use xlink:href="#DejaVuSans-72" x="383.007812"/>
    <use xlink:href="#DejaVuSans-76" x="424.121094"/>
    <use xlink:href="#DejaVuSans-65" x="483.300781"/>
    <use xlink:href="#DejaVuSans-20" x="544.824219"/>
    <use xlink:href="#DejaVuSans-2d" x="576.611328"/>
    <use xlink:href="#DejaVuSans-20" x="612.695312"/>
    <use xlink:href="#DejaVuSans-54" x="644.482422"/>
    <use xlink:href="#DejaVuSans-70" x="705.566406"/>
    <use xlink:href="#DejaVuSans-20" x="769.042969"/>
    <use xlink:href="#DejaVuSans-3d" x="800.830078"/>
    <use xlink:href="#DejaVuSans-20" x="884.619141"/>
    <use xlink:href="#DejaVuSans-35" x="916.40625"/>
    <use xlink:href="#DejaVuSans-2c" x="980.029297"/>
    <use xlink:href="#DejaVuSans-20" x="1011.816406"/>
    <use xlink:href="#DejaVuSans-50" x="1043.603516"/>
    <use xlink:href="#DejaVuSans-63" x="1103.90625"/>
    <use xlink:href="#DejaVuSans-74" x="1158.886719"/>
    <use xlink:href="#DejaVuSans-20" x="1198.095703"/>
    <use xlink:href="#DejaVuSans-3d" x="1229.882812"/>
    <use xlink:href="#DejaVuSans-20" x="1313.671875"/>
    <use xlink:href="#DejaVuSans-31" x="1345.458984"/>
    <use xlink:href="#DejaVuSans-30" x="1409.082031"/>
    <use xlink:href="#DejaVuSans-30" x="1472.705078"/>
    <use xlink:href="#DejaVuSans-2e" x="1536.328125"/>
    <use xlink:href="#DejaVuSans-30" x="1568.115234"/>
    <use xlink:href="#DejaVuSans-25" x="1631.738281"/>
   </g>
  </g>
 </g>
 <defs>
  <clipPath id="p2ee8422f58">
   <rect x="43.78125" y="37.296" width="279" height="202.464"/>
  </clipPath>
 </defs>
</svg>
