<?xml version="1.0" encoding="utf-8" standalone="no"?>
<!DOCTYPE svg PUBLIC "-//W3C//DTD SVG 1.1//EN"
  "http://www.w3.org/Graphics/SVG/1.1/DTD/svg11.dtd">
<svg xmlns:xlink="http://www.w3.org/1999/xlink" width="330.281484pt" height="277.31625pt" viewBox="0 0 330.281484 277.31625" xmlns="http://www.w3.org/2000/svg" version="1.1">
 <metadata>
  <rdf:RDF xmlns:dc="http://purl.org/dc/elements/1.1/" xmlns:cc="http://creativecommons.org/ns#" xmlns:rdf="http://www.w3.org/1999/02/22-rdf-syntax-ns#">
   <cc:Work>
    <dc:type rdf:resource="http://purl.org/dc/dcmitype/StillImage"/>
    <dc:date>2026-06-11T16:17:10.581419</dc:date>
    <dc:format>image/svg+xml</dc:format>
    <dc:creator>
     <cc:Agent>
      <dc:title>Matplotlib v3.8.4, https://matplotlib.org/</dc:title>
     </cc:Agent>
    </dc:creator>
   </cc:Work>
  </rdf:RDF>
 </metadata>
 <defs>
  <style type="text/css">*{stroke-linejoin: round; stroke-linecap: butt}</style>
 </defs>
 <g id="figure_1">
  <g id="patch_1">
   <path d="M 0 277.31625 
L 330.281484 277.31625 
L 330.281484 0 
L 0 0 
z
" style="fill: #ffffff"/>
  </g>
  <g id="axes_1">
   <g id="patch_2">
    <path d="M 43.78125 239.76 
L 322.78125 239.76 
L 322.78125 37.296 
L 43.78125 37.296 
z
" style="fill: #ffffff"/>
   </g>
   <g id="matplotlib.axis_1">
    <g id="xtick_1">
     <g id="line2d_1">
      <path d="M 56.209178 239.76 
L 56.209178 37.296 
" clip-path="url(#pca33d1da6c)" style="fill: none; stroke-dasharray: 2.96,1.28; stroke-dashoffset: 0; stroke: #b0b0b0; stroke-opacity: 0.4; stroke-width: 0.8"/>
     </g>
     <g id="line2d_2">
      <defs>
       <path id="mb1e97acf4a" d="M 0 0 
L 0 3.5 
" style="stroke: #000000; stroke-width: 0.8"/>
      </defs>
      <g>
       <use xlink:href="#mb1e97acf4a" x="56.209178" y="239.76" style="stroke: #000000; stroke-width: 0.8"/>
      </g>
     </g>
     <g id="text_1">
      <!-- 0 -->
      <g transform="translate(53.027928 254.358437) scale(0.1 -0.1)">
       <defs>
        <path id="DejaVuSans-30" d="M 2034 4250 
Q 1547 4250 1301 3770 
Q 1056 3291 1056 2328 
Q 1056 1369 1301 889 
Q 1547 409 2034 409 
Q 2525 409 2770 889 
Q 3016 1369 3016 2328 
Q 3016 3291 2770 3770 
Q 2525 4250 2034 4250 
z
M 2034 4750 
Q 2819 4750 3233 4129 
Q 3647 3509 3647 2328 
Q 3647 1150 3233 529 
Q 2819 -91 2034 -91 
Q 1250 -91 836 529 
Q 422 1150 422 2328 
Q 422 3509 836 4129 
Q 1250 4750 2034 4750 
z
" transform="scale(0.015625)"/>
       </defs>
       <use xlink:href="#DejaVuSans-30"/>
      </g>
     </g>
    </g>
    <g id="xtick_2">
     <g id="line2d_3">
      <path d="M 106.987229 239.76 
L 106.987229 37.296 
" clip-path="url(#pca33d1da6c)" style="fill: none; stroke-dasharray: 2.96,1.28; stroke-dashoffset: 0; stroke: #b0b0b0; stroke-opacity: 0.4; stroke-width: 0.8"/>
     </g>
     <g id="line2d_4">
      <g>
       <use xlink:href="#mb1e97acf4a" x="106.987229" y="239.76" style="stroke: #000000; stroke-width: 0.8"/>
      </g>
     </g>
     <g id="text_2">
      <!-- 200 -->
      <g transform="translate(97.443479 254.358437) scale(0.1 -0.1)">
       <defs>
        <path id="DejaVuSans-32" d="M 1228 531 
L 3431 531 
L 3431 0 
L 469 0 
L 469 531 
Q 828 903 1448 1529 
Q 2069 2156 2228 2338 
Q 2531 2678 2651 2914 
Q 2772 3150 2772 3378 
Q 2772 3750 2511 3984 
Q 2250 4219 1831 4219 
Q 1534 4219 1204 4116 
Q 875 4013 500 3803 
L 500 4441 
Q 881 4594 1212 4672 
Q 1544 4750 1819 4750 
Q 2544 4750 2975 4387 
Q 3406 4025 3406 3419 
Q 3406 3131 3298 2873 
Q 3191 2616 2906 2266 
Q 2828 2175 2409 1742 
Q 1991 1309 1228 531 
z
" transform="scale(0.015625)"/>
       </defs>
       <use xlink:href="#DejaVuSans-32"/>
       <use xlink:href="#DejaVuSans-30" x="63.623047"/>
       <use xlink:href="#DejaVuSans-30" x="127.246094"/>
      </g>
     </g>
    </g>
    <g id="xtick_3">
     <g id="line2d_5">
      <path d="M 157.765279 239.76 
L 157.765279 37.296 
" clip-path="url(#pca33d1da6c)" style="fill: none; stroke-dasharray: 2.96,1.28; stroke-dashoffset: 0; stroke: #b0b0b0; stroke-opacity: 0.4; stroke-width: 0.8"/>
     </g>
     <g id="line2d_6">
      <g>
       <use xlink:href="#mb1e97acf4a" x="157.765279" y="239.76" style="stroke: #000000; stroke-width: 0.8"/>
      </g>
     </g>
     <g id="text_3">
      <!-- 400 -->
      <g transform="translate(148.221529 254.358437) scale(0.1 -0.1)">
       <defs>
        <path id="DejaVuSans-34" d="M 2419 4116 
L 825 1625 
L 2419 1625 
L 2419 4116 
z
M 2253 4666 
L 3047 4666 
L 3047 1625 
L 3713 1625 
L 3713 1100 
L 3047 1100 
L 3047 0 
L 2419 0 
L 2419 1100 
L 313 1100 
L 313 1709 
L 2253 4666 
z
" transform="scale(0.015625)"/>
       </defs>
       <use xlink:href="#DejaVuSans-34"/>
       <use xlink:href="#DejaVuSans-30" x="63.623047"/>
       <use xlink:href="#DejaVuSans-30" x="127.246094"/>
      </g>
     </g>
    </g>
    <g id="xtick_4">
     <g id="line2d_7">
      <path d="M 208.54333 239.76 
L 208.54333 37.296 
" clip-path="url(#pca33d1da6c)" style="fill: none; stroke-dasharray: 2.96,1.28; stroke-dashoffset: 0; stroke: #b0b0b0; stroke-opacity: 0.4; stroke-width: 0.8"/>
     </g>
     <g id="line2d_8">
      <g>
       <use xlink:href="#mb1e97acf4a" x="208.54333" y="239.76" style="stroke: #000000; stroke-width: 0.8"/>
      </g>
     </g>
     <g id="text_4">
      <!-- 600 -->
      <g transform="translate(198.99958 254.358437) scale(0.1 -0.1)">
       <defs>
        <path id="DejaVuSans-36" d="M 2113 2584 
Q 1688 2584 1439 2293 
Q 1191 2003 1191 1497 
Q 1191 994 1439 701 
Q 1688 409 2113 409 
Q 2538 409 2786 701 
Q 3034 994 3034 1497 
Q 3034 2003 2786 2293 
Q 2538 2584 2113 2584 
z
M 3366 4563 
L 3366 3988 
Q 3128 4100 2886 4159 
Q 2644 4219 2406 4219 
Q 1781 4219 1451 3797 
Q 1122 3375 1075 2522 
Q 1259 2794 1537 2939 
Q 1816 3084 2150 3084 
Q 2853 3084 3261 2657 
Q 3669 2231 3669 1497 
Q 3669 778 3244 343 
Q 2819 -91 2113 -91 
Q 1303 -91 875 529 
Q 447 1150 447 2328 
Q 447 3434 972 4092 
Q 1497 4750 2381 4750 
Q 2619 4750 2861 4703 
Q 3103 4656 3366 4563 
z
" transform="scale(0.015625)"/>
       </defs>
       <use xlink:href="#DejaVuSans-36"/>
       <use xlink:href="#DejaVuSans-30" x="63.623047"/>
       <use xlink:href="#DejaVuSans-30" x="127.246094"/>
      </g>
     </g>
    </g>
    <g id="xtick_5">
     <g id="line2d_9">
      <path d="M 259.321381 239.76 
L 259.321381 37.296 
" clip-path="url(#pca33d1da6c)" style="fill: none; stroke-dasharray: 2.96,1.28; stroke-dashoffset: 0; stroke: #b0b0b0; stroke-opacity: 0.4; stroke-width: 0.8"/>
     </g>
     <g id="line2d_10">
      <g>
       <use xlink:href="#mb1e97acf4a" x="259.321381" y="239.76" style="stroke: #000000; stroke-width: 0.8"/>
      </g>
     </g>
     <g id="text_5">
      <!-- 800 -->
      <g transform="translate(249.777631 254.358437) scale(0.1 -0.1)">
       <defs>
        <path id="DejaVuSans-38" d="M 2034 2216 
Q 1584 2216 1326 1975 
Q 1069 1734 1069 1313 
Q 1069 891 1326 650 
Q 1584 409 2034 409 
Q 2484 409 2743 651 
Q 3003 894 3003 1313 
Q 3003 1734 2745 1975 
Q 2488 2216 2034 2216 
z
M 1403 2484 
Q 997 2584 770 2862 
Q 544 3141 544 3541 
Q 544 4100 942 4425 
Q 1341 4750 2034 4750 
Q 2731 4750 3128 4425 
Q 3525 4100 3525 3541 
Q 3525 3141 3298 2862 
Q 3072 2584 2669 2484 
Q 3125 2378 3379 2068 
Q 3634 1759 3634 1313 
Q 3634 634 3220 271 
Q 2806 -91 2034 -91 
Q 1263 -91 848 271 
Q 434 634 434 1313 
Q 434 1759 690 2068 
Q 947 2378 1403 2484 
z
M 1172 3481 
Q 1172 3119 1398 2916 
Q 1625 2713 2034 2713 
Q 2441 2713 2670 2916 
Q 2900 3119 2900 3481 
Q 2900 3844 2670 4047 
Q 2441 4250 2034 4250 
Q 1625 4250 1398 4047 
Q 1172 3844 1172 3481 
z
" transform="scale(0.015625)"/>
       </defs>
       <use xlink:href="#DejaVuSans-38"/>
       <use xlink:href="#DejaVuSans-30" x="63.623047"/>
       <use xlink:href="#DejaVuSans-30" x="127.246094"/>
      </g>
     </g>
    </g>
    <g id="xtick_6">
     <g id="line2d_11">
      <path d="M 310.099432 239.76 
L 310.099432 37.296 
" clip-path="url(#pca33d1da6c)" style="fill: none; stroke-dasharray: 2.96,1.28; stroke-dashoffset: 0; stroke: #b0b0b0; stroke-opacity: 0.4; stroke-width: 0.8"/>
     </g>
     <g id="line2d_12">
      <g>
       <use xlink:href="#mb1e97acf4a" x="310.099432" y="239.76" style="stroke: #000000; stroke-width: 0.8"/>
      </g>
     </g>
     <g id="text_6">
      <!-- 1000 -->
      <g transform="translate(297.374432 254.358437) scale(0.1 -0.1)">
       <defs>
        <path id="DejaVuSans-31" d="M 794 531 
L 1825 531 
L 1825 4091 
L 703 3866 
L 703 4441 
L 1819 4666 
L 2450 4666 
L 2450 531 
L 3481 531 
L 3481 0 
L 794 0 
L 794 531 
z
" transform="scale(0.015625)"/>
       </defs>
       <use xlink:href="#DejaVuSans-31"/>
       <use xlink:href="#DejaVuSans-30" x="63.623047"/>
       <use xlink:href="#DejaVuSans-30" x="127.246094"/>
       <use xlink:href="#DejaVuSans-30" x="190.869141"/>
      </g>
     </g>
    </g>
    <g id="text_7">
     <!-- Epochs -->
     <g transform="translate(165.365625 268.036562) scale(0.1 -0.1)">
      <defs>
       <path id="DejaVuSans-45" d="M 628 4666 
L 3578 4666 
L 3578 4134 
L 1259 4134 
L 1259 2753 
L 3481 2753 
L 3481 2222 
L 1259 2222 
L 1259 531 
L 3634 531 
L 3634 0 
L 628 0 
L 628 4666 
z
" transform="scale(0.015625)"/>
       <path id="DejaVuSans-70" d="M 1159 525 
L 1159 -1331 
L 581 -1331 
L 581 3500 
L 1159 3500 
L 1159 2969 
Q 1341 3281 1617 3432 
Q 1894 3584 2278 3584 
Q 2916 3584 3314 3078 
Q 3713 2572 3713 1747 
Q 3713 922 3314 415 
Q 2916 -91 2278 -91 
Q 1894 -91 1617 61 
Q 1341 213 1159 525 
z
M 3116 1747 
Q 3116 2381 2855 2742 
Q 2594 3103 2138 3103 
Q 1681 3103 1420 2742 
Q 1159 2381 1159 1747 
Q 1159 1113 1420 752 
Q 1681 391 2138 391 
Q 2594 391 2855 752 
Q 3116 1113 3116 1747 
z
" transform="scale(0.015625)"/>
       <path id="DejaVuSans-6f" d="M 1959 3097 
Q 1497 3097 1228 2736 
Q 959 2375 959 1747 
Q 959 1119 1226 758 
Q 1494 397 1959 397 
Q 2419 397 2687 759 
Q 2956 1122 2956 1747 
Q 2956 2369 2687 2733 
Q 2419 3097 1959 3097 
z
M 1959 3584 
Q 2709 3584 3137 3096 
Q 3566 2609 3566 1747 
Q 3566 888 3137 398 
Q 2709 -91 1959 -91 
Q 1206 -91 779 398 
Q 353 888 353 1747 
Q 353 2609 779 3096 
Q 1206 3584 1959 3584 
z
" transform="scale(0.015625)"/>
       <path id="DejaVuSans-63" d="M 3122 3366 
L 3122 2828 
Q 2878 2963 2633 3030 
Q 2388 3097 2138 3097 
Q 1578 3097 1268 2742 
Q 959 2388 959 1747 
Q 959 1106 1268 751 
Q 1578 397 2138 397 
Q 2388 397 2633 464 
Q 2878 531 3122 666 
L 3122 134 
Q 2881 22 2623 -34 
Q 2366 -91 2075 -91 
Q 1284 -91 818 406 
Q 353 903 353 1747 
Q 353 2603 823 3093 
Q 1294 3584 2113 3584 
Q 2378 3584 2631 3529 
Q 2884 3475 3122 3366 
z
" transform="scale(0.015625)"/>
       <path id="DejaVuSans-68" d="M 3513 2113 
L 3513 0 
L 2938 0 
L 2938 2094 
Q 2938 2591 2744 2837 
Q 2550 3084 2163 3084 
Q 1697 3084 1428 2787 
Q 1159 2491 1159 1978 
L 1159 0 
L 581 0 
L 581 4863 
L 1159 4863 
L 1159 2956 
Q 1366 3272 1645 3428 
Q 1925 3584 2291 3584 
Q 2894 3584 3203 3211 
Q 3513 2838 3513 2113 
z
" transform="scale(0.015625)"/>
       <path id="DejaVuSans-73" d="M 2834 3397 
L 2834 2853 
Q 2591 2978 2328 3040 
Q 2066 3103 1784 3103 
Q 1356 3103 1142 2972 
Q 928 2841 928 2578 
Q 928 2378 1081 2264 
Q 1234 2150 1697 2047 
L 1894 2003 
Q 2506 1872 2764 1633 
Q 3022 1394 3022 966 
Q 3022 478 2636 193 
Q 2250 -91 1575 -91 
Q 1294 -91 989 -36 
Q 684 19 347 128 
L 347 722 
Q 666 556 975 473 
Q 1284 391 1588 391 
Q 1994 391 2212 530 
Q 2431 669 2431 922 
Q 2431 1156 2273 1281 
Q 2116 1406 1581 1522 
L 1381 1569 
Q 847 1681 609 1914 
Q 372 2147 372 2553 
Q 372 3047 722 3315 
Q 1072 3584 1716 3584 
Q 2034 3584 2315 3537 
Q 2597 3491 2834 3397 
z
" transform="scale(0.015625)"/>
      </defs>
      <use xlink:href="#DejaVuSans-45"/>
      <use xlink:href="#DejaVuSans-70" x="63.183594"/>
      <use xlink:href="#DejaVuSans-6f" x="126.660156"/>
      <use xlink:href="#DejaVuSans-63" x="187.841797"/>
      <use xlink:href="#DejaVuSans-68" x="242.822266"/>
      <use xlink:href="#DejaVuSans-73" x="306.201172"/>
     </g>
    </g>
   </g>
   <g id="matplotlib.axis_2">
    <g id="ytick_1">
     <g id="line2d_13">
      <path d="M 43.78125 211.158116 
L 322.78125 211.158116 
" clip-path="url(#pca33d1da6c)" style="fill: none; stroke-dasharray: 2.96,1.28; stroke-dashoffset: 0; stroke: #b0b0b0; stroke-opacity: 0.4; stroke-width: 0.8"/>
     </g>
     <g id="line2d_14">
      <defs>
       <path id="m841944b854" d="M 0 0 
L -3.5 0 
" style="stroke: #000000; stroke-width: 0.8"/>
      </defs>
      <g>
       <use xlink:href="#m841944b854" x="43.78125" y="211.158116" style="stroke: #000000; stroke-width: 0.8"/>
      </g>
     </g>
     <g id="text_8">
      <!-- 0.4 -->
      <g transform="translate(20.878125 214.957335) scale(0.1 -0.1)">
       <defs>
        <path id="DejaVuSans-2e" d="M 684 794 
L 1344 794 
L 1344 0 
L 684 0 
L 684 794 
z
" transform="scale(0.015625)"/>
       </defs>
       <use xlink:href="#DejaVuSans-30"/>
       <use xlink:href="#DejaVuSans-2e" x="63.623047"/>
       <use xlink:href="#DejaVuSans-34" x="95.410156"/>
      </g>
     </g>
    </g>
    <g id="ytick_2">
     <g id="line2d_15">
      <path d="M 43.78125 174.964607 
L 322.78125 174.964607 
" clip-path="url(#pca33d1da6c)" style="fill: none; stroke-dasharray: 2.96,1.28; stroke-dashoffset: 0; stroke: #b0b0b0; stroke-opacity: 0.4; stroke-width: 0.8"/>
     </g>
     <g id="line2d_16">
      <g>
       <use xlink:href="#m841944b854" x="43.78125" y="174.964607" style="stroke: #000000; stroke-width: 0.8"/>
      </g>
     </g>
     <g id="text_9">
      <!-- 0.6 -->
      <g transform="translate(20.878125 178.763826) scale(0.1 -0.1)">
       <use xlink:href="#DejaVuSans-30"/>
       <use xlink:href="#DejaVuSans-2e" x="63.623047"/>
       <use xlink:href="#DejaVuSans-36" x="95.410156"/>
      </g>
     </g>
    </g>
    <g id="ytick_3">
     <g id="line2d_17">
      <path d="M 43.78125 138.771098 
L 322.78125 138.771098 
" clip-path="url(#pca33d1da6c)" style="fill: none; stroke-dasharray: 2.96,1.28; stroke-dashoffset: 0; stroke: #b0b0b0; stroke-opacity: 0.4; stroke-width: 0.8"/>
     </g>
     <g id="line2d_18">
      <g>
       <use xlink:href="#m841944b854" x="43.78125" y="138.771098" style="stroke: #000000; stroke-width: 0.8"/>
      </g>
     </g>
     <g id="text_10">
      <!-- 0.8 -->
      <g transform="translate(20.878125 142.570316) scale(0.1 -0.1)">
       <use xlink:href="#DejaVuSans-30"/>
       <use xlink:href="#DejaVuSans-2e" x="63.623047"/>
       <use xlink:href="#DejaVuSans-38" x="95.410156"/>
      </g>
     </g>
    </g>
    <g id="ytick_4">
     <g id="line2d_19">
      <path d="M 43.78125 102.577588 
L 322.78125 102.577588 
" clip-path="url(#pca33d1da6c)" style="fill: none; stroke-dasharray: 2.96,1.28; stroke-dashoffset: 0; stroke: #b0b0b0; stroke-opacity: 0.4; stroke-width: 0.8"/>
     </g>
     <g id="line2d_20">
      <g>
       <use xlink:href="#m841944b854" x="43.78125" y="102.577588" style="stroke: #000000; stroke-width: 0.8"/>
      </g>
     </g>
     <g id="text_11">
      <!-- 1.0 -->
      <g transform="translate(20.878125 106.376807) scale(0.1 -0.1)">
       <use xlink:href="#DejaVuSans-31"/>
       <use xlink:href="#DejaVuSans-2e" x="63.623047"/>
       <use xlink:href="#DejaVuSans-30" x="95.410156"/>
      </g>
     </g>
    </g>
    <g id="ytick_5">
     <g id="line2d_21">
      <path d="M 43.78125 66.384079 
L 322.78125 66.384079 
" clip-path="url(#pca33d1da6c)" style="fill: none; stroke-dasharray: 2.96,1.28; stroke-dashoffset: 0; stroke: #b0b0b0; stroke-opacity: 0.4; stroke-width: 0.8"/>
     </g>
     <g id="line2d_22">
      <g>
       <use xlink:href="#m841944b854" x="43.78125" y="66.384079" style="stroke: #000000; stroke-width: 0.8"/>
      </g>
     </g>
     <g id="text_12">
      <!-- 1.2 -->
      <g transform="translate(20.878125 70.183298) scale(0.1 -0.1)">
       <use xlink:href="#DejaVuSans-31"/>
       <use xlink:href="#DejaVuSans-2e" x="63.623047"/>
       <use xlink:href="#DejaVuSans-32" x="95.410156"/>
      </g>
     </g>
    </g>
    <g id="text_13">
     <!-- Loss -->
     <g transform="translate(14.798438 149.495187) rotate(-90) scale(0.1 -0.1)">
      <defs>
       <path id="DejaVuSans-4c" d="M 628 4666 
L 1259 4666 
L 1259 531 
L 3531 531 
L 3531 0 
L 628 0 
L 628 4666 
z
" transform="scale(0.015625)"/>
      </defs>
      <use xlink:href="#DejaVuSans-4c"/>
      <use xlink:href="#DejaVuSans-6f" x="53.962891"/>
      <use xlink:href="#DejaVuSans-73" x="115.144531"/>
      <use xlink:href="#DejaVuSans-73" x="167.244141"/>
     </g>
    </g>
   </g>
   <g id="line2d_23">
    <path d="M 56.463068 142.396494 
L 56.716958 156.983205 
L 57.224739 157.648711 
L 57.478629 158.283767 
L 57.732519 158.533313 
L 57.98641 158.386638 
L 58.2403 158.368484 
L 58.74808 158.862118 
L 59.001971 159.917696 
L 59.509751 165.417833 
L 60.271422 182.006217 
L 61.033093 189.269052 
L 61.286983 188.392077 
L 61.540873 190.694446 
L 61.794764 190.92339 
L 62.048654 192.801105 
L 62.302544 192.13274 
L 62.556434 194.488195 
L 62.810325 194.270324 
L 63.064215 193.526945 
L 63.571995 197.991108 
L 63.825886 198.789401 
L 64.079776 198.093649 
L 64.333666 200.85088 
L 64.587556 197.408598 
L 64.841447 200.330426 
L 65.095337 199.43897 
L 65.349227 199.86844 
L 65.603117 200.903103 
L 65.857008 200.440912 
L 66.110898 201.003806 
L 66.364788 202.307749 
L 66.618678 203.006493 
L 66.872569 202.911275 
L 67.126459 204.094744 
L 67.634239 202.628583 
L 68.14202 203.164424 
L 68.6498 205.708648 
L 68.903691 203.707756 
L 69.411471 204.213503 
L 69.665361 203.716456 
L 69.919252 203.610635 
L 70.427032 206.692221 
L 70.680922 205.368679 
L 70.934813 204.681152 
L 71.188703 205.36293 
L 71.442593 206.403315 
L 71.696483 205.522041 
L 71.950374 207.05907 
L 72.204264 206.880596 
L 72.458154 207.135374 
L 72.712044 208.472642 
L 72.965935 208.255687 
L 73.219825 209.166818 
L 73.473715 208.029014 
L 73.727605 209.24029 
L 73.981496 207.305558 
L 74.235386 208.277524 
L 74.489276 207.896712 
L 74.743166 210.098907 
L 74.997057 208.877562 
L 75.250947 209.60811 
L 75.504837 210.95521 
L 75.758727 208.501851 
L 76.012618 208.051073 
L 76.266508 210.193947 
L 76.520398 208.82227 
L 76.774288 210.72563 
L 77.028179 209.60002 
L 77.282069 209.632461 
L 77.535959 210.724265 
L 77.78985 211.296074 
L 78.04374 211.121457 
L 78.55152 208.869979 
L 79.820972 212.838151 
L 80.074862 209.954503 
L 80.328752 211.881523 
L 80.836533 210.036442 
L 81.090423 211.394458 
L 81.344313 210.309228 
L 81.598203 212.389351 
L 81.852094 213.017185 
L 82.105984 211.55028 
L 82.359874 211.938055 
L 82.613764 212.86179 
L 82.867655 211.649144 
L 83.121545 214.190509 
L 83.375435 213.399648 
L 83.629325 214.856161 
L 83.883216 213.32541 
L 84.137106 214.308967 
L 84.390996 213.763854 
L 84.644886 211.86921 
L 84.898777 214.276639 
L 85.406557 213.042534 
L 85.660447 213.324164 
L 85.914338 212.855005 
L 86.168228 212.800156 
L 86.676008 214.862859 
L 86.929899 210.404667 
L 87.437679 213.841274 
L 87.691569 212.556758 
L 87.94546 214.174265 
L 88.19935 213.355871 
L 88.45324 214.925383 
L 88.70713 215.54044 
L 88.961021 215.704929 
L 89.214911 215.634666 
L 89.468801 215.924338 
L 89.722691 216.781951 
L 89.976582 216.324851 
L 90.230472 212.916256 
L 90.484362 214.802077 
L 90.738252 217.924922 
L 90.992143 216.193774 
L 91.246033 218.601424 
L 91.753813 217.715469 
L 92.007704 218.244639 
L 92.515484 215.788066 
L 92.769374 217.380597 
L 93.023265 217.321945 
L 93.277155 216.919679 
L 93.531045 218.128528 
L 93.784936 218.669315 
L 94.292716 217.495678 
L 94.546606 218.060168 
L 94.800497 217.585416 
L 95.054387 220.175435 
L 95.308277 218.261919 
L 95.562167 219.737837 
L 95.816058 218.474645 
L 96.069948 219.860485 
L 96.323838 217.463065 
L 96.577728 217.819041 
L 96.831619 218.703249 
L 97.085509 218.726925 
L 97.339399 219.240191 
L 97.593289 218.57626 
L 97.84718 218.980257 
L 98.10107 218.172936 
L 98.35496 217.901704 
L 98.60885 216.807461 
L 98.862741 218.48623 
L 99.116631 217.997973 
L 99.624411 219.022778 
L 99.878302 220.687319 
L 100.132192 220.050732 
L 100.386082 220.286708 
L 100.639972 220.352517 
L 100.893863 218.892196 
L 101.147753 219.351135 
L 101.401643 219.392631 
L 101.655533 216.833667 
L 101.909424 217.850096 
L 102.163314 217.388962 
L 102.417204 218.796897 
L 102.671094 219.12368 
L 102.924985 219.814345 
L 103.178875 219.259094 
L 103.686655 219.392102 
L 103.940546 220.751213 
L 104.194436 220.783799 
L 104.448326 220.659209 
L 104.702216 220.912784 
L 104.956107 222.496389 
L 105.209997 223.22067 
L 105.463887 220.843556 
L 105.717777 222.932929 
L 106.225558 221.562833 
L 106.479448 220.217443 
L 106.733338 221.452196 
L 106.987229 221.203507 
L 107.241119 220.514066 
L 107.495009 221.579023 
L 107.748899 221.740098 
L 108.00279 220.609144 
L 108.25668 221.677369 
L 108.51057 220.675184 
L 108.76446 222.870222 
L 109.272241 219.90691 
L 109.526131 222.006563 
L 110.033912 220.639308 
L 110.287802 222.82288 
L 110.541692 221.138254 
L 110.795583 220.279789 
L 111.049473 221.031797 
L 111.303363 220.436128 
L 111.557253 221.189366 
L 111.811144 222.742844 
L 112.065034 221.549042 
L 112.318924 222.339763 
L 112.572814 221.667041 
L 112.826705 221.704675 
L 113.080595 222.471752 
L 113.334485 222.142381 
L 113.588375 224.459716 
L 113.842266 221.681997 
L 114.096156 221.104196 
L 114.350046 222.922569 
L 114.603936 220.980383 
L 114.857827 223.852209 
L 115.111717 222.185673 
L 115.365607 221.366033 
L 115.619497 221.271398 
L 115.873388 220.574816 
L 116.127278 220.811207 
L 116.381168 222.454321 
L 116.635058 222.221721 
L 116.888949 223.230545 
L 117.142839 225.141607 
L 117.396729 223.919172 
L 117.650619 223.777658 
L 117.90451 222.016157 
L 118.41229 224.009644 
L 118.66618 221.895402 
L 118.920071 223.473166 
L 119.173961 223.329156 
L 119.681741 225.905998 
L 119.935632 224.496725 
L 120.189522 224.163794 
L 120.443412 223.469752 
L 120.697302 225.300697 
L 121.205083 221.352032 
L 121.458973 225.225768 
L 121.712863 222.422501 
L 121.966754 223.992332 
L 122.220644 224.237584 
L 122.474534 224.96748 
L 122.728424 223.717033 
L 122.982315 223.345783 
L 123.236205 224.949073 
L 123.490095 223.235949 
L 123.743985 224.649036 
L 124.251766 223.998329 
L 124.505656 222.626878 
L 124.759546 222.554776 
L 125.013437 223.629511 
L 125.267327 222.224617 
L 125.775107 224.667416 
L 126.028998 224.346339 
L 126.282888 222.339952 
L 126.536778 223.155363 
L 126.790669 223.307636 
L 127.044559 223.844551 
L 127.298449 222.088481 
L 127.552339 223.938944 
L 127.80623 222.672522 
L 128.06012 222.451948 
L 128.31401 223.566928 
L 128.5679 223.344235 
L 128.821791 222.80683 
L 129.075681 224.466188 
L 129.329571 223.654471 
L 130.091242 225.882041 
L 130.345132 224.253031 
L 130.852913 227.139128 
L 131.106803 226.975518 
L 131.360693 227.206532 
L 131.614583 225.177995 
L 131.868474 225.831285 
L 132.122364 223.040541 
L 132.376254 227.11461 
L 132.630144 224.18904 
L 132.884035 223.302923 
L 133.137925 224.872305 
L 133.391815 225.629578 
L 133.645705 223.17856 
L 133.899596 225.509211 
L 134.153486 223.690876 
L 134.407376 226.066825 
L 134.661266 223.91441 
L 134.915157 223.857365 
L 135.169047 223.162795 
L 135.676827 225.061684 
L 135.930718 222.850218 
L 136.184608 224.127195 
L 136.438498 222.919096 
L 136.692388 225.832747 
L 136.946279 225.770341 
L 137.200169 222.92197 
L 137.707949 225.251861 
L 137.96184 224.347655 
L 138.21573 225.31891 
L 138.46962 223.673019 
L 138.72351 224.300459 
L 138.977401 224.141045 
L 139.231291 223.531047 
L 139.485181 226.131797 
L 139.992962 223.931274 
L 140.246852 223.852199 
L 140.500742 224.534968 
L 140.754632 221.968869 
L 141.262413 227.027077 
L 141.516303 225.498041 
L 141.770193 226.622351 
L 142.277974 223.426256 
L 142.531864 224.921449 
L 142.785755 224.985526 
L 143.039645 224.029815 
L 143.547425 227.941822 
L 143.801316 224.571734 
L 144.055206 226.189101 
L 144.309096 225.365481 
L 144.562986 223.682619 
L 144.816877 226.717046 
L 145.070767 224.655006 
L 145.324657 224.103664 
L 145.578547 222.309178 
L 145.832438 226.069586 
L 146.340218 223.682613 
L 146.594108 224.442026 
L 146.847999 223.76225 
L 147.101889 225.097587 
L 147.355779 225.497238 
L 147.609669 226.218348 
L 147.86356 224.823421 
L 148.11745 224.898846 
L 148.37134 226.208193 
L 148.62523 226.557595 
L 148.879121 226.511261 
L 149.133011 224.76347 
L 149.386901 224.998421 
L 149.640791 226.090097 
L 149.894682 223.787997 
L 150.148572 224.573757 
L 150.402462 224.366138 
L 150.656352 225.702845 
L 150.910243 225.553166 
L 151.164133 223.556427 
L 151.418023 225.433166 
L 151.671913 226.292532 
L 151.925804 223.943593 
L 152.179694 224.288189 
L 152.433584 224.840334 
L 152.687474 224.283017 
L 152.941365 225.709279 
L 153.195255 222.844647 
L 153.449145 225.200744 
L 153.703035 225.674374 
L 153.956926 223.954476 
L 154.210816 224.998928 
L 154.464706 225.025226 
L 154.718596 224.930855 
L 154.972487 226.224443 
L 155.226377 228.917175 
L 155.480267 226.73575 
L 155.734157 225.831819 
L 155.988048 227.47702 
L 156.241938 227.179976 
L 156.495828 223.352751 
L 156.749718 227.52605 
L 157.003609 225.448672 
L 157.257499 227.499936 
L 157.511389 226.241 
L 157.765279 225.721182 
L 158.01917 227.814708 
L 158.27306 227.181605 
L 158.52695 224.946247 
L 158.78084 225.034421 
L 159.034731 223.945416 
L 159.288621 225.66204 
L 159.542511 226.083959 
L 159.796402 224.646053 
L 160.050292 224.775621 
L 160.304182 224.674885 
L 160.558072 226.902919 
L 160.811963 226.295024 
L 161.065853 223.16252 
L 161.319743 226.265636 
L 161.827524 225.735668 
L 162.081414 226.185908 
L 162.589194 224.896629 
L 162.843085 226.107614 
L 163.096975 223.200764 
L 163.350865 225.938875 
L 163.604755 226.223925 
L 163.858646 224.185448 
L 164.112536 224.284818 
L 164.620316 226.238913 
L 164.874207 223.655755 
L 165.128097 225.682992 
L 165.381987 225.533696 
L 165.889768 224.413361 
L 166.143658 223.356165 
L 166.397548 225.397269 
L 166.651438 226.38967 
L 166.905329 223.615046 
L 167.159219 226.944609 
L 167.413109 226.085539 
L 167.666999 224.767542 
L 167.92089 228.313519 
L 168.17478 227.03397 
L 168.42867 229.151399 
L 168.68256 225.753595 
L 168.936451 225.783781 
L 169.190341 227.294922 
L 169.444231 225.228503 
L 169.698121 227.458009 
L 170.459792 226.614111 
L 170.713682 227.879934 
L 170.967573 224.250604 
L 171.221463 225.452808 
L 171.475353 224.877931 
L 171.729243 226.733684 
L 171.983134 223.102261 
L 172.490914 226.204736 
L 172.744804 226.046562 
L 172.998695 226.274621 
L 173.252585 223.752229 
L 173.506475 226.627189 
L 173.760365 227.310056 
L 174.014256 225.217792 
L 174.268146 225.512366 
L 174.522036 224.660636 
L 174.775926 226.434057 
L 175.029817 224.990353 
L 175.283707 226.722763 
L 175.537597 227.094083 
L 175.791488 227.159234 
L 176.045378 226.612023 
L 176.299268 227.267719 
L 176.553158 226.928526 
L 176.807049 226.165721 
L 177.060939 225.033806 
L 177.314829 227.793054 
L 177.568719 225.763249 
L 177.82261 225.918251 
L 178.0765 226.315076 
L 178.33039 225.164738 
L 178.58428 223.311503 
L 178.838171 227.324596 
L 179.092061 224.851536 
L 179.345951 228.421055 
L 179.599841 227.615907 
L 179.853732 224.654876 
L 180.107622 226.947381 
L 180.361512 226.936401 
L 180.615402 228.310833 
L 180.869293 227.482624 
L 181.123183 228.398582 
L 181.377073 226.185234 
L 181.630963 225.580116 
L 181.884854 227.09459 
L 182.138744 226.135244 
L 182.392634 227.876504 
L 182.646524 225.690381 
L 182.900415 224.64718 
L 183.154305 226.659592 
L 183.408195 225.661338 
L 183.662085 225.226 
L 183.915976 226.315346 
L 184.169866 227.914235 
L 184.677646 224.933422 
L 184.931537 226.109151 
L 185.185427 225.563079 
L 185.439317 227.217901 
L 185.693207 226.286487 
L 185.947098 227.173008 
L 186.200988 227.211904 
L 186.708768 225.816696 
L 186.962659 226.135006 
L 187.216549 225.321979 
L 187.97822 227.698332 
L 188.23211 225.292882 
L 188.486 226.790955 
L 188.993781 226.545131 
L 189.247671 224.528825 
L 189.501561 224.49974 
L 189.755451 225.593853 
L 190.009342 225.581982 
L 190.263232 227.303465 
L 190.517122 224.476764 
L 190.771012 227.411659 
L 191.024903 226.026861 
L 191.278793 227.174173 
L 191.532683 225.405865 
L 191.786574 225.842811 
L 192.040464 227.379731 
L 192.294354 225.693261 
L 192.548244 226.978333 
L 192.802135 226.348806 
L 193.056025 227.457993 
L 193.309915 225.720643 
L 193.817696 229.029905 
L 194.071586 228.113127 
L 194.325476 225.53231 
L 194.579366 227.163101 
L 194.833257 227.751445 
L 195.087147 225.914239 
L 195.341037 225.815715 
L 195.594927 227.843632 
L 195.848818 227.617908 
L 196.102708 226.782687 
L 196.356598 228.197926 
L 196.610488 225.664272 
L 196.864379 227.855136 
L 197.118269 226.054609 
L 197.372159 226.846128 
L 197.626049 226.95786 
L 197.87994 227.567449 
L 198.13383 226.675755 
L 198.38772 227.119577 
L 198.64161 225.422768 
L 198.895501 226.747054 
L 199.149391 228.702087 
L 199.403281 226.668976 
L 199.657171 226.204229 
L 199.911062 227.688749 
L 200.164952 226.810091 
L 200.418842 224.587542 
L 200.672732 226.34091 
L 200.926623 227.209385 
L 201.180513 227.036192 
L 201.434403 229.734107 
L 201.688293 226.361226 
L 201.942184 226.671414 
L 202.196074 226.167393 
L 202.449964 226.903615 
L 202.703854 228.040588 
L 202.957745 227.841739 
L 203.465525 226.301291 
L 203.719415 225.842196 
L 203.973306 229.061693 
L 204.227196 227.148668 
L 204.481086 226.51296 
L 204.734976 227.165296 
L 205.496647 226.628446 
L 205.750537 227.203043 
L 206.004428 226.89875 
L 206.258318 225.938368 
L 206.512208 227.827539 
L 206.766098 226.690565 
L 207.019989 226.417758 
L 207.273879 228.111855 
L 207.527769 227.073465 
L 207.78166 227.790703 
L 208.03555 227.802492 
L 208.28944 226.655515 
L 208.54333 226.065832 
L 208.797221 227.840569 
L 209.051111 224.837066 
L 209.305001 227.468796 
L 209.558891 226.648293 
L 209.812782 229.495763 
L 210.066672 227.217605 
L 210.320562 226.767624 
L 210.574452 229.121898 
L 210.828343 226.953529 
L 211.082233 227.6577 
L 211.336123 225.104086 
L 211.590013 226.914374 
L 211.843904 227.274504 
L 212.097794 227.124221 
L 212.351684 228.586321 
L 213.113355 226.444757 
L 213.367245 224.196655 
L 213.621135 225.070588 
L 214.128916 227.618377 
L 214.382806 225.775729 
L 214.636696 226.041228 
L 214.890587 226.7782 
L 215.144477 228.162131 
L 215.398367 226.253803 
L 215.652257 229.700243 
L 215.906148 225.082081 
L 216.160038 225.780794 
L 216.413928 224.489881 
L 216.667818 227.404184 
L 216.921709 226.662526 
L 217.175599 228.186832 
L 217.429489 226.709059 
L 217.683379 226.713292 
L 217.93727 225.95711 
L 218.19116 227.102389 
L 218.44505 229.778672 
L 218.69894 226.253582 
L 218.952831 230.557091 
L 219.206721 225.329157 
L 219.460611 226.830817 
L 219.714501 225.003054 
L 219.968392 228.024883 
L 220.476172 225.072757 
L 220.730062 226.689805 
L 220.983953 226.365153 
L 221.491733 227.231309 
L 221.745623 226.462997 
L 221.999514 227.358245 
L 222.507294 226.404237 
L 222.761184 226.103526 
L 223.522855 227.825921 
L 223.776745 230.249864 
L 224.030636 224.643108 
L 224.284526 226.570371 
L 224.538416 225.505231 
L 224.792307 227.643418 
L 225.046197 226.140324 
L 225.300087 226.991811 
L 225.553977 228.382957 
L 225.807868 227.275383 
L 226.061758 227.443987 
L 226.315648 226.494407 
L 226.569538 226.605945 
L 226.823429 227.707965 
L 227.585099 225.151649 
L 227.83899 229.28205 
L 228.09288 226.716415 
L 228.34677 226.714527 
L 228.60066 226.217755 
L 228.854551 227.899344 
L 229.108441 224.384 
L 229.362331 228.811737 
L 229.616221 225.844941 
L 229.870112 226.255821 
L 230.124002 226.243292 
L 230.377892 226.630754 
L 230.631782 227.569385 
L 230.885673 226.473546 
L 231.393453 225.762694 
L 231.647343 226.726997 
L 231.901234 226.752847 
L 232.155124 227.269601 
L 232.409014 226.226859 
L 232.662904 227.882776 
L 232.916795 227.111827 
L 233.170685 228.542463 
L 233.424575 227.674208 
L 233.678465 228.086938 
L 233.932356 229.315267 
L 234.186246 227.597317 
L 234.694026 226.184619 
L 234.947917 228.231342 
L 235.201807 224.520547 
L 235.709587 227.796673 
L 235.963478 227.276424 
L 236.217368 228.590004 
L 236.471258 225.886949 
L 236.979039 227.090831 
L 237.232929 228.137009 
L 237.486819 226.025599 
L 237.740709 225.88923 
L 237.9946 228.686349 
L 238.24849 229.700308 
L 238.50238 229.077592 
L 239.010161 225.624945 
L 239.264051 227.473466 
L 239.517941 226.257244 
L 240.025722 227.93248 
L 240.279612 227.973372 
L 241.041283 224.630483 
L 241.295173 227.572281 
L 241.549063 227.441824 
L 241.802954 227.673998 
L 242.056844 225.637554 
L 242.310734 227.413585 
L 242.564624 225.842956 
L 242.818515 227.14081 
L 243.072405 227.220862 
L 243.326295 227.16351 
L 243.580185 225.773011 
L 244.341856 229.049073 
L 244.595746 226.723621 
L 244.849637 228.623432 
L 245.103527 228.747703 
L 245.357417 226.383463 
L 245.611307 226.250632 
L 245.865198 227.367187 
L 246.119088 226.633737 
L 246.372978 227.102799 
L 246.626868 226.060116 
L 246.880759 226.915631 
L 247.134649 226.37869 
L 247.388539 226.434316 
L 247.642429 225.90006 
L 247.89632 226.335851 
L 248.15021 228.85258 
L 248.4041 228.338738 
L 248.65799 226.298967 
L 249.165771 228.779971 
L 249.419661 227.081857 
L 249.673551 227.810264 
L 249.927442 227.200114 
L 250.181332 227.126977 
L 250.435222 226.721873 
L 250.689112 226.961975 
L 250.943003 226.806558 
L 251.196893 228.505363 
L 251.450783 227.949183 
L 251.704673 226.781037 
L 251.958564 226.144164 
L 252.466344 227.503517 
L 252.720234 225.06931 
L 252.974125 224.976363 
L 253.481905 228.018826 
L 253.989686 226.869718 
L 254.243576 227.414949 
L 254.497466 226.591378 
L 254.751356 228.000479 
L 255.005247 225.451611 
L 255.259137 226.952861 
L 255.513027 227.300386 
L 255.766917 226.95017 
L 256.020808 226.401552 
L 256.274698 227.793793 
L 256.528588 227.778239 
L 256.782479 226.678959 
L 257.036369 227.25189 
L 257.290259 226.947036 
L 257.544149 228.808426 
L 257.79804 226.255427 
L 258.05193 226.827166 
L 258.30582 225.871762 
L 258.55971 228.342632 
L 258.813601 228.552181 
L 259.575271 225.329918 
L 259.829162 227.305995 
L 260.083052 226.574896 
L 260.336942 228.068072 
L 260.590832 227.630065 
L 260.844723 225.860792 
L 261.098613 227.590225 
L 261.352503 227.859294 
L 261.606393 227.195185 
L 261.860284 226.860388 
L 262.114174 227.624083 
L 262.368064 225.88017 
L 262.621954 228.089953 
L 262.875845 226.505539 
L 263.129735 226.206127 
L 263.383625 227.602305 
L 263.637515 225.671095 
L 263.891406 226.832607 
L 264.145296 225.856989 
L 264.399186 225.610744 
L 264.653076 226.8216 
L 264.906967 227.373885 
L 265.160857 225.603539 
L 265.414747 228.4971 
L 265.668637 228.901389 
L 265.922528 228.211069 
L 266.176418 224.200279 
L 266.430308 226.430395 
L 266.684198 227.336661 
L 266.938089 227.528073 
L 267.191979 227.252364 
L 267.445869 224.582111 
L 267.699759 226.101795 
L 267.95365 225.873762 
L 268.20754 227.792569 
L 268.46143 227.75816 
L 268.71532 228.076421 
L 268.969211 226.002494 
L 269.223101 225.639587 
L 269.476991 227.579249 
L 269.730881 226.342706 
L 269.984772 227.970956 
L 270.238662 228.293553 
L 270.492552 228.223538 
L 270.746442 228.503319 
L 271.254223 224.778894 
L 271.508113 229.884401 
L 271.762003 224.964126 
L 272.015894 227.789689 
L 272.269784 227.727068 
L 272.523674 226.780331 
L 272.777564 226.60841 
L 273.031455 225.866735 
L 273.539235 227.876784 
L 273.793126 226.543702 
L 274.047016 228.030843 
L 274.300906 226.031763 
L 274.554796 228.447725 
L 275.062577 226.682513 
L 275.316467 226.721398 
L 275.570357 224.756572 
L 276.078138 228.680061 
L 276.332028 225.500851 
L 276.585918 228.191799 
L 276.839809 227.08197 
L 277.093699 227.19361 
L 277.347589 226.473875 
L 277.601479 225.248528 
L 277.85537 225.370108 
L 278.10926 226.823406 
L 278.36315 227.188535 
L 278.61704 227.918415 
L 278.870931 227.132564 
L 279.124821 224.115206 
L 279.378711 228.339385 
L 279.632601 227.415753 
L 280.140382 225.004079 
L 280.394272 227.840633 
L 280.902053 225.395618 
L 281.155943 225.882208 
L 281.409833 227.78889 
L 281.663723 227.229513 
L 281.917614 228.132807 
L 282.171504 227.749169 
L 282.425394 226.5912 
L 282.679284 226.836124 
L 282.933175 224.385527 
L 283.187065 228.041101 
L 283.440955 224.961952 
L 283.694845 226.953729 
L 283.948736 226.723842 
L 284.202626 229.378697 
L 284.710406 225.568731 
L 284.964297 227.416556 
L 285.218187 227.476794 
L 285.725967 226.787444 
L 285.979858 228.928819 
L 286.233748 225.608808 
L 286.741528 227.225457 
L 287.249309 227.827565 
L 287.503199 227.254063 
L 287.757089 227.342825 
L 288.01098 226.901166 
L 288.26487 228.065861 
L 288.51876 227.071636 
L 288.77265 227.733022 
L 289.026541 225.012908 
L 289.280431 226.059889 
L 289.534321 225.755871 
L 289.788212 224.76375 
L 290.042102 226.333063 
L 290.295992 225.801056 
L 290.549882 227.911495 
L 290.803773 226.628845 
L 291.057663 226.963615 
L 291.311553 228.131583 
L 291.565443 226.436829 
L 291.819334 225.493926 
L 292.073224 228.809483 
L 292.327114 226.933693 
L 292.581004 227.803274 
L 292.834895 226.336628 
L 293.088785 227.767183 
L 293.342675 226.529598 
L 293.850456 225.943821 
L 294.358236 225.047597 
L 294.866017 227.967423 
L 295.119907 227.678286 
L 295.373797 227.803015 
L 295.627687 226.527614 
L 295.881578 227.244905 
L 296.135468 227.033986 
L 296.389358 228.834756 
L 296.643248 227.351142 
L 296.897139 227.11941 
L 297.151029 226.524787 
L 297.404919 226.521551 
L 297.658809 227.037918 
L 297.9127 228.154887 
L 298.16659 223.546342 
L 298.42048 225.57222 
L 298.67437 226.132132 
L 298.928261 228.198287 
L 299.182151 227.886843 
L 299.689931 224.629598 
L 299.943822 226.141629 
L 300.197712 226.065611 
L 300.451602 226.177678 
L 300.959383 227.551798 
L 301.213273 224.796066 
L 301.467163 223.816738 
L 301.721053 226.720352 
L 302.228834 225.593761 
L 302.482724 226.947133 
L 302.736614 226.397927 
L 303.244395 226.233029 
L 303.752175 227.796759 
L 304.006066 225.809718 
L 304.259956 226.529124 
L 304.513846 224.413253 
L 305.021627 226.77847 
L 305.275517 226.914029 
L 305.529407 225.83738 
L 305.783298 226.113234 
L 306.037188 227.204203 
L 306.291078 225.331196 
L 306.544968 227.541567 
L 306.798859 227.300839 
L 307.052749 225.16024 
L 307.306639 226.478583 
L 307.560529 226.795777 
L 307.81442 226.123049 
L 308.06831 227.780019 
L 308.3222 227.447934 
L 308.57609 226.590774 
L 308.829981 226.565857 
L 309.337761 226.80377 
L 309.591651 225.374239 
L 309.845542 227.446737 
L 310.099432 226.517296 
L 310.099432 226.517296 
" clip-path="url(#pca33d1da6c)" style="fill: none; stroke: #0000ff; stroke-width: 0.6; stroke-linecap: square"/>
   </g>
   <g id="line2d_24">
    <path d="M 56.463068 156.751953 
L 56.716958 157.977042 
L 56.970849 157.215838 
L 57.224739 158.090181 
L 57.478629 158.378526 
L 57.732519 158.364169 
L 57.98641 158.082739 
L 58.2403 158.853057 
L 58.49419 158.753098 
L 58.74808 159.465202 
L 59.001971 161.21624 
L 59.255861 160.935899 
L 59.509751 163.988718 
L 60.017532 180.525553 
L 60.271422 177.88684 
L 60.525312 188.50636 
L 60.779202 186.056442 
L 61.033093 116.531908 
L 61.286983 191.004439 
L 61.540873 173.086089 
L 61.794764 192.363065 
L 62.048654 163.345432 
L 62.302544 192.994733 
L 62.556434 194.757081 
L 62.810325 188.24153 
L 63.064215 191.14488 
L 63.318105 189.282007 
L 63.571995 195.357803 
L 63.825886 186.250697 
L 64.079776 199.202535 
L 64.333666 194.980939 
L 64.587556 182.291811 
L 64.841447 195.694067 
L 65.095337 194.431178 
L 65.349227 190.502133 
L 65.603117 182.053354 
L 65.857008 160.864406 
L 66.110898 46.498909 
L 66.364788 197.379367 
L 66.618678 186.959974 
L 66.872569 191.161836 
L 67.126459 191.301047 
L 67.634239 196.831191 
L 67.88813 198.124666 
L 68.14202 191.522483 
L 68.39591 189.793427 
L 68.6498 168.34172 
L 68.903691 113.632884 
L 69.157581 199.298135 
L 69.411471 197.404963 
L 69.665361 196.513604 
L 69.919252 192.565905 
L 70.173142 196.543192 
L 70.427032 198.326104 
L 70.680922 195.218393 
L 70.934813 194.579913 
L 71.442593 198.201568 
L 71.696483 192.007142 
L 71.950374 198.812624 
L 72.204264 190.375748 
L 72.458154 195.087294 
L 72.712044 178.729449 
L 73.219825 196.598483 
L 73.473715 199.240271 
L 73.727605 190.541957 
L 73.981496 187.830111 
L 74.235386 195.121352 
L 74.489276 195.186319 
L 74.743166 198.749016 
L 74.997057 198.449043 
L 75.504837 192.018317 
L 75.758727 189.550472 
L 76.012618 179.00293 
L 76.266508 196.51266 
L 76.520398 190.517202 
L 76.774288 198.625737 
L 77.028179 190.734928 
L 77.282069 197.444582 
L 77.535959 199.137071 
L 78.04374 195.915002 
L 78.29763 200.210167 
L 78.55152 192.142923 
L 78.805411 196.387089 
L 79.059301 192.822246 
L 79.313191 197.371612 
L 79.567081 187.629525 
L 79.820972 172.478324 
L 80.074862 176.789766 
L 80.328752 197.36316 
L 80.582642 193.811531 
L 80.836533 185.159232 
L 81.090423 187.495082 
L 81.344313 194.749191 
L 81.598203 193.253383 
L 81.852094 198.627484 
L 82.105984 194.342502 
L 82.359874 196.36872 
L 82.613764 191.163939 
L 82.867655 180.826238 
L 83.121545 197.28019 
L 83.375435 161.756579 
L 83.629325 198.114732 
L 83.883216 199.752161 
L 84.137106 193.195497 
L 84.390996 192.086908 
L 84.644886 197.04622 
L 84.898777 190.206831 
L 85.152667 199.300827 
L 85.406557 191.659105 
L 85.660447 197.93861 
L 85.914338 195.288349 
L 86.168228 195.773067 
L 86.422118 189.568561 
L 86.676008 176.681728 
L 86.929899 197.454236 
L 87.183789 198.43913 
L 87.437679 184.533312 
L 87.691569 195.043333 
L 87.94546 170.357276 
L 88.19935 186.650477 
L 88.70713 197.886527 
L 88.961021 184.511545 
L 89.214911 198.211314 
L 89.468801 181.669549 
L 89.722691 198.14906 
L 90.230472 192.066641 
L 90.738252 198.454809 
L 90.992143 182.27259 
L 91.246033 193.251306 
L 91.499923 198.307967 
L 92.007704 194.878888 
L 92.261594 196.540004 
L 92.515484 191.33881 
L 92.769374 192.210123 
L 93.023265 186.456611 
L 93.277155 184.170648 
L 93.531045 188.463883 
L 93.784936 188.046779 
L 94.038826 192.094232 
L 94.292716 175.804052 
L 94.546606 190.793283 
L 94.800497 195.194566 
L 95.054387 190.389091 
L 95.562167 196.286155 
L 95.816058 189.584665 
L 96.069948 191.30109 
L 96.323838 190.927898 
L 96.577728 192.325894 
L 96.831619 187.865544 
L 97.085509 177.50832 
L 97.339399 189.902285 
L 97.593289 180.82476 
L 97.84718 197.392305 
L 98.35496 193.761691 
L 98.60885 193.604252 
L 98.862741 197.949132 
L 99.116631 194.767792 
L 99.370521 192.99277 
L 99.624411 182.709422 
L 100.132192 185.050601 
L 100.386082 176.804727 
L 100.639972 192.398229 
L 100.893863 190.51717 
L 101.147753 194.958465 
L 101.401643 178.795398 
L 101.909424 194.358218 
L 102.163314 196.115259 
L 102.417204 194.557013 
L 102.671094 174.009447 
L 102.924985 193.335797 
L 103.178875 186.654295 
L 103.432765 188.078945 
L 103.686655 196.377969 
L 104.194436 188.845973 
L 104.448326 192.480368 
L 104.702216 187.470521 
L 104.956107 191.834774 
L 105.209997 191.399064 
L 105.463887 194.108623 
L 105.717777 192.588556 
L 105.971668 179.52929 
L 106.225558 195.679468 
L 106.479448 191.693395 
L 106.733338 194.423665 
L 106.987229 189.384845 
L 107.495009 195.913416 
L 107.748899 189.175123 
L 108.00279 191.853434 
L 108.51057 194.257677 
L 108.76446 191.34937 
L 109.018351 176.358683 
L 109.272241 173.780773 
L 109.780021 194.689703 
L 110.033912 173.721005 
L 110.287802 186.827602 
L 110.541692 193.661657 
L 110.795583 194.807912 
L 111.049473 194.519303 
L 111.303363 192.992748 
L 111.557253 194.534706 
L 111.811144 187.004091 
L 112.065034 154.450048 
L 112.318924 192.0451 
L 112.572814 191.319966 
L 112.826705 191.964223 
L 113.080595 188.246082 
L 113.334485 195.223015 
L 113.588375 194.598865 
L 113.842266 195.145023 
L 114.096156 183.347454 
L 114.350046 188.83661 
L 114.603936 188.314414 
L 114.857827 184.680149 
L 115.111717 185.108211 
L 115.365607 192.214232 
L 115.619497 181.289734 
L 115.873388 191.457095 
L 116.127278 196.348366 
L 116.381168 194.12209 
L 116.635058 197.006348 
L 117.396729 187.098969 
L 117.650619 188.118585 
L 117.90451 193.296836 
L 118.1584 190.133213 
L 118.41229 194.514692 
L 118.66618 185.828739 
L 118.920071 183.061644 
L 119.173961 194.756563 
L 119.935632 188.537145 
L 120.189522 193.07197 
L 120.443412 191.699317 
L 120.697302 188.960407 
L 120.951193 190.110443 
L 121.712863 181.049271 
L 121.966754 197.739286 
L 122.220644 190.615003 
L 122.474534 193.153818 
L 122.728424 191.819694 
L 122.982315 165.487039 
L 123.236205 193.483885 
L 123.490095 196.761316 
L 123.743985 193.080718 
L 124.251766 189.725764 
L 124.505656 191.698432 
L 124.759546 191.065502 
L 125.013437 186.797184 
L 125.267327 186.502281 
L 125.521217 188.444316 
L 125.775107 179.986012 
L 126.028998 189.627272 
L 126.282888 186.400327 
L 126.536778 190.957755 
L 126.790669 191.483964 
L 127.044559 191.415524 
L 127.298449 189.219931 
L 127.552339 192.173395 
L 127.80623 191.536149 
L 128.06012 179.946275 
L 128.31401 190.29102 
L 128.821791 177.412266 
L 129.075681 187.688689 
L 129.329571 193.184678 
L 129.583461 189.614706 
L 129.837352 180.428162 
L 130.091242 190.775668 
L 130.345132 195.34871 
L 130.852913 191.003943 
L 131.360693 172.207647 
L 131.614583 167.631342 
L 132.122364 190.171689 
L 132.630144 191.458573 
L 132.884035 186.944797 
L 133.137925 192.005966 
L 133.391815 184.235691 
L 133.645705 167.697787 
L 133.899596 193.429284 
L 134.153486 189.461063 
L 134.407376 191.334107 
L 134.661266 191.392042 
L 134.915157 191.827105 
L 135.169047 188.966922 
L 135.422937 190.029706 
L 135.676827 169.283662 
L 135.930718 173.930263 
L 136.184608 187.575636 
L 136.438498 189.581818 
L 136.692388 172.209114 
L 136.946279 170.005851 
L 137.200169 195.57074 
L 137.454059 188.650327 
L 137.707949 188.747115 
L 137.96184 190.155725 
L 138.21573 178.956149 
L 138.46962 156.632439 
L 138.72351 182.506236 
L 138.977401 185.015523 
L 139.231291 183.183877 
L 139.485181 183.113711 
L 139.739071 187.28907 
L 139.992962 183.432452 
L 140.246852 186.780379 
L 140.500742 177.914065 
L 140.754632 193.856499 
L 141.008523 192.242266 
L 141.262413 184.13323 
L 141.516303 188.274515 
L 141.770193 194.921564 
L 142.277974 182.385708 
L 142.531864 181.084262 
L 142.785755 189.73613 
L 143.039645 185.086628 
L 143.293535 192.829063 
L 143.547425 192.184203 
L 143.801316 192.812711 
L 144.055206 192.460736 
L 144.309096 178.755703 
L 144.562986 186.680248 
L 144.816877 190.120917 
L 145.070767 179.712725 
L 145.324657 187.213813 
L 145.578547 156.245732 
L 146.086328 191.369077 
L 146.340218 187.068832 
L 146.594108 193.746412 
L 146.847999 192.781894 
L 147.101889 182.298003 
L 147.355779 188.098457 
L 147.609669 187.064841 
L 147.86356 190.98196 
L 148.11745 190.754063 
L 148.37134 184.870067 
L 148.62523 189.972807 
L 149.133011 178.588599 
L 149.386901 184.927721 
L 149.640791 187.260368 
L 149.894682 177.819003 
L 150.148572 188.575955 
L 150.402462 164.218718 
L 150.656352 195.464169 
L 150.910243 181.038441 
L 151.164133 186.828886 
L 151.418023 184.379011 
L 151.671913 164.698362 
L 151.925804 180.871153 
L 152.687474 187.944383 
L 152.941365 193.827926 
L 153.449145 190.577251 
L 153.703035 185.575181 
L 153.956926 174.294577 
L 154.210816 183.207694 
L 154.464706 181.79478 
L 154.718596 183.244627 
L 154.972487 187.102108 
L 155.226377 184.015204 
L 155.480267 192.084546 
L 155.734157 189.919759 
L 155.988048 186.066841 
L 156.241938 185.425248 
L 156.495828 188.709179 
L 156.749718 186.213278 
L 157.003609 190.154754 
L 157.511389 182.982374 
L 157.765279 188.593256 
L 158.01917 184.47472 
L 158.27306 182.295964 
L 158.52695 184.320818 
L 158.78084 191.637445 
L 159.034731 185.553673 
L 159.288621 183.98608 
L 159.796402 193.075999 
L 160.050292 178.655303 
L 160.304182 192.063232 
L 160.558072 187.614575 
L 160.811963 185.726537 
L 161.065853 189.95132 
L 161.319743 189.008946 
L 161.573633 188.869024 
L 161.827524 189.415533 
L 162.081414 183.620504 
L 162.335304 189.311044 
L 162.589194 185.330608 
L 162.843085 187.782618 
L 163.096975 188.27335 
L 163.604755 183.564393 
L 163.858646 184.210947 
L 164.366426 190.450315 
L 164.620316 190.924608 
L 164.874207 184.738989 
L 165.128097 186.332652 
L 165.381987 181.923463 
L 165.635877 189.765868 
L 165.889768 189.577374 
L 166.143658 188.125629 
L 166.651438 187.916985 
L 166.905329 187.611382 
L 167.159219 185.736903 
L 167.413109 190.156954 
L 167.666999 174.526023 
L 167.92089 185.223487 
L 168.17478 190.307027 
L 168.42867 185.969126 
L 168.68256 186.254267 
L 168.936451 187.963216 
L 169.190341 182.670537 
L 169.444231 189.996171 
L 169.698121 189.746743 
L 169.952012 186.028354 
L 170.205902 190.62195 
L 170.459792 192.929895 
L 170.713682 181.683269 
L 170.967573 175.60037 
L 171.221463 190.456625 
L 171.475353 193.079483 
L 171.729243 179.563203 
L 172.237024 191.697591 
L 172.490914 182.484415 
L 172.744804 188.058612 
L 172.998695 177.826662 
L 173.252585 179.763929 
L 173.506475 184.383358 
L 173.760365 174.624331 
L 174.268146 188.531201 
L 174.775926 177.694387 
L 175.029817 187.843486 
L 175.537597 182.7083 
L 175.791488 188.685125 
L 176.045378 182.892566 
L 176.299268 182.649373 
L 176.553158 179.481452 
L 176.807049 185.656899 
L 177.060939 187.376538 
L 177.314829 186.171826 
L 177.568719 188.985475 
L 177.82261 189.380585 
L 178.0765 188.812125 
L 178.33039 184.848925 
L 178.58428 185.516243 
L 178.838171 189.512601 
L 179.092061 189.012765 
L 179.345951 188.880846 
L 179.599841 177.828517 
L 179.853732 188.472383 
L 180.107622 183.779778 
L 180.361512 190.243279 
L 180.615402 191.075436 
L 180.869293 170.768231 
L 181.123183 190.972447 
L 181.377073 181.608918 
L 181.630963 186.604699 
L 181.884854 182.731006 
L 182.138744 187.455377 
L 182.392634 186.837903 
L 182.646524 180.837381 
L 182.900415 161.765068 
L 183.154305 183.983535 
L 183.662085 179.472704 
L 183.915976 185.800101 
L 184.169866 165.676223 
L 184.423756 189.129496 
L 184.677646 185.456184 
L 184.931537 167.708067 
L 185.185427 190.160438 
L 185.693207 188.784846 
L 185.947098 191.475033 
L 186.200988 191.605323 
L 186.454878 186.710126 
L 186.708768 188.578198 
L 186.962659 185.410751 
L 187.216549 194.226687 
L 187.470439 186.666247 
L 187.724329 188.009037 
L 187.97822 183.44573 
L 188.23211 188.796301 
L 188.486 178.261401 
L 188.993781 186.704701 
L 189.247671 184.849001 
L 189.501561 190.841045 
L 189.755451 187.745383 
L 190.009342 167.517232 
L 190.263232 190.844659 
L 190.517122 189.222282 
L 190.771012 191.835896 
L 191.278793 184.278244 
L 191.532683 188.246168 
L 191.786574 188.871634 
L 192.040464 184.334463 
L 192.294354 182.483747 
L 192.548244 188.530802 
L 192.802135 191.018354 
L 193.309915 184.151384 
L 193.563805 188.680918 
L 193.817696 183.065128 
L 194.071586 186.941335 
L 194.325476 186.198123 
L 194.579366 188.594809 
L 194.833257 182.975633 
L 195.087147 186.527737 
L 195.341037 179.540087 
L 195.594927 186.272636 
L 195.848818 188.38074 
L 196.102708 185.94327 
L 196.356598 180.906155 
L 196.610488 172.994167 
L 196.864379 191.260996 
L 197.118269 169.229363 
L 197.372159 190.08489 
L 197.626049 178.487368 
L 197.87994 174.621149 
L 198.13383 182.952755 
L 198.38772 180.52413 
L 198.64161 181.788308 
L 198.895501 187.491339 
L 199.149391 180.988273 
L 199.403281 164.216917 
L 199.657171 191.32619 
L 199.911062 190.42337 
L 200.164952 193.083247 
L 200.418842 182.155643 
L 200.672732 185.723096 
L 201.180513 170.95419 
L 201.942184 190.500505 
L 202.196074 186.578164 
L 202.449964 179.822597 
L 202.703854 158.990639 
L 202.957745 186.533961 
L 203.211635 162.85128 
L 203.465525 184.848311 
L 203.719415 189.720791 
L 203.973306 190.046511 
L 204.227196 174.811488 
L 204.481086 191.959218 
L 204.988867 180.292597 
L 205.242757 186.824862 
L 205.496647 189.238257 
L 205.750537 184.713069 
L 206.004428 184.179353 
L 206.258318 192.665097 
L 206.512208 189.128752 
L 206.766098 178.037495 
L 207.019989 178.434643 
L 207.273879 189.596908 
L 207.527769 190.904092 
L 207.78166 181.991235 
L 208.03555 184.001462 
L 208.28944 183.508443 
L 208.54333 184.087776 
L 208.797221 179.182925 
L 209.051111 181.830645 
L 209.305001 188.095534 
L 209.558891 179.814086 
L 209.812782 187.297786 
L 210.320562 176.204781 
L 210.574452 187.654949 
L 210.828343 187.487693 
L 211.082233 190.056392 
L 211.336123 176.369707 
L 211.590013 189.73861 
L 211.843904 186.036175 
L 212.097794 190.168528 
L 212.351684 188.587841 
L 212.605574 186.281481 
L 212.859465 189.919921 
L 213.113355 188.990426 
L 213.367245 191.984296 
L 213.621135 191.09044 
L 213.875026 177.808238 
L 214.382806 186.253857 
L 214.636696 180.852115 
L 214.890587 189.774432 
L 215.144477 185.477692 
L 215.398367 192.699852 
L 215.652257 179.295072 
L 215.906148 186.775525 
L 216.160038 190.155433 
L 216.413928 188.952382 
L 216.921709 183.006558 
L 217.175599 187.15274 
L 217.429489 185.230973 
L 217.683379 191.336933 
L 217.93727 189.691128 
L 218.19116 186.215889 
L 218.69894 193.063227 
L 219.206721 183.8071 
L 219.460611 184.609249 
L 219.714501 187.125838 
L 219.968392 183.547512 
L 220.476172 189.237933 
L 220.730062 165.957007 
L 220.983953 186.945908 
L 221.237843 180.129699 
L 221.491733 187.1718 
L 221.745623 174.55506 
L 221.999514 188.384278 
L 222.253404 187.628274 
L 222.507294 188.429992 
L 222.761184 186.972001 
L 223.015075 183.105006 
L 223.268965 190.270795 
L 223.522855 184.58444 
L 223.776745 182.559565 
L 224.030636 177.828161 
L 224.284526 178.363215 
L 224.538416 185.590552 
L 224.792307 186.070454 
L 225.046197 192.594209 
L 225.300087 190.827584 
L 225.553977 174.911511 
L 225.807868 188.103484 
L 226.061758 182.218625 
L 226.315648 185.219593 
L 226.569538 153.417758 
L 226.823429 187.91746 
L 227.077319 191.718398 
L 227.331209 177.436147 
L 227.585099 189.798238 
L 227.83899 188.082364 
L 228.09288 181.701984 
L 228.34677 183.06639 
L 228.60066 188.782354 
L 228.854551 184.468895 
L 229.108441 190.800272 
L 229.362331 190.248748 
L 229.616221 166.591696 
L 229.870112 189.264565 
L 230.124002 185.312368 
L 230.377892 189.27272 
L 230.631782 178.945309 
L 230.885673 187.845525 
L 231.139563 185.499718 
L 231.393453 188.643133 
L 231.647343 186.531804 
L 231.901234 186.4736 
L 232.155124 177.339716 
L 232.409014 189.481201 
L 232.662904 190.614701 
L 232.916795 182.098604 
L 233.424575 190.429519 
L 233.678465 187.320696 
L 233.932356 181.374958 
L 234.186246 181.109103 
L 234.440136 189.034856 
L 234.694026 191.414348 
L 234.947917 186.888406 
L 235.201807 191.292169 
L 235.455697 184.056063 
L 235.709587 185.237563 
L 235.963478 191.268461 
L 236.217368 191.196946 
L 236.471258 190.752844 
L 236.725148 189.924257 
L 236.979039 178.477994 
L 237.232929 186.988105 
L 237.486819 188.147061 
L 237.740709 185.94999 
L 237.9946 191.713329 
L 238.24849 183.010484 
L 238.50238 159.128782 
L 238.75627 184.413118 
L 239.010161 179.142281 
L 239.517941 190.13454 
L 239.771831 182.806533 
L 240.025722 186.701076 
L 240.533502 188.452481 
L 240.787393 188.139619 
L 241.041283 188.638398 
L 241.295173 187.859353 
L 241.549063 190.065506 
L 241.802954 177.363921 
L 242.056844 183.485069 
L 242.310734 182.77221 
L 242.564624 188.291957 
L 242.818515 188.187964 
L 243.072405 187.594134 
L 243.326295 191.8173 
L 243.834076 182.342832 
L 244.087966 187.461061 
L 244.341856 153.258538 
L 244.595746 189.597447 
L 244.849637 189.332401 
L 245.103527 184.123792 
L 245.357417 183.966589 
L 245.611307 189.64534 
L 245.865198 190.300738 
L 246.119088 189.986128 
L 246.372978 143.758377 
L 246.626868 186.218046 
L 246.880759 177.052568 
L 247.134649 191.229845 
L 247.388539 187.617951 
L 247.642429 188.907726 
L 247.89632 185.049889 
L 248.15021 188.61539 
L 248.4041 184.764812 
L 248.65799 188.577896 
L 248.911881 183.777556 
L 249.165771 193.568964 
L 249.419661 189.171553 
L 249.673551 176.742801 
L 249.927442 189.467556 
L 250.181332 190.503169 
L 250.435222 188.647264 
L 250.689112 175.464417 
L 251.196893 190.593463 
L 251.450783 185.957207 
L 251.704673 188.926699 
L 252.212454 176.498088 
L 252.466344 190.805709 
L 252.974125 184.727232 
L 253.228015 183.217175 
L 253.481905 188.374301 
L 253.989686 185.873816 
L 254.243576 174.760446 
L 254.497466 180.366906 
L 254.751356 191.8195 
L 255.005247 181.514547 
L 255.259137 191.067616 
L 255.513027 189.045232 
L 255.766917 191.892007 
L 256.020808 192.754129 
L 256.274698 189.261631 
L 256.782479 185.709192 
L 257.036369 190.279845 
L 257.290259 160.335824 
L 257.544149 186.09495 
L 257.79804 190.836342 
L 258.05193 187.46996 
L 258.30582 192.487552 
L 258.55971 187.452162 
L 258.813601 193.985199 
L 259.067491 185.646728 
L 259.321381 190.514807 
L 259.575271 189.807569 
L 259.829162 190.536877 
L 260.083052 192.897148 
L 260.336942 182.401704 
L 260.590832 187.410473 
L 260.844723 188.858539 
L 261.098613 173.378328 
L 261.352503 180.430179 
L 261.606393 169.869521 
L 261.860284 187.243843 
L 262.114174 185.239343 
L 262.368064 186.933396 
L 262.621954 184.712433 
L 262.875845 186.365789 
L 263.129735 191.062255 
L 263.383625 189.652944 
L 263.637515 186.360935 
L 263.891406 190.210283 
L 264.145296 191.246122 
L 264.399186 191.480189 
L 264.653076 187.64715 
L 264.906967 186.105111 
L 265.160857 182.340901 
L 265.414747 182.271932 
L 265.668637 189.628534 
L 265.922528 186.682135 
L 266.176418 189.024576 
L 266.430308 176.6797 
L 266.684198 185.947283 
L 266.938089 188.834647 
L 267.191979 186.465542 
L 267.445869 188.133805 
L 267.699759 187.673426 
L 267.95365 191.022496 
L 268.20754 191.866303 
L 268.46143 161.940597 
L 268.71532 186.981245 
L 268.969211 189.846346 
L 269.223101 184.122713 
L 269.476991 186.678166 
L 269.730881 187.382072 
L 269.984772 183.962997 
L 270.238662 177.9535 
L 270.492552 185.580844 
L 270.746442 184.681433 
L 271.000333 188.842273 
L 271.254223 188.918405 
L 271.508113 192.880914 
L 271.762003 184.995417 
L 272.015894 181.87309 
L 272.269784 185.369342 
L 272.523674 191.729821 
L 272.777564 181.572999 
L 273.031455 154.474113 
L 273.285345 189.930632 
L 273.539235 183.765701 
L 273.793126 191.253424 
L 274.047016 191.081261 
L 274.300906 189.078584 
L 274.554796 189.612764 
L 274.808687 179.657531 
L 275.062577 184.855031 
L 275.316467 183.658149 
L 275.570357 191.337386 
L 275.824248 187.96039 
L 276.078138 186.84554 
L 276.332028 183.690336 
L 276.585918 186.206828 
L 277.093699 177.61269 
L 277.347589 154.166859 
L 277.601479 178.907858 
L 278.10926 191.669859 
L 278.36315 183.499415 
L 278.61704 185.851563 
L 278.870931 178.347057 
L 279.124821 181.956718 
L 279.378711 182.786912 
L 279.632601 190.028433 
L 279.886492 172.485507 
L 280.140382 190.644278 
L 280.394272 191.554584 
L 280.648162 192.956721 
L 280.902053 177.300215 
L 281.155943 181.053952 
L 281.409833 192.36657 
L 281.663723 186.858182 
L 281.917614 189.884983 
L 282.171504 170.344407 
L 282.425394 187.258965 
L 282.679284 182.877303 
L 282.933175 183.601444 
L 283.187065 181.770187 
L 283.440955 176.987428 
L 283.694845 192.021078 
L 283.948736 186.104831 
L 284.202626 186.32754 
L 284.456516 168.397519 
L 284.710406 186.766842 
L 284.964297 180.980744 
L 285.218187 188.778115 
L 285.472077 191.585821 
L 285.725967 181.592069 
L 286.233748 189.228732 
L 286.487638 189.937977 
L 286.741528 189.634898 
L 286.995419 186.648837 
L 287.249309 169.952275 
L 287.503199 187.279697 
L 288.01098 192.143494 
L 288.26487 159.461837 
L 288.51876 188.063941 
L 288.77265 173.346184 
L 289.026541 187.277184 
L 289.280431 179.744254 
L 289.534321 192.261024 
L 289.788212 180.718783 
L 290.042102 189.949735 
L 290.295992 183.287881 
L 290.549882 188.053262 
L 290.803773 181.804963 
L 291.057663 188.101521 
L 291.311553 187.346476 
L 291.565443 189.609528 
L 291.819334 186.780681 
L 292.073224 188.500287 
L 292.327114 186.84746 
L 292.581004 189.219952 
L 292.834895 187.587911 
L 293.088785 182.309199 
L 293.342675 189.082823 
L 293.596565 169.840958 
L 293.850456 184.252992 
L 294.104346 189.931333 
L 294.358236 175.538218 
L 294.612126 188.468133 
L 294.866017 188.083087 
L 295.119907 188.616361 
L 295.373797 188.121476 
L 295.627687 160.66217 
L 295.881578 187.521164 
L 296.135468 188.229524 
L 296.389358 190.352891 
L 296.643248 187.326985 
L 296.897139 190.07228 
L 297.151029 187.912822 
L 297.404919 189.610898 
L 297.658809 188.43353 
L 297.9127 180.396536 
L 298.16659 189.2021 
L 298.42048 190.57066 
L 298.67437 182.187096 
L 298.928261 186.687895 
L 299.436041 188.289562 
L 299.943822 179.346448 
L 300.197712 189.445034 
L 300.451602 186.906419 
L 300.705492 187.38465 
L 300.959383 177.720134 
L 301.213273 187.65634 
L 301.467163 186.415633 
L 301.721053 192.142739 
L 301.974944 193.012542 
L 302.228834 183.803486 
L 302.482724 189.637379 
L 302.736614 187.000348 
L 302.990505 187.810242 
L 303.244395 188.000009 
L 303.498285 192.976256 
L 303.752175 179.974234 
L 304.006066 190.644774 
L 304.259956 183.200672 
L 304.513846 190.741001 
L 304.767736 183.817164 
L 305.021627 171.897643 
L 305.275517 189.794636 
L 305.529407 179.229458 
L 305.783298 189.886547 
L 306.037188 183.363235 
L 306.291078 192.281033 
L 306.544968 181.271678 
L 306.798859 180.767452 
L 307.052749 194.328803 
L 307.306639 186.993434 
L 307.560529 184.015506 
L 307.81442 186.806396 
L 308.06831 191.817807 
L 308.3222 187.387055 
L 308.57609 179.694496 
L 308.829981 189.322985 
L 309.083871 187.414108 
L 309.337761 179.449006 
L 309.591651 188.868204 
L 309.845542 174.425051 
L 310.099432 183.537847 
L 310.099432 183.537847 
" clip-path="url(#pca33d1da6c)" style="fill: none; stroke: #ff0000; stroke-width: 0.6; stroke-linecap: square"/>
   </g>
   <g id="patch_3">
    <path d="M 43.78125 239.76 
L 43.78125 37.296 
" style="fill: none; stroke: #000000; stroke-width: 0.8; stroke-linejoin: miter; stroke-linecap: square"/>
   </g>
   <g id="patch_4">
    <path d="M 322.78125 239.76 
L 322.78125 37.296 
" style="fill: none; stroke: #000000; stroke-width: 0.8; stroke-linejoin: miter; stroke-linecap: square"/>
   </g>
   <g id="patch_5">
    <path d="M 43.78125 239.76 
L 322.78125 239.76 
" style="fill: none; stroke: #000000; stroke-width: 0.8; stroke-linejoin: miter; stroke-linecap: square"/>
   </g>
   <g id="patch_6">
    <path d="M 43.78125 37.296 
L 322.78125 37.296 
" style="fill: none; stroke: #000000; stroke-width: 0.8; stroke-linejoin: miter; stroke-linecap: square"/>
   </g>
   <g id="text_14">
    <!-- Baseline Model -->
    <g transform="translate(149.259844 31.296) scale(0.09 -0.09)">
     <defs>
      <path id="DejaVuSans-42" d="M 1259 2228 
L 1259 519 
L 2272 519 
Q 2781 519 3026 730 
Q 3272 941 3272 1375 
Q 3272 1813 3026 2020 
Q 2781 2228 2272 2228 
L 1259 2228 
z
M 1259 4147 
L 1259 2741 
L 2194 2741 
Q 2656 2741 2882 2914 
Q 3109 3088 3109 3444 
Q 3109 3797 2882 3972 
Q 2656 4147 2194 4147 
L 1259 4147 
z
M 628 4666 
L 2241 4666 
Q 2963 4666 3353 4366 
Q 3744 4066 3744 3513 
Q 3744 3084 3544 2831 
Q 3344 2578 2956 2516 
Q 3422 2416 3680 2098 
Q 3938 1781 3938 1306 
Q 3938 681 3513 340 
Q 3088 0 2303 0 
L 628 0 
L 628 4666 
z
" transform="scale(0.015625)"/>
      <path id="DejaVuSans-61" d="M 2194 1759 
Q 1497 1759 1228 1600 
Q 959 1441 959 1056 
Q 959 750 1161 570 
Q 1363 391 1709 391 
Q 2188 391 2477 730 
Q 2766 1069 2766 1631 
L 2766 1759 
L 2194 1759 
z
M 3341 1997 
L 3341 0 
L 2766 0 
L 2766 531 
Q 2569 213 2275 61 
Q 1981 -91 1556 -91 
Q 1019 -91 701 211 
Q 384 513 384 1019 
Q 384 1609 779 1909 
Q 1175 2209 1959 2209 
L 2766 2209 
L 2766 2266 
Q 2766 2663 2505 2880 
Q 2244 3097 1772 3097 
Q 1472 3097 1187 3025 
Q 903 2953 641 2809 
L 641 3341 
Q 956 3463 1253 3523 
Q 1550 3584 1831 3584 
Q 2591 3584 2966 3190 
Q 3341 2797 3341 1997 
z
" transform="scale(0.015625)"/>
      <path id="DejaVuSans-65" d="M 3597 1894 
L 3597 1613 
L 953 1613 
Q 991 1019 1311 708 
Q 1631 397 2203 397 
Q 2534 397 2845 478 
Q 3156 559 3463 722 
L 3463 178 
Q 3153 47 2828 -22 
Q 2503 -91 2169 -91 
Q 1331 -91 842 396 
Q 353 884 353 1716 
Q 353 2575 817 3079 
Q 1281 3584 2069 3584 
Q 2775 3584 3186 3129 
Q 3597 2675 3597 1894 
z
M 3022 2063 
Q 3016 2534 2758 2815 
Q 2500 3097 2075 3097 
Q 1594 3097 1305 2825 
Q 1016 2553 972 2059 
L 3022 2063 
z
" transform="scale(0.015625)"/>
      <path id="DejaVuSans-6c" d="M 603 4863 
L 1178 4863 
L 1178 0 
L 603 0 
L 603 4863 
z
" transform="scale(0.015625)"/>
      <path id="DejaVuSans-69" d="M 603 3500 
L 1178 3500 
L 1178 0 
L 603 0 
L 603 3500 
z
M 603 4863 
L 1178 4863 
L 1178 4134 
L 603 4134 
L 603 4863 
z
" transform="scale(0.015625)"/>
      <path id="DejaVuSans-6e" d="M 3513 2113 
L 3513 0 
L 2938 0 
L 2938 2094 
Q 2938 2591 2744 2837 
Q 2550 3084 2163 3084 
Q 1697 3084 1428 2787 
Q 1159 2491 1159 1978 
L 1159 0 
L 581 0 
L 581 3500 
L 1159 3500 
L 1159 2956 
Q 1366 3272 1645 3428 
Q 1925 3584 2291 3584 
Q 2894 3584 3203 3211 
Q 3513 2838 3513 2113 
z
" transform="scale(0.015625)"/>
      <path id="DejaVuSans-20" transform="scale(0.015625)"/>
      <path id="DejaVuSans-4d" d="M 628 4666 
L 1569 4666 
L 2759 1491 
L 3956 4666 
L 4897 4666 
L 4897 0 
L 4281 0 
L 4281 4097 
L 3078 897 
L 2444 897 
L 1241 4097 
L 1241 0 
L 628 0 
L 628 4666 
z
" transform="scale(0.015625)"/>
      <path id="DejaVuSans-64" d="M 2906 2969 
L 2906 4863 
L 3481 4863 
L 3481 0 
L 2906 0 
L 2906 525 
Q 2725 213 2448 61 
Q 2172 -91 1784 -91 
Q 1150 -91 751 415 
Q 353 922 353 1747 
Q 353 2572 751 3078 
Q 1150 3584 1784 3584 
Q 2172 3584 2448 3432 
Q 2725 3281 2906 2969 
z
M 947 1747 
Q 947 1113 1208 752 
Q 1469 391 1925 391 
Q 2381 391 2643 752 
Q 2906 1113 2906 1747 
Q 2906 2381 2643 2742 
Q 2381 3103 1925 3103 
Q 1469 3103 1208 2742 
Q 947 2381 947 1747 
z
" transform="scale(0.015625)"/>
     </defs>
     <use xlink:href="#DejaVuSans-42"/>
     <use xlink:href="#DejaVuSans-61" x="68.603516"/>
     <use xlink:href="#DejaVuSans-73" x="129.882812"/>
     <use xlink:href="#DejaVuSans-65" x="181.982422"/>
     <use xlink:href="#DejaVuSans-6c" x="243.505859"/>
     <use xlink:href="#DejaVuSans-69" x="271.289062"/>
     <use xlink:href="#DejaVuSans-6e" x="299.072266"/>
     <use xlink:href="#DejaVuSans-65" x="362.451172"/>
     <use xlink:href="#DejaVuSans-20" x="423.974609"/>
     <use xlink:href="#DejaVuSans-4d" x="455.761719"/>
     <use xlink:href="#DejaVuSans-6f" x="542.041016"/>
     <use xlink:href="#DejaVuSans-64" x="603.222656"/>
     <use xlink:href="#DejaVuSans-65" x="666.699219"/>
     <use xlink:href="#DejaVuSans-6c" x="728.222656"/>
    </g>
   </g>
   <g id="legend_1">
    <g id="patch_7">
     <path d="M 209.2875 74.65225 
L 315.78125 74.65225 
Q 317.78125 74.65225 317.78125 72.65225 
L 317.78125 44.296 
Q 317.78125 42.296 315.78125 42.296 
L 209.2875 42.296 
Q 207.2875 42.296 207.2875 44.296 
L 207.2875 72.65225 
Q 207.2875 74.65225 209.2875 74.65225 
z
" style="fill: #ffffff; opacity: 0.8; stroke: #cccccc; stroke-linejoin: miter"/>
    </g>
    <g id="line2d_25">
     <path d="M 211.2875 50.394438 
L 221.2875 50.394438 
L 231.2875 50.394438 
" style="fill: none; stroke: #0000ff; stroke-width: 0.6; stroke-linecap: square"/>
    </g>
    <g id="text_15">
     <!-- Training Loss -->
     <g transform="translate(239.2875 53.894438) scale(0.1 -0.1)">
      <defs>
       <path id="DejaVuSans-54" d="M -19 4666 
L 3928 4666 
L 3928 4134 
L 2272 4134 
L 2272 0 
L 1638 0 
L 1638 4134 
L -19 4134 
L -19 4666 
z
" transform="scale(0.015625)"/>
       <path id="DejaVuSans-72" d="M 2631 2963 
Q 2534 3019 2420 3045 
Q 2306 3072 2169 3072 
Q 1681 3072 1420 2755 
Q 1159 2438 1159 1844 
L 1159 0 
L 581 0 
L 581 3500 
L 1159 3500 
L 1159 2956 
Q 1341 3275 1631 3429 
Q 1922 3584 2338 3584 
Q 2397 3584 2469 3576 
Q 2541 3569 2628 3553 
L 2631 2963 
z
" transform="scale(0.015625)"/>
       <path id="DejaVuSans-67" d="M 2906 1791 
Q 2906 2416 2648 2759 
Q 2391 3103 1925 3103 
Q 1463 3103 1205 2759 
Q 947 2416 947 1791 
Q 947 1169 1205 825 
Q 1463 481 1925 481 
Q 2391 481 2648 825 
Q 2906 1169 2906 1791 
z
M 3481 434 
Q 3481 -459 3084 -895 
Q 2688 -1331 1869 -1331 
Q 1566 -1331 1297 -1286 
Q 1028 -1241 775 -1147 
L 775 -588 
Q 1028 -725 1275 -790 
Q 1522 -856 1778 -856 
Q 2344 -856 2625 -561 
Q 2906 -266 2906 331 
L 2906 616 
Q 2728 306 2450 153 
Q 2172 0 1784 0 
Q 1141 0 747 490 
Q 353 981 353 1791 
Q 353 2603 747 3093 
Q 1141 3584 1784 3584 
Q 2172 3584 2450 3431 
Q 2728 3278 2906 2969 
L 2906 3500 
L 3481 3500 
L 3481 434 
z
" transform="scale(0.015625)"/>
      </defs>
      <use xlink:href="#DejaVuSans-54"/>
      <use xlink:href="#DejaVuSans-72" x="46.333984"/>
      <use xlink:href="#DejaVuSans-61" x="87.447266"/>
      <use xlink:href="#DejaVuSans-69" x="148.726562"/>
      <use xlink:href="#DejaVuSans-6e" x="176.509766"/>
      <use xlink:href="#DejaVuSans-69" x="239.888672"/>
      <use xlink:href="#DejaVuSans-6e" x="267.671875"/>
      <use xlink:href="#DejaVuSans-67" x="331.050781"/>
      <use xlink:href="#DejaVuSans-20" x="394.527344"/>
      <use xlink:href="#DejaVuSans-4c" x="426.314453"/>
      <use xlink:href="#DejaVuSans-6f" x="480.277344"/>
      <use xlink:href="#DejaVuSans-73" x="541.458984"/>
      <use xlink:href="#DejaVuSans-73" x="593.558594"/>
     </g>
    </g>
    <g id="line2d_26">
     <path d="M 211.2875 65.072563 
L 221.2875 65.072563 
L 231.2875 65.072563 
" style="fill: none; stroke: #ff0000; stroke-width: 0.6; stroke-linecap: square"/>
    </g>
    <g id="text_16">
     <!-- Validation Loss -->
     <g transform="translate(239.2875 68.572563) scale(0.1 -0.1)">
      <defs>
       <path id="DejaVuSans-56" d="M 1831 0 
L 50 4666 
L 709 4666 
L 2188 738 
L 3669 4666 
L 4325 4666 
L 2547 0 
L 1831 0 
z
" transform="scale(0.015625)"/>
       <path id="DejaVuSans-74" d="M 1172 4494 
L 1172 3500 
L 2356 3500 
L 2356 3053 
L 1172 3053 
L 1172 1153 
Q 1172 725 1289 603 
Q 1406 481 1766 481 
L 2356 481 
L 2356 0 
L 1766 0 
Q 1100 0 847 248 
Q 594 497 594 1153 
L 594 3053 
L 172 3053 
L 172 3500 
L 594 3500 
L 594 4494 
L 1172 4494 
z
" transform="scale(0.015625)"/>
      </defs>
      <use xlink:href="#DejaVuSans-56"/>
      <use xlink:href="#DejaVuSans-61" x="60.658203"/>
      <use xlink:href="#DejaVuSans-6c" x="121.9375"/>
      <use xlink:href="#DejaVuSans-69" x="149.720703"/>
      <use xlink:href="#DejaVuSans-64" x="177.503906"/>
      <use xlink:href="#DejaVuSans-61" x="240.980469"/>
      <use xlink:href="#DejaVuSans-74" x="302.259766"/>
      <use xlink:href="#DejaVuSans-69" x="341.46875"/>
      <use xlink:href="#DejaVuSans-6f" x="369.251953"/>
      <use xlink:href="#DejaVuSans-6e" x="430.433594"/>
      <use xlink:href="#DejaVuSans-20" x="493.8125"/>
      <use xlink:href="#DejaVuSans-4c" x="525.599609"/>
      <use xlink:href="#DejaVuSans-6f" x="579.5625"/>
      <use xlink:href="#DejaVuSans-73" x="640.744141"/>
      <use xlink:href="#DejaVuSans-73" x="692.84375"/>
     </g>
    </g>
   </g>
  </g>
  <g id="text_17">
   <!-- Training VS. Validation Loss - Dataset Size = 100.0% -->
   <g transform="translate(34.481016 15.558281) scale(0.11 -0.11)">
    <defs>
     <path id="DejaVuSans-53" d="M 3425 4513 
L 3425 3897 
Q 3066 4069 2747 4153 
Q 2428 4238 2131 4238 
Q 1616 4238 1336 4038 
Q 1056 3838 1056 3469 
Q 1056 3159 1242 3001 
Q 1428 2844 1947 2747 
L 2328 2669 
Q 3034 2534 3370 2195 
Q 3706 1856 3706 1288 
Q 3706 609 3251 259 
Q 2797 -91 1919 -91 
Q 1588 -91 1214 -16 
Q 841 59 441 206 
L 441 856 
Q 825 641 1194 531 
Q 1563 422 1919 422 
Q 2459 422 2753 634 
Q 3047 847 3047 1241 
Q 3047 1584 2836 1778 
Q 2625 1972 2144 2069 
L 1759 2144 
Q 1053 2284 737 2584 
Q 422 2884 422 3419 
Q 422 4038 858 4394 
Q 1294 4750 2059 4750 
Q 2388 4750 2728 4690 
Q 3069 4631 3425 4513 
z
" transform="scale(0.015625)"/>
     <path id="DejaVuSans-2d" d="M 313 2009 
L 1997 2009 
L 1997 1497 
L 313 1497 
L 313 2009 
z
" transform="scale(0.015625)"/>
     <path id="DejaVuSans-44" d="M 1259 4147 
L 1259 519 
L 2022 519 
Q 2988 519 3436 956 
Q 3884 1394 3884 2338 
Q 3884 3275 3436 3711 
Q 2988 4147 2022 4147 
L 1259 4147 
z
M 628 4666 
L 1925 4666 
Q 3281 4666 3915 4102 
Q 4550 3538 4550 2338 
Q 4550 1131 3912 565 
Q 3275 0 1925 0 
L 628 0 
L 628 4666 
z
" transform="scale(0.015625)"/>
     <path id="DejaVuSans-7a" d="M 353 3500 
L 3084 3500 
L 3084 2975 
L 922 459 
L 3084 459 
L 3084 0 
L 275 0 
L 275 525 
L 2438 3041 
L 353 3041 
L 353 3500 
z
" transform="scale(0.015625)"/>
     <path id="DejaVuSans-3d" d="M 678 2906 
L 4684 2906 
L 4684 2381 
L 678 2381 
L 678 2906 
z
M 678 1631 
L 4684 1631 
L 4684 1100 
L 678 1100 
L 678 1631 
z
" transform="scale(0.015625)"/>
     <path id="DejaVuSans-25" d="M 4653 2053 
Q 4381 2053 4226 1822 
Q 4072 1591 4072 1178 
Q 4072 772 4226 539 
Q 4381 306 4653 306 
Q 4919 306 5073 539 
Q 5228 772 5228 1178 
Q 5228 1588 5073 1820 
Q 4919 2053 4653 2053 
z
M 4653 2450 
Q 5147 2450 5437 2106 
Q 5728 1763 5728 1178 
Q 5728 594 5436 251 
Q 5144 -91 4653 -91 
Q 4153 -91 3862 251 
Q 3572 594 3572 1178 
Q 3572 1766 3864 2108 
Q 4156 2450 4653 2450 
z
M 1428 4353 
Q 1159 4353 1004 4120 
Q 850 3888 850 3481 
Q 850 3069 1003 2837 
Q 1156 2606 1428 2606 
Q 1700 2606 1854 2837 
Q 2009 3069 2009 3481 
Q 2009 3884 1853 4118 
Q 1697 4353 1428 4353 
z
M 4250 4750 
L 4750 4750 
L 1831 -91 
L 1331 -91 
L 4250 4750 
z
M 1428 4750 
Q 1922 4750 2215 4408 
Q 2509 4066 2509 3481 
Q 2509 2891 2217 2550 
Q 1925 2209 1428 2209 
Q 931 2209 642 2551 
Q 353 2894 353 3481 
Q 353 4063 643 4406 
Q 934 4750 1428 4750 
z
" transform="scale(0.015625)"/>
    </defs>
    <use xlink:href="#DejaVuSans-54"/>
    <use xlink:href="#DejaVuSans-72" x="46.333984"/>
    <use xlink:href="#DejaVuSans-61" x="87.447266"/>
    <use xlink:href="#DejaVuSans-69" x="148.726562"/>
    <use xlink:href="#DejaVuSans-6e" x="176.509766"/>
    <use xlink:href="#DejaVuSans-69" x="239.888672"/>
    <use xlink:href="#DejaVuSans-6e" x="267.671875"/>
    <use xlink:href="#DejaVuSans-67" x="331.050781"/>
    <use xlink:href="#DejaVuSans-20" x="394.527344"/>
    <use xlink:href="#DejaVuSans-56" x="426.314453"/>
    <use xlink:href="#DejaVuSans-53" x="494.722656"/>
    <use xlink:href="#DejaVuSans-2e" x="558.199219"/>
    <use xlink:href="#DejaVuSans-20" x="589.986328"/>
    <use xlink:href="#DejaVuSans-56" x="621.773438"/>
    <use xlink:href="#DejaVuSans-61" x="682.431641"/>
    <use xlink:href="#DejaVuSans-6c" x="743.710938"/>
    <use xlink:href="#DejaVuSans-69" x="771.494141"/>
    <use xlink:href="#DejaVuSans-64" x="799.277344"/>
    <use xlink:href="#DejaVuSans-61" x="862.753906"/>
    <use xlink:href="#DejaVuSans-74" x="924.033203"/>
    <use xlink:href="#DejaVuSans-69" x="963.242188"/>
    <use xlink:href="#DejaVuSans-6f" x="991.025391"/>
    <use xlink:href="#DejaVuSans-6e" x="1052.207031"/>
    <use xlink:href="#DejaVuSans-20" x="1115.585938"/>
    <use xlink:href="#DejaVuSans-4c" x="1147.373047"/>
    <use xlink:href="#DejaVuSans-6f" x="1201.335938"/>
    <use xlink:href="#DejaVuSans-73" x="1262.517578"/>
    <use xlink:href="#DejaVuSans-73" x="1314.617188"/>
    <use xlink:href="#DejaVuSans-20" x="1366.716797"/>
    <use xlink:href="#DejaVuSans-2d" x="1398.503906"/>
    <use xlink:href="#DejaVuSans-20" x="1434.587891"/>
    <use xlink:href="#DejaVuSans-44" x="1466.375"/>
    <use xlink:href="#DejaVuSans-61" x="1543.376953"/>
    <use xlink:href="#DejaVuSans-74" x="1604.65625"/>
    <use xlink:href="#DejaVuSans-61" x="1643.865234"/>
    <use xlink:href="#DejaVuSans-73" x="1705.144531"/>
    <use xlink:href="#DejaVuSans-65" x="1757.244141"/>
    <use xlink:href="#DejaVuSans-74" x="1818.767578"/>
    <use xlink:href="#DejaVuSans-20" x="1857.976562"/>
    <use xlink:href="#DejaVuSans-53" x="1889.763672"/>
    <use xlink:href="#DejaVuSans-69" x="1953.240234"/>
    <use xlink:href="#DejaVuSans-7a" x="1981.023438"/>
    <use xlink:href="#DejaVuSans-65" x="2033.513672"/>
    <use xlink:href="#DejaVuSans-20" x="2095.037109"/>
    <use xlink:href="#DejaVuSans-3d" x="2126.824219"/>
    <use xlink:href="#DejaVuSans-20" x="2210.613281"/>
    <use xlink:href="#DejaVuSans-31" x="2242.400391"/>
    <use xlink:href="#DejaVuSans-30" x="2306.023438"/>
    <use xlink:href="#DejaVuSans-30" x="2369.646484"/>
    <use xlink:href="#DejaVuSans-2e" x="2433.269531"/>
    <use xlink:href="#DejaVuSans-30" x="2465.056641"/>
    <use xlink:href="#DejaVuSans-25" x="2528.679688"/>
   </g>
  </g>
 </g>
 <defs>
  <clipPath id="pca33d1da6c">
   <rect x="43.78125" y="37.296" width="279" height="202.464"/>
  </clipPath>
 </defs>
</svg>
