<?xml version="1.0" encoding="utf-8" standalone="no"?>
<!DOCTYPE svg PUBLIC "-//W3C//DTD SVG 1.1//EN"
  "http://www.w3.org/Graphics/SVG/1.1/DTD/svg11.dtd">
<svg xmlns:xlink="http://www.w3.org/1999/xlink" width="330.281484pt" height="277.31625pt" viewBox="0 0 330.281484 277.31625" xmlns="http://www.w3.org/2000/svg" version="1.1">
 <metadata>
  <rdf:RDF xmlns:dc="http://purl.org/dc/elements/1.1/" xmlns:cc="http://creativecommons.org/ns#" xmlns:rdf="http://www.w3.org/1999/02/22-rdf-syntax-ns#">
   <cc:Work>
    <dc:type rdf:resource="http://purl.org/dc/dcmitype/StillImage"/>
    <dc:date>2026-06-11T17:27:27.841775</dc:date>
    <dc:format>image/svg+xml</dc:format>
    <dc:creator>
     <cc:Agent>
      <dc:title>Matplotlib v3.8.4, https://matplotlib.org/</dc:title>
     </cc:Agent>
    </dc:creator>
   </cc:Work>
  </rdf:RDF>
 </metadata>
 <defs>
  <style type="text/css">*{stroke-linejoin: round; stroke-linecap: butt}</style>
 </defs>
 <g id="figure_1">
  <g id="patch_1">
   <path d="M 0 277.31625 
L 330.281484 277.31625 
L 330.281484 0 
L 0 0 
z
" style="fill: #ffffff"/>
  </g>
  <g id="axes_1">
   <g id="patch_2">
    <path d="M 43.78125 239.76 
L 322.78125 239.76 
L 322.78125 37.296 
L 43.78125 37.296 
z
" style="fill: #ffffff"/>
   </g>
   <g id="matplotlib.axis_1">
    <g id="xtick_1">
     <g id="line2d_1">
      <path d="M 56.209178 239.76 
L 56.209178 37.296 
" clip-path="url(#pf031e180b7)" style="fill: none; stroke-dasharray: 2.96,1.28; stroke-dashoffset: 0; stroke: #b0b0b0; stroke-opacity: 0.4; stroke-width: 0.8"/>
     </g>
     <g id="line2d_2">
      <defs>
       <path id="mba766ee40b" d="M 0 0 
L 0 3.5 
" style="stroke: #000000; stroke-width: 0.8"/>
      </defs>
      <g>
       <use xlink:href="#mba766ee40b" x="56.209178" y="239.76" style="stroke: #000000; stroke-width: 0.8"/>
      </g>
     </g>
     <g id="text_1">
      <!-- 0 -->
      <g transform="translate(53.027928 254.358437) scale(0.1 -0.1)">
       <defs>
        <path id="DejaVuSans-30" d="M 2034 4250 
Q 1547 4250 1301 3770 
Q 1056 3291 1056 2328 
Q 1056 1369 1301 889 
Q 1547 409 2034 409 
Q 2525 409 2770 889 
Q 3016 1369 3016 2328 
Q 3016 3291 2770 3770 
Q 2525 4250 2034 4250 
z
M 2034 4750 
Q 2819 4750 3233 4129 
Q 3647 3509 3647 2328 
Q 3647 1150 3233 529 
Q 2819 -91 2034 -91 
Q 1250 -91 836 529 
Q 422 1150 422 2328 
Q 422 3509 836 4129 
Q 1250 4750 2034 4750 
z
" transform="scale(0.015625)"/>
       </defs>
       <use xlink:href="#DejaVuSans-30"/>
      </g>
     </g>
    </g>
    <g id="xtick_2">
     <g id="line2d_3">
      <path d="M 106.987229 239.76 
L 106.987229 37.296 
" clip-path="url(#pf031e180b7)" style="fill: none; stroke-dasharray: 2.96,1.28; stroke-dashoffset: 0; stroke: #b0b0b0; stroke-opacity: 0.4; stroke-width: 0.8"/>
     </g>
     <g id="line2d_4">
      <g>
       <use xlink:href="#mba766ee40b" x="106.987229" y="239.76" style="stroke: #000000; stroke-width: 0.8"/>
      </g>
     </g>
     <g id="text_2">
      <!-- 200 -->
      <g transform="translate(97.443479 254.358437) scale(0.1 -0.1)">
       <defs>
        <path id="DejaVuSans-32" d="M 1228 531 
L 3431 531 
L 3431 0 
L 469 0 
L 469 531 
Q 828 903 1448 1529 
Q 2069 2156 2228 2338 
Q 2531 2678 2651 2914 
Q 2772 3150 2772 3378 
Q 2772 3750 2511 3984 
Q 2250 4219 1831 4219 
Q 1534 4219 1204 4116 
Q 875 4013 500 3803 
L 500 4441 
Q 881 4594 1212 4672 
Q 1544 4750 1819 4750 
Q 2544 4750 2975 4387 
Q 3406 4025 3406 3419 
Q 3406 3131 3298 2873 
Q 3191 2616 2906 2266 
Q 2828 2175 2409 1742 
Q 1991 1309 1228 531 
z
" transform="scale(0.015625)"/>
       </defs>
       <use xlink:href="#DejaVuSans-32"/>
       <use xlink:href="#DejaVuSans-30" x="63.623047"/>
       <use xlink:href="#DejaVuSans-30" x="127.246094"/>
      </g>
     </g>
    </g>
    <g id="xtick_3">
     <g id="line2d_5">
      <path d="M 157.765279 239.76 
L 157.765279 37.296 
" clip-path="url(#pf031e180b7)" style="fill: none; stroke-dasharray: 2.96,1.28; stroke-dashoffset: 0; stroke: #b0b0b0; stroke-opacity: 0.4; stroke-width: 0.8"/>
     </g>
     <g id="line2d_6">
      <g>
       <use xlink:href="#mba766ee40b" x="157.765279" y="239.76" style="stroke: #000000; stroke-width: 0.8"/>
      </g>
     </g>
     <g id="text_3">
      <!-- 400 -->
      <g transform="translate(148.221529 254.358437) scale(0.1 -0.1)">
       <defs>
        <path id="DejaVuSans-34" d="M 2419 4116 
L 825 1625 
L 2419 1625 
L 2419 4116 
z
M 2253 4666 
L 3047 4666 
L 3047 1625 
L 3713 1625 
L 3713 1100 
L 3047 1100 
L 3047 0 
L 2419 0 
L 2419 1100 
L 313 1100 
L 313 1709 
L 2253 4666 
z
" transform="scale(0.015625)"/>
       </defs>
       <use xlink:href="#DejaVuSans-34"/>
       <use xlink:href="#DejaVuSans-30" x="63.623047"/>
       <use xlink:href="#DejaVuSans-30" x="127.246094"/>
      </g>
     </g>
    </g>
    <g id="xtick_4">
     <g id="line2d_7">
      <path d="M 208.54333 239.76 
L 208.54333 37.296 
" clip-path="url(#pf031e180b7)" style="fill: none; stroke-dasharray: 2.96,1.28; stroke-dashoffset: 0; stroke: #b0b0b0; stroke-opacity: 0.4; stroke-width: 0.8"/>
     </g>
     <g id="line2d_8">
      <g>
       <use xlink:href="#mba766ee40b" x="208.54333" y="239.76" style="stroke: #000000; stroke-width: 0.8"/>
      </g>
     </g>
     <g id="text_4">
      <!-- 600 -->
      <g transform="translate(198.99958 254.358437) scale(0.1 -0.1)">
       <defs>
        <path id="DejaVuSans-36" d="M 2113 2584 
Q 1688 2584 1439 2293 
Q 1191 2003 1191 1497 
Q 1191 994 1439 701 
Q 1688 409 2113 409 
Q 2538 409 2786 701 
Q 3034 994 3034 1497 
Q 3034 2003 2786 2293 
Q 2538 2584 2113 2584 
z
M 3366 4563 
L 3366 3988 
Q 3128 4100 2886 4159 
Q 2644 4219 2406 4219 
Q 1781 4219 1451 3797 
Q 1122 3375 1075 2522 
Q 1259 2794 1537 2939 
Q 1816 3084 2150 3084 
Q 2853 3084 3261 2657 
Q 3669 2231 3669 1497 
Q 3669 778 3244 343 
Q 2819 -91 2113 -91 
Q 1303 -91 875 529 
Q 447 1150 447 2328 
Q 447 3434 972 4092 
Q 1497 4750 2381 4750 
Q 2619 4750 2861 4703 
Q 3103 4656 3366 4563 
z
" transform="scale(0.015625)"/>
       </defs>
       <use xlink:href="#DejaVuSans-36"/>
       <use xlink:href="#DejaVuSans-30" x="63.623047"/>
       <use xlink:href="#DejaVuSans-30" x="127.246094"/>
      </g>
     </g>
    </g>
    <g id="xtick_5">
     <g id="line2d_9">
      <path d="M 259.321381 239.76 
L 259.321381 37.296 
" clip-path="url(#pf031e180b7)" style="fill: none; stroke-dasharray: 2.96,1.28; stroke-dashoffset: 0; stroke: #b0b0b0; stroke-opacity: 0.4; stroke-width: 0.8"/>
     </g>
     <g id="line2d_10">
      <g>
       <use xlink:href="#mba766ee40b" x="259.321381" y="239.76" style="stroke: #000000; stroke-width: 0.8"/>
      </g>
     </g>
     <g id="text_5">
      <!-- 800 -->
      <g transform="translate(249.777631 254.358437) scale(0.1 -0.1)">
       <defs>
        <path id="DejaVuSans-38" d="M 2034 2216 
Q 1584 2216 1326 1975 
Q 1069 1734 1069 1313 
Q 1069 891 1326 650 
Q 1584 409 2034 409 
Q 2484 409 2743 651 
Q 3003 894 3003 1313 
Q 3003 1734 2745 1975 
Q 2488 2216 2034 2216 
z
M 1403 2484 
Q 997 2584 770 2862 
Q 544 3141 544 3541 
Q 544 4100 942 4425 
Q 1341 4750 2034 4750 
Q 2731 4750 3128 4425 
Q 3525 4100 3525 3541 
Q 3525 3141 3298 2862 
Q 3072 2584 2669 2484 
Q 3125 2378 3379 2068 
Q 3634 1759 3634 1313 
Q 3634 634 3220 271 
Q 2806 -91 2034 -91 
Q 1263 -91 848 271 
Q 434 634 434 1313 
Q 434 1759 690 2068 
Q 947 2378 1403 2484 
z
M 1172 3481 
Q 1172 3119 1398 2916 
Q 1625 2713 2034 2713 
Q 2441 2713 2670 2916 
Q 2900 3119 2900 3481 
Q 2900 3844 2670 4047 
Q 2441 4250 2034 4250 
Q 1625 4250 1398 4047 
Q 1172 3844 1172 3481 
z
" transform="scale(0.015625)"/>
       </defs>
       <use xlink:href="#DejaVuSans-38"/>
       <use xlink:href="#DejaVuSans-30" x="63.623047"/>
       <use xlink:href="#DejaVuSans-30" x="127.246094"/>
      </g>
     </g>
    </g>
    <g id="xtick_6">
     <g id="line2d_11">
      <path d="M 310.099432 239.76 
L 310.099432 37.296 
" clip-path="url(#pf031e180b7)" style="fill: none; stroke-dasharray: 2.96,1.28; stroke-dashoffset: 0; stroke: #b0b0b0; stroke-opacity: 0.4; stroke-width: 0.8"/>
     </g>
     <g id="line2d_12">
      <g>
       <use xlink:href="#mba766ee40b" x="310.099432" y="239.76" style="stroke: #000000; stroke-width: 0.8"/>
      </g>
     </g>
     <g id="text_6">
      <!-- 1000 -->
      <g transform="translate(297.374432 254.358437) scale(0.1 -0.1)">
       <defs>
        <path id="DejaVuSans-31" d="M 794 531 
L 1825 531 
L 1825 4091 
L 703 3866 
L 703 4441 
L 1819 4666 
L 2450 4666 
L 2450 531 
L 3481 531 
L 3481 0 
L 794 0 
L 794 531 
z
" transform="scale(0.015625)"/>
       </defs>
       <use xlink:href="#DejaVuSans-31"/>
       <use xlink:href="#DejaVuSans-30" x="63.623047"/>
       <use xlink:href="#DejaVuSans-30" x="127.246094"/>
       <use xlink:href="#DejaVuSans-30" x="190.869141"/>
      </g>
     </g>
    </g>
    <g id="text_7">
     <!-- Epochs -->
     <g transform="translate(165.365625 268.036562) scale(0.1 -0.1)">
      <defs>
       <path id="DejaVuSans-45" d="M 628 4666 
L 3578 4666 
L 3578 4134 
L 1259 4134 
L 1259 2753 
L 3481 2753 
L 3481 2222 
L 1259 2222 
L 1259 531 
L 3634 531 
L 3634 0 
L 628 0 
L 628 4666 
z
" transform="scale(0.015625)"/>
       <path id="DejaVuSans-70" d="M 1159 525 
L 1159 -1331 
L 581 -1331 
L 581 3500 
L 1159 3500 
L 1159 2969 
Q 1341 3281 1617 3432 
Q 1894 3584 2278 3584 
Q 2916 3584 3314 3078 
Q 3713 2572 3713 1747 
Q 3713 922 3314 415 
Q 2916 -91 2278 -91 
Q 1894 -91 1617 61 
Q 1341 213 1159 525 
z
M 3116 1747 
Q 3116 2381 2855 2742 
Q 2594 3103 2138 3103 
Q 1681 3103 1420 2742 
Q 1159 2381 1159 1747 
Q 1159 1113 1420 752 
Q 1681 391 2138 391 
Q 2594 391 2855 752 
Q 3116 1113 3116 1747 
z
" transform="scale(0.015625)"/>
       <path id="DejaVuSans-6f" d="M 1959 3097 
Q 1497 3097 1228 2736 
Q 959 2375 959 1747 
Q 959 1119 1226 758 
Q 1494 397 1959 397 
Q 2419 397 2687 759 
Q 2956 1122 2956 1747 
Q 2956 2369 2687 2733 
Q 2419 3097 1959 3097 
z
M 1959 3584 
Q 2709 3584 3137 3096 
Q 3566 2609 3566 1747 
Q 3566 888 3137 398 
Q 2709 -91 1959 -91 
Q 1206 -91 779 398 
Q 353 888 353 1747 
Q 353 2609 779 3096 
Q 1206 3584 1959 3584 
z
" transform="scale(0.015625)"/>
       <path id="DejaVuSans-63" d="M 3122 3366 
L 3122 2828 
Q 2878 2963 2633 3030 
Q 2388 3097 2138 3097 
Q 1578 3097 1268 2742 
Q 959 2388 959 1747 
Q 959 1106 1268 751 
Q 1578 397 2138 397 
Q 2388 397 2633 464 
Q 2878 531 3122 666 
L 3122 134 
Q 2881 22 2623 -34 
Q 2366 -91 2075 -91 
Q 1284 -91 818 406 
Q 353 903 353 1747 
Q 353 2603 823 3093 
Q 1294 3584 2113 3584 
Q 2378 3584 2631 3529 
Q 2884 3475 3122 3366 
z
" transform="scale(0.015625)"/>
       <path id="DejaVuSans-68" d="M 3513 2113 
L 3513 0 
L 2938 0 
L 2938 2094 
Q 2938 2591 2744 2837 
Q 2550 3084 2163 3084 
Q 1697 3084 1428 2787 
Q 1159 2491 1159 1978 
L 1159 0 
L 581 0 
L 581 4863 
L 1159 4863 
L 1159 2956 
Q 1366 3272 1645 3428 
Q 1925 3584 2291 3584 
Q 2894 3584 3203 3211 
Q 3513 2838 3513 2113 
z
" transform="scale(0.015625)"/>
       <path id="DejaVuSans-73" d="M 2834 3397 
L 2834 2853 
Q 2591 2978 2328 3040 
Q 2066 3103 1784 3103 
Q 1356 3103 1142 2972 
Q 928 2841 928 2578 
Q 928 2378 1081 2264 
Q 1234 2150 1697 2047 
L 1894 2003 
Q 2506 1872 2764 1633 
Q 3022 1394 3022 966 
Q 3022 478 2636 193 
Q 2250 -91 1575 -91 
Q 1294 -91 989 -36 
Q 684 19 347 128 
L 347 722 
Q 666 556 975 473 
Q 1284 391 1588 391 
Q 1994 391 2212 530 
Q 2431 669 2431 922 
Q 2431 1156 2273 1281 
Q 2116 1406 1581 1522 
L 1381 1569 
Q 847 1681 609 1914 
Q 372 2147 372 2553 
Q 372 3047 722 3315 
Q 1072 3584 1716 3584 
Q 2034 3584 2315 3537 
Q 2597 3491 2834 3397 
z
" transform="scale(0.015625)"/>
      </defs>
      <use xlink:href="#DejaVuSans-45"/>
      <use xlink:href="#DejaVuSans-70" x="63.183594"/>
      <use xlink:href="#DejaVuSans-6f" x="126.660156"/>
      <use xlink:href="#DejaVuSans-63" x="187.841797"/>
      <use xlink:href="#DejaVuSans-68" x="242.822266"/>
      <use xlink:href="#DejaVuSans-73" x="306.201172"/>
     </g>
    </g>
   </g>
   <g id="matplotlib.axis_2">
    <g id="ytick_1">
     <g id="line2d_13">
      <path d="M 43.78125 239.665183 
L 322.78125 239.665183 
" clip-path="url(#pf031e180b7)" style="fill: none; stroke-dasharray: 2.96,1.28; stroke-dashoffset: 0; stroke: #b0b0b0; stroke-opacity: 0.4; stroke-width: 0.8"/>
     </g>
     <g id="line2d_14">
      <defs>
       <path id="m9e7ce26939" d="M 0 0 
L -3.5 0 
" style="stroke: #000000; stroke-width: 0.8"/>
      </defs>
      <g>
       <use xlink:href="#m9e7ce26939" x="43.78125" y="239.665183" style="stroke: #000000; stroke-width: 0.8"/>
      </g>
     </g>
     <g id="text_8">
      <!-- 0.3 -->
      <g transform="translate(20.878125 243.464402) scale(0.1 -0.1)">
       <defs>
        <path id="DejaVuSans-2e" d="M 684 794 
L 1344 794 
L 1344 0 
L 684 0 
L 684 794 
z
" transform="scale(0.015625)"/>
        <path id="DejaVuSans-33" d="M 2597 2516 
Q 3050 2419 3304 2112 
Q 3559 1806 3559 1356 
Q 3559 666 3084 287 
Q 2609 -91 1734 -91 
Q 1441 -91 1130 -33 
Q 819 25 488 141 
L 488 750 
Q 750 597 1062 519 
Q 1375 441 1716 441 
Q 2309 441 2620 675 
Q 2931 909 2931 1356 
Q 2931 1769 2642 2001 
Q 2353 2234 1838 2234 
L 1294 2234 
L 1294 2753 
L 1863 2753 
Q 2328 2753 2575 2939 
Q 2822 3125 2822 3475 
Q 2822 3834 2567 4026 
Q 2313 4219 1838 4219 
Q 1578 4219 1281 4162 
Q 984 4106 628 3988 
L 628 4550 
Q 988 4650 1302 4700 
Q 1616 4750 1894 4750 
Q 2613 4750 3031 4423 
Q 3450 4097 3450 3541 
Q 3450 3153 3228 2886 
Q 3006 2619 2597 2516 
z
" transform="scale(0.015625)"/>
       </defs>
       <use xlink:href="#DejaVuSans-30"/>
       <use xlink:href="#DejaVuSans-2e" x="63.623047"/>
       <use xlink:href="#DejaVuSans-33" x="95.410156"/>
      </g>
     </g>
    </g>
    <g id="ytick_2">
     <g id="line2d_15">
      <path d="M 43.78125 201.206334 
L 322.78125 201.206334 
" clip-path="url(#pf031e180b7)" style="fill: none; stroke-dasharray: 2.96,1.28; stroke-dashoffset: 0; stroke: #b0b0b0; stroke-opacity: 0.4; stroke-width: 0.8"/>
     </g>
     <g id="line2d_16">
      <g>
       <use xlink:href="#m9e7ce26939" x="43.78125" y="201.206334" style="stroke: #000000; stroke-width: 0.8"/>
      </g>
     </g>
     <g id="text_9">
      <!-- 0.4 -->
      <g transform="translate(20.878125 205.005553) scale(0.1 -0.1)">
       <use xlink:href="#DejaVuSans-30"/>
       <use xlink:href="#DejaVuSans-2e" x="63.623047"/>
       <use xlink:href="#DejaVuSans-34" x="95.410156"/>
      </g>
     </g>
    </g>
    <g id="ytick_3">
     <g id="line2d_17">
      <path d="M 43.78125 162.747485 
L 322.78125 162.747485 
" clip-path="url(#pf031e180b7)" style="fill: none; stroke-dasharray: 2.96,1.28; stroke-dashoffset: 0; stroke: #b0b0b0; stroke-opacity: 0.4; stroke-width: 0.8"/>
     </g>
     <g id="line2d_18">
      <g>
       <use xlink:href="#m9e7ce26939" x="43.78125" y="162.747485" style="stroke: #000000; stroke-width: 0.8"/>
      </g>
     </g>
     <g id="text_10">
      <!-- 0.5 -->
      <g transform="translate(20.878125 166.546704) scale(0.1 -0.1)">
       <defs>
        <path id="DejaVuSans-35" d="M 691 4666 
L 3169 4666 
L 3169 4134 
L 1269 4134 
L 1269 2991 
Q 1406 3038 1543 3061 
Q 1681 3084 1819 3084 
Q 2600 3084 3056 2656 
Q 3513 2228 3513 1497 
Q 3513 744 3044 326 
Q 2575 -91 1722 -91 
Q 1428 -91 1123 -41 
Q 819 9 494 109 
L 494 744 
Q 775 591 1075 516 
Q 1375 441 1709 441 
Q 2250 441 2565 725 
Q 2881 1009 2881 1497 
Q 2881 1984 2565 2268 
Q 2250 2553 1709 2553 
Q 1456 2553 1204 2497 
Q 953 2441 691 2322 
L 691 4666 
z
" transform="scale(0.015625)"/>
       </defs>
       <use xlink:href="#DejaVuSans-30"/>
       <use xlink:href="#DejaVuSans-2e" x="63.623047"/>
       <use xlink:href="#DejaVuSans-35" x="95.410156"/>
      </g>
     </g>
    </g>
    <g id="ytick_4">
     <g id="line2d_19">
      <path d="M 43.78125 124.288636 
L 322.78125 124.288636 
" clip-path="url(#pf031e180b7)" style="fill: none; stroke-dasharray: 2.96,1.28; stroke-dashoffset: 0; stroke: #b0b0b0; stroke-opacity: 0.4; stroke-width: 0.8"/>
     </g>
     <g id="line2d_20">
      <g>
       <use xlink:href="#m9e7ce26939" x="43.78125" y="124.288636" style="stroke: #000000; stroke-width: 0.8"/>
      </g>
     </g>
     <g id="text_11">
      <!-- 0.6 -->
      <g transform="translate(20.878125 128.087854) scale(0.1 -0.1)">
       <use xlink:href="#DejaVuSans-30"/>
       <use xlink:href="#DejaVuSans-2e" x="63.623047"/>
       <use xlink:href="#DejaVuSans-36" x="95.410156"/>
      </g>
     </g>
    </g>
    <g id="ytick_5">
     <g id="line2d_21">
      <path d="M 43.78125 85.829787 
L 322.78125 85.829787 
" clip-path="url(#pf031e180b7)" style="fill: none; stroke-dasharray: 2.96,1.28; stroke-dashoffset: 0; stroke: #b0b0b0; stroke-opacity: 0.4; stroke-width: 0.8"/>
     </g>
     <g id="line2d_22">
      <g>
       <use xlink:href="#m9e7ce26939" x="43.78125" y="85.829787" style="stroke: #000000; stroke-width: 0.8"/>
      </g>
     </g>
     <g id="text_12">
      <!-- 0.7 -->
      <g transform="translate(20.878125 89.629005) scale(0.1 -0.1)">
       <defs>
        <path id="DejaVuSans-37" d="M 525 4666 
L 3525 4666 
L 3525 4397 
L 1831 0 
L 1172 0 
L 2766 4134 
L 525 4134 
L 525 4666 
z
" transform="scale(0.015625)"/>
       </defs>
       <use xlink:href="#DejaVuSans-30"/>
       <use xlink:href="#DejaVuSans-2e" x="63.623047"/>
       <use xlink:href="#DejaVuSans-37" x="95.410156"/>
      </g>
     </g>
    </g>
    <g id="ytick_6">
     <g id="line2d_23">
      <path d="M 43.78125 47.370937 
L 322.78125 47.370937 
" clip-path="url(#pf031e180b7)" style="fill: none; stroke-dasharray: 2.96,1.28; stroke-dashoffset: 0; stroke: #b0b0b0; stroke-opacity: 0.4; stroke-width: 0.8"/>
     </g>
     <g id="line2d_24">
      <g>
       <use xlink:href="#m9e7ce26939" x="43.78125" y="47.370937" style="stroke: #000000; stroke-width: 0.8"/>
      </g>
     </g>
     <g id="text_13">
      <!-- 0.8 -->
      <g transform="translate(20.878125 51.170156) scale(0.1 -0.1)">
       <use xlink:href="#DejaVuSans-30"/>
       <use xlink:href="#DejaVuSans-2e" x="63.623047"/>
       <use xlink:href="#DejaVuSans-38" x="95.410156"/>
      </g>
     </g>
    </g>
    <g id="text_14">
     <!-- Loss -->
     <g transform="translate(14.798438 149.495187) rotate(-90) scale(0.1 -0.1)">
      <defs>
       <path id="DejaVuSans-4c" d="M 628 4666 
L 1259 4666 
L 1259 531 
L 3531 531 
L 3531 0 
L 628 0 
L 628 4666 
z
" transform="scale(0.015625)"/>
      </defs>
      <use xlink:href="#DejaVuSans-4c"/>
      <use xlink:href="#DejaVuSans-6f" x="53.962891"/>
      <use xlink:href="#DejaVuSans-73" x="115.144531"/>
      <use xlink:href="#DejaVuSans-73" x="167.244141"/>
     </g>
    </g>
   </g>
   <g id="line2d_25">
    <path d="M 56.463068 59.729871 
L 56.716958 84.908551 
L 56.970849 88.381517 
L 57.224739 89.05663 
L 57.478629 88.978828 
L 57.732519 90.465425 
L 57.98641 92.870785 
L 58.2403 97.152163 
L 58.49419 108.450648 
L 58.74808 113.520975 
L 59.001971 122.795657 
L 59.255861 126.574672 
L 59.509751 135.040965 
L 59.763641 121.049799 
L 60.017532 138.194404 
L 60.271422 145.389006 
L 60.525312 143.06484 
L 60.779202 146.515341 
L 61.033093 147.340532 
L 61.286983 149.78633 
L 61.540873 150.331215 
L 62.048654 153.869146 
L 62.302544 155.099231 
L 63.064215 161.392239 
L 63.318105 164.587776 
L 63.571995 157.937016 
L 63.825886 161.476298 
L 64.079776 161.527784 
L 64.333666 165.129131 
L 64.587556 165.09611 
L 64.841447 167.113426 
L 65.095337 166.024594 
L 65.349227 165.966403 
L 65.603117 171.046473 
L 65.857008 167.947386 
L 66.110898 170.590999 
L 66.364788 174.565434 
L 66.618678 171.302193 
L 66.872569 175.123616 
L 67.126459 174.334207 
L 67.380349 176.976354 
L 67.634239 175.820483 
L 67.88813 177.643272 
L 68.14202 178.374065 
L 68.39591 176.095356 
L 68.903691 180.518685 
L 69.157581 180.176613 
L 69.411471 178.421746 
L 69.665361 180.603134 
L 69.919252 180.551018 
L 70.173142 181.872086 
L 70.427032 185.025433 
L 70.934813 183.050021 
L 71.188703 182.619808 
L 71.442593 180.589346 
L 71.950374 188.462076 
L 72.204264 185.588657 
L 72.458154 189.240287 
L 72.712044 190.323617 
L 72.965935 187.822884 
L 73.219825 188.562904 
L 73.473715 187.293311 
L 73.727605 188.558159 
L 73.981496 184.346308 
L 74.235386 185.360261 
L 74.489276 187.489179 
L 74.743166 190.998271 
L 74.997057 189.368015 
L 75.250947 192.372544 
L 75.504837 197.759682 
L 75.758727 191.899901 
L 76.012618 192.062988 
L 76.266508 191.767828 
L 76.520398 191.723724 
L 76.774288 190.77454 
L 77.028179 192.439904 
L 77.282069 192.175977 
L 77.535959 192.848259 
L 77.78985 192.081544 
L 78.04374 193.423713 
L 78.29763 191.965977 
L 78.55152 194.923673 
L 78.805411 196.505642 
L 79.059301 195.841922 
L 79.313191 192.297688 
L 79.567081 191.602517 
L 79.820972 193.575236 
L 80.074862 197.34798 
L 80.328752 194.156122 
L 80.582642 196.74229 
L 80.836533 194.969084 
L 81.344313 200.594132 
L 81.598203 201.592864 
L 81.852094 200.749219 
L 82.105984 201.193793 
L 82.359874 203.372339 
L 82.613764 201.971155 
L 82.867655 203.289896 
L 83.121545 199.457665 
L 83.375435 202.274418 
L 83.629325 202.624605 
L 83.883216 201.6133 
L 84.137106 203.441968 
L 84.390996 206.385739 
L 84.898777 200.180138 
L 85.152667 204.490066 
L 85.406557 205.844063 
L 85.660447 200.862735 
L 85.914338 203.028444 
L 86.168228 203.541708 
L 86.422118 201.902087 
L 86.676008 203.582408 
L 86.929899 201.168887 
L 87.183789 202.93031 
L 87.437679 203.570052 
L 87.691569 204.797707 
L 87.94546 203.198959 
L 88.19935 205.775304 
L 88.45324 205.65043 
L 88.70713 207.519913 
L 88.961021 205.467399 
L 89.214911 208.060891 
L 89.468801 201.602308 
L 89.976582 206.062991 
L 90.230472 203.77243 
L 90.484362 206.569698 
L 90.738252 206.001156 
L 90.992143 202.520671 
L 91.246033 203.051402 
L 91.499923 207.821962 
L 91.753813 209.117046 
L 92.007704 209.766989 
L 92.261594 205.609363 
L 92.515484 205.960822 
L 92.769374 209.224774 
L 93.023265 205.279967 
L 93.277155 205.891021 
L 93.531045 210.072636 
L 93.784936 206.960483 
L 94.038826 211.825715 
L 94.292716 208.371982 
L 94.546606 210.642646 
L 94.800497 208.808292 
L 95.054387 214.01444 
L 95.562167 208.233686 
L 95.816058 209.746633 
L 96.069948 213.556147 
L 96.323838 209.873296 
L 96.577728 213.275738 
L 96.831619 209.386887 
L 97.339399 213.71285 
L 97.593289 207.707105 
L 97.84718 212.858191 
L 98.10107 207.19971 
L 98.35496 204.787426 
L 98.60885 209.07991 
L 98.862741 208.668758 
L 99.116631 214.546913 
L 99.370521 215.240914 
L 99.624411 208.17804 
L 99.878302 213.894127 
L 100.132192 210.195528 
L 100.386082 212.276662 
L 100.639972 207.972648 
L 100.893863 210.400336 
L 101.147753 209.958696 
L 101.401643 210.591367 
L 101.655533 209.441582 
L 101.909424 210.361549 
L 102.163314 208.871572 
L 102.417204 210.066344 
L 102.671094 208.719969 
L 102.924985 213.932317 
L 103.178875 210.912097 
L 103.432765 214.183613 
L 103.686655 211.884938 
L 103.940546 216.844385 
L 104.194436 213.656241 
L 104.448326 205.74351 
L 104.702216 211.61183 
L 104.956107 214.08055 
L 105.209997 211.745828 
L 105.463887 212.725545 
L 105.717777 211.495426 
L 105.971668 214.209322 
L 106.225558 219.127015 
L 106.479448 211.54094 
L 106.733338 217.744593 
L 106.987229 214.969251 
L 107.241119 216.787788 
L 107.495009 213.668058 
L 108.00279 216.400384 
L 108.51057 214.096047 
L 108.76446 212.847336 
L 109.018351 215.725111 
L 109.272241 216.565042 
L 109.526131 216.292508 
L 109.780021 220.863176 
L 110.033912 216.431468 
L 110.287802 215.499443 
L 110.541692 213.130427 
L 110.795583 217.533791 
L 111.049473 216.965156 
L 111.303363 214.747342 
L 111.557253 215.445837 
L 111.811144 212.936898 
L 112.065034 217.787242 
L 112.318924 215.933403 
L 112.572814 208.604161 
L 112.826705 208.760176 
L 113.080595 219.356946 
L 113.334485 216.105706 
L 113.588375 219.597148 
L 113.842266 218.08239 
L 114.096156 212.267 
L 114.603936 217.524025 
L 114.857827 216.05955 
L 115.111717 217.242849 
L 115.365607 216.629846 
L 115.619497 218.24393 
L 115.873388 218.513302 
L 116.127278 211.664542 
L 116.381168 218.909014 
L 116.635058 213.493153 
L 117.142839 221.032304 
L 117.396729 211.890153 
L 117.650619 217.819254 
L 117.90451 217.09614 
L 118.41229 219.485007 
L 118.66618 214.390049 
L 118.920071 216.897498 
L 119.173961 217.51708 
L 119.427851 217.305853 
L 119.681741 222.506832 
L 119.935632 222.199373 
L 120.189522 218.353446 
L 120.443412 218.723462 
L 120.697302 222.226824 
L 120.951193 218.487971 
L 121.458973 221.550599 
L 121.712863 220.74111 
L 121.966754 218.186129 
L 122.220644 218.460544 
L 122.474534 220.996785 
L 122.728424 215.608202 
L 122.982315 222.744867 
L 123.236205 218.000233 
L 123.490095 219.199188 
L 123.743985 219.494325 
L 123.997876 220.779862 
L 124.251766 221.300518 
L 124.759546 215.94224 
L 125.013437 219.247843 
L 125.267327 218.907742 
L 125.521217 216.289654 
L 125.775107 218.690567 
L 126.282888 212.6238 
L 126.536778 218.62825 
L 126.790669 217.410085 
L 127.044559 221.231874 
L 127.298449 213.174085 
L 127.80623 220.06265 
L 128.06012 217.605907 
L 128.31401 217.96453 
L 128.5679 216.595691 
L 128.821791 219.697953 
L 129.075681 219.225023 
L 129.329571 219.3598 
L 129.583461 216.340394 
L 129.837352 214.960804 
L 130.091242 215.388483 
L 130.599022 219.080813 
L 130.852913 220.465893 
L 131.106803 223.132178 
L 131.360693 222.647867 
L 131.614583 218.931685 
L 131.868474 221.242488 
L 132.122364 222.227408 
L 132.376254 224.551426 
L 132.630144 220.006213 
L 132.884035 220.314497 
L 133.137925 219.660015 
L 133.391815 221.170085 
L 133.645705 219.964229 
L 133.899596 221.08889 
L 134.153486 223.422272 
L 134.407376 219.867172 
L 134.661266 221.375832 
L 134.915157 220.745408 
L 135.169047 221.424968 
L 135.422937 217.66294 
L 135.676827 218.652136 
L 135.930718 220.642597 
L 136.184608 219.135496 
L 136.438498 214.450532 
L 136.692388 222.286906 
L 136.946279 217.376583 
L 137.200169 221.406996 
L 137.707949 218.409826 
L 137.96184 221.085188 
L 138.21573 222.501261 
L 138.46962 217.942386 
L 138.72351 218.699714 
L 138.977401 220.093241 
L 139.231291 220.336136 
L 139.485181 220.206941 
L 139.992962 223.660685 
L 140.246852 223.744137 
L 140.500742 224.289837 
L 140.754632 217.045949 
L 141.008523 220.641279 
L 141.262413 219.440456 
L 141.516303 219.346952 
L 141.770193 219.984528 
L 142.024084 218.559905 
L 142.277974 218.254956 
L 142.531864 222.720602 
L 142.785755 222.464859 
L 143.039645 226.079788 
L 143.293535 219.69534 
L 143.801316 221.602119 
L 144.055206 218.4653 
L 144.309096 216.783031 
L 144.562986 218.184513 
L 144.816877 224.403708 
L 145.070767 222.931691 
L 145.324657 226.273616 
L 145.578547 218.988787 
L 145.832438 224.503264 
L 146.086328 220.769008 
L 146.340218 224.656552 
L 146.594108 224.059447 
L 146.847999 217.064872 
L 147.101889 219.087873 
L 147.355779 217.96782 
L 147.609669 220.062054 
L 147.86356 227.211819 
L 148.11745 219.93428 
L 148.37134 223.207343 
L 148.879121 221.280483 
L 149.133011 217.802703 
L 149.386901 222.540185 
L 149.640791 222.530202 
L 149.894682 218.163206 
L 150.148572 226.640709 
L 150.402462 225.788686 
L 150.656352 223.921197 
L 150.910243 225.513297 
L 151.164133 223.333307 
L 151.418023 222.278092 
L 151.671913 220.276788 
L 151.925804 220.279023 
L 152.179694 222.107016 
L 152.687474 218.896407 
L 152.941365 222.204348 
L 153.195255 217.651295 
L 153.449145 220.075361 
L 153.703035 224.2352 
L 153.956926 218.488602 
L 154.210816 219.870198 
L 154.464706 219.562809 
L 154.718596 216.640815 
L 154.972487 219.877774 
L 155.226377 221.246052 
L 155.734157 218.155882 
L 155.988048 224.991426 
L 156.241938 220.044277 
L 156.495828 221.320301 
L 156.749718 224.146934 
L 157.003609 221.417541 
L 157.257499 221.847467 
L 157.511389 225.225851 
L 157.765279 225.097687 
L 158.01917 223.786076 
L 158.27306 218.729594 
L 158.52695 224.268266 
L 158.78084 218.670624 
L 159.034731 220.747976 
L 159.288621 221.211152 
L 159.542511 223.835418 
L 159.796402 220.119087 
L 160.050292 225.66866 
L 160.811963 220.311941 
L 161.065853 223.229694 
L 161.319743 223.486801 
L 161.573633 224.623978 
L 161.827524 220.222529 
L 162.081414 224.937373 
L 162.589194 220.159146 
L 162.843085 223.092452 
L 163.096975 223.675081 
L 163.350865 222.530695 
L 163.858646 216.278009 
L 164.112536 218.972374 
L 164.620316 220.959019 
L 164.874207 224.958004 
L 165.128097 220.875887 
L 165.381987 221.734386 
L 165.635877 218.042572 
L 165.889768 220.553243 
L 166.143658 221.090082 
L 166.397548 219.87586 
L 166.905329 219.831974 
L 167.159219 222.425729 
L 167.413109 223.243253 
L 167.666999 220.105104 
L 167.92089 225.647628 
L 168.17478 224.229583 
L 168.42867 225.511223 
L 168.68256 216.670604 
L 168.936451 222.452882 
L 169.190341 223.147296 
L 169.444231 222.321142 
L 169.698121 221.918965 
L 169.952012 224.811146 
L 170.205902 225.638825 
L 170.459792 228.879693 
L 170.713682 228.802934 
L 170.967573 223.22339 
L 171.221463 221.575872 
L 171.475353 226.458366 
L 171.729243 227.534923 
L 171.983134 221.993098 
L 172.490914 225.814669 
L 172.744804 225.269944 
L 172.998695 225.15613 
L 173.252585 221.335006 
L 173.506475 225.223834 
L 173.760365 224.774515 
L 174.014256 218.073164 
L 174.268146 226.42789 
L 174.522036 224.867549 
L 174.775926 220.733247 
L 175.029817 222.060137 
L 175.283707 224.448157 
L 175.537597 224.939597 
L 175.791488 223.414386 
L 176.045378 220.325477 
L 176.299268 226.848841 
L 176.553158 221.889657 
L 176.807049 222.998066 
L 177.060939 227.207063 
L 177.314829 220.609198 
L 177.568719 224.068593 
L 177.82261 223.096842 
L 178.0765 220.001044 
L 178.33039 225.504621 
L 178.58428 226.988237 
L 178.838171 223.933656 
L 179.092061 223.587136 
L 179.345951 228.035876 
L 180.107622 220.116829 
L 180.361512 221.267417 
L 180.615402 226.623471 
L 180.869293 223.057632 
L 181.123183 222.665736 
L 181.377073 223.482102 
L 181.630963 221.650659 
L 181.884854 221.894288 
L 182.138744 219.391664 
L 182.392634 223.644513 
L 182.646524 225.713727 
L 182.900415 224.669698 
L 183.154305 228.035945 
L 183.408195 226.545761 
L 183.662085 226.474642 
L 183.915976 220.872128 
L 184.169866 222.843803 
L 184.423756 228.292926 
L 184.931537 221.829873 
L 185.185427 222.880251 
L 185.693207 228.871876 
L 185.947098 224.473682 
L 186.200988 225.311458 
L 186.454878 223.69193 
L 186.708768 228.179777 
L 187.216549 218.075009 
L 187.724329 228.015108 
L 187.97822 224.880317 
L 188.23211 226.291622 
L 188.486 222.534592 
L 188.73989 221.636378 
L 188.993781 228.181806 
L 189.247671 223.851372 
L 189.501561 225.421513 
L 189.755451 226.056395 
L 190.263232 222.449443 
L 190.517122 221.854378 
L 190.771012 224.987197 
L 191.024903 224.746446 
L 191.278793 222.757073 
L 191.786574 224.63756 
L 192.040464 225.47748 
L 192.548244 222.69102 
L 192.802135 223.621922 
L 193.056025 222.789693 
L 193.309915 224.864237 
L 193.563805 219.198398 
L 193.817696 224.852718 
L 194.071586 221.564239 
L 194.325476 222.040767 
L 194.579366 222.854039 
L 194.833257 227.721209 
L 195.087147 226.78265 
L 195.341037 224.059825 
L 195.594927 224.403766 
L 195.848818 226.128053 
L 196.102708 223.622312 
L 196.356598 228.904989 
L 196.610488 222.802106 
L 196.864379 226.200491 
L 197.118269 222.065868 
L 197.372159 221.491377 
L 197.626049 225.20153 
L 197.87994 226.766902 
L 198.13383 227.278916 
L 198.38772 224.581685 
L 198.64161 219.108412 
L 198.895501 224.335191 
L 199.149391 225.127086 
L 199.403281 219.010301 
L 199.657171 225.546318 
L 199.911062 223.633338 
L 200.164952 223.931191 
L 200.926623 225.670666 
L 201.180513 229.652333 
L 201.434403 225.974639 
L 201.688293 225.0952 
L 201.942184 226.995412 
L 202.196074 227.144551 
L 202.449964 222.961858 
L 202.703854 225.899176 
L 202.957745 223.882433 
L 203.211635 222.858658 
L 203.465525 223.609268 
L 203.719415 225.584359 
L 203.973306 221.555321 
L 204.227196 223.132178 
L 204.481086 219.57513 
L 205.242757 226.858446 
L 205.496647 222.660968 
L 206.004428 228.442592 
L 206.512208 223.267953 
L 206.766098 225.748456 
L 207.019989 224.861062 
L 207.273879 225.557425 
L 207.78166 224.824786 
L 208.03555 219.905362 
L 208.28944 225.329315 
L 208.54333 228.138114 
L 209.051111 219.160402 
L 209.305001 226.021529 
L 209.558891 222.65048 
L 209.812782 226.415832 
L 210.066672 225.751848 
L 210.320562 220.528096 
L 210.574452 225.365454 
L 210.828343 224.658237 
L 211.082233 221.818824 
L 211.336123 225.568932 
L 211.590013 221.593706 
L 211.843904 222.99606 
L 212.097794 223.745054 
L 212.351684 227.697827 
L 212.605574 224.318686 
L 212.859465 226.137177 
L 213.113355 222.778461 
L 213.367245 222.367321 
L 213.621135 218.000875 
L 213.875026 222.351767 
L 214.382806 222.699696 
L 214.636696 227.727272 
L 214.890587 224.012363 
L 215.144477 224.595759 
L 215.398367 219.238124 
L 215.652257 225.849249 
L 215.906148 218.757927 
L 216.413928 224.719992 
L 216.667818 222.644428 
L 216.921709 225.158388 
L 217.175599 226.358822 
L 217.429489 225.715744 
L 217.683379 222.949973 
L 217.93727 227.450015 
L 218.19116 222.45828 
L 218.44505 226.888533 
L 218.69894 224.755787 
L 218.952831 220.982332 
L 219.206721 219.220519 
L 219.460611 227.04158 
L 219.714501 223.506446 
L 219.968392 224.028248 
L 220.222282 225.210183 
L 220.476172 222.150363 
L 220.730062 224.236598 
L 220.983953 228.057424 
L 221.237843 223.139078 
L 221.491733 229.606899 
L 221.745623 226.628869 
L 221.999514 226.135297 
L 222.253404 222.930236 
L 222.507294 227.459677 
L 222.761184 221.626166 
L 223.015075 222.081261 
L 223.268965 223.724343 
L 223.522855 227.970946 
L 223.776745 227.125479 
L 224.030636 223.495546 
L 224.284526 228.300216 
L 224.792307 218.505955 
L 225.046197 225.162927 
L 225.300087 225.018705 
L 225.553977 226.094975 
L 225.807868 227.798575 
L 226.061758 223.622151 
L 226.569538 228.443933 
L 226.823429 224.335901 
L 227.077319 222.043805 
L 227.331209 222.17708 
L 227.585099 226.728391 
L 227.83899 227.115358 
L 228.09288 222.120987 
L 228.34677 226.146977 
L 228.60066 223.318636 
L 228.854551 228.237119 
L 229.108441 223.451682 
L 229.362331 221.384761 
L 229.616221 221.149041 
L 229.870112 225.601242 
L 230.124002 227.53051 
L 230.377892 227.568425 
L 230.631782 224.564893 
L 230.885673 225.954536 
L 231.139563 224.087826 
L 231.393453 220.112612 
L 231.647343 220.788515 
L 231.901234 224.068937 
L 232.155124 224.958807 
L 232.409014 222.782186 
L 232.662904 218.84758 
L 232.916795 224.19043 
L 233.170685 225.359425 
L 233.424575 228.635136 
L 233.678465 230.204818 
L 234.186246 224.74585 
L 234.440136 226.316551 
L 234.694026 221.860866 
L 234.947917 224.27739 
L 235.201807 223.5024 
L 235.455697 226.611918 
L 235.709587 227.625481 
L 235.963478 223.608076 
L 236.217368 224.876707 
L 236.471258 221.09704 
L 236.725148 225.238734 
L 236.979039 223.624593 
L 237.232929 226.367017 
L 237.486819 221.712082 
L 237.740709 223.668686 
L 237.9946 227.483861 
L 238.24849 225.877938 
L 238.50238 226.00295 
L 238.75627 225.161609 
L 239.010161 222.723571 
L 239.264051 224.16369 
L 239.517941 224.899344 
L 239.771831 226.088224 
L 240.025722 227.933134 
L 240.279612 222.889031 
L 240.533502 226.107251 
L 240.787393 222.721405 
L 241.041283 224.246661 
L 241.295173 224.711648 
L 241.549063 223.330843 
L 241.802954 223.926332 
L 242.056844 224.08645 
L 242.310734 225.155672 
L 242.564624 225.112289 
L 243.072405 222.936345 
L 243.326295 220.0828 
L 243.580185 224.120572 
L 243.834076 222.768902 
L 244.087966 222.598616 
L 244.341856 226.246463 
L 244.595746 223.821492 
L 244.849637 219.927999 
L 245.103527 228.860815 
L 245.357417 225.286311 
L 245.611307 224.077717 
L 245.865198 224.792269 
L 246.119088 227.384386 
L 246.372978 221.458448 
L 246.626868 222.523462 
L 246.880759 221.889325 
L 247.134649 222.97489 
L 247.388539 224.597719 
L 247.642429 225.381431 
L 247.89632 225.803953 
L 248.15021 227.943174 
L 248.4041 219.519747 
L 248.65799 225.01012 
L 248.911881 223.109679 
L 249.165771 229.703348 
L 249.673551 224.649572 
L 249.927442 223.907271 
L 250.181332 224.956881 
L 250.435222 223.236376 
L 250.689112 226.772484 
L 250.943003 224.410734 
L 251.196893 227.40881 
L 251.450783 226.554781 
L 251.704673 220.505654 
L 251.958564 222.323778 
L 252.212454 228.530663 
L 252.974125 220.904026 
L 253.228015 222.067702 
L 253.481905 226.637672 
L 253.735795 225.33853 
L 253.989686 228.917275 
L 254.243576 229.224401 
L 254.497466 225.132084 
L 254.751356 230.557091 
L 255.005247 224.798493 
L 255.259137 225.562365 
L 255.513027 224.823766 
L 255.766917 224.64532 
L 256.020808 223.91573 
L 256.274698 226.626967 
L 256.782479 221.339556 
L 257.036369 225.772273 
L 257.290259 225.981597 
L 257.544149 230.163143 
L 257.79804 222.918671 
L 258.05193 224.54824 
L 258.30582 227.820375 
L 258.55971 224.706846 
L 258.813601 227.194042 
L 259.067491 224.221652 
L 259.321381 222.706768 
L 259.575271 227.909443 
L 259.829162 221.470058 
L 260.083052 222.174891 
L 260.336942 226.223517 
L 260.590832 224.650282 
L 260.844723 228.359908 
L 261.098613 225.916758 
L 261.352503 216.915184 
L 261.606393 222.928173 
L 261.860284 219.116928 
L 262.114174 220.75985 
L 262.368064 219.34388 
L 262.621954 226.65303 
L 262.875845 225.024172 
L 263.129735 226.399946 
L 263.383625 225.179947 
L 263.637515 221.824681 
L 263.891406 223.384884 
L 264.145296 223.674634 
L 264.399186 219.866106 
L 264.653076 224.972927 
L 264.906967 224.906014 
L 265.160857 225.59542 
L 265.414747 227.081638 
L 265.668637 222.157378 
L 265.922528 223.498606 
L 266.176418 221.26031 
L 266.430308 225.52759 
L 266.684198 225.772995 
L 266.938089 222.835081 
L 267.191979 222.281267 
L 267.445869 224.894507 
L 267.699759 222.22256 
L 268.20754 225.535957 
L 268.46143 221.046746 
L 268.71532 223.449115 
L 268.969211 223.326625 
L 269.223101 224.115299 
L 269.730881 221.395328 
L 269.984772 226.408474 
L 270.238662 227.634948 
L 270.492552 230.509491 
L 270.746442 224.78969 
L 271.000333 221.982244 
L 271.254223 221.150691 
L 272.015894 228.596877 
L 272.523674 221.077887 
L 272.777564 223.248903 
L 273.031455 224.22642 
L 273.539235 220.682438 
L 273.793126 227.946899 
L 274.047016 224.858884 
L 274.300906 223.273981 
L 274.554796 225.956255 
L 274.808687 224.372968 
L 275.062577 220.548612 
L 275.316467 224.817359 
L 275.570357 223.380494 
L 275.824248 220.889 
L 276.078138 221.574371 
L 276.332028 223.296102 
L 276.585918 221.465783 
L 276.839809 222.492734 
L 277.093699 222.16124 
L 277.347589 225.560657 
L 277.601479 221.777723 
L 277.85537 222.702264 
L 278.10926 221.855249 
L 278.36315 227.178007 
L 278.61704 222.078476 
L 278.870931 220.284399 
L 279.124821 222.681117 
L 279.378711 223.598609 
L 279.632601 218.68808 
L 279.886492 228.132876 
L 280.140382 224.536033 
L 280.394272 222.942752 
L 280.648162 222.544781 
L 280.902053 220.416265 
L 281.155943 224.942669 
L 281.409833 222.529766 
L 281.663723 226.624858 
L 281.917614 224.518623 
L 282.171504 225.784468 
L 282.933175 222.569538 
L 283.187065 229.257778 
L 283.440955 223.867167 
L 283.694845 221.849175 
L 283.948736 223.84649 
L 284.202626 224.124434 
L 284.456516 224.617617 
L 284.964297 219.211716 
L 285.218187 221.559161 
L 285.472077 222.380616 
L 285.725967 222.346139 
L 285.979858 218.358123 
L 286.233748 224.570395 
L 286.487638 221.680139 
L 286.741528 221.1942 
L 286.995419 219.853957 
L 287.249309 225.549585 
L 287.503199 221.657238 
L 287.757089 228.945849 
L 288.51876 222.61966 
L 288.77265 223.236101 
L 289.026541 226.29482 
L 289.280431 226.980398 
L 289.534321 225.296535 
L 289.788212 225.977344 
L 290.042102 224.074542 
L 290.295992 223.138379 
L 290.549882 221.149866 
L 290.803773 223.00814 
L 291.057663 222.84111 
L 291.311553 223.993967 
L 291.565443 228.328239 
L 291.819334 222.479255 
L 292.327114 221.553763 
L 292.581004 225.514398 
L 292.834895 223.503294 
L 293.088785 227.976104 
L 293.342675 224.984458 
L 293.596565 224.194041 
L 293.850456 222.664303 
L 294.104346 224.861635 
L 294.358236 220.586424 
L 294.612126 221.233605 
L 294.866017 220.713052 
L 295.119907 221.623793 
L 295.373797 226.779636 
L 295.627687 226.976409 
L 295.881578 225.906924 
L 296.135468 224.277424 
L 296.389358 227.068652 
L 296.643248 221.459433 
L 296.897139 226.486894 
L 297.151029 221.381804 
L 297.404919 227.63496 
L 297.9127 225.203134 
L 298.16659 225.699537 
L 298.42048 223.794076 
L 298.67437 224.444695 
L 298.928261 223.972637 
L 299.182151 221.935779 
L 299.436041 222.20421 
L 299.689931 225.372182 
L 299.943822 227.03915 
L 300.197712 224.188883 
L 300.959383 226.906252 
L 301.213273 224.662306 
L 301.467163 227.150488 
L 301.721053 224.110669 
L 301.974944 223.717741 
L 302.228834 221.352577 
L 302.482724 227.682445 
L 302.736614 221.881772 
L 302.990505 225.422602 
L 303.244395 221.22141 
L 303.498285 223.906446 
L 303.752175 228.669211 
L 304.006066 218.56959 
L 304.259956 223.281707 
L 304.513846 224.032627 
L 304.767736 222.864446 
L 305.021627 224.242489 
L 305.275517 221.957338 
L 305.529407 225.358004 
L 305.783298 226.87173 
L 306.037188 224.8812 
L 306.291078 224.624677 
L 306.544968 226.655254 
L 306.798859 218.861357 
L 307.052749 219.720704 
L 307.306639 227.041121 
L 307.560529 225.856275 
L 307.81442 226.108213 
L 308.06831 225.665095 
L 308.3222 221.969442 
L 308.57609 221.684803 
L 308.829981 226.753113 
L 309.083871 219.998225 
L 309.337761 222.207981 
L 309.591651 222.25659 
L 309.845542 223.831796 
L 310.099432 224.038254 
L 310.099432 224.038254 
" clip-path="url(#pf031e180b7)" style="fill: none; stroke: #0000ff; stroke-width: 0.6; stroke-linecap: square"/>
   </g>
   <g id="line2d_26">
    <path d="M 56.463068 88.525544 
L 56.716958 90.018398 
L 57.224739 87.575581 
L 57.478629 87.966606 
L 57.98641 92.936896 
L 58.74808 117.064728 
L 59.001971 133.694682 
L 59.255861 90.850467 
L 59.509751 128.318811 
L 59.763641 101.12513 
L 60.017532 139.608723 
L 60.271422 136.946232 
L 60.525312 147.245561 
L 60.779202 128.799924 
L 61.033093 135.055659 
L 61.286983 152.577076 
L 61.540873 151.42924 
L 61.794764 153.401144 
L 62.048654 150.817005 
L 62.302544 152.891377 
L 62.556434 131.429199 
L 62.810325 153.394015 
L 63.064215 148.109791 
L 63.318105 163.232254 
L 63.571995 159.149335 
L 63.825886 148.273807 
L 64.333666 155.619061 
L 64.587556 165.575058 
L 64.841447 161.445123 
L 65.095337 160.807123 
L 65.349227 113.874314 
L 65.603117 154.966207 
L 65.857008 55.390406 
L 66.110898 149.705181 
L 66.364788 139.266593 
L 66.872569 167.930629 
L 67.126459 172.293682 
L 67.380349 160.955138 
L 67.634239 160.213135 
L 67.88813 138.637143 
L 68.14202 142.841155 
L 68.39591 174.121239 
L 68.6498 155.644965 
L 68.903691 173.249937 
L 69.157581 153.850371 
L 69.411471 171.231246 
L 69.665361 163.235085 
L 69.919252 162.774259 
L 70.173142 88.651071 
L 70.427032 158.859906 
L 70.680922 167.65579 
L 70.934813 166.124024 
L 71.188703 155.707752 
L 71.442593 164.950743 
L 71.696483 163.536859 
L 71.950374 166.046509 
L 72.204264 171.512973 
L 72.458154 168.11045 
L 72.712044 155.290479 
L 72.965935 166.500309 
L 73.219825 165.207827 
L 73.473715 171.764819 
L 73.727605 168.694443 
L 73.981496 163.654042 
L 74.235386 167.587135 
L 74.489276 152.398435 
L 74.743166 118.94863 
L 74.997057 162.905025 
L 75.250947 138.933381 
L 75.504837 165.672596 
L 75.758727 166.804249 
L 76.012618 171.191027 
L 76.266508 152.293974 
L 76.520398 164.918627 
L 76.774288 157.86765 
L 77.028179 168.829771 
L 77.282069 167.297236 
L 77.535959 156.122892 
L 77.78985 155.677241 
L 78.04374 165.04678 
L 78.29763 153.881318 
L 78.55152 167.31554 
L 78.805411 162.545393 
L 79.059301 161.626606 
L 79.567081 146.009631 
L 79.820972 172.534021 
L 80.074862 146.002937 
L 80.328752 166.926246 
L 80.582642 144.110851 
L 80.836533 171.326228 
L 81.090423 119.395084 
L 81.598203 168.668116 
L 81.852094 135.403084 
L 82.105984 172.886099 
L 82.359874 137.905112 
L 82.613764 160.503481 
L 82.867655 165.996284 
L 83.121545 154.368689 
L 83.375435 163.228552 
L 83.629325 165.713858 
L 83.883216 158.322608 
L 84.137106 160.459766 
L 84.390996 149.996146 
L 84.644886 165.895238 
L 84.898777 167.387714 
L 85.152667 170.225133 
L 85.406557 154.479088 
L 85.660447 104.634017 
L 85.914338 108.930111 
L 86.168228 160.669445 
L 86.422118 160.191633 
L 86.929899 168.348657 
L 87.183789 160.108032 
L 87.437679 158.338585 
L 87.691569 165.401941 
L 87.94546 169.153058 
L 88.19935 158.786643 
L 88.45324 160.310215 
L 88.70713 160.915985 
L 88.961021 149.505382 
L 89.214911 143.989473 
L 89.468801 160.285114 
L 89.722691 148.693234 
L 89.976582 159.533323 
L 90.230472 123.004282 
L 90.484362 148.757327 
L 90.738252 160.613375 
L 90.992143 161.940449 
L 91.246033 155.856546 
L 91.499923 164.795231 
L 91.753813 145.320443 
L 92.007704 160.735556 
L 92.261594 144.907755 
L 92.515484 145.450005 
L 92.769374 127.358716 
L 93.023265 153.082488 
L 93.277155 163.30781 
L 93.531045 163.146579 
L 93.784936 159.774751 
L 94.038826 159.254989 
L 94.292716 162.597429 
L 94.546606 151.444369 
L 95.054387 163.623543 
L 95.308277 159.536945 
L 95.562167 108.935269 
L 95.816058 162.066893 
L 96.069948 161.286929 
L 96.323838 132.84737 
L 96.577728 159.254415 
L 96.831619 166.647992 
L 97.085509 149.126071 
L 97.339399 162.167733 
L 97.593289 149.295611 
L 97.84718 157.399809 
L 98.10107 135.589588 
L 98.35496 161.535051 
L 98.60885 148.647066 
L 98.862741 151.068932 
L 99.116631 155.725976 
L 99.624411 150.642445 
L 99.878302 98.836908 
L 100.132192 141.724265 
L 100.386082 158.416662 
L 100.639972 154.549279 
L 100.893863 92.464516 
L 101.401643 152.752439 
L 101.655533 130.70895 
L 101.909424 140.7103 
L 102.163314 159.178654 
L 102.417204 137.062797 
L 102.671094 155.954887 
L 102.924985 150.216278 
L 103.178875 161.268591 
L 103.432765 158.185366 
L 103.686655 153.096357 
L 103.940546 133.777206 
L 104.194436 147.452146 
L 104.448326 154.219757 
L 104.702216 110.077695 
L 104.956107 142.728028 
L 105.209997 124.228086 
L 105.717777 158.09443 
L 105.971668 158.088195 
L 106.225558 109.869185 
L 106.479448 146.746407 
L 106.733338 113.317302 
L 106.987229 148.884185 
L 107.241119 156.155695 
L 107.495009 145.961217 
L 107.748899 149.297537 
L 108.00279 142.774792 
L 108.25668 156.028998 
L 108.51057 147.660587 
L 108.76446 156.43231 
L 109.018351 151.310772 
L 109.526131 135.553163 
L 109.780021 158.752144 
L 110.033912 161.805453 
L 110.287802 139.901843 
L 110.541692 143.955638 
L 110.795583 158.818255 
L 111.049473 158.995681 
L 111.303363 156.309739 
L 111.811144 133.602164 
L 112.065034 133.183127 
L 112.318924 152.123425 
L 112.572814 142.466336 
L 112.826705 161.643501 
L 113.080595 152.850528 
L 113.334485 150.759307 
L 113.588375 140.774416 
L 113.842266 144.335453 
L 114.096156 153.422073 
L 114.350046 148.031141 
L 114.603936 153.325658 
L 114.857827 124.627639 
L 115.111717 145.806966 
L 115.365607 143.855073 
L 115.619497 150.268016 
L 115.873388 165.05988 
L 116.127278 159.237796 
L 116.381168 145.447713 
L 116.635058 147.062542 
L 116.888949 138.655115 
L 117.142839 140.794887 
L 117.396729 124.288627 
L 117.650619 155.553593 
L 117.90451 151.199938 
L 118.1584 141.831889 
L 118.41229 155.204357 
L 118.66618 157.573728 
L 118.920071 154.748894 
L 119.173961 154.502217 
L 119.427851 153.541183 
L 119.681741 149.430973 
L 119.935632 156.757316 
L 120.443412 153.213472 
L 120.697302 156.677222 
L 120.951193 154.02954 
L 121.205083 143.108875 
L 121.458973 154.076211 
L 121.712863 146.561967 
L 121.966754 128.529613 
L 122.220644 157.580238 
L 122.474534 149.049759 
L 122.982315 142.782081 
L 123.236205 150.912251 
L 123.490095 144.880225 
L 123.743985 144.410573 
L 123.997876 142.63551 
L 124.251766 120.400177 
L 124.505656 154.07926 
L 124.759546 145.554833 
L 125.013437 142.055643 
L 125.267327 158.40763 
L 125.521217 155.824293 
L 126.028998 148.067864 
L 126.282888 162.797515 
L 126.536778 133.328873 
L 126.790669 151.883854 
L 127.044559 154.967857 
L 127.298449 146.539914 
L 127.552339 145.692464 
L 127.80623 117.085496 
L 128.06012 71.831267 
L 128.31401 149.047719 
L 128.5679 155.122681 
L 128.821791 157.152146 
L 129.075681 119.884724 
L 129.329571 130.493609 
L 129.583461 153.52846 
L 129.837352 152.474609 
L 130.091242 146.910423 
L 130.345132 156.35891 
L 130.852913 146.082733 
L 131.106803 148.492128 
L 131.360693 132.339574 
L 131.614583 144.661789 
L 132.122364 153.216773 
L 132.630144 151.2401 
L 132.884035 147.469407 
L 133.137925 146.090366 
L 133.391815 155.093775 
L 133.645705 149.188055 
L 133.899596 148.131706 
L 134.153486 145.200463 
L 134.407376 146.42837 
L 134.661266 125.259312 
L 134.915157 149.790066 
L 135.169047 156.16232 
L 135.422937 130.451155 
L 135.930718 152.343121 
L 136.438498 142.878405 
L 136.692388 141.180502 
L 136.946279 153.651237 
L 137.454059 136.237055 
L 137.707949 153.445753 
L 137.96184 154.531857 
L 138.21573 137.746139 
L 138.46962 159.542057 
L 138.72351 151.793651 
L 138.977401 152.461245 
L 139.231291 113.990971 
L 139.485181 152.718535 
L 139.739071 146.253809 
L 139.992962 149.580249 
L 140.246852 149.684436 
L 140.500742 144.980583 
L 140.754632 145.3176 
L 141.008523 149.424646 
L 141.262413 137.703387 
L 141.516303 145.172061 
L 141.770193 139.082565 
L 142.024084 154.236835 
L 142.277974 150.802518 
L 142.531864 144.892649 
L 142.785755 126.946303 
L 143.039645 150.120459 
L 143.293535 150.400192 
L 143.547425 148.267297 
L 143.801316 155.790115 
L 144.055206 144.356543 
L 144.309096 151.159685 
L 144.562986 154.196008 
L 144.816877 147.773828 
L 145.070767 146.091421 
L 145.324657 118.641137 
L 145.578547 154.788552 
L 145.832438 143.577656 
L 146.086328 152.482013 
L 146.340218 122.857252 
L 146.594108 144.76664 
L 147.101889 148.769981 
L 147.355779 142.752235 
L 147.609669 143.388539 
L 147.86356 105.71533 
L 148.11745 127.962308 
L 148.62523 152.871457 
L 148.879121 154.339966 
L 149.133011 146.703816 
L 149.386901 109.429677 
L 149.640791 106.462055 
L 149.894682 154.579515 
L 150.148572 153.986008 
L 150.402462 150.63653 
L 150.656352 150.796924 
L 150.910243 151.245051 
L 151.164133 143.408758 
L 151.418023 141.939698 
L 151.671913 137.07976 
L 151.925804 151.507225 
L 152.433584 142.764797 
L 152.687474 137.905433 
L 152.941365 150.900125 
L 153.195255 85.616307 
L 153.449145 144.821977 
L 153.703035 117.907341 
L 153.956926 151.492875 
L 154.210816 151.971696 
L 154.464706 151.732216 
L 154.718596 152.094175 
L 154.972487 138.593956 
L 155.226377 151.215091 
L 155.480267 148.162675 
L 155.734157 152.424797 
L 155.988048 133.108007 
L 156.241938 156.934948 
L 156.495828 158.690022 
L 156.749718 150.859505 
L 157.003609 148.430144 
L 157.257499 140.641255 
L 157.511389 153.621024 
L 158.01917 148.442362 
L 158.52695 147.005325 
L 158.78084 153.735549 
L 159.034731 148.112404 
L 159.288621 146.043099 
L 159.542511 152.25544 
L 159.796402 144.852052 
L 160.050292 152.194418 
L 160.304182 141.734764 
L 160.558072 147.875836 
L 160.811963 148.293819 
L 161.065853 158.314837 
L 161.319743 151.584247 
L 161.573633 139.729849 
L 161.827524 134.793279 
L 162.081414 156.976164 
L 162.335304 146.129267 
L 162.589194 145.433179 
L 162.843085 148.447519 
L 163.096975 106.380219 
L 163.350865 150.254583 
L 163.604755 149.519915 
L 163.858646 154.551021 
L 164.112536 138.593268 
L 164.366426 138.464394 
L 164.620316 157.005575 
L 164.874207 149.381963 
L 165.128097 149.087697 
L 165.381987 149.747406 
L 165.635877 128.199679 
L 165.889768 156.170641 
L 166.143658 150.182191 
L 166.397548 148.266311 
L 166.651438 133.767211 
L 166.905329 138.548109 
L 167.413109 153.26945 
L 167.666999 137.980598 
L 167.92089 152.503859 
L 168.17478 143.396264 
L 168.42867 152.72908 
L 168.68256 148.584623 
L 168.936451 137.474521 
L 169.190341 148.177988 
L 169.444231 115.460077 
L 169.698121 152.967299 
L 169.952012 145.836835 
L 170.205902 153.980713 
L 170.459792 154.998047 
L 170.713682 130.267403 
L 170.967573 145.780513 
L 171.221463 144.285939 
L 171.475353 147.015366 
L 171.729243 146.444989 
L 171.983134 132.941424 
L 172.237024 156.239113 
L 172.490914 157.455238 
L 172.744804 146.444004 
L 173.252585 151.48288 
L 173.506475 144.339006 
L 173.760365 154.071558 
L 174.014256 157.284092 
L 174.268146 142.284784 
L 174.522036 140.526754 
L 174.775926 153.992908 
L 175.029817 145.966099 
L 175.537597 150.906062 
L 175.791488 151.11769 
L 176.045378 149.299371 
L 176.299268 151.366613 
L 176.553158 144.135058 
L 176.807049 126.659213 
L 177.060939 152.704942 
L 177.568719 135.853893 
L 177.82261 156.6794 
L 178.0765 158.021625 
L 178.33039 153.194491 
L 178.58428 132.839622 
L 178.838171 144.394779 
L 179.092061 144.093338 
L 179.345951 153.884688 
L 179.599841 137.939703 
L 179.853732 153.372284 
L 180.107622 146.661775 
L 180.361512 154.736676 
L 180.615402 151.800528 
L 180.869293 53.131663 
L 181.123183 153.381568 
L 181.377073 118.816179 
L 181.630963 148.262162 
L 181.884854 152.427043 
L 182.138744 160.154314 
L 182.392634 144.024843 
L 182.646524 149.331922 
L 182.900415 148.899016 
L 183.154305 154.348333 
L 183.408195 144.230671 
L 183.662085 144.195461 
L 183.915976 135.55738 
L 184.169866 145.239409 
L 184.423756 148.091338 
L 184.677646 143.107271 
L 184.931537 149.570599 
L 185.185427 147.111346 
L 185.439317 130.579892 
L 185.693207 156.289315 
L 185.947098 148.368434 
L 186.200988 150.812558 
L 186.454878 152.064741 
L 186.708768 150.678228 
L 186.962659 129.736454 
L 187.216549 155.773816 
L 187.470439 154.342809 
L 187.724329 154.054916 
L 187.97822 148.27156 
L 188.23211 153.27768 
L 188.486 137.713588 
L 188.73989 150.438405 
L 189.247671 147.923723 
L 189.501561 157.290213 
L 189.755451 137.66334 
L 190.009342 147.290262 
L 190.263232 144.892741 
L 190.517122 144.560193 
L 190.771012 151.978916 
L 191.024903 134.096504 
L 191.278793 153.354862 
L 191.532683 145.607878 
L 191.786574 147.644265 
L 192.040464 119.201932 
L 192.294354 155.725127 
L 192.548244 153.711961 
L 192.802135 136.669938 
L 193.056025 147.311832 
L 193.309915 151.037733 
L 193.563805 148.967327 
L 193.817696 155.648082 
L 194.071586 147.582052 
L 194.325476 149.395946 
L 194.579366 154.745204 
L 194.833257 148.478603 
L 195.087147 147.397267 
L 195.341037 156.016092 
L 195.594927 144.577408 
L 195.848818 151.835623 
L 196.102708 150.925982 
L 196.356598 135.670553 
L 196.610488 151.406431 
L 196.864379 153.34136 
L 197.372159 143.311586 
L 197.626049 145.336283 
L 197.87994 155.263682 
L 198.13383 131.811766 
L 198.38772 153.234286 
L 198.64161 149.945211 
L 198.895501 148.275962 
L 199.149391 154.709168 
L 199.403281 138.773422 
L 199.657171 153.653644 
L 199.911062 137.393671 
L 200.164952 149.616812 
L 200.418842 148.389822 
L 200.672732 148.857708 
L 200.926623 153.454166 
L 201.180513 153.47498 
L 201.434403 150.97529 
L 201.688293 153.994077 
L 201.942184 144.156354 
L 202.196074 145.052951 
L 202.449964 142.72718 
L 202.703854 149.65906 
L 202.957745 123.961833 
L 203.211635 144.053543 
L 203.465525 137.68498 
L 203.973306 155.180837 
L 204.227196 128.080019 
L 204.481086 152.735659 
L 204.734976 136.975482 
L 204.988867 152.156365 
L 205.242757 141.559515 
L 205.496647 142.671087 
L 206.004428 146.690131 
L 206.258318 140.327482 
L 206.512208 152.446895 
L 206.766098 154.147205 
L 207.019989 140.132749 
L 207.273879 155.38772 
L 207.527769 144.881692 
L 207.78166 146.015339 
L 208.03555 148.420906 
L 208.28944 147.098256 
L 208.54333 151.660444 
L 208.797221 133.833643 
L 209.051111 144.324244 
L 209.305001 142.8837 
L 209.558891 145.685977 
L 209.812782 146.758671 
L 210.066672 143.096199 
L 210.320562 135.326153 
L 210.574452 149.908992 
L 210.828343 143.974985 
L 211.082233 150.53968 
L 211.336123 152.227405 
L 211.590013 102.617137 
L 211.843904 128.251416 
L 212.097794 128.587334 
L 212.351684 123.87273 
L 212.605574 157.514998 
L 212.859465 134.106292 
L 213.113355 149.966644 
L 213.367245 68.210973 
L 213.621135 153.634045 
L 213.875026 153.841454 
L 214.128916 132.003954 
L 214.382806 151.746658 
L 214.636696 152.475297 
L 215.144477 147.11146 
L 215.398367 142.178581 
L 215.652257 146.401229 
L 215.906148 153.260831 
L 216.160038 130.618541 
L 216.413928 46.498909 
L 216.667818 138.113645 
L 216.921709 128.178452 
L 217.175599 153.66726 
L 217.429489 140.689119 
L 217.683379 156.081653 
L 217.93727 90.753157 
L 218.19116 153.469089 
L 218.44505 144.210338 
L 218.69894 144.656379 
L 218.952831 128.701698 
L 219.206721 156.816802 
L 219.714501 134.616312 
L 219.968392 154.679414 
L 220.222282 147.487516 
L 220.476172 149.697983 
L 220.730062 140.988566 
L 221.237843 148.29602 
L 221.491733 137.399585 
L 221.745623 108.891714 
L 221.999514 138.737983 
L 222.253404 152.728026 
L 222.507294 125.402857 
L 222.761184 123.763753 
L 223.015075 151.639423 
L 223.268965 144.349505 
L 223.522855 151.316824 
L 223.776745 145.63809 
L 224.030636 151.250094 
L 224.284526 146.294429 
L 224.538416 143.697934 
L 224.792307 151.308296 
L 225.046197 139.36569 
L 225.553977 128.34868 
L 225.807868 150.169836 
L 226.061758 139.889006 
L 226.315648 156.001055 
L 226.569538 140.07285 
L 226.823429 149.19711 
L 227.077319 106.526286 
L 227.331209 135.809926 
L 227.585099 147.66806 
L 227.83899 145.288098 
L 228.09288 140.230081 
L 228.34677 140.132473 
L 228.854551 153.064539 
L 229.108441 162.528476 
L 229.362331 137.567934 
L 229.616221 146.459912 
L 230.124002 150.606593 
L 230.377892 154.667907 
L 230.631782 156.326038 
L 230.885673 119.674403 
L 231.139563 144.686615 
L 231.393453 141.960214 
L 231.647343 142.381291 
L 231.901234 144.687875 
L 232.155124 139.511437 
L 232.409014 155.280462 
L 232.662904 133.573968 
L 232.916795 160.587334 
L 233.170685 146.945358 
L 233.424575 145.211374 
L 233.678465 140.685589 
L 233.932356 126.083885 
L 234.440136 146.841103 
L 234.694026 140.193679 
L 234.947917 147.952033 
L 235.201807 133.04114 
L 235.455697 149.249856 
L 235.709587 145.19629 
L 235.963478 127.630953 
L 236.217368 133.970609 
L 236.471258 150.75094 
L 236.725148 140.310473 
L 237.232929 153.524838 
L 237.740709 139.461647 
L 237.9946 149.748116 
L 238.50238 143.7157 
L 238.75627 154.420037 
L 239.010161 156.397719 
L 239.264051 150.428112 
L 239.517941 151.834225 
L 239.771831 150.987761 
L 240.025722 139.029223 
L 240.279612 133.135469 
L 240.533502 124.421857 
L 240.787393 147.964595 
L 241.041283 145.248349 
L 241.295173 129.503531 
L 241.549063 133.232847 
L 241.802954 148.747883 
L 242.310734 152.216081 
L 242.564624 139.553271 
L 242.818515 137.605436 
L 243.072405 153.418635 
L 243.326295 142.010255 
L 243.580185 147.921339 
L 243.834076 148.544531 
L 244.087966 122.157795 
L 244.341856 152.433301 
L 244.595746 120.530083 
L 244.849637 150.774712 
L 245.103527 146.591217 
L 245.357417 126.024101 
L 245.611307 131.841887 
L 245.865198 148.138949 
L 246.119088 154.061243 
L 246.372978 140.181988 
L 246.626868 103.03936 
L 246.880759 139.754675 
L 247.134649 142.166661 
L 247.388539 139.555953 
L 247.642429 144.987895 
L 247.89632 142.715375 
L 248.15021 142.126935 
L 248.4041 135.867326 
L 248.65799 156.199089 
L 248.911881 148.345694 
L 249.165771 148.699446 
L 249.419661 147.107976 
L 249.673551 158.247236 
L 249.927442 153.06337 
L 250.181332 144.06285 
L 250.435222 148.712054 
L 250.689112 124.8789 
L 250.943003 127.601955 
L 251.450783 155.392213 
L 251.958564 154.241442 
L 252.212454 147.925075 
L 252.466344 147.560664 
L 252.720234 137.773395 
L 252.974125 146.76807 
L 253.228015 149.817322 
L 253.481905 147.305872 
L 253.735795 119.608637 
L 253.989686 154.270601 
L 254.243576 152.197261 
L 254.497466 148.759367 
L 254.751356 147.227612 
L 255.005247 147.101282 
L 255.259137 135.527466 
L 255.513027 149.36633 
L 255.766917 147.168654 
L 256.274698 141.020704 
L 256.528588 143.677418 
L 256.782479 128.782365 
L 257.036369 128.582382 
L 257.290259 146.242141 
L 257.544149 137.077376 
L 257.79804 145.385316 
L 258.05193 140.292845 
L 258.30582 150.106774 
L 258.55971 139.965936 
L 258.813601 153.366393 
L 259.067491 135.026226 
L 259.321381 137.039621 
L 259.575271 130.632043 
L 259.829162 140.6656 
L 260.083052 136.337413 
L 260.336942 129.07278 
L 260.590832 154.191538 
L 260.844723 145.493193 
L 261.098613 153.221609 
L 261.352503 144.855674 
L 261.606393 147.817428 
L 261.860284 143.128429 
L 262.114174 152.714845 
L 262.368064 152.83565 
L 262.621954 149.663369 
L 262.875845 151.108956 
L 263.129735 148.74974 
L 263.383625 132.121321 
L 263.637515 152.014104 
L 263.891406 138.307874 
L 264.145296 153.678034 
L 264.399186 141.924683 
L 264.653076 145.934488 
L 264.906967 158.572724 
L 265.160857 146.594884 
L 265.414747 151.065127 
L 265.668637 152.872626 
L 266.176418 148.737269 
L 266.430308 142.342688 
L 266.684198 153.458154 
L 266.938089 146.818684 
L 267.191979 146.710028 
L 267.445869 147.18768 
L 267.699759 150.375022 
L 267.95365 148.640556 
L 268.20754 145.652624 
L 268.46143 140.101504 
L 268.71532 149.637833 
L 268.969211 146.720229 
L 269.223101 148.572978 
L 269.476991 137.556128 
L 269.730881 148.678632 
L 269.984772 144.233261 
L 270.238662 148.461961 
L 270.492552 147.754251 
L 270.746442 144.295796 
L 271.000333 152.568296 
L 271.254223 139.824293 
L 271.508113 150.134396 
L 271.762003 144.573397 
L 272.015894 151.744366 
L 272.777564 124.535441 
L 273.031455 153.272545 
L 273.285345 152.833404 
L 273.539235 144.48991 
L 274.047016 154.486561 
L 274.300906 152.191644 
L 274.554796 156.934467 
L 274.808687 143.067316 
L 275.062577 139.42795 
L 275.316467 148.31908 
L 275.570357 150.518269 
L 275.824248 150.523198 
L 276.078138 145.356478 
L 276.332028 152.232356 
L 276.585918 127.807439 
L 276.839809 156.696615 
L 277.093699 152.295739 
L 277.347589 153.208589 
L 277.601479 132.49889 
L 278.10926 143.928634 
L 278.36315 137.456871 
L 278.61704 143.877217 
L 278.870931 143.239263 
L 279.124821 148.534788 
L 279.632601 139.455458 
L 279.886492 155.138086 
L 280.140382 151.02226 
L 280.394272 143.813674 
L 280.648162 126.883861 
L 280.902053 126.57348 
L 281.155943 159.55604 
L 281.409833 145.065215 
L 281.663723 152.16675 
L 281.917614 103.380298 
L 282.171504 148.886087 
L 282.425394 142.756545 
L 282.679284 148.586434 
L 282.933175 144.923939 
L 283.187065 150.334746 
L 283.440955 150.543897 
L 283.694845 141.515892 
L 283.948736 154.575251 
L 284.202626 158.204438 
L 284.456516 113.528769 
L 284.710406 152.263165 
L 285.218187 137.151899 
L 285.472077 140.764216 
L 285.725967 149.000818 
L 285.979858 145.585642 
L 286.233748 149.381849 
L 286.487638 139.604505 
L 286.995419 150.26201 
L 287.249309 153.820892 
L 287.503199 132.238115 
L 287.757089 121.739308 
L 288.01098 154.329743 
L 288.26487 150.244795 
L 288.51876 138.421481 
L 288.77265 148.152337 
L 289.026541 145.970753 
L 289.280431 149.907387 
L 289.534321 145.642171 
L 289.788212 143.651584 
L 290.042102 161.061158 
L 290.295992 148.802738 
L 290.549882 147.814104 
L 290.803773 147.605456 
L 291.057663 142.250124 
L 291.311553 128.497039 
L 291.565443 153.456733 
L 291.819334 148.867886 
L 292.073224 148.364033 
L 292.327114 138.294739 
L 292.581004 150.230124 
L 292.834895 151.153106 
L 293.088785 147.517087 
L 293.342675 151.565289 
L 293.596565 150.613126 
L 294.104346 146.972935 
L 294.358236 137.66859 
L 294.612126 144.456259 
L 294.866017 148.246803 
L 295.119907 150.33823 
L 295.373797 151.225864 
L 295.627687 145.52634 
L 295.881578 145.841168 
L 296.135468 143.808379 
L 296.389358 139.331535 
L 296.643248 147.650844 
L 296.897139 148.319631 
L 297.151029 138.609544 
L 297.404919 150.534224 
L 297.658809 142.410587 
L 297.9127 152.757643 
L 298.16659 124.432883 
L 298.42048 146.031133 
L 298.67437 157.644079 
L 298.928261 146.683987 
L 299.436041 151.599147 
L 299.689931 151.875143 
L 299.943822 152.960582 
L 300.197712 148.178698 
L 300.451602 133.936614 
L 300.705492 134.285231 
L 300.959383 140.290713 
L 301.213273 153.143991 
L 301.467163 137.161069 
L 301.721053 151.806671 
L 301.974944 152.233067 
L 302.228834 131.287694 
L 302.482724 146.362855 
L 302.736614 153.43993 
L 302.990505 155.820992 
L 303.244395 146.712779 
L 303.498285 154.457173 
L 303.752175 124.373534 
L 304.006066 144.543963 
L 304.259956 153.345555 
L 304.513846 152.478093 
L 304.767736 126.564517 
L 305.021627 123.916834 
L 305.275517 150.550797 
L 305.529407 152.518874 
L 305.783298 152.913521 
L 306.037188 153.688442 
L 306.291078 157.039341 
L 306.544968 148.114169 
L 306.798859 157.285055 
L 307.052749 142.712509 
L 307.306639 108.058064 
L 307.560529 151.398866 
L 307.81442 127.416184 
L 308.06831 140.654574 
L 308.3222 131.857818 
L 308.57609 144.999586 
L 308.829981 145.492344 
L 309.083871 144.678294 
L 309.337761 141.425735 
L 309.591651 154.715839 
L 309.845542 139.511964 
L 310.099432 149.818216 
L 310.099432 149.818216 
" clip-path="url(#pf031e180b7)" style="fill: none; stroke: #ff0000; stroke-width: 0.6; stroke-linecap: square"/>
   </g>
   <g id="patch_3">
    <path d="M 43.78125 239.76 
L 43.78125 37.296 
" style="fill: none; stroke: #000000; stroke-width: 0.8; stroke-linejoin: miter; stroke-linecap: square"/>
   </g>
   <g id="patch_4">
    <path d="M 322.78125 239.76 
L 322.78125 37.296 
" style="fill: none; stroke: #000000; stroke-width: 0.8; stroke-linejoin: miter; stroke-linecap: square"/>
   </g>
   <g id="patch_5">
    <path d="M 43.78125 239.76 
L 322.78125 239.76 
" style="fill: none; stroke: #000000; stroke-width: 0.8; stroke-linejoin: miter; stroke-linecap: square"/>
   </g>
   <g id="patch_6">
    <path d="M 43.78125 37.296 
L 322.78125 37.296 
" style="fill: none; stroke: #000000; stroke-width: 0.8; stroke-linejoin: miter; stroke-linecap: square"/>
   </g>
   <g id="text_15">
    <!-- Baseline Model -->
    <g transform="translate(149.259844 31.296) scale(0.09 -0.09)">
     <defs>
      <path id="DejaVuSans-42" d="M 1259 2228 
L 1259 519 
L 2272 519 
Q 2781 519 3026 730 
Q 3272 941 3272 1375 
Q 3272 1813 3026 2020 
Q 2781 2228 2272 2228 
L 1259 2228 
z
M 1259 4147 
L 1259 2741 
L 2194 2741 
Q 2656 2741 2882 2914 
Q 3109 3088 3109 3444 
Q 3109 3797 2882 3972 
Q 2656 4147 2194 4147 
L 1259 4147 
z
M 628 4666 
L 2241 4666 
Q 2963 4666 3353 4366 
Q 3744 4066 3744 3513 
Q 3744 3084 3544 2831 
Q 3344 2578 2956 2516 
Q 3422 2416 3680 2098 
Q 3938 1781 3938 1306 
Q 3938 681 3513 340 
Q 3088 0 2303 0 
L 628 0 
L 628 4666 
z
" transform="scale(0.015625)"/>
      <path id="DejaVuSans-61" d="M 2194 1759 
Q 1497 1759 1228 1600 
Q 959 1441 959 1056 
Q 959 750 1161 570 
Q 1363 391 1709 391 
Q 2188 391 2477 730 
Q 2766 1069 2766 1631 
L 2766 1759 
L 2194 1759 
z
M 3341 1997 
L 3341 0 
L 2766 0 
L 2766 531 
Q 2569 213 2275 61 
Q 1981 -91 1556 -91 
Q 1019 -91 701 211 
Q 384 513 384 1019 
Q 384 1609 779 1909 
Q 1175 2209 1959 2209 
L 2766 2209 
L 2766 2266 
Q 2766 2663 2505 2880 
Q 2244 3097 1772 3097 
Q 1472 3097 1187 3025 
Q 903 2953 641 2809 
L 641 3341 
Q 956 3463 1253 3523 
Q 1550 3584 1831 3584 
Q 2591 3584 2966 3190 
Q 3341 2797 3341 1997 
z
" transform="scale(0.015625)"/>
      <path id="DejaVuSans-65" d="M 3597 1894 
L 3597 1613 
L 953 1613 
Q 991 1019 1311 708 
Q 1631 397 2203 397 
Q 2534 397 2845 478 
Q 3156 559 3463 722 
L 3463 178 
Q 3153 47 2828 -22 
Q 2503 -91 2169 -91 
Q 1331 -91 842 396 
Q 353 884 353 1716 
Q 353 2575 817 3079 
Q 1281 3584 2069 3584 
Q 2775 3584 3186 3129 
Q 3597 2675 3597 1894 
z
M 3022 2063 
Q 3016 2534 2758 2815 
Q 2500 3097 2075 3097 
Q 1594 3097 1305 2825 
Q 1016 2553 972 2059 
L 3022 2063 
z
" transform="scale(0.015625)"/>
      <path id="DejaVuSans-6c" d="M 603 4863 
L 1178 4863 
L 1178 0 
L 603 0 
L 603 4863 
z
" transform="scale(0.015625)"/>
      <path id="DejaVuSans-69" d="M 603 3500 
L 1178 3500 
L 1178 0 
L 603 0 
L 603 3500 
z
M 603 4863 
L 1178 4863 
L 1178 4134 
L 603 4134 
L 603 4863 
z
" transform="scale(0.015625)"/>
      <path id="DejaVuSans-6e" d="M 3513 2113 
L 3513 0 
L 2938 0 
L 2938 2094 
Q 2938 2591 2744 2837 
Q 2550 3084 2163 3084 
Q 1697 3084 1428 2787 
Q 1159 2491 1159 1978 
L 1159 0 
L 581 0 
L 581 3500 
L 1159 3500 
L 1159 2956 
Q 1366 3272 1645 3428 
Q 1925 3584 2291 3584 
Q 2894 3584 3203 3211 
Q 3513 2838 3513 2113 
z
" transform="scale(0.015625)"/>
      <path id="DejaVuSans-20" transform="scale(0.015625)"/>
      <path id="DejaVuSans-4d" d="M 628 4666 
L 1569 4666 
L 2759 1491 
L 3956 4666 
L 4897 4666 
L 4897 0 
L 4281 0 
L 4281 4097 
L 3078 897 
L 2444 897 
L 1241 4097 
L 1241 0 
L 628 0 
L 628 4666 
z
" transform="scale(0.015625)"/>
      <path id="DejaVuSans-64" d="M 2906 2969 
L 2906 4863 
L 3481 4863 
L 3481 0 
L 2906 0 
L 2906 525 
Q 2725 213 2448 61 
Q 2172 -91 1784 -91 
Q 1150 -91 751 415 
Q 353 922 353 1747 
Q 353 2572 751 3078 
Q 1150 3584 1784 3584 
Q 2172 3584 2448 3432 
Q 2725 3281 2906 2969 
z
M 947 1747 
Q 947 1113 1208 752 
Q 1469 391 1925 391 
Q 2381 391 2643 752 
Q 2906 1113 2906 1747 
Q 2906 2381 2643 2742 
Q 2381 3103 1925 3103 
Q 1469 3103 1208 2742 
Q 947 2381 947 1747 
z
" transform="scale(0.015625)"/>
     </defs>
     <use xlink:href="#DejaVuSans-42"/>
     <use xlink:href="#DejaVuSans-61" x="68.603516"/>
     <use xlink:href="#DejaVuSans-73" x="129.882812"/>
     <use xlink:href="#DejaVuSans-65" x="181.982422"/>
     <use xlink:href="#DejaVuSans-6c" x="243.505859"/>
     <use xlink:href="#DejaVuSans-69" x="271.289062"/>
     <use xlink:href="#DejaVuSans-6e" x="299.072266"/>
     <use xlink:href="#DejaVuSans-65" x="362.451172"/>
     <use xlink:href="#DejaVuSans-20" x="423.974609"/>
     <use xlink:href="#DejaVuSans-4d" x="455.761719"/>
     <use xlink:href="#DejaVuSans-6f" x="542.041016"/>
     <use xlink:href="#DejaVuSans-64" x="603.222656"/>
     <use xlink:href="#DejaVuSans-65" x="666.699219"/>
     <use xlink:href="#DejaVuSans-6c" x="728.222656"/>
    </g>
   </g>
   <g id="legend_1">
    <g id="patch_7">
     <path d="M 209.2875 74.65225 
L 315.78125 74.65225 
Q 317.78125 74.65225 317.78125 72.65225 
L 317.78125 44.296 
Q 317.78125 42.296 315.78125 42.296 
L 209.2875 42.296 
Q 207.2875 42.296 207.2875 44.296 
L 207.2875 72.65225 
Q 207.2875 74.65225 209.2875 74.65225 
z
" style="fill: #ffffff; opacity: 0.8; stroke: #cccccc; stroke-linejoin: miter"/>
    </g>
    <g id="line2d_27">
     <path d="M 211.2875 50.394438 
L 221.2875 50.394438 
L 231.2875 50.394438 
" style="fill: none; stroke: #0000ff; stroke-width: 0.6; stroke-linecap: square"/>
    </g>
    <g id="text_16">
     <!-- Training Loss -->
     <g transform="translate(239.2875 53.894438) scale(0.1 -0.1)">
      <defs>
       <path id="DejaVuSans-54" d="M -19 4666 
L 3928 4666 
L 3928 4134 
L 2272 4134 
L 2272 0 
L 1638 0 
L 1638 4134 
L -19 4134 
L -19 4666 
z
" transform="scale(0.015625)"/>
       <path id="DejaVuSans-72" d="M 2631 2963 
Q 2534 3019 2420 3045 
Q 2306 3072 2169 3072 
Q 1681 3072 1420 2755 
Q 1159 2438 1159 1844 
L 1159 0 
L 581 0 
L 581 3500 
L 1159 3500 
L 1159 2956 
Q 1341 3275 1631 3429 
Q 1922 3584 2338 3584 
Q 2397 3584 2469 3576 
Q 2541 3569 2628 3553 
L 2631 2963 
z
" transform="scale(0.015625)"/>
       <path id="DejaVuSans-67" d="M 2906 1791 
Q 2906 2416 2648 2759 
Q 2391 3103 1925 3103 
Q 1463 3103 1205 2759 
Q 947 2416 947 1791 
Q 947 1169 1205 825 
Q 1463 481 1925 481 
Q 2391 481 2648 825 
Q 2906 1169 2906 1791 
z
M 3481 434 
Q 3481 -459 3084 -895 
Q 2688 -1331 1869 -1331 
Q 1566 -1331 1297 -1286 
Q 1028 -1241 775 -1147 
L 775 -588 
Q 1028 -725 1275 -790 
Q 1522 -856 1778 -856 
Q 2344 -856 2625 -561 
Q 2906 -266 2906 331 
L 2906 616 
Q 2728 306 2450 153 
Q 2172 0 1784 0 
Q 1141 0 747 490 
Q 353 981 353 1791 
Q 353 2603 747 3093 
Q 1141 3584 1784 3584 
Q 2172 3584 2450 3431 
Q 2728 3278 2906 2969 
L 2906 3500 
L 3481 3500 
L 3481 434 
z
" transform="scale(0.015625)"/>
      </defs>
      <use xlink:href="#DejaVuSans-54"/>
      <use xlink:href="#DejaVuSans-72" x="46.333984"/>
      <use xlink:href="#DejaVuSans-61" x="87.447266"/>
      <use xlink:href="#DejaVuSans-69" x="148.726562"/>
      <use xlink:href="#DejaVuSans-6e" x="176.509766"/>
      <use xlink:href="#DejaVuSans-69" x="239.888672"/>
      <use xlink:href="#DejaVuSans-6e" x="267.671875"/>
      <use xlink:href="#DejaVuSans-67" x="331.050781"/>
      <use xlink:href="#DejaVuSans-20" x="394.527344"/>
      <use xlink:href="#DejaVuSans-4c" x="426.314453"/>
      <use xlink:href="#DejaVuSans-6f" x="480.277344"/>
      <use xlink:href="#DejaVuSans-73" x="541.458984"/>
      <use xlink:href="#DejaVuSans-73" x="593.558594"/>
     </g>
    </g>
    <g id="line2d_28">
     <path d="M 211.2875 65.072563 
L 221.2875 65.072563 
L 231.2875 65.072563 
" style="fill: none; stroke: #ff0000; stroke-width: 0.6; stroke-linecap: square"/>
    </g>
    <g id="text_17">
     <!-- Validation Loss -->
     <g transform="translate(239.2875 68.572563) scale(0.1 -0.1)">
      <defs>
       <path id="DejaVuSans-56" d="M 1831 0 
L 50 4666 
L 709 4666 
L 2188 738 
L 3669 4666 
L 4325 4666 
L 2547 0 
L 1831 0 
z
" transform="scale(0.015625)"/>
       <path id="DejaVuSans-74" d="M 1172 4494 
L 1172 3500 
L 2356 3500 
L 2356 3053 
L 1172 3053 
L 1172 1153 
Q 1172 725 1289 603 
Q 1406 481 1766 481 
L 2356 481 
L 2356 0 
L 1766 0 
Q 1100 0 847 248 
Q 594 497 594 1153 
L 594 3053 
L 172 3053 
L 172 3500 
L 594 3500 
L 594 4494 
L 1172 4494 
z
" transform="scale(0.015625)"/>
      </defs>
      <use xlink:href="#DejaVuSans-56"/>
      <use xlink:href="#DejaVuSans-61" x="60.658203"/>
      <use xlink:href="#DejaVuSans-6c" x="121.9375"/>
      <use xlink:href="#DejaVuSans-69" x="149.720703"/>
      <use xlink:href="#DejaVuSans-64" x="177.503906"/>
      <use xlink:href="#DejaVuSans-61" x="240.980469"/>
      <use xlink:href="#DejaVuSans-74" x="302.259766"/>
      <use xlink:href="#DejaVuSans-69" x="341.46875"/>
      <use xlink:href="#DejaVuSans-6f" x="369.251953"/>
      <use xlink:href="#DejaVuSans-6e" x="430.433594"/>
      <use xlink:href="#DejaVuSans-20" x="493.8125"/>
      <use xlink:href="#DejaVuSans-4c" x="525.599609"/>
      <use xlink:href="#DejaVuSans-6f" x="579.5625"/>
      <use xlink:href="#DejaVuSans-73" x="640.744141"/>
      <use xlink:href="#DejaVuSans-73" x="692.84375"/>
     </g>
    </g>
   </g>
  </g>
  <g id="text_18">
   <!-- Training VS. Validation Loss - Dataset Size = 100.0% -->
   <g transform="translate(34.481016 15.558281) scale(0.11 -0.11)">
    <defs>
     <path id="DejaVuSans-53" d="M 3425 4513 
L 3425 3897 
Q 3066 4069 2747 4153 
Q 2428 4238 2131 4238 
Q 1616 4238 1336 4038 
Q 1056 3838 1056 3469 
Q 1056 3159 1242 3001 
Q 1428 2844 1947 2747 
L 2328 2669 
Q 3034 2534 3370 2195 
Q 3706 1856 3706 1288 
Q 3706 609 3251 259 
Q 2797 -91 1919 -91 
Q 1588 -91 1214 -16 
Q 841 59 441 206 
L 441 856 
Q 825 641 1194 531 
Q 1563 422 1919 422 
Q 2459 422 2753 634 
Q 3047 847 3047 1241 
Q 3047 1584 2836 1778 
Q 2625 1972 2144 2069 
L 1759 2144 
Q 1053 2284 737 2584 
Q 422 2884 422 3419 
Q 422 4038 858 4394 
Q 1294 4750 2059 4750 
Q 2388 4750 2728 4690 
Q 3069 4631 3425 4513 
z
" transform="scale(0.015625)"/>
     <path id="DejaVuSans-2d" d="M 313 2009 
L 1997 2009 
L 1997 1497 
L 313 1497 
L 313 2009 
z
" transform="scale(0.015625)"/>
     <path id="DejaVuSans-44" d="M 1259 4147 
L 1259 519 
L 2022 519 
Q 2988 519 3436 956 
Q 3884 1394 3884 2338 
Q 3884 3275 3436 3711 
Q 2988 4147 2022 4147 
L 1259 4147 
z
M 628 4666 
L 1925 4666 
Q 3281 4666 3915 4102 
Q 4550 3538 4550 2338 
Q 4550 1131 3912 565 
Q 3275 0 1925 0 
L 628 0 
L 628 4666 
z
" transform="scale(0.015625)"/>
     <path id="DejaVuSans-7a" d="M 353 3500 
L 3084 3500 
L 3084 2975 
L 922 459 
L 3084 459 
L 3084 0 
L 275 0 
L 275 525 
L 2438 3041 
L 353 3041 
L 353 3500 
z
" transform="scale(0.015625)"/>
     <path id="DejaVuSans-3d" d="M 678 2906 
L 4684 2906 
L 4684 2381 
L 678 2381 
L 678 2906 
z
M 678 1631 
L 4684 1631 
L 4684 1100 
L 678 1100 
L 678 1631 
z
" transform="scale(0.015625)"/>
     <path id="DejaVuSans-25" d="M 4653 2053 
Q 4381 2053 4226 1822 
Q 4072 1591 4072 1178 
Q 4072 772 4226 539 
Q 4381 306 4653 306 
Q 4919 306 5073 539 
Q 5228 772 5228 1178 
Q 5228 1588 5073 1820 
Q 4919 2053 4653 2053 
z
M 4653 2450 
Q 5147 2450 5437 2106 
Q 5728 1763 5728 1178 
Q 5728 594 5436 251 
Q 5144 -91 4653 -91 
Q 4153 -91 3862 251 
Q 3572 594 3572 1178 
Q 3572 1766 3864 2108 
Q 4156 2450 4653 2450 
z
M 1428 4353 
Q 1159 4353 1004 4120 
Q 850 3888 850 3481 
Q 850 3069 1003 2837 
Q 1156 2606 1428 2606 
Q 1700 2606 1854 2837 
Q 2009 3069 2009 3481 
Q 2009 3884 1853 4118 
Q 1697 4353 1428 4353 
z
M 4250 4750 
L 4750 4750 
L 1831 -91 
L 1331 -91 
L 4250 4750 
z
M 1428 4750 
Q 1922 4750 2215 4408 
Q 2509 4066 2509 3481 
Q 2509 2891 2217 2550 
Q 1925 2209 1428 2209 
Q 931 2209 642 2551 
Q 353 2894 353 3481 
Q 353 4063 643 4406 
Q 934 4750 1428 4750 
z
" transform="scale(0.015625)"/>
    </defs>
    <use xlink:href="#DejaVuSans-54"/>
    <use xlink:href="#DejaVuSans-72" x="46.333984"/>
    <use xlink:href="#DejaVuSans-61" x="87.447266"/>
    <use xlink:href="#DejaVuSans-69" x="148.726562"/>
    <use xlink:href="#DejaVuSans-6e" x="176.509766"/>
    <use xlink:href="#DejaVuSans-69" x="239.888672"/>
    <use xlink:href="#DejaVuSans-6e" x="267.671875"/>
    <use xlink:href="#DejaVuSans-67" x="331.050781"/>
    <use xlink:href="#DejaVuSans-20" x="394.527344"/>
    <use xlink:href="#DejaVuSans-56" x="426.314453"/>
    <use xlink:href="#DejaVuSans-53" x="494.722656"/>
    <use xlink:href="#DejaVuSans-2e" x="558.199219"/>
    <use xlink:href="#DejaVuSans-20" x="589.986328"/>
    <use xlink:href="#DejaVuSans-56" x="621.773438"/>
    <use xlink:href="#DejaVuSans-61" x="682.431641"/>
    <use xlink:href="#DejaVuSans-6c" x="743.710938"/>
    <use xlink:href="#DejaVuSans-69" x="771.494141"/>
    <use xlink:href="#DejaVuSans-64" x="799.277344"/>
    <use xlink:href="#DejaVuSans-61" x="862.753906"/>
    <use xlink:href="#DejaVuSans-74" x="924.033203"/>
    <use xlink:href="#DejaVuSans-69" x="963.242188"/>
    <use xlink:href="#DejaVuSans-6f" x="991.025391"/>
    <use xlink:href="#DejaVuSans-6e" x="1052.207031"/>
    <use xlink:href="#DejaVuSans-20" x="1115.585938"/>
    <use xlink:href="#DejaVuSans-4c" x="1147.373047"/>
    <use xlink:href="#DejaVuSans-6f" x="1201.335938"/>
    <use xlink:href="#DejaVuSans-73" x="1262.517578"/>
    <use xlink:href="#DejaVuSans-73" x="1314.617188"/>
    <use xlink:href="#DejaVuSans-20" x="1366.716797"/>
    <use xlink:href="#DejaVuSans-2d" x="1398.503906"/>
    <use xlink:href="#DejaVuSans-20" x="1434.587891"/>
    <use xlink:href="#DejaVuSans-44" x="1466.375"/>
    <use xlink:href="#DejaVuSans-61" x="1543.376953"/>
    <use xlink:href="#DejaVuSans-74" x="1604.65625"/>
    <use xlink:href="#DejaVuSans-61" x="1643.865234"/>
    <use xlink:href="#DejaVuSans-73" x="1705.144531"/>
    <use xlink:href="#DejaVuSans-65" x="1757.244141"/>
    <use xlink:href="#DejaVuSans-74" x="1818.767578"/>
    <use xlink:href="#DejaVuSans-20" x="1857.976562"/>
    <use xlink:href="#DejaVuSans-53" x="1889.763672"/>
    <use xlink:href="#DejaVuSans-69" x="1953.240234"/>
    <use xlink:href="#DejaVuSans-7a" x="1981.023438"/>
    <use xlink:href="#DejaVuSans-65" x="2033.513672"/>
    <use xlink:href="#DejaVuSans-20" x="2095.037109"/>
    <use xlink:href="#DejaVuSans-3d" x="2126.824219"/>
    <use xlink:href="#DejaVuSans-20" x="2210.613281"/>
    <use xlink:href="#DejaVuSans-31" x="2242.400391"/>
    <use xlink:href="#DejaVuSans-30" x="2306.023438"/>
    <use xlink:href="#DejaVuSans-30" x="2369.646484"/>
    <use xlink:href="#DejaVuSans-2e" x="2433.269531"/>
    <use xlink:href="#DejaVuSans-30" x="2465.056641"/>
    <use xlink:href="#DejaVuSans-25" x="2528.679688"/>
   </g>
  </g>
 </g>
 <defs>
  <clipPath id="pf031e180b7">
   <rect x="43.78125" y="37.296" width="279" height="202.464"/>
  </clipPath>
 </defs>
</svg>
