<?xml version="1.0" encoding="utf-8" standalone="no"?>
<!DOCTYPE svg PUBLIC "-//W3C//DTD SVG 1.1//EN"
  "http://www.w3.org/Graphics/SVG/1.1/DTD/svg11.dtd">
<svg xmlns:xlink="http://www.w3.org/1999/xlink" width="330.281484pt" height="277.31625pt" viewBox="0 0 330.281484 277.31625" xmlns="http://www.w3.org/2000/svg" version="1.1">
 <metadata>
  <rdf:RDF xmlns:dc="http://purl.org/dc/elements/1.1/" xmlns:cc="http://creativecommons.org/ns#" xmlns:rdf="http://www.w3.org/1999/02/22-rdf-syntax-ns#">
   <cc:Work>
    <dc:type rdf:resource="http://purl.org/dc/dcmitype/StillImage"/>
    <dc:date>2026-06-11T16:38:44.663423</dc:date>
    <dc:format>image/svg+xml</dc:format>
    <dc:creator>
     <cc:Agent>
      <dc:title>Matplotlib v3.8.4, https://matplotlib.org/</dc:title>
     </cc:Agent>
    </dc:creator>
   </cc:Work>
  </rdf:RDF>
 </metadata>
 <defs>
  <style type="text/css">*{stroke-linejoin: round; stroke-linecap: butt}</style>
 </defs>
 <g id="figure_1">
  <g id="patch_1">
   <path d="M 0 277.31625 
L 330.281484 277.31625 
L 330.281484 0 
L 0 0 
z
" style="fill: #ffffff"/>
  </g>
  <g id="axes_1">
   <g id="patch_2">
    <path d="M 43.78125 239.76 
L 322.78125 239.76 
L 322.78125 37.296 
L 43.78125 37.296 
z
" style="fill: #ffffff"/>
   </g>
   <g id="matplotlib.axis_1">
    <g id="xtick_1">
     <g id="line2d_1">
      <path d="M 56.209178 239.76 
L 56.209178 37.296 
" clip-path="url(#pe2bae74894)" style="fill: none; stroke-dasharray: 2.96,1.28; stroke-dashoffset: 0; stroke: #b0b0b0; stroke-opacity: 0.4; stroke-width: 0.8"/>
     </g>
     <g id="line2d_2">
      <defs>
       <path id="m28cdf05bcb" d="M 0 0 
L 0 3.5 
" style="stroke: #000000; stroke-width: 0.8"/>
      </defs>
      <g>
       <use xlink:href="#m28cdf05bcb" x="56.209178" y="239.76" style="stroke: #000000; stroke-width: 0.8"/>
      </g>
     </g>
     <g id="text_1">
      <!-- 0 -->
      <g transform="translate(53.027928 254.358437) scale(0.1 -0.1)">
       <defs>
        <path id="DejaVuSans-30" d="M 2034 4250 
Q 1547 4250 1301 3770 
Q 1056 3291 1056 2328 
Q 1056 1369 1301 889 
Q 1547 409 2034 409 
Q 2525 409 2770 889 
Q 3016 1369 3016 2328 
Q 3016 3291 2770 3770 
Q 2525 4250 2034 4250 
z
M 2034 4750 
Q 2819 4750 3233 4129 
Q 3647 3509 3647 2328 
Q 3647 1150 3233 529 
Q 2819 -91 2034 -91 
Q 1250 -91 836 529 
Q 422 1150 422 2328 
Q 422 3509 836 4129 
Q 1250 4750 2034 4750 
z
" transform="scale(0.015625)"/>
       </defs>
       <use xlink:href="#DejaVuSans-30"/>
      </g>
     </g>
    </g>
    <g id="xtick_2">
     <g id="line2d_3">
      <path d="M 106.987229 239.76 
L 106.987229 37.296 
" clip-path="url(#pe2bae74894)" style="fill: none; stroke-dasharray: 2.96,1.28; stroke-dashoffset: 0; stroke: #b0b0b0; stroke-opacity: 0.4; stroke-width: 0.8"/>
     </g>
     <g id="line2d_4">
      <g>
       <use xlink:href="#m28cdf05bcb" x="106.987229" y="239.76" style="stroke: #000000; stroke-width: 0.8"/>
      </g>
     </g>
     <g id="text_2">
      <!-- 200 -->
      <g transform="translate(97.443479 254.358437) scale(0.1 -0.1)">
       <defs>
        <path id="DejaVuSans-32" d="M 1228 531 
L 3431 531 
L 3431 0 
L 469 0 
L 469 531 
Q 828 903 1448 1529 
Q 2069 2156 2228 2338 
Q 2531 2678 2651 2914 
Q 2772 3150 2772 3378 
Q 2772 3750 2511 3984 
Q 2250 4219 1831 4219 
Q 1534 4219 1204 4116 
Q 875 4013 500 3803 
L 500 4441 
Q 881 4594 1212 4672 
Q 1544 4750 1819 4750 
Q 2544 4750 2975 4387 
Q 3406 4025 3406 3419 
Q 3406 3131 3298 2873 
Q 3191 2616 2906 2266 
Q 2828 2175 2409 1742 
Q 1991 1309 1228 531 
z
" transform="scale(0.015625)"/>
       </defs>
       <use xlink:href="#DejaVuSans-32"/>
       <use xlink:href="#DejaVuSans-30" x="63.623047"/>
       <use xlink:href="#DejaVuSans-30" x="127.246094"/>
      </g>
     </g>
    </g>
    <g id="xtick_3">
     <g id="line2d_5">
      <path d="M 157.765279 239.76 
L 157.765279 37.296 
" clip-path="url(#pe2bae74894)" style="fill: none; stroke-dasharray: 2.96,1.28; stroke-dashoffset: 0; stroke: #b0b0b0; stroke-opacity: 0.4; stroke-width: 0.8"/>
     </g>
     <g id="line2d_6">
      <g>
       <use xlink:href="#m28cdf05bcb" x="157.765279" y="239.76" style="stroke: #000000; stroke-width: 0.8"/>
      </g>
     </g>
     <g id="text_3">
      <!-- 400 -->
      <g transform="translate(148.221529 254.358437) scale(0.1 -0.1)">
       <defs>
        <path id="DejaVuSans-34" d="M 2419 4116 
L 825 1625 
L 2419 1625 
L 2419 4116 
z
M 2253 4666 
L 3047 4666 
L 3047 1625 
L 3713 1625 
L 3713 1100 
L 3047 1100 
L 3047 0 
L 2419 0 
L 2419 1100 
L 313 1100 
L 313 1709 
L 2253 4666 
z
" transform="scale(0.015625)"/>
       </defs>
       <use xlink:href="#DejaVuSans-34"/>
       <use xlink:href="#DejaVuSans-30" x="63.623047"/>
       <use xlink:href="#DejaVuSans-30" x="127.246094"/>
      </g>
     </g>
    </g>
    <g id="xtick_4">
     <g id="line2d_7">
      <path d="M 208.54333 239.76 
L 208.54333 37.296 
" clip-path="url(#pe2bae74894)" style="fill: none; stroke-dasharray: 2.96,1.28; stroke-dashoffset: 0; stroke: #b0b0b0; stroke-opacity: 0.4; stroke-width: 0.8"/>
     </g>
     <g id="line2d_8">
      <g>
       <use xlink:href="#m28cdf05bcb" x="208.54333" y="239.76" style="stroke: #000000; stroke-width: 0.8"/>
      </g>
     </g>
     <g id="text_4">
      <!-- 600 -->
      <g transform="translate(198.99958 254.358437) scale(0.1 -0.1)">
       <defs>
        <path id="DejaVuSans-36" d="M 2113 2584 
Q 1688 2584 1439 2293 
Q 1191 2003 1191 1497 
Q 1191 994 1439 701 
Q 1688 409 2113 409 
Q 2538 409 2786 701 
Q 3034 994 3034 1497 
Q 3034 2003 2786 2293 
Q 2538 2584 2113 2584 
z
M 3366 4563 
L 3366 3988 
Q 3128 4100 2886 4159 
Q 2644 4219 2406 4219 
Q 1781 4219 1451 3797 
Q 1122 3375 1075 2522 
Q 1259 2794 1537 2939 
Q 1816 3084 2150 3084 
Q 2853 3084 3261 2657 
Q 3669 2231 3669 1497 
Q 3669 778 3244 343 
Q 2819 -91 2113 -91 
Q 1303 -91 875 529 
Q 447 1150 447 2328 
Q 447 3434 972 4092 
Q 1497 4750 2381 4750 
Q 2619 4750 2861 4703 
Q 3103 4656 3366 4563 
z
" transform="scale(0.015625)"/>
       </defs>
       <use xlink:href="#DejaVuSans-36"/>
       <use xlink:href="#DejaVuSans-30" x="63.623047"/>
       <use xlink:href="#DejaVuSans-30" x="127.246094"/>
      </g>
     </g>
    </g>
    <g id="xtick_5">
     <g id="line2d_9">
      <path d="M 259.321381 239.76 
L 259.321381 37.296 
" clip-path="url(#pe2bae74894)" style="fill: none; stroke-dasharray: 2.96,1.28; stroke-dashoffset: 0; stroke: #b0b0b0; stroke-opacity: 0.4; stroke-width: 0.8"/>
     </g>
     <g id="line2d_10">
      <g>
       <use xlink:href="#m28cdf05bcb" x="259.321381" y="239.76" style="stroke: #000000; stroke-width: 0.8"/>
      </g>
     </g>
     <g id="text_5">
      <!-- 800 -->
      <g transform="translate(249.777631 254.358437) scale(0.1 -0.1)">
       <defs>
        <path id="DejaVuSans-38" d="M 2034 2216 
Q 1584 2216 1326 1975 
Q 1069 1734 1069 1313 
Q 1069 891 1326 650 
Q 1584 409 2034 409 
Q 2484 409 2743 651 
Q 3003 894 3003 1313 
Q 3003 1734 2745 1975 
Q 2488 2216 2034 2216 
z
M 1403 2484 
Q 997 2584 770 2862 
Q 544 3141 544 3541 
Q 544 4100 942 4425 
Q 1341 4750 2034 4750 
Q 2731 4750 3128 4425 
Q 3525 4100 3525 3541 
Q 3525 3141 3298 2862 
Q 3072 2584 2669 2484 
Q 3125 2378 3379 2068 
Q 3634 1759 3634 1313 
Q 3634 634 3220 271 
Q 2806 -91 2034 -91 
Q 1263 -91 848 271 
Q 434 634 434 1313 
Q 434 1759 690 2068 
Q 947 2378 1403 2484 
z
M 1172 3481 
Q 1172 3119 1398 2916 
Q 1625 2713 2034 2713 
Q 2441 2713 2670 2916 
Q 2900 3119 2900 3481 
Q 2900 3844 2670 4047 
Q 2441 4250 2034 4250 
Q 1625 4250 1398 4047 
Q 1172 3844 1172 3481 
z
" transform="scale(0.015625)"/>
       </defs>
       <use xlink:href="#DejaVuSans-38"/>
       <use xlink:href="#DejaVuSans-30" x="63.623047"/>
       <use xlink:href="#DejaVuSans-30" x="127.246094"/>
      </g>
     </g>
    </g>
    <g id="xtick_6">
     <g id="line2d_11">
      <path d="M 310.099432 239.76 
L 310.099432 37.296 
" clip-path="url(#pe2bae74894)" style="fill: none; stroke-dasharray: 2.96,1.28; stroke-dashoffset: 0; stroke: #b0b0b0; stroke-opacity: 0.4; stroke-width: 0.8"/>
     </g>
     <g id="line2d_12">
      <g>
       <use xlink:href="#m28cdf05bcb" x="310.099432" y="239.76" style="stroke: #000000; stroke-width: 0.8"/>
      </g>
     </g>
     <g id="text_6">
      <!-- 1000 -->
      <g transform="translate(297.374432 254.358437) scale(0.1 -0.1)">
       <defs>
        <path id="DejaVuSans-31" d="M 794 531 
L 1825 531 
L 1825 4091 
L 703 3866 
L 703 4441 
L 1819 4666 
L 2450 4666 
L 2450 531 
L 3481 531 
L 3481 0 
L 794 0 
L 794 531 
z
" transform="scale(0.015625)"/>
       </defs>
       <use xlink:href="#DejaVuSans-31"/>
       <use xlink:href="#DejaVuSans-30" x="63.623047"/>
       <use xlink:href="#DejaVuSans-30" x="127.246094"/>
       <use xlink:href="#DejaVuSans-30" x="190.869141"/>
      </g>
     </g>
    </g>
    <g id="text_7">
     <!-- Epochs -->
     <g transform="translate(165.365625 268.036562) scale(0.1 -0.1)">
      <defs>
       <path id="DejaVuSans-45" d="M 628 4666 
L 3578 4666 
L 3578 4134 
L 1259 4134 
L 1259 2753 
L 3481 2753 
L 3481 2222 
L 1259 2222 
L 1259 531 
L 3634 531 
L 3634 0 
L 628 0 
L 628 4666 
z
" transform="scale(0.015625)"/>
       <path id="DejaVuSans-70" d="M 1159 525 
L 1159 -1331 
L 581 -1331 
L 581 3500 
L 1159 3500 
L 1159 2969 
Q 1341 3281 1617 3432 
Q 1894 3584 2278 3584 
Q 2916 3584 3314 3078 
Q 3713 2572 3713 1747 
Q 3713 922 3314 415 
Q 2916 -91 2278 -91 
Q 1894 -91 1617 61 
Q 1341 213 1159 525 
z
M 3116 1747 
Q 3116 2381 2855 2742 
Q 2594 3103 2138 3103 
Q 1681 3103 1420 2742 
Q 1159 2381 1159 1747 
Q 1159 1113 1420 752 
Q 1681 391 2138 391 
Q 2594 391 2855 752 
Q 3116 1113 3116 1747 
z
" transform="scale(0.015625)"/>
       <path id="DejaVuSans-6f" d="M 1959 3097 
Q 1497 3097 1228 2736 
Q 959 2375 959 1747 
Q 959 1119 1226 758 
Q 1494 397 1959 397 
Q 2419 397 2687 759 
Q 2956 1122 2956 1747 
Q 2956 2369 2687 2733 
Q 2419 3097 1959 3097 
z
M 1959 3584 
Q 2709 3584 3137 3096 
Q 3566 2609 3566 1747 
Q 3566 888 3137 398 
Q 2709 -91 1959 -91 
Q 1206 -91 779 398 
Q 353 888 353 1747 
Q 353 2609 779 3096 
Q 1206 3584 1959 3584 
z
" transform="scale(0.015625)"/>
       <path id="DejaVuSans-63" d="M 3122 3366 
L 3122 2828 
Q 2878 2963 2633 3030 
Q 2388 3097 2138 3097 
Q 1578 3097 1268 2742 
Q 959 2388 959 1747 
Q 959 1106 1268 751 
Q 1578 397 2138 397 
Q 2388 397 2633 464 
Q 2878 531 3122 666 
L 3122 134 
Q 2881 22 2623 -34 
Q 2366 -91 2075 -91 
Q 1284 -91 818 406 
Q 353 903 353 1747 
Q 353 2603 823 3093 
Q 1294 3584 2113 3584 
Q 2378 3584 2631 3529 
Q 2884 3475 3122 3366 
z
" transform="scale(0.015625)"/>
       <path id="DejaVuSans-68" d="M 3513 2113 
L 3513 0 
L 2938 0 
L 2938 2094 
Q 2938 2591 2744 2837 
Q 2550 3084 2163 3084 
Q 1697 3084 1428 2787 
Q 1159 2491 1159 1978 
L 1159 0 
L 581 0 
L 581 4863 
L 1159 4863 
L 1159 2956 
Q 1366 3272 1645 3428 
Q 1925 3584 2291 3584 
Q 2894 3584 3203 3211 
Q 3513 2838 3513 2113 
z
" transform="scale(0.015625)"/>
       <path id="DejaVuSans-73" d="M 2834 3397 
L 2834 2853 
Q 2591 2978 2328 3040 
Q 2066 3103 1784 3103 
Q 1356 3103 1142 2972 
Q 928 2841 928 2578 
Q 928 2378 1081 2264 
Q 1234 2150 1697 2047 
L 1894 2003 
Q 2506 1872 2764 1633 
Q 3022 1394 3022 966 
Q 3022 478 2636 193 
Q 2250 -91 1575 -91 
Q 1294 -91 989 -36 
Q 684 19 347 128 
L 347 722 
Q 666 556 975 473 
Q 1284 391 1588 391 
Q 1994 391 2212 530 
Q 2431 669 2431 922 
Q 2431 1156 2273 1281 
Q 2116 1406 1581 1522 
L 1381 1569 
Q 847 1681 609 1914 
Q 372 2147 372 2553 
Q 372 3047 722 3315 
Q 1072 3584 1716 3584 
Q 2034 3584 2315 3537 
Q 2597 3491 2834 3397 
z
" transform="scale(0.015625)"/>
      </defs>
      <use xlink:href="#DejaVuSans-45"/>
      <use xlink:href="#DejaVuSans-70" x="63.183594"/>
      <use xlink:href="#DejaVuSans-6f" x="126.660156"/>
      <use xlink:href="#DejaVuSans-63" x="187.841797"/>
      <use xlink:href="#DejaVuSans-68" x="242.822266"/>
      <use xlink:href="#DejaVuSans-73" x="306.201172"/>
     </g>
    </g>
   </g>
   <g id="matplotlib.axis_2">
    <g id="ytick_1">
     <g id="line2d_13">
      <path d="M 43.78125 208.08876 
L 322.78125 208.08876 
" clip-path="url(#pe2bae74894)" style="fill: none; stroke-dasharray: 2.96,1.28; stroke-dashoffset: 0; stroke: #b0b0b0; stroke-opacity: 0.4; stroke-width: 0.8"/>
     </g>
     <g id="line2d_14">
      <defs>
       <path id="m941a05dea4" d="M 0 0 
L -3.5 0 
" style="stroke: #000000; stroke-width: 0.8"/>
      </defs>
      <g>
       <use xlink:href="#m941a05dea4" x="43.78125" y="208.08876" style="stroke: #000000; stroke-width: 0.8"/>
      </g>
     </g>
     <g id="text_8">
      <!-- 0.4 -->
      <g transform="translate(20.878125 211.887978) scale(0.1 -0.1)">
       <defs>
        <path id="DejaVuSans-2e" d="M 684 794 
L 1344 794 
L 1344 0 
L 684 0 
L 684 794 
z
" transform="scale(0.015625)"/>
       </defs>
       <use xlink:href="#DejaVuSans-30"/>
       <use xlink:href="#DejaVuSans-2e" x="63.623047"/>
       <use xlink:href="#DejaVuSans-34" x="95.410156"/>
      </g>
     </g>
    </g>
    <g id="ytick_2">
     <g id="line2d_15">
      <path d="M 43.78125 170.320269 
L 322.78125 170.320269 
" clip-path="url(#pe2bae74894)" style="fill: none; stroke-dasharray: 2.96,1.28; stroke-dashoffset: 0; stroke: #b0b0b0; stroke-opacity: 0.4; stroke-width: 0.8"/>
     </g>
     <g id="line2d_16">
      <g>
       <use xlink:href="#m941a05dea4" x="43.78125" y="170.320269" style="stroke: #000000; stroke-width: 0.8"/>
      </g>
     </g>
     <g id="text_9">
      <!-- 0.6 -->
      <g transform="translate(20.878125 174.119488) scale(0.1 -0.1)">
       <use xlink:href="#DejaVuSans-30"/>
       <use xlink:href="#DejaVuSans-2e" x="63.623047"/>
       <use xlink:href="#DejaVuSans-36" x="95.410156"/>
      </g>
     </g>
    </g>
    <g id="ytick_3">
     <g id="line2d_17">
      <path d="M 43.78125 132.551779 
L 322.78125 132.551779 
" clip-path="url(#pe2bae74894)" style="fill: none; stroke-dasharray: 2.96,1.28; stroke-dashoffset: 0; stroke: #b0b0b0; stroke-opacity: 0.4; stroke-width: 0.8"/>
     </g>
     <g id="line2d_18">
      <g>
       <use xlink:href="#m941a05dea4" x="43.78125" y="132.551779" style="stroke: #000000; stroke-width: 0.8"/>
      </g>
     </g>
     <g id="text_10">
      <!-- 0.8 -->
      <g transform="translate(20.878125 136.350998) scale(0.1 -0.1)">
       <use xlink:href="#DejaVuSans-30"/>
       <use xlink:href="#DejaVuSans-2e" x="63.623047"/>
       <use xlink:href="#DejaVuSans-38" x="95.410156"/>
      </g>
     </g>
    </g>
    <g id="ytick_4">
     <g id="line2d_19">
      <path d="M 43.78125 94.783289 
L 322.78125 94.783289 
" clip-path="url(#pe2bae74894)" style="fill: none; stroke-dasharray: 2.96,1.28; stroke-dashoffset: 0; stroke: #b0b0b0; stroke-opacity: 0.4; stroke-width: 0.8"/>
     </g>
     <g id="line2d_20">
      <g>
       <use xlink:href="#m941a05dea4" x="43.78125" y="94.783289" style="stroke: #000000; stroke-width: 0.8"/>
      </g>
     </g>
     <g id="text_11">
      <!-- 1.0 -->
      <g transform="translate(20.878125 98.582507) scale(0.1 -0.1)">
       <use xlink:href="#DejaVuSans-31"/>
       <use xlink:href="#DejaVuSans-2e" x="63.623047"/>
       <use xlink:href="#DejaVuSans-30" x="95.410156"/>
      </g>
     </g>
    </g>
    <g id="ytick_5">
     <g id="line2d_21">
      <path d="M 43.78125 57.014798 
L 322.78125 57.014798 
" clip-path="url(#pe2bae74894)" style="fill: none; stroke-dasharray: 2.96,1.28; stroke-dashoffset: 0; stroke: #b0b0b0; stroke-opacity: 0.4; stroke-width: 0.8"/>
     </g>
     <g id="line2d_22">
      <g>
       <use xlink:href="#m941a05dea4" x="43.78125" y="57.014798" style="stroke: #000000; stroke-width: 0.8"/>
      </g>
     </g>
     <g id="text_12">
      <!-- 1.2 -->
      <g transform="translate(20.878125 60.814017) scale(0.1 -0.1)">
       <use xlink:href="#DejaVuSans-31"/>
       <use xlink:href="#DejaVuSans-2e" x="63.623047"/>
       <use xlink:href="#DejaVuSans-32" x="95.410156"/>
      </g>
     </g>
    </g>
    <g id="text_13">
     <!-- Loss -->
     <g transform="translate(14.798438 149.495187) rotate(-90) scale(0.1 -0.1)">
      <defs>
       <path id="DejaVuSans-4c" d="M 628 4666 
L 1259 4666 
L 1259 531 
L 3531 531 
L 3531 0 
L 628 0 
L 628 4666 
z
" transform="scale(0.015625)"/>
      </defs>
      <use xlink:href="#DejaVuSans-4c"/>
      <use xlink:href="#DejaVuSans-6f" x="53.962891"/>
      <use xlink:href="#DejaVuSans-73" x="115.144531"/>
      <use xlink:href="#DejaVuSans-73" x="167.244141"/>
     </g>
    </g>
   </g>
   <g id="line2d_23">
    <path d="M 56.463068 146.774322 
L 57.478629 183.802476 
L 57.732519 185.407048 
L 57.98641 189.252099 
L 58.2403 189.404115 
L 58.49419 187.115985 
L 59.001971 192.1379 
L 59.255861 189.759717 
L 59.509751 193.306323 
L 59.763641 193.233948 
L 60.271422 195.155221 
L 60.525312 197.523465 
L 60.779202 197.001265 
L 61.033093 197.787641 
L 61.286983 197.828955 
L 61.540873 199.03109 
L 61.794764 198.674019 
L 62.048654 199.02715 
L 62.302544 197.770065 
L 62.556434 199.533001 
L 62.810325 198.699407 
L 63.318105 200.169859 
L 63.571995 199.489795 
L 63.825886 199.214414 
L 64.079776 199.252032 
L 64.333666 201.948289 
L 64.587556 200.017072 
L 64.841447 201.683821 
L 65.095337 198.940581 
L 65.349227 202.000224 
L 65.603117 202.137951 
L 65.857008 201.293101 
L 66.110898 202.456712 
L 66.364788 201.585456 
L 66.618678 201.224665 
L 66.872569 202.154829 
L 67.126459 203.536563 
L 67.380349 204.057524 
L 67.634239 203.404863 
L 67.88813 204.419581 
L 68.14202 204.718521 
L 68.39591 205.666987 
L 68.903691 204.568682 
L 69.157581 204.480447 
L 69.411471 206.641831 
L 69.665361 205.193677 
L 69.919252 204.901783 
L 70.173142 206.587853 
L 70.427032 205.745091 
L 70.680922 207.323837 
L 70.934813 205.341281 
L 71.188703 206.35108 
L 71.442593 208.130754 
L 71.696483 206.668823 
L 71.950374 207.846965 
L 72.458154 206.987595 
L 72.712044 206.9046 
L 72.965935 209.344235 
L 73.219825 208.058475 
L 73.473715 207.514084 
L 73.727605 208.022146 
L 73.981496 205.320593 
L 74.235386 207.751369 
L 74.489276 208.240707 
L 74.743166 210.788911 
L 74.997057 208.741651 
L 75.250947 208.756475 
L 75.504837 208.990355 
L 75.758727 210.050102 
L 76.012618 207.214013 
L 76.266508 209.324407 
L 76.520398 206.963175 
L 76.774288 208.311541 
L 77.028179 210.270836 
L 77.282069 210.866571 
L 77.535959 211.120532 
L 77.78985 209.915128 
L 78.04374 211.176254 
L 78.29763 208.980484 
L 78.55152 209.307788 
L 78.805411 211.26226 
L 79.059301 210.465839 
L 79.313191 210.135321 
L 79.567081 210.174171 
L 79.820972 209.555198 
L 80.074862 211.045179 
L 80.328752 210.72599 
L 80.582642 210.113912 
L 80.836533 211.512152 
L 81.090423 208.627758 
L 81.344313 209.862033 
L 81.598203 212.733495 
L 81.852094 211.103434 
L 82.105984 211.197224 
L 82.613764 214.518701 
L 82.867655 211.617485 
L 83.121545 213.789584 
L 83.375435 213.189212 
L 83.629325 213.403057 
L 83.883216 212.986859 
L 84.137106 214.944697 
L 84.390996 218.075865 
L 84.644886 213.940503 
L 84.898777 215.828588 
L 85.152667 216.114758 
L 85.406557 215.619228 
L 85.660447 216.228206 
L 85.914338 217.208785 
L 86.168228 217.323404 
L 86.422118 217.040048 
L 86.676008 217.688826 
L 86.929899 215.471624 
L 87.183789 217.085505 
L 87.691569 213.647197 
L 88.45324 219.51331 
L 88.70713 216.18563 
L 88.961021 217.996821 
L 89.214911 215.598433 
L 89.468801 218.714975 
L 89.722691 217.557048 
L 89.976582 217.196904 
L 90.230472 217.033705 
L 90.484362 217.835068 
L 90.738252 217.601649 
L 90.992143 216.099647 
L 91.246033 217.005847 
L 91.753813 219.618935 
L 92.007704 214.787846 
L 92.261594 217.038224 
L 92.515484 216.999797 
L 92.769374 216.6839 
L 93.023265 218.259972 
L 93.277155 216.678987 
L 93.531045 220.744208 
L 93.784936 218.657845 
L 94.038826 219.078129 
L 94.292716 216.715738 
L 94.800497 218.123433 
L 95.054387 218.5904 
L 95.308277 214.761789 
L 95.562167 220.036438 
L 95.816058 219.211871 
L 96.323838 215.635628 
L 96.577728 219.586619 
L 96.831619 219.706579 
L 97.085509 219.951344 
L 97.339399 221.760778 
L 97.593289 221.395778 
L 98.35496 218.069686 
L 98.60885 220.083195 
L 98.862741 220.429781 
L 99.370521 218.815512 
L 99.624411 220.157467 
L 99.878302 222.142257 
L 100.386082 222.265605 
L 100.639972 222.0285 
L 101.147753 219.693533 
L 101.655533 221.901634 
L 102.163314 222.557644 
L 102.671094 218.063838 
L 102.924985 222.538391 
L 103.178875 217.255908 
L 103.686655 221.656211 
L 103.940546 219.129506 
L 104.194436 221.954914 
L 104.448326 217.997068 
L 104.702216 221.194174 
L 104.956107 222.679366 
L 105.209997 221.16882 
L 105.463887 221.523358 
L 105.717777 221.370312 
L 105.971668 220.054971 
L 106.225558 220.964813 
L 106.479448 218.519645 
L 106.733338 220.825448 
L 106.987229 221.306299 
L 107.241119 221.313891 
L 107.748899 219.332827 
L 108.00279 220.66092 
L 108.25668 221.070956 
L 108.51057 220.041205 
L 108.76446 222.939861 
L 109.018351 221.204152 
L 109.272241 221.381522 
L 109.526131 222.047967 
L 109.780021 224.632583 
L 110.033912 225.167857 
L 110.287802 222.979526 
L 110.541692 222.886418 
L 110.795583 224.928776 
L 111.303363 222.821679 
L 111.557253 223.790012 
L 111.811144 222.469663 
L 112.318924 225.101329 
L 112.572814 221.635067 
L 112.826705 222.555399 
L 113.080595 226.740417 
L 113.334485 224.068916 
L 113.588375 223.827821 
L 113.842266 223.176442 
L 114.096156 221.632652 
L 114.350046 225.058078 
L 114.603936 224.439443 
L 114.857827 225.710593 
L 115.111717 222.301821 
L 115.365607 224.737673 
L 115.619497 223.644541 
L 115.873388 223.102688 
L 116.127278 224.786186 
L 116.381168 224.487607 
L 116.888949 223.372047 
L 117.142839 225.376631 
L 117.396729 222.660231 
L 117.650619 224.266496 
L 117.90451 224.883679 
L 118.1584 221.681025 
L 118.66618 224.262112 
L 118.920071 221.839187 
L 119.173961 221.601136 
L 119.427851 222.881611 
L 119.681741 223.070755 
L 119.935632 225.280781 
L 120.443412 221.558313 
L 120.697302 223.091483 
L 120.951193 222.145189 
L 121.205083 224.113129 
L 121.458973 223.847783 
L 121.712863 219.845972 
L 121.966754 223.931448 
L 122.220644 224.012412 
L 122.474534 225.806414 
L 122.728424 223.341482 
L 122.982315 224.467915 
L 123.236205 226.985964 
L 123.490095 223.50046 
L 123.743985 224.409953 
L 123.997876 224.409801 
L 124.251766 226.927518 
L 124.505656 223.89293 
L 124.759546 225.561503 
L 125.013437 224.152131 
L 125.267327 226.728114 
L 125.775107 223.816351 
L 126.028998 225.14848 
L 126.282888 224.083537 
L 126.536778 224.919079 
L 126.790669 224.230765 
L 127.044559 226.161689 
L 127.298449 223.051553 
L 127.552339 224.079941 
L 127.80623 222.901439 
L 128.06012 220.68449 
L 128.31401 224.313349 
L 128.5679 223.263816 
L 128.821791 224.560793 
L 129.075681 225.06343 
L 129.329571 223.471105 
L 129.583461 226.205689 
L 129.837352 226.945482 
L 130.091242 221.933742 
L 130.599022 226.088053 
L 130.852913 227.075932 
L 131.106803 227.101415 
L 131.614583 224.095519 
L 131.868474 223.458115 
L 132.376254 225.96658 
L 132.630144 223.437269 
L 132.884035 222.588868 
L 133.137925 222.797648 
L 133.391815 224.846743 
L 133.645705 225.847065 
L 133.899596 226.240588 
L 134.153486 225.627755 
L 134.407376 222.915722 
L 134.661266 223.045154 
L 134.915157 224.052021 
L 135.169047 227.306166 
L 135.422937 227.797406 
L 135.676827 226.347282 
L 135.930718 227.569525 
L 136.184608 226.069622 
L 136.438498 226.312845 
L 136.692388 227.423238 
L 136.946279 224.849045 
L 137.200169 225.42009 
L 137.454059 223.609293 
L 137.96184 226.453842 
L 138.21573 222.458716 
L 138.46962 226.675493 
L 138.72351 223.367399 
L 138.977401 226.119936 
L 139.231291 226.023884 
L 139.485181 224.95799 
L 139.739071 225.946347 
L 139.992962 224.424754 
L 140.246852 225.220534 
L 140.500742 226.918006 
L 140.754632 226.643098 
L 141.008523 224.426836 
L 141.262413 228.04279 
L 141.516303 225.478114 
L 141.770193 225.517093 
L 142.024084 223.294179 
L 142.277974 224.063114 
L 142.785755 226.525468 
L 143.039645 222.544649 
L 143.293535 225.314926 
L 143.547425 226.720707 
L 143.801316 225.670606 
L 144.055206 223.980208 
L 144.309096 226.124978 
L 144.562986 223.959104 
L 144.816877 224.590711 
L 145.070767 224.33388 
L 145.324657 224.953291 
L 145.578547 227.093204 
L 145.832438 226.918879 
L 146.340218 227.373031 
L 146.594108 226.877266 
L 146.847999 225.77707 
L 147.101889 222.949625 
L 147.355779 225.766501 
L 147.86356 227.305124 
L 148.11745 224.868461 
L 148.37134 227.533625 
L 148.62523 228.413058 
L 149.133011 224.974272 
L 149.386901 225.632061 
L 149.640791 225.439112 
L 149.894682 228.07559 
L 150.148572 223.182183 
L 150.402462 225.986463 
L 150.656352 225.428734 
L 150.910243 226.439175 
L 151.164133 225.486094 
L 151.418023 226.66386 
L 151.671913 224.709517 
L 152.179694 226.36299 
L 152.433584 228.788594 
L 152.687474 225.437722 
L 152.941365 227.844315 
L 153.195255 225.005158 
L 153.449145 225.01109 
L 153.703035 226.122547 
L 153.956926 225.170625 
L 154.210816 225.674687 
L 154.464706 227.919538 
L 154.718596 226.284683 
L 154.972487 223.802472 
L 155.226377 226.602785 
L 155.480267 227.808409 
L 155.734157 225.74601 
L 155.988048 226.220254 
L 156.241938 227.9831 
L 156.495828 225.234778 
L 156.749718 225.976266 
L 157.003609 223.698187 
L 157.257499 226.772327 
L 157.511389 225.868991 
L 157.765279 222.654653 
L 158.01917 226.850381 
L 158.27306 224.605709 
L 158.52695 224.785956 
L 159.034731 223.878078 
L 159.288621 226.79409 
L 159.542511 226.757058 
L 160.050292 224.448211 
L 160.304182 227.73726 
L 160.558072 227.669652 
L 160.811963 227.795892 
L 161.065853 226.062244 
L 161.319743 225.328917 
L 161.573633 226.247572 
L 162.081414 228.631693 
L 162.335304 224.261662 
L 162.589194 227.731177 
L 162.843085 223.908069 
L 163.350865 226.891746 
L 163.604755 226.585671 
L 163.858646 226.909812 
L 164.112536 224.686577 
L 164.620316 227.444112 
L 164.874207 227.921711 
L 165.128097 226.728052 
L 165.381987 226.166321 
L 165.635877 221.538711 
L 165.889768 226.541306 
L 166.143658 228.723788 
L 166.397548 225.303856 
L 166.651438 227.830409 
L 166.905329 225.491942 
L 167.159219 227.862313 
L 167.666999 222.003185 
L 167.92089 227.565287 
L 168.17478 227.211228 
L 168.42867 227.457934 
L 168.68256 225.505578 
L 168.936451 224.573889 
L 169.190341 226.989554 
L 169.444231 226.338334 
L 169.698121 226.920274 
L 169.952012 224.651588 
L 170.205902 224.866975 
L 170.459792 224.541106 
L 170.713682 225.984122 
L 170.967573 226.612347 
L 171.221463 224.089419 
L 171.475353 224.390536 
L 171.729243 224.285479 
L 171.983134 226.314263 
L 172.237024 225.984674 
L 172.490914 227.960977 
L 172.744804 223.863142 
L 172.998695 228.293211 
L 173.252585 226.846959 
L 173.506475 227.380072 
L 173.760365 228.221061 
L 174.014256 226.241972 
L 174.522036 228.418906 
L 174.775926 227.263072 
L 175.029817 223.625564 
L 175.283707 227.369536 
L 175.537597 225.914319 
L 175.791488 225.758588 
L 176.045378 223.393861 
L 176.299268 226.541896 
L 176.553158 223.859208 
L 177.060939 228.478714 
L 177.314829 225.691734 
L 177.568719 227.082826 
L 177.82261 226.268519 
L 178.0765 226.614227 
L 178.58428 222.740676 
L 178.838171 228.679727 
L 179.092061 229.45546 
L 179.345951 228.349733 
L 179.599841 225.639118 
L 179.853732 225.826832 
L 180.107622 226.474007 
L 180.361512 226.003949 
L 180.615402 226.006398 
L 180.869293 228.388245 
L 181.123183 226.962523 
L 181.377073 228.373635 
L 181.630963 227.755427 
L 181.884854 226.354081 
L 182.138744 223.641057 
L 182.392634 224.083954 
L 182.646524 229.724662 
L 182.900415 225.360675 
L 183.154305 225.859424 
L 183.408195 224.261577 
L 183.662085 225.593267 
L 183.915976 220.635251 
L 184.169866 226.797906 
L 184.423756 225.498515 
L 184.677646 224.868022 
L 184.931537 225.743601 
L 185.185427 225.232668 
L 185.439317 227.108208 
L 185.693207 227.120449 
L 185.947098 228.842954 
L 186.200988 226.681047 
L 186.454878 226.443227 
L 186.708768 228.590868 
L 187.216549 225.064769 
L 187.470439 227.711456 
L 187.724329 228.345185 
L 187.97822 226.487626 
L 188.23211 228.304231 
L 188.486 226.415014 
L 188.73989 228.416232 
L 188.993781 226.127111 
L 189.247671 225.577182 
L 189.501561 227.247719 
L 189.755451 227.727502 
L 190.009342 226.362596 
L 190.263232 227.333253 
L 190.517122 226.027193 
L 190.771012 228.093627 
L 191.024903 228.223633 
L 191.278793 227.358432 
L 191.532683 229.271764 
L 191.786574 222.992043 
L 192.040464 226.681543 
L 192.294354 227.069314 
L 192.548244 223.868713 
L 192.802135 226.692658 
L 193.056025 225.532497 
L 193.309915 227.424454 
L 193.563805 225.109557 
L 193.817696 228.180253 
L 194.071586 228.8396 
L 194.579366 225.066475 
L 194.833257 227.389937 
L 195.087147 224.605259 
L 195.341037 225.033 
L 195.594927 224.249539 
L 195.848818 226.323155 
L 196.102708 226.168938 
L 196.356598 225.662845 
L 196.610488 227.009882 
L 196.864379 225.736065 
L 197.118269 226.109732 
L 197.372159 224.869429 
L 197.626049 225.673876 
L 197.87994 228.649449 
L 198.13383 227.439497 
L 198.38772 228.807667 
L 198.64161 227.978997 
L 198.895501 227.922746 
L 199.149391 226.589683 
L 199.403281 228.192302 
L 199.657171 228.437225 
L 199.911062 227.478279 
L 200.164952 229.297478 
L 200.672732 227.870541 
L 200.926623 228.367241 
L 201.180513 226.959681 
L 201.688293 230.073031 
L 201.942184 230.156331 
L 202.196074 226.434093 
L 202.449964 226.281109 
L 202.703854 228.744769 
L 202.957745 228.352563 
L 203.211635 228.260136 
L 203.465525 224.783952 
L 203.973306 228.339715 
L 204.227196 226.429309 
L 204.481086 226.854562 
L 204.734976 227.843921 
L 205.242757 227.072111 
L 205.496647 225.61256 
L 205.750537 227.404902 
L 206.004428 225.593205 
L 206.258318 227.70414 
L 206.512208 224.876093 
L 206.766098 224.894699 
L 207.019989 226.673151 
L 207.527769 228.437393 
L 207.78166 226.442136 
L 208.03555 226.596966 
L 208.28944 226.914416 
L 208.54333 228.116443 
L 209.051111 225.310232 
L 209.305001 225.468265 
L 209.558891 227.425675 
L 209.812782 225.130273 
L 210.066672 226.843048 
L 210.320562 225.233568 
L 210.574452 228.045565 
L 211.082233 226.562078 
L 211.336123 228.982719 
L 211.590013 229.314936 
L 211.843904 228.489778 
L 212.097794 226.649131 
L 212.351684 230.089949 
L 212.605574 226.82649 
L 212.859465 228.603705 
L 213.113355 227.801965 
L 213.367245 228.483948 
L 213.621135 225.848207 
L 213.875026 228.103955 
L 214.382806 225.630946 
L 214.636696 225.138574 
L 215.144477 228.023593 
L 215.398367 227.206472 
L 215.652257 228.708829 
L 215.906148 225.141957 
L 216.160038 228.767225 
L 216.413928 224.201398 
L 216.667818 227.637905 
L 216.921709 226.908298 
L 217.175599 226.584393 
L 217.429489 225.695487 
L 217.93727 228.837715 
L 218.19116 228.151376 
L 218.44505 225.075108 
L 218.69894 225.262383 
L 218.952831 226.465227 
L 219.206721 228.619373 
L 219.460611 224.578948 
L 219.714501 224.437169 
L 219.968392 227.036598 
L 220.476172 225.246653 
L 220.730062 227.142421 
L 220.983953 226.075008 
L 221.237843 227.489304 
L 221.491733 226.900211 
L 221.745623 227.727074 
L 221.999514 227.372378 
L 222.253404 228.299385 
L 222.761184 228.147836 
L 223.015075 228.241232 
L 223.268965 226.203263 
L 223.522855 226.277473 
L 223.776745 228.451975 
L 224.030636 226.206178 
L 224.284526 230.557091 
L 224.792307 224.851465 
L 225.046197 225.504154 
L 225.300087 224.465242 
L 225.553977 227.561049 
L 226.061758 227.232524 
L 226.315648 229.2158 
L 226.569538 227.806827 
L 227.077319 226.849328 
L 227.331209 227.657406 
L 227.585099 225.554159 
L 227.83899 225.499877 
L 228.09288 223.316207 
L 228.34677 228.571462 
L 228.60066 226.405385 
L 228.854551 227.680615 
L 229.108441 227.647962 
L 229.362331 227.397062 
L 229.616221 225.475328 
L 229.870112 226.978884 
L 230.124002 227.309283 
L 230.377892 225.061792 
L 230.631782 228.078488 
L 230.885673 227.829401 
L 231.139563 226.447808 
L 231.647343 222.749321 
L 231.901234 229.249365 
L 232.409014 224.809553 
L 232.662904 228.509178 
L 233.170685 229.00881 
L 233.424575 228.179015 
L 233.932356 229.29382 
L 234.186246 223.248829 
L 234.440136 226.36882 
L 234.694026 224.617545 
L 235.201807 227.577663 
L 235.709587 226.407321 
L 235.963478 226.318411 
L 236.217368 227.99502 
L 236.471258 227.339866 
L 236.725148 227.906369 
L 236.979039 227.741082 
L 237.232929 228.67137 
L 237.486819 228.089018 
L 237.9946 229.391926 
L 238.24849 226.912429 
L 238.50238 228.099216 
L 238.75627 228.503156 
L 239.010161 226.672459 
L 239.517941 228.903128 
L 239.771831 226.725547 
L 240.025722 227.683862 
L 240.279612 225.837143 
L 240.533502 227.896875 
L 240.787393 226.542217 
L 241.041283 226.547429 
L 241.295173 226.728587 
L 241.549063 226.571488 
L 241.802954 225.092223 
L 242.310734 227.979836 
L 242.564624 227.509014 
L 242.818515 228.775216 
L 243.326295 227.693689 
L 243.580185 223.615518 
L 243.834076 226.397979 
L 244.087966 226.9106 
L 244.341856 228.462882 
L 244.595746 225.158289 
L 244.849637 226.495055 
L 245.103527 226.314286 
L 245.611307 225.104643 
L 246.119088 226.866387 
L 246.372978 225.557535 
L 246.626868 225.884654 
L 246.880759 227.304522 
L 247.388539 223.485242 
L 248.15021 228.679451 
L 248.4041 226.044015 
L 248.65799 227.416895 
L 248.911881 226.603821 
L 249.165771 227.551105 
L 249.419661 226.639007 
L 249.673551 227.35698 
L 249.927442 225.201675 
L 250.181332 227.733118 
L 250.435222 227.398571 
L 250.943003 225.257296 
L 251.196893 225.641836 
L 251.450783 227.295883 
L 251.704673 225.174346 
L 251.958564 227.30934 
L 252.212454 226.250465 
L 252.466344 228.675906 
L 252.720234 226.710155 
L 252.974125 228.309763 
L 253.481905 227.173509 
L 253.735795 227.798318 
L 253.989686 229.815716 
L 254.243576 227.295945 
L 254.497466 227.482523 
L 254.751356 227.095461 
L 255.005247 224.052741 
L 255.259137 227.845531 
L 255.513027 226.734935 
L 255.766917 226.360699 
L 256.020808 228.913332 
L 256.274698 228.213278 
L 256.528588 227.99049 
L 256.782479 225.349667 
L 257.036369 227.261609 
L 257.290259 227.339168 
L 257.79804 226.887002 
L 258.05193 227.37351 
L 258.30582 226.493766 
L 258.55971 227.942815 
L 258.813601 226.022662 
L 259.067491 227.104404 
L 259.321381 224.611304 
L 259.829162 227.016191 
L 260.083052 225.228301 
L 260.336942 228.702149 
L 260.590832 226.576491 
L 260.844723 227.497684 
L 261.098613 227.118007 
L 261.352503 227.212584 
L 261.606393 226.006679 
L 261.860284 226.997231 
L 262.114174 225.30416 
L 262.621954 227.354611 
L 262.875845 226.063797 
L 263.129735 227.581507 
L 263.383625 228.063884 
L 263.637515 227.531987 
L 263.891406 224.086396 
L 264.145296 226.060561 
L 264.399186 223.946097 
L 264.653076 226.800574 
L 264.906967 226.005148 
L 265.160857 227.605206 
L 265.414747 227.074632 
L 265.668637 223.164461 
L 265.922528 226.858097 
L 266.176418 224.890455 
L 266.430308 226.857782 
L 266.684198 229.782877 
L 266.938089 226.480287 
L 267.191979 225.972844 
L 267.445869 226.836896 
L 267.699759 226.057364 
L 267.95365 224.689408 
L 268.46143 229.567569 
L 268.71532 226.290367 
L 268.969211 225.321573 
L 269.223101 226.494515 
L 269.476991 228.241676 
L 269.730881 225.980166 
L 269.984772 225.927364 
L 270.238662 226.178337 
L 270.492552 229.063215 
L 270.746442 226.701269 
L 271.000333 225.423472 
L 271.254223 227.940108 
L 271.762003 225.457774 
L 272.015894 229.30641 
L 272.269784 226.423366 
L 272.523674 225.924522 
L 272.777564 226.459548 
L 273.031455 224.31143 
L 273.285345 224.359909 
L 273.793126 225.547518 
L 274.047016 224.038869 
L 274.300906 226.829287 
L 274.554796 227.351786 
L 274.808687 225.27553 
L 275.062577 227.064597 
L 275.316467 227.273765 
L 275.824248 224.069997 
L 276.078138 229.290004 
L 276.332028 226.524067 
L 276.585918 227.572688 
L 276.839809 225.607348 
L 277.093699 226.858823 
L 277.347589 228.724723 
L 277.601479 224.678406 
L 277.85537 227.705699 
L 278.10926 228.517952 
L 278.36315 227.217812 
L 278.61704 227.824049 
L 278.870931 226.75591 
L 279.124821 227.06942 
L 279.378711 226.197061 
L 279.632601 226.526239 
L 279.886492 228.116089 
L 280.140382 225.816787 
L 280.394272 225.375623 
L 280.648162 226.987264 
L 280.902053 224.441705 
L 281.663723 227.675314 
L 281.917614 226.337495 
L 282.171504 226.310098 
L 282.425394 227.836149 
L 282.679284 226.684948 
L 282.933175 229.576371 
L 283.440955 226.385057 
L 283.694845 227.680626 
L 283.948736 226.70939 
L 284.202626 226.426754 
L 284.456516 228.126303 
L 284.710406 225.426354 
L 285.218187 228.49477 
L 285.472077 226.707938 
L 285.725967 227.381462 
L 285.979858 225.492893 
L 286.233748 225.613235 
L 286.995419 227.530518 
L 287.249309 227.254332 
L 287.503199 226.638179 
L 287.757089 224.72209 
L 288.26487 226.82743 
L 288.51876 224.36727 
L 288.77265 227.453511 
L 289.026541 225.308223 
L 289.280431 225.160636 
L 289.534321 226.33158 
L 289.788212 226.7918 
L 290.042102 223.869963 
L 290.295992 227.842025 
L 290.549882 223.735657 
L 290.803773 226.204085 
L 291.057663 226.890244 
L 291.311553 227.248952 
L 291.565443 225.287214 
L 291.819334 224.590058 
L 292.073224 224.547837 
L 292.327114 225.976705 
L 292.581004 226.210399 
L 292.834895 227.243881 
L 293.088785 225.957063 
L 293.342675 223.994284 
L 293.596565 224.60522 
L 293.850456 228.586742 
L 294.358236 225.51662 
L 294.612126 227.53381 
L 294.866017 226.491887 
L 295.119907 226.729239 
L 295.373797 225.205783 
L 295.627687 226.004833 
L 295.881578 225.975388 
L 296.135468 227.961168 
L 296.389358 224.955278 
L 296.643248 223.544324 
L 297.151029 226.783808 
L 297.404919 224.567878 
L 297.658809 224.447812 
L 297.9127 225.83819 
L 298.16659 225.603448 
L 298.42048 226.955314 
L 298.67437 226.678081 
L 298.928261 227.092596 
L 299.182151 226.796465 
L 299.436041 228.01335 
L 299.689931 224.839466 
L 300.197712 226.096473 
L 300.451602 227.117697 
L 300.705492 224.118453 
L 300.959383 227.567173 
L 301.213273 227.29617 
L 301.467163 228.400418 
L 301.721053 225.624508 
L 301.974944 226.121174 
L 302.228834 228.03436 
L 302.482724 223.216851 
L 302.736614 227.748184 
L 302.990505 228.216924 
L 303.244395 225.038892 
L 303.498285 225.395754 
L 303.752175 226.893446 
L 304.006066 226.224081 
L 304.259956 227.916111 
L 304.513846 227.98135 
L 304.767736 226.301049 
L 305.275517 225.582197 
L 305.529407 226.969266 
L 305.783298 225.256272 
L 306.037188 225.93001 
L 306.291078 227.81783 
L 306.544968 226.550366 
L 306.798859 226.256408 
L 307.052749 224.531961 
L 307.306639 228.309662 
L 307.560529 225.339486 
L 308.06831 227.434314 
L 308.57609 226.712952 
L 308.829981 227.981682 
L 309.083871 227.997451 
L 309.337761 228.179825 
L 309.591651 226.713594 
L 309.845542 228.391576 
L 310.099432 227.375761 
L 310.099432 227.375761 
" clip-path="url(#pe2bae74894)" style="fill: none; stroke: #0000ff; stroke-width: 0.6; stroke-linecap: square"/>
   </g>
   <g id="line2d_24">
    <path d="M 56.463068 120.748775 
L 56.716958 162.514847 
L 56.970849 129.3392 
L 57.224739 179.346417 
L 57.478629 177.222825 
L 57.732519 185.630736 
L 57.98641 188.683851 
L 58.2403 188.668757 
L 58.49419 157.404449 
L 58.74808 189.692575 
L 59.001971 187.115534 
L 59.255861 188.784028 
L 59.509751 191.19415 
L 59.763641 190.445673 
L 60.017532 179.20878 
L 60.271422 191.430912 
L 60.525312 189.709538 
L 60.779202 180.451633 
L 61.033093 185.301873 
L 61.286983 186.32724 
L 61.540873 190.39752 
L 61.794764 187.95743 
L 62.048654 187.258068 
L 62.302544 179.541853 
L 62.556434 185.995225 
L 62.810325 186.802294 
L 63.064215 186.338563 
L 63.318105 188.083552 
L 63.571995 149.573301 
L 63.825886 190.510096 
L 64.079776 188.647674 
L 64.333666 180.750161 
L 64.587556 190.801747 
L 64.841447 191.425082 
L 65.095337 182.690766 
L 65.349227 189.262128 
L 65.603117 190.925247 
L 65.857008 184.329218 
L 66.110898 187.346854 
L 66.364788 184.354915 
L 66.618678 176.909135 
L 66.872569 148.78226 
L 67.126459 191.567395 
L 67.380349 188.775789 
L 67.634239 187.581933 
L 67.88813 166.651994 
L 68.39591 188.937986 
L 68.6498 185.384773 
L 68.903691 189.8923 
L 69.157581 184.259229 
L 69.411471 191.620022 
L 69.665361 183.403354 
L 69.919252 189.268566 
L 70.173142 187.435719 
L 70.427032 186.602885 
L 70.680922 175.3722 
L 70.934813 174.741138 
L 71.188703 191.753427 
L 71.442593 182.830835 
L 71.696483 187.855159 
L 72.204264 177.994833 
L 72.458154 176.239061 
L 72.712044 190.423291 
L 72.965935 170.120585 
L 73.219825 183.75008 
L 73.473715 160.259505 
L 73.727605 184.937633 
L 74.235386 182.057544 
L 74.489276 184.785588 
L 74.743166 158.868368 
L 74.997057 186.847329 
L 75.250947 175.74002 
L 75.504837 159.546253 
L 75.758727 184.358382 
L 76.012618 188.658109 
L 76.266508 139.265114 
L 76.520398 185.783614 
L 76.774288 182.035539 
L 77.028179 188.822974 
L 77.282069 186.518139 
L 77.535959 189.357651 
L 77.78985 187.527939 
L 78.04374 180.3437 
L 78.29763 186.581949 
L 78.55152 107.896814 
L 78.805411 179.193427 
L 79.059301 186.646254 
L 79.313191 188.946147 
L 79.567081 173.461794 
L 79.820972 181.392208 
L 80.074862 171.565717 
L 80.582642 140.05718 
L 80.836533 179.141661 
L 81.090423 182.715574 
L 81.344313 181.768785 
L 81.598203 183.707612 
L 81.852094 180.243995 
L 82.105984 186.501391 
L 82.359874 180.010672 
L 82.613764 185.011077 
L 82.867655 183.005245 
L 83.121545 185.418349 
L 83.375435 177.497446 
L 83.629325 174.75773 
L 83.883216 181.950377 
L 84.137106 181.278681 
L 84.390996 181.154585 
L 84.644886 181.441937 
L 84.898777 157.272553 
L 85.152667 159.453336 
L 85.406557 185.107563 
L 85.914338 165.64207 
L 86.168228 182.324792 
L 86.422118 142.326862 
L 86.929899 176.054081 
L 87.183789 181.916237 
L 87.437679 166.186022 
L 87.691569 185.061808 
L 87.94546 128.496044 
L 88.19935 177.97357 
L 88.961021 183.411841 
L 89.214911 156.430995 
L 89.468801 173.106491 
L 89.722691 76.984759 
L 89.976582 186.46706 
L 90.230472 185.782128 
L 90.484362 173.9261 
L 90.738252 170.69602 
L 90.992143 170.033397 
L 91.246033 131.727643 
L 91.499923 183.785244 
L 91.753813 95.295555 
L 92.007704 184.986168 
L 92.261594 178.553361 
L 92.769374 187.358999 
L 93.023265 166.404724 
L 93.277155 184.341645 
L 94.038826 177.466425 
L 94.292716 168.489529 
L 94.546606 179.175575 
L 94.800497 185.170191 
L 95.054387 173.103418 
L 95.308277 184.540457 
L 95.562167 177.950282 
L 95.816058 178.324833 
L 96.069948 172.858591 
L 96.323838 172.609971 
L 96.577728 180.390232 
L 96.831619 171.532693 
L 97.085509 168.33664 
L 97.339399 175.349238 
L 97.593289 177.643019 
L 97.84718 177.734687 
L 98.35496 186.077955 
L 98.60885 178.739353 
L 98.862741 161.091473 
L 99.116631 181.517802 
L 99.370521 163.436975 
L 99.624411 183.279629 
L 99.878302 168.232917 
L 100.132192 176.102831 
L 100.386082 171.403385 
L 100.639972 181.347815 
L 100.893863 171.382517 
L 101.147753 177.214372 
L 101.401643 153.158549 
L 101.655533 179.415213 
L 101.909424 177.146904 
L 102.163314 178.125243 
L 102.417204 181.617776 
L 102.671094 178.250578 
L 102.924985 46.498909 
L 103.178875 177.404968 
L 103.432765 179.140806 
L 103.686655 184.310871 
L 104.194436 177.806454 
L 104.448326 180.642397 
L 104.702216 178.64522 
L 105.209997 182.344828 
L 105.463887 166.54755 
L 105.717777 176.466981 
L 105.971668 171.829263 
L 106.479448 179.968665 
L 106.733338 174.7952 
L 106.987229 166.663103 
L 107.241119 176.631159 
L 107.495009 177.257201 
L 107.748899 177.280331 
L 108.00279 173.648338 
L 108.25668 177.560839 
L 108.51057 174.954764 
L 108.76446 175.88199 
L 109.018351 178.317685 
L 109.526131 168.923364 
L 110.033912 161.261763 
L 110.287802 161.041508 
L 110.541692 179.688506 
L 110.795583 173.691347 
L 111.049473 182.562089 
L 111.303363 176.799075 
L 111.557253 167.393982 
L 111.811144 166.807381 
L 112.826705 174.601757 
L 113.080595 174.778609 
L 113.334485 173.877677 
L 113.588375 179.929438 
L 113.842266 178.681262 
L 114.350046 170.97475 
L 114.603936 177.270179 
L 114.857827 176.269924 
L 115.111717 180.998995 
L 115.365607 167.883613 
L 115.619497 170.923243 
L 115.873388 171.857459 
L 116.127278 178.889124 
L 116.381168 180.199231 
L 116.635058 171.112432 
L 116.888949 169.349591 
L 117.142839 179.650439 
L 117.396729 178.221459 
L 117.650619 136.545917 
L 117.90451 178.30769 
L 118.1584 178.36998 
L 118.41229 178.685505 
L 118.66618 149.384607 
L 118.920071 167.995665 
L 119.173961 174.899925 
L 119.427851 174.685467 
L 119.681741 173.518828 
L 119.935632 183.745634 
L 120.189522 176.452844 
L 120.443412 173.119233 
L 120.697302 178.268632 
L 120.951193 177.384167 
L 121.205083 174.909932 
L 121.458973 174.608837 
L 121.712863 171.188004 
L 121.966754 158.076572 
L 122.220644 171.889268 
L 122.474534 179.241321 
L 122.728424 161.671027 
L 122.982315 171.029352 
L 123.490095 179.368085 
L 123.997876 172.049664 
L 124.251766 178.297706 
L 124.505656 178.108056 
L 124.759546 170.767776 
L 125.013437 171.010127 
L 125.267327 175.797942 
L 125.521217 167.216105 
L 125.775107 164.613136 
L 126.028998 173.27874 
L 126.282888 163.745453 
L 126.790669 178.04401 
L 127.044559 177.427153 
L 127.298449 177.402323 
L 127.552339 173.753277 
L 127.80623 166.897383 
L 128.5679 175.315853 
L 128.821791 170.466017 
L 129.075681 177.75139 
L 129.329571 178.568005 
L 129.583461 176.718516 
L 129.837352 166.532152 
L 130.091242 174.838006 
L 130.345132 174.096908 
L 130.599022 174.898957 
L 130.852913 176.162093 
L 131.106803 171.308228 
L 131.360693 176.396744 
L 131.614583 165.597869 
L 132.122364 176.213769 
L 132.376254 157.727482 
L 132.630144 175.632436 
L 132.884035 170.89508 
L 133.137925 170.665505 
L 133.391815 170.938382 
L 133.645705 173.182772 
L 133.899596 168.740287 
L 134.153486 124.186795 
L 134.661266 177.745852 
L 134.915157 175.624703 
L 135.169047 172.564936 
L 135.422937 173.045214 
L 135.676827 175.378616 
L 135.930718 156.226757 
L 136.184608 180.084511 
L 136.692388 167.760969 
L 137.200169 175.637174 
L 137.454059 175.015804 
L 137.707949 170.428918 
L 137.96184 174.053437 
L 138.21573 171.342277 
L 138.46962 174.206562 
L 138.72351 174.376774 
L 138.977401 173.528305 
L 139.231291 174.838277 
L 139.485181 167.401838 
L 139.992962 176.469176 
L 140.246852 163.148002 
L 140.500742 136.459123 
L 140.754632 174.255998 
L 141.008523 164.015921 
L 141.262413 171.714892 
L 141.516303 173.655035 
L 141.770193 171.948541 
L 142.024084 166.221614 
L 142.277974 176.248268 
L 142.531864 166.975026 
L 142.785755 168.738858 
L 143.039645 167.795907 
L 143.293535 166.091439 
L 143.547425 178.320938 
L 143.801316 176.172426 
L 144.309096 174.896965 
L 144.562986 114.078828 
L 144.816877 169.217694 
L 145.070767 169.792049 
L 145.324657 169.339438 
L 145.578547 164.601655 
L 145.832438 176.343448 
L 146.086328 154.3175 
L 146.340218 172.991985 
L 146.594108 168.8968 
L 146.847999 160.092513 
L 147.101889 170.894596 
L 147.355779 171.878068 
L 147.609669 171.086509 
L 147.86356 174.764945 
L 148.11745 164.507623 
L 148.37134 173.158493 
L 148.62523 171.211146 
L 148.879121 162.88117 
L 149.133011 168.395542 
L 149.386901 158.305089 
L 149.640791 174.057028 
L 149.894682 166.561114 
L 150.148572 168.004422 
L 150.402462 157.693591 
L 150.656352 175.372965 
L 150.910243 169.439931 
L 151.164133 166.797746 
L 151.418023 172.656559 
L 151.671913 173.260348 
L 152.179694 158.837673 
L 152.433584 172.01431 
L 152.687474 154.750075 
L 152.941365 157.926193 
L 153.195255 171.011894 
L 153.449145 172.896659 
L 153.956926 165.972858 
L 154.210816 177.68426 
L 154.464706 174.877323 
L 154.718596 169.618955 
L 154.972487 176.272355 
L 155.226377 160.52932 
L 155.480267 171.154641 
L 155.734157 152.525686 
L 156.241938 171.227444 
L 156.495828 170.726569 
L 156.749718 164.679973 
L 157.257499 172.602283 
L 157.511389 170.53129 
L 157.765279 166.164648 
L 158.01917 171.824952 
L 158.27306 167.438161 
L 158.52695 176.264465 
L 158.78084 163.523791 
L 159.034731 172.542031 
L 159.288621 171.577097 
L 159.542511 173.4882 
L 159.796402 173.841984 
L 160.304182 177.799509 
L 160.558072 172.895567 
L 160.811963 165.4448 
L 161.065853 166.982523 
L 161.319743 172.302359 
L 161.573633 170.734054 
L 161.827524 172.79728 
L 162.335304 162.162088 
L 162.589194 173.69792 
L 162.843085 173.802037 
L 163.096975 177.278834 
L 163.350865 177.610084 
L 163.604755 174.208318 
L 163.858646 166.694541 
L 164.112536 176.298233 
L 164.366426 155.452949 
L 164.620316 166.394887 
L 164.874207 171.732721 
L 165.128097 171.964919 
L 165.381987 175.933384 
L 165.635877 169.960954 
L 165.889768 174.762198 
L 166.143658 174.842419 
L 166.397548 172.546837 
L 166.651438 165.411966 
L 166.905329 162.231503 
L 167.159219 176.092014 
L 167.413109 144.483118 
L 167.666999 172.423934 
L 167.92089 176.87414 
L 168.17478 153.927562 
L 168.42867 161.144207 
L 168.68256 178.328772 
L 168.936451 177.31303 
L 169.190341 175.310968 
L 169.698121 168.374718 
L 169.952012 180.805709 
L 170.205902 176.20957 
L 170.459792 176.293472 
L 170.713682 174.6129 
L 170.967573 176.830006 
L 171.221463 171.90094 
L 171.475353 169.561573 
L 171.729243 171.675687 
L 172.237024 161.09754 
L 172.490914 175.512257 
L 172.998695 169.312075 
L 173.252585 175.608393 
L 173.506475 167.841842 
L 173.760365 167.331534 
L 174.268146 175.431057 
L 174.522036 164.553322 
L 174.775926 173.97495 
L 175.029817 169.92587 
L 175.283707 173.689231 
L 175.537597 164.87335 
L 175.791488 172.00553 
L 176.045378 175.288625 
L 176.299268 155.755901 
L 176.553158 178.557582 
L 176.807049 169.881026 
L 177.060939 175.472715 
L 177.314829 172.628701 
L 177.82261 163.437988 
L 178.0765 169.028483 
L 178.58428 172.811181 
L 178.838171 164.467507 
L 179.092061 168.202492 
L 179.345951 176.654842 
L 179.599841 164.784664 
L 179.853732 177.826456 
L 180.107622 176.392467 
L 180.361512 172.139543 
L 180.615402 175.674454 
L 180.869293 175.431541 
L 181.123183 166.847081 
L 181.377073 170.504873 
L 181.630963 168.03532 
L 181.884854 162.348013 
L 182.138744 172.229106 
L 182.392634 167.984409 
L 182.646524 171.857639 
L 182.900415 170.961468 
L 183.154305 163.527967 
L 183.662085 177.365842 
L 183.915976 160.699734 
L 184.169866 173.490767 
L 184.423756 168.26333 
L 184.677646 168.069144 
L 184.931537 167.625347 
L 185.185427 174.834405 
L 185.439317 177.654984 
L 185.693207 174.800614 
L 185.947098 177.749882 
L 186.200988 177.243063 
L 186.454878 172.701583 
L 186.708768 170.541443 
L 186.962659 170.196923 
L 187.216549 172.989351 
L 187.470439 162.070262 
L 187.724329 171.754186 
L 187.97822 166.025423 
L 188.23211 176.505544 
L 188.486 165.169695 
L 188.73989 161.132455 
L 188.993781 163.250825 
L 189.247671 171.771014 
L 189.501561 171.172054 
L 189.755451 172.707661 
L 190.009342 175.439611 
L 190.263232 167.239844 
L 190.517122 121.994554 
L 190.771012 172.802965 
L 191.024903 175.851318 
L 191.278793 158.780819 
L 191.532683 174.222636 
L 191.786574 169.850241 
L 192.040464 174.086575 
L 192.294354 170.291168 
L 192.548244 179.592246 
L 192.802135 174.203174 
L 193.056025 174.462656 
L 193.309915 164.518114 
L 193.563805 168.458248 
L 193.817696 169.660073 
L 194.071586 174.053674 
L 194.325476 169.841192 
L 194.579366 171.2136 
L 194.833257 163.140393 
L 195.087147 175.555457 
L 195.341037 172.754238 
L 195.594927 160.999197 
L 195.848818 175.496814 
L 196.356598 163.576615 
L 196.610488 145.969762 
L 196.864379 169.195183 
L 197.118269 178.985936 
L 197.372159 171.676791 
L 197.626049 175.008781 
L 197.87994 174.241129 
L 198.38772 176.418209 
L 198.64161 177.144495 
L 199.149391 170.89194 
L 199.403281 171.009947 
L 199.657171 171.736942 
L 199.911062 173.078936 
L 200.164952 136.414156 
L 200.418842 172.16273 
L 200.672732 170.705014 
L 200.926623 135.324304 
L 201.180513 159.53269 
L 201.434403 170.380191 
L 201.688293 168.831133 
L 201.942184 171.181284 
L 202.196074 166.649157 
L 202.449964 172.017776 
L 202.703854 171.714442 
L 202.957745 170.77068 
L 203.211635 174.191671 
L 203.465525 159.748578 
L 203.719415 177.856014 
L 203.973306 174.687887 
L 204.227196 145.439239 
L 204.481086 173.07915 
L 204.988867 169.950835 
L 205.242757 166.287224 
L 205.496647 173.561105 
L 205.750537 166.440135 
L 206.004428 170.95441 
L 206.258318 177.489319 
L 206.512208 166.973113 
L 206.766098 172.221001 
L 207.019989 109.110457 
L 207.273879 169.382503 
L 207.527769 177.492122 
L 207.78166 149.708214 
L 208.03555 157.893383 
L 208.28944 170.433634 
L 208.54333 177.070747 
L 208.797221 160.606479 
L 209.051111 170.180726 
L 209.558891 159.480665 
L 209.812782 167.993605 
L 210.066672 171.560056 
L 210.320562 170.410222 
L 210.828343 174.120646 
L 211.082233 171.061049 
L 211.336123 173.384883 
L 211.590013 163.01892 
L 211.843904 171.135619 
L 212.097794 161.831615 
L 212.351684 145.959373 
L 212.605574 169.838412 
L 213.113355 173.758038 
L 213.367245 174.088286 
L 213.875026 164.541571 
L 214.128916 171.100692 
L 214.382806 156.093195 
L 214.890587 172.591174 
L 215.144477 171.682306 
L 215.398367 173.78172 
L 215.652257 174.449521 
L 215.906148 169.567921 
L 216.160038 170.140249 
L 216.413928 155.461053 
L 216.667818 177.20862 
L 216.921709 165.449505 
L 217.175599 169.789719 
L 217.429489 160.865837 
L 217.683379 174.113994 
L 217.93727 167.541288 
L 218.19116 171.217899 
L 218.44505 171.770473 
L 218.69894 171.929058 
L 218.952831 175.792326 
L 219.206721 167.650368 
L 219.460611 164.642615 
L 219.714501 173.056019 
L 220.222282 166.26908 
L 220.730062 180.520575 
L 220.983953 167.62529 
L 221.237843 176.184301 
L 221.745623 176.276633 
L 221.999514 162.193931 
L 222.253404 177.403763 
L 222.507294 174.304185 
L 222.761184 166.887163 
L 223.015075 169.933951 
L 223.268965 171.178673 
L 223.522855 171.422813 
L 223.776745 169.210513 
L 224.030636 170.786101 
L 224.284526 164.704523 
L 224.538416 170.834636 
L 224.792307 170.035536 
L 225.046197 167.639833 
L 225.300087 168.000055 
L 225.553977 158.162072 
L 225.807868 172.119653 
L 226.061758 172.456114 
L 226.315648 171.994049 
L 226.569538 169.639464 
L 226.823429 174.741622 
L 227.077319 177.377616 
L 227.331209 166.652196 
L 227.585099 176.860847 
L 228.09288 167.389637 
L 228.34677 175.808984 
L 228.60066 175.073007 
L 228.854551 172.199446 
L 229.362331 169.693447 
L 229.616221 170.048086 
L 229.870112 173.118771 
L 230.124002 166.94656 
L 230.631782 171.928315 
L 230.885673 170.14877 
L 231.139563 166.731899 
L 231.393453 170.004515 
L 231.647343 171.376405 
L 231.901234 164.704478 
L 232.155124 171.596772 
L 232.409014 172.074686 
L 232.662904 174.678916 
L 232.916795 170.702717 
L 233.170685 164.896964 
L 233.424575 175.077284 
L 233.678465 167.231435 
L 233.932356 170.654137 
L 234.186246 176.240546 
L 234.440136 175.184587 
L 234.694026 150.196145 
L 234.947917 168.03837 
L 235.201807 160.712172 
L 235.455697 157.551935 
L 235.709587 156.497 
L 235.963478 170.011358 
L 236.217368 172.344175 
L 236.471258 169.582025 
L 236.725148 159.854046 
L 236.979039 169.210536 
L 237.232929 168.467501 
L 237.486819 173.728941 
L 237.740709 173.760176 
L 237.9946 175.903117 
L 238.24849 170.513416 
L 238.75627 173.26324 
L 239.010161 173.750935 
L 239.264051 175.595888 
L 239.517941 169.353801 
L 239.771831 170.97323 
L 240.025722 174.173909 
L 240.279612 155.626323 
L 240.533502 173.386549 
L 240.787393 174.464773 
L 241.041283 171.10301 
L 241.295173 171.666041 
L 241.549063 176.366106 
L 241.802954 172.809887 
L 242.056844 132.447851 
L 242.310734 173.794574 
L 242.564624 174.281099 
L 242.818515 146.505689 
L 243.072405 166.644126 
L 243.326295 174.714417 
L 243.580185 170.558484 
L 243.834076 176.007763 
L 244.341856 174.442396 
L 244.595746 157.298183 
L 244.849637 172.083319 
L 245.103527 165.239504 
L 245.357417 170.248655 
L 245.611307 151.528246 
L 246.119088 173.210428 
L 246.372978 166.240951 
L 246.626868 173.111398 
L 246.880759 167.365583 
L 247.134649 173.180757 
L 247.388539 175.217555 
L 247.642429 178.712733 
L 247.89632 156.576241 
L 248.15021 172.40696 
L 248.4041 175.003603 
L 248.65799 173.146753 
L 248.911881 179.017993 
L 249.165771 173.483147 
L 249.419661 175.4215 
L 249.673551 176.231046 
L 249.927442 172.523154 
L 250.181332 162.718275 
L 250.435222 167.834954 
L 250.689112 144.887891 
L 250.943003 155.876958 
L 251.196893 154.493711 
L 251.958564 173.548746 
L 252.212454 158.963502 
L 252.466344 173.781585 
L 252.720234 169.42388 
L 252.974125 169.74877 
L 253.228015 169.750784 
L 253.481905 175.090037 
L 253.735795 170.564371 
L 253.989686 169.61111 
L 254.243576 178.46722 
L 254.751356 163.448208 
L 255.259137 175.064441 
L 255.513027 170.906055 
L 255.766917 170.481325 
L 256.274698 166.949667 
L 256.528588 168.653133 
L 256.782479 177.25056 
L 257.290259 170.287724 
L 257.544149 174.141087 
L 257.79804 160.176223 
L 258.05193 170.088821 
L 258.30582 167.024609 
L 258.55971 117.115914 
L 258.813601 174.201959 
L 259.067491 167.556629 
L 259.321381 172.875937 
L 259.575271 163.543703 
L 260.083052 170.316944 
L 260.336942 174.137012 
L 260.590832 160.921486 
L 260.844723 176.707913 
L 261.098613 169.581203 
L 261.352503 170.421579 
L 261.606393 173.198496 
L 261.860284 169.108917 
L 262.114174 175.405067 
L 262.368064 175.790806 
L 262.621954 172.504661 
L 262.875845 140.983359 
L 263.129735 159.752754 
L 263.383625 167.012463 
L 263.637515 152.73204 
L 263.891406 171.737629 
L 264.145296 180.826116 
L 264.399186 174.795651 
L 264.653076 174.8038 
L 264.906967 169.342961 
L 265.160857 174.439312 
L 265.414747 154.073078 
L 265.668637 173.740242 
L 265.922528 163.260651 
L 266.176418 169.984997 
L 266.430308 170.9199 
L 266.684198 160.062876 
L 266.938089 171.07845 
L 267.191979 120.897195 
L 267.445869 169.210817 
L 267.699759 166.740679 
L 267.95365 174.202859 
L 268.20754 172.721033 
L 268.46143 172.614158 
L 268.71532 146.639105 
L 268.969211 172.003256 
L 269.476991 157.878063 
L 269.730881 171.16682 
L 269.984772 169.617616 
L 270.238662 175.802006 
L 270.492552 168.624588 
L 270.746442 169.334789 
L 271.000333 170.552721 
L 271.254223 176.728073 
L 271.508113 173.625545 
L 271.762003 155.443944 
L 272.015894 174.722904 
L 272.269784 168.296749 
L 272.523674 170.702481 
L 272.777564 174.877537 
L 273.031455 169.299277 
L 273.285345 168.201839 
L 273.539235 173.430098 
L 273.793126 133.564413 
L 274.047016 172.224243 
L 274.300906 153.652164 
L 274.554796 178.915812 
L 274.808687 173.239817 
L 275.062577 176.089222 
L 275.316467 175.775217 
L 275.570357 164.682337 
L 276.078138 173.57827 
L 276.332028 176.308521 
L 276.585918 166.177614 
L 276.839809 171.061274 
L 277.093699 172.025127 
L 277.347589 166.309488 
L 277.601479 169.366024 
L 277.85537 166.809936 
L 278.10926 176.079508 
L 278.36315 170.81719 
L 278.61704 176.726159 
L 279.124821 165.303842 
L 279.378711 173.83845 
L 279.632601 170.242419 
L 279.886492 173.995582 
L 280.140382 164.380342 
L 280.394272 169.283766 
L 280.648162 157.963642 
L 280.902053 169.325683 
L 281.155943 173.330517 
L 281.409833 167.89327 
L 281.917614 178.49241 
L 282.171504 163.669881 
L 282.425394 163.599825 
L 282.679284 172.168054 
L 282.933175 172.542571 
L 283.187065 170.24906 
L 283.440955 164.848373 
L 283.694845 168.611486 
L 283.948736 167.055461 
L 284.202626 176.67365 
L 284.456516 173.238117 
L 284.710406 161.456794 
L 284.964297 172.920015 
L 285.218187 177.998333 
L 285.472077 173.903239 
L 285.725967 164.071165 
L 285.979858 170.476463 
L 286.233748 170.631738 
L 286.487638 171.933357 
L 286.741528 164.275718 
L 286.995419 166.434552 
L 287.503199 156.125724 
L 287.757089 157.640755 
L 288.01098 172.394882 
L 288.26487 174.388998 
L 288.51876 171.830962 
L 288.77265 167.571453 
L 289.026541 175.582415 
L 289.280431 163.098161 
L 289.534321 174.373071 
L 289.788212 168.419067 
L 290.042102 170.074357 
L 290.295992 167.908601 
L 290.549882 174.873541 
L 290.803773 167.095881 
L 291.057663 168.64567 
L 291.311553 175.918639 
L 291.565443 168.486163 
L 291.819334 172.039129 
L 292.073224 168.552708 
L 292.327114 177.278643 
L 292.581004 147.960208 
L 292.834895 174.722577 
L 293.088785 172.706231 
L 293.342675 176.535608 
L 293.596565 175.480549 
L 293.850456 169.10625 
L 294.104346 169.370561 
L 294.358236 176.549048 
L 294.866017 170.132348 
L 295.119907 178.631556 
L 295.627687 158.594433 
L 295.881578 172.112709 
L 296.389358 166.312246 
L 296.643248 166.794707 
L 296.897139 174.573032 
L 297.151029 168.662802 
L 297.404919 165.385312 
L 297.658809 168.746872 
L 297.9127 179.228906 
L 298.16659 176.031254 
L 298.42048 178.23205 
L 298.67437 174.62563 
L 298.928261 164.065976 
L 299.182151 171.780165 
L 299.436041 172.337309 
L 299.689931 172.143043 
L 300.197712 167.239664 
L 300.451602 160.934318 
L 300.705492 170.679665 
L 300.959383 164.707956 
L 301.213273 174.910393 
L 301.467163 174.062915 
L 301.721053 172.011743 
L 301.974944 171.677511 
L 302.228834 172.08512 
L 302.482724 171.17453 
L 302.736614 173.057742 
L 302.990505 171.404083 
L 303.244395 163.946394 
L 303.498285 175.159081 
L 303.752175 174.60537 
L 304.006066 173.743484 
L 304.259956 170.88898 
L 304.513846 172.722643 
L 304.767736 164.612731 
L 305.021627 176.022216 
L 305.275517 164.494499 
L 305.529407 161.632611 
L 305.783298 162.100991 
L 306.037188 172.909513 
L 306.291078 172.468586 
L 306.544968 172.324736 
L 306.798859 165.861121 
L 307.052749 144.100925 
L 307.306639 170.493549 
L 307.560529 168.1107 
L 307.81442 167.736194 
L 308.06831 175.231659 
L 308.3222 168.495787 
L 308.57609 174.841068 
L 309.083871 168.583279 
L 309.337761 177.403032 
L 309.591651 167.078108 
L 310.099432 178.288791 
L 310.099432 178.288791 
" clip-path="url(#pe2bae74894)" style="fill: none; stroke: #ff0000; stroke-width: 0.6; stroke-linecap: square"/>
   </g>
   <g id="patch_3">
    <path d="M 43.78125 239.76 
L 43.78125 37.296 
" style="fill: none; stroke: #000000; stroke-width: 0.8; stroke-linejoin: miter; stroke-linecap: square"/>
   </g>
   <g id="patch_4">
    <path d="M 322.78125 239.76 
L 322.78125 37.296 
" style="fill: none; stroke: #000000; stroke-width: 0.8; stroke-linejoin: miter; stroke-linecap: square"/>
   </g>
   <g id="patch_5">
    <path d="M 43.78125 239.76 
L 322.78125 239.76 
" style="fill: none; stroke: #000000; stroke-width: 0.8; stroke-linejoin: miter; stroke-linecap: square"/>
   </g>
   <g id="patch_6">
    <path d="M 43.78125 37.296 
L 322.78125 37.296 
" style="fill: none; stroke: #000000; stroke-width: 0.8; stroke-linejoin: miter; stroke-linecap: square"/>
   </g>
   <g id="text_14">
    <!-- Baseline Model -->
    <g transform="translate(149.259844 31.296) scale(0.09 -0.09)">
     <defs>
      <path id="DejaVuSans-42" d="M 1259 2228 
L 1259 519 
L 2272 519 
Q 2781 519 3026 730 
Q 3272 941 3272 1375 
Q 3272 1813 3026 2020 
Q 2781 2228 2272 2228 
L 1259 2228 
z
M 1259 4147 
L 1259 2741 
L 2194 2741 
Q 2656 2741 2882 2914 
Q 3109 3088 3109 3444 
Q 3109 3797 2882 3972 
Q 2656 4147 2194 4147 
L 1259 4147 
z
M 628 4666 
L 2241 4666 
Q 2963 4666 3353 4366 
Q 3744 4066 3744 3513 
Q 3744 3084 3544 2831 
Q 3344 2578 2956 2516 
Q 3422 2416 3680 2098 
Q 3938 1781 3938 1306 
Q 3938 681 3513 340 
Q 3088 0 2303 0 
L 628 0 
L 628 4666 
z
" transform="scale(0.015625)"/>
      <path id="DejaVuSans-61" d="M 2194 1759 
Q 1497 1759 1228 1600 
Q 959 1441 959 1056 
Q 959 750 1161 570 
Q 1363 391 1709 391 
Q 2188 391 2477 730 
Q 2766 1069 2766 1631 
L 2766 1759 
L 2194 1759 
z
M 3341 1997 
L 3341 0 
L 2766 0 
L 2766 531 
Q 2569 213 2275 61 
Q 1981 -91 1556 -91 
Q 1019 -91 701 211 
Q 384 513 384 1019 
Q 384 1609 779 1909 
Q 1175 2209 1959 2209 
L 2766 2209 
L 2766 2266 
Q 2766 2663 2505 2880 
Q 2244 3097 1772 3097 
Q 1472 3097 1187 3025 
Q 903 2953 641 2809 
L 641 3341 
Q 956 3463 1253 3523 
Q 1550 3584 1831 3584 
Q 2591 3584 2966 3190 
Q 3341 2797 3341 1997 
z
" transform="scale(0.015625)"/>
      <path id="DejaVuSans-65" d="M 3597 1894 
L 3597 1613 
L 953 1613 
Q 991 1019 1311 708 
Q 1631 397 2203 397 
Q 2534 397 2845 478 
Q 3156 559 3463 722 
L 3463 178 
Q 3153 47 2828 -22 
Q 2503 -91 2169 -91 
Q 1331 -91 842 396 
Q 353 884 353 1716 
Q 353 2575 817 3079 
Q 1281 3584 2069 3584 
Q 2775 3584 3186 3129 
Q 3597 2675 3597 1894 
z
M 3022 2063 
Q 3016 2534 2758 2815 
Q 2500 3097 2075 3097 
Q 1594 3097 1305 2825 
Q 1016 2553 972 2059 
L 3022 2063 
z
" transform="scale(0.015625)"/>
      <path id="DejaVuSans-6c" d="M 603 4863 
L 1178 4863 
L 1178 0 
L 603 0 
L 603 4863 
z
" transform="scale(0.015625)"/>
      <path id="DejaVuSans-69" d="M 603 3500 
L 1178 3500 
L 1178 0 
L 603 0 
L 603 3500 
z
M 603 4863 
L 1178 4863 
L 1178 4134 
L 603 4134 
L 603 4863 
z
" transform="scale(0.015625)"/>
      <path id="DejaVuSans-6e" d="M 3513 2113 
L 3513 0 
L 2938 0 
L 2938 2094 
Q 2938 2591 2744 2837 
Q 2550 3084 2163 3084 
Q 1697 3084 1428 2787 
Q 1159 2491 1159 1978 
L 1159 0 
L 581 0 
L 581 3500 
L 1159 3500 
L 1159 2956 
Q 1366 3272 1645 3428 
Q 1925 3584 2291 3584 
Q 2894 3584 3203 3211 
Q 3513 2838 3513 2113 
z
" transform="scale(0.015625)"/>
      <path id="DejaVuSans-20" transform="scale(0.015625)"/>
      <path id="DejaVuSans-4d" d="M 628 4666 
L 1569 4666 
L 2759 1491 
L 3956 4666 
L 4897 4666 
L 4897 0 
L 4281 0 
L 4281 4097 
L 3078 897 
L 2444 897 
L 1241 4097 
L 1241 0 
L 628 0 
L 628 4666 
z
" transform="scale(0.015625)"/>
      <path id="DejaVuSans-64" d="M 2906 2969 
L 2906 4863 
L 3481 4863 
L 3481 0 
L 2906 0 
L 2906 525 
Q 2725 213 2448 61 
Q 2172 -91 1784 -91 
Q 1150 -91 751 415 
Q 353 922 353 1747 
Q 353 2572 751 3078 
Q 1150 3584 1784 3584 
Q 2172 3584 2448 3432 
Q 2725 3281 2906 2969 
z
M 947 1747 
Q 947 1113 1208 752 
Q 1469 391 1925 391 
Q 2381 391 2643 752 
Q 2906 1113 2906 1747 
Q 2906 2381 2643 2742 
Q 2381 3103 1925 3103 
Q 1469 3103 1208 2742 
Q 947 2381 947 1747 
z
" transform="scale(0.015625)"/>
     </defs>
     <use xlink:href="#DejaVuSans-42"/>
     <use xlink:href="#DejaVuSans-61" x="68.603516"/>
     <use xlink:href="#DejaVuSans-73" x="129.882812"/>
     <use xlink:href="#DejaVuSans-65" x="181.982422"/>
     <use xlink:href="#DejaVuSans-6c" x="243.505859"/>
     <use xlink:href="#DejaVuSans-69" x="271.289062"/>
     <use xlink:href="#DejaVuSans-6e" x="299.072266"/>
     <use xlink:href="#DejaVuSans-65" x="362.451172"/>
     <use xlink:href="#DejaVuSans-20" x="423.974609"/>
     <use xlink:href="#DejaVuSans-4d" x="455.761719"/>
     <use xlink:href="#DejaVuSans-6f" x="542.041016"/>
     <use xlink:href="#DejaVuSans-64" x="603.222656"/>
     <use xlink:href="#DejaVuSans-65" x="666.699219"/>
     <use xlink:href="#DejaVuSans-6c" x="728.222656"/>
    </g>
   </g>
   <g id="legend_1">
    <g id="patch_7">
     <path d="M 209.2875 74.65225 
L 315.78125 74.65225 
Q 317.78125 74.65225 317.78125 72.65225 
L 317.78125 44.296 
Q 317.78125 42.296 315.78125 42.296 
L 209.2875 42.296 
Q 207.2875 42.296 207.2875 44.296 
L 207.2875 72.65225 
Q 207.2875 74.65225 209.2875 74.65225 
z
" style="fill: #ffffff; opacity: 0.8; stroke: #cccccc; stroke-linejoin: miter"/>
    </g>
    <g id="line2d_25">
     <path d="M 211.2875 50.394438 
L 221.2875 50.394438 
L 231.2875 50.394438 
" style="fill: none; stroke: #0000ff; stroke-width: 0.6; stroke-linecap: square"/>
    </g>
    <g id="text_15">
     <!-- Training Loss -->
     <g transform="translate(239.2875 53.894438) scale(0.1 -0.1)">
      <defs>
       <path id="DejaVuSans-54" d="M -19 4666 
L 3928 4666 
L 3928 4134 
L 2272 4134 
L 2272 0 
L 1638 0 
L 1638 4134 
L -19 4134 
L -19 4666 
z
" transform="scale(0.015625)"/>
       <path id="DejaVuSans-72" d="M 2631 2963 
Q 2534 3019 2420 3045 
Q 2306 3072 2169 3072 
Q 1681 3072 1420 2755 
Q 1159 2438 1159 1844 
L 1159 0 
L 581 0 
L 581 3500 
L 1159 3500 
L 1159 2956 
Q 1341 3275 1631 3429 
Q 1922 3584 2338 3584 
Q 2397 3584 2469 3576 
Q 2541 3569 2628 3553 
L 2631 2963 
z
" transform="scale(0.015625)"/>
       <path id="DejaVuSans-67" d="M 2906 1791 
Q 2906 2416 2648 2759 
Q 2391 3103 1925 3103 
Q 1463 3103 1205 2759 
Q 947 2416 947 1791 
Q 947 1169 1205 825 
Q 1463 481 1925 481 
Q 2391 481 2648 825 
Q 2906 1169 2906 1791 
z
M 3481 434 
Q 3481 -459 3084 -895 
Q 2688 -1331 1869 -1331 
Q 1566 -1331 1297 -1286 
Q 1028 -1241 775 -1147 
L 775 -588 
Q 1028 -725 1275 -790 
Q 1522 -856 1778 -856 
Q 2344 -856 2625 -561 
Q 2906 -266 2906 331 
L 2906 616 
Q 2728 306 2450 153 
Q 2172 0 1784 0 
Q 1141 0 747 490 
Q 353 981 353 1791 
Q 353 2603 747 3093 
Q 1141 3584 1784 3584 
Q 2172 3584 2450 3431 
Q 2728 3278 2906 2969 
L 2906 3500 
L 3481 3500 
L 3481 434 
z
" transform="scale(0.015625)"/>
      </defs>
      <use xlink:href="#DejaVuSans-54"/>
      <use xlink:href="#DejaVuSans-72" x="46.333984"/>
      <use xlink:href="#DejaVuSans-61" x="87.447266"/>
      <use xlink:href="#DejaVuSans-69" x="148.726562"/>
      <use xlink:href="#DejaVuSans-6e" x="176.509766"/>
      <use xlink:href="#DejaVuSans-69" x="239.888672"/>
      <use xlink:href="#DejaVuSans-6e" x="267.671875"/>
      <use xlink:href="#DejaVuSans-67" x="331.050781"/>
      <use xlink:href="#DejaVuSans-20" x="394.527344"/>
      <use xlink:href="#DejaVuSans-4c" x="426.314453"/>
      <use xlink:href="#DejaVuSans-6f" x="480.277344"/>
      <use xlink:href="#DejaVuSans-73" x="541.458984"/>
      <use xlink:href="#DejaVuSans-73" x="593.558594"/>
     </g>
    </g>
    <g id="line2d_26">
     <path d="M 211.2875 65.072563 
L 221.2875 65.072563 
L 231.2875 65.072563 
" style="fill: none; stroke: #ff0000; stroke-width: 0.6; stroke-linecap: square"/>
    </g>
    <g id="text_16">
     <!-- Validation Loss -->
     <g transform="translate(239.2875 68.572563) scale(0.1 -0.1)">
      <defs>
       <path id="DejaVuSans-56" d="M 1831 0 
L 50 4666 
L 709 4666 
L 2188 738 
L 3669 4666 
L 4325 4666 
L 2547 0 
L 1831 0 
z
" transform="scale(0.015625)"/>
       <path id="DejaVuSans-74" d="M 1172 4494 
L 1172 3500 
L 2356 3500 
L 2356 3053 
L 1172 3053 
L 1172 1153 
Q 1172 725 1289 603 
Q 1406 481 1766 481 
L 2356 481 
L 2356 0 
L 1766 0 
Q 1100 0 847 248 
Q 594 497 594 1153 
L 594 3053 
L 172 3053 
L 172 3500 
L 594 3500 
L 594 4494 
L 1172 4494 
z
" transform="scale(0.015625)"/>
      </defs>
      <use xlink:href="#DejaVuSans-56"/>
      <use xlink:href="#DejaVuSans-61" x="60.658203"/>
      <use xlink:href="#DejaVuSans-6c" x="121.9375"/>
      <use xlink:href="#DejaVuSans-69" x="149.720703"/>
      <use xlink:href="#DejaVuSans-64" x="177.503906"/>
      <use xlink:href="#DejaVuSans-61" x="240.980469"/>
      <use xlink:href="#DejaVuSans-74" x="302.259766"/>
      <use xlink:href="#DejaVuSans-69" x="341.46875"/>
      <use xlink:href="#DejaVuSans-6f" x="369.251953"/>
      <use xlink:href="#DejaVuSans-6e" x="430.433594"/>
      <use xlink:href="#DejaVuSans-20" x="493.8125"/>
      <use xlink:href="#DejaVuSans-4c" x="525.599609"/>
      <use xlink:href="#DejaVuSans-6f" x="579.5625"/>
      <use xlink:href="#DejaVuSans-73" x="640.744141"/>
      <use xlink:href="#DejaVuSans-73" x="692.84375"/>
     </g>
    </g>
   </g>
  </g>
  <g id="text_17">
   <!-- Training VS. Validation Loss - Dataset Size = 100.0% -->
   <g transform="translate(34.481016 15.558281) scale(0.11 -0.11)">
    <defs>
     <path id="DejaVuSans-53" d="M 3425 4513 
L 3425 3897 
Q 3066 4069 2747 4153 
Q 2428 4238 2131 4238 
Q 1616 4238 1336 4038 
Q 1056 3838 1056 3469 
Q 1056 3159 1242 3001 
Q 1428 2844 1947 2747 
L 2328 2669 
Q 3034 2534 3370 2195 
Q 3706 1856 3706 1288 
Q 3706 609 3251 259 
Q 2797 -91 1919 -91 
Q 1588 -91 1214 -16 
Q 841 59 441 206 
L 441 856 
Q 825 641 1194 531 
Q 1563 422 1919 422 
Q 2459 422 2753 634 
Q 3047 847 3047 1241 
Q 3047 1584 2836 1778 
Q 2625 1972 2144 2069 
L 1759 2144 
Q 1053 2284 737 2584 
Q 422 2884 422 3419 
Q 422 4038 858 4394 
Q 1294 4750 2059 4750 
Q 2388 4750 2728 4690 
Q 3069 4631 3425 4513 
z
" transform="scale(0.015625)"/>
     <path id="DejaVuSans-2d" d="M 313 2009 
L 1997 2009 
L 1997 1497 
L 313 1497 
L 313 2009 
z
" transform="scale(0.015625)"/>
     <path id="DejaVuSans-44" d="M 1259 4147 
L 1259 519 
L 2022 519 
Q 2988 519 3436 956 
Q 3884 1394 3884 2338 
Q 3884 3275 3436 3711 
Q 2988 4147 2022 4147 
L 1259 4147 
z
M 628 4666 
L 1925 4666 
Q 3281 4666 3915 4102 
Q 4550 3538 4550 2338 
Q 4550 1131 3912 565 
Q 3275 0 1925 0 
L 628 0 
L 628 4666 
z
" transform="scale(0.015625)"/>
     <path id="DejaVuSans-7a" d="M 353 3500 
L 3084 3500 
L 3084 2975 
L 922 459 
L 3084 459 
L 3084 0 
L 275 0 
L 275 525 
L 2438 3041 
L 353 3041 
L 353 3500 
z
" transform="scale(0.015625)"/>
     <path id="DejaVuSans-3d" d="M 678 2906 
L 4684 2906 
L 4684 2381 
L 678 2381 
L 678 2906 
z
M 678 1631 
L 4684 1631 
L 4684 1100 
L 678 1100 
L 678 1631 
z
" transform="scale(0.015625)"/>
     <path id="DejaVuSans-25" d="M 4653 2053 
Q 4381 2053 4226 1822 
Q 4072 1591 4072 1178 
Q 4072 772 4226 539 
Q 4381 306 4653 306 
Q 4919 306 5073 539 
Q 5228 772 5228 1178 
Q 5228 1588 5073 1820 
Q 4919 2053 4653 2053 
z
M 4653 2450 
Q 5147 2450 5437 2106 
Q 5728 1763 5728 1178 
Q 5728 594 5436 251 
Q 5144 -91 4653 -91 
Q 4153 -91 3862 251 
Q 3572 594 3572 1178 
Q 3572 1766 3864 2108 
Q 4156 2450 4653 2450 
z
M 1428 4353 
Q 1159 4353 1004 4120 
Q 850 3888 850 3481 
Q 850 3069 1003 2837 
Q 1156 2606 1428 2606 
Q 1700 2606 1854 2837 
Q 2009 3069 2009 3481 
Q 2009 3884 1853 4118 
Q 1697 4353 1428 4353 
z
M 4250 4750 
L 4750 4750 
L 1831 -91 
L 1331 -91 
L 4250 4750 
z
M 1428 4750 
Q 1922 4750 2215 4408 
Q 2509 4066 2509 3481 
Q 2509 2891 2217 2550 
Q 1925 2209 1428 2209 
Q 931 2209 642 2551 
Q 353 2894 353 3481 
Q 353 4063 643 4406 
Q 934 4750 1428 4750 
z
" transform="scale(0.015625)"/>
    </defs>
    <use xlink:href="#DejaVuSans-54"/>
    <use xlink:href="#DejaVuSans-72" x="46.333984"/>
    <use xlink:href="#DejaVuSans-61" x="87.447266"/>
    <use xlink:href="#DejaVuSans-69" x="148.726562"/>
    <use xlink:href="#DejaVuSans-6e" x="176.509766"/>
    <use xlink:href="#DejaVuSans-69" x="239.888672"/>
    <use xlink:href="#DejaVuSans-6e" x="267.671875"/>
    <use xlink:href="#DejaVuSans-67" x="331.050781"/>
    <use xlink:href="#DejaVuSans-20" x="394.527344"/>
    <use xlink:href="#DejaVuSans-56" x="426.314453"/>
    <use xlink:href="#DejaVuSans-53" x="494.722656"/>
    <use xlink:href="#DejaVuSans-2e" x="558.199219"/>
    <use xlink:href="#DejaVuSans-20" x="589.986328"/>
    <use xlink:href="#DejaVuSans-56" x="621.773438"/>
    <use xlink:href="#DejaVuSans-61" x="682.431641"/>
    <use xlink:href="#DejaVuSans-6c" x="743.710938"/>
    <use xlink:href="#DejaVuSans-69" x="771.494141"/>
    <use xlink:href="#DejaVuSans-64" x="799.277344"/>
    <use xlink:href="#DejaVuSans-61" x="862.753906"/>
    <use xlink:href="#DejaVuSans-74" x="924.033203"/>
    <use xlink:href="#DejaVuSans-69" x="963.242188"/>
    <use xlink:href="#DejaVuSans-6f" x="991.025391"/>
    <use xlink:href="#DejaVuSans-6e" x="1052.207031"/>
    <use xlink:href="#DejaVuSans-20" x="1115.585938"/>
    <use xlink:href="#DejaVuSans-4c" x="1147.373047"/>
    <use xlink:href="#DejaVuSans-6f" x="1201.335938"/>
    <use xlink:href="#DejaVuSans-73" x="1262.517578"/>
    <use xlink:href="#DejaVuSans-73" x="1314.617188"/>
    <use xlink:href="#DejaVuSans-20" x="1366.716797"/>
    <use xlink:href="#DejaVuSans-2d" x="1398.503906"/>
    <use xlink:href="#DejaVuSans-20" x="1434.587891"/>
    <use xlink:href="#DejaVuSans-44" x="1466.375"/>
    <use xlink:href="#DejaVuSans-61" x="1543.376953"/>
    <use xlink:href="#DejaVuSans-74" x="1604.65625"/>
    <use xlink:href="#DejaVuSans-61" x="1643.865234"/>
    <use xlink:href="#DejaVuSans-73" x="1705.144531"/>
    <use xlink:href="#DejaVuSans-65" x="1757.244141"/>
    <use xlink:href="#DejaVuSans-74" x="1818.767578"/>
    <use xlink:href="#DejaVuSans-20" x="1857.976562"/>
    <use xlink:href="#DejaVuSans-53" x="1889.763672"/>
    <use xlink:href="#DejaVuSans-69" x="1953.240234"/>
    <use xlink:href="#DejaVuSans-7a" x="1981.023438"/>
    <use xlink:href="#DejaVuSans-65" x="2033.513672"/>
    <use xlink:href="#DejaVuSans-20" x="2095.037109"/>
    <use xlink:href="#DejaVuSans-3d" x="2126.824219"/>
    <use xlink:href="#DejaVuSans-20" x="2210.613281"/>
    <use xlink:href="#DejaVuSans-31" x="2242.400391"/>
    <use xlink:href="#DejaVuSans-30" x="2306.023438"/>
    <use xlink:href="#DejaVuSans-30" x="2369.646484"/>
    <use xlink:href="#DejaVuSans-2e" x="2433.269531"/>
    <use xlink:href="#DejaVuSans-30" x="2465.056641"/>
    <use xlink:href="#DejaVuSans-25" x="2528.679688"/>
   </g>
  </g>
 </g>
 <defs>
  <clipPath id="pe2bae74894">
   <rect x="43.78125" y="37.296" width="279" height="202.464"/>
  </clipPath>
 </defs>
</svg>
