<?xml version="1.0" encoding="utf-8" standalone="no"?>
<!DOCTYPE svg PUBLIC "-//W3C//DTD SVG 1.1//EN"
  "http://www.w3.org/Graphics/SVG/1.1/DTD/svg11.dtd">
<svg xmlns:xlink="http://www.w3.org/1999/xlink" width="330.281484pt" height="277.31625pt" viewBox="0 0 330.281484 277.31625" xmlns="http://www.w3.org/2000/svg" version="1.1">
 <metadata>
  <rdf:RDF xmlns:dc="http://purl.org/dc/elements/1.1/" xmlns:cc="http://creativecommons.org/ns#" xmlns:rdf="http://www.w3.org/1999/02/22-rdf-syntax-ns#">
   <cc:Work>
    <dc:type rdf:resource="http://purl.org/dc/dcmitype/StillImage"/>
    <dc:date>2026-06-11T16:27:53.268190</dc:date>
    <dc:format>image/svg+xml</dc:format>
    <dc:creator>
     <cc:Agent>
      <dc:title>Matplotlib v3.8.4, https://matplotlib.org/</dc:title>
     </cc:Agent>
    </dc:creator>
   </cc:Work>
  </rdf:RDF>
 </metadata>
 <defs>
  <style type="text/css">*{stroke-linejoin: round; stroke-linecap: butt}</style>
 </defs>
 <g id="figure_1">
  <g id="patch_1">
   <path d="M 0 277.31625 
L 330.281484 277.31625 
L 330.281484 0 
L 0 0 
z
" style="fill: #ffffff"/>
  </g>
  <g id="axes_1">
   <g id="patch_2">
    <path d="M 43.78125 239.76 
L 322.78125 239.76 
L 322.78125 37.296 
L 43.78125 37.296 
z
" style="fill: #ffffff"/>
   </g>
   <g id="matplotlib.axis_1">
    <g id="xtick_1">
     <g id="line2d_1">
      <path d="M 56.209178 239.76 
L 56.209178 37.296 
" clip-path="url(#pb572a6861e)" style="fill: none; stroke-dasharray: 2.96,1.28; stroke-dashoffset: 0; stroke: #b0b0b0; stroke-opacity: 0.4; stroke-width: 0.8"/>
     </g>
     <g id="line2d_2">
      <defs>
       <path id="mfb05b091c7" d="M 0 0 
L 0 3.5 
" style="stroke: #000000; stroke-width: 0.8"/>
      </defs>
      <g>
       <use xlink:href="#mfb05b091c7" x="56.209178" y="239.76" style="stroke: #000000; stroke-width: 0.8"/>
      </g>
     </g>
     <g id="text_1">
      <!-- 0 -->
      <g transform="translate(53.027928 254.358437) scale(0.1 -0.1)">
       <defs>
        <path id="DejaVuSans-30" d="M 2034 4250 
Q 1547 4250 1301 3770 
Q 1056 3291 1056 2328 
Q 1056 1369 1301 889 
Q 1547 409 2034 409 
Q 2525 409 2770 889 
Q 3016 1369 3016 2328 
Q 3016 3291 2770 3770 
Q 2525 4250 2034 4250 
z
M 2034 4750 
Q 2819 4750 3233 4129 
Q 3647 3509 3647 2328 
Q 3647 1150 3233 529 
Q 2819 -91 2034 -91 
Q 1250 -91 836 529 
Q 422 1150 422 2328 
Q 422 3509 836 4129 
Q 1250 4750 2034 4750 
z
" transform="scale(0.015625)"/>
       </defs>
       <use xlink:href="#DejaVuSans-30"/>
      </g>
     </g>
    </g>
    <g id="xtick_2">
     <g id="line2d_3">
      <path d="M 106.987229 239.76 
L 106.987229 37.296 
" clip-path="url(#pb572a6861e)" style="fill: none; stroke-dasharray: 2.96,1.28; stroke-dashoffset: 0; stroke: #b0b0b0; stroke-opacity: 0.4; stroke-width: 0.8"/>
     </g>
     <g id="line2d_4">
      <g>
       <use xlink:href="#mfb05b091c7" x="106.987229" y="239.76" style="stroke: #000000; stroke-width: 0.8"/>
      </g>
     </g>
     <g id="text_2">
      <!-- 200 -->
      <g transform="translate(97.443479 254.358437) scale(0.1 -0.1)">
       <defs>
        <path id="DejaVuSans-32" d="M 1228 531 
L 3431 531 
L 3431 0 
L 469 0 
L 469 531 
Q 828 903 1448 1529 
Q 2069 2156 2228 2338 
Q 2531 2678 2651 2914 
Q 2772 3150 2772 3378 
Q 2772 3750 2511 3984 
Q 2250 4219 1831 4219 
Q 1534 4219 1204 4116 
Q 875 4013 500 3803 
L 500 4441 
Q 881 4594 1212 4672 
Q 1544 4750 1819 4750 
Q 2544 4750 2975 4387 
Q 3406 4025 3406 3419 
Q 3406 3131 3298 2873 
Q 3191 2616 2906 2266 
Q 2828 2175 2409 1742 
Q 1991 1309 1228 531 
z
" transform="scale(0.015625)"/>
       </defs>
       <use xlink:href="#DejaVuSans-32"/>
       <use xlink:href="#DejaVuSans-30" x="63.623047"/>
       <use xlink:href="#DejaVuSans-30" x="127.246094"/>
      </g>
     </g>
    </g>
    <g id="xtick_3">
     <g id="line2d_5">
      <path d="M 157.765279 239.76 
L 157.765279 37.296 
" clip-path="url(#pb572a6861e)" style="fill: none; stroke-dasharray: 2.96,1.28; stroke-dashoffset: 0; stroke: #b0b0b0; stroke-opacity: 0.4; stroke-width: 0.8"/>
     </g>
     <g id="line2d_6">
      <g>
       <use xlink:href="#mfb05b091c7" x="157.765279" y="239.76" style="stroke: #000000; stroke-width: 0.8"/>
      </g>
     </g>
     <g id="text_3">
      <!-- 400 -->
      <g transform="translate(148.221529 254.358437) scale(0.1 -0.1)">
       <defs>
        <path id="DejaVuSans-34" d="M 2419 4116 
L 825 1625 
L 2419 1625 
L 2419 4116 
z
M 2253 4666 
L 3047 4666 
L 3047 1625 
L 3713 1625 
L 3713 1100 
L 3047 1100 
L 3047 0 
L 2419 0 
L 2419 1100 
L 313 1100 
L 313 1709 
L 2253 4666 
z
" transform="scale(0.015625)"/>
       </defs>
       <use xlink:href="#DejaVuSans-34"/>
       <use xlink:href="#DejaVuSans-30" x="63.623047"/>
       <use xlink:href="#DejaVuSans-30" x="127.246094"/>
      </g>
     </g>
    </g>
    <g id="xtick_4">
     <g id="line2d_7">
      <path d="M 208.54333 239.76 
L 208.54333 37.296 
" clip-path="url(#pb572a6861e)" style="fill: none; stroke-dasharray: 2.96,1.28; stroke-dashoffset: 0; stroke: #b0b0b0; stroke-opacity: 0.4; stroke-width: 0.8"/>
     </g>
     <g id="line2d_8">
      <g>
       <use xlink:href="#mfb05b091c7" x="208.54333" y="239.76" style="stroke: #000000; stroke-width: 0.8"/>
      </g>
     </g>
     <g id="text_4">
      <!-- 600 -->
      <g transform="translate(198.99958 254.358437) scale(0.1 -0.1)">
       <defs>
        <path id="DejaVuSans-36" d="M 2113 2584 
Q 1688 2584 1439 2293 
Q 1191 2003 1191 1497 
Q 1191 994 1439 701 
Q 1688 409 2113 409 
Q 2538 409 2786 701 
Q 3034 994 3034 1497 
Q 3034 2003 2786 2293 
Q 2538 2584 2113 2584 
z
M 3366 4563 
L 3366 3988 
Q 3128 4100 2886 4159 
Q 2644 4219 2406 4219 
Q 1781 4219 1451 3797 
Q 1122 3375 1075 2522 
Q 1259 2794 1537 2939 
Q 1816 3084 2150 3084 
Q 2853 3084 3261 2657 
Q 3669 2231 3669 1497 
Q 3669 778 3244 343 
Q 2819 -91 2113 -91 
Q 1303 -91 875 529 
Q 447 1150 447 2328 
Q 447 3434 972 4092 
Q 1497 4750 2381 4750 
Q 2619 4750 2861 4703 
Q 3103 4656 3366 4563 
z
" transform="scale(0.015625)"/>
       </defs>
       <use xlink:href="#DejaVuSans-36"/>
       <use xlink:href="#DejaVuSans-30" x="63.623047"/>
       <use xlink:href="#DejaVuSans-30" x="127.246094"/>
      </g>
     </g>
    </g>
    <g id="xtick_5">
     <g id="line2d_9">
      <path d="M 259.321381 239.76 
L 259.321381 37.296 
" clip-path="url(#pb572a6861e)" style="fill: none; stroke-dasharray: 2.96,1.28; stroke-dashoffset: 0; stroke: #b0b0b0; stroke-opacity: 0.4; stroke-width: 0.8"/>
     </g>
     <g id="line2d_10">
      <g>
       <use xlink:href="#mfb05b091c7" x="259.321381" y="239.76" style="stroke: #000000; stroke-width: 0.8"/>
      </g>
     </g>
     <g id="text_5">
      <!-- 800 -->
      <g transform="translate(249.777631 254.358437) scale(0.1 -0.1)">
       <defs>
        <path id="DejaVuSans-38" d="M 2034 2216 
Q 1584 2216 1326 1975 
Q 1069 1734 1069 1313 
Q 1069 891 1326 650 
Q 1584 409 2034 409 
Q 2484 409 2743 651 
Q 3003 894 3003 1313 
Q 3003 1734 2745 1975 
Q 2488 2216 2034 2216 
z
M 1403 2484 
Q 997 2584 770 2862 
Q 544 3141 544 3541 
Q 544 4100 942 4425 
Q 1341 4750 2034 4750 
Q 2731 4750 3128 4425 
Q 3525 4100 3525 3541 
Q 3525 3141 3298 2862 
Q 3072 2584 2669 2484 
Q 3125 2378 3379 2068 
Q 3634 1759 3634 1313 
Q 3634 634 3220 271 
Q 2806 -91 2034 -91 
Q 1263 -91 848 271 
Q 434 634 434 1313 
Q 434 1759 690 2068 
Q 947 2378 1403 2484 
z
M 1172 3481 
Q 1172 3119 1398 2916 
Q 1625 2713 2034 2713 
Q 2441 2713 2670 2916 
Q 2900 3119 2900 3481 
Q 2900 3844 2670 4047 
Q 2441 4250 2034 4250 
Q 1625 4250 1398 4047 
Q 1172 3844 1172 3481 
z
" transform="scale(0.015625)"/>
       </defs>
       <use xlink:href="#DejaVuSans-38"/>
       <use xlink:href="#DejaVuSans-30" x="63.623047"/>
       <use xlink:href="#DejaVuSans-30" x="127.246094"/>
      </g>
     </g>
    </g>
    <g id="xtick_6">
     <g id="line2d_11">
      <path d="M 310.099432 239.76 
L 310.099432 37.296 
" clip-path="url(#pb572a6861e)" style="fill: none; stroke-dasharray: 2.96,1.28; stroke-dashoffset: 0; stroke: #b0b0b0; stroke-opacity: 0.4; stroke-width: 0.8"/>
     </g>
     <g id="line2d_12">
      <g>
       <use xlink:href="#mfb05b091c7" x="310.099432" y="239.76" style="stroke: #000000; stroke-width: 0.8"/>
      </g>
     </g>
     <g id="text_6">
      <!-- 1000 -->
      <g transform="translate(297.374432 254.358437) scale(0.1 -0.1)">
       <defs>
        <path id="DejaVuSans-31" d="M 794 531 
L 1825 531 
L 1825 4091 
L 703 3866 
L 703 4441 
L 1819 4666 
L 2450 4666 
L 2450 531 
L 3481 531 
L 3481 0 
L 794 0 
L 794 531 
z
" transform="scale(0.015625)"/>
       </defs>
       <use xlink:href="#DejaVuSans-31"/>
       <use xlink:href="#DejaVuSans-30" x="63.623047"/>
       <use xlink:href="#DejaVuSans-30" x="127.246094"/>
       <use xlink:href="#DejaVuSans-30" x="190.869141"/>
      </g>
     </g>
    </g>
    <g id="text_7">
     <!-- Epochs -->
     <g transform="translate(165.365625 268.036562) scale(0.1 -0.1)">
      <defs>
       <path id="DejaVuSans-45" d="M 628 4666 
L 3578 4666 
L 3578 4134 
L 1259 4134 
L 1259 2753 
L 3481 2753 
L 3481 2222 
L 1259 2222 
L 1259 531 
L 3634 531 
L 3634 0 
L 628 0 
L 628 4666 
z
" transform="scale(0.015625)"/>
       <path id="DejaVuSans-70" d="M 1159 525 
L 1159 -1331 
L 581 -1331 
L 581 3500 
L 1159 3500 
L 1159 2969 
Q 1341 3281 1617 3432 
Q 1894 3584 2278 3584 
Q 2916 3584 3314 3078 
Q 3713 2572 3713 1747 
Q 3713 922 3314 415 
Q 2916 -91 2278 -91 
Q 1894 -91 1617 61 
Q 1341 213 1159 525 
z
M 3116 1747 
Q 3116 2381 2855 2742 
Q 2594 3103 2138 3103 
Q 1681 3103 1420 2742 
Q 1159 2381 1159 1747 
Q 1159 1113 1420 752 
Q 1681 391 2138 391 
Q 2594 391 2855 752 
Q 3116 1113 3116 1747 
z
" transform="scale(0.015625)"/>
       <path id="DejaVuSans-6f" d="M 1959 3097 
Q 1497 3097 1228 2736 
Q 959 2375 959 1747 
Q 959 1119 1226 758 
Q 1494 397 1959 397 
Q 2419 397 2687 759 
Q 2956 1122 2956 1747 
Q 2956 2369 2687 2733 
Q 2419 3097 1959 3097 
z
M 1959 3584 
Q 2709 3584 3137 3096 
Q 3566 2609 3566 1747 
Q 3566 888 3137 398 
Q 2709 -91 1959 -91 
Q 1206 -91 779 398 
Q 353 888 353 1747 
Q 353 2609 779 3096 
Q 1206 3584 1959 3584 
z
" transform="scale(0.015625)"/>
       <path id="DejaVuSans-63" d="M 3122 3366 
L 3122 2828 
Q 2878 2963 2633 3030 
Q 2388 3097 2138 3097 
Q 1578 3097 1268 2742 
Q 959 2388 959 1747 
Q 959 1106 1268 751 
Q 1578 397 2138 397 
Q 2388 397 2633 464 
Q 2878 531 3122 666 
L 3122 134 
Q 2881 22 2623 -34 
Q 2366 -91 2075 -91 
Q 1284 -91 818 406 
Q 353 903 353 1747 
Q 353 2603 823 3093 
Q 1294 3584 2113 3584 
Q 2378 3584 2631 3529 
Q 2884 3475 3122 3366 
z
" transform="scale(0.015625)"/>
       <path id="DejaVuSans-68" d="M 3513 2113 
L 3513 0 
L 2938 0 
L 2938 2094 
Q 2938 2591 2744 2837 
Q 2550 3084 2163 3084 
Q 1697 3084 1428 2787 
Q 1159 2491 1159 1978 
L 1159 0 
L 581 0 
L 581 4863 
L 1159 4863 
L 1159 2956 
Q 1366 3272 1645 3428 
Q 1925 3584 2291 3584 
Q 2894 3584 3203 3211 
Q 3513 2838 3513 2113 
z
" transform="scale(0.015625)"/>
       <path id="DejaVuSans-73" d="M 2834 3397 
L 2834 2853 
Q 2591 2978 2328 3040 
Q 2066 3103 1784 3103 
Q 1356 3103 1142 2972 
Q 928 2841 928 2578 
Q 928 2378 1081 2264 
Q 1234 2150 1697 2047 
L 1894 2003 
Q 2506 1872 2764 1633 
Q 3022 1394 3022 966 
Q 3022 478 2636 193 
Q 2250 -91 1575 -91 
Q 1294 -91 989 -36 
Q 684 19 347 128 
L 347 722 
Q 666 556 975 473 
Q 1284 391 1588 391 
Q 1994 391 2212 530 
Q 2431 669 2431 922 
Q 2431 1156 2273 1281 
Q 2116 1406 1581 1522 
L 1381 1569 
Q 847 1681 609 1914 
Q 372 2147 372 2553 
Q 372 3047 722 3315 
Q 1072 3584 1716 3584 
Q 2034 3584 2315 3537 
Q 2597 3491 2834 3397 
z
" transform="scale(0.015625)"/>
      </defs>
      <use xlink:href="#DejaVuSans-45"/>
      <use xlink:href="#DejaVuSans-70" x="63.183594"/>
      <use xlink:href="#DejaVuSans-6f" x="126.660156"/>
      <use xlink:href="#DejaVuSans-63" x="187.841797"/>
      <use xlink:href="#DejaVuSans-68" x="242.822266"/>
      <use xlink:href="#DejaVuSans-73" x="306.201172"/>
     </g>
    </g>
   </g>
   <g id="matplotlib.axis_2">
    <g id="ytick_1">
     <g id="line2d_13">
      <path d="M 43.78125 208.194109 
L 322.78125 208.194109 
" clip-path="url(#pb572a6861e)" style="fill: none; stroke-dasharray: 2.96,1.28; stroke-dashoffset: 0; stroke: #b0b0b0; stroke-opacity: 0.4; stroke-width: 0.8"/>
     </g>
     <g id="line2d_14">
      <defs>
       <path id="mdc5b37c236" d="M 0 0 
L -3.5 0 
" style="stroke: #000000; stroke-width: 0.8"/>
      </defs>
      <g>
       <use xlink:href="#mdc5b37c236" x="43.78125" y="208.194109" style="stroke: #000000; stroke-width: 0.8"/>
      </g>
     </g>
     <g id="text_8">
      <!-- 0.4 -->
      <g transform="translate(20.878125 211.993327) scale(0.1 -0.1)">
       <defs>
        <path id="DejaVuSans-2e" d="M 684 794 
L 1344 794 
L 1344 0 
L 684 0 
L 684 794 
z
" transform="scale(0.015625)"/>
       </defs>
       <use xlink:href="#DejaVuSans-30"/>
       <use xlink:href="#DejaVuSans-2e" x="63.623047"/>
       <use xlink:href="#DejaVuSans-34" x="95.410156"/>
      </g>
     </g>
    </g>
    <g id="ytick_2">
     <g id="line2d_15">
      <path d="M 43.78125 167.547863 
L 322.78125 167.547863 
" clip-path="url(#pb572a6861e)" style="fill: none; stroke-dasharray: 2.96,1.28; stroke-dashoffset: 0; stroke: #b0b0b0; stroke-opacity: 0.4; stroke-width: 0.8"/>
     </g>
     <g id="line2d_16">
      <g>
       <use xlink:href="#mdc5b37c236" x="43.78125" y="167.547863" style="stroke: #000000; stroke-width: 0.8"/>
      </g>
     </g>
     <g id="text_9">
      <!-- 0.5 -->
      <g transform="translate(20.878125 171.347082) scale(0.1 -0.1)">
       <defs>
        <path id="DejaVuSans-35" d="M 691 4666 
L 3169 4666 
L 3169 4134 
L 1269 4134 
L 1269 2991 
Q 1406 3038 1543 3061 
Q 1681 3084 1819 3084 
Q 2600 3084 3056 2656 
Q 3513 2228 3513 1497 
Q 3513 744 3044 326 
Q 2575 -91 1722 -91 
Q 1428 -91 1123 -41 
Q 819 9 494 109 
L 494 744 
Q 775 591 1075 516 
Q 1375 441 1709 441 
Q 2250 441 2565 725 
Q 2881 1009 2881 1497 
Q 2881 1984 2565 2268 
Q 2250 2553 1709 2553 
Q 1456 2553 1204 2497 
Q 953 2441 691 2322 
L 691 4666 
z
" transform="scale(0.015625)"/>
       </defs>
       <use xlink:href="#DejaVuSans-30"/>
       <use xlink:href="#DejaVuSans-2e" x="63.623047"/>
       <use xlink:href="#DejaVuSans-35" x="95.410156"/>
      </g>
     </g>
    </g>
    <g id="ytick_3">
     <g id="line2d_17">
      <path d="M 43.78125 126.901618 
L 322.78125 126.901618 
" clip-path="url(#pb572a6861e)" style="fill: none; stroke-dasharray: 2.96,1.28; stroke-dashoffset: 0; stroke: #b0b0b0; stroke-opacity: 0.4; stroke-width: 0.8"/>
     </g>
     <g id="line2d_18">
      <g>
       <use xlink:href="#mdc5b37c236" x="43.78125" y="126.901618" style="stroke: #000000; stroke-width: 0.8"/>
      </g>
     </g>
     <g id="text_10">
      <!-- 0.6 -->
      <g transform="translate(20.878125 130.700837) scale(0.1 -0.1)">
       <use xlink:href="#DejaVuSans-30"/>
       <use xlink:href="#DejaVuSans-2e" x="63.623047"/>
       <use xlink:href="#DejaVuSans-36" x="95.410156"/>
      </g>
     </g>
    </g>
    <g id="ytick_4">
     <g id="line2d_19">
      <path d="M 43.78125 86.255372 
L 322.78125 86.255372 
" clip-path="url(#pb572a6861e)" style="fill: none; stroke-dasharray: 2.96,1.28; stroke-dashoffset: 0; stroke: #b0b0b0; stroke-opacity: 0.4; stroke-width: 0.8"/>
     </g>
     <g id="line2d_20">
      <g>
       <use xlink:href="#mdc5b37c236" x="43.78125" y="86.255372" style="stroke: #000000; stroke-width: 0.8"/>
      </g>
     </g>
     <g id="text_11">
      <!-- 0.7 -->
      <g transform="translate(20.878125 90.054591) scale(0.1 -0.1)">
       <defs>
        <path id="DejaVuSans-37" d="M 525 4666 
L 3525 4666 
L 3525 4397 
L 1831 0 
L 1172 0 
L 2766 4134 
L 525 4134 
L 525 4666 
z
" transform="scale(0.015625)"/>
       </defs>
       <use xlink:href="#DejaVuSans-30"/>
       <use xlink:href="#DejaVuSans-2e" x="63.623047"/>
       <use xlink:href="#DejaVuSans-37" x="95.410156"/>
      </g>
     </g>
    </g>
    <g id="ytick_5">
     <g id="line2d_21">
      <path d="M 43.78125 45.609127 
L 322.78125 45.609127 
" clip-path="url(#pb572a6861e)" style="fill: none; stroke-dasharray: 2.96,1.28; stroke-dashoffset: 0; stroke: #b0b0b0; stroke-opacity: 0.4; stroke-width: 0.8"/>
     </g>
     <g id="line2d_22">
      <g>
       <use xlink:href="#mdc5b37c236" x="43.78125" y="45.609127" style="stroke: #000000; stroke-width: 0.8"/>
      </g>
     </g>
     <g id="text_12">
      <!-- 0.8 -->
      <g transform="translate(20.878125 49.408346) scale(0.1 -0.1)">
       <use xlink:href="#DejaVuSans-30"/>
       <use xlink:href="#DejaVuSans-2e" x="63.623047"/>
       <use xlink:href="#DejaVuSans-38" x="95.410156"/>
      </g>
     </g>
    </g>
    <g id="text_13">
     <!-- Loss -->
     <g transform="translate(14.798438 149.495187) rotate(-90) scale(0.1 -0.1)">
      <defs>
       <path id="DejaVuSans-4c" d="M 628 4666 
L 1259 4666 
L 1259 531 
L 3531 531 
L 3531 0 
L 628 0 
L 628 4666 
z
" transform="scale(0.015625)"/>
      </defs>
      <use xlink:href="#DejaVuSans-4c"/>
      <use xlink:href="#DejaVuSans-6f" x="53.962891"/>
      <use xlink:href="#DejaVuSans-73" x="115.144531"/>
      <use xlink:href="#DejaVuSans-73" x="167.244141"/>
     </g>
    </g>
   </g>
   <g id="line2d_23">
    <path d="M 56.463068 59.204592 
L 56.716958 87.240546 
L 57.224739 93.675033 
L 57.478629 104.614151 
L 57.732519 126.809909 
L 57.98641 137.64599 
L 58.49419 149.405921 
L 58.74808 149.130678 
L 59.001971 157.38871 
L 59.255861 153.689966 
L 59.509751 161.900756 
L 59.763641 155.651994 
L 60.017532 164.477715 
L 60.271422 161.875003 
L 60.525312 165.664186 
L 61.033093 168.718357 
L 61.286983 167.007358 
L 61.540873 172.004768 
L 61.794764 169.217156 
L 62.048654 169.605103 
L 62.302544 169.503762 
L 62.556434 173.770181 
L 62.810325 174.750686 
L 63.064215 169.970023 
L 63.318105 174.950887 
L 63.571995 176.913532 
L 63.825886 174.198322 
L 64.079776 174.013627 
L 64.333666 175.632527 
L 64.587556 174.85284 
L 64.841447 179.246173 
L 65.095337 178.802188 
L 65.349227 175.867735 
L 66.110898 180.297639 
L 66.364788 179.992657 
L 66.618678 179.96763 
L 66.872569 182.586017 
L 67.126459 182.243265 
L 67.380349 180.973392 
L 67.88813 185.484227 
L 68.14202 180.275459 
L 68.39591 180.750552 
L 68.6498 183.789666 
L 68.903691 183.610301 
L 69.157581 185.552717 
L 69.411471 184.523261 
L 69.665361 184.877763 
L 69.919252 181.228224 
L 70.173142 186.195799 
L 70.427032 187.47397 
L 70.680922 184.45024 
L 70.934813 184.03901 
L 71.188703 190.175044 
L 71.442593 187.902559 
L 71.696483 187.852118 
L 71.950374 191.449556 
L 72.204264 186.94559 
L 72.458154 188.330263 
L 72.712044 193.258275 
L 72.965935 191.012791 
L 73.219825 192.356968 
L 73.473715 192.493088 
L 74.235386 189.318206 
L 74.489276 189.37027 
L 74.743166 193.676628 
L 74.997057 196.01988 
L 75.250947 191.803659 
L 75.504837 197.318305 
L 75.758727 195.488533 
L 76.012618 190.29131 
L 76.266508 194.306568 
L 76.520398 189.173546 
L 77.028179 196.425938 
L 77.282069 196.452006 
L 77.535959 199.207276 
L 77.78985 193.132815 
L 78.04374 195.690683 
L 78.29763 192.366441 
L 78.55152 196.092307 
L 79.059301 193.477518 
L 79.567081 199.898764 
L 79.820972 195.923142 
L 80.074862 197.230094 
L 80.328752 196.39907 
L 80.582642 194.297458 
L 80.836533 194.680754 
L 81.090423 196.994341 
L 81.344313 196.581379 
L 81.598203 197.871663 
L 81.852094 197.455539 
L 82.105984 195.277915 
L 82.613764 199.812225 
L 82.867655 196.642879 
L 83.121545 201.50606 
L 83.375435 196.245337 
L 83.629325 201.214608 
L 83.883216 194.751497 
L 84.137106 202.92677 
L 84.390996 200.097971 
L 84.644886 200.02271 
L 85.152667 199.413533 
L 85.660447 202.151589 
L 85.914338 198.670683 
L 86.676008 205.914244 
L 86.929899 203.039171 
L 87.183789 204.32541 
L 87.437679 202.312457 
L 87.691569 203.896373 
L 87.94546 204.604929 
L 88.19935 208.671549 
L 88.45324 206.797453 
L 88.70713 210.462025 
L 88.961021 209.321015 
L 89.214911 206.807992 
L 89.468801 208.270531 
L 89.722691 203.729533 
L 89.976582 207.104313 
L 90.230472 205.742571 
L 90.484362 206.958817 
L 90.738252 205.808008 
L 90.992143 207.672062 
L 91.246033 203.218234 
L 91.499923 208.865825 
L 92.007704 205.219194 
L 92.261594 209.460067 
L 92.515484 203.389761 
L 92.769374 210.08722 
L 93.277155 209.094444 
L 93.531045 212.359257 
L 93.784936 204.032129 
L 94.038826 207.007562 
L 94.292716 207.658131 
L 94.546606 204.899991 
L 94.800497 209.576647 
L 95.054387 207.151556 
L 95.308277 205.993915 
L 95.562167 212.291288 
L 96.323838 206.704324 
L 96.577728 211.396729 
L 96.831619 208.337906 
L 97.085509 212.091681 
L 97.339399 211.225019 
L 97.593289 206.96124 
L 97.84718 207.108977 
L 98.10107 209.540682 
L 98.35496 208.993829 
L 98.60885 207.149908 
L 98.862741 206.759441 
L 99.116631 210.07295 
L 99.370521 214.894303 
L 99.624411 208.069628 
L 99.878302 210.749927 
L 100.132192 210.70656 
L 100.386082 215.844657 
L 100.639972 214.70578 
L 100.893863 211.716768 
L 101.147753 215.149959 
L 101.401643 213.8585 
L 101.655533 215.140111 
L 101.909424 213.139199 
L 102.163314 212.199807 
L 102.417204 215.455632 
L 102.924985 213.367866 
L 103.178875 209.928145 
L 103.432765 215.782285 
L 103.686655 214.983059 
L 103.940546 216.375072 
L 104.448326 208.785961 
L 104.956107 217.43692 
L 105.209997 213.628464 
L 105.463887 214.74464 
L 105.717777 217.214237 
L 105.971668 213.258565 
L 106.225558 212.817039 
L 106.479448 214.491686 
L 106.733338 211.097076 
L 107.241119 214.780775 
L 107.495009 212.290149 
L 107.748899 211.980431 
L 108.00279 212.077048 
L 108.25668 212.996877 
L 108.51057 213.115916 
L 108.76446 215.107077 
L 109.018351 212.638341 
L 109.272241 213.492356 
L 109.526131 214.90919 
L 109.780021 217.210579 
L 110.033912 213.704149 
L 110.287802 212.373551 
L 110.541692 210.413316 
L 110.795583 215.021846 
L 111.049473 214.84964 
L 111.303363 212.548059 
L 111.557253 212.19438 
L 111.811144 215.239551 
L 112.065034 214.656648 
L 112.318924 216.99394 
L 112.572814 211.602247 
L 112.826705 213.121283 
L 113.080595 219.603557 
L 113.334485 215.512178 
L 113.588375 219.372516 
L 113.842266 220.472436 
L 114.096156 214.896653 
L 114.350046 215.717369 
L 114.603936 220.671728 
L 114.857827 220.086414 
L 115.111717 219.023501 
L 115.365607 212.807942 
L 115.619497 218.553448 
L 115.873388 218.03047 
L 116.127278 215.392702 
L 116.381168 216.908891 
L 116.635058 214.676877 
L 116.888949 215.452058 
L 117.396729 218.392895 
L 117.650619 217.924937 
L 117.90451 217.05171 
L 118.1584 218.130564 
L 118.41229 217.816279 
L 118.66618 218.863687 
L 118.920071 216.263943 
L 119.173961 218.294618 
L 119.681741 216.247154 
L 119.935632 220.742277 
L 120.189522 217.363597 
L 120.443412 218.600266 
L 120.697302 219.206972 
L 121.205083 216.321034 
L 121.458973 218.617298 
L 121.712863 218.934236 
L 121.966754 215.338324 
L 122.474534 217.42672 
L 122.728424 215.416771 
L 123.236205 217.881099 
L 123.490095 213.639596 
L 123.743985 214.453758 
L 123.997876 217.09441 
L 124.251766 217.331048 
L 124.505656 217.83491 
L 124.759546 218.935702 
L 125.013437 222.352528 
L 125.267327 220.858906 
L 125.521217 222.957889 
L 125.775107 219.954995 
L 126.028998 224.545039 
L 126.282888 219.162419 
L 126.536778 218.821544 
L 126.790669 219.74755 
L 127.044559 221.696338 
L 127.298449 220.030619 
L 127.552339 222.998179 
L 127.80623 224.022753 
L 128.06012 218.999359 
L 128.31401 222.776465 
L 128.5679 216.082507 
L 128.821791 223.669668 
L 129.075681 217.281794 
L 129.329571 221.720117 
L 129.583461 221.159963 
L 130.345132 217.180973 
L 130.852913 220.884611 
L 131.106803 221.682807 
L 131.360693 221.489475 
L 131.868474 217.690734 
L 132.630144 223.071998 
L 133.137925 217.156043 
L 133.645705 219.829196 
L 133.899596 217.95063 
L 134.153486 224.579866 
L 134.407376 217.697966 
L 134.915157 218.77441 
L 135.169047 218.821011 
L 135.422937 222.106999 
L 135.676827 222.015445 
L 135.930718 218.875558 
L 136.184608 225.020859 
L 136.438498 219.647032 
L 136.692388 220.074834 
L 137.200169 222.835445 
L 137.454059 224.918608 
L 137.707949 223.163892 
L 137.96184 222.45714 
L 138.21573 222.90127 
L 138.72351 224.209737 
L 138.977401 221.755428 
L 139.231291 226.192418 
L 139.485181 226.262519 
L 139.739071 219.579342 
L 139.992962 219.013556 
L 140.246852 219.525001 
L 140.500742 219.63722 
L 140.754632 221.407382 
L 141.008523 219.574327 
L 141.262413 222.65539 
L 141.516303 217.86993 
L 141.770193 222.200733 
L 142.024084 220.988702 
L 142.277974 218.336761 
L 142.531864 221.795003 
L 142.785755 222.828747 
L 143.039645 217.901025 
L 143.293535 222.758985 
L 143.547425 224.062909 
L 143.801316 220.193001 
L 144.055206 224.025575 
L 144.309096 220.126038 
L 144.562986 218.82542 
L 144.816877 223.206265 
L 145.324657 220.138127 
L 145.578547 225.187177 
L 145.832438 222.626887 
L 146.086328 223.196065 
L 146.340218 226.583818 
L 146.594108 224.73785 
L 146.847999 217.978976 
L 147.101889 222.873627 
L 147.355779 217.732211 
L 147.609669 224.334131 
L 147.86356 223.366708 
L 148.11745 223.662097 
L 148.37134 218.819485 
L 148.62523 220.953949 
L 148.879121 219.502191 
L 149.133011 220.506414 
L 149.386901 219.362498 
L 149.640791 222.064189 
L 149.894682 223.162208 
L 150.148572 224.814238 
L 150.402462 221.277852 
L 150.910243 228.871978 
L 151.418023 219.162225 
L 151.671913 220.762809 
L 151.925804 225.657739 
L 152.179694 224.203898 
L 152.433584 221.42485 
L 152.687474 223.770561 
L 152.941365 223.59695 
L 153.195255 216.578761 
L 153.449145 223.352039 
L 153.703035 220.953706 
L 153.956926 224.897276 
L 154.210816 216.918412 
L 154.464706 221.27721 
L 154.718596 221.477737 
L 154.972487 220.823764 
L 155.226377 223.506353 
L 155.480267 221.262395 
L 155.734157 221.503672 
L 155.988048 220.83824 
L 156.241938 219.173139 
L 156.495828 223.877039 
L 156.749718 218.326949 
L 157.257499 223.605175 
L 157.511389 226.090156 
L 157.765279 221.272122 
L 158.01917 223.530544 
L 158.52695 225.096847 
L 158.78084 220.555716 
L 159.034731 219.297618 
L 159.288621 222.743516 
L 159.542511 217.273872 
L 159.796402 224.831112 
L 160.304182 217.877622 
L 160.558072 221.75584 
L 160.811963 220.545614 
L 161.065853 224.826642 
L 161.319743 220.593365 
L 161.573633 224.423541 
L 161.827524 220.796134 
L 162.081414 224.609459 
L 162.335304 218.903783 
L 162.843085 222.851569 
L 163.096975 219.902664 
L 163.350865 224.765905 
L 163.604755 226.278339 
L 163.858646 221.23222 
L 164.112536 218.628963 
L 164.366426 221.200834 
L 164.620316 225.083764 
L 164.874207 223.951537 
L 165.128097 221.931074 
L 165.381987 223.714681 
L 165.635877 219.759616 
L 165.889768 220.994202 
L 166.397548 221.832203 
L 166.651438 220.466525 
L 166.905329 220.626217 
L 167.159219 223.617422 
L 167.413109 220.815055 
L 167.92089 222.982625 
L 168.17478 223.687026 
L 168.42867 223.723864 
L 168.68256 219.266644 
L 168.936451 224.958074 
L 169.190341 222.91703 
L 169.698121 226.181262 
L 169.952012 222.661701 
L 170.205902 222.530742 
L 170.459792 223.189354 
L 170.713682 222.955793 
L 171.221463 218.55965 
L 171.475353 222.439442 
L 171.729243 223.200172 
L 171.983134 219.76973 
L 172.237024 224.351623 
L 172.490914 223.446767 
L 172.744804 217.313689 
L 173.252585 224.057736 
L 173.506475 221.665376 
L 173.760365 222.2045 
L 174.014256 222.312347 
L 174.268146 224.236375 
L 174.522036 221.964798 
L 174.775926 221.776845 
L 175.029817 218.242384 
L 175.537597 226.101845 
L 175.791488 222.093819 
L 176.299268 228.666061 
L 176.553158 228.029277 
L 176.807049 221.878041 
L 177.060939 228.185917 
L 177.314829 224.417242 
L 177.568719 223.304796 
L 177.82261 225.736695 
L 178.0765 222.665662 
L 178.33039 221.321061 
L 178.838171 225.536701 
L 179.092061 225.257181 
L 179.345951 224.518886 
L 179.599841 225.487278 
L 179.853732 223.22945 
L 180.107622 219.779143 
L 180.361512 221.944859 
L 180.615402 220.840869 
L 180.869293 220.834788 
L 181.377073 223.601868 
L 181.630963 222.750142 
L 181.884854 222.955127 
L 182.138744 220.953379 
L 182.392634 225.577342 
L 182.646524 223.083409 
L 182.900415 222.669878 
L 183.154305 226.355672 
L 183.408195 222.642865 
L 183.662085 221.757657 
L 183.915976 223.239032 
L 184.169866 227.671758 
L 184.423756 220.94725 
L 184.677646 225.728494 
L 185.185427 221.923018 
L 185.439317 222.049605 
L 185.693207 217.409434 
L 185.947098 221.547269 
L 186.200988 221.849514 
L 186.708768 226.002296 
L 186.962659 223.915185 
L 187.216549 220.385219 
L 187.470439 224.561259 
L 187.724329 225.439248 
L 187.97822 221.613191 
L 188.23211 225.52082 
L 188.486 226.503506 
L 188.73989 228.679785 
L 189.247671 224.036017 
L 189.501561 217.851214 
L 189.755451 225.041997 
L 190.263232 221.341182 
L 190.517122 226.292851 
L 190.771012 221.382961 
L 191.024903 226.276777 
L 191.278793 225.810018 
L 191.532683 222.63149 
L 191.786574 223.313312 
L 192.040464 228.770806 
L 192.294354 222.836536 
L 192.548244 223.88742 
L 192.802135 223.790161 
L 193.056025 222.519852 
L 193.309915 225.103957 
L 193.563805 224.637999 
L 193.817696 224.787334 
L 194.071586 223.474979 
L 194.325476 223.244228 
L 194.579366 228.477138 
L 194.833257 223.477705 
L 195.087147 228.567384 
L 195.341037 221.722879 
L 195.594927 226.00541 
L 195.848818 222.719446 
L 196.102708 224.395304 
L 196.356598 224.394844 
L 196.610488 223.850086 
L 196.864379 223.99477 
L 197.118269 224.451886 
L 197.372159 223.559604 
L 197.87994 224.91254 
L 198.13383 222.852198 
L 198.38772 222.658212 
L 198.64161 221.439931 
L 198.895501 225.711063 
L 199.149391 224.940837 
L 199.403281 218.791975 
L 199.911062 226.067891 
L 200.164952 223.388089 
L 200.418842 223.053416 
L 200.672732 220.839173 
L 200.926623 225.68193 
L 201.180513 227.399495 
L 201.434403 224.152828 
L 201.688293 224.772156 
L 201.942184 224.301158 
L 202.449964 222.521608 
L 202.703854 227.770883 
L 202.957745 223.272235 
L 203.211635 224.067476 
L 203.465525 222.624173 
L 203.719415 226.662738 
L 203.973306 225.581061 
L 204.227196 228.077198 
L 204.481086 223.794413 
L 204.734976 222.97463 
L 204.988867 221.677816 
L 205.242757 227.099418 
L 205.496647 223.25587 
L 205.750537 223.096068 
L 206.004428 226.515752 
L 206.258318 226.388112 
L 206.512208 221.387601 
L 206.766098 222.950221 
L 207.019989 220.506717 
L 207.273879 225.408806 
L 207.527769 227.882727 
L 207.78166 222.735279 
L 208.03555 226.911429 
L 208.54333 224.668634 
L 208.797221 219.9125 
L 209.305001 224.250875 
L 209.558891 224.048361 
L 209.812782 222.96529 
L 210.066672 221.25847 
L 210.320562 225.512232 
L 210.574452 226.944547 
L 211.082233 222.729937 
L 211.590013 223.164558 
L 211.843904 222.518059 
L 212.097794 225.507968 
L 212.351684 225.031446 
L 212.605574 226.576865 
L 212.859465 220.067202 
L 213.113355 223.271726 
L 213.367245 230.354395 
L 213.621135 223.98531 
L 213.875026 222.69683 
L 214.128916 225.639303 
L 214.382806 218.901796 
L 214.636696 221.892577 
L 214.890587 222.500603 
L 215.144477 222.644185 
L 215.398367 224.167449 
L 215.652257 222.073517 
L 215.906148 221.016915 
L 216.160038 219.456814 
L 216.413928 219.677098 
L 216.667818 227.51232 
L 216.921709 226.297515 
L 217.175599 226.125321 
L 217.429489 221.68884 
L 218.19116 223.565213 
L 218.44505 225.962491 
L 218.69894 221.920087 
L 218.952831 219.653235 
L 219.206721 220.791119 
L 219.460611 220.95711 
L 219.714501 220.981943 
L 219.968392 221.802816 
L 220.222282 225.296151 
L 220.476172 221.166081 
L 220.730062 226.688419 
L 220.983953 221.317524 
L 221.237843 223.91957 
L 221.491733 223.854338 
L 221.745623 221.647981 
L 221.999514 230.557091 
L 222.253404 224.494914 
L 222.507294 224.363918 
L 223.015075 222.162479 
L 223.268965 226.18859 
L 223.522855 220.286203 
L 223.776745 224.844062 
L 224.030636 222.613174 
L 224.284526 225.144077 
L 224.538416 221.61955 
L 224.792307 228.146281 
L 225.046197 224.012359 
L 225.300087 225.22284 
L 225.553977 224.781532 
L 226.061758 221.943696 
L 226.315648 226.835949 
L 226.569538 225.787875 
L 226.823429 226.615083 
L 227.077319 226.635228 
L 227.331209 225.229987 
L 227.585099 222.664281 
L 227.83899 226.93849 
L 228.09288 221.06675 
L 228.34677 220.548909 
L 228.60066 221.293454 
L 228.854551 224.526857 
L 229.108441 224.128916 
L 229.362331 221.852893 
L 229.870112 226.340639 
L 230.124002 223.612177 
L 230.377892 227.367685 
L 230.631782 227.734179 
L 230.885673 221.575288 
L 231.139563 221.179805 
L 231.393453 222.187784 
L 231.647343 219.513856 
L 231.901234 223.427094 
L 232.155124 220.12078 
L 232.409014 222.272469 
L 232.662904 217.91263 
L 232.916795 219.069096 
L 233.170685 226.685463 
L 233.424575 222.054559 
L 233.678465 223.047602 
L 233.932356 224.810955 
L 234.186246 222.024869 
L 234.440136 223.395127 
L 234.694026 223.344262 
L 234.947917 222.647783 
L 235.201807 226.070956 
L 235.455697 225.884008 
L 235.709587 222.672143 
L 235.963478 223.89395 
L 236.217368 226.370257 
L 236.471258 225.3428 
L 236.725148 225.116337 
L 237.232929 222.500821 
L 237.486819 224.590925 
L 237.740709 220.143614 
L 237.9946 225.82745 
L 238.24849 224.669857 
L 238.50238 225.848976 
L 238.75627 226.096806 
L 239.010161 228.033613 
L 239.517941 221.816843 
L 239.771831 227.340889 
L 240.279612 223.748296 
L 240.533502 224.188587 
L 240.787393 223.151233 
L 241.041283 225.012028 
L 241.295173 222.708556 
L 241.549063 224.181936 
L 241.802954 220.277457 
L 242.056844 224.451038 
L 242.310734 226.276922 
L 242.564624 222.627081 
L 242.818515 226.815332 
L 243.326295 224.718493 
L 243.580185 222.788602 
L 243.834076 224.724586 
L 244.087966 228.465715 
L 244.341856 224.883031 
L 244.595746 225.158989 
L 244.849637 220.743391 
L 245.103527 221.543962 
L 245.611307 221.144155 
L 245.865198 221.794421 
L 246.119088 228.133804 
L 246.372978 226.067116 
L 246.626868 220.892824 
L 246.880759 224.855146 
L 247.134649 221.814251 
L 247.388539 220.527153 
L 247.642429 224.948674 
L 247.89632 225.659314 
L 248.15021 222.551371 
L 248.4041 223.448983 
L 248.65799 225.080106 
L 248.911881 225.748639 
L 249.165771 226.918394 
L 249.419661 224.480717 
L 249.673551 223.978635 
L 249.927442 220.416956 
L 250.181332 225.12518 
L 250.435222 221.453995 
L 250.689112 223.26315 
L 250.943003 220.688783 
L 251.196893 225.561473 
L 251.704673 223.787375 
L 251.958564 226.261998 
L 252.466344 223.466584 
L 252.720234 219.4886 
L 252.974125 224.476877 
L 253.228015 224.241499 
L 253.481905 223.700145 
L 253.735795 227.078014 
L 253.989686 225.370625 
L 254.243576 228.68302 
L 254.497466 225.031603 
L 254.751356 224.163027 
L 255.005247 224.043055 
L 255.259137 224.141853 
L 255.513027 228.341697 
L 255.766917 227.670317 
L 256.020808 226.249485 
L 256.274698 225.740366 
L 256.528588 227.326099 
L 256.782479 225.107676 
L 257.036369 226.770027 
L 257.290259 224.346535 
L 257.544149 224.708669 
L 257.79804 226.797477 
L 258.05193 223.086583 
L 258.30582 226.24275 
L 258.55971 226.280193 
L 258.813601 225.728422 
L 259.067491 222.812478 
L 259.321381 223.028038 
L 259.575271 220.228918 
L 259.829162 225.528052 
L 260.083052 223.062235 
L 260.336942 226.843096 
L 260.590832 223.690382 
L 260.844723 224.601791 
L 261.352503 220.451564 
L 261.606393 226.850655 
L 261.860284 222.066261 
L 262.114174 227.175528 
L 262.368064 218.71755 
L 262.875845 221.832567 
L 263.129735 222.765126 
L 263.383625 223.238862 
L 263.637515 222.08265 
L 263.891406 225.787899 
L 264.145296 223.891418 
L 264.399186 219.354709 
L 264.653076 223.872521 
L 264.906967 224.469366 
L 265.160857 225.556882 
L 265.414747 223.418191 
L 265.668637 222.800377 
L 265.922528 226.337066 
L 266.176418 220.81818 
L 266.430308 227.419264 
L 266.684198 224.786765 
L 266.938089 219.614423 
L 267.191979 226.860467 
L 267.445869 221.132381 
L 267.699759 223.020383 
L 267.95365 221.380902 
L 268.20754 223.865216 
L 268.46143 223.392147 
L 268.71532 222.246098 
L 268.969211 224.594668 
L 269.223101 224.617103 
L 269.476991 222.016196 
L 269.730881 224.215709 
L 269.984772 222.373811 
L 270.238662 227.464992 
L 270.492552 226.705232 
L 270.746442 225.173768 
L 271.000333 225.620587 
L 271.254223 222.520615 
L 271.508113 223.792584 
L 271.762003 227.683678 
L 272.015894 229.292512 
L 272.269784 224.520594 
L 272.523674 226.893077 
L 272.777564 219.072125 
L 273.031455 225.609164 
L 273.285345 226.983129 
L 273.539235 219.678697 
L 273.793126 226.021024 
L 274.047016 221.230621 
L 274.300906 223.524027 
L 274.554796 221.504096 
L 274.808687 222.36435 
L 275.062577 224.885187 
L 275.316467 225.536059 
L 275.570357 226.861194 
L 275.824248 223.816084 
L 276.078138 227.623607 
L 276.332028 227.020293 
L 277.093699 221.504363 
L 277.347589 225.920361 
L 277.601479 224.988467 
L 277.85537 226.123432 
L 278.10926 228.200829 
L 278.36315 227.227919 
L 278.870931 220.500224 
L 279.124821 225.037394 
L 279.378711 218.841834 
L 279.886492 226.25146 
L 280.140382 220.618586 
L 280.394272 222.525097 
L 280.648162 223.255506 
L 280.902053 226.876287 
L 281.155943 224.698518 
L 281.409833 226.267789 
L 281.663723 225.707623 
L 281.917614 223.388791 
L 282.171504 227.194183 
L 282.425394 222.649975 
L 282.679284 226.306661 
L 282.933175 219.887765 
L 283.187065 224.940909 
L 283.440955 222.090657 
L 283.694845 225.854596 
L 283.948736 221.371332 
L 284.202626 225.687551 
L 284.456516 223.471418 
L 284.710406 225.923498 
L 285.218187 220.639869 
L 285.472077 225.026007 
L 285.725967 222.104564 
L 285.979858 220.50656 
L 286.233748 221.481032 
L 286.487638 225.149492 
L 286.741528 222.125484 
L 287.249309 224.919905 
L 287.503199 222.081548 
L 287.757089 223.985007 
L 288.01098 222.804447 
L 288.26487 227.051437 
L 288.77265 225.25345 
L 289.026541 225.742025 
L 289.280431 222.980226 
L 289.534321 224.669506 
L 289.788212 223.468268 
L 290.042102 225.491554 
L 290.295992 225.36521 
L 290.549882 222.449666 
L 290.803773 226.04708 
L 291.057663 225.280682 
L 291.311553 223.542924 
L 291.565443 220.607029 
L 291.819334 220.987951 
L 292.073224 227.698045 
L 292.327114 224.768885 
L 292.581004 225.214893 
L 292.834895 221.687265 
L 293.088785 223.907117 
L 293.342675 218.594343 
L 293.596565 222.90127 
L 293.850456 221.477931 
L 294.104346 227.394528 
L 294.358236 221.891269 
L 294.612126 224.400937 
L 294.866017 224.272291 
L 295.119907 223.076044 
L 295.881578 226.1836 
L 296.135468 218.987306 
L 296.389358 224.62958 
L 296.643248 223.924573 
L 296.897139 226.193363 
L 297.151029 221.091582 
L 297.404919 221.844486 
L 297.658809 226.279781 
L 298.16659 221.613372 
L 298.67437 224.563658 
L 298.928261 221.35172 
L 299.182151 223.787302 
L 299.436041 218.193591 
L 299.689931 218.866364 
L 299.943822 223.557714 
L 300.197712 220.583178 
L 300.451602 227.379192 
L 300.705492 225.485328 
L 300.959383 224.698784 
L 301.213273 226.343316 
L 301.721053 221.469476 
L 302.228834 225.455334 
L 302.482724 218.525381 
L 302.736614 224.344088 
L 302.990505 224.329067 
L 303.244395 222.862592 
L 304.006066 225.976822 
L 304.259956 221.96326 
L 304.513846 222.624985 
L 304.767736 225.419757 
L 305.021627 224.395777 
L 305.275517 222.485038 
L 305.529407 226.175399 
L 305.783298 221.674522 
L 306.037188 221.590345 
L 306.291078 225.90236 
L 306.544968 223.095838 
L 306.798859 225.463354 
L 307.052749 221.317475 
L 307.306639 226.830522 
L 307.560529 224.974961 
L 307.81442 224.449294 
L 308.06831 224.762513 
L 308.3222 223.220292 
L 308.57609 222.965775 
L 308.829981 222.465414 
L 309.083871 221.340818 
L 309.591651 229.068702 
L 309.845542 223.266953 
L 310.099432 223.962355 
L 310.099432 223.962355 
" clip-path="url(#pb572a6861e)" style="fill: none; stroke: #0000ff; stroke-width: 0.6; stroke-linecap: square"/>
   </g>
   <g id="line2d_24">
    <path d="M 56.463068 86.810371 
L 56.716958 71.744561 
L 56.970849 89.181642 
L 57.224739 97.341894 
L 57.732519 134.378464 
L 57.98641 146.305247 
L 58.2403 125.729285 
L 58.49419 130.228903 
L 58.74808 150.035534 
L 59.001971 153.389987 
L 59.255861 153.42044 
L 59.509751 156.889148 
L 59.763641 149.426417 
L 60.017532 132.932835 
L 60.271422 46.498909 
L 60.525312 166.91481 
L 60.779202 161.024246 
L 61.033093 131.181874 
L 61.540873 166.878421 
L 61.794764 153.094829 
L 62.048654 79.47677 
L 62.302544 166.321902 
L 62.556434 168.723723 
L 62.810325 161.21249 
L 63.064215 144.344624 
L 63.318105 167.437436 
L 63.571995 162.021092 
L 63.825886 142.950163 
L 64.079776 164.055219 
L 64.333666 146.778255 
L 64.587556 174.781624 
L 64.841447 155.924548 
L 65.095337 159.83964 
L 65.603117 130.964606 
L 65.857008 169.024829 
L 66.110898 164.25376 
L 66.364788 157.203034 
L 66.618678 163.045145 
L 66.872569 142.765045 
L 67.126459 172.106619 
L 67.380349 137.781734 
L 67.634239 172.689316 
L 68.14202 170.454819 
L 68.39591 177.022736 
L 68.6498 161.044838 
L 68.903691 172.759732 
L 69.157581 176.870553 
L 69.411471 163.046986 
L 69.665361 169.778084 
L 69.919252 172.416422 
L 70.173142 134.971784 
L 70.427032 118.641686 
L 70.680922 167.852422 
L 70.934813 154.415785 
L 71.188703 147.799062 
L 71.442593 171.882446 
L 71.696483 160.591308 
L 71.950374 157.133381 
L 72.204264 116.598183 
L 72.458154 177.822894 
L 72.712044 170.595445 
L 72.965935 177.220077 
L 73.219825 168.683361 
L 73.473715 180.329255 
L 73.727605 157.819104 
L 73.981496 170.732012 
L 74.235386 88.658071 
L 74.489276 176.474029 
L 74.743166 176.458718 
L 74.997057 147.747362 
L 75.250947 177.675231 
L 75.504837 116.90308 
L 75.758727 147.832689 
L 76.012618 152.425799 
L 76.266508 133.494661 
L 76.520398 163.79427 
L 76.774288 102.91523 
L 77.028179 147.889429 
L 77.282069 166.280159 
L 77.535959 143.085302 
L 77.78985 161.090725 
L 78.04374 137.793484 
L 78.29763 178.056879 
L 78.55152 70.866016 
L 78.805411 160.458907 
L 79.059301 126.807753 
L 79.313191 161.949477 
L 79.567081 175.650455 
L 79.820972 165.593055 
L 80.074862 174.455964 
L 80.328752 175.645597 
L 80.582642 142.143185 
L 80.836533 178.433234 
L 81.344313 167.059882 
L 81.598203 155.45951 
L 81.852094 161.129512 
L 82.105984 171.010708 
L 82.359874 92.022239 
L 82.613764 167.396832 
L 82.867655 110.807118 
L 83.121545 164.229896 
L 83.375435 173.083211 
L 83.629325 173.508263 
L 83.883216 174.695776 
L 84.137106 151.511349 
L 84.390996 164.498792 
L 84.644886 116.585003 
L 84.898777 96.561661 
L 85.152667 168.78893 
L 85.406557 174.02081 
L 85.660447 135.041316 
L 85.914338 171.640987 
L 86.168228 165.365297 
L 86.422118 166.732599 
L 86.676008 161.743038 
L 86.929899 169.226762 
L 87.183789 163.520286 
L 87.437679 170.35831 
L 87.691569 150.627595 
L 87.94546 145.202334 
L 88.19935 60.718152 
L 88.45324 150.618631 
L 88.70713 166.714622 
L 88.961021 168.811692 
L 89.214911 158.166277 
L 89.468801 177.372344 
L 89.722691 165.879613 
L 89.976582 164.124218 
L 90.230472 163.582792 
L 90.484362 166.007774 
L 90.738252 172.572699 
L 90.992143 66.182152 
L 91.246033 165.68616 
L 91.499923 164.884705 
L 91.753813 157.864626 
L 92.007704 171.152558 
L 92.261594 76.534007 
L 92.515484 164.571013 
L 92.769374 134.536812 
L 93.023265 172.988241 
L 93.277155 161.092614 
L 93.784936 163.717979 
L 94.038826 174.724533 
L 94.292716 164.490579 
L 94.546606 175.562656 
L 94.800497 177.122394 
L 95.054387 177.612349 
L 95.308277 118.026125 
L 95.562167 178.871683 
L 95.816058 153.139746 
L 96.069948 170.305616 
L 96.323838 165.942918 
L 96.577728 176.942641 
L 96.831619 174.44528 
L 97.085509 165.905681 
L 97.339399 166.111781 
L 97.593289 167.367033 
L 97.84718 120.444857 
L 98.10107 159.57244 
L 98.35496 172.936989 
L 98.60885 164.56767 
L 98.862741 167.284007 
L 99.116631 157.746447 
L 99.370521 171.3009 
L 99.624411 158.034724 
L 100.132192 173.450554 
L 100.386082 167.119117 
L 100.639972 140.4282 
L 100.893863 168.258479 
L 101.147753 154.855045 
L 101.401643 164.692318 
L 101.655533 110.06737 
L 101.909424 169.201238 
L 102.163314 175.221067 
L 102.417204 126.706847 
L 102.671094 175.60039 
L 102.924985 140.086405 
L 103.178875 166.313132 
L 103.432765 147.785035 
L 103.686655 166.07074 
L 103.940546 144.243718 
L 104.194436 161.942378 
L 104.448326 152.498892 
L 104.956107 172.560719 
L 105.209997 171.911543 
L 105.463887 148.336031 
L 105.717777 173.919989 
L 105.971668 132.46896 
L 106.225558 171.434028 
L 106.479448 157.134375 
L 106.733338 152.91458 
L 106.987229 155.450134 
L 107.241119 172.83664 
L 107.495009 157.667006 
L 107.748899 151.151068 
L 108.00279 177.080335 
L 108.25668 154.274347 
L 108.51057 169.481751 
L 108.76446 174.902626 
L 109.018351 127.355793 
L 109.780021 175.242241 
L 110.033912 168.499199 
L 110.287802 64.672589 
L 110.541692 168.654555 
L 110.795583 171.864118 
L 111.049473 166.314464 
L 111.303363 171.616978 
L 111.557253 156.881686 
L 111.811144 153.716035 
L 112.318924 174.198758 
L 112.572814 149.401076 
L 112.826705 173.759207 
L 113.080595 171.274032 
L 113.334485 154.333049 
L 113.588375 165.275851 
L 113.842266 157.500397 
L 114.096156 131.98047 
L 114.350046 169.519158 
L 114.603936 155.560925 
L 114.857827 154.493481 
L 115.111717 166.352089 
L 115.365607 159.752568 
L 115.619497 160.649187 
L 115.873388 168.50293 
L 116.127278 171.163799 
L 116.381168 171.681265 
L 116.635058 160.844796 
L 116.888949 157.789086 
L 117.142839 162.029377 
L 117.396729 168.220879 
L 117.90451 148.670194 
L 118.1584 166.104803 
L 118.41229 147.298459 
L 118.66618 166.122877 
L 118.920071 141.204096 
L 119.173961 163.59459 
L 119.427851 164.489852 
L 119.681741 172.710175 
L 120.189522 155.869262 
L 120.443412 154.08494 
L 120.697302 159.38187 
L 120.951193 173.794808 
L 121.458973 155.438239 
L 121.712863 159.198737 
L 121.966754 124.740967 
L 122.220644 134.927691 
L 122.728424 174.556119 
L 122.982315 172.056723 
L 123.236205 160.391895 
L 123.490095 85.666442 
L 123.743985 173.798745 
L 124.251766 160.862433 
L 124.505656 173.331866 
L 124.759546 158.139894 
L 125.013437 176.569229 
L 125.267327 162.780489 
L 125.521217 166.551744 
L 125.775107 166.929783 
L 126.028998 172.455246 
L 126.282888 165.606962 
L 126.536778 174.453881 
L 126.790669 172.377853 
L 127.044559 168.997743 
L 127.298449 92.871373 
L 127.552339 118.973839 
L 127.80623 167.785555 
L 128.06012 155.508206 
L 128.31401 148.95651 
L 128.821791 176.534088 
L 129.075681 178.766429 
L 129.329571 165.485439 
L 129.583461 167.588286 
L 129.837352 162.360004 
L 130.091242 153.467538 
L 130.345132 170.539105 
L 130.599022 168.527266 
L 130.852913 161.829335 
L 131.106803 134.442035 
L 131.360693 169.172408 
L 131.614583 163.180332 
L 131.868474 165.922689 
L 132.122364 118.801488 
L 132.376254 153.853741 
L 132.630144 157.181738 
L 132.884035 169.026501 
L 133.137925 135.321744 
L 133.391815 164.383132 
L 133.645705 155.677529 
L 133.899596 159.773815 
L 134.153486 140.994338 
L 134.407376 164.128312 
L 134.661266 172.202776 
L 134.915157 171.866456 
L 135.169047 162.815012 
L 135.422937 177.022312 
L 135.676827 170.064327 
L 135.930718 171.85444 
L 136.184608 170.347602 
L 136.438498 165.444955 
L 136.692388 169.344832 
L 136.946279 155.42896 
L 137.200169 171.165241 
L 137.454059 142.829537 
L 137.707949 169.107225 
L 137.96184 149.87864 
L 138.21573 173.704744 
L 138.46962 139.810314 
L 138.72351 170.419387 
L 138.977401 169.384722 
L 139.231291 169.278729 
L 139.485181 127.943711 
L 139.739071 159.796273 
L 139.992962 169.823668 
L 140.246852 155.853563 
L 140.754632 168.623653 
L 141.008523 172.17844 
L 141.262413 159.745348 
L 141.516303 173.021238 
L 141.770193 164.940839 
L 142.024084 165.968478 
L 142.277974 163.193439 
L 142.531864 130.529706 
L 142.785755 151.376695 
L 143.039645 153.416637 
L 143.293535 149.676368 
L 143.547425 105.891862 
L 143.801316 167.940984 
L 144.055206 167.256848 
L 144.309096 168.301688 
L 144.562986 166.053103 
L 144.816877 150.726247 
L 145.070767 168.646548 
L 145.324657 173.61898 
L 145.578547 171.148463 
L 145.832438 146.993585 
L 146.086328 155.369458 
L 146.340218 147.241937 
L 146.847999 175.887832 
L 147.355779 146.514641 
L 147.609669 165.580821 
L 147.86356 164.264468 
L 148.11745 128.358962 
L 148.37134 135.778302 
L 148.62523 158.014083 
L 149.133011 168.46069 
L 149.386901 169.757685 
L 149.640791 149.404662 
L 149.894682 148.128768 
L 150.148572 170.50492 
L 150.402462 168.91863 
L 150.656352 142.377242 
L 150.910243 168.32153 
L 151.164133 160.320304 
L 151.418023 171.26416 
L 151.671913 163.978274 
L 151.925804 160.168813 
L 152.179694 138.165709 
L 152.433584 153.011706 
L 152.941365 165.664864 
L 153.195255 154.997936 
L 153.449145 152.463472 
L 153.703035 160.833869 
L 153.956926 162.203037 
L 154.210816 107.902755 
L 154.464706 163.616201 
L 154.972487 152.051976 
L 155.226377 162.08212 
L 155.480267 163.101715 
L 155.734157 124.872326 
L 155.988048 158.547102 
L 156.241938 147.060549 
L 156.749718 171.391061 
L 157.003609 162.607193 
L 157.257499 170.124713 
L 157.511389 150.67709 
L 157.765279 168.641327 
L 158.01917 150.024074 
L 158.27306 172.928727 
L 158.78084 153.465164 
L 159.034731 164.007031 
L 159.542511 168.315655 
L 159.796402 168.182309 
L 160.050292 161.681889 
L 160.304182 161.02536 
L 160.558072 155.657809 
L 160.811963 173.500583 
L 161.065853 160.992702 
L 161.319743 171.594617 
L 161.573633 149.685526 
L 161.827524 171.477842 
L 162.081414 146.416303 
L 162.335304 175.170129 
L 162.589194 167.584616 
L 162.843085 165.786145 
L 163.096975 162.337352 
L 163.350865 170.562096 
L 163.858646 165.170148 
L 164.112536 172.241382 
L 164.366426 162.054961 
L 164.620316 162.630693 
L 164.874207 168.439189 
L 165.128097 145.015956 
L 165.381987 167.890385 
L 165.635877 166.741321 
L 166.143658 167.188455 
L 166.397548 168.132135 
L 166.651438 163.612882 
L 166.905329 163.957051 
L 167.159219 165.142796 
L 167.413109 162.136388 
L 167.666999 170.769152 
L 168.17478 145.287832 
L 168.42867 171.31632 
L 168.68256 159.85076 
L 168.936451 167.003578 
L 169.190341 154.177512 
L 169.444231 160.475575 
L 169.698121 159.784693 
L 169.952012 170.952042 
L 170.205902 170.508167 
L 170.459792 158.941131 
L 170.713682 160.065266 
L 170.967573 174.45101 
L 171.475353 144.26264 
L 171.729243 171.950706 
L 171.983134 138.196404 
L 172.237024 167.637564 
L 172.490914 164.929985 
L 172.744804 171.982431 
L 172.998695 153.887659 
L 173.252585 151.837954 
L 173.506475 162.558884 
L 173.760365 165.471145 
L 174.014256 119.784088 
L 174.268146 170.389708 
L 174.522036 158.497728 
L 174.775926 164.692172 
L 175.029817 162.335801 
L 175.283707 167.266805 
L 175.537597 167.764986 
L 175.791488 156.276059 
L 176.045378 164.508604 
L 176.299268 159.882207 
L 176.553158 159.758116 
L 176.807049 175.416773 
L 177.060939 145.123693 
L 177.314829 167.869296 
L 177.568719 159.432286 
L 177.82261 167.823167 
L 178.0765 159.109751 
L 178.33039 160.215425 
L 178.58428 153.44365 
L 179.092061 173.884993 
L 179.345951 173.510189 
L 179.599841 141.465312 
L 179.853732 140.607456 
L 180.107622 164.657988 
L 180.361512 169.750805 
L 180.615402 160.029992 
L 180.869293 170.3312 
L 181.123183 170.177322 
L 181.377073 144.139082 
L 181.630963 167.727761 
L 181.884854 131.146914 
L 182.138744 154.710482 
L 182.392634 165.716613 
L 182.646524 164.087271 
L 182.900415 165.732555 
L 183.154305 170.906605 
L 183.408195 161.398553 
L 183.662085 158.85699 
L 183.915976 151.202139 
L 184.169866 177.596105 
L 184.423756 159.192584 
L 184.677646 170.859786 
L 184.931537 163.615789 
L 185.185427 149.034496 
L 185.439317 163.285429 
L 185.693207 158.98176 
L 185.947098 150.26775 
L 186.200988 173.51902 
L 186.454878 163.389896 
L 186.708768 169.005847 
L 186.962659 162.231019 
L 187.216549 138.898577 
L 187.470439 160.449241 
L 187.724329 163.424977 
L 187.97822 162.12333 
L 188.23211 172.266772 
L 188.486 165.79976 
L 188.73989 143.354368 
L 188.993781 152.53453 
L 189.247671 169.547964 
L 189.755451 158.615374 
L 190.009342 173.230778 
L 190.517122 165.035567 
L 190.771012 141.853502 
L 191.024903 167.799655 
L 191.278793 164.815464 
L 191.532683 166.569066 
L 191.786574 145.48063 
L 192.040464 165.329828 
L 192.294354 171.785598 
L 192.548244 166.290964 
L 192.802135 165.548163 
L 193.056025 154.511118 
L 193.309915 170.08687 
L 193.563805 168.207311 
L 193.817696 172.288431 
L 194.071586 147.992685 
L 194.325476 171.861223 
L 194.579366 171.099246 
L 194.833257 171.338682 
L 195.087147 154.560832 
L 195.594927 171.339748 
L 195.848818 172.052435 
L 196.102708 172.249692 
L 196.356598 155.292537 
L 196.864379 161.918175 
L 197.118269 168.749477 
L 197.372159 170.790811 
L 197.626049 152.709546 
L 197.87994 174.194724 
L 198.13383 164.696679 
L 198.38772 166.960382 
L 198.64161 161.807021 
L 198.895501 120.587143 
L 199.149391 171.292481 
L 199.403281 160.640223 
L 199.657171 162.684646 
L 199.911062 168.828081 
L 200.164952 163.106464 
L 200.418842 171.236662 
L 200.672732 173.59995 
L 200.926623 160.159752 
L 201.180513 166.647053 
L 201.688293 167.862258 
L 201.942184 162.020704 
L 202.196074 166.04959 
L 202.449964 165.357132 
L 202.703854 162.222782 
L 202.957745 153.524641 
L 203.211635 165.896814 
L 203.465525 165.010685 
L 203.719415 160.071783 
L 203.973306 168.009158 
L 204.481086 162.395569 
L 204.734976 153.50916 
L 204.988867 163.411603 
L 205.242757 168.904857 
L 205.496647 154.974824 
L 205.750537 164.108834 
L 206.004428 162.846701 
L 206.258318 154.328228 
L 206.512208 163.885799 
L 206.766098 133.859278 
L 207.019989 159.756856 
L 207.273879 165.192776 
L 207.527769 139.276301 
L 207.78166 154.486285 
L 208.03555 156.342005 
L 208.28944 162.962119 
L 208.54333 159.635018 
L 208.797221 121.118611 
L 209.305001 165.447208 
L 209.558891 149.455514 
L 209.812782 166.279601 
L 210.066672 161.217262 
L 210.320562 130.900864 
L 210.574452 161.168421 
L 210.828343 149.311581 
L 211.082233 165.567375 
L 211.336123 156.280589 
L 211.590013 168.819892 
L 211.843904 168.140481 
L 212.097794 163.466938 
L 212.351684 167.293479 
L 212.605574 135.749569 
L 212.859465 169.886876 
L 213.367245 155.135498 
L 213.621135 169.142669 
L 213.875026 159.923175 
L 214.128916 159.203728 
L 214.382806 170.44004 
L 214.636696 156.349055 
L 214.890587 163.477452 
L 215.144477 163.766481 
L 215.398367 167.410399 
L 215.652257 121.947709 
L 215.906148 157.9007 
L 216.160038 166.87612 
L 216.413928 155.29685 
L 216.667818 154.727853 
L 216.921709 158.597882 
L 217.175599 86.622417 
L 217.429489 146.199544 
L 217.683379 160.394609 
L 218.19116 139.140363 
L 218.44505 165.658662 
L 218.69894 166.527493 
L 218.952831 155.802662 
L 219.206721 165.14328 
L 219.460611 145.176024 
L 219.714501 156.640361 
L 219.968392 161.963577 
L 220.222282 161.500065 
L 220.476172 144.239212 
L 220.730062 148.459516 
L 220.983953 167.483371 
L 221.237843 171.562722 
L 221.491733 169.531707 
L 221.999514 153.600351 
L 222.253404 164.830654 
L 222.507294 169.83738 
L 222.761184 142.93381 
L 223.015075 169.564826 
L 223.268965 168.581983 
L 223.522855 151.704971 
L 224.284526 167.448896 
L 224.538416 158.639189 
L 224.792307 170.950116 
L 225.046197 153.178994 
L 225.300087 166.14611 
L 225.553977 163.511709 
L 225.807868 167.715926 
L 226.061758 163.18915 
L 226.315648 168.276528 
L 226.569538 169.202183 
L 227.077319 171.847813 
L 227.331209 170.120231 
L 227.585099 166.601167 
L 227.83899 168.505534 
L 228.09288 125.085234 
L 228.34677 169.248941 
L 228.854551 152.425169 
L 229.108441 170.808897 
L 229.362331 159.860281 
L 229.616221 164.494916 
L 229.870112 163.441451 
L 230.124002 174.730348 
L 230.377892 147.801388 
L 230.631782 149.844334 
L 230.885673 165.280987 
L 231.393453 161.299004 
L 231.647343 165.494403 
L 231.901234 160.158661 
L 232.155124 127.429879 
L 232.409014 164.866389 
L 232.662904 163.621797 
L 232.916795 166.581907 
L 233.170685 161.793575 
L 233.424575 169.37858 
L 233.678465 173.115978 
L 233.932356 116.138911 
L 234.186246 162.855471 
L 234.440136 179.420668 
L 234.694026 173.737245 
L 234.947917 164.883469 
L 235.201807 167.279646 
L 235.455697 143.424868 
L 235.709587 156.514041 
L 235.963478 162.372844 
L 236.217368 172.438905 
L 236.471258 136.750679 
L 236.725148 156.082412 
L 236.979039 165.004411 
L 237.232929 163.121072 
L 237.740709 151.05542 
L 237.9946 153.383397 
L 238.24849 162.606756 
L 238.50238 165.681411 
L 238.75627 152.606387 
L 239.010161 154.21017 
L 239.264051 162.892393 
L 239.517941 158.349434 
L 239.771831 164.00834 
L 240.025722 163.135851 
L 240.279612 168.453688 
L 240.533502 157.163883 
L 240.787393 172.857173 
L 241.041283 154.476304 
L 241.295173 167.876309 
L 241.549063 150.721862 
L 241.802954 171.981632 
L 242.056844 154.245808 
L 242.310734 151.824508 
L 242.564624 168.207493 
L 242.818515 153.817982 
L 243.072405 168.857299 
L 243.326295 163.58817 
L 243.580185 143.407134 
L 243.834076 171.624694 
L 244.087966 171.515031 
L 244.341856 139.987995 
L 244.595746 171.432937 
L 244.849637 170.066665 
L 245.103527 170.021809 
L 245.357417 164.994962 
L 245.611307 154.995901 
L 245.865198 150.473026 
L 246.119088 175.805617 
L 246.372978 98.462152 
L 246.626868 167.841895 
L 246.880759 172.843218 
L 247.134649 134.17515 
L 247.388539 150.078416 
L 247.642429 150.907223 
L 247.89632 164.175652 
L 248.15021 159.6771 
L 248.4041 166.225284 
L 248.65799 165.808652 
L 248.911881 169.75112 
L 249.165771 167.67388 
L 249.419661 148.715983 
L 249.673551 171.222852 
L 249.927442 162.54648 
L 250.181332 164.048581 
L 250.435222 170.128032 
L 250.689112 160.337021 
L 250.943003 161.215954 
L 251.196893 145.699352 
L 251.450783 169.457875 
L 251.704673 164.927054 
L 251.958564 166.68257 
L 252.212454 172.609924 
L 252.720234 163.521158 
L 252.974125 137.160722 
L 253.228015 156.192911 
L 253.481905 158.691592 
L 253.735795 167.2278 
L 253.989686 168.052719 
L 254.243576 160.344216 
L 254.497466 156.779182 
L 254.751356 170.490784 
L 255.005247 134.854355 
L 255.259137 167.658981 
L 255.513027 157.086332 
L 255.766917 117.027438 
L 256.020808 155.692162 
L 256.274698 167.621671 
L 256.528588 159.546008 
L 256.782479 173.898694 
L 257.036369 146.544682 
L 257.290259 162.77465 
L 257.544149 158.632382 
L 257.79804 166.981265 
L 258.05193 165.447208 
L 258.30582 171.843489 
L 258.55971 160.393228 
L 258.813601 159.525294 
L 259.067491 118.223115 
L 259.321381 158.017039 
L 259.575271 146.14685 
L 259.829162 157.950705 
L 260.083052 175.142656 
L 260.336942 156.034103 
L 260.590832 169.979181 
L 260.844723 150.852833 
L 261.352503 172.690794 
L 261.606393 165.786024 
L 261.860284 128.922653 
L 262.114174 162.653636 
L 262.368064 170.408157 
L 262.621954 161.598378 
L 262.875845 167.681439 
L 263.129735 146.0826 
L 263.383625 164.129766 
L 263.637515 166.752344 
L 263.891406 126.07801 
L 264.145296 169.287656 
L 264.399186 165.785685 
L 264.653076 169.194806 
L 264.906967 157.526126 
L 265.160857 156.315379 
L 265.668637 167.923576 
L 266.176418 158.168918 
L 266.430308 156.692013 
L 266.684198 158.497679 
L 266.938089 124.272634 
L 267.191979 172.510157 
L 267.445869 155.3376 
L 267.699759 163.22365 
L 267.95365 78.411095 
L 268.20754 149.065362 
L 268.71532 163.263503 
L 268.969211 154.89565 
L 269.223101 158.776339 
L 269.476991 154.47267 
L 269.730881 170.30214 
L 269.984772 133.828049 
L 270.238662 167.393634 
L 270.492552 171.429546 
L 270.746442 148.053204 
L 271.000333 168.148755 
L 271.254223 163.89314 
L 271.508113 169.656343 
L 271.762003 165.987787 
L 272.015894 169.58187 
L 272.269784 164.926036 
L 272.523674 164.131607 
L 272.777564 156.121005 
L 273.031455 167.729457 
L 273.285345 154.690325 
L 273.539235 162.343723 
L 273.793126 163.81525 
L 274.047016 112.160127 
L 274.300906 164.811515 
L 274.554796 169.31278 
L 274.808687 164.105611 
L 275.062577 172.268855 
L 275.316467 167.40473 
L 275.570357 166.349133 
L 275.824248 170.745471 
L 276.078138 58.894728 
L 276.332028 172.792196 
L 276.585918 158.673568 
L 276.839809 168.61303 
L 277.093699 156.217332 
L 277.347589 165.669443 
L 277.601479 166.861099 
L 277.85537 166.823814 
L 278.10926 142.346837 
L 278.36315 161.994151 
L 278.870931 174.475164 
L 279.124821 167.335949 
L 279.378711 81.229718 
L 280.140382 172.77709 
L 280.394272 144.569693 
L 280.902053 172.347945 
L 281.155943 149.038542 
L 281.409833 169.252636 
L 281.663723 170.041348 
L 281.917614 168.858728 
L 282.171504 165.215428 
L 282.425394 166.649718 
L 282.679284 170.131654 
L 282.933175 162.654629 
L 283.187065 127.416796 
L 283.440955 172.384673 
L 283.694845 160.727077 
L 283.948736 171.63957 
L 284.202626 157.714443 
L 284.456516 151.718417 
L 284.710406 169.656162 
L 284.964297 148.254385 
L 285.218187 170.038053 
L 285.472077 166.044429 
L 285.725967 155.937704 
L 285.979858 166.361416 
L 286.233748 164.585477 
L 286.487638 167.745193 
L 286.741528 144.029091 
L 286.995419 164.301221 
L 287.503199 170.178267 
L 287.757089 162.004981 
L 288.01098 133.759341 
L 288.26487 162.761519 
L 288.51876 160.504818 
L 288.77265 156.577879 
L 289.026541 171.490804 
L 289.280431 158.661551 
L 289.534321 157.033202 
L 289.788212 168.662332 
L 290.042102 166.284447 
L 290.295992 169.648603 
L 290.549882 162.590645 
L 290.803773 170.21451 
L 291.057663 100.010867 
L 291.311553 109.246921 
L 291.565443 169.289716 
L 291.819334 164.759693 
L 292.073224 162.748606 
L 292.327114 173.184178 
L 292.834895 157.788384 
L 293.088785 155.576066 
L 293.342675 163.022929 
L 293.596565 153.453753 
L 293.850456 162.542579 
L 294.104346 159.707021 
L 294.358236 162.599755 
L 294.612126 150.804791 
L 294.866017 171.520518 
L 295.119907 157.767476 
L 295.373797 175.686275 
L 295.627687 163.948523 
L 295.881578 166.182984 
L 296.135468 173.415255 
L 296.389358 171.941936 
L 296.643248 86.748567 
L 296.897139 169.776812 
L 297.151029 163.846455 
L 297.404919 142.61755 
L 297.9127 170.446569 
L 298.16659 158.655954 
L 298.42048 170.17817 
L 298.67437 150.341594 
L 298.928261 166.835152 
L 299.182151 169.312804 
L 299.436041 149.317735 
L 299.689931 146.315058 
L 299.943822 168.690605 
L 300.197712 168.363406 
L 300.451602 167.001761 
L 300.705492 168.176168 
L 300.959383 155.802081 
L 301.467163 150.099348 
L 301.721053 156.705774 
L 301.974944 168.386216 
L 302.228834 163.651693 
L 302.482724 156.311406 
L 302.736614 163.814257 
L 302.990505 167.169655 
L 303.244395 120.090052 
L 303.498285 156.790399 
L 303.752175 171.15045 
L 304.006066 171.936569 
L 304.259956 171.016595 
L 304.513846 153.747917 
L 304.767736 161.772256 
L 305.021627 141.571983 
L 305.275517 169.915161 
L 305.529407 142.386303 
L 305.783298 154.06832 
L 306.037188 171.613356 
L 306.291078 162.740223 
L 306.544968 164.573436 
L 306.798859 169.227125 
L 307.052749 158.020334 
L 307.560529 165.967654 
L 307.81442 160.597268 
L 308.06831 169.35405 
L 308.3222 169.104233 
L 308.57609 169.763984 
L 308.829981 155.216779 
L 309.083871 149.743889 
L 309.337761 171.273426 
L 309.591651 170.609629 
L 309.845542 164.172672 
L 310.099432 170.614596 
L 310.099432 170.614596 
" clip-path="url(#pb572a6861e)" style="fill: none; stroke: #ff0000; stroke-width: 0.6; stroke-linecap: square"/>
   </g>
   <g id="patch_3">
    <path d="M 43.78125 239.76 
L 43.78125 37.296 
" style="fill: none; stroke: #000000; stroke-width: 0.8; stroke-linejoin: miter; stroke-linecap: square"/>
   </g>
   <g id="patch_4">
    <path d="M 322.78125 239.76 
L 322.78125 37.296 
" style="fill: none; stroke: #000000; stroke-width: 0.8; stroke-linejoin: miter; stroke-linecap: square"/>
   </g>
   <g id="patch_5">
    <path d="M 43.78125 239.76 
L 322.78125 239.76 
" style="fill: none; stroke: #000000; stroke-width: 0.8; stroke-linejoin: miter; stroke-linecap: square"/>
   </g>
   <g id="patch_6">
    <path d="M 43.78125 37.296 
L 322.78125 37.296 
" style="fill: none; stroke: #000000; stroke-width: 0.8; stroke-linejoin: miter; stroke-linecap: square"/>
   </g>
   <g id="text_14">
    <!-- Baseline Model -->
    <g transform="translate(149.259844 31.296) scale(0.09 -0.09)">
     <defs>
      <path id="DejaVuSans-42" d="M 1259 2228 
L 1259 519 
L 2272 519 
Q 2781 519 3026 730 
Q 3272 941 3272 1375 
Q 3272 1813 3026 2020 
Q 2781 2228 2272 2228 
L 1259 2228 
z
M 1259 4147 
L 1259 2741 
L 2194 2741 
Q 2656 2741 2882 2914 
Q 3109 3088 3109 3444 
Q 3109 3797 2882 3972 
Q 2656 4147 2194 4147 
L 1259 4147 
z
M 628 4666 
L 2241 4666 
Q 2963 4666 3353 4366 
Q 3744 4066 3744 3513 
Q 3744 3084 3544 2831 
Q 3344 2578 2956 2516 
Q 3422 2416 3680 2098 
Q 3938 1781 3938 1306 
Q 3938 681 3513 340 
Q 3088 0 2303 0 
L 628 0 
L 628 4666 
z
" transform="scale(0.015625)"/>
      <path id="DejaVuSans-61" d="M 2194 1759 
Q 1497 1759 1228 1600 
Q 959 1441 959 1056 
Q 959 750 1161 570 
Q 1363 391 1709 391 
Q 2188 391 2477 730 
Q 2766 1069 2766 1631 
L 2766 1759 
L 2194 1759 
z
M 3341 1997 
L 3341 0 
L 2766 0 
L 2766 531 
Q 2569 213 2275 61 
Q 1981 -91 1556 -91 
Q 1019 -91 701 211 
Q 384 513 384 1019 
Q 384 1609 779 1909 
Q 1175 2209 1959 2209 
L 2766 2209 
L 2766 2266 
Q 2766 2663 2505 2880 
Q 2244 3097 1772 3097 
Q 1472 3097 1187 3025 
Q 903 2953 641 2809 
L 641 3341 
Q 956 3463 1253 3523 
Q 1550 3584 1831 3584 
Q 2591 3584 2966 3190 
Q 3341 2797 3341 1997 
z
" transform="scale(0.015625)"/>
      <path id="DejaVuSans-65" d="M 3597 1894 
L 3597 1613 
L 953 1613 
Q 991 1019 1311 708 
Q 1631 397 2203 397 
Q 2534 397 2845 478 
Q 3156 559 3463 722 
L 3463 178 
Q 3153 47 2828 -22 
Q 2503 -91 2169 -91 
Q 1331 -91 842 396 
Q 353 884 353 1716 
Q 353 2575 817 3079 
Q 1281 3584 2069 3584 
Q 2775 3584 3186 3129 
Q 3597 2675 3597 1894 
z
M 3022 2063 
Q 3016 2534 2758 2815 
Q 2500 3097 2075 3097 
Q 1594 3097 1305 2825 
Q 1016 2553 972 2059 
L 3022 2063 
z
" transform="scale(0.015625)"/>
      <path id="DejaVuSans-6c" d="M 603 4863 
L 1178 4863 
L 1178 0 
L 603 0 
L 603 4863 
z
" transform="scale(0.015625)"/>
      <path id="DejaVuSans-69" d="M 603 3500 
L 1178 3500 
L 1178 0 
L 603 0 
L 603 3500 
z
M 603 4863 
L 1178 4863 
L 1178 4134 
L 603 4134 
L 603 4863 
z
" transform="scale(0.015625)"/>
      <path id="DejaVuSans-6e" d="M 3513 2113 
L 3513 0 
L 2938 0 
L 2938 2094 
Q 2938 2591 2744 2837 
Q 2550 3084 2163 3084 
Q 1697 3084 1428 2787 
Q 1159 2491 1159 1978 
L 1159 0 
L 581 0 
L 581 3500 
L 1159 3500 
L 1159 2956 
Q 1366 3272 1645 3428 
Q 1925 3584 2291 3584 
Q 2894 3584 3203 3211 
Q 3513 2838 3513 2113 
z
" transform="scale(0.015625)"/>
      <path id="DejaVuSans-20" transform="scale(0.015625)"/>
      <path id="DejaVuSans-4d" d="M 628 4666 
L 1569 4666 
L 2759 1491 
L 3956 4666 
L 4897 4666 
L 4897 0 
L 4281 0 
L 4281 4097 
L 3078 897 
L 2444 897 
L 1241 4097 
L 1241 0 
L 628 0 
L 628 4666 
z
" transform="scale(0.015625)"/>
      <path id="DejaVuSans-64" d="M 2906 2969 
L 2906 4863 
L 3481 4863 
L 3481 0 
L 2906 0 
L 2906 525 
Q 2725 213 2448 61 
Q 2172 -91 1784 -91 
Q 1150 -91 751 415 
Q 353 922 353 1747 
Q 353 2572 751 3078 
Q 1150 3584 1784 3584 
Q 2172 3584 2448 3432 
Q 2725 3281 2906 2969 
z
M 947 1747 
Q 947 1113 1208 752 
Q 1469 391 1925 391 
Q 2381 391 2643 752 
Q 2906 1113 2906 1747 
Q 2906 2381 2643 2742 
Q 2381 3103 1925 3103 
Q 1469 3103 1208 2742 
Q 947 2381 947 1747 
z
" transform="scale(0.015625)"/>
     </defs>
     <use xlink:href="#DejaVuSans-42"/>
     <use xlink:href="#DejaVuSans-61" x="68.603516"/>
     <use xlink:href="#DejaVuSans-73" x="129.882812"/>
     <use xlink:href="#DejaVuSans-65" x="181.982422"/>
     <use xlink:href="#DejaVuSans-6c" x="243.505859"/>
     <use xlink:href="#DejaVuSans-69" x="271.289062"/>
     <use xlink:href="#DejaVuSans-6e" x="299.072266"/>
     <use xlink:href="#DejaVuSans-65" x="362.451172"/>
     <use xlink:href="#DejaVuSans-20" x="423.974609"/>
     <use xlink:href="#DejaVuSans-4d" x="455.761719"/>
     <use xlink:href="#DejaVuSans-6f" x="542.041016"/>
     <use xlink:href="#DejaVuSans-64" x="603.222656"/>
     <use xlink:href="#DejaVuSans-65" x="666.699219"/>
     <use xlink:href="#DejaVuSans-6c" x="728.222656"/>
    </g>
   </g>
   <g id="legend_1">
    <g id="patch_7">
     <path d="M 130.034375 74.65225 
L 236.528125 74.65225 
Q 238.528125 74.65225 238.528125 72.65225 
L 238.528125 44.296 
Q 238.528125 42.296 236.528125 42.296 
L 130.034375 42.296 
Q 128.034375 42.296 128.034375 44.296 
L 128.034375 72.65225 
Q 128.034375 74.65225 130.034375 74.65225 
z
" style="fill: #ffffff; opacity: 0.8; stroke: #cccccc; stroke-linejoin: miter"/>
    </g>
    <g id="line2d_25">
     <path d="M 132.034375 50.394438 
L 142.034375 50.394438 
L 152.034375 50.394438 
" style="fill: none; stroke: #0000ff; stroke-width: 0.6; stroke-linecap: square"/>
    </g>
    <g id="text_15">
     <!-- Training Loss -->
     <g transform="translate(160.034375 53.894438) scale(0.1 -0.1)">
      <defs>
       <path id="DejaVuSans-54" d="M -19 4666 
L 3928 4666 
L 3928 4134 
L 2272 4134 
L 2272 0 
L 1638 0 
L 1638 4134 
L -19 4134 
L -19 4666 
z
" transform="scale(0.015625)"/>
       <path id="DejaVuSans-72" d="M 2631 2963 
Q 2534 3019 2420 3045 
Q 2306 3072 2169 3072 
Q 1681 3072 1420 2755 
Q 1159 2438 1159 1844 
L 1159 0 
L 581 0 
L 581 3500 
L 1159 3500 
L 1159 2956 
Q 1341 3275 1631 3429 
Q 1922 3584 2338 3584 
Q 2397 3584 2469 3576 
Q 2541 3569 2628 3553 
L 2631 2963 
z
" transform="scale(0.015625)"/>
       <path id="DejaVuSans-67" d="M 2906 1791 
Q 2906 2416 2648 2759 
Q 2391 3103 1925 3103 
Q 1463 3103 1205 2759 
Q 947 2416 947 1791 
Q 947 1169 1205 825 
Q 1463 481 1925 481 
Q 2391 481 2648 825 
Q 2906 1169 2906 1791 
z
M 3481 434 
Q 3481 -459 3084 -895 
Q 2688 -1331 1869 -1331 
Q 1566 -1331 1297 -1286 
Q 1028 -1241 775 -1147 
L 775 -588 
Q 1028 -725 1275 -790 
Q 1522 -856 1778 -856 
Q 2344 -856 2625 -561 
Q 2906 -266 2906 331 
L 2906 616 
Q 2728 306 2450 153 
Q 2172 0 1784 0 
Q 1141 0 747 490 
Q 353 981 353 1791 
Q 353 2603 747 3093 
Q 1141 3584 1784 3584 
Q 2172 3584 2450 3431 
Q 2728 3278 2906 2969 
L 2906 3500 
L 3481 3500 
L 3481 434 
z
" transform="scale(0.015625)"/>
      </defs>
      <use xlink:href="#DejaVuSans-54"/>
      <use xlink:href="#DejaVuSans-72" x="46.333984"/>
      <use xlink:href="#DejaVuSans-61" x="87.447266"/>
      <use xlink:href="#DejaVuSans-69" x="148.726562"/>
      <use xlink:href="#DejaVuSans-6e" x="176.509766"/>
      <use xlink:href="#DejaVuSans-69" x="239.888672"/>
      <use xlink:href="#DejaVuSans-6e" x="267.671875"/>
      <use xlink:href="#DejaVuSans-67" x="331.050781"/>
      <use xlink:href="#DejaVuSans-20" x="394.527344"/>
      <use xlink:href="#DejaVuSans-4c" x="426.314453"/>
      <use xlink:href="#DejaVuSans-6f" x="480.277344"/>
      <use xlink:href="#DejaVuSans-73" x="541.458984"/>
      <use xlink:href="#DejaVuSans-73" x="593.558594"/>
     </g>
    </g>
    <g id="line2d_26">
     <path d="M 132.034375 65.072563 
L 142.034375 65.072563 
L 152.034375 65.072563 
" style="fill: none; stroke: #ff0000; stroke-width: 0.6; stroke-linecap: square"/>
    </g>
    <g id="text_16">
     <!-- Validation Loss -->
     <g transform="translate(160.034375 68.572563) scale(0.1 -0.1)">
      <defs>
       <path id="DejaVuSans-56" d="M 1831 0 
L 50 4666 
L 709 4666 
L 2188 738 
L 3669 4666 
L 4325 4666 
L 2547 0 
L 1831 0 
z
" transform="scale(0.015625)"/>
       <path id="DejaVuSans-74" d="M 1172 4494 
L 1172 3500 
L 2356 3500 
L 2356 3053 
L 1172 3053 
L 1172 1153 
Q 1172 725 1289 603 
Q 1406 481 1766 481 
L 2356 481 
L 2356 0 
L 1766 0 
Q 1100 0 847 248 
Q 594 497 594 1153 
L 594 3053 
L 172 3053 
L 172 3500 
L 594 3500 
L 594 4494 
L 1172 4494 
z
" transform="scale(0.015625)"/>
      </defs>
      <use xlink:href="#DejaVuSans-56"/>
      <use xlink:href="#DejaVuSans-61" x="60.658203"/>
      <use xlink:href="#DejaVuSans-6c" x="121.9375"/>
      <use xlink:href="#DejaVuSans-69" x="149.720703"/>
      <use xlink:href="#DejaVuSans-64" x="177.503906"/>
      <use xlink:href="#DejaVuSans-61" x="240.980469"/>
      <use xlink:href="#DejaVuSans-74" x="302.259766"/>
      <use xlink:href="#DejaVuSans-69" x="341.46875"/>
      <use xlink:href="#DejaVuSans-6f" x="369.251953"/>
      <use xlink:href="#DejaVuSans-6e" x="430.433594"/>
      <use xlink:href="#DejaVuSans-20" x="493.8125"/>
      <use xlink:href="#DejaVuSans-4c" x="525.599609"/>
      <use xlink:href="#DejaVuSans-6f" x="579.5625"/>
      <use xlink:href="#DejaVuSans-73" x="640.744141"/>
      <use xlink:href="#DejaVuSans-73" x="692.84375"/>
     </g>
    </g>
   </g>
  </g>
  <g id="text_17">
   <!-- Training VS. Validation Loss - Dataset Size = 100.0% -->
   <g transform="translate(34.481016 15.558281) scale(0.11 -0.11)">
    <defs>
     <path id="DejaVuSans-53" d="M 3425 4513 
L 3425 3897 
Q 3066 4069 2747 4153 
Q 2428 4238 2131 4238 
Q 1616 4238 1336 4038 
Q 1056 3838 1056 3469 
Q 1056 3159 1242 3001 
Q 1428 2844 1947 2747 
L 2328 2669 
Q 3034 2534 3370 2195 
Q 3706 1856 3706 1288 
Q 3706 609 3251 259 
Q 2797 -91 1919 -91 
Q 1588 -91 1214 -16 
Q 841 59 441 206 
L 441 856 
Q 825 641 1194 531 
Q 1563 422 1919 422 
Q 2459 422 2753 634 
Q 3047 847 3047 1241 
Q 3047 1584 2836 1778 
Q 2625 1972 2144 2069 
L 1759 2144 
Q 1053 2284 737 2584 
Q 422 2884 422 3419 
Q 422 4038 858 4394 
Q 1294 4750 2059 4750 
Q 2388 4750 2728 4690 
Q 3069 4631 3425 4513 
z
" transform="scale(0.015625)"/>
     <path id="DejaVuSans-2d" d="M 313 2009 
L 1997 2009 
L 1997 1497 
L 313 1497 
L 313 2009 
z
" transform="scale(0.015625)"/>
     <path id="DejaVuSans-44" d="M 1259 4147 
L 1259 519 
L 2022 519 
Q 2988 519 3436 956 
Q 3884 1394 3884 2338 
Q 3884 3275 3436 3711 
Q 2988 4147 2022 4147 
L 1259 4147 
z
M 628 4666 
L 1925 4666 
Q 3281 4666 3915 4102 
Q 4550 3538 4550 2338 
Q 4550 1131 3912 565 
Q 3275 0 1925 0 
L 628 0 
L 628 4666 
z
" transform="scale(0.015625)"/>
     <path id="DejaVuSans-7a" d="M 353 3500 
L 3084 3500 
L 3084 2975 
L 922 459 
L 3084 459 
L 3084 0 
L 275 0 
L 275 525 
L 2438 3041 
L 353 3041 
L 353 3500 
z
" transform="scale(0.015625)"/>
     <path id="DejaVuSans-3d" d="M 678 2906 
L 4684 2906 
L 4684 2381 
L 678 2381 
L 678 2906 
z
M 678 1631 
L 4684 1631 
L 4684 1100 
L 678 1100 
L 678 1631 
z
" transform="scale(0.015625)"/>
     <path id="DejaVuSans-25" d="M 4653 2053 
Q 4381 2053 4226 1822 
Q 4072 1591 4072 1178 
Q 4072 772 4226 539 
Q 4381 306 4653 306 
Q 4919 306 5073 539 
Q 5228 772 5228 1178 
Q 5228 1588 5073 1820 
Q 4919 2053 4653 2053 
z
M 4653 2450 
Q 5147 2450 5437 2106 
Q 5728 1763 5728 1178 
Q 5728 594 5436 251 
Q 5144 -91 4653 -91 
Q 4153 -91 3862 251 
Q 3572 594 3572 1178 
Q 3572 1766 3864 2108 
Q 4156 2450 4653 2450 
z
M 1428 4353 
Q 1159 4353 1004 4120 
Q 850 3888 850 3481 
Q 850 3069 1003 2837 
Q 1156 2606 1428 2606 
Q 1700 2606 1854 2837 
Q 2009 3069 2009 3481 
Q 2009 3884 1853 4118 
Q 1697 4353 1428 4353 
z
M 4250 4750 
L 4750 4750 
L 1831 -91 
L 1331 -91 
L 4250 4750 
z
M 1428 4750 
Q 1922 4750 2215 4408 
Q 2509 4066 2509 3481 
Q 2509 2891 2217 2550 
Q 1925 2209 1428 2209 
Q 931 2209 642 2551 
Q 353 2894 353 3481 
Q 353 4063 643 4406 
Q 934 4750 1428 4750 
z
" transform="scale(0.015625)"/>
    </defs>
    <use xlink:href="#DejaVuSans-54"/>
    <use xlink:href="#DejaVuSans-72" x="46.333984"/>
    <use xlink:href="#DejaVuSans-61" x="87.447266"/>
    <use xlink:href="#DejaVuSans-69" x="148.726562"/>
    <use xlink:href="#DejaVuSans-6e" x="176.509766"/>
    <use xlink:href="#DejaVuSans-69" x="239.888672"/>
    <use xlink:href="#DejaVuSans-6e" x="267.671875"/>
    <use xlink:href="#DejaVuSans-67" x="331.050781"/>
    <use xlink:href="#DejaVuSans-20" x="394.527344"/>
    <use xlink:href="#DejaVuSans-56" x="426.314453"/>
    <use xlink:href="#DejaVuSans-53" x="494.722656"/>
    <use xlink:href="#DejaVuSans-2e" x="558.199219"/>
    <use xlink:href="#DejaVuSans-20" x="589.986328"/>
    <use xlink:href="#DejaVuSans-56" x="621.773438"/>
    <use xlink:href="#DejaVuSans-61" x="682.431641"/>
    <use xlink:href="#DejaVuSans-6c" x="743.710938"/>
    <use xlink:href="#DejaVuSans-69" x="771.494141"/>
    <use xlink:href="#DejaVuSans-64" x="799.277344"/>
    <use xlink:href="#DejaVuSans-61" x="862.753906"/>
    <use xlink:href="#DejaVuSans-74" x="924.033203"/>
    <use xlink:href="#DejaVuSans-69" x="963.242188"/>
    <use xlink:href="#DejaVuSans-6f" x="991.025391"/>
    <use xlink:href="#DejaVuSans-6e" x="1052.207031"/>
    <use xlink:href="#DejaVuSans-20" x="1115.585938"/>
    <use xlink:href="#DejaVuSans-4c" x="1147.373047"/>
    <use xlink:href="#DejaVuSans-6f" x="1201.335938"/>
    <use xlink:href="#DejaVuSans-73" x="1262.517578"/>
    <use xlink:href="#DejaVuSans-73" x="1314.617188"/>
    <use xlink:href="#DejaVuSans-20" x="1366.716797"/>
    <use xlink:href="#DejaVuSans-2d" x="1398.503906"/>
    <use xlink:href="#DejaVuSans-20" x="1434.587891"/>
    <use xlink:href="#DejaVuSans-44" x="1466.375"/>
    <use xlink:href="#DejaVuSans-61" x="1543.376953"/>
    <use xlink:href="#DejaVuSans-74" x="1604.65625"/>
    <use xlink:href="#DejaVuSans-61" x="1643.865234"/>
    <use xlink:href="#DejaVuSans-73" x="1705.144531"/>
    <use xlink:href="#DejaVuSans-65" x="1757.244141"/>
    <use xlink:href="#DejaVuSans-74" x="1818.767578"/>
    <use xlink:href="#DejaVuSans-20" x="1857.976562"/>
    <use xlink:href="#DejaVuSans-53" x="1889.763672"/>
    <use xlink:href="#DejaVuSans-69" x="1953.240234"/>
    <use xlink:href="#DejaVuSans-7a" x="1981.023438"/>
    <use xlink:href="#DejaVuSans-65" x="2033.513672"/>
    <use xlink:href="#DejaVuSans-20" x="2095.037109"/>
    <use xlink:href="#DejaVuSans-3d" x="2126.824219"/>
    <use xlink:href="#DejaVuSans-20" x="2210.613281"/>
    <use xlink:href="#DejaVuSans-31" x="2242.400391"/>
    <use xlink:href="#DejaVuSans-30" x="2306.023438"/>
    <use xlink:href="#DejaVuSans-30" x="2369.646484"/>
    <use xlink:href="#DejaVuSans-2e" x="2433.269531"/>
    <use xlink:href="#DejaVuSans-30" x="2465.056641"/>
    <use xlink:href="#DejaVuSans-25" x="2528.679688"/>
   </g>
  </g>
 </g>
 <defs>
  <clipPath id="pb572a6861e">
   <rect x="43.78125" y="37.296" width="279" height="202.464"/>
  </clipPath>
 </defs>
</svg>
