<?xml version="1.0" encoding="utf-8" standalone="no"?>
<!DOCTYPE svg PUBLIC "-//W3C//DTD SVG 1.1//EN"
  "http://www.w3.org/Graphics/SVG/1.1/DTD/svg11.dtd">
<svg xmlns:xlink="http://www.w3.org/1999/xlink" width="330.281484pt" height="277.31625pt" viewBox="0 0 330.281484 277.31625" xmlns="http://www.w3.org/2000/svg" version="1.1">
 <metadata>
  <rdf:RDF xmlns:dc="http://purl.org/dc/elements/1.1/" xmlns:cc="http://creativecommons.org/ns#" xmlns:rdf="http://www.w3.org/1999/02/22-rdf-syntax-ns#">
   <cc:Work>
    <dc:type rdf:resource="http://purl.org/dc/dcmitype/StillImage"/>
    <dc:date>2026-06-11T17:48:09.182003</dc:date>
    <dc:format>image/svg+xml</dc:format>
    <dc:creator>
     <cc:Agent>
      <dc:title>Matplotlib v3.8.4, https://matplotlib.org/</dc:title>
     </cc:Agent>
    </dc:creator>
   </cc:Work>
  </rdf:RDF>
 </metadata>
 <defs>
  <style type="text/css">*{stroke-linejoin: round; stroke-linecap: butt}</style>
 </defs>
 <g id="figure_1">
  <g id="patch_1">
   <path d="M 0 277.31625 
L 330.281484 277.31625 
L 330.281484 0 
L 0 0 
z
" style="fill: #ffffff"/>
  </g>
  <g id="axes_1">
   <g id="patch_2">
    <path d="M 43.78125 239.76 
L 322.78125 239.76 
L 322.78125 37.296 
L 43.78125 37.296 
z
" style="fill: #ffffff"/>
   </g>
   <g id="matplotlib.axis_1">
    <g id="xtick_1">
     <g id="line2d_1">
      <path d="M 56.209178 239.76 
L 56.209178 37.296 
" clip-path="url(#p6e26bf364c)" style="fill: none; stroke-dasharray: 2.96,1.28; stroke-dashoffset: 0; stroke: #b0b0b0; stroke-opacity: 0.4; stroke-width: 0.8"/>
     </g>
     <g id="line2d_2">
      <defs>
       <path id="m19ec36af19" d="M 0 0 
L 0 3.5 
" style="stroke: #000000; stroke-width: 0.8"/>
      </defs>
      <g>
       <use xlink:href="#m19ec36af19" x="56.209178" y="239.76" style="stroke: #000000; stroke-width: 0.8"/>
      </g>
     </g>
     <g id="text_1">
      <!-- 0 -->
      <g transform="translate(53.027928 254.358437) scale(0.1 -0.1)">
       <defs>
        <path id="DejaVuSans-30" d="M 2034 4250 
Q 1547 4250 1301 3770 
Q 1056 3291 1056 2328 
Q 1056 1369 1301 889 
Q 1547 409 2034 409 
Q 2525 409 2770 889 
Q 3016 1369 3016 2328 
Q 3016 3291 2770 3770 
Q 2525 4250 2034 4250 
z
M 2034 4750 
Q 2819 4750 3233 4129 
Q 3647 3509 3647 2328 
Q 3647 1150 3233 529 
Q 2819 -91 2034 -91 
Q 1250 -91 836 529 
Q 422 1150 422 2328 
Q 422 3509 836 4129 
Q 1250 4750 2034 4750 
z
" transform="scale(0.015625)"/>
       </defs>
       <use xlink:href="#DejaVuSans-30"/>
      </g>
     </g>
    </g>
    <g id="xtick_2">
     <g id="line2d_3">
      <path d="M 106.987229 239.76 
L 106.987229 37.296 
" clip-path="url(#p6e26bf364c)" style="fill: none; stroke-dasharray: 2.96,1.28; stroke-dashoffset: 0; stroke: #b0b0b0; stroke-opacity: 0.4; stroke-width: 0.8"/>
     </g>
     <g id="line2d_4">
      <g>
       <use xlink:href="#m19ec36af19" x="106.987229" y="239.76" style="stroke: #000000; stroke-width: 0.8"/>
      </g>
     </g>
     <g id="text_2">
      <!-- 200 -->
      <g transform="translate(97.443479 254.358437) scale(0.1 -0.1)">
       <defs>
        <path id="DejaVuSans-32" d="M 1228 531 
L 3431 531 
L 3431 0 
L 469 0 
L 469 531 
Q 828 903 1448 1529 
Q 2069 2156 2228 2338 
Q 2531 2678 2651 2914 
Q 2772 3150 2772 3378 
Q 2772 3750 2511 3984 
Q 2250 4219 1831 4219 
Q 1534 4219 1204 4116 
Q 875 4013 500 3803 
L 500 4441 
Q 881 4594 1212 4672 
Q 1544 4750 1819 4750 
Q 2544 4750 2975 4387 
Q 3406 4025 3406 3419 
Q 3406 3131 3298 2873 
Q 3191 2616 2906 2266 
Q 2828 2175 2409 1742 
Q 1991 1309 1228 531 
z
" transform="scale(0.015625)"/>
       </defs>
       <use xlink:href="#DejaVuSans-32"/>
       <use xlink:href="#DejaVuSans-30" x="63.623047"/>
       <use xlink:href="#DejaVuSans-30" x="127.246094"/>
      </g>
     </g>
    </g>
    <g id="xtick_3">
     <g id="line2d_5">
      <path d="M 157.765279 239.76 
L 157.765279 37.296 
" clip-path="url(#p6e26bf364c)" style="fill: none; stroke-dasharray: 2.96,1.28; stroke-dashoffset: 0; stroke: #b0b0b0; stroke-opacity: 0.4; stroke-width: 0.8"/>
     </g>
     <g id="line2d_6">
      <g>
       <use xlink:href="#m19ec36af19" x="157.765279" y="239.76" style="stroke: #000000; stroke-width: 0.8"/>
      </g>
     </g>
     <g id="text_3">
      <!-- 400 -->
      <g transform="translate(148.221529 254.358437) scale(0.1 -0.1)">
       <defs>
        <path id="DejaVuSans-34" d="M 2419 4116 
L 825 1625 
L 2419 1625 
L 2419 4116 
z
M 2253 4666 
L 3047 4666 
L 3047 1625 
L 3713 1625 
L 3713 1100 
L 3047 1100 
L 3047 0 
L 2419 0 
L 2419 1100 
L 313 1100 
L 313 1709 
L 2253 4666 
z
" transform="scale(0.015625)"/>
       </defs>
       <use xlink:href="#DejaVuSans-34"/>
       <use xlink:href="#DejaVuSans-30" x="63.623047"/>
       <use xlink:href="#DejaVuSans-30" x="127.246094"/>
      </g>
     </g>
    </g>
    <g id="xtick_4">
     <g id="line2d_7">
      <path d="M 208.54333 239.76 
L 208.54333 37.296 
" clip-path="url(#p6e26bf364c)" style="fill: none; stroke-dasharray: 2.96,1.28; stroke-dashoffset: 0; stroke: #b0b0b0; stroke-opacity: 0.4; stroke-width: 0.8"/>
     </g>
     <g id="line2d_8">
      <g>
       <use xlink:href="#m19ec36af19" x="208.54333" y="239.76" style="stroke: #000000; stroke-width: 0.8"/>
      </g>
     </g>
     <g id="text_4">
      <!-- 600 -->
      <g transform="translate(198.99958 254.358437) scale(0.1 -0.1)">
       <defs>
        <path id="DejaVuSans-36" d="M 2113 2584 
Q 1688 2584 1439 2293 
Q 1191 2003 1191 1497 
Q 1191 994 1439 701 
Q 1688 409 2113 409 
Q 2538 409 2786 701 
Q 3034 994 3034 1497 
Q 3034 2003 2786 2293 
Q 2538 2584 2113 2584 
z
M 3366 4563 
L 3366 3988 
Q 3128 4100 2886 4159 
Q 2644 4219 2406 4219 
Q 1781 4219 1451 3797 
Q 1122 3375 1075 2522 
Q 1259 2794 1537 2939 
Q 1816 3084 2150 3084 
Q 2853 3084 3261 2657 
Q 3669 2231 3669 1497 
Q 3669 778 3244 343 
Q 2819 -91 2113 -91 
Q 1303 -91 875 529 
Q 447 1150 447 2328 
Q 447 3434 972 4092 
Q 1497 4750 2381 4750 
Q 2619 4750 2861 4703 
Q 3103 4656 3366 4563 
z
" transform="scale(0.015625)"/>
       </defs>
       <use xlink:href="#DejaVuSans-36"/>
       <use xlink:href="#DejaVuSans-30" x="63.623047"/>
       <use xlink:href="#DejaVuSans-30" x="127.246094"/>
      </g>
     </g>
    </g>
    <g id="xtick_5">
     <g id="line2d_9">
      <path d="M 259.321381 239.76 
L 259.321381 37.296 
" clip-path="url(#p6e26bf364c)" style="fill: none; stroke-dasharray: 2.96,1.28; stroke-dashoffset: 0; stroke: #b0b0b0; stroke-opacity: 0.4; stroke-width: 0.8"/>
     </g>
     <g id="line2d_10">
      <g>
       <use xlink:href="#m19ec36af19" x="259.321381" y="239.76" style="stroke: #000000; stroke-width: 0.8"/>
      </g>
     </g>
     <g id="text_5">
      <!-- 800 -->
      <g transform="translate(249.777631 254.358437) scale(0.1 -0.1)">
       <defs>
        <path id="DejaVuSans-38" d="M 2034 2216 
Q 1584 2216 1326 1975 
Q 1069 1734 1069 1313 
Q 1069 891 1326 650 
Q 1584 409 2034 409 
Q 2484 409 2743 651 
Q 3003 894 3003 1313 
Q 3003 1734 2745 1975 
Q 2488 2216 2034 2216 
z
M 1403 2484 
Q 997 2584 770 2862 
Q 544 3141 544 3541 
Q 544 4100 942 4425 
Q 1341 4750 2034 4750 
Q 2731 4750 3128 4425 
Q 3525 4100 3525 3541 
Q 3525 3141 3298 2862 
Q 3072 2584 2669 2484 
Q 3125 2378 3379 2068 
Q 3634 1759 3634 1313 
Q 3634 634 3220 271 
Q 2806 -91 2034 -91 
Q 1263 -91 848 271 
Q 434 634 434 1313 
Q 434 1759 690 2068 
Q 947 2378 1403 2484 
z
M 1172 3481 
Q 1172 3119 1398 2916 
Q 1625 2713 2034 2713 
Q 2441 2713 2670 2916 
Q 2900 3119 2900 3481 
Q 2900 3844 2670 4047 
Q 2441 4250 2034 4250 
Q 1625 4250 1398 4047 
Q 1172 3844 1172 3481 
z
" transform="scale(0.015625)"/>
       </defs>
       <use xlink:href="#DejaVuSans-38"/>
       <use xlink:href="#DejaVuSans-30" x="63.623047"/>
       <use xlink:href="#DejaVuSans-30" x="127.246094"/>
      </g>
     </g>
    </g>
    <g id="xtick_6">
     <g id="line2d_11">
      <path d="M 310.099432 239.76 
L 310.099432 37.296 
" clip-path="url(#p6e26bf364c)" style="fill: none; stroke-dasharray: 2.96,1.28; stroke-dashoffset: 0; stroke: #b0b0b0; stroke-opacity: 0.4; stroke-width: 0.8"/>
     </g>
     <g id="line2d_12">
      <g>
       <use xlink:href="#m19ec36af19" x="310.099432" y="239.76" style="stroke: #000000; stroke-width: 0.8"/>
      </g>
     </g>
     <g id="text_6">
      <!-- 1000 -->
      <g transform="translate(297.374432 254.358437) scale(0.1 -0.1)">
       <defs>
        <path id="DejaVuSans-31" d="M 794 531 
L 1825 531 
L 1825 4091 
L 703 3866 
L 703 4441 
L 1819 4666 
L 2450 4666 
L 2450 531 
L 3481 531 
L 3481 0 
L 794 0 
L 794 531 
z
" transform="scale(0.015625)"/>
       </defs>
       <use xlink:href="#DejaVuSans-31"/>
       <use xlink:href="#DejaVuSans-30" x="63.623047"/>
       <use xlink:href="#DejaVuSans-30" x="127.246094"/>
       <use xlink:href="#DejaVuSans-30" x="190.869141"/>
      </g>
     </g>
    </g>
    <g id="text_7">
     <!-- Epochs -->
     <g transform="translate(165.365625 268.036562) scale(0.1 -0.1)">
      <defs>
       <path id="DejaVuSans-45" d="M 628 4666 
L 3578 4666 
L 3578 4134 
L 1259 4134 
L 1259 2753 
L 3481 2753 
L 3481 2222 
L 1259 2222 
L 1259 531 
L 3634 531 
L 3634 0 
L 628 0 
L 628 4666 
z
" transform="scale(0.015625)"/>
       <path id="DejaVuSans-70" d="M 1159 525 
L 1159 -1331 
L 581 -1331 
L 581 3500 
L 1159 3500 
L 1159 2969 
Q 1341 3281 1617 3432 
Q 1894 3584 2278 3584 
Q 2916 3584 3314 3078 
Q 3713 2572 3713 1747 
Q 3713 922 3314 415 
Q 2916 -91 2278 -91 
Q 1894 -91 1617 61 
Q 1341 213 1159 525 
z
M 3116 1747 
Q 3116 2381 2855 2742 
Q 2594 3103 2138 3103 
Q 1681 3103 1420 2742 
Q 1159 2381 1159 1747 
Q 1159 1113 1420 752 
Q 1681 391 2138 391 
Q 2594 391 2855 752 
Q 3116 1113 3116 1747 
z
" transform="scale(0.015625)"/>
       <path id="DejaVuSans-6f" d="M 1959 3097 
Q 1497 3097 1228 2736 
Q 959 2375 959 1747 
Q 959 1119 1226 758 
Q 1494 397 1959 397 
Q 2419 397 2687 759 
Q 2956 1122 2956 1747 
Q 2956 2369 2687 2733 
Q 2419 3097 1959 3097 
z
M 1959 3584 
Q 2709 3584 3137 3096 
Q 3566 2609 3566 1747 
Q 3566 888 3137 398 
Q 2709 -91 1959 -91 
Q 1206 -91 779 398 
Q 353 888 353 1747 
Q 353 2609 779 3096 
Q 1206 3584 1959 3584 
z
" transform="scale(0.015625)"/>
       <path id="DejaVuSans-63" d="M 3122 3366 
L 3122 2828 
Q 2878 2963 2633 3030 
Q 2388 3097 2138 3097 
Q 1578 3097 1268 2742 
Q 959 2388 959 1747 
Q 959 1106 1268 751 
Q 1578 397 2138 397 
Q 2388 397 2633 464 
Q 2878 531 3122 666 
L 3122 134 
Q 2881 22 2623 -34 
Q 2366 -91 2075 -91 
Q 1284 -91 818 406 
Q 353 903 353 1747 
Q 353 2603 823 3093 
Q 1294 3584 2113 3584 
Q 2378 3584 2631 3529 
Q 2884 3475 3122 3366 
z
" transform="scale(0.015625)"/>
       <path id="DejaVuSans-68" d="M 3513 2113 
L 3513 0 
L 2938 0 
L 2938 2094 
Q 2938 2591 2744 2837 
Q 2550 3084 2163 3084 
Q 1697 3084 1428 2787 
Q 1159 2491 1159 1978 
L 1159 0 
L 581 0 
L 581 4863 
L 1159 4863 
L 1159 2956 
Q 1366 3272 1645 3428 
Q 1925 3584 2291 3584 
Q 2894 3584 3203 3211 
Q 3513 2838 3513 2113 
z
" transform="scale(0.015625)"/>
       <path id="DejaVuSans-73" d="M 2834 3397 
L 2834 2853 
Q 2591 2978 2328 3040 
Q 2066 3103 1784 3103 
Q 1356 3103 1142 2972 
Q 928 2841 928 2578 
Q 928 2378 1081 2264 
Q 1234 2150 1697 2047 
L 1894 2003 
Q 2506 1872 2764 1633 
Q 3022 1394 3022 966 
Q 3022 478 2636 193 
Q 2250 -91 1575 -91 
Q 1294 -91 989 -36 
Q 684 19 347 128 
L 347 722 
Q 666 556 975 473 
Q 1284 391 1588 391 
Q 1994 391 2212 530 
Q 2431 669 2431 922 
Q 2431 1156 2273 1281 
Q 2116 1406 1581 1522 
L 1381 1569 
Q 847 1681 609 1914 
Q 372 2147 372 2553 
Q 372 3047 722 3315 
Q 1072 3584 1716 3584 
Q 2034 3584 2315 3537 
Q 2597 3491 2834 3397 
z
" transform="scale(0.015625)"/>
      </defs>
      <use xlink:href="#DejaVuSans-45"/>
      <use xlink:href="#DejaVuSans-70" x="63.183594"/>
      <use xlink:href="#DejaVuSans-6f" x="126.660156"/>
      <use xlink:href="#DejaVuSans-63" x="187.841797"/>
      <use xlink:href="#DejaVuSans-68" x="242.822266"/>
      <use xlink:href="#DejaVuSans-73" x="306.201172"/>
     </g>
    </g>
   </g>
   <g id="matplotlib.axis_2">
    <g id="ytick_1">
     <g id="line2d_13">
      <path d="M 43.78125 205.971303 
L 322.78125 205.971303 
" clip-path="url(#p6e26bf364c)" style="fill: none; stroke-dasharray: 2.96,1.28; stroke-dashoffset: 0; stroke: #b0b0b0; stroke-opacity: 0.4; stroke-width: 0.8"/>
     </g>
     <g id="line2d_14">
      <defs>
       <path id="m3666332814" d="M 0 0 
L -3.5 0 
" style="stroke: #000000; stroke-width: 0.8"/>
      </defs>
      <g>
       <use xlink:href="#m3666332814" x="43.78125" y="205.971303" style="stroke: #000000; stroke-width: 0.8"/>
      </g>
     </g>
     <g id="text_8">
      <!-- 0.4 -->
      <g transform="translate(20.878125 209.770522) scale(0.1 -0.1)">
       <defs>
        <path id="DejaVuSans-2e" d="M 684 794 
L 1344 794 
L 1344 0 
L 684 0 
L 684 794 
z
" transform="scale(0.015625)"/>
       </defs>
       <use xlink:href="#DejaVuSans-30"/>
       <use xlink:href="#DejaVuSans-2e" x="63.623047"/>
       <use xlink:href="#DejaVuSans-34" x="95.410156"/>
      </g>
     </g>
    </g>
    <g id="ytick_2">
     <g id="line2d_15">
      <path d="M 43.78125 162.640704 
L 322.78125 162.640704 
" clip-path="url(#p6e26bf364c)" style="fill: none; stroke-dasharray: 2.96,1.28; stroke-dashoffset: 0; stroke: #b0b0b0; stroke-opacity: 0.4; stroke-width: 0.8"/>
     </g>
     <g id="line2d_16">
      <g>
       <use xlink:href="#m3666332814" x="43.78125" y="162.640704" style="stroke: #000000; stroke-width: 0.8"/>
      </g>
     </g>
     <g id="text_9">
      <!-- 0.6 -->
      <g transform="translate(20.878125 166.439923) scale(0.1 -0.1)">
       <use xlink:href="#DejaVuSans-30"/>
       <use xlink:href="#DejaVuSans-2e" x="63.623047"/>
       <use xlink:href="#DejaVuSans-36" x="95.410156"/>
      </g>
     </g>
    </g>
    <g id="ytick_3">
     <g id="line2d_17">
      <path d="M 43.78125 119.310104 
L 322.78125 119.310104 
" clip-path="url(#p6e26bf364c)" style="fill: none; stroke-dasharray: 2.96,1.28; stroke-dashoffset: 0; stroke: #b0b0b0; stroke-opacity: 0.4; stroke-width: 0.8"/>
     </g>
     <g id="line2d_18">
      <g>
       <use xlink:href="#m3666332814" x="43.78125" y="119.310104" style="stroke: #000000; stroke-width: 0.8"/>
      </g>
     </g>
     <g id="text_10">
      <!-- 0.8 -->
      <g transform="translate(20.878125 123.109323) scale(0.1 -0.1)">
       <use xlink:href="#DejaVuSans-30"/>
       <use xlink:href="#DejaVuSans-2e" x="63.623047"/>
       <use xlink:href="#DejaVuSans-38" x="95.410156"/>
      </g>
     </g>
    </g>
    <g id="ytick_4">
     <g id="line2d_19">
      <path d="M 43.78125 75.979505 
L 322.78125 75.979505 
" clip-path="url(#p6e26bf364c)" style="fill: none; stroke-dasharray: 2.96,1.28; stroke-dashoffset: 0; stroke: #b0b0b0; stroke-opacity: 0.4; stroke-width: 0.8"/>
     </g>
     <g id="line2d_20">
      <g>
       <use xlink:href="#m3666332814" x="43.78125" y="75.979505" style="stroke: #000000; stroke-width: 0.8"/>
      </g>
     </g>
     <g id="text_11">
      <!-- 1.0 -->
      <g transform="translate(20.878125 79.778724) scale(0.1 -0.1)">
       <use xlink:href="#DejaVuSans-31"/>
       <use xlink:href="#DejaVuSans-2e" x="63.623047"/>
       <use xlink:href="#DejaVuSans-30" x="95.410156"/>
      </g>
     </g>
    </g>
    <g id="text_12">
     <!-- Loss -->
     <g transform="translate(14.798438 149.495187) rotate(-90) scale(0.1 -0.1)">
      <defs>
       <path id="DejaVuSans-4c" d="M 628 4666 
L 1259 4666 
L 1259 531 
L 3531 531 
L 3531 0 
L 628 0 
L 628 4666 
z
" transform="scale(0.015625)"/>
      </defs>
      <use xlink:href="#DejaVuSans-4c"/>
      <use xlink:href="#DejaVuSans-6f" x="53.962891"/>
      <use xlink:href="#DejaVuSans-73" x="115.144531"/>
      <use xlink:href="#DejaVuSans-73" x="167.244141"/>
     </g>
    </g>
   </g>
   <g id="line2d_21">
    <path d="M 56.463068 128.76257 
L 56.716958 141.976127 
L 57.224739 147.35687 
L 57.732519 167.244745 
L 57.98641 172.541614 
L 58.49419 176.409499 
L 59.001971 183.014277 
L 59.255861 182.718634 
L 59.509751 186.713382 
L 59.763641 186.109151 
L 60.017532 189.020906 
L 60.271422 185.605091 
L 60.525312 189.82414 
L 61.286983 192.891257 
L 61.794764 192.341993 
L 62.048654 194.403302 
L 62.302544 192.879616 
L 62.556434 195.253528 
L 62.810325 193.401225 
L 63.064215 196.997932 
L 63.318105 197.238421 
L 63.571995 196.26571 
L 63.825886 198.07268 
L 64.079776 196.221675 
L 64.587556 198.47965 
L 64.841447 198.415825 
L 65.095337 197.547661 
L 65.349227 198.368361 
L 65.603117 200.102195 
L 65.857008 200.171534 
L 66.110898 198.471069 
L 66.364788 198.675419 
L 66.618678 198.514652 
L 66.872569 201.111465 
L 67.126459 202.072534 
L 67.380349 200.180432 
L 67.634239 202.082155 
L 67.88813 201.348544 
L 68.14202 201.77267 
L 68.39591 200.515996 
L 68.6498 202.197667 
L 68.903691 202.068648 
L 69.157581 203.16979 
L 69.665361 201.618637 
L 70.173142 202.985333 
L 70.427032 204.494989 
L 70.934813 202.203574 
L 71.188703 205.20205 
L 71.442593 204.729415 
L 71.696483 202.795957 
L 71.950374 206.577514 
L 72.204264 205.213846 
L 72.458154 205.673329 
L 72.712044 205.068149 
L 72.965935 206.614292 
L 73.219825 206.011392 
L 73.473715 205.066283 
L 73.727605 205.465072 
L 73.981496 203.074469 
L 74.997057 206.001855 
L 75.250947 204.939163 
L 75.504837 206.87233 
L 75.758727 206.254476 
L 76.012618 205.108827 
L 76.266508 207.102843 
L 77.028179 207.17552 
L 77.282069 206.32397 
L 77.535959 208.709796 
L 77.78985 205.586472 
L 78.04374 207.139162 
L 78.29763 206.97035 
L 78.55152 209.591486 
L 78.805411 207.4253 
L 79.059301 209.185239 
L 79.313191 208.479238 
L 79.567081 209.272315 
L 79.820972 208.230465 
L 80.074862 210.16914 
L 80.328752 209.265277 
L 80.836533 208.698432 
L 81.090423 210.227729 
L 81.344313 209.607415 
L 81.598203 209.639544 
L 81.852094 206.146829 
L 82.359874 212.537855 
L 82.613764 209.79213 
L 82.867655 209.345735 
L 83.121545 210.010414 
L 83.375435 211.063789 
L 83.629325 209.48954 
L 83.883216 209.663389 
L 84.137106 210.818594 
L 84.390996 209.83018 
L 84.644886 208.366761 
L 85.152667 212.5051 
L 85.406557 208.926252 
L 85.660447 209.672189 
L 86.168228 213.30293 
L 86.422118 213.054254 
L 86.676008 214.200026 
L 86.929899 210.770162 
L 87.183789 209.046877 
L 87.437679 209.946292 
L 87.691569 212.028217 
L 88.19935 212.724236 
L 88.70713 211.513464 
L 88.961021 213.762277 
L 89.214911 210.309323 
L 89.468801 209.469731 
L 89.722691 212.862082 
L 89.976582 210.42745 
L 90.230472 210.849748 
L 90.484362 212.662807 
L 90.738252 213.281035 
L 90.992143 212.78637 
L 91.246033 215.390137 
L 91.499923 212.566478 
L 91.753813 213.854673 
L 92.007704 211.476008 
L 92.261594 215.014256 
L 92.515484 212.728472 
L 92.769374 215.726443 
L 93.023265 214.261572 
L 93.277155 210.63375 
L 93.531045 214.631086 
L 93.784936 214.723611 
L 94.038826 217.37612 
L 94.292716 213.240441 
L 94.546606 213.359143 
L 94.800497 217.794751 
L 95.054387 217.861824 
L 95.308277 216.083063 
L 95.562167 219.189793 
L 95.816058 216.84316 
L 96.069948 216.677518 
L 96.323838 217.434012 
L 96.577728 218.557372 
L 97.085509 216.07589 
L 97.593289 219.868909 
L 97.84718 217.846799 
L 98.10107 219.353226 
L 98.35496 216.466789 
L 98.60885 219.123889 
L 98.862741 216.242597 
L 99.370521 220.064987 
L 99.624411 216.298429 
L 99.878302 219.357171 
L 100.132192 217.588412 
L 100.386082 218.750171 
L 100.639972 218.957846 
L 100.893863 217.1438 
L 101.147753 219.01014 
L 101.655533 217.928245 
L 101.909424 219.484228 
L 102.163314 218.729432 
L 102.417204 217.398061 
L 102.671094 216.999078 
L 102.924985 217.78792 
L 103.178875 215.809452 
L 103.432765 220.119838 
L 103.686655 214.851875 
L 103.940546 217.329257 
L 104.194436 217.664286 
L 104.448326 215.462459 
L 104.956107 220.516335 
L 105.209997 220.433475 
L 105.463887 217.618585 
L 105.717777 219.831175 
L 105.971668 215.978535 
L 106.479448 219.766679 
L 106.987229 223.259529 
L 107.241119 219.987345 
L 107.495009 223.201702 
L 107.748899 219.925638 
L 108.00279 220.636456 
L 108.25668 222.359682 
L 108.51057 219.135788 
L 108.76446 223.554261 
L 109.018351 220.52992 
L 109.272241 219.822898 
L 109.526131 219.656358 
L 109.780021 221.536064 
L 110.033912 221.282804 
L 110.287802 221.917349 
L 110.541692 220.204602 
L 110.795583 221.306817 
L 111.049473 223.247797 
L 111.557253 220.204751 
L 111.811144 221.143932 
L 112.065034 219.928879 
L 112.318924 220.686341 
L 112.572814 218.633962 
L 112.826705 221.984467 
L 113.080595 221.099671 
L 113.334485 223.816366 
L 113.588375 220.915498 
L 113.842266 221.375607 
L 114.096156 219.729752 
L 114.603936 221.283443 
L 114.857827 219.116909 
L 115.111717 224.077626 
L 115.365607 220.520577 
L 115.619497 222.079407 
L 115.873388 218.429716 
L 116.127278 221.560994 
L 116.381168 221.759539 
L 116.635058 220.644766 
L 116.888949 222.534835 
L 117.142839 220.690015 
L 117.396729 219.853109 
L 117.650619 222.707224 
L 117.90451 223.163627 
L 118.1584 220.946439 
L 118.41229 221.52594 
L 118.66618 223.158313 
L 118.920071 221.051316 
L 119.173961 223.067556 
L 119.427851 222.359805 
L 119.681741 224.983962 
L 119.935632 222.78167 
L 120.189522 222.144627 
L 120.443412 222.678097 
L 120.697302 222.059326 
L 120.951193 222.510473 
L 121.205083 220.210084 
L 121.458973 226.442609 
L 121.712863 222.556349 
L 121.966754 223.820299 
L 122.220644 226.271144 
L 122.474534 222.133276 
L 122.728424 223.948065 
L 122.982315 223.743244 
L 123.236205 224.543437 
L 123.490095 221.636822 
L 123.743985 222.194951 
L 123.997876 223.246041 
L 124.251766 226.920668 
L 124.505656 221.869924 
L 124.759546 221.300089 
L 125.013437 223.993844 
L 125.267327 224.678415 
L 125.521217 222.895974 
L 125.775107 222.725658 
L 126.028998 223.944217 
L 126.282888 222.004283 
L 126.790669 223.750159 
L 127.044559 223.474429 
L 127.298449 221.089269 
L 127.552339 224.371997 
L 127.80623 222.508833 
L 128.06012 221.636396 
L 128.31401 222.257323 
L 128.5679 219.933431 
L 128.821791 222.2359 
L 129.075681 221.829621 
L 129.329571 222.708573 
L 129.837352 221.548874 
L 130.091242 223.873586 
L 130.345132 220.938368 
L 130.852913 225.934921 
L 131.106803 223.25991 
L 131.614583 224.448103 
L 131.868474 225.517336 
L 132.122364 225.222036 
L 132.376254 226.608103 
L 132.630144 223.563817 
L 132.884035 224.552883 
L 133.137925 223.389116 
L 133.645705 224.960724 
L 133.899596 223.222583 
L 134.153486 222.392424 
L 134.407376 225.905826 
L 134.661266 223.752328 
L 134.915157 225.003197 
L 135.169047 224.816274 
L 135.422937 223.977037 
L 135.676827 222.414197 
L 136.184608 223.594112 
L 136.438498 222.747637 
L 136.692388 225.337722 
L 137.200169 222.330059 
L 137.454059 223.195194 
L 137.96184 226.526541 
L 138.21573 224.073727 
L 138.46962 222.924481 
L 138.72351 224.989057 
L 138.977401 222.109554 
L 139.231291 225.854476 
L 139.485181 223.04816 
L 139.739071 221.861001 
L 139.992962 224.843043 
L 140.246852 224.82663 
L 140.500742 225.177633 
L 140.754632 224.633425 
L 141.008523 224.557939 
L 141.262413 224.90373 
L 141.516303 224.205057 
L 141.770193 223.094365 
L 142.277974 223.111669 
L 142.531864 221.565991 
L 142.785755 221.223285 
L 143.039645 223.850723 
L 143.547425 223.10066 
L 143.801316 226.119565 
L 144.055206 222.241543 
L 144.309096 226.981975 
L 144.562986 223.270131 
L 144.816877 227.727085 
L 145.324657 224.222613 
L 145.578547 226.307734 
L 145.832438 224.624508 
L 146.086328 227.45483 
L 146.340218 223.458759 
L 146.594108 223.617795 
L 147.101889 221.312008 
L 147.609669 224.454036 
L 147.86356 224.37119 
L 148.11745 225.154156 
L 148.37134 224.054214 
L 148.879121 224.546684 
L 149.133011 224.521923 
L 149.386901 225.839793 
L 149.640791 226.361157 
L 149.894682 223.228091 
L 150.148572 225.385954 
L 150.402462 223.144101 
L 150.656352 223.396896 
L 150.910243 226.137702 
L 151.164133 224.612666 
L 151.418023 224.557086 
L 151.671913 224.912518 
L 151.925804 222.989365 
L 152.179694 226.193475 
L 152.433584 227.002992 
L 152.687474 223.301633 
L 152.941365 225.521049 
L 153.449145 222.496572 
L 153.956926 225.812436 
L 154.210816 224.298254 
L 154.464706 226.368286 
L 154.718596 223.743095 
L 154.972487 224.451208 
L 155.226377 227.173605 
L 155.480267 224.659135 
L 155.734157 224.197948 
L 155.988048 225.075668 
L 156.241938 226.364199 
L 156.495828 222.389067 
L 156.749718 223.93295 
L 157.003609 222.31156 
L 157.257499 226.500501 
L 157.511389 226.710429 
L 158.01917 225.35788 
L 158.27306 223.745142 
L 158.52695 226.963115 
L 159.034731 220.876144 
L 159.288621 225.126088 
L 159.542511 227.41944 
L 159.796402 225.990978 
L 160.050292 226.133169 
L 160.304182 224.241803 
L 160.558072 223.849645 
L 160.811963 227.04254 
L 161.065853 225.886017 
L 161.319743 225.395691 
L 161.573633 227.124586 
L 161.827524 225.186078 
L 162.081414 228.300498 
L 162.335304 225.383358 
L 162.589194 225.150727 
L 162.843085 223.730446 
L 163.096975 226.648264 
L 163.350865 222.758736 
L 163.604755 223.727605 
L 163.858646 221.28467 
L 164.112536 225.031878 
L 164.366426 222.837018 
L 164.620316 224.327606 
L 164.874207 226.525095 
L 165.128097 225.280153 
L 165.381987 221.676182 
L 165.889768 226.665516 
L 166.143658 227.267952 
L 166.905329 224.05588 
L 167.159219 225.591498 
L 167.413109 223.879991 
L 167.666999 225.222546 
L 167.92089 227.539956 
L 168.17478 226.261213 
L 168.42867 223.856754 
L 168.68256 223.176831 
L 168.936451 224.000249 
L 169.190341 225.736614 
L 169.444231 225.433288 
L 169.698121 225.765831 
L 169.952012 226.379456 
L 170.205902 227.925276 
L 170.459792 226.800256 
L 170.713682 226.459959 
L 170.967573 228.065091 
L 171.475353 225.538792 
L 171.729243 222.591067 
L 171.983134 227.176182 
L 172.490914 224.47863 
L 172.744804 224.914436 
L 172.998695 227.847756 
L 173.506475 224.832771 
L 173.760365 224.317753 
L 174.014256 226.352938 
L 174.268146 226.73696 
L 174.522036 224.340029 
L 175.029817 223.704445 
L 175.283707 224.831118 
L 175.537597 224.082553 
L 175.791488 226.799933 
L 176.045378 224.616992 
L 176.299268 226.556268 
L 176.553158 224.570736 
L 177.060939 226.144042 
L 177.314829 224.720036 
L 177.568719 225.075396 
L 177.82261 227.194222 
L 178.0765 227.759737 
L 178.33039 225.051397 
L 178.58428 224.758279 
L 178.838171 227.459569 
L 179.092061 228.008671 
L 179.345951 227.658237 
L 179.853732 225.770674 
L 180.107622 223.292852 
L 180.361512 224.085329 
L 180.615402 226.807417 
L 180.869293 224.186817 
L 181.123183 224.816487 
L 181.377073 224.728029 
L 181.630963 225.993606 
L 181.884854 223.541341 
L 182.138744 223.184598 
L 182.392634 221.97482 
L 182.646524 226.672115 
L 182.900415 225.245384 
L 183.154305 226.97743 
L 183.408195 226.307056 
L 183.662085 227.335573 
L 183.915976 226.001613 
L 184.169866 225.844868 
L 184.423756 226.052976 
L 184.677646 226.486348 
L 184.931537 226.188897 
L 185.185427 224.972501 
L 185.439317 225.74834 
L 185.693207 225.651152 
L 185.947098 224.218913 
L 186.200988 225.804597 
L 186.454878 224.628324 
L 186.708768 226.035995 
L 186.962659 226.02569 
L 187.216549 222.846774 
L 187.470439 227.203423 
L 187.724329 226.220251 
L 187.97822 226.59641 
L 188.23211 227.30203 
L 188.486 228.676772 
L 188.73989 225.312308 
L 188.993781 228.18365 
L 189.247671 225.85332 
L 189.755451 224.039009 
L 190.263232 225.813992 
L 190.517122 226.193404 
L 190.771012 229.258048 
L 191.024903 226.006843 
L 191.278793 225.89587 
L 191.532683 224.14754 
L 191.786574 224.89883 
L 192.040464 227.340939 
L 192.294354 225.484058 
L 192.548244 227.102536 
L 192.802135 223.481667 
L 193.056025 225.104626 
L 193.309915 224.174652 
L 193.563805 225.925694 
L 193.817696 225.284789 
L 194.071586 225.614646 
L 194.325476 225.670355 
L 194.579366 227.608772 
L 194.833257 227.621356 
L 195.087147 225.591214 
L 195.594927 228.191527 
L 196.102708 226.12249 
L 196.356598 228.931039 
L 196.610488 225.594759 
L 196.864379 227.362214 
L 197.118269 225.143515 
L 197.372159 226.627182 
L 197.626049 227.17418 
L 197.87994 228.140577 
L 198.13383 227.607403 
L 198.38772 228.235781 
L 198.895501 223.680439 
L 199.149391 226.643266 
L 199.403281 223.772912 
L 199.911062 227.349442 
L 200.164952 225.163576 
L 200.672732 225.516962 
L 200.926623 226.724505 
L 201.180513 226.895609 
L 201.434403 228.289495 
L 201.942184 225.371181 
L 202.196074 224.311846 
L 202.449964 225.573742 
L 202.703854 226.000935 
L 202.957745 227.043753 
L 203.211635 225.893404 
L 203.465525 225.856484 
L 203.719415 225.566046 
L 203.973306 227.932682 
L 204.481086 224.152099 
L 204.988867 226.757635 
L 205.242757 226.586266 
L 205.496647 223.61181 
L 205.750537 223.948136 
L 206.004428 227.010107 
L 206.258318 224.620873 
L 206.512208 224.75813 
L 206.766098 226.684118 
L 207.019989 226.875936 
L 207.273879 226.738174 
L 207.527769 226.74035 
L 207.78166 223.599361 
L 208.03555 223.35957 
L 208.28944 225.172661 
L 208.54333 228.510317 
L 209.558891 226.275302 
L 209.812782 226.931819 
L 210.066672 224.228185 
L 210.320562 227.200582 
L 210.574452 225.492845 
L 210.828343 227.014014 
L 211.082233 224.231155 
L 211.336123 226.684648 
L 211.843904 224.864531 
L 212.097794 227.248504 
L 212.351684 225.403826 
L 212.605574 225.493788 
L 212.859465 227.200821 
L 213.113355 226.747982 
L 213.367245 226.620655 
L 213.621135 225.969426 
L 213.875026 226.515648 
L 214.382806 224.090566 
L 214.636696 225.815522 
L 214.890587 224.30003 
L 215.144477 225.426638 
L 215.398367 225.750109 
L 215.652257 225.303695 
L 216.160038 223.077842 
L 216.667818 228.997847 
L 216.921709 224.873603 
L 217.175599 226.166396 
L 217.429489 224.24097 
L 218.19116 225.600002 
L 218.44505 224.005098 
L 218.69894 224.656223 
L 218.952831 226.562524 
L 219.460611 226.379094 
L 219.714501 223.257585 
L 219.968392 227.336587 
L 220.222282 225.390454 
L 220.476172 226.560613 
L 220.730062 226.745406 
L 221.237843 226.455148 
L 221.491733 228.569544 
L 221.745623 227.284436 
L 221.999514 225.132558 
L 222.253404 225.654788 
L 222.507294 227.39597 
L 222.761184 223.007437 
L 223.268965 225.855264 
L 223.522855 227.251493 
L 223.776745 227.555394 
L 224.030636 225.476917 
L 224.284526 226.056585 
L 224.538416 225.11444 
L 224.792307 225.687117 
L 225.046197 223.67506 
L 225.300087 227.880731 
L 225.553977 227.370085 
L 226.061758 225.453827 
L 226.315648 227.272484 
L 226.823429 226.036505 
L 227.077319 226.292096 
L 227.331209 227.618457 
L 227.585099 225.135347 
L 228.09288 228.368752 
L 228.34677 228.572973 
L 228.60066 223.808928 
L 228.854551 225.353457 
L 229.108441 225.32085 
L 229.362331 227.541441 
L 229.616221 223.344913 
L 229.870112 227.898984 
L 230.124002 226.718739 
L 230.377892 226.444217 
L 230.631782 224.608953 
L 230.885673 227.168433 
L 231.139563 223.691428 
L 231.393453 223.836822 
L 231.647343 224.179159 
L 231.901234 224.921642 
L 232.155124 226.135448 
L 232.409014 225.513236 
L 232.662904 225.584835 
L 232.916795 225.048155 
L 233.170685 227.453868 
L 233.424575 226.484901 
L 233.678465 228.520053 
L 234.186246 225.889982 
L 234.440136 228.207585 
L 234.694026 227.273227 
L 234.947917 227.024706 
L 235.201807 225.942959 
L 235.455697 226.373374 
L 235.709587 226.282198 
L 235.963478 226.95332 
L 236.217368 227.22462 
L 236.471258 225.498444 
L 236.725148 225.774167 
L 236.979039 227.371802 
L 237.232929 227.237359 
L 237.486819 226.134486 
L 237.740709 224.38431 
L 237.9946 229.44789 
L 238.24849 227.669982 
L 238.50238 228.728775 
L 238.75627 224.958832 
L 239.010161 225.178956 
L 239.264051 226.091988 
L 239.771831 227.164779 
L 240.025722 226.736399 
L 240.279612 227.07616 
L 240.533502 225.514082 
L 240.787393 227.375902 
L 241.041283 226.123406 
L 241.295173 225.534311 
L 241.549063 227.228107 
L 242.056844 224.787941 
L 242.310734 227.869425 
L 242.564624 225.608363 
L 242.818515 225.488649 
L 243.072405 227.341313 
L 243.326295 225.900739 
L 243.580185 227.271154 
L 243.834076 225.219053 
L 244.341856 226.76743 
L 244.595746 223.454161 
L 244.849637 224.107276 
L 245.103527 225.845133 
L 245.357417 223.442281 
L 245.611307 223.172769 
L 246.119088 227.857783 
L 246.372978 227.771166 
L 246.626868 225.240547 
L 246.880759 227.294121 
L 247.134649 227.131462 
L 247.388539 225.660779 
L 247.642429 226.88894 
L 247.89632 224.443531 
L 248.15021 227.77943 
L 248.65799 226.539984 
L 248.911881 222.756728 
L 249.165771 226.952849 
L 249.419661 223.807243 
L 249.673551 225.786473 
L 249.927442 226.21477 
L 250.181332 227.812683 
L 250.435222 223.304022 
L 250.689112 225.459554 
L 250.943003 225.591679 
L 251.196893 226.117673 
L 251.450783 226.255202 
L 251.704673 227.24893 
L 251.958564 222.902986 
L 252.212454 226.669668 
L 252.466344 225.65819 
L 252.720234 225.12144 
L 252.974125 225.795765 
L 253.228015 224.733627 
L 253.481905 225.945891 
L 253.735795 227.851888 
L 253.989686 226.736812 
L 254.243576 227.102097 
L 254.497466 227.129861 
L 254.751356 228.571462 
L 255.259137 226.465001 
L 255.513027 227.538225 
L 255.766917 225.795358 
L 256.020808 227.952962 
L 256.274698 227.896395 
L 256.528588 225.622252 
L 256.782479 227.644103 
L 257.036369 228.182765 
L 257.290259 227.038627 
L 257.544149 227.964746 
L 257.79804 227.133619 
L 258.05193 225.720421 
L 258.30582 227.970602 
L 258.55971 227.804308 
L 258.813601 226.495568 
L 259.067491 224.38615 
L 259.321381 226.842541 
L 259.829162 224.811528 
L 260.083052 227.061322 
L 260.336942 226.509056 
L 260.590832 227.464076 
L 261.098613 226.36837 
L 261.352503 227.05298 
L 261.606393 226.521201 
L 261.860284 224.68914 
L 262.368064 228.056852 
L 262.621954 225.4434 
L 262.875845 227.892191 
L 263.129735 227.778003 
L 263.383625 226.976196 
L 263.637515 226.554357 
L 263.891406 227.071731 
L 264.145296 229.230614 
L 264.399186 225.387865 
L 264.653076 224.506472 
L 264.906967 226.28336 
L 265.160857 229.022215 
L 265.414747 227.781342 
L 265.668637 224.498924 
L 265.922528 223.791327 
L 266.176418 225.259731 
L 266.430308 224.206265 
L 266.684198 229.049204 
L 266.938089 224.758421 
L 267.191979 225.207386 
L 267.445869 224.761695 
L 267.699759 226.791965 
L 267.95365 224.687771 
L 268.20754 228.194981 
L 268.71532 227.17952 
L 268.969211 224.943207 
L 269.223101 225.782031 
L 269.476991 225.634559 
L 269.730881 226.359543 
L 269.984772 225.097362 
L 270.492552 227.203591 
L 270.746442 227.92248 
L 271.000333 224.95244 
L 271.508113 228.796454 
L 271.762003 227.313368 
L 272.269784 228.371845 
L 272.523674 226.803736 
L 272.777564 224.274564 
L 273.031455 226.611086 
L 273.285345 224.662616 
L 273.539235 225.318506 
L 273.793126 226.742752 
L 274.047016 225.989784 
L 274.300906 225.585842 
L 274.554796 225.791723 
L 274.808687 227.161183 
L 275.062577 223.762775 
L 275.570357 226.276587 
L 275.824248 226.692112 
L 276.078138 227.822626 
L 276.839809 226.030365 
L 277.093699 227.278508 
L 277.347589 226.833947 
L 277.601479 225.601758 
L 277.85537 226.677978 
L 278.10926 226.20983 
L 278.36315 227.462888 
L 278.61704 226.94543 
L 278.870931 224.927846 
L 279.124821 225.484445 
L 279.378711 224.409788 
L 279.886492 225.948215 
L 280.140382 226.428166 
L 280.394272 224.567004 
L 280.648162 223.91684 
L 280.902053 226.75449 
L 281.409833 225.187712 
L 281.917614 227.542648 
L 282.171504 225.846334 
L 282.425394 226.049063 
L 282.679284 228.607491 
L 282.933175 229.087345 
L 283.187065 228.869377 
L 283.694845 223.120825 
L 283.948736 222.801725 
L 284.202626 225.82841 
L 284.456516 225.305806 
L 284.710406 226.831707 
L 284.964297 226.001503 
L 285.218187 226.847171 
L 285.472077 229.498692 
L 285.979858 225.897846 
L 286.233748 227.597614 
L 286.487638 226.28037 
L 286.741528 226.066277 
L 286.995419 227.984252 
L 287.249309 227.653685 
L 287.757089 228.128851 
L 288.01098 225.370354 
L 288.26487 229.238271 
L 288.51876 226.614224 
L 288.77265 226.234069 
L 289.026541 224.874811 
L 289.280431 225.585771 
L 289.788212 227.93254 
L 290.042102 225.228861 
L 290.295992 225.319243 
L 290.549882 225.270875 
L 290.803773 226.620454 
L 291.057663 226.490209 
L 291.311553 226.796388 
L 291.565443 228.029081 
L 291.819334 227.053703 
L 292.073224 224.899553 
L 292.327114 223.971619 
L 292.581004 226.029151 
L 292.834895 226.359182 
L 293.088785 228.497313 
L 293.342675 224.37906 
L 293.596565 227.023273 
L 293.850456 227.56894 
L 294.104346 228.922038 
L 294.358236 225.103283 
L 294.612126 225.713822 
L 294.866017 225.513352 
L 295.373797 227.34194 
L 295.627687 226.958182 
L 295.881578 226.80914 
L 296.135468 226.89754 
L 296.389358 230.557091 
L 296.643248 227.157451 
L 296.897139 228.259781 
L 297.151029 226.56552 
L 297.404919 227.196876 
L 297.658809 226.99013 
L 297.9127 224.988876 
L 298.16659 226.030087 
L 298.42048 227.870484 
L 298.67437 224.141833 
L 299.182151 227.628226 
L 299.436041 226.317038 
L 299.689931 227.278476 
L 299.943822 224.903743 
L 300.451602 228.224799 
L 300.705492 225.88215 
L 300.959383 226.743895 
L 301.213273 228.918016 
L 301.467163 228.675158 
L 301.721053 226.982085 
L 301.974944 223.620811 
L 302.482724 228.143708 
L 302.736614 227.56371 
L 302.990505 226.158693 
L 303.244395 227.776977 
L 303.498285 224.271781 
L 303.752175 227.366863 
L 304.006066 226.218314 
L 304.259956 227.757452 
L 304.767736 225.196616 
L 305.021627 228.064929 
L 305.275517 226.895771 
L 305.529407 226.385073 
L 305.783298 226.69871 
L 306.037188 227.257362 
L 306.291078 227.257692 
L 306.544968 228.314974 
L 306.798859 226.999421 
L 307.052749 223.855624 
L 307.306639 227.379202 
L 307.560529 227.977563 
L 307.81442 225.404711 
L 308.3222 227.788586 
L 308.57609 226.710972 
L 308.829981 226.568639 
L 309.083871 227.063227 
L 309.337761 225.398564 
L 309.591651 226.407743 
L 309.845542 225.258923 
L 310.099432 226.725803 
L 310.099432 226.725803 
" clip-path="url(#p6e26bf364c)" style="fill: none; stroke: #0000ff; stroke-width: 0.6; stroke-linecap: square"/>
   </g>
   <g id="line2d_22">
    <path d="M 56.463068 113.834173 
L 56.716958 143.206309 
L 56.970849 145.420539 
L 57.224739 150.652415 
L 57.478629 160.906335 
L 57.732519 161.619187 
L 57.98641 169.90444 
L 58.2403 129.591024 
L 58.49419 184.368434 
L 58.74808 172.630808 
L 59.001971 187.736662 
L 59.255861 185.448922 
L 59.509751 136.468509 
L 59.763641 190.899042 
L 60.017532 188.227906 
L 60.271422 180.509363 
L 60.525312 192.776172 
L 60.779202 187.931288 
L 61.033093 187.241829 
L 61.286983 187.276915 
L 61.540873 190.158736 
L 61.794764 194.794026 
L 62.048654 192.06831 
L 62.556434 176.701358 
L 62.810325 186.566516 
L 63.318105 176.904707 
L 63.571995 191.202459 
L 64.079776 193.565253 
L 64.333666 187.268799 
L 64.587556 172.180488 
L 64.841447 192.811942 
L 65.095337 192.572293 
L 65.349227 180.991696 
L 65.603117 195.213316 
L 65.857008 179.997019 
L 66.110898 196.478589 
L 66.364788 192.225404 
L 66.618678 195.120764 
L 67.126459 166.026922 
L 67.380349 151.220093 
L 67.634239 186.554739 
L 67.88813 178.12275 
L 68.14202 153.507789 
L 68.39591 182.397049 
L 68.6498 163.814357 
L 68.903691 193.840434 
L 69.157581 195.287381 
L 69.411471 183.580935 
L 69.665361 197.874716 
L 69.919252 192.020563 
L 70.173142 140.323609 
L 70.427032 195.630093 
L 70.934813 186.687135 
L 71.188703 186.895462 
L 71.442593 189.940601 
L 71.696483 195.703281 
L 71.950374 194.849393 
L 72.204264 197.313378 
L 72.458154 46.498909 
L 72.712044 185.513425 
L 72.965935 94.34698 
L 73.219825 190.112706 
L 73.473715 179.896177 
L 73.727605 193.887135 
L 73.981496 193.830393 
L 74.235386 193.352464 
L 74.489276 191.579624 
L 74.743166 191.90436 
L 74.997057 184.497776 
L 75.250947 195.944738 
L 75.504837 193.80363 
L 75.758727 194.945076 
L 76.012618 191.232915 
L 76.266508 195.360575 
L 76.520398 195.227449 
L 76.774288 177.177957 
L 77.028179 187.641373 
L 77.282069 188.339207 
L 77.535959 157.280682 
L 77.78985 191.752291 
L 78.04374 194.596598 
L 78.29763 179.766654 
L 78.55152 193.110167 
L 78.805411 194.764416 
L 79.059301 162.508761 
L 79.313191 181.18536 
L 79.567081 161.60586 
L 79.820972 185.688926 
L 80.074862 189.387869 
L 80.328752 182.216595 
L 80.582642 183.836649 
L 80.836533 199.247223 
L 81.090423 191.012572 
L 81.344313 188.280748 
L 81.598203 186.98824 
L 81.852094 185.085567 
L 82.105984 198.76345 
L 82.359874 193.126516 
L 82.613764 196.658255 
L 82.867655 123.97581 
L 83.121545 195.818088 
L 83.629325 164.292571 
L 83.883216 188.068146 
L 84.137106 196.771616 
L 84.390996 187.653764 
L 84.644886 191.279494 
L 84.898777 192.4837 
L 85.152667 191.64372 
L 85.406557 176.23895 
L 85.660447 185.866745 
L 86.168228 184.603105 
L 86.422118 174.68894 
L 86.676008 193.928891 
L 86.929899 189.945237 
L 87.183789 189.886002 
L 87.437679 156.330543 
L 87.691569 191.470905 
L 87.94546 176.488801 
L 88.19935 192.811232 
L 88.45324 192.31441 
L 88.70713 198.765846 
L 88.961021 193.589776 
L 89.214911 179.410073 
L 89.468801 187.232686 
L 89.722691 176.167332 
L 89.976582 194.307341 
L 90.230472 194.918054 
L 90.484362 185.001494 
L 90.738252 191.46778 
L 90.992143 192.502638 
L 91.246033 194.389936 
L 91.753813 187.797588 
L 92.007704 189.577498 
L 92.261594 144.326118 
L 92.515484 184.036615 
L 92.769374 195.225848 
L 93.023265 163.978449 
L 93.277155 189.14186 
L 93.531045 193.037103 
L 93.784936 180.194867 
L 94.038826 192.250307 
L 94.292716 193.409677 
L 94.800497 173.713723 
L 95.054387 133.093895 
L 95.562167 181.26882 
L 95.816058 186.646522 
L 96.069948 182.417323 
L 96.323838 194.615736 
L 96.577728 188.840891 
L 96.831619 187.474989 
L 97.085509 160.307858 
L 97.339399 186.634564 
L 97.593289 182.164089 
L 97.84718 173.013436 
L 98.10107 189.402171 
L 98.35496 180.392547 
L 98.60885 144.543491 
L 98.862741 141.953955 
L 99.370521 184.24345 
L 99.624411 175.658772 
L 99.878302 177.785074 
L 100.132192 188.101954 
L 100.386082 188.644289 
L 100.893863 167.285707 
L 101.147753 186.590374 
L 101.401643 172.188778 
L 101.655533 167.250375 
L 101.909424 188.84944 
L 102.163314 192.597629 
L 102.417204 155.622327 
L 102.671094 168.724854 
L 102.924985 192.751055 
L 103.178875 188.706481 
L 103.432765 189.276723 
L 103.686655 158.802864 
L 103.940546 184.167183 
L 104.194436 177.897977 
L 104.448326 190.23499 
L 104.702216 187.92008 
L 104.956107 188.633971 
L 105.209997 184.603634 
L 105.463887 188.944458 
L 105.717777 152.344797 
L 105.971668 186.308975 
L 106.225558 188.750355 
L 106.479448 193.055872 
L 106.733338 162.103199 
L 106.987229 192.206233 
L 107.241119 190.067224 
L 107.495009 190.986067 
L 107.748899 189.630837 
L 108.00279 187.631178 
L 108.25668 181.342634 
L 108.51057 180.848975 
L 108.76446 182.731832 
L 109.018351 190.051618 
L 109.272241 185.190244 
L 109.526131 193.645975 
L 109.780021 155.165227 
L 110.033912 184.866302 
L 110.287802 183.733534 
L 110.795583 186.178942 
L 111.303363 164.827475 
L 111.811144 187.190065 
L 112.065034 190.161796 
L 112.318924 176.598876 
L 112.572814 188.636173 
L 112.826705 127.250293 
L 113.080595 180.6655 
L 113.334485 190.78807 
L 113.588375 176.448253 
L 113.842266 185.233847 
L 114.096156 160.785206 
L 114.350046 180.41902 
L 114.603936 180.666417 
L 114.857827 177.424167 
L 115.111717 91.288153 
L 115.365607 189.95099 
L 115.619497 183.83896 
L 115.873388 125.130757 
L 116.127278 189.70673 
L 116.381168 189.242186 
L 116.635058 165.269854 
L 116.888949 183.277648 
L 117.142839 189.055727 
L 117.396729 187.622216 
L 117.650619 184.466622 
L 117.90451 187.736029 
L 118.1584 189.497712 
L 118.41229 171.00413 
L 118.66618 175.898227 
L 118.920071 189.117144 
L 119.173961 187.368691 
L 119.681741 180.950088 
L 119.935632 161.612898 
L 120.189522 188.108598 
L 120.443412 173.118462 
L 120.697302 184.997471 
L 120.951193 189.83121 
L 121.205083 176.729187 
L 121.458973 182.779057 
L 121.712863 105.730226 
L 121.966754 169.783234 
L 122.220644 87.898753 
L 122.474534 193.177653 
L 122.728424 159.118302 
L 122.982315 189.378404 
L 123.236205 158.663475 
L 123.490095 178.301963 
L 123.743985 188.622065 
L 123.997876 185.323609 
L 124.251766 155.714607 
L 124.505656 188.516878 
L 124.759546 144.313243 
L 125.013437 184.088695 
L 125.267327 187.334199 
L 125.521217 176.694385 
L 125.775107 177.365927 
L 126.028998 167.699211 
L 126.282888 125.847483 
L 126.536778 186.931885 
L 126.790669 185.974431 
L 127.044559 164.634728 
L 127.298449 172.634863 
L 127.552339 170.709327 
L 128.31401 192.618724 
L 128.5679 176.285116 
L 128.821791 182.496108 
L 129.329571 186.926351 
L 129.837352 160.808954 
L 130.091242 183.113724 
L 130.345132 164.497509 
L 130.599022 187.631475 
L 130.852913 130.641707 
L 131.360693 188.198476 
L 131.614583 191.363852 
L 131.868474 184.366155 
L 132.122364 186.115014 
L 132.376254 152.899175 
L 132.630144 187.07334 
L 132.884035 170.874995 
L 133.137925 178.000058 
L 133.391815 179.345493 
L 133.645705 184.815533 
L 133.899596 179.567786 
L 134.153486 164.115501 
L 134.407376 186.584266 
L 134.661266 185.728028 
L 134.915157 65.164944 
L 135.169047 162.341247 
L 135.676827 190.76449 
L 135.930718 173.021223 
L 136.184608 189.33249 
L 136.438498 173.629734 
L 136.692388 184.891309 
L 136.946279 180.590382 
L 137.200169 178.195595 
L 137.454059 115.73445 
L 137.707949 173.182797 
L 137.96184 187.50571 
L 138.21573 183.595049 
L 138.46962 190.231065 
L 138.72351 180.114351 
L 138.977401 186.833219 
L 139.231291 186.780022 
L 139.739071 180.605504 
L 139.992962 186.555268 
L 140.246852 187.561529 
L 140.500742 143.222567 
L 140.754632 189.719431 
L 141.008523 114.970099 
L 141.262413 182.73621 
L 141.516303 186.74861 
L 142.024084 175.43724 
L 142.277974 188.044656 
L 142.531864 189.252904 
L 143.039645 174.955798 
L 143.293535 173.728858 
L 143.547425 188.270126 
L 143.801316 140.547608 
L 144.055206 181.188046 
L 144.309096 186.135676 
L 144.562986 186.119495 
L 144.816877 186.900854 
L 145.070767 180.848872 
L 145.324657 184.690213 
L 145.578547 186.282664 
L 145.832438 174.206542 
L 146.086328 147.011485 
L 146.340218 185.460008 
L 146.594108 189.3416 
L 146.847999 188.742038 
L 147.101889 164.256671 
L 147.609669 189.466597 
L 147.86356 182.254238 
L 148.11745 170.561338 
L 148.37134 185.965753 
L 148.62523 181.864108 
L 148.879121 134.461825 
L 149.133011 165.486362 
L 149.386901 182.664449 
L 149.640791 189.914025 
L 149.894682 179.662984 
L 150.148572 184.69102 
L 150.402462 186.191617 
L 150.656352 173.115814 
L 150.910243 186.054772 
L 151.164133 167.741296 
L 151.418023 182.649147 
L 151.671913 184.147929 
L 151.925804 184.185365 
L 152.179694 179.167531 
L 152.433584 165.082375 
L 152.687474 181.512937 
L 152.941365 181.163446 
L 153.195255 162.487919 
L 153.449145 156.559836 
L 153.703035 175.489307 
L 153.956926 162.399242 
L 154.210816 192.69175 
L 154.464706 187.538543 
L 154.718596 188.797024 
L 155.226377 178.257179 
L 155.480267 181.314908 
L 155.734157 186.243387 
L 155.988048 188.217116 
L 156.241938 188.979873 
L 156.495828 184.359272 
L 156.749718 182.591049 
L 157.003609 178.91502 
L 157.257499 181.851478 
L 157.511389 190.950671 
L 157.765279 129.694797 
L 158.01917 186.933796 
L 158.27306 173.717016 
L 158.52695 171.191041 
L 158.78084 184.738587 
L 159.034731 188.247515 
L 159.288621 174.831815 
L 159.542511 183.63184 
L 159.796402 184.896106 
L 160.050292 154.822386 
L 160.304182 184.269962 
L 160.558072 185.68325 
L 160.811963 174.952673 
L 161.065853 186.214984 
L 161.319743 183.139125 
L 161.827524 169.543133 
L 162.081414 153.51883 
L 162.335304 189.1997 
L 162.589194 173.570952 
L 162.843085 182.12274 
L 163.096975 156.394388 
L 163.350865 187.033269 
L 163.604755 181.367156 
L 163.858646 164.116947 
L 164.112536 192.189381 
L 164.366426 185.29764 
L 164.620316 182.947617 
L 164.874207 185.338111 
L 165.128097 179.91986 
L 165.381987 185.947519 
L 165.635877 187.466511 
L 165.889768 188.204384 
L 166.143658 176.507177 
L 166.397548 177.640597 
L 166.905329 180.975567 
L 167.159219 177.519714 
L 167.413109 162.737498 
L 167.666999 175.302035 
L 167.92089 152.39658 
L 168.17478 186.346366 
L 168.42867 186.154103 
L 168.68256 183.108597 
L 168.936451 114.929976 
L 169.190341 173.749494 
L 169.444231 185.739411 
L 169.698121 179.903847 
L 169.952012 186.004571 
L 170.205902 183.26241 
L 170.459792 185.253837 
L 170.713682 184.801663 
L 170.967573 187.115063 
L 171.221463 183.73755 
L 171.475353 184.391937 
L 171.729243 161.910775 
L 171.983134 188.05879 
L 172.237024 190.39998 
L 172.490914 170.814185 
L 172.744804 180.870954 
L 172.998695 177.50671 
L 173.252585 171.884316 
L 173.760365 139.05811 
L 174.014256 184.352311 
L 174.268146 180.751091 
L 174.522036 184.514325 
L 174.775926 182.087073 
L 175.029817 182.959807 
L 175.283707 186.653786 
L 175.537597 183.748927 
L 175.791488 155.522803 
L 176.045378 177.749729 
L 176.299268 108.584283 
L 176.553158 101.666998 
L 176.807049 184.85497 
L 177.060939 169.354595 
L 177.314829 181.902035 
L 177.568719 185.030665 
L 177.82261 172.204765 
L 178.0765 181.850781 
L 178.33039 174.660866 
L 178.58428 190.736474 
L 178.838171 187.765388 
L 179.092061 164.306711 
L 179.345951 153.779799 
L 179.599841 186.600898 
L 179.853732 186.968275 
L 180.107622 178.846708 
L 180.361512 181.728619 
L 180.615402 174.248434 
L 180.869293 183.753201 
L 181.123183 184.83272 
L 181.377073 188.270927 
L 181.630963 163.98111 
L 182.138744 183.432843 
L 182.392634 180.518996 
L 182.646524 186.675054 
L 182.900415 186.403444 
L 183.154305 162.139486 
L 183.408195 181.085254 
L 183.662085 187.262652 
L 183.915976 180.232871 
L 184.169866 110.349691 
L 184.423756 172.880685 
L 184.931537 181.736031 
L 185.185427 188.377554 
L 185.439317 161.423379 
L 185.693207 182.601974 
L 185.947098 168.119481 
L 186.200988 180.948177 
L 186.454878 184.886363 
L 186.708768 161.361446 
L 187.216549 186.021804 
L 187.470439 160.006456 
L 187.724329 185.990063 
L 187.97822 190.022744 
L 188.23211 182.731083 
L 188.486 186.13299 
L 188.993781 157.78205 
L 189.247671 185.368722 
L 189.501561 181.596333 
L 189.755451 180.741096 
L 190.009342 162.49333 
L 190.263232 174.33755 
L 190.517122 127.993983 
L 190.771012 173.46098 
L 191.024903 184.331024 
L 191.278793 183.256534 
L 191.532683 189.037145 
L 191.786574 189.041174 
L 192.040464 173.775579 
L 192.294354 134.301439 
L 192.548244 184.087933 
L 192.802135 177.827443 
L 193.056025 165.58927 
L 193.309915 177.958515 
L 193.563805 162.092171 
L 193.817696 161.558778 
L 194.071586 192.199518 
L 194.579366 173.230951 
L 194.833257 92.859677 
L 195.087147 178.107228 
L 195.341037 187.498821 
L 195.594927 168.604397 
L 195.848818 186.637082 
L 196.102708 150.948445 
L 196.356598 177.104751 
L 196.610488 181.236575 
L 196.864379 172.364454 
L 197.118269 182.561696 
L 197.372159 186.400248 
L 197.626049 185.488269 
L 197.87994 122.505812 
L 198.13383 141.09075 
L 198.38772 142.624348 
L 198.64161 181.776012 
L 198.895501 179.658594 
L 199.149391 151.187216 
L 199.403281 189.050245 
L 199.657171 174.825436 
L 200.164952 185.071937 
L 200.418842 185.468408 
L 200.672732 176.496498 
L 200.926623 186.812654 
L 201.180513 146.715882 
L 201.434403 185.926419 
L 201.688293 176.542612 
L 201.942184 181.579209 
L 202.196074 174.081384 
L 202.449964 177.140185 
L 202.703854 190.267326 
L 202.957745 178.307697 
L 203.211635 182.859934 
L 203.465525 175.416423 
L 203.719415 185.777855 
L 203.973306 178.298864 
L 204.227196 185.909999 
L 204.481086 150.080062 
L 204.734976 173.129399 
L 205.242757 186.228944 
L 205.750537 186.888728 
L 206.004428 177.851075 
L 206.258318 179.257074 
L 206.512208 185.383108 
L 206.766098 184.748156 
L 207.019989 144.612514 
L 207.273879 124.354254 
L 207.527769 173.935074 
L 207.78166 131.706531 
L 208.03555 187.293793 
L 208.28944 103.754354 
L 208.54333 156.594845 
L 208.797221 184.39736 
L 209.051111 187.342819 
L 209.305001 173.643861 
L 209.558891 184.547338 
L 210.066672 186.319978 
L 210.320562 182.660704 
L 210.574452 186.877945 
L 210.828343 80.844843 
L 211.082233 186.133468 
L 211.336123 185.365009 
L 211.590013 181.236058 
L 211.843904 181.777703 
L 212.097794 189.043408 
L 212.351684 185.301514 
L 212.605574 186.322748 
L 212.859465 186.499501 
L 213.113355 171.944067 
L 213.621135 186.166074 
L 213.875026 172.980145 
L 214.128916 176.101086 
L 214.382806 64.03483 
L 214.636696 178.642144 
L 214.890587 154.708734 
L 215.144477 186.560602 
L 215.398367 184.73933 
L 215.652257 177.848867 
L 215.906148 183.852739 
L 216.160038 176.068544 
L 216.413928 184.667343 
L 216.667818 181.121503 
L 216.921709 180.510435 
L 217.175599 176.39789 
L 217.429489 183.133507 
L 217.683379 180.362458 
L 217.93727 179.677228 
L 218.19116 144.659287 
L 218.44505 187.870517 
L 218.69894 170.762079 
L 218.952831 181.558703 
L 219.206721 160.077932 
L 219.460611 174.15813 
L 219.714501 124.416032 
L 219.968392 183.507367 
L 220.222282 179.302478 
L 220.476172 177.219771 
L 220.730062 158.471322 
L 220.983953 179.134873 
L 221.237843 177.427498 
L 221.491733 189.862764 
L 221.745623 172.521547 
L 221.999514 180.038678 
L 222.253404 182.48131 
L 222.507294 180.881453 
L 223.015075 191.693353 
L 223.268965 130.044921 
L 223.522855 180.405719 
L 223.776745 176.52873 
L 224.030636 188.150044 
L 224.284526 70.687207 
L 224.538416 177.744771 
L 224.792307 177.4861 
L 225.300087 187.783577 
L 225.553977 187.813672 
L 225.807868 193.236765 
L 226.315648 143.885108 
L 226.569538 188.846573 
L 226.823429 179.470741 
L 227.077319 188.192619 
L 227.331209 160.282741 
L 227.585099 177.397061 
L 227.83899 183.138246 
L 228.09288 184.438671 
L 228.34677 184.567767 
L 228.60066 182.225467 
L 228.854551 189.540042 
L 229.108441 127.249518 
L 229.362331 179.283546 
L 229.616221 179.874185 
L 229.870112 186.248927 
L 230.124002 183.485272 
L 230.377892 167.934534 
L 230.631782 186.558297 
L 230.885673 181.405135 
L 231.139563 183.031284 
L 231.393453 172.764889 
L 231.647343 186.765197 
L 231.901234 190.203165 
L 232.155124 183.700424 
L 232.662904 188.369464 
L 232.916795 187.838589 
L 233.170685 182.558687 
L 233.424575 187.376601 
L 233.678465 174.417859 
L 233.932356 190.920634 
L 234.440136 153.51196 
L 234.694026 184.54112 
L 234.947917 178.629941 
L 235.201807 137.196909 
L 235.455697 181.325782 
L 235.709587 190.24822 
L 235.963478 179.174944 
L 236.217368 184.543225 
L 236.471258 159.819997 
L 236.725148 152.117661 
L 236.979039 137.634407 
L 237.232929 173.016419 
L 237.486819 167.039962 
L 237.740709 128.327733 
L 237.9946 187.632282 
L 238.24849 178.478504 
L 238.50238 184.152901 
L 238.75627 182.643981 
L 239.010161 183.62178 
L 239.264051 177.523562 
L 239.517941 187.526656 
L 239.771831 136.649337 
L 240.025722 183.030444 
L 240.279612 181.395979 
L 240.533502 177.143414 
L 240.787393 188.841666 
L 241.041283 171.534979 
L 241.295173 175.21873 
L 241.549063 187.561845 
L 241.802954 166.191879 
L 242.056844 182.019664 
L 242.310734 183.060003 
L 242.564624 156.552023 
L 242.818515 179.866992 
L 243.072405 182.733317 
L 243.326295 183.84605 
L 243.580185 187.057779 
L 243.834076 186.247655 
L 244.087966 182.576831 
L 244.341856 186.901926 
L 244.595746 181.524895 
L 244.849637 67.10218 
L 245.103527 181.846274 
L 245.357417 179.944461 
L 245.611307 175.12552 
L 245.865198 185.979241 
L 246.372978 186.753788 
L 246.626868 184.737696 
L 246.880759 181.428844 
L 247.134649 182.908554 
L 247.388539 187.366729 
L 247.89632 166.237374 
L 248.15021 182.740949 
L 248.4041 180.260997 
L 248.65799 189.445199 
L 248.911881 155.557708 
L 249.165771 186.21594 
L 249.419661 182.837736 
L 249.673551 147.951396 
L 249.927442 185.013452 
L 250.181332 185.552191 
L 250.435222 169.320284 
L 250.689112 182.550474 
L 250.943003 172.483672 
L 251.196893 180.350294 
L 251.450783 163.229026 
L 251.958564 189.002556 
L 252.212454 158.236954 
L 252.466344 175.011765 
L 252.720234 182.154003 
L 252.974125 167.593333 
L 253.228015 185.455385 
L 253.481905 168.984468 
L 253.735795 184.116394 
L 253.989686 183.817252 
L 254.243576 168.868866 
L 254.497466 178.593073 
L 254.751356 182.974942 
L 255.005247 158.564583 
L 255.259137 163.256002 
L 255.513027 189.680826 
L 255.766917 162.11823 
L 256.020808 160.640871 
L 256.274698 186.745498 
L 256.528588 173.811259 
L 257.036369 186.520234 
L 257.290259 99.002577 
L 257.544149 178.9382 
L 257.79804 184.487419 
L 258.05193 186.297514 
L 258.30582 177.278915 
L 258.55971 191.968418 
L 259.321381 175.186847 
L 259.575271 173.807889 
L 259.829162 185.431831 
L 260.083052 183.903592 
L 260.336942 172.715508 
L 260.590832 150.316457 
L 260.844723 174.958277 
L 261.098613 183.499954 
L 261.352503 183.763029 
L 261.606393 169.427053 
L 261.860284 175.26744 
L 262.114174 190.223768 
L 262.368064 174.639171 
L 262.621954 171.118273 
L 262.875845 185.942128 
L 263.129735 187.768513 
L 263.383625 172.296348 
L 263.891406 190.711564 
L 264.399186 186.979239 
L 264.653076 179.136655 
L 264.906967 181.186677 
L 265.160857 180.928471 
L 265.414747 163.857915 
L 265.668637 188.636031 
L 266.176418 173.157344 
L 266.430308 186.337404 
L 266.684198 183.873827 
L 266.938089 177.346776 
L 267.191979 179.441763 
L 267.445869 191.033866 
L 267.699759 157.017491 
L 267.95365 164.948488 
L 268.20754 181.08098 
L 268.46143 174.975013 
L 268.71532 165.87821 
L 268.969211 186.108318 
L 269.223101 169.64205 
L 269.476991 175.575686 
L 269.730881 185.496818 
L 269.984772 182.126123 
L 270.238662 182.363551 
L 270.746442 186.052603 
L 271.000333 164.003915 
L 271.254223 183.851577 
L 271.508113 185.005374 
L 271.762003 184.081282 
L 272.015894 168.581514 
L 272.269784 140.652 
L 272.523674 180.281413 
L 272.777564 176.33699 
L 273.031455 182.148683 
L 273.285345 172.221721 
L 273.539235 184.718707 
L 273.793126 187.860109 
L 274.047016 185.580394 
L 274.300906 167.460827 
L 274.554796 188.146234 
L 274.808687 179.228651 
L 275.062577 190.899075 
L 275.316467 144.637295 
L 275.570357 184.942937 
L 275.824248 152.554074 
L 276.078138 181.893241 
L 276.332028 181.992843 
L 276.585918 185.082875 
L 276.839809 181.535613 
L 277.093699 159.658953 
L 277.347589 107.435548 
L 277.601479 173.904844 
L 277.85537 161.2304 
L 278.10926 184.768179 
L 278.36315 183.440694 
L 278.61704 160.639671 
L 278.870931 183.789321 
L 279.124821 164.601463 
L 279.378711 119.231949 
L 279.632601 182.390631 
L 279.886492 186.019977 
L 280.140382 178.481952 
L 280.394272 178.190042 
L 280.648162 175.704899 
L 280.902053 187.041986 
L 281.155943 181.933621 
L 281.409833 169.64626 
L 281.663723 180.989087 
L 281.917614 167.894398 
L 282.171504 183.302881 
L 282.425394 177.950883 
L 282.679284 179.532132 
L 282.933175 184.380515 
L 283.187065 172.941701 
L 283.440955 90.893748 
L 283.694845 156.77646 
L 283.948736 180.378497 
L 284.202626 184.22869 
L 284.456516 181.59601 
L 284.710406 174.701828 
L 284.964297 187.008953 
L 285.218187 183.960928 
L 285.472077 183.344062 
L 285.725967 187.928086 
L 285.979858 181.064141 
L 286.233748 184.396482 
L 286.487638 151.18493 
L 286.741528 183.992773 
L 286.995419 182.765962 
L 287.249309 184.275373 
L 287.503199 186.817904 
L 288.01098 129.994288 
L 288.26487 185.992536 
L 288.51876 176.237698 
L 288.77265 189.264151 
L 289.026541 182.827702 
L 289.280431 169.610813 
L 289.534321 167.863057 
L 289.788212 175.720369 
L 290.295992 182.37374 
L 290.549882 181.661804 
L 290.803773 188.843229 
L 291.311553 181.294221 
L 291.565443 135.519688 
L 291.819334 187.11035 
L 292.073224 184.177966 
L 292.327114 179.014713 
L 292.834895 188.775174 
L 293.088785 181.323173 
L 293.342675 182.927795 
L 293.596565 187.680237 
L 293.850456 184.734655 
L 294.104346 186.679135 
L 294.358236 185.677207 
L 294.866017 153.946926 
L 295.119907 185.19654 
L 295.373797 181.119204 
L 295.627687 172.771282 
L 295.881578 180.993594 
L 296.135468 183.142443 
L 296.389358 177.991045 
L 296.643248 184.645997 
L 296.897139 180.689326 
L 297.151029 182.437662 
L 297.404919 187.161526 
L 297.658809 181.190926 
L 297.9127 185.749839 
L 298.16659 183.329354 
L 298.42048 175.500038 
L 298.67437 189.295848 
L 298.928261 181.840553 
L 299.182151 161.85903 
L 299.943822 187.827451 
L 300.197712 161.953131 
L 300.451602 185.097131 
L 300.705492 169.970325 
L 300.959383 178.747687 
L 301.213273 170.050815 
L 301.467163 183.499657 
L 301.721053 188.937523 
L 301.974944 188.224348 
L 302.228834 178.642726 
L 302.482724 185.42622 
L 302.736614 180.117256 
L 302.990505 171.564435 
L 303.244395 184.025651 
L 303.498285 177.638867 
L 304.006066 183.908913 
L 304.259956 179.387345 
L 304.513846 184.960054 
L 304.767736 184.164833 
L 305.021627 188.252758 
L 305.529407 171.383207 
L 305.783298 176.816469 
L 306.037188 153.594193 
L 306.544968 186.12335 
L 307.052749 181.549082 
L 307.306639 188.022335 
L 307.560529 161.585405 
L 308.06831 189.314566 
L 308.3222 149.467457 
L 308.57609 180.131009 
L 308.829981 185.347544 
L 309.083871 166.141581 
L 309.337761 174.520212 
L 309.591651 171.893549 
L 309.845542 189.956878 
L 310.099432 187.32494 
L 310.099432 187.32494 
" clip-path="url(#p6e26bf364c)" style="fill: none; stroke: #ff0000; stroke-width: 0.6; stroke-linecap: square"/>
   </g>
   <g id="patch_3">
    <path d="M 43.78125 239.76 
L 43.78125 37.296 
" style="fill: none; stroke: #000000; stroke-width: 0.8; stroke-linejoin: miter; stroke-linecap: square"/>
   </g>
   <g id="patch_4">
    <path d="M 322.78125 239.76 
L 322.78125 37.296 
" style="fill: none; stroke: #000000; stroke-width: 0.8; stroke-linejoin: miter; stroke-linecap: square"/>
   </g>
   <g id="patch_5">
    <path d="M 43.78125 239.76 
L 322.78125 239.76 
" style="fill: none; stroke: #000000; stroke-width: 0.8; stroke-linejoin: miter; stroke-linecap: square"/>
   </g>
   <g id="patch_6">
    <path d="M 43.78125 37.296 
L 322.78125 37.296 
" style="fill: none; stroke: #000000; stroke-width: 0.8; stroke-linejoin: miter; stroke-linecap: square"/>
   </g>
   <g id="text_13">
    <!-- Baseline Model -->
    <g transform="translate(149.259844 31.296) scale(0.09 -0.09)">
     <defs>
      <path id="DejaVuSans-42" d="M 1259 2228 
L 1259 519 
L 2272 519 
Q 2781 519 3026 730 
Q 3272 941 3272 1375 
Q 3272 1813 3026 2020 
Q 2781 2228 2272 2228 
L 1259 2228 
z
M 1259 4147 
L 1259 2741 
L 2194 2741 
Q 2656 2741 2882 2914 
Q 3109 3088 3109 3444 
Q 3109 3797 2882 3972 
Q 2656 4147 2194 4147 
L 1259 4147 
z
M 628 4666 
L 2241 4666 
Q 2963 4666 3353 4366 
Q 3744 4066 3744 3513 
Q 3744 3084 3544 2831 
Q 3344 2578 2956 2516 
Q 3422 2416 3680 2098 
Q 3938 1781 3938 1306 
Q 3938 681 3513 340 
Q 3088 0 2303 0 
L 628 0 
L 628 4666 
z
" transform="scale(0.015625)"/>
      <path id="DejaVuSans-61" d="M 2194 1759 
Q 1497 1759 1228 1600 
Q 959 1441 959 1056 
Q 959 750 1161 570 
Q 1363 391 1709 391 
Q 2188 391 2477 730 
Q 2766 1069 2766 1631 
L 2766 1759 
L 2194 1759 
z
M 3341 1997 
L 3341 0 
L 2766 0 
L 2766 531 
Q 2569 213 2275 61 
Q 1981 -91 1556 -91 
Q 1019 -91 701 211 
Q 384 513 384 1019 
Q 384 1609 779 1909 
Q 1175 2209 1959 2209 
L 2766 2209 
L 2766 2266 
Q 2766 2663 2505 2880 
Q 2244 3097 1772 3097 
Q 1472 3097 1187 3025 
Q 903 2953 641 2809 
L 641 3341 
Q 956 3463 1253 3523 
Q 1550 3584 1831 3584 
Q 2591 3584 2966 3190 
Q 3341 2797 3341 1997 
z
" transform="scale(0.015625)"/>
      <path id="DejaVuSans-65" d="M 3597 1894 
L 3597 1613 
L 953 1613 
Q 991 1019 1311 708 
Q 1631 397 2203 397 
Q 2534 397 2845 478 
Q 3156 559 3463 722 
L 3463 178 
Q 3153 47 2828 -22 
Q 2503 -91 2169 -91 
Q 1331 -91 842 396 
Q 353 884 353 1716 
Q 353 2575 817 3079 
Q 1281 3584 2069 3584 
Q 2775 3584 3186 3129 
Q 3597 2675 3597 1894 
z
M 3022 2063 
Q 3016 2534 2758 2815 
Q 2500 3097 2075 3097 
Q 1594 3097 1305 2825 
Q 1016 2553 972 2059 
L 3022 2063 
z
" transform="scale(0.015625)"/>
      <path id="DejaVuSans-6c" d="M 603 4863 
L 1178 4863 
L 1178 0 
L 603 0 
L 603 4863 
z
" transform="scale(0.015625)"/>
      <path id="DejaVuSans-69" d="M 603 3500 
L 1178 3500 
L 1178 0 
L 603 0 
L 603 3500 
z
M 603 4863 
L 1178 4863 
L 1178 4134 
L 603 4134 
L 603 4863 
z
" transform="scale(0.015625)"/>
      <path id="DejaVuSans-6e" d="M 3513 2113 
L 3513 0 
L 2938 0 
L 2938 2094 
Q 2938 2591 2744 2837 
Q 2550 3084 2163 3084 
Q 1697 3084 1428 2787 
Q 1159 2491 1159 1978 
L 1159 0 
L 581 0 
L 581 3500 
L 1159 3500 
L 1159 2956 
Q 1366 3272 1645 3428 
Q 1925 3584 2291 3584 
Q 2894 3584 3203 3211 
Q 3513 2838 3513 2113 
z
" transform="scale(0.015625)"/>
      <path id="DejaVuSans-20" transform="scale(0.015625)"/>
      <path id="DejaVuSans-4d" d="M 628 4666 
L 1569 4666 
L 2759 1491 
L 3956 4666 
L 4897 4666 
L 4897 0 
L 4281 0 
L 4281 4097 
L 3078 897 
L 2444 897 
L 1241 4097 
L 1241 0 
L 628 0 
L 628 4666 
z
" transform="scale(0.015625)"/>
      <path id="DejaVuSans-64" d="M 2906 2969 
L 2906 4863 
L 3481 4863 
L 3481 0 
L 2906 0 
L 2906 525 
Q 2725 213 2448 61 
Q 2172 -91 1784 -91 
Q 1150 -91 751 415 
Q 353 922 353 1747 
Q 353 2572 751 3078 
Q 1150 3584 1784 3584 
Q 2172 3584 2448 3432 
Q 2725 3281 2906 2969 
z
M 947 1747 
Q 947 1113 1208 752 
Q 1469 391 1925 391 
Q 2381 391 2643 752 
Q 2906 1113 2906 1747 
Q 2906 2381 2643 2742 
Q 2381 3103 1925 3103 
Q 1469 3103 1208 2742 
Q 947 2381 947 1747 
z
" transform="scale(0.015625)"/>
     </defs>
     <use xlink:href="#DejaVuSans-42"/>
     <use xlink:href="#DejaVuSans-61" x="68.603516"/>
     <use xlink:href="#DejaVuSans-73" x="129.882812"/>
     <use xlink:href="#DejaVuSans-65" x="181.982422"/>
     <use xlink:href="#DejaVuSans-6c" x="243.505859"/>
     <use xlink:href="#DejaVuSans-69" x="271.289062"/>
     <use xlink:href="#DejaVuSans-6e" x="299.072266"/>
     <use xlink:href="#DejaVuSans-65" x="362.451172"/>
     <use xlink:href="#DejaVuSans-20" x="423.974609"/>
     <use xlink:href="#DejaVuSans-4d" x="455.761719"/>
     <use xlink:href="#DejaVuSans-6f" x="542.041016"/>
     <use xlink:href="#DejaVuSans-64" x="603.222656"/>
     <use xlink:href="#DejaVuSans-65" x="666.699219"/>
     <use xlink:href="#DejaVuSans-6c" x="728.222656"/>
    </g>
   </g>
   <g id="legend_1">
    <g id="patch_7">
     <path d="M 50.78125 74.65225 
L 157.275 74.65225 
Q 159.275 74.65225 159.275 72.65225 
L 159.275 44.296 
Q 159.275 42.296 157.275 42.296 
L 50.78125 42.296 
Q 48.78125 42.296 48.78125 44.296 
L 48.78125 72.65225 
Q 48.78125 74.65225 50.78125 74.65225 
z
" style="fill: #ffffff; opacity: 0.8; stroke: #cccccc; stroke-linejoin: miter"/>
    </g>
    <g id="line2d_23">
     <path d="M 52.78125 50.394438 
L 62.78125 50.394438 
L 72.78125 50.394438 
" style="fill: none; stroke: #0000ff; stroke-width: 0.6; stroke-linecap: square"/>
    </g>
    <g id="text_14">
     <!-- Training Loss -->
     <g transform="translate(80.78125 53.894438) scale(0.1 -0.1)">
      <defs>
       <path id="DejaVuSans-54" d="M -19 4666 
L 3928 4666 
L 3928 4134 
L 2272 4134 
L 2272 0 
L 1638 0 
L 1638 4134 
L -19 4134 
L -19 4666 
z
" transform="scale(0.015625)"/>
       <path id="DejaVuSans-72" d="M 2631 2963 
Q 2534 3019 2420 3045 
Q 2306 3072 2169 3072 
Q 1681 3072 1420 2755 
Q 1159 2438 1159 1844 
L 1159 0 
L 581 0 
L 581 3500 
L 1159 3500 
L 1159 2956 
Q 1341 3275 1631 3429 
Q 1922 3584 2338 3584 
Q 2397 3584 2469 3576 
Q 2541 3569 2628 3553 
L 2631 2963 
z
" transform="scale(0.015625)"/>
       <path id="DejaVuSans-67" d="M 2906 1791 
Q 2906 2416 2648 2759 
Q 2391 3103 1925 3103 
Q 1463 3103 1205 2759 
Q 947 2416 947 1791 
Q 947 1169 1205 825 
Q 1463 481 1925 481 
Q 2391 481 2648 825 
Q 2906 1169 2906 1791 
z
M 3481 434 
Q 3481 -459 3084 -895 
Q 2688 -1331 1869 -1331 
Q 1566 -1331 1297 -1286 
Q 1028 -1241 775 -1147 
L 775 -588 
Q 1028 -725 1275 -790 
Q 1522 -856 1778 -856 
Q 2344 -856 2625 -561 
Q 2906 -266 2906 331 
L 2906 616 
Q 2728 306 2450 153 
Q 2172 0 1784 0 
Q 1141 0 747 490 
Q 353 981 353 1791 
Q 353 2603 747 3093 
Q 1141 3584 1784 3584 
Q 2172 3584 2450 3431 
Q 2728 3278 2906 2969 
L 2906 3500 
L 3481 3500 
L 3481 434 
z
" transform="scale(0.015625)"/>
      </defs>
      <use xlink:href="#DejaVuSans-54"/>
      <use xlink:href="#DejaVuSans-72" x="46.333984"/>
      <use xlink:href="#DejaVuSans-61" x="87.447266"/>
      <use xlink:href="#DejaVuSans-69" x="148.726562"/>
      <use xlink:href="#DejaVuSans-6e" x="176.509766"/>
      <use xlink:href="#DejaVuSans-69" x="239.888672"/>
      <use xlink:href="#DejaVuSans-6e" x="267.671875"/>
      <use xlink:href="#DejaVuSans-67" x="331.050781"/>
      <use xlink:href="#DejaVuSans-20" x="394.527344"/>
      <use xlink:href="#DejaVuSans-4c" x="426.314453"/>
      <use xlink:href="#DejaVuSans-6f" x="480.277344"/>
      <use xlink:href="#DejaVuSans-73" x="541.458984"/>
      <use xlink:href="#DejaVuSans-73" x="593.558594"/>
     </g>
    </g>
    <g id="line2d_24">
     <path d="M 52.78125 65.072563 
L 62.78125 65.072563 
L 72.78125 65.072563 
" style="fill: none; stroke: #ff0000; stroke-width: 0.6; stroke-linecap: square"/>
    </g>
    <g id="text_15">
     <!-- Validation Loss -->
     <g transform="translate(80.78125 68.572563) scale(0.1 -0.1)">
      <defs>
       <path id="DejaVuSans-56" d="M 1831 0 
L 50 4666 
L 709 4666 
L 2188 738 
L 3669 4666 
L 4325 4666 
L 2547 0 
L 1831 0 
z
" transform="scale(0.015625)"/>
       <path id="DejaVuSans-74" d="M 1172 4494 
L 1172 3500 
L 2356 3500 
L 2356 3053 
L 1172 3053 
L 1172 1153 
Q 1172 725 1289 603 
Q 1406 481 1766 481 
L 2356 481 
L 2356 0 
L 1766 0 
Q 1100 0 847 248 
Q 594 497 594 1153 
L 594 3053 
L 172 3053 
L 172 3500 
L 594 3500 
L 594 4494 
L 1172 4494 
z
" transform="scale(0.015625)"/>
      </defs>
      <use xlink:href="#DejaVuSans-56"/>
      <use xlink:href="#DejaVuSans-61" x="60.658203"/>
      <use xlink:href="#DejaVuSans-6c" x="121.9375"/>
      <use xlink:href="#DejaVuSans-69" x="149.720703"/>
      <use xlink:href="#DejaVuSans-64" x="177.503906"/>
      <use xlink:href="#DejaVuSans-61" x="240.980469"/>
      <use xlink:href="#DejaVuSans-74" x="302.259766"/>
      <use xlink:href="#DejaVuSans-69" x="341.46875"/>
      <use xlink:href="#DejaVuSans-6f" x="369.251953"/>
      <use xlink:href="#DejaVuSans-6e" x="430.433594"/>
      <use xlink:href="#DejaVuSans-20" x="493.8125"/>
      <use xlink:href="#DejaVuSans-4c" x="525.599609"/>
      <use xlink:href="#DejaVuSans-6f" x="579.5625"/>
      <use xlink:href="#DejaVuSans-73" x="640.744141"/>
      <use xlink:href="#DejaVuSans-73" x="692.84375"/>
     </g>
    </g>
   </g>
  </g>
  <g id="text_16">
   <!-- Training VS. Validation Loss - Dataset Size = 100.0% -->
   <g transform="translate(34.481016 15.558281) scale(0.11 -0.11)">
    <defs>
     <path id="DejaVuSans-53" d="M 3425 4513 
L 3425 3897 
Q 3066 4069 2747 4153 
Q 2428 4238 2131 4238 
Q 1616 4238 1336 4038 
Q 1056 3838 1056 3469 
Q 1056 3159 1242 3001 
Q 1428 2844 1947 2747 
L 2328 2669 
Q 3034 2534 3370 2195 
Q 3706 1856 3706 1288 
Q 3706 609 3251 259 
Q 2797 -91 1919 -91 
Q 1588 -91 1214 -16 
Q 841 59 441 206 
L 441 856 
Q 825 641 1194 531 
Q 1563 422 1919 422 
Q 2459 422 2753 634 
Q 3047 847 3047 1241 
Q 3047 1584 2836 1778 
Q 2625 1972 2144 2069 
L 1759 2144 
Q 1053 2284 737 2584 
Q 422 2884 422 3419 
Q 422 4038 858 4394 
Q 1294 4750 2059 4750 
Q 2388 4750 2728 4690 
Q 3069 4631 3425 4513 
z
" transform="scale(0.015625)"/>
     <path id="DejaVuSans-2d" d="M 313 2009 
L 1997 2009 
L 1997 1497 
L 313 1497 
L 313 2009 
z
" transform="scale(0.015625)"/>
     <path id="DejaVuSans-44" d="M 1259 4147 
L 1259 519 
L 2022 519 
Q 2988 519 3436 956 
Q 3884 1394 3884 2338 
Q 3884 3275 3436 3711 
Q 2988 4147 2022 4147 
L 1259 4147 
z
M 628 4666 
L 1925 4666 
Q 3281 4666 3915 4102 
Q 4550 3538 4550 2338 
Q 4550 1131 3912 565 
Q 3275 0 1925 0 
L 628 0 
L 628 4666 
z
" transform="scale(0.015625)"/>
     <path id="DejaVuSans-7a" d="M 353 3500 
L 3084 3500 
L 3084 2975 
L 922 459 
L 3084 459 
L 3084 0 
L 275 0 
L 275 525 
L 2438 3041 
L 353 3041 
L 353 3500 
z
" transform="scale(0.015625)"/>
     <path id="DejaVuSans-3d" d="M 678 2906 
L 4684 2906 
L 4684 2381 
L 678 2381 
L 678 2906 
z
M 678 1631 
L 4684 1631 
L 4684 1100 
L 678 1100 
L 678 1631 
z
" transform="scale(0.015625)"/>
     <path id="DejaVuSans-25" d="M 4653 2053 
Q 4381 2053 4226 1822 
Q 4072 1591 4072 1178 
Q 4072 772 4226 539 
Q 4381 306 4653 306 
Q 4919 306 5073 539 
Q 5228 772 5228 1178 
Q 5228 1588 5073 1820 
Q 4919 2053 4653 2053 
z
M 4653 2450 
Q 5147 2450 5437 2106 
Q 5728 1763 5728 1178 
Q 5728 594 5436 251 
Q 5144 -91 4653 -91 
Q 4153 -91 3862 251 
Q 3572 594 3572 1178 
Q 3572 1766 3864 2108 
Q 4156 2450 4653 2450 
z
M 1428 4353 
Q 1159 4353 1004 4120 
Q 850 3888 850 3481 
Q 850 3069 1003 2837 
Q 1156 2606 1428 2606 
Q 1700 2606 1854 2837 
Q 2009 3069 2009 3481 
Q 2009 3884 1853 4118 
Q 1697 4353 1428 4353 
z
M 4250 4750 
L 4750 4750 
L 1831 -91 
L 1331 -91 
L 4250 4750 
z
M 1428 4750 
Q 1922 4750 2215 4408 
Q 2509 4066 2509 3481 
Q 2509 2891 2217 2550 
Q 1925 2209 1428 2209 
Q 931 2209 642 2551 
Q 353 2894 353 3481 
Q 353 4063 643 4406 
Q 934 4750 1428 4750 
z
" transform="scale(0.015625)"/>
    </defs>
    <use xlink:href="#DejaVuSans-54"/>
    <use xlink:href="#DejaVuSans-72" x="46.333984"/>
    <use xlink:href="#DejaVuSans-61" x="87.447266"/>
    <use xlink:href="#DejaVuSans-69" x="148.726562"/>
    <use xlink:href="#DejaVuSans-6e" x="176.509766"/>
    <use xlink:href="#DejaVuSans-69" x="239.888672"/>
    <use xlink:href="#DejaVuSans-6e" x="267.671875"/>
    <use xlink:href="#DejaVuSans-67" x="331.050781"/>
    <use xlink:href="#DejaVuSans-20" x="394.527344"/>
    <use xlink:href="#DejaVuSans-56" x="426.314453"/>
    <use xlink:href="#DejaVuSans-53" x="494.722656"/>
    <use xlink:href="#DejaVuSans-2e" x="558.199219"/>
    <use xlink:href="#DejaVuSans-20" x="589.986328"/>
    <use xlink:href="#DejaVuSans-56" x="621.773438"/>
    <use xlink:href="#DejaVuSans-61" x="682.431641"/>
    <use xlink:href="#DejaVuSans-6c" x="743.710938"/>
    <use xlink:href="#DejaVuSans-69" x="771.494141"/>
    <use xlink:href="#DejaVuSans-64" x="799.277344"/>
    <use xlink:href="#DejaVuSans-61" x="862.753906"/>
    <use xlink:href="#DejaVuSans-74" x="924.033203"/>
    <use xlink:href="#DejaVuSans-69" x="963.242188"/>
    <use xlink:href="#DejaVuSans-6f" x="991.025391"/>
    <use xlink:href="#DejaVuSans-6e" x="1052.207031"/>
    <use xlink:href="#DejaVuSans-20" x="1115.585938"/>
    <use xlink:href="#DejaVuSans-4c" x="1147.373047"/>
    <use xlink:href="#DejaVuSans-6f" x="1201.335938"/>
    <use xlink:href="#DejaVuSans-73" x="1262.517578"/>
    <use xlink:href="#DejaVuSans-73" x="1314.617188"/>
    <use xlink:href="#DejaVuSans-20" x="1366.716797"/>
    <use xlink:href="#DejaVuSans-2d" x="1398.503906"/>
    <use xlink:href="#DejaVuSans-20" x="1434.587891"/>
    <use xlink:href="#DejaVuSans-44" x="1466.375"/>
    <use xlink:href="#DejaVuSans-61" x="1543.376953"/>
    <use xlink:href="#DejaVuSans-74" x="1604.65625"/>
    <use xlink:href="#DejaVuSans-61" x="1643.865234"/>
    <use xlink:href="#DejaVuSans-73" x="1705.144531"/>
    <use xlink:href="#DejaVuSans-65" x="1757.244141"/>
    <use xlink:href="#DejaVuSans-74" x="1818.767578"/>
    <use xlink:href="#DejaVuSans-20" x="1857.976562"/>
    <use xlink:href="#DejaVuSans-53" x="1889.763672"/>
    <use xlink:href="#DejaVuSans-69" x="1953.240234"/>
    <use xlink:href="#DejaVuSans-7a" x="1981.023438"/>
    <use xlink:href="#DejaVuSans-65" x="2033.513672"/>
    <use xlink:href="#DejaVuSans-20" x="2095.037109"/>
    <use xlink:href="#DejaVuSans-3d" x="2126.824219"/>
    <use xlink:href="#DejaVuSans-20" x="2210.613281"/>
    <use xlink:href="#DejaVuSans-31" x="2242.400391"/>
    <use xlink:href="#DejaVuSans-30" x="2306.023438"/>
    <use xlink:href="#DejaVuSans-30" x="2369.646484"/>
    <use xlink:href="#DejaVuSans-2e" x="2433.269531"/>
    <use xlink:href="#DejaVuSans-30" x="2465.056641"/>
    <use xlink:href="#DejaVuSans-25" x="2528.679688"/>
   </g>
  </g>
 </g>
 <defs>
  <clipPath id="p6e26bf364c">
   <rect x="43.78125" y="37.296" width="279" height="202.464"/>
  </clipPath>
 </defs>
</svg>
