<?xml version="1.0" encoding="utf-8" standalone="no"?>
<!DOCTYPE svg PUBLIC "-//W3C//DTD SVG 1.1//EN"
  "http://www.w3.org/Graphics/SVG/1.1/DTD/svg11.dtd">
<svg xmlns:xlink="http://www.w3.org/1999/xlink" width="337.932812pt" height="277.31625pt" viewBox="0 0 337.932812 277.31625" xmlns="http://www.w3.org/2000/svg" version="1.1">
 <metadata>
  <rdf:RDF xmlns:dc="http://purl.org/dc/elements/1.1/" xmlns:cc="http://creativecommons.org/ns#" xmlns:rdf="http://www.w3.org/1999/02/22-rdf-syntax-ns#">
   <cc:Work>
    <dc:type rdf:resource="http://purl.org/dc/dcmitype/StillImage"/>
    <dc:date>2026-06-15T18:15:39.399356</dc:date>
    <dc:format>image/svg+xml</dc:format>
    <dc:creator>
     <cc:Agent>
      <dc:title>Matplotlib v3.8.4, https://matplotlib.org/</dc:title>
     </cc:Agent>
    </dc:creator>
   </cc:Work>
  </rdf:RDF>
 </metadata>
 <defs>
  <style type="text/css">*{stroke-linejoin: round; stroke-linecap: butt}</style>
 </defs>
 <g id="figure_1">
  <g id="patch_1">
   <path d="M 0 277.31625 
L 337.932812 277.31625 
L 337.932812 0 
L 0 0 
z
" style="fill: #ffffff"/>
  </g>
  <g id="axes_1">
   <g id="patch_2">
    <path d="M 43.78125 239.76 
L 322.78125 239.76 
L 322.78125 37.296 
L 43.78125 37.296 
z
" style="fill: #ffffff"/>
   </g>
   <g id="matplotlib.axis_1">
    <g id="xtick_1">
     <g id="line2d_1">
      <defs>
       <path id="m15166e2495" d="M 0 0 
L 0 3.5 
" style="stroke: #000000; stroke-width: 0.8"/>
      </defs>
      <g>
       <use xlink:href="#m15166e2495" x="43.78125" y="239.76" style="stroke: #000000; stroke-width: 0.8"/>
      </g>
     </g>
     <g id="text_1">
      <!-- 0.0 -->
      <g transform="translate(35.829688 254.358437) scale(0.1 -0.1)">
       <defs>
        <path id="DejaVuSans-30" d="M 2034 4250 
Q 1547 4250 1301 3770 
Q 1056 3291 1056 2328 
Q 1056 1369 1301 889 
Q 1547 409 2034 409 
Q 2525 409 2770 889 
Q 3016 1369 3016 2328 
Q 3016 3291 2770 3770 
Q 2525 4250 2034 4250 
z
M 2034 4750 
Q 2819 4750 3233 4129 
Q 3647 3509 3647 2328 
Q 3647 1150 3233 529 
Q 2819 -91 2034 -91 
Q 1250 -91 836 529 
Q 422 1150 422 2328 
Q 422 3509 836 4129 
Q 1250 4750 2034 4750 
z
" transform="scale(0.015625)"/>
        <path id="DejaVuSans-2e" d="M 684 794 
L 1344 794 
L 1344 0 
L 684 0 
L 684 794 
z
" transform="scale(0.015625)"/>
       </defs>
       <use xlink:href="#DejaVuSans-30"/>
       <use xlink:href="#DejaVuSans-2e" x="63.623047"/>
       <use xlink:href="#DejaVuSans-30" x="95.410156"/>
      </g>
     </g>
    </g>
    <g id="xtick_2">
     <g id="line2d_2">
      <g>
       <use xlink:href="#m15166e2495" x="99.58125" y="239.76" style="stroke: #000000; stroke-width: 0.8"/>
      </g>
     </g>
     <g id="text_2">
      <!-- 0.2 -->
      <g transform="translate(91.629688 254.358437) scale(0.1 -0.1)">
       <defs>
        <path id="DejaVuSans-32" d="M 1228 531 
L 3431 531 
L 3431 0 
L 469 0 
L 469 531 
Q 828 903 1448 1529 
Q 2069 2156 2228 2338 
Q 2531 2678 2651 2914 
Q 2772 3150 2772 3378 
Q 2772 3750 2511 3984 
Q 2250 4219 1831 4219 
Q 1534 4219 1204 4116 
Q 875 4013 500 3803 
L 500 4441 
Q 881 4594 1212 4672 
Q 1544 4750 1819 4750 
Q 2544 4750 2975 4387 
Q 3406 4025 3406 3419 
Q 3406 3131 3298 2873 
Q 3191 2616 2906 2266 
Q 2828 2175 2409 1742 
Q 1991 1309 1228 531 
z
" transform="scale(0.015625)"/>
       </defs>
       <use xlink:href="#DejaVuSans-30"/>
       <use xlink:href="#DejaVuSans-2e" x="63.623047"/>
       <use xlink:href="#DejaVuSans-32" x="95.410156"/>
      </g>
     </g>
    </g>
    <g id="xtick_3">
     <g id="line2d_3">
      <g>
       <use xlink:href="#m15166e2495" x="155.38125" y="239.76" style="stroke: #000000; stroke-width: 0.8"/>
      </g>
     </g>
     <g id="text_3">
      <!-- 0.4 -->
      <g transform="translate(147.429688 254.358437) scale(0.1 -0.1)">
       <defs>
        <path id="DejaVuSans-34" d="M 2419 4116 
L 825 1625 
L 2419 1625 
L 2419 4116 
z
M 2253 4666 
L 3047 4666 
L 3047 1625 
L 3713 1625 
L 3713 1100 
L 3047 1100 
L 3047 0 
L 2419 0 
L 2419 1100 
L 313 1100 
L 313 1709 
L 2253 4666 
z
" transform="scale(0.015625)"/>
       </defs>
       <use xlink:href="#DejaVuSans-30"/>
       <use xlink:href="#DejaVuSans-2e" x="63.623047"/>
       <use xlink:href="#DejaVuSans-34" x="95.410156"/>
      </g>
     </g>
    </g>
    <g id="xtick_4">
     <g id="line2d_4">
      <g>
       <use xlink:href="#m15166e2495" x="211.18125" y="239.76" style="stroke: #000000; stroke-width: 0.8"/>
      </g>
     </g>
     <g id="text_4">
      <!-- 0.6 -->
      <g transform="translate(203.229688 254.358437) scale(0.1 -0.1)">
       <defs>
        <path id="DejaVuSans-36" d="M 2113 2584 
Q 1688 2584 1439 2293 
Q 1191 2003 1191 1497 
Q 1191 994 1439 701 
Q 1688 409 2113 409 
Q 2538 409 2786 701 
Q 3034 994 3034 1497 
Q 3034 2003 2786 2293 
Q 2538 2584 2113 2584 
z
M 3366 4563 
L 3366 3988 
Q 3128 4100 2886 4159 
Q 2644 4219 2406 4219 
Q 1781 4219 1451 3797 
Q 1122 3375 1075 2522 
Q 1259 2794 1537 2939 
Q 1816 3084 2150 3084 
Q 2853 3084 3261 2657 
Q 3669 2231 3669 1497 
Q 3669 778 3244 343 
Q 2819 -91 2113 -91 
Q 1303 -91 875 529 
Q 447 1150 447 2328 
Q 447 3434 972 4092 
Q 1497 4750 2381 4750 
Q 2619 4750 2861 4703 
Q 3103 4656 3366 4563 
z
" transform="scale(0.015625)"/>
       </defs>
       <use xlink:href="#DejaVuSans-30"/>
       <use xlink:href="#DejaVuSans-2e" x="63.623047"/>
       <use xlink:href="#DejaVuSans-36" x="95.410156"/>
      </g>
     </g>
    </g>
    <g id="xtick_5">
     <g id="line2d_5">
      <g>
       <use xlink:href="#m15166e2495" x="266.98125" y="239.76" style="stroke: #000000; stroke-width: 0.8"/>
      </g>
     </g>
     <g id="text_5">
      <!-- 0.8 -->
      <g transform="translate(259.029688 254.358437) scale(0.1 -0.1)">
       <defs>
        <path id="DejaVuSans-38" d="M 2034 2216 
Q 1584 2216 1326 1975 
Q 1069 1734 1069 1313 
Q 1069 891 1326 650 
Q 1584 409 2034 409 
Q 2484 409 2743 651 
Q 3003 894 3003 1313 
Q 3003 1734 2745 1975 
Q 2488 2216 2034 2216 
z
M 1403 2484 
Q 997 2584 770 2862 
Q 544 3141 544 3541 
Q 544 4100 942 4425 
Q 1341 4750 2034 4750 
Q 2731 4750 3128 4425 
Q 3525 4100 3525 3541 
Q 3525 3141 3298 2862 
Q 3072 2584 2669 2484 
Q 3125 2378 3379 2068 
Q 3634 1759 3634 1313 
Q 3634 634 3220 271 
Q 2806 -91 2034 -91 
Q 1263 -91 848 271 
Q 434 634 434 1313 
Q 434 1759 690 2068 
Q 947 2378 1403 2484 
z
M 1172 3481 
Q 1172 3119 1398 2916 
Q 1625 2713 2034 2713 
Q 2441 2713 2670 2916 
Q 2900 3119 2900 3481 
Q 2900 3844 2670 4047 
Q 2441 4250 2034 4250 
Q 1625 4250 1398 4047 
Q 1172 3844 1172 3481 
z
" transform="scale(0.015625)"/>
       </defs>
       <use xlink:href="#DejaVuSans-30"/>
       <use xlink:href="#DejaVuSans-2e" x="63.623047"/>
       <use xlink:href="#DejaVuSans-38" x="95.410156"/>
      </g>
     </g>
    </g>
    <g id="xtick_6">
     <g id="line2d_6">
      <g>
       <use xlink:href="#m15166e2495" x="322.78125" y="239.76" style="stroke: #000000; stroke-width: 0.8"/>
      </g>
     </g>
     <g id="text_6">
      <!-- 1.0 -->
      <g transform="translate(314.829687 254.358437) scale(0.1 -0.1)">
       <defs>
        <path id="DejaVuSans-31" d="M 794 531 
L 1825 531 
L 1825 4091 
L 703 3866 
L 703 4441 
L 1819 4666 
L 2450 4666 
L 2450 531 
L 3481 531 
L 3481 0 
L 794 0 
L 794 531 
z
" transform="scale(0.015625)"/>
       </defs>
       <use xlink:href="#DejaVuSans-31"/>
       <use xlink:href="#DejaVuSans-2e" x="63.623047"/>
       <use xlink:href="#DejaVuSans-30" x="95.410156"/>
      </g>
     </g>
    </g>
    <g id="text_7">
     <!-- False Positive Rate -->
     <g transform="translate(136.814844 268.036562) scale(0.1 -0.1)">
      <defs>
       <path id="DejaVuSans-46" d="M 628 4666 
L 3309 4666 
L 3309 4134 
L 1259 4134 
L 1259 2759 
L 3109 2759 
L 3109 2228 
L 1259 2228 
L 1259 0 
L 628 0 
L 628 4666 
z
" transform="scale(0.015625)"/>
       <path id="DejaVuSans-61" d="M 2194 1759 
Q 1497 1759 1228 1600 
Q 959 1441 959 1056 
Q 959 750 1161 570 
Q 1363 391 1709 391 
Q 2188 391 2477 730 
Q 2766 1069 2766 1631 
L 2766 1759 
L 2194 1759 
z
M 3341 1997 
L 3341 0 
L 2766 0 
L 2766 531 
Q 2569 213 2275 61 
Q 1981 -91 1556 -91 
Q 1019 -91 701 211 
Q 384 513 384 1019 
Q 384 1609 779 1909 
Q 1175 2209 1959 2209 
L 2766 2209 
L 2766 2266 
Q 2766 2663 2505 2880 
Q 2244 3097 1772 3097 
Q 1472 3097 1187 3025 
Q 903 2953 641 2809 
L 641 3341 
Q 956 3463 1253 3523 
Q 1550 3584 1831 3584 
Q 2591 3584 2966 3190 
Q 3341 2797 3341 1997 
z
" transform="scale(0.015625)"/>
       <path id="DejaVuSans-6c" d="M 603 4863 
L 1178 4863 
L 1178 0 
L 603 0 
L 603 4863 
z
" transform="scale(0.015625)"/>
       <path id="DejaVuSans-73" d="M 2834 3397 
L 2834 2853 
Q 2591 2978 2328 3040 
Q 2066 3103 1784 3103 
Q 1356 3103 1142 2972 
Q 928 2841 928 2578 
Q 928 2378 1081 2264 
Q 1234 2150 1697 2047 
L 1894 2003 
Q 2506 1872 2764 1633 
Q 3022 1394 3022 966 
Q 3022 478 2636 193 
Q 2250 -91 1575 -91 
Q 1294 -91 989 -36 
Q 684 19 347 128 
L 347 722 
Q 666 556 975 473 
Q 1284 391 1588 391 
Q 1994 391 2212 530 
Q 2431 669 2431 922 
Q 2431 1156 2273 1281 
Q 2116 1406 1581 1522 
L 1381 1569 
Q 847 1681 609 1914 
Q 372 2147 372 2553 
Q 372 3047 722 3315 
Q 1072 3584 1716 3584 
Q 2034 3584 2315 3537 
Q 2597 3491 2834 3397 
z
" transform="scale(0.015625)"/>
       <path id="DejaVuSans-65" d="M 3597 1894 
L 3597 1613 
L 953 1613 
Q 991 1019 1311 708 
Q 1631 397 2203 397 
Q 2534 397 2845 478 
Q 3156 559 3463 722 
L 3463 178 
Q 3153 47 2828 -22 
Q 2503 -91 2169 -91 
Q 1331 -91 842 396 
Q 353 884 353 1716 
Q 353 2575 817 3079 
Q 1281 3584 2069 3584 
Q 2775 3584 3186 3129 
Q 3597 2675 3597 1894 
z
M 3022 2063 
Q 3016 2534 2758 2815 
Q 2500 3097 2075 3097 
Q 1594 3097 1305 2825 
Q 1016 2553 972 2059 
L 3022 2063 
z
" transform="scale(0.015625)"/>
       <path id="DejaVuSans-20" transform="scale(0.015625)"/>
       <path id="DejaVuSans-50" d="M 1259 4147 
L 1259 2394 
L 2053 2394 
Q 2494 2394 2734 2622 
Q 2975 2850 2975 3272 
Q 2975 3691 2734 3919 
Q 2494 4147 2053 4147 
L 1259 4147 
z
M 628 4666 
L 2053 4666 
Q 2838 4666 3239 4311 
Q 3641 3956 3641 3272 
Q 3641 2581 3239 2228 
Q 2838 1875 2053 1875 
L 1259 1875 
L 1259 0 
L 628 0 
L 628 4666 
z
" transform="scale(0.015625)"/>
       <path id="DejaVuSans-6f" d="M 1959 3097 
Q 1497 3097 1228 2736 
Q 959 2375 959 1747 
Q 959 1119 1226 758 
Q 1494 397 1959 397 
Q 2419 397 2687 759 
Q 2956 1122 2956 1747 
Q 2956 2369 2687 2733 
Q 2419 3097 1959 3097 
z
M 1959 3584 
Q 2709 3584 3137 3096 
Q 3566 2609 3566 1747 
Q 3566 888 3137 398 
Q 2709 -91 1959 -91 
Q 1206 -91 779 398 
Q 353 888 353 1747 
Q 353 2609 779 3096 
Q 1206 3584 1959 3584 
z
" transform="scale(0.015625)"/>
       <path id="DejaVuSans-69" d="M 603 3500 
L 1178 3500 
L 1178 0 
L 603 0 
L 603 3500 
z
M 603 4863 
L 1178 4863 
L 1178 4134 
L 603 4134 
L 603 4863 
z
" transform="scale(0.015625)"/>
       <path id="DejaVuSans-74" d="M 1172 4494 
L 1172 3500 
L 2356 3500 
L 2356 3053 
L 1172 3053 
L 1172 1153 
Q 1172 725 1289 603 
Q 1406 481 1766 481 
L 2356 481 
L 2356 0 
L 1766 0 
Q 1100 0 847 248 
Q 594 497 594 1153 
L 594 3053 
L 172 3053 
L 172 3500 
L 594 3500 
L 594 4494 
L 1172 4494 
z
" transform="scale(0.015625)"/>
       <path id="DejaVuSans-76" d="M 191 3500 
L 800 3500 
L 1894 563 
L 2988 3500 
L 3597 3500 
L 2284 0 
L 1503 0 
L 191 3500 
z
" transform="scale(0.015625)"/>
       <path id="DejaVuSans-52" d="M 2841 2188 
Q 3044 2119 3236 1894 
Q 3428 1669 3622 1275 
L 4263 0 
L 3584 0 
L 2988 1197 
Q 2756 1666 2539 1819 
Q 2322 1972 1947 1972 
L 1259 1972 
L 1259 0 
L 628 0 
L 628 4666 
L 2053 4666 
Q 2853 4666 3247 4331 
Q 3641 3997 3641 3322 
Q 3641 2881 3436 2590 
Q 3231 2300 2841 2188 
z
M 1259 4147 
L 1259 2491 
L 2053 2491 
Q 2509 2491 2742 2702 
Q 2975 2913 2975 3322 
Q 2975 3731 2742 3939 
Q 2509 4147 2053 4147 
L 1259 4147 
z
" transform="scale(0.015625)"/>
      </defs>
      <use xlink:href="#DejaVuSans-46"/>
      <use xlink:href="#DejaVuSans-61" x="48.394531"/>
      <use xlink:href="#DejaVuSans-6c" x="109.673828"/>
      <use xlink:href="#DejaVuSans-73" x="137.457031"/>
      <use xlink:href="#DejaVuSans-65" x="189.556641"/>
      <use xlink:href="#DejaVuSans-20" x="251.080078"/>
      <use xlink:href="#DejaVuSans-50" x="282.867188"/>
      <use xlink:href="#DejaVuSans-6f" x="339.544922"/>
      <use xlink:href="#DejaVuSans-73" x="400.726562"/>
      <use xlink:href="#DejaVuSans-69" x="452.826172"/>
      <use xlink:href="#DejaVuSans-74" x="480.609375"/>
      <use xlink:href="#DejaVuSans-69" x="519.818359"/>
      <use xlink:href="#DejaVuSans-76" x="547.601562"/>
      <use xlink:href="#DejaVuSans-65" x="606.78125"/>
      <use xlink:href="#DejaVuSans-20" x="668.304688"/>
      <use xlink:href="#DejaVuSans-52" x="700.091797"/>
      <use xlink:href="#DejaVuSans-61" x="767.324219"/>
      <use xlink:href="#DejaVuSans-74" x="828.603516"/>
      <use xlink:href="#DejaVuSans-65" x="867.8125"/>
     </g>
    </g>
   </g>
   <g id="matplotlib.axis_2">
    <g id="ytick_1">
     <g id="line2d_7">
      <defs>
       <path id="m7d87966abd" d="M 0 0 
L -3.5 0 
" style="stroke: #000000; stroke-width: 0.8"/>
      </defs>
      <g>
       <use xlink:href="#m7d87966abd" x="43.78125" y="239.76" style="stroke: #000000; stroke-width: 0.8"/>
      </g>
     </g>
     <g id="text_8">
      <!-- 0.0 -->
      <g transform="translate(20.878125 243.559219) scale(0.1 -0.1)">
       <use xlink:href="#DejaVuSans-30"/>
       <use xlink:href="#DejaVuSans-2e" x="63.623047"/>
       <use xlink:href="#DejaVuSans-30" x="95.410156"/>
      </g>
     </g>
    </g>
    <g id="ytick_2">
     <g id="line2d_8">
      <g>
       <use xlink:href="#m7d87966abd" x="43.78125" y="201.195429" style="stroke: #000000; stroke-width: 0.8"/>
      </g>
     </g>
     <g id="text_9">
      <!-- 0.2 -->
      <g transform="translate(20.878125 204.994647) scale(0.1 -0.1)">
       <use xlink:href="#DejaVuSans-30"/>
       <use xlink:href="#DejaVuSans-2e" x="63.623047"/>
       <use xlink:href="#DejaVuSans-32" x="95.410156"/>
      </g>
     </g>
    </g>
    <g id="ytick_3">
     <g id="line2d_9">
      <g>
       <use xlink:href="#m7d87966abd" x="43.78125" y="162.630857" style="stroke: #000000; stroke-width: 0.8"/>
      </g>
     </g>
     <g id="text_10">
      <!-- 0.4 -->
      <g transform="translate(20.878125 166.430076) scale(0.1 -0.1)">
       <use xlink:href="#DejaVuSans-30"/>
       <use xlink:href="#DejaVuSans-2e" x="63.623047"/>
       <use xlink:href="#DejaVuSans-34" x="95.410156"/>
      </g>
     </g>
    </g>
    <g id="ytick_4">
     <g id="line2d_10">
      <g>
       <use xlink:href="#m7d87966abd" x="43.78125" y="124.066286" style="stroke: #000000; stroke-width: 0.8"/>
      </g>
     </g>
     <g id="text_11">
      <!-- 0.6 -->
      <g transform="translate(20.878125 127.865504) scale(0.1 -0.1)">
       <use xlink:href="#DejaVuSans-30"/>
       <use xlink:href="#DejaVuSans-2e" x="63.623047"/>
       <use xlink:href="#DejaVuSans-36" x="95.410156"/>
      </g>
     </g>
    </g>
    <g id="ytick_5">
     <g id="line2d_11">
      <g>
       <use xlink:href="#m7d87966abd" x="43.78125" y="85.501714" style="stroke: #000000; stroke-width: 0.8"/>
      </g>
     </g>
     <g id="text_12">
      <!-- 0.8 -->
      <g transform="translate(20.878125 89.300933) scale(0.1 -0.1)">
       <use xlink:href="#DejaVuSans-30"/>
       <use xlink:href="#DejaVuSans-2e" x="63.623047"/>
       <use xlink:href="#DejaVuSans-38" x="95.410156"/>
      </g>
     </g>
    </g>
    <g id="ytick_6">
     <g id="line2d_12">
      <g>
       <use xlink:href="#m7d87966abd" x="43.78125" y="46.937143" style="stroke: #000000; stroke-width: 0.8"/>
      </g>
     </g>
     <g id="text_13">
      <!-- 1.0 -->
      <g transform="translate(20.878125 50.736362) scale(0.1 -0.1)">
       <use xlink:href="#DejaVuSans-31"/>
       <use xlink:href="#DejaVuSans-2e" x="63.623047"/>
       <use xlink:href="#DejaVuSans-30" x="95.410156"/>
      </g>
     </g>
    </g>
    <g id="text_14">
     <!-- True Positive Rate -->
     <g transform="translate(14.798438 183.057687) rotate(-90) scale(0.1 -0.1)">
      <defs>
       <path id="DejaVuSans-54" d="M -19 4666 
L 3928 4666 
L 3928 4134 
L 2272 4134 
L 2272 0 
L 1638 0 
L 1638 4134 
L -19 4134 
L -19 4666 
z
" transform="scale(0.015625)"/>
       <path id="DejaVuSans-72" d="M 2631 2963 
Q 2534 3019 2420 3045 
Q 2306 3072 2169 3072 
Q 1681 3072 1420 2755 
Q 1159 2438 1159 1844 
L 1159 0 
L 581 0 
L 581 3500 
L 1159 3500 
L 1159 2956 
Q 1341 3275 1631 3429 
Q 1922 3584 2338 3584 
Q 2397 3584 2469 3576 
Q 2541 3569 2628 3553 
L 2631 2963 
z
" transform="scale(0.015625)"/>
       <path id="DejaVuSans-75" d="M 544 1381 
L 544 3500 
L 1119 3500 
L 1119 1403 
Q 1119 906 1312 657 
Q 1506 409 1894 409 
Q 2359 409 2629 706 
Q 2900 1003 2900 1516 
L 2900 3500 
L 3475 3500 
L 3475 0 
L 2900 0 
L 2900 538 
Q 2691 219 2414 64 
Q 2138 -91 1772 -91 
Q 1169 -91 856 284 
Q 544 659 544 1381 
z
M 1991 3584 
L 1991 3584 
z
" transform="scale(0.015625)"/>
      </defs>
      <use xlink:href="#DejaVuSans-54"/>
      <use xlink:href="#DejaVuSans-72" x="46.333984"/>
      <use xlink:href="#DejaVuSans-75" x="87.447266"/>
      <use xlink:href="#DejaVuSans-65" x="150.826172"/>
      <use xlink:href="#DejaVuSans-20" x="212.349609"/>
      <use xlink:href="#DejaVuSans-50" x="244.136719"/>
      <use xlink:href="#DejaVuSans-6f" x="300.814453"/>
      <use xlink:href="#DejaVuSans-73" x="361.996094"/>
      <use xlink:href="#DejaVuSans-69" x="414.095703"/>
      <use xlink:href="#DejaVuSans-74" x="441.878906"/>
      <use xlink:href="#DejaVuSans-69" x="481.087891"/>
      <use xlink:href="#DejaVuSans-76" x="508.871094"/>
      <use xlink:href="#DejaVuSans-65" x="568.050781"/>
      <use xlink:href="#DejaVuSans-20" x="629.574219"/>
      <use xlink:href="#DejaVuSans-52" x="661.361328"/>
      <use xlink:href="#DejaVuSans-61" x="728.59375"/>
      <use xlink:href="#DejaVuSans-74" x="789.873047"/>
      <use xlink:href="#DejaVuSans-65" x="829.082031"/>
     </g>
    </g>
   </g>
   <g id="line2d_13">
    <path d="M 43.78125 239.76 
L 43.78125 239.504267 
L 44.50971 239.504267 
L 44.50971 238.481334 
L 45.966629 238.481334 
L 45.966629 238.225601 
L 46.695088 238.225601 
L 46.695088 237.458401 
L 47.059318 237.458401 
L 47.059318 237.202668 
L 47.787777 237.202668 
L 47.787777 236.691201 
L 48.152007 236.691201 
L 48.152007 236.179735 
L 48.880467 236.179735 
L 48.880467 235.924002 
L 49.244696 235.924002 
L 49.244696 235.668268 
L 49.973156 235.668268 
L 49.973156 234.901069 
L 50.701616 234.901069 
L 50.701616 234.645335 
L 51.430075 234.645335 
L 51.430075 234.389602 
L 51.794305 234.389602 
L 51.794305 233.878136 
L 52.886994 233.878136 
L 52.886994 233.622402 
L 53.251224 233.622402 
L 53.251224 233.366669 
L 54.708143 233.366669 
L 54.708143 232.855203 
L 55.800832 232.855203 
L 55.800832 232.599469 
L 57.257751 232.599469 
L 57.257751 232.343736 
L 57.621981 232.343736 
L 57.621981 232.088003 
L 57.986211 232.088003 
L 57.986211 231.83227 
L 58.71467 231.83227 
L 58.71467 231.576537 
L 60.535819 231.576537 
L 60.535819 231.320803 
L 61.264279 231.320803 
L 61.264279 231.06507 
L 61.628508 231.06507 
L 61.628508 230.809337 
L 62.721198 230.809337 
L 62.721198 230.553604 
L 64.542347 230.553604 
L 64.542347 230.29787 
L 65.270806 230.29787 
L 65.270806 230.042137 
L 65.635036 230.042137 
L 65.635036 229.786404 
L 66.727725 229.786404 
L 66.727725 229.530671 
L 68.913104 229.530671 
L 68.913104 229.019204 
L 69.641563 229.019204 
L 69.641563 228.507738 
L 71.098482 228.507738 
L 71.098482 228.252005 
L 71.826942 228.252005 
L 71.826942 227.996271 
L 72.191172 227.996271 
L 72.191172 227.740538 
L 72.555401 227.740538 
L 72.555401 227.484805 
L 73.283861 227.484805 
L 73.283861 227.229072 
L 76.561929 227.229072 
L 76.561929 226.461872 
L 77.290388 226.461872 
L 77.290388 225.694672 
L 77.654618 225.694672 
L 77.654618 224.160273 
L 79.111537 224.160273 
L 79.111537 223.90454 
L 79.475767 223.90454 
L 79.475767 223.13734 
L 79.839997 223.13734 
L 79.839997 222.881607 
L 80.204227 222.881607 
L 80.204227 222.625873 
L 81.296916 222.625873 
L 81.296916 222.37014 
L 81.661146 222.37014 
L 82.025375 222.114407 
L 82.025375 221.858674 
L 82.389605 221.858674 
L 82.389605 221.347207 
L 82.753835 221.347207 
L 82.753835 220.580008 
L 83.118065 220.580008 
L 83.118065 220.068541 
L 83.482294 220.068541 
L 83.482294 219.557075 
L 84.210754 219.557075 
L 84.210754 219.045608 
L 85.303443 219.045608 
L 85.303443 218.789875 
L 85.667673 218.789875 
L 85.667673 218.534142 
L 86.396133 218.534142 
L 86.396133 218.278408 
L 86.760362 218.278408 
L 86.760362 215.976809 
L 87.124592 215.976809 
L 87.124592 215.721076 
L 87.853052 215.721076 
L 87.853052 215.20961 
L 88.217281 215.20961 
L 88.217281 214.953876 
L 89.309971 214.953876 
L 89.309971 213.67521 
L 90.03843 213.67521 
L 90.03843 213.419477 
L 90.76689 213.419477 
L 90.76689 212.652277 
L 91.131119 212.652277 
L 91.131119 212.140811 
L 91.859579 212.140811 
L 91.859579 211.885078 
L 92.952268 211.885078 
L 92.952268 211.629344 
L 93.316498 211.629344 
L 93.316498 211.117878 
L 94.044958 211.117878 
L 94.044958 210.862145 
L 94.773417 210.862145 
L 94.773417 210.606412 
L 96.594566 210.606412 
L 96.594566 209.839212 
L 97.323025 209.839212 
L 97.323025 209.583479 
L 98.051485 209.583479 
L 98.051485 209.072012 
L 98.415715 209.072012 
L 98.415715 207.793346 
L 98.779945 207.793346 
L 98.779945 207.537613 
L 99.144174 207.537613 
L 99.144174 207.281879 
L 99.872634 207.281879 
L 99.872634 207.026146 
L 101.329553 207.026146 
L 101.329553 206.003213 
L 101.693783 206.003213 
L 101.693783 205.74748 
L 102.422242 205.74748 
L 102.422242 205.236014 
L 103.879161 205.236014 
L 103.879161 204.98028 
L 104.243391 204.98028 
L 104.243391 203.957347 
L 105.33608 203.957347 
L 105.33608 203.190148 
L 105.70031 203.190148 
L 105.70031 202.934415 
L 106.792999 202.934415 
L 106.792999 202.422948 
L 107.157229 202.422948 
L 107.157229 201.400015 
L 107.521459 201.400015 
L 107.521459 200.377082 
L 110.435297 200.377082 
L 110.435297 199.354149 
L 111.892216 199.354149 
L 111.892216 199.098416 
L 112.256446 199.098416 
L 112.256446 198.842683 
L 113.349135 198.842683 
L 113.349135 198.58695 
L 113.713365 198.58695 
L 113.713365 198.331216 
L 114.077595 198.331216 
L 114.077595 198.075483 
L 114.441824 198.075483 
L 114.441824 197.81975 
L 115.534514 197.81975 
L 115.534514 197.308283 
L 115.898743 197.308283 
L 115.898743 196.796817 
L 116.262973 196.796817 
L 116.262973 196.541084 
L 116.991433 196.541084 
L 116.991433 196.285351 
L 117.355663 196.285351 
L 117.355663 196.029617 
L 118.084122 196.029617 
L 118.084122 195.773884 
L 120.63373 195.773884 
L 120.63373 194.750951 
L 122.090649 194.750951 
L 122.090649 194.495218 
L 122.819109 194.495218 
L 122.819109 193.983751 
L 123.547569 193.983751 
L 123.547569 193.728018 
L 123.911798 193.472285 
L 125.732947 193.472285 
L 125.732947 193.216552 
L 126.097177 193.216552 
L 126.097177 192.960818 
L 126.461407 192.960818 
L 126.461407 192.193619 
L 127.554096 192.193619 
L 127.554096 191.682152 
L 127.918326 191.682152 
L 127.918326 191.426419 
L 129.739475 191.426419 
L 129.739475 190.914953 
L 130.103704 190.914953 
L 130.103704 190.659219 
L 130.832164 190.659219 
L 130.832164 190.403486 
L 131.196394 190.403486 
L 131.196394 189.89202 
L 131.560623 189.89202 
L 131.560623 189.636286 
L 131.924853 189.636286 
L 131.924853 188.869087 
L 132.289083 188.869087 
L 132.289083 188.101887 
L 132.653313 188.101887 
L 132.653313 187.590421 
L 133.017542 187.590421 
L 133.017542 187.334687 
L 134.474461 187.334687 
L 134.474461 187.078954 
L 135.567151 187.078954 
L 135.567151 186.823221 
L 135.931381 186.823221 
L 135.931381 186.056021 
L 136.65984 186.056021 
L 136.65984 185.800288 
L 137.02407 185.800288 
L 137.02407 185.288822 
L 137.3883 185.288822 
L 137.3883 185.033088 
L 139.209448 185.033088 
L 139.209448 184.777355 
L 140.302138 184.777355 
L 140.302138 184.521622 
L 141.030597 184.521622 
L 141.030597 184.010155 
L 141.394827 184.010155 
L 141.394827 183.754422 
L 141.759057 183.754422 
L 141.759057 183.498689 
L 142.487516 183.498689 
L 142.487516 182.987222 
L 143.580206 182.987222 
L 143.580206 182.731489 
L 143.944435 182.731489 
L 143.944435 181.96429 
L 144.308665 181.96429 
L 144.308665 181.708556 
L 144.672895 181.708556 
L 144.672895 181.19709 
L 145.037125 181.19709 
L 145.037125 180.685623 
L 145.401354 180.685623 
L 145.401354 180.42989 
L 145.765584 180.42989 
L 145.765584 179.918424 
L 146.129814 179.918424 
L 146.129814 178.895491 
L 146.494044 178.895491 
L 146.494044 178.128291 
L 146.858273 178.128291 
L 146.858273 177.616825 
L 147.222503 177.616825 
L 147.222503 177.361091 
L 148.315193 177.361091 
L 148.315193 176.849625 
L 148.679422 176.849625 
L 148.679422 175.570959 
L 149.407882 175.570959 
L 149.407882 175.315225 
L 150.864801 175.315225 
L 150.864801 174.036559 
L 151.229031 174.036559 
L 151.229031 173.780826 
L 151.59326 173.780826 
L 151.95749 173.525093 
L 151.95749 173.26936 
L 152.68595 173.26936 
L 152.68595 173.013626 
L 153.05018 173.013626 
L 153.05018 171.73496 
L 153.414409 171.73496 
L 153.414409 171.479227 
L 154.507099 171.479227 
L 154.507099 171.223494 
L 155.599788 171.223494 
L 155.599788 170.200561 
L 156.328247 170.200561 
L 156.328247 169.944828 
L 157.420937 169.944828 
L 157.420937 169.689094 
L 157.785166 169.689094 
L 157.785166 169.177628 
L 158.513626 169.177628 
L 158.513626 168.921895 
L 158.877856 168.921895 
L 158.877856 168.666161 
L 160.334775 168.666161 
L 160.334775 167.131762 
L 160.699005 167.131762 
L 160.699005 166.876029 
L 161.427464 166.876029 
L 161.427464 165.597363 
L 162.155924 165.597363 
L 162.155924 165.341629 
L 162.520153 165.341629 
L 162.520153 165.085896 
L 162.884383 165.085896 
L 162.884383 164.830163 
L 163.612843 164.830163 
L 163.612843 164.57443 
L 163.977072 164.57443 
L 163.977072 164.062963 
L 164.341302 164.062963 
L 164.341302 163.80723 
L 165.069762 163.80723 
L 165.069762 163.551497 
L 165.433992 163.551497 
L 165.433992 163.295764 
L 166.526681 163.295764 
L 166.526681 162.528564 
L 167.9836 162.528564 
L 167.9836 162.272831 
L 168.34783 162.272831 
L 168.34783 162.017097 
L 168.712059 162.017097 
L 168.712059 161.761364 
L 170.533208 161.761364 
L 170.533208 161.505631 
L 171.261668 161.505631 
L 171.261668 161.249898 
L 171.625898 161.249898 
L 171.625898 160.994164 
L 172.354357 160.994164 
L 172.354357 160.738431 
L 173.447046 160.738431 
L 173.447046 160.482698 
L 173.811276 160.482698 
L 173.811276 159.204032 
L 175.268195 159.204032 
L 175.268195 157.925366 
L 175.996655 157.925366 
L 176.360884 157.669632 
L 176.725114 157.669632 
L 176.725114 157.413899 
L 177.453574 157.413899 
L 177.453574 157.158166 
L 178.546263 157.158166 
L 178.546263 156.902433 
L 178.910493 156.902433 
L 178.910493 156.6467 
L 179.638952 156.6467 
L 179.638952 155.623767 
L 180.003182 155.368033 
L 180.003182 155.1123 
L 180.731642 155.1123 
L 180.731642 153.577901 
L 182.188561 153.577901 
L 182.188561 152.299235 
L 182.91702 152.299235 
L 182.91702 152.043501 
L 183.64548 152.043501 
L 183.64548 151.532035 
L 184.738169 151.532035 
L 184.738169 151.276302 
L 185.102399 151.276302 
L 185.102399 150.509102 
L 185.830858 150.509102 
L 185.830858 150.253369 
L 187.652007 150.253369 
L 187.652007 149.486169 
L 188.016237 149.486169 
L 188.016237 149.230436 
L 188.380467 149.230436 
L 188.380467 148.718969 
L 188.744696 148.718969 
L 188.744696 147.95177 
L 189.108926 147.95177 
L 189.108926 147.696036 
L 191.294305 147.696036 
L 191.294305 147.440303 
L 192.386994 147.440303 
L 192.386994 147.18457 
L 192.751224 147.18457 
L 192.751224 146.928837 
L 193.843913 146.928837 
L 193.843913 146.41737 
L 194.208143 146.41737 
L 194.208143 146.161637 
L 194.572373 146.161637 
L 194.572373 145.650171 
L 195.665062 145.650171 
L 195.665062 144.627238 
L 196.757751 144.627238 
L 196.757751 144.371504 
L 197.850441 144.371504 
L 197.850441 143.604305 
L 198.21467 143.604305 
L 198.21467 142.837105 
L 199.30736 142.837105 
L 199.30736 142.325638 
L 200.035819 142.325638 
L 200.035819 140.791239 
L 200.764279 140.791239 
L 200.764279 140.535506 
L 201.128508 140.535506 
L 201.128508 140.024039 
L 201.492738 140.024039 
L 201.492738 139.768306 
L 202.949657 139.768306 
L 202.949657 139.001106 
L 204.042347 139.001106 
L 204.042347 138.745373 
L 205.135036 138.745373 
L 205.135036 138.48964 
L 206.227725 138.48964 
L 206.227725 137.978174 
L 206.591955 137.978174 
L 206.591955 137.72244 
L 206.956185 137.72244 
L 206.956185 137.210974 
L 208.048874 137.210974 
L 208.048874 136.955241 
L 209.141563 136.955241 
L 209.141563 136.699507 
L 209.870023 136.699507 
L 209.870023 136.188041 
L 210.598482 136.188041 
L 210.598482 135.932308 
L 211.691172 135.932308 
L 211.691172 135.420841 
L 212.055401 135.420841 
L 212.055401 134.653642 
L 212.419631 134.653642 
L 212.419631 133.886442 
L 214.24078 133.886442 
L 214.24078 133.630709 
L 214.60501 133.630709 
L 214.60501 133.374975 
L 214.96924 133.374975 
L 214.96924 132.607776 
L 215.333469 132.607776 
L 215.333469 132.352042 
L 216.061929 132.352042 
L 216.061929 131.840576 
L 216.426159 131.840576 
L 216.426159 131.584843 
L 217.518848 131.584843 
L 217.518848 131.32911 
L 218.247307 131.32911 
L 218.247307 129.283244 
L 218.975767 129.283244 
L 218.975767 129.02751 
L 219.339997 129.02751 
L 219.339997 128.260311 
L 220.068456 128.260311 
L 220.068456 127.237378 
L 220.796916 127.237378 
L 220.796916 126.725911 
L 221.161146 126.725911 
L 221.161146 126.470178 
L 221.889605 126.470178 
L 221.889605 126.214445 
L 222.253835 126.214445 
L 222.253835 125.958712 
L 225.896133 125.958712 
L 225.896133 125.447245 
L 226.624592 125.447245 
L 226.624592 123.657113 
L 226.988822 123.657113 
L 226.988822 123.145646 
L 228.081511 123.145646 
L 228.081511 122.889913 
L 228.445741 122.889913 
L 228.445741 122.378446 
L 229.1742 122.378446 
L 229.1742 122.122713 
L 230.995349 122.122713 
L 230.995349 120.844047 
L 231.723809 120.844047 
L 231.723809 119.821114 
L 234.637647 119.821114 
L 234.637647 118.542448 
L 235.001877 118.542448 
L 235.001877 118.030981 
L 235.730336 118.030981 
L 235.730336 117.008049 
L 236.094566 117.008049 
L 236.094566 115.729382 
L 236.458796 115.729382 
L 236.458796 115.217916 
L 237.551485 115.217916 
L 237.551485 114.706449 
L 238.644174 114.706449 
L 238.644174 113.683516 
L 239.008404 113.683516 
L 239.008404 113.427783 
L 240.465323 113.427783 
L 240.465323 113.17205 
L 240.829553 113.17205 
L 240.829553 112.660584 
L 241.193783 112.660584 
L 241.193783 112.149117 
L 241.922242 112.149117 
L 241.922242 111.637651 
L 242.650702 111.637651 
L 242.650702 111.381917 
L 243.743391 111.381917 
L 243.743391 111.126184 
L 244.107621 111.126184 
L 244.107621 110.614718 
L 244.83608 110.614718 
L 244.83608 110.103251 
L 245.20031 110.103251 
L 245.20031 109.847518 
L 245.92877 109.847518 
L 245.92877 109.591785 
L 246.657229 109.591785 
L 246.657229 109.080318 
L 247.021459 109.080318 
L 247.021459 108.568852 
L 247.385689 108.568852 
L 247.385689 108.313119 
L 247.749918 108.313119 
L 247.749918 108.057385 
L 248.114148 108.057385 
L 248.114148 107.545919 
L 248.842608 107.545919 
L 248.842608 106.522986 
L 249.571067 106.522986 
L 249.571067 106.01152 
L 250.299527 106.01152 
L 250.299527 105.755786 
L 250.663757 105.755786 
L 250.663757 105.500053 
L 251.027986 105.500053 
L 251.027986 105.24432 
L 251.392216 105.24432 
L 251.392216 103.70992 
L 252.849135 103.70992 
L 252.849135 102.942721 
L 253.213365 102.942721 
L 253.213365 102.686987 
L 253.577595 102.686987 
L 253.577595 102.431254 
L 253.941824 102.431254 
L 253.941824 101.919788 
L 255.034514 101.919788 
L 255.034514 101.664055 
L 255.398743 101.664055 
L 255.398743 101.408321 
L 256.127203 101.408321 
L 256.127203 101.152588 
L 256.491433 101.152588 
L 256.491433 100.641122 
L 257.584122 100.641122 
L 257.584122 99.106722 
L 257.948352 99.106722 
L 257.948352 98.595256 
L 258.676811 98.595256 
L 258.676811 98.339523 
L 259.041041 98.339523 
L 259.041041 98.083789 
L 259.405271 98.083789 
L 259.405271 97.572323 
L 259.769501 97.572323 
L 259.769501 97.31659 
L 261.22642 97.31659 
L 261.22642 96.293657 
L 261.590649 96.293657 
L 261.590649 95.78219 
L 261.954879 95.78219 
L 261.954879 95.270724 
L 262.683339 95.270724 
L 262.683339 95.014991 
L 263.411798 95.014991 
L 263.411798 94.759257 
L 264.140258 94.759257 
L 264.140258 94.503524 
L 264.504488 94.503524 
L 264.504488 93.480591 
L 265.232947 93.480591 
L 265.232947 92.969125 
L 265.961407 92.969125 
L 265.961407 92.201925 
L 267.054096 92.201925 
L 267.054096 91.946192 
L 267.418326 91.946192 
L 267.782555 91.690459 
L 267.782555 90.667526 
L 268.146785 90.667526 
L 268.146785 90.156059 
L 268.511015 90.156059 
L 268.511015 89.644593 
L 269.239475 89.644593 
L 269.239475 88.877393 
L 269.603704 88.877393 
L 269.603704 88.62166 
L 269.967934 88.62166 
L 269.967934 88.365926 
L 271.060623 88.365926 
L 271.060623 88.110193 
L 271.789083 88.110193 
L 271.789083 87.85446 
L 272.517542 87.85446 
L 272.517542 87.598727 
L 273.610232 87.598727 
L 273.610232 87.08726 
L 274.338691 87.08726 
L 274.338691 86.320061 
L 274.702921 86.320061 
L 274.702921 86.064327 
L 275.79561 86.064327 
L 275.79561 85.808594 
L 276.52407 85.808594 
L 276.52407 85.297128 
L 277.252529 85.297128 
L 277.252529 84.274195 
L 277.616759 84.274195 
L 277.616759 84.018462 
L 277.980989 84.018462 
L 278.345219 83.762728 
L 278.345219 83.251262 
L 278.709448 83.251262 
L 278.709448 82.995529 
L 279.073678 82.995529 
L 279.073678 82.484062 
L 279.802138 82.484062 
L 279.802138 82.228329 
L 280.166367 82.228329 
L 280.166367 81.972596 
L 280.894827 81.972596 
L 280.894827 81.716862 
L 281.623287 81.716862 
L 281.623287 80.69393 
L 281.987516 80.69393 
L 281.987516 80.438196 
L 282.351746 80.438196 
L 282.351746 80.182463 
L 283.080206 80.182463 
L 283.080206 79.92673 
L 284.537125 79.92673 
L 284.537125 79.15953 
L 285.994044 79.15953 
L 285.994044 78.903797 
L 286.358273 78.903797 
L 286.358273 78.136597 
L 286.722503 78.136597 
L 286.722503 77.369397 
L 287.086733 77.369397 
L 287.086733 76.346465 
L 287.450963 76.346465 
L 287.450963 76.090731 
L 287.815193 76.090731 
L 287.815193 75.834998 
L 289.272112 75.834998 
L 289.272112 75.579265 
L 289.636341 75.323532 
L 290.000571 75.323532 
L 290.000571 74.812065 
L 290.364801 74.812065 
L 290.364801 74.556332 
L 291.45749 74.556332 
L 291.45749 72.766199 
L 292.914409 72.766199 
L 292.914409 72.254733 
L 293.642869 72.254733 
L 293.642869 71.743266 
L 294.371328 71.743266 
L 294.371328 71.2318 
L 295.464018 71.2318 
L 295.464018 70.720333 
L 295.828247 70.720333 
L 295.828247 70.4646 
L 296.556707 70.4646 
L 296.556707 69.953134 
L 296.920937 69.953134 
L 296.920937 68.930201 
L 297.649396 68.930201 
L 297.649396 68.674468 
L 298.013626 68.674468 
L 298.013626 68.418734 
L 298.742086 68.418734 
L 298.742086 68.163001 
L 299.834775 68.163001 
L 299.834775 67.907268 
L 300.563234 67.907268 
L 300.563234 67.395801 
L 300.927464 67.395801 
L 300.927464 67.140068 
L 301.291694 66.884335 
L 301.655924 66.884335 
L 301.655924 65.605669 
L 302.020153 65.605669 
L 302.020153 65.094202 
L 302.384383 65.094202 
L 302.384383 64.327003 
L 302.748613 64.327003 
L 302.748613 63.559803 
L 303.112843 63.559803 
L 303.112843 63.048336 
L 303.477072 63.048336 
L 303.477072 62.281137 
L 303.841302 62.281137 
L 303.841302 61.258204 
L 305.298221 61.258204 
L 305.298221 60.746737 
L 305.662451 60.746737 
L 305.662451 60.491004 
L 307.11937 60.491004 
L 307.11937 59.723804 
L 307.84783 59.723804 
L 307.84783 57.422205 
L 308.212059 57.422205 
L 308.212059 56.655006 
L 308.940519 56.655006 
L 308.940519 56.143539 
L 309.304749 56.143539 
L 309.304749 55.37634 
L 310.033208 55.37634 
L 310.033208 55.120606 
L 310.397438 55.120606 
L 310.397438 54.864873 
L 312.947046 54.864873 
L 312.947046 54.60914 
L 313.675506 54.60914 
L 313.675506 53.586207 
L 314.768195 53.586207 
L 314.768195 53.07474 
L 315.132425 53.07474 
L 315.132425 52.563274 
L 315.496655 52.563274 
L 315.496655 52.307541 
L 315.860884 52.307541 
L 315.860884 50.773141 
L 316.953574 50.773141 
L 316.953574 50.261675 
L 317.317804 50.261675 
L 317.317804 50.005942 
L 317.682033 50.005942 
L 317.682033 48.983009 
L 318.046263 48.983009 
L 318.046263 48.727275 
L 320.595871 48.727275 
L 320.595871 48.471542 
L 320.960101 48.471542 
L 320.960101 47.960076 
L 321.324331 47.960076 
L 321.324331 47.448609 
L 321.688561 47.448609 
L 321.688561 46.937143 
L 322.78125 46.937143 
L 322.78125 46.937143 
" clip-path="url(#pd3ff4f4977)" style="fill: none; stroke: #ff8c00; stroke-width: 2; stroke-linecap: square"/>
   </g>
   <g id="line2d_14">
    <path d="M 43.78125 239.76 
L 322.78125 46.937143 
" clip-path="url(#pd3ff4f4977)" style="fill: none; stroke-dasharray: 7.4,3.2; stroke-dashoffset: 0; stroke: #000080; stroke-width: 2"/>
   </g>
   <g id="patch_3">
    <path d="M 43.78125 239.76 
L 43.78125 37.296 
" style="fill: none; stroke: #000000; stroke-width: 0.8; stroke-linejoin: miter; stroke-linecap: square"/>
   </g>
   <g id="patch_4">
    <path d="M 322.78125 239.76 
L 322.78125 37.296 
" style="fill: none; stroke: #000000; stroke-width: 0.8; stroke-linejoin: miter; stroke-linecap: square"/>
   </g>
   <g id="patch_5">
    <path d="M 43.78125 239.76 
L 322.78125 239.76 
" style="fill: none; stroke: #000000; stroke-width: 0.8; stroke-linejoin: miter; stroke-linecap: square"/>
   </g>
   <g id="patch_6">
    <path d="M 43.78125 37.296 
L 322.78125 37.296 
" style="fill: none; stroke: #000000; stroke-width: 0.8; stroke-linejoin: miter; stroke-linecap: square"/>
   </g>
   <g id="text_15">
    <!-- Constrained Model - Learning Rate = 1e-06 -->
    <g transform="translate(85.767656 31.296) scale(0.09 -0.09)">
     <defs>
      <path id="DejaVuSans-43" d="M 4122 4306 
L 4122 3641 
Q 3803 3938 3442 4084 
Q 3081 4231 2675 4231 
Q 1875 4231 1450 3742 
Q 1025 3253 1025 2328 
Q 1025 1406 1450 917 
Q 1875 428 2675 428 
Q 3081 428 3442 575 
Q 3803 722 4122 1019 
L 4122 359 
Q 3791 134 3420 21 
Q 3050 -91 2638 -91 
Q 1578 -91 968 557 
Q 359 1206 359 2328 
Q 359 3453 968 4101 
Q 1578 4750 2638 4750 
Q 3056 4750 3426 4639 
Q 3797 4528 4122 4306 
z
" transform="scale(0.015625)"/>
      <path id="DejaVuSans-6e" d="M 3513 2113 
L 3513 0 
L 2938 0 
L 2938 2094 
Q 2938 2591 2744 2837 
Q 2550 3084 2163 3084 
Q 1697 3084 1428 2787 
Q 1159 2491 1159 1978 
L 1159 0 
L 581 0 
L 581 3500 
L 1159 3500 
L 1159 2956 
Q 1366 3272 1645 3428 
Q 1925 3584 2291 3584 
Q 2894 3584 3203 3211 
Q 3513 2838 3513 2113 
z
" transform="scale(0.015625)"/>
      <path id="DejaVuSans-64" d="M 2906 2969 
L 2906 4863 
L 3481 4863 
L 3481 0 
L 2906 0 
L 2906 525 
Q 2725 213 2448 61 
Q 2172 -91 1784 -91 
Q 1150 -91 751 415 
Q 353 922 353 1747 
Q 353 2572 751 3078 
Q 1150 3584 1784 3584 
Q 2172 3584 2448 3432 
Q 2725 3281 2906 2969 
z
M 947 1747 
Q 947 1113 1208 752 
Q 1469 391 1925 391 
Q 2381 391 2643 752 
Q 2906 1113 2906 1747 
Q 2906 2381 2643 2742 
Q 2381 3103 1925 3103 
Q 1469 3103 1208 2742 
Q 947 2381 947 1747 
z
" transform="scale(0.015625)"/>
      <path id="DejaVuSans-4d" d="M 628 4666 
L 1569 4666 
L 2759 1491 
L 3956 4666 
L 4897 4666 
L 4897 0 
L 4281 0 
L 4281 4097 
L 3078 897 
L 2444 897 
L 1241 4097 
L 1241 0 
L 628 0 
L 628 4666 
z
" transform="scale(0.015625)"/>
      <path id="DejaVuSans-2d" d="M 313 2009 
L 1997 2009 
L 1997 1497 
L 313 1497 
L 313 2009 
z
" transform="scale(0.015625)"/>
      <path id="DejaVuSans-4c" d="M 628 4666 
L 1259 4666 
L 1259 531 
L 3531 531 
L 3531 0 
L 628 0 
L 628 4666 
z
" transform="scale(0.015625)"/>
      <path id="DejaVuSans-67" d="M 2906 1791 
Q 2906 2416 2648 2759 
Q 2391 3103 1925 3103 
Q 1463 3103 1205 2759 
Q 947 2416 947 1791 
Q 947 1169 1205 825 
Q 1463 481 1925 481 
Q 2391 481 2648 825 
Q 2906 1169 2906 1791 
z
M 3481 434 
Q 3481 -459 3084 -895 
Q 2688 -1331 1869 -1331 
Q 1566 -1331 1297 -1286 
Q 1028 -1241 775 -1147 
L 775 -588 
Q 1028 -725 1275 -790 
Q 1522 -856 1778 -856 
Q 2344 -856 2625 -561 
Q 2906 -266 2906 331 
L 2906 616 
Q 2728 306 2450 153 
Q 2172 0 1784 0 
Q 1141 0 747 490 
Q 353 981 353 1791 
Q 353 2603 747 3093 
Q 1141 3584 1784 3584 
Q 2172 3584 2450 3431 
Q 2728 3278 2906 2969 
L 2906 3500 
L 3481 3500 
L 3481 434 
z
" transform="scale(0.015625)"/>
      <path id="DejaVuSans-3d" d="M 678 2906 
L 4684 2906 
L 4684 2381 
L 678 2381 
L 678 2906 
z
M 678 1631 
L 4684 1631 
L 4684 1100 
L 678 1100 
L 678 1631 
z
" transform="scale(0.015625)"/>
     </defs>
     <use xlink:href="#DejaVuSans-43"/>
     <use xlink:href="#DejaVuSans-6f" x="69.824219"/>
     <use xlink:href="#DejaVuSans-6e" x="131.005859"/>
     <use xlink:href="#DejaVuSans-73" x="194.384766"/>
     <use xlink:href="#DejaVuSans-74" x="246.484375"/>
     <use xlink:href="#DejaVuSans-72" x="285.693359"/>
     <use xlink:href="#DejaVuSans-61" x="326.806641"/>
     <use xlink:href="#DejaVuSans-69" x="388.085938"/>
     <use xlink:href="#DejaVuSans-6e" x="415.869141"/>
     <use xlink:href="#DejaVuSans-65" x="479.248047"/>
     <use xlink:href="#DejaVuSans-64" x="540.771484"/>
     <use xlink:href="#DejaVuSans-20" x="604.248047"/>
     <use xlink:href="#DejaVuSans-4d" x="636.035156"/>
     <use xlink:href="#DejaVuSans-6f" x="722.314453"/>
     <use xlink:href="#DejaVuSans-64" x="783.496094"/>
     <use xlink:href="#DejaVuSans-65" x="846.972656"/>
     <use xlink:href="#DejaVuSans-6c" x="908.496094"/>
     <use xlink:href="#DejaVuSans-20" x="936.279297"/>
     <use xlink:href="#DejaVuSans-2d" x="968.066406"/>
     <use xlink:href="#DejaVuSans-20" x="1004.150391"/>
     <use xlink:href="#DejaVuSans-4c" x="1035.9375"/>
     <use xlink:href="#DejaVuSans-65" x="1089.900391"/>
     <use xlink:href="#DejaVuSans-61" x="1151.423828"/>
     <use xlink:href="#DejaVuSans-72" x="1212.703125"/>
     <use xlink:href="#DejaVuSans-6e" x="1252.066406"/>
     <use xlink:href="#DejaVuSans-69" x="1315.445312"/>
     <use xlink:href="#DejaVuSans-6e" x="1343.228516"/>
     <use xlink:href="#DejaVuSans-67" x="1406.607422"/>
     <use xlink:href="#DejaVuSans-20" x="1470.083984"/>
     <use xlink:href="#DejaVuSans-52" x="1501.871094"/>
     <use xlink:href="#DejaVuSans-61" x="1569.103516"/>
     <use xlink:href="#DejaVuSans-74" x="1630.382812"/>
     <use xlink:href="#DejaVuSans-65" x="1669.591797"/>
     <use xlink:href="#DejaVuSans-20" x="1731.115234"/>
     <use xlink:href="#DejaVuSans-3d" x="1762.902344"/>
     <use xlink:href="#DejaVuSans-20" x="1846.691406"/>
     <use xlink:href="#DejaVuSans-31" x="1878.478516"/>
     <use xlink:href="#DejaVuSans-65" x="1942.101562"/>
     <use xlink:href="#DejaVuSans-2d" x="2003.625"/>
     <use xlink:href="#DejaVuSans-30" x="2039.708984"/>
     <use xlink:href="#DejaVuSans-36" x="2103.332031"/>
    </g>
   </g>
   <g id="legend_1">
    <g id="patch_7">
     <path d="M 199.503125 234.76 
L 315.78125 234.76 
Q 317.78125 234.76 317.78125 232.76 
L 317.78125 219.081875 
Q 317.78125 217.081875 315.78125 217.081875 
L 199.503125 217.081875 
Q 197.503125 217.081875 197.503125 219.081875 
L 197.503125 232.76 
Q 197.503125 234.76 199.503125 234.76 
z
" style="fill: #ffffff; opacity: 0.8; stroke: #cccccc; stroke-linejoin: miter"/>
    </g>
    <g id="line2d_15">
     <path d="M 201.503125 225.180312 
L 211.503125 225.180312 
L 221.503125 225.180312 
" style="fill: none; stroke: #ff8c00; stroke-width: 2; stroke-linecap: square"/>
    </g>
    <g id="text_16">
     <!-- ROC area = 0.46 -->
     <g transform="translate(229.503125 228.680312) scale(0.1 -0.1)">
      <defs>
       <path id="DejaVuSans-4f" d="M 2522 4238 
Q 1834 4238 1429 3725 
Q 1025 3213 1025 2328 
Q 1025 1447 1429 934 
Q 1834 422 2522 422 
Q 3209 422 3611 934 
Q 4013 1447 4013 2328 
Q 4013 3213 3611 3725 
Q 3209 4238 2522 4238 
z
M 2522 4750 
Q 3503 4750 4090 4092 
Q 4678 3434 4678 2328 
Q 4678 1225 4090 567 
Q 3503 -91 2522 -91 
Q 1538 -91 948 565 
Q 359 1222 359 2328 
Q 359 3434 948 4092 
Q 1538 4750 2522 4750 
z
" transform="scale(0.015625)"/>
      </defs>
      <use xlink:href="#DejaVuSans-52"/>
      <use xlink:href="#DejaVuSans-4f" x="69.482422"/>
      <use xlink:href="#DejaVuSans-43" x="148.193359"/>
      <use xlink:href="#DejaVuSans-20" x="218.017578"/>
      <use xlink:href="#DejaVuSans-61" x="249.804688"/>
      <use xlink:href="#DejaVuSans-72" x="311.083984"/>
      <use xlink:href="#DejaVuSans-65" x="349.947266"/>
      <use xlink:href="#DejaVuSans-61" x="411.470703"/>
      <use xlink:href="#DejaVuSans-20" x="472.75"/>
      <use xlink:href="#DejaVuSans-3d" x="504.537109"/>
      <use xlink:href="#DejaVuSans-20" x="588.326172"/>
      <use xlink:href="#DejaVuSans-30" x="620.113281"/>
      <use xlink:href="#DejaVuSans-2e" x="683.736328"/>
      <use xlink:href="#DejaVuSans-34" x="715.523438"/>
      <use xlink:href="#DejaVuSans-36" x="779.146484"/>
     </g>
    </g>
   </g>
  </g>
  <g id="text_17">
   <!-- ROC Curve - Tp = 10, Pct = 100.0% -->
   <g transform="translate(80.311484 15.558281) scale(0.11 -0.11)">
    <defs>
     <path id="DejaVuSans-70" d="M 1159 525 
L 1159 -1331 
L 581 -1331 
L 581 3500 
L 1159 3500 
L 1159 2969 
Q 1341 3281 1617 3432 
Q 1894 3584 2278 3584 
Q 2916 3584 3314 3078 
Q 3713 2572 3713 1747 
Q 3713 922 3314 415 
Q 2916 -91 2278 -91 
Q 1894 -91 1617 61 
Q 1341 213 1159 525 
z
M 3116 1747 
Q 3116 2381 2855 2742 
Q 2594 3103 2138 3103 
Q 1681 3103 1420 2742 
Q 1159 2381 1159 1747 
Q 1159 1113 1420 752 
Q 1681 391 2138 391 
Q 2594 391 2855 752 
Q 3116 1113 3116 1747 
z
" transform="scale(0.015625)"/>
     <path id="DejaVuSans-2c" d="M 750 794 
L 1409 794 
L 1409 256 
L 897 -744 
L 494 -744 
L 750 256 
L 750 794 
z
" transform="scale(0.015625)"/>
     <path id="DejaVuSans-63" d="M 3122 3366 
L 3122 2828 
Q 2878 2963 2633 3030 
Q 2388 3097 2138 3097 
Q 1578 3097 1268 2742 
Q 959 2388 959 1747 
Q 959 1106 1268 751 
Q 1578 397 2138 397 
Q 2388 397 2633 464 
Q 2878 531 3122 666 
L 3122 134 
Q 2881 22 2623 -34 
Q 2366 -91 2075 -91 
Q 1284 -91 818 406 
Q 353 903 353 1747 
Q 353 2603 823 3093 
Q 1294 3584 2113 3584 
Q 2378 3584 2631 3529 
Q 2884 3475 3122 3366 
z
" transform="scale(0.015625)"/>
     <path id="DejaVuSans-25" d="M 4653 2053 
Q 4381 2053 4226 1822 
Q 4072 1591 4072 1178 
Q 4072 772 4226 539 
Q 4381 306 4653 306 
Q 4919 306 5073 539 
Q 5228 772 5228 1178 
Q 5228 1588 5073 1820 
Q 4919 2053 4653 2053 
z
M 4653 2450 
Q 5147 2450 5437 2106 
Q 5728 1763 5728 1178 
Q 5728 594 5436 251 
Q 5144 -91 4653 -91 
Q 4153 -91 3862 251 
Q 3572 594 3572 1178 
Q 3572 1766 3864 2108 
Q 4156 2450 4653 2450 
z
M 1428 4353 
Q 1159 4353 1004 4120 
Q 850 3888 850 3481 
Q 850 3069 1003 2837 
Q 1156 2606 1428 2606 
Q 1700 2606 1854 2837 
Q 2009 3069 2009 3481 
Q 2009 3884 1853 4118 
Q 1697 4353 1428 4353 
z
M 4250 4750 
L 4750 4750 
L 1831 -91 
L 1331 -91 
L 4250 4750 
z
M 1428 4750 
Q 1922 4750 2215 4408 
Q 2509 4066 2509 3481 
Q 2509 2891 2217 2550 
Q 1925 2209 1428 2209 
Q 931 2209 642 2551 
Q 353 2894 353 3481 
Q 353 4063 643 4406 
Q 934 4750 1428 4750 
z
" transform="scale(0.015625)"/>
    </defs>
    <use xlink:href="#DejaVuSans-52"/>
    <use xlink:href="#DejaVuSans-4f" x="69.482422"/>
    <use xlink:href="#DejaVuSans-43" x="148.193359"/>
    <use xlink:href="#DejaVuSans-20" x="218.017578"/>
    <use xlink:href="#DejaVuSans-43" x="249.804688"/>
    <use xlink:href="#DejaVuSans-75" x="319.628906"/>
    <use xlink:href="#DejaVuSans-72" x="383.007812"/>
    <use xlink:href="#DejaVuSans-76" x="424.121094"/>
    <use xlink:href="#DejaVuSans-65" x="483.300781"/>
    <use xlink:href="#DejaVuSans-20" x="544.824219"/>
    <use xlink:href="#DejaVuSans-2d" x="576.611328"/>
    <use xlink:href="#DejaVuSans-20" x="612.695312"/>
    <use xlink:href="#DejaVuSans-54" x="644.482422"/>
    <use xlink:href="#DejaVuSans-70" x="705.566406"/>
    <use xlink:href="#DejaVuSans-20" x="769.042969"/>
    <use xlink:href="#DejaVuSans-3d" x="800.830078"/>
    <use xlink:href="#DejaVuSans-20" x="884.619141"/>
    <use xlink:href="#DejaVuSans-31" x="916.40625"/>
    <use xlink:href="#DejaVuSans-30" x="980.029297"/>
    <use xlink:href="#DejaVuSans-2c" x="1043.652344"/>
    <use xlink:href="#DejaVuSans-20" x="1075.439453"/>
    <use xlink:href="#DejaVuSans-50" x="1107.226562"/>
    <use xlink:href="#DejaVuSans-63" x="1167.529297"/>
    <use xlink:href="#DejaVuSans-74" x="1222.509766"/>
    <use xlink:href="#DejaVuSans-20" x="1261.71875"/>
    <use xlink:href="#DejaVuSans-3d" x="1293.505859"/>
    <use xlink:href="#DejaVuSans-20" x="1377.294922"/>
    <use xlink:href="#DejaVuSans-31" x="1409.082031"/>
    <use xlink:href="#DejaVuSans-30" x="1472.705078"/>
    <use xlink:href="#DejaVuSans-30" x="1536.328125"/>
    <use xlink:href="#DejaVuSans-2e" x="1599.951172"/>
    <use xlink:href="#DejaVuSans-30" x="1631.738281"/>
    <use xlink:href="#DejaVuSans-25" x="1695.361328"/>
   </g>
  </g>
 </g>
 <defs>
  <clipPath id="pd3ff4f4977">
   <rect x="43.78125" y="37.296" width="279" height="202.464"/>
  </clipPath>
 </defs>
</svg>
