<?xml version="1.0" encoding="utf-8" standalone="no"?>
<!DOCTYPE svg PUBLIC "-//W3C//DTD SVG 1.1//EN"
  "http://www.w3.org/Graphics/SVG/1.1/DTD/svg11.dtd">
<svg xmlns:xlink="http://www.w3.org/1999/xlink" width="337.932812pt" height="277.31625pt" viewBox="0 0 337.932812 277.31625" xmlns="http://www.w3.org/2000/svg" version="1.1">
 <metadata>
  <rdf:RDF xmlns:dc="http://purl.org/dc/elements/1.1/" xmlns:cc="http://creativecommons.org/ns#" xmlns:rdf="http://www.w3.org/1999/02/22-rdf-syntax-ns#">
   <cc:Work>
    <dc:type rdf:resource="http://purl.org/dc/dcmitype/StillImage"/>
    <dc:date>2026-06-15T18:01:19.111428</dc:date>
    <dc:format>image/svg+xml</dc:format>
    <dc:creator>
     <cc:Agent>
      <dc:title>Matplotlib v3.8.4, https://matplotlib.org/</dc:title>
     </cc:Agent>
    </dc:creator>
   </cc:Work>
  </rdf:RDF>
 </metadata>
 <defs>
  <style type="text/css">*{stroke-linejoin: round; stroke-linecap: butt}</style>
 </defs>
 <g id="figure_1">
  <g id="patch_1">
   <path d="M 0 277.31625 
L 337.932812 277.31625 
L 337.932812 0 
L 0 0 
z
" style="fill: #ffffff"/>
  </g>
  <g id="axes_1">
   <g id="patch_2">
    <path d="M 43.78125 239.76 
L 322.78125 239.76 
L 322.78125 37.296 
L 43.78125 37.296 
z
" style="fill: #ffffff"/>
   </g>
   <g id="matplotlib.axis_1">
    <g id="xtick_1">
     <g id="line2d_1">
      <defs>
       <path id="m1b53259736" d="M 0 0 
L 0 3.5 
" style="stroke: #000000; stroke-width: 0.8"/>
      </defs>
      <g>
       <use xlink:href="#m1b53259736" x="43.78125" y="239.76" style="stroke: #000000; stroke-width: 0.8"/>
      </g>
     </g>
     <g id="text_1">
      <!-- 0.0 -->
      <g transform="translate(35.829688 254.358437) scale(0.1 -0.1)">
       <defs>
        <path id="DejaVuSans-30" d="M 2034 4250 
Q 1547 4250 1301 3770 
Q 1056 3291 1056 2328 
Q 1056 1369 1301 889 
Q 1547 409 2034 409 
Q 2525 409 2770 889 
Q 3016 1369 3016 2328 
Q 3016 3291 2770 3770 
Q 2525 4250 2034 4250 
z
M 2034 4750 
Q 2819 4750 3233 4129 
Q 3647 3509 3647 2328 
Q 3647 1150 3233 529 
Q 2819 -91 2034 -91 
Q 1250 -91 836 529 
Q 422 1150 422 2328 
Q 422 3509 836 4129 
Q 1250 4750 2034 4750 
z
" transform="scale(0.015625)"/>
        <path id="DejaVuSans-2e" d="M 684 794 
L 1344 794 
L 1344 0 
L 684 0 
L 684 794 
z
" transform="scale(0.015625)"/>
       </defs>
       <use xlink:href="#DejaVuSans-30"/>
       <use xlink:href="#DejaVuSans-2e" x="63.623047"/>
       <use xlink:href="#DejaVuSans-30" x="95.410156"/>
      </g>
     </g>
    </g>
    <g id="xtick_2">
     <g id="line2d_2">
      <g>
       <use xlink:href="#m1b53259736" x="99.58125" y="239.76" style="stroke: #000000; stroke-width: 0.8"/>
      </g>
     </g>
     <g id="text_2">
      <!-- 0.2 -->
      <g transform="translate(91.629688 254.358437) scale(0.1 -0.1)">
       <defs>
        <path id="DejaVuSans-32" d="M 1228 531 
L 3431 531 
L 3431 0 
L 469 0 
L 469 531 
Q 828 903 1448 1529 
Q 2069 2156 2228 2338 
Q 2531 2678 2651 2914 
Q 2772 3150 2772 3378 
Q 2772 3750 2511 3984 
Q 2250 4219 1831 4219 
Q 1534 4219 1204 4116 
Q 875 4013 500 3803 
L 500 4441 
Q 881 4594 1212 4672 
Q 1544 4750 1819 4750 
Q 2544 4750 2975 4387 
Q 3406 4025 3406 3419 
Q 3406 3131 3298 2873 
Q 3191 2616 2906 2266 
Q 2828 2175 2409 1742 
Q 1991 1309 1228 531 
z
" transform="scale(0.015625)"/>
       </defs>
       <use xlink:href="#DejaVuSans-30"/>
       <use xlink:href="#DejaVuSans-2e" x="63.623047"/>
       <use xlink:href="#DejaVuSans-32" x="95.410156"/>
      </g>
     </g>
    </g>
    <g id="xtick_3">
     <g id="line2d_3">
      <g>
       <use xlink:href="#m1b53259736" x="155.38125" y="239.76" style="stroke: #000000; stroke-width: 0.8"/>
      </g>
     </g>
     <g id="text_3">
      <!-- 0.4 -->
      <g transform="translate(147.429688 254.358437) scale(0.1 -0.1)">
       <defs>
        <path id="DejaVuSans-34" d="M 2419 4116 
L 825 1625 
L 2419 1625 
L 2419 4116 
z
M 2253 4666 
L 3047 4666 
L 3047 1625 
L 3713 1625 
L 3713 1100 
L 3047 1100 
L 3047 0 
L 2419 0 
L 2419 1100 
L 313 1100 
L 313 1709 
L 2253 4666 
z
" transform="scale(0.015625)"/>
       </defs>
       <use xlink:href="#DejaVuSans-30"/>
       <use xlink:href="#DejaVuSans-2e" x="63.623047"/>
       <use xlink:href="#DejaVuSans-34" x="95.410156"/>
      </g>
     </g>
    </g>
    <g id="xtick_4">
     <g id="line2d_4">
      <g>
       <use xlink:href="#m1b53259736" x="211.18125" y="239.76" style="stroke: #000000; stroke-width: 0.8"/>
      </g>
     </g>
     <g id="text_4">
      <!-- 0.6 -->
      <g transform="translate(203.229688 254.358437) scale(0.1 -0.1)">
       <defs>
        <path id="DejaVuSans-36" d="M 2113 2584 
Q 1688 2584 1439 2293 
Q 1191 2003 1191 1497 
Q 1191 994 1439 701 
Q 1688 409 2113 409 
Q 2538 409 2786 701 
Q 3034 994 3034 1497 
Q 3034 2003 2786 2293 
Q 2538 2584 2113 2584 
z
M 3366 4563 
L 3366 3988 
Q 3128 4100 2886 4159 
Q 2644 4219 2406 4219 
Q 1781 4219 1451 3797 
Q 1122 3375 1075 2522 
Q 1259 2794 1537 2939 
Q 1816 3084 2150 3084 
Q 2853 3084 3261 2657 
Q 3669 2231 3669 1497 
Q 3669 778 3244 343 
Q 2819 -91 2113 -91 
Q 1303 -91 875 529 
Q 447 1150 447 2328 
Q 447 3434 972 4092 
Q 1497 4750 2381 4750 
Q 2619 4750 2861 4703 
Q 3103 4656 3366 4563 
z
" transform="scale(0.015625)"/>
       </defs>
       <use xlink:href="#DejaVuSans-30"/>
       <use xlink:href="#DejaVuSans-2e" x="63.623047"/>
       <use xlink:href="#DejaVuSans-36" x="95.410156"/>
      </g>
     </g>
    </g>
    <g id="xtick_5">
     <g id="line2d_5">
      <g>
       <use xlink:href="#m1b53259736" x="266.98125" y="239.76" style="stroke: #000000; stroke-width: 0.8"/>
      </g>
     </g>
     <g id="text_5">
      <!-- 0.8 -->
      <g transform="translate(259.029688 254.358437) scale(0.1 -0.1)">
       <defs>
        <path id="DejaVuSans-38" d="M 2034 2216 
Q 1584 2216 1326 1975 
Q 1069 1734 1069 1313 
Q 1069 891 1326 650 
Q 1584 409 2034 409 
Q 2484 409 2743 651 
Q 3003 894 3003 1313 
Q 3003 1734 2745 1975 
Q 2488 2216 2034 2216 
z
M 1403 2484 
Q 997 2584 770 2862 
Q 544 3141 544 3541 
Q 544 4100 942 4425 
Q 1341 4750 2034 4750 
Q 2731 4750 3128 4425 
Q 3525 4100 3525 3541 
Q 3525 3141 3298 2862 
Q 3072 2584 2669 2484 
Q 3125 2378 3379 2068 
Q 3634 1759 3634 1313 
Q 3634 634 3220 271 
Q 2806 -91 2034 -91 
Q 1263 -91 848 271 
Q 434 634 434 1313 
Q 434 1759 690 2068 
Q 947 2378 1403 2484 
z
M 1172 3481 
Q 1172 3119 1398 2916 
Q 1625 2713 2034 2713 
Q 2441 2713 2670 2916 
Q 2900 3119 2900 3481 
Q 2900 3844 2670 4047 
Q 2441 4250 2034 4250 
Q 1625 4250 1398 4047 
Q 1172 3844 1172 3481 
z
" transform="scale(0.015625)"/>
       </defs>
       <use xlink:href="#DejaVuSans-30"/>
       <use xlink:href="#DejaVuSans-2e" x="63.623047"/>
       <use xlink:href="#DejaVuSans-38" x="95.410156"/>
      </g>
     </g>
    </g>
    <g id="xtick_6">
     <g id="line2d_6">
      <g>
       <use xlink:href="#m1b53259736" x="322.78125" y="239.76" style="stroke: #000000; stroke-width: 0.8"/>
      </g>
     </g>
     <g id="text_6">
      <!-- 1.0 -->
      <g transform="translate(314.829687 254.358437) scale(0.1 -0.1)">
       <defs>
        <path id="DejaVuSans-31" d="M 794 531 
L 1825 531 
L 1825 4091 
L 703 3866 
L 703 4441 
L 1819 4666 
L 2450 4666 
L 2450 531 
L 3481 531 
L 3481 0 
L 794 0 
L 794 531 
z
" transform="scale(0.015625)"/>
       </defs>
       <use xlink:href="#DejaVuSans-31"/>
       <use xlink:href="#DejaVuSans-2e" x="63.623047"/>
       <use xlink:href="#DejaVuSans-30" x="95.410156"/>
      </g>
     </g>
    </g>
    <g id="text_7">
     <!-- False Positive Rate -->
     <g transform="translate(136.814844 268.036562) scale(0.1 -0.1)">
      <defs>
       <path id="DejaVuSans-46" d="M 628 4666 
L 3309 4666 
L 3309 4134 
L 1259 4134 
L 1259 2759 
L 3109 2759 
L 3109 2228 
L 1259 2228 
L 1259 0 
L 628 0 
L 628 4666 
z
" transform="scale(0.015625)"/>
       <path id="DejaVuSans-61" d="M 2194 1759 
Q 1497 1759 1228 1600 
Q 959 1441 959 1056 
Q 959 750 1161 570 
Q 1363 391 1709 391 
Q 2188 391 2477 730 
Q 2766 1069 2766 1631 
L 2766 1759 
L 2194 1759 
z
M 3341 1997 
L 3341 0 
L 2766 0 
L 2766 531 
Q 2569 213 2275 61 
Q 1981 -91 1556 -91 
Q 1019 -91 701 211 
Q 384 513 384 1019 
Q 384 1609 779 1909 
Q 1175 2209 1959 2209 
L 2766 2209 
L 2766 2266 
Q 2766 2663 2505 2880 
Q 2244 3097 1772 3097 
Q 1472 3097 1187 3025 
Q 903 2953 641 2809 
L 641 3341 
Q 956 3463 1253 3523 
Q 1550 3584 1831 3584 
Q 2591 3584 2966 3190 
Q 3341 2797 3341 1997 
z
" transform="scale(0.015625)"/>
       <path id="DejaVuSans-6c" d="M 603 4863 
L 1178 4863 
L 1178 0 
L 603 0 
L 603 4863 
z
" transform="scale(0.015625)"/>
       <path id="DejaVuSans-73" d="M 2834 3397 
L 2834 2853 
Q 2591 2978 2328 3040 
Q 2066 3103 1784 3103 
Q 1356 3103 1142 2972 
Q 928 2841 928 2578 
Q 928 2378 1081 2264 
Q 1234 2150 1697 2047 
L 1894 2003 
Q 2506 1872 2764 1633 
Q 3022 1394 3022 966 
Q 3022 478 2636 193 
Q 2250 -91 1575 -91 
Q 1294 -91 989 -36 
Q 684 19 347 128 
L 347 722 
Q 666 556 975 473 
Q 1284 391 1588 391 
Q 1994 391 2212 530 
Q 2431 669 2431 922 
Q 2431 1156 2273 1281 
Q 2116 1406 1581 1522 
L 1381 1569 
Q 847 1681 609 1914 
Q 372 2147 372 2553 
Q 372 3047 722 3315 
Q 1072 3584 1716 3584 
Q 2034 3584 2315 3537 
Q 2597 3491 2834 3397 
z
" transform="scale(0.015625)"/>
       <path id="DejaVuSans-65" d="M 3597 1894 
L 3597 1613 
L 953 1613 
Q 991 1019 1311 708 
Q 1631 397 2203 397 
Q 2534 397 2845 478 
Q 3156 559 3463 722 
L 3463 178 
Q 3153 47 2828 -22 
Q 2503 -91 2169 -91 
Q 1331 -91 842 396 
Q 353 884 353 1716 
Q 353 2575 817 3079 
Q 1281 3584 2069 3584 
Q 2775 3584 3186 3129 
Q 3597 2675 3597 1894 
z
M 3022 2063 
Q 3016 2534 2758 2815 
Q 2500 3097 2075 3097 
Q 1594 3097 1305 2825 
Q 1016 2553 972 2059 
L 3022 2063 
z
" transform="scale(0.015625)"/>
       <path id="DejaVuSans-20" transform="scale(0.015625)"/>
       <path id="DejaVuSans-50" d="M 1259 4147 
L 1259 2394 
L 2053 2394 
Q 2494 2394 2734 2622 
Q 2975 2850 2975 3272 
Q 2975 3691 2734 3919 
Q 2494 4147 2053 4147 
L 1259 4147 
z
M 628 4666 
L 2053 4666 
Q 2838 4666 3239 4311 
Q 3641 3956 3641 3272 
Q 3641 2581 3239 2228 
Q 2838 1875 2053 1875 
L 1259 1875 
L 1259 0 
L 628 0 
L 628 4666 
z
" transform="scale(0.015625)"/>
       <path id="DejaVuSans-6f" d="M 1959 3097 
Q 1497 3097 1228 2736 
Q 959 2375 959 1747 
Q 959 1119 1226 758 
Q 1494 397 1959 397 
Q 2419 397 2687 759 
Q 2956 1122 2956 1747 
Q 2956 2369 2687 2733 
Q 2419 3097 1959 3097 
z
M 1959 3584 
Q 2709 3584 3137 3096 
Q 3566 2609 3566 1747 
Q 3566 888 3137 398 
Q 2709 -91 1959 -91 
Q 1206 -91 779 398 
Q 353 888 353 1747 
Q 353 2609 779 3096 
Q 1206 3584 1959 3584 
z
" transform="scale(0.015625)"/>
       <path id="DejaVuSans-69" d="M 603 3500 
L 1178 3500 
L 1178 0 
L 603 0 
L 603 3500 
z
M 603 4863 
L 1178 4863 
L 1178 4134 
L 603 4134 
L 603 4863 
z
" transform="scale(0.015625)"/>
       <path id="DejaVuSans-74" d="M 1172 4494 
L 1172 3500 
L 2356 3500 
L 2356 3053 
L 1172 3053 
L 1172 1153 
Q 1172 725 1289 603 
Q 1406 481 1766 481 
L 2356 481 
L 2356 0 
L 1766 0 
Q 1100 0 847 248 
Q 594 497 594 1153 
L 594 3053 
L 172 3053 
L 172 3500 
L 594 3500 
L 594 4494 
L 1172 4494 
z
" transform="scale(0.015625)"/>
       <path id="DejaVuSans-76" d="M 191 3500 
L 800 3500 
L 1894 563 
L 2988 3500 
L 3597 3500 
L 2284 0 
L 1503 0 
L 191 3500 
z
" transform="scale(0.015625)"/>
       <path id="DejaVuSans-52" d="M 2841 2188 
Q 3044 2119 3236 1894 
Q 3428 1669 3622 1275 
L 4263 0 
L 3584 0 
L 2988 1197 
Q 2756 1666 2539 1819 
Q 2322 1972 1947 1972 
L 1259 1972 
L 1259 0 
L 628 0 
L 628 4666 
L 2053 4666 
Q 2853 4666 3247 4331 
Q 3641 3997 3641 3322 
Q 3641 2881 3436 2590 
Q 3231 2300 2841 2188 
z
M 1259 4147 
L 1259 2491 
L 2053 2491 
Q 2509 2491 2742 2702 
Q 2975 2913 2975 3322 
Q 2975 3731 2742 3939 
Q 2509 4147 2053 4147 
L 1259 4147 
z
" transform="scale(0.015625)"/>
      </defs>
      <use xlink:href="#DejaVuSans-46"/>
      <use xlink:href="#DejaVuSans-61" x="48.394531"/>
      <use xlink:href="#DejaVuSans-6c" x="109.673828"/>
      <use xlink:href="#DejaVuSans-73" x="137.457031"/>
      <use xlink:href="#DejaVuSans-65" x="189.556641"/>
      <use xlink:href="#DejaVuSans-20" x="251.080078"/>
      <use xlink:href="#DejaVuSans-50" x="282.867188"/>
      <use xlink:href="#DejaVuSans-6f" x="339.544922"/>
      <use xlink:href="#DejaVuSans-73" x="400.726562"/>
      <use xlink:href="#DejaVuSans-69" x="452.826172"/>
      <use xlink:href="#DejaVuSans-74" x="480.609375"/>
      <use xlink:href="#DejaVuSans-69" x="519.818359"/>
      <use xlink:href="#DejaVuSans-76" x="547.601562"/>
      <use xlink:href="#DejaVuSans-65" x="606.78125"/>
      <use xlink:href="#DejaVuSans-20" x="668.304688"/>
      <use xlink:href="#DejaVuSans-52" x="700.091797"/>
      <use xlink:href="#DejaVuSans-61" x="767.324219"/>
      <use xlink:href="#DejaVuSans-74" x="828.603516"/>
      <use xlink:href="#DejaVuSans-65" x="867.8125"/>
     </g>
    </g>
   </g>
   <g id="matplotlib.axis_2">
    <g id="ytick_1">
     <g id="line2d_7">
      <defs>
       <path id="m54b3e36d94" d="M 0 0 
L -3.5 0 
" style="stroke: #000000; stroke-width: 0.8"/>
      </defs>
      <g>
       <use xlink:href="#m54b3e36d94" x="43.78125" y="239.76" style="stroke: #000000; stroke-width: 0.8"/>
      </g>
     </g>
     <g id="text_8">
      <!-- 0.0 -->
      <g transform="translate(20.878125 243.559219) scale(0.1 -0.1)">
       <use xlink:href="#DejaVuSans-30"/>
       <use xlink:href="#DejaVuSans-2e" x="63.623047"/>
       <use xlink:href="#DejaVuSans-30" x="95.410156"/>
      </g>
     </g>
    </g>
    <g id="ytick_2">
     <g id="line2d_8">
      <g>
       <use xlink:href="#m54b3e36d94" x="43.78125" y="201.195429" style="stroke: #000000; stroke-width: 0.8"/>
      </g>
     </g>
     <g id="text_9">
      <!-- 0.2 -->
      <g transform="translate(20.878125 204.994647) scale(0.1 -0.1)">
       <use xlink:href="#DejaVuSans-30"/>
       <use xlink:href="#DejaVuSans-2e" x="63.623047"/>
       <use xlink:href="#DejaVuSans-32" x="95.410156"/>
      </g>
     </g>
    </g>
    <g id="ytick_3">
     <g id="line2d_9">
      <g>
       <use xlink:href="#m54b3e36d94" x="43.78125" y="162.630857" style="stroke: #000000; stroke-width: 0.8"/>
      </g>
     </g>
     <g id="text_10">
      <!-- 0.4 -->
      <g transform="translate(20.878125 166.430076) scale(0.1 -0.1)">
       <use xlink:href="#DejaVuSans-30"/>
       <use xlink:href="#DejaVuSans-2e" x="63.623047"/>
       <use xlink:href="#DejaVuSans-34" x="95.410156"/>
      </g>
     </g>
    </g>
    <g id="ytick_4">
     <g id="line2d_10">
      <g>
       <use xlink:href="#m54b3e36d94" x="43.78125" y="124.066286" style="stroke: #000000; stroke-width: 0.8"/>
      </g>
     </g>
     <g id="text_11">
      <!-- 0.6 -->
      <g transform="translate(20.878125 127.865504) scale(0.1 -0.1)">
       <use xlink:href="#DejaVuSans-30"/>
       <use xlink:href="#DejaVuSans-2e" x="63.623047"/>
       <use xlink:href="#DejaVuSans-36" x="95.410156"/>
      </g>
     </g>
    </g>
    <g id="ytick_5">
     <g id="line2d_11">
      <g>
       <use xlink:href="#m54b3e36d94" x="43.78125" y="85.501714" style="stroke: #000000; stroke-width: 0.8"/>
      </g>
     </g>
     <g id="text_12">
      <!-- 0.8 -->
      <g transform="translate(20.878125 89.300933) scale(0.1 -0.1)">
       <use xlink:href="#DejaVuSans-30"/>
       <use xlink:href="#DejaVuSans-2e" x="63.623047"/>
       <use xlink:href="#DejaVuSans-38" x="95.410156"/>
      </g>
     </g>
    </g>
    <g id="ytick_6">
     <g id="line2d_12">
      <g>
       <use xlink:href="#m54b3e36d94" x="43.78125" y="46.937143" style="stroke: #000000; stroke-width: 0.8"/>
      </g>
     </g>
     <g id="text_13">
      <!-- 1.0 -->
      <g transform="translate(20.878125 50.736362) scale(0.1 -0.1)">
       <use xlink:href="#DejaVuSans-31"/>
       <use xlink:href="#DejaVuSans-2e" x="63.623047"/>
       <use xlink:href="#DejaVuSans-30" x="95.410156"/>
      </g>
     </g>
    </g>
    <g id="text_14">
     <!-- True Positive Rate -->
     <g transform="translate(14.798438 183.057687) rotate(-90) scale(0.1 -0.1)">
      <defs>
       <path id="DejaVuSans-54" d="M -19 4666 
L 3928 4666 
L 3928 4134 
L 2272 4134 
L 2272 0 
L 1638 0 
L 1638 4134 
L -19 4134 
L -19 4666 
z
" transform="scale(0.015625)"/>
       <path id="DejaVuSans-72" d="M 2631 2963 
Q 2534 3019 2420 3045 
Q 2306 3072 2169 3072 
Q 1681 3072 1420 2755 
Q 1159 2438 1159 1844 
L 1159 0 
L 581 0 
L 581 3500 
L 1159 3500 
L 1159 2956 
Q 1341 3275 1631 3429 
Q 1922 3584 2338 3584 
Q 2397 3584 2469 3576 
Q 2541 3569 2628 3553 
L 2631 2963 
z
" transform="scale(0.015625)"/>
       <path id="DejaVuSans-75" d="M 544 1381 
L 544 3500 
L 1119 3500 
L 1119 1403 
Q 1119 906 1312 657 
Q 1506 409 1894 409 
Q 2359 409 2629 706 
Q 2900 1003 2900 1516 
L 2900 3500 
L 3475 3500 
L 3475 0 
L 2900 0 
L 2900 538 
Q 2691 219 2414 64 
Q 2138 -91 1772 -91 
Q 1169 -91 856 284 
Q 544 659 544 1381 
z
M 1991 3584 
L 1991 3584 
z
" transform="scale(0.015625)"/>
      </defs>
      <use xlink:href="#DejaVuSans-54"/>
      <use xlink:href="#DejaVuSans-72" x="46.333984"/>
      <use xlink:href="#DejaVuSans-75" x="87.447266"/>
      <use xlink:href="#DejaVuSans-65" x="150.826172"/>
      <use xlink:href="#DejaVuSans-20" x="212.349609"/>
      <use xlink:href="#DejaVuSans-50" x="244.136719"/>
      <use xlink:href="#DejaVuSans-6f" x="300.814453"/>
      <use xlink:href="#DejaVuSans-73" x="361.996094"/>
      <use xlink:href="#DejaVuSans-69" x="414.095703"/>
      <use xlink:href="#DejaVuSans-74" x="441.878906"/>
      <use xlink:href="#DejaVuSans-69" x="481.087891"/>
      <use xlink:href="#DejaVuSans-76" x="508.871094"/>
      <use xlink:href="#DejaVuSans-65" x="568.050781"/>
      <use xlink:href="#DejaVuSans-20" x="629.574219"/>
      <use xlink:href="#DejaVuSans-52" x="661.361328"/>
      <use xlink:href="#DejaVuSans-61" x="728.59375"/>
      <use xlink:href="#DejaVuSans-74" x="789.873047"/>
      <use xlink:href="#DejaVuSans-65" x="829.082031"/>
     </g>
    </g>
   </g>
   <g id="line2d_13">
    <path d="M 43.78125 239.76 
L 43.78125 238.481334 
L 44.50971 238.481334 
L 44.50971 238.225601 
L 45.238169 238.225601 
L 45.238169 236.691201 
L 46.330858 236.691201 
L 46.330858 235.924002 
L 46.695088 235.924002 
L 46.695088 235.412535 
L 47.059318 235.412535 
L 47.059318 235.156802 
L 47.787777 235.156802 
L 47.787777 234.645335 
L 48.152007 234.645335 
L 48.152007 234.389602 
L 48.880467 234.389602 
L 48.880467 233.110936 
L 49.608926 233.110936 
L 49.608926 232.343736 
L 49.973156 232.343736 
L 49.973156 232.088003 
L 50.337386 232.088003 
L 50.337386 231.576537 
L 50.701616 231.576537 
L 50.701616 230.553604 
L 51.065845 230.553604 
L 51.065845 229.786404 
L 51.430075 229.786404 
L 51.430075 229.274937 
L 51.794305 229.274937 
L 51.794305 229.019204 
L 52.158535 229.019204 
L 52.158535 228.507738 
L 52.522764 228.507738 
L 52.522764 227.996271 
L 52.886994 227.996271 
L 52.886994 227.484805 
L 53.615454 227.484805 
L 53.615454 226.973338 
L 53.979683 226.973338 
L 53.979683 225.950405 
L 54.708143 225.950405 
L 54.708143 225.694672 
L 55.436602 225.694672 
L 55.436602 225.438939 
L 56.529292 225.438939 
L 56.529292 225.183206 
L 56.893522 225.183206 
L 56.893522 224.416006 
L 57.257751 224.416006 
L 57.257751 224.160273 
L 57.621981 224.160273 
L 57.621981 223.90454 
L 57.986211 223.90454 
L 57.986211 222.625873 
L 58.350441 222.625873 
L 58.350441 221.347207 
L 59.0789 221.347207 
L 59.0789 220.580008 
L 59.80736 220.580008 
L 59.80736 220.068541 
L 60.535819 220.068541 
L 60.535819 218.789875 
L 60.900049 218.789875 
L 60.900049 218.278408 
L 61.628508 218.278408 
L 61.628508 218.022675 
L 62.356968 218.022675 
L 62.356968 217.255476 
L 64.178117 217.255476 
L 64.178117 216.744009 
L 64.906576 216.744009 
L 64.906576 216.232543 
L 65.635036 216.232543 
L 65.635036 215.976809 
L 66.363495 215.976809 
L 66.363495 215.721076 
L 66.727725 215.721076 
L 66.727725 214.698143 
L 67.091955 214.698143 
L 67.091955 214.186677 
L 67.456185 214.186677 
L 67.456185 213.163744 
L 67.820414 213.163744 
L 67.820414 212.908011 
L 68.548874 212.908011 
L 68.548874 212.652277 
L 69.277334 212.652277 
L 69.277334 212.140811 
L 69.641563 212.140811 
L 69.641563 211.117878 
L 70.005793 211.117878 
L 70.005793 210.606412 
L 70.370023 210.606412 
L 70.370023 210.350678 
L 72.191172 210.350678 
L 72.191172 210.094945 
L 72.919631 210.094945 
L 72.919631 209.839212 
L 73.283861 209.839212 
L 73.283861 209.327745 
L 73.648091 209.072012 
L 74.01232 209.072012 
L 74.01232 208.816279 
L 74.37655 208.816279 
L 74.37655 208.560546 
L 75.10501 208.560546 
L 75.10501 208.304812 
L 75.833469 208.304812 
L 75.833469 208.049079 
L 76.197699 208.049079 
L 76.197699 207.537613 
L 78.018848 207.537613 
L 78.018848 206.51468 
L 78.747307 206.51468 
L 78.747307 205.236014 
L 79.111537 205.236014 
L 79.111537 204.724547 
L 79.839997 204.724547 
L 79.839997 203.957347 
L 80.204227 203.957347 
L 80.204227 203.445881 
L 80.932686 203.445881 
L 80.932686 203.190148 
L 82.389605 203.190148 
L 82.389605 201.144282 
L 83.118065 201.144282 
L 83.118065 200.888549 
L 84.210754 200.888549 
L 84.210754 199.354149 
L 85.667673 199.354149 
L 85.667673 198.58695 
L 86.760362 198.58695 
L 86.760362 198.331216 
L 87.124592 198.331216 
L 87.124592 197.81975 
L 87.488822 197.81975 
L 87.488822 197.564017 
L 87.853052 197.564017 
L 87.853052 197.05255 
L 88.217281 197.05255 
L 88.217281 196.796817 
L 88.945741 196.796817 
L 88.945741 196.541084 
L 89.309971 196.541084 
L 89.309971 196.029617 
L 89.6742 196.029617 
L 89.6742 195.773884 
L 91.495349 195.773884 
L 91.495349 195.262418 
L 91.859579 195.262418 
L 91.859579 195.006684 
L 92.588039 195.006684 
L 92.588039 194.750951 
L 92.952268 194.750951 
L 92.952268 193.472285 
L 93.316498 193.472285 
L 93.316498 192.705085 
L 93.680728 192.705085 
L 93.680728 192.449352 
L 94.044958 192.449352 
L 94.044958 192.193619 
L 96.594566 192.193619 
L 96.594566 191.682152 
L 96.958796 191.682152 
L 96.958796 191.426419 
L 97.323025 191.426419 
L 97.323025 191.170686 
L 97.687255 191.170686 
L 97.687255 190.914953 
L 98.051485 190.914953 
L 98.051485 190.147753 
L 98.779945 190.147753 
L 98.779945 189.636286 
L 99.144174 189.636286 
L 99.144174 189.380553 
L 99.508404 189.380553 
L 99.508404 189.12482 
L 99.872634 189.12482 
L 99.872634 188.35762 
L 100.236864 188.35762 
L 100.236864 188.101887 
L 100.965323 188.101887 
L 100.965323 186.823221 
L 101.329553 186.823221 
L 101.329553 186.056021 
L 101.693783 186.056021 
L 101.693783 185.544555 
L 102.422242 185.544555 
L 102.422242 184.521622 
L 103.150702 184.521622 
L 103.150702 181.19709 
L 104.607621 181.19709 
L 104.607621 180.174157 
L 105.70031 180.174157 
L 105.70031 179.66269 
L 106.06454 179.66269 
L 106.06454 177.872558 
L 106.42877 177.872558 
L 106.42877 177.616825 
L 106.792999 177.616825 
L 106.792999 176.338158 
L 107.157229 176.338158 
L 107.157229 175.826692 
L 107.885689 175.826692 
L 107.885689 175.059492 
L 108.978378 175.059492 
L 108.978378 174.803759 
L 109.342608 174.803759 
L 109.342608 174.548026 
L 110.435297 174.548026 
L 110.435297 174.292293 
L 110.799527 174.292293 
L 110.799527 173.26936 
L 111.163757 173.26936 
L 111.163757 173.013626 
L 111.527986 173.013626 
L 111.527986 172.757893 
L 111.892216 172.757893 
L 111.892216 172.246427 
L 112.256446 172.246427 
L 112.256446 171.990693 
L 112.984905 171.990693 
L 112.984905 171.223494 
L 113.713365 171.223494 
L 113.713365 170.967761 
L 114.441824 170.967761 
L 114.441824 170.712027 
L 114.806054 170.712027 
L 114.806054 170.456294 
L 115.898743 170.456294 
L 115.898743 169.944828 
L 116.627203 169.944828 
L 116.627203 168.410428 
L 116.991433 168.410428 
L 116.991433 166.620296 
L 117.719892 166.620296 
L 117.719892 166.364562 
L 118.084122 166.364562 
L 118.084122 166.108829 
L 118.448352 166.108829 
L 118.448352 165.853096 
L 119.541041 165.853096 
L 119.541041 165.597363 
L 120.63373 165.597363 
L 120.63373 164.57443 
L 120.99796 164.57443 
L 120.99796 163.80723 
L 121.36219 163.80723 
L 121.36219 163.295764 
L 122.454879 163.295764 
L 122.454879 163.04003 
L 122.819109 163.04003 
L 122.819109 162.528564 
L 123.183339 162.528564 
L 123.183339 162.272831 
L 123.547569 162.272831 
L 123.547569 161.761364 
L 125.004488 161.761364 
L 125.004488 161.505631 
L 125.368717 161.505631 
L 125.368717 160.738431 
L 125.732947 160.738431 
L 125.732947 159.204032 
L 126.097177 159.204032 
L 126.097177 157.925366 
L 126.825636 157.925366 
L 126.825636 157.413899 
L 127.554096 157.413899 
L 127.554096 156.902433 
L 129.739475 156.902433 
L 129.739475 156.6467 
L 130.103704 156.6467 
L 130.103704 156.390966 
L 131.196394 156.390966 
L 131.196394 155.8795 
L 131.560623 155.8795 
L 131.560623 155.623767 
L 132.289083 155.623767 
L 132.289083 155.368033 
L 132.653313 155.368033 
L 132.653313 154.856567 
L 133.017542 154.856567 
L 133.017542 154.089367 
L 134.838691 154.089367 
L 134.838691 153.577901 
L 135.931381 153.577901 
L 135.931381 151.532035 
L 137.3883 151.532035 
L 137.3883 150.509102 
L 141.394827 150.509102 
L 141.394827 150.253369 
L 141.759057 150.253369 
L 141.759057 149.997635 
L 142.123287 149.997635 
L 142.123287 149.486169 
L 142.487516 149.486169 
L 142.487516 148.718969 
L 142.851746 148.718969 
L 142.851746 148.207503 
L 143.215976 148.207503 
L 143.215976 147.696036 
L 144.672895 147.696036 
L 144.672895 147.18457 
L 145.037125 147.18457 
L 145.037125 146.928837 
L 145.401354 146.928837 
L 145.401354 146.673103 
L 145.765584 146.673103 
L 145.765584 146.41737 
L 146.129814 146.41737 
L 146.129814 146.161637 
L 146.494044 146.161637 
L 146.494044 145.905904 
L 146.858273 145.905904 
L 146.858273 145.650171 
L 147.222503 145.650171 
L 147.222503 145.138704 
L 147.586733 145.138704 
L 147.586733 144.627238 
L 148.679422 144.627238 
L 148.679422 144.371504 
L 149.043652 144.371504 
L 149.043652 144.115771 
L 149.772112 144.115771 
L 149.772112 143.860038 
L 150.136341 143.860038 
L 150.136341 143.604305 
L 150.500571 143.604305 
L 150.500571 143.348571 
L 150.864801 143.348571 
L 150.864801 142.581372 
L 151.59326 142.581372 
L 151.59326 141.558439 
L 153.05018 141.558439 
L 153.05018 141.302706 
L 153.414409 141.302706 
L 153.414409 141.046972 
L 153.778639 141.046972 
L 153.778639 140.791239 
L 154.142869 140.791239 
L 154.142869 140.024039 
L 154.507099 140.024039 
L 154.507099 139.512573 
L 154.871328 139.512573 
L 154.871328 139.25684 
L 155.599788 139.25684 
L 155.599788 138.48964 
L 155.964018 138.48964 
L 155.964018 137.72244 
L 156.328247 137.72244 
L 156.328247 137.466707 
L 156.692477 137.466707 
L 156.692477 136.955241 
L 157.056707 136.955241 
L 157.056707 136.443774 
L 159.606315 136.443774 
L 159.606315 135.932308 
L 161.063234 135.932308 
L 161.063234 135.676574 
L 162.520153 135.676574 
L 162.520153 135.165108 
L 163.248613 135.165108 
L 163.248613 134.653642 
L 163.612843 134.653642 
L 163.612843 134.142175 
L 163.977072 134.142175 
L 163.977072 133.886442 
L 164.705532 133.886442 
L 164.705532 133.630709 
L 166.162451 133.630709 
L 166.162451 133.374975 
L 166.526681 133.374975 
L 166.526681 132.607776 
L 166.890911 132.607776 
L 166.890911 132.096309 
L 167.25514 132.096309 
L 167.25514 131.584843 
L 167.61937 131.584843 
L 167.61937 131.32911 
L 169.076289 131.32911 
L 169.076289 131.073376 
L 170.533208 131.073376 
L 170.533208 130.56191 
L 170.897438 130.56191 
L 170.897438 130.306177 
L 171.261668 130.306177 
L 171.261668 129.79471 
L 171.625898 129.79471 
L 171.625898 129.538977 
L 171.990127 129.538977 
L 171.990127 129.283244 
L 173.811276 129.283244 
L 173.811276 128.771777 
L 175.268195 128.771777 
L 175.268195 128.516044 
L 175.632425 128.516044 
L 175.632425 128.260311 
L 175.996655 128.260311 
L 175.996655 128.004577 
L 176.360884 128.004577 
L 176.360884 127.748844 
L 176.725114 127.748844 
L 176.725114 126.470178 
L 177.453574 126.470178 
L 177.453574 125.702978 
L 179.274723 125.702978 
L 179.274723 125.447245 
L 180.367412 125.447245 
L 180.367412 125.191512 
L 180.731642 125.191512 
L 180.731642 124.680045 
L 181.460101 124.680045 
L 181.460101 124.424312 
L 181.824331 124.424312 
L 181.824331 124.168579 
L 182.188561 124.168579 
L 182.188561 123.912846 
L 182.91702 123.912846 
L 182.91702 123.657113 
L 183.28125 123.657113 
L 183.28125 123.401379 
L 183.64548 123.401379 
L 183.64548 123.145646 
L 184.00971 123.145646 
L 184.00971 122.889913 
L 184.738169 122.889913 
L 184.738169 122.63418 
L 185.102399 122.63418 
L 185.102399 121.86698 
L 186.195088 121.86698 
L 186.195088 120.844047 
L 186.559318 120.844047 
L 186.559318 120.332581 
L 187.287777 119.821114 
L 187.287777 119.565381 
L 187.652007 119.565381 
L 187.652007 118.798181 
L 188.016237 118.798181 
L 188.016237 118.542448 
L 188.744696 118.542448 
L 188.744696 118.286715 
L 189.108926 118.286715 
L 189.108926 118.030981 
L 189.473156 118.030981 
L 189.473156 117.775248 
L 190.201616 117.775248 
L 190.201616 117.519515 
L 190.930075 117.519515 
L 190.930075 116.752315 
L 191.658535 116.752315 
L 191.658535 114.962183 
L 192.386994 114.962183 
L 192.386994 114.706449 
L 194.572373 114.706449 
L 194.572373 114.450716 
L 194.936602 114.450716 
L 194.936602 114.194983 
L 195.300832 114.194983 
L 195.300832 113.683516 
L 196.029292 113.683516 
L 196.029292 113.427783 
L 196.393522 113.427783 
L 196.393522 113.17205 
L 197.121981 113.17205 
L 197.121981 112.660584 
L 198.5789 112.660584 
L 198.5789 111.637651 
L 199.671589 111.637651 
L 199.671589 111.381917 
L 200.035819 111.381917 
L 200.035819 110.614718 
L 200.764279 110.614718 
L 200.764279 110.358984 
L 201.492738 110.358984 
L 201.492738 110.103251 
L 201.856968 110.103251 
L 201.856968 109.591785 
L 202.221198 109.591785 
L 202.221198 109.336052 
L 202.585428 109.336052 
L 202.585428 109.080318 
L 204.042347 109.080318 
L 204.042347 108.568852 
L 204.406576 108.568852 
L 204.406576 108.057385 
L 204.770806 108.057385 
L 204.770806 107.290186 
L 205.499266 107.290186 
L 205.499266 107.034452 
L 206.227725 107.034452 
L 206.227725 106.267253 
L 206.591955 106.267253 
L 206.591955 105.755786 
L 210.598482 105.755786 
L 210.598482 105.24432 
L 210.962712 105.24432 
L 210.962712 104.988587 
L 212.055401 104.988587 
L 212.055401 104.732853 
L 212.419631 104.732853 
L 212.419631 104.47712 
L 212.783861 104.47712 
L 212.783861 103.965654 
L 213.51232 103.965654 
L 213.51232 103.454187 
L 213.87655 103.454187 
L 213.87655 103.198454 
L 214.24078 103.198454 
L 214.24078 102.942721 
L 214.60501 102.942721 
L 214.60501 102.686987 
L 217.154618 102.686987 
L 217.154618 102.175521 
L 218.975767 102.175521 
L 218.975767 101.919788 
L 226.988822 101.919788 
L 226.988822 101.664055 
L 228.081511 101.664055 
L 228.081511 101.408321 
L 229.90266 101.408321 
L 229.90266 101.152588 
L 233.180728 101.152588 
L 233.180728 100.896855 
L 236.458796 100.896855 
L 236.458796 100.641122 
L 239.008404 100.641122 
L 239.008404 100.385388 
L 239.372634 100.385388 
L 239.372634 100.129655 
L 240.465323 100.129655 
L 240.465323 99.873922 
L 241.193783 99.873922 
L 241.193783 99.106722 
L 241.922242 99.106722 
L 241.922242 98.850989 
L 242.286472 98.850989 
L 242.286472 98.595256 
L 242.650702 98.595256 
L 242.650702 98.339523 
L 243.014931 98.339523 
L 243.014931 98.083789 
L 243.379161 98.083789 
L 243.379161 97.828056 
L 244.107621 97.828056 
L 244.107621 96.293657 
L 245.20031 96.293657 
L 245.20031 95.78219 
L 246.657229 95.78219 
L 246.657229 95.526457 
L 247.021459 95.526457 
L 247.021459 95.014991 
L 247.385689 95.014991 
L 247.385689 93.736324 
L 248.114148 93.736324 
L 248.114148 93.480591 
L 248.478378 93.480591 
L 248.478378 92.713391 
L 248.842608 92.713391 
L 248.842608 90.667526 
L 249.206837 90.667526 
L 249.206837 89.900326 
L 250.299527 89.900326 
L 250.299527 89.644593 
L 250.663757 89.644593 
L 250.663757 88.877393 
L 251.027986 88.877393 
L 251.027986 88.365926 
L 251.756446 88.365926 
L 251.756446 88.110193 
L 252.120676 88.110193 
L 252.120676 87.85446 
L 253.213365 87.85446 
L 253.213365 84.785661 
L 253.577595 84.785661 
L 253.577595 84.529928 
L 253.941824 84.529928 
L 253.941824 84.274195 
L 254.306054 84.274195 
L 254.306054 84.018462 
L 254.670284 84.018462 
L 254.670284 83.251262 
L 255.034514 83.251262 
L 255.034514 82.484062 
L 255.398743 82.484062 
L 255.398743 81.461129 
L 255.762973 81.461129 
L 255.762973 80.949663 
L 256.127203 80.949663 
L 256.127203 80.69393 
L 256.491433 80.69393 
L 256.491433 79.92673 
L 256.855663 79.92673 
L 256.855663 79.670997 
L 257.219892 79.670997 
L 257.219892 79.15953 
L 257.584122 79.15953 
L 257.584122 78.903797 
L 257.948352 78.903797 
L 257.948352 78.39233 
L 258.676811 78.39233 
L 258.676811 78.136597 
L 259.405271 78.136597 
L 259.405271 77.625131 
L 263.047569 77.625131 
L 263.047569 77.369397 
L 264.504488 77.369397 
L 264.504488 76.857931 
L 265.597177 76.857931 
L 265.597177 76.602198 
L 267.418326 76.602198 
L 267.418326 76.346465 
L 268.146785 76.346465 
L 268.146785 76.090731 
L 268.511015 76.090731 
L 268.511015 75.834998 
L 269.603704 75.834998 
L 269.603704 75.579265 
L 270.696394 75.579265 
L 270.696394 75.323532 
L 271.789083 75.323532 
L 271.789083 75.067798 
L 272.153313 75.067798 
L 272.153313 74.812065 
L 275.067151 74.812065 
L 275.067151 74.556332 
L 275.79561 74.556332 
L 275.79561 74.300599 
L 276.15984 74.300599 
L 276.15984 73.789132 
L 276.8883 73.789132 
L 276.8883 73.533399 
L 277.252529 73.533399 
L 277.252529 73.021933 
L 277.616759 73.021933 
L 277.616759 72.766199 
L 277.980989 72.766199 
L 277.980989 72.510466 
L 278.345219 72.510466 
L 278.345219 72.254733 
L 279.073678 72.254733 
L 279.073678 71.999 
L 279.437908 71.999 
L 279.437908 71.487533 
L 280.530597 71.487533 
L 280.530597 70.208867 
L 280.894827 70.208867 
L 280.894827 69.441667 
L 281.259057 69.441667 
L 281.259057 69.185934 
L 281.987516 69.185934 
L 281.987516 68.930201 
L 282.351746 68.930201 
L 282.351746 68.674468 
L 282.715976 68.674468 
L 282.715976 68.163001 
L 283.808665 68.163001 
L 283.808665 67.395801 
L 284.537125 67.395801 
L 284.537125 66.628602 
L 284.901354 66.628602 
L 284.901354 65.861402 
L 285.629814 65.861402 
L 285.629814 65.605669 
L 285.994044 65.605669 
L 285.994044 65.094202 
L 286.358273 65.094202 
L 286.358273 63.048336 
L 286.722503 63.048336 
L 286.722503 62.53687 
L 287.086733 62.53687 
L 287.086733 62.281137 
L 287.450963 62.281137 
L 287.450963 62.025404 
L 289.272112 62.025404 
L 289.272112 61.76967 
L 289.636341 61.76967 
L 289.636341 61.002471 
L 290.000571 61.002471 
L 290.000571 60.746737 
L 290.364801 60.746737 
L 290.364801 60.235271 
L 290.729031 60.235271 
L 290.729031 58.956605 
L 291.45749 58.956605 
L 291.45749 58.700872 
L 292.18595 58.700872 
L 292.18595 58.189405 
L 292.55018 58.189405 
L 292.55018 57.677939 
L 292.914409 57.677939 
L 292.914409 56.655006 
L 294.371328 56.655006 
L 294.371328 55.37634 
L 295.099788 55.37634 
L 295.099788 54.864873 
L 296.556707 54.864873 
L 296.556707 54.60914 
L 296.920937 54.60914 
L 296.920937 54.097673 
L 297.285166 54.097673 
L 297.285166 52.819007 
L 297.649396 52.819007 
L 297.649396 52.563274 
L 298.013626 52.563274 
L 298.013626 52.307541 
L 298.377856 52.307541 
L 298.377856 51.796074 
L 299.470545 51.796074 
L 299.470545 50.517408 
L 299.834775 50.517408 
L 299.834775 49.750208 
L 300.563234 49.750208 
L 300.563234 49.494475 
L 303.477072 49.494475 
L 303.477072 49.238742 
L 306.75514 49.238742 
L 306.75514 48.983009 
L 310.033208 48.983009 
L 310.033208 48.727275 
L 311.854357 48.727275 
L 311.854357 48.471542 
L 312.582817 48.471542 
L 312.582817 48.215809 
L 316.589344 48.215809 
L 316.589344 47.960076 
L 317.682033 47.960076 
L 317.682033 47.704343 
L 320.960101 47.704343 
L 320.960101 47.448609 
L 321.324331 47.448609 
L 321.324331 47.192876 
L 321.688561 47.192876 
L 321.688561 46.937143 
L 322.78125 46.937143 
L 322.78125 46.937143 
" clip-path="url(#pc96ac450c8)" style="fill: none; stroke: #ff8c00; stroke-width: 2; stroke-linecap: square"/>
   </g>
   <g id="line2d_14">
    <path d="M 43.78125 239.76 
L 322.78125 46.937143 
" clip-path="url(#pc96ac450c8)" style="fill: none; stroke-dasharray: 7.4,3.2; stroke-dashoffset: 0; stroke: #000080; stroke-width: 2"/>
   </g>
   <g id="patch_3">
    <path d="M 43.78125 239.76 
L 43.78125 37.296 
" style="fill: none; stroke: #000000; stroke-width: 0.8; stroke-linejoin: miter; stroke-linecap: square"/>
   </g>
   <g id="patch_4">
    <path d="M 322.78125 239.76 
L 322.78125 37.296 
" style="fill: none; stroke: #000000; stroke-width: 0.8; stroke-linejoin: miter; stroke-linecap: square"/>
   </g>
   <g id="patch_5">
    <path d="M 43.78125 239.76 
L 322.78125 239.76 
" style="fill: none; stroke: #000000; stroke-width: 0.8; stroke-linejoin: miter; stroke-linecap: square"/>
   </g>
   <g id="patch_6">
    <path d="M 43.78125 37.296 
L 322.78125 37.296 
" style="fill: none; stroke: #000000; stroke-width: 0.8; stroke-linejoin: miter; stroke-linecap: square"/>
   </g>
   <g id="text_15">
    <!-- Constrained Model - Learning Rate = 0.0001 -->
    <g transform="translate(83.003672 31.296) scale(0.09 -0.09)">
     <defs>
      <path id="DejaVuSans-43" d="M 4122 4306 
L 4122 3641 
Q 3803 3938 3442 4084 
Q 3081 4231 2675 4231 
Q 1875 4231 1450 3742 
Q 1025 3253 1025 2328 
Q 1025 1406 1450 917 
Q 1875 428 2675 428 
Q 3081 428 3442 575 
Q 3803 722 4122 1019 
L 4122 359 
Q 3791 134 3420 21 
Q 3050 -91 2638 -91 
Q 1578 -91 968 557 
Q 359 1206 359 2328 
Q 359 3453 968 4101 
Q 1578 4750 2638 4750 
Q 3056 4750 3426 4639 
Q 3797 4528 4122 4306 
z
" transform="scale(0.015625)"/>
      <path id="DejaVuSans-6e" d="M 3513 2113 
L 3513 0 
L 2938 0 
L 2938 2094 
Q 2938 2591 2744 2837 
Q 2550 3084 2163 3084 
Q 1697 3084 1428 2787 
Q 1159 2491 1159 1978 
L 1159 0 
L 581 0 
L 581 3500 
L 1159 3500 
L 1159 2956 
Q 1366 3272 1645 3428 
Q 1925 3584 2291 3584 
Q 2894 3584 3203 3211 
Q 3513 2838 3513 2113 
z
" transform="scale(0.015625)"/>
      <path id="DejaVuSans-64" d="M 2906 2969 
L 2906 4863 
L 3481 4863 
L 3481 0 
L 2906 0 
L 2906 525 
Q 2725 213 2448 61 
Q 2172 -91 1784 -91 
Q 1150 -91 751 415 
Q 353 922 353 1747 
Q 353 2572 751 3078 
Q 1150 3584 1784 3584 
Q 2172 3584 2448 3432 
Q 2725 3281 2906 2969 
z
M 947 1747 
Q 947 1113 1208 752 
Q 1469 391 1925 391 
Q 2381 391 2643 752 
Q 2906 1113 2906 1747 
Q 2906 2381 2643 2742 
Q 2381 3103 1925 3103 
Q 1469 3103 1208 2742 
Q 947 2381 947 1747 
z
" transform="scale(0.015625)"/>
      <path id="DejaVuSans-4d" d="M 628 4666 
L 1569 4666 
L 2759 1491 
L 3956 4666 
L 4897 4666 
L 4897 0 
L 4281 0 
L 4281 4097 
L 3078 897 
L 2444 897 
L 1241 4097 
L 1241 0 
L 628 0 
L 628 4666 
z
" transform="scale(0.015625)"/>
      <path id="DejaVuSans-2d" d="M 313 2009 
L 1997 2009 
L 1997 1497 
L 313 1497 
L 313 2009 
z
" transform="scale(0.015625)"/>
      <path id="DejaVuSans-4c" d="M 628 4666 
L 1259 4666 
L 1259 531 
L 3531 531 
L 3531 0 
L 628 0 
L 628 4666 
z
" transform="scale(0.015625)"/>
      <path id="DejaVuSans-67" d="M 2906 1791 
Q 2906 2416 2648 2759 
Q 2391 3103 1925 3103 
Q 1463 3103 1205 2759 
Q 947 2416 947 1791 
Q 947 1169 1205 825 
Q 1463 481 1925 481 
Q 2391 481 2648 825 
Q 2906 1169 2906 1791 
z
M 3481 434 
Q 3481 -459 3084 -895 
Q 2688 -1331 1869 -1331 
Q 1566 -1331 1297 -1286 
Q 1028 -1241 775 -1147 
L 775 -588 
Q 1028 -725 1275 -790 
Q 1522 -856 1778 -856 
Q 2344 -856 2625 -561 
Q 2906 -266 2906 331 
L 2906 616 
Q 2728 306 2450 153 
Q 2172 0 1784 0 
Q 1141 0 747 490 
Q 353 981 353 1791 
Q 353 2603 747 3093 
Q 1141 3584 1784 3584 
Q 2172 3584 2450 3431 
Q 2728 3278 2906 2969 
L 2906 3500 
L 3481 3500 
L 3481 434 
z
" transform="scale(0.015625)"/>
      <path id="DejaVuSans-3d" d="M 678 2906 
L 4684 2906 
L 4684 2381 
L 678 2381 
L 678 2906 
z
M 678 1631 
L 4684 1631 
L 4684 1100 
L 678 1100 
L 678 1631 
z
" transform="scale(0.015625)"/>
     </defs>
     <use xlink:href="#DejaVuSans-43"/>
     <use xlink:href="#DejaVuSans-6f" x="69.824219"/>
     <use xlink:href="#DejaVuSans-6e" x="131.005859"/>
     <use xlink:href="#DejaVuSans-73" x="194.384766"/>
     <use xlink:href="#DejaVuSans-74" x="246.484375"/>
     <use xlink:href="#DejaVuSans-72" x="285.693359"/>
     <use xlink:href="#DejaVuSans-61" x="326.806641"/>
     <use xlink:href="#DejaVuSans-69" x="388.085938"/>
     <use xlink:href="#DejaVuSans-6e" x="415.869141"/>
     <use xlink:href="#DejaVuSans-65" x="479.248047"/>
     <use xlink:href="#DejaVuSans-64" x="540.771484"/>
     <use xlink:href="#DejaVuSans-20" x="604.248047"/>
     <use xlink:href="#DejaVuSans-4d" x="636.035156"/>
     <use xlink:href="#DejaVuSans-6f" x="722.314453"/>
     <use xlink:href="#DejaVuSans-64" x="783.496094"/>
     <use xlink:href="#DejaVuSans-65" x="846.972656"/>
     <use xlink:href="#DejaVuSans-6c" x="908.496094"/>
     <use xlink:href="#DejaVuSans-20" x="936.279297"/>
     <use xlink:href="#DejaVuSans-2d" x="968.066406"/>
     <use xlink:href="#DejaVuSans-20" x="1004.150391"/>
     <use xlink:href="#DejaVuSans-4c" x="1035.9375"/>
     <use xlink:href="#DejaVuSans-65" x="1089.900391"/>
     <use xlink:href="#DejaVuSans-61" x="1151.423828"/>
     <use xlink:href="#DejaVuSans-72" x="1212.703125"/>
     <use xlink:href="#DejaVuSans-6e" x="1252.066406"/>
     <use xlink:href="#DejaVuSans-69" x="1315.445312"/>
     <use xlink:href="#DejaVuSans-6e" x="1343.228516"/>
     <use xlink:href="#DejaVuSans-67" x="1406.607422"/>
     <use xlink:href="#DejaVuSans-20" x="1470.083984"/>
     <use xlink:href="#DejaVuSans-52" x="1501.871094"/>
     <use xlink:href="#DejaVuSans-61" x="1569.103516"/>
     <use xlink:href="#DejaVuSans-74" x="1630.382812"/>
     <use xlink:href="#DejaVuSans-65" x="1669.591797"/>
     <use xlink:href="#DejaVuSans-20" x="1731.115234"/>
     <use xlink:href="#DejaVuSans-3d" x="1762.902344"/>
     <use xlink:href="#DejaVuSans-20" x="1846.691406"/>
     <use xlink:href="#DejaVuSans-30" x="1878.478516"/>
     <use xlink:href="#DejaVuSans-2e" x="1942.101562"/>
     <use xlink:href="#DejaVuSans-30" x="1973.888672"/>
     <use xlink:href="#DejaVuSans-30" x="2037.511719"/>
     <use xlink:href="#DejaVuSans-30" x="2101.134766"/>
     <use xlink:href="#DejaVuSans-31" x="2164.757812"/>
    </g>
   </g>
   <g id="legend_1">
    <g id="patch_7">
     <path d="M 199.503125 234.76 
L 315.78125 234.76 
Q 317.78125 234.76 317.78125 232.76 
L 317.78125 219.081875 
Q 317.78125 217.081875 315.78125 217.081875 
L 199.503125 217.081875 
Q 197.503125 217.081875 197.503125 219.081875 
L 197.503125 232.76 
Q 197.503125 234.76 199.503125 234.76 
z
" style="fill: #ffffff; opacity: 0.8; stroke: #cccccc; stroke-linejoin: miter"/>
    </g>
    <g id="line2d_15">
     <path d="M 201.503125 225.180312 
L 211.503125 225.180312 
L 221.503125 225.180312 
" style="fill: none; stroke: #ff8c00; stroke-width: 2; stroke-linecap: square"/>
    </g>
    <g id="text_16">
     <!-- ROC area = 0.57 -->
     <g transform="translate(229.503125 228.680312) scale(0.1 -0.1)">
      <defs>
       <path id="DejaVuSans-4f" d="M 2522 4238 
Q 1834 4238 1429 3725 
Q 1025 3213 1025 2328 
Q 1025 1447 1429 934 
Q 1834 422 2522 422 
Q 3209 422 3611 934 
Q 4013 1447 4013 2328 
Q 4013 3213 3611 3725 
Q 3209 4238 2522 4238 
z
M 2522 4750 
Q 3503 4750 4090 4092 
Q 4678 3434 4678 2328 
Q 4678 1225 4090 567 
Q 3503 -91 2522 -91 
Q 1538 -91 948 565 
Q 359 1222 359 2328 
Q 359 3434 948 4092 
Q 1538 4750 2522 4750 
z
" transform="scale(0.015625)"/>
       <path id="DejaVuSans-35" d="M 691 4666 
L 3169 4666 
L 3169 4134 
L 1269 4134 
L 1269 2991 
Q 1406 3038 1543 3061 
Q 1681 3084 1819 3084 
Q 2600 3084 3056 2656 
Q 3513 2228 3513 1497 
Q 3513 744 3044 326 
Q 2575 -91 1722 -91 
Q 1428 -91 1123 -41 
Q 819 9 494 109 
L 494 744 
Q 775 591 1075 516 
Q 1375 441 1709 441 
Q 2250 441 2565 725 
Q 2881 1009 2881 1497 
Q 2881 1984 2565 2268 
Q 2250 2553 1709 2553 
Q 1456 2553 1204 2497 
Q 953 2441 691 2322 
L 691 4666 
z
" transform="scale(0.015625)"/>
       <path id="DejaVuSans-37" d="M 525 4666 
L 3525 4666 
L 3525 4397 
L 1831 0 
L 1172 0 
L 2766 4134 
L 525 4134 
L 525 4666 
z
" transform="scale(0.015625)"/>
      </defs>
      <use xlink:href="#DejaVuSans-52"/>
      <use xlink:href="#DejaVuSans-4f" x="69.482422"/>
      <use xlink:href="#DejaVuSans-43" x="148.193359"/>
      <use xlink:href="#DejaVuSans-20" x="218.017578"/>
      <use xlink:href="#DejaVuSans-61" x="249.804688"/>
      <use xlink:href="#DejaVuSans-72" x="311.083984"/>
      <use xlink:href="#DejaVuSans-65" x="349.947266"/>
      <use xlink:href="#DejaVuSans-61" x="411.470703"/>
      <use xlink:href="#DejaVuSans-20" x="472.75"/>
      <use xlink:href="#DejaVuSans-3d" x="504.537109"/>
      <use xlink:href="#DejaVuSans-20" x="588.326172"/>
      <use xlink:href="#DejaVuSans-30" x="620.113281"/>
      <use xlink:href="#DejaVuSans-2e" x="683.736328"/>
      <use xlink:href="#DejaVuSans-35" x="715.523438"/>
      <use xlink:href="#DejaVuSans-37" x="779.146484"/>
     </g>
    </g>
   </g>
  </g>
  <g id="text_17">
   <!-- ROC Curve - Tp = 10, Pct = 100.0% -->
   <g transform="translate(80.311484 15.558281) scale(0.11 -0.11)">
    <defs>
     <path id="DejaVuSans-70" d="M 1159 525 
L 1159 -1331 
L 581 -1331 
L 581 3500 
L 1159 3500 
L 1159 2969 
Q 1341 3281 1617 3432 
Q 1894 3584 2278 3584 
Q 2916 3584 3314 3078 
Q 3713 2572 3713 1747 
Q 3713 922 3314 415 
Q 2916 -91 2278 -91 
Q 1894 -91 1617 61 
Q 1341 213 1159 525 
z
M 3116 1747 
Q 3116 2381 2855 2742 
Q 2594 3103 2138 3103 
Q 1681 3103 1420 2742 
Q 1159 2381 1159 1747 
Q 1159 1113 1420 752 
Q 1681 391 2138 391 
Q 2594 391 2855 752 
Q 3116 1113 3116 1747 
z
" transform="scale(0.015625)"/>
     <path id="DejaVuSans-2c" d="M 750 794 
L 1409 794 
L 1409 256 
L 897 -744 
L 494 -744 
L 750 256 
L 750 794 
z
" transform="scale(0.015625)"/>
     <path id="DejaVuSans-63" d="M 3122 3366 
L 3122 2828 
Q 2878 2963 2633 3030 
Q 2388 3097 2138 3097 
Q 1578 3097 1268 2742 
Q 959 2388 959 1747 
Q 959 1106 1268 751 
Q 1578 397 2138 397 
Q 2388 397 2633 464 
Q 2878 531 3122 666 
L 3122 134 
Q 2881 22 2623 -34 
Q 2366 -91 2075 -91 
Q 1284 -91 818 406 
Q 353 903 353 1747 
Q 353 2603 823 3093 
Q 1294 3584 2113 3584 
Q 2378 3584 2631 3529 
Q 2884 3475 3122 3366 
z
" transform="scale(0.015625)"/>
     <path id="DejaVuSans-25" d="M 4653 2053 
Q 4381 2053 4226 1822 
Q 4072 1591 4072 1178 
Q 4072 772 4226 539 
Q 4381 306 4653 306 
Q 4919 306 5073 539 
Q 5228 772 5228 1178 
Q 5228 1588 5073 1820 
Q 4919 2053 4653 2053 
z
M 4653 2450 
Q 5147 2450 5437 2106 
Q 5728 1763 5728 1178 
Q 5728 594 5436 251 
Q 5144 -91 4653 -91 
Q 4153 -91 3862 251 
Q 3572 594 3572 1178 
Q 3572 1766 3864 2108 
Q 4156 2450 4653 2450 
z
M 1428 4353 
Q 1159 4353 1004 4120 
Q 850 3888 850 3481 
Q 850 3069 1003 2837 
Q 1156 2606 1428 2606 
Q 1700 2606 1854 2837 
Q 2009 3069 2009 3481 
Q 2009 3884 1853 4118 
Q 1697 4353 1428 4353 
z
M 4250 4750 
L 4750 4750 
L 1831 -91 
L 1331 -91 
L 4250 4750 
z
M 1428 4750 
Q 1922 4750 2215 4408 
Q 2509 4066 2509 3481 
Q 2509 2891 2217 2550 
Q 1925 2209 1428 2209 
Q 931 2209 642 2551 
Q 353 2894 353 3481 
Q 353 4063 643 4406 
Q 934 4750 1428 4750 
z
" transform="scale(0.015625)"/>
    </defs>
    <use xlink:href="#DejaVuSans-52"/>
    <use xlink:href="#DejaVuSans-4f" x="69.482422"/>
    <use xlink:href="#DejaVuSans-43" x="148.193359"/>
    <use xlink:href="#DejaVuSans-20" x="218.017578"/>
    <use xlink:href="#DejaVuSans-43" x="249.804688"/>
    <use xlink:href="#DejaVuSans-75" x="319.628906"/>
    <use xlink:href="#DejaVuSans-72" x="383.007812"/>
    <use xlink:href="#DejaVuSans-76" x="424.121094"/>
    <use xlink:href="#DejaVuSans-65" x="483.300781"/>
    <use xlink:href="#DejaVuSans-20" x="544.824219"/>
    <use xlink:href="#DejaVuSans-2d" x="576.611328"/>
    <use xlink:href="#DejaVuSans-20" x="612.695312"/>
    <use xlink:href="#DejaVuSans-54" x="644.482422"/>
    <use xlink:href="#DejaVuSans-70" x="705.566406"/>
    <use xlink:href="#DejaVuSans-20" x="769.042969"/>
    <use xlink:href="#DejaVuSans-3d" x="800.830078"/>
    <use xlink:href="#DejaVuSans-20" x="884.619141"/>
    <use xlink:href="#DejaVuSans-31" x="916.40625"/>
    <use xlink:href="#DejaVuSans-30" x="980.029297"/>
    <use xlink:href="#DejaVuSans-2c" x="1043.652344"/>
    <use xlink:href="#DejaVuSans-20" x="1075.439453"/>
    <use xlink:href="#DejaVuSans-50" x="1107.226562"/>
    <use xlink:href="#DejaVuSans-63" x="1167.529297"/>
    <use xlink:href="#DejaVuSans-74" x="1222.509766"/>
    <use xlink:href="#DejaVuSans-20" x="1261.71875"/>
    <use xlink:href="#DejaVuSans-3d" x="1293.505859"/>
    <use xlink:href="#DejaVuSans-20" x="1377.294922"/>
    <use xlink:href="#DejaVuSans-31" x="1409.082031"/>
    <use xlink:href="#DejaVuSans-30" x="1472.705078"/>
    <use xlink:href="#DejaVuSans-30" x="1536.328125"/>
    <use xlink:href="#DejaVuSans-2e" x="1599.951172"/>
    <use xlink:href="#DejaVuSans-30" x="1631.738281"/>
    <use xlink:href="#DejaVuSans-25" x="1695.361328"/>
   </g>
  </g>
 </g>
 <defs>
  <clipPath id="pc96ac450c8">
   <rect x="43.78125" y="37.296" width="279" height="202.464"/>
  </clipPath>
 </defs>
</svg>
