<?xml version="1.0" encoding="utf-8" standalone="no"?>
<!DOCTYPE svg PUBLIC "-//W3C//DTD SVG 1.1//EN"
  "http://www.w3.org/Graphics/SVG/1.1/DTD/svg11.dtd">
<svg xmlns:xlink="http://www.w3.org/1999/xlink" width="339.829141pt" height="277.31625pt" viewBox="0 0 339.829141 277.31625" xmlns="http://www.w3.org/2000/svg" version="1.1">
 <metadata>
  <rdf:RDF xmlns:dc="http://purl.org/dc/elements/1.1/" xmlns:cc="http://creativecommons.org/ns#" xmlns:rdf="http://www.w3.org/1999/02/22-rdf-syntax-ns#">
   <cc:Work>
    <dc:type rdf:resource="http://purl.org/dc/dcmitype/StillImage"/>
    <dc:date>2026-06-11T10:39:30.337389</dc:date>
    <dc:format>image/svg+xml</dc:format>
    <dc:creator>
     <cc:Agent>
      <dc:title>Matplotlib v3.8.4, https://matplotlib.org/</dc:title>
     </cc:Agent>
    </dc:creator>
   </cc:Work>
  </rdf:RDF>
 </metadata>
 <defs>
  <style type="text/css">*{stroke-linejoin: round; stroke-linecap: butt}</style>
 </defs>
 <g id="figure_1">
  <g id="patch_1">
   <path d="M 0 277.31625 
L 339.829141 277.31625 
L 339.829141 0 
L 0 0 
z
" style="fill: #ffffff"/>
  </g>
  <g id="axes_1">
   <g id="patch_2">
    <path d="M 43.78125 239.76 
L 322.78125 239.76 
L 322.78125 37.296 
L 43.78125 37.296 
z
" style="fill: #ffffff"/>
   </g>
   <g id="matplotlib.axis_1">
    <g id="xtick_1">
     <g id="line2d_1">
      <path d="M 56.209178 239.76 
L 56.209178 37.296 
" clip-path="url(#p5777567df1)" style="fill: none; stroke-dasharray: 2.96,1.28; stroke-dashoffset: 0; stroke: #b0b0b0; stroke-opacity: 0.4; stroke-width: 0.8"/>
     </g>
     <g id="line2d_2">
      <defs>
       <path id="m6ed41d2bb6" d="M 0 0 
L 0 3.5 
" style="stroke: #000000; stroke-width: 0.8"/>
      </defs>
      <g>
       <use xlink:href="#m6ed41d2bb6" x="56.209178" y="239.76" style="stroke: #000000; stroke-width: 0.8"/>
      </g>
     </g>
     <g id="text_1">
      <!-- 0 -->
      <g transform="translate(53.027928 254.358437) scale(0.1 -0.1)">
       <defs>
        <path id="DejaVuSans-30" d="M 2034 4250 
Q 1547 4250 1301 3770 
Q 1056 3291 1056 2328 
Q 1056 1369 1301 889 
Q 1547 409 2034 409 
Q 2525 409 2770 889 
Q 3016 1369 3016 2328 
Q 3016 3291 2770 3770 
Q 2525 4250 2034 4250 
z
M 2034 4750 
Q 2819 4750 3233 4129 
Q 3647 3509 3647 2328 
Q 3647 1150 3233 529 
Q 2819 -91 2034 -91 
Q 1250 -91 836 529 
Q 422 1150 422 2328 
Q 422 3509 836 4129 
Q 1250 4750 2034 4750 
z
" transform="scale(0.015625)"/>
       </defs>
       <use xlink:href="#DejaVuSans-30"/>
      </g>
     </g>
    </g>
    <g id="xtick_2">
     <g id="line2d_3">
      <path d="M 106.987229 239.76 
L 106.987229 37.296 
" clip-path="url(#p5777567df1)" style="fill: none; stroke-dasharray: 2.96,1.28; stroke-dashoffset: 0; stroke: #b0b0b0; stroke-opacity: 0.4; stroke-width: 0.8"/>
     </g>
     <g id="line2d_4">
      <g>
       <use xlink:href="#m6ed41d2bb6" x="106.987229" y="239.76" style="stroke: #000000; stroke-width: 0.8"/>
      </g>
     </g>
     <g id="text_2">
      <!-- 200 -->
      <g transform="translate(97.443479 254.358437) scale(0.1 -0.1)">
       <defs>
        <path id="DejaVuSans-32" d="M 1228 531 
L 3431 531 
L 3431 0 
L 469 0 
L 469 531 
Q 828 903 1448 1529 
Q 2069 2156 2228 2338 
Q 2531 2678 2651 2914 
Q 2772 3150 2772 3378 
Q 2772 3750 2511 3984 
Q 2250 4219 1831 4219 
Q 1534 4219 1204 4116 
Q 875 4013 500 3803 
L 500 4441 
Q 881 4594 1212 4672 
Q 1544 4750 1819 4750 
Q 2544 4750 2975 4387 
Q 3406 4025 3406 3419 
Q 3406 3131 3298 2873 
Q 3191 2616 2906 2266 
Q 2828 2175 2409 1742 
Q 1991 1309 1228 531 
z
" transform="scale(0.015625)"/>
       </defs>
       <use xlink:href="#DejaVuSans-32"/>
       <use xlink:href="#DejaVuSans-30" x="63.623047"/>
       <use xlink:href="#DejaVuSans-30" x="127.246094"/>
      </g>
     </g>
    </g>
    <g id="xtick_3">
     <g id="line2d_5">
      <path d="M 157.765279 239.76 
L 157.765279 37.296 
" clip-path="url(#p5777567df1)" style="fill: none; stroke-dasharray: 2.96,1.28; stroke-dashoffset: 0; stroke: #b0b0b0; stroke-opacity: 0.4; stroke-width: 0.8"/>
     </g>
     <g id="line2d_6">
      <g>
       <use xlink:href="#m6ed41d2bb6" x="157.765279" y="239.76" style="stroke: #000000; stroke-width: 0.8"/>
      </g>
     </g>
     <g id="text_3">
      <!-- 400 -->
      <g transform="translate(148.221529 254.358437) scale(0.1 -0.1)">
       <defs>
        <path id="DejaVuSans-34" d="M 2419 4116 
L 825 1625 
L 2419 1625 
L 2419 4116 
z
M 2253 4666 
L 3047 4666 
L 3047 1625 
L 3713 1625 
L 3713 1100 
L 3047 1100 
L 3047 0 
L 2419 0 
L 2419 1100 
L 313 1100 
L 313 1709 
L 2253 4666 
z
" transform="scale(0.015625)"/>
       </defs>
       <use xlink:href="#DejaVuSans-34"/>
       <use xlink:href="#DejaVuSans-30" x="63.623047"/>
       <use xlink:href="#DejaVuSans-30" x="127.246094"/>
      </g>
     </g>
    </g>
    <g id="xtick_4">
     <g id="line2d_7">
      <path d="M 208.54333 239.76 
L 208.54333 37.296 
" clip-path="url(#p5777567df1)" style="fill: none; stroke-dasharray: 2.96,1.28; stroke-dashoffset: 0; stroke: #b0b0b0; stroke-opacity: 0.4; stroke-width: 0.8"/>
     </g>
     <g id="line2d_8">
      <g>
       <use xlink:href="#m6ed41d2bb6" x="208.54333" y="239.76" style="stroke: #000000; stroke-width: 0.8"/>
      </g>
     </g>
     <g id="text_4">
      <!-- 600 -->
      <g transform="translate(198.99958 254.358437) scale(0.1 -0.1)">
       <defs>
        <path id="DejaVuSans-36" d="M 2113 2584 
Q 1688 2584 1439 2293 
Q 1191 2003 1191 1497 
Q 1191 994 1439 701 
Q 1688 409 2113 409 
Q 2538 409 2786 701 
Q 3034 994 3034 1497 
Q 3034 2003 2786 2293 
Q 2538 2584 2113 2584 
z
M 3366 4563 
L 3366 3988 
Q 3128 4100 2886 4159 
Q 2644 4219 2406 4219 
Q 1781 4219 1451 3797 
Q 1122 3375 1075 2522 
Q 1259 2794 1537 2939 
Q 1816 3084 2150 3084 
Q 2853 3084 3261 2657 
Q 3669 2231 3669 1497 
Q 3669 778 3244 343 
Q 2819 -91 2113 -91 
Q 1303 -91 875 529 
Q 447 1150 447 2328 
Q 447 3434 972 4092 
Q 1497 4750 2381 4750 
Q 2619 4750 2861 4703 
Q 3103 4656 3366 4563 
z
" transform="scale(0.015625)"/>
       </defs>
       <use xlink:href="#DejaVuSans-36"/>
       <use xlink:href="#DejaVuSans-30" x="63.623047"/>
       <use xlink:href="#DejaVuSans-30" x="127.246094"/>
      </g>
     </g>
    </g>
    <g id="xtick_5">
     <g id="line2d_9">
      <path d="M 259.321381 239.76 
L 259.321381 37.296 
" clip-path="url(#p5777567df1)" style="fill: none; stroke-dasharray: 2.96,1.28; stroke-dashoffset: 0; stroke: #b0b0b0; stroke-opacity: 0.4; stroke-width: 0.8"/>
     </g>
     <g id="line2d_10">
      <g>
       <use xlink:href="#m6ed41d2bb6" x="259.321381" y="239.76" style="stroke: #000000; stroke-width: 0.8"/>
      </g>
     </g>
     <g id="text_5">
      <!-- 800 -->
      <g transform="translate(249.777631 254.358437) scale(0.1 -0.1)">
       <defs>
        <path id="DejaVuSans-38" d="M 2034 2216 
Q 1584 2216 1326 1975 
Q 1069 1734 1069 1313 
Q 1069 891 1326 650 
Q 1584 409 2034 409 
Q 2484 409 2743 651 
Q 3003 894 3003 1313 
Q 3003 1734 2745 1975 
Q 2488 2216 2034 2216 
z
M 1403 2484 
Q 997 2584 770 2862 
Q 544 3141 544 3541 
Q 544 4100 942 4425 
Q 1341 4750 2034 4750 
Q 2731 4750 3128 4425 
Q 3525 4100 3525 3541 
Q 3525 3141 3298 2862 
Q 3072 2584 2669 2484 
Q 3125 2378 3379 2068 
Q 3634 1759 3634 1313 
Q 3634 634 3220 271 
Q 2806 -91 2034 -91 
Q 1263 -91 848 271 
Q 434 634 434 1313 
Q 434 1759 690 2068 
Q 947 2378 1403 2484 
z
M 1172 3481 
Q 1172 3119 1398 2916 
Q 1625 2713 2034 2713 
Q 2441 2713 2670 2916 
Q 2900 3119 2900 3481 
Q 2900 3844 2670 4047 
Q 2441 4250 2034 4250 
Q 1625 4250 1398 4047 
Q 1172 3844 1172 3481 
z
" transform="scale(0.015625)"/>
       </defs>
       <use xlink:href="#DejaVuSans-38"/>
       <use xlink:href="#DejaVuSans-30" x="63.623047"/>
       <use xlink:href="#DejaVuSans-30" x="127.246094"/>
      </g>
     </g>
    </g>
    <g id="xtick_6">
     <g id="line2d_11">
      <path d="M 310.099432 239.76 
L 310.099432 37.296 
" clip-path="url(#p5777567df1)" style="fill: none; stroke-dasharray: 2.96,1.28; stroke-dashoffset: 0; stroke: #b0b0b0; stroke-opacity: 0.4; stroke-width: 0.8"/>
     </g>
     <g id="line2d_12">
      <g>
       <use xlink:href="#m6ed41d2bb6" x="310.099432" y="239.76" style="stroke: #000000; stroke-width: 0.8"/>
      </g>
     </g>
     <g id="text_6">
      <!-- 1000 -->
      <g transform="translate(297.374432 254.358437) scale(0.1 -0.1)">
       <defs>
        <path id="DejaVuSans-31" d="M 794 531 
L 1825 531 
L 1825 4091 
L 703 3866 
L 703 4441 
L 1819 4666 
L 2450 4666 
L 2450 531 
L 3481 531 
L 3481 0 
L 794 0 
L 794 531 
z
" transform="scale(0.015625)"/>
       </defs>
       <use xlink:href="#DejaVuSans-31"/>
       <use xlink:href="#DejaVuSans-30" x="63.623047"/>
       <use xlink:href="#DejaVuSans-30" x="127.246094"/>
       <use xlink:href="#DejaVuSans-30" x="190.869141"/>
      </g>
     </g>
    </g>
    <g id="text_7">
     <!-- Epochs -->
     <g transform="translate(165.365625 268.036562) scale(0.1 -0.1)">
      <defs>
       <path id="DejaVuSans-45" d="M 628 4666 
L 3578 4666 
L 3578 4134 
L 1259 4134 
L 1259 2753 
L 3481 2753 
L 3481 2222 
L 1259 2222 
L 1259 531 
L 3634 531 
L 3634 0 
L 628 0 
L 628 4666 
z
" transform="scale(0.015625)"/>
       <path id="DejaVuSans-70" d="M 1159 525 
L 1159 -1331 
L 581 -1331 
L 581 3500 
L 1159 3500 
L 1159 2969 
Q 1341 3281 1617 3432 
Q 1894 3584 2278 3584 
Q 2916 3584 3314 3078 
Q 3713 2572 3713 1747 
Q 3713 922 3314 415 
Q 2916 -91 2278 -91 
Q 1894 -91 1617 61 
Q 1341 213 1159 525 
z
M 3116 1747 
Q 3116 2381 2855 2742 
Q 2594 3103 2138 3103 
Q 1681 3103 1420 2742 
Q 1159 2381 1159 1747 
Q 1159 1113 1420 752 
Q 1681 391 2138 391 
Q 2594 391 2855 752 
Q 3116 1113 3116 1747 
z
" transform="scale(0.015625)"/>
       <path id="DejaVuSans-6f" d="M 1959 3097 
Q 1497 3097 1228 2736 
Q 959 2375 959 1747 
Q 959 1119 1226 758 
Q 1494 397 1959 397 
Q 2419 397 2687 759 
Q 2956 1122 2956 1747 
Q 2956 2369 2687 2733 
Q 2419 3097 1959 3097 
z
M 1959 3584 
Q 2709 3584 3137 3096 
Q 3566 2609 3566 1747 
Q 3566 888 3137 398 
Q 2709 -91 1959 -91 
Q 1206 -91 779 398 
Q 353 888 353 1747 
Q 353 2609 779 3096 
Q 1206 3584 1959 3584 
z
" transform="scale(0.015625)"/>
       <path id="DejaVuSans-63" d="M 3122 3366 
L 3122 2828 
Q 2878 2963 2633 3030 
Q 2388 3097 2138 3097 
Q 1578 3097 1268 2742 
Q 959 2388 959 1747 
Q 959 1106 1268 751 
Q 1578 397 2138 397 
Q 2388 397 2633 464 
Q 2878 531 3122 666 
L 3122 134 
Q 2881 22 2623 -34 
Q 2366 -91 2075 -91 
Q 1284 -91 818 406 
Q 353 903 353 1747 
Q 353 2603 823 3093 
Q 1294 3584 2113 3584 
Q 2378 3584 2631 3529 
Q 2884 3475 3122 3366 
z
" transform="scale(0.015625)"/>
       <path id="DejaVuSans-68" d="M 3513 2113 
L 3513 0 
L 2938 0 
L 2938 2094 
Q 2938 2591 2744 2837 
Q 2550 3084 2163 3084 
Q 1697 3084 1428 2787 
Q 1159 2491 1159 1978 
L 1159 0 
L 581 0 
L 581 4863 
L 1159 4863 
L 1159 2956 
Q 1366 3272 1645 3428 
Q 1925 3584 2291 3584 
Q 2894 3584 3203 3211 
Q 3513 2838 3513 2113 
z
" transform="scale(0.015625)"/>
       <path id="DejaVuSans-73" d="M 2834 3397 
L 2834 2853 
Q 2591 2978 2328 3040 
Q 2066 3103 1784 3103 
Q 1356 3103 1142 2972 
Q 928 2841 928 2578 
Q 928 2378 1081 2264 
Q 1234 2150 1697 2047 
L 1894 2003 
Q 2506 1872 2764 1633 
Q 3022 1394 3022 966 
Q 3022 478 2636 193 
Q 2250 -91 1575 -91 
Q 1294 -91 989 -36 
Q 684 19 347 128 
L 347 722 
Q 666 556 975 473 
Q 1284 391 1588 391 
Q 1994 391 2212 530 
Q 2431 669 2431 922 
Q 2431 1156 2273 1281 
Q 2116 1406 1581 1522 
L 1381 1569 
Q 847 1681 609 1914 
Q 372 2147 372 2553 
Q 372 3047 722 3315 
Q 1072 3584 1716 3584 
Q 2034 3584 2315 3537 
Q 2597 3491 2834 3397 
z
" transform="scale(0.015625)"/>
      </defs>
      <use xlink:href="#DejaVuSans-45"/>
      <use xlink:href="#DejaVuSans-70" x="63.183594"/>
      <use xlink:href="#DejaVuSans-6f" x="126.660156"/>
      <use xlink:href="#DejaVuSans-63" x="187.841797"/>
      <use xlink:href="#DejaVuSans-68" x="242.822266"/>
      <use xlink:href="#DejaVuSans-73" x="306.201172"/>
     </g>
    </g>
   </g>
   <g id="matplotlib.axis_2">
    <g id="ytick_1">
     <g id="line2d_13">
      <path d="M 43.78125 223.516611 
L 322.78125 223.516611 
" clip-path="url(#p5777567df1)" style="fill: none; stroke-dasharray: 2.96,1.28; stroke-dashoffset: 0; stroke: #b0b0b0; stroke-opacity: 0.4; stroke-width: 0.8"/>
     </g>
     <g id="line2d_14">
      <defs>
       <path id="m257c124591" d="M 0 0 
L -3.5 0 
" style="stroke: #000000; stroke-width: 0.8"/>
      </defs>
      <g>
       <use xlink:href="#m257c124591" x="43.78125" y="223.516611" style="stroke: #000000; stroke-width: 0.8"/>
      </g>
     </g>
     <g id="text_8">
      <!-- 0.5 -->
      <g transform="translate(20.878125 227.31583) scale(0.1 -0.1)">
       <defs>
        <path id="DejaVuSans-2e" d="M 684 794 
L 1344 794 
L 1344 0 
L 684 0 
L 684 794 
z
" transform="scale(0.015625)"/>
        <path id="DejaVuSans-35" d="M 691 4666 
L 3169 4666 
L 3169 4134 
L 1269 4134 
L 1269 2991 
Q 1406 3038 1543 3061 
Q 1681 3084 1819 3084 
Q 2600 3084 3056 2656 
Q 3513 2228 3513 1497 
Q 3513 744 3044 326 
Q 2575 -91 1722 -91 
Q 1428 -91 1123 -41 
Q 819 9 494 109 
L 494 744 
Q 775 591 1075 516 
Q 1375 441 1709 441 
Q 2250 441 2565 725 
Q 2881 1009 2881 1497 
Q 2881 1984 2565 2268 
Q 2250 2553 1709 2553 
Q 1456 2553 1204 2497 
Q 953 2441 691 2322 
L 691 4666 
z
" transform="scale(0.015625)"/>
       </defs>
       <use xlink:href="#DejaVuSans-30"/>
       <use xlink:href="#DejaVuSans-2e" x="63.623047"/>
       <use xlink:href="#DejaVuSans-35" x="95.410156"/>
      </g>
     </g>
    </g>
    <g id="ytick_2">
     <g id="line2d_15">
      <path d="M 43.78125 187.911916 
L 322.78125 187.911916 
" clip-path="url(#p5777567df1)" style="fill: none; stroke-dasharray: 2.96,1.28; stroke-dashoffset: 0; stroke: #b0b0b0; stroke-opacity: 0.4; stroke-width: 0.8"/>
     </g>
     <g id="line2d_16">
      <g>
       <use xlink:href="#m257c124591" x="43.78125" y="187.911916" style="stroke: #000000; stroke-width: 0.8"/>
      </g>
     </g>
     <g id="text_9">
      <!-- 0.6 -->
      <g transform="translate(20.878125 191.711134) scale(0.1 -0.1)">
       <use xlink:href="#DejaVuSans-30"/>
       <use xlink:href="#DejaVuSans-2e" x="63.623047"/>
       <use xlink:href="#DejaVuSans-36" x="95.410156"/>
      </g>
     </g>
    </g>
    <g id="ytick_3">
     <g id="line2d_17">
      <path d="M 43.78125 152.30722 
L 322.78125 152.30722 
" clip-path="url(#p5777567df1)" style="fill: none; stroke-dasharray: 2.96,1.28; stroke-dashoffset: 0; stroke: #b0b0b0; stroke-opacity: 0.4; stroke-width: 0.8"/>
     </g>
     <g id="line2d_18">
      <g>
       <use xlink:href="#m257c124591" x="43.78125" y="152.30722" style="stroke: #000000; stroke-width: 0.8"/>
      </g>
     </g>
     <g id="text_10">
      <!-- 0.7 -->
      <g transform="translate(20.878125 156.106438) scale(0.1 -0.1)">
       <defs>
        <path id="DejaVuSans-37" d="M 525 4666 
L 3525 4666 
L 3525 4397 
L 1831 0 
L 1172 0 
L 2766 4134 
L 525 4134 
L 525 4666 
z
" transform="scale(0.015625)"/>
       </defs>
       <use xlink:href="#DejaVuSans-30"/>
       <use xlink:href="#DejaVuSans-2e" x="63.623047"/>
       <use xlink:href="#DejaVuSans-37" x="95.410156"/>
      </g>
     </g>
    </g>
    <g id="ytick_4">
     <g id="line2d_19">
      <path d="M 43.78125 116.702524 
L 322.78125 116.702524 
" clip-path="url(#p5777567df1)" style="fill: none; stroke-dasharray: 2.96,1.28; stroke-dashoffset: 0; stroke: #b0b0b0; stroke-opacity: 0.4; stroke-width: 0.8"/>
     </g>
     <g id="line2d_20">
      <g>
       <use xlink:href="#m257c124591" x="43.78125" y="116.702524" style="stroke: #000000; stroke-width: 0.8"/>
      </g>
     </g>
     <g id="text_11">
      <!-- 0.8 -->
      <g transform="translate(20.878125 120.501743) scale(0.1 -0.1)">
       <use xlink:href="#DejaVuSans-30"/>
       <use xlink:href="#DejaVuSans-2e" x="63.623047"/>
       <use xlink:href="#DejaVuSans-38" x="95.410156"/>
      </g>
     </g>
    </g>
    <g id="ytick_5">
     <g id="line2d_21">
      <path d="M 43.78125 81.097828 
L 322.78125 81.097828 
" clip-path="url(#p5777567df1)" style="fill: none; stroke-dasharray: 2.96,1.28; stroke-dashoffset: 0; stroke: #b0b0b0; stroke-opacity: 0.4; stroke-width: 0.8"/>
     </g>
     <g id="line2d_22">
      <g>
       <use xlink:href="#m257c124591" x="43.78125" y="81.097828" style="stroke: #000000; stroke-width: 0.8"/>
      </g>
     </g>
     <g id="text_12">
      <!-- 0.9 -->
      <g transform="translate(20.878125 84.897047) scale(0.1 -0.1)">
       <defs>
        <path id="DejaVuSans-39" d="M 703 97 
L 703 672 
Q 941 559 1184 500 
Q 1428 441 1663 441 
Q 2288 441 2617 861 
Q 2947 1281 2994 2138 
Q 2813 1869 2534 1725 
Q 2256 1581 1919 1581 
Q 1219 1581 811 2004 
Q 403 2428 403 3163 
Q 403 3881 828 4315 
Q 1253 4750 1959 4750 
Q 2769 4750 3195 4129 
Q 3622 3509 3622 2328 
Q 3622 1225 3098 567 
Q 2575 -91 1691 -91 
Q 1453 -91 1209 -44 
Q 966 3 703 97 
z
M 1959 2075 
Q 2384 2075 2632 2365 
Q 2881 2656 2881 3163 
Q 2881 3666 2632 3958 
Q 2384 4250 1959 4250 
Q 1534 4250 1286 3958 
Q 1038 3666 1038 3163 
Q 1038 2656 1286 2365 
Q 1534 2075 1959 2075 
z
" transform="scale(0.015625)"/>
       </defs>
       <use xlink:href="#DejaVuSans-30"/>
       <use xlink:href="#DejaVuSans-2e" x="63.623047"/>
       <use xlink:href="#DejaVuSans-39" x="95.410156"/>
      </g>
     </g>
    </g>
    <g id="ytick_6">
     <g id="line2d_23">
      <path d="M 43.78125 45.493132 
L 322.78125 45.493132 
" clip-path="url(#p5777567df1)" style="fill: none; stroke-dasharray: 2.96,1.28; stroke-dashoffset: 0; stroke: #b0b0b0; stroke-opacity: 0.4; stroke-width: 0.8"/>
     </g>
     <g id="line2d_24">
      <g>
       <use xlink:href="#m257c124591" x="43.78125" y="45.493132" style="stroke: #000000; stroke-width: 0.8"/>
      </g>
     </g>
     <g id="text_13">
      <!-- 1.0 -->
      <g transform="translate(20.878125 49.292351) scale(0.1 -0.1)">
       <use xlink:href="#DejaVuSans-31"/>
       <use xlink:href="#DejaVuSans-2e" x="63.623047"/>
       <use xlink:href="#DejaVuSans-30" x="95.410156"/>
      </g>
     </g>
    </g>
    <g id="text_14">
     <!-- Accuracy -->
     <g transform="translate(14.798438 161.356125) rotate(-90) scale(0.1 -0.1)">
      <defs>
       <path id="DejaVuSans-41" d="M 2188 4044 
L 1331 1722 
L 3047 1722 
L 2188 4044 
z
M 1831 4666 
L 2547 4666 
L 4325 0 
L 3669 0 
L 3244 1197 
L 1141 1197 
L 716 0 
L 50 0 
L 1831 4666 
z
" transform="scale(0.015625)"/>
       <path id="DejaVuSans-75" d="M 544 1381 
L 544 3500 
L 1119 3500 
L 1119 1403 
Q 1119 906 1312 657 
Q 1506 409 1894 409 
Q 2359 409 2629 706 
Q 2900 1003 2900 1516 
L 2900 3500 
L 3475 3500 
L 3475 0 
L 2900 0 
L 2900 538 
Q 2691 219 2414 64 
Q 2138 -91 1772 -91 
Q 1169 -91 856 284 
Q 544 659 544 1381 
z
M 1991 3584 
L 1991 3584 
z
" transform="scale(0.015625)"/>
       <path id="DejaVuSans-72" d="M 2631 2963 
Q 2534 3019 2420 3045 
Q 2306 3072 2169 3072 
Q 1681 3072 1420 2755 
Q 1159 2438 1159 1844 
L 1159 0 
L 581 0 
L 581 3500 
L 1159 3500 
L 1159 2956 
Q 1341 3275 1631 3429 
Q 1922 3584 2338 3584 
Q 2397 3584 2469 3576 
Q 2541 3569 2628 3553 
L 2631 2963 
z
" transform="scale(0.015625)"/>
       <path id="DejaVuSans-61" d="M 2194 1759 
Q 1497 1759 1228 1600 
Q 959 1441 959 1056 
Q 959 750 1161 570 
Q 1363 391 1709 391 
Q 2188 391 2477 730 
Q 2766 1069 2766 1631 
L 2766 1759 
L 2194 1759 
z
M 3341 1997 
L 3341 0 
L 2766 0 
L 2766 531 
Q 2569 213 2275 61 
Q 1981 -91 1556 -91 
Q 1019 -91 701 211 
Q 384 513 384 1019 
Q 384 1609 779 1909 
Q 1175 2209 1959 2209 
L 2766 2209 
L 2766 2266 
Q 2766 2663 2505 2880 
Q 2244 3097 1772 3097 
Q 1472 3097 1187 3025 
Q 903 2953 641 2809 
L 641 3341 
Q 956 3463 1253 3523 
Q 1550 3584 1831 3584 
Q 2591 3584 2966 3190 
Q 3341 2797 3341 1997 
z
" transform="scale(0.015625)"/>
       <path id="DejaVuSans-79" d="M 2059 -325 
Q 1816 -950 1584 -1140 
Q 1353 -1331 966 -1331 
L 506 -1331 
L 506 -850 
L 844 -850 
Q 1081 -850 1212 -737 
Q 1344 -625 1503 -206 
L 1606 56 
L 191 3500 
L 800 3500 
L 1894 763 
L 2988 3500 
L 3597 3500 
L 2059 -325 
z
" transform="scale(0.015625)"/>
      </defs>
      <use xlink:href="#DejaVuSans-41"/>
      <use xlink:href="#DejaVuSans-63" x="66.658203"/>
      <use xlink:href="#DejaVuSans-63" x="121.638672"/>
      <use xlink:href="#DejaVuSans-75" x="176.619141"/>
      <use xlink:href="#DejaVuSans-72" x="239.998047"/>
      <use xlink:href="#DejaVuSans-61" x="281.111328"/>
      <use xlink:href="#DejaVuSans-63" x="342.390625"/>
      <use xlink:href="#DejaVuSans-79" x="397.371094"/>
     </g>
    </g>
   </g>
   <g id="line2d_25">
    <path d="M 56.463068 230.557091 
L 56.716958 223.516611 
L 56.970849 210.44145 
L 57.224739 210.44145 
L 57.478629 206.418301 
L 57.732519 210.44145 
L 57.98641 222.510835 
L 58.2403 216.476132 
L 58.49419 196.360491 
L 58.74808 206.418301 
L 59.001971 201.389396 
L 59.255861 203.400971 
L 59.509751 191.331586 
L 60.017532 195.354714 
L 60.271422 186.30266 
L 60.525312 189.320011 
L 61.033093 182.279532 
L 61.286983 195.354714 
L 61.794764 178.256404 
L 62.048654 159.14654 
L 62.556434 194.348916 
L 63.064215 146.071379 
L 63.318105 148.082932 
L 63.571995 158.140763 
L 63.825886 156.129188 
L 64.079776 140.036676 
L 64.333666 145.065581 
L 64.587556 145.065581 
L 64.841447 126.961515 
L 65.095337 132.996196 
L 65.349227 132.996196 
L 65.603117 125.955717 
L 65.857008 126.961515 
L 66.110898 119.921035 
L 66.364788 120.926812 
L 66.872569 105.840076 
L 67.126459 109.863204 
L 67.380349 103.828501 
L 67.634239 113.886332 
L 67.88813 103.828501 
L 68.14202 106.845853 
L 68.39591 111.874779 
L 68.6498 103.828501 
L 68.903691 99.805373 
L 69.157581 102.822724 
L 69.411471 91.759117 
L 69.665361 93.770691 
L 69.919252 100.811171 
L 70.173142 95.782245 
L 70.427032 98.799596 
L 70.680922 94.776468 
L 70.934813 97.79382 
L 71.188703 97.79382 
L 71.442593 99.805373 
L 71.696483 91.759117 
L 71.950374 96.788043 
L 72.204264 85.724435 
L 72.458154 97.79382 
L 72.712044 89.747563 
L 72.965935 85.724435 
L 73.219825 92.764893 
L 73.473715 93.770691 
L 73.981496 83.71286 
L 74.235386 81.701307 
L 74.489276 91.759117 
L 74.743166 83.71286 
L 74.997057 83.71286 
L 75.250947 85.724435 
L 75.504837 89.747563 
L 75.758727 80.695509 
L 76.012618 82.707084 
L 76.266508 76.672381 
L 76.520398 83.71286 
L 76.774288 71.643476 
L 77.028179 73.655029 
L 77.282069 70.637699 
L 77.535959 77.678158 
L 77.78985 72.649253 
L 78.04374 70.637699 
L 78.29763 70.637699 
L 78.55152 71.643476 
L 78.805411 65.608773 
L 79.059301 65.608773 
L 79.313191 72.649253 
L 79.567081 72.649253 
L 79.820972 67.620348 
L 80.074862 67.620348 
L 80.582642 72.649253 
L 80.836533 69.631901 
L 81.090423 68.626125 
L 81.344313 64.602996 
L 81.852094 68.626125 
L 82.105984 67.620348 
L 82.359874 71.643476 
L 82.613764 63.59722 
L 82.867655 69.631901 
L 83.375435 59.574091 
L 83.629325 65.608773 
L 83.883216 66.614571 
L 84.137106 62.591443 
L 84.390996 63.59722 
L 84.644886 68.626125 
L 84.898777 66.614571 
L 85.406557 59.574091 
L 85.660447 64.602996 
L 85.914338 60.579868 
L 86.168228 59.574091 
L 86.422118 65.608773 
L 86.676008 56.55674 
L 86.929899 61.585645 
L 87.183789 63.59722 
L 87.437679 60.579868 
L 87.691569 63.59722 
L 87.94546 57.562517 
L 88.45324 59.574091 
L 88.70713 62.591443 
L 88.961021 63.59722 
L 89.214911 62.591443 
L 89.468801 55.550963 
L 89.722691 60.579868 
L 89.976582 59.574091 
L 90.230472 65.608773 
L 90.484362 62.591443 
L 90.738252 61.585645 
L 90.992143 61.585645 
L 91.246033 66.614571 
L 91.499923 58.568294 
L 91.753813 62.591443 
L 92.007704 56.55674 
L 92.261594 55.550963 
L 92.515484 50.522037 
L 92.769374 59.574091 
L 93.023265 60.579868 
L 93.277155 57.562517 
L 93.531045 59.574091 
L 93.784936 54.545165 
L 94.038826 55.550963 
L 94.292716 57.562517 
L 94.546606 58.568294 
L 94.800497 60.579868 
L 95.054387 54.545165 
L 95.308277 56.55674 
L 95.562167 55.550963 
L 95.816058 60.579868 
L 96.069948 53.539389 
L 96.323838 58.568294 
L 96.577728 52.533612 
L 96.831619 57.562517 
L 97.085509 50.522037 
L 97.339399 56.55674 
L 97.593289 58.568294 
L 97.84718 56.55674 
L 98.10107 53.539389 
L 98.35496 59.574091 
L 98.60885 62.591443 
L 99.116631 54.545165 
L 99.370521 54.545165 
L 99.624411 56.55674 
L 99.878302 55.550963 
L 100.132192 52.533612 
L 100.386082 52.533612 
L 100.639972 60.579868 
L 100.893863 53.539389 
L 101.147753 54.545165 
L 101.401643 52.533612 
L 101.655533 59.574091 
L 101.909424 55.550963 
L 102.163314 55.550963 
L 102.671094 51.527835 
L 102.924985 55.550963 
L 103.178875 53.539389 
L 103.432765 54.545165 
L 103.686655 51.527835 
L 103.940546 54.545165 
L 104.194436 54.545165 
L 104.448326 53.539389 
L 104.956107 53.539389 
L 105.209997 55.550963 
L 105.463887 54.545165 
L 105.717777 52.533612 
L 105.971668 49.516261 
L 106.225558 55.550963 
L 106.479448 50.522037 
L 106.733338 49.516261 
L 106.987229 54.545165 
L 107.241119 50.522037 
L 107.495009 54.545165 
L 107.748899 52.533612 
L 108.00279 51.527835 
L 108.25668 53.539389 
L 108.76446 53.539389 
L 109.018351 54.545165 
L 109.272241 52.533612 
L 109.526131 51.527835 
L 109.780021 56.55674 
L 110.033912 52.533612 
L 110.287802 51.527835 
L 110.541692 53.539389 
L 110.795583 52.533612 
L 111.049473 53.539389 
L 111.303363 52.533612 
L 111.557253 57.562517 
L 111.811144 52.533612 
L 112.065034 51.527835 
L 112.572814 56.55674 
L 112.826705 50.522037 
L 113.080595 52.533612 
L 113.334485 53.539389 
L 113.588375 49.516261 
L 114.096156 54.545165 
L 114.350046 50.522037 
L 114.603936 55.550963 
L 115.111717 53.539389 
L 115.619497 53.539389 
L 115.873388 52.533612 
L 116.127278 54.545165 
L 116.381168 53.539389 
L 116.635058 50.522037 
L 116.888949 51.527835 
L 117.142839 51.527835 
L 117.396729 50.522037 
L 117.650619 52.533612 
L 117.90451 50.522037 
L 118.1584 50.522037 
L 118.66618 54.545165 
L 118.920071 50.522037 
L 119.173961 51.527835 
L 119.427851 54.545165 
L 119.935632 50.522037 
L 120.189522 51.527835 
L 120.443412 53.539389 
L 120.697302 52.533612 
L 120.951193 50.522037 
L 121.205083 49.516261 
L 121.458973 51.527835 
L 121.712863 52.533612 
L 121.966754 52.533612 
L 122.474534 56.55674 
L 122.982315 49.516261 
L 123.236205 54.545165 
L 123.490095 52.533612 
L 123.743985 49.516261 
L 123.997876 50.522037 
L 124.251766 48.510484 
L 125.013437 51.527835 
L 125.267327 49.516261 
L 125.521217 51.527835 
L 125.775107 54.545165 
L 126.028998 54.545165 
L 126.282888 48.510484 
L 126.536778 49.516261 
L 126.790669 52.533612 
L 127.044559 53.539389 
L 127.298449 52.533612 
L 127.552339 47.504707 
L 128.06012 52.533612 
L 128.31401 52.533612 
L 128.5679 54.545165 
L 128.821791 49.516261 
L 129.075681 51.527835 
L 129.329571 52.533612 
L 129.583461 56.55674 
L 129.837352 54.545165 
L 130.091242 51.527835 
L 130.345132 51.527835 
L 130.599022 53.539389 
L 130.852913 53.539389 
L 131.106803 50.522037 
L 131.360693 50.522037 
L 131.614583 51.527835 
L 131.868474 50.522037 
L 132.122364 52.533612 
L 132.376254 51.527835 
L 132.630144 52.533612 
L 132.884035 54.545165 
L 133.137925 51.527835 
L 133.645705 53.539389 
L 134.153486 49.516261 
L 134.407376 53.539389 
L 134.661266 52.533612 
L 134.915157 52.533612 
L 135.169047 48.510484 
L 135.676827 52.533612 
L 135.930718 51.527835 
L 136.184608 51.527835 
L 136.438498 49.516261 
L 136.692388 52.533612 
L 136.946279 52.533612 
L 137.200169 50.522037 
L 137.454059 51.527835 
L 137.707949 54.545165 
L 137.96184 52.533612 
L 138.21573 54.545165 
L 138.46962 50.522037 
L 138.72351 51.527835 
L 138.977401 50.522037 
L 139.231291 52.533612 
L 139.485181 49.516261 
L 139.739071 54.545165 
L 139.992962 48.510484 
L 140.246852 50.522037 
L 140.754632 52.533612 
L 141.008523 50.522037 
L 141.262413 52.533612 
L 141.516303 53.539389 
L 141.770193 50.522037 
L 142.024084 50.522037 
L 142.277974 53.539389 
L 142.531864 51.527835 
L 142.785755 52.533612 
L 143.039645 52.533612 
L 143.293535 54.545165 
L 143.547425 49.516261 
L 143.801316 51.527835 
L 144.055206 52.533612 
L 144.309096 50.522037 
L 144.562986 52.533612 
L 144.816877 52.533612 
L 145.070767 49.516261 
L 145.578547 53.539389 
L 145.832438 52.533612 
L 146.086328 49.516261 
L 146.340218 49.516261 
L 146.594108 50.522037 
L 146.847999 52.533612 
L 147.101889 49.516261 
L 147.355779 52.533612 
L 147.609669 53.539389 
L 147.86356 52.533612 
L 148.11745 49.516261 
L 148.37134 51.527835 
L 148.62523 50.522037 
L 148.879121 48.510484 
L 149.133011 52.533612 
L 149.386901 52.533612 
L 149.640791 48.510484 
L 150.148572 52.533612 
L 150.402462 53.539389 
L 150.656352 50.522037 
L 150.910243 53.539389 
L 151.164133 52.533612 
L 151.418023 52.533612 
L 151.671913 53.539389 
L 151.925804 49.516261 
L 152.179694 47.504707 
L 152.433584 51.527835 
L 152.687474 50.522037 
L 152.941365 51.527835 
L 153.195255 51.527835 
L 153.449145 52.533612 
L 153.703035 50.522037 
L 153.956926 53.539389 
L 154.210816 51.527835 
L 154.464706 51.527835 
L 154.718596 50.522037 
L 154.972487 51.527835 
L 155.226377 51.527835 
L 155.480267 50.522037 
L 155.734157 53.539389 
L 155.988048 52.533612 
L 156.241938 55.550963 
L 156.495828 52.533612 
L 156.749718 52.533612 
L 157.003609 49.516261 
L 157.257499 53.539389 
L 157.511389 49.516261 
L 157.765279 49.516261 
L 158.01917 50.522037 
L 158.27306 49.516261 
L 158.52695 49.516261 
L 158.78084 48.510484 
L 159.034731 51.527835 
L 159.288621 52.533612 
L 159.796402 52.533612 
L 160.050292 49.516261 
L 160.304182 53.539389 
L 160.811963 51.527835 
L 161.065853 51.527835 
L 161.319743 50.522037 
L 161.573633 52.533612 
L 161.827524 53.539389 
L 162.081414 48.510484 
L 162.335304 52.533612 
L 162.589194 51.527835 
L 162.843085 49.516261 
L 163.096975 54.545165 
L 163.350865 50.522037 
L 163.604755 50.522037 
L 163.858646 46.498909 
L 164.112536 53.539389 
L 164.366426 51.527835 
L 164.620316 52.533612 
L 164.874207 48.510484 
L 165.128097 49.516261 
L 165.381987 51.527835 
L 165.635877 51.527835 
L 165.889768 49.516261 
L 166.143658 53.539389 
L 166.397548 49.516261 
L 166.651438 49.516261 
L 166.905329 55.550963 
L 167.159219 53.539389 
L 167.413109 49.516261 
L 167.666999 50.522037 
L 167.92089 53.539389 
L 168.17478 49.516261 
L 168.42867 51.527835 
L 168.68256 51.527835 
L 168.936451 50.522037 
L 169.190341 53.539389 
L 169.444231 52.533612 
L 169.698121 50.522037 
L 169.952012 50.522037 
L 170.205902 54.545165 
L 170.459792 54.545165 
L 170.713682 50.522037 
L 170.967573 51.527835 
L 171.475353 49.516261 
L 171.729243 53.539389 
L 171.983134 48.510484 
L 172.237024 51.527835 
L 172.490914 52.533612 
L 172.744804 51.527835 
L 172.998695 53.539389 
L 173.252585 53.539389 
L 173.506475 49.516261 
L 173.760365 52.533612 
L 174.014256 47.504707 
L 174.268146 52.533612 
L 174.522036 52.533612 
L 175.029817 50.522037 
L 175.283707 52.533612 
L 175.537597 47.504707 
L 176.045378 49.516261 
L 176.299268 52.533612 
L 176.553158 50.522037 
L 177.060939 50.522037 
L 177.314829 49.516261 
L 177.568719 50.522037 
L 177.82261 52.533612 
L 178.0765 52.533612 
L 178.33039 50.522037 
L 178.58428 50.522037 
L 178.838171 51.527835 
L 179.092061 53.539389 
L 179.345951 53.539389 
L 179.599841 49.516261 
L 179.853732 52.533612 
L 180.107622 52.533612 
L 180.615402 50.522037 
L 180.869293 51.527835 
L 181.123183 57.562517 
L 181.377073 50.522037 
L 181.884854 54.545165 
L 182.138744 52.533612 
L 182.392634 52.533612 
L 182.646524 49.516261 
L 182.900415 51.527835 
L 183.154305 50.522037 
L 183.408195 51.527835 
L 183.662085 51.527835 
L 183.915976 52.533612 
L 184.169866 49.516261 
L 184.423756 48.510484 
L 184.677646 51.527835 
L 184.931537 50.522037 
L 185.439317 50.522037 
L 185.693207 47.504707 
L 185.947098 48.510484 
L 186.200988 55.550963 
L 186.454878 51.527835 
L 186.708768 51.527835 
L 186.962659 53.539389 
L 187.470439 46.498909 
L 187.724329 54.545165 
L 187.97822 50.522037 
L 188.23211 50.522037 
L 188.486 51.527835 
L 188.73989 48.510484 
L 188.993781 52.533612 
L 189.247671 48.510484 
L 189.501561 52.533612 
L 189.755451 52.533612 
L 190.009342 49.516261 
L 190.263232 52.533612 
L 190.771012 50.522037 
L 191.024903 50.522037 
L 191.278793 48.510484 
L 191.532683 54.545165 
L 191.786574 51.527835 
L 192.040464 53.539389 
L 192.294354 47.504707 
L 192.802135 51.527835 
L 193.056025 48.510484 
L 193.563805 52.533612 
L 193.817696 51.527835 
L 194.071586 54.545165 
L 194.325476 54.545165 
L 194.579366 50.522037 
L 194.833257 52.533612 
L 195.087147 55.550963 
L 195.341037 50.522037 
L 195.594927 51.527835 
L 195.848818 51.527835 
L 196.102708 49.516261 
L 196.356598 48.510484 
L 196.610488 52.533612 
L 196.864379 50.522037 
L 197.118269 54.545165 
L 197.372159 50.522037 
L 197.626049 54.545165 
L 197.87994 54.545165 
L 198.13383 49.516261 
L 198.38772 54.545165 
L 198.64161 50.522037 
L 198.895501 51.527835 
L 199.149391 49.516261 
L 199.403281 52.533612 
L 199.657171 49.516261 
L 199.911062 52.533612 
L 200.164952 52.533612 
L 200.418842 54.545165 
L 200.672732 52.533612 
L 200.926623 49.516261 
L 201.434403 51.527835 
L 201.688293 51.527835 
L 201.942184 49.516261 
L 202.196074 48.510484 
L 202.449964 50.522037 
L 202.703854 51.527835 
L 202.957745 53.539389 
L 203.211635 49.516261 
L 203.465525 49.516261 
L 203.719415 52.533612 
L 203.973306 49.516261 
L 204.227196 49.516261 
L 204.734976 51.527835 
L 204.988867 55.550963 
L 205.242757 53.539389 
L 205.496647 49.516261 
L 205.750537 50.522037 
L 206.004428 52.533612 
L 206.258318 52.533612 
L 207.019989 49.516261 
L 207.273879 53.539389 
L 207.527769 51.527835 
L 207.78166 51.527835 
L 208.03555 54.545165 
L 208.28944 52.533612 
L 208.54333 53.539389 
L 208.797221 50.522037 
L 209.305001 54.545165 
L 209.812782 50.522037 
L 210.066672 49.516261 
L 210.320562 53.539389 
L 210.574452 51.527835 
L 210.828343 51.527835 
L 211.082233 49.516261 
L 211.336123 50.522037 
L 211.590013 48.510484 
L 211.843904 51.527835 
L 212.097794 52.533612 
L 212.605574 50.522037 
L 212.859465 53.539389 
L 213.113355 52.533612 
L 213.367245 54.545165 
L 213.621135 53.539389 
L 213.875026 49.516261 
L 214.128916 53.539389 
L 214.382806 52.533612 
L 214.890587 52.533612 
L 215.398367 50.522037 
L 215.652257 51.527835 
L 215.906148 53.539389 
L 216.160038 51.527835 
L 216.413928 48.510484 
L 216.667818 51.527835 
L 216.921709 52.533612 
L 217.175599 54.545165 
L 217.429489 52.533612 
L 217.683379 51.527835 
L 217.93727 52.533612 
L 218.19116 54.545165 
L 218.44505 51.527835 
L 218.69894 53.539389 
L 218.952831 54.545165 
L 219.206721 48.510484 
L 219.460611 53.539389 
L 219.714501 53.539389 
L 219.968392 52.533612 
L 220.222282 50.522037 
L 220.476172 49.516261 
L 220.983953 49.516261 
L 221.237843 54.545165 
L 221.491733 50.522037 
L 221.745623 53.539389 
L 221.999514 51.527835 
L 222.253404 52.533612 
L 222.761184 50.522037 
L 223.015075 48.510484 
L 223.522855 53.539389 
L 223.776745 52.533612 
L 224.030636 49.516261 
L 224.284526 50.522037 
L 224.538416 53.539389 
L 224.792307 49.516261 
L 225.046197 49.516261 
L 225.553977 51.527835 
L 225.807868 50.522037 
L 226.061758 50.522037 
L 226.315648 52.533612 
L 226.569538 55.550963 
L 226.823429 50.522037 
L 227.077319 51.527835 
L 227.331209 51.527835 
L 227.585099 48.510484 
L 227.83899 51.527835 
L 228.09288 48.510484 
L 228.34677 49.516261 
L 228.60066 51.527835 
L 228.854551 52.533612 
L 229.108441 51.527835 
L 229.362331 52.533612 
L 229.616221 52.533612 
L 229.870112 53.539389 
L 230.124002 52.533612 
L 230.377892 49.516261 
L 230.631782 52.533612 
L 230.885673 51.527835 
L 231.139563 49.516261 
L 231.393453 52.533612 
L 231.647343 51.527835 
L 231.901234 49.516261 
L 232.155124 48.510484 
L 232.409014 50.522037 
L 232.662904 55.550963 
L 232.916795 48.510484 
L 233.424575 53.539389 
L 233.678465 51.527835 
L 233.932356 53.539389 
L 234.186246 53.539389 
L 234.440136 51.527835 
L 234.694026 53.539389 
L 234.947917 54.545165 
L 235.201807 49.516261 
L 235.455697 50.522037 
L 235.709587 53.539389 
L 235.963478 53.539389 
L 236.217368 54.545165 
L 236.725148 50.522037 
L 236.979039 52.533612 
L 237.232929 50.522037 
L 237.486819 53.539389 
L 237.740709 54.545165 
L 237.9946 50.522037 
L 238.24849 50.522037 
L 238.50238 52.533612 
L 238.75627 50.522037 
L 239.264051 50.522037 
L 239.517941 48.510484 
L 239.771831 54.545165 
L 240.025722 51.527835 
L 240.279612 52.533612 
L 240.787393 50.522037 
L 241.041283 51.527835 
L 241.295173 49.516261 
L 241.802954 53.539389 
L 242.056844 48.510484 
L 242.310734 49.516261 
L 242.564624 49.516261 
L 242.818515 51.527835 
L 243.072405 49.516261 
L 243.326295 52.533612 
L 243.580185 51.527835 
L 243.834076 48.510484 
L 244.087966 50.522037 
L 244.341856 54.545165 
L 244.595746 52.533612 
L 244.849637 48.510484 
L 245.103527 52.533612 
L 245.357417 51.527835 
L 245.611307 51.527835 
L 245.865198 49.516261 
L 246.119088 49.516261 
L 246.372978 51.527835 
L 246.626868 49.516261 
L 246.880759 52.533612 
L 247.134649 47.504707 
L 247.388539 50.522037 
L 247.642429 50.522037 
L 247.89632 49.516261 
L 248.4041 51.527835 
L 248.65799 49.516261 
L 248.911881 52.533612 
L 249.165771 50.522037 
L 249.419661 52.533612 
L 249.927442 48.510484 
L 250.181332 54.545165 
L 250.435222 51.527835 
L 250.689112 51.527835 
L 250.943003 50.522037 
L 251.196893 53.539389 
L 251.450783 49.516261 
L 251.704673 51.527835 
L 251.958564 50.522037 
L 252.720234 53.539389 
L 252.974125 51.527835 
L 253.228015 54.545165 
L 253.481905 50.522037 
L 253.735795 53.539389 
L 253.989686 52.533612 
L 254.243576 53.539389 
L 254.497466 50.522037 
L 254.751356 53.539389 
L 255.005247 50.522037 
L 255.259137 50.522037 
L 255.513027 54.545165 
L 256.020808 49.516261 
L 256.274698 52.533612 
L 256.528588 50.522037 
L 256.782479 52.533612 
L 257.036369 48.510484 
L 257.290259 56.55674 
L 258.05193 48.510484 
L 258.30582 50.522037 
L 258.55971 51.527835 
L 258.813601 54.545165 
L 259.067491 53.539389 
L 259.321381 47.504707 
L 259.575271 52.533612 
L 259.829162 51.527835 
L 260.083052 51.527835 
L 260.336942 52.533612 
L 260.590832 55.550963 
L 260.844723 50.522037 
L 261.352503 50.522037 
L 261.606393 53.539389 
L 261.860284 49.516261 
L 262.114174 52.533612 
L 262.368064 49.516261 
L 262.875845 51.527835 
L 263.129735 49.516261 
L 263.383625 51.527835 
L 263.637515 49.516261 
L 263.891406 49.516261 
L 264.145296 50.522037 
L 264.399186 54.545165 
L 264.653076 49.516261 
L 265.160857 51.527835 
L 265.414747 54.545165 
L 265.668637 47.504707 
L 265.922528 49.516261 
L 266.176418 48.510484 
L 266.430308 50.522037 
L 266.684198 53.539389 
L 266.938089 51.527835 
L 267.191979 48.510484 
L 267.445869 48.510484 
L 267.699759 49.516261 
L 267.95365 51.527835 
L 268.20754 52.533612 
L 268.46143 52.533612 
L 268.71532 47.504707 
L 269.223101 54.545165 
L 269.730881 50.522037 
L 269.984772 51.527835 
L 270.238662 49.516261 
L 270.492552 54.545165 
L 270.746442 48.510484 
L 271.000333 49.516261 
L 271.254223 52.533612 
L 272.015894 52.533612 
L 272.269784 50.522037 
L 272.523674 50.522037 
L 272.777564 51.527835 
L 273.539235 48.510484 
L 273.793126 48.510484 
L 274.047016 49.516261 
L 274.300906 52.533612 
L 274.554796 50.522037 
L 274.808687 52.533612 
L 275.062577 50.522037 
L 275.570357 54.545165 
L 276.078138 49.516261 
L 276.332028 52.533612 
L 276.585918 52.533612 
L 276.839809 49.516261 
L 277.093699 51.527835 
L 277.601479 49.516261 
L 277.85537 53.539389 
L 278.10926 52.533612 
L 278.36315 48.510484 
L 278.61704 46.498909 
L 278.870931 50.522037 
L 279.124821 49.516261 
L 279.378711 52.533612 
L 280.140382 49.516261 
L 280.394272 51.527835 
L 280.648162 50.522037 
L 280.902053 54.545165 
L 281.409833 54.545165 
L 281.663723 50.522037 
L 282.171504 54.545165 
L 282.425394 51.527835 
L 282.679284 51.527835 
L 282.933175 54.545165 
L 283.187065 53.539389 
L 283.440955 48.510484 
L 283.694845 49.516261 
L 283.948736 51.527835 
L 284.202626 51.527835 
L 284.456516 48.510484 
L 284.710406 49.516261 
L 284.964297 52.533612 
L 285.218187 48.510484 
L 285.472077 49.516261 
L 285.725967 54.545165 
L 285.979858 50.522037 
L 286.233748 49.516261 
L 286.487638 53.539389 
L 286.741528 49.516261 
L 286.995419 51.527835 
L 287.249309 51.527835 
L 287.503199 48.510484 
L 287.757089 51.527835 
L 288.26487 51.527835 
L 288.51876 53.539389 
L 288.77265 50.522037 
L 289.026541 53.539389 
L 289.280431 52.533612 
L 289.534321 50.522037 
L 289.788212 51.527835 
L 290.042102 51.527835 
L 290.295992 53.539389 
L 290.549882 52.533612 
L 290.803773 49.516261 
L 291.057663 51.527835 
L 291.311553 49.516261 
L 291.565443 52.533612 
L 291.819334 51.527835 
L 292.073224 52.533612 
L 292.327114 50.522037 
L 292.834895 52.533612 
L 293.088785 50.522037 
L 293.342675 52.533612 
L 293.596565 49.516261 
L 293.850456 52.533612 
L 294.104346 50.522037 
L 294.358236 54.545165 
L 294.612126 52.533612 
L 294.866017 55.550963 
L 295.119907 51.527835 
L 295.373797 51.527835 
L 295.627687 50.522037 
L 295.881578 51.527835 
L 296.135468 51.527835 
L 296.389358 48.510484 
L 296.643248 47.504707 
L 296.897139 48.510484 
L 297.151029 51.527835 
L 297.404919 50.522037 
L 297.658809 50.522037 
L 297.9127 49.516261 
L 298.16659 51.527835 
L 298.42048 51.527835 
L 298.67437 50.522037 
L 298.928261 50.522037 
L 299.182151 49.516261 
L 299.689931 49.516261 
L 299.943822 51.527835 
L 300.197712 52.533612 
L 300.451602 52.533612 
L 300.705492 51.527835 
L 300.959383 49.516261 
L 301.213273 51.527835 
L 301.467163 50.522037 
L 301.721053 53.539389 
L 301.974944 53.539389 
L 302.228834 54.545165 
L 302.482724 51.527835 
L 302.736614 50.522037 
L 302.990505 52.533612 
L 303.244395 50.522037 
L 303.752175 52.533612 
L 304.006066 47.504707 
L 304.259956 50.522037 
L 304.513846 49.516261 
L 304.767736 51.527835 
L 305.021627 52.533612 
L 305.275517 51.527835 
L 305.529407 48.510484 
L 305.783298 51.527835 
L 306.544968 51.527835 
L 306.798859 52.533612 
L 307.052749 50.522037 
L 307.306639 50.522037 
L 307.560529 53.539389 
L 307.81442 50.522037 
L 308.06831 52.533612 
L 308.3222 53.539389 
L 308.57609 50.522037 
L 308.829981 52.533612 
L 309.083871 56.55674 
L 309.337761 51.527835 
L 309.591651 54.545165 
L 309.845542 50.522037 
L 310.099432 53.539389 
L 310.099432 53.539389 
" clip-path="url(#p5777567df1)" style="fill: none; stroke: #0000ff; stroke-width: 0.6; stroke-linecap: square"/>
   </g>
   <g id="line2d_26">
    <path d="M 56.463068 216.489374 
L 56.716958 218.83178 
L 56.970849 207.119711 
L 57.224739 216.489374 
L 57.478629 188.380405 
L 57.732519 193.065237 
L 57.98641 218.83178 
L 58.49419 188.380405 
L 58.74808 193.065237 
L 59.001971 214.146948 
L 59.255861 188.380405 
L 59.509751 202.434879 
L 59.763641 200.092474 
L 60.017532 190.72281 
L 60.271422 186.037979 
L 60.525312 176.668336 
L 60.779202 183.695573 
L 61.033093 171.983505 
L 61.286983 176.668336 
L 61.540873 169.641078 
L 61.794764 174.32591 
L 62.048654 155.586604 
L 62.302544 174.32591 
L 62.556434 169.641078 
L 62.810325 171.983505 
L 63.318105 153.244178 
L 63.571995 160.271436 
L 63.825886 155.586604 
L 64.079776 155.586604 
L 64.333666 150.901772 
L 64.587556 148.559367 
L 65.095337 127.477635 
L 65.603117 139.189704 
L 65.857008 127.477635 
L 66.110898 141.532109 
L 66.364788 134.504872 
L 66.618678 136.847277 
L 66.872569 134.504872 
L 67.126459 134.504872 
L 67.380349 132.162467 
L 67.634239 136.847277 
L 67.88813 127.477635 
L 68.14202 139.189704 
L 68.39591 136.847277 
L 68.6498 136.847277 
L 69.157581 127.477635 
L 69.411471 125.135208 
L 69.665361 132.162467 
L 69.919252 129.82004 
L 70.173142 134.504872 
L 70.427032 136.847277 
L 70.680922 132.162467 
L 70.934813 129.82004 
L 71.188703 141.532109 
L 71.442593 127.477635 
L 71.696483 136.847277 
L 71.950374 122.792803 
L 72.204264 129.82004 
L 72.458154 143.874535 
L 72.712044 115.765566 
L 72.965935 132.162467 
L 73.219825 122.792803 
L 73.473715 120.450377 
L 73.727605 132.162467 
L 73.981496 118.107971 
L 74.235386 113.42314 
L 74.489276 122.792803 
L 74.743166 125.135208 
L 74.997057 113.42314 
L 75.250947 132.162467 
L 75.504837 118.107971 
L 76.012618 127.477635 
L 76.266508 139.189704 
L 76.520398 134.504872 
L 76.774288 122.792803 
L 77.028179 136.847277 
L 77.282069 141.532109 
L 77.535959 115.765566 
L 77.78985 122.792803 
L 78.04374 115.765566 
L 78.29763 113.42314 
L 78.55152 132.162467 
L 78.805411 127.477635 
L 79.059301 111.080734 
L 79.313191 132.162467 
L 79.567081 129.82004 
L 79.820972 132.162467 
L 80.074862 132.162467 
L 80.328752 113.42314 
L 80.582642 143.874535 
L 80.836533 120.450377 
L 81.344313 129.82004 
L 81.598203 122.792803 
L 81.852094 122.792803 
L 82.105984 127.477635 
L 82.359874 141.532109 
L 82.613764 129.82004 
L 82.867655 129.82004 
L 83.121545 127.477635 
L 83.375435 132.162467 
L 83.629325 122.792803 
L 83.883216 122.792803 
L 84.137106 129.82004 
L 84.390996 120.450377 
L 84.644886 122.792803 
L 84.898777 139.189704 
L 85.152667 125.135208 
L 85.406557 132.162467 
L 85.660447 118.107971 
L 85.914338 132.162467 
L 86.168228 139.189704 
L 86.422118 136.847277 
L 86.676008 122.792803 
L 87.183789 132.162467 
L 87.437679 122.792803 
L 87.691569 129.82004 
L 87.94546 132.162467 
L 88.45324 118.107971 
L 88.961021 136.847277 
L 89.214911 129.82004 
L 89.468801 134.504872 
L 89.976582 129.82004 
L 90.230472 122.792803 
L 90.484362 122.792803 
L 90.738252 127.477635 
L 90.992143 118.107971 
L 91.246033 134.504872 
L 91.753813 125.135208 
L 92.007704 134.504872 
L 92.261594 132.162467 
L 92.515484 134.504872 
L 92.769374 129.82004 
L 93.023265 132.162467 
L 93.277155 129.82004 
L 93.531045 125.135208 
L 93.784936 127.477635 
L 94.038826 134.504872 
L 94.292716 125.135208 
L 94.546606 132.162467 
L 94.800497 125.135208 
L 95.054387 129.82004 
L 95.308277 125.135208 
L 95.562167 129.82004 
L 95.816058 132.162467 
L 96.069948 125.135208 
L 96.323838 125.135208 
L 96.577728 127.477635 
L 97.085509 127.477635 
L 97.593289 132.162467 
L 97.84718 132.162467 
L 98.10107 125.135208 
L 98.35496 127.477635 
L 98.60885 136.847277 
L 99.116631 120.450377 
L 99.370521 125.135208 
L 99.624411 134.504872 
L 100.132192 122.792803 
L 100.386082 129.82004 
L 100.639972 129.82004 
L 100.893863 127.477635 
L 101.147753 134.504872 
L 101.401643 125.135208 
L 101.655533 132.162467 
L 101.909424 127.477635 
L 102.163314 127.477635 
L 102.417204 132.162467 
L 102.671094 122.792803 
L 102.924985 125.135208 
L 103.178875 132.162467 
L 103.432765 127.477635 
L 103.686655 132.162467 
L 103.940546 127.477635 
L 104.194436 129.82004 
L 104.448326 122.792803 
L 104.702216 127.477635 
L 104.956107 129.82004 
L 105.209997 125.135208 
L 105.717777 125.135208 
L 105.971668 127.477635 
L 106.479448 127.477635 
L 106.733338 129.82004 
L 106.987229 129.82004 
L 107.241119 127.477635 
L 107.495009 129.82004 
L 107.748899 134.504872 
L 108.00279 127.477635 
L 108.25668 125.135208 
L 108.51057 127.477635 
L 108.76446 127.477635 
L 109.018351 125.135208 
L 109.272241 127.477635 
L 109.526131 125.135208 
L 109.780021 125.135208 
L 110.033912 129.82004 
L 110.287802 125.135208 
L 110.795583 129.82004 
L 111.049473 129.82004 
L 111.303363 125.135208 
L 111.557253 129.82004 
L 111.811144 129.82004 
L 112.065034 127.477635 
L 112.318924 129.82004 
L 112.572814 129.82004 
L 112.826705 125.135208 
L 113.080595 125.135208 
L 113.334485 129.82004 
L 113.588375 129.82004 
L 113.842266 132.162467 
L 114.603936 125.135208 
L 114.857827 125.135208 
L 115.111717 129.82004 
L 115.365607 127.477635 
L 115.619497 127.477635 
L 115.873388 129.82004 
L 116.127278 125.135208 
L 116.381168 125.135208 
L 116.635058 129.82004 
L 116.888949 129.82004 
L 117.142839 127.477635 
L 117.396729 127.477635 
L 117.650619 125.135208 
L 117.90451 125.135208 
L 118.1584 129.82004 
L 118.41229 125.135208 
L 118.920071 125.135208 
L 119.173961 122.792803 
L 119.427851 127.477635 
L 119.681741 125.135208 
L 119.935632 129.82004 
L 120.189522 125.135208 
L 120.443412 125.135208 
L 120.697302 127.477635 
L 121.458973 127.477635 
L 121.712863 125.135208 
L 121.966754 125.135208 
L 122.220644 129.82004 
L 122.474534 127.477635 
L 122.728424 129.82004 
L 122.982315 125.135208 
L 123.490095 129.82004 
L 123.743985 129.82004 
L 124.251766 125.135208 
L 124.505656 127.477635 
L 124.759546 132.162467 
L 125.267327 132.162467 
L 125.521217 127.477635 
L 126.536778 127.477635 
L 126.790669 125.135208 
L 127.298449 129.82004 
L 127.80623 129.82004 
L 128.06012 127.477635 
L 128.31401 129.82004 
L 128.5679 125.135208 
L 129.075681 129.82004 
L 129.583461 125.135208 
L 129.837352 127.477635 
L 130.345132 127.477635 
L 130.599022 129.82004 
L 130.852913 127.477635 
L 131.106803 127.477635 
L 131.360693 125.135208 
L 131.614583 127.477635 
L 131.868474 127.477635 
L 132.122364 125.135208 
L 132.630144 129.82004 
L 132.884035 127.477635 
L 133.899596 127.477635 
L 134.153486 129.82004 
L 134.407376 125.135208 
L 134.915157 125.135208 
L 135.169047 127.477635 
L 135.422937 125.135208 
L 135.676827 127.477635 
L 135.930718 127.477635 
L 136.184608 125.135208 
L 136.438498 127.477635 
L 136.692388 127.477635 
L 136.946279 129.82004 
L 137.200169 127.477635 
L 137.454059 127.477635 
L 137.707949 129.82004 
L 137.96184 129.82004 
L 138.21573 127.477635 
L 138.46962 127.477635 
L 138.72351 129.82004 
L 138.977401 127.477635 
L 139.231291 127.477635 
L 139.485181 129.82004 
L 139.739071 127.477635 
L 139.992962 129.82004 
L 140.246852 129.82004 
L 140.500742 127.477635 
L 141.008523 127.477635 
L 141.262413 125.135208 
L 141.516303 125.135208 
L 141.770193 129.82004 
L 142.024084 127.477635 
L 142.277974 129.82004 
L 142.531864 125.135208 
L 142.785755 127.477635 
L 143.801316 127.477635 
L 144.055206 129.82004 
L 144.309096 129.82004 
L 144.562986 127.477635 
L 144.816877 129.82004 
L 145.070767 127.477635 
L 145.578547 127.477635 
L 145.832438 129.82004 
L 147.101889 129.82004 
L 147.355779 127.477635 
L 147.609669 129.82004 
L 149.133011 129.82004 
L 149.386901 132.162467 
L 149.640791 129.82004 
L 149.894682 129.82004 
L 150.148572 127.477635 
L 150.402462 127.477635 
L 150.656352 125.135208 
L 150.910243 125.135208 
L 151.164133 127.477635 
L 151.418023 127.477635 
L 151.671913 125.135208 
L 151.925804 129.82004 
L 152.179694 127.477635 
L 152.687474 127.477635 
L 152.941365 129.82004 
L 153.956926 129.82004 
L 154.210816 127.477635 
L 154.718596 127.477635 
L 154.972487 125.135208 
L 155.226377 129.82004 
L 155.988048 129.82004 
L 156.241938 127.477635 
L 161.319743 127.477635 
L 161.573633 129.82004 
L 162.081414 129.82004 
L 162.335304 127.477635 
L 165.381987 127.477635 
L 165.635877 129.82004 
L 169.444231 129.82004 
L 169.698121 127.477635 
L 169.952012 129.82004 
L 172.744804 129.82004 
L 172.998695 127.477635 
L 174.775926 127.477635 
L 175.029817 129.82004 
L 177.314829 129.82004 
L 177.568719 127.477635 
L 186.454878 127.477635 
L 186.708768 129.82004 
L 188.23211 129.82004 
L 188.486 127.477635 
L 188.73989 129.82004 
L 188.993781 127.477635 
L 191.532683 127.477635 
L 191.786574 129.82004 
L 194.579366 129.82004 
L 194.833257 127.477635 
L 197.626049 127.477635 
L 197.87994 129.82004 
L 200.164952 129.82004 
L 200.418842 127.477635 
L 203.719415 127.477635 
L 203.973306 129.82004 
L 310.099432 129.82004 
L 310.099432 129.82004 
" clip-path="url(#p5777567df1)" style="fill: none; stroke: #ff0000; stroke-width: 0.6; stroke-linecap: square"/>
   </g>
   <g id="patch_3">
    <path d="M 43.78125 239.76 
L 43.78125 37.296 
" style="fill: none; stroke: #000000; stroke-width: 0.8; stroke-linejoin: miter; stroke-linecap: square"/>
   </g>
   <g id="patch_4">
    <path d="M 322.78125 239.76 
L 322.78125 37.296 
" style="fill: none; stroke: #000000; stroke-width: 0.8; stroke-linejoin: miter; stroke-linecap: square"/>
   </g>
   <g id="patch_5">
    <path d="M 43.78125 239.76 
L 322.78125 239.76 
" style="fill: none; stroke: #000000; stroke-width: 0.8; stroke-linejoin: miter; stroke-linecap: square"/>
   </g>
   <g id="patch_6">
    <path d="M 43.78125 37.296 
L 322.78125 37.296 
" style="fill: none; stroke: #000000; stroke-width: 0.8; stroke-linejoin: miter; stroke-linecap: square"/>
   </g>
   <g id="text_15">
    <!-- Baseline Model -->
    <g transform="translate(149.259844 31.296) scale(0.09 -0.09)">
     <defs>
      <path id="DejaVuSans-42" d="M 1259 2228 
L 1259 519 
L 2272 519 
Q 2781 519 3026 730 
Q 3272 941 3272 1375 
Q 3272 1813 3026 2020 
Q 2781 2228 2272 2228 
L 1259 2228 
z
M 1259 4147 
L 1259 2741 
L 2194 2741 
Q 2656 2741 2882 2914 
Q 3109 3088 3109 3444 
Q 3109 3797 2882 3972 
Q 2656 4147 2194 4147 
L 1259 4147 
z
M 628 4666 
L 2241 4666 
Q 2963 4666 3353 4366 
Q 3744 4066 3744 3513 
Q 3744 3084 3544 2831 
Q 3344 2578 2956 2516 
Q 3422 2416 3680 2098 
Q 3938 1781 3938 1306 
Q 3938 681 3513 340 
Q 3088 0 2303 0 
L 628 0 
L 628 4666 
z
" transform="scale(0.015625)"/>
      <path id="DejaVuSans-65" d="M 3597 1894 
L 3597 1613 
L 953 1613 
Q 991 1019 1311 708 
Q 1631 397 2203 397 
Q 2534 397 2845 478 
Q 3156 559 3463 722 
L 3463 178 
Q 3153 47 2828 -22 
Q 2503 -91 2169 -91 
Q 1331 -91 842 396 
Q 353 884 353 1716 
Q 353 2575 817 3079 
Q 1281 3584 2069 3584 
Q 2775 3584 3186 3129 
Q 3597 2675 3597 1894 
z
M 3022 2063 
Q 3016 2534 2758 2815 
Q 2500 3097 2075 3097 
Q 1594 3097 1305 2825 
Q 1016 2553 972 2059 
L 3022 2063 
z
" transform="scale(0.015625)"/>
      <path id="DejaVuSans-6c" d="M 603 4863 
L 1178 4863 
L 1178 0 
L 603 0 
L 603 4863 
z
" transform="scale(0.015625)"/>
      <path id="DejaVuSans-69" d="M 603 3500 
L 1178 3500 
L 1178 0 
L 603 0 
L 603 3500 
z
M 603 4863 
L 1178 4863 
L 1178 4134 
L 603 4134 
L 603 4863 
z
" transform="scale(0.015625)"/>
      <path id="DejaVuSans-6e" d="M 3513 2113 
L 3513 0 
L 2938 0 
L 2938 2094 
Q 2938 2591 2744 2837 
Q 2550 3084 2163 3084 
Q 1697 3084 1428 2787 
Q 1159 2491 1159 1978 
L 1159 0 
L 581 0 
L 581 3500 
L 1159 3500 
L 1159 2956 
Q 1366 3272 1645 3428 
Q 1925 3584 2291 3584 
Q 2894 3584 3203 3211 
Q 3513 2838 3513 2113 
z
" transform="scale(0.015625)"/>
      <path id="DejaVuSans-20" transform="scale(0.015625)"/>
      <path id="DejaVuSans-4d" d="M 628 4666 
L 1569 4666 
L 2759 1491 
L 3956 4666 
L 4897 4666 
L 4897 0 
L 4281 0 
L 4281 4097 
L 3078 897 
L 2444 897 
L 1241 4097 
L 1241 0 
L 628 0 
L 628 4666 
z
" transform="scale(0.015625)"/>
      <path id="DejaVuSans-64" d="M 2906 2969 
L 2906 4863 
L 3481 4863 
L 3481 0 
L 2906 0 
L 2906 525 
Q 2725 213 2448 61 
Q 2172 -91 1784 -91 
Q 1150 -91 751 415 
Q 353 922 353 1747 
Q 353 2572 751 3078 
Q 1150 3584 1784 3584 
Q 2172 3584 2448 3432 
Q 2725 3281 2906 2969 
z
M 947 1747 
Q 947 1113 1208 752 
Q 1469 391 1925 391 
Q 2381 391 2643 752 
Q 2906 1113 2906 1747 
Q 2906 2381 2643 2742 
Q 2381 3103 1925 3103 
Q 1469 3103 1208 2742 
Q 947 2381 947 1747 
z
" transform="scale(0.015625)"/>
     </defs>
     <use xlink:href="#DejaVuSans-42"/>
     <use xlink:href="#DejaVuSans-61" x="68.603516"/>
     <use xlink:href="#DejaVuSans-73" x="129.882812"/>
     <use xlink:href="#DejaVuSans-65" x="181.982422"/>
     <use xlink:href="#DejaVuSans-6c" x="243.505859"/>
     <use xlink:href="#DejaVuSans-69" x="271.289062"/>
     <use xlink:href="#DejaVuSans-6e" x="299.072266"/>
     <use xlink:href="#DejaVuSans-65" x="362.451172"/>
     <use xlink:href="#DejaVuSans-20" x="423.974609"/>
     <use xlink:href="#DejaVuSans-4d" x="455.761719"/>
     <use xlink:href="#DejaVuSans-6f" x="542.041016"/>
     <use xlink:href="#DejaVuSans-64" x="603.222656"/>
     <use xlink:href="#DejaVuSans-65" x="666.699219"/>
     <use xlink:href="#DejaVuSans-6c" x="728.222656"/>
    </g>
   </g>
   <g id="legend_1">
    <g id="patch_7">
     <path d="M 185.565625 234.76 
L 315.78125 234.76 
Q 317.78125 234.76 317.78125 232.76 
L 317.78125 204.40375 
Q 317.78125 202.40375 315.78125 202.40375 
L 185.565625 202.40375 
Q 183.565625 202.40375 183.565625 204.40375 
L 183.565625 232.76 
Q 183.565625 234.76 185.565625 234.76 
z
" style="fill: #ffffff; opacity: 0.8; stroke: #cccccc; stroke-linejoin: miter"/>
    </g>
    <g id="line2d_27">
     <path d="M 187.565625 210.502187 
L 197.565625 210.502187 
L 207.565625 210.502187 
" style="fill: none; stroke: #0000ff; stroke-width: 0.6; stroke-linecap: square"/>
    </g>
    <g id="text_16">
     <!-- Training Accuracy -->
     <g transform="translate(215.565625 214.002187) scale(0.1 -0.1)">
      <defs>
       <path id="DejaVuSans-54" d="M -19 4666 
L 3928 4666 
L 3928 4134 
L 2272 4134 
L 2272 0 
L 1638 0 
L 1638 4134 
L -19 4134 
L -19 4666 
z
" transform="scale(0.015625)"/>
       <path id="DejaVuSans-67" d="M 2906 1791 
Q 2906 2416 2648 2759 
Q 2391 3103 1925 3103 
Q 1463 3103 1205 2759 
Q 947 2416 947 1791 
Q 947 1169 1205 825 
Q 1463 481 1925 481 
Q 2391 481 2648 825 
Q 2906 1169 2906 1791 
z
M 3481 434 
Q 3481 -459 3084 -895 
Q 2688 -1331 1869 -1331 
Q 1566 -1331 1297 -1286 
Q 1028 -1241 775 -1147 
L 775 -588 
Q 1028 -725 1275 -790 
Q 1522 -856 1778 -856 
Q 2344 -856 2625 -561 
Q 2906 -266 2906 331 
L 2906 616 
Q 2728 306 2450 153 
Q 2172 0 1784 0 
Q 1141 0 747 490 
Q 353 981 353 1791 
Q 353 2603 747 3093 
Q 1141 3584 1784 3584 
Q 2172 3584 2450 3431 
Q 2728 3278 2906 2969 
L 2906 3500 
L 3481 3500 
L 3481 434 
z
" transform="scale(0.015625)"/>
      </defs>
      <use xlink:href="#DejaVuSans-54"/>
      <use xlink:href="#DejaVuSans-72" x="46.333984"/>
      <use xlink:href="#DejaVuSans-61" x="87.447266"/>
      <use xlink:href="#DejaVuSans-69" x="148.726562"/>
      <use xlink:href="#DejaVuSans-6e" x="176.509766"/>
      <use xlink:href="#DejaVuSans-69" x="239.888672"/>
      <use xlink:href="#DejaVuSans-6e" x="267.671875"/>
      <use xlink:href="#DejaVuSans-67" x="331.050781"/>
      <use xlink:href="#DejaVuSans-20" x="394.527344"/>
      <use xlink:href="#DejaVuSans-41" x="426.314453"/>
      <use xlink:href="#DejaVuSans-63" x="492.972656"/>
      <use xlink:href="#DejaVuSans-63" x="547.953125"/>
      <use xlink:href="#DejaVuSans-75" x="602.933594"/>
      <use xlink:href="#DejaVuSans-72" x="666.3125"/>
      <use xlink:href="#DejaVuSans-61" x="707.425781"/>
      <use xlink:href="#DejaVuSans-63" x="768.705078"/>
      <use xlink:href="#DejaVuSans-79" x="823.685547"/>
     </g>
    </g>
    <g id="line2d_28">
     <path d="M 187.565625 225.180312 
L 197.565625 225.180312 
L 207.565625 225.180312 
" style="fill: none; stroke: #ff0000; stroke-width: 0.6; stroke-linecap: square"/>
    </g>
    <g id="text_17">
     <!-- Validation Accuracy -->
     <g transform="translate(215.565625 228.680312) scale(0.1 -0.1)">
      <defs>
       <path id="DejaVuSans-56" d="M 1831 0 
L 50 4666 
L 709 4666 
L 2188 738 
L 3669 4666 
L 4325 4666 
L 2547 0 
L 1831 0 
z
" transform="scale(0.015625)"/>
       <path id="DejaVuSans-74" d="M 1172 4494 
L 1172 3500 
L 2356 3500 
L 2356 3053 
L 1172 3053 
L 1172 1153 
Q 1172 725 1289 603 
Q 1406 481 1766 481 
L 2356 481 
L 2356 0 
L 1766 0 
Q 1100 0 847 248 
Q 594 497 594 1153 
L 594 3053 
L 172 3053 
L 172 3500 
L 594 3500 
L 594 4494 
L 1172 4494 
z
" transform="scale(0.015625)"/>
      </defs>
      <use xlink:href="#DejaVuSans-56"/>
      <use xlink:href="#DejaVuSans-61" x="60.658203"/>
      <use xlink:href="#DejaVuSans-6c" x="121.9375"/>
      <use xlink:href="#DejaVuSans-69" x="149.720703"/>
      <use xlink:href="#DejaVuSans-64" x="177.503906"/>
      <use xlink:href="#DejaVuSans-61" x="240.980469"/>
      <use xlink:href="#DejaVuSans-74" x="302.259766"/>
      <use xlink:href="#DejaVuSans-69" x="341.46875"/>
      <use xlink:href="#DejaVuSans-6f" x="369.251953"/>
      <use xlink:href="#DejaVuSans-6e" x="430.433594"/>
      <use xlink:href="#DejaVuSans-20" x="493.8125"/>
      <use xlink:href="#DejaVuSans-41" x="525.599609"/>
      <use xlink:href="#DejaVuSans-63" x="592.257812"/>
      <use xlink:href="#DejaVuSans-63" x="647.238281"/>
      <use xlink:href="#DejaVuSans-75" x="702.21875"/>
      <use xlink:href="#DejaVuSans-72" x="765.597656"/>
      <use xlink:href="#DejaVuSans-61" x="806.710938"/>
      <use xlink:href="#DejaVuSans-63" x="867.990234"/>
      <use xlink:href="#DejaVuSans-79" x="922.970703"/>
     </g>
    </g>
   </g>
  </g>
  <g id="text_18">
   <!-- Training VS. Validation Accuracy - Dataset Size = 10.0% -->
   <g transform="translate(24.933359 15.558281) scale(0.11 -0.11)">
    <defs>
     <path id="DejaVuSans-53" d="M 3425 4513 
L 3425 3897 
Q 3066 4069 2747 4153 
Q 2428 4238 2131 4238 
Q 1616 4238 1336 4038 
Q 1056 3838 1056 3469 
Q 1056 3159 1242 3001 
Q 1428 2844 1947 2747 
L 2328 2669 
Q 3034 2534 3370 2195 
Q 3706 1856 3706 1288 
Q 3706 609 3251 259 
Q 2797 -91 1919 -91 
Q 1588 -91 1214 -16 
Q 841 59 441 206 
L 441 856 
Q 825 641 1194 531 
Q 1563 422 1919 422 
Q 2459 422 2753 634 
Q 3047 847 3047 1241 
Q 3047 1584 2836 1778 
Q 2625 1972 2144 2069 
L 1759 2144 
Q 1053 2284 737 2584 
Q 422 2884 422 3419 
Q 422 4038 858 4394 
Q 1294 4750 2059 4750 
Q 2388 4750 2728 4690 
Q 3069 4631 3425 4513 
z
" transform="scale(0.015625)"/>
     <path id="DejaVuSans-2d" d="M 313 2009 
L 1997 2009 
L 1997 1497 
L 313 1497 
L 313 2009 
z
" transform="scale(0.015625)"/>
     <path id="DejaVuSans-44" d="M 1259 4147 
L 1259 519 
L 2022 519 
Q 2988 519 3436 956 
Q 3884 1394 3884 2338 
Q 3884 3275 3436 3711 
Q 2988 4147 2022 4147 
L 1259 4147 
z
M 628 4666 
L 1925 4666 
Q 3281 4666 3915 4102 
Q 4550 3538 4550 2338 
Q 4550 1131 3912 565 
Q 3275 0 1925 0 
L 628 0 
L 628 4666 
z
" transform="scale(0.015625)"/>
     <path id="DejaVuSans-7a" d="M 353 3500 
L 3084 3500 
L 3084 2975 
L 922 459 
L 3084 459 
L 3084 0 
L 275 0 
L 275 525 
L 2438 3041 
L 353 3041 
L 353 3500 
z
" transform="scale(0.015625)"/>
     <path id="DejaVuSans-3d" d="M 678 2906 
L 4684 2906 
L 4684 2381 
L 678 2381 
L 678 2906 
z
M 678 1631 
L 4684 1631 
L 4684 1100 
L 678 1100 
L 678 1631 
z
" transform="scale(0.015625)"/>
     <path id="DejaVuSans-25" d="M 4653 2053 
Q 4381 2053 4226 1822 
Q 4072 1591 4072 1178 
Q 4072 772 4226 539 
Q 4381 306 4653 306 
Q 4919 306 5073 539 
Q 5228 772 5228 1178 
Q 5228 1588 5073 1820 
Q 4919 2053 4653 2053 
z
M 4653 2450 
Q 5147 2450 5437 2106 
Q 5728 1763 5728 1178 
Q 5728 594 5436 251 
Q 5144 -91 4653 -91 
Q 4153 -91 3862 251 
Q 3572 594 3572 1178 
Q 3572 1766 3864 2108 
Q 4156 2450 4653 2450 
z
M 1428 4353 
Q 1159 4353 1004 4120 
Q 850 3888 850 3481 
Q 850 3069 1003 2837 
Q 1156 2606 1428 2606 
Q 1700 2606 1854 2837 
Q 2009 3069 2009 3481 
Q 2009 3884 1853 4118 
Q 1697 4353 1428 4353 
z
M 4250 4750 
L 4750 4750 
L 1831 -91 
L 1331 -91 
L 4250 4750 
z
M 1428 4750 
Q 1922 4750 2215 4408 
Q 2509 4066 2509 3481 
Q 2509 2891 2217 2550 
Q 1925 2209 1428 2209 
Q 931 2209 642 2551 
Q 353 2894 353 3481 
Q 353 4063 643 4406 
Q 934 4750 1428 4750 
z
" transform="scale(0.015625)"/>
    </defs>
    <use xlink:href="#DejaVuSans-54"/>
    <use xlink:href="#DejaVuSans-72" x="46.333984"/>
    <use xlink:href="#DejaVuSans-61" x="87.447266"/>
    <use xlink:href="#DejaVuSans-69" x="148.726562"/>
    <use xlink:href="#DejaVuSans-6e" x="176.509766"/>
    <use xlink:href="#DejaVuSans-69" x="239.888672"/>
    <use xlink:href="#DejaVuSans-6e" x="267.671875"/>
    <use xlink:href="#DejaVuSans-67" x="331.050781"/>
    <use xlink:href="#DejaVuSans-20" x="394.527344"/>
    <use xlink:href="#DejaVuSans-56" x="426.314453"/>
    <use xlink:href="#DejaVuSans-53" x="494.722656"/>
    <use xlink:href="#DejaVuSans-2e" x="558.199219"/>
    <use xlink:href="#DejaVuSans-20" x="589.986328"/>
    <use xlink:href="#DejaVuSans-56" x="621.773438"/>
    <use xlink:href="#DejaVuSans-61" x="682.431641"/>
    <use xlink:href="#DejaVuSans-6c" x="743.710938"/>
    <use xlink:href="#DejaVuSans-69" x="771.494141"/>
    <use xlink:href="#DejaVuSans-64" x="799.277344"/>
    <use xlink:href="#DejaVuSans-61" x="862.753906"/>
    <use xlink:href="#DejaVuSans-74" x="924.033203"/>
    <use xlink:href="#DejaVuSans-69" x="963.242188"/>
    <use xlink:href="#DejaVuSans-6f" x="991.025391"/>
    <use xlink:href="#DejaVuSans-6e" x="1052.207031"/>
    <use xlink:href="#DejaVuSans-20" x="1115.585938"/>
    <use xlink:href="#DejaVuSans-41" x="1147.373047"/>
    <use xlink:href="#DejaVuSans-63" x="1214.03125"/>
    <use xlink:href="#DejaVuSans-63" x="1269.011719"/>
    <use xlink:href="#DejaVuSans-75" x="1323.992188"/>
    <use xlink:href="#DejaVuSans-72" x="1387.371094"/>
    <use xlink:href="#DejaVuSans-61" x="1428.484375"/>
    <use xlink:href="#DejaVuSans-63" x="1489.763672"/>
    <use xlink:href="#DejaVuSans-79" x="1544.744141"/>
    <use xlink:href="#DejaVuSans-20" x="1603.923828"/>
    <use xlink:href="#DejaVuSans-2d" x="1635.710938"/>
    <use xlink:href="#DejaVuSans-20" x="1671.794922"/>
    <use xlink:href="#DejaVuSans-44" x="1703.582031"/>
    <use xlink:href="#DejaVuSans-61" x="1780.583984"/>
    <use xlink:href="#DejaVuSans-74" x="1841.863281"/>
    <use xlink:href="#DejaVuSans-61" x="1881.072266"/>
    <use xlink:href="#DejaVuSans-73" x="1942.351562"/>
    <use xlink:href="#DejaVuSans-65" x="1994.451172"/>
    <use xlink:href="#DejaVuSans-74" x="2055.974609"/>
    <use xlink:href="#DejaVuSans-20" x="2095.183594"/>
    <use xlink:href="#DejaVuSans-53" x="2126.970703"/>
    <use xlink:href="#DejaVuSans-69" x="2190.447266"/>
    <use xlink:href="#DejaVuSans-7a" x="2218.230469"/>
    <use xlink:href="#DejaVuSans-65" x="2270.720703"/>
    <use xlink:href="#DejaVuSans-20" x="2332.244141"/>
    <use xlink:href="#DejaVuSans-3d" x="2364.03125"/>
    <use xlink:href="#DejaVuSans-20" x="2447.820312"/>
    <use xlink:href="#DejaVuSans-31" x="2479.607422"/>
    <use xlink:href="#DejaVuSans-30" x="2543.230469"/>
    <use xlink:href="#DejaVuSans-2e" x="2606.853516"/>
    <use xlink:href="#DejaVuSans-30" x="2638.640625"/>
    <use xlink:href="#DejaVuSans-25" x="2702.263672"/>
   </g>
  </g>
 </g>
 <defs>
  <clipPath id="p5777567df1">
   <rect x="43.78125" y="37.296" width="279" height="202.464"/>
  </clipPath>
 </defs>
</svg>
