<?xml version="1.0" encoding="utf-8" standalone="no"?>
<!DOCTYPE svg PUBLIC "-//W3C//DTD SVG 1.1//EN"
  "http://www.w3.org/Graphics/SVG/1.1/DTD/svg11.dtd">
<svg xmlns:xlink="http://www.w3.org/1999/xlink" width="339.829141pt" height="277.31625pt" viewBox="0 0 339.829141 277.31625" xmlns="http://www.w3.org/2000/svg" version="1.1">
 <metadata>
  <rdf:RDF xmlns:dc="http://purl.org/dc/elements/1.1/" xmlns:cc="http://creativecommons.org/ns#" xmlns:rdf="http://www.w3.org/1999/02/22-rdf-syntax-ns#">
   <cc:Work>
    <dc:type rdf:resource="http://purl.org/dc/dcmitype/StillImage"/>
    <dc:date>2026-06-11T10:56:05.876063</dc:date>
    <dc:format>image/svg+xml</dc:format>
    <dc:creator>
     <cc:Agent>
      <dc:title>Matplotlib v3.8.4, https://matplotlib.org/</dc:title>
     </cc:Agent>
    </dc:creator>
   </cc:Work>
  </rdf:RDF>
 </metadata>
 <defs>
  <style type="text/css">*{stroke-linejoin: round; stroke-linecap: butt}</style>
 </defs>
 <g id="figure_1">
  <g id="patch_1">
   <path d="M 0 277.31625 
L 339.829141 277.31625 
L 339.829141 0 
L 0 0 
z
" style="fill: #ffffff"/>
  </g>
  <g id="axes_1">
   <g id="patch_2">
    <path d="M 43.78125 239.76 
L 322.78125 239.76 
L 322.78125 37.296 
L 43.78125 37.296 
z
" style="fill: #ffffff"/>
   </g>
   <g id="matplotlib.axis_1">
    <g id="xtick_1">
     <g id="line2d_1">
      <path d="M 56.209178 239.76 
L 56.209178 37.296 
" clip-path="url(#pddcb8ca2c3)" style="fill: none; stroke-dasharray: 2.96,1.28; stroke-dashoffset: 0; stroke: #b0b0b0; stroke-opacity: 0.4; stroke-width: 0.8"/>
     </g>
     <g id="line2d_2">
      <defs>
       <path id="m9af3234bd8" d="M 0 0 
L 0 3.5 
" style="stroke: #000000; stroke-width: 0.8"/>
      </defs>
      <g>
       <use xlink:href="#m9af3234bd8" x="56.209178" y="239.76" style="stroke: #000000; stroke-width: 0.8"/>
      </g>
     </g>
     <g id="text_1">
      <!-- 0 -->
      <g transform="translate(53.027928 254.358437) scale(0.1 -0.1)">
       <defs>
        <path id="DejaVuSans-30" d="M 2034 4250 
Q 1547 4250 1301 3770 
Q 1056 3291 1056 2328 
Q 1056 1369 1301 889 
Q 1547 409 2034 409 
Q 2525 409 2770 889 
Q 3016 1369 3016 2328 
Q 3016 3291 2770 3770 
Q 2525 4250 2034 4250 
z
M 2034 4750 
Q 2819 4750 3233 4129 
Q 3647 3509 3647 2328 
Q 3647 1150 3233 529 
Q 2819 -91 2034 -91 
Q 1250 -91 836 529 
Q 422 1150 422 2328 
Q 422 3509 836 4129 
Q 1250 4750 2034 4750 
z
" transform="scale(0.015625)"/>
       </defs>
       <use xlink:href="#DejaVuSans-30"/>
      </g>
     </g>
    </g>
    <g id="xtick_2">
     <g id="line2d_3">
      <path d="M 106.987229 239.76 
L 106.987229 37.296 
" clip-path="url(#pddcb8ca2c3)" style="fill: none; stroke-dasharray: 2.96,1.28; stroke-dashoffset: 0; stroke: #b0b0b0; stroke-opacity: 0.4; stroke-width: 0.8"/>
     </g>
     <g id="line2d_4">
      <g>
       <use xlink:href="#m9af3234bd8" x="106.987229" y="239.76" style="stroke: #000000; stroke-width: 0.8"/>
      </g>
     </g>
     <g id="text_2">
      <!-- 200 -->
      <g transform="translate(97.443479 254.358437) scale(0.1 -0.1)">
       <defs>
        <path id="DejaVuSans-32" d="M 1228 531 
L 3431 531 
L 3431 0 
L 469 0 
L 469 531 
Q 828 903 1448 1529 
Q 2069 2156 2228 2338 
Q 2531 2678 2651 2914 
Q 2772 3150 2772 3378 
Q 2772 3750 2511 3984 
Q 2250 4219 1831 4219 
Q 1534 4219 1204 4116 
Q 875 4013 500 3803 
L 500 4441 
Q 881 4594 1212 4672 
Q 1544 4750 1819 4750 
Q 2544 4750 2975 4387 
Q 3406 4025 3406 3419 
Q 3406 3131 3298 2873 
Q 3191 2616 2906 2266 
Q 2828 2175 2409 1742 
Q 1991 1309 1228 531 
z
" transform="scale(0.015625)"/>
       </defs>
       <use xlink:href="#DejaVuSans-32"/>
       <use xlink:href="#DejaVuSans-30" x="63.623047"/>
       <use xlink:href="#DejaVuSans-30" x="127.246094"/>
      </g>
     </g>
    </g>
    <g id="xtick_3">
     <g id="line2d_5">
      <path d="M 157.765279 239.76 
L 157.765279 37.296 
" clip-path="url(#pddcb8ca2c3)" style="fill: none; stroke-dasharray: 2.96,1.28; stroke-dashoffset: 0; stroke: #b0b0b0; stroke-opacity: 0.4; stroke-width: 0.8"/>
     </g>
     <g id="line2d_6">
      <g>
       <use xlink:href="#m9af3234bd8" x="157.765279" y="239.76" style="stroke: #000000; stroke-width: 0.8"/>
      </g>
     </g>
     <g id="text_3">
      <!-- 400 -->
      <g transform="translate(148.221529 254.358437) scale(0.1 -0.1)">
       <defs>
        <path id="DejaVuSans-34" d="M 2419 4116 
L 825 1625 
L 2419 1625 
L 2419 4116 
z
M 2253 4666 
L 3047 4666 
L 3047 1625 
L 3713 1625 
L 3713 1100 
L 3047 1100 
L 3047 0 
L 2419 0 
L 2419 1100 
L 313 1100 
L 313 1709 
L 2253 4666 
z
" transform="scale(0.015625)"/>
       </defs>
       <use xlink:href="#DejaVuSans-34"/>
       <use xlink:href="#DejaVuSans-30" x="63.623047"/>
       <use xlink:href="#DejaVuSans-30" x="127.246094"/>
      </g>
     </g>
    </g>
    <g id="xtick_4">
     <g id="line2d_7">
      <path d="M 208.54333 239.76 
L 208.54333 37.296 
" clip-path="url(#pddcb8ca2c3)" style="fill: none; stroke-dasharray: 2.96,1.28; stroke-dashoffset: 0; stroke: #b0b0b0; stroke-opacity: 0.4; stroke-width: 0.8"/>
     </g>
     <g id="line2d_8">
      <g>
       <use xlink:href="#m9af3234bd8" x="208.54333" y="239.76" style="stroke: #000000; stroke-width: 0.8"/>
      </g>
     </g>
     <g id="text_4">
      <!-- 600 -->
      <g transform="translate(198.99958 254.358437) scale(0.1 -0.1)">
       <defs>
        <path id="DejaVuSans-36" d="M 2113 2584 
Q 1688 2584 1439 2293 
Q 1191 2003 1191 1497 
Q 1191 994 1439 701 
Q 1688 409 2113 409 
Q 2538 409 2786 701 
Q 3034 994 3034 1497 
Q 3034 2003 2786 2293 
Q 2538 2584 2113 2584 
z
M 3366 4563 
L 3366 3988 
Q 3128 4100 2886 4159 
Q 2644 4219 2406 4219 
Q 1781 4219 1451 3797 
Q 1122 3375 1075 2522 
Q 1259 2794 1537 2939 
Q 1816 3084 2150 3084 
Q 2853 3084 3261 2657 
Q 3669 2231 3669 1497 
Q 3669 778 3244 343 
Q 2819 -91 2113 -91 
Q 1303 -91 875 529 
Q 447 1150 447 2328 
Q 447 3434 972 4092 
Q 1497 4750 2381 4750 
Q 2619 4750 2861 4703 
Q 3103 4656 3366 4563 
z
" transform="scale(0.015625)"/>
       </defs>
       <use xlink:href="#DejaVuSans-36"/>
       <use xlink:href="#DejaVuSans-30" x="63.623047"/>
       <use xlink:href="#DejaVuSans-30" x="127.246094"/>
      </g>
     </g>
    </g>
    <g id="xtick_5">
     <g id="line2d_9">
      <path d="M 259.321381 239.76 
L 259.321381 37.296 
" clip-path="url(#pddcb8ca2c3)" style="fill: none; stroke-dasharray: 2.96,1.28; stroke-dashoffset: 0; stroke: #b0b0b0; stroke-opacity: 0.4; stroke-width: 0.8"/>
     </g>
     <g id="line2d_10">
      <g>
       <use xlink:href="#m9af3234bd8" x="259.321381" y="239.76" style="stroke: #000000; stroke-width: 0.8"/>
      </g>
     </g>
     <g id="text_5">
      <!-- 800 -->
      <g transform="translate(249.777631 254.358437) scale(0.1 -0.1)">
       <defs>
        <path id="DejaVuSans-38" d="M 2034 2216 
Q 1584 2216 1326 1975 
Q 1069 1734 1069 1313 
Q 1069 891 1326 650 
Q 1584 409 2034 409 
Q 2484 409 2743 651 
Q 3003 894 3003 1313 
Q 3003 1734 2745 1975 
Q 2488 2216 2034 2216 
z
M 1403 2484 
Q 997 2584 770 2862 
Q 544 3141 544 3541 
Q 544 4100 942 4425 
Q 1341 4750 2034 4750 
Q 2731 4750 3128 4425 
Q 3525 4100 3525 3541 
Q 3525 3141 3298 2862 
Q 3072 2584 2669 2484 
Q 3125 2378 3379 2068 
Q 3634 1759 3634 1313 
Q 3634 634 3220 271 
Q 2806 -91 2034 -91 
Q 1263 -91 848 271 
Q 434 634 434 1313 
Q 434 1759 690 2068 
Q 947 2378 1403 2484 
z
M 1172 3481 
Q 1172 3119 1398 2916 
Q 1625 2713 2034 2713 
Q 2441 2713 2670 2916 
Q 2900 3119 2900 3481 
Q 2900 3844 2670 4047 
Q 2441 4250 2034 4250 
Q 1625 4250 1398 4047 
Q 1172 3844 1172 3481 
z
" transform="scale(0.015625)"/>
       </defs>
       <use xlink:href="#DejaVuSans-38"/>
       <use xlink:href="#DejaVuSans-30" x="63.623047"/>
       <use xlink:href="#DejaVuSans-30" x="127.246094"/>
      </g>
     </g>
    </g>
    <g id="xtick_6">
     <g id="line2d_11">
      <path d="M 310.099432 239.76 
L 310.099432 37.296 
" clip-path="url(#pddcb8ca2c3)" style="fill: none; stroke-dasharray: 2.96,1.28; stroke-dashoffset: 0; stroke: #b0b0b0; stroke-opacity: 0.4; stroke-width: 0.8"/>
     </g>
     <g id="line2d_12">
      <g>
       <use xlink:href="#m9af3234bd8" x="310.099432" y="239.76" style="stroke: #000000; stroke-width: 0.8"/>
      </g>
     </g>
     <g id="text_6">
      <!-- 1000 -->
      <g transform="translate(297.374432 254.358437) scale(0.1 -0.1)">
       <defs>
        <path id="DejaVuSans-31" d="M 794 531 
L 1825 531 
L 1825 4091 
L 703 3866 
L 703 4441 
L 1819 4666 
L 2450 4666 
L 2450 531 
L 3481 531 
L 3481 0 
L 794 0 
L 794 531 
z
" transform="scale(0.015625)"/>
       </defs>
       <use xlink:href="#DejaVuSans-31"/>
       <use xlink:href="#DejaVuSans-30" x="63.623047"/>
       <use xlink:href="#DejaVuSans-30" x="127.246094"/>
       <use xlink:href="#DejaVuSans-30" x="190.869141"/>
      </g>
     </g>
    </g>
    <g id="text_7">
     <!-- Epochs -->
     <g transform="translate(165.365625 268.036562) scale(0.1 -0.1)">
      <defs>
       <path id="DejaVuSans-45" d="M 628 4666 
L 3578 4666 
L 3578 4134 
L 1259 4134 
L 1259 2753 
L 3481 2753 
L 3481 2222 
L 1259 2222 
L 1259 531 
L 3634 531 
L 3634 0 
L 628 0 
L 628 4666 
z
" transform="scale(0.015625)"/>
       <path id="DejaVuSans-70" d="M 1159 525 
L 1159 -1331 
L 581 -1331 
L 581 3500 
L 1159 3500 
L 1159 2969 
Q 1341 3281 1617 3432 
Q 1894 3584 2278 3584 
Q 2916 3584 3314 3078 
Q 3713 2572 3713 1747 
Q 3713 922 3314 415 
Q 2916 -91 2278 -91 
Q 1894 -91 1617 61 
Q 1341 213 1159 525 
z
M 3116 1747 
Q 3116 2381 2855 2742 
Q 2594 3103 2138 3103 
Q 1681 3103 1420 2742 
Q 1159 2381 1159 1747 
Q 1159 1113 1420 752 
Q 1681 391 2138 391 
Q 2594 391 2855 752 
Q 3116 1113 3116 1747 
z
" transform="scale(0.015625)"/>
       <path id="DejaVuSans-6f" d="M 1959 3097 
Q 1497 3097 1228 2736 
Q 959 2375 959 1747 
Q 959 1119 1226 758 
Q 1494 397 1959 397 
Q 2419 397 2687 759 
Q 2956 1122 2956 1747 
Q 2956 2369 2687 2733 
Q 2419 3097 1959 3097 
z
M 1959 3584 
Q 2709 3584 3137 3096 
Q 3566 2609 3566 1747 
Q 3566 888 3137 398 
Q 2709 -91 1959 -91 
Q 1206 -91 779 398 
Q 353 888 353 1747 
Q 353 2609 779 3096 
Q 1206 3584 1959 3584 
z
" transform="scale(0.015625)"/>
       <path id="DejaVuSans-63" d="M 3122 3366 
L 3122 2828 
Q 2878 2963 2633 3030 
Q 2388 3097 2138 3097 
Q 1578 3097 1268 2742 
Q 959 2388 959 1747 
Q 959 1106 1268 751 
Q 1578 397 2138 397 
Q 2388 397 2633 464 
Q 2878 531 3122 666 
L 3122 134 
Q 2881 22 2623 -34 
Q 2366 -91 2075 -91 
Q 1284 -91 818 406 
Q 353 903 353 1747 
Q 353 2603 823 3093 
Q 1294 3584 2113 3584 
Q 2378 3584 2631 3529 
Q 2884 3475 3122 3366 
z
" transform="scale(0.015625)"/>
       <path id="DejaVuSans-68" d="M 3513 2113 
L 3513 0 
L 2938 0 
L 2938 2094 
Q 2938 2591 2744 2837 
Q 2550 3084 2163 3084 
Q 1697 3084 1428 2787 
Q 1159 2491 1159 1978 
L 1159 0 
L 581 0 
L 581 4863 
L 1159 4863 
L 1159 2956 
Q 1366 3272 1645 3428 
Q 1925 3584 2291 3584 
Q 2894 3584 3203 3211 
Q 3513 2838 3513 2113 
z
" transform="scale(0.015625)"/>
       <path id="DejaVuSans-73" d="M 2834 3397 
L 2834 2853 
Q 2591 2978 2328 3040 
Q 2066 3103 1784 3103 
Q 1356 3103 1142 2972 
Q 928 2841 928 2578 
Q 928 2378 1081 2264 
Q 1234 2150 1697 2047 
L 1894 2003 
Q 2506 1872 2764 1633 
Q 3022 1394 3022 966 
Q 3022 478 2636 193 
Q 2250 -91 1575 -91 
Q 1294 -91 989 -36 
Q 684 19 347 128 
L 347 722 
Q 666 556 975 473 
Q 1284 391 1588 391 
Q 1994 391 2212 530 
Q 2431 669 2431 922 
Q 2431 1156 2273 1281 
Q 2116 1406 1581 1522 
L 1381 1569 
Q 847 1681 609 1914 
Q 372 2147 372 2553 
Q 372 3047 722 3315 
Q 1072 3584 1716 3584 
Q 2034 3584 2315 3537 
Q 2597 3491 2834 3397 
z
" transform="scale(0.015625)"/>
      </defs>
      <use xlink:href="#DejaVuSans-45"/>
      <use xlink:href="#DejaVuSans-70" x="63.183594"/>
      <use xlink:href="#DejaVuSans-6f" x="126.660156"/>
      <use xlink:href="#DejaVuSans-63" x="187.841797"/>
      <use xlink:href="#DejaVuSans-68" x="242.822266"/>
      <use xlink:href="#DejaVuSans-73" x="306.201172"/>
     </g>
    </g>
   </g>
   <g id="matplotlib.axis_2">
    <g id="ytick_1">
     <g id="line2d_13">
      <path d="M 43.78125 220.412044 
L 322.78125 220.412044 
" clip-path="url(#pddcb8ca2c3)" style="fill: none; stroke-dasharray: 2.96,1.28; stroke-dashoffset: 0; stroke: #b0b0b0; stroke-opacity: 0.4; stroke-width: 0.8"/>
     </g>
     <g id="line2d_14">
      <defs>
       <path id="m4b5c6f6a04" d="M 0 0 
L -3.5 0 
" style="stroke: #000000; stroke-width: 0.8"/>
      </defs>
      <g>
       <use xlink:href="#m4b5c6f6a04" x="43.78125" y="220.412044" style="stroke: #000000; stroke-width: 0.8"/>
      </g>
     </g>
     <g id="text_8">
      <!-- 0.5 -->
      <g transform="translate(20.878125 224.211263) scale(0.1 -0.1)">
       <defs>
        <path id="DejaVuSans-2e" d="M 684 794 
L 1344 794 
L 1344 0 
L 684 0 
L 684 794 
z
" transform="scale(0.015625)"/>
        <path id="DejaVuSans-35" d="M 691 4666 
L 3169 4666 
L 3169 4134 
L 1269 4134 
L 1269 2991 
Q 1406 3038 1543 3061 
Q 1681 3084 1819 3084 
Q 2600 3084 3056 2656 
Q 3513 2228 3513 1497 
Q 3513 744 3044 326 
Q 2575 -91 1722 -91 
Q 1428 -91 1123 -41 
Q 819 9 494 109 
L 494 744 
Q 775 591 1075 516 
Q 1375 441 1709 441 
Q 2250 441 2565 725 
Q 2881 1009 2881 1497 
Q 2881 1984 2565 2268 
Q 2250 2553 1709 2553 
Q 1456 2553 1204 2497 
Q 953 2441 691 2322 
L 691 4666 
z
" transform="scale(0.015625)"/>
       </defs>
       <use xlink:href="#DejaVuSans-30"/>
       <use xlink:href="#DejaVuSans-2e" x="63.623047"/>
       <use xlink:href="#DejaVuSans-35" x="95.410156"/>
      </g>
     </g>
    </g>
    <g id="ytick_2">
     <g id="line2d_15">
      <path d="M 43.78125 184.826353 
L 322.78125 184.826353 
" clip-path="url(#pddcb8ca2c3)" style="fill: none; stroke-dasharray: 2.96,1.28; stroke-dashoffset: 0; stroke: #b0b0b0; stroke-opacity: 0.4; stroke-width: 0.8"/>
     </g>
     <g id="line2d_16">
      <g>
       <use xlink:href="#m4b5c6f6a04" x="43.78125" y="184.826353" style="stroke: #000000; stroke-width: 0.8"/>
      </g>
     </g>
     <g id="text_9">
      <!-- 0.6 -->
      <g transform="translate(20.878125 188.625572) scale(0.1 -0.1)">
       <use xlink:href="#DejaVuSans-30"/>
       <use xlink:href="#DejaVuSans-2e" x="63.623047"/>
       <use xlink:href="#DejaVuSans-36" x="95.410156"/>
      </g>
     </g>
    </g>
    <g id="ytick_3">
     <g id="line2d_17">
      <path d="M 43.78125 149.240663 
L 322.78125 149.240663 
" clip-path="url(#pddcb8ca2c3)" style="fill: none; stroke-dasharray: 2.96,1.28; stroke-dashoffset: 0; stroke: #b0b0b0; stroke-opacity: 0.4; stroke-width: 0.8"/>
     </g>
     <g id="line2d_18">
      <g>
       <use xlink:href="#m4b5c6f6a04" x="43.78125" y="149.240663" style="stroke: #000000; stroke-width: 0.8"/>
      </g>
     </g>
     <g id="text_10">
      <!-- 0.7 -->
      <g transform="translate(20.878125 153.039882) scale(0.1 -0.1)">
       <defs>
        <path id="DejaVuSans-37" d="M 525 4666 
L 3525 4666 
L 3525 4397 
L 1831 0 
L 1172 0 
L 2766 4134 
L 525 4134 
L 525 4666 
z
" transform="scale(0.015625)"/>
       </defs>
       <use xlink:href="#DejaVuSans-30"/>
       <use xlink:href="#DejaVuSans-2e" x="63.623047"/>
       <use xlink:href="#DejaVuSans-37" x="95.410156"/>
      </g>
     </g>
    </g>
    <g id="ytick_4">
     <g id="line2d_19">
      <path d="M 43.78125 113.654973 
L 322.78125 113.654973 
" clip-path="url(#pddcb8ca2c3)" style="fill: none; stroke-dasharray: 2.96,1.28; stroke-dashoffset: 0; stroke: #b0b0b0; stroke-opacity: 0.4; stroke-width: 0.8"/>
     </g>
     <g id="line2d_20">
      <g>
       <use xlink:href="#m4b5c6f6a04" x="43.78125" y="113.654973" style="stroke: #000000; stroke-width: 0.8"/>
      </g>
     </g>
     <g id="text_11">
      <!-- 0.8 -->
      <g transform="translate(20.878125 117.454191) scale(0.1 -0.1)">
       <use xlink:href="#DejaVuSans-30"/>
       <use xlink:href="#DejaVuSans-2e" x="63.623047"/>
       <use xlink:href="#DejaVuSans-38" x="95.410156"/>
      </g>
     </g>
    </g>
    <g id="ytick_5">
     <g id="line2d_21">
      <path d="M 43.78125 78.069282 
L 322.78125 78.069282 
" clip-path="url(#pddcb8ca2c3)" style="fill: none; stroke-dasharray: 2.96,1.28; stroke-dashoffset: 0; stroke: #b0b0b0; stroke-opacity: 0.4; stroke-width: 0.8"/>
     </g>
     <g id="line2d_22">
      <g>
       <use xlink:href="#m4b5c6f6a04" x="43.78125" y="78.069282" style="stroke: #000000; stroke-width: 0.8"/>
      </g>
     </g>
     <g id="text_12">
      <!-- 0.9 -->
      <g transform="translate(20.878125 81.868501) scale(0.1 -0.1)">
       <defs>
        <path id="DejaVuSans-39" d="M 703 97 
L 703 672 
Q 941 559 1184 500 
Q 1428 441 1663 441 
Q 2288 441 2617 861 
Q 2947 1281 2994 2138 
Q 2813 1869 2534 1725 
Q 2256 1581 1919 1581 
Q 1219 1581 811 2004 
Q 403 2428 403 3163 
Q 403 3881 828 4315 
Q 1253 4750 1959 4750 
Q 2769 4750 3195 4129 
Q 3622 3509 3622 2328 
Q 3622 1225 3098 567 
Q 2575 -91 1691 -91 
Q 1453 -91 1209 -44 
Q 966 3 703 97 
z
M 1959 2075 
Q 2384 2075 2632 2365 
Q 2881 2656 2881 3163 
Q 2881 3666 2632 3958 
Q 2384 4250 1959 4250 
Q 1534 4250 1286 3958 
Q 1038 3666 1038 3163 
Q 1038 2656 1286 2365 
Q 1534 2075 1959 2075 
z
" transform="scale(0.015625)"/>
       </defs>
       <use xlink:href="#DejaVuSans-30"/>
       <use xlink:href="#DejaVuSans-2e" x="63.623047"/>
       <use xlink:href="#DejaVuSans-39" x="95.410156"/>
      </g>
     </g>
    </g>
    <g id="ytick_6">
     <g id="line2d_23">
      <path d="M 43.78125 42.483592 
L 322.78125 42.483592 
" clip-path="url(#pddcb8ca2c3)" style="fill: none; stroke-dasharray: 2.96,1.28; stroke-dashoffset: 0; stroke: #b0b0b0; stroke-opacity: 0.4; stroke-width: 0.8"/>
     </g>
     <g id="line2d_24">
      <g>
       <use xlink:href="#m4b5c6f6a04" x="43.78125" y="42.483592" style="stroke: #000000; stroke-width: 0.8"/>
      </g>
     </g>
     <g id="text_13">
      <!-- 1.0 -->
      <g transform="translate(20.878125 46.28281) scale(0.1 -0.1)">
       <use xlink:href="#DejaVuSans-31"/>
       <use xlink:href="#DejaVuSans-2e" x="63.623047"/>
       <use xlink:href="#DejaVuSans-30" x="95.410156"/>
      </g>
     </g>
    </g>
    <g id="text_14">
     <!-- Accuracy -->
     <g transform="translate(14.798438 161.356125) rotate(-90) scale(0.1 -0.1)">
      <defs>
       <path id="DejaVuSans-41" d="M 2188 4044 
L 1331 1722 
L 3047 1722 
L 2188 4044 
z
M 1831 4666 
L 2547 4666 
L 4325 0 
L 3669 0 
L 3244 1197 
L 1141 1197 
L 716 0 
L 50 0 
L 1831 4666 
z
" transform="scale(0.015625)"/>
       <path id="DejaVuSans-75" d="M 544 1381 
L 544 3500 
L 1119 3500 
L 1119 1403 
Q 1119 906 1312 657 
Q 1506 409 1894 409 
Q 2359 409 2629 706 
Q 2900 1003 2900 1516 
L 2900 3500 
L 3475 3500 
L 3475 0 
L 2900 0 
L 2900 538 
Q 2691 219 2414 64 
Q 2138 -91 1772 -91 
Q 1169 -91 856 284 
Q 544 659 544 1381 
z
M 1991 3584 
L 1991 3584 
z
" transform="scale(0.015625)"/>
       <path id="DejaVuSans-72" d="M 2631 2963 
Q 2534 3019 2420 3045 
Q 2306 3072 2169 3072 
Q 1681 3072 1420 2755 
Q 1159 2438 1159 1844 
L 1159 0 
L 581 0 
L 581 3500 
L 1159 3500 
L 1159 2956 
Q 1341 3275 1631 3429 
Q 1922 3584 2338 3584 
Q 2397 3584 2469 3576 
Q 2541 3569 2628 3553 
L 2631 2963 
z
" transform="scale(0.015625)"/>
       <path id="DejaVuSans-61" d="M 2194 1759 
Q 1497 1759 1228 1600 
Q 959 1441 959 1056 
Q 959 750 1161 570 
Q 1363 391 1709 391 
Q 2188 391 2477 730 
Q 2766 1069 2766 1631 
L 2766 1759 
L 2194 1759 
z
M 3341 1997 
L 3341 0 
L 2766 0 
L 2766 531 
Q 2569 213 2275 61 
Q 1981 -91 1556 -91 
Q 1019 -91 701 211 
Q 384 513 384 1019 
Q 384 1609 779 1909 
Q 1175 2209 1959 2209 
L 2766 2209 
L 2766 2266 
Q 2766 2663 2505 2880 
Q 2244 3097 1772 3097 
Q 1472 3097 1187 3025 
Q 903 2953 641 2809 
L 641 3341 
Q 956 3463 1253 3523 
Q 1550 3584 1831 3584 
Q 2591 3584 2966 3190 
Q 3341 2797 3341 1997 
z
" transform="scale(0.015625)"/>
       <path id="DejaVuSans-79" d="M 2059 -325 
Q 1816 -950 1584 -1140 
Q 1353 -1331 966 -1331 
L 506 -1331 
L 506 -850 
L 844 -850 
Q 1081 -850 1212 -737 
Q 1344 -625 1503 -206 
L 1606 56 
L 191 3500 
L 800 3500 
L 1894 763 
L 2988 3500 
L 3597 3500 
L 2059 -325 
z
" transform="scale(0.015625)"/>
      </defs>
      <use xlink:href="#DejaVuSans-41"/>
      <use xlink:href="#DejaVuSans-63" x="66.658203"/>
      <use xlink:href="#DejaVuSans-63" x="121.638672"/>
      <use xlink:href="#DejaVuSans-75" x="176.619141"/>
      <use xlink:href="#DejaVuSans-72" x="239.998047"/>
      <use xlink:href="#DejaVuSans-61" x="281.111328"/>
      <use xlink:href="#DejaVuSans-63" x="342.390625"/>
      <use xlink:href="#DejaVuSans-79" x="397.371094"/>
     </g>
    </g>
   </g>
   <g id="line2d_25">
    <path d="M 56.463068 221.834138 
L 56.716958 215.476563 
L 57.224739 213.468904 
L 57.478629 214.472723 
L 57.98641 199.248004 
L 58.2403 200.586443 
L 58.74808 189.544352 
L 59.001971 186.532854 
L 59.509751 158.258385 
L 60.017532 119.611025 
L 60.271422 115.763017 
L 60.525312 118.941805 
L 60.779202 112.082299 
L 61.033093 111.245791 
L 61.286983 105.055526 
L 61.540873 108.903512 
L 62.302544 101.876738 
L 62.556434 104.720905 
L 62.810325 99.19986 
L 63.318105 105.724724 
L 63.571995 97.69411 
L 63.825886 95.017232 
L 64.079776 97.359511 
L 64.333666 91.838444 
L 64.587556 93.009573 
L 65.095337 93.678793 
L 65.349227 102.880557 
L 65.603117 94.515323 
L 65.857008 96.355671 
L 66.364788 87.823148 
L 66.618678 87.990437 
L 66.872569 87.321218 
L 67.126459 86.317399 
L 67.380349 89.496187 
L 67.634239 87.655838 
L 68.14202 87.990437 
L 68.6498 82.636702 
L 68.903691 93.009573 
L 69.411471 81.967482 
L 69.665361 81.298263 
L 69.919252 80.963642 
L 70.173142 95.184542 
L 70.427032 80.629043 
L 70.680922 80.461733 
L 70.934813 84.644361 
L 71.188703 86.150089 
L 71.442593 80.461733 
L 71.696483 77.450256 
L 71.950374 91.169225 
L 72.204264 80.796353 
L 72.458154 78.119475 
L 72.712044 77.952165 
L 72.965935 78.119475 
L 73.219825 75.609907 
L 73.727605 74.438778 
L 74.235386 76.781036 
L 74.489276 73.936869 
L 74.743166 76.446437 
L 74.997057 74.438778 
L 75.250947 76.111816 
L 75.504837 75.609907 
L 75.758727 73.936869 
L 76.012618 73.100339 
L 76.266508 73.602248 
L 76.520398 71.09268 
L 76.774288 71.92921 
L 77.028179 79.625225 
L 77.535959 71.259991 
L 77.78985 72.263809 
L 78.04374 70.758081 
L 78.29763 71.42728 
L 78.55152 69.419642 
L 78.805411 69.754241 
L 79.059301 67.077363 
L 79.313191 68.583112 
L 79.567081 68.248492 
L 79.820972 66.910074 
L 80.328752 62.894757 
L 80.582642 64.567795 
L 81.090423 62.058227 
L 81.344313 65.237014 
L 81.598203 61.221718 
L 81.852094 64.065886 
L 82.105984 61.054408 
L 82.359874 62.560136 
L 82.613764 62.392847 
L 82.867655 62.392847 
L 83.121545 62.058227 
L 83.375435 63.731286 
L 83.629325 60.887098 
L 83.883216 62.560136 
L 84.137106 60.552499 
L 84.390996 62.058227 
L 84.898777 61.389007 
L 85.152667 58.712129 
L 85.406557 61.054408 
L 85.660447 62.225537 
L 85.914338 62.058227 
L 86.422118 58.54484 
L 86.676008 59.046749 
L 86.929899 58.879439 
L 87.183789 60.050568 
L 87.437679 58.879439 
L 87.691569 58.37753 
L 87.94546 58.712129 
L 88.19935 61.221718 
L 88.45324 59.21406 
L 88.70713 59.883279 
L 88.961021 59.381349 
L 89.214911 57.541 
L 89.468801 58.042931 
L 89.722691 58.879439 
L 89.976582 58.879439 
L 90.230472 58.21022 
L 90.484362 60.719788 
L 90.738252 56.369871 
L 90.992143 58.37753 
L 91.246033 55.700652 
L 91.499923 60.050568 
L 91.753813 58.712129 
L 92.007704 56.202561 
L 92.261594 59.381349 
L 92.515484 59.548659 
L 92.769374 56.871781 
L 93.023265 55.700652 
L 93.277155 56.537181 
L 93.784936 54.529523 
L 94.038826 57.541 
L 94.292716 54.864143 
L 94.546606 53.525704 
L 94.800497 54.194923 
L 95.054387 57.541 
L 95.816058 54.529523 
L 96.069948 57.70831 
L 96.323838 55.700652 
L 96.577728 55.700652 
L 96.831619 54.027613 
L 97.085509 54.362212 
L 97.339399 55.867962 
L 97.593289 52.521864 
L 97.84718 54.696833 
L 98.10107 54.362212 
L 98.35496 55.366052 
L 98.60885 53.692993 
L 98.862741 53.860303 
L 99.116631 53.525704 
L 99.370521 56.369871 
L 99.624411 53.860303 
L 99.878302 54.529523 
L 100.132192 53.525704 
L 100.386082 54.027613 
L 100.639972 53.525704 
L 100.893863 55.031432 
L 101.147753 52.521864 
L 101.401643 53.860303 
L 101.655533 52.689174 
L 101.909424 54.027613 
L 102.163314 52.521864 
L 102.417204 53.692993 
L 102.671094 53.023773 
L 102.924985 52.856484 
L 103.432765 53.358394 
L 103.686655 52.354554 
L 103.940546 53.191084 
L 104.194436 53.525704 
L 104.448326 51.852644 
L 104.702216 54.194923 
L 105.209997 51.685355 
L 105.463887 51.350735 
L 105.717777 51.350735 
L 105.971668 49.677697 
L 106.225558 52.019955 
L 106.479448 50.681515 
L 106.733338 52.187265 
L 106.987229 51.685355 
L 107.241119 51.852644 
L 107.495009 53.191084 
L 107.748899 53.023773 
L 108.00279 50.514205 
L 108.25668 49.175766 
L 108.51057 50.514205 
L 108.76446 50.681515 
L 109.018351 52.019955 
L 109.272241 51.685355 
L 109.526131 52.019955 
L 109.780021 51.518045 
L 110.033912 52.521864 
L 110.287802 49.008477 
L 110.541692 51.016136 
L 110.795583 50.681515 
L 111.049473 52.521864 
L 111.557253 50.346916 
L 111.811144 52.521864 
L 112.065034 51.016136 
L 112.318924 51.685355 
L 112.572814 49.844986 
L 112.826705 51.016136 
L 113.080595 50.514205 
L 113.334485 50.848826 
L 113.588375 52.187265 
L 114.350046 50.012296 
L 114.857827 52.019955 
L 115.111717 51.350735 
L 115.365607 52.354554 
L 115.873388 50.514205 
L 116.127278 52.521864 
L 116.381168 51.685355 
L 116.635058 51.350735 
L 116.888949 50.012296 
L 117.142839 52.354554 
L 117.396729 52.521864 
L 117.650619 50.848826 
L 117.90451 50.848826 
L 118.1584 51.350735 
L 118.41229 51.350735 
L 118.66618 50.514205 
L 118.920071 51.016136 
L 119.173961 50.346916 
L 119.427851 51.183425 
L 119.681741 49.175766 
L 119.935632 51.183425 
L 120.189522 50.346916 
L 120.443412 51.350735 
L 120.697302 50.514205 
L 120.951193 51.016136 
L 121.205083 50.514205 
L 121.458973 49.343076 
L 121.712863 50.681515 
L 121.966754 50.681515 
L 122.220644 50.179606 
L 122.728424 51.350735 
L 123.236205 48.841167 
L 123.490095 49.844986 
L 123.743985 50.346916 
L 123.997876 51.685355 
L 124.251766 50.012296 
L 124.505656 50.012296 
L 124.759546 51.852644 
L 125.013437 51.350735 
L 125.267327 49.175766 
L 125.521217 49.677697 
L 125.775107 49.343076 
L 126.282888 52.187265 
L 126.536778 49.343076 
L 127.044559 51.183425 
L 127.298449 50.514205 
L 127.552339 50.681515 
L 127.80623 50.514205 
L 128.06012 49.677697 
L 128.31401 50.179606 
L 128.5679 48.339258 
L 128.821791 50.179606 
L 129.329571 49.844986 
L 129.583461 50.346916 
L 129.837352 48.339258 
L 130.345132 50.179606 
L 130.599022 49.008477 
L 130.852913 51.183425 
L 131.360693 49.175766 
L 131.614583 50.346916 
L 131.868474 49.343076 
L 132.122364 51.350735 
L 132.630144 49.677697 
L 132.884035 49.677697 
L 133.137925 48.339258 
L 133.391815 49.175766 
L 133.645705 49.175766 
L 133.899596 50.179606 
L 134.153486 48.841167 
L 134.407376 50.681515 
L 134.661266 48.339258 
L 134.915157 51.685355 
L 135.169047 49.175766 
L 135.422937 50.179606 
L 135.676827 50.179606 
L 135.930718 48.841167 
L 136.184608 49.343076 
L 136.438498 50.848826 
L 136.692388 48.841167 
L 136.946279 51.350735 
L 137.200169 49.343076 
L 137.707949 50.514205 
L 137.96184 48.171947 
L 138.21573 49.844986 
L 138.72351 48.004637 
L 138.977401 49.008477 
L 139.231291 48.673857 
L 139.485181 50.681515 
L 139.739071 49.844986 
L 140.246852 49.008477 
L 140.500742 51.350735 
L 140.754632 49.175766 
L 141.008523 48.841167 
L 141.262413 47.837348 
L 141.516303 49.175766 
L 141.770193 49.677697 
L 142.277974 48.339258 
L 142.531864 50.012296 
L 142.785755 49.510387 
L 143.039645 51.518045 
L 143.293535 49.844986 
L 144.309096 48.673857 
L 144.562986 50.514205 
L 144.816877 49.677697 
L 145.070767 51.183425 
L 145.324657 50.514205 
L 145.832438 47.335418 
L 146.086328 49.008477 
L 146.340218 49.510387 
L 146.594108 50.514205 
L 146.847999 50.346916 
L 147.101889 50.514205 
L 147.355779 50.346916 
L 147.609669 50.012296 
L 147.86356 51.350735 
L 148.11745 49.677697 
L 148.37134 49.677697 
L 148.62523 48.673857 
L 148.879121 49.343076 
L 149.133011 47.168129 
L 149.386901 49.175766 
L 149.640791 49.343076 
L 149.894682 49.175766 
L 150.148572 50.012296 
L 150.402462 48.841167 
L 150.656352 49.008477 
L 150.910243 50.346916 
L 151.164133 49.510387 
L 151.418023 48.004637 
L 151.671913 50.346916 
L 151.925804 50.179606 
L 152.179694 50.346916 
L 152.433584 49.175766 
L 152.687474 48.841167 
L 152.941365 49.510387 
L 153.195255 48.673857 
L 153.449145 48.841167 
L 153.703035 48.506568 
L 153.956926 49.343076 
L 154.210816 48.673857 
L 154.464706 48.673857 
L 154.718596 48.171947 
L 154.972487 49.175766 
L 155.480267 48.841167 
L 155.734157 48.339258 
L 155.988048 46.498909 
L 156.241938 50.514205 
L 156.495828 48.339258 
L 156.749718 48.841167 
L 157.003609 50.012296 
L 157.257499 49.510387 
L 157.511389 48.171947 
L 157.765279 50.179606 
L 158.01917 48.339258 
L 158.27306 49.008477 
L 158.52695 51.852644 
L 158.78084 49.175766 
L 159.034731 49.008477 
L 159.288621 48.171947 
L 159.542511 48.004637 
L 159.796402 50.179606 
L 160.050292 48.506568 
L 160.304182 49.343076 
L 160.558072 49.677697 
L 160.811963 48.339258 
L 161.065853 49.175766 
L 161.319743 47.837348 
L 161.573633 48.004637 
L 161.827524 49.677697 
L 162.081414 48.673857 
L 162.335304 49.343076 
L 162.589194 49.008477 
L 162.843085 49.175766 
L 163.096975 48.506568 
L 163.604755 49.175766 
L 163.858646 47.502728 
L 164.112536 49.008477 
L 164.366426 49.008477 
L 164.620316 49.343076 
L 164.874207 48.506568 
L 165.128097 49.510387 
L 165.381987 49.175766 
L 165.635877 49.844986 
L 166.143658 47.670038 
L 166.397548 49.008477 
L 166.651438 48.339258 
L 167.159219 47.837348 
L 167.413109 48.506568 
L 167.666999 49.844986 
L 167.92089 47.000818 
L 168.17478 49.008477 
L 168.42867 48.841167 
L 168.68256 48.506568 
L 169.190341 50.179606 
L 169.444231 49.510387 
L 169.698121 49.844986 
L 169.952012 48.004637 
L 170.205902 49.677697 
L 170.459792 49.008477 
L 170.713682 48.673857 
L 170.967573 51.350735 
L 171.221463 48.841167 
L 171.475353 48.339258 
L 171.729243 47.502728 
L 171.983134 49.343076 
L 172.237024 49.008477 
L 172.490914 49.677697 
L 172.744804 49.844986 
L 173.252585 48.506568 
L 173.760365 50.179606 
L 174.014256 47.670038 
L 174.522036 50.514205 
L 174.775926 49.844986 
L 175.029817 49.844986 
L 175.283707 49.175766 
L 175.537597 49.677697 
L 175.791488 48.171947 
L 176.045378 49.175766 
L 176.299268 49.175766 
L 176.553158 49.343076 
L 176.807049 48.171947 
L 177.060939 47.670038 
L 177.314829 49.008477 
L 177.568719 48.339258 
L 177.82261 50.179606 
L 178.0765 48.004637 
L 178.33039 49.343076 
L 178.58428 48.506568 
L 178.838171 48.171947 
L 179.092061 48.841167 
L 179.345951 47.837348 
L 179.599841 48.506568 
L 179.853732 48.506568 
L 180.107622 49.510387 
L 180.361512 49.677697 
L 180.615402 48.506568 
L 180.869293 50.346916 
L 181.123183 50.848826 
L 181.377073 49.510387 
L 181.884854 48.339258 
L 182.138744 49.175766 
L 182.392634 51.183425 
L 182.900415 49.510387 
L 183.154305 49.175766 
L 183.408195 49.343076 
L 183.662085 50.681515 
L 183.915976 48.339258 
L 184.169866 50.179606 
L 184.423756 49.343076 
L 184.677646 49.343076 
L 184.931537 47.335418 
L 185.185427 48.841167 
L 185.439317 48.841167 
L 185.947098 48.171947 
L 186.200988 50.012296 
L 186.454878 49.844986 
L 186.708768 49.510387 
L 186.962659 48.339258 
L 187.216549 49.175766 
L 187.470439 49.008477 
L 187.724329 49.844986 
L 187.97822 49.175766 
L 188.23211 49.677697 
L 188.486 51.518045 
L 188.73989 49.677697 
L 189.247671 49.343076 
L 189.501561 47.837348 
L 189.755451 48.339258 
L 190.009342 47.502728 
L 190.263232 49.008477 
L 190.517122 48.673857 
L 190.771012 50.848826 
L 191.278793 47.502728 
L 191.532683 48.673857 
L 191.786574 48.673857 
L 192.040464 49.343076 
L 192.294354 49.008477 
L 192.548244 49.343076 
L 192.802135 49.175766 
L 193.056025 47.502728 
L 193.309915 50.012296 
L 193.563805 48.841167 
L 193.817696 49.844986 
L 194.071586 49.008477 
L 194.325476 49.510387 
L 194.579366 48.339258 
L 194.833257 48.673857 
L 195.087147 48.506568 
L 195.594927 50.681515 
L 195.848818 48.841167 
L 196.102708 50.012296 
L 196.356598 48.673857 
L 196.610488 48.841167 
L 196.864379 49.175766 
L 197.118269 48.673857 
L 197.372159 49.175766 
L 197.626049 49.343076 
L 197.87994 49.008477 
L 198.38772 50.012296 
L 198.64161 48.841167 
L 198.895501 50.681515 
L 199.149391 49.008477 
L 199.403281 49.175766 
L 199.657171 49.677697 
L 200.164952 48.841167 
L 200.418842 50.012296 
L 201.180513 47.670038 
L 201.434403 50.514205 
L 202.449964 48.673857 
L 202.703854 49.844986 
L 202.957745 48.339258 
L 203.211635 48.171947 
L 203.719415 50.179606 
L 203.973306 50.848826 
L 204.481086 48.171947 
L 204.734976 49.510387 
L 204.988867 49.510387 
L 205.242757 48.171947 
L 205.496647 48.841167 
L 205.750537 48.673857 
L 206.004428 48.171947 
L 206.258318 48.004637 
L 206.512208 50.848826 
L 206.766098 48.004637 
L 207.019989 48.673857 
L 207.273879 48.004637 
L 207.527769 49.844986 
L 208.03555 47.502728 
L 208.28944 49.677697 
L 208.54333 48.339258 
L 208.797221 49.677697 
L 209.051111 48.171947 
L 209.305001 49.175766 
L 209.558891 49.175766 
L 209.812782 47.837348 
L 210.066672 48.339258 
L 210.320562 49.844986 
L 210.574452 48.171947 
L 210.828343 49.510387 
L 211.082233 48.841167 
L 211.336123 49.175766 
L 211.590013 48.171947 
L 211.843904 50.346916 
L 212.097794 48.506568 
L 212.351684 49.343076 
L 212.605574 49.175766 
L 212.859465 50.681515 
L 213.113355 48.171947 
L 213.621135 50.681515 
L 213.875026 49.343076 
L 214.128916 50.346916 
L 214.636696 47.837348 
L 214.890587 49.175766 
L 215.144477 49.343076 
L 215.398367 48.673857 
L 215.652257 49.343076 
L 216.160038 48.841167 
L 216.413928 50.681515 
L 216.667818 50.346916 
L 216.921709 48.841167 
L 217.175599 49.844986 
L 217.429489 48.171947 
L 217.683379 49.343076 
L 217.93727 49.677697 
L 218.19116 46.833508 
L 218.44505 49.175766 
L 218.69894 48.673857 
L 219.206721 47.000818 
L 219.460611 49.510387 
L 219.714501 50.514205 
L 219.968392 48.171947 
L 220.222282 48.506568 
L 220.476172 47.837348 
L 220.730062 50.179606 
L 220.983953 48.506568 
L 221.491733 49.677697 
L 221.745623 49.510387 
L 221.999514 49.008477 
L 222.253404 47.502728 
L 222.761184 50.179606 
L 223.015075 48.673857 
L 223.268965 49.175766 
L 223.522855 48.339258 
L 223.776745 49.175766 
L 224.030636 48.339258 
L 224.538416 50.179606 
L 224.792307 48.506568 
L 225.046197 49.844986 
L 225.300087 47.168129 
L 225.553977 48.673857 
L 225.807868 49.008477 
L 226.061758 49.844986 
L 226.569538 48.339258 
L 226.823429 49.343076 
L 227.077319 48.171947 
L 227.331209 50.346916 
L 227.585099 49.677697 
L 227.83899 49.677697 
L 228.09288 48.673857 
L 228.60066 50.346916 
L 228.854551 48.171947 
L 229.108441 49.175766 
L 229.870112 48.171947 
L 230.124002 49.844986 
L 230.377892 48.339258 
L 230.631782 50.179606 
L 230.885673 49.844986 
L 231.139563 50.012296 
L 231.647343 48.339258 
L 231.901234 49.343076 
L 232.155124 48.339258 
L 232.409014 48.339258 
L 232.662904 49.844986 
L 232.916795 49.008477 
L 233.170685 50.179606 
L 233.424575 49.677697 
L 233.678465 48.339258 
L 233.932356 50.346916 
L 234.186246 49.175766 
L 234.440136 49.677697 
L 234.694026 49.844986 
L 234.947917 49.510387 
L 235.201807 48.841167 
L 235.455697 49.008477 
L 235.709587 50.514205 
L 235.963478 49.510387 
L 236.217368 49.008477 
L 236.471258 50.179606 
L 236.725148 48.004637 
L 236.979039 48.506568 
L 237.486819 50.346916 
L 237.740709 48.673857 
L 237.9946 49.844986 
L 238.24849 49.343076 
L 238.50238 49.844986 
L 239.010161 48.673857 
L 239.264051 50.514205 
L 239.517941 49.677697 
L 239.771831 49.510387 
L 240.025722 49.008477 
L 240.279612 50.346916 
L 240.533502 49.008477 
L 240.787393 48.673857 
L 241.041283 48.673857 
L 241.295173 50.012296 
L 241.549063 50.514205 
L 242.056844 48.339258 
L 242.310734 49.343076 
L 242.564624 47.837348 
L 242.818515 48.004637 
L 243.072405 50.012296 
L 243.580185 50.514205 
L 243.834076 47.670038 
L 244.341856 50.346916 
L 244.595746 47.837348 
L 245.103527 49.008477 
L 245.357417 49.343076 
L 245.611307 50.179606 
L 245.865198 49.844986 
L 246.119088 48.171947 
L 246.372978 49.175766 
L 246.880759 49.844986 
L 247.134649 48.171947 
L 247.388539 48.171947 
L 247.642429 49.510387 
L 247.89632 47.335418 
L 248.15021 49.510387 
L 248.4041 48.339258 
L 248.65799 50.346916 
L 248.911881 49.844986 
L 249.165771 48.673857 
L 249.419661 48.673857 
L 249.673551 49.008477 
L 249.927442 48.841167 
L 250.181332 49.677697 
L 250.435222 47.168129 
L 250.689112 47.837348 
L 250.943003 48.171947 
L 251.196893 49.844986 
L 251.450783 48.171947 
L 251.704673 49.510387 
L 251.958564 50.179606 
L 252.212454 47.670038 
L 252.466344 47.502728 
L 252.720234 48.171947 
L 252.974125 48.004637 
L 253.481905 49.844986 
L 253.735795 49.343076 
L 253.989686 49.844986 
L 254.243576 49.677697 
L 254.751356 50.514205 
L 255.005247 49.008477 
L 255.259137 49.008477 
L 255.513027 47.670038 
L 255.766917 48.339258 
L 256.020808 49.343076 
L 256.274698 49.008477 
L 256.528588 49.343076 
L 256.782479 47.837348 
L 257.036369 49.008477 
L 257.290259 48.339258 
L 257.544149 49.844986 
L 257.79804 49.343076 
L 258.05193 47.168129 
L 258.30582 49.343076 
L 258.55971 49.343076 
L 258.813601 47.837348 
L 259.067491 50.346916 
L 259.575271 49.510387 
L 259.829162 50.346916 
L 260.083052 49.510387 
L 260.336942 49.510387 
L 260.590832 47.335418 
L 260.844723 50.681515 
L 261.098613 49.175766 
L 261.352503 48.339258 
L 261.606393 51.518045 
L 262.114174 48.506568 
L 262.368064 49.175766 
L 262.621954 49.343076 
L 262.875845 48.841167 
L 263.129735 49.677697 
L 263.383625 49.343076 
L 263.891406 48.171947 
L 264.145296 50.681515 
L 264.399186 50.012296 
L 264.653076 49.008477 
L 264.906967 50.179606 
L 265.160857 48.506568 
L 265.414747 48.673857 
L 265.668637 48.673857 
L 265.922528 49.510387 
L 266.176418 49.008477 
L 266.430308 49.343076 
L 266.684198 48.339258 
L 266.938089 49.677697 
L 267.191979 49.510387 
L 267.445869 48.171947 
L 267.699759 48.506568 
L 267.95365 49.510387 
L 268.20754 48.004637 
L 268.46143 48.004637 
L 268.71532 50.179606 
L 268.969211 49.175766 
L 269.223101 50.346916 
L 269.476991 50.346916 
L 269.730881 50.012296 
L 269.984772 48.506568 
L 270.238662 49.677697 
L 270.746442 48.673857 
L 271.000333 49.677697 
L 271.254223 47.335418 
L 271.508113 50.514205 
L 271.762003 48.339258 
L 272.015894 48.841167 
L 272.269784 50.346916 
L 272.523674 48.673857 
L 272.777564 50.514205 
L 273.031455 49.008477 
L 273.285345 48.841167 
L 273.539235 49.510387 
L 273.793126 48.339258 
L 274.047016 48.171947 
L 274.300906 50.179606 
L 274.554796 47.670038 
L 274.808687 49.677697 
L 275.062577 48.171947 
L 275.316467 49.008477 
L 275.570357 48.673857 
L 275.824248 49.677697 
L 276.078138 49.510387 
L 276.332028 48.339258 
L 276.585918 48.841167 
L 276.839809 47.670038 
L 277.093699 50.514205 
L 277.347589 48.841167 
L 277.601479 49.677697 
L 277.85537 49.343076 
L 278.10926 49.677697 
L 278.36315 49.008477 
L 278.61704 49.175766 
L 278.870931 48.339258 
L 279.124821 51.518045 
L 279.378711 49.175766 
L 279.632601 50.346916 
L 280.140382 48.171947 
L 280.394272 47.670038 
L 280.648162 49.008477 
L 280.902053 48.506568 
L 281.155943 48.673857 
L 281.409833 48.004637 
L 281.663723 47.837348 
L 281.917614 47.168129 
L 282.171504 49.175766 
L 282.425394 48.841167 
L 282.933175 49.677697 
L 283.440955 47.837348 
L 283.694845 49.175766 
L 283.948736 47.670038 
L 284.202626 50.179606 
L 284.456516 50.179606 
L 284.710406 48.004637 
L 284.964297 50.346916 
L 285.218187 49.008477 
L 285.472077 49.844986 
L 285.725967 48.339258 
L 285.979858 48.339258 
L 286.233748 49.008477 
L 286.487638 47.670038 
L 286.741528 49.008477 
L 286.995419 47.670038 
L 287.249309 50.681515 
L 287.503199 49.343076 
L 288.26487 48.004637 
L 288.51876 50.514205 
L 288.77265 48.841167 
L 289.026541 51.016136 
L 289.280431 50.346916 
L 289.534321 49.175766 
L 289.788212 51.350735 
L 290.042102 49.008477 
L 290.295992 50.179606 
L 290.549882 49.844986 
L 290.803773 50.848826 
L 291.057663 49.008477 
L 291.311553 49.175766 
L 291.565443 48.673857 
L 291.819334 49.343076 
L 292.327114 48.673857 
L 292.581004 50.514205 
L 292.834895 48.673857 
L 293.342675 49.343076 
L 293.596565 48.506568 
L 293.850456 48.506568 
L 294.104346 48.841167 
L 294.358236 50.848826 
L 294.866017 48.004637 
L 295.119907 48.506568 
L 295.373797 48.506568 
L 295.627687 48.171947 
L 295.881578 48.171947 
L 296.135468 50.012296 
L 296.389358 49.844986 
L 296.643248 48.673857 
L 296.897139 49.175766 
L 297.151029 48.171947 
L 297.404919 50.346916 
L 297.658809 49.008477 
L 297.9127 48.339258 
L 298.16659 50.514205 
L 298.42048 48.673857 
L 298.67437 49.844986 
L 298.928261 49.343076 
L 299.182151 49.343076 
L 299.436041 48.171947 
L 299.689931 49.343076 
L 299.943822 49.343076 
L 300.197712 48.171947 
L 300.451602 49.343076 
L 300.705492 49.677697 
L 300.959383 50.346916 
L 301.213273 49.343076 
L 301.467163 50.179606 
L 301.721053 48.339258 
L 301.974944 49.008477 
L 302.228834 49.343076 
L 302.482724 48.339258 
L 302.736614 50.848826 
L 302.990505 50.514205 
L 303.244395 48.004637 
L 303.498285 48.841167 
L 303.752175 48.841167 
L 304.006066 47.837348 
L 304.259956 49.510387 
L 304.513846 48.004637 
L 304.767736 50.179606 
L 305.275517 47.670038 
L 305.529407 49.510387 
L 305.783298 49.510387 
L 306.037188 48.673857 
L 306.291078 48.506568 
L 306.544968 49.343076 
L 306.798859 50.681515 
L 307.306639 49.677697 
L 307.560529 49.677697 
L 307.81442 49.175766 
L 308.06831 49.343076 
L 308.3222 48.841167 
L 308.57609 50.179606 
L 308.829981 50.012296 
L 309.083871 49.175766 
L 309.337761 48.841167 
L 309.591651 49.175766 
L 309.845542 50.012296 
L 310.099432 48.506568 
L 310.099432 48.506568 
" clip-path="url(#pddcb8ca2c3)" style="fill: none; stroke: #0000ff; stroke-width: 0.6; stroke-linecap: square"/>
   </g>
   <g id="line2d_26">
    <path d="M 56.463068 228.215925 
L 56.716958 207.925842 
L 56.970849 230.557091 
L 57.224739 207.535649 
L 57.478629 218.070889 
L 57.732519 218.461081 
L 57.98641 188.02594 
L 58.2403 186.46517 
L 58.49419 208.706227 
L 58.74808 175.149546 
L 59.001971 174.369161 
L 59.255861 159.541783 
L 59.509751 123.253754 
L 59.763641 117.400825 
L 60.017532 107.255799 
L 60.271422 121.692963 
L 60.525312 103.744045 
L 60.779202 100.232292 
L 61.033093 102.96366 
L 61.286983 117.791038 
L 61.794764 105.695008 
L 62.048654 122.863541 
L 62.302544 103.744045 
L 62.810325 95.940174 
L 63.064215 168.12606 
L 63.318105 92.428421 
L 63.571995 90.867651 
L 63.825886 97.500944 
L 64.079776 96.720559 
L 64.333666 94.769576 
L 64.587556 94.769576 
L 64.841447 90.867651 
L 65.095337 104.914623 
L 65.349227 95.159768 
L 65.603117 92.038228 
L 65.857008 94.769576 
L 66.110898 93.989191 
L 66.364788 98.281329 
L 66.618678 95.940174 
L 66.872569 95.159768 
L 67.126459 95.940174 
L 67.380349 103.744045 
L 67.634239 94.769576 
L 67.88813 97.110752 
L 68.14202 106.865606 
L 68.39591 96.720559 
L 68.903691 96.720559 
L 69.157581 94.379383 
L 69.411471 94.379383 
L 69.665361 99.842099 
L 69.919252 91.648036 
L 70.173142 105.695008 
L 70.427032 99.061714 
L 70.680922 97.891137 
L 70.934813 101.40289 
L 71.188703 98.671522 
L 71.442593 99.061714 
L 71.696483 98.281329 
L 71.950374 106.0852 
L 72.458154 97.500944 
L 72.965935 98.281329 
L 73.219825 100.232292 
L 73.473715 95.940174 
L 73.727605 106.865606 
L 73.981496 100.232292 
L 74.235386 97.110752 
L 74.489276 105.304815 
L 74.743166 92.428421 
L 74.997057 95.549982 
L 75.250947 103.744045 
L 75.758727 95.940174 
L 76.012618 98.281329 
L 76.266508 95.940174 
L 76.520398 95.940174 
L 76.774288 93.989191 
L 77.028179 102.573468 
L 77.282069 91.648036 
L 77.535959 100.232292 
L 77.78985 92.818613 
L 78.04374 95.159768 
L 78.29763 95.549982 
L 78.55152 98.281329 
L 78.805411 90.867651 
L 79.059301 96.720559 
L 79.313191 97.891137 
L 79.820972 96.330367 
L 80.074862 96.330367 
L 80.328752 95.549982 
L 80.582642 92.818613 
L 80.836533 93.208806 
L 81.090423 91.257843 
L 81.344313 96.720559 
L 81.598203 94.379383 
L 81.852094 94.769576 
L 82.105984 92.818613 
L 82.359874 96.720559 
L 82.613764 91.257843 
L 82.867655 97.891137 
L 83.121545 96.330367 
L 83.375435 97.500944 
L 83.629325 95.549982 
L 83.883216 95.549982 
L 84.390996 92.818613 
L 84.644886 95.940174 
L 84.898777 93.598998 
L 85.152667 96.330367 
L 85.406557 95.159768 
L 85.660447 95.940174 
L 85.914338 95.549982 
L 86.168228 92.038228 
L 86.422118 97.500944 
L 86.676008 93.208806 
L 86.929899 94.379383 
L 87.183789 97.500944 
L 87.437679 95.940174 
L 87.94546 98.281329 
L 88.19935 96.720559 
L 88.70713 96.720559 
L 89.214911 94.379383 
L 89.468801 93.989191 
L 89.722691 94.769576 
L 89.976582 98.281329 
L 90.230472 95.940174 
L 90.484362 98.671522 
L 90.738252 95.940174 
L 90.992143 94.769576 
L 91.246033 95.159768 
L 91.499923 94.379383 
L 91.753813 92.428421 
L 92.007704 96.720559 
L 92.261594 97.110752 
L 92.515484 93.989191 
L 92.769374 95.159768 
L 93.023265 94.769576 
L 93.277155 95.940174 
L 93.784936 94.379383 
L 94.038826 97.110752 
L 94.292716 92.038228 
L 94.546606 93.598998 
L 94.800497 95.940174 
L 95.054387 95.159768 
L 95.308277 98.671522 
L 95.562167 97.500944 
L 95.816058 98.281329 
L 96.069948 97.110752 
L 96.323838 93.208806 
L 96.577728 95.159768 
L 96.831619 93.598998 
L 97.085509 97.891137 
L 97.339399 100.232292 
L 97.593289 94.379383 
L 97.84718 95.549982 
L 98.10107 99.061714 
L 98.35496 98.281329 
L 98.60885 95.159768 
L 98.862741 95.940174 
L 99.116631 93.208806 
L 99.370521 95.549982 
L 99.878302 97.110752 
L 100.132192 94.769576 
L 100.893863 99.061714 
L 101.147753 94.379383 
L 101.401643 99.451907 
L 101.655533 94.769576 
L 101.909424 95.549982 
L 102.163314 95.549982 
L 102.417204 97.110752 
L 102.671094 95.549982 
L 102.924985 97.110752 
L 103.178875 96.330367 
L 103.432765 94.769576 
L 103.686655 95.549982 
L 103.940546 98.281329 
L 104.194436 95.549982 
L 104.448326 95.159768 
L 104.702216 100.622484 
L 104.956107 95.940174 
L 105.463887 97.500944 
L 105.717777 96.330367 
L 105.971668 97.110752 
L 106.225558 95.159768 
L 106.479448 97.110752 
L 106.733338 96.330367 
L 106.987229 96.330367 
L 107.241119 95.940174 
L 107.495009 95.159768 
L 107.748899 96.720559 
L 108.00279 95.940174 
L 108.25668 97.110752 
L 108.51057 96.330367 
L 108.76446 94.769576 
L 109.018351 96.720559 
L 109.272241 95.549982 
L 109.526131 97.891137 
L 110.033912 94.769576 
L 110.287802 96.330367 
L 110.541692 94.769576 
L 110.795583 98.671522 
L 111.049473 95.549982 
L 111.303363 99.842099 
L 111.557253 98.671522 
L 111.811144 96.720559 
L 112.065034 96.720559 
L 112.572814 99.451907 
L 112.826705 99.842099 
L 113.080595 96.720559 
L 113.334485 97.891137 
L 113.588375 98.281329 
L 113.842266 95.940174 
L 114.603936 97.110752 
L 114.857827 96.330367 
L 115.111717 97.891137 
L 115.365607 97.110752 
L 115.619497 97.500944 
L 116.127278 97.500944 
L 116.381168 98.281329 
L 116.635058 97.891137 
L 116.888949 95.549982 
L 117.142839 98.671522 
L 117.396729 97.891137 
L 117.650619 96.330367 
L 117.90451 97.500944 
L 118.1584 97.110752 
L 118.41229 95.549982 
L 118.66618 98.671522 
L 118.920071 98.281329 
L 119.173961 95.549982 
L 119.427851 96.330367 
L 119.681741 95.940174 
L 119.935632 96.720559 
L 120.443412 95.940174 
L 120.697302 93.989191 
L 120.951193 95.549982 
L 121.205083 95.159768 
L 121.458973 97.891137 
L 121.712863 94.769576 
L 122.474534 97.110752 
L 122.728424 97.110752 
L 122.982315 97.500944 
L 123.236205 96.330367 
L 123.490095 96.330367 
L 123.743985 97.500944 
L 123.997876 97.110752 
L 124.251766 97.891137 
L 124.505656 97.110752 
L 124.759546 97.110752 
L 125.013437 97.891137 
L 125.267327 97.110752 
L 125.775107 100.232292 
L 126.028998 99.061714 
L 126.282888 98.671522 
L 126.536778 97.891137 
L 126.790669 97.500944 
L 127.044559 96.330367 
L 127.298449 97.110752 
L 127.552339 95.549982 
L 127.80623 98.281329 
L 128.06012 97.891137 
L 128.31401 97.891137 
L 128.5679 96.720559 
L 128.821791 98.281329 
L 129.075681 97.110752 
L 129.329571 97.110752 
L 129.583461 96.330367 
L 129.837352 96.330367 
L 130.091242 97.110752 
L 130.345132 98.281329 
L 130.599022 97.891137 
L 130.852913 96.720559 
L 131.106803 98.671522 
L 131.360693 96.330367 
L 131.614583 98.281329 
L 131.868474 96.720559 
L 132.122364 98.671522 
L 132.376254 97.500944 
L 132.630144 97.500944 
L 132.884035 96.720559 
L 133.137925 95.549982 
L 133.391815 95.940174 
L 133.645705 96.720559 
L 133.899596 95.940174 
L 134.407376 97.500944 
L 134.661266 97.110752 
L 134.915157 97.110752 
L 135.169047 97.891137 
L 135.422937 97.110752 
L 135.676827 97.500944 
L 135.930718 98.281329 
L 136.184608 98.281329 
L 136.438498 96.720559 
L 136.692388 96.720559 
L 136.946279 97.891137 
L 137.200169 96.330367 
L 137.454059 95.940174 
L 137.707949 95.940174 
L 137.96184 96.720559 
L 138.21573 98.671522 
L 138.46962 96.330367 
L 138.72351 98.281329 
L 138.977401 96.720559 
L 139.231291 96.330367 
L 139.485181 98.281329 
L 139.739071 96.330367 
L 139.992962 98.281329 
L 140.246852 97.110752 
L 140.500742 97.891137 
L 140.754632 96.330367 
L 141.008523 96.330367 
L 141.262413 97.110752 
L 141.516303 96.720559 
L 141.770193 97.110752 
L 142.531864 97.110752 
L 142.785755 97.500944 
L 143.039645 97.500944 
L 143.293535 97.110752 
L 143.547425 97.110752 
L 143.801316 97.891137 
L 144.055206 96.720559 
L 144.309096 97.500944 
L 144.562986 97.891137 
L 145.324657 96.720559 
L 145.832438 98.281329 
L 146.340218 96.720559 
L 146.594108 97.110752 
L 146.847999 97.891137 
L 147.355779 97.110752 
L 147.609669 98.671522 
L 147.86356 97.110752 
L 148.11745 97.891137 
L 148.37134 96.720559 
L 148.62523 96.330367 
L 148.879121 96.720559 
L 149.133011 97.500944 
L 149.386901 96.330367 
L 149.640791 96.720559 
L 149.894682 98.281329 
L 150.148572 96.720559 
L 150.402462 97.110752 
L 150.910243 96.330367 
L 151.671913 96.330367 
L 151.925804 97.891137 
L 152.179694 96.720559 
L 152.433584 97.110752 
L 152.687474 95.549982 
L 152.941365 95.940174 
L 153.195255 97.110752 
L 153.449145 96.330367 
L 153.703035 96.720559 
L 154.210816 98.281329 
L 154.464706 97.110752 
L 154.718596 97.110752 
L 154.972487 97.891137 
L 155.226377 97.110752 
L 155.480267 97.500944 
L 155.988048 96.720559 
L 156.241938 97.500944 
L 156.495828 97.891137 
L 156.749718 96.330367 
L 157.003609 97.500944 
L 157.765279 97.500944 
L 158.27306 96.720559 
L 158.52695 96.720559 
L 158.78084 95.940174 
L 159.034731 95.549982 
L 159.288621 95.549982 
L 160.050292 96.720559 
L 160.304182 95.940174 
L 160.558072 95.940174 
L 160.811963 96.330367 
L 161.065853 97.110752 
L 161.573633 97.110752 
L 161.827524 96.720559 
L 162.335304 97.500944 
L 162.589194 97.500944 
L 162.843085 97.110752 
L 163.096975 97.110752 
L 163.350865 98.671522 
L 163.604755 97.110752 
L 163.858646 97.891137 
L 164.366426 97.110752 
L 164.620316 97.110752 
L 164.874207 97.500944 
L 165.635877 97.500944 
L 165.889768 97.891137 
L 166.143658 97.500944 
L 166.397548 96.720559 
L 166.651438 97.110752 
L 166.905329 96.720559 
L 167.159219 96.720559 
L 167.413109 97.110752 
L 167.92089 96.330367 
L 168.17478 96.330367 
L 168.42867 97.110752 
L 168.68256 97.500944 
L 168.936451 97.110752 
L 169.698121 97.110752 
L 169.952012 96.720559 
L 170.713682 96.720559 
L 170.967573 97.110752 
L 171.221463 96.720559 
L 171.475353 97.110752 
L 172.490914 97.110752 
L 172.998695 96.330367 
L 173.252585 96.720559 
L 174.014256 96.720559 
L 174.268146 95.940174 
L 174.522036 96.720559 
L 174.775926 96.720559 
L 175.029817 97.500944 
L 175.283707 97.110752 
L 175.791488 97.110752 
L 176.045378 97.500944 
L 176.553158 96.720559 
L 177.060939 96.720559 
L 177.314829 97.500944 
L 177.568719 96.720559 
L 177.82261 96.330367 
L 178.0765 97.500944 
L 178.838171 96.330367 
L 179.092061 95.549982 
L 179.345951 96.330367 
L 179.599841 95.940174 
L 179.853732 96.330367 
L 180.361512 95.549982 
L 180.615402 95.940174 
L 181.123183 95.940174 
L 181.377073 96.720559 
L 181.884854 96.720559 
L 182.138744 96.330367 
L 182.392634 96.330367 
L 182.646524 96.720559 
L 183.154305 96.720559 
L 183.408195 96.330367 
L 183.662085 96.330367 
L 184.169866 95.549982 
L 184.423756 95.940174 
L 184.677646 95.940174 
L 184.931537 96.330367 
L 185.185427 95.940174 
L 185.439317 96.330367 
L 185.693207 96.330367 
L 186.200988 95.549982 
L 186.708768 95.549982 
L 186.962659 96.330367 
L 187.216549 95.940174 
L 188.73989 95.940174 
L 188.993781 96.330367 
L 189.247671 95.940174 
L 189.755451 95.940174 
L 190.009342 96.330367 
L 191.786574 96.330367 
L 192.040464 95.940174 
L 192.294354 96.330367 
L 192.802135 96.330367 
L 193.056025 95.940174 
L 193.563805 95.940174 
L 194.071586 96.720559 
L 194.325476 96.330367 
L 194.579366 97.110752 
L 194.833257 96.330367 
L 196.864379 96.330367 
L 197.118269 95.940174 
L 197.372159 96.330367 
L 203.719415 96.330367 
L 203.973306 96.720559 
L 204.481086 96.720559 
L 204.734976 96.330367 
L 207.273879 96.330367 
L 207.527769 95.940174 
L 207.78166 96.330367 
L 208.797221 96.330367 
L 209.051111 95.940174 
L 209.305001 95.940174 
L 209.558891 96.330367 
L 236.979039 96.330367 
L 237.232929 95.940174 
L 310.099432 95.940174 
L 310.099432 95.940174 
" clip-path="url(#pddcb8ca2c3)" style="fill: none; stroke: #ff0000; stroke-width: 0.6; stroke-linecap: square"/>
   </g>
   <g id="patch_3">
    <path d="M 43.78125 239.76 
L 43.78125 37.296 
" style="fill: none; stroke: #000000; stroke-width: 0.8; stroke-linejoin: miter; stroke-linecap: square"/>
   </g>
   <g id="patch_4">
    <path d="M 322.78125 239.76 
L 322.78125 37.296 
" style="fill: none; stroke: #000000; stroke-width: 0.8; stroke-linejoin: miter; stroke-linecap: square"/>
   </g>
   <g id="patch_5">
    <path d="M 43.78125 239.76 
L 322.78125 239.76 
" style="fill: none; stroke: #000000; stroke-width: 0.8; stroke-linejoin: miter; stroke-linecap: square"/>
   </g>
   <g id="patch_6">
    <path d="M 43.78125 37.296 
L 322.78125 37.296 
" style="fill: none; stroke: #000000; stroke-width: 0.8; stroke-linejoin: miter; stroke-linecap: square"/>
   </g>
   <g id="text_15">
    <!-- Baseline Model -->
    <g transform="translate(149.259844 31.296) scale(0.09 -0.09)">
     <defs>
      <path id="DejaVuSans-42" d="M 1259 2228 
L 1259 519 
L 2272 519 
Q 2781 519 3026 730 
Q 3272 941 3272 1375 
Q 3272 1813 3026 2020 
Q 2781 2228 2272 2228 
L 1259 2228 
z
M 1259 4147 
L 1259 2741 
L 2194 2741 
Q 2656 2741 2882 2914 
Q 3109 3088 3109 3444 
Q 3109 3797 2882 3972 
Q 2656 4147 2194 4147 
L 1259 4147 
z
M 628 4666 
L 2241 4666 
Q 2963 4666 3353 4366 
Q 3744 4066 3744 3513 
Q 3744 3084 3544 2831 
Q 3344 2578 2956 2516 
Q 3422 2416 3680 2098 
Q 3938 1781 3938 1306 
Q 3938 681 3513 340 
Q 3088 0 2303 0 
L 628 0 
L 628 4666 
z
" transform="scale(0.015625)"/>
      <path id="DejaVuSans-65" d="M 3597 1894 
L 3597 1613 
L 953 1613 
Q 991 1019 1311 708 
Q 1631 397 2203 397 
Q 2534 397 2845 478 
Q 3156 559 3463 722 
L 3463 178 
Q 3153 47 2828 -22 
Q 2503 -91 2169 -91 
Q 1331 -91 842 396 
Q 353 884 353 1716 
Q 353 2575 817 3079 
Q 1281 3584 2069 3584 
Q 2775 3584 3186 3129 
Q 3597 2675 3597 1894 
z
M 3022 2063 
Q 3016 2534 2758 2815 
Q 2500 3097 2075 3097 
Q 1594 3097 1305 2825 
Q 1016 2553 972 2059 
L 3022 2063 
z
" transform="scale(0.015625)"/>
      <path id="DejaVuSans-6c" d="M 603 4863 
L 1178 4863 
L 1178 0 
L 603 0 
L 603 4863 
z
" transform="scale(0.015625)"/>
      <path id="DejaVuSans-69" d="M 603 3500 
L 1178 3500 
L 1178 0 
L 603 0 
L 603 3500 
z
M 603 4863 
L 1178 4863 
L 1178 4134 
L 603 4134 
L 603 4863 
z
" transform="scale(0.015625)"/>
      <path id="DejaVuSans-6e" d="M 3513 2113 
L 3513 0 
L 2938 0 
L 2938 2094 
Q 2938 2591 2744 2837 
Q 2550 3084 2163 3084 
Q 1697 3084 1428 2787 
Q 1159 2491 1159 1978 
L 1159 0 
L 581 0 
L 581 3500 
L 1159 3500 
L 1159 2956 
Q 1366 3272 1645 3428 
Q 1925 3584 2291 3584 
Q 2894 3584 3203 3211 
Q 3513 2838 3513 2113 
z
" transform="scale(0.015625)"/>
      <path id="DejaVuSans-20" transform="scale(0.015625)"/>
      <path id="DejaVuSans-4d" d="M 628 4666 
L 1569 4666 
L 2759 1491 
L 3956 4666 
L 4897 4666 
L 4897 0 
L 4281 0 
L 4281 4097 
L 3078 897 
L 2444 897 
L 1241 4097 
L 1241 0 
L 628 0 
L 628 4666 
z
" transform="scale(0.015625)"/>
      <path id="DejaVuSans-64" d="M 2906 2969 
L 2906 4863 
L 3481 4863 
L 3481 0 
L 2906 0 
L 2906 525 
Q 2725 213 2448 61 
Q 2172 -91 1784 -91 
Q 1150 -91 751 415 
Q 353 922 353 1747 
Q 353 2572 751 3078 
Q 1150 3584 1784 3584 
Q 2172 3584 2448 3432 
Q 2725 3281 2906 2969 
z
M 947 1747 
Q 947 1113 1208 752 
Q 1469 391 1925 391 
Q 2381 391 2643 752 
Q 2906 1113 2906 1747 
Q 2906 2381 2643 2742 
Q 2381 3103 1925 3103 
Q 1469 3103 1208 2742 
Q 947 2381 947 1747 
z
" transform="scale(0.015625)"/>
     </defs>
     <use xlink:href="#DejaVuSans-42"/>
     <use xlink:href="#DejaVuSans-61" x="68.603516"/>
     <use xlink:href="#DejaVuSans-73" x="129.882812"/>
     <use xlink:href="#DejaVuSans-65" x="181.982422"/>
     <use xlink:href="#DejaVuSans-6c" x="243.505859"/>
     <use xlink:href="#DejaVuSans-69" x="271.289062"/>
     <use xlink:href="#DejaVuSans-6e" x="299.072266"/>
     <use xlink:href="#DejaVuSans-65" x="362.451172"/>
     <use xlink:href="#DejaVuSans-20" x="423.974609"/>
     <use xlink:href="#DejaVuSans-4d" x="455.761719"/>
     <use xlink:href="#DejaVuSans-6f" x="542.041016"/>
     <use xlink:href="#DejaVuSans-64" x="603.222656"/>
     <use xlink:href="#DejaVuSans-65" x="666.699219"/>
     <use xlink:href="#DejaVuSans-6c" x="728.222656"/>
    </g>
   </g>
   <g id="legend_1">
    <g id="patch_7">
     <path d="M 185.565625 234.76 
L 315.78125 234.76 
Q 317.78125 234.76 317.78125 232.76 
L 317.78125 204.40375 
Q 317.78125 202.40375 315.78125 202.40375 
L 185.565625 202.40375 
Q 183.565625 202.40375 183.565625 204.40375 
L 183.565625 232.76 
Q 183.565625 234.76 185.565625 234.76 
z
" style="fill: #ffffff; opacity: 0.8; stroke: #cccccc; stroke-linejoin: miter"/>
    </g>
    <g id="line2d_27">
     <path d="M 187.565625 210.502187 
L 197.565625 210.502187 
L 207.565625 210.502187 
" style="fill: none; stroke: #0000ff; stroke-width: 0.6; stroke-linecap: square"/>
    </g>
    <g id="text_16">
     <!-- Training Accuracy -->
     <g transform="translate(215.565625 214.002187) scale(0.1 -0.1)">
      <defs>
       <path id="DejaVuSans-54" d="M -19 4666 
L 3928 4666 
L 3928 4134 
L 2272 4134 
L 2272 0 
L 1638 0 
L 1638 4134 
L -19 4134 
L -19 4666 
z
" transform="scale(0.015625)"/>
       <path id="DejaVuSans-67" d="M 2906 1791 
Q 2906 2416 2648 2759 
Q 2391 3103 1925 3103 
Q 1463 3103 1205 2759 
Q 947 2416 947 1791 
Q 947 1169 1205 825 
Q 1463 481 1925 481 
Q 2391 481 2648 825 
Q 2906 1169 2906 1791 
z
M 3481 434 
Q 3481 -459 3084 -895 
Q 2688 -1331 1869 -1331 
Q 1566 -1331 1297 -1286 
Q 1028 -1241 775 -1147 
L 775 -588 
Q 1028 -725 1275 -790 
Q 1522 -856 1778 -856 
Q 2344 -856 2625 -561 
Q 2906 -266 2906 331 
L 2906 616 
Q 2728 306 2450 153 
Q 2172 0 1784 0 
Q 1141 0 747 490 
Q 353 981 353 1791 
Q 353 2603 747 3093 
Q 1141 3584 1784 3584 
Q 2172 3584 2450 3431 
Q 2728 3278 2906 2969 
L 2906 3500 
L 3481 3500 
L 3481 434 
z
" transform="scale(0.015625)"/>
      </defs>
      <use xlink:href="#DejaVuSans-54"/>
      <use xlink:href="#DejaVuSans-72" x="46.333984"/>
      <use xlink:href="#DejaVuSans-61" x="87.447266"/>
      <use xlink:href="#DejaVuSans-69" x="148.726562"/>
      <use xlink:href="#DejaVuSans-6e" x="176.509766"/>
      <use xlink:href="#DejaVuSans-69" x="239.888672"/>
      <use xlink:href="#DejaVuSans-6e" x="267.671875"/>
      <use xlink:href="#DejaVuSans-67" x="331.050781"/>
      <use xlink:href="#DejaVuSans-20" x="394.527344"/>
      <use xlink:href="#DejaVuSans-41" x="426.314453"/>
      <use xlink:href="#DejaVuSans-63" x="492.972656"/>
      <use xlink:href="#DejaVuSans-63" x="547.953125"/>
      <use xlink:href="#DejaVuSans-75" x="602.933594"/>
      <use xlink:href="#DejaVuSans-72" x="666.3125"/>
      <use xlink:href="#DejaVuSans-61" x="707.425781"/>
      <use xlink:href="#DejaVuSans-63" x="768.705078"/>
      <use xlink:href="#DejaVuSans-79" x="823.685547"/>
     </g>
    </g>
    <g id="line2d_28">
     <path d="M 187.565625 225.180312 
L 197.565625 225.180312 
L 207.565625 225.180312 
" style="fill: none; stroke: #ff0000; stroke-width: 0.6; stroke-linecap: square"/>
    </g>
    <g id="text_17">
     <!-- Validation Accuracy -->
     <g transform="translate(215.565625 228.680312) scale(0.1 -0.1)">
      <defs>
       <path id="DejaVuSans-56" d="M 1831 0 
L 50 4666 
L 709 4666 
L 2188 738 
L 3669 4666 
L 4325 4666 
L 2547 0 
L 1831 0 
z
" transform="scale(0.015625)"/>
       <path id="DejaVuSans-74" d="M 1172 4494 
L 1172 3500 
L 2356 3500 
L 2356 3053 
L 1172 3053 
L 1172 1153 
Q 1172 725 1289 603 
Q 1406 481 1766 481 
L 2356 481 
L 2356 0 
L 1766 0 
Q 1100 0 847 248 
Q 594 497 594 1153 
L 594 3053 
L 172 3053 
L 172 3500 
L 594 3500 
L 594 4494 
L 1172 4494 
z
" transform="scale(0.015625)"/>
      </defs>
      <use xlink:href="#DejaVuSans-56"/>
      <use xlink:href="#DejaVuSans-61" x="60.658203"/>
      <use xlink:href="#DejaVuSans-6c" x="121.9375"/>
      <use xlink:href="#DejaVuSans-69" x="149.720703"/>
      <use xlink:href="#DejaVuSans-64" x="177.503906"/>
      <use xlink:href="#DejaVuSans-61" x="240.980469"/>
      <use xlink:href="#DejaVuSans-74" x="302.259766"/>
      <use xlink:href="#DejaVuSans-69" x="341.46875"/>
      <use xlink:href="#DejaVuSans-6f" x="369.251953"/>
      <use xlink:href="#DejaVuSans-6e" x="430.433594"/>
      <use xlink:href="#DejaVuSans-20" x="493.8125"/>
      <use xlink:href="#DejaVuSans-41" x="525.599609"/>
      <use xlink:href="#DejaVuSans-63" x="592.257812"/>
      <use xlink:href="#DejaVuSans-63" x="647.238281"/>
      <use xlink:href="#DejaVuSans-75" x="702.21875"/>
      <use xlink:href="#DejaVuSans-72" x="765.597656"/>
      <use xlink:href="#DejaVuSans-61" x="806.710938"/>
      <use xlink:href="#DejaVuSans-63" x="867.990234"/>
      <use xlink:href="#DejaVuSans-79" x="922.970703"/>
     </g>
    </g>
   </g>
  </g>
  <g id="text_18">
   <!-- Training VS. Validation Accuracy - Dataset Size = 60.0% -->
   <g transform="translate(24.933359 15.558281) scale(0.11 -0.11)">
    <defs>
     <path id="DejaVuSans-53" d="M 3425 4513 
L 3425 3897 
Q 3066 4069 2747 4153 
Q 2428 4238 2131 4238 
Q 1616 4238 1336 4038 
Q 1056 3838 1056 3469 
Q 1056 3159 1242 3001 
Q 1428 2844 1947 2747 
L 2328 2669 
Q 3034 2534 3370 2195 
Q 3706 1856 3706 1288 
Q 3706 609 3251 259 
Q 2797 -91 1919 -91 
Q 1588 -91 1214 -16 
Q 841 59 441 206 
L 441 856 
Q 825 641 1194 531 
Q 1563 422 1919 422 
Q 2459 422 2753 634 
Q 3047 847 3047 1241 
Q 3047 1584 2836 1778 
Q 2625 1972 2144 2069 
L 1759 2144 
Q 1053 2284 737 2584 
Q 422 2884 422 3419 
Q 422 4038 858 4394 
Q 1294 4750 2059 4750 
Q 2388 4750 2728 4690 
Q 3069 4631 3425 4513 
z
" transform="scale(0.015625)"/>
     <path id="DejaVuSans-2d" d="M 313 2009 
L 1997 2009 
L 1997 1497 
L 313 1497 
L 313 2009 
z
" transform="scale(0.015625)"/>
     <path id="DejaVuSans-44" d="M 1259 4147 
L 1259 519 
L 2022 519 
Q 2988 519 3436 956 
Q 3884 1394 3884 2338 
Q 3884 3275 3436 3711 
Q 2988 4147 2022 4147 
L 1259 4147 
z
M 628 4666 
L 1925 4666 
Q 3281 4666 3915 4102 
Q 4550 3538 4550 2338 
Q 4550 1131 3912 565 
Q 3275 0 1925 0 
L 628 0 
L 628 4666 
z
" transform="scale(0.015625)"/>
     <path id="DejaVuSans-7a" d="M 353 3500 
L 3084 3500 
L 3084 2975 
L 922 459 
L 3084 459 
L 3084 0 
L 275 0 
L 275 525 
L 2438 3041 
L 353 3041 
L 353 3500 
z
" transform="scale(0.015625)"/>
     <path id="DejaVuSans-3d" d="M 678 2906 
L 4684 2906 
L 4684 2381 
L 678 2381 
L 678 2906 
z
M 678 1631 
L 4684 1631 
L 4684 1100 
L 678 1100 
L 678 1631 
z
" transform="scale(0.015625)"/>
     <path id="DejaVuSans-25" d="M 4653 2053 
Q 4381 2053 4226 1822 
Q 4072 1591 4072 1178 
Q 4072 772 4226 539 
Q 4381 306 4653 306 
Q 4919 306 5073 539 
Q 5228 772 5228 1178 
Q 5228 1588 5073 1820 
Q 4919 2053 4653 2053 
z
M 4653 2450 
Q 5147 2450 5437 2106 
Q 5728 1763 5728 1178 
Q 5728 594 5436 251 
Q 5144 -91 4653 -91 
Q 4153 -91 3862 251 
Q 3572 594 3572 1178 
Q 3572 1766 3864 2108 
Q 4156 2450 4653 2450 
z
M 1428 4353 
Q 1159 4353 1004 4120 
Q 850 3888 850 3481 
Q 850 3069 1003 2837 
Q 1156 2606 1428 2606 
Q 1700 2606 1854 2837 
Q 2009 3069 2009 3481 
Q 2009 3884 1853 4118 
Q 1697 4353 1428 4353 
z
M 4250 4750 
L 4750 4750 
L 1831 -91 
L 1331 -91 
L 4250 4750 
z
M 1428 4750 
Q 1922 4750 2215 4408 
Q 2509 4066 2509 3481 
Q 2509 2891 2217 2550 
Q 1925 2209 1428 2209 
Q 931 2209 642 2551 
Q 353 2894 353 3481 
Q 353 4063 643 4406 
Q 934 4750 1428 4750 
z
" transform="scale(0.015625)"/>
    </defs>
    <use xlink:href="#DejaVuSans-54"/>
    <use xlink:href="#DejaVuSans-72" x="46.333984"/>
    <use xlink:href="#DejaVuSans-61" x="87.447266"/>
    <use xlink:href="#DejaVuSans-69" x="148.726562"/>
    <use xlink:href="#DejaVuSans-6e" x="176.509766"/>
    <use xlink:href="#DejaVuSans-69" x="239.888672"/>
    <use xlink:href="#DejaVuSans-6e" x="267.671875"/>
    <use xlink:href="#DejaVuSans-67" x="331.050781"/>
    <use xlink:href="#DejaVuSans-20" x="394.527344"/>
    <use xlink:href="#DejaVuSans-56" x="426.314453"/>
    <use xlink:href="#DejaVuSans-53" x="494.722656"/>
    <use xlink:href="#DejaVuSans-2e" x="558.199219"/>
    <use xlink:href="#DejaVuSans-20" x="589.986328"/>
    <use xlink:href="#DejaVuSans-56" x="621.773438"/>
    <use xlink:href="#DejaVuSans-61" x="682.431641"/>
    <use xlink:href="#DejaVuSans-6c" x="743.710938"/>
    <use xlink:href="#DejaVuSans-69" x="771.494141"/>
    <use xlink:href="#DejaVuSans-64" x="799.277344"/>
    <use xlink:href="#DejaVuSans-61" x="862.753906"/>
    <use xlink:href="#DejaVuSans-74" x="924.033203"/>
    <use xlink:href="#DejaVuSans-69" x="963.242188"/>
    <use xlink:href="#DejaVuSans-6f" x="991.025391"/>
    <use xlink:href="#DejaVuSans-6e" x="1052.207031"/>
    <use xlink:href="#DejaVuSans-20" x="1115.585938"/>
    <use xlink:href="#DejaVuSans-41" x="1147.373047"/>
    <use xlink:href="#DejaVuSans-63" x="1214.03125"/>
    <use xlink:href="#DejaVuSans-63" x="1269.011719"/>
    <use xlink:href="#DejaVuSans-75" x="1323.992188"/>
    <use xlink:href="#DejaVuSans-72" x="1387.371094"/>
    <use xlink:href="#DejaVuSans-61" x="1428.484375"/>
    <use xlink:href="#DejaVuSans-63" x="1489.763672"/>
    <use xlink:href="#DejaVuSans-79" x="1544.744141"/>
    <use xlink:href="#DejaVuSans-20" x="1603.923828"/>
    <use xlink:href="#DejaVuSans-2d" x="1635.710938"/>
    <use xlink:href="#DejaVuSans-20" x="1671.794922"/>
    <use xlink:href="#DejaVuSans-44" x="1703.582031"/>
    <use xlink:href="#DejaVuSans-61" x="1780.583984"/>
    <use xlink:href="#DejaVuSans-74" x="1841.863281"/>
    <use xlink:href="#DejaVuSans-61" x="1881.072266"/>
    <use xlink:href="#DejaVuSans-73" x="1942.351562"/>
    <use xlink:href="#DejaVuSans-65" x="1994.451172"/>
    <use xlink:href="#DejaVuSans-74" x="2055.974609"/>
    <use xlink:href="#DejaVuSans-20" x="2095.183594"/>
    <use xlink:href="#DejaVuSans-53" x="2126.970703"/>
    <use xlink:href="#DejaVuSans-69" x="2190.447266"/>
    <use xlink:href="#DejaVuSans-7a" x="2218.230469"/>
    <use xlink:href="#DejaVuSans-65" x="2270.720703"/>
    <use xlink:href="#DejaVuSans-20" x="2332.244141"/>
    <use xlink:href="#DejaVuSans-3d" x="2364.03125"/>
    <use xlink:href="#DejaVuSans-20" x="2447.820312"/>
    <use xlink:href="#DejaVuSans-36" x="2479.607422"/>
    <use xlink:href="#DejaVuSans-30" x="2543.230469"/>
    <use xlink:href="#DejaVuSans-2e" x="2606.853516"/>
    <use xlink:href="#DejaVuSans-30" x="2638.640625"/>
    <use xlink:href="#DejaVuSans-25" x="2702.263672"/>
   </g>
  </g>
 </g>
 <defs>
  <clipPath id="pddcb8ca2c3">
   <rect x="43.78125" y="37.296" width="279" height="202.464"/>
  </clipPath>
 </defs>
</svg>
