<?xml version="1.0" encoding="utf-8" standalone="no"?>
<!DOCTYPE svg PUBLIC "-//W3C//DTD SVG 1.1//EN"
  "http://www.w3.org/Graphics/SVG/1.1/DTD/svg11.dtd">
<svg xmlns:xlink="http://www.w3.org/1999/xlink" width="343.328516pt" height="277.31625pt" viewBox="0 0 343.328516 277.31625" xmlns="http://www.w3.org/2000/svg" version="1.1">
 <metadata>
  <rdf:RDF xmlns:dc="http://purl.org/dc/elements/1.1/" xmlns:cc="http://creativecommons.org/ns#" xmlns:rdf="http://www.w3.org/1999/02/22-rdf-syntax-ns#">
   <cc:Work>
    <dc:type rdf:resource="http://purl.org/dc/dcmitype/StillImage"/>
    <dc:date>2026-06-11T11:29:01.489416</dc:date>
    <dc:format>image/svg+xml</dc:format>
    <dc:creator>
     <cc:Agent>
      <dc:title>Matplotlib v3.8.4, https://matplotlib.org/</dc:title>
     </cc:Agent>
    </dc:creator>
   </cc:Work>
  </rdf:RDF>
 </metadata>
 <defs>
  <style type="text/css">*{stroke-linejoin: round; stroke-linecap: butt}</style>
 </defs>
 <g id="figure_1">
  <g id="patch_1">
   <path d="M 0 277.31625 
L 343.328516 277.31625 
L 343.328516 0 
L 0 0 
z
" style="fill: #ffffff"/>
  </g>
  <g id="axes_1">
   <g id="patch_2">
    <path d="M 43.78125 239.76 
L 322.78125 239.76 
L 322.78125 37.296 
L 43.78125 37.296 
z
" style="fill: #ffffff"/>
   </g>
   <g id="matplotlib.axis_1">
    <g id="xtick_1">
     <g id="line2d_1">
      <path d="M 56.209178 239.76 
L 56.209178 37.296 
" clip-path="url(#p07308cae21)" style="fill: none; stroke-dasharray: 2.96,1.28; stroke-dashoffset: 0; stroke: #b0b0b0; stroke-opacity: 0.4; stroke-width: 0.8"/>
     </g>
     <g id="line2d_2">
      <defs>
       <path id="m32458ca439" d="M 0 0 
L 0 3.5 
" style="stroke: #000000; stroke-width: 0.8"/>
      </defs>
      <g>
       <use xlink:href="#m32458ca439" x="56.209178" y="239.76" style="stroke: #000000; stroke-width: 0.8"/>
      </g>
     </g>
     <g id="text_1">
      <!-- 0 -->
      <g transform="translate(53.027928 254.358437) scale(0.1 -0.1)">
       <defs>
        <path id="DejaVuSans-30" d="M 2034 4250 
Q 1547 4250 1301 3770 
Q 1056 3291 1056 2328 
Q 1056 1369 1301 889 
Q 1547 409 2034 409 
Q 2525 409 2770 889 
Q 3016 1369 3016 2328 
Q 3016 3291 2770 3770 
Q 2525 4250 2034 4250 
z
M 2034 4750 
Q 2819 4750 3233 4129 
Q 3647 3509 3647 2328 
Q 3647 1150 3233 529 
Q 2819 -91 2034 -91 
Q 1250 -91 836 529 
Q 422 1150 422 2328 
Q 422 3509 836 4129 
Q 1250 4750 2034 4750 
z
" transform="scale(0.015625)"/>
       </defs>
       <use xlink:href="#DejaVuSans-30"/>
      </g>
     </g>
    </g>
    <g id="xtick_2">
     <g id="line2d_3">
      <path d="M 106.987229 239.76 
L 106.987229 37.296 
" clip-path="url(#p07308cae21)" style="fill: none; stroke-dasharray: 2.96,1.28; stroke-dashoffset: 0; stroke: #b0b0b0; stroke-opacity: 0.4; stroke-width: 0.8"/>
     </g>
     <g id="line2d_4">
      <g>
       <use xlink:href="#m32458ca439" x="106.987229" y="239.76" style="stroke: #000000; stroke-width: 0.8"/>
      </g>
     </g>
     <g id="text_2">
      <!-- 200 -->
      <g transform="translate(97.443479 254.358437) scale(0.1 -0.1)">
       <defs>
        <path id="DejaVuSans-32" d="M 1228 531 
L 3431 531 
L 3431 0 
L 469 0 
L 469 531 
Q 828 903 1448 1529 
Q 2069 2156 2228 2338 
Q 2531 2678 2651 2914 
Q 2772 3150 2772 3378 
Q 2772 3750 2511 3984 
Q 2250 4219 1831 4219 
Q 1534 4219 1204 4116 
Q 875 4013 500 3803 
L 500 4441 
Q 881 4594 1212 4672 
Q 1544 4750 1819 4750 
Q 2544 4750 2975 4387 
Q 3406 4025 3406 3419 
Q 3406 3131 3298 2873 
Q 3191 2616 2906 2266 
Q 2828 2175 2409 1742 
Q 1991 1309 1228 531 
z
" transform="scale(0.015625)"/>
       </defs>
       <use xlink:href="#DejaVuSans-32"/>
       <use xlink:href="#DejaVuSans-30" x="63.623047"/>
       <use xlink:href="#DejaVuSans-30" x="127.246094"/>
      </g>
     </g>
    </g>
    <g id="xtick_3">
     <g id="line2d_5">
      <path d="M 157.765279 239.76 
L 157.765279 37.296 
" clip-path="url(#p07308cae21)" style="fill: none; stroke-dasharray: 2.96,1.28; stroke-dashoffset: 0; stroke: #b0b0b0; stroke-opacity: 0.4; stroke-width: 0.8"/>
     </g>
     <g id="line2d_6">
      <g>
       <use xlink:href="#m32458ca439" x="157.765279" y="239.76" style="stroke: #000000; stroke-width: 0.8"/>
      </g>
     </g>
     <g id="text_3">
      <!-- 400 -->
      <g transform="translate(148.221529 254.358437) scale(0.1 -0.1)">
       <defs>
        <path id="DejaVuSans-34" d="M 2419 4116 
L 825 1625 
L 2419 1625 
L 2419 4116 
z
M 2253 4666 
L 3047 4666 
L 3047 1625 
L 3713 1625 
L 3713 1100 
L 3047 1100 
L 3047 0 
L 2419 0 
L 2419 1100 
L 313 1100 
L 313 1709 
L 2253 4666 
z
" transform="scale(0.015625)"/>
       </defs>
       <use xlink:href="#DejaVuSans-34"/>
       <use xlink:href="#DejaVuSans-30" x="63.623047"/>
       <use xlink:href="#DejaVuSans-30" x="127.246094"/>
      </g>
     </g>
    </g>
    <g id="xtick_4">
     <g id="line2d_7">
      <path d="M 208.54333 239.76 
L 208.54333 37.296 
" clip-path="url(#p07308cae21)" style="fill: none; stroke-dasharray: 2.96,1.28; stroke-dashoffset: 0; stroke: #b0b0b0; stroke-opacity: 0.4; stroke-width: 0.8"/>
     </g>
     <g id="line2d_8">
      <g>
       <use xlink:href="#m32458ca439" x="208.54333" y="239.76" style="stroke: #000000; stroke-width: 0.8"/>
      </g>
     </g>
     <g id="text_4">
      <!-- 600 -->
      <g transform="translate(198.99958 254.358437) scale(0.1 -0.1)">
       <defs>
        <path id="DejaVuSans-36" d="M 2113 2584 
Q 1688 2584 1439 2293 
Q 1191 2003 1191 1497 
Q 1191 994 1439 701 
Q 1688 409 2113 409 
Q 2538 409 2786 701 
Q 3034 994 3034 1497 
Q 3034 2003 2786 2293 
Q 2538 2584 2113 2584 
z
M 3366 4563 
L 3366 3988 
Q 3128 4100 2886 4159 
Q 2644 4219 2406 4219 
Q 1781 4219 1451 3797 
Q 1122 3375 1075 2522 
Q 1259 2794 1537 2939 
Q 1816 3084 2150 3084 
Q 2853 3084 3261 2657 
Q 3669 2231 3669 1497 
Q 3669 778 3244 343 
Q 2819 -91 2113 -91 
Q 1303 -91 875 529 
Q 447 1150 447 2328 
Q 447 3434 972 4092 
Q 1497 4750 2381 4750 
Q 2619 4750 2861 4703 
Q 3103 4656 3366 4563 
z
" transform="scale(0.015625)"/>
       </defs>
       <use xlink:href="#DejaVuSans-36"/>
       <use xlink:href="#DejaVuSans-30" x="63.623047"/>
       <use xlink:href="#DejaVuSans-30" x="127.246094"/>
      </g>
     </g>
    </g>
    <g id="xtick_5">
     <g id="line2d_9">
      <path d="M 259.321381 239.76 
L 259.321381 37.296 
" clip-path="url(#p07308cae21)" style="fill: none; stroke-dasharray: 2.96,1.28; stroke-dashoffset: 0; stroke: #b0b0b0; stroke-opacity: 0.4; stroke-width: 0.8"/>
     </g>
     <g id="line2d_10">
      <g>
       <use xlink:href="#m32458ca439" x="259.321381" y="239.76" style="stroke: #000000; stroke-width: 0.8"/>
      </g>
     </g>
     <g id="text_5">
      <!-- 800 -->
      <g transform="translate(249.777631 254.358437) scale(0.1 -0.1)">
       <defs>
        <path id="DejaVuSans-38" d="M 2034 2216 
Q 1584 2216 1326 1975 
Q 1069 1734 1069 1313 
Q 1069 891 1326 650 
Q 1584 409 2034 409 
Q 2484 409 2743 651 
Q 3003 894 3003 1313 
Q 3003 1734 2745 1975 
Q 2488 2216 2034 2216 
z
M 1403 2484 
Q 997 2584 770 2862 
Q 544 3141 544 3541 
Q 544 4100 942 4425 
Q 1341 4750 2034 4750 
Q 2731 4750 3128 4425 
Q 3525 4100 3525 3541 
Q 3525 3141 3298 2862 
Q 3072 2584 2669 2484 
Q 3125 2378 3379 2068 
Q 3634 1759 3634 1313 
Q 3634 634 3220 271 
Q 2806 -91 2034 -91 
Q 1263 -91 848 271 
Q 434 634 434 1313 
Q 434 1759 690 2068 
Q 947 2378 1403 2484 
z
M 1172 3481 
Q 1172 3119 1398 2916 
Q 1625 2713 2034 2713 
Q 2441 2713 2670 2916 
Q 2900 3119 2900 3481 
Q 2900 3844 2670 4047 
Q 2441 4250 2034 4250 
Q 1625 4250 1398 4047 
Q 1172 3844 1172 3481 
z
" transform="scale(0.015625)"/>
       </defs>
       <use xlink:href="#DejaVuSans-38"/>
       <use xlink:href="#DejaVuSans-30" x="63.623047"/>
       <use xlink:href="#DejaVuSans-30" x="127.246094"/>
      </g>
     </g>
    </g>
    <g id="xtick_6">
     <g id="line2d_11">
      <path d="M 310.099432 239.76 
L 310.099432 37.296 
" clip-path="url(#p07308cae21)" style="fill: none; stroke-dasharray: 2.96,1.28; stroke-dashoffset: 0; stroke: #b0b0b0; stroke-opacity: 0.4; stroke-width: 0.8"/>
     </g>
     <g id="line2d_12">
      <g>
       <use xlink:href="#m32458ca439" x="310.099432" y="239.76" style="stroke: #000000; stroke-width: 0.8"/>
      </g>
     </g>
     <g id="text_6">
      <!-- 1000 -->
      <g transform="translate(297.374432 254.358437) scale(0.1 -0.1)">
       <defs>
        <path id="DejaVuSans-31" d="M 794 531 
L 1825 531 
L 1825 4091 
L 703 3866 
L 703 4441 
L 1819 4666 
L 2450 4666 
L 2450 531 
L 3481 531 
L 3481 0 
L 794 0 
L 794 531 
z
" transform="scale(0.015625)"/>
       </defs>
       <use xlink:href="#DejaVuSans-31"/>
       <use xlink:href="#DejaVuSans-30" x="63.623047"/>
       <use xlink:href="#DejaVuSans-30" x="127.246094"/>
       <use xlink:href="#DejaVuSans-30" x="190.869141"/>
      </g>
     </g>
    </g>
    <g id="text_7">
     <!-- Epochs -->
     <g transform="translate(165.365625 268.036562) scale(0.1 -0.1)">
      <defs>
       <path id="DejaVuSans-45" d="M 628 4666 
L 3578 4666 
L 3578 4134 
L 1259 4134 
L 1259 2753 
L 3481 2753 
L 3481 2222 
L 1259 2222 
L 1259 531 
L 3634 531 
L 3634 0 
L 628 0 
L 628 4666 
z
" transform="scale(0.015625)"/>
       <path id="DejaVuSans-70" d="M 1159 525 
L 1159 -1331 
L 581 -1331 
L 581 3500 
L 1159 3500 
L 1159 2969 
Q 1341 3281 1617 3432 
Q 1894 3584 2278 3584 
Q 2916 3584 3314 3078 
Q 3713 2572 3713 1747 
Q 3713 922 3314 415 
Q 2916 -91 2278 -91 
Q 1894 -91 1617 61 
Q 1341 213 1159 525 
z
M 3116 1747 
Q 3116 2381 2855 2742 
Q 2594 3103 2138 3103 
Q 1681 3103 1420 2742 
Q 1159 2381 1159 1747 
Q 1159 1113 1420 752 
Q 1681 391 2138 391 
Q 2594 391 2855 752 
Q 3116 1113 3116 1747 
z
" transform="scale(0.015625)"/>
       <path id="DejaVuSans-6f" d="M 1959 3097 
Q 1497 3097 1228 2736 
Q 959 2375 959 1747 
Q 959 1119 1226 758 
Q 1494 397 1959 397 
Q 2419 397 2687 759 
Q 2956 1122 2956 1747 
Q 2956 2369 2687 2733 
Q 2419 3097 1959 3097 
z
M 1959 3584 
Q 2709 3584 3137 3096 
Q 3566 2609 3566 1747 
Q 3566 888 3137 398 
Q 2709 -91 1959 -91 
Q 1206 -91 779 398 
Q 353 888 353 1747 
Q 353 2609 779 3096 
Q 1206 3584 1959 3584 
z
" transform="scale(0.015625)"/>
       <path id="DejaVuSans-63" d="M 3122 3366 
L 3122 2828 
Q 2878 2963 2633 3030 
Q 2388 3097 2138 3097 
Q 1578 3097 1268 2742 
Q 959 2388 959 1747 
Q 959 1106 1268 751 
Q 1578 397 2138 397 
Q 2388 397 2633 464 
Q 2878 531 3122 666 
L 3122 134 
Q 2881 22 2623 -34 
Q 2366 -91 2075 -91 
Q 1284 -91 818 406 
Q 353 903 353 1747 
Q 353 2603 823 3093 
Q 1294 3584 2113 3584 
Q 2378 3584 2631 3529 
Q 2884 3475 3122 3366 
z
" transform="scale(0.015625)"/>
       <path id="DejaVuSans-68" d="M 3513 2113 
L 3513 0 
L 2938 0 
L 2938 2094 
Q 2938 2591 2744 2837 
Q 2550 3084 2163 3084 
Q 1697 3084 1428 2787 
Q 1159 2491 1159 1978 
L 1159 0 
L 581 0 
L 581 4863 
L 1159 4863 
L 1159 2956 
Q 1366 3272 1645 3428 
Q 1925 3584 2291 3584 
Q 2894 3584 3203 3211 
Q 3513 2838 3513 2113 
z
" transform="scale(0.015625)"/>
       <path id="DejaVuSans-73" d="M 2834 3397 
L 2834 2853 
Q 2591 2978 2328 3040 
Q 2066 3103 1784 3103 
Q 1356 3103 1142 2972 
Q 928 2841 928 2578 
Q 928 2378 1081 2264 
Q 1234 2150 1697 2047 
L 1894 2003 
Q 2506 1872 2764 1633 
Q 3022 1394 3022 966 
Q 3022 478 2636 193 
Q 2250 -91 1575 -91 
Q 1294 -91 989 -36 
Q 684 19 347 128 
L 347 722 
Q 666 556 975 473 
Q 1284 391 1588 391 
Q 1994 391 2212 530 
Q 2431 669 2431 922 
Q 2431 1156 2273 1281 
Q 2116 1406 1581 1522 
L 1381 1569 
Q 847 1681 609 1914 
Q 372 2147 372 2553 
Q 372 3047 722 3315 
Q 1072 3584 1716 3584 
Q 2034 3584 2315 3537 
Q 2597 3491 2834 3397 
z
" transform="scale(0.015625)"/>
      </defs>
      <use xlink:href="#DejaVuSans-45"/>
      <use xlink:href="#DejaVuSans-70" x="63.183594"/>
      <use xlink:href="#DejaVuSans-6f" x="126.660156"/>
      <use xlink:href="#DejaVuSans-63" x="187.841797"/>
      <use xlink:href="#DejaVuSans-68" x="242.822266"/>
      <use xlink:href="#DejaVuSans-73" x="306.201172"/>
     </g>
    </g>
   </g>
   <g id="matplotlib.axis_2">
    <g id="ytick_1">
     <g id="line2d_13">
      <path d="M 43.78125 228.579087 
L 322.78125 228.579087 
" clip-path="url(#p07308cae21)" style="fill: none; stroke-dasharray: 2.96,1.28; stroke-dashoffset: 0; stroke: #b0b0b0; stroke-opacity: 0.4; stroke-width: 0.8"/>
     </g>
     <g id="line2d_14">
      <defs>
       <path id="m735e558573" d="M 0 0 
L -3.5 0 
" style="stroke: #000000; stroke-width: 0.8"/>
      </defs>
      <g>
       <use xlink:href="#m735e558573" x="43.78125" y="228.579087" style="stroke: #000000; stroke-width: 0.8"/>
      </g>
     </g>
     <g id="text_8">
      <!-- 0.5 -->
      <g transform="translate(20.878125 232.378305) scale(0.1 -0.1)">
       <defs>
        <path id="DejaVuSans-2e" d="M 684 794 
L 1344 794 
L 1344 0 
L 684 0 
L 684 794 
z
" transform="scale(0.015625)"/>
        <path id="DejaVuSans-35" d="M 691 4666 
L 3169 4666 
L 3169 4134 
L 1269 4134 
L 1269 2991 
Q 1406 3038 1543 3061 
Q 1681 3084 1819 3084 
Q 2600 3084 3056 2656 
Q 3513 2228 3513 1497 
Q 3513 744 3044 326 
Q 2575 -91 1722 -91 
Q 1428 -91 1123 -41 
Q 819 9 494 109 
L 494 744 
Q 775 591 1075 516 
Q 1375 441 1709 441 
Q 2250 441 2565 725 
Q 2881 1009 2881 1497 
Q 2881 1984 2565 2268 
Q 2250 2553 1709 2553 
Q 1456 2553 1204 2497 
Q 953 2441 691 2322 
L 691 4666 
z
" transform="scale(0.015625)"/>
       </defs>
       <use xlink:href="#DejaVuSans-30"/>
       <use xlink:href="#DejaVuSans-2e" x="63.623047"/>
       <use xlink:href="#DejaVuSans-35" x="95.410156"/>
      </g>
     </g>
    </g>
    <g id="ytick_2">
     <g id="line2d_15">
      <path d="M 43.78125 191.663347 
L 322.78125 191.663347 
" clip-path="url(#p07308cae21)" style="fill: none; stroke-dasharray: 2.96,1.28; stroke-dashoffset: 0; stroke: #b0b0b0; stroke-opacity: 0.4; stroke-width: 0.8"/>
     </g>
     <g id="line2d_16">
      <g>
       <use xlink:href="#m735e558573" x="43.78125" y="191.663347" style="stroke: #000000; stroke-width: 0.8"/>
      </g>
     </g>
     <g id="text_9">
      <!-- 0.6 -->
      <g transform="translate(20.878125 195.462566) scale(0.1 -0.1)">
       <use xlink:href="#DejaVuSans-30"/>
       <use xlink:href="#DejaVuSans-2e" x="63.623047"/>
       <use xlink:href="#DejaVuSans-36" x="95.410156"/>
      </g>
     </g>
    </g>
    <g id="ytick_3">
     <g id="line2d_17">
      <path d="M 43.78125 154.747608 
L 322.78125 154.747608 
" clip-path="url(#p07308cae21)" style="fill: none; stroke-dasharray: 2.96,1.28; stroke-dashoffset: 0; stroke: #b0b0b0; stroke-opacity: 0.4; stroke-width: 0.8"/>
     </g>
     <g id="line2d_18">
      <g>
       <use xlink:href="#m735e558573" x="43.78125" y="154.747608" style="stroke: #000000; stroke-width: 0.8"/>
      </g>
     </g>
     <g id="text_10">
      <!-- 0.7 -->
      <g transform="translate(20.878125 158.546827) scale(0.1 -0.1)">
       <defs>
        <path id="DejaVuSans-37" d="M 525 4666 
L 3525 4666 
L 3525 4397 
L 1831 0 
L 1172 0 
L 2766 4134 
L 525 4134 
L 525 4666 
z
" transform="scale(0.015625)"/>
       </defs>
       <use xlink:href="#DejaVuSans-30"/>
       <use xlink:href="#DejaVuSans-2e" x="63.623047"/>
       <use xlink:href="#DejaVuSans-37" x="95.410156"/>
      </g>
     </g>
    </g>
    <g id="ytick_4">
     <g id="line2d_19">
      <path d="M 43.78125 117.831869 
L 322.78125 117.831869 
" clip-path="url(#p07308cae21)" style="fill: none; stroke-dasharray: 2.96,1.28; stroke-dashoffset: 0; stroke: #b0b0b0; stroke-opacity: 0.4; stroke-width: 0.8"/>
     </g>
     <g id="line2d_20">
      <g>
       <use xlink:href="#m735e558573" x="43.78125" y="117.831869" style="stroke: #000000; stroke-width: 0.8"/>
      </g>
     </g>
     <g id="text_11">
      <!-- 0.8 -->
      <g transform="translate(20.878125 121.631088) scale(0.1 -0.1)">
       <use xlink:href="#DejaVuSans-30"/>
       <use xlink:href="#DejaVuSans-2e" x="63.623047"/>
       <use xlink:href="#DejaVuSans-38" x="95.410156"/>
      </g>
     </g>
    </g>
    <g id="ytick_5">
     <g id="line2d_21">
      <path d="M 43.78125 80.916129 
L 322.78125 80.916129 
" clip-path="url(#p07308cae21)" style="fill: none; stroke-dasharray: 2.96,1.28; stroke-dashoffset: 0; stroke: #b0b0b0; stroke-opacity: 0.4; stroke-width: 0.8"/>
     </g>
     <g id="line2d_22">
      <g>
       <use xlink:href="#m735e558573" x="43.78125" y="80.916129" style="stroke: #000000; stroke-width: 0.8"/>
      </g>
     </g>
     <g id="text_12">
      <!-- 0.9 -->
      <g transform="translate(20.878125 84.715348) scale(0.1 -0.1)">
       <defs>
        <path id="DejaVuSans-39" d="M 703 97 
L 703 672 
Q 941 559 1184 500 
Q 1428 441 1663 441 
Q 2288 441 2617 861 
Q 2947 1281 2994 2138 
Q 2813 1869 2534 1725 
Q 2256 1581 1919 1581 
Q 1219 1581 811 2004 
Q 403 2428 403 3163 
Q 403 3881 828 4315 
Q 1253 4750 1959 4750 
Q 2769 4750 3195 4129 
Q 3622 3509 3622 2328 
Q 3622 1225 3098 567 
Q 2575 -91 1691 -91 
Q 1453 -91 1209 -44 
Q 966 3 703 97 
z
M 1959 2075 
Q 2384 2075 2632 2365 
Q 2881 2656 2881 3163 
Q 2881 3666 2632 3958 
Q 2384 4250 1959 4250 
Q 1534 4250 1286 3958 
Q 1038 3666 1038 3163 
Q 1038 2656 1286 2365 
Q 1534 2075 1959 2075 
z
" transform="scale(0.015625)"/>
       </defs>
       <use xlink:href="#DejaVuSans-30"/>
       <use xlink:href="#DejaVuSans-2e" x="63.623047"/>
       <use xlink:href="#DejaVuSans-39" x="95.410156"/>
      </g>
     </g>
    </g>
    <g id="ytick_6">
     <g id="line2d_23">
      <path d="M 43.78125 44.00039 
L 322.78125 44.00039 
" clip-path="url(#p07308cae21)" style="fill: none; stroke-dasharray: 2.96,1.28; stroke-dashoffset: 0; stroke: #b0b0b0; stroke-opacity: 0.4; stroke-width: 0.8"/>
     </g>
     <g id="line2d_24">
      <g>
       <use xlink:href="#m735e558573" x="43.78125" y="44.00039" style="stroke: #000000; stroke-width: 0.8"/>
      </g>
     </g>
     <g id="text_13">
      <!-- 1.0 -->
      <g transform="translate(20.878125 47.799609) scale(0.1 -0.1)">
       <use xlink:href="#DejaVuSans-31"/>
       <use xlink:href="#DejaVuSans-2e" x="63.623047"/>
       <use xlink:href="#DejaVuSans-30" x="95.410156"/>
      </g>
     </g>
    </g>
    <g id="text_14">
     <!-- Accuracy -->
     <g transform="translate(14.798438 161.356125) rotate(-90) scale(0.1 -0.1)">
      <defs>
       <path id="DejaVuSans-41" d="M 2188 4044 
L 1331 1722 
L 3047 1722 
L 2188 4044 
z
M 1831 4666 
L 2547 4666 
L 4325 0 
L 3669 0 
L 3244 1197 
L 1141 1197 
L 716 0 
L 50 0 
L 1831 4666 
z
" transform="scale(0.015625)"/>
       <path id="DejaVuSans-75" d="M 544 1381 
L 544 3500 
L 1119 3500 
L 1119 1403 
Q 1119 906 1312 657 
Q 1506 409 1894 409 
Q 2359 409 2629 706 
Q 2900 1003 2900 1516 
L 2900 3500 
L 3475 3500 
L 3475 0 
L 2900 0 
L 2900 538 
Q 2691 219 2414 64 
Q 2138 -91 1772 -91 
Q 1169 -91 856 284 
Q 544 659 544 1381 
z
M 1991 3584 
L 1991 3584 
z
" transform="scale(0.015625)"/>
       <path id="DejaVuSans-72" d="M 2631 2963 
Q 2534 3019 2420 3045 
Q 2306 3072 2169 3072 
Q 1681 3072 1420 2755 
Q 1159 2438 1159 1844 
L 1159 0 
L 581 0 
L 581 3500 
L 1159 3500 
L 1159 2956 
Q 1341 3275 1631 3429 
Q 1922 3584 2338 3584 
Q 2397 3584 2469 3576 
Q 2541 3569 2628 3553 
L 2631 2963 
z
" transform="scale(0.015625)"/>
       <path id="DejaVuSans-61" d="M 2194 1759 
Q 1497 1759 1228 1600 
Q 959 1441 959 1056 
Q 959 750 1161 570 
Q 1363 391 1709 391 
Q 2188 391 2477 730 
Q 2766 1069 2766 1631 
L 2766 1759 
L 2194 1759 
z
M 3341 1997 
L 3341 0 
L 2766 0 
L 2766 531 
Q 2569 213 2275 61 
Q 1981 -91 1556 -91 
Q 1019 -91 701 211 
Q 384 513 384 1019 
Q 384 1609 779 1909 
Q 1175 2209 1959 2209 
L 2766 2209 
L 2766 2266 
Q 2766 2663 2505 2880 
Q 2244 3097 1772 3097 
Q 1472 3097 1187 3025 
Q 903 2953 641 2809 
L 641 3341 
Q 956 3463 1253 3523 
Q 1550 3584 1831 3584 
Q 2591 3584 2966 3190 
Q 3341 2797 3341 1997 
z
" transform="scale(0.015625)"/>
       <path id="DejaVuSans-79" d="M 2059 -325 
Q 1816 -950 1584 -1140 
Q 1353 -1331 966 -1331 
L 506 -1331 
L 506 -850 
L 844 -850 
Q 1081 -850 1212 -737 
Q 1344 -625 1503 -206 
L 1606 56 
L 191 3500 
L 800 3500 
L 1894 763 
L 2988 3500 
L 3597 3500 
L 2059 -325 
z
" transform="scale(0.015625)"/>
      </defs>
      <use xlink:href="#DejaVuSans-41"/>
      <use xlink:href="#DejaVuSans-63" x="66.658203"/>
      <use xlink:href="#DejaVuSans-63" x="121.638672"/>
      <use xlink:href="#DejaVuSans-75" x="176.619141"/>
      <use xlink:href="#DejaVuSans-72" x="239.998047"/>
      <use xlink:href="#DejaVuSans-61" x="281.111328"/>
      <use xlink:href="#DejaVuSans-63" x="342.390625"/>
      <use xlink:href="#DejaVuSans-79" x="397.371094"/>
     </g>
    </g>
   </g>
   <g id="line2d_25">
    <path d="M 56.463068 230.557091 
L 56.970849 216.919303 
L 57.224739 211.922243 
L 57.478629 201.199389 
L 57.98641 153.935596 
L 58.49419 127.284632 
L 58.74808 121.871156 
L 59.255861 118.748002 
L 59.509751 119.372637 
L 59.763641 113.646844 
L 60.017532 112.293475 
L 60.271422 111.564719 
L 60.779202 105.422509 
L 61.033093 105.52663 
L 61.286983 103.756823 
L 61.540873 99.800836 
L 61.794764 99.696716 
L 62.048654 98.759785 
L 62.302544 96.157145 
L 62.556434 95.740729 
L 62.810325 93.242188 
L 63.064215 95.740729 
L 63.318105 99.800836 
L 63.571995 90.847768 
L 64.079776 84.497361 
L 64.333666 87.516395 
L 64.587556 85.85073 
L 64.841447 86.163026 
L 65.095337 83.664507 
L 65.349227 83.976824 
L 65.603117 84.080923 
L 66.110898 86.058927 
L 66.364788 80.124937 
L 66.618678 80.541353 
L 66.872569 83.45631 
L 67.126459 83.248091 
L 67.380349 79.083885 
L 67.634239 79.500301 
L 67.88813 79.6044 
L 68.14202 78.979765 
L 68.39591 77.00176 
L 68.6498 82.102941 
L 68.903691 79.083885 
L 69.411471 76.377147 
L 69.665361 75.440194 
L 69.919252 75.544293 
L 70.173142 75.440194 
L 70.427032 72.421139 
L 70.680922 74.399143 
L 70.934813 74.919658 
L 71.188703 74.815559 
L 71.442593 78.042834 
L 71.696483 73.045774 
L 71.950374 75.752512 
L 72.204264 73.045774 
L 72.458154 73.878606 
L 72.712044 72.31704 
L 72.965935 69.92262 
L 73.219825 71.796504 
L 73.473715 71.796504 
L 73.981496 70.339036 
L 74.235386 69.402083 
L 74.489276 69.92262 
L 74.743166 70.130817 
L 74.997057 70.547233 
L 75.250947 67.840495 
L 75.504837 71.171868 
L 75.758727 70.234916 
L 76.012618 67.736397 
L 76.266508 68.777448 
L 76.520398 68.048714 
L 76.774288 67.840495 
L 77.028179 63.572191 
L 77.282069 67.007663 
L 77.535959 65.966612 
L 77.78985 70.443135 
L 78.04374 64.82144 
L 78.29763 71.484186 
L 78.55152 67.111761 
L 78.805411 67.319981 
L 79.059301 65.029659 
L 79.313191 67.528178 
L 80.074862 63.988607 
L 80.328752 64.405023 
L 80.582642 65.446075 
L 81.090423 64.509144 
L 81.344313 65.758392 
L 81.852094 60.761333 
L 82.105984 64.717341 
L 82.359874 60.449037 
L 82.613764 60.449037 
L 82.867655 58.991548 
L 83.121545 60.032599 
L 83.375435 59.303865 
L 83.629325 59.616183 
L 83.883216 58.054595 
L 84.390996 59.616183 
L 84.644886 60.136719 
L 85.152667 56.076613 
L 85.406557 56.805346 
L 85.660447 58.366912 
L 85.914338 57.638179 
L 86.168228 58.887449 
L 86.422118 56.701248 
L 86.676008 56.38893 
L 87.183789 57.742299 
L 87.437679 54.931441 
L 87.94546 58.158715 
L 88.19935 55.972492 
L 88.45324 59.303865 
L 88.70713 56.597127 
L 88.961021 57.846398 
L 89.214911 57.221762 
L 89.468801 57.429982 
L 89.722691 56.909445 
L 89.976582 58.366912 
L 90.230472 55.556076 
L 90.484362 57.117664 
L 90.738252 57.429982 
L 90.992143 58.78335 
L 91.246033 55.972492 
L 91.499923 56.805346 
L 91.753813 55.660174 
L 92.007704 55.556076 
L 92.261594 55.660174 
L 92.515484 56.597127 
L 93.023265 53.890389 
L 93.277155 53.786291 
L 93.531045 55.035561 
L 93.784936 55.660174 
L 94.038826 55.035561 
L 94.292716 54.723244 
L 94.546606 54.098608 
L 94.800497 55.764295 
L 95.562167 53.265754 
L 95.816058 54.098608 
L 96.069948 53.473973 
L 96.323838 53.265754 
L 96.577728 52.328823 
L 96.831619 52.641141 
L 97.085509 51.704188 
L 97.339399 53.786291 
L 97.593289 53.265754 
L 97.84718 51.808286 
L 98.10107 51.495969 
L 98.35496 53.161655 
L 98.60885 51.912385 
L 98.862741 53.161655 
L 99.116631 51.808286 
L 99.370521 51.495969 
L 99.624411 52.849338 
L 99.878302 53.473973 
L 100.132192 52.745239 
L 100.386082 53.057557 
L 100.639972 52.745239 
L 100.893863 52.016506 
L 101.147753 52.328823 
L 101.401643 52.120604 
L 101.909424 51.183651 
L 102.163314 53.265754 
L 102.417204 51.600067 
L 102.671094 51.600067 
L 102.924985 51.39187 
L 103.432765 53.057557 
L 103.686655 51.600067 
L 103.940546 52.432922 
L 104.194436 51.704188 
L 104.448326 51.912385 
L 104.702216 51.495969 
L 104.956107 52.641141 
L 105.209997 50.454918 
L 105.463887 50.871334 
L 105.717777 50.663137 
L 105.971668 51.495969 
L 106.225558 51.183651 
L 106.479448 53.473973 
L 106.987229 51.39187 
L 107.241119 50.871334 
L 107.748899 50.350819 
L 108.00279 49.101549 
L 108.25668 50.246698 
L 108.51057 49.726184 
L 108.76446 50.1426 
L 109.272241 49.934403 
L 109.526131 50.975454 
L 109.780021 50.767235 
L 110.033912 49.830282 
L 110.287802 50.663137 
L 110.541692 50.1426 
L 110.795583 50.663137 
L 111.049473 50.1426 
L 111.557253 49.830282 
L 112.065034 50.767235 
L 112.318924 49.622085 
L 112.572814 49.726184 
L 112.826705 51.287772 
L 113.334485 49.309768 
L 113.588375 50.663137 
L 113.842266 50.350819 
L 114.096156 49.830282 
L 114.350046 50.871334 
L 114.603936 49.726184 
L 114.857827 49.517965 
L 115.111717 50.559016 
L 115.365607 50.767235 
L 115.619497 50.1426 
L 115.873388 51.079553 
L 116.127278 49.413866 
L 116.381168 49.101549 
L 116.635058 49.726184 
L 116.888949 48.893329 
L 117.142839 49.309768 
L 117.396729 48.685132 
L 117.650619 49.830282 
L 117.90451 49.101549 
L 118.1584 50.038501 
L 118.41229 49.309768 
L 118.920071 50.871334 
L 119.173961 49.517965 
L 119.427851 50.1426 
L 119.681741 51.287772 
L 120.443412 48.893329 
L 120.951193 50.1426 
L 121.458973 48.99745 
L 121.712863 49.413866 
L 122.220644 48.893329 
L 122.474534 48.268716 
L 122.728424 48.581034 
L 122.982315 49.517965 
L 123.236205 48.581034 
L 123.490095 49.101549 
L 123.997876 47.956399 
L 124.251766 49.830282 
L 124.505656 48.99745 
L 124.759546 48.99745 
L 125.013437 48.581034 
L 125.267327 48.893329 
L 125.521217 49.830282 
L 125.775107 49.726184 
L 126.028998 49.101549 
L 126.282888 50.038501 
L 126.536778 49.726184 
L 126.790669 48.060497 
L 127.044559 48.164596 
L 127.298449 49.726184 
L 127.552339 48.893329 
L 127.80623 49.101549 
L 128.06012 49.517965 
L 128.31401 48.99745 
L 128.5679 49.205647 
L 128.821791 48.476913 
L 129.075681 48.476913 
L 129.583461 49.205647 
L 129.837352 49.101549 
L 130.091242 48.372815 
L 130.345132 49.413866 
L 130.599022 49.726184 
L 131.106803 48.581034 
L 131.360693 48.268716 
L 131.614583 48.99745 
L 131.868474 47.852278 
L 132.122364 48.789231 
L 132.376254 48.164596 
L 132.630144 48.99745 
L 132.884035 49.413866 
L 133.137925 48.581034 
L 133.391815 49.517965 
L 133.645705 47.852278 
L 133.899596 48.372815 
L 134.153486 47.435862 
L 134.407376 48.893329 
L 134.661266 49.517965 
L 134.915157 49.205647 
L 135.422937 49.517965 
L 135.930718 48.060497 
L 136.184608 47.53996 
L 136.438498 48.581034 
L 136.692388 48.476913 
L 136.946279 49.413866 
L 137.200169 48.164596 
L 137.454059 49.622085 
L 137.707949 47.956399 
L 137.96184 49.726184 
L 138.21573 47.435862 
L 138.46962 47.644081 
L 138.72351 48.476913 
L 138.977401 48.685132 
L 139.231291 48.685132 
L 139.992962 47.956399 
L 140.246852 48.789231 
L 140.500742 48.789231 
L 140.754632 48.268716 
L 141.008523 48.268716 
L 141.516303 49.309768 
L 141.770193 47.331763 
L 142.277974 48.476913 
L 142.531864 48.268716 
L 142.785755 48.581034 
L 143.039645 49.622085 
L 143.293535 48.476913 
L 143.801316 48.372815 
L 144.055206 48.476913 
L 144.309096 48.164596 
L 144.562986 48.789231 
L 144.816877 48.060497 
L 145.070767 49.309768 
L 145.324657 48.268716 
L 145.578547 48.476913 
L 145.832438 48.268716 
L 146.086328 48.476913 
L 146.340218 49.205647 
L 146.594108 48.789231 
L 146.847999 47.227665 
L 147.101889 47.644081 
L 147.355779 48.581034 
L 147.86356 47.852278 
L 148.11745 47.956399 
L 148.37134 47.852278 
L 148.62523 48.789231 
L 148.879121 48.685132 
L 149.133011 49.309768 
L 149.386901 49.413866 
L 149.640791 49.309768 
L 149.894682 48.99745 
L 150.148572 48.164596 
L 150.402462 48.060497 
L 150.656352 48.164596 
L 151.164133 49.309768 
L 151.418023 48.99745 
L 151.671913 47.53996 
L 151.925804 48.685132 
L 152.179694 48.164596 
L 152.433584 48.372815 
L 152.687474 47.956399 
L 152.941365 47.852278 
L 153.195255 48.685132 
L 153.449145 48.99745 
L 153.956926 47.852278 
L 154.464706 48.685132 
L 154.718596 48.789231 
L 154.972487 48.685132 
L 155.226377 48.164596 
L 155.734157 49.205647 
L 155.988048 48.164596 
L 156.241938 49.309768 
L 156.495828 48.789231 
L 156.749718 48.893329 
L 157.003609 48.372815 
L 157.257499 48.893329 
L 157.511389 48.581034 
L 157.765279 48.476913 
L 158.27306 49.101549 
L 158.52695 48.893329 
L 158.78084 48.164596 
L 159.288621 48.060497 
L 159.542511 48.99745 
L 159.796402 49.205647 
L 160.050292 48.372815 
L 160.304182 47.956399 
L 160.558072 47.852278 
L 160.811963 49.517965 
L 161.065853 49.622085 
L 161.319743 47.435862 
L 161.573633 47.74818 
L 161.827524 47.852278 
L 162.335304 48.581034 
L 162.589194 48.060497 
L 163.096975 47.852278 
L 163.350865 47.331763 
L 163.858646 48.789231 
L 164.112536 47.956399 
L 164.366426 48.99745 
L 164.620316 49.309768 
L 164.874207 47.331763 
L 165.128097 48.789231 
L 165.381987 48.372815 
L 165.635877 48.789231 
L 166.143658 47.435862 
L 166.397548 48.581034 
L 166.651438 47.644081 
L 166.905329 47.331763 
L 167.159219 48.164596 
L 167.413109 48.164596 
L 167.666999 48.789231 
L 167.92089 47.956399 
L 168.42867 47.852278 
L 168.68256 48.789231 
L 168.936451 48.893329 
L 169.190341 48.476913 
L 169.444231 47.74818 
L 169.698121 47.852278 
L 169.952012 48.476913 
L 170.205902 48.268716 
L 170.459792 48.893329 
L 170.713682 48.060497 
L 170.967573 47.956399 
L 171.221463 48.581034 
L 171.475353 48.476913 
L 171.729243 48.789231 
L 171.983134 48.268716 
L 172.237024 48.060497 
L 172.490914 49.309768 
L 172.744804 48.789231 
L 172.998695 48.581034 
L 173.252585 48.060497 
L 173.506475 48.789231 
L 173.760365 48.476913 
L 174.014256 47.644081 
L 174.268146 47.852278 
L 174.522036 47.644081 
L 174.775926 47.852278 
L 175.283707 49.622085 
L 175.537597 47.956399 
L 176.045378 49.101549 
L 176.553158 47.435862 
L 176.807049 48.99745 
L 177.060939 48.268716 
L 177.314829 48.268716 
L 177.568719 49.309768 
L 177.82261 48.372815 
L 178.0765 48.789231 
L 178.33039 47.644081 
L 178.58428 48.581034 
L 179.092061 49.205647 
L 179.345951 48.893329 
L 179.599841 49.413866 
L 179.853732 48.476913 
L 180.107622 46.915347 
L 180.361512 48.164596 
L 180.615402 48.372815 
L 181.123183 49.309768 
L 181.377073 48.060497 
L 181.630963 48.060497 
L 181.884854 48.581034 
L 182.138744 48.268716 
L 182.392634 49.101549 
L 182.900415 47.123544 
L 183.408195 49.101549 
L 183.662085 48.060497 
L 183.915976 48.581034 
L 184.169866 47.53996 
L 184.423756 49.413866 
L 184.677646 47.956399 
L 184.931537 48.268716 
L 185.185427 47.74818 
L 185.947098 48.060497 
L 186.200988 48.893329 
L 186.454878 49.205647 
L 186.962659 47.435862 
L 187.216549 49.413866 
L 187.470439 49.205647 
L 187.724329 47.956399 
L 187.97822 47.852278 
L 188.23211 48.164596 
L 188.486 48.164596 
L 188.73989 48.476913 
L 188.993781 49.413866 
L 189.247671 48.268716 
L 189.501561 47.74818 
L 189.755451 48.164596 
L 190.009342 47.644081 
L 190.263232 47.644081 
L 190.517122 49.413866 
L 190.771012 47.852278 
L 191.024903 47.644081 
L 191.532683 48.476913 
L 192.294354 47.852278 
L 192.548244 48.060497 
L 192.802135 48.685132 
L 193.056025 48.581034 
L 193.309915 47.74818 
L 194.071586 48.789231 
L 194.325476 48.476913 
L 194.833257 48.789231 
L 195.087147 47.644081 
L 195.341037 48.268716 
L 195.594927 47.53996 
L 195.848818 47.74818 
L 196.102708 48.164596 
L 196.356598 48.060497 
L 196.610488 47.331763 
L 196.864379 47.852278 
L 197.118269 47.644081 
L 197.372159 48.685132 
L 197.626049 47.123544 
L 197.87994 50.1426 
L 198.13383 47.74818 
L 198.64161 47.331763 
L 198.895501 47.435862 
L 199.149391 48.685132 
L 199.403281 48.99745 
L 199.657171 47.852278 
L 199.911062 48.476913 
L 200.164952 48.685132 
L 200.418842 48.685132 
L 200.672732 47.956399 
L 200.926623 47.956399 
L 201.180513 47.644081 
L 201.434403 48.372815 
L 201.942184 48.685132 
L 202.196074 47.74818 
L 202.449964 48.581034 
L 202.703854 48.164596 
L 202.957745 48.164596 
L 203.211635 49.309768 
L 203.465525 47.644081 
L 203.719415 48.789231 
L 203.973306 48.164596 
L 204.227196 48.164596 
L 204.481086 47.331763 
L 204.734976 48.789231 
L 205.242757 47.644081 
L 205.496647 48.164596 
L 205.750537 48.99745 
L 206.004428 49.413866 
L 206.258318 47.435862 
L 206.512208 48.060497 
L 206.766098 47.435862 
L 207.019989 48.268716 
L 207.273879 48.372815 
L 207.527769 49.622085 
L 207.78166 47.644081 
L 208.03555 47.53996 
L 208.28944 47.019446 
L 208.54333 49.309768 
L 208.797221 48.372815 
L 209.051111 48.685132 
L 209.558891 47.644081 
L 209.812782 47.852278 
L 210.066672 47.53996 
L 210.320562 47.956399 
L 210.574452 48.685132 
L 211.082233 47.74818 
L 211.336123 49.101549 
L 211.590013 47.123544 
L 211.843904 47.644081 
L 212.605574 47.956399 
L 212.859465 47.74818 
L 213.113355 48.372815 
L 213.367245 47.435862 
L 213.875026 48.685132 
L 214.128916 48.476913 
L 214.382806 47.331763 
L 214.636696 47.74818 
L 214.890587 47.74818 
L 215.144477 47.956399 
L 215.398367 48.99745 
L 215.652257 48.476913 
L 215.906148 49.101549 
L 216.160038 47.956399 
L 216.413928 48.164596 
L 216.667818 48.99745 
L 216.921709 48.99745 
L 217.175599 47.956399 
L 217.429489 47.956399 
L 217.683379 49.517965 
L 217.93727 48.581034 
L 218.19116 49.830282 
L 218.44505 48.164596 
L 218.69894 48.164596 
L 218.952831 48.372815 
L 219.206721 48.060497 
L 219.460611 48.581034 
L 219.968392 48.268716 
L 220.222282 48.685132 
L 220.730062 47.852278 
L 220.983953 48.164596 
L 221.237843 47.227665 
L 221.745623 48.372815 
L 221.999514 47.956399 
L 222.253404 48.789231 
L 222.507294 48.476913 
L 222.761184 47.227665 
L 223.015075 47.435862 
L 223.268965 48.476913 
L 223.522855 47.644081 
L 223.776745 48.685132 
L 224.030636 47.227665 
L 224.284526 49.726184 
L 224.538416 47.644081 
L 224.792307 46.60303 
L 225.300087 49.622085 
L 225.553977 48.268716 
L 225.807868 49.101549 
L 226.061758 47.435862 
L 226.315648 48.99745 
L 226.569538 47.74818 
L 226.823429 48.99745 
L 227.077319 48.99745 
L 227.585099 47.74818 
L 227.83899 48.581034 
L 228.09288 48.164596 
L 228.34677 49.517965 
L 228.60066 48.164596 
L 228.854551 47.852278 
L 229.108441 47.123544 
L 229.362331 48.164596 
L 229.870112 48.268716 
L 230.124002 48.685132 
L 230.377892 47.53996 
L 230.631782 47.956399 
L 230.885673 47.435862 
L 231.139563 48.060497 
L 231.393453 47.644081 
L 231.647343 47.53996 
L 231.901234 48.99745 
L 232.155124 47.644081 
L 232.409014 48.893329 
L 232.662904 48.893329 
L 232.916795 49.830282 
L 233.170685 46.811227 
L 233.424575 48.372815 
L 233.678465 48.164596 
L 234.186246 48.685132 
L 234.440136 47.644081 
L 234.947917 47.956399 
L 235.201807 48.99745 
L 235.455697 47.53996 
L 235.709587 47.123544 
L 235.963478 49.101549 
L 236.217368 47.644081 
L 236.471258 47.852278 
L 236.725148 47.644081 
L 236.979039 47.852278 
L 237.232929 48.372815 
L 237.486819 47.956399 
L 237.740709 48.060497 
L 237.9946 47.435862 
L 238.24849 47.74818 
L 238.50238 47.74818 
L 238.75627 48.99745 
L 239.010161 48.060497 
L 239.264051 48.268716 
L 239.771831 48.164596 
L 240.025722 47.435862 
L 240.279612 48.476913 
L 240.787393 47.74818 
L 241.041283 47.53996 
L 241.295173 48.372815 
L 241.549063 47.852278 
L 241.802954 48.581034 
L 242.056844 48.268716 
L 242.310734 48.893329 
L 242.564624 48.476913 
L 242.818515 48.372815 
L 243.072405 47.53996 
L 243.326295 48.268716 
L 243.580185 48.476913 
L 243.834076 49.309768 
L 244.087966 48.372815 
L 244.595746 48.99745 
L 244.849637 48.893329 
L 245.103527 48.99745 
L 245.357417 48.893329 
L 245.611307 47.852278 
L 245.865198 48.685132 
L 246.119088 47.53996 
L 246.372978 48.372815 
L 246.626868 47.227665 
L 246.880759 47.435862 
L 247.134649 47.956399 
L 247.388539 47.644081 
L 247.642429 47.53996 
L 247.89632 48.685132 
L 248.15021 48.060497 
L 248.4041 50.246698 
L 248.65799 48.060497 
L 248.911881 48.164596 
L 249.165771 48.060497 
L 249.419661 48.164596 
L 249.673551 47.644081 
L 249.927442 48.476913 
L 250.181332 47.74818 
L 250.435222 49.101549 
L 250.689112 48.581034 
L 250.943003 47.74818 
L 251.450783 48.164596 
L 251.704673 48.789231 
L 251.958564 47.74818 
L 252.212454 48.581034 
L 252.466344 47.53996 
L 252.974125 48.476913 
L 253.228015 47.331763 
L 253.481905 49.205647 
L 254.243576 47.227665 
L 254.497466 47.74818 
L 254.751356 47.956399 
L 255.005247 47.956399 
L 255.259137 48.476913 
L 255.513027 48.372815 
L 255.766917 47.852278 
L 256.020808 47.956399 
L 256.274698 47.331763 
L 256.528588 49.726184 
L 256.782479 48.060497 
L 257.036369 48.685132 
L 257.544149 48.164596 
L 257.79804 49.101549 
L 258.05193 48.581034 
L 258.30582 48.685132 
L 258.55971 49.309768 
L 258.813601 48.164596 
L 259.575271 47.644081 
L 259.829162 48.789231 
L 260.083052 48.268716 
L 260.336942 48.476913 
L 260.844723 47.852278 
L 261.098613 47.956399 
L 261.352503 47.331763 
L 261.606393 48.164596 
L 261.860284 49.726184 
L 262.114174 48.268716 
L 262.368064 49.622085 
L 262.621954 48.893329 
L 262.875845 47.123544 
L 263.129735 48.476913 
L 263.383625 48.060497 
L 263.637515 48.99745 
L 263.891406 47.74818 
L 264.145296 48.372815 
L 264.399186 48.476913 
L 264.653076 48.789231 
L 264.906967 49.517965 
L 265.160857 49.413866 
L 265.414747 47.852278 
L 265.922528 47.852278 
L 266.176418 48.164596 
L 266.430308 47.74818 
L 266.684198 48.164596 
L 266.938089 48.893329 
L 267.191979 48.268716 
L 267.445869 49.205647 
L 267.699759 47.644081 
L 267.95365 48.685132 
L 268.20754 47.227665 
L 268.71532 48.893329 
L 268.969211 48.372815 
L 269.223101 48.164596 
L 269.476991 48.789231 
L 269.984772 48.060497 
L 270.238662 49.101549 
L 270.492552 48.893329 
L 270.746442 48.060497 
L 271.254223 48.581034 
L 271.508113 48.060497 
L 271.762003 46.915347 
L 272.015894 49.622085 
L 272.269784 48.789231 
L 272.523674 47.435862 
L 272.777564 48.372815 
L 273.031455 47.644081 
L 273.285345 48.372815 
L 274.047016 48.060497 
L 274.300906 48.372815 
L 274.554796 48.164596 
L 274.808687 49.622085 
L 275.062577 48.268716 
L 275.316467 48.99745 
L 275.570357 47.331763 
L 275.824248 48.685132 
L 276.078138 47.852278 
L 276.332028 47.53996 
L 276.839809 48.581034 
L 277.093699 47.852278 
L 277.347589 48.372815 
L 277.601479 47.53996 
L 277.85537 47.227665 
L 278.10926 47.852278 
L 278.36315 48.164596 
L 278.61704 47.644081 
L 278.870931 48.268716 
L 279.124821 50.559016 
L 279.378711 48.372815 
L 279.632601 47.53996 
L 279.886492 49.101549 
L 280.140382 48.372815 
L 280.648162 48.476913 
L 280.902053 47.53996 
L 281.155943 48.372815 
L 281.409833 48.372815 
L 281.663723 49.517965 
L 281.917614 48.581034 
L 282.171504 48.372815 
L 282.425394 47.74818 
L 282.679284 48.060497 
L 282.933175 47.74818 
L 283.187065 48.581034 
L 283.440955 47.435862 
L 283.948736 48.893329 
L 284.202626 48.060497 
L 284.456516 47.852278 
L 284.710406 48.372815 
L 284.964297 47.956399 
L 285.218187 48.268716 
L 285.725967 47.74818 
L 285.979858 48.372815 
L 286.233748 47.227665 
L 286.741528 47.852278 
L 286.995419 47.852278 
L 287.249309 49.413866 
L 287.503199 47.644081 
L 288.01098 49.101549 
L 288.26487 47.852278 
L 288.51876 48.164596 
L 288.77265 49.413866 
L 289.026541 47.644081 
L 289.280431 47.956399 
L 289.534321 47.644081 
L 289.788212 47.852278 
L 290.042102 48.581034 
L 290.295992 48.268716 
L 290.549882 47.74818 
L 290.803773 48.060497 
L 291.057663 47.53996 
L 291.311553 48.372815 
L 291.565443 47.852278 
L 291.819334 48.164596 
L 292.073224 49.101549 
L 292.327114 47.956399 
L 292.581004 47.435862 
L 292.834895 48.164596 
L 293.088785 48.164596 
L 293.342675 47.53996 
L 293.596565 48.581034 
L 293.850456 48.164596 
L 294.104346 48.372815 
L 294.358236 47.74818 
L 294.612126 48.581034 
L 294.866017 48.893329 
L 295.119907 47.53996 
L 295.373797 48.268716 
L 295.627687 47.435862 
L 295.881578 47.644081 
L 296.135468 48.164596 
L 296.897139 48.476913 
L 297.151029 47.227665 
L 297.404919 48.060497 
L 297.658809 48.476913 
L 297.9127 49.517965 
L 298.16659 48.372815 
L 298.42048 48.268716 
L 298.67437 48.372815 
L 298.928261 47.53996 
L 299.182151 48.685132 
L 299.436041 47.74818 
L 299.943822 48.372815 
L 300.197712 46.915347 
L 300.451602 47.956399 
L 300.705492 47.644081 
L 300.959383 48.581034 
L 301.213273 48.164596 
L 301.467163 47.227665 
L 301.721053 48.268716 
L 302.228834 47.227665 
L 302.736614 48.268716 
L 302.990505 48.060497 
L 303.244395 48.476913 
L 303.498285 47.435862 
L 303.752175 47.74818 
L 304.006066 48.268716 
L 304.259956 47.53996 
L 304.513846 48.581034 
L 304.767736 47.852278 
L 305.021627 48.99745 
L 305.275517 46.707128 
L 305.529407 46.498909 
L 305.783298 48.476913 
L 306.037188 48.372815 
L 306.291078 47.74818 
L 306.544968 47.956399 
L 306.798859 47.852278 
L 307.052749 47.53996 
L 307.306639 48.476913 
L 307.560529 50.1426 
L 307.81442 47.123544 
L 308.06831 48.99745 
L 308.57609 48.685132 
L 308.829981 49.205647 
L 309.083871 47.435862 
L 309.337761 48.268716 
L 309.591651 47.644081 
L 309.845542 47.435862 
L 310.099432 47.852278 
L 310.099432 47.852278 
" clip-path="url(#p07308cae21)" style="fill: none; stroke: #0000ff; stroke-width: 0.6; stroke-linecap: square"/>
   </g>
   <g id="line2d_26">
    <path d="M 56.463068 229.307688 
L 56.716958 224.450351 
L 56.970849 225.66468 
L 57.224739 197.735005 
L 57.478629 185.591672 
L 57.98641 131.918128 
L 58.2403 122.203475 
L 58.49419 122.689202 
L 58.74808 119.531942 
L 59.001971 127.54654 
L 59.255861 113.946003 
L 59.509751 111.760198 
L 59.763641 125.603609 
L 60.271422 106.417133 
L 60.525312 129.003743 
L 60.779202 103.502726 
L 61.033093 144.54721 
L 61.286983 101.316943 
L 61.540873 103.259874 
L 61.794764 120.989146 
L 62.048654 109.817267 
L 62.302544 113.217401 
L 62.556434 95.245254 
L 62.810325 96.702458 
L 63.064215 112.003072 
L 63.318105 100.345467 
L 63.571995 96.945333 
L 63.825886 97.673934 
L 64.079776 92.087995 
L 64.333666 91.359393 
L 64.587556 92.33087 
L 64.841447 91.359393 
L 65.095337 91.602268 
L 65.349227 91.602268 
L 65.603117 104.474203 
L 65.857008 93.302324 
L 66.110898 89.659337 
L 66.364788 94.759527 
L 66.618678 93.059471 
L 66.872569 92.573722 
L 67.126459 91.116541 
L 67.380349 91.359393 
L 67.634239 86.016328 
L 67.88813 99.131138 
L 68.14202 95.731004 
L 68.39591 146.490141 
L 68.6498 97.916809 
L 69.157581 87.716407 
L 69.411471 88.445008 
L 69.665361 91.116541 
L 69.919252 87.230657 
L 70.173142 89.659337 
L 70.427032 89.173588 
L 70.680922 90.145064 
L 70.934813 88.687861 
L 71.188703 90.387939 
L 71.442593 88.930735 
L 71.696483 86.74493 
L 71.950374 98.402536 
L 72.204264 98.645389 
L 72.458154 88.930735 
L 72.712044 94.030926 
L 72.965935 96.702458 
L 73.219825 92.087995 
L 73.473715 89.90219 
L 73.727605 96.459605 
L 73.981496 89.659337 
L 74.235386 91.359393 
L 74.489276 87.959259 
L 74.743166 101.80267 
L 75.250947 89.416463 
L 75.504837 103.988475 
L 75.758727 97.673934 
L 76.012618 97.188207 
L 76.266508 89.173588 
L 76.520398 102.531272 
L 76.774288 86.74493 
L 77.028179 89.173588 
L 77.282069 88.202134 
L 77.535959 95.973856 
L 77.78985 93.059471 
L 78.04374 92.573722 
L 78.29763 90.630791 
L 78.55152 91.116541 
L 78.805411 91.359393 
L 79.059301 97.916809 
L 79.313191 90.387939 
L 79.567081 92.816597 
L 79.820972 91.84512 
L 80.074862 89.90219 
L 80.328752 91.116541 
L 80.582642 94.759527 
L 80.836533 90.145064 
L 81.344313 93.788073 
L 81.598203 91.359393 
L 81.852094 90.630791 
L 82.105984 94.516675 
L 82.359874 89.659337 
L 82.613764 91.602268 
L 82.867655 88.930735 
L 83.121545 91.116541 
L 83.375435 89.173588 
L 83.629325 90.145064 
L 83.883216 89.659337 
L 84.137106 91.84512 
L 84.898777 88.445008 
L 85.152667 92.087995 
L 85.406557 86.016328 
L 85.660447 89.173588 
L 85.914338 87.230657 
L 86.422118 89.90219 
L 86.676008 88.202134 
L 86.929899 89.416463 
L 87.183789 88.445008 
L 87.437679 88.687861 
L 87.691569 92.573722 
L 87.94546 91.116541 
L 88.19935 91.84512 
L 88.70713 90.387939 
L 88.961021 97.188207 
L 89.214911 89.90219 
L 89.468801 88.930735 
L 89.722691 92.816597 
L 89.976582 93.545198 
L 90.230472 89.173588 
L 90.484362 89.416463 
L 90.738252 92.087995 
L 90.992143 93.545198 
L 91.246033 91.84512 
L 91.499923 92.573722 
L 91.753813 90.387939 
L 92.007704 94.2738 
L 92.515484 90.630791 
L 92.769374 91.116541 
L 93.023265 90.387939 
L 93.277155 93.302324 
L 93.531045 89.416463 
L 93.784936 88.445008 
L 94.038826 89.659337 
L 94.292716 92.33087 
L 94.546606 92.087995 
L 94.800497 90.873666 
L 95.054387 93.059471 
L 95.308277 90.387939 
L 95.816058 89.90219 
L 96.069948 90.387939 
L 96.323838 91.359393 
L 96.577728 91.602268 
L 96.831619 89.90219 
L 97.085509 91.116541 
L 97.339399 90.873666 
L 97.593289 89.173588 
L 97.84718 91.116541 
L 98.10107 91.359393 
L 98.35496 89.90219 
L 98.60885 93.059471 
L 98.862741 92.33087 
L 99.116631 92.33087 
L 99.370521 90.387939 
L 99.624411 90.145064 
L 99.878302 90.873666 
L 100.132192 92.816597 
L 100.386082 91.359393 
L 100.639972 91.602268 
L 100.893863 89.173588 
L 101.401643 92.816597 
L 101.655533 91.359393 
L 101.909424 93.788073 
L 102.163314 92.573722 
L 102.417204 92.573722 
L 102.671094 93.059471 
L 102.924985 90.145064 
L 103.178875 92.33087 
L 103.432765 92.573722 
L 103.686655 96.216731 
L 103.940546 89.659337 
L 104.194436 89.90219 
L 104.448326 88.202134 
L 104.702216 90.630791 
L 104.956107 89.173588 
L 105.209997 92.816597 
L 105.463887 91.359393 
L 105.717777 91.84512 
L 105.971668 90.387939 
L 106.225558 91.116541 
L 106.479448 91.116541 
L 106.733338 89.416463 
L 106.987229 90.387939 
L 107.241119 90.630791 
L 107.495009 91.116541 
L 107.748899 90.630791 
L 108.00279 89.90219 
L 108.25668 91.116541 
L 108.51057 91.359393 
L 108.76446 90.387939 
L 109.018351 93.302324 
L 109.272241 90.145064 
L 109.526131 91.116541 
L 110.033912 90.630791 
L 110.287802 91.84512 
L 110.541692 90.387939 
L 110.795583 91.602268 
L 111.049473 90.873666 
L 111.303363 91.359393 
L 111.557253 92.087995 
L 111.811144 89.90219 
L 112.065034 92.573722 
L 112.572814 89.90219 
L 112.826705 89.659337 
L 113.080595 90.630791 
L 113.334485 92.087995 
L 113.588375 91.359393 
L 113.842266 91.602268 
L 114.096156 91.116541 
L 114.350046 91.84512 
L 114.603936 89.90219 
L 114.857827 90.387939 
L 115.111717 93.059471 
L 115.365607 91.84512 
L 115.619497 91.602268 
L 115.873388 91.602268 
L 116.127278 92.816597 
L 116.381168 91.116541 
L 116.635058 90.630791 
L 116.888949 91.84512 
L 117.142839 91.84512 
L 117.396729 90.873666 
L 117.650619 90.873666 
L 117.90451 90.630791 
L 118.1584 91.116541 
L 118.41229 90.630791 
L 118.66618 91.602268 
L 119.173961 91.116541 
L 119.427851 90.387939 
L 119.935632 93.059471 
L 120.189522 90.873666 
L 120.443412 91.359393 
L 120.697302 92.33087 
L 120.951193 90.630791 
L 121.205083 90.630791 
L 121.458973 91.116541 
L 121.712863 90.873666 
L 121.966754 90.145064 
L 122.474534 93.059471 
L 122.728424 90.630791 
L 122.982315 90.873666 
L 123.236205 90.873666 
L 123.743985 92.087995 
L 123.997876 91.84512 
L 124.251766 90.873666 
L 124.505656 90.387939 
L 124.759546 92.33087 
L 125.013437 91.602268 
L 125.267327 91.602268 
L 125.521217 90.630791 
L 125.775107 92.33087 
L 126.282888 90.873666 
L 126.536778 90.873666 
L 126.790669 91.116541 
L 127.044559 91.84512 
L 127.298449 90.873666 
L 127.552339 91.116541 
L 127.80623 91.116541 
L 128.31401 91.602268 
L 128.5679 90.145064 
L 128.821791 90.630791 
L 129.075681 89.90219 
L 129.329571 90.873666 
L 129.583461 90.145064 
L 130.345132 92.33087 
L 130.599022 89.659337 
L 130.852913 91.84512 
L 131.106803 91.602268 
L 131.360693 91.602268 
L 131.614583 90.145064 
L 131.868474 90.387939 
L 132.122364 91.84512 
L 132.376254 91.116541 
L 132.630144 92.087995 
L 132.884035 91.359393 
L 133.137925 91.359393 
L 133.645705 92.573722 
L 133.899596 92.33087 
L 134.153486 92.33087 
L 134.407376 90.873666 
L 134.661266 90.387939 
L 134.915157 90.630791 
L 135.169047 90.630791 
L 135.422937 91.84512 
L 135.676827 92.087995 
L 135.930718 91.359393 
L 136.184608 89.90219 
L 136.438498 91.602268 
L 136.692388 92.087995 
L 136.946279 91.359393 
L 137.200169 91.84512 
L 137.454059 91.602268 
L 137.707949 91.116541 
L 137.96184 91.116541 
L 138.21573 89.90219 
L 138.46962 90.145064 
L 138.72351 90.873666 
L 138.977401 91.116541 
L 139.231291 91.602268 
L 139.485181 89.90219 
L 139.739071 90.873666 
L 140.246852 91.359393 
L 140.500742 91.84512 
L 140.754632 91.359393 
L 141.008523 91.359393 
L 141.262413 91.116541 
L 141.516303 91.116541 
L 141.770193 90.145064 
L 142.024084 90.873666 
L 142.277974 92.33087 
L 142.531864 90.630791 
L 142.785755 91.84512 
L 143.293535 90.630791 
L 143.547425 91.602268 
L 143.801316 90.387939 
L 144.055206 89.90219 
L 144.309096 91.84512 
L 144.816877 90.387939 
L 145.070767 90.387939 
L 145.324657 90.873666 
L 145.578547 91.84512 
L 145.832438 91.602268 
L 146.086328 90.630791 
L 146.340218 91.116541 
L 146.594108 92.087995 
L 146.847999 91.602268 
L 147.101889 91.84512 
L 147.355779 90.387939 
L 147.609669 91.359393 
L 147.86356 91.84512 
L 148.11745 91.602268 
L 148.37134 91.84512 
L 148.62523 91.84512 
L 149.133011 91.359393 
L 149.386901 91.359393 
L 149.640791 91.84512 
L 149.894682 91.359393 
L 150.402462 90.873666 
L 150.656352 90.387939 
L 151.164133 89.90219 
L 151.418023 90.387939 
L 151.671913 90.630791 
L 151.925804 90.630791 
L 152.179694 91.116541 
L 152.433584 89.659337 
L 152.687474 90.145064 
L 152.941365 91.359393 
L 153.195255 90.387939 
L 153.449145 91.359393 
L 153.703035 91.359393 
L 153.956926 92.087995 
L 154.464706 92.087995 
L 154.972487 91.602268 
L 155.226377 91.116541 
L 155.480267 91.116541 
L 155.734157 91.602268 
L 156.241938 91.116541 
L 156.495828 91.359393 
L 156.749718 91.84512 
L 157.003609 92.087995 
L 157.511389 92.087995 
L 157.765279 92.573722 
L 158.01917 92.573722 
L 158.27306 91.602268 
L 158.52695 91.116541 
L 158.78084 91.84512 
L 159.034731 91.359393 
L 159.288621 91.602268 
L 159.542511 91.602268 
L 159.796402 90.873666 
L 160.050292 92.087995 
L 160.304182 92.087995 
L 160.558072 92.33087 
L 160.811963 92.33087 
L 161.065853 92.087995 
L 161.319743 90.873666 
L 161.573633 92.087995 
L 161.827524 91.116541 
L 162.081414 91.359393 
L 162.335304 90.873666 
L 162.589194 91.116541 
L 162.843085 91.116541 
L 163.096975 91.359393 
L 163.350865 91.84512 
L 163.604755 91.84512 
L 163.858646 91.359393 
L 164.112536 91.116541 
L 164.366426 91.359393 
L 164.620316 91.84512 
L 164.874207 92.087995 
L 165.128097 91.116541 
L 165.381987 91.116541 
L 165.635877 91.359393 
L 165.889768 91.116541 
L 166.397548 91.116541 
L 166.651438 90.873666 
L 166.905329 91.359393 
L 167.413109 90.873666 
L 167.666999 90.387939 
L 167.92089 90.873666 
L 168.17478 90.387939 
L 168.68256 90.387939 
L 169.190341 91.359393 
L 169.698121 90.873666 
L 169.952012 90.873666 
L 170.205902 90.630791 
L 170.459792 90.873666 
L 170.713682 91.359393 
L 171.221463 91.359393 
L 171.475353 90.873666 
L 171.729243 90.630791 
L 171.983134 91.116541 
L 172.237024 90.630791 
L 172.490914 91.116541 
L 172.744804 91.359393 
L 172.998695 92.087995 
L 173.252585 91.359393 
L 173.506475 92.087995 
L 174.014256 91.116541 
L 174.268146 91.602268 
L 174.522036 91.359393 
L 174.775926 90.387939 
L 175.029817 91.359393 
L 175.537597 91.84512 
L 175.791488 92.33087 
L 176.299268 91.84512 
L 176.807049 91.84512 
L 177.060939 91.116541 
L 177.314829 91.84512 
L 177.568719 91.602268 
L 177.82261 92.087995 
L 178.33039 92.087995 
L 178.58428 91.84512 
L 178.838171 91.84512 
L 179.092061 91.602268 
L 179.345951 91.116541 
L 179.599841 91.359393 
L 179.853732 91.359393 
L 180.361512 90.873666 
L 180.615402 91.116541 
L 180.869293 91.116541 
L 181.123183 90.873666 
L 181.630963 90.873666 
L 181.884854 91.116541 
L 182.138744 91.116541 
L 182.392634 90.873666 
L 182.646524 91.116541 
L 182.900415 92.087995 
L 183.154305 91.602268 
L 183.408195 91.84512 
L 183.662085 91.602268 
L 183.915976 91.116541 
L 184.169866 91.359393 
L 184.423756 91.116541 
L 184.677646 91.116541 
L 184.931537 91.359393 
L 185.185427 92.087995 
L 185.693207 91.602268 
L 185.947098 91.116541 
L 186.962659 91.116541 
L 187.216549 90.873666 
L 187.97822 90.873666 
L 188.23211 90.630791 
L 188.486 91.116541 
L 188.73989 90.873666 
L 189.247671 90.873666 
L 189.501561 91.116541 
L 190.263232 91.116541 
L 190.517122 90.873666 
L 190.771012 91.116541 
L 191.024903 91.116541 
L 191.278793 90.873666 
L 191.532683 91.116541 
L 191.786574 90.630791 
L 192.040464 90.873666 
L 192.548244 90.873666 
L 192.802135 90.630791 
L 193.056025 90.145064 
L 193.309915 90.387939 
L 193.563805 90.873666 
L 193.817696 90.387939 
L 194.071586 90.873666 
L 194.579366 90.873666 
L 194.833257 90.630791 
L 195.087147 91.116541 
L 195.341037 90.873666 
L 195.594927 91.116541 
L 195.848818 90.630791 
L 196.356598 90.630791 
L 196.610488 90.873666 
L 196.864379 90.630791 
L 197.118269 91.116541 
L 197.372159 90.630791 
L 198.38772 90.630791 
L 198.895501 91.116541 
L 199.149391 90.873666 
L 199.403281 91.116541 
L 199.657171 90.873666 
L 199.911062 91.359393 
L 200.418842 91.359393 
L 200.672732 91.116541 
L 200.926623 91.359393 
L 201.180513 91.116541 
L 201.434403 91.116541 
L 201.688293 91.359393 
L 201.942184 91.359393 
L 202.196074 91.116541 
L 202.449964 91.359393 
L 202.703854 90.873666 
L 203.465525 90.873666 
L 203.719415 90.630791 
L 203.973306 90.873666 
L 204.227196 90.873666 
L 204.481086 90.630791 
L 204.734976 90.630791 
L 204.988867 90.873666 
L 206.004428 90.873666 
L 206.258318 91.116541 
L 207.527769 91.116541 
L 207.78166 91.359393 
L 208.28944 90.873666 
L 208.54333 91.116541 
L 208.797221 90.873666 
L 209.051111 91.116541 
L 209.558891 90.630791 
L 214.636696 90.630791 
L 214.890587 90.873666 
L 215.144477 90.630791 
L 216.667818 90.630791 
L 216.921709 90.873666 
L 219.714501 90.873666 
L 219.968392 90.630791 
L 221.999514 90.630791 
L 222.253404 90.873666 
L 224.284526 90.873666 
L 224.538416 90.630791 
L 224.792307 90.873666 
L 225.046197 90.873666 
L 225.300087 90.630791 
L 225.553977 90.873666 
L 225.807868 90.630791 
L 227.585099 90.630791 
L 227.83899 90.873666 
L 228.854551 90.873666 
L 229.108441 90.630791 
L 229.362331 90.873666 
L 229.616221 90.630791 
L 231.393453 90.630791 
L 231.647343 90.873666 
L 231.901234 90.630791 
L 232.155124 90.630791 
L 232.409014 90.873666 
L 232.662904 90.873666 
L 232.916795 90.630791 
L 235.455697 90.630791 
L 235.709587 90.873666 
L 235.963478 90.630791 
L 236.217368 90.873666 
L 236.979039 90.873666 
L 237.232929 90.630791 
L 240.025722 90.630791 
L 240.279612 90.873666 
L 241.041283 90.873666 
L 241.295173 90.630791 
L 247.134649 90.630791 
L 247.388539 90.873666 
L 259.829162 90.873666 
L 260.083052 90.630791 
L 263.637515 90.630791 
L 263.891406 90.873666 
L 264.399186 90.873666 
L 264.653076 90.630791 
L 265.414747 90.630791 
L 265.668637 90.873666 
L 266.176418 90.873666 
L 266.430308 90.630791 
L 266.684198 90.630791 
L 266.938089 90.873666 
L 269.223101 90.873666 
L 269.476991 90.630791 
L 269.730881 90.630791 
L 269.984772 90.873666 
L 279.378711 90.873666 
L 279.632601 90.630791 
L 310.099432 90.630791 
L 310.099432 90.630791 
" clip-path="url(#p07308cae21)" style="fill: none; stroke: #ff0000; stroke-width: 0.6; stroke-linecap: square"/>
   </g>
   <g id="patch_3">
    <path d="M 43.78125 239.76 
L 43.78125 37.296 
" style="fill: none; stroke: #000000; stroke-width: 0.8; stroke-linejoin: miter; stroke-linecap: square"/>
   </g>
   <g id="patch_4">
    <path d="M 322.78125 239.76 
L 322.78125 37.296 
" style="fill: none; stroke: #000000; stroke-width: 0.8; stroke-linejoin: miter; stroke-linecap: square"/>
   </g>
   <g id="patch_5">
    <path d="M 43.78125 239.76 
L 322.78125 239.76 
" style="fill: none; stroke: #000000; stroke-width: 0.8; stroke-linejoin: miter; stroke-linecap: square"/>
   </g>
   <g id="patch_6">
    <path d="M 43.78125 37.296 
L 322.78125 37.296 
" style="fill: none; stroke: #000000; stroke-width: 0.8; stroke-linejoin: miter; stroke-linecap: square"/>
   </g>
   <g id="text_15">
    <!-- Baseline Model -->
    <g transform="translate(149.259844 31.296) scale(0.09 -0.09)">
     <defs>
      <path id="DejaVuSans-42" d="M 1259 2228 
L 1259 519 
L 2272 519 
Q 2781 519 3026 730 
Q 3272 941 3272 1375 
Q 3272 1813 3026 2020 
Q 2781 2228 2272 2228 
L 1259 2228 
z
M 1259 4147 
L 1259 2741 
L 2194 2741 
Q 2656 2741 2882 2914 
Q 3109 3088 3109 3444 
Q 3109 3797 2882 3972 
Q 2656 4147 2194 4147 
L 1259 4147 
z
M 628 4666 
L 2241 4666 
Q 2963 4666 3353 4366 
Q 3744 4066 3744 3513 
Q 3744 3084 3544 2831 
Q 3344 2578 2956 2516 
Q 3422 2416 3680 2098 
Q 3938 1781 3938 1306 
Q 3938 681 3513 340 
Q 3088 0 2303 0 
L 628 0 
L 628 4666 
z
" transform="scale(0.015625)"/>
      <path id="DejaVuSans-65" d="M 3597 1894 
L 3597 1613 
L 953 1613 
Q 991 1019 1311 708 
Q 1631 397 2203 397 
Q 2534 397 2845 478 
Q 3156 559 3463 722 
L 3463 178 
Q 3153 47 2828 -22 
Q 2503 -91 2169 -91 
Q 1331 -91 842 396 
Q 353 884 353 1716 
Q 353 2575 817 3079 
Q 1281 3584 2069 3584 
Q 2775 3584 3186 3129 
Q 3597 2675 3597 1894 
z
M 3022 2063 
Q 3016 2534 2758 2815 
Q 2500 3097 2075 3097 
Q 1594 3097 1305 2825 
Q 1016 2553 972 2059 
L 3022 2063 
z
" transform="scale(0.015625)"/>
      <path id="DejaVuSans-6c" d="M 603 4863 
L 1178 4863 
L 1178 0 
L 603 0 
L 603 4863 
z
" transform="scale(0.015625)"/>
      <path id="DejaVuSans-69" d="M 603 3500 
L 1178 3500 
L 1178 0 
L 603 0 
L 603 3500 
z
M 603 4863 
L 1178 4863 
L 1178 4134 
L 603 4134 
L 603 4863 
z
" transform="scale(0.015625)"/>
      <path id="DejaVuSans-6e" d="M 3513 2113 
L 3513 0 
L 2938 0 
L 2938 2094 
Q 2938 2591 2744 2837 
Q 2550 3084 2163 3084 
Q 1697 3084 1428 2787 
Q 1159 2491 1159 1978 
L 1159 0 
L 581 0 
L 581 3500 
L 1159 3500 
L 1159 2956 
Q 1366 3272 1645 3428 
Q 1925 3584 2291 3584 
Q 2894 3584 3203 3211 
Q 3513 2838 3513 2113 
z
" transform="scale(0.015625)"/>
      <path id="DejaVuSans-20" transform="scale(0.015625)"/>
      <path id="DejaVuSans-4d" d="M 628 4666 
L 1569 4666 
L 2759 1491 
L 3956 4666 
L 4897 4666 
L 4897 0 
L 4281 0 
L 4281 4097 
L 3078 897 
L 2444 897 
L 1241 4097 
L 1241 0 
L 628 0 
L 628 4666 
z
" transform="scale(0.015625)"/>
      <path id="DejaVuSans-64" d="M 2906 2969 
L 2906 4863 
L 3481 4863 
L 3481 0 
L 2906 0 
L 2906 525 
Q 2725 213 2448 61 
Q 2172 -91 1784 -91 
Q 1150 -91 751 415 
Q 353 922 353 1747 
Q 353 2572 751 3078 
Q 1150 3584 1784 3584 
Q 2172 3584 2448 3432 
Q 2725 3281 2906 2969 
z
M 947 1747 
Q 947 1113 1208 752 
Q 1469 391 1925 391 
Q 2381 391 2643 752 
Q 2906 1113 2906 1747 
Q 2906 2381 2643 2742 
Q 2381 3103 1925 3103 
Q 1469 3103 1208 2742 
Q 947 2381 947 1747 
z
" transform="scale(0.015625)"/>
     </defs>
     <use xlink:href="#DejaVuSans-42"/>
     <use xlink:href="#DejaVuSans-61" x="68.603516"/>
     <use xlink:href="#DejaVuSans-73" x="129.882812"/>
     <use xlink:href="#DejaVuSans-65" x="181.982422"/>
     <use xlink:href="#DejaVuSans-6c" x="243.505859"/>
     <use xlink:href="#DejaVuSans-69" x="271.289062"/>
     <use xlink:href="#DejaVuSans-6e" x="299.072266"/>
     <use xlink:href="#DejaVuSans-65" x="362.451172"/>
     <use xlink:href="#DejaVuSans-20" x="423.974609"/>
     <use xlink:href="#DejaVuSans-4d" x="455.761719"/>
     <use xlink:href="#DejaVuSans-6f" x="542.041016"/>
     <use xlink:href="#DejaVuSans-64" x="603.222656"/>
     <use xlink:href="#DejaVuSans-65" x="666.699219"/>
     <use xlink:href="#DejaVuSans-6c" x="728.222656"/>
    </g>
   </g>
   <g id="legend_1">
    <g id="patch_7">
     <path d="M 185.565625 234.76 
L 315.78125 234.76 
Q 317.78125 234.76 317.78125 232.76 
L 317.78125 204.40375 
Q 317.78125 202.40375 315.78125 202.40375 
L 185.565625 202.40375 
Q 183.565625 202.40375 183.565625 204.40375 
L 183.565625 232.76 
Q 183.565625 234.76 185.565625 234.76 
z
" style="fill: #ffffff; opacity: 0.8; stroke: #cccccc; stroke-linejoin: miter"/>
    </g>
    <g id="line2d_27">
     <path d="M 187.565625 210.502187 
L 197.565625 210.502187 
L 207.565625 210.502187 
" style="fill: none; stroke: #0000ff; stroke-width: 0.6; stroke-linecap: square"/>
    </g>
    <g id="text_16">
     <!-- Training Accuracy -->
     <g transform="translate(215.565625 214.002187) scale(0.1 -0.1)">
      <defs>
       <path id="DejaVuSans-54" d="M -19 4666 
L 3928 4666 
L 3928 4134 
L 2272 4134 
L 2272 0 
L 1638 0 
L 1638 4134 
L -19 4134 
L -19 4666 
z
" transform="scale(0.015625)"/>
       <path id="DejaVuSans-67" d="M 2906 1791 
Q 2906 2416 2648 2759 
Q 2391 3103 1925 3103 
Q 1463 3103 1205 2759 
Q 947 2416 947 1791 
Q 947 1169 1205 825 
Q 1463 481 1925 481 
Q 2391 481 2648 825 
Q 2906 1169 2906 1791 
z
M 3481 434 
Q 3481 -459 3084 -895 
Q 2688 -1331 1869 -1331 
Q 1566 -1331 1297 -1286 
Q 1028 -1241 775 -1147 
L 775 -588 
Q 1028 -725 1275 -790 
Q 1522 -856 1778 -856 
Q 2344 -856 2625 -561 
Q 2906 -266 2906 331 
L 2906 616 
Q 2728 306 2450 153 
Q 2172 0 1784 0 
Q 1141 0 747 490 
Q 353 981 353 1791 
Q 353 2603 747 3093 
Q 1141 3584 1784 3584 
Q 2172 3584 2450 3431 
Q 2728 3278 2906 2969 
L 2906 3500 
L 3481 3500 
L 3481 434 
z
" transform="scale(0.015625)"/>
      </defs>
      <use xlink:href="#DejaVuSans-54"/>
      <use xlink:href="#DejaVuSans-72" x="46.333984"/>
      <use xlink:href="#DejaVuSans-61" x="87.447266"/>
      <use xlink:href="#DejaVuSans-69" x="148.726562"/>
      <use xlink:href="#DejaVuSans-6e" x="176.509766"/>
      <use xlink:href="#DejaVuSans-69" x="239.888672"/>
      <use xlink:href="#DejaVuSans-6e" x="267.671875"/>
      <use xlink:href="#DejaVuSans-67" x="331.050781"/>
      <use xlink:href="#DejaVuSans-20" x="394.527344"/>
      <use xlink:href="#DejaVuSans-41" x="426.314453"/>
      <use xlink:href="#DejaVuSans-63" x="492.972656"/>
      <use xlink:href="#DejaVuSans-63" x="547.953125"/>
      <use xlink:href="#DejaVuSans-75" x="602.933594"/>
      <use xlink:href="#DejaVuSans-72" x="666.3125"/>
      <use xlink:href="#DejaVuSans-61" x="707.425781"/>
      <use xlink:href="#DejaVuSans-63" x="768.705078"/>
      <use xlink:href="#DejaVuSans-79" x="823.685547"/>
     </g>
    </g>
    <g id="line2d_28">
     <path d="M 187.565625 225.180312 
L 197.565625 225.180312 
L 207.565625 225.180312 
" style="fill: none; stroke: #ff0000; stroke-width: 0.6; stroke-linecap: square"/>
    </g>
    <g id="text_17">
     <!-- Validation Accuracy -->
     <g transform="translate(215.565625 228.680312) scale(0.1 -0.1)">
      <defs>
       <path id="DejaVuSans-56" d="M 1831 0 
L 50 4666 
L 709 4666 
L 2188 738 
L 3669 4666 
L 4325 4666 
L 2547 0 
L 1831 0 
z
" transform="scale(0.015625)"/>
       <path id="DejaVuSans-74" d="M 1172 4494 
L 1172 3500 
L 2356 3500 
L 2356 3053 
L 1172 3053 
L 1172 1153 
Q 1172 725 1289 603 
Q 1406 481 1766 481 
L 2356 481 
L 2356 0 
L 1766 0 
Q 1100 0 847 248 
Q 594 497 594 1153 
L 594 3053 
L 172 3053 
L 172 3500 
L 594 3500 
L 594 4494 
L 1172 4494 
z
" transform="scale(0.015625)"/>
      </defs>
      <use xlink:href="#DejaVuSans-56"/>
      <use xlink:href="#DejaVuSans-61" x="60.658203"/>
      <use xlink:href="#DejaVuSans-6c" x="121.9375"/>
      <use xlink:href="#DejaVuSans-69" x="149.720703"/>
      <use xlink:href="#DejaVuSans-64" x="177.503906"/>
      <use xlink:href="#DejaVuSans-61" x="240.980469"/>
      <use xlink:href="#DejaVuSans-74" x="302.259766"/>
      <use xlink:href="#DejaVuSans-69" x="341.46875"/>
      <use xlink:href="#DejaVuSans-6f" x="369.251953"/>
      <use xlink:href="#DejaVuSans-6e" x="430.433594"/>
      <use xlink:href="#DejaVuSans-20" x="493.8125"/>
      <use xlink:href="#DejaVuSans-41" x="525.599609"/>
      <use xlink:href="#DejaVuSans-63" x="592.257812"/>
      <use xlink:href="#DejaVuSans-63" x="647.238281"/>
      <use xlink:href="#DejaVuSans-75" x="702.21875"/>
      <use xlink:href="#DejaVuSans-72" x="765.597656"/>
      <use xlink:href="#DejaVuSans-61" x="806.710938"/>
      <use xlink:href="#DejaVuSans-63" x="867.990234"/>
      <use xlink:href="#DejaVuSans-79" x="922.970703"/>
     </g>
    </g>
   </g>
  </g>
  <g id="text_18">
   <!-- Training VS. Validation Accuracy - Dataset Size = 100.0% -->
   <g transform="translate(21.433984 15.558281) scale(0.11 -0.11)">
    <defs>
     <path id="DejaVuSans-53" d="M 3425 4513 
L 3425 3897 
Q 3066 4069 2747 4153 
Q 2428 4238 2131 4238 
Q 1616 4238 1336 4038 
Q 1056 3838 1056 3469 
Q 1056 3159 1242 3001 
Q 1428 2844 1947 2747 
L 2328 2669 
Q 3034 2534 3370 2195 
Q 3706 1856 3706 1288 
Q 3706 609 3251 259 
Q 2797 -91 1919 -91 
Q 1588 -91 1214 -16 
Q 841 59 441 206 
L 441 856 
Q 825 641 1194 531 
Q 1563 422 1919 422 
Q 2459 422 2753 634 
Q 3047 847 3047 1241 
Q 3047 1584 2836 1778 
Q 2625 1972 2144 2069 
L 1759 2144 
Q 1053 2284 737 2584 
Q 422 2884 422 3419 
Q 422 4038 858 4394 
Q 1294 4750 2059 4750 
Q 2388 4750 2728 4690 
Q 3069 4631 3425 4513 
z
" transform="scale(0.015625)"/>
     <path id="DejaVuSans-2d" d="M 313 2009 
L 1997 2009 
L 1997 1497 
L 313 1497 
L 313 2009 
z
" transform="scale(0.015625)"/>
     <path id="DejaVuSans-44" d="M 1259 4147 
L 1259 519 
L 2022 519 
Q 2988 519 3436 956 
Q 3884 1394 3884 2338 
Q 3884 3275 3436 3711 
Q 2988 4147 2022 4147 
L 1259 4147 
z
M 628 4666 
L 1925 4666 
Q 3281 4666 3915 4102 
Q 4550 3538 4550 2338 
Q 4550 1131 3912 565 
Q 3275 0 1925 0 
L 628 0 
L 628 4666 
z
" transform="scale(0.015625)"/>
     <path id="DejaVuSans-7a" d="M 353 3500 
L 3084 3500 
L 3084 2975 
L 922 459 
L 3084 459 
L 3084 0 
L 275 0 
L 275 525 
L 2438 3041 
L 353 3041 
L 353 3500 
z
" transform="scale(0.015625)"/>
     <path id="DejaVuSans-3d" d="M 678 2906 
L 4684 2906 
L 4684 2381 
L 678 2381 
L 678 2906 
z
M 678 1631 
L 4684 1631 
L 4684 1100 
L 678 1100 
L 678 1631 
z
" transform="scale(0.015625)"/>
     <path id="DejaVuSans-25" d="M 4653 2053 
Q 4381 2053 4226 1822 
Q 4072 1591 4072 1178 
Q 4072 772 4226 539 
Q 4381 306 4653 306 
Q 4919 306 5073 539 
Q 5228 772 5228 1178 
Q 5228 1588 5073 1820 
Q 4919 2053 4653 2053 
z
M 4653 2450 
Q 5147 2450 5437 2106 
Q 5728 1763 5728 1178 
Q 5728 594 5436 251 
Q 5144 -91 4653 -91 
Q 4153 -91 3862 251 
Q 3572 594 3572 1178 
Q 3572 1766 3864 2108 
Q 4156 2450 4653 2450 
z
M 1428 4353 
Q 1159 4353 1004 4120 
Q 850 3888 850 3481 
Q 850 3069 1003 2837 
Q 1156 2606 1428 2606 
Q 1700 2606 1854 2837 
Q 2009 3069 2009 3481 
Q 2009 3884 1853 4118 
Q 1697 4353 1428 4353 
z
M 4250 4750 
L 4750 4750 
L 1831 -91 
L 1331 -91 
L 4250 4750 
z
M 1428 4750 
Q 1922 4750 2215 4408 
Q 2509 4066 2509 3481 
Q 2509 2891 2217 2550 
Q 1925 2209 1428 2209 
Q 931 2209 642 2551 
Q 353 2894 353 3481 
Q 353 4063 643 4406 
Q 934 4750 1428 4750 
z
" transform="scale(0.015625)"/>
    </defs>
    <use xlink:href="#DejaVuSans-54"/>
    <use xlink:href="#DejaVuSans-72" x="46.333984"/>
    <use xlink:href="#DejaVuSans-61" x="87.447266"/>
    <use xlink:href="#DejaVuSans-69" x="148.726562"/>
    <use xlink:href="#DejaVuSans-6e" x="176.509766"/>
    <use xlink:href="#DejaVuSans-69" x="239.888672"/>
    <use xlink:href="#DejaVuSans-6e" x="267.671875"/>
    <use xlink:href="#DejaVuSans-67" x="331.050781"/>
    <use xlink:href="#DejaVuSans-20" x="394.527344"/>
    <use xlink:href="#DejaVuSans-56" x="426.314453"/>
    <use xlink:href="#DejaVuSans-53" x="494.722656"/>
    <use xlink:href="#DejaVuSans-2e" x="558.199219"/>
    <use xlink:href="#DejaVuSans-20" x="589.986328"/>
    <use xlink:href="#DejaVuSans-56" x="621.773438"/>
    <use xlink:href="#DejaVuSans-61" x="682.431641"/>
    <use xlink:href="#DejaVuSans-6c" x="743.710938"/>
    <use xlink:href="#DejaVuSans-69" x="771.494141"/>
    <use xlink:href="#DejaVuSans-64" x="799.277344"/>
    <use xlink:href="#DejaVuSans-61" x="862.753906"/>
    <use xlink:href="#DejaVuSans-74" x="924.033203"/>
    <use xlink:href="#DejaVuSans-69" x="963.242188"/>
    <use xlink:href="#DejaVuSans-6f" x="991.025391"/>
    <use xlink:href="#DejaVuSans-6e" x="1052.207031"/>
    <use xlink:href="#DejaVuSans-20" x="1115.585938"/>
    <use xlink:href="#DejaVuSans-41" x="1147.373047"/>
    <use xlink:href="#DejaVuSans-63" x="1214.03125"/>
    <use xlink:href="#DejaVuSans-63" x="1269.011719"/>
    <use xlink:href="#DejaVuSans-75" x="1323.992188"/>
    <use xlink:href="#DejaVuSans-72" x="1387.371094"/>
    <use xlink:href="#DejaVuSans-61" x="1428.484375"/>
    <use xlink:href="#DejaVuSans-63" x="1489.763672"/>
    <use xlink:href="#DejaVuSans-79" x="1544.744141"/>
    <use xlink:href="#DejaVuSans-20" x="1603.923828"/>
    <use xlink:href="#DejaVuSans-2d" x="1635.710938"/>
    <use xlink:href="#DejaVuSans-20" x="1671.794922"/>
    <use xlink:href="#DejaVuSans-44" x="1703.582031"/>
    <use xlink:href="#DejaVuSans-61" x="1780.583984"/>
    <use xlink:href="#DejaVuSans-74" x="1841.863281"/>
    <use xlink:href="#DejaVuSans-61" x="1881.072266"/>
    <use xlink:href="#DejaVuSans-73" x="1942.351562"/>
    <use xlink:href="#DejaVuSans-65" x="1994.451172"/>
    <use xlink:href="#DejaVuSans-74" x="2055.974609"/>
    <use xlink:href="#DejaVuSans-20" x="2095.183594"/>
    <use xlink:href="#DejaVuSans-53" x="2126.970703"/>
    <use xlink:href="#DejaVuSans-69" x="2190.447266"/>
    <use xlink:href="#DejaVuSans-7a" x="2218.230469"/>
    <use xlink:href="#DejaVuSans-65" x="2270.720703"/>
    <use xlink:href="#DejaVuSans-20" x="2332.244141"/>
    <use xlink:href="#DejaVuSans-3d" x="2364.03125"/>
    <use xlink:href="#DejaVuSans-20" x="2447.820312"/>
    <use xlink:href="#DejaVuSans-31" x="2479.607422"/>
    <use xlink:href="#DejaVuSans-30" x="2543.230469"/>
    <use xlink:href="#DejaVuSans-30" x="2606.853516"/>
    <use xlink:href="#DejaVuSans-2e" x="2670.476562"/>
    <use xlink:href="#DejaVuSans-30" x="2702.263672"/>
    <use xlink:href="#DejaVuSans-25" x="2765.886719"/>
   </g>
  </g>
 </g>
 <defs>
  <clipPath id="p07308cae21">
   <rect x="43.78125" y="37.296" width="279" height="202.464"/>
  </clipPath>
 </defs>
</svg>
