<?xml version="1.0" encoding="utf-8" standalone="no"?>
<!DOCTYPE svg PUBLIC "-//W3C//DTD SVG 1.1//EN"
  "http://www.w3.org/Graphics/SVG/1.1/DTD/svg11.dtd">
<svg xmlns:xlink="http://www.w3.org/1999/xlink" width="343.328516pt" height="277.31625pt" viewBox="0 0 343.328516 277.31625" xmlns="http://www.w3.org/2000/svg" version="1.1">
 <metadata>
  <rdf:RDF xmlns:dc="http://purl.org/dc/elements/1.1/" xmlns:cc="http://creativecommons.org/ns#" xmlns:rdf="http://www.w3.org/1999/02/22-rdf-syntax-ns#">
   <cc:Work>
    <dc:type rdf:resource="http://purl.org/dc/dcmitype/StillImage"/>
    <dc:date>2026-06-11T11:44:02.828070</dc:date>
    <dc:format>image/svg+xml</dc:format>
    <dc:creator>
     <cc:Agent>
      <dc:title>Matplotlib v3.8.4, https://matplotlib.org/</dc:title>
     </cc:Agent>
    </dc:creator>
   </cc:Work>
  </rdf:RDF>
 </metadata>
 <defs>
  <style type="text/css">*{stroke-linejoin: round; stroke-linecap: butt}</style>
 </defs>
 <g id="figure_1">
  <g id="patch_1">
   <path d="M 0 277.31625 
L 343.328516 277.31625 
L 343.328516 0 
L 0 0 
z
" style="fill: #ffffff"/>
  </g>
  <g id="axes_1">
   <g id="patch_2">
    <path d="M 43.78125 239.76 
L 322.78125 239.76 
L 322.78125 37.296 
L 43.78125 37.296 
z
" style="fill: #ffffff"/>
   </g>
   <g id="matplotlib.axis_1">
    <g id="xtick_1">
     <g id="line2d_1">
      <path d="M 56.209178 239.76 
L 56.209178 37.296 
" clip-path="url(#pc57a06d1ae)" style="fill: none; stroke-dasharray: 2.96,1.28; stroke-dashoffset: 0; stroke: #b0b0b0; stroke-opacity: 0.4; stroke-width: 0.8"/>
     </g>
     <g id="line2d_2">
      <defs>
       <path id="m3264e22905" d="M 0 0 
L 0 3.5 
" style="stroke: #000000; stroke-width: 0.8"/>
      </defs>
      <g>
       <use xlink:href="#m3264e22905" x="56.209178" y="239.76" style="stroke: #000000; stroke-width: 0.8"/>
      </g>
     </g>
     <g id="text_1">
      <!-- 0 -->
      <g transform="translate(53.027928 254.358437) scale(0.1 -0.1)">
       <defs>
        <path id="DejaVuSans-30" d="M 2034 4250 
Q 1547 4250 1301 3770 
Q 1056 3291 1056 2328 
Q 1056 1369 1301 889 
Q 1547 409 2034 409 
Q 2525 409 2770 889 
Q 3016 1369 3016 2328 
Q 3016 3291 2770 3770 
Q 2525 4250 2034 4250 
z
M 2034 4750 
Q 2819 4750 3233 4129 
Q 3647 3509 3647 2328 
Q 3647 1150 3233 529 
Q 2819 -91 2034 -91 
Q 1250 -91 836 529 
Q 422 1150 422 2328 
Q 422 3509 836 4129 
Q 1250 4750 2034 4750 
z
" transform="scale(0.015625)"/>
       </defs>
       <use xlink:href="#DejaVuSans-30"/>
      </g>
     </g>
    </g>
    <g id="xtick_2">
     <g id="line2d_3">
      <path d="M 106.987229 239.76 
L 106.987229 37.296 
" clip-path="url(#pc57a06d1ae)" style="fill: none; stroke-dasharray: 2.96,1.28; stroke-dashoffset: 0; stroke: #b0b0b0; stroke-opacity: 0.4; stroke-width: 0.8"/>
     </g>
     <g id="line2d_4">
      <g>
       <use xlink:href="#m3264e22905" x="106.987229" y="239.76" style="stroke: #000000; stroke-width: 0.8"/>
      </g>
     </g>
     <g id="text_2">
      <!-- 200 -->
      <g transform="translate(97.443479 254.358437) scale(0.1 -0.1)">
       <defs>
        <path id="DejaVuSans-32" d="M 1228 531 
L 3431 531 
L 3431 0 
L 469 0 
L 469 531 
Q 828 903 1448 1529 
Q 2069 2156 2228 2338 
Q 2531 2678 2651 2914 
Q 2772 3150 2772 3378 
Q 2772 3750 2511 3984 
Q 2250 4219 1831 4219 
Q 1534 4219 1204 4116 
Q 875 4013 500 3803 
L 500 4441 
Q 881 4594 1212 4672 
Q 1544 4750 1819 4750 
Q 2544 4750 2975 4387 
Q 3406 4025 3406 3419 
Q 3406 3131 3298 2873 
Q 3191 2616 2906 2266 
Q 2828 2175 2409 1742 
Q 1991 1309 1228 531 
z
" transform="scale(0.015625)"/>
       </defs>
       <use xlink:href="#DejaVuSans-32"/>
       <use xlink:href="#DejaVuSans-30" x="63.623047"/>
       <use xlink:href="#DejaVuSans-30" x="127.246094"/>
      </g>
     </g>
    </g>
    <g id="xtick_3">
     <g id="line2d_5">
      <path d="M 157.765279 239.76 
L 157.765279 37.296 
" clip-path="url(#pc57a06d1ae)" style="fill: none; stroke-dasharray: 2.96,1.28; stroke-dashoffset: 0; stroke: #b0b0b0; stroke-opacity: 0.4; stroke-width: 0.8"/>
     </g>
     <g id="line2d_6">
      <g>
       <use xlink:href="#m3264e22905" x="157.765279" y="239.76" style="stroke: #000000; stroke-width: 0.8"/>
      </g>
     </g>
     <g id="text_3">
      <!-- 400 -->
      <g transform="translate(148.221529 254.358437) scale(0.1 -0.1)">
       <defs>
        <path id="DejaVuSans-34" d="M 2419 4116 
L 825 1625 
L 2419 1625 
L 2419 4116 
z
M 2253 4666 
L 3047 4666 
L 3047 1625 
L 3713 1625 
L 3713 1100 
L 3047 1100 
L 3047 0 
L 2419 0 
L 2419 1100 
L 313 1100 
L 313 1709 
L 2253 4666 
z
" transform="scale(0.015625)"/>
       </defs>
       <use xlink:href="#DejaVuSans-34"/>
       <use xlink:href="#DejaVuSans-30" x="63.623047"/>
       <use xlink:href="#DejaVuSans-30" x="127.246094"/>
      </g>
     </g>
    </g>
    <g id="xtick_4">
     <g id="line2d_7">
      <path d="M 208.54333 239.76 
L 208.54333 37.296 
" clip-path="url(#pc57a06d1ae)" style="fill: none; stroke-dasharray: 2.96,1.28; stroke-dashoffset: 0; stroke: #b0b0b0; stroke-opacity: 0.4; stroke-width: 0.8"/>
     </g>
     <g id="line2d_8">
      <g>
       <use xlink:href="#m3264e22905" x="208.54333" y="239.76" style="stroke: #000000; stroke-width: 0.8"/>
      </g>
     </g>
     <g id="text_4">
      <!-- 600 -->
      <g transform="translate(198.99958 254.358437) scale(0.1 -0.1)">
       <defs>
        <path id="DejaVuSans-36" d="M 2113 2584 
Q 1688 2584 1439 2293 
Q 1191 2003 1191 1497 
Q 1191 994 1439 701 
Q 1688 409 2113 409 
Q 2538 409 2786 701 
Q 3034 994 3034 1497 
Q 3034 2003 2786 2293 
Q 2538 2584 2113 2584 
z
M 3366 4563 
L 3366 3988 
Q 3128 4100 2886 4159 
Q 2644 4219 2406 4219 
Q 1781 4219 1451 3797 
Q 1122 3375 1075 2522 
Q 1259 2794 1537 2939 
Q 1816 3084 2150 3084 
Q 2853 3084 3261 2657 
Q 3669 2231 3669 1497 
Q 3669 778 3244 343 
Q 2819 -91 2113 -91 
Q 1303 -91 875 529 
Q 447 1150 447 2328 
Q 447 3434 972 4092 
Q 1497 4750 2381 4750 
Q 2619 4750 2861 4703 
Q 3103 4656 3366 4563 
z
" transform="scale(0.015625)"/>
       </defs>
       <use xlink:href="#DejaVuSans-36"/>
       <use xlink:href="#DejaVuSans-30" x="63.623047"/>
       <use xlink:href="#DejaVuSans-30" x="127.246094"/>
      </g>
     </g>
    </g>
    <g id="xtick_5">
     <g id="line2d_9">
      <path d="M 259.321381 239.76 
L 259.321381 37.296 
" clip-path="url(#pc57a06d1ae)" style="fill: none; stroke-dasharray: 2.96,1.28; stroke-dashoffset: 0; stroke: #b0b0b0; stroke-opacity: 0.4; stroke-width: 0.8"/>
     </g>
     <g id="line2d_10">
      <g>
       <use xlink:href="#m3264e22905" x="259.321381" y="239.76" style="stroke: #000000; stroke-width: 0.8"/>
      </g>
     </g>
     <g id="text_5">
      <!-- 800 -->
      <g transform="translate(249.777631 254.358437) scale(0.1 -0.1)">
       <defs>
        <path id="DejaVuSans-38" d="M 2034 2216 
Q 1584 2216 1326 1975 
Q 1069 1734 1069 1313 
Q 1069 891 1326 650 
Q 1584 409 2034 409 
Q 2484 409 2743 651 
Q 3003 894 3003 1313 
Q 3003 1734 2745 1975 
Q 2488 2216 2034 2216 
z
M 1403 2484 
Q 997 2584 770 2862 
Q 544 3141 544 3541 
Q 544 4100 942 4425 
Q 1341 4750 2034 4750 
Q 2731 4750 3128 4425 
Q 3525 4100 3525 3541 
Q 3525 3141 3298 2862 
Q 3072 2584 2669 2484 
Q 3125 2378 3379 2068 
Q 3634 1759 3634 1313 
Q 3634 634 3220 271 
Q 2806 -91 2034 -91 
Q 1263 -91 848 271 
Q 434 634 434 1313 
Q 434 1759 690 2068 
Q 947 2378 1403 2484 
z
M 1172 3481 
Q 1172 3119 1398 2916 
Q 1625 2713 2034 2713 
Q 2441 2713 2670 2916 
Q 2900 3119 2900 3481 
Q 2900 3844 2670 4047 
Q 2441 4250 2034 4250 
Q 1625 4250 1398 4047 
Q 1172 3844 1172 3481 
z
" transform="scale(0.015625)"/>
       </defs>
       <use xlink:href="#DejaVuSans-38"/>
       <use xlink:href="#DejaVuSans-30" x="63.623047"/>
       <use xlink:href="#DejaVuSans-30" x="127.246094"/>
      </g>
     </g>
    </g>
    <g id="xtick_6">
     <g id="line2d_11">
      <path d="M 310.099432 239.76 
L 310.099432 37.296 
" clip-path="url(#pc57a06d1ae)" style="fill: none; stroke-dasharray: 2.96,1.28; stroke-dashoffset: 0; stroke: #b0b0b0; stroke-opacity: 0.4; stroke-width: 0.8"/>
     </g>
     <g id="line2d_12">
      <g>
       <use xlink:href="#m3264e22905" x="310.099432" y="239.76" style="stroke: #000000; stroke-width: 0.8"/>
      </g>
     </g>
     <g id="text_6">
      <!-- 1000 -->
      <g transform="translate(297.374432 254.358437) scale(0.1 -0.1)">
       <defs>
        <path id="DejaVuSans-31" d="M 794 531 
L 1825 531 
L 1825 4091 
L 703 3866 
L 703 4441 
L 1819 4666 
L 2450 4666 
L 2450 531 
L 3481 531 
L 3481 0 
L 794 0 
L 794 531 
z
" transform="scale(0.015625)"/>
       </defs>
       <use xlink:href="#DejaVuSans-31"/>
       <use xlink:href="#DejaVuSans-30" x="63.623047"/>
       <use xlink:href="#DejaVuSans-30" x="127.246094"/>
       <use xlink:href="#DejaVuSans-30" x="190.869141"/>
      </g>
     </g>
    </g>
    <g id="text_7">
     <!-- Epochs -->
     <g transform="translate(165.365625 268.036562) scale(0.1 -0.1)">
      <defs>
       <path id="DejaVuSans-45" d="M 628 4666 
L 3578 4666 
L 3578 4134 
L 1259 4134 
L 1259 2753 
L 3481 2753 
L 3481 2222 
L 1259 2222 
L 1259 531 
L 3634 531 
L 3634 0 
L 628 0 
L 628 4666 
z
" transform="scale(0.015625)"/>
       <path id="DejaVuSans-70" d="M 1159 525 
L 1159 -1331 
L 581 -1331 
L 581 3500 
L 1159 3500 
L 1159 2969 
Q 1341 3281 1617 3432 
Q 1894 3584 2278 3584 
Q 2916 3584 3314 3078 
Q 3713 2572 3713 1747 
Q 3713 922 3314 415 
Q 2916 -91 2278 -91 
Q 1894 -91 1617 61 
Q 1341 213 1159 525 
z
M 3116 1747 
Q 3116 2381 2855 2742 
Q 2594 3103 2138 3103 
Q 1681 3103 1420 2742 
Q 1159 2381 1159 1747 
Q 1159 1113 1420 752 
Q 1681 391 2138 391 
Q 2594 391 2855 752 
Q 3116 1113 3116 1747 
z
" transform="scale(0.015625)"/>
       <path id="DejaVuSans-6f" d="M 1959 3097 
Q 1497 3097 1228 2736 
Q 959 2375 959 1747 
Q 959 1119 1226 758 
Q 1494 397 1959 397 
Q 2419 397 2687 759 
Q 2956 1122 2956 1747 
Q 2956 2369 2687 2733 
Q 2419 3097 1959 3097 
z
M 1959 3584 
Q 2709 3584 3137 3096 
Q 3566 2609 3566 1747 
Q 3566 888 3137 398 
Q 2709 -91 1959 -91 
Q 1206 -91 779 398 
Q 353 888 353 1747 
Q 353 2609 779 3096 
Q 1206 3584 1959 3584 
z
" transform="scale(0.015625)"/>
       <path id="DejaVuSans-63" d="M 3122 3366 
L 3122 2828 
Q 2878 2963 2633 3030 
Q 2388 3097 2138 3097 
Q 1578 3097 1268 2742 
Q 959 2388 959 1747 
Q 959 1106 1268 751 
Q 1578 397 2138 397 
Q 2388 397 2633 464 
Q 2878 531 3122 666 
L 3122 134 
Q 2881 22 2623 -34 
Q 2366 -91 2075 -91 
Q 1284 -91 818 406 
Q 353 903 353 1747 
Q 353 2603 823 3093 
Q 1294 3584 2113 3584 
Q 2378 3584 2631 3529 
Q 2884 3475 3122 3366 
z
" transform="scale(0.015625)"/>
       <path id="DejaVuSans-68" d="M 3513 2113 
L 3513 0 
L 2938 0 
L 2938 2094 
Q 2938 2591 2744 2837 
Q 2550 3084 2163 3084 
Q 1697 3084 1428 2787 
Q 1159 2491 1159 1978 
L 1159 0 
L 581 0 
L 581 4863 
L 1159 4863 
L 1159 2956 
Q 1366 3272 1645 3428 
Q 1925 3584 2291 3584 
Q 2894 3584 3203 3211 
Q 3513 2838 3513 2113 
z
" transform="scale(0.015625)"/>
       <path id="DejaVuSans-73" d="M 2834 3397 
L 2834 2853 
Q 2591 2978 2328 3040 
Q 2066 3103 1784 3103 
Q 1356 3103 1142 2972 
Q 928 2841 928 2578 
Q 928 2378 1081 2264 
Q 1234 2150 1697 2047 
L 1894 2003 
Q 2506 1872 2764 1633 
Q 3022 1394 3022 966 
Q 3022 478 2636 193 
Q 2250 -91 1575 -91 
Q 1294 -91 989 -36 
Q 684 19 347 128 
L 347 722 
Q 666 556 975 473 
Q 1284 391 1588 391 
Q 1994 391 2212 530 
Q 2431 669 2431 922 
Q 2431 1156 2273 1281 
Q 2116 1406 1581 1522 
L 1381 1569 
Q 847 1681 609 1914 
Q 372 2147 372 2553 
Q 372 3047 722 3315 
Q 1072 3584 1716 3584 
Q 2034 3584 2315 3537 
Q 2597 3491 2834 3397 
z
" transform="scale(0.015625)"/>
      </defs>
      <use xlink:href="#DejaVuSans-45"/>
      <use xlink:href="#DejaVuSans-70" x="63.183594"/>
      <use xlink:href="#DejaVuSans-6f" x="126.660156"/>
      <use xlink:href="#DejaVuSans-63" x="187.841797"/>
      <use xlink:href="#DejaVuSans-68" x="242.822266"/>
      <use xlink:href="#DejaVuSans-73" x="306.201172"/>
     </g>
    </g>
   </g>
   <g id="matplotlib.axis_2">
    <g id="ytick_1">
     <g id="line2d_13">
      <path d="M 43.78125 237.531476 
L 322.78125 237.531476 
" clip-path="url(#pc57a06d1ae)" style="fill: none; stroke-dasharray: 2.96,1.28; stroke-dashoffset: 0; stroke: #b0b0b0; stroke-opacity: 0.4; stroke-width: 0.8"/>
     </g>
     <g id="line2d_14">
      <defs>
       <path id="m669391f94e" d="M 0 0 
L -3.5 0 
" style="stroke: #000000; stroke-width: 0.8"/>
      </defs>
      <g>
       <use xlink:href="#m669391f94e" x="43.78125" y="237.531476" style="stroke: #000000; stroke-width: 0.8"/>
      </g>
     </g>
     <g id="text_8">
      <!-- 0.5 -->
      <g transform="translate(20.878125 241.330695) scale(0.1 -0.1)">
       <defs>
        <path id="DejaVuSans-2e" d="M 684 794 
L 1344 794 
L 1344 0 
L 684 0 
L 684 794 
z
" transform="scale(0.015625)"/>
        <path id="DejaVuSans-35" d="M 691 4666 
L 3169 4666 
L 3169 4134 
L 1269 4134 
L 1269 2991 
Q 1406 3038 1543 3061 
Q 1681 3084 1819 3084 
Q 2600 3084 3056 2656 
Q 3513 2228 3513 1497 
Q 3513 744 3044 326 
Q 2575 -91 1722 -91 
Q 1428 -91 1123 -41 
Q 819 9 494 109 
L 494 744 
Q 775 591 1075 516 
Q 1375 441 1709 441 
Q 2250 441 2565 725 
Q 2881 1009 2881 1497 
Q 2881 1984 2565 2268 
Q 2250 2553 1709 2553 
Q 1456 2553 1204 2497 
Q 953 2441 691 2322 
L 691 4666 
z
" transform="scale(0.015625)"/>
       </defs>
       <use xlink:href="#DejaVuSans-30"/>
       <use xlink:href="#DejaVuSans-2e" x="63.623047"/>
       <use xlink:href="#DejaVuSans-35" x="95.410156"/>
      </g>
     </g>
    </g>
    <g id="ytick_2">
     <g id="line2d_15">
      <path d="M 43.78125 198.889065 
L 322.78125 198.889065 
" clip-path="url(#pc57a06d1ae)" style="fill: none; stroke-dasharray: 2.96,1.28; stroke-dashoffset: 0; stroke: #b0b0b0; stroke-opacity: 0.4; stroke-width: 0.8"/>
     </g>
     <g id="line2d_16">
      <g>
       <use xlink:href="#m669391f94e" x="43.78125" y="198.889065" style="stroke: #000000; stroke-width: 0.8"/>
      </g>
     </g>
     <g id="text_9">
      <!-- 0.6 -->
      <g transform="translate(20.878125 202.688284) scale(0.1 -0.1)">
       <use xlink:href="#DejaVuSans-30"/>
       <use xlink:href="#DejaVuSans-2e" x="63.623047"/>
       <use xlink:href="#DejaVuSans-36" x="95.410156"/>
      </g>
     </g>
    </g>
    <g id="ytick_3">
     <g id="line2d_17">
      <path d="M 43.78125 160.246653 
L 322.78125 160.246653 
" clip-path="url(#pc57a06d1ae)" style="fill: none; stroke-dasharray: 2.96,1.28; stroke-dashoffset: 0; stroke: #b0b0b0; stroke-opacity: 0.4; stroke-width: 0.8"/>
     </g>
     <g id="line2d_18">
      <g>
       <use xlink:href="#m669391f94e" x="43.78125" y="160.246653" style="stroke: #000000; stroke-width: 0.8"/>
      </g>
     </g>
     <g id="text_10">
      <!-- 0.7 -->
      <g transform="translate(20.878125 164.045872) scale(0.1 -0.1)">
       <defs>
        <path id="DejaVuSans-37" d="M 525 4666 
L 3525 4666 
L 3525 4397 
L 1831 0 
L 1172 0 
L 2766 4134 
L 525 4134 
L 525 4666 
z
" transform="scale(0.015625)"/>
       </defs>
       <use xlink:href="#DejaVuSans-30"/>
       <use xlink:href="#DejaVuSans-2e" x="63.623047"/>
       <use xlink:href="#DejaVuSans-37" x="95.410156"/>
      </g>
     </g>
    </g>
    <g id="ytick_4">
     <g id="line2d_19">
      <path d="M 43.78125 121.604242 
L 322.78125 121.604242 
" clip-path="url(#pc57a06d1ae)" style="fill: none; stroke-dasharray: 2.96,1.28; stroke-dashoffset: 0; stroke: #b0b0b0; stroke-opacity: 0.4; stroke-width: 0.8"/>
     </g>
     <g id="line2d_20">
      <g>
       <use xlink:href="#m669391f94e" x="43.78125" y="121.604242" style="stroke: #000000; stroke-width: 0.8"/>
      </g>
     </g>
     <g id="text_11">
      <!-- 0.8 -->
      <g transform="translate(20.878125 125.403461) scale(0.1 -0.1)">
       <use xlink:href="#DejaVuSans-30"/>
       <use xlink:href="#DejaVuSans-2e" x="63.623047"/>
       <use xlink:href="#DejaVuSans-38" x="95.410156"/>
      </g>
     </g>
    </g>
    <g id="ytick_5">
     <g id="line2d_21">
      <path d="M 43.78125 82.961831 
L 322.78125 82.961831 
" clip-path="url(#pc57a06d1ae)" style="fill: none; stroke-dasharray: 2.96,1.28; stroke-dashoffset: 0; stroke: #b0b0b0; stroke-opacity: 0.4; stroke-width: 0.8"/>
     </g>
     <g id="line2d_22">
      <g>
       <use xlink:href="#m669391f94e" x="43.78125" y="82.961831" style="stroke: #000000; stroke-width: 0.8"/>
      </g>
     </g>
     <g id="text_12">
      <!-- 0.9 -->
      <g transform="translate(20.878125 86.76105) scale(0.1 -0.1)">
       <defs>
        <path id="DejaVuSans-39" d="M 703 97 
L 703 672 
Q 941 559 1184 500 
Q 1428 441 1663 441 
Q 2288 441 2617 861 
Q 2947 1281 2994 2138 
Q 2813 1869 2534 1725 
Q 2256 1581 1919 1581 
Q 1219 1581 811 2004 
Q 403 2428 403 3163 
Q 403 3881 828 4315 
Q 1253 4750 1959 4750 
Q 2769 4750 3195 4129 
Q 3622 3509 3622 2328 
Q 3622 1225 3098 567 
Q 2575 -91 1691 -91 
Q 1453 -91 1209 -44 
Q 966 3 703 97 
z
M 1959 2075 
Q 2384 2075 2632 2365 
Q 2881 2656 2881 3163 
Q 2881 3666 2632 3958 
Q 2384 4250 1959 4250 
Q 1534 4250 1286 3958 
Q 1038 3666 1038 3163 
Q 1038 2656 1286 2365 
Q 1534 2075 1959 2075 
z
" transform="scale(0.015625)"/>
       </defs>
       <use xlink:href="#DejaVuSans-30"/>
       <use xlink:href="#DejaVuSans-2e" x="63.623047"/>
       <use xlink:href="#DejaVuSans-39" x="95.410156"/>
      </g>
     </g>
    </g>
    <g id="ytick_6">
     <g id="line2d_23">
      <path d="M 43.78125 44.319419 
L 322.78125 44.319419 
" clip-path="url(#pc57a06d1ae)" style="fill: none; stroke-dasharray: 2.96,1.28; stroke-dashoffset: 0; stroke: #b0b0b0; stroke-opacity: 0.4; stroke-width: 0.8"/>
     </g>
     <g id="line2d_24">
      <g>
       <use xlink:href="#m669391f94e" x="43.78125" y="44.319419" style="stroke: #000000; stroke-width: 0.8"/>
      </g>
     </g>
     <g id="text_13">
      <!-- 1.0 -->
      <g transform="translate(20.878125 48.118638) scale(0.1 -0.1)">
       <use xlink:href="#DejaVuSans-31"/>
       <use xlink:href="#DejaVuSans-2e" x="63.623047"/>
       <use xlink:href="#DejaVuSans-30" x="95.410156"/>
      </g>
     </g>
    </g>
    <g id="text_14">
     <!-- Accuracy -->
     <g transform="translate(14.798438 161.356125) rotate(-90) scale(0.1 -0.1)">
      <defs>
       <path id="DejaVuSans-41" d="M 2188 4044 
L 1331 1722 
L 3047 1722 
L 2188 4044 
z
M 1831 4666 
L 2547 4666 
L 4325 0 
L 3669 0 
L 3244 1197 
L 1141 1197 
L 716 0 
L 50 0 
L 1831 4666 
z
" transform="scale(0.015625)"/>
       <path id="DejaVuSans-75" d="M 544 1381 
L 544 3500 
L 1119 3500 
L 1119 1403 
Q 1119 906 1312 657 
Q 1506 409 1894 409 
Q 2359 409 2629 706 
Q 2900 1003 2900 1516 
L 2900 3500 
L 3475 3500 
L 3475 0 
L 2900 0 
L 2900 538 
Q 2691 219 2414 64 
Q 2138 -91 1772 -91 
Q 1169 -91 856 284 
Q 544 659 544 1381 
z
M 1991 3584 
L 1991 3584 
z
" transform="scale(0.015625)"/>
       <path id="DejaVuSans-72" d="M 2631 2963 
Q 2534 3019 2420 3045 
Q 2306 3072 2169 3072 
Q 1681 3072 1420 2755 
Q 1159 2438 1159 1844 
L 1159 0 
L 581 0 
L 581 3500 
L 1159 3500 
L 1159 2956 
Q 1341 3275 1631 3429 
Q 1922 3584 2338 3584 
Q 2397 3584 2469 3576 
Q 2541 3569 2628 3553 
L 2631 2963 
z
" transform="scale(0.015625)"/>
       <path id="DejaVuSans-61" d="M 2194 1759 
Q 1497 1759 1228 1600 
Q 959 1441 959 1056 
Q 959 750 1161 570 
Q 1363 391 1709 391 
Q 2188 391 2477 730 
Q 2766 1069 2766 1631 
L 2766 1759 
L 2194 1759 
z
M 3341 1997 
L 3341 0 
L 2766 0 
L 2766 531 
Q 2569 213 2275 61 
Q 1981 -91 1556 -91 
Q 1019 -91 701 211 
Q 384 513 384 1019 
Q 384 1609 779 1909 
Q 1175 2209 1959 2209 
L 2766 2209 
L 2766 2266 
Q 2766 2663 2505 2880 
Q 2244 3097 1772 3097 
Q 1472 3097 1187 3025 
Q 903 2953 641 2809 
L 641 3341 
Q 956 3463 1253 3523 
Q 1550 3584 1831 3584 
Q 2591 3584 2966 3190 
Q 3341 2797 3341 1997 
z
" transform="scale(0.015625)"/>
       <path id="DejaVuSans-79" d="M 2059 -325 
Q 1816 -950 1584 -1140 
Q 1353 -1331 966 -1331 
L 506 -1331 
L 506 -850 
L 844 -850 
Q 1081 -850 1212 -737 
Q 1344 -625 1503 -206 
L 1606 56 
L 191 3500 
L 800 3500 
L 1894 763 
L 2988 3500 
L 3597 3500 
L 2059 -325 
z
" transform="scale(0.015625)"/>
      </defs>
      <use xlink:href="#DejaVuSans-41"/>
      <use xlink:href="#DejaVuSans-63" x="66.658203"/>
      <use xlink:href="#DejaVuSans-63" x="121.638672"/>
      <use xlink:href="#DejaVuSans-75" x="176.619141"/>
      <use xlink:href="#DejaVuSans-72" x="239.998047"/>
      <use xlink:href="#DejaVuSans-61" x="281.111328"/>
      <use xlink:href="#DejaVuSans-63" x="342.390625"/>
      <use xlink:href="#DejaVuSans-79" x="397.371094"/>
     </g>
    </g>
   </g>
   <g id="line2d_25">
    <path d="M 56.463068 230.557091 
L 56.716958 224.018622 
L 56.970849 213.121151 
L 57.224739 207.127543 
L 57.478629 180.646719 
L 58.2403 144.903029 
L 58.74808 132.806846 
L 59.001971 130.627333 
L 59.255861 130.954259 
L 59.509751 123.870906 
L 59.763641 120.383736 
L 60.525312 114.499096 
L 60.779202 114.281138 
L 61.033093 111.556787 
L 61.286983 118.095256 
L 61.540873 109.486265 
L 61.794764 109.595233 
L 62.048654 105.890105 
L 62.302544 105.781114 
L 62.810325 103.601625 
L 63.064215 101.095209 
L 63.318105 101.967019 
L 63.571995 101.313167 
L 63.825886 98.479826 
L 64.079776 99.569571 
L 64.333666 95.973411 
L 64.587556 96.409304 
L 64.841447 92.813144 
L 65.095337 95.973411 
L 65.349227 94.011857 
L 65.603117 94.229815 
L 65.857008 90.633655 
L 66.110898 91.832367 
L 66.618678 87.800313 
L 66.872569 89.870812 
L 67.380349 84.095163 
L 67.634239 89.107993 
L 67.88813 87.909281 
L 68.14202 84.095163 
L 68.39591 83.768237 
L 68.6498 88.6721 
L 68.903691 84.095163 
L 69.411471 83.005418 
L 69.665361 80.716961 
L 69.919252 84.857982 
L 70.173142 81.370812 
L 70.427032 80.172077 
L 70.680922 80.063109 
L 70.934813 79.736183 
L 71.188703 77.338736 
L 71.442593 80.063109 
L 71.696483 79.082332 
L 71.950374 74.941288 
L 72.204264 78.646439 
L 72.458154 76.140023 
L 72.712044 77.01181 
L 72.965935 76.466949 
L 73.219825 78.319513 
L 73.473715 77.88362 
L 73.727605 75.486172 
L 73.981496 75.70413 
L 74.235386 77.01181 
L 74.489276 77.1208 
L 74.997057 73.960534 
L 75.250947 73.851543 
L 75.504837 77.229768 
L 75.758727 73.851543 
L 76.012618 73.851543 
L 76.266508 75.377204 
L 76.520398 72.979756 
L 76.774288 72.652831 
L 77.028179 71.23616 
L 77.282069 72.216937 
L 77.535959 71.127192 
L 77.78985 71.563086 
L 78.04374 73.306682 
L 78.29763 71.127192 
L 78.55152 70.146415 
L 78.805411 71.781021 
L 79.059301 75.486172 
L 79.820972 65.678445 
L 80.074862 70.36435 
L 80.328752 65.787436 
L 80.836533 70.582309 
L 81.090423 68.511787 
L 81.598203 67.095116 
L 81.852094 68.402819 
L 82.105984 66.005371 
L 82.359874 65.678445 
L 82.613764 67.095116 
L 82.867655 65.896404 
L 83.121545 69.165638 
L 83.375435 67.204107 
L 83.883216 60.99254 
L 84.137106 60.99254 
L 84.644886 57.723306 
L 84.898777 58.268167 
L 85.152667 59.248944 
L 85.406557 58.704083 
L 85.660447 59.139977 
L 85.914338 57.614338 
L 86.168228 59.248944 
L 86.676008 56.742529 
L 86.929899 58.922018 
L 87.183789 59.466902 
L 87.437679 56.306635 
L 87.691569 59.030986 
L 87.94546 58.704083 
L 88.45324 56.197668 
L 88.70713 56.960487 
L 88.961021 59.030986 
L 89.214911 56.524571 
L 89.722691 59.684837 
L 89.976582 56.742529 
L 90.230472 56.960487 
L 90.484362 55.97971 
L 90.738252 57.832274 
L 91.246033 54.998932 
L 91.499923 57.178422 
L 91.753813 54.563039 
L 92.007704 57.178422 
L 92.261594 55.325858 
L 92.515484 54.345081 
L 92.769374 54.889965 
L 93.023265 57.614338 
L 93.277155 57.941241 
L 93.531045 55.1079 
L 93.784936 55.97971 
L 94.038826 55.216891 
L 94.292716 57.287413 
L 94.800497 55.325858 
L 95.054387 55.216891 
L 95.308277 53.909188 
L 95.562167 55.761751 
L 95.816058 56.088677 
L 96.069948 54.889965 
L 96.323838 54.889965 
L 96.577728 54.345081 
L 96.831619 53.255336 
L 97.085509 53.255336 
L 97.339399 51.075847 
L 97.593289 53.80022 
L 97.84718 53.255336 
L 98.10107 51.838666 
L 98.60885 54.236113 
L 98.862741 53.037401 
L 99.116631 52.601485 
L 99.370521 52.92841 
L 99.624411 52.056624 
L 99.878302 50.748921 
L 100.132192 52.92841 
L 100.386082 51.184814 
L 100.639972 52.383549 
L 101.147753 51.838666 
L 101.401643 53.037401 
L 101.655533 52.165591 
L 101.909424 52.492517 
L 102.163314 51.947656 
L 102.417204 53.255336 
L 102.671094 53.146369 
L 102.924985 51.729698 
L 103.178875 53.146369 
L 103.432765 51.51174 
L 103.686655 50.966879 
L 103.940546 51.184814 
L 104.194436 50.20406 
L 104.448326 51.402772 
L 104.702216 51.62073 
L 104.956107 51.184814 
L 105.209997 51.293805 
L 105.717777 52.819443 
L 105.971668 50.857888 
L 106.225558 50.966879 
L 106.479448 52.383549 
L 106.733338 52.274559 
L 106.987229 50.20406 
L 107.241119 51.62073 
L 107.495009 50.530986 
L 107.748899 51.293805 
L 108.00279 53.255336 
L 108.25668 50.748921 
L 108.51057 49.986102 
L 108.76446 52.383549 
L 109.018351 51.184814 
L 109.272241 49.441218 
L 109.526131 50.639953 
L 109.780021 48.896357 
L 110.033912 49.986102 
L 110.287802 49.550208 
L 110.541692 49.768144 
L 110.795583 48.896357 
L 111.049473 51.075847 
L 111.303363 49.33225 
L 111.557253 50.748921 
L 111.811144 49.441218 
L 112.065034 50.748921 
L 112.318924 50.095069 
L 112.572814 49.986102 
L 112.826705 50.530986 
L 113.080595 49.986102 
L 113.334485 50.530986 
L 113.588375 49.441218 
L 113.842266 51.293805 
L 114.096156 51.62073 
L 114.350046 49.986102 
L 114.603936 49.441218 
L 114.857827 50.748921 
L 115.365607 49.441218 
L 115.619497 49.550208 
L 115.873388 50.095069 
L 116.127278 51.838666 
L 116.381168 49.114315 
L 117.142839 50.421995 
L 117.396729 48.678399 
L 117.650619 50.530986 
L 117.90451 48.896357 
L 118.1584 48.787389 
L 118.41229 50.421995 
L 118.66618 49.877134 
L 118.920071 49.768144 
L 119.173961 48.678399 
L 119.427851 50.20406 
L 119.681741 49.005324 
L 120.697302 49.768144 
L 120.951193 49.768144 
L 121.205083 49.986102 
L 121.458973 49.768144 
L 121.712863 49.768144 
L 121.966754 49.33225 
L 122.220644 49.768144 
L 122.474534 49.550208 
L 122.728424 49.877134 
L 123.236205 48.787389 
L 123.490095 49.441218 
L 123.743985 48.569431 
L 123.997876 48.460464 
L 124.251766 48.569431 
L 124.505656 48.351473 
L 124.759546 48.460464 
L 125.013437 49.441218 
L 125.267327 49.877134 
L 125.521217 48.569431 
L 125.775107 48.133538 
L 126.028998 49.114315 
L 126.282888 49.005324 
L 126.536778 49.659176 
L 126.790669 48.133538 
L 127.044559 50.095069 
L 127.298449 48.242505 
L 127.552339 50.748921 
L 127.80623 49.441218 
L 128.06012 49.114315 
L 128.31401 49.768144 
L 128.821791 48.678399 
L 129.075681 49.441218 
L 129.329571 49.114315 
L 129.837352 49.877134 
L 130.091242 48.460464 
L 130.345132 47.697645 
L 130.599022 49.550208 
L 130.852913 49.659176 
L 131.106803 50.20406 
L 131.360693 48.242505 
L 131.614583 49.223283 
L 132.122364 47.91558 
L 132.376254 48.242505 
L 132.630144 48.787389 
L 132.884035 48.678399 
L 133.137925 49.441218 
L 133.391815 51.402772 
L 133.645705 49.659176 
L 133.899596 49.005324 
L 134.153486 48.678399 
L 134.407376 48.896357 
L 134.661266 48.460464 
L 134.915157 49.005324 
L 135.169047 48.242505 
L 135.930718 49.659176 
L 136.184608 49.223283 
L 136.438498 49.223283 
L 136.692388 47.91558 
L 136.946279 48.460464 
L 137.200169 47.806612 
L 137.454059 50.421995 
L 137.707949 47.91558 
L 137.96184 49.005324 
L 138.21573 50.748921 
L 138.46962 49.33225 
L 138.977401 48.678399 
L 139.231291 48.133538 
L 139.485181 49.659176 
L 139.739071 48.678399 
L 139.992962 48.896357 
L 140.246852 49.33225 
L 140.500742 48.787389 
L 140.754632 49.33225 
L 141.008523 49.114315 
L 141.262413 48.569431 
L 141.516303 48.678399 
L 141.770193 47.91558 
L 142.024084 49.33225 
L 142.277974 48.678399 
L 142.531864 50.095069 
L 142.785755 48.678399 
L 143.039645 48.351473 
L 143.293535 48.896357 
L 143.547425 48.460464 
L 143.801316 49.005324 
L 144.055206 48.351473 
L 144.562986 49.550208 
L 144.816877 48.351473 
L 145.070767 48.351473 
L 145.324657 48.787389 
L 145.832438 48.460464 
L 146.086328 48.678399 
L 146.340218 47.91558 
L 146.594108 49.005324 
L 147.355779 47.261728 
L 147.609669 48.024547 
L 147.86356 48.351473 
L 148.11745 49.114315 
L 148.37134 47.370719 
L 148.62523 48.351473 
L 148.879121 48.242505 
L 149.133011 48.678399 
L 149.386901 48.351473 
L 149.894682 48.351473 
L 150.148572 47.697645 
L 150.656352 47.588654 
L 150.910243 48.896357 
L 151.164133 49.223283 
L 151.671913 48.569431 
L 151.925804 47.697645 
L 152.179694 48.024547 
L 152.433584 49.005324 
L 152.687474 48.133538 
L 153.449145 49.223283 
L 153.956926 47.479686 
L 154.210816 48.351473 
L 154.464706 47.91558 
L 154.718596 49.005324 
L 154.972487 48.896357 
L 155.226377 47.91558 
L 155.480267 49.33225 
L 155.734157 48.678399 
L 156.241938 49.768144 
L 156.495828 48.460464 
L 156.749718 47.91558 
L 157.003609 49.005324 
L 157.257499 48.133538 
L 157.511389 48.133538 
L 158.01917 49.659176 
L 158.27306 49.33225 
L 158.52695 48.460464 
L 158.78084 48.678399 
L 159.034731 49.33225 
L 159.288621 48.678399 
L 159.542511 48.569431 
L 159.796402 48.242505 
L 160.050292 48.678399 
L 160.304182 48.460464 
L 160.558072 48.678399 
L 160.811963 48.024547 
L 161.065853 48.351473 
L 161.319743 47.91558 
L 161.573633 48.024547 
L 161.827524 47.261728 
L 162.081414 49.114315 
L 162.335304 49.114315 
L 162.843085 48.678399 
L 163.096975 49.223283 
L 163.350865 48.569431 
L 163.604755 48.351473 
L 163.858646 49.223283 
L 164.112536 48.460464 
L 164.366426 48.678399 
L 164.620316 48.242505 
L 164.874207 49.005324 
L 165.128097 47.806612 
L 165.381987 47.697645 
L 165.889768 48.678399 
L 166.143658 47.588654 
L 166.651438 49.114315 
L 166.905329 47.806612 
L 167.159219 48.242505 
L 167.413109 48.242505 
L 167.666999 49.768144 
L 167.92089 48.678399 
L 168.17478 48.896357 
L 168.42867 48.133538 
L 168.68256 48.678399 
L 168.936451 47.697645 
L 169.190341 49.114315 
L 169.444231 48.569431 
L 169.698121 48.460464 
L 169.952012 48.133538 
L 170.205902 48.133538 
L 170.459792 47.806612 
L 170.713682 48.569431 
L 171.221463 48.242505 
L 171.475353 48.133538 
L 171.729243 48.460464 
L 172.237024 48.133538 
L 172.744804 48.787389 
L 172.998695 48.024547 
L 173.252585 48.242505 
L 173.506475 49.223283 
L 174.014256 48.896357 
L 174.268146 48.351473 
L 174.522036 49.223283 
L 174.775926 47.697645 
L 175.029817 48.678399 
L 175.283707 48.133538 
L 175.537597 48.460464 
L 175.791488 48.569431 
L 176.045378 48.460464 
L 176.299268 48.678399 
L 176.553158 47.806612 
L 176.807049 48.460464 
L 177.060939 48.351473 
L 177.314829 47.697645 
L 177.568719 48.242505 
L 177.82261 48.024547 
L 178.0765 48.569431 
L 178.33039 47.588654 
L 178.838171 47.697645 
L 179.092061 48.787389 
L 179.345951 50.530986 
L 179.599841 47.806612 
L 179.853732 49.005324 
L 180.107622 48.678399 
L 180.361512 48.896357 
L 180.615402 48.787389 
L 180.869293 48.460464 
L 181.123183 48.460464 
L 181.377073 47.370719 
L 181.630963 48.242505 
L 181.884854 47.479686 
L 182.138744 47.588654 
L 182.392634 48.242505 
L 182.646524 46.607877 
L 182.900415 48.351473 
L 183.154305 48.351473 
L 183.408195 48.678399 
L 183.662085 47.588654 
L 183.915976 47.806612 
L 184.169866 47.806612 
L 184.423756 48.024547 
L 184.677646 48.569431 
L 184.931537 48.351473 
L 185.185427 48.351473 
L 185.439317 48.569431 
L 185.947098 48.133538 
L 186.200988 47.043793 
L 186.454878 47.697645 
L 186.708768 49.223283 
L 186.962659 48.351473 
L 187.216549 48.678399 
L 187.470439 47.806612 
L 187.724329 47.697645 
L 187.97822 48.569431 
L 188.23211 48.896357 
L 188.73989 48.242505 
L 189.247671 48.678399 
L 189.501561 49.33225 
L 189.755451 49.223283 
L 190.009342 47.370719 
L 190.263232 47.261728 
L 190.517122 48.460464 
L 190.771012 47.261728 
L 191.024903 48.678399 
L 191.278793 48.351473 
L 191.532683 48.569431 
L 191.786574 49.659176 
L 192.040464 47.91558 
L 192.294354 47.370719 
L 192.548244 48.351473 
L 192.802135 47.261728 
L 193.056025 48.460464 
L 193.309915 48.351473 
L 193.563805 47.91558 
L 193.817696 49.114315 
L 194.071586 48.569431 
L 194.325476 48.569431 
L 194.579366 48.242505 
L 194.833257 49.441218 
L 195.087147 48.242505 
L 195.341037 47.806612 
L 195.848818 49.33225 
L 196.102708 48.024547 
L 196.356598 48.351473 
L 196.610488 48.242505 
L 196.864379 47.91558 
L 197.118269 48.133538 
L 197.372159 48.133538 
L 197.626049 48.460464 
L 197.87994 47.588654 
L 198.13383 47.479686 
L 198.64161 48.787389 
L 198.895501 48.351473 
L 199.149391 47.152761 
L 199.403281 47.806612 
L 199.657171 47.370719 
L 200.164952 48.133538 
L 200.418842 47.479686 
L 200.672732 48.133538 
L 200.926623 47.91558 
L 201.180513 48.460464 
L 201.434403 48.569431 
L 201.688293 48.133538 
L 201.942184 47.370719 
L 202.196074 48.351473 
L 202.449964 48.024547 
L 202.703854 48.351473 
L 202.957745 49.33225 
L 203.211635 48.678399 
L 203.465525 49.33225 
L 203.719415 48.460464 
L 203.973306 48.242505 
L 204.227196 48.787389 
L 204.734976 47.370719 
L 204.988867 48.242505 
L 205.242757 48.569431 
L 205.496647 48.024547 
L 205.750537 48.569431 
L 206.004428 47.697645 
L 206.258318 47.588654 
L 206.766098 49.441218 
L 207.019989 48.896357 
L 207.273879 48.024547 
L 207.527769 48.351473 
L 208.03555 47.261728 
L 208.28944 48.133538 
L 208.54333 48.460464 
L 208.797221 48.569431 
L 209.051111 47.261728 
L 209.305001 49.005324 
L 209.558891 48.242505 
L 209.812782 48.787389 
L 210.066672 47.479686 
L 210.320562 47.91558 
L 210.574452 47.697645 
L 210.828343 48.896357 
L 211.082233 48.678399 
L 211.336123 47.588654 
L 211.590013 47.806612 
L 211.843904 48.351473 
L 212.351684 48.460464 
L 212.605574 49.441218 
L 212.859465 48.678399 
L 213.367245 48.569431 
L 213.621135 47.261728 
L 213.875026 47.152761 
L 214.128916 47.806612 
L 214.382806 49.114315 
L 214.636696 47.370719 
L 215.144477 48.787389 
L 215.398367 47.91558 
L 215.652257 48.787389 
L 215.906148 48.787389 
L 216.160038 48.460464 
L 216.413928 48.460464 
L 216.667818 48.133538 
L 216.921709 48.351473 
L 217.175599 49.877134 
L 217.429489 48.460464 
L 217.683379 48.569431 
L 217.93727 48.896357 
L 218.19116 47.91558 
L 218.44505 49.550208 
L 218.69894 47.697645 
L 219.206721 48.896357 
L 219.460611 48.896357 
L 219.714501 49.986102 
L 219.968392 47.91558 
L 220.222282 48.024547 
L 220.730062 49.441218 
L 220.983953 49.768144 
L 221.237843 48.787389 
L 221.491733 48.896357 
L 221.745623 47.043793 
L 221.999514 48.242505 
L 222.253404 48.351473 
L 222.507294 48.024547 
L 222.761184 46.716867 
L 223.522855 49.550208 
L 223.776745 47.370719 
L 224.030636 47.152761 
L 224.284526 49.659176 
L 224.538416 48.460464 
L 224.792307 48.242505 
L 225.046197 48.460464 
L 225.300087 48.024547 
L 225.553977 49.005324 
L 226.061758 49.441218 
L 226.315648 48.024547 
L 226.823429 48.896357 
L 227.331209 48.024547 
L 227.585099 49.441218 
L 227.83899 48.024547 
L 228.09288 48.024547 
L 228.34677 47.043793 
L 228.60066 48.460464 
L 228.854551 48.787389 
L 229.108441 47.697645 
L 229.362331 48.569431 
L 229.616221 48.460464 
L 229.870112 47.588654 
L 230.124002 49.005324 
L 230.377892 48.351473 
L 230.885673 48.133538 
L 231.139563 47.370719 
L 231.647343 47.588654 
L 231.901234 49.33225 
L 232.155124 48.787389 
L 232.409014 48.678399 
L 232.662904 48.896357 
L 232.916795 48.024547 
L 233.170685 47.697645 
L 233.424575 48.569431 
L 233.678465 48.678399 
L 233.932356 49.33225 
L 234.186246 47.806612 
L 234.440136 48.896357 
L 234.694026 46.825835 
L 234.947917 48.896357 
L 235.455697 48.787389 
L 235.709587 48.133538 
L 235.963478 49.33225 
L 236.217368 48.242505 
L 236.471258 47.806612 
L 236.725148 48.024547 
L 236.979039 49.33225 
L 237.486819 48.133538 
L 237.740709 48.678399 
L 237.9946 48.351473 
L 238.24849 48.460464 
L 238.50238 47.479686 
L 238.75627 47.588654 
L 239.010161 49.33225 
L 239.264051 49.223283 
L 240.025722 47.806612 
L 240.279612 48.242505 
L 240.533502 47.697645 
L 240.787393 48.896357 
L 241.041283 49.114315 
L 241.295173 46.825835 
L 241.549063 48.351473 
L 241.802954 49.005324 
L 242.056844 48.787389 
L 242.310734 47.588654 
L 242.564624 47.806612 
L 242.818515 47.588654 
L 243.072405 47.806612 
L 243.326295 47.806612 
L 243.580185 48.787389 
L 243.834076 47.91558 
L 244.849637 47.806612 
L 245.103527 48.678399 
L 245.357417 48.896357 
L 245.611307 48.351473 
L 245.865198 48.896357 
L 246.119088 47.479686 
L 246.372978 47.588654 
L 246.626868 48.896357 
L 246.880759 48.569431 
L 247.134649 48.024547 
L 247.388539 48.569431 
L 247.642429 48.351473 
L 248.15021 49.223283 
L 248.4041 48.024547 
L 248.65799 49.223283 
L 249.165771 48.569431 
L 249.419661 47.697645 
L 249.673551 48.351473 
L 249.927442 48.678399 
L 250.181332 48.787389 
L 250.435222 48.133538 
L 250.689112 47.91558 
L 250.943003 49.114315 
L 251.196893 48.896357 
L 251.450783 48.351473 
L 251.704673 48.133538 
L 251.958564 47.479686 
L 252.212454 48.896357 
L 252.466344 47.479686 
L 252.720234 47.806612 
L 252.974125 49.005324 
L 253.228015 47.588654 
L 253.481905 49.768144 
L 253.735795 48.351473 
L 253.989686 47.806612 
L 254.243576 47.697645 
L 254.497466 48.787389 
L 255.005247 48.787389 
L 255.259137 47.697645 
L 255.513027 47.588654 
L 255.766917 47.91558 
L 256.020808 47.91558 
L 256.274698 49.114315 
L 256.528588 48.351473 
L 256.782479 48.133538 
L 257.290259 48.460464 
L 258.05193 48.460464 
L 258.30582 47.91558 
L 258.55971 48.569431 
L 258.813601 47.91558 
L 259.067491 47.806612 
L 259.321381 47.91558 
L 259.575271 48.242505 
L 259.829162 47.91558 
L 260.083052 49.114315 
L 260.336942 47.370719 
L 260.590832 47.479686 
L 260.844723 48.242505 
L 261.098613 47.91558 
L 261.352503 49.550208 
L 261.606393 47.806612 
L 261.860284 48.351473 
L 262.114174 47.91558 
L 262.368064 48.133538 
L 262.621954 48.787389 
L 263.129735 47.261728 
L 263.383625 47.91558 
L 263.637515 47.479686 
L 263.891406 48.896357 
L 264.145296 48.787389 
L 264.399186 49.877134 
L 264.653076 48.787389 
L 264.906967 48.678399 
L 265.160857 48.133538 
L 265.414747 48.460464 
L 265.668637 48.024547 
L 265.922528 48.242505 
L 266.176418 48.024547 
L 266.430308 48.787389 
L 266.684198 48.133538 
L 266.938089 48.024547 
L 267.191979 49.114315 
L 267.445869 47.91558 
L 267.699759 48.787389 
L 267.95365 48.678399 
L 268.20754 48.787389 
L 268.46143 48.460464 
L 268.71532 47.479686 
L 269.223101 48.678399 
L 269.476991 47.806612 
L 269.984772 48.133538 
L 270.238662 48.242505 
L 270.492552 48.787389 
L 270.746442 48.678399 
L 271.000333 47.479686 
L 271.254223 49.005324 
L 271.508113 49.33225 
L 271.762003 47.91558 
L 272.015894 47.697645 
L 272.269784 47.91558 
L 272.523674 47.479686 
L 272.777564 47.697645 
L 273.031455 47.588654 
L 273.285345 47.91558 
L 273.539235 49.223283 
L 273.793126 47.479686 
L 274.047016 47.91558 
L 274.554796 47.588654 
L 274.808687 48.133538 
L 275.316467 48.024547 
L 275.570357 48.678399 
L 275.824248 47.588654 
L 276.332028 48.569431 
L 276.839809 48.242505 
L 277.093699 48.678399 
L 277.347589 47.806612 
L 277.601479 48.242505 
L 278.10926 48.351473 
L 278.36315 47.806612 
L 278.61704 46.825835 
L 278.870931 49.005324 
L 279.124821 48.242505 
L 279.632601 47.588654 
L 279.886492 48.896357 
L 280.140382 47.588654 
L 280.394272 47.588654 
L 280.648162 49.114315 
L 280.902053 47.588654 
L 281.409833 47.91558 
L 281.663723 49.223283 
L 281.917614 48.024547 
L 282.171504 49.005324 
L 282.425394 48.351473 
L 282.679284 48.024547 
L 282.933175 48.896357 
L 283.187065 48.896357 
L 283.440955 49.441218 
L 283.694845 48.896357 
L 283.948736 48.787389 
L 284.202626 48.242505 
L 284.456516 47.261728 
L 284.710406 48.351473 
L 284.964297 48.896357 
L 285.218187 47.91558 
L 285.472077 48.896357 
L 285.979858 48.242505 
L 286.233748 47.479686 
L 286.487638 49.223283 
L 286.741528 48.787389 
L 286.995419 49.114315 
L 287.249309 48.242505 
L 287.503199 48.678399 
L 288.01098 48.569431 
L 288.26487 47.370719 
L 288.51876 48.351473 
L 288.77265 47.806612 
L 289.280431 48.787389 
L 289.534321 48.242505 
L 290.042102 48.133538 
L 290.295992 48.133538 
L 290.549882 48.787389 
L 290.803773 49.005324 
L 291.311553 46.934802 
L 291.565443 48.024547 
L 291.819334 48.024547 
L 292.073224 47.152761 
L 292.327114 48.896357 
L 292.834895 48.133538 
L 293.088785 47.043793 
L 293.596565 48.133538 
L 293.850456 47.806612 
L 294.104346 48.678399 
L 294.358236 47.152761 
L 294.612126 47.91558 
L 295.119907 48.678399 
L 295.373797 48.133538 
L 295.881578 47.697645 
L 296.135468 48.460464 
L 296.389358 47.697645 
L 296.643248 49.659176 
L 296.897139 48.678399 
L 297.151029 49.005324 
L 297.404919 47.370719 
L 297.658809 49.005324 
L 297.9127 47.806612 
L 298.42048 49.550208 
L 298.67437 47.152761 
L 298.928261 48.133538 
L 299.182151 48.351473 
L 299.436041 48.242505 
L 299.689931 47.806612 
L 300.197712 48.460464 
L 300.451602 48.569431 
L 300.705492 48.460464 
L 300.959383 47.588654 
L 301.213273 48.569431 
L 301.467163 48.024547 
L 301.721053 48.896357 
L 301.974944 47.588654 
L 302.228834 48.024547 
L 302.482724 47.370719 
L 302.736614 48.896357 
L 302.990505 49.114315 
L 303.244395 48.896357 
L 303.752175 47.697645 
L 304.006066 48.242505 
L 304.259956 48.351473 
L 304.513846 49.005324 
L 304.767736 48.896357 
L 305.021627 46.498909 
L 305.275517 48.133538 
L 305.529407 48.678399 
L 305.783298 48.896357 
L 306.037188 48.678399 
L 306.291078 49.005324 
L 306.544968 47.91558 
L 307.052749 47.370719 
L 307.306639 48.678399 
L 307.560529 47.370719 
L 308.06831 48.896357 
L 308.3222 48.678399 
L 308.57609 48.242505 
L 308.829981 48.351473 
L 309.337761 48.133538 
L 309.591651 49.005324 
L 309.845542 47.697645 
L 310.099432 47.91558 
L 310.099432 47.91558 
" clip-path="url(#pc57a06d1ae)" style="fill: none; stroke: #0000ff; stroke-width: 0.6; stroke-linecap: square"/>
   </g>
   <g id="line2d_26">
    <path d="M 56.463068 201.685544 
L 56.716958 214.905331 
L 56.970849 215.922223 
L 57.224739 178.296718 
L 57.478629 162.788912 
L 57.732519 167.873444 
L 57.98641 140.162767 
L 58.2403 133.552874 
L 58.49419 134.569789 
L 58.74808 126.180323 
L 59.001971 123.638045 
L 59.255861 122.875365 
L 59.509751 119.316195 
L 59.763641 132.281747 
L 60.017532 130.502173 
L 60.271422 114.994367 
L 60.525312 113.469006 
L 60.779202 119.061983 
L 61.033093 146.518425 
L 61.286983 116.773941 
L 61.540873 116.519706 
L 62.048654 106.859112 
L 62.302544 112.960536 
L 62.556434 129.231023 
L 62.810325 103.808389 
L 63.064215 133.552874 
L 63.318105 112.706325 
L 63.571995 102.791497 
L 64.079776 99.232327 
L 64.333666 109.655601 
L 64.587556 99.232327 
L 64.841447 121.350026 
L 65.095337 96.69005 
L 65.349227 95.927369 
L 65.603117 108.89292 
L 65.857008 98.469646 
L 66.110898 99.486538 
L 66.364788 107.113347 
L 66.618678 98.215411 
L 66.872569 116.773941 
L 67.126459 97.198519 
L 67.380349 101.0119 
L 67.634239 98.469646 
L 67.88813 99.995008 
L 68.14202 95.673157 
L 68.39591 132.535981 
L 68.6498 98.978092 
L 69.157581 101.520346 
L 69.411471 93.13088 
L 69.919252 109.401367 
L 70.173142 97.45273 
L 70.427032 93.893561 
L 70.680922 93.639349 
L 70.934813 108.638686 
L 71.188703 95.164688 
L 71.442593 105.842197 
L 71.696483 95.673157 
L 71.950374 93.385115 
L 72.204264 94.656242 
L 72.458154 94.910476 
L 72.712044 93.893561 
L 72.965935 98.469646 
L 73.219825 100.249219 
L 73.473715 96.181603 
L 73.727605 94.910476 
L 73.981496 94.910476 
L 74.235386 90.84286 
L 74.489276 94.402007 
L 74.997057 108.13024 
L 75.250947 94.147795 
L 75.758727 96.181603 
L 76.012618 93.893561 
L 76.520398 110.672517 
L 76.774288 91.351307 
L 77.282069 97.706965 
L 77.535959 95.927369 
L 77.78985 99.995008 
L 78.04374 94.910476 
L 78.29763 92.113987 
L 78.55152 95.927369 
L 78.805411 97.45273 
L 79.059301 100.503454 
L 79.313191 93.893561 
L 79.567081 92.876668 
L 79.820972 97.198519 
L 80.328752 89.317499 
L 80.582642 92.622434 
L 80.836533 91.351307 
L 81.090423 91.097072 
L 81.344313 98.469646 
L 81.598203 96.181603 
L 81.852094 91.097072 
L 82.105984 89.825945 
L 82.359874 102.537262 
L 82.613764 95.927369 
L 82.867655 107.876028 
L 83.121545 90.588626 
L 83.375435 98.215411 
L 83.629325 97.45273 
L 83.883216 89.317499 
L 84.137106 94.402007 
L 84.390996 93.893561 
L 84.644886 96.944284 
L 84.898777 90.080179 
L 85.152667 90.84286 
L 85.406557 92.113987 
L 85.660447 91.859753 
L 85.914338 90.080179 
L 86.168228 90.334391 
L 86.422118 90.84286 
L 86.929899 88.554818 
L 87.183789 94.910476 
L 87.437679 96.944284 
L 87.94546 93.639349 
L 88.19935 97.706965 
L 88.45324 91.859753 
L 88.70713 92.622434 
L 88.961021 95.673157 
L 89.468801 93.13088 
L 89.722691 95.673157 
L 89.976582 95.164688 
L 90.230472 90.84286 
L 90.484362 92.876668 
L 90.738252 90.334391 
L 90.992143 90.334391 
L 91.246033 90.080179 
L 91.499923 89.063264 
L 91.753813 91.097072 
L 92.007704 89.825945 
L 92.261594 91.605518 
L 92.769374 89.063264 
L 93.023265 90.334391 
L 93.531045 98.215411 
L 93.784936 88.809029 
L 94.038826 92.876668 
L 94.292716 91.097072 
L 94.546606 90.334391 
L 94.800497 94.402007 
L 95.054387 95.164688 
L 95.308277 92.368199 
L 95.562167 95.418922 
L 95.816058 92.876668 
L 96.069948 94.402007 
L 96.323838 89.825945 
L 96.577728 92.368199 
L 96.831619 90.588626 
L 97.085509 91.859753 
L 97.339399 97.706965 
L 97.593289 91.859753 
L 97.84718 97.706965 
L 98.35496 89.57171 
L 98.60885 90.334391 
L 98.862741 91.859753 
L 99.116631 90.334391 
L 99.370521 90.84286 
L 99.624411 92.368199 
L 99.878302 90.334391 
L 100.132192 94.147795 
L 100.386082 87.537902 
L 100.639972 92.876668 
L 100.893863 91.859753 
L 101.147753 91.859753 
L 101.401643 93.639349 
L 101.655533 93.639349 
L 101.909424 93.385115 
L 102.163314 93.385115 
L 102.417204 89.825945 
L 102.671094 89.825945 
L 102.924985 92.622434 
L 103.178875 90.84286 
L 103.432765 91.351307 
L 103.686655 96.69005 
L 103.940546 89.063264 
L 104.194436 89.57171 
L 104.448326 91.605518 
L 104.702216 90.588626 
L 105.209997 93.639349 
L 105.717777 90.588626 
L 106.225558 93.893561 
L 106.479448 93.385115 
L 106.733338 89.063264 
L 106.987229 92.622434 
L 107.241119 91.605518 
L 107.495009 91.605518 
L 107.748899 90.84286 
L 108.00279 93.639349 
L 108.25668 90.334391 
L 108.51057 91.097072 
L 108.76446 93.385115 
L 109.018351 90.84286 
L 109.272241 92.876668 
L 109.526131 92.368199 
L 109.780021 92.876668 
L 110.033912 89.57171 
L 110.287802 94.656242 
L 110.541692 91.859753 
L 110.795583 94.910476 
L 111.049473 91.605518 
L 111.303363 93.893561 
L 111.811144 91.859753 
L 112.065034 92.368199 
L 112.318924 91.097072 
L 112.572814 91.351307 
L 112.826705 92.113987 
L 113.080595 92.368199 
L 113.334485 93.13088 
L 113.842266 90.588626 
L 114.096156 91.351307 
L 114.350046 90.080179 
L 114.603936 90.84286 
L 114.857827 95.164688 
L 115.111717 93.385115 
L 115.365607 90.080179 
L 115.619497 89.57171 
L 115.873388 91.605518 
L 116.127278 92.113987 
L 116.381168 91.859753 
L 116.635058 91.859753 
L 116.888949 92.368199 
L 117.142839 94.402007 
L 117.396729 90.334391 
L 117.650619 90.84286 
L 117.90451 92.113987 
L 118.1584 92.622434 
L 118.41229 90.588626 
L 118.66618 91.351307 
L 118.920071 93.13088 
L 119.173961 90.080179 
L 119.427851 91.605518 
L 119.681741 92.368199 
L 119.935632 94.147795 
L 120.189522 92.368199 
L 120.697302 91.859753 
L 120.951193 92.622434 
L 121.205083 92.622434 
L 121.458973 91.351307 
L 121.712863 91.859753 
L 121.966754 91.351307 
L 122.220644 91.351307 
L 122.474534 90.588626 
L 122.728424 90.588626 
L 122.982315 91.351307 
L 123.236205 90.080179 
L 123.490095 92.622434 
L 123.743985 90.334391 
L 123.997876 91.859753 
L 124.251766 91.605518 
L 124.505656 91.097072 
L 124.759546 91.859753 
L 125.013437 91.351307 
L 125.267327 91.605518 
L 125.521217 92.113987 
L 125.775107 92.113987 
L 126.028998 91.859753 
L 126.282888 91.859753 
L 126.790669 91.351307 
L 127.044559 92.113987 
L 127.298449 92.113987 
L 127.552339 93.13088 
L 127.80623 92.113987 
L 128.06012 92.876668 
L 128.31401 92.113987 
L 128.5679 92.113987 
L 128.821791 92.368199 
L 129.075681 90.84286 
L 129.583461 92.622434 
L 129.837352 91.859753 
L 130.091242 92.113987 
L 130.345132 92.113987 
L 130.599022 90.334391 
L 130.852913 94.147795 
L 131.360693 91.859753 
L 131.614583 92.113987 
L 131.868474 92.113987 
L 132.122364 91.605518 
L 132.376254 91.859753 
L 132.630144 90.84286 
L 132.884035 92.113987 
L 133.137925 91.351307 
L 133.391815 91.859753 
L 133.645705 92.622434 
L 133.899596 91.605518 
L 134.153486 91.859753 
L 134.661266 92.876668 
L 135.169047 90.84286 
L 135.422937 92.368199 
L 135.676827 92.622434 
L 135.930718 91.351307 
L 136.184608 92.876668 
L 136.438498 92.622434 
L 136.692388 94.147795 
L 136.946279 92.876668 
L 137.200169 92.622434 
L 137.454059 92.876668 
L 137.707949 92.368199 
L 137.96184 93.13088 
L 138.21573 92.876668 
L 138.46962 92.368199 
L 138.72351 92.113987 
L 138.977401 92.622434 
L 139.231291 92.368199 
L 139.485181 92.876668 
L 139.739071 92.113987 
L 139.992962 92.622434 
L 140.246852 92.368199 
L 140.500742 92.368199 
L 140.754632 92.113987 
L 141.008523 91.605518 
L 141.262413 92.876668 
L 141.516303 92.368199 
L 141.770193 93.385115 
L 142.024084 90.588626 
L 142.531864 93.385115 
L 142.785755 92.368199 
L 143.039645 92.368199 
L 143.293535 91.097072 
L 143.547425 92.876668 
L 143.801316 92.113987 
L 144.055206 93.385115 
L 144.562986 92.113987 
L 144.816877 92.622434 
L 145.324657 92.622434 
L 145.578547 92.368199 
L 145.832438 92.876668 
L 146.086328 91.605518 
L 146.340218 92.113987 
L 146.847999 91.605518 
L 147.101889 91.859753 
L 147.609669 91.859753 
L 147.86356 92.622434 
L 148.37134 92.113987 
L 148.62523 91.605518 
L 148.879121 92.368199 
L 149.133011 91.351307 
L 149.386901 92.876668 
L 149.640791 91.859753 
L 149.894682 91.351307 
L 150.148572 91.351307 
L 150.402462 92.368199 
L 150.656352 91.351307 
L 150.910243 92.622434 
L 151.164133 92.113987 
L 151.418023 92.622434 
L 151.671913 92.876668 
L 151.925804 91.351307 
L 152.179694 91.351307 
L 152.433584 91.605518 
L 152.687474 92.368199 
L 152.941365 91.859753 
L 153.195255 91.097072 
L 153.449145 91.605518 
L 153.703035 92.368199 
L 153.956926 91.859753 
L 154.210816 91.859753 
L 154.718596 91.351307 
L 154.972487 91.351307 
L 155.226377 92.113987 
L 155.480267 92.368199 
L 155.734157 92.368199 
L 155.988048 92.113987 
L 156.241938 93.13088 
L 156.495828 92.622434 
L 156.749718 92.622434 
L 157.257499 93.13088 
L 157.511389 91.605518 
L 157.765279 91.605518 
L 158.01917 91.351307 
L 158.27306 92.368199 
L 158.52695 91.859753 
L 158.78084 92.876668 
L 159.034731 91.859753 
L 159.288621 92.368199 
L 159.542511 93.13088 
L 159.796402 93.385115 
L 160.050292 92.113987 
L 160.304182 92.368199 
L 160.558072 92.876668 
L 160.811963 92.876668 
L 161.065853 92.368199 
L 161.319743 93.385115 
L 161.827524 92.876668 
L 162.081414 92.876668 
L 162.335304 92.113987 
L 162.589194 92.113987 
L 162.843085 93.13088 
L 163.096975 92.622434 
L 163.350865 92.368199 
L 163.604755 91.605518 
L 163.858646 92.622434 
L 164.112536 92.622434 
L 164.366426 91.859753 
L 164.620316 92.368199 
L 164.874207 91.859753 
L 165.128097 92.876668 
L 165.381987 93.13088 
L 166.143658 93.13088 
L 166.397548 92.368199 
L 166.651438 93.13088 
L 166.905329 91.859753 
L 167.159219 92.113987 
L 167.413109 93.13088 
L 167.92089 92.622434 
L 168.17478 93.13088 
L 168.42867 92.876668 
L 168.68256 92.368199 
L 168.936451 91.097072 
L 169.190341 91.097072 
L 169.444231 91.859753 
L 169.698121 91.605518 
L 169.952012 91.605518 
L 170.205902 92.368199 
L 170.459792 92.113987 
L 170.713682 92.113987 
L 171.221463 92.622434 
L 171.475353 92.113987 
L 171.729243 91.859753 
L 171.983134 92.876668 
L 172.237024 90.84286 
L 172.490914 92.368199 
L 172.744804 92.368199 
L 172.998695 92.113987 
L 173.252585 92.622434 
L 173.506475 92.368199 
L 173.760365 92.622434 
L 174.014256 92.622434 
L 174.268146 92.876668 
L 174.522036 92.368199 
L 174.775926 92.622434 
L 175.283707 92.113987 
L 175.537597 92.113987 
L 175.791488 92.368199 
L 176.045378 92.368199 
L 176.553158 91.859753 
L 176.807049 92.622434 
L 177.568719 92.622434 
L 177.82261 92.876668 
L 178.58428 92.876668 
L 178.838171 92.622434 
L 179.092061 92.113987 
L 179.345951 92.876668 
L 179.599841 92.622434 
L 179.853732 91.859753 
L 180.361512 91.859753 
L 180.615402 93.13088 
L 180.869293 92.876668 
L 181.123183 93.13088 
L 181.884854 92.368199 
L 182.138744 92.368199 
L 182.392634 92.876668 
L 182.646524 92.876668 
L 182.900415 93.13088 
L 183.154305 93.13088 
L 183.662085 92.113987 
L 183.915976 92.876668 
L 184.169866 93.13088 
L 184.423756 92.622434 
L 184.677646 92.622434 
L 185.185427 91.351307 
L 185.439317 91.859753 
L 185.693207 91.859753 
L 185.947098 92.113987 
L 186.454878 92.113987 
L 186.708768 91.859753 
L 186.962659 92.113987 
L 187.216549 91.605518 
L 187.470439 92.113987 
L 187.724329 91.605518 
L 187.97822 91.605518 
L 188.486 92.113987 
L 188.73989 92.113987 
L 188.993781 92.876668 
L 189.247671 92.368199 
L 189.755451 92.876668 
L 190.009342 92.368199 
L 190.517122 92.876668 
L 190.771012 92.622434 
L 191.024903 92.876668 
L 191.278793 92.622434 
L 191.532683 92.876668 
L 191.786574 92.876668 
L 192.040464 93.13088 
L 192.294354 93.13088 
L 192.548244 92.876668 
L 193.056025 92.876668 
L 193.309915 93.13088 
L 193.817696 92.622434 
L 194.071586 93.13088 
L 194.325476 92.876668 
L 194.833257 92.876668 
L 195.087147 92.622434 
L 195.594927 93.13088 
L 196.610488 93.13088 
L 196.864379 92.876668 
L 197.118269 93.13088 
L 197.372159 93.13088 
L 197.626049 92.876668 
L 197.87994 92.876668 
L 198.13383 92.622434 
L 198.38772 92.876668 
L 198.64161 92.368199 
L 198.895501 92.113987 
L 199.149391 92.368199 
L 199.911062 92.368199 
L 200.164952 92.113987 
L 200.672732 92.113987 
L 200.926623 92.368199 
L 201.688293 92.368199 
L 201.942184 92.622434 
L 202.196074 92.368199 
L 202.449964 92.622434 
L 202.703854 92.368199 
L 202.957745 92.622434 
L 203.211635 92.113987 
L 203.465525 92.622434 
L 204.481086 92.622434 
L 204.734976 92.876668 
L 205.750537 92.876668 
L 206.004428 93.385115 
L 206.258318 92.876668 
L 206.766098 93.385115 
L 207.019989 92.876668 
L 207.527769 92.876668 
L 207.78166 93.13088 
L 208.03555 92.876668 
L 208.28944 93.13088 
L 208.797221 93.13088 
L 209.051111 92.876668 
L 209.812782 92.876668 
L 210.066672 93.13088 
L 210.320562 92.876668 
L 210.574452 92.876668 
L 210.828343 92.622434 
L 212.097794 92.622434 
L 212.351684 92.876668 
L 214.890587 92.876668 
L 215.144477 92.622434 
L 216.921709 92.622434 
L 217.175599 92.876668 
L 217.429489 92.622434 
L 276.332028 92.622434 
L 276.585918 92.876668 
L 278.36315 92.876668 
L 278.61704 92.622434 
L 279.124821 92.622434 
L 279.378711 92.876668 
L 279.632601 92.876668 
L 279.886492 92.622434 
L 310.099432 92.622434 
L 310.099432 92.622434 
" clip-path="url(#pc57a06d1ae)" style="fill: none; stroke: #ff0000; stroke-width: 0.6; stroke-linecap: square"/>
   </g>
   <g id="patch_3">
    <path d="M 43.78125 239.76 
L 43.78125 37.296 
" style="fill: none; stroke: #000000; stroke-width: 0.8; stroke-linejoin: miter; stroke-linecap: square"/>
   </g>
   <g id="patch_4">
    <path d="M 322.78125 239.76 
L 322.78125 37.296 
" style="fill: none; stroke: #000000; stroke-width: 0.8; stroke-linejoin: miter; stroke-linecap: square"/>
   </g>
   <g id="patch_5">
    <path d="M 43.78125 239.76 
L 322.78125 239.76 
" style="fill: none; stroke: #000000; stroke-width: 0.8; stroke-linejoin: miter; stroke-linecap: square"/>
   </g>
   <g id="patch_6">
    <path d="M 43.78125 37.296 
L 322.78125 37.296 
" style="fill: none; stroke: #000000; stroke-width: 0.8; stroke-linejoin: miter; stroke-linecap: square"/>
   </g>
   <g id="text_15">
    <!-- Baseline Model -->
    <g transform="translate(149.259844 31.296) scale(0.09 -0.09)">
     <defs>
      <path id="DejaVuSans-42" d="M 1259 2228 
L 1259 519 
L 2272 519 
Q 2781 519 3026 730 
Q 3272 941 3272 1375 
Q 3272 1813 3026 2020 
Q 2781 2228 2272 2228 
L 1259 2228 
z
M 1259 4147 
L 1259 2741 
L 2194 2741 
Q 2656 2741 2882 2914 
Q 3109 3088 3109 3444 
Q 3109 3797 2882 3972 
Q 2656 4147 2194 4147 
L 1259 4147 
z
M 628 4666 
L 2241 4666 
Q 2963 4666 3353 4366 
Q 3744 4066 3744 3513 
Q 3744 3084 3544 2831 
Q 3344 2578 2956 2516 
Q 3422 2416 3680 2098 
Q 3938 1781 3938 1306 
Q 3938 681 3513 340 
Q 3088 0 2303 0 
L 628 0 
L 628 4666 
z
" transform="scale(0.015625)"/>
      <path id="DejaVuSans-65" d="M 3597 1894 
L 3597 1613 
L 953 1613 
Q 991 1019 1311 708 
Q 1631 397 2203 397 
Q 2534 397 2845 478 
Q 3156 559 3463 722 
L 3463 178 
Q 3153 47 2828 -22 
Q 2503 -91 2169 -91 
Q 1331 -91 842 396 
Q 353 884 353 1716 
Q 353 2575 817 3079 
Q 1281 3584 2069 3584 
Q 2775 3584 3186 3129 
Q 3597 2675 3597 1894 
z
M 3022 2063 
Q 3016 2534 2758 2815 
Q 2500 3097 2075 3097 
Q 1594 3097 1305 2825 
Q 1016 2553 972 2059 
L 3022 2063 
z
" transform="scale(0.015625)"/>
      <path id="DejaVuSans-6c" d="M 603 4863 
L 1178 4863 
L 1178 0 
L 603 0 
L 603 4863 
z
" transform="scale(0.015625)"/>
      <path id="DejaVuSans-69" d="M 603 3500 
L 1178 3500 
L 1178 0 
L 603 0 
L 603 3500 
z
M 603 4863 
L 1178 4863 
L 1178 4134 
L 603 4134 
L 603 4863 
z
" transform="scale(0.015625)"/>
      <path id="DejaVuSans-6e" d="M 3513 2113 
L 3513 0 
L 2938 0 
L 2938 2094 
Q 2938 2591 2744 2837 
Q 2550 3084 2163 3084 
Q 1697 3084 1428 2787 
Q 1159 2491 1159 1978 
L 1159 0 
L 581 0 
L 581 3500 
L 1159 3500 
L 1159 2956 
Q 1366 3272 1645 3428 
Q 1925 3584 2291 3584 
Q 2894 3584 3203 3211 
Q 3513 2838 3513 2113 
z
" transform="scale(0.015625)"/>
      <path id="DejaVuSans-20" transform="scale(0.015625)"/>
      <path id="DejaVuSans-4d" d="M 628 4666 
L 1569 4666 
L 2759 1491 
L 3956 4666 
L 4897 4666 
L 4897 0 
L 4281 0 
L 4281 4097 
L 3078 897 
L 2444 897 
L 1241 4097 
L 1241 0 
L 628 0 
L 628 4666 
z
" transform="scale(0.015625)"/>
      <path id="DejaVuSans-64" d="M 2906 2969 
L 2906 4863 
L 3481 4863 
L 3481 0 
L 2906 0 
L 2906 525 
Q 2725 213 2448 61 
Q 2172 -91 1784 -91 
Q 1150 -91 751 415 
Q 353 922 353 1747 
Q 353 2572 751 3078 
Q 1150 3584 1784 3584 
Q 2172 3584 2448 3432 
Q 2725 3281 2906 2969 
z
M 947 1747 
Q 947 1113 1208 752 
Q 1469 391 1925 391 
Q 2381 391 2643 752 
Q 2906 1113 2906 1747 
Q 2906 2381 2643 2742 
Q 2381 3103 1925 3103 
Q 1469 3103 1208 2742 
Q 947 2381 947 1747 
z
" transform="scale(0.015625)"/>
     </defs>
     <use xlink:href="#DejaVuSans-42"/>
     <use xlink:href="#DejaVuSans-61" x="68.603516"/>
     <use xlink:href="#DejaVuSans-73" x="129.882812"/>
     <use xlink:href="#DejaVuSans-65" x="181.982422"/>
     <use xlink:href="#DejaVuSans-6c" x="243.505859"/>
     <use xlink:href="#DejaVuSans-69" x="271.289062"/>
     <use xlink:href="#DejaVuSans-6e" x="299.072266"/>
     <use xlink:href="#DejaVuSans-65" x="362.451172"/>
     <use xlink:href="#DejaVuSans-20" x="423.974609"/>
     <use xlink:href="#DejaVuSans-4d" x="455.761719"/>
     <use xlink:href="#DejaVuSans-6f" x="542.041016"/>
     <use xlink:href="#DejaVuSans-64" x="603.222656"/>
     <use xlink:href="#DejaVuSans-65" x="666.699219"/>
     <use xlink:href="#DejaVuSans-6c" x="728.222656"/>
    </g>
   </g>
   <g id="legend_1">
    <g id="patch_7">
     <path d="M 185.565625 234.76 
L 315.78125 234.76 
Q 317.78125 234.76 317.78125 232.76 
L 317.78125 204.40375 
Q 317.78125 202.40375 315.78125 202.40375 
L 185.565625 202.40375 
Q 183.565625 202.40375 183.565625 204.40375 
L 183.565625 232.76 
Q 183.565625 234.76 185.565625 234.76 
z
" style="fill: #ffffff; opacity: 0.8; stroke: #cccccc; stroke-linejoin: miter"/>
    </g>
    <g id="line2d_27">
     <path d="M 187.565625 210.502187 
L 197.565625 210.502187 
L 207.565625 210.502187 
" style="fill: none; stroke: #0000ff; stroke-width: 0.6; stroke-linecap: square"/>
    </g>
    <g id="text_16">
     <!-- Training Accuracy -->
     <g transform="translate(215.565625 214.002187) scale(0.1 -0.1)">
      <defs>
       <path id="DejaVuSans-54" d="M -19 4666 
L 3928 4666 
L 3928 4134 
L 2272 4134 
L 2272 0 
L 1638 0 
L 1638 4134 
L -19 4134 
L -19 4666 
z
" transform="scale(0.015625)"/>
       <path id="DejaVuSans-67" d="M 2906 1791 
Q 2906 2416 2648 2759 
Q 2391 3103 1925 3103 
Q 1463 3103 1205 2759 
Q 947 2416 947 1791 
Q 947 1169 1205 825 
Q 1463 481 1925 481 
Q 2391 481 2648 825 
Q 2906 1169 2906 1791 
z
M 3481 434 
Q 3481 -459 3084 -895 
Q 2688 -1331 1869 -1331 
Q 1566 -1331 1297 -1286 
Q 1028 -1241 775 -1147 
L 775 -588 
Q 1028 -725 1275 -790 
Q 1522 -856 1778 -856 
Q 2344 -856 2625 -561 
Q 2906 -266 2906 331 
L 2906 616 
Q 2728 306 2450 153 
Q 2172 0 1784 0 
Q 1141 0 747 490 
Q 353 981 353 1791 
Q 353 2603 747 3093 
Q 1141 3584 1784 3584 
Q 2172 3584 2450 3431 
Q 2728 3278 2906 2969 
L 2906 3500 
L 3481 3500 
L 3481 434 
z
" transform="scale(0.015625)"/>
      </defs>
      <use xlink:href="#DejaVuSans-54"/>
      <use xlink:href="#DejaVuSans-72" x="46.333984"/>
      <use xlink:href="#DejaVuSans-61" x="87.447266"/>
      <use xlink:href="#DejaVuSans-69" x="148.726562"/>
      <use xlink:href="#DejaVuSans-6e" x="176.509766"/>
      <use xlink:href="#DejaVuSans-69" x="239.888672"/>
      <use xlink:href="#DejaVuSans-6e" x="267.671875"/>
      <use xlink:href="#DejaVuSans-67" x="331.050781"/>
      <use xlink:href="#DejaVuSans-20" x="394.527344"/>
      <use xlink:href="#DejaVuSans-41" x="426.314453"/>
      <use xlink:href="#DejaVuSans-63" x="492.972656"/>
      <use xlink:href="#DejaVuSans-63" x="547.953125"/>
      <use xlink:href="#DejaVuSans-75" x="602.933594"/>
      <use xlink:href="#DejaVuSans-72" x="666.3125"/>
      <use xlink:href="#DejaVuSans-61" x="707.425781"/>
      <use xlink:href="#DejaVuSans-63" x="768.705078"/>
      <use xlink:href="#DejaVuSans-79" x="823.685547"/>
     </g>
    </g>
    <g id="line2d_28">
     <path d="M 187.565625 225.180312 
L 197.565625 225.180312 
L 207.565625 225.180312 
" style="fill: none; stroke: #ff0000; stroke-width: 0.6; stroke-linecap: square"/>
    </g>
    <g id="text_17">
     <!-- Validation Accuracy -->
     <g transform="translate(215.565625 228.680312) scale(0.1 -0.1)">
      <defs>
       <path id="DejaVuSans-56" d="M 1831 0 
L 50 4666 
L 709 4666 
L 2188 738 
L 3669 4666 
L 4325 4666 
L 2547 0 
L 1831 0 
z
" transform="scale(0.015625)"/>
       <path id="DejaVuSans-74" d="M 1172 4494 
L 1172 3500 
L 2356 3500 
L 2356 3053 
L 1172 3053 
L 1172 1153 
Q 1172 725 1289 603 
Q 1406 481 1766 481 
L 2356 481 
L 2356 0 
L 1766 0 
Q 1100 0 847 248 
Q 594 497 594 1153 
L 594 3053 
L 172 3053 
L 172 3500 
L 594 3500 
L 594 4494 
L 1172 4494 
z
" transform="scale(0.015625)"/>
      </defs>
      <use xlink:href="#DejaVuSans-56"/>
      <use xlink:href="#DejaVuSans-61" x="60.658203"/>
      <use xlink:href="#DejaVuSans-6c" x="121.9375"/>
      <use xlink:href="#DejaVuSans-69" x="149.720703"/>
      <use xlink:href="#DejaVuSans-64" x="177.503906"/>
      <use xlink:href="#DejaVuSans-61" x="240.980469"/>
      <use xlink:href="#DejaVuSans-74" x="302.259766"/>
      <use xlink:href="#DejaVuSans-69" x="341.46875"/>
      <use xlink:href="#DejaVuSans-6f" x="369.251953"/>
      <use xlink:href="#DejaVuSans-6e" x="430.433594"/>
      <use xlink:href="#DejaVuSans-20" x="493.8125"/>
      <use xlink:href="#DejaVuSans-41" x="525.599609"/>
      <use xlink:href="#DejaVuSans-63" x="592.257812"/>
      <use xlink:href="#DejaVuSans-63" x="647.238281"/>
      <use xlink:href="#DejaVuSans-75" x="702.21875"/>
      <use xlink:href="#DejaVuSans-72" x="765.597656"/>
      <use xlink:href="#DejaVuSans-61" x="806.710938"/>
      <use xlink:href="#DejaVuSans-63" x="867.990234"/>
      <use xlink:href="#DejaVuSans-79" x="922.970703"/>
     </g>
    </g>
   </g>
  </g>
  <g id="text_18">
   <!-- Training VS. Validation Accuracy - Dataset Size = 100.0% -->
   <g transform="translate(21.433984 15.558281) scale(0.11 -0.11)">
    <defs>
     <path id="DejaVuSans-53" d="M 3425 4513 
L 3425 3897 
Q 3066 4069 2747 4153 
Q 2428 4238 2131 4238 
Q 1616 4238 1336 4038 
Q 1056 3838 1056 3469 
Q 1056 3159 1242 3001 
Q 1428 2844 1947 2747 
L 2328 2669 
Q 3034 2534 3370 2195 
Q 3706 1856 3706 1288 
Q 3706 609 3251 259 
Q 2797 -91 1919 -91 
Q 1588 -91 1214 -16 
Q 841 59 441 206 
L 441 856 
Q 825 641 1194 531 
Q 1563 422 1919 422 
Q 2459 422 2753 634 
Q 3047 847 3047 1241 
Q 3047 1584 2836 1778 
Q 2625 1972 2144 2069 
L 1759 2144 
Q 1053 2284 737 2584 
Q 422 2884 422 3419 
Q 422 4038 858 4394 
Q 1294 4750 2059 4750 
Q 2388 4750 2728 4690 
Q 3069 4631 3425 4513 
z
" transform="scale(0.015625)"/>
     <path id="DejaVuSans-2d" d="M 313 2009 
L 1997 2009 
L 1997 1497 
L 313 1497 
L 313 2009 
z
" transform="scale(0.015625)"/>
     <path id="DejaVuSans-44" d="M 1259 4147 
L 1259 519 
L 2022 519 
Q 2988 519 3436 956 
Q 3884 1394 3884 2338 
Q 3884 3275 3436 3711 
Q 2988 4147 2022 4147 
L 1259 4147 
z
M 628 4666 
L 1925 4666 
Q 3281 4666 3915 4102 
Q 4550 3538 4550 2338 
Q 4550 1131 3912 565 
Q 3275 0 1925 0 
L 628 0 
L 628 4666 
z
" transform="scale(0.015625)"/>
     <path id="DejaVuSans-7a" d="M 353 3500 
L 3084 3500 
L 3084 2975 
L 922 459 
L 3084 459 
L 3084 0 
L 275 0 
L 275 525 
L 2438 3041 
L 353 3041 
L 353 3500 
z
" transform="scale(0.015625)"/>
     <path id="DejaVuSans-3d" d="M 678 2906 
L 4684 2906 
L 4684 2381 
L 678 2381 
L 678 2906 
z
M 678 1631 
L 4684 1631 
L 4684 1100 
L 678 1100 
L 678 1631 
z
" transform="scale(0.015625)"/>
     <path id="DejaVuSans-25" d="M 4653 2053 
Q 4381 2053 4226 1822 
Q 4072 1591 4072 1178 
Q 4072 772 4226 539 
Q 4381 306 4653 306 
Q 4919 306 5073 539 
Q 5228 772 5228 1178 
Q 5228 1588 5073 1820 
Q 4919 2053 4653 2053 
z
M 4653 2450 
Q 5147 2450 5437 2106 
Q 5728 1763 5728 1178 
Q 5728 594 5436 251 
Q 5144 -91 4653 -91 
Q 4153 -91 3862 251 
Q 3572 594 3572 1178 
Q 3572 1766 3864 2108 
Q 4156 2450 4653 2450 
z
M 1428 4353 
Q 1159 4353 1004 4120 
Q 850 3888 850 3481 
Q 850 3069 1003 2837 
Q 1156 2606 1428 2606 
Q 1700 2606 1854 2837 
Q 2009 3069 2009 3481 
Q 2009 3884 1853 4118 
Q 1697 4353 1428 4353 
z
M 4250 4750 
L 4750 4750 
L 1831 -91 
L 1331 -91 
L 4250 4750 
z
M 1428 4750 
Q 1922 4750 2215 4408 
Q 2509 4066 2509 3481 
Q 2509 2891 2217 2550 
Q 1925 2209 1428 2209 
Q 931 2209 642 2551 
Q 353 2894 353 3481 
Q 353 4063 643 4406 
Q 934 4750 1428 4750 
z
" transform="scale(0.015625)"/>
    </defs>
    <use xlink:href="#DejaVuSans-54"/>
    <use xlink:href="#DejaVuSans-72" x="46.333984"/>
    <use xlink:href="#DejaVuSans-61" x="87.447266"/>
    <use xlink:href="#DejaVuSans-69" x="148.726562"/>
    <use xlink:href="#DejaVuSans-6e" x="176.509766"/>
    <use xlink:href="#DejaVuSans-69" x="239.888672"/>
    <use xlink:href="#DejaVuSans-6e" x="267.671875"/>
    <use xlink:href="#DejaVuSans-67" x="331.050781"/>
    <use xlink:href="#DejaVuSans-20" x="394.527344"/>
    <use xlink:href="#DejaVuSans-56" x="426.314453"/>
    <use xlink:href="#DejaVuSans-53" x="494.722656"/>
    <use xlink:href="#DejaVuSans-2e" x="558.199219"/>
    <use xlink:href="#DejaVuSans-20" x="589.986328"/>
    <use xlink:href="#DejaVuSans-56" x="621.773438"/>
    <use xlink:href="#DejaVuSans-61" x="682.431641"/>
    <use xlink:href="#DejaVuSans-6c" x="743.710938"/>
    <use xlink:href="#DejaVuSans-69" x="771.494141"/>
    <use xlink:href="#DejaVuSans-64" x="799.277344"/>
    <use xlink:href="#DejaVuSans-61" x="862.753906"/>
    <use xlink:href="#DejaVuSans-74" x="924.033203"/>
    <use xlink:href="#DejaVuSans-69" x="963.242188"/>
    <use xlink:href="#DejaVuSans-6f" x="991.025391"/>
    <use xlink:href="#DejaVuSans-6e" x="1052.207031"/>
    <use xlink:href="#DejaVuSans-20" x="1115.585938"/>
    <use xlink:href="#DejaVuSans-41" x="1147.373047"/>
    <use xlink:href="#DejaVuSans-63" x="1214.03125"/>
    <use xlink:href="#DejaVuSans-63" x="1269.011719"/>
    <use xlink:href="#DejaVuSans-75" x="1323.992188"/>
    <use xlink:href="#DejaVuSans-72" x="1387.371094"/>
    <use xlink:href="#DejaVuSans-61" x="1428.484375"/>
    <use xlink:href="#DejaVuSans-63" x="1489.763672"/>
    <use xlink:href="#DejaVuSans-79" x="1544.744141"/>
    <use xlink:href="#DejaVuSans-20" x="1603.923828"/>
    <use xlink:href="#DejaVuSans-2d" x="1635.710938"/>
    <use xlink:href="#DejaVuSans-20" x="1671.794922"/>
    <use xlink:href="#DejaVuSans-44" x="1703.582031"/>
    <use xlink:href="#DejaVuSans-61" x="1780.583984"/>
    <use xlink:href="#DejaVuSans-74" x="1841.863281"/>
    <use xlink:href="#DejaVuSans-61" x="1881.072266"/>
    <use xlink:href="#DejaVuSans-73" x="1942.351562"/>
    <use xlink:href="#DejaVuSans-65" x="1994.451172"/>
    <use xlink:href="#DejaVuSans-74" x="2055.974609"/>
    <use xlink:href="#DejaVuSans-20" x="2095.183594"/>
    <use xlink:href="#DejaVuSans-53" x="2126.970703"/>
    <use xlink:href="#DejaVuSans-69" x="2190.447266"/>
    <use xlink:href="#DejaVuSans-7a" x="2218.230469"/>
    <use xlink:href="#DejaVuSans-65" x="2270.720703"/>
    <use xlink:href="#DejaVuSans-20" x="2332.244141"/>
    <use xlink:href="#DejaVuSans-3d" x="2364.03125"/>
    <use xlink:href="#DejaVuSans-20" x="2447.820312"/>
    <use xlink:href="#DejaVuSans-31" x="2479.607422"/>
    <use xlink:href="#DejaVuSans-30" x="2543.230469"/>
    <use xlink:href="#DejaVuSans-30" x="2606.853516"/>
    <use xlink:href="#DejaVuSans-2e" x="2670.476562"/>
    <use xlink:href="#DejaVuSans-30" x="2702.263672"/>
    <use xlink:href="#DejaVuSans-25" x="2765.886719"/>
   </g>
  </g>
 </g>
 <defs>
  <clipPath id="pc57a06d1ae">
   <rect x="43.78125" y="37.296" width="279" height="202.464"/>
  </clipPath>
 </defs>
</svg>
