<?xml version="1.0" encoding="utf-8" standalone="no"?>
<!DOCTYPE svg PUBLIC "-//W3C//DTD SVG 1.1//EN"
  "http://www.w3.org/Graphics/SVG/1.1/DTD/svg11.dtd">
<svg xmlns:xlink="http://www.w3.org/1999/xlink" width="343.328516pt" height="277.31625pt" viewBox="0 0 343.328516 277.31625" xmlns="http://www.w3.org/2000/svg" version="1.1">
 <metadata>
  <rdf:RDF xmlns:dc="http://purl.org/dc/elements/1.1/" xmlns:cc="http://creativecommons.org/ns#" xmlns:rdf="http://www.w3.org/1999/02/22-rdf-syntax-ns#">
   <cc:Work>
    <dc:type rdf:resource="http://purl.org/dc/dcmitype/StillImage"/>
    <dc:date>2026-06-11T10:37:41.083997</dc:date>
    <dc:format>image/svg+xml</dc:format>
    <dc:creator>
     <cc:Agent>
      <dc:title>Matplotlib v3.8.4, https://matplotlib.org/</dc:title>
     </cc:Agent>
    </dc:creator>
   </cc:Work>
  </rdf:RDF>
 </metadata>
 <defs>
  <style type="text/css">*{stroke-linejoin: round; stroke-linecap: butt}</style>
 </defs>
 <g id="figure_1">
  <g id="patch_1">
   <path d="M 0 277.31625 
L 343.328516 277.31625 
L 343.328516 0 
L 0 0 
z
" style="fill: #ffffff"/>
  </g>
  <g id="axes_1">
   <g id="patch_2">
    <path d="M 43.78125 239.76 
L 322.78125 239.76 
L 322.78125 37.296 
L 43.78125 37.296 
z
" style="fill: #ffffff"/>
   </g>
   <g id="matplotlib.axis_1">
    <g id="xtick_1">
     <g id="line2d_1">
      <path d="M 56.209178 239.76 
L 56.209178 37.296 
" clip-path="url(#pa956113e6a)" style="fill: none; stroke-dasharray: 2.96,1.28; stroke-dashoffset: 0; stroke: #b0b0b0; stroke-opacity: 0.4; stroke-width: 0.8"/>
     </g>
     <g id="line2d_2">
      <defs>
       <path id="m10c4fa01b2" d="M 0 0 
L 0 3.5 
" style="stroke: #000000; stroke-width: 0.8"/>
      </defs>
      <g>
       <use xlink:href="#m10c4fa01b2" x="56.209178" y="239.76" style="stroke: #000000; stroke-width: 0.8"/>
      </g>
     </g>
     <g id="text_1">
      <!-- 0 -->
      <g transform="translate(53.027928 254.358437) scale(0.1 -0.1)">
       <defs>
        <path id="DejaVuSans-30" d="M 2034 4250 
Q 1547 4250 1301 3770 
Q 1056 3291 1056 2328 
Q 1056 1369 1301 889 
Q 1547 409 2034 409 
Q 2525 409 2770 889 
Q 3016 1369 3016 2328 
Q 3016 3291 2770 3770 
Q 2525 4250 2034 4250 
z
M 2034 4750 
Q 2819 4750 3233 4129 
Q 3647 3509 3647 2328 
Q 3647 1150 3233 529 
Q 2819 -91 2034 -91 
Q 1250 -91 836 529 
Q 422 1150 422 2328 
Q 422 3509 836 4129 
Q 1250 4750 2034 4750 
z
" transform="scale(0.015625)"/>
       </defs>
       <use xlink:href="#DejaVuSans-30"/>
      </g>
     </g>
    </g>
    <g id="xtick_2">
     <g id="line2d_3">
      <path d="M 106.987229 239.76 
L 106.987229 37.296 
" clip-path="url(#pa956113e6a)" style="fill: none; stroke-dasharray: 2.96,1.28; stroke-dashoffset: 0; stroke: #b0b0b0; stroke-opacity: 0.4; stroke-width: 0.8"/>
     </g>
     <g id="line2d_4">
      <g>
       <use xlink:href="#m10c4fa01b2" x="106.987229" y="239.76" style="stroke: #000000; stroke-width: 0.8"/>
      </g>
     </g>
     <g id="text_2">
      <!-- 200 -->
      <g transform="translate(97.443479 254.358437) scale(0.1 -0.1)">
       <defs>
        <path id="DejaVuSans-32" d="M 1228 531 
L 3431 531 
L 3431 0 
L 469 0 
L 469 531 
Q 828 903 1448 1529 
Q 2069 2156 2228 2338 
Q 2531 2678 2651 2914 
Q 2772 3150 2772 3378 
Q 2772 3750 2511 3984 
Q 2250 4219 1831 4219 
Q 1534 4219 1204 4116 
Q 875 4013 500 3803 
L 500 4441 
Q 881 4594 1212 4672 
Q 1544 4750 1819 4750 
Q 2544 4750 2975 4387 
Q 3406 4025 3406 3419 
Q 3406 3131 3298 2873 
Q 3191 2616 2906 2266 
Q 2828 2175 2409 1742 
Q 1991 1309 1228 531 
z
" transform="scale(0.015625)"/>
       </defs>
       <use xlink:href="#DejaVuSans-32"/>
       <use xlink:href="#DejaVuSans-30" x="63.623047"/>
       <use xlink:href="#DejaVuSans-30" x="127.246094"/>
      </g>
     </g>
    </g>
    <g id="xtick_3">
     <g id="line2d_5">
      <path d="M 157.765279 239.76 
L 157.765279 37.296 
" clip-path="url(#pa956113e6a)" style="fill: none; stroke-dasharray: 2.96,1.28; stroke-dashoffset: 0; stroke: #b0b0b0; stroke-opacity: 0.4; stroke-width: 0.8"/>
     </g>
     <g id="line2d_6">
      <g>
       <use xlink:href="#m10c4fa01b2" x="157.765279" y="239.76" style="stroke: #000000; stroke-width: 0.8"/>
      </g>
     </g>
     <g id="text_3">
      <!-- 400 -->
      <g transform="translate(148.221529 254.358437) scale(0.1 -0.1)">
       <defs>
        <path id="DejaVuSans-34" d="M 2419 4116 
L 825 1625 
L 2419 1625 
L 2419 4116 
z
M 2253 4666 
L 3047 4666 
L 3047 1625 
L 3713 1625 
L 3713 1100 
L 3047 1100 
L 3047 0 
L 2419 0 
L 2419 1100 
L 313 1100 
L 313 1709 
L 2253 4666 
z
" transform="scale(0.015625)"/>
       </defs>
       <use xlink:href="#DejaVuSans-34"/>
       <use xlink:href="#DejaVuSans-30" x="63.623047"/>
       <use xlink:href="#DejaVuSans-30" x="127.246094"/>
      </g>
     </g>
    </g>
    <g id="xtick_4">
     <g id="line2d_7">
      <path d="M 208.54333 239.76 
L 208.54333 37.296 
" clip-path="url(#pa956113e6a)" style="fill: none; stroke-dasharray: 2.96,1.28; stroke-dashoffset: 0; stroke: #b0b0b0; stroke-opacity: 0.4; stroke-width: 0.8"/>
     </g>
     <g id="line2d_8">
      <g>
       <use xlink:href="#m10c4fa01b2" x="208.54333" y="239.76" style="stroke: #000000; stroke-width: 0.8"/>
      </g>
     </g>
     <g id="text_4">
      <!-- 600 -->
      <g transform="translate(198.99958 254.358437) scale(0.1 -0.1)">
       <defs>
        <path id="DejaVuSans-36" d="M 2113 2584 
Q 1688 2584 1439 2293 
Q 1191 2003 1191 1497 
Q 1191 994 1439 701 
Q 1688 409 2113 409 
Q 2538 409 2786 701 
Q 3034 994 3034 1497 
Q 3034 2003 2786 2293 
Q 2538 2584 2113 2584 
z
M 3366 4563 
L 3366 3988 
Q 3128 4100 2886 4159 
Q 2644 4219 2406 4219 
Q 1781 4219 1451 3797 
Q 1122 3375 1075 2522 
Q 1259 2794 1537 2939 
Q 1816 3084 2150 3084 
Q 2853 3084 3261 2657 
Q 3669 2231 3669 1497 
Q 3669 778 3244 343 
Q 2819 -91 2113 -91 
Q 1303 -91 875 529 
Q 447 1150 447 2328 
Q 447 3434 972 4092 
Q 1497 4750 2381 4750 
Q 2619 4750 2861 4703 
Q 3103 4656 3366 4563 
z
" transform="scale(0.015625)"/>
       </defs>
       <use xlink:href="#DejaVuSans-36"/>
       <use xlink:href="#DejaVuSans-30" x="63.623047"/>
       <use xlink:href="#DejaVuSans-30" x="127.246094"/>
      </g>
     </g>
    </g>
    <g id="xtick_5">
     <g id="line2d_9">
      <path d="M 259.321381 239.76 
L 259.321381 37.296 
" clip-path="url(#pa956113e6a)" style="fill: none; stroke-dasharray: 2.96,1.28; stroke-dashoffset: 0; stroke: #b0b0b0; stroke-opacity: 0.4; stroke-width: 0.8"/>
     </g>
     <g id="line2d_10">
      <g>
       <use xlink:href="#m10c4fa01b2" x="259.321381" y="239.76" style="stroke: #000000; stroke-width: 0.8"/>
      </g>
     </g>
     <g id="text_5">
      <!-- 800 -->
      <g transform="translate(249.777631 254.358437) scale(0.1 -0.1)">
       <defs>
        <path id="DejaVuSans-38" d="M 2034 2216 
Q 1584 2216 1326 1975 
Q 1069 1734 1069 1313 
Q 1069 891 1326 650 
Q 1584 409 2034 409 
Q 2484 409 2743 651 
Q 3003 894 3003 1313 
Q 3003 1734 2745 1975 
Q 2488 2216 2034 2216 
z
M 1403 2484 
Q 997 2584 770 2862 
Q 544 3141 544 3541 
Q 544 4100 942 4425 
Q 1341 4750 2034 4750 
Q 2731 4750 3128 4425 
Q 3525 4100 3525 3541 
Q 3525 3141 3298 2862 
Q 3072 2584 2669 2484 
Q 3125 2378 3379 2068 
Q 3634 1759 3634 1313 
Q 3634 634 3220 271 
Q 2806 -91 2034 -91 
Q 1263 -91 848 271 
Q 434 634 434 1313 
Q 434 1759 690 2068 
Q 947 2378 1403 2484 
z
M 1172 3481 
Q 1172 3119 1398 2916 
Q 1625 2713 2034 2713 
Q 2441 2713 2670 2916 
Q 2900 3119 2900 3481 
Q 2900 3844 2670 4047 
Q 2441 4250 2034 4250 
Q 1625 4250 1398 4047 
Q 1172 3844 1172 3481 
z
" transform="scale(0.015625)"/>
       </defs>
       <use xlink:href="#DejaVuSans-38"/>
       <use xlink:href="#DejaVuSans-30" x="63.623047"/>
       <use xlink:href="#DejaVuSans-30" x="127.246094"/>
      </g>
     </g>
    </g>
    <g id="xtick_6">
     <g id="line2d_11">
      <path d="M 310.099432 239.76 
L 310.099432 37.296 
" clip-path="url(#pa956113e6a)" style="fill: none; stroke-dasharray: 2.96,1.28; stroke-dashoffset: 0; stroke: #b0b0b0; stroke-opacity: 0.4; stroke-width: 0.8"/>
     </g>
     <g id="line2d_12">
      <g>
       <use xlink:href="#m10c4fa01b2" x="310.099432" y="239.76" style="stroke: #000000; stroke-width: 0.8"/>
      </g>
     </g>
     <g id="text_6">
      <!-- 1000 -->
      <g transform="translate(297.374432 254.358437) scale(0.1 -0.1)">
       <defs>
        <path id="DejaVuSans-31" d="M 794 531 
L 1825 531 
L 1825 4091 
L 703 3866 
L 703 4441 
L 1819 4666 
L 2450 4666 
L 2450 531 
L 3481 531 
L 3481 0 
L 794 0 
L 794 531 
z
" transform="scale(0.015625)"/>
       </defs>
       <use xlink:href="#DejaVuSans-31"/>
       <use xlink:href="#DejaVuSans-30" x="63.623047"/>
       <use xlink:href="#DejaVuSans-30" x="127.246094"/>
       <use xlink:href="#DejaVuSans-30" x="190.869141"/>
      </g>
     </g>
    </g>
    <g id="text_7">
     <!-- Epochs -->
     <g transform="translate(165.365625 268.036562) scale(0.1 -0.1)">
      <defs>
       <path id="DejaVuSans-45" d="M 628 4666 
L 3578 4666 
L 3578 4134 
L 1259 4134 
L 1259 2753 
L 3481 2753 
L 3481 2222 
L 1259 2222 
L 1259 531 
L 3634 531 
L 3634 0 
L 628 0 
L 628 4666 
z
" transform="scale(0.015625)"/>
       <path id="DejaVuSans-70" d="M 1159 525 
L 1159 -1331 
L 581 -1331 
L 581 3500 
L 1159 3500 
L 1159 2969 
Q 1341 3281 1617 3432 
Q 1894 3584 2278 3584 
Q 2916 3584 3314 3078 
Q 3713 2572 3713 1747 
Q 3713 922 3314 415 
Q 2916 -91 2278 -91 
Q 1894 -91 1617 61 
Q 1341 213 1159 525 
z
M 3116 1747 
Q 3116 2381 2855 2742 
Q 2594 3103 2138 3103 
Q 1681 3103 1420 2742 
Q 1159 2381 1159 1747 
Q 1159 1113 1420 752 
Q 1681 391 2138 391 
Q 2594 391 2855 752 
Q 3116 1113 3116 1747 
z
" transform="scale(0.015625)"/>
       <path id="DejaVuSans-6f" d="M 1959 3097 
Q 1497 3097 1228 2736 
Q 959 2375 959 1747 
Q 959 1119 1226 758 
Q 1494 397 1959 397 
Q 2419 397 2687 759 
Q 2956 1122 2956 1747 
Q 2956 2369 2687 2733 
Q 2419 3097 1959 3097 
z
M 1959 3584 
Q 2709 3584 3137 3096 
Q 3566 2609 3566 1747 
Q 3566 888 3137 398 
Q 2709 -91 1959 -91 
Q 1206 -91 779 398 
Q 353 888 353 1747 
Q 353 2609 779 3096 
Q 1206 3584 1959 3584 
z
" transform="scale(0.015625)"/>
       <path id="DejaVuSans-63" d="M 3122 3366 
L 3122 2828 
Q 2878 2963 2633 3030 
Q 2388 3097 2138 3097 
Q 1578 3097 1268 2742 
Q 959 2388 959 1747 
Q 959 1106 1268 751 
Q 1578 397 2138 397 
Q 2388 397 2633 464 
Q 2878 531 3122 666 
L 3122 134 
Q 2881 22 2623 -34 
Q 2366 -91 2075 -91 
Q 1284 -91 818 406 
Q 353 903 353 1747 
Q 353 2603 823 3093 
Q 1294 3584 2113 3584 
Q 2378 3584 2631 3529 
Q 2884 3475 3122 3366 
z
" transform="scale(0.015625)"/>
       <path id="DejaVuSans-68" d="M 3513 2113 
L 3513 0 
L 2938 0 
L 2938 2094 
Q 2938 2591 2744 2837 
Q 2550 3084 2163 3084 
Q 1697 3084 1428 2787 
Q 1159 2491 1159 1978 
L 1159 0 
L 581 0 
L 581 4863 
L 1159 4863 
L 1159 2956 
Q 1366 3272 1645 3428 
Q 1925 3584 2291 3584 
Q 2894 3584 3203 3211 
Q 3513 2838 3513 2113 
z
" transform="scale(0.015625)"/>
       <path id="DejaVuSans-73" d="M 2834 3397 
L 2834 2853 
Q 2591 2978 2328 3040 
Q 2066 3103 1784 3103 
Q 1356 3103 1142 2972 
Q 928 2841 928 2578 
Q 928 2378 1081 2264 
Q 1234 2150 1697 2047 
L 1894 2003 
Q 2506 1872 2764 1633 
Q 3022 1394 3022 966 
Q 3022 478 2636 193 
Q 2250 -91 1575 -91 
Q 1294 -91 989 -36 
Q 684 19 347 128 
L 347 722 
Q 666 556 975 473 
Q 1284 391 1588 391 
Q 1994 391 2212 530 
Q 2431 669 2431 922 
Q 2431 1156 2273 1281 
Q 2116 1406 1581 1522 
L 1381 1569 
Q 847 1681 609 1914 
Q 372 2147 372 2553 
Q 372 3047 722 3315 
Q 1072 3584 1716 3584 
Q 2034 3584 2315 3537 
Q 2597 3491 2834 3397 
z
" transform="scale(0.015625)"/>
      </defs>
      <use xlink:href="#DejaVuSans-45"/>
      <use xlink:href="#DejaVuSans-70" x="63.183594"/>
      <use xlink:href="#DejaVuSans-6f" x="126.660156"/>
      <use xlink:href="#DejaVuSans-63" x="187.841797"/>
      <use xlink:href="#DejaVuSans-68" x="242.822266"/>
      <use xlink:href="#DejaVuSans-73" x="306.201172"/>
     </g>
    </g>
   </g>
   <g id="matplotlib.axis_2">
    <g id="ytick_1">
     <g id="line2d_13">
      <path d="M 43.78125 212.496744 
L 322.78125 212.496744 
" clip-path="url(#pa956113e6a)" style="fill: none; stroke-dasharray: 2.96,1.28; stroke-dashoffset: 0; stroke: #b0b0b0; stroke-opacity: 0.4; stroke-width: 0.8"/>
     </g>
     <g id="line2d_14">
      <defs>
       <path id="m35ed1e82ba" d="M 0 0 
L -3.5 0 
" style="stroke: #000000; stroke-width: 0.8"/>
      </defs>
      <g>
       <use xlink:href="#m35ed1e82ba" x="43.78125" y="212.496744" style="stroke: #000000; stroke-width: 0.8"/>
      </g>
     </g>
     <g id="text_8">
      <!-- 0.6 -->
      <g transform="translate(20.878125 216.295963) scale(0.1 -0.1)">
       <defs>
        <path id="DejaVuSans-2e" d="M 684 794 
L 1344 794 
L 1344 0 
L 684 0 
L 684 794 
z
" transform="scale(0.015625)"/>
       </defs>
       <use xlink:href="#DejaVuSans-30"/>
       <use xlink:href="#DejaVuSans-2e" x="63.623047"/>
       <use xlink:href="#DejaVuSans-36" x="95.410156"/>
      </g>
     </g>
    </g>
    <g id="ytick_2">
     <g id="line2d_15">
      <path d="M 43.78125 170.252712 
L 322.78125 170.252712 
" clip-path="url(#pa956113e6a)" style="fill: none; stroke-dasharray: 2.96,1.28; stroke-dashoffset: 0; stroke: #b0b0b0; stroke-opacity: 0.4; stroke-width: 0.8"/>
     </g>
     <g id="line2d_16">
      <g>
       <use xlink:href="#m35ed1e82ba" x="43.78125" y="170.252712" style="stroke: #000000; stroke-width: 0.8"/>
      </g>
     </g>
     <g id="text_9">
      <!-- 0.7 -->
      <g transform="translate(20.878125 174.05193) scale(0.1 -0.1)">
       <defs>
        <path id="DejaVuSans-37" d="M 525 4666 
L 3525 4666 
L 3525 4397 
L 1831 0 
L 1172 0 
L 2766 4134 
L 525 4134 
L 525 4666 
z
" transform="scale(0.015625)"/>
       </defs>
       <use xlink:href="#DejaVuSans-30"/>
       <use xlink:href="#DejaVuSans-2e" x="63.623047"/>
       <use xlink:href="#DejaVuSans-37" x="95.410156"/>
      </g>
     </g>
    </g>
    <g id="ytick_3">
     <g id="line2d_17">
      <path d="M 43.78125 128.008679 
L 322.78125 128.008679 
" clip-path="url(#pa956113e6a)" style="fill: none; stroke-dasharray: 2.96,1.28; stroke-dashoffset: 0; stroke: #b0b0b0; stroke-opacity: 0.4; stroke-width: 0.8"/>
     </g>
     <g id="line2d_18">
      <g>
       <use xlink:href="#m35ed1e82ba" x="43.78125" y="128.008679" style="stroke: #000000; stroke-width: 0.8"/>
      </g>
     </g>
     <g id="text_10">
      <!-- 0.8 -->
      <g transform="translate(20.878125 131.807898) scale(0.1 -0.1)">
       <use xlink:href="#DejaVuSans-30"/>
       <use xlink:href="#DejaVuSans-2e" x="63.623047"/>
       <use xlink:href="#DejaVuSans-38" x="95.410156"/>
      </g>
     </g>
    </g>
    <g id="ytick_4">
     <g id="line2d_19">
      <path d="M 43.78125 85.764646 
L 322.78125 85.764646 
" clip-path="url(#pa956113e6a)" style="fill: none; stroke-dasharray: 2.96,1.28; stroke-dashoffset: 0; stroke: #b0b0b0; stroke-opacity: 0.4; stroke-width: 0.8"/>
     </g>
     <g id="line2d_20">
      <g>
       <use xlink:href="#m35ed1e82ba" x="43.78125" y="85.764646" style="stroke: #000000; stroke-width: 0.8"/>
      </g>
     </g>
     <g id="text_11">
      <!-- 0.9 -->
      <g transform="translate(20.878125 89.563865) scale(0.1 -0.1)">
       <defs>
        <path id="DejaVuSans-39" d="M 703 97 
L 703 672 
Q 941 559 1184 500 
Q 1428 441 1663 441 
Q 2288 441 2617 861 
Q 2947 1281 2994 2138 
Q 2813 1869 2534 1725 
Q 2256 1581 1919 1581 
Q 1219 1581 811 2004 
Q 403 2428 403 3163 
Q 403 3881 828 4315 
Q 1253 4750 1959 4750 
Q 2769 4750 3195 4129 
Q 3622 3509 3622 2328 
Q 3622 1225 3098 567 
Q 2575 -91 1691 -91 
Q 1453 -91 1209 -44 
Q 966 3 703 97 
z
M 1959 2075 
Q 2384 2075 2632 2365 
Q 2881 2656 2881 3163 
Q 2881 3666 2632 3958 
Q 2384 4250 1959 4250 
Q 1534 4250 1286 3958 
Q 1038 3666 1038 3163 
Q 1038 2656 1286 2365 
Q 1534 2075 1959 2075 
z
" transform="scale(0.015625)"/>
       </defs>
       <use xlink:href="#DejaVuSans-30"/>
       <use xlink:href="#DejaVuSans-2e" x="63.623047"/>
       <use xlink:href="#DejaVuSans-39" x="95.410156"/>
      </g>
     </g>
    </g>
    <g id="ytick_5">
     <g id="line2d_21">
      <path d="M 43.78125 43.520613 
L 322.78125 43.520613 
" clip-path="url(#pa956113e6a)" style="fill: none; stroke-dasharray: 2.96,1.28; stroke-dashoffset: 0; stroke: #b0b0b0; stroke-opacity: 0.4; stroke-width: 0.8"/>
     </g>
     <g id="line2d_22">
      <g>
       <use xlink:href="#m35ed1e82ba" x="43.78125" y="43.520613" style="stroke: #000000; stroke-width: 0.8"/>
      </g>
     </g>
     <g id="text_12">
      <!-- 1.0 -->
      <g transform="translate(20.878125 47.319832) scale(0.1 -0.1)">
       <use xlink:href="#DejaVuSans-31"/>
       <use xlink:href="#DejaVuSans-2e" x="63.623047"/>
       <use xlink:href="#DejaVuSans-30" x="95.410156"/>
      </g>
     </g>
    </g>
    <g id="text_13">
     <!-- Accuracy -->
     <g transform="translate(14.798438 161.356125) rotate(-90) scale(0.1 -0.1)">
      <defs>
       <path id="DejaVuSans-41" d="M 2188 4044 
L 1331 1722 
L 3047 1722 
L 2188 4044 
z
M 1831 4666 
L 2547 4666 
L 4325 0 
L 3669 0 
L 3244 1197 
L 1141 1197 
L 716 0 
L 50 0 
L 1831 4666 
z
" transform="scale(0.015625)"/>
       <path id="DejaVuSans-75" d="M 544 1381 
L 544 3500 
L 1119 3500 
L 1119 1403 
Q 1119 906 1312 657 
Q 1506 409 1894 409 
Q 2359 409 2629 706 
Q 2900 1003 2900 1516 
L 2900 3500 
L 3475 3500 
L 3475 0 
L 2900 0 
L 2900 538 
Q 2691 219 2414 64 
Q 2138 -91 1772 -91 
Q 1169 -91 856 284 
Q 544 659 544 1381 
z
M 1991 3584 
L 1991 3584 
z
" transform="scale(0.015625)"/>
       <path id="DejaVuSans-72" d="M 2631 2963 
Q 2534 3019 2420 3045 
Q 2306 3072 2169 3072 
Q 1681 3072 1420 2755 
Q 1159 2438 1159 1844 
L 1159 0 
L 581 0 
L 581 3500 
L 1159 3500 
L 1159 2956 
Q 1341 3275 1631 3429 
Q 1922 3584 2338 3584 
Q 2397 3584 2469 3576 
Q 2541 3569 2628 3553 
L 2631 2963 
z
" transform="scale(0.015625)"/>
       <path id="DejaVuSans-61" d="M 2194 1759 
Q 1497 1759 1228 1600 
Q 959 1441 959 1056 
Q 959 750 1161 570 
Q 1363 391 1709 391 
Q 2188 391 2477 730 
Q 2766 1069 2766 1631 
L 2766 1759 
L 2194 1759 
z
M 3341 1997 
L 3341 0 
L 2766 0 
L 2766 531 
Q 2569 213 2275 61 
Q 1981 -91 1556 -91 
Q 1019 -91 701 211 
Q 384 513 384 1019 
Q 384 1609 779 1909 
Q 1175 2209 1959 2209 
L 2766 2209 
L 2766 2266 
Q 2766 2663 2505 2880 
Q 2244 3097 1772 3097 
Q 1472 3097 1187 3025 
Q 903 2953 641 2809 
L 641 3341 
Q 956 3463 1253 3523 
Q 1550 3584 1831 3584 
Q 2591 3584 2966 3190 
Q 3341 2797 3341 1997 
z
" transform="scale(0.015625)"/>
       <path id="DejaVuSans-79" d="M 2059 -325 
Q 1816 -950 1584 -1140 
Q 1353 -1331 966 -1331 
L 506 -1331 
L 506 -850 
L 844 -850 
Q 1081 -850 1212 -737 
Q 1344 -625 1503 -206 
L 1606 56 
L 191 3500 
L 800 3500 
L 1894 763 
L 2988 3500 
L 3597 3500 
L 2059 -325 
z
" transform="scale(0.015625)"/>
      </defs>
      <use xlink:href="#DejaVuSans-41"/>
      <use xlink:href="#DejaVuSans-63" x="66.658203"/>
      <use xlink:href="#DejaVuSans-63" x="121.638672"/>
      <use xlink:href="#DejaVuSans-75" x="176.619141"/>
      <use xlink:href="#DejaVuSans-72" x="239.998047"/>
      <use xlink:href="#DejaVuSans-61" x="281.111328"/>
      <use xlink:href="#DejaVuSans-63" x="342.390625"/>
      <use xlink:href="#DejaVuSans-79" x="397.371094"/>
     </g>
    </g>
   </g>
   <g id="line2d_23">
    <path d="M 56.463068 230.557091 
L 56.716958 211.853426 
L 57.478629 107.494231 
L 57.98641 93.913241 
L 58.74808 81.28529 
L 59.001971 80.80877 
L 59.255861 80.80877 
L 59.509751 78.426144 
L 59.763641 78.068747 
L 60.017532 74.494807 
L 60.271422 76.162641 
L 60.525312 76.162641 
L 60.779202 75.447848 
L 61.033093 72.350429 
L 61.286983 74.018287 
L 61.540873 72.112181 
L 61.794764 71.159115 
L 62.048654 73.422618 
L 62.302544 69.848678 
L 62.810325 71.516512 
L 63.064215 71.039992 
L 63.318105 72.350429 
L 63.571995 71.397388 
L 63.825886 66.512986 
L 64.079776 68.538241 
L 64.333666 68.657365 
L 64.587556 67.704299 
L 64.841447 68.776489 
L 65.095337 66.989532 
L 65.349227 67.227779 
L 65.603117 67.227779 
L 65.857008 67.942572 
L 66.110898 66.751259 
L 66.364788 66.274739 
L 66.618678 64.845153 
L 66.872569 64.726029 
L 67.380349 68.776489 
L 67.88813 63.892112 
L 68.14202 65.67907 
L 68.903691 63.534716 
L 69.157581 64.845153 
L 69.411471 64.964277 
L 69.665361 62.58165 
L 69.919252 64.487756 
L 70.173142 64.011236 
L 70.934813 64.368633 
L 71.188703 61.62861 
L 71.442593 63.772963 
L 71.696483 61.62861 
L 71.950374 60.913817 
L 72.204264 61.03294 
L 72.458154 64.011236 
L 72.965935 60.675544 
L 73.219825 63.65384 
L 73.473715 59.365107 
L 73.727605 60.437296 
L 73.981496 65.083426 
L 74.235386 61.271213 
L 74.489276 61.509461 
L 74.743166 60.913817 
L 74.997057 59.365107 
L 75.250947 59.245983 
L 75.504837 61.747733 
L 75.758727 59.126834 
L 76.012618 61.152064 
L 76.266508 60.0799 
L 76.520398 59.722503 
L 76.774288 60.199024 
L 77.028179 58.650314 
L 77.282069 59.00771 
L 77.535959 59.603354 
L 77.78985 59.365107 
L 78.04374 59.484231 
L 78.29763 56.267688 
L 78.55152 56.267688 
L 78.805411 56.50596 
L 79.059301 57.101604 
L 79.313191 56.50596 
L 79.567081 56.863332 
L 79.820972 54.480705 
L 80.074862 56.029415 
L 80.836533 55.314622 
L 81.090423 56.50596 
L 81.344313 56.982481 
L 81.598203 55.195498 
L 81.852094 54.957251 
L 82.105984 55.076374 
L 82.359874 55.433771 
L 82.613764 58.650314 
L 82.867655 56.863332 
L 83.121545 56.148564 
L 83.375435 54.480705 
L 83.629325 55.552895 
L 83.883216 55.195498 
L 84.137106 56.148564 
L 84.644886 53.646788 
L 84.898777 55.195498 
L 85.152667 53.289392 
L 85.660447 56.386811 
L 85.914338 54.718978 
L 86.168228 55.195498 
L 86.422118 53.885061 
L 86.676008 54.004185 
L 87.437679 55.076374 
L 87.691569 55.195498 
L 87.94546 54.242458 
L 88.19935 55.433771 
L 88.70713 53.646788 
L 88.961021 53.289392 
L 89.214911 53.765912 
L 89.468801 54.480705 
L 89.722691 54.718978 
L 89.976582 55.314622 
L 90.230472 53.527665 
L 90.738252 52.931995 
L 90.992143 51.978955 
L 91.246033 52.574599 
L 91.499923 54.599854 
L 91.753813 51.978955 
L 92.007704 52.455475 
L 92.261594 51.978955 
L 92.515484 52.574599 
L 93.023265 51.978955 
L 93.277155 51.621558 
L 93.531045 53.051144 
L 93.784936 53.289392 
L 94.038826 51.264162 
L 94.292716 51.978955 
L 94.546606 51.740682 
L 94.800497 51.978955 
L 95.054387 51.859831 
L 95.308277 52.098079 
L 95.562167 49.834576 
L 96.069948 52.693748 
L 96.577728 51.383286 
L 96.831619 52.336351 
L 97.085509 51.859831 
L 97.339399 50.787642 
L 97.593289 51.502435 
L 97.84718 51.383286 
L 98.10107 51.859831 
L 98.35496 52.098079 
L 98.60885 52.812872 
L 98.862741 51.502435 
L 99.116631 51.145038 
L 99.370521 51.025889 
L 99.624411 50.549369 
L 99.878302 51.264162 
L 100.132192 50.906765 
L 100.639972 50.787642 
L 100.893863 50.906765 
L 101.147753 50.668493 
L 101.401643 51.621558 
L 101.655533 50.549369 
L 102.163314 51.621558 
L 102.417204 50.191973 
L 102.924985 52.336351 
L 103.178875 50.191973 
L 103.432765 50.906765 
L 103.940546 50.549369 
L 104.194436 49.715452 
L 104.448326 50.191973 
L 104.702216 49.834576 
L 104.956107 50.072849 
L 105.209997 50.668493 
L 105.463887 49.953725 
L 105.717777 49.715452 
L 105.971668 50.072849 
L 106.225558 49.834576 
L 106.733338 50.430245 
L 106.987229 49.119783 
L 107.241119 49.715452 
L 107.748899 49.834576 
L 108.00279 49.000659 
L 108.51057 49.715452 
L 108.76446 49.000659 
L 109.018351 50.191973 
L 109.272241 50.191973 
L 109.526131 49.358056 
L 109.780021 50.072849 
L 110.287802 49.715452 
L 110.541692 51.383286 
L 110.795583 50.668493 
L 111.049473 50.549369 
L 111.303363 50.072849 
L 111.557253 50.072849 
L 111.811144 49.715452 
L 112.065034 49.834576 
L 112.318924 50.191973 
L 112.572814 49.358056 
L 113.080595 49.47718 
L 113.334485 48.524139 
L 113.588375 50.191973 
L 113.842266 48.524139 
L 114.350046 48.881536 
L 114.603936 49.47718 
L 114.857827 49.000659 
L 115.111717 50.191973 
L 115.365607 49.000659 
L 115.619497 49.953725 
L 115.873388 49.000659 
L 116.127278 48.643263 
L 116.381168 48.881536 
L 116.635058 49.596328 
L 116.888949 49.953725 
L 117.142839 48.643263 
L 117.650619 48.285866 
L 117.90451 49.596328 
L 118.1584 49.596328 
L 118.41229 48.405015 
L 118.66618 48.881536 
L 118.920071 47.571073 
L 119.173961 49.47718 
L 119.427851 50.430245 
L 119.935632 49.238932 
L 120.189522 49.47718 
L 120.443412 47.809346 
L 120.697302 48.881536 
L 120.951193 48.643263 
L 121.205083 48.881536 
L 121.458973 49.358056 
L 121.712863 48.643263 
L 121.966754 49.000659 
L 122.474534 48.405015 
L 122.728424 49.596328 
L 123.236205 47.809346 
L 123.490095 49.953725 
L 123.997876 48.166743 
L 124.251766 48.762412 
L 124.505656 48.524139 
L 124.759546 48.881536 
L 125.267327 48.643263 
L 125.521217 49.000659 
L 125.775107 47.571073 
L 126.028998 49.000659 
L 126.282888 48.643263 
L 126.536778 49.000659 
L 126.790669 48.166743 
L 127.044559 48.524139 
L 127.298449 49.238932 
L 127.552339 49.47718 
L 127.80623 48.762412 
L 128.06012 49.238932 
L 128.31401 49.358056 
L 128.5679 49.238932 
L 128.821791 48.166743 
L 129.075681 48.762412 
L 129.583461 49.000659 
L 129.837352 48.524139 
L 130.091242 48.881536 
L 130.599022 48.285866 
L 130.852913 48.405015 
L 131.106803 48.762412 
L 131.360693 48.285866 
L 131.868474 48.047619 
L 132.122364 49.834576 
L 132.376254 48.285866 
L 132.630144 49.119783 
L 132.884035 48.881536 
L 133.137925 48.047619 
L 133.391815 49.238932 
L 133.645705 48.524139 
L 133.899596 48.762412 
L 134.153486 48.762412 
L 134.407376 47.690222 
L 134.661266 48.405015 
L 135.169047 49.000659 
L 135.422937 48.881536 
L 135.676827 49.238932 
L 135.930718 49.119783 
L 136.184608 48.524139 
L 136.692388 48.762412 
L 136.946279 49.119783 
L 137.200169 49.000659 
L 137.707949 47.809346 
L 137.96184 48.285866 
L 138.21573 48.047619 
L 138.46962 49.238932 
L 138.72351 48.524139 
L 138.977401 48.524139 
L 139.231291 47.690222 
L 139.739071 49.953725 
L 139.992962 48.643263 
L 140.500742 47.809346 
L 140.754632 48.524139 
L 141.008523 48.405015 
L 141.262413 48.047619 
L 141.516303 49.000659 
L 141.770193 48.285866 
L 142.024084 49.238932 
L 142.277974 48.166743 
L 142.531864 48.643263 
L 142.785755 47.690222 
L 143.039645 49.000659 
L 143.293535 49.000659 
L 143.547425 48.524139 
L 143.801316 47.571073 
L 144.055206 48.524139 
L 144.309096 48.405015 
L 144.562986 49.000659 
L 144.816877 47.92847 
L 145.070767 49.238932 
L 145.324657 47.571073 
L 145.578547 49.715452 
L 146.086328 48.047619 
L 146.340218 47.809346 
L 146.594108 49.000659 
L 146.847999 48.524139 
L 147.101889 48.285866 
L 147.355779 47.213702 
L 147.609669 48.166743 
L 147.86356 47.92847 
L 148.11745 49.000659 
L 148.37134 49.119783 
L 148.879121 47.690222 
L 149.133011 49.596328 
L 149.386901 47.571073 
L 149.640791 49.119783 
L 150.402462 47.571073 
L 150.656352 47.809346 
L 150.910243 47.690222 
L 151.164133 47.92847 
L 151.418023 48.524139 
L 151.671913 48.047619 
L 151.925804 48.524139 
L 152.179694 48.524139 
L 152.433584 47.690222 
L 152.687474 49.47718 
L 152.941365 49.47718 
L 153.449145 48.166743 
L 153.703035 48.285866 
L 153.956926 49.358056 
L 154.210816 48.047619 
L 154.464706 48.762412 
L 154.718596 48.881536 
L 155.226377 47.809346 
L 155.480267 48.643263 
L 155.734157 48.405015 
L 155.988048 47.571073 
L 156.495828 47.92847 
L 156.749718 48.643263 
L 157.003609 48.643263 
L 157.257499 48.047619 
L 157.511389 49.238932 
L 157.765279 47.809346 
L 158.01917 48.285866 
L 158.52695 47.92847 
L 158.78084 49.119783 
L 159.034731 46.737157 
L 159.288621 48.643263 
L 159.796402 48.285866 
L 160.050292 48.762412 
L 160.304182 47.809346 
L 160.558072 48.047619 
L 160.811963 48.047619 
L 161.065853 48.643263 
L 161.319743 48.166743 
L 161.573633 48.405015 
L 161.827524 47.92847 
L 162.081414 48.285866 
L 162.335304 47.45195 
L 162.843085 48.285866 
L 163.096975 48.285866 
L 163.350865 48.166743 
L 163.604755 48.285866 
L 164.112536 49.000659 
L 164.366426 48.047619 
L 164.620316 47.690222 
L 164.874207 47.92847 
L 165.128097 47.809346 
L 165.381987 48.405015 
L 165.889768 47.690222 
L 166.143658 48.405015 
L 166.397548 48.762412 
L 166.651438 48.405015 
L 166.905329 47.332826 
L 167.159219 49.000659 
L 167.413109 48.047619 
L 167.666999 47.92847 
L 167.92089 48.405015 
L 168.42867 47.213702 
L 168.68256 47.92847 
L 168.936451 48.166743 
L 169.190341 46.856306 
L 169.444231 49.000659 
L 169.698121 47.332826 
L 169.952012 48.405015 
L 170.205902 48.881536 
L 170.459792 47.92847 
L 170.713682 48.166743 
L 170.967573 49.238932 
L 171.221463 48.285866 
L 171.475353 48.047619 
L 171.729243 47.45195 
L 171.983134 48.166743 
L 172.237024 48.405015 
L 172.490914 48.405015 
L 172.744804 48.881536 
L 172.998695 48.166743 
L 173.252585 48.643263 
L 173.506475 47.571073 
L 173.760365 49.834576 
L 174.014256 47.809346 
L 174.268146 48.762412 
L 174.775926 47.332826 
L 175.029817 49.000659 
L 175.283707 48.881536 
L 175.537597 49.000659 
L 175.791488 48.166743 
L 176.045378 47.92847 
L 176.299268 48.285866 
L 176.553158 48.285866 
L 176.807049 47.92847 
L 177.314829 47.690222 
L 177.568719 49.000659 
L 177.82261 47.92847 
L 178.33039 47.92847 
L 178.58428 49.47718 
L 178.838171 49.238932 
L 179.345951 47.809346 
L 179.599841 47.92847 
L 179.853732 47.809346 
L 180.107622 48.047619 
L 180.361512 47.094553 
L 180.615402 48.524139 
L 180.869293 48.166743 
L 181.123183 48.047619 
L 181.377073 48.285866 
L 181.630963 47.213702 
L 181.884854 47.213702 
L 182.138744 48.047619 
L 182.392634 48.285866 
L 182.646524 48.762412 
L 182.900415 47.690222 
L 183.408195 49.358056 
L 183.662085 48.285866 
L 183.915976 49.47718 
L 184.169866 48.524139 
L 184.423756 48.881536 
L 184.677646 48.524139 
L 184.931537 47.690222 
L 185.185427 48.524139 
L 185.439317 48.166743 
L 185.693207 48.524139 
L 185.947098 47.92847 
L 186.200988 48.405015 
L 186.454878 49.119783 
L 186.708768 48.524139 
L 186.962659 48.285866 
L 187.216549 49.119783 
L 187.470439 47.690222 
L 187.724329 48.405015 
L 187.97822 48.047619 
L 188.23211 49.358056 
L 188.73989 48.405015 
L 188.993781 48.166743 
L 189.247671 48.643263 
L 189.755451 48.285866 
L 190.009342 49.119783 
L 190.263232 47.809346 
L 190.517122 47.690222 
L 190.771012 47.92847 
L 191.024903 48.643263 
L 191.532683 47.332826 
L 191.786574 48.047619 
L 192.294354 48.047619 
L 193.056025 48.881536 
L 193.563805 47.690222 
L 193.817696 48.166743 
L 194.325476 47.571073 
L 194.579366 48.762412 
L 194.833257 48.762412 
L 195.087147 47.690222 
L 195.341037 47.213702 
L 195.594927 48.166743 
L 195.848818 48.643263 
L 196.102708 48.405015 
L 196.356598 48.405015 
L 196.610488 48.285866 
L 196.864379 47.45195 
L 197.372159 47.92847 
L 197.626049 47.809346 
L 197.87994 49.358056 
L 198.13383 47.809346 
L 198.38772 48.643263 
L 198.895501 47.332826 
L 199.149391 47.571073 
L 199.403281 48.047619 
L 199.657171 47.92847 
L 199.911062 48.047619 
L 200.164952 47.45195 
L 200.418842 48.881536 
L 200.926623 48.047619 
L 201.180513 48.405015 
L 201.434403 47.332826 
L 201.942184 47.92847 
L 202.196074 48.881536 
L 202.449964 48.166743 
L 202.703854 48.285866 
L 202.957745 47.332826 
L 203.211635 48.047619 
L 203.465525 48.166743 
L 203.719415 48.524139 
L 203.973306 47.45195 
L 204.227196 48.524139 
L 204.481086 47.213702 
L 204.734976 47.213702 
L 204.988867 47.332826 
L 205.242757 48.762412 
L 205.496647 48.047619 
L 205.750537 48.881536 
L 206.004428 47.92847 
L 206.258318 48.166743 
L 206.766098 47.332826 
L 207.019989 48.405015 
L 207.273879 48.643263 
L 207.527769 47.213702 
L 207.78166 48.762412 
L 208.03555 48.762412 
L 208.28944 48.166743 
L 208.54333 48.405015 
L 208.797221 47.690222 
L 209.305001 48.524139 
L 209.558891 48.047619 
L 209.812782 47.332826 
L 210.066672 48.166743 
L 210.320562 47.690222 
L 210.574452 48.166743 
L 211.082233 47.92847 
L 211.336123 48.524139 
L 211.590013 48.285866 
L 211.843904 47.332826 
L 212.097794 48.881536 
L 212.605574 47.690222 
L 212.859465 48.643263 
L 213.113355 48.643263 
L 213.621135 48.405015 
L 213.875026 46.737157 
L 214.382806 49.358056 
L 214.636696 48.524139 
L 214.890587 48.285866 
L 215.144477 48.285866 
L 215.652257 48.643263 
L 215.906148 47.809346 
L 216.413928 48.643263 
L 216.667818 48.643263 
L 217.175599 47.45195 
L 217.429489 47.809346 
L 217.683379 47.809346 
L 217.93727 48.166743 
L 218.19116 47.45195 
L 218.44505 48.047619 
L 218.69894 49.119783 
L 218.952831 47.809346 
L 219.206721 48.643263 
L 219.460611 47.332826 
L 219.714501 49.358056 
L 219.968392 47.690222 
L 220.222282 47.809346 
L 220.476172 48.405015 
L 220.730062 47.571073 
L 220.983953 48.405015 
L 221.237843 47.92847 
L 221.491733 47.690222 
L 221.745623 48.047619 
L 221.999514 48.643263 
L 222.507294 47.809346 
L 222.761184 48.881536 
L 223.015075 48.524139 
L 223.268965 47.690222 
L 223.522855 47.571073 
L 223.776745 48.762412 
L 224.030636 49.358056 
L 224.284526 48.047619 
L 224.538416 48.643263 
L 224.792307 48.166743 
L 225.046197 47.213702 
L 225.300087 48.047619 
L 225.553977 47.45195 
L 225.807868 49.000659 
L 226.061758 47.332826 
L 226.315648 48.524139 
L 226.569538 48.166743 
L 226.823429 47.332826 
L 227.077319 48.524139 
L 227.331209 47.332826 
L 227.585099 48.047619 
L 228.09288 48.166743 
L 228.34677 48.047619 
L 228.60066 48.643263 
L 228.854551 48.166743 
L 229.108441 48.762412 
L 229.362331 47.92847 
L 229.870112 47.332826 
L 230.124002 48.166743 
L 230.377892 48.047619 
L 230.631782 49.000659 
L 230.885673 48.762412 
L 231.139563 48.762412 
L 231.393453 48.524139 
L 231.647343 47.690222 
L 231.901234 47.809346 
L 232.155124 47.571073 
L 232.409014 48.524139 
L 232.662904 48.047619 
L 232.916795 49.000659 
L 233.424575 47.690222 
L 233.678465 48.285866 
L 233.932356 48.166743 
L 234.947917 48.524139 
L 235.201807 48.405015 
L 235.455697 48.047619 
L 235.709587 48.643263 
L 235.963478 48.405015 
L 236.217368 48.524139 
L 236.471258 48.405015 
L 236.725148 47.571073 
L 237.232929 48.166743 
L 237.486819 47.690222 
L 237.740709 47.571073 
L 237.9946 48.405015 
L 238.24849 47.332826 
L 238.50238 48.166743 
L 238.75627 48.285866 
L 239.010161 48.762412 
L 239.264051 48.047619 
L 239.517941 47.92847 
L 239.771831 48.047619 
L 240.279612 48.643263 
L 240.787393 48.047619 
L 241.041283 48.405015 
L 241.295173 48.047619 
L 241.549063 48.166743 
L 241.802954 47.92847 
L 242.056844 47.92847 
L 242.310734 47.690222 
L 242.564624 48.166743 
L 242.818515 47.332826 
L 243.072405 48.285866 
L 243.326295 47.571073 
L 243.580185 48.166743 
L 243.834076 48.405015 
L 244.087966 48.405015 
L 244.341856 48.524139 
L 244.849637 47.92847 
L 245.103527 48.166743 
L 245.357417 47.690222 
L 245.611307 47.690222 
L 245.865198 48.762412 
L 246.119088 47.213702 
L 246.372978 49.238932 
L 246.626868 49.238932 
L 246.880759 48.047619 
L 247.134649 48.881536 
L 247.388539 47.571073 
L 247.642429 48.047619 
L 247.89632 47.809346 
L 248.15021 48.524139 
L 248.4041 47.690222 
L 248.65799 48.524139 
L 249.165771 47.094553 
L 249.673551 48.285866 
L 249.927442 47.690222 
L 250.181332 48.405015 
L 250.435222 48.524139 
L 250.689112 48.285866 
L 250.943003 48.285866 
L 251.196893 48.405015 
L 251.450783 47.332826 
L 251.704673 48.166743 
L 251.958564 48.166743 
L 252.212454 47.571073 
L 252.720234 49.358056 
L 252.974125 48.762412 
L 253.228015 47.809346 
L 253.481905 47.571073 
L 253.735795 48.405015 
L 253.989686 48.643263 
L 254.243576 48.643263 
L 254.497466 47.809346 
L 254.751356 48.524139 
L 255.005247 47.92847 
L 255.259137 48.166743 
L 255.513027 47.92847 
L 255.766917 48.047619 
L 256.020808 48.762412 
L 256.274698 48.285866 
L 256.528588 48.881536 
L 256.782479 47.690222 
L 257.036369 47.332826 
L 257.290259 47.690222 
L 257.544149 47.809346 
L 257.79804 48.881536 
L 258.05193 47.332826 
L 258.30582 48.524139 
L 258.55971 48.285866 
L 258.813601 48.524139 
L 259.067491 47.92847 
L 259.575271 49.119783 
L 259.829162 48.047619 
L 260.083052 49.000659 
L 260.336942 47.92847 
L 260.590832 48.047619 
L 260.844723 48.881536 
L 261.098613 48.047619 
L 261.352503 48.524139 
L 261.606393 48.405015 
L 261.860284 48.881536 
L 262.114174 48.047619 
L 262.368064 47.92847 
L 262.621954 49.000659 
L 262.875845 47.92847 
L 263.129735 48.285866 
L 263.383625 47.690222 
L 263.637515 48.762412 
L 263.891406 47.809346 
L 264.145296 47.690222 
L 264.399186 48.524139 
L 264.653076 48.166743 
L 264.906967 48.166743 
L 265.160857 48.405015 
L 265.414747 49.238932 
L 265.668637 47.809346 
L 265.922528 47.809346 
L 266.176418 47.571073 
L 266.430308 48.405015 
L 266.684198 48.643263 
L 266.938089 48.285866 
L 267.191979 47.45195 
L 267.445869 47.690222 
L 267.699759 47.690222 
L 267.95365 48.643263 
L 268.20754 48.762412 
L 268.46143 48.524139 
L 268.71532 49.000659 
L 268.969211 47.690222 
L 269.223101 47.92847 
L 269.476991 47.92847 
L 269.730881 48.405015 
L 270.238662 48.405015 
L 270.746442 47.45195 
L 271.000333 47.45195 
L 271.254223 47.690222 
L 271.508113 48.285866 
L 272.269784 47.92847 
L 272.523674 48.166743 
L 272.777564 48.643263 
L 273.031455 48.166743 
L 273.285345 48.405015 
L 273.539235 47.332826 
L 273.793126 48.524139 
L 274.047016 49.000659 
L 274.300906 47.809346 
L 274.554796 48.524139 
L 274.808687 46.975429 
L 275.062577 48.405015 
L 275.316467 48.166743 
L 275.570357 48.643263 
L 275.824248 48.881536 
L 276.078138 47.809346 
L 276.332028 47.571073 
L 276.585918 47.92847 
L 276.839809 47.332826 
L 277.093699 48.643263 
L 277.347589 47.213702 
L 277.601479 48.762412 
L 277.85537 47.094553 
L 278.10926 48.047619 
L 278.36315 49.47718 
L 278.61704 47.571073 
L 278.870931 49.238932 
L 279.124821 47.571073 
L 279.378711 47.571073 
L 279.886492 48.047619 
L 280.140382 46.618033 
L 280.394272 48.047619 
L 280.648162 47.094553 
L 281.155943 48.762412 
L 281.409833 47.45195 
L 281.663723 47.690222 
L 281.917614 48.166743 
L 282.171504 48.047619 
L 282.425394 48.762412 
L 282.679284 47.92847 
L 282.933175 47.809346 
L 283.694845 48.047619 
L 283.948736 47.45195 
L 284.202626 49.119783 
L 284.710406 48.285866 
L 284.964297 48.643263 
L 285.218187 48.047619 
L 285.472077 48.285866 
L 285.725967 48.166743 
L 285.979858 49.238932 
L 286.233748 49.47718 
L 286.487638 47.571073 
L 286.741528 48.405015 
L 286.995419 48.405015 
L 287.249309 47.690222 
L 287.503199 47.45195 
L 287.757089 47.690222 
L 288.01098 48.643263 
L 288.26487 48.285866 
L 288.51876 48.285866 
L 288.77265 48.405015 
L 289.026541 48.166743 
L 289.280431 48.643263 
L 289.534321 47.690222 
L 289.788212 48.643263 
L 290.042102 48.047619 
L 290.295992 47.809346 
L 290.549882 48.643263 
L 290.803773 48.166743 
L 291.057663 48.285866 
L 291.311553 47.809346 
L 291.565443 49.000659 
L 291.819334 47.213702 
L 292.073224 49.000659 
L 292.327114 47.92847 
L 292.581004 48.285866 
L 292.834895 48.047619 
L 293.088785 48.166743 
L 293.342675 47.809346 
L 293.596565 47.92847 
L 293.850456 48.405015 
L 294.104346 47.690222 
L 294.358236 49.119783 
L 294.612126 47.92847 
L 294.866017 47.809346 
L 295.119907 48.762412 
L 295.373797 47.809346 
L 295.627687 47.690222 
L 295.881578 49.238932 
L 296.135468 48.524139 
L 296.389358 48.524139 
L 296.643248 46.975429 
L 297.151029 48.166743 
L 297.404919 47.332826 
L 297.9127 49.238932 
L 298.16659 47.690222 
L 298.42048 47.809346 
L 298.67437 48.643263 
L 298.928261 47.45195 
L 299.182151 48.405015 
L 299.436041 48.405015 
L 299.689931 47.690222 
L 300.197712 48.166743 
L 300.451602 48.881536 
L 300.705492 47.92847 
L 300.959383 46.498909 
L 301.213273 47.92847 
L 301.467163 48.285866 
L 301.974944 48.643263 
L 302.228834 48.166743 
L 302.482724 48.405015 
L 302.736614 47.809346 
L 303.244395 48.166743 
L 303.498285 48.881536 
L 303.752175 48.047619 
L 304.006066 48.285866 
L 304.259956 47.332826 
L 304.513846 49.119783 
L 305.021627 48.047619 
L 305.275517 48.524139 
L 305.529407 47.45195 
L 305.783298 48.166743 
L 306.037188 48.166743 
L 306.291078 48.524139 
L 306.544968 48.166743 
L 306.798859 47.45195 
L 307.052749 49.119783 
L 307.306639 48.285866 
L 307.81442 47.809346 
L 308.3222 48.166743 
L 308.57609 49.000659 
L 309.083871 47.690222 
L 309.337761 48.166743 
L 309.591651 49.000659 
L 309.845542 47.332826 
L 310.099432 47.571073 
L 310.099432 47.571073 
" clip-path="url(#pa956113e6a)" style="fill: none; stroke: #0000ff; stroke-width: 0.6; stroke-linecap: square"/>
   </g>
   <g id="line2d_24">
    <path d="M 56.463068 228.338257 
L 57.224739 116.058075 
L 57.98641 91.32306 
L 58.49419 80.762062 
L 58.74808 84.65296 
L 59.001971 84.37503 
L 59.255861 73.536102 
L 59.509751 77.98286 
L 59.763641 76.871164 
L 60.017532 77.427 
L 60.271422 81.873758 
L 60.525312 77.98286 
L 60.779202 77.427 
L 61.033093 80.206227 
L 61.286983 74.369867 
L 61.540873 73.536102 
L 61.794764 76.037399 
L 62.048654 73.258197 
L 62.302544 76.315329 
L 62.556434 73.258197 
L 62.810325 71.590665 
L 63.064215 76.315329 
L 63.318105 73.536102 
L 63.571995 77.149095 
L 63.825886 72.980266 
L 64.079776 78.260765 
L 64.333666 75.203633 
L 64.587556 70.201064 
L 64.841447 76.593234 
L 65.349227 70.7569 
L 65.603117 71.86857 
L 65.857008 75.203633 
L 66.110898 73.814032 
L 66.364788 71.590665 
L 66.618678 70.7569 
L 66.872569 72.980266 
L 67.126459 73.258197 
L 67.380349 71.312735 
L 67.634239 70.478969 
L 67.88813 74.925728 
L 68.14202 73.536102 
L 68.39591 71.03483 
L 68.6498 72.980266 
L 68.903691 72.424431 
L 69.157581 71.590665 
L 69.411471 72.146501 
L 69.919252 72.702336 
L 70.173142 76.871164 
L 70.427032 76.593234 
L 70.680922 71.86857 
L 70.934813 71.312735 
L 71.188703 71.312735 
L 71.442593 72.702336 
L 71.696483 70.201064 
L 71.950374 70.201064 
L 72.204264 72.980266 
L 72.458154 71.03483 
L 72.712044 72.146501 
L 72.965935 74.369867 
L 73.219825 71.312735 
L 73.981496 73.814032 
L 74.235386 70.478969 
L 74.489276 71.03483 
L 74.743166 71.86857 
L 74.997057 70.201064 
L 75.250947 70.7569 
L 75.504837 71.86857 
L 75.758727 71.590665 
L 76.012618 74.647798 
L 76.520398 72.424431 
L 77.028179 71.312735 
L 77.282069 71.590665 
L 77.535959 70.201064 
L 77.78985 70.7569 
L 78.04374 71.590665 
L 78.29763 69.923134 
L 78.55152 69.367299 
L 79.059301 71.590665 
L 79.313191 70.201064 
L 79.820972 71.590665 
L 80.074862 69.645204 
L 80.328752 69.367299 
L 80.582642 70.201064 
L 80.836533 75.203633 
L 81.090423 69.923134 
L 81.344313 75.203633 
L 81.598203 70.478969 
L 81.852094 71.03483 
L 82.105984 71.03483 
L 82.359874 70.478969 
L 82.613764 70.201064 
L 82.867655 71.86857 
L 83.121545 71.86857 
L 83.375435 69.089368 
L 83.629325 68.255603 
L 83.883216 70.7569 
L 84.137106 68.255603 
L 84.390996 72.146501 
L 84.644886 68.533533 
L 84.898777 69.923134 
L 85.152667 69.923134 
L 85.406557 70.478969 
L 85.660447 69.923134 
L 85.914338 69.645204 
L 86.168228 71.86857 
L 86.422118 70.201064 
L 86.676008 70.7569 
L 86.929899 71.590665 
L 87.183789 70.478969 
L 87.437679 73.536102 
L 87.691569 71.312735 
L 87.94546 70.7569 
L 88.19935 72.146501 
L 88.45324 70.7569 
L 88.70713 72.702336 
L 88.961021 71.590665 
L 89.214911 69.923134 
L 89.468801 71.590665 
L 89.976582 72.146501 
L 90.230472 69.923134 
L 90.484362 73.536102 
L 90.738252 71.590665 
L 90.992143 73.536102 
L 91.499923 70.478969 
L 91.753813 71.03483 
L 92.007704 72.702336 
L 92.261594 71.03483 
L 92.515484 71.86857 
L 92.769374 71.86857 
L 93.023265 70.478969 
L 93.277155 70.201064 
L 93.531045 71.86857 
L 93.784936 71.312735 
L 94.292716 71.312735 
L 94.546606 70.478969 
L 94.800497 72.702336 
L 95.054387 72.424431 
L 95.308277 69.923134 
L 95.562167 71.03483 
L 95.816058 72.980266 
L 96.069948 69.367299 
L 96.323838 70.201064 
L 96.577728 69.645204 
L 96.831619 71.590665 
L 97.085509 69.923134 
L 97.593289 72.146501 
L 98.35496 69.923134 
L 98.60885 70.478969 
L 98.862741 71.86857 
L 99.116631 71.03483 
L 99.370521 72.702336 
L 99.624411 71.86857 
L 99.878302 71.590665 
L 100.386082 70.201064 
L 100.893863 72.980266 
L 101.147753 71.03483 
L 101.401643 71.86857 
L 101.655533 69.645204 
L 101.909424 69.645204 
L 102.163314 71.312735 
L 102.417204 70.201064 
L 102.671094 70.201064 
L 102.924985 71.590665 
L 103.178875 70.478969 
L 103.432765 69.923134 
L 103.686655 70.478969 
L 103.940546 71.590665 
L 104.194436 70.478969 
L 104.448326 71.86857 
L 104.702216 71.312735 
L 104.956107 71.590665 
L 105.209997 69.923134 
L 105.463887 70.7569 
L 105.717777 70.7569 
L 105.971668 71.590665 
L 106.225558 71.03483 
L 106.479448 71.312735 
L 106.733338 70.201064 
L 106.987229 69.645204 
L 107.241119 69.367299 
L 107.495009 69.923134 
L 107.748899 69.923134 
L 108.00279 69.645204 
L 108.25668 69.645204 
L 108.51057 71.86857 
L 108.76446 70.478969 
L 109.018351 71.03483 
L 109.272241 71.86857 
L 109.526131 71.312735 
L 109.780021 71.590665 
L 110.033912 71.03483 
L 110.287802 71.03483 
L 110.541692 70.7569 
L 110.795583 71.03483 
L 111.049473 70.201064 
L 111.303363 68.811438 
L 111.557253 70.7569 
L 111.811144 71.312735 
L 112.065034 69.645204 
L 112.318924 71.86857 
L 112.572814 71.312735 
L 112.826705 70.201064 
L 113.080595 70.478969 
L 113.334485 70.201064 
L 113.588375 70.201064 
L 113.842266 71.590665 
L 114.096156 70.201064 
L 114.350046 69.923134 
L 114.603936 70.7569 
L 114.857827 69.645204 
L 115.111717 70.7569 
L 115.365607 70.7569 
L 115.619497 69.923134 
L 115.873388 70.478969 
L 116.127278 71.312735 
L 116.381168 70.478969 
L 116.635058 71.312735 
L 116.888949 71.03483 
L 117.142839 71.03483 
L 117.396729 70.7569 
L 117.650619 71.312735 
L 117.90451 70.478969 
L 118.1584 70.478969 
L 118.41229 71.590665 
L 118.66618 71.312735 
L 118.920071 71.312735 
L 119.173961 71.86857 
L 119.681741 70.7569 
L 119.935632 71.03483 
L 120.443412 69.923134 
L 120.697302 70.478969 
L 120.951193 70.201064 
L 121.205083 71.312735 
L 121.458973 71.03483 
L 121.712863 69.923134 
L 121.966754 70.7569 
L 122.220644 69.923134 
L 122.728424 72.146501 
L 122.982315 70.201064 
L 123.236205 69.923134 
L 123.490095 70.201064 
L 123.743985 71.03483 
L 123.997876 72.424431 
L 124.251766 70.201064 
L 124.505656 70.7569 
L 124.759546 70.7569 
L 125.013437 70.201064 
L 125.267327 70.201064 
L 125.521217 72.146501 
L 125.775107 70.478969 
L 126.028998 69.923134 
L 126.282888 70.478969 
L 126.536778 70.7569 
L 126.790669 70.201064 
L 127.044559 69.923134 
L 127.298449 70.7569 
L 127.552339 70.478969 
L 127.80623 70.478969 
L 128.06012 71.03483 
L 128.31401 71.312735 
L 128.5679 71.312735 
L 129.075681 69.923134 
L 129.329571 70.201064 
L 129.583461 71.03483 
L 129.837352 71.312735 
L 130.091242 71.03483 
L 130.599022 71.590665 
L 130.852913 70.478969 
L 131.106803 71.312735 
L 131.360693 71.312735 
L 131.614583 71.03483 
L 131.868474 71.312735 
L 132.122364 71.312735 
L 132.376254 70.478969 
L 132.630144 70.7569 
L 132.884035 70.201064 
L 133.137925 70.7569 
L 133.645705 70.201064 
L 133.899596 71.03483 
L 134.153486 70.201064 
L 134.407376 70.201064 
L 134.661266 70.7569 
L 134.915157 70.478969 
L 135.422937 70.478969 
L 135.676827 71.03483 
L 135.930718 71.312735 
L 136.184608 69.645204 
L 136.438498 70.478969 
L 136.692388 70.201064 
L 136.946279 70.478969 
L 137.200169 70.478969 
L 137.454059 69.923134 
L 137.707949 69.645204 
L 137.96184 70.201064 
L 138.46962 70.7569 
L 138.72351 70.478969 
L 138.977401 70.7569 
L 139.231291 69.923134 
L 139.485181 69.923134 
L 139.992962 71.03483 
L 140.246852 69.923134 
L 140.500742 70.7569 
L 140.754632 70.478969 
L 141.008523 70.478969 
L 141.516303 69.923134 
L 141.770193 70.201064 
L 142.024084 70.201064 
L 142.277974 69.645204 
L 142.531864 70.201064 
L 142.785755 69.923134 
L 143.039645 70.7569 
L 143.293535 69.923134 
L 143.547425 70.478969 
L 144.055206 71.03483 
L 144.309096 70.478969 
L 144.562986 70.478969 
L 144.816877 71.03483 
L 145.070767 70.201064 
L 145.324657 70.478969 
L 145.578547 70.478969 
L 145.832438 70.201064 
L 146.086328 70.201064 
L 146.340218 70.7569 
L 146.594108 70.201064 
L 146.847999 70.478969 
L 147.355779 70.478969 
L 147.609669 70.7569 
L 147.86356 70.201064 
L 148.11745 70.478969 
L 148.62523 70.478969 
L 148.879121 69.923134 
L 149.133011 69.923134 
L 149.386901 70.7569 
L 149.640791 70.478969 
L 150.402462 70.478969 
L 150.656352 69.923134 
L 150.910243 69.923134 
L 151.164133 69.367299 
L 151.418023 70.478969 
L 151.671913 70.478969 
L 152.179694 69.923134 
L 152.433584 70.478969 
L 152.687474 70.7569 
L 153.195255 70.201064 
L 153.449145 70.201064 
L 153.703035 71.03483 
L 153.956926 71.03483 
L 154.210816 69.923134 
L 154.464706 69.923134 
L 154.718596 70.201064 
L 155.734157 70.201064 
L 155.988048 70.478969 
L 156.241938 70.201064 
L 156.495828 70.7569 
L 156.749718 70.478969 
L 157.003609 70.478969 
L 157.257499 69.923134 
L 157.511389 70.478969 
L 158.01917 70.478969 
L 158.27306 69.645204 
L 158.52695 70.478969 
L 158.78084 70.201064 
L 159.034731 70.7569 
L 159.288621 70.478969 
L 159.542511 70.7569 
L 160.050292 70.201064 
L 160.304182 70.478969 
L 160.558072 70.478969 
L 160.811963 70.7569 
L 161.065853 70.201064 
L 161.319743 70.7569 
L 161.573633 71.03483 
L 162.081414 70.478969 
L 162.589194 70.478969 
L 162.843085 70.7569 
L 163.096975 70.478969 
L 163.350865 70.7569 
L 163.604755 70.7569 
L 163.858646 70.478969 
L 164.620316 70.478969 
L 164.874207 70.201064 
L 165.381987 70.7569 
L 165.635877 70.7569 
L 166.143658 70.201064 
L 166.397548 70.478969 
L 166.651438 70.201064 
L 166.905329 70.478969 
L 167.413109 70.478969 
L 167.666999 70.201064 
L 167.92089 70.478969 
L 169.444231 70.478969 
L 169.698121 70.201064 
L 169.952012 70.7569 
L 170.205902 70.201064 
L 170.459792 71.03483 
L 170.713682 70.478969 
L 170.967573 70.7569 
L 171.221463 70.478969 
L 171.475353 70.7569 
L 171.729243 70.7569 
L 171.983134 70.478969 
L 172.237024 70.478969 
L 172.490914 70.7569 
L 172.744804 70.7569 
L 172.998695 70.478969 
L 173.760365 70.478969 
L 174.014256 70.201064 
L 174.268146 70.478969 
L 174.775926 70.478969 
L 175.029817 70.7569 
L 175.283707 70.201064 
L 175.537597 70.478969 
L 175.791488 69.923134 
L 176.299268 70.478969 
L 176.807049 70.478969 
L 177.060939 70.201064 
L 178.0765 70.201064 
L 178.33039 70.478969 
L 178.58428 70.201064 
L 178.838171 70.478969 
L 179.092061 70.478969 
L 179.345951 70.7569 
L 180.107622 70.7569 
L 180.361512 70.478969 
L 180.615402 70.7569 
L 180.869293 70.7569 
L 181.123183 70.478969 
L 181.630963 70.478969 
L 181.884854 70.201064 
L 182.138744 70.478969 
L 183.408195 70.478969 
L 183.662085 70.201064 
L 185.185427 70.201064 
L 185.439317 70.478969 
L 185.693207 70.201064 
L 186.962659 70.201064 
L 187.216549 70.478969 
L 187.470439 70.201064 
L 187.724329 70.201064 
L 187.97822 70.478969 
L 188.73989 70.478969 
L 188.993781 70.201064 
L 189.501561 70.201064 
L 189.755451 70.478969 
L 190.009342 70.478969 
L 190.263232 70.201064 
L 190.771012 70.201064 
L 191.024903 70.478969 
L 191.532683 70.478969 
L 191.786574 70.201064 
L 192.040464 70.201064 
L 192.294354 70.478969 
L 192.548244 70.201064 
L 193.056025 70.201064 
L 193.309915 70.478969 
L 194.325476 70.478969 
L 194.579366 70.201064 
L 194.833257 70.201064 
L 195.087147 70.478969 
L 197.372159 70.478969 
L 197.626049 70.7569 
L 197.87994 70.478969 
L 209.305001 70.478969 
L 209.558891 70.7569 
L 210.574452 70.7569 
L 210.828343 70.478969 
L 213.367245 70.478969 
L 213.621135 70.7569 
L 214.128916 70.7569 
L 214.382806 70.478969 
L 214.636696 70.7569 
L 214.890587 70.478969 
L 216.921709 70.478969 
L 217.175599 70.7569 
L 224.284526 70.7569 
L 224.538416 70.478969 
L 225.807868 70.478969 
L 226.061758 70.7569 
L 230.124002 70.7569 
L 230.377892 70.478969 
L 231.139563 70.478969 
L 231.393453 70.7569 
L 235.963478 70.7569 
L 236.217368 70.478969 
L 236.471258 70.478969 
L 236.725148 70.7569 
L 246.372978 70.7569 
L 246.626868 70.478969 
L 247.134649 70.478969 
L 247.388539 70.7569 
L 310.099432 70.7569 
L 310.099432 70.7569 
" clip-path="url(#pa956113e6a)" style="fill: none; stroke: #ff0000; stroke-width: 0.6; stroke-linecap: square"/>
   </g>
   <g id="patch_3">
    <path d="M 43.78125 239.76 
L 43.78125 37.296 
" style="fill: none; stroke: #000000; stroke-width: 0.8; stroke-linejoin: miter; stroke-linecap: square"/>
   </g>
   <g id="patch_4">
    <path d="M 322.78125 239.76 
L 322.78125 37.296 
" style="fill: none; stroke: #000000; stroke-width: 0.8; stroke-linejoin: miter; stroke-linecap: square"/>
   </g>
   <g id="patch_5">
    <path d="M 43.78125 239.76 
L 322.78125 239.76 
" style="fill: none; stroke: #000000; stroke-width: 0.8; stroke-linejoin: miter; stroke-linecap: square"/>
   </g>
   <g id="patch_6">
    <path d="M 43.78125 37.296 
L 322.78125 37.296 
" style="fill: none; stroke: #000000; stroke-width: 0.8; stroke-linejoin: miter; stroke-linecap: square"/>
   </g>
   <g id="text_14">
    <!-- Baseline Model -->
    <g transform="translate(149.259844 31.296) scale(0.09 -0.09)">
     <defs>
      <path id="DejaVuSans-42" d="M 1259 2228 
L 1259 519 
L 2272 519 
Q 2781 519 3026 730 
Q 3272 941 3272 1375 
Q 3272 1813 3026 2020 
Q 2781 2228 2272 2228 
L 1259 2228 
z
M 1259 4147 
L 1259 2741 
L 2194 2741 
Q 2656 2741 2882 2914 
Q 3109 3088 3109 3444 
Q 3109 3797 2882 3972 
Q 2656 4147 2194 4147 
L 1259 4147 
z
M 628 4666 
L 2241 4666 
Q 2963 4666 3353 4366 
Q 3744 4066 3744 3513 
Q 3744 3084 3544 2831 
Q 3344 2578 2956 2516 
Q 3422 2416 3680 2098 
Q 3938 1781 3938 1306 
Q 3938 681 3513 340 
Q 3088 0 2303 0 
L 628 0 
L 628 4666 
z
" transform="scale(0.015625)"/>
      <path id="DejaVuSans-65" d="M 3597 1894 
L 3597 1613 
L 953 1613 
Q 991 1019 1311 708 
Q 1631 397 2203 397 
Q 2534 397 2845 478 
Q 3156 559 3463 722 
L 3463 178 
Q 3153 47 2828 -22 
Q 2503 -91 2169 -91 
Q 1331 -91 842 396 
Q 353 884 353 1716 
Q 353 2575 817 3079 
Q 1281 3584 2069 3584 
Q 2775 3584 3186 3129 
Q 3597 2675 3597 1894 
z
M 3022 2063 
Q 3016 2534 2758 2815 
Q 2500 3097 2075 3097 
Q 1594 3097 1305 2825 
Q 1016 2553 972 2059 
L 3022 2063 
z
" transform="scale(0.015625)"/>
      <path id="DejaVuSans-6c" d="M 603 4863 
L 1178 4863 
L 1178 0 
L 603 0 
L 603 4863 
z
" transform="scale(0.015625)"/>
      <path id="DejaVuSans-69" d="M 603 3500 
L 1178 3500 
L 1178 0 
L 603 0 
L 603 3500 
z
M 603 4863 
L 1178 4863 
L 1178 4134 
L 603 4134 
L 603 4863 
z
" transform="scale(0.015625)"/>
      <path id="DejaVuSans-6e" d="M 3513 2113 
L 3513 0 
L 2938 0 
L 2938 2094 
Q 2938 2591 2744 2837 
Q 2550 3084 2163 3084 
Q 1697 3084 1428 2787 
Q 1159 2491 1159 1978 
L 1159 0 
L 581 0 
L 581 3500 
L 1159 3500 
L 1159 2956 
Q 1366 3272 1645 3428 
Q 1925 3584 2291 3584 
Q 2894 3584 3203 3211 
Q 3513 2838 3513 2113 
z
" transform="scale(0.015625)"/>
      <path id="DejaVuSans-20" transform="scale(0.015625)"/>
      <path id="DejaVuSans-4d" d="M 628 4666 
L 1569 4666 
L 2759 1491 
L 3956 4666 
L 4897 4666 
L 4897 0 
L 4281 0 
L 4281 4097 
L 3078 897 
L 2444 897 
L 1241 4097 
L 1241 0 
L 628 0 
L 628 4666 
z
" transform="scale(0.015625)"/>
      <path id="DejaVuSans-64" d="M 2906 2969 
L 2906 4863 
L 3481 4863 
L 3481 0 
L 2906 0 
L 2906 525 
Q 2725 213 2448 61 
Q 2172 -91 1784 -91 
Q 1150 -91 751 415 
Q 353 922 353 1747 
Q 353 2572 751 3078 
Q 1150 3584 1784 3584 
Q 2172 3584 2448 3432 
Q 2725 3281 2906 2969 
z
M 947 1747 
Q 947 1113 1208 752 
Q 1469 391 1925 391 
Q 2381 391 2643 752 
Q 2906 1113 2906 1747 
Q 2906 2381 2643 2742 
Q 2381 3103 1925 3103 
Q 1469 3103 1208 2742 
Q 947 2381 947 1747 
z
" transform="scale(0.015625)"/>
     </defs>
     <use xlink:href="#DejaVuSans-42"/>
     <use xlink:href="#DejaVuSans-61" x="68.603516"/>
     <use xlink:href="#DejaVuSans-73" x="129.882812"/>
     <use xlink:href="#DejaVuSans-65" x="181.982422"/>
     <use xlink:href="#DejaVuSans-6c" x="243.505859"/>
     <use xlink:href="#DejaVuSans-69" x="271.289062"/>
     <use xlink:href="#DejaVuSans-6e" x="299.072266"/>
     <use xlink:href="#DejaVuSans-65" x="362.451172"/>
     <use xlink:href="#DejaVuSans-20" x="423.974609"/>
     <use xlink:href="#DejaVuSans-4d" x="455.761719"/>
     <use xlink:href="#DejaVuSans-6f" x="542.041016"/>
     <use xlink:href="#DejaVuSans-64" x="603.222656"/>
     <use xlink:href="#DejaVuSans-65" x="666.699219"/>
     <use xlink:href="#DejaVuSans-6c" x="728.222656"/>
    </g>
   </g>
   <g id="legend_1">
    <g id="patch_7">
     <path d="M 185.565625 234.76 
L 315.78125 234.76 
Q 317.78125 234.76 317.78125 232.76 
L 317.78125 204.40375 
Q 317.78125 202.40375 315.78125 202.40375 
L 185.565625 202.40375 
Q 183.565625 202.40375 183.565625 204.40375 
L 183.565625 232.76 
Q 183.565625 234.76 185.565625 234.76 
z
" style="fill: #ffffff; opacity: 0.8; stroke: #cccccc; stroke-linejoin: miter"/>
    </g>
    <g id="line2d_25">
     <path d="M 187.565625 210.502187 
L 197.565625 210.502187 
L 207.565625 210.502187 
" style="fill: none; stroke: #0000ff; stroke-width: 0.6; stroke-linecap: square"/>
    </g>
    <g id="text_15">
     <!-- Training Accuracy -->
     <g transform="translate(215.565625 214.002187) scale(0.1 -0.1)">
      <defs>
       <path id="DejaVuSans-54" d="M -19 4666 
L 3928 4666 
L 3928 4134 
L 2272 4134 
L 2272 0 
L 1638 0 
L 1638 4134 
L -19 4134 
L -19 4666 
z
" transform="scale(0.015625)"/>
       <path id="DejaVuSans-67" d="M 2906 1791 
Q 2906 2416 2648 2759 
Q 2391 3103 1925 3103 
Q 1463 3103 1205 2759 
Q 947 2416 947 1791 
Q 947 1169 1205 825 
Q 1463 481 1925 481 
Q 2391 481 2648 825 
Q 2906 1169 2906 1791 
z
M 3481 434 
Q 3481 -459 3084 -895 
Q 2688 -1331 1869 -1331 
Q 1566 -1331 1297 -1286 
Q 1028 -1241 775 -1147 
L 775 -588 
Q 1028 -725 1275 -790 
Q 1522 -856 1778 -856 
Q 2344 -856 2625 -561 
Q 2906 -266 2906 331 
L 2906 616 
Q 2728 306 2450 153 
Q 2172 0 1784 0 
Q 1141 0 747 490 
Q 353 981 353 1791 
Q 353 2603 747 3093 
Q 1141 3584 1784 3584 
Q 2172 3584 2450 3431 
Q 2728 3278 2906 2969 
L 2906 3500 
L 3481 3500 
L 3481 434 
z
" transform="scale(0.015625)"/>
      </defs>
      <use xlink:href="#DejaVuSans-54"/>
      <use xlink:href="#DejaVuSans-72" x="46.333984"/>
      <use xlink:href="#DejaVuSans-61" x="87.447266"/>
      <use xlink:href="#DejaVuSans-69" x="148.726562"/>
      <use xlink:href="#DejaVuSans-6e" x="176.509766"/>
      <use xlink:href="#DejaVuSans-69" x="239.888672"/>
      <use xlink:href="#DejaVuSans-6e" x="267.671875"/>
      <use xlink:href="#DejaVuSans-67" x="331.050781"/>
      <use xlink:href="#DejaVuSans-20" x="394.527344"/>
      <use xlink:href="#DejaVuSans-41" x="426.314453"/>
      <use xlink:href="#DejaVuSans-63" x="492.972656"/>
      <use xlink:href="#DejaVuSans-63" x="547.953125"/>
      <use xlink:href="#DejaVuSans-75" x="602.933594"/>
      <use xlink:href="#DejaVuSans-72" x="666.3125"/>
      <use xlink:href="#DejaVuSans-61" x="707.425781"/>
      <use xlink:href="#DejaVuSans-63" x="768.705078"/>
      <use xlink:href="#DejaVuSans-79" x="823.685547"/>
     </g>
    </g>
    <g id="line2d_26">
     <path d="M 187.565625 225.180312 
L 197.565625 225.180312 
L 207.565625 225.180312 
" style="fill: none; stroke: #ff0000; stroke-width: 0.6; stroke-linecap: square"/>
    </g>
    <g id="text_16">
     <!-- Validation Accuracy -->
     <g transform="translate(215.565625 228.680312) scale(0.1 -0.1)">
      <defs>
       <path id="DejaVuSans-56" d="M 1831 0 
L 50 4666 
L 709 4666 
L 2188 738 
L 3669 4666 
L 4325 4666 
L 2547 0 
L 1831 0 
z
" transform="scale(0.015625)"/>
       <path id="DejaVuSans-74" d="M 1172 4494 
L 1172 3500 
L 2356 3500 
L 2356 3053 
L 1172 3053 
L 1172 1153 
Q 1172 725 1289 603 
Q 1406 481 1766 481 
L 2356 481 
L 2356 0 
L 1766 0 
Q 1100 0 847 248 
Q 594 497 594 1153 
L 594 3053 
L 172 3053 
L 172 3500 
L 594 3500 
L 594 4494 
L 1172 4494 
z
" transform="scale(0.015625)"/>
      </defs>
      <use xlink:href="#DejaVuSans-56"/>
      <use xlink:href="#DejaVuSans-61" x="60.658203"/>
      <use xlink:href="#DejaVuSans-6c" x="121.9375"/>
      <use xlink:href="#DejaVuSans-69" x="149.720703"/>
      <use xlink:href="#DejaVuSans-64" x="177.503906"/>
      <use xlink:href="#DejaVuSans-61" x="240.980469"/>
      <use xlink:href="#DejaVuSans-74" x="302.259766"/>
      <use xlink:href="#DejaVuSans-69" x="341.46875"/>
      <use xlink:href="#DejaVuSans-6f" x="369.251953"/>
      <use xlink:href="#DejaVuSans-6e" x="430.433594"/>
      <use xlink:href="#DejaVuSans-20" x="493.8125"/>
      <use xlink:href="#DejaVuSans-41" x="525.599609"/>
      <use xlink:href="#DejaVuSans-63" x="592.257812"/>
      <use xlink:href="#DejaVuSans-63" x="647.238281"/>
      <use xlink:href="#DejaVuSans-75" x="702.21875"/>
      <use xlink:href="#DejaVuSans-72" x="765.597656"/>
      <use xlink:href="#DejaVuSans-61" x="806.710938"/>
      <use xlink:href="#DejaVuSans-63" x="867.990234"/>
      <use xlink:href="#DejaVuSans-79" x="922.970703"/>
     </g>
    </g>
   </g>
  </g>
  <g id="text_17">
   <!-- Training VS. Validation Accuracy - Dataset Size = 100.0% -->
   <g transform="translate(21.433984 15.558281) scale(0.11 -0.11)">
    <defs>
     <path id="DejaVuSans-53" d="M 3425 4513 
L 3425 3897 
Q 3066 4069 2747 4153 
Q 2428 4238 2131 4238 
Q 1616 4238 1336 4038 
Q 1056 3838 1056 3469 
Q 1056 3159 1242 3001 
Q 1428 2844 1947 2747 
L 2328 2669 
Q 3034 2534 3370 2195 
Q 3706 1856 3706 1288 
Q 3706 609 3251 259 
Q 2797 -91 1919 -91 
Q 1588 -91 1214 -16 
Q 841 59 441 206 
L 441 856 
Q 825 641 1194 531 
Q 1563 422 1919 422 
Q 2459 422 2753 634 
Q 3047 847 3047 1241 
Q 3047 1584 2836 1778 
Q 2625 1972 2144 2069 
L 1759 2144 
Q 1053 2284 737 2584 
Q 422 2884 422 3419 
Q 422 4038 858 4394 
Q 1294 4750 2059 4750 
Q 2388 4750 2728 4690 
Q 3069 4631 3425 4513 
z
" transform="scale(0.015625)"/>
     <path id="DejaVuSans-2d" d="M 313 2009 
L 1997 2009 
L 1997 1497 
L 313 1497 
L 313 2009 
z
" transform="scale(0.015625)"/>
     <path id="DejaVuSans-44" d="M 1259 4147 
L 1259 519 
L 2022 519 
Q 2988 519 3436 956 
Q 3884 1394 3884 2338 
Q 3884 3275 3436 3711 
Q 2988 4147 2022 4147 
L 1259 4147 
z
M 628 4666 
L 1925 4666 
Q 3281 4666 3915 4102 
Q 4550 3538 4550 2338 
Q 4550 1131 3912 565 
Q 3275 0 1925 0 
L 628 0 
L 628 4666 
z
" transform="scale(0.015625)"/>
     <path id="DejaVuSans-7a" d="M 353 3500 
L 3084 3500 
L 3084 2975 
L 922 459 
L 3084 459 
L 3084 0 
L 275 0 
L 275 525 
L 2438 3041 
L 353 3041 
L 353 3500 
z
" transform="scale(0.015625)"/>
     <path id="DejaVuSans-3d" d="M 678 2906 
L 4684 2906 
L 4684 2381 
L 678 2381 
L 678 2906 
z
M 678 1631 
L 4684 1631 
L 4684 1100 
L 678 1100 
L 678 1631 
z
" transform="scale(0.015625)"/>
     <path id="DejaVuSans-25" d="M 4653 2053 
Q 4381 2053 4226 1822 
Q 4072 1591 4072 1178 
Q 4072 772 4226 539 
Q 4381 306 4653 306 
Q 4919 306 5073 539 
Q 5228 772 5228 1178 
Q 5228 1588 5073 1820 
Q 4919 2053 4653 2053 
z
M 4653 2450 
Q 5147 2450 5437 2106 
Q 5728 1763 5728 1178 
Q 5728 594 5436 251 
Q 5144 -91 4653 -91 
Q 4153 -91 3862 251 
Q 3572 594 3572 1178 
Q 3572 1766 3864 2108 
Q 4156 2450 4653 2450 
z
M 1428 4353 
Q 1159 4353 1004 4120 
Q 850 3888 850 3481 
Q 850 3069 1003 2837 
Q 1156 2606 1428 2606 
Q 1700 2606 1854 2837 
Q 2009 3069 2009 3481 
Q 2009 3884 1853 4118 
Q 1697 4353 1428 4353 
z
M 4250 4750 
L 4750 4750 
L 1831 -91 
L 1331 -91 
L 4250 4750 
z
M 1428 4750 
Q 1922 4750 2215 4408 
Q 2509 4066 2509 3481 
Q 2509 2891 2217 2550 
Q 1925 2209 1428 2209 
Q 931 2209 642 2551 
Q 353 2894 353 3481 
Q 353 4063 643 4406 
Q 934 4750 1428 4750 
z
" transform="scale(0.015625)"/>
    </defs>
    <use xlink:href="#DejaVuSans-54"/>
    <use xlink:href="#DejaVuSans-72" x="46.333984"/>
    <use xlink:href="#DejaVuSans-61" x="87.447266"/>
    <use xlink:href="#DejaVuSans-69" x="148.726562"/>
    <use xlink:href="#DejaVuSans-6e" x="176.509766"/>
    <use xlink:href="#DejaVuSans-69" x="239.888672"/>
    <use xlink:href="#DejaVuSans-6e" x="267.671875"/>
    <use xlink:href="#DejaVuSans-67" x="331.050781"/>
    <use xlink:href="#DejaVuSans-20" x="394.527344"/>
    <use xlink:href="#DejaVuSans-56" x="426.314453"/>
    <use xlink:href="#DejaVuSans-53" x="494.722656"/>
    <use xlink:href="#DejaVuSans-2e" x="558.199219"/>
    <use xlink:href="#DejaVuSans-20" x="589.986328"/>
    <use xlink:href="#DejaVuSans-56" x="621.773438"/>
    <use xlink:href="#DejaVuSans-61" x="682.431641"/>
    <use xlink:href="#DejaVuSans-6c" x="743.710938"/>
    <use xlink:href="#DejaVuSans-69" x="771.494141"/>
    <use xlink:href="#DejaVuSans-64" x="799.277344"/>
    <use xlink:href="#DejaVuSans-61" x="862.753906"/>
    <use xlink:href="#DejaVuSans-74" x="924.033203"/>
    <use xlink:href="#DejaVuSans-69" x="963.242188"/>
    <use xlink:href="#DejaVuSans-6f" x="991.025391"/>
    <use xlink:href="#DejaVuSans-6e" x="1052.207031"/>
    <use xlink:href="#DejaVuSans-20" x="1115.585938"/>
    <use xlink:href="#DejaVuSans-41" x="1147.373047"/>
    <use xlink:href="#DejaVuSans-63" x="1214.03125"/>
    <use xlink:href="#DejaVuSans-63" x="1269.011719"/>
    <use xlink:href="#DejaVuSans-75" x="1323.992188"/>
    <use xlink:href="#DejaVuSans-72" x="1387.371094"/>
    <use xlink:href="#DejaVuSans-61" x="1428.484375"/>
    <use xlink:href="#DejaVuSans-63" x="1489.763672"/>
    <use xlink:href="#DejaVuSans-79" x="1544.744141"/>
    <use xlink:href="#DejaVuSans-20" x="1603.923828"/>
    <use xlink:href="#DejaVuSans-2d" x="1635.710938"/>
    <use xlink:href="#DejaVuSans-20" x="1671.794922"/>
    <use xlink:href="#DejaVuSans-44" x="1703.582031"/>
    <use xlink:href="#DejaVuSans-61" x="1780.583984"/>
    <use xlink:href="#DejaVuSans-74" x="1841.863281"/>
    <use xlink:href="#DejaVuSans-61" x="1881.072266"/>
    <use xlink:href="#DejaVuSans-73" x="1942.351562"/>
    <use xlink:href="#DejaVuSans-65" x="1994.451172"/>
    <use xlink:href="#DejaVuSans-74" x="2055.974609"/>
    <use xlink:href="#DejaVuSans-20" x="2095.183594"/>
    <use xlink:href="#DejaVuSans-53" x="2126.970703"/>
    <use xlink:href="#DejaVuSans-69" x="2190.447266"/>
    <use xlink:href="#DejaVuSans-7a" x="2218.230469"/>
    <use xlink:href="#DejaVuSans-65" x="2270.720703"/>
    <use xlink:href="#DejaVuSans-20" x="2332.244141"/>
    <use xlink:href="#DejaVuSans-3d" x="2364.03125"/>
    <use xlink:href="#DejaVuSans-20" x="2447.820312"/>
    <use xlink:href="#DejaVuSans-31" x="2479.607422"/>
    <use xlink:href="#DejaVuSans-30" x="2543.230469"/>
    <use xlink:href="#DejaVuSans-30" x="2606.853516"/>
    <use xlink:href="#DejaVuSans-2e" x="2670.476562"/>
    <use xlink:href="#DejaVuSans-30" x="2702.263672"/>
    <use xlink:href="#DejaVuSans-25" x="2765.886719"/>
   </g>
  </g>
 </g>
 <defs>
  <clipPath id="pa956113e6a">
   <rect x="43.78125" y="37.296" width="279" height="202.464"/>
  </clipPath>
 </defs>
</svg>
