<?xml version="1.0" encoding="utf-8" standalone="no"?>
<!DOCTYPE svg PUBLIC "-//W3C//DTD SVG 1.1//EN"
  "http://www.w3.org/Graphics/SVG/1.1/DTD/svg11.dtd">
<svg xmlns:xlink="http://www.w3.org/1999/xlink" width="339.829141pt" height="277.31625pt" viewBox="0 0 339.829141 277.31625" xmlns="http://www.w3.org/2000/svg" version="1.1">
 <metadata>
  <rdf:RDF xmlns:dc="http://purl.org/dc/elements/1.1/" xmlns:cc="http://creativecommons.org/ns#" xmlns:rdf="http://www.w3.org/1999/02/22-rdf-syntax-ns#">
   <cc:Work>
    <dc:type rdf:resource="http://purl.org/dc/dcmitype/StillImage"/>
    <dc:date>2026-06-11T10:47:25.119191</dc:date>
    <dc:format>image/svg+xml</dc:format>
    <dc:creator>
     <cc:Agent>
      <dc:title>Matplotlib v3.8.4, https://matplotlib.org/</dc:title>
     </cc:Agent>
    </dc:creator>
   </cc:Work>
  </rdf:RDF>
 </metadata>
 <defs>
  <style type="text/css">*{stroke-linejoin: round; stroke-linecap: butt}</style>
 </defs>
 <g id="figure_1">
  <g id="patch_1">
   <path d="M 0 277.31625 
L 339.829141 277.31625 
L 339.829141 0 
L 0 0 
z
" style="fill: #ffffff"/>
  </g>
  <g id="axes_1">
   <g id="patch_2">
    <path d="M 43.78125 239.76 
L 322.78125 239.76 
L 322.78125 37.296 
L 43.78125 37.296 
z
" style="fill: #ffffff"/>
   </g>
   <g id="matplotlib.axis_1">
    <g id="xtick_1">
     <g id="line2d_1">
      <path d="M 56.209178 239.76 
L 56.209178 37.296 
" clip-path="url(#p06684b7ba7)" style="fill: none; stroke-dasharray: 2.96,1.28; stroke-dashoffset: 0; stroke: #b0b0b0; stroke-opacity: 0.4; stroke-width: 0.8"/>
     </g>
     <g id="line2d_2">
      <defs>
       <path id="ma00b660084" d="M 0 0 
L 0 3.5 
" style="stroke: #000000; stroke-width: 0.8"/>
      </defs>
      <g>
       <use xlink:href="#ma00b660084" x="56.209178" y="239.76" style="stroke: #000000; stroke-width: 0.8"/>
      </g>
     </g>
     <g id="text_1">
      <!-- 0 -->
      <g transform="translate(53.027928 254.358437) scale(0.1 -0.1)">
       <defs>
        <path id="DejaVuSans-30" d="M 2034 4250 
Q 1547 4250 1301 3770 
Q 1056 3291 1056 2328 
Q 1056 1369 1301 889 
Q 1547 409 2034 409 
Q 2525 409 2770 889 
Q 3016 1369 3016 2328 
Q 3016 3291 2770 3770 
Q 2525 4250 2034 4250 
z
M 2034 4750 
Q 2819 4750 3233 4129 
Q 3647 3509 3647 2328 
Q 3647 1150 3233 529 
Q 2819 -91 2034 -91 
Q 1250 -91 836 529 
Q 422 1150 422 2328 
Q 422 3509 836 4129 
Q 1250 4750 2034 4750 
z
" transform="scale(0.015625)"/>
       </defs>
       <use xlink:href="#DejaVuSans-30"/>
      </g>
     </g>
    </g>
    <g id="xtick_2">
     <g id="line2d_3">
      <path d="M 106.987229 239.76 
L 106.987229 37.296 
" clip-path="url(#p06684b7ba7)" style="fill: none; stroke-dasharray: 2.96,1.28; stroke-dashoffset: 0; stroke: #b0b0b0; stroke-opacity: 0.4; stroke-width: 0.8"/>
     </g>
     <g id="line2d_4">
      <g>
       <use xlink:href="#ma00b660084" x="106.987229" y="239.76" style="stroke: #000000; stroke-width: 0.8"/>
      </g>
     </g>
     <g id="text_2">
      <!-- 200 -->
      <g transform="translate(97.443479 254.358437) scale(0.1 -0.1)">
       <defs>
        <path id="DejaVuSans-32" d="M 1228 531 
L 3431 531 
L 3431 0 
L 469 0 
L 469 531 
Q 828 903 1448 1529 
Q 2069 2156 2228 2338 
Q 2531 2678 2651 2914 
Q 2772 3150 2772 3378 
Q 2772 3750 2511 3984 
Q 2250 4219 1831 4219 
Q 1534 4219 1204 4116 
Q 875 4013 500 3803 
L 500 4441 
Q 881 4594 1212 4672 
Q 1544 4750 1819 4750 
Q 2544 4750 2975 4387 
Q 3406 4025 3406 3419 
Q 3406 3131 3298 2873 
Q 3191 2616 2906 2266 
Q 2828 2175 2409 1742 
Q 1991 1309 1228 531 
z
" transform="scale(0.015625)"/>
       </defs>
       <use xlink:href="#DejaVuSans-32"/>
       <use xlink:href="#DejaVuSans-30" x="63.623047"/>
       <use xlink:href="#DejaVuSans-30" x="127.246094"/>
      </g>
     </g>
    </g>
    <g id="xtick_3">
     <g id="line2d_5">
      <path d="M 157.765279 239.76 
L 157.765279 37.296 
" clip-path="url(#p06684b7ba7)" style="fill: none; stroke-dasharray: 2.96,1.28; stroke-dashoffset: 0; stroke: #b0b0b0; stroke-opacity: 0.4; stroke-width: 0.8"/>
     </g>
     <g id="line2d_6">
      <g>
       <use xlink:href="#ma00b660084" x="157.765279" y="239.76" style="stroke: #000000; stroke-width: 0.8"/>
      </g>
     </g>
     <g id="text_3">
      <!-- 400 -->
      <g transform="translate(148.221529 254.358437) scale(0.1 -0.1)">
       <defs>
        <path id="DejaVuSans-34" d="M 2419 4116 
L 825 1625 
L 2419 1625 
L 2419 4116 
z
M 2253 4666 
L 3047 4666 
L 3047 1625 
L 3713 1625 
L 3713 1100 
L 3047 1100 
L 3047 0 
L 2419 0 
L 2419 1100 
L 313 1100 
L 313 1709 
L 2253 4666 
z
" transform="scale(0.015625)"/>
       </defs>
       <use xlink:href="#DejaVuSans-34"/>
       <use xlink:href="#DejaVuSans-30" x="63.623047"/>
       <use xlink:href="#DejaVuSans-30" x="127.246094"/>
      </g>
     </g>
    </g>
    <g id="xtick_4">
     <g id="line2d_7">
      <path d="M 208.54333 239.76 
L 208.54333 37.296 
" clip-path="url(#p06684b7ba7)" style="fill: none; stroke-dasharray: 2.96,1.28; stroke-dashoffset: 0; stroke: #b0b0b0; stroke-opacity: 0.4; stroke-width: 0.8"/>
     </g>
     <g id="line2d_8">
      <g>
       <use xlink:href="#ma00b660084" x="208.54333" y="239.76" style="stroke: #000000; stroke-width: 0.8"/>
      </g>
     </g>
     <g id="text_4">
      <!-- 600 -->
      <g transform="translate(198.99958 254.358437) scale(0.1 -0.1)">
       <defs>
        <path id="DejaVuSans-36" d="M 2113 2584 
Q 1688 2584 1439 2293 
Q 1191 2003 1191 1497 
Q 1191 994 1439 701 
Q 1688 409 2113 409 
Q 2538 409 2786 701 
Q 3034 994 3034 1497 
Q 3034 2003 2786 2293 
Q 2538 2584 2113 2584 
z
M 3366 4563 
L 3366 3988 
Q 3128 4100 2886 4159 
Q 2644 4219 2406 4219 
Q 1781 4219 1451 3797 
Q 1122 3375 1075 2522 
Q 1259 2794 1537 2939 
Q 1816 3084 2150 3084 
Q 2853 3084 3261 2657 
Q 3669 2231 3669 1497 
Q 3669 778 3244 343 
Q 2819 -91 2113 -91 
Q 1303 -91 875 529 
Q 447 1150 447 2328 
Q 447 3434 972 4092 
Q 1497 4750 2381 4750 
Q 2619 4750 2861 4703 
Q 3103 4656 3366 4563 
z
" transform="scale(0.015625)"/>
       </defs>
       <use xlink:href="#DejaVuSans-36"/>
       <use xlink:href="#DejaVuSans-30" x="63.623047"/>
       <use xlink:href="#DejaVuSans-30" x="127.246094"/>
      </g>
     </g>
    </g>
    <g id="xtick_5">
     <g id="line2d_9">
      <path d="M 259.321381 239.76 
L 259.321381 37.296 
" clip-path="url(#p06684b7ba7)" style="fill: none; stroke-dasharray: 2.96,1.28; stroke-dashoffset: 0; stroke: #b0b0b0; stroke-opacity: 0.4; stroke-width: 0.8"/>
     </g>
     <g id="line2d_10">
      <g>
       <use xlink:href="#ma00b660084" x="259.321381" y="239.76" style="stroke: #000000; stroke-width: 0.8"/>
      </g>
     </g>
     <g id="text_5">
      <!-- 800 -->
      <g transform="translate(249.777631 254.358437) scale(0.1 -0.1)">
       <defs>
        <path id="DejaVuSans-38" d="M 2034 2216 
Q 1584 2216 1326 1975 
Q 1069 1734 1069 1313 
Q 1069 891 1326 650 
Q 1584 409 2034 409 
Q 2484 409 2743 651 
Q 3003 894 3003 1313 
Q 3003 1734 2745 1975 
Q 2488 2216 2034 2216 
z
M 1403 2484 
Q 997 2584 770 2862 
Q 544 3141 544 3541 
Q 544 4100 942 4425 
Q 1341 4750 2034 4750 
Q 2731 4750 3128 4425 
Q 3525 4100 3525 3541 
Q 3525 3141 3298 2862 
Q 3072 2584 2669 2484 
Q 3125 2378 3379 2068 
Q 3634 1759 3634 1313 
Q 3634 634 3220 271 
Q 2806 -91 2034 -91 
Q 1263 -91 848 271 
Q 434 634 434 1313 
Q 434 1759 690 2068 
Q 947 2378 1403 2484 
z
M 1172 3481 
Q 1172 3119 1398 2916 
Q 1625 2713 2034 2713 
Q 2441 2713 2670 2916 
Q 2900 3119 2900 3481 
Q 2900 3844 2670 4047 
Q 2441 4250 2034 4250 
Q 1625 4250 1398 4047 
Q 1172 3844 1172 3481 
z
" transform="scale(0.015625)"/>
       </defs>
       <use xlink:href="#DejaVuSans-38"/>
       <use xlink:href="#DejaVuSans-30" x="63.623047"/>
       <use xlink:href="#DejaVuSans-30" x="127.246094"/>
      </g>
     </g>
    </g>
    <g id="xtick_6">
     <g id="line2d_11">
      <path d="M 310.099432 239.76 
L 310.099432 37.296 
" clip-path="url(#p06684b7ba7)" style="fill: none; stroke-dasharray: 2.96,1.28; stroke-dashoffset: 0; stroke: #b0b0b0; stroke-opacity: 0.4; stroke-width: 0.8"/>
     </g>
     <g id="line2d_12">
      <g>
       <use xlink:href="#ma00b660084" x="310.099432" y="239.76" style="stroke: #000000; stroke-width: 0.8"/>
      </g>
     </g>
     <g id="text_6">
      <!-- 1000 -->
      <g transform="translate(297.374432 254.358437) scale(0.1 -0.1)">
       <defs>
        <path id="DejaVuSans-31" d="M 794 531 
L 1825 531 
L 1825 4091 
L 703 3866 
L 703 4441 
L 1819 4666 
L 2450 4666 
L 2450 531 
L 3481 531 
L 3481 0 
L 794 0 
L 794 531 
z
" transform="scale(0.015625)"/>
       </defs>
       <use xlink:href="#DejaVuSans-31"/>
       <use xlink:href="#DejaVuSans-30" x="63.623047"/>
       <use xlink:href="#DejaVuSans-30" x="127.246094"/>
       <use xlink:href="#DejaVuSans-30" x="190.869141"/>
      </g>
     </g>
    </g>
    <g id="text_7">
     <!-- Epochs -->
     <g transform="translate(165.365625 268.036562) scale(0.1 -0.1)">
      <defs>
       <path id="DejaVuSans-45" d="M 628 4666 
L 3578 4666 
L 3578 4134 
L 1259 4134 
L 1259 2753 
L 3481 2753 
L 3481 2222 
L 1259 2222 
L 1259 531 
L 3634 531 
L 3634 0 
L 628 0 
L 628 4666 
z
" transform="scale(0.015625)"/>
       <path id="DejaVuSans-70" d="M 1159 525 
L 1159 -1331 
L 581 -1331 
L 581 3500 
L 1159 3500 
L 1159 2969 
Q 1341 3281 1617 3432 
Q 1894 3584 2278 3584 
Q 2916 3584 3314 3078 
Q 3713 2572 3713 1747 
Q 3713 922 3314 415 
Q 2916 -91 2278 -91 
Q 1894 -91 1617 61 
Q 1341 213 1159 525 
z
M 3116 1747 
Q 3116 2381 2855 2742 
Q 2594 3103 2138 3103 
Q 1681 3103 1420 2742 
Q 1159 2381 1159 1747 
Q 1159 1113 1420 752 
Q 1681 391 2138 391 
Q 2594 391 2855 752 
Q 3116 1113 3116 1747 
z
" transform="scale(0.015625)"/>
       <path id="DejaVuSans-6f" d="M 1959 3097 
Q 1497 3097 1228 2736 
Q 959 2375 959 1747 
Q 959 1119 1226 758 
Q 1494 397 1959 397 
Q 2419 397 2687 759 
Q 2956 1122 2956 1747 
Q 2956 2369 2687 2733 
Q 2419 3097 1959 3097 
z
M 1959 3584 
Q 2709 3584 3137 3096 
Q 3566 2609 3566 1747 
Q 3566 888 3137 398 
Q 2709 -91 1959 -91 
Q 1206 -91 779 398 
Q 353 888 353 1747 
Q 353 2609 779 3096 
Q 1206 3584 1959 3584 
z
" transform="scale(0.015625)"/>
       <path id="DejaVuSans-63" d="M 3122 3366 
L 3122 2828 
Q 2878 2963 2633 3030 
Q 2388 3097 2138 3097 
Q 1578 3097 1268 2742 
Q 959 2388 959 1747 
Q 959 1106 1268 751 
Q 1578 397 2138 397 
Q 2388 397 2633 464 
Q 2878 531 3122 666 
L 3122 134 
Q 2881 22 2623 -34 
Q 2366 -91 2075 -91 
Q 1284 -91 818 406 
Q 353 903 353 1747 
Q 353 2603 823 3093 
Q 1294 3584 2113 3584 
Q 2378 3584 2631 3529 
Q 2884 3475 3122 3366 
z
" transform="scale(0.015625)"/>
       <path id="DejaVuSans-68" d="M 3513 2113 
L 3513 0 
L 2938 0 
L 2938 2094 
Q 2938 2591 2744 2837 
Q 2550 3084 2163 3084 
Q 1697 3084 1428 2787 
Q 1159 2491 1159 1978 
L 1159 0 
L 581 0 
L 581 4863 
L 1159 4863 
L 1159 2956 
Q 1366 3272 1645 3428 
Q 1925 3584 2291 3584 
Q 2894 3584 3203 3211 
Q 3513 2838 3513 2113 
z
" transform="scale(0.015625)"/>
       <path id="DejaVuSans-73" d="M 2834 3397 
L 2834 2853 
Q 2591 2978 2328 3040 
Q 2066 3103 1784 3103 
Q 1356 3103 1142 2972 
Q 928 2841 928 2578 
Q 928 2378 1081 2264 
Q 1234 2150 1697 2047 
L 1894 2003 
Q 2506 1872 2764 1633 
Q 3022 1394 3022 966 
Q 3022 478 2636 193 
Q 2250 -91 1575 -91 
Q 1294 -91 989 -36 
Q 684 19 347 128 
L 347 722 
Q 666 556 975 473 
Q 1284 391 1588 391 
Q 1994 391 2212 530 
Q 2431 669 2431 922 
Q 2431 1156 2273 1281 
Q 2116 1406 1581 1522 
L 1381 1569 
Q 847 1681 609 1914 
Q 372 2147 372 2553 
Q 372 3047 722 3315 
Q 1072 3584 1716 3584 
Q 2034 3584 2315 3537 
Q 2597 3491 2834 3397 
z
" transform="scale(0.015625)"/>
      </defs>
      <use xlink:href="#DejaVuSans-45"/>
      <use xlink:href="#DejaVuSans-70" x="63.183594"/>
      <use xlink:href="#DejaVuSans-6f" x="126.660156"/>
      <use xlink:href="#DejaVuSans-63" x="187.841797"/>
      <use xlink:href="#DejaVuSans-68" x="242.822266"/>
      <use xlink:href="#DejaVuSans-73" x="306.201172"/>
     </g>
    </g>
   </g>
   <g id="matplotlib.axis_2">
    <g id="ytick_1">
     <g id="line2d_13">
      <path d="M 43.78125 228.249954 
L 322.78125 228.249954 
" clip-path="url(#p06684b7ba7)" style="fill: none; stroke-dasharray: 2.96,1.28; stroke-dashoffset: 0; stroke: #b0b0b0; stroke-opacity: 0.4; stroke-width: 0.8"/>
     </g>
     <g id="line2d_14">
      <defs>
       <path id="m563f933258" d="M 0 0 
L -3.5 0 
" style="stroke: #000000; stroke-width: 0.8"/>
      </defs>
      <g>
       <use xlink:href="#m563f933258" x="43.78125" y="228.249954" style="stroke: #000000; stroke-width: 0.8"/>
      </g>
     </g>
     <g id="text_8">
      <!-- 0.5 -->
      <g transform="translate(20.878125 232.049173) scale(0.1 -0.1)">
       <defs>
        <path id="DejaVuSans-2e" d="M 684 794 
L 1344 794 
L 1344 0 
L 684 0 
L 684 794 
z
" transform="scale(0.015625)"/>
        <path id="DejaVuSans-35" d="M 691 4666 
L 3169 4666 
L 3169 4134 
L 1269 4134 
L 1269 2991 
Q 1406 3038 1543 3061 
Q 1681 3084 1819 3084 
Q 2600 3084 3056 2656 
Q 3513 2228 3513 1497 
Q 3513 744 3044 326 
Q 2575 -91 1722 -91 
Q 1428 -91 1123 -41 
Q 819 9 494 109 
L 494 744 
Q 775 591 1075 516 
Q 1375 441 1709 441 
Q 2250 441 2565 725 
Q 2881 1009 2881 1497 
Q 2881 1984 2565 2268 
Q 2250 2553 1709 2553 
Q 1456 2553 1204 2497 
Q 953 2441 691 2322 
L 691 4666 
z
" transform="scale(0.015625)"/>
       </defs>
       <use xlink:href="#DejaVuSans-30"/>
       <use xlink:href="#DejaVuSans-2e" x="63.623047"/>
       <use xlink:href="#DejaVuSans-35" x="95.410156"/>
      </g>
     </g>
    </g>
    <g id="ytick_2">
     <g id="line2d_15">
      <path d="M 43.78125 191.899745 
L 322.78125 191.899745 
" clip-path="url(#p06684b7ba7)" style="fill: none; stroke-dasharray: 2.96,1.28; stroke-dashoffset: 0; stroke: #b0b0b0; stroke-opacity: 0.4; stroke-width: 0.8"/>
     </g>
     <g id="line2d_16">
      <g>
       <use xlink:href="#m563f933258" x="43.78125" y="191.899745" style="stroke: #000000; stroke-width: 0.8"/>
      </g>
     </g>
     <g id="text_9">
      <!-- 0.6 -->
      <g transform="translate(20.878125 195.698964) scale(0.1 -0.1)">
       <use xlink:href="#DejaVuSans-30"/>
       <use xlink:href="#DejaVuSans-2e" x="63.623047"/>
       <use xlink:href="#DejaVuSans-36" x="95.410156"/>
      </g>
     </g>
    </g>
    <g id="ytick_3">
     <g id="line2d_17">
      <path d="M 43.78125 155.549536 
L 322.78125 155.549536 
" clip-path="url(#p06684b7ba7)" style="fill: none; stroke-dasharray: 2.96,1.28; stroke-dashoffset: 0; stroke: #b0b0b0; stroke-opacity: 0.4; stroke-width: 0.8"/>
     </g>
     <g id="line2d_18">
      <g>
       <use xlink:href="#m563f933258" x="43.78125" y="155.549536" style="stroke: #000000; stroke-width: 0.8"/>
      </g>
     </g>
     <g id="text_10">
      <!-- 0.7 -->
      <g transform="translate(20.878125 159.348755) scale(0.1 -0.1)">
       <defs>
        <path id="DejaVuSans-37" d="M 525 4666 
L 3525 4666 
L 3525 4397 
L 1831 0 
L 1172 0 
L 2766 4134 
L 525 4134 
L 525 4666 
z
" transform="scale(0.015625)"/>
       </defs>
       <use xlink:href="#DejaVuSans-30"/>
       <use xlink:href="#DejaVuSans-2e" x="63.623047"/>
       <use xlink:href="#DejaVuSans-37" x="95.410156"/>
      </g>
     </g>
    </g>
    <g id="ytick_4">
     <g id="line2d_19">
      <path d="M 43.78125 119.199327 
L 322.78125 119.199327 
" clip-path="url(#p06684b7ba7)" style="fill: none; stroke-dasharray: 2.96,1.28; stroke-dashoffset: 0; stroke: #b0b0b0; stroke-opacity: 0.4; stroke-width: 0.8"/>
     </g>
     <g id="line2d_20">
      <g>
       <use xlink:href="#m563f933258" x="43.78125" y="119.199327" style="stroke: #000000; stroke-width: 0.8"/>
      </g>
     </g>
     <g id="text_11">
      <!-- 0.8 -->
      <g transform="translate(20.878125 122.998546) scale(0.1 -0.1)">
       <use xlink:href="#DejaVuSans-30"/>
       <use xlink:href="#DejaVuSans-2e" x="63.623047"/>
       <use xlink:href="#DejaVuSans-38" x="95.410156"/>
      </g>
     </g>
    </g>
    <g id="ytick_5">
     <g id="line2d_21">
      <path d="M 43.78125 82.849118 
L 322.78125 82.849118 
" clip-path="url(#p06684b7ba7)" style="fill: none; stroke-dasharray: 2.96,1.28; stroke-dashoffset: 0; stroke: #b0b0b0; stroke-opacity: 0.4; stroke-width: 0.8"/>
     </g>
     <g id="line2d_22">
      <g>
       <use xlink:href="#m563f933258" x="43.78125" y="82.849118" style="stroke: #000000; stroke-width: 0.8"/>
      </g>
     </g>
     <g id="text_12">
      <!-- 0.9 -->
      <g transform="translate(20.878125 86.648337) scale(0.1 -0.1)">
       <defs>
        <path id="DejaVuSans-39" d="M 703 97 
L 703 672 
Q 941 559 1184 500 
Q 1428 441 1663 441 
Q 2288 441 2617 861 
Q 2947 1281 2994 2138 
Q 2813 1869 2534 1725 
Q 2256 1581 1919 1581 
Q 1219 1581 811 2004 
Q 403 2428 403 3163 
Q 403 3881 828 4315 
Q 1253 4750 1959 4750 
Q 2769 4750 3195 4129 
Q 3622 3509 3622 2328 
Q 3622 1225 3098 567 
Q 2575 -91 1691 -91 
Q 1453 -91 1209 -44 
Q 966 3 703 97 
z
M 1959 2075 
Q 2384 2075 2632 2365 
Q 2881 2656 2881 3163 
Q 2881 3666 2632 3958 
Q 2384 4250 1959 4250 
Q 1534 4250 1286 3958 
Q 1038 3666 1038 3163 
Q 1038 2656 1286 2365 
Q 1534 2075 1959 2075 
z
" transform="scale(0.015625)"/>
       </defs>
       <use xlink:href="#DejaVuSans-30"/>
       <use xlink:href="#DejaVuSans-2e" x="63.623047"/>
       <use xlink:href="#DejaVuSans-39" x="95.410156"/>
      </g>
     </g>
    </g>
    <g id="ytick_6">
     <g id="line2d_23">
      <path d="M 43.78125 46.498909 
L 322.78125 46.498909 
" clip-path="url(#p06684b7ba7)" style="fill: none; stroke-dasharray: 2.96,1.28; stroke-dashoffset: 0; stroke: #b0b0b0; stroke-opacity: 0.4; stroke-width: 0.8"/>
     </g>
     <g id="line2d_24">
      <g>
       <use xlink:href="#m563f933258" x="43.78125" y="46.498909" style="stroke: #000000; stroke-width: 0.8"/>
      </g>
     </g>
     <g id="text_13">
      <!-- 1.0 -->
      <g transform="translate(20.878125 50.298128) scale(0.1 -0.1)">
       <use xlink:href="#DejaVuSans-31"/>
       <use xlink:href="#DejaVuSans-2e" x="63.623047"/>
       <use xlink:href="#DejaVuSans-30" x="95.410156"/>
      </g>
     </g>
    </g>
    <g id="text_14">
     <!-- Accuracy -->
     <g transform="translate(14.798438 161.356125) rotate(-90) scale(0.1 -0.1)">
      <defs>
       <path id="DejaVuSans-41" d="M 2188 4044 
L 1331 1722 
L 3047 1722 
L 2188 4044 
z
M 1831 4666 
L 2547 4666 
L 4325 0 
L 3669 0 
L 3244 1197 
L 1141 1197 
L 716 0 
L 50 0 
L 1831 4666 
z
" transform="scale(0.015625)"/>
       <path id="DejaVuSans-75" d="M 544 1381 
L 544 3500 
L 1119 3500 
L 1119 1403 
Q 1119 906 1312 657 
Q 1506 409 1894 409 
Q 2359 409 2629 706 
Q 2900 1003 2900 1516 
L 2900 3500 
L 3475 3500 
L 3475 0 
L 2900 0 
L 2900 538 
Q 2691 219 2414 64 
Q 2138 -91 1772 -91 
Q 1169 -91 856 284 
Q 544 659 544 1381 
z
M 1991 3584 
L 1991 3584 
z
" transform="scale(0.015625)"/>
       <path id="DejaVuSans-72" d="M 2631 2963 
Q 2534 3019 2420 3045 
Q 2306 3072 2169 3072 
Q 1681 3072 1420 2755 
Q 1159 2438 1159 1844 
L 1159 0 
L 581 0 
L 581 3500 
L 1159 3500 
L 1159 2956 
Q 1341 3275 1631 3429 
Q 1922 3584 2338 3584 
Q 2397 3584 2469 3576 
Q 2541 3569 2628 3553 
L 2631 2963 
z
" transform="scale(0.015625)"/>
       <path id="DejaVuSans-61" d="M 2194 1759 
Q 1497 1759 1228 1600 
Q 959 1441 959 1056 
Q 959 750 1161 570 
Q 1363 391 1709 391 
Q 2188 391 2477 730 
Q 2766 1069 2766 1631 
L 2766 1759 
L 2194 1759 
z
M 3341 1997 
L 3341 0 
L 2766 0 
L 2766 531 
Q 2569 213 2275 61 
Q 1981 -91 1556 -91 
Q 1019 -91 701 211 
Q 384 513 384 1019 
Q 384 1609 779 1909 
Q 1175 2209 1959 2209 
L 2766 2209 
L 2766 2266 
Q 2766 2663 2505 2880 
Q 2244 3097 1772 3097 
Q 1472 3097 1187 3025 
Q 903 2953 641 2809 
L 641 3341 
Q 956 3463 1253 3523 
Q 1550 3584 1831 3584 
Q 2591 3584 2966 3190 
Q 3341 2797 3341 1997 
z
" transform="scale(0.015625)"/>
       <path id="DejaVuSans-79" d="M 2059 -325 
Q 1816 -950 1584 -1140 
Q 1353 -1331 966 -1331 
L 506 -1331 
L 506 -850 
L 844 -850 
Q 1081 -850 1212 -737 
Q 1344 -625 1503 -206 
L 1606 56 
L 191 3500 
L 800 3500 
L 1894 763 
L 2988 3500 
L 3597 3500 
L 2059 -325 
z
" transform="scale(0.015625)"/>
      </defs>
      <use xlink:href="#DejaVuSans-41"/>
      <use xlink:href="#DejaVuSans-63" x="66.658203"/>
      <use xlink:href="#DejaVuSans-63" x="121.638672"/>
      <use xlink:href="#DejaVuSans-75" x="176.619141"/>
      <use xlink:href="#DejaVuSans-72" x="239.998047"/>
      <use xlink:href="#DejaVuSans-61" x="281.111328"/>
      <use xlink:href="#DejaVuSans-63" x="342.390625"/>
      <use xlink:href="#DejaVuSans-79" x="397.371094"/>
     </g>
    </g>
   </g>
   <g id="line2d_25">
    <path d="M 56.463068 230.557091 
L 56.716958 224.917421 
L 56.970849 214.919845 
L 57.224739 215.432537 
L 57.478629 217.483328 
L 57.732519 217.226971 
L 58.2403 204.922247 
L 58.49419 202.871456 
L 58.74808 195.437363 
L 59.001971 206.716681 
L 59.255861 189.797682 
L 59.509751 186.46515 
L 60.017532 188.515941 
L 60.271422 179.287392 
L 60.525312 175.698524 
L 61.033093 153.652559 
L 61.286983 149.550977 
L 61.794764 131.862929 
L 62.048654 145.19306 
L 62.302544 128.017704 
L 62.556434 124.685193 
L 62.810325 124.428836 
L 63.064215 122.890738 
L 63.318105 122.121688 
L 63.571995 126.22327 
L 63.825886 116.482029 
L 64.587556 108.535223 
L 64.841447 110.329678 
L 65.603117 106.228096 
L 65.857008 100.588437 
L 66.110898 103.664613 
L 66.364788 99.050339 
L 66.618678 102.382871 
L 66.872569 101.10113 
L 67.126459 104.177305 
L 67.634239 98.537646 
L 67.88813 92.897987 
L 68.39591 97.51224 
L 68.6498 97.768597 
L 68.903691 96.230498 
L 69.411471 91.359889 
L 69.665361 93.41068 
L 69.919252 89.565455 
L 70.173142 93.154323 
L 70.427032 94.179729 
L 70.680922 90.334482 
L 70.934813 91.872581 
L 71.188703 96.486855 
L 71.442593 99.050339 
L 71.696483 89.82179 
L 71.950374 98.024954 
L 72.458154 85.976565 
L 72.712044 88.796405 
L 72.965935 86.489257 
L 73.219825 85.463873 
L 73.473715 85.207516 
L 73.727605 83.925774 
L 73.981496 79.567857 
L 74.235386 80.080549 
L 74.489276 86.489257 
L 74.743166 88.540048 
L 74.997057 81.618648 
L 75.250947 80.593241 
L 75.504837 76.235324 
L 75.758727 78.542472 
L 76.012618 79.824214 
L 76.266508 76.235324 
L 76.520398 76.491681 
L 76.774288 73.415506 
L 77.028179 82.387697 
L 77.282069 75.722632 
L 77.535959 78.286115 
L 77.78985 86.232922 
L 78.04374 77.773423 
L 78.29763 77.26073 
L 78.55152 72.646456 
L 79.059301 74.953582 
L 79.567081 69.057567 
L 79.820972 71.62105 
L 80.074862 69.057567 
L 80.328752 70.852001 
L 80.582642 83.413082 
L 80.836533 70.082973 
L 81.090423 72.646456 
L 81.344313 67.263133 
L 81.598203 70.595665 
L 81.852094 65.981391 
L 82.359874 61.623474 
L 82.613764 63.417908 
L 82.867655 64.186957 
L 83.121545 61.367117 
L 83.375435 62.905215 
L 83.629325 67.263133 
L 83.883216 66.237748 
L 84.137106 62.392523 
L 84.390996 60.854424 
L 84.644886 61.11076 
L 84.898777 60.598067 
L 85.152667 58.547276 
L 85.406557 58.803633 
L 85.914338 60.598067 
L 86.168228 62.136166 
L 86.422118 67.263133 
L 86.676008 57.009199 
L 86.929899 63.9306 
L 87.183789 59.572683 
L 87.437679 62.136166 
L 87.94546 58.034584 
L 88.19935 57.521892 
L 88.45324 60.854424 
L 88.70713 54.445716 
L 88.961021 60.598067 
L 89.468801 55.471101 
L 89.722691 57.009199 
L 89.976582 54.189359 
L 90.230472 57.009199 
L 90.484362 61.367117 
L 90.738252 61.367117 
L 90.992143 57.009199 
L 91.246033 57.009199 
L 91.499923 59.316326 
L 91.753813 55.471101 
L 92.007704 56.496507 
L 92.261594 57.009199 
L 92.515484 54.702051 
L 92.769374 57.009199 
L 93.023265 57.521892 
L 93.277155 57.521892 
L 93.531045 57.009199 
L 93.784936 55.214765 
L 94.292716 57.009199 
L 94.800497 54.702051 
L 95.054387 54.702051 
L 95.308277 52.907617 
L 95.562167 54.189359 
L 95.816058 52.394925 
L 96.069948 53.163974 
L 96.323838 52.394925 
L 96.577728 54.189359 
L 96.831619 51.625876 
L 97.085509 53.163974 
L 97.339399 53.163974 
L 97.593289 51.882233 
L 98.10107 53.42031 
L 98.35496 52.651282 
L 98.60885 54.189359 
L 98.862741 52.651282 
L 99.116631 52.138568 
L 99.370521 54.189359 
L 99.624411 51.625876 
L 99.878302 51.882233 
L 100.132192 53.676667 
L 100.386082 53.42031 
L 100.639972 51.625876 
L 100.893863 53.933024 
L 101.147753 52.138568 
L 101.401643 52.907617 
L 101.655533 52.651282 
L 101.909424 52.138568 
L 102.163314 50.344134 
L 102.417204 52.394925 
L 102.924985 53.933024 
L 103.178875 53.42031 
L 103.686655 49.575085 
L 103.940546 52.394925 
L 104.194436 50.344134 
L 104.448326 50.344134 
L 104.702216 51.882233 
L 104.956107 50.087777 
L 105.209997 51.625876 
L 105.463887 52.138568 
L 105.717777 50.600491 
L 105.971668 52.907617 
L 106.225558 50.600491 
L 106.479448 53.42031 
L 106.733338 52.394925 
L 106.987229 53.933024 
L 107.495009 48.806035 
L 107.748899 51.882233 
L 108.00279 50.344134 
L 108.25668 51.369519 
L 108.51057 50.856826 
L 108.76446 50.087777 
L 109.018351 51.369519 
L 109.272241 50.087777 
L 109.526131 51.882233 
L 109.780021 50.856826 
L 110.033912 51.369519 
L 110.287802 50.087777 
L 110.541692 50.087777 
L 110.795583 50.856826 
L 111.049473 50.087777 
L 111.303363 52.138568 
L 111.557253 50.344134 
L 111.811144 51.369519 
L 112.065034 51.113183 
L 112.318924 50.600491 
L 112.572814 50.856826 
L 113.080595 50.344134 
L 113.334485 50.600491 
L 113.588375 51.369519 
L 113.842266 50.600491 
L 114.350046 48.293343 
L 114.603936 50.600491 
L 114.857827 49.831442 
L 115.365607 51.625876 
L 115.873388 48.5497 
L 116.127278 49.062392 
L 116.381168 52.394925 
L 116.635058 50.344134 
L 116.888949 50.344134 
L 117.396729 49.318749 
L 117.650619 51.625876 
L 117.90451 49.062392 
L 118.1584 48.037008 
L 118.41229 51.113183 
L 118.66618 50.856826 
L 118.920071 50.344134 
L 119.173961 51.882233 
L 119.681741 49.575085 
L 119.935632 49.062392 
L 120.189522 50.600491 
L 120.443412 49.062392 
L 120.697302 50.856826 
L 120.951193 48.806035 
L 121.205083 49.831442 
L 121.458973 48.037008 
L 121.712863 49.575085 
L 121.966754 49.575085 
L 122.474534 50.600491 
L 122.728424 49.318749 
L 122.982315 53.42031 
L 123.236205 49.831442 
L 123.490095 49.062392 
L 123.743985 49.062392 
L 123.997876 49.318749 
L 124.251766 53.42031 
L 124.759546 48.5497 
L 125.013437 50.087777 
L 125.267327 48.806035 
L 125.521217 48.5497 
L 126.028998 49.062392 
L 126.282888 48.037008 
L 126.536778 50.856826 
L 126.790669 49.831442 
L 127.044559 48.293343 
L 127.298449 49.575085 
L 127.552339 48.5497 
L 127.80623 49.575085 
L 128.06012 49.575085 
L 128.31401 50.087777 
L 128.5679 48.5497 
L 128.821791 49.318749 
L 129.075681 47.780651 
L 129.329571 48.806035 
L 129.583461 51.113183 
L 129.837352 49.575085 
L 130.091242 51.113183 
L 130.345132 49.062392 
L 130.599022 50.087777 
L 130.852913 48.293343 
L 131.106803 49.062392 
L 131.360693 47.780651 
L 131.614583 49.318749 
L 131.868474 48.293343 
L 132.122364 49.831442 
L 132.376254 50.600491 
L 132.630144 48.293343 
L 132.884035 49.575085 
L 133.137925 49.831442 
L 133.391815 49.062392 
L 133.645705 48.806035 
L 133.899596 50.344134 
L 134.153486 49.318749 
L 134.407376 49.318749 
L 134.661266 49.575085 
L 134.915157 48.5497 
L 135.169047 51.625876 
L 135.422937 49.062392 
L 135.930718 50.087777 
L 136.184608 49.575085 
L 136.438498 50.087777 
L 136.692388 50.344134 
L 136.946279 47.780651 
L 137.200169 49.318749 
L 137.454059 48.5497 
L 137.707949 49.062392 
L 137.96184 50.344134 
L 138.21573 49.575085 
L 138.46962 49.575085 
L 138.72351 49.062392 
L 138.977401 48.037008 
L 139.231291 50.087777 
L 139.485181 49.318749 
L 139.739071 48.037008 
L 140.246852 50.344134 
L 140.500742 48.5497 
L 140.754632 47.780651 
L 141.008523 47.524294 
L 141.262413 49.831442 
L 141.770193 48.293343 
L 142.024084 49.575085 
L 142.277974 48.806035 
L 142.531864 49.318749 
L 142.785755 48.806035 
L 143.039645 48.5497 
L 143.547425 50.087777 
L 143.801316 49.062392 
L 144.055206 49.575085 
L 144.309096 47.780651 
L 144.562986 47.524294 
L 144.816877 49.318749 
L 145.070767 49.575085 
L 145.324657 49.318749 
L 145.578547 47.524294 
L 145.832438 48.5497 
L 146.086328 48.037008 
L 146.340218 50.600491 
L 146.594108 49.318749 
L 147.101889 48.293343 
L 147.355779 49.062392 
L 147.609669 48.293343 
L 147.86356 49.831442 
L 148.11745 49.575085 
L 148.37134 49.062392 
L 148.62523 48.037008 
L 148.879121 49.575085 
L 149.133011 50.344134 
L 149.386901 48.293343 
L 149.640791 48.5497 
L 150.148572 48.037008 
L 150.402462 48.806035 
L 150.656352 48.5497 
L 151.164133 48.5497 
L 151.418023 49.318749 
L 151.925804 48.293343 
L 152.179694 48.037008 
L 152.433584 48.293343 
L 152.687474 49.318749 
L 152.941365 48.806035 
L 153.449145 48.806035 
L 153.703035 48.037008 
L 153.956926 48.806035 
L 154.210816 48.806035 
L 154.464706 49.318749 
L 154.718596 48.5497 
L 154.972487 49.831442 
L 155.226377 49.831442 
L 155.480267 50.087777 
L 155.734157 49.575085 
L 155.988048 50.600491 
L 156.241938 47.780651 
L 156.495828 49.062392 
L 156.749718 47.780651 
L 157.257499 50.344134 
L 157.511389 48.037008 
L 157.765279 49.318749 
L 158.01917 48.5497 
L 158.27306 48.806035 
L 158.52695 48.806035 
L 158.78084 49.575085 
L 159.034731 49.575085 
L 159.288621 49.318749 
L 159.542511 50.087777 
L 159.796402 47.524294 
L 160.050292 49.062392 
L 160.304182 49.318749 
L 160.558072 48.806035 
L 160.811963 47.524294 
L 161.065853 50.344134 
L 161.319743 48.293343 
L 161.573633 49.062392 
L 161.827524 50.600491 
L 162.081414 49.575085 
L 162.335304 50.087777 
L 162.589194 49.831442 
L 162.843085 49.062392 
L 163.096975 48.806035 
L 163.350865 49.318749 
L 163.604755 48.5497 
L 164.112536 49.575085 
L 164.366426 49.575085 
L 164.620316 48.293343 
L 164.874207 49.831442 
L 165.381987 49.318749 
L 165.635877 47.780651 
L 165.889768 49.062392 
L 166.143658 49.062392 
L 166.651438 49.575085 
L 166.905329 48.5497 
L 167.159219 48.037008 
L 167.413109 48.293343 
L 167.666999 48.293343 
L 168.17478 49.831442 
L 168.42867 48.806035 
L 168.68256 49.318749 
L 168.936451 49.062392 
L 169.190341 48.293343 
L 169.444231 50.344134 
L 169.698121 49.062392 
L 169.952012 48.806035 
L 170.205902 50.087777 
L 170.459792 48.293343 
L 170.713682 49.831442 
L 170.967573 49.062392 
L 171.221463 50.087777 
L 171.475353 49.831442 
L 171.729243 50.344134 
L 171.983134 48.806035 
L 172.237024 49.062392 
L 172.490914 50.344134 
L 172.744804 49.318749 
L 172.998695 47.780651 
L 173.252585 48.037008 
L 173.506475 48.806035 
L 174.014256 49.318749 
L 174.268146 49.318749 
L 174.522036 50.087777 
L 175.029817 48.037008 
L 175.283707 49.062392 
L 175.537597 49.575085 
L 176.045378 48.037008 
L 176.553158 49.318749 
L 176.807049 48.037008 
L 177.060939 48.806035 
L 177.314829 48.293343 
L 177.568719 48.5497 
L 177.82261 49.318749 
L 178.0765 48.5497 
L 178.33039 48.293343 
L 178.838171 49.575085 
L 179.345951 48.293343 
L 180.107622 49.062392 
L 180.361512 50.087777 
L 180.615402 48.5497 
L 180.869293 48.293343 
L 181.123183 47.780651 
L 181.377073 49.062392 
L 181.884854 49.062392 
L 182.138744 48.037008 
L 182.392634 48.037008 
L 182.646524 48.293343 
L 182.900415 49.318749 
L 183.154305 48.293343 
L 183.408195 49.575085 
L 183.662085 49.318749 
L 183.915976 47.524294 
L 184.423756 49.575085 
L 184.677646 49.318749 
L 184.931537 49.575085 
L 185.185427 49.062392 
L 185.439317 48.806035 
L 185.947098 50.344134 
L 186.200988 49.318749 
L 186.454878 49.575085 
L 186.708768 48.806035 
L 186.962659 50.600491 
L 187.216549 48.5497 
L 187.470439 50.344134 
L 187.724329 50.856826 
L 187.97822 47.780651 
L 188.23211 47.267958 
L 188.486 47.267958 
L 188.73989 50.087777 
L 188.993781 49.318749 
L 189.247671 50.087777 
L 189.501561 48.806035 
L 189.755451 50.600491 
L 190.009342 49.575085 
L 190.263232 49.831442 
L 190.517122 48.806035 
L 190.771012 49.831442 
L 191.024903 48.293343 
L 191.278793 47.780651 
L 191.532683 49.575085 
L 191.786574 49.575085 
L 192.040464 48.806035 
L 192.294354 49.062392 
L 192.802135 48.5497 
L 193.056025 49.575085 
L 193.309915 48.293343 
L 193.563805 49.062392 
L 193.817696 48.037008 
L 194.071586 49.575085 
L 194.325476 49.318749 
L 194.579366 49.575085 
L 194.833257 48.293343 
L 195.087147 49.062392 
L 195.341037 47.524294 
L 195.594927 48.037008 
L 195.848818 48.806035 
L 196.102708 47.780651 
L 196.356598 49.062392 
L 196.610488 49.318749 
L 196.864379 49.062392 
L 197.118269 47.524294 
L 197.372159 49.831442 
L 197.87994 48.5497 
L 198.13383 48.806035 
L 198.38772 48.293343 
L 198.64161 48.806035 
L 198.895501 48.806035 
L 199.149391 48.5497 
L 199.403281 49.318749 
L 199.911062 49.318749 
L 200.164952 48.293343 
L 200.418842 48.5497 
L 200.672732 48.293343 
L 200.926623 49.318749 
L 201.180513 49.318749 
L 201.434403 49.062392 
L 201.688293 49.318749 
L 201.942184 50.600491 
L 202.196074 47.780651 
L 202.449964 49.575085 
L 202.957745 49.062392 
L 203.211635 50.600491 
L 203.719415 48.037008 
L 203.973306 49.575085 
L 204.227196 49.831442 
L 204.481086 48.293343 
L 204.734976 49.062392 
L 204.988867 49.062392 
L 205.242757 49.575085 
L 205.496647 49.062392 
L 205.750537 49.318749 
L 206.004428 47.780651 
L 206.258318 48.5497 
L 206.512208 50.344134 
L 206.766098 48.293343 
L 207.019989 47.267958 
L 207.273879 49.318749 
L 207.527769 48.5497 
L 207.78166 49.575085 
L 208.03555 48.806035 
L 208.28944 49.575085 
L 208.797221 48.5497 
L 209.051111 49.575085 
L 209.305001 49.575085 
L 209.558891 50.087777 
L 209.812782 48.293343 
L 210.066672 49.062392 
L 210.320562 49.318749 
L 210.574452 48.806035 
L 210.828343 50.344134 
L 211.082233 48.293343 
L 211.336123 48.293343 
L 211.590013 49.062392 
L 211.843904 48.5497 
L 212.097794 49.318749 
L 212.351684 48.293343 
L 212.605574 49.062392 
L 212.859465 48.037008 
L 213.367245 49.318749 
L 213.621135 48.5497 
L 213.875026 48.806035 
L 214.128916 49.318749 
L 214.382806 48.293343 
L 214.636696 47.780651 
L 215.144477 49.831442 
L 215.398367 49.831442 
L 215.652257 50.600491 
L 215.906148 48.293343 
L 216.160038 47.780651 
L 216.667818 49.318749 
L 216.921709 48.293343 
L 217.175599 48.293343 
L 217.429489 49.062392 
L 217.683379 47.524294 
L 217.93727 47.780651 
L 218.19116 49.318749 
L 218.44505 48.037008 
L 218.69894 48.037008 
L 218.952831 48.5497 
L 219.206721 48.293343 
L 219.460611 48.806035 
L 219.714501 49.831442 
L 219.968392 49.062392 
L 220.222282 49.318749 
L 220.476172 50.087777 
L 220.730062 47.780651 
L 220.983953 48.037008 
L 221.237843 49.318749 
L 221.491733 49.575085 
L 221.745623 47.524294 
L 221.999514 47.780651 
L 222.253404 48.806035 
L 222.507294 48.806035 
L 222.761184 49.831442 
L 223.015075 48.806035 
L 223.268965 48.806035 
L 223.522855 49.318749 
L 223.776745 49.062392 
L 224.030636 49.062392 
L 224.284526 48.037008 
L 224.538416 51.369519 
L 225.046197 48.5497 
L 225.300087 48.037008 
L 225.553977 50.344134 
L 225.807868 48.806035 
L 226.061758 48.5497 
L 226.315648 49.062392 
L 226.569538 50.600491 
L 226.823429 48.806035 
L 227.331209 48.806035 
L 227.585099 49.318749 
L 227.83899 50.344134 
L 228.09288 48.806035 
L 228.34677 48.806035 
L 228.60066 47.780651 
L 228.854551 49.831442 
L 229.108441 48.5497 
L 229.362331 49.318749 
L 229.616221 48.293343 
L 229.870112 49.575085 
L 230.124002 47.267958 
L 230.377892 48.806035 
L 230.631782 49.575085 
L 230.885673 49.062392 
L 231.139563 48.293343 
L 231.393453 50.344134 
L 231.647343 48.293343 
L 231.901234 49.575085 
L 232.155124 48.293343 
L 232.662904 49.831442 
L 232.916795 48.5497 
L 233.424575 49.062392 
L 233.678465 48.5497 
L 233.932356 49.575085 
L 234.440136 47.267958 
L 234.694026 48.293343 
L 234.947917 50.344134 
L 235.709587 48.037008 
L 235.963478 49.062392 
L 236.217368 49.575085 
L 236.471258 48.806035 
L 236.725148 49.575085 
L 236.979039 48.806035 
L 237.486819 49.831442 
L 237.740709 49.575085 
L 237.9946 48.5497 
L 238.50238 49.575085 
L 238.75627 50.856826 
L 239.010161 48.806035 
L 239.264051 49.062392 
L 239.517941 46.755266 
L 239.771831 48.293343 
L 240.025722 48.806035 
L 240.279612 50.344134 
L 240.533502 49.318749 
L 240.787393 49.318749 
L 241.041283 48.037008 
L 241.549063 49.831442 
L 241.802954 49.062392 
L 242.056844 50.087777 
L 242.310734 48.5497 
L 242.564624 48.806035 
L 243.072405 48.293343 
L 243.326295 49.575085 
L 243.580185 49.575085 
L 243.834076 48.293343 
L 244.087966 48.806035 
L 244.595746 49.318749 
L 244.849637 47.780651 
L 245.103527 48.037008 
L 245.357417 49.318749 
L 245.611307 48.806035 
L 246.372978 50.344134 
L 246.626868 48.806035 
L 246.880759 48.037008 
L 247.134649 49.318749 
L 247.388539 48.5497 
L 247.642429 49.318749 
L 247.89632 48.037008 
L 248.15021 49.831442 
L 248.4041 48.293343 
L 248.911881 47.780651 
L 249.165771 48.293343 
L 249.419661 47.780651 
L 249.673551 47.780651 
L 249.927442 49.062392 
L 250.181332 48.037008 
L 250.435222 49.062392 
L 250.689112 48.5497 
L 250.943003 50.087777 
L 251.196893 48.5497 
L 251.450783 49.575085 
L 251.704673 49.318749 
L 251.958564 47.267958 
L 252.212454 48.037008 
L 252.466344 50.087777 
L 252.720234 48.293343 
L 252.974125 49.575085 
L 253.228015 49.575085 
L 253.481905 49.062392 
L 253.735795 49.062392 
L 253.989686 49.575085 
L 254.243576 48.5497 
L 254.497466 49.575085 
L 254.751356 47.267958 
L 255.259137 49.575085 
L 255.513027 48.293343 
L 255.766917 48.293343 
L 256.020808 47.780651 
L 256.528588 49.062392 
L 256.782479 49.062392 
L 257.79804 48.037008 
L 258.05193 48.806035 
L 258.30582 49.062392 
L 258.55971 48.293343 
L 258.813601 48.037008 
L 259.067491 48.806035 
L 259.321381 48.5497 
L 259.575271 49.575085 
L 259.829162 49.575085 
L 260.083052 48.5497 
L 260.336942 50.600491 
L 260.590832 50.087777 
L 260.844723 48.806035 
L 261.098613 48.5497 
L 261.352503 49.318749 
L 261.606393 49.575085 
L 261.860284 48.806035 
L 262.114174 48.5497 
L 262.368064 49.575085 
L 262.621954 48.5497 
L 262.875845 49.575085 
L 263.383625 49.062392 
L 263.637515 49.062392 
L 263.891406 49.575085 
L 264.145296 51.113183 
L 264.399186 48.806035 
L 264.906967 48.293343 
L 265.160857 48.806035 
L 265.414747 48.806035 
L 265.668637 49.318749 
L 265.922528 49.062392 
L 266.176418 49.831442 
L 266.430308 48.293343 
L 266.684198 49.062392 
L 267.191979 47.780651 
L 267.445869 48.293343 
L 267.699759 47.780651 
L 267.95365 49.318749 
L 268.20754 48.037008 
L 268.46143 48.293343 
L 268.71532 50.087777 
L 268.969211 47.267958 
L 269.223101 50.087777 
L 269.730881 47.780651 
L 270.238662 49.831442 
L 270.492552 48.293343 
L 270.746442 49.318749 
L 271.000333 49.318749 
L 271.254223 49.831442 
L 271.508113 47.267958 
L 271.762003 49.062392 
L 272.015894 49.318749 
L 272.269784 49.062392 
L 272.523674 49.062392 
L 272.777564 49.575085 
L 273.031455 48.293343 
L 273.285345 49.831442 
L 273.793126 47.780651 
L 274.300906 49.062392 
L 274.554796 48.806035 
L 274.808687 49.062392 
L 275.062577 49.062392 
L 275.316467 48.806035 
L 275.570357 47.267958 
L 275.824248 49.318749 
L 276.078138 50.344134 
L 276.839809 47.780651 
L 277.093699 48.5497 
L 277.347589 49.831442 
L 277.601479 49.575085 
L 277.85537 49.062392 
L 278.10926 48.806035 
L 278.36315 47.780651 
L 278.61704 49.062392 
L 278.870931 49.318749 
L 279.378711 46.498909 
L 279.632601 48.5497 
L 279.886492 47.780651 
L 280.140382 48.5497 
L 280.394272 48.806035 
L 280.648162 49.575085 
L 280.902053 48.293343 
L 281.155943 48.5497 
L 281.409833 50.087777 
L 281.663723 49.318749 
L 282.171504 49.831442 
L 282.425394 49.831442 
L 282.679284 48.806035 
L 282.933175 48.293343 
L 283.187065 48.293343 
L 283.440955 49.575085 
L 283.694845 48.5497 
L 283.948736 49.575085 
L 284.202626 49.318749 
L 284.456516 49.318749 
L 284.710406 51.369519 
L 284.964297 48.037008 
L 285.218187 48.293343 
L 285.472077 49.575085 
L 285.725967 47.524294 
L 285.979858 49.831442 
L 286.233748 48.5497 
L 286.487638 49.318749 
L 286.741528 49.318749 
L 286.995419 48.5497 
L 287.249309 49.062392 
L 287.503199 47.780651 
L 287.757089 48.5497 
L 288.01098 48.806035 
L 288.26487 50.087777 
L 288.77265 48.037008 
L 289.026541 48.037008 
L 289.280431 49.831442 
L 289.534321 50.087777 
L 289.788212 48.5497 
L 290.042102 48.5497 
L 290.295992 48.806035 
L 290.549882 48.5497 
L 290.803773 50.856826 
L 291.057663 48.5497 
L 291.311553 48.037008 
L 291.819334 49.062392 
L 292.073224 48.806035 
L 292.327114 49.062392 
L 292.581004 49.062392 
L 292.834895 49.318749 
L 293.088785 47.780651 
L 293.342675 49.062392 
L 293.596565 49.062392 
L 293.850456 49.575085 
L 294.104346 49.575085 
L 294.358236 48.806035 
L 294.612126 48.806035 
L 294.866017 49.062392 
L 295.119907 49.062392 
L 295.373797 47.780651 
L 295.627687 47.780651 
L 295.881578 48.037008 
L 296.135468 49.062392 
L 296.389358 48.5497 
L 296.643248 48.806035 
L 296.897139 48.293343 
L 297.151029 50.344134 
L 297.404919 48.037008 
L 297.658809 48.037008 
L 297.9127 49.062392 
L 298.928261 48.037008 
L 299.436041 49.062392 
L 299.689931 49.318749 
L 299.943822 48.806035 
L 300.197712 49.062392 
L 300.451602 49.062392 
L 300.959383 48.5497 
L 301.213273 50.087777 
L 301.467163 47.267958 
L 301.974944 48.5497 
L 302.228834 48.806035 
L 302.736614 49.831442 
L 302.990505 49.318749 
L 303.244395 49.831442 
L 303.498285 48.293343 
L 303.752175 48.5497 
L 304.006066 49.318749 
L 304.259956 48.037008 
L 304.513846 47.524294 
L 304.767736 48.037008 
L 305.021627 49.318749 
L 305.275517 47.011601 
L 305.529407 48.293343 
L 305.783298 50.344134 
L 306.291078 48.806035 
L 306.544968 49.062392 
L 306.798859 48.293343 
L 307.052749 49.318749 
L 307.306639 49.062392 
L 307.81442 49.062392 
L 308.06831 49.575085 
L 308.3222 49.318749 
L 308.57609 48.806035 
L 308.829981 48.5497 
L 309.083871 50.344134 
L 309.337761 49.318749 
L 309.591651 47.780651 
L 309.845542 47.780651 
L 310.099432 49.318749 
L 310.099432 49.318749 
" clip-path="url(#p06684b7ba7)" style="fill: none; stroke: #0000ff; stroke-width: 0.6; stroke-linecap: square"/>
   </g>
   <g id="line2d_26">
    <path d="M 56.463068 228.847817 
L 56.716958 227.054228 
L 56.970849 228.847817 
L 57.224739 203.139621 
L 57.478629 229.44568 
L 57.732519 228.249954 
L 58.2403 185.801529 
L 58.49419 198.954559 
L 58.74808 228.847817 
L 59.001971 190.584433 
L 59.255861 191.780181 
L 59.509751 173.844204 
L 59.763641 213.303314 
L 60.017532 161.289038 
L 60.271422 218.684102 
L 60.525312 156.506112 
L 60.779202 153.516797 
L 61.033093 161.886901 
L 61.540873 122.427791 
L 61.794764 160.691175 
L 62.048654 121.232065 
L 62.302544 131.993643 
L 62.556434 125.417128 
L 62.810325 137.374431 
L 63.064215 114.655551 
L 63.318105 164.876238 
L 63.571995 125.417128 
L 64.079776 106.285447 
L 64.333666 127.210717 
L 64.587556 111.068351 
L 64.841447 107.481173 
L 65.603117 114.655551 
L 66.110898 104.491837 
L 66.364788 109.872625 
L 66.872569 116.44914 
L 67.126459 101.502522 
L 67.380349 125.417128 
L 67.634239 108.079036 
L 67.88813 102.100385 
L 68.14202 129.004328 
L 68.39591 121.829928 
L 68.6498 105.0897 
L 68.903691 102.698248 
L 69.157581 108.676899 
L 69.411471 111.666214 
L 69.665361 108.079036 
L 69.919252 135.580842 
L 70.173142 102.100385 
L 70.934813 117.047003 
L 71.188703 163.082649 
L 71.442593 109.274762 
L 71.696483 138.570157 
L 71.950374 134.982979 
L 72.458154 112.861962 
L 72.712044 111.666214 
L 72.965935 111.068351 
L 73.219825 109.274762 
L 73.473715 109.274762 
L 73.727605 105.687563 
L 73.981496 109.872625 
L 74.235386 105.687563 
L 74.489276 118.24275 
L 74.743166 111.666214 
L 74.997057 112.861962 
L 75.250947 106.285447 
L 75.758727 111.068351 
L 76.012618 106.285447 
L 76.266508 112.861962 
L 76.774288 102.100385 
L 77.028179 115.851277 
L 77.282069 117.644887 
L 77.535959 151.723208 
L 77.78985 115.253414 
L 78.04374 118.840613 
L 78.29763 117.644887 
L 78.55152 108.079036 
L 78.805411 111.068351 
L 79.059301 111.666214 
L 79.313191 109.274762 
L 79.567081 118.24275 
L 79.820972 109.872625 
L 80.074862 112.861962 
L 80.328752 123.025654 
L 80.836533 107.481173 
L 81.090423 112.861962 
L 81.344313 110.470488 
L 81.598203 106.88331 
L 81.852094 110.470488 
L 82.105984 111.068351 
L 82.613764 111.068351 
L 82.867655 109.274762 
L 83.375435 113.459825 
L 83.629325 107.481173 
L 83.883216 113.459825 
L 84.137106 114.655551 
L 84.390996 114.655551 
L 84.644886 111.068351 
L 84.898777 110.470488 
L 85.152667 111.666214 
L 85.406557 116.44914 
L 85.660447 111.068351 
L 86.168228 121.232065 
L 86.422118 114.655551 
L 86.676008 115.851277 
L 86.929899 116.44914 
L 87.183789 109.274762 
L 87.437679 110.470488 
L 87.691569 108.676899 
L 87.94546 116.44914 
L 88.19935 116.44914 
L 88.45324 112.861962 
L 88.70713 111.666214 
L 88.961021 112.264099 
L 89.214911 115.851277 
L 89.722691 108.676899 
L 90.230472 117.047003 
L 90.484362 112.264099 
L 90.738252 117.047003 
L 90.992143 111.068351 
L 91.499923 114.057688 
L 91.753813 114.057688 
L 92.261594 117.644887 
L 92.515484 117.047003 
L 92.769374 112.861962 
L 93.023265 112.264099 
L 93.277155 112.861962 
L 93.531045 116.44914 
L 93.784936 111.666214 
L 94.038826 118.840613 
L 94.292716 115.253414 
L 94.546606 115.253414 
L 94.800497 113.459825 
L 95.054387 110.470488 
L 95.308277 110.470488 
L 95.562167 111.666214 
L 96.069948 110.470488 
L 96.323838 112.264099 
L 96.577728 112.861962 
L 96.831619 111.068351 
L 97.085509 112.264099 
L 97.339399 114.057688 
L 97.593289 113.459825 
L 97.84718 113.459825 
L 98.10107 115.253414 
L 98.35496 112.861962 
L 98.60885 112.264099 
L 98.862741 115.253414 
L 99.116631 115.253414 
L 99.370521 112.264099 
L 99.624411 115.851277 
L 99.878302 110.470488 
L 100.132192 110.470488 
L 100.386082 114.655551 
L 100.639972 111.068351 
L 100.893863 109.872625 
L 101.401643 115.253414 
L 101.909424 112.861962 
L 102.163314 116.44914 
L 102.417204 112.264099 
L 102.671094 111.666214 
L 102.924985 113.459825 
L 103.178875 112.264099 
L 103.432765 109.274762 
L 103.686655 114.655551 
L 103.940546 112.861962 
L 104.194436 114.057688 
L 104.448326 115.851277 
L 104.702216 114.057688 
L 104.956107 115.851277 
L 105.209997 114.057688 
L 105.463887 114.655551 
L 105.717777 117.644887 
L 105.971668 110.470488 
L 106.225558 115.851277 
L 106.479448 112.264099 
L 106.733338 111.068351 
L 107.241119 112.264099 
L 107.495009 112.264099 
L 107.748899 114.655551 
L 108.00279 113.459825 
L 108.25668 112.861962 
L 108.51057 114.057688 
L 108.76446 109.872625 
L 109.018351 114.057688 
L 109.526131 111.666214 
L 110.287802 113.459825 
L 110.795583 116.44914 
L 111.049473 109.872625 
L 111.303363 111.068351 
L 111.557253 112.861962 
L 112.065034 111.666214 
L 112.318924 114.655551 
L 112.572814 111.666214 
L 112.826705 111.666214 
L 113.080595 114.057688 
L 113.334485 115.253414 
L 113.588375 115.253414 
L 113.842266 112.861962 
L 114.096156 112.264099 
L 114.350046 114.655551 
L 114.603936 109.872625 
L 114.857827 116.44914 
L 115.111717 114.057688 
L 115.365607 114.057688 
L 115.619497 112.861962 
L 115.873388 114.655551 
L 116.127278 112.264099 
L 116.381168 114.057688 
L 116.635058 111.666214 
L 116.888949 114.655551 
L 117.396729 113.459825 
L 117.90451 113.459825 
L 118.1584 115.253414 
L 118.41229 113.459825 
L 118.66618 114.655551 
L 118.920071 111.068351 
L 119.173961 112.264099 
L 119.427851 114.057688 
L 119.681741 112.264099 
L 119.935632 115.253414 
L 120.189522 115.851277 
L 120.443412 114.655551 
L 120.697302 115.851277 
L 120.951193 114.057688 
L 121.712863 114.057688 
L 121.966754 111.666214 
L 122.220644 112.861962 
L 122.474534 113.459825 
L 122.728424 114.655551 
L 122.982315 115.253414 
L 123.236205 114.655551 
L 123.490095 115.851277 
L 123.743985 113.459825 
L 123.997876 117.047003 
L 124.505656 112.264099 
L 124.759546 112.861962 
L 125.013437 116.44914 
L 125.267327 114.655551 
L 125.521217 115.253414 
L 126.028998 114.057688 
L 126.282888 114.057688 
L 126.536778 115.851277 
L 126.790669 114.057688 
L 127.044559 115.851277 
L 127.298449 114.655551 
L 127.552339 114.655551 
L 127.80623 113.459825 
L 128.06012 115.851277 
L 128.31401 114.655551 
L 128.5679 115.253414 
L 128.821791 113.459825 
L 129.075681 114.057688 
L 129.329571 112.861962 
L 129.837352 116.44914 
L 130.091242 116.44914 
L 130.345132 115.253414 
L 130.852913 111.666214 
L 131.106803 115.851277 
L 131.360693 110.470488 
L 131.614583 114.057688 
L 131.868474 114.655551 
L 132.122364 115.851277 
L 132.376254 113.459825 
L 132.630144 113.459825 
L 132.884035 110.470488 
L 133.137925 115.851277 
L 133.391815 112.264099 
L 133.645705 113.459825 
L 133.899596 114.057688 
L 134.153486 113.459825 
L 134.407376 114.655551 
L 134.661266 113.459825 
L 134.915157 113.459825 
L 135.169047 114.655551 
L 135.422937 114.057688 
L 135.676827 114.655551 
L 135.930718 115.851277 
L 136.184608 114.655551 
L 136.438498 111.068351 
L 136.692388 112.861962 
L 136.946279 112.264099 
L 137.200169 111.068351 
L 137.454059 111.666214 
L 137.707949 114.057688 
L 138.21573 111.666214 
L 138.46962 114.057688 
L 138.72351 113.459825 
L 138.977401 112.264099 
L 139.231291 114.057688 
L 139.485181 112.861962 
L 139.739071 112.264099 
L 140.246852 113.459825 
L 140.754632 113.459825 
L 141.008523 114.655551 
L 141.262413 112.861962 
L 141.516303 113.459825 
L 141.770193 112.861962 
L 142.024084 114.057688 
L 142.277974 112.861962 
L 142.531864 112.861962 
L 142.785755 114.057688 
L 143.039645 114.655551 
L 143.293535 111.666214 
L 143.547425 113.459825 
L 143.801316 113.459825 
L 144.055206 111.068351 
L 144.562986 114.057688 
L 144.816877 112.861962 
L 145.070767 112.264099 
L 145.578547 112.264099 
L 145.832438 113.459825 
L 146.086328 113.459825 
L 146.594108 112.264099 
L 146.847999 113.459825 
L 147.101889 112.861962 
L 147.355779 112.861962 
L 147.609669 112.264099 
L 147.86356 112.264099 
L 148.11745 112.861962 
L 148.37134 112.861962 
L 148.62523 112.264099 
L 148.879121 112.861962 
L 149.133011 112.861962 
L 149.386901 113.459825 
L 149.640791 112.861962 
L 149.894682 112.861962 
L 150.148572 113.459825 
L 150.402462 112.861962 
L 150.656352 113.459825 
L 151.164133 112.264099 
L 151.418023 112.861962 
L 151.671913 112.264099 
L 151.925804 112.861962 
L 152.179694 112.861962 
L 152.433584 113.459825 
L 152.687474 112.264099 
L 152.941365 111.666214 
L 153.195255 112.264099 
L 153.449145 111.666214 
L 153.703035 112.264099 
L 154.210816 109.872625 
L 154.464706 111.666214 
L 154.718596 111.666214 
L 154.972487 112.264099 
L 155.734157 112.264099 
L 155.988048 110.470488 
L 156.495828 111.666214 
L 156.749718 111.666214 
L 157.003609 112.861962 
L 157.765279 112.861962 
L 158.01917 113.459825 
L 158.52695 113.459825 
L 158.78084 112.861962 
L 159.034731 113.459825 
L 159.288621 112.264099 
L 159.542511 112.861962 
L 159.796402 114.057688 
L 160.304182 114.057688 
L 160.558072 113.459825 
L 162.081414 113.459825 
L 162.335304 115.253414 
L 162.843085 114.057688 
L 163.096975 111.068351 
L 163.350865 112.264099 
L 163.604755 114.057688 
L 164.366426 114.057688 
L 164.620316 112.264099 
L 165.128097 112.264099 
L 165.381987 111.666214 
L 165.889768 111.666214 
L 166.143658 111.068351 
L 166.397548 111.666214 
L 166.651438 111.068351 
L 166.905329 112.861962 
L 167.159219 113.459825 
L 167.413109 113.459825 
L 167.666999 112.264099 
L 167.92089 112.264099 
L 168.17478 112.861962 
L 169.190341 112.861962 
L 169.444231 111.666214 
L 169.698121 114.057688 
L 170.205902 114.057688 
L 170.713682 112.861962 
L 170.967573 113.459825 
L 171.221463 112.861962 
L 171.729243 114.057688 
L 174.522036 114.057688 
L 174.775926 113.459825 
L 175.029817 114.057688 
L 175.283707 114.057688 
L 175.537597 113.459825 
L 176.807049 113.459825 
L 177.060939 114.057688 
L 177.314829 113.459825 
L 177.82261 113.459825 
L 178.0765 114.057688 
L 179.092061 114.057688 
L 179.345951 113.459825 
L 179.599841 113.459825 
L 179.853732 114.057688 
L 180.107622 114.057688 
L 180.361512 113.459825 
L 181.123183 113.459825 
L 181.377073 114.057688 
L 181.630963 114.057688 
L 181.884854 113.459825 
L 182.646524 113.459825 
L 182.900415 114.057688 
L 183.154305 113.459825 
L 186.962659 113.459825 
L 187.216549 112.861962 
L 188.486 112.861962 
L 188.73989 113.459825 
L 188.993781 113.459825 
L 189.247671 112.861962 
L 189.755451 112.861962 
L 190.009342 113.459825 
L 192.040464 113.459825 
L 192.294354 114.057688 
L 192.548244 114.057688 
L 192.802135 113.459825 
L 193.056025 114.057688 
L 193.309915 113.459825 
L 194.325476 113.459825 
L 194.579366 114.057688 
L 194.833257 113.459825 
L 195.594927 113.459825 
L 195.848818 112.861962 
L 196.102708 113.459825 
L 197.372159 113.459825 
L 197.626049 112.861962 
L 198.895501 112.861962 
L 199.149391 113.459825 
L 199.403281 112.861962 
L 199.657171 112.861962 
L 199.911062 113.459825 
L 200.418842 113.459825 
L 200.672732 112.861962 
L 200.926623 112.861962 
L 201.180513 113.459825 
L 203.211635 113.459825 
L 203.465525 112.861962 
L 204.227196 112.861962 
L 204.481086 113.459825 
L 204.734976 112.861962 
L 204.988867 113.459825 
L 205.242757 112.861962 
L 205.496647 112.861962 
L 205.750537 113.459825 
L 206.766098 113.459825 
L 207.019989 111.666214 
L 207.78166 111.666214 
L 208.03555 112.264099 
L 208.28944 112.264099 
L 208.54333 111.666214 
L 209.051111 111.666214 
L 209.305001 111.068351 
L 209.558891 111.666214 
L 209.812782 111.068351 
L 210.066672 111.666214 
L 211.336123 111.666214 
L 211.590013 111.068351 
L 212.097794 111.068351 
L 212.351684 111.666214 
L 212.859465 111.666214 
L 213.113355 112.264099 
L 213.621135 112.264099 
L 213.875026 111.666214 
L 214.890587 111.666214 
L 215.144477 112.264099 
L 215.398367 112.264099 
L 215.652257 111.666214 
L 218.952831 111.666214 
L 219.206721 112.264099 
L 220.222282 112.264099 
L 220.476172 112.861962 
L 220.730062 112.861962 
L 220.983953 112.264099 
L 221.237843 112.861962 
L 221.491733 112.264099 
L 221.999514 112.264099 
L 222.253404 111.666214 
L 237.232929 111.666214 
L 237.486819 112.264099 
L 237.9946 112.264099 
L 238.24849 111.666214 
L 242.056844 111.666214 
L 242.310734 112.264099 
L 242.818515 112.264099 
L 243.072405 111.666214 
L 246.372978 111.666214 
L 246.626868 112.264099 
L 246.880759 111.666214 
L 247.89632 111.666214 
L 248.15021 112.264099 
L 251.958564 112.264099 
L 252.212454 111.666214 
L 277.85537 111.666214 
L 278.10926 112.264099 
L 283.440955 112.264099 
L 283.694845 111.666214 
L 283.948736 111.666214 
L 284.202626 112.264099 
L 284.456516 112.264099 
L 284.710406 111.666214 
L 288.26487 111.666214 
L 288.51876 112.264099 
L 294.358236 112.264099 
L 294.612126 111.666214 
L 294.866017 111.666214 
L 295.119907 112.264099 
L 295.373797 111.666214 
L 296.135468 111.666214 
L 296.389358 112.264099 
L 298.16659 112.264099 
L 298.42048 112.861962 
L 310.099432 112.861962 
L 310.099432 112.861962 
" clip-path="url(#p06684b7ba7)" style="fill: none; stroke: #ff0000; stroke-width: 0.6; stroke-linecap: square"/>
   </g>
   <g id="patch_3">
    <path d="M 43.78125 239.76 
L 43.78125 37.296 
" style="fill: none; stroke: #000000; stroke-width: 0.8; stroke-linejoin: miter; stroke-linecap: square"/>
   </g>
   <g id="patch_4">
    <path d="M 322.78125 239.76 
L 322.78125 37.296 
" style="fill: none; stroke: #000000; stroke-width: 0.8; stroke-linejoin: miter; stroke-linecap: square"/>
   </g>
   <g id="patch_5">
    <path d="M 43.78125 239.76 
L 322.78125 239.76 
" style="fill: none; stroke: #000000; stroke-width: 0.8; stroke-linejoin: miter; stroke-linecap: square"/>
   </g>
   <g id="patch_6">
    <path d="M 43.78125 37.296 
L 322.78125 37.296 
" style="fill: none; stroke: #000000; stroke-width: 0.8; stroke-linejoin: miter; stroke-linecap: square"/>
   </g>
   <g id="text_15">
    <!-- Baseline Model -->
    <g transform="translate(149.259844 31.296) scale(0.09 -0.09)">
     <defs>
      <path id="DejaVuSans-42" d="M 1259 2228 
L 1259 519 
L 2272 519 
Q 2781 519 3026 730 
Q 3272 941 3272 1375 
Q 3272 1813 3026 2020 
Q 2781 2228 2272 2228 
L 1259 2228 
z
M 1259 4147 
L 1259 2741 
L 2194 2741 
Q 2656 2741 2882 2914 
Q 3109 3088 3109 3444 
Q 3109 3797 2882 3972 
Q 2656 4147 2194 4147 
L 1259 4147 
z
M 628 4666 
L 2241 4666 
Q 2963 4666 3353 4366 
Q 3744 4066 3744 3513 
Q 3744 3084 3544 2831 
Q 3344 2578 2956 2516 
Q 3422 2416 3680 2098 
Q 3938 1781 3938 1306 
Q 3938 681 3513 340 
Q 3088 0 2303 0 
L 628 0 
L 628 4666 
z
" transform="scale(0.015625)"/>
      <path id="DejaVuSans-65" d="M 3597 1894 
L 3597 1613 
L 953 1613 
Q 991 1019 1311 708 
Q 1631 397 2203 397 
Q 2534 397 2845 478 
Q 3156 559 3463 722 
L 3463 178 
Q 3153 47 2828 -22 
Q 2503 -91 2169 -91 
Q 1331 -91 842 396 
Q 353 884 353 1716 
Q 353 2575 817 3079 
Q 1281 3584 2069 3584 
Q 2775 3584 3186 3129 
Q 3597 2675 3597 1894 
z
M 3022 2063 
Q 3016 2534 2758 2815 
Q 2500 3097 2075 3097 
Q 1594 3097 1305 2825 
Q 1016 2553 972 2059 
L 3022 2063 
z
" transform="scale(0.015625)"/>
      <path id="DejaVuSans-6c" d="M 603 4863 
L 1178 4863 
L 1178 0 
L 603 0 
L 603 4863 
z
" transform="scale(0.015625)"/>
      <path id="DejaVuSans-69" d="M 603 3500 
L 1178 3500 
L 1178 0 
L 603 0 
L 603 3500 
z
M 603 4863 
L 1178 4863 
L 1178 4134 
L 603 4134 
L 603 4863 
z
" transform="scale(0.015625)"/>
      <path id="DejaVuSans-6e" d="M 3513 2113 
L 3513 0 
L 2938 0 
L 2938 2094 
Q 2938 2591 2744 2837 
Q 2550 3084 2163 3084 
Q 1697 3084 1428 2787 
Q 1159 2491 1159 1978 
L 1159 0 
L 581 0 
L 581 3500 
L 1159 3500 
L 1159 2956 
Q 1366 3272 1645 3428 
Q 1925 3584 2291 3584 
Q 2894 3584 3203 3211 
Q 3513 2838 3513 2113 
z
" transform="scale(0.015625)"/>
      <path id="DejaVuSans-20" transform="scale(0.015625)"/>
      <path id="DejaVuSans-4d" d="M 628 4666 
L 1569 4666 
L 2759 1491 
L 3956 4666 
L 4897 4666 
L 4897 0 
L 4281 0 
L 4281 4097 
L 3078 897 
L 2444 897 
L 1241 4097 
L 1241 0 
L 628 0 
L 628 4666 
z
" transform="scale(0.015625)"/>
      <path id="DejaVuSans-64" d="M 2906 2969 
L 2906 4863 
L 3481 4863 
L 3481 0 
L 2906 0 
L 2906 525 
Q 2725 213 2448 61 
Q 2172 -91 1784 -91 
Q 1150 -91 751 415 
Q 353 922 353 1747 
Q 353 2572 751 3078 
Q 1150 3584 1784 3584 
Q 2172 3584 2448 3432 
Q 2725 3281 2906 2969 
z
M 947 1747 
Q 947 1113 1208 752 
Q 1469 391 1925 391 
Q 2381 391 2643 752 
Q 2906 1113 2906 1747 
Q 2906 2381 2643 2742 
Q 2381 3103 1925 3103 
Q 1469 3103 1208 2742 
Q 947 2381 947 1747 
z
" transform="scale(0.015625)"/>
     </defs>
     <use xlink:href="#DejaVuSans-42"/>
     <use xlink:href="#DejaVuSans-61" x="68.603516"/>
     <use xlink:href="#DejaVuSans-73" x="129.882812"/>
     <use xlink:href="#DejaVuSans-65" x="181.982422"/>
     <use xlink:href="#DejaVuSans-6c" x="243.505859"/>
     <use xlink:href="#DejaVuSans-69" x="271.289062"/>
     <use xlink:href="#DejaVuSans-6e" x="299.072266"/>
     <use xlink:href="#DejaVuSans-65" x="362.451172"/>
     <use xlink:href="#DejaVuSans-20" x="423.974609"/>
     <use xlink:href="#DejaVuSans-4d" x="455.761719"/>
     <use xlink:href="#DejaVuSans-6f" x="542.041016"/>
     <use xlink:href="#DejaVuSans-64" x="603.222656"/>
     <use xlink:href="#DejaVuSans-65" x="666.699219"/>
     <use xlink:href="#DejaVuSans-6c" x="728.222656"/>
    </g>
   </g>
   <g id="legend_1">
    <g id="patch_7">
     <path d="M 185.565625 234.76 
L 315.78125 234.76 
Q 317.78125 234.76 317.78125 232.76 
L 317.78125 204.40375 
Q 317.78125 202.40375 315.78125 202.40375 
L 185.565625 202.40375 
Q 183.565625 202.40375 183.565625 204.40375 
L 183.565625 232.76 
Q 183.565625 234.76 185.565625 234.76 
z
" style="fill: #ffffff; opacity: 0.8; stroke: #cccccc; stroke-linejoin: miter"/>
    </g>
    <g id="line2d_27">
     <path d="M 187.565625 210.502187 
L 197.565625 210.502187 
L 207.565625 210.502187 
" style="fill: none; stroke: #0000ff; stroke-width: 0.6; stroke-linecap: square"/>
    </g>
    <g id="text_16">
     <!-- Training Accuracy -->
     <g transform="translate(215.565625 214.002187) scale(0.1 -0.1)">
      <defs>
       <path id="DejaVuSans-54" d="M -19 4666 
L 3928 4666 
L 3928 4134 
L 2272 4134 
L 2272 0 
L 1638 0 
L 1638 4134 
L -19 4134 
L -19 4666 
z
" transform="scale(0.015625)"/>
       <path id="DejaVuSans-67" d="M 2906 1791 
Q 2906 2416 2648 2759 
Q 2391 3103 1925 3103 
Q 1463 3103 1205 2759 
Q 947 2416 947 1791 
Q 947 1169 1205 825 
Q 1463 481 1925 481 
Q 2391 481 2648 825 
Q 2906 1169 2906 1791 
z
M 3481 434 
Q 3481 -459 3084 -895 
Q 2688 -1331 1869 -1331 
Q 1566 -1331 1297 -1286 
Q 1028 -1241 775 -1147 
L 775 -588 
Q 1028 -725 1275 -790 
Q 1522 -856 1778 -856 
Q 2344 -856 2625 -561 
Q 2906 -266 2906 331 
L 2906 616 
Q 2728 306 2450 153 
Q 2172 0 1784 0 
Q 1141 0 747 490 
Q 353 981 353 1791 
Q 353 2603 747 3093 
Q 1141 3584 1784 3584 
Q 2172 3584 2450 3431 
Q 2728 3278 2906 2969 
L 2906 3500 
L 3481 3500 
L 3481 434 
z
" transform="scale(0.015625)"/>
      </defs>
      <use xlink:href="#DejaVuSans-54"/>
      <use xlink:href="#DejaVuSans-72" x="46.333984"/>
      <use xlink:href="#DejaVuSans-61" x="87.447266"/>
      <use xlink:href="#DejaVuSans-69" x="148.726562"/>
      <use xlink:href="#DejaVuSans-6e" x="176.509766"/>
      <use xlink:href="#DejaVuSans-69" x="239.888672"/>
      <use xlink:href="#DejaVuSans-6e" x="267.671875"/>
      <use xlink:href="#DejaVuSans-67" x="331.050781"/>
      <use xlink:href="#DejaVuSans-20" x="394.527344"/>
      <use xlink:href="#DejaVuSans-41" x="426.314453"/>
      <use xlink:href="#DejaVuSans-63" x="492.972656"/>
      <use xlink:href="#DejaVuSans-63" x="547.953125"/>
      <use xlink:href="#DejaVuSans-75" x="602.933594"/>
      <use xlink:href="#DejaVuSans-72" x="666.3125"/>
      <use xlink:href="#DejaVuSans-61" x="707.425781"/>
      <use xlink:href="#DejaVuSans-63" x="768.705078"/>
      <use xlink:href="#DejaVuSans-79" x="823.685547"/>
     </g>
    </g>
    <g id="line2d_28">
     <path d="M 187.565625 225.180312 
L 197.565625 225.180312 
L 207.565625 225.180312 
" style="fill: none; stroke: #ff0000; stroke-width: 0.6; stroke-linecap: square"/>
    </g>
    <g id="text_17">
     <!-- Validation Accuracy -->
     <g transform="translate(215.565625 228.680312) scale(0.1 -0.1)">
      <defs>
       <path id="DejaVuSans-56" d="M 1831 0 
L 50 4666 
L 709 4666 
L 2188 738 
L 3669 4666 
L 4325 4666 
L 2547 0 
L 1831 0 
z
" transform="scale(0.015625)"/>
       <path id="DejaVuSans-74" d="M 1172 4494 
L 1172 3500 
L 2356 3500 
L 2356 3053 
L 1172 3053 
L 1172 1153 
Q 1172 725 1289 603 
Q 1406 481 1766 481 
L 2356 481 
L 2356 0 
L 1766 0 
Q 1100 0 847 248 
Q 594 497 594 1153 
L 594 3053 
L 172 3053 
L 172 3500 
L 594 3500 
L 594 4494 
L 1172 4494 
z
" transform="scale(0.015625)"/>
      </defs>
      <use xlink:href="#DejaVuSans-56"/>
      <use xlink:href="#DejaVuSans-61" x="60.658203"/>
      <use xlink:href="#DejaVuSans-6c" x="121.9375"/>
      <use xlink:href="#DejaVuSans-69" x="149.720703"/>
      <use xlink:href="#DejaVuSans-64" x="177.503906"/>
      <use xlink:href="#DejaVuSans-61" x="240.980469"/>
      <use xlink:href="#DejaVuSans-74" x="302.259766"/>
      <use xlink:href="#DejaVuSans-69" x="341.46875"/>
      <use xlink:href="#DejaVuSans-6f" x="369.251953"/>
      <use xlink:href="#DejaVuSans-6e" x="430.433594"/>
      <use xlink:href="#DejaVuSans-20" x="493.8125"/>
      <use xlink:href="#DejaVuSans-41" x="525.599609"/>
      <use xlink:href="#DejaVuSans-63" x="592.257812"/>
      <use xlink:href="#DejaVuSans-63" x="647.238281"/>
      <use xlink:href="#DejaVuSans-75" x="702.21875"/>
      <use xlink:href="#DejaVuSans-72" x="765.597656"/>
      <use xlink:href="#DejaVuSans-61" x="806.710938"/>
      <use xlink:href="#DejaVuSans-63" x="867.990234"/>
      <use xlink:href="#DejaVuSans-79" x="922.970703"/>
     </g>
    </g>
   </g>
  </g>
  <g id="text_18">
   <!-- Training VS. Validation Accuracy - Dataset Size = 40.0% -->
   <g transform="translate(24.933359 15.558281) scale(0.11 -0.11)">
    <defs>
     <path id="DejaVuSans-53" d="M 3425 4513 
L 3425 3897 
Q 3066 4069 2747 4153 
Q 2428 4238 2131 4238 
Q 1616 4238 1336 4038 
Q 1056 3838 1056 3469 
Q 1056 3159 1242 3001 
Q 1428 2844 1947 2747 
L 2328 2669 
Q 3034 2534 3370 2195 
Q 3706 1856 3706 1288 
Q 3706 609 3251 259 
Q 2797 -91 1919 -91 
Q 1588 -91 1214 -16 
Q 841 59 441 206 
L 441 856 
Q 825 641 1194 531 
Q 1563 422 1919 422 
Q 2459 422 2753 634 
Q 3047 847 3047 1241 
Q 3047 1584 2836 1778 
Q 2625 1972 2144 2069 
L 1759 2144 
Q 1053 2284 737 2584 
Q 422 2884 422 3419 
Q 422 4038 858 4394 
Q 1294 4750 2059 4750 
Q 2388 4750 2728 4690 
Q 3069 4631 3425 4513 
z
" transform="scale(0.015625)"/>
     <path id="DejaVuSans-2d" d="M 313 2009 
L 1997 2009 
L 1997 1497 
L 313 1497 
L 313 2009 
z
" transform="scale(0.015625)"/>
     <path id="DejaVuSans-44" d="M 1259 4147 
L 1259 519 
L 2022 519 
Q 2988 519 3436 956 
Q 3884 1394 3884 2338 
Q 3884 3275 3436 3711 
Q 2988 4147 2022 4147 
L 1259 4147 
z
M 628 4666 
L 1925 4666 
Q 3281 4666 3915 4102 
Q 4550 3538 4550 2338 
Q 4550 1131 3912 565 
Q 3275 0 1925 0 
L 628 0 
L 628 4666 
z
" transform="scale(0.015625)"/>
     <path id="DejaVuSans-7a" d="M 353 3500 
L 3084 3500 
L 3084 2975 
L 922 459 
L 3084 459 
L 3084 0 
L 275 0 
L 275 525 
L 2438 3041 
L 353 3041 
L 353 3500 
z
" transform="scale(0.015625)"/>
     <path id="DejaVuSans-3d" d="M 678 2906 
L 4684 2906 
L 4684 2381 
L 678 2381 
L 678 2906 
z
M 678 1631 
L 4684 1631 
L 4684 1100 
L 678 1100 
L 678 1631 
z
" transform="scale(0.015625)"/>
     <path id="DejaVuSans-25" d="M 4653 2053 
Q 4381 2053 4226 1822 
Q 4072 1591 4072 1178 
Q 4072 772 4226 539 
Q 4381 306 4653 306 
Q 4919 306 5073 539 
Q 5228 772 5228 1178 
Q 5228 1588 5073 1820 
Q 4919 2053 4653 2053 
z
M 4653 2450 
Q 5147 2450 5437 2106 
Q 5728 1763 5728 1178 
Q 5728 594 5436 251 
Q 5144 -91 4653 -91 
Q 4153 -91 3862 251 
Q 3572 594 3572 1178 
Q 3572 1766 3864 2108 
Q 4156 2450 4653 2450 
z
M 1428 4353 
Q 1159 4353 1004 4120 
Q 850 3888 850 3481 
Q 850 3069 1003 2837 
Q 1156 2606 1428 2606 
Q 1700 2606 1854 2837 
Q 2009 3069 2009 3481 
Q 2009 3884 1853 4118 
Q 1697 4353 1428 4353 
z
M 4250 4750 
L 4750 4750 
L 1831 -91 
L 1331 -91 
L 4250 4750 
z
M 1428 4750 
Q 1922 4750 2215 4408 
Q 2509 4066 2509 3481 
Q 2509 2891 2217 2550 
Q 1925 2209 1428 2209 
Q 931 2209 642 2551 
Q 353 2894 353 3481 
Q 353 4063 643 4406 
Q 934 4750 1428 4750 
z
" transform="scale(0.015625)"/>
    </defs>
    <use xlink:href="#DejaVuSans-54"/>
    <use xlink:href="#DejaVuSans-72" x="46.333984"/>
    <use xlink:href="#DejaVuSans-61" x="87.447266"/>
    <use xlink:href="#DejaVuSans-69" x="148.726562"/>
    <use xlink:href="#DejaVuSans-6e" x="176.509766"/>
    <use xlink:href="#DejaVuSans-69" x="239.888672"/>
    <use xlink:href="#DejaVuSans-6e" x="267.671875"/>
    <use xlink:href="#DejaVuSans-67" x="331.050781"/>
    <use xlink:href="#DejaVuSans-20" x="394.527344"/>
    <use xlink:href="#DejaVuSans-56" x="426.314453"/>
    <use xlink:href="#DejaVuSans-53" x="494.722656"/>
    <use xlink:href="#DejaVuSans-2e" x="558.199219"/>
    <use xlink:href="#DejaVuSans-20" x="589.986328"/>
    <use xlink:href="#DejaVuSans-56" x="621.773438"/>
    <use xlink:href="#DejaVuSans-61" x="682.431641"/>
    <use xlink:href="#DejaVuSans-6c" x="743.710938"/>
    <use xlink:href="#DejaVuSans-69" x="771.494141"/>
    <use xlink:href="#DejaVuSans-64" x="799.277344"/>
    <use xlink:href="#DejaVuSans-61" x="862.753906"/>
    <use xlink:href="#DejaVuSans-74" x="924.033203"/>
    <use xlink:href="#DejaVuSans-69" x="963.242188"/>
    <use xlink:href="#DejaVuSans-6f" x="991.025391"/>
    <use xlink:href="#DejaVuSans-6e" x="1052.207031"/>
    <use xlink:href="#DejaVuSans-20" x="1115.585938"/>
    <use xlink:href="#DejaVuSans-41" x="1147.373047"/>
    <use xlink:href="#DejaVuSans-63" x="1214.03125"/>
    <use xlink:href="#DejaVuSans-63" x="1269.011719"/>
    <use xlink:href="#DejaVuSans-75" x="1323.992188"/>
    <use xlink:href="#DejaVuSans-72" x="1387.371094"/>
    <use xlink:href="#DejaVuSans-61" x="1428.484375"/>
    <use xlink:href="#DejaVuSans-63" x="1489.763672"/>
    <use xlink:href="#DejaVuSans-79" x="1544.744141"/>
    <use xlink:href="#DejaVuSans-20" x="1603.923828"/>
    <use xlink:href="#DejaVuSans-2d" x="1635.710938"/>
    <use xlink:href="#DejaVuSans-20" x="1671.794922"/>
    <use xlink:href="#DejaVuSans-44" x="1703.582031"/>
    <use xlink:href="#DejaVuSans-61" x="1780.583984"/>
    <use xlink:href="#DejaVuSans-74" x="1841.863281"/>
    <use xlink:href="#DejaVuSans-61" x="1881.072266"/>
    <use xlink:href="#DejaVuSans-73" x="1942.351562"/>
    <use xlink:href="#DejaVuSans-65" x="1994.451172"/>
    <use xlink:href="#DejaVuSans-74" x="2055.974609"/>
    <use xlink:href="#DejaVuSans-20" x="2095.183594"/>
    <use xlink:href="#DejaVuSans-53" x="2126.970703"/>
    <use xlink:href="#DejaVuSans-69" x="2190.447266"/>
    <use xlink:href="#DejaVuSans-7a" x="2218.230469"/>
    <use xlink:href="#DejaVuSans-65" x="2270.720703"/>
    <use xlink:href="#DejaVuSans-20" x="2332.244141"/>
    <use xlink:href="#DejaVuSans-3d" x="2364.03125"/>
    <use xlink:href="#DejaVuSans-20" x="2447.820312"/>
    <use xlink:href="#DejaVuSans-34" x="2479.607422"/>
    <use xlink:href="#DejaVuSans-30" x="2543.230469"/>
    <use xlink:href="#DejaVuSans-2e" x="2606.853516"/>
    <use xlink:href="#DejaVuSans-30" x="2638.640625"/>
    <use xlink:href="#DejaVuSans-25" x="2702.263672"/>
   </g>
  </g>
 </g>
 <defs>
  <clipPath id="p06684b7ba7">
   <rect x="43.78125" y="37.296" width="279" height="202.464"/>
  </clipPath>
 </defs>
</svg>
