<?xml version="1.0" encoding="utf-8" standalone="no"?>
<!DOCTYPE svg PUBLIC "-//W3C//DTD SVG 1.1//EN"
  "http://www.w3.org/Graphics/SVG/1.1/DTD/svg11.dtd">
<svg xmlns:xlink="http://www.w3.org/1999/xlink" width="343.328516pt" height="277.31625pt" viewBox="0 0 343.328516 277.31625" xmlns="http://www.w3.org/2000/svg" version="1.1">
 <metadata>
  <rdf:RDF xmlns:dc="http://purl.org/dc/elements/1.1/" xmlns:cc="http://creativecommons.org/ns#" xmlns:rdf="http://www.w3.org/1999/02/22-rdf-syntax-ns#">
   <cc:Work>
    <dc:type rdf:resource="http://purl.org/dc/dcmitype/StillImage"/>
    <dc:date>2026-06-11T12:06:59.051237</dc:date>
    <dc:format>image/svg+xml</dc:format>
    <dc:creator>
     <cc:Agent>
      <dc:title>Matplotlib v3.8.4, https://matplotlib.org/</dc:title>
     </cc:Agent>
    </dc:creator>
   </cc:Work>
  </rdf:RDF>
 </metadata>
 <defs>
  <style type="text/css">*{stroke-linejoin: round; stroke-linecap: butt}</style>
 </defs>
 <g id="figure_1">
  <g id="patch_1">
   <path d="M 0 277.31625 
L 343.328516 277.31625 
L 343.328516 0 
L 0 0 
z
" style="fill: #ffffff"/>
  </g>
  <g id="axes_1">
   <g id="patch_2">
    <path d="M 43.78125 239.76 
L 322.78125 239.76 
L 322.78125 37.296 
L 43.78125 37.296 
z
" style="fill: #ffffff"/>
   </g>
   <g id="matplotlib.axis_1">
    <g id="xtick_1">
     <g id="line2d_1">
      <path d="M 56.209178 239.76 
L 56.209178 37.296 
" clip-path="url(#p67851882e9)" style="fill: none; stroke-dasharray: 2.96,1.28; stroke-dashoffset: 0; stroke: #b0b0b0; stroke-opacity: 0.4; stroke-width: 0.8"/>
     </g>
     <g id="line2d_2">
      <defs>
       <path id="m2de69bc7f7" d="M 0 0 
L 0 3.5 
" style="stroke: #000000; stroke-width: 0.8"/>
      </defs>
      <g>
       <use xlink:href="#m2de69bc7f7" x="56.209178" y="239.76" style="stroke: #000000; stroke-width: 0.8"/>
      </g>
     </g>
     <g id="text_1">
      <!-- 0 -->
      <g transform="translate(53.027928 254.358437) scale(0.1 -0.1)">
       <defs>
        <path id="DejaVuSans-30" d="M 2034 4250 
Q 1547 4250 1301 3770 
Q 1056 3291 1056 2328 
Q 1056 1369 1301 889 
Q 1547 409 2034 409 
Q 2525 409 2770 889 
Q 3016 1369 3016 2328 
Q 3016 3291 2770 3770 
Q 2525 4250 2034 4250 
z
M 2034 4750 
Q 2819 4750 3233 4129 
Q 3647 3509 3647 2328 
Q 3647 1150 3233 529 
Q 2819 -91 2034 -91 
Q 1250 -91 836 529 
Q 422 1150 422 2328 
Q 422 3509 836 4129 
Q 1250 4750 2034 4750 
z
" transform="scale(0.015625)"/>
       </defs>
       <use xlink:href="#DejaVuSans-30"/>
      </g>
     </g>
    </g>
    <g id="xtick_2">
     <g id="line2d_3">
      <path d="M 106.987229 239.76 
L 106.987229 37.296 
" clip-path="url(#p67851882e9)" style="fill: none; stroke-dasharray: 2.96,1.28; stroke-dashoffset: 0; stroke: #b0b0b0; stroke-opacity: 0.4; stroke-width: 0.8"/>
     </g>
     <g id="line2d_4">
      <g>
       <use xlink:href="#m2de69bc7f7" x="106.987229" y="239.76" style="stroke: #000000; stroke-width: 0.8"/>
      </g>
     </g>
     <g id="text_2">
      <!-- 200 -->
      <g transform="translate(97.443479 254.358437) scale(0.1 -0.1)">
       <defs>
        <path id="DejaVuSans-32" d="M 1228 531 
L 3431 531 
L 3431 0 
L 469 0 
L 469 531 
Q 828 903 1448 1529 
Q 2069 2156 2228 2338 
Q 2531 2678 2651 2914 
Q 2772 3150 2772 3378 
Q 2772 3750 2511 3984 
Q 2250 4219 1831 4219 
Q 1534 4219 1204 4116 
Q 875 4013 500 3803 
L 500 4441 
Q 881 4594 1212 4672 
Q 1544 4750 1819 4750 
Q 2544 4750 2975 4387 
Q 3406 4025 3406 3419 
Q 3406 3131 3298 2873 
Q 3191 2616 2906 2266 
Q 2828 2175 2409 1742 
Q 1991 1309 1228 531 
z
" transform="scale(0.015625)"/>
       </defs>
       <use xlink:href="#DejaVuSans-32"/>
       <use xlink:href="#DejaVuSans-30" x="63.623047"/>
       <use xlink:href="#DejaVuSans-30" x="127.246094"/>
      </g>
     </g>
    </g>
    <g id="xtick_3">
     <g id="line2d_5">
      <path d="M 157.765279 239.76 
L 157.765279 37.296 
" clip-path="url(#p67851882e9)" style="fill: none; stroke-dasharray: 2.96,1.28; stroke-dashoffset: 0; stroke: #b0b0b0; stroke-opacity: 0.4; stroke-width: 0.8"/>
     </g>
     <g id="line2d_6">
      <g>
       <use xlink:href="#m2de69bc7f7" x="157.765279" y="239.76" style="stroke: #000000; stroke-width: 0.8"/>
      </g>
     </g>
     <g id="text_3">
      <!-- 400 -->
      <g transform="translate(148.221529 254.358437) scale(0.1 -0.1)">
       <defs>
        <path id="DejaVuSans-34" d="M 2419 4116 
L 825 1625 
L 2419 1625 
L 2419 4116 
z
M 2253 4666 
L 3047 4666 
L 3047 1625 
L 3713 1625 
L 3713 1100 
L 3047 1100 
L 3047 0 
L 2419 0 
L 2419 1100 
L 313 1100 
L 313 1709 
L 2253 4666 
z
" transform="scale(0.015625)"/>
       </defs>
       <use xlink:href="#DejaVuSans-34"/>
       <use xlink:href="#DejaVuSans-30" x="63.623047"/>
       <use xlink:href="#DejaVuSans-30" x="127.246094"/>
      </g>
     </g>
    </g>
    <g id="xtick_4">
     <g id="line2d_7">
      <path d="M 208.54333 239.76 
L 208.54333 37.296 
" clip-path="url(#p67851882e9)" style="fill: none; stroke-dasharray: 2.96,1.28; stroke-dashoffset: 0; stroke: #b0b0b0; stroke-opacity: 0.4; stroke-width: 0.8"/>
     </g>
     <g id="line2d_8">
      <g>
       <use xlink:href="#m2de69bc7f7" x="208.54333" y="239.76" style="stroke: #000000; stroke-width: 0.8"/>
      </g>
     </g>
     <g id="text_4">
      <!-- 600 -->
      <g transform="translate(198.99958 254.358437) scale(0.1 -0.1)">
       <defs>
        <path id="DejaVuSans-36" d="M 2113 2584 
Q 1688 2584 1439 2293 
Q 1191 2003 1191 1497 
Q 1191 994 1439 701 
Q 1688 409 2113 409 
Q 2538 409 2786 701 
Q 3034 994 3034 1497 
Q 3034 2003 2786 2293 
Q 2538 2584 2113 2584 
z
M 3366 4563 
L 3366 3988 
Q 3128 4100 2886 4159 
Q 2644 4219 2406 4219 
Q 1781 4219 1451 3797 
Q 1122 3375 1075 2522 
Q 1259 2794 1537 2939 
Q 1816 3084 2150 3084 
Q 2853 3084 3261 2657 
Q 3669 2231 3669 1497 
Q 3669 778 3244 343 
Q 2819 -91 2113 -91 
Q 1303 -91 875 529 
Q 447 1150 447 2328 
Q 447 3434 972 4092 
Q 1497 4750 2381 4750 
Q 2619 4750 2861 4703 
Q 3103 4656 3366 4563 
z
" transform="scale(0.015625)"/>
       </defs>
       <use xlink:href="#DejaVuSans-36"/>
       <use xlink:href="#DejaVuSans-30" x="63.623047"/>
       <use xlink:href="#DejaVuSans-30" x="127.246094"/>
      </g>
     </g>
    </g>
    <g id="xtick_5">
     <g id="line2d_9">
      <path d="M 259.321381 239.76 
L 259.321381 37.296 
" clip-path="url(#p67851882e9)" style="fill: none; stroke-dasharray: 2.96,1.28; stroke-dashoffset: 0; stroke: #b0b0b0; stroke-opacity: 0.4; stroke-width: 0.8"/>
     </g>
     <g id="line2d_10">
      <g>
       <use xlink:href="#m2de69bc7f7" x="259.321381" y="239.76" style="stroke: #000000; stroke-width: 0.8"/>
      </g>
     </g>
     <g id="text_5">
      <!-- 800 -->
      <g transform="translate(249.777631 254.358437) scale(0.1 -0.1)">
       <defs>
        <path id="DejaVuSans-38" d="M 2034 2216 
Q 1584 2216 1326 1975 
Q 1069 1734 1069 1313 
Q 1069 891 1326 650 
Q 1584 409 2034 409 
Q 2484 409 2743 651 
Q 3003 894 3003 1313 
Q 3003 1734 2745 1975 
Q 2488 2216 2034 2216 
z
M 1403 2484 
Q 997 2584 770 2862 
Q 544 3141 544 3541 
Q 544 4100 942 4425 
Q 1341 4750 2034 4750 
Q 2731 4750 3128 4425 
Q 3525 4100 3525 3541 
Q 3525 3141 3298 2862 
Q 3072 2584 2669 2484 
Q 3125 2378 3379 2068 
Q 3634 1759 3634 1313 
Q 3634 634 3220 271 
Q 2806 -91 2034 -91 
Q 1263 -91 848 271 
Q 434 634 434 1313 
Q 434 1759 690 2068 
Q 947 2378 1403 2484 
z
M 1172 3481 
Q 1172 3119 1398 2916 
Q 1625 2713 2034 2713 
Q 2441 2713 2670 2916 
Q 2900 3119 2900 3481 
Q 2900 3844 2670 4047 
Q 2441 4250 2034 4250 
Q 1625 4250 1398 4047 
Q 1172 3844 1172 3481 
z
" transform="scale(0.015625)"/>
       </defs>
       <use xlink:href="#DejaVuSans-38"/>
       <use xlink:href="#DejaVuSans-30" x="63.623047"/>
       <use xlink:href="#DejaVuSans-30" x="127.246094"/>
      </g>
     </g>
    </g>
    <g id="xtick_6">
     <g id="line2d_11">
      <path d="M 310.099432 239.76 
L 310.099432 37.296 
" clip-path="url(#p67851882e9)" style="fill: none; stroke-dasharray: 2.96,1.28; stroke-dashoffset: 0; stroke: #b0b0b0; stroke-opacity: 0.4; stroke-width: 0.8"/>
     </g>
     <g id="line2d_12">
      <g>
       <use xlink:href="#m2de69bc7f7" x="310.099432" y="239.76" style="stroke: #000000; stroke-width: 0.8"/>
      </g>
     </g>
     <g id="text_6">
      <!-- 1000 -->
      <g transform="translate(297.374432 254.358437) scale(0.1 -0.1)">
       <defs>
        <path id="DejaVuSans-31" d="M 794 531 
L 1825 531 
L 1825 4091 
L 703 3866 
L 703 4441 
L 1819 4666 
L 2450 4666 
L 2450 531 
L 3481 531 
L 3481 0 
L 794 0 
L 794 531 
z
" transform="scale(0.015625)"/>
       </defs>
       <use xlink:href="#DejaVuSans-31"/>
       <use xlink:href="#DejaVuSans-30" x="63.623047"/>
       <use xlink:href="#DejaVuSans-30" x="127.246094"/>
       <use xlink:href="#DejaVuSans-30" x="190.869141"/>
      </g>
     </g>
    </g>
    <g id="text_7">
     <!-- Epochs -->
     <g transform="translate(165.365625 268.036562) scale(0.1 -0.1)">
      <defs>
       <path id="DejaVuSans-45" d="M 628 4666 
L 3578 4666 
L 3578 4134 
L 1259 4134 
L 1259 2753 
L 3481 2753 
L 3481 2222 
L 1259 2222 
L 1259 531 
L 3634 531 
L 3634 0 
L 628 0 
L 628 4666 
z
" transform="scale(0.015625)"/>
       <path id="DejaVuSans-70" d="M 1159 525 
L 1159 -1331 
L 581 -1331 
L 581 3500 
L 1159 3500 
L 1159 2969 
Q 1341 3281 1617 3432 
Q 1894 3584 2278 3584 
Q 2916 3584 3314 3078 
Q 3713 2572 3713 1747 
Q 3713 922 3314 415 
Q 2916 -91 2278 -91 
Q 1894 -91 1617 61 
Q 1341 213 1159 525 
z
M 3116 1747 
Q 3116 2381 2855 2742 
Q 2594 3103 2138 3103 
Q 1681 3103 1420 2742 
Q 1159 2381 1159 1747 
Q 1159 1113 1420 752 
Q 1681 391 2138 391 
Q 2594 391 2855 752 
Q 3116 1113 3116 1747 
z
" transform="scale(0.015625)"/>
       <path id="DejaVuSans-6f" d="M 1959 3097 
Q 1497 3097 1228 2736 
Q 959 2375 959 1747 
Q 959 1119 1226 758 
Q 1494 397 1959 397 
Q 2419 397 2687 759 
Q 2956 1122 2956 1747 
Q 2956 2369 2687 2733 
Q 2419 3097 1959 3097 
z
M 1959 3584 
Q 2709 3584 3137 3096 
Q 3566 2609 3566 1747 
Q 3566 888 3137 398 
Q 2709 -91 1959 -91 
Q 1206 -91 779 398 
Q 353 888 353 1747 
Q 353 2609 779 3096 
Q 1206 3584 1959 3584 
z
" transform="scale(0.015625)"/>
       <path id="DejaVuSans-63" d="M 3122 3366 
L 3122 2828 
Q 2878 2963 2633 3030 
Q 2388 3097 2138 3097 
Q 1578 3097 1268 2742 
Q 959 2388 959 1747 
Q 959 1106 1268 751 
Q 1578 397 2138 397 
Q 2388 397 2633 464 
Q 2878 531 3122 666 
L 3122 134 
Q 2881 22 2623 -34 
Q 2366 -91 2075 -91 
Q 1284 -91 818 406 
Q 353 903 353 1747 
Q 353 2603 823 3093 
Q 1294 3584 2113 3584 
Q 2378 3584 2631 3529 
Q 2884 3475 3122 3366 
z
" transform="scale(0.015625)"/>
       <path id="DejaVuSans-68" d="M 3513 2113 
L 3513 0 
L 2938 0 
L 2938 2094 
Q 2938 2591 2744 2837 
Q 2550 3084 2163 3084 
Q 1697 3084 1428 2787 
Q 1159 2491 1159 1978 
L 1159 0 
L 581 0 
L 581 4863 
L 1159 4863 
L 1159 2956 
Q 1366 3272 1645 3428 
Q 1925 3584 2291 3584 
Q 2894 3584 3203 3211 
Q 3513 2838 3513 2113 
z
" transform="scale(0.015625)"/>
       <path id="DejaVuSans-73" d="M 2834 3397 
L 2834 2853 
Q 2591 2978 2328 3040 
Q 2066 3103 1784 3103 
Q 1356 3103 1142 2972 
Q 928 2841 928 2578 
Q 928 2378 1081 2264 
Q 1234 2150 1697 2047 
L 1894 2003 
Q 2506 1872 2764 1633 
Q 3022 1394 3022 966 
Q 3022 478 2636 193 
Q 2250 -91 1575 -91 
Q 1294 -91 989 -36 
Q 684 19 347 128 
L 347 722 
Q 666 556 975 473 
Q 1284 391 1588 391 
Q 1994 391 2212 530 
Q 2431 669 2431 922 
Q 2431 1156 2273 1281 
Q 2116 1406 1581 1522 
L 1381 1569 
Q 847 1681 609 1914 
Q 372 2147 372 2553 
Q 372 3047 722 3315 
Q 1072 3584 1716 3584 
Q 2034 3584 2315 3537 
Q 2597 3491 2834 3397 
z
" transform="scale(0.015625)"/>
      </defs>
      <use xlink:href="#DejaVuSans-45"/>
      <use xlink:href="#DejaVuSans-70" x="63.183594"/>
      <use xlink:href="#DejaVuSans-6f" x="126.660156"/>
      <use xlink:href="#DejaVuSans-63" x="187.841797"/>
      <use xlink:href="#DejaVuSans-68" x="242.822266"/>
      <use xlink:href="#DejaVuSans-73" x="306.201172"/>
     </g>
    </g>
   </g>
   <g id="matplotlib.axis_2">
    <g id="ytick_1">
     <g id="line2d_13">
      <path d="M 43.78125 225.99252 
L 322.78125 225.99252 
" clip-path="url(#p67851882e9)" style="fill: none; stroke-dasharray: 2.96,1.28; stroke-dashoffset: 0; stroke: #b0b0b0; stroke-opacity: 0.4; stroke-width: 0.8"/>
     </g>
     <g id="line2d_14">
      <defs>
       <path id="m89739eb7df" d="M 0 0 
L -3.5 0 
" style="stroke: #000000; stroke-width: 0.8"/>
      </defs>
      <g>
       <use xlink:href="#m89739eb7df" x="43.78125" y="225.99252" style="stroke: #000000; stroke-width: 0.8"/>
      </g>
     </g>
     <g id="text_8">
      <!-- 0.5 -->
      <g transform="translate(20.878125 229.791739) scale(0.1 -0.1)">
       <defs>
        <path id="DejaVuSans-2e" d="M 684 794 
L 1344 794 
L 1344 0 
L 684 0 
L 684 794 
z
" transform="scale(0.015625)"/>
        <path id="DejaVuSans-35" d="M 691 4666 
L 3169 4666 
L 3169 4134 
L 1269 4134 
L 1269 2991 
Q 1406 3038 1543 3061 
Q 1681 3084 1819 3084 
Q 2600 3084 3056 2656 
Q 3513 2228 3513 1497 
Q 3513 744 3044 326 
Q 2575 -91 1722 -91 
Q 1428 -91 1123 -41 
Q 819 9 494 109 
L 494 744 
Q 775 591 1075 516 
Q 1375 441 1709 441 
Q 2250 441 2565 725 
Q 2881 1009 2881 1497 
Q 2881 1984 2565 2268 
Q 2250 2553 1709 2553 
Q 1456 2553 1204 2497 
Q 953 2441 691 2322 
L 691 4666 
z
" transform="scale(0.015625)"/>
       </defs>
       <use xlink:href="#DejaVuSans-30"/>
       <use xlink:href="#DejaVuSans-2e" x="63.623047"/>
       <use xlink:href="#DejaVuSans-35" x="95.410156"/>
      </g>
     </g>
    </g>
    <g id="ytick_2">
     <g id="line2d_15">
      <path d="M 43.78125 189.475921 
L 322.78125 189.475921 
" clip-path="url(#p67851882e9)" style="fill: none; stroke-dasharray: 2.96,1.28; stroke-dashoffset: 0; stroke: #b0b0b0; stroke-opacity: 0.4; stroke-width: 0.8"/>
     </g>
     <g id="line2d_16">
      <g>
       <use xlink:href="#m89739eb7df" x="43.78125" y="189.475921" style="stroke: #000000; stroke-width: 0.8"/>
      </g>
     </g>
     <g id="text_9">
      <!-- 0.6 -->
      <g transform="translate(20.878125 193.27514) scale(0.1 -0.1)">
       <use xlink:href="#DejaVuSans-30"/>
       <use xlink:href="#DejaVuSans-2e" x="63.623047"/>
       <use xlink:href="#DejaVuSans-36" x="95.410156"/>
      </g>
     </g>
    </g>
    <g id="ytick_3">
     <g id="line2d_17">
      <path d="M 43.78125 152.959321 
L 322.78125 152.959321 
" clip-path="url(#p67851882e9)" style="fill: none; stroke-dasharray: 2.96,1.28; stroke-dashoffset: 0; stroke: #b0b0b0; stroke-opacity: 0.4; stroke-width: 0.8"/>
     </g>
     <g id="line2d_18">
      <g>
       <use xlink:href="#m89739eb7df" x="43.78125" y="152.959321" style="stroke: #000000; stroke-width: 0.8"/>
      </g>
     </g>
     <g id="text_10">
      <!-- 0.7 -->
      <g transform="translate(20.878125 156.75854) scale(0.1 -0.1)">
       <defs>
        <path id="DejaVuSans-37" d="M 525 4666 
L 3525 4666 
L 3525 4397 
L 1831 0 
L 1172 0 
L 2766 4134 
L 525 4134 
L 525 4666 
z
" transform="scale(0.015625)"/>
       </defs>
       <use xlink:href="#DejaVuSans-30"/>
       <use xlink:href="#DejaVuSans-2e" x="63.623047"/>
       <use xlink:href="#DejaVuSans-37" x="95.410156"/>
      </g>
     </g>
    </g>
    <g id="ytick_4">
     <g id="line2d_19">
      <path d="M 43.78125 116.442722 
L 322.78125 116.442722 
" clip-path="url(#p67851882e9)" style="fill: none; stroke-dasharray: 2.96,1.28; stroke-dashoffset: 0; stroke: #b0b0b0; stroke-opacity: 0.4; stroke-width: 0.8"/>
     </g>
     <g id="line2d_20">
      <g>
       <use xlink:href="#m89739eb7df" x="43.78125" y="116.442722" style="stroke: #000000; stroke-width: 0.8"/>
      </g>
     </g>
     <g id="text_11">
      <!-- 0.8 -->
      <g transform="translate(20.878125 120.241941) scale(0.1 -0.1)">
       <use xlink:href="#DejaVuSans-30"/>
       <use xlink:href="#DejaVuSans-2e" x="63.623047"/>
       <use xlink:href="#DejaVuSans-38" x="95.410156"/>
      </g>
     </g>
    </g>
    <g id="ytick_5">
     <g id="line2d_21">
      <path d="M 43.78125 79.926123 
L 322.78125 79.926123 
" clip-path="url(#p67851882e9)" style="fill: none; stroke-dasharray: 2.96,1.28; stroke-dashoffset: 0; stroke: #b0b0b0; stroke-opacity: 0.4; stroke-width: 0.8"/>
     </g>
     <g id="line2d_22">
      <g>
       <use xlink:href="#m89739eb7df" x="43.78125" y="79.926123" style="stroke: #000000; stroke-width: 0.8"/>
      </g>
     </g>
     <g id="text_12">
      <!-- 0.9 -->
      <g transform="translate(20.878125 83.725341) scale(0.1 -0.1)">
       <defs>
        <path id="DejaVuSans-39" d="M 703 97 
L 703 672 
Q 941 559 1184 500 
Q 1428 441 1663 441 
Q 2288 441 2617 861 
Q 2947 1281 2994 2138 
Q 2813 1869 2534 1725 
Q 2256 1581 1919 1581 
Q 1219 1581 811 2004 
Q 403 2428 403 3163 
Q 403 3881 828 4315 
Q 1253 4750 1959 4750 
Q 2769 4750 3195 4129 
Q 3622 3509 3622 2328 
Q 3622 1225 3098 567 
Q 2575 -91 1691 -91 
Q 1453 -91 1209 -44 
Q 966 3 703 97 
z
M 1959 2075 
Q 2384 2075 2632 2365 
Q 2881 2656 2881 3163 
Q 2881 3666 2632 3958 
Q 2384 4250 1959 4250 
Q 1534 4250 1286 3958 
Q 1038 3666 1038 3163 
Q 1038 2656 1286 2365 
Q 1534 2075 1959 2075 
z
" transform="scale(0.015625)"/>
       </defs>
       <use xlink:href="#DejaVuSans-30"/>
       <use xlink:href="#DejaVuSans-2e" x="63.623047"/>
       <use xlink:href="#DejaVuSans-39" x="95.410156"/>
      </g>
     </g>
    </g>
    <g id="ytick_6">
     <g id="line2d_23">
      <path d="M 43.78125 43.409523 
L 322.78125 43.409523 
" clip-path="url(#p67851882e9)" style="fill: none; stroke-dasharray: 2.96,1.28; stroke-dashoffset: 0; stroke: #b0b0b0; stroke-opacity: 0.4; stroke-width: 0.8"/>
     </g>
     <g id="line2d_24">
      <g>
       <use xlink:href="#m89739eb7df" x="43.78125" y="43.409523" style="stroke: #000000; stroke-width: 0.8"/>
      </g>
     </g>
     <g id="text_13">
      <!-- 1.0 -->
      <g transform="translate(20.878125 47.208742) scale(0.1 -0.1)">
       <use xlink:href="#DejaVuSans-31"/>
       <use xlink:href="#DejaVuSans-2e" x="63.623047"/>
       <use xlink:href="#DejaVuSans-30" x="95.410156"/>
      </g>
     </g>
    </g>
    <g id="text_14">
     <!-- Accuracy -->
     <g transform="translate(14.798438 161.356125) rotate(-90) scale(0.1 -0.1)">
      <defs>
       <path id="DejaVuSans-41" d="M 2188 4044 
L 1331 1722 
L 3047 1722 
L 2188 4044 
z
M 1831 4666 
L 2547 4666 
L 4325 0 
L 3669 0 
L 3244 1197 
L 1141 1197 
L 716 0 
L 50 0 
L 1831 4666 
z
" transform="scale(0.015625)"/>
       <path id="DejaVuSans-75" d="M 544 1381 
L 544 3500 
L 1119 3500 
L 1119 1403 
Q 1119 906 1312 657 
Q 1506 409 1894 409 
Q 2359 409 2629 706 
Q 2900 1003 2900 1516 
L 2900 3500 
L 3475 3500 
L 3475 0 
L 2900 0 
L 2900 538 
Q 2691 219 2414 64 
Q 2138 -91 1772 -91 
Q 1169 -91 856 284 
Q 544 659 544 1381 
z
M 1991 3584 
L 1991 3584 
z
" transform="scale(0.015625)"/>
       <path id="DejaVuSans-72" d="M 2631 2963 
Q 2534 3019 2420 3045 
Q 2306 3072 2169 3072 
Q 1681 3072 1420 2755 
Q 1159 2438 1159 1844 
L 1159 0 
L 581 0 
L 581 3500 
L 1159 3500 
L 1159 2956 
Q 1341 3275 1631 3429 
Q 1922 3584 2338 3584 
Q 2397 3584 2469 3576 
Q 2541 3569 2628 3553 
L 2631 2963 
z
" transform="scale(0.015625)"/>
       <path id="DejaVuSans-61" d="M 2194 1759 
Q 1497 1759 1228 1600 
Q 959 1441 959 1056 
Q 959 750 1161 570 
Q 1363 391 1709 391 
Q 2188 391 2477 730 
Q 2766 1069 2766 1631 
L 2766 1759 
L 2194 1759 
z
M 3341 1997 
L 3341 0 
L 2766 0 
L 2766 531 
Q 2569 213 2275 61 
Q 1981 -91 1556 -91 
Q 1019 -91 701 211 
Q 384 513 384 1019 
Q 384 1609 779 1909 
Q 1175 2209 1959 2209 
L 2766 2209 
L 2766 2266 
Q 2766 2663 2505 2880 
Q 2244 3097 1772 3097 
Q 1472 3097 1187 3025 
Q 903 2953 641 2809 
L 641 3341 
Q 956 3463 1253 3523 
Q 1550 3584 1831 3584 
Q 2591 3584 2966 3190 
Q 3341 2797 3341 1997 
z
" transform="scale(0.015625)"/>
       <path id="DejaVuSans-79" d="M 2059 -325 
Q 1816 -950 1584 -1140 
Q 1353 -1331 966 -1331 
L 506 -1331 
L 506 -850 
L 844 -850 
Q 1081 -850 1212 -737 
Q 1344 -625 1503 -206 
L 1606 56 
L 191 3500 
L 800 3500 
L 1894 763 
L 2988 3500 
L 3597 3500 
L 2059 -325 
z
" transform="scale(0.015625)"/>
      </defs>
      <use xlink:href="#DejaVuSans-41"/>
      <use xlink:href="#DejaVuSans-63" x="66.658203"/>
      <use xlink:href="#DejaVuSans-63" x="121.638672"/>
      <use xlink:href="#DejaVuSans-75" x="176.619141"/>
      <use xlink:href="#DejaVuSans-72" x="239.998047"/>
      <use xlink:href="#DejaVuSans-61" x="281.111328"/>
      <use xlink:href="#DejaVuSans-63" x="342.390625"/>
      <use xlink:href="#DejaVuSans-79" x="397.371094"/>
     </g>
    </g>
   </g>
   <g id="line2d_25">
    <path d="M 56.463068 228.772976 
L 56.716958 217.960104 
L 56.970849 212.193245 
L 57.478629 195.510531 
L 57.732519 189.022818 
L 58.49419 142.064059 
L 59.001971 129.912461 
L 59.255861 129.603521 
L 60.017532 116.319154 
L 60.271422 116.422127 
L 60.525312 113.950623 
L 60.779202 116.010214 
L 61.033093 110.655269 
L 61.286983 108.286738 
L 61.540873 108.08077 
L 62.048654 104.888411 
L 63.064215 99.63644 
L 63.318105 99.739413 
L 63.571995 97.267908 
L 63.825886 96.958967 
L 64.079776 95.517258 
L 64.333666 97.576849 
L 64.587556 97.267908 
L 64.841447 97.370881 
L 65.095337 93.663614 
L 65.349227 93.766587 
L 65.603117 90.471233 
L 65.857008 91.398055 
L 66.110898 87.999728 
L 66.364788 89.132497 
L 66.618678 86.969933 
L 66.872569 87.175901 
L 67.126459 86.455025 
L 67.634239 88.823578 
L 68.14202 83.674579 
L 68.39591 83.777552 
L 68.6498 97.267908 
L 68.903691 85.528224 
L 69.157581 82.644784 
L 69.411471 85.219283 
L 69.665361 85.013315 
L 69.919252 80.688166 
L 70.173142 79.864339 
L 70.427032 80.070285 
L 70.680922 85.631197 
L 70.934813 77.186867 
L 71.188703 78.216662 
L 71.442593 80.276253 
L 71.696483 77.701753 
L 71.950374 79.34943 
L 72.204264 79.864339 
L 72.458154 80.791161 
L 72.712044 78.319635 
L 72.965935 76.980899 
L 73.219825 76.466012 
L 73.473715 75.642163 
L 73.727605 77.083894 
L 73.981496 76.260044 
L 74.235386 76.980899 
L 74.489276 75.024281 
L 74.743166 77.59878 
L 74.997057 76.466012 
L 75.250947 78.113689 
L 75.504837 78.834543 
L 75.758727 72.96469 
L 76.012618 76.157071 
L 76.266508 73.78854 
L 76.520398 74.200454 
L 76.774288 74.200454 
L 77.028179 76.466012 
L 77.535959 70.802127 
L 77.78985 72.243836 
L 78.04374 75.84813 
L 78.29763 75.84813 
L 78.55152 72.552777 
L 78.805411 73.78854 
L 79.059301 73.479599 
L 79.313191 70.287218 
L 79.567081 73.685545 
L 79.820972 69.566364 
L 80.074862 71.317014 
L 80.328752 71.008073 
L 80.582642 68.433595 
L 81.344313 72.243836 
L 81.598203 71.214041 
L 81.852094 68.536568 
L 82.105984 72.552777 
L 82.359874 68.948482 
L 82.613764 67.4038 
L 82.867655 72.65575 
L 83.121545 71.317014 
L 83.375435 68.227628 
L 83.629325 67.094859 
L 83.883216 70.184245 
L 84.137106 63.490565 
L 84.390996 68.948482 
L 84.644886 70.390213 
L 84.898777 68.433595 
L 85.406557 70.184245 
L 85.660447 69.566364 
L 85.914338 65.653128 
L 86.168228 67.918687 
L 86.422118 67.712741 
L 86.676008 65.344188 
L 86.929899 64.829301 
L 87.437679 61.01906 
L 87.691569 60.813092 
L 87.94546 61.01906 
L 88.19935 59.371383 
L 88.70713 60.504152 
L 88.961021 58.341588 
L 89.468801 60.813092 
L 89.722691 60.298184 
L 89.976582 59.474356 
L 90.230472 60.195211 
L 90.484362 58.13562 
L 90.738252 60.401179 
L 90.992143 58.238593 
L 91.246033 59.371383 
L 91.499923 57.311771 
L 91.753813 56.590916 
L 92.007704 55.149207 
L 92.261594 57.002852 
L 92.515484 57.723706 
L 92.769374 57.105825 
L 93.277155 57.929652 
L 93.784936 56.281976 
L 94.292716 59.165416 
L 94.546606 60.710119 
L 94.800497 58.032647 
L 95.054387 57.311771 
L 95.308277 57.723706 
L 95.562167 56.38497 
L 95.816058 56.899857 
L 96.069948 59.268389 
L 96.323838 57.826679 
L 96.577728 58.341588 
L 96.831619 56.281976 
L 97.085509 55.25218 
L 97.339399 57.620712 
L 97.593289 56.590916 
L 97.84718 56.281976 
L 98.10107 55.355175 
L 98.35496 55.355175 
L 98.60885 55.973057 
L 98.862741 57.826679 
L 99.116631 55.870062 
L 99.370521 56.487943 
L 99.624411 55.664116 
L 99.878302 54.016439 
L 100.132192 54.840267 
L 100.386082 54.94324 
L 100.639972 52.574708 
L 100.893863 52.574708 
L 101.147753 54.119412 
L 101.401643 52.265767 
L 101.655533 52.986644 
L 101.909424 52.162794 
L 102.163314 52.368762 
L 102.417204 52.883649 
L 102.671094 51.544913 
L 102.924985 52.265767 
L 103.178875 53.398557 
L 103.432765 51.544913 
L 103.686655 52.162794 
L 103.940546 51.338967 
L 104.448326 52.574708 
L 104.702216 52.368762 
L 104.956107 51.853854 
L 105.209997 52.162794 
L 105.463887 54.016439 
L 105.717777 51.44194 
L 105.971668 53.707498 
L 106.225558 51.750881 
L 106.479448 52.368762 
L 106.733338 52.059821 
L 106.987229 51.956848 
L 107.241119 51.338967 
L 107.748899 54.63432 
L 108.00279 52.574708 
L 108.25668 52.883649 
L 108.51057 54.016439 
L 108.76446 52.368762 
L 109.018351 53.19259 
L 109.272241 51.853854 
L 109.780021 51.956848 
L 110.033912 52.780676 
L 110.287802 52.574708 
L 110.795583 52.677703 
L 111.049473 51.132999 
L 111.557253 50.721085 
L 111.811144 51.338967 
L 112.065034 53.604503 
L 112.572814 51.030026 
L 112.826705 51.132999 
L 113.080595 48.867441 
L 113.334485 50.927031 
L 113.588375 50.309171 
L 114.096156 51.338967 
L 114.350046 49.382349 
L 114.603936 51.132999 
L 114.857827 49.588295 
L 115.365607 50.103204 
L 115.619497 50.824058 
L 115.873388 50.927031 
L 116.127278 49.485322 
L 116.381168 50.927031 
L 116.635058 49.176381 
L 117.142839 51.132999 
L 117.396729 50.515117 
L 117.650619 49.485322 
L 117.90451 49.588295 
L 118.41229 50.721085 
L 118.66618 49.382349 
L 118.920071 51.030026 
L 119.173961 50.721085 
L 119.427851 50.721085 
L 119.681741 49.897236 
L 119.935632 50.309171 
L 120.189522 49.485322 
L 120.443412 50.412144 
L 120.697302 49.279376 
L 120.951193 52.368762 
L 121.205083 50.721085 
L 121.458973 51.338967 
L 121.712863 49.382349 
L 121.966754 50.309171 
L 122.220644 50.000231 
L 122.474534 50.206177 
L 122.728424 51.956848 
L 122.982315 50.000231 
L 123.236205 51.235972 
L 123.490095 49.897236 
L 123.743985 50.103204 
L 123.997876 50.927031 
L 124.251766 50.206177 
L 124.505656 50.721085 
L 124.759546 48.970435 
L 125.013437 49.794263 
L 125.267327 49.897236 
L 125.521217 51.030026 
L 125.775107 48.970435 
L 126.028998 49.279376 
L 126.282888 51.132999 
L 126.536778 49.897236 
L 126.790669 49.794263 
L 127.044559 49.382349 
L 127.298449 48.661495 
L 127.552339 50.412144 
L 127.80623 49.588295 
L 128.06012 50.309171 
L 128.31401 49.382349 
L 128.5679 50.000231 
L 128.821791 50.309171 
L 129.075681 47.425731 
L 129.329571 50.206177 
L 130.091242 49.073408 
L 130.345132 49.176381 
L 130.599022 48.764468 
L 131.106803 50.412144 
L 131.614583 47.528704 
L 131.868474 48.867441 
L 132.122364 49.176381 
L 132.376254 48.455527 
L 132.630144 48.455527 
L 132.884035 49.382349 
L 133.137925 49.176381 
L 133.391815 49.69129 
L 133.645705 47.734672 
L 133.899596 48.970435 
L 134.153486 49.176381 
L 134.407376 48.455527 
L 134.661266 48.970435 
L 134.915157 48.764468 
L 135.169047 48.867441 
L 135.422937 50.000231 
L 135.676827 49.279376 
L 135.930718 48.970435 
L 136.438498 48.970435 
L 136.692388 48.249559 
L 136.946279 49.176381 
L 137.200169 48.455527 
L 137.454059 48.970435 
L 137.707949 47.116791 
L 137.96184 48.970435 
L 138.21573 49.485322 
L 138.46962 48.867441 
L 138.72351 47.631699 
L 138.977401 49.073408 
L 139.231291 49.382349 
L 139.485181 49.279376 
L 139.739071 48.249559 
L 139.992962 49.588295 
L 140.246852 47.94064 
L 140.500742 49.279376 
L 140.754632 48.455527 
L 141.262413 49.073408 
L 141.516303 48.249559 
L 141.770193 49.279376 
L 142.277974 48.455527 
L 142.531864 48.661495 
L 142.785755 48.661495 
L 143.039645 49.794263 
L 143.293535 49.485322 
L 143.547425 48.043613 
L 143.801316 48.661495 
L 144.055206 49.588295 
L 144.309096 48.455527 
L 144.562986 49.485322 
L 144.816877 49.176381 
L 145.324657 49.073408 
L 146.086328 47.734672 
L 146.340218 47.94064 
L 146.594108 47.734672 
L 146.847999 48.764468 
L 147.101889 48.867441 
L 147.355779 47.94064 
L 147.609669 49.382349 
L 147.86356 47.94064 
L 148.11745 49.176381 
L 148.37134 49.279376 
L 148.62523 50.618112 
L 149.133011 48.249559 
L 149.640791 48.5585 
L 149.894682 48.764468 
L 150.148572 48.043613 
L 150.402462 48.146586 
L 150.656352 48.867441 
L 150.910243 48.661495 
L 151.164133 49.073408 
L 151.418023 47.734672 
L 151.671913 48.249559 
L 151.925804 49.279376 
L 152.433584 48.146586 
L 152.687474 48.764468 
L 153.195255 48.146586 
L 153.449145 48.970435 
L 153.703035 48.352554 
L 153.956926 48.455527 
L 154.210816 49.073408 
L 154.464706 48.146586 
L 154.718596 49.485322 
L 154.972487 47.734672 
L 155.226377 48.352554 
L 155.480267 47.734672 
L 155.734157 48.249559 
L 155.988048 47.734672 
L 156.241938 47.837645 
L 156.495828 47.322758 
L 157.003609 49.073408 
L 157.257499 48.146586 
L 157.511389 48.970435 
L 158.01917 47.219764 
L 158.27306 49.588295 
L 158.52695 49.279376 
L 158.78084 47.837645 
L 159.034731 49.382349 
L 159.288621 48.764468 
L 159.796402 48.352554 
L 160.304182 48.661495 
L 160.558072 47.94064 
L 160.811963 49.073408 
L 161.065853 47.631699 
L 161.319743 47.94064 
L 161.573633 49.279376 
L 161.827524 49.073408 
L 162.081414 49.279376 
L 162.335304 47.94064 
L 162.589194 47.322758 
L 162.843085 49.69129 
L 163.096975 48.043613 
L 163.350865 49.073408 
L 163.604755 48.249559 
L 163.858646 49.279376 
L 164.112536 48.146586 
L 164.620316 48.043613 
L 164.874207 48.661495 
L 165.128097 47.734672 
L 165.381987 48.764468 
L 165.635877 47.322758 
L 165.889768 48.455527 
L 166.143658 48.249559 
L 166.397548 49.073408 
L 166.651438 49.073408 
L 167.159219 48.249559 
L 167.413109 48.970435 
L 167.666999 47.94064 
L 167.92089 48.5585 
L 168.17478 48.455527 
L 168.42867 48.5585 
L 168.68256 49.588295 
L 168.936451 49.69129 
L 169.190341 48.970435 
L 169.444231 48.661495 
L 169.698121 48.764468 
L 169.952012 47.013818 
L 170.205902 48.455527 
L 170.459792 48.352554 
L 170.713682 49.485322 
L 170.967573 47.94064 
L 171.221463 48.146586 
L 171.475353 48.764468 
L 171.729243 46.704877 
L 171.983134 47.837645 
L 172.237024 50.000231 
L 172.490914 48.867441 
L 172.744804 49.485322 
L 172.998695 47.322758 
L 173.252585 47.734672 
L 173.506475 48.661495 
L 173.760365 47.219764 
L 174.014256 48.043613 
L 174.268146 49.485322 
L 174.522036 48.352554 
L 174.775926 48.970435 
L 175.283707 48.249559 
L 175.537597 48.043613 
L 175.791488 48.455527 
L 176.045378 49.897236 
L 176.299268 47.94064 
L 176.553158 47.94064 
L 176.807049 47.734672 
L 177.314829 48.867441 
L 177.82261 48.043613 
L 178.33039 48.455527 
L 178.58428 47.734672 
L 178.838171 48.867441 
L 179.092061 47.631699 
L 179.345951 48.764468 
L 179.599841 49.073408 
L 179.853732 48.867441 
L 180.107622 48.352554 
L 180.361512 46.910823 
L 180.615402 48.352554 
L 180.869293 47.837645 
L 181.123183 48.352554 
L 181.377073 48.5585 
L 181.630963 47.837645 
L 181.884854 48.5585 
L 182.138744 47.013818 
L 182.392634 47.528704 
L 182.646524 47.631699 
L 182.900415 48.661495 
L 183.154305 49.176381 
L 183.408195 49.279376 
L 183.662085 47.837645 
L 183.915976 47.94064 
L 184.169866 49.794263 
L 184.423756 48.352554 
L 184.677646 48.455527 
L 184.931537 47.528704 
L 185.185427 49.073408 
L 185.439317 47.734672 
L 185.693207 49.176381 
L 185.947098 48.455527 
L 186.200988 48.249559 
L 186.454878 48.5585 
L 186.708768 49.897236 
L 187.216549 47.94064 
L 187.470439 48.970435 
L 187.724329 46.910823 
L 188.23211 49.69129 
L 188.486 47.425731 
L 188.73989 48.970435 
L 188.993781 48.146586 
L 189.247671 49.794263 
L 189.501561 47.837645 
L 189.755451 47.734672 
L 190.009342 48.661495 
L 190.263232 48.764468 
L 190.517122 49.382349 
L 191.024903 47.013818 
L 191.278793 49.588295 
L 191.532683 47.116791 
L 191.786574 48.5585 
L 192.040464 48.867441 
L 192.294354 46.498909 
L 192.548244 48.5585 
L 192.802135 47.322758 
L 193.056025 48.249559 
L 193.309915 47.425731 
L 193.563805 47.631699 
L 193.817696 48.661495 
L 194.071586 48.867441 
L 194.325476 48.146586 
L 194.579366 49.485322 
L 194.833257 48.043613 
L 195.087147 48.352554 
L 195.341037 47.425731 
L 195.594927 47.94064 
L 195.848818 49.382349 
L 196.102708 48.043613 
L 196.356598 48.5585 
L 196.864379 47.116791 
L 197.118269 47.837645 
L 197.372159 49.485322 
L 197.626049 48.764468 
L 197.87994 48.970435 
L 198.13383 47.528704 
L 198.38772 48.5585 
L 198.64161 48.764468 
L 199.149391 47.528704 
L 199.403281 48.146586 
L 199.657171 49.073408 
L 199.911062 49.073408 
L 200.164952 46.910823 
L 200.418842 48.249559 
L 200.672732 48.455527 
L 200.926623 48.146586 
L 201.434403 48.455527 
L 201.688293 47.013818 
L 201.942184 49.279376 
L 202.196074 47.528704 
L 202.449964 48.970435 
L 202.703854 48.249559 
L 202.957745 49.279376 
L 203.211635 49.073408 
L 203.719415 48.249559 
L 203.973306 49.588295 
L 204.227196 48.043613 
L 204.481086 48.249559 
L 204.988867 47.94064 
L 205.242757 48.970435 
L 205.496647 47.528704 
L 205.750537 47.631699 
L 206.004428 49.382349 
L 206.766098 47.631699 
L 207.273879 47.94064 
L 207.527769 49.382349 
L 207.78166 49.588295 
L 208.03555 48.5585 
L 208.28944 48.661495 
L 208.54333 48.455527 
L 208.797221 49.073408 
L 209.305001 48.043613 
L 209.558891 48.249559 
L 209.812782 48.867441 
L 210.066672 48.970435 
L 210.320562 48.661495 
L 210.574452 48.5585 
L 210.828343 48.661495 
L 211.336123 48.249559 
L 211.590013 49.073408 
L 212.097794 47.425731 
L 212.605574 49.485322 
L 212.859465 47.94064 
L 213.113355 47.631699 
L 213.367245 47.528704 
L 213.621135 48.352554 
L 213.875026 48.455527 
L 214.128916 47.734672 
L 214.382806 48.764468 
L 214.636696 47.94064 
L 214.890587 48.764468 
L 215.144477 48.455527 
L 215.398367 47.528704 
L 215.652257 48.764468 
L 215.906148 48.5585 
L 216.160038 46.498909 
L 216.413928 48.867441 
L 216.667818 49.588295 
L 216.921709 49.073408 
L 217.175599 48.249559 
L 217.429489 48.455527 
L 217.683379 47.734672 
L 217.93727 49.073408 
L 218.19116 48.249559 
L 218.44505 48.970435 
L 218.952831 48.764468 
L 219.206721 48.146586 
L 219.714501 49.176381 
L 219.968392 49.279376 
L 220.222282 48.146586 
L 220.476172 47.631699 
L 220.730062 48.146586 
L 220.983953 47.219764 
L 221.237843 47.734672 
L 221.491733 49.073408 
L 221.745623 48.352554 
L 221.999514 49.073408 
L 222.253404 47.94064 
L 222.507294 48.661495 
L 222.761184 47.219764 
L 223.015075 48.146586 
L 223.268965 47.734672 
L 223.522855 47.631699 
L 223.776745 47.94064 
L 224.030636 48.455527 
L 224.284526 48.043613 
L 224.538416 48.146586 
L 224.792307 47.425731 
L 225.046197 48.455527 
L 225.300087 48.249559 
L 225.553977 48.455527 
L 226.061758 47.837645 
L 226.315648 48.043613 
L 226.569538 49.382349 
L 226.823429 47.94064 
L 227.077319 48.352554 
L 227.331209 48.352554 
L 227.83899 47.837645 
L 228.34677 48.146586 
L 228.60066 48.146586 
L 228.854551 49.588295 
L 229.108441 47.837645 
L 229.362331 48.661495 
L 229.616221 47.013818 
L 230.124002 48.352554 
L 230.377892 48.146586 
L 230.631782 48.661495 
L 230.885673 48.5585 
L 231.139563 47.94064 
L 231.393453 48.661495 
L 231.647343 48.146586 
L 231.901234 47.94064 
L 232.155124 47.528704 
L 232.409014 49.382349 
L 232.662904 47.94064 
L 232.916795 48.661495 
L 233.424575 47.631699 
L 233.678465 49.279376 
L 233.932356 48.043613 
L 234.186246 48.146586 
L 234.440136 49.073408 
L 234.694026 48.249559 
L 234.947917 48.043613 
L 235.709587 48.970435 
L 235.963478 48.661495 
L 236.217368 49.073408 
L 236.471258 49.073408 
L 236.725148 47.837645 
L 236.979039 47.94064 
L 237.232929 48.867441 
L 237.486819 49.176381 
L 237.9946 48.455527 
L 238.24849 46.910823 
L 238.75627 48.146586 
L 239.010161 48.043613 
L 239.517941 48.867441 
L 239.771831 47.425731 
L 240.025722 47.322758 
L 240.279612 47.94064 
L 240.533502 46.601904 
L 240.787393 48.249559 
L 241.041283 48.970435 
L 241.549063 47.837645 
L 241.802954 48.5585 
L 242.056844 48.146586 
L 242.310734 49.794263 
L 242.564624 48.043613 
L 242.818515 48.5585 
L 243.072405 48.146586 
L 243.326295 49.897236 
L 243.834076 48.5585 
L 244.087966 47.631699 
L 244.341856 48.146586 
L 244.595746 47.837645 
L 244.849637 48.661495 
L 245.103527 48.352554 
L 245.357417 49.69129 
L 245.865198 47.734672 
L 246.119088 48.352554 
L 246.626868 47.322758 
L 246.880759 47.837645 
L 247.134649 47.528704 
L 247.388539 47.528704 
L 247.642429 49.176381 
L 247.89632 47.528704 
L 248.15021 48.5585 
L 248.4041 48.764468 
L 248.65799 47.94064 
L 248.911881 48.146586 
L 249.165771 48.043613 
L 249.419661 49.69129 
L 249.673551 48.043613 
L 249.927442 47.425731 
L 250.181332 48.764468 
L 250.435222 48.764468 
L 250.689112 47.528704 
L 250.943003 48.455527 
L 251.196893 47.528704 
L 251.450783 49.279376 
L 251.704673 47.734672 
L 251.958564 47.837645 
L 252.212454 48.661495 
L 252.466344 49.073408 
L 252.720234 47.837645 
L 252.974125 47.734672 
L 253.228015 48.970435 
L 253.481905 48.867441 
L 253.735795 50.000231 
L 253.989686 47.322758 
L 254.243576 49.176381 
L 254.497466 48.764468 
L 254.751356 49.485322 
L 255.005247 48.146586 
L 255.259137 48.764468 
L 255.513027 48.661495 
L 255.766917 48.043613 
L 256.020808 49.176381 
L 256.528588 48.5585 
L 256.782479 48.249559 
L 257.036369 48.867441 
L 257.290259 48.764468 
L 257.544149 49.279376 
L 258.05193 49.588295 
L 258.30582 48.5585 
L 258.55971 48.5585 
L 258.813601 49.794263 
L 259.067491 47.837645 
L 259.321381 48.661495 
L 259.575271 48.146586 
L 259.829162 48.661495 
L 260.083052 47.528704 
L 260.336942 48.970435 
L 260.590832 47.837645 
L 261.098613 49.073408 
L 261.352503 48.970435 
L 261.606393 47.734672 
L 261.860284 49.073408 
L 262.114174 49.073408 
L 262.368064 47.837645 
L 262.621954 48.867441 
L 262.875845 48.867441 
L 263.129735 47.837645 
L 263.637515 48.661495 
L 263.891406 48.867441 
L 264.145296 47.94064 
L 264.399186 49.073408 
L 264.653076 47.013818 
L 264.906967 48.5585 
L 265.160857 48.661495 
L 265.414747 48.455527 
L 265.668637 47.837645 
L 265.922528 48.867441 
L 266.176418 47.734672 
L 266.430308 47.837645 
L 266.684198 48.455527 
L 266.938089 48.249559 
L 267.191979 48.867441 
L 267.445869 48.867441 
L 267.699759 49.485322 
L 267.95365 47.734672 
L 268.20754 47.013818 
L 268.46143 47.94064 
L 268.71532 48.249559 
L 268.969211 48.146586 
L 269.223101 48.352554 
L 269.476991 48.764468 
L 269.730881 47.631699 
L 269.984772 47.219764 
L 270.238662 48.455527 
L 270.492552 47.116791 
L 270.746442 48.867441 
L 271.000333 49.485322 
L 271.762003 47.734672 
L 272.015894 47.734672 
L 272.269784 49.073408 
L 272.523674 48.352554 
L 272.777564 48.867441 
L 273.031455 47.837645 
L 273.285345 49.279376 
L 273.539235 49.176381 
L 274.047016 46.704877 
L 274.300906 48.867441 
L 274.554796 47.528704 
L 275.062577 48.455527 
L 275.316467 48.146586 
L 275.570357 48.352554 
L 275.824248 47.734672 
L 276.078138 48.867441 
L 276.332028 49.176381 
L 276.585918 48.455527 
L 276.839809 48.970435 
L 277.601479 47.631699 
L 277.85537 48.249559 
L 278.10926 48.146586 
L 278.61704 48.867441 
L 278.870931 47.837645 
L 279.124821 49.588295 
L 279.378711 47.837645 
L 279.632601 49.073408 
L 279.886492 48.661495 
L 280.140382 49.382349 
L 280.394272 48.249559 
L 280.902053 47.631699 
L 281.155943 47.425731 
L 281.409833 48.455527 
L 281.663723 48.764468 
L 281.917614 48.455527 
L 282.171504 47.631699 
L 282.425394 47.734672 
L 282.679284 48.043613 
L 282.933175 48.661495 
L 283.187065 48.764468 
L 283.440955 48.249559 
L 283.694845 48.455527 
L 283.948736 48.043613 
L 284.202626 47.013818 
L 284.456516 48.661495 
L 284.710406 48.867441 
L 284.964297 48.5585 
L 285.218187 48.5585 
L 285.472077 47.322758 
L 285.725967 48.352554 
L 286.233748 48.043613 
L 286.487638 49.073408 
L 286.995419 47.94064 
L 287.249309 48.661495 
L 287.757089 47.837645 
L 288.26487 48.455527 
L 288.51876 47.631699 
L 288.77265 48.455527 
L 289.026541 48.249559 
L 289.280431 47.322758 
L 289.534321 49.073408 
L 289.788212 47.94064 
L 290.042102 47.528704 
L 290.295992 48.146586 
L 290.549882 47.734672 
L 290.803773 48.146586 
L 291.057663 49.073408 
L 291.311553 48.455527 
L 291.565443 48.249559 
L 291.819334 49.382349 
L 292.073224 48.867441 
L 292.327114 47.425731 
L 292.581004 49.073408 
L 292.834895 47.013818 
L 293.088785 49.382349 
L 293.342675 49.176381 
L 293.596565 48.764468 
L 293.850456 49.176381 
L 294.104346 48.661495 
L 294.358236 47.837645 
L 294.612126 49.279376 
L 294.866017 48.661495 
L 295.119907 48.5585 
L 295.373797 49.176381 
L 295.627687 48.249559 
L 295.881578 48.146586 
L 296.135468 47.528704 
L 296.389358 48.867441 
L 296.643248 49.073408 
L 296.897139 48.764468 
L 297.151029 47.528704 
L 297.404919 48.455527 
L 297.658809 47.734672 
L 297.9127 47.734672 
L 298.16659 47.94064 
L 298.42048 47.425731 
L 298.67437 48.970435 
L 299.182151 49.279376 
L 299.436041 47.013818 
L 299.943822 48.867441 
L 300.197712 49.073408 
L 300.451602 47.116791 
L 300.959383 48.5585 
L 301.467163 48.352554 
L 301.721053 47.734672 
L 301.974944 46.80785 
L 302.482724 50.206177 
L 302.736614 49.073408 
L 302.990505 48.764468 
L 303.244395 49.382349 
L 303.498285 48.249559 
L 304.006066 48.455527 
L 304.259956 46.601904 
L 304.513846 48.146586 
L 304.767736 48.043613 
L 305.021627 48.764468 
L 305.275517 48.455527 
L 305.529407 47.631699 
L 305.783298 50.000231 
L 306.037188 48.455527 
L 306.291078 47.631699 
L 306.544968 47.837645 
L 306.798859 47.013818 
L 307.052749 48.5585 
L 307.306639 48.455527 
L 307.560529 49.279376 
L 307.81442 48.043613 
L 308.06831 48.249559 
L 308.3222 48.661495 
L 308.57609 49.382349 
L 308.829981 47.631699 
L 309.337761 47.94064 
L 309.591651 47.734672 
L 309.845542 48.455527 
L 310.099432 48.146586 
L 310.099432 48.146586 
" clip-path="url(#p67851882e9)" style="fill: none; stroke: #0000ff; stroke-width: 0.6; stroke-linecap: square"/>
   </g>
   <g id="line2d_26">
    <path d="M 56.463068 230.557091 
L 56.716958 221.908425 
L 56.970849 208.45494 
L 57.224739 182.989418 
L 57.478629 196.442903 
L 57.732519 157.043421 
L 57.98641 149.355706 
L 58.49419 120.286564 
L 58.74808 120.526813 
L 59.001971 113.80007 
L 59.255861 116.202491 
L 59.509751 114.040319 
L 60.017532 127.493804 
L 60.271422 112.358622 
L 60.525312 104.430681 
L 60.779202 110.917175 
L 61.033093 184.430866 
L 61.286983 99.385635 
L 61.540873 109.2355 
L 62.048654 117.40369 
L 62.556434 99.145386 
L 62.810325 101.547785 
L 63.064215 132.53885 
L 63.318105 99.385635 
L 63.571995 97.703938 
L 63.825886 110.676948 
L 64.079776 96.022263 
L 64.333666 99.625861 
L 64.587556 99.385635 
L 65.095337 96.26249 
L 65.349227 93.139368 
L 65.603117 101.547785 
L 65.857008 98.905138 
L 66.110898 93.619843 
L 66.364788 97.46369 
L 66.618678 98.664911 
L 66.872569 97.223463 
L 67.126459 98.905138 
L 67.380349 105.872129 
L 67.634239 93.619843 
L 67.88813 94.580816 
L 68.14202 97.46369 
L 68.39591 213.019511 
L 68.6498 97.46369 
L 68.903691 91.457671 
L 69.157581 99.385635 
L 69.411471 97.944187 
L 69.665361 92.899119 
L 69.919252 98.664911 
L 70.173142 95.541766 
L 70.427032 96.742987 
L 70.680922 93.139368 
L 70.934813 92.418644 
L 71.188703 96.022263 
L 71.442593 91.938168 
L 71.696483 96.983214 
L 71.950374 95.541766 
L 72.204264 102.268509 
L 72.458154 92.899119 
L 72.712044 94.100318 
L 73.219825 92.418644 
L 73.473715 92.899119 
L 73.727605 92.899119 
L 73.981496 90.256472 
L 74.235386 91.457671 
L 74.489276 101.547785 
L 74.743166 102.989233 
L 74.997057 94.340567 
L 75.250947 92.899119 
L 75.504837 97.46369 
L 75.758727 92.178395 
L 76.012618 93.619843 
L 76.266508 91.938168 
L 76.520398 95.301539 
L 76.774288 96.022263 
L 77.028179 89.775996 
L 77.282069 89.055272 
L 77.535959 90.49672 
L 77.78985 93.860092 
L 78.04374 94.100318 
L 78.29763 92.899119 
L 78.55152 95.541766 
L 78.805411 95.541766 
L 79.059301 103.46973 
L 79.567081 89.055272 
L 79.820972 95.301539 
L 80.074862 91.457671 
L 80.328752 90.49672 
L 80.582642 93.379616 
L 80.836533 92.418644 
L 81.090423 90.977196 
L 81.344313 92.899119 
L 81.598203 91.938168 
L 81.852094 111.157423 
L 82.105984 92.178395 
L 82.359874 90.016245 
L 82.613764 91.938168 
L 82.867655 91.217444 
L 83.121545 96.742987 
L 83.629325 93.860092 
L 83.883216 93.139368 
L 84.137106 96.022263 
L 84.390996 96.742987 
L 84.644886 94.340567 
L 84.898777 96.742987 
L 85.152667 92.178395 
L 85.406557 94.100318 
L 85.660447 94.340567 
L 85.914338 92.178395 
L 86.422118 90.977196 
L 86.676008 89.055272 
L 86.929899 90.49672 
L 87.183789 91.217444 
L 87.437679 92.418644 
L 87.691569 90.49672 
L 87.94546 93.619843 
L 88.19935 89.535748 
L 88.70713 93.379616 
L 88.961021 95.061291 
L 89.468801 91.217444 
L 89.722691 95.301539 
L 89.976582 95.061291 
L 90.484362 89.535748 
L 90.738252 90.49672 
L 90.992143 93.619843 
L 91.499923 92.658892 
L 91.753813 95.061291 
L 92.007704 94.821042 
L 92.261594 91.217444 
L 92.515484 94.821042 
L 93.023265 93.139368 
L 93.277155 96.502739 
L 93.531045 92.899119 
L 93.784936 92.658892 
L 94.038826 93.139368 
L 94.292716 96.983214 
L 94.800497 91.938168 
L 95.054387 92.658892 
L 95.308277 90.256472 
L 95.562167 97.944187 
L 95.816058 95.301539 
L 96.069948 96.983214 
L 96.323838 94.100318 
L 96.577728 95.301539 
L 96.831619 94.821042 
L 97.085509 96.022263 
L 97.339399 97.944187 
L 97.593289 95.301539 
L 97.84718 97.703938 
L 98.35496 93.379616 
L 98.60885 92.418644 
L 98.862741 95.061291 
L 99.370521 93.619843 
L 99.624411 94.580816 
L 99.878302 91.938168 
L 100.132192 96.26249 
L 100.386082 92.178395 
L 100.639972 95.061291 
L 101.147753 92.658892 
L 101.401643 92.899119 
L 101.655533 95.061291 
L 101.909424 92.418644 
L 102.163314 95.301539 
L 102.417204 96.26249 
L 102.671094 91.217444 
L 102.924985 95.061291 
L 103.178875 96.26249 
L 103.432765 96.022263 
L 103.686655 96.022263 
L 103.940546 93.379616 
L 104.194436 93.619843 
L 104.448326 92.658892 
L 104.702216 92.418644 
L 104.956107 92.418644 
L 105.209997 94.821042 
L 105.463887 93.860092 
L 105.717777 96.022263 
L 105.971668 92.899119 
L 106.479448 95.541766 
L 106.733338 94.821042 
L 106.987229 96.502739 
L 107.241119 97.223463 
L 107.495009 94.580816 
L 107.748899 94.100318 
L 108.25668 92.418644 
L 108.51057 96.26249 
L 109.018351 94.821042 
L 109.272241 92.899119 
L 109.526131 96.983214 
L 109.780021 90.977196 
L 110.033912 94.100318 
L 110.287802 95.541766 
L 110.795583 96.983214 
L 111.049473 93.619843 
L 111.303363 93.619843 
L 111.557253 96.502739 
L 111.811144 96.742987 
L 112.318924 95.061291 
L 112.572814 92.899119 
L 112.826705 95.782015 
L 113.080595 95.301539 
L 113.334485 93.139368 
L 113.588375 95.061291 
L 113.842266 92.178395 
L 114.350046 95.061291 
L 114.603936 94.821042 
L 114.857827 95.061291 
L 115.111717 96.022263 
L 115.365607 94.821042 
L 115.619497 94.580816 
L 115.873388 95.541766 
L 116.127278 95.301539 
L 116.381168 95.782015 
L 116.635058 93.619843 
L 116.888949 94.100318 
L 117.396729 96.022263 
L 117.650619 94.821042 
L 117.90451 95.541766 
L 118.1584 98.184414 
L 118.41229 96.26249 
L 118.66618 96.502739 
L 118.920071 94.340567 
L 119.173961 95.782015 
L 119.427851 96.26249 
L 119.681741 93.860092 
L 119.935632 96.502739 
L 120.189522 96.983214 
L 120.443412 94.580816 
L 120.697302 93.379616 
L 120.951193 95.301539 
L 121.205083 95.541766 
L 121.966754 92.658892 
L 122.220644 93.379616 
L 122.474534 96.502739 
L 122.982315 94.580816 
L 123.236205 94.821042 
L 123.490095 96.022263 
L 123.743985 93.379616 
L 123.997876 95.061291 
L 124.251766 95.301539 
L 124.505656 94.580816 
L 124.759546 96.022263 
L 125.013437 95.061291 
L 125.267327 95.541766 
L 125.521217 94.340567 
L 125.775107 94.100318 
L 126.028998 95.541766 
L 126.282888 95.061291 
L 126.536778 95.301539 
L 126.790669 94.100318 
L 127.044559 94.821042 
L 127.298449 96.502739 
L 127.552339 95.061291 
L 127.80623 95.541766 
L 128.06012 95.061291 
L 128.31401 95.782015 
L 128.5679 95.061291 
L 128.821791 95.061291 
L 129.075681 95.782015 
L 129.329571 94.340567 
L 129.583461 94.100318 
L 129.837352 96.022263 
L 130.345132 94.100318 
L 130.599022 94.580816 
L 131.106803 95.061291 
L 131.360693 94.821042 
L 131.614583 94.340567 
L 131.868474 94.100318 
L 132.122364 94.340567 
L 132.376254 95.301539 
L 132.630144 94.580816 
L 132.884035 95.061291 
L 133.137925 94.100318 
L 133.391815 94.100318 
L 133.645705 94.340567 
L 133.899596 93.379616 
L 134.153486 95.301539 
L 134.407376 95.061291 
L 134.661266 94.580816 
L 134.915157 94.821042 
L 135.169047 94.821042 
L 135.422937 94.580816 
L 135.676827 94.580816 
L 135.930718 95.782015 
L 136.184608 95.301539 
L 136.438498 96.983214 
L 136.692388 94.580816 
L 136.946279 95.301539 
L 137.200169 94.340567 
L 137.707949 94.821042 
L 137.96184 93.860092 
L 138.21573 95.301539 
L 138.46962 95.541766 
L 138.72351 94.340567 
L 138.977401 95.301539 
L 139.231291 94.580816 
L 139.485181 95.301539 
L 139.739071 95.301539 
L 139.992962 94.821042 
L 140.246852 93.139368 
L 140.500742 94.580816 
L 141.008523 94.580816 
L 141.262413 95.541766 
L 141.516303 94.100318 
L 142.024084 95.061291 
L 142.277974 94.821042 
L 142.531864 94.821042 
L 142.785755 94.340567 
L 143.039645 95.782015 
L 143.293535 94.100318 
L 143.547425 95.301539 
L 143.801316 94.821042 
L 144.055206 95.541766 
L 144.309096 94.580816 
L 144.562986 95.541766 
L 144.816877 95.782015 
L 145.070767 95.541766 
L 145.324657 94.580816 
L 145.578547 95.782015 
L 145.832438 95.301539 
L 146.086328 95.061291 
L 146.340218 95.061291 
L 146.594108 95.541766 
L 146.847999 94.821042 
L 147.355779 94.821042 
L 147.609669 95.301539 
L 147.86356 94.100318 
L 148.11745 94.580816 
L 148.37134 95.541766 
L 148.62523 94.821042 
L 148.879121 93.139368 
L 149.133011 93.860092 
L 149.386901 93.860092 
L 149.640791 95.301539 
L 149.894682 94.340567 
L 150.148572 95.301539 
L 150.656352 94.821042 
L 150.910243 95.301539 
L 151.164133 95.541766 
L 151.418023 95.061291 
L 151.671913 96.022263 
L 151.925804 95.301539 
L 152.179694 95.782015 
L 152.433584 96.022263 
L 152.687474 95.301539 
L 152.941365 95.061291 
L 153.195255 95.541766 
L 153.449145 95.782015 
L 153.703035 95.782015 
L 153.956926 95.301539 
L 154.210816 96.502739 
L 154.464706 96.022263 
L 154.718596 95.301539 
L 154.972487 95.061291 
L 155.226377 96.022263 
L 155.480267 95.782015 
L 155.734157 96.022263 
L 155.988048 95.301539 
L 156.241938 96.022263 
L 156.495828 95.782015 
L 156.749718 96.26249 
L 157.257499 94.821042 
L 157.511389 95.301539 
L 157.765279 94.821042 
L 158.01917 95.301539 
L 158.27306 94.821042 
L 158.78084 94.821042 
L 159.034731 96.502739 
L 159.288621 95.061291 
L 159.542511 95.541766 
L 160.050292 95.541766 
L 160.304182 94.580816 
L 160.558072 95.301539 
L 160.811963 95.061291 
L 161.065853 95.061291 
L 161.573633 94.580816 
L 161.827524 94.821042 
L 162.081414 95.301539 
L 162.335304 95.301539 
L 162.589194 94.821042 
L 162.843085 94.821042 
L 163.096975 95.061291 
L 163.350865 94.100318 
L 163.858646 94.580816 
L 164.112536 94.580816 
L 164.366426 95.301539 
L 164.620316 94.821042 
L 164.874207 95.061291 
L 165.128097 94.580816 
L 165.381987 95.061291 
L 165.635877 95.061291 
L 165.889768 94.821042 
L 166.143658 95.061291 
L 166.397548 94.821042 
L 166.651438 95.301539 
L 166.905329 94.821042 
L 167.159219 94.821042 
L 167.413109 95.541766 
L 167.666999 95.301539 
L 167.92089 95.301539 
L 168.17478 95.061291 
L 168.42867 95.061291 
L 168.68256 95.541766 
L 168.936451 95.061291 
L 169.190341 95.541766 
L 169.444231 95.782015 
L 169.698121 95.541766 
L 169.952012 95.061291 
L 170.205902 94.821042 
L 170.459792 95.061291 
L 170.713682 94.340567 
L 170.967573 94.821042 
L 171.221463 95.061291 
L 171.475353 95.061291 
L 171.729243 95.301539 
L 171.983134 94.821042 
L 172.237024 95.061291 
L 172.490914 94.821042 
L 172.744804 94.821042 
L 172.998695 95.061291 
L 173.252585 95.061291 
L 173.506475 95.301539 
L 173.760365 95.301539 
L 174.014256 95.541766 
L 174.268146 95.541766 
L 174.522036 95.061291 
L 174.775926 95.541766 
L 175.283707 94.580816 
L 175.537597 95.541766 
L 175.791488 95.541766 
L 176.045378 95.061291 
L 176.299268 95.061291 
L 176.553158 94.821042 
L 176.807049 95.061291 
L 177.060939 95.061291 
L 177.314829 94.580816 
L 177.568719 94.340567 
L 177.82261 95.301539 
L 178.0765 95.301539 
L 178.33039 95.061291 
L 178.58428 95.782015 
L 179.092061 94.821042 
L 179.345951 94.821042 
L 179.599841 95.301539 
L 179.853732 95.061291 
L 180.361512 95.061291 
L 180.615402 95.541766 
L 180.869293 95.061291 
L 181.123183 94.821042 
L 181.377073 95.301539 
L 181.630963 95.541766 
L 181.884854 95.061291 
L 182.138744 95.301539 
L 182.392634 95.061291 
L 182.646524 95.301539 
L 182.900415 96.022263 
L 183.154305 95.541766 
L 183.408195 94.821042 
L 183.662085 95.301539 
L 183.915976 95.541766 
L 184.169866 95.061291 
L 184.423756 95.541766 
L 185.185427 95.541766 
L 185.439317 94.821042 
L 185.693207 95.541766 
L 185.947098 95.782015 
L 186.200988 95.541766 
L 186.454878 95.782015 
L 186.708768 95.541766 
L 186.962659 95.541766 
L 187.216549 94.821042 
L 187.724329 95.782015 
L 187.97822 94.821042 
L 188.486 94.821042 
L 188.73989 95.541766 
L 189.247671 95.541766 
L 189.501561 95.301539 
L 189.755451 95.782015 
L 190.009342 95.061291 
L 190.263232 95.301539 
L 190.517122 95.782015 
L 191.024903 95.782015 
L 191.278793 96.022263 
L 191.532683 95.782015 
L 191.786574 96.022263 
L 192.040464 95.301539 
L 192.548244 96.26249 
L 193.056025 95.782015 
L 193.309915 95.061291 
L 193.563805 95.541766 
L 193.817696 95.301539 
L 194.325476 95.301539 
L 194.579366 94.821042 
L 195.087147 94.821042 
L 195.341037 96.022263 
L 195.594927 95.301539 
L 195.848818 95.541766 
L 196.102708 94.821042 
L 196.356598 95.541766 
L 196.610488 94.821042 
L 196.864379 95.301539 
L 197.118269 95.541766 
L 197.372159 95.301539 
L 197.626049 95.301539 
L 197.87994 95.541766 
L 198.13383 95.061291 
L 198.64161 94.580816 
L 198.895501 95.301539 
L 199.149391 95.541766 
L 199.403281 95.301539 
L 199.657171 95.301539 
L 199.911062 94.821042 
L 200.418842 94.821042 
L 200.672732 95.541766 
L 200.926623 95.301539 
L 201.180513 94.821042 
L 201.434403 94.821042 
L 201.688293 95.061291 
L 202.196074 95.061291 
L 202.449964 94.821042 
L 202.957745 95.301539 
L 203.211635 94.821042 
L 203.465525 95.541766 
L 203.719415 95.541766 
L 203.973306 94.580816 
L 204.227196 95.541766 
L 204.734976 95.541766 
L 204.988867 95.301539 
L 205.242757 95.541766 
L 206.004428 95.541766 
L 206.512208 94.580816 
L 206.766098 95.061291 
L 207.273879 95.541766 
L 207.527769 95.301539 
L 207.78166 94.821042 
L 208.03555 94.821042 
L 208.28944 95.061291 
L 208.54333 94.821042 
L 208.797221 94.821042 
L 209.051111 95.301539 
L 209.305001 95.301539 
L 209.558891 95.061291 
L 209.812782 95.061291 
L 210.066672 95.301539 
L 211.082233 95.301539 
L 211.336123 94.821042 
L 211.590013 95.301539 
L 212.097794 95.301539 
L 212.605574 94.821042 
L 212.859465 95.061291 
L 213.113355 95.061291 
L 213.621135 95.541766 
L 213.875026 95.301539 
L 214.128916 95.301539 
L 214.382806 95.061291 
L 214.890587 95.061291 
L 215.144477 95.301539 
L 215.652257 95.301539 
L 216.160038 94.821042 
L 216.413928 95.061291 
L 216.667818 94.821042 
L 216.921709 94.821042 
L 217.429489 95.301539 
L 218.69894 95.301539 
L 218.952831 95.061291 
L 219.206721 95.301539 
L 220.730062 95.301539 
L 220.983953 95.541766 
L 222.253404 95.541766 
L 222.507294 95.061291 
L 222.761184 95.301539 
L 223.015075 95.301539 
L 223.268965 95.541766 
L 223.776745 95.061291 
L 224.284526 95.061291 
L 224.538416 95.301539 
L 225.553977 95.301539 
L 225.807868 95.541766 
L 226.061758 95.301539 
L 226.569538 95.301539 
L 226.823429 95.061291 
L 228.60066 95.061291 
L 228.854551 95.301539 
L 229.108441 95.061291 
L 233.424575 95.061291 
L 233.932356 95.541766 
L 234.440136 95.541766 
L 234.947917 95.061291 
L 236.217368 95.061291 
L 236.471258 95.301539 
L 237.486819 95.301539 
L 237.740709 95.061291 
L 237.9946 95.301539 
L 238.24849 95.061291 
L 238.50238 95.061291 
L 238.75627 95.301539 
L 239.010161 95.061291 
L 244.087966 95.061291 
L 244.341856 95.301539 
L 246.880759 95.301539 
L 247.134649 95.541766 
L 247.388539 95.301539 
L 249.927442 95.301539 
L 250.181332 95.541766 
L 250.435222 95.301539 
L 251.450783 95.301539 
L 251.704673 95.541766 
L 251.958564 95.301539 
L 267.95365 95.301539 
L 268.20754 95.541766 
L 268.969211 95.541766 
L 269.223101 95.301539 
L 270.746442 95.301539 
L 271.000333 95.541766 
L 272.523674 95.541766 
L 272.777564 95.301539 
L 273.285345 95.301539 
L 273.539235 95.541766 
L 275.316467 95.541766 
L 275.570357 95.301539 
L 279.378711 95.301539 
L 279.632601 95.541766 
L 279.886492 95.301539 
L 281.409833 95.301539 
L 281.663723 95.541766 
L 283.948736 95.541766 
L 284.202626 95.301539 
L 291.311553 95.301539 
L 291.565443 95.541766 
L 293.342675 95.541766 
L 293.596565 95.301539 
L 302.990505 95.301539 
L 303.244395 95.541766 
L 309.845542 95.541766 
L 310.099432 95.301539 
L 310.099432 95.301539 
" clip-path="url(#p67851882e9)" style="fill: none; stroke: #ff0000; stroke-width: 0.6; stroke-linecap: square"/>
   </g>
   <g id="patch_3">
    <path d="M 43.78125 239.76 
L 43.78125 37.296 
" style="fill: none; stroke: #000000; stroke-width: 0.8; stroke-linejoin: miter; stroke-linecap: square"/>
   </g>
   <g id="patch_4">
    <path d="M 322.78125 239.76 
L 322.78125 37.296 
" style="fill: none; stroke: #000000; stroke-width: 0.8; stroke-linejoin: miter; stroke-linecap: square"/>
   </g>
   <g id="patch_5">
    <path d="M 43.78125 239.76 
L 322.78125 239.76 
" style="fill: none; stroke: #000000; stroke-width: 0.8; stroke-linejoin: miter; stroke-linecap: square"/>
   </g>
   <g id="patch_6">
    <path d="M 43.78125 37.296 
L 322.78125 37.296 
" style="fill: none; stroke: #000000; stroke-width: 0.8; stroke-linejoin: miter; stroke-linecap: square"/>
   </g>
   <g id="text_15">
    <!-- Baseline Model -->
    <g transform="translate(149.259844 31.296) scale(0.09 -0.09)">
     <defs>
      <path id="DejaVuSans-42" d="M 1259 2228 
L 1259 519 
L 2272 519 
Q 2781 519 3026 730 
Q 3272 941 3272 1375 
Q 3272 1813 3026 2020 
Q 2781 2228 2272 2228 
L 1259 2228 
z
M 1259 4147 
L 1259 2741 
L 2194 2741 
Q 2656 2741 2882 2914 
Q 3109 3088 3109 3444 
Q 3109 3797 2882 3972 
Q 2656 4147 2194 4147 
L 1259 4147 
z
M 628 4666 
L 2241 4666 
Q 2963 4666 3353 4366 
Q 3744 4066 3744 3513 
Q 3744 3084 3544 2831 
Q 3344 2578 2956 2516 
Q 3422 2416 3680 2098 
Q 3938 1781 3938 1306 
Q 3938 681 3513 340 
Q 3088 0 2303 0 
L 628 0 
L 628 4666 
z
" transform="scale(0.015625)"/>
      <path id="DejaVuSans-65" d="M 3597 1894 
L 3597 1613 
L 953 1613 
Q 991 1019 1311 708 
Q 1631 397 2203 397 
Q 2534 397 2845 478 
Q 3156 559 3463 722 
L 3463 178 
Q 3153 47 2828 -22 
Q 2503 -91 2169 -91 
Q 1331 -91 842 396 
Q 353 884 353 1716 
Q 353 2575 817 3079 
Q 1281 3584 2069 3584 
Q 2775 3584 3186 3129 
Q 3597 2675 3597 1894 
z
M 3022 2063 
Q 3016 2534 2758 2815 
Q 2500 3097 2075 3097 
Q 1594 3097 1305 2825 
Q 1016 2553 972 2059 
L 3022 2063 
z
" transform="scale(0.015625)"/>
      <path id="DejaVuSans-6c" d="M 603 4863 
L 1178 4863 
L 1178 0 
L 603 0 
L 603 4863 
z
" transform="scale(0.015625)"/>
      <path id="DejaVuSans-69" d="M 603 3500 
L 1178 3500 
L 1178 0 
L 603 0 
L 603 3500 
z
M 603 4863 
L 1178 4863 
L 1178 4134 
L 603 4134 
L 603 4863 
z
" transform="scale(0.015625)"/>
      <path id="DejaVuSans-6e" d="M 3513 2113 
L 3513 0 
L 2938 0 
L 2938 2094 
Q 2938 2591 2744 2837 
Q 2550 3084 2163 3084 
Q 1697 3084 1428 2787 
Q 1159 2491 1159 1978 
L 1159 0 
L 581 0 
L 581 3500 
L 1159 3500 
L 1159 2956 
Q 1366 3272 1645 3428 
Q 1925 3584 2291 3584 
Q 2894 3584 3203 3211 
Q 3513 2838 3513 2113 
z
" transform="scale(0.015625)"/>
      <path id="DejaVuSans-20" transform="scale(0.015625)"/>
      <path id="DejaVuSans-4d" d="M 628 4666 
L 1569 4666 
L 2759 1491 
L 3956 4666 
L 4897 4666 
L 4897 0 
L 4281 0 
L 4281 4097 
L 3078 897 
L 2444 897 
L 1241 4097 
L 1241 0 
L 628 0 
L 628 4666 
z
" transform="scale(0.015625)"/>
      <path id="DejaVuSans-64" d="M 2906 2969 
L 2906 4863 
L 3481 4863 
L 3481 0 
L 2906 0 
L 2906 525 
Q 2725 213 2448 61 
Q 2172 -91 1784 -91 
Q 1150 -91 751 415 
Q 353 922 353 1747 
Q 353 2572 751 3078 
Q 1150 3584 1784 3584 
Q 2172 3584 2448 3432 
Q 2725 3281 2906 2969 
z
M 947 1747 
Q 947 1113 1208 752 
Q 1469 391 1925 391 
Q 2381 391 2643 752 
Q 2906 1113 2906 1747 
Q 2906 2381 2643 2742 
Q 2381 3103 1925 3103 
Q 1469 3103 1208 2742 
Q 947 2381 947 1747 
z
" transform="scale(0.015625)"/>
     </defs>
     <use xlink:href="#DejaVuSans-42"/>
     <use xlink:href="#DejaVuSans-61" x="68.603516"/>
     <use xlink:href="#DejaVuSans-73" x="129.882812"/>
     <use xlink:href="#DejaVuSans-65" x="181.982422"/>
     <use xlink:href="#DejaVuSans-6c" x="243.505859"/>
     <use xlink:href="#DejaVuSans-69" x="271.289062"/>
     <use xlink:href="#DejaVuSans-6e" x="299.072266"/>
     <use xlink:href="#DejaVuSans-65" x="362.451172"/>
     <use xlink:href="#DejaVuSans-20" x="423.974609"/>
     <use xlink:href="#DejaVuSans-4d" x="455.761719"/>
     <use xlink:href="#DejaVuSans-6f" x="542.041016"/>
     <use xlink:href="#DejaVuSans-64" x="603.222656"/>
     <use xlink:href="#DejaVuSans-65" x="666.699219"/>
     <use xlink:href="#DejaVuSans-6c" x="728.222656"/>
    </g>
   </g>
   <g id="legend_1">
    <g id="patch_7">
     <path d="M 185.565625 234.76 
L 315.78125 234.76 
Q 317.78125 234.76 317.78125 232.76 
L 317.78125 204.40375 
Q 317.78125 202.40375 315.78125 202.40375 
L 185.565625 202.40375 
Q 183.565625 202.40375 183.565625 204.40375 
L 183.565625 232.76 
Q 183.565625 234.76 185.565625 234.76 
z
" style="fill: #ffffff; opacity: 0.8; stroke: #cccccc; stroke-linejoin: miter"/>
    </g>
    <g id="line2d_27">
     <path d="M 187.565625 210.502187 
L 197.565625 210.502187 
L 207.565625 210.502187 
" style="fill: none; stroke: #0000ff; stroke-width: 0.6; stroke-linecap: square"/>
    </g>
    <g id="text_16">
     <!-- Training Accuracy -->
     <g transform="translate(215.565625 214.002187) scale(0.1 -0.1)">
      <defs>
       <path id="DejaVuSans-54" d="M -19 4666 
L 3928 4666 
L 3928 4134 
L 2272 4134 
L 2272 0 
L 1638 0 
L 1638 4134 
L -19 4134 
L -19 4666 
z
" transform="scale(0.015625)"/>
       <path id="DejaVuSans-67" d="M 2906 1791 
Q 2906 2416 2648 2759 
Q 2391 3103 1925 3103 
Q 1463 3103 1205 2759 
Q 947 2416 947 1791 
Q 947 1169 1205 825 
Q 1463 481 1925 481 
Q 2391 481 2648 825 
Q 2906 1169 2906 1791 
z
M 3481 434 
Q 3481 -459 3084 -895 
Q 2688 -1331 1869 -1331 
Q 1566 -1331 1297 -1286 
Q 1028 -1241 775 -1147 
L 775 -588 
Q 1028 -725 1275 -790 
Q 1522 -856 1778 -856 
Q 2344 -856 2625 -561 
Q 2906 -266 2906 331 
L 2906 616 
Q 2728 306 2450 153 
Q 2172 0 1784 0 
Q 1141 0 747 490 
Q 353 981 353 1791 
Q 353 2603 747 3093 
Q 1141 3584 1784 3584 
Q 2172 3584 2450 3431 
Q 2728 3278 2906 2969 
L 2906 3500 
L 3481 3500 
L 3481 434 
z
" transform="scale(0.015625)"/>
      </defs>
      <use xlink:href="#DejaVuSans-54"/>
      <use xlink:href="#DejaVuSans-72" x="46.333984"/>
      <use xlink:href="#DejaVuSans-61" x="87.447266"/>
      <use xlink:href="#DejaVuSans-69" x="148.726562"/>
      <use xlink:href="#DejaVuSans-6e" x="176.509766"/>
      <use xlink:href="#DejaVuSans-69" x="239.888672"/>
      <use xlink:href="#DejaVuSans-6e" x="267.671875"/>
      <use xlink:href="#DejaVuSans-67" x="331.050781"/>
      <use xlink:href="#DejaVuSans-20" x="394.527344"/>
      <use xlink:href="#DejaVuSans-41" x="426.314453"/>
      <use xlink:href="#DejaVuSans-63" x="492.972656"/>
      <use xlink:href="#DejaVuSans-63" x="547.953125"/>
      <use xlink:href="#DejaVuSans-75" x="602.933594"/>
      <use xlink:href="#DejaVuSans-72" x="666.3125"/>
      <use xlink:href="#DejaVuSans-61" x="707.425781"/>
      <use xlink:href="#DejaVuSans-63" x="768.705078"/>
      <use xlink:href="#DejaVuSans-79" x="823.685547"/>
     </g>
    </g>
    <g id="line2d_28">
     <path d="M 187.565625 225.180312 
L 197.565625 225.180312 
L 207.565625 225.180312 
" style="fill: none; stroke: #ff0000; stroke-width: 0.6; stroke-linecap: square"/>
    </g>
    <g id="text_17">
     <!-- Validation Accuracy -->
     <g transform="translate(215.565625 228.680312) scale(0.1 -0.1)">
      <defs>
       <path id="DejaVuSans-56" d="M 1831 0 
L 50 4666 
L 709 4666 
L 2188 738 
L 3669 4666 
L 4325 4666 
L 2547 0 
L 1831 0 
z
" transform="scale(0.015625)"/>
       <path id="DejaVuSans-74" d="M 1172 4494 
L 1172 3500 
L 2356 3500 
L 2356 3053 
L 1172 3053 
L 1172 1153 
Q 1172 725 1289 603 
Q 1406 481 1766 481 
L 2356 481 
L 2356 0 
L 1766 0 
Q 1100 0 847 248 
Q 594 497 594 1153 
L 594 3053 
L 172 3053 
L 172 3500 
L 594 3500 
L 594 4494 
L 1172 4494 
z
" transform="scale(0.015625)"/>
      </defs>
      <use xlink:href="#DejaVuSans-56"/>
      <use xlink:href="#DejaVuSans-61" x="60.658203"/>
      <use xlink:href="#DejaVuSans-6c" x="121.9375"/>
      <use xlink:href="#DejaVuSans-69" x="149.720703"/>
      <use xlink:href="#DejaVuSans-64" x="177.503906"/>
      <use xlink:href="#DejaVuSans-61" x="240.980469"/>
      <use xlink:href="#DejaVuSans-74" x="302.259766"/>
      <use xlink:href="#DejaVuSans-69" x="341.46875"/>
      <use xlink:href="#DejaVuSans-6f" x="369.251953"/>
      <use xlink:href="#DejaVuSans-6e" x="430.433594"/>
      <use xlink:href="#DejaVuSans-20" x="493.8125"/>
      <use xlink:href="#DejaVuSans-41" x="525.599609"/>
      <use xlink:href="#DejaVuSans-63" x="592.257812"/>
      <use xlink:href="#DejaVuSans-63" x="647.238281"/>
      <use xlink:href="#DejaVuSans-75" x="702.21875"/>
      <use xlink:href="#DejaVuSans-72" x="765.597656"/>
      <use xlink:href="#DejaVuSans-61" x="806.710938"/>
      <use xlink:href="#DejaVuSans-63" x="867.990234"/>
      <use xlink:href="#DejaVuSans-79" x="922.970703"/>
     </g>
    </g>
   </g>
  </g>
  <g id="text_18">
   <!-- Training VS. Validation Accuracy - Dataset Size = 100.0% -->
   <g transform="translate(21.433984 15.558281) scale(0.11 -0.11)">
    <defs>
     <path id="DejaVuSans-53" d="M 3425 4513 
L 3425 3897 
Q 3066 4069 2747 4153 
Q 2428 4238 2131 4238 
Q 1616 4238 1336 4038 
Q 1056 3838 1056 3469 
Q 1056 3159 1242 3001 
Q 1428 2844 1947 2747 
L 2328 2669 
Q 3034 2534 3370 2195 
Q 3706 1856 3706 1288 
Q 3706 609 3251 259 
Q 2797 -91 1919 -91 
Q 1588 -91 1214 -16 
Q 841 59 441 206 
L 441 856 
Q 825 641 1194 531 
Q 1563 422 1919 422 
Q 2459 422 2753 634 
Q 3047 847 3047 1241 
Q 3047 1584 2836 1778 
Q 2625 1972 2144 2069 
L 1759 2144 
Q 1053 2284 737 2584 
Q 422 2884 422 3419 
Q 422 4038 858 4394 
Q 1294 4750 2059 4750 
Q 2388 4750 2728 4690 
Q 3069 4631 3425 4513 
z
" transform="scale(0.015625)"/>
     <path id="DejaVuSans-2d" d="M 313 2009 
L 1997 2009 
L 1997 1497 
L 313 1497 
L 313 2009 
z
" transform="scale(0.015625)"/>
     <path id="DejaVuSans-44" d="M 1259 4147 
L 1259 519 
L 2022 519 
Q 2988 519 3436 956 
Q 3884 1394 3884 2338 
Q 3884 3275 3436 3711 
Q 2988 4147 2022 4147 
L 1259 4147 
z
M 628 4666 
L 1925 4666 
Q 3281 4666 3915 4102 
Q 4550 3538 4550 2338 
Q 4550 1131 3912 565 
Q 3275 0 1925 0 
L 628 0 
L 628 4666 
z
" transform="scale(0.015625)"/>
     <path id="DejaVuSans-7a" d="M 353 3500 
L 3084 3500 
L 3084 2975 
L 922 459 
L 3084 459 
L 3084 0 
L 275 0 
L 275 525 
L 2438 3041 
L 353 3041 
L 353 3500 
z
" transform="scale(0.015625)"/>
     <path id="DejaVuSans-3d" d="M 678 2906 
L 4684 2906 
L 4684 2381 
L 678 2381 
L 678 2906 
z
M 678 1631 
L 4684 1631 
L 4684 1100 
L 678 1100 
L 678 1631 
z
" transform="scale(0.015625)"/>
     <path id="DejaVuSans-25" d="M 4653 2053 
Q 4381 2053 4226 1822 
Q 4072 1591 4072 1178 
Q 4072 772 4226 539 
Q 4381 306 4653 306 
Q 4919 306 5073 539 
Q 5228 772 5228 1178 
Q 5228 1588 5073 1820 
Q 4919 2053 4653 2053 
z
M 4653 2450 
Q 5147 2450 5437 2106 
Q 5728 1763 5728 1178 
Q 5728 594 5436 251 
Q 5144 -91 4653 -91 
Q 4153 -91 3862 251 
Q 3572 594 3572 1178 
Q 3572 1766 3864 2108 
Q 4156 2450 4653 2450 
z
M 1428 4353 
Q 1159 4353 1004 4120 
Q 850 3888 850 3481 
Q 850 3069 1003 2837 
Q 1156 2606 1428 2606 
Q 1700 2606 1854 2837 
Q 2009 3069 2009 3481 
Q 2009 3884 1853 4118 
Q 1697 4353 1428 4353 
z
M 4250 4750 
L 4750 4750 
L 1831 -91 
L 1331 -91 
L 4250 4750 
z
M 1428 4750 
Q 1922 4750 2215 4408 
Q 2509 4066 2509 3481 
Q 2509 2891 2217 2550 
Q 1925 2209 1428 2209 
Q 931 2209 642 2551 
Q 353 2894 353 3481 
Q 353 4063 643 4406 
Q 934 4750 1428 4750 
z
" transform="scale(0.015625)"/>
    </defs>
    <use xlink:href="#DejaVuSans-54"/>
    <use xlink:href="#DejaVuSans-72" x="46.333984"/>
    <use xlink:href="#DejaVuSans-61" x="87.447266"/>
    <use xlink:href="#DejaVuSans-69" x="148.726562"/>
    <use xlink:href="#DejaVuSans-6e" x="176.509766"/>
    <use xlink:href="#DejaVuSans-69" x="239.888672"/>
    <use xlink:href="#DejaVuSans-6e" x="267.671875"/>
    <use xlink:href="#DejaVuSans-67" x="331.050781"/>
    <use xlink:href="#DejaVuSans-20" x="394.527344"/>
    <use xlink:href="#DejaVuSans-56" x="426.314453"/>
    <use xlink:href="#DejaVuSans-53" x="494.722656"/>
    <use xlink:href="#DejaVuSans-2e" x="558.199219"/>
    <use xlink:href="#DejaVuSans-20" x="589.986328"/>
    <use xlink:href="#DejaVuSans-56" x="621.773438"/>
    <use xlink:href="#DejaVuSans-61" x="682.431641"/>
    <use xlink:href="#DejaVuSans-6c" x="743.710938"/>
    <use xlink:href="#DejaVuSans-69" x="771.494141"/>
    <use xlink:href="#DejaVuSans-64" x="799.277344"/>
    <use xlink:href="#DejaVuSans-61" x="862.753906"/>
    <use xlink:href="#DejaVuSans-74" x="924.033203"/>
    <use xlink:href="#DejaVuSans-69" x="963.242188"/>
    <use xlink:href="#DejaVuSans-6f" x="991.025391"/>
    <use xlink:href="#DejaVuSans-6e" x="1052.207031"/>
    <use xlink:href="#DejaVuSans-20" x="1115.585938"/>
    <use xlink:href="#DejaVuSans-41" x="1147.373047"/>
    <use xlink:href="#DejaVuSans-63" x="1214.03125"/>
    <use xlink:href="#DejaVuSans-63" x="1269.011719"/>
    <use xlink:href="#DejaVuSans-75" x="1323.992188"/>
    <use xlink:href="#DejaVuSans-72" x="1387.371094"/>
    <use xlink:href="#DejaVuSans-61" x="1428.484375"/>
    <use xlink:href="#DejaVuSans-63" x="1489.763672"/>
    <use xlink:href="#DejaVuSans-79" x="1544.744141"/>
    <use xlink:href="#DejaVuSans-20" x="1603.923828"/>
    <use xlink:href="#DejaVuSans-2d" x="1635.710938"/>
    <use xlink:href="#DejaVuSans-20" x="1671.794922"/>
    <use xlink:href="#DejaVuSans-44" x="1703.582031"/>
    <use xlink:href="#DejaVuSans-61" x="1780.583984"/>
    <use xlink:href="#DejaVuSans-74" x="1841.863281"/>
    <use xlink:href="#DejaVuSans-61" x="1881.072266"/>
    <use xlink:href="#DejaVuSans-73" x="1942.351562"/>
    <use xlink:href="#DejaVuSans-65" x="1994.451172"/>
    <use xlink:href="#DejaVuSans-74" x="2055.974609"/>
    <use xlink:href="#DejaVuSans-20" x="2095.183594"/>
    <use xlink:href="#DejaVuSans-53" x="2126.970703"/>
    <use xlink:href="#DejaVuSans-69" x="2190.447266"/>
    <use xlink:href="#DejaVuSans-7a" x="2218.230469"/>
    <use xlink:href="#DejaVuSans-65" x="2270.720703"/>
    <use xlink:href="#DejaVuSans-20" x="2332.244141"/>
    <use xlink:href="#DejaVuSans-3d" x="2364.03125"/>
    <use xlink:href="#DejaVuSans-20" x="2447.820312"/>
    <use xlink:href="#DejaVuSans-31" x="2479.607422"/>
    <use xlink:href="#DejaVuSans-30" x="2543.230469"/>
    <use xlink:href="#DejaVuSans-30" x="2606.853516"/>
    <use xlink:href="#DejaVuSans-2e" x="2670.476562"/>
    <use xlink:href="#DejaVuSans-30" x="2702.263672"/>
    <use xlink:href="#DejaVuSans-25" x="2765.886719"/>
   </g>
  </g>
 </g>
 <defs>
  <clipPath id="p67851882e9">
   <rect x="43.78125" y="37.296" width="279" height="202.464"/>
  </clipPath>
 </defs>
</svg>
