<?xml version="1.0" encoding="utf-8" standalone="no"?>
<!DOCTYPE svg PUBLIC "-//W3C//DTD SVG 1.1//EN"
  "http://www.w3.org/Graphics/SVG/1.1/DTD/svg11.dtd">
<svg xmlns:xlink="http://www.w3.org/1999/xlink" width="339.829141pt" height="277.31625pt" viewBox="0 0 339.829141 277.31625" xmlns="http://www.w3.org/2000/svg" version="1.1">
 <metadata>
  <rdf:RDF xmlns:dc="http://purl.org/dc/elements/1.1/" xmlns:cc="http://creativecommons.org/ns#" xmlns:rdf="http://www.w3.org/1999/02/22-rdf-syntax-ns#">
   <cc:Work>
    <dc:type rdf:resource="http://purl.org/dc/dcmitype/StillImage"/>
    <dc:date>2026-06-11T10:51:23.457340</dc:date>
    <dc:format>image/svg+xml</dc:format>
    <dc:creator>
     <cc:Agent>
      <dc:title>Matplotlib v3.8.4, https://matplotlib.org/</dc:title>
     </cc:Agent>
    </dc:creator>
   </cc:Work>
  </rdf:RDF>
 </metadata>
 <defs>
  <style type="text/css">*{stroke-linejoin: round; stroke-linecap: butt}</style>
 </defs>
 <g id="figure_1">
  <g id="patch_1">
   <path d="M 0 277.31625 
L 339.829141 277.31625 
L 339.829141 0 
L 0 0 
z
" style="fill: #ffffff"/>
  </g>
  <g id="axes_1">
   <g id="patch_2">
    <path d="M 43.78125 239.76 
L 322.78125 239.76 
L 322.78125 37.296 
L 43.78125 37.296 
z
" style="fill: #ffffff"/>
   </g>
   <g id="matplotlib.axis_1">
    <g id="xtick_1">
     <g id="line2d_1">
      <path d="M 56.209178 239.76 
L 56.209178 37.296 
" clip-path="url(#pf6bd695f0d)" style="fill: none; stroke-dasharray: 2.96,1.28; stroke-dashoffset: 0; stroke: #b0b0b0; stroke-opacity: 0.4; stroke-width: 0.8"/>
     </g>
     <g id="line2d_2">
      <defs>
       <path id="m092a80ec6e" d="M 0 0 
L 0 3.5 
" style="stroke: #000000; stroke-width: 0.8"/>
      </defs>
      <g>
       <use xlink:href="#m092a80ec6e" x="56.209178" y="239.76" style="stroke: #000000; stroke-width: 0.8"/>
      </g>
     </g>
     <g id="text_1">
      <!-- 0 -->
      <g transform="translate(53.027928 254.358437) scale(0.1 -0.1)">
       <defs>
        <path id="DejaVuSans-30" d="M 2034 4250 
Q 1547 4250 1301 3770 
Q 1056 3291 1056 2328 
Q 1056 1369 1301 889 
Q 1547 409 2034 409 
Q 2525 409 2770 889 
Q 3016 1369 3016 2328 
Q 3016 3291 2770 3770 
Q 2525 4250 2034 4250 
z
M 2034 4750 
Q 2819 4750 3233 4129 
Q 3647 3509 3647 2328 
Q 3647 1150 3233 529 
Q 2819 -91 2034 -91 
Q 1250 -91 836 529 
Q 422 1150 422 2328 
Q 422 3509 836 4129 
Q 1250 4750 2034 4750 
z
" transform="scale(0.015625)"/>
       </defs>
       <use xlink:href="#DejaVuSans-30"/>
      </g>
     </g>
    </g>
    <g id="xtick_2">
     <g id="line2d_3">
      <path d="M 106.987229 239.76 
L 106.987229 37.296 
" clip-path="url(#pf6bd695f0d)" style="fill: none; stroke-dasharray: 2.96,1.28; stroke-dashoffset: 0; stroke: #b0b0b0; stroke-opacity: 0.4; stroke-width: 0.8"/>
     </g>
     <g id="line2d_4">
      <g>
       <use xlink:href="#m092a80ec6e" x="106.987229" y="239.76" style="stroke: #000000; stroke-width: 0.8"/>
      </g>
     </g>
     <g id="text_2">
      <!-- 200 -->
      <g transform="translate(97.443479 254.358437) scale(0.1 -0.1)">
       <defs>
        <path id="DejaVuSans-32" d="M 1228 531 
L 3431 531 
L 3431 0 
L 469 0 
L 469 531 
Q 828 903 1448 1529 
Q 2069 2156 2228 2338 
Q 2531 2678 2651 2914 
Q 2772 3150 2772 3378 
Q 2772 3750 2511 3984 
Q 2250 4219 1831 4219 
Q 1534 4219 1204 4116 
Q 875 4013 500 3803 
L 500 4441 
Q 881 4594 1212 4672 
Q 1544 4750 1819 4750 
Q 2544 4750 2975 4387 
Q 3406 4025 3406 3419 
Q 3406 3131 3298 2873 
Q 3191 2616 2906 2266 
Q 2828 2175 2409 1742 
Q 1991 1309 1228 531 
z
" transform="scale(0.015625)"/>
       </defs>
       <use xlink:href="#DejaVuSans-32"/>
       <use xlink:href="#DejaVuSans-30" x="63.623047"/>
       <use xlink:href="#DejaVuSans-30" x="127.246094"/>
      </g>
     </g>
    </g>
    <g id="xtick_3">
     <g id="line2d_5">
      <path d="M 157.765279 239.76 
L 157.765279 37.296 
" clip-path="url(#pf6bd695f0d)" style="fill: none; stroke-dasharray: 2.96,1.28; stroke-dashoffset: 0; stroke: #b0b0b0; stroke-opacity: 0.4; stroke-width: 0.8"/>
     </g>
     <g id="line2d_6">
      <g>
       <use xlink:href="#m092a80ec6e" x="157.765279" y="239.76" style="stroke: #000000; stroke-width: 0.8"/>
      </g>
     </g>
     <g id="text_3">
      <!-- 400 -->
      <g transform="translate(148.221529 254.358437) scale(0.1 -0.1)">
       <defs>
        <path id="DejaVuSans-34" d="M 2419 4116 
L 825 1625 
L 2419 1625 
L 2419 4116 
z
M 2253 4666 
L 3047 4666 
L 3047 1625 
L 3713 1625 
L 3713 1100 
L 3047 1100 
L 3047 0 
L 2419 0 
L 2419 1100 
L 313 1100 
L 313 1709 
L 2253 4666 
z
" transform="scale(0.015625)"/>
       </defs>
       <use xlink:href="#DejaVuSans-34"/>
       <use xlink:href="#DejaVuSans-30" x="63.623047"/>
       <use xlink:href="#DejaVuSans-30" x="127.246094"/>
      </g>
     </g>
    </g>
    <g id="xtick_4">
     <g id="line2d_7">
      <path d="M 208.54333 239.76 
L 208.54333 37.296 
" clip-path="url(#pf6bd695f0d)" style="fill: none; stroke-dasharray: 2.96,1.28; stroke-dashoffset: 0; stroke: #b0b0b0; stroke-opacity: 0.4; stroke-width: 0.8"/>
     </g>
     <g id="line2d_8">
      <g>
       <use xlink:href="#m092a80ec6e" x="208.54333" y="239.76" style="stroke: #000000; stroke-width: 0.8"/>
      </g>
     </g>
     <g id="text_4">
      <!-- 600 -->
      <g transform="translate(198.99958 254.358437) scale(0.1 -0.1)">
       <defs>
        <path id="DejaVuSans-36" d="M 2113 2584 
Q 1688 2584 1439 2293 
Q 1191 2003 1191 1497 
Q 1191 994 1439 701 
Q 1688 409 2113 409 
Q 2538 409 2786 701 
Q 3034 994 3034 1497 
Q 3034 2003 2786 2293 
Q 2538 2584 2113 2584 
z
M 3366 4563 
L 3366 3988 
Q 3128 4100 2886 4159 
Q 2644 4219 2406 4219 
Q 1781 4219 1451 3797 
Q 1122 3375 1075 2522 
Q 1259 2794 1537 2939 
Q 1816 3084 2150 3084 
Q 2853 3084 3261 2657 
Q 3669 2231 3669 1497 
Q 3669 778 3244 343 
Q 2819 -91 2113 -91 
Q 1303 -91 875 529 
Q 447 1150 447 2328 
Q 447 3434 972 4092 
Q 1497 4750 2381 4750 
Q 2619 4750 2861 4703 
Q 3103 4656 3366 4563 
z
" transform="scale(0.015625)"/>
       </defs>
       <use xlink:href="#DejaVuSans-36"/>
       <use xlink:href="#DejaVuSans-30" x="63.623047"/>
       <use xlink:href="#DejaVuSans-30" x="127.246094"/>
      </g>
     </g>
    </g>
    <g id="xtick_5">
     <g id="line2d_9">
      <path d="M 259.321381 239.76 
L 259.321381 37.296 
" clip-path="url(#pf6bd695f0d)" style="fill: none; stroke-dasharray: 2.96,1.28; stroke-dashoffset: 0; stroke: #b0b0b0; stroke-opacity: 0.4; stroke-width: 0.8"/>
     </g>
     <g id="line2d_10">
      <g>
       <use xlink:href="#m092a80ec6e" x="259.321381" y="239.76" style="stroke: #000000; stroke-width: 0.8"/>
      </g>
     </g>
     <g id="text_5">
      <!-- 800 -->
      <g transform="translate(249.777631 254.358437) scale(0.1 -0.1)">
       <defs>
        <path id="DejaVuSans-38" d="M 2034 2216 
Q 1584 2216 1326 1975 
Q 1069 1734 1069 1313 
Q 1069 891 1326 650 
Q 1584 409 2034 409 
Q 2484 409 2743 651 
Q 3003 894 3003 1313 
Q 3003 1734 2745 1975 
Q 2488 2216 2034 2216 
z
M 1403 2484 
Q 997 2584 770 2862 
Q 544 3141 544 3541 
Q 544 4100 942 4425 
Q 1341 4750 2034 4750 
Q 2731 4750 3128 4425 
Q 3525 4100 3525 3541 
Q 3525 3141 3298 2862 
Q 3072 2584 2669 2484 
Q 3125 2378 3379 2068 
Q 3634 1759 3634 1313 
Q 3634 634 3220 271 
Q 2806 -91 2034 -91 
Q 1263 -91 848 271 
Q 434 634 434 1313 
Q 434 1759 690 2068 
Q 947 2378 1403 2484 
z
M 1172 3481 
Q 1172 3119 1398 2916 
Q 1625 2713 2034 2713 
Q 2441 2713 2670 2916 
Q 2900 3119 2900 3481 
Q 2900 3844 2670 4047 
Q 2441 4250 2034 4250 
Q 1625 4250 1398 4047 
Q 1172 3844 1172 3481 
z
" transform="scale(0.015625)"/>
       </defs>
       <use xlink:href="#DejaVuSans-38"/>
       <use xlink:href="#DejaVuSans-30" x="63.623047"/>
       <use xlink:href="#DejaVuSans-30" x="127.246094"/>
      </g>
     </g>
    </g>
    <g id="xtick_6">
     <g id="line2d_11">
      <path d="M 310.099432 239.76 
L 310.099432 37.296 
" clip-path="url(#pf6bd695f0d)" style="fill: none; stroke-dasharray: 2.96,1.28; stroke-dashoffset: 0; stroke: #b0b0b0; stroke-opacity: 0.4; stroke-width: 0.8"/>
     </g>
     <g id="line2d_12">
      <g>
       <use xlink:href="#m092a80ec6e" x="310.099432" y="239.76" style="stroke: #000000; stroke-width: 0.8"/>
      </g>
     </g>
     <g id="text_6">
      <!-- 1000 -->
      <g transform="translate(297.374432 254.358437) scale(0.1 -0.1)">
       <defs>
        <path id="DejaVuSans-31" d="M 794 531 
L 1825 531 
L 1825 4091 
L 703 3866 
L 703 4441 
L 1819 4666 
L 2450 4666 
L 2450 531 
L 3481 531 
L 3481 0 
L 794 0 
L 794 531 
z
" transform="scale(0.015625)"/>
       </defs>
       <use xlink:href="#DejaVuSans-31"/>
       <use xlink:href="#DejaVuSans-30" x="63.623047"/>
       <use xlink:href="#DejaVuSans-30" x="127.246094"/>
       <use xlink:href="#DejaVuSans-30" x="190.869141"/>
      </g>
     </g>
    </g>
    <g id="text_7">
     <!-- Epochs -->
     <g transform="translate(165.365625 268.036562) scale(0.1 -0.1)">
      <defs>
       <path id="DejaVuSans-45" d="M 628 4666 
L 3578 4666 
L 3578 4134 
L 1259 4134 
L 1259 2753 
L 3481 2753 
L 3481 2222 
L 1259 2222 
L 1259 531 
L 3634 531 
L 3634 0 
L 628 0 
L 628 4666 
z
" transform="scale(0.015625)"/>
       <path id="DejaVuSans-70" d="M 1159 525 
L 1159 -1331 
L 581 -1331 
L 581 3500 
L 1159 3500 
L 1159 2969 
Q 1341 3281 1617 3432 
Q 1894 3584 2278 3584 
Q 2916 3584 3314 3078 
Q 3713 2572 3713 1747 
Q 3713 922 3314 415 
Q 2916 -91 2278 -91 
Q 1894 -91 1617 61 
Q 1341 213 1159 525 
z
M 3116 1747 
Q 3116 2381 2855 2742 
Q 2594 3103 2138 3103 
Q 1681 3103 1420 2742 
Q 1159 2381 1159 1747 
Q 1159 1113 1420 752 
Q 1681 391 2138 391 
Q 2594 391 2855 752 
Q 3116 1113 3116 1747 
z
" transform="scale(0.015625)"/>
       <path id="DejaVuSans-6f" d="M 1959 3097 
Q 1497 3097 1228 2736 
Q 959 2375 959 1747 
Q 959 1119 1226 758 
Q 1494 397 1959 397 
Q 2419 397 2687 759 
Q 2956 1122 2956 1747 
Q 2956 2369 2687 2733 
Q 2419 3097 1959 3097 
z
M 1959 3584 
Q 2709 3584 3137 3096 
Q 3566 2609 3566 1747 
Q 3566 888 3137 398 
Q 2709 -91 1959 -91 
Q 1206 -91 779 398 
Q 353 888 353 1747 
Q 353 2609 779 3096 
Q 1206 3584 1959 3584 
z
" transform="scale(0.015625)"/>
       <path id="DejaVuSans-63" d="M 3122 3366 
L 3122 2828 
Q 2878 2963 2633 3030 
Q 2388 3097 2138 3097 
Q 1578 3097 1268 2742 
Q 959 2388 959 1747 
Q 959 1106 1268 751 
Q 1578 397 2138 397 
Q 2388 397 2633 464 
Q 2878 531 3122 666 
L 3122 134 
Q 2881 22 2623 -34 
Q 2366 -91 2075 -91 
Q 1284 -91 818 406 
Q 353 903 353 1747 
Q 353 2603 823 3093 
Q 1294 3584 2113 3584 
Q 2378 3584 2631 3529 
Q 2884 3475 3122 3366 
z
" transform="scale(0.015625)"/>
       <path id="DejaVuSans-68" d="M 3513 2113 
L 3513 0 
L 2938 0 
L 2938 2094 
Q 2938 2591 2744 2837 
Q 2550 3084 2163 3084 
Q 1697 3084 1428 2787 
Q 1159 2491 1159 1978 
L 1159 0 
L 581 0 
L 581 4863 
L 1159 4863 
L 1159 2956 
Q 1366 3272 1645 3428 
Q 1925 3584 2291 3584 
Q 2894 3584 3203 3211 
Q 3513 2838 3513 2113 
z
" transform="scale(0.015625)"/>
       <path id="DejaVuSans-73" d="M 2834 3397 
L 2834 2853 
Q 2591 2978 2328 3040 
Q 2066 3103 1784 3103 
Q 1356 3103 1142 2972 
Q 928 2841 928 2578 
Q 928 2378 1081 2264 
Q 1234 2150 1697 2047 
L 1894 2003 
Q 2506 1872 2764 1633 
Q 3022 1394 3022 966 
Q 3022 478 2636 193 
Q 2250 -91 1575 -91 
Q 1294 -91 989 -36 
Q 684 19 347 128 
L 347 722 
Q 666 556 975 473 
Q 1284 391 1588 391 
Q 1994 391 2212 530 
Q 2431 669 2431 922 
Q 2431 1156 2273 1281 
Q 2116 1406 1581 1522 
L 1381 1569 
Q 847 1681 609 1914 
Q 372 2147 372 2553 
Q 372 3047 722 3315 
Q 1072 3584 1716 3584 
Q 2034 3584 2315 3537 
Q 2597 3491 2834 3397 
z
" transform="scale(0.015625)"/>
      </defs>
      <use xlink:href="#DejaVuSans-45"/>
      <use xlink:href="#DejaVuSans-70" x="63.183594"/>
      <use xlink:href="#DejaVuSans-6f" x="126.660156"/>
      <use xlink:href="#DejaVuSans-63" x="187.841797"/>
      <use xlink:href="#DejaVuSans-68" x="242.822266"/>
      <use xlink:href="#DejaVuSans-73" x="306.201172"/>
     </g>
    </g>
   </g>
   <g id="matplotlib.axis_2">
    <g id="ytick_1">
     <g id="line2d_13">
      <path d="M 43.78125 216.63078 
L 322.78125 216.63078 
" clip-path="url(#pf6bd695f0d)" style="fill: none; stroke-dasharray: 2.96,1.28; stroke-dashoffset: 0; stroke: #b0b0b0; stroke-opacity: 0.4; stroke-width: 0.8"/>
     </g>
     <g id="line2d_14">
      <defs>
       <path id="m9bbc425ebb" d="M 0 0 
L -3.5 0 
" style="stroke: #000000; stroke-width: 0.8"/>
      </defs>
      <g>
       <use xlink:href="#m9bbc425ebb" x="43.78125" y="216.63078" style="stroke: #000000; stroke-width: 0.8"/>
      </g>
     </g>
     <g id="text_8">
      <!-- 0.5 -->
      <g transform="translate(20.878125 220.429999) scale(0.1 -0.1)">
       <defs>
        <path id="DejaVuSans-2e" d="M 684 794 
L 1344 794 
L 1344 0 
L 684 0 
L 684 794 
z
" transform="scale(0.015625)"/>
        <path id="DejaVuSans-35" d="M 691 4666 
L 3169 4666 
L 3169 4134 
L 1269 4134 
L 1269 2991 
Q 1406 3038 1543 3061 
Q 1681 3084 1819 3084 
Q 2600 3084 3056 2656 
Q 3513 2228 3513 1497 
Q 3513 744 3044 326 
Q 2575 -91 1722 -91 
Q 1428 -91 1123 -41 
Q 819 9 494 109 
L 494 744 
Q 775 591 1075 516 
Q 1375 441 1709 441 
Q 2250 441 2565 725 
Q 2881 1009 2881 1497 
Q 2881 1984 2565 2268 
Q 2250 2553 1709 2553 
Q 1456 2553 1204 2497 
Q 953 2441 691 2322 
L 691 4666 
z
" transform="scale(0.015625)"/>
       </defs>
       <use xlink:href="#DejaVuSans-30"/>
       <use xlink:href="#DejaVuSans-2e" x="63.623047"/>
       <use xlink:href="#DejaVuSans-35" x="95.410156"/>
      </g>
     </g>
    </g>
    <g id="ytick_2">
     <g id="line2d_15">
      <path d="M 43.78125 182.488866 
L 322.78125 182.488866 
" clip-path="url(#pf6bd695f0d)" style="fill: none; stroke-dasharray: 2.96,1.28; stroke-dashoffset: 0; stroke: #b0b0b0; stroke-opacity: 0.4; stroke-width: 0.8"/>
     </g>
     <g id="line2d_16">
      <g>
       <use xlink:href="#m9bbc425ebb" x="43.78125" y="182.488866" style="stroke: #000000; stroke-width: 0.8"/>
      </g>
     </g>
     <g id="text_9">
      <!-- 0.6 -->
      <g transform="translate(20.878125 186.288084) scale(0.1 -0.1)">
       <use xlink:href="#DejaVuSans-30"/>
       <use xlink:href="#DejaVuSans-2e" x="63.623047"/>
       <use xlink:href="#DejaVuSans-36" x="95.410156"/>
      </g>
     </g>
    </g>
    <g id="ytick_3">
     <g id="line2d_17">
      <path d="M 43.78125 148.346951 
L 322.78125 148.346951 
" clip-path="url(#pf6bd695f0d)" style="fill: none; stroke-dasharray: 2.96,1.28; stroke-dashoffset: 0; stroke: #b0b0b0; stroke-opacity: 0.4; stroke-width: 0.8"/>
     </g>
     <g id="line2d_18">
      <g>
       <use xlink:href="#m9bbc425ebb" x="43.78125" y="148.346951" style="stroke: #000000; stroke-width: 0.8"/>
      </g>
     </g>
     <g id="text_10">
      <!-- 0.7 -->
      <g transform="translate(20.878125 152.14617) scale(0.1 -0.1)">
       <defs>
        <path id="DejaVuSans-37" d="M 525 4666 
L 3525 4666 
L 3525 4397 
L 1831 0 
L 1172 0 
L 2766 4134 
L 525 4134 
L 525 4666 
z
" transform="scale(0.015625)"/>
       </defs>
       <use xlink:href="#DejaVuSans-30"/>
       <use xlink:href="#DejaVuSans-2e" x="63.623047"/>
       <use xlink:href="#DejaVuSans-37" x="95.410156"/>
      </g>
     </g>
    </g>
    <g id="ytick_4">
     <g id="line2d_19">
      <path d="M 43.78125 114.205037 
L 322.78125 114.205037 
" clip-path="url(#pf6bd695f0d)" style="fill: none; stroke-dasharray: 2.96,1.28; stroke-dashoffset: 0; stroke: #b0b0b0; stroke-opacity: 0.4; stroke-width: 0.8"/>
     </g>
     <g id="line2d_20">
      <g>
       <use xlink:href="#m9bbc425ebb" x="43.78125" y="114.205037" style="stroke: #000000; stroke-width: 0.8"/>
      </g>
     </g>
     <g id="text_11">
      <!-- 0.8 -->
      <g transform="translate(20.878125 118.004256) scale(0.1 -0.1)">
       <use xlink:href="#DejaVuSans-30"/>
       <use xlink:href="#DejaVuSans-2e" x="63.623047"/>
       <use xlink:href="#DejaVuSans-38" x="95.410156"/>
      </g>
     </g>
    </g>
    <g id="ytick_5">
     <g id="line2d_21">
      <path d="M 43.78125 80.063123 
L 322.78125 80.063123 
" clip-path="url(#pf6bd695f0d)" style="fill: none; stroke-dasharray: 2.96,1.28; stroke-dashoffset: 0; stroke: #b0b0b0; stroke-opacity: 0.4; stroke-width: 0.8"/>
     </g>
     <g id="line2d_22">
      <g>
       <use xlink:href="#m9bbc425ebb" x="43.78125" y="80.063123" style="stroke: #000000; stroke-width: 0.8"/>
      </g>
     </g>
     <g id="text_12">
      <!-- 0.9 -->
      <g transform="translate(20.878125 83.862342) scale(0.1 -0.1)">
       <defs>
        <path id="DejaVuSans-39" d="M 703 97 
L 703 672 
Q 941 559 1184 500 
Q 1428 441 1663 441 
Q 2288 441 2617 861 
Q 2947 1281 2994 2138 
Q 2813 1869 2534 1725 
Q 2256 1581 1919 1581 
Q 1219 1581 811 2004 
Q 403 2428 403 3163 
Q 403 3881 828 4315 
Q 1253 4750 1959 4750 
Q 2769 4750 3195 4129 
Q 3622 3509 3622 2328 
Q 3622 1225 3098 567 
Q 2575 -91 1691 -91 
Q 1453 -91 1209 -44 
Q 966 3 703 97 
z
M 1959 2075 
Q 2384 2075 2632 2365 
Q 2881 2656 2881 3163 
Q 2881 3666 2632 3958 
Q 2384 4250 1959 4250 
Q 1534 4250 1286 3958 
Q 1038 3666 1038 3163 
Q 1038 2656 1286 2365 
Q 1534 2075 1959 2075 
z
" transform="scale(0.015625)"/>
       </defs>
       <use xlink:href="#DejaVuSans-30"/>
       <use xlink:href="#DejaVuSans-2e" x="63.623047"/>
       <use xlink:href="#DejaVuSans-39" x="95.410156"/>
      </g>
     </g>
    </g>
    <g id="ytick_6">
     <g id="line2d_23">
      <path d="M 43.78125 45.921209 
L 322.78125 45.921209 
" clip-path="url(#pf6bd695f0d)" style="fill: none; stroke-dasharray: 2.96,1.28; stroke-dashoffset: 0; stroke: #b0b0b0; stroke-opacity: 0.4; stroke-width: 0.8"/>
     </g>
     <g id="line2d_24">
      <g>
       <use xlink:href="#m9bbc425ebb" x="43.78125" y="45.921209" style="stroke: #000000; stroke-width: 0.8"/>
      </g>
     </g>
     <g id="text_13">
      <!-- 1.0 -->
      <g transform="translate(20.878125 49.720427) scale(0.1 -0.1)">
       <use xlink:href="#DejaVuSans-31"/>
       <use xlink:href="#DejaVuSans-2e" x="63.623047"/>
       <use xlink:href="#DejaVuSans-30" x="95.410156"/>
      </g>
     </g>
    </g>
    <g id="text_14">
     <!-- Accuracy -->
     <g transform="translate(14.798438 161.356125) rotate(-90) scale(0.1 -0.1)">
      <defs>
       <path id="DejaVuSans-41" d="M 2188 4044 
L 1331 1722 
L 3047 1722 
L 2188 4044 
z
M 1831 4666 
L 2547 4666 
L 4325 0 
L 3669 0 
L 3244 1197 
L 1141 1197 
L 716 0 
L 50 0 
L 1831 4666 
z
" transform="scale(0.015625)"/>
       <path id="DejaVuSans-75" d="M 544 1381 
L 544 3500 
L 1119 3500 
L 1119 1403 
Q 1119 906 1312 657 
Q 1506 409 1894 409 
Q 2359 409 2629 706 
Q 2900 1003 2900 1516 
L 2900 3500 
L 3475 3500 
L 3475 0 
L 2900 0 
L 2900 538 
Q 2691 219 2414 64 
Q 2138 -91 1772 -91 
Q 1169 -91 856 284 
Q 544 659 544 1381 
z
M 1991 3584 
L 1991 3584 
z
" transform="scale(0.015625)"/>
       <path id="DejaVuSans-72" d="M 2631 2963 
Q 2534 3019 2420 3045 
Q 2306 3072 2169 3072 
Q 1681 3072 1420 2755 
Q 1159 2438 1159 1844 
L 1159 0 
L 581 0 
L 581 3500 
L 1159 3500 
L 1159 2956 
Q 1341 3275 1631 3429 
Q 1922 3584 2338 3584 
Q 2397 3584 2469 3576 
Q 2541 3569 2628 3553 
L 2631 2963 
z
" transform="scale(0.015625)"/>
       <path id="DejaVuSans-61" d="M 2194 1759 
Q 1497 1759 1228 1600 
Q 959 1441 959 1056 
Q 959 750 1161 570 
Q 1363 391 1709 391 
Q 2188 391 2477 730 
Q 2766 1069 2766 1631 
L 2766 1759 
L 2194 1759 
z
M 3341 1997 
L 3341 0 
L 2766 0 
L 2766 531 
Q 2569 213 2275 61 
Q 1981 -91 1556 -91 
Q 1019 -91 701 211 
Q 384 513 384 1019 
Q 384 1609 779 1909 
Q 1175 2209 1959 2209 
L 2766 2209 
L 2766 2266 
Q 2766 2663 2505 2880 
Q 2244 3097 1772 3097 
Q 1472 3097 1187 3025 
Q 903 2953 641 2809 
L 641 3341 
Q 956 3463 1253 3523 
Q 1550 3584 1831 3584 
Q 2591 3584 2966 3190 
Q 3341 2797 3341 1997 
z
" transform="scale(0.015625)"/>
       <path id="DejaVuSans-79" d="M 2059 -325 
Q 1816 -950 1584 -1140 
Q 1353 -1331 966 -1331 
L 506 -1331 
L 506 -850 
L 844 -850 
Q 1081 -850 1212 -737 
Q 1344 -625 1503 -206 
L 1606 56 
L 191 3500 
L 800 3500 
L 1894 763 
L 2988 3500 
L 3597 3500 
L 2059 -325 
z
" transform="scale(0.015625)"/>
      </defs>
      <use xlink:href="#DejaVuSans-41"/>
      <use xlink:href="#DejaVuSans-63" x="66.658203"/>
      <use xlink:href="#DejaVuSans-63" x="121.638672"/>
      <use xlink:href="#DejaVuSans-75" x="176.619141"/>
      <use xlink:href="#DejaVuSans-72" x="239.998047"/>
      <use xlink:href="#DejaVuSans-61" x="281.111328"/>
      <use xlink:href="#DejaVuSans-63" x="342.390625"/>
      <use xlink:href="#DejaVuSans-79" x="397.371094"/>
     </g>
    </g>
   </g>
   <g id="line2d_25">
    <path d="M 56.463068 225.585087 
L 56.716958 211.335219 
L 56.970849 213.646001 
L 57.224739 208.831863 
L 57.478629 208.254163 
L 57.732519 209.794691 
L 57.98641 205.173107 
L 58.2403 209.602138 
L 58.49419 208.06161 
L 58.74808 205.173107 
L 59.001971 199.781269 
L 59.255861 206.328508 
L 59.509751 199.781269 
L 59.763641 199.011015 
L 60.017532 195.159685 
L 60.271422 198.048188 
L 60.525312 197.085361 
L 60.779202 188.997594 
L 61.033093 187.264492 
L 61.286983 188.22732 
L 61.540873 179.176725 
L 61.794764 182.450355 
L 62.302544 168.970751 
L 62.556434 165.119441 
L 62.810325 155.683699 
L 63.064215 154.335745 
L 63.318105 142.396668 
L 63.571995 142.781795 
L 63.825886 135.84943 
L 64.079776 133.153501 
L 64.587556 115.244886 
L 64.841447 114.667185 
L 65.095337 111.393576 
L 65.349227 113.126678 
L 65.603117 112.16383 
L 65.857008 103.88351 
L 66.110898 103.498383 
L 66.364788 102.150429 
L 66.618678 101.765281 
L 66.872569 99.261926 
L 67.126459 99.647073 
L 67.380349 94.640362 
L 67.634239 97.913972 
L 68.14202 90.981606 
L 68.39591 92.522134 
L 68.6498 95.60319 
L 69.157581 86.552596 
L 69.411471 91.944433 
L 69.665361 86.360022 
L 69.919252 87.515423 
L 70.173142 81.160758 
L 70.427032 82.701266 
L 70.680922 83.47154 
L 70.934813 83.47154 
L 71.442593 81.353311 
L 71.696483 81.738438 
L 71.950374 79.235083 
L 72.204264 78.272255 
L 72.458154 78.464829 
L 72.712044 76.924301 
L 72.965935 78.657403 
L 73.473715 70.954763 
L 73.981496 75.961473 
L 74.235386 79.427656 
L 74.489276 78.079702 
L 74.743166 75.7689 
L 74.997057 71.532463 
L 75.250947 75.383773 
L 75.504837 71.147336 
L 75.758727 72.302717 
L 76.266508 72.880418 
L 76.520398 68.836534 
L 76.774288 69.414235 
L 77.028179 67.296006 
L 77.282069 72.495291 
L 77.535959 70.954763 
L 77.78985 66.718306 
L 78.04374 68.258834 
L 78.29763 71.33989 
L 78.55152 70.569636 
L 78.805411 66.718306 
L 79.059301 73.650692 
L 79.313191 68.451407 
L 79.567081 68.258834 
L 79.820972 64.022397 
L 80.074862 65.370351 
L 80.328752 62.674422 
L 80.582642 63.252123 
L 80.836533 61.711595 
L 81.090423 58.823113 
L 81.344313 60.36364 
L 81.598203 59.978514 
L 81.852094 61.326468 
L 82.105984 64.985224 
L 82.359874 61.326468 
L 82.613764 61.519042 
L 82.867655 60.556214 
L 83.121545 57.475158 
L 83.375435 60.171067 
L 83.629325 59.78594 
L 83.883216 58.823113 
L 84.137106 62.289295 
L 84.390996 58.630559 
L 84.644886 57.667732 
L 84.898777 58.630559 
L 85.152667 56.512331 
L 85.406557 59.593387 
L 85.660447 57.090031 
L 85.914338 56.704884 
L 86.168228 58.245412 
L 86.422118 58.052859 
L 86.676008 58.245412 
L 86.929899 57.090031 
L 87.183789 58.823113 
L 87.437679 58.245412 
L 87.94546 53.238701 
L 88.19935 57.282585 
L 88.45324 57.090031 
L 88.70713 55.35693 
L 88.961021 57.860285 
L 89.214911 57.282585 
L 89.468801 57.667732 
L 89.722691 57.475158 
L 89.976582 54.971803 
L 90.230472 55.164376 
L 90.484362 54.586676 
L 90.738252 56.127204 
L 90.992143 55.742057 
L 91.246033 56.127204 
L 91.499923 54.779229 
L 91.753813 56.127204 
L 92.007704 53.238701 
L 92.261594 55.742057 
L 92.515484 53.046148 
L 92.769374 54.779229 
L 93.023265 54.971803 
L 93.531045 50.542792 
L 93.784936 54.394102 
L 94.038826 53.238701 
L 94.292716 52.853574 
L 94.546606 51.50562 
L 94.800497 53.623848 
L 95.054387 54.779229 
L 95.308277 51.698173 
L 95.562167 53.431275 
L 95.816058 52.08332 
L 96.069948 51.698173 
L 96.323838 50.735346 
L 96.577728 52.468447 
L 96.831619 52.853574 
L 97.085509 50.542792 
L 97.339399 51.890747 
L 97.593289 52.275874 
L 98.10107 49.579965 
L 98.60885 53.046148 
L 98.862741 50.350219 
L 99.370521 52.468447 
L 99.624411 51.890747 
L 99.878302 52.275874 
L 100.132192 50.157666 
L 100.386082 51.120493 
L 100.639972 51.313046 
L 100.893863 51.890747 
L 101.147753 51.890747 
L 101.401643 50.927919 
L 101.655533 53.431275 
L 101.909424 53.046148 
L 102.163314 50.350219 
L 102.417204 50.157666 
L 102.671094 49.772518 
L 103.178875 52.275874 
L 103.686655 51.50562 
L 103.940546 52.08332 
L 104.194436 51.313046 
L 104.448326 51.890747 
L 104.702216 51.50562 
L 104.956107 50.542792 
L 105.209997 52.275874 
L 105.463887 52.661021 
L 105.717777 50.350219 
L 105.971668 50.157666 
L 106.225558 50.157666 
L 106.479448 50.542792 
L 106.733338 50.157666 
L 106.987229 48.809691 
L 107.241119 49.387391 
L 107.495009 49.387391 
L 108.00279 50.735346 
L 108.25668 51.890747 
L 108.51057 49.387391 
L 108.76446 49.194818 
L 109.018351 50.157666 
L 109.272241 49.194818 
L 109.526131 48.809691 
L 110.033912 50.927919 
L 110.541692 49.002264 
L 110.795583 49.002264 
L 111.049473 50.927919 
L 111.303363 49.387391 
L 111.557253 49.965092 
L 111.811144 48.809691 
L 112.065034 49.965092 
L 112.318924 50.157666 
L 112.572814 49.387391 
L 112.826705 50.350219 
L 113.080595 50.157666 
L 113.334485 48.809691 
L 113.588375 49.002264 
L 113.842266 48.809691 
L 114.096156 49.772518 
L 114.350046 49.387391 
L 114.857827 50.157666 
L 115.111717 51.50562 
L 115.365607 50.157666 
L 116.127278 49.194818 
L 116.381168 49.772518 
L 116.635058 49.579965 
L 116.888949 48.039437 
L 117.142839 49.387391 
L 117.396729 49.387391 
L 117.650619 49.579965 
L 117.90451 49.002264 
L 118.1584 49.965092 
L 118.41229 50.157666 
L 118.66618 49.002264 
L 118.920071 49.387391 
L 119.173961 48.23199 
L 119.427851 49.194818 
L 119.681741 48.809691 
L 119.935632 49.965092 
L 120.443412 48.23199 
L 120.697302 48.809691 
L 120.951193 48.23199 
L 121.205083 48.23199 
L 121.458973 49.002264 
L 121.712863 49.002264 
L 121.966754 48.424564 
L 122.220644 48.617138 
L 122.474534 49.002264 
L 122.728424 48.617138 
L 122.982315 49.387391 
L 123.236205 47.65431 
L 123.490095 49.002264 
L 123.743985 47.65431 
L 123.997876 49.387391 
L 124.505656 48.424564 
L 124.759546 47.461737 
L 125.013437 48.617138 
L 125.267327 49.002264 
L 125.521217 50.927919 
L 125.775107 49.002264 
L 126.028998 48.809691 
L 126.282888 49.772518 
L 127.044559 48.23199 
L 127.298449 48.039437 
L 127.552339 49.002264 
L 127.80623 48.039437 
L 128.06012 49.772518 
L 128.31401 49.002264 
L 128.5679 50.542792 
L 128.821791 48.809691 
L 129.329571 48.424564 
L 129.583461 49.387391 
L 129.837352 48.039437 
L 130.091242 49.194818 
L 130.345132 48.23199 
L 130.599022 48.424564 
L 130.852913 48.039437 
L 131.360693 49.387391 
L 131.614583 49.387391 
L 131.868474 49.002264 
L 132.122364 48.23199 
L 132.376254 49.579965 
L 132.630144 49.002264 
L 132.884035 49.002264 
L 133.137925 49.194818 
L 133.391815 49.579965 
L 133.645705 47.65431 
L 133.899596 49.002264 
L 134.407376 48.039437 
L 134.661266 49.002264 
L 134.915157 48.617138 
L 135.169047 47.846863 
L 135.422937 48.424564 
L 135.676827 48.039437 
L 135.930718 48.617138 
L 136.184608 46.498909 
L 136.692388 49.002264 
L 136.946279 48.039437 
L 137.200169 48.617138 
L 137.454059 48.617138 
L 137.96184 47.65431 
L 138.21573 47.846863 
L 138.46962 48.809691 
L 138.72351 51.120493 
L 138.977401 48.424564 
L 139.231291 48.424564 
L 139.485181 49.965092 
L 139.992962 48.424564 
L 140.246852 47.846863 
L 140.500742 48.424564 
L 140.754632 48.424564 
L 141.008523 49.579965 
L 141.262413 48.039437 
L 141.516303 48.617138 
L 141.770193 49.772518 
L 142.277974 47.269163 
L 142.531864 48.23199 
L 142.785755 47.846863 
L 143.039645 48.617138 
L 143.293535 47.846863 
L 143.547425 48.809691 
L 143.801316 49.002264 
L 144.055206 48.809691 
L 144.309096 48.424564 
L 144.562986 49.194818 
L 144.816877 48.617138 
L 145.070767 47.65431 
L 145.324657 49.387391 
L 145.578547 48.617138 
L 146.086328 48.617138 
L 146.340218 49.194818 
L 146.594108 47.846863 
L 147.101889 48.809691 
L 147.355779 48.039437 
L 147.609669 48.23199 
L 147.86356 49.194818 
L 148.11745 47.846863 
L 148.37134 47.846863 
L 148.62523 48.617138 
L 148.879121 48.424564 
L 149.133011 48.617138 
L 149.386901 48.23199 
L 149.640791 49.194818 
L 149.894682 49.387391 
L 150.148572 48.23199 
L 150.402462 48.039437 
L 150.656352 47.461737 
L 150.910243 48.617138 
L 151.418023 48.617138 
L 151.671913 48.039437 
L 151.925804 47.846863 
L 152.179694 47.846863 
L 152.433584 49.772518 
L 152.687474 48.23199 
L 152.941365 48.039437 
L 153.195255 48.617138 
L 153.449145 47.846863 
L 153.703035 48.617138 
L 154.210816 48.617138 
L 154.464706 49.002264 
L 154.718596 47.65431 
L 154.972487 49.002264 
L 155.226377 49.002264 
L 155.480267 48.424564 
L 155.734157 48.424564 
L 156.241938 46.884036 
L 156.495828 48.23199 
L 157.003609 49.387391 
L 157.257499 48.23199 
L 157.511389 47.65431 
L 157.765279 49.002264 
L 158.52695 48.039437 
L 158.78084 47.846863 
L 159.034731 47.461737 
L 159.288621 49.579965 
L 159.542511 49.387391 
L 159.796402 47.65431 
L 160.304182 49.002264 
L 160.558072 49.579965 
L 160.811963 49.002264 
L 161.065853 48.809691 
L 161.319743 47.65431 
L 161.573633 48.23199 
L 161.827524 47.846863 
L 162.081414 46.884036 
L 162.335304 49.965092 
L 162.589194 49.387391 
L 162.843085 48.424564 
L 163.096975 48.617138 
L 163.604755 47.65431 
L 164.366426 48.809691 
L 164.620316 49.579965 
L 164.874207 48.039437 
L 165.128097 49.002264 
L 165.381987 48.809691 
L 165.635877 48.039437 
L 165.889768 49.002264 
L 166.143658 48.039437 
L 166.397548 48.809691 
L 166.651438 48.809691 
L 166.905329 48.617138 
L 167.159219 49.002264 
L 167.413109 47.846863 
L 167.666999 47.846863 
L 167.92089 49.387391 
L 168.17478 47.461737 
L 168.42867 48.039437 
L 168.68256 49.002264 
L 168.936451 48.424564 
L 169.190341 49.002264 
L 169.444231 48.809691 
L 169.698121 48.039437 
L 170.205902 48.617138 
L 170.459792 47.65431 
L 170.713682 48.617138 
L 170.967573 48.424564 
L 171.221463 49.772518 
L 171.475353 47.846863 
L 171.729243 49.002264 
L 172.237024 47.846863 
L 172.490914 49.387391 
L 172.744804 47.846863 
L 172.998695 49.002264 
L 173.252585 48.039437 
L 173.506475 49.002264 
L 173.760365 48.23199 
L 174.014256 48.039437 
L 174.268146 48.424564 
L 174.522036 47.65431 
L 174.775926 49.772518 
L 175.283707 48.23199 
L 175.537597 48.809691 
L 175.791488 48.424564 
L 176.045378 48.617138 
L 176.299268 48.617138 
L 176.553158 47.269163 
L 176.807049 48.039437 
L 177.314829 47.461737 
L 177.568719 47.846863 
L 177.82261 49.387391 
L 178.0765 48.039437 
L 178.33039 49.194818 
L 178.838171 47.461737 
L 179.345951 48.809691 
L 179.599841 47.07661 
L 179.853732 49.194818 
L 180.107622 48.424564 
L 180.361512 47.07661 
L 180.615402 48.809691 
L 180.869293 47.846863 
L 181.123183 47.461737 
L 181.377073 47.65431 
L 181.630963 49.002264 
L 181.884854 48.809691 
L 182.138744 48.23199 
L 182.392634 48.617138 
L 182.646524 48.617138 
L 182.900415 48.809691 
L 183.154305 47.65431 
L 183.408195 48.617138 
L 183.662085 47.07661 
L 184.169866 48.809691 
L 184.423756 48.424564 
L 184.677646 48.617138 
L 185.185427 47.461737 
L 185.439317 48.809691 
L 185.947098 46.691462 
L 186.200988 48.424564 
L 186.454878 48.424564 
L 186.708768 47.846863 
L 186.962659 47.846863 
L 187.216549 48.809691 
L 187.470439 48.617138 
L 187.724329 49.002264 
L 187.97822 47.269163 
L 188.23211 48.039437 
L 188.73989 48.039437 
L 188.993781 47.846863 
L 189.247671 48.039437 
L 189.501561 48.039437 
L 190.009342 48.424564 
L 190.263232 49.387391 
L 190.771012 47.269163 
L 191.024903 48.617138 
L 191.278793 48.809691 
L 191.532683 48.039437 
L 191.786574 49.387391 
L 192.040464 47.65431 
L 192.294354 48.039437 
L 192.548244 48.039437 
L 192.802135 49.194818 
L 193.056025 48.039437 
L 193.309915 48.809691 
L 193.817696 47.846863 
L 194.071586 48.617138 
L 194.325476 47.07661 
L 194.579366 48.809691 
L 194.833257 48.809691 
L 195.087147 48.617138 
L 195.594927 47.461737 
L 196.102708 48.617138 
L 196.356598 48.809691 
L 196.610488 47.846863 
L 196.864379 48.039437 
L 197.118269 49.387391 
L 197.372159 48.23199 
L 197.626049 47.846863 
L 197.87994 48.617138 
L 198.13383 47.461737 
L 198.38772 48.23199 
L 198.64161 48.617138 
L 199.149391 48.617138 
L 199.403281 48.809691 
L 199.657171 49.194818 
L 199.911062 47.269163 
L 200.164952 49.772518 
L 200.418842 47.65431 
L 200.672732 47.846863 
L 200.926623 48.424564 
L 201.180513 48.039437 
L 201.434403 48.039437 
L 201.942184 49.579965 
L 202.196074 49.387391 
L 202.449964 48.039437 
L 202.703854 47.846863 
L 202.957745 49.579965 
L 203.211635 47.461737 
L 203.465525 47.846863 
L 203.719415 49.387391 
L 203.973306 48.23199 
L 204.227196 47.846863 
L 204.481086 48.424564 
L 204.734976 48.23199 
L 204.988867 48.424564 
L 205.242757 48.424564 
L 205.496647 47.461737 
L 205.750537 48.23199 
L 206.004428 48.23199 
L 206.258318 49.002264 
L 206.512208 47.846863 
L 206.766098 48.039437 
L 207.019989 49.002264 
L 207.273879 47.461737 
L 208.03555 48.424564 
L 208.54333 47.461737 
L 208.797221 48.424564 
L 209.051111 47.461737 
L 209.305001 48.424564 
L 209.558891 48.424564 
L 209.812782 48.23199 
L 210.320562 48.617138 
L 210.574452 48.039437 
L 210.828343 49.194818 
L 211.082233 48.039437 
L 211.336123 48.617138 
L 211.843904 48.039437 
L 212.097794 49.387391 
L 212.351684 48.23199 
L 212.605574 48.039437 
L 212.859465 47.65431 
L 213.113355 48.424564 
L 213.367245 47.65431 
L 213.621135 48.23199 
L 213.875026 48.039437 
L 214.128916 48.424564 
L 214.382806 47.65431 
L 214.636696 47.846863 
L 214.890587 48.424564 
L 215.144477 48.424564 
L 215.398367 49.002264 
L 215.652257 48.617138 
L 215.906148 47.65431 
L 216.160038 47.846863 
L 216.667818 49.194818 
L 216.921709 48.424564 
L 217.175599 48.23199 
L 217.429489 48.424564 
L 217.683379 49.002264 
L 217.93727 48.039437 
L 218.19116 48.23199 
L 218.69894 47.269163 
L 218.952831 49.194818 
L 219.206721 48.424564 
L 219.460611 47.269163 
L 219.714501 49.772518 
L 219.968392 49.387391 
L 220.222282 47.846863 
L 220.476172 48.039437 
L 220.730062 49.579965 
L 220.983953 48.424564 
L 221.237843 48.617138 
L 221.491733 48.424564 
L 221.745623 48.809691 
L 221.999514 48.809691 
L 222.253404 48.617138 
L 222.507294 47.846863 
L 222.761184 48.424564 
L 223.268965 47.461737 
L 223.522855 48.23199 
L 223.776745 48.424564 
L 224.030636 47.461737 
L 224.284526 48.23199 
L 224.792307 47.65431 
L 225.046197 47.65431 
L 225.300087 47.846863 
L 225.553977 47.846863 
L 225.807868 49.194818 
L 226.061758 48.039437 
L 226.315648 49.194818 
L 226.569538 48.424564 
L 226.823429 48.809691 
L 227.077319 48.617138 
L 227.331209 48.617138 
L 227.585099 48.23199 
L 227.83899 49.579965 
L 228.09288 47.65431 
L 228.34677 48.617138 
L 228.60066 48.039437 
L 228.854551 48.809691 
L 229.108441 49.194818 
L 229.362331 48.039437 
L 229.616221 47.461737 
L 229.870112 49.194818 
L 230.124002 48.23199 
L 230.377892 48.039437 
L 230.631782 48.617138 
L 231.139563 48.617138 
L 231.393453 49.194818 
L 231.647343 48.23199 
L 231.901234 48.039437 
L 232.155124 48.424564 
L 232.409014 47.65431 
L 232.662904 48.23199 
L 233.170685 47.65431 
L 233.424575 47.461737 
L 234.186246 48.809691 
L 234.440136 49.772518 
L 234.947917 47.846863 
L 235.201807 48.039437 
L 235.455697 48.617138 
L 235.709587 47.65431 
L 235.963478 47.269163 
L 236.217368 48.809691 
L 236.471258 49.002264 
L 236.979039 47.461737 
L 237.486819 48.809691 
L 237.740709 47.65431 
L 237.9946 48.23199 
L 238.24849 47.65431 
L 238.50238 48.617138 
L 238.75627 47.846863 
L 239.010161 49.002264 
L 239.264051 48.039437 
L 239.517941 48.23199 
L 239.771831 48.039437 
L 240.025722 48.039437 
L 240.279612 47.846863 
L 240.533502 47.461737 
L 241.041283 48.617138 
L 241.295173 47.269163 
L 241.549063 48.809691 
L 241.802954 48.424564 
L 242.056844 47.07661 
L 242.310734 47.846863 
L 242.564624 49.387391 
L 243.072405 48.617138 
L 243.326295 49.387391 
L 243.580185 48.424564 
L 243.834076 49.002264 
L 244.087966 48.424564 
L 244.341856 47.07661 
L 244.595746 49.194818 
L 244.849637 47.461737 
L 245.103527 49.387391 
L 245.357417 48.809691 
L 245.611307 49.387391 
L 245.865198 47.269163 
L 246.372978 48.23199 
L 246.626868 48.039437 
L 246.880759 47.65431 
L 247.134649 48.424564 
L 247.388539 48.23199 
L 247.642429 49.387391 
L 247.89632 48.809691 
L 248.15021 47.65431 
L 248.4041 49.194818 
L 249.165771 47.461737 
L 249.419661 49.387391 
L 249.673551 48.809691 
L 249.927442 46.884036 
L 250.181332 48.23199 
L 250.689112 47.269163 
L 251.196893 48.039437 
L 251.450783 49.002264 
L 251.704673 48.23199 
L 251.958564 48.039437 
L 252.212454 47.269163 
L 252.466344 46.884036 
L 252.720234 49.002264 
L 252.974125 48.039437 
L 253.228015 48.23199 
L 253.989686 47.65431 
L 254.243576 48.424564 
L 254.497466 48.039437 
L 254.751356 47.269163 
L 255.005247 47.65431 
L 255.259137 48.424564 
L 255.513027 48.424564 
L 256.020808 47.461737 
L 256.274698 48.23199 
L 256.528588 48.424564 
L 256.782479 48.039437 
L 257.036369 48.809691 
L 257.290259 48.809691 
L 257.544149 47.269163 
L 257.79804 48.617138 
L 258.05193 49.194818 
L 258.55971 47.65431 
L 258.813601 47.461737 
L 259.067491 48.23199 
L 259.321381 47.65431 
L 259.575271 49.194818 
L 259.829162 49.194818 
L 260.083052 47.65431 
L 260.336942 48.617138 
L 260.590832 47.65431 
L 260.844723 48.617138 
L 261.098613 47.269163 
L 261.352503 48.617138 
L 261.606393 47.65431 
L 261.860284 48.809691 
L 262.114174 48.617138 
L 262.368064 48.809691 
L 262.621954 47.65431 
L 262.875845 47.65431 
L 263.129735 48.039437 
L 263.383625 47.461737 
L 263.891406 49.002264 
L 264.145296 47.461737 
L 264.399186 47.65431 
L 264.653076 48.424564 
L 264.906967 47.846863 
L 265.160857 47.846863 
L 265.414747 47.65431 
L 265.668637 49.772518 
L 265.922528 48.617138 
L 266.176418 49.579965 
L 266.430308 48.424564 
L 266.684198 48.039437 
L 266.938089 47.269163 
L 267.191979 49.002264 
L 267.445869 49.002264 
L 267.699759 49.194818 
L 268.20754 47.07661 
L 268.969211 48.617138 
L 269.223101 48.23199 
L 269.476991 48.23199 
L 269.730881 47.461737 
L 269.984772 48.23199 
L 270.492552 47.269163 
L 270.746442 47.07661 
L 271.000333 48.424564 
L 271.254223 48.23199 
L 271.508113 47.65431 
L 271.762003 47.846863 
L 272.015894 47.461737 
L 272.777564 48.809691 
L 273.031455 47.269163 
L 273.285345 48.617138 
L 273.539235 48.23199 
L 273.793126 48.809691 
L 274.047016 48.039437 
L 274.300906 49.194818 
L 274.554796 48.23199 
L 274.808687 48.617138 
L 275.062577 48.039437 
L 275.316467 48.23199 
L 275.570357 48.617138 
L 275.824248 48.23199 
L 276.078138 49.965092 
L 276.585918 47.461737 
L 276.839809 48.809691 
L 277.093699 47.65431 
L 277.347589 48.809691 
L 277.601479 48.039437 
L 277.85537 48.039437 
L 278.10926 47.269163 
L 278.36315 49.194818 
L 278.61704 48.617138 
L 278.870931 49.579965 
L 279.124821 48.424564 
L 279.378711 48.424564 
L 279.632601 48.809691 
L 279.886492 49.772518 
L 280.140382 49.194818 
L 280.394272 47.65431 
L 280.648162 48.039437 
L 280.902053 47.461737 
L 281.155943 48.809691 
L 281.409833 48.039437 
L 281.663723 48.039437 
L 281.917614 48.424564 
L 282.171504 48.23199 
L 282.425394 48.809691 
L 282.679284 47.846863 
L 282.933175 48.617138 
L 283.187065 48.039437 
L 283.440955 49.194818 
L 283.694845 48.039437 
L 283.948736 50.157666 
L 284.202626 49.002264 
L 284.456516 49.387391 
L 284.710406 48.424564 
L 284.964297 48.039437 
L 285.218187 48.809691 
L 285.725967 48.424564 
L 285.979858 47.07661 
L 286.233748 47.65431 
L 286.487638 47.65431 
L 286.741528 48.617138 
L 286.995419 47.65431 
L 287.249309 48.039437 
L 287.757089 47.65431 
L 288.01098 48.424564 
L 288.26487 47.461737 
L 288.51876 48.039437 
L 288.77265 48.23199 
L 289.026541 49.194818 
L 289.280431 48.23199 
L 289.534321 49.579965 
L 289.788212 47.65431 
L 290.295992 48.809691 
L 290.549882 48.039437 
L 291.057663 48.617138 
L 291.311553 48.039437 
L 291.565443 48.809691 
L 291.819334 48.809691 
L 292.073224 48.617138 
L 292.327114 47.461737 
L 292.581004 49.965092 
L 292.834895 49.579965 
L 293.088785 48.809691 
L 293.342675 47.461737 
L 293.596565 48.809691 
L 294.358236 47.846863 
L 294.612126 47.846863 
L 294.866017 48.23199 
L 295.119907 47.269163 
L 295.627687 47.846863 
L 295.881578 48.039437 
L 296.135468 47.846863 
L 296.643248 47.846863 
L 296.897139 47.461737 
L 297.151029 48.424564 
L 297.404919 48.23199 
L 297.658809 48.424564 
L 297.9127 47.846863 
L 298.16659 47.846863 
L 298.42048 48.039437 
L 298.67437 47.846863 
L 299.182151 49.965092 
L 299.436041 49.579965 
L 299.689931 48.23199 
L 299.943822 48.23199 
L 300.197712 48.039437 
L 300.451602 48.039437 
L 300.705492 48.23199 
L 300.959383 48.23199 
L 301.213273 48.809691 
L 301.467163 47.846863 
L 301.721053 48.23199 
L 301.974944 47.07661 
L 302.228834 48.809691 
L 302.482724 48.424564 
L 302.736614 49.002264 
L 302.990505 48.424564 
L 303.244395 48.424564 
L 303.498285 47.07661 
L 303.752175 48.617138 
L 304.006066 48.424564 
L 304.259956 48.809691 
L 304.513846 47.269163 
L 304.767736 49.002264 
L 305.021627 48.039437 
L 305.275517 48.039437 
L 305.529407 47.846863 
L 305.783298 48.039437 
L 306.037188 47.461737 
L 306.291078 49.772518 
L 306.544968 49.387391 
L 306.798859 48.23199 
L 307.052749 48.617138 
L 307.306639 48.23199 
L 307.560529 48.617138 
L 307.81442 47.846863 
L 308.06831 48.039437 
L 308.3222 47.461737 
L 308.57609 48.424564 
L 308.829981 47.461737 
L 309.083871 47.846863 
L 309.337761 47.461737 
L 309.591651 48.424564 
L 309.845542 47.65431 
L 310.099432 49.387391 
L 310.099432 49.387391 
" clip-path="url(#pf6bd695f0d)" style="fill: none; stroke: #0000ff; stroke-width: 0.6; stroke-linecap: square"/>
   </g>
   <g id="line2d_26">
    <path d="M 56.463068 225.166261 
L 56.716958 220.22467 
L 56.970849 217.97849 
L 57.224739 229.209381 
L 57.478629 230.557091 
L 57.732519 226.064731 
L 57.98641 230.557091 
L 58.2403 227.861671 
L 58.49419 222.47084 
L 58.74808 227.861671 
L 59.001971 213.48613 
L 59.255861 226.963201 
L 59.763641 215.7323 
L 60.017532 220.22467 
L 60.271422 204.501409 
L 60.525312 200.458299 
L 60.779202 194.618228 
L 61.033093 201.806009 
L 61.286983 180.242688 
L 61.540873 170.359507 
L 61.794764 173.953387 
L 62.302544 159.577846 
L 62.556434 167.664087 
L 62.810325 136.666814 
L 63.064215 130.377514 
L 63.318105 141.159175 
L 63.571995 133.971415 
L 63.825886 134.420644 
L 64.079776 132.174474 
L 64.587556 107.915733 
L 64.841447 112.857323 
L 65.095337 106.118793 
L 65.603117 102.974142 
L 65.857008 101.626432 
L 66.110898 105.220333 
L 66.364788 106.118793 
L 66.618678 112.408093 
L 66.872569 108.364983 
L 67.126459 101.626432 
L 67.380349 98.931032 
L 67.634239 102.524912 
L 67.88813 97.134072 
L 68.14202 97.134072 
L 68.39591 100.727972 
L 68.6498 100.278722 
L 68.903691 92.192482 
L 69.157581 115.103513 
L 69.411471 99.380262 
L 69.665361 91.743252 
L 69.919252 106.568022 
L 70.173142 91.294022 
L 70.427032 99.380262 
L 70.680922 94.438672 
L 70.934813 96.235612 
L 71.188703 96.235612 
L 71.442593 106.568022 
L 71.696483 96.684842 
L 72.204264 91.294022 
L 72.712044 93.090962 
L 72.965935 92.641732 
L 73.219825 89.946312 
L 73.727605 94.887902 
L 73.981496 105.220333 
L 74.235386 88.598601 
L 74.489276 95.786382 
L 74.743166 93.989422 
L 74.997057 91.294022 
L 75.250947 90.395541 
L 75.504837 93.540192 
L 75.758727 86.352431 
L 76.012618 86.801661 
L 76.266508 91.743252 
L 76.520398 91.743252 
L 76.774288 95.337132 
L 77.028179 90.395541 
L 77.282069 93.090962 
L 77.535959 89.047831 
L 77.78985 89.946312 
L 78.55152 94.438672 
L 78.805411 93.540192 
L 79.059301 91.294022 
L 79.567081 94.438672 
L 80.074862 88.149371 
L 80.582642 91.294022 
L 80.836533 90.844771 
L 81.090423 88.149371 
L 81.344313 89.047831 
L 81.598203 88.149371 
L 81.852094 92.641732 
L 82.105984 93.090962 
L 82.359874 90.395541 
L 82.613764 93.989422 
L 82.867655 93.989422 
L 83.121545 92.641732 
L 83.375435 94.887902 
L 83.629325 91.743252 
L 83.883216 94.887902 
L 84.137106 93.540192 
L 84.390996 93.090962 
L 84.644886 92.192482 
L 84.898777 91.743252 
L 85.152667 92.641732 
L 85.406557 90.395541 
L 85.914338 89.497082 
L 86.168228 91.743252 
L 86.422118 92.192482 
L 86.676008 93.989422 
L 86.929899 89.497082 
L 87.183789 92.192482 
L 87.437679 91.294022 
L 87.691569 93.540192 
L 87.94546 91.294022 
L 88.19935 90.395541 
L 88.45324 87.250891 
L 88.70713 95.786382 
L 88.961021 92.192482 
L 89.468801 94.438672 
L 89.722691 90.395541 
L 89.976582 94.887902 
L 90.230472 92.641732 
L 90.484362 93.989422 
L 90.738252 92.192482 
L 90.992143 91.294022 
L 91.246033 93.989422 
L 91.499923 92.641732 
L 91.753813 92.192482 
L 92.007704 91.294022 
L 92.261594 90.844771 
L 92.515484 93.090962 
L 92.769374 91.743252 
L 93.023265 91.743252 
L 93.277155 92.641732 
L 93.531045 91.743252 
L 93.784936 92.192482 
L 94.038826 90.395541 
L 94.292716 93.090962 
L 94.546606 92.641732 
L 94.800497 91.743252 
L 95.054387 91.743252 
L 95.308277 92.192482 
L 95.562167 90.844771 
L 95.816058 92.641732 
L 96.069948 90.844771 
L 96.323838 92.192482 
L 96.577728 90.395541 
L 96.831619 89.946312 
L 97.085509 91.294022 
L 97.339399 91.743252 
L 97.593289 89.946312 
L 97.84718 91.743252 
L 98.10107 92.641732 
L 98.35496 92.641732 
L 98.60885 94.438672 
L 98.862741 92.192482 
L 99.370521 90.395541 
L 99.624411 93.989422 
L 99.878302 93.090962 
L 100.132192 93.989422 
L 100.386082 90.395541 
L 100.639972 92.641732 
L 100.893863 92.641732 
L 101.147753 90.844771 
L 101.401643 89.946312 
L 101.655533 92.641732 
L 101.909424 90.395541 
L 102.163314 92.641732 
L 102.417204 90.844771 
L 102.671094 92.641732 
L 102.924985 93.090962 
L 103.178875 93.090962 
L 103.432765 92.641732 
L 103.686655 93.540192 
L 103.940546 93.090962 
L 104.194436 91.294022 
L 104.448326 88.149371 
L 104.702216 90.395541 
L 104.956107 90.395541 
L 105.209997 89.047831 
L 105.463887 92.641732 
L 105.717777 90.844771 
L 105.971668 91.743252 
L 106.479448 90.844771 
L 106.733338 91.294022 
L 106.987229 90.844771 
L 107.241119 90.844771 
L 107.495009 91.743252 
L 107.748899 93.090962 
L 108.00279 90.395541 
L 108.25668 92.192482 
L 108.51057 91.294022 
L 108.76446 91.743252 
L 109.018351 91.294022 
L 109.272241 92.192482 
L 109.526131 91.294022 
L 109.780021 92.641732 
L 110.033912 91.294022 
L 110.287802 91.743252 
L 110.541692 93.540192 
L 110.795583 92.192482 
L 111.049473 91.743252 
L 111.303363 92.641732 
L 111.557253 91.294022 
L 111.811144 92.192482 
L 112.065034 92.641732 
L 112.318924 92.192482 
L 112.572814 92.192482 
L 112.826705 90.844771 
L 113.080595 92.192482 
L 113.334485 92.192482 
L 113.588375 91.294022 
L 113.842266 91.294022 
L 114.096156 89.946312 
L 114.350046 92.641732 
L 114.603936 91.294022 
L 114.857827 91.743252 
L 115.111717 92.641732 
L 115.365607 92.641732 
L 115.619497 89.946312 
L 115.873388 90.395541 
L 116.127278 92.192482 
L 116.381168 90.844771 
L 116.635058 92.192482 
L 116.888949 91.294022 
L 117.396729 91.294022 
L 117.650619 89.047831 
L 117.90451 91.294022 
L 118.1584 92.192482 
L 118.41229 92.641732 
L 118.920071 92.641732 
L 119.173961 93.090962 
L 119.427851 92.192482 
L 119.681741 93.540192 
L 119.935632 91.294022 
L 120.443412 93.090962 
L 120.697302 92.192482 
L 120.951193 90.844771 
L 121.205083 93.090962 
L 121.458973 93.090962 
L 121.712863 92.192482 
L 121.966754 92.192482 
L 122.220644 92.641732 
L 122.474534 90.844771 
L 122.728424 91.743252 
L 122.982315 91.294022 
L 123.236205 92.641732 
L 123.490095 91.294022 
L 123.743985 92.192482 
L 123.997876 90.844771 
L 124.251766 91.294022 
L 124.759546 91.294022 
L 125.013437 90.844771 
L 125.267327 92.641732 
L 125.521217 90.844771 
L 126.028998 90.844771 
L 126.282888 91.294022 
L 126.536778 92.641732 
L 126.790669 92.192482 
L 127.044559 90.395541 
L 127.298449 91.743252 
L 127.552339 91.294022 
L 127.80623 93.090962 
L 128.06012 92.192482 
L 128.31401 93.090962 
L 128.821791 90.844771 
L 129.075681 92.192482 
L 129.329571 91.294022 
L 129.837352 90.395541 
L 130.091242 90.395541 
L 130.345132 91.743252 
L 130.599022 89.946312 
L 130.852913 91.294022 
L 131.106803 91.743252 
L 131.360693 90.844771 
L 131.614583 90.844771 
L 131.868474 90.395541 
L 132.122364 90.844771 
L 132.376254 90.395541 
L 132.630144 90.844771 
L 132.884035 90.395541 
L 133.137925 90.844771 
L 133.391815 90.844771 
L 133.645705 91.294022 
L 134.153486 91.294022 
L 134.407376 90.395541 
L 134.661266 90.844771 
L 135.169047 92.641732 
L 135.422937 90.844771 
L 135.676827 90.395541 
L 135.930718 90.395541 
L 136.184608 91.294022 
L 136.438498 91.743252 
L 136.692388 91.294022 
L 136.946279 92.192482 
L 137.200169 91.743252 
L 137.454059 90.844771 
L 138.21573 90.844771 
L 138.46962 90.395541 
L 138.72351 90.395541 
L 138.977401 91.294022 
L 139.231291 90.844771 
L 139.485181 91.743252 
L 139.739071 90.395541 
L 140.246852 91.294022 
L 140.500742 91.294022 
L 140.754632 92.192482 
L 141.008523 91.294022 
L 141.262413 91.294022 
L 141.770193 89.497082 
L 142.024084 90.844771 
L 142.531864 89.946312 
L 142.785755 91.743252 
L 143.039645 90.844771 
L 143.293535 90.395541 
L 143.547425 91.743252 
L 143.801316 92.192482 
L 144.055206 91.743252 
L 144.309096 92.192482 
L 144.816877 89.047831 
L 145.070767 90.844771 
L 145.324657 91.294022 
L 145.578547 89.946312 
L 145.832438 90.844771 
L 146.086328 90.395541 
L 146.340218 90.395541 
L 146.594108 90.844771 
L 146.847999 90.844771 
L 147.101889 92.192482 
L 147.355779 91.743252 
L 147.609669 91.743252 
L 147.86356 91.294022 
L 148.11745 91.294022 
L 148.37134 93.090962 
L 148.879121 90.844771 
L 149.133011 92.192482 
L 149.386901 91.743252 
L 149.894682 89.946312 
L 150.148572 89.946312 
L 150.402462 89.497082 
L 150.656352 91.294022 
L 150.910243 90.844771 
L 151.164133 93.090962 
L 151.418023 91.743252 
L 151.925804 91.743252 
L 152.179694 92.192482 
L 152.433584 90.844771 
L 152.941365 90.844771 
L 153.195255 91.743252 
L 153.449145 90.395541 
L 153.703035 90.844771 
L 153.956926 90.844771 
L 154.210816 90.395541 
L 154.464706 91.294022 
L 154.718596 91.294022 
L 154.972487 90.844771 
L 155.480267 91.743252 
L 155.734157 91.294022 
L 155.988048 91.743252 
L 156.241938 89.497082 
L 156.495828 90.395541 
L 156.749718 92.192482 
L 157.003609 91.294022 
L 157.257499 91.294022 
L 157.511389 91.743252 
L 158.01917 91.743252 
L 158.27306 90.395541 
L 158.52695 89.946312 
L 158.78084 90.844771 
L 159.288621 90.844771 
L 159.542511 91.294022 
L 159.796402 91.294022 
L 160.050292 90.844771 
L 160.304182 91.743252 
L 160.558072 91.294022 
L 162.081414 91.294022 
L 162.335304 91.743252 
L 162.843085 91.743252 
L 163.096975 91.294022 
L 163.350865 91.294022 
L 163.604755 91.743252 
L 163.858646 90.395541 
L 164.112536 90.395541 
L 164.366426 89.946312 
L 164.874207 91.743252 
L 165.128097 91.294022 
L 165.381987 91.743252 
L 165.635877 90.844771 
L 166.143658 91.743252 
L 166.905329 91.743252 
L 167.159219 91.294022 
L 167.413109 91.743252 
L 167.92089 91.743252 
L 168.17478 90.844771 
L 168.936451 90.844771 
L 169.190341 91.294022 
L 169.444231 90.395541 
L 169.698121 90.395541 
L 169.952012 90.844771 
L 170.713682 90.844771 
L 170.967573 91.743252 
L 171.729243 90.395541 
L 171.983134 90.395541 
L 172.237024 90.844771 
L 172.998695 90.844771 
L 173.252585 90.395541 
L 174.014256 90.395541 
L 174.268146 89.946312 
L 174.775926 90.844771 
L 175.029817 89.946312 
L 175.283707 89.946312 
L 175.537597 90.395541 
L 175.791488 89.497082 
L 176.045378 90.395541 
L 176.807049 90.395541 
L 177.568719 91.743252 
L 177.82261 91.294022 
L 178.0765 91.294022 
L 178.33039 90.395541 
L 178.58428 90.844771 
L 178.838171 90.395541 
L 179.092061 90.844771 
L 180.107622 90.844771 
L 180.361512 91.294022 
L 180.869293 91.294022 
L 181.123183 91.743252 
L 181.377073 91.743252 
L 181.630963 90.844771 
L 182.138744 90.844771 
L 182.392634 90.395541 
L 182.900415 90.395541 
L 183.154305 90.844771 
L 185.185427 90.844771 
L 185.439317 91.294022 
L 185.693207 90.844771 
L 185.947098 90.844771 
L 186.200988 91.294022 
L 186.962659 91.294022 
L 187.216549 91.743252 
L 187.470439 91.294022 
L 188.23211 91.294022 
L 188.486 91.743252 
L 188.73989 91.294022 
L 188.993781 91.294022 
L 189.247671 90.844771 
L 189.755451 91.743252 
L 190.009342 90.844771 
L 190.771012 90.844771 
L 191.024903 91.294022 
L 191.786574 91.294022 
L 192.040464 90.844771 
L 193.056025 90.844771 
L 193.309915 91.294022 
L 193.563805 90.844771 
L 193.817696 90.844771 
L 194.071586 91.294022 
L 199.149391 91.294022 
L 199.403281 90.844771 
L 200.164952 90.844771 
L 200.418842 91.294022 
L 201.434403 91.294022 
L 201.688293 90.844771 
L 213.875026 90.844771 
L 214.128916 91.294022 
L 231.647343 91.294022 
L 231.901234 90.844771 
L 238.50238 90.844771 
L 238.75627 91.294022 
L 239.010161 90.844771 
L 239.264051 90.844771 
L 239.517941 91.294022 
L 239.771831 90.844771 
L 310.099432 90.844771 
L 310.099432 90.844771 
" clip-path="url(#pf6bd695f0d)" style="fill: none; stroke: #ff0000; stroke-width: 0.6; stroke-linecap: square"/>
   </g>
   <g id="patch_3">
    <path d="M 43.78125 239.76 
L 43.78125 37.296 
" style="fill: none; stroke: #000000; stroke-width: 0.8; stroke-linejoin: miter; stroke-linecap: square"/>
   </g>
   <g id="patch_4">
    <path d="M 322.78125 239.76 
L 322.78125 37.296 
" style="fill: none; stroke: #000000; stroke-width: 0.8; stroke-linejoin: miter; stroke-linecap: square"/>
   </g>
   <g id="patch_5">
    <path d="M 43.78125 239.76 
L 322.78125 239.76 
" style="fill: none; stroke: #000000; stroke-width: 0.8; stroke-linejoin: miter; stroke-linecap: square"/>
   </g>
   <g id="patch_6">
    <path d="M 43.78125 37.296 
L 322.78125 37.296 
" style="fill: none; stroke: #000000; stroke-width: 0.8; stroke-linejoin: miter; stroke-linecap: square"/>
   </g>
   <g id="text_15">
    <!-- Baseline Model -->
    <g transform="translate(149.259844 31.296) scale(0.09 -0.09)">
     <defs>
      <path id="DejaVuSans-42" d="M 1259 2228 
L 1259 519 
L 2272 519 
Q 2781 519 3026 730 
Q 3272 941 3272 1375 
Q 3272 1813 3026 2020 
Q 2781 2228 2272 2228 
L 1259 2228 
z
M 1259 4147 
L 1259 2741 
L 2194 2741 
Q 2656 2741 2882 2914 
Q 3109 3088 3109 3444 
Q 3109 3797 2882 3972 
Q 2656 4147 2194 4147 
L 1259 4147 
z
M 628 4666 
L 2241 4666 
Q 2963 4666 3353 4366 
Q 3744 4066 3744 3513 
Q 3744 3084 3544 2831 
Q 3344 2578 2956 2516 
Q 3422 2416 3680 2098 
Q 3938 1781 3938 1306 
Q 3938 681 3513 340 
Q 3088 0 2303 0 
L 628 0 
L 628 4666 
z
" transform="scale(0.015625)"/>
      <path id="DejaVuSans-65" d="M 3597 1894 
L 3597 1613 
L 953 1613 
Q 991 1019 1311 708 
Q 1631 397 2203 397 
Q 2534 397 2845 478 
Q 3156 559 3463 722 
L 3463 178 
Q 3153 47 2828 -22 
Q 2503 -91 2169 -91 
Q 1331 -91 842 396 
Q 353 884 353 1716 
Q 353 2575 817 3079 
Q 1281 3584 2069 3584 
Q 2775 3584 3186 3129 
Q 3597 2675 3597 1894 
z
M 3022 2063 
Q 3016 2534 2758 2815 
Q 2500 3097 2075 3097 
Q 1594 3097 1305 2825 
Q 1016 2553 972 2059 
L 3022 2063 
z
" transform="scale(0.015625)"/>
      <path id="DejaVuSans-6c" d="M 603 4863 
L 1178 4863 
L 1178 0 
L 603 0 
L 603 4863 
z
" transform="scale(0.015625)"/>
      <path id="DejaVuSans-69" d="M 603 3500 
L 1178 3500 
L 1178 0 
L 603 0 
L 603 3500 
z
M 603 4863 
L 1178 4863 
L 1178 4134 
L 603 4134 
L 603 4863 
z
" transform="scale(0.015625)"/>
      <path id="DejaVuSans-6e" d="M 3513 2113 
L 3513 0 
L 2938 0 
L 2938 2094 
Q 2938 2591 2744 2837 
Q 2550 3084 2163 3084 
Q 1697 3084 1428 2787 
Q 1159 2491 1159 1978 
L 1159 0 
L 581 0 
L 581 3500 
L 1159 3500 
L 1159 2956 
Q 1366 3272 1645 3428 
Q 1925 3584 2291 3584 
Q 2894 3584 3203 3211 
Q 3513 2838 3513 2113 
z
" transform="scale(0.015625)"/>
      <path id="DejaVuSans-20" transform="scale(0.015625)"/>
      <path id="DejaVuSans-4d" d="M 628 4666 
L 1569 4666 
L 2759 1491 
L 3956 4666 
L 4897 4666 
L 4897 0 
L 4281 0 
L 4281 4097 
L 3078 897 
L 2444 897 
L 1241 4097 
L 1241 0 
L 628 0 
L 628 4666 
z
" transform="scale(0.015625)"/>
      <path id="DejaVuSans-64" d="M 2906 2969 
L 2906 4863 
L 3481 4863 
L 3481 0 
L 2906 0 
L 2906 525 
Q 2725 213 2448 61 
Q 2172 -91 1784 -91 
Q 1150 -91 751 415 
Q 353 922 353 1747 
Q 353 2572 751 3078 
Q 1150 3584 1784 3584 
Q 2172 3584 2448 3432 
Q 2725 3281 2906 2969 
z
M 947 1747 
Q 947 1113 1208 752 
Q 1469 391 1925 391 
Q 2381 391 2643 752 
Q 2906 1113 2906 1747 
Q 2906 2381 2643 2742 
Q 2381 3103 1925 3103 
Q 1469 3103 1208 2742 
Q 947 2381 947 1747 
z
" transform="scale(0.015625)"/>
     </defs>
     <use xlink:href="#DejaVuSans-42"/>
     <use xlink:href="#DejaVuSans-61" x="68.603516"/>
     <use xlink:href="#DejaVuSans-73" x="129.882812"/>
     <use xlink:href="#DejaVuSans-65" x="181.982422"/>
     <use xlink:href="#DejaVuSans-6c" x="243.505859"/>
     <use xlink:href="#DejaVuSans-69" x="271.289062"/>
     <use xlink:href="#DejaVuSans-6e" x="299.072266"/>
     <use xlink:href="#DejaVuSans-65" x="362.451172"/>
     <use xlink:href="#DejaVuSans-20" x="423.974609"/>
     <use xlink:href="#DejaVuSans-4d" x="455.761719"/>
     <use xlink:href="#DejaVuSans-6f" x="542.041016"/>
     <use xlink:href="#DejaVuSans-64" x="603.222656"/>
     <use xlink:href="#DejaVuSans-65" x="666.699219"/>
     <use xlink:href="#DejaVuSans-6c" x="728.222656"/>
    </g>
   </g>
   <g id="legend_1">
    <g id="patch_7">
     <path d="M 185.565625 234.76 
L 315.78125 234.76 
Q 317.78125 234.76 317.78125 232.76 
L 317.78125 204.40375 
Q 317.78125 202.40375 315.78125 202.40375 
L 185.565625 202.40375 
Q 183.565625 202.40375 183.565625 204.40375 
L 183.565625 232.76 
Q 183.565625 234.76 185.565625 234.76 
z
" style="fill: #ffffff; opacity: 0.8; stroke: #cccccc; stroke-linejoin: miter"/>
    </g>
    <g id="line2d_27">
     <path d="M 187.565625 210.502187 
L 197.565625 210.502187 
L 207.565625 210.502187 
" style="fill: none; stroke: #0000ff; stroke-width: 0.6; stroke-linecap: square"/>
    </g>
    <g id="text_16">
     <!-- Training Accuracy -->
     <g transform="translate(215.565625 214.002187) scale(0.1 -0.1)">
      <defs>
       <path id="DejaVuSans-54" d="M -19 4666 
L 3928 4666 
L 3928 4134 
L 2272 4134 
L 2272 0 
L 1638 0 
L 1638 4134 
L -19 4134 
L -19 4666 
z
" transform="scale(0.015625)"/>
       <path id="DejaVuSans-67" d="M 2906 1791 
Q 2906 2416 2648 2759 
Q 2391 3103 1925 3103 
Q 1463 3103 1205 2759 
Q 947 2416 947 1791 
Q 947 1169 1205 825 
Q 1463 481 1925 481 
Q 2391 481 2648 825 
Q 2906 1169 2906 1791 
z
M 3481 434 
Q 3481 -459 3084 -895 
Q 2688 -1331 1869 -1331 
Q 1566 -1331 1297 -1286 
Q 1028 -1241 775 -1147 
L 775 -588 
Q 1028 -725 1275 -790 
Q 1522 -856 1778 -856 
Q 2344 -856 2625 -561 
Q 2906 -266 2906 331 
L 2906 616 
Q 2728 306 2450 153 
Q 2172 0 1784 0 
Q 1141 0 747 490 
Q 353 981 353 1791 
Q 353 2603 747 3093 
Q 1141 3584 1784 3584 
Q 2172 3584 2450 3431 
Q 2728 3278 2906 2969 
L 2906 3500 
L 3481 3500 
L 3481 434 
z
" transform="scale(0.015625)"/>
      </defs>
      <use xlink:href="#DejaVuSans-54"/>
      <use xlink:href="#DejaVuSans-72" x="46.333984"/>
      <use xlink:href="#DejaVuSans-61" x="87.447266"/>
      <use xlink:href="#DejaVuSans-69" x="148.726562"/>
      <use xlink:href="#DejaVuSans-6e" x="176.509766"/>
      <use xlink:href="#DejaVuSans-69" x="239.888672"/>
      <use xlink:href="#DejaVuSans-6e" x="267.671875"/>
      <use xlink:href="#DejaVuSans-67" x="331.050781"/>
      <use xlink:href="#DejaVuSans-20" x="394.527344"/>
      <use xlink:href="#DejaVuSans-41" x="426.314453"/>
      <use xlink:href="#DejaVuSans-63" x="492.972656"/>
      <use xlink:href="#DejaVuSans-63" x="547.953125"/>
      <use xlink:href="#DejaVuSans-75" x="602.933594"/>
      <use xlink:href="#DejaVuSans-72" x="666.3125"/>
      <use xlink:href="#DejaVuSans-61" x="707.425781"/>
      <use xlink:href="#DejaVuSans-63" x="768.705078"/>
      <use xlink:href="#DejaVuSans-79" x="823.685547"/>
     </g>
    </g>
    <g id="line2d_28">
     <path d="M 187.565625 225.180312 
L 197.565625 225.180312 
L 207.565625 225.180312 
" style="fill: none; stroke: #ff0000; stroke-width: 0.6; stroke-linecap: square"/>
    </g>
    <g id="text_17">
     <!-- Validation Accuracy -->
     <g transform="translate(215.565625 228.680312) scale(0.1 -0.1)">
      <defs>
       <path id="DejaVuSans-56" d="M 1831 0 
L 50 4666 
L 709 4666 
L 2188 738 
L 3669 4666 
L 4325 4666 
L 2547 0 
L 1831 0 
z
" transform="scale(0.015625)"/>
       <path id="DejaVuSans-74" d="M 1172 4494 
L 1172 3500 
L 2356 3500 
L 2356 3053 
L 1172 3053 
L 1172 1153 
Q 1172 725 1289 603 
Q 1406 481 1766 481 
L 2356 481 
L 2356 0 
L 1766 0 
Q 1100 0 847 248 
Q 594 497 594 1153 
L 594 3053 
L 172 3053 
L 172 3500 
L 594 3500 
L 594 4494 
L 1172 4494 
z
" transform="scale(0.015625)"/>
      </defs>
      <use xlink:href="#DejaVuSans-56"/>
      <use xlink:href="#DejaVuSans-61" x="60.658203"/>
      <use xlink:href="#DejaVuSans-6c" x="121.9375"/>
      <use xlink:href="#DejaVuSans-69" x="149.720703"/>
      <use xlink:href="#DejaVuSans-64" x="177.503906"/>
      <use xlink:href="#DejaVuSans-61" x="240.980469"/>
      <use xlink:href="#DejaVuSans-74" x="302.259766"/>
      <use xlink:href="#DejaVuSans-69" x="341.46875"/>
      <use xlink:href="#DejaVuSans-6f" x="369.251953"/>
      <use xlink:href="#DejaVuSans-6e" x="430.433594"/>
      <use xlink:href="#DejaVuSans-20" x="493.8125"/>
      <use xlink:href="#DejaVuSans-41" x="525.599609"/>
      <use xlink:href="#DejaVuSans-63" x="592.257812"/>
      <use xlink:href="#DejaVuSans-63" x="647.238281"/>
      <use xlink:href="#DejaVuSans-75" x="702.21875"/>
      <use xlink:href="#DejaVuSans-72" x="765.597656"/>
      <use xlink:href="#DejaVuSans-61" x="806.710938"/>
      <use xlink:href="#DejaVuSans-63" x="867.990234"/>
      <use xlink:href="#DejaVuSans-79" x="922.970703"/>
     </g>
    </g>
   </g>
  </g>
  <g id="text_18">
   <!-- Training VS. Validation Accuracy - Dataset Size = 50.0% -->
   <g transform="translate(24.933359 15.558281) scale(0.11 -0.11)">
    <defs>
     <path id="DejaVuSans-53" d="M 3425 4513 
L 3425 3897 
Q 3066 4069 2747 4153 
Q 2428 4238 2131 4238 
Q 1616 4238 1336 4038 
Q 1056 3838 1056 3469 
Q 1056 3159 1242 3001 
Q 1428 2844 1947 2747 
L 2328 2669 
Q 3034 2534 3370 2195 
Q 3706 1856 3706 1288 
Q 3706 609 3251 259 
Q 2797 -91 1919 -91 
Q 1588 -91 1214 -16 
Q 841 59 441 206 
L 441 856 
Q 825 641 1194 531 
Q 1563 422 1919 422 
Q 2459 422 2753 634 
Q 3047 847 3047 1241 
Q 3047 1584 2836 1778 
Q 2625 1972 2144 2069 
L 1759 2144 
Q 1053 2284 737 2584 
Q 422 2884 422 3419 
Q 422 4038 858 4394 
Q 1294 4750 2059 4750 
Q 2388 4750 2728 4690 
Q 3069 4631 3425 4513 
z
" transform="scale(0.015625)"/>
     <path id="DejaVuSans-2d" d="M 313 2009 
L 1997 2009 
L 1997 1497 
L 313 1497 
L 313 2009 
z
" transform="scale(0.015625)"/>
     <path id="DejaVuSans-44" d="M 1259 4147 
L 1259 519 
L 2022 519 
Q 2988 519 3436 956 
Q 3884 1394 3884 2338 
Q 3884 3275 3436 3711 
Q 2988 4147 2022 4147 
L 1259 4147 
z
M 628 4666 
L 1925 4666 
Q 3281 4666 3915 4102 
Q 4550 3538 4550 2338 
Q 4550 1131 3912 565 
Q 3275 0 1925 0 
L 628 0 
L 628 4666 
z
" transform="scale(0.015625)"/>
     <path id="DejaVuSans-7a" d="M 353 3500 
L 3084 3500 
L 3084 2975 
L 922 459 
L 3084 459 
L 3084 0 
L 275 0 
L 275 525 
L 2438 3041 
L 353 3041 
L 353 3500 
z
" transform="scale(0.015625)"/>
     <path id="DejaVuSans-3d" d="M 678 2906 
L 4684 2906 
L 4684 2381 
L 678 2381 
L 678 2906 
z
M 678 1631 
L 4684 1631 
L 4684 1100 
L 678 1100 
L 678 1631 
z
" transform="scale(0.015625)"/>
     <path id="DejaVuSans-25" d="M 4653 2053 
Q 4381 2053 4226 1822 
Q 4072 1591 4072 1178 
Q 4072 772 4226 539 
Q 4381 306 4653 306 
Q 4919 306 5073 539 
Q 5228 772 5228 1178 
Q 5228 1588 5073 1820 
Q 4919 2053 4653 2053 
z
M 4653 2450 
Q 5147 2450 5437 2106 
Q 5728 1763 5728 1178 
Q 5728 594 5436 251 
Q 5144 -91 4653 -91 
Q 4153 -91 3862 251 
Q 3572 594 3572 1178 
Q 3572 1766 3864 2108 
Q 4156 2450 4653 2450 
z
M 1428 4353 
Q 1159 4353 1004 4120 
Q 850 3888 850 3481 
Q 850 3069 1003 2837 
Q 1156 2606 1428 2606 
Q 1700 2606 1854 2837 
Q 2009 3069 2009 3481 
Q 2009 3884 1853 4118 
Q 1697 4353 1428 4353 
z
M 4250 4750 
L 4750 4750 
L 1831 -91 
L 1331 -91 
L 4250 4750 
z
M 1428 4750 
Q 1922 4750 2215 4408 
Q 2509 4066 2509 3481 
Q 2509 2891 2217 2550 
Q 1925 2209 1428 2209 
Q 931 2209 642 2551 
Q 353 2894 353 3481 
Q 353 4063 643 4406 
Q 934 4750 1428 4750 
z
" transform="scale(0.015625)"/>
    </defs>
    <use xlink:href="#DejaVuSans-54"/>
    <use xlink:href="#DejaVuSans-72" x="46.333984"/>
    <use xlink:href="#DejaVuSans-61" x="87.447266"/>
    <use xlink:href="#DejaVuSans-69" x="148.726562"/>
    <use xlink:href="#DejaVuSans-6e" x="176.509766"/>
    <use xlink:href="#DejaVuSans-69" x="239.888672"/>
    <use xlink:href="#DejaVuSans-6e" x="267.671875"/>
    <use xlink:href="#DejaVuSans-67" x="331.050781"/>
    <use xlink:href="#DejaVuSans-20" x="394.527344"/>
    <use xlink:href="#DejaVuSans-56" x="426.314453"/>
    <use xlink:href="#DejaVuSans-53" x="494.722656"/>
    <use xlink:href="#DejaVuSans-2e" x="558.199219"/>
    <use xlink:href="#DejaVuSans-20" x="589.986328"/>
    <use xlink:href="#DejaVuSans-56" x="621.773438"/>
    <use xlink:href="#DejaVuSans-61" x="682.431641"/>
    <use xlink:href="#DejaVuSans-6c" x="743.710938"/>
    <use xlink:href="#DejaVuSans-69" x="771.494141"/>
    <use xlink:href="#DejaVuSans-64" x="799.277344"/>
    <use xlink:href="#DejaVuSans-61" x="862.753906"/>
    <use xlink:href="#DejaVuSans-74" x="924.033203"/>
    <use xlink:href="#DejaVuSans-69" x="963.242188"/>
    <use xlink:href="#DejaVuSans-6f" x="991.025391"/>
    <use xlink:href="#DejaVuSans-6e" x="1052.207031"/>
    <use xlink:href="#DejaVuSans-20" x="1115.585938"/>
    <use xlink:href="#DejaVuSans-41" x="1147.373047"/>
    <use xlink:href="#DejaVuSans-63" x="1214.03125"/>
    <use xlink:href="#DejaVuSans-63" x="1269.011719"/>
    <use xlink:href="#DejaVuSans-75" x="1323.992188"/>
    <use xlink:href="#DejaVuSans-72" x="1387.371094"/>
    <use xlink:href="#DejaVuSans-61" x="1428.484375"/>
    <use xlink:href="#DejaVuSans-63" x="1489.763672"/>
    <use xlink:href="#DejaVuSans-79" x="1544.744141"/>
    <use xlink:href="#DejaVuSans-20" x="1603.923828"/>
    <use xlink:href="#DejaVuSans-2d" x="1635.710938"/>
    <use xlink:href="#DejaVuSans-20" x="1671.794922"/>
    <use xlink:href="#DejaVuSans-44" x="1703.582031"/>
    <use xlink:href="#DejaVuSans-61" x="1780.583984"/>
    <use xlink:href="#DejaVuSans-74" x="1841.863281"/>
    <use xlink:href="#DejaVuSans-61" x="1881.072266"/>
    <use xlink:href="#DejaVuSans-73" x="1942.351562"/>
    <use xlink:href="#DejaVuSans-65" x="1994.451172"/>
    <use xlink:href="#DejaVuSans-74" x="2055.974609"/>
    <use xlink:href="#DejaVuSans-20" x="2095.183594"/>
    <use xlink:href="#DejaVuSans-53" x="2126.970703"/>
    <use xlink:href="#DejaVuSans-69" x="2190.447266"/>
    <use xlink:href="#DejaVuSans-7a" x="2218.230469"/>
    <use xlink:href="#DejaVuSans-65" x="2270.720703"/>
    <use xlink:href="#DejaVuSans-20" x="2332.244141"/>
    <use xlink:href="#DejaVuSans-3d" x="2364.03125"/>
    <use xlink:href="#DejaVuSans-20" x="2447.820312"/>
    <use xlink:href="#DejaVuSans-35" x="2479.607422"/>
    <use xlink:href="#DejaVuSans-30" x="2543.230469"/>
    <use xlink:href="#DejaVuSans-2e" x="2606.853516"/>
    <use xlink:href="#DejaVuSans-30" x="2638.640625"/>
    <use xlink:href="#DejaVuSans-25" x="2702.263672"/>
   </g>
  </g>
 </g>
 <defs>
  <clipPath id="pf6bd695f0d">
   <rect x="43.78125" y="37.296" width="279" height="202.464"/>
  </clipPath>
 </defs>
</svg>
