<?xml version="1.0" encoding="utf-8" standalone="no"?>
<!DOCTYPE svg PUBLIC "-//W3C//DTD SVG 1.1//EN"
  "http://www.w3.org/Graphics/SVG/1.1/DTD/svg11.dtd">
<svg xmlns:xlink="http://www.w3.org/1999/xlink" width="336.329766pt" height="277.31625pt" viewBox="0 0 336.329766 277.31625" xmlns="http://www.w3.org/2000/svg" version="1.1">
 <metadata>
  <rdf:RDF xmlns:dc="http://purl.org/dc/elements/1.1/" xmlns:cc="http://creativecommons.org/ns#" xmlns:rdf="http://www.w3.org/1999/02/22-rdf-syntax-ns#">
   <cc:Work>
    <dc:type rdf:resource="http://purl.org/dc/dcmitype/StillImage"/>
    <dc:date>2026-06-11T10:38:21.723655</dc:date>
    <dc:format>image/svg+xml</dc:format>
    <dc:creator>
     <cc:Agent>
      <dc:title>Matplotlib v3.8.4, https://matplotlib.org/</dc:title>
     </cc:Agent>
    </dc:creator>
   </cc:Work>
  </rdf:RDF>
 </metadata>
 <defs>
  <style type="text/css">*{stroke-linejoin: round; stroke-linecap: butt}</style>
 </defs>
 <g id="figure_1">
  <g id="patch_1">
   <path d="M 0 277.31625 
L 336.329766 277.31625 
L 336.329766 0 
L 0 0 
z
" style="fill: #ffffff"/>
  </g>
  <g id="axes_1">
   <g id="patch_2">
    <path d="M 43.78125 239.76 
L 322.78125 239.76 
L 322.78125 37.296 
L 43.78125 37.296 
z
" style="fill: #ffffff"/>
   </g>
   <g id="matplotlib.axis_1">
    <g id="xtick_1">
     <g id="line2d_1">
      <path d="M 56.209178 239.76 
L 56.209178 37.296 
" clip-path="url(#p5ca353492d)" style="fill: none; stroke-dasharray: 2.96,1.28; stroke-dashoffset: 0; stroke: #b0b0b0; stroke-opacity: 0.4; stroke-width: 0.8"/>
     </g>
     <g id="line2d_2">
      <defs>
       <path id="m6505aa14eb" d="M 0 0 
L 0 3.5 
" style="stroke: #000000; stroke-width: 0.8"/>
      </defs>
      <g>
       <use xlink:href="#m6505aa14eb" x="56.209178" y="239.76" style="stroke: #000000; stroke-width: 0.8"/>
      </g>
     </g>
     <g id="text_1">
      <!-- 0 -->
      <g transform="translate(53.027928 254.358437) scale(0.1 -0.1)">
       <defs>
        <path id="DejaVuSans-30" d="M 2034 4250 
Q 1547 4250 1301 3770 
Q 1056 3291 1056 2328 
Q 1056 1369 1301 889 
Q 1547 409 2034 409 
Q 2525 409 2770 889 
Q 3016 1369 3016 2328 
Q 3016 3291 2770 3770 
Q 2525 4250 2034 4250 
z
M 2034 4750 
Q 2819 4750 3233 4129 
Q 3647 3509 3647 2328 
Q 3647 1150 3233 529 
Q 2819 -91 2034 -91 
Q 1250 -91 836 529 
Q 422 1150 422 2328 
Q 422 3509 836 4129 
Q 1250 4750 2034 4750 
z
" transform="scale(0.015625)"/>
       </defs>
       <use xlink:href="#DejaVuSans-30"/>
      </g>
     </g>
    </g>
    <g id="xtick_2">
     <g id="line2d_3">
      <path d="M 106.987229 239.76 
L 106.987229 37.296 
" clip-path="url(#p5ca353492d)" style="fill: none; stroke-dasharray: 2.96,1.28; stroke-dashoffset: 0; stroke: #b0b0b0; stroke-opacity: 0.4; stroke-width: 0.8"/>
     </g>
     <g id="line2d_4">
      <g>
       <use xlink:href="#m6505aa14eb" x="106.987229" y="239.76" style="stroke: #000000; stroke-width: 0.8"/>
      </g>
     </g>
     <g id="text_2">
      <!-- 200 -->
      <g transform="translate(97.443479 254.358437) scale(0.1 -0.1)">
       <defs>
        <path id="DejaVuSans-32" d="M 1228 531 
L 3431 531 
L 3431 0 
L 469 0 
L 469 531 
Q 828 903 1448 1529 
Q 2069 2156 2228 2338 
Q 2531 2678 2651 2914 
Q 2772 3150 2772 3378 
Q 2772 3750 2511 3984 
Q 2250 4219 1831 4219 
Q 1534 4219 1204 4116 
Q 875 4013 500 3803 
L 500 4441 
Q 881 4594 1212 4672 
Q 1544 4750 1819 4750 
Q 2544 4750 2975 4387 
Q 3406 4025 3406 3419 
Q 3406 3131 3298 2873 
Q 3191 2616 2906 2266 
Q 2828 2175 2409 1742 
Q 1991 1309 1228 531 
z
" transform="scale(0.015625)"/>
       </defs>
       <use xlink:href="#DejaVuSans-32"/>
       <use xlink:href="#DejaVuSans-30" x="63.623047"/>
       <use xlink:href="#DejaVuSans-30" x="127.246094"/>
      </g>
     </g>
    </g>
    <g id="xtick_3">
     <g id="line2d_5">
      <path d="M 157.765279 239.76 
L 157.765279 37.296 
" clip-path="url(#p5ca353492d)" style="fill: none; stroke-dasharray: 2.96,1.28; stroke-dashoffset: 0; stroke: #b0b0b0; stroke-opacity: 0.4; stroke-width: 0.8"/>
     </g>
     <g id="line2d_6">
      <g>
       <use xlink:href="#m6505aa14eb" x="157.765279" y="239.76" style="stroke: #000000; stroke-width: 0.8"/>
      </g>
     </g>
     <g id="text_3">
      <!-- 400 -->
      <g transform="translate(148.221529 254.358437) scale(0.1 -0.1)">
       <defs>
        <path id="DejaVuSans-34" d="M 2419 4116 
L 825 1625 
L 2419 1625 
L 2419 4116 
z
M 2253 4666 
L 3047 4666 
L 3047 1625 
L 3713 1625 
L 3713 1100 
L 3047 1100 
L 3047 0 
L 2419 0 
L 2419 1100 
L 313 1100 
L 313 1709 
L 2253 4666 
z
" transform="scale(0.015625)"/>
       </defs>
       <use xlink:href="#DejaVuSans-34"/>
       <use xlink:href="#DejaVuSans-30" x="63.623047"/>
       <use xlink:href="#DejaVuSans-30" x="127.246094"/>
      </g>
     </g>
    </g>
    <g id="xtick_4">
     <g id="line2d_7">
      <path d="M 208.54333 239.76 
L 208.54333 37.296 
" clip-path="url(#p5ca353492d)" style="fill: none; stroke-dasharray: 2.96,1.28; stroke-dashoffset: 0; stroke: #b0b0b0; stroke-opacity: 0.4; stroke-width: 0.8"/>
     </g>
     <g id="line2d_8">
      <g>
       <use xlink:href="#m6505aa14eb" x="208.54333" y="239.76" style="stroke: #000000; stroke-width: 0.8"/>
      </g>
     </g>
     <g id="text_4">
      <!-- 600 -->
      <g transform="translate(198.99958 254.358437) scale(0.1 -0.1)">
       <defs>
        <path id="DejaVuSans-36" d="M 2113 2584 
Q 1688 2584 1439 2293 
Q 1191 2003 1191 1497 
Q 1191 994 1439 701 
Q 1688 409 2113 409 
Q 2538 409 2786 701 
Q 3034 994 3034 1497 
Q 3034 2003 2786 2293 
Q 2538 2584 2113 2584 
z
M 3366 4563 
L 3366 3988 
Q 3128 4100 2886 4159 
Q 2644 4219 2406 4219 
Q 1781 4219 1451 3797 
Q 1122 3375 1075 2522 
Q 1259 2794 1537 2939 
Q 1816 3084 2150 3084 
Q 2853 3084 3261 2657 
Q 3669 2231 3669 1497 
Q 3669 778 3244 343 
Q 2819 -91 2113 -91 
Q 1303 -91 875 529 
Q 447 1150 447 2328 
Q 447 3434 972 4092 
Q 1497 4750 2381 4750 
Q 2619 4750 2861 4703 
Q 3103 4656 3366 4563 
z
" transform="scale(0.015625)"/>
       </defs>
       <use xlink:href="#DejaVuSans-36"/>
       <use xlink:href="#DejaVuSans-30" x="63.623047"/>
       <use xlink:href="#DejaVuSans-30" x="127.246094"/>
      </g>
     </g>
    </g>
    <g id="xtick_5">
     <g id="line2d_9">
      <path d="M 259.321381 239.76 
L 259.321381 37.296 
" clip-path="url(#p5ca353492d)" style="fill: none; stroke-dasharray: 2.96,1.28; stroke-dashoffset: 0; stroke: #b0b0b0; stroke-opacity: 0.4; stroke-width: 0.8"/>
     </g>
     <g id="line2d_10">
      <g>
       <use xlink:href="#m6505aa14eb" x="259.321381" y="239.76" style="stroke: #000000; stroke-width: 0.8"/>
      </g>
     </g>
     <g id="text_5">
      <!-- 800 -->
      <g transform="translate(249.777631 254.358437) scale(0.1 -0.1)">
       <defs>
        <path id="DejaVuSans-38" d="M 2034 2216 
Q 1584 2216 1326 1975 
Q 1069 1734 1069 1313 
Q 1069 891 1326 650 
Q 1584 409 2034 409 
Q 2484 409 2743 651 
Q 3003 894 3003 1313 
Q 3003 1734 2745 1975 
Q 2488 2216 2034 2216 
z
M 1403 2484 
Q 997 2584 770 2862 
Q 544 3141 544 3541 
Q 544 4100 942 4425 
Q 1341 4750 2034 4750 
Q 2731 4750 3128 4425 
Q 3525 4100 3525 3541 
Q 3525 3141 3298 2862 
Q 3072 2584 2669 2484 
Q 3125 2378 3379 2068 
Q 3634 1759 3634 1313 
Q 3634 634 3220 271 
Q 2806 -91 2034 -91 
Q 1263 -91 848 271 
Q 434 634 434 1313 
Q 434 1759 690 2068 
Q 947 2378 1403 2484 
z
M 1172 3481 
Q 1172 3119 1398 2916 
Q 1625 2713 2034 2713 
Q 2441 2713 2670 2916 
Q 2900 3119 2900 3481 
Q 2900 3844 2670 4047 
Q 2441 4250 2034 4250 
Q 1625 4250 1398 4047 
Q 1172 3844 1172 3481 
z
" transform="scale(0.015625)"/>
       </defs>
       <use xlink:href="#DejaVuSans-38"/>
       <use xlink:href="#DejaVuSans-30" x="63.623047"/>
       <use xlink:href="#DejaVuSans-30" x="127.246094"/>
      </g>
     </g>
    </g>
    <g id="xtick_6">
     <g id="line2d_11">
      <path d="M 310.099432 239.76 
L 310.099432 37.296 
" clip-path="url(#p5ca353492d)" style="fill: none; stroke-dasharray: 2.96,1.28; stroke-dashoffset: 0; stroke: #b0b0b0; stroke-opacity: 0.4; stroke-width: 0.8"/>
     </g>
     <g id="line2d_12">
      <g>
       <use xlink:href="#m6505aa14eb" x="310.099432" y="239.76" style="stroke: #000000; stroke-width: 0.8"/>
      </g>
     </g>
     <g id="text_6">
      <!-- 1000 -->
      <g transform="translate(297.374432 254.358437) scale(0.1 -0.1)">
       <defs>
        <path id="DejaVuSans-31" d="M 794 531 
L 1825 531 
L 1825 4091 
L 703 3866 
L 703 4441 
L 1819 4666 
L 2450 4666 
L 2450 531 
L 3481 531 
L 3481 0 
L 794 0 
L 794 531 
z
" transform="scale(0.015625)"/>
       </defs>
       <use xlink:href="#DejaVuSans-31"/>
       <use xlink:href="#DejaVuSans-30" x="63.623047"/>
       <use xlink:href="#DejaVuSans-30" x="127.246094"/>
       <use xlink:href="#DejaVuSans-30" x="190.869141"/>
      </g>
     </g>
    </g>
    <g id="text_7">
     <!-- Epochs -->
     <g transform="translate(165.365625 268.036562) scale(0.1 -0.1)">
      <defs>
       <path id="DejaVuSans-45" d="M 628 4666 
L 3578 4666 
L 3578 4134 
L 1259 4134 
L 1259 2753 
L 3481 2753 
L 3481 2222 
L 1259 2222 
L 1259 531 
L 3634 531 
L 3634 0 
L 628 0 
L 628 4666 
z
" transform="scale(0.015625)"/>
       <path id="DejaVuSans-70" d="M 1159 525 
L 1159 -1331 
L 581 -1331 
L 581 3500 
L 1159 3500 
L 1159 2969 
Q 1341 3281 1617 3432 
Q 1894 3584 2278 3584 
Q 2916 3584 3314 3078 
Q 3713 2572 3713 1747 
Q 3713 922 3314 415 
Q 2916 -91 2278 -91 
Q 1894 -91 1617 61 
Q 1341 213 1159 525 
z
M 3116 1747 
Q 3116 2381 2855 2742 
Q 2594 3103 2138 3103 
Q 1681 3103 1420 2742 
Q 1159 2381 1159 1747 
Q 1159 1113 1420 752 
Q 1681 391 2138 391 
Q 2594 391 2855 752 
Q 3116 1113 3116 1747 
z
" transform="scale(0.015625)"/>
       <path id="DejaVuSans-6f" d="M 1959 3097 
Q 1497 3097 1228 2736 
Q 959 2375 959 1747 
Q 959 1119 1226 758 
Q 1494 397 1959 397 
Q 2419 397 2687 759 
Q 2956 1122 2956 1747 
Q 2956 2369 2687 2733 
Q 2419 3097 1959 3097 
z
M 1959 3584 
Q 2709 3584 3137 3096 
Q 3566 2609 3566 1747 
Q 3566 888 3137 398 
Q 2709 -91 1959 -91 
Q 1206 -91 779 398 
Q 353 888 353 1747 
Q 353 2609 779 3096 
Q 1206 3584 1959 3584 
z
" transform="scale(0.015625)"/>
       <path id="DejaVuSans-63" d="M 3122 3366 
L 3122 2828 
Q 2878 2963 2633 3030 
Q 2388 3097 2138 3097 
Q 1578 3097 1268 2742 
Q 959 2388 959 1747 
Q 959 1106 1268 751 
Q 1578 397 2138 397 
Q 2388 397 2633 464 
Q 2878 531 3122 666 
L 3122 134 
Q 2881 22 2623 -34 
Q 2366 -91 2075 -91 
Q 1284 -91 818 406 
Q 353 903 353 1747 
Q 353 2603 823 3093 
Q 1294 3584 2113 3584 
Q 2378 3584 2631 3529 
Q 2884 3475 3122 3366 
z
" transform="scale(0.015625)"/>
       <path id="DejaVuSans-68" d="M 3513 2113 
L 3513 0 
L 2938 0 
L 2938 2094 
Q 2938 2591 2744 2837 
Q 2550 3084 2163 3084 
Q 1697 3084 1428 2787 
Q 1159 2491 1159 1978 
L 1159 0 
L 581 0 
L 581 4863 
L 1159 4863 
L 1159 2956 
Q 1366 3272 1645 3428 
Q 1925 3584 2291 3584 
Q 2894 3584 3203 3211 
Q 3513 2838 3513 2113 
z
" transform="scale(0.015625)"/>
       <path id="DejaVuSans-73" d="M 2834 3397 
L 2834 2853 
Q 2591 2978 2328 3040 
Q 2066 3103 1784 3103 
Q 1356 3103 1142 2972 
Q 928 2841 928 2578 
Q 928 2378 1081 2264 
Q 1234 2150 1697 2047 
L 1894 2003 
Q 2506 1872 2764 1633 
Q 3022 1394 3022 966 
Q 3022 478 2636 193 
Q 2250 -91 1575 -91 
Q 1294 -91 989 -36 
Q 684 19 347 128 
L 347 722 
Q 666 556 975 473 
Q 1284 391 1588 391 
Q 1994 391 2212 530 
Q 2431 669 2431 922 
Q 2431 1156 2273 1281 
Q 2116 1406 1581 1522 
L 1381 1569 
Q 847 1681 609 1914 
Q 372 2147 372 2553 
Q 372 3047 722 3315 
Q 1072 3584 1716 3584 
Q 2034 3584 2315 3537 
Q 2597 3491 2834 3397 
z
" transform="scale(0.015625)"/>
      </defs>
      <use xlink:href="#DejaVuSans-45"/>
      <use xlink:href="#DejaVuSans-70" x="63.183594"/>
      <use xlink:href="#DejaVuSans-6f" x="126.660156"/>
      <use xlink:href="#DejaVuSans-63" x="187.841797"/>
      <use xlink:href="#DejaVuSans-68" x="242.822266"/>
      <use xlink:href="#DejaVuSans-73" x="306.201172"/>
     </g>
    </g>
   </g>
   <g id="matplotlib.axis_2">
    <g id="ytick_1">
     <g id="line2d_13">
      <path d="M 43.78125 212.275915 
L 322.78125 212.275915 
" clip-path="url(#p5ca353492d)" style="fill: none; stroke-dasharray: 2.96,1.28; stroke-dashoffset: 0; stroke: #b0b0b0; stroke-opacity: 0.4; stroke-width: 0.8"/>
     </g>
     <g id="line2d_14">
      <defs>
       <path id="m9959be4af2" d="M 0 0 
L -3.5 0 
" style="stroke: #000000; stroke-width: 0.8"/>
      </defs>
      <g>
       <use xlink:href="#m9959be4af2" x="43.78125" y="212.275915" style="stroke: #000000; stroke-width: 0.8"/>
      </g>
     </g>
     <g id="text_8">
      <!-- 0.5 -->
      <g transform="translate(20.878125 216.075134) scale(0.1 -0.1)">
       <defs>
        <path id="DejaVuSans-2e" d="M 684 794 
L 1344 794 
L 1344 0 
L 684 0 
L 684 794 
z
" transform="scale(0.015625)"/>
        <path id="DejaVuSans-35" d="M 691 4666 
L 3169 4666 
L 3169 4134 
L 1269 4134 
L 1269 2991 
Q 1406 3038 1543 3061 
Q 1681 3084 1819 3084 
Q 2600 3084 3056 2656 
Q 3513 2228 3513 1497 
Q 3513 744 3044 326 
Q 2575 -91 1722 -91 
Q 1428 -91 1123 -41 
Q 819 9 494 109 
L 494 744 
Q 775 591 1075 516 
Q 1375 441 1709 441 
Q 2250 441 2565 725 
Q 2881 1009 2881 1497 
Q 2881 1984 2565 2268 
Q 2250 2553 1709 2553 
Q 1456 2553 1204 2497 
Q 953 2441 691 2322 
L 691 4666 
z
" transform="scale(0.015625)"/>
       </defs>
       <use xlink:href="#DejaVuSans-30"/>
       <use xlink:href="#DejaVuSans-2e" x="63.623047"/>
       <use xlink:href="#DejaVuSans-35" x="95.410156"/>
      </g>
     </g>
    </g>
    <g id="ytick_2">
     <g id="line2d_15">
      <path d="M 43.78125 177.541687 
L 322.78125 177.541687 
" clip-path="url(#p5ca353492d)" style="fill: none; stroke-dasharray: 2.96,1.28; stroke-dashoffset: 0; stroke: #b0b0b0; stroke-opacity: 0.4; stroke-width: 0.8"/>
     </g>
     <g id="line2d_16">
      <g>
       <use xlink:href="#m9959be4af2" x="43.78125" y="177.541687" style="stroke: #000000; stroke-width: 0.8"/>
      </g>
     </g>
     <g id="text_9">
      <!-- 0.6 -->
      <g transform="translate(20.878125 181.340906) scale(0.1 -0.1)">
       <use xlink:href="#DejaVuSans-30"/>
       <use xlink:href="#DejaVuSans-2e" x="63.623047"/>
       <use xlink:href="#DejaVuSans-36" x="95.410156"/>
      </g>
     </g>
    </g>
    <g id="ytick_3">
     <g id="line2d_17">
      <path d="M 43.78125 142.807459 
L 322.78125 142.807459 
" clip-path="url(#p5ca353492d)" style="fill: none; stroke-dasharray: 2.96,1.28; stroke-dashoffset: 0; stroke: #b0b0b0; stroke-opacity: 0.4; stroke-width: 0.8"/>
     </g>
     <g id="line2d_18">
      <g>
       <use xlink:href="#m9959be4af2" x="43.78125" y="142.807459" style="stroke: #000000; stroke-width: 0.8"/>
      </g>
     </g>
     <g id="text_10">
      <!-- 0.7 -->
      <g transform="translate(20.878125 146.606678) scale(0.1 -0.1)">
       <defs>
        <path id="DejaVuSans-37" d="M 525 4666 
L 3525 4666 
L 3525 4397 
L 1831 0 
L 1172 0 
L 2766 4134 
L 525 4134 
L 525 4666 
z
" transform="scale(0.015625)"/>
       </defs>
       <use xlink:href="#DejaVuSans-30"/>
       <use xlink:href="#DejaVuSans-2e" x="63.623047"/>
       <use xlink:href="#DejaVuSans-37" x="95.410156"/>
      </g>
     </g>
    </g>
    <g id="ytick_4">
     <g id="line2d_19">
      <path d="M 43.78125 108.07323 
L 322.78125 108.07323 
" clip-path="url(#p5ca353492d)" style="fill: none; stroke-dasharray: 2.96,1.28; stroke-dashoffset: 0; stroke: #b0b0b0; stroke-opacity: 0.4; stroke-width: 0.8"/>
     </g>
     <g id="line2d_20">
      <g>
       <use xlink:href="#m9959be4af2" x="43.78125" y="108.07323" style="stroke: #000000; stroke-width: 0.8"/>
      </g>
     </g>
     <g id="text_11">
      <!-- 0.8 -->
      <g transform="translate(20.878125 111.872449) scale(0.1 -0.1)">
       <use xlink:href="#DejaVuSans-30"/>
       <use xlink:href="#DejaVuSans-2e" x="63.623047"/>
       <use xlink:href="#DejaVuSans-38" x="95.410156"/>
      </g>
     </g>
    </g>
    <g id="ytick_5">
     <g id="line2d_21">
      <path d="M 43.78125 73.339002 
L 322.78125 73.339002 
" clip-path="url(#p5ca353492d)" style="fill: none; stroke-dasharray: 2.96,1.28; stroke-dashoffset: 0; stroke: #b0b0b0; stroke-opacity: 0.4; stroke-width: 0.8"/>
     </g>
     <g id="line2d_22">
      <g>
       <use xlink:href="#m9959be4af2" x="43.78125" y="73.339002" style="stroke: #000000; stroke-width: 0.8"/>
      </g>
     </g>
     <g id="text_12">
      <!-- 0.9 -->
      <g transform="translate(20.878125 77.138221) scale(0.1 -0.1)">
       <defs>
        <path id="DejaVuSans-39" d="M 703 97 
L 703 672 
Q 941 559 1184 500 
Q 1428 441 1663 441 
Q 2288 441 2617 861 
Q 2947 1281 2994 2138 
Q 2813 1869 2534 1725 
Q 2256 1581 1919 1581 
Q 1219 1581 811 2004 
Q 403 2428 403 3163 
Q 403 3881 828 4315 
Q 1253 4750 1959 4750 
Q 2769 4750 3195 4129 
Q 3622 3509 3622 2328 
Q 3622 1225 3098 567 
Q 2575 -91 1691 -91 
Q 1453 -91 1209 -44 
Q 966 3 703 97 
z
M 1959 2075 
Q 2384 2075 2632 2365 
Q 2881 2656 2881 3163 
Q 2881 3666 2632 3958 
Q 2384 4250 1959 4250 
Q 1534 4250 1286 3958 
Q 1038 3666 1038 3163 
Q 1038 2656 1286 2365 
Q 1534 2075 1959 2075 
z
" transform="scale(0.015625)"/>
       </defs>
       <use xlink:href="#DejaVuSans-30"/>
       <use xlink:href="#DejaVuSans-2e" x="63.623047"/>
       <use xlink:href="#DejaVuSans-39" x="95.410156"/>
      </g>
     </g>
    </g>
    <g id="ytick_6">
     <g id="line2d_23">
      <path d="M 43.78125 38.604774 
L 322.78125 38.604774 
" clip-path="url(#p5ca353492d)" style="fill: none; stroke-dasharray: 2.96,1.28; stroke-dashoffset: 0; stroke: #b0b0b0; stroke-opacity: 0.4; stroke-width: 0.8"/>
     </g>
     <g id="line2d_24">
      <g>
       <use xlink:href="#m9959be4af2" x="43.78125" y="38.604774" style="stroke: #000000; stroke-width: 0.8"/>
      </g>
     </g>
     <g id="text_13">
      <!-- 1.0 -->
      <g transform="translate(20.878125 42.403993) scale(0.1 -0.1)">
       <use xlink:href="#DejaVuSans-31"/>
       <use xlink:href="#DejaVuSans-2e" x="63.623047"/>
       <use xlink:href="#DejaVuSans-30" x="95.410156"/>
      </g>
     </g>
    </g>
    <g id="text_14">
     <!-- Accuracy -->
     <g transform="translate(14.798438 161.356125) rotate(-90) scale(0.1 -0.1)">
      <defs>
       <path id="DejaVuSans-41" d="M 2188 4044 
L 1331 1722 
L 3047 1722 
L 2188 4044 
z
M 1831 4666 
L 2547 4666 
L 4325 0 
L 3669 0 
L 3244 1197 
L 1141 1197 
L 716 0 
L 50 0 
L 1831 4666 
z
" transform="scale(0.015625)"/>
       <path id="DejaVuSans-75" d="M 544 1381 
L 544 3500 
L 1119 3500 
L 1119 1403 
Q 1119 906 1312 657 
Q 1506 409 1894 409 
Q 2359 409 2629 706 
Q 2900 1003 2900 1516 
L 2900 3500 
L 3475 3500 
L 3475 0 
L 2900 0 
L 2900 538 
Q 2691 219 2414 64 
Q 2138 -91 1772 -91 
Q 1169 -91 856 284 
Q 544 659 544 1381 
z
M 1991 3584 
L 1991 3584 
z
" transform="scale(0.015625)"/>
       <path id="DejaVuSans-72" d="M 2631 2963 
Q 2534 3019 2420 3045 
Q 2306 3072 2169 3072 
Q 1681 3072 1420 2755 
Q 1159 2438 1159 1844 
L 1159 0 
L 581 0 
L 581 3500 
L 1159 3500 
L 1159 2956 
Q 1341 3275 1631 3429 
Q 1922 3584 2338 3584 
Q 2397 3584 2469 3576 
Q 2541 3569 2628 3553 
L 2631 2963 
z
" transform="scale(0.015625)"/>
       <path id="DejaVuSans-61" d="M 2194 1759 
Q 1497 1759 1228 1600 
Q 959 1441 959 1056 
Q 959 750 1161 570 
Q 1363 391 1709 391 
Q 2188 391 2477 730 
Q 2766 1069 2766 1631 
L 2766 1759 
L 2194 1759 
z
M 3341 1997 
L 3341 0 
L 2766 0 
L 2766 531 
Q 2569 213 2275 61 
Q 1981 -91 1556 -91 
Q 1019 -91 701 211 
Q 384 513 384 1019 
Q 384 1609 779 1909 
Q 1175 2209 1959 2209 
L 2766 2209 
L 2766 2266 
Q 2766 2663 2505 2880 
Q 2244 3097 1772 3097 
Q 1472 3097 1187 3025 
Q 903 2953 641 2809 
L 641 3341 
Q 956 3463 1253 3523 
Q 1550 3584 1831 3584 
Q 2591 3584 2966 3190 
Q 3341 2797 3341 1997 
z
" transform="scale(0.015625)"/>
       <path id="DejaVuSans-79" d="M 2059 -325 
Q 1816 -950 1584 -1140 
Q 1353 -1331 966 -1331 
L 506 -1331 
L 506 -850 
L 844 -850 
Q 1081 -850 1212 -737 
Q 1344 -625 1503 -206 
L 1606 56 
L 191 3500 
L 800 3500 
L 1894 763 
L 2988 3500 
L 3597 3500 
L 2059 -325 
z
" transform="scale(0.015625)"/>
      </defs>
      <use xlink:href="#DejaVuSans-41"/>
      <use xlink:href="#DejaVuSans-63" x="66.658203"/>
      <use xlink:href="#DejaVuSans-63" x="121.638672"/>
      <use xlink:href="#DejaVuSans-75" x="176.619141"/>
      <use xlink:href="#DejaVuSans-72" x="239.998047"/>
      <use xlink:href="#DejaVuSans-61" x="281.111328"/>
      <use xlink:href="#DejaVuSans-63" x="342.390625"/>
      <use xlink:href="#DejaVuSans-79" x="397.371094"/>
     </g>
    </g>
   </g>
   <g id="line2d_25">
    <path d="M 56.463068 224.117129 
L 56.970849 216.222983 
L 57.224739 200.434692 
L 57.478629 216.222983 
L 57.732519 200.434692 
L 57.98641 204.38178 
L 58.2403 200.434692 
L 58.49419 200.434692 
L 58.74808 196.487624 
L 59.001971 200.434692 
L 59.255861 196.487624 
L 59.509751 200.434692 
L 59.763641 196.487624 
L 60.017532 204.38178 
L 60.271422 200.434692 
L 60.525312 192.540557 
L 60.779202 196.487624 
L 61.033093 188.593489 
L 61.286983 192.540557 
L 61.540873 176.752265 
L 61.794764 168.85813 
L 62.048654 176.752265 
L 62.302544 180.699354 
L 62.556434 180.699354 
L 63.064215 164.911062 
L 63.318105 192.540557 
L 63.571995 172.805198 
L 63.825886 176.752265 
L 64.079776 168.85813 
L 64.333666 176.752265 
L 64.587556 180.699354 
L 64.841447 180.699354 
L 65.095337 176.752265 
L 65.349227 180.699354 
L 65.603117 176.752265 
L 65.857008 176.752265 
L 66.110898 172.805198 
L 66.364788 172.805198 
L 66.618678 168.85813 
L 66.872569 168.85813 
L 67.126459 184.646421 
L 67.634239 164.911062 
L 68.14202 180.699354 
L 68.39591 180.699354 
L 68.6498 153.069839 
L 68.903691 180.699354 
L 69.157581 153.069839 
L 69.665361 184.646421 
L 70.173142 184.646421 
L 70.427032 188.593489 
L 70.680922 168.85813 
L 71.442593 168.85813 
L 71.696483 160.963995 
L 71.950374 160.963995 
L 72.204264 153.069839 
L 72.458154 157.016906 
L 72.965935 184.646421 
L 73.219825 164.911062 
L 73.727605 164.911062 
L 73.981496 149.122771 
L 74.235386 160.963995 
L 74.489276 153.069839 
L 74.743166 153.069839 
L 74.997057 141.228636 
L 75.250947 160.963995 
L 75.504837 153.069839 
L 75.758727 149.122771 
L 76.012618 160.963995 
L 76.266508 164.911062 
L 76.520398 160.963995 
L 76.774288 153.069839 
L 77.028179 149.122771 
L 77.282069 164.911062 
L 77.535959 133.33448 
L 77.78985 153.069839 
L 78.04374 129.387412 
L 78.29763 149.122771 
L 78.55152 145.175703 
L 78.805411 149.122771 
L 79.059301 137.281568 
L 79.313191 141.228636 
L 79.567081 157.016906 
L 79.820972 153.069839 
L 80.328752 117.546209 
L 80.582642 133.33448 
L 80.836533 129.387412 
L 81.090423 129.387412 
L 81.344313 125.440345 
L 81.598203 129.387412 
L 81.852094 145.175703 
L 82.105984 141.228636 
L 82.359874 133.33448 
L 82.613764 137.281568 
L 82.867655 129.387412 
L 83.121545 113.599121 
L 83.375435 133.33448 
L 83.629325 117.546209 
L 83.883216 129.387412 
L 84.137106 117.546209 
L 84.390996 121.493277 
L 84.644886 117.546209 
L 84.898777 109.652053 
L 85.152667 125.440345 
L 85.406557 117.546209 
L 85.660447 129.387412 
L 85.914338 113.599121 
L 86.168228 117.546209 
L 86.422118 101.757918 
L 86.676008 117.546209 
L 86.929899 117.546209 
L 87.183789 121.493277 
L 87.437679 113.599121 
L 87.691569 129.387412 
L 87.94546 113.599121 
L 88.19935 117.546209 
L 88.45324 117.546209 
L 88.70713 129.387412 
L 88.961021 109.652053 
L 89.214911 129.387412 
L 89.468801 113.599121 
L 89.722691 125.440345 
L 90.230472 97.81085 
L 90.484362 97.81085 
L 90.738252 101.757918 
L 90.992143 121.493277 
L 91.246033 89.916694 
L 91.499923 109.652053 
L 91.753813 89.916694 
L 92.007704 89.916694 
L 92.261594 93.863783 
L 92.515484 101.757918 
L 92.769374 93.863783 
L 93.023265 101.757918 
L 93.277155 85.969627 
L 93.784936 109.652053 
L 94.038826 89.916694 
L 94.292716 105.704986 
L 94.546606 89.916694 
L 94.800497 101.757918 
L 95.054387 105.704986 
L 95.562167 82.022559 
L 96.069948 97.81085 
L 96.323838 74.128424 
L 96.577728 109.652053 
L 96.831619 85.969627 
L 97.085509 78.075492 
L 97.339399 101.757918 
L 97.593289 78.075492 
L 97.84718 101.757918 
L 98.10107 85.969627 
L 98.35496 85.969627 
L 98.60885 93.863783 
L 98.862741 85.969627 
L 99.116631 101.757918 
L 99.370521 85.969627 
L 99.624411 101.757918 
L 99.878302 82.022559 
L 100.132192 85.969627 
L 100.386082 82.022559 
L 100.639972 74.128424 
L 100.893863 78.075492 
L 101.401643 97.81085 
L 101.655533 82.022559 
L 101.909424 78.075492 
L 102.417204 101.757918 
L 102.671094 70.181336 
L 103.178875 97.81085 
L 103.432765 70.181336 
L 103.686655 89.916694 
L 104.194436 82.022559 
L 104.448326 93.863783 
L 104.702216 74.128424 
L 104.956107 85.969627 
L 105.209997 74.128424 
L 105.463887 74.128424 
L 105.717777 78.075492 
L 105.971668 74.128424 
L 106.225558 85.969627 
L 106.733338 70.181336 
L 107.241119 89.916694 
L 107.495009 82.022559 
L 107.748899 78.075492 
L 108.00279 66.234268 
L 108.25668 89.916694 
L 108.51057 82.022559 
L 108.76446 70.181336 
L 109.018351 74.128424 
L 109.272241 85.969627 
L 109.780021 78.075492 
L 110.033912 70.181336 
L 110.541692 85.969627 
L 110.795583 66.234268 
L 111.049473 74.128424 
L 111.303363 70.181336 
L 111.557253 70.181336 
L 111.811144 82.022559 
L 112.065034 74.128424 
L 112.318924 74.128424 
L 112.572814 62.2872 
L 113.080595 78.075492 
L 113.334485 74.128424 
L 113.588375 82.022559 
L 113.842266 78.075492 
L 114.096156 78.075492 
L 114.350046 89.916694 
L 114.603936 70.181336 
L 114.857827 78.075492 
L 115.111717 58.340133 
L 115.365607 85.969627 
L 115.619497 78.075492 
L 115.873388 74.128424 
L 116.127278 78.075492 
L 116.381168 74.128424 
L 116.635058 74.128424 
L 116.888949 82.022559 
L 117.396729 74.128424 
L 117.650619 74.128424 
L 117.90451 78.075492 
L 118.1584 70.181336 
L 118.41229 78.075492 
L 118.66618 78.075492 
L 119.173961 70.181336 
L 119.427851 70.181336 
L 119.681741 85.969627 
L 119.935632 70.181336 
L 120.189522 66.234268 
L 120.443412 70.181336 
L 120.697302 82.022559 
L 120.951193 78.075492 
L 121.205083 66.234268 
L 121.458973 74.128424 
L 121.712863 74.128424 
L 121.966754 82.022559 
L 122.220644 82.022559 
L 122.474534 62.2872 
L 122.982315 70.181336 
L 123.490095 70.181336 
L 123.743985 62.2872 
L 123.997876 78.075492 
L 124.251766 85.969627 
L 124.505656 82.022559 
L 125.013437 58.340133 
L 125.267327 74.128424 
L 125.521217 70.181336 
L 125.775107 74.128424 
L 126.028998 62.2872 
L 126.536778 78.075492 
L 126.790669 66.234268 
L 127.044559 70.181336 
L 127.552339 70.181336 
L 127.80623 74.128424 
L 128.06012 74.128424 
L 128.31401 58.340133 
L 128.5679 78.075492 
L 128.821791 62.2872 
L 129.075681 66.234268 
L 129.329571 62.2872 
L 129.583461 70.181336 
L 129.837352 46.498909 
L 130.091242 82.022559 
L 130.345132 74.128424 
L 130.599022 74.128424 
L 130.852913 78.075492 
L 131.106803 78.075492 
L 131.360693 70.181336 
L 131.614583 70.181336 
L 131.868474 85.969627 
L 132.122364 78.075492 
L 132.376254 89.916694 
L 132.884035 62.2872 
L 133.137925 66.234268 
L 133.391815 78.075492 
L 133.645705 74.128424 
L 133.899596 78.075492 
L 134.153486 66.234268 
L 134.407376 74.128424 
L 135.169047 74.128424 
L 135.422937 78.075492 
L 135.930718 70.181336 
L 136.184608 74.128424 
L 136.438498 74.128424 
L 136.692388 66.234268 
L 136.946279 62.2872 
L 137.200169 70.181336 
L 137.454059 62.2872 
L 137.707949 66.234268 
L 137.96184 74.128424 
L 138.21573 66.234268 
L 138.72351 74.128424 
L 138.977401 66.234268 
L 139.231291 78.075492 
L 139.739071 62.2872 
L 139.992962 62.2872 
L 140.246852 70.181336 
L 140.500742 58.340133 
L 140.754632 62.2872 
L 141.008523 74.128424 
L 141.262413 66.234268 
L 141.516303 70.181336 
L 141.770193 62.2872 
L 142.024084 66.234268 
L 142.277974 82.022559 
L 142.531864 74.128424 
L 142.785755 85.969627 
L 143.039645 62.2872 
L 143.293535 66.234268 
L 143.547425 78.075492 
L 143.801316 70.181336 
L 144.055206 78.075492 
L 144.309096 50.445997 
L 144.562986 66.234268 
L 144.816877 74.128424 
L 145.070767 58.340133 
L 145.324657 70.181336 
L 145.832438 70.181336 
L 146.086328 66.234268 
L 146.340218 78.075492 
L 146.594108 62.2872 
L 147.101889 70.181336 
L 147.355779 70.181336 
L 147.609669 74.128424 
L 147.86356 62.2872 
L 148.11745 82.022559 
L 148.37134 66.234268 
L 148.62523 74.128424 
L 148.879121 70.181336 
L 149.133011 58.340133 
L 149.640791 74.128424 
L 149.894682 70.181336 
L 150.148572 85.969627 
L 150.402462 66.234268 
L 150.656352 58.340133 
L 150.910243 58.340133 
L 151.164133 62.2872 
L 151.418023 62.2872 
L 151.671913 78.075492 
L 151.925804 62.2872 
L 152.179694 70.181336 
L 152.433584 74.128424 
L 152.687474 62.2872 
L 152.941365 66.234268 
L 153.449145 66.234268 
L 153.956926 74.128424 
L 154.210816 66.234268 
L 154.464706 74.128424 
L 154.718596 58.340133 
L 154.972487 78.075492 
L 155.226377 54.393065 
L 155.480267 66.234268 
L 155.734157 66.234268 
L 155.988048 70.181336 
L 156.241938 62.2872 
L 156.495828 62.2872 
L 156.749718 74.128424 
L 157.003609 62.2872 
L 157.257499 74.128424 
L 157.511389 58.340133 
L 157.765279 66.234268 
L 158.01917 70.181336 
L 158.78084 58.340133 
L 159.034731 74.128424 
L 159.288621 78.075492 
L 159.796402 50.445997 
L 160.304182 66.234268 
L 160.558072 66.234268 
L 161.319743 54.393065 
L 161.573633 58.340133 
L 161.827524 78.075492 
L 162.081414 66.234268 
L 162.335304 70.181336 
L 162.843085 70.181336 
L 163.096975 58.340133 
L 163.604755 66.234268 
L 163.858646 66.234268 
L 164.112536 74.128424 
L 164.366426 74.128424 
L 164.620316 62.2872 
L 164.874207 78.075492 
L 165.128097 70.181336 
L 165.381987 58.340133 
L 165.635877 58.340133 
L 165.889768 70.181336 
L 166.143658 58.340133 
L 166.397548 66.234268 
L 166.651438 58.340133 
L 166.905329 58.340133 
L 167.159219 54.393065 
L 167.413109 74.128424 
L 167.666999 66.234268 
L 168.17478 58.340133 
L 168.42867 58.340133 
L 168.68256 66.234268 
L 168.936451 70.181336 
L 169.190341 78.075492 
L 169.444231 54.393065 
L 169.698121 70.181336 
L 170.205902 70.181336 
L 170.459792 58.340133 
L 170.713682 70.181336 
L 170.967573 58.340133 
L 171.221463 62.2872 
L 171.475353 54.393065 
L 171.729243 50.445997 
L 171.983134 78.075492 
L 172.490914 62.2872 
L 172.998695 62.2872 
L 173.252585 70.181336 
L 173.506475 58.340133 
L 173.760365 78.075492 
L 174.014256 78.075492 
L 174.268146 50.445997 
L 174.522036 54.393065 
L 174.775926 66.234268 
L 175.029817 62.2872 
L 175.283707 82.022559 
L 175.791488 58.340133 
L 176.045378 74.128424 
L 176.553158 66.234268 
L 176.807049 70.181336 
L 177.060939 62.2872 
L 177.314829 58.340133 
L 177.82261 66.234268 
L 178.0765 66.234268 
L 178.33039 70.181336 
L 178.58428 58.340133 
L 178.838171 74.128424 
L 179.092061 58.340133 
L 179.345951 66.234268 
L 179.599841 62.2872 
L 179.853732 66.234268 
L 180.361512 66.234268 
L 180.615402 58.340133 
L 180.869293 62.2872 
L 181.377073 62.2872 
L 181.630963 58.340133 
L 181.884854 70.181336 
L 182.138744 66.234268 
L 182.392634 66.234268 
L 182.646524 70.181336 
L 183.154305 62.2872 
L 183.408195 62.2872 
L 183.662085 54.393065 
L 183.915976 70.181336 
L 184.169866 62.2872 
L 184.423756 82.022559 
L 184.677646 58.340133 
L 184.931537 78.075492 
L 185.185427 78.075492 
L 185.439317 62.2872 
L 185.693207 58.340133 
L 185.947098 62.2872 
L 186.200988 74.128424 
L 186.454878 70.181336 
L 186.708768 74.128424 
L 186.962659 58.340133 
L 187.216549 66.234268 
L 187.470439 66.234268 
L 187.724329 74.128424 
L 187.97822 58.340133 
L 188.23211 70.181336 
L 188.486 66.234268 
L 188.73989 70.181336 
L 188.993781 70.181336 
L 189.247671 54.393065 
L 189.501561 70.181336 
L 189.755451 62.2872 
L 190.009342 62.2872 
L 190.517122 70.181336 
L 190.771012 70.181336 
L 191.024903 54.393065 
L 191.278793 74.128424 
L 191.532683 58.340133 
L 191.786574 70.181336 
L 192.040464 54.393065 
L 192.294354 78.075492 
L 192.548244 62.2872 
L 192.802135 58.340133 
L 193.056025 58.340133 
L 193.309915 74.128424 
L 193.563805 74.128424 
L 193.817696 58.340133 
L 194.071586 70.181336 
L 194.325476 66.234268 
L 194.833257 66.234268 
L 195.087147 74.128424 
L 195.341037 54.393065 
L 195.594927 74.128424 
L 196.102708 74.128424 
L 196.356598 66.234268 
L 196.610488 70.181336 
L 196.864379 62.2872 
L 197.118269 70.181336 
L 197.626049 50.445997 
L 197.87994 66.234268 
L 198.13383 58.340133 
L 198.38772 70.181336 
L 198.64161 58.340133 
L 198.895501 58.340133 
L 199.149391 66.234268 
L 199.403281 58.340133 
L 199.657171 82.022559 
L 199.911062 66.234268 
L 200.164952 62.2872 
L 200.418842 70.181336 
L 200.672732 70.181336 
L 201.180513 62.2872 
L 201.434403 62.2872 
L 201.688293 58.340133 
L 201.942184 58.340133 
L 202.703854 70.181336 
L 202.957745 66.234268 
L 203.211635 58.340133 
L 203.465525 70.181336 
L 203.973306 70.181336 
L 204.227196 66.234268 
L 204.481086 58.340133 
L 204.734976 54.393065 
L 204.988867 62.2872 
L 205.242757 58.340133 
L 205.496647 74.128424 
L 205.750537 62.2872 
L 206.004428 66.234268 
L 206.258318 66.234268 
L 206.512208 70.181336 
L 206.766098 70.181336 
L 207.019989 66.234268 
L 207.273879 78.075492 
L 208.03555 66.234268 
L 208.28944 50.445997 
L 208.54333 70.181336 
L 208.797221 66.234268 
L 209.051111 82.022559 
L 209.305001 78.075492 
L 209.558891 66.234268 
L 210.320562 66.234268 
L 210.574452 62.2872 
L 210.828343 54.393065 
L 211.082233 66.234268 
L 211.336123 62.2872 
L 211.590013 54.393065 
L 211.843904 70.181336 
L 212.097794 58.340133 
L 212.351684 78.075492 
L 212.605574 58.340133 
L 212.859465 66.234268 
L 213.113355 62.2872 
L 213.367245 50.445997 
L 213.621135 62.2872 
L 213.875026 85.969627 
L 214.128916 50.445997 
L 214.382806 66.234268 
L 214.636696 66.234268 
L 214.890587 54.393065 
L 215.144477 70.181336 
L 215.398367 74.128424 
L 215.652257 62.2872 
L 215.906148 66.234268 
L 216.160038 78.075492 
L 216.413928 58.340133 
L 216.667818 62.2872 
L 216.921709 85.969627 
L 217.429489 70.181336 
L 217.683379 66.234268 
L 218.19116 82.022559 
L 218.44505 70.181336 
L 218.69894 78.075492 
L 219.206721 70.181336 
L 219.460611 58.340133 
L 219.714501 70.181336 
L 219.968392 58.340133 
L 220.222282 54.393065 
L 220.476172 70.181336 
L 220.730062 58.340133 
L 220.983953 74.128424 
L 221.237843 58.340133 
L 221.491733 78.075492 
L 221.745623 66.234268 
L 221.999514 74.128424 
L 222.253404 78.075492 
L 222.507294 62.2872 
L 222.761184 70.181336 
L 223.015075 54.393065 
L 223.268965 66.234268 
L 223.522855 58.340133 
L 223.776745 62.2872 
L 224.030636 50.445997 
L 224.284526 54.393065 
L 224.538416 70.181336 
L 224.792307 70.181336 
L 225.046197 82.022559 
L 225.300087 58.340133 
L 225.807868 74.128424 
L 226.061758 70.181336 
L 226.315648 62.2872 
L 226.569538 66.234268 
L 226.823429 62.2872 
L 227.077319 66.234268 
L 227.331209 66.234268 
L 227.585099 74.128424 
L 227.83899 70.181336 
L 228.09288 78.075492 
L 228.60066 70.181336 
L 228.854551 58.340133 
L 229.108441 66.234268 
L 229.362331 70.181336 
L 229.616221 58.340133 
L 229.870112 66.234268 
L 230.124002 58.340133 
L 230.377892 66.234268 
L 230.631782 78.075492 
L 230.885673 66.234268 
L 231.139563 62.2872 
L 231.393453 70.181336 
L 231.647343 74.128424 
L 231.901234 70.181336 
L 232.155124 74.128424 
L 232.409014 62.2872 
L 232.662904 62.2872 
L 232.916795 74.128424 
L 233.170685 62.2872 
L 233.424575 70.181336 
L 233.932356 62.2872 
L 234.440136 62.2872 
L 234.694026 74.128424 
L 234.947917 70.181336 
L 235.201807 70.181336 
L 235.455697 62.2872 
L 235.709587 66.234268 
L 235.963478 62.2872 
L 236.217368 66.234268 
L 236.471258 66.234268 
L 236.725148 58.340133 
L 237.232929 85.969627 
L 237.486819 50.445997 
L 237.740709 66.234268 
L 237.9946 74.128424 
L 238.24849 62.2872 
L 238.50238 70.181336 
L 238.75627 62.2872 
L 239.010161 66.234268 
L 239.264051 78.075492 
L 239.517941 78.075492 
L 239.771831 82.022559 
L 240.025722 62.2872 
L 240.279612 54.393065 
L 240.533502 66.234268 
L 240.787393 70.181336 
L 241.041283 62.2872 
L 241.295173 70.181336 
L 241.549063 66.234268 
L 241.802954 58.340133 
L 242.056844 74.128424 
L 242.310734 62.2872 
L 242.564624 58.340133 
L 242.818515 58.340133 
L 243.072405 74.128424 
L 243.326295 62.2872 
L 243.834076 70.181336 
L 244.087966 54.393065 
L 244.341856 66.234268 
L 244.595746 66.234268 
L 245.103527 74.128424 
L 245.357417 62.2872 
L 245.865198 70.181336 
L 246.119088 54.393065 
L 246.372978 70.181336 
L 246.626868 78.075492 
L 246.880759 62.2872 
L 247.134649 74.128424 
L 247.388539 58.340133 
L 247.642429 74.128424 
L 247.89632 70.181336 
L 248.15021 62.2872 
L 248.4041 78.075492 
L 248.65799 54.393065 
L 248.911881 70.181336 
L 249.165771 66.234268 
L 249.419661 66.234268 
L 249.673551 70.181336 
L 249.927442 66.234268 
L 250.181332 58.340133 
L 250.435222 66.234268 
L 250.689112 66.234268 
L 250.943003 54.393065 
L 251.196893 74.128424 
L 251.450783 62.2872 
L 251.704673 78.075492 
L 251.958564 70.181336 
L 252.212454 58.340133 
L 252.466344 66.234268 
L 252.974125 74.128424 
L 253.228015 66.234268 
L 253.481905 62.2872 
L 253.735795 70.181336 
L 253.989686 66.234268 
L 254.243576 58.340133 
L 254.497466 82.022559 
L 254.751356 70.181336 
L 255.005247 74.128424 
L 255.259137 66.234268 
L 255.513027 66.234268 
L 255.766917 50.445997 
L 256.020808 78.075492 
L 256.274698 66.234268 
L 256.528588 62.2872 
L 256.782479 66.234268 
L 257.036369 62.2872 
L 257.290259 70.181336 
L 257.544149 58.340133 
L 257.79804 78.075492 
L 258.05193 66.234268 
L 258.30582 70.181336 
L 258.55971 58.340133 
L 259.067491 66.234268 
L 259.321381 58.340133 
L 259.575271 66.234268 
L 259.829162 70.181336 
L 260.083052 66.234268 
L 260.336942 66.234268 
L 260.590832 58.340133 
L 260.844723 66.234268 
L 261.098613 54.393065 
L 261.606393 70.181336 
L 261.860284 66.234268 
L 262.114174 50.445997 
L 262.368064 78.075492 
L 262.621954 70.181336 
L 262.875845 74.128424 
L 263.129735 66.234268 
L 263.383625 78.075492 
L 263.637515 70.181336 
L 264.145296 62.2872 
L 264.399186 62.2872 
L 264.653076 66.234268 
L 264.906967 62.2872 
L 265.160857 82.022559 
L 265.414747 70.181336 
L 265.668637 66.234268 
L 266.176418 66.234268 
L 266.430308 74.128424 
L 266.684198 62.2872 
L 266.938089 58.340133 
L 267.191979 50.445997 
L 267.445869 70.181336 
L 267.699759 62.2872 
L 268.969211 62.2872 
L 269.223101 70.181336 
L 269.730881 70.181336 
L 269.984772 62.2872 
L 270.492552 62.2872 
L 270.746442 66.234268 
L 271.000333 74.128424 
L 271.508113 54.393065 
L 271.762003 58.340133 
L 272.015894 58.340133 
L 272.523674 74.128424 
L 272.777564 58.340133 
L 273.031455 66.234268 
L 273.539235 66.234268 
L 273.793126 74.128424 
L 274.047016 74.128424 
L 274.554796 66.234268 
L 274.808687 54.393065 
L 275.062577 62.2872 
L 275.316467 66.234268 
L 275.570357 74.128424 
L 276.332028 62.2872 
L 276.839809 70.181336 
L 277.093699 62.2872 
L 277.347589 66.234268 
L 277.601479 66.234268 
L 278.10926 58.340133 
L 278.36315 66.234268 
L 278.870931 74.128424 
L 279.124821 70.181336 
L 279.378711 70.181336 
L 279.632601 74.128424 
L 279.886492 74.128424 
L 280.140382 66.234268 
L 280.394272 62.2872 
L 280.648162 74.128424 
L 280.902053 62.2872 
L 281.155943 70.181336 
L 281.663723 62.2872 
L 281.917614 70.181336 
L 282.171504 70.181336 
L 282.425394 58.340133 
L 282.679284 62.2872 
L 282.933175 70.181336 
L 283.187065 66.234268 
L 283.440955 58.340133 
L 283.694845 78.075492 
L 283.948736 54.393065 
L 284.202626 70.181336 
L 284.456516 70.181336 
L 284.710406 74.128424 
L 284.964297 58.340133 
L 285.218187 58.340133 
L 285.472077 62.2872 
L 285.725967 58.340133 
L 285.979858 74.128424 
L 286.233748 66.234268 
L 286.487638 66.234268 
L 286.995419 58.340133 
L 287.503199 66.234268 
L 287.757089 58.340133 
L 288.01098 78.075492 
L 288.26487 62.2872 
L 288.51876 70.181336 
L 288.77265 62.2872 
L 289.026541 62.2872 
L 289.280431 66.234268 
L 289.534321 66.234268 
L 289.788212 62.2872 
L 290.042102 66.234268 
L 290.295992 74.128424 
L 290.803773 66.234268 
L 291.311553 66.234268 
L 291.565443 70.181336 
L 291.819334 66.234268 
L 292.073224 66.234268 
L 292.327114 54.393065 
L 292.581004 62.2872 
L 293.088785 62.2872 
L 293.342675 66.234268 
L 293.596565 78.075492 
L 293.850456 62.2872 
L 294.104346 78.075492 
L 294.358236 58.340133 
L 294.612126 66.234268 
L 294.866017 54.393065 
L 295.119907 74.128424 
L 295.627687 66.234268 
L 295.881578 66.234268 
L 296.135468 74.128424 
L 296.389358 66.234268 
L 296.643248 74.128424 
L 296.897139 62.2872 
L 297.151029 70.181336 
L 297.404919 66.234268 
L 297.658809 78.075492 
L 297.9127 74.128424 
L 298.16659 66.234268 
L 298.42048 70.181336 
L 298.67437 62.2872 
L 298.928261 70.181336 
L 299.182151 58.340133 
L 299.436041 58.340133 
L 299.689931 78.075492 
L 299.943822 70.181336 
L 300.197712 70.181336 
L 300.451602 66.234268 
L 300.705492 58.340133 
L 300.959383 78.075492 
L 301.213273 74.128424 
L 301.467163 62.2872 
L 301.721053 70.181336 
L 301.974944 54.393065 
L 302.228834 62.2872 
L 302.482724 62.2872 
L 302.736614 66.234268 
L 302.990505 58.340133 
L 303.244395 62.2872 
L 303.498285 54.393065 
L 303.752175 66.234268 
L 304.006066 70.181336 
L 304.259956 70.181336 
L 304.767736 62.2872 
L 305.021627 66.234268 
L 305.275517 74.128424 
L 305.529407 66.234268 
L 305.783298 70.181336 
L 306.037188 62.2872 
L 306.291078 62.2872 
L 306.544968 58.340133 
L 306.798859 70.181336 
L 307.052749 66.234268 
L 307.306639 66.234268 
L 307.560529 70.181336 
L 307.81442 66.234268 
L 308.06831 82.022559 
L 308.3222 62.2872 
L 308.829981 70.181336 
L 309.083871 66.234268 
L 309.337761 66.234268 
L 309.845542 74.128424 
L 310.099432 62.2872 
L 310.099432 62.2872 
" clip-path="url(#p5ca353492d)" style="fill: none; stroke: #0000ff; stroke-width: 0.6; stroke-linecap: square"/>
   </g>
   <g id="line2d_26">
    <path d="M 56.463068 230.557091 
L 56.716958 230.557091 
L 57.224739 148.291806 
L 57.478629 184.854157 
L 57.732519 193.99475 
L 60.525312 193.99475 
L 60.779202 184.854157 
L 61.033093 193.99475 
L 61.286983 193.99475 
L 61.540873 212.275915 
L 61.794764 212.275915 
L 62.048654 221.416498 
L 62.302544 212.275915 
L 62.556434 212.275915 
L 62.810325 221.416498 
L 63.064215 221.416498 
L 63.318105 212.275915 
L 64.587556 212.275915 
L 64.841447 203.135322 
L 66.110898 203.135322 
L 66.364788 221.416498 
L 67.126459 221.416498 
L 67.380349 212.275915 
L 67.88813 212.275915 
L 68.39591 230.557091 
L 69.411471 230.557091 
L 69.665361 221.416498 
L 70.680922 221.416498 
L 70.934813 212.275915 
L 73.727605 212.275915 
L 74.235386 193.99475 
L 74.489276 203.135322 
L 74.997057 203.135322 
L 75.250947 212.275915 
L 75.504837 203.135322 
L 76.520398 203.135322 
L 76.774288 193.99475 
L 77.028179 193.99475 
L 77.282069 184.854157 
L 77.535959 184.854157 
L 77.78985 193.99475 
L 78.04374 193.99475 
L 78.29763 184.854157 
L 78.55152 193.99475 
L 78.805411 193.99475 
L 79.059301 203.135322 
L 79.313191 193.99475 
L 80.328752 193.99475 
L 80.582642 203.135322 
L 80.836533 221.416498 
L 81.090423 193.99475 
L 81.598203 193.99475 
L 81.852094 184.854157 
L 82.105984 193.99475 
L 82.359874 184.854157 
L 82.613764 193.99475 
L 82.867655 193.99475 
L 83.121545 212.275915 
L 83.375435 212.275915 
L 83.629325 203.135322 
L 84.137106 203.135322 
L 84.390996 184.854157 
L 84.644886 203.135322 
L 85.152667 203.135322 
L 85.406557 212.275915 
L 85.660447 193.99475 
L 85.914338 193.99475 
L 86.168228 175.713564 
L 86.422118 175.713564 
L 86.676008 193.99475 
L 87.183789 193.99475 
L 87.437679 203.135322 
L 87.691569 166.572992 
L 87.94546 175.713564 
L 88.19935 203.135322 
L 88.45324 212.275915 
L 88.70713 212.275915 
L 88.961021 184.854157 
L 89.722691 184.854157 
L 89.976582 166.572992 
L 90.484362 166.572992 
L 90.738252 184.854157 
L 90.992143 193.99475 
L 91.246033 175.713564 
L 91.499923 175.713564 
L 92.007704 157.432399 
L 93.023265 157.432399 
L 93.277155 175.713564 
L 93.784936 157.432399 
L 94.038826 157.432399 
L 94.292716 175.713564 
L 94.800497 193.99475 
L 95.054387 166.572992 
L 95.562167 166.572992 
L 95.816058 157.432399 
L 96.069948 157.432399 
L 96.323838 148.291806 
L 96.577728 166.572992 
L 96.831619 157.432399 
L 97.085509 175.713564 
L 97.339399 175.713564 
L 97.593289 166.572992 
L 97.84718 166.572992 
L 98.10107 157.432399 
L 98.60885 157.432399 
L 98.862741 166.572992 
L 99.370521 166.572992 
L 99.624411 157.432399 
L 99.878302 166.572992 
L 100.132192 157.432399 
L 100.386082 157.432399 
L 100.639972 148.291806 
L 100.893863 157.432399 
L 101.147753 148.291806 
L 101.401643 166.572992 
L 101.655533 157.432399 
L 101.909424 166.572992 
L 102.417204 148.291806 
L 102.671094 166.572992 
L 102.924985 157.432399 
L 103.686655 157.432399 
L 103.940546 166.572992 
L 104.194436 157.432399 
L 104.956107 157.432399 
L 105.209997 166.572992 
L 105.463887 166.572992 
L 105.717777 157.432399 
L 105.971668 175.713564 
L 106.479448 175.713564 
L 106.733338 166.572992 
L 107.241119 166.572992 
L 107.495009 157.432399 
L 107.748899 166.572992 
L 108.00279 148.291806 
L 108.25668 166.572992 
L 108.51057 175.713564 
L 108.76446 166.572992 
L 109.018351 175.713564 
L 109.526131 157.432399 
L 110.287802 157.432399 
L 110.541692 148.291806 
L 111.049473 148.291806 
L 111.303363 157.432399 
L 111.557253 157.432399 
L 111.811144 166.572992 
L 112.318924 166.572992 
L 112.572814 157.432399 
L 112.826705 157.432399 
L 113.080595 139.151234 
L 113.334485 130.010641 
L 113.842266 148.291806 
L 114.096156 148.291806 
L 114.350046 157.432399 
L 114.603936 157.432399 
L 114.857827 139.151234 
L 115.111717 157.432399 
L 115.365607 148.291806 
L 115.619497 148.291806 
L 115.873388 157.432399 
L 116.127278 148.291806 
L 116.381168 157.432399 
L 116.635058 148.291806 
L 116.888949 148.291806 
L 117.142839 157.432399 
L 117.396729 139.151234 
L 118.66618 139.151234 
L 118.920071 148.291806 
L 119.173961 139.151234 
L 119.427851 157.432399 
L 119.681741 148.291806 
L 120.189522 148.291806 
L 120.443412 139.151234 
L 120.697302 148.291806 
L 121.712863 148.291806 
L 121.966754 157.432399 
L 123.236205 157.432399 
L 123.490095 139.151234 
L 123.743985 130.010641 
L 123.997876 130.010641 
L 124.251766 157.432399 
L 124.505656 148.291806 
L 127.80623 148.291806 
L 128.06012 139.151234 
L 130.345132 139.151234 
L 130.599022 148.291806 
L 130.852913 148.291806 
L 131.106803 139.151234 
L 131.360693 148.291806 
L 131.614583 139.151234 
L 131.868474 139.151234 
L 132.122364 148.291806 
L 132.376254 139.151234 
L 134.661266 139.151234 
L 134.915157 148.291806 
L 141.516303 148.291806 
L 141.770193 139.151234 
L 143.293535 139.151234 
L 143.547425 148.291806 
L 147.355779 148.291806 
L 147.609669 139.151234 
L 152.179694 139.151234 
L 152.433584 148.291806 
L 152.687474 148.291806 
L 152.941365 139.151234 
L 154.972487 139.151234 
L 155.226377 148.291806 
L 157.511389 148.291806 
L 157.765279 139.151234 
L 158.01917 139.151234 
L 158.27306 148.291806 
L 159.034731 148.291806 
L 159.288621 139.151234 
L 159.542511 139.151234 
L 159.796402 130.010641 
L 162.843085 130.010641 
L 163.096975 139.151234 
L 168.42867 139.151234 
L 168.68256 130.010641 
L 169.952012 130.010641 
L 170.205902 139.151234 
L 173.760365 139.151234 
L 174.014256 148.291806 
L 174.268146 148.291806 
L 174.522036 139.151234 
L 175.537597 139.151234 
L 175.791488 148.291806 
L 176.045378 148.291806 
L 176.299268 139.151234 
L 204.227196 139.151234 
L 204.481086 148.291806 
L 204.734976 148.291806 
L 204.988867 139.151234 
L 213.621135 139.151234 
L 213.875026 148.291806 
L 217.683379 148.291806 
L 217.93727 139.151234 
L 310.099432 139.151234 
L 310.099432 139.151234 
" clip-path="url(#p5ca353492d)" style="fill: none; stroke: #ff0000; stroke-width: 0.6; stroke-linecap: square"/>
   </g>
   <g id="patch_3">
    <path d="M 43.78125 239.76 
L 43.78125 37.296 
" style="fill: none; stroke: #000000; stroke-width: 0.8; stroke-linejoin: miter; stroke-linecap: square"/>
   </g>
   <g id="patch_4">
    <path d="M 322.78125 239.76 
L 322.78125 37.296 
" style="fill: none; stroke: #000000; stroke-width: 0.8; stroke-linejoin: miter; stroke-linecap: square"/>
   </g>
   <g id="patch_5">
    <path d="M 43.78125 239.76 
L 322.78125 239.76 
" style="fill: none; stroke: #000000; stroke-width: 0.8; stroke-linejoin: miter; stroke-linecap: square"/>
   </g>
   <g id="patch_6">
    <path d="M 43.78125 37.296 
L 322.78125 37.296 
" style="fill: none; stroke: #000000; stroke-width: 0.8; stroke-linejoin: miter; stroke-linecap: square"/>
   </g>
   <g id="text_15">
    <!-- Baseline Model -->
    <g transform="translate(149.259844 31.296) scale(0.09 -0.09)">
     <defs>
      <path id="DejaVuSans-42" d="M 1259 2228 
L 1259 519 
L 2272 519 
Q 2781 519 3026 730 
Q 3272 941 3272 1375 
Q 3272 1813 3026 2020 
Q 2781 2228 2272 2228 
L 1259 2228 
z
M 1259 4147 
L 1259 2741 
L 2194 2741 
Q 2656 2741 2882 2914 
Q 3109 3088 3109 3444 
Q 3109 3797 2882 3972 
Q 2656 4147 2194 4147 
L 1259 4147 
z
M 628 4666 
L 2241 4666 
Q 2963 4666 3353 4366 
Q 3744 4066 3744 3513 
Q 3744 3084 3544 2831 
Q 3344 2578 2956 2516 
Q 3422 2416 3680 2098 
Q 3938 1781 3938 1306 
Q 3938 681 3513 340 
Q 3088 0 2303 0 
L 628 0 
L 628 4666 
z
" transform="scale(0.015625)"/>
      <path id="DejaVuSans-65" d="M 3597 1894 
L 3597 1613 
L 953 1613 
Q 991 1019 1311 708 
Q 1631 397 2203 397 
Q 2534 397 2845 478 
Q 3156 559 3463 722 
L 3463 178 
Q 3153 47 2828 -22 
Q 2503 -91 2169 -91 
Q 1331 -91 842 396 
Q 353 884 353 1716 
Q 353 2575 817 3079 
Q 1281 3584 2069 3584 
Q 2775 3584 3186 3129 
Q 3597 2675 3597 1894 
z
M 3022 2063 
Q 3016 2534 2758 2815 
Q 2500 3097 2075 3097 
Q 1594 3097 1305 2825 
Q 1016 2553 972 2059 
L 3022 2063 
z
" transform="scale(0.015625)"/>
      <path id="DejaVuSans-6c" d="M 603 4863 
L 1178 4863 
L 1178 0 
L 603 0 
L 603 4863 
z
" transform="scale(0.015625)"/>
      <path id="DejaVuSans-69" d="M 603 3500 
L 1178 3500 
L 1178 0 
L 603 0 
L 603 3500 
z
M 603 4863 
L 1178 4863 
L 1178 4134 
L 603 4134 
L 603 4863 
z
" transform="scale(0.015625)"/>
      <path id="DejaVuSans-6e" d="M 3513 2113 
L 3513 0 
L 2938 0 
L 2938 2094 
Q 2938 2591 2744 2837 
Q 2550 3084 2163 3084 
Q 1697 3084 1428 2787 
Q 1159 2491 1159 1978 
L 1159 0 
L 581 0 
L 581 3500 
L 1159 3500 
L 1159 2956 
Q 1366 3272 1645 3428 
Q 1925 3584 2291 3584 
Q 2894 3584 3203 3211 
Q 3513 2838 3513 2113 
z
" transform="scale(0.015625)"/>
      <path id="DejaVuSans-20" transform="scale(0.015625)"/>
      <path id="DejaVuSans-4d" d="M 628 4666 
L 1569 4666 
L 2759 1491 
L 3956 4666 
L 4897 4666 
L 4897 0 
L 4281 0 
L 4281 4097 
L 3078 897 
L 2444 897 
L 1241 4097 
L 1241 0 
L 628 0 
L 628 4666 
z
" transform="scale(0.015625)"/>
      <path id="DejaVuSans-64" d="M 2906 2969 
L 2906 4863 
L 3481 4863 
L 3481 0 
L 2906 0 
L 2906 525 
Q 2725 213 2448 61 
Q 2172 -91 1784 -91 
Q 1150 -91 751 415 
Q 353 922 353 1747 
Q 353 2572 751 3078 
Q 1150 3584 1784 3584 
Q 2172 3584 2448 3432 
Q 2725 3281 2906 2969 
z
M 947 1747 
Q 947 1113 1208 752 
Q 1469 391 1925 391 
Q 2381 391 2643 752 
Q 2906 1113 2906 1747 
Q 2906 2381 2643 2742 
Q 2381 3103 1925 3103 
Q 1469 3103 1208 2742 
Q 947 2381 947 1747 
z
" transform="scale(0.015625)"/>
     </defs>
     <use xlink:href="#DejaVuSans-42"/>
     <use xlink:href="#DejaVuSans-61" x="68.603516"/>
     <use xlink:href="#DejaVuSans-73" x="129.882812"/>
     <use xlink:href="#DejaVuSans-65" x="181.982422"/>
     <use xlink:href="#DejaVuSans-6c" x="243.505859"/>
     <use xlink:href="#DejaVuSans-69" x="271.289062"/>
     <use xlink:href="#DejaVuSans-6e" x="299.072266"/>
     <use xlink:href="#DejaVuSans-65" x="362.451172"/>
     <use xlink:href="#DejaVuSans-20" x="423.974609"/>
     <use xlink:href="#DejaVuSans-4d" x="455.761719"/>
     <use xlink:href="#DejaVuSans-6f" x="542.041016"/>
     <use xlink:href="#DejaVuSans-64" x="603.222656"/>
     <use xlink:href="#DejaVuSans-65" x="666.699219"/>
     <use xlink:href="#DejaVuSans-6c" x="728.222656"/>
    </g>
   </g>
   <g id="legend_1">
    <g id="patch_7">
     <path d="M 185.565625 234.76 
L 315.78125 234.76 
Q 317.78125 234.76 317.78125 232.76 
L 317.78125 204.40375 
Q 317.78125 202.40375 315.78125 202.40375 
L 185.565625 202.40375 
Q 183.565625 202.40375 183.565625 204.40375 
L 183.565625 232.76 
Q 183.565625 234.76 185.565625 234.76 
z
" style="fill: #ffffff; opacity: 0.8; stroke: #cccccc; stroke-linejoin: miter"/>
    </g>
    <g id="line2d_27">
     <path d="M 187.565625 210.502187 
L 197.565625 210.502187 
L 207.565625 210.502187 
" style="fill: none; stroke: #0000ff; stroke-width: 0.6; stroke-linecap: square"/>
    </g>
    <g id="text_16">
     <!-- Training Accuracy -->
     <g transform="translate(215.565625 214.002187) scale(0.1 -0.1)">
      <defs>
       <path id="DejaVuSans-54" d="M -19 4666 
L 3928 4666 
L 3928 4134 
L 2272 4134 
L 2272 0 
L 1638 0 
L 1638 4134 
L -19 4134 
L -19 4666 
z
" transform="scale(0.015625)"/>
       <path id="DejaVuSans-67" d="M 2906 1791 
Q 2906 2416 2648 2759 
Q 2391 3103 1925 3103 
Q 1463 3103 1205 2759 
Q 947 2416 947 1791 
Q 947 1169 1205 825 
Q 1463 481 1925 481 
Q 2391 481 2648 825 
Q 2906 1169 2906 1791 
z
M 3481 434 
Q 3481 -459 3084 -895 
Q 2688 -1331 1869 -1331 
Q 1566 -1331 1297 -1286 
Q 1028 -1241 775 -1147 
L 775 -588 
Q 1028 -725 1275 -790 
Q 1522 -856 1778 -856 
Q 2344 -856 2625 -561 
Q 2906 -266 2906 331 
L 2906 616 
Q 2728 306 2450 153 
Q 2172 0 1784 0 
Q 1141 0 747 490 
Q 353 981 353 1791 
Q 353 2603 747 3093 
Q 1141 3584 1784 3584 
Q 2172 3584 2450 3431 
Q 2728 3278 2906 2969 
L 2906 3500 
L 3481 3500 
L 3481 434 
z
" transform="scale(0.015625)"/>
      </defs>
      <use xlink:href="#DejaVuSans-54"/>
      <use xlink:href="#DejaVuSans-72" x="46.333984"/>
      <use xlink:href="#DejaVuSans-61" x="87.447266"/>
      <use xlink:href="#DejaVuSans-69" x="148.726562"/>
      <use xlink:href="#DejaVuSans-6e" x="176.509766"/>
      <use xlink:href="#DejaVuSans-69" x="239.888672"/>
      <use xlink:href="#DejaVuSans-6e" x="267.671875"/>
      <use xlink:href="#DejaVuSans-67" x="331.050781"/>
      <use xlink:href="#DejaVuSans-20" x="394.527344"/>
      <use xlink:href="#DejaVuSans-41" x="426.314453"/>
      <use xlink:href="#DejaVuSans-63" x="492.972656"/>
      <use xlink:href="#DejaVuSans-63" x="547.953125"/>
      <use xlink:href="#DejaVuSans-75" x="602.933594"/>
      <use xlink:href="#DejaVuSans-72" x="666.3125"/>
      <use xlink:href="#DejaVuSans-61" x="707.425781"/>
      <use xlink:href="#DejaVuSans-63" x="768.705078"/>
      <use xlink:href="#DejaVuSans-79" x="823.685547"/>
     </g>
    </g>
    <g id="line2d_28">
     <path d="M 187.565625 225.180312 
L 197.565625 225.180312 
L 207.565625 225.180312 
" style="fill: none; stroke: #ff0000; stroke-width: 0.6; stroke-linecap: square"/>
    </g>
    <g id="text_17">
     <!-- Validation Accuracy -->
     <g transform="translate(215.565625 228.680312) scale(0.1 -0.1)">
      <defs>
       <path id="DejaVuSans-56" d="M 1831 0 
L 50 4666 
L 709 4666 
L 2188 738 
L 3669 4666 
L 4325 4666 
L 2547 0 
L 1831 0 
z
" transform="scale(0.015625)"/>
       <path id="DejaVuSans-74" d="M 1172 4494 
L 1172 3500 
L 2356 3500 
L 2356 3053 
L 1172 3053 
L 1172 1153 
Q 1172 725 1289 603 
Q 1406 481 1766 481 
L 2356 481 
L 2356 0 
L 1766 0 
Q 1100 0 847 248 
Q 594 497 594 1153 
L 594 3053 
L 172 3053 
L 172 3500 
L 594 3500 
L 594 4494 
L 1172 4494 
z
" transform="scale(0.015625)"/>
      </defs>
      <use xlink:href="#DejaVuSans-56"/>
      <use xlink:href="#DejaVuSans-61" x="60.658203"/>
      <use xlink:href="#DejaVuSans-6c" x="121.9375"/>
      <use xlink:href="#DejaVuSans-69" x="149.720703"/>
      <use xlink:href="#DejaVuSans-64" x="177.503906"/>
      <use xlink:href="#DejaVuSans-61" x="240.980469"/>
      <use xlink:href="#DejaVuSans-74" x="302.259766"/>
      <use xlink:href="#DejaVuSans-69" x="341.46875"/>
      <use xlink:href="#DejaVuSans-6f" x="369.251953"/>
      <use xlink:href="#DejaVuSans-6e" x="430.433594"/>
      <use xlink:href="#DejaVuSans-20" x="493.8125"/>
      <use xlink:href="#DejaVuSans-41" x="525.599609"/>
      <use xlink:href="#DejaVuSans-63" x="592.257812"/>
      <use xlink:href="#DejaVuSans-63" x="647.238281"/>
      <use xlink:href="#DejaVuSans-75" x="702.21875"/>
      <use xlink:href="#DejaVuSans-72" x="765.597656"/>
      <use xlink:href="#DejaVuSans-61" x="806.710938"/>
      <use xlink:href="#DejaVuSans-63" x="867.990234"/>
      <use xlink:href="#DejaVuSans-79" x="922.970703"/>
     </g>
    </g>
   </g>
  </g>
  <g id="text_18">
   <!-- Training VS. Validation Accuracy - Dataset Size = 2.5% -->
   <g transform="translate(28.432734 15.558281) scale(0.11 -0.11)">
    <defs>
     <path id="DejaVuSans-53" d="M 3425 4513 
L 3425 3897 
Q 3066 4069 2747 4153 
Q 2428 4238 2131 4238 
Q 1616 4238 1336 4038 
Q 1056 3838 1056 3469 
Q 1056 3159 1242 3001 
Q 1428 2844 1947 2747 
L 2328 2669 
Q 3034 2534 3370 2195 
Q 3706 1856 3706 1288 
Q 3706 609 3251 259 
Q 2797 -91 1919 -91 
Q 1588 -91 1214 -16 
Q 841 59 441 206 
L 441 856 
Q 825 641 1194 531 
Q 1563 422 1919 422 
Q 2459 422 2753 634 
Q 3047 847 3047 1241 
Q 3047 1584 2836 1778 
Q 2625 1972 2144 2069 
L 1759 2144 
Q 1053 2284 737 2584 
Q 422 2884 422 3419 
Q 422 4038 858 4394 
Q 1294 4750 2059 4750 
Q 2388 4750 2728 4690 
Q 3069 4631 3425 4513 
z
" transform="scale(0.015625)"/>
     <path id="DejaVuSans-2d" d="M 313 2009 
L 1997 2009 
L 1997 1497 
L 313 1497 
L 313 2009 
z
" transform="scale(0.015625)"/>
     <path id="DejaVuSans-44" d="M 1259 4147 
L 1259 519 
L 2022 519 
Q 2988 519 3436 956 
Q 3884 1394 3884 2338 
Q 3884 3275 3436 3711 
Q 2988 4147 2022 4147 
L 1259 4147 
z
M 628 4666 
L 1925 4666 
Q 3281 4666 3915 4102 
Q 4550 3538 4550 2338 
Q 4550 1131 3912 565 
Q 3275 0 1925 0 
L 628 0 
L 628 4666 
z
" transform="scale(0.015625)"/>
     <path id="DejaVuSans-7a" d="M 353 3500 
L 3084 3500 
L 3084 2975 
L 922 459 
L 3084 459 
L 3084 0 
L 275 0 
L 275 525 
L 2438 3041 
L 353 3041 
L 353 3500 
z
" transform="scale(0.015625)"/>
     <path id="DejaVuSans-3d" d="M 678 2906 
L 4684 2906 
L 4684 2381 
L 678 2381 
L 678 2906 
z
M 678 1631 
L 4684 1631 
L 4684 1100 
L 678 1100 
L 678 1631 
z
" transform="scale(0.015625)"/>
     <path id="DejaVuSans-25" d="M 4653 2053 
Q 4381 2053 4226 1822 
Q 4072 1591 4072 1178 
Q 4072 772 4226 539 
Q 4381 306 4653 306 
Q 4919 306 5073 539 
Q 5228 772 5228 1178 
Q 5228 1588 5073 1820 
Q 4919 2053 4653 2053 
z
M 4653 2450 
Q 5147 2450 5437 2106 
Q 5728 1763 5728 1178 
Q 5728 594 5436 251 
Q 5144 -91 4653 -91 
Q 4153 -91 3862 251 
Q 3572 594 3572 1178 
Q 3572 1766 3864 2108 
Q 4156 2450 4653 2450 
z
M 1428 4353 
Q 1159 4353 1004 4120 
Q 850 3888 850 3481 
Q 850 3069 1003 2837 
Q 1156 2606 1428 2606 
Q 1700 2606 1854 2837 
Q 2009 3069 2009 3481 
Q 2009 3884 1853 4118 
Q 1697 4353 1428 4353 
z
M 4250 4750 
L 4750 4750 
L 1831 -91 
L 1331 -91 
L 4250 4750 
z
M 1428 4750 
Q 1922 4750 2215 4408 
Q 2509 4066 2509 3481 
Q 2509 2891 2217 2550 
Q 1925 2209 1428 2209 
Q 931 2209 642 2551 
Q 353 2894 353 3481 
Q 353 4063 643 4406 
Q 934 4750 1428 4750 
z
" transform="scale(0.015625)"/>
    </defs>
    <use xlink:href="#DejaVuSans-54"/>
    <use xlink:href="#DejaVuSans-72" x="46.333984"/>
    <use xlink:href="#DejaVuSans-61" x="87.447266"/>
    <use xlink:href="#DejaVuSans-69" x="148.726562"/>
    <use xlink:href="#DejaVuSans-6e" x="176.509766"/>
    <use xlink:href="#DejaVuSans-69" x="239.888672"/>
    <use xlink:href="#DejaVuSans-6e" x="267.671875"/>
    <use xlink:href="#DejaVuSans-67" x="331.050781"/>
    <use xlink:href="#DejaVuSans-20" x="394.527344"/>
    <use xlink:href="#DejaVuSans-56" x="426.314453"/>
    <use xlink:href="#DejaVuSans-53" x="494.722656"/>
    <use xlink:href="#DejaVuSans-2e" x="558.199219"/>
    <use xlink:href="#DejaVuSans-20" x="589.986328"/>
    <use xlink:href="#DejaVuSans-56" x="621.773438"/>
    <use xlink:href="#DejaVuSans-61" x="682.431641"/>
    <use xlink:href="#DejaVuSans-6c" x="743.710938"/>
    <use xlink:href="#DejaVuSans-69" x="771.494141"/>
    <use xlink:href="#DejaVuSans-64" x="799.277344"/>
    <use xlink:href="#DejaVuSans-61" x="862.753906"/>
    <use xlink:href="#DejaVuSans-74" x="924.033203"/>
    <use xlink:href="#DejaVuSans-69" x="963.242188"/>
    <use xlink:href="#DejaVuSans-6f" x="991.025391"/>
    <use xlink:href="#DejaVuSans-6e" x="1052.207031"/>
    <use xlink:href="#DejaVuSans-20" x="1115.585938"/>
    <use xlink:href="#DejaVuSans-41" x="1147.373047"/>
    <use xlink:href="#DejaVuSans-63" x="1214.03125"/>
    <use xlink:href="#DejaVuSans-63" x="1269.011719"/>
    <use xlink:href="#DejaVuSans-75" x="1323.992188"/>
    <use xlink:href="#DejaVuSans-72" x="1387.371094"/>
    <use xlink:href="#DejaVuSans-61" x="1428.484375"/>
    <use xlink:href="#DejaVuSans-63" x="1489.763672"/>
    <use xlink:href="#DejaVuSans-79" x="1544.744141"/>
    <use xlink:href="#DejaVuSans-20" x="1603.923828"/>
    <use xlink:href="#DejaVuSans-2d" x="1635.710938"/>
    <use xlink:href="#DejaVuSans-20" x="1671.794922"/>
    <use xlink:href="#DejaVuSans-44" x="1703.582031"/>
    <use xlink:href="#DejaVuSans-61" x="1780.583984"/>
    <use xlink:href="#DejaVuSans-74" x="1841.863281"/>
    <use xlink:href="#DejaVuSans-61" x="1881.072266"/>
    <use xlink:href="#DejaVuSans-73" x="1942.351562"/>
    <use xlink:href="#DejaVuSans-65" x="1994.451172"/>
    <use xlink:href="#DejaVuSans-74" x="2055.974609"/>
    <use xlink:href="#DejaVuSans-20" x="2095.183594"/>
    <use xlink:href="#DejaVuSans-53" x="2126.970703"/>
    <use xlink:href="#DejaVuSans-69" x="2190.447266"/>
    <use xlink:href="#DejaVuSans-7a" x="2218.230469"/>
    <use xlink:href="#DejaVuSans-65" x="2270.720703"/>
    <use xlink:href="#DejaVuSans-20" x="2332.244141"/>
    <use xlink:href="#DejaVuSans-3d" x="2364.03125"/>
    <use xlink:href="#DejaVuSans-20" x="2447.820312"/>
    <use xlink:href="#DejaVuSans-32" x="2479.607422"/>
    <use xlink:href="#DejaVuSans-2e" x="2543.230469"/>
    <use xlink:href="#DejaVuSans-35" x="2575.017578"/>
    <use xlink:href="#DejaVuSans-25" x="2638.640625"/>
   </g>
  </g>
 </g>
 <defs>
  <clipPath id="p5ca353492d">
   <rect x="43.78125" y="37.296" width="279" height="202.464"/>
  </clipPath>
 </defs>
</svg>
