<?xml version="1.0" encoding="utf-8" standalone="no"?>
<!DOCTYPE svg PUBLIC "-//W3C//DTD SVG 1.1//EN"
  "http://www.w3.org/Graphics/SVG/1.1/DTD/svg11.dtd">
<svg xmlns:xlink="http://www.w3.org/1999/xlink" width="343.328516pt" height="277.31625pt" viewBox="0 0 343.328516 277.31625" xmlns="http://www.w3.org/2000/svg" version="1.1">
 <metadata>
  <rdf:RDF xmlns:dc="http://purl.org/dc/elements/1.1/" xmlns:cc="http://creativecommons.org/ns#" xmlns:rdf="http://www.w3.org/1999/02/22-rdf-syntax-ns#">
   <cc:Work>
    <dc:type rdf:resource="http://purl.org/dc/dcmitype/StillImage"/>
    <dc:date>2026-06-11T11:21:30.527174</dc:date>
    <dc:format>image/svg+xml</dc:format>
    <dc:creator>
     <cc:Agent>
      <dc:title>Matplotlib v3.8.4, https://matplotlib.org/</dc:title>
     </cc:Agent>
    </dc:creator>
   </cc:Work>
  </rdf:RDF>
 </metadata>
 <defs>
  <style type="text/css">*{stroke-linejoin: round; stroke-linecap: butt}</style>
 </defs>
 <g id="figure_1">
  <g id="patch_1">
   <path d="M 0 277.31625 
L 343.328516 277.31625 
L 343.328516 0 
L 0 0 
z
" style="fill: #ffffff"/>
  </g>
  <g id="axes_1">
   <g id="patch_2">
    <path d="M 43.78125 239.76 
L 322.78125 239.76 
L 322.78125 37.296 
L 43.78125 37.296 
z
" style="fill: #ffffff"/>
   </g>
   <g id="matplotlib.axis_1">
    <g id="xtick_1">
     <g id="line2d_1">
      <path d="M 56.209178 239.76 
L 56.209178 37.296 
" clip-path="url(#p1f538cdae9)" style="fill: none; stroke-dasharray: 2.96,1.28; stroke-dashoffset: 0; stroke: #b0b0b0; stroke-opacity: 0.4; stroke-width: 0.8"/>
     </g>
     <g id="line2d_2">
      <defs>
       <path id="m6ffcde4d39" d="M 0 0 
L 0 3.5 
" style="stroke: #000000; stroke-width: 0.8"/>
      </defs>
      <g>
       <use xlink:href="#m6ffcde4d39" x="56.209178" y="239.76" style="stroke: #000000; stroke-width: 0.8"/>
      </g>
     </g>
     <g id="text_1">
      <!-- 0 -->
      <g transform="translate(53.027928 254.358437) scale(0.1 -0.1)">
       <defs>
        <path id="DejaVuSans-30" d="M 2034 4250 
Q 1547 4250 1301 3770 
Q 1056 3291 1056 2328 
Q 1056 1369 1301 889 
Q 1547 409 2034 409 
Q 2525 409 2770 889 
Q 3016 1369 3016 2328 
Q 3016 3291 2770 3770 
Q 2525 4250 2034 4250 
z
M 2034 4750 
Q 2819 4750 3233 4129 
Q 3647 3509 3647 2328 
Q 3647 1150 3233 529 
Q 2819 -91 2034 -91 
Q 1250 -91 836 529 
Q 422 1150 422 2328 
Q 422 3509 836 4129 
Q 1250 4750 2034 4750 
z
" transform="scale(0.015625)"/>
       </defs>
       <use xlink:href="#DejaVuSans-30"/>
      </g>
     </g>
    </g>
    <g id="xtick_2">
     <g id="line2d_3">
      <path d="M 106.987229 239.76 
L 106.987229 37.296 
" clip-path="url(#p1f538cdae9)" style="fill: none; stroke-dasharray: 2.96,1.28; stroke-dashoffset: 0; stroke: #b0b0b0; stroke-opacity: 0.4; stroke-width: 0.8"/>
     </g>
     <g id="line2d_4">
      <g>
       <use xlink:href="#m6ffcde4d39" x="106.987229" y="239.76" style="stroke: #000000; stroke-width: 0.8"/>
      </g>
     </g>
     <g id="text_2">
      <!-- 200 -->
      <g transform="translate(97.443479 254.358437) scale(0.1 -0.1)">
       <defs>
        <path id="DejaVuSans-32" d="M 1228 531 
L 3431 531 
L 3431 0 
L 469 0 
L 469 531 
Q 828 903 1448 1529 
Q 2069 2156 2228 2338 
Q 2531 2678 2651 2914 
Q 2772 3150 2772 3378 
Q 2772 3750 2511 3984 
Q 2250 4219 1831 4219 
Q 1534 4219 1204 4116 
Q 875 4013 500 3803 
L 500 4441 
Q 881 4594 1212 4672 
Q 1544 4750 1819 4750 
Q 2544 4750 2975 4387 
Q 3406 4025 3406 3419 
Q 3406 3131 3298 2873 
Q 3191 2616 2906 2266 
Q 2828 2175 2409 1742 
Q 1991 1309 1228 531 
z
" transform="scale(0.015625)"/>
       </defs>
       <use xlink:href="#DejaVuSans-32"/>
       <use xlink:href="#DejaVuSans-30" x="63.623047"/>
       <use xlink:href="#DejaVuSans-30" x="127.246094"/>
      </g>
     </g>
    </g>
    <g id="xtick_3">
     <g id="line2d_5">
      <path d="M 157.765279 239.76 
L 157.765279 37.296 
" clip-path="url(#p1f538cdae9)" style="fill: none; stroke-dasharray: 2.96,1.28; stroke-dashoffset: 0; stroke: #b0b0b0; stroke-opacity: 0.4; stroke-width: 0.8"/>
     </g>
     <g id="line2d_6">
      <g>
       <use xlink:href="#m6ffcde4d39" x="157.765279" y="239.76" style="stroke: #000000; stroke-width: 0.8"/>
      </g>
     </g>
     <g id="text_3">
      <!-- 400 -->
      <g transform="translate(148.221529 254.358437) scale(0.1 -0.1)">
       <defs>
        <path id="DejaVuSans-34" d="M 2419 4116 
L 825 1625 
L 2419 1625 
L 2419 4116 
z
M 2253 4666 
L 3047 4666 
L 3047 1625 
L 3713 1625 
L 3713 1100 
L 3047 1100 
L 3047 0 
L 2419 0 
L 2419 1100 
L 313 1100 
L 313 1709 
L 2253 4666 
z
" transform="scale(0.015625)"/>
       </defs>
       <use xlink:href="#DejaVuSans-34"/>
       <use xlink:href="#DejaVuSans-30" x="63.623047"/>
       <use xlink:href="#DejaVuSans-30" x="127.246094"/>
      </g>
     </g>
    </g>
    <g id="xtick_4">
     <g id="line2d_7">
      <path d="M 208.54333 239.76 
L 208.54333 37.296 
" clip-path="url(#p1f538cdae9)" style="fill: none; stroke-dasharray: 2.96,1.28; stroke-dashoffset: 0; stroke: #b0b0b0; stroke-opacity: 0.4; stroke-width: 0.8"/>
     </g>
     <g id="line2d_8">
      <g>
       <use xlink:href="#m6ffcde4d39" x="208.54333" y="239.76" style="stroke: #000000; stroke-width: 0.8"/>
      </g>
     </g>
     <g id="text_4">
      <!-- 600 -->
      <g transform="translate(198.99958 254.358437) scale(0.1 -0.1)">
       <defs>
        <path id="DejaVuSans-36" d="M 2113 2584 
Q 1688 2584 1439 2293 
Q 1191 2003 1191 1497 
Q 1191 994 1439 701 
Q 1688 409 2113 409 
Q 2538 409 2786 701 
Q 3034 994 3034 1497 
Q 3034 2003 2786 2293 
Q 2538 2584 2113 2584 
z
M 3366 4563 
L 3366 3988 
Q 3128 4100 2886 4159 
Q 2644 4219 2406 4219 
Q 1781 4219 1451 3797 
Q 1122 3375 1075 2522 
Q 1259 2794 1537 2939 
Q 1816 3084 2150 3084 
Q 2853 3084 3261 2657 
Q 3669 2231 3669 1497 
Q 3669 778 3244 343 
Q 2819 -91 2113 -91 
Q 1303 -91 875 529 
Q 447 1150 447 2328 
Q 447 3434 972 4092 
Q 1497 4750 2381 4750 
Q 2619 4750 2861 4703 
Q 3103 4656 3366 4563 
z
" transform="scale(0.015625)"/>
       </defs>
       <use xlink:href="#DejaVuSans-36"/>
       <use xlink:href="#DejaVuSans-30" x="63.623047"/>
       <use xlink:href="#DejaVuSans-30" x="127.246094"/>
      </g>
     </g>
    </g>
    <g id="xtick_5">
     <g id="line2d_9">
      <path d="M 259.321381 239.76 
L 259.321381 37.296 
" clip-path="url(#p1f538cdae9)" style="fill: none; stroke-dasharray: 2.96,1.28; stroke-dashoffset: 0; stroke: #b0b0b0; stroke-opacity: 0.4; stroke-width: 0.8"/>
     </g>
     <g id="line2d_10">
      <g>
       <use xlink:href="#m6ffcde4d39" x="259.321381" y="239.76" style="stroke: #000000; stroke-width: 0.8"/>
      </g>
     </g>
     <g id="text_5">
      <!-- 800 -->
      <g transform="translate(249.777631 254.358437) scale(0.1 -0.1)">
       <defs>
        <path id="DejaVuSans-38" d="M 2034 2216 
Q 1584 2216 1326 1975 
Q 1069 1734 1069 1313 
Q 1069 891 1326 650 
Q 1584 409 2034 409 
Q 2484 409 2743 651 
Q 3003 894 3003 1313 
Q 3003 1734 2745 1975 
Q 2488 2216 2034 2216 
z
M 1403 2484 
Q 997 2584 770 2862 
Q 544 3141 544 3541 
Q 544 4100 942 4425 
Q 1341 4750 2034 4750 
Q 2731 4750 3128 4425 
Q 3525 4100 3525 3541 
Q 3525 3141 3298 2862 
Q 3072 2584 2669 2484 
Q 3125 2378 3379 2068 
Q 3634 1759 3634 1313 
Q 3634 634 3220 271 
Q 2806 -91 2034 -91 
Q 1263 -91 848 271 
Q 434 634 434 1313 
Q 434 1759 690 2068 
Q 947 2378 1403 2484 
z
M 1172 3481 
Q 1172 3119 1398 2916 
Q 1625 2713 2034 2713 
Q 2441 2713 2670 2916 
Q 2900 3119 2900 3481 
Q 2900 3844 2670 4047 
Q 2441 4250 2034 4250 
Q 1625 4250 1398 4047 
Q 1172 3844 1172 3481 
z
" transform="scale(0.015625)"/>
       </defs>
       <use xlink:href="#DejaVuSans-38"/>
       <use xlink:href="#DejaVuSans-30" x="63.623047"/>
       <use xlink:href="#DejaVuSans-30" x="127.246094"/>
      </g>
     </g>
    </g>
    <g id="xtick_6">
     <g id="line2d_11">
      <path d="M 310.099432 239.76 
L 310.099432 37.296 
" clip-path="url(#p1f538cdae9)" style="fill: none; stroke-dasharray: 2.96,1.28; stroke-dashoffset: 0; stroke: #b0b0b0; stroke-opacity: 0.4; stroke-width: 0.8"/>
     </g>
     <g id="line2d_12">
      <g>
       <use xlink:href="#m6ffcde4d39" x="310.099432" y="239.76" style="stroke: #000000; stroke-width: 0.8"/>
      </g>
     </g>
     <g id="text_6">
      <!-- 1000 -->
      <g transform="translate(297.374432 254.358437) scale(0.1 -0.1)">
       <defs>
        <path id="DejaVuSans-31" d="M 794 531 
L 1825 531 
L 1825 4091 
L 703 3866 
L 703 4441 
L 1819 4666 
L 2450 4666 
L 2450 531 
L 3481 531 
L 3481 0 
L 794 0 
L 794 531 
z
" transform="scale(0.015625)"/>
       </defs>
       <use xlink:href="#DejaVuSans-31"/>
       <use xlink:href="#DejaVuSans-30" x="63.623047"/>
       <use xlink:href="#DejaVuSans-30" x="127.246094"/>
       <use xlink:href="#DejaVuSans-30" x="190.869141"/>
      </g>
     </g>
    </g>
    <g id="text_7">
     <!-- Epochs -->
     <g transform="translate(165.365625 268.036562) scale(0.1 -0.1)">
      <defs>
       <path id="DejaVuSans-45" d="M 628 4666 
L 3578 4666 
L 3578 4134 
L 1259 4134 
L 1259 2753 
L 3481 2753 
L 3481 2222 
L 1259 2222 
L 1259 531 
L 3634 531 
L 3634 0 
L 628 0 
L 628 4666 
z
" transform="scale(0.015625)"/>
       <path id="DejaVuSans-70" d="M 1159 525 
L 1159 -1331 
L 581 -1331 
L 581 3500 
L 1159 3500 
L 1159 2969 
Q 1341 3281 1617 3432 
Q 1894 3584 2278 3584 
Q 2916 3584 3314 3078 
Q 3713 2572 3713 1747 
Q 3713 922 3314 415 
Q 2916 -91 2278 -91 
Q 1894 -91 1617 61 
Q 1341 213 1159 525 
z
M 3116 1747 
Q 3116 2381 2855 2742 
Q 2594 3103 2138 3103 
Q 1681 3103 1420 2742 
Q 1159 2381 1159 1747 
Q 1159 1113 1420 752 
Q 1681 391 2138 391 
Q 2594 391 2855 752 
Q 3116 1113 3116 1747 
z
" transform="scale(0.015625)"/>
       <path id="DejaVuSans-6f" d="M 1959 3097 
Q 1497 3097 1228 2736 
Q 959 2375 959 1747 
Q 959 1119 1226 758 
Q 1494 397 1959 397 
Q 2419 397 2687 759 
Q 2956 1122 2956 1747 
Q 2956 2369 2687 2733 
Q 2419 3097 1959 3097 
z
M 1959 3584 
Q 2709 3584 3137 3096 
Q 3566 2609 3566 1747 
Q 3566 888 3137 398 
Q 2709 -91 1959 -91 
Q 1206 -91 779 398 
Q 353 888 353 1747 
Q 353 2609 779 3096 
Q 1206 3584 1959 3584 
z
" transform="scale(0.015625)"/>
       <path id="DejaVuSans-63" d="M 3122 3366 
L 3122 2828 
Q 2878 2963 2633 3030 
Q 2388 3097 2138 3097 
Q 1578 3097 1268 2742 
Q 959 2388 959 1747 
Q 959 1106 1268 751 
Q 1578 397 2138 397 
Q 2388 397 2633 464 
Q 2878 531 3122 666 
L 3122 134 
Q 2881 22 2623 -34 
Q 2366 -91 2075 -91 
Q 1284 -91 818 406 
Q 353 903 353 1747 
Q 353 2603 823 3093 
Q 1294 3584 2113 3584 
Q 2378 3584 2631 3529 
Q 2884 3475 3122 3366 
z
" transform="scale(0.015625)"/>
       <path id="DejaVuSans-68" d="M 3513 2113 
L 3513 0 
L 2938 0 
L 2938 2094 
Q 2938 2591 2744 2837 
Q 2550 3084 2163 3084 
Q 1697 3084 1428 2787 
Q 1159 2491 1159 1978 
L 1159 0 
L 581 0 
L 581 4863 
L 1159 4863 
L 1159 2956 
Q 1366 3272 1645 3428 
Q 1925 3584 2291 3584 
Q 2894 3584 3203 3211 
Q 3513 2838 3513 2113 
z
" transform="scale(0.015625)"/>
       <path id="DejaVuSans-73" d="M 2834 3397 
L 2834 2853 
Q 2591 2978 2328 3040 
Q 2066 3103 1784 3103 
Q 1356 3103 1142 2972 
Q 928 2841 928 2578 
Q 928 2378 1081 2264 
Q 1234 2150 1697 2047 
L 1894 2003 
Q 2506 1872 2764 1633 
Q 3022 1394 3022 966 
Q 3022 478 2636 193 
Q 2250 -91 1575 -91 
Q 1294 -91 989 -36 
Q 684 19 347 128 
L 347 722 
Q 666 556 975 473 
Q 1284 391 1588 391 
Q 1994 391 2212 530 
Q 2431 669 2431 922 
Q 2431 1156 2273 1281 
Q 2116 1406 1581 1522 
L 1381 1569 
Q 847 1681 609 1914 
Q 372 2147 372 2553 
Q 372 3047 722 3315 
Q 1072 3584 1716 3584 
Q 2034 3584 2315 3537 
Q 2597 3491 2834 3397 
z
" transform="scale(0.015625)"/>
      </defs>
      <use xlink:href="#DejaVuSans-45"/>
      <use xlink:href="#DejaVuSans-70" x="63.183594"/>
      <use xlink:href="#DejaVuSans-6f" x="126.660156"/>
      <use xlink:href="#DejaVuSans-63" x="187.841797"/>
      <use xlink:href="#DejaVuSans-68" x="242.822266"/>
      <use xlink:href="#DejaVuSans-73" x="306.201172"/>
     </g>
    </g>
   </g>
   <g id="matplotlib.axis_2">
    <g id="ytick_1">
     <g id="line2d_13">
      <path d="M 43.78125 234.214578 
L 322.78125 234.214578 
" clip-path="url(#p1f538cdae9)" style="fill: none; stroke-dasharray: 2.96,1.28; stroke-dashoffset: 0; stroke: #b0b0b0; stroke-opacity: 0.4; stroke-width: 0.8"/>
     </g>
     <g id="line2d_14">
      <defs>
       <path id="mda89bc583f" d="M 0 0 
L -3.5 0 
" style="stroke: #000000; stroke-width: 0.8"/>
      </defs>
      <g>
       <use xlink:href="#mda89bc583f" x="43.78125" y="234.214578" style="stroke: #000000; stroke-width: 0.8"/>
      </g>
     </g>
     <g id="text_8">
      <!-- 0.5 -->
      <g transform="translate(20.878125 238.013797) scale(0.1 -0.1)">
       <defs>
        <path id="DejaVuSans-2e" d="M 684 794 
L 1344 794 
L 1344 0 
L 684 0 
L 684 794 
z
" transform="scale(0.015625)"/>
        <path id="DejaVuSans-35" d="M 691 4666 
L 3169 4666 
L 3169 4134 
L 1269 4134 
L 1269 2991 
Q 1406 3038 1543 3061 
Q 1681 3084 1819 3084 
Q 2600 3084 3056 2656 
Q 3513 2228 3513 1497 
Q 3513 744 3044 326 
Q 2575 -91 1722 -91 
Q 1428 -91 1123 -41 
Q 819 9 494 109 
L 494 744 
Q 775 591 1075 516 
Q 1375 441 1709 441 
Q 2250 441 2565 725 
Q 2881 1009 2881 1497 
Q 2881 1984 2565 2268 
Q 2250 2553 1709 2553 
Q 1456 2553 1204 2497 
Q 953 2441 691 2322 
L 691 4666 
z
" transform="scale(0.015625)"/>
       </defs>
       <use xlink:href="#DejaVuSans-30"/>
       <use xlink:href="#DejaVuSans-2e" x="63.623047"/>
       <use xlink:href="#DejaVuSans-35" x="95.410156"/>
      </g>
     </g>
    </g>
    <g id="ytick_2">
     <g id="line2d_15">
      <path d="M 43.78125 196.069031 
L 322.78125 196.069031 
" clip-path="url(#p1f538cdae9)" style="fill: none; stroke-dasharray: 2.96,1.28; stroke-dashoffset: 0; stroke: #b0b0b0; stroke-opacity: 0.4; stroke-width: 0.8"/>
     </g>
     <g id="line2d_16">
      <g>
       <use xlink:href="#mda89bc583f" x="43.78125" y="196.069031" style="stroke: #000000; stroke-width: 0.8"/>
      </g>
     </g>
     <g id="text_9">
      <!-- 0.6 -->
      <g transform="translate(20.878125 199.86825) scale(0.1 -0.1)">
       <use xlink:href="#DejaVuSans-30"/>
       <use xlink:href="#DejaVuSans-2e" x="63.623047"/>
       <use xlink:href="#DejaVuSans-36" x="95.410156"/>
      </g>
     </g>
    </g>
    <g id="ytick_3">
     <g id="line2d_17">
      <path d="M 43.78125 157.923484 
L 322.78125 157.923484 
" clip-path="url(#p1f538cdae9)" style="fill: none; stroke-dasharray: 2.96,1.28; stroke-dashoffset: 0; stroke: #b0b0b0; stroke-opacity: 0.4; stroke-width: 0.8"/>
     </g>
     <g id="line2d_18">
      <g>
       <use xlink:href="#mda89bc583f" x="43.78125" y="157.923484" style="stroke: #000000; stroke-width: 0.8"/>
      </g>
     </g>
     <g id="text_10">
      <!-- 0.7 -->
      <g transform="translate(20.878125 161.722703) scale(0.1 -0.1)">
       <defs>
        <path id="DejaVuSans-37" d="M 525 4666 
L 3525 4666 
L 3525 4397 
L 1831 0 
L 1172 0 
L 2766 4134 
L 525 4134 
L 525 4666 
z
" transform="scale(0.015625)"/>
       </defs>
       <use xlink:href="#DejaVuSans-30"/>
       <use xlink:href="#DejaVuSans-2e" x="63.623047"/>
       <use xlink:href="#DejaVuSans-37" x="95.410156"/>
      </g>
     </g>
    </g>
    <g id="ytick_4">
     <g id="line2d_19">
      <path d="M 43.78125 119.777937 
L 322.78125 119.777937 
" clip-path="url(#p1f538cdae9)" style="fill: none; stroke-dasharray: 2.96,1.28; stroke-dashoffset: 0; stroke: #b0b0b0; stroke-opacity: 0.4; stroke-width: 0.8"/>
     </g>
     <g id="line2d_20">
      <g>
       <use xlink:href="#mda89bc583f" x="43.78125" y="119.777937" style="stroke: #000000; stroke-width: 0.8"/>
      </g>
     </g>
     <g id="text_11">
      <!-- 0.8 -->
      <g transform="translate(20.878125 123.577156) scale(0.1 -0.1)">
       <use xlink:href="#DejaVuSans-30"/>
       <use xlink:href="#DejaVuSans-2e" x="63.623047"/>
       <use xlink:href="#DejaVuSans-38" x="95.410156"/>
      </g>
     </g>
    </g>
    <g id="ytick_5">
     <g id="line2d_21">
      <path d="M 43.78125 81.63239 
L 322.78125 81.63239 
" clip-path="url(#p1f538cdae9)" style="fill: none; stroke-dasharray: 2.96,1.28; stroke-dashoffset: 0; stroke: #b0b0b0; stroke-opacity: 0.4; stroke-width: 0.8"/>
     </g>
     <g id="line2d_22">
      <g>
       <use xlink:href="#mda89bc583f" x="43.78125" y="81.63239" style="stroke: #000000; stroke-width: 0.8"/>
      </g>
     </g>
     <g id="text_12">
      <!-- 0.9 -->
      <g transform="translate(20.878125 85.431609) scale(0.1 -0.1)">
       <defs>
        <path id="DejaVuSans-39" d="M 703 97 
L 703 672 
Q 941 559 1184 500 
Q 1428 441 1663 441 
Q 2288 441 2617 861 
Q 2947 1281 2994 2138 
Q 2813 1869 2534 1725 
Q 2256 1581 1919 1581 
Q 1219 1581 811 2004 
Q 403 2428 403 3163 
Q 403 3881 828 4315 
Q 1253 4750 1959 4750 
Q 2769 4750 3195 4129 
Q 3622 3509 3622 2328 
Q 3622 1225 3098 567 
Q 2575 -91 1691 -91 
Q 1453 -91 1209 -44 
Q 966 3 703 97 
z
M 1959 2075 
Q 2384 2075 2632 2365 
Q 2881 2656 2881 3163 
Q 2881 3666 2632 3958 
Q 2384 4250 1959 4250 
Q 1534 4250 1286 3958 
Q 1038 3666 1038 3163 
Q 1038 2656 1286 2365 
Q 1534 2075 1959 2075 
z
" transform="scale(0.015625)"/>
       </defs>
       <use xlink:href="#DejaVuSans-30"/>
       <use xlink:href="#DejaVuSans-2e" x="63.623047"/>
       <use xlink:href="#DejaVuSans-39" x="95.410156"/>
      </g>
     </g>
    </g>
    <g id="ytick_6">
     <g id="line2d_23">
      <path d="M 43.78125 43.486843 
L 322.78125 43.486843 
" clip-path="url(#p1f538cdae9)" style="fill: none; stroke-dasharray: 2.96,1.28; stroke-dashoffset: 0; stroke: #b0b0b0; stroke-opacity: 0.4; stroke-width: 0.8"/>
     </g>
     <g id="line2d_24">
      <g>
       <use xlink:href="#mda89bc583f" x="43.78125" y="43.486843" style="stroke: #000000; stroke-width: 0.8"/>
      </g>
     </g>
     <g id="text_13">
      <!-- 1.0 -->
      <g transform="translate(20.878125 47.286062) scale(0.1 -0.1)">
       <use xlink:href="#DejaVuSans-31"/>
       <use xlink:href="#DejaVuSans-2e" x="63.623047"/>
       <use xlink:href="#DejaVuSans-30" x="95.410156"/>
      </g>
     </g>
    </g>
    <g id="text_14">
     <!-- Accuracy -->
     <g transform="translate(14.798438 161.356125) rotate(-90) scale(0.1 -0.1)">
      <defs>
       <path id="DejaVuSans-41" d="M 2188 4044 
L 1331 1722 
L 3047 1722 
L 2188 4044 
z
M 1831 4666 
L 2547 4666 
L 4325 0 
L 3669 0 
L 3244 1197 
L 1141 1197 
L 716 0 
L 50 0 
L 1831 4666 
z
" transform="scale(0.015625)"/>
       <path id="DejaVuSans-75" d="M 544 1381 
L 544 3500 
L 1119 3500 
L 1119 1403 
Q 1119 906 1312 657 
Q 1506 409 1894 409 
Q 2359 409 2629 706 
Q 2900 1003 2900 1516 
L 2900 3500 
L 3475 3500 
L 3475 0 
L 2900 0 
L 2900 538 
Q 2691 219 2414 64 
Q 2138 -91 1772 -91 
Q 1169 -91 856 284 
Q 544 659 544 1381 
z
M 1991 3584 
L 1991 3584 
z
" transform="scale(0.015625)"/>
       <path id="DejaVuSans-72" d="M 2631 2963 
Q 2534 3019 2420 3045 
Q 2306 3072 2169 3072 
Q 1681 3072 1420 2755 
Q 1159 2438 1159 1844 
L 1159 0 
L 581 0 
L 581 3500 
L 1159 3500 
L 1159 2956 
Q 1341 3275 1631 3429 
Q 1922 3584 2338 3584 
Q 2397 3584 2469 3576 
Q 2541 3569 2628 3553 
L 2631 2963 
z
" transform="scale(0.015625)"/>
       <path id="DejaVuSans-61" d="M 2194 1759 
Q 1497 1759 1228 1600 
Q 959 1441 959 1056 
Q 959 750 1161 570 
Q 1363 391 1709 391 
Q 2188 391 2477 730 
Q 2766 1069 2766 1631 
L 2766 1759 
L 2194 1759 
z
M 3341 1997 
L 3341 0 
L 2766 0 
L 2766 531 
Q 2569 213 2275 61 
Q 1981 -91 1556 -91 
Q 1019 -91 701 211 
Q 384 513 384 1019 
Q 384 1609 779 1909 
Q 1175 2209 1959 2209 
L 2766 2209 
L 2766 2266 
Q 2766 2663 2505 2880 
Q 2244 3097 1772 3097 
Q 1472 3097 1187 3025 
Q 903 2953 641 2809 
L 641 3341 
Q 956 3463 1253 3523 
Q 1550 3584 1831 3584 
Q 2591 3584 2966 3190 
Q 3341 2797 3341 1997 
z
" transform="scale(0.015625)"/>
       <path id="DejaVuSans-79" d="M 2059 -325 
Q 1816 -950 1584 -1140 
Q 1353 -1331 966 -1331 
L 506 -1331 
L 506 -850 
L 844 -850 
Q 1081 -850 1212 -737 
Q 1344 -625 1503 -206 
L 1606 56 
L 191 3500 
L 800 3500 
L 1894 763 
L 2988 3500 
L 3597 3500 
L 2059 -325 
z
" transform="scale(0.015625)"/>
      </defs>
      <use xlink:href="#DejaVuSans-41"/>
      <use xlink:href="#DejaVuSans-63" x="66.658203"/>
      <use xlink:href="#DejaVuSans-63" x="121.638672"/>
      <use xlink:href="#DejaVuSans-75" x="176.619141"/>
      <use xlink:href="#DejaVuSans-72" x="239.998047"/>
      <use xlink:href="#DejaVuSans-61" x="281.111328"/>
      <use xlink:href="#DejaVuSans-63" x="342.390625"/>
      <use xlink:href="#DejaVuSans-79" x="397.371094"/>
     </g>
    </g>
   </g>
   <g id="line2d_25">
    <path d="M 56.463068 230.557091 
L 56.970849 219.046729 
L 57.478629 188.711007 
L 58.2403 117.712525 
L 58.49419 109.967239 
L 59.255861 102.759808 
L 59.509751 101.899231 
L 60.017532 93.723657 
L 60.271422 101.576509 
L 60.525312 94.691801 
L 60.779202 91.357035 
L 61.033093 92.110046 
L 61.286983 92.432768 
L 61.540873 92.00248 
L 61.794764 86.301071 
L 62.048654 84.579893 
L 62.302544 86.085938 
L 62.556434 83.181438 
L 62.810325 82.75115 
L 63.064215 83.719316 
L 63.318105 83.289028 
L 63.825886 78.448218 
L 64.079776 80.061829 
L 64.587556 77.264919 
L 64.841447 77.264919 
L 65.095337 76.942197 
L 65.349227 74.683142 
L 65.603117 81.998139 
L 65.857008 77.049763 
L 66.110898 75.436153 
L 66.364788 77.049763 
L 66.618678 75.97403 
L 66.872569 76.189163 
L 67.126459 75.758875 
L 67.380349 72.101388 
L 67.634239 73.069554 
L 67.88813 78.77094 
L 68.14202 71.886232 
L 68.39591 74.037698 
L 68.6498 73.069554 
L 68.903691 70.918066 
L 69.157581 69.842333 
L 69.411471 69.6272 
L 69.665361 69.842333 
L 69.919252 71.348377 
L 70.173142 70.380211 
L 70.427032 67.798433 
L 70.680922 69.196888 
L 70.934813 71.993798 
L 71.188703 73.499843 
L 71.442593 68.121156 
L 71.696483 66.615134 
L 71.950374 66.83029 
L 72.204264 68.443878 
L 72.458154 67.690867 
L 72.712044 67.368145 
L 72.965935 68.874189 
L 73.219825 67.368145 
L 73.473715 69.089322 
L 73.981496 64.571235 
L 74.235386 66.292412 
L 74.489276 63.603068 
L 74.743166 67.368145 
L 74.997057 67.475734 
L 75.250947 62.957647 
L 75.504837 65.96969 
L 75.758727 65.216679 
L 76.012618 63.710658 
L 76.266508 65.646968 
L 76.520398 63.603068 
L 76.774288 64.03338 
L 77.028179 66.292412 
L 77.282069 66.722701 
L 77.535959 63.065213 
L 77.78985 64.893957 
L 78.04374 62.097047 
L 78.29763 62.419769 
L 78.55152 61.666758 
L 78.805411 60.268303 
L 79.059301 57.256238 
L 79.313191 57.363827 
L 79.567081 58.224404 
L 79.820972 56.503227 
L 80.328752 58.116838 
L 80.582642 56.503227 
L 81.090423 55.212361 
L 81.344313 57.686549 
L 81.598203 55.104772 
L 81.852094 56.610816 
L 82.105984 57.148671 
L 82.359874 56.288094 
L 82.613764 56.288094 
L 82.867655 58.009248 
L 83.375435 55.319928 
L 83.883216 56.503227 
L 84.137106 56.825949 
L 84.644886 53.276028 
L 84.898777 55.64265 
L 85.152667 56.180505 
L 85.406557 55.319928 
L 85.660447 56.288094 
L 85.914338 55.64265 
L 86.168228 55.64265 
L 86.422118 53.168462 
L 86.676008 56.288094 
L 86.929899 55.212361 
L 87.183789 56.933516 
L 87.437679 56.180505 
L 87.94546 53.813906 
L 88.19935 55.64265 
L 88.45324 54.136606 
L 88.70713 54.459328 
L 88.961021 54.459328 
L 89.214911 56.503227 
L 89.468801 54.997206 
L 89.722691 56.180505 
L 89.976582 53.598751 
L 90.230472 53.276028 
L 90.484362 55.104772 
L 90.738252 54.889639 
L 91.246033 53.168462 
L 91.499923 53.383595 
L 91.753813 51.339696 
L 92.007704 52.523018 
L 92.261594 52.630584 
L 92.515484 52.415451 
L 92.769374 53.706317 
L 93.023265 51.662418 
L 93.277155 50.909407 
L 93.531045 51.662418 
L 93.784936 53.598751 
L 94.038826 52.630584 
L 94.292716 53.060873 
L 94.546606 51.124563 
L 94.800497 52.630584 
L 95.308277 49.833674 
L 95.562167 52.200296 
L 95.816058 52.092729 
L 96.069948 51.770007 
L 96.323838 51.877573 
L 96.577728 52.307862 
L 96.831619 51.877573 
L 97.085509 51.016996 
L 97.339399 51.98514 
L 97.593289 50.801841 
L 98.10107 50.694274 
L 98.35496 51.124563 
L 98.60885 50.479118 
L 98.862741 50.909407 
L 99.116631 50.909407 
L 99.370521 51.232129 
L 99.624411 51.339696 
L 99.878302 51.662418 
L 100.132192 51.232129 
L 100.386082 51.339696 
L 100.639972 51.770007 
L 100.893863 51.447285 
L 101.147753 52.415451 
L 101.401643 51.124563 
L 101.655533 51.339696 
L 101.909424 50.371552 
L 102.163314 51.554851 
L 102.417204 53.813906 
L 102.671094 50.909407 
L 102.924985 50.156396 
L 103.432765 52.84574 
L 103.686655 49.833674 
L 103.940546 51.232129 
L 104.194436 51.124563 
L 104.448326 49.618541 
L 104.702216 49.295819 
L 104.956107 50.156396 
L 105.209997 49.080663 
L 105.463887 49.618541 
L 105.717777 48.650375 
L 105.971668 49.295819 
L 106.225558 50.586685 
L 106.479448 50.479118 
L 106.733338 49.941241 
L 106.987229 51.016996 
L 107.241119 49.618541 
L 107.495009 50.371552 
L 107.748899 49.403386 
L 108.00279 51.98514 
L 108.25668 49.833674 
L 108.51057 49.941241 
L 108.76446 50.694274 
L 109.272241 48.757941 
L 109.526131 49.080663 
L 109.780021 48.650375 
L 110.287802 49.833674 
L 110.541692 49.510952 
L 110.795583 51.016996 
L 111.049473 50.694274 
L 111.303363 49.18823 
L 111.557253 49.403386 
L 111.811144 49.941241 
L 112.065034 49.833674 
L 112.318924 48.757941 
L 112.572814 48.542786 
L 113.334485 50.479118 
L 113.588375 48.542786 
L 113.842266 49.726108 
L 114.096156 49.618541 
L 114.603936 48.865508 
L 115.111717 50.371552 
L 115.365607 50.263963 
L 115.619497 49.18823 
L 115.873388 49.080663 
L 116.127278 50.801841 
L 116.635058 48.435219 
L 116.888949 50.479118 
L 117.396729 48.435219 
L 117.650619 48.112497 
L 117.90451 49.510952 
L 118.1584 49.080663 
L 118.41229 49.510952 
L 118.66618 49.080663 
L 118.920071 48.973097 
L 119.173961 48.112497 
L 119.427851 48.112497 
L 119.681741 47.036764 
L 119.935632 48.650375 
L 120.189522 49.080663 
L 120.443412 48.220086 
L 120.697302 49.18823 
L 120.951193 49.510952 
L 121.205083 50.04883 
L 121.458973 49.941241 
L 121.712863 50.586685 
L 121.966754 48.327653 
L 122.220644 47.574642 
L 122.474534 47.359486 
L 122.728424 49.510952 
L 122.982315 48.757941 
L 123.236205 48.757941 
L 123.490095 46.929198 
L 123.743985 49.080663 
L 123.997876 48.542786 
L 124.251766 49.295819 
L 124.759546 48.435219 
L 125.013437 48.973097 
L 125.521217 49.080663 
L 125.775107 49.18823 
L 126.028998 48.112497 
L 126.282888 48.973097 
L 126.536778 47.897364 
L 126.790669 49.618541 
L 127.044559 48.542786 
L 127.298449 49.080663 
L 127.552339 48.650375 
L 127.80623 48.650375 
L 128.06012 47.144331 
L 128.5679 48.650375 
L 128.821791 48.112497 
L 129.075681 48.650375 
L 129.329571 49.618541 
L 129.583461 48.220086 
L 129.837352 48.757941 
L 130.091242 47.897364 
L 130.345132 48.542786 
L 130.599022 48.327653 
L 130.852913 48.973097 
L 131.106803 47.682208 
L 131.360693 49.080663 
L 131.614583 48.327653 
L 131.868474 48.220086 
L 132.122364 48.542786 
L 132.376254 47.682208 
L 132.630144 48.327653 
L 132.884035 47.25192 
L 133.137925 48.542786 
L 133.391815 48.112497 
L 133.645705 48.757941 
L 134.153486 47.574642 
L 134.915157 49.618541 
L 135.169047 47.574642 
L 135.422937 48.004931 
L 135.676827 47.144331 
L 135.930718 49.618541 
L 136.184608 48.757941 
L 136.438498 48.542786 
L 136.692388 48.757941 
L 136.946279 48.112497 
L 137.200169 47.789775 
L 137.454059 48.112497 
L 137.707949 48.220086 
L 137.96184 47.789775 
L 138.21573 48.220086 
L 138.46962 48.112497 
L 138.72351 49.510952 
L 139.231291 47.467053 
L 139.485181 48.220086 
L 139.739071 48.327653 
L 139.992962 49.080663 
L 140.246852 48.542786 
L 140.754632 48.220086 
L 141.008523 48.327653 
L 141.262413 47.789775 
L 141.516303 47.682208 
L 141.770193 48.650375 
L 142.024084 46.606476 
L 142.531864 49.403386 
L 142.785755 47.574642 
L 143.039645 47.25192 
L 143.293535 48.435219 
L 143.547425 47.789775 
L 143.801316 47.897364 
L 144.055206 47.467053 
L 144.309096 49.080663 
L 144.562986 47.682208 
L 144.816877 49.18823 
L 145.070767 48.542786 
L 145.324657 48.220086 
L 145.578547 48.865508 
L 145.832438 47.574642 
L 146.086328 47.25192 
L 146.340218 47.789775 
L 146.594108 48.973097 
L 146.847999 48.650375 
L 147.101889 48.973097 
L 147.355779 47.036764 
L 147.609669 47.359486 
L 147.86356 48.112497 
L 148.11745 48.112497 
L 148.62523 48.435219 
L 149.133011 47.25192 
L 149.386901 48.542786 
L 149.640791 47.574642 
L 149.894682 47.789775 
L 150.148572 47.467053 
L 150.656352 48.542786 
L 150.910243 48.220086 
L 151.164133 48.112497 
L 151.418023 48.757941 
L 151.671913 47.789775 
L 151.925804 47.467053 
L 152.179694 48.220086 
L 152.687474 48.112497 
L 152.941365 47.789775 
L 153.195255 48.650375 
L 153.449145 47.789775 
L 153.703035 47.359486 
L 153.956926 47.467053 
L 154.210816 48.112497 
L 154.464706 49.18823 
L 154.718596 48.435219 
L 154.972487 46.821631 
L 155.226377 47.682208 
L 155.734157 47.682208 
L 155.988048 48.542786 
L 156.241938 48.973097 
L 156.495828 48.112497 
L 156.749718 48.327653 
L 157.003609 48.004931 
L 157.257499 47.897364 
L 157.511389 48.973097 
L 157.765279 48.650375 
L 158.01917 47.036764 
L 158.27306 48.004931 
L 158.78084 48.327653 
L 159.542511 47.25192 
L 159.796402 47.897364 
L 160.050292 47.25192 
L 160.304182 47.574642 
L 160.558072 48.435219 
L 160.811963 48.112497 
L 161.065853 47.25192 
L 161.319743 49.18823 
L 161.827524 47.897364 
L 162.081414 48.650375 
L 162.335304 48.112497 
L 162.589194 47.897364 
L 162.843085 48.004931 
L 163.096975 49.080663 
L 163.350865 48.757941 
L 163.604755 48.865508 
L 163.858646 48.650375 
L 164.366426 48.004931 
L 165.128097 48.757941 
L 165.381987 47.359486 
L 165.635877 48.757941 
L 165.889768 48.650375 
L 166.143658 48.220086 
L 166.397548 47.467053 
L 166.651438 48.865508 
L 166.905329 48.542786 
L 167.413109 48.650375 
L 167.666999 48.112497 
L 167.92089 48.004931 
L 168.17478 47.574642 
L 168.42867 47.789775 
L 168.68256 47.789775 
L 168.936451 47.574642 
L 169.190341 48.220086 
L 169.698121 48.542786 
L 170.205902 47.789775 
L 170.713682 49.295819 
L 171.221463 48.220086 
L 171.475353 47.25192 
L 171.729243 47.25192 
L 171.983134 48.004931 
L 172.237024 48.004931 
L 172.490914 47.682208 
L 172.744804 48.542786 
L 173.252585 47.144331 
L 173.506475 47.682208 
L 173.760365 49.18823 
L 174.014256 49.295819 
L 174.268146 48.973097 
L 174.522036 47.897364 
L 174.775926 48.004931 
L 175.029817 47.359486 
L 175.283707 48.004931 
L 175.537597 47.789775 
L 175.791488 48.650375 
L 176.045378 47.682208 
L 176.299268 47.682208 
L 176.807049 48.757941 
L 177.060939 47.25192 
L 177.314829 48.650375 
L 177.568719 47.789775 
L 178.0765 47.897364 
L 178.58428 48.650375 
L 178.838171 47.574642 
L 179.092061 48.327653 
L 179.345951 48.004931 
L 179.599841 47.144331 
L 179.853732 47.144331 
L 180.361512 48.650375 
L 180.615402 46.929198 
L 180.869293 48.220086 
L 181.123183 48.220086 
L 181.377073 47.144331 
L 181.630963 48.004931 
L 181.884854 50.04883 
L 182.138744 47.467053 
L 182.392634 47.144331 
L 182.900415 48.220086 
L 183.154305 47.359486 
L 183.408195 48.650375 
L 183.662085 48.327653 
L 183.915976 46.929198 
L 184.169866 48.327653 
L 184.423756 48.004931 
L 184.677646 47.897364 
L 184.931537 48.865508 
L 185.185427 48.650375 
L 185.693207 47.574642 
L 185.947098 48.973097 
L 186.200988 48.112497 
L 186.454878 48.004931 
L 186.708768 48.435219 
L 186.962659 47.467053 
L 187.470439 47.789775 
L 187.724329 47.036764 
L 188.23211 48.327653 
L 188.486 47.574642 
L 188.73989 47.359486 
L 188.993781 47.574642 
L 189.247671 46.929198 
L 189.501561 46.929198 
L 189.755451 47.789775 
L 190.009342 49.295819 
L 190.517122 46.821631 
L 190.771012 48.973097 
L 191.024903 47.897364 
L 191.278793 48.004931 
L 191.532683 47.789775 
L 191.786574 47.144331 
L 192.040464 47.467053 
L 192.294354 48.757941 
L 192.548244 47.897364 
L 192.802135 47.467053 
L 193.309915 47.359486 
L 193.563805 48.327653 
L 193.817696 47.467053 
L 194.071586 48.435219 
L 194.325476 48.004931 
L 194.579366 48.865508 
L 194.833257 48.220086 
L 195.087147 48.004931 
L 195.341037 48.327653 
L 195.594927 47.789775 
L 195.848818 48.435219 
L 196.102708 47.574642 
L 196.356598 47.359486 
L 196.610488 48.650375 
L 196.864379 48.327653 
L 197.372159 46.606476 
L 197.87994 48.435219 
L 198.13383 47.789775 
L 198.38772 48.435219 
L 198.64161 47.144331 
L 198.895501 48.757941 
L 199.149391 47.682208 
L 199.403281 48.004931 
L 199.657171 47.574642 
L 199.911062 48.327653 
L 200.164952 47.144331 
L 200.418842 48.973097 
L 200.672732 46.714042 
L 200.926623 48.757941 
L 201.180513 47.359486 
L 201.434403 48.327653 
L 201.688293 48.112497 
L 201.942184 48.435219 
L 202.196074 47.897364 
L 202.703854 48.757941 
L 202.957745 47.574642 
L 203.211635 48.220086 
L 203.465525 48.112497 
L 203.719415 47.682208 
L 203.973306 48.435219 
L 204.481086 47.467053 
L 204.734976 48.112497 
L 205.496647 46.714042 
L 205.750537 48.220086 
L 206.258318 47.467053 
L 206.512208 48.220086 
L 206.766098 48.220086 
L 207.019989 48.757941 
L 207.273879 48.327653 
L 207.527769 48.865508 
L 207.78166 47.789775 
L 208.03555 47.25192 
L 208.28944 48.757941 
L 208.54333 48.327653 
L 208.797221 47.25192 
L 209.305001 47.897364 
L 209.558891 46.929198 
L 209.812782 46.929198 
L 210.066672 48.327653 
L 210.320562 47.574642 
L 210.574452 48.220086 
L 210.828343 47.467053 
L 211.082233 48.865508 
L 211.336123 47.897364 
L 211.590013 48.004931 
L 211.843904 48.542786 
L 212.097794 47.467053 
L 212.351684 48.435219 
L 212.605574 47.25192 
L 213.113355 48.112497 
L 213.367245 47.682208 
L 213.621135 47.789775 
L 213.875026 46.714042 
L 214.128916 48.004931 
L 214.382806 48.435219 
L 214.636696 47.789775 
L 215.144477 48.435219 
L 215.398367 46.606476 
L 215.652257 47.036764 
L 215.906148 48.973097 
L 216.160038 47.467053 
L 216.413928 47.574642 
L 216.667818 48.220086 
L 216.921709 47.897364 
L 217.175599 48.757941 
L 217.429489 47.25192 
L 217.683379 48.004931 
L 217.93727 48.004931 
L 218.19116 47.789775 
L 218.44505 48.757941 
L 218.952831 48.435219 
L 219.206721 48.757941 
L 219.460611 47.897364 
L 219.714501 48.865508 
L 219.968392 47.789775 
L 220.222282 47.25192 
L 220.476172 47.467053 
L 220.730062 47.897364 
L 220.983953 49.18823 
L 221.237843 46.606476 
L 221.491733 48.435219 
L 221.745623 46.606476 
L 221.999514 48.112497 
L 222.253404 48.220086 
L 222.507294 49.18823 
L 222.761184 47.574642 
L 223.015075 47.574642 
L 223.268965 47.897364 
L 223.522855 47.467053 
L 223.776745 47.574642 
L 224.030636 47.359486 
L 224.284526 49.403386 
L 224.538416 48.865508 
L 224.792307 47.359486 
L 225.046197 47.036764 
L 225.300087 47.682208 
L 225.553977 48.004931 
L 225.807868 48.004931 
L 226.061758 48.220086 
L 226.315648 49.18823 
L 226.823429 47.682208 
L 227.077319 48.542786 
L 227.585099 47.574642 
L 227.83899 48.327653 
L 228.09288 47.682208 
L 228.34677 48.542786 
L 228.60066 48.220086 
L 228.854551 47.574642 
L 229.108441 47.682208 
L 230.124002 49.618541 
L 230.377892 47.574642 
L 230.631782 47.467053 
L 231.139563 48.542786 
L 231.393453 48.327653 
L 231.647343 48.435219 
L 232.409014 47.144331 
L 232.662904 47.574642 
L 232.916795 47.144331 
L 233.170685 47.574642 
L 233.424575 48.327653 
L 233.678465 48.542786 
L 233.932356 47.359486 
L 234.186246 48.220086 
L 234.440136 48.327653 
L 234.694026 46.498909 
L 234.947917 48.112497 
L 235.201807 48.112497 
L 235.455697 48.865508 
L 235.709587 47.574642 
L 236.217368 48.650375 
L 236.471258 47.682208 
L 236.725148 48.220086 
L 236.979039 47.574642 
L 237.232929 47.574642 
L 237.486819 47.789775 
L 237.740709 48.220086 
L 237.9946 47.467053 
L 238.24849 49.18823 
L 238.50238 47.144331 
L 238.75627 48.004931 
L 239.010161 47.574642 
L 239.264051 49.080663 
L 239.517941 48.435219 
L 239.771831 48.650375 
L 240.533502 47.789775 
L 240.787393 47.682208 
L 241.041283 48.542786 
L 241.549063 47.036764 
L 241.802954 47.359486 
L 242.056844 47.897364 
L 242.564624 48.112497 
L 242.818515 48.650375 
L 243.072405 48.004931 
L 243.326295 48.112497 
L 243.834076 47.574642 
L 244.087966 47.359486 
L 244.341856 47.574642 
L 244.595746 48.757941 
L 245.103527 47.359486 
L 245.611307 47.682208 
L 245.865198 46.821631 
L 246.119088 48.973097 
L 246.372978 48.650375 
L 246.626868 48.542786 
L 246.880759 47.467053 
L 247.134649 48.112497 
L 247.388539 47.25192 
L 247.642429 47.467053 
L 247.89632 47.25192 
L 248.15021 47.897364 
L 248.4041 46.821631 
L 248.65799 47.574642 
L 248.911881 47.789775 
L 249.419661 48.757941 
L 249.673551 48.542786 
L 249.927442 48.650375 
L 250.181332 47.144331 
L 250.689112 48.004931 
L 250.943003 47.574642 
L 251.450783 47.897364 
L 251.704673 47.467053 
L 251.958564 48.327653 
L 252.212454 48.542786 
L 252.466344 47.359486 
L 252.720234 48.435219 
L 252.974125 47.574642 
L 253.228015 47.574642 
L 253.481905 48.435219 
L 253.735795 47.574642 
L 253.989686 47.467053 
L 254.243576 48.004931 
L 254.497466 48.112497 
L 254.751356 47.789775 
L 255.259137 47.897364 
L 255.513027 49.295819 
L 255.766917 47.359486 
L 256.020808 47.467053 
L 256.274698 48.327653 
L 256.528588 47.682208 
L 256.782479 47.897364 
L 257.036369 48.435219 
L 257.290259 46.821631 
L 257.79804 48.112497 
L 258.30582 47.789775 
L 258.55971 47.682208 
L 258.813601 47.144331 
L 259.067491 48.542786 
L 259.321381 48.435219 
L 259.575271 48.757941 
L 259.829162 48.435219 
L 260.083052 47.036764 
L 260.336942 48.650375 
L 260.590832 46.498909 
L 261.098613 48.757941 
L 261.352503 47.036764 
L 261.860284 48.650375 
L 262.114174 48.542786 
L 262.368064 47.574642 
L 262.621954 48.004931 
L 262.875845 49.080663 
L 263.129735 48.004931 
L 263.383625 47.467053 
L 263.637515 47.897364 
L 263.891406 48.650375 
L 264.145296 48.220086 
L 264.399186 48.650375 
L 264.653076 47.144331 
L 264.906967 46.821631 
L 265.160857 48.435219 
L 265.414747 48.650375 
L 265.668637 47.574642 
L 265.922528 47.036764 
L 266.176418 47.789775 
L 266.938089 48.112497 
L 267.191979 48.004931 
L 267.445869 48.220086 
L 267.699759 48.004931 
L 267.95365 48.327653 
L 268.20754 48.112497 
L 268.46143 47.467053 
L 268.71532 48.112497 
L 268.969211 48.004931 
L 269.223101 47.574642 
L 269.476991 46.714042 
L 269.730881 48.220086 
L 269.984772 47.682208 
L 270.238662 48.004931 
L 270.492552 47.144331 
L 270.746442 47.897364 
L 271.000333 47.359486 
L 271.254223 48.327653 
L 271.508113 47.682208 
L 271.762003 47.359486 
L 272.015894 47.789775 
L 272.269784 47.789775 
L 272.523674 47.036764 
L 272.777564 47.897364 
L 273.031455 48.004931 
L 273.285345 47.25192 
L 273.539235 48.327653 
L 273.793126 48.435219 
L 274.047016 46.929198 
L 274.300906 48.327653 
L 274.554796 47.25192 
L 274.808687 47.789775 
L 275.062577 47.467053 
L 275.316467 47.789775 
L 275.824248 48.865508 
L 276.078138 48.435219 
L 276.332028 48.757941 
L 276.585918 47.682208 
L 276.839809 48.220086 
L 277.093699 47.467053 
L 277.347589 48.004931 
L 277.601479 48.973097 
L 277.85537 47.574642 
L 278.10926 47.789775 
L 278.36315 48.650375 
L 278.870931 47.574642 
L 279.124821 47.25192 
L 279.378711 48.973097 
L 279.632601 48.220086 
L 279.886492 48.004931 
L 280.140382 48.757941 
L 280.648162 47.25192 
L 280.902053 48.865508 
L 281.155943 47.359486 
L 281.409833 47.144331 
L 281.663723 48.112497 
L 281.917614 48.542786 
L 282.425394 47.682208 
L 282.679284 48.112497 
L 282.933175 47.574642 
L 283.187065 46.498909 
L 283.440955 48.757941 
L 283.694845 47.359486 
L 283.948736 47.359486 
L 284.202626 47.682208 
L 284.456516 47.789775 
L 284.710406 48.650375 
L 284.964297 47.789775 
L 285.472077 48.112497 
L 285.725967 47.789775 
L 285.979858 47.789775 
L 286.233748 48.327653 
L 286.741528 47.789775 
L 286.995419 48.542786 
L 287.249309 46.498909 
L 287.757089 48.004931 
L 288.01098 48.327653 
L 288.51876 47.036764 
L 288.77265 47.144331 
L 289.026541 47.682208 
L 289.280431 47.359486 
L 289.534321 49.295819 
L 290.295992 46.929198 
L 290.549882 48.112497 
L 290.803773 47.682208 
L 291.057663 47.789775 
L 291.311553 48.112497 
L 291.565443 47.897364 
L 291.819334 48.327653 
L 292.073224 47.467053 
L 292.327114 48.112497 
L 292.581004 48.004931 
L 292.834895 48.327653 
L 293.342675 46.929198 
L 293.596565 48.112497 
L 293.850456 47.682208 
L 294.104346 48.542786 
L 294.358236 46.821631 
L 294.612126 48.220086 
L 294.866017 47.682208 
L 295.119907 47.467053 
L 295.373797 48.220086 
L 295.627687 47.682208 
L 295.881578 48.650375 
L 296.135468 47.467053 
L 296.389358 48.112497 
L 296.897139 48.004931 
L 297.151029 48.973097 
L 297.404919 47.789775 
L 297.658809 47.897364 
L 297.9127 46.929198 
L 298.16659 48.435219 
L 298.42048 48.220086 
L 298.67437 48.327653 
L 298.928261 47.789775 
L 299.182151 48.112497 
L 299.436041 47.25192 
L 299.689931 48.542786 
L 299.943822 48.220086 
L 300.197712 47.359486 
L 300.451602 48.435219 
L 300.705492 48.327653 
L 300.959383 48.542786 
L 301.213273 47.682208 
L 301.467163 48.327653 
L 301.721053 48.327653 
L 301.974944 47.144331 
L 302.228834 48.542786 
L 302.482724 49.080663 
L 302.736614 48.435219 
L 303.244395 48.220086 
L 303.498285 47.789775 
L 303.752175 48.435219 
L 304.006066 48.220086 
L 304.259956 48.542786 
L 304.513846 48.327653 
L 304.767736 49.080663 
L 305.021627 49.18823 
L 305.275517 48.112497 
L 305.529407 48.542786 
L 306.037188 47.897364 
L 306.291078 48.004931 
L 306.544968 48.435219 
L 306.798859 47.682208 
L 307.052749 48.327653 
L 307.306639 48.435219 
L 307.560529 48.865508 
L 307.81442 47.359486 
L 308.06831 48.973097 
L 308.3222 48.542786 
L 308.57609 48.542786 
L 309.083871 47.467053 
L 309.337761 49.080663 
L 309.845542 47.682208 
L 310.099432 49.295819 
L 310.099432 49.295819 
" clip-path="url(#p1f538cdae9)" style="fill: none; stroke: #0000ff; stroke-width: 0.6; stroke-linecap: square"/>
   </g>
   <g id="line2d_26">
    <path d="M 56.463068 218.906172 
L 56.716958 226.183926 
L 57.224739 179.254867 
L 57.478629 176.996267 
L 57.732519 157.923489 
L 57.98641 119.777933 
L 58.2403 104.218561 
L 58.49419 117.51931 
L 58.74808 99.701337 
L 59.001971 120.028898 
L 59.255861 96.940806 
L 59.509751 101.207086 
L 59.763641 102.461869 
L 60.017532 125.298996 
L 60.271422 94.933149 
L 60.525312 91.419743 
L 60.779202 98.697497 
L 61.033093 167.459866 
L 61.286983 90.917811 
L 61.794764 85.89868 
L 62.048654 97.191749 
L 62.302544 84.89484 
L 62.556434 89.663028 
L 62.810325 86.400588 
L 63.064215 101.708995 
L 63.318105 85.396748 
L 63.571995 84.141965 
L 63.825886 84.392931 
L 64.079776 79.875685 
L 64.333666 86.149623 
L 64.841447 84.141965 
L 65.095337 84.643874 
L 65.349227 85.647714 
L 65.603117 84.141965 
L 65.857008 79.875685 
L 66.110898 81.883342 
L 66.364788 82.636217 
L 66.618678 81.381434 
L 66.872569 84.89484 
L 67.126459 86.400588 
L 67.380349 83.891 
L 67.634239 83.640057 
L 67.88813 81.883342 
L 68.14202 82.887182 
L 68.39591 88.910154 
L 68.6498 85.145805 
L 69.157581 81.632399 
L 69.411471 84.89484 
L 69.665361 83.138125 
L 69.919252 83.891 
L 70.173142 82.134308 
L 70.427032 82.887182 
L 70.680922 81.632399 
L 70.934813 95.435057 
L 71.188703 81.130468 
L 71.442593 85.647714 
L 71.696483 80.879525 
L 71.950374 87.153463 
L 72.204264 85.89868 
L 72.458154 81.130468 
L 72.712044 84.643874 
L 72.965935 85.145805 
L 73.219825 81.883342 
L 73.473715 84.141965 
L 73.727605 87.404406 
L 73.981496 83.389091 
L 74.235386 83.640057 
L 74.489276 84.141965 
L 74.743166 87.404406 
L 74.997057 88.659211 
L 75.250947 82.636217 
L 75.758727 87.153463 
L 76.012618 86.400588 
L 76.266508 83.138125 
L 76.520398 85.145805 
L 77.028179 86.902497 
L 77.282069 83.640057 
L 77.535959 86.149623 
L 77.78985 83.640057 
L 78.29763 84.141965 
L 78.55152 86.149623 
L 79.059301 82.385274 
L 79.313191 85.647714 
L 79.567081 83.138125 
L 79.820972 83.389091 
L 80.074862 81.130468 
L 80.582642 84.89484 
L 80.836533 82.887182 
L 81.090423 85.145805 
L 81.344313 86.400588 
L 81.598203 83.138125 
L 81.852094 89.16112 
L 82.105984 83.138125 
L 82.359874 83.138125 
L 82.613764 85.396748 
L 82.867655 85.145805 
L 83.121545 83.640057 
L 83.375435 87.153463 
L 83.629325 83.891 
L 84.137106 86.400588 
L 84.390996 83.891 
L 84.644886 84.141965 
L 84.898777 85.89868 
L 85.152667 84.89484 
L 85.406557 84.89484 
L 85.660447 86.400588 
L 85.914338 86.400588 
L 86.168228 85.647714 
L 86.422118 83.389091 
L 86.676008 83.891 
L 86.929899 84.89484 
L 87.183789 83.640057 
L 87.437679 83.891 
L 87.691569 85.145805 
L 87.94546 84.643874 
L 88.19935 88.15728 
L 88.70713 82.134308 
L 88.961021 85.89868 
L 89.214911 84.392931 
L 89.468801 81.381434 
L 89.722691 83.891 
L 89.976582 83.138125 
L 90.230472 84.89484 
L 90.484362 84.643874 
L 90.738252 84.141965 
L 90.992143 83.138125 
L 91.246033 84.392931 
L 91.499923 82.887182 
L 91.753813 83.138125 
L 92.007704 84.392931 
L 92.261594 84.89484 
L 92.515484 81.632399 
L 92.769374 85.145805 
L 93.023265 82.134308 
L 93.531045 83.640057 
L 94.038826 85.647714 
L 94.292716 84.89484 
L 94.546606 83.640057 
L 94.800497 83.891 
L 95.054387 83.389091 
L 95.308277 84.643874 
L 95.562167 81.883342 
L 95.816058 83.389091 
L 96.069948 83.891 
L 96.323838 83.138125 
L 96.577728 84.89484 
L 96.831619 83.640057 
L 97.085509 83.138125 
L 97.339399 83.138125 
L 97.593289 82.134308 
L 97.84718 83.891 
L 98.10107 82.636217 
L 98.60885 84.643874 
L 98.862741 84.392931 
L 99.116631 84.392931 
L 99.370521 84.89484 
L 99.624411 85.647714 
L 99.878302 84.392931 
L 100.132192 83.891 
L 100.386082 84.643874 
L 100.639972 82.887182 
L 100.893863 85.89868 
L 101.147753 84.392931 
L 101.401643 83.640057 
L 101.655533 86.400588 
L 101.909424 84.89484 
L 102.163314 86.651531 
L 102.417204 85.145805 
L 102.671094 85.647714 
L 103.178875 83.640057 
L 103.686655 85.145805 
L 103.940546 84.89484 
L 104.194436 83.891 
L 104.956107 84.643874 
L 105.209997 83.640057 
L 105.463887 84.89484 
L 105.717777 83.389091 
L 105.971668 85.396748 
L 106.479448 84.141965 
L 106.987229 86.651531 
L 107.241119 84.643874 
L 107.495009 85.396748 
L 108.00279 84.392931 
L 108.25668 83.389091 
L 108.51057 84.89484 
L 108.76446 84.392931 
L 109.018351 83.389091 
L 109.272241 83.640057 
L 109.526131 82.887182 
L 109.780021 84.141965 
L 110.033912 83.640057 
L 110.287802 83.891 
L 110.541692 85.89868 
L 110.795583 84.392931 
L 111.049473 84.643874 
L 111.303363 82.887182 
L 111.557253 84.89484 
L 111.811144 85.89868 
L 112.065034 84.141965 
L 112.318924 85.396748 
L 112.572814 84.392931 
L 112.826705 85.396748 
L 113.334485 85.89868 
L 113.588375 83.891 
L 113.842266 84.643874 
L 114.096156 83.640057 
L 114.350046 83.640057 
L 114.603936 85.145805 
L 114.857827 83.891 
L 115.111717 85.145805 
L 115.365607 85.145805 
L 115.619497 84.141965 
L 115.873388 83.640057 
L 116.127278 83.640057 
L 116.381168 83.891 
L 116.635058 84.89484 
L 116.888949 84.643874 
L 117.142839 84.643874 
L 117.650619 82.887182 
L 117.90451 85.647714 
L 118.1584 84.643874 
L 118.41229 84.643874 
L 118.66618 83.891 
L 118.920071 84.643874 
L 119.427851 83.389091 
L 119.681741 83.640057 
L 119.935632 84.392931 
L 120.443412 84.392931 
L 120.951193 85.647714 
L 121.205083 84.141965 
L 121.458973 83.640057 
L 121.712863 83.640057 
L 121.966754 83.891 
L 122.220644 83.891 
L 122.474534 83.640057 
L 122.728424 84.392931 
L 122.982315 84.392931 
L 123.236205 85.647714 
L 123.490095 84.392931 
L 123.743985 84.643874 
L 123.997876 83.640057 
L 124.251766 83.640057 
L 124.505656 84.392931 
L 124.759546 83.640057 
L 125.013437 84.89484 
L 125.267327 84.392931 
L 125.521217 84.141965 
L 125.775107 84.643874 
L 126.028998 84.643874 
L 126.536778 85.647714 
L 126.790669 84.392931 
L 127.044559 85.145805 
L 127.298449 83.640057 
L 127.552339 84.643874 
L 127.80623 84.392931 
L 128.06012 84.392931 
L 128.31401 83.891 
L 128.821791 85.396748 
L 129.075681 84.392931 
L 129.329571 83.891 
L 129.583461 85.647714 
L 129.837352 84.643874 
L 130.091242 85.145805 
L 130.345132 83.891 
L 130.852913 84.392931 
L 131.360693 83.891 
L 131.614583 84.392931 
L 131.868474 84.392931 
L 132.122364 85.145805 
L 132.376254 84.643874 
L 132.630144 84.89484 
L 132.884035 84.392931 
L 133.391815 84.89484 
L 133.645705 84.392931 
L 133.899596 84.643874 
L 134.407376 85.89868 
L 134.661266 84.141965 
L 134.915157 85.647714 
L 135.169047 84.643874 
L 135.422937 85.396748 
L 135.676827 84.89484 
L 135.930718 84.643874 
L 136.184608 85.145805 
L 136.438498 83.891 
L 136.692388 84.392931 
L 136.946279 83.640057 
L 137.200169 84.141965 
L 137.454059 84.392931 
L 137.707949 84.141965 
L 137.96184 84.643874 
L 138.21573 84.392931 
L 138.46962 84.392931 
L 138.72351 84.643874 
L 138.977401 84.392931 
L 139.231291 84.89484 
L 139.485181 84.392931 
L 139.739071 84.643874 
L 139.992962 84.141965 
L 140.246852 84.89484 
L 140.500742 84.643874 
L 140.754632 84.643874 
L 141.008523 84.89484 
L 141.262413 84.643874 
L 141.516303 84.89484 
L 141.770193 84.392931 
L 142.024084 85.145805 
L 142.277974 84.643874 
L 142.531864 84.89484 
L 142.785755 84.89484 
L 143.039645 84.392931 
L 143.293535 84.141965 
L 143.547425 84.643874 
L 143.801316 84.392931 
L 144.055206 84.392931 
L 144.562986 83.891 
L 144.816877 85.145805 
L 145.070767 84.392931 
L 145.578547 84.89484 
L 145.832438 84.643874 
L 146.086328 85.145805 
L 146.340218 84.141965 
L 146.594108 84.141965 
L 146.847999 84.643874 
L 147.101889 84.392931 
L 147.355779 84.392931 
L 147.609669 84.89484 
L 147.86356 84.392931 
L 148.11745 84.89484 
L 148.37134 83.891 
L 148.62523 84.392931 
L 148.879121 83.891 
L 149.133011 84.392931 
L 149.386901 83.891 
L 149.894682 84.392931 
L 150.148572 84.141965 
L 150.402462 84.643874 
L 150.656352 84.643874 
L 150.910243 85.145805 
L 151.164133 84.392931 
L 151.418023 84.141965 
L 151.671913 84.141965 
L 151.925804 84.392931 
L 152.179694 83.640057 
L 152.433584 84.141965 
L 152.687474 84.141965 
L 152.941365 83.891 
L 153.195255 83.891 
L 153.449145 83.640057 
L 153.703035 83.891 
L 153.956926 84.392931 
L 154.210816 83.891 
L 154.464706 85.396748 
L 154.718596 84.643874 
L 154.972487 84.392931 
L 155.226377 84.392931 
L 155.480267 84.141965 
L 155.734157 84.392931 
L 156.241938 83.891 
L 156.495828 84.141965 
L 156.749718 83.640057 
L 157.003609 83.891 
L 157.257499 83.640057 
L 157.765279 83.640057 
L 158.01917 84.392931 
L 158.27306 84.392931 
L 158.52695 83.640057 
L 158.78084 83.640057 
L 159.034731 84.141965 
L 159.288621 84.141965 
L 159.796402 83.640057 
L 160.050292 83.640057 
L 160.304182 83.891 
L 160.558072 83.389091 
L 160.811963 83.891 
L 161.319743 83.891 
L 161.573633 84.141965 
L 161.827524 83.891 
L 162.081414 83.891 
L 162.335304 84.392931 
L 162.843085 83.891 
L 163.096975 84.392931 
L 163.604755 84.392931 
L 163.858646 83.891 
L 164.112536 84.141965 
L 164.366426 84.643874 
L 164.620316 84.392931 
L 164.874207 84.89484 
L 165.128097 84.141965 
L 165.381987 84.141965 
L 165.635877 83.891 
L 165.889768 84.141965 
L 166.397548 84.141965 
L 166.651438 83.891 
L 167.159219 83.891 
L 167.413109 84.141965 
L 167.666999 83.640057 
L 167.92089 84.141965 
L 168.936451 84.141965 
L 169.190341 84.392931 
L 169.444231 84.141965 
L 169.698121 84.141965 
L 169.952012 84.643874 
L 170.205902 84.643874 
L 170.459792 84.141965 
L 170.713682 83.891 
L 170.967573 84.392931 
L 171.221463 84.141965 
L 171.475353 84.643874 
L 171.729243 84.392931 
L 171.983134 84.392931 
L 172.237024 84.643874 
L 172.490914 84.392931 
L 172.744804 83.891 
L 172.998695 83.640057 
L 173.252585 84.141965 
L 173.506475 84.141965 
L 173.760365 84.643874 
L 174.014256 84.392931 
L 174.522036 84.392931 
L 174.775926 83.891 
L 175.283707 84.392931 
L 175.537597 83.891 
L 176.045378 84.392931 
L 176.553158 84.392931 
L 176.807049 84.643874 
L 177.568719 83.891 
L 177.82261 83.891 
L 178.0765 84.141965 
L 178.33039 83.891 
L 178.58428 84.643874 
L 178.838171 84.643874 
L 179.092061 84.141965 
L 179.345951 84.392931 
L 179.599841 84.141965 
L 179.853732 84.141965 
L 180.361512 84.643874 
L 180.615402 84.643874 
L 181.123183 84.141965 
L 181.377073 84.392931 
L 182.138744 84.392931 
L 182.392634 83.891 
L 182.900415 83.891 
L 183.154305 84.141965 
L 185.947098 84.141965 
L 186.200988 84.392931 
L 186.454878 84.141965 
L 186.962659 84.141965 
L 187.216549 84.392931 
L 187.470439 84.141965 
L 188.73989 84.141965 
L 188.993781 84.392931 
L 191.024903 84.392931 
L 191.278793 84.141965 
L 191.532683 84.392931 
L 191.786574 84.141965 
L 192.040464 84.141965 
L 192.294354 84.392931 
L 194.071586 84.392931 
L 194.325476 84.141965 
L 194.833257 84.141965 
L 195.087147 84.392931 
L 195.341037 84.141965 
L 195.594927 84.141965 
L 195.848818 84.392931 
L 196.102708 84.141965 
L 196.356598 84.141965 
L 196.610488 84.392931 
L 198.64161 84.392931 
L 198.895501 84.643874 
L 199.149391 84.643874 
L 199.657171 84.141965 
L 200.164952 84.141965 
L 200.418842 84.392931 
L 200.672732 84.141965 
L 200.926623 84.392931 
L 201.434403 84.392931 
L 201.688293 84.643874 
L 201.942184 84.643874 
L 202.196074 84.392931 
L 202.449964 84.392931 
L 202.703854 84.141965 
L 204.227196 84.141965 
L 204.481086 83.891 
L 204.734976 83.891 
L 204.988867 84.141965 
L 206.766098 84.141965 
L 207.019989 84.392931 
L 207.273879 84.141965 
L 208.54333 84.141965 
L 208.797221 84.392931 
L 209.051111 84.392931 
L 209.305001 84.141965 
L 209.812782 84.141965 
L 210.066672 84.392931 
L 210.828343 84.392931 
L 211.082233 84.141965 
L 211.336123 84.392931 
L 211.590013 84.141965 
L 212.097794 84.141965 
L 212.351684 84.392931 
L 212.605574 84.392931 
L 212.859465 84.141965 
L 213.367245 84.141965 
L 213.621135 84.392931 
L 215.652257 84.392931 
L 215.906148 84.141965 
L 216.413928 84.141965 
L 216.667818 84.392931 
L 216.921709 84.141965 
L 217.175599 84.141965 
L 217.429489 84.392931 
L 219.968392 84.392931 
L 220.222282 84.643874 
L 220.476172 84.643874 
L 220.730062 84.392931 
L 220.983953 84.643874 
L 221.237843 84.392931 
L 225.807868 84.392931 
L 226.061758 84.141965 
L 226.315648 84.392931 
L 226.569538 84.141965 
L 227.077319 84.141965 
L 227.331209 84.392931 
L 230.377892 84.392931 
L 230.631782 84.141965 
L 230.885673 84.392931 
L 232.155124 84.392931 
L 232.409014 84.643874 
L 233.678465 84.643874 
L 233.932356 84.392931 
L 237.232929 84.392931 
L 237.486819 84.141965 
L 237.740709 84.141965 
L 237.9946 84.392931 
L 242.818515 84.392931 
L 243.072405 84.643874 
L 246.372978 84.643874 
L 246.626868 84.141965 
L 247.89632 84.141965 
L 248.15021 83.891 
L 248.4041 84.141965 
L 249.927442 84.141965 
L 250.181332 84.392931 
L 251.958564 84.392931 
L 252.212454 84.643874 
L 254.751356 84.643874 
L 255.005247 84.392931 
L 256.020808 84.392931 
L 256.274698 84.643874 
L 260.590832 84.643874 
L 260.844723 84.392931 
L 263.637515 84.392931 
L 263.891406 84.643874 
L 264.145296 84.392931 
L 264.906967 84.392931 
L 265.160857 84.643874 
L 270.492552 84.643874 
L 270.746442 84.392931 
L 271.508113 84.392931 
L 271.762003 84.643874 
L 272.015894 84.392931 
L 272.269784 84.392931 
L 272.523674 84.643874 
L 274.808687 84.643874 
L 275.062577 84.392931 
L 275.316467 84.392931 
L 275.570357 84.643874 
L 280.648162 84.643874 
L 280.902053 84.392931 
L 281.663723 84.392931 
L 281.917614 84.141965 
L 282.933175 84.141965 
L 283.187065 84.392931 
L 283.948736 84.392931 
L 284.202626 84.643874 
L 284.456516 84.643874 
L 284.710406 84.392931 
L 284.964297 84.392931 
L 285.218187 84.643874 
L 289.788212 84.643874 
L 290.042102 84.392931 
L 292.834895 84.392931 
L 293.088785 84.643874 
L 297.658809 84.643874 
L 297.9127 84.392931 
L 298.67437 84.392931 
L 298.928261 84.643874 
L 299.182151 84.392931 
L 299.436041 84.643874 
L 304.006066 84.643874 
L 304.259956 84.392931 
L 304.513846 84.392931 
L 304.767736 84.643874 
L 305.021627 84.643874 
L 305.275517 84.392931 
L 305.529407 84.643874 
L 307.052749 84.643874 
L 307.306639 84.392931 
L 308.06831 84.392931 
L 308.3222 84.643874 
L 308.57609 84.643874 
L 308.829981 84.392931 
L 309.083871 84.643874 
L 309.337761 84.643874 
L 309.591651 84.392931 
L 310.099432 84.392931 
L 310.099432 84.392931 
" clip-path="url(#p1f538cdae9)" style="fill: none; stroke: #ff0000; stroke-width: 0.6; stroke-linecap: square"/>
   </g>
   <g id="patch_3">
    <path d="M 43.78125 239.76 
L 43.78125 37.296 
" style="fill: none; stroke: #000000; stroke-width: 0.8; stroke-linejoin: miter; stroke-linecap: square"/>
   </g>
   <g id="patch_4">
    <path d="M 322.78125 239.76 
L 322.78125 37.296 
" style="fill: none; stroke: #000000; stroke-width: 0.8; stroke-linejoin: miter; stroke-linecap: square"/>
   </g>
   <g id="patch_5">
    <path d="M 43.78125 239.76 
L 322.78125 239.76 
" style="fill: none; stroke: #000000; stroke-width: 0.8; stroke-linejoin: miter; stroke-linecap: square"/>
   </g>
   <g id="patch_6">
    <path d="M 43.78125 37.296 
L 322.78125 37.296 
" style="fill: none; stroke: #000000; stroke-width: 0.8; stroke-linejoin: miter; stroke-linecap: square"/>
   </g>
   <g id="text_15">
    <!-- Baseline Model -->
    <g transform="translate(149.259844 31.296) scale(0.09 -0.09)">
     <defs>
      <path id="DejaVuSans-42" d="M 1259 2228 
L 1259 519 
L 2272 519 
Q 2781 519 3026 730 
Q 3272 941 3272 1375 
Q 3272 1813 3026 2020 
Q 2781 2228 2272 2228 
L 1259 2228 
z
M 1259 4147 
L 1259 2741 
L 2194 2741 
Q 2656 2741 2882 2914 
Q 3109 3088 3109 3444 
Q 3109 3797 2882 3972 
Q 2656 4147 2194 4147 
L 1259 4147 
z
M 628 4666 
L 2241 4666 
Q 2963 4666 3353 4366 
Q 3744 4066 3744 3513 
Q 3744 3084 3544 2831 
Q 3344 2578 2956 2516 
Q 3422 2416 3680 2098 
Q 3938 1781 3938 1306 
Q 3938 681 3513 340 
Q 3088 0 2303 0 
L 628 0 
L 628 4666 
z
" transform="scale(0.015625)"/>
      <path id="DejaVuSans-65" d="M 3597 1894 
L 3597 1613 
L 953 1613 
Q 991 1019 1311 708 
Q 1631 397 2203 397 
Q 2534 397 2845 478 
Q 3156 559 3463 722 
L 3463 178 
Q 3153 47 2828 -22 
Q 2503 -91 2169 -91 
Q 1331 -91 842 396 
Q 353 884 353 1716 
Q 353 2575 817 3079 
Q 1281 3584 2069 3584 
Q 2775 3584 3186 3129 
Q 3597 2675 3597 1894 
z
M 3022 2063 
Q 3016 2534 2758 2815 
Q 2500 3097 2075 3097 
Q 1594 3097 1305 2825 
Q 1016 2553 972 2059 
L 3022 2063 
z
" transform="scale(0.015625)"/>
      <path id="DejaVuSans-6c" d="M 603 4863 
L 1178 4863 
L 1178 0 
L 603 0 
L 603 4863 
z
" transform="scale(0.015625)"/>
      <path id="DejaVuSans-69" d="M 603 3500 
L 1178 3500 
L 1178 0 
L 603 0 
L 603 3500 
z
M 603 4863 
L 1178 4863 
L 1178 4134 
L 603 4134 
L 603 4863 
z
" transform="scale(0.015625)"/>
      <path id="DejaVuSans-6e" d="M 3513 2113 
L 3513 0 
L 2938 0 
L 2938 2094 
Q 2938 2591 2744 2837 
Q 2550 3084 2163 3084 
Q 1697 3084 1428 2787 
Q 1159 2491 1159 1978 
L 1159 0 
L 581 0 
L 581 3500 
L 1159 3500 
L 1159 2956 
Q 1366 3272 1645 3428 
Q 1925 3584 2291 3584 
Q 2894 3584 3203 3211 
Q 3513 2838 3513 2113 
z
" transform="scale(0.015625)"/>
      <path id="DejaVuSans-20" transform="scale(0.015625)"/>
      <path id="DejaVuSans-4d" d="M 628 4666 
L 1569 4666 
L 2759 1491 
L 3956 4666 
L 4897 4666 
L 4897 0 
L 4281 0 
L 4281 4097 
L 3078 897 
L 2444 897 
L 1241 4097 
L 1241 0 
L 628 0 
L 628 4666 
z
" transform="scale(0.015625)"/>
      <path id="DejaVuSans-64" d="M 2906 2969 
L 2906 4863 
L 3481 4863 
L 3481 0 
L 2906 0 
L 2906 525 
Q 2725 213 2448 61 
Q 2172 -91 1784 -91 
Q 1150 -91 751 415 
Q 353 922 353 1747 
Q 353 2572 751 3078 
Q 1150 3584 1784 3584 
Q 2172 3584 2448 3432 
Q 2725 3281 2906 2969 
z
M 947 1747 
Q 947 1113 1208 752 
Q 1469 391 1925 391 
Q 2381 391 2643 752 
Q 2906 1113 2906 1747 
Q 2906 2381 2643 2742 
Q 2381 3103 1925 3103 
Q 1469 3103 1208 2742 
Q 947 2381 947 1747 
z
" transform="scale(0.015625)"/>
     </defs>
     <use xlink:href="#DejaVuSans-42"/>
     <use xlink:href="#DejaVuSans-61" x="68.603516"/>
     <use xlink:href="#DejaVuSans-73" x="129.882812"/>
     <use xlink:href="#DejaVuSans-65" x="181.982422"/>
     <use xlink:href="#DejaVuSans-6c" x="243.505859"/>
     <use xlink:href="#DejaVuSans-69" x="271.289062"/>
     <use xlink:href="#DejaVuSans-6e" x="299.072266"/>
     <use xlink:href="#DejaVuSans-65" x="362.451172"/>
     <use xlink:href="#DejaVuSans-20" x="423.974609"/>
     <use xlink:href="#DejaVuSans-4d" x="455.761719"/>
     <use xlink:href="#DejaVuSans-6f" x="542.041016"/>
     <use xlink:href="#DejaVuSans-64" x="603.222656"/>
     <use xlink:href="#DejaVuSans-65" x="666.699219"/>
     <use xlink:href="#DejaVuSans-6c" x="728.222656"/>
    </g>
   </g>
   <g id="legend_1">
    <g id="patch_7">
     <path d="M 185.565625 234.76 
L 315.78125 234.76 
Q 317.78125 234.76 317.78125 232.76 
L 317.78125 204.40375 
Q 317.78125 202.40375 315.78125 202.40375 
L 185.565625 202.40375 
Q 183.565625 202.40375 183.565625 204.40375 
L 183.565625 232.76 
Q 183.565625 234.76 185.565625 234.76 
z
" style="fill: #ffffff; opacity: 0.8; stroke: #cccccc; stroke-linejoin: miter"/>
    </g>
    <g id="line2d_27">
     <path d="M 187.565625 210.502187 
L 197.565625 210.502187 
L 207.565625 210.502187 
" style="fill: none; stroke: #0000ff; stroke-width: 0.6; stroke-linecap: square"/>
    </g>
    <g id="text_16">
     <!-- Training Accuracy -->
     <g transform="translate(215.565625 214.002187) scale(0.1 -0.1)">
      <defs>
       <path id="DejaVuSans-54" d="M -19 4666 
L 3928 4666 
L 3928 4134 
L 2272 4134 
L 2272 0 
L 1638 0 
L 1638 4134 
L -19 4134 
L -19 4666 
z
" transform="scale(0.015625)"/>
       <path id="DejaVuSans-67" d="M 2906 1791 
Q 2906 2416 2648 2759 
Q 2391 3103 1925 3103 
Q 1463 3103 1205 2759 
Q 947 2416 947 1791 
Q 947 1169 1205 825 
Q 1463 481 1925 481 
Q 2391 481 2648 825 
Q 2906 1169 2906 1791 
z
M 3481 434 
Q 3481 -459 3084 -895 
Q 2688 -1331 1869 -1331 
Q 1566 -1331 1297 -1286 
Q 1028 -1241 775 -1147 
L 775 -588 
Q 1028 -725 1275 -790 
Q 1522 -856 1778 -856 
Q 2344 -856 2625 -561 
Q 2906 -266 2906 331 
L 2906 616 
Q 2728 306 2450 153 
Q 2172 0 1784 0 
Q 1141 0 747 490 
Q 353 981 353 1791 
Q 353 2603 747 3093 
Q 1141 3584 1784 3584 
Q 2172 3584 2450 3431 
Q 2728 3278 2906 2969 
L 2906 3500 
L 3481 3500 
L 3481 434 
z
" transform="scale(0.015625)"/>
      </defs>
      <use xlink:href="#DejaVuSans-54"/>
      <use xlink:href="#DejaVuSans-72" x="46.333984"/>
      <use xlink:href="#DejaVuSans-61" x="87.447266"/>
      <use xlink:href="#DejaVuSans-69" x="148.726562"/>
      <use xlink:href="#DejaVuSans-6e" x="176.509766"/>
      <use xlink:href="#DejaVuSans-69" x="239.888672"/>
      <use xlink:href="#DejaVuSans-6e" x="267.671875"/>
      <use xlink:href="#DejaVuSans-67" x="331.050781"/>
      <use xlink:href="#DejaVuSans-20" x="394.527344"/>
      <use xlink:href="#DejaVuSans-41" x="426.314453"/>
      <use xlink:href="#DejaVuSans-63" x="492.972656"/>
      <use xlink:href="#DejaVuSans-63" x="547.953125"/>
      <use xlink:href="#DejaVuSans-75" x="602.933594"/>
      <use xlink:href="#DejaVuSans-72" x="666.3125"/>
      <use xlink:href="#DejaVuSans-61" x="707.425781"/>
      <use xlink:href="#DejaVuSans-63" x="768.705078"/>
      <use xlink:href="#DejaVuSans-79" x="823.685547"/>
     </g>
    </g>
    <g id="line2d_28">
     <path d="M 187.565625 225.180312 
L 197.565625 225.180312 
L 207.565625 225.180312 
" style="fill: none; stroke: #ff0000; stroke-width: 0.6; stroke-linecap: square"/>
    </g>
    <g id="text_17">
     <!-- Validation Accuracy -->
     <g transform="translate(215.565625 228.680312) scale(0.1 -0.1)">
      <defs>
       <path id="DejaVuSans-56" d="M 1831 0 
L 50 4666 
L 709 4666 
L 2188 738 
L 3669 4666 
L 4325 4666 
L 2547 0 
L 1831 0 
z
" transform="scale(0.015625)"/>
       <path id="DejaVuSans-74" d="M 1172 4494 
L 1172 3500 
L 2356 3500 
L 2356 3053 
L 1172 3053 
L 1172 1153 
Q 1172 725 1289 603 
Q 1406 481 1766 481 
L 2356 481 
L 2356 0 
L 1766 0 
Q 1100 0 847 248 
Q 594 497 594 1153 
L 594 3053 
L 172 3053 
L 172 3500 
L 594 3500 
L 594 4494 
L 1172 4494 
z
" transform="scale(0.015625)"/>
      </defs>
      <use xlink:href="#DejaVuSans-56"/>
      <use xlink:href="#DejaVuSans-61" x="60.658203"/>
      <use xlink:href="#DejaVuSans-6c" x="121.9375"/>
      <use xlink:href="#DejaVuSans-69" x="149.720703"/>
      <use xlink:href="#DejaVuSans-64" x="177.503906"/>
      <use xlink:href="#DejaVuSans-61" x="240.980469"/>
      <use xlink:href="#DejaVuSans-74" x="302.259766"/>
      <use xlink:href="#DejaVuSans-69" x="341.46875"/>
      <use xlink:href="#DejaVuSans-6f" x="369.251953"/>
      <use xlink:href="#DejaVuSans-6e" x="430.433594"/>
      <use xlink:href="#DejaVuSans-20" x="493.8125"/>
      <use xlink:href="#DejaVuSans-41" x="525.599609"/>
      <use xlink:href="#DejaVuSans-63" x="592.257812"/>
      <use xlink:href="#DejaVuSans-63" x="647.238281"/>
      <use xlink:href="#DejaVuSans-75" x="702.21875"/>
      <use xlink:href="#DejaVuSans-72" x="765.597656"/>
      <use xlink:href="#DejaVuSans-61" x="806.710938"/>
      <use xlink:href="#DejaVuSans-63" x="867.990234"/>
      <use xlink:href="#DejaVuSans-79" x="922.970703"/>
     </g>
    </g>
   </g>
  </g>
  <g id="text_18">
   <!-- Training VS. Validation Accuracy - Dataset Size = 100.0% -->
   <g transform="translate(21.433984 15.558281) scale(0.11 -0.11)">
    <defs>
     <path id="DejaVuSans-53" d="M 3425 4513 
L 3425 3897 
Q 3066 4069 2747 4153 
Q 2428 4238 2131 4238 
Q 1616 4238 1336 4038 
Q 1056 3838 1056 3469 
Q 1056 3159 1242 3001 
Q 1428 2844 1947 2747 
L 2328 2669 
Q 3034 2534 3370 2195 
Q 3706 1856 3706 1288 
Q 3706 609 3251 259 
Q 2797 -91 1919 -91 
Q 1588 -91 1214 -16 
Q 841 59 441 206 
L 441 856 
Q 825 641 1194 531 
Q 1563 422 1919 422 
Q 2459 422 2753 634 
Q 3047 847 3047 1241 
Q 3047 1584 2836 1778 
Q 2625 1972 2144 2069 
L 1759 2144 
Q 1053 2284 737 2584 
Q 422 2884 422 3419 
Q 422 4038 858 4394 
Q 1294 4750 2059 4750 
Q 2388 4750 2728 4690 
Q 3069 4631 3425 4513 
z
" transform="scale(0.015625)"/>
     <path id="DejaVuSans-2d" d="M 313 2009 
L 1997 2009 
L 1997 1497 
L 313 1497 
L 313 2009 
z
" transform="scale(0.015625)"/>
     <path id="DejaVuSans-44" d="M 1259 4147 
L 1259 519 
L 2022 519 
Q 2988 519 3436 956 
Q 3884 1394 3884 2338 
Q 3884 3275 3436 3711 
Q 2988 4147 2022 4147 
L 1259 4147 
z
M 628 4666 
L 1925 4666 
Q 3281 4666 3915 4102 
Q 4550 3538 4550 2338 
Q 4550 1131 3912 565 
Q 3275 0 1925 0 
L 628 0 
L 628 4666 
z
" transform="scale(0.015625)"/>
     <path id="DejaVuSans-7a" d="M 353 3500 
L 3084 3500 
L 3084 2975 
L 922 459 
L 3084 459 
L 3084 0 
L 275 0 
L 275 525 
L 2438 3041 
L 353 3041 
L 353 3500 
z
" transform="scale(0.015625)"/>
     <path id="DejaVuSans-3d" d="M 678 2906 
L 4684 2906 
L 4684 2381 
L 678 2381 
L 678 2906 
z
M 678 1631 
L 4684 1631 
L 4684 1100 
L 678 1100 
L 678 1631 
z
" transform="scale(0.015625)"/>
     <path id="DejaVuSans-25" d="M 4653 2053 
Q 4381 2053 4226 1822 
Q 4072 1591 4072 1178 
Q 4072 772 4226 539 
Q 4381 306 4653 306 
Q 4919 306 5073 539 
Q 5228 772 5228 1178 
Q 5228 1588 5073 1820 
Q 4919 2053 4653 2053 
z
M 4653 2450 
Q 5147 2450 5437 2106 
Q 5728 1763 5728 1178 
Q 5728 594 5436 251 
Q 5144 -91 4653 -91 
Q 4153 -91 3862 251 
Q 3572 594 3572 1178 
Q 3572 1766 3864 2108 
Q 4156 2450 4653 2450 
z
M 1428 4353 
Q 1159 4353 1004 4120 
Q 850 3888 850 3481 
Q 850 3069 1003 2837 
Q 1156 2606 1428 2606 
Q 1700 2606 1854 2837 
Q 2009 3069 2009 3481 
Q 2009 3884 1853 4118 
Q 1697 4353 1428 4353 
z
M 4250 4750 
L 4750 4750 
L 1831 -91 
L 1331 -91 
L 4250 4750 
z
M 1428 4750 
Q 1922 4750 2215 4408 
Q 2509 4066 2509 3481 
Q 2509 2891 2217 2550 
Q 1925 2209 1428 2209 
Q 931 2209 642 2551 
Q 353 2894 353 3481 
Q 353 4063 643 4406 
Q 934 4750 1428 4750 
z
" transform="scale(0.015625)"/>
    </defs>
    <use xlink:href="#DejaVuSans-54"/>
    <use xlink:href="#DejaVuSans-72" x="46.333984"/>
    <use xlink:href="#DejaVuSans-61" x="87.447266"/>
    <use xlink:href="#DejaVuSans-69" x="148.726562"/>
    <use xlink:href="#DejaVuSans-6e" x="176.509766"/>
    <use xlink:href="#DejaVuSans-69" x="239.888672"/>
    <use xlink:href="#DejaVuSans-6e" x="267.671875"/>
    <use xlink:href="#DejaVuSans-67" x="331.050781"/>
    <use xlink:href="#DejaVuSans-20" x="394.527344"/>
    <use xlink:href="#DejaVuSans-56" x="426.314453"/>
    <use xlink:href="#DejaVuSans-53" x="494.722656"/>
    <use xlink:href="#DejaVuSans-2e" x="558.199219"/>
    <use xlink:href="#DejaVuSans-20" x="589.986328"/>
    <use xlink:href="#DejaVuSans-56" x="621.773438"/>
    <use xlink:href="#DejaVuSans-61" x="682.431641"/>
    <use xlink:href="#DejaVuSans-6c" x="743.710938"/>
    <use xlink:href="#DejaVuSans-69" x="771.494141"/>
    <use xlink:href="#DejaVuSans-64" x="799.277344"/>
    <use xlink:href="#DejaVuSans-61" x="862.753906"/>
    <use xlink:href="#DejaVuSans-74" x="924.033203"/>
    <use xlink:href="#DejaVuSans-69" x="963.242188"/>
    <use xlink:href="#DejaVuSans-6f" x="991.025391"/>
    <use xlink:href="#DejaVuSans-6e" x="1052.207031"/>
    <use xlink:href="#DejaVuSans-20" x="1115.585938"/>
    <use xlink:href="#DejaVuSans-41" x="1147.373047"/>
    <use xlink:href="#DejaVuSans-63" x="1214.03125"/>
    <use xlink:href="#DejaVuSans-63" x="1269.011719"/>
    <use xlink:href="#DejaVuSans-75" x="1323.992188"/>
    <use xlink:href="#DejaVuSans-72" x="1387.371094"/>
    <use xlink:href="#DejaVuSans-61" x="1428.484375"/>
    <use xlink:href="#DejaVuSans-63" x="1489.763672"/>
    <use xlink:href="#DejaVuSans-79" x="1544.744141"/>
    <use xlink:href="#DejaVuSans-20" x="1603.923828"/>
    <use xlink:href="#DejaVuSans-2d" x="1635.710938"/>
    <use xlink:href="#DejaVuSans-20" x="1671.794922"/>
    <use xlink:href="#DejaVuSans-44" x="1703.582031"/>
    <use xlink:href="#DejaVuSans-61" x="1780.583984"/>
    <use xlink:href="#DejaVuSans-74" x="1841.863281"/>
    <use xlink:href="#DejaVuSans-61" x="1881.072266"/>
    <use xlink:href="#DejaVuSans-73" x="1942.351562"/>
    <use xlink:href="#DejaVuSans-65" x="1994.451172"/>
    <use xlink:href="#DejaVuSans-74" x="2055.974609"/>
    <use xlink:href="#DejaVuSans-20" x="2095.183594"/>
    <use xlink:href="#DejaVuSans-53" x="2126.970703"/>
    <use xlink:href="#DejaVuSans-69" x="2190.447266"/>
    <use xlink:href="#DejaVuSans-7a" x="2218.230469"/>
    <use xlink:href="#DejaVuSans-65" x="2270.720703"/>
    <use xlink:href="#DejaVuSans-20" x="2332.244141"/>
    <use xlink:href="#DejaVuSans-3d" x="2364.03125"/>
    <use xlink:href="#DejaVuSans-20" x="2447.820312"/>
    <use xlink:href="#DejaVuSans-31" x="2479.607422"/>
    <use xlink:href="#DejaVuSans-30" x="2543.230469"/>
    <use xlink:href="#DejaVuSans-30" x="2606.853516"/>
    <use xlink:href="#DejaVuSans-2e" x="2670.476562"/>
    <use xlink:href="#DejaVuSans-30" x="2702.263672"/>
    <use xlink:href="#DejaVuSans-25" x="2765.886719"/>
   </g>
  </g>
 </g>
 <defs>
  <clipPath id="p1f538cdae9">
   <rect x="43.78125" y="37.296" width="279" height="202.464"/>
  </clipPath>
 </defs>
</svg>
