<?xml version="1.0" encoding="utf-8" standalone="no"?>
<!DOCTYPE svg PUBLIC "-//W3C//DTD SVG 1.1//EN"
  "http://www.w3.org/Graphics/SVG/1.1/DTD/svg11.dtd">
<svg xmlns:xlink="http://www.w3.org/1999/xlink" width="343.328516pt" height="277.31625pt" viewBox="0 0 343.328516 277.31625" xmlns="http://www.w3.org/2000/svg" version="1.1">
 <metadata>
  <rdf:RDF xmlns:dc="http://purl.org/dc/elements/1.1/" xmlns:cc="http://creativecommons.org/ns#" xmlns:rdf="http://www.w3.org/1999/02/22-rdf-syntax-ns#">
   <cc:Work>
    <dc:type rdf:resource="http://purl.org/dc/dcmitype/StillImage"/>
    <dc:date>2026-06-11T12:14:58.497104</dc:date>
    <dc:format>image/svg+xml</dc:format>
    <dc:creator>
     <cc:Agent>
      <dc:title>Matplotlib v3.8.4, https://matplotlib.org/</dc:title>
     </cc:Agent>
    </dc:creator>
   </cc:Work>
  </rdf:RDF>
 </metadata>
 <defs>
  <style type="text/css">*{stroke-linejoin: round; stroke-linecap: butt}</style>
 </defs>
 <g id="figure_1">
  <g id="patch_1">
   <path d="M 0 277.31625 
L 343.328516 277.31625 
L 343.328516 0 
L 0 0 
z
" style="fill: #ffffff"/>
  </g>
  <g id="axes_1">
   <g id="patch_2">
    <path d="M 43.78125 239.76 
L 322.78125 239.76 
L 322.78125 37.296 
L 43.78125 37.296 
z
" style="fill: #ffffff"/>
   </g>
   <g id="matplotlib.axis_1">
    <g id="xtick_1">
     <g id="line2d_1">
      <path d="M 56.209178 239.76 
L 56.209178 37.296 
" clip-path="url(#p5fec1e7a8b)" style="fill: none; stroke-dasharray: 2.96,1.28; stroke-dashoffset: 0; stroke: #b0b0b0; stroke-opacity: 0.4; stroke-width: 0.8"/>
     </g>
     <g id="line2d_2">
      <defs>
       <path id="md54cc37849" d="M 0 0 
L 0 3.5 
" style="stroke: #000000; stroke-width: 0.8"/>
      </defs>
      <g>
       <use xlink:href="#md54cc37849" x="56.209178" y="239.76" style="stroke: #000000; stroke-width: 0.8"/>
      </g>
     </g>
     <g id="text_1">
      <!-- 0 -->
      <g transform="translate(53.027928 254.358437) scale(0.1 -0.1)">
       <defs>
        <path id="DejaVuSans-30" d="M 2034 4250 
Q 1547 4250 1301 3770 
Q 1056 3291 1056 2328 
Q 1056 1369 1301 889 
Q 1547 409 2034 409 
Q 2525 409 2770 889 
Q 3016 1369 3016 2328 
Q 3016 3291 2770 3770 
Q 2525 4250 2034 4250 
z
M 2034 4750 
Q 2819 4750 3233 4129 
Q 3647 3509 3647 2328 
Q 3647 1150 3233 529 
Q 2819 -91 2034 -91 
Q 1250 -91 836 529 
Q 422 1150 422 2328 
Q 422 3509 836 4129 
Q 1250 4750 2034 4750 
z
" transform="scale(0.015625)"/>
       </defs>
       <use xlink:href="#DejaVuSans-30"/>
      </g>
     </g>
    </g>
    <g id="xtick_2">
     <g id="line2d_3">
      <path d="M 106.987229 239.76 
L 106.987229 37.296 
" clip-path="url(#p5fec1e7a8b)" style="fill: none; stroke-dasharray: 2.96,1.28; stroke-dashoffset: 0; stroke: #b0b0b0; stroke-opacity: 0.4; stroke-width: 0.8"/>
     </g>
     <g id="line2d_4">
      <g>
       <use xlink:href="#md54cc37849" x="106.987229" y="239.76" style="stroke: #000000; stroke-width: 0.8"/>
      </g>
     </g>
     <g id="text_2">
      <!-- 200 -->
      <g transform="translate(97.443479 254.358437) scale(0.1 -0.1)">
       <defs>
        <path id="DejaVuSans-32" d="M 1228 531 
L 3431 531 
L 3431 0 
L 469 0 
L 469 531 
Q 828 903 1448 1529 
Q 2069 2156 2228 2338 
Q 2531 2678 2651 2914 
Q 2772 3150 2772 3378 
Q 2772 3750 2511 3984 
Q 2250 4219 1831 4219 
Q 1534 4219 1204 4116 
Q 875 4013 500 3803 
L 500 4441 
Q 881 4594 1212 4672 
Q 1544 4750 1819 4750 
Q 2544 4750 2975 4387 
Q 3406 4025 3406 3419 
Q 3406 3131 3298 2873 
Q 3191 2616 2906 2266 
Q 2828 2175 2409 1742 
Q 1991 1309 1228 531 
z
" transform="scale(0.015625)"/>
       </defs>
       <use xlink:href="#DejaVuSans-32"/>
       <use xlink:href="#DejaVuSans-30" x="63.623047"/>
       <use xlink:href="#DejaVuSans-30" x="127.246094"/>
      </g>
     </g>
    </g>
    <g id="xtick_3">
     <g id="line2d_5">
      <path d="M 157.765279 239.76 
L 157.765279 37.296 
" clip-path="url(#p5fec1e7a8b)" style="fill: none; stroke-dasharray: 2.96,1.28; stroke-dashoffset: 0; stroke: #b0b0b0; stroke-opacity: 0.4; stroke-width: 0.8"/>
     </g>
     <g id="line2d_6">
      <g>
       <use xlink:href="#md54cc37849" x="157.765279" y="239.76" style="stroke: #000000; stroke-width: 0.8"/>
      </g>
     </g>
     <g id="text_3">
      <!-- 400 -->
      <g transform="translate(148.221529 254.358437) scale(0.1 -0.1)">
       <defs>
        <path id="DejaVuSans-34" d="M 2419 4116 
L 825 1625 
L 2419 1625 
L 2419 4116 
z
M 2253 4666 
L 3047 4666 
L 3047 1625 
L 3713 1625 
L 3713 1100 
L 3047 1100 
L 3047 0 
L 2419 0 
L 2419 1100 
L 313 1100 
L 313 1709 
L 2253 4666 
z
" transform="scale(0.015625)"/>
       </defs>
       <use xlink:href="#DejaVuSans-34"/>
       <use xlink:href="#DejaVuSans-30" x="63.623047"/>
       <use xlink:href="#DejaVuSans-30" x="127.246094"/>
      </g>
     </g>
    </g>
    <g id="xtick_4">
     <g id="line2d_7">
      <path d="M 208.54333 239.76 
L 208.54333 37.296 
" clip-path="url(#p5fec1e7a8b)" style="fill: none; stroke-dasharray: 2.96,1.28; stroke-dashoffset: 0; stroke: #b0b0b0; stroke-opacity: 0.4; stroke-width: 0.8"/>
     </g>
     <g id="line2d_8">
      <g>
       <use xlink:href="#md54cc37849" x="208.54333" y="239.76" style="stroke: #000000; stroke-width: 0.8"/>
      </g>
     </g>
     <g id="text_4">
      <!-- 600 -->
      <g transform="translate(198.99958 254.358437) scale(0.1 -0.1)">
       <defs>
        <path id="DejaVuSans-36" d="M 2113 2584 
Q 1688 2584 1439 2293 
Q 1191 2003 1191 1497 
Q 1191 994 1439 701 
Q 1688 409 2113 409 
Q 2538 409 2786 701 
Q 3034 994 3034 1497 
Q 3034 2003 2786 2293 
Q 2538 2584 2113 2584 
z
M 3366 4563 
L 3366 3988 
Q 3128 4100 2886 4159 
Q 2644 4219 2406 4219 
Q 1781 4219 1451 3797 
Q 1122 3375 1075 2522 
Q 1259 2794 1537 2939 
Q 1816 3084 2150 3084 
Q 2853 3084 3261 2657 
Q 3669 2231 3669 1497 
Q 3669 778 3244 343 
Q 2819 -91 2113 -91 
Q 1303 -91 875 529 
Q 447 1150 447 2328 
Q 447 3434 972 4092 
Q 1497 4750 2381 4750 
Q 2619 4750 2861 4703 
Q 3103 4656 3366 4563 
z
" transform="scale(0.015625)"/>
       </defs>
       <use xlink:href="#DejaVuSans-36"/>
       <use xlink:href="#DejaVuSans-30" x="63.623047"/>
       <use xlink:href="#DejaVuSans-30" x="127.246094"/>
      </g>
     </g>
    </g>
    <g id="xtick_5">
     <g id="line2d_9">
      <path d="M 259.321381 239.76 
L 259.321381 37.296 
" clip-path="url(#p5fec1e7a8b)" style="fill: none; stroke-dasharray: 2.96,1.28; stroke-dashoffset: 0; stroke: #b0b0b0; stroke-opacity: 0.4; stroke-width: 0.8"/>
     </g>
     <g id="line2d_10">
      <g>
       <use xlink:href="#md54cc37849" x="259.321381" y="239.76" style="stroke: #000000; stroke-width: 0.8"/>
      </g>
     </g>
     <g id="text_5">
      <!-- 800 -->
      <g transform="translate(249.777631 254.358437) scale(0.1 -0.1)">
       <defs>
        <path id="DejaVuSans-38" d="M 2034 2216 
Q 1584 2216 1326 1975 
Q 1069 1734 1069 1313 
Q 1069 891 1326 650 
Q 1584 409 2034 409 
Q 2484 409 2743 651 
Q 3003 894 3003 1313 
Q 3003 1734 2745 1975 
Q 2488 2216 2034 2216 
z
M 1403 2484 
Q 997 2584 770 2862 
Q 544 3141 544 3541 
Q 544 4100 942 4425 
Q 1341 4750 2034 4750 
Q 2731 4750 3128 4425 
Q 3525 4100 3525 3541 
Q 3525 3141 3298 2862 
Q 3072 2584 2669 2484 
Q 3125 2378 3379 2068 
Q 3634 1759 3634 1313 
Q 3634 634 3220 271 
Q 2806 -91 2034 -91 
Q 1263 -91 848 271 
Q 434 634 434 1313 
Q 434 1759 690 2068 
Q 947 2378 1403 2484 
z
M 1172 3481 
Q 1172 3119 1398 2916 
Q 1625 2713 2034 2713 
Q 2441 2713 2670 2916 
Q 2900 3119 2900 3481 
Q 2900 3844 2670 4047 
Q 2441 4250 2034 4250 
Q 1625 4250 1398 4047 
Q 1172 3844 1172 3481 
z
" transform="scale(0.015625)"/>
       </defs>
       <use xlink:href="#DejaVuSans-38"/>
       <use xlink:href="#DejaVuSans-30" x="63.623047"/>
       <use xlink:href="#DejaVuSans-30" x="127.246094"/>
      </g>
     </g>
    </g>
    <g id="xtick_6">
     <g id="line2d_11">
      <path d="M 310.099432 239.76 
L 310.099432 37.296 
" clip-path="url(#p5fec1e7a8b)" style="fill: none; stroke-dasharray: 2.96,1.28; stroke-dashoffset: 0; stroke: #b0b0b0; stroke-opacity: 0.4; stroke-width: 0.8"/>
     </g>
     <g id="line2d_12">
      <g>
       <use xlink:href="#md54cc37849" x="310.099432" y="239.76" style="stroke: #000000; stroke-width: 0.8"/>
      </g>
     </g>
     <g id="text_6">
      <!-- 1000 -->
      <g transform="translate(297.374432 254.358437) scale(0.1 -0.1)">
       <defs>
        <path id="DejaVuSans-31" d="M 794 531 
L 1825 531 
L 1825 4091 
L 703 3866 
L 703 4441 
L 1819 4666 
L 2450 4666 
L 2450 531 
L 3481 531 
L 3481 0 
L 794 0 
L 794 531 
z
" transform="scale(0.015625)"/>
       </defs>
       <use xlink:href="#DejaVuSans-31"/>
       <use xlink:href="#DejaVuSans-30" x="63.623047"/>
       <use xlink:href="#DejaVuSans-30" x="127.246094"/>
       <use xlink:href="#DejaVuSans-30" x="190.869141"/>
      </g>
     </g>
    </g>
    <g id="text_7">
     <!-- Epochs -->
     <g transform="translate(165.365625 268.036562) scale(0.1 -0.1)">
      <defs>
       <path id="DejaVuSans-45" d="M 628 4666 
L 3578 4666 
L 3578 4134 
L 1259 4134 
L 1259 2753 
L 3481 2753 
L 3481 2222 
L 1259 2222 
L 1259 531 
L 3634 531 
L 3634 0 
L 628 0 
L 628 4666 
z
" transform="scale(0.015625)"/>
       <path id="DejaVuSans-70" d="M 1159 525 
L 1159 -1331 
L 581 -1331 
L 581 3500 
L 1159 3500 
L 1159 2969 
Q 1341 3281 1617 3432 
Q 1894 3584 2278 3584 
Q 2916 3584 3314 3078 
Q 3713 2572 3713 1747 
Q 3713 922 3314 415 
Q 2916 -91 2278 -91 
Q 1894 -91 1617 61 
Q 1341 213 1159 525 
z
M 3116 1747 
Q 3116 2381 2855 2742 
Q 2594 3103 2138 3103 
Q 1681 3103 1420 2742 
Q 1159 2381 1159 1747 
Q 1159 1113 1420 752 
Q 1681 391 2138 391 
Q 2594 391 2855 752 
Q 3116 1113 3116 1747 
z
" transform="scale(0.015625)"/>
       <path id="DejaVuSans-6f" d="M 1959 3097 
Q 1497 3097 1228 2736 
Q 959 2375 959 1747 
Q 959 1119 1226 758 
Q 1494 397 1959 397 
Q 2419 397 2687 759 
Q 2956 1122 2956 1747 
Q 2956 2369 2687 2733 
Q 2419 3097 1959 3097 
z
M 1959 3584 
Q 2709 3584 3137 3096 
Q 3566 2609 3566 1747 
Q 3566 888 3137 398 
Q 2709 -91 1959 -91 
Q 1206 -91 779 398 
Q 353 888 353 1747 
Q 353 2609 779 3096 
Q 1206 3584 1959 3584 
z
" transform="scale(0.015625)"/>
       <path id="DejaVuSans-63" d="M 3122 3366 
L 3122 2828 
Q 2878 2963 2633 3030 
Q 2388 3097 2138 3097 
Q 1578 3097 1268 2742 
Q 959 2388 959 1747 
Q 959 1106 1268 751 
Q 1578 397 2138 397 
Q 2388 397 2633 464 
Q 2878 531 3122 666 
L 3122 134 
Q 2881 22 2623 -34 
Q 2366 -91 2075 -91 
Q 1284 -91 818 406 
Q 353 903 353 1747 
Q 353 2603 823 3093 
Q 1294 3584 2113 3584 
Q 2378 3584 2631 3529 
Q 2884 3475 3122 3366 
z
" transform="scale(0.015625)"/>
       <path id="DejaVuSans-68" d="M 3513 2113 
L 3513 0 
L 2938 0 
L 2938 2094 
Q 2938 2591 2744 2837 
Q 2550 3084 2163 3084 
Q 1697 3084 1428 2787 
Q 1159 2491 1159 1978 
L 1159 0 
L 581 0 
L 581 4863 
L 1159 4863 
L 1159 2956 
Q 1366 3272 1645 3428 
Q 1925 3584 2291 3584 
Q 2894 3584 3203 3211 
Q 3513 2838 3513 2113 
z
" transform="scale(0.015625)"/>
       <path id="DejaVuSans-73" d="M 2834 3397 
L 2834 2853 
Q 2591 2978 2328 3040 
Q 2066 3103 1784 3103 
Q 1356 3103 1142 2972 
Q 928 2841 928 2578 
Q 928 2378 1081 2264 
Q 1234 2150 1697 2047 
L 1894 2003 
Q 2506 1872 2764 1633 
Q 3022 1394 3022 966 
Q 3022 478 2636 193 
Q 2250 -91 1575 -91 
Q 1294 -91 989 -36 
Q 684 19 347 128 
L 347 722 
Q 666 556 975 473 
Q 1284 391 1588 391 
Q 1994 391 2212 530 
Q 2431 669 2431 922 
Q 2431 1156 2273 1281 
Q 2116 1406 1581 1522 
L 1381 1569 
Q 847 1681 609 1914 
Q 372 2147 372 2553 
Q 372 3047 722 3315 
Q 1072 3584 1716 3584 
Q 2034 3584 2315 3537 
Q 2597 3491 2834 3397 
z
" transform="scale(0.015625)"/>
      </defs>
      <use xlink:href="#DejaVuSans-45"/>
      <use xlink:href="#DejaVuSans-70" x="63.183594"/>
      <use xlink:href="#DejaVuSans-6f" x="126.660156"/>
      <use xlink:href="#DejaVuSans-63" x="187.841797"/>
      <use xlink:href="#DejaVuSans-68" x="242.822266"/>
      <use xlink:href="#DejaVuSans-73" x="306.201172"/>
     </g>
    </g>
   </g>
   <g id="matplotlib.axis_2">
    <g id="ytick_1">
     <g id="line2d_13">
      <path d="M 43.78125 227.515672 
L 322.78125 227.515672 
" clip-path="url(#p5fec1e7a8b)" style="fill: none; stroke-dasharray: 2.96,1.28; stroke-dashoffset: 0; stroke: #b0b0b0; stroke-opacity: 0.4; stroke-width: 0.8"/>
     </g>
     <g id="line2d_14">
      <defs>
       <path id="m2840b37a65" d="M 0 0 
L -3.5 0 
" style="stroke: #000000; stroke-width: 0.8"/>
      </defs>
      <g>
       <use xlink:href="#m2840b37a65" x="43.78125" y="227.515672" style="stroke: #000000; stroke-width: 0.8"/>
      </g>
     </g>
     <g id="text_8">
      <!-- 0.5 -->
      <g transform="translate(20.878125 231.314891) scale(0.1 -0.1)">
       <defs>
        <path id="DejaVuSans-2e" d="M 684 794 
L 1344 794 
L 1344 0 
L 684 0 
L 684 794 
z
" transform="scale(0.015625)"/>
        <path id="DejaVuSans-35" d="M 691 4666 
L 3169 4666 
L 3169 4134 
L 1269 4134 
L 1269 2991 
Q 1406 3038 1543 3061 
Q 1681 3084 1819 3084 
Q 2600 3084 3056 2656 
Q 3513 2228 3513 1497 
Q 3513 744 3044 326 
Q 2575 -91 1722 -91 
Q 1428 -91 1123 -41 
Q 819 9 494 109 
L 494 744 
Q 775 591 1075 516 
Q 1375 441 1709 441 
Q 2250 441 2565 725 
Q 2881 1009 2881 1497 
Q 2881 1984 2565 2268 
Q 2250 2553 1709 2553 
Q 1456 2553 1204 2497 
Q 953 2441 691 2322 
L 691 4666 
z
" transform="scale(0.015625)"/>
       </defs>
       <use xlink:href="#DejaVuSans-30"/>
       <use xlink:href="#DejaVuSans-2e" x="63.623047"/>
       <use xlink:href="#DejaVuSans-35" x="95.410156"/>
      </g>
     </g>
    </g>
    <g id="ytick_2">
     <g id="line2d_15">
      <path d="M 43.78125 190.326483 
L 322.78125 190.326483 
" clip-path="url(#p5fec1e7a8b)" style="fill: none; stroke-dasharray: 2.96,1.28; stroke-dashoffset: 0; stroke: #b0b0b0; stroke-opacity: 0.4; stroke-width: 0.8"/>
     </g>
     <g id="line2d_16">
      <g>
       <use xlink:href="#m2840b37a65" x="43.78125" y="190.326483" style="stroke: #000000; stroke-width: 0.8"/>
      </g>
     </g>
     <g id="text_9">
      <!-- 0.6 -->
      <g transform="translate(20.878125 194.125701) scale(0.1 -0.1)">
       <use xlink:href="#DejaVuSans-30"/>
       <use xlink:href="#DejaVuSans-2e" x="63.623047"/>
       <use xlink:href="#DejaVuSans-36" x="95.410156"/>
      </g>
     </g>
    </g>
    <g id="ytick_3">
     <g id="line2d_17">
      <path d="M 43.78125 153.137294 
L 322.78125 153.137294 
" clip-path="url(#p5fec1e7a8b)" style="fill: none; stroke-dasharray: 2.96,1.28; stroke-dashoffset: 0; stroke: #b0b0b0; stroke-opacity: 0.4; stroke-width: 0.8"/>
     </g>
     <g id="line2d_18">
      <g>
       <use xlink:href="#m2840b37a65" x="43.78125" y="153.137294" style="stroke: #000000; stroke-width: 0.8"/>
      </g>
     </g>
     <g id="text_10">
      <!-- 0.7 -->
      <g transform="translate(20.878125 156.936512) scale(0.1 -0.1)">
       <defs>
        <path id="DejaVuSans-37" d="M 525 4666 
L 3525 4666 
L 3525 4397 
L 1831 0 
L 1172 0 
L 2766 4134 
L 525 4134 
L 525 4666 
z
" transform="scale(0.015625)"/>
       </defs>
       <use xlink:href="#DejaVuSans-30"/>
       <use xlink:href="#DejaVuSans-2e" x="63.623047"/>
       <use xlink:href="#DejaVuSans-37" x="95.410156"/>
      </g>
     </g>
    </g>
    <g id="ytick_4">
     <g id="line2d_19">
      <path d="M 43.78125 115.948104 
L 322.78125 115.948104 
" clip-path="url(#p5fec1e7a8b)" style="fill: none; stroke-dasharray: 2.96,1.28; stroke-dashoffset: 0; stroke: #b0b0b0; stroke-opacity: 0.4; stroke-width: 0.8"/>
     </g>
     <g id="line2d_20">
      <g>
       <use xlink:href="#m2840b37a65" x="43.78125" y="115.948104" style="stroke: #000000; stroke-width: 0.8"/>
      </g>
     </g>
     <g id="text_11">
      <!-- 0.8 -->
      <g transform="translate(20.878125 119.747323) scale(0.1 -0.1)">
       <use xlink:href="#DejaVuSans-30"/>
       <use xlink:href="#DejaVuSans-2e" x="63.623047"/>
       <use xlink:href="#DejaVuSans-38" x="95.410156"/>
      </g>
     </g>
    </g>
    <g id="ytick_5">
     <g id="line2d_21">
      <path d="M 43.78125 78.758915 
L 322.78125 78.758915 
" clip-path="url(#p5fec1e7a8b)" style="fill: none; stroke-dasharray: 2.96,1.28; stroke-dashoffset: 0; stroke: #b0b0b0; stroke-opacity: 0.4; stroke-width: 0.8"/>
     </g>
     <g id="line2d_22">
      <g>
       <use xlink:href="#m2840b37a65" x="43.78125" y="78.758915" style="stroke: #000000; stroke-width: 0.8"/>
      </g>
     </g>
     <g id="text_12">
      <!-- 0.9 -->
      <g transform="translate(20.878125 82.558134) scale(0.1 -0.1)">
       <defs>
        <path id="DejaVuSans-39" d="M 703 97 
L 703 672 
Q 941 559 1184 500 
Q 1428 441 1663 441 
Q 2288 441 2617 861 
Q 2947 1281 2994 2138 
Q 2813 1869 2534 1725 
Q 2256 1581 1919 1581 
Q 1219 1581 811 2004 
Q 403 2428 403 3163 
Q 403 3881 828 4315 
Q 1253 4750 1959 4750 
Q 2769 4750 3195 4129 
Q 3622 3509 3622 2328 
Q 3622 1225 3098 567 
Q 2575 -91 1691 -91 
Q 1453 -91 1209 -44 
Q 966 3 703 97 
z
M 1959 2075 
Q 2384 2075 2632 2365 
Q 2881 2656 2881 3163 
Q 2881 3666 2632 3958 
Q 2384 4250 1959 4250 
Q 1534 4250 1286 3958 
Q 1038 3666 1038 3163 
Q 1038 2656 1286 2365 
Q 1534 2075 1959 2075 
z
" transform="scale(0.015625)"/>
       </defs>
       <use xlink:href="#DejaVuSans-30"/>
       <use xlink:href="#DejaVuSans-2e" x="63.623047"/>
       <use xlink:href="#DejaVuSans-39" x="95.410156"/>
      </g>
     </g>
    </g>
    <g id="ytick_6">
     <g id="line2d_23">
      <path d="M 43.78125 41.569726 
L 322.78125 41.569726 
" clip-path="url(#p5fec1e7a8b)" style="fill: none; stroke-dasharray: 2.96,1.28; stroke-dashoffset: 0; stroke: #b0b0b0; stroke-opacity: 0.4; stroke-width: 0.8"/>
     </g>
     <g id="line2d_24">
      <g>
       <use xlink:href="#m2840b37a65" x="43.78125" y="41.569726" style="stroke: #000000; stroke-width: 0.8"/>
      </g>
     </g>
     <g id="text_13">
      <!-- 1.0 -->
      <g transform="translate(20.878125 45.368945) scale(0.1 -0.1)">
       <use xlink:href="#DejaVuSans-31"/>
       <use xlink:href="#DejaVuSans-2e" x="63.623047"/>
       <use xlink:href="#DejaVuSans-30" x="95.410156"/>
      </g>
     </g>
    </g>
    <g id="text_14">
     <!-- Accuracy -->
     <g transform="translate(14.798438 161.356125) rotate(-90) scale(0.1 -0.1)">
      <defs>
       <path id="DejaVuSans-41" d="M 2188 4044 
L 1331 1722 
L 3047 1722 
L 2188 4044 
z
M 1831 4666 
L 2547 4666 
L 4325 0 
L 3669 0 
L 3244 1197 
L 1141 1197 
L 716 0 
L 50 0 
L 1831 4666 
z
" transform="scale(0.015625)"/>
       <path id="DejaVuSans-75" d="M 544 1381 
L 544 3500 
L 1119 3500 
L 1119 1403 
Q 1119 906 1312 657 
Q 1506 409 1894 409 
Q 2359 409 2629 706 
Q 2900 1003 2900 1516 
L 2900 3500 
L 3475 3500 
L 3475 0 
L 2900 0 
L 2900 538 
Q 2691 219 2414 64 
Q 2138 -91 1772 -91 
Q 1169 -91 856 284 
Q 544 659 544 1381 
z
M 1991 3584 
L 1991 3584 
z
" transform="scale(0.015625)"/>
       <path id="DejaVuSans-72" d="M 2631 2963 
Q 2534 3019 2420 3045 
Q 2306 3072 2169 3072 
Q 1681 3072 1420 2755 
Q 1159 2438 1159 1844 
L 1159 0 
L 581 0 
L 581 3500 
L 1159 3500 
L 1159 2956 
Q 1341 3275 1631 3429 
Q 1922 3584 2338 3584 
Q 2397 3584 2469 3576 
Q 2541 3569 2628 3553 
L 2631 2963 
z
" transform="scale(0.015625)"/>
       <path id="DejaVuSans-61" d="M 2194 1759 
Q 1497 1759 1228 1600 
Q 959 1441 959 1056 
Q 959 750 1161 570 
Q 1363 391 1709 391 
Q 2188 391 2477 730 
Q 2766 1069 2766 1631 
L 2766 1759 
L 2194 1759 
z
M 3341 1997 
L 3341 0 
L 2766 0 
L 2766 531 
Q 2569 213 2275 61 
Q 1981 -91 1556 -91 
Q 1019 -91 701 211 
Q 384 513 384 1019 
Q 384 1609 779 1909 
Q 1175 2209 1959 2209 
L 2766 2209 
L 2766 2266 
Q 2766 2663 2505 2880 
Q 2244 3097 1772 3097 
Q 1472 3097 1187 3025 
Q 903 2953 641 2809 
L 641 3341 
Q 956 3463 1253 3523 
Q 1550 3584 1831 3584 
Q 2591 3584 2966 3190 
Q 3341 2797 3341 1997 
z
" transform="scale(0.015625)"/>
       <path id="DejaVuSans-79" d="M 2059 -325 
Q 1816 -950 1584 -1140 
Q 1353 -1331 966 -1331 
L 506 -1331 
L 506 -850 
L 844 -850 
Q 1081 -850 1212 -737 
Q 1344 -625 1503 -206 
L 1606 56 
L 191 3500 
L 800 3500 
L 1894 763 
L 2988 3500 
L 3597 3500 
L 2059 -325 
z
" transform="scale(0.015625)"/>
      </defs>
      <use xlink:href="#DejaVuSans-41"/>
      <use xlink:href="#DejaVuSans-63" x="66.658203"/>
      <use xlink:href="#DejaVuSans-63" x="121.638672"/>
      <use xlink:href="#DejaVuSans-75" x="176.619141"/>
      <use xlink:href="#DejaVuSans-72" x="239.998047"/>
      <use xlink:href="#DejaVuSans-61" x="281.111328"/>
      <use xlink:href="#DejaVuSans-63" x="342.390625"/>
      <use xlink:href="#DejaVuSans-79" x="397.371094"/>
     </g>
    </g>
   </g>
   <g id="line2d_25">
    <path d="M 56.463068 230.557091 
L 56.970849 214.930495 
L 57.224739 206.435501 
L 57.478629 205.386738 
L 57.732519 198.674638 
L 57.98641 196.891743 
L 58.2403 184.726089 
L 58.49419 180.006646 
L 59.001971 150.85098 
L 59.763641 124.107494 
L 60.779202 109.949162 
L 61.033093 110.578424 
L 61.286983 113.095473 
L 61.540873 105.544371 
L 61.794764 106.068742 
L 62.048654 100.195665 
L 62.302544 103.761455 
L 62.556434 98.937141 
L 62.810325 99.356642 
L 63.064215 102.188321 
L 63.318105 99.461533 
L 63.571995 95.056721 
L 63.825886 97.364008 
L 64.079776 95.685983 
L 64.587556 89.917776 
L 64.841447 91.80554 
L 65.095337 90.547038 
L 65.349227 90.861647 
L 65.603117 87.400727 
L 66.110898 86.876357 
L 66.364788 88.973883 
L 66.618678 85.617833 
L 66.872569 86.561726 
L 67.126459 86.876357 
L 67.380349 84.4642 
L 67.634239 84.359308 
L 67.88813 82.052043 
L 68.14202 82.576414 
L 68.39591 80.793519 
L 68.6498 85.722702 
L 69.157581 82.366674 
L 69.411471 81.947152 
L 69.665361 80.583758 
L 69.919252 82.786175 
L 70.173142 82.681283 
L 70.427032 78.591124 
L 70.680922 80.059387 
L 70.934813 76.913099 
L 71.442593 79.430125 
L 71.696483 78.800863 
L 71.950374 79.115494 
L 72.458154 77.64723 
L 72.712044 77.64723 
L 72.965935 75.444813 
L 73.219825 77.332599 
L 73.473715 76.283836 
L 73.727605 77.122838 
L 73.981496 74.605811 
L 74.235386 76.703337 
L 74.489276 75.235074 
L 74.743166 76.493576 
L 74.997057 72.822917 
L 75.504837 75.130182 
L 75.758727 73.242418 
L 76.012618 75.654574 
L 76.266508 72.088763 
L 76.520398 71.669262 
L 76.774288 72.822917 
L 77.028179 69.781498 
L 77.282069 71.144892 
L 77.535959 73.242418 
L 77.78985 73.557049 
L 78.04374 69.991237 
L 78.29763 72.822917 
L 78.55152 71.249761 
L 78.805411 71.774154 
L 79.059301 71.459523 
L 79.313191 72.403394 
L 79.567081 70.830261 
L 79.820972 67.998581 
L 80.074862 71.249761 
L 80.328752 71.564393 
L 80.582642 73.137548 
L 80.836533 68.942474 
L 81.090423 67.893711 
L 81.598203 70.725369 
L 81.852094 68.942474 
L 82.105984 70.620499 
L 82.613764 69.991237 
L 82.867655 67.57908 
L 83.121545 61.286503 
L 83.375435 62.649897 
L 83.883216 60.23774 
L 84.137106 59.923109 
L 84.390996 62.125505 
L 84.644886 62.754767 
L 84.898777 59.818217 
L 85.152667 62.230396 
L 85.406557 61.181611 
L 85.660447 60.867002 
L 85.914338 60.971872 
L 86.168228 60.132848 
L 86.422118 62.649897 
L 86.676008 62.440136 
L 86.929899 59.293847 
L 87.183789 61.286503 
L 87.437679 62.230396 
L 87.691569 59.923109 
L 87.94546 58.979216 
L 88.19935 59.293847 
L 88.45324 59.923109 
L 88.70713 58.874346 
L 88.961021 59.084086 
L 89.214911 59.923109 
L 89.976582 57.406061 
L 90.484362 61.810873 
L 90.738252 58.454823 
L 90.992143 58.035323 
L 91.246033 59.923109 
L 91.499923 59.923109 
L 91.753813 56.776821 
L 92.007704 60.027979 
L 92.261594 58.245084 
L 92.515484 57.720692 
L 92.769374 56.88169 
L 93.023265 59.503608 
L 93.277155 59.398717 
L 93.531045 57.406061 
L 93.784936 57.720692 
L 94.038826 57.510952 
L 94.292716 57.510952 
L 94.546606 57.09143 
L 94.800497 58.979216 
L 95.054387 57.196321 
L 95.308277 56.776821 
L 95.562167 55.308535 
L 95.816058 56.46219 
L 96.069948 55.308535 
L 96.323838 55.098796 
L 96.577728 55.203665 
L 97.085509 53.840271 
L 97.339399 53.840271 
L 97.593289 53.52564 
L 97.84718 50.798852 
L 98.10107 54.993904 
L 98.35496 53.735402 
L 98.60885 53.10614 
L 98.862741 53.52564 
L 99.116631 52.476877 
L 99.370521 54.574403 
L 99.624411 54.784165 
L 99.878302 52.057377 
L 100.386082 53.420771 
L 100.639972 52.162246 
L 100.893863 53.00127 
L 101.401643 55.203665 
L 101.655533 52.896378 
L 101.909424 54.679273 
L 102.163314 52.896378 
L 102.417204 53.945141 
L 102.671094 53.840271 
L 102.924985 54.154902 
L 103.178875 54.259772 
L 103.432765 54.050033 
L 103.686655 54.050033 
L 103.940546 53.840271 
L 104.194436 53.315879 
L 104.702216 54.154902 
L 104.956107 53.10614 
L 105.209997 55.098796 
L 105.463887 53.735402 
L 105.717777 54.259772 
L 106.225558 52.896378 
L 106.479448 54.154902 
L 106.733338 54.364664 
L 106.987229 54.154902 
L 107.241119 53.63051 
L 107.495009 54.050033 
L 107.748899 51.742746 
L 108.00279 54.154902 
L 108.25668 53.10614 
L 108.51057 53.00127 
L 108.76446 51.323245 
L 109.018351 53.00127 
L 109.272241 51.008614 
L 109.526131 52.162246 
L 109.780021 51.323245 
L 110.033912 51.008614 
L 110.287802 49.540328 
L 110.541692 51.742746 
L 111.049473 51.847615 
L 111.303363 49.64522 
L 111.811144 52.476877 
L 112.065034 52.267116 
L 112.318924 51.008614 
L 112.572814 52.791508 
L 112.826705 51.218353 
L 113.080595 50.484221 
L 113.334485 52.476877 
L 113.588375 51.847615 
L 113.842266 52.162246 
L 114.096156 50.064721 
L 114.350046 51.113483 
L 114.603936 51.637876 
L 114.857827 49.854959 
L 115.111717 50.274482 
L 115.365607 50.064721 
L 115.619497 50.693983 
L 115.873388 50.798852 
L 116.127278 51.742746 
L 116.381168 49.64522 
L 116.635058 50.16959 
L 116.888949 49.959851 
L 117.142839 52.057377 
L 117.396729 49.854959 
L 117.90451 49.435458 
L 118.1584 53.00127 
L 118.41229 50.274482 
L 118.66618 51.008614 
L 118.920071 49.540328 
L 119.173961 50.064721 
L 119.427851 51.532984 
L 119.681741 50.484221 
L 119.935632 50.798852 
L 120.189522 50.379352 
L 120.443412 51.113483 
L 120.697302 51.323245 
L 120.951193 50.903722 
L 121.205083 49.435458 
L 121.458973 49.854959 
L 121.712863 48.806196 
L 121.966754 50.16959 
L 122.220644 48.491565 
L 122.474534 49.225697 
L 122.728424 50.693983 
L 123.236205 49.015958 
L 123.743985 50.16959 
L 123.997876 50.064721 
L 124.251766 49.750089 
L 124.505656 49.959851 
L 124.759546 49.435458 
L 125.013437 49.435458 
L 125.267327 50.484221 
L 125.521217 48.806196 
L 125.775107 50.903722 
L 126.028998 49.959851 
L 126.282888 51.113483 
L 126.536778 49.540328 
L 126.790669 51.008614 
L 127.044559 50.484221 
L 127.298449 49.015958 
L 127.552339 48.701327 
L 127.80623 50.064721 
L 128.06012 49.750089 
L 128.31401 49.120827 
L 128.5679 50.064721 
L 128.821791 48.911088 
L 129.075681 49.750089 
L 129.329571 49.330589 
L 129.583461 49.330589 
L 130.091242 50.274482 
L 130.345132 49.435458 
L 130.599022 50.379352 
L 130.852913 50.798852 
L 131.106803 49.225697 
L 131.360693 50.484221 
L 131.614583 50.484221 
L 132.122364 49.120827 
L 132.376254 51.008614 
L 132.630144 49.120827 
L 132.884035 49.435458 
L 133.137925 49.225697 
L 133.391815 50.798852 
L 133.645705 49.225697 
L 133.899596 50.16959 
L 134.153486 49.225697 
L 134.407376 49.120827 
L 134.661266 48.176934 
L 135.422937 49.854959 
L 135.676827 49.330589 
L 135.930718 50.274482 
L 136.184608 49.959851 
L 136.438498 48.596457 
L 136.692388 50.064721 
L 136.946279 50.798852 
L 137.200169 48.806196 
L 137.454059 50.16959 
L 137.707949 49.540328 
L 137.96184 50.16959 
L 138.46962 48.911088 
L 138.72351 48.701327 
L 139.231291 51.637876 
L 139.485181 48.491565 
L 139.739071 49.540328 
L 139.992962 47.757433 
L 140.246852 50.589091 
L 140.500742 49.435458 
L 140.754632 49.750089 
L 141.008523 49.225697 
L 141.262413 49.750089 
L 141.516303 49.854959 
L 141.770193 50.589091 
L 142.024084 49.64522 
L 142.277974 49.750089 
L 142.531864 48.386696 
L 142.785755 49.750089 
L 143.039645 49.330589 
L 143.293535 49.330589 
L 143.547425 49.64522 
L 143.801316 47.862303 
L 144.309096 50.903722 
L 144.562986 49.854959 
L 144.816877 49.959851 
L 145.070767 49.854959 
L 145.324657 51.218353 
L 145.578547 50.379352 
L 145.832438 50.274482 
L 146.086328 48.386696 
L 146.340218 49.750089 
L 146.847999 48.701327 
L 147.101889 48.386696 
L 147.609669 49.225697 
L 147.86356 48.491565 
L 148.37134 50.16959 
L 148.62523 48.911088 
L 148.879121 49.225697 
L 149.133011 49.015958 
L 149.386901 50.379352 
L 149.640791 49.120827 
L 149.894682 48.596457 
L 150.148572 48.806196 
L 150.656352 49.854959 
L 150.910243 47.547694 
L 151.164133 48.701327 
L 151.418023 48.701327 
L 151.671913 48.491565 
L 151.925804 48.701327 
L 152.179694 49.750089 
L 152.433584 48.911088 
L 152.687474 48.701327 
L 152.941365 49.750089 
L 153.195255 49.120827 
L 153.449145 49.015958 
L 153.703035 48.176934 
L 153.956926 49.225697 
L 154.210816 48.491565 
L 154.464706 48.386696 
L 154.972487 49.540328 
L 155.226377 49.330589 
L 155.480267 49.64522 
L 155.988048 49.015958 
L 156.241938 48.281826 
L 156.495828 48.596457 
L 156.749718 49.225697 
L 157.003609 49.540328 
L 157.257499 49.225697 
L 157.511389 49.120827 
L 158.01917 49.64522 
L 158.27306 49.435458 
L 158.52695 48.491565 
L 158.78084 48.596457 
L 159.288621 47.652564 
L 159.542511 49.015958 
L 159.796402 48.281826 
L 160.050292 48.701327 
L 160.304182 50.064721 
L 160.558072 47.233063 
L 160.811963 49.015958 
L 161.065853 49.120827 
L 161.319743 49.540328 
L 161.573633 48.701327 
L 161.827524 49.225697 
L 162.081414 48.176934 
L 162.335304 49.64522 
L 162.589194 48.176934 
L 162.843085 49.225697 
L 163.096975 49.540328 
L 163.350865 48.911088 
L 163.604755 48.701327 
L 163.858646 49.330589 
L 164.112536 48.491565 
L 164.366426 48.281826 
L 164.620316 48.386696 
L 164.874207 47.862303 
L 165.128097 49.64522 
L 165.381987 48.596457 
L 165.635877 48.386696 
L 165.889768 47.337933 
L 166.397548 49.435458 
L 166.651438 49.225697 
L 166.905329 48.491565 
L 167.159219 49.540328 
L 167.413109 50.064721 
L 167.666999 49.015958 
L 167.92089 48.491565 
L 168.42867 48.911088 
L 168.68256 48.281826 
L 168.936451 49.540328 
L 169.190341 49.015958 
L 169.444231 49.64522 
L 169.698121 48.491565 
L 169.952012 48.176934 
L 170.205902 48.386696 
L 170.459792 47.862303 
L 170.713682 49.540328 
L 170.967573 47.128171 
L 171.221463 50.064721 
L 171.475353 48.911088 
L 171.729243 48.911088 
L 171.983134 48.701327 
L 172.237024 47.967195 
L 172.490914 48.176934 
L 172.744804 48.701327 
L 172.998695 47.547694 
L 173.252585 47.547694 
L 173.506475 48.701327 
L 173.760365 48.386696 
L 174.014256 48.281826 
L 174.268146 49.330589 
L 174.522036 48.176934 
L 175.029817 49.120827 
L 175.537597 47.337933 
L 175.791488 48.701327 
L 176.045378 48.491565 
L 176.299268 49.015958 
L 176.553158 49.959851 
L 176.807049 48.386696 
L 177.060939 48.596457 
L 177.314829 47.652564 
L 177.568719 49.120827 
L 177.82261 48.701327 
L 178.0765 49.120827 
L 178.33039 48.596457 
L 178.58428 49.750089 
L 178.838171 49.854959 
L 179.092061 48.596457 
L 179.345951 49.225697 
L 179.599841 49.540328 
L 179.853732 47.862303 
L 180.107622 50.16959 
L 180.361512 48.701327 
L 180.615402 48.701327 
L 180.869293 48.386696 
L 181.123183 47.652564 
L 181.377073 50.274482 
L 181.884854 49.015958 
L 182.392634 48.386696 
L 182.646524 50.379352 
L 182.900415 48.072064 
L 183.154305 49.015958 
L 183.408195 48.281826 
L 183.662085 48.281826 
L 183.915976 48.596457 
L 184.169866 47.652564 
L 184.423756 48.491565 
L 184.677646 48.072064 
L 184.931537 49.120827 
L 185.439317 47.547694 
L 185.693207 49.64522 
L 185.947098 49.750089 
L 186.200988 48.596457 
L 186.454878 48.386696 
L 186.708768 50.16959 
L 186.962659 49.330589 
L 187.216549 49.435458 
L 187.470439 49.120827 
L 187.724329 47.757433 
L 187.97822 49.015958 
L 188.23211 49.015958 
L 188.486 48.491565 
L 188.73989 47.652564 
L 189.247671 49.225697 
L 189.501561 48.911088 
L 189.755451 48.386696 
L 190.009342 48.806196 
L 190.771012 48.491565 
L 191.024903 48.701327 
L 191.278793 48.281826 
L 191.532683 47.233063 
L 191.786574 48.911088 
L 192.040464 49.120827 
L 192.294354 48.072064 
L 192.548244 48.491565 
L 192.802135 47.862303 
L 193.056025 48.806196 
L 193.309915 49.015958 
L 193.563805 49.015958 
L 193.817696 48.386696 
L 194.071586 48.911088 
L 194.325476 49.015958 
L 194.579366 48.491565 
L 194.833257 48.806196 
L 195.087147 50.16959 
L 195.341037 48.386696 
L 195.848818 48.701327 
L 196.102708 47.967195 
L 196.356598 49.750089 
L 196.610488 48.176934 
L 196.864379 50.064721 
L 197.118269 50.903722 
L 197.372159 48.911088 
L 197.626049 48.911088 
L 197.87994 48.386696 
L 198.13383 49.330589 
L 198.38772 48.491565 
L 198.895501 51.113483 
L 199.149391 48.072064 
L 199.403281 48.596457 
L 199.657171 48.491565 
L 199.911062 49.959851 
L 200.418842 49.120827 
L 200.672732 49.225697 
L 200.926623 48.701327 
L 201.180513 49.330589 
L 201.434403 48.596457 
L 201.688293 49.120827 
L 201.942184 49.120827 
L 202.196074 47.337933 
L 202.449964 48.072064 
L 202.703854 46.708671 
L 202.957745 49.015958 
L 203.211635 48.491565 
L 203.465525 48.491565 
L 203.719415 48.176934 
L 204.227196 47.233063 
L 204.481086 49.854959 
L 204.734976 49.435458 
L 204.988867 48.596457 
L 205.242757 47.337933 
L 205.496647 49.120827 
L 205.750537 49.540328 
L 206.004428 48.806196 
L 206.258318 48.806196 
L 206.512208 49.015958 
L 207.019989 48.701327 
L 207.273879 48.072064 
L 207.527769 48.596457 
L 207.78166 46.498909 
L 208.28944 50.379352 
L 208.54333 49.540328 
L 208.797221 47.128171 
L 209.051111 48.806196 
L 209.305001 48.806196 
L 209.558891 49.015958 
L 209.812782 49.435458 
L 210.066672 48.806196 
L 210.320562 49.435458 
L 210.574452 48.386696 
L 210.828343 48.386696 
L 211.082233 48.911088 
L 211.336123 50.798852 
L 211.590013 48.806196 
L 211.843904 48.806196 
L 212.097794 47.862303 
L 212.605574 47.967195 
L 212.859465 47.337933 
L 213.113355 48.806196 
L 213.367245 48.806196 
L 213.621135 49.015958 
L 213.875026 46.918432 
L 214.128916 49.540328 
L 214.382806 49.120827 
L 214.636696 48.386696 
L 214.890587 49.015958 
L 215.144477 49.225697 
L 215.398367 47.757433 
L 215.652257 49.64522 
L 215.906148 49.015958 
L 216.160038 49.120827 
L 216.413928 48.281826 
L 216.667818 48.596457 
L 216.921709 48.701327 
L 217.175599 46.708671 
L 217.429489 48.596457 
L 217.683379 48.701327 
L 218.44505 49.750089 
L 218.69894 48.281826 
L 218.952831 48.176934 
L 219.206721 48.701327 
L 219.460611 48.072064 
L 219.714501 47.757433 
L 219.968392 48.176934 
L 220.222282 48.072064 
L 220.476172 48.701327 
L 220.730062 48.701327 
L 220.983953 48.072064 
L 221.237843 49.120827 
L 221.491733 47.862303 
L 221.745623 48.596457 
L 221.999514 48.072064 
L 222.253404 48.176934 
L 222.507294 48.072064 
L 222.761184 49.015958 
L 223.015075 47.652564 
L 223.268965 49.330589 
L 223.522855 48.911088 
L 223.776745 47.128171 
L 224.030636 47.337933 
L 224.538416 49.015958 
L 225.046197 47.442802 
L 225.300087 48.491565 
L 225.553977 47.652564 
L 225.807868 48.281826 
L 226.061758 47.128171 
L 226.315648 50.589091 
L 226.569538 49.330589 
L 226.823429 48.806196 
L 227.077319 48.911088 
L 227.331209 48.596457 
L 227.585099 47.652564 
L 228.09288 48.806196 
L 228.34677 48.596457 
L 228.60066 48.596457 
L 228.854551 48.281826 
L 229.108441 48.491565 
L 229.362331 48.176934 
L 229.616221 48.491565 
L 230.124002 48.386696 
L 230.377892 48.701327 
L 230.631782 48.386696 
L 230.885673 48.911088 
L 231.139563 48.806196 
L 231.393453 49.64522 
L 231.647343 48.596457 
L 231.901234 49.540328 
L 232.155124 47.862303 
L 232.409014 48.806196 
L 232.662904 48.806196 
L 232.916795 48.072064 
L 233.170685 47.862303 
L 233.424575 48.281826 
L 233.678465 49.120827 
L 234.186246 47.652564 
L 234.440136 49.015958 
L 234.694026 47.967195 
L 234.947917 47.547694 
L 235.455697 48.701327 
L 235.709587 49.225697 
L 235.963478 48.386696 
L 236.217368 49.225697 
L 236.471258 49.540328 
L 236.725148 48.701327 
L 236.979039 49.120827 
L 237.740709 48.072064 
L 237.9946 48.281826 
L 238.24849 49.015958 
L 238.50238 48.596457 
L 238.75627 49.225697 
L 239.010161 48.072064 
L 239.264051 47.862303 
L 239.517941 48.491565 
L 239.771831 48.806196 
L 240.025722 49.330589 
L 240.279612 48.491565 
L 240.533502 48.072064 
L 240.787393 48.072064 
L 241.041283 49.120827 
L 241.295173 48.701327 
L 241.549063 49.015958 
L 241.802954 48.491565 
L 242.056844 48.281826 
L 242.310734 47.652564 
L 242.564624 49.120827 
L 242.818515 49.330589 
L 243.326295 48.701327 
L 243.580185 49.854959 
L 243.834076 48.911088 
L 244.087966 48.806196 
L 244.341856 48.911088 
L 244.595746 49.330589 
L 244.849637 47.547694 
L 245.103527 50.798852 
L 245.865198 47.233063 
L 246.119088 48.072064 
L 246.626868 48.386696 
L 246.880759 49.225697 
L 247.134649 48.176934 
L 247.388539 48.072064 
L 247.642429 48.491565 
L 247.89632 48.176934 
L 248.15021 48.491565 
L 248.4041 48.491565 
L 248.65799 48.911088 
L 248.911881 47.757433 
L 249.165771 49.750089 
L 249.419661 49.330589 
L 249.673551 47.547694 
L 249.927442 48.596457 
L 250.435222 47.757433 
L 250.943003 48.491565 
L 251.196893 49.540328 
L 251.450783 48.491565 
L 251.704673 49.015958 
L 251.958564 48.701327 
L 252.212454 48.911088 
L 252.720234 48.911088 
L 252.974125 48.176934 
L 253.481905 49.015958 
L 253.735795 49.015958 
L 253.989686 48.701327 
L 254.243576 49.435458 
L 254.497466 47.128171 
L 254.751356 48.386696 
L 255.005247 48.386696 
L 255.259137 48.596457 
L 255.513027 48.386696 
L 255.766917 49.540328 
L 256.020808 49.015958 
L 256.274698 47.967195 
L 256.782479 50.16959 
L 257.290259 47.652564 
L 257.544149 48.596457 
L 257.79804 48.596457 
L 258.05193 49.015958 
L 258.30582 47.652564 
L 258.55971 50.064721 
L 258.813601 48.596457 
L 259.067491 49.225697 
L 259.321381 48.072064 
L 259.575271 48.386696 
L 259.829162 49.64522 
L 260.083052 48.596457 
L 260.336942 48.911088 
L 260.590832 47.967195 
L 260.844723 50.064721 
L 261.606393 47.547694 
L 261.860284 48.491565 
L 262.114174 48.911088 
L 262.368064 50.693983 
L 262.621954 49.330589 
L 262.875845 49.120827 
L 263.383625 48.386696 
L 263.637515 49.330589 
L 263.891406 48.596457 
L 264.145296 49.854959 
L 264.653076 48.176934 
L 264.906967 48.386696 
L 265.160857 47.652564 
L 265.668637 48.386696 
L 265.922528 48.281826 
L 266.176418 47.862303 
L 266.430308 47.967195 
L 266.684198 49.015958 
L 266.938089 49.225697 
L 267.191979 47.862303 
L 267.445869 48.911088 
L 267.699759 49.015958 
L 267.95365 46.918432 
L 268.71532 49.330589 
L 268.969211 48.491565 
L 269.223101 48.176934 
L 269.476991 49.015958 
L 269.730881 50.274482 
L 269.984772 48.491565 
L 270.238662 47.862303 
L 270.492552 48.072064 
L 270.746442 47.757433 
L 271.000333 48.596457 
L 271.254223 48.806196 
L 271.508113 47.757433 
L 271.762003 48.596457 
L 272.015894 48.491565 
L 272.269784 47.023302 
L 272.523674 49.540328 
L 272.777564 49.540328 
L 273.031455 47.757433 
L 273.285345 48.176934 
L 273.539235 50.379352 
L 274.047016 46.708671 
L 274.554796 48.806196 
L 274.808687 49.120827 
L 275.062577 47.652564 
L 275.316467 49.64522 
L 275.570357 49.330589 
L 275.824248 47.757433 
L 276.078138 48.911088 
L 276.332028 48.072064 
L 276.585918 49.225697 
L 276.839809 48.281826 
L 277.093699 49.854959 
L 277.601479 48.701327 
L 277.85537 48.806196 
L 278.10926 49.854959 
L 278.36315 48.281826 
L 278.61704 49.015958 
L 278.870931 47.023302 
L 279.124821 48.806196 
L 279.378711 48.911088 
L 279.886492 47.128171 
L 280.140382 50.064721 
L 280.394272 48.701327 
L 280.648162 48.701327 
L 280.902053 47.757433 
L 282.171504 48.281826 
L 282.425394 49.225697 
L 282.679284 49.435458 
L 282.933175 48.911088 
L 283.187065 47.023302 
L 283.440955 49.225697 
L 283.694845 48.911088 
L 283.948736 49.120827 
L 284.202626 47.023302 
L 284.456516 48.176934 
L 284.710406 48.281826 
L 284.964297 49.540328 
L 285.218187 48.386696 
L 285.472077 49.540328 
L 285.979858 47.547694 
L 286.233748 49.330589 
L 286.487638 49.015958 
L 286.741528 50.379352 
L 287.249309 48.806196 
L 287.503199 49.015958 
L 287.757089 47.233063 
L 288.01098 48.281826 
L 288.26487 48.491565 
L 288.51876 49.330589 
L 288.77265 48.911088 
L 289.026541 47.967195 
L 289.280431 48.281826 
L 289.534321 48.806196 
L 290.042102 48.072064 
L 290.295992 49.330589 
L 290.549882 49.540328 
L 290.803773 48.386696 
L 291.311553 49.435458 
L 291.565443 47.547694 
L 291.819334 49.435458 
L 292.327114 48.386696 
L 292.581004 48.806196 
L 292.834895 47.757433 
L 293.088785 49.64522 
L 293.342675 48.072064 
L 293.850456 47.862303 
L 294.104346 49.120827 
L 294.358236 47.757433 
L 294.612126 48.176934 
L 294.866017 47.442802 
L 295.119907 47.862303 
L 295.373797 49.540328 
L 295.627687 47.337933 
L 296.135468 49.120827 
L 296.389358 48.701327 
L 296.643248 48.806196 
L 296.897139 48.491565 
L 297.151029 49.64522 
L 297.404919 49.64522 
L 297.9127 48.281826 
L 298.16659 49.540328 
L 298.42048 47.757433 
L 298.67437 49.854959 
L 298.928261 49.750089 
L 299.182151 49.435458 
L 299.436041 47.233063 
L 299.689931 49.435458 
L 299.943822 48.281826 
L 300.197712 48.701327 
L 300.451602 48.701327 
L 300.705492 48.911088 
L 300.959383 48.911088 
L 301.213273 49.540328 
L 301.467163 48.281826 
L 301.721053 49.750089 
L 301.974944 47.967195 
L 302.228834 48.281826 
L 302.736614 49.225697 
L 302.990505 49.120827 
L 303.244395 47.862303 
L 303.498285 47.967195 
L 303.752175 48.806196 
L 304.006066 48.596457 
L 304.259956 49.225697 
L 304.513846 49.015958 
L 304.767736 47.967195 
L 305.021627 47.757433 
L 305.275517 48.911088 
L 305.529407 49.015958 
L 305.783298 48.281826 
L 306.037188 48.072064 
L 306.291078 47.337933 
L 306.544968 47.967195 
L 306.798859 46.603801 
L 307.052749 50.274482 
L 307.306639 48.281826 
L 307.560529 48.386696 
L 307.81442 48.911088 
L 308.06831 48.281826 
L 308.57609 49.750089 
L 308.829981 47.547694 
L 309.083871 49.015958 
L 309.337761 49.330589 
L 309.591651 50.903722 
L 309.845542 47.967195 
L 310.099432 49.015958 
L 310.099432 49.015958 
" clip-path="url(#p5fec1e7a8b)" style="fill: none; stroke: #0000ff; stroke-width: 0.6; stroke-linecap: square"/>
   </g>
   <g id="line2d_26">
    <path d="M 56.463068 228.494333 
L 56.716958 228.738996 
L 56.970849 216.505712 
L 57.224739 197.177114 
L 57.478629 210.144397 
L 57.732519 195.953791 
L 57.98641 216.505712 
L 58.49419 157.296617 
L 58.74808 161.211262 
L 59.001971 125.000737 
L 59.509751 114.724776 
L 60.271422 137.23402 
L 60.525312 103.470143 
L 60.779202 105.672139 
L 61.033093 155.583946 
L 61.286983 104.204141 
L 61.540873 101.757494 
L 62.048654 106.895463 
L 62.302544 92.94953 
L 62.556434 136.744695 
L 62.810325 97.108849 
L 63.064215 111.299456 
L 63.825886 94.662179 
L 64.079776 103.95949 
L 64.333666 90.013535 
L 64.587556 92.704857 
L 64.841447 87.811539 
L 65.095337 93.928181 
L 65.349227 96.864176 
L 65.603117 90.50286 
L 65.857008 93.438855 
L 66.110898 88.545538 
L 66.618678 92.704857 
L 66.872569 115.703448 
L 67.126459 94.417528 
L 67.380349 88.056212 
L 67.634239 87.322214 
L 67.88813 91.236859 
L 68.14202 86.588215 
L 68.39591 108.36346 
L 68.6498 90.747534 
L 68.903691 89.768861 
L 69.157581 84.630892 
L 69.411471 85.609565 
L 69.665361 96.374851 
L 69.919252 84.875566 
L 70.427032 85.364891 
L 70.680922 85.120217 
L 70.934813 90.747534 
L 71.188703 90.258209 
L 71.696483 82.918243 
L 71.950374 87.811539 
L 72.204264 103.95949 
L 72.458154 84.386218 
L 72.712044 87.322214 
L 72.965935 86.09889 
L 73.219825 92.704857 
L 73.473715 86.832888 
L 73.727605 88.056212 
L 73.981496 90.992208 
L 74.235386 88.545538 
L 74.489276 88.790211 
L 74.743166 86.832888 
L 74.997057 93.438855 
L 75.250947 91.481533 
L 75.504837 95.640852 
L 75.758727 90.013535 
L 76.012618 89.279536 
L 76.266508 86.09889 
L 76.520398 89.52421 
L 77.028179 85.854216 
L 77.282069 89.279536 
L 77.535959 90.747534 
L 77.78985 86.09889 
L 78.04374 91.236859 
L 78.29763 89.52421 
L 78.55152 85.120217 
L 78.805411 86.343563 
L 79.059301 105.427487 
L 79.313191 87.566887 
L 79.567081 85.609565 
L 79.820972 87.322214 
L 80.074862 97.598174 
L 80.328752 87.811539 
L 80.582642 90.258209 
L 80.836533 87.566887 
L 81.090423 87.322214 
L 81.344313 86.343563 
L 81.598203 86.588215 
L 81.852094 88.056212 
L 82.105984 108.852808 
L 82.359874 86.588215 
L 82.613764 93.194182 
L 82.867655 90.013535 
L 83.121545 89.279536 
L 83.375435 86.588215 
L 83.883216 83.65222 
L 84.137106 88.545538 
L 84.390996 87.322214 
L 84.644886 86.832888 
L 84.898777 88.056212 
L 85.152667 87.322214 
L 85.406557 87.07754 
L 85.660447 87.07754 
L 85.914338 85.364891 
L 86.168228 87.07754 
L 86.422118 87.566887 
L 86.676008 85.854216 
L 87.183789 91.970858 
L 87.437679 87.566887 
L 87.94546 92.215531 
L 88.19935 86.832888 
L 88.45324 88.545538 
L 88.70713 89.034885 
L 88.961021 85.364891 
L 89.214911 87.811539 
L 89.468801 87.322214 
L 89.722691 92.215531 
L 89.976582 86.09889 
L 90.230472 85.609565 
L 90.484362 91.970858 
L 90.738252 85.854216 
L 90.992143 89.279536 
L 91.246033 88.300886 
L 91.499923 89.768861 
L 91.753813 88.790211 
L 92.007704 87.322214 
L 92.261594 86.588215 
L 92.515484 89.034885 
L 92.769374 89.52421 
L 93.023265 89.768861 
L 93.277155 86.343563 
L 93.531045 92.94953 
L 94.038826 85.854216 
L 94.292716 89.52421 
L 94.546606 90.013535 
L 95.054387 90.013535 
L 95.308277 89.034885 
L 95.562167 92.215531 
L 95.816058 87.811539 
L 96.069948 86.09889 
L 96.323838 87.811539 
L 96.577728 87.07754 
L 96.831619 87.07754 
L 97.085509 87.566887 
L 97.339399 88.300886 
L 97.593289 88.056212 
L 97.84718 89.52421 
L 98.35496 87.07754 
L 98.60885 89.279536 
L 98.862741 88.056212 
L 99.116631 89.768861 
L 99.370521 90.013535 
L 99.878302 88.300886 
L 100.132192 88.790211 
L 100.639972 93.683529 
L 100.893863 88.056212 
L 101.147753 90.258209 
L 101.401643 90.013535 
L 101.655533 87.566887 
L 101.909424 87.322214 
L 102.163314 89.768861 
L 102.417204 89.034885 
L 102.671094 90.50286 
L 102.924985 90.992208 
L 103.178875 86.588215 
L 103.432765 89.034885 
L 103.686655 89.279536 
L 103.940546 91.726206 
L 104.194436 91.236859 
L 104.448326 92.460205 
L 104.702216 90.747534 
L 104.956107 92.460205 
L 105.209997 88.056212 
L 105.463887 88.790211 
L 105.717777 93.683529 
L 106.225558 88.300886 
L 106.479448 88.545538 
L 106.733338 90.013535 
L 106.987229 90.258209 
L 107.241119 88.790211 
L 107.495009 90.50286 
L 107.748899 90.50286 
L 108.00279 90.258209 
L 108.25668 89.768861 
L 108.51057 90.50286 
L 108.76446 90.747534 
L 109.018351 90.50286 
L 109.272241 90.747534 
L 109.526131 92.704857 
L 109.780021 89.034885 
L 110.033912 89.768861 
L 110.287802 90.013535 
L 110.541692 89.034885 
L 110.795583 88.790211 
L 111.049473 89.52421 
L 111.303363 88.056212 
L 111.557253 89.279536 
L 111.811144 89.279536 
L 112.065034 87.811539 
L 112.318924 89.034885 
L 112.572814 89.279536 
L 112.826705 89.768861 
L 113.080595 91.726206 
L 113.334485 88.790211 
L 113.588375 90.013535 
L 113.842266 89.52421 
L 114.096156 87.07754 
L 114.350046 88.545538 
L 114.603936 86.832888 
L 114.857827 88.790211 
L 115.111717 88.790211 
L 115.365607 89.279536 
L 115.873388 89.768861 
L 116.127278 89.279536 
L 116.635058 89.768861 
L 116.888949 91.236859 
L 117.142839 89.52421 
L 117.396729 90.992208 
L 117.650619 89.768861 
L 117.90451 90.992208 
L 118.1584 89.279536 
L 118.41229 89.52421 
L 118.66618 89.52421 
L 118.920071 90.747534 
L 119.173961 90.258209 
L 119.427851 88.300886 
L 119.681741 92.704857 
L 119.935632 89.279536 
L 120.189522 90.258209 
L 120.443412 89.279536 
L 120.697302 91.970858 
L 121.205083 89.768861 
L 121.458973 89.768861 
L 121.712863 89.279536 
L 122.220644 90.747534 
L 122.474534 89.52421 
L 122.728424 89.768861 
L 122.982315 88.056212 
L 123.236205 88.545538 
L 123.490095 88.790211 
L 123.743985 88.545538 
L 123.997876 89.034885 
L 124.251766 88.056212 
L 124.759546 89.279536 
L 125.267327 89.279536 
L 125.521217 89.768861 
L 125.775107 90.992208 
L 126.028998 90.50286 
L 126.282888 88.056212 
L 126.536778 89.279536 
L 126.790669 89.768861 
L 127.044559 90.013535 
L 127.298449 89.279536 
L 127.80623 89.768861 
L 128.06012 90.747534 
L 128.31401 89.279536 
L 128.5679 90.747534 
L 129.075681 86.588215 
L 129.583461 90.747534 
L 129.837352 90.50286 
L 130.345132 89.52421 
L 130.599022 89.279536 
L 130.852913 88.790211 
L 131.106803 88.545538 
L 131.360693 90.258209 
L 131.614583 88.300886 
L 131.868474 88.545538 
L 132.122364 87.811539 
L 132.376254 89.768861 
L 132.884035 87.07754 
L 133.391815 90.013535 
L 133.899596 88.790211 
L 134.153486 89.034885 
L 134.407376 88.300886 
L 134.915157 90.013535 
L 135.422937 89.034885 
L 135.676827 89.768861 
L 135.930718 90.013535 
L 136.184608 89.034885 
L 136.438498 89.768861 
L 136.692388 88.790211 
L 136.946279 89.52421 
L 137.200169 89.034885 
L 137.454059 89.279536 
L 137.707949 88.300886 
L 138.21573 89.52421 
L 138.46962 89.034885 
L 138.72351 89.034885 
L 138.977401 89.279536 
L 139.231291 89.034885 
L 139.485181 88.545538 
L 139.739071 88.790211 
L 139.992962 88.056212 
L 140.246852 88.790211 
L 141.008523 88.056212 
L 141.262413 88.300886 
L 141.516303 87.322214 
L 141.770193 89.034885 
L 142.024084 88.300886 
L 142.277974 89.034885 
L 142.531864 88.300886 
L 142.785755 88.056212 
L 143.039645 88.300886 
L 143.293535 88.790211 
L 143.547425 89.034885 
L 144.055206 89.034885 
L 144.309096 88.545538 
L 144.562986 87.811539 
L 144.816877 89.768861 
L 145.070767 88.545538 
L 145.324657 88.545538 
L 145.578547 88.300886 
L 145.832438 89.034885 
L 146.086328 87.811539 
L 146.340218 88.300886 
L 146.594108 89.034885 
L 146.847999 88.300886 
L 147.101889 89.034885 
L 147.355779 88.545538 
L 147.609669 89.034885 
L 147.86356 89.034885 
L 148.11745 88.300886 
L 148.37134 88.790211 
L 148.62523 89.768861 
L 148.879121 89.034885 
L 149.133011 89.279536 
L 149.386901 89.279536 
L 149.640791 88.545538 
L 149.894682 89.034885 
L 150.148572 89.034885 
L 150.402462 88.545538 
L 150.656352 88.790211 
L 150.910243 89.768861 
L 151.164133 89.279536 
L 151.418023 89.034885 
L 151.671913 87.811539 
L 151.925804 88.300886 
L 152.179694 87.811539 
L 152.433584 88.300886 
L 152.687474 89.279536 
L 152.941365 89.52421 
L 153.195255 88.300886 
L 153.449145 89.279536 
L 153.703035 88.545538 
L 153.956926 89.279536 
L 154.210816 88.545538 
L 154.464706 89.034885 
L 154.718596 88.545538 
L 154.972487 89.034885 
L 155.226377 88.056212 
L 155.480267 89.034885 
L 155.734157 89.034885 
L 155.988048 88.300886 
L 156.241938 90.747534 
L 156.495828 89.034885 
L 156.749718 89.034885 
L 157.257499 90.013535 
L 157.511389 88.545538 
L 157.765279 89.52421 
L 158.27306 88.545538 
L 158.52695 89.279536 
L 158.78084 89.279536 
L 159.034731 89.52421 
L 159.288621 89.52421 
L 159.542511 87.566887 
L 159.796402 88.545538 
L 160.050292 89.034885 
L 160.304182 89.034885 
L 160.811963 87.811539 
L 161.065853 89.034885 
L 161.319743 89.034885 
L 161.573633 88.790211 
L 161.827524 88.300886 
L 162.081414 88.545538 
L 162.335304 88.300886 
L 162.589194 89.52421 
L 162.843085 89.279536 
L 163.096975 88.545538 
L 163.350865 88.545538 
L 163.604755 89.52421 
L 164.366426 88.790211 
L 164.620316 88.790211 
L 164.874207 89.52421 
L 165.128097 89.279536 
L 165.381987 88.790211 
L 165.635877 89.034885 
L 166.143658 89.034885 
L 166.397548 89.279536 
L 166.651438 89.034885 
L 166.905329 89.034885 
L 167.159219 88.790211 
L 167.413109 88.300886 
L 167.666999 89.279536 
L 167.92089 89.52421 
L 168.17478 88.545538 
L 168.42867 88.790211 
L 168.68256 88.300886 
L 168.936451 88.790211 
L 169.698121 88.790211 
L 169.952012 88.545538 
L 170.205902 89.034885 
L 170.459792 89.034885 
L 170.713682 88.300886 
L 170.967573 88.545538 
L 171.221463 88.300886 
L 171.475353 88.790211 
L 171.729243 89.034885 
L 171.983134 88.790211 
L 172.490914 88.790211 
L 172.744804 88.300886 
L 172.998695 88.545538 
L 173.252585 89.279536 
L 173.506475 88.545538 
L 173.760365 88.790211 
L 174.014256 88.790211 
L 174.268146 88.545538 
L 174.522036 88.790211 
L 175.029817 88.790211 
L 175.283707 88.545538 
L 175.791488 89.034885 
L 176.299268 88.545538 
L 176.553158 88.790211 
L 176.807049 88.790211 
L 177.060939 88.545538 
L 177.314829 88.545538 
L 177.568719 88.790211 
L 178.33039 88.790211 
L 178.58428 88.545538 
L 178.838171 88.790211 
L 179.345951 88.790211 
L 179.599841 89.279536 
L 179.853732 88.790211 
L 180.107622 88.545538 
L 180.361512 88.545538 
L 180.615402 88.790211 
L 181.123183 88.790211 
L 181.377073 88.545538 
L 181.884854 88.545538 
L 182.138744 88.790211 
L 182.392634 88.545538 
L 182.646524 88.545538 
L 182.900415 88.790211 
L 183.154305 88.790211 
L 183.408195 88.545538 
L 183.662085 88.545538 
L 183.915976 88.056212 
L 184.677646 88.056212 
L 185.185427 88.545538 
L 185.439317 88.300886 
L 185.693207 88.545538 
L 186.200988 88.545538 
L 186.454878 88.790211 
L 186.962659 88.790211 
L 187.216549 88.545538 
L 187.724329 89.034885 
L 188.23211 89.034885 
L 188.73989 88.545538 
L 188.993781 88.790211 
L 189.247671 88.545538 
L 189.755451 88.545538 
L 190.009342 88.056212 
L 190.263232 88.545538 
L 192.294354 88.545538 
L 192.548244 88.300886 
L 192.802135 88.545538 
L 193.056025 88.545538 
L 193.309915 88.300886 
L 194.325476 88.300886 
L 194.579366 88.545538 
L 194.833257 88.300886 
L 195.087147 88.300886 
L 195.341037 88.545538 
L 195.594927 88.545538 
L 195.848818 88.790211 
L 196.102708 88.545538 
L 196.864379 88.545538 
L 197.118269 88.790211 
L 197.372159 88.545538 
L 197.626049 88.545538 
L 197.87994 88.300886 
L 198.13383 88.545538 
L 198.38772 88.545538 
L 198.64161 88.300886 
L 201.180513 88.300886 
L 201.434403 88.545538 
L 202.957745 88.545538 
L 203.211635 88.790211 
L 203.719415 88.790211 
L 203.973306 88.545538 
L 204.227196 88.790211 
L 204.481086 88.300886 
L 204.734976 88.790211 
L 207.78166 88.790211 
L 208.03555 88.545538 
L 221.237843 88.545538 
L 221.491733 88.790211 
L 279.124821 88.790211 
L 279.378711 88.545538 
L 279.886492 88.545538 
L 280.140382 88.790211 
L 281.409833 88.790211 
L 281.663723 88.545538 
L 281.917614 88.545538 
L 282.171504 88.790211 
L 282.425394 88.545538 
L 286.233748 88.545538 
L 286.487638 88.300886 
L 286.741528 88.545538 
L 286.995419 88.300886 
L 288.01098 88.300886 
L 288.26487 88.545538 
L 289.788212 88.545538 
L 290.042102 88.300886 
L 290.295992 88.545538 
L 291.311553 88.545538 
L 291.565443 88.300886 
L 291.819334 88.545538 
L 309.083871 88.545538 
L 309.337761 88.790211 
L 309.591651 88.545538 
L 310.099432 88.545538 
L 310.099432 88.545538 
" clip-path="url(#p5fec1e7a8b)" style="fill: none; stroke: #ff0000; stroke-width: 0.6; stroke-linecap: square"/>
   </g>
   <g id="patch_3">
    <path d="M 43.78125 239.76 
L 43.78125 37.296 
" style="fill: none; stroke: #000000; stroke-width: 0.8; stroke-linejoin: miter; stroke-linecap: square"/>
   </g>
   <g id="patch_4">
    <path d="M 322.78125 239.76 
L 322.78125 37.296 
" style="fill: none; stroke: #000000; stroke-width: 0.8; stroke-linejoin: miter; stroke-linecap: square"/>
   </g>
   <g id="patch_5">
    <path d="M 43.78125 239.76 
L 322.78125 239.76 
" style="fill: none; stroke: #000000; stroke-width: 0.8; stroke-linejoin: miter; stroke-linecap: square"/>
   </g>
   <g id="patch_6">
    <path d="M 43.78125 37.296 
L 322.78125 37.296 
" style="fill: none; stroke: #000000; stroke-width: 0.8; stroke-linejoin: miter; stroke-linecap: square"/>
   </g>
   <g id="text_15">
    <!-- Baseline Model -->
    <g transform="translate(149.259844 31.296) scale(0.09 -0.09)">
     <defs>
      <path id="DejaVuSans-42" d="M 1259 2228 
L 1259 519 
L 2272 519 
Q 2781 519 3026 730 
Q 3272 941 3272 1375 
Q 3272 1813 3026 2020 
Q 2781 2228 2272 2228 
L 1259 2228 
z
M 1259 4147 
L 1259 2741 
L 2194 2741 
Q 2656 2741 2882 2914 
Q 3109 3088 3109 3444 
Q 3109 3797 2882 3972 
Q 2656 4147 2194 4147 
L 1259 4147 
z
M 628 4666 
L 2241 4666 
Q 2963 4666 3353 4366 
Q 3744 4066 3744 3513 
Q 3744 3084 3544 2831 
Q 3344 2578 2956 2516 
Q 3422 2416 3680 2098 
Q 3938 1781 3938 1306 
Q 3938 681 3513 340 
Q 3088 0 2303 0 
L 628 0 
L 628 4666 
z
" transform="scale(0.015625)"/>
      <path id="DejaVuSans-65" d="M 3597 1894 
L 3597 1613 
L 953 1613 
Q 991 1019 1311 708 
Q 1631 397 2203 397 
Q 2534 397 2845 478 
Q 3156 559 3463 722 
L 3463 178 
Q 3153 47 2828 -22 
Q 2503 -91 2169 -91 
Q 1331 -91 842 396 
Q 353 884 353 1716 
Q 353 2575 817 3079 
Q 1281 3584 2069 3584 
Q 2775 3584 3186 3129 
Q 3597 2675 3597 1894 
z
M 3022 2063 
Q 3016 2534 2758 2815 
Q 2500 3097 2075 3097 
Q 1594 3097 1305 2825 
Q 1016 2553 972 2059 
L 3022 2063 
z
" transform="scale(0.015625)"/>
      <path id="DejaVuSans-6c" d="M 603 4863 
L 1178 4863 
L 1178 0 
L 603 0 
L 603 4863 
z
" transform="scale(0.015625)"/>
      <path id="DejaVuSans-69" d="M 603 3500 
L 1178 3500 
L 1178 0 
L 603 0 
L 603 3500 
z
M 603 4863 
L 1178 4863 
L 1178 4134 
L 603 4134 
L 603 4863 
z
" transform="scale(0.015625)"/>
      <path id="DejaVuSans-6e" d="M 3513 2113 
L 3513 0 
L 2938 0 
L 2938 2094 
Q 2938 2591 2744 2837 
Q 2550 3084 2163 3084 
Q 1697 3084 1428 2787 
Q 1159 2491 1159 1978 
L 1159 0 
L 581 0 
L 581 3500 
L 1159 3500 
L 1159 2956 
Q 1366 3272 1645 3428 
Q 1925 3584 2291 3584 
Q 2894 3584 3203 3211 
Q 3513 2838 3513 2113 
z
" transform="scale(0.015625)"/>
      <path id="DejaVuSans-20" transform="scale(0.015625)"/>
      <path id="DejaVuSans-4d" d="M 628 4666 
L 1569 4666 
L 2759 1491 
L 3956 4666 
L 4897 4666 
L 4897 0 
L 4281 0 
L 4281 4097 
L 3078 897 
L 2444 897 
L 1241 4097 
L 1241 0 
L 628 0 
L 628 4666 
z
" transform="scale(0.015625)"/>
      <path id="DejaVuSans-64" d="M 2906 2969 
L 2906 4863 
L 3481 4863 
L 3481 0 
L 2906 0 
L 2906 525 
Q 2725 213 2448 61 
Q 2172 -91 1784 -91 
Q 1150 -91 751 415 
Q 353 922 353 1747 
Q 353 2572 751 3078 
Q 1150 3584 1784 3584 
Q 2172 3584 2448 3432 
Q 2725 3281 2906 2969 
z
M 947 1747 
Q 947 1113 1208 752 
Q 1469 391 1925 391 
Q 2381 391 2643 752 
Q 2906 1113 2906 1747 
Q 2906 2381 2643 2742 
Q 2381 3103 1925 3103 
Q 1469 3103 1208 2742 
Q 947 2381 947 1747 
z
" transform="scale(0.015625)"/>
     </defs>
     <use xlink:href="#DejaVuSans-42"/>
     <use xlink:href="#DejaVuSans-61" x="68.603516"/>
     <use xlink:href="#DejaVuSans-73" x="129.882812"/>
     <use xlink:href="#DejaVuSans-65" x="181.982422"/>
     <use xlink:href="#DejaVuSans-6c" x="243.505859"/>
     <use xlink:href="#DejaVuSans-69" x="271.289062"/>
     <use xlink:href="#DejaVuSans-6e" x="299.072266"/>
     <use xlink:href="#DejaVuSans-65" x="362.451172"/>
     <use xlink:href="#DejaVuSans-20" x="423.974609"/>
     <use xlink:href="#DejaVuSans-4d" x="455.761719"/>
     <use xlink:href="#DejaVuSans-6f" x="542.041016"/>
     <use xlink:href="#DejaVuSans-64" x="603.222656"/>
     <use xlink:href="#DejaVuSans-65" x="666.699219"/>
     <use xlink:href="#DejaVuSans-6c" x="728.222656"/>
    </g>
   </g>
   <g id="legend_1">
    <g id="patch_7">
     <path d="M 185.565625 234.76 
L 315.78125 234.76 
Q 317.78125 234.76 317.78125 232.76 
L 317.78125 204.40375 
Q 317.78125 202.40375 315.78125 202.40375 
L 185.565625 202.40375 
Q 183.565625 202.40375 183.565625 204.40375 
L 183.565625 232.76 
Q 183.565625 234.76 185.565625 234.76 
z
" style="fill: #ffffff; opacity: 0.8; stroke: #cccccc; stroke-linejoin: miter"/>
    </g>
    <g id="line2d_27">
     <path d="M 187.565625 210.502187 
L 197.565625 210.502187 
L 207.565625 210.502187 
" style="fill: none; stroke: #0000ff; stroke-width: 0.6; stroke-linecap: square"/>
    </g>
    <g id="text_16">
     <!-- Training Accuracy -->
     <g transform="translate(215.565625 214.002187) scale(0.1 -0.1)">
      <defs>
       <path id="DejaVuSans-54" d="M -19 4666 
L 3928 4666 
L 3928 4134 
L 2272 4134 
L 2272 0 
L 1638 0 
L 1638 4134 
L -19 4134 
L -19 4666 
z
" transform="scale(0.015625)"/>
       <path id="DejaVuSans-67" d="M 2906 1791 
Q 2906 2416 2648 2759 
Q 2391 3103 1925 3103 
Q 1463 3103 1205 2759 
Q 947 2416 947 1791 
Q 947 1169 1205 825 
Q 1463 481 1925 481 
Q 2391 481 2648 825 
Q 2906 1169 2906 1791 
z
M 3481 434 
Q 3481 -459 3084 -895 
Q 2688 -1331 1869 -1331 
Q 1566 -1331 1297 -1286 
Q 1028 -1241 775 -1147 
L 775 -588 
Q 1028 -725 1275 -790 
Q 1522 -856 1778 -856 
Q 2344 -856 2625 -561 
Q 2906 -266 2906 331 
L 2906 616 
Q 2728 306 2450 153 
Q 2172 0 1784 0 
Q 1141 0 747 490 
Q 353 981 353 1791 
Q 353 2603 747 3093 
Q 1141 3584 1784 3584 
Q 2172 3584 2450 3431 
Q 2728 3278 2906 2969 
L 2906 3500 
L 3481 3500 
L 3481 434 
z
" transform="scale(0.015625)"/>
      </defs>
      <use xlink:href="#DejaVuSans-54"/>
      <use xlink:href="#DejaVuSans-72" x="46.333984"/>
      <use xlink:href="#DejaVuSans-61" x="87.447266"/>
      <use xlink:href="#DejaVuSans-69" x="148.726562"/>
      <use xlink:href="#DejaVuSans-6e" x="176.509766"/>
      <use xlink:href="#DejaVuSans-69" x="239.888672"/>
      <use xlink:href="#DejaVuSans-6e" x="267.671875"/>
      <use xlink:href="#DejaVuSans-67" x="331.050781"/>
      <use xlink:href="#DejaVuSans-20" x="394.527344"/>
      <use xlink:href="#DejaVuSans-41" x="426.314453"/>
      <use xlink:href="#DejaVuSans-63" x="492.972656"/>
      <use xlink:href="#DejaVuSans-63" x="547.953125"/>
      <use xlink:href="#DejaVuSans-75" x="602.933594"/>
      <use xlink:href="#DejaVuSans-72" x="666.3125"/>
      <use xlink:href="#DejaVuSans-61" x="707.425781"/>
      <use xlink:href="#DejaVuSans-63" x="768.705078"/>
      <use xlink:href="#DejaVuSans-79" x="823.685547"/>
     </g>
    </g>
    <g id="line2d_28">
     <path d="M 187.565625 225.180312 
L 197.565625 225.180312 
L 207.565625 225.180312 
" style="fill: none; stroke: #ff0000; stroke-width: 0.6; stroke-linecap: square"/>
    </g>
    <g id="text_17">
     <!-- Validation Accuracy -->
     <g transform="translate(215.565625 228.680312) scale(0.1 -0.1)">
      <defs>
       <path id="DejaVuSans-56" d="M 1831 0 
L 50 4666 
L 709 4666 
L 2188 738 
L 3669 4666 
L 4325 4666 
L 2547 0 
L 1831 0 
z
" transform="scale(0.015625)"/>
       <path id="DejaVuSans-74" d="M 1172 4494 
L 1172 3500 
L 2356 3500 
L 2356 3053 
L 1172 3053 
L 1172 1153 
Q 1172 725 1289 603 
Q 1406 481 1766 481 
L 2356 481 
L 2356 0 
L 1766 0 
Q 1100 0 847 248 
Q 594 497 594 1153 
L 594 3053 
L 172 3053 
L 172 3500 
L 594 3500 
L 594 4494 
L 1172 4494 
z
" transform="scale(0.015625)"/>
      </defs>
      <use xlink:href="#DejaVuSans-56"/>
      <use xlink:href="#DejaVuSans-61" x="60.658203"/>
      <use xlink:href="#DejaVuSans-6c" x="121.9375"/>
      <use xlink:href="#DejaVuSans-69" x="149.720703"/>
      <use xlink:href="#DejaVuSans-64" x="177.503906"/>
      <use xlink:href="#DejaVuSans-61" x="240.980469"/>
      <use xlink:href="#DejaVuSans-74" x="302.259766"/>
      <use xlink:href="#DejaVuSans-69" x="341.46875"/>
      <use xlink:href="#DejaVuSans-6f" x="369.251953"/>
      <use xlink:href="#DejaVuSans-6e" x="430.433594"/>
      <use xlink:href="#DejaVuSans-20" x="493.8125"/>
      <use xlink:href="#DejaVuSans-41" x="525.599609"/>
      <use xlink:href="#DejaVuSans-63" x="592.257812"/>
      <use xlink:href="#DejaVuSans-63" x="647.238281"/>
      <use xlink:href="#DejaVuSans-75" x="702.21875"/>
      <use xlink:href="#DejaVuSans-72" x="765.597656"/>
      <use xlink:href="#DejaVuSans-61" x="806.710938"/>
      <use xlink:href="#DejaVuSans-63" x="867.990234"/>
      <use xlink:href="#DejaVuSans-79" x="922.970703"/>
     </g>
    </g>
   </g>
  </g>
  <g id="text_18">
   <!-- Training VS. Validation Accuracy - Dataset Size = 100.0% -->
   <g transform="translate(21.433984 15.558281) scale(0.11 -0.11)">
    <defs>
     <path id="DejaVuSans-53" d="M 3425 4513 
L 3425 3897 
Q 3066 4069 2747 4153 
Q 2428 4238 2131 4238 
Q 1616 4238 1336 4038 
Q 1056 3838 1056 3469 
Q 1056 3159 1242 3001 
Q 1428 2844 1947 2747 
L 2328 2669 
Q 3034 2534 3370 2195 
Q 3706 1856 3706 1288 
Q 3706 609 3251 259 
Q 2797 -91 1919 -91 
Q 1588 -91 1214 -16 
Q 841 59 441 206 
L 441 856 
Q 825 641 1194 531 
Q 1563 422 1919 422 
Q 2459 422 2753 634 
Q 3047 847 3047 1241 
Q 3047 1584 2836 1778 
Q 2625 1972 2144 2069 
L 1759 2144 
Q 1053 2284 737 2584 
Q 422 2884 422 3419 
Q 422 4038 858 4394 
Q 1294 4750 2059 4750 
Q 2388 4750 2728 4690 
Q 3069 4631 3425 4513 
z
" transform="scale(0.015625)"/>
     <path id="DejaVuSans-2d" d="M 313 2009 
L 1997 2009 
L 1997 1497 
L 313 1497 
L 313 2009 
z
" transform="scale(0.015625)"/>
     <path id="DejaVuSans-44" d="M 1259 4147 
L 1259 519 
L 2022 519 
Q 2988 519 3436 956 
Q 3884 1394 3884 2338 
Q 3884 3275 3436 3711 
Q 2988 4147 2022 4147 
L 1259 4147 
z
M 628 4666 
L 1925 4666 
Q 3281 4666 3915 4102 
Q 4550 3538 4550 2338 
Q 4550 1131 3912 565 
Q 3275 0 1925 0 
L 628 0 
L 628 4666 
z
" transform="scale(0.015625)"/>
     <path id="DejaVuSans-7a" d="M 353 3500 
L 3084 3500 
L 3084 2975 
L 922 459 
L 3084 459 
L 3084 0 
L 275 0 
L 275 525 
L 2438 3041 
L 353 3041 
L 353 3500 
z
" transform="scale(0.015625)"/>
     <path id="DejaVuSans-3d" d="M 678 2906 
L 4684 2906 
L 4684 2381 
L 678 2381 
L 678 2906 
z
M 678 1631 
L 4684 1631 
L 4684 1100 
L 678 1100 
L 678 1631 
z
" transform="scale(0.015625)"/>
     <path id="DejaVuSans-25" d="M 4653 2053 
Q 4381 2053 4226 1822 
Q 4072 1591 4072 1178 
Q 4072 772 4226 539 
Q 4381 306 4653 306 
Q 4919 306 5073 539 
Q 5228 772 5228 1178 
Q 5228 1588 5073 1820 
Q 4919 2053 4653 2053 
z
M 4653 2450 
Q 5147 2450 5437 2106 
Q 5728 1763 5728 1178 
Q 5728 594 5436 251 
Q 5144 -91 4653 -91 
Q 4153 -91 3862 251 
Q 3572 594 3572 1178 
Q 3572 1766 3864 2108 
Q 4156 2450 4653 2450 
z
M 1428 4353 
Q 1159 4353 1004 4120 
Q 850 3888 850 3481 
Q 850 3069 1003 2837 
Q 1156 2606 1428 2606 
Q 1700 2606 1854 2837 
Q 2009 3069 2009 3481 
Q 2009 3884 1853 4118 
Q 1697 4353 1428 4353 
z
M 4250 4750 
L 4750 4750 
L 1831 -91 
L 1331 -91 
L 4250 4750 
z
M 1428 4750 
Q 1922 4750 2215 4408 
Q 2509 4066 2509 3481 
Q 2509 2891 2217 2550 
Q 1925 2209 1428 2209 
Q 931 2209 642 2551 
Q 353 2894 353 3481 
Q 353 4063 643 4406 
Q 934 4750 1428 4750 
z
" transform="scale(0.015625)"/>
    </defs>
    <use xlink:href="#DejaVuSans-54"/>
    <use xlink:href="#DejaVuSans-72" x="46.333984"/>
    <use xlink:href="#DejaVuSans-61" x="87.447266"/>
    <use xlink:href="#DejaVuSans-69" x="148.726562"/>
    <use xlink:href="#DejaVuSans-6e" x="176.509766"/>
    <use xlink:href="#DejaVuSans-69" x="239.888672"/>
    <use xlink:href="#DejaVuSans-6e" x="267.671875"/>
    <use xlink:href="#DejaVuSans-67" x="331.050781"/>
    <use xlink:href="#DejaVuSans-20" x="394.527344"/>
    <use xlink:href="#DejaVuSans-56" x="426.314453"/>
    <use xlink:href="#DejaVuSans-53" x="494.722656"/>
    <use xlink:href="#DejaVuSans-2e" x="558.199219"/>
    <use xlink:href="#DejaVuSans-20" x="589.986328"/>
    <use xlink:href="#DejaVuSans-56" x="621.773438"/>
    <use xlink:href="#DejaVuSans-61" x="682.431641"/>
    <use xlink:href="#DejaVuSans-6c" x="743.710938"/>
    <use xlink:href="#DejaVuSans-69" x="771.494141"/>
    <use xlink:href="#DejaVuSans-64" x="799.277344"/>
    <use xlink:href="#DejaVuSans-61" x="862.753906"/>
    <use xlink:href="#DejaVuSans-74" x="924.033203"/>
    <use xlink:href="#DejaVuSans-69" x="963.242188"/>
    <use xlink:href="#DejaVuSans-6f" x="991.025391"/>
    <use xlink:href="#DejaVuSans-6e" x="1052.207031"/>
    <use xlink:href="#DejaVuSans-20" x="1115.585938"/>
    <use xlink:href="#DejaVuSans-41" x="1147.373047"/>
    <use xlink:href="#DejaVuSans-63" x="1214.03125"/>
    <use xlink:href="#DejaVuSans-63" x="1269.011719"/>
    <use xlink:href="#DejaVuSans-75" x="1323.992188"/>
    <use xlink:href="#DejaVuSans-72" x="1387.371094"/>
    <use xlink:href="#DejaVuSans-61" x="1428.484375"/>
    <use xlink:href="#DejaVuSans-63" x="1489.763672"/>
    <use xlink:href="#DejaVuSans-79" x="1544.744141"/>
    <use xlink:href="#DejaVuSans-20" x="1603.923828"/>
    <use xlink:href="#DejaVuSans-2d" x="1635.710938"/>
    <use xlink:href="#DejaVuSans-20" x="1671.794922"/>
    <use xlink:href="#DejaVuSans-44" x="1703.582031"/>
    <use xlink:href="#DejaVuSans-61" x="1780.583984"/>
    <use xlink:href="#DejaVuSans-74" x="1841.863281"/>
    <use xlink:href="#DejaVuSans-61" x="1881.072266"/>
    <use xlink:href="#DejaVuSans-73" x="1942.351562"/>
    <use xlink:href="#DejaVuSans-65" x="1994.451172"/>
    <use xlink:href="#DejaVuSans-74" x="2055.974609"/>
    <use xlink:href="#DejaVuSans-20" x="2095.183594"/>
    <use xlink:href="#DejaVuSans-53" x="2126.970703"/>
    <use xlink:href="#DejaVuSans-69" x="2190.447266"/>
    <use xlink:href="#DejaVuSans-7a" x="2218.230469"/>
    <use xlink:href="#DejaVuSans-65" x="2270.720703"/>
    <use xlink:href="#DejaVuSans-20" x="2332.244141"/>
    <use xlink:href="#DejaVuSans-3d" x="2364.03125"/>
    <use xlink:href="#DejaVuSans-20" x="2447.820312"/>
    <use xlink:href="#DejaVuSans-31" x="2479.607422"/>
    <use xlink:href="#DejaVuSans-30" x="2543.230469"/>
    <use xlink:href="#DejaVuSans-30" x="2606.853516"/>
    <use xlink:href="#DejaVuSans-2e" x="2670.476562"/>
    <use xlink:href="#DejaVuSans-30" x="2702.263672"/>
    <use xlink:href="#DejaVuSans-25" x="2765.886719"/>
   </g>
  </g>
 </g>
 <defs>
  <clipPath id="p5fec1e7a8b">
   <rect x="43.78125" y="37.296" width="279" height="202.464"/>
  </clipPath>
 </defs>
</svg>
