<?xml version="1.0" encoding="utf-8" standalone="no"?>
<!DOCTYPE svg PUBLIC "-//W3C//DTD SVG 1.1//EN"
  "http://www.w3.org/Graphics/SVG/1.1/DTD/svg11.dtd">
<svg xmlns:xlink="http://www.w3.org/1999/xlink" width="343.328516pt" height="277.31625pt" viewBox="0 0 343.328516 277.31625" xmlns="http://www.w3.org/2000/svg" version="1.1">
 <metadata>
  <rdf:RDF xmlns:dc="http://purl.org/dc/elements/1.1/" xmlns:cc="http://creativecommons.org/ns#" xmlns:rdf="http://www.w3.org/1999/02/22-rdf-syntax-ns#">
   <cc:Work>
    <dc:type rdf:resource="http://purl.org/dc/dcmitype/StillImage"/>
    <dc:date>2026-06-11T11:51:39.523661</dc:date>
    <dc:format>image/svg+xml</dc:format>
    <dc:creator>
     <cc:Agent>
      <dc:title>Matplotlib v3.8.4, https://matplotlib.org/</dc:title>
     </cc:Agent>
    </dc:creator>
   </cc:Work>
  </rdf:RDF>
 </metadata>
 <defs>
  <style type="text/css">*{stroke-linejoin: round; stroke-linecap: butt}</style>
 </defs>
 <g id="figure_1">
  <g id="patch_1">
   <path d="M 0 277.31625 
L 343.328516 277.31625 
L 343.328516 0 
L 0 0 
z
" style="fill: #ffffff"/>
  </g>
  <g id="axes_1">
   <g id="patch_2">
    <path d="M 43.78125 239.76 
L 322.78125 239.76 
L 322.78125 37.296 
L 43.78125 37.296 
z
" style="fill: #ffffff"/>
   </g>
   <g id="matplotlib.axis_1">
    <g id="xtick_1">
     <g id="line2d_1">
      <path d="M 56.209178 239.76 
L 56.209178 37.296 
" clip-path="url(#pbbf9870484)" style="fill: none; stroke-dasharray: 2.96,1.28; stroke-dashoffset: 0; stroke: #b0b0b0; stroke-opacity: 0.4; stroke-width: 0.8"/>
     </g>
     <g id="line2d_2">
      <defs>
       <path id="m981fa0befc" d="M 0 0 
L 0 3.5 
" style="stroke: #000000; stroke-width: 0.8"/>
      </defs>
      <g>
       <use xlink:href="#m981fa0befc" x="56.209178" y="239.76" style="stroke: #000000; stroke-width: 0.8"/>
      </g>
     </g>
     <g id="text_1">
      <!-- 0 -->
      <g transform="translate(53.027928 254.358437) scale(0.1 -0.1)">
       <defs>
        <path id="DejaVuSans-30" d="M 2034 4250 
Q 1547 4250 1301 3770 
Q 1056 3291 1056 2328 
Q 1056 1369 1301 889 
Q 1547 409 2034 409 
Q 2525 409 2770 889 
Q 3016 1369 3016 2328 
Q 3016 3291 2770 3770 
Q 2525 4250 2034 4250 
z
M 2034 4750 
Q 2819 4750 3233 4129 
Q 3647 3509 3647 2328 
Q 3647 1150 3233 529 
Q 2819 -91 2034 -91 
Q 1250 -91 836 529 
Q 422 1150 422 2328 
Q 422 3509 836 4129 
Q 1250 4750 2034 4750 
z
" transform="scale(0.015625)"/>
       </defs>
       <use xlink:href="#DejaVuSans-30"/>
      </g>
     </g>
    </g>
    <g id="xtick_2">
     <g id="line2d_3">
      <path d="M 106.987229 239.76 
L 106.987229 37.296 
" clip-path="url(#pbbf9870484)" style="fill: none; stroke-dasharray: 2.96,1.28; stroke-dashoffset: 0; stroke: #b0b0b0; stroke-opacity: 0.4; stroke-width: 0.8"/>
     </g>
     <g id="line2d_4">
      <g>
       <use xlink:href="#m981fa0befc" x="106.987229" y="239.76" style="stroke: #000000; stroke-width: 0.8"/>
      </g>
     </g>
     <g id="text_2">
      <!-- 200 -->
      <g transform="translate(97.443479 254.358437) scale(0.1 -0.1)">
       <defs>
        <path id="DejaVuSans-32" d="M 1228 531 
L 3431 531 
L 3431 0 
L 469 0 
L 469 531 
Q 828 903 1448 1529 
Q 2069 2156 2228 2338 
Q 2531 2678 2651 2914 
Q 2772 3150 2772 3378 
Q 2772 3750 2511 3984 
Q 2250 4219 1831 4219 
Q 1534 4219 1204 4116 
Q 875 4013 500 3803 
L 500 4441 
Q 881 4594 1212 4672 
Q 1544 4750 1819 4750 
Q 2544 4750 2975 4387 
Q 3406 4025 3406 3419 
Q 3406 3131 3298 2873 
Q 3191 2616 2906 2266 
Q 2828 2175 2409 1742 
Q 1991 1309 1228 531 
z
" transform="scale(0.015625)"/>
       </defs>
       <use xlink:href="#DejaVuSans-32"/>
       <use xlink:href="#DejaVuSans-30" x="63.623047"/>
       <use xlink:href="#DejaVuSans-30" x="127.246094"/>
      </g>
     </g>
    </g>
    <g id="xtick_3">
     <g id="line2d_5">
      <path d="M 157.765279 239.76 
L 157.765279 37.296 
" clip-path="url(#pbbf9870484)" style="fill: none; stroke-dasharray: 2.96,1.28; stroke-dashoffset: 0; stroke: #b0b0b0; stroke-opacity: 0.4; stroke-width: 0.8"/>
     </g>
     <g id="line2d_6">
      <g>
       <use xlink:href="#m981fa0befc" x="157.765279" y="239.76" style="stroke: #000000; stroke-width: 0.8"/>
      </g>
     </g>
     <g id="text_3">
      <!-- 400 -->
      <g transform="translate(148.221529 254.358437) scale(0.1 -0.1)">
       <defs>
        <path id="DejaVuSans-34" d="M 2419 4116 
L 825 1625 
L 2419 1625 
L 2419 4116 
z
M 2253 4666 
L 3047 4666 
L 3047 1625 
L 3713 1625 
L 3713 1100 
L 3047 1100 
L 3047 0 
L 2419 0 
L 2419 1100 
L 313 1100 
L 313 1709 
L 2253 4666 
z
" transform="scale(0.015625)"/>
       </defs>
       <use xlink:href="#DejaVuSans-34"/>
       <use xlink:href="#DejaVuSans-30" x="63.623047"/>
       <use xlink:href="#DejaVuSans-30" x="127.246094"/>
      </g>
     </g>
    </g>
    <g id="xtick_4">
     <g id="line2d_7">
      <path d="M 208.54333 239.76 
L 208.54333 37.296 
" clip-path="url(#pbbf9870484)" style="fill: none; stroke-dasharray: 2.96,1.28; stroke-dashoffset: 0; stroke: #b0b0b0; stroke-opacity: 0.4; stroke-width: 0.8"/>
     </g>
     <g id="line2d_8">
      <g>
       <use xlink:href="#m981fa0befc" x="208.54333" y="239.76" style="stroke: #000000; stroke-width: 0.8"/>
      </g>
     </g>
     <g id="text_4">
      <!-- 600 -->
      <g transform="translate(198.99958 254.358437) scale(0.1 -0.1)">
       <defs>
        <path id="DejaVuSans-36" d="M 2113 2584 
Q 1688 2584 1439 2293 
Q 1191 2003 1191 1497 
Q 1191 994 1439 701 
Q 1688 409 2113 409 
Q 2538 409 2786 701 
Q 3034 994 3034 1497 
Q 3034 2003 2786 2293 
Q 2538 2584 2113 2584 
z
M 3366 4563 
L 3366 3988 
Q 3128 4100 2886 4159 
Q 2644 4219 2406 4219 
Q 1781 4219 1451 3797 
Q 1122 3375 1075 2522 
Q 1259 2794 1537 2939 
Q 1816 3084 2150 3084 
Q 2853 3084 3261 2657 
Q 3669 2231 3669 1497 
Q 3669 778 3244 343 
Q 2819 -91 2113 -91 
Q 1303 -91 875 529 
Q 447 1150 447 2328 
Q 447 3434 972 4092 
Q 1497 4750 2381 4750 
Q 2619 4750 2861 4703 
Q 3103 4656 3366 4563 
z
" transform="scale(0.015625)"/>
       </defs>
       <use xlink:href="#DejaVuSans-36"/>
       <use xlink:href="#DejaVuSans-30" x="63.623047"/>
       <use xlink:href="#DejaVuSans-30" x="127.246094"/>
      </g>
     </g>
    </g>
    <g id="xtick_5">
     <g id="line2d_9">
      <path d="M 259.321381 239.76 
L 259.321381 37.296 
" clip-path="url(#pbbf9870484)" style="fill: none; stroke-dasharray: 2.96,1.28; stroke-dashoffset: 0; stroke: #b0b0b0; stroke-opacity: 0.4; stroke-width: 0.8"/>
     </g>
     <g id="line2d_10">
      <g>
       <use xlink:href="#m981fa0befc" x="259.321381" y="239.76" style="stroke: #000000; stroke-width: 0.8"/>
      </g>
     </g>
     <g id="text_5">
      <!-- 800 -->
      <g transform="translate(249.777631 254.358437) scale(0.1 -0.1)">
       <defs>
        <path id="DejaVuSans-38" d="M 2034 2216 
Q 1584 2216 1326 1975 
Q 1069 1734 1069 1313 
Q 1069 891 1326 650 
Q 1584 409 2034 409 
Q 2484 409 2743 651 
Q 3003 894 3003 1313 
Q 3003 1734 2745 1975 
Q 2488 2216 2034 2216 
z
M 1403 2484 
Q 997 2584 770 2862 
Q 544 3141 544 3541 
Q 544 4100 942 4425 
Q 1341 4750 2034 4750 
Q 2731 4750 3128 4425 
Q 3525 4100 3525 3541 
Q 3525 3141 3298 2862 
Q 3072 2584 2669 2484 
Q 3125 2378 3379 2068 
Q 3634 1759 3634 1313 
Q 3634 634 3220 271 
Q 2806 -91 2034 -91 
Q 1263 -91 848 271 
Q 434 634 434 1313 
Q 434 1759 690 2068 
Q 947 2378 1403 2484 
z
M 1172 3481 
Q 1172 3119 1398 2916 
Q 1625 2713 2034 2713 
Q 2441 2713 2670 2916 
Q 2900 3119 2900 3481 
Q 2900 3844 2670 4047 
Q 2441 4250 2034 4250 
Q 1625 4250 1398 4047 
Q 1172 3844 1172 3481 
z
" transform="scale(0.015625)"/>
       </defs>
       <use xlink:href="#DejaVuSans-38"/>
       <use xlink:href="#DejaVuSans-30" x="63.623047"/>
       <use xlink:href="#DejaVuSans-30" x="127.246094"/>
      </g>
     </g>
    </g>
    <g id="xtick_6">
     <g id="line2d_11">
      <path d="M 310.099432 239.76 
L 310.099432 37.296 
" clip-path="url(#pbbf9870484)" style="fill: none; stroke-dasharray: 2.96,1.28; stroke-dashoffset: 0; stroke: #b0b0b0; stroke-opacity: 0.4; stroke-width: 0.8"/>
     </g>
     <g id="line2d_12">
      <g>
       <use xlink:href="#m981fa0befc" x="310.099432" y="239.76" style="stroke: #000000; stroke-width: 0.8"/>
      </g>
     </g>
     <g id="text_6">
      <!-- 1000 -->
      <g transform="translate(297.374432 254.358437) scale(0.1 -0.1)">
       <defs>
        <path id="DejaVuSans-31" d="M 794 531 
L 1825 531 
L 1825 4091 
L 703 3866 
L 703 4441 
L 1819 4666 
L 2450 4666 
L 2450 531 
L 3481 531 
L 3481 0 
L 794 0 
L 794 531 
z
" transform="scale(0.015625)"/>
       </defs>
       <use xlink:href="#DejaVuSans-31"/>
       <use xlink:href="#DejaVuSans-30" x="63.623047"/>
       <use xlink:href="#DejaVuSans-30" x="127.246094"/>
       <use xlink:href="#DejaVuSans-30" x="190.869141"/>
      </g>
     </g>
    </g>
    <g id="text_7">
     <!-- Epochs -->
     <g transform="translate(165.365625 268.036562) scale(0.1 -0.1)">
      <defs>
       <path id="DejaVuSans-45" d="M 628 4666 
L 3578 4666 
L 3578 4134 
L 1259 4134 
L 1259 2753 
L 3481 2753 
L 3481 2222 
L 1259 2222 
L 1259 531 
L 3634 531 
L 3634 0 
L 628 0 
L 628 4666 
z
" transform="scale(0.015625)"/>
       <path id="DejaVuSans-70" d="M 1159 525 
L 1159 -1331 
L 581 -1331 
L 581 3500 
L 1159 3500 
L 1159 2969 
Q 1341 3281 1617 3432 
Q 1894 3584 2278 3584 
Q 2916 3584 3314 3078 
Q 3713 2572 3713 1747 
Q 3713 922 3314 415 
Q 2916 -91 2278 -91 
Q 1894 -91 1617 61 
Q 1341 213 1159 525 
z
M 3116 1747 
Q 3116 2381 2855 2742 
Q 2594 3103 2138 3103 
Q 1681 3103 1420 2742 
Q 1159 2381 1159 1747 
Q 1159 1113 1420 752 
Q 1681 391 2138 391 
Q 2594 391 2855 752 
Q 3116 1113 3116 1747 
z
" transform="scale(0.015625)"/>
       <path id="DejaVuSans-6f" d="M 1959 3097 
Q 1497 3097 1228 2736 
Q 959 2375 959 1747 
Q 959 1119 1226 758 
Q 1494 397 1959 397 
Q 2419 397 2687 759 
Q 2956 1122 2956 1747 
Q 2956 2369 2687 2733 
Q 2419 3097 1959 3097 
z
M 1959 3584 
Q 2709 3584 3137 3096 
Q 3566 2609 3566 1747 
Q 3566 888 3137 398 
Q 2709 -91 1959 -91 
Q 1206 -91 779 398 
Q 353 888 353 1747 
Q 353 2609 779 3096 
Q 1206 3584 1959 3584 
z
" transform="scale(0.015625)"/>
       <path id="DejaVuSans-63" d="M 3122 3366 
L 3122 2828 
Q 2878 2963 2633 3030 
Q 2388 3097 2138 3097 
Q 1578 3097 1268 2742 
Q 959 2388 959 1747 
Q 959 1106 1268 751 
Q 1578 397 2138 397 
Q 2388 397 2633 464 
Q 2878 531 3122 666 
L 3122 134 
Q 2881 22 2623 -34 
Q 2366 -91 2075 -91 
Q 1284 -91 818 406 
Q 353 903 353 1747 
Q 353 2603 823 3093 
Q 1294 3584 2113 3584 
Q 2378 3584 2631 3529 
Q 2884 3475 3122 3366 
z
" transform="scale(0.015625)"/>
       <path id="DejaVuSans-68" d="M 3513 2113 
L 3513 0 
L 2938 0 
L 2938 2094 
Q 2938 2591 2744 2837 
Q 2550 3084 2163 3084 
Q 1697 3084 1428 2787 
Q 1159 2491 1159 1978 
L 1159 0 
L 581 0 
L 581 4863 
L 1159 4863 
L 1159 2956 
Q 1366 3272 1645 3428 
Q 1925 3584 2291 3584 
Q 2894 3584 3203 3211 
Q 3513 2838 3513 2113 
z
" transform="scale(0.015625)"/>
       <path id="DejaVuSans-73" d="M 2834 3397 
L 2834 2853 
Q 2591 2978 2328 3040 
Q 2066 3103 1784 3103 
Q 1356 3103 1142 2972 
Q 928 2841 928 2578 
Q 928 2378 1081 2264 
Q 1234 2150 1697 2047 
L 1894 2003 
Q 2506 1872 2764 1633 
Q 3022 1394 3022 966 
Q 3022 478 2636 193 
Q 2250 -91 1575 -91 
Q 1294 -91 989 -36 
Q 684 19 347 128 
L 347 722 
Q 666 556 975 473 
Q 1284 391 1588 391 
Q 1994 391 2212 530 
Q 2431 669 2431 922 
Q 2431 1156 2273 1281 
Q 2116 1406 1581 1522 
L 1381 1569 
Q 847 1681 609 1914 
Q 372 2147 372 2553 
Q 372 3047 722 3315 
Q 1072 3584 1716 3584 
Q 2034 3584 2315 3537 
Q 2597 3491 2834 3397 
z
" transform="scale(0.015625)"/>
      </defs>
      <use xlink:href="#DejaVuSans-45"/>
      <use xlink:href="#DejaVuSans-70" x="63.183594"/>
      <use xlink:href="#DejaVuSans-6f" x="126.660156"/>
      <use xlink:href="#DejaVuSans-63" x="187.841797"/>
      <use xlink:href="#DejaVuSans-68" x="242.822266"/>
      <use xlink:href="#DejaVuSans-73" x="306.201172"/>
     </g>
    </g>
   </g>
   <g id="matplotlib.axis_2">
    <g id="ytick_1">
     <g id="line2d_13">
      <path d="M 43.78125 227.957403 
L 322.78125 227.957403 
" clip-path="url(#pbbf9870484)" style="fill: none; stroke-dasharray: 2.96,1.28; stroke-dashoffset: 0; stroke: #b0b0b0; stroke-opacity: 0.4; stroke-width: 0.8"/>
     </g>
     <g id="line2d_14">
      <defs>
       <path id="m98a19e46da" d="M 0 0 
L -3.5 0 
" style="stroke: #000000; stroke-width: 0.8"/>
      </defs>
      <g>
       <use xlink:href="#m98a19e46da" x="43.78125" y="227.957403" style="stroke: #000000; stroke-width: 0.8"/>
      </g>
     </g>
     <g id="text_8">
      <!-- 0.5 -->
      <g transform="translate(20.878125 231.756622) scale(0.1 -0.1)">
       <defs>
        <path id="DejaVuSans-2e" d="M 684 794 
L 1344 794 
L 1344 0 
L 684 0 
L 684 794 
z
" transform="scale(0.015625)"/>
        <path id="DejaVuSans-35" d="M 691 4666 
L 3169 4666 
L 3169 4134 
L 1269 4134 
L 1269 2991 
Q 1406 3038 1543 3061 
Q 1681 3084 1819 3084 
Q 2600 3084 3056 2656 
Q 3513 2228 3513 1497 
Q 3513 744 3044 326 
Q 2575 -91 1722 -91 
Q 1428 -91 1123 -41 
Q 819 9 494 109 
L 494 744 
Q 775 591 1075 516 
Q 1375 441 1709 441 
Q 2250 441 2565 725 
Q 2881 1009 2881 1497 
Q 2881 1984 2565 2268 
Q 2250 2553 1709 2553 
Q 1456 2553 1204 2497 
Q 953 2441 691 2322 
L 691 4666 
z
" transform="scale(0.015625)"/>
       </defs>
       <use xlink:href="#DejaVuSans-30"/>
       <use xlink:href="#DejaVuSans-2e" x="63.623047"/>
       <use xlink:href="#DejaVuSans-35" x="95.410156"/>
      </g>
     </g>
    </g>
    <g id="ytick_2">
     <g id="line2d_15">
      <path d="M 43.78125 191.083371 
L 322.78125 191.083371 
" clip-path="url(#pbbf9870484)" style="fill: none; stroke-dasharray: 2.96,1.28; stroke-dashoffset: 0; stroke: #b0b0b0; stroke-opacity: 0.4; stroke-width: 0.8"/>
     </g>
     <g id="line2d_16">
      <g>
       <use xlink:href="#m98a19e46da" x="43.78125" y="191.083371" style="stroke: #000000; stroke-width: 0.8"/>
      </g>
     </g>
     <g id="text_9">
      <!-- 0.6 -->
      <g transform="translate(20.878125 194.88259) scale(0.1 -0.1)">
       <use xlink:href="#DejaVuSans-30"/>
       <use xlink:href="#DejaVuSans-2e" x="63.623047"/>
       <use xlink:href="#DejaVuSans-36" x="95.410156"/>
      </g>
     </g>
    </g>
    <g id="ytick_3">
     <g id="line2d_17">
      <path d="M 43.78125 154.20934 
L 322.78125 154.20934 
" clip-path="url(#pbbf9870484)" style="fill: none; stroke-dasharray: 2.96,1.28; stroke-dashoffset: 0; stroke: #b0b0b0; stroke-opacity: 0.4; stroke-width: 0.8"/>
     </g>
     <g id="line2d_18">
      <g>
       <use xlink:href="#m98a19e46da" x="43.78125" y="154.20934" style="stroke: #000000; stroke-width: 0.8"/>
      </g>
     </g>
     <g id="text_10">
      <!-- 0.7 -->
      <g transform="translate(20.878125 158.008559) scale(0.1 -0.1)">
       <defs>
        <path id="DejaVuSans-37" d="M 525 4666 
L 3525 4666 
L 3525 4397 
L 1831 0 
L 1172 0 
L 2766 4134 
L 525 4134 
L 525 4666 
z
" transform="scale(0.015625)"/>
       </defs>
       <use xlink:href="#DejaVuSans-30"/>
       <use xlink:href="#DejaVuSans-2e" x="63.623047"/>
       <use xlink:href="#DejaVuSans-37" x="95.410156"/>
      </g>
     </g>
    </g>
    <g id="ytick_4">
     <g id="line2d_19">
      <path d="M 43.78125 117.335308 
L 322.78125 117.335308 
" clip-path="url(#pbbf9870484)" style="fill: none; stroke-dasharray: 2.96,1.28; stroke-dashoffset: 0; stroke: #b0b0b0; stroke-opacity: 0.4; stroke-width: 0.8"/>
     </g>
     <g id="line2d_20">
      <g>
       <use xlink:href="#m98a19e46da" x="43.78125" y="117.335308" style="stroke: #000000; stroke-width: 0.8"/>
      </g>
     </g>
     <g id="text_11">
      <!-- 0.8 -->
      <g transform="translate(20.878125 121.134527) scale(0.1 -0.1)">
       <use xlink:href="#DejaVuSans-30"/>
       <use xlink:href="#DejaVuSans-2e" x="63.623047"/>
       <use xlink:href="#DejaVuSans-38" x="95.410156"/>
      </g>
     </g>
    </g>
    <g id="ytick_5">
     <g id="line2d_21">
      <path d="M 43.78125 80.461277 
L 322.78125 80.461277 
" clip-path="url(#pbbf9870484)" style="fill: none; stroke-dasharray: 2.96,1.28; stroke-dashoffset: 0; stroke: #b0b0b0; stroke-opacity: 0.4; stroke-width: 0.8"/>
     </g>
     <g id="line2d_22">
      <g>
       <use xlink:href="#m98a19e46da" x="43.78125" y="80.461277" style="stroke: #000000; stroke-width: 0.8"/>
      </g>
     </g>
     <g id="text_12">
      <!-- 0.9 -->
      <g transform="translate(20.878125 84.260496) scale(0.1 -0.1)">
       <defs>
        <path id="DejaVuSans-39" d="M 703 97 
L 703 672 
Q 941 559 1184 500 
Q 1428 441 1663 441 
Q 2288 441 2617 861 
Q 2947 1281 2994 2138 
Q 2813 1869 2534 1725 
Q 2256 1581 1919 1581 
Q 1219 1581 811 2004 
Q 403 2428 403 3163 
Q 403 3881 828 4315 
Q 1253 4750 1959 4750 
Q 2769 4750 3195 4129 
Q 3622 3509 3622 2328 
Q 3622 1225 3098 567 
Q 2575 -91 1691 -91 
Q 1453 -91 1209 -44 
Q 966 3 703 97 
z
M 1959 2075 
Q 2384 2075 2632 2365 
Q 2881 2656 2881 3163 
Q 2881 3666 2632 3958 
Q 2384 4250 1959 4250 
Q 1534 4250 1286 3958 
Q 1038 3666 1038 3163 
Q 1038 2656 1286 2365 
Q 1534 2075 1959 2075 
z
" transform="scale(0.015625)"/>
       </defs>
       <use xlink:href="#DejaVuSans-30"/>
       <use xlink:href="#DejaVuSans-2e" x="63.623047"/>
       <use xlink:href="#DejaVuSans-39" x="95.410156"/>
      </g>
     </g>
    </g>
    <g id="ytick_6">
     <g id="line2d_23">
      <path d="M 43.78125 43.587245 
L 322.78125 43.587245 
" clip-path="url(#pbbf9870484)" style="fill: none; stroke-dasharray: 2.96,1.28; stroke-dashoffset: 0; stroke: #b0b0b0; stroke-opacity: 0.4; stroke-width: 0.8"/>
     </g>
     <g id="line2d_24">
      <g>
       <use xlink:href="#m98a19e46da" x="43.78125" y="43.587245" style="stroke: #000000; stroke-width: 0.8"/>
      </g>
     </g>
     <g id="text_13">
      <!-- 1.0 -->
      <g transform="translate(20.878125 47.386464) scale(0.1 -0.1)">
       <use xlink:href="#DejaVuSans-31"/>
       <use xlink:href="#DejaVuSans-2e" x="63.623047"/>
       <use xlink:href="#DejaVuSans-30" x="95.410156"/>
      </g>
     </g>
    </g>
    <g id="text_14">
     <!-- Accuracy -->
     <g transform="translate(14.798438 161.356125) rotate(-90) scale(0.1 -0.1)">
      <defs>
       <path id="DejaVuSans-41" d="M 2188 4044 
L 1331 1722 
L 3047 1722 
L 2188 4044 
z
M 1831 4666 
L 2547 4666 
L 4325 0 
L 3669 0 
L 3244 1197 
L 1141 1197 
L 716 0 
L 50 0 
L 1831 4666 
z
" transform="scale(0.015625)"/>
       <path id="DejaVuSans-75" d="M 544 1381 
L 544 3500 
L 1119 3500 
L 1119 1403 
Q 1119 906 1312 657 
Q 1506 409 1894 409 
Q 2359 409 2629 706 
Q 2900 1003 2900 1516 
L 2900 3500 
L 3475 3500 
L 3475 0 
L 2900 0 
L 2900 538 
Q 2691 219 2414 64 
Q 2138 -91 1772 -91 
Q 1169 -91 856 284 
Q 544 659 544 1381 
z
M 1991 3584 
L 1991 3584 
z
" transform="scale(0.015625)"/>
       <path id="DejaVuSans-72" d="M 2631 2963 
Q 2534 3019 2420 3045 
Q 2306 3072 2169 3072 
Q 1681 3072 1420 2755 
Q 1159 2438 1159 1844 
L 1159 0 
L 581 0 
L 581 3500 
L 1159 3500 
L 1159 2956 
Q 1341 3275 1631 3429 
Q 1922 3584 2338 3584 
Q 2397 3584 2469 3576 
Q 2541 3569 2628 3553 
L 2631 2963 
z
" transform="scale(0.015625)"/>
       <path id="DejaVuSans-61" d="M 2194 1759 
Q 1497 1759 1228 1600 
Q 959 1441 959 1056 
Q 959 750 1161 570 
Q 1363 391 1709 391 
Q 2188 391 2477 730 
Q 2766 1069 2766 1631 
L 2766 1759 
L 2194 1759 
z
M 3341 1997 
L 3341 0 
L 2766 0 
L 2766 531 
Q 2569 213 2275 61 
Q 1981 -91 1556 -91 
Q 1019 -91 701 211 
Q 384 513 384 1019 
Q 384 1609 779 1909 
Q 1175 2209 1959 2209 
L 2766 2209 
L 2766 2266 
Q 2766 2663 2505 2880 
Q 2244 3097 1772 3097 
Q 1472 3097 1187 3025 
Q 903 2953 641 2809 
L 641 3341 
Q 956 3463 1253 3523 
Q 1550 3584 1831 3584 
Q 2591 3584 2966 3190 
Q 3341 2797 3341 1997 
z
" transform="scale(0.015625)"/>
       <path id="DejaVuSans-79" d="M 2059 -325 
Q 1816 -950 1584 -1140 
Q 1353 -1331 966 -1331 
L 506 -1331 
L 506 -850 
L 844 -850 
Q 1081 -850 1212 -737 
Q 1344 -625 1503 -206 
L 1606 56 
L 191 3500 
L 800 3500 
L 1894 763 
L 2988 3500 
L 3597 3500 
L 2059 -325 
z
" transform="scale(0.015625)"/>
      </defs>
      <use xlink:href="#DejaVuSans-41"/>
      <use xlink:href="#DejaVuSans-63" x="66.658203"/>
      <use xlink:href="#DejaVuSans-63" x="121.638672"/>
      <use xlink:href="#DejaVuSans-75" x="176.619141"/>
      <use xlink:href="#DejaVuSans-72" x="239.998047"/>
      <use xlink:href="#DejaVuSans-61" x="281.111328"/>
      <use xlink:href="#DejaVuSans-63" x="342.390625"/>
      <use xlink:href="#DejaVuSans-79" x="397.371094"/>
     </g>
    </g>
   </g>
   <g id="line2d_25">
    <path d="M 56.463068 230.557091 
L 57.478629 203.208338 
L 57.732519 189.481955 
L 58.2403 140.087807 
L 58.74808 121.058067 
L 59.001971 116.586602 
L 59.255861 115.234762 
L 59.509751 106.187828 
L 59.763641 107.539668 
L 60.017532 102.964222 
L 60.271422 104.939969 
L 60.525312 100.572484 
L 60.779202 100.052558 
L 61.286983 95.373109 
L 61.540873 89.965749 
L 61.794764 92.565448 
L 62.048654 89.861768 
L 62.302544 90.797662 
L 62.556434 88.613909 
L 63.064215 89.237838 
L 63.318105 85.910229 
L 63.571995 85.702245 
L 63.825886 82.686623 
L 64.079776 86.01421 
L 64.333666 85.390302 
L 64.587556 81.750728 
L 64.841447 82.686623 
L 65.095337 82.686623 
L 65.349227 81.646747 
L 65.603117 81.542744 
L 65.857008 79.774959 
L 66.110898 79.047048 
L 66.364788 79.359013 
L 66.618678 78.735084 
L 66.872569 79.047048 
L 67.126459 89.029855 
L 67.380349 77.17526 
L 67.634239 76.967298 
L 67.88813 78.111154 
L 68.39591 76.239388 
L 68.6498 78.007173 
L 69.157581 73.74367 
L 69.411471 73.951653 
L 69.665361 72.495811 
L 69.919252 74.991529 
L 70.173142 74.263618 
L 70.427032 74.575583 
L 70.680922 74.575583 
L 70.934813 75.511455 
L 71.188703 72.287849 
L 71.442593 72.703794 
L 71.696483 71.871903 
L 71.950374 74.575583 
L 72.204264 73.74367 
L 72.458154 72.183868 
L 72.712044 69.68815 
L 72.965935 70.520063 
L 73.219825 70.104095 
L 73.473715 68.960239 
L 73.727605 70.832028 
L 73.981496 69.480188 
L 74.235386 69.480188 
L 74.489276 69.68815 
L 74.743166 70.104095 
L 74.997057 66.672505 
L 75.250947 68.024345 
L 75.504837 66.152579 
L 75.758727 68.232329 
L 76.012618 67.608399 
L 76.266508 65.63263 
L 76.520398 66.880489 
L 76.774288 66.98447 
L 77.028179 68.856258 
L 77.282069 68.544294 
L 77.535959 66.25656 
L 77.78985 65.944595 
L 78.04374 66.048576 
L 78.29763 68.232329 
L 78.55152 65.736611 
L 78.805411 66.36054 
L 79.059301 65.320665 
L 79.567081 61.369148 
L 79.820972 65.424668 
L 80.074862 67.504419 
L 80.582642 62.409024 
L 80.836533 63.344896 
L 81.090423 63.760863 
L 81.344313 62.720988 
L 81.598203 59.49736 
L 81.852094 58.769449 
L 82.105984 59.185395 
L 82.359874 58.457485 
L 82.613764 60.745219 
L 83.121545 58.041539 
L 83.375435 58.353504 
L 83.629325 56.16975 
L 83.883216 58.457485 
L 84.137106 57.833555 
L 84.390996 55.961789 
L 84.644886 57.001664 
L 84.898777 58.977411 
L 85.152667 58.041539 
L 85.406557 56.06577 
L 85.660447 56.689699 
L 85.914338 55.44184 
L 86.168228 56.06577 
L 86.422118 58.665468 
L 86.676008 58.353504 
L 86.929899 57.417609 
L 87.94546 56.585696 
L 88.19935 54.193981 
L 88.45324 56.481715 
L 88.70713 57.729574 
L 88.961021 57.001664 
L 89.214911 56.79368 
L 89.468801 56.79368 
L 89.722691 57.417609 
L 89.976582 55.44184 
L 90.230472 54.609949 
L 90.484362 54.609949 
L 90.738252 56.377734 
L 90.992143 55.129875 
L 91.246033 55.337859 
L 91.499923 55.961789 
L 91.753813 54.609949 
L 92.007704 54.401965 
L 92.515484 55.44184 
L 92.769374 53.986019 
L 93.023265 54.71393 
L 93.277155 57.313629 
L 93.531045 54.297984 
L 93.784936 55.025894 
L 94.038826 54.297984 
L 94.292716 54.505946 
L 94.546606 53.050125 
L 94.800497 53.986019 
L 95.308277 52.218234 
L 95.816058 51.594304 
L 96.069948 52.842141 
L 96.323838 51.698285 
L 96.577728 53.050125 
L 96.831619 52.842141 
L 97.085509 51.906269 
L 97.339399 51.802266 
L 97.593289 51.178336 
L 97.84718 50.970375 
L 98.10107 52.426195 
L 98.35496 52.322215 
L 98.60885 51.698285 
L 98.862741 52.01025 
L 99.116631 51.282339 
L 99.370521 50.138461 
L 99.624411 51.074355 
L 99.878302 51.282339 
L 100.132192 52.842141 
L 100.639972 51.802266 
L 100.893863 51.906269 
L 101.147753 52.218234 
L 101.401643 51.698285 
L 101.909424 51.178336 
L 102.163314 52.114231 
L 102.417204 52.114231 
L 102.671094 51.698285 
L 102.924985 50.866394 
L 103.432765 52.218234 
L 103.686655 51.594304 
L 103.940546 50.346445 
L 104.448326 51.906269 
L 104.956107 50.242464 
L 105.209997 50.242464 
L 105.463887 51.802266 
L 105.717777 52.322215 
L 105.971668 51.074355 
L 106.225558 50.554429 
L 106.479448 52.634179 
L 106.733338 50.762391 
L 106.987229 52.01025 
L 107.241119 49.098586 
L 107.495009 50.762391 
L 107.748899 51.282339 
L 108.00279 48.994605 
L 108.25668 50.346445 
L 108.51057 48.68264 
L 108.76446 48.786621 
L 109.018351 50.65841 
L 109.272241 49.618535 
L 109.526131 49.098586 
L 109.780021 50.346445 
L 110.287802 50.65841 
L 110.541692 49.098586 
L 110.795583 50.762391 
L 111.049473 50.346445 
L 111.303363 52.114231 
L 111.557253 49.722516 
L 112.065034 50.03448 
L 112.318924 49.722516 
L 112.572814 49.618535 
L 112.826705 50.03448 
L 113.080595 49.618535 
L 113.334485 50.65841 
L 113.588375 49.410551 
L 113.842266 51.074355 
L 114.096156 49.722516 
L 114.350046 49.826496 
L 114.603936 50.554429 
L 115.365607 48.890624 
L 115.619497 49.930499 
L 115.873388 49.618535 
L 116.127278 50.242464 
L 116.381168 49.618535 
L 116.635058 49.30657 
L 116.888949 49.826496 
L 117.142839 49.098586 
L 117.396729 49.30657 
L 117.650619 48.266695 
L 117.90451 50.138461 
L 118.1584 49.30657 
L 118.41229 49.722516 
L 118.66618 49.514554 
L 118.920071 49.098586 
L 119.173961 50.346445 
L 119.427851 49.618535 
L 119.681741 47.850749 
L 119.935632 49.618535 
L 120.189522 48.474657 
L 120.443412 49.410551 
L 120.697302 49.514554 
L 120.951193 49.30657 
L 121.205083 48.890624 
L 121.458973 49.30657 
L 121.712863 50.03448 
L 121.966754 49.722516 
L 122.220644 51.178336 
L 122.474534 49.930499 
L 122.982315 48.994605 
L 123.490095 49.514554 
L 123.743985 48.474657 
L 123.997876 49.618535 
L 124.251766 47.850749 
L 124.505656 48.890624 
L 124.759546 48.474657 
L 125.013437 49.826496 
L 125.267327 48.162714 
L 125.521217 49.410551 
L 125.775107 49.618535 
L 126.028998 49.202589 
L 126.282888 49.514554 
L 126.536778 48.890624 
L 126.790669 48.68264 
L 127.044559 49.098586 
L 127.298449 48.786621 
L 127.552339 48.786621 
L 127.80623 47.746746 
L 128.06012 48.890624 
L 128.31401 48.890624 
L 128.5679 48.370676 
L 128.821791 48.578659 
L 129.075681 49.098586 
L 129.329571 48.786621 
L 129.837352 50.866394 
L 130.091242 49.098586 
L 130.345132 49.514554 
L 130.599022 48.162714 
L 130.852913 48.162714 
L 131.106803 49.722516 
L 131.360693 48.162714 
L 131.614583 48.474657 
L 131.868474 49.618535 
L 132.122364 49.618535 
L 132.376254 47.95473 
L 132.630144 48.578659 
L 132.884035 47.642765 
L 133.391815 49.202589 
L 133.645705 48.68264 
L 133.899596 49.098586 
L 134.153486 47.95473 
L 134.407376 47.746746 
L 134.661266 49.202589 
L 134.915157 49.618535 
L 135.169047 48.578659 
L 135.422937 49.098586 
L 135.676827 48.162714 
L 135.930718 48.474657 
L 136.184608 49.30657 
L 136.438498 49.202589 
L 136.946279 48.058711 
L 137.200169 49.098586 
L 137.454059 49.30657 
L 138.21573 48.578659 
L 138.46962 47.642765 
L 138.72351 48.578659 
L 138.977401 50.450426 
L 139.231291 48.266695 
L 139.485181 47.95473 
L 139.739071 49.202589 
L 139.992962 47.746746 
L 140.246852 48.786621 
L 140.500742 49.098586 
L 140.754632 48.890624 
L 141.008523 47.95473 
L 141.262413 48.370676 
L 141.516303 48.370676 
L 141.770193 48.994605 
L 142.024084 47.850749 
L 142.277974 48.994605 
L 142.531864 49.098586 
L 142.785755 48.370676 
L 143.039645 48.370676 
L 143.293535 48.68264 
L 143.547425 49.202589 
L 143.801316 48.68264 
L 144.055206 48.578659 
L 144.309096 49.202589 
L 144.562986 48.786621 
L 144.816877 47.538784 
L 145.070767 48.890624 
L 145.324657 47.538784 
L 145.832438 48.578659 
L 146.086328 47.642765 
L 146.594108 48.266695 
L 146.847999 48.786621 
L 147.101889 48.162714 
L 147.355779 49.098586 
L 147.609669 48.370676 
L 147.86356 49.514554 
L 148.11745 48.578659 
L 148.37134 48.474657 
L 148.62523 49.098586 
L 148.879121 47.95473 
L 149.133011 47.538784 
L 149.386901 48.890624 
L 149.640791 48.578659 
L 149.894682 47.746746 
L 150.402462 49.098586 
L 150.656352 48.162714 
L 150.910243 48.68264 
L 151.164133 48.578659 
L 151.418023 48.994605 
L 151.671913 48.68264 
L 151.925804 48.890624 
L 152.179694 47.95473 
L 152.433584 48.994605 
L 152.687474 48.786621 
L 152.941365 47.95473 
L 153.195255 48.162714 
L 153.449145 48.058711 
L 153.703035 48.578659 
L 153.956926 49.410551 
L 154.210816 48.994605 
L 154.464706 48.890624 
L 154.972487 47.95473 
L 155.480267 48.578659 
L 155.734157 49.098586 
L 155.988048 48.370676 
L 156.241938 48.578659 
L 156.495828 48.370676 
L 156.749718 48.578659 
L 157.003609 48.994605 
L 157.257499 48.68264 
L 157.511389 47.95473 
L 157.765279 48.266695 
L 158.01917 48.370676 
L 158.27306 49.202589 
L 158.52695 47.642765 
L 158.78084 48.370676 
L 159.034731 47.3308 
L 159.288621 48.68264 
L 159.542511 48.68264 
L 159.796402 47.95473 
L 160.050292 47.850749 
L 160.558072 48.474657 
L 160.811963 49.722516 
L 161.065853 49.30657 
L 161.319743 47.95473 
L 161.573633 48.68264 
L 161.827524 48.370676 
L 162.081414 48.370676 
L 162.335304 47.642765 
L 162.589194 47.850749 
L 162.843085 47.850749 
L 163.096975 49.514554 
L 163.350865 49.618535 
L 163.604755 47.642765 
L 163.858646 47.746746 
L 164.112536 49.202589 
L 164.366426 49.30657 
L 164.620316 47.642765 
L 164.874207 48.786621 
L 165.128097 47.850749 
L 165.381987 47.642765 
L 165.635877 49.098586 
L 165.889768 48.370676 
L 166.143658 49.098586 
L 166.397548 47.95473 
L 166.651438 48.578659 
L 167.159219 48.266695 
L 167.413109 48.162714 
L 167.666999 48.786621 
L 167.92089 48.578659 
L 168.17478 48.68264 
L 168.42867 48.370676 
L 168.68256 47.538784 
L 168.936451 47.746746 
L 169.190341 49.618535 
L 169.444231 47.746746 
L 169.698121 49.30657 
L 169.952012 48.266695 
L 170.205902 47.850749 
L 170.459792 48.578659 
L 170.713682 47.642765 
L 170.967573 47.95473 
L 171.221463 49.514554 
L 171.475353 48.578659 
L 171.729243 48.474657 
L 171.983134 48.058711 
L 172.237024 48.162714 
L 172.490914 48.890624 
L 172.744804 48.68264 
L 172.998695 48.058711 
L 173.252585 48.578659 
L 173.506475 47.850749 
L 173.760365 48.162714 
L 174.014256 47.538784 
L 174.268146 48.474657 
L 174.522036 48.578659 
L 174.775926 47.746746 
L 175.029817 48.474657 
L 175.283707 47.850749 
L 175.537597 48.786621 
L 176.045378 47.538784 
L 176.299268 47.22682 
L 176.553158 48.474657 
L 176.807049 47.3308 
L 177.060939 48.162714 
L 177.314829 47.22682 
L 177.568719 49.410551 
L 177.82261 47.3308 
L 178.0765 48.474657 
L 178.33039 47.95473 
L 178.58428 48.578659 
L 178.838171 49.618535 
L 179.092061 48.370676 
L 179.345951 48.266695 
L 179.599841 48.474657 
L 179.853732 47.538784 
L 180.361512 48.058711 
L 180.615402 48.370676 
L 181.123183 48.266695 
L 181.377073 47.538784 
L 181.630963 48.162714 
L 181.884854 47.3308 
L 182.138744 47.434781 
L 182.392634 49.098586 
L 182.646524 48.266695 
L 182.900415 47.850749 
L 183.154305 48.68264 
L 183.408195 48.266695 
L 183.662085 47.018836 
L 183.915976 48.890624 
L 184.169866 47.746746 
L 184.677646 49.098586 
L 184.931537 48.058711 
L 185.185427 47.95473 
L 185.439317 48.266695 
L 185.693207 48.162714 
L 185.947098 48.890624 
L 186.454878 48.266695 
L 186.708768 48.266695 
L 186.962659 48.474657 
L 187.470439 47.538784 
L 187.97822 47.850749 
L 188.23211 49.30657 
L 188.486 47.95473 
L 188.73989 48.266695 
L 188.993781 47.122817 
L 189.247671 48.578659 
L 189.501561 47.642765 
L 189.755451 49.098586 
L 190.009342 47.95473 
L 190.263232 47.434781 
L 190.517122 47.95473 
L 190.771012 48.994605 
L 191.024903 47.642765 
L 191.532683 49.930499 
L 191.786574 47.3308 
L 192.294354 48.994605 
L 192.802135 47.642765 
L 193.056025 48.994605 
L 193.309915 48.786621 
L 193.563805 47.434781 
L 193.817696 47.746746 
L 194.071586 47.746746 
L 194.325476 48.162714 
L 194.579366 48.266695 
L 194.833257 47.538784 
L 195.087147 47.538784 
L 195.341037 48.162714 
L 195.594927 48.474657 
L 195.848818 48.162714 
L 196.102708 47.22682 
L 196.356598 48.370676 
L 196.610488 47.850749 
L 196.864379 47.746746 
L 197.118269 48.370676 
L 197.372159 48.058711 
L 197.626049 47.434781 
L 197.87994 48.68264 
L 198.13383 47.122817 
L 198.38772 48.786621 
L 198.64161 47.3308 
L 198.895501 48.890624 
L 199.149391 48.474657 
L 199.403281 47.746746 
L 199.657171 48.474657 
L 200.164952 48.266695 
L 200.418842 48.474657 
L 200.926623 47.746746 
L 201.180513 49.202589 
L 201.434403 47.642765 
L 201.688293 48.68264 
L 201.942184 47.746746 
L 202.196074 47.850749 
L 202.449964 47.538784 
L 202.957745 48.162714 
L 203.211635 48.786621 
L 203.465525 47.95473 
L 203.719415 47.850749 
L 203.973306 48.786621 
L 204.227196 47.850749 
L 204.481086 48.266695 
L 204.734976 47.122817 
L 205.750537 48.68264 
L 206.004428 48.786621 
L 206.258318 47.642765 
L 206.512208 48.994605 
L 206.766098 48.994605 
L 207.019989 49.410551 
L 207.527769 48.370676 
L 207.78166 49.202589 
L 208.03555 47.95473 
L 208.28944 49.410551 
L 208.797221 47.850749 
L 209.051111 48.474657 
L 209.305001 48.474657 
L 209.558891 48.266695 
L 209.812782 47.746746 
L 210.066672 48.474657 
L 210.320562 47.434781 
L 210.574452 48.578659 
L 210.828343 48.994605 
L 211.082233 47.746746 
L 211.336123 47.22682 
L 211.590013 47.850749 
L 211.843904 48.058711 
L 212.097794 47.850749 
L 212.351684 47.122817 
L 212.605574 47.434781 
L 212.859465 48.266695 
L 213.113355 47.434781 
L 213.367245 49.202589 
L 213.621135 48.370676 
L 213.875026 48.68264 
L 214.128916 49.202589 
L 214.382806 48.474657 
L 214.636696 47.22682 
L 214.890587 48.786621 
L 215.144477 48.162714 
L 215.398367 47.850749 
L 215.652257 48.68264 
L 215.906148 47.850749 
L 216.160038 48.786621 
L 216.667818 48.266695 
L 216.921709 47.3308 
L 217.429489 48.578659 
L 217.683379 47.95473 
L 217.93727 48.786621 
L 218.19116 46.498909 
L 218.44505 48.266695 
L 218.69894 47.3308 
L 219.206721 49.722516 
L 219.714501 47.434781 
L 219.968392 48.162714 
L 220.222282 47.434781 
L 220.476172 48.474657 
L 220.730062 48.68264 
L 220.983953 47.746746 
L 221.237843 48.058711 
L 221.491733 47.746746 
L 221.745623 49.722516 
L 222.253404 48.058711 
L 222.507294 48.370676 
L 222.761184 48.162714 
L 223.015075 47.642765 
L 223.268965 48.266695 
L 223.522855 46.914855 
L 224.030636 48.578659 
L 224.284526 48.266695 
L 224.538416 48.474657 
L 224.792307 48.474657 
L 225.300087 47.3308 
L 225.553977 48.370676 
L 225.807868 47.95473 
L 226.061758 48.68264 
L 226.315648 48.578659 
L 226.569538 47.018836 
L 226.823429 47.642765 
L 227.077319 48.786621 
L 227.331209 48.266695 
L 227.585099 47.434781 
L 227.83899 47.850749 
L 228.09288 47.642765 
L 228.34677 48.578659 
L 228.60066 48.162714 
L 228.854551 48.162714 
L 229.108441 47.850749 
L 229.362331 47.850749 
L 229.616221 48.058711 
L 229.870112 48.994605 
L 230.124002 48.058711 
L 230.377892 48.266695 
L 230.631782 47.850749 
L 230.885673 46.914855 
L 231.139563 49.30657 
L 231.647343 47.850749 
L 231.901234 48.68264 
L 232.155124 48.786621 
L 232.662904 47.538784 
L 232.916795 48.786621 
L 233.424575 48.68264 
L 233.932356 47.746746 
L 234.186246 48.474657 
L 234.440136 48.578659 
L 234.694026 49.410551 
L 235.201807 48.266695 
L 235.455697 49.098586 
L 235.709587 49.202589 
L 236.217368 47.850749 
L 236.471258 48.474657 
L 236.725148 48.370676 
L 236.979039 47.95473 
L 237.486819 47.95473 
L 237.740709 47.642765 
L 237.9946 49.410551 
L 238.24849 47.95473 
L 238.75627 49.098586 
L 239.010161 48.994605 
L 239.264051 47.3308 
L 239.517941 48.162714 
L 239.771831 47.22682 
L 240.025722 48.370676 
L 240.279612 47.538784 
L 240.533502 48.68264 
L 240.787393 48.266695 
L 241.295173 48.578659 
L 241.549063 48.68264 
L 241.802954 48.474657 
L 242.056844 47.538784 
L 242.310734 48.474657 
L 242.564624 47.538784 
L 242.818515 48.578659 
L 243.326295 48.578659 
L 243.834076 47.434781 
L 244.087966 48.266695 
L 244.595746 47.538784 
L 245.103527 49.202589 
L 245.357417 48.162714 
L 245.611307 47.850749 
L 245.865198 47.3308 
L 246.119088 49.826496 
L 246.626868 48.058711 
L 246.880759 48.058711 
L 247.134649 47.3308 
L 247.388539 47.850749 
L 247.642429 47.746746 
L 247.89632 47.95473 
L 248.15021 46.810874 
L 248.65799 48.370676 
L 248.911881 48.162714 
L 249.165771 48.266695 
L 249.419661 47.642765 
L 249.673551 48.370676 
L 250.181332 47.018836 
L 250.435222 47.434781 
L 250.689112 48.68264 
L 250.943003 47.95473 
L 251.196893 48.474657 
L 251.450783 48.68264 
L 251.704673 49.202589 
L 251.958564 46.810874 
L 252.212454 47.850749 
L 252.466344 48.162714 
L 252.720234 48.058711 
L 252.974125 48.162714 
L 253.228015 49.30657 
L 253.481905 47.642765 
L 253.735795 47.642765 
L 253.989686 47.95473 
L 254.243576 48.994605 
L 254.497466 48.058711 
L 254.751356 49.514554 
L 255.005247 47.850749 
L 255.259137 47.642765 
L 255.513027 48.370676 
L 255.766917 47.95473 
L 256.020808 49.098586 
L 256.274698 48.890624 
L 256.528588 48.058711 
L 256.782479 47.850749 
L 257.036369 48.890624 
L 257.290259 47.3308 
L 257.544149 48.058711 
L 257.79804 47.642765 
L 258.05193 48.058711 
L 258.30582 47.746746 
L 258.55971 47.642765 
L 258.813601 48.162714 
L 259.067491 47.95473 
L 259.575271 47.850749 
L 259.829162 48.162714 
L 260.083052 47.850749 
L 260.336942 49.098586 
L 260.590832 47.850749 
L 261.098613 48.890624 
L 261.352503 47.538784 
L 261.606393 48.162714 
L 261.860284 48.162714 
L 262.114174 47.95473 
L 262.621954 48.370676 
L 262.875845 47.538784 
L 263.129735 49.30657 
L 263.383625 48.370676 
L 263.637515 48.058711 
L 263.891406 48.058711 
L 264.145296 50.242464 
L 264.399186 48.162714 
L 264.653076 48.68264 
L 264.906967 47.850749 
L 265.160857 48.162714 
L 265.414747 47.850749 
L 265.668637 48.578659 
L 265.922528 47.95473 
L 266.430308 48.474657 
L 266.684198 47.746746 
L 266.938089 49.098586 
L 267.191979 48.162714 
L 267.699759 48.058711 
L 267.95365 49.098586 
L 268.20754 48.058711 
L 268.46143 47.746746 
L 268.71532 47.746746 
L 268.969211 48.370676 
L 269.223101 48.058711 
L 269.476991 47.95473 
L 269.730881 47.3308 
L 270.238662 48.786621 
L 270.492552 47.95473 
L 270.746442 48.994605 
L 271.000333 47.434781 
L 271.762003 48.474657 
L 272.015894 47.538784 
L 272.269784 47.746746 
L 272.523674 48.578659 
L 273.031455 48.266695 
L 273.285345 46.914855 
L 273.793126 48.786621 
L 274.047016 47.850749 
L 274.300906 48.370676 
L 274.808687 47.642765 
L 275.062577 47.850749 
L 275.316467 47.746746 
L 275.570357 48.162714 
L 275.824248 47.22682 
L 276.078138 48.474657 
L 276.332028 48.162714 
L 276.585918 48.578659 
L 277.093699 48.058711 
L 277.601479 49.202589 
L 277.85537 48.058711 
L 278.10926 48.890624 
L 278.36315 47.642765 
L 278.61704 47.95473 
L 278.870931 47.434781 
L 279.124821 47.434781 
L 279.378711 48.578659 
L 279.632601 46.810874 
L 280.140382 49.618535 
L 280.394272 47.95473 
L 280.648162 49.202589 
L 280.902053 47.434781 
L 281.155943 48.162714 
L 281.409833 47.850749 
L 281.663723 48.68264 
L 281.917614 47.538784 
L 282.171504 48.370676 
L 282.425394 48.266695 
L 282.679284 47.434781 
L 282.933175 48.786621 
L 283.187065 49.30657 
L 284.202626 47.3308 
L 284.456516 48.162714 
L 284.710406 47.122817 
L 284.964297 48.266695 
L 285.218187 47.122817 
L 285.472077 47.122817 
L 285.979858 48.994605 
L 286.233748 47.850749 
L 286.487638 47.95473 
L 286.741528 47.642765 
L 286.995419 48.786621 
L 287.249309 47.850749 
L 287.503199 47.746746 
L 287.757089 47.95473 
L 288.01098 47.850749 
L 288.26487 47.22682 
L 288.51876 47.850749 
L 288.77265 48.058711 
L 289.026541 49.098586 
L 289.280431 49.098586 
L 289.534321 47.746746 
L 289.788212 48.058711 
L 290.042102 47.746746 
L 290.295992 47.850749 
L 290.549882 48.890624 
L 290.803773 47.850749 
L 291.057663 47.3308 
L 291.311553 48.058711 
L 291.565443 47.538784 
L 291.819334 48.578659 
L 292.073224 47.850749 
L 292.327114 48.266695 
L 292.581004 48.994605 
L 292.834895 48.890624 
L 293.088785 47.746746 
L 293.342675 47.95473 
L 293.596565 47.22682 
L 293.850456 48.058711 
L 294.104346 47.95473 
L 294.612126 48.994605 
L 294.866017 47.95473 
L 295.119907 48.890624 
L 295.373797 47.850749 
L 295.627687 47.538784 
L 295.881578 47.746746 
L 296.135468 48.474657 
L 296.389358 48.786621 
L 296.643248 48.68264 
L 296.897139 48.994605 
L 297.404919 47.018836 
L 297.658809 48.578659 
L 297.9127 47.642765 
L 298.16659 48.162714 
L 298.42048 47.642765 
L 298.67437 47.538784 
L 298.928261 48.994605 
L 299.182151 47.95473 
L 299.943822 47.434781 
L 300.197712 48.266695 
L 300.451602 47.95473 
L 300.705492 49.410551 
L 300.959383 48.578659 
L 301.213273 48.68264 
L 301.467163 48.370676 
L 301.721053 48.370676 
L 301.974944 48.578659 
L 302.228834 47.434781 
L 302.482724 48.162714 
L 302.736614 48.058711 
L 302.990505 47.3308 
L 303.244395 48.266695 
L 303.498285 48.474657 
L 303.752175 47.538784 
L 304.006066 47.538784 
L 304.259956 48.68264 
L 304.513846 48.578659 
L 304.767736 47.95473 
L 305.021627 49.722516 
L 305.275517 47.538784 
L 305.529407 47.642765 
L 305.783298 48.058711 
L 306.037188 47.746746 
L 306.291078 48.266695 
L 306.544968 48.162714 
L 306.798859 48.370676 
L 307.052749 48.266695 
L 307.560529 47.746746 
L 307.81442 47.95473 
L 308.06831 49.30657 
L 308.3222 46.706871 
L 308.57609 48.578659 
L 308.829981 47.3308 
L 309.083871 48.68264 
L 309.337761 48.994605 
L 309.591651 47.434781 
L 309.845542 47.95473 
L 310.099432 49.30657 
L 310.099432 49.30657 
" clip-path="url(#pbbf9870484)" style="fill: none; stroke: #0000ff; stroke-width: 0.6; stroke-linecap: square"/>
   </g>
   <g id="line2d_26">
    <path d="M 56.463068 216.798146 
L 56.716958 225.774067 
L 57.224739 206.851869 
L 57.478629 216.07039 
L 57.732519 156.15008 
L 57.98641 128.00936 
L 58.49419 120.731597 
L 58.74808 110.542719 
L 59.001971 135.772324 
L 59.255861 105.933469 
L 59.509751 107.631627 
L 59.763641 101.809398 
L 60.017532 108.116805 
L 60.271422 94.531635 
L 60.525312 108.601983 
L 60.779202 107.389026 
L 61.033093 148.872316 
L 61.286983 88.952006 
L 61.540873 94.046456 
L 61.794764 92.833477 
L 62.302544 88.224228 
L 62.556434 96.71497 
L 62.810325 92.348299 
L 63.064215 97.685327 
L 63.318105 95.987192 
L 63.571995 100.596441 
L 63.825886 99.383484 
L 64.079776 106.903848 
L 64.333666 91.86312 
L 64.587556 90.164963 
L 64.841447 92.590899 
L 65.349227 87.981649 
L 65.603117 87.739049 
L 65.857008 89.194606 
L 66.110898 87.496449 
L 66.364788 96.957548 
L 66.618678 86.768671 
L 66.872569 118.548261 
L 67.126459 88.224228 
L 67.634239 85.555714 
L 67.88813 94.289034 
L 68.14202 87.496449 
L 68.39591 92.348299 
L 68.6498 84.827935 
L 69.157581 90.892742 
L 69.411471 86.040892 
L 69.665361 89.679785 
L 69.919252 89.437185 
L 70.173142 88.466828 
L 70.427032 91.62052 
L 70.680922 87.981649 
L 70.934813 90.407563 
L 71.188703 88.952006 
L 71.442593 84.100157 
L 71.696483 85.313113 
L 71.950374 90.650164 
L 72.204264 87.739049 
L 72.458154 88.952006 
L 72.712044 86.040892 
L 72.965935 88.224228 
L 73.219825 88.466828 
L 73.473715 84.827935 
L 73.727605 87.496449 
L 73.981496 83.614978 
L 74.235386 89.679785 
L 74.489276 84.342757 
L 74.743166 89.922385 
L 74.997057 90.407563 
L 75.250947 82.159421 
L 75.504837 82.8872 
L 75.758727 89.437185 
L 76.266508 87.739049 
L 76.520398 84.342757 
L 76.774288 84.100157 
L 77.282069 86.526092 
L 77.535959 85.313113 
L 77.78985 84.827935 
L 78.29763 91.135342 
L 78.55152 86.768671 
L 78.805411 89.922385 
L 79.059301 90.164963 
L 79.313191 84.585357 
L 79.567081 90.892742 
L 79.820972 89.922385 
L 80.074862 91.37792 
L 80.328752 95.501991 
L 80.836533 82.8872 
L 81.344313 93.561256 
L 81.598203 87.496449 
L 81.852094 84.100157 
L 82.105984 85.070535 
L 82.359874 84.827935 
L 82.613764 85.070535 
L 82.867655 84.100157 
L 83.121545 86.768671 
L 83.375435 86.283492 
L 83.629325 82.644599 
L 83.883216 83.372378 
L 84.137106 83.614978 
L 84.390996 80.461286 
L 84.644886 87.253871 
L 84.898777 83.614978 
L 85.152667 84.100157 
L 85.406557 85.070535 
L 85.660447 84.585357 
L 85.914338 87.253871 
L 86.168228 84.100157 
L 86.422118 83.614978 
L 86.676008 86.526092 
L 86.929899 87.011271 
L 87.183789 83.1298 
L 87.437679 86.283492 
L 87.691569 86.526092 
L 88.19935 83.857578 
L 88.70713 81.916821 
L 88.961021 87.011271 
L 89.214911 82.644599 
L 89.468801 84.100157 
L 89.722691 81.916821 
L 89.976582 86.040892 
L 90.230472 82.8872 
L 90.484362 87.496449 
L 90.738252 84.100157 
L 90.992143 85.070535 
L 91.246033 84.827935 
L 91.499923 88.466828 
L 91.753813 82.8872 
L 92.007704 84.342757 
L 92.261594 80.461286 
L 92.515484 85.313113 
L 92.769374 86.283492 
L 93.023265 84.585357 
L 93.277155 87.739049 
L 93.531045 84.100157 
L 93.784936 85.798314 
L 94.038826 83.857578 
L 94.292716 84.100157 
L 94.546606 84.100157 
L 94.800497 82.402021 
L 95.308277 85.555714 
L 95.562167 85.798314 
L 95.816058 82.402021 
L 96.069948 87.011271 
L 96.323838 86.040892 
L 96.831619 82.644599 
L 97.085509 84.342757 
L 97.339399 83.857578 
L 97.593289 83.1298 
L 97.84718 84.827935 
L 98.10107 83.857578 
L 98.35496 84.100157 
L 98.60885 83.857578 
L 98.862741 84.585357 
L 99.116631 84.342757 
L 99.370521 84.342757 
L 99.624411 85.555714 
L 99.878302 81.916821 
L 100.132192 83.614978 
L 100.386082 82.159421 
L 100.639972 84.585357 
L 100.893863 83.857578 
L 101.147753 82.644599 
L 101.655533 85.313113 
L 101.909424 82.402021 
L 102.417204 84.100157 
L 102.671094 82.8872 
L 102.924985 85.313113 
L 103.178875 82.8872 
L 103.432765 82.644599 
L 103.686655 86.283492 
L 103.940546 82.402021 
L 104.194436 86.526092 
L 104.448326 81.431642 
L 104.702216 85.555714 
L 104.956107 82.644599 
L 105.209997 82.402021 
L 105.463887 83.372378 
L 105.717777 82.8872 
L 105.971668 83.614978 
L 106.225558 80.218686 
L 106.479448 82.402021 
L 106.733338 82.159421 
L 106.987229 83.1298 
L 107.495009 84.100157 
L 107.748899 83.1298 
L 108.00279 83.372378 
L 108.25668 82.159421 
L 108.51057 82.402021 
L 108.76446 82.159421 
L 109.018351 84.100157 
L 109.526131 83.614978 
L 109.780021 82.644599 
L 110.033912 82.159421 
L 110.287802 83.372378 
L 110.541692 86.283492 
L 110.795583 82.8872 
L 111.049473 82.159421 
L 111.303363 82.8872 
L 111.557253 85.313113 
L 111.811144 81.916821 
L 112.065034 81.916821 
L 112.318924 83.857578 
L 112.572814 82.402021 
L 112.826705 84.585357 
L 113.080595 83.857578 
L 113.334485 83.857578 
L 113.842266 79.976085 
L 114.096156 81.674243 
L 114.350046 82.402021 
L 114.603936 83.614978 
L 114.857827 82.644599 
L 115.111717 85.555714 
L 115.365607 82.8872 
L 115.619497 84.585357 
L 115.873388 82.8872 
L 116.127278 82.8872 
L 116.381168 85.798314 
L 116.635058 83.614978 
L 116.888949 83.857578 
L 117.142839 83.1298 
L 117.396729 84.100157 
L 117.650619 81.189064 
L 117.90451 83.372378 
L 118.1584 82.159421 
L 118.41229 83.1298 
L 118.66618 82.8872 
L 118.920071 84.342757 
L 119.173961 83.857578 
L 119.427851 82.644599 
L 119.681741 83.1298 
L 119.935632 81.916821 
L 120.189522 82.402021 
L 120.443412 82.402021 
L 120.697302 82.8872 
L 120.951193 82.402021 
L 121.205083 82.159421 
L 121.712863 84.100157 
L 121.966754 84.100157 
L 122.220644 83.1298 
L 122.474534 83.372378 
L 122.728424 83.1298 
L 122.982315 83.1298 
L 123.236205 83.372378 
L 123.490095 84.585357 
L 123.743985 82.159421 
L 123.997876 83.372378 
L 124.251766 82.402021 
L 124.505656 81.916821 
L 124.759546 82.402021 
L 125.013437 84.827935 
L 125.521217 81.189064 
L 125.775107 82.644599 
L 126.028998 83.1298 
L 126.282888 83.1298 
L 126.536778 82.402021 
L 126.790669 82.402021 
L 127.044559 83.372378 
L 127.298449 81.674243 
L 127.552339 83.857578 
L 127.80623 81.916821 
L 128.06012 83.857578 
L 128.31401 82.402021 
L 128.5679 81.674243 
L 128.821791 82.644599 
L 129.075681 81.916821 
L 129.329571 85.313113 
L 129.583461 82.644599 
L 129.837352 81.189064 
L 130.091242 83.372378 
L 130.345132 83.372378 
L 130.599022 82.159421 
L 130.852913 82.644599 
L 131.106803 82.159421 
L 131.360693 82.8872 
L 131.614583 81.674243 
L 131.868474 83.614978 
L 132.122364 82.402021 
L 132.376254 82.402021 
L 132.630144 82.644599 
L 133.137925 81.674243 
L 133.391815 81.674243 
L 133.645705 82.402021 
L 133.899596 81.916821 
L 134.153486 83.1298 
L 134.407376 81.916821 
L 134.661266 83.1298 
L 134.915157 83.1298 
L 135.169047 83.857578 
L 135.422937 83.372378 
L 135.676827 81.674243 
L 135.930718 83.614978 
L 136.184608 83.1298 
L 136.438498 82.8872 
L 136.692388 83.614978 
L 136.946279 82.644599 
L 137.200169 82.644599 
L 137.707949 83.614978 
L 137.96184 82.159421 
L 138.21573 84.585357 
L 138.46962 84.100157 
L 138.72351 83.1298 
L 138.977401 83.1298 
L 139.231291 82.159421 
L 139.485181 82.402021 
L 139.739071 82.8872 
L 140.246852 81.431642 
L 140.500742 81.674243 
L 140.754632 81.674243 
L 141.008523 82.644599 
L 141.516303 83.1298 
L 141.770193 82.8872 
L 142.024084 82.159421 
L 142.277974 82.159421 
L 142.531864 82.8872 
L 143.039645 83.372378 
L 143.547425 82.402021 
L 143.801316 83.1298 
L 144.055206 83.372378 
L 144.309096 82.644599 
L 144.562986 82.8872 
L 144.816877 81.674243 
L 145.070767 82.402021 
L 145.324657 82.644599 
L 145.578547 82.159421 
L 145.832438 83.372378 
L 146.086328 83.372378 
L 146.340218 82.159421 
L 146.594108 82.8872 
L 146.847999 82.402021 
L 147.101889 83.1298 
L 147.355779 83.1298 
L 147.609669 82.402021 
L 148.11745 83.614978 
L 148.62523 83.1298 
L 148.879121 82.159421 
L 149.133011 83.372378 
L 149.386901 82.8872 
L 149.640791 83.857578 
L 149.894682 81.431642 
L 150.148572 83.614978 
L 150.402462 83.372378 
L 150.656352 82.402021 
L 150.910243 82.8872 
L 151.164133 83.1298 
L 151.418023 83.614978 
L 151.671913 82.644599 
L 151.925804 82.8872 
L 152.179694 83.372378 
L 152.433584 83.1298 
L 152.687474 82.644599 
L 152.941365 82.8872 
L 153.195255 82.159421 
L 153.449145 82.644599 
L 153.703035 82.644599 
L 153.956926 82.402021 
L 154.210816 82.8872 
L 154.464706 83.614978 
L 154.718596 83.372378 
L 155.226377 83.372378 
L 155.480267 83.1298 
L 155.734157 84.100157 
L 155.988048 83.857578 
L 156.241938 83.857578 
L 156.495828 82.8872 
L 156.749718 82.402021 
L 157.003609 82.402021 
L 157.257499 81.189064 
L 157.765279 82.8872 
L 158.27306 82.8872 
L 158.52695 82.159421 
L 158.78084 81.916821 
L 159.034731 82.159421 
L 159.288621 81.674243 
L 159.796402 81.674243 
L 160.050292 81.916821 
L 160.558072 82.8872 
L 160.811963 81.916821 
L 161.065853 82.159421 
L 161.319743 81.674243 
L 161.573633 82.402021 
L 161.827524 82.159421 
L 162.081414 82.644599 
L 162.335304 82.402021 
L 162.589194 82.402021 
L 162.843085 82.644599 
L 163.096975 82.644599 
L 163.350865 82.8872 
L 163.604755 81.916821 
L 163.858646 81.916821 
L 164.366426 82.402021 
L 164.620316 83.1298 
L 164.874207 82.8872 
L 165.635877 82.8872 
L 165.889768 83.372378 
L 166.143658 83.1298 
L 166.397548 83.1298 
L 166.651438 82.159421 
L 166.905329 81.674243 
L 167.413109 82.8872 
L 167.92089 82.402021 
L 168.17478 82.8872 
L 168.42867 81.916821 
L 168.936451 82.402021 
L 169.190341 82.402021 
L 169.444231 83.372378 
L 169.698121 82.644599 
L 169.952012 82.8872 
L 170.205902 83.372378 
L 170.459792 83.1298 
L 170.713682 83.372378 
L 170.967573 83.372378 
L 171.221463 82.8872 
L 171.475353 83.372378 
L 171.729243 82.644599 
L 171.983134 82.8872 
L 172.490914 82.8872 
L 172.744804 82.402021 
L 172.998695 83.1298 
L 173.252585 82.644599 
L 173.506475 82.8872 
L 173.760365 82.402021 
L 174.014256 82.402021 
L 174.268146 83.1298 
L 174.522036 83.1298 
L 175.029817 82.644599 
L 175.283707 82.644599 
L 175.537597 83.1298 
L 175.791488 83.1298 
L 176.045378 82.8872 
L 176.299268 83.1298 
L 176.807049 83.1298 
L 177.060939 83.372378 
L 177.314829 83.372378 
L 177.568719 82.644599 
L 177.82261 82.402021 
L 178.0765 82.644599 
L 178.33039 83.372378 
L 178.58428 83.372378 
L 179.092061 82.8872 
L 179.345951 83.1298 
L 179.599841 82.644599 
L 179.853732 82.644599 
L 180.107622 83.372378 
L 180.361512 82.644599 
L 180.615402 83.1298 
L 180.869293 83.372378 
L 181.123183 82.8872 
L 181.377073 83.614978 
L 182.646524 83.614978 
L 182.900415 82.8872 
L 183.154305 83.372378 
L 183.408195 83.372378 
L 183.915976 82.8872 
L 184.423756 83.372378 
L 185.185427 83.372378 
L 185.439317 83.614978 
L 185.693207 83.614978 
L 185.947098 83.1298 
L 186.200988 83.1298 
L 186.454878 82.644599 
L 186.708768 83.1298 
L 186.962659 82.8872 
L 187.216549 83.1298 
L 187.470439 82.8872 
L 187.97822 82.8872 
L 188.23211 83.1298 
L 188.486 82.402021 
L 188.993781 82.8872 
L 189.247671 82.402021 
L 189.501561 82.644599 
L 189.755451 82.402021 
L 190.263232 82.8872 
L 190.517122 82.644599 
L 191.278793 82.644599 
L 191.532683 82.8872 
L 191.786574 82.8872 
L 192.040464 83.1298 
L 192.294354 83.1298 
L 192.548244 83.372378 
L 192.802135 83.1298 
L 193.309915 83.1298 
L 193.563805 83.372378 
L 193.817696 83.1298 
L 194.071586 83.1298 
L 194.325476 82.644599 
L 194.579366 82.644599 
L 194.833257 82.159421 
L 195.087147 82.402021 
L 195.341037 83.1298 
L 195.594927 83.1298 
L 195.848818 82.644599 
L 196.102708 83.1298 
L 196.356598 82.644599 
L 196.610488 82.8872 
L 196.864379 82.8872 
L 197.118269 83.1298 
L 197.372159 82.8872 
L 197.626049 83.1298 
L 197.87994 83.1298 
L 198.13383 83.372378 
L 198.64161 82.8872 
L 198.895501 83.372378 
L 199.657171 83.372378 
L 199.911062 83.1298 
L 200.164952 82.644599 
L 200.418842 83.1298 
L 200.672732 83.1298 
L 200.926623 83.372378 
L 201.180513 83.1298 
L 201.434403 83.372378 
L 202.196074 83.372378 
L 202.449964 82.8872 
L 202.703854 82.8872 
L 202.957745 82.644599 
L 203.211635 82.644599 
L 203.719415 83.1298 
L 203.973306 82.8872 
L 204.227196 82.8872 
L 204.734976 83.372378 
L 205.496647 83.372378 
L 205.750537 82.8872 
L 206.004428 83.614978 
L 206.258318 82.8872 
L 206.512208 82.8872 
L 206.766098 82.644599 
L 207.019989 82.644599 
L 207.273879 83.372378 
L 207.527769 83.1298 
L 208.54333 83.1298 
L 208.797221 82.8872 
L 209.051111 82.8872 
L 209.305001 83.1298 
L 209.812782 83.1298 
L 210.066672 82.8872 
L 210.574452 83.372378 
L 210.828343 83.372378 
L 211.082233 83.1298 
L 211.590013 83.1298 
L 211.843904 82.8872 
L 212.605574 82.8872 
L 212.859465 83.372378 
L 213.367245 83.372378 
L 213.621135 83.1298 
L 214.128916 83.1298 
L 214.382806 83.372378 
L 214.636696 83.1298 
L 215.144477 83.1298 
L 215.398367 83.372378 
L 215.652257 82.8872 
L 215.906148 83.1298 
L 217.93727 83.1298 
L 218.19116 82.8872 
L 218.69894 82.8872 
L 218.952831 83.1298 
L 219.206721 83.1298 
L 219.714501 82.644599 
L 219.968392 82.8872 
L 220.983953 82.8872 
L 221.237843 83.1298 
L 221.491733 83.1298 
L 221.745623 82.644599 
L 221.999514 83.1298 
L 223.268965 83.1298 
L 223.522855 82.8872 
L 224.538416 82.8872 
L 224.792307 83.1298 
L 225.300087 82.644599 
L 225.553977 82.8872 
L 226.569538 82.8872 
L 226.823429 83.1298 
L 227.077319 82.8872 
L 227.331209 82.8872 
L 227.585099 83.1298 
L 227.83899 82.8872 
L 228.34677 82.8872 
L 228.60066 83.1298 
L 228.854551 83.1298 
L 229.108441 82.8872 
L 229.870112 82.8872 
L 230.124002 83.1298 
L 230.631782 83.1298 
L 230.885673 83.372378 
L 231.139563 83.1298 
L 231.393453 83.372378 
L 231.647343 83.372378 
L 232.155124 82.8872 
L 232.409014 83.1298 
L 232.662904 83.1298 
L 232.916795 82.8872 
L 233.170685 83.1298 
L 235.455697 83.1298 
L 235.709587 83.372378 
L 237.232929 83.372378 
L 237.486819 83.1298 
L 237.740709 83.372378 
L 237.9946 83.1298 
L 238.24849 83.372378 
L 239.264051 83.372378 
L 239.517941 83.1298 
L 241.802954 83.1298 
L 242.056844 82.8872 
L 242.310734 83.1298 
L 244.087966 83.1298 
L 244.341856 83.372378 
L 245.357417 83.372378 
L 245.611307 83.1298 
L 245.865198 83.372378 
L 251.958564 83.372378 
L 252.212454 83.614978 
L 252.466344 83.614978 
L 252.974125 83.1298 
L 253.228015 83.1298 
L 253.481905 82.8872 
L 254.243576 82.8872 
L 254.497466 83.1298 
L 255.005247 83.1298 
L 255.259137 82.8872 
L 255.513027 82.8872 
L 255.766917 83.1298 
L 256.020808 82.8872 
L 256.274698 83.1298 
L 257.036369 83.1298 
L 257.290259 82.8872 
L 259.829162 82.8872 
L 260.083052 83.1298 
L 260.336942 83.1298 
L 260.590832 82.8872 
L 261.606393 82.8872 
L 261.860284 83.1298 
L 262.114174 82.8872 
L 262.875845 82.8872 
L 263.129735 83.1298 
L 263.637515 83.1298 
L 263.891406 82.8872 
L 264.399186 82.8872 
L 264.653076 82.644599 
L 264.906967 82.8872 
L 267.445869 82.8872 
L 267.699759 83.1298 
L 268.71532 83.1298 
L 268.969211 82.8872 
L 269.476991 82.8872 
L 269.730881 83.1298 
L 269.984772 82.8872 
L 275.570357 82.8872 
L 275.824248 83.1298 
L 280.140382 83.1298 
L 280.394272 82.8872 
L 281.409833 82.8872 
L 281.663723 82.644599 
L 281.917614 82.644599 
L 282.171504 82.8872 
L 283.187065 82.8872 
L 283.440955 82.644599 
L 284.964297 82.644599 
L 285.218187 82.8872 
L 285.472077 82.644599 
L 285.725967 82.8872 
L 285.979858 82.644599 
L 286.487638 82.644599 
L 286.741528 82.8872 
L 286.995419 82.644599 
L 287.249309 82.644599 
L 287.503199 82.8872 
L 290.042102 82.8872 
L 290.295992 82.644599 
L 291.057663 82.644599 
L 291.311553 82.8872 
L 291.565443 82.644599 
L 291.819334 82.644599 
L 292.073224 82.8872 
L 296.643248 82.8872 
L 296.897139 83.1298 
L 297.151029 82.8872 
L 297.404919 83.1298 
L 300.451602 83.1298 
L 300.705492 82.8872 
L 300.959383 83.1298 
L 301.974944 83.1298 
L 302.228834 82.8872 
L 302.482724 83.1298 
L 303.244395 83.1298 
L 303.498285 82.8872 
L 307.81442 82.8872 
L 308.06831 83.1298 
L 309.591651 83.1298 
L 309.845542 82.8872 
L 310.099432 82.8872 
L 310.099432 82.8872 
" clip-path="url(#pbbf9870484)" style="fill: none; stroke: #ff0000; stroke-width: 0.6; stroke-linecap: square"/>
   </g>
   <g id="patch_3">
    <path d="M 43.78125 239.76 
L 43.78125 37.296 
" style="fill: none; stroke: #000000; stroke-width: 0.8; stroke-linejoin: miter; stroke-linecap: square"/>
   </g>
   <g id="patch_4">
    <path d="M 322.78125 239.76 
L 322.78125 37.296 
" style="fill: none; stroke: #000000; stroke-width: 0.8; stroke-linejoin: miter; stroke-linecap: square"/>
   </g>
   <g id="patch_5">
    <path d="M 43.78125 239.76 
L 322.78125 239.76 
" style="fill: none; stroke: #000000; stroke-width: 0.8; stroke-linejoin: miter; stroke-linecap: square"/>
   </g>
   <g id="patch_6">
    <path d="M 43.78125 37.296 
L 322.78125 37.296 
" style="fill: none; stroke: #000000; stroke-width: 0.8; stroke-linejoin: miter; stroke-linecap: square"/>
   </g>
   <g id="text_15">
    <!-- Baseline Model -->
    <g transform="translate(149.259844 31.296) scale(0.09 -0.09)">
     <defs>
      <path id="DejaVuSans-42" d="M 1259 2228 
L 1259 519 
L 2272 519 
Q 2781 519 3026 730 
Q 3272 941 3272 1375 
Q 3272 1813 3026 2020 
Q 2781 2228 2272 2228 
L 1259 2228 
z
M 1259 4147 
L 1259 2741 
L 2194 2741 
Q 2656 2741 2882 2914 
Q 3109 3088 3109 3444 
Q 3109 3797 2882 3972 
Q 2656 4147 2194 4147 
L 1259 4147 
z
M 628 4666 
L 2241 4666 
Q 2963 4666 3353 4366 
Q 3744 4066 3744 3513 
Q 3744 3084 3544 2831 
Q 3344 2578 2956 2516 
Q 3422 2416 3680 2098 
Q 3938 1781 3938 1306 
Q 3938 681 3513 340 
Q 3088 0 2303 0 
L 628 0 
L 628 4666 
z
" transform="scale(0.015625)"/>
      <path id="DejaVuSans-65" d="M 3597 1894 
L 3597 1613 
L 953 1613 
Q 991 1019 1311 708 
Q 1631 397 2203 397 
Q 2534 397 2845 478 
Q 3156 559 3463 722 
L 3463 178 
Q 3153 47 2828 -22 
Q 2503 -91 2169 -91 
Q 1331 -91 842 396 
Q 353 884 353 1716 
Q 353 2575 817 3079 
Q 1281 3584 2069 3584 
Q 2775 3584 3186 3129 
Q 3597 2675 3597 1894 
z
M 3022 2063 
Q 3016 2534 2758 2815 
Q 2500 3097 2075 3097 
Q 1594 3097 1305 2825 
Q 1016 2553 972 2059 
L 3022 2063 
z
" transform="scale(0.015625)"/>
      <path id="DejaVuSans-6c" d="M 603 4863 
L 1178 4863 
L 1178 0 
L 603 0 
L 603 4863 
z
" transform="scale(0.015625)"/>
      <path id="DejaVuSans-69" d="M 603 3500 
L 1178 3500 
L 1178 0 
L 603 0 
L 603 3500 
z
M 603 4863 
L 1178 4863 
L 1178 4134 
L 603 4134 
L 603 4863 
z
" transform="scale(0.015625)"/>
      <path id="DejaVuSans-6e" d="M 3513 2113 
L 3513 0 
L 2938 0 
L 2938 2094 
Q 2938 2591 2744 2837 
Q 2550 3084 2163 3084 
Q 1697 3084 1428 2787 
Q 1159 2491 1159 1978 
L 1159 0 
L 581 0 
L 581 3500 
L 1159 3500 
L 1159 2956 
Q 1366 3272 1645 3428 
Q 1925 3584 2291 3584 
Q 2894 3584 3203 3211 
Q 3513 2838 3513 2113 
z
" transform="scale(0.015625)"/>
      <path id="DejaVuSans-20" transform="scale(0.015625)"/>
      <path id="DejaVuSans-4d" d="M 628 4666 
L 1569 4666 
L 2759 1491 
L 3956 4666 
L 4897 4666 
L 4897 0 
L 4281 0 
L 4281 4097 
L 3078 897 
L 2444 897 
L 1241 4097 
L 1241 0 
L 628 0 
L 628 4666 
z
" transform="scale(0.015625)"/>
      <path id="DejaVuSans-64" d="M 2906 2969 
L 2906 4863 
L 3481 4863 
L 3481 0 
L 2906 0 
L 2906 525 
Q 2725 213 2448 61 
Q 2172 -91 1784 -91 
Q 1150 -91 751 415 
Q 353 922 353 1747 
Q 353 2572 751 3078 
Q 1150 3584 1784 3584 
Q 2172 3584 2448 3432 
Q 2725 3281 2906 2969 
z
M 947 1747 
Q 947 1113 1208 752 
Q 1469 391 1925 391 
Q 2381 391 2643 752 
Q 2906 1113 2906 1747 
Q 2906 2381 2643 2742 
Q 2381 3103 1925 3103 
Q 1469 3103 1208 2742 
Q 947 2381 947 1747 
z
" transform="scale(0.015625)"/>
     </defs>
     <use xlink:href="#DejaVuSans-42"/>
     <use xlink:href="#DejaVuSans-61" x="68.603516"/>
     <use xlink:href="#DejaVuSans-73" x="129.882812"/>
     <use xlink:href="#DejaVuSans-65" x="181.982422"/>
     <use xlink:href="#DejaVuSans-6c" x="243.505859"/>
     <use xlink:href="#DejaVuSans-69" x="271.289062"/>
     <use xlink:href="#DejaVuSans-6e" x="299.072266"/>
     <use xlink:href="#DejaVuSans-65" x="362.451172"/>
     <use xlink:href="#DejaVuSans-20" x="423.974609"/>
     <use xlink:href="#DejaVuSans-4d" x="455.761719"/>
     <use xlink:href="#DejaVuSans-6f" x="542.041016"/>
     <use xlink:href="#DejaVuSans-64" x="603.222656"/>
     <use xlink:href="#DejaVuSans-65" x="666.699219"/>
     <use xlink:href="#DejaVuSans-6c" x="728.222656"/>
    </g>
   </g>
   <g id="legend_1">
    <g id="patch_7">
     <path d="M 185.565625 234.76 
L 315.78125 234.76 
Q 317.78125 234.76 317.78125 232.76 
L 317.78125 204.40375 
Q 317.78125 202.40375 315.78125 202.40375 
L 185.565625 202.40375 
Q 183.565625 202.40375 183.565625 204.40375 
L 183.565625 232.76 
Q 183.565625 234.76 185.565625 234.76 
z
" style="fill: #ffffff; opacity: 0.8; stroke: #cccccc; stroke-linejoin: miter"/>
    </g>
    <g id="line2d_27">
     <path d="M 187.565625 210.502187 
L 197.565625 210.502187 
L 207.565625 210.502187 
" style="fill: none; stroke: #0000ff; stroke-width: 0.6; stroke-linecap: square"/>
    </g>
    <g id="text_16">
     <!-- Training Accuracy -->
     <g transform="translate(215.565625 214.002187) scale(0.1 -0.1)">
      <defs>
       <path id="DejaVuSans-54" d="M -19 4666 
L 3928 4666 
L 3928 4134 
L 2272 4134 
L 2272 0 
L 1638 0 
L 1638 4134 
L -19 4134 
L -19 4666 
z
" transform="scale(0.015625)"/>
       <path id="DejaVuSans-67" d="M 2906 1791 
Q 2906 2416 2648 2759 
Q 2391 3103 1925 3103 
Q 1463 3103 1205 2759 
Q 947 2416 947 1791 
Q 947 1169 1205 825 
Q 1463 481 1925 481 
Q 2391 481 2648 825 
Q 2906 1169 2906 1791 
z
M 3481 434 
Q 3481 -459 3084 -895 
Q 2688 -1331 1869 -1331 
Q 1566 -1331 1297 -1286 
Q 1028 -1241 775 -1147 
L 775 -588 
Q 1028 -725 1275 -790 
Q 1522 -856 1778 -856 
Q 2344 -856 2625 -561 
Q 2906 -266 2906 331 
L 2906 616 
Q 2728 306 2450 153 
Q 2172 0 1784 0 
Q 1141 0 747 490 
Q 353 981 353 1791 
Q 353 2603 747 3093 
Q 1141 3584 1784 3584 
Q 2172 3584 2450 3431 
Q 2728 3278 2906 2969 
L 2906 3500 
L 3481 3500 
L 3481 434 
z
" transform="scale(0.015625)"/>
      </defs>
      <use xlink:href="#DejaVuSans-54"/>
      <use xlink:href="#DejaVuSans-72" x="46.333984"/>
      <use xlink:href="#DejaVuSans-61" x="87.447266"/>
      <use xlink:href="#DejaVuSans-69" x="148.726562"/>
      <use xlink:href="#DejaVuSans-6e" x="176.509766"/>
      <use xlink:href="#DejaVuSans-69" x="239.888672"/>
      <use xlink:href="#DejaVuSans-6e" x="267.671875"/>
      <use xlink:href="#DejaVuSans-67" x="331.050781"/>
      <use xlink:href="#DejaVuSans-20" x="394.527344"/>
      <use xlink:href="#DejaVuSans-41" x="426.314453"/>
      <use xlink:href="#DejaVuSans-63" x="492.972656"/>
      <use xlink:href="#DejaVuSans-63" x="547.953125"/>
      <use xlink:href="#DejaVuSans-75" x="602.933594"/>
      <use xlink:href="#DejaVuSans-72" x="666.3125"/>
      <use xlink:href="#DejaVuSans-61" x="707.425781"/>
      <use xlink:href="#DejaVuSans-63" x="768.705078"/>
      <use xlink:href="#DejaVuSans-79" x="823.685547"/>
     </g>
    </g>
    <g id="line2d_28">
     <path d="M 187.565625 225.180312 
L 197.565625 225.180312 
L 207.565625 225.180312 
" style="fill: none; stroke: #ff0000; stroke-width: 0.6; stroke-linecap: square"/>
    </g>
    <g id="text_17">
     <!-- Validation Accuracy -->
     <g transform="translate(215.565625 228.680312) scale(0.1 -0.1)">
      <defs>
       <path id="DejaVuSans-56" d="M 1831 0 
L 50 4666 
L 709 4666 
L 2188 738 
L 3669 4666 
L 4325 4666 
L 2547 0 
L 1831 0 
z
" transform="scale(0.015625)"/>
       <path id="DejaVuSans-74" d="M 1172 4494 
L 1172 3500 
L 2356 3500 
L 2356 3053 
L 1172 3053 
L 1172 1153 
Q 1172 725 1289 603 
Q 1406 481 1766 481 
L 2356 481 
L 2356 0 
L 1766 0 
Q 1100 0 847 248 
Q 594 497 594 1153 
L 594 3053 
L 172 3053 
L 172 3500 
L 594 3500 
L 594 4494 
L 1172 4494 
z
" transform="scale(0.015625)"/>
      </defs>
      <use xlink:href="#DejaVuSans-56"/>
      <use xlink:href="#DejaVuSans-61" x="60.658203"/>
      <use xlink:href="#DejaVuSans-6c" x="121.9375"/>
      <use xlink:href="#DejaVuSans-69" x="149.720703"/>
      <use xlink:href="#DejaVuSans-64" x="177.503906"/>
      <use xlink:href="#DejaVuSans-61" x="240.980469"/>
      <use xlink:href="#DejaVuSans-74" x="302.259766"/>
      <use xlink:href="#DejaVuSans-69" x="341.46875"/>
      <use xlink:href="#DejaVuSans-6f" x="369.251953"/>
      <use xlink:href="#DejaVuSans-6e" x="430.433594"/>
      <use xlink:href="#DejaVuSans-20" x="493.8125"/>
      <use xlink:href="#DejaVuSans-41" x="525.599609"/>
      <use xlink:href="#DejaVuSans-63" x="592.257812"/>
      <use xlink:href="#DejaVuSans-63" x="647.238281"/>
      <use xlink:href="#DejaVuSans-75" x="702.21875"/>
      <use xlink:href="#DejaVuSans-72" x="765.597656"/>
      <use xlink:href="#DejaVuSans-61" x="806.710938"/>
      <use xlink:href="#DejaVuSans-63" x="867.990234"/>
      <use xlink:href="#DejaVuSans-79" x="922.970703"/>
     </g>
    </g>
   </g>
  </g>
  <g id="text_18">
   <!-- Training VS. Validation Accuracy - Dataset Size = 100.0% -->
   <g transform="translate(21.433984 15.558281) scale(0.11 -0.11)">
    <defs>
     <path id="DejaVuSans-53" d="M 3425 4513 
L 3425 3897 
Q 3066 4069 2747 4153 
Q 2428 4238 2131 4238 
Q 1616 4238 1336 4038 
Q 1056 3838 1056 3469 
Q 1056 3159 1242 3001 
Q 1428 2844 1947 2747 
L 2328 2669 
Q 3034 2534 3370 2195 
Q 3706 1856 3706 1288 
Q 3706 609 3251 259 
Q 2797 -91 1919 -91 
Q 1588 -91 1214 -16 
Q 841 59 441 206 
L 441 856 
Q 825 641 1194 531 
Q 1563 422 1919 422 
Q 2459 422 2753 634 
Q 3047 847 3047 1241 
Q 3047 1584 2836 1778 
Q 2625 1972 2144 2069 
L 1759 2144 
Q 1053 2284 737 2584 
Q 422 2884 422 3419 
Q 422 4038 858 4394 
Q 1294 4750 2059 4750 
Q 2388 4750 2728 4690 
Q 3069 4631 3425 4513 
z
" transform="scale(0.015625)"/>
     <path id="DejaVuSans-2d" d="M 313 2009 
L 1997 2009 
L 1997 1497 
L 313 1497 
L 313 2009 
z
" transform="scale(0.015625)"/>
     <path id="DejaVuSans-44" d="M 1259 4147 
L 1259 519 
L 2022 519 
Q 2988 519 3436 956 
Q 3884 1394 3884 2338 
Q 3884 3275 3436 3711 
Q 2988 4147 2022 4147 
L 1259 4147 
z
M 628 4666 
L 1925 4666 
Q 3281 4666 3915 4102 
Q 4550 3538 4550 2338 
Q 4550 1131 3912 565 
Q 3275 0 1925 0 
L 628 0 
L 628 4666 
z
" transform="scale(0.015625)"/>
     <path id="DejaVuSans-7a" d="M 353 3500 
L 3084 3500 
L 3084 2975 
L 922 459 
L 3084 459 
L 3084 0 
L 275 0 
L 275 525 
L 2438 3041 
L 353 3041 
L 353 3500 
z
" transform="scale(0.015625)"/>
     <path id="DejaVuSans-3d" d="M 678 2906 
L 4684 2906 
L 4684 2381 
L 678 2381 
L 678 2906 
z
M 678 1631 
L 4684 1631 
L 4684 1100 
L 678 1100 
L 678 1631 
z
" transform="scale(0.015625)"/>
     <path id="DejaVuSans-25" d="M 4653 2053 
Q 4381 2053 4226 1822 
Q 4072 1591 4072 1178 
Q 4072 772 4226 539 
Q 4381 306 4653 306 
Q 4919 306 5073 539 
Q 5228 772 5228 1178 
Q 5228 1588 5073 1820 
Q 4919 2053 4653 2053 
z
M 4653 2450 
Q 5147 2450 5437 2106 
Q 5728 1763 5728 1178 
Q 5728 594 5436 251 
Q 5144 -91 4653 -91 
Q 4153 -91 3862 251 
Q 3572 594 3572 1178 
Q 3572 1766 3864 2108 
Q 4156 2450 4653 2450 
z
M 1428 4353 
Q 1159 4353 1004 4120 
Q 850 3888 850 3481 
Q 850 3069 1003 2837 
Q 1156 2606 1428 2606 
Q 1700 2606 1854 2837 
Q 2009 3069 2009 3481 
Q 2009 3884 1853 4118 
Q 1697 4353 1428 4353 
z
M 4250 4750 
L 4750 4750 
L 1831 -91 
L 1331 -91 
L 4250 4750 
z
M 1428 4750 
Q 1922 4750 2215 4408 
Q 2509 4066 2509 3481 
Q 2509 2891 2217 2550 
Q 1925 2209 1428 2209 
Q 931 2209 642 2551 
Q 353 2894 353 3481 
Q 353 4063 643 4406 
Q 934 4750 1428 4750 
z
" transform="scale(0.015625)"/>
    </defs>
    <use xlink:href="#DejaVuSans-54"/>
    <use xlink:href="#DejaVuSans-72" x="46.333984"/>
    <use xlink:href="#DejaVuSans-61" x="87.447266"/>
    <use xlink:href="#DejaVuSans-69" x="148.726562"/>
    <use xlink:href="#DejaVuSans-6e" x="176.509766"/>
    <use xlink:href="#DejaVuSans-69" x="239.888672"/>
    <use xlink:href="#DejaVuSans-6e" x="267.671875"/>
    <use xlink:href="#DejaVuSans-67" x="331.050781"/>
    <use xlink:href="#DejaVuSans-20" x="394.527344"/>
    <use xlink:href="#DejaVuSans-56" x="426.314453"/>
    <use xlink:href="#DejaVuSans-53" x="494.722656"/>
    <use xlink:href="#DejaVuSans-2e" x="558.199219"/>
    <use xlink:href="#DejaVuSans-20" x="589.986328"/>
    <use xlink:href="#DejaVuSans-56" x="621.773438"/>
    <use xlink:href="#DejaVuSans-61" x="682.431641"/>
    <use xlink:href="#DejaVuSans-6c" x="743.710938"/>
    <use xlink:href="#DejaVuSans-69" x="771.494141"/>
    <use xlink:href="#DejaVuSans-64" x="799.277344"/>
    <use xlink:href="#DejaVuSans-61" x="862.753906"/>
    <use xlink:href="#DejaVuSans-74" x="924.033203"/>
    <use xlink:href="#DejaVuSans-69" x="963.242188"/>
    <use xlink:href="#DejaVuSans-6f" x="991.025391"/>
    <use xlink:href="#DejaVuSans-6e" x="1052.207031"/>
    <use xlink:href="#DejaVuSans-20" x="1115.585938"/>
    <use xlink:href="#DejaVuSans-41" x="1147.373047"/>
    <use xlink:href="#DejaVuSans-63" x="1214.03125"/>
    <use xlink:href="#DejaVuSans-63" x="1269.011719"/>
    <use xlink:href="#DejaVuSans-75" x="1323.992188"/>
    <use xlink:href="#DejaVuSans-72" x="1387.371094"/>
    <use xlink:href="#DejaVuSans-61" x="1428.484375"/>
    <use xlink:href="#DejaVuSans-63" x="1489.763672"/>
    <use xlink:href="#DejaVuSans-79" x="1544.744141"/>
    <use xlink:href="#DejaVuSans-20" x="1603.923828"/>
    <use xlink:href="#DejaVuSans-2d" x="1635.710938"/>
    <use xlink:href="#DejaVuSans-20" x="1671.794922"/>
    <use xlink:href="#DejaVuSans-44" x="1703.582031"/>
    <use xlink:href="#DejaVuSans-61" x="1780.583984"/>
    <use xlink:href="#DejaVuSans-74" x="1841.863281"/>
    <use xlink:href="#DejaVuSans-61" x="1881.072266"/>
    <use xlink:href="#DejaVuSans-73" x="1942.351562"/>
    <use xlink:href="#DejaVuSans-65" x="1994.451172"/>
    <use xlink:href="#DejaVuSans-74" x="2055.974609"/>
    <use xlink:href="#DejaVuSans-20" x="2095.183594"/>
    <use xlink:href="#DejaVuSans-53" x="2126.970703"/>
    <use xlink:href="#DejaVuSans-69" x="2190.447266"/>
    <use xlink:href="#DejaVuSans-7a" x="2218.230469"/>
    <use xlink:href="#DejaVuSans-65" x="2270.720703"/>
    <use xlink:href="#DejaVuSans-20" x="2332.244141"/>
    <use xlink:href="#DejaVuSans-3d" x="2364.03125"/>
    <use xlink:href="#DejaVuSans-20" x="2447.820312"/>
    <use xlink:href="#DejaVuSans-31" x="2479.607422"/>
    <use xlink:href="#DejaVuSans-30" x="2543.230469"/>
    <use xlink:href="#DejaVuSans-30" x="2606.853516"/>
    <use xlink:href="#DejaVuSans-2e" x="2670.476562"/>
    <use xlink:href="#DejaVuSans-30" x="2702.263672"/>
    <use xlink:href="#DejaVuSans-25" x="2765.886719"/>
   </g>
  </g>
 </g>
 <defs>
  <clipPath id="pbbf9870484">
   <rect x="43.78125" y="37.296" width="279" height="202.464"/>
  </clipPath>
 </defs>
</svg>
