<?xml version="1.0" encoding="utf-8" standalone="no"?>
<!DOCTYPE svg PUBLIC "-//W3C//DTD SVG 1.1//EN"
  "http://www.w3.org/Graphics/SVG/1.1/DTD/svg11.dtd">
<svg xmlns:xlink="http://www.w3.org/1999/xlink" width="356.053516pt" height="277.31625pt" viewBox="0 0 356.053516 277.31625" xmlns="http://www.w3.org/2000/svg" version="1.1">
 <metadata>
  <rdf:RDF xmlns:dc="http://purl.org/dc/elements/1.1/" xmlns:cc="http://creativecommons.org/ns#" xmlns:rdf="http://www.w3.org/1999/02/22-rdf-syntax-ns#">
   <cc:Work>
    <dc:type rdf:resource="http://purl.org/dc/dcmitype/StillImage"/>
    <dc:date>2026-06-15T18:15:38.290900</dc:date>
    <dc:format>image/svg+xml</dc:format>
    <dc:creator>
     <cc:Agent>
      <dc:title>Matplotlib v3.8.4, https://matplotlib.org/</dc:title>
     </cc:Agent>
    </dc:creator>
   </cc:Work>
  </rdf:RDF>
 </metadata>
 <defs>
  <style type="text/css">*{stroke-linejoin: round; stroke-linecap: butt}</style>
 </defs>
 <g id="figure_1">
  <g id="patch_1">
   <path d="M 0 277.31625 
L 356.053516 277.31625 
L 356.053516 0 
L 0 0 
z
" style="fill: #ffffff"/>
  </g>
  <g id="axes_1">
   <g id="patch_2">
    <path d="M 56.50625 239.76 
L 335.50625 239.76 
L 335.50625 37.296 
L 56.50625 37.296 
z
" style="fill: #ffffff"/>
   </g>
   <g id="matplotlib.axis_1">
    <g id="xtick_1">
     <g id="line2d_1">
      <path d="M 69.061187 239.76 
L 69.061187 37.296 
" clip-path="url(#p70a9fcb094)" style="fill: none; stroke-dasharray: 2.96,1.28; stroke-dashoffset: 0; stroke: #b0b0b0; stroke-opacity: 0.4; stroke-width: 0.8"/>
     </g>
     <g id="line2d_2">
      <defs>
       <path id="mb467001b1f" d="M 0 0 
L 0 3.5 
" style="stroke: #000000; stroke-width: 0.8"/>
      </defs>
      <g>
       <use xlink:href="#mb467001b1f" x="69.061187" y="239.76" style="stroke: #000000; stroke-width: 0.8"/>
      </g>
     </g>
     <g id="text_1">
      <!-- 0 -->
      <g transform="translate(65.879937 254.358437) scale(0.1 -0.1)">
       <defs>
        <path id="DejaVuSans-30" d="M 2034 4250 
Q 1547 4250 1301 3770 
Q 1056 3291 1056 2328 
Q 1056 1369 1301 889 
Q 1547 409 2034 409 
Q 2525 409 2770 889 
Q 3016 1369 3016 2328 
Q 3016 3291 2770 3770 
Q 2525 4250 2034 4250 
z
M 2034 4750 
Q 2819 4750 3233 4129 
Q 3647 3509 3647 2328 
Q 3647 1150 3233 529 
Q 2819 -91 2034 -91 
Q 1250 -91 836 529 
Q 422 1150 422 2328 
Q 422 3509 836 4129 
Q 1250 4750 2034 4750 
z
" transform="scale(0.015625)"/>
       </defs>
       <use xlink:href="#DejaVuSans-30"/>
      </g>
     </g>
    </g>
    <g id="xtick_2">
     <g id="line2d_3">
      <path d="M 100.781592 239.76 
L 100.781592 37.296 
" clip-path="url(#p70a9fcb094)" style="fill: none; stroke-dasharray: 2.96,1.28; stroke-dashoffset: 0; stroke: #b0b0b0; stroke-opacity: 0.4; stroke-width: 0.8"/>
     </g>
     <g id="line2d_4">
      <g>
       <use xlink:href="#mb467001b1f" x="100.781592" y="239.76" style="stroke: #000000; stroke-width: 0.8"/>
      </g>
     </g>
     <g id="text_2">
      <!-- 250 -->
      <g transform="translate(91.237842 254.358437) scale(0.1 -0.1)">
       <defs>
        <path id="DejaVuSans-32" d="M 1228 531 
L 3431 531 
L 3431 0 
L 469 0 
L 469 531 
Q 828 903 1448 1529 
Q 2069 2156 2228 2338 
Q 2531 2678 2651 2914 
Q 2772 3150 2772 3378 
Q 2772 3750 2511 3984 
Q 2250 4219 1831 4219 
Q 1534 4219 1204 4116 
Q 875 4013 500 3803 
L 500 4441 
Q 881 4594 1212 4672 
Q 1544 4750 1819 4750 
Q 2544 4750 2975 4387 
Q 3406 4025 3406 3419 
Q 3406 3131 3298 2873 
Q 3191 2616 2906 2266 
Q 2828 2175 2409 1742 
Q 1991 1309 1228 531 
z
" transform="scale(0.015625)"/>
        <path id="DejaVuSans-35" d="M 691 4666 
L 3169 4666 
L 3169 4134 
L 1269 4134 
L 1269 2991 
Q 1406 3038 1543 3061 
Q 1681 3084 1819 3084 
Q 2600 3084 3056 2656 
Q 3513 2228 3513 1497 
Q 3513 744 3044 326 
Q 2575 -91 1722 -91 
Q 1428 -91 1123 -41 
Q 819 9 494 109 
L 494 744 
Q 775 591 1075 516 
Q 1375 441 1709 441 
Q 2250 441 2565 725 
Q 2881 1009 2881 1497 
Q 2881 1984 2565 2268 
Q 2250 2553 1709 2553 
Q 1456 2553 1204 2497 
Q 953 2441 691 2322 
L 691 4666 
z
" transform="scale(0.015625)"/>
       </defs>
       <use xlink:href="#DejaVuSans-32"/>
       <use xlink:href="#DejaVuSans-35" x="63.623047"/>
       <use xlink:href="#DejaVuSans-30" x="127.246094"/>
      </g>
     </g>
    </g>
    <g id="xtick_3">
     <g id="line2d_5">
      <path d="M 132.501998 239.76 
L 132.501998 37.296 
" clip-path="url(#p70a9fcb094)" style="fill: none; stroke-dasharray: 2.96,1.28; stroke-dashoffset: 0; stroke: #b0b0b0; stroke-opacity: 0.4; stroke-width: 0.8"/>
     </g>
     <g id="line2d_6">
      <g>
       <use xlink:href="#mb467001b1f" x="132.501998" y="239.76" style="stroke: #000000; stroke-width: 0.8"/>
      </g>
     </g>
     <g id="text_3">
      <!-- 500 -->
      <g transform="translate(122.958248 254.358437) scale(0.1 -0.1)">
       <use xlink:href="#DejaVuSans-35"/>
       <use xlink:href="#DejaVuSans-30" x="63.623047"/>
       <use xlink:href="#DejaVuSans-30" x="127.246094"/>
      </g>
     </g>
    </g>
    <g id="xtick_4">
     <g id="line2d_7">
      <path d="M 164.222404 239.76 
L 164.222404 37.296 
" clip-path="url(#p70a9fcb094)" style="fill: none; stroke-dasharray: 2.96,1.28; stroke-dashoffset: 0; stroke: #b0b0b0; stroke-opacity: 0.4; stroke-width: 0.8"/>
     </g>
     <g id="line2d_8">
      <g>
       <use xlink:href="#mb467001b1f" x="164.222404" y="239.76" style="stroke: #000000; stroke-width: 0.8"/>
      </g>
     </g>
     <g id="text_4">
      <!-- 750 -->
      <g transform="translate(154.678654 254.358437) scale(0.1 -0.1)">
       <defs>
        <path id="DejaVuSans-37" d="M 525 4666 
L 3525 4666 
L 3525 4397 
L 1831 0 
L 1172 0 
L 2766 4134 
L 525 4134 
L 525 4666 
z
" transform="scale(0.015625)"/>
       </defs>
       <use xlink:href="#DejaVuSans-37"/>
       <use xlink:href="#DejaVuSans-35" x="63.623047"/>
       <use xlink:href="#DejaVuSans-30" x="127.246094"/>
      </g>
     </g>
    </g>
    <g id="xtick_5">
     <g id="line2d_9">
      <path d="M 195.942809 239.76 
L 195.942809 37.296 
" clip-path="url(#p70a9fcb094)" style="fill: none; stroke-dasharray: 2.96,1.28; stroke-dashoffset: 0; stroke: #b0b0b0; stroke-opacity: 0.4; stroke-width: 0.8"/>
     </g>
     <g id="line2d_10">
      <g>
       <use xlink:href="#mb467001b1f" x="195.942809" y="239.76" style="stroke: #000000; stroke-width: 0.8"/>
      </g>
     </g>
     <g id="text_5">
      <!-- 1000 -->
      <g transform="translate(183.217809 254.358437) scale(0.1 -0.1)">
       <defs>
        <path id="DejaVuSans-31" d="M 794 531 
L 1825 531 
L 1825 4091 
L 703 3866 
L 703 4441 
L 1819 4666 
L 2450 4666 
L 2450 531 
L 3481 531 
L 3481 0 
L 794 0 
L 794 531 
z
" transform="scale(0.015625)"/>
       </defs>
       <use xlink:href="#DejaVuSans-31"/>
       <use xlink:href="#DejaVuSans-30" x="63.623047"/>
       <use xlink:href="#DejaVuSans-30" x="127.246094"/>
       <use xlink:href="#DejaVuSans-30" x="190.869141"/>
      </g>
     </g>
    </g>
    <g id="xtick_6">
     <g id="line2d_11">
      <path d="M 227.663215 239.76 
L 227.663215 37.296 
" clip-path="url(#p70a9fcb094)" style="fill: none; stroke-dasharray: 2.96,1.28; stroke-dashoffset: 0; stroke: #b0b0b0; stroke-opacity: 0.4; stroke-width: 0.8"/>
     </g>
     <g id="line2d_12">
      <g>
       <use xlink:href="#mb467001b1f" x="227.663215" y="239.76" style="stroke: #000000; stroke-width: 0.8"/>
      </g>
     </g>
     <g id="text_6">
      <!-- 1250 -->
      <g transform="translate(214.938215 254.358437) scale(0.1 -0.1)">
       <use xlink:href="#DejaVuSans-31"/>
       <use xlink:href="#DejaVuSans-32" x="63.623047"/>
       <use xlink:href="#DejaVuSans-35" x="127.246094"/>
       <use xlink:href="#DejaVuSans-30" x="190.869141"/>
      </g>
     </g>
    </g>
    <g id="xtick_7">
     <g id="line2d_13">
      <path d="M 259.383621 239.76 
L 259.383621 37.296 
" clip-path="url(#p70a9fcb094)" style="fill: none; stroke-dasharray: 2.96,1.28; stroke-dashoffset: 0; stroke: #b0b0b0; stroke-opacity: 0.4; stroke-width: 0.8"/>
     </g>
     <g id="line2d_14">
      <g>
       <use xlink:href="#mb467001b1f" x="259.383621" y="239.76" style="stroke: #000000; stroke-width: 0.8"/>
      </g>
     </g>
     <g id="text_7">
      <!-- 1500 -->
      <g transform="translate(246.658621 254.358437) scale(0.1 -0.1)">
       <use xlink:href="#DejaVuSans-31"/>
       <use xlink:href="#DejaVuSans-35" x="63.623047"/>
       <use xlink:href="#DejaVuSans-30" x="127.246094"/>
       <use xlink:href="#DejaVuSans-30" x="190.869141"/>
      </g>
     </g>
    </g>
    <g id="xtick_8">
     <g id="line2d_15">
      <path d="M 291.104026 239.76 
L 291.104026 37.296 
" clip-path="url(#p70a9fcb094)" style="fill: none; stroke-dasharray: 2.96,1.28; stroke-dashoffset: 0; stroke: #b0b0b0; stroke-opacity: 0.4; stroke-width: 0.8"/>
     </g>
     <g id="line2d_16">
      <g>
       <use xlink:href="#mb467001b1f" x="291.104026" y="239.76" style="stroke: #000000; stroke-width: 0.8"/>
      </g>
     </g>
     <g id="text_8">
      <!-- 1750 -->
      <g transform="translate(278.379026 254.358437) scale(0.1 -0.1)">
       <use xlink:href="#DejaVuSans-31"/>
       <use xlink:href="#DejaVuSans-37" x="63.623047"/>
       <use xlink:href="#DejaVuSans-35" x="127.246094"/>
       <use xlink:href="#DejaVuSans-30" x="190.869141"/>
      </g>
     </g>
    </g>
    <g id="xtick_9">
     <g id="line2d_17">
      <path d="M 322.824432 239.76 
L 322.824432 37.296 
" clip-path="url(#p70a9fcb094)" style="fill: none; stroke-dasharray: 2.96,1.28; stroke-dashoffset: 0; stroke: #b0b0b0; stroke-opacity: 0.4; stroke-width: 0.8"/>
     </g>
     <g id="line2d_18">
      <g>
       <use xlink:href="#mb467001b1f" x="322.824432" y="239.76" style="stroke: #000000; stroke-width: 0.8"/>
      </g>
     </g>
     <g id="text_9">
      <!-- 2000 -->
      <g transform="translate(310.099432 254.358437) scale(0.1 -0.1)">
       <use xlink:href="#DejaVuSans-32"/>
       <use xlink:href="#DejaVuSans-30" x="63.623047"/>
       <use xlink:href="#DejaVuSans-30" x="127.246094"/>
       <use xlink:href="#DejaVuSans-30" x="190.869141"/>
      </g>
     </g>
    </g>
    <g id="text_10">
     <!-- Epochs -->
     <g transform="translate(178.090625 268.036562) scale(0.1 -0.1)">
      <defs>
       <path id="DejaVuSans-45" d="M 628 4666 
L 3578 4666 
L 3578 4134 
L 1259 4134 
L 1259 2753 
L 3481 2753 
L 3481 2222 
L 1259 2222 
L 1259 531 
L 3634 531 
L 3634 0 
L 628 0 
L 628 4666 
z
" transform="scale(0.015625)"/>
       <path id="DejaVuSans-70" d="M 1159 525 
L 1159 -1331 
L 581 -1331 
L 581 3500 
L 1159 3500 
L 1159 2969 
Q 1341 3281 1617 3432 
Q 1894 3584 2278 3584 
Q 2916 3584 3314 3078 
Q 3713 2572 3713 1747 
Q 3713 922 3314 415 
Q 2916 -91 2278 -91 
Q 1894 -91 1617 61 
Q 1341 213 1159 525 
z
M 3116 1747 
Q 3116 2381 2855 2742 
Q 2594 3103 2138 3103 
Q 1681 3103 1420 2742 
Q 1159 2381 1159 1747 
Q 1159 1113 1420 752 
Q 1681 391 2138 391 
Q 2594 391 2855 752 
Q 3116 1113 3116 1747 
z
" transform="scale(0.015625)"/>
       <path id="DejaVuSans-6f" d="M 1959 3097 
Q 1497 3097 1228 2736 
Q 959 2375 959 1747 
Q 959 1119 1226 758 
Q 1494 397 1959 397 
Q 2419 397 2687 759 
Q 2956 1122 2956 1747 
Q 2956 2369 2687 2733 
Q 2419 3097 1959 3097 
z
M 1959 3584 
Q 2709 3584 3137 3096 
Q 3566 2609 3566 1747 
Q 3566 888 3137 398 
Q 2709 -91 1959 -91 
Q 1206 -91 779 398 
Q 353 888 353 1747 
Q 353 2609 779 3096 
Q 1206 3584 1959 3584 
z
" transform="scale(0.015625)"/>
       <path id="DejaVuSans-63" d="M 3122 3366 
L 3122 2828 
Q 2878 2963 2633 3030 
Q 2388 3097 2138 3097 
Q 1578 3097 1268 2742 
Q 959 2388 959 1747 
Q 959 1106 1268 751 
Q 1578 397 2138 397 
Q 2388 397 2633 464 
Q 2878 531 3122 666 
L 3122 134 
Q 2881 22 2623 -34 
Q 2366 -91 2075 -91 
Q 1284 -91 818 406 
Q 353 903 353 1747 
Q 353 2603 823 3093 
Q 1294 3584 2113 3584 
Q 2378 3584 2631 3529 
Q 2884 3475 3122 3366 
z
" transform="scale(0.015625)"/>
       <path id="DejaVuSans-68" d="M 3513 2113 
L 3513 0 
L 2938 0 
L 2938 2094 
Q 2938 2591 2744 2837 
Q 2550 3084 2163 3084 
Q 1697 3084 1428 2787 
Q 1159 2491 1159 1978 
L 1159 0 
L 581 0 
L 581 4863 
L 1159 4863 
L 1159 2956 
Q 1366 3272 1645 3428 
Q 1925 3584 2291 3584 
Q 2894 3584 3203 3211 
Q 3513 2838 3513 2113 
z
" transform="scale(0.015625)"/>
       <path id="DejaVuSans-73" d="M 2834 3397 
L 2834 2853 
Q 2591 2978 2328 3040 
Q 2066 3103 1784 3103 
Q 1356 3103 1142 2972 
Q 928 2841 928 2578 
Q 928 2378 1081 2264 
Q 1234 2150 1697 2047 
L 1894 2003 
Q 2506 1872 2764 1633 
Q 3022 1394 3022 966 
Q 3022 478 2636 193 
Q 2250 -91 1575 -91 
Q 1294 -91 989 -36 
Q 684 19 347 128 
L 347 722 
Q 666 556 975 473 
Q 1284 391 1588 391 
Q 1994 391 2212 530 
Q 2431 669 2431 922 
Q 2431 1156 2273 1281 
Q 2116 1406 1581 1522 
L 1381 1569 
Q 847 1681 609 1914 
Q 372 2147 372 2553 
Q 372 3047 722 3315 
Q 1072 3584 1716 3584 
Q 2034 3584 2315 3537 
Q 2597 3491 2834 3397 
z
" transform="scale(0.015625)"/>
      </defs>
      <use xlink:href="#DejaVuSans-45"/>
      <use xlink:href="#DejaVuSans-70" x="63.183594"/>
      <use xlink:href="#DejaVuSans-6f" x="126.660156"/>
      <use xlink:href="#DejaVuSans-63" x="187.841797"/>
      <use xlink:href="#DejaVuSans-68" x="242.822266"/>
      <use xlink:href="#DejaVuSans-73" x="306.201172"/>
     </g>
    </g>
   </g>
   <g id="matplotlib.axis_2">
    <g id="ytick_1">
     <g id="line2d_19">
      <path d="M 56.50625 211.592509 
L 335.50625 211.592509 
" clip-path="url(#p70a9fcb094)" style="fill: none; stroke-dasharray: 2.96,1.28; stroke-dashoffset: 0; stroke: #b0b0b0; stroke-opacity: 0.4; stroke-width: 0.8"/>
     </g>
     <g id="line2d_20">
      <defs>
       <path id="m224b863ec5" d="M 0 0 
L -3.5 0 
" style="stroke: #000000; stroke-width: 0.8"/>
      </defs>
      <g>
       <use xlink:href="#m224b863ec5" x="56.50625" y="211.592509" style="stroke: #000000; stroke-width: 0.8"/>
      </g>
     </g>
     <g id="text_11">
      <!-- 0.490 -->
      <g transform="translate(20.878125 215.391728) scale(0.1 -0.1)">
       <defs>
        <path id="DejaVuSans-2e" d="M 684 794 
L 1344 794 
L 1344 0 
L 684 0 
L 684 794 
z
" transform="scale(0.015625)"/>
        <path id="DejaVuSans-34" d="M 2419 4116 
L 825 1625 
L 2419 1625 
L 2419 4116 
z
M 2253 4666 
L 3047 4666 
L 3047 1625 
L 3713 1625 
L 3713 1100 
L 3047 1100 
L 3047 0 
L 2419 0 
L 2419 1100 
L 313 1100 
L 313 1709 
L 2253 4666 
z
" transform="scale(0.015625)"/>
        <path id="DejaVuSans-39" d="M 703 97 
L 703 672 
Q 941 559 1184 500 
Q 1428 441 1663 441 
Q 2288 441 2617 861 
Q 2947 1281 2994 2138 
Q 2813 1869 2534 1725 
Q 2256 1581 1919 1581 
Q 1219 1581 811 2004 
Q 403 2428 403 3163 
Q 403 3881 828 4315 
Q 1253 4750 1959 4750 
Q 2769 4750 3195 4129 
Q 3622 3509 3622 2328 
Q 3622 1225 3098 567 
Q 2575 -91 1691 -91 
Q 1453 -91 1209 -44 
Q 966 3 703 97 
z
M 1959 2075 
Q 2384 2075 2632 2365 
Q 2881 2656 2881 3163 
Q 2881 3666 2632 3958 
Q 2384 4250 1959 4250 
Q 1534 4250 1286 3958 
Q 1038 3666 1038 3163 
Q 1038 2656 1286 2365 
Q 1534 2075 1959 2075 
z
" transform="scale(0.015625)"/>
       </defs>
       <use xlink:href="#DejaVuSans-30"/>
       <use xlink:href="#DejaVuSans-2e" x="63.623047"/>
       <use xlink:href="#DejaVuSans-34" x="95.410156"/>
       <use xlink:href="#DejaVuSans-39" x="159.033203"/>
       <use xlink:href="#DejaVuSans-30" x="222.65625"/>
      </g>
     </g>
    </g>
    <g id="ytick_2">
     <g id="line2d_21">
      <path d="M 56.50625 182.455445 
L 335.50625 182.455445 
" clip-path="url(#p70a9fcb094)" style="fill: none; stroke-dasharray: 2.96,1.28; stroke-dashoffset: 0; stroke: #b0b0b0; stroke-opacity: 0.4; stroke-width: 0.8"/>
     </g>
     <g id="line2d_22">
      <g>
       <use xlink:href="#m224b863ec5" x="56.50625" y="182.455445" style="stroke: #000000; stroke-width: 0.8"/>
      </g>
     </g>
     <g id="text_12">
      <!-- 0.495 -->
      <g transform="translate(20.878125 186.254664) scale(0.1 -0.1)">
       <use xlink:href="#DejaVuSans-30"/>
       <use xlink:href="#DejaVuSans-2e" x="63.623047"/>
       <use xlink:href="#DejaVuSans-34" x="95.410156"/>
       <use xlink:href="#DejaVuSans-39" x="159.033203"/>
       <use xlink:href="#DejaVuSans-35" x="222.65625"/>
      </g>
     </g>
    </g>
    <g id="ytick_3">
     <g id="line2d_23">
      <path d="M 56.50625 153.318382 
L 335.50625 153.318382 
" clip-path="url(#p70a9fcb094)" style="fill: none; stroke-dasharray: 2.96,1.28; stroke-dashoffset: 0; stroke: #b0b0b0; stroke-opacity: 0.4; stroke-width: 0.8"/>
     </g>
     <g id="line2d_24">
      <g>
       <use xlink:href="#m224b863ec5" x="56.50625" y="153.318382" style="stroke: #000000; stroke-width: 0.8"/>
      </g>
     </g>
     <g id="text_13">
      <!-- 0.500 -->
      <g transform="translate(20.878125 157.117601) scale(0.1 -0.1)">
       <use xlink:href="#DejaVuSans-30"/>
       <use xlink:href="#DejaVuSans-2e" x="63.623047"/>
       <use xlink:href="#DejaVuSans-35" x="95.410156"/>
       <use xlink:href="#DejaVuSans-30" x="159.033203"/>
       <use xlink:href="#DejaVuSans-30" x="222.65625"/>
      </g>
     </g>
    </g>
    <g id="ytick_4">
     <g id="line2d_25">
      <path d="M 56.50625 124.181318 
L 335.50625 124.181318 
" clip-path="url(#p70a9fcb094)" style="fill: none; stroke-dasharray: 2.96,1.28; stroke-dashoffset: 0; stroke: #b0b0b0; stroke-opacity: 0.4; stroke-width: 0.8"/>
     </g>
     <g id="line2d_26">
      <g>
       <use xlink:href="#m224b863ec5" x="56.50625" y="124.181318" style="stroke: #000000; stroke-width: 0.8"/>
      </g>
     </g>
     <g id="text_14">
      <!-- 0.505 -->
      <g transform="translate(20.878125 127.980537) scale(0.1 -0.1)">
       <use xlink:href="#DejaVuSans-30"/>
       <use xlink:href="#DejaVuSans-2e" x="63.623047"/>
       <use xlink:href="#DejaVuSans-35" x="95.410156"/>
       <use xlink:href="#DejaVuSans-30" x="159.033203"/>
       <use xlink:href="#DejaVuSans-35" x="222.65625"/>
      </g>
     </g>
    </g>
    <g id="ytick_5">
     <g id="line2d_27">
      <path d="M 56.50625 95.044255 
L 335.50625 95.044255 
" clip-path="url(#p70a9fcb094)" style="fill: none; stroke-dasharray: 2.96,1.28; stroke-dashoffset: 0; stroke: #b0b0b0; stroke-opacity: 0.4; stroke-width: 0.8"/>
     </g>
     <g id="line2d_28">
      <g>
       <use xlink:href="#m224b863ec5" x="56.50625" y="95.044255" style="stroke: #000000; stroke-width: 0.8"/>
      </g>
     </g>
     <g id="text_15">
      <!-- 0.510 -->
      <g transform="translate(20.878125 98.843474) scale(0.1 -0.1)">
       <use xlink:href="#DejaVuSans-30"/>
       <use xlink:href="#DejaVuSans-2e" x="63.623047"/>
       <use xlink:href="#DejaVuSans-35" x="95.410156"/>
       <use xlink:href="#DejaVuSans-31" x="159.033203"/>
       <use xlink:href="#DejaVuSans-30" x="222.65625"/>
      </g>
     </g>
    </g>
    <g id="ytick_6">
     <g id="line2d_29">
      <path d="M 56.50625 65.907191 
L 335.50625 65.907191 
" clip-path="url(#p70a9fcb094)" style="fill: none; stroke-dasharray: 2.96,1.28; stroke-dashoffset: 0; stroke: #b0b0b0; stroke-opacity: 0.4; stroke-width: 0.8"/>
     </g>
     <g id="line2d_30">
      <g>
       <use xlink:href="#m224b863ec5" x="56.50625" y="65.907191" style="stroke: #000000; stroke-width: 0.8"/>
      </g>
     </g>
     <g id="text_16">
      <!-- 0.515 -->
      <g transform="translate(20.878125 69.70641) scale(0.1 -0.1)">
       <use xlink:href="#DejaVuSans-30"/>
       <use xlink:href="#DejaVuSans-2e" x="63.623047"/>
       <use xlink:href="#DejaVuSans-35" x="95.410156"/>
       <use xlink:href="#DejaVuSans-31" x="159.033203"/>
       <use xlink:href="#DejaVuSans-35" x="222.65625"/>
      </g>
     </g>
    </g>
    <g id="text_17">
     <!-- Accuracy -->
     <g transform="translate(14.798438 161.356125) rotate(-90) scale(0.1 -0.1)">
      <defs>
       <path id="DejaVuSans-41" d="M 2188 4044 
L 1331 1722 
L 3047 1722 
L 2188 4044 
z
M 1831 4666 
L 2547 4666 
L 4325 0 
L 3669 0 
L 3244 1197 
L 1141 1197 
L 716 0 
L 50 0 
L 1831 4666 
z
" transform="scale(0.015625)"/>
       <path id="DejaVuSans-75" d="M 544 1381 
L 544 3500 
L 1119 3500 
L 1119 1403 
Q 1119 906 1312 657 
Q 1506 409 1894 409 
Q 2359 409 2629 706 
Q 2900 1003 2900 1516 
L 2900 3500 
L 3475 3500 
L 3475 0 
L 2900 0 
L 2900 538 
Q 2691 219 2414 64 
Q 2138 -91 1772 -91 
Q 1169 -91 856 284 
Q 544 659 544 1381 
z
M 1991 3584 
L 1991 3584 
z
" transform="scale(0.015625)"/>
       <path id="DejaVuSans-72" d="M 2631 2963 
Q 2534 3019 2420 3045 
Q 2306 3072 2169 3072 
Q 1681 3072 1420 2755 
Q 1159 2438 1159 1844 
L 1159 0 
L 581 0 
L 581 3500 
L 1159 3500 
L 1159 2956 
Q 1341 3275 1631 3429 
Q 1922 3584 2338 3584 
Q 2397 3584 2469 3576 
Q 2541 3569 2628 3553 
L 2631 2963 
z
" transform="scale(0.015625)"/>
       <path id="DejaVuSans-61" d="M 2194 1759 
Q 1497 1759 1228 1600 
Q 959 1441 959 1056 
Q 959 750 1161 570 
Q 1363 391 1709 391 
Q 2188 391 2477 730 
Q 2766 1069 2766 1631 
L 2766 1759 
L 2194 1759 
z
M 3341 1997 
L 3341 0 
L 2766 0 
L 2766 531 
Q 2569 213 2275 61 
Q 1981 -91 1556 -91 
Q 1019 -91 701 211 
Q 384 513 384 1019 
Q 384 1609 779 1909 
Q 1175 2209 1959 2209 
L 2766 2209 
L 2766 2266 
Q 2766 2663 2505 2880 
Q 2244 3097 1772 3097 
Q 1472 3097 1187 3025 
Q 903 2953 641 2809 
L 641 3341 
Q 956 3463 1253 3523 
Q 1550 3584 1831 3584 
Q 2591 3584 2966 3190 
Q 3341 2797 3341 1997 
z
" transform="scale(0.015625)"/>
       <path id="DejaVuSans-79" d="M 2059 -325 
Q 1816 -950 1584 -1140 
Q 1353 -1331 966 -1331 
L 506 -1331 
L 506 -850 
L 844 -850 
Q 1081 -850 1212 -737 
Q 1344 -625 1503 -206 
L 1606 56 
L 191 3500 
L 800 3500 
L 1894 763 
L 2988 3500 
L 3597 3500 
L 2059 -325 
z
" transform="scale(0.015625)"/>
      </defs>
      <use xlink:href="#DejaVuSans-41"/>
      <use xlink:href="#DejaVuSans-63" x="66.658203"/>
      <use xlink:href="#DejaVuSans-63" x="121.638672"/>
      <use xlink:href="#DejaVuSans-75" x="176.619141"/>
      <use xlink:href="#DejaVuSans-72" x="239.998047"/>
      <use xlink:href="#DejaVuSans-61" x="281.111328"/>
      <use xlink:href="#DejaVuSans-63" x="342.390625"/>
      <use xlink:href="#DejaVuSans-79" x="397.371094"/>
     </g>
    </g>
   </g>
   <g id="line2d_31">
    <path d="M 69.188068 148.388226 
L 69.31495 156.605095 
L 69.568713 120.450905 
L 69.695595 112.233862 
L 69.822476 112.233862 
L 69.949358 120.450905 
L 70.07624 187.829302 
L 70.203121 108.947323 
L 70.330003 113.877479 
L 70.583766 150.031495 
L 70.710648 174.682276 
L 70.837529 146.744956 
L 70.964411 145.101339 
L 71.091293 209.193196 
L 71.218174 133.597757 
L 71.345056 179.612433 
L 71.471937 159.891808 
L 71.725701 92.513585 
L 71.979464 156.605095 
L 72.106346 120.450905 
L 72.233227 141.8148 
L 72.360109 108.947323 
L 72.48699 115.520749 
L 72.740754 166.465407 
L 72.867635 69.506073 
L 72.994517 150.031495 
L 73.121398 123.737444 
L 73.24828 164.821964 
L 73.375162 145.101339 
L 73.502043 202.619597 
L 73.628925 99.087011 
L 73.882688 140.17153 
L 74.00957 136.884644 
L 74.136451 136.884644 
L 74.263333 159.891808 
L 74.517096 146.744956 
L 74.643978 150.031495 
L 74.897741 118.807636 
L 75.024623 150.031495 
L 75.151504 90.869968 
L 75.278386 150.031495 
L 75.532149 100.73028 
L 75.785913 146.744956 
L 75.912794 115.520749 
L 76.039676 128.667601 
L 76.293439 204.26304 
L 76.420321 133.597757 
L 76.547202 163.178694 
L 76.674084 163.178694 
L 76.800966 138.527913 
L 76.927847 158.248538 
L 77.054729 79.366386 
L 77.18161 196.046171 
L 77.308492 173.038833 
L 77.435374 117.164019 
L 77.562255 181.255702 
L 77.689137 181.255702 
L 77.816019 112.233862 
L 77.9429 107.303706 
L 78.069782 115.520749 
L 78.196663 174.682276 
L 78.323545 127.024331 
L 78.450427 194.402728 
L 78.577308 151.675112 
L 78.70419 151.675112 
L 78.831072 113.877479 
L 78.957953 130.311218 
L 79.084835 67.862804 
L 79.338598 191.116015 
L 79.592361 140.17153 
L 79.719243 131.954487 
L 79.846124 140.17153 
L 80.099888 105.660437 
L 80.226769 113.877479 
L 80.353651 113.877479 
L 80.480533 148.388226 
L 80.734296 104.017167 
L 80.861177 130.311218 
L 80.988059 118.807636 
L 81.114941 164.821964 
L 81.241822 127.024331 
L 81.368704 174.682276 
L 81.495586 113.877479 
L 81.749349 140.17153 
L 81.87623 123.737444 
L 82.003112 123.737444 
L 82.129994 140.17153 
L 82.256875 140.17153 
L 82.383757 130.311218 
L 82.510639 54.715952 
L 82.63752 159.891808 
L 82.764402 120.450905 
L 82.891283 161.535251 
L 83.018165 143.458069 
L 83.145047 148.388226 
L 83.271928 161.535251 
L 83.39881 131.954487 
L 83.525692 161.535251 
L 83.779455 151.675112 
L 83.906336 161.535251 
L 84.033218 95.800124 
L 84.286981 171.395563 
L 84.667626 115.520749 
L 84.921389 159.891808 
L 85.048271 156.605095 
L 85.175153 105.660437 
L 85.302034 171.395563 
L 85.428916 164.821964 
L 85.555798 66.219534 
L 85.682679 140.17153 
L 85.809561 95.800124 
L 85.936442 173.038833 
L 86.063324 130.311218 
L 86.190206 217.410066 
L 86.443969 99.087011 
L 86.697732 196.046171 
L 86.824614 115.520749 
L 86.951495 148.388226 
L 87.078377 212.479909 
L 87.205259 130.311218 
L 87.33214 161.535251 
L 87.459022 138.527913 
L 87.585903 146.744956 
L 87.712785 146.744956 
L 87.839667 104.017167 
L 87.966548 105.660437 
L 88.09343 138.527913 
L 88.220312 115.520749 
L 88.347193 71.14969 
L 88.600956 122.094175 
L 88.727838 108.947323 
L 88.85472 197.689614 
L 89.108483 107.303706 
L 89.362246 164.821964 
L 89.489128 184.542589 
L 89.616009 159.891808 
L 89.742891 104.017167 
L 89.869773 171.395563 
L 89.996654 113.877479 
L 90.123536 131.954487 
L 90.250418 125.381061 
L 90.377299 151.675112 
L 90.504181 143.458069 
L 90.757944 159.891808 
L 90.884826 153.318382 
L 91.011707 130.311218 
L 91.265471 136.884644 
L 91.392352 107.303706 
L 91.519234 118.807636 
L 91.646115 102.37355 
L 91.772997 133.597757 
L 91.899879 102.37355 
L 92.153642 173.038833 
L 92.280524 110.590593 
L 92.407405 120.450905 
L 92.534287 120.450905 
L 92.661168 69.506073 
L 92.914932 202.619597 
L 93.041813 89.226698 
L 93.295576 145.101339 
L 93.422458 95.800124 
L 93.54934 140.17153 
L 93.676221 138.527913 
L 93.803103 131.954487 
L 93.929985 202.619597 
L 94.056866 117.164019 
L 94.183748 127.024331 
L 94.310629 197.689614 
L 94.564393 117.164019 
L 94.691274 136.884644 
L 94.818156 204.26304 
L 94.945038 177.968989 
L 95.071919 94.156854 
L 95.198801 171.395563 
L 95.325682 171.395563 
L 95.452564 113.877479 
L 95.579446 153.318382 
L 95.833209 105.660437 
L 95.960091 110.590593 
L 96.086972 191.116015 
L 96.213854 113.877479 
L 96.467617 131.954487 
L 96.594499 191.116015 
L 96.72138 143.458069 
L 96.848262 191.116015 
L 96.975144 79.366386 
L 97.355788 173.038833 
L 97.609552 107.303706 
L 97.863315 171.395563 
L 97.990197 85.939812 
L 98.24396 145.101339 
L 98.370841 87.583429 
L 98.497723 120.450905 
L 98.624605 122.094175 
L 98.751486 179.612433 
L 99.005249 112.233862 
L 99.132131 130.311218 
L 99.259013 66.219534 
L 99.385894 135.241374 
L 99.512776 140.17153 
L 99.639658 138.527913 
L 99.766539 105.660437 
L 99.893421 118.807636 
L 100.020302 202.619597 
L 100.274066 146.744956 
L 100.400947 94.156854 
L 100.527829 173.038833 
L 100.654711 136.884644 
L 100.781592 140.17153 
L 100.908474 118.807636 
L 101.035355 120.450905 
L 101.162237 123.737444 
L 101.289119 177.968989 
L 101.416 115.520749 
L 101.542882 140.17153 
L 101.669764 141.8148 
L 101.796645 135.241374 
L 101.923527 151.675112 
L 102.050408 128.667601 
L 102.17729 131.954487 
L 102.304172 163.178694 
L 102.431053 136.884644 
L 102.557935 177.968989 
L 102.684817 148.388226 
L 102.811698 179.612433 
L 102.93858 113.877479 
L 103.065461 140.17153 
L 103.192343 112.233862 
L 103.319225 171.395563 
L 103.572988 113.877479 
L 103.69987 153.318382 
L 104.080514 82.653272 
L 104.207396 94.156854 
L 104.461159 163.178694 
L 104.588041 127.024331 
L 104.714923 158.248538 
L 104.841804 153.318382 
L 104.968686 122.094175 
L 105.095567 173.038833 
L 105.349331 115.520749 
L 105.476212 173.038833 
L 105.603094 112.233862 
L 105.729975 110.590593 
L 105.856857 130.311218 
L 105.983739 112.233862 
L 106.11062 159.891808 
L 106.237502 113.877479 
L 106.491265 138.527913 
L 106.618147 123.737444 
L 106.745028 177.968989 
L 106.87191 82.653272 
L 107.125673 146.744956 
L 107.252555 117.164019 
L 107.379437 156.605095 
L 107.506318 117.164019 
L 107.6332 118.807636 
L 107.760081 69.506073 
L 107.886963 173.038833 
L 108.267608 122.094175 
L 108.521371 173.038833 
L 108.648253 156.605095 
L 108.775134 123.737444 
L 109.028898 161.535251 
L 109.155779 97.443741 
L 109.409543 159.891808 
L 109.536424 133.597757 
L 109.790187 159.891808 
L 109.917069 199.332884 
L 110.043951 115.520749 
L 110.170832 120.450905 
L 110.297714 158.248538 
L 110.551477 90.869968 
L 110.678359 145.101339 
L 110.80524 143.458069 
L 111.059004 108.947323 
L 111.185885 174.682276 
L 111.56653 131.954487 
L 111.693412 92.513585 
L 111.820293 135.241374 
L 111.947175 140.17153 
L 112.074057 136.884644 
L 112.200938 146.744956 
L 112.454701 112.233862 
L 112.581583 107.303706 
L 112.708465 122.094175 
L 112.835346 107.303706 
L 112.962228 141.8148 
L 113.08911 87.583429 
L 113.215991 159.891808 
L 113.342873 164.821964 
L 113.469754 102.37355 
L 113.596636 166.465407 
L 113.850399 120.450905 
L 113.977281 161.535251 
L 114.104163 156.605095 
L 114.231044 177.968989 
L 114.357926 122.094175 
L 114.484807 187.829302 
L 114.611689 130.311218 
L 114.738571 145.101339 
L 114.865452 135.241374 
L 114.992334 151.675112 
L 115.119216 128.667601 
L 115.246097 176.32572 
L 115.626742 102.37355 
L 115.753624 118.807636 
L 115.880505 84.296542 
L 116.007387 99.087011 
L 116.134269 186.185859 
L 116.26115 84.296542 
L 116.514913 164.821964 
L 116.641795 148.388226 
L 116.768677 230.557091 
L 117.02244 118.807636 
L 117.276203 150.031495 
L 117.403085 143.458069 
L 117.529966 85.939812 
L 117.656848 122.094175 
L 117.910611 90.869968 
L 118.291256 136.884644 
L 118.418138 120.450905 
L 118.545019 125.381061 
L 118.671901 154.961825 
L 118.798783 150.031495 
L 119.052546 102.37355 
L 119.179427 168.108851 
L 119.306309 81.009655 
L 119.686954 191.116015 
L 119.813836 102.37355 
L 119.940717 112.233862 
L 120.067599 105.660437 
L 120.448244 181.255702 
L 120.575125 123.737444 
L 120.702007 174.682276 
L 120.828889 148.388226 
L 120.95577 151.675112 
L 121.082652 146.744956 
L 121.463297 100.73028 
L 121.590178 130.311218 
L 121.71706 131.954487 
L 121.843942 118.807636 
L 122.097705 166.465407 
L 122.351468 99.087011 
L 122.47835 133.597757 
L 122.605231 123.737444 
L 122.732113 156.605095 
L 122.858995 104.017167 
L 122.985876 108.947323 
L 123.112758 118.807636 
L 123.366521 196.046171 
L 123.493403 191.116015 
L 123.620284 135.241374 
L 123.747166 141.8148 
L 123.874048 141.8148 
L 124.000929 112.233862 
L 124.127811 153.318382 
L 124.254692 82.653272 
L 124.381574 94.156854 
L 124.508456 125.381061 
L 124.635337 99.087011 
L 124.762219 146.744956 
L 125.015982 81.009655 
L 125.142864 164.821964 
L 125.269745 166.465407 
L 125.396627 176.32572 
L 125.523509 82.653272 
L 125.65039 151.675112 
L 125.777272 159.891808 
L 125.904153 123.737444 
L 126.157917 169.75212 
L 126.284798 135.241374 
L 126.41168 156.605095 
L 126.538562 197.689614 
L 126.665443 110.590593 
L 126.792325 146.744956 
L 126.919206 138.527913 
L 127.046088 143.458069 
L 127.17297 161.535251 
L 127.299851 135.241374 
L 127.426733 156.605095 
L 127.553615 131.954487 
L 127.680496 133.597757 
L 127.807378 169.75212 
L 127.934259 108.947323 
L 128.061141 140.17153 
L 128.314904 123.737444 
L 128.441786 136.884644 
L 128.568668 117.164019 
L 128.695549 168.108851 
L 128.822431 128.667601 
L 128.949312 128.667601 
L 129.076194 145.101339 
L 129.329957 135.241374 
L 129.456839 135.241374 
L 129.583721 90.869968 
L 129.710602 179.612433 
L 129.837484 94.156854 
L 129.964365 127.024331 
L 130.091247 95.800124 
L 130.34501 187.829302 
L 130.471892 151.675112 
L 130.598774 176.32572 
L 130.852537 143.458069 
L 130.979418 205.906483 
L 131.1063 81.009655 
L 131.233182 140.17153 
L 131.360063 138.527913 
L 131.486945 182.899146 
L 131.613827 99.087011 
L 131.740708 112.233862 
L 131.86759 173.038833 
L 131.994471 146.744956 
L 132.121353 156.605095 
L 132.375116 113.877479 
L 132.501998 171.395563 
L 132.628879 84.296542 
L 133.009524 186.185859 
L 133.136406 131.954487 
L 133.263288 166.465407 
L 133.517051 107.303706 
L 133.643932 113.877479 
L 133.770814 161.535251 
L 134.278341 94.156854 
L 134.405222 110.590593 
L 134.532104 177.968989 
L 134.912749 81.009655 
L 135.03963 163.178694 
L 135.166512 154.961825 
L 135.293394 123.737444 
L 135.547157 197.689614 
L 135.674038 113.877479 
L 135.927802 131.954487 
L 136.054683 135.241374 
L 136.181565 118.807636 
L 136.435328 164.821964 
L 136.689091 131.954487 
L 136.815973 54.715952 
L 137.069736 154.961825 
L 137.196618 104.017167 
L 137.3235 107.303706 
L 137.450381 153.318382 
L 137.577263 77.723116 
L 137.704144 200.976327 
L 137.831026 184.542589 
L 138.084789 118.807636 
L 138.211671 151.675112 
L 138.338553 150.031495 
L 138.465434 89.226698 
L 138.592316 108.947323 
L 138.719197 64.575917 
L 138.846079 141.8148 
L 138.972961 118.807636 
L 139.099842 181.255702 
L 139.226724 138.527913 
L 139.353605 145.101339 
L 139.480487 143.458069 
L 139.607369 120.450905 
L 139.73425 151.675112 
L 139.861132 87.583429 
L 139.988014 105.660437 
L 140.114895 90.869968 
L 140.368658 143.458069 
L 140.49554 131.954487 
L 140.622422 159.891808 
L 140.749303 143.458069 
L 140.876185 171.395563 
L 141.003067 120.450905 
L 141.129948 164.821964 
L 141.25683 115.520749 
L 141.383711 145.101339 
L 141.510593 105.660437 
L 141.764356 159.891808 
L 141.891238 110.590593 
L 142.145001 148.388226 
L 142.271883 179.612433 
L 142.525646 117.164019 
L 142.652528 181.255702 
L 142.779409 90.869968 
L 142.906291 133.597757 
L 143.033173 94.156854 
L 143.160054 104.017167 
L 143.286936 154.961825 
L 143.413817 94.156854 
L 143.540699 97.443741 
L 143.794462 186.185859 
L 144.048226 90.869968 
L 144.175107 150.031495 
L 144.301989 156.605095 
L 144.42887 100.73028 
L 144.555752 163.178694 
L 144.682634 148.388226 
L 144.809515 146.744956 
L 144.936397 94.156854 
L 145.063279 128.667601 
L 145.19016 127.024331 
L 145.317042 128.667601 
L 145.443923 189.472745 
L 145.570805 138.527913 
L 145.697687 171.395563 
L 145.95145 79.366386 
L 146.078331 90.869968 
L 146.332095 123.737444 
L 146.458976 113.877479 
L 146.585858 138.527913 
L 146.71274 95.800124 
L 147.093384 141.8148 
L 147.220266 74.43623 
L 147.474029 186.185859 
L 147.727793 133.597757 
L 147.854674 154.961825 
L 147.981556 140.17153 
L 148.108437 81.009655 
L 148.235319 154.961825 
L 148.489082 76.079846 
L 148.615964 158.248538 
L 148.742846 123.737444 
L 148.996609 176.32572 
L 149.250372 123.737444 
L 149.377254 113.877479 
L 149.504135 140.17153 
L 149.631017 92.513585 
L 149.757899 151.675112 
L 149.88478 143.458069 
L 150.011662 108.947323 
L 150.265425 168.108851 
L 150.392307 110.590593 
L 150.519188 115.520749 
L 150.899833 141.8148 
L 151.026715 87.583429 
L 151.280478 159.891808 
L 151.40736 159.891808 
L 151.534241 128.667601 
L 151.661123 148.388226 
L 151.788005 141.8148 
L 151.914886 156.605095 
L 152.041768 156.605095 
L 152.168649 138.527913 
L 152.295531 143.458069 
L 152.422413 131.954487 
L 152.676176 161.535251 
L 152.803057 150.031495 
L 152.929939 127.024331 
L 153.056821 146.744956 
L 153.183702 135.241374 
L 153.310584 196.046171 
L 153.437466 95.800124 
L 153.564347 104.017167 
L 153.691229 153.318382 
L 153.81811 141.8148 
L 153.944992 159.891808 
L 154.071874 130.311218 
L 154.198755 181.255702 
L 154.452519 136.884644 
L 154.5794 112.233862 
L 154.833163 191.116015 
L 155.086927 128.667601 
L 155.213808 127.024331 
L 155.34069 127.024331 
L 155.467572 120.450905 
L 155.594453 123.737444 
L 155.721335 76.079846 
L 155.848216 174.682276 
L 155.975098 138.527913 
L 156.10198 140.17153 
L 156.228861 110.590593 
L 156.355743 150.031495 
L 156.482625 145.101339 
L 156.609506 104.017167 
L 156.990151 151.675112 
L 157.117033 112.233862 
L 157.370796 158.248538 
L 157.497678 115.520749 
L 157.624559 197.689614 
L 157.751441 108.947323 
L 157.878322 108.947323 
L 158.005204 115.520749 
L 158.132086 171.395563 
L 158.385849 100.73028 
L 158.639612 174.682276 
L 158.893375 104.017167 
L 159.020257 187.829302 
L 159.147139 143.458069 
L 159.27402 161.535251 
L 159.400902 135.241374 
L 159.527783 161.535251 
L 159.654665 113.877479 
L 159.781547 108.947323 
L 159.908428 138.527913 
L 160.289073 120.450905 
L 160.542836 168.108851 
L 160.669718 140.17153 
L 160.7966 146.744956 
L 161.050363 123.737444 
L 161.177245 122.094175 
L 161.431008 163.178694 
L 161.557889 153.318382 
L 161.684771 159.891808 
L 161.811653 135.241374 
L 161.938534 74.43623 
L 162.192298 146.744956 
L 162.319179 118.807636 
L 162.446061 125.381061 
L 162.572942 164.821964 
L 162.699824 141.8148 
L 162.826706 156.605095 
L 163.334232 77.723116 
L 163.461114 72.79296 
L 163.587995 140.17153 
L 163.841759 62.932647 
L 163.96864 118.807636 
L 164.095522 122.094175 
L 164.349285 85.939812 
L 164.476167 166.465407 
L 164.72993 77.723116 
L 164.983693 168.108851 
L 165.110575 128.667601 
L 165.364338 164.821964 
L 165.49122 156.605095 
L 165.618101 122.094175 
L 165.744983 128.667601 
L 165.871865 108.947323 
L 165.998746 164.821964 
L 166.125628 138.527913 
L 166.252509 81.009655 
L 166.506273 122.094175 
L 166.633154 97.443741 
L 166.760036 105.660437 
L 166.886918 135.241374 
L 167.013799 99.087011 
L 167.140681 163.178694 
L 167.267562 153.318382 
L 167.521326 85.939812 
L 167.648207 104.017167 
L 167.775089 46.498909 
L 167.901971 146.744956 
L 168.028852 118.807636 
L 168.155734 148.388226 
L 168.282615 110.590593 
L 168.409497 164.821964 
L 168.536379 82.653272 
L 168.66326 168.108851 
L 168.790142 169.75212 
L 168.917024 151.675112 
L 169.043905 154.961825 
L 169.170787 136.884644 
L 169.297668 158.248538 
L 169.42455 92.513585 
L 169.551432 168.108851 
L 169.678313 104.017167 
L 169.805195 146.744956 
L 169.932077 151.675112 
L 170.058958 104.017167 
L 170.18584 141.8148 
L 170.312721 145.101339 
L 170.439603 113.877479 
L 170.693366 146.744956 
L 170.820248 133.597757 
L 171.200893 161.535251 
L 171.327774 118.807636 
L 171.454656 122.094175 
L 171.581538 110.590593 
L 171.708419 118.807636 
L 171.835301 140.17153 
L 171.962183 99.087011 
L 172.089064 158.248538 
L 172.215946 127.024331 
L 172.342827 130.311218 
L 172.469709 141.8148 
L 172.723472 104.017167 
L 172.850354 141.8148 
L 173.104117 112.233862 
L 173.230999 159.891808 
L 173.35788 161.535251 
L 173.484762 153.318382 
L 173.611644 108.947323 
L 173.738525 128.667601 
L 173.865407 169.75212 
L 173.992288 169.75212 
L 174.246052 69.506073 
L 174.372933 151.675112 
L 174.626697 108.947323 
L 174.753578 118.807636 
L 174.88046 71.14969 
L 175.134223 145.101339 
L 175.261105 168.108851 
L 175.387986 127.024331 
L 175.514868 123.737444 
L 175.64175 182.899146 
L 175.768631 151.675112 
L 175.895513 90.869968 
L 176.022394 130.311218 
L 176.149276 127.024331 
L 176.403039 133.597757 
L 176.529921 110.590593 
L 176.656803 127.024331 
L 176.783684 159.891808 
L 176.910566 148.388226 
L 177.037447 166.465407 
L 177.164329 113.877479 
L 177.418092 138.527913 
L 177.544974 118.807636 
L 177.671856 194.402728 
L 177.798737 173.038833 
L 177.925619 118.807636 
L 178.179382 173.038833 
L 178.306264 177.968989 
L 178.433145 110.590593 
L 178.686909 168.108851 
L 178.81379 110.590593 
L 179.067553 146.744956 
L 179.321317 113.877479 
L 179.448198 143.458069 
L 179.57508 141.8148 
L 179.701961 158.248538 
L 179.828843 159.891808 
L 179.955725 115.520749 
L 180.082606 141.8148 
L 180.209488 136.884644 
L 180.33637 146.744956 
L 180.590133 181.255702 
L 180.717014 135.241374 
L 180.843896 153.318382 
L 181.097659 97.443741 
L 181.224541 112.233862 
L 181.351423 181.255702 
L 181.605186 143.458069 
L 181.732067 94.156854 
L 181.858949 153.318382 
L 182.112712 108.947323 
L 182.239594 127.024331 
L 182.366476 122.094175 
L 182.493357 94.156854 
L 182.74712 153.318382 
L 182.874002 176.32572 
L 183.000884 120.450905 
L 183.254647 115.520749 
L 183.381529 150.031495 
L 183.50841 107.303706 
L 183.635292 140.17153 
L 183.762173 97.443741 
L 183.889055 104.017167 
L 184.015937 199.332884 
L 184.142818 122.094175 
L 184.2697 171.395563 
L 184.396582 174.682276 
L 184.523463 112.233862 
L 184.650345 140.17153 
L 184.777226 136.884644 
L 184.904108 166.465407 
L 185.03099 123.737444 
L 185.157871 125.381061 
L 185.411635 153.318382 
L 185.538516 49.785796 
L 185.665398 191.116015 
L 185.792279 97.443741 
L 185.919161 159.891808 
L 186.046043 92.513585 
L 186.172924 163.178694 
L 186.299806 166.465407 
L 186.426687 110.590593 
L 186.553569 118.807636 
L 186.680451 112.233862 
L 186.807332 164.821964 
L 186.934214 166.465407 
L 187.314859 184.542589 
L 187.44174 100.73028 
L 187.568622 90.869968 
L 187.695504 115.520749 
L 187.822385 107.303706 
L 187.949267 115.520749 
L 188.076149 158.248538 
L 188.20303 151.675112 
L 188.329912 97.443741 
L 188.456793 138.527913 
L 188.583675 138.527913 
L 188.837438 169.75212 
L 188.96432 150.031495 
L 189.091202 107.303706 
L 189.218083 135.241374 
L 189.344965 135.241374 
L 189.471846 166.465407 
L 189.852491 89.226698 
L 190.106255 156.605095 
L 190.233136 192.759458 
L 190.486899 138.527913 
L 190.613781 117.164019 
L 190.740663 146.744956 
L 190.867544 76.079846 
L 190.994426 112.233862 
L 191.121308 64.575917 
L 191.375071 174.682276 
L 191.501952 156.605095 
L 191.628834 186.185859 
L 191.755716 92.513585 
L 192.009479 123.737444 
L 192.136361 191.116015 
L 192.263242 166.465407 
L 192.390124 117.164019 
L 192.517005 146.744956 
L 192.643887 120.450905 
L 192.770769 138.527913 
L 192.89765 105.660437 
L 193.405177 154.961825 
L 193.532058 176.32572 
L 193.785822 122.094175 
L 193.912703 174.682276 
L 194.166466 110.590593 
L 194.547111 182.899146 
L 194.927756 97.443741 
L 195.054638 191.116015 
L 195.181519 99.087011 
L 195.435283 173.038833 
L 195.562164 82.653272 
L 195.689046 127.024331 
L 195.815928 105.660437 
L 195.942809 117.164019 
L 196.069691 94.156854 
L 196.196572 105.660437 
L 196.323454 136.884644 
L 196.450336 136.884644 
L 196.577217 143.458069 
L 196.704099 115.520749 
L 196.957862 158.248538 
L 197.084744 115.520749 
L 197.338507 151.675112 
L 197.465389 146.744956 
L 197.59227 102.37355 
L 197.719152 125.381061 
L 197.972915 199.332884 
L 198.226678 84.296542 
L 198.35356 94.156854 
L 198.480442 127.024331 
L 198.607323 95.800124 
L 198.861087 148.388226 
L 199.11485 123.737444 
L 199.368613 174.682276 
L 199.495495 136.884644 
L 199.622376 143.458069 
L 199.749258 171.395563 
L 199.876139 138.527913 
L 200.003021 136.884644 
L 200.129903 138.527913 
L 200.256784 176.32572 
L 200.383666 128.667601 
L 200.510548 184.542589 
L 200.764311 148.388226 
L 200.891192 159.891808 
L 201.018074 151.675112 
L 201.144956 117.164019 
L 201.271837 181.255702 
L 201.652482 102.37355 
L 201.779364 146.744956 
L 201.906245 99.087011 
L 202.160009 140.17153 
L 202.28689 94.156854 
L 202.413772 199.332884 
L 202.540654 174.682276 
L 202.667535 71.14969 
L 202.794417 166.465407 
L 202.921298 163.178694 
L 203.04818 113.877479 
L 203.175062 184.542589 
L 203.301943 130.311218 
L 203.428825 130.311218 
L 203.555707 146.744956 
L 203.682588 118.807636 
L 203.80947 148.388226 
L 203.936351 113.877479 
L 204.063233 174.682276 
L 204.190115 100.73028 
L 204.316996 143.458069 
L 204.443878 113.877479 
L 204.57076 145.101339 
L 204.697641 128.667601 
L 204.824523 197.689614 
L 204.951404 120.450905 
L 205.205168 173.038833 
L 205.332049 164.821964 
L 205.585813 117.164019 
L 205.839576 204.26304 
L 206.093339 117.164019 
L 206.220221 161.535251 
L 206.347102 136.884644 
L 206.473984 146.744956 
L 206.727747 110.590593 
L 206.98151 141.8148 
L 207.108392 136.884644 
L 207.235274 125.381061 
L 207.362155 69.506073 
L 207.489037 115.520749 
L 207.615918 94.156854 
L 207.7428 102.37355 
L 207.869682 182.899146 
L 207.996563 153.318382 
L 208.123445 164.821964 
L 208.250327 107.303706 
L 208.377208 122.094175 
L 208.50409 159.891808 
L 208.757853 136.884644 
L 208.884735 156.605095 
L 209.011616 66.219534 
L 209.26538 123.737444 
L 209.392261 92.513585 
L 209.519143 133.597757 
L 209.646024 131.954487 
L 209.772906 166.465407 
L 209.899788 163.178694 
L 210.026669 140.17153 
L 210.153551 177.968989 
L 210.407314 130.311218 
L 210.534196 196.046171 
L 210.661077 138.527913 
L 210.787959 143.458069 
L 210.914841 191.116015 
L 211.168604 161.535251 
L 211.549249 120.450905 
L 211.67613 140.17153 
L 211.803012 112.233862 
L 211.929894 131.954487 
L 212.056775 123.737444 
L 212.183657 104.017167 
L 212.43742 168.108851 
L 212.564302 158.248538 
L 212.691183 131.954487 
L 212.818065 130.311218 
L 212.944947 133.597757 
L 213.19871 112.233862 
L 213.452473 168.108851 
L 213.833118 95.800124 
L 213.96 128.667601 
L 214.086881 100.73028 
L 214.213763 131.954487 
L 214.467526 84.296542 
L 214.594408 113.877479 
L 214.721289 199.332884 
L 214.848171 118.807636 
L 214.975053 125.381061 
L 215.101934 117.164019 
L 215.228816 158.248538 
L 215.482579 105.660437 
L 215.609461 112.233862 
L 215.736342 182.899146 
L 215.863224 127.024331 
L 215.990106 189.472745 
L 216.116987 176.32572 
L 216.243869 112.233862 
L 216.497632 159.891808 
L 216.624514 104.017167 
L 216.878277 163.178694 
L 217.005159 122.094175 
L 217.13204 128.667601 
L 217.258922 176.32572 
L 217.385803 72.79296 
L 217.512685 161.535251 
L 217.639567 171.395563 
L 217.766448 140.17153 
L 217.89333 154.961825 
L 218.147093 64.575917 
L 218.273975 156.605095 
L 218.527738 67.862804 
L 218.781501 189.472745 
L 219.035265 130.311218 
L 219.162146 181.255702 
L 219.289028 102.37355 
L 219.415909 154.961825 
L 219.542791 105.660437 
L 219.669673 176.32572 
L 219.796554 118.807636 
L 220.050317 163.178694 
L 220.177199 146.744956 
L 220.304081 182.899146 
L 220.430962 123.737444 
L 220.557844 130.311218 
L 220.811607 95.800124 
L 221.06537 145.101339 
L 221.319134 110.590593 
L 221.446015 140.17153 
L 221.572897 84.296542 
L 221.699779 136.884644 
L 221.953542 112.233862 
L 222.080423 118.807636 
L 222.334187 166.465407 
L 222.461068 156.605095 
L 222.714832 102.37355 
L 222.841713 156.605095 
L 222.968595 82.653272 
L 223.095476 141.8148 
L 223.222358 115.520749 
L 223.34924 138.527913 
L 223.476121 123.737444 
L 223.603003 122.094175 
L 223.729885 153.318382 
L 223.856766 153.318382 
L 224.110529 128.667601 
L 224.237411 102.37355 
L 224.364293 136.884644 
L 224.491174 105.660437 
L 224.618056 135.241374 
L 224.744938 136.884644 
L 224.871819 153.318382 
L 225.125582 113.877479 
L 225.252464 141.8148 
L 225.379346 136.884644 
L 225.506227 92.513585 
L 225.759991 192.759458 
L 225.886872 112.233862 
L 226.013754 163.178694 
L 226.140635 100.73028 
L 226.394399 138.527913 
L 226.52128 107.303706 
L 226.775043 118.807636 
L 226.901925 151.675112 
L 227.028807 85.939812 
L 227.155688 173.038833 
L 227.409452 107.303706 
L 227.536333 207.549753 
L 227.663215 148.388226 
L 227.790096 174.682276 
L 227.916978 115.520749 
L 228.04386 128.667601 
L 228.170741 200.976327 
L 228.551386 130.311218 
L 228.678268 176.32572 
L 228.932031 110.590593 
L 229.058913 87.583429 
L 229.185794 100.73028 
L 229.439558 148.388226 
L 229.566439 145.101339 
L 229.693321 81.009655 
L 229.820202 156.605095 
L 229.947084 122.094175 
L 230.200847 151.675112 
L 230.327729 118.807636 
L 230.454611 168.108851 
L 230.581492 136.884644 
L 230.708374 133.597757 
L 230.835255 133.597757 
L 230.962137 113.877479 
L 231.089019 192.759458 
L 231.342782 89.226698 
L 231.469664 89.226698 
L 231.596545 102.37355 
L 231.723427 100.73028 
L 231.97719 150.031495 
L 232.104072 130.311218 
L 232.230953 135.241374 
L 232.357835 84.296542 
L 232.484717 95.800124 
L 232.611598 169.75212 
L 232.73848 154.961825 
L 232.865361 102.37355 
L 232.992243 153.318382 
L 233.119125 120.450905 
L 233.246006 154.961825 
L 233.372888 143.458069 
L 233.499769 118.807636 
L 233.753533 173.038833 
L 233.880414 123.737444 
L 234.007296 179.612433 
L 234.134178 130.311218 
L 234.261059 131.954487 
L 234.387941 131.954487 
L 234.514822 69.506073 
L 234.641704 177.968989 
L 234.768586 164.821964 
L 235.022349 95.800124 
L 235.149231 133.597757 
L 235.276112 95.800124 
L 235.402994 97.443741 
L 235.529875 153.318382 
L 235.656757 136.884644 
L 235.783639 141.8148 
L 235.91052 164.821964 
L 236.037402 104.017167 
L 236.291165 176.32572 
L 236.418047 163.178694 
L 236.544928 97.443741 
L 236.67181 171.395563 
L 236.798692 99.087011 
L 236.925573 123.737444 
L 237.052455 186.185859 
L 237.306218 118.807636 
L 237.4331 115.520749 
L 237.559981 154.961825 
L 237.686863 148.388226 
L 237.813745 77.723116 
L 237.940626 146.744956 
L 238.067508 99.087011 
L 238.19439 145.101339 
L 238.321271 115.520749 
L 238.448153 122.094175 
L 238.575034 173.038833 
L 238.828798 81.009655 
L 238.955679 123.737444 
L 239.082561 95.800124 
L 239.209443 131.954487 
L 239.336324 118.807636 
L 239.463206 122.094175 
L 239.590087 122.094175 
L 239.716969 187.829302 
L 239.843851 151.675112 
L 239.970732 177.968989 
L 240.097614 118.807636 
L 240.351377 181.255702 
L 240.478259 118.807636 
L 240.60514 150.031495 
L 240.732022 143.458069 
L 240.858904 97.443741 
L 241.112667 140.17153 
L 241.239548 131.954487 
L 241.36643 143.458069 
L 241.493312 94.156854 
L 241.620193 148.388226 
L 241.747075 118.807636 
L 241.873957 130.311218 
L 242.12772 182.899146 
L 242.381483 150.031495 
L 242.508365 143.458069 
L 242.635246 108.947323 
L 242.762128 136.884644 
L 242.88901 97.443741 
L 243.015891 148.388226 
L 243.142773 143.458069 
L 243.269654 110.590593 
L 243.396536 128.667601 
L 243.523418 115.520749 
L 243.650299 156.605095 
L 243.777181 131.954487 
L 243.904063 133.597757 
L 244.157826 89.226698 
L 244.411589 143.458069 
L 244.538471 120.450905 
L 244.665352 146.744956 
L 244.919116 82.653272 
L 245.172879 120.450905 
L 245.29976 148.388226 
L 245.426642 150.031495 
L 245.553524 153.318382 
L 245.807287 69.506073 
L 246.06105 176.32572 
L 246.314813 95.800124 
L 246.441695 125.381061 
L 246.568577 112.233862 
L 246.695458 143.458069 
L 246.82234 145.101339 
L 246.949221 164.821964 
L 247.076103 143.458069 
L 247.202985 67.862804 
L 247.329866 107.303706 
L 247.456748 59.645761 
L 247.58363 182.899146 
L 247.837393 81.009655 
L 248.091156 191.116015 
L 248.218038 72.79296 
L 248.344919 141.8148 
L 248.471801 95.800124 
L 248.598683 113.877479 
L 248.725564 82.653272 
L 248.852446 113.877479 
L 249.106209 189.472745 
L 249.233091 136.884644 
L 249.359972 150.031495 
L 249.486854 138.527913 
L 249.613736 176.32572 
L 249.740617 128.667601 
L 249.867499 130.311218 
L 249.99438 141.8148 
L 250.121262 115.520749 
L 250.375025 158.248538 
L 250.501907 118.807636 
L 250.628789 166.465407 
L 250.75567 145.101339 
L 250.882552 104.017167 
L 251.009433 108.947323 
L 251.136315 105.660437 
L 251.263197 131.954487 
L 251.390078 133.597757 
L 251.51696 154.961825 
L 251.770723 117.164019 
L 251.897605 161.535251 
L 252.151368 97.443741 
L 252.27825 113.877479 
L 252.405131 199.332884 
L 252.532013 138.527913 
L 252.658895 141.8148 
L 252.785776 136.884644 
L 252.912658 138.527913 
L 253.166421 105.660437 
L 253.293303 107.303706 
L 253.420184 153.318382 
L 253.547066 136.884644 
L 253.673947 138.527913 
L 253.800829 79.366386 
L 254.054592 181.255702 
L 254.181474 115.520749 
L 254.308356 148.388226 
L 254.435237 148.388226 
L 254.562119 181.255702 
L 254.689 163.178694 
L 254.942764 104.017167 
L 255.069645 127.024331 
L 255.196527 76.079846 
L 255.323409 115.520749 
L 255.45029 115.520749 
L 255.577172 131.954487 
L 255.704053 90.869968 
L 255.957817 187.829302 
L 256.21158 138.527913 
L 256.465343 107.303706 
L 256.592225 169.75212 
L 256.719106 128.667601 
L 256.845988 130.311218 
L 256.97287 151.675112 
L 257.099751 150.031495 
L 257.226633 79.366386 
L 257.353515 112.233862 
L 257.480396 197.689614 
L 257.861041 112.233862 
L 257.987923 166.465407 
L 258.114804 166.465407 
L 258.241686 169.75212 
L 258.368568 115.520749 
L 258.495449 115.520749 
L 258.622331 184.542589 
L 258.749212 122.094175 
L 258.876094 153.318382 
L 259.002976 120.450905 
L 259.256739 166.465407 
L 259.383621 107.303706 
L 259.764265 163.178694 
L 259.891147 125.381061 
L 260.018029 181.255702 
L 260.14491 171.395563 
L 260.271792 136.884644 
L 260.652437 158.248538 
L 260.779318 143.458069 
L 260.9062 168.108851 
L 261.033082 141.8148 
L 261.159963 81.009655 
L 261.286845 94.156854 
L 261.413726 122.094175 
L 261.540608 77.723116 
L 261.66749 154.961825 
L 261.794371 145.101339 
L 261.921253 100.73028 
L 262.048135 156.605095 
L 262.175016 90.869968 
L 262.301898 99.087011 
L 262.428779 130.311218 
L 262.555661 102.37355 
L 262.682543 143.458069 
L 262.809424 135.241374 
L 262.936306 108.947323 
L 263.063188 110.590593 
L 263.190069 120.450905 
L 263.316951 140.17153 
L 263.443832 94.156854 
L 263.570714 136.884644 
L 263.697596 127.024331 
L 263.824477 173.038833 
L 264.205122 105.660437 
L 264.332004 171.395563 
L 264.458885 174.682276 
L 264.712649 120.450905 
L 264.83953 135.241374 
L 264.966412 135.241374 
L 265.220175 92.513585 
L 265.347057 215.766622 
L 265.473938 123.737444 
L 265.60082 148.388226 
L 265.727702 74.43623 
L 265.981465 131.954487 
L 266.108347 94.156854 
L 266.235228 95.800124 
L 266.488991 168.108851 
L 266.615873 112.233862 
L 266.742755 110.590593 
L 266.869636 136.884644 
L 267.250281 74.43623 
L 267.377163 110.590593 
L 267.504044 81.009655 
L 267.630926 148.388226 
L 267.757808 107.303706 
L 267.884689 115.520749 
L 268.011571 135.241374 
L 268.138452 105.660437 
L 268.265334 110.590593 
L 268.392216 138.527913 
L 268.519097 141.8148 
L 268.645979 128.667601 
L 268.772861 136.884644 
L 269.026624 110.590593 
L 269.153505 113.877479 
L 269.280387 120.450905 
L 269.407269 113.877479 
L 269.661032 196.046171 
L 269.787914 171.395563 
L 269.914795 107.303706 
L 270.041677 154.961825 
L 270.168558 125.381061 
L 270.422322 145.101339 
L 270.676085 154.961825 
L 271.05673 104.017167 
L 271.183611 138.527913 
L 271.310493 136.884644 
L 271.437375 146.744956 
L 271.564256 120.450905 
L 271.691138 135.241374 
L 271.81802 191.116015 
L 271.944901 105.660437 
L 272.071783 118.807636 
L 272.198664 56.359222 
L 272.325546 159.891808 
L 272.452428 94.156854 
L 272.579309 161.535251 
L 272.706191 89.226698 
L 272.833073 174.682276 
L 273.086836 104.017167 
L 273.213717 189.472745 
L 273.340599 145.101339 
L 273.467481 171.395563 
L 273.594362 131.954487 
L 273.721244 161.535251 
L 273.848125 95.800124 
L 273.975007 141.8148 
L 274.101889 122.094175 
L 274.22877 159.891808 
L 274.482534 97.443741 
L 274.609415 143.458069 
L 274.736297 118.807636 
L 274.863178 136.884644 
L 274.99006 174.682276 
L 275.116942 112.233862 
L 275.370705 140.17153 
L 275.497587 194.402728 
L 275.624468 67.862804 
L 275.878231 143.458069 
L 276.005113 92.513585 
L 276.258876 151.675112 
L 276.51264 125.381061 
L 276.639521 159.891808 
L 276.766403 146.744956 
L 276.893284 161.535251 
L 277.020166 117.164019 
L 277.147048 125.381061 
L 277.400811 151.675112 
L 277.527693 158.248538 
L 277.654574 104.017167 
L 277.908337 163.178694 
L 278.035219 105.660437 
L 278.162101 151.675112 
L 278.288982 108.947323 
L 278.415864 112.233862 
L 278.669627 143.458069 
L 278.796509 113.877479 
L 279.050272 202.619597 
L 279.177154 97.443741 
L 279.304035 154.961825 
L 279.430917 120.450905 
L 279.557799 145.101339 
L 279.68468 125.381061 
L 279.811562 127.024331 
L 279.938443 97.443741 
L 280.192207 189.472745 
L 280.319088 145.101339 
L 280.44597 145.101339 
L 280.572851 133.597757 
L 280.699733 187.829302 
L 280.826615 90.869968 
L 280.953496 159.891808 
L 281.080378 118.807636 
L 281.20726 120.450905 
L 281.334141 82.653272 
L 281.461023 140.17153 
L 281.587904 128.667601 
L 281.714786 135.241374 
L 281.841668 95.800124 
L 281.968549 161.535251 
L 282.095431 99.087011 
L 282.222313 146.744956 
L 282.349194 145.101339 
L 282.476076 153.318382 
L 282.602957 128.667601 
L 282.729839 150.031495 
L 282.856721 127.024331 
L 282.983602 181.255702 
L 283.110484 117.164019 
L 283.237366 122.094175 
L 283.364247 158.248538 
L 283.491129 130.311218 
L 283.61801 196.046171 
L 283.744892 179.612433 
L 283.871774 102.37355 
L 283.998655 122.094175 
L 284.125537 92.513585 
L 284.252419 122.094175 
L 284.3793 81.009655 
L 284.633063 156.605095 
L 284.759945 95.800124 
L 285.013708 143.458069 
L 285.14059 95.800124 
L 285.267472 154.961825 
L 285.394353 130.311218 
L 285.521235 145.101339 
L 285.648116 146.744956 
L 285.90188 105.660437 
L 286.028761 177.968989 
L 286.155643 107.303706 
L 286.282525 112.233862 
L 286.409406 133.597757 
L 286.536288 179.612433 
L 286.663169 153.318382 
L 286.790051 151.675112 
L 286.916933 107.303706 
L 287.043814 141.8148 
L 287.170696 128.667601 
L 287.297577 131.954487 
L 287.551341 128.667601 
L 287.678222 205.906483 
L 287.805104 131.954487 
L 287.931986 230.557091 
L 288.058867 92.513585 
L 288.185749 123.737444 
L 288.31263 107.303706 
L 288.439512 131.954487 
L 288.566394 107.303706 
L 289.07392 179.612433 
L 289.200802 140.17153 
L 289.327683 136.884644 
L 289.454565 159.891808 
L 289.708328 54.715952 
L 289.83521 150.031495 
L 289.962092 125.381061 
L 290.088973 166.465407 
L 290.215855 108.947323 
L 290.342736 104.017167 
L 290.469618 138.527913 
L 290.5965 81.009655 
L 290.977145 163.178694 
L 291.104026 179.612433 
L 291.357789 108.947323 
L 291.611553 108.947323 
L 291.738434 125.381061 
L 291.865316 169.75212 
L 291.992198 120.450905 
L 292.119079 146.744956 
L 292.245961 92.513585 
L 292.372842 140.17153 
L 292.499724 143.458069 
L 292.626606 127.024331 
L 292.753487 143.458069 
L 292.880369 128.667601 
L 293.007251 189.472745 
L 293.261014 108.947323 
L 293.387895 179.612433 
L 293.641659 48.142179 
L 293.76854 196.046171 
L 294.022303 127.024331 
L 294.149185 95.800124 
L 294.52983 151.675112 
L 294.656712 151.675112 
L 294.783593 84.296542 
L 295.037356 164.821964 
L 295.164238 158.248538 
L 295.29112 168.108851 
L 295.418001 84.296542 
L 295.544883 150.031495 
L 295.798646 94.156854 
L 295.925528 153.318382 
L 296.306173 92.513585 
L 296.433054 169.75212 
L 296.686818 113.877479 
L 296.813699 120.450905 
L 296.940581 104.017167 
L 297.067462 64.575917 
L 297.321226 158.248538 
L 297.574989 113.877479 
L 297.701871 182.899146 
L 298.082515 110.590593 
L 298.209397 205.906483 
L 298.336279 110.590593 
L 298.590042 92.513585 
L 298.843805 141.8148 
L 298.970687 136.884644 
L 299.478213 89.226698 
L 299.605095 150.031495 
L 299.858858 110.590593 
L 299.98574 125.381061 
L 300.112621 117.164019 
L 300.239503 166.465407 
L 300.493266 117.164019 
L 300.620148 131.954487 
L 300.747029 76.079846 
L 300.873911 87.583429 
L 301.000793 135.241374 
L 301.127674 130.311218 
L 301.254556 182.899146 
L 301.508319 130.311218 
L 301.635201 168.108851 
L 301.888964 117.164019 
L 302.015846 166.465407 
L 302.142727 125.381061 
L 302.269609 143.458069 
L 302.396491 99.087011 
L 302.650254 118.807636 
L 302.777135 168.108851 
L 302.904017 130.311218 
L 303.030899 197.689614 
L 303.15778 81.009655 
L 303.284662 156.605095 
L 303.411544 105.660437 
L 303.538425 154.961825 
L 303.665307 118.807636 
L 303.792188 179.612433 
L 303.91907 120.450905 
L 304.045952 135.241374 
L 304.172833 171.395563 
L 304.426597 148.388226 
L 304.553478 112.233862 
L 304.68036 125.381061 
L 304.807241 158.248538 
L 304.934123 118.807636 
L 305.061005 133.597757 
L 305.187886 133.597757 
L 305.314768 166.465407 
L 305.568531 110.590593 
L 305.822294 164.821964 
L 305.949176 174.682276 
L 306.076058 92.513585 
L 306.202939 131.954487 
L 306.329821 130.311218 
L 306.456702 105.660437 
L 306.583584 125.381061 
L 306.710466 76.079846 
L 306.837347 136.884644 
L 306.964229 136.884644 
L 307.217992 74.43623 
L 307.344874 148.388226 
L 307.471755 104.017167 
L 307.725519 159.891808 
L 307.979282 79.366386 
L 308.106164 143.458069 
L 308.233045 82.653272 
L 308.359927 209.193196 
L 308.486808 135.241374 
L 308.61369 164.821964 
L 308.740572 122.094175 
L 308.867453 181.255702 
L 308.994335 54.715952 
L 309.248098 166.465407 
L 309.37498 82.653272 
L 309.628743 150.031495 
L 309.755625 141.8148 
L 309.882506 182.899146 
L 310.009388 71.14969 
L 310.263151 154.961825 
L 310.390033 100.73028 
L 310.516914 99.087011 
L 310.643796 102.37355 
L 310.770678 120.450905 
L 310.897559 171.395563 
L 311.151323 95.800124 
L 311.278204 130.311218 
L 311.405086 120.450905 
L 311.531967 153.318382 
L 311.658849 146.744956 
L 311.785731 159.891808 
L 312.039494 112.233862 
L 312.166376 115.520749 
L 312.420139 159.891808 
L 312.54702 123.737444 
L 312.673902 177.968989 
L 312.927665 92.513585 
L 313.054547 117.164019 
L 313.181428 164.821964 
L 313.30831 110.590593 
L 313.435192 158.248538 
L 313.688955 99.087011 
L 313.815837 123.737444 
L 313.942718 113.877479 
L 314.0696 143.458069 
L 314.196481 117.164019 
L 314.323363 153.318382 
L 314.577126 84.296542 
L 314.957771 164.821964 
L 315.084653 151.675112 
L 315.211534 163.178694 
L 315.338416 115.520749 
L 315.465298 110.590593 
L 315.592179 161.535251 
L 315.719061 117.164019 
L 315.845943 163.178694 
L 315.972824 161.535251 
L 316.099706 120.450905 
L 316.226587 115.520749 
L 316.353469 71.14969 
L 316.480351 154.961825 
L 316.607232 90.869968 
L 316.734114 148.388226 
L 316.860996 148.388226 
L 316.987877 159.891808 
L 317.114759 159.891808 
L 317.24164 140.17153 
L 317.368522 166.465407 
L 317.622285 95.800124 
L 317.749167 95.800124 
L 317.876049 120.450905 
L 318.00293 182.899146 
L 318.129812 110.590593 
L 318.256693 179.612433 
L 318.383575 110.590593 
L 318.637338 130.311218 
L 318.76422 115.520749 
L 319.017983 166.465407 
L 319.144865 108.947323 
L 319.398628 197.689614 
L 319.52551 107.303706 
L 319.652391 115.520749 
L 319.779273 174.682276 
L 319.906154 148.388226 
L 320.159918 82.653272 
L 321.048089 154.961825 
L 321.428734 84.296542 
L 321.682497 153.318382 
L 321.809379 112.233862 
L 321.93626 131.954487 
L 322.063142 127.024331 
L 322.190024 66.219534 
L 322.316905 141.8148 
L 322.443787 115.520749 
L 322.570669 158.248538 
L 322.69755 89.226698 
L 322.824432 197.689614 
L 322.824432 197.689614 
" clip-path="url(#p70a9fcb094)" style="fill: none; stroke: #0000ff; stroke-width: 0.6; stroke-linecap: square"/>
   </g>
   <g id="line2d_32">
    <path d="M 69.188068 176.321378 
L 141.891238 176.321378 
L 142.01812 172.487429 
L 142.145001 176.321378 
L 142.271883 172.487429 
L 142.398764 176.321378 
L 142.779409 176.321378 
L 142.906291 172.487429 
L 143.286936 172.487429 
L 143.413817 176.321378 
L 143.540699 172.487429 
L 144.175107 172.487429 
L 144.301989 176.321378 
L 144.42887 172.487429 
L 145.443923 172.487429 
L 145.570805 176.321378 
L 145.697687 172.487429 
L 322.824432 172.487429 
L 322.824432 172.487429 
" clip-path="url(#p70a9fcb094)" style="fill: none; stroke: #ff0000; stroke-width: 0.6; stroke-linecap: square"/>
   </g>
   <g id="patch_3">
    <path d="M 56.50625 239.76 
L 56.50625 37.296 
" style="fill: none; stroke: #000000; stroke-width: 0.8; stroke-linejoin: miter; stroke-linecap: square"/>
   </g>
   <g id="patch_4">
    <path d="M 335.50625 239.76 
L 335.50625 37.296 
" style="fill: none; stroke: #000000; stroke-width: 0.8; stroke-linejoin: miter; stroke-linecap: square"/>
   </g>
   <g id="patch_5">
    <path d="M 56.50625 239.76 
L 335.50625 239.76 
" style="fill: none; stroke: #000000; stroke-width: 0.8; stroke-linejoin: miter; stroke-linecap: square"/>
   </g>
   <g id="patch_6">
    <path d="M 56.50625 37.296 
L 335.50625 37.296 
" style="fill: none; stroke: #000000; stroke-width: 0.8; stroke-linejoin: miter; stroke-linecap: square"/>
   </g>
   <g id="text_18">
    <!-- Constrained Model - Learning Rate = 1e-06 -->
    <g transform="translate(98.492656 31.296) scale(0.09 -0.09)">
     <defs>
      <path id="DejaVuSans-43" d="M 4122 4306 
L 4122 3641 
Q 3803 3938 3442 4084 
Q 3081 4231 2675 4231 
Q 1875 4231 1450 3742 
Q 1025 3253 1025 2328 
Q 1025 1406 1450 917 
Q 1875 428 2675 428 
Q 3081 428 3442 575 
Q 3803 722 4122 1019 
L 4122 359 
Q 3791 134 3420 21 
Q 3050 -91 2638 -91 
Q 1578 -91 968 557 
Q 359 1206 359 2328 
Q 359 3453 968 4101 
Q 1578 4750 2638 4750 
Q 3056 4750 3426 4639 
Q 3797 4528 4122 4306 
z
" transform="scale(0.015625)"/>
      <path id="DejaVuSans-6e" d="M 3513 2113 
L 3513 0 
L 2938 0 
L 2938 2094 
Q 2938 2591 2744 2837 
Q 2550 3084 2163 3084 
Q 1697 3084 1428 2787 
Q 1159 2491 1159 1978 
L 1159 0 
L 581 0 
L 581 3500 
L 1159 3500 
L 1159 2956 
Q 1366 3272 1645 3428 
Q 1925 3584 2291 3584 
Q 2894 3584 3203 3211 
Q 3513 2838 3513 2113 
z
" transform="scale(0.015625)"/>
      <path id="DejaVuSans-74" d="M 1172 4494 
L 1172 3500 
L 2356 3500 
L 2356 3053 
L 1172 3053 
L 1172 1153 
Q 1172 725 1289 603 
Q 1406 481 1766 481 
L 2356 481 
L 2356 0 
L 1766 0 
Q 1100 0 847 248 
Q 594 497 594 1153 
L 594 3053 
L 172 3053 
L 172 3500 
L 594 3500 
L 594 4494 
L 1172 4494 
z
" transform="scale(0.015625)"/>
      <path id="DejaVuSans-69" d="M 603 3500 
L 1178 3500 
L 1178 0 
L 603 0 
L 603 3500 
z
M 603 4863 
L 1178 4863 
L 1178 4134 
L 603 4134 
L 603 4863 
z
" transform="scale(0.015625)"/>
      <path id="DejaVuSans-65" d="M 3597 1894 
L 3597 1613 
L 953 1613 
Q 991 1019 1311 708 
Q 1631 397 2203 397 
Q 2534 397 2845 478 
Q 3156 559 3463 722 
L 3463 178 
Q 3153 47 2828 -22 
Q 2503 -91 2169 -91 
Q 1331 -91 842 396 
Q 353 884 353 1716 
Q 353 2575 817 3079 
Q 1281 3584 2069 3584 
Q 2775 3584 3186 3129 
Q 3597 2675 3597 1894 
z
M 3022 2063 
Q 3016 2534 2758 2815 
Q 2500 3097 2075 3097 
Q 1594 3097 1305 2825 
Q 1016 2553 972 2059 
L 3022 2063 
z
" transform="scale(0.015625)"/>
      <path id="DejaVuSans-64" d="M 2906 2969 
L 2906 4863 
L 3481 4863 
L 3481 0 
L 2906 0 
L 2906 525 
Q 2725 213 2448 61 
Q 2172 -91 1784 -91 
Q 1150 -91 751 415 
Q 353 922 353 1747 
Q 353 2572 751 3078 
Q 1150 3584 1784 3584 
Q 2172 3584 2448 3432 
Q 2725 3281 2906 2969 
z
M 947 1747 
Q 947 1113 1208 752 
Q 1469 391 1925 391 
Q 2381 391 2643 752 
Q 2906 1113 2906 1747 
Q 2906 2381 2643 2742 
Q 2381 3103 1925 3103 
Q 1469 3103 1208 2742 
Q 947 2381 947 1747 
z
" transform="scale(0.015625)"/>
      <path id="DejaVuSans-20" transform="scale(0.015625)"/>
      <path id="DejaVuSans-4d" d="M 628 4666 
L 1569 4666 
L 2759 1491 
L 3956 4666 
L 4897 4666 
L 4897 0 
L 4281 0 
L 4281 4097 
L 3078 897 
L 2444 897 
L 1241 4097 
L 1241 0 
L 628 0 
L 628 4666 
z
" transform="scale(0.015625)"/>
      <path id="DejaVuSans-6c" d="M 603 4863 
L 1178 4863 
L 1178 0 
L 603 0 
L 603 4863 
z
" transform="scale(0.015625)"/>
      <path id="DejaVuSans-2d" d="M 313 2009 
L 1997 2009 
L 1997 1497 
L 313 1497 
L 313 2009 
z
" transform="scale(0.015625)"/>
      <path id="DejaVuSans-4c" d="M 628 4666 
L 1259 4666 
L 1259 531 
L 3531 531 
L 3531 0 
L 628 0 
L 628 4666 
z
" transform="scale(0.015625)"/>
      <path id="DejaVuSans-67" d="M 2906 1791 
Q 2906 2416 2648 2759 
Q 2391 3103 1925 3103 
Q 1463 3103 1205 2759 
Q 947 2416 947 1791 
Q 947 1169 1205 825 
Q 1463 481 1925 481 
Q 2391 481 2648 825 
Q 2906 1169 2906 1791 
z
M 3481 434 
Q 3481 -459 3084 -895 
Q 2688 -1331 1869 -1331 
Q 1566 -1331 1297 -1286 
Q 1028 -1241 775 -1147 
L 775 -588 
Q 1028 -725 1275 -790 
Q 1522 -856 1778 -856 
Q 2344 -856 2625 -561 
Q 2906 -266 2906 331 
L 2906 616 
Q 2728 306 2450 153 
Q 2172 0 1784 0 
Q 1141 0 747 490 
Q 353 981 353 1791 
Q 353 2603 747 3093 
Q 1141 3584 1784 3584 
Q 2172 3584 2450 3431 
Q 2728 3278 2906 2969 
L 2906 3500 
L 3481 3500 
L 3481 434 
z
" transform="scale(0.015625)"/>
      <path id="DejaVuSans-52" d="M 2841 2188 
Q 3044 2119 3236 1894 
Q 3428 1669 3622 1275 
L 4263 0 
L 3584 0 
L 2988 1197 
Q 2756 1666 2539 1819 
Q 2322 1972 1947 1972 
L 1259 1972 
L 1259 0 
L 628 0 
L 628 4666 
L 2053 4666 
Q 2853 4666 3247 4331 
Q 3641 3997 3641 3322 
Q 3641 2881 3436 2590 
Q 3231 2300 2841 2188 
z
M 1259 4147 
L 1259 2491 
L 2053 2491 
Q 2509 2491 2742 2702 
Q 2975 2913 2975 3322 
Q 2975 3731 2742 3939 
Q 2509 4147 2053 4147 
L 1259 4147 
z
" transform="scale(0.015625)"/>
      <path id="DejaVuSans-3d" d="M 678 2906 
L 4684 2906 
L 4684 2381 
L 678 2381 
L 678 2906 
z
M 678 1631 
L 4684 1631 
L 4684 1100 
L 678 1100 
L 678 1631 
z
" transform="scale(0.015625)"/>
      <path id="DejaVuSans-36" d="M 2113 2584 
Q 1688 2584 1439 2293 
Q 1191 2003 1191 1497 
Q 1191 994 1439 701 
Q 1688 409 2113 409 
Q 2538 409 2786 701 
Q 3034 994 3034 1497 
Q 3034 2003 2786 2293 
Q 2538 2584 2113 2584 
z
M 3366 4563 
L 3366 3988 
Q 3128 4100 2886 4159 
Q 2644 4219 2406 4219 
Q 1781 4219 1451 3797 
Q 1122 3375 1075 2522 
Q 1259 2794 1537 2939 
Q 1816 3084 2150 3084 
Q 2853 3084 3261 2657 
Q 3669 2231 3669 1497 
Q 3669 778 3244 343 
Q 2819 -91 2113 -91 
Q 1303 -91 875 529 
Q 447 1150 447 2328 
Q 447 3434 972 4092 
Q 1497 4750 2381 4750 
Q 2619 4750 2861 4703 
Q 3103 4656 3366 4563 
z
" transform="scale(0.015625)"/>
     </defs>
     <use xlink:href="#DejaVuSans-43"/>
     <use xlink:href="#DejaVuSans-6f" x="69.824219"/>
     <use xlink:href="#DejaVuSans-6e" x="131.005859"/>
     <use xlink:href="#DejaVuSans-73" x="194.384766"/>
     <use xlink:href="#DejaVuSans-74" x="246.484375"/>
     <use xlink:href="#DejaVuSans-72" x="285.693359"/>
     <use xlink:href="#DejaVuSans-61" x="326.806641"/>
     <use xlink:href="#DejaVuSans-69" x="388.085938"/>
     <use xlink:href="#DejaVuSans-6e" x="415.869141"/>
     <use xlink:href="#DejaVuSans-65" x="479.248047"/>
     <use xlink:href="#DejaVuSans-64" x="540.771484"/>
     <use xlink:href="#DejaVuSans-20" x="604.248047"/>
     <use xlink:href="#DejaVuSans-4d" x="636.035156"/>
     <use xlink:href="#DejaVuSans-6f" x="722.314453"/>
     <use xlink:href="#DejaVuSans-64" x="783.496094"/>
     <use xlink:href="#DejaVuSans-65" x="846.972656"/>
     <use xlink:href="#DejaVuSans-6c" x="908.496094"/>
     <use xlink:href="#DejaVuSans-20" x="936.279297"/>
     <use xlink:href="#DejaVuSans-2d" x="968.066406"/>
     <use xlink:href="#DejaVuSans-20" x="1004.150391"/>
     <use xlink:href="#DejaVuSans-4c" x="1035.9375"/>
     <use xlink:href="#DejaVuSans-65" x="1089.900391"/>
     <use xlink:href="#DejaVuSans-61" x="1151.423828"/>
     <use xlink:href="#DejaVuSans-72" x="1212.703125"/>
     <use xlink:href="#DejaVuSans-6e" x="1252.066406"/>
     <use xlink:href="#DejaVuSans-69" x="1315.445312"/>
     <use xlink:href="#DejaVuSans-6e" x="1343.228516"/>
     <use xlink:href="#DejaVuSans-67" x="1406.607422"/>
     <use xlink:href="#DejaVuSans-20" x="1470.083984"/>
     <use xlink:href="#DejaVuSans-52" x="1501.871094"/>
     <use xlink:href="#DejaVuSans-61" x="1569.103516"/>
     <use xlink:href="#DejaVuSans-74" x="1630.382812"/>
     <use xlink:href="#DejaVuSans-65" x="1669.591797"/>
     <use xlink:href="#DejaVuSans-20" x="1731.115234"/>
     <use xlink:href="#DejaVuSans-3d" x="1762.902344"/>
     <use xlink:href="#DejaVuSans-20" x="1846.691406"/>
     <use xlink:href="#DejaVuSans-31" x="1878.478516"/>
     <use xlink:href="#DejaVuSans-65" x="1942.101562"/>
     <use xlink:href="#DejaVuSans-2d" x="2003.625"/>
     <use xlink:href="#DejaVuSans-30" x="2039.708984"/>
     <use xlink:href="#DejaVuSans-36" x="2103.332031"/>
    </g>
   </g>
   <g id="legend_1">
    <g id="patch_7">
     <path d="M 130.898438 234.76 
L 261.114062 234.76 
Q 263.114062 234.76 263.114062 232.76 
L 263.114062 204.40375 
Q 263.114062 202.40375 261.114062 202.40375 
L 130.898438 202.40375 
Q 128.898438 202.40375 128.898438 204.40375 
L 128.898438 232.76 
Q 128.898438 234.76 130.898438 234.76 
z
" style="fill: #ffffff; opacity: 0.8; stroke: #cccccc; stroke-linejoin: miter"/>
    </g>
    <g id="line2d_33">
     <path d="M 132.898438 210.502187 
L 142.898438 210.502187 
L 152.898438 210.502187 
" style="fill: none; stroke: #0000ff; stroke-width: 0.6; stroke-linecap: square"/>
    </g>
    <g id="text_19">
     <!-- Training Accuracy -->
     <g transform="translate(160.898438 214.002187) scale(0.1 -0.1)">
      <defs>
       <path id="DejaVuSans-54" d="M -19 4666 
L 3928 4666 
L 3928 4134 
L 2272 4134 
L 2272 0 
L 1638 0 
L 1638 4134 
L -19 4134 
L -19 4666 
z
" transform="scale(0.015625)"/>
      </defs>
      <use xlink:href="#DejaVuSans-54"/>
      <use xlink:href="#DejaVuSans-72" x="46.333984"/>
      <use xlink:href="#DejaVuSans-61" x="87.447266"/>
      <use xlink:href="#DejaVuSans-69" x="148.726562"/>
      <use xlink:href="#DejaVuSans-6e" x="176.509766"/>
      <use xlink:href="#DejaVuSans-69" x="239.888672"/>
      <use xlink:href="#DejaVuSans-6e" x="267.671875"/>
      <use xlink:href="#DejaVuSans-67" x="331.050781"/>
      <use xlink:href="#DejaVuSans-20" x="394.527344"/>
      <use xlink:href="#DejaVuSans-41" x="426.314453"/>
      <use xlink:href="#DejaVuSans-63" x="492.972656"/>
      <use xlink:href="#DejaVuSans-63" x="547.953125"/>
      <use xlink:href="#DejaVuSans-75" x="602.933594"/>
      <use xlink:href="#DejaVuSans-72" x="666.3125"/>
      <use xlink:href="#DejaVuSans-61" x="707.425781"/>
      <use xlink:href="#DejaVuSans-63" x="768.705078"/>
      <use xlink:href="#DejaVuSans-79" x="823.685547"/>
     </g>
    </g>
    <g id="line2d_34">
     <path d="M 132.898438 225.180312 
L 142.898438 225.180312 
L 152.898438 225.180312 
" style="fill: none; stroke: #ff0000; stroke-width: 0.6; stroke-linecap: square"/>
    </g>
    <g id="text_20">
     <!-- Validation Accuracy -->
     <g transform="translate(160.898438 228.680312) scale(0.1 -0.1)">
      <defs>
       <path id="DejaVuSans-56" d="M 1831 0 
L 50 4666 
L 709 4666 
L 2188 738 
L 3669 4666 
L 4325 4666 
L 2547 0 
L 1831 0 
z
" transform="scale(0.015625)"/>
      </defs>
      <use xlink:href="#DejaVuSans-56"/>
      <use xlink:href="#DejaVuSans-61" x="60.658203"/>
      <use xlink:href="#DejaVuSans-6c" x="121.9375"/>
      <use xlink:href="#DejaVuSans-69" x="149.720703"/>
      <use xlink:href="#DejaVuSans-64" x="177.503906"/>
      <use xlink:href="#DejaVuSans-61" x="240.980469"/>
      <use xlink:href="#DejaVuSans-74" x="302.259766"/>
      <use xlink:href="#DejaVuSans-69" x="341.46875"/>
      <use xlink:href="#DejaVuSans-6f" x="369.251953"/>
      <use xlink:href="#DejaVuSans-6e" x="430.433594"/>
      <use xlink:href="#DejaVuSans-20" x="493.8125"/>
      <use xlink:href="#DejaVuSans-41" x="525.599609"/>
      <use xlink:href="#DejaVuSans-63" x="592.257812"/>
      <use xlink:href="#DejaVuSans-63" x="647.238281"/>
      <use xlink:href="#DejaVuSans-75" x="702.21875"/>
      <use xlink:href="#DejaVuSans-72" x="765.597656"/>
      <use xlink:href="#DejaVuSans-61" x="806.710938"/>
      <use xlink:href="#DejaVuSans-63" x="867.990234"/>
      <use xlink:href="#DejaVuSans-79" x="922.970703"/>
     </g>
    </g>
   </g>
  </g>
  <g id="text_21">
   <!-- Training VS. Validation Accuracy - Dataset Size = 100.0% -->
   <g transform="translate(34.158984 15.558281) scale(0.11 -0.11)">
    <defs>
     <path id="DejaVuSans-53" d="M 3425 4513 
L 3425 3897 
Q 3066 4069 2747 4153 
Q 2428 4238 2131 4238 
Q 1616 4238 1336 4038 
Q 1056 3838 1056 3469 
Q 1056 3159 1242 3001 
Q 1428 2844 1947 2747 
L 2328 2669 
Q 3034 2534 3370 2195 
Q 3706 1856 3706 1288 
Q 3706 609 3251 259 
Q 2797 -91 1919 -91 
Q 1588 -91 1214 -16 
Q 841 59 441 206 
L 441 856 
Q 825 641 1194 531 
Q 1563 422 1919 422 
Q 2459 422 2753 634 
Q 3047 847 3047 1241 
Q 3047 1584 2836 1778 
Q 2625 1972 2144 2069 
L 1759 2144 
Q 1053 2284 737 2584 
Q 422 2884 422 3419 
Q 422 4038 858 4394 
Q 1294 4750 2059 4750 
Q 2388 4750 2728 4690 
Q 3069 4631 3425 4513 
z
" transform="scale(0.015625)"/>
     <path id="DejaVuSans-44" d="M 1259 4147 
L 1259 519 
L 2022 519 
Q 2988 519 3436 956 
Q 3884 1394 3884 2338 
Q 3884 3275 3436 3711 
Q 2988 4147 2022 4147 
L 1259 4147 
z
M 628 4666 
L 1925 4666 
Q 3281 4666 3915 4102 
Q 4550 3538 4550 2338 
Q 4550 1131 3912 565 
Q 3275 0 1925 0 
L 628 0 
L 628 4666 
z
" transform="scale(0.015625)"/>
     <path id="DejaVuSans-7a" d="M 353 3500 
L 3084 3500 
L 3084 2975 
L 922 459 
L 3084 459 
L 3084 0 
L 275 0 
L 275 525 
L 2438 3041 
L 353 3041 
L 353 3500 
z
" transform="scale(0.015625)"/>
     <path id="DejaVuSans-25" d="M 4653 2053 
Q 4381 2053 4226 1822 
Q 4072 1591 4072 1178 
Q 4072 772 4226 539 
Q 4381 306 4653 306 
Q 4919 306 5073 539 
Q 5228 772 5228 1178 
Q 5228 1588 5073 1820 
Q 4919 2053 4653 2053 
z
M 4653 2450 
Q 5147 2450 5437 2106 
Q 5728 1763 5728 1178 
Q 5728 594 5436 251 
Q 5144 -91 4653 -91 
Q 4153 -91 3862 251 
Q 3572 594 3572 1178 
Q 3572 1766 3864 2108 
Q 4156 2450 4653 2450 
z
M 1428 4353 
Q 1159 4353 1004 4120 
Q 850 3888 850 3481 
Q 850 3069 1003 2837 
Q 1156 2606 1428 2606 
Q 1700 2606 1854 2837 
Q 2009 3069 2009 3481 
Q 2009 3884 1853 4118 
Q 1697 4353 1428 4353 
z
M 4250 4750 
L 4750 4750 
L 1831 -91 
L 1331 -91 
L 4250 4750 
z
M 1428 4750 
Q 1922 4750 2215 4408 
Q 2509 4066 2509 3481 
Q 2509 2891 2217 2550 
Q 1925 2209 1428 2209 
Q 931 2209 642 2551 
Q 353 2894 353 3481 
Q 353 4063 643 4406 
Q 934 4750 1428 4750 
z
" transform="scale(0.015625)"/>
    </defs>
    <use xlink:href="#DejaVuSans-54"/>
    <use xlink:href="#DejaVuSans-72" x="46.333984"/>
    <use xlink:href="#DejaVuSans-61" x="87.447266"/>
    <use xlink:href="#DejaVuSans-69" x="148.726562"/>
    <use xlink:href="#DejaVuSans-6e" x="176.509766"/>
    <use xlink:href="#DejaVuSans-69" x="239.888672"/>
    <use xlink:href="#DejaVuSans-6e" x="267.671875"/>
    <use xlink:href="#DejaVuSans-67" x="331.050781"/>
    <use xlink:href="#DejaVuSans-20" x="394.527344"/>
    <use xlink:href="#DejaVuSans-56" x="426.314453"/>
    <use xlink:href="#DejaVuSans-53" x="494.722656"/>
    <use xlink:href="#DejaVuSans-2e" x="558.199219"/>
    <use xlink:href="#DejaVuSans-20" x="589.986328"/>
    <use xlink:href="#DejaVuSans-56" x="621.773438"/>
    <use xlink:href="#DejaVuSans-61" x="682.431641"/>
    <use xlink:href="#DejaVuSans-6c" x="743.710938"/>
    <use xlink:href="#DejaVuSans-69" x="771.494141"/>
    <use xlink:href="#DejaVuSans-64" x="799.277344"/>
    <use xlink:href="#DejaVuSans-61" x="862.753906"/>
    <use xlink:href="#DejaVuSans-74" x="924.033203"/>
    <use xlink:href="#DejaVuSans-69" x="963.242188"/>
    <use xlink:href="#DejaVuSans-6f" x="991.025391"/>
    <use xlink:href="#DejaVuSans-6e" x="1052.207031"/>
    <use xlink:href="#DejaVuSans-20" x="1115.585938"/>
    <use xlink:href="#DejaVuSans-41" x="1147.373047"/>
    <use xlink:href="#DejaVuSans-63" x="1214.03125"/>
    <use xlink:href="#DejaVuSans-63" x="1269.011719"/>
    <use xlink:href="#DejaVuSans-75" x="1323.992188"/>
    <use xlink:href="#DejaVuSans-72" x="1387.371094"/>
    <use xlink:href="#DejaVuSans-61" x="1428.484375"/>
    <use xlink:href="#DejaVuSans-63" x="1489.763672"/>
    <use xlink:href="#DejaVuSans-79" x="1544.744141"/>
    <use xlink:href="#DejaVuSans-20" x="1603.923828"/>
    <use xlink:href="#DejaVuSans-2d" x="1635.710938"/>
    <use xlink:href="#DejaVuSans-20" x="1671.794922"/>
    <use xlink:href="#DejaVuSans-44" x="1703.582031"/>
    <use xlink:href="#DejaVuSans-61" x="1780.583984"/>
    <use xlink:href="#DejaVuSans-74" x="1841.863281"/>
    <use xlink:href="#DejaVuSans-61" x="1881.072266"/>
    <use xlink:href="#DejaVuSans-73" x="1942.351562"/>
    <use xlink:href="#DejaVuSans-65" x="1994.451172"/>
    <use xlink:href="#DejaVuSans-74" x="2055.974609"/>
    <use xlink:href="#DejaVuSans-20" x="2095.183594"/>
    <use xlink:href="#DejaVuSans-53" x="2126.970703"/>
    <use xlink:href="#DejaVuSans-69" x="2190.447266"/>
    <use xlink:href="#DejaVuSans-7a" x="2218.230469"/>
    <use xlink:href="#DejaVuSans-65" x="2270.720703"/>
    <use xlink:href="#DejaVuSans-20" x="2332.244141"/>
    <use xlink:href="#DejaVuSans-3d" x="2364.03125"/>
    <use xlink:href="#DejaVuSans-20" x="2447.820312"/>
    <use xlink:href="#DejaVuSans-31" x="2479.607422"/>
    <use xlink:href="#DejaVuSans-30" x="2543.230469"/>
    <use xlink:href="#DejaVuSans-30" x="2606.853516"/>
    <use xlink:href="#DejaVuSans-2e" x="2670.476562"/>
    <use xlink:href="#DejaVuSans-30" x="2702.263672"/>
    <use xlink:href="#DejaVuSans-25" x="2765.886719"/>
   </g>
  </g>
 </g>
 <defs>
  <clipPath id="p70a9fcb094">
   <rect x="56.50625" y="37.296" width="279" height="202.464"/>
  </clipPath>
 </defs>
</svg>
