<?xml version="1.0" encoding="utf-8" standalone="no"?>
<!DOCTYPE svg PUBLIC "-//W3C//DTD SVG 1.1//EN"
  "http://www.w3.org/Graphics/SVG/1.1/DTD/svg11.dtd">
<svg xmlns:xlink="http://www.w3.org/1999/xlink" width="330.281484pt" height="277.31625pt" viewBox="0 0 330.281484 277.31625" xmlns="http://www.w3.org/2000/svg" version="1.1">
 <metadata>
  <rdf:RDF xmlns:dc="http://purl.org/dc/elements/1.1/" xmlns:cc="http://creativecommons.org/ns#" xmlns:rdf="http://www.w3.org/1999/02/22-rdf-syntax-ns#">
   <cc:Work>
    <dc:type rdf:resource="http://purl.org/dc/dcmitype/StillImage"/>
    <dc:date>2026-06-11T14:31:23.261107</dc:date>
    <dc:format>image/svg+xml</dc:format>
    <dc:creator>
     <cc:Agent>
      <dc:title>Matplotlib v3.8.4, https://matplotlib.org/</dc:title>
     </cc:Agent>
    </dc:creator>
   </cc:Work>
  </rdf:RDF>
 </metadata>
 <defs>
  <style type="text/css">*{stroke-linejoin: round; stroke-linecap: butt}</style>
 </defs>
 <g id="figure_1">
  <g id="patch_1">
   <path d="M 0 277.31625 
L 330.281484 277.31625 
L 330.281484 0 
L 0 0 
z
" style="fill: #ffffff"/>
  </g>
  <g id="axes_1">
   <g id="patch_2">
    <path d="M 43.78125 239.76 
L 322.78125 239.76 
L 322.78125 37.296 
L 43.78125 37.296 
z
" style="fill: #ffffff"/>
   </g>
   <g id="matplotlib.axis_1">
    <g id="xtick_1">
     <g id="line2d_1">
      <path d="M 56.209178 239.76 
L 56.209178 37.296 
" clip-path="url(#p09973b0b0b)" style="fill: none; stroke-dasharray: 2.96,1.28; stroke-dashoffset: 0; stroke: #b0b0b0; stroke-opacity: 0.4; stroke-width: 0.8"/>
     </g>
     <g id="line2d_2">
      <defs>
       <path id="mc5b8326a1a" d="M 0 0 
L 0 3.5 
" style="stroke: #000000; stroke-width: 0.8"/>
      </defs>
      <g>
       <use xlink:href="#mc5b8326a1a" x="56.209178" y="239.76" style="stroke: #000000; stroke-width: 0.8"/>
      </g>
     </g>
     <g id="text_1">
      <!-- 0 -->
      <g transform="translate(53.027928 254.358437) scale(0.1 -0.1)">
       <defs>
        <path id="DejaVuSans-30" d="M 2034 4250 
Q 1547 4250 1301 3770 
Q 1056 3291 1056 2328 
Q 1056 1369 1301 889 
Q 1547 409 2034 409 
Q 2525 409 2770 889 
Q 3016 1369 3016 2328 
Q 3016 3291 2770 3770 
Q 2525 4250 2034 4250 
z
M 2034 4750 
Q 2819 4750 3233 4129 
Q 3647 3509 3647 2328 
Q 3647 1150 3233 529 
Q 2819 -91 2034 -91 
Q 1250 -91 836 529 
Q 422 1150 422 2328 
Q 422 3509 836 4129 
Q 1250 4750 2034 4750 
z
" transform="scale(0.015625)"/>
       </defs>
       <use xlink:href="#DejaVuSans-30"/>
      </g>
     </g>
    </g>
    <g id="xtick_2">
     <g id="line2d_3">
      <path d="M 106.987229 239.76 
L 106.987229 37.296 
" clip-path="url(#p09973b0b0b)" style="fill: none; stroke-dasharray: 2.96,1.28; stroke-dashoffset: 0; stroke: #b0b0b0; stroke-opacity: 0.4; stroke-width: 0.8"/>
     </g>
     <g id="line2d_4">
      <g>
       <use xlink:href="#mc5b8326a1a" x="106.987229" y="239.76" style="stroke: #000000; stroke-width: 0.8"/>
      </g>
     </g>
     <g id="text_2">
      <!-- 200 -->
      <g transform="translate(97.443479 254.358437) scale(0.1 -0.1)">
       <defs>
        <path id="DejaVuSans-32" d="M 1228 531 
L 3431 531 
L 3431 0 
L 469 0 
L 469 531 
Q 828 903 1448 1529 
Q 2069 2156 2228 2338 
Q 2531 2678 2651 2914 
Q 2772 3150 2772 3378 
Q 2772 3750 2511 3984 
Q 2250 4219 1831 4219 
Q 1534 4219 1204 4116 
Q 875 4013 500 3803 
L 500 4441 
Q 881 4594 1212 4672 
Q 1544 4750 1819 4750 
Q 2544 4750 2975 4387 
Q 3406 4025 3406 3419 
Q 3406 3131 3298 2873 
Q 3191 2616 2906 2266 
Q 2828 2175 2409 1742 
Q 1991 1309 1228 531 
z
" transform="scale(0.015625)"/>
       </defs>
       <use xlink:href="#DejaVuSans-32"/>
       <use xlink:href="#DejaVuSans-30" x="63.623047"/>
       <use xlink:href="#DejaVuSans-30" x="127.246094"/>
      </g>
     </g>
    </g>
    <g id="xtick_3">
     <g id="line2d_5">
      <path d="M 157.765279 239.76 
L 157.765279 37.296 
" clip-path="url(#p09973b0b0b)" style="fill: none; stroke-dasharray: 2.96,1.28; stroke-dashoffset: 0; stroke: #b0b0b0; stroke-opacity: 0.4; stroke-width: 0.8"/>
     </g>
     <g id="line2d_6">
      <g>
       <use xlink:href="#mc5b8326a1a" x="157.765279" y="239.76" style="stroke: #000000; stroke-width: 0.8"/>
      </g>
     </g>
     <g id="text_3">
      <!-- 400 -->
      <g transform="translate(148.221529 254.358437) scale(0.1 -0.1)">
       <defs>
        <path id="DejaVuSans-34" d="M 2419 4116 
L 825 1625 
L 2419 1625 
L 2419 4116 
z
M 2253 4666 
L 3047 4666 
L 3047 1625 
L 3713 1625 
L 3713 1100 
L 3047 1100 
L 3047 0 
L 2419 0 
L 2419 1100 
L 313 1100 
L 313 1709 
L 2253 4666 
z
" transform="scale(0.015625)"/>
       </defs>
       <use xlink:href="#DejaVuSans-34"/>
       <use xlink:href="#DejaVuSans-30" x="63.623047"/>
       <use xlink:href="#DejaVuSans-30" x="127.246094"/>
      </g>
     </g>
    </g>
    <g id="xtick_4">
     <g id="line2d_7">
      <path d="M 208.54333 239.76 
L 208.54333 37.296 
" clip-path="url(#p09973b0b0b)" style="fill: none; stroke-dasharray: 2.96,1.28; stroke-dashoffset: 0; stroke: #b0b0b0; stroke-opacity: 0.4; stroke-width: 0.8"/>
     </g>
     <g id="line2d_8">
      <g>
       <use xlink:href="#mc5b8326a1a" x="208.54333" y="239.76" style="stroke: #000000; stroke-width: 0.8"/>
      </g>
     </g>
     <g id="text_4">
      <!-- 600 -->
      <g transform="translate(198.99958 254.358437) scale(0.1 -0.1)">
       <defs>
        <path id="DejaVuSans-36" d="M 2113 2584 
Q 1688 2584 1439 2293 
Q 1191 2003 1191 1497 
Q 1191 994 1439 701 
Q 1688 409 2113 409 
Q 2538 409 2786 701 
Q 3034 994 3034 1497 
Q 3034 2003 2786 2293 
Q 2538 2584 2113 2584 
z
M 3366 4563 
L 3366 3988 
Q 3128 4100 2886 4159 
Q 2644 4219 2406 4219 
Q 1781 4219 1451 3797 
Q 1122 3375 1075 2522 
Q 1259 2794 1537 2939 
Q 1816 3084 2150 3084 
Q 2853 3084 3261 2657 
Q 3669 2231 3669 1497 
Q 3669 778 3244 343 
Q 2819 -91 2113 -91 
Q 1303 -91 875 529 
Q 447 1150 447 2328 
Q 447 3434 972 4092 
Q 1497 4750 2381 4750 
Q 2619 4750 2861 4703 
Q 3103 4656 3366 4563 
z
" transform="scale(0.015625)"/>
       </defs>
       <use xlink:href="#DejaVuSans-36"/>
       <use xlink:href="#DejaVuSans-30" x="63.623047"/>
       <use xlink:href="#DejaVuSans-30" x="127.246094"/>
      </g>
     </g>
    </g>
    <g id="xtick_5">
     <g id="line2d_9">
      <path d="M 259.321381 239.76 
L 259.321381 37.296 
" clip-path="url(#p09973b0b0b)" style="fill: none; stroke-dasharray: 2.96,1.28; stroke-dashoffset: 0; stroke: #b0b0b0; stroke-opacity: 0.4; stroke-width: 0.8"/>
     </g>
     <g id="line2d_10">
      <g>
       <use xlink:href="#mc5b8326a1a" x="259.321381" y="239.76" style="stroke: #000000; stroke-width: 0.8"/>
      </g>
     </g>
     <g id="text_5">
      <!-- 800 -->
      <g transform="translate(249.777631 254.358437) scale(0.1 -0.1)">
       <defs>
        <path id="DejaVuSans-38" d="M 2034 2216 
Q 1584 2216 1326 1975 
Q 1069 1734 1069 1313 
Q 1069 891 1326 650 
Q 1584 409 2034 409 
Q 2484 409 2743 651 
Q 3003 894 3003 1313 
Q 3003 1734 2745 1975 
Q 2488 2216 2034 2216 
z
M 1403 2484 
Q 997 2584 770 2862 
Q 544 3141 544 3541 
Q 544 4100 942 4425 
Q 1341 4750 2034 4750 
Q 2731 4750 3128 4425 
Q 3525 4100 3525 3541 
Q 3525 3141 3298 2862 
Q 3072 2584 2669 2484 
Q 3125 2378 3379 2068 
Q 3634 1759 3634 1313 
Q 3634 634 3220 271 
Q 2806 -91 2034 -91 
Q 1263 -91 848 271 
Q 434 634 434 1313 
Q 434 1759 690 2068 
Q 947 2378 1403 2484 
z
M 1172 3481 
Q 1172 3119 1398 2916 
Q 1625 2713 2034 2713 
Q 2441 2713 2670 2916 
Q 2900 3119 2900 3481 
Q 2900 3844 2670 4047 
Q 2441 4250 2034 4250 
Q 1625 4250 1398 4047 
Q 1172 3844 1172 3481 
z
" transform="scale(0.015625)"/>
       </defs>
       <use xlink:href="#DejaVuSans-38"/>
       <use xlink:href="#DejaVuSans-30" x="63.623047"/>
       <use xlink:href="#DejaVuSans-30" x="127.246094"/>
      </g>
     </g>
    </g>
    <g id="xtick_6">
     <g id="line2d_11">
      <path d="M 310.099432 239.76 
L 310.099432 37.296 
" clip-path="url(#p09973b0b0b)" style="fill: none; stroke-dasharray: 2.96,1.28; stroke-dashoffset: 0; stroke: #b0b0b0; stroke-opacity: 0.4; stroke-width: 0.8"/>
     </g>
     <g id="line2d_12">
      <g>
       <use xlink:href="#mc5b8326a1a" x="310.099432" y="239.76" style="stroke: #000000; stroke-width: 0.8"/>
      </g>
     </g>
     <g id="text_6">
      <!-- 1000 -->
      <g transform="translate(297.374432 254.358437) scale(0.1 -0.1)">
       <defs>
        <path id="DejaVuSans-31" d="M 794 531 
L 1825 531 
L 1825 4091 
L 703 3866 
L 703 4441 
L 1819 4666 
L 2450 4666 
L 2450 531 
L 3481 531 
L 3481 0 
L 794 0 
L 794 531 
z
" transform="scale(0.015625)"/>
       </defs>
       <use xlink:href="#DejaVuSans-31"/>
       <use xlink:href="#DejaVuSans-30" x="63.623047"/>
       <use xlink:href="#DejaVuSans-30" x="127.246094"/>
       <use xlink:href="#DejaVuSans-30" x="190.869141"/>
      </g>
     </g>
    </g>
    <g id="text_7">
     <!-- Epochs -->
     <g transform="translate(165.365625 268.036562) scale(0.1 -0.1)">
      <defs>
       <path id="DejaVuSans-45" d="M 628 4666 
L 3578 4666 
L 3578 4134 
L 1259 4134 
L 1259 2753 
L 3481 2753 
L 3481 2222 
L 1259 2222 
L 1259 531 
L 3634 531 
L 3634 0 
L 628 0 
L 628 4666 
z
" transform="scale(0.015625)"/>
       <path id="DejaVuSans-70" d="M 1159 525 
L 1159 -1331 
L 581 -1331 
L 581 3500 
L 1159 3500 
L 1159 2969 
Q 1341 3281 1617 3432 
Q 1894 3584 2278 3584 
Q 2916 3584 3314 3078 
Q 3713 2572 3713 1747 
Q 3713 922 3314 415 
Q 2916 -91 2278 -91 
Q 1894 -91 1617 61 
Q 1341 213 1159 525 
z
M 3116 1747 
Q 3116 2381 2855 2742 
Q 2594 3103 2138 3103 
Q 1681 3103 1420 2742 
Q 1159 2381 1159 1747 
Q 1159 1113 1420 752 
Q 1681 391 2138 391 
Q 2594 391 2855 752 
Q 3116 1113 3116 1747 
z
" transform="scale(0.015625)"/>
       <path id="DejaVuSans-6f" d="M 1959 3097 
Q 1497 3097 1228 2736 
Q 959 2375 959 1747 
Q 959 1119 1226 758 
Q 1494 397 1959 397 
Q 2419 397 2687 759 
Q 2956 1122 2956 1747 
Q 2956 2369 2687 2733 
Q 2419 3097 1959 3097 
z
M 1959 3584 
Q 2709 3584 3137 3096 
Q 3566 2609 3566 1747 
Q 3566 888 3137 398 
Q 2709 -91 1959 -91 
Q 1206 -91 779 398 
Q 353 888 353 1747 
Q 353 2609 779 3096 
Q 1206 3584 1959 3584 
z
" transform="scale(0.015625)"/>
       <path id="DejaVuSans-63" d="M 3122 3366 
L 3122 2828 
Q 2878 2963 2633 3030 
Q 2388 3097 2138 3097 
Q 1578 3097 1268 2742 
Q 959 2388 959 1747 
Q 959 1106 1268 751 
Q 1578 397 2138 397 
Q 2388 397 2633 464 
Q 2878 531 3122 666 
L 3122 134 
Q 2881 22 2623 -34 
Q 2366 -91 2075 -91 
Q 1284 -91 818 406 
Q 353 903 353 1747 
Q 353 2603 823 3093 
Q 1294 3584 2113 3584 
Q 2378 3584 2631 3529 
Q 2884 3475 3122 3366 
z
" transform="scale(0.015625)"/>
       <path id="DejaVuSans-68" d="M 3513 2113 
L 3513 0 
L 2938 0 
L 2938 2094 
Q 2938 2591 2744 2837 
Q 2550 3084 2163 3084 
Q 1697 3084 1428 2787 
Q 1159 2491 1159 1978 
L 1159 0 
L 581 0 
L 581 4863 
L 1159 4863 
L 1159 2956 
Q 1366 3272 1645 3428 
Q 1925 3584 2291 3584 
Q 2894 3584 3203 3211 
Q 3513 2838 3513 2113 
z
" transform="scale(0.015625)"/>
       <path id="DejaVuSans-73" d="M 2834 3397 
L 2834 2853 
Q 2591 2978 2328 3040 
Q 2066 3103 1784 3103 
Q 1356 3103 1142 2972 
Q 928 2841 928 2578 
Q 928 2378 1081 2264 
Q 1234 2150 1697 2047 
L 1894 2003 
Q 2506 1872 2764 1633 
Q 3022 1394 3022 966 
Q 3022 478 2636 193 
Q 2250 -91 1575 -91 
Q 1294 -91 989 -36 
Q 684 19 347 128 
L 347 722 
Q 666 556 975 473 
Q 1284 391 1588 391 
Q 1994 391 2212 530 
Q 2431 669 2431 922 
Q 2431 1156 2273 1281 
Q 2116 1406 1581 1522 
L 1381 1569 
Q 847 1681 609 1914 
Q 372 2147 372 2553 
Q 372 3047 722 3315 
Q 1072 3584 1716 3584 
Q 2034 3584 2315 3537 
Q 2597 3491 2834 3397 
z
" transform="scale(0.015625)"/>
      </defs>
      <use xlink:href="#DejaVuSans-45"/>
      <use xlink:href="#DejaVuSans-70" x="63.183594"/>
      <use xlink:href="#DejaVuSans-6f" x="126.660156"/>
      <use xlink:href="#DejaVuSans-63" x="187.841797"/>
      <use xlink:href="#DejaVuSans-68" x="242.822266"/>
      <use xlink:href="#DejaVuSans-73" x="306.201172"/>
     </g>
    </g>
   </g>
   <g id="matplotlib.axis_2">
    <g id="ytick_1">
     <g id="line2d_13">
      <path d="M 43.78125 217.178312 
L 322.78125 217.178312 
" clip-path="url(#p09973b0b0b)" style="fill: none; stroke-dasharray: 2.96,1.28; stroke-dashoffset: 0; stroke: #b0b0b0; stroke-opacity: 0.4; stroke-width: 0.8"/>
     </g>
     <g id="line2d_14">
      <defs>
       <path id="m4334696e9c" d="M 0 0 
L -3.5 0 
" style="stroke: #000000; stroke-width: 0.8"/>
      </defs>
      <g>
       <use xlink:href="#m4334696e9c" x="43.78125" y="217.178312" style="stroke: #000000; stroke-width: 0.8"/>
      </g>
     </g>
     <g id="text_8">
      <!-- 0.2 -->
      <g transform="translate(20.878125 220.977531) scale(0.1 -0.1)">
       <defs>
        <path id="DejaVuSans-2e" d="M 684 794 
L 1344 794 
L 1344 0 
L 684 0 
L 684 794 
z
" transform="scale(0.015625)"/>
       </defs>
       <use xlink:href="#DejaVuSans-30"/>
       <use xlink:href="#DejaVuSans-2e" x="63.623047"/>
       <use xlink:href="#DejaVuSans-32" x="95.410156"/>
      </g>
     </g>
    </g>
    <g id="ytick_2">
     <g id="line2d_15">
      <path d="M 43.78125 190.137297 
L 322.78125 190.137297 
" clip-path="url(#p09973b0b0b)" style="fill: none; stroke-dasharray: 2.96,1.28; stroke-dashoffset: 0; stroke: #b0b0b0; stroke-opacity: 0.4; stroke-width: 0.8"/>
     </g>
     <g id="line2d_16">
      <g>
       <use xlink:href="#m4334696e9c" x="43.78125" y="190.137297" style="stroke: #000000; stroke-width: 0.8"/>
      </g>
     </g>
     <g id="text_9">
      <!-- 0.4 -->
      <g transform="translate(20.878125 193.936516) scale(0.1 -0.1)">
       <use xlink:href="#DejaVuSans-30"/>
       <use xlink:href="#DejaVuSans-2e" x="63.623047"/>
       <use xlink:href="#DejaVuSans-34" x="95.410156"/>
      </g>
     </g>
    </g>
    <g id="ytick_3">
     <g id="line2d_17">
      <path d="M 43.78125 163.096281 
L 322.78125 163.096281 
" clip-path="url(#p09973b0b0b)" style="fill: none; stroke-dasharray: 2.96,1.28; stroke-dashoffset: 0; stroke: #b0b0b0; stroke-opacity: 0.4; stroke-width: 0.8"/>
     </g>
     <g id="line2d_18">
      <g>
       <use xlink:href="#m4334696e9c" x="43.78125" y="163.096281" style="stroke: #000000; stroke-width: 0.8"/>
      </g>
     </g>
     <g id="text_10">
      <!-- 0.6 -->
      <g transform="translate(20.878125 166.8955) scale(0.1 -0.1)">
       <use xlink:href="#DejaVuSans-30"/>
       <use xlink:href="#DejaVuSans-2e" x="63.623047"/>
       <use xlink:href="#DejaVuSans-36" x="95.410156"/>
      </g>
     </g>
    </g>
    <g id="ytick_4">
     <g id="line2d_19">
      <path d="M 43.78125 136.055266 
L 322.78125 136.055266 
" clip-path="url(#p09973b0b0b)" style="fill: none; stroke-dasharray: 2.96,1.28; stroke-dashoffset: 0; stroke: #b0b0b0; stroke-opacity: 0.4; stroke-width: 0.8"/>
     </g>
     <g id="line2d_20">
      <g>
       <use xlink:href="#m4334696e9c" x="43.78125" y="136.055266" style="stroke: #000000; stroke-width: 0.8"/>
      </g>
     </g>
     <g id="text_11">
      <!-- 0.8 -->
      <g transform="translate(20.878125 139.854484) scale(0.1 -0.1)">
       <use xlink:href="#DejaVuSans-30"/>
       <use xlink:href="#DejaVuSans-2e" x="63.623047"/>
       <use xlink:href="#DejaVuSans-38" x="95.410156"/>
      </g>
     </g>
    </g>
    <g id="ytick_5">
     <g id="line2d_21">
      <path d="M 43.78125 109.01425 
L 322.78125 109.01425 
" clip-path="url(#p09973b0b0b)" style="fill: none; stroke-dasharray: 2.96,1.28; stroke-dashoffset: 0; stroke: #b0b0b0; stroke-opacity: 0.4; stroke-width: 0.8"/>
     </g>
     <g id="line2d_22">
      <g>
       <use xlink:href="#m4334696e9c" x="43.78125" y="109.01425" style="stroke: #000000; stroke-width: 0.8"/>
      </g>
     </g>
     <g id="text_12">
      <!-- 1.0 -->
      <g transform="translate(20.878125 112.813469) scale(0.1 -0.1)">
       <use xlink:href="#DejaVuSans-31"/>
       <use xlink:href="#DejaVuSans-2e" x="63.623047"/>
       <use xlink:href="#DejaVuSans-30" x="95.410156"/>
      </g>
     </g>
    </g>
    <g id="ytick_6">
     <g id="line2d_23">
      <path d="M 43.78125 81.973235 
L 322.78125 81.973235 
" clip-path="url(#p09973b0b0b)" style="fill: none; stroke-dasharray: 2.96,1.28; stroke-dashoffset: 0; stroke: #b0b0b0; stroke-opacity: 0.4; stroke-width: 0.8"/>
     </g>
     <g id="line2d_24">
      <g>
       <use xlink:href="#m4334696e9c" x="43.78125" y="81.973235" style="stroke: #000000; stroke-width: 0.8"/>
      </g>
     </g>
     <g id="text_13">
      <!-- 1.2 -->
      <g transform="translate(20.878125 85.772453) scale(0.1 -0.1)">
       <use xlink:href="#DejaVuSans-31"/>
       <use xlink:href="#DejaVuSans-2e" x="63.623047"/>
       <use xlink:href="#DejaVuSans-32" x="95.410156"/>
      </g>
     </g>
    </g>
    <g id="ytick_7">
     <g id="line2d_25">
      <path d="M 43.78125 54.932219 
L 322.78125 54.932219 
" clip-path="url(#p09973b0b0b)" style="fill: none; stroke-dasharray: 2.96,1.28; stroke-dashoffset: 0; stroke: #b0b0b0; stroke-opacity: 0.4; stroke-width: 0.8"/>
     </g>
     <g id="line2d_26">
      <g>
       <use xlink:href="#m4334696e9c" x="43.78125" y="54.932219" style="stroke: #000000; stroke-width: 0.8"/>
      </g>
     </g>
     <g id="text_14">
      <!-- 1.4 -->
      <g transform="translate(20.878125 58.731438) scale(0.1 -0.1)">
       <use xlink:href="#DejaVuSans-31"/>
       <use xlink:href="#DejaVuSans-2e" x="63.623047"/>
       <use xlink:href="#DejaVuSans-34" x="95.410156"/>
      </g>
     </g>
    </g>
    <g id="text_15">
     <!-- Loss -->
     <g transform="translate(14.798438 149.495187) rotate(-90) scale(0.1 -0.1)">
      <defs>
       <path id="DejaVuSans-4c" d="M 628 4666 
L 1259 4666 
L 1259 531 
L 3531 531 
L 3531 0 
L 628 0 
L 628 4666 
z
" transform="scale(0.015625)"/>
      </defs>
      <use xlink:href="#DejaVuSans-4c"/>
      <use xlink:href="#DejaVuSans-6f" x="53.962891"/>
      <use xlink:href="#DejaVuSans-73" x="115.144531"/>
      <use xlink:href="#DejaVuSans-73" x="167.244141"/>
     </g>
    </g>
   </g>
   <g id="line2d_27">
    <path d="M 56.463068 141.549772 
L 57.478629 178.856932 
L 57.732519 181.756337 
L 57.98641 183.232723 
L 58.2403 181.668673 
L 58.49419 185.202842 
L 58.74808 185.378774 
L 59.001971 189.893846 
L 59.255861 187.708947 
L 59.509751 192.127312 
L 59.763641 191.997464 
L 60.525312 196.765584 
L 60.779202 196.632854 
L 61.033093 195.101991 
L 61.286983 197.827321 
L 61.540873 198.184421 
L 61.794764 199.275106 
L 62.048654 202.108259 
L 62.302544 199.441187 
L 62.556434 202.829611 
L 63.064215 202.356085 
L 63.571995 204.543886 
L 63.825886 203.567608 
L 64.079776 203.053937 
L 64.333666 205.92099 
L 64.587556 204.982605 
L 64.841447 205.366602 
L 65.095337 207.356703 
L 65.349227 207.514495 
L 65.603117 207.310626 
L 65.857008 206.226513 
L 66.110898 206.46954 
L 66.364788 208.144604 
L 66.618678 206.129964 
L 66.872569 207.959613 
L 67.126459 206.756616 
L 67.380349 208.722279 
L 67.634239 207.734562 
L 67.88813 208.484329 
L 68.14202 198.660288 
L 68.39591 208.412875 
L 68.6498 209.542714 
L 68.903691 209.212608 
L 69.157581 209.800114 
L 69.411471 209.384587 
L 69.665361 208.740871 
L 69.919252 209.591954 
L 70.173142 209.574293 
L 70.427032 210.671538 
L 70.934813 208.675263 
L 71.188703 211.379288 
L 71.442593 209.49881 
L 71.950374 212.156641 
L 72.204264 212.217022 
L 72.712044 211.749628 
L 72.965935 212.700859 
L 73.219825 212.226235 
L 73.473715 212.691942 
L 73.727605 210.474204 
L 73.981496 211.24046 
L 74.489276 210.525247 
L 74.997057 212.6167 
L 75.250947 213.491426 
L 75.504837 213.26635 
L 75.758727 213.629128 
L 76.012618 212.625563 
L 76.520398 213.685262 
L 76.774288 212.977572 
L 77.028179 213.079883 
L 77.282069 214.034421 
L 77.535959 214.238888 
L 77.78985 213.959089 
L 78.04374 212.74844 
L 78.29763 215.232472 
L 78.55152 215.213467 
L 78.805411 213.810085 
L 79.059301 213.668574 
L 79.313191 213.8463 
L 79.567081 215.936933 
L 79.820972 212.012335 
L 80.074862 215.344404 
L 80.328752 214.334696 
L 80.582642 215.084147 
L 80.836533 215.324694 
L 81.090423 215.883581 
L 81.344313 215.166212 
L 81.598203 215.970826 
L 82.105984 213.417232 
L 82.613764 219.285875 
L 82.867655 218.731379 
L 83.375435 219.300705 
L 83.629325 218.250774 
L 83.883216 219.291377 
L 84.137106 219.207353 
L 84.390996 218.978939 
L 84.644886 218.108642 
L 84.898777 219.530404 
L 85.152667 219.232898 
L 85.406557 219.393801 
L 85.660447 218.933477 
L 85.914338 220.395552 
L 86.168228 219.06615 
L 86.422118 219.484525 
L 86.676008 220.332042 
L 86.929899 219.517929 
L 87.183789 219.236728 
L 87.437679 219.251786 
L 87.691569 219.136165 
L 87.94546 220.569033 
L 88.19935 219.868937 
L 88.45324 221.465377 
L 88.70713 219.250422 
L 88.961021 220.26356 
L 89.214911 219.317038 
L 89.468801 220.251631 
L 89.722691 218.865072 
L 89.976582 218.902229 
L 90.230472 219.117318 
L 90.484362 220.201318 
L 90.738252 219.637502 
L 90.992143 220.351694 
L 91.246033 220.645203 
L 91.753813 218.900851 
L 92.007704 219.690163 
L 92.261594 219.663851 
L 92.515484 219.278825 
L 92.769374 220.647748 
L 93.023265 220.433382 
L 93.277155 219.92962 
L 93.531045 220.668272 
L 93.784936 220.285674 
L 94.038826 220.926074 
L 94.292716 218.311274 
L 94.546606 220.236805 
L 94.800497 219.926821 
L 95.054387 221.79882 
L 95.308277 221.949484 
L 95.562167 222.776042 
L 95.816058 222.094984 
L 96.069948 223.028427 
L 96.323838 221.701261 
L 96.577728 222.59364 
L 96.831619 222.761198 
L 97.085509 224.317936 
L 97.339399 224.378687 
L 97.593289 222.707129 
L 97.84718 222.505601 
L 98.10107 222.732923 
L 98.35496 222.033479 
L 98.60885 223.026422 
L 98.862741 222.935508 
L 99.116631 224.791957 
L 99.624411 222.749385 
L 99.878302 225.100146 
L 100.386082 223.893659 
L 100.639972 223.711398 
L 100.893863 223.755277 
L 101.147753 224.283545 
L 101.655533 223.765483 
L 101.909424 224.206669 
L 102.163314 223.894868 
L 102.417204 223.050549 
L 102.924985 224.796192 
L 103.178875 222.55115 
L 103.432765 224.355422 
L 103.686655 224.112296 
L 103.940546 222.964996 
L 104.194436 224.49976 
L 104.448326 222.048439 
L 105.209997 224.701326 
L 105.463887 224.015872 
L 105.717777 224.439915 
L 105.971668 223.500261 
L 106.225558 225.15333 
L 106.479448 224.698445 
L 106.733338 222.771694 
L 106.987229 223.220707 
L 107.241119 223.943522 
L 107.495009 223.272491 
L 108.00279 225.031521 
L 108.25668 224.386245 
L 108.51057 225.506262 
L 108.76446 225.237529 
L 109.018351 225.448256 
L 109.272241 224.561378 
L 109.526131 224.955963 
L 109.780021 226.467668 
L 110.033912 226.010879 
L 110.287802 225.312146 
L 110.541692 225.316194 
L 110.795583 225.907901 
L 111.049473 226.076589 
L 111.303363 226.446653 
L 111.557253 225.557951 
L 112.065034 226.305456 
L 112.318924 225.682154 
L 112.572814 225.466932 
L 112.826705 224.512964 
L 113.080595 226.273158 
L 113.334485 226.476841 
L 113.588375 225.177291 
L 113.842266 226.190517 
L 114.096156 225.818611 
L 114.350046 225.983013 
L 114.603936 225.919918 
L 114.857827 227.439489 
L 115.111717 224.553125 
L 115.619497 225.928656 
L 115.873388 224.549303 
L 116.127278 224.038312 
L 116.381168 226.058247 
L 116.635058 226.214693 
L 116.888949 226.193958 
L 117.142839 225.978468 
L 117.396729 226.706575 
L 117.650619 225.299375 
L 117.90451 226.482164 
L 118.1584 226.735152 
L 118.41229 226.600714 
L 118.66618 226.725552 
L 118.920071 225.118945 
L 119.173961 225.761427 
L 119.427851 227.020385 
L 119.681741 226.816026 
L 120.189522 225.564739 
L 120.443412 225.790159 
L 120.697302 226.694082 
L 120.951193 226.934969 
L 121.205083 226.870232 
L 121.458973 226.974888 
L 121.712863 226.812736 
L 121.966754 226.47281 
L 122.220644 227.891158 
L 122.474534 227.062724 
L 122.728424 227.717634 
L 122.982315 226.760581 
L 123.236205 227.681582 
L 123.490095 226.428907 
L 123.743985 226.380788 
L 123.997876 226.107621 
L 124.251766 227.921436 
L 124.505656 227.404026 
L 124.759546 228.06086 
L 125.267327 226.18362 
L 125.521217 226.529375 
L 125.775107 225.842288 
L 126.028998 226.905721 
L 126.282888 225.39244 
L 126.536778 226.772317 
L 126.790669 226.909557 
L 127.044559 227.298522 
L 127.298449 224.961042 
L 127.552339 226.720418 
L 127.80623 226.176486 
L 128.06012 225.001927 
L 128.31401 227.458682 
L 128.5679 226.403808 
L 129.075681 227.371563 
L 129.329571 227.332796 
L 129.583461 227.125778 
L 129.837352 228.283928 
L 130.345132 226.294073 
L 130.599022 227.143758 
L 130.852913 227.312695 
L 131.106803 227.921059 
L 131.360693 227.631599 
L 131.614583 228.175618 
L 131.868474 226.605811 
L 132.122364 226.769591 
L 132.376254 227.946968 
L 132.630144 227.560221 
L 132.884035 227.917994 
L 133.137925 226.876907 
L 133.391815 228.066856 
L 133.645705 227.610493 
L 133.899596 228.348915 
L 134.153486 228.321614 
L 134.407376 228.160309 
L 134.661266 225.545994 
L 134.915157 228.129496 
L 135.169047 227.283752 
L 135.422937 228.166021 
L 135.676827 227.920012 
L 135.930718 228.548986 
L 136.184608 227.997657 
L 136.438498 226.702155 
L 136.692388 228.266114 
L 136.946279 228.079019 
L 137.200169 227.553862 
L 137.454059 227.676214 
L 137.707949 229.095637 
L 137.96184 227.612571 
L 138.21573 228.359438 
L 138.46962 227.295574 
L 138.977401 228.299112 
L 139.231291 227.684868 
L 139.739071 228.599462 
L 139.992962 227.023342 
L 140.500742 228.718309 
L 141.008523 227.230666 
L 141.262413 229.497385 
L 141.516303 227.832525 
L 141.770193 228.23634 
L 142.024084 228.175325 
L 142.531864 227.445179 
L 142.785755 228.351586 
L 143.039645 226.973218 
L 143.293535 227.15031 
L 143.547425 228.718685 
L 143.801316 226.800495 
L 144.055206 228.114782 
L 144.309096 228.325034 
L 144.562986 227.742862 
L 144.816877 227.778443 
L 145.070767 228.234034 
L 145.324657 227.47994 
L 145.578547 228.951531 
L 145.832438 228.037612 
L 146.086328 228.909157 
L 146.340218 228.011554 
L 146.594108 228.564793 
L 146.847999 227.159003 
L 147.355779 227.464789 
L 147.609669 228.879618 
L 147.86356 228.275027 
L 148.11745 228.5839 
L 148.37134 228.34201 
L 148.62523 229.042173 
L 148.879121 227.512038 
L 149.133011 227.839286 
L 149.386901 228.693429 
L 149.894682 228.277039 
L 150.148572 228.598704 
L 150.402462 227.708915 
L 150.656352 228.247613 
L 150.910243 229.136107 
L 151.164133 228.676927 
L 151.671913 228.254898 
L 151.925804 228.181529 
L 152.179694 229.56859 
L 152.433584 228.732683 
L 152.687474 227.046622 
L 152.941365 228.484406 
L 153.195255 226.753246 
L 153.449145 227.906465 
L 153.703035 227.988493 
L 153.956926 228.584239 
L 154.210816 227.416492 
L 154.464706 228.412438 
L 154.718596 228.243461 
L 154.972487 226.601427 
L 155.226377 228.736902 
L 155.480267 228.618154 
L 155.734157 227.19064 
L 156.241938 228.676106 
L 156.749718 227.67384 
L 157.003609 227.802226 
L 157.257499 228.972026 
L 157.511389 228.047119 
L 157.765279 228.593867 
L 158.01917 228.198841 
L 158.27306 227.570087 
L 158.52695 228.036114 
L 159.034731 226.445553 
L 159.288621 228.057524 
L 159.542511 228.288682 
L 159.796402 228.263609 
L 160.050292 227.954356 
L 160.304182 228.75458 
L 160.558072 228.548759 
L 160.811963 227.434758 
L 161.065853 227.808556 
L 161.319743 227.12158 
L 161.573633 229.004645 
L 161.827524 228.698106 
L 162.081414 229.500666 
L 162.335304 227.484428 
L 162.843085 228.835635 
L 163.096975 227.874227 
L 163.604755 228.818687 
L 163.858646 226.977592 
L 164.112536 227.21889 
L 164.366426 227.812121 
L 164.874207 228.511369 
L 165.128097 227.429256 
L 165.381987 228.092031 
L 165.635877 227.451831 
L 165.889768 228.931375 
L 166.397548 227.878783 
L 166.651438 229.170217 
L 166.905329 226.424467 
L 167.159219 228.881979 
L 167.413109 228.039565 
L 167.666999 228.084317 
L 167.92089 229.094316 
L 168.17478 228.513988 
L 168.42867 228.546925 
L 168.68256 227.861225 
L 169.190341 229.748181 
L 169.444231 228.322631 
L 169.698121 228.994075 
L 169.952012 228.121131 
L 170.205902 228.865326 
L 170.459792 227.059585 
L 170.713682 228.519113 
L 170.967573 227.691546 
L 171.221463 228.954428 
L 171.475353 229.370133 
L 171.729243 228.006779 
L 171.983134 228.840508 
L 172.237024 228.551845 
L 172.744804 226.34077 
L 172.998695 229.770671 
L 173.252585 228.974832 
L 173.506475 229.712934 
L 173.760365 227.89338 
L 174.268146 229.045875 
L 174.522036 229.044452 
L 174.775926 229.181247 
L 175.029817 227.378539 
L 175.283707 228.02621 
L 175.791488 227.283182 
L 176.045378 227.936276 
L 176.299268 229.547327 
L 176.553158 228.310996 
L 176.807049 227.828933 
L 177.060939 229.200447 
L 177.314829 228.282053 
L 177.568719 228.955688 
L 177.82261 228.375798 
L 178.0765 229.114358 
L 178.33039 228.042305 
L 178.58428 227.756917 
L 179.345951 229.029431 
L 179.599841 228.083767 
L 179.853732 228.374061 
L 180.361512 228.135141 
L 180.615402 229.243559 
L 180.869293 228.369251 
L 181.123183 228.455848 
L 181.377073 229.002297 
L 181.630963 227.969307 
L 181.884854 228.455447 
L 182.138744 228.391484 
L 182.392634 229.071506 
L 182.900415 227.650801 
L 183.154305 228.530438 
L 183.408195 228.106078 
L 183.662085 228.087909 
L 183.915976 228.347883 
L 184.169866 228.338837 
L 184.423756 227.956145 
L 184.677646 228.471601 
L 184.931537 228.344174 
L 185.439317 228.786935 
L 185.693207 228.829088 
L 185.947098 227.663426 
L 186.200988 229.181006 
L 186.708768 228.544006 
L 186.962659 228.397904 
L 187.216549 227.978926 
L 187.470439 228.15131 
L 187.724329 229.85764 
L 187.97822 228.377661 
L 188.23211 229.834199 
L 188.486 229.067429 
L 188.73989 229.424631 
L 188.993781 229.588246 
L 189.247671 228.305621 
L 189.501561 229.171565 
L 190.009342 228.377998 
L 190.263232 228.56188 
L 190.517122 228.47332 
L 190.771012 229.325164 
L 191.278793 228.626854 
L 191.532683 228.749385 
L 191.786574 227.532042 
L 192.040464 230.033236 
L 192.294354 228.160462 
L 192.548244 228.605479 
L 192.802135 228.494581 
L 193.056025 228.930061 
L 193.309915 228.483201 
L 193.563805 228.764489 
L 193.817696 229.619829 
L 194.071586 229.076071 
L 194.325476 227.651881 
L 194.833257 229.441883 
L 195.087147 229.641485 
L 195.341037 229.561307 
L 195.594927 228.212031 
L 195.848818 228.911236 
L 196.102708 228.154174 
L 196.610488 229.570586 
L 196.864379 227.895959 
L 197.118269 227.987172 
L 197.626049 229.410475 
L 197.87994 229.557669 
L 198.38772 228.413847 
L 198.895501 228.595261 
L 199.149391 228.287784 
L 199.911062 230.055405 
L 200.164952 228.829796 
L 200.418842 228.175289 
L 200.672732 228.263736 
L 200.926623 229.235008 
L 201.434403 228.263072 
L 201.688293 228.164034 
L 201.942184 229.379026 
L 202.196074 228.278137 
L 202.449964 229.698388 
L 202.703854 229.062447 
L 202.957745 229.918412 
L 203.465525 228.332024 
L 203.719415 229.769509 
L 203.973306 228.908389 
L 204.227196 229.01998 
L 204.481086 227.741327 
L 204.734976 227.684165 
L 205.242757 229.511204 
L 205.496647 228.270038 
L 205.750537 229.458365 
L 206.004428 228.992932 
L 206.258318 228.873934 
L 206.512208 228.429464 
L 206.766098 229.050703 
L 207.019989 228.096815 
L 207.527769 229.104823 
L 207.78166 229.246436 
L 208.28944 228.6455 
L 208.54333 229.19253 
L 208.797221 229.211275 
L 209.051111 228.239796 
L 209.305001 228.972414 
L 209.558891 228.728114 
L 209.812782 228.162812 
L 210.066672 230.316906 
L 210.320562 228.441296 
L 210.574452 228.989325 
L 211.082233 227.699976 
L 211.336123 228.998118 
L 211.590013 229.02577 
L 211.843904 228.74006 
L 212.097794 229.217444 
L 212.351684 228.774509 
L 212.605574 229.131642 
L 212.859465 228.253283 
L 213.113355 229.074158 
L 213.367245 229.425866 
L 213.621135 227.482637 
L 213.875026 228.860113 
L 214.128916 228.542671 
L 214.382806 227.271098 
L 214.636696 228.942296 
L 214.890587 227.932471 
L 215.144477 228.582887 
L 215.398367 228.477988 
L 215.652257 228.749409 
L 215.906148 227.595203 
L 216.160038 227.852089 
L 216.413928 227.624461 
L 216.667818 228.655558 
L 217.175599 229.152587 
L 217.683379 227.869772 
L 217.93727 228.923278 
L 218.19116 228.980856 
L 218.69894 227.359772 
L 218.952831 228.43475 
L 219.206721 228.105026 
L 219.460611 228.778016 
L 219.714501 226.989189 
L 219.968392 229.177235 
L 220.222282 228.415122 
L 220.476172 228.310333 
L 220.730062 229.341892 
L 220.983953 228.796458 
L 221.237843 228.887232 
L 221.745623 227.549669 
L 221.999514 228.766122 
L 222.253404 228.941603 
L 222.507294 228.67464 
L 222.761184 229.272477 
L 223.268965 228.434083 
L 223.776745 229.619424 
L 224.030636 227.380524 
L 224.284526 229.073537 
L 224.538416 228.221919 
L 225.046197 228.179883 
L 225.300087 228.419437 
L 225.553977 228.465482 
L 225.807868 228.949678 
L 226.061758 228.939918 
L 226.315648 228.765008 
L 226.569538 228.87017 
L 226.823429 228.02231 
L 227.077319 228.079028 
L 227.331209 228.618525 
L 227.585099 228.646544 
L 227.83899 227.80844 
L 228.09288 228.413454 
L 228.34677 229.643423 
L 228.60066 227.696926 
L 228.854551 229.309817 
L 229.108441 228.177946 
L 229.362331 228.605565 
L 229.870112 228.415196 
L 230.124002 228.694271 
L 230.377892 228.608147 
L 230.631782 229.041127 
L 230.885673 228.170914 
L 231.139563 228.992624 
L 231.647343 227.632999 
L 231.901234 228.709562 
L 232.155124 228.296248 
L 232.409014 228.656317 
L 232.662904 228.552109 
L 233.170685 229.388716 
L 233.424575 228.624796 
L 233.678465 229.709981 
L 233.932356 229.490203 
L 234.186246 228.024823 
L 234.440136 229.506773 
L 234.694026 228.111101 
L 234.947917 229.084086 
L 235.201807 228.537113 
L 235.455697 228.406873 
L 235.709587 228.684914 
L 235.963478 228.712184 
L 236.217368 228.598551 
L 236.471258 227.753469 
L 236.725148 229.026162 
L 236.979039 228.505764 
L 237.232929 228.856918 
L 237.486819 227.439372 
L 237.740709 229.019801 
L 237.9946 229.237351 
L 238.24849 228.896574 
L 238.75627 229.928657 
L 239.010161 229.544403 
L 239.264051 228.695619 
L 239.517941 228.923452 
L 239.771831 229.927459 
L 240.025722 228.514583 
L 240.279612 228.55915 
L 240.533502 229.63932 
L 240.787393 228.95892 
L 241.041283 227.85085 
L 241.295173 229.141045 
L 241.549063 228.270365 
L 241.802954 229.519059 
L 242.056844 228.373333 
L 242.310734 228.195437 
L 242.564624 229.002212 
L 242.818515 228.605235 
L 243.072405 228.80426 
L 243.326295 227.823157 
L 243.580185 227.423873 
L 244.087966 229.139304 
L 244.341856 229.324459 
L 244.595746 228.208177 
L 244.849637 229.007993 
L 245.103527 229.073694 
L 245.357417 228.285041 
L 245.611307 228.603371 
L 245.865198 228.518638 
L 246.119088 229.491786 
L 246.372978 227.915466 
L 246.626868 229.299017 
L 246.880759 229.005582 
L 247.134649 228.304783 
L 247.388539 226.785342 
L 247.642429 228.731674 
L 247.89632 229.145136 
L 248.15021 228.707697 
L 248.4041 228.951186 
L 248.65799 228.172076 
L 248.911881 228.085789 
L 249.419661 228.860509 
L 249.673551 228.40178 
L 250.181332 228.927594 
L 250.435222 227.866177 
L 250.689112 228.55034 
L 250.943003 228.574266 
L 251.196893 229.396343 
L 251.450783 229.558433 
L 251.704673 227.534035 
L 252.212454 230.288329 
L 252.720234 227.671633 
L 252.974125 229.193526 
L 253.481905 227.708928 
L 253.735795 229.497894 
L 253.989686 229.347473 
L 254.243576 229.594128 
L 254.497466 228.571149 
L 254.751356 229.178265 
L 255.005247 228.633855 
L 255.259137 229.331284 
L 255.513027 228.622648 
L 255.766917 229.481951 
L 256.020808 228.788891 
L 256.274698 228.644523 
L 256.528588 227.661653 
L 256.782479 229.200878 
L 257.036369 229.380754 
L 257.290259 229.290491 
L 257.544149 229.522973 
L 257.79804 229.194025 
L 258.05193 229.444534 
L 258.30582 230.557091 
L 258.55971 228.678979 
L 258.813601 228.892475 
L 259.067491 229.81547 
L 259.321381 228.644517 
L 259.575271 228.737632 
L 259.829162 228.12352 
L 260.083052 228.540945 
L 260.336942 229.804341 
L 260.590832 227.93976 
L 260.844723 229.665598 
L 261.098613 228.546692 
L 261.352503 228.051458 
L 261.606393 227.163129 
L 261.860284 228.912062 
L 262.114174 228.777969 
L 262.368064 228.911709 
L 262.621954 229.767842 
L 262.875845 228.717842 
L 263.129735 228.362872 
L 263.383625 228.468577 
L 263.637515 227.855 
L 263.891406 227.964125 
L 264.145296 228.899251 
L 264.399186 227.623143 
L 264.653076 229.060634 
L 264.906967 229.526309 
L 265.160857 229.560299 
L 265.414747 229.3864 
L 265.668637 227.422091 
L 265.922528 228.644512 
L 266.176418 228.148028 
L 266.430308 229.619775 
L 266.684198 230.051956 
L 266.938089 228.0261 
L 267.191979 228.415703 
L 267.445869 229.318952 
L 267.699759 227.815127 
L 267.95365 228.394389 
L 268.20754 229.505861 
L 268.46143 228.256039 
L 268.71532 229.223388 
L 268.969211 228.99961 
L 269.223101 227.518096 
L 269.476991 228.820792 
L 269.730881 228.064708 
L 269.984772 229.108445 
L 270.238662 228.775172 
L 270.492552 229.806118 
L 270.746442 229.344143 
L 271.000333 228.191902 
L 271.508113 230.086283 
L 271.762003 228.153527 
L 272.015894 229.313303 
L 272.269784 229.228729 
L 272.523674 229.878043 
L 272.777564 228.431547 
L 273.031455 229.175385 
L 273.285345 229.026907 
L 273.539235 228.020221 
L 273.793126 229.402049 
L 274.047016 229.06545 
L 274.300906 227.892127 
L 274.554796 229.204401 
L 274.808687 228.731548 
L 275.062577 228.022656 
L 275.316467 228.338035 
L 275.570357 228.070026 
L 275.824248 228.72044 
L 276.078138 228.867923 
L 276.332028 229.505816 
L 276.839809 228.038773 
L 277.093699 227.81878 
L 277.347589 229.145514 
L 277.601479 228.153177 
L 277.85537 228.66621 
L 278.36315 228.56268 
L 278.61704 228.023258 
L 278.870931 228.131286 
L 279.378711 229.081722 
L 279.632601 228.739554 
L 279.886492 229.541288 
L 280.140382 229.473802 
L 280.648162 228.340149 
L 280.902053 227.367201 
L 281.155943 228.700467 
L 281.409833 228.650557 
L 281.663723 229.42861 
L 281.917614 228.685515 
L 282.171504 229.4337 
L 282.425394 228.748842 
L 282.679284 229.271 
L 282.933175 228.277096 
L 283.187065 229.786065 
L 283.440955 228.048181 
L 283.694845 229.593792 
L 283.948736 228.358869 
L 284.202626 229.558781 
L 284.456516 228.28592 
L 284.710406 229.071394 
L 284.964297 228.961954 
L 285.218187 228.244426 
L 285.472077 229.576639 
L 285.725967 229.351413 
L 286.233748 227.954269 
L 286.487638 228.744633 
L 286.741528 228.052307 
L 286.995419 229.304516 
L 287.249309 229.088428 
L 287.503199 228.432604 
L 287.757089 229.885497 
L 288.01098 228.695986 
L 288.26487 229.0989 
L 288.51876 229.083235 
L 288.77265 228.858034 
L 289.026541 229.261321 
L 289.280431 228.567717 
L 289.534321 228.893825 
L 289.788212 228.681271 
L 290.042102 229.22853 
L 290.295992 229.451147 
L 290.549882 228.681065 
L 290.803773 229.365624 
L 291.057663 229.164553 
L 291.565443 228.186615 
L 291.819334 228.165631 
L 292.073224 227.356242 
L 292.581004 228.893569 
L 292.834895 228.679347 
L 293.088785 229.011752 
L 293.342675 227.592558 
L 293.596565 228.672501 
L 293.850456 228.45079 
L 294.104346 228.886168 
L 294.358236 227.957682 
L 294.612126 229.719716 
L 294.866017 228.978456 
L 295.373797 228.779675 
L 295.627687 229.906935 
L 295.881578 228.704033 
L 296.135468 229.333804 
L 296.389358 229.489163 
L 296.643248 229.172505 
L 296.897139 228.27314 
L 297.151029 229.198597 
L 297.404919 228.337219 
L 297.9127 228.316446 
L 298.16659 229.374249 
L 298.67437 227.65464 
L 299.182151 229.39873 
L 299.436041 228.963423 
L 299.689931 228.120034 
L 299.943822 228.803947 
L 300.197712 229.140614 
L 300.451602 229.152225 
L 300.705492 228.250181 
L 300.959383 229.071236 
L 301.213273 227.972717 
L 301.467163 229.382135 
L 301.974944 227.683295 
L 302.228834 228.745989 
L 302.482724 228.485615 
L 302.736614 229.419556 
L 302.990505 228.324649 
L 303.244395 228.372722 
L 303.498285 228.5687 
L 303.752175 229.139575 
L 304.006066 228.879647 
L 304.259956 229.380386 
L 304.513846 228.557498 
L 304.767736 229.670072 
L 305.021627 227.68501 
L 305.529407 229.054269 
L 305.783298 229.327 
L 306.037188 230.078738 
L 306.291078 229.31992 
L 306.544968 229.833804 
L 307.052749 227.961916 
L 307.306639 229.719684 
L 307.560529 228.539204 
L 307.81442 228.926258 
L 308.06831 228.772547 
L 308.57609 228.314853 
L 308.829981 228.783881 
L 309.083871 228.039178 
L 309.337761 229.662807 
L 309.591651 228.275992 
L 309.845542 229.095345 
L 310.099432 229.410793 
L 310.099432 229.410793 
" clip-path="url(#p09973b0b0b)" style="fill: none; stroke: #0000ff; stroke-width: 0.6; stroke-linecap: square"/>
   </g>
   <g id="line2d_28">
    <path d="M 56.463068 138.289597 
L 56.716958 154.043828 
L 56.970849 147.205288 
L 57.224739 171.707216 
L 57.732519 112.318999 
L 57.98641 183.819338 
L 58.2403 130.452421 
L 58.49419 160.285222 
L 58.74808 176.803815 
L 59.001971 159.092125 
L 59.255861 186.90064 
L 59.509751 177.712204 
L 59.763641 179.541028 
L 60.017532 194.667728 
L 60.271422 191.91173 
L 60.525312 46.498909 
L 60.779202 161.543547 
L 61.033093 69.78138 
L 61.286983 102.554501 
L 61.540873 102.144483 
L 61.794764 198.02428 
L 62.048654 134.448297 
L 62.302544 198.053179 
L 62.556434 199.074662 
L 62.810325 182.423384 
L 63.064215 181.823479 
L 63.571995 49.083705 
L 63.825886 170.248169 
L 64.333666 203.457786 
L 64.587556 190.964283 
L 64.841447 124.837707 
L 65.095337 190.467669 
L 65.349227 202.656676 
L 65.603117 198.74622 
L 65.857008 197.422364 
L 66.110898 202.298388 
L 66.364788 175.414014 
L 66.618678 184.905889 
L 66.872569 149.655106 
L 67.126459 200.987595 
L 67.380349 199.408589 
L 67.88813 143.881915 
L 68.14202 187.417772 
L 68.39591 192.912353 
L 68.6498 204.965347 
L 68.903691 151.335756 
L 69.157581 196.735137 
L 69.411471 170.744361 
L 69.665361 205.294902 
L 69.919252 191.816273 
L 70.173142 198.93522 
L 70.427032 170.026156 
L 70.680922 202.127472 
L 70.934813 187.2161 
L 71.442593 193.078116 
L 71.696483 175.017462 
L 71.950374 199.750816 
L 72.204264 119.105696 
L 72.712044 203.231357 
L 72.965935 203.546256 
L 73.219825 200.743795 
L 73.473715 199.441275 
L 73.727605 203.476761 
L 73.981496 202.27949 
L 74.235386 165.783921 
L 74.489276 159.847409 
L 74.743166 161.193865 
L 74.997057 202.874781 
L 75.250947 173.716449 
L 75.504837 185.06711 
L 75.758727 203.324614 
L 76.012618 195.719964 
L 76.266508 182.176912 
L 76.520398 189.998603 
L 77.028179 179.678109 
L 77.282069 193.754036 
L 77.535959 180.060469 
L 77.78985 157.785221 
L 78.04374 200.055267 
L 78.29763 181.886173 
L 78.55152 176.829047 
L 78.805411 131.602153 
L 79.059301 186.940672 
L 79.313191 184.416902 
L 79.567081 187.527312 
L 79.820972 183.448684 
L 80.074862 198.463846 
L 80.328752 194.287382 
L 80.582642 204.229022 
L 80.836533 200.319348 
L 81.090423 191.801142 
L 81.344313 195.348076 
L 81.598203 97.32255 
L 81.852094 167.538558 
L 82.105984 191.519236 
L 82.359874 203.728302 
L 82.613764 202.560744 
L 82.867655 199.712697 
L 83.121545 202.729951 
L 83.375435 182.106514 
L 83.629325 202.483914 
L 83.883216 197.70363 
L 84.137106 198.837055 
L 84.390996 194.695188 
L 84.644886 197.578395 
L 84.898777 203.114318 
L 85.152667 201.452321 
L 85.406557 196.93548 
L 85.660447 198.224635 
L 85.914338 187.421467 
L 86.422118 202.176554 
L 86.676008 197.475101 
L 86.929899 202.710207 
L 87.183789 190.827524 
L 87.437679 189.919796 
L 87.691569 190.348857 
L 87.94546 201.02845 
L 88.19935 199.315045 
L 88.45324 199.621624 
L 88.70713 172.273608 
L 88.961021 190.173831 
L 89.214911 199.439756 
L 89.468801 191.654165 
L 89.722691 200.62263 
L 89.976582 134.968746 
L 90.230472 195.184993 
L 90.484362 133.609959 
L 90.738252 197.850458 
L 90.992143 186.335114 
L 91.246033 189.738125 
L 91.499923 182.051347 
L 91.753813 201.146157 
L 92.007704 200.765159 
L 92.261594 193.05877 
L 92.515484 194.420515 
L 92.769374 192.859894 
L 93.023265 192.65725 
L 93.277155 199.959834 
L 93.531045 199.303594 
L 93.784936 192.950786 
L 94.038826 182.045078 
L 94.546606 193.167311 
L 94.800497 198.620808 
L 95.054387 188.98104 
L 95.308277 189.262411 
L 95.562167 196.531764 
L 95.816058 200.015416 
L 96.069948 193.060608 
L 96.323838 199.037474 
L 96.577728 199.191584 
L 96.831619 198.800286 
L 97.339399 191.52831 
L 97.593289 200.033923 
L 97.84718 197.61935 
L 98.35496 182.982395 
L 98.60885 200.467219 
L 98.862741 196.601252 
L 99.116631 200.90438 
L 99.370521 199.953439 
L 99.624411 188.517459 
L 100.132192 193.450245 
L 100.386082 186.153681 
L 100.639972 198.749197 
L 100.893863 197.719824 
L 101.147753 195.122985 
L 101.401643 194.309315 
L 101.655533 197.349496 
L 101.909424 194.035846 
L 102.163314 174.101485 
L 102.417204 198.412237 
L 102.671094 154.291702 
L 103.178875 197.121096 
L 103.432765 200.336154 
L 103.686655 197.044662 
L 103.940546 200.613431 
L 104.194436 198.506896 
L 104.448326 167.87134 
L 104.702216 199.71887 
L 104.956107 197.273763 
L 105.209997 198.724743 
L 105.463887 199.083293 
L 105.717777 197.528991 
L 105.971668 200.602052 
L 106.225558 200.34055 
L 106.733338 197.15311 
L 106.987229 188.998048 
L 107.241119 198.006752 
L 107.495009 198.135359 
L 107.748899 187.966447 
L 108.00279 198.545192 
L 108.25668 199.313313 
L 108.76446 193.938269 
L 109.018351 183.237381 
L 109.272241 198.349511 
L 109.526131 198.109244 
L 110.033912 194.613492 
L 110.287802 198.573845 
L 110.541692 196.113885 
L 111.049473 198.484222 
L 111.303363 196.025906 
L 111.557253 197.237071 
L 111.811144 196.282778 
L 112.065034 197.470387 
L 112.318924 197.898247 
L 112.572814 195.583761 
L 112.826705 196.330885 
L 113.334485 196.868999 
L 113.588375 198.932476 
L 113.842266 198.710124 
L 114.350046 196.40576 
L 114.603936 196.491627 
L 114.857827 197.879136 
L 115.111717 196.655923 
L 115.365607 198.822686 
L 115.619497 194.461804 
L 115.873388 194.815205 
L 116.127278 198.502302 
L 116.381168 186.588662 
L 116.635058 197.297774 
L 116.888949 195.989323 
L 117.142839 195.739906 
L 117.396729 198.231049 
L 117.650619 179.609359 
L 117.90451 196.888493 
L 118.1584 186.401221 
L 118.41229 197.981088 
L 118.66618 197.170976 
L 118.920071 198.068108 
L 119.173961 197.797898 
L 119.427851 196.667012 
L 119.935632 197.760981 
L 120.189522 197.482322 
L 120.443412 196.412598 
L 120.697302 196.926394 
L 120.951193 198.091704 
L 121.205083 197.987036 
L 121.458973 197.39066 
L 121.712863 195.623705 
L 121.966754 197.630448 
L 122.474534 198.094879 
L 122.728424 195.871084 
L 122.982315 197.148472 
L 123.236205 194.918084 
L 123.490095 197.115979 
L 123.743985 194.197002 
L 123.997876 196.831054 
L 124.251766 197.885325 
L 124.505656 195.483006 
L 124.759546 198.084664 
L 125.013437 195.078899 
L 125.267327 195.705788 
L 125.521217 194.477442 
L 125.775107 197.027416 
L 126.028998 196.455133 
L 126.282888 195.406285 
L 126.790669 197.112441 
L 127.044559 196.373021 
L 127.298449 194.244437 
L 127.552339 194.867446 
L 127.80623 196.810705 
L 128.06012 196.692687 
L 128.31401 197.381884 
L 128.5679 196.992295 
L 128.821791 197.504206 
L 129.329571 195.260275 
L 129.583461 196.072752 
L 129.837352 197.554908 
L 130.091242 194.075402 
L 130.345132 197.120814 
L 130.599022 194.686453 
L 130.852913 195.81698 
L 131.106803 195.728833 
L 131.360693 196.549719 
L 131.614583 197.943949 
L 132.122364 197.004033 
L 132.376254 197.224628 
L 132.630144 197.229076 
L 132.884035 194.536123 
L 133.137925 196.748092 
L 133.391815 196.921885 
L 133.645705 196.587938 
L 133.899596 196.748737 
L 134.153486 197.760368 
L 134.407376 197.61111 
L 134.661266 197.292157 
L 134.915157 197.696051 
L 135.169047 196.527844 
L 135.422937 196.187192 
L 135.676827 194.822547 
L 135.930718 197.003453 
L 136.184608 196.927534 
L 136.438498 197.174587 
L 136.692388 196.964508 
L 136.946279 197.060675 
L 137.454059 196.457736 
L 137.707949 194.867934 
L 137.96184 196.961164 
L 138.21573 196.949039 
L 138.72351 197.261888 
L 138.977401 196.827194 
L 139.231291 194.378141 
L 139.485181 196.506053 
L 139.739071 197.239722 
L 140.246852 196.930778 
L 140.500742 197.219333 
L 140.754632 196.212944 
L 141.008523 196.755861 
L 141.262413 195.766588 
L 141.516303 195.773181 
L 141.770193 196.423582 
L 142.277974 196.845181 
L 142.531864 194.699339 
L 142.785755 196.568758 
L 143.039645 196.917985 
L 143.293535 196.479523 
L 143.547425 195.775933 
L 143.801316 197.196813 
L 144.055206 197.128961 
L 144.562986 196.345391 
L 144.816877 196.662479 
L 145.070767 196.766789 
L 145.324657 197.321556 
L 145.832438 195.916874 
L 146.086328 196.646172 
L 146.340218 196.64944 
L 146.594108 196.925113 
L 146.847999 196.415781 
L 147.101889 196.933615 
L 147.355779 196.654694 
L 147.609669 197.20853 
L 148.11745 196.643952 
L 148.37134 197.425277 
L 148.62523 196.364833 
L 148.879121 197.018857 
L 149.133011 196.879459 
L 149.386901 197.296396 
L 149.640791 196.706001 
L 149.894682 196.693868 
L 150.148572 196.45118 
L 150.402462 197.156716 
L 150.656352 196.954987 
L 150.910243 196.55941 
L 151.164133 196.587818 
L 151.418023 196.92745 
L 151.671913 196.763577 
L 151.925804 196.827867 
L 152.179694 196.610262 
L 152.687474 195.622827 
L 152.941365 196.825046 
L 153.195255 196.674398 
L 153.449145 196.245457 
L 153.703035 196.499513 
L 153.956926 196.474627 
L 154.210816 196.805467 
L 154.464706 196.71489 
L 154.718596 196.174906 
L 154.972487 196.785191 
L 155.480267 196.720337 
L 155.988048 196.468232 
L 156.241938 196.846817 
L 156.495828 196.314743 
L 156.749718 196.356919 
L 157.003609 195.294457 
L 157.257499 196.663708 
L 157.511389 195.673344 
L 157.765279 195.969019 
L 158.27306 196.009905 
L 158.52695 196.479833 
L 159.034731 196.497659 
L 159.288621 196.084422 
L 159.542511 196.415358 
L 159.796402 196.227321 
L 160.304182 196.302546 
L 160.558072 196.665118 
L 160.811963 196.285055 
L 161.573633 196.772047 
L 161.827524 196.440736 
L 162.081414 196.668745 
L 162.589194 196.679012 
L 162.843085 196.644814 
L 163.096975 196.72483 
L 163.350865 196.57423 
L 163.604755 196.594958 
L 163.858646 196.481997 
L 164.112536 196.516694 
L 164.366426 196.786928 
L 164.620316 196.607908 
L 164.874207 196.291639 
L 165.128097 196.641723 
L 165.635877 196.109513 
L 166.143658 196.663502 
L 166.397548 196.655435 
L 166.651438 196.868951 
L 167.159219 196.505827 
L 167.413109 196.780102 
L 167.92089 196.3324 
L 168.17478 196.679664 
L 168.42867 196.355626 
L 168.68256 197.036643 
L 168.936451 196.751501 
L 169.190341 196.801837 
L 169.444231 196.404789 
L 169.698121 196.717331 
L 169.952012 196.39748 
L 170.205902 196.318978 
L 170.459792 196.690105 
L 170.967573 196.162238 
L 171.221463 196.57118 
L 172.490914 196.799133 
L 172.744804 196.566353 
L 172.998695 196.743152 
L 173.252585 196.556964 
L 174.522036 196.745924 
L 174.775926 196.441582 
L 175.029817 196.542845 
L 175.283707 196.465952 
L 175.537597 196.605958 
L 175.791488 196.559289 
L 176.299268 196.869527 
L 177.82261 196.545493 
L 178.0765 196.558052 
L 178.58428 196.282278 
L 178.838171 196.285365 
L 179.599841 196.723025 
L 179.853732 196.665287 
L 180.107622 196.439801 
L 180.361512 196.621903 
L 180.869293 196.625529 
L 181.123183 196.393478 
L 181.377073 196.622777 
L 181.884854 196.679588 
L 182.646524 196.366755 
L 182.900415 196.364656 
L 183.408195 196.527062 
L 183.662085 196.420592 
L 184.169866 196.597138 
L 184.677646 196.509103 
L 185.185427 196.249753 
L 185.439317 196.531845 
L 186.200988 196.764858 
L 186.708768 196.480909 
L 186.962659 196.598218 
L 187.97822 196.451103 
L 188.23211 196.64244 
L 188.73989 196.56707 
L 188.993781 196.634108 
L 189.247671 196.584796 
L 189.501561 196.382925 
L 189.755451 196.439333 
L 190.009342 196.228272 
L 190.771012 196.484406 
L 191.278793 196.250563 
L 191.532683 196.469494 
L 191.786574 196.413275 
L 192.040464 196.53087 
L 192.548244 196.414987 
L 192.802135 196.450749 
L 193.056025 196.319962 
L 193.817696 196.418271 
L 194.071586 196.190371 
L 195.341037 196.422861 
L 195.848818 196.517351 
L 196.102708 196.397866 
L 196.356598 196.561949 
L 196.610488 196.500806 
L 196.864379 196.298735 
L 197.118269 196.384714 
L 197.372159 196.326026 
L 197.626049 196.540569 
L 197.87994 196.389139 
L 200.164952 196.31976 
L 201.180513 196.252606 
L 201.688293 196.383695 
L 201.942184 196.465299 
L 202.196074 196.395046 
L 202.449964 196.508889 
L 202.703854 196.495572 
L 202.957745 196.361175 
L 207.78166 196.510009 
L 208.03555 196.393615 
L 210.574452 196.408242 
L 211.082233 196.418824 
L 211.336123 196.52823 
L 211.843904 196.492312 
L 212.351684 196.533739 
L 213.113355 196.475598 
L 213.367245 196.568492 
L 214.636696 196.363814 
L 215.144477 196.597516 
L 216.160038 196.414472 
L 216.413928 196.480989 
L 216.921709 196.399478 
L 217.429489 196.388232 
L 217.93727 196.421052 
L 218.19116 196.288415 
L 218.44505 196.379641 
L 218.69894 196.30145 
L 218.952831 196.420504 
L 219.206721 196.258235 
L 219.714501 196.464126 
L 219.968392 196.523262 
L 220.730062 196.395308 
L 221.999514 196.531124 
L 222.253404 196.377788 
L 223.015075 196.458477 
L 223.522855 196.411454 
L 223.776745 196.497635 
L 224.284526 196.376112 
L 224.538416 196.45145 
L 224.792307 196.409435 
L 225.300087 196.527324 
L 226.061758 196.336917 
L 226.315648 196.226608 
L 227.077319 196.360562 
L 227.83899 196.481795 
L 228.09288 196.523141 
L 228.854551 196.372328 
L 229.616221 196.46548 
L 230.885673 196.326884 
L 231.139563 196.427342 
L 231.901234 196.250668 
L 232.409014 196.372284 
L 233.170685 196.456031 
L 233.424575 196.376329 
L 234.186246 196.560075 
L 234.694026 196.504989 
L 234.947917 196.533388 
L 235.201807 196.403383 
L 235.709587 196.633531 
L 235.963478 196.455427 
L 237.232929 196.492385 
L 237.740709 196.394224 
L 238.24849 196.547906 
L 239.010161 196.290841 
L 240.025722 196.416736 
L 241.802954 196.447263 
L 244.595746 196.480035 
L 244.849637 196.646579 
L 245.865198 196.421797 
L 246.119088 196.511653 
L 246.372978 196.410628 
L 246.626868 196.546057 
L 246.880759 196.434986 
L 247.642429 196.522706 
L 248.15021 196.315642 
L 248.911881 196.436581 
L 249.673551 196.359752 
L 249.927442 196.475207 
L 251.450783 196.437556 
L 251.704673 196.298251 
L 252.212454 196.340165 
L 255.259137 196.457147 
L 256.274698 196.475292 
L 257.036369 196.559285 
L 257.544149 196.45535 
L 257.79804 196.517226 
L 258.30582 196.429413 
L 259.067491 196.482843 
L 259.321381 196.410954 
L 259.575271 196.500536 
L 260.083052 196.262397 
L 260.336942 196.43746 
L 260.590832 196.303566 
L 261.098613 196.375366 
L 261.352503 196.503881 
L 262.114174 196.373533 
L 262.621954 196.510839 
L 262.875845 196.381322 
L 263.129735 196.513108 
L 263.891406 196.343929 
L 264.145296 196.437931 
L 264.399186 196.255829 
L 264.653076 196.424944 
L 265.922528 196.561634 
L 266.430308 196.504179 
L 266.684198 196.603375 
L 266.938089 196.48103 
L 269.476991 196.555026 
L 269.730881 196.41884 
L 269.984772 196.618139 
L 271.254223 196.392411 
L 271.762003 196.610886 
L 273.793126 196.341547 
L 274.047016 196.439378 
L 274.554796 196.35455 
L 275.062577 196.391431 
L 276.078138 196.418247 
L 276.332028 196.315062 
L 276.585918 196.444757 
L 278.36315 196.394067 
L 278.870931 196.477113 
L 279.632601 196.274667 
L 280.140382 196.448895 
L 280.902053 196.4977 
L 281.155943 196.385863 
L 283.187065 196.516025 
L 283.694845 196.432943 
L 284.202626 196.508555 
L 284.710406 196.386254 
L 285.725967 196.407215 
L 286.233748 196.295414 
L 287.249309 196.408915 
L 287.503199 196.34309 
L 287.757089 196.393309 
L 288.01098 196.263288 
L 288.77265 196.473547 
L 289.788212 196.436114 
L 290.803773 196.352217 
L 291.311553 196.405937 
L 291.565443 196.527348 
L 291.819334 196.387761 
L 292.073224 196.474893 
L 292.327114 196.368045 
L 292.581004 196.383211 
L 292.834895 196.581407 
L 293.596565 196.463171 
L 295.881578 196.367319 
L 296.135468 196.538082 
L 299.436041 196.350698 
L 299.689931 196.282117 
L 300.705492 196.568625 
L 300.959383 196.416285 
L 301.467163 196.421781 
L 301.721053 196.514514 
L 301.974944 196.401916 
L 302.228834 196.540508 
L 302.990505 196.321892 
L 303.752175 196.406675 
L 304.259956 196.432233 
L 304.513846 196.496257 
L 304.767736 196.360123 
L 305.021627 196.4715 
L 305.275517 196.363826 
L 306.291078 196.336442 
L 307.052749 196.373867 
L 307.306639 196.439462 
L 308.06831 196.329632 
L 308.3222 196.469228 
L 309.845542 196.365623 
L 310.099432 196.52429 
L 310.099432 196.52429 
" clip-path="url(#p09973b0b0b)" style="fill: none; stroke: #ff0000; stroke-width: 0.6; stroke-linecap: square"/>
   </g>
   <g id="patch_3">
    <path d="M 43.78125 239.76 
L 43.78125 37.296 
" style="fill: none; stroke: #000000; stroke-width: 0.8; stroke-linejoin: miter; stroke-linecap: square"/>
   </g>
   <g id="patch_4">
    <path d="M 322.78125 239.76 
L 322.78125 37.296 
" style="fill: none; stroke: #000000; stroke-width: 0.8; stroke-linejoin: miter; stroke-linecap: square"/>
   </g>
   <g id="patch_5">
    <path d="M 43.78125 239.76 
L 322.78125 239.76 
" style="fill: none; stroke: #000000; stroke-width: 0.8; stroke-linejoin: miter; stroke-linecap: square"/>
   </g>
   <g id="patch_6">
    <path d="M 43.78125 37.296 
L 322.78125 37.296 
" style="fill: none; stroke: #000000; stroke-width: 0.8; stroke-linejoin: miter; stroke-linecap: square"/>
   </g>
   <g id="text_16">
    <!-- Quantized-16 Model -->
    <g transform="translate(137.983828 31.296) scale(0.09 -0.09)">
     <defs>
      <path id="DejaVuSans-51" d="M 2522 4238 
Q 1834 4238 1429 3725 
Q 1025 3213 1025 2328 
Q 1025 1447 1429 934 
Q 1834 422 2522 422 
Q 3209 422 3611 934 
Q 4013 1447 4013 2328 
Q 4013 3213 3611 3725 
Q 3209 4238 2522 4238 
z
M 3406 84 
L 4238 -825 
L 3475 -825 
L 2784 -78 
Q 2681 -84 2626 -87 
Q 2572 -91 2522 -91 
Q 1538 -91 948 567 
Q 359 1225 359 2328 
Q 359 3434 948 4092 
Q 1538 4750 2522 4750 
Q 3503 4750 4090 4092 
Q 4678 3434 4678 2328 
Q 4678 1516 4351 937 
Q 4025 359 3406 84 
z
" transform="scale(0.015625)"/>
      <path id="DejaVuSans-75" d="M 544 1381 
L 544 3500 
L 1119 3500 
L 1119 1403 
Q 1119 906 1312 657 
Q 1506 409 1894 409 
Q 2359 409 2629 706 
Q 2900 1003 2900 1516 
L 2900 3500 
L 3475 3500 
L 3475 0 
L 2900 0 
L 2900 538 
Q 2691 219 2414 64 
Q 2138 -91 1772 -91 
Q 1169 -91 856 284 
Q 544 659 544 1381 
z
M 1991 3584 
L 1991 3584 
z
" transform="scale(0.015625)"/>
      <path id="DejaVuSans-61" d="M 2194 1759 
Q 1497 1759 1228 1600 
Q 959 1441 959 1056 
Q 959 750 1161 570 
Q 1363 391 1709 391 
Q 2188 391 2477 730 
Q 2766 1069 2766 1631 
L 2766 1759 
L 2194 1759 
z
M 3341 1997 
L 3341 0 
L 2766 0 
L 2766 531 
Q 2569 213 2275 61 
Q 1981 -91 1556 -91 
Q 1019 -91 701 211 
Q 384 513 384 1019 
Q 384 1609 779 1909 
Q 1175 2209 1959 2209 
L 2766 2209 
L 2766 2266 
Q 2766 2663 2505 2880 
Q 2244 3097 1772 3097 
Q 1472 3097 1187 3025 
Q 903 2953 641 2809 
L 641 3341 
Q 956 3463 1253 3523 
Q 1550 3584 1831 3584 
Q 2591 3584 2966 3190 
Q 3341 2797 3341 1997 
z
" transform="scale(0.015625)"/>
      <path id="DejaVuSans-6e" d="M 3513 2113 
L 3513 0 
L 2938 0 
L 2938 2094 
Q 2938 2591 2744 2837 
Q 2550 3084 2163 3084 
Q 1697 3084 1428 2787 
Q 1159 2491 1159 1978 
L 1159 0 
L 581 0 
L 581 3500 
L 1159 3500 
L 1159 2956 
Q 1366 3272 1645 3428 
Q 1925 3584 2291 3584 
Q 2894 3584 3203 3211 
Q 3513 2838 3513 2113 
z
" transform="scale(0.015625)"/>
      <path id="DejaVuSans-74" d="M 1172 4494 
L 1172 3500 
L 2356 3500 
L 2356 3053 
L 1172 3053 
L 1172 1153 
Q 1172 725 1289 603 
Q 1406 481 1766 481 
L 2356 481 
L 2356 0 
L 1766 0 
Q 1100 0 847 248 
Q 594 497 594 1153 
L 594 3053 
L 172 3053 
L 172 3500 
L 594 3500 
L 594 4494 
L 1172 4494 
z
" transform="scale(0.015625)"/>
      <path id="DejaVuSans-69" d="M 603 3500 
L 1178 3500 
L 1178 0 
L 603 0 
L 603 3500 
z
M 603 4863 
L 1178 4863 
L 1178 4134 
L 603 4134 
L 603 4863 
z
" transform="scale(0.015625)"/>
      <path id="DejaVuSans-7a" d="M 353 3500 
L 3084 3500 
L 3084 2975 
L 922 459 
L 3084 459 
L 3084 0 
L 275 0 
L 275 525 
L 2438 3041 
L 353 3041 
L 353 3500 
z
" transform="scale(0.015625)"/>
      <path id="DejaVuSans-65" d="M 3597 1894 
L 3597 1613 
L 953 1613 
Q 991 1019 1311 708 
Q 1631 397 2203 397 
Q 2534 397 2845 478 
Q 3156 559 3463 722 
L 3463 178 
Q 3153 47 2828 -22 
Q 2503 -91 2169 -91 
Q 1331 -91 842 396 
Q 353 884 353 1716 
Q 353 2575 817 3079 
Q 1281 3584 2069 3584 
Q 2775 3584 3186 3129 
Q 3597 2675 3597 1894 
z
M 3022 2063 
Q 3016 2534 2758 2815 
Q 2500 3097 2075 3097 
Q 1594 3097 1305 2825 
Q 1016 2553 972 2059 
L 3022 2063 
z
" transform="scale(0.015625)"/>
      <path id="DejaVuSans-64" d="M 2906 2969 
L 2906 4863 
L 3481 4863 
L 3481 0 
L 2906 0 
L 2906 525 
Q 2725 213 2448 61 
Q 2172 -91 1784 -91 
Q 1150 -91 751 415 
Q 353 922 353 1747 
Q 353 2572 751 3078 
Q 1150 3584 1784 3584 
Q 2172 3584 2448 3432 
Q 2725 3281 2906 2969 
z
M 947 1747 
Q 947 1113 1208 752 
Q 1469 391 1925 391 
Q 2381 391 2643 752 
Q 2906 1113 2906 1747 
Q 2906 2381 2643 2742 
Q 2381 3103 1925 3103 
Q 1469 3103 1208 2742 
Q 947 2381 947 1747 
z
" transform="scale(0.015625)"/>
      <path id="DejaVuSans-2d" d="M 313 2009 
L 1997 2009 
L 1997 1497 
L 313 1497 
L 313 2009 
z
" transform="scale(0.015625)"/>
      <path id="DejaVuSans-20" transform="scale(0.015625)"/>
      <path id="DejaVuSans-4d" d="M 628 4666 
L 1569 4666 
L 2759 1491 
L 3956 4666 
L 4897 4666 
L 4897 0 
L 4281 0 
L 4281 4097 
L 3078 897 
L 2444 897 
L 1241 4097 
L 1241 0 
L 628 0 
L 628 4666 
z
" transform="scale(0.015625)"/>
      <path id="DejaVuSans-6c" d="M 603 4863 
L 1178 4863 
L 1178 0 
L 603 0 
L 603 4863 
z
" transform="scale(0.015625)"/>
     </defs>
     <use xlink:href="#DejaVuSans-51"/>
     <use xlink:href="#DejaVuSans-75" x="78.710938"/>
     <use xlink:href="#DejaVuSans-61" x="142.089844"/>
     <use xlink:href="#DejaVuSans-6e" x="203.369141"/>
     <use xlink:href="#DejaVuSans-74" x="266.748047"/>
     <use xlink:href="#DejaVuSans-69" x="305.957031"/>
     <use xlink:href="#DejaVuSans-7a" x="333.740234"/>
     <use xlink:href="#DejaVuSans-65" x="386.230469"/>
     <use xlink:href="#DejaVuSans-64" x="447.753906"/>
     <use xlink:href="#DejaVuSans-2d" x="511.230469"/>
     <use xlink:href="#DejaVuSans-31" x="547.314453"/>
     <use xlink:href="#DejaVuSans-36" x="610.9375"/>
     <use xlink:href="#DejaVuSans-20" x="674.560547"/>
     <use xlink:href="#DejaVuSans-4d" x="706.347656"/>
     <use xlink:href="#DejaVuSans-6f" x="792.626953"/>
     <use xlink:href="#DejaVuSans-64" x="853.808594"/>
     <use xlink:href="#DejaVuSans-65" x="917.285156"/>
     <use xlink:href="#DejaVuSans-6c" x="978.808594"/>
    </g>
   </g>
   <g id="legend_1">
    <g id="patch_7">
     <path d="M 209.2875 74.65225 
L 315.78125 74.65225 
Q 317.78125 74.65225 317.78125 72.65225 
L 317.78125 44.296 
Q 317.78125 42.296 315.78125 42.296 
L 209.2875 42.296 
Q 207.2875 42.296 207.2875 44.296 
L 207.2875 72.65225 
Q 207.2875 74.65225 209.2875 74.65225 
z
" style="fill: #ffffff; opacity: 0.8; stroke: #cccccc; stroke-linejoin: miter"/>
    </g>
    <g id="line2d_29">
     <path d="M 211.2875 50.394438 
L 221.2875 50.394438 
L 231.2875 50.394438 
" style="fill: none; stroke: #0000ff; stroke-width: 0.6; stroke-linecap: square"/>
    </g>
    <g id="text_17">
     <!-- Training Loss -->
     <g transform="translate(239.2875 53.894438) scale(0.1 -0.1)">
      <defs>
       <path id="DejaVuSans-54" d="M -19 4666 
L 3928 4666 
L 3928 4134 
L 2272 4134 
L 2272 0 
L 1638 0 
L 1638 4134 
L -19 4134 
L -19 4666 
z
" transform="scale(0.015625)"/>
       <path id="DejaVuSans-72" d="M 2631 2963 
Q 2534 3019 2420 3045 
Q 2306 3072 2169 3072 
Q 1681 3072 1420 2755 
Q 1159 2438 1159 1844 
L 1159 0 
L 581 0 
L 581 3500 
L 1159 3500 
L 1159 2956 
Q 1341 3275 1631 3429 
Q 1922 3584 2338 3584 
Q 2397 3584 2469 3576 
Q 2541 3569 2628 3553 
L 2631 2963 
z
" transform="scale(0.015625)"/>
       <path id="DejaVuSans-67" d="M 2906 1791 
Q 2906 2416 2648 2759 
Q 2391 3103 1925 3103 
Q 1463 3103 1205 2759 
Q 947 2416 947 1791 
Q 947 1169 1205 825 
Q 1463 481 1925 481 
Q 2391 481 2648 825 
Q 2906 1169 2906 1791 
z
M 3481 434 
Q 3481 -459 3084 -895 
Q 2688 -1331 1869 -1331 
Q 1566 -1331 1297 -1286 
Q 1028 -1241 775 -1147 
L 775 -588 
Q 1028 -725 1275 -790 
Q 1522 -856 1778 -856 
Q 2344 -856 2625 -561 
Q 2906 -266 2906 331 
L 2906 616 
Q 2728 306 2450 153 
Q 2172 0 1784 0 
Q 1141 0 747 490 
Q 353 981 353 1791 
Q 353 2603 747 3093 
Q 1141 3584 1784 3584 
Q 2172 3584 2450 3431 
Q 2728 3278 2906 2969 
L 2906 3500 
L 3481 3500 
L 3481 434 
z
" transform="scale(0.015625)"/>
      </defs>
      <use xlink:href="#DejaVuSans-54"/>
      <use xlink:href="#DejaVuSans-72" x="46.333984"/>
      <use xlink:href="#DejaVuSans-61" x="87.447266"/>
      <use xlink:href="#DejaVuSans-69" x="148.726562"/>
      <use xlink:href="#DejaVuSans-6e" x="176.509766"/>
      <use xlink:href="#DejaVuSans-69" x="239.888672"/>
      <use xlink:href="#DejaVuSans-6e" x="267.671875"/>
      <use xlink:href="#DejaVuSans-67" x="331.050781"/>
      <use xlink:href="#DejaVuSans-20" x="394.527344"/>
      <use xlink:href="#DejaVuSans-4c" x="426.314453"/>
      <use xlink:href="#DejaVuSans-6f" x="480.277344"/>
      <use xlink:href="#DejaVuSans-73" x="541.458984"/>
      <use xlink:href="#DejaVuSans-73" x="593.558594"/>
     </g>
    </g>
    <g id="line2d_30">
     <path d="M 211.2875 65.072563 
L 221.2875 65.072563 
L 231.2875 65.072563 
" style="fill: none; stroke: #ff0000; stroke-width: 0.6; stroke-linecap: square"/>
    </g>
    <g id="text_18">
     <!-- Validation Loss -->
     <g transform="translate(239.2875 68.572563) scale(0.1 -0.1)">
      <defs>
       <path id="DejaVuSans-56" d="M 1831 0 
L 50 4666 
L 709 4666 
L 2188 738 
L 3669 4666 
L 4325 4666 
L 2547 0 
L 1831 0 
z
" transform="scale(0.015625)"/>
      </defs>
      <use xlink:href="#DejaVuSans-56"/>
      <use xlink:href="#DejaVuSans-61" x="60.658203"/>
      <use xlink:href="#DejaVuSans-6c" x="121.9375"/>
      <use xlink:href="#DejaVuSans-69" x="149.720703"/>
      <use xlink:href="#DejaVuSans-64" x="177.503906"/>
      <use xlink:href="#DejaVuSans-61" x="240.980469"/>
      <use xlink:href="#DejaVuSans-74" x="302.259766"/>
      <use xlink:href="#DejaVuSans-69" x="341.46875"/>
      <use xlink:href="#DejaVuSans-6f" x="369.251953"/>
      <use xlink:href="#DejaVuSans-6e" x="430.433594"/>
      <use xlink:href="#DejaVuSans-20" x="493.8125"/>
      <use xlink:href="#DejaVuSans-4c" x="525.599609"/>
      <use xlink:href="#DejaVuSans-6f" x="579.5625"/>
      <use xlink:href="#DejaVuSans-73" x="640.744141"/>
      <use xlink:href="#DejaVuSans-73" x="692.84375"/>
     </g>
    </g>
   </g>
  </g>
  <g id="text_19">
   <!-- Training VS. Validation Loss - Dataset Size = 100.0% -->
   <g transform="translate(34.481016 15.558281) scale(0.11 -0.11)">
    <defs>
     <path id="DejaVuSans-53" d="M 3425 4513 
L 3425 3897 
Q 3066 4069 2747 4153 
Q 2428 4238 2131 4238 
Q 1616 4238 1336 4038 
Q 1056 3838 1056 3469 
Q 1056 3159 1242 3001 
Q 1428 2844 1947 2747 
L 2328 2669 
Q 3034 2534 3370 2195 
Q 3706 1856 3706 1288 
Q 3706 609 3251 259 
Q 2797 -91 1919 -91 
Q 1588 -91 1214 -16 
Q 841 59 441 206 
L 441 856 
Q 825 641 1194 531 
Q 1563 422 1919 422 
Q 2459 422 2753 634 
Q 3047 847 3047 1241 
Q 3047 1584 2836 1778 
Q 2625 1972 2144 2069 
L 1759 2144 
Q 1053 2284 737 2584 
Q 422 2884 422 3419 
Q 422 4038 858 4394 
Q 1294 4750 2059 4750 
Q 2388 4750 2728 4690 
Q 3069 4631 3425 4513 
z
" transform="scale(0.015625)"/>
     <path id="DejaVuSans-44" d="M 1259 4147 
L 1259 519 
L 2022 519 
Q 2988 519 3436 956 
Q 3884 1394 3884 2338 
Q 3884 3275 3436 3711 
Q 2988 4147 2022 4147 
L 1259 4147 
z
M 628 4666 
L 1925 4666 
Q 3281 4666 3915 4102 
Q 4550 3538 4550 2338 
Q 4550 1131 3912 565 
Q 3275 0 1925 0 
L 628 0 
L 628 4666 
z
" transform="scale(0.015625)"/>
     <path id="DejaVuSans-3d" d="M 678 2906 
L 4684 2906 
L 4684 2381 
L 678 2381 
L 678 2906 
z
M 678 1631 
L 4684 1631 
L 4684 1100 
L 678 1100 
L 678 1631 
z
" transform="scale(0.015625)"/>
     <path id="DejaVuSans-25" d="M 4653 2053 
Q 4381 2053 4226 1822 
Q 4072 1591 4072 1178 
Q 4072 772 4226 539 
Q 4381 306 4653 306 
Q 4919 306 5073 539 
Q 5228 772 5228 1178 
Q 5228 1588 5073 1820 
Q 4919 2053 4653 2053 
z
M 4653 2450 
Q 5147 2450 5437 2106 
Q 5728 1763 5728 1178 
Q 5728 594 5436 251 
Q 5144 -91 4653 -91 
Q 4153 -91 3862 251 
Q 3572 594 3572 1178 
Q 3572 1766 3864 2108 
Q 4156 2450 4653 2450 
z
M 1428 4353 
Q 1159 4353 1004 4120 
Q 850 3888 850 3481 
Q 850 3069 1003 2837 
Q 1156 2606 1428 2606 
Q 1700 2606 1854 2837 
Q 2009 3069 2009 3481 
Q 2009 3884 1853 4118 
Q 1697 4353 1428 4353 
z
M 4250 4750 
L 4750 4750 
L 1831 -91 
L 1331 -91 
L 4250 4750 
z
M 1428 4750 
Q 1922 4750 2215 4408 
Q 2509 4066 2509 3481 
Q 2509 2891 2217 2550 
Q 1925 2209 1428 2209 
Q 931 2209 642 2551 
Q 353 2894 353 3481 
Q 353 4063 643 4406 
Q 934 4750 1428 4750 
z
" transform="scale(0.015625)"/>
    </defs>
    <use xlink:href="#DejaVuSans-54"/>
    <use xlink:href="#DejaVuSans-72" x="46.333984"/>
    <use xlink:href="#DejaVuSans-61" x="87.447266"/>
    <use xlink:href="#DejaVuSans-69" x="148.726562"/>
    <use xlink:href="#DejaVuSans-6e" x="176.509766"/>
    <use xlink:href="#DejaVuSans-69" x="239.888672"/>
    <use xlink:href="#DejaVuSans-6e" x="267.671875"/>
    <use xlink:href="#DejaVuSans-67" x="331.050781"/>
    <use xlink:href="#DejaVuSans-20" x="394.527344"/>
    <use xlink:href="#DejaVuSans-56" x="426.314453"/>
    <use xlink:href="#DejaVuSans-53" x="494.722656"/>
    <use xlink:href="#DejaVuSans-2e" x="558.199219"/>
    <use xlink:href="#DejaVuSans-20" x="589.986328"/>
    <use xlink:href="#DejaVuSans-56" x="621.773438"/>
    <use xlink:href="#DejaVuSans-61" x="682.431641"/>
    <use xlink:href="#DejaVuSans-6c" x="743.710938"/>
    <use xlink:href="#DejaVuSans-69" x="771.494141"/>
    <use xlink:href="#DejaVuSans-64" x="799.277344"/>
    <use xlink:href="#DejaVuSans-61" x="862.753906"/>
    <use xlink:href="#DejaVuSans-74" x="924.033203"/>
    <use xlink:href="#DejaVuSans-69" x="963.242188"/>
    <use xlink:href="#DejaVuSans-6f" x="991.025391"/>
    <use xlink:href="#DejaVuSans-6e" x="1052.207031"/>
    <use xlink:href="#DejaVuSans-20" x="1115.585938"/>
    <use xlink:href="#DejaVuSans-4c" x="1147.373047"/>
    <use xlink:href="#DejaVuSans-6f" x="1201.335938"/>
    <use xlink:href="#DejaVuSans-73" x="1262.517578"/>
    <use xlink:href="#DejaVuSans-73" x="1314.617188"/>
    <use xlink:href="#DejaVuSans-20" x="1366.716797"/>
    <use xlink:href="#DejaVuSans-2d" x="1398.503906"/>
    <use xlink:href="#DejaVuSans-20" x="1434.587891"/>
    <use xlink:href="#DejaVuSans-44" x="1466.375"/>
    <use xlink:href="#DejaVuSans-61" x="1543.376953"/>
    <use xlink:href="#DejaVuSans-74" x="1604.65625"/>
    <use xlink:href="#DejaVuSans-61" x="1643.865234"/>
    <use xlink:href="#DejaVuSans-73" x="1705.144531"/>
    <use xlink:href="#DejaVuSans-65" x="1757.244141"/>
    <use xlink:href="#DejaVuSans-74" x="1818.767578"/>
    <use xlink:href="#DejaVuSans-20" x="1857.976562"/>
    <use xlink:href="#DejaVuSans-53" x="1889.763672"/>
    <use xlink:href="#DejaVuSans-69" x="1953.240234"/>
    <use xlink:href="#DejaVuSans-7a" x="1981.023438"/>
    <use xlink:href="#DejaVuSans-65" x="2033.513672"/>
    <use xlink:href="#DejaVuSans-20" x="2095.037109"/>
    <use xlink:href="#DejaVuSans-3d" x="2126.824219"/>
    <use xlink:href="#DejaVuSans-20" x="2210.613281"/>
    <use xlink:href="#DejaVuSans-31" x="2242.400391"/>
    <use xlink:href="#DejaVuSans-30" x="2306.023438"/>
    <use xlink:href="#DejaVuSans-30" x="2369.646484"/>
    <use xlink:href="#DejaVuSans-2e" x="2433.269531"/>
    <use xlink:href="#DejaVuSans-30" x="2465.056641"/>
    <use xlink:href="#DejaVuSans-25" x="2528.679688"/>
   </g>
  </g>
 </g>
 <defs>
  <clipPath id="p09973b0b0b">
   <rect x="43.78125" y="37.296" width="279" height="202.464"/>
  </clipPath>
 </defs>
</svg>
