<?xml version="1.0" encoding="utf-8" standalone="no"?>
<!DOCTYPE svg PUBLIC "-//W3C//DTD SVG 1.1//EN"
  "http://www.w3.org/Graphics/SVG/1.1/DTD/svg11.dtd">
<svg xmlns:xlink="http://www.w3.org/1999/xlink" width="330.281484pt" height="277.31625pt" viewBox="0 0 330.281484 277.31625" xmlns="http://www.w3.org/2000/svg" version="1.1">
 <metadata>
  <rdf:RDF xmlns:dc="http://purl.org/dc/elements/1.1/" xmlns:cc="http://creativecommons.org/ns#" xmlns:rdf="http://www.w3.org/1999/02/22-rdf-syntax-ns#">
   <cc:Work>
    <dc:type rdf:resource="http://purl.org/dc/dcmitype/StillImage"/>
    <dc:date>2026-06-11T14:42:01.812723</dc:date>
    <dc:format>image/svg+xml</dc:format>
    <dc:creator>
     <cc:Agent>
      <dc:title>Matplotlib v3.8.4, https://matplotlib.org/</dc:title>
     </cc:Agent>
    </dc:creator>
   </cc:Work>
  </rdf:RDF>
 </metadata>
 <defs>
  <style type="text/css">*{stroke-linejoin: round; stroke-linecap: butt}</style>
 </defs>
 <g id="figure_1">
  <g id="patch_1">
   <path d="M 0 277.31625 
L 330.281484 277.31625 
L 330.281484 0 
L 0 0 
z
" style="fill: #ffffff"/>
  </g>
  <g id="axes_1">
   <g id="patch_2">
    <path d="M 43.78125 239.76 
L 322.78125 239.76 
L 322.78125 37.296 
L 43.78125 37.296 
z
" style="fill: #ffffff"/>
   </g>
   <g id="matplotlib.axis_1">
    <g id="xtick_1">
     <g id="line2d_1">
      <path d="M 56.209178 239.76 
L 56.209178 37.296 
" clip-path="url(#p7e228bae19)" style="fill: none; stroke-dasharray: 2.96,1.28; stroke-dashoffset: 0; stroke: #b0b0b0; stroke-opacity: 0.4; stroke-width: 0.8"/>
     </g>
     <g id="line2d_2">
      <defs>
       <path id="ma06bfea404" d="M 0 0 
L 0 3.5 
" style="stroke: #000000; stroke-width: 0.8"/>
      </defs>
      <g>
       <use xlink:href="#ma06bfea404" x="56.209178" y="239.76" style="stroke: #000000; stroke-width: 0.8"/>
      </g>
     </g>
     <g id="text_1">
      <!-- 0 -->
      <g transform="translate(53.027928 254.358437) scale(0.1 -0.1)">
       <defs>
        <path id="DejaVuSans-30" d="M 2034 4250 
Q 1547 4250 1301 3770 
Q 1056 3291 1056 2328 
Q 1056 1369 1301 889 
Q 1547 409 2034 409 
Q 2525 409 2770 889 
Q 3016 1369 3016 2328 
Q 3016 3291 2770 3770 
Q 2525 4250 2034 4250 
z
M 2034 4750 
Q 2819 4750 3233 4129 
Q 3647 3509 3647 2328 
Q 3647 1150 3233 529 
Q 2819 -91 2034 -91 
Q 1250 -91 836 529 
Q 422 1150 422 2328 
Q 422 3509 836 4129 
Q 1250 4750 2034 4750 
z
" transform="scale(0.015625)"/>
       </defs>
       <use xlink:href="#DejaVuSans-30"/>
      </g>
     </g>
    </g>
    <g id="xtick_2">
     <g id="line2d_3">
      <path d="M 106.987229 239.76 
L 106.987229 37.296 
" clip-path="url(#p7e228bae19)" style="fill: none; stroke-dasharray: 2.96,1.28; stroke-dashoffset: 0; stroke: #b0b0b0; stroke-opacity: 0.4; stroke-width: 0.8"/>
     </g>
     <g id="line2d_4">
      <g>
       <use xlink:href="#ma06bfea404" x="106.987229" y="239.76" style="stroke: #000000; stroke-width: 0.8"/>
      </g>
     </g>
     <g id="text_2">
      <!-- 200 -->
      <g transform="translate(97.443479 254.358437) scale(0.1 -0.1)">
       <defs>
        <path id="DejaVuSans-32" d="M 1228 531 
L 3431 531 
L 3431 0 
L 469 0 
L 469 531 
Q 828 903 1448 1529 
Q 2069 2156 2228 2338 
Q 2531 2678 2651 2914 
Q 2772 3150 2772 3378 
Q 2772 3750 2511 3984 
Q 2250 4219 1831 4219 
Q 1534 4219 1204 4116 
Q 875 4013 500 3803 
L 500 4441 
Q 881 4594 1212 4672 
Q 1544 4750 1819 4750 
Q 2544 4750 2975 4387 
Q 3406 4025 3406 3419 
Q 3406 3131 3298 2873 
Q 3191 2616 2906 2266 
Q 2828 2175 2409 1742 
Q 1991 1309 1228 531 
z
" transform="scale(0.015625)"/>
       </defs>
       <use xlink:href="#DejaVuSans-32"/>
       <use xlink:href="#DejaVuSans-30" x="63.623047"/>
       <use xlink:href="#DejaVuSans-30" x="127.246094"/>
      </g>
     </g>
    </g>
    <g id="xtick_3">
     <g id="line2d_5">
      <path d="M 157.765279 239.76 
L 157.765279 37.296 
" clip-path="url(#p7e228bae19)" style="fill: none; stroke-dasharray: 2.96,1.28; stroke-dashoffset: 0; stroke: #b0b0b0; stroke-opacity: 0.4; stroke-width: 0.8"/>
     </g>
     <g id="line2d_6">
      <g>
       <use xlink:href="#ma06bfea404" x="157.765279" y="239.76" style="stroke: #000000; stroke-width: 0.8"/>
      </g>
     </g>
     <g id="text_3">
      <!-- 400 -->
      <g transform="translate(148.221529 254.358437) scale(0.1 -0.1)">
       <defs>
        <path id="DejaVuSans-34" d="M 2419 4116 
L 825 1625 
L 2419 1625 
L 2419 4116 
z
M 2253 4666 
L 3047 4666 
L 3047 1625 
L 3713 1625 
L 3713 1100 
L 3047 1100 
L 3047 0 
L 2419 0 
L 2419 1100 
L 313 1100 
L 313 1709 
L 2253 4666 
z
" transform="scale(0.015625)"/>
       </defs>
       <use xlink:href="#DejaVuSans-34"/>
       <use xlink:href="#DejaVuSans-30" x="63.623047"/>
       <use xlink:href="#DejaVuSans-30" x="127.246094"/>
      </g>
     </g>
    </g>
    <g id="xtick_4">
     <g id="line2d_7">
      <path d="M 208.54333 239.76 
L 208.54333 37.296 
" clip-path="url(#p7e228bae19)" style="fill: none; stroke-dasharray: 2.96,1.28; stroke-dashoffset: 0; stroke: #b0b0b0; stroke-opacity: 0.4; stroke-width: 0.8"/>
     </g>
     <g id="line2d_8">
      <g>
       <use xlink:href="#ma06bfea404" x="208.54333" y="239.76" style="stroke: #000000; stroke-width: 0.8"/>
      </g>
     </g>
     <g id="text_4">
      <!-- 600 -->
      <g transform="translate(198.99958 254.358437) scale(0.1 -0.1)">
       <defs>
        <path id="DejaVuSans-36" d="M 2113 2584 
Q 1688 2584 1439 2293 
Q 1191 2003 1191 1497 
Q 1191 994 1439 701 
Q 1688 409 2113 409 
Q 2538 409 2786 701 
Q 3034 994 3034 1497 
Q 3034 2003 2786 2293 
Q 2538 2584 2113 2584 
z
M 3366 4563 
L 3366 3988 
Q 3128 4100 2886 4159 
Q 2644 4219 2406 4219 
Q 1781 4219 1451 3797 
Q 1122 3375 1075 2522 
Q 1259 2794 1537 2939 
Q 1816 3084 2150 3084 
Q 2853 3084 3261 2657 
Q 3669 2231 3669 1497 
Q 3669 778 3244 343 
Q 2819 -91 2113 -91 
Q 1303 -91 875 529 
Q 447 1150 447 2328 
Q 447 3434 972 4092 
Q 1497 4750 2381 4750 
Q 2619 4750 2861 4703 
Q 3103 4656 3366 4563 
z
" transform="scale(0.015625)"/>
       </defs>
       <use xlink:href="#DejaVuSans-36"/>
       <use xlink:href="#DejaVuSans-30" x="63.623047"/>
       <use xlink:href="#DejaVuSans-30" x="127.246094"/>
      </g>
     </g>
    </g>
    <g id="xtick_5">
     <g id="line2d_9">
      <path d="M 259.321381 239.76 
L 259.321381 37.296 
" clip-path="url(#p7e228bae19)" style="fill: none; stroke-dasharray: 2.96,1.28; stroke-dashoffset: 0; stroke: #b0b0b0; stroke-opacity: 0.4; stroke-width: 0.8"/>
     </g>
     <g id="line2d_10">
      <g>
       <use xlink:href="#ma06bfea404" x="259.321381" y="239.76" style="stroke: #000000; stroke-width: 0.8"/>
      </g>
     </g>
     <g id="text_5">
      <!-- 800 -->
      <g transform="translate(249.777631 254.358437) scale(0.1 -0.1)">
       <defs>
        <path id="DejaVuSans-38" d="M 2034 2216 
Q 1584 2216 1326 1975 
Q 1069 1734 1069 1313 
Q 1069 891 1326 650 
Q 1584 409 2034 409 
Q 2484 409 2743 651 
Q 3003 894 3003 1313 
Q 3003 1734 2745 1975 
Q 2488 2216 2034 2216 
z
M 1403 2484 
Q 997 2584 770 2862 
Q 544 3141 544 3541 
Q 544 4100 942 4425 
Q 1341 4750 2034 4750 
Q 2731 4750 3128 4425 
Q 3525 4100 3525 3541 
Q 3525 3141 3298 2862 
Q 3072 2584 2669 2484 
Q 3125 2378 3379 2068 
Q 3634 1759 3634 1313 
Q 3634 634 3220 271 
Q 2806 -91 2034 -91 
Q 1263 -91 848 271 
Q 434 634 434 1313 
Q 434 1759 690 2068 
Q 947 2378 1403 2484 
z
M 1172 3481 
Q 1172 3119 1398 2916 
Q 1625 2713 2034 2713 
Q 2441 2713 2670 2916 
Q 2900 3119 2900 3481 
Q 2900 3844 2670 4047 
Q 2441 4250 2034 4250 
Q 1625 4250 1398 4047 
Q 1172 3844 1172 3481 
z
" transform="scale(0.015625)"/>
       </defs>
       <use xlink:href="#DejaVuSans-38"/>
       <use xlink:href="#DejaVuSans-30" x="63.623047"/>
       <use xlink:href="#DejaVuSans-30" x="127.246094"/>
      </g>
     </g>
    </g>
    <g id="xtick_6">
     <g id="line2d_11">
      <path d="M 310.099432 239.76 
L 310.099432 37.296 
" clip-path="url(#p7e228bae19)" style="fill: none; stroke-dasharray: 2.96,1.28; stroke-dashoffset: 0; stroke: #b0b0b0; stroke-opacity: 0.4; stroke-width: 0.8"/>
     </g>
     <g id="line2d_12">
      <g>
       <use xlink:href="#ma06bfea404" x="310.099432" y="239.76" style="stroke: #000000; stroke-width: 0.8"/>
      </g>
     </g>
     <g id="text_6">
      <!-- 1000 -->
      <g transform="translate(297.374432 254.358437) scale(0.1 -0.1)">
       <defs>
        <path id="DejaVuSans-31" d="M 794 531 
L 1825 531 
L 1825 4091 
L 703 3866 
L 703 4441 
L 1819 4666 
L 2450 4666 
L 2450 531 
L 3481 531 
L 3481 0 
L 794 0 
L 794 531 
z
" transform="scale(0.015625)"/>
       </defs>
       <use xlink:href="#DejaVuSans-31"/>
       <use xlink:href="#DejaVuSans-30" x="63.623047"/>
       <use xlink:href="#DejaVuSans-30" x="127.246094"/>
       <use xlink:href="#DejaVuSans-30" x="190.869141"/>
      </g>
     </g>
    </g>
    <g id="text_7">
     <!-- Epochs -->
     <g transform="translate(165.365625 268.036562) scale(0.1 -0.1)">
      <defs>
       <path id="DejaVuSans-45" d="M 628 4666 
L 3578 4666 
L 3578 4134 
L 1259 4134 
L 1259 2753 
L 3481 2753 
L 3481 2222 
L 1259 2222 
L 1259 531 
L 3634 531 
L 3634 0 
L 628 0 
L 628 4666 
z
" transform="scale(0.015625)"/>
       <path id="DejaVuSans-70" d="M 1159 525 
L 1159 -1331 
L 581 -1331 
L 581 3500 
L 1159 3500 
L 1159 2969 
Q 1341 3281 1617 3432 
Q 1894 3584 2278 3584 
Q 2916 3584 3314 3078 
Q 3713 2572 3713 1747 
Q 3713 922 3314 415 
Q 2916 -91 2278 -91 
Q 1894 -91 1617 61 
Q 1341 213 1159 525 
z
M 3116 1747 
Q 3116 2381 2855 2742 
Q 2594 3103 2138 3103 
Q 1681 3103 1420 2742 
Q 1159 2381 1159 1747 
Q 1159 1113 1420 752 
Q 1681 391 2138 391 
Q 2594 391 2855 752 
Q 3116 1113 3116 1747 
z
" transform="scale(0.015625)"/>
       <path id="DejaVuSans-6f" d="M 1959 3097 
Q 1497 3097 1228 2736 
Q 959 2375 959 1747 
Q 959 1119 1226 758 
Q 1494 397 1959 397 
Q 2419 397 2687 759 
Q 2956 1122 2956 1747 
Q 2956 2369 2687 2733 
Q 2419 3097 1959 3097 
z
M 1959 3584 
Q 2709 3584 3137 3096 
Q 3566 2609 3566 1747 
Q 3566 888 3137 398 
Q 2709 -91 1959 -91 
Q 1206 -91 779 398 
Q 353 888 353 1747 
Q 353 2609 779 3096 
Q 1206 3584 1959 3584 
z
" transform="scale(0.015625)"/>
       <path id="DejaVuSans-63" d="M 3122 3366 
L 3122 2828 
Q 2878 2963 2633 3030 
Q 2388 3097 2138 3097 
Q 1578 3097 1268 2742 
Q 959 2388 959 1747 
Q 959 1106 1268 751 
Q 1578 397 2138 397 
Q 2388 397 2633 464 
Q 2878 531 3122 666 
L 3122 134 
Q 2881 22 2623 -34 
Q 2366 -91 2075 -91 
Q 1284 -91 818 406 
Q 353 903 353 1747 
Q 353 2603 823 3093 
Q 1294 3584 2113 3584 
Q 2378 3584 2631 3529 
Q 2884 3475 3122 3366 
z
" transform="scale(0.015625)"/>
       <path id="DejaVuSans-68" d="M 3513 2113 
L 3513 0 
L 2938 0 
L 2938 2094 
Q 2938 2591 2744 2837 
Q 2550 3084 2163 3084 
Q 1697 3084 1428 2787 
Q 1159 2491 1159 1978 
L 1159 0 
L 581 0 
L 581 4863 
L 1159 4863 
L 1159 2956 
Q 1366 3272 1645 3428 
Q 1925 3584 2291 3584 
Q 2894 3584 3203 3211 
Q 3513 2838 3513 2113 
z
" transform="scale(0.015625)"/>
       <path id="DejaVuSans-73" d="M 2834 3397 
L 2834 2853 
Q 2591 2978 2328 3040 
Q 2066 3103 1784 3103 
Q 1356 3103 1142 2972 
Q 928 2841 928 2578 
Q 928 2378 1081 2264 
Q 1234 2150 1697 2047 
L 1894 2003 
Q 2506 1872 2764 1633 
Q 3022 1394 3022 966 
Q 3022 478 2636 193 
Q 2250 -91 1575 -91 
Q 1294 -91 989 -36 
Q 684 19 347 128 
L 347 722 
Q 666 556 975 473 
Q 1284 391 1588 391 
Q 1994 391 2212 530 
Q 2431 669 2431 922 
Q 2431 1156 2273 1281 
Q 2116 1406 1581 1522 
L 1381 1569 
Q 847 1681 609 1914 
Q 372 2147 372 2553 
Q 372 3047 722 3315 
Q 1072 3584 1716 3584 
Q 2034 3584 2315 3537 
Q 2597 3491 2834 3397 
z
" transform="scale(0.015625)"/>
      </defs>
      <use xlink:href="#DejaVuSans-45"/>
      <use xlink:href="#DejaVuSans-70" x="63.183594"/>
      <use xlink:href="#DejaVuSans-6f" x="126.660156"/>
      <use xlink:href="#DejaVuSans-63" x="187.841797"/>
      <use xlink:href="#DejaVuSans-68" x="242.822266"/>
      <use xlink:href="#DejaVuSans-73" x="306.201172"/>
     </g>
    </g>
   </g>
   <g id="matplotlib.axis_2">
    <g id="ytick_1">
     <g id="line2d_13">
      <path d="M 43.78125 235.745775 
L 322.78125 235.745775 
" clip-path="url(#p7e228bae19)" style="fill: none; stroke-dasharray: 2.96,1.28; stroke-dashoffset: 0; stroke: #b0b0b0; stroke-opacity: 0.4; stroke-width: 0.8"/>
     </g>
     <g id="line2d_14">
      <defs>
       <path id="meadb585bd9" d="M 0 0 
L -3.5 0 
" style="stroke: #000000; stroke-width: 0.8"/>
      </defs>
      <g>
       <use xlink:href="#meadb585bd9" x="43.78125" y="235.745775" style="stroke: #000000; stroke-width: 0.8"/>
      </g>
     </g>
     <g id="text_8">
      <!-- 0.0 -->
      <g transform="translate(20.878125 239.544994) scale(0.1 -0.1)">
       <defs>
        <path id="DejaVuSans-2e" d="M 684 794 
L 1344 794 
L 1344 0 
L 684 0 
L 684 794 
z
" transform="scale(0.015625)"/>
       </defs>
       <use xlink:href="#DejaVuSans-30"/>
       <use xlink:href="#DejaVuSans-2e" x="63.623047"/>
       <use xlink:href="#DejaVuSans-30" x="95.410156"/>
      </g>
     </g>
    </g>
    <g id="ytick_2">
     <g id="line2d_15">
      <path d="M 43.78125 203.612941 
L 322.78125 203.612941 
" clip-path="url(#p7e228bae19)" style="fill: none; stroke-dasharray: 2.96,1.28; stroke-dashoffset: 0; stroke: #b0b0b0; stroke-opacity: 0.4; stroke-width: 0.8"/>
     </g>
     <g id="line2d_16">
      <g>
       <use xlink:href="#meadb585bd9" x="43.78125" y="203.612941" style="stroke: #000000; stroke-width: 0.8"/>
      </g>
     </g>
     <g id="text_9">
      <!-- 0.5 -->
      <g transform="translate(20.878125 207.41216) scale(0.1 -0.1)">
       <defs>
        <path id="DejaVuSans-35" d="M 691 4666 
L 3169 4666 
L 3169 4134 
L 1269 4134 
L 1269 2991 
Q 1406 3038 1543 3061 
Q 1681 3084 1819 3084 
Q 2600 3084 3056 2656 
Q 3513 2228 3513 1497 
Q 3513 744 3044 326 
Q 2575 -91 1722 -91 
Q 1428 -91 1123 -41 
Q 819 9 494 109 
L 494 744 
Q 775 591 1075 516 
Q 1375 441 1709 441 
Q 2250 441 2565 725 
Q 2881 1009 2881 1497 
Q 2881 1984 2565 2268 
Q 2250 2553 1709 2553 
Q 1456 2553 1204 2497 
Q 953 2441 691 2322 
L 691 4666 
z
" transform="scale(0.015625)"/>
       </defs>
       <use xlink:href="#DejaVuSans-30"/>
       <use xlink:href="#DejaVuSans-2e" x="63.623047"/>
       <use xlink:href="#DejaVuSans-35" x="95.410156"/>
      </g>
     </g>
    </g>
    <g id="ytick_3">
     <g id="line2d_17">
      <path d="M 43.78125 171.480107 
L 322.78125 171.480107 
" clip-path="url(#p7e228bae19)" style="fill: none; stroke-dasharray: 2.96,1.28; stroke-dashoffset: 0; stroke: #b0b0b0; stroke-opacity: 0.4; stroke-width: 0.8"/>
     </g>
     <g id="line2d_18">
      <g>
       <use xlink:href="#meadb585bd9" x="43.78125" y="171.480107" style="stroke: #000000; stroke-width: 0.8"/>
      </g>
     </g>
     <g id="text_10">
      <!-- 1.0 -->
      <g transform="translate(20.878125 175.279326) scale(0.1 -0.1)">
       <use xlink:href="#DejaVuSans-31"/>
       <use xlink:href="#DejaVuSans-2e" x="63.623047"/>
       <use xlink:href="#DejaVuSans-30" x="95.410156"/>
      </g>
     </g>
    </g>
    <g id="ytick_4">
     <g id="line2d_19">
      <path d="M 43.78125 139.347273 
L 322.78125 139.347273 
" clip-path="url(#p7e228bae19)" style="fill: none; stroke-dasharray: 2.96,1.28; stroke-dashoffset: 0; stroke: #b0b0b0; stroke-opacity: 0.4; stroke-width: 0.8"/>
     </g>
     <g id="line2d_20">
      <g>
       <use xlink:href="#meadb585bd9" x="43.78125" y="139.347273" style="stroke: #000000; stroke-width: 0.8"/>
      </g>
     </g>
     <g id="text_11">
      <!-- 1.5 -->
      <g transform="translate(20.878125 143.146492) scale(0.1 -0.1)">
       <use xlink:href="#DejaVuSans-31"/>
       <use xlink:href="#DejaVuSans-2e" x="63.623047"/>
       <use xlink:href="#DejaVuSans-35" x="95.410156"/>
      </g>
     </g>
    </g>
    <g id="ytick_5">
     <g id="line2d_21">
      <path d="M 43.78125 107.214439 
L 322.78125 107.214439 
" clip-path="url(#p7e228bae19)" style="fill: none; stroke-dasharray: 2.96,1.28; stroke-dashoffset: 0; stroke: #b0b0b0; stroke-opacity: 0.4; stroke-width: 0.8"/>
     </g>
     <g id="line2d_22">
      <g>
       <use xlink:href="#meadb585bd9" x="43.78125" y="107.214439" style="stroke: #000000; stroke-width: 0.8"/>
      </g>
     </g>
     <g id="text_12">
      <!-- 2.0 -->
      <g transform="translate(20.878125 111.013658) scale(0.1 -0.1)">
       <use xlink:href="#DejaVuSans-32"/>
       <use xlink:href="#DejaVuSans-2e" x="63.623047"/>
       <use xlink:href="#DejaVuSans-30" x="95.410156"/>
      </g>
     </g>
    </g>
    <g id="ytick_6">
     <g id="line2d_23">
      <path d="M 43.78125 75.081606 
L 322.78125 75.081606 
" clip-path="url(#p7e228bae19)" style="fill: none; stroke-dasharray: 2.96,1.28; stroke-dashoffset: 0; stroke: #b0b0b0; stroke-opacity: 0.4; stroke-width: 0.8"/>
     </g>
     <g id="line2d_24">
      <g>
       <use xlink:href="#meadb585bd9" x="43.78125" y="75.081606" style="stroke: #000000; stroke-width: 0.8"/>
      </g>
     </g>
     <g id="text_13">
      <!-- 2.5 -->
      <g transform="translate(20.878125 78.880824) scale(0.1 -0.1)">
       <use xlink:href="#DejaVuSans-32"/>
       <use xlink:href="#DejaVuSans-2e" x="63.623047"/>
       <use xlink:href="#DejaVuSans-35" x="95.410156"/>
      </g>
     </g>
    </g>
    <g id="ytick_7">
     <g id="line2d_25">
      <path d="M 43.78125 42.948772 
L 322.78125 42.948772 
" clip-path="url(#p7e228bae19)" style="fill: none; stroke-dasharray: 2.96,1.28; stroke-dashoffset: 0; stroke: #b0b0b0; stroke-opacity: 0.4; stroke-width: 0.8"/>
     </g>
     <g id="line2d_26">
      <g>
       <use xlink:href="#meadb585bd9" x="43.78125" y="42.948772" style="stroke: #000000; stroke-width: 0.8"/>
      </g>
     </g>
     <g id="text_14">
      <!-- 3.0 -->
      <g transform="translate(20.878125 46.747991) scale(0.1 -0.1)">
       <defs>
        <path id="DejaVuSans-33" d="M 2597 2516 
Q 3050 2419 3304 2112 
Q 3559 1806 3559 1356 
Q 3559 666 3084 287 
Q 2609 -91 1734 -91 
Q 1441 -91 1130 -33 
Q 819 25 488 141 
L 488 750 
Q 750 597 1062 519 
Q 1375 441 1716 441 
Q 2309 441 2620 675 
Q 2931 909 2931 1356 
Q 2931 1769 2642 2001 
Q 2353 2234 1838 2234 
L 1294 2234 
L 1294 2753 
L 1863 2753 
Q 2328 2753 2575 2939 
Q 2822 3125 2822 3475 
Q 2822 3834 2567 4026 
Q 2313 4219 1838 4219 
Q 1578 4219 1281 4162 
Q 984 4106 628 3988 
L 628 4550 
Q 988 4650 1302 4700 
Q 1616 4750 1894 4750 
Q 2613 4750 3031 4423 
Q 3450 4097 3450 3541 
Q 3450 3153 3228 2886 
Q 3006 2619 2597 2516 
z
" transform="scale(0.015625)"/>
       </defs>
       <use xlink:href="#DejaVuSans-33"/>
       <use xlink:href="#DejaVuSans-2e" x="63.623047"/>
       <use xlink:href="#DejaVuSans-30" x="95.410156"/>
      </g>
     </g>
    </g>
    <g id="text_15">
     <!-- Loss -->
     <g transform="translate(14.798438 149.495187) rotate(-90) scale(0.1 -0.1)">
      <defs>
       <path id="DejaVuSans-4c" d="M 628 4666 
L 1259 4666 
L 1259 531 
L 3531 531 
L 3531 0 
L 628 0 
L 628 4666 
z
" transform="scale(0.015625)"/>
      </defs>
      <use xlink:href="#DejaVuSans-4c"/>
      <use xlink:href="#DejaVuSans-6f" x="53.962891"/>
      <use xlink:href="#DejaVuSans-73" x="115.144531"/>
      <use xlink:href="#DejaVuSans-73" x="167.244141"/>
     </g>
    </g>
   </g>
   <g id="line2d_27">
    <path d="M 56.463068 191.177532 
L 57.224739 206.432038 
L 57.478629 203.812477 
L 57.732519 209.137007 
L 58.2403 210.136818 
L 58.49419 211.607367 
L 58.74808 211.055813 
L 59.001971 213.302642 
L 59.255861 213.617309 
L 59.509751 213.406426 
L 59.763641 214.055284 
L 60.017532 215.07353 
L 60.271422 215.053318 
L 60.525312 215.994351 
L 60.779202 215.659027 
L 61.033093 215.761836 
L 61.286983 216.370751 
L 61.540873 216.58085 
L 61.794764 216.364827 
L 62.048654 216.493744 
L 62.302544 215.825888 
L 62.556434 217.208605 
L 62.810325 217.093237 
L 63.064215 217.219294 
L 63.318105 217.640281 
L 63.571995 217.587303 
L 64.079776 217.088133 
L 64.333666 217.900836 
L 64.587556 217.682431 
L 64.841447 218.016156 
L 65.095337 217.129102 
L 65.603117 218.340608 
L 65.857008 218.294804 
L 66.110898 218.825438 
L 66.364788 218.818589 
L 66.618678 218.206497 
L 66.872569 218.064327 
L 67.126459 217.786403 
L 67.380349 219.732126 
L 67.634239 218.729847 
L 67.88813 219.354084 
L 68.14202 218.220205 
L 68.39591 219.240586 
L 68.6498 217.685644 
L 69.157581 219.334518 
L 69.411471 218.888416 
L 69.665361 218.160747 
L 69.919252 219.035018 
L 70.173142 219.06549 
L 70.427032 220.436457 
L 70.680922 219.231029 
L 70.934813 219.111656 
L 71.188703 218.798742 
L 71.442593 219.166088 
L 71.696483 219.201156 
L 71.950374 220.016469 
L 72.204264 220.426077 
L 72.458154 220.368442 
L 72.712044 220.0386 
L 72.965935 218.348485 
L 73.219825 219.973068 
L 73.473715 220.438629 
L 73.727605 220.108702 
L 73.981496 220.513379 
L 74.235386 220.232606 
L 74.489276 219.585362 
L 74.743166 221.028786 
L 74.997057 220.866641 
L 75.250947 221.410984 
L 75.504837 220.459975 
L 75.758727 220.652559 
L 76.012618 219.505582 
L 76.266508 220.969042 
L 76.520398 220.303998 
L 76.774288 220.873946 
L 77.028179 220.353737 
L 77.282069 220.492128 
L 77.535959 219.296571 
L 78.04374 221.930498 
L 78.29763 220.308555 
L 78.55152 220.623625 
L 78.805411 220.233574 
L 79.059301 221.246487 
L 79.313191 220.602532 
L 79.567081 221.434862 
L 79.820972 220.118884 
L 80.074862 220.697852 
L 80.328752 222.037752 
L 80.582642 219.264325 
L 80.836533 220.862433 
L 81.344313 220.877987 
L 81.598203 221.868262 
L 81.852094 220.229483 
L 82.359874 221.988147 
L 82.867655 221.018816 
L 83.121545 221.386843 
L 83.375435 220.724175 
L 83.629325 221.163203 
L 83.883216 220.957859 
L 84.137106 222.009198 
L 84.390996 221.427104 
L 84.898777 222.02322 
L 85.152667 222.452948 
L 85.406557 222.369378 
L 85.660447 221.688273 
L 85.914338 222.501907 
L 86.168228 218.955847 
L 86.422118 221.029961 
L 86.676008 222.051229 
L 86.929899 222.024235 
L 87.183789 221.845007 
L 87.437679 222.184689 
L 87.691569 221.771799 
L 87.94546 222.383938 
L 88.19935 222.387647 
L 88.45324 221.093464 
L 88.70713 221.530547 
L 88.961021 222.529272 
L 89.214911 220.995286 
L 89.722691 220.044328 
L 89.976582 222.368136 
L 90.230472 223.318276 
L 90.484362 223.674115 
L 90.738252 224.353325 
L 90.992143 223.597706 
L 91.246033 224.316596 
L 91.499923 224.163612 
L 91.753813 224.408237 
L 92.007704 224.074744 
L 92.261594 224.351205 
L 92.515484 223.217593 
L 92.769374 224.511036 
L 93.277155 224.629911 
L 93.531045 225.0983 
L 93.784936 224.544956 
L 94.038826 224.748319 
L 94.292716 224.520962 
L 94.546606 224.770106 
L 94.800497 223.377666 
L 95.054387 224.770495 
L 95.308277 224.281093 
L 95.562167 224.805385 
L 95.816058 224.415587 
L 96.069948 224.747846 
L 96.323838 224.335091 
L 96.577728 224.989813 
L 96.831619 223.951122 
L 97.593289 225.236075 
L 97.84718 223.082761 
L 98.10107 225.398322 
L 98.35496 223.660206 
L 98.60885 224.85093 
L 99.116631 224.713422 
L 99.370521 225.159729 
L 99.624411 224.809328 
L 99.878302 225.217973 
L 100.132192 224.947525 
L 100.386082 224.899174 
L 100.639972 224.173896 
L 101.147753 225.526174 
L 101.655533 225.001122 
L 101.909424 225.572688 
L 102.163314 225.081418 
L 102.417204 223.927302 
L 102.671094 225.179406 
L 102.924985 225.121501 
L 103.178875 224.86231 
L 103.432765 225.551253 
L 103.686655 224.933547 
L 103.940546 225.032097 
L 104.194436 226.11094 
L 104.448326 221.057194 
L 104.702216 225.123955 
L 104.956107 226.743636 
L 105.209997 226.629141 
L 105.463887 226.802919 
L 105.717777 227.125026 
L 105.971668 226.243395 
L 106.225558 226.760247 
L 106.479448 226.849332 
L 106.733338 226.562404 
L 106.987229 225.777683 
L 107.241119 226.475383 
L 107.495009 225.498639 
L 108.00279 226.914088 
L 108.25668 226.506699 
L 108.51057 226.313155 
L 108.76446 227.09542 
L 109.018351 226.448661 
L 109.272241 226.798074 
L 109.526131 225.957326 
L 109.780021 227.249747 
L 110.287802 226.356671 
L 110.541692 227.212793 
L 110.795583 226.61929 
L 111.049473 227.210931 
L 111.303363 226.651967 
L 111.557253 227.116853 
L 111.811144 226.74162 
L 112.065034 227.401598 
L 112.318924 226.646375 
L 112.572814 226.85274 
L 112.826705 226.383985 
L 113.080595 226.724026 
L 113.334485 227.583636 
L 113.588375 226.944035 
L 113.842266 226.815449 
L 114.096156 226.510834 
L 114.350046 227.322468 
L 114.603936 227.278645 
L 114.857827 227.969302 
L 115.111717 226.576707 
L 115.365607 227.300277 
L 115.619497 226.467595 
L 115.873388 226.920962 
L 116.127278 226.94958 
L 116.381168 227.143294 
L 116.635058 226.151224 
L 116.888949 226.310685 
L 117.142839 227.399168 
L 117.396729 227.40777 
L 117.650619 227.032619 
L 117.90451 227.818193 
L 118.1584 227.882832 
L 118.41229 227.733147 
L 118.66618 228.462973 
L 118.920071 227.978425 
L 119.427851 228.073634 
L 119.681741 227.913069 
L 120.189522 228.042621 
L 120.443412 228.507751 
L 120.697302 227.665121 
L 120.951193 228.185051 
L 121.205083 227.87819 
L 121.458973 228.062471 
L 121.712863 228.068772 
L 121.966754 227.925232 
L 122.220644 228.446747 
L 123.490095 227.469945 
L 123.997876 228.298441 
L 124.251766 228.298783 
L 124.505656 228.059903 
L 124.759546 228.098901 
L 125.013437 227.970954 
L 125.267327 227.989652 
L 125.521217 228.43452 
L 125.775107 227.726761 
L 126.028998 228.427985 
L 126.282888 227.094631 
L 126.536778 228.576796 
L 126.790669 227.940146 
L 127.044559 228.420431 
L 127.298449 227.499529 
L 127.552339 228.543306 
L 128.06012 227.770439 
L 128.31401 228.170955 
L 128.5679 227.66814 
L 128.821791 228.728958 
L 129.075681 228.279124 
L 129.583461 228.51074 
L 129.837352 228.907689 
L 130.345132 228.326481 
L 130.599022 228.913721 
L 130.852913 228.806284 
L 131.360693 228.935004 
L 131.614583 229.147547 
L 131.868474 228.665041 
L 132.122364 228.603494 
L 132.376254 229.437121 
L 132.630144 228.681461 
L 132.884035 229.082641 
L 133.899596 228.60807 
L 134.153486 229.286954 
L 134.661266 228.559243 
L 134.915157 228.965298 
L 135.169047 228.734753 
L 135.422937 228.924947 
L 135.676827 228.516489 
L 136.184608 229.187553 
L 136.438498 228.43763 
L 136.692388 229.042005 
L 136.946279 228.976015 
L 137.200169 228.307548 
L 137.454059 228.433128 
L 137.707949 229.531951 
L 138.21573 228.777809 
L 138.46962 229.315141 
L 138.977401 229.017529 
L 139.231291 228.516933 
L 139.739071 229.299989 
L 139.992962 229.005682 
L 140.246852 228.210255 
L 140.500742 228.996782 
L 140.754632 228.662898 
L 141.008523 228.861942 
L 141.262413 229.2128 
L 141.516303 228.689546 
L 141.770193 229.110556 
L 142.024084 228.706005 
L 142.277974 228.793137 
L 142.531864 228.589133 
L 142.785755 229.168119 
L 143.293535 228.717904 
L 143.547425 229.605125 
L 144.055206 229.344052 
L 144.309096 229.440298 
L 145.070767 228.972483 
L 145.324657 229.055791 
L 145.578547 229.797903 
L 145.832438 229.151434 
L 146.340218 229.661708 
L 146.594108 229.806104 
L 146.847999 228.55527 
L 147.101889 228.765634 
L 147.355779 229.261349 
L 147.609669 229.305627 
L 147.86356 229.861058 
L 148.11745 229.23459 
L 148.37134 229.199237 
L 148.62523 229.991465 
L 148.879121 229.215598 
L 149.133011 229.084086 
L 149.640791 229.528493 
L 149.894682 229.094773 
L 150.148572 229.613492 
L 150.402462 229.16196 
L 150.656352 229.647473 
L 150.910243 229.713195 
L 151.418023 229.637982 
L 151.671913 229.03707 
L 151.925804 229.703456 
L 152.179694 229.561148 
L 152.433584 229.860395 
L 152.687474 229.086505 
L 152.941365 229.519463 
L 153.195255 228.973508 
L 153.703035 229.100424 
L 153.956926 229.211524 
L 154.718596 229.057215 
L 155.226377 229.88522 
L 155.480267 229.701768 
L 155.734157 229.140036 
L 155.988048 229.237916 
L 156.241938 228.942122 
L 156.495828 229.253793 
L 157.257499 229.421604 
L 157.765279 229.791163 
L 158.01917 229.824563 
L 158.27306 229.275556 
L 158.52695 229.701692 
L 159.034731 228.829982 
L 159.542511 229.707294 
L 159.796402 229.29817 
L 160.304182 229.507833 
L 161.319743 229.409255 
L 161.573633 230.040569 
L 161.827524 229.572279 
L 162.081414 229.917209 
L 162.589194 228.915785 
L 162.843085 229.6365 
L 163.096975 228.724096 
L 163.604755 229.403082 
L 163.858646 229.312113 
L 164.112536 229.360887 
L 164.366426 229.157432 
L 164.874207 229.70704 
L 165.128097 229.086747 
L 165.381987 229.508122 
L 165.635877 228.905424 
L 165.889768 229.874097 
L 166.143658 229.667352 
L 166.397548 229.110597 
L 166.651438 229.678488 
L 166.905329 229.279306 
L 167.159219 229.246445 
L 167.413109 229.844993 
L 167.666999 229.236202 
L 167.92089 229.655549 
L 168.17478 229.611576 
L 168.42867 229.855466 
L 168.68256 229.629574 
L 168.936451 229.616733 
L 169.444231 229.921514 
L 169.698121 229.615139 
L 169.952012 229.553289 
L 170.459792 229.102695 
L 170.713682 229.223232 
L 170.967573 229.475241 
L 171.221463 229.357958 
L 171.475353 229.485109 
L 171.983134 229.250346 
L 172.237024 229.238106 
L 172.490914 229.878599 
L 172.744804 229.295755 
L 172.998695 229.713062 
L 173.252585 229.336457 
L 173.506475 229.893953 
L 173.760365 229.423435 
L 174.014256 229.843427 
L 174.522036 229.374119 
L 174.775926 229.725432 
L 175.029817 229.02307 
L 175.283707 229.272331 
L 176.045378 229.039837 
L 176.299268 230.181972 
L 176.553158 229.342724 
L 177.060939 229.654191 
L 177.314829 229.172308 
L 177.568719 229.84805 
L 177.82261 229.792122 
L 178.58428 229.097428 
L 178.838171 229.831292 
L 179.092061 230.098327 
L 179.345951 230.061597 
L 179.599841 229.582748 
L 179.853732 229.923549 
L 180.361512 229.560848 
L 180.615402 229.960436 
L 180.869293 229.506922 
L 181.123183 229.396234 
L 181.884854 229.722573 
L 182.138744 229.021217 
L 182.392634 229.630345 
L 182.646524 229.842083 
L 182.900415 229.198335 
L 183.154305 229.602768 
L 183.408195 229.49756 
L 183.662085 229.545672 
L 183.915976 229.388892 
L 184.169866 229.469252 
L 184.423756 229.283767 
L 184.677646 229.733696 
L 184.931537 229.091646 
L 185.185427 229.855262 
L 185.439317 229.440509 
L 186.454878 230.248829 
L 186.708768 230.079061 
L 186.962659 229.620859 
L 187.470439 229.6089 
L 187.724329 229.798124 
L 187.97822 229.467832 
L 188.23211 229.829119 
L 188.486 229.792444 
L 188.73989 230.274914 
L 188.993781 230.19046 
L 189.247671 229.687384 
L 190.009342 229.657271 
L 190.263232 229.913505 
L 190.771012 229.837233 
L 191.024903 229.328746 
L 191.278793 229.822967 
L 191.532683 229.612131 
L 191.786574 229.730288 
L 192.040464 230.175069 
L 192.294354 229.715613 
L 192.802135 229.631652 
L 193.056025 229.445898 
L 193.563805 229.623978 
L 193.817696 230.074343 
L 194.071586 229.765112 
L 194.325476 229.862023 
L 194.833257 229.778815 
L 195.341037 230.088287 
L 195.594927 229.317051 
L 195.848818 229.601361 
L 196.102708 229.647694 
L 196.356598 229.941634 
L 196.610488 229.936459 
L 196.864379 229.324558 
L 197.372159 229.588557 
L 197.626049 230.205156 
L 197.87994 230.108736 
L 198.13383 229.86214 
L 198.38772 229.438485 
L 198.64161 229.863663 
L 199.149391 229.426825 
L 199.403281 229.444522 
L 199.657171 230.265605 
L 199.911062 230.084173 
L 200.164952 229.650945 
L 200.672732 229.955433 
L 200.926623 229.3369 
L 201.180513 229.505644 
L 201.434403 229.946331 
L 201.688293 229.679661 
L 201.942184 229.915273 
L 202.196074 229.954308 
L 202.449964 230.356836 
L 202.703854 229.975985 
L 202.957745 230.130365 
L 203.211635 229.821038 
L 203.465525 230.04852 
L 203.973306 229.741938 
L 204.227196 230.043804 
L 204.481086 229.439824 
L 204.734976 229.49339 
L 204.988867 229.779713 
L 205.496647 229.630221 
L 206.004428 230.121654 
L 206.258318 229.723882 
L 207.019989 229.427155 
L 207.273879 229.731333 
L 207.527769 229.594193 
L 207.78166 230.040588 
L 208.03555 229.695288 
L 208.54333 229.390088 
L 208.797221 229.663968 
L 209.051111 229.064589 
L 209.305001 229.879718 
L 209.558891 230.033621 
L 209.812782 229.395238 
L 210.066672 229.924094 
L 210.320562 229.470694 
L 210.574452 230.557091 
L 211.082233 229.735103 
L 211.336123 229.589719 
L 211.590013 229.640209 
L 211.843904 229.854654 
L 212.351684 229.749508 
L 212.605574 230.269893 
L 212.859465 229.787574 
L 213.367245 229.434102 
L 213.875026 229.831016 
L 214.128916 229.650042 
L 214.382806 229.105768 
L 214.636696 229.99709 
L 214.890587 229.605196 
L 215.144477 229.819332 
L 215.398367 229.744867 
L 215.906148 229.173252 
L 216.160038 229.630767 
L 216.413928 229.494737 
L 216.667818 229.683645 
L 216.921709 229.686295 
L 217.175599 229.562558 
L 217.429489 229.590984 
L 217.683379 229.754954 
L 217.93727 229.25239 
L 218.19116 229.762639 
L 218.44505 229.53232 
L 218.69894 229.472507 
L 218.952831 229.879904 
L 219.206721 229.372906 
L 219.460611 229.694324 
L 219.714501 229.347497 
L 219.968392 230.307503 
L 220.222282 229.6958 
L 220.476172 229.616135 
L 220.730062 230.410551 
L 220.983953 229.799319 
L 221.491733 229.994047 
L 221.999514 229.690994 
L 222.253404 229.853323 
L 222.761184 229.825752 
L 223.015075 229.169427 
L 223.268965 229.813149 
L 223.522855 229.582064 
L 223.776745 230.453584 
L 224.030636 229.258297 
L 224.284526 230.009307 
L 224.538416 229.410965 
L 224.792307 229.627383 
L 225.046197 229.513769 
L 225.300087 228.927549 
L 225.553977 230.080547 
L 225.807868 229.662734 
L 226.061758 229.54659 
L 226.315648 229.950783 
L 226.823429 229.647696 
L 227.077319 229.097342 
L 227.331209 229.524919 
L 227.585099 228.994351 
L 227.83899 230.075385 
L 228.09288 229.650465 
L 228.34677 229.465416 
L 228.854551 229.621122 
L 229.108441 229.041926 
L 229.362331 230.078063 
L 229.616221 228.899621 
L 230.124002 229.844165 
L 230.377892 229.62634 
L 230.631782 229.698479 
L 230.885673 229.927842 
L 231.139563 229.758167 
L 231.647343 229.177814 
L 231.901234 229.661587 
L 232.155124 229.40589 
L 232.409014 230.115899 
L 232.662904 229.814067 
L 232.916795 230.151775 
L 233.424575 229.538119 
L 233.932356 230.249899 
L 234.186246 229.425846 
L 234.440136 229.606221 
L 234.694026 229.370967 
L 234.947917 229.863738 
L 235.201807 229.575324 
L 235.455697 229.473952 
L 236.217368 230.089574 
L 236.471258 229.64917 
L 236.725148 229.510408 
L 236.979039 230.165412 
L 237.232929 229.985232 
L 237.486819 229.439089 
L 237.740709 229.293337 
L 237.9946 230.290799 
L 238.50238 230.030528 
L 238.75627 230.12153 
L 239.264051 229.424932 
L 239.517941 229.479704 
L 239.771831 229.886718 
L 240.025722 229.600362 
L 240.279612 229.875794 
L 240.533502 229.917023 
L 240.787393 229.476669 
L 241.041283 229.447548 
L 241.549063 229.644392 
L 241.802954 229.078634 
L 242.056844 229.82106 
L 242.310734 230.158841 
L 242.818515 229.457764 
L 243.326295 229.939697 
L 243.580185 229.255944 
L 243.834076 229.701108 
L 244.087966 229.453484 
L 244.341856 230.049379 
L 244.595746 229.662966 
L 244.849637 228.859711 
L 245.103527 230.203526 
L 245.357417 229.362078 
L 245.611307 229.316337 
L 246.119088 230.023495 
L 246.372978 229.583995 
L 246.626868 229.961277 
L 246.880759 230.055895 
L 247.134649 229.267723 
L 247.388539 228.878653 
L 247.642429 230.238105 
L 247.89632 229.860352 
L 248.15021 229.998186 
L 248.4041 229.529823 
L 249.165771 230.313884 
L 249.419661 229.369929 
L 249.927442 229.96234 
L 250.181332 229.921674 
L 250.435222 229.258951 
L 250.689112 229.758222 
L 250.943003 229.456174 
L 251.196893 229.76388 
L 251.450783 229.640629 
L 251.704673 229.319014 
L 251.958564 229.844073 
L 252.212454 230.007167 
L 252.466344 230.007148 
L 252.720234 229.250973 
L 252.974125 229.397159 
L 253.228015 229.13118 
L 253.481905 230.186575 
L 253.989686 229.763477 
L 254.497466 230.142936 
L 254.751356 229.243115 
L 255.005247 229.372836 
L 255.259137 230.013549 
L 255.513027 229.685509 
L 255.766917 230.015547 
L 256.274698 229.799841 
L 256.528588 229.292742 
L 257.036369 230.145045 
L 257.290259 229.331673 
L 257.79804 229.979879 
L 258.05193 229.824986 
L 258.30582 229.832908 
L 258.55971 229.456115 
L 258.813601 229.784042 
L 259.067491 229.845596 
L 259.321381 229.593728 
L 259.575271 229.804242 
L 259.829162 229.18453 
L 260.083052 229.470889 
L 260.336942 230.336483 
L 260.590832 229.675351 
L 260.844723 229.862056 
L 261.098613 229.516135 
L 261.352503 229.72558 
L 261.606393 229.324529 
L 261.860284 229.334851 
L 262.114174 229.763298 
L 262.368064 229.812171 
L 262.621954 230.346266 
L 262.875845 229.728885 
L 263.383625 229.533791 
L 263.637515 229.679707 
L 263.891406 229.481342 
L 264.145296 230.105604 
L 264.399186 229.678467 
L 264.653076 229.795535 
L 265.160857 229.580996 
L 265.414747 229.818389 
L 265.668637 229.5907 
L 265.922528 229.622507 
L 266.176418 229.306757 
L 266.684198 230.273715 
L 267.191979 229.443979 
L 267.445869 229.849833 
L 267.699759 229.485615 
L 267.95365 229.691105 
L 268.20754 229.638 
L 268.46143 230.017289 
L 268.71532 230.078975 
L 268.969211 229.331528 
L 270.238662 229.909501 
L 270.492552 229.807668 
L 270.746442 230.321862 
L 271.000333 229.847262 
L 271.254223 229.611219 
L 271.508113 229.968883 
L 271.762003 229.34981 
L 272.269784 230.077645 
L 272.523674 229.676339 
L 272.777564 229.878969 
L 273.031455 229.557078 
L 273.285345 229.859429 
L 273.793126 229.294008 
L 274.047016 229.862356 
L 274.300906 229.541875 
L 274.554796 229.86849 
L 274.808687 229.472531 
L 275.316467 229.892767 
L 275.570357 229.583382 
L 275.824248 229.526318 
L 276.078138 230.145025 
L 276.332028 229.684044 
L 276.585918 229.695734 
L 276.839809 229.891721 
L 277.347589 230.029528 
L 277.601479 229.393408 
L 277.85537 229.365676 
L 278.10926 229.613901 
L 278.36315 229.654185 
L 278.61704 230.009481 
L 278.870931 229.954192 
L 279.378711 229.48676 
L 279.886492 229.824262 
L 280.140382 229.705691 
L 280.394272 230.108772 
L 280.648162 229.752574 
L 280.902053 229.065843 
L 281.409833 229.769448 
L 281.663723 229.857678 
L 281.917614 229.724113 
L 282.425394 230.011565 
L 282.679284 229.620408 
L 283.187065 229.880495 
L 283.440955 229.405129 
L 283.694845 229.841227 
L 283.948736 229.47439 
L 284.202626 230.17548 
L 284.456516 229.932867 
L 284.710406 230.384952 
L 284.964297 229.921544 
L 285.218187 229.821944 
L 285.725967 229.957872 
L 285.979858 229.156737 
L 286.233748 229.76599 
L 286.487638 228.991697 
L 286.741528 229.754064 
L 286.995419 230.034241 
L 287.503199 229.763679 
L 287.757089 230.023732 
L 288.01098 229.812346 
L 288.26487 230.060461 
L 288.51876 230.104207 
L 288.77265 229.695473 
L 289.026541 229.530957 
L 289.534321 229.806267 
L 289.788212 229.285663 
L 290.042102 229.537786 
L 290.295992 229.54274 
L 290.549882 229.809665 
L 290.803773 229.881258 
L 291.057663 229.724612 
L 291.311553 230.010021 
L 291.819334 229.41637 
L 292.073224 229.695632 
L 292.327114 229.287507 
L 292.581004 229.743788 
L 292.834895 229.377463 
L 293.088785 229.936668 
L 293.342675 229.754697 
L 293.596565 229.721818 
L 293.850456 229.978392 
L 294.104346 230.036426 
L 294.358236 229.28968 
L 294.612126 229.25156 
L 294.866017 229.447497 
L 295.119907 229.808447 
L 295.627687 229.857149 
L 295.881578 229.200697 
L 296.135468 229.574355 
L 296.389358 230.189084 
L 296.897139 229.762308 
L 297.151029 229.886277 
L 297.404919 229.49719 
L 297.658809 229.582479 
L 297.9127 230.06688 
L 298.16659 229.570297 
L 298.67437 229.390296 
L 298.928261 229.699266 
L 299.182151 230.235296 
L 299.436041 229.825642 
L 299.689931 229.047955 
L 299.943822 229.687623 
L 300.197712 229.926764 
L 300.451602 229.916934 
L 300.705492 229.320727 
L 301.213273 229.813513 
L 301.721053 229.517135 
L 301.974944 229.350894 
L 302.228834 229.663875 
L 302.482724 229.495374 
L 302.736614 230.29481 
L 302.990505 229.505326 
L 303.752175 229.622962 
L 304.006066 229.461539 
L 304.259956 230.049193 
L 304.513846 229.80972 
L 304.767736 230.469319 
L 305.021627 229.341747 
L 305.275517 229.761115 
L 305.529407 229.641806 
L 305.783298 229.782626 
L 306.037188 229.573313 
L 306.544968 230.105834 
L 306.798859 229.268653 
L 307.052749 229.269443 
L 307.306639 230.256434 
L 307.560529 229.62518 
L 308.06831 230.009873 
L 308.3222 230.023014 
L 309.083871 229.46174 
L 309.337761 229.546425 
L 309.591651 229.461482 
L 309.845542 229.972426 
L 310.099432 229.669205 
L 310.099432 229.669205 
" clip-path="url(#p7e228bae19)" style="fill: none; stroke: #0000ff; stroke-width: 0.6; stroke-linecap: square"/>
   </g>
   <g id="line2d_28">
    <path d="M 56.463068 160.541325 
L 56.716958 202.870461 
L 57.224739 175.745792 
L 57.478629 195.094385 
L 57.732519 202.428253 
L 57.98641 201.685034 
L 58.2403 121.036639 
L 58.49419 195.829809 
L 58.74808 211.146422 
L 59.001971 204.729715 
L 59.255861 209.852196 
L 59.763641 213.260985 
L 60.271422 208.907801 
L 60.525312 208.178349 
L 60.779202 211.520267 
L 61.033093 211.411991 
L 61.286983 210.674738 
L 61.540873 203.204633 
L 61.794764 212.016035 
L 62.048654 201.18035 
L 62.302544 205.879871 
L 62.556434 200.598687 
L 62.810325 213.018321 
L 63.064215 213.580469 
L 63.318105 210.437013 
L 63.571995 189.125646 
L 63.825886 203.196811 
L 64.079776 207.193439 
L 64.333666 200.38766 
L 64.587556 208.783522 
L 64.841447 203.022028 
L 65.095337 202.074959 
L 65.349227 161.723703 
L 65.603117 199.7628 
L 65.857008 216.434315 
L 66.110898 213.36178 
L 66.618678 215.986395 
L 66.872569 216.121062 
L 67.126459 210.156356 
L 67.380349 214.368124 
L 67.634239 169.146853 
L 67.88813 197.665821 
L 68.14202 208.061118 
L 68.39591 46.498909 
L 68.6498 216.712913 
L 68.903691 217.456213 
L 69.157581 166.803066 
L 69.411471 212.580501 
L 69.665361 155.142565 
L 69.919252 202.818159 
L 70.173142 206.504799 
L 70.427032 216.264197 
L 70.680922 208.957112 
L 70.934813 150.491678 
L 71.188703 198.771661 
L 71.442593 211.544677 
L 71.696483 85.732278 
L 71.950374 199.461096 
L 72.204264 158.369283 
L 72.458154 212.677905 
L 72.712044 162.268864 
L 72.965935 210.194694 
L 73.219825 209.592136 
L 73.473715 216.125951 
L 73.727605 202.505829 
L 73.981496 216.146674 
L 74.235386 217.142749 
L 74.489276 213.067532 
L 74.743166 193.360966 
L 74.997057 210.629126 
L 75.250947 212.154204 
L 75.504837 209.611101 
L 75.758727 111.503885 
L 76.012618 209.484975 
L 76.266508 215.209123 
L 76.520398 207.570793 
L 76.774288 206.220421 
L 77.028179 217.470782 
L 77.282069 200.547822 
L 77.535959 171.818837 
L 77.78985 208.87778 
L 78.04374 209.674084 
L 78.29763 208.024226 
L 78.55152 96.152337 
L 78.805411 183.609752 
L 79.059301 177.724185 
L 79.313191 215.498263 
L 79.567081 209.000225 
L 79.820972 208.683313 
L 80.074862 146.97849 
L 80.328752 204.007704 
L 80.582642 201.104065 
L 80.836533 189.479234 
L 81.090423 215.475299 
L 81.344313 216.172695 
L 81.598203 210.679239 
L 81.852094 202.45671 
L 82.105984 187.939464 
L 82.359874 182.524666 
L 82.613764 189.759982 
L 82.867655 189.421447 
L 83.121545 197.866074 
L 83.375435 183.1132 
L 83.629325 206.647876 
L 83.883216 212.360936 
L 84.137106 210.818659 
L 84.390996 204.602779 
L 84.644886 184.319136 
L 84.898777 211.546096 
L 85.152667 209.333487 
L 85.406557 198.971742 
L 85.660447 216.553182 
L 85.914338 214.855526 
L 86.168228 59.827369 
L 86.422118 207.002656 
L 86.676008 202.583891 
L 86.929899 207.951069 
L 87.183789 201.331415 
L 87.437679 211.803828 
L 87.691569 203.526532 
L 87.94546 213.814847 
L 88.19935 200.151423 
L 88.45324 216.388222 
L 88.70713 216.905761 
L 88.961021 207.903145 
L 89.214911 194.194378 
L 89.468801 215.91211 
L 89.976582 209.187218 
L 90.230472 209.532031 
L 90.484362 212.805634 
L 90.738252 194.446814 
L 90.992143 212.781192 
L 91.246033 213.042668 
L 91.499923 209.498516 
L 91.753813 217.55586 
L 92.007704 199.151374 
L 92.261594 215.012959 
L 92.515484 211.656201 
L 92.769374 198.312086 
L 93.023265 216.253088 
L 93.277155 215.729974 
L 93.531045 214.865829 
L 93.784936 209.485861 
L 94.038826 209.417647 
L 94.292716 215.196591 
L 94.546606 211.101155 
L 94.800497 215.235412 
L 95.054387 111.8868 
L 95.308277 212.109868 
L 95.562167 187.271105 
L 95.816058 214.934635 
L 96.069948 212.065779 
L 96.323838 216.842125 
L 96.577728 210.53921 
L 96.831619 214.499404 
L 97.085509 172.495152 
L 97.339399 198.587666 
L 97.593289 125.904127 
L 97.84718 150.770258 
L 98.10107 209.912682 
L 98.35496 214.351695 
L 98.60885 214.355485 
L 98.862741 215.941599 
L 99.116631 206.370183 
L 99.370521 180.264678 
L 99.624411 214.43931 
L 99.878302 207.952066 
L 100.132192 213.983797 
L 100.386082 216.560809 
L 100.639972 209.886234 
L 100.893863 209.712098 
L 101.147753 204.934141 
L 101.401643 212.431874 
L 101.655533 212.495041 
L 101.909424 212.39332 
L 102.163314 205.826606 
L 102.417204 216.031961 
L 102.671094 110.102385 
L 102.924985 211.189584 
L 103.178875 211.540733 
L 103.432765 217.234929 
L 103.686655 216.259568 
L 103.940546 214.695343 
L 104.194436 170.358114 
L 104.448326 206.745131 
L 104.702216 210.23592 
L 104.956107 215.31037 
L 105.209997 195.068732 
L 105.717777 216.358543 
L 105.971668 210.735032 
L 106.225558 210.567975 
L 106.479448 216.154389 
L 106.733338 215.903311 
L 106.987229 216.272069 
L 107.241119 213.633525 
L 107.495009 161.224324 
L 107.748899 215.120843 
L 108.00279 215.596078 
L 108.25668 208.344443 
L 108.51057 215.365857 
L 108.76446 215.483489 
L 109.018351 203.805446 
L 109.272241 215.733364 
L 109.526131 203.606946 
L 109.780021 214.990342 
L 110.033912 214.150052 
L 110.287802 206.391092 
L 110.541692 211.116714 
L 110.795583 205.222605 
L 111.049473 182.008869 
L 111.303363 214.956815 
L 111.557253 209.056922 
L 111.811144 209.249337 
L 112.065034 163.112125 
L 112.318924 215.55836 
L 112.826705 208.174739 
L 113.080595 212.377622 
L 113.334485 194.237843 
L 113.588375 215.236136 
L 113.842266 210.361837 
L 114.096156 213.342139 
L 114.603936 213.889338 
L 114.857827 211.546893 
L 115.111717 210.935863 
L 115.365607 207.197396 
L 115.619497 212.968152 
L 115.873388 213.382183 
L 116.127278 211.11432 
L 116.381168 212.799166 
L 116.635058 202.556978 
L 116.888949 202.532708 
L 117.142839 212.258784 
L 117.396729 210.188481 
L 117.90451 214.88759 
L 118.1584 215.164512 
L 118.41229 214.22274 
L 118.66618 214.735405 
L 118.920071 214.348188 
L 119.173961 214.809102 
L 119.427851 214.508174 
L 119.681741 199.615754 
L 119.935632 211.561483 
L 120.189522 214.79903 
L 120.443412 205.33032 
L 120.951193 214.23312 
L 121.205083 211.681444 
L 121.458973 214.820169 
L 121.712863 213.039065 
L 121.966754 214.840957 
L 122.220644 213.9467 
L 122.728424 214.619288 
L 122.982315 213.365555 
L 123.743985 215.215932 
L 123.997876 214.170336 
L 124.251766 214.868552 
L 124.505656 215.112314 
L 124.759546 214.281611 
L 125.013437 201.665414 
L 125.267327 211.744194 
L 125.521217 214.180401 
L 125.775107 214.431236 
L 126.028998 215.032093 
L 126.282888 213.130067 
L 127.044559 214.826504 
L 127.298449 214.179238 
L 127.552339 211.353434 
L 127.80623 213.460303 
L 128.06012 213.02205 
L 128.31401 213.954156 
L 128.5679 211.959866 
L 129.075681 211.64256 
L 129.329571 203.19829 
L 129.583461 214.863383 
L 129.837352 214.423343 
L 130.091242 215.245781 
L 130.345132 209.037768 
L 130.599022 214.140975 
L 131.106803 214.449163 
L 131.360693 214.245043 
L 131.614583 214.380964 
L 131.868474 214.294629 
L 132.122364 212.778152 
L 132.376254 214.64256 
L 132.630144 214.318179 
L 132.884035 214.265762 
L 133.137925 213.936327 
L 133.391815 214.202888 
L 133.645705 212.39973 
L 133.899596 212.3221 
L 134.153486 214.325856 
L 134.407376 213.441047 
L 134.661266 214.098171 
L 134.915157 213.347003 
L 135.169047 213.332317 
L 135.422937 210.300478 
L 135.676827 214.666626 
L 135.930718 214.099713 
L 136.184608 214.36952 
L 136.438498 213.658926 
L 136.692388 214.682363 
L 137.200169 213.183786 
L 137.454059 214.379671 
L 137.707949 214.739661 
L 137.96184 212.756284 
L 138.21573 214.100596 
L 138.46962 211.52522 
L 138.72351 214.506929 
L 139.231291 213.645902 
L 139.485181 214.754839 
L 139.739071 214.600928 
L 139.992962 212.595593 
L 140.246852 214.234488 
L 140.500742 214.862063 
L 140.754632 213.867192 
L 141.008523 214.3075 
L 141.262413 214.169719 
L 141.516303 214.289877 
L 141.770193 213.22376 
L 142.024084 214.033741 
L 142.277974 212.753587 
L 142.531864 214.463837 
L 142.785755 213.518295 
L 143.039645 214.048565 
L 143.293535 214.249513 
L 143.547425 213.892123 
L 143.801316 214.597513 
L 144.055206 214.328606 
L 144.309096 214.399952 
L 144.816877 213.684592 
L 145.070767 214.3338 
L 145.324657 214.276802 
L 145.578547 213.011577 
L 145.832438 213.034643 
L 146.340218 214.135078 
L 146.594108 213.874117 
L 146.847999 213.090729 
L 147.101889 212.967453 
L 147.355779 214.241191 
L 147.609669 214.550275 
L 147.86356 214.161574 
L 148.11745 213.266037 
L 148.37134 214.613663 
L 148.62523 213.29569 
L 148.879121 214.401313 
L 149.133011 214.453407 
L 150.148572 213.570885 
L 150.656352 214.160969 
L 150.910243 213.824045 
L 151.164133 214.161241 
L 151.418023 213.647308 
L 151.671913 213.691255 
L 151.925804 213.958626 
L 152.179694 212.770916 
L 152.433584 213.377774 
L 152.687474 213.335286 
L 152.941365 214.149908 
L 153.195255 212.929556 
L 153.703035 214.252141 
L 153.956926 213.417137 
L 154.210816 213.531658 
L 154.718596 212.719941 
L 154.972487 213.395287 
L 155.226377 213.697133 
L 155.480267 213.803291 
L 155.734157 213.579191 
L 156.241938 214.083592 
L 156.495828 213.850314 
L 156.749718 214.407551 
L 157.003609 213.985505 
L 157.257499 214.42639 
L 157.511389 213.862239 
L 157.765279 214.339259 
L 158.01917 213.653833 
L 158.27306 214.159061 
L 158.52695 214.317032 
L 158.78084 213.91406 
L 159.034731 214.05371 
L 159.288621 213.747032 
L 159.542511 213.198404 
L 160.304182 214.130127 
L 160.558072 214.163386 
L 160.811963 213.901398 
L 161.065853 214.428606 
L 161.319743 213.075875 
L 161.573633 214.20402 
L 162.081414 214.222144 
L 162.335304 214.184624 
L 162.843085 213.130714 
L 163.096975 213.972359 
L 163.350865 214.10814 
L 163.604755 213.364294 
L 163.858646 214.138933 
L 164.620316 214.218894 
L 164.874207 214.110923 
L 165.128097 213.756782 
L 165.381987 214.142207 
L 165.635877 213.165317 
L 165.889768 213.973276 
L 166.397548 214.247043 
L 166.651438 213.16866 
L 166.905329 214.096108 
L 167.159219 213.070284 
L 167.413109 212.948678 
L 167.666999 213.185834 
L 167.92089 214.099069 
L 168.17478 214.004591 
L 168.42867 213.739953 
L 168.68256 213.799702 
L 168.936451 213.604894 
L 169.190341 213.921208 
L 169.952012 213.298415 
L 170.205902 213.941638 
L 170.459792 214.057537 
L 170.713682 213.600422 
L 170.967573 213.793303 
L 171.221463 213.605691 
L 171.475353 214.14384 
L 171.729243 213.627059 
L 172.237024 213.928668 
L 172.744804 213.79924 
L 172.998695 213.920147 
L 173.252585 213.642705 
L 173.760365 213.901123 
L 174.014256 213.75942 
L 174.775926 213.975178 
L 175.029817 213.590654 
L 175.283707 213.598135 
L 176.045378 214.244537 
L 176.299268 214.002304 
L 176.553158 213.928769 
L 176.807049 214.290435 
L 177.060939 213.008775 
L 177.314829 213.795995 
L 177.82261 214.046771 
L 178.0765 213.699711 
L 178.33039 213.934257 
L 179.092061 213.613672 
L 179.345951 213.644806 
L 179.599841 213.942557 
L 179.853732 213.681428 
L 180.361512 214.095422 
L 181.377073 213.816715 
L 181.630963 214.000176 
L 182.138744 213.685111 
L 182.392634 213.694655 
L 183.154305 213.994666 
L 183.408195 214.106814 
L 183.915976 213.646059 
L 184.169866 213.782045 
L 185.185427 213.816311 
L 185.439317 214.092222 
L 185.693207 214.016211 
L 185.947098 213.701487 
L 186.200988 214.025153 
L 187.216549 213.75331 
L 187.470439 213.968264 
L 187.724329 213.875833 
L 188.486 213.912108 
L 188.73989 213.855915 
L 188.993781 213.983286 
L 190.263232 213.726272 
L 190.517122 213.917812 
L 190.771012 213.756102 
L 191.024903 213.733288 
L 191.532683 213.983657 
L 191.786574 213.902115 
L 192.040464 214.004926 
L 192.294354 213.827233 
L 192.548244 214.018164 
L 194.071586 213.695536 
L 194.579366 213.910007 
L 194.833257 213.690095 
L 195.341037 213.915027 
L 195.594927 213.973435 
L 196.102708 213.81679 
L 196.610488 213.844544 
L 197.372159 213.730047 
L 197.87994 213.827161 
L 198.38772 213.719427 
L 198.64161 213.932738 
L 198.895501 213.82108 
L 200.418842 214.00584 
L 200.672732 213.787995 
L 201.180513 214.003053 
L 201.434403 213.772646 
L 201.942184 214.008801 
L 202.196074 213.711534 
L 202.449964 213.903647 
L 202.703854 213.73522 
L 202.957745 213.897924 
L 203.211635 213.792339 
L 203.973306 213.850278 
L 204.481086 213.84796 
L 204.734976 213.613444 
L 204.988867 213.829984 
L 205.242757 213.731041 
L 205.496647 213.878339 
L 205.750537 213.831778 
L 206.004428 213.938509 
L 206.258318 213.853976 
L 206.512208 213.949336 
L 207.019989 213.755679 
L 207.273879 213.944021 
L 207.78166 213.939612 
L 208.28944 213.825747 
L 209.051111 213.812727 
L 209.305001 213.736948 
L 209.812782 213.856761 
L 210.828343 213.832198 
L 211.590013 213.859893 
L 211.843904 213.786074 
L 212.097794 213.940828 
L 213.621135 213.820917 
L 214.128916 213.910346 
L 214.636696 213.802042 
L 215.398367 213.871051 
L 216.160038 213.796432 
L 216.667818 213.881627 
L 216.921709 213.749326 
L 217.429489 213.804796 
L 217.93727 213.826795 
L 218.69894 213.805807 
L 218.952831 213.94132 
L 219.714501 213.861266 
L 220.222282 213.929055 
L 221.491733 213.9223 
L 222.507294 213.83047 
L 223.015075 213.928363 
L 223.776745 213.927396 
L 224.284526 213.85408 
L 225.553977 213.967149 
L 226.315648 213.889807 
L 228.854551 213.9227 
L 229.362331 213.895262 
L 229.616221 213.897424 
L 230.124002 213.789763 
L 230.631782 213.904597 
L 234.440136 213.84648 
L 235.201807 213.806374 
L 235.709587 213.912032 
L 236.217368 213.893107 
L 236.979039 213.799652 
L 238.50238 213.866449 
L 240.279612 213.903722 
L 241.295173 213.82406 
L 241.802954 213.812903 
L 242.310734 213.911568 
L 242.818515 213.87862 
L 245.357417 213.897675 
L 245.611307 213.832008 
L 246.119088 213.947401 
L 248.15021 213.912124 
L 251.196893 213.829269 
L 251.704673 213.821855 
L 252.212454 213.863262 
L 253.989686 213.89552 
L 254.497466 213.938215 
L 258.05193 213.856175 
L 260.336942 213.916632 
L 261.606393 213.888532 
L 263.383625 213.847922 
L 263.891406 213.83984 
L 264.399186 213.865248 
L 264.906967 213.90587 
L 265.414747 213.93241 
L 266.684198 213.863206 
L 268.20754 213.922229 
L 269.476991 213.873483 
L 270.746442 213.835912 
L 271.254223 213.882048 
L 272.015894 213.870342 
L 272.523674 213.83735 
L 273.031455 213.896166 
L 278.870931 213.876655 
L 279.378711 213.934594 
L 279.886492 213.926408 
L 280.902053 213.881562 
L 281.917614 213.911046 
L 282.425394 213.905863 
L 284.202626 213.883056 
L 284.964297 213.883188 
L 285.472077 213.900789 
L 286.233748 213.914104 
L 293.850456 213.88021 
L 296.643248 213.828319 
L 297.404919 213.935509 
L 298.928261 213.874087 
L 299.689931 213.860737 
L 300.451602 213.89739 
L 301.213273 213.874338 
L 303.498285 213.895848 
L 304.006066 213.890885 
L 304.513846 213.884509 
L 305.021627 213.917623 
L 307.306639 213.937982 
L 308.57609 213.875582 
L 310.099432 213.849688 
L 310.099432 213.849688 
" clip-path="url(#p7e228bae19)" style="fill: none; stroke: #ff0000; stroke-width: 0.6; stroke-linecap: square"/>
   </g>
   <g id="patch_3">
    <path d="M 43.78125 239.76 
L 43.78125 37.296 
" style="fill: none; stroke: #000000; stroke-width: 0.8; stroke-linejoin: miter; stroke-linecap: square"/>
   </g>
   <g id="patch_4">
    <path d="M 322.78125 239.76 
L 322.78125 37.296 
" style="fill: none; stroke: #000000; stroke-width: 0.8; stroke-linejoin: miter; stroke-linecap: square"/>
   </g>
   <g id="patch_5">
    <path d="M 43.78125 239.76 
L 322.78125 239.76 
" style="fill: none; stroke: #000000; stroke-width: 0.8; stroke-linejoin: miter; stroke-linecap: square"/>
   </g>
   <g id="patch_6">
    <path d="M 43.78125 37.296 
L 322.78125 37.296 
" style="fill: none; stroke: #000000; stroke-width: 0.8; stroke-linejoin: miter; stroke-linecap: square"/>
   </g>
   <g id="text_16">
    <!-- Quantized-16 Model -->
    <g transform="translate(137.983828 31.296) scale(0.09 -0.09)">
     <defs>
      <path id="DejaVuSans-51" d="M 2522 4238 
Q 1834 4238 1429 3725 
Q 1025 3213 1025 2328 
Q 1025 1447 1429 934 
Q 1834 422 2522 422 
Q 3209 422 3611 934 
Q 4013 1447 4013 2328 
Q 4013 3213 3611 3725 
Q 3209 4238 2522 4238 
z
M 3406 84 
L 4238 -825 
L 3475 -825 
L 2784 -78 
Q 2681 -84 2626 -87 
Q 2572 -91 2522 -91 
Q 1538 -91 948 567 
Q 359 1225 359 2328 
Q 359 3434 948 4092 
Q 1538 4750 2522 4750 
Q 3503 4750 4090 4092 
Q 4678 3434 4678 2328 
Q 4678 1516 4351 937 
Q 4025 359 3406 84 
z
" transform="scale(0.015625)"/>
      <path id="DejaVuSans-75" d="M 544 1381 
L 544 3500 
L 1119 3500 
L 1119 1403 
Q 1119 906 1312 657 
Q 1506 409 1894 409 
Q 2359 409 2629 706 
Q 2900 1003 2900 1516 
L 2900 3500 
L 3475 3500 
L 3475 0 
L 2900 0 
L 2900 538 
Q 2691 219 2414 64 
Q 2138 -91 1772 -91 
Q 1169 -91 856 284 
Q 544 659 544 1381 
z
M 1991 3584 
L 1991 3584 
z
" transform="scale(0.015625)"/>
      <path id="DejaVuSans-61" d="M 2194 1759 
Q 1497 1759 1228 1600 
Q 959 1441 959 1056 
Q 959 750 1161 570 
Q 1363 391 1709 391 
Q 2188 391 2477 730 
Q 2766 1069 2766 1631 
L 2766 1759 
L 2194 1759 
z
M 3341 1997 
L 3341 0 
L 2766 0 
L 2766 531 
Q 2569 213 2275 61 
Q 1981 -91 1556 -91 
Q 1019 -91 701 211 
Q 384 513 384 1019 
Q 384 1609 779 1909 
Q 1175 2209 1959 2209 
L 2766 2209 
L 2766 2266 
Q 2766 2663 2505 2880 
Q 2244 3097 1772 3097 
Q 1472 3097 1187 3025 
Q 903 2953 641 2809 
L 641 3341 
Q 956 3463 1253 3523 
Q 1550 3584 1831 3584 
Q 2591 3584 2966 3190 
Q 3341 2797 3341 1997 
z
" transform="scale(0.015625)"/>
      <path id="DejaVuSans-6e" d="M 3513 2113 
L 3513 0 
L 2938 0 
L 2938 2094 
Q 2938 2591 2744 2837 
Q 2550 3084 2163 3084 
Q 1697 3084 1428 2787 
Q 1159 2491 1159 1978 
L 1159 0 
L 581 0 
L 581 3500 
L 1159 3500 
L 1159 2956 
Q 1366 3272 1645 3428 
Q 1925 3584 2291 3584 
Q 2894 3584 3203 3211 
Q 3513 2838 3513 2113 
z
" transform="scale(0.015625)"/>
      <path id="DejaVuSans-74" d="M 1172 4494 
L 1172 3500 
L 2356 3500 
L 2356 3053 
L 1172 3053 
L 1172 1153 
Q 1172 725 1289 603 
Q 1406 481 1766 481 
L 2356 481 
L 2356 0 
L 1766 0 
Q 1100 0 847 248 
Q 594 497 594 1153 
L 594 3053 
L 172 3053 
L 172 3500 
L 594 3500 
L 594 4494 
L 1172 4494 
z
" transform="scale(0.015625)"/>
      <path id="DejaVuSans-69" d="M 603 3500 
L 1178 3500 
L 1178 0 
L 603 0 
L 603 3500 
z
M 603 4863 
L 1178 4863 
L 1178 4134 
L 603 4134 
L 603 4863 
z
" transform="scale(0.015625)"/>
      <path id="DejaVuSans-7a" d="M 353 3500 
L 3084 3500 
L 3084 2975 
L 922 459 
L 3084 459 
L 3084 0 
L 275 0 
L 275 525 
L 2438 3041 
L 353 3041 
L 353 3500 
z
" transform="scale(0.015625)"/>
      <path id="DejaVuSans-65" d="M 3597 1894 
L 3597 1613 
L 953 1613 
Q 991 1019 1311 708 
Q 1631 397 2203 397 
Q 2534 397 2845 478 
Q 3156 559 3463 722 
L 3463 178 
Q 3153 47 2828 -22 
Q 2503 -91 2169 -91 
Q 1331 -91 842 396 
Q 353 884 353 1716 
Q 353 2575 817 3079 
Q 1281 3584 2069 3584 
Q 2775 3584 3186 3129 
Q 3597 2675 3597 1894 
z
M 3022 2063 
Q 3016 2534 2758 2815 
Q 2500 3097 2075 3097 
Q 1594 3097 1305 2825 
Q 1016 2553 972 2059 
L 3022 2063 
z
" transform="scale(0.015625)"/>
      <path id="DejaVuSans-64" d="M 2906 2969 
L 2906 4863 
L 3481 4863 
L 3481 0 
L 2906 0 
L 2906 525 
Q 2725 213 2448 61 
Q 2172 -91 1784 -91 
Q 1150 -91 751 415 
Q 353 922 353 1747 
Q 353 2572 751 3078 
Q 1150 3584 1784 3584 
Q 2172 3584 2448 3432 
Q 2725 3281 2906 2969 
z
M 947 1747 
Q 947 1113 1208 752 
Q 1469 391 1925 391 
Q 2381 391 2643 752 
Q 2906 1113 2906 1747 
Q 2906 2381 2643 2742 
Q 2381 3103 1925 3103 
Q 1469 3103 1208 2742 
Q 947 2381 947 1747 
z
" transform="scale(0.015625)"/>
      <path id="DejaVuSans-2d" d="M 313 2009 
L 1997 2009 
L 1997 1497 
L 313 1497 
L 313 2009 
z
" transform="scale(0.015625)"/>
      <path id="DejaVuSans-20" transform="scale(0.015625)"/>
      <path id="DejaVuSans-4d" d="M 628 4666 
L 1569 4666 
L 2759 1491 
L 3956 4666 
L 4897 4666 
L 4897 0 
L 4281 0 
L 4281 4097 
L 3078 897 
L 2444 897 
L 1241 4097 
L 1241 0 
L 628 0 
L 628 4666 
z
" transform="scale(0.015625)"/>
      <path id="DejaVuSans-6c" d="M 603 4863 
L 1178 4863 
L 1178 0 
L 603 0 
L 603 4863 
z
" transform="scale(0.015625)"/>
     </defs>
     <use xlink:href="#DejaVuSans-51"/>
     <use xlink:href="#DejaVuSans-75" x="78.710938"/>
     <use xlink:href="#DejaVuSans-61" x="142.089844"/>
     <use xlink:href="#DejaVuSans-6e" x="203.369141"/>
     <use xlink:href="#DejaVuSans-74" x="266.748047"/>
     <use xlink:href="#DejaVuSans-69" x="305.957031"/>
     <use xlink:href="#DejaVuSans-7a" x="333.740234"/>
     <use xlink:href="#DejaVuSans-65" x="386.230469"/>
     <use xlink:href="#DejaVuSans-64" x="447.753906"/>
     <use xlink:href="#DejaVuSans-2d" x="511.230469"/>
     <use xlink:href="#DejaVuSans-31" x="547.314453"/>
     <use xlink:href="#DejaVuSans-36" x="610.9375"/>
     <use xlink:href="#DejaVuSans-20" x="674.560547"/>
     <use xlink:href="#DejaVuSans-4d" x="706.347656"/>
     <use xlink:href="#DejaVuSans-6f" x="792.626953"/>
     <use xlink:href="#DejaVuSans-64" x="853.808594"/>
     <use xlink:href="#DejaVuSans-65" x="917.285156"/>
     <use xlink:href="#DejaVuSans-6c" x="978.808594"/>
    </g>
   </g>
   <g id="legend_1">
    <g id="patch_7">
     <path d="M 209.2875 74.65225 
L 315.78125 74.65225 
Q 317.78125 74.65225 317.78125 72.65225 
L 317.78125 44.296 
Q 317.78125 42.296 315.78125 42.296 
L 209.2875 42.296 
Q 207.2875 42.296 207.2875 44.296 
L 207.2875 72.65225 
Q 207.2875 74.65225 209.2875 74.65225 
z
" style="fill: #ffffff; opacity: 0.8; stroke: #cccccc; stroke-linejoin: miter"/>
    </g>
    <g id="line2d_29">
     <path d="M 211.2875 50.394438 
L 221.2875 50.394438 
L 231.2875 50.394438 
" style="fill: none; stroke: #0000ff; stroke-width: 0.6; stroke-linecap: square"/>
    </g>
    <g id="text_17">
     <!-- Training Loss -->
     <g transform="translate(239.2875 53.894438) scale(0.1 -0.1)">
      <defs>
       <path id="DejaVuSans-54" d="M -19 4666 
L 3928 4666 
L 3928 4134 
L 2272 4134 
L 2272 0 
L 1638 0 
L 1638 4134 
L -19 4134 
L -19 4666 
z
" transform="scale(0.015625)"/>
       <path id="DejaVuSans-72" d="M 2631 2963 
Q 2534 3019 2420 3045 
Q 2306 3072 2169 3072 
Q 1681 3072 1420 2755 
Q 1159 2438 1159 1844 
L 1159 0 
L 581 0 
L 581 3500 
L 1159 3500 
L 1159 2956 
Q 1341 3275 1631 3429 
Q 1922 3584 2338 3584 
Q 2397 3584 2469 3576 
Q 2541 3569 2628 3553 
L 2631 2963 
z
" transform="scale(0.015625)"/>
       <path id="DejaVuSans-67" d="M 2906 1791 
Q 2906 2416 2648 2759 
Q 2391 3103 1925 3103 
Q 1463 3103 1205 2759 
Q 947 2416 947 1791 
Q 947 1169 1205 825 
Q 1463 481 1925 481 
Q 2391 481 2648 825 
Q 2906 1169 2906 1791 
z
M 3481 434 
Q 3481 -459 3084 -895 
Q 2688 -1331 1869 -1331 
Q 1566 -1331 1297 -1286 
Q 1028 -1241 775 -1147 
L 775 -588 
Q 1028 -725 1275 -790 
Q 1522 -856 1778 -856 
Q 2344 -856 2625 -561 
Q 2906 -266 2906 331 
L 2906 616 
Q 2728 306 2450 153 
Q 2172 0 1784 0 
Q 1141 0 747 490 
Q 353 981 353 1791 
Q 353 2603 747 3093 
Q 1141 3584 1784 3584 
Q 2172 3584 2450 3431 
Q 2728 3278 2906 2969 
L 2906 3500 
L 3481 3500 
L 3481 434 
z
" transform="scale(0.015625)"/>
      </defs>
      <use xlink:href="#DejaVuSans-54"/>
      <use xlink:href="#DejaVuSans-72" x="46.333984"/>
      <use xlink:href="#DejaVuSans-61" x="87.447266"/>
      <use xlink:href="#DejaVuSans-69" x="148.726562"/>
      <use xlink:href="#DejaVuSans-6e" x="176.509766"/>
      <use xlink:href="#DejaVuSans-69" x="239.888672"/>
      <use xlink:href="#DejaVuSans-6e" x="267.671875"/>
      <use xlink:href="#DejaVuSans-67" x="331.050781"/>
      <use xlink:href="#DejaVuSans-20" x="394.527344"/>
      <use xlink:href="#DejaVuSans-4c" x="426.314453"/>
      <use xlink:href="#DejaVuSans-6f" x="480.277344"/>
      <use xlink:href="#DejaVuSans-73" x="541.458984"/>
      <use xlink:href="#DejaVuSans-73" x="593.558594"/>
     </g>
    </g>
    <g id="line2d_30">
     <path d="M 211.2875 65.072563 
L 221.2875 65.072563 
L 231.2875 65.072563 
" style="fill: none; stroke: #ff0000; stroke-width: 0.6; stroke-linecap: square"/>
    </g>
    <g id="text_18">
     <!-- Validation Loss -->
     <g transform="translate(239.2875 68.572563) scale(0.1 -0.1)">
      <defs>
       <path id="DejaVuSans-56" d="M 1831 0 
L 50 4666 
L 709 4666 
L 2188 738 
L 3669 4666 
L 4325 4666 
L 2547 0 
L 1831 0 
z
" transform="scale(0.015625)"/>
      </defs>
      <use xlink:href="#DejaVuSans-56"/>
      <use xlink:href="#DejaVuSans-61" x="60.658203"/>
      <use xlink:href="#DejaVuSans-6c" x="121.9375"/>
      <use xlink:href="#DejaVuSans-69" x="149.720703"/>
      <use xlink:href="#DejaVuSans-64" x="177.503906"/>
      <use xlink:href="#DejaVuSans-61" x="240.980469"/>
      <use xlink:href="#DejaVuSans-74" x="302.259766"/>
      <use xlink:href="#DejaVuSans-69" x="341.46875"/>
      <use xlink:href="#DejaVuSans-6f" x="369.251953"/>
      <use xlink:href="#DejaVuSans-6e" x="430.433594"/>
      <use xlink:href="#DejaVuSans-20" x="493.8125"/>
      <use xlink:href="#DejaVuSans-4c" x="525.599609"/>
      <use xlink:href="#DejaVuSans-6f" x="579.5625"/>
      <use xlink:href="#DejaVuSans-73" x="640.744141"/>
      <use xlink:href="#DejaVuSans-73" x="692.84375"/>
     </g>
    </g>
   </g>
  </g>
  <g id="text_19">
   <!-- Training VS. Validation Loss - Dataset Size = 100.0% -->
   <g transform="translate(34.481016 15.558281) scale(0.11 -0.11)">
    <defs>
     <path id="DejaVuSans-53" d="M 3425 4513 
L 3425 3897 
Q 3066 4069 2747 4153 
Q 2428 4238 2131 4238 
Q 1616 4238 1336 4038 
Q 1056 3838 1056 3469 
Q 1056 3159 1242 3001 
Q 1428 2844 1947 2747 
L 2328 2669 
Q 3034 2534 3370 2195 
Q 3706 1856 3706 1288 
Q 3706 609 3251 259 
Q 2797 -91 1919 -91 
Q 1588 -91 1214 -16 
Q 841 59 441 206 
L 441 856 
Q 825 641 1194 531 
Q 1563 422 1919 422 
Q 2459 422 2753 634 
Q 3047 847 3047 1241 
Q 3047 1584 2836 1778 
Q 2625 1972 2144 2069 
L 1759 2144 
Q 1053 2284 737 2584 
Q 422 2884 422 3419 
Q 422 4038 858 4394 
Q 1294 4750 2059 4750 
Q 2388 4750 2728 4690 
Q 3069 4631 3425 4513 
z
" transform="scale(0.015625)"/>
     <path id="DejaVuSans-44" d="M 1259 4147 
L 1259 519 
L 2022 519 
Q 2988 519 3436 956 
Q 3884 1394 3884 2338 
Q 3884 3275 3436 3711 
Q 2988 4147 2022 4147 
L 1259 4147 
z
M 628 4666 
L 1925 4666 
Q 3281 4666 3915 4102 
Q 4550 3538 4550 2338 
Q 4550 1131 3912 565 
Q 3275 0 1925 0 
L 628 0 
L 628 4666 
z
" transform="scale(0.015625)"/>
     <path id="DejaVuSans-3d" d="M 678 2906 
L 4684 2906 
L 4684 2381 
L 678 2381 
L 678 2906 
z
M 678 1631 
L 4684 1631 
L 4684 1100 
L 678 1100 
L 678 1631 
z
" transform="scale(0.015625)"/>
     <path id="DejaVuSans-25" d="M 4653 2053 
Q 4381 2053 4226 1822 
Q 4072 1591 4072 1178 
Q 4072 772 4226 539 
Q 4381 306 4653 306 
Q 4919 306 5073 539 
Q 5228 772 5228 1178 
Q 5228 1588 5073 1820 
Q 4919 2053 4653 2053 
z
M 4653 2450 
Q 5147 2450 5437 2106 
Q 5728 1763 5728 1178 
Q 5728 594 5436 251 
Q 5144 -91 4653 -91 
Q 4153 -91 3862 251 
Q 3572 594 3572 1178 
Q 3572 1766 3864 2108 
Q 4156 2450 4653 2450 
z
M 1428 4353 
Q 1159 4353 1004 4120 
Q 850 3888 850 3481 
Q 850 3069 1003 2837 
Q 1156 2606 1428 2606 
Q 1700 2606 1854 2837 
Q 2009 3069 2009 3481 
Q 2009 3884 1853 4118 
Q 1697 4353 1428 4353 
z
M 4250 4750 
L 4750 4750 
L 1831 -91 
L 1331 -91 
L 4250 4750 
z
M 1428 4750 
Q 1922 4750 2215 4408 
Q 2509 4066 2509 3481 
Q 2509 2891 2217 2550 
Q 1925 2209 1428 2209 
Q 931 2209 642 2551 
Q 353 2894 353 3481 
Q 353 4063 643 4406 
Q 934 4750 1428 4750 
z
" transform="scale(0.015625)"/>
    </defs>
    <use xlink:href="#DejaVuSans-54"/>
    <use xlink:href="#DejaVuSans-72" x="46.333984"/>
    <use xlink:href="#DejaVuSans-61" x="87.447266"/>
    <use xlink:href="#DejaVuSans-69" x="148.726562"/>
    <use xlink:href="#DejaVuSans-6e" x="176.509766"/>
    <use xlink:href="#DejaVuSans-69" x="239.888672"/>
    <use xlink:href="#DejaVuSans-6e" x="267.671875"/>
    <use xlink:href="#DejaVuSans-67" x="331.050781"/>
    <use xlink:href="#DejaVuSans-20" x="394.527344"/>
    <use xlink:href="#DejaVuSans-56" x="426.314453"/>
    <use xlink:href="#DejaVuSans-53" x="494.722656"/>
    <use xlink:href="#DejaVuSans-2e" x="558.199219"/>
    <use xlink:href="#DejaVuSans-20" x="589.986328"/>
    <use xlink:href="#DejaVuSans-56" x="621.773438"/>
    <use xlink:href="#DejaVuSans-61" x="682.431641"/>
    <use xlink:href="#DejaVuSans-6c" x="743.710938"/>
    <use xlink:href="#DejaVuSans-69" x="771.494141"/>
    <use xlink:href="#DejaVuSans-64" x="799.277344"/>
    <use xlink:href="#DejaVuSans-61" x="862.753906"/>
    <use xlink:href="#DejaVuSans-74" x="924.033203"/>
    <use xlink:href="#DejaVuSans-69" x="963.242188"/>
    <use xlink:href="#DejaVuSans-6f" x="991.025391"/>
    <use xlink:href="#DejaVuSans-6e" x="1052.207031"/>
    <use xlink:href="#DejaVuSans-20" x="1115.585938"/>
    <use xlink:href="#DejaVuSans-4c" x="1147.373047"/>
    <use xlink:href="#DejaVuSans-6f" x="1201.335938"/>
    <use xlink:href="#DejaVuSans-73" x="1262.517578"/>
    <use xlink:href="#DejaVuSans-73" x="1314.617188"/>
    <use xlink:href="#DejaVuSans-20" x="1366.716797"/>
    <use xlink:href="#DejaVuSans-2d" x="1398.503906"/>
    <use xlink:href="#DejaVuSans-20" x="1434.587891"/>
    <use xlink:href="#DejaVuSans-44" x="1466.375"/>
    <use xlink:href="#DejaVuSans-61" x="1543.376953"/>
    <use xlink:href="#DejaVuSans-74" x="1604.65625"/>
    <use xlink:href="#DejaVuSans-61" x="1643.865234"/>
    <use xlink:href="#DejaVuSans-73" x="1705.144531"/>
    <use xlink:href="#DejaVuSans-65" x="1757.244141"/>
    <use xlink:href="#DejaVuSans-74" x="1818.767578"/>
    <use xlink:href="#DejaVuSans-20" x="1857.976562"/>
    <use xlink:href="#DejaVuSans-53" x="1889.763672"/>
    <use xlink:href="#DejaVuSans-69" x="1953.240234"/>
    <use xlink:href="#DejaVuSans-7a" x="1981.023438"/>
    <use xlink:href="#DejaVuSans-65" x="2033.513672"/>
    <use xlink:href="#DejaVuSans-20" x="2095.037109"/>
    <use xlink:href="#DejaVuSans-3d" x="2126.824219"/>
    <use xlink:href="#DejaVuSans-20" x="2210.613281"/>
    <use xlink:href="#DejaVuSans-31" x="2242.400391"/>
    <use xlink:href="#DejaVuSans-30" x="2306.023438"/>
    <use xlink:href="#DejaVuSans-30" x="2369.646484"/>
    <use xlink:href="#DejaVuSans-2e" x="2433.269531"/>
    <use xlink:href="#DejaVuSans-30" x="2465.056641"/>
    <use xlink:href="#DejaVuSans-25" x="2528.679688"/>
   </g>
  </g>
 </g>
 <defs>
  <clipPath id="p7e228bae19">
   <rect x="43.78125" y="37.296" width="279" height="202.464"/>
  </clipPath>
 </defs>
</svg>
