<?xml version="1.0" encoding="utf-8" standalone="no"?>
<!DOCTYPE svg PUBLIC "-//W3C//DTD SVG 1.1//EN"
  "http://www.w3.org/Graphics/SVG/1.1/DTD/svg11.dtd">
<svg xmlns:xlink="http://www.w3.org/1999/xlink" width="336.643984pt" height="277.31625pt" viewBox="0 0 336.643984 277.31625" xmlns="http://www.w3.org/2000/svg" version="1.1">
 <metadata>
  <rdf:RDF xmlns:dc="http://purl.org/dc/elements/1.1/" xmlns:cc="http://creativecommons.org/ns#" xmlns:rdf="http://www.w3.org/1999/02/22-rdf-syntax-ns#">
   <cc:Work>
    <dc:type rdf:resource="http://purl.org/dc/dcmitype/StillImage"/>
    <dc:date>2026-06-11T15:34:55.544128</dc:date>
    <dc:format>image/svg+xml</dc:format>
    <dc:creator>
     <cc:Agent>
      <dc:title>Matplotlib v3.8.4, https://matplotlib.org/</dc:title>
     </cc:Agent>
    </dc:creator>
   </cc:Work>
  </rdf:RDF>
 </metadata>
 <defs>
  <style type="text/css">*{stroke-linejoin: round; stroke-linecap: butt}</style>
 </defs>
 <g id="figure_1">
  <g id="patch_1">
   <path d="M 0 277.31625 
L 336.643984 277.31625 
L 336.643984 0 
L 0 0 
z
" style="fill: #ffffff"/>
  </g>
  <g id="axes_1">
   <g id="patch_2">
    <path d="M 50.14375 239.76 
L 329.14375 239.76 
L 329.14375 37.296 
L 50.14375 37.296 
z
" style="fill: #ffffff"/>
   </g>
   <g id="matplotlib.axis_1">
    <g id="xtick_1">
     <g id="line2d_1">
      <path d="M 62.571678 239.76 
L 62.571678 37.296 
" clip-path="url(#p67ee9264e4)" style="fill: none; stroke-dasharray: 2.96,1.28; stroke-dashoffset: 0; stroke: #b0b0b0; stroke-opacity: 0.4; stroke-width: 0.8"/>
     </g>
     <g id="line2d_2">
      <defs>
       <path id="m0a9f6cdaf9" d="M 0 0 
L 0 3.5 
" style="stroke: #000000; stroke-width: 0.8"/>
      </defs>
      <g>
       <use xlink:href="#m0a9f6cdaf9" x="62.571678" y="239.76" style="stroke: #000000; stroke-width: 0.8"/>
      </g>
     </g>
     <g id="text_1">
      <!-- 0 -->
      <g transform="translate(59.390428 254.358437) scale(0.1 -0.1)">
       <defs>
        <path id="DejaVuSans-30" d="M 2034 4250 
Q 1547 4250 1301 3770 
Q 1056 3291 1056 2328 
Q 1056 1369 1301 889 
Q 1547 409 2034 409 
Q 2525 409 2770 889 
Q 3016 1369 3016 2328 
Q 3016 3291 2770 3770 
Q 2525 4250 2034 4250 
z
M 2034 4750 
Q 2819 4750 3233 4129 
Q 3647 3509 3647 2328 
Q 3647 1150 3233 529 
Q 2819 -91 2034 -91 
Q 1250 -91 836 529 
Q 422 1150 422 2328 
Q 422 3509 836 4129 
Q 1250 4750 2034 4750 
z
" transform="scale(0.015625)"/>
       </defs>
       <use xlink:href="#DejaVuSans-30"/>
      </g>
     </g>
    </g>
    <g id="xtick_2">
     <g id="line2d_3">
      <path d="M 113.349729 239.76 
L 113.349729 37.296 
" clip-path="url(#p67ee9264e4)" style="fill: none; stroke-dasharray: 2.96,1.28; stroke-dashoffset: 0; stroke: #b0b0b0; stroke-opacity: 0.4; stroke-width: 0.8"/>
     </g>
     <g id="line2d_4">
      <g>
       <use xlink:href="#m0a9f6cdaf9" x="113.349729" y="239.76" style="stroke: #000000; stroke-width: 0.8"/>
      </g>
     </g>
     <g id="text_2">
      <!-- 200 -->
      <g transform="translate(103.805979 254.358437) scale(0.1 -0.1)">
       <defs>
        <path id="DejaVuSans-32" d="M 1228 531 
L 3431 531 
L 3431 0 
L 469 0 
L 469 531 
Q 828 903 1448 1529 
Q 2069 2156 2228 2338 
Q 2531 2678 2651 2914 
Q 2772 3150 2772 3378 
Q 2772 3750 2511 3984 
Q 2250 4219 1831 4219 
Q 1534 4219 1204 4116 
Q 875 4013 500 3803 
L 500 4441 
Q 881 4594 1212 4672 
Q 1544 4750 1819 4750 
Q 2544 4750 2975 4387 
Q 3406 4025 3406 3419 
Q 3406 3131 3298 2873 
Q 3191 2616 2906 2266 
Q 2828 2175 2409 1742 
Q 1991 1309 1228 531 
z
" transform="scale(0.015625)"/>
       </defs>
       <use xlink:href="#DejaVuSans-32"/>
       <use xlink:href="#DejaVuSans-30" x="63.623047"/>
       <use xlink:href="#DejaVuSans-30" x="127.246094"/>
      </g>
     </g>
    </g>
    <g id="xtick_3">
     <g id="line2d_5">
      <path d="M 164.127779 239.76 
L 164.127779 37.296 
" clip-path="url(#p67ee9264e4)" style="fill: none; stroke-dasharray: 2.96,1.28; stroke-dashoffset: 0; stroke: #b0b0b0; stroke-opacity: 0.4; stroke-width: 0.8"/>
     </g>
     <g id="line2d_6">
      <g>
       <use xlink:href="#m0a9f6cdaf9" x="164.127779" y="239.76" style="stroke: #000000; stroke-width: 0.8"/>
      </g>
     </g>
     <g id="text_3">
      <!-- 400 -->
      <g transform="translate(154.584029 254.358437) scale(0.1 -0.1)">
       <defs>
        <path id="DejaVuSans-34" d="M 2419 4116 
L 825 1625 
L 2419 1625 
L 2419 4116 
z
M 2253 4666 
L 3047 4666 
L 3047 1625 
L 3713 1625 
L 3713 1100 
L 3047 1100 
L 3047 0 
L 2419 0 
L 2419 1100 
L 313 1100 
L 313 1709 
L 2253 4666 
z
" transform="scale(0.015625)"/>
       </defs>
       <use xlink:href="#DejaVuSans-34"/>
       <use xlink:href="#DejaVuSans-30" x="63.623047"/>
       <use xlink:href="#DejaVuSans-30" x="127.246094"/>
      </g>
     </g>
    </g>
    <g id="xtick_4">
     <g id="line2d_7">
      <path d="M 214.90583 239.76 
L 214.90583 37.296 
" clip-path="url(#p67ee9264e4)" style="fill: none; stroke-dasharray: 2.96,1.28; stroke-dashoffset: 0; stroke: #b0b0b0; stroke-opacity: 0.4; stroke-width: 0.8"/>
     </g>
     <g id="line2d_8">
      <g>
       <use xlink:href="#m0a9f6cdaf9" x="214.90583" y="239.76" style="stroke: #000000; stroke-width: 0.8"/>
      </g>
     </g>
     <g id="text_4">
      <!-- 600 -->
      <g transform="translate(205.36208 254.358437) scale(0.1 -0.1)">
       <defs>
        <path id="DejaVuSans-36" d="M 2113 2584 
Q 1688 2584 1439 2293 
Q 1191 2003 1191 1497 
Q 1191 994 1439 701 
Q 1688 409 2113 409 
Q 2538 409 2786 701 
Q 3034 994 3034 1497 
Q 3034 2003 2786 2293 
Q 2538 2584 2113 2584 
z
M 3366 4563 
L 3366 3988 
Q 3128 4100 2886 4159 
Q 2644 4219 2406 4219 
Q 1781 4219 1451 3797 
Q 1122 3375 1075 2522 
Q 1259 2794 1537 2939 
Q 1816 3084 2150 3084 
Q 2853 3084 3261 2657 
Q 3669 2231 3669 1497 
Q 3669 778 3244 343 
Q 2819 -91 2113 -91 
Q 1303 -91 875 529 
Q 447 1150 447 2328 
Q 447 3434 972 4092 
Q 1497 4750 2381 4750 
Q 2619 4750 2861 4703 
Q 3103 4656 3366 4563 
z
" transform="scale(0.015625)"/>
       </defs>
       <use xlink:href="#DejaVuSans-36"/>
       <use xlink:href="#DejaVuSans-30" x="63.623047"/>
       <use xlink:href="#DejaVuSans-30" x="127.246094"/>
      </g>
     </g>
    </g>
    <g id="xtick_5">
     <g id="line2d_9">
      <path d="M 265.683881 239.76 
L 265.683881 37.296 
" clip-path="url(#p67ee9264e4)" style="fill: none; stroke-dasharray: 2.96,1.28; stroke-dashoffset: 0; stroke: #b0b0b0; stroke-opacity: 0.4; stroke-width: 0.8"/>
     </g>
     <g id="line2d_10">
      <g>
       <use xlink:href="#m0a9f6cdaf9" x="265.683881" y="239.76" style="stroke: #000000; stroke-width: 0.8"/>
      </g>
     </g>
     <g id="text_5">
      <!-- 800 -->
      <g transform="translate(256.140131 254.358437) scale(0.1 -0.1)">
       <defs>
        <path id="DejaVuSans-38" d="M 2034 2216 
Q 1584 2216 1326 1975 
Q 1069 1734 1069 1313 
Q 1069 891 1326 650 
Q 1584 409 2034 409 
Q 2484 409 2743 651 
Q 3003 894 3003 1313 
Q 3003 1734 2745 1975 
Q 2488 2216 2034 2216 
z
M 1403 2484 
Q 997 2584 770 2862 
Q 544 3141 544 3541 
Q 544 4100 942 4425 
Q 1341 4750 2034 4750 
Q 2731 4750 3128 4425 
Q 3525 4100 3525 3541 
Q 3525 3141 3298 2862 
Q 3072 2584 2669 2484 
Q 3125 2378 3379 2068 
Q 3634 1759 3634 1313 
Q 3634 634 3220 271 
Q 2806 -91 2034 -91 
Q 1263 -91 848 271 
Q 434 634 434 1313 
Q 434 1759 690 2068 
Q 947 2378 1403 2484 
z
M 1172 3481 
Q 1172 3119 1398 2916 
Q 1625 2713 2034 2713 
Q 2441 2713 2670 2916 
Q 2900 3119 2900 3481 
Q 2900 3844 2670 4047 
Q 2441 4250 2034 4250 
Q 1625 4250 1398 4047 
Q 1172 3844 1172 3481 
z
" transform="scale(0.015625)"/>
       </defs>
       <use xlink:href="#DejaVuSans-38"/>
       <use xlink:href="#DejaVuSans-30" x="63.623047"/>
       <use xlink:href="#DejaVuSans-30" x="127.246094"/>
      </g>
     </g>
    </g>
    <g id="xtick_6">
     <g id="line2d_11">
      <path d="M 316.461932 239.76 
L 316.461932 37.296 
" clip-path="url(#p67ee9264e4)" style="fill: none; stroke-dasharray: 2.96,1.28; stroke-dashoffset: 0; stroke: #b0b0b0; stroke-opacity: 0.4; stroke-width: 0.8"/>
     </g>
     <g id="line2d_12">
      <g>
       <use xlink:href="#m0a9f6cdaf9" x="316.461932" y="239.76" style="stroke: #000000; stroke-width: 0.8"/>
      </g>
     </g>
     <g id="text_6">
      <!-- 1000 -->
      <g transform="translate(303.736932 254.358437) scale(0.1 -0.1)">
       <defs>
        <path id="DejaVuSans-31" d="M 794 531 
L 1825 531 
L 1825 4091 
L 703 3866 
L 703 4441 
L 1819 4666 
L 2450 4666 
L 2450 531 
L 3481 531 
L 3481 0 
L 794 0 
L 794 531 
z
" transform="scale(0.015625)"/>
       </defs>
       <use xlink:href="#DejaVuSans-31"/>
       <use xlink:href="#DejaVuSans-30" x="63.623047"/>
       <use xlink:href="#DejaVuSans-30" x="127.246094"/>
       <use xlink:href="#DejaVuSans-30" x="190.869141"/>
      </g>
     </g>
    </g>
    <g id="text_7">
     <!-- Epochs -->
     <g transform="translate(171.728125 268.036562) scale(0.1 -0.1)">
      <defs>
       <path id="DejaVuSans-45" d="M 628 4666 
L 3578 4666 
L 3578 4134 
L 1259 4134 
L 1259 2753 
L 3481 2753 
L 3481 2222 
L 1259 2222 
L 1259 531 
L 3634 531 
L 3634 0 
L 628 0 
L 628 4666 
z
" transform="scale(0.015625)"/>
       <path id="DejaVuSans-70" d="M 1159 525 
L 1159 -1331 
L 581 -1331 
L 581 3500 
L 1159 3500 
L 1159 2969 
Q 1341 3281 1617 3432 
Q 1894 3584 2278 3584 
Q 2916 3584 3314 3078 
Q 3713 2572 3713 1747 
Q 3713 922 3314 415 
Q 2916 -91 2278 -91 
Q 1894 -91 1617 61 
Q 1341 213 1159 525 
z
M 3116 1747 
Q 3116 2381 2855 2742 
Q 2594 3103 2138 3103 
Q 1681 3103 1420 2742 
Q 1159 2381 1159 1747 
Q 1159 1113 1420 752 
Q 1681 391 2138 391 
Q 2594 391 2855 752 
Q 3116 1113 3116 1747 
z
" transform="scale(0.015625)"/>
       <path id="DejaVuSans-6f" d="M 1959 3097 
Q 1497 3097 1228 2736 
Q 959 2375 959 1747 
Q 959 1119 1226 758 
Q 1494 397 1959 397 
Q 2419 397 2687 759 
Q 2956 1122 2956 1747 
Q 2956 2369 2687 2733 
Q 2419 3097 1959 3097 
z
M 1959 3584 
Q 2709 3584 3137 3096 
Q 3566 2609 3566 1747 
Q 3566 888 3137 398 
Q 2709 -91 1959 -91 
Q 1206 -91 779 398 
Q 353 888 353 1747 
Q 353 2609 779 3096 
Q 1206 3584 1959 3584 
z
" transform="scale(0.015625)"/>
       <path id="DejaVuSans-63" d="M 3122 3366 
L 3122 2828 
Q 2878 2963 2633 3030 
Q 2388 3097 2138 3097 
Q 1578 3097 1268 2742 
Q 959 2388 959 1747 
Q 959 1106 1268 751 
Q 1578 397 2138 397 
Q 2388 397 2633 464 
Q 2878 531 3122 666 
L 3122 134 
Q 2881 22 2623 -34 
Q 2366 -91 2075 -91 
Q 1284 -91 818 406 
Q 353 903 353 1747 
Q 353 2603 823 3093 
Q 1294 3584 2113 3584 
Q 2378 3584 2631 3529 
Q 2884 3475 3122 3366 
z
" transform="scale(0.015625)"/>
       <path id="DejaVuSans-68" d="M 3513 2113 
L 3513 0 
L 2938 0 
L 2938 2094 
Q 2938 2591 2744 2837 
Q 2550 3084 2163 3084 
Q 1697 3084 1428 2787 
Q 1159 2491 1159 1978 
L 1159 0 
L 581 0 
L 581 4863 
L 1159 4863 
L 1159 2956 
Q 1366 3272 1645 3428 
Q 1925 3584 2291 3584 
Q 2894 3584 3203 3211 
Q 3513 2838 3513 2113 
z
" transform="scale(0.015625)"/>
       <path id="DejaVuSans-73" d="M 2834 3397 
L 2834 2853 
Q 2591 2978 2328 3040 
Q 2066 3103 1784 3103 
Q 1356 3103 1142 2972 
Q 928 2841 928 2578 
Q 928 2378 1081 2264 
Q 1234 2150 1697 2047 
L 1894 2003 
Q 2506 1872 2764 1633 
Q 3022 1394 3022 966 
Q 3022 478 2636 193 
Q 2250 -91 1575 -91 
Q 1294 -91 989 -36 
Q 684 19 347 128 
L 347 722 
Q 666 556 975 473 
Q 1284 391 1588 391 
Q 1994 391 2212 530 
Q 2431 669 2431 922 
Q 2431 1156 2273 1281 
Q 2116 1406 1581 1522 
L 1381 1569 
Q 847 1681 609 1914 
Q 372 2147 372 2553 
Q 372 3047 722 3315 
Q 1072 3584 1716 3584 
Q 2034 3584 2315 3537 
Q 2597 3491 2834 3397 
z
" transform="scale(0.015625)"/>
      </defs>
      <use xlink:href="#DejaVuSans-45"/>
      <use xlink:href="#DejaVuSans-70" x="63.183594"/>
      <use xlink:href="#DejaVuSans-6f" x="126.660156"/>
      <use xlink:href="#DejaVuSans-63" x="187.841797"/>
      <use xlink:href="#DejaVuSans-68" x="242.822266"/>
      <use xlink:href="#DejaVuSans-73" x="306.201172"/>
     </g>
    </g>
   </g>
   <g id="matplotlib.axis_2">
    <g id="ytick_1">
     <g id="line2d_13">
      <path d="M 50.14375 238.73824 
L 329.14375 238.73824 
" clip-path="url(#p67ee9264e4)" style="fill: none; stroke-dasharray: 2.96,1.28; stroke-dashoffset: 0; stroke: #b0b0b0; stroke-opacity: 0.4; stroke-width: 0.8"/>
     </g>
     <g id="line2d_14">
      <defs>
       <path id="mb6816975d7" d="M 0 0 
L -3.5 0 
" style="stroke: #000000; stroke-width: 0.8"/>
      </defs>
      <g>
       <use xlink:href="#mb6816975d7" x="50.14375" y="238.73824" style="stroke: #000000; stroke-width: 0.8"/>
      </g>
     </g>
     <g id="text_8">
      <!-- 0.00 -->
      <g transform="translate(20.878125 242.537459) scale(0.1 -0.1)">
       <defs>
        <path id="DejaVuSans-2e" d="M 684 794 
L 1344 794 
L 1344 0 
L 684 0 
L 684 794 
z
" transform="scale(0.015625)"/>
       </defs>
       <use xlink:href="#DejaVuSans-30"/>
       <use xlink:href="#DejaVuSans-2e" x="63.623047"/>
       <use xlink:href="#DejaVuSans-30" x="95.410156"/>
       <use xlink:href="#DejaVuSans-30" x="159.033203"/>
      </g>
     </g>
    </g>
    <g id="ytick_2">
     <g id="line2d_15">
      <path d="M 50.14375 213.520352 
L 329.14375 213.520352 
" clip-path="url(#p67ee9264e4)" style="fill: none; stroke-dasharray: 2.96,1.28; stroke-dashoffset: 0; stroke: #b0b0b0; stroke-opacity: 0.4; stroke-width: 0.8"/>
     </g>
     <g id="line2d_16">
      <g>
       <use xlink:href="#mb6816975d7" x="50.14375" y="213.520352" style="stroke: #000000; stroke-width: 0.8"/>
      </g>
     </g>
     <g id="text_9">
      <!-- 0.25 -->
      <g transform="translate(20.878125 217.319571) scale(0.1 -0.1)">
       <defs>
        <path id="DejaVuSans-35" d="M 691 4666 
L 3169 4666 
L 3169 4134 
L 1269 4134 
L 1269 2991 
Q 1406 3038 1543 3061 
Q 1681 3084 1819 3084 
Q 2600 3084 3056 2656 
Q 3513 2228 3513 1497 
Q 3513 744 3044 326 
Q 2575 -91 1722 -91 
Q 1428 -91 1123 -41 
Q 819 9 494 109 
L 494 744 
Q 775 591 1075 516 
Q 1375 441 1709 441 
Q 2250 441 2565 725 
Q 2881 1009 2881 1497 
Q 2881 1984 2565 2268 
Q 2250 2553 1709 2553 
Q 1456 2553 1204 2497 
Q 953 2441 691 2322 
L 691 4666 
z
" transform="scale(0.015625)"/>
       </defs>
       <use xlink:href="#DejaVuSans-30"/>
       <use xlink:href="#DejaVuSans-2e" x="63.623047"/>
       <use xlink:href="#DejaVuSans-32" x="95.410156"/>
       <use xlink:href="#DejaVuSans-35" x="159.033203"/>
      </g>
     </g>
    </g>
    <g id="ytick_3">
     <g id="line2d_17">
      <path d="M 50.14375 188.302464 
L 329.14375 188.302464 
" clip-path="url(#p67ee9264e4)" style="fill: none; stroke-dasharray: 2.96,1.28; stroke-dashoffset: 0; stroke: #b0b0b0; stroke-opacity: 0.4; stroke-width: 0.8"/>
     </g>
     <g id="line2d_18">
      <g>
       <use xlink:href="#mb6816975d7" x="50.14375" y="188.302464" style="stroke: #000000; stroke-width: 0.8"/>
      </g>
     </g>
     <g id="text_10">
      <!-- 0.50 -->
      <g transform="translate(20.878125 192.101683) scale(0.1 -0.1)">
       <use xlink:href="#DejaVuSans-30"/>
       <use xlink:href="#DejaVuSans-2e" x="63.623047"/>
       <use xlink:href="#DejaVuSans-35" x="95.410156"/>
       <use xlink:href="#DejaVuSans-30" x="159.033203"/>
      </g>
     </g>
    </g>
    <g id="ytick_4">
     <g id="line2d_19">
      <path d="M 50.14375 163.084576 
L 329.14375 163.084576 
" clip-path="url(#p67ee9264e4)" style="fill: none; stroke-dasharray: 2.96,1.28; stroke-dashoffset: 0; stroke: #b0b0b0; stroke-opacity: 0.4; stroke-width: 0.8"/>
     </g>
     <g id="line2d_20">
      <g>
       <use xlink:href="#mb6816975d7" x="50.14375" y="163.084576" style="stroke: #000000; stroke-width: 0.8"/>
      </g>
     </g>
     <g id="text_11">
      <!-- 0.75 -->
      <g transform="translate(20.878125 166.883795) scale(0.1 -0.1)">
       <defs>
        <path id="DejaVuSans-37" d="M 525 4666 
L 3525 4666 
L 3525 4397 
L 1831 0 
L 1172 0 
L 2766 4134 
L 525 4134 
L 525 4666 
z
" transform="scale(0.015625)"/>
       </defs>
       <use xlink:href="#DejaVuSans-30"/>
       <use xlink:href="#DejaVuSans-2e" x="63.623047"/>
       <use xlink:href="#DejaVuSans-37" x="95.410156"/>
       <use xlink:href="#DejaVuSans-35" x="159.033203"/>
      </g>
     </g>
    </g>
    <g id="ytick_5">
     <g id="line2d_21">
      <path d="M 50.14375 137.866688 
L 329.14375 137.866688 
" clip-path="url(#p67ee9264e4)" style="fill: none; stroke-dasharray: 2.96,1.28; stroke-dashoffset: 0; stroke: #b0b0b0; stroke-opacity: 0.4; stroke-width: 0.8"/>
     </g>
     <g id="line2d_22">
      <g>
       <use xlink:href="#mb6816975d7" x="50.14375" y="137.866688" style="stroke: #000000; stroke-width: 0.8"/>
      </g>
     </g>
     <g id="text_12">
      <!-- 1.00 -->
      <g transform="translate(20.878125 141.665907) scale(0.1 -0.1)">
       <use xlink:href="#DejaVuSans-31"/>
       <use xlink:href="#DejaVuSans-2e" x="63.623047"/>
       <use xlink:href="#DejaVuSans-30" x="95.410156"/>
       <use xlink:href="#DejaVuSans-30" x="159.033203"/>
      </g>
     </g>
    </g>
    <g id="ytick_6">
     <g id="line2d_23">
      <path d="M 50.14375 112.6488 
L 329.14375 112.6488 
" clip-path="url(#p67ee9264e4)" style="fill: none; stroke-dasharray: 2.96,1.28; stroke-dashoffset: 0; stroke: #b0b0b0; stroke-opacity: 0.4; stroke-width: 0.8"/>
     </g>
     <g id="line2d_24">
      <g>
       <use xlink:href="#mb6816975d7" x="50.14375" y="112.6488" style="stroke: #000000; stroke-width: 0.8"/>
      </g>
     </g>
     <g id="text_13">
      <!-- 1.25 -->
      <g transform="translate(20.878125 116.448019) scale(0.1 -0.1)">
       <use xlink:href="#DejaVuSans-31"/>
       <use xlink:href="#DejaVuSans-2e" x="63.623047"/>
       <use xlink:href="#DejaVuSans-32" x="95.410156"/>
       <use xlink:href="#DejaVuSans-35" x="159.033203"/>
      </g>
     </g>
    </g>
    <g id="ytick_7">
     <g id="line2d_25">
      <path d="M 50.14375 87.430912 
L 329.14375 87.430912 
" clip-path="url(#p67ee9264e4)" style="fill: none; stroke-dasharray: 2.96,1.28; stroke-dashoffset: 0; stroke: #b0b0b0; stroke-opacity: 0.4; stroke-width: 0.8"/>
     </g>
     <g id="line2d_26">
      <g>
       <use xlink:href="#mb6816975d7" x="50.14375" y="87.430912" style="stroke: #000000; stroke-width: 0.8"/>
      </g>
     </g>
     <g id="text_14">
      <!-- 1.50 -->
      <g transform="translate(20.878125 91.230131) scale(0.1 -0.1)">
       <use xlink:href="#DejaVuSans-31"/>
       <use xlink:href="#DejaVuSans-2e" x="63.623047"/>
       <use xlink:href="#DejaVuSans-35" x="95.410156"/>
       <use xlink:href="#DejaVuSans-30" x="159.033203"/>
      </g>
     </g>
    </g>
    <g id="ytick_8">
     <g id="line2d_27">
      <path d="M 50.14375 62.213024 
L 329.14375 62.213024 
" clip-path="url(#p67ee9264e4)" style="fill: none; stroke-dasharray: 2.96,1.28; stroke-dashoffset: 0; stroke: #b0b0b0; stroke-opacity: 0.4; stroke-width: 0.8"/>
     </g>
     <g id="line2d_28">
      <g>
       <use xlink:href="#mb6816975d7" x="50.14375" y="62.213024" style="stroke: #000000; stroke-width: 0.8"/>
      </g>
     </g>
     <g id="text_15">
      <!-- 1.75 -->
      <g transform="translate(20.878125 66.012243) scale(0.1 -0.1)">
       <use xlink:href="#DejaVuSans-31"/>
       <use xlink:href="#DejaVuSans-2e" x="63.623047"/>
       <use xlink:href="#DejaVuSans-37" x="95.410156"/>
       <use xlink:href="#DejaVuSans-35" x="159.033203"/>
      </g>
     </g>
    </g>
    <g id="text_16">
     <!-- Loss -->
     <g transform="translate(14.798438 149.495187) rotate(-90) scale(0.1 -0.1)">
      <defs>
       <path id="DejaVuSans-4c" d="M 628 4666 
L 1259 4666 
L 1259 531 
L 3531 531 
L 3531 0 
L 628 0 
L 628 4666 
z
" transform="scale(0.015625)"/>
      </defs>
      <use xlink:href="#DejaVuSans-4c"/>
      <use xlink:href="#DejaVuSans-6f" x="53.962891"/>
      <use xlink:href="#DejaVuSans-73" x="115.144531"/>
      <use xlink:href="#DejaVuSans-73" x="167.244141"/>
     </g>
    </g>
   </g>
   <g id="line2d_29">
    <path d="M 62.825568 161.325428 
L 63.079458 168.092104 
L 63.333349 168.734278 
L 63.587239 168.45915 
L 63.841129 169.109381 
L 64.095019 169.231306 
L 64.34891 170.209249 
L 64.6028 172.715367 
L 65.11058 182.923429 
L 65.364471 193.380094 
L 65.872251 199.322895 
L 66.126141 198.824256 
L 66.380032 199.795014 
L 66.633922 202.729859 
L 66.887812 202.846581 
L 67.141702 201.681514 
L 67.395593 205.159851 
L 67.649483 204.956003 
L 67.903373 205.729536 
L 68.157264 205.300518 
L 68.411154 206.594551 
L 68.665044 205.741672 
L 68.918934 207.070629 
L 69.172825 206.986119 
L 69.426715 207.198904 
L 69.680605 208.110677 
L 69.934495 207.472881 
L 70.188386 208.366935 
L 70.442276 207.252126 
L 71.203947 208.966442 
L 71.457837 208.587946 
L 71.711727 208.75473 
L 71.965617 210.007621 
L 72.219508 209.936325 
L 72.473398 208.829101 
L 72.727288 208.740706 
L 72.981178 209.999302 
L 73.235069 210.489464 
L 73.488959 209.905557 
L 73.742849 210.169775 
L 73.996739 210.023842 
L 74.50452 211.326071 
L 74.75841 211.248583 
L 75.0123 210.618031 
L 75.266191 209.443954 
L 75.520081 210.120949 
L 75.773971 211.56541 
L 76.027861 210.689242 
L 76.281752 211.029454 
L 76.535642 211.092125 
L 76.789532 211.729955 
L 77.043422 211.758114 
L 77.297313 208.993089 
L 77.551203 211.680139 
L 77.805093 212.676332 
L 78.058983 212.249433 
L 78.312874 212.685026 
L 78.566764 212.490074 
L 78.820654 212.436413 
L 79.074544 213.168617 
L 79.328435 211.933763 
L 79.836215 213.007147 
L 80.090105 212.748635 
L 80.343996 210.570948 
L 80.597886 213.876654 
L 80.851776 212.525733 
L 81.105666 213.702997 
L 81.359557 212.496143 
L 81.613447 213.61214 
L 81.867337 212.889274 
L 82.121227 214.531486 
L 82.629008 212.39196 
L 82.882898 213.412619 
L 83.136788 213.490506 
L 83.390679 212.227286 
L 84.15235 214.955348 
L 84.40624 213.909615 
L 84.66013 215.032456 
L 84.91402 217.054995 
L 85.167911 216.856043 
L 85.421801 216.998354 
L 85.675691 216.601889 
L 86.183472 217.399734 
L 86.437362 217.220914 
L 86.691252 216.672648 
L 86.945142 217.75512 
L 87.199033 217.412154 
L 87.452923 218.050576 
L 87.706813 217.80337 
L 87.960703 219.203098 
L 88.468484 218.370944 
L 88.976264 219.325761 
L 89.230155 218.315 
L 89.484045 218.808083 
L 89.991825 217.627272 
L 90.245716 218.528593 
L 90.499606 218.538476 
L 90.753496 219.533129 
L 91.007386 218.068917 
L 91.515167 220.957462 
L 91.769057 218.567955 
L 92.022947 218.865843 
L 92.276838 219.777879 
L 92.530728 219.867745 
L 92.784618 219.166632 
L 93.292399 220.344238 
L 93.800179 218.446822 
L 94.30796 221.498295 
L 94.81574 219.412389 
L 95.06963 219.291678 
L 95.323521 220.88326 
L 95.577411 218.890759 
L 95.831301 219.604703 
L 96.085191 221.232513 
L 96.339082 219.359462 
L 96.592972 219.007904 
L 97.354643 222.253982 
L 97.608533 223.395374 
L 97.862423 222.431454 
L 98.116313 222.881533 
L 98.370204 221.782718 
L 98.624094 223.094795 
L 98.877984 222.003223 
L 99.385765 223.973494 
L 99.639655 223.177981 
L 100.147436 224.263667 
L 100.401326 222.505726 
L 100.655216 222.275602 
L 100.909106 223.230277 
L 101.416887 223.819853 
L 101.670777 223.314388 
L 101.924667 224.076885 
L 102.178558 224.381763 
L 102.432448 223.384971 
L 102.686338 223.743593 
L 102.940228 223.093496 
L 103.194119 223.360332 
L 103.448009 224.124897 
L 103.955789 224.267342 
L 104.20968 221.61102 
L 104.46357 223.960599 
L 104.71746 223.483983 
L 104.97135 224.276413 
L 105.225241 224.180616 
L 105.479131 224.512163 
L 105.733021 223.488068 
L 105.986911 222.926753 
L 106.240802 224.052135 
L 106.494692 224.25351 
L 106.748582 224.883792 
L 107.002472 224.608163 
L 107.256363 224.702185 
L 107.510253 224.158445 
L 107.764143 224.329773 
L 108.018033 225.288816 
L 108.271924 225.154598 
L 109.033594 223.548714 
L 109.287485 224.634224 
L 109.541375 224.714285 
L 109.795265 224.572224 
L 110.303046 226.243106 
L 110.810826 224.887721 
L 111.064716 226.23169 
L 111.572497 226.510295 
L 111.826387 225.309784 
L 112.080277 227.129112 
L 112.334168 226.212965 
L 112.588058 226.871297 
L 113.095838 225.951589 
L 113.349729 226.182272 
L 113.603619 225.792598 
L 113.857509 226.082982 
L 114.111399 225.189287 
L 114.36529 226.611147 
L 115.12696 225.66239 
L 115.380851 226.543486 
L 115.634741 225.583856 
L 115.888631 227.161206 
L 116.396412 226.436345 
L 116.650302 227.114431 
L 116.904192 225.786611 
L 117.158083 226.653782 
L 117.411973 226.84829 
L 117.665863 226.542664 
L 117.919753 226.735687 
L 118.173644 226.60124 
L 118.427534 227.266192 
L 118.681424 226.70761 
L 118.935314 225.384961 
L 119.189205 225.719306 
L 119.696985 227.70177 
L 119.950875 227.420408 
L 120.204766 226.915866 
L 120.458656 226.072981 
L 120.712546 225.883366 
L 120.966436 226.367442 
L 121.220327 227.958842 
L 121.474217 225.804253 
L 121.728107 226.774445 
L 121.981997 226.771794 
L 122.235888 225.886811 
L 122.489778 226.324947 
L 122.743668 227.167277 
L 122.997558 227.215914 
L 123.251449 228.142589 
L 123.505339 228.11121 
L 123.759229 227.402684 
L 124.26701 227.082222 
L 124.5209 227.455028 
L 124.77479 227.382293 
L 125.02868 227.681144 
L 125.282571 227.213145 
L 125.536461 227.136103 
L 125.790351 227.966225 
L 126.044241 228.025396 
L 126.298132 228.258997 
L 126.552022 227.685417 
L 126.805912 228.247144 
L 127.059802 227.350173 
L 127.313693 228.10928 
L 127.567583 227.005247 
L 127.821473 228.324615 
L 128.075363 227.099673 
L 128.329254 227.549801 
L 128.583144 227.612947 
L 128.837034 228.116123 
L 129.344815 226.70895 
L 129.598705 229.285975 
L 129.852595 227.202955 
L 130.106485 227.130967 
L 130.614266 228.12604 
L 130.868156 228.313339 
L 131.122046 227.829434 
L 131.375937 227.990986 
L 131.629827 227.930026 
L 131.883717 228.197646 
L 132.137607 226.499038 
L 132.391498 227.786565 
L 132.645388 227.088232 
L 132.899278 228.25401 
L 133.153169 227.447838 
L 133.407059 228.663908 
L 133.660949 226.067321 
L 133.914839 227.440746 
L 134.16873 228.12366 
L 134.42262 227.162894 
L 134.67651 227.475384 
L 134.9304 228.22977 
L 135.184291 227.649333 
L 135.438181 227.760125 
L 135.692071 228.469126 
L 135.945961 227.96872 
L 136.199852 228.433564 
L 136.453742 227.20286 
L 136.707632 228.508995 
L 136.961522 228.337133 
L 137.215413 229.020452 
L 137.469303 228.144848 
L 137.723193 229.401805 
L 137.977083 229.041628 
L 138.230974 227.636686 
L 138.484864 227.705818 
L 138.738754 229.490396 
L 138.992644 228.365062 
L 139.246535 228.142848 
L 139.500425 228.18936 
L 139.754315 228.431664 
L 140.008205 228.93429 
L 140.262096 227.692288 
L 140.515986 229.020453 
L 140.769876 228.310329 
L 141.023766 228.322001 
L 141.277657 228.561394 
L 141.531547 229.03997 
L 142.293218 227.904766 
L 142.547108 228.243221 
L 142.800998 227.591536 
L 143.054888 228.827413 
L 143.308779 229.065117 
L 143.562669 228.486288 
L 143.816559 228.581773 
L 144.070449 229.597754 
L 144.32434 228.895449 
L 144.83212 228.387012 
L 145.339901 228.733293 
L 145.847681 227.689735 
L 146.101571 229.077783 
L 146.355462 228.000499 
L 146.609352 227.820165 
L 146.863242 228.356548 
L 147.117132 229.374215 
L 147.371023 228.90434 
L 147.624913 228.679424 
L 147.878803 229.366339 
L 148.132693 229.523849 
L 148.386584 228.017714 
L 148.640474 228.355596 
L 148.894364 228.502419 
L 149.148255 229.019383 
L 149.402145 229.245097 
L 149.656035 227.717474 
L 149.909925 228.239212 
L 150.163816 229.172114 
L 150.417706 227.934279 
L 150.925486 229.104608 
L 151.179377 229.328223 
L 151.433267 228.254996 
L 151.941047 229.336879 
L 152.194938 228.851977 
L 152.448828 229.38238 
L 152.702718 228.469606 
L 152.956608 229.000202 
L 153.210499 227.005027 
L 153.718279 228.428498 
L 153.972169 228.12477 
L 154.22606 229.163084 
L 154.47995 229.132728 
L 154.73384 227.908003 
L 154.98773 229.114709 
L 155.241621 228.444583 
L 155.495511 228.284704 
L 156.003291 229.067379 
L 156.257182 228.275066 
L 156.511072 229.546171 
L 156.764962 228.48532 
L 157.018852 229.182164 
L 157.272743 229.22948 
L 157.526633 228.631114 
L 157.780523 229.321562 
L 158.034413 229.508791 
L 158.288304 228.542612 
L 158.542194 229.284804 
L 158.796084 229.021358 
L 159.049974 228.496827 
L 159.303865 229.471738 
L 159.557755 228.047525 
L 160.065535 229.145042 
L 160.319426 228.047834 
L 160.573316 228.475398 
L 160.827206 229.232905 
L 161.081096 228.734396 
L 161.334987 228.960864 
L 161.842767 228.810444 
L 162.096657 228.294819 
L 162.350548 229.174574 
L 162.604438 229.36738 
L 162.858328 228.589124 
L 163.366109 228.663596 
L 163.619999 229.585207 
L 164.127779 228.088444 
L 164.38167 229.164565 
L 164.63556 228.464129 
L 164.88945 228.908608 
L 165.397231 227.140019 
L 165.905011 229.288488 
L 166.158902 228.794118 
L 166.412792 229.275001 
L 166.666682 229.314197 
L 166.920572 228.922589 
L 167.174463 229.181506 
L 167.428353 228.10494 
L 167.936133 229.543357 
L 168.190024 229.06035 
L 168.443914 229.792018 
L 168.697804 229.170094 
L 168.951694 228.986716 
L 169.205585 229.450854 
L 169.459475 228.624777 
L 169.713365 228.462091 
L 169.967255 228.906659 
L 170.221146 228.543064 
L 170.728926 228.56465 
L 170.982816 228.573839 
L 171.236707 229.296068 
L 171.490597 228.051445 
L 171.744487 228.088382 
L 171.998377 228.689083 
L 172.252268 228.422575 
L 172.506158 228.567506 
L 172.760048 229.013308 
L 173.267829 228.685821 
L 173.775609 228.86375 
L 174.029499 228.638719 
L 174.28339 229.624068 
L 174.53728 229.243875 
L 174.79117 228.477593 
L 175.04506 229.517966 
L 175.298951 229.094578 
L 175.552841 229.94209 
L 175.806731 227.977082 
L 176.060621 229.357473 
L 176.314512 229.288954 
L 176.568402 228.800885 
L 177.076182 228.871463 
L 177.330073 229.191631 
L 177.583963 229.114167 
L 177.837853 228.647947 
L 178.091743 228.65766 
L 178.345634 229.930287 
L 178.599524 228.944647 
L 179.107304 228.163421 
L 179.361195 229.586409 
L 179.615085 228.438649 
L 179.868975 228.99768 
L 180.122865 229.205613 
L 180.376756 228.868384 
L 180.630646 229.617606 
L 180.884536 228.633343 
L 181.138426 229.514994 
L 181.392317 227.890236 
L 181.646207 228.530194 
L 181.900097 229.500359 
L 182.153988 228.987816 
L 182.407878 228.068756 
L 182.661768 229.160472 
L 182.915658 228.499021 
L 183.169549 228.607052 
L 183.423439 228.897343 
L 183.931219 230.333549 
L 184.18511 228.561449 
L 184.439 229.882724 
L 184.94678 229.19317 
L 185.454561 229.25139 
L 185.708451 229.399455 
L 186.216232 229.25374 
L 186.470122 228.726936 
L 186.724012 229.47057 
L 186.977902 229.187583 
L 187.231793 229.414862 
L 187.485683 229.015282 
L 187.739573 229.381709 
L 187.993463 229.210156 
L 188.247354 228.809725 
L 188.501244 227.914686 
L 188.755134 228.870606 
L 189.009024 229.321678 
L 189.262915 228.644911 
L 189.516805 228.520775 
L 190.278476 228.673424 
L 190.532366 228.979834 
L 190.786256 229.786121 
L 191.040146 229.189807 
L 191.294037 228.934482 
L 191.547927 229.281295 
L 191.801817 229.156136 
L 192.055707 228.442326 
L 192.563488 229.977007 
L 192.817378 228.947993 
L 193.071268 229.828037 
L 193.579049 228.923297 
L 193.832939 229.587819 
L 194.086829 229.212745 
L 194.34072 229.484251 
L 194.59461 228.877675 
L 194.8485 229.591444 
L 195.10239 229.336018 
L 195.356281 229.300237 
L 195.610171 228.776409 
L 195.864061 228.509571 
L 196.371842 229.518023 
L 196.625732 228.690022 
L 196.879622 229.368638 
L 197.133512 229.291623 
L 197.387403 229.016793 
L 197.895183 229.385641 
L 198.149074 229.054231 
L 198.402964 229.859436 
L 198.656854 229.431958 
L 198.910744 229.929806 
L 199.164635 229.177395 
L 199.418525 229.153266 
L 199.672415 228.437876 
L 199.926305 228.935919 
L 200.180196 229.900711 
L 200.687976 228.345069 
L 200.941866 229.564251 
L 201.449647 228.947104 
L 201.703537 229.113886 
L 202.211318 228.551956 
L 202.465208 229.258972 
L 202.719098 228.994599 
L 202.972988 229.302804 
L 203.226879 228.533018 
L 203.480769 228.187261 
L 203.734659 229.295455 
L 203.988549 229.711604 
L 204.24244 229.167566 
L 204.49633 229.470074 
L 205.00411 228.942024 
L 205.511891 229.623886 
L 205.765781 228.834699 
L 206.019671 229.145814 
L 206.273562 229.898947 
L 206.527452 229.315395 
L 206.781342 229.30098 
L 207.289123 228.878963 
L 207.543013 229.080589 
L 207.796903 229.480367 
L 208.050793 228.847374 
L 208.304684 229.772978 
L 208.558574 228.912315 
L 208.812464 229.628803 
L 209.066354 229.371909 
L 209.320245 229.661911 
L 209.574135 229.704735 
L 210.081915 229.477976 
L 210.335806 229.101205 
L 210.589696 229.528081 
L 210.843586 229.361777 
L 211.351367 228.207658 
L 211.605257 229.532102 
L 211.859147 229.162997 
L 212.113037 229.492389 
L 212.366928 229.037138 
L 212.620818 229.073844 
L 212.874708 228.682474 
L 213.128598 229.01278 
L 213.382489 230.111866 
L 213.636379 229.249035 
L 213.890269 229.338079 
L 214.14416 229.623595 
L 214.39805 229.392124 
L 214.90583 229.778261 
L 215.159721 228.481987 
L 215.413611 228.807494 
L 215.667501 229.810215 
L 215.921391 228.397155 
L 216.175282 228.860162 
L 216.429172 230.425715 
L 216.683062 228.388878 
L 216.936952 229.26458 
L 217.190843 228.983949 
L 217.444733 228.48618 
L 217.698623 228.790325 
L 218.206404 230.243075 
L 218.460294 228.998822 
L 218.714184 229.022379 
L 218.968074 229.576555 
L 219.221965 229.723432 
L 219.475855 228.908376 
L 219.729745 229.820668 
L 219.983635 228.605044 
L 220.237526 228.950125 
L 220.491416 228.958063 
L 220.745306 228.214575 
L 220.999196 230.291293 
L 221.253087 228.499941 
L 221.506977 227.886132 
L 221.760867 229.415407 
L 222.014757 229.53097 
L 222.268648 228.828107 
L 222.522538 229.213328 
L 222.776428 228.667526 
L 223.030318 229.454888 
L 223.284209 229.598562 
L 223.538099 228.341061 
L 223.791989 228.983379 
L 224.29977 228.711101 
L 224.55366 229.48322 
L 224.80755 229.22386 
L 225.06144 228.798355 
L 225.315331 229.347408 
L 225.569221 229.126981 
L 225.823111 227.872347 
L 226.330892 228.800277 
L 226.584782 228.583392 
L 226.838672 228.735293 
L 227.092562 230.018839 
L 227.346453 229.081821 
L 227.854233 229.334654 
L 228.108123 228.849082 
L 228.362014 229.483282 
L 228.615904 229.304929 
L 228.869794 228.686598 
L 229.123684 228.741511 
L 229.377575 228.574977 
L 229.631465 228.200849 
L 229.885355 229.147536 
L 230.139245 229.37499 
L 230.393136 227.996269 
L 230.647026 229.096083 
L 230.900916 228.946584 
L 231.154807 229.098655 
L 231.408697 228.628428 
L 231.662587 228.710011 
L 231.916477 229.215385 
L 232.170368 229.040799 
L 232.424258 228.29081 
L 232.678148 229.069248 
L 232.932038 229.256105 
L 233.185929 228.949822 
L 233.439819 229.031277 
L 233.693709 229.322388 
L 233.947599 229.131944 
L 234.20149 229.616116 
L 234.45538 228.650277 
L 234.70927 229.274888 
L 234.96316 227.988498 
L 235.217051 229.363536 
L 235.470941 229.049541 
L 235.724831 229.067628 
L 235.978721 228.684959 
L 236.232612 228.75917 
L 236.486502 229.587793 
L 236.740392 228.407322 
L 236.994282 229.517536 
L 237.248173 228.793693 
L 237.755953 229.049407 
L 238.009843 228.535981 
L 238.263734 229.38846 
L 238.517624 228.930725 
L 238.771514 228.910572 
L 239.025404 229.466702 
L 239.279295 229.10818 
L 239.533185 229.821462 
L 239.787075 229.427824 
L 240.040965 229.919211 
L 240.294856 228.985918 
L 240.548746 229.263158 
L 241.056526 229.048585 
L 241.564307 229.973268 
L 241.818197 229.60657 
L 242.072087 228.678035 
L 242.579868 229.675602 
L 242.833758 228.999309 
L 243.087648 229.341024 
L 243.341539 229.314065 
L 243.595429 229.820088 
L 243.849319 229.580856 
L 244.103209 228.60216 
L 244.3571 230.245381 
L 244.61099 228.418595 
L 245.11877 230.0124 
L 245.372661 229.018539 
L 245.626551 228.499311 
L 245.880441 229.271899 
L 246.134331 229.345098 
L 246.388222 228.635167 
L 246.642112 229.098101 
L 246.896002 229.230012 
L 247.149893 228.935472 
L 247.403783 228.923951 
L 247.657673 228.563176 
L 247.911563 229.112554 
L 248.165454 228.438434 
L 248.419344 228.783284 
L 248.673234 228.781425 
L 248.927124 229.252837 
L 249.181015 229.303177 
L 249.434905 229.832602 
L 249.688795 228.72112 
L 249.942685 229.536147 
L 250.196576 228.16096 
L 250.450466 228.97143 
L 250.704356 229.311857 
L 250.958246 229.252146 
L 251.212137 228.968305 
L 251.466027 229.373178 
L 251.719917 228.235199 
L 251.973807 228.584859 
L 252.227698 229.223223 
L 252.481588 229.201779 
L 252.735478 228.913018 
L 252.989368 228.968126 
L 253.243259 229.327338 
L 253.497149 228.803719 
L 253.751039 228.776189 
L 254.004929 228.983114 
L 254.25882 229.563875 
L 254.7666 229.538715 
L 255.02049 228.322838 
L 255.274381 229.158663 
L 255.528271 229.154104 
L 256.036051 229.479201 
L 256.289942 228.910128 
L 256.543832 229.438211 
L 256.797722 227.649537 
L 257.051612 229.45383 
L 257.305503 228.690486 
L 257.559393 228.546045 
L 257.813283 229.286455 
L 258.067173 228.291294 
L 258.321064 229.601009 
L 258.574954 229.289598 
L 258.828844 229.353924 
L 259.082734 228.01465 
L 259.336625 229.820136 
L 259.590515 228.867147 
L 260.098295 229.914813 
L 260.352186 229.014763 
L 260.606076 229.715996 
L 260.859966 228.815696 
L 261.113856 229.354147 
L 261.367747 229.030768 
L 261.621637 228.460922 
L 261.875527 229.475836 
L 262.383308 228.809594 
L 262.637198 229.42921 
L 262.891088 229.498981 
L 263.144979 229.11217 
L 263.398869 229.717891 
L 263.652759 228.403409 
L 263.906649 228.974212 
L 264.16054 230.003671 
L 264.41443 229.147472 
L 264.66832 229.838752 
L 264.92221 228.985348 
L 265.176101 229.140207 
L 265.429991 228.954134 
L 265.683881 229.108386 
L 265.937771 229.518776 
L 266.191662 228.64871 
L 266.445552 229.984132 
L 266.699442 230.209454 
L 266.953332 229.493181 
L 267.207223 229.485008 
L 267.715003 228.689637 
L 267.968893 228.782737 
L 268.222784 229.298927 
L 268.476674 229.225807 
L 269.238345 229.646295 
L 269.492235 228.889309 
L 269.746125 229.289682 
L 270.000015 228.434189 
L 270.253906 229.781205 
L 270.507796 228.500649 
L 270.761686 228.52049 
L 271.015576 229.520472 
L 271.269467 229.502252 
L 271.523357 229.048389 
L 271.777247 228.940714 
L 272.031137 228.708873 
L 272.285028 229.148957 
L 272.538918 228.598194 
L 272.792808 229.103154 
L 273.046698 230.034669 
L 273.300589 228.607374 
L 273.554479 228.929708 
L 273.808369 229.487128 
L 274.062259 228.367018 
L 274.31615 228.442435 
L 274.57004 229.935609 
L 274.82393 228.967417 
L 275.07782 229.657845 
L 275.331711 229.014582 
L 275.585601 229.18178 
L 275.839491 228.991794 
L 276.347272 229.599198 
L 276.601162 228.959655 
L 276.855052 229.741994 
L 277.108942 229.847154 
L 277.362833 229.053105 
L 277.616723 228.90716 
L 277.870613 229.599916 
L 278.124503 229.433557 
L 278.378394 229.755772 
L 278.632284 229.224125 
L 278.886174 228.952961 
L 279.140064 229.133357 
L 279.393955 228.833702 
L 279.647845 228.744864 
L 279.901735 229.640698 
L 280.155626 228.08018 
L 280.409516 229.764205 
L 280.663406 229.288953 
L 281.171187 228.83698 
L 281.932857 229.657768 
L 282.694528 229.380196 
L 283.202309 228.088813 
L 283.710089 229.403024 
L 283.963979 229.517041 
L 284.21787 228.667152 
L 284.47176 228.928196 
L 284.72565 230.170209 
L 284.97954 229.886369 
L 285.233431 228.574917 
L 285.487321 229.483133 
L 285.741211 228.766045 
L 285.995101 228.657175 
L 286.248992 229.505868 
L 286.502882 228.990391 
L 286.756772 228.982795 
L 287.010662 229.369527 
L 287.264553 228.107796 
L 287.518443 229.307442 
L 287.772333 229.123327 
L 288.026223 230.557091 
L 288.280114 229.942625 
L 289.041784 229.307993 
L 289.295675 228.703992 
L 289.549565 229.836556 
L 289.803455 229.323431 
L 290.057345 229.583205 
L 290.311236 229.055803 
L 290.565126 229.755364 
L 291.072906 229.26506 
L 291.580687 229.419699 
L 291.834577 229.927672 
L 292.088467 229.549069 
L 292.342358 228.701349 
L 292.596248 228.890452 
L 292.850138 229.452526 
L 293.104028 228.469096 
L 293.357919 229.475773 
L 293.611809 229.399849 
L 293.865699 229.604386 
L 294.119589 229.663603 
L 294.37348 228.670491 
L 294.62737 229.368293 
L 294.88126 228.644902 
L 295.13515 229.709411 
L 295.389041 228.627148 
L 295.896821 229.483937 
L 296.150712 228.331352 
L 296.404602 228.292516 
L 296.658492 230.073474 
L 296.912382 230.016977 
L 297.674053 229.074688 
L 297.927943 229.250721 
L 298.181834 228.765335 
L 298.435724 228.839045 
L 298.689614 229.079971 
L 298.943504 228.446292 
L 299.197395 228.753693 
L 299.705175 229.614829 
L 299.959065 228.729163 
L 300.212956 228.667163 
L 300.466846 229.209035 
L 300.720736 228.11409 
L 300.974626 228.760136 
L 301.736297 229.342076 
L 301.990187 229.538507 
L 302.244078 229.34499 
L 302.751858 229.666408 
L 303.005748 228.722598 
L 303.259639 229.525909 
L 303.513529 229.208666 
L 303.767419 229.139955 
L 304.021309 228.37763 
L 304.2752 229.132013 
L 304.52909 229.32587 
L 304.78298 228.73429 
L 305.03687 228.435982 
L 305.544651 229.771772 
L 305.798541 228.917532 
L 306.306322 228.455151 
L 306.560212 229.820536 
L 307.067992 229.017706 
L 307.321883 228.624202 
L 307.575773 228.981173 
L 307.829663 228.919995 
L 308.083553 229.462181 
L 308.337444 228.549988 
L 308.591334 229.233195 
L 308.845224 228.514586 
L 309.099114 229.321154 
L 309.353005 228.684426 
L 309.860785 229.510426 
L 310.114675 229.905748 
L 310.368566 228.580176 
L 310.622456 229.226815 
L 310.876346 229.06886 
L 311.130236 229.065158 
L 311.384127 228.373206 
L 311.638017 229.263622 
L 311.891907 228.949578 
L 312.145798 228.06008 
L 312.399688 229.441484 
L 312.653578 229.26106 
L 312.907468 229.566444 
L 313.161359 228.560275 
L 313.415249 229.077486 
L 313.923029 229.407911 
L 314.17692 228.74037 
L 314.43081 229.242118 
L 314.6847 229.424538 
L 314.93859 228.819927 
L 315.192481 229.406559 
L 315.446371 229.08425 
L 315.700261 229.736175 
L 315.954151 228.877288 
L 316.461932 230.154697 
L 316.461932 230.154697 
" clip-path="url(#p67ee9264e4)" style="fill: none; stroke: #0000ff; stroke-width: 0.6; stroke-linecap: square"/>
   </g>
   <g id="line2d_30">
    <path d="M 62.825568 166.046675 
L 63.079458 168.773545 
L 63.841129 169.055425 
L 64.095019 169.581024 
L 64.34891 170.658864 
L 64.6028 170.744318 
L 64.85669 172.849492 
L 65.11058 182.053324 
L 65.364471 127.410248 
L 65.618361 46.498909 
L 65.872251 178.479221 
L 66.380032 81.920463 
L 66.633922 120.937332 
L 66.887812 199.730576 
L 67.141702 188.632711 
L 67.395593 201.564765 
L 67.649483 188.267706 
L 68.157264 197.317698 
L 68.411154 192.453635 
L 68.665044 206.445783 
L 69.172825 190.945881 
L 69.426715 178.156806 
L 69.680605 208.483675 
L 70.188386 176.21084 
L 70.442276 140.357132 
L 70.696166 206.445903 
L 70.950056 175.651439 
L 71.203947 202.710953 
L 71.457837 200.214019 
L 71.711727 208.656436 
L 71.965617 204.175535 
L 72.219508 192.772275 
L 72.473398 206.520845 
L 72.727288 185.611975 
L 72.981178 201.316572 
L 73.235069 197.165563 
L 73.488959 173.137373 
L 73.742849 128.404581 
L 73.996739 172.178014 
L 74.25063 191.523858 
L 74.50452 188.696343 
L 74.75841 208.006386 
L 75.0123 200.706379 
L 75.520081 161.723251 
L 75.773971 189.048454 
L 76.027861 204.135459 
L 76.281752 164.967123 
L 76.535642 196.377898 
L 76.789532 189.641708 
L 77.043422 201.224829 
L 77.297313 89.543987 
L 77.551203 206.432318 
L 77.805093 183.989922 
L 78.058983 193.762246 
L 78.312874 182.946865 
L 78.566764 147.905385 
L 78.820654 206.859157 
L 79.074544 133.98107 
L 79.328435 194.000488 
L 79.582325 192.633918 
L 80.090105 156.902006 
L 80.597886 203.370503 
L 80.851776 201.840254 
L 81.105666 191.676432 
L 81.359557 193.045464 
L 81.613447 196.630492 
L 81.867337 190.042928 
L 82.121227 178.984877 
L 82.375118 203.594348 
L 82.629008 204.75983 
L 82.882898 206.783533 
L 83.136788 192.481743 
L 83.390679 203.150434 
L 83.644569 201.131495 
L 83.898459 203.533364 
L 84.15235 183.602825 
L 84.40624 150.991112 
L 84.91402 204.50984 
L 85.167911 198.309873 
L 85.421801 207.216797 
L 85.675691 201.656232 
L 85.929581 190.677331 
L 86.183472 196.003544 
L 86.437362 194.913313 
L 86.691252 204.936839 
L 86.945142 196.794029 
L 87.452923 203.719319 
L 87.706813 205.104173 
L 87.960703 203.131308 
L 88.468484 196.238696 
L 88.722374 198.340419 
L 88.976264 201.627829 
L 89.230155 202.113376 
L 89.484045 198.968893 
L 89.737935 202.433129 
L 89.991825 197.546651 
L 90.499606 205.622022 
L 90.753496 204.353496 
L 91.007386 204.194327 
L 91.261277 206.012934 
L 91.515167 205.269996 
L 91.769057 204.070979 
L 92.022947 193.96757 
L 92.276838 201.139546 
L 92.530728 195.5649 
L 92.784618 204.064627 
L 93.038508 204.701847 
L 93.292399 204.265342 
L 93.546289 199.43212 
L 94.054069 202.216471 
L 94.30796 198.688496 
L 94.56185 144.92368 
L 94.81574 200.353219 
L 95.06963 137.683694 
L 95.323521 196.854881 
L 95.577411 183.135949 
L 95.831301 203.710989 
L 96.085191 197.700716 
L 96.339082 198.861295 
L 96.592972 198.264118 
L 96.846862 202.921255 
L 97.100752 197.614429 
L 97.354643 196.69499 
L 97.608533 200.796369 
L 97.862423 194.405093 
L 98.116313 200.789362 
L 98.370204 201.447096 
L 98.624094 200.257245 
L 98.877984 195.295002 
L 99.131874 201.633571 
L 99.385765 193.296311 
L 99.639655 201.624745 
L 99.893545 202.667904 
L 100.147436 200.095466 
L 100.401326 202.580884 
L 100.655216 197.835478 
L 100.909106 198.566038 
L 101.162997 181.720796 
L 101.416887 203.10525 
L 101.670777 200.527816 
L 101.924667 199.406465 
L 102.178558 195.142801 
L 102.432448 201.722997 
L 102.686338 199.636773 
L 102.940228 187.217548 
L 103.194119 188.730367 
L 103.448009 200.759964 
L 103.701899 193.614575 
L 103.955789 175.707342 
L 104.20968 201.588622 
L 104.46357 201.214043 
L 104.71746 174.495264 
L 104.97135 201.122368 
L 105.225241 200.025596 
L 105.479131 189.422931 
L 105.733021 197.374561 
L 105.986911 189.518562 
L 106.494692 198.654775 
L 107.002472 197.994627 
L 107.510253 182.43222 
L 107.764143 198.234799 
L 108.018033 199.943169 
L 108.271924 197.396837 
L 108.525814 200.36788 
L 108.779704 197.421722 
L 109.033594 197.660932 
L 109.287485 200.121789 
L 109.541375 199.73679 
L 109.795265 198.360224 
L 110.049155 200.696587 
L 110.303046 200.036013 
L 110.556936 187.333858 
L 110.810826 196.047206 
L 111.064716 191.240075 
L 111.318607 196.006965 
L 111.572497 198.579241 
L 111.826387 199.212282 
L 112.080277 188.147873 
L 112.334168 198.812408 
L 112.588058 198.769618 
L 112.841948 199.199623 
L 113.095838 195.282073 
L 113.349729 198.756135 
L 113.603619 185.598592 
L 113.857509 197.403505 
L 114.111399 199.656218 
L 114.36529 197.888123 
L 114.61918 199.997266 
L 114.87307 198.50206 
L 115.12696 172.067073 
L 115.380851 196.682481 
L 115.634741 199.800774 
L 115.888631 196.691067 
L 116.142521 198.211916 
L 116.396412 198.28175 
L 116.650302 196.151083 
L 116.904192 190.223138 
L 117.158083 198.953042 
L 117.411973 193.920147 
L 117.665863 196.960435 
L 117.919753 189.789054 
L 118.173644 196.94807 
L 118.427534 197.301883 
L 118.681424 198.414161 
L 118.935314 183.902676 
L 119.189205 185.801565 
L 119.443095 199.168572 
L 119.950875 195.559528 
L 120.204766 195.959597 
L 120.458656 193.860314 
L 120.712546 198.425026 
L 120.966436 197.454301 
L 121.220327 198.228952 
L 121.474217 198.045778 
L 121.728107 195.946607 
L 121.981997 179.442344 
L 122.235888 198.540109 
L 122.743668 199.463889 
L 122.997558 198.683487 
L 123.251449 198.421935 
L 123.505339 195.94308 
L 123.759229 199.242999 
L 124.013119 195.530533 
L 124.26701 198.431233 
L 124.5209 198.484786 
L 124.77479 193.758789 
L 125.02868 197.41445 
L 125.282571 198.221499 
L 125.536461 196.809475 
L 125.790351 193.936155 
L 126.044241 197.985386 
L 126.298132 198.879913 
L 126.552022 198.530291 
L 126.805912 193.906532 
L 127.059802 198.457123 
L 127.313693 197.601683 
L 127.567583 195.842364 
L 127.821473 195.528005 
L 128.075363 194.833694 
L 128.329254 191.385482 
L 128.583144 195.374601 
L 128.837034 197.569468 
L 129.090924 198.54145 
L 129.344815 198.637549 
L 129.598705 198.328024 
L 129.852595 193.151292 
L 130.106485 196.499626 
L 130.360376 194.486095 
L 130.614266 197.745391 
L 130.868156 196.696159 
L 131.122046 197.231913 
L 131.375937 197.322247 
L 131.629827 198.587259 
L 131.883717 195.038363 
L 132.137607 198.128064 
L 132.391498 196.984286 
L 132.645388 197.256149 
L 132.899278 195.747632 
L 133.153169 197.692332 
L 133.407059 196.496986 
L 133.660949 184.204944 
L 133.914839 197.826682 
L 134.16873 194.958413 
L 134.42262 195.742825 
L 134.67651 198.45531 
L 134.9304 193.393204 
L 135.184291 195.268094 
L 135.438181 194.071035 
L 135.692071 197.227233 
L 135.945961 197.19188 
L 136.199852 196.227002 
L 136.453742 195.923654 
L 136.707632 197.852596 
L 136.961522 192.709388 
L 137.215413 194.028605 
L 137.469303 197.909518 
L 137.723193 197.467907 
L 137.977083 196.551912 
L 138.484864 197.568197 
L 138.738754 197.378749 
L 138.992644 198.143046 
L 139.246535 197.571648 
L 139.500425 196.61819 
L 140.008205 197.395051 
L 140.262096 197.108917 
L 140.515986 198.404054 
L 141.023766 197.319845 
L 141.531547 197.608777 
L 141.785437 197.086169 
L 142.039327 194.403686 
L 142.293218 197.152793 
L 142.547108 196.697022 
L 142.800998 195.908996 
L 143.054888 197.745262 
L 143.308779 193.901292 
L 143.816559 196.904961 
L 144.070449 197.804196 
L 144.32434 196.109991 
L 144.57823 197.423141 
L 144.83212 197.184779 
L 145.08601 197.130643 
L 145.339901 196.918375 
L 145.593791 197.107541 
L 145.847681 194.278285 
L 146.101571 197.097359 
L 146.355462 196.028673 
L 146.609352 195.718679 
L 146.863242 197.76964 
L 147.117132 197.044317 
L 147.371023 197.545794 
L 147.624913 190.834529 
L 148.132693 197.216002 
L 148.640474 196.515435 
L 148.894364 197.274806 
L 149.148255 196.931281 
L 149.402145 197.007894 
L 149.656035 197.32096 
L 150.163816 195.86794 
L 150.417706 197.401337 
L 150.671596 196.757026 
L 150.925486 197.203198 
L 151.179377 197.29499 
L 151.433267 197.638864 
L 151.687157 197.054547 
L 151.941047 197.240331 
L 152.194938 197.001548 
L 152.448828 196.242231 
L 152.702718 197.147722 
L 152.956608 194.633547 
L 153.464389 197.419128 
L 153.718279 197.056609 
L 153.972169 197.344436 
L 154.22606 196.124051 
L 154.47995 197.231721 
L 154.73384 196.58955 
L 154.98773 197.422056 
L 155.241621 197.231009 
L 155.495511 196.628438 
L 155.749401 197.010587 
L 156.003291 196.888313 
L 156.257182 197.264266 
L 156.511072 194.893993 
L 156.764962 196.964701 
L 157.272743 197.083073 
L 157.526633 197.322854 
L 157.780523 196.411898 
L 158.034413 197.1977 
L 158.288304 195.85955 
L 158.542194 196.804716 
L 158.796084 196.838091 
L 159.049974 195.935523 
L 159.303865 197.110475 
L 159.557755 197.593434 
L 160.065535 197.473663 
L 160.319426 197.144772 
L 160.573316 194.412362 
L 160.827206 196.767938 
L 161.334987 196.076267 
L 161.588877 196.75426 
L 161.842767 196.770364 
L 162.096657 197.043668 
L 162.350548 196.802865 
L 162.604438 197.219128 
L 162.858328 196.122656 
L 163.112218 196.356575 
L 163.366109 196.414291 
L 163.873889 197.221867 
L 164.38167 197.079267 
L 164.63556 195.719822 
L 164.88945 196.778668 
L 165.14334 196.923224 
L 165.397231 196.849539 
L 165.651121 197.043911 
L 165.905011 196.836735 
L 166.158902 197.143816 
L 166.412792 196.91591 
L 166.666682 195.816186 
L 166.920572 196.619925 
L 167.174463 196.52262 
L 167.428353 196.918877 
L 167.682243 196.231803 
L 167.936133 197.006574 
L 168.190024 196.980351 
L 168.443914 197.080945 
L 168.697804 195.429428 
L 168.951694 196.53625 
L 169.205585 195.592845 
L 169.459475 196.350623 
L 169.713365 195.494263 
L 169.967255 196.892266 
L 170.221146 196.371576 
L 170.475036 196.174147 
L 170.982816 196.768813 
L 171.236707 196.808877 
L 171.490597 196.490072 
L 171.744487 196.852921 
L 171.998377 196.216483 
L 172.252268 196.829016 
L 172.506158 196.832539 
L 172.760048 196.219071 
L 173.267829 197.163501 
L 173.775609 197.032839 
L 174.029499 196.416038 
L 174.28339 196.34385 
L 174.79117 196.72636 
L 175.04506 196.861158 
L 175.298951 196.327797 
L 175.552841 196.548912 
L 175.806731 196.918943 
L 176.060621 196.569198 
L 176.314512 196.467757 
L 176.568402 196.544664 
L 176.822292 197.002699 
L 177.076182 196.151311 
L 177.330073 196.363883 
L 177.583963 196.267697 
L 177.837853 196.744565 
L 178.091743 196.894007 
L 178.345634 196.662709 
L 178.599524 196.802825 
L 178.853414 196.49778 
L 179.107304 196.736364 
L 179.361195 196.192986 
L 179.868975 196.407819 
L 180.122865 196.386857 
L 180.376756 196.597351 
L 181.138426 196.715772 
L 181.392317 196.449428 
L 181.646207 195.962726 
L 182.153988 196.453345 
L 182.407878 196.076782 
L 182.915658 196.429376 
L 183.169549 197.094292 
L 183.423439 196.578929 
L 183.931219 195.958962 
L 184.18511 196.592565 
L 184.439 196.231283 
L 184.69289 196.749065 
L 185.200671 196.075811 
L 185.708451 196.586875 
L 185.962341 196.065322 
L 186.216232 196.237382 
L 186.470122 196.210633 
L 187.231793 196.730767 
L 187.993463 196.161493 
L 188.247354 196.591679 
L 189.516805 196.402982 
L 190.024585 196.718583 
L 190.278476 196.652924 
L 190.532366 196.807903 
L 190.786256 196.532805 
L 191.040146 196.435581 
L 191.801817 196.508512 
L 192.055707 196.270132 
L 192.309598 196.707992 
L 192.817378 196.506837 
L 193.071268 196.940011 
L 193.325159 196.337092 
L 193.579049 196.433976 
L 193.832939 196.221861 
L 194.086829 196.214821 
L 194.34072 196.432728 
L 194.59461 196.824858 
L 194.8485 196.829178 
L 195.10239 196.568128 
L 195.610171 196.631168 
L 195.864061 196.500031 
L 196.117951 196.801256 
L 196.371842 196.339142 
L 196.625732 196.411369 
L 196.879622 196.158665 
L 197.133512 196.629295 
L 197.387403 196.393774 
L 198.149074 196.637908 
L 198.402964 196.114221 
L 198.656854 196.37813 
L 198.910744 196.402086 
L 199.164635 196.1652 
L 199.418525 196.497819 
L 199.672415 196.446647 
L 199.926305 196.51061 
L 200.180196 196.295435 
L 200.687976 196.339151 
L 201.449647 196.264913 
L 201.703537 196.551257 
L 201.957427 196.417286 
L 202.211318 196.444224 
L 202.465208 196.345768 
L 202.719098 196.519863 
L 202.972988 196.527679 
L 203.226879 196.367812 
L 203.480769 196.50014 
L 203.734659 196.430853 
L 203.988549 196.659868 
L 204.24244 196.423466 
L 204.49633 196.527758 
L 205.765781 196.093493 
L 206.019671 196.41973 
L 206.273562 196.328188 
L 206.781342 196.706546 
L 207.289123 196.472113 
L 207.543013 196.5538 
L 208.050793 196.592066 
L 208.558574 196.653928 
L 208.812464 196.72884 
L 210.081915 196.455735 
L 210.589696 196.594892 
L 210.843586 196.606878 
L 211.351367 196.118405 
L 211.605257 196.175722 
L 211.859147 196.381214 
L 212.366928 196.46828 
L 212.620818 196.257412 
L 214.65194 196.477085 
L 215.413611 196.320026 
L 215.667501 196.531479 
L 216.175282 196.276165 
L 216.429172 196.428306 
L 218.206404 196.335222 
L 218.968074 196.5829 
L 219.475855 196.489377 
L 219.729745 196.54143 
L 220.237526 196.360038 
L 220.999196 196.282211 
L 221.506977 196.362834 
L 222.014757 196.433994 
L 222.268648 196.367701 
L 223.030318 196.515853 
L 224.80755 196.50871 
L 225.06144 196.278787 
L 225.823111 196.395836 
L 226.077001 196.313523 
L 226.584782 196.435398 
L 227.600343 196.48366 
L 228.362014 196.377513 
L 229.377575 196.460352 
L 229.885355 196.366989 
L 230.393136 196.507854 
L 232.170368 196.264152 
L 232.932038 196.501387 
L 234.45538 196.383379 
L 235.217051 196.467976 
L 236.486502 196.354916 
L 237.502063 196.347481 
L 238.517624 196.438888 
L 239.025404 196.356109 
L 239.533185 196.498068 
L 240.802636 196.333767 
L 241.056526 196.281128 
L 241.818197 196.362185 
L 242.325978 196.379765 
L 243.087648 196.49885 
L 243.341539 196.388886 
L 243.595429 196.452969 
L 243.849319 196.340029 
L 244.86488 196.363676 
L 245.626551 196.389728 
L 245.880441 196.470111 
L 247.403783 196.268078 
L 248.165454 196.475834 
L 248.673234 196.423418 
L 249.181015 196.34765 
L 249.434905 196.464919 
L 253.497149 196.381262 
L 254.7666 196.346694 
L 255.02049 196.273706 
L 255.528271 196.517251 
L 255.782161 196.427519 
L 256.289942 196.467303 
L 256.797722 196.372045 
L 257.051612 196.448246 
L 257.305503 196.371179 
L 257.559393 196.465063 
L 258.067173 196.364761 
L 258.828844 196.471157 
L 259.336625 196.33343 
L 260.098295 196.519034 
L 260.352186 196.417286 
L 260.859966 196.620685 
L 261.113856 196.605194 
L 261.367747 196.446058 
L 261.621637 196.576864 
L 262.129417 196.426247 
L 262.383308 196.38153 
L 262.637198 196.529369 
L 264.16054 196.377294 
L 265.176101 196.567443 
L 265.937771 196.427967 
L 268.222784 196.601434 
L 268.476674 196.469239 
L 268.730564 196.559362 
L 270.000015 196.386385 
L 271.523357 196.429915 
L 272.031137 196.330839 
L 272.285028 196.462132 
L 272.792808 196.418374 
L 274.31615 196.375953 
L 274.57004 196.313583 
L 274.82393 196.433639 
L 275.331711 196.387299 
L 275.839491 196.298068 
L 276.093381 196.39403 
L 276.601162 196.297118 
L 277.108942 196.365504 
L 278.378394 196.438431 
L 278.886174 196.575111 
L 279.647845 196.381476 
L 279.901735 196.457975 
L 280.409516 196.357763 
L 281.678967 196.527421 
L 282.186748 196.32896 
L 282.694528 196.406914 
L 283.710089 196.524177 
L 284.21787 196.357444 
L 284.72565 196.359037 
L 284.97954 196.32581 
L 285.741211 196.557399 
L 286.248992 196.498991 
L 286.756772 196.498679 
L 288.026223 196.446674 
L 288.534004 196.552411 
L 290.565126 196.537161 
L 291.072906 196.558216 
L 292.850138 196.388519 
L 294.37348 196.560411 
L 295.13515 196.362221 
L 295.896821 196.475519 
L 296.150712 196.331933 
L 296.658492 196.480232 
L 298.689614 196.397754 
L 299.451285 196.463019 
L 299.705175 196.514837 
L 299.959065 196.417893 
L 300.720736 196.524379 
L 301.228517 196.478868 
L 301.990187 196.449602 
L 302.497968 196.386794 
L 303.513529 196.465782 
L 303.767419 196.498961 
L 304.2752 196.34624 
L 304.78298 196.520101 
L 305.03687 196.325482 
L 305.544651 196.375623 
L 306.052431 196.430907 
L 306.306322 196.329582 
L 306.814102 196.551918 
L 307.067992 196.421245 
L 309.099114 196.488301 
L 309.606895 196.440466 
L 310.114675 196.468172 
L 312.145798 196.423454 
L 312.399688 196.528473 
L 313.415249 196.297118 
L 313.669139 196.423902 
L 313.923029 196.352063 
L 314.6847 196.443512 
L 315.446371 196.351621 
L 315.700261 196.486482 
L 316.461932 196.42784 
L 316.461932 196.42784 
" clip-path="url(#p67ee9264e4)" style="fill: none; stroke: #ff0000; stroke-width: 0.6; stroke-linecap: square"/>
   </g>
   <g id="patch_3">
    <path d="M 50.14375 239.76 
L 50.14375 37.296 
" style="fill: none; stroke: #000000; stroke-width: 0.8; stroke-linejoin: miter; stroke-linecap: square"/>
   </g>
   <g id="patch_4">
    <path d="M 329.14375 239.76 
L 329.14375 37.296 
" style="fill: none; stroke: #000000; stroke-width: 0.8; stroke-linejoin: miter; stroke-linecap: square"/>
   </g>
   <g id="patch_5">
    <path d="M 50.14375 239.76 
L 329.14375 239.76 
" style="fill: none; stroke: #000000; stroke-width: 0.8; stroke-linejoin: miter; stroke-linecap: square"/>
   </g>
   <g id="patch_6">
    <path d="M 50.14375 37.296 
L 329.14375 37.296 
" style="fill: none; stroke: #000000; stroke-width: 0.8; stroke-linejoin: miter; stroke-linecap: square"/>
   </g>
   <g id="text_17">
    <!-- Quantized-16 Model -->
    <g transform="translate(144.346328 31.296) scale(0.09 -0.09)">
     <defs>
      <path id="DejaVuSans-51" d="M 2522 4238 
Q 1834 4238 1429 3725 
Q 1025 3213 1025 2328 
Q 1025 1447 1429 934 
Q 1834 422 2522 422 
Q 3209 422 3611 934 
Q 4013 1447 4013 2328 
Q 4013 3213 3611 3725 
Q 3209 4238 2522 4238 
z
M 3406 84 
L 4238 -825 
L 3475 -825 
L 2784 -78 
Q 2681 -84 2626 -87 
Q 2572 -91 2522 -91 
Q 1538 -91 948 567 
Q 359 1225 359 2328 
Q 359 3434 948 4092 
Q 1538 4750 2522 4750 
Q 3503 4750 4090 4092 
Q 4678 3434 4678 2328 
Q 4678 1516 4351 937 
Q 4025 359 3406 84 
z
" transform="scale(0.015625)"/>
      <path id="DejaVuSans-75" d="M 544 1381 
L 544 3500 
L 1119 3500 
L 1119 1403 
Q 1119 906 1312 657 
Q 1506 409 1894 409 
Q 2359 409 2629 706 
Q 2900 1003 2900 1516 
L 2900 3500 
L 3475 3500 
L 3475 0 
L 2900 0 
L 2900 538 
Q 2691 219 2414 64 
Q 2138 -91 1772 -91 
Q 1169 -91 856 284 
Q 544 659 544 1381 
z
M 1991 3584 
L 1991 3584 
z
" transform="scale(0.015625)"/>
      <path id="DejaVuSans-61" d="M 2194 1759 
Q 1497 1759 1228 1600 
Q 959 1441 959 1056 
Q 959 750 1161 570 
Q 1363 391 1709 391 
Q 2188 391 2477 730 
Q 2766 1069 2766 1631 
L 2766 1759 
L 2194 1759 
z
M 3341 1997 
L 3341 0 
L 2766 0 
L 2766 531 
Q 2569 213 2275 61 
Q 1981 -91 1556 -91 
Q 1019 -91 701 211 
Q 384 513 384 1019 
Q 384 1609 779 1909 
Q 1175 2209 1959 2209 
L 2766 2209 
L 2766 2266 
Q 2766 2663 2505 2880 
Q 2244 3097 1772 3097 
Q 1472 3097 1187 3025 
Q 903 2953 641 2809 
L 641 3341 
Q 956 3463 1253 3523 
Q 1550 3584 1831 3584 
Q 2591 3584 2966 3190 
Q 3341 2797 3341 1997 
z
" transform="scale(0.015625)"/>
      <path id="DejaVuSans-6e" d="M 3513 2113 
L 3513 0 
L 2938 0 
L 2938 2094 
Q 2938 2591 2744 2837 
Q 2550 3084 2163 3084 
Q 1697 3084 1428 2787 
Q 1159 2491 1159 1978 
L 1159 0 
L 581 0 
L 581 3500 
L 1159 3500 
L 1159 2956 
Q 1366 3272 1645 3428 
Q 1925 3584 2291 3584 
Q 2894 3584 3203 3211 
Q 3513 2838 3513 2113 
z
" transform="scale(0.015625)"/>
      <path id="DejaVuSans-74" d="M 1172 4494 
L 1172 3500 
L 2356 3500 
L 2356 3053 
L 1172 3053 
L 1172 1153 
Q 1172 725 1289 603 
Q 1406 481 1766 481 
L 2356 481 
L 2356 0 
L 1766 0 
Q 1100 0 847 248 
Q 594 497 594 1153 
L 594 3053 
L 172 3053 
L 172 3500 
L 594 3500 
L 594 4494 
L 1172 4494 
z
" transform="scale(0.015625)"/>
      <path id="DejaVuSans-69" d="M 603 3500 
L 1178 3500 
L 1178 0 
L 603 0 
L 603 3500 
z
M 603 4863 
L 1178 4863 
L 1178 4134 
L 603 4134 
L 603 4863 
z
" transform="scale(0.015625)"/>
      <path id="DejaVuSans-7a" d="M 353 3500 
L 3084 3500 
L 3084 2975 
L 922 459 
L 3084 459 
L 3084 0 
L 275 0 
L 275 525 
L 2438 3041 
L 353 3041 
L 353 3500 
z
" transform="scale(0.015625)"/>
      <path id="DejaVuSans-65" d="M 3597 1894 
L 3597 1613 
L 953 1613 
Q 991 1019 1311 708 
Q 1631 397 2203 397 
Q 2534 397 2845 478 
Q 3156 559 3463 722 
L 3463 178 
Q 3153 47 2828 -22 
Q 2503 -91 2169 -91 
Q 1331 -91 842 396 
Q 353 884 353 1716 
Q 353 2575 817 3079 
Q 1281 3584 2069 3584 
Q 2775 3584 3186 3129 
Q 3597 2675 3597 1894 
z
M 3022 2063 
Q 3016 2534 2758 2815 
Q 2500 3097 2075 3097 
Q 1594 3097 1305 2825 
Q 1016 2553 972 2059 
L 3022 2063 
z
" transform="scale(0.015625)"/>
      <path id="DejaVuSans-64" d="M 2906 2969 
L 2906 4863 
L 3481 4863 
L 3481 0 
L 2906 0 
L 2906 525 
Q 2725 213 2448 61 
Q 2172 -91 1784 -91 
Q 1150 -91 751 415 
Q 353 922 353 1747 
Q 353 2572 751 3078 
Q 1150 3584 1784 3584 
Q 2172 3584 2448 3432 
Q 2725 3281 2906 2969 
z
M 947 1747 
Q 947 1113 1208 752 
Q 1469 391 1925 391 
Q 2381 391 2643 752 
Q 2906 1113 2906 1747 
Q 2906 2381 2643 2742 
Q 2381 3103 1925 3103 
Q 1469 3103 1208 2742 
Q 947 2381 947 1747 
z
" transform="scale(0.015625)"/>
      <path id="DejaVuSans-2d" d="M 313 2009 
L 1997 2009 
L 1997 1497 
L 313 1497 
L 313 2009 
z
" transform="scale(0.015625)"/>
      <path id="DejaVuSans-20" transform="scale(0.015625)"/>
      <path id="DejaVuSans-4d" d="M 628 4666 
L 1569 4666 
L 2759 1491 
L 3956 4666 
L 4897 4666 
L 4897 0 
L 4281 0 
L 4281 4097 
L 3078 897 
L 2444 897 
L 1241 4097 
L 1241 0 
L 628 0 
L 628 4666 
z
" transform="scale(0.015625)"/>
      <path id="DejaVuSans-6c" d="M 603 4863 
L 1178 4863 
L 1178 0 
L 603 0 
L 603 4863 
z
" transform="scale(0.015625)"/>
     </defs>
     <use xlink:href="#DejaVuSans-51"/>
     <use xlink:href="#DejaVuSans-75" x="78.710938"/>
     <use xlink:href="#DejaVuSans-61" x="142.089844"/>
     <use xlink:href="#DejaVuSans-6e" x="203.369141"/>
     <use xlink:href="#DejaVuSans-74" x="266.748047"/>
     <use xlink:href="#DejaVuSans-69" x="305.957031"/>
     <use xlink:href="#DejaVuSans-7a" x="333.740234"/>
     <use xlink:href="#DejaVuSans-65" x="386.230469"/>
     <use xlink:href="#DejaVuSans-64" x="447.753906"/>
     <use xlink:href="#DejaVuSans-2d" x="511.230469"/>
     <use xlink:href="#DejaVuSans-31" x="547.314453"/>
     <use xlink:href="#DejaVuSans-36" x="610.9375"/>
     <use xlink:href="#DejaVuSans-20" x="674.560547"/>
     <use xlink:href="#DejaVuSans-4d" x="706.347656"/>
     <use xlink:href="#DejaVuSans-6f" x="792.626953"/>
     <use xlink:href="#DejaVuSans-64" x="853.808594"/>
     <use xlink:href="#DejaVuSans-65" x="917.285156"/>
     <use xlink:href="#DejaVuSans-6c" x="978.808594"/>
    </g>
   </g>
   <g id="legend_1">
    <g id="patch_7">
     <path d="M 215.65 74.65225 
L 322.14375 74.65225 
Q 324.14375 74.65225 324.14375 72.65225 
L 324.14375 44.296 
Q 324.14375 42.296 322.14375 42.296 
L 215.65 42.296 
Q 213.65 42.296 213.65 44.296 
L 213.65 72.65225 
Q 213.65 74.65225 215.65 74.65225 
z
" style="fill: #ffffff; opacity: 0.8; stroke: #cccccc; stroke-linejoin: miter"/>
    </g>
    <g id="line2d_31">
     <path d="M 217.65 50.394438 
L 227.65 50.394438 
L 237.65 50.394438 
" style="fill: none; stroke: #0000ff; stroke-width: 0.6; stroke-linecap: square"/>
    </g>
    <g id="text_18">
     <!-- Training Loss -->
     <g transform="translate(245.65 53.894438) scale(0.1 -0.1)">
      <defs>
       <path id="DejaVuSans-54" d="M -19 4666 
L 3928 4666 
L 3928 4134 
L 2272 4134 
L 2272 0 
L 1638 0 
L 1638 4134 
L -19 4134 
L -19 4666 
z
" transform="scale(0.015625)"/>
       <path id="DejaVuSans-72" d="M 2631 2963 
Q 2534 3019 2420 3045 
Q 2306 3072 2169 3072 
Q 1681 3072 1420 2755 
Q 1159 2438 1159 1844 
L 1159 0 
L 581 0 
L 581 3500 
L 1159 3500 
L 1159 2956 
Q 1341 3275 1631 3429 
Q 1922 3584 2338 3584 
Q 2397 3584 2469 3576 
Q 2541 3569 2628 3553 
L 2631 2963 
z
" transform="scale(0.015625)"/>
       <path id="DejaVuSans-67" d="M 2906 1791 
Q 2906 2416 2648 2759 
Q 2391 3103 1925 3103 
Q 1463 3103 1205 2759 
Q 947 2416 947 1791 
Q 947 1169 1205 825 
Q 1463 481 1925 481 
Q 2391 481 2648 825 
Q 2906 1169 2906 1791 
z
M 3481 434 
Q 3481 -459 3084 -895 
Q 2688 -1331 1869 -1331 
Q 1566 -1331 1297 -1286 
Q 1028 -1241 775 -1147 
L 775 -588 
Q 1028 -725 1275 -790 
Q 1522 -856 1778 -856 
Q 2344 -856 2625 -561 
Q 2906 -266 2906 331 
L 2906 616 
Q 2728 306 2450 153 
Q 2172 0 1784 0 
Q 1141 0 747 490 
Q 353 981 353 1791 
Q 353 2603 747 3093 
Q 1141 3584 1784 3584 
Q 2172 3584 2450 3431 
Q 2728 3278 2906 2969 
L 2906 3500 
L 3481 3500 
L 3481 434 
z
" transform="scale(0.015625)"/>
      </defs>
      <use xlink:href="#DejaVuSans-54"/>
      <use xlink:href="#DejaVuSans-72" x="46.333984"/>
      <use xlink:href="#DejaVuSans-61" x="87.447266"/>
      <use xlink:href="#DejaVuSans-69" x="148.726562"/>
      <use xlink:href="#DejaVuSans-6e" x="176.509766"/>
      <use xlink:href="#DejaVuSans-69" x="239.888672"/>
      <use xlink:href="#DejaVuSans-6e" x="267.671875"/>
      <use xlink:href="#DejaVuSans-67" x="331.050781"/>
      <use xlink:href="#DejaVuSans-20" x="394.527344"/>
      <use xlink:href="#DejaVuSans-4c" x="426.314453"/>
      <use xlink:href="#DejaVuSans-6f" x="480.277344"/>
      <use xlink:href="#DejaVuSans-73" x="541.458984"/>
      <use xlink:href="#DejaVuSans-73" x="593.558594"/>
     </g>
    </g>
    <g id="line2d_32">
     <path d="M 217.65 65.072563 
L 227.65 65.072563 
L 237.65 65.072563 
" style="fill: none; stroke: #ff0000; stroke-width: 0.6; stroke-linecap: square"/>
    </g>
    <g id="text_19">
     <!-- Validation Loss -->
     <g transform="translate(245.65 68.572563) scale(0.1 -0.1)">
      <defs>
       <path id="DejaVuSans-56" d="M 1831 0 
L 50 4666 
L 709 4666 
L 2188 738 
L 3669 4666 
L 4325 4666 
L 2547 0 
L 1831 0 
z
" transform="scale(0.015625)"/>
      </defs>
      <use xlink:href="#DejaVuSans-56"/>
      <use xlink:href="#DejaVuSans-61" x="60.658203"/>
      <use xlink:href="#DejaVuSans-6c" x="121.9375"/>
      <use xlink:href="#DejaVuSans-69" x="149.720703"/>
      <use xlink:href="#DejaVuSans-64" x="177.503906"/>
      <use xlink:href="#DejaVuSans-61" x="240.980469"/>
      <use xlink:href="#DejaVuSans-74" x="302.259766"/>
      <use xlink:href="#DejaVuSans-69" x="341.46875"/>
      <use xlink:href="#DejaVuSans-6f" x="369.251953"/>
      <use xlink:href="#DejaVuSans-6e" x="430.433594"/>
      <use xlink:href="#DejaVuSans-20" x="493.8125"/>
      <use xlink:href="#DejaVuSans-4c" x="525.599609"/>
      <use xlink:href="#DejaVuSans-6f" x="579.5625"/>
      <use xlink:href="#DejaVuSans-73" x="640.744141"/>
      <use xlink:href="#DejaVuSans-73" x="692.84375"/>
     </g>
    </g>
   </g>
  </g>
  <g id="text_20">
   <!-- Training VS. Validation Loss - Dataset Size = 100.0% -->
   <g transform="translate(40.843516 15.558281) scale(0.11 -0.11)">
    <defs>
     <path id="DejaVuSans-53" d="M 3425 4513 
L 3425 3897 
Q 3066 4069 2747 4153 
Q 2428 4238 2131 4238 
Q 1616 4238 1336 4038 
Q 1056 3838 1056 3469 
Q 1056 3159 1242 3001 
Q 1428 2844 1947 2747 
L 2328 2669 
Q 3034 2534 3370 2195 
Q 3706 1856 3706 1288 
Q 3706 609 3251 259 
Q 2797 -91 1919 -91 
Q 1588 -91 1214 -16 
Q 841 59 441 206 
L 441 856 
Q 825 641 1194 531 
Q 1563 422 1919 422 
Q 2459 422 2753 634 
Q 3047 847 3047 1241 
Q 3047 1584 2836 1778 
Q 2625 1972 2144 2069 
L 1759 2144 
Q 1053 2284 737 2584 
Q 422 2884 422 3419 
Q 422 4038 858 4394 
Q 1294 4750 2059 4750 
Q 2388 4750 2728 4690 
Q 3069 4631 3425 4513 
z
" transform="scale(0.015625)"/>
     <path id="DejaVuSans-44" d="M 1259 4147 
L 1259 519 
L 2022 519 
Q 2988 519 3436 956 
Q 3884 1394 3884 2338 
Q 3884 3275 3436 3711 
Q 2988 4147 2022 4147 
L 1259 4147 
z
M 628 4666 
L 1925 4666 
Q 3281 4666 3915 4102 
Q 4550 3538 4550 2338 
Q 4550 1131 3912 565 
Q 3275 0 1925 0 
L 628 0 
L 628 4666 
z
" transform="scale(0.015625)"/>
     <path id="DejaVuSans-3d" d="M 678 2906 
L 4684 2906 
L 4684 2381 
L 678 2381 
L 678 2906 
z
M 678 1631 
L 4684 1631 
L 4684 1100 
L 678 1100 
L 678 1631 
z
" transform="scale(0.015625)"/>
     <path id="DejaVuSans-25" d="M 4653 2053 
Q 4381 2053 4226 1822 
Q 4072 1591 4072 1178 
Q 4072 772 4226 539 
Q 4381 306 4653 306 
Q 4919 306 5073 539 
Q 5228 772 5228 1178 
Q 5228 1588 5073 1820 
Q 4919 2053 4653 2053 
z
M 4653 2450 
Q 5147 2450 5437 2106 
Q 5728 1763 5728 1178 
Q 5728 594 5436 251 
Q 5144 -91 4653 -91 
Q 4153 -91 3862 251 
Q 3572 594 3572 1178 
Q 3572 1766 3864 2108 
Q 4156 2450 4653 2450 
z
M 1428 4353 
Q 1159 4353 1004 4120 
Q 850 3888 850 3481 
Q 850 3069 1003 2837 
Q 1156 2606 1428 2606 
Q 1700 2606 1854 2837 
Q 2009 3069 2009 3481 
Q 2009 3884 1853 4118 
Q 1697 4353 1428 4353 
z
M 4250 4750 
L 4750 4750 
L 1831 -91 
L 1331 -91 
L 4250 4750 
z
M 1428 4750 
Q 1922 4750 2215 4408 
Q 2509 4066 2509 3481 
Q 2509 2891 2217 2550 
Q 1925 2209 1428 2209 
Q 931 2209 642 2551 
Q 353 2894 353 3481 
Q 353 4063 643 4406 
Q 934 4750 1428 4750 
z
" transform="scale(0.015625)"/>
    </defs>
    <use xlink:href="#DejaVuSans-54"/>
    <use xlink:href="#DejaVuSans-72" x="46.333984"/>
    <use xlink:href="#DejaVuSans-61" x="87.447266"/>
    <use xlink:href="#DejaVuSans-69" x="148.726562"/>
    <use xlink:href="#DejaVuSans-6e" x="176.509766"/>
    <use xlink:href="#DejaVuSans-69" x="239.888672"/>
    <use xlink:href="#DejaVuSans-6e" x="267.671875"/>
    <use xlink:href="#DejaVuSans-67" x="331.050781"/>
    <use xlink:href="#DejaVuSans-20" x="394.527344"/>
    <use xlink:href="#DejaVuSans-56" x="426.314453"/>
    <use xlink:href="#DejaVuSans-53" x="494.722656"/>
    <use xlink:href="#DejaVuSans-2e" x="558.199219"/>
    <use xlink:href="#DejaVuSans-20" x="589.986328"/>
    <use xlink:href="#DejaVuSans-56" x="621.773438"/>
    <use xlink:href="#DejaVuSans-61" x="682.431641"/>
    <use xlink:href="#DejaVuSans-6c" x="743.710938"/>
    <use xlink:href="#DejaVuSans-69" x="771.494141"/>
    <use xlink:href="#DejaVuSans-64" x="799.277344"/>
    <use xlink:href="#DejaVuSans-61" x="862.753906"/>
    <use xlink:href="#DejaVuSans-74" x="924.033203"/>
    <use xlink:href="#DejaVuSans-69" x="963.242188"/>
    <use xlink:href="#DejaVuSans-6f" x="991.025391"/>
    <use xlink:href="#DejaVuSans-6e" x="1052.207031"/>
    <use xlink:href="#DejaVuSans-20" x="1115.585938"/>
    <use xlink:href="#DejaVuSans-4c" x="1147.373047"/>
    <use xlink:href="#DejaVuSans-6f" x="1201.335938"/>
    <use xlink:href="#DejaVuSans-73" x="1262.517578"/>
    <use xlink:href="#DejaVuSans-73" x="1314.617188"/>
    <use xlink:href="#DejaVuSans-20" x="1366.716797"/>
    <use xlink:href="#DejaVuSans-2d" x="1398.503906"/>
    <use xlink:href="#DejaVuSans-20" x="1434.587891"/>
    <use xlink:href="#DejaVuSans-44" x="1466.375"/>
    <use xlink:href="#DejaVuSans-61" x="1543.376953"/>
    <use xlink:href="#DejaVuSans-74" x="1604.65625"/>
    <use xlink:href="#DejaVuSans-61" x="1643.865234"/>
    <use xlink:href="#DejaVuSans-73" x="1705.144531"/>
    <use xlink:href="#DejaVuSans-65" x="1757.244141"/>
    <use xlink:href="#DejaVuSans-74" x="1818.767578"/>
    <use xlink:href="#DejaVuSans-20" x="1857.976562"/>
    <use xlink:href="#DejaVuSans-53" x="1889.763672"/>
    <use xlink:href="#DejaVuSans-69" x="1953.240234"/>
    <use xlink:href="#DejaVuSans-7a" x="1981.023438"/>
    <use xlink:href="#DejaVuSans-65" x="2033.513672"/>
    <use xlink:href="#DejaVuSans-20" x="2095.037109"/>
    <use xlink:href="#DejaVuSans-3d" x="2126.824219"/>
    <use xlink:href="#DejaVuSans-20" x="2210.613281"/>
    <use xlink:href="#DejaVuSans-31" x="2242.400391"/>
    <use xlink:href="#DejaVuSans-30" x="2306.023438"/>
    <use xlink:href="#DejaVuSans-30" x="2369.646484"/>
    <use xlink:href="#DejaVuSans-2e" x="2433.269531"/>
    <use xlink:href="#DejaVuSans-30" x="2465.056641"/>
    <use xlink:href="#DejaVuSans-25" x="2528.679688"/>
   </g>
  </g>
 </g>
 <defs>
  <clipPath id="p67ee9264e4">
   <rect x="50.14375" y="37.296" width="279" height="202.464"/>
  </clipPath>
 </defs>
</svg>
