<?xml version="1.0" encoding="utf-8" standalone="no"?>
<!DOCTYPE svg PUBLIC "-//W3C//DTD SVG 1.1//EN"
  "http://www.w3.org/Graphics/SVG/1.1/DTD/svg11.dtd">
<svg xmlns:xlink="http://www.w3.org/1999/xlink" width="330.281484pt" height="277.31625pt" viewBox="0 0 330.281484 277.31625" xmlns="http://www.w3.org/2000/svg" version="1.1">
 <metadata>
  <rdf:RDF xmlns:dc="http://purl.org/dc/elements/1.1/" xmlns:cc="http://creativecommons.org/ns#" xmlns:rdf="http://www.w3.org/1999/02/22-rdf-syntax-ns#">
   <cc:Work>
    <dc:type rdf:resource="http://purl.org/dc/dcmitype/StillImage"/>
    <dc:date>2026-06-10T18:37:41.457211</dc:date>
    <dc:format>image/svg+xml</dc:format>
    <dc:creator>
     <cc:Agent>
      <dc:title>Matplotlib v3.8.4, https://matplotlib.org/</dc:title>
     </cc:Agent>
    </dc:creator>
   </cc:Work>
  </rdf:RDF>
 </metadata>
 <defs>
  <style type="text/css">*{stroke-linejoin: round; stroke-linecap: butt}</style>
 </defs>
 <g id="figure_1">
  <g id="patch_1">
   <path d="M 0 277.31625 
L 330.281484 277.31625 
L 330.281484 0 
L 0 0 
z
" style="fill: #ffffff"/>
  </g>
  <g id="axes_1">
   <g id="patch_2">
    <path d="M 43.78125 239.76 
L 322.78125 239.76 
L 322.78125 37.296 
L 43.78125 37.296 
z
" style="fill: #ffffff"/>
   </g>
   <g id="matplotlib.axis_1">
    <g id="xtick_1">
     <g id="line2d_1">
      <path d="M 56.209178 239.76 
L 56.209178 37.296 
" clip-path="url(#pa14d7637eb)" style="fill: none; stroke-dasharray: 2.96,1.28; stroke-dashoffset: 0; stroke: #b0b0b0; stroke-opacity: 0.4; stroke-width: 0.8"/>
     </g>
     <g id="line2d_2">
      <defs>
       <path id="md206890643" d="M 0 0 
L 0 3.5 
" style="stroke: #000000; stroke-width: 0.8"/>
      </defs>
      <g>
       <use xlink:href="#md206890643" x="56.209178" y="239.76" style="stroke: #000000; stroke-width: 0.8"/>
      </g>
     </g>
     <g id="text_1">
      <!-- 0 -->
      <g transform="translate(53.027928 254.358437) scale(0.1 -0.1)">
       <defs>
        <path id="DejaVuSans-30" d="M 2034 4250 
Q 1547 4250 1301 3770 
Q 1056 3291 1056 2328 
Q 1056 1369 1301 889 
Q 1547 409 2034 409 
Q 2525 409 2770 889 
Q 3016 1369 3016 2328 
Q 3016 3291 2770 3770 
Q 2525 4250 2034 4250 
z
M 2034 4750 
Q 2819 4750 3233 4129 
Q 3647 3509 3647 2328 
Q 3647 1150 3233 529 
Q 2819 -91 2034 -91 
Q 1250 -91 836 529 
Q 422 1150 422 2328 
Q 422 3509 836 4129 
Q 1250 4750 2034 4750 
z
" transform="scale(0.015625)"/>
       </defs>
       <use xlink:href="#DejaVuSans-30"/>
      </g>
     </g>
    </g>
    <g id="xtick_2">
     <g id="line2d_3">
      <path d="M 106.987229 239.76 
L 106.987229 37.296 
" clip-path="url(#pa14d7637eb)" style="fill: none; stroke-dasharray: 2.96,1.28; stroke-dashoffset: 0; stroke: #b0b0b0; stroke-opacity: 0.4; stroke-width: 0.8"/>
     </g>
     <g id="line2d_4">
      <g>
       <use xlink:href="#md206890643" x="106.987229" y="239.76" style="stroke: #000000; stroke-width: 0.8"/>
      </g>
     </g>
     <g id="text_2">
      <!-- 200 -->
      <g transform="translate(97.443479 254.358437) scale(0.1 -0.1)">
       <defs>
        <path id="DejaVuSans-32" d="M 1228 531 
L 3431 531 
L 3431 0 
L 469 0 
L 469 531 
Q 828 903 1448 1529 
Q 2069 2156 2228 2338 
Q 2531 2678 2651 2914 
Q 2772 3150 2772 3378 
Q 2772 3750 2511 3984 
Q 2250 4219 1831 4219 
Q 1534 4219 1204 4116 
Q 875 4013 500 3803 
L 500 4441 
Q 881 4594 1212 4672 
Q 1544 4750 1819 4750 
Q 2544 4750 2975 4387 
Q 3406 4025 3406 3419 
Q 3406 3131 3298 2873 
Q 3191 2616 2906 2266 
Q 2828 2175 2409 1742 
Q 1991 1309 1228 531 
z
" transform="scale(0.015625)"/>
       </defs>
       <use xlink:href="#DejaVuSans-32"/>
       <use xlink:href="#DejaVuSans-30" x="63.623047"/>
       <use xlink:href="#DejaVuSans-30" x="127.246094"/>
      </g>
     </g>
    </g>
    <g id="xtick_3">
     <g id="line2d_5">
      <path d="M 157.765279 239.76 
L 157.765279 37.296 
" clip-path="url(#pa14d7637eb)" style="fill: none; stroke-dasharray: 2.96,1.28; stroke-dashoffset: 0; stroke: #b0b0b0; stroke-opacity: 0.4; stroke-width: 0.8"/>
     </g>
     <g id="line2d_6">
      <g>
       <use xlink:href="#md206890643" x="157.765279" y="239.76" style="stroke: #000000; stroke-width: 0.8"/>
      </g>
     </g>
     <g id="text_3">
      <!-- 400 -->
      <g transform="translate(148.221529 254.358437) scale(0.1 -0.1)">
       <defs>
        <path id="DejaVuSans-34" d="M 2419 4116 
L 825 1625 
L 2419 1625 
L 2419 4116 
z
M 2253 4666 
L 3047 4666 
L 3047 1625 
L 3713 1625 
L 3713 1100 
L 3047 1100 
L 3047 0 
L 2419 0 
L 2419 1100 
L 313 1100 
L 313 1709 
L 2253 4666 
z
" transform="scale(0.015625)"/>
       </defs>
       <use xlink:href="#DejaVuSans-34"/>
       <use xlink:href="#DejaVuSans-30" x="63.623047"/>
       <use xlink:href="#DejaVuSans-30" x="127.246094"/>
      </g>
     </g>
    </g>
    <g id="xtick_4">
     <g id="line2d_7">
      <path d="M 208.54333 239.76 
L 208.54333 37.296 
" clip-path="url(#pa14d7637eb)" style="fill: none; stroke-dasharray: 2.96,1.28; stroke-dashoffset: 0; stroke: #b0b0b0; stroke-opacity: 0.4; stroke-width: 0.8"/>
     </g>
     <g id="line2d_8">
      <g>
       <use xlink:href="#md206890643" x="208.54333" y="239.76" style="stroke: #000000; stroke-width: 0.8"/>
      </g>
     </g>
     <g id="text_4">
      <!-- 600 -->
      <g transform="translate(198.99958 254.358437) scale(0.1 -0.1)">
       <defs>
        <path id="DejaVuSans-36" d="M 2113 2584 
Q 1688 2584 1439 2293 
Q 1191 2003 1191 1497 
Q 1191 994 1439 701 
Q 1688 409 2113 409 
Q 2538 409 2786 701 
Q 3034 994 3034 1497 
Q 3034 2003 2786 2293 
Q 2538 2584 2113 2584 
z
M 3366 4563 
L 3366 3988 
Q 3128 4100 2886 4159 
Q 2644 4219 2406 4219 
Q 1781 4219 1451 3797 
Q 1122 3375 1075 2522 
Q 1259 2794 1537 2939 
Q 1816 3084 2150 3084 
Q 2853 3084 3261 2657 
Q 3669 2231 3669 1497 
Q 3669 778 3244 343 
Q 2819 -91 2113 -91 
Q 1303 -91 875 529 
Q 447 1150 447 2328 
Q 447 3434 972 4092 
Q 1497 4750 2381 4750 
Q 2619 4750 2861 4703 
Q 3103 4656 3366 4563 
z
" transform="scale(0.015625)"/>
       </defs>
       <use xlink:href="#DejaVuSans-36"/>
       <use xlink:href="#DejaVuSans-30" x="63.623047"/>
       <use xlink:href="#DejaVuSans-30" x="127.246094"/>
      </g>
     </g>
    </g>
    <g id="xtick_5">
     <g id="line2d_9">
      <path d="M 259.321381 239.76 
L 259.321381 37.296 
" clip-path="url(#pa14d7637eb)" style="fill: none; stroke-dasharray: 2.96,1.28; stroke-dashoffset: 0; stroke: #b0b0b0; stroke-opacity: 0.4; stroke-width: 0.8"/>
     </g>
     <g id="line2d_10">
      <g>
       <use xlink:href="#md206890643" x="259.321381" y="239.76" style="stroke: #000000; stroke-width: 0.8"/>
      </g>
     </g>
     <g id="text_5">
      <!-- 800 -->
      <g transform="translate(249.777631 254.358437) scale(0.1 -0.1)">
       <defs>
        <path id="DejaVuSans-38" d="M 2034 2216 
Q 1584 2216 1326 1975 
Q 1069 1734 1069 1313 
Q 1069 891 1326 650 
Q 1584 409 2034 409 
Q 2484 409 2743 651 
Q 3003 894 3003 1313 
Q 3003 1734 2745 1975 
Q 2488 2216 2034 2216 
z
M 1403 2484 
Q 997 2584 770 2862 
Q 544 3141 544 3541 
Q 544 4100 942 4425 
Q 1341 4750 2034 4750 
Q 2731 4750 3128 4425 
Q 3525 4100 3525 3541 
Q 3525 3141 3298 2862 
Q 3072 2584 2669 2484 
Q 3125 2378 3379 2068 
Q 3634 1759 3634 1313 
Q 3634 634 3220 271 
Q 2806 -91 2034 -91 
Q 1263 -91 848 271 
Q 434 634 434 1313 
Q 434 1759 690 2068 
Q 947 2378 1403 2484 
z
M 1172 3481 
Q 1172 3119 1398 2916 
Q 1625 2713 2034 2713 
Q 2441 2713 2670 2916 
Q 2900 3119 2900 3481 
Q 2900 3844 2670 4047 
Q 2441 4250 2034 4250 
Q 1625 4250 1398 4047 
Q 1172 3844 1172 3481 
z
" transform="scale(0.015625)"/>
       </defs>
       <use xlink:href="#DejaVuSans-38"/>
       <use xlink:href="#DejaVuSans-30" x="63.623047"/>
       <use xlink:href="#DejaVuSans-30" x="127.246094"/>
      </g>
     </g>
    </g>
    <g id="xtick_6">
     <g id="line2d_11">
      <path d="M 310.099432 239.76 
L 310.099432 37.296 
" clip-path="url(#pa14d7637eb)" style="fill: none; stroke-dasharray: 2.96,1.28; stroke-dashoffset: 0; stroke: #b0b0b0; stroke-opacity: 0.4; stroke-width: 0.8"/>
     </g>
     <g id="line2d_12">
      <g>
       <use xlink:href="#md206890643" x="310.099432" y="239.76" style="stroke: #000000; stroke-width: 0.8"/>
      </g>
     </g>
     <g id="text_6">
      <!-- 1000 -->
      <g transform="translate(297.374432 254.358437) scale(0.1 -0.1)">
       <defs>
        <path id="DejaVuSans-31" d="M 794 531 
L 1825 531 
L 1825 4091 
L 703 3866 
L 703 4441 
L 1819 4666 
L 2450 4666 
L 2450 531 
L 3481 531 
L 3481 0 
L 794 0 
L 794 531 
z
" transform="scale(0.015625)"/>
       </defs>
       <use xlink:href="#DejaVuSans-31"/>
       <use xlink:href="#DejaVuSans-30" x="63.623047"/>
       <use xlink:href="#DejaVuSans-30" x="127.246094"/>
       <use xlink:href="#DejaVuSans-30" x="190.869141"/>
      </g>
     </g>
    </g>
    <g id="text_7">
     <!-- Epochs -->
     <g transform="translate(165.365625 268.036562) scale(0.1 -0.1)">
      <defs>
       <path id="DejaVuSans-45" d="M 628 4666 
L 3578 4666 
L 3578 4134 
L 1259 4134 
L 1259 2753 
L 3481 2753 
L 3481 2222 
L 1259 2222 
L 1259 531 
L 3634 531 
L 3634 0 
L 628 0 
L 628 4666 
z
" transform="scale(0.015625)"/>
       <path id="DejaVuSans-70" d="M 1159 525 
L 1159 -1331 
L 581 -1331 
L 581 3500 
L 1159 3500 
L 1159 2969 
Q 1341 3281 1617 3432 
Q 1894 3584 2278 3584 
Q 2916 3584 3314 3078 
Q 3713 2572 3713 1747 
Q 3713 922 3314 415 
Q 2916 -91 2278 -91 
Q 1894 -91 1617 61 
Q 1341 213 1159 525 
z
M 3116 1747 
Q 3116 2381 2855 2742 
Q 2594 3103 2138 3103 
Q 1681 3103 1420 2742 
Q 1159 2381 1159 1747 
Q 1159 1113 1420 752 
Q 1681 391 2138 391 
Q 2594 391 2855 752 
Q 3116 1113 3116 1747 
z
" transform="scale(0.015625)"/>
       <path id="DejaVuSans-6f" d="M 1959 3097 
Q 1497 3097 1228 2736 
Q 959 2375 959 1747 
Q 959 1119 1226 758 
Q 1494 397 1959 397 
Q 2419 397 2687 759 
Q 2956 1122 2956 1747 
Q 2956 2369 2687 2733 
Q 2419 3097 1959 3097 
z
M 1959 3584 
Q 2709 3584 3137 3096 
Q 3566 2609 3566 1747 
Q 3566 888 3137 398 
Q 2709 -91 1959 -91 
Q 1206 -91 779 398 
Q 353 888 353 1747 
Q 353 2609 779 3096 
Q 1206 3584 1959 3584 
z
" transform="scale(0.015625)"/>
       <path id="DejaVuSans-63" d="M 3122 3366 
L 3122 2828 
Q 2878 2963 2633 3030 
Q 2388 3097 2138 3097 
Q 1578 3097 1268 2742 
Q 959 2388 959 1747 
Q 959 1106 1268 751 
Q 1578 397 2138 397 
Q 2388 397 2633 464 
Q 2878 531 3122 666 
L 3122 134 
Q 2881 22 2623 -34 
Q 2366 -91 2075 -91 
Q 1284 -91 818 406 
Q 353 903 353 1747 
Q 353 2603 823 3093 
Q 1294 3584 2113 3584 
Q 2378 3584 2631 3529 
Q 2884 3475 3122 3366 
z
" transform="scale(0.015625)"/>
       <path id="DejaVuSans-68" d="M 3513 2113 
L 3513 0 
L 2938 0 
L 2938 2094 
Q 2938 2591 2744 2837 
Q 2550 3084 2163 3084 
Q 1697 3084 1428 2787 
Q 1159 2491 1159 1978 
L 1159 0 
L 581 0 
L 581 4863 
L 1159 4863 
L 1159 2956 
Q 1366 3272 1645 3428 
Q 1925 3584 2291 3584 
Q 2894 3584 3203 3211 
Q 3513 2838 3513 2113 
z
" transform="scale(0.015625)"/>
       <path id="DejaVuSans-73" d="M 2834 3397 
L 2834 2853 
Q 2591 2978 2328 3040 
Q 2066 3103 1784 3103 
Q 1356 3103 1142 2972 
Q 928 2841 928 2578 
Q 928 2378 1081 2264 
Q 1234 2150 1697 2047 
L 1894 2003 
Q 2506 1872 2764 1633 
Q 3022 1394 3022 966 
Q 3022 478 2636 193 
Q 2250 -91 1575 -91 
Q 1294 -91 989 -36 
Q 684 19 347 128 
L 347 722 
Q 666 556 975 473 
Q 1284 391 1588 391 
Q 1994 391 2212 530 
Q 2431 669 2431 922 
Q 2431 1156 2273 1281 
Q 2116 1406 1581 1522 
L 1381 1569 
Q 847 1681 609 1914 
Q 372 2147 372 2553 
Q 372 3047 722 3315 
Q 1072 3584 1716 3584 
Q 2034 3584 2315 3537 
Q 2597 3491 2834 3397 
z
" transform="scale(0.015625)"/>
      </defs>
      <use xlink:href="#DejaVuSans-45"/>
      <use xlink:href="#DejaVuSans-70" x="63.183594"/>
      <use xlink:href="#DejaVuSans-6f" x="126.660156"/>
      <use xlink:href="#DejaVuSans-63" x="187.841797"/>
      <use xlink:href="#DejaVuSans-68" x="242.822266"/>
      <use xlink:href="#DejaVuSans-73" x="306.201172"/>
     </g>
    </g>
   </g>
   <g id="matplotlib.axis_2">
    <g id="ytick_1">
     <g id="line2d_13">
      <path d="M 43.78125 228.953819 
L 322.78125 228.953819 
" clip-path="url(#pa14d7637eb)" style="fill: none; stroke-dasharray: 2.96,1.28; stroke-dashoffset: 0; stroke: #b0b0b0; stroke-opacity: 0.4; stroke-width: 0.8"/>
     </g>
     <g id="line2d_14">
      <defs>
       <path id="mb947249a1d" d="M 0 0 
L -3.5 0 
" style="stroke: #000000; stroke-width: 0.8"/>
      </defs>
      <g>
       <use xlink:href="#mb947249a1d" x="43.78125" y="228.953819" style="stroke: #000000; stroke-width: 0.8"/>
      </g>
     </g>
     <g id="text_8">
      <!-- 0.1 -->
      <g transform="translate(20.878125 232.753038) scale(0.1 -0.1)">
       <defs>
        <path id="DejaVuSans-2e" d="M 684 794 
L 1344 794 
L 1344 0 
L 684 0 
L 684 794 
z
" transform="scale(0.015625)"/>
       </defs>
       <use xlink:href="#DejaVuSans-30"/>
       <use xlink:href="#DejaVuSans-2e" x="63.623047"/>
       <use xlink:href="#DejaVuSans-31" x="95.410156"/>
      </g>
     </g>
    </g>
    <g id="ytick_2">
     <g id="line2d_15">
      <path d="M 43.78125 198.365717 
L 322.78125 198.365717 
" clip-path="url(#pa14d7637eb)" style="fill: none; stroke-dasharray: 2.96,1.28; stroke-dashoffset: 0; stroke: #b0b0b0; stroke-opacity: 0.4; stroke-width: 0.8"/>
     </g>
     <g id="line2d_16">
      <g>
       <use xlink:href="#mb947249a1d" x="43.78125" y="198.365717" style="stroke: #000000; stroke-width: 0.8"/>
      </g>
     </g>
     <g id="text_9">
      <!-- 0.2 -->
      <g transform="translate(20.878125 202.164936) scale(0.1 -0.1)">
       <use xlink:href="#DejaVuSans-30"/>
       <use xlink:href="#DejaVuSans-2e" x="63.623047"/>
       <use xlink:href="#DejaVuSans-32" x="95.410156"/>
      </g>
     </g>
    </g>
    <g id="ytick_3">
     <g id="line2d_17">
      <path d="M 43.78125 167.777615 
L 322.78125 167.777615 
" clip-path="url(#pa14d7637eb)" style="fill: none; stroke-dasharray: 2.96,1.28; stroke-dashoffset: 0; stroke: #b0b0b0; stroke-opacity: 0.4; stroke-width: 0.8"/>
     </g>
     <g id="line2d_18">
      <g>
       <use xlink:href="#mb947249a1d" x="43.78125" y="167.777615" style="stroke: #000000; stroke-width: 0.8"/>
      </g>
     </g>
     <g id="text_10">
      <!-- 0.3 -->
      <g transform="translate(20.878125 171.576834) scale(0.1 -0.1)">
       <defs>
        <path id="DejaVuSans-33" d="M 2597 2516 
Q 3050 2419 3304 2112 
Q 3559 1806 3559 1356 
Q 3559 666 3084 287 
Q 2609 -91 1734 -91 
Q 1441 -91 1130 -33 
Q 819 25 488 141 
L 488 750 
Q 750 597 1062 519 
Q 1375 441 1716 441 
Q 2309 441 2620 675 
Q 2931 909 2931 1356 
Q 2931 1769 2642 2001 
Q 2353 2234 1838 2234 
L 1294 2234 
L 1294 2753 
L 1863 2753 
Q 2328 2753 2575 2939 
Q 2822 3125 2822 3475 
Q 2822 3834 2567 4026 
Q 2313 4219 1838 4219 
Q 1578 4219 1281 4162 
Q 984 4106 628 3988 
L 628 4550 
Q 988 4650 1302 4700 
Q 1616 4750 1894 4750 
Q 2613 4750 3031 4423 
Q 3450 4097 3450 3541 
Q 3450 3153 3228 2886 
Q 3006 2619 2597 2516 
z
" transform="scale(0.015625)"/>
       </defs>
       <use xlink:href="#DejaVuSans-30"/>
       <use xlink:href="#DejaVuSans-2e" x="63.623047"/>
       <use xlink:href="#DejaVuSans-33" x="95.410156"/>
      </g>
     </g>
    </g>
    <g id="ytick_4">
     <g id="line2d_19">
      <path d="M 43.78125 137.189514 
L 322.78125 137.189514 
" clip-path="url(#pa14d7637eb)" style="fill: none; stroke-dasharray: 2.96,1.28; stroke-dashoffset: 0; stroke: #b0b0b0; stroke-opacity: 0.4; stroke-width: 0.8"/>
     </g>
     <g id="line2d_20">
      <g>
       <use xlink:href="#mb947249a1d" x="43.78125" y="137.189514" style="stroke: #000000; stroke-width: 0.8"/>
      </g>
     </g>
     <g id="text_11">
      <!-- 0.4 -->
      <g transform="translate(20.878125 140.988733) scale(0.1 -0.1)">
       <use xlink:href="#DejaVuSans-30"/>
       <use xlink:href="#DejaVuSans-2e" x="63.623047"/>
       <use xlink:href="#DejaVuSans-34" x="95.410156"/>
      </g>
     </g>
    </g>
    <g id="ytick_5">
     <g id="line2d_21">
      <path d="M 43.78125 106.601412 
L 322.78125 106.601412 
" clip-path="url(#pa14d7637eb)" style="fill: none; stroke-dasharray: 2.96,1.28; stroke-dashoffset: 0; stroke: #b0b0b0; stroke-opacity: 0.4; stroke-width: 0.8"/>
     </g>
     <g id="line2d_22">
      <g>
       <use xlink:href="#mb947249a1d" x="43.78125" y="106.601412" style="stroke: #000000; stroke-width: 0.8"/>
      </g>
     </g>
     <g id="text_12">
      <!-- 0.5 -->
      <g transform="translate(20.878125 110.400631) scale(0.1 -0.1)">
       <defs>
        <path id="DejaVuSans-35" d="M 691 4666 
L 3169 4666 
L 3169 4134 
L 1269 4134 
L 1269 2991 
Q 1406 3038 1543 3061 
Q 1681 3084 1819 3084 
Q 2600 3084 3056 2656 
Q 3513 2228 3513 1497 
Q 3513 744 3044 326 
Q 2575 -91 1722 -91 
Q 1428 -91 1123 -41 
Q 819 9 494 109 
L 494 744 
Q 775 591 1075 516 
Q 1375 441 1709 441 
Q 2250 441 2565 725 
Q 2881 1009 2881 1497 
Q 2881 1984 2565 2268 
Q 2250 2553 1709 2553 
Q 1456 2553 1204 2497 
Q 953 2441 691 2322 
L 691 4666 
z
" transform="scale(0.015625)"/>
       </defs>
       <use xlink:href="#DejaVuSans-30"/>
       <use xlink:href="#DejaVuSans-2e" x="63.623047"/>
       <use xlink:href="#DejaVuSans-35" x="95.410156"/>
      </g>
     </g>
    </g>
    <g id="ytick_6">
     <g id="line2d_23">
      <path d="M 43.78125 76.013311 
L 322.78125 76.013311 
" clip-path="url(#pa14d7637eb)" style="fill: none; stroke-dasharray: 2.96,1.28; stroke-dashoffset: 0; stroke: #b0b0b0; stroke-opacity: 0.4; stroke-width: 0.8"/>
     </g>
     <g id="line2d_24">
      <g>
       <use xlink:href="#mb947249a1d" x="43.78125" y="76.013311" style="stroke: #000000; stroke-width: 0.8"/>
      </g>
     </g>
     <g id="text_13">
      <!-- 0.6 -->
      <g transform="translate(20.878125 79.812529) scale(0.1 -0.1)">
       <use xlink:href="#DejaVuSans-30"/>
       <use xlink:href="#DejaVuSans-2e" x="63.623047"/>
       <use xlink:href="#DejaVuSans-36" x="95.410156"/>
      </g>
     </g>
    </g>
    <g id="ytick_7">
     <g id="line2d_25">
      <path d="M 43.78125 45.425209 
L 322.78125 45.425209 
" clip-path="url(#pa14d7637eb)" style="fill: none; stroke-dasharray: 2.96,1.28; stroke-dashoffset: 0; stroke: #b0b0b0; stroke-opacity: 0.4; stroke-width: 0.8"/>
     </g>
     <g id="line2d_26">
      <g>
       <use xlink:href="#mb947249a1d" x="43.78125" y="45.425209" style="stroke: #000000; stroke-width: 0.8"/>
      </g>
     </g>
     <g id="text_14">
      <!-- 0.7 -->
      <g transform="translate(20.878125 49.224428) scale(0.1 -0.1)">
       <defs>
        <path id="DejaVuSans-37" d="M 525 4666 
L 3525 4666 
L 3525 4397 
L 1831 0 
L 1172 0 
L 2766 4134 
L 525 4134 
L 525 4666 
z
" transform="scale(0.015625)"/>
       </defs>
       <use xlink:href="#DejaVuSans-30"/>
       <use xlink:href="#DejaVuSans-2e" x="63.623047"/>
       <use xlink:href="#DejaVuSans-37" x="95.410156"/>
      </g>
     </g>
    </g>
    <g id="text_15">
     <!-- Loss -->
     <g transform="translate(14.798438 149.495187) rotate(-90) scale(0.1 -0.1)">
      <defs>
       <path id="DejaVuSans-4c" d="M 628 4666 
L 1259 4666 
L 1259 531 
L 3531 531 
L 3531 0 
L 628 0 
L 628 4666 
z
" transform="scale(0.015625)"/>
      </defs>
      <use xlink:href="#DejaVuSans-4c"/>
      <use xlink:href="#DejaVuSans-6f" x="53.962891"/>
      <use xlink:href="#DejaVuSans-73" x="115.144531"/>
      <use xlink:href="#DejaVuSans-73" x="167.244141"/>
     </g>
    </g>
   </g>
   <g id="line2d_27">
    <path d="M 56.463068 47.378472 
L 57.98641 47.466879 
L 58.2403 47.348936 
L 58.49419 47.464837 
L 58.74808 47.380587 
L 59.255861 47.550581 
L 60.017532 47.485348 
L 60.525312 47.562943 
L 61.033093 47.496451 
L 61.286983 47.614594 
L 61.540873 47.465001 
L 62.556434 47.729655 
L 63.064215 47.364926 
L 63.318105 47.57988 
L 63.571995 47.499623 
L 63.825886 47.715617 
L 64.079776 47.360167 
L 64.587556 47.623764 
L 65.603117 47.748817 
L 65.857008 47.538877 
L 66.110898 47.733721 
L 66.364788 47.754104 
L 66.618678 48.070611 
L 67.126459 48.06288 
L 67.380349 48.180604 
L 67.88813 49.830685 
L 68.14202 51.513784 
L 68.39591 55.265185 
L 69.157581 70.757366 
L 69.411471 70.820704 
L 69.665361 46.498909 
L 69.919252 47.35993 
L 70.173142 47.519678 
L 70.427032 47.454445 
L 70.680922 47.509523 
L 70.934813 47.766375 
L 71.188703 48.548378 
L 71.442593 58.580607 
L 71.696483 80.17578 
L 72.204264 90.436036 
L 72.712044 61.165803 
L 72.965935 76.900396 
L 73.219825 100.716692 
L 73.727605 86.364919 
L 73.981496 101.491549 
L 74.235386 108.490377 
L 74.489276 110.34017 
L 74.743166 93.462864 
L 74.997057 111.730154 
L 75.250947 120.530634 
L 75.504837 88.742089 
L 75.758727 110.545015 
L 76.012618 112.301032 
L 76.266508 107.667351 
L 76.520398 124.565195 
L 76.774288 131.426098 
L 77.028179 119.341857 
L 77.282069 117.076786 
L 77.535959 130.242017 
L 77.78985 117.769481 
L 78.29763 134.622219 
L 78.55152 131.224107 
L 78.805411 136.610174 
L 79.059301 139.584094 
L 79.313191 140.51415 
L 79.567081 140.44455 
L 79.820972 131.466765 
L 80.074862 133.736467 
L 80.582642 142.226383 
L 80.836533 125.925963 
L 81.090423 138.186507 
L 81.344313 144.060497 
L 81.598203 144.98007 
L 81.852094 139.716968 
L 82.105984 143.408678 
L 82.359874 141.708715 
L 82.867655 144.034106 
L 83.121545 148.140402 
L 83.375435 146.230753 
L 83.629325 145.212573 
L 83.883216 146.804731 
L 84.137106 146.676241 
L 84.390996 146.355742 
L 84.644886 147.322827 
L 84.898777 146.229121 
L 85.152667 149.859901 
L 85.406557 151.460591 
L 85.660447 149.577105 
L 85.914338 151.749066 
L 86.422118 149.540222 
L 86.676008 150.440697 
L 86.929899 150.430132 
L 87.183789 153.371853 
L 87.437679 151.589573 
L 87.691569 153.20061 
L 87.94546 151.781473 
L 88.45324 155.279579 
L 88.70713 149.1982 
L 88.961021 153.933734 
L 89.214911 152.95519 
L 89.468801 156.209179 
L 89.722691 155.231756 
L 89.976582 155.90735 
L 90.230472 151.856552 
L 90.484362 159.100016 
L 90.738252 157.15167 
L 90.992143 157.734262 
L 91.246033 156.986899 
L 91.499923 155.775524 
L 91.753813 155.701985 
L 92.007704 156.697594 
L 92.261594 155.404212 
L 92.515484 152.886766 
L 92.769374 157.77707 
L 93.023265 157.509964 
L 93.277155 157.635445 
L 93.531045 159.149524 
L 93.784936 157.866562 
L 94.038826 162.00665 
L 94.292716 160.607669 
L 94.546606 162.189963 
L 94.800497 161.931334 
L 95.054387 161.25482 
L 95.308277 162.207511 
L 95.562167 160.960019 
L 95.816058 160.631881 
L 96.069948 164.219332 
L 96.577728 161.39331 
L 96.831619 163.7349 
L 97.339399 164.209003 
L 97.593289 164.629505 
L 97.84718 165.500198 
L 98.10107 165.054327 
L 98.35496 165.669463 
L 98.60885 165.572323 
L 99.116631 168.620328 
L 99.370521 166.39771 
L 99.624411 166.788129 
L 99.878302 166.698455 
L 100.132192 166.832049 
L 100.386082 168.776421 
L 100.639972 169.353197 
L 100.893863 163.731035 
L 101.401643 171.254578 
L 101.655533 169.899827 
L 101.909424 170.963313 
L 102.163314 167.860029 
L 102.417204 171.017471 
L 102.671094 171.151248 
L 102.924985 172.311856 
L 103.178875 171.009787 
L 103.432765 172.04041 
L 103.686655 172.585335 
L 103.940546 172.4997 
L 104.194436 174.968941 
L 104.448326 172.866034 
L 104.702216 174.99401 
L 104.956107 175.509746 
L 105.209997 175.365668 
L 105.463887 173.046475 
L 105.717777 174.966443 
L 105.971668 173.592476 
L 106.225558 173.659834 
L 106.479448 177.404581 
L 106.987229 178.533411 
L 107.241119 175.114997 
L 107.495009 175.057849 
L 107.748899 177.838547 
L 108.00279 178.196558 
L 108.25668 177.744734 
L 108.51057 175.571971 
L 109.018351 180.529643 
L 109.272241 178.308347 
L 109.526131 179.737028 
L 109.780021 175.974122 
L 110.033912 179.98748 
L 110.287802 176.022145 
L 110.541692 179.807385 
L 110.795583 181.703743 
L 111.049473 182.26638 
L 111.303363 179.631037 
L 111.557253 180.82748 
L 111.811144 182.576806 
L 112.065034 182.577417 
L 112.318924 184.268588 
L 112.572814 180.339393 
L 113.080595 184.345531 
L 113.588375 183.616145 
L 113.842266 181.677006 
L 114.603936 187.281989 
L 115.111717 182.804395 
L 115.365607 184.775262 
L 115.619497 184.253551 
L 115.873388 185.530174 
L 116.127278 190.151763 
L 116.381168 186.0193 
L 116.635058 186.847868 
L 116.888949 184.13328 
L 117.142839 187.803914 
L 117.396729 184.979715 
L 117.90451 190.037243 
L 118.1584 185.640668 
L 118.41229 186.026597 
L 118.66618 185.259876 
L 118.920071 187.227047 
L 119.173961 190.776334 
L 119.427851 188.635677 
L 119.681741 191.766009 
L 119.935632 187.80952 
L 120.189522 188.763278 
L 120.443412 192.155474 
L 120.697302 189.280664 
L 120.951193 188.614446 
L 121.205083 192.537242 
L 121.458973 191.143785 
L 121.712863 191.212966 
L 121.966754 184.543065 
L 122.220644 189.884095 
L 122.474534 190.904568 
L 122.728424 192.85749 
L 122.982315 192.617608 
L 123.236205 193.68455 
L 123.490095 193.709368 
L 123.743985 191.928879 
L 123.997876 194.926527 
L 124.251766 194.221079 
L 124.505656 195.068002 
L 124.759546 194.2864 
L 125.013437 196.693001 
L 125.267327 194.17817 
L 125.521217 185.33186 
L 125.775107 193.613094 
L 126.028998 196.976206 
L 126.282888 191.76635 
L 126.536778 193.364014 
L 126.790669 196.331543 
L 127.044559 193.040967 
L 127.298449 196.874937 
L 127.552339 197.564706 
L 127.80623 195.594417 
L 128.06012 195.14619 
L 128.31401 195.715063 
L 128.5679 197.621361 
L 128.821791 198.012933 
L 129.075681 200.510985 
L 129.329571 196.959542 
L 129.583461 197.572805 
L 129.837352 199.569165 
L 130.091242 197.565923 
L 130.599022 185.245569 
L 130.852913 199.369553 
L 131.106803 195.111563 
L 131.360693 196.223259 
L 131.614583 200.504422 
L 131.868474 197.58008 
L 132.122364 198.708759 
L 132.376254 201.35532 
L 132.630144 201.606018 
L 132.884035 200.364597 
L 133.137925 200.695342 
L 133.391815 200.452119 
L 133.645705 198.987863 
L 133.899596 202.668989 
L 134.407376 203.680538 
L 134.661266 200.424721 
L 135.169047 201.238471 
L 135.422937 195.221971 
L 135.676827 204.621738 
L 135.930718 200.063551 
L 136.184608 189.0291 
L 136.438498 202.244792 
L 136.692388 201.623302 
L 137.200169 206.053802 
L 137.454059 205.674432 
L 137.96184 201.601606 
L 138.21573 205.389768 
L 138.46962 186.724123 
L 138.72351 206.656622 
L 138.977401 210.28252 
L 139.485181 209.307545 
L 139.739071 211.937496 
L 139.992962 210.333032 
L 140.246852 212.421736 
L 140.500742 210.645326 
L 140.754632 213.037529 
L 141.008523 209.917576 
L 141.262413 211.828414 
L 141.516303 211.508563 
L 141.770193 212.470397 
L 142.024084 211.142616 
L 142.277974 212.23402 
L 142.531864 211.300568 
L 142.785755 212.228464 
L 143.039645 212.182948 
L 143.293535 214.09792 
L 143.547425 212.067152 
L 143.801316 213.468559 
L 144.055206 212.770805 
L 144.309096 213.382367 
L 144.562986 213.321819 
L 144.816877 214.677532 
L 145.070767 214.109247 
L 145.324657 212.309418 
L 145.578547 212.874371 
L 145.832438 212.043373 
L 146.086328 215.122915 
L 146.340218 216.149537 
L 146.594108 214.77494 
L 146.847999 214.378719 
L 147.101889 215.163271 
L 147.355779 211.804526 
L 147.86356 214.522228 
L 148.37134 213.145124 
L 148.62523 216.179815 
L 148.879121 215.495758 
L 149.133011 213.825608 
L 149.386901 215.438719 
L 149.640791 213.147408 
L 149.894682 215.490065 
L 150.148572 213.918345 
L 150.402462 217.747055 
L 150.656352 217.177138 
L 150.910243 216.068573 
L 151.164133 217.144772 
L 151.418023 216.159263 
L 151.671913 219.113898 
L 151.925804 219.260934 
L 152.433584 220.791696 
L 152.687474 219.139532 
L 152.941365 219.43153 
L 153.195255 220.961631 
L 153.449145 218.785281 
L 153.703035 219.413435 
L 153.956926 217.291111 
L 154.464706 220.62904 
L 154.718596 220.257961 
L 154.972487 219.244862 
L 155.226377 219.366105 
L 155.480267 221.010702 
L 155.734157 219.582418 
L 156.241938 218.352478 
L 156.495828 222.415794 
L 156.749718 221.915938 
L 157.003609 218.87464 
L 157.257499 220.599919 
L 157.511389 220.719648 
L 158.01917 222.004662 
L 158.27306 220.914843 
L 158.52695 220.709306 
L 158.78084 221.947156 
L 159.034731 222.482361 
L 159.288621 221.91525 
L 159.542511 222.539388 
L 159.796402 221.021154 
L 160.050292 220.393196 
L 160.304182 220.266379 
L 160.811963 221.919238 
L 161.573633 222.288106 
L 161.827524 223.778341 
L 162.081414 221.571172 
L 162.335304 223.828741 
L 162.589194 223.168305 
L 162.843085 219.90464 
L 163.096975 222.831284 
L 163.350865 222.23703 
L 163.604755 223.786256 
L 164.112536 220.880308 
L 164.366426 221.913591 
L 164.620316 226.122764 
L 164.874207 223.793617 
L 165.128097 224.898891 
L 165.381987 224.21606 
L 165.635877 222.963078 
L 165.889768 223.815411 
L 166.397548 221.086479 
L 166.651438 225.649571 
L 166.905329 222.826103 
L 167.159219 224.140154 
L 167.413109 223.541283 
L 167.666999 224.060786 
L 167.92089 222.83983 
L 168.17478 224.337084 
L 168.42867 222.216496 
L 168.68256 225.246016 
L 168.936451 223.484998 
L 169.190341 223.465196 
L 169.444231 224.33096 
L 169.698121 224.345486 
L 169.952012 223.672929 
L 170.205902 222.179383 
L 170.459792 221.697665 
L 170.967573 226.288465 
L 171.221463 224.528583 
L 171.475353 224.929229 
L 171.729243 225.752668 
L 171.983134 223.810133 
L 172.237024 225.639835 
L 172.490914 225.128201 
L 172.744804 224.274587 
L 172.998695 222.62668 
L 173.252585 223.139351 
L 173.506475 223.954591 
L 173.760365 225.243561 
L 174.014256 224.03659 
L 174.268146 224.460655 
L 174.522036 222.944137 
L 174.775926 225.966492 
L 175.029817 223.384552 
L 175.283707 225.743912 
L 175.537597 223.770317 
L 175.791488 226.934087 
L 176.045378 224.021876 
L 176.299268 225.426699 
L 176.553158 223.741059 
L 177.060939 225.369241 
L 177.314829 224.244288 
L 177.568719 225.696399 
L 177.82261 225.228185 
L 178.0765 226.710728 
L 178.33039 227.027266 
L 178.58428 226.358624 
L 178.838171 225.335571 
L 179.092061 226.253364 
L 179.345951 224.746021 
L 179.599841 224.916936 
L 179.853732 224.015595 
L 180.107622 225.536567 
L 180.361512 226.01616 
L 180.615402 225.320432 
L 180.869293 226.139848 
L 181.123183 225.258792 
L 181.377073 226.864603 
L 181.630963 227.345088 
L 181.884854 227.028378 
L 182.138744 226.326853 
L 182.392634 226.857525 
L 182.646524 223.816302 
L 183.154305 224.892171 
L 183.408195 225.875255 
L 183.662085 226.30223 
L 183.915976 226.398597 
L 184.677646 225.276121 
L 184.931537 227.996754 
L 185.185427 226.113961 
L 185.439317 226.726424 
L 185.693207 225.203488 
L 185.947098 225.87311 
L 186.200988 225.030674 
L 186.454878 226.750984 
L 186.708768 227.477094 
L 186.962659 227.408277 
L 187.216549 225.453258 
L 187.470439 227.725406 
L 187.724329 226.315647 
L 187.97822 225.547971 
L 188.23211 225.402079 
L 188.486 226.699935 
L 188.73989 226.211887 
L 188.993781 226.869542 
L 189.247671 224.053258 
L 189.501561 227.213091 
L 189.755451 227.296666 
L 190.009342 226.209877 
L 190.263232 226.231978 
L 190.517122 226.113762 
L 190.771012 225.393041 
L 191.024903 226.451621 
L 191.278793 225.832854 
L 191.532683 225.985204 
L 191.786574 227.388837 
L 192.294354 227.494715 
L 192.548244 228.099552 
L 192.802135 226.03861 
L 193.056025 224.941468 
L 193.309915 227.689721 
L 193.563805 225.730819 
L 193.817696 228.442891 
L 194.071586 227.731721 
L 194.325476 225.562538 
L 194.833257 227.618047 
L 195.087147 227.729503 
L 195.341037 226.551935 
L 195.594927 227.333882 
L 195.848818 225.685877 
L 196.102708 227.305604 
L 196.356598 225.882244 
L 196.610488 226.683982 
L 196.864379 225.345881 
L 197.118269 225.734021 
L 197.372159 227.084312 
L 197.626049 226.749081 
L 197.87994 227.122063 
L 198.13383 227.289243 
L 198.38772 225.632519 
L 198.895501 227.015172 
L 199.149391 226.275313 
L 199.403281 226.972381 
L 199.657171 227.064936 
L 199.911062 226.793218 
L 200.164952 225.929542 
L 200.418842 225.657173 
L 200.926623 227.243037 
L 201.180513 226.482255 
L 201.434403 226.972707 
L 201.688293 226.604397 
L 202.196074 227.939287 
L 202.703854 227.421172 
L 202.957745 228.711623 
L 203.211635 226.956891 
L 203.465525 228.046978 
L 203.719415 226.867078 
L 203.973306 226.426522 
L 204.227196 228.078599 
L 204.481086 227.925909 
L 204.734976 227.582896 
L 205.242757 228.252965 
L 205.496647 228.835099 
L 206.004428 227.275346 
L 206.258318 227.292133 
L 206.512208 227.186939 
L 206.766098 228.118691 
L 207.019989 226.959947 
L 207.273879 227.325468 
L 207.527769 227.074125 
L 207.78166 227.532293 
L 208.03555 228.630136 
L 208.28944 228.121679 
L 208.54333 228.681953 
L 208.797221 227.779864 
L 209.051111 227.845593 
L 209.305001 227.668732 
L 209.558891 226.421613 
L 209.812782 228.9489 
L 210.066672 226.542974 
L 210.320562 225.926226 
L 210.828343 226.699139 
L 211.082233 228.265173 
L 211.590013 227.528647 
L 211.843904 228.342176 
L 212.097794 226.964765 
L 212.605574 228.332237 
L 212.859465 226.771814 
L 213.113355 228.620714 
L 213.621135 227.878695 
L 213.875026 228.553058 
L 214.128916 226.388887 
L 214.382806 226.31087 
L 214.636696 228.412237 
L 214.890587 226.049689 
L 215.144477 228.17018 
L 215.398367 228.049961 
L 215.906148 229.146557 
L 216.160038 228.292546 
L 216.413928 229.165919 
L 216.667818 229.106502 
L 217.175599 226.732422 
L 217.429489 229.439528 
L 217.683379 228.170684 
L 218.19116 227.650199 
L 218.44505 230.016216 
L 218.69894 226.77044 
L 218.952831 227.22828 
L 219.206721 224.719002 
L 219.460611 228.204618 
L 219.968392 226.746898 
L 220.222282 229.495571 
L 220.476172 228.381851 
L 220.730062 228.052785 
L 220.983953 228.767461 
L 221.237843 229.04212 
L 221.491733 225.837815 
L 221.745623 229.536648 
L 221.999514 226.185817 
L 222.253404 225.854087 
L 222.507294 228.590764 
L 222.761184 229.745481 
L 223.015075 226.734701 
L 223.268965 226.11423 
L 223.522855 227.074893 
L 223.776745 227.208838 
L 224.030636 228.698346 
L 224.284526 228.20012 
L 224.538416 229.169513 
L 224.792307 229.126258 
L 225.046197 226.436349 
L 225.300087 227.068776 
L 225.553977 226.255757 
L 225.807868 226.081711 
L 226.061758 228.066746 
L 226.315648 227.635128 
L 226.569538 228.575298 
L 226.823429 227.282538 
L 227.077319 228.360882 
L 227.331209 227.922739 
L 227.585099 228.579845 
L 228.09288 227.52369 
L 228.34677 227.235789 
L 228.60066 228.989017 
L 228.854551 226.31438 
L 229.108441 228.789697 
L 229.362331 229.168274 
L 229.616221 227.463581 
L 229.870112 228.879261 
L 230.124002 228.111066 
L 230.377892 226.902947 
L 230.631782 228.352217 
L 230.885673 226.899415 
L 231.139563 226.700901 
L 231.393453 228.080764 
L 231.647343 226.934498 
L 231.901234 228.559108 
L 232.155124 227.585535 
L 232.409014 229.221206 
L 232.916795 226.969357 
L 233.170685 229.041876 
L 233.424575 229.585185 
L 234.186246 226.251074 
L 234.440136 228.817783 
L 234.694026 229.998547 
L 234.947917 228.919836 
L 235.201807 229.319722 
L 235.963478 227.097357 
L 236.217368 228.443684 
L 236.471258 228.411701 
L 236.725148 229.229688 
L 237.232929 226.547575 
L 237.486819 228.403387 
L 237.740709 226.779829 
L 237.9946 226.04952 
L 238.24849 227.262499 
L 238.50238 229.495343 
L 239.010161 227.52351 
L 239.264051 227.299784 
L 239.771831 228.938868 
L 240.025722 229.627873 
L 240.279612 225.727863 
L 240.787393 228.555341 
L 241.041283 226.810473 
L 241.295173 227.837521 
L 241.549063 229.938204 
L 242.056844 226.671773 
L 242.310734 228.843811 
L 242.564624 228.911953 
L 242.818515 227.957391 
L 243.072405 227.951482 
L 243.326295 230.397899 
L 243.580185 227.937992 
L 244.087966 229.175562 
L 244.341856 228.361659 
L 244.595746 229.436486 
L 244.849637 228.356741 
L 245.103527 226.502376 
L 245.357417 227.636012 
L 245.611307 226.511913 
L 245.865198 226.508244 
L 246.119088 227.643107 
L 246.372978 227.561904 
L 246.626868 228.752362 
L 246.880759 227.130762 
L 247.134649 227.783107 
L 247.388539 228.996688 
L 247.642429 227.247241 
L 247.89632 228.018488 
L 248.15021 228.322349 
L 248.4041 227.322441 
L 248.65799 227.583541 
L 248.911881 226.470509 
L 249.165771 227.757813 
L 249.419661 227.596057 
L 249.673551 229.041737 
L 249.927442 229.445688 
L 250.181332 228.047416 
L 250.689112 228.652025 
L 250.943003 227.766772 
L 251.196893 227.30753 
L 251.450783 229.354554 
L 251.704673 226.095685 
L 251.958564 227.771241 
L 252.212454 227.082564 
L 252.466344 228.781652 
L 252.720234 228.345259 
L 252.974125 227.661409 
L 253.228015 229.115818 
L 253.481905 229.390131 
L 253.735795 228.838634 
L 253.989686 228.952127 
L 254.243576 229.575764 
L 254.497466 228.247197 
L 254.751356 227.771124 
L 255.005247 229.593012 
L 255.259137 228.028067 
L 255.513027 228.146978 
L 255.766917 228.875913 
L 256.020808 226.959275 
L 256.274698 227.373678 
L 256.528588 228.015765 
L 257.290259 228.168464 
L 257.544149 226.807077 
L 257.79804 229.087208 
L 258.05193 227.230935 
L 258.30582 228.201929 
L 258.55971 227.140673 
L 258.813601 227.810095 
L 259.067491 227.958667 
L 259.321381 228.276126 
L 259.575271 227.806134 
L 259.829162 229.563164 
L 260.083052 228.637405 
L 260.336942 228.455307 
L 260.590832 229.135135 
L 260.844723 227.449518 
L 261.098613 228.308059 
L 261.352503 226.873767 
L 261.860284 228.604176 
L 262.114174 227.293165 
L 262.368064 227.918035 
L 262.621954 230.243385 
L 262.875845 228.141046 
L 263.129735 230.557091 
L 263.383625 226.806352 
L 263.637515 229.175596 
L 263.891406 227.556733 
L 264.145296 228.939258 
L 264.399186 228.308403 
L 264.653076 229.696298 
L 264.906967 228.297202 
L 265.160857 228.529083 
L 265.414747 229.892213 
L 265.668637 228.146187 
L 265.922528 229.12807 
L 266.176418 227.222592 
L 266.430308 228.381124 
L 266.938089 228.390743 
L 267.191979 226.759508 
L 267.445869 228.358888 
L 267.699759 227.575368 
L 267.95365 230.203704 
L 268.20754 227.403209 
L 268.46143 228.632369 
L 268.71532 227.280312 
L 268.969211 227.85957 
L 269.223101 227.899872 
L 269.476991 229.154477 
L 269.730881 227.634597 
L 269.984772 228.491258 
L 270.492552 228.331412 
L 270.746442 229.754321 
L 271.000333 227.33991 
L 271.254223 228.931149 
L 271.508113 227.902538 
L 272.269784 229.384639 
L 272.523674 227.785464 
L 272.777564 227.377837 
L 273.031455 226.527431 
L 273.285345 228.572288 
L 273.539235 228.214892 
L 273.793126 228.803653 
L 274.047016 226.725375 
L 274.300906 228.469811 
L 274.554796 226.831966 
L 274.808687 228.098524 
L 275.062577 228.299515 
L 275.316467 229.430811 
L 275.570357 230.02635 
L 276.078138 226.748575 
L 276.332028 228.990271 
L 276.585918 227.254008 
L 276.839809 228.332923 
L 277.093699 227.761343 
L 277.347589 229.348667 
L 277.601479 229.331454 
L 277.85537 228.888735 
L 278.36315 227.344299 
L 278.61704 228.417604 
L 278.870931 228.585324 
L 279.124821 227.962227 
L 279.378711 228.967511 
L 279.632601 229.11974 
L 279.886492 228.082526 
L 280.140382 229.619489 
L 280.394272 227.64001 
L 280.648162 227.855244 
L 281.155943 226.810236 
L 281.409833 227.684325 
L 281.917614 226.682656 
L 282.171504 228.569617 
L 282.425394 228.477919 
L 282.679284 226.953878 
L 282.933175 226.75557 
L 283.187065 228.00388 
L 283.694845 228.006948 
L 283.948736 227.741605 
L 284.202626 229.545579 
L 284.456516 228.295441 
L 284.710406 227.683871 
L 284.964297 228.948604 
L 285.218187 227.030065 
L 285.472077 228.268006 
L 285.979858 227.614038 
L 286.233748 229.272223 
L 286.487638 229.616344 
L 286.741528 227.500515 
L 286.995419 228.221904 
L 287.249309 226.816505 
L 287.503199 228.280493 
L 287.757089 227.503386 
L 288.01098 228.989644 
L 288.26487 229.154429 
L 288.51876 225.547312 
L 288.77265 228.20865 
L 289.026541 228.968636 
L 289.280431 226.640667 
L 289.534321 228.008411 
L 289.788212 229.989524 
L 290.042102 229.275742 
L 290.295992 227.787481 
L 290.549882 227.946718 
L 290.803773 228.491432 
L 291.057663 227.29288 
L 291.311553 228.406614 
L 291.565443 228.976319 
L 291.819334 226.009287 
L 292.073224 225.985517 
L 292.581004 226.883163 
L 292.834895 229.081802 
L 293.088785 227.803878 
L 293.596565 227.914307 
L 293.850456 226.508433 
L 294.104346 228.493779 
L 294.612126 227.624822 
L 294.866017 228.550829 
L 295.119907 227.98738 
L 295.373797 226.907729 
L 295.627687 228.10844 
L 296.135468 226.549205 
L 296.389358 227.019263 
L 296.643248 227.228114 
L 296.897139 228.181641 
L 297.151029 227.886567 
L 297.404919 230.492181 
L 297.658809 225.808742 
L 297.9127 229.225226 
L 298.16659 224.532101 
L 298.42048 229.2631 
L 298.67437 228.381329 
L 298.928261 226.757883 
L 299.182151 227.148682 
L 299.436041 226.816847 
L 299.689931 228.372507 
L 300.197712 227.151127 
L 300.451602 227.925526 
L 300.705492 226.978516 
L 300.959383 227.360685 
L 301.213273 227.987435 
L 301.467163 226.234323 
L 301.721053 228.568915 
L 301.974944 227.75911 
L 302.228834 229.753904 
L 302.482724 227.274024 
L 302.990505 228.872162 
L 303.244395 228.322873 
L 303.498285 229.726875 
L 303.752175 226.535531 
L 304.006066 228.64947 
L 304.259956 226.996564 
L 304.767736 227.755169 
L 305.021627 228.562951 
L 305.275517 228.037302 
L 305.529407 227.920287 
L 306.037188 229.218097 
L 306.291078 229.342771 
L 306.544968 228.387373 
L 306.798859 228.387931 
L 307.052749 227.910485 
L 307.306639 228.693232 
L 307.560529 228.056636 
L 307.81442 227.0124 
L 308.06831 227.21122 
L 308.3222 229.891302 
L 308.57609 225.677349 
L 308.829981 228.906383 
L 309.083871 229.204521 
L 309.591651 226.073627 
L 309.845542 228.184433 
L 310.099432 227.190406 
L 310.099432 227.190406 
" clip-path="url(#pa14d7637eb)" style="fill: none; stroke: #0000ff; stroke-width: 0.6; stroke-linecap: square"/>
   </g>
   <g id="line2d_28">
    <path d="M 56.463068 47.424544 
L 57.478629 47.267367 
L 57.732519 47.421572 
L 59.001971 47.318325 
L 59.255861 47.412128 
L 59.509751 47.358107 
L 60.017532 47.426623 
L 60.271422 47.196043 
L 60.779202 47.407917 
L 61.540873 47.290321 
L 62.048654 47.401481 
L 62.302544 47.26022 
L 63.064215 47.41273 
L 64.079776 47.443305 
L 65.603117 47.567738 
L 65.857008 47.444563 
L 66.364788 47.702763 
L 66.618678 47.616891 
L 66.872569 47.954893 
L 67.126459 47.964155 
L 67.380349 48.37337 
L 67.634239 49.306225 
L 67.88813 50.917672 
L 68.14202 54.177414 
L 68.903691 72.541251 
L 69.157581 71.845739 
L 69.411471 47.397834 
L 69.919252 47.61133 
L 70.173142 47.488429 
L 70.427032 46.973541 
L 70.680922 47.762382 
L 70.934813 48.188426 
L 71.188703 50.424171 
L 71.442593 90.373755 
L 71.696483 89.512789 
L 71.950374 96.48559 
L 72.204264 90.754766 
L 72.458154 55.365479 
L 72.712044 60.214315 
L 72.965935 106.517327 
L 73.473715 107.189337 
L 73.727605 94.344578 
L 73.981496 115.624622 
L 74.235386 120.087178 
L 74.489276 114.820165 
L 74.743166 127.843242 
L 74.997057 130.723896 
L 75.250947 119.660724 
L 75.504837 77.44719 
L 75.758727 85.916486 
L 76.012618 78.853856 
L 76.266508 135.686891 
L 76.520398 139.070874 
L 77.028179 105.620607 
L 77.282069 132.852446 
L 77.535959 144.018199 
L 77.78985 134.623359 
L 78.04374 143.142036 
L 78.29763 143.57922 
L 78.55152 131.903173 
L 78.805411 144.189178 
L 79.059301 136.258927 
L 79.313191 147.60019 
L 79.567081 145.961969 
L 79.820972 95.026179 
L 80.074862 139.918887 
L 80.328752 133.483581 
L 80.582642 140.121954 
L 80.836533 133.938194 
L 81.090423 142.53845 
L 81.344313 142.916808 
L 81.598203 91.636079 
L 81.852094 141.563179 
L 82.105984 112.544684 
L 82.359874 103.952477 
L 82.613764 144.916249 
L 82.867655 150.388499 
L 83.121545 133.735546 
L 83.375435 151.666612 
L 83.629325 150.88541 
L 83.883216 144.985749 
L 84.390996 123.082821 
L 84.644886 140.975217 
L 84.898777 144.298697 
L 85.152667 145.751235 
L 85.406557 150.014544 
L 85.660447 151.069261 
L 85.914338 146.380829 
L 86.168228 147.886996 
L 86.676008 153.686518 
L 86.929899 150.716227 
L 87.183789 153.827588 
L 87.437679 150.64412 
L 87.691569 145.615462 
L 87.94546 152.492582 
L 88.19935 131.167807 
L 88.45324 136.231251 
L 88.70713 150.228514 
L 88.961021 141.96532 
L 89.214911 152.585273 
L 89.468801 153.525749 
L 89.722691 147.210172 
L 89.976582 146.437531 
L 90.230472 152.758003 
L 90.484362 125.432862 
L 90.738252 153.53956 
L 90.992143 151.098851 
L 91.246033 155.630908 
L 91.499923 140.961024 
L 91.753813 148.681954 
L 92.007704 148.585616 
L 92.261594 156.967208 
L 92.515484 156.793294 
L 92.769374 155.254938 
L 93.023265 133.3055 
L 93.277155 155.852891 
L 93.531045 146.937167 
L 93.784936 147.951583 
L 94.038826 141.857406 
L 94.292716 145.821246 
L 94.546606 145.390872 
L 94.800497 154.419551 
L 95.054387 157.331446 
L 95.562167 151.90267 
L 95.816058 153.473806 
L 96.069948 157.26757 
L 96.323838 154.463417 
L 96.577728 155.536275 
L 96.831619 150.11492 
L 97.085509 150.062585 
L 97.339399 126.419301 
L 97.593289 153.529423 
L 97.84718 148.505195 
L 98.35496 159.155076 
L 98.60885 160.208034 
L 99.370521 155.74359 
L 99.624411 156.846577 
L 99.878302 152.011223 
L 100.132192 153.305589 
L 100.386082 152.014705 
L 100.639972 149.803363 
L 100.893863 154.37203 
L 101.147753 150.838062 
L 101.655533 160.299649 
L 101.909424 147.001873 
L 102.417204 158.708157 
L 102.671094 157.090839 
L 102.924985 161.209085 
L 103.178875 160.524002 
L 103.432765 157.026243 
L 103.686655 157.306559 
L 103.940546 146.878652 
L 104.194436 157.008312 
L 104.448326 158.2971 
L 104.702216 147.529714 
L 104.956107 159.605423 
L 105.209997 159.013724 
L 105.463887 159.512185 
L 105.717777 151.427354 
L 105.971668 157.809696 
L 106.225558 161.041279 
L 106.479448 156.487152 
L 106.733338 162.809457 
L 106.987229 151.087101 
L 107.241119 154.625226 
L 107.495009 160.002186 
L 107.748899 155.321694 
L 108.00279 159.007461 
L 108.25668 136.50999 
L 108.76446 161.299187 
L 109.018351 159.93089 
L 109.272241 145.73726 
L 109.780021 160.382513 
L 110.033912 161.001825 
L 110.287802 163.448778 
L 110.541692 162.918748 
L 110.795583 152.982702 
L 111.049473 158.628128 
L 111.303363 135.884316 
L 111.557253 157.251025 
L 111.811144 144.506505 
L 112.065034 158.09612 
L 112.318924 135.381315 
L 112.572814 155.76515 
L 112.826705 162.300822 
L 113.080595 160.079955 
L 113.334485 156.049668 
L 113.588375 155.113112 
L 113.842266 161.883284 
L 114.096156 160.426835 
L 114.350046 164.102866 
L 114.603936 151.010882 
L 114.857827 153.865428 
L 115.111717 160.521614 
L 115.365607 158.624536 
L 115.619497 161.753527 
L 116.127278 156.225451 
L 116.381168 162.996452 
L 116.635058 127.240221 
L 116.888949 162.303439 
L 117.396729 150.942695 
L 117.650619 130.57031 
L 117.90451 158.403064 
L 118.1584 152.643688 
L 118.41229 159.553353 
L 118.66618 159.514054 
L 118.920071 158.735514 
L 119.173961 154.838485 
L 119.427851 156.745973 
L 119.681741 131.356425 
L 119.935632 154.122991 
L 120.189522 147.964327 
L 120.443412 157.229219 
L 120.697302 146.204435 
L 120.951193 159.424416 
L 121.205083 157.723058 
L 121.458973 157.720433 
L 121.712863 148.784563 
L 121.966754 152.945454 
L 122.220644 152.504251 
L 122.474534 161.299652 
L 122.728424 163.484631 
L 122.982315 154.77316 
L 123.236205 153.995513 
L 123.490095 157.827755 
L 123.743985 157.947904 
L 123.997876 160.217888 
L 124.251766 160.75583 
L 124.505656 144.442793 
L 124.759546 157.164541 
L 125.013437 155.143623 
L 125.267327 156.328188 
L 125.521217 158.605529 
L 125.775107 164.979056 
L 126.282888 143.507577 
L 126.536778 155.864094 
L 126.790669 137.569219 
L 127.044559 151.838366 
L 127.298449 153.680319 
L 127.552339 153.370194 
L 127.80623 155.08684 
L 128.06012 142.828958 
L 128.31401 162.596271 
L 128.5679 154.465368 
L 128.821791 161.187225 
L 129.075681 153.261104 
L 129.329571 154.305447 
L 129.583461 145.984722 
L 129.837352 157.477775 
L 130.091242 148.808438 
L 130.345132 159.868109 
L 130.599022 157.928705 
L 130.852913 147.248624 
L 131.106803 158.146203 
L 131.360693 156.876377 
L 131.614583 159.559743 
L 131.868474 158.661902 
L 132.122364 154.038303 
L 132.376254 159.22691 
L 132.630144 151.494621 
L 132.884035 152.949812 
L 133.137925 131.345887 
L 133.391815 153.010478 
L 133.645705 151.476973 
L 133.899596 150.919076 
L 134.153486 146.995245 
L 134.661266 155.617772 
L 134.915157 154.781081 
L 135.169047 153.133571 
L 135.422937 153.693419 
L 135.676827 148.451594 
L 135.930718 124.845502 
L 136.184608 140.652621 
L 136.438498 146.547332 
L 136.692388 140.443583 
L 136.946279 153.905912 
L 137.200169 153.323247 
L 137.454059 151.166146 
L 137.707949 133.348391 
L 137.96184 132.426776 
L 138.21573 84.847822 
L 138.46962 141.071527 
L 138.72351 143.670261 
L 138.977401 144.625897 
L 139.231291 149.04353 
L 139.485181 148.80924 
L 139.992962 151.35089 
L 140.246852 145.958168 
L 140.754632 149.603232 
L 141.008523 153.644375 
L 141.262413 141.929923 
L 141.516303 149.817311 
L 141.770193 147.985385 
L 142.024084 145.056763 
L 142.277974 151.80863 
L 142.531864 148.163456 
L 142.785755 152.529456 
L 143.039645 151.869606 
L 143.293535 148.797927 
L 143.547425 148.350288 
L 144.055206 154.32026 
L 144.309096 148.370243 
L 144.562986 156.608568 
L 144.816877 154.630394 
L 145.070767 153.926988 
L 145.324657 146.224454 
L 145.578547 148.784545 
L 145.832438 149.650817 
L 146.086328 144.06037 
L 146.340218 142.968669 
L 146.594108 138.129851 
L 146.847999 148.455167 
L 147.355779 136.243703 
L 147.609669 142.806596 
L 148.11745 146.163076 
L 148.37134 139.706166 
L 148.879121 148.025486 
L 149.133011 145.20095 
L 149.386901 144.562687 
L 149.640791 151.587586 
L 149.894682 143.182675 
L 150.148572 144.769783 
L 150.656352 136.68178 
L 150.910243 149.49931 
L 151.164133 141.254184 
L 151.418023 141.760904 
L 151.925804 147.405336 
L 152.179694 143.715203 
L 152.433584 147.411261 
L 152.687474 147.434644 
L 152.941365 147.120727 
L 153.195255 147.071828 
L 153.449145 143.54736 
L 153.703035 146.246888 
L 153.956926 145.537256 
L 154.210816 138.141747 
L 154.464706 142.773697 
L 154.972487 145.492141 
L 155.226377 144.587509 
L 155.480267 140.388067 
L 155.734157 144.872101 
L 155.988048 143.846445 
L 156.241938 147.714613 
L 156.749718 141.30527 
L 157.003609 143.177826 
L 157.257499 135.189114 
L 157.765279 146.719989 
L 158.01917 145.575926 
L 158.27306 145.810152 
L 158.52695 133.122306 
L 158.78084 142.019825 
L 159.034731 142.652974 
L 159.288621 140.995218 
L 159.542511 145.847482 
L 159.796402 143.251993 
L 160.050292 143.195155 
L 160.304182 146.000128 
L 160.558072 140.663834 
L 160.811963 140.704318 
L 161.065853 129.364523 
L 161.319743 141.014771 
L 161.573633 146.487422 
L 161.827524 136.74077 
L 162.081414 134.320636 
L 162.335304 143.103129 
L 162.589194 138.777258 
L 162.843085 144.98162 
L 163.096975 140.22686 
L 163.350865 140.53848 
L 163.604755 139.89977 
L 163.858646 131.0098 
L 164.112536 139.025212 
L 164.366426 141.503825 
L 164.620316 138.022884 
L 164.874207 140.995464 
L 165.128097 141.217957 
L 165.381987 139.412103 
L 165.635877 142.660294 
L 166.143658 138.009867 
L 166.397548 137.519127 
L 166.651438 138.276199 
L 166.905329 134.920038 
L 167.159219 137.653907 
L 167.413109 138.31021 
L 167.666999 131.823855 
L 167.92089 139.408101 
L 168.17478 139.663959 
L 168.42867 142.068103 
L 168.68256 131.759688 
L 168.936451 141.315261 
L 169.190341 138.033514 
L 169.444231 139.81738 
L 169.698121 140.774639 
L 169.952012 140.862635 
L 170.205902 140.521716 
L 170.459792 138.120899 
L 170.713682 142.082287 
L 171.221463 139.409386 
L 171.475353 142.038002 
L 171.729243 136.093208 
L 171.983134 139.827034 
L 172.237024 140.201153 
L 172.490914 134.424731 
L 172.744804 137.706405 
L 172.998695 137.204353 
L 173.252585 133.303294 
L 173.506475 136.154121 
L 173.760365 137.090914 
L 174.014256 136.98948 
L 174.268146 139.539362 
L 174.522036 136.922478 
L 175.029817 138.899421 
L 175.283707 137.994096 
L 175.537597 135.02148 
L 175.791488 133.94555 
L 176.045378 137.381677 
L 176.299268 137.754565 
L 176.807049 134.204179 
L 177.060939 138.77156 
L 177.314829 137.685156 
L 177.82261 139.914484 
L 178.0765 138.76002 
L 178.33039 139.784043 
L 178.58428 139.64373 
L 179.092061 138.65875 
L 179.345951 139.621487 
L 179.599841 139.115023 
L 179.853732 141.387095 
L 180.361512 137.162538 
L 180.615402 139.4146 
L 181.123183 141.119222 
L 181.377073 138.018527 
L 181.630963 139.29881 
L 181.884854 136.684406 
L 182.138744 137.055225 
L 182.392634 137.769862 
L 182.646524 140.012033 
L 182.900415 138.637373 
L 183.154305 140.108854 
L 183.408195 135.476695 
L 183.662085 137.571808 
L 183.915976 138.278624 
L 184.169866 138.401051 
L 184.423756 138.368936 
L 184.677646 137.292814 
L 184.931537 133.9636 
L 185.185427 136.822339 
L 185.439317 135.370357 
L 185.693207 137.137752 
L 185.947098 134.058862 
L 186.200988 134.26419 
L 186.454878 137.875361 
L 186.708768 136.52649 
L 186.962659 135.815153 
L 187.216549 137.066848 
L 187.470439 135.279216 
L 187.724329 138.003267 
L 187.97822 139.182499 
L 188.23211 134.191043 
L 188.486 138.52697 
L 188.73989 134.945517 
L 188.993781 134.834986 
L 189.247671 136.085705 
L 189.501561 133.679793 
L 189.755451 133.616099 
L 190.009342 136.826441 
L 190.263232 135.984819 
L 190.517122 135.999067 
L 190.771012 135.331533 
L 191.024903 135.934754 
L 191.278793 136.957812 
L 191.532683 135.486486 
L 191.786574 135.319618 
L 192.040464 136.575789 
L 192.294354 136.522287 
L 192.548244 137.723471 
L 192.802135 137.523229 
L 193.056025 137.884978 
L 193.309915 137.937705 
L 193.563805 135.464316 
L 194.071586 137.171745 
L 194.325476 137.639585 
L 194.833257 137.853127 
L 195.087147 135.079075 
L 195.341037 137.263051 
L 195.594927 134.434248 
L 195.848818 136.822904 
L 196.102708 136.941138 
L 196.356598 136.827389 
L 196.610488 137.932791 
L 197.118269 136.287159 
L 197.372159 137.162246 
L 197.626049 135.815426 
L 197.87994 137.229595 
L 198.13383 137.57014 
L 198.38772 136.732839 
L 198.64161 134.943375 
L 198.895501 136.644478 
L 199.403281 137.568162 
L 199.657171 137.572455 
L 199.911062 136.932734 
L 200.164952 136.941184 
L 200.418842 136.469387 
L 200.672732 137.539501 
L 200.926623 137.157187 
L 201.180513 136.40398 
L 201.434403 137.370437 
L 201.688293 136.516034 
L 201.942184 136.92669 
L 202.196074 135.653372 
L 202.449964 136.157494 
L 202.703854 136.309147 
L 203.211635 135.666389 
L 203.465525 135.888983 
L 203.719415 134.756169 
L 203.973306 135.003941 
L 204.227196 135.796584 
L 204.481086 134.978836 
L 204.734976 136.053599 
L 204.988867 136.04183 
L 205.242757 135.831798 
L 205.496647 136.485997 
L 205.750537 136.252892 
L 206.004428 136.945469 
L 206.258318 136.794864 
L 206.512208 135.697365 
L 206.766098 135.967936 
L 207.273879 137.777018 
L 207.527769 136.679456 
L 207.78166 136.336431 
L 208.03555 136.964092 
L 208.28944 136.489935 
L 208.54333 135.409501 
L 208.797221 135.825007 
L 209.051111 135.542886 
L 209.305001 133.876734 
L 209.558891 136.494292 
L 209.812782 137.066273 
L 210.066672 136.658443 
L 210.320562 136.576026 
L 210.574452 135.933287 
L 210.828343 135.632833 
L 211.082233 136.222983 
L 211.336123 136.097565 
L 211.590013 135.675369 
L 211.843904 136.486534 
L 212.097794 136.263212 
L 212.351684 135.625878 
L 212.605574 136.507784 
L 212.859465 135.714476 
L 213.113355 133.230011 
L 213.367245 134.635611 
L 213.621135 134.598408 
L 213.875026 134.860556 
L 214.128916 134.7706 
L 214.382806 135.268432 
L 214.636696 134.741 
L 214.890587 135.096341 
L 215.144477 135.665314 
L 215.398367 135.120088 
L 215.906148 134.910092 
L 216.160038 134.463346 
L 216.413928 135.191703 
L 216.667818 134.940904 
L 216.921709 133.629928 
L 217.175599 134.429061 
L 217.429489 134.149803 
L 217.683379 134.334456 
L 217.93727 134.828605 
L 218.19116 133.965414 
L 218.44505 134.2149 
L 218.952831 133.695582 
L 219.206721 135.514618 
L 219.460611 133.646939 
L 219.968392 135.243536 
L 220.222282 135.53553 
L 220.476172 134.361822 
L 220.730062 134.770819 
L 220.983953 134.941707 
L 221.237843 134.678255 
L 221.745623 135.434962 
L 221.999514 134.840674 
L 222.253404 135.030988 
L 222.761184 134.266031 
L 223.015075 135.01076 
L 223.268965 134.66892 
L 223.522855 135.202733 
L 224.030636 135.02674 
L 224.284526 135.082056 
L 224.538416 134.113466 
L 224.792307 134.770363 
L 225.046197 134.795423 
L 225.553977 134.303015 
L 226.061758 136.053572 
L 226.315648 135.501965 
L 226.569538 135.64246 
L 226.823429 134.99952 
L 227.331209 135.446494 
L 227.585099 135.30403 
L 227.83899 134.927212 
L 228.09288 135.281677 
L 228.60066 135.389127 
L 228.854551 135.155275 
L 229.108441 135.463641 
L 229.362331 135.024097 
L 229.616221 135.062539 
L 229.870112 134.876363 
L 230.377892 135.326528 
L 230.631782 135.087161 
L 231.139563 135.605176 
L 231.393453 135.056413 
L 231.647343 135.55862 
L 231.901234 135.350986 
L 232.662904 135.425108 
L 232.916795 135.378717 
L 233.170685 135.100543 
L 233.424575 135.084098 
L 233.678465 134.875233 
L 234.186246 135.342262 
L 234.440136 135.101883 
L 234.694026 135.071554 
L 234.947917 134.919427 
L 235.201807 135.305342 
L 235.455697 134.846864 
L 235.709587 134.98632 
L 235.963478 134.917549 
L 236.217368 135.015072 
L 236.471258 134.915371 
L 236.725148 135.215058 
L 237.232929 134.943302 
L 237.486819 135.345936 
L 237.740709 134.797228 
L 239.517941 135.17472 
L 239.771831 135.037269 
L 240.025722 134.753991 
L 240.279612 134.961023 
L 240.533502 134.949847 
L 240.787393 135.058555 
L 241.295173 134.915826 
L 241.549063 135.049257 
L 241.802954 134.997998 
L 242.310734 134.659959 
L 242.564624 134.84381 
L 242.818515 134.79607 
L 243.072405 135.035218 
L 243.834076 134.715175 
L 244.087966 134.577651 
L 244.341856 134.691783 
L 244.595746 134.682558 
L 244.849637 135.028837 
L 245.103527 134.997742 
L 245.357417 134.754802 
L 245.611307 134.772131 
L 245.865198 134.66449 
L 246.119088 135.037324 
L 246.372978 135.073168 
L 246.626868 134.834503 
L 246.880759 135.161274 
L 247.134649 134.781202 
L 247.89632 134.937222 
L 248.15021 135.31578 
L 248.65799 135.382445 
L 248.911881 135.049047 
L 249.165771 134.952956 
L 249.419661 135.087744 
L 249.927442 134.964788 
L 250.181332 135.08325 
L 250.435222 134.907194 
L 250.689112 134.874941 
L 251.196893 135.121674 
L 251.450783 134.973995 
L 251.704673 134.966602 
L 251.958564 135.251704 
L 252.466344 134.863874 
L 252.720234 135.031873 
L 253.735795 134.886874 
L 253.989686 134.976931 
L 254.751356 134.785732 
L 255.005247 134.894787 
L 255.513027 134.705831 
L 255.766917 134.857812 
L 256.020808 134.767236 
L 256.274698 134.978982 
L 256.782479 135.061527 
L 257.290259 134.920886 
L 257.544149 134.853063 
L 257.79804 134.931351 
L 258.05193 134.88527 
L 258.55971 135.084745 
L 258.813601 134.806389 
L 259.829162 134.999948 
L 260.083052 135.002036 
L 260.336942 134.818386 
L 260.844723 134.891532 
L 261.098613 134.96931 
L 261.352503 134.914732 
L 262.368064 135.161064 
L 262.621954 134.936966 
L 263.383625 134.961078 
L 263.637515 134.847256 
L 263.891406 134.928388 
L 264.399186 134.716305 
L 265.922528 134.828833 
L 266.430308 134.721447 
L 268.20754 134.826153 
L 268.71532 134.838249 
L 269.476991 134.825205 
L 270.238662 134.866965 
L 270.746442 134.9095 
L 271.508113 134.88424 
L 272.269784 134.787583 
L 273.031455 134.994497 
L 273.285345 134.899728 
L 274.808687 135.058564 
L 275.824248 134.822661 
L 276.839809 134.82711 
L 277.093699 134.968425 
L 280.140382 134.852771 
L 288.01098 134.810136 
L 288.51876 134.781749 
L 289.026541 134.752012 
L 289.534321 134.815997 
L 290.803773 134.783061 
L 293.596565 134.773599 
L 294.866017 134.831978 
L 296.897139 134.842552 
L 298.928261 134.833828 
L 301.467163 134.847584 
L 303.498285 134.828286 
L 307.306639 134.88228 
L 308.829981 134.864877 
L 310.099432 134.879764 
L 310.099432 134.879764 
" clip-path="url(#pa14d7637eb)" style="fill: none; stroke: #ff0000; stroke-width: 0.6; stroke-linecap: square"/>
   </g>
   <g id="patch_3">
    <path d="M 43.78125 239.76 
L 43.78125 37.296 
" style="fill: none; stroke: #000000; stroke-width: 0.8; stroke-linejoin: miter; stroke-linecap: square"/>
   </g>
   <g id="patch_4">
    <path d="M 322.78125 239.76 
L 322.78125 37.296 
" style="fill: none; stroke: #000000; stroke-width: 0.8; stroke-linejoin: miter; stroke-linecap: square"/>
   </g>
   <g id="patch_5">
    <path d="M 43.78125 239.76 
L 322.78125 239.76 
" style="fill: none; stroke: #000000; stroke-width: 0.8; stroke-linejoin: miter; stroke-linecap: square"/>
   </g>
   <g id="patch_6">
    <path d="M 43.78125 37.296 
L 322.78125 37.296 
" style="fill: none; stroke: #000000; stroke-width: 0.8; stroke-linejoin: miter; stroke-linecap: square"/>
   </g>
   <g id="text_16">
    <!-- Constrained Model -->
    <g transform="translate(141.147891 31.296) scale(0.09 -0.09)">
     <defs>
      <path id="DejaVuSans-43" d="M 4122 4306 
L 4122 3641 
Q 3803 3938 3442 4084 
Q 3081 4231 2675 4231 
Q 1875 4231 1450 3742 
Q 1025 3253 1025 2328 
Q 1025 1406 1450 917 
Q 1875 428 2675 428 
Q 3081 428 3442 575 
Q 3803 722 4122 1019 
L 4122 359 
Q 3791 134 3420 21 
Q 3050 -91 2638 -91 
Q 1578 -91 968 557 
Q 359 1206 359 2328 
Q 359 3453 968 4101 
Q 1578 4750 2638 4750 
Q 3056 4750 3426 4639 
Q 3797 4528 4122 4306 
z
" transform="scale(0.015625)"/>
      <path id="DejaVuSans-6e" d="M 3513 2113 
L 3513 0 
L 2938 0 
L 2938 2094 
Q 2938 2591 2744 2837 
Q 2550 3084 2163 3084 
Q 1697 3084 1428 2787 
Q 1159 2491 1159 1978 
L 1159 0 
L 581 0 
L 581 3500 
L 1159 3500 
L 1159 2956 
Q 1366 3272 1645 3428 
Q 1925 3584 2291 3584 
Q 2894 3584 3203 3211 
Q 3513 2838 3513 2113 
z
" transform="scale(0.015625)"/>
      <path id="DejaVuSans-74" d="M 1172 4494 
L 1172 3500 
L 2356 3500 
L 2356 3053 
L 1172 3053 
L 1172 1153 
Q 1172 725 1289 603 
Q 1406 481 1766 481 
L 2356 481 
L 2356 0 
L 1766 0 
Q 1100 0 847 248 
Q 594 497 594 1153 
L 594 3053 
L 172 3053 
L 172 3500 
L 594 3500 
L 594 4494 
L 1172 4494 
z
" transform="scale(0.015625)"/>
      <path id="DejaVuSans-72" d="M 2631 2963 
Q 2534 3019 2420 3045 
Q 2306 3072 2169 3072 
Q 1681 3072 1420 2755 
Q 1159 2438 1159 1844 
L 1159 0 
L 581 0 
L 581 3500 
L 1159 3500 
L 1159 2956 
Q 1341 3275 1631 3429 
Q 1922 3584 2338 3584 
Q 2397 3584 2469 3576 
Q 2541 3569 2628 3553 
L 2631 2963 
z
" transform="scale(0.015625)"/>
      <path id="DejaVuSans-61" d="M 2194 1759 
Q 1497 1759 1228 1600 
Q 959 1441 959 1056 
Q 959 750 1161 570 
Q 1363 391 1709 391 
Q 2188 391 2477 730 
Q 2766 1069 2766 1631 
L 2766 1759 
L 2194 1759 
z
M 3341 1997 
L 3341 0 
L 2766 0 
L 2766 531 
Q 2569 213 2275 61 
Q 1981 -91 1556 -91 
Q 1019 -91 701 211 
Q 384 513 384 1019 
Q 384 1609 779 1909 
Q 1175 2209 1959 2209 
L 2766 2209 
L 2766 2266 
Q 2766 2663 2505 2880 
Q 2244 3097 1772 3097 
Q 1472 3097 1187 3025 
Q 903 2953 641 2809 
L 641 3341 
Q 956 3463 1253 3523 
Q 1550 3584 1831 3584 
Q 2591 3584 2966 3190 
Q 3341 2797 3341 1997 
z
" transform="scale(0.015625)"/>
      <path id="DejaVuSans-69" d="M 603 3500 
L 1178 3500 
L 1178 0 
L 603 0 
L 603 3500 
z
M 603 4863 
L 1178 4863 
L 1178 4134 
L 603 4134 
L 603 4863 
z
" transform="scale(0.015625)"/>
      <path id="DejaVuSans-65" d="M 3597 1894 
L 3597 1613 
L 953 1613 
Q 991 1019 1311 708 
Q 1631 397 2203 397 
Q 2534 397 2845 478 
Q 3156 559 3463 722 
L 3463 178 
Q 3153 47 2828 -22 
Q 2503 -91 2169 -91 
Q 1331 -91 842 396 
Q 353 884 353 1716 
Q 353 2575 817 3079 
Q 1281 3584 2069 3584 
Q 2775 3584 3186 3129 
Q 3597 2675 3597 1894 
z
M 3022 2063 
Q 3016 2534 2758 2815 
Q 2500 3097 2075 3097 
Q 1594 3097 1305 2825 
Q 1016 2553 972 2059 
L 3022 2063 
z
" transform="scale(0.015625)"/>
      <path id="DejaVuSans-64" d="M 2906 2969 
L 2906 4863 
L 3481 4863 
L 3481 0 
L 2906 0 
L 2906 525 
Q 2725 213 2448 61 
Q 2172 -91 1784 -91 
Q 1150 -91 751 415 
Q 353 922 353 1747 
Q 353 2572 751 3078 
Q 1150 3584 1784 3584 
Q 2172 3584 2448 3432 
Q 2725 3281 2906 2969 
z
M 947 1747 
Q 947 1113 1208 752 
Q 1469 391 1925 391 
Q 2381 391 2643 752 
Q 2906 1113 2906 1747 
Q 2906 2381 2643 2742 
Q 2381 3103 1925 3103 
Q 1469 3103 1208 2742 
Q 947 2381 947 1747 
z
" transform="scale(0.015625)"/>
      <path id="DejaVuSans-20" transform="scale(0.015625)"/>
      <path id="DejaVuSans-4d" d="M 628 4666 
L 1569 4666 
L 2759 1491 
L 3956 4666 
L 4897 4666 
L 4897 0 
L 4281 0 
L 4281 4097 
L 3078 897 
L 2444 897 
L 1241 4097 
L 1241 0 
L 628 0 
L 628 4666 
z
" transform="scale(0.015625)"/>
      <path id="DejaVuSans-6c" d="M 603 4863 
L 1178 4863 
L 1178 0 
L 603 0 
L 603 4863 
z
" transform="scale(0.015625)"/>
     </defs>
     <use xlink:href="#DejaVuSans-43"/>
     <use xlink:href="#DejaVuSans-6f" x="69.824219"/>
     <use xlink:href="#DejaVuSans-6e" x="131.005859"/>
     <use xlink:href="#DejaVuSans-73" x="194.384766"/>
     <use xlink:href="#DejaVuSans-74" x="246.484375"/>
     <use xlink:href="#DejaVuSans-72" x="285.693359"/>
     <use xlink:href="#DejaVuSans-61" x="326.806641"/>
     <use xlink:href="#DejaVuSans-69" x="388.085938"/>
     <use xlink:href="#DejaVuSans-6e" x="415.869141"/>
     <use xlink:href="#DejaVuSans-65" x="479.248047"/>
     <use xlink:href="#DejaVuSans-64" x="540.771484"/>
     <use xlink:href="#DejaVuSans-20" x="604.248047"/>
     <use xlink:href="#DejaVuSans-4d" x="636.035156"/>
     <use xlink:href="#DejaVuSans-6f" x="722.314453"/>
     <use xlink:href="#DejaVuSans-64" x="783.496094"/>
     <use xlink:href="#DejaVuSans-65" x="846.972656"/>
     <use xlink:href="#DejaVuSans-6c" x="908.496094"/>
    </g>
   </g>
   <g id="legend_1">
    <g id="patch_7">
     <path d="M 209.2875 74.65225 
L 315.78125 74.65225 
Q 317.78125 74.65225 317.78125 72.65225 
L 317.78125 44.296 
Q 317.78125 42.296 315.78125 42.296 
L 209.2875 42.296 
Q 207.2875 42.296 207.2875 44.296 
L 207.2875 72.65225 
Q 207.2875 74.65225 209.2875 74.65225 
z
" style="fill: #ffffff; opacity: 0.8; stroke: #cccccc; stroke-linejoin: miter"/>
    </g>
    <g id="line2d_29">
     <path d="M 211.2875 50.394438 
L 221.2875 50.394438 
L 231.2875 50.394438 
" style="fill: none; stroke: #0000ff; stroke-width: 0.6; stroke-linecap: square"/>
    </g>
    <g id="text_17">
     <!-- Training Loss -->
     <g transform="translate(239.2875 53.894438) scale(0.1 -0.1)">
      <defs>
       <path id="DejaVuSans-54" d="M -19 4666 
L 3928 4666 
L 3928 4134 
L 2272 4134 
L 2272 0 
L 1638 0 
L 1638 4134 
L -19 4134 
L -19 4666 
z
" transform="scale(0.015625)"/>
       <path id="DejaVuSans-67" d="M 2906 1791 
Q 2906 2416 2648 2759 
Q 2391 3103 1925 3103 
Q 1463 3103 1205 2759 
Q 947 2416 947 1791 
Q 947 1169 1205 825 
Q 1463 481 1925 481 
Q 2391 481 2648 825 
Q 2906 1169 2906 1791 
z
M 3481 434 
Q 3481 -459 3084 -895 
Q 2688 -1331 1869 -1331 
Q 1566 -1331 1297 -1286 
Q 1028 -1241 775 -1147 
L 775 -588 
Q 1028 -725 1275 -790 
Q 1522 -856 1778 -856 
Q 2344 -856 2625 -561 
Q 2906 -266 2906 331 
L 2906 616 
Q 2728 306 2450 153 
Q 2172 0 1784 0 
Q 1141 0 747 490 
Q 353 981 353 1791 
Q 353 2603 747 3093 
Q 1141 3584 1784 3584 
Q 2172 3584 2450 3431 
Q 2728 3278 2906 2969 
L 2906 3500 
L 3481 3500 
L 3481 434 
z
" transform="scale(0.015625)"/>
      </defs>
      <use xlink:href="#DejaVuSans-54"/>
      <use xlink:href="#DejaVuSans-72" x="46.333984"/>
      <use xlink:href="#DejaVuSans-61" x="87.447266"/>
      <use xlink:href="#DejaVuSans-69" x="148.726562"/>
      <use xlink:href="#DejaVuSans-6e" x="176.509766"/>
      <use xlink:href="#DejaVuSans-69" x="239.888672"/>
      <use xlink:href="#DejaVuSans-6e" x="267.671875"/>
      <use xlink:href="#DejaVuSans-67" x="331.050781"/>
      <use xlink:href="#DejaVuSans-20" x="394.527344"/>
      <use xlink:href="#DejaVuSans-4c" x="426.314453"/>
      <use xlink:href="#DejaVuSans-6f" x="480.277344"/>
      <use xlink:href="#DejaVuSans-73" x="541.458984"/>
      <use xlink:href="#DejaVuSans-73" x="593.558594"/>
     </g>
    </g>
    <g id="line2d_30">
     <path d="M 211.2875 65.072563 
L 221.2875 65.072563 
L 231.2875 65.072563 
" style="fill: none; stroke: #ff0000; stroke-width: 0.6; stroke-linecap: square"/>
    </g>
    <g id="text_18">
     <!-- Validation Loss -->
     <g transform="translate(239.2875 68.572563) scale(0.1 -0.1)">
      <defs>
       <path id="DejaVuSans-56" d="M 1831 0 
L 50 4666 
L 709 4666 
L 2188 738 
L 3669 4666 
L 4325 4666 
L 2547 0 
L 1831 0 
z
" transform="scale(0.015625)"/>
      </defs>
      <use xlink:href="#DejaVuSans-56"/>
      <use xlink:href="#DejaVuSans-61" x="60.658203"/>
      <use xlink:href="#DejaVuSans-6c" x="121.9375"/>
      <use xlink:href="#DejaVuSans-69" x="149.720703"/>
      <use xlink:href="#DejaVuSans-64" x="177.503906"/>
      <use xlink:href="#DejaVuSans-61" x="240.980469"/>
      <use xlink:href="#DejaVuSans-74" x="302.259766"/>
      <use xlink:href="#DejaVuSans-69" x="341.46875"/>
      <use xlink:href="#DejaVuSans-6f" x="369.251953"/>
      <use xlink:href="#DejaVuSans-6e" x="430.433594"/>
      <use xlink:href="#DejaVuSans-20" x="493.8125"/>
      <use xlink:href="#DejaVuSans-4c" x="525.599609"/>
      <use xlink:href="#DejaVuSans-6f" x="579.5625"/>
      <use xlink:href="#DejaVuSans-73" x="640.744141"/>
      <use xlink:href="#DejaVuSans-73" x="692.84375"/>
     </g>
    </g>
   </g>
  </g>
  <g id="text_19">
   <!-- Training VS. Validation Loss - Dataset Size = 100.0% -->
   <g transform="translate(34.481016 15.558281) scale(0.11 -0.11)">
    <defs>
     <path id="DejaVuSans-53" d="M 3425 4513 
L 3425 3897 
Q 3066 4069 2747 4153 
Q 2428 4238 2131 4238 
Q 1616 4238 1336 4038 
Q 1056 3838 1056 3469 
Q 1056 3159 1242 3001 
Q 1428 2844 1947 2747 
L 2328 2669 
Q 3034 2534 3370 2195 
Q 3706 1856 3706 1288 
Q 3706 609 3251 259 
Q 2797 -91 1919 -91 
Q 1588 -91 1214 -16 
Q 841 59 441 206 
L 441 856 
Q 825 641 1194 531 
Q 1563 422 1919 422 
Q 2459 422 2753 634 
Q 3047 847 3047 1241 
Q 3047 1584 2836 1778 
Q 2625 1972 2144 2069 
L 1759 2144 
Q 1053 2284 737 2584 
Q 422 2884 422 3419 
Q 422 4038 858 4394 
Q 1294 4750 2059 4750 
Q 2388 4750 2728 4690 
Q 3069 4631 3425 4513 
z
" transform="scale(0.015625)"/>
     <path id="DejaVuSans-2d" d="M 313 2009 
L 1997 2009 
L 1997 1497 
L 313 1497 
L 313 2009 
z
" transform="scale(0.015625)"/>
     <path id="DejaVuSans-44" d="M 1259 4147 
L 1259 519 
L 2022 519 
Q 2988 519 3436 956 
Q 3884 1394 3884 2338 
Q 3884 3275 3436 3711 
Q 2988 4147 2022 4147 
L 1259 4147 
z
M 628 4666 
L 1925 4666 
Q 3281 4666 3915 4102 
Q 4550 3538 4550 2338 
Q 4550 1131 3912 565 
Q 3275 0 1925 0 
L 628 0 
L 628 4666 
z
" transform="scale(0.015625)"/>
     <path id="DejaVuSans-7a" d="M 353 3500 
L 3084 3500 
L 3084 2975 
L 922 459 
L 3084 459 
L 3084 0 
L 275 0 
L 275 525 
L 2438 3041 
L 353 3041 
L 353 3500 
z
" transform="scale(0.015625)"/>
     <path id="DejaVuSans-3d" d="M 678 2906 
L 4684 2906 
L 4684 2381 
L 678 2381 
L 678 2906 
z
M 678 1631 
L 4684 1631 
L 4684 1100 
L 678 1100 
L 678 1631 
z
" transform="scale(0.015625)"/>
     <path id="DejaVuSans-25" d="M 4653 2053 
Q 4381 2053 4226 1822 
Q 4072 1591 4072 1178 
Q 4072 772 4226 539 
Q 4381 306 4653 306 
Q 4919 306 5073 539 
Q 5228 772 5228 1178 
Q 5228 1588 5073 1820 
Q 4919 2053 4653 2053 
z
M 4653 2450 
Q 5147 2450 5437 2106 
Q 5728 1763 5728 1178 
Q 5728 594 5436 251 
Q 5144 -91 4653 -91 
Q 4153 -91 3862 251 
Q 3572 594 3572 1178 
Q 3572 1766 3864 2108 
Q 4156 2450 4653 2450 
z
M 1428 4353 
Q 1159 4353 1004 4120 
Q 850 3888 850 3481 
Q 850 3069 1003 2837 
Q 1156 2606 1428 2606 
Q 1700 2606 1854 2837 
Q 2009 3069 2009 3481 
Q 2009 3884 1853 4118 
Q 1697 4353 1428 4353 
z
M 4250 4750 
L 4750 4750 
L 1831 -91 
L 1331 -91 
L 4250 4750 
z
M 1428 4750 
Q 1922 4750 2215 4408 
Q 2509 4066 2509 3481 
Q 2509 2891 2217 2550 
Q 1925 2209 1428 2209 
Q 931 2209 642 2551 
Q 353 2894 353 3481 
Q 353 4063 643 4406 
Q 934 4750 1428 4750 
z
" transform="scale(0.015625)"/>
    </defs>
    <use xlink:href="#DejaVuSans-54"/>
    <use xlink:href="#DejaVuSans-72" x="46.333984"/>
    <use xlink:href="#DejaVuSans-61" x="87.447266"/>
    <use xlink:href="#DejaVuSans-69" x="148.726562"/>
    <use xlink:href="#DejaVuSans-6e" x="176.509766"/>
    <use xlink:href="#DejaVuSans-69" x="239.888672"/>
    <use xlink:href="#DejaVuSans-6e" x="267.671875"/>
    <use xlink:href="#DejaVuSans-67" x="331.050781"/>
    <use xlink:href="#DejaVuSans-20" x="394.527344"/>
    <use xlink:href="#DejaVuSans-56" x="426.314453"/>
    <use xlink:href="#DejaVuSans-53" x="494.722656"/>
    <use xlink:href="#DejaVuSans-2e" x="558.199219"/>
    <use xlink:href="#DejaVuSans-20" x="589.986328"/>
    <use xlink:href="#DejaVuSans-56" x="621.773438"/>
    <use xlink:href="#DejaVuSans-61" x="682.431641"/>
    <use xlink:href="#DejaVuSans-6c" x="743.710938"/>
    <use xlink:href="#DejaVuSans-69" x="771.494141"/>
    <use xlink:href="#DejaVuSans-64" x="799.277344"/>
    <use xlink:href="#DejaVuSans-61" x="862.753906"/>
    <use xlink:href="#DejaVuSans-74" x="924.033203"/>
    <use xlink:href="#DejaVuSans-69" x="963.242188"/>
    <use xlink:href="#DejaVuSans-6f" x="991.025391"/>
    <use xlink:href="#DejaVuSans-6e" x="1052.207031"/>
    <use xlink:href="#DejaVuSans-20" x="1115.585938"/>
    <use xlink:href="#DejaVuSans-4c" x="1147.373047"/>
    <use xlink:href="#DejaVuSans-6f" x="1201.335938"/>
    <use xlink:href="#DejaVuSans-73" x="1262.517578"/>
    <use xlink:href="#DejaVuSans-73" x="1314.617188"/>
    <use xlink:href="#DejaVuSans-20" x="1366.716797"/>
    <use xlink:href="#DejaVuSans-2d" x="1398.503906"/>
    <use xlink:href="#DejaVuSans-20" x="1434.587891"/>
    <use xlink:href="#DejaVuSans-44" x="1466.375"/>
    <use xlink:href="#DejaVuSans-61" x="1543.376953"/>
    <use xlink:href="#DejaVuSans-74" x="1604.65625"/>
    <use xlink:href="#DejaVuSans-61" x="1643.865234"/>
    <use xlink:href="#DejaVuSans-73" x="1705.144531"/>
    <use xlink:href="#DejaVuSans-65" x="1757.244141"/>
    <use xlink:href="#DejaVuSans-74" x="1818.767578"/>
    <use xlink:href="#DejaVuSans-20" x="1857.976562"/>
    <use xlink:href="#DejaVuSans-53" x="1889.763672"/>
    <use xlink:href="#DejaVuSans-69" x="1953.240234"/>
    <use xlink:href="#DejaVuSans-7a" x="1981.023438"/>
    <use xlink:href="#DejaVuSans-65" x="2033.513672"/>
    <use xlink:href="#DejaVuSans-20" x="2095.037109"/>
    <use xlink:href="#DejaVuSans-3d" x="2126.824219"/>
    <use xlink:href="#DejaVuSans-20" x="2210.613281"/>
    <use xlink:href="#DejaVuSans-31" x="2242.400391"/>
    <use xlink:href="#DejaVuSans-30" x="2306.023438"/>
    <use xlink:href="#DejaVuSans-30" x="2369.646484"/>
    <use xlink:href="#DejaVuSans-2e" x="2433.269531"/>
    <use xlink:href="#DejaVuSans-30" x="2465.056641"/>
    <use xlink:href="#DejaVuSans-25" x="2528.679688"/>
   </g>
  </g>
 </g>
 <defs>
  <clipPath id="pa14d7637eb">
   <rect x="43.78125" y="37.296" width="279" height="202.464"/>
  </clipPath>
 </defs>
</svg>
