<?xml version="1.0" encoding="utf-8" standalone="no"?>
<!DOCTYPE svg PUBLIC "-//W3C//DTD SVG 1.1//EN"
  "http://www.w3.org/Graphics/SVG/1.1/DTD/svg11.dtd">
<svg xmlns:xlink="http://www.w3.org/1999/xlink" width="330.281484pt" height="277.31625pt" viewBox="0 0 330.281484 277.31625" xmlns="http://www.w3.org/2000/svg" version="1.1">
 <metadata>
  <rdf:RDF xmlns:dc="http://purl.org/dc/elements/1.1/" xmlns:cc="http://creativecommons.org/ns#" xmlns:rdf="http://www.w3.org/1999/02/22-rdf-syntax-ns#">
   <cc:Work>
    <dc:type rdf:resource="http://purl.org/dc/dcmitype/StillImage"/>
    <dc:date>2026-06-10T19:29:48.203742</dc:date>
    <dc:format>image/svg+xml</dc:format>
    <dc:creator>
     <cc:Agent>
      <dc:title>Matplotlib v3.8.4, https://matplotlib.org/</dc:title>
     </cc:Agent>
    </dc:creator>
   </cc:Work>
  </rdf:RDF>
 </metadata>
 <defs>
  <style type="text/css">*{stroke-linejoin: round; stroke-linecap: butt}</style>
 </defs>
 <g id="figure_1">
  <g id="patch_1">
   <path d="M 0 277.31625 
L 330.281484 277.31625 
L 330.281484 0 
L 0 0 
z
" style="fill: #ffffff"/>
  </g>
  <g id="axes_1">
   <g id="patch_2">
    <path d="M 43.78125 239.76 
L 322.78125 239.76 
L 322.78125 37.296 
L 43.78125 37.296 
z
" style="fill: #ffffff"/>
   </g>
   <g id="matplotlib.axis_1">
    <g id="xtick_1">
     <g id="line2d_1">
      <path d="M 56.209178 239.76 
L 56.209178 37.296 
" clip-path="url(#p193ad67151)" style="fill: none; stroke-dasharray: 2.96,1.28; stroke-dashoffset: 0; stroke: #b0b0b0; stroke-opacity: 0.4; stroke-width: 0.8"/>
     </g>
     <g id="line2d_2">
      <defs>
       <path id="m7481d552a0" d="M 0 0 
L 0 3.5 
" style="stroke: #000000; stroke-width: 0.8"/>
      </defs>
      <g>
       <use xlink:href="#m7481d552a0" x="56.209178" y="239.76" style="stroke: #000000; stroke-width: 0.8"/>
      </g>
     </g>
     <g id="text_1">
      <!-- 0 -->
      <g transform="translate(53.027928 254.358437) scale(0.1 -0.1)">
       <defs>
        <path id="DejaVuSans-30" d="M 2034 4250 
Q 1547 4250 1301 3770 
Q 1056 3291 1056 2328 
Q 1056 1369 1301 889 
Q 1547 409 2034 409 
Q 2525 409 2770 889 
Q 3016 1369 3016 2328 
Q 3016 3291 2770 3770 
Q 2525 4250 2034 4250 
z
M 2034 4750 
Q 2819 4750 3233 4129 
Q 3647 3509 3647 2328 
Q 3647 1150 3233 529 
Q 2819 -91 2034 -91 
Q 1250 -91 836 529 
Q 422 1150 422 2328 
Q 422 3509 836 4129 
Q 1250 4750 2034 4750 
z
" transform="scale(0.015625)"/>
       </defs>
       <use xlink:href="#DejaVuSans-30"/>
      </g>
     </g>
    </g>
    <g id="xtick_2">
     <g id="line2d_3">
      <path d="M 106.987229 239.76 
L 106.987229 37.296 
" clip-path="url(#p193ad67151)" style="fill: none; stroke-dasharray: 2.96,1.28; stroke-dashoffset: 0; stroke: #b0b0b0; stroke-opacity: 0.4; stroke-width: 0.8"/>
     </g>
     <g id="line2d_4">
      <g>
       <use xlink:href="#m7481d552a0" x="106.987229" y="239.76" style="stroke: #000000; stroke-width: 0.8"/>
      </g>
     </g>
     <g id="text_2">
      <!-- 200 -->
      <g transform="translate(97.443479 254.358437) scale(0.1 -0.1)">
       <defs>
        <path id="DejaVuSans-32" d="M 1228 531 
L 3431 531 
L 3431 0 
L 469 0 
L 469 531 
Q 828 903 1448 1529 
Q 2069 2156 2228 2338 
Q 2531 2678 2651 2914 
Q 2772 3150 2772 3378 
Q 2772 3750 2511 3984 
Q 2250 4219 1831 4219 
Q 1534 4219 1204 4116 
Q 875 4013 500 3803 
L 500 4441 
Q 881 4594 1212 4672 
Q 1544 4750 1819 4750 
Q 2544 4750 2975 4387 
Q 3406 4025 3406 3419 
Q 3406 3131 3298 2873 
Q 3191 2616 2906 2266 
Q 2828 2175 2409 1742 
Q 1991 1309 1228 531 
z
" transform="scale(0.015625)"/>
       </defs>
       <use xlink:href="#DejaVuSans-32"/>
       <use xlink:href="#DejaVuSans-30" x="63.623047"/>
       <use xlink:href="#DejaVuSans-30" x="127.246094"/>
      </g>
     </g>
    </g>
    <g id="xtick_3">
     <g id="line2d_5">
      <path d="M 157.765279 239.76 
L 157.765279 37.296 
" clip-path="url(#p193ad67151)" style="fill: none; stroke-dasharray: 2.96,1.28; stroke-dashoffset: 0; stroke: #b0b0b0; stroke-opacity: 0.4; stroke-width: 0.8"/>
     </g>
     <g id="line2d_6">
      <g>
       <use xlink:href="#m7481d552a0" x="157.765279" y="239.76" style="stroke: #000000; stroke-width: 0.8"/>
      </g>
     </g>
     <g id="text_3">
      <!-- 400 -->
      <g transform="translate(148.221529 254.358437) scale(0.1 -0.1)">
       <defs>
        <path id="DejaVuSans-34" d="M 2419 4116 
L 825 1625 
L 2419 1625 
L 2419 4116 
z
M 2253 4666 
L 3047 4666 
L 3047 1625 
L 3713 1625 
L 3713 1100 
L 3047 1100 
L 3047 0 
L 2419 0 
L 2419 1100 
L 313 1100 
L 313 1709 
L 2253 4666 
z
" transform="scale(0.015625)"/>
       </defs>
       <use xlink:href="#DejaVuSans-34"/>
       <use xlink:href="#DejaVuSans-30" x="63.623047"/>
       <use xlink:href="#DejaVuSans-30" x="127.246094"/>
      </g>
     </g>
    </g>
    <g id="xtick_4">
     <g id="line2d_7">
      <path d="M 208.54333 239.76 
L 208.54333 37.296 
" clip-path="url(#p193ad67151)" style="fill: none; stroke-dasharray: 2.96,1.28; stroke-dashoffset: 0; stroke: #b0b0b0; stroke-opacity: 0.4; stroke-width: 0.8"/>
     </g>
     <g id="line2d_8">
      <g>
       <use xlink:href="#m7481d552a0" x="208.54333" y="239.76" style="stroke: #000000; stroke-width: 0.8"/>
      </g>
     </g>
     <g id="text_4">
      <!-- 600 -->
      <g transform="translate(198.99958 254.358437) scale(0.1 -0.1)">
       <defs>
        <path id="DejaVuSans-36" d="M 2113 2584 
Q 1688 2584 1439 2293 
Q 1191 2003 1191 1497 
Q 1191 994 1439 701 
Q 1688 409 2113 409 
Q 2538 409 2786 701 
Q 3034 994 3034 1497 
Q 3034 2003 2786 2293 
Q 2538 2584 2113 2584 
z
M 3366 4563 
L 3366 3988 
Q 3128 4100 2886 4159 
Q 2644 4219 2406 4219 
Q 1781 4219 1451 3797 
Q 1122 3375 1075 2522 
Q 1259 2794 1537 2939 
Q 1816 3084 2150 3084 
Q 2853 3084 3261 2657 
Q 3669 2231 3669 1497 
Q 3669 778 3244 343 
Q 2819 -91 2113 -91 
Q 1303 -91 875 529 
Q 447 1150 447 2328 
Q 447 3434 972 4092 
Q 1497 4750 2381 4750 
Q 2619 4750 2861 4703 
Q 3103 4656 3366 4563 
z
" transform="scale(0.015625)"/>
       </defs>
       <use xlink:href="#DejaVuSans-36"/>
       <use xlink:href="#DejaVuSans-30" x="63.623047"/>
       <use xlink:href="#DejaVuSans-30" x="127.246094"/>
      </g>
     </g>
    </g>
    <g id="xtick_5">
     <g id="line2d_9">
      <path d="M 259.321381 239.76 
L 259.321381 37.296 
" clip-path="url(#p193ad67151)" style="fill: none; stroke-dasharray: 2.96,1.28; stroke-dashoffset: 0; stroke: #b0b0b0; stroke-opacity: 0.4; stroke-width: 0.8"/>
     </g>
     <g id="line2d_10">
      <g>
       <use xlink:href="#m7481d552a0" x="259.321381" y="239.76" style="stroke: #000000; stroke-width: 0.8"/>
      </g>
     </g>
     <g id="text_5">
      <!-- 800 -->
      <g transform="translate(249.777631 254.358437) scale(0.1 -0.1)">
       <defs>
        <path id="DejaVuSans-38" d="M 2034 2216 
Q 1584 2216 1326 1975 
Q 1069 1734 1069 1313 
Q 1069 891 1326 650 
Q 1584 409 2034 409 
Q 2484 409 2743 651 
Q 3003 894 3003 1313 
Q 3003 1734 2745 1975 
Q 2488 2216 2034 2216 
z
M 1403 2484 
Q 997 2584 770 2862 
Q 544 3141 544 3541 
Q 544 4100 942 4425 
Q 1341 4750 2034 4750 
Q 2731 4750 3128 4425 
Q 3525 4100 3525 3541 
Q 3525 3141 3298 2862 
Q 3072 2584 2669 2484 
Q 3125 2378 3379 2068 
Q 3634 1759 3634 1313 
Q 3634 634 3220 271 
Q 2806 -91 2034 -91 
Q 1263 -91 848 271 
Q 434 634 434 1313 
Q 434 1759 690 2068 
Q 947 2378 1403 2484 
z
M 1172 3481 
Q 1172 3119 1398 2916 
Q 1625 2713 2034 2713 
Q 2441 2713 2670 2916 
Q 2900 3119 2900 3481 
Q 2900 3844 2670 4047 
Q 2441 4250 2034 4250 
Q 1625 4250 1398 4047 
Q 1172 3844 1172 3481 
z
" transform="scale(0.015625)"/>
       </defs>
       <use xlink:href="#DejaVuSans-38"/>
       <use xlink:href="#DejaVuSans-30" x="63.623047"/>
       <use xlink:href="#DejaVuSans-30" x="127.246094"/>
      </g>
     </g>
    </g>
    <g id="xtick_6">
     <g id="line2d_11">
      <path d="M 310.099432 239.76 
L 310.099432 37.296 
" clip-path="url(#p193ad67151)" style="fill: none; stroke-dasharray: 2.96,1.28; stroke-dashoffset: 0; stroke: #b0b0b0; stroke-opacity: 0.4; stroke-width: 0.8"/>
     </g>
     <g id="line2d_12">
      <g>
       <use xlink:href="#m7481d552a0" x="310.099432" y="239.76" style="stroke: #000000; stroke-width: 0.8"/>
      </g>
     </g>
     <g id="text_6">
      <!-- 1000 -->
      <g transform="translate(297.374432 254.358437) scale(0.1 -0.1)">
       <defs>
        <path id="DejaVuSans-31" d="M 794 531 
L 1825 531 
L 1825 4091 
L 703 3866 
L 703 4441 
L 1819 4666 
L 2450 4666 
L 2450 531 
L 3481 531 
L 3481 0 
L 794 0 
L 794 531 
z
" transform="scale(0.015625)"/>
       </defs>
       <use xlink:href="#DejaVuSans-31"/>
       <use xlink:href="#DejaVuSans-30" x="63.623047"/>
       <use xlink:href="#DejaVuSans-30" x="127.246094"/>
       <use xlink:href="#DejaVuSans-30" x="190.869141"/>
      </g>
     </g>
    </g>
    <g id="text_7">
     <!-- Epochs -->
     <g transform="translate(165.365625 268.036562) scale(0.1 -0.1)">
      <defs>
       <path id="DejaVuSans-45" d="M 628 4666 
L 3578 4666 
L 3578 4134 
L 1259 4134 
L 1259 2753 
L 3481 2753 
L 3481 2222 
L 1259 2222 
L 1259 531 
L 3634 531 
L 3634 0 
L 628 0 
L 628 4666 
z
" transform="scale(0.015625)"/>
       <path id="DejaVuSans-70" d="M 1159 525 
L 1159 -1331 
L 581 -1331 
L 581 3500 
L 1159 3500 
L 1159 2969 
Q 1341 3281 1617 3432 
Q 1894 3584 2278 3584 
Q 2916 3584 3314 3078 
Q 3713 2572 3713 1747 
Q 3713 922 3314 415 
Q 2916 -91 2278 -91 
Q 1894 -91 1617 61 
Q 1341 213 1159 525 
z
M 3116 1747 
Q 3116 2381 2855 2742 
Q 2594 3103 2138 3103 
Q 1681 3103 1420 2742 
Q 1159 2381 1159 1747 
Q 1159 1113 1420 752 
Q 1681 391 2138 391 
Q 2594 391 2855 752 
Q 3116 1113 3116 1747 
z
" transform="scale(0.015625)"/>
       <path id="DejaVuSans-6f" d="M 1959 3097 
Q 1497 3097 1228 2736 
Q 959 2375 959 1747 
Q 959 1119 1226 758 
Q 1494 397 1959 397 
Q 2419 397 2687 759 
Q 2956 1122 2956 1747 
Q 2956 2369 2687 2733 
Q 2419 3097 1959 3097 
z
M 1959 3584 
Q 2709 3584 3137 3096 
Q 3566 2609 3566 1747 
Q 3566 888 3137 398 
Q 2709 -91 1959 -91 
Q 1206 -91 779 398 
Q 353 888 353 1747 
Q 353 2609 779 3096 
Q 1206 3584 1959 3584 
z
" transform="scale(0.015625)"/>
       <path id="DejaVuSans-63" d="M 3122 3366 
L 3122 2828 
Q 2878 2963 2633 3030 
Q 2388 3097 2138 3097 
Q 1578 3097 1268 2742 
Q 959 2388 959 1747 
Q 959 1106 1268 751 
Q 1578 397 2138 397 
Q 2388 397 2633 464 
Q 2878 531 3122 666 
L 3122 134 
Q 2881 22 2623 -34 
Q 2366 -91 2075 -91 
Q 1284 -91 818 406 
Q 353 903 353 1747 
Q 353 2603 823 3093 
Q 1294 3584 2113 3584 
Q 2378 3584 2631 3529 
Q 2884 3475 3122 3366 
z
" transform="scale(0.015625)"/>
       <path id="DejaVuSans-68" d="M 3513 2113 
L 3513 0 
L 2938 0 
L 2938 2094 
Q 2938 2591 2744 2837 
Q 2550 3084 2163 3084 
Q 1697 3084 1428 2787 
Q 1159 2491 1159 1978 
L 1159 0 
L 581 0 
L 581 4863 
L 1159 4863 
L 1159 2956 
Q 1366 3272 1645 3428 
Q 1925 3584 2291 3584 
Q 2894 3584 3203 3211 
Q 3513 2838 3513 2113 
z
" transform="scale(0.015625)"/>
       <path id="DejaVuSans-73" d="M 2834 3397 
L 2834 2853 
Q 2591 2978 2328 3040 
Q 2066 3103 1784 3103 
Q 1356 3103 1142 2972 
Q 928 2841 928 2578 
Q 928 2378 1081 2264 
Q 1234 2150 1697 2047 
L 1894 2003 
Q 2506 1872 2764 1633 
Q 3022 1394 3022 966 
Q 3022 478 2636 193 
Q 2250 -91 1575 -91 
Q 1294 -91 989 -36 
Q 684 19 347 128 
L 347 722 
Q 666 556 975 473 
Q 1284 391 1588 391 
Q 1994 391 2212 530 
Q 2431 669 2431 922 
Q 2431 1156 2273 1281 
Q 2116 1406 1581 1522 
L 1381 1569 
Q 847 1681 609 1914 
Q 372 2147 372 2553 
Q 372 3047 722 3315 
Q 1072 3584 1716 3584 
Q 2034 3584 2315 3537 
Q 2597 3491 2834 3397 
z
" transform="scale(0.015625)"/>
      </defs>
      <use xlink:href="#DejaVuSans-45"/>
      <use xlink:href="#DejaVuSans-70" x="63.183594"/>
      <use xlink:href="#DejaVuSans-6f" x="126.660156"/>
      <use xlink:href="#DejaVuSans-63" x="187.841797"/>
      <use xlink:href="#DejaVuSans-68" x="242.822266"/>
      <use xlink:href="#DejaVuSans-73" x="306.201172"/>
     </g>
    </g>
   </g>
   <g id="matplotlib.axis_2">
    <g id="ytick_1">
     <g id="line2d_13">
      <path d="M 43.78125 236.807495 
L 322.78125 236.807495 
" clip-path="url(#p193ad67151)" style="fill: none; stroke-dasharray: 2.96,1.28; stroke-dashoffset: 0; stroke: #b0b0b0; stroke-opacity: 0.4; stroke-width: 0.8"/>
     </g>
     <g id="line2d_14">
      <defs>
       <path id="m35df74db75" d="M 0 0 
L -3.5 0 
" style="stroke: #000000; stroke-width: 0.8"/>
      </defs>
      <g>
       <use xlink:href="#m35df74db75" x="43.78125" y="236.807495" style="stroke: #000000; stroke-width: 0.8"/>
      </g>
     </g>
     <g id="text_8">
      <!-- 0.3 -->
      <g transform="translate(20.878125 240.606713) scale(0.1 -0.1)">
       <defs>
        <path id="DejaVuSans-2e" d="M 684 794 
L 1344 794 
L 1344 0 
L 684 0 
L 684 794 
z
" transform="scale(0.015625)"/>
        <path id="DejaVuSans-33" d="M 2597 2516 
Q 3050 2419 3304 2112 
Q 3559 1806 3559 1356 
Q 3559 666 3084 287 
Q 2609 -91 1734 -91 
Q 1441 -91 1130 -33 
Q 819 25 488 141 
L 488 750 
Q 750 597 1062 519 
Q 1375 441 1716 441 
Q 2309 441 2620 675 
Q 2931 909 2931 1356 
Q 2931 1769 2642 2001 
Q 2353 2234 1838 2234 
L 1294 2234 
L 1294 2753 
L 1863 2753 
Q 2328 2753 2575 2939 
Q 2822 3125 2822 3475 
Q 2822 3834 2567 4026 
Q 2313 4219 1838 4219 
Q 1578 4219 1281 4162 
Q 984 4106 628 3988 
L 628 4550 
Q 988 4650 1302 4700 
Q 1616 4750 1894 4750 
Q 2613 4750 3031 4423 
Q 3450 4097 3450 3541 
Q 3450 3153 3228 2886 
Q 3006 2619 2597 2516 
z
" transform="scale(0.015625)"/>
       </defs>
       <use xlink:href="#DejaVuSans-30"/>
       <use xlink:href="#DejaVuSans-2e" x="63.623047"/>
       <use xlink:href="#DejaVuSans-33" x="95.410156"/>
      </g>
     </g>
    </g>
    <g id="ytick_2">
     <g id="line2d_15">
      <path d="M 43.78125 194.794306 
L 322.78125 194.794306 
" clip-path="url(#p193ad67151)" style="fill: none; stroke-dasharray: 2.96,1.28; stroke-dashoffset: 0; stroke: #b0b0b0; stroke-opacity: 0.4; stroke-width: 0.8"/>
     </g>
     <g id="line2d_16">
      <g>
       <use xlink:href="#m35df74db75" x="43.78125" y="194.794306" style="stroke: #000000; stroke-width: 0.8"/>
      </g>
     </g>
     <g id="text_9">
      <!-- 0.4 -->
      <g transform="translate(20.878125 198.593525) scale(0.1 -0.1)">
       <use xlink:href="#DejaVuSans-30"/>
       <use xlink:href="#DejaVuSans-2e" x="63.623047"/>
       <use xlink:href="#DejaVuSans-34" x="95.410156"/>
      </g>
     </g>
    </g>
    <g id="ytick_3">
     <g id="line2d_17">
      <path d="M 43.78125 152.781117 
L 322.78125 152.781117 
" clip-path="url(#p193ad67151)" style="fill: none; stroke-dasharray: 2.96,1.28; stroke-dashoffset: 0; stroke: #b0b0b0; stroke-opacity: 0.4; stroke-width: 0.8"/>
     </g>
     <g id="line2d_18">
      <g>
       <use xlink:href="#m35df74db75" x="43.78125" y="152.781117" style="stroke: #000000; stroke-width: 0.8"/>
      </g>
     </g>
     <g id="text_10">
      <!-- 0.5 -->
      <g transform="translate(20.878125 156.580336) scale(0.1 -0.1)">
       <defs>
        <path id="DejaVuSans-35" d="M 691 4666 
L 3169 4666 
L 3169 4134 
L 1269 4134 
L 1269 2991 
Q 1406 3038 1543 3061 
Q 1681 3084 1819 3084 
Q 2600 3084 3056 2656 
Q 3513 2228 3513 1497 
Q 3513 744 3044 326 
Q 2575 -91 1722 -91 
Q 1428 -91 1123 -41 
Q 819 9 494 109 
L 494 744 
Q 775 591 1075 516 
Q 1375 441 1709 441 
Q 2250 441 2565 725 
Q 2881 1009 2881 1497 
Q 2881 1984 2565 2268 
Q 2250 2553 1709 2553 
Q 1456 2553 1204 2497 
Q 953 2441 691 2322 
L 691 4666 
z
" transform="scale(0.015625)"/>
       </defs>
       <use xlink:href="#DejaVuSans-30"/>
       <use xlink:href="#DejaVuSans-2e" x="63.623047"/>
       <use xlink:href="#DejaVuSans-35" x="95.410156"/>
      </g>
     </g>
    </g>
    <g id="ytick_4">
     <g id="line2d_19">
      <path d="M 43.78125 110.767928 
L 322.78125 110.767928 
" clip-path="url(#p193ad67151)" style="fill: none; stroke-dasharray: 2.96,1.28; stroke-dashoffset: 0; stroke: #b0b0b0; stroke-opacity: 0.4; stroke-width: 0.8"/>
     </g>
     <g id="line2d_20">
      <g>
       <use xlink:href="#m35df74db75" x="43.78125" y="110.767928" style="stroke: #000000; stroke-width: 0.8"/>
      </g>
     </g>
     <g id="text_11">
      <!-- 0.6 -->
      <g transform="translate(20.878125 114.567147) scale(0.1 -0.1)">
       <use xlink:href="#DejaVuSans-30"/>
       <use xlink:href="#DejaVuSans-2e" x="63.623047"/>
       <use xlink:href="#DejaVuSans-36" x="95.410156"/>
      </g>
     </g>
    </g>
    <g id="ytick_5">
     <g id="line2d_21">
      <path d="M 43.78125 68.754739 
L 322.78125 68.754739 
" clip-path="url(#p193ad67151)" style="fill: none; stroke-dasharray: 2.96,1.28; stroke-dashoffset: 0; stroke: #b0b0b0; stroke-opacity: 0.4; stroke-width: 0.8"/>
     </g>
     <g id="line2d_22">
      <g>
       <use xlink:href="#m35df74db75" x="43.78125" y="68.754739" style="stroke: #000000; stroke-width: 0.8"/>
      </g>
     </g>
     <g id="text_12">
      <!-- 0.7 -->
      <g transform="translate(20.878125 72.553958) scale(0.1 -0.1)">
       <defs>
        <path id="DejaVuSans-37" d="M 525 4666 
L 3525 4666 
L 3525 4397 
L 1831 0 
L 1172 0 
L 2766 4134 
L 525 4134 
L 525 4666 
z
" transform="scale(0.015625)"/>
       </defs>
       <use xlink:href="#DejaVuSans-30"/>
       <use xlink:href="#DejaVuSans-2e" x="63.623047"/>
       <use xlink:href="#DejaVuSans-37" x="95.410156"/>
      </g>
     </g>
    </g>
    <g id="text_13">
     <!-- Loss -->
     <g transform="translate(14.798438 149.495187) rotate(-90) scale(0.1 -0.1)">
      <defs>
       <path id="DejaVuSans-4c" d="M 628 4666 
L 1259 4666 
L 1259 531 
L 3531 531 
L 3531 0 
L 628 0 
L 628 4666 
z
" transform="scale(0.015625)"/>
      </defs>
      <use xlink:href="#DejaVuSans-4c"/>
      <use xlink:href="#DejaVuSans-6f" x="53.962891"/>
      <use xlink:href="#DejaVuSans-73" x="115.144531"/>
      <use xlink:href="#DejaVuSans-73" x="167.244141"/>
     </g>
    </g>
   </g>
   <g id="line2d_23">
    <path d="M 56.463068 71.119969 
L 56.716958 71.490112 
L 56.970849 71.649177 
L 57.478629 71.576205 
L 57.98641 71.810296 
L 58.2403 71.411555 
L 58.49419 71.575304 
L 58.74808 71.539143 
L 59.001971 71.669736 
L 59.255861 71.945322 
L 59.763641 71.991649 
L 60.017532 72.322476 
L 60.271422 72.274071 
L 60.779202 73.200067 
L 61.033093 74.906065 
L 61.286983 74.70821 
L 61.794764 80.878863 
L 62.048654 88.928278 
L 62.302544 86.410925 
L 62.556434 100.821711 
L 62.810325 97.393938 
L 63.064215 104.839144 
L 63.318105 103.970018 
L 63.571995 80.420297 
L 63.825886 114.339607 
L 64.079776 116.007216 
L 64.333666 109.180468 
L 64.841447 73.672781 
L 65.349227 102.515915 
L 65.603117 101.940229 
L 65.857008 75.985943 
L 66.110898 115.722616 
L 66.364788 120.796563 
L 66.872569 71.864161 
L 67.88813 73.464809 
L 68.14202 74.527608 
L 68.39591 74.355746 
L 68.6498 76.095501 
L 68.903691 91.180012 
L 69.157581 136.850969 
L 69.411471 132.244202 
L 69.665361 130.288587 
L 70.173142 156.223615 
L 70.427032 143.421289 
L 70.680922 156.781972 
L 70.934813 161.018859 
L 71.188703 154.478388 
L 71.442593 154.535296 
L 71.696483 160.203723 
L 71.950374 150.705627 
L 72.204264 166.933697 
L 72.458154 165.106471 
L 72.712044 167.783353 
L 72.965935 162.990977 
L 73.727605 174.27672 
L 73.981496 167.006068 
L 74.235386 170.923885 
L 74.489276 169.638889 
L 74.743166 161.526569 
L 74.997057 169.519477 
L 75.250947 169.095144 
L 75.504837 176.387933 
L 75.758727 172.450058 
L 76.012618 173.569778 
L 76.266508 156.683032 
L 76.774288 174.174224 
L 77.028179 180.313838 
L 77.282069 163.203356 
L 77.535959 159.238449 
L 77.78985 153.118004 
L 78.04374 178.360176 
L 78.55152 170.976047 
L 78.805411 184.152685 
L 79.059301 175.241869 
L 79.313191 178.117358 
L 79.567081 184.582603 
L 79.820972 177.830955 
L 80.074862 178.799196 
L 80.328752 178.987799 
L 80.582642 180.746523 
L 80.836533 170.046119 
L 81.090423 172.759537 
L 81.344313 180.669795 
L 81.598203 181.239158 
L 81.852094 184.155628 
L 82.105984 182.72241 
L 82.359874 182.806763 
L 82.613764 189.541545 
L 82.867655 188.862775 
L 83.121545 189.494542 
L 83.375435 182.892694 
L 83.629325 194.672124 
L 83.883216 197.068526 
L 84.137106 197.038037 
L 84.390996 200.876408 
L 84.644886 186.22626 
L 84.898777 199.731797 
L 85.152667 207.324612 
L 85.406557 210.295335 
L 85.660447 211.143864 
L 85.914338 190.081409 
L 86.168228 68.890571 
L 86.422118 74.278843 
L 86.676008 75.348529 
L 87.437679 86.18943 
L 87.691569 93.233116 
L 87.94546 122.873956 
L 88.19935 172.321769 
L 88.961021 184.658505 
L 89.214911 181.896455 
L 89.722691 187.73121 
L 89.976582 181.436663 
L 90.230472 183.483605 
L 90.484362 189.36932 
L 90.738252 189.060843 
L 90.992143 189.310297 
L 91.246033 189.257696 
L 91.499923 190.83672 
L 91.753813 189.367292 
L 92.007704 189.866325 
L 92.261594 191.303988 
L 92.515484 194.452257 
L 92.769374 190.256552 
L 93.023265 192.168444 
L 93.277155 190.620134 
L 93.784936 192.24223 
L 94.038826 191.454715 
L 94.292716 192.632193 
L 94.546606 192.429355 
L 94.800497 194.724825 
L 95.054387 193.202333 
L 95.308277 195.190227 
L 95.562167 191.368997 
L 95.816058 194.597838 
L 96.069948 191.553367 
L 96.323838 195.17708 
L 96.577728 193.176352 
L 96.831619 189.46061 
L 97.085509 195.049204 
L 97.339399 195.795099 
L 97.593289 197.248376 
L 97.84718 191.16602 
L 98.10107 196.794756 
L 98.35496 197.931617 
L 98.60885 202.528567 
L 98.862741 201.850986 
L 99.116631 202.065243 
L 99.370521 202.017013 
L 99.624411 202.913673 
L 100.132192 202.047464 
L 100.386082 203.878934 
L 100.639972 204.886517 
L 100.893863 204.49798 
L 101.147753 203.857198 
L 101.401643 202.56032 
L 101.655533 204.942072 
L 101.909424 204.309466 
L 102.163314 207.505189 
L 102.417204 203.753187 
L 102.924985 204.883249 
L 103.178875 205.472683 
L 103.432765 204.699642 
L 103.686655 204.84352 
L 103.940546 207.112709 
L 104.194436 204.587517 
L 104.702216 206.402823 
L 104.956107 209.399552 
L 105.209997 204.550718 
L 105.717777 208.223676 
L 105.971668 206.325907 
L 106.225558 209.599285 
L 106.479448 207.979619 
L 106.733338 209.771485 
L 106.987229 207.818274 
L 107.241119 208.905114 
L 107.495009 207.459563 
L 107.748899 209.064367 
L 108.00279 208.591465 
L 108.25668 209.142635 
L 108.51057 207.494684 
L 108.76446 209.0316 
L 109.018351 209.086116 
L 109.272241 209.920372 
L 109.526131 212.576344 
L 109.780021 209.220666 
L 110.033912 209.493046 
L 110.287802 208.625485 
L 110.541692 210.846994 
L 110.795583 210.567414 
L 111.049473 212.512374 
L 111.303363 212.984225 
L 111.557253 210.670875 
L 111.811144 215.287045 
L 112.065034 213.085544 
L 112.572814 213.702699 
L 112.826705 212.299394 
L 113.080595 215.086685 
L 113.334485 215.209841 
L 113.588375 214.407889 
L 113.842266 214.332025 
L 114.350046 215.754801 
L 114.603936 214.507831 
L 114.857827 214.715954 
L 115.111717 217.10622 
L 115.365607 214.575569 
L 115.619497 214.313031 
L 116.127278 215.34866 
L 116.635058 214.995621 
L 116.888949 213.718664 
L 117.142839 215.088138 
L 117.396729 217.92525 
L 117.650619 214.985328 
L 117.90451 218.379671 
L 118.1584 216.890422 
L 118.41229 216.524749 
L 118.66618 217.714448 
L 118.920071 216.794887 
L 119.173961 215.402738 
L 119.427851 217.173883 
L 119.681741 218.028284 
L 119.935632 215.054657 
L 120.189522 216.241013 
L 120.443412 216.088746 
L 120.697302 218.477922 
L 120.951193 214.582831 
L 121.205083 219.889817 
L 121.458973 217.329342 
L 121.712863 217.204922 
L 121.966754 217.394802 
L 122.220644 217.005902 
L 122.474534 216.933168 
L 122.982315 218.629626 
L 123.236205 216.768268 
L 123.490095 218.49748 
L 123.743985 215.632434 
L 124.251766 221.351596 
L 124.505656 219.327453 
L 124.759546 218.921901 
L 125.013437 218.985194 
L 125.267327 219.381944 
L 125.521217 220.932045 
L 125.775107 220.817529 
L 126.028998 219.926892 
L 126.282888 220.874436 
L 126.536778 220.195265 
L 127.044559 220.765004 
L 127.298449 220.424648 
L 127.552339 217.822428 
L 127.80623 221.316099 
L 128.06012 221.282242 
L 128.31401 218.041331 
L 128.5679 220.656873 
L 128.821791 219.471657 
L 129.075681 221.596179 
L 129.329571 220.673952 
L 129.583461 222.825444 
L 129.837352 219.012803 
L 130.091242 220.910747 
L 130.345132 221.282618 
L 130.599022 222.845515 
L 130.852913 220.580996 
L 131.106803 221.010789 
L 131.360693 219.290204 
L 131.614583 219.978478 
L 131.868474 221.088419 
L 132.122364 222.937306 
L 132.630144 220.630755 
L 132.884035 220.753622 
L 133.137925 219.723627 
L 133.391815 217.883856 
L 133.899596 223.650146 
L 134.153486 221.936272 
L 134.407376 221.770457 
L 134.661266 220.043962 
L 134.915157 219.237078 
L 135.169047 221.516559 
L 135.676827 223.110558 
L 135.930718 221.573391 
L 136.184608 221.074646 
L 136.438498 219.799241 
L 136.692388 222.374391 
L 136.946279 221.289216 
L 137.200169 222.894785 
L 137.454059 220.977296 
L 137.707949 220.974316 
L 137.96184 222.980328 
L 138.21573 222.971901 
L 138.46962 224.301371 
L 138.72351 223.888168 
L 138.977401 222.409399 
L 139.231291 222.145045 
L 139.485181 225.077229 
L 140.246852 221.239709 
L 140.754632 225.710436 
L 141.008523 222.590038 
L 141.262413 221.288302 
L 141.516303 222.709651 
L 142.024084 223.691365 
L 142.277974 224.546768 
L 142.531864 223.891349 
L 142.785755 222.275163 
L 143.039645 223.134548 
L 143.293535 224.466309 
L 143.547425 224.226646 
L 143.801316 224.483337 
L 144.055206 224.339209 
L 144.309096 222.123597 
L 144.562986 224.693751 
L 144.816877 223.579278 
L 145.070767 223.843494 
L 145.324657 223.435951 
L 145.578547 225.464525 
L 145.832438 225.033894 
L 146.086328 225.81044 
L 146.340218 222.313765 
L 146.594108 222.990607 
L 146.847999 222.815415 
L 147.101889 224.904415 
L 147.355779 223.054476 
L 147.609669 223.490842 
L 148.11745 223.307148 
L 148.37134 225.025079 
L 148.62523 222.755502 
L 148.879121 223.915602 
L 149.133011 222.256669 
L 149.386901 225.421166 
L 149.894682 224.663889 
L 150.148572 222.098781 
L 150.402462 223.382436 
L 150.656352 228.948129 
L 150.910243 222.879509 
L 151.164133 227.214748 
L 151.418023 224.872637 
L 151.671913 226.525434 
L 151.925804 223.586252 
L 152.179694 225.6217 
L 152.433584 225.446508 
L 152.687474 223.727087 
L 152.941365 225.068965 
L 153.195255 225.611083 
L 153.449145 222.525856 
L 153.703035 224.994729 
L 154.210816 226.938486 
L 154.464706 225.510665 
L 154.718596 226.91069 
L 154.972487 225.231336 
L 155.226377 224.326363 
L 155.480267 222.999172 
L 155.734157 225.176782 
L 155.988048 223.835643 
L 156.241938 224.271408 
L 156.495828 226.377174 
L 156.749718 225.986772 
L 157.003609 227.327286 
L 157.257499 225.710323 
L 157.511389 224.938535 
L 157.765279 225.940896 
L 158.01917 224.406747 
L 158.27306 227.54555 
L 158.52695 224.613567 
L 158.78084 223.127035 
L 159.034731 225.473002 
L 159.288621 226.780009 
L 159.542511 227.036387 
L 159.796402 226.437337 
L 160.050292 224.272573 
L 160.304182 225.229057 
L 160.558072 225.501412 
L 160.811963 226.281327 
L 161.065853 225.147997 
L 161.319743 226.762205 
L 161.573633 224.158232 
L 161.827524 226.235037 
L 162.081414 226.338698 
L 162.335304 224.765746 
L 162.589194 226.372617 
L 162.843085 223.64937 
L 163.096975 227.393659 
L 163.350865 224.109375 
L 163.858646 226.902276 
L 164.112536 227.706143 
L 164.366426 225.237885 
L 164.620316 225.440773 
L 164.874207 225.175318 
L 165.128097 227.173479 
L 165.381987 224.94 
L 165.889768 228.015247 
L 166.143658 226.280075 
L 166.651438 227.753472 
L 166.905329 224.50893 
L 167.159219 229.017045 
L 167.413109 225.746121 
L 167.666999 227.023391 
L 168.17478 224.50739 
L 168.42867 227.971987 
L 168.68256 226.89867 
L 169.190341 225.868375 
L 169.444231 226.818912 
L 169.698121 226.119657 
L 170.205902 227.236346 
L 170.459792 224.150569 
L 170.713682 225.183969 
L 170.967573 227.639144 
L 171.221463 225.308452 
L 171.475353 228.349355 
L 171.729243 226.600748 
L 171.983134 226.527225 
L 172.237024 225.74274 
L 172.490914 228.787937 
L 172.744804 227.963886 
L 172.998695 228.069412 
L 173.252585 228.326316 
L 173.506475 225.523261 
L 173.760365 225.009002 
L 174.014256 226.936295 
L 174.268146 224.414197 
L 174.522036 224.576054 
L 174.775926 225.276799 
L 175.029817 226.693302 
L 175.283707 225.828082 
L 175.537597 226.873303 
L 175.791488 225.307939 
L 176.045378 227.058825 
L 176.299268 224.86982 
L 176.553158 226.639763 
L 176.807049 227.535696 
L 177.060939 226.193856 
L 177.314829 226.285997 
L 177.568719 227.347006 
L 177.82261 226.226873 
L 178.0765 227.011922 
L 178.33039 225.732861 
L 178.58428 227.389439 
L 178.838171 226.450434 
L 179.092061 226.083021 
L 179.345951 228.218273 
L 179.599841 228.546459 
L 179.853732 227.929942 
L 180.107622 225.908191 
L 180.361512 228.966485 
L 180.615402 227.911236 
L 180.869293 226.317813 
L 181.123183 225.640357 
L 181.377073 226.943107 
L 181.630963 226.572939 
L 181.884854 229.386399 
L 182.138744 225.878654 
L 182.392634 226.744863 
L 182.646524 226.986792 
L 182.900415 225.199107 
L 183.154305 226.30265 
L 183.408195 228.013131 
L 183.662085 227.943953 
L 183.915976 226.919342 
L 184.169866 224.623697 
L 184.423756 224.6481 
L 184.677646 224.989194 
L 184.931537 226.767927 
L 185.185427 227.066863 
L 185.439317 226.340776 
L 185.693207 224.66315 
L 185.947098 226.836316 
L 186.200988 226.370576 
L 186.454878 227.945681 
L 186.708768 228.299872 
L 186.962659 227.269289 
L 187.216549 227.241943 
L 187.470439 225.28033 
L 187.97822 226.265212 
L 188.23211 228.01387 
L 188.73989 225.916793 
L 188.993781 227.485162 
L 189.247671 224.759649 
L 189.501561 228.26117 
L 189.755451 223.388384 
L 190.009342 229.790298 
L 190.517122 224.793505 
L 190.771012 227.01668 
L 191.024903 228.043231 
L 191.278793 226.789212 
L 191.532683 227.320199 
L 191.786574 224.814665 
L 192.040464 226.007144 
L 192.294354 226.161652 
L 192.548244 225.976793 
L 192.802135 227.155762 
L 193.056025 227.566585 
L 193.309915 226.131664 
L 193.563805 227.105916 
L 193.817696 226.266114 
L 194.071586 228.021232 
L 194.325476 227.881536 
L 194.579366 226.865064 
L 194.833257 228.078027 
L 195.087147 225.163485 
L 195.341037 227.273471 
L 195.594927 221.547047 
L 195.848818 229.307855 
L 196.356598 227.25375 
L 196.610488 227.833143 
L 196.864379 226.422425 
L 197.118269 226.822518 
L 197.372159 226.335743 
L 197.87994 227.208287 
L 198.38772 225.147909 
L 198.64161 228.530094 
L 198.895501 225.79653 
L 199.149391 227.774032 
L 199.403281 225.955019 
L 199.657171 225.504329 
L 199.911062 225.885228 
L 200.164952 227.399156 
L 200.418842 227.329903 
L 200.672732 225.794877 
L 200.926623 226.293096 
L 201.180513 224.365152 
L 201.434403 227.104426 
L 201.688293 225.843859 
L 202.196074 227.915343 
L 202.449964 227.618985 
L 202.703854 227.964725 
L 202.957745 226.621257 
L 203.465525 225.768132 
L 203.719415 225.01937 
L 204.227196 229.307129 
L 204.481086 226.309436 
L 204.734976 228.661025 
L 204.988867 227.973815 
L 205.242757 229.223927 
L 205.496647 227.16365 
L 205.750537 226.499729 
L 206.004428 226.481887 
L 206.258318 228.285486 
L 206.512208 227.522023 
L 206.766098 229.614717 
L 207.019989 226.101689 
L 207.273879 227.635838 
L 207.527769 226.75622 
L 207.78166 226.746854 
L 208.03555 226.12598 
L 208.28944 226.112182 
L 208.54333 226.943219 
L 208.797221 225.324529 
L 209.051111 226.534237 
L 209.305001 229.762439 
L 209.558891 226.382621 
L 210.066672 227.825793 
L 210.320562 225.856868 
L 210.574452 225.518528 
L 210.828343 225.613274 
L 211.082233 227.49479 
L 211.336123 228.376876 
L 211.590013 225.634397 
L 211.843904 228.626054 
L 212.351684 225.941134 
L 212.605574 227.083629 
L 212.859465 225.854664 
L 213.113355 227.745246 
L 213.367245 225.760507 
L 213.621135 225.960654 
L 213.875026 228.705537 
L 214.128916 226.18131 
L 214.382806 227.124134 
L 214.636696 226.395217 
L 214.890587 226.875081 
L 215.144477 227.736256 
L 215.398367 225.464914 
L 215.652257 227.980614 
L 215.906148 229.107921 
L 216.160038 226.862823 
L 216.413928 229.709288 
L 216.667818 229.660682 
L 216.921709 225.681275 
L 217.175599 227.675016 
L 217.429489 225.175455 
L 217.683379 225.429843 
L 217.93727 228.485056 
L 218.19116 225.317931 
L 218.44505 227.25325 
L 218.69894 226.3703 
L 218.952831 229.235221 
L 219.206721 228.728588 
L 219.460611 227.663234 
L 219.714501 225.134524 
L 219.968392 225.969869 
L 220.222282 225.741701 
L 220.476172 228.599585 
L 220.730062 225.844685 
L 220.983953 229.425827 
L 221.237843 226.232282 
L 221.491733 227.811494 
L 221.745623 227.114681 
L 221.999514 227.989454 
L 222.253404 227.107556 
L 222.507294 225.618821 
L 222.761184 226.428235 
L 223.015075 228.425357 
L 223.268965 226.265776 
L 223.522855 228.64327 
L 223.776745 229.420092 
L 224.030636 226.517897 
L 224.284526 225.934397 
L 224.538416 229.712556 
L 225.046197 226.088505 
L 225.300087 228.677039 
L 225.553977 224.82621 
L 226.061758 228.034128 
L 226.315648 228.872516 
L 226.823429 225.291236 
L 227.077319 227.352039 
L 227.331209 227.568038 
L 227.585099 228.581905 
L 227.83899 226.082207 
L 228.09288 228.123903 
L 228.34677 224.189384 
L 228.60066 226.820264 
L 228.854551 226.328731 
L 229.108441 226.569884 
L 229.362331 227.803919 
L 229.616221 226.494633 
L 229.870112 226.776679 
L 230.124002 229.521474 
L 230.885673 225.645377 
L 231.139563 226.786946 
L 231.393453 225.139708 
L 231.647343 226.747493 
L 231.901234 226.435046 
L 232.155124 227.286793 
L 232.409014 225.403686 
L 232.662904 228.233211 
L 232.916795 228.506855 
L 233.170685 226.612154 
L 233.424575 229.246302 
L 233.932356 226.340914 
L 234.186246 227.559874 
L 234.440136 226.178255 
L 234.694026 227.129268 
L 234.947917 227.614903 
L 235.201807 228.392652 
L 235.455697 227.903498 
L 235.709587 228.396922 
L 235.963478 226.233835 
L 236.217368 227.070307 
L 236.471258 228.417418 
L 236.725148 225.212116 
L 236.979039 228.990538 
L 237.232929 224.510608 
L 237.486819 226.890782 
L 237.740709 227.48863 
L 237.9946 227.38681 
L 238.24849 225.892014 
L 238.75627 229.795231 
L 239.010161 228.388658 
L 239.264051 225.516324 
L 239.517941 226.713423 
L 239.771831 225.904422 
L 240.025722 224.644469 
L 240.279612 226.033413 
L 240.533502 225.582685 
L 240.787393 229.506387 
L 241.041283 226.85238 
L 241.295173 227.224076 
L 241.549063 226.881354 
L 241.802954 226.019715 
L 242.056844 225.834293 
L 242.310734 226.543853 
L 242.564624 227.599841 
L 242.818515 225.999131 
L 243.072405 226.314845 
L 243.326295 224.514076 
L 243.580185 227.096676 
L 243.834076 227.163537 
L 244.087966 227.668831 
L 244.341856 228.688408 
L 244.595746 227.038854 
L 244.849637 229.315005 
L 245.103527 225.939456 
L 245.357417 227.018207 
L 245.611307 226.86877 
L 245.865198 224.610462 
L 246.119088 224.919591 
L 246.372978 228.507494 
L 246.626868 228.764035 
L 246.880759 226.105283 
L 247.134649 226.408364 
L 247.388539 225.39114 
L 247.642429 228.10715 
L 247.89632 226.802209 
L 248.15021 227.047581 
L 248.4041 226.571611 
L 248.65799 225.826042 
L 248.911881 228.253157 
L 249.165771 226.346085 
L 249.419661 227.970735 
L 249.673551 227.70394 
L 249.927442 225.467831 
L 250.181332 226.771896 
L 250.435222 226.158572 
L 250.689112 227.262515 
L 250.943003 227.128328 
L 251.196893 228.403958 
L 251.450783 226.652972 
L 251.704673 226.640501 
L 251.958564 226.903002 
L 252.212454 226.806328 
L 252.720234 227.506084 
L 252.974125 226.923223 
L 253.228015 228.217184 
L 253.481905 226.516983 
L 253.989686 228.919682 
L 254.243576 225.682953 
L 254.497466 227.032619 
L 255.005247 227.401973 
L 255.259137 226.16179 
L 255.513027 225.98522 
L 256.020808 226.976851 
L 256.274698 228.430653 
L 256.528588 228.084938 
L 256.782479 225.664071 
L 257.036369 227.273346 
L 257.290259 227.737408 
L 257.544149 227.44492 
L 257.79804 227.543597 
L 258.05193 228.779348 
L 258.30582 226.2202 
L 258.55971 228.073419 
L 258.813601 225.889548 
L 259.067491 227.666965 
L 259.321381 228.515995 
L 259.575271 227.857133 
L 259.829162 227.627812 
L 260.083052 226.663941 
L 260.336942 227.275462 
L 260.590832 227.449703 
L 260.844723 225.954231 
L 261.098613 228.532723 
L 261.352503 228.112321 
L 261.860284 225.847302 
L 262.368064 228.958622 
L 262.621954 228.302564 
L 262.875845 224.984048 
L 263.129735 226.437951 
L 263.383625 230.557091 
L 263.637515 226.364929 
L 263.891406 228.209621 
L 264.145296 229.224341 
L 264.399186 226.746829 
L 264.653076 228.312806 
L 264.906967 227.958565 
L 265.160857 226.504549 
L 265.414747 229.20005 
L 265.668637 226.872 
L 265.922528 227.277803 
L 266.176418 227.161784 
L 266.430308 227.84917 
L 266.684198 225.571742 
L 266.938089 228.956105 
L 267.191979 229.219119 
L 267.699759 225.944239 
L 267.95365 227.125737 
L 268.46143 224.559214 
L 268.71532 229.505422 
L 268.969211 227.175307 
L 269.223101 227.153145 
L 269.476991 226.066205 
L 269.730881 225.841054 
L 269.984772 228.730566 
L 270.238662 226.577346 
L 270.492552 227.674515 
L 270.746442 227.317169 
L 271.000333 228.531484 
L 271.254223 226.613481 
L 271.508113 227.084292 
L 271.762003 226.674859 
L 272.015894 229.38288 
L 272.523674 227.630229 
L 272.777564 225.488503 
L 273.031455 227.615968 
L 273.285345 227.368492 
L 273.539235 227.514235 
L 273.793126 227.263279 
L 274.047016 227.559361 
L 274.300906 226.25214 
L 274.554796 227.07678 
L 274.808687 226.211923 
L 275.062577 229.292342 
L 275.316467 226.755005 
L 275.570357 227.730396 
L 275.824248 227.368342 
L 276.078138 227.748489 
L 276.332028 229.172241 
L 276.585918 228.893163 
L 276.839809 227.355195 
L 277.093699 227.830551 
L 277.347589 228.944098 
L 277.601479 227.242607 
L 277.85537 228.978004 
L 278.10926 228.436901 
L 278.36315 225.964861 
L 278.61704 226.598694 
L 279.124821 229.330781 
L 279.378711 225.846188 
L 279.886492 229.300105 
L 280.140382 226.897055 
L 280.394272 228.307572 
L 280.648162 228.451563 
L 280.902053 227.955297 
L 281.155943 228.501847 
L 281.663723 225.832202 
L 282.171504 227.334736 
L 282.425394 228.778146 
L 282.679284 228.918079 
L 282.933175 226.938499 
L 283.187065 228.105159 
L 283.440955 228.444889 
L 283.694845 225.367651 
L 283.948736 228.826627 
L 284.456516 225.597072 
L 284.710406 226.451999 
L 284.964297 226.666382 
L 285.218187 227.208124 
L 285.472077 229.202554 
L 285.725967 227.216363 
L 285.979858 228.066808 
L 286.233748 226.380017 
L 286.487638 227.758305 
L 286.741528 227.500074 
L 286.995419 224.578934 
L 287.249309 226.584596 
L 287.503199 224.813589 
L 287.757089 228.367209 
L 288.01098 228.726722 
L 288.26487 228.08599 
L 288.51876 225.478812 
L 288.77265 225.227405 
L 289.026541 227.218316 
L 289.280431 226.691599 
L 289.534321 228.711347 
L 289.788212 226.210659 
L 290.042102 226.303025 
L 290.295992 224.103966 
L 290.549882 226.77276 
L 291.057663 228.727123 
L 291.311553 226.599959 
L 291.565443 226.861884 
L 291.819334 227.846553 
L 292.073224 225.163385 
L 292.327114 227.269752 
L 292.581004 225.775895 
L 292.834895 228.650182 
L 293.088785 227.786615 
L 293.342675 226.438139 
L 293.596565 229.260213 
L 293.850456 230.010403 
L 294.104346 225.852073 
L 294.358236 225.751893 
L 294.866017 224.523379 
L 295.373797 230.39611 
L 295.881578 224.55527 
L 296.135468 224.637908 
L 296.389358 227.395437 
L 296.897139 228.630236 
L 297.151029 227.862029 
L 297.404919 228.330899 
L 297.658809 227.261188 
L 297.9127 228.384826 
L 298.16659 227.878481 
L 298.42048 227.7403 
L 298.67437 227.468371 
L 298.928261 228.409505 
L 299.182151 226.19502 
L 299.436041 227.779628 
L 299.689931 228.438529 
L 299.943822 227.545976 
L 300.197712 228.469042 
L 300.451602 223.475767 
L 300.959383 229.105329 
L 301.213273 227.663347 
L 301.467163 227.8447 
L 301.721053 226.43452 
L 301.974944 226.356427 
L 302.228834 227.600216 
L 302.482724 226.61427 
L 302.990505 228.34809 
L 303.244395 226.414712 
L 303.498285 226.787246 
L 303.752175 225.82062 
L 304.006066 225.893166 
L 304.513846 227.956399 
L 304.767736 228.125857 
L 305.021627 225.404162 
L 305.275517 229.005275 
L 305.529407 226.660022 
L 305.783298 227.184097 
L 306.037188 228.926143 
L 306.291078 225.378607 
L 306.544968 227.504431 
L 306.798859 227.012322 
L 307.052749 226.776003 
L 307.306639 227.290537 
L 307.560529 227.50929 
L 307.81442 227.290737 
L 308.06831 228.571638 
L 308.3222 226.67531 
L 308.57609 227.414131 
L 308.829981 228.720662 
L 309.337761 227.402624 
L 309.591651 227.955722 
L 309.845542 224.783814 
L 310.099432 227.78629 
L 310.099432 227.78629 
" clip-path="url(#p193ad67151)" style="fill: none; stroke: #0000ff; stroke-width: 0.6; stroke-linecap: square"/>
   </g>
   <g id="line2d_24">
    <path d="M 56.463068 71.688818 
L 56.716958 71.569519 
L 56.970849 71.667032 
L 57.478629 71.313417 
L 57.732519 71.650655 
L 58.2403 71.765546 
L 58.74808 71.785079 
L 59.001971 71.768852 
L 59.255861 71.976649 
L 59.509751 71.959495 
L 59.763641 72.207134 
L 60.017532 72.023527 
L 60.779202 74.305537 
L 61.033093 72.629439 
L 61.286983 79.018757 
L 61.540873 77.421465 
L 61.794764 88.204044 
L 62.048654 46.498909 
L 62.302544 89.574006 
L 62.556434 108.419998 
L 62.810325 118.300796 
L 63.064215 89.264765 
L 63.318105 74.599779 
L 63.571995 92.821729 
L 63.825886 88.966141 
L 64.079776 137.4839 
L 64.333666 95.497046 
L 64.587556 73.33061 
L 64.841447 76.730536 
L 65.349227 138.686433 
L 65.603117 75.308737 
L 65.857008 83.181332 
L 66.110898 155.305857 
L 66.364788 136.997914 
L 66.618678 72.187276 
L 66.872569 72.89045 
L 67.380349 73.07303 
L 67.88813 73.802197 
L 68.39591 76.51087 
L 68.6498 80.200155 
L 69.157581 165.969675 
L 69.411471 109.861254 
L 69.665361 116.929581 
L 69.919252 167.329934 
L 70.173142 167.769105 
L 70.427032 154.177586 
L 70.680922 172.053934 
L 70.934813 148.886013 
L 71.188703 137.126729 
L 71.442593 181.082008 
L 71.696483 157.242028 
L 71.950374 179.608034 
L 72.204264 174.09985 
L 72.458154 186.065504 
L 72.712044 171.948245 
L 72.965935 174.537593 
L 73.219825 184.319952 
L 73.473715 184.903489 
L 73.727605 168.195742 
L 73.981496 178.395535 
L 74.235386 165.027177 
L 74.489276 185.704464 
L 74.743166 164.384604 
L 74.997057 189.425827 
L 75.250947 183.713552 
L 75.504837 192.055843 
L 75.758727 179.61715 
L 76.012618 190.742162 
L 76.266508 134.278674 
L 76.520398 183.468443 
L 76.774288 185.692343 
L 77.028179 171.529083 
L 77.282069 140.455838 
L 77.535959 184.257998 
L 77.78985 186.400413 
L 78.04374 190.125057 
L 78.29763 149.960382 
L 78.55152 194.820071 
L 78.805411 192.31405 
L 79.059301 191.682257 
L 79.313191 181.8111 
L 79.820972 194.060891 
L 80.074862 181.438028 
L 80.328752 188.099237 
L 80.582642 178.562238 
L 80.836533 173.595696 
L 81.090423 163.060305 
L 81.344313 191.401276 
L 81.598203 194.820672 
L 81.852094 126.052764 
L 82.105984 197.81839 
L 82.359874 197.981437 
L 82.613764 195.483041 
L 82.867655 199.29622 
L 83.121545 173.68328 
L 83.375435 196.109549 
L 83.629325 197.168492 
L 83.883216 165.708702 
L 84.137106 201.749566 
L 84.390996 205.695492 
L 84.644886 204.384065 
L 85.152667 216.9372 
L 85.406557 194.519307 
L 85.660447 219.611716 
L 85.914338 60.553426 
L 86.168228 75.6455 
L 86.422118 77.357032 
L 86.676008 77.278076 
L 87.183789 86.35448 
L 87.691569 104.418191 
L 87.94546 176.670805 
L 88.19935 188.224697 
L 88.45324 190.844922 
L 88.70713 189.196957 
L 88.961021 180.548455 
L 89.214911 197.699905 
L 89.468801 199.399993 
L 89.722691 195.638225 
L 89.976582 173.906978 
L 90.230472 194.243208 
L 90.484362 162.937863 
L 90.738252 185.76797 
L 90.992143 181.217797 
L 91.246033 186.719008 
L 91.499923 185.999631 
L 91.753813 191.461514 
L 92.007704 204.330413 
L 92.261594 183.394745 
L 92.515484 198.291543 
L 92.769374 203.326474 
L 93.023265 185.8758 
L 93.277155 196.783124 
L 93.531045 194.004334 
L 93.784936 197.981638 
L 94.038826 199.270915 
L 94.292716 197.990127 
L 94.546606 199.10604 
L 94.800497 195.162531 
L 95.054387 200.263986 
L 95.308277 197.000211 
L 95.562167 196.233782 
L 95.816058 198.085286 
L 96.069948 188.911368 
L 96.323838 200.247859 
L 96.577728 202.76063 
L 96.831619 202.371305 
L 97.339399 189.238702 
L 97.593289 204.040754 
L 97.84718 199.677419 
L 98.10107 188.442222 
L 98.35496 200.87105 
L 98.60885 201.769775 
L 98.862741 200.427935 
L 99.116631 200.516483 
L 99.370521 193.138789 
L 99.624411 201.047457 
L 100.132192 207.170342 
L 100.386082 194.463113 
L 100.639972 203.679626 
L 100.893863 206.2615 
L 101.147753 189.305964 
L 101.401643 204.649784 
L 101.655533 191.894424 
L 101.909424 206.479739 
L 102.163314 198.129622 
L 102.417204 205.483801 
L 102.671094 205.881653 
L 102.924985 203.905491 
L 103.178875 203.299805 
L 103.432765 207.346048 
L 103.686655 204.988512 
L 103.940546 205.435095 
L 104.194436 202.477181 
L 104.448326 206.548116 
L 104.702216 206.919649 
L 104.956107 201.289148 
L 105.209997 206.031253 
L 105.463887 206.300816 
L 105.717777 202.443012 
L 105.971668 203.104904 
L 106.225558 206.212781 
L 106.479448 203.390256 
L 106.733338 202.650997 
L 106.987229 202.351772 
L 107.241119 199.76022 
L 107.495009 206.331166 
L 107.748899 208.74993 
L 108.25668 205.15345 
L 108.51057 208.1707 
L 108.76446 204.599888 
L 109.018351 206.480541 
L 109.526131 201.762688 
L 109.780021 202.685404 
L 110.033912 203.032784 
L 110.287802 206.886481 
L 110.541692 197.766291 
L 110.795583 205.329694 
L 111.049473 207.351658 
L 111.303363 206.785262 
L 111.557253 208.157929 
L 111.811144 207.963379 
L 112.065034 204.05126 
L 112.318924 204.218702 
L 112.572814 208.995502 
L 112.826705 209.074472 
L 113.080595 207.196098 
L 113.334485 208.261677 
L 113.588375 207.981847 
L 113.842266 208.806549 
L 114.096156 206.537987 
L 114.350046 206.368253 
L 114.603936 203.876167 
L 114.857827 207.081807 
L 115.111717 207.389195 
L 115.365607 208.804634 
L 115.619497 204.707881 
L 115.873388 208.55856 
L 116.127278 206.681777 
L 116.381168 208.166881 
L 116.635058 206.007826 
L 116.888949 208.433013 
L 117.142839 203.908772 
L 117.396729 208.010483 
L 117.650619 207.514392 
L 118.1584 208.399132 
L 118.41229 204.172136 
L 118.66618 203.050614 
L 118.920071 206.285177 
L 119.173961 207.275167 
L 119.427851 205.962138 
L 119.681741 207.809009 
L 119.935632 208.192775 
L 120.189522 201.772342 
L 120.443412 208.051388 
L 120.697302 208.501728 
L 120.951193 206.958414 
L 121.205083 202.521568 
L 121.458973 208.171789 
L 121.712863 204.978733 
L 121.966754 204.914563 
L 122.220644 207.551241 
L 122.474534 207.943458 
L 122.728424 204.622438 
L 122.982315 208.367692 
L 123.236205 206.446909 
L 123.490095 208.176635 
L 123.743985 208.387963 
L 123.997876 208.30361 
L 124.505656 205.314907 
L 124.759546 208.739037 
L 125.013437 203.721334 
L 125.267327 208.308167 
L 125.521217 207.684814 
L 125.775107 208.042098 
L 126.028998 206.757027 
L 126.282888 208.324419 
L 126.536778 208.139886 
L 126.790669 208.989017 
L 127.044559 208.23666 
L 127.298449 208.938269 
L 127.552339 208.336089 
L 127.80623 208.707484 
L 128.06012 206.371947 
L 128.31401 209.019342 
L 128.5679 207.586024 
L 128.821791 209.621635 
L 129.075681 207.289379 
L 129.329571 208.946032 
L 129.583461 205.507904 
L 129.837352 206.828497 
L 130.091242 204.633068 
L 130.345132 207.986605 
L 130.599022 208.482959 
L 130.852913 207.181524 
L 131.106803 208.592667 
L 131.360693 205.76924 
L 131.614583 207.352947 
L 131.868474 208.162574 
L 132.122364 204.285889 
L 132.376254 204.495389 
L 132.630144 208.427003 
L 132.884035 205.796711 
L 133.137925 207.236415 
L 133.391815 206.964449 
L 133.645705 207.858917 
L 133.899596 205.705259 
L 134.153486 208.03734 
L 134.407376 208.611649 
L 134.661266 207.448119 
L 134.915157 204.357408 
L 135.169047 208.092332 
L 135.422937 207.224934 
L 135.676827 207.473536 
L 135.930718 206.591851 
L 136.184608 207.138013 
L 136.438498 205.660446 
L 136.692388 208.657651 
L 136.946279 208.197219 
L 137.200169 203.938471 
L 137.454059 207.358256 
L 137.707949 208.374753 
L 137.96184 207.513991 
L 138.21573 209.062239 
L 138.46962 208.59596 
L 138.977401 208.756666 
L 139.231291 207.756058 
L 139.485181 207.841526 
L 139.739071 208.711153 
L 139.992962 208.59611 
L 140.246852 207.766663 
L 140.500742 207.584334 
L 140.754632 208.257858 
L 141.008523 208.184811 
L 141.262413 206.319497 
L 141.516303 206.997692 
L 141.770193 208.255304 
L 142.277974 208.28265 
L 142.531864 207.768691 
L 142.785755 208.728356 
L 143.039645 208.885356 
L 143.293535 206.833943 
L 143.547425 208.247353 
L 143.801316 207.280927 
L 144.055206 208.244048 
L 144.309096 208.490822 
L 144.562986 207.81274 
L 144.816877 208.426953 
L 145.070767 208.461561 
L 145.324657 207.575882 
L 145.578547 207.528904 
L 145.832438 208.353793 
L 146.086328 208.255604 
L 146.340218 208.625284 
L 146.847999 208.212082 
L 147.101889 208.523978 
L 147.355779 207.988458 
L 147.609669 206.650099 
L 148.11745 208.770589 
L 148.62523 208.733978 
L 148.879121 208.878482 
L 149.133011 208.448815 
L 149.386901 208.469011 
L 149.640791 208.27381 
L 149.894682 206.94444 
L 150.402462 208.844475 
L 150.656352 208.080625 
L 150.910243 208.878845 
L 151.164133 208.745923 
L 151.671913 208.121117 
L 151.925804 207.73799 
L 152.179694 208.596524 
L 152.433584 208.591941 
L 152.687474 208.406294 
L 152.941365 207.359997 
L 153.195255 208.676132 
L 153.449145 208.518994 
L 153.703035 208.826996 
L 153.956926 208.015216 
L 154.210816 208.737221 
L 154.718596 208.271093 
L 154.972487 207.513277 
L 155.226377 208.599504 
L 155.480267 208.963073 
L 155.734157 207.879176 
L 155.988048 208.483886 
L 156.495828 207.891496 
L 156.749718 205.156868 
L 157.003609 208.78569 
L 157.257499 208.56288 
L 157.511389 208.745936 
L 157.765279 208.748365 
L 158.01917 207.899297 
L 158.27306 207.667022 
L 158.52695 208.79498 
L 159.034731 208.403702 
L 159.288621 207.080154 
L 159.542511 208.131635 
L 159.796402 208.489683 
L 160.050292 207.772636 
L 160.304182 208.577442 
L 160.558072 207.489538 
L 160.811963 208.102737 
L 161.319743 208.653844 
L 161.573633 208.13618 
L 161.827524 208.519858 
L 162.081414 208.591102 
L 162.335304 208.273146 
L 162.589194 208.792488 
L 162.843085 208.363121 
L 163.096975 208.18719 
L 163.350865 208.574249 
L 163.858646 208.732225 
L 164.620316 208.571282 
L 164.874207 208.435117 
L 165.128097 208.091343 
L 165.381987 208.696916 
L 165.635877 208.120905 
L 165.889768 208.663886 
L 166.143658 208.470789 
L 166.397548 208.078196 
L 166.651438 208.110888 
L 167.159219 208.686048 
L 167.92089 208.527421 
L 168.17478 208.306928 
L 168.42867 208.552099 
L 168.936451 208.069932 
L 169.190341 208.578519 
L 169.444231 208.674829 
L 169.952012 208.255867 
L 170.205902 207.947503 
L 170.713682 208.69465 
L 170.967573 208.252712 
L 171.221463 208.141238 
L 171.475353 208.794942 
L 171.729243 208.758895 
L 171.983134 208.505835 
L 172.237024 208.527183 
L 172.490914 208.740314 
L 172.744804 208.494165 
L 173.252585 208.33351 
L 173.506475 208.451344 
L 173.760365 208.139761 
L 174.014256 208.217967 
L 174.268146 208.432249 
L 174.522036 207.651633 
L 174.775926 208.467421 
L 175.029817 208.559975 
L 175.283707 208.479002 
L 175.537597 208.628114 
L 175.791488 208.452846 
L 176.045378 208.673076 
L 176.299268 208.338906 
L 176.807049 208.268564 
L 177.060939 208.617509 
L 177.314829 208.211518 
L 177.82261 208.60023 
L 178.0765 208.200725 
L 178.33039 208.553715 
L 178.58428 207.987557 
L 178.838171 208.520522 
L 179.092061 208.286456 
L 179.345951 208.452771 
L 179.599841 207.989322 
L 180.107622 208.564145 
L 180.361512 208.210579 
L 180.869293 208.533882 
L 181.123183 208.512521 
L 181.377073 208.615681 
L 182.138744 208.563719 
L 182.392634 208.637154 
L 182.646524 208.282074 
L 183.154305 208.410037 
L 183.408195 208.203017 
L 183.662085 208.513585 
L 183.915976 208.339319 
L 184.169866 207.966346 
L 184.423756 208.289661 
L 184.677646 208.381089 
L 184.931537 208.298526 
L 185.185427 208.383768 
L 185.439317 208.339056 
L 186.200988 208.526419 
L 186.708768 208.536561 
L 187.216549 207.948379 
L 187.724329 208.501452 
L 188.23211 208.542195 
L 188.486 208.403013 
L 188.993781 208.507262 
L 190.263232 208.512734 
L 190.517122 208.353418 
L 190.771012 208.571883 
L 191.278793 208.300304 
L 191.532683 208.490772 
L 191.786574 208.368944 
L 192.294354 208.646908 
L 192.548244 208.399031 
L 193.817696 208.484399 
L 194.071586 208.507049 
L 194.325476 208.233668 
L 194.579366 208.511156 
L 195.087147 208.274436 
L 195.341037 208.465993 
L 195.594927 208.518356 
L 195.848818 208.327675 
L 196.102708 208.480718 
L 197.118269 208.46841 
L 198.38772 208.577955 
L 198.64161 208.330542 
L 198.895501 208.485801 
L 199.149391 208.459182 
L 199.403281 208.546114 
L 199.657171 208.324682 
L 200.164952 208.420092 
L 200.926623 208.509115 
L 201.942184 208.450342 
L 202.449964 208.41487 
L 204.481086 208.45515 
L 204.734976 208.310584 
L 204.988867 208.500025 
L 205.242757 208.393309 
L 206.258318 208.50591 
L 207.019989 208.365288 
L 208.54333 208.392821 
L 209.558891 208.385822 
L 209.812782 208.478414 
L 211.336123 208.386348 
L 212.097794 208.50179 
L 217.683379 208.382817 
L 218.44505 208.451319 
L 219.460611 208.412491 
L 221.237843 208.41934 
L 223.268965 208.457629 
L 223.776745 208.436857 
L 226.061758 208.451507 
L 227.585099 208.459933 
L 232.662904 208.410338 
L 233.678465 208.450981 
L 234.694026 208.382904 
L 235.963478 208.443268 
L 237.740709 208.433752 
L 246.119088 208.450467 
L 248.4041 208.446999 
L 249.419661 208.442153 
L 254.497466 208.451632 
L 264.399186 208.449353 
L 267.699759 208.438222 
L 294.358236 208.432738 
L 298.16659 208.443493 
L 310.099432 208.43692 
L 310.099432 208.43692 
" clip-path="url(#p193ad67151)" style="fill: none; stroke: #ff0000; stroke-width: 0.6; stroke-linecap: square"/>
   </g>
   <g id="patch_3">
    <path d="M 43.78125 239.76 
L 43.78125 37.296 
" style="fill: none; stroke: #000000; stroke-width: 0.8; stroke-linejoin: miter; stroke-linecap: square"/>
   </g>
   <g id="patch_4">
    <path d="M 322.78125 239.76 
L 322.78125 37.296 
" style="fill: none; stroke: #000000; stroke-width: 0.8; stroke-linejoin: miter; stroke-linecap: square"/>
   </g>
   <g id="patch_5">
    <path d="M 43.78125 239.76 
L 322.78125 239.76 
" style="fill: none; stroke: #000000; stroke-width: 0.8; stroke-linejoin: miter; stroke-linecap: square"/>
   </g>
   <g id="patch_6">
    <path d="M 43.78125 37.296 
L 322.78125 37.296 
" style="fill: none; stroke: #000000; stroke-width: 0.8; stroke-linejoin: miter; stroke-linecap: square"/>
   </g>
   <g id="text_14">
    <!-- Constrained Model -->
    <g transform="translate(141.147891 31.296) scale(0.09 -0.09)">
     <defs>
      <path id="DejaVuSans-43" d="M 4122 4306 
L 4122 3641 
Q 3803 3938 3442 4084 
Q 3081 4231 2675 4231 
Q 1875 4231 1450 3742 
Q 1025 3253 1025 2328 
Q 1025 1406 1450 917 
Q 1875 428 2675 428 
Q 3081 428 3442 575 
Q 3803 722 4122 1019 
L 4122 359 
Q 3791 134 3420 21 
Q 3050 -91 2638 -91 
Q 1578 -91 968 557 
Q 359 1206 359 2328 
Q 359 3453 968 4101 
Q 1578 4750 2638 4750 
Q 3056 4750 3426 4639 
Q 3797 4528 4122 4306 
z
" transform="scale(0.015625)"/>
      <path id="DejaVuSans-6e" d="M 3513 2113 
L 3513 0 
L 2938 0 
L 2938 2094 
Q 2938 2591 2744 2837 
Q 2550 3084 2163 3084 
Q 1697 3084 1428 2787 
Q 1159 2491 1159 1978 
L 1159 0 
L 581 0 
L 581 3500 
L 1159 3500 
L 1159 2956 
Q 1366 3272 1645 3428 
Q 1925 3584 2291 3584 
Q 2894 3584 3203 3211 
Q 3513 2838 3513 2113 
z
" transform="scale(0.015625)"/>
      <path id="DejaVuSans-74" d="M 1172 4494 
L 1172 3500 
L 2356 3500 
L 2356 3053 
L 1172 3053 
L 1172 1153 
Q 1172 725 1289 603 
Q 1406 481 1766 481 
L 2356 481 
L 2356 0 
L 1766 0 
Q 1100 0 847 248 
Q 594 497 594 1153 
L 594 3053 
L 172 3053 
L 172 3500 
L 594 3500 
L 594 4494 
L 1172 4494 
z
" transform="scale(0.015625)"/>
      <path id="DejaVuSans-72" d="M 2631 2963 
Q 2534 3019 2420 3045 
Q 2306 3072 2169 3072 
Q 1681 3072 1420 2755 
Q 1159 2438 1159 1844 
L 1159 0 
L 581 0 
L 581 3500 
L 1159 3500 
L 1159 2956 
Q 1341 3275 1631 3429 
Q 1922 3584 2338 3584 
Q 2397 3584 2469 3576 
Q 2541 3569 2628 3553 
L 2631 2963 
z
" transform="scale(0.015625)"/>
      <path id="DejaVuSans-61" d="M 2194 1759 
Q 1497 1759 1228 1600 
Q 959 1441 959 1056 
Q 959 750 1161 570 
Q 1363 391 1709 391 
Q 2188 391 2477 730 
Q 2766 1069 2766 1631 
L 2766 1759 
L 2194 1759 
z
M 3341 1997 
L 3341 0 
L 2766 0 
L 2766 531 
Q 2569 213 2275 61 
Q 1981 -91 1556 -91 
Q 1019 -91 701 211 
Q 384 513 384 1019 
Q 384 1609 779 1909 
Q 1175 2209 1959 2209 
L 2766 2209 
L 2766 2266 
Q 2766 2663 2505 2880 
Q 2244 3097 1772 3097 
Q 1472 3097 1187 3025 
Q 903 2953 641 2809 
L 641 3341 
Q 956 3463 1253 3523 
Q 1550 3584 1831 3584 
Q 2591 3584 2966 3190 
Q 3341 2797 3341 1997 
z
" transform="scale(0.015625)"/>
      <path id="DejaVuSans-69" d="M 603 3500 
L 1178 3500 
L 1178 0 
L 603 0 
L 603 3500 
z
M 603 4863 
L 1178 4863 
L 1178 4134 
L 603 4134 
L 603 4863 
z
" transform="scale(0.015625)"/>
      <path id="DejaVuSans-65" d="M 3597 1894 
L 3597 1613 
L 953 1613 
Q 991 1019 1311 708 
Q 1631 397 2203 397 
Q 2534 397 2845 478 
Q 3156 559 3463 722 
L 3463 178 
Q 3153 47 2828 -22 
Q 2503 -91 2169 -91 
Q 1331 -91 842 396 
Q 353 884 353 1716 
Q 353 2575 817 3079 
Q 1281 3584 2069 3584 
Q 2775 3584 3186 3129 
Q 3597 2675 3597 1894 
z
M 3022 2063 
Q 3016 2534 2758 2815 
Q 2500 3097 2075 3097 
Q 1594 3097 1305 2825 
Q 1016 2553 972 2059 
L 3022 2063 
z
" transform="scale(0.015625)"/>
      <path id="DejaVuSans-64" d="M 2906 2969 
L 2906 4863 
L 3481 4863 
L 3481 0 
L 2906 0 
L 2906 525 
Q 2725 213 2448 61 
Q 2172 -91 1784 -91 
Q 1150 -91 751 415 
Q 353 922 353 1747 
Q 353 2572 751 3078 
Q 1150 3584 1784 3584 
Q 2172 3584 2448 3432 
Q 2725 3281 2906 2969 
z
M 947 1747 
Q 947 1113 1208 752 
Q 1469 391 1925 391 
Q 2381 391 2643 752 
Q 2906 1113 2906 1747 
Q 2906 2381 2643 2742 
Q 2381 3103 1925 3103 
Q 1469 3103 1208 2742 
Q 947 2381 947 1747 
z
" transform="scale(0.015625)"/>
      <path id="DejaVuSans-20" transform="scale(0.015625)"/>
      <path id="DejaVuSans-4d" d="M 628 4666 
L 1569 4666 
L 2759 1491 
L 3956 4666 
L 4897 4666 
L 4897 0 
L 4281 0 
L 4281 4097 
L 3078 897 
L 2444 897 
L 1241 4097 
L 1241 0 
L 628 0 
L 628 4666 
z
" transform="scale(0.015625)"/>
      <path id="DejaVuSans-6c" d="M 603 4863 
L 1178 4863 
L 1178 0 
L 603 0 
L 603 4863 
z
" transform="scale(0.015625)"/>
     </defs>
     <use xlink:href="#DejaVuSans-43"/>
     <use xlink:href="#DejaVuSans-6f" x="69.824219"/>
     <use xlink:href="#DejaVuSans-6e" x="131.005859"/>
     <use xlink:href="#DejaVuSans-73" x="194.384766"/>
     <use xlink:href="#DejaVuSans-74" x="246.484375"/>
     <use xlink:href="#DejaVuSans-72" x="285.693359"/>
     <use xlink:href="#DejaVuSans-61" x="326.806641"/>
     <use xlink:href="#DejaVuSans-69" x="388.085938"/>
     <use xlink:href="#DejaVuSans-6e" x="415.869141"/>
     <use xlink:href="#DejaVuSans-65" x="479.248047"/>
     <use xlink:href="#DejaVuSans-64" x="540.771484"/>
     <use xlink:href="#DejaVuSans-20" x="604.248047"/>
     <use xlink:href="#DejaVuSans-4d" x="636.035156"/>
     <use xlink:href="#DejaVuSans-6f" x="722.314453"/>
     <use xlink:href="#DejaVuSans-64" x="783.496094"/>
     <use xlink:href="#DejaVuSans-65" x="846.972656"/>
     <use xlink:href="#DejaVuSans-6c" x="908.496094"/>
    </g>
   </g>
   <g id="legend_1">
    <g id="patch_7">
     <path d="M 209.2875 74.65225 
L 315.78125 74.65225 
Q 317.78125 74.65225 317.78125 72.65225 
L 317.78125 44.296 
Q 317.78125 42.296 315.78125 42.296 
L 209.2875 42.296 
Q 207.2875 42.296 207.2875 44.296 
L 207.2875 72.65225 
Q 207.2875 74.65225 209.2875 74.65225 
z
" style="fill: #ffffff; opacity: 0.8; stroke: #cccccc; stroke-linejoin: miter"/>
    </g>
    <g id="line2d_25">
     <path d="M 211.2875 50.394438 
L 221.2875 50.394438 
L 231.2875 50.394438 
" style="fill: none; stroke: #0000ff; stroke-width: 0.6; stroke-linecap: square"/>
    </g>
    <g id="text_15">
     <!-- Training Loss -->
     <g transform="translate(239.2875 53.894438) scale(0.1 -0.1)">
      <defs>
       <path id="DejaVuSans-54" d="M -19 4666 
L 3928 4666 
L 3928 4134 
L 2272 4134 
L 2272 0 
L 1638 0 
L 1638 4134 
L -19 4134 
L -19 4666 
z
" transform="scale(0.015625)"/>
       <path id="DejaVuSans-67" d="M 2906 1791 
Q 2906 2416 2648 2759 
Q 2391 3103 1925 3103 
Q 1463 3103 1205 2759 
Q 947 2416 947 1791 
Q 947 1169 1205 825 
Q 1463 481 1925 481 
Q 2391 481 2648 825 
Q 2906 1169 2906 1791 
z
M 3481 434 
Q 3481 -459 3084 -895 
Q 2688 -1331 1869 -1331 
Q 1566 -1331 1297 -1286 
Q 1028 -1241 775 -1147 
L 775 -588 
Q 1028 -725 1275 -790 
Q 1522 -856 1778 -856 
Q 2344 -856 2625 -561 
Q 2906 -266 2906 331 
L 2906 616 
Q 2728 306 2450 153 
Q 2172 0 1784 0 
Q 1141 0 747 490 
Q 353 981 353 1791 
Q 353 2603 747 3093 
Q 1141 3584 1784 3584 
Q 2172 3584 2450 3431 
Q 2728 3278 2906 2969 
L 2906 3500 
L 3481 3500 
L 3481 434 
z
" transform="scale(0.015625)"/>
      </defs>
      <use xlink:href="#DejaVuSans-54"/>
      <use xlink:href="#DejaVuSans-72" x="46.333984"/>
      <use xlink:href="#DejaVuSans-61" x="87.447266"/>
      <use xlink:href="#DejaVuSans-69" x="148.726562"/>
      <use xlink:href="#DejaVuSans-6e" x="176.509766"/>
      <use xlink:href="#DejaVuSans-69" x="239.888672"/>
      <use xlink:href="#DejaVuSans-6e" x="267.671875"/>
      <use xlink:href="#DejaVuSans-67" x="331.050781"/>
      <use xlink:href="#DejaVuSans-20" x="394.527344"/>
      <use xlink:href="#DejaVuSans-4c" x="426.314453"/>
      <use xlink:href="#DejaVuSans-6f" x="480.277344"/>
      <use xlink:href="#DejaVuSans-73" x="541.458984"/>
      <use xlink:href="#DejaVuSans-73" x="593.558594"/>
     </g>
    </g>
    <g id="line2d_26">
     <path d="M 211.2875 65.072563 
L 221.2875 65.072563 
L 231.2875 65.072563 
" style="fill: none; stroke: #ff0000; stroke-width: 0.6; stroke-linecap: square"/>
    </g>
    <g id="text_16">
     <!-- Validation Loss -->
     <g transform="translate(239.2875 68.572563) scale(0.1 -0.1)">
      <defs>
       <path id="DejaVuSans-56" d="M 1831 0 
L 50 4666 
L 709 4666 
L 2188 738 
L 3669 4666 
L 4325 4666 
L 2547 0 
L 1831 0 
z
" transform="scale(0.015625)"/>
      </defs>
      <use xlink:href="#DejaVuSans-56"/>
      <use xlink:href="#DejaVuSans-61" x="60.658203"/>
      <use xlink:href="#DejaVuSans-6c" x="121.9375"/>
      <use xlink:href="#DejaVuSans-69" x="149.720703"/>
      <use xlink:href="#DejaVuSans-64" x="177.503906"/>
      <use xlink:href="#DejaVuSans-61" x="240.980469"/>
      <use xlink:href="#DejaVuSans-74" x="302.259766"/>
      <use xlink:href="#DejaVuSans-69" x="341.46875"/>
      <use xlink:href="#DejaVuSans-6f" x="369.251953"/>
      <use xlink:href="#DejaVuSans-6e" x="430.433594"/>
      <use xlink:href="#DejaVuSans-20" x="493.8125"/>
      <use xlink:href="#DejaVuSans-4c" x="525.599609"/>
      <use xlink:href="#DejaVuSans-6f" x="579.5625"/>
      <use xlink:href="#DejaVuSans-73" x="640.744141"/>
      <use xlink:href="#DejaVuSans-73" x="692.84375"/>
     </g>
    </g>
   </g>
  </g>
  <g id="text_17">
   <!-- Training VS. Validation Loss - Dataset Size = 100.0% -->
   <g transform="translate(34.481016 15.558281) scale(0.11 -0.11)">
    <defs>
     <path id="DejaVuSans-53" d="M 3425 4513 
L 3425 3897 
Q 3066 4069 2747 4153 
Q 2428 4238 2131 4238 
Q 1616 4238 1336 4038 
Q 1056 3838 1056 3469 
Q 1056 3159 1242 3001 
Q 1428 2844 1947 2747 
L 2328 2669 
Q 3034 2534 3370 2195 
Q 3706 1856 3706 1288 
Q 3706 609 3251 259 
Q 2797 -91 1919 -91 
Q 1588 -91 1214 -16 
Q 841 59 441 206 
L 441 856 
Q 825 641 1194 531 
Q 1563 422 1919 422 
Q 2459 422 2753 634 
Q 3047 847 3047 1241 
Q 3047 1584 2836 1778 
Q 2625 1972 2144 2069 
L 1759 2144 
Q 1053 2284 737 2584 
Q 422 2884 422 3419 
Q 422 4038 858 4394 
Q 1294 4750 2059 4750 
Q 2388 4750 2728 4690 
Q 3069 4631 3425 4513 
z
" transform="scale(0.015625)"/>
     <path id="DejaVuSans-2d" d="M 313 2009 
L 1997 2009 
L 1997 1497 
L 313 1497 
L 313 2009 
z
" transform="scale(0.015625)"/>
     <path id="DejaVuSans-44" d="M 1259 4147 
L 1259 519 
L 2022 519 
Q 2988 519 3436 956 
Q 3884 1394 3884 2338 
Q 3884 3275 3436 3711 
Q 2988 4147 2022 4147 
L 1259 4147 
z
M 628 4666 
L 1925 4666 
Q 3281 4666 3915 4102 
Q 4550 3538 4550 2338 
Q 4550 1131 3912 565 
Q 3275 0 1925 0 
L 628 0 
L 628 4666 
z
" transform="scale(0.015625)"/>
     <path id="DejaVuSans-7a" d="M 353 3500 
L 3084 3500 
L 3084 2975 
L 922 459 
L 3084 459 
L 3084 0 
L 275 0 
L 275 525 
L 2438 3041 
L 353 3041 
L 353 3500 
z
" transform="scale(0.015625)"/>
     <path id="DejaVuSans-3d" d="M 678 2906 
L 4684 2906 
L 4684 2381 
L 678 2381 
L 678 2906 
z
M 678 1631 
L 4684 1631 
L 4684 1100 
L 678 1100 
L 678 1631 
z
" transform="scale(0.015625)"/>
     <path id="DejaVuSans-25" d="M 4653 2053 
Q 4381 2053 4226 1822 
Q 4072 1591 4072 1178 
Q 4072 772 4226 539 
Q 4381 306 4653 306 
Q 4919 306 5073 539 
Q 5228 772 5228 1178 
Q 5228 1588 5073 1820 
Q 4919 2053 4653 2053 
z
M 4653 2450 
Q 5147 2450 5437 2106 
Q 5728 1763 5728 1178 
Q 5728 594 5436 251 
Q 5144 -91 4653 -91 
Q 4153 -91 3862 251 
Q 3572 594 3572 1178 
Q 3572 1766 3864 2108 
Q 4156 2450 4653 2450 
z
M 1428 4353 
Q 1159 4353 1004 4120 
Q 850 3888 850 3481 
Q 850 3069 1003 2837 
Q 1156 2606 1428 2606 
Q 1700 2606 1854 2837 
Q 2009 3069 2009 3481 
Q 2009 3884 1853 4118 
Q 1697 4353 1428 4353 
z
M 4250 4750 
L 4750 4750 
L 1831 -91 
L 1331 -91 
L 4250 4750 
z
M 1428 4750 
Q 1922 4750 2215 4408 
Q 2509 4066 2509 3481 
Q 2509 2891 2217 2550 
Q 1925 2209 1428 2209 
Q 931 2209 642 2551 
Q 353 2894 353 3481 
Q 353 4063 643 4406 
Q 934 4750 1428 4750 
z
" transform="scale(0.015625)"/>
    </defs>
    <use xlink:href="#DejaVuSans-54"/>
    <use xlink:href="#DejaVuSans-72" x="46.333984"/>
    <use xlink:href="#DejaVuSans-61" x="87.447266"/>
    <use xlink:href="#DejaVuSans-69" x="148.726562"/>
    <use xlink:href="#DejaVuSans-6e" x="176.509766"/>
    <use xlink:href="#DejaVuSans-69" x="239.888672"/>
    <use xlink:href="#DejaVuSans-6e" x="267.671875"/>
    <use xlink:href="#DejaVuSans-67" x="331.050781"/>
    <use xlink:href="#DejaVuSans-20" x="394.527344"/>
    <use xlink:href="#DejaVuSans-56" x="426.314453"/>
    <use xlink:href="#DejaVuSans-53" x="494.722656"/>
    <use xlink:href="#DejaVuSans-2e" x="558.199219"/>
    <use xlink:href="#DejaVuSans-20" x="589.986328"/>
    <use xlink:href="#DejaVuSans-56" x="621.773438"/>
    <use xlink:href="#DejaVuSans-61" x="682.431641"/>
    <use xlink:href="#DejaVuSans-6c" x="743.710938"/>
    <use xlink:href="#DejaVuSans-69" x="771.494141"/>
    <use xlink:href="#DejaVuSans-64" x="799.277344"/>
    <use xlink:href="#DejaVuSans-61" x="862.753906"/>
    <use xlink:href="#DejaVuSans-74" x="924.033203"/>
    <use xlink:href="#DejaVuSans-69" x="963.242188"/>
    <use xlink:href="#DejaVuSans-6f" x="991.025391"/>
    <use xlink:href="#DejaVuSans-6e" x="1052.207031"/>
    <use xlink:href="#DejaVuSans-20" x="1115.585938"/>
    <use xlink:href="#DejaVuSans-4c" x="1147.373047"/>
    <use xlink:href="#DejaVuSans-6f" x="1201.335938"/>
    <use xlink:href="#DejaVuSans-73" x="1262.517578"/>
    <use xlink:href="#DejaVuSans-73" x="1314.617188"/>
    <use xlink:href="#DejaVuSans-20" x="1366.716797"/>
    <use xlink:href="#DejaVuSans-2d" x="1398.503906"/>
    <use xlink:href="#DejaVuSans-20" x="1434.587891"/>
    <use xlink:href="#DejaVuSans-44" x="1466.375"/>
    <use xlink:href="#DejaVuSans-61" x="1543.376953"/>
    <use xlink:href="#DejaVuSans-74" x="1604.65625"/>
    <use xlink:href="#DejaVuSans-61" x="1643.865234"/>
    <use xlink:href="#DejaVuSans-73" x="1705.144531"/>
    <use xlink:href="#DejaVuSans-65" x="1757.244141"/>
    <use xlink:href="#DejaVuSans-74" x="1818.767578"/>
    <use xlink:href="#DejaVuSans-20" x="1857.976562"/>
    <use xlink:href="#DejaVuSans-53" x="1889.763672"/>
    <use xlink:href="#DejaVuSans-69" x="1953.240234"/>
    <use xlink:href="#DejaVuSans-7a" x="1981.023438"/>
    <use xlink:href="#DejaVuSans-65" x="2033.513672"/>
    <use xlink:href="#DejaVuSans-20" x="2095.037109"/>
    <use xlink:href="#DejaVuSans-3d" x="2126.824219"/>
    <use xlink:href="#DejaVuSans-20" x="2210.613281"/>
    <use xlink:href="#DejaVuSans-31" x="2242.400391"/>
    <use xlink:href="#DejaVuSans-30" x="2306.023438"/>
    <use xlink:href="#DejaVuSans-30" x="2369.646484"/>
    <use xlink:href="#DejaVuSans-2e" x="2433.269531"/>
    <use xlink:href="#DejaVuSans-30" x="2465.056641"/>
    <use xlink:href="#DejaVuSans-25" x="2528.679688"/>
   </g>
  </g>
 </g>
 <defs>
  <clipPath id="p193ad67151">
   <rect x="43.78125" y="37.296" width="279" height="202.464"/>
  </clipPath>
 </defs>
</svg>
