<?xml version="1.0" encoding="utf-8" standalone="no"?>
<!DOCTYPE svg PUBLIC "-//W3C//DTD SVG 1.1//EN"
  "http://www.w3.org/Graphics/SVG/1.1/DTD/svg11.dtd">
<svg xmlns:xlink="http://www.w3.org/1999/xlink" width="330.281484pt" height="277.31625pt" viewBox="0 0 330.281484 277.31625" xmlns="http://www.w3.org/2000/svg" version="1.1">
 <metadata>
  <rdf:RDF xmlns:dc="http://purl.org/dc/elements/1.1/" xmlns:cc="http://creativecommons.org/ns#" xmlns:rdf="http://www.w3.org/1999/02/22-rdf-syntax-ns#">
   <cc:Work>
    <dc:type rdf:resource="http://purl.org/dc/dcmitype/StillImage"/>
    <dc:date>2026-06-10T19:14:41.896359</dc:date>
    <dc:format>image/svg+xml</dc:format>
    <dc:creator>
     <cc:Agent>
      <dc:title>Matplotlib v3.8.4, https://matplotlib.org/</dc:title>
     </cc:Agent>
    </dc:creator>
   </cc:Work>
  </rdf:RDF>
 </metadata>
 <defs>
  <style type="text/css">*{stroke-linejoin: round; stroke-linecap: butt}</style>
 </defs>
 <g id="figure_1">
  <g id="patch_1">
   <path d="M 0 277.31625 
L 330.281484 277.31625 
L 330.281484 0 
L 0 0 
z
" style="fill: #ffffff"/>
  </g>
  <g id="axes_1">
   <g id="patch_2">
    <path d="M 43.78125 239.76 
L 322.78125 239.76 
L 322.78125 37.296 
L 43.78125 37.296 
z
" style="fill: #ffffff"/>
   </g>
   <g id="matplotlib.axis_1">
    <g id="xtick_1">
     <g id="line2d_1">
      <path d="M 56.209178 239.76 
L 56.209178 37.296 
" clip-path="url(#pb501672066)" style="fill: none; stroke-dasharray: 2.96,1.28; stroke-dashoffset: 0; stroke: #b0b0b0; stroke-opacity: 0.4; stroke-width: 0.8"/>
     </g>
     <g id="line2d_2">
      <defs>
       <path id="m1053a8f11f" d="M 0 0 
L 0 3.5 
" style="stroke: #000000; stroke-width: 0.8"/>
      </defs>
      <g>
       <use xlink:href="#m1053a8f11f" x="56.209178" y="239.76" style="stroke: #000000; stroke-width: 0.8"/>
      </g>
     </g>
     <g id="text_1">
      <!-- 0 -->
      <g transform="translate(53.027928 254.358437) scale(0.1 -0.1)">
       <defs>
        <path id="DejaVuSans-30" d="M 2034 4250 
Q 1547 4250 1301 3770 
Q 1056 3291 1056 2328 
Q 1056 1369 1301 889 
Q 1547 409 2034 409 
Q 2525 409 2770 889 
Q 3016 1369 3016 2328 
Q 3016 3291 2770 3770 
Q 2525 4250 2034 4250 
z
M 2034 4750 
Q 2819 4750 3233 4129 
Q 3647 3509 3647 2328 
Q 3647 1150 3233 529 
Q 2819 -91 2034 -91 
Q 1250 -91 836 529 
Q 422 1150 422 2328 
Q 422 3509 836 4129 
Q 1250 4750 2034 4750 
z
" transform="scale(0.015625)"/>
       </defs>
       <use xlink:href="#DejaVuSans-30"/>
      </g>
     </g>
    </g>
    <g id="xtick_2">
     <g id="line2d_3">
      <path d="M 106.987229 239.76 
L 106.987229 37.296 
" clip-path="url(#pb501672066)" style="fill: none; stroke-dasharray: 2.96,1.28; stroke-dashoffset: 0; stroke: #b0b0b0; stroke-opacity: 0.4; stroke-width: 0.8"/>
     </g>
     <g id="line2d_4">
      <g>
       <use xlink:href="#m1053a8f11f" x="106.987229" y="239.76" style="stroke: #000000; stroke-width: 0.8"/>
      </g>
     </g>
     <g id="text_2">
      <!-- 200 -->
      <g transform="translate(97.443479 254.358437) scale(0.1 -0.1)">
       <defs>
        <path id="DejaVuSans-32" d="M 1228 531 
L 3431 531 
L 3431 0 
L 469 0 
L 469 531 
Q 828 903 1448 1529 
Q 2069 2156 2228 2338 
Q 2531 2678 2651 2914 
Q 2772 3150 2772 3378 
Q 2772 3750 2511 3984 
Q 2250 4219 1831 4219 
Q 1534 4219 1204 4116 
Q 875 4013 500 3803 
L 500 4441 
Q 881 4594 1212 4672 
Q 1544 4750 1819 4750 
Q 2544 4750 2975 4387 
Q 3406 4025 3406 3419 
Q 3406 3131 3298 2873 
Q 3191 2616 2906 2266 
Q 2828 2175 2409 1742 
Q 1991 1309 1228 531 
z
" transform="scale(0.015625)"/>
       </defs>
       <use xlink:href="#DejaVuSans-32"/>
       <use xlink:href="#DejaVuSans-30" x="63.623047"/>
       <use xlink:href="#DejaVuSans-30" x="127.246094"/>
      </g>
     </g>
    </g>
    <g id="xtick_3">
     <g id="line2d_5">
      <path d="M 157.765279 239.76 
L 157.765279 37.296 
" clip-path="url(#pb501672066)" style="fill: none; stroke-dasharray: 2.96,1.28; stroke-dashoffset: 0; stroke: #b0b0b0; stroke-opacity: 0.4; stroke-width: 0.8"/>
     </g>
     <g id="line2d_6">
      <g>
       <use xlink:href="#m1053a8f11f" x="157.765279" y="239.76" style="stroke: #000000; stroke-width: 0.8"/>
      </g>
     </g>
     <g id="text_3">
      <!-- 400 -->
      <g transform="translate(148.221529 254.358437) scale(0.1 -0.1)">
       <defs>
        <path id="DejaVuSans-34" d="M 2419 4116 
L 825 1625 
L 2419 1625 
L 2419 4116 
z
M 2253 4666 
L 3047 4666 
L 3047 1625 
L 3713 1625 
L 3713 1100 
L 3047 1100 
L 3047 0 
L 2419 0 
L 2419 1100 
L 313 1100 
L 313 1709 
L 2253 4666 
z
" transform="scale(0.015625)"/>
       </defs>
       <use xlink:href="#DejaVuSans-34"/>
       <use xlink:href="#DejaVuSans-30" x="63.623047"/>
       <use xlink:href="#DejaVuSans-30" x="127.246094"/>
      </g>
     </g>
    </g>
    <g id="xtick_4">
     <g id="line2d_7">
      <path d="M 208.54333 239.76 
L 208.54333 37.296 
" clip-path="url(#pb501672066)" style="fill: none; stroke-dasharray: 2.96,1.28; stroke-dashoffset: 0; stroke: #b0b0b0; stroke-opacity: 0.4; stroke-width: 0.8"/>
     </g>
     <g id="line2d_8">
      <g>
       <use xlink:href="#m1053a8f11f" x="208.54333" y="239.76" style="stroke: #000000; stroke-width: 0.8"/>
      </g>
     </g>
     <g id="text_4">
      <!-- 600 -->
      <g transform="translate(198.99958 254.358437) scale(0.1 -0.1)">
       <defs>
        <path id="DejaVuSans-36" d="M 2113 2584 
Q 1688 2584 1439 2293 
Q 1191 2003 1191 1497 
Q 1191 994 1439 701 
Q 1688 409 2113 409 
Q 2538 409 2786 701 
Q 3034 994 3034 1497 
Q 3034 2003 2786 2293 
Q 2538 2584 2113 2584 
z
M 3366 4563 
L 3366 3988 
Q 3128 4100 2886 4159 
Q 2644 4219 2406 4219 
Q 1781 4219 1451 3797 
Q 1122 3375 1075 2522 
Q 1259 2794 1537 2939 
Q 1816 3084 2150 3084 
Q 2853 3084 3261 2657 
Q 3669 2231 3669 1497 
Q 3669 778 3244 343 
Q 2819 -91 2113 -91 
Q 1303 -91 875 529 
Q 447 1150 447 2328 
Q 447 3434 972 4092 
Q 1497 4750 2381 4750 
Q 2619 4750 2861 4703 
Q 3103 4656 3366 4563 
z
" transform="scale(0.015625)"/>
       </defs>
       <use xlink:href="#DejaVuSans-36"/>
       <use xlink:href="#DejaVuSans-30" x="63.623047"/>
       <use xlink:href="#DejaVuSans-30" x="127.246094"/>
      </g>
     </g>
    </g>
    <g id="xtick_5">
     <g id="line2d_9">
      <path d="M 259.321381 239.76 
L 259.321381 37.296 
" clip-path="url(#pb501672066)" style="fill: none; stroke-dasharray: 2.96,1.28; stroke-dashoffset: 0; stroke: #b0b0b0; stroke-opacity: 0.4; stroke-width: 0.8"/>
     </g>
     <g id="line2d_10">
      <g>
       <use xlink:href="#m1053a8f11f" x="259.321381" y="239.76" style="stroke: #000000; stroke-width: 0.8"/>
      </g>
     </g>
     <g id="text_5">
      <!-- 800 -->
      <g transform="translate(249.777631 254.358437) scale(0.1 -0.1)">
       <defs>
        <path id="DejaVuSans-38" d="M 2034 2216 
Q 1584 2216 1326 1975 
Q 1069 1734 1069 1313 
Q 1069 891 1326 650 
Q 1584 409 2034 409 
Q 2484 409 2743 651 
Q 3003 894 3003 1313 
Q 3003 1734 2745 1975 
Q 2488 2216 2034 2216 
z
M 1403 2484 
Q 997 2584 770 2862 
Q 544 3141 544 3541 
Q 544 4100 942 4425 
Q 1341 4750 2034 4750 
Q 2731 4750 3128 4425 
Q 3525 4100 3525 3541 
Q 3525 3141 3298 2862 
Q 3072 2584 2669 2484 
Q 3125 2378 3379 2068 
Q 3634 1759 3634 1313 
Q 3634 634 3220 271 
Q 2806 -91 2034 -91 
Q 1263 -91 848 271 
Q 434 634 434 1313 
Q 434 1759 690 2068 
Q 947 2378 1403 2484 
z
M 1172 3481 
Q 1172 3119 1398 2916 
Q 1625 2713 2034 2713 
Q 2441 2713 2670 2916 
Q 2900 3119 2900 3481 
Q 2900 3844 2670 4047 
Q 2441 4250 2034 4250 
Q 1625 4250 1398 4047 
Q 1172 3844 1172 3481 
z
" transform="scale(0.015625)"/>
       </defs>
       <use xlink:href="#DejaVuSans-38"/>
       <use xlink:href="#DejaVuSans-30" x="63.623047"/>
       <use xlink:href="#DejaVuSans-30" x="127.246094"/>
      </g>
     </g>
    </g>
    <g id="xtick_6">
     <g id="line2d_11">
      <path d="M 310.099432 239.76 
L 310.099432 37.296 
" clip-path="url(#pb501672066)" style="fill: none; stroke-dasharray: 2.96,1.28; stroke-dashoffset: 0; stroke: #b0b0b0; stroke-opacity: 0.4; stroke-width: 0.8"/>
     </g>
     <g id="line2d_12">
      <g>
       <use xlink:href="#m1053a8f11f" x="310.099432" y="239.76" style="stroke: #000000; stroke-width: 0.8"/>
      </g>
     </g>
     <g id="text_6">
      <!-- 1000 -->
      <g transform="translate(297.374432 254.358437) scale(0.1 -0.1)">
       <defs>
        <path id="DejaVuSans-31" d="M 794 531 
L 1825 531 
L 1825 4091 
L 703 3866 
L 703 4441 
L 1819 4666 
L 2450 4666 
L 2450 531 
L 3481 531 
L 3481 0 
L 794 0 
L 794 531 
z
" transform="scale(0.015625)"/>
       </defs>
       <use xlink:href="#DejaVuSans-31"/>
       <use xlink:href="#DejaVuSans-30" x="63.623047"/>
       <use xlink:href="#DejaVuSans-30" x="127.246094"/>
       <use xlink:href="#DejaVuSans-30" x="190.869141"/>
      </g>
     </g>
    </g>
    <g id="text_7">
     <!-- Epochs -->
     <g transform="translate(165.365625 268.036562) scale(0.1 -0.1)">
      <defs>
       <path id="DejaVuSans-45" d="M 628 4666 
L 3578 4666 
L 3578 4134 
L 1259 4134 
L 1259 2753 
L 3481 2753 
L 3481 2222 
L 1259 2222 
L 1259 531 
L 3634 531 
L 3634 0 
L 628 0 
L 628 4666 
z
" transform="scale(0.015625)"/>
       <path id="DejaVuSans-70" d="M 1159 525 
L 1159 -1331 
L 581 -1331 
L 581 3500 
L 1159 3500 
L 1159 2969 
Q 1341 3281 1617 3432 
Q 1894 3584 2278 3584 
Q 2916 3584 3314 3078 
Q 3713 2572 3713 1747 
Q 3713 922 3314 415 
Q 2916 -91 2278 -91 
Q 1894 -91 1617 61 
Q 1341 213 1159 525 
z
M 3116 1747 
Q 3116 2381 2855 2742 
Q 2594 3103 2138 3103 
Q 1681 3103 1420 2742 
Q 1159 2381 1159 1747 
Q 1159 1113 1420 752 
Q 1681 391 2138 391 
Q 2594 391 2855 752 
Q 3116 1113 3116 1747 
z
" transform="scale(0.015625)"/>
       <path id="DejaVuSans-6f" d="M 1959 3097 
Q 1497 3097 1228 2736 
Q 959 2375 959 1747 
Q 959 1119 1226 758 
Q 1494 397 1959 397 
Q 2419 397 2687 759 
Q 2956 1122 2956 1747 
Q 2956 2369 2687 2733 
Q 2419 3097 1959 3097 
z
M 1959 3584 
Q 2709 3584 3137 3096 
Q 3566 2609 3566 1747 
Q 3566 888 3137 398 
Q 2709 -91 1959 -91 
Q 1206 -91 779 398 
Q 353 888 353 1747 
Q 353 2609 779 3096 
Q 1206 3584 1959 3584 
z
" transform="scale(0.015625)"/>
       <path id="DejaVuSans-63" d="M 3122 3366 
L 3122 2828 
Q 2878 2963 2633 3030 
Q 2388 3097 2138 3097 
Q 1578 3097 1268 2742 
Q 959 2388 959 1747 
Q 959 1106 1268 751 
Q 1578 397 2138 397 
Q 2388 397 2633 464 
Q 2878 531 3122 666 
L 3122 134 
Q 2881 22 2623 -34 
Q 2366 -91 2075 -91 
Q 1284 -91 818 406 
Q 353 903 353 1747 
Q 353 2603 823 3093 
Q 1294 3584 2113 3584 
Q 2378 3584 2631 3529 
Q 2884 3475 3122 3366 
z
" transform="scale(0.015625)"/>
       <path id="DejaVuSans-68" d="M 3513 2113 
L 3513 0 
L 2938 0 
L 2938 2094 
Q 2938 2591 2744 2837 
Q 2550 3084 2163 3084 
Q 1697 3084 1428 2787 
Q 1159 2491 1159 1978 
L 1159 0 
L 581 0 
L 581 4863 
L 1159 4863 
L 1159 2956 
Q 1366 3272 1645 3428 
Q 1925 3584 2291 3584 
Q 2894 3584 3203 3211 
Q 3513 2838 3513 2113 
z
" transform="scale(0.015625)"/>
       <path id="DejaVuSans-73" d="M 2834 3397 
L 2834 2853 
Q 2591 2978 2328 3040 
Q 2066 3103 1784 3103 
Q 1356 3103 1142 2972 
Q 928 2841 928 2578 
Q 928 2378 1081 2264 
Q 1234 2150 1697 2047 
L 1894 2003 
Q 2506 1872 2764 1633 
Q 3022 1394 3022 966 
Q 3022 478 2636 193 
Q 2250 -91 1575 -91 
Q 1294 -91 989 -36 
Q 684 19 347 128 
L 347 722 
Q 666 556 975 473 
Q 1284 391 1588 391 
Q 1994 391 2212 530 
Q 2431 669 2431 922 
Q 2431 1156 2273 1281 
Q 2116 1406 1581 1522 
L 1381 1569 
Q 847 1681 609 1914 
Q 372 2147 372 2553 
Q 372 3047 722 3315 
Q 1072 3584 1716 3584 
Q 2034 3584 2315 3537 
Q 2597 3491 2834 3397 
z
" transform="scale(0.015625)"/>
      </defs>
      <use xlink:href="#DejaVuSans-45"/>
      <use xlink:href="#DejaVuSans-70" x="63.183594"/>
      <use xlink:href="#DejaVuSans-6f" x="126.660156"/>
      <use xlink:href="#DejaVuSans-63" x="187.841797"/>
      <use xlink:href="#DejaVuSans-68" x="242.822266"/>
      <use xlink:href="#DejaVuSans-73" x="306.201172"/>
     </g>
    </g>
   </g>
   <g id="matplotlib.axis_2">
    <g id="ytick_1">
     <g id="line2d_13">
      <path d="M 43.78125 230.954689 
L 322.78125 230.954689 
" clip-path="url(#pb501672066)" style="fill: none; stroke-dasharray: 2.96,1.28; stroke-dashoffset: 0; stroke: #b0b0b0; stroke-opacity: 0.4; stroke-width: 0.8"/>
     </g>
     <g id="line2d_14">
      <defs>
       <path id="m68cac95e31" d="M 0 0 
L -3.5 0 
" style="stroke: #000000; stroke-width: 0.8"/>
      </defs>
      <g>
       <use xlink:href="#m68cac95e31" x="43.78125" y="230.954689" style="stroke: #000000; stroke-width: 0.8"/>
      </g>
     </g>
     <g id="text_8">
      <!-- 0.2 -->
      <g transform="translate(20.878125 234.753907) scale(0.1 -0.1)">
       <defs>
        <path id="DejaVuSans-2e" d="M 684 794 
L 1344 794 
L 1344 0 
L 684 0 
L 684 794 
z
" transform="scale(0.015625)"/>
       </defs>
       <use xlink:href="#DejaVuSans-30"/>
       <use xlink:href="#DejaVuSans-2e" x="63.623047"/>
       <use xlink:href="#DejaVuSans-32" x="95.410156"/>
      </g>
     </g>
    </g>
    <g id="ytick_2">
     <g id="line2d_15">
      <path d="M 43.78125 193.590338 
L 322.78125 193.590338 
" clip-path="url(#pb501672066)" style="fill: none; stroke-dasharray: 2.96,1.28; stroke-dashoffset: 0; stroke: #b0b0b0; stroke-opacity: 0.4; stroke-width: 0.8"/>
     </g>
     <g id="line2d_16">
      <g>
       <use xlink:href="#m68cac95e31" x="43.78125" y="193.590338" style="stroke: #000000; stroke-width: 0.8"/>
      </g>
     </g>
     <g id="text_9">
      <!-- 0.3 -->
      <g transform="translate(20.878125 197.389557) scale(0.1 -0.1)">
       <defs>
        <path id="DejaVuSans-33" d="M 2597 2516 
Q 3050 2419 3304 2112 
Q 3559 1806 3559 1356 
Q 3559 666 3084 287 
Q 2609 -91 1734 -91 
Q 1441 -91 1130 -33 
Q 819 25 488 141 
L 488 750 
Q 750 597 1062 519 
Q 1375 441 1716 441 
Q 2309 441 2620 675 
Q 2931 909 2931 1356 
Q 2931 1769 2642 2001 
Q 2353 2234 1838 2234 
L 1294 2234 
L 1294 2753 
L 1863 2753 
Q 2328 2753 2575 2939 
Q 2822 3125 2822 3475 
Q 2822 3834 2567 4026 
Q 2313 4219 1838 4219 
Q 1578 4219 1281 4162 
Q 984 4106 628 3988 
L 628 4550 
Q 988 4650 1302 4700 
Q 1616 4750 1894 4750 
Q 2613 4750 3031 4423 
Q 3450 4097 3450 3541 
Q 3450 3153 3228 2886 
Q 3006 2619 2597 2516 
z
" transform="scale(0.015625)"/>
       </defs>
       <use xlink:href="#DejaVuSans-30"/>
       <use xlink:href="#DejaVuSans-2e" x="63.623047"/>
       <use xlink:href="#DejaVuSans-33" x="95.410156"/>
      </g>
     </g>
    </g>
    <g id="ytick_3">
     <g id="line2d_17">
      <path d="M 43.78125 156.225987 
L 322.78125 156.225987 
" clip-path="url(#pb501672066)" style="fill: none; stroke-dasharray: 2.96,1.28; stroke-dashoffset: 0; stroke: #b0b0b0; stroke-opacity: 0.4; stroke-width: 0.8"/>
     </g>
     <g id="line2d_18">
      <g>
       <use xlink:href="#m68cac95e31" x="43.78125" y="156.225987" style="stroke: #000000; stroke-width: 0.8"/>
      </g>
     </g>
     <g id="text_10">
      <!-- 0.4 -->
      <g transform="translate(20.878125 160.025206) scale(0.1 -0.1)">
       <use xlink:href="#DejaVuSans-30"/>
       <use xlink:href="#DejaVuSans-2e" x="63.623047"/>
       <use xlink:href="#DejaVuSans-34" x="95.410156"/>
      </g>
     </g>
    </g>
    <g id="ytick_4">
     <g id="line2d_19">
      <path d="M 43.78125 118.861636 
L 322.78125 118.861636 
" clip-path="url(#pb501672066)" style="fill: none; stroke-dasharray: 2.96,1.28; stroke-dashoffset: 0; stroke: #b0b0b0; stroke-opacity: 0.4; stroke-width: 0.8"/>
     </g>
     <g id="line2d_20">
      <g>
       <use xlink:href="#m68cac95e31" x="43.78125" y="118.861636" style="stroke: #000000; stroke-width: 0.8"/>
      </g>
     </g>
     <g id="text_11">
      <!-- 0.5 -->
      <g transform="translate(20.878125 122.660855) scale(0.1 -0.1)">
       <defs>
        <path id="DejaVuSans-35" d="M 691 4666 
L 3169 4666 
L 3169 4134 
L 1269 4134 
L 1269 2991 
Q 1406 3038 1543 3061 
Q 1681 3084 1819 3084 
Q 2600 3084 3056 2656 
Q 3513 2228 3513 1497 
Q 3513 744 3044 326 
Q 2575 -91 1722 -91 
Q 1428 -91 1123 -41 
Q 819 9 494 109 
L 494 744 
Q 775 591 1075 516 
Q 1375 441 1709 441 
Q 2250 441 2565 725 
Q 2881 1009 2881 1497 
Q 2881 1984 2565 2268 
Q 2250 2553 1709 2553 
Q 1456 2553 1204 2497 
Q 953 2441 691 2322 
L 691 4666 
z
" transform="scale(0.015625)"/>
       </defs>
       <use xlink:href="#DejaVuSans-30"/>
       <use xlink:href="#DejaVuSans-2e" x="63.623047"/>
       <use xlink:href="#DejaVuSans-35" x="95.410156"/>
      </g>
     </g>
    </g>
    <g id="ytick_5">
     <g id="line2d_21">
      <path d="M 43.78125 81.497285 
L 322.78125 81.497285 
" clip-path="url(#pb501672066)" style="fill: none; stroke-dasharray: 2.96,1.28; stroke-dashoffset: 0; stroke: #b0b0b0; stroke-opacity: 0.4; stroke-width: 0.8"/>
     </g>
     <g id="line2d_22">
      <g>
       <use xlink:href="#m68cac95e31" x="43.78125" y="81.497285" style="stroke: #000000; stroke-width: 0.8"/>
      </g>
     </g>
     <g id="text_12">
      <!-- 0.6 -->
      <g transform="translate(20.878125 85.296504) scale(0.1 -0.1)">
       <use xlink:href="#DejaVuSans-30"/>
       <use xlink:href="#DejaVuSans-2e" x="63.623047"/>
       <use xlink:href="#DejaVuSans-36" x="95.410156"/>
      </g>
     </g>
    </g>
    <g id="ytick_6">
     <g id="line2d_23">
      <path d="M 43.78125 44.132935 
L 322.78125 44.132935 
" clip-path="url(#pb501672066)" style="fill: none; stroke-dasharray: 2.96,1.28; stroke-dashoffset: 0; stroke: #b0b0b0; stroke-opacity: 0.4; stroke-width: 0.8"/>
     </g>
     <g id="line2d_24">
      <g>
       <use xlink:href="#m68cac95e31" x="43.78125" y="44.132935" style="stroke: #000000; stroke-width: 0.8"/>
      </g>
     </g>
     <g id="text_13">
      <!-- 0.7 -->
      <g transform="translate(20.878125 47.932153) scale(0.1 -0.1)">
       <defs>
        <path id="DejaVuSans-37" d="M 525 4666 
L 3525 4666 
L 3525 4397 
L 1831 0 
L 1172 0 
L 2766 4134 
L 525 4134 
L 525 4666 
z
" transform="scale(0.015625)"/>
       </defs>
       <use xlink:href="#DejaVuSans-30"/>
       <use xlink:href="#DejaVuSans-2e" x="63.623047"/>
       <use xlink:href="#DejaVuSans-37" x="95.410156"/>
      </g>
     </g>
    </g>
    <g id="text_14">
     <!-- Loss -->
     <g transform="translate(14.798438 149.495187) rotate(-90) scale(0.1 -0.1)">
      <defs>
       <path id="DejaVuSans-4c" d="M 628 4666 
L 1259 4666 
L 1259 531 
L 3531 531 
L 3531 0 
L 628 0 
L 628 4666 
z
" transform="scale(0.015625)"/>
      </defs>
      <use xlink:href="#DejaVuSans-4c"/>
      <use xlink:href="#DejaVuSans-6f" x="53.962891"/>
      <use xlink:href="#DejaVuSans-73" x="115.144531"/>
      <use xlink:href="#DejaVuSans-73" x="167.244141"/>
     </g>
    </g>
   </g>
   <g id="line2d_25">
    <path d="M 56.463068 46.595208 
L 60.017532 46.648814 
L 60.271422 46.776738 
L 60.779202 46.687432 
L 61.286983 46.795001 
L 61.794764 46.869875 
L 62.302544 46.726005 
L 62.556434 46.78803 
L 63.318105 46.563896 
L 63.825886 47.120824 
L 64.079776 46.857849 
L 64.333666 47.056995 
L 65.349227 47.057307 
L 65.857008 47.686794 
L 66.364788 48.209803 
L 66.618678 49.009306 
L 66.872569 49.142508 
L 67.126459 50.163673 
L 67.380349 51.670054 
L 67.88813 58.212038 
L 68.14202 62.332486 
L 68.903691 78.484916 
L 69.411471 87.694574 
L 69.665361 76.488821 
L 69.919252 85.812194 
L 70.173142 81.924922 
L 70.680922 103.293283 
L 70.934813 107.113809 
L 71.188703 102.778335 
L 71.442593 115.374772 
L 71.950374 120.432636 
L 72.204264 126.247543 
L 72.458154 117.425253 
L 72.965935 131.099022 
L 73.219825 134.312923 
L 73.473715 135.517054 
L 73.727605 137.49864 
L 73.981496 132.509125 
L 74.235386 140.581253 
L 74.489276 140.78795 
L 74.743166 139.63022 
L 74.997057 146.169944 
L 75.250947 146.791201 
L 75.504837 140.206791 
L 75.758727 148.480448 
L 76.012618 140.218683 
L 76.266508 149.882156 
L 76.520398 150.452324 
L 77.028179 147.84398 
L 77.282069 151.698647 
L 77.535959 149.980058 
L 77.78985 155.488284 
L 78.04374 151.76752 
L 78.29763 154.032625 
L 78.55152 151.785971 
L 78.805411 148.216883 
L 79.313191 158.281655 
L 79.567081 157.289976 
L 79.820972 158.730947 
L 80.074862 155.229151 
L 80.328752 154.372123 
L 80.582642 151.939061 
L 80.836533 157.043894 
L 81.344313 161.264406 
L 81.598203 157.538096 
L 81.852094 163.620454 
L 82.105984 160.946066 
L 82.359874 159.840984 
L 82.613764 160.399393 
L 83.121545 165.309423 
L 83.375435 158.265642 
L 83.883216 164.329003 
L 84.137106 166.962836 
L 84.390996 166.212296 
L 84.644886 164.607188 
L 84.898777 165.042952 
L 85.152667 167.613981 
L 85.406557 158.519474 
L 85.660447 168.022774 
L 85.914338 169.222217 
L 86.422118 165.878967 
L 86.676008 168.877754 
L 86.929899 168.899891 
L 87.183789 171.564425 
L 87.437679 166.978548 
L 87.691569 171.536141 
L 87.94546 168.296706 
L 88.19935 168.52299 
L 88.45324 170.205121 
L 88.70713 174.701769 
L 89.214911 168.715221 
L 89.468801 171.601138 
L 89.722691 171.317841 
L 89.976582 174.211208 
L 90.230472 174.895982 
L 90.484362 176.142662 
L 90.738252 172.818999 
L 91.246033 175.258308 
L 91.499923 177.095077 
L 91.753813 175.576046 
L 92.007704 174.950524 
L 92.261594 176.285875 
L 92.515484 178.875501 
L 92.769374 179.803373 
L 93.023265 179.298314 
L 93.277155 177.287464 
L 93.531045 178.325354 
L 93.784936 176.522938 
L 94.038826 180.797868 
L 94.292716 181.550201 
L 94.546606 178.851092 
L 94.800497 178.793432 
L 95.054387 182.186046 
L 95.308277 176.853449 
L 96.069948 183.683518 
L 96.323838 179.49991 
L 96.577728 177.645591 
L 96.831619 182.955349 
L 97.085509 185.848126 
L 97.339399 181.905956 
L 97.84718 181.076867 
L 98.10107 183.479985 
L 98.35496 184.527362 
L 98.60885 184.731642 
L 98.862741 186.912096 
L 99.116631 184.849689 
L 99.370521 186.61469 
L 99.624411 186.094765 
L 99.878302 181.45428 
L 100.132192 186.429474 
L 100.639972 188.689056 
L 100.893863 180.549303 
L 101.147753 185.917511 
L 101.401643 185.860052 
L 101.655533 184.694171 
L 102.163314 186.580438 
L 102.417204 186.213892 
L 102.671094 187.762209 
L 102.924985 179.779276 
L 103.178875 186.311505 
L 103.432765 188.224552 
L 103.686655 187.577283 
L 103.940546 188.867725 
L 104.194436 191.749901 
L 104.448326 188.0224 
L 104.702216 188.926787 
L 104.956107 189.240907 
L 105.209997 188.846701 
L 105.463887 191.557235 
L 105.717777 189.018487 
L 105.971668 191.356519 
L 106.225558 188.95133 
L 106.479448 191.375905 
L 106.733338 192.025625 
L 107.241119 187.305689 
L 107.495009 192.858824 
L 107.748899 192.885215 
L 108.00279 190.897393 
L 108.25668 193.427355 
L 108.51057 193.883975 
L 108.76446 193.522084 
L 109.018351 197.020317 
L 109.272241 187.870434 
L 109.526131 189.642763 
L 109.780021 196.182821 
L 110.033912 194.581889 
L 110.287802 195.386158 
L 110.541692 193.486161 
L 110.795583 192.963942 
L 111.049473 193.412545 
L 111.303363 194.338279 
L 111.557253 192.448382 
L 111.811144 194.828962 
L 112.065034 195.634723 
L 112.572814 197.885853 
L 112.826705 196.020845 
L 113.080595 193.274399 
L 113.334485 199.267094 
L 113.588375 198.027485 
L 113.842266 198.203614 
L 114.096156 197.309215 
L 114.350046 199.808532 
L 114.603936 199.866693 
L 114.857827 197.233795 
L 115.111717 196.235013 
L 115.365607 200.091261 
L 115.873388 194.32544 
L 116.127278 199.769881 
L 116.381168 195.637841 
L 116.635058 199.718836 
L 116.888949 195.345502 
L 117.142839 202.046322 
L 117.396729 196.917036 
L 117.650619 200.704635 
L 117.90451 199.977702 
L 118.1584 202.337102 
L 118.41229 197.019783 
L 118.66618 200.982999 
L 118.920071 194.130859 
L 119.173961 200.305296 
L 119.427851 201.217155 
L 119.681741 199.995374 
L 119.935632 199.416799 
L 120.189522 200.719356 
L 120.443412 200.780913 
L 120.697302 199.281826 
L 120.951193 201.099498 
L 121.205083 201.315448 
L 121.458973 198.915771 
L 121.712863 204.926305 
L 122.220644 200.531579 
L 122.474534 200.593682 
L 122.982315 206.825934 
L 123.236205 210.022998 
L 123.490095 207.716424 
L 123.743985 208.363015 
L 123.997876 210.601183 
L 124.505656 205.821728 
L 124.759546 207.099609 
L 125.013437 205.211005 
L 125.267327 210.383541 
L 125.521217 208.039085 
L 125.775107 209.530655 
L 126.028998 208.395185 
L 126.536778 208.681355 
L 126.790669 209.575642 
L 127.044559 210.981926 
L 127.298449 207.339823 
L 127.552339 210.834627 
L 127.80623 206.505222 
L 128.06012 213.233129 
L 128.31401 208.030455 
L 128.5679 211.786896 
L 128.821791 212.310674 
L 129.075681 208.75937 
L 129.329571 212.622896 
L 129.583461 213.57036 
L 129.837352 209.184153 
L 130.091242 210.281028 
L 130.345132 210.627385 
L 130.599022 212.51859 
L 130.852913 208.696098 
L 131.106803 215.180752 
L 131.360693 211.983203 
L 131.614583 210.866675 
L 131.868474 210.616094 
L 132.122364 210.081303 
L 132.376254 210.513068 
L 132.630144 211.265357 
L 132.884035 210.050858 
L 133.137925 213.046193 
L 133.391815 212.436416 
L 133.645705 213.911857 
L 133.899596 213.897175 
L 134.153486 214.070726 
L 134.407376 212.407881 
L 134.661266 213.543463 
L 134.915157 215.319366 
L 135.169047 214.417467 
L 135.422937 214.595707 
L 135.676827 217.410402 
L 135.930718 216.806237 
L 136.184608 215.44053 
L 136.438498 216.726323 
L 136.692388 213.573501 
L 136.946279 216.492529 
L 137.200169 216.692349 
L 137.454059 213.366676 
L 137.707949 217.232769 
L 137.96184 217.88211 
L 138.21573 216.878534 
L 138.46962 220.061495 
L 138.72351 217.403242 
L 139.231291 217.993565 
L 139.485181 217.609849 
L 139.739071 216.804316 
L 139.992962 219.137515 
L 140.246852 218.352605 
L 140.500742 219.6011 
L 140.754632 217.474085 
L 141.008523 218.036581 
L 141.262413 218.104769 
L 141.516303 218.84066 
L 141.770193 216.303104 
L 142.024084 220.004843 
L 142.277974 218.290881 
L 142.531864 218.292975 
L 142.785755 221.853221 
L 143.039645 216.657445 
L 143.293535 218.426227 
L 143.547425 218.828985 
L 143.801316 221.225923 
L 144.055206 218.24473 
L 144.562986 219.069956 
L 145.070767 218.19682 
L 145.324657 220.112568 
L 145.578547 220.515526 
L 145.832438 217.805871 
L 146.086328 218.393177 
L 146.340218 224.570448 
L 147.101889 216.932084 
L 147.355779 215.057315 
L 147.609669 215.306666 
L 147.86356 222.95244 
L 148.11745 221.115364 
L 148.37134 222.491416 
L 148.62523 222.012976 
L 148.879121 217.688693 
L 149.133011 220.683131 
L 149.386901 221.774388 
L 149.640791 220.636195 
L 149.894682 224.909177 
L 150.148572 223.387429 
L 150.402462 222.870166 
L 150.656352 219.866079 
L 150.910243 218.914299 
L 151.164133 222.608193 
L 151.671913 221.860537 
L 151.925804 220.598335 
L 152.179694 220.434816 
L 152.433584 220.7806 
L 152.687474 223.168562 
L 152.941365 221.565303 
L 153.195255 223.287789 
L 153.449145 222.568568 
L 153.703035 218.461242 
L 154.464706 224.285386 
L 154.718596 223.108019 
L 154.972487 223.447939 
L 155.226377 224.511875 
L 155.480267 220.75854 
L 155.734157 221.825288 
L 155.988048 221.482773 
L 156.241938 223.022599 
L 156.495828 220.202225 
L 156.749718 221.21526 
L 157.003609 223.005617 
L 157.257499 220.066439 
L 157.511389 222.52485 
L 157.765279 222.076698 
L 158.01917 223.364891 
L 158.27306 221.063702 
L 158.52695 224.657861 
L 158.78084 224.687804 
L 159.034731 223.336574 
L 159.288621 224.315346 
L 159.542511 221.900196 
L 159.796402 226.740055 
L 160.050292 222.458149 
L 160.304182 225.405957 
L 160.558072 224.710075 
L 160.811963 224.966307 
L 161.065853 221.306933 
L 161.319743 224.380193 
L 161.573633 223.338406 
L 161.827524 225.976047 
L 162.081414 225.647334 
L 162.335304 225.813058 
L 162.589194 221.708488 
L 162.843085 225.210201 
L 163.096975 223.422846 
L 163.350865 223.254957 
L 163.858646 224.900447 
L 164.112536 224.244001 
L 164.366426 224.168191 
L 164.620316 226.750751 
L 165.128097 223.61413 
L 165.381987 225.000888 
L 165.635877 225.685301 
L 165.889768 220.123926 
L 166.143658 221.866461 
L 166.397548 225.176099 
L 166.651438 224.645272 
L 166.905329 224.760686 
L 167.159219 224.624878 
L 167.413109 221.843255 
L 167.666999 226.144693 
L 167.92089 222.18812 
L 168.17478 224.977053 
L 168.42867 224.933391 
L 168.68256 223.870563 
L 169.190341 226.72284 
L 169.444231 226.17129 
L 169.698121 224.201614 
L 169.952012 223.116387 
L 170.205902 222.795308 
L 170.459792 225.237021 
L 170.713682 225.800307 
L 170.967573 222.566352 
L 171.221463 224.60926 
L 171.475353 222.573673 
L 171.729243 223.203188 
L 171.983134 228.438133 
L 172.237024 227.126923 
L 172.744804 223.140952 
L 172.998695 224.238639 
L 173.252585 227.731928 
L 173.506475 225.169757 
L 173.760365 226.350365 
L 174.014256 224.126773 
L 174.268146 227.660238 
L 174.522036 223.454576 
L 174.775926 224.710242 
L 175.029817 227.543361 
L 175.283707 223.16246 
L 175.537597 227.190841 
L 175.791488 225.422398 
L 176.045378 222.758505 
L 176.299268 226.222847 
L 176.553158 223.374328 
L 176.807049 228.585143 
L 177.060939 225.537539 
L 177.314829 226.020767 
L 177.568719 225.362601 
L 177.82261 227.065483 
L 178.0765 224.161031 
L 178.33039 224.437195 
L 178.58428 225.989226 
L 179.092061 224.132769 
L 179.345951 224.41944 
L 179.599841 224.457629 
L 179.853732 224.773759 
L 180.107622 226.254344 
L 180.361512 222.970964 
L 180.615402 227.569457 
L 180.869293 227.232181 
L 181.377073 223.685213 
L 181.630963 225.0469 
L 181.884854 225.778387 
L 182.138744 227.432585 
L 182.392634 227.707982 
L 182.900415 223.245915 
L 183.154305 226.924865 
L 183.408195 224.941637 
L 183.662085 225.423401 
L 183.915976 228.210413 
L 184.169866 225.629545 
L 184.677646 226.58946 
L 184.931537 223.532725 
L 185.185427 227.685822 
L 185.693207 225.883512 
L 185.947098 225.303138 
L 186.200988 226.60707 
L 186.454878 224.798129 
L 186.708768 228.094894 
L 186.962659 224.575726 
L 187.216549 228.297492 
L 187.470439 225.491254 
L 187.724329 226.822964 
L 187.97822 226.761658 
L 188.486 228.571686 
L 188.73989 225.919084 
L 188.993781 227.040751 
L 189.247671 225.52907 
L 189.501561 225.160999 
L 189.755451 225.769936 
L 190.009342 226.887917 
L 190.263232 225.10986 
L 190.517122 227.315663 
L 190.771012 225.044768 
L 191.024903 226.55087 
L 191.278793 226.949886 
L 191.532683 227.694853 
L 191.786574 225.285015 
L 192.040464 225.174607 
L 192.294354 223.984601 
L 192.548244 225.900582 
L 192.802135 226.439966 
L 193.056025 228.80347 
L 193.309915 227.801213 
L 193.563805 225.509483 
L 193.817696 226.127628 
L 194.071586 226.142656 
L 194.325476 226.635382 
L 194.579366 225.272944 
L 194.833257 227.083422 
L 195.087147 226.973026 
L 195.594927 225.188498 
L 195.848818 223.391332 
L 196.102708 224.447423 
L 196.356598 226.96591 
L 196.610488 223.762159 
L 196.864379 223.304292 
L 197.118269 229.954947 
L 197.372159 223.413097 
L 197.626049 228.487925 
L 197.87994 230.313653 
L 198.13383 224.52104 
L 198.38772 227.054415 
L 198.64161 226.214368 
L 198.895501 227.564869 
L 199.149391 223.68587 
L 199.403281 229.246861 
L 199.657171 224.707124 
L 199.911062 228.939339 
L 200.164952 227.816925 
L 200.418842 225.241358 
L 200.672732 228.821415 
L 200.926623 226.629709 
L 201.180513 228.297314 
L 201.434403 227.075433 
L 201.688293 228.028521 
L 201.942184 224.441928 
L 202.196074 225.901328 
L 202.449964 226.494614 
L 202.703854 227.502433 
L 202.957745 226.596174 
L 203.211635 227.488073 
L 203.465525 227.051759 
L 203.719415 226.369117 
L 203.973306 226.911079 
L 204.227196 226.569906 
L 204.481086 227.127998 
L 204.734976 222.761556 
L 205.496647 227.785585 
L 205.750537 222.547332 
L 206.004428 227.971686 
L 206.258318 229.867417 
L 206.512208 225.302626 
L 207.019989 229.470093 
L 207.273879 225.433005 
L 207.527769 227.808379 
L 207.78166 225.446028 
L 208.03555 227.181548 
L 208.28944 225.598121 
L 208.797221 227.761732 
L 209.051111 228.241587 
L 209.305001 224.978823 
L 209.558891 228.560316 
L 209.812782 229.207998 
L 210.066672 224.724908 
L 210.320562 225.430945 
L 210.574452 225.603978 
L 210.828343 225.376832 
L 211.082233 228.065235 
L 211.336123 225.879687 
L 211.590013 226.508756 
L 211.843904 224.377042 
L 212.351684 228.661059 
L 212.605574 222.980835 
L 212.859465 227.076908 
L 213.113355 229.277695 
L 213.367245 224.025513 
L 213.875026 229.821005 
L 214.128916 227.721712 
L 214.382806 227.301822 
L 214.636696 228.329156 
L 214.890587 225.697856 
L 215.144477 227.074258 
L 215.398367 229.207085 
L 215.652257 225.385017 
L 215.906148 228.377957 
L 216.160038 224.991768 
L 216.413928 224.797321 
L 216.667818 228.01218 
L 216.921709 223.841588 
L 217.175599 228.017926 
L 217.429489 225.867215 
L 217.683379 227.980171 
L 217.93727 226.305044 
L 218.19116 226.442928 
L 218.44505 228.145794 
L 218.69894 226.99778 
L 218.952831 224.132519 
L 219.206721 228.260834 
L 219.460611 226.542914 
L 219.714501 227.202533 
L 219.968392 226.120385 
L 220.222282 225.626611 
L 220.476172 226.969011 
L 220.730062 226.069785 
L 220.983953 226.947292 
L 221.237843 227.210333 
L 221.491733 224.047232 
L 221.745623 225.316901 
L 221.999514 227.845449 
L 222.253404 227.121695 
L 222.507294 227.272207 
L 222.761184 226.294972 
L 223.015075 226.827569 
L 223.268965 229.156102 
L 223.522855 227.254146 
L 223.776745 223.937459 
L 224.284526 226.789597 
L 224.538416 225.7131 
L 224.792307 225.138277 
L 225.046197 227.91161 
L 225.300087 226.633183 
L 225.553977 228.518664 
L 225.807868 226.733909 
L 226.061758 226.03433 
L 226.315648 227.826418 
L 226.569538 225.500525 
L 226.823429 226.807052 
L 227.077319 229.271977 
L 227.83899 226.470355 
L 228.09288 223.387719 
L 228.34677 227.336537 
L 228.60066 229.215008 
L 228.854551 226.759659 
L 229.108441 228.94268 
L 229.616221 223.436152 
L 229.870112 229.396867 
L 230.124002 226.981628 
L 230.377892 227.604149 
L 230.631782 227.259151 
L 230.885673 229.205476 
L 231.139563 224.39536 
L 231.647343 228.516487 
L 231.901234 227.660873 
L 232.155124 225.204222 
L 232.409014 227.164611 
L 232.662904 225.160331 
L 232.916795 226.189291 
L 233.170685 226.184419 
L 233.424575 228.17503 
L 233.678465 228.744636 
L 233.932356 225.321701 
L 234.186246 226.335733 
L 234.440136 226.661751 
L 234.694026 226.230275 
L 235.201807 228.049333 
L 235.455697 225.906161 
L 235.963478 228.215318 
L 236.217368 226.751725 
L 236.471258 227.187611 
L 236.725148 223.636858 
L 236.979039 229.341306 
L 237.232929 224.517337 
L 237.486819 228.677328 
L 237.740709 224.598687 
L 237.9946 228.290555 
L 238.24849 227.829731 
L 238.50238 225.033231 
L 238.75627 226.489146 
L 239.264051 226.463885 
L 239.517941 228.841152 
L 239.771831 225.587504 
L 240.025722 225.44115 
L 240.279612 229.247217 
L 240.533502 224.564741 
L 241.041283 229.395118 
L 241.295173 226.866148 
L 241.549063 225.855684 
L 241.802954 227.383389 
L 242.056844 226.658087 
L 242.310734 227.418555 
L 242.564624 228.65548 
L 242.818515 227.482656 
L 243.072405 228.851325 
L 243.326295 225.371554 
L 243.580185 228.244771 
L 243.834076 228.435844 
L 244.087966 226.325333 
L 244.341856 228.445616 
L 244.595746 225.705723 
L 244.849637 225.78077 
L 245.103527 226.88368 
L 245.357417 227.089992 
L 245.611307 226.264533 
L 245.865198 223.876576 
L 246.119088 226.436709 
L 246.372978 227.269128 
L 246.626868 227.462378 
L 246.880759 226.416693 
L 247.134649 227.244758 
L 247.388539 226.550887 
L 247.642429 225.037307 
L 247.89632 224.75499 
L 248.15021 229.075654 
L 248.4041 225.24358 
L 248.65799 225.70535 
L 248.911881 228.653487 
L 249.165771 224.390343 
L 249.419661 227.355283 
L 249.673551 227.804821 
L 249.927442 226.230214 
L 250.181332 226.270351 
L 250.435222 226.864973 
L 250.689112 227.041642 
L 250.943003 230.364854 
L 251.196893 227.492338 
L 251.450783 226.589226 
L 251.704673 226.178089 
L 251.958564 226.182292 
L 252.212454 226.889788 
L 252.466344 225.309268 
L 252.720234 225.448762 
L 252.974125 226.750996 
L 253.228015 227.452334 
L 253.481905 225.726312 
L 253.735795 225.374488 
L 253.989686 228.502123 
L 254.243576 225.227172 
L 254.497466 229.297561 
L 254.751356 227.123922 
L 255.005247 226.079133 
L 255.259137 225.886501 
L 255.513027 224.954687 
L 255.766917 230.022478 
L 256.020808 228.131129 
L 256.274698 229.56465 
L 256.528588 226.545954 
L 257.036369 228.735599 
L 257.290259 227.615713 
L 257.544149 225.328432 
L 257.79804 226.707657 
L 258.05193 225.804556 
L 258.30582 228.102989 
L 258.55971 225.241748 
L 258.813601 228.933682 
L 259.067491 226.958227 
L 259.321381 227.073762 
L 259.575271 226.48026 
L 259.829162 225.118941 
L 260.083052 225.424726 
L 260.590832 228.358926 
L 260.844723 226.786552 
L 261.098613 226.855029 
L 261.352503 229.25141 
L 261.860284 225.941076 
L 262.114174 226.361968 
L 262.368064 227.768993 
L 262.621954 227.775435 
L 262.875845 227.2257 
L 263.383625 227.442418 
L 263.637515 226.838109 
L 263.891406 226.616435 
L 264.145296 226.980169 
L 264.399186 228.837801 
L 264.653076 224.493591 
L 264.906967 225.800424 
L 265.160857 228.435878 
L 265.414747 224.353368 
L 265.668637 223.146486 
L 265.922528 227.344927 
L 266.176418 226.575474 
L 266.430308 226.790187 
L 266.684198 227.276021 
L 266.938089 229.78791 
L 267.191979 229.645488 
L 267.699759 225.943097 
L 268.20754 226.511796 
L 268.46143 229.380158 
L 268.969211 226.281565 
L 269.223101 226.254416 
L 269.476991 227.140686 
L 269.730881 223.895194 
L 270.238662 228.19935 
L 270.492552 228.123529 
L 270.746442 227.421127 
L 271.000333 225.105283 
L 271.254223 226.39043 
L 271.508113 225.863729 
L 272.015894 229.197954 
L 272.269784 227.064559 
L 272.523674 225.981565 
L 272.777564 226.262061 
L 273.031455 225.680635 
L 273.285345 226.363427 
L 273.539235 230.269785 
L 273.793126 225.921734 
L 274.047016 227.934855 
L 274.300906 227.472461 
L 274.808687 226.087262 
L 275.062577 227.147446 
L 275.570357 224.733326 
L 275.824248 228.131129 
L 276.078138 228.398212 
L 276.332028 227.58616 
L 277.093699 226.832858 
L 277.347589 228.538051 
L 277.601479 226.581554 
L 278.10926 228.070351 
L 278.36315 222.702483 
L 278.61704 224.6886 
L 278.870931 228.987762 
L 279.124821 227.681245 
L 279.378711 225.589207 
L 279.632601 228.263022 
L 279.886492 228.99971 
L 280.140382 225.459724 
L 280.394272 226.280902 
L 280.648162 226.109233 
L 280.902053 225.370279 
L 281.155943 227.636514 
L 281.409833 226.678332 
L 281.663723 227.715403 
L 281.917614 227.207928 
L 282.171504 225.307592 
L 282.425394 225.379326 
L 282.679284 227.814876 
L 282.933175 228.340926 
L 283.440955 229.996733 
L 283.694845 226.807024 
L 283.948736 228.778599 
L 284.202626 226.079701 
L 284.456516 225.934011 
L 284.710406 223.926853 
L 284.964297 230.032973 
L 285.218187 225.274241 
L 285.472077 223.380692 
L 285.725967 228.063909 
L 286.233748 223.725602 
L 286.487638 227.961218 
L 286.741528 227.474182 
L 286.995419 225.902013 
L 287.249309 226.301842 
L 287.503199 227.586076 
L 287.757089 226.059112 
L 288.01098 227.483597 
L 288.51876 226.716866 
L 288.77265 229.253459 
L 289.280431 224.923447 
L 289.534321 227.64638 
L 289.788212 226.822029 
L 290.042102 227.246907 
L 290.295992 225.775737 
L 290.549882 230.327261 
L 290.803773 226.368015 
L 291.057663 227.585809 
L 291.311553 226.860268 
L 291.565443 227.130988 
L 291.819334 228.002336 
L 292.073224 225.791494 
L 292.327114 226.3613 
L 292.581004 225.219455 
L 292.834895 225.754134 
L 293.088785 225.958024 
L 293.342675 227.090349 
L 293.596565 223.332365 
L 293.850456 228.159251 
L 294.358236 225.561257 
L 294.612126 223.813165 
L 294.866017 225.913566 
L 295.373797 228.000766 
L 295.627687 228.198403 
L 295.881578 224.878599 
L 296.135468 226.822881 
L 296.643248 225.114102 
L 296.897139 226.913741 
L 297.151029 226.632604 
L 297.404919 227.488257 
L 297.658809 227.453013 
L 297.9127 223.517976 
L 298.16659 226.767354 
L 298.42048 224.706512 
L 298.67437 227.291215 
L 298.928261 227.896405 
L 299.182151 226.023239 
L 299.436041 227.909043 
L 299.943822 225.763711 
L 300.197712 229.424037 
L 300.451602 227.275698 
L 300.705492 229.977875 
L 300.959383 228.44997 
L 301.213273 225.07843 
L 301.721053 227.546267 
L 302.482724 228.580466 
L 302.736614 227.187917 
L 302.990505 225.091592 
L 303.244395 227.245582 
L 303.498285 228.23225 
L 303.752175 223.354435 
L 304.006066 230.557091 
L 304.259956 226.922899 
L 304.513846 228.241197 
L 304.767736 227.251701 
L 305.021627 227.998678 
L 305.275517 227.049376 
L 305.529407 228.342886 
L 305.783298 226.589777 
L 306.037188 227.34005 
L 306.291078 226.480115 
L 306.544968 227.238957 
L 306.798859 226.866265 
L 307.052749 226.124722 
L 307.306639 227.849758 
L 307.560529 227.171532 
L 307.81442 229.156096 
L 308.3222 227.194114 
L 308.57609 227.117191 
L 308.829981 228.679972 
L 309.083871 227.695549 
L 309.337761 227.607601 
L 309.591651 227.839753 
L 309.845542 226.57789 
L 310.099432 227.54404 
L 310.099432 227.54404 
" clip-path="url(#pb501672066)" style="fill: none; stroke: #0000ff; stroke-width: 0.6; stroke-linecap: square"/>
   </g>
   <g id="line2d_26">
    <path d="M 56.463068 46.776293 
L 57.478629 46.573027 
L 57.732519 46.737363 
L 59.001971 46.614695 
L 59.255861 46.754289 
L 59.763641 46.740949 
L 60.017532 46.726362 
L 60.271422 46.498909 
L 60.779202 46.729747 
L 62.302544 46.762997 
L 62.556434 46.868227 
L 63.571995 46.76665 
L 63.825886 46.864063 
L 64.079776 46.829765 
L 64.333666 47.089377 
L 65.095337 47.185766 
L 66.110898 48.244479 
L 66.364788 48.887106 
L 66.618678 48.945166 
L 67.380349 54.567674 
L 67.634239 58.599507 
L 68.39591 77.199195 
L 68.6498 81.238333 
L 68.903691 93.219202 
L 69.157581 95.682095 
L 69.411471 80.348277 
L 69.665361 97.837427 
L 69.919252 107.629046 
L 70.173142 86.753073 
L 70.427032 118.742197 
L 70.680922 120.182144 
L 71.188703 130.650798 
L 71.442593 133.867549 
L 71.696483 121.8399 
L 71.950374 139.148901 
L 72.204264 99.783614 
L 72.712044 135.58645 
L 72.965935 137.69008 
L 73.219825 150.379676 
L 73.727605 123.985321 
L 73.981496 151.495559 
L 74.235386 159.38648 
L 74.489276 133.336745 
L 74.743166 153.031849 
L 74.997057 156.648486 
L 75.250947 148.696821 
L 75.504837 154.807162 
L 75.758727 164.699468 
L 76.012618 156.125499 
L 76.266508 160.464113 
L 76.520398 162.806709 
L 76.774288 154.791238 
L 77.028179 164.454054 
L 77.282069 166.110295 
L 77.535959 164.98468 
L 77.78985 169.682367 
L 78.04374 167.183952 
L 78.29763 168.880036 
L 78.55152 169.308161 
L 78.805411 159.298065 
L 79.059301 165.841396 
L 79.313191 162.85389 
L 79.567081 168.309334 
L 79.820972 165.982104 
L 80.074862 165.394063 
L 80.328752 162.902341 
L 80.582642 167.855008 
L 80.836533 160.137499 
L 81.090423 157.633137 
L 81.344313 151.529188 
L 81.598203 172.39877 
L 81.852094 170.192772 
L 82.105984 160.631222 
L 82.359874 171.931037 
L 82.613764 169.06415 
L 82.867655 172.375118 
L 83.121545 158.656095 
L 83.375435 163.257082 
L 83.629325 158.073333 
L 84.137106 170.963322 
L 84.390996 163.520981 
L 84.644886 170.334693 
L 84.898777 170.836556 
L 85.152667 164.218739 
L 85.660447 175.127667 
L 85.914338 167.992129 
L 86.168228 174.099097 
L 86.422118 176.997731 
L 86.676008 167.74637 
L 86.929899 169.897103 
L 87.183789 173.905819 
L 87.437679 174.116557 
L 87.691569 169.956132 
L 87.94546 173.826657 
L 88.19935 141.658329 
L 88.45324 178.307259 
L 88.70713 167.656106 
L 88.961021 169.92688 
L 89.214911 174.678852 
L 89.468801 174.352406 
L 89.722691 166.810514 
L 89.976582 153.562676 
L 90.230472 173.608436 
L 90.484362 173.13744 
L 90.738252 176.849841 
L 90.992143 175.372257 
L 91.246033 178.742833 
L 91.499923 178.285801 
L 91.753813 178.175404 
L 92.007704 171.446756 
L 92.261594 173.139856 
L 92.515484 172.745372 
L 92.769374 177.762613 
L 93.023265 177.716602 
L 93.531045 178.723313 
L 94.038826 175.469157 
L 94.292716 171.486276 
L 94.546606 173.925194 
L 95.054387 176.420013 
L 95.308277 154.783878 
L 95.562167 178.48223 
L 95.816058 177.950925 
L 96.069948 171.517956 
L 96.323838 178.444347 
L 96.577728 177.441935 
L 96.831619 177.060858 
L 97.085509 174.424062 
L 97.339399 177.962283 
L 97.593289 175.440984 
L 97.84718 177.673051 
L 98.10107 176.584049 
L 98.35496 182.826256 
L 98.60885 178.433813 
L 98.862741 166.355464 
L 99.116631 180.64548 
L 99.370521 161.281822 
L 99.624411 178.643605 
L 99.878302 174.933041 
L 100.132192 183.462513 
L 100.386082 173.817058 
L 100.639972 174.781711 
L 100.893863 180.664354 
L 101.147753 163.824199 
L 101.401643 180.188949 
L 101.655533 181.298395 
L 101.909424 173.704768 
L 102.163314 176.728242 
L 102.417204 174.861318 
L 102.671094 179.167071 
L 102.924985 164.715146 
L 103.178875 174.988585 
L 103.432765 179.709445 
L 103.686655 180.987672 
L 103.940546 182.915896 
L 104.194436 167.484186 
L 104.448326 180.15081 
L 104.702216 166.015544 
L 104.956107 181.024686 
L 105.209997 174.628153 
L 105.463887 173.906119 
L 105.717777 179.939092 
L 105.971668 179.635061 
L 106.225558 167.436126 
L 106.479448 177.950435 
L 106.733338 169.345587 
L 106.987229 183.510975 
L 107.241119 180.125343 
L 107.495009 183.999164 
L 107.748899 179.926564 
L 108.00279 179.960394 
L 108.51057 173.731738 
L 108.76446 181.823509 
L 109.018351 174.578411 
L 109.272241 151.446853 
L 109.526131 181.657747 
L 109.780021 185.008636 
L 110.033912 180.988585 
L 110.287802 180.788938 
L 110.541692 176.418465 
L 110.795583 145.994772 
L 111.049473 183.189394 
L 111.303363 179.193941 
L 111.557253 177.133305 
L 111.811144 173.995637 
L 112.065034 181.181896 
L 112.572814 177.251084 
L 112.826705 180.105422 
L 113.080595 172.946188 
L 113.334485 176.43509 
L 113.842266 180.128216 
L 114.096156 177.630692 
L 114.350046 179.467216 
L 114.857827 174.856251 
L 115.111717 179.495823 
L 115.365607 179.790467 
L 115.619497 180.850962 
L 115.873388 174.246563 
L 116.127278 178.301246 
L 116.381168 175.213454 
L 116.635058 174.902719 
L 116.888949 182.763708 
L 117.142839 181.159202 
L 117.396729 174.863467 
L 117.650619 182.033335 
L 117.90451 184.449737 
L 118.1584 180.748972 
L 118.41229 168.009467 
L 118.66618 171.748382 
L 118.920071 183.194138 
L 119.173961 174.790251 
L 119.427851 182.189754 
L 119.681741 181.168868 
L 119.935632 182.402519 
L 120.189522 174.329823 
L 120.443412 183.043386 
L 120.697302 151.374038 
L 120.951193 178.093804 
L 121.205083 174.876729 
L 121.458973 181.702434 
L 121.712863 177.660323 
L 121.966754 180.654043 
L 122.220644 180.170397 
L 122.728424 176.854184 
L 123.236205 181.127165 
L 123.490095 180.328053 
L 123.743985 180.841118 
L 123.997876 179.055249 
L 124.251766 162.42257 
L 124.505656 176.165401 
L 124.759546 181.863875 
L 125.013437 181.635988 
L 125.267327 175.649117 
L 125.521217 177.786499 
L 125.775107 176.500244 
L 126.028998 177.844615 
L 126.282888 172.555301 
L 126.536778 176.816613 
L 126.790669 175.623071 
L 127.044559 178.819367 
L 127.298449 175.571169 
L 127.552339 178.625543 
L 127.80623 177.212322 
L 128.06012 174.292074 
L 128.31401 179.253883 
L 128.5679 179.134155 
L 128.821791 175.245936 
L 129.075681 174.666203 
L 129.583461 176.723108 
L 129.837352 171.109608 
L 130.091242 176.695804 
L 130.345132 176.598313 
L 130.599022 178.802831 
L 130.852913 175.176206 
L 131.106803 179.346797 
L 131.360693 172.36611 
L 131.614583 172.373325 
L 131.868474 176.108866 
L 132.122364 177.772791 
L 132.376254 174.833012 
L 132.630144 179.320139 
L 132.884035 172.451931 
L 133.137925 171.016338 
L 133.391815 175.377178 
L 133.645705 177.178826 
L 133.899596 177.190485 
L 134.153486 174.124575 
L 134.407376 176.195801 
L 134.661266 174.424563 
L 135.169047 174.996625 
L 135.422937 177.181744 
L 135.676827 175.744726 
L 135.930718 175.258486 
L 136.184608 173.103555 
L 136.438498 174.799661 
L 136.692388 177.617953 
L 137.200169 172.493332 
L 137.454059 177.250773 
L 137.707949 174.665122 
L 137.96184 176.646953 
L 138.21573 174.334021 
L 138.46962 173.282869 
L 138.72351 175.492987 
L 138.977401 175.208499 
L 139.231291 173.448876 
L 139.485181 175.471863 
L 139.739071 167.806535 
L 139.992962 174.189806 
L 140.246852 174.123583 
L 140.500742 171.031003 
L 140.754632 173.851478 
L 141.008523 172.248286 
L 141.262413 173.825822 
L 141.516303 170.85356 
L 142.024084 176.1143 
L 142.277974 168.793447 
L 142.531864 172.727065 
L 142.785755 174.306951 
L 143.039645 173.891421 
L 143.293535 175.022359 
L 143.547425 174.716479 
L 143.801316 170.537993 
L 144.309096 168.538078 
L 144.562986 173.327488 
L 144.816877 173.31024 
L 145.070767 168.809983 
L 145.324657 170.859907 
L 145.578547 170.168886 
L 145.832438 174.078619 
L 146.340218 168.921271 
L 146.594108 169.871547 
L 146.847999 172.260657 
L 147.101889 172.421007 
L 147.355779 170.503796 
L 147.609669 172.173288 
L 147.86356 171.974008 
L 148.11745 172.525469 
L 148.37134 170.834396 
L 148.62523 172.889476 
L 148.879121 171.150542 
L 149.133011 172.777564 
L 149.386901 173.531913 
L 149.640791 169.490782 
L 150.148572 171.456878 
L 150.402462 173.297668 
L 150.656352 174.323621 
L 150.910243 173.995136 
L 151.164133 174.047495 
L 151.418023 172.296424 
L 151.671913 173.589773 
L 151.925804 173.65408 
L 152.179694 172.747833 
L 152.433584 176.414456 
L 152.687474 172.001658 
L 152.941365 170.467082 
L 153.195255 172.920399 
L 153.449145 167.931029 
L 153.703035 172.744325 
L 153.956926 171.10737 
L 154.210816 172.095886 
L 154.464706 171.808525 
L 154.718596 172.440617 
L 154.972487 172.400084 
L 155.226377 169.239789 
L 155.480267 172.669139 
L 155.734157 173.601108 
L 155.988048 173.63251 
L 156.495828 172.009508 
L 156.749718 173.592356 
L 157.003609 170.989936 
L 157.257499 174.151478 
L 157.511389 173.49874 
L 157.765279 172.531304 
L 158.01917 174.824582 
L 158.27306 172.541627 
L 158.52695 172.284943 
L 158.78084 172.242885 
L 159.034731 173.076662 
L 159.288621 173.069302 
L 159.542511 166.926902 
L 160.050292 173.47687 
L 160.304182 173.67546 
L 160.558072 172.420061 
L 160.811963 172.203755 
L 161.065853 172.688136 
L 161.319743 171.882998 
L 161.573633 172.70387 
L 161.827524 172.265891 
L 162.081414 170.496012 
L 162.335304 171.528379 
L 162.843085 172.385452 
L 163.096975 171.293856 
L 163.350865 171.208413 
L 163.858646 172.734737 
L 164.112536 170.446682 
L 164.620316 171.297541 
L 164.874207 172.160895 
L 165.128097 171.944433 
L 165.381987 172.362335 
L 165.635877 172.155316 
L 165.889768 171.020837 
L 166.143658 169.169458 
L 166.651438 171.978674 
L 166.905329 172.531349 
L 167.159219 172.586558 
L 167.413109 173.535398 
L 167.666999 171.177535 
L 168.17478 173.30926 
L 168.42867 171.771399 
L 168.68256 171.15768 
L 168.936451 172.601558 
L 169.190341 172.381087 
L 169.444231 171.253657 
L 169.952012 173.261522 
L 170.205902 169.819278 
L 170.459792 172.567906 
L 170.713682 171.705277 
L 170.967573 172.001056 
L 171.221463 171.995288 
L 171.475353 171.143872 
L 171.729243 172.286424 
L 171.983134 171.329957 
L 172.237024 171.393796 
L 172.490914 171.902441 
L 172.744804 171.045813 
L 172.998695 170.995025 
L 173.252585 170.756281 
L 173.506475 171.818313 
L 173.760365 171.704842 
L 174.014256 171.83535 
L 174.268146 169.063214 
L 174.522036 171.725911 
L 174.775926 171.141946 
L 175.029817 170.882033 
L 175.283707 171.994219 
L 175.791488 170.826145 
L 176.045378 171.330825 
L 176.299268 171.309167 
L 176.553158 171.726545 
L 176.807049 170.529352 
L 177.060939 171.423361 
L 177.314829 170.994034 
L 177.568719 171.918598 
L 177.82261 170.586844 
L 178.0765 171.861752 
L 178.33039 171.920536 
L 178.838171 170.271121 
L 179.092061 171.256975 
L 179.345951 171.35823 
L 179.599841 170.740524 
L 179.853732 171.383262 
L 180.107622 170.512214 
L 180.361512 170.964191 
L 180.615402 170.990916 
L 180.869293 171.222132 
L 181.123183 171.675523 
L 181.377073 171.831731 
L 181.630963 172.212897 
L 181.884854 171.31381 
L 182.138744 171.054332 
L 182.392634 169.677924 
L 182.646524 171.095756 
L 182.900415 169.693603 
L 183.154305 170.160735 
L 183.408195 171.682939 
L 183.662085 170.944436 
L 183.915976 170.935584 
L 184.169866 171.190752 
L 184.423756 171.604011 
L 184.931537 171.286272 
L 185.185427 169.431809 
L 185.439317 170.43038 
L 186.200988 171.129396 
L 186.708768 170.800077 
L 186.962659 170.812136 
L 187.216549 170.349871 
L 187.470439 170.868493 
L 187.724329 171.067405 
L 187.97822 171.033887 
L 188.23211 170.704857 
L 188.486 170.726349 
L 188.993781 171.340803 
L 189.247671 171.092716 
L 189.501561 171.256919 
L 190.263232 171.235294 
L 190.517122 170.881376 
L 190.771012 170.971529 
L 191.024903 170.883147 
L 191.278793 170.945182 
L 191.532683 171.496164 
L 191.786574 171.144496 
L 192.040464 170.495745 
L 192.294354 171.418996 
L 192.548244 171.011227 
L 192.802135 169.870423 
L 193.563805 171.060412 
L 193.817696 170.747629 
L 194.071586 171.090344 
L 194.325476 169.869098 
L 194.579366 170.284561 
L 194.833257 171.195741 
L 195.087147 171.09717 
L 195.341037 170.659625 
L 195.594927 171.236853 
L 196.102708 170.530499 
L 196.356598 171.204382 
L 196.610488 171.127102 
L 196.864379 170.54777 
L 197.118269 170.534552 
L 197.372159 170.683165 
L 197.626049 170.384546 
L 198.13383 171.268211 
L 198.38772 171.170764 
L 198.64161 170.778674 
L 199.149391 170.762094 
L 199.657171 170.785233 
L 199.911062 171.053786 
L 200.164952 171.09717 
L 200.418842 170.979691 
L 200.672732 170.027332 
L 200.926623 170.918268 
L 201.180513 170.625985 
L 201.688293 170.722028 
L 201.942184 171.016037 
L 202.449964 171.056448 
L 202.703854 170.557179 
L 202.957745 171.047016 
L 203.719415 170.587334 
L 204.227196 171.047974 
L 204.481086 170.408766 
L 204.988867 170.900351 
L 205.242757 170.527548 
L 205.496647 170.677297 
L 205.750537 170.541935 
L 206.004428 170.593369 
L 206.258318 170.926909 
L 206.512208 171.043353 
L 207.019989 170.969892 
L 207.273879 171.064866 
L 207.527769 170.586243 
L 207.78166 170.846946 
L 208.28944 170.709033 
L 208.54333 170.866923 
L 209.558891 170.587189 
L 209.812782 170.321687 
L 210.320562 170.741649 
L 210.574452 170.407998 
L 211.082233 170.641519 
L 211.843904 170.415135 
L 212.097794 170.621186 
L 212.605574 170.514853 
L 213.113355 170.130447 
L 214.382806 170.383277 
L 214.636696 170.155535 
L 215.144477 170.516835 
L 215.398367 170.198306 
L 215.652257 170.558938 
L 216.160038 170.61662 
L 216.413928 170.725892 
L 216.667818 170.3328 
L 217.175599 170.289516 
L 217.429489 170.11675 
L 217.93727 170.503395 
L 219.968392 170.510488 
L 220.222282 170.375226 
L 220.476172 170.561166 
L 220.983953 170.677843 
L 221.237843 170.311141 
L 221.491733 170.51374 
L 222.507294 170.269807 
L 222.761184 170.596476 
L 223.015075 170.547948 
L 223.522855 170.692753 
L 223.776745 170.593559 
L 224.284526 170.749499 
L 226.061758 170.550787 
L 226.315648 170.415636 
L 228.60066 170.569996 
L 229.362331 170.589717 
L 229.616221 170.699969 
L 231.901234 170.514219 
L 232.409014 170.649403 
L 232.662904 170.613469 
L 233.170685 170.696895 
L 233.678465 170.715492 
L 234.186246 170.704345 
L 234.947917 170.706873 
L 235.963478 170.753308 
L 236.217368 170.598982 
L 236.471258 170.719979 
L 237.740709 170.67223 
L 239.010161 170.714089 
L 240.025722 170.640673 
L 240.533502 170.644993 
L 240.787393 170.556355 
L 242.310734 170.720235 
L 242.818515 170.649447 
L 244.595746 170.631297 
L 247.134649 170.749121 
L 250.181332 170.586666 
L 252.212454 170.618435 
L 287.757089 170.666028 
L 290.295992 170.655405 
L 310.099432 170.613068 
L 310.099432 170.613068 
" clip-path="url(#pb501672066)" style="fill: none; stroke: #ff0000; stroke-width: 0.6; stroke-linecap: square"/>
   </g>
   <g id="patch_3">
    <path d="M 43.78125 239.76 
L 43.78125 37.296 
" style="fill: none; stroke: #000000; stroke-width: 0.8; stroke-linejoin: miter; stroke-linecap: square"/>
   </g>
   <g id="patch_4">
    <path d="M 322.78125 239.76 
L 322.78125 37.296 
" style="fill: none; stroke: #000000; stroke-width: 0.8; stroke-linejoin: miter; stroke-linecap: square"/>
   </g>
   <g id="patch_5">
    <path d="M 43.78125 239.76 
L 322.78125 239.76 
" style="fill: none; stroke: #000000; stroke-width: 0.8; stroke-linejoin: miter; stroke-linecap: square"/>
   </g>
   <g id="patch_6">
    <path d="M 43.78125 37.296 
L 322.78125 37.296 
" style="fill: none; stroke: #000000; stroke-width: 0.8; stroke-linejoin: miter; stroke-linecap: square"/>
   </g>
   <g id="text_15">
    <!-- Constrained Model -->
    <g transform="translate(141.147891 31.296) scale(0.09 -0.09)">
     <defs>
      <path id="DejaVuSans-43" d="M 4122 4306 
L 4122 3641 
Q 3803 3938 3442 4084 
Q 3081 4231 2675 4231 
Q 1875 4231 1450 3742 
Q 1025 3253 1025 2328 
Q 1025 1406 1450 917 
Q 1875 428 2675 428 
Q 3081 428 3442 575 
Q 3803 722 4122 1019 
L 4122 359 
Q 3791 134 3420 21 
Q 3050 -91 2638 -91 
Q 1578 -91 968 557 
Q 359 1206 359 2328 
Q 359 3453 968 4101 
Q 1578 4750 2638 4750 
Q 3056 4750 3426 4639 
Q 3797 4528 4122 4306 
z
" transform="scale(0.015625)"/>
      <path id="DejaVuSans-6e" d="M 3513 2113 
L 3513 0 
L 2938 0 
L 2938 2094 
Q 2938 2591 2744 2837 
Q 2550 3084 2163 3084 
Q 1697 3084 1428 2787 
Q 1159 2491 1159 1978 
L 1159 0 
L 581 0 
L 581 3500 
L 1159 3500 
L 1159 2956 
Q 1366 3272 1645 3428 
Q 1925 3584 2291 3584 
Q 2894 3584 3203 3211 
Q 3513 2838 3513 2113 
z
" transform="scale(0.015625)"/>
      <path id="DejaVuSans-74" d="M 1172 4494 
L 1172 3500 
L 2356 3500 
L 2356 3053 
L 1172 3053 
L 1172 1153 
Q 1172 725 1289 603 
Q 1406 481 1766 481 
L 2356 481 
L 2356 0 
L 1766 0 
Q 1100 0 847 248 
Q 594 497 594 1153 
L 594 3053 
L 172 3053 
L 172 3500 
L 594 3500 
L 594 4494 
L 1172 4494 
z
" transform="scale(0.015625)"/>
      <path id="DejaVuSans-72" d="M 2631 2963 
Q 2534 3019 2420 3045 
Q 2306 3072 2169 3072 
Q 1681 3072 1420 2755 
Q 1159 2438 1159 1844 
L 1159 0 
L 581 0 
L 581 3500 
L 1159 3500 
L 1159 2956 
Q 1341 3275 1631 3429 
Q 1922 3584 2338 3584 
Q 2397 3584 2469 3576 
Q 2541 3569 2628 3553 
L 2631 2963 
z
" transform="scale(0.015625)"/>
      <path id="DejaVuSans-61" d="M 2194 1759 
Q 1497 1759 1228 1600 
Q 959 1441 959 1056 
Q 959 750 1161 570 
Q 1363 391 1709 391 
Q 2188 391 2477 730 
Q 2766 1069 2766 1631 
L 2766 1759 
L 2194 1759 
z
M 3341 1997 
L 3341 0 
L 2766 0 
L 2766 531 
Q 2569 213 2275 61 
Q 1981 -91 1556 -91 
Q 1019 -91 701 211 
Q 384 513 384 1019 
Q 384 1609 779 1909 
Q 1175 2209 1959 2209 
L 2766 2209 
L 2766 2266 
Q 2766 2663 2505 2880 
Q 2244 3097 1772 3097 
Q 1472 3097 1187 3025 
Q 903 2953 641 2809 
L 641 3341 
Q 956 3463 1253 3523 
Q 1550 3584 1831 3584 
Q 2591 3584 2966 3190 
Q 3341 2797 3341 1997 
z
" transform="scale(0.015625)"/>
      <path id="DejaVuSans-69" d="M 603 3500 
L 1178 3500 
L 1178 0 
L 603 0 
L 603 3500 
z
M 603 4863 
L 1178 4863 
L 1178 4134 
L 603 4134 
L 603 4863 
z
" transform="scale(0.015625)"/>
      <path id="DejaVuSans-65" d="M 3597 1894 
L 3597 1613 
L 953 1613 
Q 991 1019 1311 708 
Q 1631 397 2203 397 
Q 2534 397 2845 478 
Q 3156 559 3463 722 
L 3463 178 
Q 3153 47 2828 -22 
Q 2503 -91 2169 -91 
Q 1331 -91 842 396 
Q 353 884 353 1716 
Q 353 2575 817 3079 
Q 1281 3584 2069 3584 
Q 2775 3584 3186 3129 
Q 3597 2675 3597 1894 
z
M 3022 2063 
Q 3016 2534 2758 2815 
Q 2500 3097 2075 3097 
Q 1594 3097 1305 2825 
Q 1016 2553 972 2059 
L 3022 2063 
z
" transform="scale(0.015625)"/>
      <path id="DejaVuSans-64" d="M 2906 2969 
L 2906 4863 
L 3481 4863 
L 3481 0 
L 2906 0 
L 2906 525 
Q 2725 213 2448 61 
Q 2172 -91 1784 -91 
Q 1150 -91 751 415 
Q 353 922 353 1747 
Q 353 2572 751 3078 
Q 1150 3584 1784 3584 
Q 2172 3584 2448 3432 
Q 2725 3281 2906 2969 
z
M 947 1747 
Q 947 1113 1208 752 
Q 1469 391 1925 391 
Q 2381 391 2643 752 
Q 2906 1113 2906 1747 
Q 2906 2381 2643 2742 
Q 2381 3103 1925 3103 
Q 1469 3103 1208 2742 
Q 947 2381 947 1747 
z
" transform="scale(0.015625)"/>
      <path id="DejaVuSans-20" transform="scale(0.015625)"/>
      <path id="DejaVuSans-4d" d="M 628 4666 
L 1569 4666 
L 2759 1491 
L 3956 4666 
L 4897 4666 
L 4897 0 
L 4281 0 
L 4281 4097 
L 3078 897 
L 2444 897 
L 1241 4097 
L 1241 0 
L 628 0 
L 628 4666 
z
" transform="scale(0.015625)"/>
      <path id="DejaVuSans-6c" d="M 603 4863 
L 1178 4863 
L 1178 0 
L 603 0 
L 603 4863 
z
" transform="scale(0.015625)"/>
     </defs>
     <use xlink:href="#DejaVuSans-43"/>
     <use xlink:href="#DejaVuSans-6f" x="69.824219"/>
     <use xlink:href="#DejaVuSans-6e" x="131.005859"/>
     <use xlink:href="#DejaVuSans-73" x="194.384766"/>
     <use xlink:href="#DejaVuSans-74" x="246.484375"/>
     <use xlink:href="#DejaVuSans-72" x="285.693359"/>
     <use xlink:href="#DejaVuSans-61" x="326.806641"/>
     <use xlink:href="#DejaVuSans-69" x="388.085938"/>
     <use xlink:href="#DejaVuSans-6e" x="415.869141"/>
     <use xlink:href="#DejaVuSans-65" x="479.248047"/>
     <use xlink:href="#DejaVuSans-64" x="540.771484"/>
     <use xlink:href="#DejaVuSans-20" x="604.248047"/>
     <use xlink:href="#DejaVuSans-4d" x="636.035156"/>
     <use xlink:href="#DejaVuSans-6f" x="722.314453"/>
     <use xlink:href="#DejaVuSans-64" x="783.496094"/>
     <use xlink:href="#DejaVuSans-65" x="846.972656"/>
     <use xlink:href="#DejaVuSans-6c" x="908.496094"/>
    </g>
   </g>
   <g id="legend_1">
    <g id="patch_7">
     <path d="M 209.2875 74.65225 
L 315.78125 74.65225 
Q 317.78125 74.65225 317.78125 72.65225 
L 317.78125 44.296 
Q 317.78125 42.296 315.78125 42.296 
L 209.2875 42.296 
Q 207.2875 42.296 207.2875 44.296 
L 207.2875 72.65225 
Q 207.2875 74.65225 209.2875 74.65225 
z
" style="fill: #ffffff; opacity: 0.8; stroke: #cccccc; stroke-linejoin: miter"/>
    </g>
    <g id="line2d_27">
     <path d="M 211.2875 50.394438 
L 221.2875 50.394438 
L 231.2875 50.394438 
" style="fill: none; stroke: #0000ff; stroke-width: 0.6; stroke-linecap: square"/>
    </g>
    <g id="text_16">
     <!-- Training Loss -->
     <g transform="translate(239.2875 53.894438) scale(0.1 -0.1)">
      <defs>
       <path id="DejaVuSans-54" d="M -19 4666 
L 3928 4666 
L 3928 4134 
L 2272 4134 
L 2272 0 
L 1638 0 
L 1638 4134 
L -19 4134 
L -19 4666 
z
" transform="scale(0.015625)"/>
       <path id="DejaVuSans-67" d="M 2906 1791 
Q 2906 2416 2648 2759 
Q 2391 3103 1925 3103 
Q 1463 3103 1205 2759 
Q 947 2416 947 1791 
Q 947 1169 1205 825 
Q 1463 481 1925 481 
Q 2391 481 2648 825 
Q 2906 1169 2906 1791 
z
M 3481 434 
Q 3481 -459 3084 -895 
Q 2688 -1331 1869 -1331 
Q 1566 -1331 1297 -1286 
Q 1028 -1241 775 -1147 
L 775 -588 
Q 1028 -725 1275 -790 
Q 1522 -856 1778 -856 
Q 2344 -856 2625 -561 
Q 2906 -266 2906 331 
L 2906 616 
Q 2728 306 2450 153 
Q 2172 0 1784 0 
Q 1141 0 747 490 
Q 353 981 353 1791 
Q 353 2603 747 3093 
Q 1141 3584 1784 3584 
Q 2172 3584 2450 3431 
Q 2728 3278 2906 2969 
L 2906 3500 
L 3481 3500 
L 3481 434 
z
" transform="scale(0.015625)"/>
      </defs>
      <use xlink:href="#DejaVuSans-54"/>
      <use xlink:href="#DejaVuSans-72" x="46.333984"/>
      <use xlink:href="#DejaVuSans-61" x="87.447266"/>
      <use xlink:href="#DejaVuSans-69" x="148.726562"/>
      <use xlink:href="#DejaVuSans-6e" x="176.509766"/>
      <use xlink:href="#DejaVuSans-69" x="239.888672"/>
      <use xlink:href="#DejaVuSans-6e" x="267.671875"/>
      <use xlink:href="#DejaVuSans-67" x="331.050781"/>
      <use xlink:href="#DejaVuSans-20" x="394.527344"/>
      <use xlink:href="#DejaVuSans-4c" x="426.314453"/>
      <use xlink:href="#DejaVuSans-6f" x="480.277344"/>
      <use xlink:href="#DejaVuSans-73" x="541.458984"/>
      <use xlink:href="#DejaVuSans-73" x="593.558594"/>
     </g>
    </g>
    <g id="line2d_28">
     <path d="M 211.2875 65.072563 
L 221.2875 65.072563 
L 231.2875 65.072563 
" style="fill: none; stroke: #ff0000; stroke-width: 0.6; stroke-linecap: square"/>
    </g>
    <g id="text_17">
     <!-- Validation Loss -->
     <g transform="translate(239.2875 68.572563) scale(0.1 -0.1)">
      <defs>
       <path id="DejaVuSans-56" d="M 1831 0 
L 50 4666 
L 709 4666 
L 2188 738 
L 3669 4666 
L 4325 4666 
L 2547 0 
L 1831 0 
z
" transform="scale(0.015625)"/>
      </defs>
      <use xlink:href="#DejaVuSans-56"/>
      <use xlink:href="#DejaVuSans-61" x="60.658203"/>
      <use xlink:href="#DejaVuSans-6c" x="121.9375"/>
      <use xlink:href="#DejaVuSans-69" x="149.720703"/>
      <use xlink:href="#DejaVuSans-64" x="177.503906"/>
      <use xlink:href="#DejaVuSans-61" x="240.980469"/>
      <use xlink:href="#DejaVuSans-74" x="302.259766"/>
      <use xlink:href="#DejaVuSans-69" x="341.46875"/>
      <use xlink:href="#DejaVuSans-6f" x="369.251953"/>
      <use xlink:href="#DejaVuSans-6e" x="430.433594"/>
      <use xlink:href="#DejaVuSans-20" x="493.8125"/>
      <use xlink:href="#DejaVuSans-4c" x="525.599609"/>
      <use xlink:href="#DejaVuSans-6f" x="579.5625"/>
      <use xlink:href="#DejaVuSans-73" x="640.744141"/>
      <use xlink:href="#DejaVuSans-73" x="692.84375"/>
     </g>
    </g>
   </g>
  </g>
  <g id="text_18">
   <!-- Training VS. Validation Loss - Dataset Size = 100.0% -->
   <g transform="translate(34.481016 15.558281) scale(0.11 -0.11)">
    <defs>
     <path id="DejaVuSans-53" d="M 3425 4513 
L 3425 3897 
Q 3066 4069 2747 4153 
Q 2428 4238 2131 4238 
Q 1616 4238 1336 4038 
Q 1056 3838 1056 3469 
Q 1056 3159 1242 3001 
Q 1428 2844 1947 2747 
L 2328 2669 
Q 3034 2534 3370 2195 
Q 3706 1856 3706 1288 
Q 3706 609 3251 259 
Q 2797 -91 1919 -91 
Q 1588 -91 1214 -16 
Q 841 59 441 206 
L 441 856 
Q 825 641 1194 531 
Q 1563 422 1919 422 
Q 2459 422 2753 634 
Q 3047 847 3047 1241 
Q 3047 1584 2836 1778 
Q 2625 1972 2144 2069 
L 1759 2144 
Q 1053 2284 737 2584 
Q 422 2884 422 3419 
Q 422 4038 858 4394 
Q 1294 4750 2059 4750 
Q 2388 4750 2728 4690 
Q 3069 4631 3425 4513 
z
" transform="scale(0.015625)"/>
     <path id="DejaVuSans-2d" d="M 313 2009 
L 1997 2009 
L 1997 1497 
L 313 1497 
L 313 2009 
z
" transform="scale(0.015625)"/>
     <path id="DejaVuSans-44" d="M 1259 4147 
L 1259 519 
L 2022 519 
Q 2988 519 3436 956 
Q 3884 1394 3884 2338 
Q 3884 3275 3436 3711 
Q 2988 4147 2022 4147 
L 1259 4147 
z
M 628 4666 
L 1925 4666 
Q 3281 4666 3915 4102 
Q 4550 3538 4550 2338 
Q 4550 1131 3912 565 
Q 3275 0 1925 0 
L 628 0 
L 628 4666 
z
" transform="scale(0.015625)"/>
     <path id="DejaVuSans-7a" d="M 353 3500 
L 3084 3500 
L 3084 2975 
L 922 459 
L 3084 459 
L 3084 0 
L 275 0 
L 275 525 
L 2438 3041 
L 353 3041 
L 353 3500 
z
" transform="scale(0.015625)"/>
     <path id="DejaVuSans-3d" d="M 678 2906 
L 4684 2906 
L 4684 2381 
L 678 2381 
L 678 2906 
z
M 678 1631 
L 4684 1631 
L 4684 1100 
L 678 1100 
L 678 1631 
z
" transform="scale(0.015625)"/>
     <path id="DejaVuSans-25" d="M 4653 2053 
Q 4381 2053 4226 1822 
Q 4072 1591 4072 1178 
Q 4072 772 4226 539 
Q 4381 306 4653 306 
Q 4919 306 5073 539 
Q 5228 772 5228 1178 
Q 5228 1588 5073 1820 
Q 4919 2053 4653 2053 
z
M 4653 2450 
Q 5147 2450 5437 2106 
Q 5728 1763 5728 1178 
Q 5728 594 5436 251 
Q 5144 -91 4653 -91 
Q 4153 -91 3862 251 
Q 3572 594 3572 1178 
Q 3572 1766 3864 2108 
Q 4156 2450 4653 2450 
z
M 1428 4353 
Q 1159 4353 1004 4120 
Q 850 3888 850 3481 
Q 850 3069 1003 2837 
Q 1156 2606 1428 2606 
Q 1700 2606 1854 2837 
Q 2009 3069 2009 3481 
Q 2009 3884 1853 4118 
Q 1697 4353 1428 4353 
z
M 4250 4750 
L 4750 4750 
L 1831 -91 
L 1331 -91 
L 4250 4750 
z
M 1428 4750 
Q 1922 4750 2215 4408 
Q 2509 4066 2509 3481 
Q 2509 2891 2217 2550 
Q 1925 2209 1428 2209 
Q 931 2209 642 2551 
Q 353 2894 353 3481 
Q 353 4063 643 4406 
Q 934 4750 1428 4750 
z
" transform="scale(0.015625)"/>
    </defs>
    <use xlink:href="#DejaVuSans-54"/>
    <use xlink:href="#DejaVuSans-72" x="46.333984"/>
    <use xlink:href="#DejaVuSans-61" x="87.447266"/>
    <use xlink:href="#DejaVuSans-69" x="148.726562"/>
    <use xlink:href="#DejaVuSans-6e" x="176.509766"/>
    <use xlink:href="#DejaVuSans-69" x="239.888672"/>
    <use xlink:href="#DejaVuSans-6e" x="267.671875"/>
    <use xlink:href="#DejaVuSans-67" x="331.050781"/>
    <use xlink:href="#DejaVuSans-20" x="394.527344"/>
    <use xlink:href="#DejaVuSans-56" x="426.314453"/>
    <use xlink:href="#DejaVuSans-53" x="494.722656"/>
    <use xlink:href="#DejaVuSans-2e" x="558.199219"/>
    <use xlink:href="#DejaVuSans-20" x="589.986328"/>
    <use xlink:href="#DejaVuSans-56" x="621.773438"/>
    <use xlink:href="#DejaVuSans-61" x="682.431641"/>
    <use xlink:href="#DejaVuSans-6c" x="743.710938"/>
    <use xlink:href="#DejaVuSans-69" x="771.494141"/>
    <use xlink:href="#DejaVuSans-64" x="799.277344"/>
    <use xlink:href="#DejaVuSans-61" x="862.753906"/>
    <use xlink:href="#DejaVuSans-74" x="924.033203"/>
    <use xlink:href="#DejaVuSans-69" x="963.242188"/>
    <use xlink:href="#DejaVuSans-6f" x="991.025391"/>
    <use xlink:href="#DejaVuSans-6e" x="1052.207031"/>
    <use xlink:href="#DejaVuSans-20" x="1115.585938"/>
    <use xlink:href="#DejaVuSans-4c" x="1147.373047"/>
    <use xlink:href="#DejaVuSans-6f" x="1201.335938"/>
    <use xlink:href="#DejaVuSans-73" x="1262.517578"/>
    <use xlink:href="#DejaVuSans-73" x="1314.617188"/>
    <use xlink:href="#DejaVuSans-20" x="1366.716797"/>
    <use xlink:href="#DejaVuSans-2d" x="1398.503906"/>
    <use xlink:href="#DejaVuSans-20" x="1434.587891"/>
    <use xlink:href="#DejaVuSans-44" x="1466.375"/>
    <use xlink:href="#DejaVuSans-61" x="1543.376953"/>
    <use xlink:href="#DejaVuSans-74" x="1604.65625"/>
    <use xlink:href="#DejaVuSans-61" x="1643.865234"/>
    <use xlink:href="#DejaVuSans-73" x="1705.144531"/>
    <use xlink:href="#DejaVuSans-65" x="1757.244141"/>
    <use xlink:href="#DejaVuSans-74" x="1818.767578"/>
    <use xlink:href="#DejaVuSans-20" x="1857.976562"/>
    <use xlink:href="#DejaVuSans-53" x="1889.763672"/>
    <use xlink:href="#DejaVuSans-69" x="1953.240234"/>
    <use xlink:href="#DejaVuSans-7a" x="1981.023438"/>
    <use xlink:href="#DejaVuSans-65" x="2033.513672"/>
    <use xlink:href="#DejaVuSans-20" x="2095.037109"/>
    <use xlink:href="#DejaVuSans-3d" x="2126.824219"/>
    <use xlink:href="#DejaVuSans-20" x="2210.613281"/>
    <use xlink:href="#DejaVuSans-31" x="2242.400391"/>
    <use xlink:href="#DejaVuSans-30" x="2306.023438"/>
    <use xlink:href="#DejaVuSans-30" x="2369.646484"/>
    <use xlink:href="#DejaVuSans-2e" x="2433.269531"/>
    <use xlink:href="#DejaVuSans-30" x="2465.056641"/>
    <use xlink:href="#DejaVuSans-25" x="2528.679688"/>
   </g>
  </g>
 </g>
 <defs>
  <clipPath id="pb501672066">
   <rect x="43.78125" y="37.296" width="279" height="202.464"/>
  </clipPath>
 </defs>
</svg>
