<?xml version="1.0" encoding="utf-8" standalone="no"?>
<!DOCTYPE svg PUBLIC "-//W3C//DTD SVG 1.1//EN"
  "http://www.w3.org/Graphics/SVG/1.1/DTD/svg11.dtd">
<svg xmlns:xlink="http://www.w3.org/1999/xlink" width="343.328516pt" height="277.31625pt" viewBox="0 0 343.328516 277.31625" xmlns="http://www.w3.org/2000/svg" version="1.1">
 <metadata>
  <rdf:RDF xmlns:dc="http://purl.org/dc/elements/1.1/" xmlns:cc="http://creativecommons.org/ns#" xmlns:rdf="http://www.w3.org/1999/02/22-rdf-syntax-ns#">
   <cc:Work>
    <dc:type rdf:resource="http://purl.org/dc/dcmitype/StillImage"/>
    <dc:date>2026-06-10T19:07:09.939077</dc:date>
    <dc:format>image/svg+xml</dc:format>
    <dc:creator>
     <cc:Agent>
      <dc:title>Matplotlib v3.8.4, https://matplotlib.org/</dc:title>
     </cc:Agent>
    </dc:creator>
   </cc:Work>
  </rdf:RDF>
 </metadata>
 <defs>
  <style type="text/css">*{stroke-linejoin: round; stroke-linecap: butt}</style>
 </defs>
 <g id="figure_1">
  <g id="patch_1">
   <path d="M 0 277.31625 
L 343.328516 277.31625 
L 343.328516 0 
L 0 0 
z
" style="fill: #ffffff"/>
  </g>
  <g id="axes_1">
   <g id="patch_2">
    <path d="M 43.78125 239.76 
L 322.78125 239.76 
L 322.78125 37.296 
L 43.78125 37.296 
z
" style="fill: #ffffff"/>
   </g>
   <g id="matplotlib.axis_1">
    <g id="xtick_1">
     <g id="line2d_1">
      <path d="M 56.209178 239.76 
L 56.209178 37.296 
" clip-path="url(#p8c6d8b0f65)" style="fill: none; stroke-dasharray: 2.96,1.28; stroke-dashoffset: 0; stroke: #b0b0b0; stroke-opacity: 0.4; stroke-width: 0.8"/>
     </g>
     <g id="line2d_2">
      <defs>
       <path id="ma71b772c86" d="M 0 0 
L 0 3.5 
" style="stroke: #000000; stroke-width: 0.8"/>
      </defs>
      <g>
       <use xlink:href="#ma71b772c86" x="56.209178" y="239.76" style="stroke: #000000; stroke-width: 0.8"/>
      </g>
     </g>
     <g id="text_1">
      <!-- 0 -->
      <g transform="translate(53.027928 254.358437) scale(0.1 -0.1)">
       <defs>
        <path id="DejaVuSans-30" d="M 2034 4250 
Q 1547 4250 1301 3770 
Q 1056 3291 1056 2328 
Q 1056 1369 1301 889 
Q 1547 409 2034 409 
Q 2525 409 2770 889 
Q 3016 1369 3016 2328 
Q 3016 3291 2770 3770 
Q 2525 4250 2034 4250 
z
M 2034 4750 
Q 2819 4750 3233 4129 
Q 3647 3509 3647 2328 
Q 3647 1150 3233 529 
Q 2819 -91 2034 -91 
Q 1250 -91 836 529 
Q 422 1150 422 2328 
Q 422 3509 836 4129 
Q 1250 4750 2034 4750 
z
" transform="scale(0.015625)"/>
       </defs>
       <use xlink:href="#DejaVuSans-30"/>
      </g>
     </g>
    </g>
    <g id="xtick_2">
     <g id="line2d_3">
      <path d="M 106.987229 239.76 
L 106.987229 37.296 
" clip-path="url(#p8c6d8b0f65)" style="fill: none; stroke-dasharray: 2.96,1.28; stroke-dashoffset: 0; stroke: #b0b0b0; stroke-opacity: 0.4; stroke-width: 0.8"/>
     </g>
     <g id="line2d_4">
      <g>
       <use xlink:href="#ma71b772c86" x="106.987229" y="239.76" style="stroke: #000000; stroke-width: 0.8"/>
      </g>
     </g>
     <g id="text_2">
      <!-- 200 -->
      <g transform="translate(97.443479 254.358437) scale(0.1 -0.1)">
       <defs>
        <path id="DejaVuSans-32" d="M 1228 531 
L 3431 531 
L 3431 0 
L 469 0 
L 469 531 
Q 828 903 1448 1529 
Q 2069 2156 2228 2338 
Q 2531 2678 2651 2914 
Q 2772 3150 2772 3378 
Q 2772 3750 2511 3984 
Q 2250 4219 1831 4219 
Q 1534 4219 1204 4116 
Q 875 4013 500 3803 
L 500 4441 
Q 881 4594 1212 4672 
Q 1544 4750 1819 4750 
Q 2544 4750 2975 4387 
Q 3406 4025 3406 3419 
Q 3406 3131 3298 2873 
Q 3191 2616 2906 2266 
Q 2828 2175 2409 1742 
Q 1991 1309 1228 531 
z
" transform="scale(0.015625)"/>
       </defs>
       <use xlink:href="#DejaVuSans-32"/>
       <use xlink:href="#DejaVuSans-30" x="63.623047"/>
       <use xlink:href="#DejaVuSans-30" x="127.246094"/>
      </g>
     </g>
    </g>
    <g id="xtick_3">
     <g id="line2d_5">
      <path d="M 157.765279 239.76 
L 157.765279 37.296 
" clip-path="url(#p8c6d8b0f65)" style="fill: none; stroke-dasharray: 2.96,1.28; stroke-dashoffset: 0; stroke: #b0b0b0; stroke-opacity: 0.4; stroke-width: 0.8"/>
     </g>
     <g id="line2d_6">
      <g>
       <use xlink:href="#ma71b772c86" x="157.765279" y="239.76" style="stroke: #000000; stroke-width: 0.8"/>
      </g>
     </g>
     <g id="text_3">
      <!-- 400 -->
      <g transform="translate(148.221529 254.358437) scale(0.1 -0.1)">
       <defs>
        <path id="DejaVuSans-34" d="M 2419 4116 
L 825 1625 
L 2419 1625 
L 2419 4116 
z
M 2253 4666 
L 3047 4666 
L 3047 1625 
L 3713 1625 
L 3713 1100 
L 3047 1100 
L 3047 0 
L 2419 0 
L 2419 1100 
L 313 1100 
L 313 1709 
L 2253 4666 
z
" transform="scale(0.015625)"/>
       </defs>
       <use xlink:href="#DejaVuSans-34"/>
       <use xlink:href="#DejaVuSans-30" x="63.623047"/>
       <use xlink:href="#DejaVuSans-30" x="127.246094"/>
      </g>
     </g>
    </g>
    <g id="xtick_4">
     <g id="line2d_7">
      <path d="M 208.54333 239.76 
L 208.54333 37.296 
" clip-path="url(#p8c6d8b0f65)" style="fill: none; stroke-dasharray: 2.96,1.28; stroke-dashoffset: 0; stroke: #b0b0b0; stroke-opacity: 0.4; stroke-width: 0.8"/>
     </g>
     <g id="line2d_8">
      <g>
       <use xlink:href="#ma71b772c86" x="208.54333" y="239.76" style="stroke: #000000; stroke-width: 0.8"/>
      </g>
     </g>
     <g id="text_4">
      <!-- 600 -->
      <g transform="translate(198.99958 254.358437) scale(0.1 -0.1)">
       <defs>
        <path id="DejaVuSans-36" d="M 2113 2584 
Q 1688 2584 1439 2293 
Q 1191 2003 1191 1497 
Q 1191 994 1439 701 
Q 1688 409 2113 409 
Q 2538 409 2786 701 
Q 3034 994 3034 1497 
Q 3034 2003 2786 2293 
Q 2538 2584 2113 2584 
z
M 3366 4563 
L 3366 3988 
Q 3128 4100 2886 4159 
Q 2644 4219 2406 4219 
Q 1781 4219 1451 3797 
Q 1122 3375 1075 2522 
Q 1259 2794 1537 2939 
Q 1816 3084 2150 3084 
Q 2853 3084 3261 2657 
Q 3669 2231 3669 1497 
Q 3669 778 3244 343 
Q 2819 -91 2113 -91 
Q 1303 -91 875 529 
Q 447 1150 447 2328 
Q 447 3434 972 4092 
Q 1497 4750 2381 4750 
Q 2619 4750 2861 4703 
Q 3103 4656 3366 4563 
z
" transform="scale(0.015625)"/>
       </defs>
       <use xlink:href="#DejaVuSans-36"/>
       <use xlink:href="#DejaVuSans-30" x="63.623047"/>
       <use xlink:href="#DejaVuSans-30" x="127.246094"/>
      </g>
     </g>
    </g>
    <g id="xtick_5">
     <g id="line2d_9">
      <path d="M 259.321381 239.76 
L 259.321381 37.296 
" clip-path="url(#p8c6d8b0f65)" style="fill: none; stroke-dasharray: 2.96,1.28; stroke-dashoffset: 0; stroke: #b0b0b0; stroke-opacity: 0.4; stroke-width: 0.8"/>
     </g>
     <g id="line2d_10">
      <g>
       <use xlink:href="#ma71b772c86" x="259.321381" y="239.76" style="stroke: #000000; stroke-width: 0.8"/>
      </g>
     </g>
     <g id="text_5">
      <!-- 800 -->
      <g transform="translate(249.777631 254.358437) scale(0.1 -0.1)">
       <defs>
        <path id="DejaVuSans-38" d="M 2034 2216 
Q 1584 2216 1326 1975 
Q 1069 1734 1069 1313 
Q 1069 891 1326 650 
Q 1584 409 2034 409 
Q 2484 409 2743 651 
Q 3003 894 3003 1313 
Q 3003 1734 2745 1975 
Q 2488 2216 2034 2216 
z
M 1403 2484 
Q 997 2584 770 2862 
Q 544 3141 544 3541 
Q 544 4100 942 4425 
Q 1341 4750 2034 4750 
Q 2731 4750 3128 4425 
Q 3525 4100 3525 3541 
Q 3525 3141 3298 2862 
Q 3072 2584 2669 2484 
Q 3125 2378 3379 2068 
Q 3634 1759 3634 1313 
Q 3634 634 3220 271 
Q 2806 -91 2034 -91 
Q 1263 -91 848 271 
Q 434 634 434 1313 
Q 434 1759 690 2068 
Q 947 2378 1403 2484 
z
M 1172 3481 
Q 1172 3119 1398 2916 
Q 1625 2713 2034 2713 
Q 2441 2713 2670 2916 
Q 2900 3119 2900 3481 
Q 2900 3844 2670 4047 
Q 2441 4250 2034 4250 
Q 1625 4250 1398 4047 
Q 1172 3844 1172 3481 
z
" transform="scale(0.015625)"/>
       </defs>
       <use xlink:href="#DejaVuSans-38"/>
       <use xlink:href="#DejaVuSans-30" x="63.623047"/>
       <use xlink:href="#DejaVuSans-30" x="127.246094"/>
      </g>
     </g>
    </g>
    <g id="xtick_6">
     <g id="line2d_11">
      <path d="M 310.099432 239.76 
L 310.099432 37.296 
" clip-path="url(#p8c6d8b0f65)" style="fill: none; stroke-dasharray: 2.96,1.28; stroke-dashoffset: 0; stroke: #b0b0b0; stroke-opacity: 0.4; stroke-width: 0.8"/>
     </g>
     <g id="line2d_12">
      <g>
       <use xlink:href="#ma71b772c86" x="310.099432" y="239.76" style="stroke: #000000; stroke-width: 0.8"/>
      </g>
     </g>
     <g id="text_6">
      <!-- 1000 -->
      <g transform="translate(297.374432 254.358437) scale(0.1 -0.1)">
       <defs>
        <path id="DejaVuSans-31" d="M 794 531 
L 1825 531 
L 1825 4091 
L 703 3866 
L 703 4441 
L 1819 4666 
L 2450 4666 
L 2450 531 
L 3481 531 
L 3481 0 
L 794 0 
L 794 531 
z
" transform="scale(0.015625)"/>
       </defs>
       <use xlink:href="#DejaVuSans-31"/>
       <use xlink:href="#DejaVuSans-30" x="63.623047"/>
       <use xlink:href="#DejaVuSans-30" x="127.246094"/>
       <use xlink:href="#DejaVuSans-30" x="190.869141"/>
      </g>
     </g>
    </g>
    <g id="text_7">
     <!-- Epochs -->
     <g transform="translate(165.365625 268.036562) scale(0.1 -0.1)">
      <defs>
       <path id="DejaVuSans-45" d="M 628 4666 
L 3578 4666 
L 3578 4134 
L 1259 4134 
L 1259 2753 
L 3481 2753 
L 3481 2222 
L 1259 2222 
L 1259 531 
L 3634 531 
L 3634 0 
L 628 0 
L 628 4666 
z
" transform="scale(0.015625)"/>
       <path id="DejaVuSans-70" d="M 1159 525 
L 1159 -1331 
L 581 -1331 
L 581 3500 
L 1159 3500 
L 1159 2969 
Q 1341 3281 1617 3432 
Q 1894 3584 2278 3584 
Q 2916 3584 3314 3078 
Q 3713 2572 3713 1747 
Q 3713 922 3314 415 
Q 2916 -91 2278 -91 
Q 1894 -91 1617 61 
Q 1341 213 1159 525 
z
M 3116 1747 
Q 3116 2381 2855 2742 
Q 2594 3103 2138 3103 
Q 1681 3103 1420 2742 
Q 1159 2381 1159 1747 
Q 1159 1113 1420 752 
Q 1681 391 2138 391 
Q 2594 391 2855 752 
Q 3116 1113 3116 1747 
z
" transform="scale(0.015625)"/>
       <path id="DejaVuSans-6f" d="M 1959 3097 
Q 1497 3097 1228 2736 
Q 959 2375 959 1747 
Q 959 1119 1226 758 
Q 1494 397 1959 397 
Q 2419 397 2687 759 
Q 2956 1122 2956 1747 
Q 2956 2369 2687 2733 
Q 2419 3097 1959 3097 
z
M 1959 3584 
Q 2709 3584 3137 3096 
Q 3566 2609 3566 1747 
Q 3566 888 3137 398 
Q 2709 -91 1959 -91 
Q 1206 -91 779 398 
Q 353 888 353 1747 
Q 353 2609 779 3096 
Q 1206 3584 1959 3584 
z
" transform="scale(0.015625)"/>
       <path id="DejaVuSans-63" d="M 3122 3366 
L 3122 2828 
Q 2878 2963 2633 3030 
Q 2388 3097 2138 3097 
Q 1578 3097 1268 2742 
Q 959 2388 959 1747 
Q 959 1106 1268 751 
Q 1578 397 2138 397 
Q 2388 397 2633 464 
Q 2878 531 3122 666 
L 3122 134 
Q 2881 22 2623 -34 
Q 2366 -91 2075 -91 
Q 1284 -91 818 406 
Q 353 903 353 1747 
Q 353 2603 823 3093 
Q 1294 3584 2113 3584 
Q 2378 3584 2631 3529 
Q 2884 3475 3122 3366 
z
" transform="scale(0.015625)"/>
       <path id="DejaVuSans-68" d="M 3513 2113 
L 3513 0 
L 2938 0 
L 2938 2094 
Q 2938 2591 2744 2837 
Q 2550 3084 2163 3084 
Q 1697 3084 1428 2787 
Q 1159 2491 1159 1978 
L 1159 0 
L 581 0 
L 581 4863 
L 1159 4863 
L 1159 2956 
Q 1366 3272 1645 3428 
Q 1925 3584 2291 3584 
Q 2894 3584 3203 3211 
Q 3513 2838 3513 2113 
z
" transform="scale(0.015625)"/>
       <path id="DejaVuSans-73" d="M 2834 3397 
L 2834 2853 
Q 2591 2978 2328 3040 
Q 2066 3103 1784 3103 
Q 1356 3103 1142 2972 
Q 928 2841 928 2578 
Q 928 2378 1081 2264 
Q 1234 2150 1697 2047 
L 1894 2003 
Q 2506 1872 2764 1633 
Q 3022 1394 3022 966 
Q 3022 478 2636 193 
Q 2250 -91 1575 -91 
Q 1294 -91 989 -36 
Q 684 19 347 128 
L 347 722 
Q 666 556 975 473 
Q 1284 391 1588 391 
Q 1994 391 2212 530 
Q 2431 669 2431 922 
Q 2431 1156 2273 1281 
Q 2116 1406 1581 1522 
L 1381 1569 
Q 847 1681 609 1914 
Q 372 2147 372 2553 
Q 372 3047 722 3315 
Q 1072 3584 1716 3584 
Q 2034 3584 2315 3537 
Q 2597 3491 2834 3397 
z
" transform="scale(0.015625)"/>
      </defs>
      <use xlink:href="#DejaVuSans-45"/>
      <use xlink:href="#DejaVuSans-70" x="63.183594"/>
      <use xlink:href="#DejaVuSans-6f" x="126.660156"/>
      <use xlink:href="#DejaVuSans-63" x="187.841797"/>
      <use xlink:href="#DejaVuSans-68" x="242.822266"/>
      <use xlink:href="#DejaVuSans-73" x="306.201172"/>
     </g>
    </g>
   </g>
   <g id="matplotlib.axis_2">
    <g id="ytick_1">
     <g id="line2d_13">
      <path d="M 43.78125 228.951895 
L 322.78125 228.951895 
" clip-path="url(#p8c6d8b0f65)" style="fill: none; stroke-dasharray: 2.96,1.28; stroke-dashoffset: 0; stroke: #b0b0b0; stroke-opacity: 0.4; stroke-width: 0.8"/>
     </g>
     <g id="line2d_14">
      <defs>
       <path id="mb07819e392" d="M 0 0 
L -3.5 0 
" style="stroke: #000000; stroke-width: 0.8"/>
      </defs>
      <g>
       <use xlink:href="#mb07819e392" x="43.78125" y="228.951895" style="stroke: #000000; stroke-width: 0.8"/>
      </g>
     </g>
     <g id="text_8">
      <!-- 0.5 -->
      <g transform="translate(20.878125 232.751113) scale(0.1 -0.1)">
       <defs>
        <path id="DejaVuSans-2e" d="M 684 794 
L 1344 794 
L 1344 0 
L 684 0 
L 684 794 
z
" transform="scale(0.015625)"/>
        <path id="DejaVuSans-35" d="M 691 4666 
L 3169 4666 
L 3169 4134 
L 1269 4134 
L 1269 2991 
Q 1406 3038 1543 3061 
Q 1681 3084 1819 3084 
Q 2600 3084 3056 2656 
Q 3513 2228 3513 1497 
Q 3513 744 3044 326 
Q 2575 -91 1722 -91 
Q 1428 -91 1123 -41 
Q 819 9 494 109 
L 494 744 
Q 775 591 1075 516 
Q 1375 441 1709 441 
Q 2250 441 2565 725 
Q 2881 1009 2881 1497 
Q 2881 1984 2565 2268 
Q 2250 2553 1709 2553 
Q 1456 2553 1204 2497 
Q 953 2441 691 2322 
L 691 4666 
z
" transform="scale(0.015625)"/>
       </defs>
       <use xlink:href="#DejaVuSans-30"/>
       <use xlink:href="#DejaVuSans-2e" x="63.623047"/>
       <use xlink:href="#DejaVuSans-35" x="95.410156"/>
      </g>
     </g>
    </g>
    <g id="ytick_2">
     <g id="line2d_15">
      <path d="M 43.78125 188.287011 
L 322.78125 188.287011 
" clip-path="url(#p8c6d8b0f65)" style="fill: none; stroke-dasharray: 2.96,1.28; stroke-dashoffset: 0; stroke: #b0b0b0; stroke-opacity: 0.4; stroke-width: 0.8"/>
     </g>
     <g id="line2d_16">
      <g>
       <use xlink:href="#mb07819e392" x="43.78125" y="188.287011" style="stroke: #000000; stroke-width: 0.8"/>
      </g>
     </g>
     <g id="text_9">
      <!-- 0.6 -->
      <g transform="translate(20.878125 192.08623) scale(0.1 -0.1)">
       <use xlink:href="#DejaVuSans-30"/>
       <use xlink:href="#DejaVuSans-2e" x="63.623047"/>
       <use xlink:href="#DejaVuSans-36" x="95.410156"/>
      </g>
     </g>
    </g>
    <g id="ytick_3">
     <g id="line2d_17">
      <path d="M 43.78125 147.622128 
L 322.78125 147.622128 
" clip-path="url(#p8c6d8b0f65)" style="fill: none; stroke-dasharray: 2.96,1.28; stroke-dashoffset: 0; stroke: #b0b0b0; stroke-opacity: 0.4; stroke-width: 0.8"/>
     </g>
     <g id="line2d_18">
      <g>
       <use xlink:href="#mb07819e392" x="43.78125" y="147.622128" style="stroke: #000000; stroke-width: 0.8"/>
      </g>
     </g>
     <g id="text_10">
      <!-- 0.7 -->
      <g transform="translate(20.878125 151.421347) scale(0.1 -0.1)">
       <defs>
        <path id="DejaVuSans-37" d="M 525 4666 
L 3525 4666 
L 3525 4397 
L 1831 0 
L 1172 0 
L 2766 4134 
L 525 4134 
L 525 4666 
z
" transform="scale(0.015625)"/>
       </defs>
       <use xlink:href="#DejaVuSans-30"/>
       <use xlink:href="#DejaVuSans-2e" x="63.623047"/>
       <use xlink:href="#DejaVuSans-37" x="95.410156"/>
      </g>
     </g>
    </g>
    <g id="ytick_4">
     <g id="line2d_19">
      <path d="M 43.78125 106.957245 
L 322.78125 106.957245 
" clip-path="url(#p8c6d8b0f65)" style="fill: none; stroke-dasharray: 2.96,1.28; stroke-dashoffset: 0; stroke: #b0b0b0; stroke-opacity: 0.4; stroke-width: 0.8"/>
     </g>
     <g id="line2d_20">
      <g>
       <use xlink:href="#mb07819e392" x="43.78125" y="106.957245" style="stroke: #000000; stroke-width: 0.8"/>
      </g>
     </g>
     <g id="text_11">
      <!-- 0.8 -->
      <g transform="translate(20.878125 110.756464) scale(0.1 -0.1)">
       <use xlink:href="#DejaVuSans-30"/>
       <use xlink:href="#DejaVuSans-2e" x="63.623047"/>
       <use xlink:href="#DejaVuSans-38" x="95.410156"/>
      </g>
     </g>
    </g>
    <g id="ytick_5">
     <g id="line2d_21">
      <path d="M 43.78125 66.292362 
L 322.78125 66.292362 
" clip-path="url(#p8c6d8b0f65)" style="fill: none; stroke-dasharray: 2.96,1.28; stroke-dashoffset: 0; stroke: #b0b0b0; stroke-opacity: 0.4; stroke-width: 0.8"/>
     </g>
     <g id="line2d_22">
      <g>
       <use xlink:href="#mb07819e392" x="43.78125" y="66.292362" style="stroke: #000000; stroke-width: 0.8"/>
      </g>
     </g>
     <g id="text_12">
      <!-- 0.9 -->
      <g transform="translate(20.878125 70.091581) scale(0.1 -0.1)">
       <defs>
        <path id="DejaVuSans-39" d="M 703 97 
L 703 672 
Q 941 559 1184 500 
Q 1428 441 1663 441 
Q 2288 441 2617 861 
Q 2947 1281 2994 2138 
Q 2813 1869 2534 1725 
Q 2256 1581 1919 1581 
Q 1219 1581 811 2004 
Q 403 2428 403 3163 
Q 403 3881 828 4315 
Q 1253 4750 1959 4750 
Q 2769 4750 3195 4129 
Q 3622 3509 3622 2328 
Q 3622 1225 3098 567 
Q 2575 -91 1691 -91 
Q 1453 -91 1209 -44 
Q 966 3 703 97 
z
M 1959 2075 
Q 2384 2075 2632 2365 
Q 2881 2656 2881 3163 
Q 2881 3666 2632 3958 
Q 2384 4250 1959 4250 
Q 1534 4250 1286 3958 
Q 1038 3666 1038 3163 
Q 1038 2656 1286 2365 
Q 1534 2075 1959 2075 
z
" transform="scale(0.015625)"/>
       </defs>
       <use xlink:href="#DejaVuSans-30"/>
       <use xlink:href="#DejaVuSans-2e" x="63.623047"/>
       <use xlink:href="#DejaVuSans-39" x="95.410156"/>
      </g>
     </g>
    </g>
    <g id="text_13">
     <!-- Accuracy -->
     <g transform="translate(14.798438 161.356125) rotate(-90) scale(0.1 -0.1)">
      <defs>
       <path id="DejaVuSans-41" d="M 2188 4044 
L 1331 1722 
L 3047 1722 
L 2188 4044 
z
M 1831 4666 
L 2547 4666 
L 4325 0 
L 3669 0 
L 3244 1197 
L 1141 1197 
L 716 0 
L 50 0 
L 1831 4666 
z
" transform="scale(0.015625)"/>
       <path id="DejaVuSans-75" d="M 544 1381 
L 544 3500 
L 1119 3500 
L 1119 1403 
Q 1119 906 1312 657 
Q 1506 409 1894 409 
Q 2359 409 2629 706 
Q 2900 1003 2900 1516 
L 2900 3500 
L 3475 3500 
L 3475 0 
L 2900 0 
L 2900 538 
Q 2691 219 2414 64 
Q 2138 -91 1772 -91 
Q 1169 -91 856 284 
Q 544 659 544 1381 
z
M 1991 3584 
L 1991 3584 
z
" transform="scale(0.015625)"/>
       <path id="DejaVuSans-72" d="M 2631 2963 
Q 2534 3019 2420 3045 
Q 2306 3072 2169 3072 
Q 1681 3072 1420 2755 
Q 1159 2438 1159 1844 
L 1159 0 
L 581 0 
L 581 3500 
L 1159 3500 
L 1159 2956 
Q 1341 3275 1631 3429 
Q 1922 3584 2338 3584 
Q 2397 3584 2469 3576 
Q 2541 3569 2628 3553 
L 2631 2963 
z
" transform="scale(0.015625)"/>
       <path id="DejaVuSans-61" d="M 2194 1759 
Q 1497 1759 1228 1600 
Q 959 1441 959 1056 
Q 959 750 1161 570 
Q 1363 391 1709 391 
Q 2188 391 2477 730 
Q 2766 1069 2766 1631 
L 2766 1759 
L 2194 1759 
z
M 3341 1997 
L 3341 0 
L 2766 0 
L 2766 531 
Q 2569 213 2275 61 
Q 1981 -91 1556 -91 
Q 1019 -91 701 211 
Q 384 513 384 1019 
Q 384 1609 779 1909 
Q 1175 2209 1959 2209 
L 2766 2209 
L 2766 2266 
Q 2766 2663 2505 2880 
Q 2244 3097 1772 3097 
Q 1472 3097 1187 3025 
Q 903 2953 641 2809 
L 641 3341 
Q 956 3463 1253 3523 
Q 1550 3584 1831 3584 
Q 2591 3584 2966 3190 
Q 3341 2797 3341 1997 
z
" transform="scale(0.015625)"/>
       <path id="DejaVuSans-79" d="M 2059 -325 
Q 1816 -950 1584 -1140 
Q 1353 -1331 966 -1331 
L 506 -1331 
L 506 -850 
L 844 -850 
Q 1081 -850 1212 -737 
Q 1344 -625 1503 -206 
L 1606 56 
L 191 3500 
L 800 3500 
L 1894 763 
L 2988 3500 
L 3597 3500 
L 2059 -325 
z
" transform="scale(0.015625)"/>
      </defs>
      <use xlink:href="#DejaVuSans-41"/>
      <use xlink:href="#DejaVuSans-63" x="66.658203"/>
      <use xlink:href="#DejaVuSans-63" x="121.638672"/>
      <use xlink:href="#DejaVuSans-75" x="176.619141"/>
      <use xlink:href="#DejaVuSans-72" x="239.998047"/>
      <use xlink:href="#DejaVuSans-61" x="281.111328"/>
      <use xlink:href="#DejaVuSans-63" x="342.390625"/>
      <use xlink:href="#DejaVuSans-79" x="397.371094"/>
     </g>
    </g>
   </g>
   <g id="line2d_23">
    <path d="M 56.463068 228.607858 
L 56.716958 223.103299 
L 56.970849 227.117042 
L 57.224739 226.658335 
L 57.478629 226.543664 
L 57.732519 224.25008 
L 57.98641 223.217994 
L 58.2403 226.084932 
L 58.49419 221.268447 
L 58.74808 225.970262 
L 59.509751 213.240986 
L 59.763641 216.107949 
L 60.017532 207.851099 
L 60.525312 184.571437 
L 61.033093 168.860529 
L 61.286983 170.007309 
L 61.540873 214.387766 
L 61.794764 204.410758 
L 62.048654 201.54382 
L 62.302544 191.910849 
L 62.556434 176.773319 
L 62.810325 179.640281 
L 63.064215 161.635813 
L 63.318105 151.658805 
L 63.571995 175.167831 
L 63.825886 144.434064 
L 64.079776 146.383612 
L 64.333666 185.144839 
L 64.841447 143.860686 
L 65.095337 164.273409 
L 65.349227 141.33776 
L 65.857008 125.512181 
L 66.364788 138.700164 
L 66.618678 124.365401 
L 66.872569 132.16352 
L 67.126459 132.851569 
L 67.380349 115.305808 
L 67.634239 141.108419 
L 67.88813 110.374651 
L 68.14202 121.842475 
L 68.39591 114.044357 
L 68.6498 118.28744 
L 68.903691 106.704945 
L 69.157581 107.048982 
L 69.411471 104.640751 
L 69.665361 100.512338 
L 69.919252 103.608642 
L 70.173142 118.058099 
L 70.427032 115.87921 
L 70.680922 97.989412 
L 70.934813 98.448119 
L 71.188703 102.691227 
L 71.442593 102.232496 
L 71.696483 96.26923 
L 71.950374 95.12245 
L 72.204264 95.351816 
L 72.712044 98.677485 
L 72.965935 92.484854 
L 73.219825 96.154559 
L 73.473715 91.338073 
L 73.727605 93.746329 
L 73.981496 89.273879 
L 74.235386 92.370183 
L 74.743166 86.177551 
L 74.997057 88.24177 
L 75.250947 88.471111 
L 75.504837 87.209661 
L 76.012618 82.163833 
L 76.266508 85.604173 
L 76.520398 81.819797 
L 76.774288 83.081248 
L 77.028179 82.62254 
L 77.282069 80.902358 
L 77.535959 82.278504 
L 77.78985 82.163833 
L 78.04374 80.902358 
L 78.29763 82.62254 
L 78.55152 80.214285 
L 78.805411 80.32898 
L 79.059301 86.980295 
L 79.313191 78.952835 
L 79.567081 77.117982 
L 79.820972 80.32898 
L 80.074862 77.576689 
L 80.328752 79.755578 
L 80.582642 77.806055 
L 80.836533 80.099615 
L 81.090423 78.838164 
L 81.344313 75.856531 
L 81.598203 77.806055 
L 82.105984 75.283129 
L 82.359874 76.773945 
L 82.613764 76.429909 
L 82.867655 74.136349 
L 83.121545 74.365715 
L 83.375435 73.10424 
L 83.629325 74.939092 
L 83.883216 75.627165 
L 84.137106 73.906983 
L 84.390996 74.25102 
L 84.644886 76.54458 
L 84.898777 75.627165 
L 85.152667 75.971202 
L 85.406557 73.792312 
L 85.660447 72.645532 
L 85.914338 73.562947 
L 86.168228 73.792312 
L 86.422118 72.760203 
L 86.676008 74.480385 
L 87.183789 72.186825 
L 87.437679 73.10424 
L 87.691569 74.824422 
L 87.94546 73.218935 
L 88.45324 72.07213 
L 88.70713 71.728118 
L 89.214911 72.645532 
L 89.468801 72.07213 
L 89.722691 70.92535 
L 89.976582 72.186825 
L 90.230472 72.301496 
L 90.484362 69.893265 
L 90.738252 72.874898 
L 90.992143 71.613423 
L 91.246033 72.186825 
L 91.499923 70.237302 
L 91.753813 71.040045 
L 92.007704 70.122607 
L 92.261594 69.6639 
L 92.769374 70.696009 
L 93.023265 70.237302 
L 93.277155 70.696009 
L 93.531045 70.466643 
L 94.038826 68.975827 
L 94.292716 68.861156 
L 94.546606 71.269387 
L 94.800497 70.351972 
L 95.054387 67.370339 
L 95.308277 70.466643 
L 95.562167 70.466643 
L 95.816058 67.370339 
L 96.069948 69.6639 
L 96.323838 67.255669 
L 96.577728 67.140974 
L 96.831619 67.370339 
L 97.085509 68.975827 
L 97.339399 68.63179 
L 97.84718 66.911632 
L 98.35496 68.517119 
L 98.60885 66.33823 
L 98.862741 65.420816 
L 99.116631 67.599705 
L 99.370521 68.287754 
L 99.624411 66.911632 
L 100.132192 69.090522 
L 100.386082 67.026303 
L 100.639972 68.861156 
L 100.893863 66.108889 
L 101.147753 66.682267 
L 101.401643 68.402449 
L 101.655533 66.452901 
L 101.909424 67.026303 
L 102.163314 66.796937 
L 102.417204 66.33823 
L 102.671094 64.04467 
L 103.178875 66.223559 
L 103.432765 65.19145 
L 103.686655 67.943717 
L 103.940546 66.108889 
L 104.194436 67.829047 
L 104.448326 66.223559 
L 104.702216 67.829047 
L 104.956107 64.618072 
L 105.209997 65.994194 
L 105.463887 66.452901 
L 105.717777 66.33823 
L 105.971668 63.700634 
L 106.225558 65.994194 
L 106.479448 66.223559 
L 106.733338 65.306121 
L 106.987229 66.33823 
L 107.241119 62.439183 
L 107.495009 66.108889 
L 107.748899 64.274036 
L 108.25668 65.420816 
L 108.51057 63.012561 
L 108.76446 65.650157 
L 109.018351 63.127256 
L 109.272241 63.012561 
L 109.526131 62.209817 
L 109.780021 64.04467 
L 110.033912 64.388707 
L 110.287802 63.929999 
L 110.541692 63.929999 
L 110.795583 64.159341 
L 111.557253 62.209817 
L 111.811144 64.732743 
L 112.065034 64.503377 
L 112.318924 62.89789 
L 112.572814 65.19145 
L 112.826705 63.012561 
L 113.080595 62.553854 
L 113.334485 62.89789 
L 113.588375 61.407074 
L 113.842266 62.783219 
L 114.096156 61.063037 
L 114.350046 61.407074 
L 114.603936 62.783219 
L 114.857827 61.292403 
L 115.111717 60.60433 
L 115.365607 61.407074 
L 115.619497 59.228184 
L 115.873388 60.374964 
L 116.127278 60.948366 
L 116.381168 60.260294 
L 116.635058 62.439183 
L 116.888949 61.063037 
L 117.142839 61.063037 
L 117.396729 63.929999 
L 117.650619 60.030928 
L 117.90451 58.425441 
L 118.1584 61.75111 
L 118.41229 62.324488 
L 118.66618 59.686891 
L 118.920071 61.75111 
L 119.427851 60.030928 
L 119.681741 60.260294 
L 119.935632 59.572221 
L 120.443412 63.127256 
L 120.951193 58.654806 
L 121.205083 58.196075 
L 121.458973 61.177708 
L 121.712863 59.45755 
L 121.966754 59.916257 
L 122.220644 59.916257 
L 122.474534 60.719001 
L 122.728424 62.324488 
L 123.236205 58.425441 
L 123.490095 58.31077 
L 123.997876 60.374964 
L 124.251766 57.049295 
L 124.505656 57.16399 
L 124.759546 56.819954 
L 125.013437 56.934624 
L 125.521217 59.45755 
L 125.775107 56.819954 
L 126.028998 57.278661 
L 126.282888 57.393331 
L 126.536778 56.131881 
L 126.790669 58.540111 
L 127.044559 57.16399 
L 127.552339 57.049295 
L 127.80623 57.508002 
L 128.06012 56.819954 
L 128.31401 55.558479 
L 128.5679 56.590588 
L 128.821791 56.246551 
L 129.075681 55.558479 
L 129.329571 56.705259 
L 129.583461 56.475917 
L 129.837352 57.049295 
L 130.091242 56.934624 
L 130.345132 57.16399 
L 130.599022 56.017186 
L 130.852913 57.508002 
L 131.106803 55.558479 
L 131.360693 57.393331 
L 131.614583 54.641064 
L 131.868474 56.017186 
L 132.122364 56.017186 
L 132.376254 57.966734 
L 132.630144 55.214442 
L 132.884035 55.787844 
L 133.137925 55.673174 
L 133.391815 55.902515 
L 133.645705 55.214442 
L 133.899596 54.870406 
L 134.153486 55.558479 
L 134.407376 55.214442 
L 134.661266 56.590588 
L 135.422937 56.246551 
L 135.676827 54.870406 
L 135.930718 55.558479 
L 136.184608 55.673174 
L 136.438498 54.297028 
L 136.692388 54.985101 
L 136.946279 53.494284 
L 137.200169 54.411699 
L 137.454059 54.067662 
L 137.707949 52.462175 
L 137.96184 52.691541 
L 138.21573 54.870406 
L 138.46962 52.576846 
L 138.72351 54.182357 
L 139.485181 52.347504 
L 139.739071 54.985101 
L 139.992962 53.608955 
L 140.246852 53.150248 
L 140.500742 52.003468 
L 140.754632 53.035553 
L 141.008523 52.118138 
L 141.262413 53.723626 
L 141.516303 51.888773 
L 141.770193 56.131881 
L 142.277974 53.952991 
L 142.531864 54.182357 
L 142.785755 51.774102 
L 143.039645 54.755735 
L 143.293535 53.379589 
L 143.547425 53.952991 
L 143.801316 53.608955 
L 144.055206 53.838321 
L 144.309096 51.659431 
L 144.562986 52.232809 
L 144.816877 53.379589 
L 145.070767 52.691541 
L 145.324657 53.035553 
L 145.578547 51.544736 
L 145.832438 52.462175 
L 146.086328 52.232809 
L 146.594108 52.232809 
L 146.847999 52.920882 
L 147.101889 54.985101 
L 147.355779 51.430066 
L 147.609669 53.379589 
L 147.86356 53.838321 
L 148.11745 51.086029 
L 148.37134 53.494284 
L 148.62523 52.806211 
L 148.879121 52.920882 
L 149.133011 52.806211 
L 149.386901 53.494284 
L 149.640791 53.379589 
L 149.894682 52.806211 
L 150.148572 50.971358 
L 150.402462 52.806211 
L 150.656352 52.462175 
L 150.910243 53.379589 
L 151.164133 52.003468 
L 151.418023 53.150248 
L 151.671913 51.888773 
L 151.925804 51.544736 
L 152.179694 51.659431 
L 152.687474 50.741993 
L 152.941365 52.118138 
L 153.195255 50.971358 
L 153.449145 51.659431 
L 153.703035 51.315395 
L 153.956926 50.741993 
L 154.210816 53.264919 
L 154.464706 49.939249 
L 154.718596 50.627322 
L 154.972487 52.576846 
L 155.226377 52.462175 
L 155.480267 50.283286 
L 155.734157 49.709908 
L 155.988048 52.118138 
L 156.241938 52.232809 
L 156.495828 50.856688 
L 156.749718 50.627322 
L 157.003609 50.971358 
L 157.257499 52.347504 
L 157.511389 49.939249 
L 157.765279 51.430066 
L 158.01917 50.283286 
L 158.27306 51.086029 
L 158.52695 52.576846 
L 158.78084 50.741993 
L 159.034731 52.806211 
L 159.288621 51.774102 
L 159.542511 51.774102 
L 159.796402 52.462175 
L 160.050292 51.774102 
L 160.304182 49.595213 
L 160.558072 51.086029 
L 160.811963 51.659431 
L 161.065853 51.544736 
L 161.319743 52.691541 
L 161.573633 50.627322 
L 161.827524 50.741993 
L 162.081414 52.118138 
L 162.335304 49.939249 
L 162.589194 52.920882 
L 163.096975 50.168615 
L 163.350865 50.397956 
L 163.604755 50.856688 
L 163.858646 52.806211 
L 164.112536 50.283286 
L 164.620316 51.200724 
L 164.874207 49.709908 
L 165.128097 49.709908 
L 165.381987 51.544736 
L 165.635877 50.283286 
L 165.889768 50.741993 
L 166.143658 51.659431 
L 166.397548 50.971358 
L 166.651438 50.627322 
L 166.905329 51.430066 
L 167.159219 51.315395 
L 167.666999 48.90714 
L 168.17478 52.462175 
L 168.42867 49.365871 
L 168.68256 51.200724 
L 168.936451 51.774102 
L 169.190341 49.939249 
L 169.444231 50.283286 
L 169.698121 52.576846 
L 169.952012 50.283286 
L 170.205902 49.709908 
L 170.459792 50.05392 
L 170.713682 51.200724 
L 170.967573 50.397956 
L 171.221463 48.563103 
L 171.475353 49.136506 
L 171.729243 52.347504 
L 172.490914 49.939249 
L 172.744804 48.104396 
L 172.998695 49.480542 
L 173.252585 49.709908 
L 173.506475 51.659431 
L 173.760365 49.251176 
L 174.014256 52.003468 
L 174.268146 51.888773 
L 174.522036 50.05392 
L 174.775926 49.251176 
L 175.029817 50.971358 
L 175.283707 50.05392 
L 175.537597 50.856688 
L 175.791488 49.824578 
L 176.045378 49.939249 
L 176.553158 51.086029 
L 176.807049 50.283286 
L 177.060939 50.283286 
L 177.314829 49.136506 
L 177.568719 50.283286 
L 177.82261 49.595213 
L 178.0765 50.856688 
L 178.33039 49.939249 
L 178.58428 51.544736 
L 178.838171 50.168615 
L 179.092061 50.741993 
L 179.345951 51.659431 
L 179.599841 50.856688 
L 179.853732 53.150248 
L 180.361512 49.939249 
L 180.869293 50.627322 
L 181.123183 51.315395 
L 181.377073 50.283286 
L 181.884854 50.512651 
L 182.138744 50.168615 
L 182.392634 49.365871 
L 182.646524 49.939249 
L 182.900415 49.709908 
L 183.154305 51.315395 
L 183.408195 49.136506 
L 183.662085 50.05392 
L 183.915976 49.365871 
L 184.169866 51.544736 
L 184.423756 50.168615 
L 184.677646 50.971358 
L 184.931537 49.824578 
L 185.185427 50.741993 
L 185.439317 47.76036 
L 185.693207 50.283286 
L 185.947098 51.430066 
L 186.200988 49.824578 
L 186.454878 49.251176 
L 186.708768 50.971358 
L 186.962659 51.430066 
L 187.470439 50.283286 
L 187.724329 51.086029 
L 187.97822 49.595213 
L 188.23211 50.397956 
L 188.486 49.939249 
L 188.73989 50.168615 
L 188.993781 48.792469 
L 189.247671 50.168615 
L 189.501561 49.136506 
L 189.755451 51.315395 
L 190.009342 49.480542 
L 190.263232 49.595213 
L 190.517122 51.200724 
L 190.771012 49.021835 
L 191.024903 48.792469 
L 191.532683 50.05392 
L 191.786574 50.283286 
L 192.040464 51.774102 
L 192.294354 51.200724 
L 192.548244 50.05392 
L 192.802135 49.709908 
L 193.056025 50.971358 
L 193.309915 49.021835 
L 193.817696 50.512651 
L 194.071586 50.168615 
L 194.325476 49.595213 
L 194.579366 50.512651 
L 194.833257 48.563103 
L 195.087147 49.136506 
L 195.594927 49.709908 
L 195.848818 50.397956 
L 196.102708 48.677798 
L 196.356598 50.05392 
L 196.610488 48.90714 
L 196.864379 48.333762 
L 197.372159 50.971358 
L 197.626049 50.05392 
L 197.87994 51.659431 
L 198.13383 50.168615 
L 198.38772 49.595213 
L 198.64161 52.462175 
L 198.895501 48.90714 
L 199.149391 50.05392 
L 199.403281 49.709908 
L 199.657171 49.824578 
L 199.911062 48.792469 
L 200.418842 50.05392 
L 200.672732 48.90714 
L 200.926623 51.315395 
L 201.180513 47.416323 
L 201.688293 50.741993 
L 201.942184 47.416323 
L 202.196074 49.251176 
L 202.449964 49.939249 
L 202.703854 47.531018 
L 202.957745 49.365871 
L 203.211635 48.563103 
L 203.719415 50.971358 
L 203.973306 49.709908 
L 204.227196 49.824578 
L 204.481086 49.136506 
L 204.734976 51.888773 
L 205.242757 49.251176 
L 205.496647 49.824578 
L 205.750537 50.741993 
L 206.004428 48.677798 
L 206.258318 49.824578 
L 206.512208 47.301653 
L 206.766098 49.709908 
L 207.019989 50.741993 
L 207.273879 50.168615 
L 207.527769 50.741993 
L 208.03555 49.136506 
L 208.28944 50.283286 
L 208.54333 48.677798 
L 208.797221 50.512651 
L 209.051111 47.76036 
L 209.558891 50.627322 
L 209.812782 50.283286 
L 210.066672 50.741993 
L 210.320562 50.397956 
L 210.574452 49.709908 
L 210.828343 48.219091 
L 211.082233 48.219091 
L 211.336123 50.168615 
L 211.843904 48.792469 
L 212.351684 50.856688 
L 212.605574 49.709908 
L 212.859465 49.595213 
L 213.113355 48.90714 
L 213.367245 50.856688 
L 213.621135 49.824578 
L 213.875026 51.086029 
L 214.128916 49.939249 
L 214.382806 50.512651 
L 214.636696 49.251176 
L 214.890587 49.251176 
L 215.144477 49.595213 
L 215.398367 48.563103 
L 215.652257 49.709908 
L 216.160038 48.219091 
L 216.413928 50.05392 
L 216.667818 50.05392 
L 216.921709 50.168615 
L 217.175599 49.365871 
L 217.429489 49.021835 
L 217.683379 48.333762 
L 217.93727 50.741993 
L 218.19116 48.333762 
L 218.44505 48.90714 
L 218.952831 51.544736 
L 219.206721 49.136506 
L 219.460611 50.627322 
L 219.714501 49.939249 
L 219.968392 49.824578 
L 220.222282 49.365871 
L 220.476172 49.480542 
L 220.730062 48.563103 
L 220.983953 49.136506 
L 221.237843 51.200724 
L 221.491733 48.448433 
L 221.745623 49.824578 
L 222.253404 48.792469 
L 222.507294 49.939249 
L 222.761184 50.283286 
L 223.015075 50.168615 
L 223.268965 47.76036 
L 223.522855 47.989726 
L 223.776745 48.677798 
L 224.030636 49.939249 
L 224.284526 49.365871 
L 224.538416 50.397956 
L 224.792307 47.875055 
L 225.046197 49.824578 
L 225.300087 49.709908 
L 225.553977 49.939249 
L 225.807868 49.939249 
L 226.061758 50.971358 
L 226.315648 49.595213 
L 226.569538 49.480542 
L 226.823429 48.90714 
L 227.077319 49.939249 
L 227.331209 50.168615 
L 227.585099 51.086029 
L 227.83899 50.741993 
L 228.09288 48.104396 
L 228.34677 51.315395 
L 228.854551 49.365871 
L 229.108441 50.05392 
L 229.362331 49.824578 
L 229.616221 49.365871 
L 229.870112 50.05392 
L 230.377892 49.595213 
L 230.631782 49.595213 
L 230.885673 49.365871 
L 231.139563 49.824578 
L 231.393453 50.971358 
L 231.647343 48.104396 
L 232.155124 51.086029 
L 232.409014 49.595213 
L 232.662904 51.544736 
L 232.916795 48.90714 
L 233.170685 48.104396 
L 233.424575 48.219091 
L 233.678465 49.480542 
L 233.932356 49.709908 
L 234.186246 49.480542 
L 234.440136 49.595213 
L 234.947917 48.90714 
L 235.201807 50.741993 
L 235.455697 47.531018 
L 235.709587 49.021835 
L 235.963478 47.76036 
L 236.217368 49.595213 
L 236.471258 48.792469 
L 236.725148 49.021835 
L 237.232929 50.168615 
L 237.486819 50.05392 
L 237.740709 50.283286 
L 237.9946 49.709908 
L 238.24849 48.448433 
L 238.50238 51.774102 
L 238.75627 49.480542 
L 239.010161 49.136506 
L 239.264051 50.05392 
L 239.517941 50.283286 
L 239.771831 50.856688 
L 240.025722 48.677798 
L 240.279612 51.200724 
L 240.533502 48.792469 
L 240.787393 49.709908 
L 241.041283 49.365871 
L 241.295173 50.283286 
L 241.549063 50.05392 
L 241.802954 51.315395 
L 242.056844 47.645689 
L 242.310734 49.365871 
L 242.564624 48.90714 
L 243.072405 50.741993 
L 243.326295 49.021835 
L 243.580185 49.251176 
L 243.834076 50.397956 
L 244.087966 52.232809 
L 244.341856 48.333762 
L 244.595746 48.792469 
L 244.849637 49.709908 
L 245.103527 49.136506 
L 245.357417 49.824578 
L 245.611307 47.989726 
L 245.865198 49.939249 
L 246.119088 50.856688 
L 246.372978 49.251176 
L 246.626868 50.971358 
L 246.880759 50.283286 
L 247.134649 50.627322 
L 247.388539 48.90714 
L 247.642429 49.480542 
L 247.89632 48.90714 
L 248.15021 49.709908 
L 248.4041 48.792469 
L 248.65799 51.200724 
L 248.911881 49.595213 
L 249.165771 50.856688 
L 249.419661 50.168615 
L 249.673551 49.136506 
L 249.927442 49.365871 
L 250.181332 50.283286 
L 250.435222 49.595213 
L 250.689112 50.168615 
L 250.943003 49.939249 
L 251.196893 47.645689 
L 251.450783 51.200724 
L 251.704673 48.448433 
L 251.958564 50.283286 
L 252.212454 49.021835 
L 252.720234 50.856688 
L 252.974125 50.741993 
L 253.228015 49.251176 
L 253.735795 52.576846 
L 253.989686 49.480542 
L 254.243576 49.251176 
L 254.497466 49.251176 
L 254.751356 49.595213 
L 255.005247 50.512651 
L 255.513027 48.448433 
L 255.766917 48.448433 
L 256.020808 49.709908 
L 256.274698 50.397956 
L 256.528588 50.283286 
L 256.782479 48.563103 
L 257.036369 49.939249 
L 257.290259 49.136506 
L 257.544149 50.971358 
L 257.79804 49.824578 
L 258.05193 47.645689 
L 258.30582 48.333762 
L 258.55971 50.05392 
L 258.813601 50.283286 
L 259.067491 49.480542 
L 259.321381 50.512651 
L 259.575271 50.168615 
L 259.829162 49.021835 
L 260.083052 49.939249 
L 260.336942 50.397956 
L 260.590832 49.251176 
L 260.844723 50.168615 
L 261.098613 50.397956 
L 261.352503 48.792469 
L 261.606393 51.086029 
L 261.860284 48.219091 
L 262.114174 50.512651 
L 262.368064 48.677798 
L 262.621954 49.365871 
L 263.129735 49.709908 
L 263.383625 49.709908 
L 263.637515 50.397956 
L 263.891406 49.824578 
L 264.145296 50.05392 
L 264.399186 49.709908 
L 264.653076 49.595213 
L 264.906967 47.875055 
L 265.160857 49.595213 
L 265.414747 50.05392 
L 265.668637 51.774102 
L 265.922528 50.05392 
L 266.176418 50.283286 
L 266.430308 50.05392 
L 266.684198 49.595213 
L 267.191979 50.627322 
L 267.445869 50.627322 
L 267.699759 49.251176 
L 267.95365 49.939249 
L 268.20754 49.709908 
L 268.46143 51.200724 
L 268.71532 48.792469 
L 268.969211 50.512651 
L 269.223101 48.333762 
L 269.476991 50.168615 
L 269.730881 50.856688 
L 269.984772 49.021835 
L 270.238662 48.219091 
L 270.492552 50.168615 
L 270.746442 49.480542 
L 271.000333 50.512651 
L 271.254223 48.333762 
L 271.508113 47.989726 
L 271.762003 48.90714 
L 272.015894 50.283286 
L 272.269784 50.512651 
L 272.523674 49.709908 
L 272.777564 48.219091 
L 273.031455 49.595213 
L 273.285345 48.677798 
L 273.539235 50.397956 
L 273.793126 49.251176 
L 274.047016 49.136506 
L 274.300906 50.397956 
L 274.554796 49.021835 
L 274.808687 49.709908 
L 275.062577 51.659431 
L 275.316467 50.627322 
L 275.570357 48.219091 
L 275.824248 51.086029 
L 276.078138 48.333762 
L 276.332028 49.709908 
L 276.585918 49.709908 
L 276.839809 49.939249 
L 277.093699 50.397956 
L 277.347589 49.251176 
L 277.601479 50.741993 
L 277.85537 49.480542 
L 278.10926 49.824578 
L 278.36315 49.595213 
L 278.61704 50.397956 
L 278.870931 49.709908 
L 279.124821 50.05392 
L 279.378711 48.104396 
L 279.632601 49.709908 
L 279.886492 49.251176 
L 280.140382 50.971358 
L 280.394272 51.774102 
L 280.648162 49.595213 
L 280.902053 48.792469 
L 281.155943 47.531018 
L 281.409833 49.824578 
L 281.917614 49.824578 
L 282.171504 48.333762 
L 282.679284 51.659431 
L 282.933175 49.365871 
L 283.187065 49.709908 
L 283.440955 50.741993 
L 283.694845 50.283286 
L 283.948736 50.856688 
L 284.202626 49.021835 
L 284.456516 50.397956 
L 284.710406 49.480542 
L 284.964297 49.251176 
L 285.218187 50.512651 
L 285.725967 49.136506 
L 285.979858 49.365871 
L 286.233748 51.774102 
L 286.487638 48.90714 
L 286.741528 50.283286 
L 286.995419 50.512651 
L 287.249309 49.365871 
L 287.503199 51.430066 
L 287.757089 50.971358 
L 288.01098 49.480542 
L 288.26487 47.186982 
L 288.51876 49.136506 
L 288.77265 52.118138 
L 289.026541 51.200724 
L 289.280431 49.709908 
L 289.534321 49.365871 
L 289.788212 48.792469 
L 290.042102 49.365871 
L 290.295992 48.563103 
L 290.803773 50.168615 
L 291.057663 50.168615 
L 291.311553 50.512651 
L 291.565443 47.989726 
L 291.819334 47.875055 
L 292.073224 50.283286 
L 292.327114 49.021835 
L 292.581004 49.480542 
L 292.834895 47.531018 
L 293.088785 48.219091 
L 293.342675 49.365871 
L 293.850456 47.875055 
L 294.104346 49.595213 
L 294.612126 50.741993 
L 295.119907 47.875055 
L 295.373797 49.595213 
L 295.627687 48.792469 
L 295.881578 47.301653 
L 296.135468 50.283286 
L 296.389358 50.627322 
L 296.643248 48.563103 
L 296.897139 49.709908 
L 297.151029 47.875055 
L 297.404919 50.627322 
L 297.9127 50.168615 
L 298.16659 48.677798 
L 298.42048 50.168615 
L 298.67437 50.283286 
L 298.928261 48.792469 
L 299.182151 49.824578 
L 299.436041 48.90714 
L 299.689931 46.498909 
L 299.943822 49.136506 
L 300.197712 48.563103 
L 300.451602 49.136506 
L 300.705492 50.627322 
L 301.213273 50.397956 
L 301.467163 51.200724 
L 301.721053 49.021835 
L 301.974944 48.333762 
L 302.228834 50.627322 
L 302.482724 49.939249 
L 302.736614 50.397956 
L 302.990505 51.888773 
L 303.244395 49.021835 
L 303.498285 48.448433 
L 303.752175 49.136506 
L 304.006066 50.627322 
L 304.259956 50.05392 
L 304.513846 50.05392 
L 304.767736 49.709908 
L 305.021627 51.430066 
L 305.275517 49.480542 
L 305.529407 49.480542 
L 305.783298 49.021835 
L 306.037188 50.397956 
L 306.291078 50.741993 
L 306.798859 48.333762 
L 307.306639 50.05392 
L 307.560529 50.741993 
L 307.81442 49.824578 
L 308.3222 48.90714 
L 308.57609 52.118138 
L 308.829981 49.824578 
L 309.083871 49.824578 
L 309.337761 49.595213 
L 309.591651 48.792469 
L 309.845542 50.05392 
L 310.099432 50.168615 
L 310.099432 50.168615 
" clip-path="url(#p8c6d8b0f65)" style="fill: none; stroke: #0000ff; stroke-width: 0.6; stroke-linecap: square"/>
   </g>
   <g id="line2d_24">
    <path d="M 56.463068 225.741502 
L 56.716958 230.557091 
L 56.970849 229.754493 
L 57.224739 225.206445 
L 57.478629 230.557091 
L 57.732519 227.346698 
L 57.98641 221.193454 
L 58.2403 230.022021 
L 58.49419 210.492185 
L 58.74808 230.022021 
L 59.001971 198.720754 
L 59.255861 218.250602 
L 59.509751 191.497394 
L 59.763641 177.85325 
L 60.017532 195.242844 
L 60.271422 142.806544 
L 60.525312 146.819535 
L 60.779202 175.177939 
L 61.033093 223.066191 
L 61.286983 213.970094 
L 61.540873 176.515594 
L 61.794764 226.5441 
L 62.048654 175.980537 
L 62.302544 225.473985 
L 62.556434 158.055885 
L 62.810325 135.850726 
L 63.064215 227.079182 
L 63.318105 134.513046 
L 63.825886 152.170181 
L 64.079776 126.487088 
L 64.333666 190.42728 
L 64.587556 117.390992 
L 64.841447 129.1624 
L 65.095337 129.42994 
L 65.349227 158.323402 
L 65.603117 127.022146 
L 65.857008 120.333844 
L 66.110898 126.754629 
L 66.364788 109.900092 
L 66.618678 120.868926 
L 66.872569 108.562437 
L 67.126459 109.900092 
L 67.380349 105.352044 
L 67.634239 131.035137 
L 67.88813 98.663742 
L 68.14202 135.583185 
L 68.39591 102.676733 
L 68.6498 105.619585 
L 68.903691 100.268938 
L 69.157581 108.294896 
L 69.411471 97.326086 
L 69.665361 93.045579 
L 69.919252 97.593627 
L 70.173142 122.206581 
L 70.427032 100.001422 
L 70.680922 95.988431 
L 70.934813 93.848177 
L 71.188703 94.650775 
L 71.442593 98.663742 
L 71.696483 99.46634 
L 71.950374 93.313096 
L 72.204264 96.791029 
L 72.458154 91.172842 
L 72.712044 92.510522 
L 72.965935 90.370244 
L 73.219825 86.357277 
L 73.727605 96.791029 
L 73.981496 84.48454 
L 74.235386 97.593627 
L 74.489276 86.624794 
L 74.743166 86.892335 
L 74.997057 102.141675 
L 75.250947 87.962474 
L 75.504837 84.217024 
L 75.758727 82.879344 
L 76.266508 88.765072 
L 76.520398 84.752081 
L 76.774288 89.032588 
L 77.028179 84.48454 
L 77.282069 83.414425 
L 77.535959 92.778038 
L 77.78985 85.822196 
L 78.04374 87.427392 
L 78.29763 82.344286 
L 78.55152 82.879344 
L 78.805411 84.752081 
L 79.059301 82.879344 
L 79.313191 83.681942 
L 79.567081 83.146885 
L 79.820972 84.48454 
L 80.074862 98.931283 
L 80.582642 82.879344 
L 81.090423 82.879344 
L 81.344313 82.611827 
L 81.598203 84.752081 
L 81.852094 82.076746 
L 82.105984 92.510522 
L 82.359874 82.076746 
L 82.613764 80.471574 
L 83.121545 83.414425 
L 83.375435 79.936492 
L 83.629325 79.936492 
L 83.883216 84.752081 
L 84.137106 81.809229 
L 84.644886 84.752081 
L 84.898777 82.344286 
L 85.152667 82.344286 
L 85.406557 84.48454 
L 85.660447 81.006631 
L 85.914338 81.006631 
L 86.168228 78.331296 
L 86.676008 81.541688 
L 86.929899 84.217024 
L 87.183789 77.796238 
L 87.437679 82.611827 
L 87.691569 80.471574 
L 87.94546 84.48454 
L 88.19935 86.357277 
L 88.45324 81.809229 
L 88.70713 90.370244 
L 88.961021 88.497531 
L 89.214911 79.668975 
L 89.468801 78.063779 
L 89.722691 83.681942 
L 89.976582 84.217024 
L 90.230472 78.331296 
L 90.484362 86.357277 
L 90.738252 79.936492 
L 90.992143 77.261181 
L 91.499923 82.611827 
L 91.753813 80.73909 
L 92.007704 77.528722 
L 92.261594 78.063779 
L 92.515484 78.866377 
L 92.769374 82.344286 
L 93.023265 81.274172 
L 93.277155 79.668975 
L 93.531045 78.866377 
L 93.784936 77.528722 
L 94.038826 79.401435 
L 94.292716 79.401435 
L 94.546606 77.261181 
L 94.800497 79.936492 
L 95.054387 79.133894 
L 95.308277 77.261181 
L 95.562167 78.598836 
L 95.816058 81.541688 
L 96.069948 82.344286 
L 96.323838 76.99364 
L 97.085509 80.73909 
L 97.339399 104.014388 
L 97.593289 79.401435 
L 97.84718 81.541688 
L 98.10107 82.076746 
L 98.35496 75.655985 
L 98.60885 76.191042 
L 98.862741 76.99364 
L 99.370521 83.681942 
L 99.624411 79.133894 
L 99.878302 80.204033 
L 100.132192 84.217024 
L 100.386082 78.866377 
L 100.639972 82.076746 
L 100.893863 75.655985 
L 101.147753 77.261181 
L 101.401643 79.936492 
L 101.655533 78.331296 
L 101.909424 78.063779 
L 102.417204 83.681942 
L 102.671094 77.528722 
L 102.924985 81.006631 
L 103.178875 75.655985 
L 103.432765 81.809229 
L 103.686655 77.796238 
L 103.940546 77.796238 
L 104.194436 79.668975 
L 104.448326 78.063779 
L 104.702216 79.401435 
L 104.956107 84.217024 
L 105.717777 77.261181 
L 105.971668 83.949483 
L 106.225558 78.598836 
L 106.479448 76.99364 
L 106.733338 99.198824 
L 106.987229 77.796238 
L 107.241119 76.726123 
L 107.495009 76.191042 
L 108.00279 81.541688 
L 108.25668 75.923525 
L 108.51057 84.48454 
L 108.76446 72.713133 
L 109.018351 76.191042 
L 109.272241 77.261181 
L 109.526131 79.133894 
L 109.780021 77.261181 
L 110.033912 78.598836 
L 110.287802 76.99364 
L 110.541692 80.471574 
L 110.795583 81.006631 
L 111.049473 74.853386 
L 111.303363 75.655985 
L 111.557253 77.261181 
L 111.811144 83.681942 
L 112.065034 79.936492 
L 112.318924 79.668975 
L 112.572814 73.24819 
L 112.826705 80.204033 
L 113.080595 77.796238 
L 113.334485 79.401435 
L 113.588375 76.99364 
L 113.842266 79.133894 
L 114.096156 76.458583 
L 114.350046 75.388444 
L 114.857827 78.331296 
L 115.111717 74.853386 
L 115.365607 77.528722 
L 115.619497 78.866377 
L 115.873388 74.58587 
L 116.127278 85.822196 
L 116.635058 76.458583 
L 116.888949 77.796238 
L 117.142839 72.980673 
L 117.396729 81.809229 
L 117.650619 79.936492 
L 117.90451 79.936492 
L 118.1584 76.191042 
L 118.41229 76.191042 
L 119.427851 80.73909 
L 119.681741 75.923525 
L 119.935632 83.681942 
L 120.189522 78.063779 
L 120.443412 82.076746 
L 120.697302 77.796238 
L 120.951193 80.471574 
L 121.205083 76.458583 
L 121.966754 82.879344 
L 122.220644 78.598836 
L 122.474534 109.365035 
L 122.728424 75.655985 
L 122.982315 77.261181 
L 123.236205 76.99364 
L 123.490095 80.204033 
L 123.743985 78.063779 
L 123.997876 74.318329 
L 124.251766 77.261181 
L 124.505656 76.99364 
L 124.759546 76.99364 
L 125.013437 77.261181 
L 125.267327 80.204033 
L 125.521217 75.388444 
L 125.775107 77.528722 
L 126.028998 76.191042 
L 126.282888 77.528722 
L 126.790669 76.99364 
L 127.044559 78.063779 
L 127.298449 77.796238 
L 127.552339 76.726123 
L 127.80623 79.401435 
L 128.06012 79.401435 
L 128.31401 77.528722 
L 128.5679 79.668975 
L 128.821791 75.655985 
L 129.075681 79.401435 
L 129.329571 79.936492 
L 129.583461 76.726123 
L 129.837352 78.866377 
L 130.091242 78.866377 
L 130.345132 80.204033 
L 130.599022 74.58587 
L 130.852913 80.204033 
L 131.106803 79.668975 
L 131.360693 78.331296 
L 131.614583 79.133894 
L 131.868474 75.120927 
L 132.122364 78.866377 
L 132.376254 78.866377 
L 132.630144 76.99364 
L 132.884035 76.726123 
L 133.137925 79.668975 
L 133.391815 78.598836 
L 133.645705 79.133894 
L 133.899596 77.528722 
L 134.153486 77.528722 
L 134.407376 79.668975 
L 134.661266 77.261181 
L 134.915157 77.796238 
L 135.169047 76.726123 
L 135.422937 78.598836 
L 135.676827 77.796238 
L 135.930718 77.796238 
L 136.438498 80.73909 
L 136.692388 79.936492 
L 136.946279 79.936492 
L 137.200169 79.668975 
L 137.454059 78.063779 
L 137.707949 80.204033 
L 137.96184 78.866377 
L 138.21573 79.133894 
L 138.46962 79.133894 
L 138.72351 79.401435 
L 138.977401 77.528722 
L 139.485181 78.866377 
L 139.739071 78.331296 
L 139.992962 77.261181 
L 140.246852 78.866377 
L 140.500742 78.331296 
L 140.754632 78.063779 
L 141.262413 80.204033 
L 141.516303 78.331296 
L 141.770193 78.063779 
L 142.024084 78.331296 
L 142.277974 80.73909 
L 142.531864 79.936492 
L 142.785755 78.331296 
L 143.293535 81.809229 
L 143.547425 81.006631 
L 143.801316 79.133894 
L 144.055206 78.331296 
L 144.309096 80.204033 
L 144.562986 78.063779 
L 144.816877 79.668975 
L 145.070767 76.191042 
L 145.324657 79.936492 
L 145.578547 78.598836 
L 145.832438 79.936492 
L 146.086328 77.528722 
L 146.340218 78.866377 
L 146.594108 77.528722 
L 146.847999 80.471574 
L 147.101889 79.133894 
L 147.355779 80.471574 
L 147.609669 79.668975 
L 148.11745 77.528722 
L 148.37134 78.063779 
L 148.62523 79.133894 
L 148.879121 79.401435 
L 149.133011 80.471574 
L 149.386901 79.936492 
L 149.640791 80.471574 
L 149.894682 79.936492 
L 150.148572 78.598836 
L 150.402462 80.73909 
L 150.656352 79.668975 
L 150.910243 79.668975 
L 151.164133 78.866377 
L 151.418023 81.274172 
L 151.671913 79.133894 
L 151.925804 79.133894 
L 152.433584 77.261181 
L 152.687474 78.866377 
L 152.941365 78.866377 
L 153.195255 78.331296 
L 153.449145 78.063779 
L 153.703035 79.936492 
L 153.956926 78.866377 
L 154.210816 78.598836 
L 154.464706 79.668975 
L 154.718596 78.063779 
L 155.226377 79.936492 
L 155.480267 79.936492 
L 155.734157 80.471574 
L 155.988048 78.331296 
L 156.241938 77.261181 
L 156.495828 77.528722 
L 156.749718 79.401435 
L 157.003609 78.866377 
L 157.257499 79.668975 
L 157.511389 78.598836 
L 157.765279 78.866377 
L 158.01917 79.936492 
L 158.27306 78.063779 
L 158.52695 80.204033 
L 158.78084 78.331296 
L 159.034731 78.598836 
L 159.288621 79.401435 
L 159.542511 78.063779 
L 160.050292 78.598836 
L 160.304182 79.133894 
L 160.558072 78.063779 
L 160.811963 79.133894 
L 161.065853 78.598836 
L 161.319743 79.668975 
L 161.573633 78.598836 
L 161.827524 78.866377 
L 162.081414 78.866377 
L 162.335304 78.331296 
L 162.589194 79.133894 
L 162.843085 78.866377 
L 163.096975 78.331296 
L 163.350865 79.936492 
L 163.604755 78.331296 
L 163.858646 79.133894 
L 164.112536 78.063779 
L 164.366426 79.668975 
L 164.620316 78.331296 
L 164.874207 77.796238 
L 165.128097 78.866377 
L 165.381987 77.796238 
L 165.889768 79.668975 
L 166.143658 79.133894 
L 166.397548 79.668975 
L 166.651438 79.401435 
L 166.905329 76.99364 
L 167.159219 77.261181 
L 167.413109 78.331296 
L 167.666999 78.598836 
L 167.92089 78.598836 
L 168.17478 79.936492 
L 168.42867 78.331296 
L 168.68256 79.668975 
L 168.936451 78.331296 
L 169.190341 77.796238 
L 169.698121 79.401435 
L 169.952012 78.063779 
L 170.205902 79.668975 
L 170.459792 78.331296 
L 170.713682 79.401435 
L 170.967573 79.936492 
L 171.475353 78.866377 
L 171.729243 78.063779 
L 171.983134 78.598836 
L 172.237024 78.866377 
L 172.490914 80.73909 
L 172.998695 79.133894 
L 173.252585 79.401435 
L 173.506475 78.598836 
L 173.760365 79.401435 
L 174.014256 79.133894 
L 174.268146 78.063779 
L 174.522036 77.796238 
L 174.775926 78.598836 
L 175.029817 78.598836 
L 175.283707 78.866377 
L 175.537597 79.668975 
L 175.791488 78.331296 
L 176.045378 78.866377 
L 176.299268 79.936492 
L 176.553158 78.598836 
L 176.807049 78.331296 
L 177.060939 77.796238 
L 177.314829 79.401435 
L 177.568719 79.133894 
L 177.82261 78.598836 
L 178.0765 78.331296 
L 178.33039 78.598836 
L 178.58428 79.133894 
L 178.838171 80.204033 
L 179.092061 78.866377 
L 179.345951 78.331296 
L 179.599841 78.598836 
L 179.853732 79.133894 
L 180.107622 78.331296 
L 180.361512 79.133894 
L 180.615402 78.063779 
L 180.869293 79.133894 
L 181.123183 78.063779 
L 181.377073 78.598836 
L 181.630963 78.063779 
L 181.884854 78.866377 
L 182.646524 78.866377 
L 182.900415 79.133894 
L 183.154305 78.331296 
L 183.408195 79.133894 
L 183.662085 78.866377 
L 183.915976 78.331296 
L 184.423756 78.866377 
L 184.677646 78.331296 
L 185.185427 78.331296 
L 185.439317 78.866377 
L 185.693207 78.598836 
L 185.947098 79.133894 
L 186.200988 78.866377 
L 186.454878 79.401435 
L 186.708768 78.598836 
L 186.962659 78.331296 
L 187.216549 78.598836 
L 187.470439 78.331296 
L 187.724329 79.401435 
L 188.23211 78.331296 
L 188.486 79.133894 
L 188.73989 78.598836 
L 188.993781 78.331296 
L 189.247671 78.598836 
L 189.501561 78.331296 
L 189.755451 78.598836 
L 190.009342 78.331296 
L 190.263232 78.331296 
L 190.517122 79.401435 
L 190.771012 78.063779 
L 191.024903 78.063779 
L 191.278793 79.133894 
L 191.532683 78.331296 
L 191.786574 78.331296 
L 192.040464 78.063779 
L 192.294354 79.133894 
L 192.548244 78.598836 
L 192.802135 78.866377 
L 193.309915 78.866377 
L 193.563805 78.598836 
L 193.817696 78.866377 
L 194.071586 78.598836 
L 195.341037 78.598836 
L 195.594927 78.331296 
L 195.848818 78.866377 
L 196.102708 78.866377 
L 196.356598 78.598836 
L 196.610488 78.598836 
L 196.864379 78.063779 
L 197.372159 78.598836 
L 197.626049 78.331296 
L 197.87994 78.598836 
L 198.38772 78.598836 
L 198.64161 78.866377 
L 198.895501 78.866377 
L 199.149391 79.401435 
L 199.403281 78.331296 
L 199.657171 78.331296 
L 199.911062 78.598836 
L 200.418842 78.598836 
L 200.672732 78.331296 
L 200.926623 78.598836 
L 201.180513 78.331296 
L 201.434403 78.866377 
L 201.688293 78.866377 
L 201.942184 78.331296 
L 202.196074 78.331296 
L 202.449964 78.866377 
L 203.211635 78.063779 
L 203.719415 78.063779 
L 203.973306 78.331296 
L 204.227196 78.063779 
L 204.481086 78.598836 
L 204.734976 78.598836 
L 205.242757 78.063779 
L 205.496647 78.331296 
L 205.750537 78.331296 
L 206.004428 78.063779 
L 206.258318 78.331296 
L 206.512208 78.331296 
L 206.766098 78.598836 
L 207.019989 78.331296 
L 207.273879 78.331296 
L 207.527769 78.598836 
L 207.78166 78.063779 
L 208.03555 78.063779 
L 208.28944 78.331296 
L 209.305001 78.331296 
L 209.558891 78.063779 
L 210.320562 78.866377 
L 210.574452 78.866377 
L 210.828343 78.331296 
L 211.082233 78.063779 
L 211.336123 78.598836 
L 211.843904 78.598836 
L 212.097794 78.331296 
L 212.859465 78.331296 
L 213.113355 78.063779 
L 213.367245 78.331296 
L 213.621135 78.331296 
L 213.875026 78.598836 
L 214.382806 78.063779 
L 214.636696 78.331296 
L 214.890587 78.063779 
L 218.44505 78.063779 
L 218.69894 78.331296 
L 218.952831 78.063779 
L 219.206721 78.331296 
L 219.460611 78.331296 
L 219.714501 78.063779 
L 220.222282 78.063779 
L 220.476172 78.331296 
L 220.730062 78.063779 
L 220.983953 78.331296 
L 221.745623 78.331296 
L 221.999514 78.063779 
L 222.253404 78.331296 
L 222.507294 78.063779 
L 223.522855 78.063779 
L 223.776745 78.598836 
L 224.030636 78.598836 
L 224.284526 78.331296 
L 224.538416 78.598836 
L 224.792307 78.331296 
L 225.046197 78.331296 
L 225.300087 78.866377 
L 225.553977 78.331296 
L 225.807868 78.866377 
L 226.061758 78.598836 
L 226.569538 78.598836 
L 226.823429 78.331296 
L 227.077319 78.598836 
L 227.331209 78.598836 
L 227.585099 78.866377 
L 228.09288 78.331296 
L 230.124002 78.331296 
L 230.377892 78.063779 
L 230.885673 78.063779 
L 231.139563 78.331296 
L 231.393453 78.063779 
L 231.647343 78.063779 
L 231.901234 78.331296 
L 232.155124 78.063779 
L 232.409014 78.331296 
L 232.662904 78.063779 
L 232.916795 78.063779 
L 233.170685 78.331296 
L 233.424575 78.063779 
L 233.678465 78.331296 
L 233.932356 78.063779 
L 234.947917 78.063779 
L 235.201807 78.331296 
L 236.725148 78.331296 
L 236.979039 78.063779 
L 237.232929 78.598836 
L 237.740709 78.063779 
L 237.9946 78.598836 
L 238.24849 78.063779 
L 238.50238 78.063779 
L 238.75627 78.331296 
L 239.010161 78.331296 
L 239.264051 78.063779 
L 240.533502 78.063779 
L 240.787393 78.331296 
L 241.041283 78.331296 
L 241.295173 78.063779 
L 241.549063 78.063779 
L 241.802954 78.331296 
L 242.310734 78.331296 
L 242.564624 78.063779 
L 242.818515 78.331296 
L 243.072405 78.331296 
L 243.326295 78.063779 
L 243.580185 78.331296 
L 243.834076 78.063779 
L 245.103527 78.063779 
L 245.357417 78.331296 
L 245.865198 78.331296 
L 246.119088 78.063779 
L 246.372978 78.331296 
L 247.134649 78.331296 
L 247.388539 78.598836 
L 247.642429 78.598836 
L 247.89632 78.331296 
L 248.65799 78.331296 
L 248.911881 78.063779 
L 249.165771 78.331296 
L 249.419661 78.331296 
L 249.673551 78.063779 
L 251.704673 78.063779 
L 251.958564 78.331296 
L 253.228015 78.331296 
L 253.481905 78.063779 
L 254.751356 78.063779 
L 255.005247 78.331296 
L 255.513027 78.331296 
L 255.766917 78.598836 
L 256.274698 78.063779 
L 256.528588 78.331296 
L 256.782479 78.063779 
L 257.036369 78.063779 
L 257.290259 78.331296 
L 257.79804 78.331296 
L 258.05193 78.063779 
L 258.55971 78.063779 
L 258.813601 78.331296 
L 260.844723 78.331296 
L 261.098613 78.598836 
L 265.414747 78.598836 
L 265.668637 78.331296 
L 269.984772 78.331296 
L 270.238662 78.063779 
L 270.492552 78.331296 
L 270.746442 78.331296 
L 271.000333 78.063779 
L 271.254223 78.331296 
L 274.300906 78.331296 
L 274.554796 78.063779 
L 275.570357 78.063779 
L 275.824248 78.331296 
L 276.078138 78.063779 
L 310.099432 78.063779 
L 310.099432 78.063779 
" clip-path="url(#p8c6d8b0f65)" style="fill: none; stroke: #ff0000; stroke-width: 0.6; stroke-linecap: square"/>
   </g>
   <g id="patch_3">
    <path d="M 43.78125 239.76 
L 43.78125 37.296 
" style="fill: none; stroke: #000000; stroke-width: 0.8; stroke-linejoin: miter; stroke-linecap: square"/>
   </g>
   <g id="patch_4">
    <path d="M 322.78125 239.76 
L 322.78125 37.296 
" style="fill: none; stroke: #000000; stroke-width: 0.8; stroke-linejoin: miter; stroke-linecap: square"/>
   </g>
   <g id="patch_5">
    <path d="M 43.78125 239.76 
L 322.78125 239.76 
" style="fill: none; stroke: #000000; stroke-width: 0.8; stroke-linejoin: miter; stroke-linecap: square"/>
   </g>
   <g id="patch_6">
    <path d="M 43.78125 37.296 
L 322.78125 37.296 
" style="fill: none; stroke: #000000; stroke-width: 0.8; stroke-linejoin: miter; stroke-linecap: square"/>
   </g>
   <g id="text_14">
    <!-- Constrained Model -->
    <g transform="translate(141.147891 31.296) scale(0.09 -0.09)">
     <defs>
      <path id="DejaVuSans-43" d="M 4122 4306 
L 4122 3641 
Q 3803 3938 3442 4084 
Q 3081 4231 2675 4231 
Q 1875 4231 1450 3742 
Q 1025 3253 1025 2328 
Q 1025 1406 1450 917 
Q 1875 428 2675 428 
Q 3081 428 3442 575 
Q 3803 722 4122 1019 
L 4122 359 
Q 3791 134 3420 21 
Q 3050 -91 2638 -91 
Q 1578 -91 968 557 
Q 359 1206 359 2328 
Q 359 3453 968 4101 
Q 1578 4750 2638 4750 
Q 3056 4750 3426 4639 
Q 3797 4528 4122 4306 
z
" transform="scale(0.015625)"/>
      <path id="DejaVuSans-6e" d="M 3513 2113 
L 3513 0 
L 2938 0 
L 2938 2094 
Q 2938 2591 2744 2837 
Q 2550 3084 2163 3084 
Q 1697 3084 1428 2787 
Q 1159 2491 1159 1978 
L 1159 0 
L 581 0 
L 581 3500 
L 1159 3500 
L 1159 2956 
Q 1366 3272 1645 3428 
Q 1925 3584 2291 3584 
Q 2894 3584 3203 3211 
Q 3513 2838 3513 2113 
z
" transform="scale(0.015625)"/>
      <path id="DejaVuSans-74" d="M 1172 4494 
L 1172 3500 
L 2356 3500 
L 2356 3053 
L 1172 3053 
L 1172 1153 
Q 1172 725 1289 603 
Q 1406 481 1766 481 
L 2356 481 
L 2356 0 
L 1766 0 
Q 1100 0 847 248 
Q 594 497 594 1153 
L 594 3053 
L 172 3053 
L 172 3500 
L 594 3500 
L 594 4494 
L 1172 4494 
z
" transform="scale(0.015625)"/>
      <path id="DejaVuSans-69" d="M 603 3500 
L 1178 3500 
L 1178 0 
L 603 0 
L 603 3500 
z
M 603 4863 
L 1178 4863 
L 1178 4134 
L 603 4134 
L 603 4863 
z
" transform="scale(0.015625)"/>
      <path id="DejaVuSans-65" d="M 3597 1894 
L 3597 1613 
L 953 1613 
Q 991 1019 1311 708 
Q 1631 397 2203 397 
Q 2534 397 2845 478 
Q 3156 559 3463 722 
L 3463 178 
Q 3153 47 2828 -22 
Q 2503 -91 2169 -91 
Q 1331 -91 842 396 
Q 353 884 353 1716 
Q 353 2575 817 3079 
Q 1281 3584 2069 3584 
Q 2775 3584 3186 3129 
Q 3597 2675 3597 1894 
z
M 3022 2063 
Q 3016 2534 2758 2815 
Q 2500 3097 2075 3097 
Q 1594 3097 1305 2825 
Q 1016 2553 972 2059 
L 3022 2063 
z
" transform="scale(0.015625)"/>
      <path id="DejaVuSans-64" d="M 2906 2969 
L 2906 4863 
L 3481 4863 
L 3481 0 
L 2906 0 
L 2906 525 
Q 2725 213 2448 61 
Q 2172 -91 1784 -91 
Q 1150 -91 751 415 
Q 353 922 353 1747 
Q 353 2572 751 3078 
Q 1150 3584 1784 3584 
Q 2172 3584 2448 3432 
Q 2725 3281 2906 2969 
z
M 947 1747 
Q 947 1113 1208 752 
Q 1469 391 1925 391 
Q 2381 391 2643 752 
Q 2906 1113 2906 1747 
Q 2906 2381 2643 2742 
Q 2381 3103 1925 3103 
Q 1469 3103 1208 2742 
Q 947 2381 947 1747 
z
" transform="scale(0.015625)"/>
      <path id="DejaVuSans-20" transform="scale(0.015625)"/>
      <path id="DejaVuSans-4d" d="M 628 4666 
L 1569 4666 
L 2759 1491 
L 3956 4666 
L 4897 4666 
L 4897 0 
L 4281 0 
L 4281 4097 
L 3078 897 
L 2444 897 
L 1241 4097 
L 1241 0 
L 628 0 
L 628 4666 
z
" transform="scale(0.015625)"/>
      <path id="DejaVuSans-6c" d="M 603 4863 
L 1178 4863 
L 1178 0 
L 603 0 
L 603 4863 
z
" transform="scale(0.015625)"/>
     </defs>
     <use xlink:href="#DejaVuSans-43"/>
     <use xlink:href="#DejaVuSans-6f" x="69.824219"/>
     <use xlink:href="#DejaVuSans-6e" x="131.005859"/>
     <use xlink:href="#DejaVuSans-73" x="194.384766"/>
     <use xlink:href="#DejaVuSans-74" x="246.484375"/>
     <use xlink:href="#DejaVuSans-72" x="285.693359"/>
     <use xlink:href="#DejaVuSans-61" x="326.806641"/>
     <use xlink:href="#DejaVuSans-69" x="388.085938"/>
     <use xlink:href="#DejaVuSans-6e" x="415.869141"/>
     <use xlink:href="#DejaVuSans-65" x="479.248047"/>
     <use xlink:href="#DejaVuSans-64" x="540.771484"/>
     <use xlink:href="#DejaVuSans-20" x="604.248047"/>
     <use xlink:href="#DejaVuSans-4d" x="636.035156"/>
     <use xlink:href="#DejaVuSans-6f" x="722.314453"/>
     <use xlink:href="#DejaVuSans-64" x="783.496094"/>
     <use xlink:href="#DejaVuSans-65" x="846.972656"/>
     <use xlink:href="#DejaVuSans-6c" x="908.496094"/>
    </g>
   </g>
   <g id="legend_1">
    <g id="patch_7">
     <path d="M 185.565625 234.76 
L 315.78125 234.76 
Q 317.78125 234.76 317.78125 232.76 
L 317.78125 204.40375 
Q 317.78125 202.40375 315.78125 202.40375 
L 185.565625 202.40375 
Q 183.565625 202.40375 183.565625 204.40375 
L 183.565625 232.76 
Q 183.565625 234.76 185.565625 234.76 
z
" style="fill: #ffffff; opacity: 0.8; stroke: #cccccc; stroke-linejoin: miter"/>
    </g>
    <g id="line2d_25">
     <path d="M 187.565625 210.502187 
L 197.565625 210.502187 
L 207.565625 210.502187 
" style="fill: none; stroke: #0000ff; stroke-width: 0.6; stroke-linecap: square"/>
    </g>
    <g id="text_15">
     <!-- Training Accuracy -->
     <g transform="translate(215.565625 214.002187) scale(0.1 -0.1)">
      <defs>
       <path id="DejaVuSans-54" d="M -19 4666 
L 3928 4666 
L 3928 4134 
L 2272 4134 
L 2272 0 
L 1638 0 
L 1638 4134 
L -19 4134 
L -19 4666 
z
" transform="scale(0.015625)"/>
       <path id="DejaVuSans-67" d="M 2906 1791 
Q 2906 2416 2648 2759 
Q 2391 3103 1925 3103 
Q 1463 3103 1205 2759 
Q 947 2416 947 1791 
Q 947 1169 1205 825 
Q 1463 481 1925 481 
Q 2391 481 2648 825 
Q 2906 1169 2906 1791 
z
M 3481 434 
Q 3481 -459 3084 -895 
Q 2688 -1331 1869 -1331 
Q 1566 -1331 1297 -1286 
Q 1028 -1241 775 -1147 
L 775 -588 
Q 1028 -725 1275 -790 
Q 1522 -856 1778 -856 
Q 2344 -856 2625 -561 
Q 2906 -266 2906 331 
L 2906 616 
Q 2728 306 2450 153 
Q 2172 0 1784 0 
Q 1141 0 747 490 
Q 353 981 353 1791 
Q 353 2603 747 3093 
Q 1141 3584 1784 3584 
Q 2172 3584 2450 3431 
Q 2728 3278 2906 2969 
L 2906 3500 
L 3481 3500 
L 3481 434 
z
" transform="scale(0.015625)"/>
      </defs>
      <use xlink:href="#DejaVuSans-54"/>
      <use xlink:href="#DejaVuSans-72" x="46.333984"/>
      <use xlink:href="#DejaVuSans-61" x="87.447266"/>
      <use xlink:href="#DejaVuSans-69" x="148.726562"/>
      <use xlink:href="#DejaVuSans-6e" x="176.509766"/>
      <use xlink:href="#DejaVuSans-69" x="239.888672"/>
      <use xlink:href="#DejaVuSans-6e" x="267.671875"/>
      <use xlink:href="#DejaVuSans-67" x="331.050781"/>
      <use xlink:href="#DejaVuSans-20" x="394.527344"/>
      <use xlink:href="#DejaVuSans-41" x="426.314453"/>
      <use xlink:href="#DejaVuSans-63" x="492.972656"/>
      <use xlink:href="#DejaVuSans-63" x="547.953125"/>
      <use xlink:href="#DejaVuSans-75" x="602.933594"/>
      <use xlink:href="#DejaVuSans-72" x="666.3125"/>
      <use xlink:href="#DejaVuSans-61" x="707.425781"/>
      <use xlink:href="#DejaVuSans-63" x="768.705078"/>
      <use xlink:href="#DejaVuSans-79" x="823.685547"/>
     </g>
    </g>
    <g id="line2d_26">
     <path d="M 187.565625 225.180312 
L 197.565625 225.180312 
L 207.565625 225.180312 
" style="fill: none; stroke: #ff0000; stroke-width: 0.6; stroke-linecap: square"/>
    </g>
    <g id="text_16">
     <!-- Validation Accuracy -->
     <g transform="translate(215.565625 228.680312) scale(0.1 -0.1)">
      <defs>
       <path id="DejaVuSans-56" d="M 1831 0 
L 50 4666 
L 709 4666 
L 2188 738 
L 3669 4666 
L 4325 4666 
L 2547 0 
L 1831 0 
z
" transform="scale(0.015625)"/>
      </defs>
      <use xlink:href="#DejaVuSans-56"/>
      <use xlink:href="#DejaVuSans-61" x="60.658203"/>
      <use xlink:href="#DejaVuSans-6c" x="121.9375"/>
      <use xlink:href="#DejaVuSans-69" x="149.720703"/>
      <use xlink:href="#DejaVuSans-64" x="177.503906"/>
      <use xlink:href="#DejaVuSans-61" x="240.980469"/>
      <use xlink:href="#DejaVuSans-74" x="302.259766"/>
      <use xlink:href="#DejaVuSans-69" x="341.46875"/>
      <use xlink:href="#DejaVuSans-6f" x="369.251953"/>
      <use xlink:href="#DejaVuSans-6e" x="430.433594"/>
      <use xlink:href="#DejaVuSans-20" x="493.8125"/>
      <use xlink:href="#DejaVuSans-41" x="525.599609"/>
      <use xlink:href="#DejaVuSans-63" x="592.257812"/>
      <use xlink:href="#DejaVuSans-63" x="647.238281"/>
      <use xlink:href="#DejaVuSans-75" x="702.21875"/>
      <use xlink:href="#DejaVuSans-72" x="765.597656"/>
      <use xlink:href="#DejaVuSans-61" x="806.710938"/>
      <use xlink:href="#DejaVuSans-63" x="867.990234"/>
      <use xlink:href="#DejaVuSans-79" x="922.970703"/>
     </g>
    </g>
   </g>
  </g>
  <g id="text_17">
   <!-- Training VS. Validation Accuracy - Dataset Size = 100.0% -->
   <g transform="translate(21.433984 15.558281) scale(0.11 -0.11)">
    <defs>
     <path id="DejaVuSans-53" d="M 3425 4513 
L 3425 3897 
Q 3066 4069 2747 4153 
Q 2428 4238 2131 4238 
Q 1616 4238 1336 4038 
Q 1056 3838 1056 3469 
Q 1056 3159 1242 3001 
Q 1428 2844 1947 2747 
L 2328 2669 
Q 3034 2534 3370 2195 
Q 3706 1856 3706 1288 
Q 3706 609 3251 259 
Q 2797 -91 1919 -91 
Q 1588 -91 1214 -16 
Q 841 59 441 206 
L 441 856 
Q 825 641 1194 531 
Q 1563 422 1919 422 
Q 2459 422 2753 634 
Q 3047 847 3047 1241 
Q 3047 1584 2836 1778 
Q 2625 1972 2144 2069 
L 1759 2144 
Q 1053 2284 737 2584 
Q 422 2884 422 3419 
Q 422 4038 858 4394 
Q 1294 4750 2059 4750 
Q 2388 4750 2728 4690 
Q 3069 4631 3425 4513 
z
" transform="scale(0.015625)"/>
     <path id="DejaVuSans-2d" d="M 313 2009 
L 1997 2009 
L 1997 1497 
L 313 1497 
L 313 2009 
z
" transform="scale(0.015625)"/>
     <path id="DejaVuSans-44" d="M 1259 4147 
L 1259 519 
L 2022 519 
Q 2988 519 3436 956 
Q 3884 1394 3884 2338 
Q 3884 3275 3436 3711 
Q 2988 4147 2022 4147 
L 1259 4147 
z
M 628 4666 
L 1925 4666 
Q 3281 4666 3915 4102 
Q 4550 3538 4550 2338 
Q 4550 1131 3912 565 
Q 3275 0 1925 0 
L 628 0 
L 628 4666 
z
" transform="scale(0.015625)"/>
     <path id="DejaVuSans-7a" d="M 353 3500 
L 3084 3500 
L 3084 2975 
L 922 459 
L 3084 459 
L 3084 0 
L 275 0 
L 275 525 
L 2438 3041 
L 353 3041 
L 353 3500 
z
" transform="scale(0.015625)"/>
     <path id="DejaVuSans-3d" d="M 678 2906 
L 4684 2906 
L 4684 2381 
L 678 2381 
L 678 2906 
z
M 678 1631 
L 4684 1631 
L 4684 1100 
L 678 1100 
L 678 1631 
z
" transform="scale(0.015625)"/>
     <path id="DejaVuSans-25" d="M 4653 2053 
Q 4381 2053 4226 1822 
Q 4072 1591 4072 1178 
Q 4072 772 4226 539 
Q 4381 306 4653 306 
Q 4919 306 5073 539 
Q 5228 772 5228 1178 
Q 5228 1588 5073 1820 
Q 4919 2053 4653 2053 
z
M 4653 2450 
Q 5147 2450 5437 2106 
Q 5728 1763 5728 1178 
Q 5728 594 5436 251 
Q 5144 -91 4653 -91 
Q 4153 -91 3862 251 
Q 3572 594 3572 1178 
Q 3572 1766 3864 2108 
Q 4156 2450 4653 2450 
z
M 1428 4353 
Q 1159 4353 1004 4120 
Q 850 3888 850 3481 
Q 850 3069 1003 2837 
Q 1156 2606 1428 2606 
Q 1700 2606 1854 2837 
Q 2009 3069 2009 3481 
Q 2009 3884 1853 4118 
Q 1697 4353 1428 4353 
z
M 4250 4750 
L 4750 4750 
L 1831 -91 
L 1331 -91 
L 4250 4750 
z
M 1428 4750 
Q 1922 4750 2215 4408 
Q 2509 4066 2509 3481 
Q 2509 2891 2217 2550 
Q 1925 2209 1428 2209 
Q 931 2209 642 2551 
Q 353 2894 353 3481 
Q 353 4063 643 4406 
Q 934 4750 1428 4750 
z
" transform="scale(0.015625)"/>
    </defs>
    <use xlink:href="#DejaVuSans-54"/>
    <use xlink:href="#DejaVuSans-72" x="46.333984"/>
    <use xlink:href="#DejaVuSans-61" x="87.447266"/>
    <use xlink:href="#DejaVuSans-69" x="148.726562"/>
    <use xlink:href="#DejaVuSans-6e" x="176.509766"/>
    <use xlink:href="#DejaVuSans-69" x="239.888672"/>
    <use xlink:href="#DejaVuSans-6e" x="267.671875"/>
    <use xlink:href="#DejaVuSans-67" x="331.050781"/>
    <use xlink:href="#DejaVuSans-20" x="394.527344"/>
    <use xlink:href="#DejaVuSans-56" x="426.314453"/>
    <use xlink:href="#DejaVuSans-53" x="494.722656"/>
    <use xlink:href="#DejaVuSans-2e" x="558.199219"/>
    <use xlink:href="#DejaVuSans-20" x="589.986328"/>
    <use xlink:href="#DejaVuSans-56" x="621.773438"/>
    <use xlink:href="#DejaVuSans-61" x="682.431641"/>
    <use xlink:href="#DejaVuSans-6c" x="743.710938"/>
    <use xlink:href="#DejaVuSans-69" x="771.494141"/>
    <use xlink:href="#DejaVuSans-64" x="799.277344"/>
    <use xlink:href="#DejaVuSans-61" x="862.753906"/>
    <use xlink:href="#DejaVuSans-74" x="924.033203"/>
    <use xlink:href="#DejaVuSans-69" x="963.242188"/>
    <use xlink:href="#DejaVuSans-6f" x="991.025391"/>
    <use xlink:href="#DejaVuSans-6e" x="1052.207031"/>
    <use xlink:href="#DejaVuSans-20" x="1115.585938"/>
    <use xlink:href="#DejaVuSans-41" x="1147.373047"/>
    <use xlink:href="#DejaVuSans-63" x="1214.03125"/>
    <use xlink:href="#DejaVuSans-63" x="1269.011719"/>
    <use xlink:href="#DejaVuSans-75" x="1323.992188"/>
    <use xlink:href="#DejaVuSans-72" x="1387.371094"/>
    <use xlink:href="#DejaVuSans-61" x="1428.484375"/>
    <use xlink:href="#DejaVuSans-63" x="1489.763672"/>
    <use xlink:href="#DejaVuSans-79" x="1544.744141"/>
    <use xlink:href="#DejaVuSans-20" x="1603.923828"/>
    <use xlink:href="#DejaVuSans-2d" x="1635.710938"/>
    <use xlink:href="#DejaVuSans-20" x="1671.794922"/>
    <use xlink:href="#DejaVuSans-44" x="1703.582031"/>
    <use xlink:href="#DejaVuSans-61" x="1780.583984"/>
    <use xlink:href="#DejaVuSans-74" x="1841.863281"/>
    <use xlink:href="#DejaVuSans-61" x="1881.072266"/>
    <use xlink:href="#DejaVuSans-73" x="1942.351562"/>
    <use xlink:href="#DejaVuSans-65" x="1994.451172"/>
    <use xlink:href="#DejaVuSans-74" x="2055.974609"/>
    <use xlink:href="#DejaVuSans-20" x="2095.183594"/>
    <use xlink:href="#DejaVuSans-53" x="2126.970703"/>
    <use xlink:href="#DejaVuSans-69" x="2190.447266"/>
    <use xlink:href="#DejaVuSans-7a" x="2218.230469"/>
    <use xlink:href="#DejaVuSans-65" x="2270.720703"/>
    <use xlink:href="#DejaVuSans-20" x="2332.244141"/>
    <use xlink:href="#DejaVuSans-3d" x="2364.03125"/>
    <use xlink:href="#DejaVuSans-20" x="2447.820312"/>
    <use xlink:href="#DejaVuSans-31" x="2479.607422"/>
    <use xlink:href="#DejaVuSans-30" x="2543.230469"/>
    <use xlink:href="#DejaVuSans-30" x="2606.853516"/>
    <use xlink:href="#DejaVuSans-2e" x="2670.476562"/>
    <use xlink:href="#DejaVuSans-30" x="2702.263672"/>
    <use xlink:href="#DejaVuSans-25" x="2765.886719"/>
   </g>
  </g>
 </g>
 <defs>
  <clipPath id="p8c6d8b0f65">
   <rect x="43.78125" y="37.296" width="279" height="202.464"/>
  </clipPath>
 </defs>
</svg>
