<?xml version="1.0" encoding="utf-8" standalone="no"?>
<!DOCTYPE svg PUBLIC "-//W3C//DTD SVG 1.1//EN"
  "http://www.w3.org/Graphics/SVG/1.1/DTD/svg11.dtd">
<svg xmlns:xlink="http://www.w3.org/1999/xlink" width="343.328516pt" height="277.31625pt" viewBox="0 0 343.328516 277.31625" xmlns="http://www.w3.org/2000/svg" version="1.1">
 <metadata>
  <rdf:RDF xmlns:dc="http://purl.org/dc/elements/1.1/" xmlns:cc="http://creativecommons.org/ns#" xmlns:rdf="http://www.w3.org/1999/02/22-rdf-syntax-ns#">
   <cc:Work>
    <dc:type rdf:resource="http://purl.org/dc/dcmitype/StillImage"/>
    <dc:date>2026-06-10T19:14:42.318697</dc:date>
    <dc:format>image/svg+xml</dc:format>
    <dc:creator>
     <cc:Agent>
      <dc:title>Matplotlib v3.8.4, https://matplotlib.org/</dc:title>
     </cc:Agent>
    </dc:creator>
   </cc:Work>
  </rdf:RDF>
 </metadata>
 <defs>
  <style type="text/css">*{stroke-linejoin: round; stroke-linecap: butt}</style>
 </defs>
 <g id="figure_1">
  <g id="patch_1">
   <path d="M 0 277.31625 
L 343.328516 277.31625 
L 343.328516 0 
L 0 0 
z
" style="fill: #ffffff"/>
  </g>
  <g id="axes_1">
   <g id="patch_2">
    <path d="M 43.78125 239.76 
L 322.78125 239.76 
L 322.78125 37.296 
L 43.78125 37.296 
z
" style="fill: #ffffff"/>
   </g>
   <g id="matplotlib.axis_1">
    <g id="xtick_1">
     <g id="line2d_1">
      <path d="M 56.209178 239.76 
L 56.209178 37.296 
" clip-path="url(#p2ccd37ef34)" style="fill: none; stroke-dasharray: 2.96,1.28; stroke-dashoffset: 0; stroke: #b0b0b0; stroke-opacity: 0.4; stroke-width: 0.8"/>
     </g>
     <g id="line2d_2">
      <defs>
       <path id="m7fbda5f83b" d="M 0 0 
L 0 3.5 
" style="stroke: #000000; stroke-width: 0.8"/>
      </defs>
      <g>
       <use xlink:href="#m7fbda5f83b" x="56.209178" y="239.76" style="stroke: #000000; stroke-width: 0.8"/>
      </g>
     </g>
     <g id="text_1">
      <!-- 0 -->
      <g transform="translate(53.027928 254.358437) scale(0.1 -0.1)">
       <defs>
        <path id="DejaVuSans-30" d="M 2034 4250 
Q 1547 4250 1301 3770 
Q 1056 3291 1056 2328 
Q 1056 1369 1301 889 
Q 1547 409 2034 409 
Q 2525 409 2770 889 
Q 3016 1369 3016 2328 
Q 3016 3291 2770 3770 
Q 2525 4250 2034 4250 
z
M 2034 4750 
Q 2819 4750 3233 4129 
Q 3647 3509 3647 2328 
Q 3647 1150 3233 529 
Q 2819 -91 2034 -91 
Q 1250 -91 836 529 
Q 422 1150 422 2328 
Q 422 3509 836 4129 
Q 1250 4750 2034 4750 
z
" transform="scale(0.015625)"/>
       </defs>
       <use xlink:href="#DejaVuSans-30"/>
      </g>
     </g>
    </g>
    <g id="xtick_2">
     <g id="line2d_3">
      <path d="M 106.987229 239.76 
L 106.987229 37.296 
" clip-path="url(#p2ccd37ef34)" style="fill: none; stroke-dasharray: 2.96,1.28; stroke-dashoffset: 0; stroke: #b0b0b0; stroke-opacity: 0.4; stroke-width: 0.8"/>
     </g>
     <g id="line2d_4">
      <g>
       <use xlink:href="#m7fbda5f83b" x="106.987229" y="239.76" style="stroke: #000000; stroke-width: 0.8"/>
      </g>
     </g>
     <g id="text_2">
      <!-- 200 -->
      <g transform="translate(97.443479 254.358437) scale(0.1 -0.1)">
       <defs>
        <path id="DejaVuSans-32" d="M 1228 531 
L 3431 531 
L 3431 0 
L 469 0 
L 469 531 
Q 828 903 1448 1529 
Q 2069 2156 2228 2338 
Q 2531 2678 2651 2914 
Q 2772 3150 2772 3378 
Q 2772 3750 2511 3984 
Q 2250 4219 1831 4219 
Q 1534 4219 1204 4116 
Q 875 4013 500 3803 
L 500 4441 
Q 881 4594 1212 4672 
Q 1544 4750 1819 4750 
Q 2544 4750 2975 4387 
Q 3406 4025 3406 3419 
Q 3406 3131 3298 2873 
Q 3191 2616 2906 2266 
Q 2828 2175 2409 1742 
Q 1991 1309 1228 531 
z
" transform="scale(0.015625)"/>
       </defs>
       <use xlink:href="#DejaVuSans-32"/>
       <use xlink:href="#DejaVuSans-30" x="63.623047"/>
       <use xlink:href="#DejaVuSans-30" x="127.246094"/>
      </g>
     </g>
    </g>
    <g id="xtick_3">
     <g id="line2d_5">
      <path d="M 157.765279 239.76 
L 157.765279 37.296 
" clip-path="url(#p2ccd37ef34)" style="fill: none; stroke-dasharray: 2.96,1.28; stroke-dashoffset: 0; stroke: #b0b0b0; stroke-opacity: 0.4; stroke-width: 0.8"/>
     </g>
     <g id="line2d_6">
      <g>
       <use xlink:href="#m7fbda5f83b" x="157.765279" y="239.76" style="stroke: #000000; stroke-width: 0.8"/>
      </g>
     </g>
     <g id="text_3">
      <!-- 400 -->
      <g transform="translate(148.221529 254.358437) scale(0.1 -0.1)">
       <defs>
        <path id="DejaVuSans-34" d="M 2419 4116 
L 825 1625 
L 2419 1625 
L 2419 4116 
z
M 2253 4666 
L 3047 4666 
L 3047 1625 
L 3713 1625 
L 3713 1100 
L 3047 1100 
L 3047 0 
L 2419 0 
L 2419 1100 
L 313 1100 
L 313 1709 
L 2253 4666 
z
" transform="scale(0.015625)"/>
       </defs>
       <use xlink:href="#DejaVuSans-34"/>
       <use xlink:href="#DejaVuSans-30" x="63.623047"/>
       <use xlink:href="#DejaVuSans-30" x="127.246094"/>
      </g>
     </g>
    </g>
    <g id="xtick_4">
     <g id="line2d_7">
      <path d="M 208.54333 239.76 
L 208.54333 37.296 
" clip-path="url(#p2ccd37ef34)" style="fill: none; stroke-dasharray: 2.96,1.28; stroke-dashoffset: 0; stroke: #b0b0b0; stroke-opacity: 0.4; stroke-width: 0.8"/>
     </g>
     <g id="line2d_8">
      <g>
       <use xlink:href="#m7fbda5f83b" x="208.54333" y="239.76" style="stroke: #000000; stroke-width: 0.8"/>
      </g>
     </g>
     <g id="text_4">
      <!-- 600 -->
      <g transform="translate(198.99958 254.358437) scale(0.1 -0.1)">
       <defs>
        <path id="DejaVuSans-36" d="M 2113 2584 
Q 1688 2584 1439 2293 
Q 1191 2003 1191 1497 
Q 1191 994 1439 701 
Q 1688 409 2113 409 
Q 2538 409 2786 701 
Q 3034 994 3034 1497 
Q 3034 2003 2786 2293 
Q 2538 2584 2113 2584 
z
M 3366 4563 
L 3366 3988 
Q 3128 4100 2886 4159 
Q 2644 4219 2406 4219 
Q 1781 4219 1451 3797 
Q 1122 3375 1075 2522 
Q 1259 2794 1537 2939 
Q 1816 3084 2150 3084 
Q 2853 3084 3261 2657 
Q 3669 2231 3669 1497 
Q 3669 778 3244 343 
Q 2819 -91 2113 -91 
Q 1303 -91 875 529 
Q 447 1150 447 2328 
Q 447 3434 972 4092 
Q 1497 4750 2381 4750 
Q 2619 4750 2861 4703 
Q 3103 4656 3366 4563 
z
" transform="scale(0.015625)"/>
       </defs>
       <use xlink:href="#DejaVuSans-36"/>
       <use xlink:href="#DejaVuSans-30" x="63.623047"/>
       <use xlink:href="#DejaVuSans-30" x="127.246094"/>
      </g>
     </g>
    </g>
    <g id="xtick_5">
     <g id="line2d_9">
      <path d="M 259.321381 239.76 
L 259.321381 37.296 
" clip-path="url(#p2ccd37ef34)" style="fill: none; stroke-dasharray: 2.96,1.28; stroke-dashoffset: 0; stroke: #b0b0b0; stroke-opacity: 0.4; stroke-width: 0.8"/>
     </g>
     <g id="line2d_10">
      <g>
       <use xlink:href="#m7fbda5f83b" x="259.321381" y="239.76" style="stroke: #000000; stroke-width: 0.8"/>
      </g>
     </g>
     <g id="text_5">
      <!-- 800 -->
      <g transform="translate(249.777631 254.358437) scale(0.1 -0.1)">
       <defs>
        <path id="DejaVuSans-38" d="M 2034 2216 
Q 1584 2216 1326 1975 
Q 1069 1734 1069 1313 
Q 1069 891 1326 650 
Q 1584 409 2034 409 
Q 2484 409 2743 651 
Q 3003 894 3003 1313 
Q 3003 1734 2745 1975 
Q 2488 2216 2034 2216 
z
M 1403 2484 
Q 997 2584 770 2862 
Q 544 3141 544 3541 
Q 544 4100 942 4425 
Q 1341 4750 2034 4750 
Q 2731 4750 3128 4425 
Q 3525 4100 3525 3541 
Q 3525 3141 3298 2862 
Q 3072 2584 2669 2484 
Q 3125 2378 3379 2068 
Q 3634 1759 3634 1313 
Q 3634 634 3220 271 
Q 2806 -91 2034 -91 
Q 1263 -91 848 271 
Q 434 634 434 1313 
Q 434 1759 690 2068 
Q 947 2378 1403 2484 
z
M 1172 3481 
Q 1172 3119 1398 2916 
Q 1625 2713 2034 2713 
Q 2441 2713 2670 2916 
Q 2900 3119 2900 3481 
Q 2900 3844 2670 4047 
Q 2441 4250 2034 4250 
Q 1625 4250 1398 4047 
Q 1172 3844 1172 3481 
z
" transform="scale(0.015625)"/>
       </defs>
       <use xlink:href="#DejaVuSans-38"/>
       <use xlink:href="#DejaVuSans-30" x="63.623047"/>
       <use xlink:href="#DejaVuSans-30" x="127.246094"/>
      </g>
     </g>
    </g>
    <g id="xtick_6">
     <g id="line2d_11">
      <path d="M 310.099432 239.76 
L 310.099432 37.296 
" clip-path="url(#p2ccd37ef34)" style="fill: none; stroke-dasharray: 2.96,1.28; stroke-dashoffset: 0; stroke: #b0b0b0; stroke-opacity: 0.4; stroke-width: 0.8"/>
     </g>
     <g id="line2d_12">
      <g>
       <use xlink:href="#m7fbda5f83b" x="310.099432" y="239.76" style="stroke: #000000; stroke-width: 0.8"/>
      </g>
     </g>
     <g id="text_6">
      <!-- 1000 -->
      <g transform="translate(297.374432 254.358437) scale(0.1 -0.1)">
       <defs>
        <path id="DejaVuSans-31" d="M 794 531 
L 1825 531 
L 1825 4091 
L 703 3866 
L 703 4441 
L 1819 4666 
L 2450 4666 
L 2450 531 
L 3481 531 
L 3481 0 
L 794 0 
L 794 531 
z
" transform="scale(0.015625)"/>
       </defs>
       <use xlink:href="#DejaVuSans-31"/>
       <use xlink:href="#DejaVuSans-30" x="63.623047"/>
       <use xlink:href="#DejaVuSans-30" x="127.246094"/>
       <use xlink:href="#DejaVuSans-30" x="190.869141"/>
      </g>
     </g>
    </g>
    <g id="text_7">
     <!-- Epochs -->
     <g transform="translate(165.365625 268.036562) scale(0.1 -0.1)">
      <defs>
       <path id="DejaVuSans-45" d="M 628 4666 
L 3578 4666 
L 3578 4134 
L 1259 4134 
L 1259 2753 
L 3481 2753 
L 3481 2222 
L 1259 2222 
L 1259 531 
L 3634 531 
L 3634 0 
L 628 0 
L 628 4666 
z
" transform="scale(0.015625)"/>
       <path id="DejaVuSans-70" d="M 1159 525 
L 1159 -1331 
L 581 -1331 
L 581 3500 
L 1159 3500 
L 1159 2969 
Q 1341 3281 1617 3432 
Q 1894 3584 2278 3584 
Q 2916 3584 3314 3078 
Q 3713 2572 3713 1747 
Q 3713 922 3314 415 
Q 2916 -91 2278 -91 
Q 1894 -91 1617 61 
Q 1341 213 1159 525 
z
M 3116 1747 
Q 3116 2381 2855 2742 
Q 2594 3103 2138 3103 
Q 1681 3103 1420 2742 
Q 1159 2381 1159 1747 
Q 1159 1113 1420 752 
Q 1681 391 2138 391 
Q 2594 391 2855 752 
Q 3116 1113 3116 1747 
z
" transform="scale(0.015625)"/>
       <path id="DejaVuSans-6f" d="M 1959 3097 
Q 1497 3097 1228 2736 
Q 959 2375 959 1747 
Q 959 1119 1226 758 
Q 1494 397 1959 397 
Q 2419 397 2687 759 
Q 2956 1122 2956 1747 
Q 2956 2369 2687 2733 
Q 2419 3097 1959 3097 
z
M 1959 3584 
Q 2709 3584 3137 3096 
Q 3566 2609 3566 1747 
Q 3566 888 3137 398 
Q 2709 -91 1959 -91 
Q 1206 -91 779 398 
Q 353 888 353 1747 
Q 353 2609 779 3096 
Q 1206 3584 1959 3584 
z
" transform="scale(0.015625)"/>
       <path id="DejaVuSans-63" d="M 3122 3366 
L 3122 2828 
Q 2878 2963 2633 3030 
Q 2388 3097 2138 3097 
Q 1578 3097 1268 2742 
Q 959 2388 959 1747 
Q 959 1106 1268 751 
Q 1578 397 2138 397 
Q 2388 397 2633 464 
Q 2878 531 3122 666 
L 3122 134 
Q 2881 22 2623 -34 
Q 2366 -91 2075 -91 
Q 1284 -91 818 406 
Q 353 903 353 1747 
Q 353 2603 823 3093 
Q 1294 3584 2113 3584 
Q 2378 3584 2631 3529 
Q 2884 3475 3122 3366 
z
" transform="scale(0.015625)"/>
       <path id="DejaVuSans-68" d="M 3513 2113 
L 3513 0 
L 2938 0 
L 2938 2094 
Q 2938 2591 2744 2837 
Q 2550 3084 2163 3084 
Q 1697 3084 1428 2787 
Q 1159 2491 1159 1978 
L 1159 0 
L 581 0 
L 581 4863 
L 1159 4863 
L 1159 2956 
Q 1366 3272 1645 3428 
Q 1925 3584 2291 3584 
Q 2894 3584 3203 3211 
Q 3513 2838 3513 2113 
z
" transform="scale(0.015625)"/>
       <path id="DejaVuSans-73" d="M 2834 3397 
L 2834 2853 
Q 2591 2978 2328 3040 
Q 2066 3103 1784 3103 
Q 1356 3103 1142 2972 
Q 928 2841 928 2578 
Q 928 2378 1081 2264 
Q 1234 2150 1697 2047 
L 1894 2003 
Q 2506 1872 2764 1633 
Q 3022 1394 3022 966 
Q 3022 478 2636 193 
Q 2250 -91 1575 -91 
Q 1294 -91 989 -36 
Q 684 19 347 128 
L 347 722 
Q 666 556 975 473 
Q 1284 391 1588 391 
Q 1994 391 2212 530 
Q 2431 669 2431 922 
Q 2431 1156 2273 1281 
Q 2116 1406 1581 1522 
L 1381 1569 
Q 847 1681 609 1914 
Q 372 2147 372 2553 
Q 372 3047 722 3315 
Q 1072 3584 1716 3584 
Q 2034 3584 2315 3537 
Q 2597 3491 2834 3397 
z
" transform="scale(0.015625)"/>
      </defs>
      <use xlink:href="#DejaVuSans-45"/>
      <use xlink:href="#DejaVuSans-70" x="63.183594"/>
      <use xlink:href="#DejaVuSans-6f" x="126.660156"/>
      <use xlink:href="#DejaVuSans-63" x="187.841797"/>
      <use xlink:href="#DejaVuSans-68" x="242.822266"/>
      <use xlink:href="#DejaVuSans-73" x="306.201172"/>
     </g>
    </g>
   </g>
   <g id="matplotlib.axis_2">
    <g id="ytick_1">
     <g id="line2d_13">
      <path d="M 43.78125 224.452008 
L 322.78125 224.452008 
" clip-path="url(#p2ccd37ef34)" style="fill: none; stroke-dasharray: 2.96,1.28; stroke-dashoffset: 0; stroke: #b0b0b0; stroke-opacity: 0.4; stroke-width: 0.8"/>
     </g>
     <g id="line2d_14">
      <defs>
       <path id="m165b07e913" d="M 0 0 
L -3.5 0 
" style="stroke: #000000; stroke-width: 0.8"/>
      </defs>
      <g>
       <use xlink:href="#m165b07e913" x="43.78125" y="224.452008" style="stroke: #000000; stroke-width: 0.8"/>
      </g>
     </g>
     <g id="text_8">
      <!-- 0.5 -->
      <g transform="translate(20.878125 228.251227) scale(0.1 -0.1)">
       <defs>
        <path id="DejaVuSans-2e" d="M 684 794 
L 1344 794 
L 1344 0 
L 684 0 
L 684 794 
z
" transform="scale(0.015625)"/>
        <path id="DejaVuSans-35" d="M 691 4666 
L 3169 4666 
L 3169 4134 
L 1269 4134 
L 1269 2991 
Q 1406 3038 1543 3061 
Q 1681 3084 1819 3084 
Q 2600 3084 3056 2656 
Q 3513 2228 3513 1497 
Q 3513 744 3044 326 
Q 2575 -91 1722 -91 
Q 1428 -91 1123 -41 
Q 819 9 494 109 
L 494 744 
Q 775 591 1075 516 
Q 1375 441 1709 441 
Q 2250 441 2565 725 
Q 2881 1009 2881 1497 
Q 2881 1984 2565 2268 
Q 2250 2553 1709 2553 
Q 1456 2553 1204 2497 
Q 953 2441 691 2322 
L 691 4666 
z
" transform="scale(0.015625)"/>
       </defs>
       <use xlink:href="#DejaVuSans-30"/>
       <use xlink:href="#DejaVuSans-2e" x="63.623047"/>
       <use xlink:href="#DejaVuSans-35" x="95.410156"/>
      </g>
     </g>
    </g>
    <g id="ytick_2">
     <g id="line2d_15">
      <path d="M 43.78125 182.271415 
L 322.78125 182.271415 
" clip-path="url(#p2ccd37ef34)" style="fill: none; stroke-dasharray: 2.96,1.28; stroke-dashoffset: 0; stroke: #b0b0b0; stroke-opacity: 0.4; stroke-width: 0.8"/>
     </g>
     <g id="line2d_16">
      <g>
       <use xlink:href="#m165b07e913" x="43.78125" y="182.271415" style="stroke: #000000; stroke-width: 0.8"/>
      </g>
     </g>
     <g id="text_9">
      <!-- 0.6 -->
      <g transform="translate(20.878125 186.070634) scale(0.1 -0.1)">
       <use xlink:href="#DejaVuSans-30"/>
       <use xlink:href="#DejaVuSans-2e" x="63.623047"/>
       <use xlink:href="#DejaVuSans-36" x="95.410156"/>
      </g>
     </g>
    </g>
    <g id="ytick_3">
     <g id="line2d_17">
      <path d="M 43.78125 140.090822 
L 322.78125 140.090822 
" clip-path="url(#p2ccd37ef34)" style="fill: none; stroke-dasharray: 2.96,1.28; stroke-dashoffset: 0; stroke: #b0b0b0; stroke-opacity: 0.4; stroke-width: 0.8"/>
     </g>
     <g id="line2d_18">
      <g>
       <use xlink:href="#m165b07e913" x="43.78125" y="140.090822" style="stroke: #000000; stroke-width: 0.8"/>
      </g>
     </g>
     <g id="text_10">
      <!-- 0.7 -->
      <g transform="translate(20.878125 143.89004) scale(0.1 -0.1)">
       <defs>
        <path id="DejaVuSans-37" d="M 525 4666 
L 3525 4666 
L 3525 4397 
L 1831 0 
L 1172 0 
L 2766 4134 
L 525 4134 
L 525 4666 
z
" transform="scale(0.015625)"/>
       </defs>
       <use xlink:href="#DejaVuSans-30"/>
       <use xlink:href="#DejaVuSans-2e" x="63.623047"/>
       <use xlink:href="#DejaVuSans-37" x="95.410156"/>
      </g>
     </g>
    </g>
    <g id="ytick_4">
     <g id="line2d_19">
      <path d="M 43.78125 97.910228 
L 322.78125 97.910228 
" clip-path="url(#p2ccd37ef34)" style="fill: none; stroke-dasharray: 2.96,1.28; stroke-dashoffset: 0; stroke: #b0b0b0; stroke-opacity: 0.4; stroke-width: 0.8"/>
     </g>
     <g id="line2d_20">
      <g>
       <use xlink:href="#m165b07e913" x="43.78125" y="97.910228" style="stroke: #000000; stroke-width: 0.8"/>
      </g>
     </g>
     <g id="text_11">
      <!-- 0.8 -->
      <g transform="translate(20.878125 101.709447) scale(0.1 -0.1)">
       <use xlink:href="#DejaVuSans-30"/>
       <use xlink:href="#DejaVuSans-2e" x="63.623047"/>
       <use xlink:href="#DejaVuSans-38" x="95.410156"/>
      </g>
     </g>
    </g>
    <g id="ytick_5">
     <g id="line2d_21">
      <path d="M 43.78125 55.729635 
L 322.78125 55.729635 
" clip-path="url(#p2ccd37ef34)" style="fill: none; stroke-dasharray: 2.96,1.28; stroke-dashoffset: 0; stroke: #b0b0b0; stroke-opacity: 0.4; stroke-width: 0.8"/>
     </g>
     <g id="line2d_22">
      <g>
       <use xlink:href="#m165b07e913" x="43.78125" y="55.729635" style="stroke: #000000; stroke-width: 0.8"/>
      </g>
     </g>
     <g id="text_12">
      <!-- 0.9 -->
      <g transform="translate(20.878125 59.528854) scale(0.1 -0.1)">
       <defs>
        <path id="DejaVuSans-39" d="M 703 97 
L 703 672 
Q 941 559 1184 500 
Q 1428 441 1663 441 
Q 2288 441 2617 861 
Q 2947 1281 2994 2138 
Q 2813 1869 2534 1725 
Q 2256 1581 1919 1581 
Q 1219 1581 811 2004 
Q 403 2428 403 3163 
Q 403 3881 828 4315 
Q 1253 4750 1959 4750 
Q 2769 4750 3195 4129 
Q 3622 3509 3622 2328 
Q 3622 1225 3098 567 
Q 2575 -91 1691 -91 
Q 1453 -91 1209 -44 
Q 966 3 703 97 
z
M 1959 2075 
Q 2384 2075 2632 2365 
Q 2881 2656 2881 3163 
Q 2881 3666 2632 3958 
Q 2384 4250 1959 4250 
Q 1534 4250 1286 3958 
Q 1038 3666 1038 3163 
Q 1038 2656 1286 2365 
Q 1534 2075 1959 2075 
z
" transform="scale(0.015625)"/>
       </defs>
       <use xlink:href="#DejaVuSans-30"/>
       <use xlink:href="#DejaVuSans-2e" x="63.623047"/>
       <use xlink:href="#DejaVuSans-39" x="95.410156"/>
      </g>
     </g>
    </g>
    <g id="text_13">
     <!-- Accuracy -->
     <g transform="translate(14.798438 161.356125) rotate(-90) scale(0.1 -0.1)">
      <defs>
       <path id="DejaVuSans-41" d="M 2188 4044 
L 1331 1722 
L 3047 1722 
L 2188 4044 
z
M 1831 4666 
L 2547 4666 
L 4325 0 
L 3669 0 
L 3244 1197 
L 1141 1197 
L 716 0 
L 50 0 
L 1831 4666 
z
" transform="scale(0.015625)"/>
       <path id="DejaVuSans-75" d="M 544 1381 
L 544 3500 
L 1119 3500 
L 1119 1403 
Q 1119 906 1312 657 
Q 1506 409 1894 409 
Q 2359 409 2629 706 
Q 2900 1003 2900 1516 
L 2900 3500 
L 3475 3500 
L 3475 0 
L 2900 0 
L 2900 538 
Q 2691 219 2414 64 
Q 2138 -91 1772 -91 
Q 1169 -91 856 284 
Q 544 659 544 1381 
z
M 1991 3584 
L 1991 3584 
z
" transform="scale(0.015625)"/>
       <path id="DejaVuSans-72" d="M 2631 2963 
Q 2534 3019 2420 3045 
Q 2306 3072 2169 3072 
Q 1681 3072 1420 2755 
Q 1159 2438 1159 1844 
L 1159 0 
L 581 0 
L 581 3500 
L 1159 3500 
L 1159 2956 
Q 1341 3275 1631 3429 
Q 1922 3584 2338 3584 
Q 2397 3584 2469 3576 
Q 2541 3569 2628 3553 
L 2631 2963 
z
" transform="scale(0.015625)"/>
       <path id="DejaVuSans-61" d="M 2194 1759 
Q 1497 1759 1228 1600 
Q 959 1441 959 1056 
Q 959 750 1161 570 
Q 1363 391 1709 391 
Q 2188 391 2477 730 
Q 2766 1069 2766 1631 
L 2766 1759 
L 2194 1759 
z
M 3341 1997 
L 3341 0 
L 2766 0 
L 2766 531 
Q 2569 213 2275 61 
Q 1981 -91 1556 -91 
Q 1019 -91 701 211 
Q 384 513 384 1019 
Q 384 1609 779 1909 
Q 1175 2209 1959 2209 
L 2766 2209 
L 2766 2266 
Q 2766 2663 2505 2880 
Q 2244 3097 1772 3097 
Q 1472 3097 1187 3025 
Q 903 2953 641 2809 
L 641 3341 
Q 956 3463 1253 3523 
Q 1550 3584 1831 3584 
Q 2591 3584 2966 3190 
Q 3341 2797 3341 1997 
z
" transform="scale(0.015625)"/>
       <path id="DejaVuSans-79" d="M 2059 -325 
Q 1816 -950 1584 -1140 
Q 1353 -1331 966 -1331 
L 506 -1331 
L 506 -850 
L 844 -850 
Q 1081 -850 1212 -737 
Q 1344 -625 1503 -206 
L 1606 56 
L 191 3500 
L 800 3500 
L 1894 763 
L 2988 3500 
L 3597 3500 
L 2059 -325 
z
" transform="scale(0.015625)"/>
      </defs>
      <use xlink:href="#DejaVuSans-41"/>
      <use xlink:href="#DejaVuSans-63" x="66.658203"/>
      <use xlink:href="#DejaVuSans-63" x="121.638672"/>
      <use xlink:href="#DejaVuSans-75" x="176.619141"/>
      <use xlink:href="#DejaVuSans-72" x="239.998047"/>
      <use xlink:href="#DejaVuSans-61" x="281.111328"/>
      <use xlink:href="#DejaVuSans-63" x="342.390625"/>
      <use xlink:href="#DejaVuSans-79" x="397.371094"/>
     </g>
    </g>
   </g>
   <g id="line2d_23">
    <path d="M 56.463068 224.095148 
L 56.716958 229.44802 
L 56.970849 223.857234 
L 57.224739 229.923824 
L 57.478629 229.923824 
L 57.732519 223.738289 
L 57.98641 229.210118 
L 58.49419 222.31085 
L 58.74808 228.258496 
L 59.255861 222.07296 
L 59.509751 223.500399 
L 59.763641 226.712112 
L 60.017532 225.284673 
L 60.271422 221.7161 
L 60.525312 223.857234 
L 60.779202 223.619344 
L 61.286983 218.385417 
L 61.540873 218.861247 
L 61.794764 212.556741 
L 62.048654 220.169716 
L 62.302544 221.478185 
L 62.556434 219.574941 
L 62.810325 222.905624 
L 63.064215 224.689911 
L 63.318105 222.786679 
L 63.571995 224.095148 
L 63.825886 216.244284 
L 64.079776 224.333063 
L 64.333666 213.270461 
L 64.841447 219.574941 
L 65.095337 211.724077 
L 65.349227 217.314863 
L 65.857008 206.728065 
L 66.364788 208.036559 
L 66.618678 200.30464 
L 66.872569 199.115115 
L 67.126459 199.115115 
L 67.380349 197.687676 
L 67.634239 192.57272 
L 67.88813 182.104892 
L 68.14202 183.770221 
L 68.39591 171.637064 
L 68.6498 168.782186 
L 69.157581 150.225579 
L 69.411471 150.463494 
L 69.665361 163.66723 
L 69.919252 148.798165 
L 70.173142 157.600639 
L 70.427032 134.285934 
L 70.680922 126.554015 
L 70.934813 123.818107 
L 71.188703 129.527838 
L 71.442593 114.777718 
L 71.696483 111.20912 
L 71.950374 109.662736 
L 72.204264 105.499414 
L 72.458154 115.253522 
L 72.965935 100.979207 
L 73.219825 101.336067 
L 73.473715 101.217122 
L 73.727605 99.908628 
L 73.981496 104.666725 
L 74.235386 98.005384 
L 74.489276 94.912616 
L 74.743166 97.648524 
L 74.997057 94.793671 
L 75.250947 90.273464 
L 75.504837 97.053775 
L 75.758727 94.912616 
L 76.012618 99.432823 
L 76.266508 90.511379 
L 76.520398 90.987184 
L 76.774288 89.916605 
L 77.028179 91.938818 
L 77.282069 92.057763 
L 77.535959 90.868239 
L 77.78985 91.225099 
L 78.04374 90.273464 
L 78.29763 88.251276 
L 78.55152 88.013361 
L 78.805411 92.771483 
L 79.059301 89.559745 
L 79.313191 88.251276 
L 79.567081 87.656526 
L 79.820972 85.277453 
L 80.074862 87.061752 
L 80.328752 92.890428 
L 80.836533 86.110142 
L 81.090423 88.013361 
L 81.344313 85.753283 
L 81.598203 86.110142 
L 81.852094 85.872227 
L 82.105984 85.277453 
L 82.359874 85.634312 
L 82.613764 86.229087 
L 82.867655 82.660515 
L 83.121545 81.114131 
L 83.375435 86.704892 
L 83.629325 85.872227 
L 83.883216 82.4226 
L 84.137106 82.06574 
L 84.390996 83.136319 
L 84.644886 85.872227 
L 84.898777 81.70888 
L 85.152667 79.805636 
L 85.406557 85.753283 
L 85.660447 79.924606 
L 85.914338 78.497167 
L 86.168228 79.448777 
L 86.422118 81.946795 
L 86.676008 77.664503 
L 86.929899 80.638301 
L 87.183789 76.831839 
L 87.437679 82.4226 
L 87.691569 78.616112 
L 87.94546 81.589935 
L 88.70713 78.616112 
L 88.961021 77.307643 
L 89.214911 77.783448 
L 89.468801 77.069728 
L 89.722691 78.378223 
L 89.976582 75.523344 
L 90.230472 74.809625 
L 90.484362 74.809625 
L 90.738252 78.854027 
L 90.992143 77.783448 
L 91.246033 78.497167 
L 91.499923 74.69068 
L 91.753813 75.999149 
L 92.007704 76.237064 
L 92.261594 73.501156 
L 92.515484 74.69068 
L 92.769374 71.954772 
L 93.023265 73.144296 
L 93.277155 75.999149 
L 93.531045 71.954772 
L 93.784936 75.880204 
L 94.038826 72.311632 
L 94.292716 71.716857 
L 94.546606 75.999149 
L 94.800497 72.549521 
L 95.054387 72.549521 
L 95.308277 75.523344 
L 95.816058 72.906381 
L 96.069948 72.668491 
L 96.577728 73.620101 
L 96.831619 70.408388 
L 97.085509 70.646303 
L 97.339399 71.954772 
L 97.593289 71.597912 
L 97.84718 73.97696 
L 98.10107 70.051528 
L 98.35496 70.884193 
L 98.862741 68.505144 
L 99.116631 68.505144 
L 99.370521 68.980949 
L 99.624411 69.694668 
L 99.878302 73.382211 
L 100.132192 69.218864 
L 100.639972 68.624089 
L 100.893863 70.289443 
L 101.147753 67.196675 
L 101.401643 68.386199 
L 101.655533 70.170473 
L 102.163314 69.575723 
L 102.417204 69.694668 
L 102.671094 70.051528 
L 102.924985 72.549521 
L 103.178875 70.646303 
L 103.432765 67.67248 
L 103.686655 70.527333 
L 103.940546 66.363986 
L 104.194436 66.007151 
L 104.448326 67.553535 
L 104.702216 67.196675 
L 104.956107 69.456753 
L 105.209997 67.791425 
L 105.463887 67.196675 
L 105.717777 70.289443 
L 105.971668 67.434565 
L 106.479448 68.386199 
L 106.733338 66.6019 
L 106.987229 68.267229 
L 107.495009 66.720845 
L 107.748899 66.482956 
L 108.00279 69.099919 
L 108.25668 66.245041 
L 108.51057 66.95876 
L 108.76446 67.196675 
L 109.018351 64.222852 
L 109.272241 69.099919 
L 109.526131 66.126096 
L 109.780021 65.293431 
L 110.033912 67.434565 
L 110.287802 66.720845 
L 110.541692 64.579712 
L 110.795583 64.460767 
L 111.049473 68.148284 
L 111.303363 66.720845 
L 111.557253 67.553535 
L 111.811144 65.650291 
L 112.065034 66.482956 
L 112.318924 63.865992 
L 112.572814 63.984937 
L 112.826705 65.531321 
L 113.080595 65.888181 
L 113.334485 62.438553 
L 113.588375 67.077705 
L 113.842266 65.293431 
L 114.096156 64.817602 
L 114.350046 65.055516 
L 114.603936 64.579712 
L 114.857827 65.888181 
L 115.111717 68.02934 
L 115.365607 64.579712 
L 115.619497 65.888181 
L 115.873388 67.910369 
L 116.127278 63.628077 
L 116.381168 66.95876 
L 116.635058 62.557523 
L 116.888949 69.218864 
L 117.142839 63.628077 
L 117.396729 66.126096 
L 117.650619 61.486944 
L 117.90451 63.865992 
L 118.1584 62.438553 
L 118.41229 64.936572 
L 118.66618 63.152273 
L 118.920071 66.6019 
L 119.173961 63.865992 
L 119.427851 62.914383 
L 119.681741 63.033328 
L 119.935632 62.795413 
L 120.189522 65.174461 
L 120.443412 62.676468 
L 120.697302 62.557523 
L 121.205083 65.174461 
L 121.712863 62.914383 
L 121.966754 63.984937 
L 122.220644 62.438553 
L 122.474534 63.271218 
L 122.728424 58.988926 
L 122.982315 59.107896 
L 123.236205 57.918371 
L 123.743985 61.367999 
L 124.251766 57.918371 
L 124.505656 59.94056 
L 124.759546 59.5837 
L 125.013437 61.962749 
L 125.267327 57.918371 
L 125.521217 58.869981 
L 125.775107 58.275231 
L 126.028998 60.65428 
L 126.282888 58.037316 
L 126.536778 60.773224 
L 127.044559 59.464755 
L 127.298449 59.94056 
L 127.552339 57.799401 
L 127.80623 58.869981 
L 128.06012 56.015128 
L 128.31401 60.53531 
L 128.5679 57.799401 
L 128.821791 56.847792 
L 129.075681 61.130084 
L 129.329571 56.728847 
L 129.583461 57.323597 
L 129.837352 58.632091 
L 130.091242 58.751036 
L 130.345132 56.966737 
L 130.599022 57.680457 
L 130.852913 60.53531 
L 131.360693 56.490932 
L 131.614583 57.799401 
L 131.868474 62.200663 
L 132.122364 58.632091 
L 132.376254 57.442542 
L 132.630144 58.988926 
L 132.884035 59.345785 
L 133.137925 58.632091 
L 133.391815 59.107896 
L 133.645705 55.896158 
L 133.899596 57.918371 
L 134.153486 58.037316 
L 134.407376 59.702645 
L 134.661266 58.037316 
L 134.915157 54.349774 
L 135.169047 56.728847 
L 135.422937 56.847792 
L 135.676827 57.204652 
L 135.930718 55.420353 
L 136.184608 55.777213 
L 136.438498 57.204652 
L 136.692388 57.680457 
L 136.946279 55.896158 
L 137.200169 55.420353 
L 137.454059 57.918371 
L 137.96184 53.873969 
L 138.21573 54.349774 
L 138.46962 54.349774 
L 138.72351 56.609877 
L 138.977401 56.490932 
L 139.231291 53.636079 
L 139.485181 53.27922 
L 139.739071 54.825604 
L 139.992962 54.468744 
L 140.246852 55.658268 
L 140.500742 56.253017 
L 140.754632 55.301408 
L 141.008523 56.847792 
L 141.262413 56.490932 
L 141.516303 55.182463 
L 141.770193 56.371987 
L 142.024084 54.468744 
L 142.277974 57.442542 
L 142.531864 54.706633 
L 142.785755 53.27922 
L 143.039645 56.847792 
L 143.293535 53.755024 
L 143.547425 55.301408 
L 143.801316 51.85178 
L 144.055206 53.755024 
L 144.309096 53.755024 
L 144.562986 52.684445 
L 145.070767 55.658268 
L 145.324657 55.539323 
L 145.578547 53.755024 
L 145.832438 56.134073 
L 146.340218 52.5655 
L 146.594108 56.015128 
L 146.847999 55.063493 
L 147.101889 54.587689 
L 147.355779 57.442542 
L 147.609669 56.015128 
L 147.86356 52.20864 
L 148.11745 53.873969 
L 148.37134 53.873969 
L 148.62523 53.27922 
L 148.879121 55.658268 
L 149.133011 53.16025 
L 149.386901 51.970725 
L 149.640791 53.398164 
L 149.894682 50.781201 
L 150.148572 52.089695 
L 150.402462 54.111884 
L 150.656352 53.517109 
L 150.910243 54.587689 
L 151.164133 52.20864 
L 151.418023 52.80339 
L 151.671913 52.92236 
L 151.925804 54.587689 
L 152.179694 53.041305 
L 152.433584 52.446555 
L 152.687474 53.16025 
L 152.941365 54.349774 
L 153.195255 51.732836 
L 153.449145 53.041305 
L 153.703035 55.777213 
L 153.956926 53.041305 
L 154.210816 52.92236 
L 154.464706 52.446555 
L 154.718596 53.27922 
L 154.972487 51.85178 
L 155.226377 53.873969 
L 155.734157 54.349774 
L 155.988048 55.658268 
L 156.241938 52.446555 
L 156.495828 54.944548 
L 157.003609 52.089695 
L 157.257499 55.420353 
L 157.511389 51.613866 
L 157.765279 52.5655 
L 158.01917 54.230829 
L 158.27306 53.873969 
L 158.78084 50.662256 
L 159.034731 51.970725 
L 159.288621 52.327585 
L 159.542511 51.85178 
L 159.796402 51.138061 
L 160.050292 53.398164 
L 160.558072 50.305397 
L 160.811963 52.80339 
L 161.065853 52.5655 
L 161.319743 51.613866 
L 161.827524 50.781201 
L 162.081414 52.5655 
L 162.335304 50.781201 
L 162.589194 53.041305 
L 162.843085 51.970725 
L 163.096975 49.472732 
L 163.350865 53.873969 
L 163.604755 51.138061 
L 163.858646 51.257006 
L 164.112536 51.138061 
L 164.366426 51.257006 
L 164.620316 50.662256 
L 164.874207 50.900171 
L 165.128097 51.732836 
L 165.381987 51.732836 
L 165.635877 50.067482 
L 165.889768 53.992939 
L 166.143658 53.992939 
L 166.397548 51.138061 
L 166.651438 50.900171 
L 166.905329 50.900171 
L 167.159219 51.970725 
L 167.413109 51.970725 
L 167.666999 51.019116 
L 167.92089 53.992939 
L 168.17478 51.732836 
L 168.42867 53.398164 
L 168.68256 50.900171 
L 169.190341 52.5655 
L 169.444231 49.472732 
L 169.698121 52.20864 
L 169.952012 51.019116 
L 170.205902 53.16025 
L 170.459792 51.375976 
L 170.713682 50.662256 
L 170.967573 53.992939 
L 171.221463 51.375976 
L 171.475353 52.80339 
L 171.729243 52.80339 
L 171.983134 49.710622 
L 172.237024 49.710622 
L 172.490914 52.5655 
L 172.744804 51.732836 
L 172.998695 52.92236 
L 173.252585 51.019116 
L 173.506475 52.089695 
L 173.760365 51.375976 
L 174.014256 51.613866 
L 174.268146 50.424341 
L 174.775926 53.398164 
L 175.029817 51.138061 
L 175.283707 53.755024 
L 175.537597 48.640068 
L 175.791488 51.732836 
L 176.045378 52.20864 
L 176.299268 49.948537 
L 176.553158 52.92236 
L 176.807049 49.353787 
L 177.060939 50.424341 
L 177.314829 48.402153 
L 177.568719 51.019116 
L 177.82261 50.662256 
L 178.0765 52.92236 
L 178.33039 50.781201 
L 178.58428 49.591677 
L 178.838171 52.20864 
L 179.092061 51.85178 
L 179.345951 52.80339 
L 179.599841 52.80339 
L 179.853732 53.041305 
L 180.107622 51.257006 
L 180.361512 52.5655 
L 180.615402 51.494921 
L 180.869293 51.019116 
L 181.123183 53.755024 
L 181.884854 50.543311 
L 182.138744 53.398164 
L 182.392634 50.424341 
L 182.900415 52.327585 
L 183.154305 49.948537 
L 183.408195 51.019116 
L 183.915976 48.521098 
L 184.423756 51.019116 
L 184.677646 48.521098 
L 184.931537 53.517109 
L 185.185427 52.446555 
L 185.439317 49.948537 
L 185.693207 51.375976 
L 186.200988 50.067482 
L 186.454878 51.613866 
L 186.708768 51.494921 
L 186.962659 51.019116 
L 187.216549 49.591677 
L 187.470439 50.186452 
L 187.724329 51.375976 
L 187.97822 51.375976 
L 188.23211 50.662256 
L 188.486 51.138061 
L 188.993781 49.948537 
L 189.247671 50.543311 
L 189.501561 52.20864 
L 190.009342 49.115872 
L 190.263232 50.781201 
L 190.517122 51.019116 
L 190.771012 51.019116 
L 191.024903 50.186452 
L 191.278793 51.970725 
L 191.532683 47.569488 
L 191.786574 52.684445 
L 192.040464 52.92236 
L 192.548244 51.494921 
L 192.802135 51.732836 
L 193.056025 51.257006 
L 193.309915 50.186452 
L 193.563805 51.732836 
L 193.817696 50.305397 
L 194.071586 49.710622 
L 194.325476 51.375976 
L 194.579366 51.970725 
L 195.087147 49.115872 
L 195.341037 52.20864 
L 195.594927 50.424341 
L 195.848818 51.138061 
L 196.102708 50.900171 
L 196.356598 51.138061 
L 196.610488 52.20864 
L 196.864379 51.138061 
L 197.118269 48.640068 
L 197.372159 51.257006 
L 197.626049 48.164238 
L 197.87994 50.543311 
L 198.13383 50.781201 
L 198.38772 50.067482 
L 198.64161 53.27922 
L 198.895501 47.688433 
L 199.149391 52.20864 
L 199.403281 48.759013 
L 199.657171 53.041305 
L 199.911062 48.996927 
L 200.418842 50.424341 
L 200.672732 49.472732 
L 200.926623 52.5655 
L 201.180513 49.591677 
L 201.434403 50.305397 
L 201.688293 51.970725 
L 201.942184 50.543311 
L 202.196074 51.375976 
L 202.449964 51.019116 
L 202.703854 49.710622 
L 202.957745 50.424341 
L 203.211635 49.472732 
L 203.465525 49.234817 
L 203.719415 51.613866 
L 203.973306 51.257006 
L 204.227196 52.20864 
L 204.481086 50.305397 
L 204.734976 51.138061 
L 204.988867 49.472732 
L 205.242757 48.996927 
L 205.750537 51.613866 
L 206.258318 46.498909 
L 206.512208 51.138061 
L 207.273879 50.424341 
L 207.527769 48.759013 
L 207.78166 51.019116 
L 208.03555 50.662256 
L 208.28944 48.996927 
L 208.54333 51.613866 
L 208.797221 50.186452 
L 209.051111 49.710622 
L 209.305001 51.138061 
L 209.558891 49.829592 
L 209.812782 49.115872 
L 210.066672 48.996927 
L 210.320562 51.019116 
L 210.574452 51.494921 
L 210.828343 51.257006 
L 211.082233 49.591677 
L 211.336123 50.067482 
L 211.590013 48.045293 
L 211.843904 49.829592 
L 212.097794 50.662256 
L 212.351684 49.710622 
L 212.605574 51.494921 
L 212.859465 51.970725 
L 213.113355 49.591677 
L 213.367245 52.327585 
L 213.621135 51.019116 
L 213.875026 47.807403 
L 214.128916 48.283208 
L 214.382806 48.521098 
L 214.890587 51.375976 
L 215.398367 47.331574 
L 215.652257 49.948537 
L 215.906148 49.829592 
L 216.160038 51.85178 
L 216.413928 51.85178 
L 216.667818 49.591677 
L 216.921709 51.85178 
L 217.175599 49.353787 
L 217.429489 51.138061 
L 217.683379 51.019116 
L 217.93727 49.234817 
L 218.44505 50.900171 
L 218.69894 49.829592 
L 218.952831 53.27922 
L 219.206721 49.115872 
L 219.460611 51.494921 
L 219.714501 49.710622 
L 219.968392 51.257006 
L 220.222282 51.138061 
L 220.476172 48.996927 
L 220.983953 50.662256 
L 221.237843 50.305397 
L 221.491733 52.20864 
L 221.745623 51.138061 
L 221.999514 51.138061 
L 222.253404 50.543311 
L 222.507294 52.5655 
L 223.015075 50.305397 
L 223.268965 48.996927 
L 223.522855 50.543311 
L 223.776745 50.067482 
L 224.030636 51.494921 
L 224.284526 48.521098 
L 224.538416 51.257006 
L 224.792307 50.186452 
L 225.046197 52.446555 
L 225.300087 51.732836 
L 225.553977 49.829592 
L 225.807868 52.446555 
L 226.061758 51.019116 
L 226.569538 51.613866 
L 226.823429 50.186452 
L 227.077319 49.710622 
L 227.331209 50.662256 
L 227.585099 50.067482 
L 228.09288 52.089695 
L 228.34677 51.85178 
L 228.60066 47.450544 
L 228.854551 50.662256 
L 229.108441 48.759013 
L 229.616221 53.041305 
L 229.870112 49.353787 
L 230.124002 50.186452 
L 230.377892 50.067482 
L 230.631782 50.781201 
L 230.885673 50.662256 
L 231.139563 50.781201 
L 231.647343 48.877957 
L 231.901234 50.424341 
L 232.155124 49.948537 
L 232.409014 51.494921 
L 232.662904 49.710622 
L 232.916795 51.375976 
L 233.170685 51.138061 
L 233.424575 49.472732 
L 233.678465 50.186452 
L 233.932356 52.20864 
L 234.440136 49.591677 
L 234.694026 49.353787 
L 234.947917 50.662256 
L 235.201807 49.472732 
L 235.455697 50.900171 
L 235.709587 51.375976 
L 235.963478 51.375976 
L 236.217368 52.5655 
L 236.471258 50.900171 
L 236.725148 50.900171 
L 236.979039 48.640068 
L 237.232929 51.85178 
L 237.486819 50.900171 
L 237.740709 51.138061 
L 237.9946 50.305397 
L 238.50238 50.781201 
L 238.75627 50.781201 
L 239.010161 49.353787 
L 239.264051 52.684445 
L 239.517941 48.402153 
L 239.771831 50.543311 
L 240.025722 51.732836 
L 240.279612 48.996927 
L 240.787393 51.138061 
L 241.041283 50.662256 
L 241.295173 51.138061 
L 241.549063 51.019116 
L 241.802954 50.067482 
L 242.056844 50.186452 
L 242.310734 51.613866 
L 242.564624 49.234817 
L 242.818515 48.640068 
L 243.072405 48.996927 
L 243.326295 52.92236 
L 243.580185 48.996927 
L 243.834076 49.948537 
L 244.087966 51.613866 
L 244.341856 49.948537 
L 244.595746 51.375976 
L 244.849637 50.662256 
L 245.103527 51.613866 
L 245.357417 49.115872 
L 245.611307 51.019116 
L 245.865198 51.85178 
L 246.119088 50.662256 
L 246.372978 47.926348 
L 246.626868 48.877957 
L 246.880759 51.019116 
L 247.134649 51.732836 
L 247.388539 49.829592 
L 247.642429 52.5655 
L 247.89632 51.970725 
L 248.15021 52.446555 
L 248.4041 51.85178 
L 248.65799 49.472732 
L 248.911881 50.067482 
L 249.165771 51.375976 
L 249.419661 51.257006 
L 249.673551 50.424341 
L 249.927442 50.662256 
L 250.181332 50.543311 
L 250.435222 49.353787 
L 250.689112 51.019116 
L 250.943003 48.402153 
L 251.196893 49.591677 
L 251.450783 49.829592 
L 251.704673 51.138061 
L 251.958564 50.781201 
L 252.212454 50.900171 
L 252.466344 52.327585 
L 252.720234 51.019116 
L 252.974125 50.781201 
L 253.228015 49.472732 
L 253.481905 52.089695 
L 253.989686 49.710622 
L 254.243576 51.85178 
L 254.497466 49.710622 
L 254.751356 49.234817 
L 255.259137 53.636079 
L 255.513027 50.900171 
L 255.766917 49.591677 
L 256.020808 49.472732 
L 256.274698 47.688433 
L 256.528588 50.781201 
L 256.782479 50.781201 
L 257.036369 50.424341 
L 257.290259 51.257006 
L 257.544149 50.424341 
L 257.79804 51.138061 
L 258.05193 53.755024 
L 258.30582 49.591677 
L 258.55971 52.684445 
L 258.813601 51.732836 
L 259.067491 51.613866 
L 259.321381 50.543311 
L 259.575271 51.970725 
L 259.829162 50.186452 
L 260.083052 49.710622 
L 260.336942 50.900171 
L 260.590832 50.900171 
L 260.844723 52.20864 
L 261.098613 50.305397 
L 261.352503 50.067482 
L 261.606393 49.353787 
L 261.860284 50.900171 
L 262.114174 53.27922 
L 262.368064 50.543311 
L 262.621954 51.019116 
L 263.383625 47.807403 
L 263.637515 52.20864 
L 264.399186 48.640068 
L 264.653076 53.16025 
L 265.160857 49.353787 
L 265.414747 51.732836 
L 265.668637 52.327585 
L 265.922528 48.640068 
L 266.176418 48.877957 
L 266.430308 51.257006 
L 266.684198 48.402153 
L 266.938089 49.829592 
L 267.191979 49.948537 
L 267.445869 48.402153 
L 267.699759 53.16025 
L 268.20754 48.045293 
L 268.46143 48.759013 
L 268.71532 49.829592 
L 268.969211 49.829592 
L 269.223101 49.948537 
L 269.476991 51.019116 
L 269.730881 49.948537 
L 269.984772 50.305397 
L 270.492552 48.402153 
L 270.746442 50.662256 
L 271.000333 51.019116 
L 271.254223 50.900171 
L 271.508113 49.472732 
L 271.762003 50.305397 
L 272.015894 48.640068 
L 272.269784 50.781201 
L 272.523674 51.85178 
L 272.777564 49.115872 
L 273.031455 51.970725 
L 273.539235 47.093684 
L 273.793126 50.781201 
L 274.047016 50.543311 
L 274.300906 50.781201 
L 274.554796 49.234817 
L 274.808687 48.996927 
L 275.062577 52.80339 
L 275.316467 49.948537 
L 275.570357 52.446555 
L 275.824248 49.829592 
L 276.078138 48.521098 
L 276.332028 50.662256 
L 276.839809 47.807403 
L 277.093699 50.543311 
L 277.347589 49.948537 
L 277.601479 51.732836 
L 277.85537 51.138061 
L 278.10926 48.996927 
L 278.36315 51.494921 
L 278.61704 50.662256 
L 278.870931 48.521098 
L 279.124821 49.353787 
L 279.378711 51.494921 
L 279.632601 49.353787 
L 279.886492 51.375976 
L 280.140382 51.257006 
L 280.394272 50.662256 
L 280.648162 52.20864 
L 280.902053 50.186452 
L 281.155943 49.710622 
L 281.409833 51.019116 
L 281.663723 50.781201 
L 281.917614 52.5655 
L 282.171504 52.80339 
L 282.679284 48.759013 
L 282.933175 48.877957 
L 283.187065 49.591677 
L 283.440955 51.019116 
L 283.948736 48.996927 
L 284.202626 52.5655 
L 284.456516 49.948537 
L 284.710406 52.20864 
L 284.964297 50.543311 
L 285.218187 50.900171 
L 285.472077 51.019116 
L 285.725967 50.067482 
L 286.233748 53.636079 
L 286.487638 48.996927 
L 286.741528 50.424341 
L 287.249309 48.640068 
L 287.503199 48.877957 
L 287.757089 50.186452 
L 288.01098 50.305397 
L 288.26487 50.662256 
L 288.51876 49.710622 
L 288.77265 49.353787 
L 289.026541 50.305397 
L 289.280431 50.662256 
L 289.534321 51.85178 
L 289.788212 50.424341 
L 290.295992 52.5655 
L 290.549882 48.640068 
L 290.803773 51.970725 
L 291.057663 47.926348 
L 291.311553 48.402153 
L 291.819334 50.067482 
L 292.073224 52.327585 
L 292.327114 50.186452 
L 292.581004 53.16025 
L 293.088785 51.732836 
L 293.342675 49.829592 
L 293.596565 50.543311 
L 293.850456 48.164238 
L 294.612126 52.5655 
L 294.866017 51.019116 
L 295.119907 50.662256 
L 295.373797 51.494921 
L 295.627687 49.353787 
L 295.881578 52.684445 
L 296.135468 50.424341 
L 296.389358 49.710622 
L 296.897139 51.613866 
L 297.151029 50.900171 
L 297.404919 49.829592 
L 297.9127 52.089695 
L 298.16659 50.305397 
L 298.42048 51.138061 
L 298.67437 50.781201 
L 298.928261 50.900171 
L 299.182151 49.829592 
L 299.436041 50.424341 
L 299.689931 49.115872 
L 299.943822 50.662256 
L 300.197712 47.807403 
L 300.451602 49.710622 
L 300.705492 49.829592 
L 300.959383 50.543311 
L 301.213273 50.186452 
L 301.467163 50.305397 
L 301.721053 50.186452 
L 301.974944 51.019116 
L 302.482724 50.662256 
L 302.736614 49.591677 
L 302.990505 50.186452 
L 303.244395 50.424341 
L 303.498285 49.234817 
L 303.752175 51.375976 
L 304.006066 48.640068 
L 304.259956 50.186452 
L 304.513846 50.067482 
L 304.767736 50.424341 
L 305.021627 51.019116 
L 305.275517 52.089695 
L 305.529407 47.093684 
L 305.783298 51.970725 
L 306.037188 49.829592 
L 306.291078 48.640068 
L 306.544968 51.019116 
L 306.798859 49.234817 
L 307.052749 49.829592 
L 307.306639 49.829592 
L 307.560529 51.613866 
L 307.81442 48.402153 
L 308.06831 50.662256 
L 308.3222 49.710622 
L 308.57609 50.305397 
L 308.829981 50.543311 
L 309.083871 51.613866 
L 309.591651 49.353787 
L 310.099432 51.85178 
L 310.099432 51.85178 
" clip-path="url(#p2ccd37ef34)" style="fill: none; stroke: #0000ff; stroke-width: 0.6; stroke-linecap: square"/>
   </g>
   <g id="line2d_24">
    <path d="M 56.463068 222.786981 
L 56.716958 223.619495 
L 56.970849 220.011953 
L 57.224739 225.284522 
L 57.478629 225.562022 
L 57.98641 220.011953 
L 58.2403 219.73444 
L 58.74808 226.394536 
L 59.001971 225.562022 
L 59.255861 222.786981 
L 59.509751 223.341982 
L 59.763641 222.786981 
L 60.017532 220.566953 
L 60.271422 226.117035 
L 60.525312 219.456927 
L 60.779202 222.786981 
L 61.033093 221.67698 
L 61.286983 230.557091 
L 61.794764 217.236899 
L 62.048654 222.786981 
L 62.302544 223.064494 
L 62.556434 216.404385 
L 62.810325 218.346926 
L 63.064215 222.786981 
L 63.318105 219.456927 
L 63.571995 227.50455 
L 64.079776 215.849385 
L 64.333666 223.619495 
L 64.587556 208.634276 
L 64.841447 208.356788 
L 65.095337 213.629357 
L 65.603117 198.089137 
L 65.857008 195.86911 
L 66.110898 223.341982 
L 66.364788 196.701623 
L 66.618678 197.534137 
L 66.872569 210.576816 
L 67.126459 214.184358 
L 67.380349 193.649082 
L 67.634239 161.458616 
L 67.88813 154.243532 
L 68.14202 150.635965 
L 68.39591 196.701623 
L 68.903691 138.425799 
L 69.157581 141.755854 
L 69.411471 158.128587 
L 69.665361 126.493122 
L 69.919252 116.780497 
L 70.173142 127.325635 
L 70.427032 109.565388 
L 70.680922 120.388039 
L 70.934813 110.952902 
L 71.188703 112.340441 
L 71.442593 99.57525 
L 71.696483 122.053066 
L 71.950374 102.072791 
L 72.204264 161.181128 
L 72.458154 116.780497 
L 72.712044 112.895442 
L 72.965935 105.125332 
L 73.219825 91.25014 
L 73.473715 99.57525 
L 73.727605 113.727956 
L 73.981496 88.475086 
L 74.235386 85.422545 
L 74.489276 109.565388 
L 74.743166 84.867544 
L 75.250947 94.580169 
L 75.758727 80.427489 
L 76.012618 86.810084 
L 76.266508 88.475086 
L 76.520398 79.872463 
L 76.774288 89.030112 
L 77.028179 81.815003 
L 77.282069 82.647516 
L 77.535959 82.092516 
L 77.78985 77.097434 
L 78.04374 80.704976 
L 78.29763 79.039974 
L 78.55152 81.53749 
L 78.805411 85.977571 
L 79.059301 80.704976 
L 79.313191 82.925029 
L 79.567081 80.704976 
L 79.820972 82.647516 
L 80.074862 79.039974 
L 80.328752 82.925029 
L 80.582642 82.647516 
L 80.836533 86.532571 
L 81.090423 86.532571 
L 81.344313 89.030112 
L 81.598203 78.762461 
L 81.852094 75.70992 
L 82.105984 86.810084 
L 82.359874 77.929948 
L 82.613764 81.260002 
L 82.867655 75.987408 
L 83.121545 87.642573 
L 83.375435 83.202517 
L 83.629325 90.417626 
L 83.883216 79.594975 
L 84.137106 77.929948 
L 84.390996 78.207461 
L 84.644886 79.872463 
L 84.898777 79.317462 
L 85.152667 81.260002 
L 85.406557 81.815003 
L 85.660447 74.322406 
L 85.914338 81.260002 
L 86.168228 75.987408 
L 86.422118 75.432407 
L 86.676008 82.370003 
L 86.929899 77.374947 
L 87.437679 75.432407 
L 87.691569 76.819921 
L 87.94546 76.264921 
L 88.19935 103.737818 
L 88.45324 73.212379 
L 88.70713 82.925029 
L 88.961021 80.427489 
L 89.214911 72.934867 
L 89.468801 72.934867 
L 89.722691 80.149976 
L 89.976582 92.915167 
L 90.230472 75.987408 
L 90.484362 74.322406 
L 90.992143 76.542434 
L 91.499923 72.102353 
L 91.753813 76.264921 
L 92.007704 76.264921 
L 92.261594 75.987408 
L 92.515484 77.652435 
L 92.769374 72.102353 
L 93.023265 72.379866 
L 93.277155 74.044893 
L 93.531045 72.657379 
L 94.038826 73.76738 
L 94.292716 80.427489 
L 94.800497 73.489892 
L 95.054387 73.212379 
L 95.308277 90.417626 
L 95.562167 74.322406 
L 95.816058 73.212379 
L 96.069948 73.76738 
L 96.323838 75.154919 
L 96.831619 72.657379 
L 97.085509 78.484949 
L 97.339399 73.212379 
L 97.593289 72.379866 
L 97.84718 72.102353 
L 98.10107 74.599894 
L 98.35496 72.379866 
L 98.60885 73.212379 
L 98.862741 75.432407 
L 99.116631 72.934867 
L 99.370521 85.977571 
L 99.624411 72.379866 
L 99.878302 75.432407 
L 100.132192 71.269865 
L 100.386082 74.044893 
L 100.639972 78.207461 
L 100.893863 72.102353 
L 101.147753 75.987408 
L 101.401643 72.102353 
L 101.655533 70.437351 
L 101.909424 76.819921 
L 102.163314 72.934867 
L 102.417204 78.207461 
L 102.671094 69.327325 
L 102.924985 80.427489 
L 103.178875 72.657379 
L 103.432765 72.934867 
L 103.686655 68.494811 
L 103.940546 71.547352 
L 104.194436 72.657379 
L 104.448326 70.159838 
L 104.702216 82.647516 
L 104.956107 68.494811 
L 105.209997 73.212379 
L 105.463887 73.76738 
L 105.717777 70.159838 
L 105.971668 74.877407 
L 106.225558 75.987408 
L 106.479448 72.934867 
L 106.733338 78.484949 
L 107.241119 69.327325 
L 107.495009 68.772324 
L 107.748899 72.657379 
L 108.00279 72.102353 
L 108.25668 72.379866 
L 108.51057 70.992352 
L 108.76446 68.494811 
L 109.018351 71.824865 
L 109.272241 89.862626 
L 109.526131 72.102353 
L 109.780021 67.662297 
L 110.033912 70.437351 
L 110.287802 74.599894 
L 110.541692 75.154919 
L 110.795583 96.522709 
L 111.049473 71.824865 
L 111.303363 71.269865 
L 111.557253 72.657379 
L 112.065034 67.93981 
L 112.318924 69.327325 
L 112.572814 73.212379 
L 112.826705 72.379866 
L 113.080595 74.599894 
L 113.334485 78.207461 
L 113.588375 72.102353 
L 113.842266 70.714839 
L 114.096156 73.76738 
L 114.350046 70.992352 
L 114.603936 69.882325 
L 114.857827 72.102353 
L 115.111717 70.159838 
L 115.365607 73.212379 
L 115.619497 71.824865 
L 115.873388 75.154919 
L 116.127278 72.102353 
L 116.381168 73.212379 
L 116.635058 75.987408 
L 116.888949 70.992352 
L 117.142839 71.824865 
L 117.396729 77.652435 
L 117.650619 68.494811 
L 117.90451 67.107297 
L 118.1584 66.829784 
L 118.41229 79.317462 
L 118.66618 70.992352 
L 118.920071 70.714839 
L 119.173961 70.159838 
L 119.427851 68.217298 
L 119.681741 68.217298 
L 119.935632 69.604837 
L 120.189522 74.877407 
L 120.443412 69.049812 
L 120.697302 90.140113 
L 120.951193 68.494811 
L 121.205083 69.882325 
L 121.458973 67.38481 
L 121.712863 74.322406 
L 121.966754 70.714839 
L 122.220644 73.76738 
L 122.474534 69.882325 
L 122.728424 72.379866 
L 122.982315 69.882325 
L 123.236205 69.049812 
L 123.490095 70.714839 
L 123.743985 70.437351 
L 123.997876 73.212379 
L 124.251766 70.714839 
L 124.505656 70.159838 
L 124.759546 69.049812 
L 125.013437 68.494811 
L 125.521217 73.489892 
L 125.775107 70.714839 
L 126.282888 77.374947 
L 126.536778 70.992352 
L 126.790669 70.159838 
L 127.044559 70.437351 
L 127.298449 75.432407 
L 127.552339 71.824865 
L 127.80623 70.437351 
L 128.06012 71.824865 
L 128.31401 74.599894 
L 128.5679 70.437351 
L 128.821791 72.379866 
L 129.075681 72.657379 
L 129.329571 71.547352 
L 129.583461 72.934867 
L 129.837352 70.714839 
L 130.091242 70.437351 
L 130.345132 71.269865 
L 130.599022 68.494811 
L 130.852913 68.772324 
L 131.106803 65.719783 
L 131.360693 75.432407 
L 131.614583 69.604837 
L 131.868474 70.992352 
L 132.122364 70.992352 
L 132.376254 70.714839 
L 132.630144 67.93981 
L 132.884035 67.107297 
L 133.137925 76.819921 
L 133.899596 67.93981 
L 134.153486 72.934867 
L 134.407376 74.877407 
L 134.661266 72.934867 
L 134.915157 69.327325 
L 135.169047 68.217298 
L 135.676827 71.547352 
L 136.184608 68.494811 
L 136.438498 69.327325 
L 136.692388 67.662297 
L 136.946279 69.049812 
L 137.200169 68.772324 
L 137.707949 70.992352 
L 137.96184 68.217298 
L 138.21573 72.102353 
L 138.46962 70.437351 
L 138.72351 67.662297 
L 138.977401 70.992352 
L 139.231291 68.494811 
L 139.485181 67.93981 
L 139.992962 71.824865 
L 140.246852 72.102353 
L 140.754632 68.217298 
L 141.008523 75.432407 
L 141.262413 68.494811 
L 141.770193 69.604837 
L 142.024084 69.049812 
L 142.277974 73.76738 
L 142.531864 71.547352 
L 142.785755 67.662297 
L 143.039645 68.772324 
L 143.293535 70.992352 
L 143.547425 68.494811 
L 143.801316 69.049812 
L 144.055206 67.107297 
L 144.309096 70.714839 
L 144.562986 70.159838 
L 144.816877 69.882325 
L 145.070767 67.662297 
L 145.324657 69.327325 
L 145.578547 71.824865 
L 145.832438 65.44227 
L 146.086328 69.327325 
L 146.340218 75.987408 
L 146.594108 71.269865 
L 146.847999 72.379866 
L 147.355779 67.38481 
L 147.609669 67.662297 
L 147.86356 71.824865 
L 148.11745 70.714839 
L 148.62523 66.829784 
L 149.133011 71.824865 
L 149.386901 69.327325 
L 149.640791 68.217298 
L 149.894682 69.327325 
L 150.148572 69.049812 
L 150.402462 68.217298 
L 150.656352 68.217298 
L 150.910243 69.882325 
L 151.164133 70.437351 
L 151.418023 70.437351 
L 151.925804 67.93981 
L 152.179694 69.604837 
L 152.687474 67.107297 
L 152.941365 69.882325 
L 153.195255 66.552296 
L 153.449145 75.987408 
L 153.703035 68.217298 
L 153.956926 68.772324 
L 154.464706 67.662297 
L 154.718596 68.217298 
L 154.972487 66.552296 
L 155.226377 69.327325 
L 155.480267 69.882325 
L 155.734157 69.049812 
L 155.988048 67.38481 
L 156.241938 69.327325 
L 156.495828 67.38481 
L 156.749718 67.93981 
L 157.003609 69.049812 
L 157.257499 68.772324 
L 157.511389 70.992352 
L 158.01917 67.662297 
L 158.27306 71.269865 
L 158.52695 69.604837 
L 158.78084 71.269865 
L 159.034731 68.772324 
L 159.288621 68.772324 
L 159.542511 76.819921 
L 160.050292 67.662297 
L 160.304182 69.327325 
L 160.558072 68.217298 
L 160.811963 67.93981 
L 161.065853 67.93981 
L 161.319743 67.38481 
L 161.573633 67.107297 
L 161.827524 67.107297 
L 162.081414 66.829784 
L 162.589194 69.604837 
L 162.843085 69.049812 
L 163.096975 68.772324 
L 163.350865 67.93981 
L 163.604755 66.552296 
L 164.112536 70.437351 
L 164.366426 68.217298 
L 164.620316 67.38481 
L 164.874207 67.93981 
L 165.128097 70.437351 
L 165.381987 68.217298 
L 165.635877 69.049812 
L 165.889768 68.772324 
L 166.143658 70.159838 
L 166.397548 67.662297 
L 166.651438 68.772324 
L 166.905329 70.714839 
L 167.159219 70.159838 
L 167.413109 67.662297 
L 167.666999 68.772324 
L 167.92089 68.772324 
L 168.17478 69.049812 
L 168.42867 67.93981 
L 168.68256 70.437351 
L 168.936451 67.93981 
L 169.190341 69.049812 
L 169.444231 67.662297 
L 169.698121 69.049812 
L 169.952012 67.662297 
L 170.205902 69.327325 
L 170.459792 67.38481 
L 170.713682 68.217298 
L 170.967573 68.494811 
L 171.221463 69.049812 
L 171.475353 68.494811 
L 171.729243 70.437351 
L 172.490914 68.217298 
L 172.744804 68.217298 
L 172.998695 67.662297 
L 173.252585 67.662297 
L 173.506475 68.217298 
L 173.760365 67.107297 
L 174.522036 69.327325 
L 174.775926 67.662297 
L 175.029817 68.772324 
L 175.283707 67.662297 
L 175.537597 68.494811 
L 176.045378 68.494811 
L 176.299268 68.217298 
L 176.553158 68.217298 
L 176.807049 67.662297 
L 177.060939 67.93981 
L 177.314829 68.772324 
L 177.568719 67.38481 
L 177.82261 68.217298 
L 178.0765 69.604837 
L 178.33039 68.494811 
L 178.58428 67.93981 
L 178.838171 68.494811 
L 179.092061 67.662297 
L 179.599841 69.049812 
L 179.853732 68.772324 
L 180.107622 67.107297 
L 180.361512 67.662297 
L 181.123183 68.494811 
L 181.377073 67.38481 
L 181.630963 67.93981 
L 181.884854 68.217298 
L 182.138744 67.93981 
L 182.392634 68.217298 
L 182.646524 67.38481 
L 182.900415 67.93981 
L 183.154305 67.93981 
L 183.408195 66.829784 
L 183.662085 67.93981 
L 183.915976 67.38481 
L 184.169866 67.107297 
L 184.423756 66.552296 
L 184.677646 67.662297 
L 184.931537 68.217298 
L 185.185427 67.38481 
L 185.439317 67.662297 
L 185.693207 67.662297 
L 185.947098 69.327325 
L 186.200988 67.38481 
L 186.454878 68.217298 
L 186.708768 67.93981 
L 186.962659 67.38481 
L 187.216549 68.494811 
L 187.470439 67.93981 
L 187.724329 68.494811 
L 187.97822 68.217298 
L 188.23211 68.217298 
L 188.486 67.107297 
L 188.73989 68.217298 
L 188.993781 68.494811 
L 189.247671 68.494811 
L 189.501561 67.93981 
L 189.755451 67.662297 
L 190.009342 67.93981 
L 190.263232 67.107297 
L 190.517122 67.38481 
L 190.771012 67.93981 
L 191.024903 67.93981 
L 191.278793 68.217298 
L 191.786574 67.662297 
L 192.040464 68.494811 
L 192.294354 67.662297 
L 192.548244 68.494811 
L 192.802135 67.93981 
L 193.056025 67.93981 
L 193.309915 67.38481 
L 193.563805 68.494811 
L 193.817696 68.772324 
L 194.071586 67.38481 
L 194.325476 68.494811 
L 194.579366 69.049812 
L 194.833257 67.662297 
L 195.087147 67.107297 
L 195.341037 67.93981 
L 195.594927 67.662297 
L 195.848818 67.107297 
L 196.102708 67.662297 
L 196.356598 67.662297 
L 196.610488 67.38481 
L 196.864379 68.772324 
L 197.372159 68.217298 
L 197.626049 69.049812 
L 197.87994 67.662297 
L 198.13383 67.93981 
L 198.38772 67.38481 
L 198.64161 68.494811 
L 198.895501 67.662297 
L 199.149391 68.217298 
L 199.403281 68.217298 
L 199.657171 68.772324 
L 199.911062 67.38481 
L 200.164952 67.662297 
L 200.418842 66.829784 
L 200.672732 68.217298 
L 200.926623 67.662297 
L 201.180513 67.93981 
L 201.688293 67.38481 
L 201.942184 66.829784 
L 202.196074 66.829784 
L 202.449964 67.38481 
L 202.703854 67.107297 
L 202.957745 67.662297 
L 203.465525 67.107297 
L 203.719415 67.662297 
L 203.973306 67.38481 
L 204.227196 67.38481 
L 204.481086 68.494811 
L 204.734976 68.772324 
L 204.988867 67.662297 
L 205.242757 67.38481 
L 205.496647 67.662297 
L 205.750537 68.494811 
L 206.004428 68.494811 
L 206.258318 67.662297 
L 206.766098 67.662297 
L 207.019989 67.93981 
L 207.273879 67.38481 
L 207.527769 67.93981 
L 208.03555 68.494811 
L 208.28944 67.662297 
L 208.54333 67.662297 
L 208.797221 67.107297 
L 209.051111 67.662297 
L 209.305001 67.93981 
L 209.558891 67.38481 
L 209.812782 68.217298 
L 210.320562 68.217298 
L 210.574452 68.772324 
L 210.828343 68.217298 
L 211.082233 68.217298 
L 211.336123 69.049812 
L 211.590013 67.38481 
L 211.843904 68.772324 
L 212.097794 68.217298 
L 212.351684 68.217298 
L 212.605574 68.772324 
L 212.859465 68.494811 
L 213.113355 69.049812 
L 213.367245 69.049812 
L 213.621135 68.494811 
L 213.875026 68.217298 
L 214.128916 68.494811 
L 214.382806 67.93981 
L 214.636696 68.772324 
L 214.890587 68.217298 
L 215.144477 68.217298 
L 215.398367 69.049812 
L 215.652257 67.93981 
L 215.906148 68.217298 
L 216.160038 67.662297 
L 216.413928 67.93981 
L 216.667818 68.772324 
L 217.175599 68.217298 
L 217.429489 68.217298 
L 217.93727 67.662297 
L 218.19116 67.93981 
L 218.44505 67.38481 
L 218.69894 68.494811 
L 218.952831 68.494811 
L 219.206721 68.772324 
L 219.460611 68.217298 
L 219.714501 68.217298 
L 219.968392 67.662297 
L 220.222282 67.38481 
L 220.476172 67.662297 
L 220.730062 67.662297 
L 220.983953 67.93981 
L 221.237843 67.662297 
L 221.491733 68.217298 
L 221.745623 68.494811 
L 222.507294 68.494811 
L 223.015075 67.38481 
L 223.268965 67.93981 
L 223.522855 67.662297 
L 223.776745 68.494811 
L 224.030636 67.93981 
L 225.046197 67.93981 
L 225.300087 67.662297 
L 225.807868 67.662297 
L 226.315648 68.217298 
L 226.569538 67.662297 
L 227.077319 68.217298 
L 227.331209 68.217298 
L 227.585099 68.494811 
L 227.83899 67.93981 
L 228.09288 67.662297 
L 228.34677 67.93981 
L 229.108441 67.93981 
L 229.362331 68.494811 
L 230.124002 67.662297 
L 230.377892 68.217298 
L 230.631782 67.93981 
L 230.885673 67.38481 
L 231.139563 68.217298 
L 231.393453 67.93981 
L 231.647343 67.93981 
L 231.901234 68.217298 
L 232.155124 67.93981 
L 232.409014 67.93981 
L 232.662904 67.662297 
L 232.916795 67.662297 
L 233.170685 67.38481 
L 233.424575 68.494811 
L 233.678465 67.38481 
L 234.186246 67.93981 
L 234.440136 68.494811 
L 234.694026 67.93981 
L 235.201807 67.38481 
L 235.455697 67.93981 
L 235.709587 67.662297 
L 235.963478 68.217298 
L 236.217368 68.217298 
L 236.471258 67.93981 
L 236.979039 67.93981 
L 237.232929 68.217298 
L 237.486819 67.662297 
L 237.740709 67.38481 
L 238.24849 67.93981 
L 238.50238 67.662297 
L 239.010161 67.662297 
L 239.264051 68.217298 
L 239.517941 68.494811 
L 239.771831 67.662297 
L 240.025722 67.93981 
L 240.279612 67.662297 
L 240.533502 67.662297 
L 240.787393 68.217298 
L 241.041283 67.662297 
L 241.295173 68.217298 
L 241.549063 67.38481 
L 241.802954 67.662297 
L 242.564624 67.662297 
L 242.818515 67.93981 
L 243.072405 67.38481 
L 243.580185 67.38481 
L 243.834076 67.93981 
L 244.595746 67.93981 
L 244.849637 68.217298 
L 245.103527 67.93981 
L 245.357417 67.93981 
L 245.611307 67.662297 
L 245.865198 67.93981 
L 246.119088 67.38481 
L 246.626868 67.38481 
L 246.880759 68.217298 
L 247.134649 67.38481 
L 247.388539 67.662297 
L 247.642429 67.38481 
L 247.89632 67.93981 
L 248.65799 67.93981 
L 248.911881 68.217298 
L 249.165771 67.93981 
L 249.927442 67.93981 
L 250.181332 67.662297 
L 250.943003 67.662297 
L 251.196893 67.93981 
L 251.450783 67.662297 
L 252.720234 67.662297 
L 252.974125 67.93981 
L 253.481905 67.38481 
L 253.735795 67.662297 
L 253.989686 67.38481 
L 254.243576 67.662297 
L 255.513027 67.662297 
L 255.766917 67.93981 
L 256.020808 67.662297 
L 257.036369 67.662297 
L 257.290259 67.93981 
L 257.544149 67.38481 
L 257.79804 67.93981 
L 258.05193 67.662297 
L 259.067491 67.662297 
L 259.321381 67.38481 
L 259.575271 67.662297 
L 261.098613 67.662297 
L 261.352503 67.93981 
L 261.606393 67.662297 
L 261.860284 67.93981 
L 262.114174 67.662297 
L 267.191979 67.662297 
L 267.445869 68.217298 
L 267.699759 68.217298 
L 268.20754 67.662297 
L 270.238662 67.662297 
L 270.492552 67.38481 
L 272.015894 67.38481 
L 272.269784 67.662297 
L 278.36315 67.662297 
L 278.61704 67.38481 
L 278.870931 67.662297 
L 279.124821 67.38481 
L 279.378711 67.662297 
L 284.710406 67.662297 
L 284.964297 67.93981 
L 285.218187 67.662297 
L 285.472077 67.93981 
L 285.725967 67.662297 
L 300.197712 67.662297 
L 300.451602 67.93981 
L 303.498285 67.93981 
L 303.752175 67.662297 
L 304.006066 67.662297 
L 304.259956 67.93981 
L 305.275517 67.93981 
L 305.529407 67.662297 
L 305.783298 67.93981 
L 308.829981 67.93981 
L 309.083871 68.217298 
L 309.591651 68.217298 
L 309.845542 67.93981 
L 310.099432 67.93981 
L 310.099432 67.93981 
" clip-path="url(#p2ccd37ef34)" style="fill: none; stroke: #ff0000; stroke-width: 0.6; stroke-linecap: square"/>
   </g>
   <g id="patch_3">
    <path d="M 43.78125 239.76 
L 43.78125 37.296 
" style="fill: none; stroke: #000000; stroke-width: 0.8; stroke-linejoin: miter; stroke-linecap: square"/>
   </g>
   <g id="patch_4">
    <path d="M 322.78125 239.76 
L 322.78125 37.296 
" style="fill: none; stroke: #000000; stroke-width: 0.8; stroke-linejoin: miter; stroke-linecap: square"/>
   </g>
   <g id="patch_5">
    <path d="M 43.78125 239.76 
L 322.78125 239.76 
" style="fill: none; stroke: #000000; stroke-width: 0.8; stroke-linejoin: miter; stroke-linecap: square"/>
   </g>
   <g id="patch_6">
    <path d="M 43.78125 37.296 
L 322.78125 37.296 
" style="fill: none; stroke: #000000; stroke-width: 0.8; stroke-linejoin: miter; stroke-linecap: square"/>
   </g>
   <g id="text_14">
    <!-- Constrained Model -->
    <g transform="translate(141.147891 31.296) scale(0.09 -0.09)">
     <defs>
      <path id="DejaVuSans-43" d="M 4122 4306 
L 4122 3641 
Q 3803 3938 3442 4084 
Q 3081 4231 2675 4231 
Q 1875 4231 1450 3742 
Q 1025 3253 1025 2328 
Q 1025 1406 1450 917 
Q 1875 428 2675 428 
Q 3081 428 3442 575 
Q 3803 722 4122 1019 
L 4122 359 
Q 3791 134 3420 21 
Q 3050 -91 2638 -91 
Q 1578 -91 968 557 
Q 359 1206 359 2328 
Q 359 3453 968 4101 
Q 1578 4750 2638 4750 
Q 3056 4750 3426 4639 
Q 3797 4528 4122 4306 
z
" transform="scale(0.015625)"/>
      <path id="DejaVuSans-6e" d="M 3513 2113 
L 3513 0 
L 2938 0 
L 2938 2094 
Q 2938 2591 2744 2837 
Q 2550 3084 2163 3084 
Q 1697 3084 1428 2787 
Q 1159 2491 1159 1978 
L 1159 0 
L 581 0 
L 581 3500 
L 1159 3500 
L 1159 2956 
Q 1366 3272 1645 3428 
Q 1925 3584 2291 3584 
Q 2894 3584 3203 3211 
Q 3513 2838 3513 2113 
z
" transform="scale(0.015625)"/>
      <path id="DejaVuSans-74" d="M 1172 4494 
L 1172 3500 
L 2356 3500 
L 2356 3053 
L 1172 3053 
L 1172 1153 
Q 1172 725 1289 603 
Q 1406 481 1766 481 
L 2356 481 
L 2356 0 
L 1766 0 
Q 1100 0 847 248 
Q 594 497 594 1153 
L 594 3053 
L 172 3053 
L 172 3500 
L 594 3500 
L 594 4494 
L 1172 4494 
z
" transform="scale(0.015625)"/>
      <path id="DejaVuSans-69" d="M 603 3500 
L 1178 3500 
L 1178 0 
L 603 0 
L 603 3500 
z
M 603 4863 
L 1178 4863 
L 1178 4134 
L 603 4134 
L 603 4863 
z
" transform="scale(0.015625)"/>
      <path id="DejaVuSans-65" d="M 3597 1894 
L 3597 1613 
L 953 1613 
Q 991 1019 1311 708 
Q 1631 397 2203 397 
Q 2534 397 2845 478 
Q 3156 559 3463 722 
L 3463 178 
Q 3153 47 2828 -22 
Q 2503 -91 2169 -91 
Q 1331 -91 842 396 
Q 353 884 353 1716 
Q 353 2575 817 3079 
Q 1281 3584 2069 3584 
Q 2775 3584 3186 3129 
Q 3597 2675 3597 1894 
z
M 3022 2063 
Q 3016 2534 2758 2815 
Q 2500 3097 2075 3097 
Q 1594 3097 1305 2825 
Q 1016 2553 972 2059 
L 3022 2063 
z
" transform="scale(0.015625)"/>
      <path id="DejaVuSans-64" d="M 2906 2969 
L 2906 4863 
L 3481 4863 
L 3481 0 
L 2906 0 
L 2906 525 
Q 2725 213 2448 61 
Q 2172 -91 1784 -91 
Q 1150 -91 751 415 
Q 353 922 353 1747 
Q 353 2572 751 3078 
Q 1150 3584 1784 3584 
Q 2172 3584 2448 3432 
Q 2725 3281 2906 2969 
z
M 947 1747 
Q 947 1113 1208 752 
Q 1469 391 1925 391 
Q 2381 391 2643 752 
Q 2906 1113 2906 1747 
Q 2906 2381 2643 2742 
Q 2381 3103 1925 3103 
Q 1469 3103 1208 2742 
Q 947 2381 947 1747 
z
" transform="scale(0.015625)"/>
      <path id="DejaVuSans-20" transform="scale(0.015625)"/>
      <path id="DejaVuSans-4d" d="M 628 4666 
L 1569 4666 
L 2759 1491 
L 3956 4666 
L 4897 4666 
L 4897 0 
L 4281 0 
L 4281 4097 
L 3078 897 
L 2444 897 
L 1241 4097 
L 1241 0 
L 628 0 
L 628 4666 
z
" transform="scale(0.015625)"/>
      <path id="DejaVuSans-6c" d="M 603 4863 
L 1178 4863 
L 1178 0 
L 603 0 
L 603 4863 
z
" transform="scale(0.015625)"/>
     </defs>
     <use xlink:href="#DejaVuSans-43"/>
     <use xlink:href="#DejaVuSans-6f" x="69.824219"/>
     <use xlink:href="#DejaVuSans-6e" x="131.005859"/>
     <use xlink:href="#DejaVuSans-73" x="194.384766"/>
     <use xlink:href="#DejaVuSans-74" x="246.484375"/>
     <use xlink:href="#DejaVuSans-72" x="285.693359"/>
     <use xlink:href="#DejaVuSans-61" x="326.806641"/>
     <use xlink:href="#DejaVuSans-69" x="388.085938"/>
     <use xlink:href="#DejaVuSans-6e" x="415.869141"/>
     <use xlink:href="#DejaVuSans-65" x="479.248047"/>
     <use xlink:href="#DejaVuSans-64" x="540.771484"/>
     <use xlink:href="#DejaVuSans-20" x="604.248047"/>
     <use xlink:href="#DejaVuSans-4d" x="636.035156"/>
     <use xlink:href="#DejaVuSans-6f" x="722.314453"/>
     <use xlink:href="#DejaVuSans-64" x="783.496094"/>
     <use xlink:href="#DejaVuSans-65" x="846.972656"/>
     <use xlink:href="#DejaVuSans-6c" x="908.496094"/>
    </g>
   </g>
   <g id="legend_1">
    <g id="patch_7">
     <path d="M 185.565625 234.76 
L 315.78125 234.76 
Q 317.78125 234.76 317.78125 232.76 
L 317.78125 204.40375 
Q 317.78125 202.40375 315.78125 202.40375 
L 185.565625 202.40375 
Q 183.565625 202.40375 183.565625 204.40375 
L 183.565625 232.76 
Q 183.565625 234.76 185.565625 234.76 
z
" style="fill: #ffffff; opacity: 0.8; stroke: #cccccc; stroke-linejoin: miter"/>
    </g>
    <g id="line2d_25">
     <path d="M 187.565625 210.502187 
L 197.565625 210.502187 
L 207.565625 210.502187 
" style="fill: none; stroke: #0000ff; stroke-width: 0.6; stroke-linecap: square"/>
    </g>
    <g id="text_15">
     <!-- Training Accuracy -->
     <g transform="translate(215.565625 214.002187) scale(0.1 -0.1)">
      <defs>
       <path id="DejaVuSans-54" d="M -19 4666 
L 3928 4666 
L 3928 4134 
L 2272 4134 
L 2272 0 
L 1638 0 
L 1638 4134 
L -19 4134 
L -19 4666 
z
" transform="scale(0.015625)"/>
       <path id="DejaVuSans-67" d="M 2906 1791 
Q 2906 2416 2648 2759 
Q 2391 3103 1925 3103 
Q 1463 3103 1205 2759 
Q 947 2416 947 1791 
Q 947 1169 1205 825 
Q 1463 481 1925 481 
Q 2391 481 2648 825 
Q 2906 1169 2906 1791 
z
M 3481 434 
Q 3481 -459 3084 -895 
Q 2688 -1331 1869 -1331 
Q 1566 -1331 1297 -1286 
Q 1028 -1241 775 -1147 
L 775 -588 
Q 1028 -725 1275 -790 
Q 1522 -856 1778 -856 
Q 2344 -856 2625 -561 
Q 2906 -266 2906 331 
L 2906 616 
Q 2728 306 2450 153 
Q 2172 0 1784 0 
Q 1141 0 747 490 
Q 353 981 353 1791 
Q 353 2603 747 3093 
Q 1141 3584 1784 3584 
Q 2172 3584 2450 3431 
Q 2728 3278 2906 2969 
L 2906 3500 
L 3481 3500 
L 3481 434 
z
" transform="scale(0.015625)"/>
      </defs>
      <use xlink:href="#DejaVuSans-54"/>
      <use xlink:href="#DejaVuSans-72" x="46.333984"/>
      <use xlink:href="#DejaVuSans-61" x="87.447266"/>
      <use xlink:href="#DejaVuSans-69" x="148.726562"/>
      <use xlink:href="#DejaVuSans-6e" x="176.509766"/>
      <use xlink:href="#DejaVuSans-69" x="239.888672"/>
      <use xlink:href="#DejaVuSans-6e" x="267.671875"/>
      <use xlink:href="#DejaVuSans-67" x="331.050781"/>
      <use xlink:href="#DejaVuSans-20" x="394.527344"/>
      <use xlink:href="#DejaVuSans-41" x="426.314453"/>
      <use xlink:href="#DejaVuSans-63" x="492.972656"/>
      <use xlink:href="#DejaVuSans-63" x="547.953125"/>
      <use xlink:href="#DejaVuSans-75" x="602.933594"/>
      <use xlink:href="#DejaVuSans-72" x="666.3125"/>
      <use xlink:href="#DejaVuSans-61" x="707.425781"/>
      <use xlink:href="#DejaVuSans-63" x="768.705078"/>
      <use xlink:href="#DejaVuSans-79" x="823.685547"/>
     </g>
    </g>
    <g id="line2d_26">
     <path d="M 187.565625 225.180312 
L 197.565625 225.180312 
L 207.565625 225.180312 
" style="fill: none; stroke: #ff0000; stroke-width: 0.6; stroke-linecap: square"/>
    </g>
    <g id="text_16">
     <!-- Validation Accuracy -->
     <g transform="translate(215.565625 228.680312) scale(0.1 -0.1)">
      <defs>
       <path id="DejaVuSans-56" d="M 1831 0 
L 50 4666 
L 709 4666 
L 2188 738 
L 3669 4666 
L 4325 4666 
L 2547 0 
L 1831 0 
z
" transform="scale(0.015625)"/>
      </defs>
      <use xlink:href="#DejaVuSans-56"/>
      <use xlink:href="#DejaVuSans-61" x="60.658203"/>
      <use xlink:href="#DejaVuSans-6c" x="121.9375"/>
      <use xlink:href="#DejaVuSans-69" x="149.720703"/>
      <use xlink:href="#DejaVuSans-64" x="177.503906"/>
      <use xlink:href="#DejaVuSans-61" x="240.980469"/>
      <use xlink:href="#DejaVuSans-74" x="302.259766"/>
      <use xlink:href="#DejaVuSans-69" x="341.46875"/>
      <use xlink:href="#DejaVuSans-6f" x="369.251953"/>
      <use xlink:href="#DejaVuSans-6e" x="430.433594"/>
      <use xlink:href="#DejaVuSans-20" x="493.8125"/>
      <use xlink:href="#DejaVuSans-41" x="525.599609"/>
      <use xlink:href="#DejaVuSans-63" x="592.257812"/>
      <use xlink:href="#DejaVuSans-63" x="647.238281"/>
      <use xlink:href="#DejaVuSans-75" x="702.21875"/>
      <use xlink:href="#DejaVuSans-72" x="765.597656"/>
      <use xlink:href="#DejaVuSans-61" x="806.710938"/>
      <use xlink:href="#DejaVuSans-63" x="867.990234"/>
      <use xlink:href="#DejaVuSans-79" x="922.970703"/>
     </g>
    </g>
   </g>
  </g>
  <g id="text_17">
   <!-- Training VS. Validation Accuracy - Dataset Size = 100.0% -->
   <g transform="translate(21.433984 15.558281) scale(0.11 -0.11)">
    <defs>
     <path id="DejaVuSans-53" d="M 3425 4513 
L 3425 3897 
Q 3066 4069 2747 4153 
Q 2428 4238 2131 4238 
Q 1616 4238 1336 4038 
Q 1056 3838 1056 3469 
Q 1056 3159 1242 3001 
Q 1428 2844 1947 2747 
L 2328 2669 
Q 3034 2534 3370 2195 
Q 3706 1856 3706 1288 
Q 3706 609 3251 259 
Q 2797 -91 1919 -91 
Q 1588 -91 1214 -16 
Q 841 59 441 206 
L 441 856 
Q 825 641 1194 531 
Q 1563 422 1919 422 
Q 2459 422 2753 634 
Q 3047 847 3047 1241 
Q 3047 1584 2836 1778 
Q 2625 1972 2144 2069 
L 1759 2144 
Q 1053 2284 737 2584 
Q 422 2884 422 3419 
Q 422 4038 858 4394 
Q 1294 4750 2059 4750 
Q 2388 4750 2728 4690 
Q 3069 4631 3425 4513 
z
" transform="scale(0.015625)"/>
     <path id="DejaVuSans-2d" d="M 313 2009 
L 1997 2009 
L 1997 1497 
L 313 1497 
L 313 2009 
z
" transform="scale(0.015625)"/>
     <path id="DejaVuSans-44" d="M 1259 4147 
L 1259 519 
L 2022 519 
Q 2988 519 3436 956 
Q 3884 1394 3884 2338 
Q 3884 3275 3436 3711 
Q 2988 4147 2022 4147 
L 1259 4147 
z
M 628 4666 
L 1925 4666 
Q 3281 4666 3915 4102 
Q 4550 3538 4550 2338 
Q 4550 1131 3912 565 
Q 3275 0 1925 0 
L 628 0 
L 628 4666 
z
" transform="scale(0.015625)"/>
     <path id="DejaVuSans-7a" d="M 353 3500 
L 3084 3500 
L 3084 2975 
L 922 459 
L 3084 459 
L 3084 0 
L 275 0 
L 275 525 
L 2438 3041 
L 353 3041 
L 353 3500 
z
" transform="scale(0.015625)"/>
     <path id="DejaVuSans-3d" d="M 678 2906 
L 4684 2906 
L 4684 2381 
L 678 2381 
L 678 2906 
z
M 678 1631 
L 4684 1631 
L 4684 1100 
L 678 1100 
L 678 1631 
z
" transform="scale(0.015625)"/>
     <path id="DejaVuSans-25" d="M 4653 2053 
Q 4381 2053 4226 1822 
Q 4072 1591 4072 1178 
Q 4072 772 4226 539 
Q 4381 306 4653 306 
Q 4919 306 5073 539 
Q 5228 772 5228 1178 
Q 5228 1588 5073 1820 
Q 4919 2053 4653 2053 
z
M 4653 2450 
Q 5147 2450 5437 2106 
Q 5728 1763 5728 1178 
Q 5728 594 5436 251 
Q 5144 -91 4653 -91 
Q 4153 -91 3862 251 
Q 3572 594 3572 1178 
Q 3572 1766 3864 2108 
Q 4156 2450 4653 2450 
z
M 1428 4353 
Q 1159 4353 1004 4120 
Q 850 3888 850 3481 
Q 850 3069 1003 2837 
Q 1156 2606 1428 2606 
Q 1700 2606 1854 2837 
Q 2009 3069 2009 3481 
Q 2009 3884 1853 4118 
Q 1697 4353 1428 4353 
z
M 4250 4750 
L 4750 4750 
L 1831 -91 
L 1331 -91 
L 4250 4750 
z
M 1428 4750 
Q 1922 4750 2215 4408 
Q 2509 4066 2509 3481 
Q 2509 2891 2217 2550 
Q 1925 2209 1428 2209 
Q 931 2209 642 2551 
Q 353 2894 353 3481 
Q 353 4063 643 4406 
Q 934 4750 1428 4750 
z
" transform="scale(0.015625)"/>
    </defs>
    <use xlink:href="#DejaVuSans-54"/>
    <use xlink:href="#DejaVuSans-72" x="46.333984"/>
    <use xlink:href="#DejaVuSans-61" x="87.447266"/>
    <use xlink:href="#DejaVuSans-69" x="148.726562"/>
    <use xlink:href="#DejaVuSans-6e" x="176.509766"/>
    <use xlink:href="#DejaVuSans-69" x="239.888672"/>
    <use xlink:href="#DejaVuSans-6e" x="267.671875"/>
    <use xlink:href="#DejaVuSans-67" x="331.050781"/>
    <use xlink:href="#DejaVuSans-20" x="394.527344"/>
    <use xlink:href="#DejaVuSans-56" x="426.314453"/>
    <use xlink:href="#DejaVuSans-53" x="494.722656"/>
    <use xlink:href="#DejaVuSans-2e" x="558.199219"/>
    <use xlink:href="#DejaVuSans-20" x="589.986328"/>
    <use xlink:href="#DejaVuSans-56" x="621.773438"/>
    <use xlink:href="#DejaVuSans-61" x="682.431641"/>
    <use xlink:href="#DejaVuSans-6c" x="743.710938"/>
    <use xlink:href="#DejaVuSans-69" x="771.494141"/>
    <use xlink:href="#DejaVuSans-64" x="799.277344"/>
    <use xlink:href="#DejaVuSans-61" x="862.753906"/>
    <use xlink:href="#DejaVuSans-74" x="924.033203"/>
    <use xlink:href="#DejaVuSans-69" x="963.242188"/>
    <use xlink:href="#DejaVuSans-6f" x="991.025391"/>
    <use xlink:href="#DejaVuSans-6e" x="1052.207031"/>
    <use xlink:href="#DejaVuSans-20" x="1115.585938"/>
    <use xlink:href="#DejaVuSans-41" x="1147.373047"/>
    <use xlink:href="#DejaVuSans-63" x="1214.03125"/>
    <use xlink:href="#DejaVuSans-63" x="1269.011719"/>
    <use xlink:href="#DejaVuSans-75" x="1323.992188"/>
    <use xlink:href="#DejaVuSans-72" x="1387.371094"/>
    <use xlink:href="#DejaVuSans-61" x="1428.484375"/>
    <use xlink:href="#DejaVuSans-63" x="1489.763672"/>
    <use xlink:href="#DejaVuSans-79" x="1544.744141"/>
    <use xlink:href="#DejaVuSans-20" x="1603.923828"/>
    <use xlink:href="#DejaVuSans-2d" x="1635.710938"/>
    <use xlink:href="#DejaVuSans-20" x="1671.794922"/>
    <use xlink:href="#DejaVuSans-44" x="1703.582031"/>
    <use xlink:href="#DejaVuSans-61" x="1780.583984"/>
    <use xlink:href="#DejaVuSans-74" x="1841.863281"/>
    <use xlink:href="#DejaVuSans-61" x="1881.072266"/>
    <use xlink:href="#DejaVuSans-73" x="1942.351562"/>
    <use xlink:href="#DejaVuSans-65" x="1994.451172"/>
    <use xlink:href="#DejaVuSans-74" x="2055.974609"/>
    <use xlink:href="#DejaVuSans-20" x="2095.183594"/>
    <use xlink:href="#DejaVuSans-53" x="2126.970703"/>
    <use xlink:href="#DejaVuSans-69" x="2190.447266"/>
    <use xlink:href="#DejaVuSans-7a" x="2218.230469"/>
    <use xlink:href="#DejaVuSans-65" x="2270.720703"/>
    <use xlink:href="#DejaVuSans-20" x="2332.244141"/>
    <use xlink:href="#DejaVuSans-3d" x="2364.03125"/>
    <use xlink:href="#DejaVuSans-20" x="2447.820312"/>
    <use xlink:href="#DejaVuSans-31" x="2479.607422"/>
    <use xlink:href="#DejaVuSans-30" x="2543.230469"/>
    <use xlink:href="#DejaVuSans-30" x="2606.853516"/>
    <use xlink:href="#DejaVuSans-2e" x="2670.476562"/>
    <use xlink:href="#DejaVuSans-30" x="2702.263672"/>
    <use xlink:href="#DejaVuSans-25" x="2765.886719"/>
   </g>
  </g>
 </g>
 <defs>
  <clipPath id="p2ccd37ef34">
   <rect x="43.78125" y="37.296" width="279" height="202.464"/>
  </clipPath>
 </defs>
</svg>
