<?xml version="1.0" encoding="utf-8" standalone="no"?>
<!DOCTYPE svg PUBLIC "-//W3C//DTD SVG 1.1//EN"
  "http://www.w3.org/Graphics/SVG/1.1/DTD/svg11.dtd">
<svg xmlns:xlink="http://www.w3.org/1999/xlink" width="343.328516pt" height="277.31625pt" viewBox="0 0 343.328516 277.31625" xmlns="http://www.w3.org/2000/svg" version="1.1">
 <metadata>
  <rdf:RDF xmlns:dc="http://purl.org/dc/elements/1.1/" xmlns:cc="http://creativecommons.org/ns#" xmlns:rdf="http://www.w3.org/1999/02/22-rdf-syntax-ns#">
   <cc:Work>
    <dc:type rdf:resource="http://purl.org/dc/dcmitype/StillImage"/>
    <dc:date>2026-06-10T18:52:14.749223</dc:date>
    <dc:format>image/svg+xml</dc:format>
    <dc:creator>
     <cc:Agent>
      <dc:title>Matplotlib v3.8.4, https://matplotlib.org/</dc:title>
     </cc:Agent>
    </dc:creator>
   </cc:Work>
  </rdf:RDF>
 </metadata>
 <defs>
  <style type="text/css">*{stroke-linejoin: round; stroke-linecap: butt}</style>
 </defs>
 <g id="figure_1">
  <g id="patch_1">
   <path d="M 0 277.31625 
L 343.328516 277.31625 
L 343.328516 0 
L 0 0 
z
" style="fill: #ffffff"/>
  </g>
  <g id="axes_1">
   <g id="patch_2">
    <path d="M 43.78125 239.76 
L 322.78125 239.76 
L 322.78125 37.296 
L 43.78125 37.296 
z
" style="fill: #ffffff"/>
   </g>
   <g id="matplotlib.axis_1">
    <g id="xtick_1">
     <g id="line2d_1">
      <path d="M 56.209178 239.76 
L 56.209178 37.296 
" clip-path="url(#pde19237023)" style="fill: none; stroke-dasharray: 2.96,1.28; stroke-dashoffset: 0; stroke: #b0b0b0; stroke-opacity: 0.4; stroke-width: 0.8"/>
     </g>
     <g id="line2d_2">
      <defs>
       <path id="m1a89325be9" d="M 0 0 
L 0 3.5 
" style="stroke: #000000; stroke-width: 0.8"/>
      </defs>
      <g>
       <use xlink:href="#m1a89325be9" x="56.209178" y="239.76" style="stroke: #000000; stroke-width: 0.8"/>
      </g>
     </g>
     <g id="text_1">
      <!-- 0 -->
      <g transform="translate(53.027928 254.358437) scale(0.1 -0.1)">
       <defs>
        <path id="DejaVuSans-30" d="M 2034 4250 
Q 1547 4250 1301 3770 
Q 1056 3291 1056 2328 
Q 1056 1369 1301 889 
Q 1547 409 2034 409 
Q 2525 409 2770 889 
Q 3016 1369 3016 2328 
Q 3016 3291 2770 3770 
Q 2525 4250 2034 4250 
z
M 2034 4750 
Q 2819 4750 3233 4129 
Q 3647 3509 3647 2328 
Q 3647 1150 3233 529 
Q 2819 -91 2034 -91 
Q 1250 -91 836 529 
Q 422 1150 422 2328 
Q 422 3509 836 4129 
Q 1250 4750 2034 4750 
z
" transform="scale(0.015625)"/>
       </defs>
       <use xlink:href="#DejaVuSans-30"/>
      </g>
     </g>
    </g>
    <g id="xtick_2">
     <g id="line2d_3">
      <path d="M 106.987229 239.76 
L 106.987229 37.296 
" clip-path="url(#pde19237023)" style="fill: none; stroke-dasharray: 2.96,1.28; stroke-dashoffset: 0; stroke: #b0b0b0; stroke-opacity: 0.4; stroke-width: 0.8"/>
     </g>
     <g id="line2d_4">
      <g>
       <use xlink:href="#m1a89325be9" x="106.987229" y="239.76" style="stroke: #000000; stroke-width: 0.8"/>
      </g>
     </g>
     <g id="text_2">
      <!-- 200 -->
      <g transform="translate(97.443479 254.358437) scale(0.1 -0.1)">
       <defs>
        <path id="DejaVuSans-32" d="M 1228 531 
L 3431 531 
L 3431 0 
L 469 0 
L 469 531 
Q 828 903 1448 1529 
Q 2069 2156 2228 2338 
Q 2531 2678 2651 2914 
Q 2772 3150 2772 3378 
Q 2772 3750 2511 3984 
Q 2250 4219 1831 4219 
Q 1534 4219 1204 4116 
Q 875 4013 500 3803 
L 500 4441 
Q 881 4594 1212 4672 
Q 1544 4750 1819 4750 
Q 2544 4750 2975 4387 
Q 3406 4025 3406 3419 
Q 3406 3131 3298 2873 
Q 3191 2616 2906 2266 
Q 2828 2175 2409 1742 
Q 1991 1309 1228 531 
z
" transform="scale(0.015625)"/>
       </defs>
       <use xlink:href="#DejaVuSans-32"/>
       <use xlink:href="#DejaVuSans-30" x="63.623047"/>
       <use xlink:href="#DejaVuSans-30" x="127.246094"/>
      </g>
     </g>
    </g>
    <g id="xtick_3">
     <g id="line2d_5">
      <path d="M 157.765279 239.76 
L 157.765279 37.296 
" clip-path="url(#pde19237023)" style="fill: none; stroke-dasharray: 2.96,1.28; stroke-dashoffset: 0; stroke: #b0b0b0; stroke-opacity: 0.4; stroke-width: 0.8"/>
     </g>
     <g id="line2d_6">
      <g>
       <use xlink:href="#m1a89325be9" x="157.765279" y="239.76" style="stroke: #000000; stroke-width: 0.8"/>
      </g>
     </g>
     <g id="text_3">
      <!-- 400 -->
      <g transform="translate(148.221529 254.358437) scale(0.1 -0.1)">
       <defs>
        <path id="DejaVuSans-34" d="M 2419 4116 
L 825 1625 
L 2419 1625 
L 2419 4116 
z
M 2253 4666 
L 3047 4666 
L 3047 1625 
L 3713 1625 
L 3713 1100 
L 3047 1100 
L 3047 0 
L 2419 0 
L 2419 1100 
L 313 1100 
L 313 1709 
L 2253 4666 
z
" transform="scale(0.015625)"/>
       </defs>
       <use xlink:href="#DejaVuSans-34"/>
       <use xlink:href="#DejaVuSans-30" x="63.623047"/>
       <use xlink:href="#DejaVuSans-30" x="127.246094"/>
      </g>
     </g>
    </g>
    <g id="xtick_4">
     <g id="line2d_7">
      <path d="M 208.54333 239.76 
L 208.54333 37.296 
" clip-path="url(#pde19237023)" style="fill: none; stroke-dasharray: 2.96,1.28; stroke-dashoffset: 0; stroke: #b0b0b0; stroke-opacity: 0.4; stroke-width: 0.8"/>
     </g>
     <g id="line2d_8">
      <g>
       <use xlink:href="#m1a89325be9" x="208.54333" y="239.76" style="stroke: #000000; stroke-width: 0.8"/>
      </g>
     </g>
     <g id="text_4">
      <!-- 600 -->
      <g transform="translate(198.99958 254.358437) scale(0.1 -0.1)">
       <defs>
        <path id="DejaVuSans-36" d="M 2113 2584 
Q 1688 2584 1439 2293 
Q 1191 2003 1191 1497 
Q 1191 994 1439 701 
Q 1688 409 2113 409 
Q 2538 409 2786 701 
Q 3034 994 3034 1497 
Q 3034 2003 2786 2293 
Q 2538 2584 2113 2584 
z
M 3366 4563 
L 3366 3988 
Q 3128 4100 2886 4159 
Q 2644 4219 2406 4219 
Q 1781 4219 1451 3797 
Q 1122 3375 1075 2522 
Q 1259 2794 1537 2939 
Q 1816 3084 2150 3084 
Q 2853 3084 3261 2657 
Q 3669 2231 3669 1497 
Q 3669 778 3244 343 
Q 2819 -91 2113 -91 
Q 1303 -91 875 529 
Q 447 1150 447 2328 
Q 447 3434 972 4092 
Q 1497 4750 2381 4750 
Q 2619 4750 2861 4703 
Q 3103 4656 3366 4563 
z
" transform="scale(0.015625)"/>
       </defs>
       <use xlink:href="#DejaVuSans-36"/>
       <use xlink:href="#DejaVuSans-30" x="63.623047"/>
       <use xlink:href="#DejaVuSans-30" x="127.246094"/>
      </g>
     </g>
    </g>
    <g id="xtick_5">
     <g id="line2d_9">
      <path d="M 259.321381 239.76 
L 259.321381 37.296 
" clip-path="url(#pde19237023)" style="fill: none; stroke-dasharray: 2.96,1.28; stroke-dashoffset: 0; stroke: #b0b0b0; stroke-opacity: 0.4; stroke-width: 0.8"/>
     </g>
     <g id="line2d_10">
      <g>
       <use xlink:href="#m1a89325be9" x="259.321381" y="239.76" style="stroke: #000000; stroke-width: 0.8"/>
      </g>
     </g>
     <g id="text_5">
      <!-- 800 -->
      <g transform="translate(249.777631 254.358437) scale(0.1 -0.1)">
       <defs>
        <path id="DejaVuSans-38" d="M 2034 2216 
Q 1584 2216 1326 1975 
Q 1069 1734 1069 1313 
Q 1069 891 1326 650 
Q 1584 409 2034 409 
Q 2484 409 2743 651 
Q 3003 894 3003 1313 
Q 3003 1734 2745 1975 
Q 2488 2216 2034 2216 
z
M 1403 2484 
Q 997 2584 770 2862 
Q 544 3141 544 3541 
Q 544 4100 942 4425 
Q 1341 4750 2034 4750 
Q 2731 4750 3128 4425 
Q 3525 4100 3525 3541 
Q 3525 3141 3298 2862 
Q 3072 2584 2669 2484 
Q 3125 2378 3379 2068 
Q 3634 1759 3634 1313 
Q 3634 634 3220 271 
Q 2806 -91 2034 -91 
Q 1263 -91 848 271 
Q 434 634 434 1313 
Q 434 1759 690 2068 
Q 947 2378 1403 2484 
z
M 1172 3481 
Q 1172 3119 1398 2916 
Q 1625 2713 2034 2713 
Q 2441 2713 2670 2916 
Q 2900 3119 2900 3481 
Q 2900 3844 2670 4047 
Q 2441 4250 2034 4250 
Q 1625 4250 1398 4047 
Q 1172 3844 1172 3481 
z
" transform="scale(0.015625)"/>
       </defs>
       <use xlink:href="#DejaVuSans-38"/>
       <use xlink:href="#DejaVuSans-30" x="63.623047"/>
       <use xlink:href="#DejaVuSans-30" x="127.246094"/>
      </g>
     </g>
    </g>
    <g id="xtick_6">
     <g id="line2d_11">
      <path d="M 310.099432 239.76 
L 310.099432 37.296 
" clip-path="url(#pde19237023)" style="fill: none; stroke-dasharray: 2.96,1.28; stroke-dashoffset: 0; stroke: #b0b0b0; stroke-opacity: 0.4; stroke-width: 0.8"/>
     </g>
     <g id="line2d_12">
      <g>
       <use xlink:href="#m1a89325be9" x="310.099432" y="239.76" style="stroke: #000000; stroke-width: 0.8"/>
      </g>
     </g>
     <g id="text_6">
      <!-- 1000 -->
      <g transform="translate(297.374432 254.358437) scale(0.1 -0.1)">
       <defs>
        <path id="DejaVuSans-31" d="M 794 531 
L 1825 531 
L 1825 4091 
L 703 3866 
L 703 4441 
L 1819 4666 
L 2450 4666 
L 2450 531 
L 3481 531 
L 3481 0 
L 794 0 
L 794 531 
z
" transform="scale(0.015625)"/>
       </defs>
       <use xlink:href="#DejaVuSans-31"/>
       <use xlink:href="#DejaVuSans-30" x="63.623047"/>
       <use xlink:href="#DejaVuSans-30" x="127.246094"/>
       <use xlink:href="#DejaVuSans-30" x="190.869141"/>
      </g>
     </g>
    </g>
    <g id="text_7">
     <!-- Epochs -->
     <g transform="translate(165.365625 268.036562) scale(0.1 -0.1)">
      <defs>
       <path id="DejaVuSans-45" d="M 628 4666 
L 3578 4666 
L 3578 4134 
L 1259 4134 
L 1259 2753 
L 3481 2753 
L 3481 2222 
L 1259 2222 
L 1259 531 
L 3634 531 
L 3634 0 
L 628 0 
L 628 4666 
z
" transform="scale(0.015625)"/>
       <path id="DejaVuSans-70" d="M 1159 525 
L 1159 -1331 
L 581 -1331 
L 581 3500 
L 1159 3500 
L 1159 2969 
Q 1341 3281 1617 3432 
Q 1894 3584 2278 3584 
Q 2916 3584 3314 3078 
Q 3713 2572 3713 1747 
Q 3713 922 3314 415 
Q 2916 -91 2278 -91 
Q 1894 -91 1617 61 
Q 1341 213 1159 525 
z
M 3116 1747 
Q 3116 2381 2855 2742 
Q 2594 3103 2138 3103 
Q 1681 3103 1420 2742 
Q 1159 2381 1159 1747 
Q 1159 1113 1420 752 
Q 1681 391 2138 391 
Q 2594 391 2855 752 
Q 3116 1113 3116 1747 
z
" transform="scale(0.015625)"/>
       <path id="DejaVuSans-6f" d="M 1959 3097 
Q 1497 3097 1228 2736 
Q 959 2375 959 1747 
Q 959 1119 1226 758 
Q 1494 397 1959 397 
Q 2419 397 2687 759 
Q 2956 1122 2956 1747 
Q 2956 2369 2687 2733 
Q 2419 3097 1959 3097 
z
M 1959 3584 
Q 2709 3584 3137 3096 
Q 3566 2609 3566 1747 
Q 3566 888 3137 398 
Q 2709 -91 1959 -91 
Q 1206 -91 779 398 
Q 353 888 353 1747 
Q 353 2609 779 3096 
Q 1206 3584 1959 3584 
z
" transform="scale(0.015625)"/>
       <path id="DejaVuSans-63" d="M 3122 3366 
L 3122 2828 
Q 2878 2963 2633 3030 
Q 2388 3097 2138 3097 
Q 1578 3097 1268 2742 
Q 959 2388 959 1747 
Q 959 1106 1268 751 
Q 1578 397 2138 397 
Q 2388 397 2633 464 
Q 2878 531 3122 666 
L 3122 134 
Q 2881 22 2623 -34 
Q 2366 -91 2075 -91 
Q 1284 -91 818 406 
Q 353 903 353 1747 
Q 353 2603 823 3093 
Q 1294 3584 2113 3584 
Q 2378 3584 2631 3529 
Q 2884 3475 3122 3366 
z
" transform="scale(0.015625)"/>
       <path id="DejaVuSans-68" d="M 3513 2113 
L 3513 0 
L 2938 0 
L 2938 2094 
Q 2938 2591 2744 2837 
Q 2550 3084 2163 3084 
Q 1697 3084 1428 2787 
Q 1159 2491 1159 1978 
L 1159 0 
L 581 0 
L 581 4863 
L 1159 4863 
L 1159 2956 
Q 1366 3272 1645 3428 
Q 1925 3584 2291 3584 
Q 2894 3584 3203 3211 
Q 3513 2838 3513 2113 
z
" transform="scale(0.015625)"/>
       <path id="DejaVuSans-73" d="M 2834 3397 
L 2834 2853 
Q 2591 2978 2328 3040 
Q 2066 3103 1784 3103 
Q 1356 3103 1142 2972 
Q 928 2841 928 2578 
Q 928 2378 1081 2264 
Q 1234 2150 1697 2047 
L 1894 2003 
Q 2506 1872 2764 1633 
Q 3022 1394 3022 966 
Q 3022 478 2636 193 
Q 2250 -91 1575 -91 
Q 1294 -91 989 -36 
Q 684 19 347 128 
L 347 722 
Q 666 556 975 473 
Q 1284 391 1588 391 
Q 1994 391 2212 530 
Q 2431 669 2431 922 
Q 2431 1156 2273 1281 
Q 2116 1406 1581 1522 
L 1381 1569 
Q 847 1681 609 1914 
Q 372 2147 372 2553 
Q 372 3047 722 3315 
Q 1072 3584 1716 3584 
Q 2034 3584 2315 3537 
Q 2597 3491 2834 3397 
z
" transform="scale(0.015625)"/>
      </defs>
      <use xlink:href="#DejaVuSans-45"/>
      <use xlink:href="#DejaVuSans-70" x="63.183594"/>
      <use xlink:href="#DejaVuSans-6f" x="126.660156"/>
      <use xlink:href="#DejaVuSans-63" x="187.841797"/>
      <use xlink:href="#DejaVuSans-68" x="242.822266"/>
      <use xlink:href="#DejaVuSans-73" x="306.201172"/>
     </g>
    </g>
   </g>
   <g id="matplotlib.axis_2">
    <g id="ytick_1">
     <g id="line2d_13">
      <path d="M 43.78125 228.716851 
L 322.78125 228.716851 
" clip-path="url(#pde19237023)" style="fill: none; stroke-dasharray: 2.96,1.28; stroke-dashoffset: 0; stroke: #b0b0b0; stroke-opacity: 0.4; stroke-width: 0.8"/>
     </g>
     <g id="line2d_14">
      <defs>
       <path id="m7333d87614" d="M 0 0 
L -3.5 0 
" style="stroke: #000000; stroke-width: 0.8"/>
      </defs>
      <g>
       <use xlink:href="#m7333d87614" x="43.78125" y="228.716851" style="stroke: #000000; stroke-width: 0.8"/>
      </g>
     </g>
     <g id="text_8">
      <!-- 0.5 -->
      <g transform="translate(20.878125 232.51607) scale(0.1 -0.1)">
       <defs>
        <path id="DejaVuSans-2e" d="M 684 794 
L 1344 794 
L 1344 0 
L 684 0 
L 684 794 
z
" transform="scale(0.015625)"/>
        <path id="DejaVuSans-35" d="M 691 4666 
L 3169 4666 
L 3169 4134 
L 1269 4134 
L 1269 2991 
Q 1406 3038 1543 3061 
Q 1681 3084 1819 3084 
Q 2600 3084 3056 2656 
Q 3513 2228 3513 1497 
Q 3513 744 3044 326 
Q 2575 -91 1722 -91 
Q 1428 -91 1123 -41 
Q 819 9 494 109 
L 494 744 
Q 775 591 1075 516 
Q 1375 441 1709 441 
Q 2250 441 2565 725 
Q 2881 1009 2881 1497 
Q 2881 1984 2565 2268 
Q 2250 2553 1709 2553 
Q 1456 2553 1204 2497 
Q 953 2441 691 2322 
L 691 4666 
z
" transform="scale(0.015625)"/>
       </defs>
       <use xlink:href="#DejaVuSans-30"/>
       <use xlink:href="#DejaVuSans-2e" x="63.623047"/>
       <use xlink:href="#DejaVuSans-35" x="95.410156"/>
      </g>
     </g>
    </g>
    <g id="ytick_2">
     <g id="line2d_15">
      <path d="M 43.78125 188.757369 
L 322.78125 188.757369 
" clip-path="url(#pde19237023)" style="fill: none; stroke-dasharray: 2.96,1.28; stroke-dashoffset: 0; stroke: #b0b0b0; stroke-opacity: 0.4; stroke-width: 0.8"/>
     </g>
     <g id="line2d_16">
      <g>
       <use xlink:href="#m7333d87614" x="43.78125" y="188.757369" style="stroke: #000000; stroke-width: 0.8"/>
      </g>
     </g>
     <g id="text_9">
      <!-- 0.6 -->
      <g transform="translate(20.878125 192.556588) scale(0.1 -0.1)">
       <use xlink:href="#DejaVuSans-30"/>
       <use xlink:href="#DejaVuSans-2e" x="63.623047"/>
       <use xlink:href="#DejaVuSans-36" x="95.410156"/>
      </g>
     </g>
    </g>
    <g id="ytick_3">
     <g id="line2d_17">
      <path d="M 43.78125 148.797887 
L 322.78125 148.797887 
" clip-path="url(#pde19237023)" style="fill: none; stroke-dasharray: 2.96,1.28; stroke-dashoffset: 0; stroke: #b0b0b0; stroke-opacity: 0.4; stroke-width: 0.8"/>
     </g>
     <g id="line2d_18">
      <g>
       <use xlink:href="#m7333d87614" x="43.78125" y="148.797887" style="stroke: #000000; stroke-width: 0.8"/>
      </g>
     </g>
     <g id="text_10">
      <!-- 0.7 -->
      <g transform="translate(20.878125 152.597106) scale(0.1 -0.1)">
       <defs>
        <path id="DejaVuSans-37" d="M 525 4666 
L 3525 4666 
L 3525 4397 
L 1831 0 
L 1172 0 
L 2766 4134 
L 525 4134 
L 525 4666 
z
" transform="scale(0.015625)"/>
       </defs>
       <use xlink:href="#DejaVuSans-30"/>
       <use xlink:href="#DejaVuSans-2e" x="63.623047"/>
       <use xlink:href="#DejaVuSans-37" x="95.410156"/>
      </g>
     </g>
    </g>
    <g id="ytick_4">
     <g id="line2d_19">
      <path d="M 43.78125 108.838405 
L 322.78125 108.838405 
" clip-path="url(#pde19237023)" style="fill: none; stroke-dasharray: 2.96,1.28; stroke-dashoffset: 0; stroke: #b0b0b0; stroke-opacity: 0.4; stroke-width: 0.8"/>
     </g>
     <g id="line2d_20">
      <g>
       <use xlink:href="#m7333d87614" x="43.78125" y="108.838405" style="stroke: #000000; stroke-width: 0.8"/>
      </g>
     </g>
     <g id="text_11">
      <!-- 0.8 -->
      <g transform="translate(20.878125 112.637624) scale(0.1 -0.1)">
       <use xlink:href="#DejaVuSans-30"/>
       <use xlink:href="#DejaVuSans-2e" x="63.623047"/>
       <use xlink:href="#DejaVuSans-38" x="95.410156"/>
      </g>
     </g>
    </g>
    <g id="ytick_5">
     <g id="line2d_21">
      <path d="M 43.78125 68.878923 
L 322.78125 68.878923 
" clip-path="url(#pde19237023)" style="fill: none; stroke-dasharray: 2.96,1.28; stroke-dashoffset: 0; stroke: #b0b0b0; stroke-opacity: 0.4; stroke-width: 0.8"/>
     </g>
     <g id="line2d_22">
      <g>
       <use xlink:href="#m7333d87614" x="43.78125" y="68.878923" style="stroke: #000000; stroke-width: 0.8"/>
      </g>
     </g>
     <g id="text_12">
      <!-- 0.9 -->
      <g transform="translate(20.878125 72.678141) scale(0.1 -0.1)">
       <defs>
        <path id="DejaVuSans-39" d="M 703 97 
L 703 672 
Q 941 559 1184 500 
Q 1428 441 1663 441 
Q 2288 441 2617 861 
Q 2947 1281 2994 2138 
Q 2813 1869 2534 1725 
Q 2256 1581 1919 1581 
Q 1219 1581 811 2004 
Q 403 2428 403 3163 
Q 403 3881 828 4315 
Q 1253 4750 1959 4750 
Q 2769 4750 3195 4129 
Q 3622 3509 3622 2328 
Q 3622 1225 3098 567 
Q 2575 -91 1691 -91 
Q 1453 -91 1209 -44 
Q 966 3 703 97 
z
M 1959 2075 
Q 2384 2075 2632 2365 
Q 2881 2656 2881 3163 
Q 2881 3666 2632 3958 
Q 2384 4250 1959 4250 
Q 1534 4250 1286 3958 
Q 1038 3666 1038 3163 
Q 1038 2656 1286 2365 
Q 1534 2075 1959 2075 
z
" transform="scale(0.015625)"/>
       </defs>
       <use xlink:href="#DejaVuSans-30"/>
       <use xlink:href="#DejaVuSans-2e" x="63.623047"/>
       <use xlink:href="#DejaVuSans-39" x="95.410156"/>
      </g>
     </g>
    </g>
    <g id="text_13">
     <!-- Accuracy -->
     <g transform="translate(14.798438 161.356125) rotate(-90) scale(0.1 -0.1)">
      <defs>
       <path id="DejaVuSans-41" d="M 2188 4044 
L 1331 1722 
L 3047 1722 
L 2188 4044 
z
M 1831 4666 
L 2547 4666 
L 4325 0 
L 3669 0 
L 3244 1197 
L 1141 1197 
L 716 0 
L 50 0 
L 1831 4666 
z
" transform="scale(0.015625)"/>
       <path id="DejaVuSans-75" d="M 544 1381 
L 544 3500 
L 1119 3500 
L 1119 1403 
Q 1119 906 1312 657 
Q 1506 409 1894 409 
Q 2359 409 2629 706 
Q 2900 1003 2900 1516 
L 2900 3500 
L 3475 3500 
L 3475 0 
L 2900 0 
L 2900 538 
Q 2691 219 2414 64 
Q 2138 -91 1772 -91 
Q 1169 -91 856 284 
Q 544 659 544 1381 
z
M 1991 3584 
L 1991 3584 
z
" transform="scale(0.015625)"/>
       <path id="DejaVuSans-72" d="M 2631 2963 
Q 2534 3019 2420 3045 
Q 2306 3072 2169 3072 
Q 1681 3072 1420 2755 
Q 1159 2438 1159 1844 
L 1159 0 
L 581 0 
L 581 3500 
L 1159 3500 
L 1159 2956 
Q 1341 3275 1631 3429 
Q 1922 3584 2338 3584 
Q 2397 3584 2469 3576 
Q 2541 3569 2628 3553 
L 2631 2963 
z
" transform="scale(0.015625)"/>
       <path id="DejaVuSans-61" d="M 2194 1759 
Q 1497 1759 1228 1600 
Q 959 1441 959 1056 
Q 959 750 1161 570 
Q 1363 391 1709 391 
Q 2188 391 2477 730 
Q 2766 1069 2766 1631 
L 2766 1759 
L 2194 1759 
z
M 3341 1997 
L 3341 0 
L 2766 0 
L 2766 531 
Q 2569 213 2275 61 
Q 1981 -91 1556 -91 
Q 1019 -91 701 211 
Q 384 513 384 1019 
Q 384 1609 779 1909 
Q 1175 2209 1959 2209 
L 2766 2209 
L 2766 2266 
Q 2766 2663 2505 2880 
Q 2244 3097 1772 3097 
Q 1472 3097 1187 3025 
Q 903 2953 641 2809 
L 641 3341 
Q 956 3463 1253 3523 
Q 1550 3584 1831 3584 
Q 2591 3584 2966 3190 
Q 3341 2797 3341 1997 
z
" transform="scale(0.015625)"/>
       <path id="DejaVuSans-79" d="M 2059 -325 
Q 1816 -950 1584 -1140 
Q 1353 -1331 966 -1331 
L 506 -1331 
L 506 -850 
L 844 -850 
Q 1081 -850 1212 -737 
Q 1344 -625 1503 -206 
L 1606 56 
L 191 3500 
L 800 3500 
L 1894 763 
L 2988 3500 
L 3597 3500 
L 2059 -325 
z
" transform="scale(0.015625)"/>
      </defs>
      <use xlink:href="#DejaVuSans-41"/>
      <use xlink:href="#DejaVuSans-63" x="66.658203"/>
      <use xlink:href="#DejaVuSans-63" x="121.638672"/>
      <use xlink:href="#DejaVuSans-75" x="176.619141"/>
      <use xlink:href="#DejaVuSans-72" x="239.998047"/>
      <use xlink:href="#DejaVuSans-61" x="281.111328"/>
      <use xlink:href="#DejaVuSans-63" x="342.390625"/>
      <use xlink:href="#DejaVuSans-79" x="397.371094"/>
     </g>
    </g>
   </g>
   <g id="line2d_23">
    <path d="M 56.463068 229.05492 
L 56.716958 230.294501 
L 57.224739 226.012327 
L 57.478629 227.364577 
L 57.732519 224.434666 
L 57.98641 226.913827 
L 58.49419 223.758529 
L 59.001971 217.673343 
L 59.255861 216.546456 
L 59.509751 203.812604 
L 59.763641 205.502947 
L 60.271422 191.416821 
L 60.779202 163.244594 
L 61.033093 158.849726 
L 61.286983 157.835545 
L 61.540873 136.762709 
L 61.794764 140.030689 
L 62.048654 173.386602 
L 62.302544 176.429195 
L 62.556434 161.666956 
L 62.810325 130.790204 
L 63.064215 148.595036 
L 63.571995 128.98718 
L 63.825886 123.578107 
L 64.333666 135.635822 
L 64.587556 138.227665 
L 64.841447 128.874499 
L 65.095337 126.958769 
L 65.349227 146.566649 
L 65.603117 150.172697 
L 65.857008 128.53643 
L 66.110898 131.80441 
L 66.364788 136.875391 
L 66.618678 118.394422 
L 66.872569 122.90197 
L 67.126459 119.746696 
L 67.380349 111.520393 
L 67.634239 114.56301 
L 67.88813 151.186903 
L 68.14202 124.479631 
L 68.39591 111.29503 
L 68.6498 181.274836 
L 68.903691 120.535514 
L 69.157581 112.64728 
L 69.665361 113.323417 
L 69.919252 112.64728 
L 70.173142 109.492006 
L 70.427032 115.126442 
L 70.680922 132.25516 
L 70.934813 111.971167 
L 71.188703 115.239123 
L 71.442593 111.971167 
L 71.696483 154.004109 
L 71.950374 111.971167 
L 72.204264 106.449389 
L 72.458154 125.493813 
L 72.712044 107.914344 
L 72.965935 108.365118 
L 73.219825 108.365118 
L 73.727605 105.998639 
L 73.981496 108.590481 
L 74.235386 106.900163 
L 74.489276 135.410435 
L 74.743166 107.688981 
L 74.997057 104.646388 
L 75.250947 104.421001 
L 75.504837 102.843364 
L 75.758727 103.519477 
L 76.012618 105.885957 
L 76.266508 115.351828 
L 76.520398 104.984433 
L 76.774288 105.322501 
L 77.028179 110.731574 
L 77.282069 104.871751 
L 77.535959 102.39259 
L 77.78985 105.20982 
L 78.04374 105.435207 
L 78.29763 108.815868 
L 78.55152 99.462679 
L 78.805411 99.462679 
L 79.059301 104.533683 
L 79.313191 102.505295 
L 79.567081 97.77236 
L 79.820972 97.77236 
L 80.074862 96.983541 
L 80.328752 135.297753 
L 80.582642 96.983541 
L 80.836533 100.364203 
L 81.090423 99.575384 
L 81.344313 100.476884 
L 81.598203 99.688066 
L 81.852094 97.32161 
L 82.105984 100.702271 
L 82.359874 101.829158 
L 82.613764 101.378408 
L 83.121545 94.617061 
L 83.375435 100.814953 
L 83.629325 94.95513 
L 84.137106 97.77236 
L 84.390996 117.380216 
L 84.644886 95.969335 
L 84.898777 96.307404 
L 85.152667 93.377492 
L 85.406557 93.152106 
L 85.660447 98.22311 
L 85.914338 98.67386 
L 86.168228 96.758154 
L 86.422118 97.32161 
L 86.676008 96.645472 
L 86.929899 92.1379 
L 87.183789 126.282656 
L 87.437679 194.008664 
L 87.691569 110.618893 
L 87.94546 94.729767 
L 88.45324 95.067811 
L 88.70713 93.264811 
L 88.961021 92.814037 
L 89.214911 91.574468 
L 89.468801 91.123718 
L 89.722691 90.222194 
L 89.976582 94.278993 
L 90.230472 112.421917 
L 90.484362 89.433375 
L 90.738252 89.658762 
L 90.992143 95.067811 
L 91.246033 92.1379 
L 91.499923 91.461787 
L 91.753813 93.152106 
L 92.261594 88.306488 
L 92.515484 89.996831 
L 92.769374 89.658762 
L 93.023265 87.404988 
L 93.277155 90.222194 
L 93.784936 86.616146 
L 94.038826 93.602856 
L 94.292716 88.081101 
L 94.546606 105.998639 
L 94.800497 93.828243 
L 95.054387 139.354552 
L 95.308277 90.334899 
L 95.562167 84.925827 
L 95.816058 89.658762 
L 96.069948 88.41917 
L 96.323838 83.798939 
L 96.577728 87.292283 
L 97.085509 85.376577 
L 97.339399 88.193807 
L 97.593289 86.278077 
L 97.84718 91.2364 
L 98.10107 86.728851 
L 98.35496 84.925827 
L 98.60885 85.489258 
L 98.862741 83.348166 
L 99.116631 85.038508 
L 99.370521 88.193807 
L 99.624411 84.813121 
L 99.878302 83.460871 
L 100.132192 83.798939 
L 100.386082 81.770528 
L 100.639972 83.235484 
L 100.893863 91.2364 
L 101.147753 85.940032 
L 101.401643 107.350913 
L 101.655533 84.24969 
L 101.909424 79.967504 
L 102.163314 81.657847 
L 102.417204 82.108597 
L 102.671094 78.277185 
L 102.924985 77.826411 
L 103.178875 80.756323 
L 103.432765 81.094391 
L 103.686655 79.854822 
L 103.940546 77.826411 
L 104.194436 78.615254 
L 104.448326 78.727935 
L 104.702216 79.854822 
L 104.956107 78.389867 
L 105.209997 78.840617 
L 105.463887 75.009205 
L 105.717777 77.150298 
L 106.225558 76.586842 
L 106.479448 78.502548 
L 106.733338 75.798024 
L 106.987229 81.545165 
L 107.495009 72.980794 
L 107.748899 75.798024 
L 108.00279 75.798024 
L 108.25668 75.910705 
L 108.51057 76.361455 
L 109.018351 72.755431 
L 109.272241 73.206181 
L 109.526131 75.798024 
L 109.780021 73.093475 
L 110.033912 76.812229 
L 110.287802 76.812229 
L 110.541692 74.558431 
L 110.795583 76.924911 
L 111.049473 73.093475 
L 111.303363 74.783818 
L 111.557253 72.079294 
L 111.811144 76.136092 
L 112.065034 74.107681 
L 112.318924 74.220386 
L 112.572814 74.107681 
L 112.826705 72.304657 
L 113.080595 74.8965 
L 113.334485 73.318862 
L 113.588375 76.136092 
L 113.842266 69.825519 
L 114.096156 73.656931 
L 114.350046 72.417362 
L 114.603936 74.333068 
L 114.857827 72.304657 
L 115.111717 72.868112 
L 115.365607 70.839701 
L 115.619497 73.882318 
L 115.873388 73.656931 
L 116.127278 75.347274 
L 116.381168 69.825519 
L 116.635058 72.417362 
L 116.888949 73.093475 
L 117.396729 68.360563 
L 117.90451 70.163588 
L 118.1584 67.459039 
L 118.41229 70.388951 
L 118.66618 68.473245 
L 119.173961 73.544249 
L 119.427851 70.163588 
L 119.681741 69.825519 
L 119.935632 72.642725 
L 120.189522 70.839701 
L 120.443412 67.459039 
L 120.697302 69.149382 
L 120.951193 69.938201 
L 121.205083 67.571721 
L 121.458973 70.388951 
L 121.712863 69.938201 
L 121.966754 66.670221 
L 122.220644 69.825519 
L 122.474534 69.149382 
L 122.728424 66.782902 
L 122.982315 67.571721 
L 123.236205 67.90979 
L 123.490095 65.430652 
L 123.743985 68.473245 
L 123.997876 68.022495 
L 124.251766 70.276269 
L 124.505656 67.459039 
L 124.759546 66.332152 
L 125.013437 66.782902 
L 125.267327 66.332152 
L 125.521217 66.670221 
L 125.775107 64.078378 
L 126.028998 69.600132 
L 126.282888 69.938201 
L 126.536778 64.078378 
L 126.790669 66.219471 
L 127.044559 71.17777 
L 127.298449 66.895608 
L 127.552339 67.459039 
L 127.80623 64.191059 
L 128.06012 66.106765 
L 128.31401 63.627628 
L 128.5679 67.684426 
L 128.821791 69.374745 
L 129.075681 68.811314 
L 129.329571 66.219471 
L 129.583461 67.008289 
L 130.091242 66.332152 
L 130.345132 64.979878 
L 130.599022 67.459039 
L 130.852913 64.303765 
L 131.106803 64.979878 
L 131.360693 66.219471 
L 131.614583 69.600132 
L 131.868474 64.529128 
L 132.122364 62.500741 
L 132.630144 67.571721 
L 132.884035 63.402241 
L 133.137925 64.303765 
L 133.391815 63.402241 
L 133.645705 63.627628 
L 133.899596 59.570829 
L 134.153486 61.937285 
L 134.661266 60.585011 
L 134.915157 56.978986 
L 135.169047 60.585011 
L 135.422937 61.824603 
L 136.184608 59.120055 
L 136.438498 59.007374 
L 136.692388 56.302849 
L 136.946279 59.458124 
L 137.454059 60.021579 
L 137.707949 59.458124 
L 137.96184 58.331237 
L 138.72351 61.599217 
L 138.977401 61.486535 
L 139.231291 60.246942 
L 139.485181 59.908898 
L 139.739071 57.767805 
L 139.992962 60.359648 
L 140.500742 60.021579 
L 140.754632 58.894692 
L 141.008523 59.345442 
L 141.262413 58.331237 
L 141.516303 58.218555 
L 141.770193 60.246942 
L 142.024084 57.880486 
L 142.277974 57.655099 
L 142.531864 59.458124 
L 142.785755 58.669305 
L 143.039645 59.796192 
L 143.293535 58.443942 
L 143.547425 59.458124 
L 143.801316 58.443942 
L 144.055206 58.443942 
L 144.309096 57.655099 
L 144.562986 56.077462 
L 144.816877 55.964781 
L 145.070767 58.105873 
L 145.324657 57.993168 
L 145.578547 56.866281 
L 145.832438 59.458124 
L 146.086328 58.781987 
L 146.340218 58.669305 
L 146.594108 54.837893 
L 147.101889 57.542418 
L 147.355779 56.640918 
L 147.609669 54.950575 
L 147.86356 54.612506 
L 148.11745 55.852075 
L 148.37134 54.837893 
L 148.62523 55.063257 
L 148.879121 53.485619 
L 149.133011 54.387119 
L 149.386901 57.204349 
L 149.640791 54.950575 
L 149.894682 55.063257 
L 150.148572 55.852075 
L 150.402462 53.823688 
L 150.656352 53.485619 
L 151.164133 56.077462 
L 151.418023 53.372938 
L 151.671913 54.161756 
L 151.925804 55.964781 
L 152.179694 53.372938 
L 152.433584 56.528212 
L 152.687474 53.936369 
L 152.941365 55.288643 
L 153.195255 55.175962 
L 153.449145 56.415531 
L 153.703035 55.401325 
L 153.956926 55.175962 
L 154.210816 55.401325 
L 154.464706 56.302849 
L 154.972487 52.696801 
L 155.226377 53.147551 
L 155.480267 53.147551 
L 155.734157 54.274438 
L 155.988048 54.837893 
L 156.241938 55.964781 
L 156.495828 52.922164 
L 156.749718 55.626712 
L 157.003609 54.161756 
L 157.257499 53.598301 
L 157.511389 55.175962 
L 157.765279 55.739394 
L 158.01917 53.034869 
L 158.27306 55.175962 
L 158.52695 52.809482 
L 158.78084 53.485619 
L 159.034731 53.823688 
L 159.796402 54.161756 
L 160.304182 52.358732 
L 160.558072 54.612506 
L 161.065853 51.682595 
L 161.319743 51.231845 
L 161.573633 52.696801 
L 161.827524 53.372938 
L 162.335304 53.147551 
L 162.589194 51.231845 
L 163.096975 54.837893 
L 163.350865 55.063257 
L 163.604755 52.922164 
L 164.112536 52.471414 
L 164.366426 51.569913 
L 164.620316 52.922164 
L 164.874207 51.457208 
L 165.128097 51.795277 
L 165.381987 51.907982 
L 165.635877 53.598301 
L 165.889768 51.907982 
L 166.143658 52.809482 
L 166.397548 52.696801 
L 166.651438 52.809482 
L 166.905329 54.387119 
L 167.159219 53.823688 
L 167.413109 51.907982 
L 167.666999 51.795277 
L 167.92089 52.809482 
L 168.17478 52.809482 
L 168.42867 52.471414 
L 168.68256 51.006458 
L 168.936451 54.387119 
L 169.190341 53.147551 
L 169.444231 50.443026 
L 169.698121 54.499825 
L 169.952012 53.823688 
L 170.205902 53.936369 
L 170.713682 49.541502 
L 170.967573 50.330321 
L 171.221463 53.598301 
L 171.475353 52.809482 
L 171.729243 52.584119 
L 171.983134 53.034869 
L 172.490914 52.471414 
L 172.744804 52.471414 
L 172.998695 50.217639 
L 173.252585 53.485619 
L 173.506475 50.893776 
L 173.760365 52.020663 
L 174.014256 51.569913 
L 174.268146 53.372938 
L 174.522036 51.569913 
L 174.775926 50.781095 
L 175.029817 52.471414 
L 175.537597 53.034869 
L 175.791488 51.795277 
L 176.045378 51.569913 
L 176.299268 51.795277 
L 176.553158 51.231845 
L 176.807049 49.654208 
L 177.060939 50.330321 
L 177.314829 53.034869 
L 177.568719 51.569913 
L 177.82261 52.24605 
L 178.0765 51.231845 
L 178.33039 52.471414 
L 178.58428 51.344526 
L 178.838171 52.584119 
L 179.345951 50.330321 
L 179.599841 52.358732 
L 179.853732 50.443026 
L 180.107622 51.569913 
L 180.361512 51.231845 
L 180.615402 50.217639 
L 180.869293 51.119163 
L 181.123183 50.555708 
L 181.377073 51.457208 
L 181.630963 51.795277 
L 181.884854 50.668389 
L 182.138744 52.24605 
L 182.392634 51.006458 
L 182.646524 50.781095 
L 182.900415 51.119163 
L 183.154305 51.006458 
L 183.408195 52.809482 
L 183.662085 50.893776 
L 183.915976 51.457208 
L 184.169866 51.457208 
L 184.423756 50.330321 
L 184.677646 51.457208 
L 184.931537 49.766889 
L 185.185427 52.584119 
L 185.439317 50.217639 
L 185.693207 51.682595 
L 185.947098 52.24605 
L 186.200988 48.752683 
L 186.454878 52.696801 
L 186.708768 51.231845 
L 186.962659 51.231845 
L 187.216549 52.133345 
L 187.470439 49.203434 
L 187.97822 52.809482 
L 188.23211 51.231845 
L 188.486 51.119163 
L 188.73989 52.133345 
L 188.993781 49.992252 
L 189.501561 49.428821 
L 190.009342 52.584119 
L 190.263232 50.668389 
L 190.517122 51.569913 
L 190.771012 49.654208 
L 191.024903 51.231845 
L 191.278793 53.598301 
L 191.532683 50.668389 
L 191.786574 52.471414 
L 192.040464 50.330321 
L 192.294354 52.24605 
L 192.548244 51.119163 
L 193.056025 51.795277 
L 193.309915 51.457208 
L 193.563805 51.682595 
L 193.817696 49.428821 
L 194.071586 52.358732 
L 194.325476 52.696801 
L 194.579366 51.231845 
L 194.833257 51.457208 
L 195.087147 50.781095 
L 195.341037 51.006458 
L 195.594927 50.555708 
L 195.848818 51.231845 
L 196.102708 50.893776 
L 196.356598 48.865365 
L 196.610488 50.555708 
L 196.864379 50.443026 
L 197.118269 50.668389 
L 197.372159 50.443026 
L 197.626049 49.766889 
L 197.87994 50.893776 
L 198.13383 50.104958 
L 198.38772 48.414615 
L 198.64161 50.443026 
L 198.895501 51.344526 
L 199.149391 51.457208 
L 199.403281 51.907982 
L 199.657171 50.443026 
L 199.911062 52.020663 
L 200.164952 49.316139 
L 200.418842 52.471414 
L 200.672732 49.428821 
L 200.926623 50.217639 
L 201.180513 50.555708 
L 201.434403 51.344526 
L 201.688293 53.485619 
L 201.942184 48.752683 
L 202.196074 51.119163 
L 202.449964 51.344526 
L 202.703854 49.203434 
L 202.957745 50.104958 
L 203.211635 50.104958 
L 203.465525 51.344526 
L 203.719415 51.119163 
L 203.973306 49.654208 
L 204.227196 51.569913 
L 204.481086 51.457208 
L 204.734976 50.555708 
L 204.988867 50.893776 
L 205.242757 50.443026 
L 205.496647 52.471414 
L 205.750537 52.358732 
L 206.004428 50.893776 
L 206.512208 49.654208 
L 206.766098 49.316139 
L 207.019989 50.781095 
L 207.273879 50.217639 
L 207.527769 52.133345 
L 208.03555 50.217639 
L 208.28944 51.119163 
L 208.54333 50.893776 
L 208.797221 50.443026 
L 209.051111 52.696801 
L 209.305001 51.795277 
L 209.558891 51.457208 
L 209.812782 50.104958 
L 210.066672 49.654208 
L 210.320562 48.865365 
L 210.574452 51.006458 
L 210.828343 51.231845 
L 211.082233 49.654208 
L 211.336123 50.668389 
L 211.590013 51.006458 
L 212.097794 49.654208 
L 212.351684 52.584119 
L 212.605574 49.090752 
L 213.113355 49.766889 
L 213.367245 53.598301 
L 213.621135 49.654208 
L 213.875026 49.992252 
L 214.128916 50.104958 
L 214.382806 51.569913 
L 214.636696 52.020663 
L 215.144477 50.443026 
L 215.398367 52.24605 
L 215.652257 49.428821 
L 215.906148 51.344526 
L 216.160038 51.344526 
L 216.921709 49.992252 
L 217.175599 51.569913 
L 217.683379 49.879571 
L 217.93727 50.668389 
L 218.19116 52.471414 
L 218.44505 50.668389 
L 218.69894 50.668389 
L 218.952831 51.231845 
L 219.206721 49.766889 
L 219.460611 51.006458 
L 219.714501 50.217639 
L 219.968392 50.668389 
L 220.222282 50.555708 
L 220.476172 48.301933 
L 220.983953 51.231845 
L 221.237843 51.682595 
L 221.491733 51.344526 
L 221.745623 50.668389 
L 221.999514 53.147551 
L 222.253404 49.428821 
L 222.507294 52.471414 
L 222.761184 50.104958 
L 223.015075 50.443026 
L 223.268965 49.766889 
L 223.522855 50.781095 
L 223.776745 50.330321 
L 224.030636 51.231845 
L 224.284526 50.217639 
L 224.792307 49.992252 
L 225.046197 49.428821 
L 225.300087 51.119163 
L 225.553977 49.541502 
L 225.807868 52.133345 
L 226.061758 51.457208 
L 226.315648 49.654208 
L 226.569538 49.203434 
L 227.331209 52.020663 
L 227.585099 49.316139 
L 228.09288 51.682595 
L 228.34677 51.682595 
L 228.60066 48.414615 
L 229.108441 50.104958 
L 229.362331 52.24605 
L 229.870112 50.555708 
L 230.124002 50.781095 
L 230.377892 49.428821 
L 230.631782 50.893776 
L 230.885673 51.682595 
L 231.393453 49.541502 
L 231.647343 51.344526 
L 231.901234 50.555708 
L 232.155124 51.457208 
L 232.409014 51.569913 
L 232.916795 49.541502 
L 233.170685 49.992252 
L 233.424575 49.654208 
L 233.678465 50.217639 
L 233.932356 50.104958 
L 234.186246 49.654208 
L 234.440136 49.766889 
L 234.694026 50.893776 
L 234.947917 52.584119 
L 235.455697 51.231845 
L 235.709587 49.766889 
L 235.963478 50.443026 
L 236.217368 48.527297 
L 236.471258 50.781095 
L 236.725148 48.865365 
L 236.979039 50.330321 
L 237.232929 49.654208 
L 237.486819 50.668389 
L 237.740709 48.865365 
L 237.9946 50.668389 
L 238.24849 54.274438 
L 238.50238 49.316139 
L 238.75627 50.217639 
L 239.010161 49.879571 
L 239.264051 51.344526 
L 239.517941 49.316139 
L 239.771831 50.555708 
L 240.025722 48.640002 
L 240.279612 51.682595 
L 240.533502 49.541502 
L 241.041283 51.344526 
L 241.295173 50.443026 
L 241.549063 49.992252 
L 241.802954 48.414615 
L 242.056844 49.316139 
L 242.310734 49.541502 
L 242.564624 51.569913 
L 243.326295 51.569913 
L 243.580185 49.992252 
L 243.834076 49.992252 
L 244.087966 50.104958 
L 244.341856 47.738478 
L 244.595746 49.766889 
L 244.849637 50.555708 
L 245.103527 49.203434 
L 245.357417 50.781095 
L 245.611307 48.301933 
L 245.865198 51.795277 
L 246.119088 50.668389 
L 246.372978 52.584119 
L 246.880759 48.865365 
L 247.134649 49.541502 
L 247.388539 50.781095 
L 247.642429 49.654208 
L 247.89632 51.119163 
L 248.15021 49.541502 
L 248.4041 49.654208 
L 248.65799 51.119163 
L 248.911881 51.907982 
L 249.165771 49.766889 
L 249.419661 50.668389 
L 249.927442 49.316139 
L 250.181332 50.668389 
L 250.435222 49.654208 
L 250.689112 49.992252 
L 250.943003 50.781095 
L 251.196893 49.766889 
L 251.450783 51.907982 
L 251.704673 49.992252 
L 251.958564 49.541502 
L 252.212454 50.330321 
L 252.466344 49.203434 
L 252.720234 51.119163 
L 252.974125 49.541502 
L 253.481905 52.020663 
L 253.735795 49.316139 
L 253.989686 52.696801 
L 254.243576 51.231845 
L 254.497466 52.358732 
L 254.751356 49.090752 
L 255.005247 51.457208 
L 255.259137 51.457208 
L 255.513027 49.654208 
L 255.766917 51.006458 
L 256.020808 51.119163 
L 256.274698 52.020663 
L 256.528588 50.104958 
L 256.782479 49.541502 
L 257.036369 50.443026 
L 257.290259 52.358732 
L 257.544149 51.457208 
L 257.79804 52.24605 
L 258.30582 50.781095 
L 258.813601 49.316139 
L 259.321381 52.133345 
L 259.575271 51.795277 
L 260.083052 49.992252 
L 260.336942 50.104958 
L 260.590832 51.457208 
L 260.844723 51.119163 
L 261.098613 48.414615 
L 261.352503 51.457208 
L 261.606393 52.471414 
L 261.860284 51.006458 
L 262.114174 50.443026 
L 262.368064 50.217639 
L 262.621954 50.668389 
L 262.875845 49.992252 
L 263.129735 50.104958 
L 263.383625 51.682595 
L 263.637515 49.541502 
L 263.891406 49.654208 
L 264.145296 50.781095 
L 264.399186 52.809482 
L 264.653076 48.527297 
L 265.160857 51.231845 
L 265.414747 49.316139 
L 265.922528 51.006458 
L 266.430308 51.006458 
L 266.684198 49.316139 
L 266.938089 50.893776 
L 267.191979 49.090752 
L 267.699759 50.555708 
L 267.95365 50.330321 
L 268.20754 50.555708 
L 268.46143 50.104958 
L 268.71532 50.555708 
L 268.969211 50.668389 
L 269.223101 49.541502 
L 269.476991 49.879571 
L 269.730881 49.766889 
L 269.984772 50.330321 
L 270.492552 49.090752 
L 271.000333 52.24605 
L 271.254223 49.428821 
L 271.508113 49.428821 
L 271.762003 50.555708 
L 272.015894 50.555708 
L 272.523674 48.527297 
L 272.777564 49.541502 
L 273.031455 49.879571 
L 273.285345 50.555708 
L 273.539235 50.893776 
L 273.793126 50.217639 
L 274.047016 48.189252 
L 274.300906 50.668389 
L 274.808687 51.569913 
L 275.062577 48.752683 
L 275.316467 51.457208 
L 275.570357 48.640002 
L 275.824248 52.809482 
L 276.078138 52.471414 
L 276.332028 49.203434 
L 276.585918 51.231845 
L 276.839809 51.569913 
L 277.093699 50.104958 
L 277.347589 50.443026 
L 277.601479 51.569913 
L 277.85537 49.090752 
L 278.10926 51.344526 
L 278.61704 48.97807 
L 278.870931 52.133345 
L 279.124821 51.569913 
L 279.378711 51.682595 
L 279.632601 50.104958 
L 279.886492 52.020663 
L 280.140382 49.766889 
L 280.394272 50.668389 
L 280.648162 48.97807 
L 280.902053 50.443026 
L 281.155943 50.217639 
L 281.409833 50.330321 
L 281.663723 51.231845 
L 282.171504 49.766889 
L 282.425394 50.781095 
L 282.679284 50.893776 
L 282.933175 50.217639 
L 283.187065 50.104958 
L 283.440955 49.428821 
L 283.694845 49.654208 
L 283.948736 51.119163 
L 284.202626 50.217639 
L 284.710406 52.696801 
L 284.964297 50.893776 
L 285.218187 50.781095 
L 285.472077 49.992252 
L 285.725967 51.569913 
L 285.979858 51.457208 
L 286.233748 50.555708 
L 286.487638 51.344526 
L 286.741528 49.879571 
L 286.995419 50.555708 
L 287.249309 49.654208 
L 287.503199 50.217639 
L 287.757089 48.752683 
L 288.01098 50.104958 
L 288.26487 50.555708 
L 288.51876 50.668389 
L 288.77265 50.330321 
L 289.026541 49.316139 
L 289.280431 51.795277 
L 289.534321 50.104958 
L 289.788212 50.104958 
L 290.042102 47.851183 
L 290.295992 51.119163 
L 290.549882 49.090752 
L 290.803773 50.555708 
L 291.311553 50.781095 
L 291.565443 52.020663 
L 291.819334 50.330321 
L 292.073224 51.006458 
L 292.327114 49.992252 
L 292.581004 52.696801 
L 292.834895 51.682595 
L 293.088785 49.766889 
L 293.342675 49.879571 
L 293.850456 51.344526 
L 294.104346 51.457208 
L 294.358236 49.654208 
L 294.612126 50.104958 
L 295.119907 49.090752 
L 295.373797 50.893776 
L 295.627687 48.865365 
L 295.881578 49.992252 
L 296.135468 52.020663 
L 296.389358 51.344526 
L 296.643248 48.414615 
L 296.897139 51.119163 
L 297.404919 50.443026 
L 297.658809 52.24605 
L 297.9127 51.119163 
L 298.16659 52.020663 
L 298.42048 46.498909 
L 298.67437 52.133345 
L 299.182151 50.893776 
L 299.436041 51.006458 
L 299.689931 48.640002 
L 299.943822 51.119163 
L 300.197712 51.006458 
L 300.451602 50.104958 
L 300.959383 51.006458 
L 301.213273 49.992252 
L 301.467163 51.795277 
L 301.721053 51.344526 
L 301.974944 49.203434 
L 302.482724 50.555708 
L 302.736614 48.527297 
L 303.244395 49.879571 
L 303.498285 51.457208 
L 303.752175 50.781095 
L 304.006066 51.682595 
L 304.259956 49.992252 
L 304.513846 50.330321 
L 304.767736 49.879571 
L 305.021627 51.006458 
L 305.275517 49.879571 
L 305.529407 49.428821 
L 305.783298 50.893776 
L 306.037188 49.090752 
L 306.798859 51.119163 
L 307.052749 49.879571 
L 307.306639 50.443026 
L 307.560529 49.879571 
L 307.81442 51.006458 
L 308.06831 50.555708 
L 308.3222 49.203434 
L 308.57609 50.555708 
L 308.829981 49.766889 
L 309.083871 52.24605 
L 309.337761 52.584119 
L 309.591651 51.569913 
L 309.845542 49.203434 
L 310.099432 51.006458 
L 310.099432 51.006458 
" clip-path="url(#pde19237023)" style="fill: none; stroke: #0000ff; stroke-width: 0.6; stroke-linecap: square"/>
   </g>
   <g id="line2d_24">
    <path d="M 56.463068 222.670345 
L 56.716958 230.557091 
L 56.970849 210.051557 
L 57.224739 230.031303 
L 57.478629 230.031303 
L 57.732519 227.1395 
L 57.98641 227.4024 
L 58.2403 223.196145 
L 58.49419 199.010121 
L 58.74808 226.876624 
L 59.001971 196.381217 
L 59.255861 226.613724 
L 59.509751 192.437839 
L 59.763641 185.339781 
L 60.017532 198.484345 
L 60.525312 153.004147 
L 60.779202 171.143641 
L 61.033093 219.778542 
L 61.286983 114.09623 
L 61.540873 137.756455 
L 61.794764 124.086091 
L 62.048654 164.834259 
L 62.302544 130.395497 
L 62.810325 141.96271 
L 63.064215 115.410682 
L 63.318105 109.889976 
L 63.571995 135.390428 
L 63.825886 148.534992 
L 64.079776 113.307555 
L 64.333666 110.941527 
L 64.587556 139.070907 
L 64.841447 137.230679 
L 65.095337 113.833331 
L 65.349227 209.788681 
L 65.857008 113.044655 
L 66.110898 118.302485 
L 66.364788 120.142736 
L 66.618678 147.746316 
L 66.872569 107.523948 
L 67.126459 138.545131 
L 67.380349 119.354061 
L 67.634239 136.179104 
L 67.88813 133.5502 
L 68.14202 112.781779 
L 68.39591 196.644117 
L 68.6498 121.720088 
L 68.903691 128.818146 
L 69.157581 100.951666 
L 69.411471 105.683697 
L 69.665361 126.977918 
L 69.919252 112.518879 
L 70.427032 100.951666 
L 70.680922 104.895045 
L 70.934813 105.420821 
L 71.188703 115.147806 
L 71.442593 111.467327 
L 71.696483 124.874767 
L 71.950374 98.585639 
L 72.204264 149.586568 
L 72.458154 107.261049 
L 72.712044 115.410682 
L 72.965935 103.054794 
L 73.219825 105.683697 
L 73.473715 103.58057 
L 73.727605 113.570454 
L 73.981496 102.529018 
L 74.235386 108.312624 
L 74.489276 127.76657 
L 74.997057 102.529018 
L 75.250947 105.683697 
L 75.504837 114.884906 
L 75.758727 119.879837 
L 76.012618 132.498625 
L 76.266508 114.09623 
L 76.520398 135.653328 
L 76.774288 131.709949 
L 77.028179 110.678651 
L 77.282069 103.054794 
L 77.535959 100.42589 
L 77.78985 99.111415 
L 78.04374 122.77164 
L 78.29763 102.003242 
L 78.55152 97.271187 
L 78.805411 142.22561 
L 79.059301 100.162991 
L 79.313191 100.688767 
L 79.567081 100.951666 
L 80.074862 103.58057 
L 80.328752 98.322763 
L 80.582642 103.054794 
L 80.836533 103.843469 
L 81.090423 101.740342 
L 81.344313 127.503694 
L 81.598203 100.688767 
L 81.852094 100.162991 
L 82.105984 104.632145 
L 82.359874 116.199358 
L 83.121545 100.162991 
L 83.375435 104.369245 
L 83.629325 99.111415 
L 83.883216 100.951666 
L 84.137106 97.008288 
L 84.390996 100.951666 
L 84.644886 100.688767 
L 84.898777 97.008288 
L 85.152667 96.219612 
L 85.406557 103.054794 
L 85.660447 121.720088 
L 85.914338 99.900091 
L 86.168228 101.740342 
L 86.422118 107.523948 
L 86.676008 95.693836 
L 86.929899 114.622006 
L 87.183789 187.180032 
L 87.437679 157.736201 
L 87.691569 98.585639 
L 87.94546 97.271187 
L 88.19935 121.720088 
L 88.45324 95.693836 
L 88.70713 97.534087 
L 88.961021 95.430936 
L 89.214911 118.302485 
L 89.468801 98.585639 
L 89.722691 112.781779 
L 89.976582 119.091161 
L 90.230472 94.90516 
L 90.484362 96.482512 
L 90.738252 95.16806 
L 90.992143 110.678651 
L 91.246033 95.16806 
L 91.499923 98.322763 
L 91.753813 103.58057 
L 92.007704 94.116485 
L 92.261594 95.16806 
L 92.515484 94.116485 
L 92.769374 93.853608 
L 93.023265 97.008288 
L 93.277155 135.916204 
L 93.531045 96.482512 
L 93.784936 92.802033 
L 94.038826 95.693836 
L 94.800497 149.060768 
L 95.054387 98.848539 
L 95.308277 110.678651 
L 95.562167 128.29237 
L 95.816058 100.162991 
L 96.069948 99.900091 
L 96.323838 89.384454 
L 96.577728 93.327809 
L 96.831619 99.111415 
L 97.085509 97.796963 
L 97.339399 104.895045 
L 97.593289 94.116485 
L 97.84718 103.054794 
L 98.10107 90.436006 
L 98.35496 93.327809 
L 98.60885 123.560316 
L 98.862741 86.755527 
L 99.116631 89.91023 
L 99.370521 101.740342 
L 99.624411 87.544202 
L 99.878302 93.327809 
L 100.386082 87.544202 
L 100.639972 131.972849 
L 100.893863 89.384454 
L 101.147753 144.065837 
L 101.401643 90.17313 
L 101.655533 92.013357 
L 101.909424 87.281326 
L 102.163314 100.688767 
L 102.417204 88.332878 
L 102.671094 84.126623 
L 102.924985 125.137667 
L 103.178875 86.755527 
L 103.432765 104.106369 
L 103.686655 88.069978 
L 103.940546 89.91023 
L 104.194436 94.379384 
L 104.448326 80.97192 
L 104.702216 84.652399 
L 104.956107 91.487581 
L 105.463887 85.966851 
L 105.717777 86.229751 
L 106.225558 81.760596 
L 106.479448 84.126623 
L 106.733338 134.601752 
L 106.987229 101.214566 
L 107.241119 85.966851 
L 107.495009 84.126623 
L 107.748899 85.178175 
L 108.00279 83.075048 
L 108.25668 92.802033 
L 108.76446 82.023496 
L 109.018351 87.018427 
L 109.272241 82.812172 
L 109.526131 89.64733 
L 109.780021 89.91023 
L 110.033912 84.652399 
L 110.541692 94.90516 
L 110.795583 92.802033 
L 111.049473 85.441075 
L 111.557253 88.858654 
L 111.811144 83.337948 
L 112.065034 83.863724 
L 112.318924 84.126623 
L 112.572814 90.17313 
L 112.826705 100.162991 
L 113.080595 90.698905 
L 113.334485 90.961805 
L 113.588375 80.183245 
L 113.842266 90.961805 
L 114.096156 85.178175 
L 114.350046 88.069978 
L 114.857827 83.337948 
L 115.111717 91.224681 
L 115.365607 81.760596 
L 115.619497 85.966851 
L 115.873388 95.956736 
L 116.127278 83.075048 
L 116.381168 85.178175 
L 116.635058 89.121554 
L 116.888949 84.915299 
L 117.142839 84.652399 
L 117.650619 89.121554 
L 117.90451 86.755527 
L 118.1584 88.595778 
L 118.41229 83.337948 
L 118.66618 82.286372 
L 118.920071 89.91023 
L 119.173961 84.3895 
L 119.427851 82.286372 
L 119.681741 85.703975 
L 119.935632 87.544202 
L 120.189522 85.703975 
L 120.697302 89.384454 
L 120.951193 80.709021 
L 121.205083 87.544202 
L 121.458973 83.337948 
L 121.712863 89.64733 
L 121.966754 83.863724 
L 122.220644 85.178175 
L 122.474534 93.853608 
L 122.728424 81.760596 
L 122.982315 85.703975 
L 123.236205 81.760596 
L 123.490095 96.482512 
L 123.743985 92.013357 
L 123.997876 92.013357 
L 124.251766 83.075048 
L 124.505656 92.539133 
L 124.759546 83.075048 
L 125.013437 89.64733 
L 125.267327 89.64733 
L 125.521217 90.436006 
L 125.775107 83.600848 
L 126.028998 86.229751 
L 126.282888 82.286372 
L 126.536778 96.219612 
L 126.790669 79.131693 
L 127.044559 84.3895 
L 127.298449 84.915299 
L 127.552339 82.812172 
L 127.80623 83.863724 
L 128.06012 92.276257 
L 128.31401 89.91023 
L 128.5679 103.317694 
L 128.821791 88.332878 
L 129.075681 86.229751 
L 129.329571 86.229751 
L 129.583461 82.549272 
L 129.837352 84.915299 
L 130.091242 84.915299 
L 130.345132 92.276257 
L 130.599022 85.441075 
L 130.852913 84.3895 
L 131.106803 84.126623 
L 131.360693 82.549272 
L 131.868474 87.018427 
L 132.122364 81.760596 
L 132.630144 93.590709 
L 132.884035 83.600848 
L 133.137925 90.436006 
L 133.645705 82.812172 
L 133.899596 83.337948 
L 134.153486 80.97192 
L 134.407376 82.286372 
L 134.661266 82.549272 
L 134.915157 79.920369 
L 135.169047 82.549272 
L 135.422937 81.760596 
L 135.676827 82.812172 
L 135.930718 81.23482 
L 136.184608 82.023496 
L 136.438498 81.497696 
L 136.946279 84.915299 
L 137.200169 82.812172 
L 137.454059 90.961805 
L 137.707949 83.863724 
L 137.96184 83.863724 
L 138.21573 98.848539 
L 138.46962 81.497696 
L 138.72351 80.97192 
L 138.977401 80.183245 
L 139.231291 86.492651 
L 139.485181 80.97192 
L 139.739071 82.286372 
L 139.992962 87.807102 
L 140.500742 79.920369 
L 140.754632 80.183245 
L 141.008523 81.497696 
L 141.262413 79.657469 
L 141.516303 78.868793 
L 142.024084 93.590709 
L 142.531864 81.23482 
L 142.785755 84.126623 
L 143.039645 82.023496 
L 143.293535 90.17313 
L 143.547425 80.97192 
L 143.801316 79.657469 
L 144.055206 79.394569 
L 144.309096 84.3895 
L 144.562986 84.3895 
L 144.816877 79.657469 
L 145.070767 87.281326 
L 145.324657 83.863724 
L 145.578547 98.059863 
L 145.832438 79.131693 
L 146.340218 83.863724 
L 146.847999 80.183245 
L 147.101889 80.709021 
L 147.355779 79.920369 
L 147.609669 79.657469 
L 148.11745 81.760596 
L 148.37134 81.23482 
L 148.62523 78.080117 
L 149.133011 81.760596 
L 149.386901 79.657469 
L 149.640791 80.709021 
L 149.894682 79.394569 
L 150.148572 80.97192 
L 150.656352 79.131693 
L 150.910243 79.920369 
L 151.164133 83.075048 
L 151.418023 80.709021 
L 151.671913 80.97192 
L 151.925804 78.868793 
L 152.179694 82.549272 
L 152.433584 82.549272 
L 152.687474 80.183245 
L 153.449145 83.600848 
L 153.703035 82.549272 
L 153.956926 83.075048 
L 154.210816 84.652399 
L 154.464706 83.863724 
L 154.718596 78.868793 
L 154.972487 78.080117 
L 155.226377 82.023496 
L 155.480267 81.760596 
L 155.734157 78.080117 
L 155.988048 80.183245 
L 156.241938 79.920369 
L 156.495828 82.023496 
L 156.749718 81.23482 
L 157.003609 82.549272 
L 157.257499 82.286372 
L 157.511389 83.075048 
L 157.765279 80.709021 
L 158.01917 88.332878 
L 158.27306 84.3895 
L 158.52695 86.229751 
L 158.78084 79.394569 
L 159.034731 82.549272 
L 159.288621 81.760596 
L 159.542511 78.868793 
L 159.796402 83.863724 
L 160.050292 79.920369 
L 160.304182 80.709021 
L 160.558072 78.605893 
L 160.811963 81.23482 
L 161.065853 78.605893 
L 161.319743 81.497696 
L 161.573633 80.97192 
L 161.827524 78.080117 
L 162.335304 83.863724 
L 162.589194 79.394569 
L 162.843085 80.709021 
L 163.096975 78.868793 
L 163.350865 84.915299 
L 163.604755 78.868793 
L 163.858646 83.863724 
L 164.112536 79.657469 
L 164.366426 79.394569 
L 164.620316 78.868793 
L 164.874207 80.97192 
L 165.128097 79.394569 
L 165.381987 79.657469 
L 165.635877 84.915299 
L 165.889768 77.291442 
L 166.397548 81.497696 
L 166.651438 80.709021 
L 166.905329 85.966851 
L 167.413109 78.605893 
L 167.666999 78.343017 
L 167.92089 83.337948 
L 168.17478 78.343017 
L 168.42867 78.080117 
L 168.68256 85.966851 
L 168.936451 79.920369 
L 169.190341 80.97192 
L 169.444231 80.183245 
L 169.698121 87.018427 
L 169.952012 77.554341 
L 170.459792 79.920369 
L 170.713682 78.343017 
L 170.967573 78.605893 
L 171.221463 79.920369 
L 171.475353 78.605893 
L 171.729243 83.863724 
L 171.983134 79.920369 
L 172.237024 77.817218 
L 172.490914 78.080117 
L 172.744804 78.605893 
L 172.998695 77.291442 
L 173.252585 79.394569 
L 173.506475 77.817218 
L 174.014256 79.394569 
L 174.268146 77.817218 
L 174.522036 82.812172 
L 174.775926 78.868793 
L 175.029817 79.920369 
L 175.283707 78.343017 
L 175.537597 82.549272 
L 175.791488 78.868793 
L 176.045378 81.760596 
L 176.553158 81.23482 
L 176.807049 77.817218 
L 177.060939 82.023496 
L 177.314829 78.605893 
L 177.568719 79.131693 
L 178.0765 79.657469 
L 178.33039 79.394569 
L 178.838171 78.080117 
L 179.092061 80.183245 
L 179.345951 79.657469 
L 179.599841 78.343017 
L 179.853732 80.709021 
L 180.107622 79.131693 
L 180.361512 78.343017 
L 180.615402 78.080117 
L 180.869293 79.131693 
L 181.123183 78.080117 
L 181.377073 84.3895 
L 181.630963 79.394569 
L 181.884854 78.868793 
L 182.138744 83.337948 
L 182.392634 79.657469 
L 182.646524 79.131693 
L 182.900415 79.131693 
L 183.154305 79.394569 
L 183.408195 78.080117 
L 183.662085 78.080117 
L 183.915976 77.028566 
L 184.169866 79.920369 
L 184.423756 81.23482 
L 184.677646 78.343017 
L 184.931537 78.343017 
L 185.185427 81.497696 
L 185.439317 78.605893 
L 185.947098 80.446145 
L 186.200988 77.817218 
L 186.454878 79.131693 
L 186.708768 78.080117 
L 187.216549 78.080117 
L 187.470439 78.868793 
L 187.97822 78.868793 
L 188.23211 79.131693 
L 188.486 79.131693 
L 188.73989 78.343017 
L 189.247671 79.920369 
L 189.501561 79.394569 
L 189.755451 78.605893 
L 190.009342 79.394569 
L 190.263232 79.394569 
L 190.517122 78.605893 
L 190.771012 79.394569 
L 191.024903 79.131693 
L 191.278793 79.131693 
L 191.532683 78.605893 
L 191.786574 79.394569 
L 192.040464 77.817218 
L 192.294354 80.709021 
L 192.802135 77.028566 
L 193.056025 77.291442 
L 193.309915 78.605893 
L 193.563805 78.343017 
L 193.817696 77.817218 
L 194.071586 77.817218 
L 194.325476 79.920369 
L 194.579366 77.291442 
L 194.833257 80.97192 
L 195.087147 82.812172 
L 195.341037 78.868793 
L 195.594927 78.343017 
L 196.102708 78.343017 
L 196.356598 80.446145 
L 196.610488 78.868793 
L 196.864379 78.080117 
L 197.118269 79.657469 
L 197.372159 78.080117 
L 197.626049 78.343017 
L 198.13383 77.817218 
L 198.64161 78.868793 
L 198.895501 78.868793 
L 199.149391 78.343017 
L 199.403281 79.394569 
L 199.657171 77.554341 
L 200.164952 78.868793 
L 200.418842 78.080117 
L 200.672732 79.131693 
L 200.926623 77.554341 
L 201.434403 77.554341 
L 201.688293 78.343017 
L 201.942184 78.080117 
L 202.196074 82.812172 
L 202.449964 76.765666 
L 202.703854 78.868793 
L 202.957745 78.605893 
L 203.211635 77.817218 
L 203.465525 79.394569 
L 203.719415 78.080117 
L 203.973306 79.920369 
L 204.481086 77.554341 
L 204.734976 79.657469 
L 204.988867 82.812172 
L 205.242757 77.554341 
L 205.496647 79.394569 
L 205.750537 78.605893 
L 206.004428 78.868793 
L 206.258318 76.765666 
L 206.512208 78.605893 
L 206.766098 79.131693 
L 207.019989 78.343017 
L 207.273879 79.131693 
L 207.527769 78.343017 
L 207.78166 78.605893 
L 208.03555 78.343017 
L 208.28944 79.394569 
L 208.54333 77.817218 
L 209.051111 77.817218 
L 209.305001 77.291442 
L 209.558891 78.868793 
L 209.812782 77.291442 
L 210.066672 77.554341 
L 210.320562 77.291442 
L 210.574452 79.394569 
L 210.828343 78.080117 
L 211.082233 78.080117 
L 211.336123 77.291442 
L 211.843904 80.446145 
L 212.097794 77.554341 
L 212.351684 78.605893 
L 212.605574 78.868793 
L 212.859465 76.765666 
L 213.113355 76.765666 
L 213.367245 78.605893 
L 213.621135 77.817218 
L 213.875026 78.605893 
L 214.128916 77.291442 
L 214.382806 79.131693 
L 214.636696 77.554341 
L 214.890587 77.817218 
L 215.144477 78.343017 
L 215.398367 77.554341 
L 215.652257 77.817218 
L 215.906148 77.028566 
L 216.413928 78.080117 
L 216.667818 77.291442 
L 216.921709 77.817218 
L 217.175599 77.554341 
L 217.429489 78.605893 
L 217.683379 76.765666 
L 217.93727 77.817218 
L 218.19116 77.817218 
L 218.44505 77.028566 
L 218.69894 77.817218 
L 218.952831 77.817218 
L 219.206721 78.080117 
L 219.460611 77.291442 
L 219.714501 77.817218 
L 220.222282 76.765666 
L 220.476172 78.080117 
L 220.730062 77.554341 
L 220.983953 78.343017 
L 221.237843 77.028566 
L 221.491733 77.817218 
L 221.745623 76.765666 
L 221.999514 76.765666 
L 222.253404 79.657469 
L 222.507294 76.765666 
L 222.761184 77.028566 
L 223.015075 78.080117 
L 223.268965 77.028566 
L 223.522855 77.028566 
L 223.776745 77.817218 
L 224.030636 77.028566 
L 224.538416 77.028566 
L 224.792307 78.343017 
L 225.046197 77.028566 
L 225.300087 76.765666 
L 225.553977 77.817218 
L 225.807868 77.291442 
L 226.315648 77.291442 
L 226.569538 77.028566 
L 226.823429 77.554341 
L 227.077319 76.765666 
L 227.331209 77.028566 
L 227.585099 77.028566 
L 227.83899 76.765666 
L 228.09288 77.554341 
L 228.60066 77.028566 
L 228.854551 77.028566 
L 229.108441 77.291442 
L 229.362331 77.028566 
L 229.616221 78.605893 
L 229.870112 77.291442 
L 230.124002 77.291442 
L 230.377892 77.554341 
L 230.631782 77.291442 
L 230.885673 78.080117 
L 231.139563 77.291442 
L 231.393453 77.028566 
L 231.647343 77.291442 
L 231.901234 77.291442 
L 232.155124 77.554341 
L 232.409014 77.291442 
L 232.662904 78.868793 
L 232.916795 77.554341 
L 233.170685 77.291442 
L 233.424575 77.554341 
L 233.932356 77.554341 
L 234.186246 77.291442 
L 234.694026 77.291442 
L 234.947917 76.765666 
L 235.201807 78.080117 
L 235.455697 78.343017 
L 235.709587 77.817218 
L 236.217368 77.291442 
L 236.471258 77.554341 
L 236.979039 77.028566 
L 237.486819 77.554341 
L 237.740709 77.554341 
L 237.9946 77.291442 
L 238.75627 77.291442 
L 239.010161 77.554341 
L 239.264051 77.554341 
L 239.517941 77.291442 
L 239.771831 77.291442 
L 240.025722 77.554341 
L 240.279612 77.291442 
L 240.787393 77.817218 
L 241.041283 77.291442 
L 241.295173 77.028566 
L 242.310734 77.028566 
L 242.564624 78.080117 
L 242.818515 77.817218 
L 243.072405 77.028566 
L 243.326295 77.291442 
L 243.580185 77.028566 
L 243.834076 77.291442 
L 244.595746 77.291442 
L 244.849637 77.554341 
L 245.611307 77.554341 
L 245.865198 77.291442 
L 246.119088 77.817218 
L 246.372978 77.028566 
L 246.626868 77.291442 
L 246.880759 77.028566 
L 247.134649 77.291442 
L 247.388539 77.028566 
L 247.642429 77.817218 
L 247.89632 77.291442 
L 248.4041 77.291442 
L 248.65799 77.028566 
L 248.911881 77.291442 
L 249.165771 77.028566 
L 249.927442 77.028566 
L 250.181332 77.291442 
L 250.435222 77.028566 
L 250.689112 77.028566 
L 250.943003 77.291442 
L 252.974125 77.291442 
L 253.228015 77.554341 
L 253.481905 77.291442 
L 254.751356 77.291442 
L 255.005247 77.028566 
L 255.259137 77.291442 
L 255.513027 77.028566 
L 256.020808 77.028566 
L 256.528588 77.554341 
L 257.036369 77.028566 
L 257.79804 77.028566 
L 258.05193 76.765666 
L 258.55971 76.765666 
L 258.813601 77.028566 
L 259.067491 78.080117 
L 259.321381 77.291442 
L 259.575271 77.554341 
L 260.083052 77.554341 
L 260.336942 78.080117 
L 261.098613 77.291442 
L 261.606393 77.817218 
L 261.860284 77.554341 
L 262.114174 77.554341 
L 262.621954 77.028566 
L 262.875845 77.554341 
L 263.129735 77.291442 
L 263.383625 77.554341 
L 263.637515 77.028566 
L 264.399186 77.028566 
L 264.653076 77.291442 
L 267.95365 77.291442 
L 268.20754 77.028566 
L 268.46143 77.291442 
L 271.508113 77.291442 
L 271.762003 77.554341 
L 272.269784 77.554341 
L 272.523674 77.291442 
L 272.777564 77.554341 
L 273.285345 77.554341 
L 273.539235 77.028566 
L 273.793126 77.028566 
L 274.300906 77.554341 
L 274.554796 77.291442 
L 278.61704 77.291442 
L 278.870931 77.028566 
L 280.902053 77.028566 
L 281.155943 77.291442 
L 281.409833 77.028566 
L 281.663723 77.291442 
L 282.679284 77.291442 
L 282.933175 77.028566 
L 283.187065 77.028566 
L 283.440955 77.291442 
L 283.694845 77.291442 
L 283.948736 77.028566 
L 284.202626 77.291442 
L 284.456516 77.028566 
L 285.218187 77.028566 
L 285.472077 77.291442 
L 286.233748 77.291442 
L 286.487638 77.028566 
L 286.741528 77.028566 
L 286.995419 77.291442 
L 293.088785 77.291442 
L 293.342675 77.028566 
L 293.596565 77.028566 
L 293.850456 77.291442 
L 294.104346 77.291442 
L 294.358236 77.028566 
L 295.373797 77.028566 
L 295.627687 77.291442 
L 298.928261 77.291442 
L 299.182151 77.028566 
L 299.436041 77.028566 
L 299.689931 77.291442 
L 299.943822 77.028566 
L 300.197712 77.291442 
L 300.705492 77.291442 
L 300.959383 77.028566 
L 301.213273 77.028566 
L 301.467163 77.291442 
L 310.099432 77.291442 
L 310.099432 77.291442 
" clip-path="url(#pde19237023)" style="fill: none; stroke: #ff0000; stroke-width: 0.6; stroke-linecap: square"/>
   </g>
   <g id="patch_3">
    <path d="M 43.78125 239.76 
L 43.78125 37.296 
" style="fill: none; stroke: #000000; stroke-width: 0.8; stroke-linejoin: miter; stroke-linecap: square"/>
   </g>
   <g id="patch_4">
    <path d="M 322.78125 239.76 
L 322.78125 37.296 
" style="fill: none; stroke: #000000; stroke-width: 0.8; stroke-linejoin: miter; stroke-linecap: square"/>
   </g>
   <g id="patch_5">
    <path d="M 43.78125 239.76 
L 322.78125 239.76 
" style="fill: none; stroke: #000000; stroke-width: 0.8; stroke-linejoin: miter; stroke-linecap: square"/>
   </g>
   <g id="patch_6">
    <path d="M 43.78125 37.296 
L 322.78125 37.296 
" style="fill: none; stroke: #000000; stroke-width: 0.8; stroke-linejoin: miter; stroke-linecap: square"/>
   </g>
   <g id="text_14">
    <!-- Constrained Model -->
    <g transform="translate(141.147891 31.296) scale(0.09 -0.09)">
     <defs>
      <path id="DejaVuSans-43" d="M 4122 4306 
L 4122 3641 
Q 3803 3938 3442 4084 
Q 3081 4231 2675 4231 
Q 1875 4231 1450 3742 
Q 1025 3253 1025 2328 
Q 1025 1406 1450 917 
Q 1875 428 2675 428 
Q 3081 428 3442 575 
Q 3803 722 4122 1019 
L 4122 359 
Q 3791 134 3420 21 
Q 3050 -91 2638 -91 
Q 1578 -91 968 557 
Q 359 1206 359 2328 
Q 359 3453 968 4101 
Q 1578 4750 2638 4750 
Q 3056 4750 3426 4639 
Q 3797 4528 4122 4306 
z
" transform="scale(0.015625)"/>
      <path id="DejaVuSans-6e" d="M 3513 2113 
L 3513 0 
L 2938 0 
L 2938 2094 
Q 2938 2591 2744 2837 
Q 2550 3084 2163 3084 
Q 1697 3084 1428 2787 
Q 1159 2491 1159 1978 
L 1159 0 
L 581 0 
L 581 3500 
L 1159 3500 
L 1159 2956 
Q 1366 3272 1645 3428 
Q 1925 3584 2291 3584 
Q 2894 3584 3203 3211 
Q 3513 2838 3513 2113 
z
" transform="scale(0.015625)"/>
      <path id="DejaVuSans-74" d="M 1172 4494 
L 1172 3500 
L 2356 3500 
L 2356 3053 
L 1172 3053 
L 1172 1153 
Q 1172 725 1289 603 
Q 1406 481 1766 481 
L 2356 481 
L 2356 0 
L 1766 0 
Q 1100 0 847 248 
Q 594 497 594 1153 
L 594 3053 
L 172 3053 
L 172 3500 
L 594 3500 
L 594 4494 
L 1172 4494 
z
" transform="scale(0.015625)"/>
      <path id="DejaVuSans-69" d="M 603 3500 
L 1178 3500 
L 1178 0 
L 603 0 
L 603 3500 
z
M 603 4863 
L 1178 4863 
L 1178 4134 
L 603 4134 
L 603 4863 
z
" transform="scale(0.015625)"/>
      <path id="DejaVuSans-65" d="M 3597 1894 
L 3597 1613 
L 953 1613 
Q 991 1019 1311 708 
Q 1631 397 2203 397 
Q 2534 397 2845 478 
Q 3156 559 3463 722 
L 3463 178 
Q 3153 47 2828 -22 
Q 2503 -91 2169 -91 
Q 1331 -91 842 396 
Q 353 884 353 1716 
Q 353 2575 817 3079 
Q 1281 3584 2069 3584 
Q 2775 3584 3186 3129 
Q 3597 2675 3597 1894 
z
M 3022 2063 
Q 3016 2534 2758 2815 
Q 2500 3097 2075 3097 
Q 1594 3097 1305 2825 
Q 1016 2553 972 2059 
L 3022 2063 
z
" transform="scale(0.015625)"/>
      <path id="DejaVuSans-64" d="M 2906 2969 
L 2906 4863 
L 3481 4863 
L 3481 0 
L 2906 0 
L 2906 525 
Q 2725 213 2448 61 
Q 2172 -91 1784 -91 
Q 1150 -91 751 415 
Q 353 922 353 1747 
Q 353 2572 751 3078 
Q 1150 3584 1784 3584 
Q 2172 3584 2448 3432 
Q 2725 3281 2906 2969 
z
M 947 1747 
Q 947 1113 1208 752 
Q 1469 391 1925 391 
Q 2381 391 2643 752 
Q 2906 1113 2906 1747 
Q 2906 2381 2643 2742 
Q 2381 3103 1925 3103 
Q 1469 3103 1208 2742 
Q 947 2381 947 1747 
z
" transform="scale(0.015625)"/>
      <path id="DejaVuSans-20" transform="scale(0.015625)"/>
      <path id="DejaVuSans-4d" d="M 628 4666 
L 1569 4666 
L 2759 1491 
L 3956 4666 
L 4897 4666 
L 4897 0 
L 4281 0 
L 4281 4097 
L 3078 897 
L 2444 897 
L 1241 4097 
L 1241 0 
L 628 0 
L 628 4666 
z
" transform="scale(0.015625)"/>
      <path id="DejaVuSans-6c" d="M 603 4863 
L 1178 4863 
L 1178 0 
L 603 0 
L 603 4863 
z
" transform="scale(0.015625)"/>
     </defs>
     <use xlink:href="#DejaVuSans-43"/>
     <use xlink:href="#DejaVuSans-6f" x="69.824219"/>
     <use xlink:href="#DejaVuSans-6e" x="131.005859"/>
     <use xlink:href="#DejaVuSans-73" x="194.384766"/>
     <use xlink:href="#DejaVuSans-74" x="246.484375"/>
     <use xlink:href="#DejaVuSans-72" x="285.693359"/>
     <use xlink:href="#DejaVuSans-61" x="326.806641"/>
     <use xlink:href="#DejaVuSans-69" x="388.085938"/>
     <use xlink:href="#DejaVuSans-6e" x="415.869141"/>
     <use xlink:href="#DejaVuSans-65" x="479.248047"/>
     <use xlink:href="#DejaVuSans-64" x="540.771484"/>
     <use xlink:href="#DejaVuSans-20" x="604.248047"/>
     <use xlink:href="#DejaVuSans-4d" x="636.035156"/>
     <use xlink:href="#DejaVuSans-6f" x="722.314453"/>
     <use xlink:href="#DejaVuSans-64" x="783.496094"/>
     <use xlink:href="#DejaVuSans-65" x="846.972656"/>
     <use xlink:href="#DejaVuSans-6c" x="908.496094"/>
    </g>
   </g>
   <g id="legend_1">
    <g id="patch_7">
     <path d="M 185.565625 234.76 
L 315.78125 234.76 
Q 317.78125 234.76 317.78125 232.76 
L 317.78125 204.40375 
Q 317.78125 202.40375 315.78125 202.40375 
L 185.565625 202.40375 
Q 183.565625 202.40375 183.565625 204.40375 
L 183.565625 232.76 
Q 183.565625 234.76 185.565625 234.76 
z
" style="fill: #ffffff; opacity: 0.8; stroke: #cccccc; stroke-linejoin: miter"/>
    </g>
    <g id="line2d_25">
     <path d="M 187.565625 210.502187 
L 197.565625 210.502187 
L 207.565625 210.502187 
" style="fill: none; stroke: #0000ff; stroke-width: 0.6; stroke-linecap: square"/>
    </g>
    <g id="text_15">
     <!-- Training Accuracy -->
     <g transform="translate(215.565625 214.002187) scale(0.1 -0.1)">
      <defs>
       <path id="DejaVuSans-54" d="M -19 4666 
L 3928 4666 
L 3928 4134 
L 2272 4134 
L 2272 0 
L 1638 0 
L 1638 4134 
L -19 4134 
L -19 4666 
z
" transform="scale(0.015625)"/>
       <path id="DejaVuSans-67" d="M 2906 1791 
Q 2906 2416 2648 2759 
Q 2391 3103 1925 3103 
Q 1463 3103 1205 2759 
Q 947 2416 947 1791 
Q 947 1169 1205 825 
Q 1463 481 1925 481 
Q 2391 481 2648 825 
Q 2906 1169 2906 1791 
z
M 3481 434 
Q 3481 -459 3084 -895 
Q 2688 -1331 1869 -1331 
Q 1566 -1331 1297 -1286 
Q 1028 -1241 775 -1147 
L 775 -588 
Q 1028 -725 1275 -790 
Q 1522 -856 1778 -856 
Q 2344 -856 2625 -561 
Q 2906 -266 2906 331 
L 2906 616 
Q 2728 306 2450 153 
Q 2172 0 1784 0 
Q 1141 0 747 490 
Q 353 981 353 1791 
Q 353 2603 747 3093 
Q 1141 3584 1784 3584 
Q 2172 3584 2450 3431 
Q 2728 3278 2906 2969 
L 2906 3500 
L 3481 3500 
L 3481 434 
z
" transform="scale(0.015625)"/>
      </defs>
      <use xlink:href="#DejaVuSans-54"/>
      <use xlink:href="#DejaVuSans-72" x="46.333984"/>
      <use xlink:href="#DejaVuSans-61" x="87.447266"/>
      <use xlink:href="#DejaVuSans-69" x="148.726562"/>
      <use xlink:href="#DejaVuSans-6e" x="176.509766"/>
      <use xlink:href="#DejaVuSans-69" x="239.888672"/>
      <use xlink:href="#DejaVuSans-6e" x="267.671875"/>
      <use xlink:href="#DejaVuSans-67" x="331.050781"/>
      <use xlink:href="#DejaVuSans-20" x="394.527344"/>
      <use xlink:href="#DejaVuSans-41" x="426.314453"/>
      <use xlink:href="#DejaVuSans-63" x="492.972656"/>
      <use xlink:href="#DejaVuSans-63" x="547.953125"/>
      <use xlink:href="#DejaVuSans-75" x="602.933594"/>
      <use xlink:href="#DejaVuSans-72" x="666.3125"/>
      <use xlink:href="#DejaVuSans-61" x="707.425781"/>
      <use xlink:href="#DejaVuSans-63" x="768.705078"/>
      <use xlink:href="#DejaVuSans-79" x="823.685547"/>
     </g>
    </g>
    <g id="line2d_26">
     <path d="M 187.565625 225.180312 
L 197.565625 225.180312 
L 207.565625 225.180312 
" style="fill: none; stroke: #ff0000; stroke-width: 0.6; stroke-linecap: square"/>
    </g>
    <g id="text_16">
     <!-- Validation Accuracy -->
     <g transform="translate(215.565625 228.680312) scale(0.1 -0.1)">
      <defs>
       <path id="DejaVuSans-56" d="M 1831 0 
L 50 4666 
L 709 4666 
L 2188 738 
L 3669 4666 
L 4325 4666 
L 2547 0 
L 1831 0 
z
" transform="scale(0.015625)"/>
      </defs>
      <use xlink:href="#DejaVuSans-56"/>
      <use xlink:href="#DejaVuSans-61" x="60.658203"/>
      <use xlink:href="#DejaVuSans-6c" x="121.9375"/>
      <use xlink:href="#DejaVuSans-69" x="149.720703"/>
      <use xlink:href="#DejaVuSans-64" x="177.503906"/>
      <use xlink:href="#DejaVuSans-61" x="240.980469"/>
      <use xlink:href="#DejaVuSans-74" x="302.259766"/>
      <use xlink:href="#DejaVuSans-69" x="341.46875"/>
      <use xlink:href="#DejaVuSans-6f" x="369.251953"/>
      <use xlink:href="#DejaVuSans-6e" x="430.433594"/>
      <use xlink:href="#DejaVuSans-20" x="493.8125"/>
      <use xlink:href="#DejaVuSans-41" x="525.599609"/>
      <use xlink:href="#DejaVuSans-63" x="592.257812"/>
      <use xlink:href="#DejaVuSans-63" x="647.238281"/>
      <use xlink:href="#DejaVuSans-75" x="702.21875"/>
      <use xlink:href="#DejaVuSans-72" x="765.597656"/>
      <use xlink:href="#DejaVuSans-61" x="806.710938"/>
      <use xlink:href="#DejaVuSans-63" x="867.990234"/>
      <use xlink:href="#DejaVuSans-79" x="922.970703"/>
     </g>
    </g>
   </g>
  </g>
  <g id="text_17">
   <!-- Training VS. Validation Accuracy - Dataset Size = 100.0% -->
   <g transform="translate(21.433984 15.558281) scale(0.11 -0.11)">
    <defs>
     <path id="DejaVuSans-53" d="M 3425 4513 
L 3425 3897 
Q 3066 4069 2747 4153 
Q 2428 4238 2131 4238 
Q 1616 4238 1336 4038 
Q 1056 3838 1056 3469 
Q 1056 3159 1242 3001 
Q 1428 2844 1947 2747 
L 2328 2669 
Q 3034 2534 3370 2195 
Q 3706 1856 3706 1288 
Q 3706 609 3251 259 
Q 2797 -91 1919 -91 
Q 1588 -91 1214 -16 
Q 841 59 441 206 
L 441 856 
Q 825 641 1194 531 
Q 1563 422 1919 422 
Q 2459 422 2753 634 
Q 3047 847 3047 1241 
Q 3047 1584 2836 1778 
Q 2625 1972 2144 2069 
L 1759 2144 
Q 1053 2284 737 2584 
Q 422 2884 422 3419 
Q 422 4038 858 4394 
Q 1294 4750 2059 4750 
Q 2388 4750 2728 4690 
Q 3069 4631 3425 4513 
z
" transform="scale(0.015625)"/>
     <path id="DejaVuSans-2d" d="M 313 2009 
L 1997 2009 
L 1997 1497 
L 313 1497 
L 313 2009 
z
" transform="scale(0.015625)"/>
     <path id="DejaVuSans-44" d="M 1259 4147 
L 1259 519 
L 2022 519 
Q 2988 519 3436 956 
Q 3884 1394 3884 2338 
Q 3884 3275 3436 3711 
Q 2988 4147 2022 4147 
L 1259 4147 
z
M 628 4666 
L 1925 4666 
Q 3281 4666 3915 4102 
Q 4550 3538 4550 2338 
Q 4550 1131 3912 565 
Q 3275 0 1925 0 
L 628 0 
L 628 4666 
z
" transform="scale(0.015625)"/>
     <path id="DejaVuSans-7a" d="M 353 3500 
L 3084 3500 
L 3084 2975 
L 922 459 
L 3084 459 
L 3084 0 
L 275 0 
L 275 525 
L 2438 3041 
L 353 3041 
L 353 3500 
z
" transform="scale(0.015625)"/>
     <path id="DejaVuSans-3d" d="M 678 2906 
L 4684 2906 
L 4684 2381 
L 678 2381 
L 678 2906 
z
M 678 1631 
L 4684 1631 
L 4684 1100 
L 678 1100 
L 678 1631 
z
" transform="scale(0.015625)"/>
     <path id="DejaVuSans-25" d="M 4653 2053 
Q 4381 2053 4226 1822 
Q 4072 1591 4072 1178 
Q 4072 772 4226 539 
Q 4381 306 4653 306 
Q 4919 306 5073 539 
Q 5228 772 5228 1178 
Q 5228 1588 5073 1820 
Q 4919 2053 4653 2053 
z
M 4653 2450 
Q 5147 2450 5437 2106 
Q 5728 1763 5728 1178 
Q 5728 594 5436 251 
Q 5144 -91 4653 -91 
Q 4153 -91 3862 251 
Q 3572 594 3572 1178 
Q 3572 1766 3864 2108 
Q 4156 2450 4653 2450 
z
M 1428 4353 
Q 1159 4353 1004 4120 
Q 850 3888 850 3481 
Q 850 3069 1003 2837 
Q 1156 2606 1428 2606 
Q 1700 2606 1854 2837 
Q 2009 3069 2009 3481 
Q 2009 3884 1853 4118 
Q 1697 4353 1428 4353 
z
M 4250 4750 
L 4750 4750 
L 1831 -91 
L 1331 -91 
L 4250 4750 
z
M 1428 4750 
Q 1922 4750 2215 4408 
Q 2509 4066 2509 3481 
Q 2509 2891 2217 2550 
Q 1925 2209 1428 2209 
Q 931 2209 642 2551 
Q 353 2894 353 3481 
Q 353 4063 643 4406 
Q 934 4750 1428 4750 
z
" transform="scale(0.015625)"/>
    </defs>
    <use xlink:href="#DejaVuSans-54"/>
    <use xlink:href="#DejaVuSans-72" x="46.333984"/>
    <use xlink:href="#DejaVuSans-61" x="87.447266"/>
    <use xlink:href="#DejaVuSans-69" x="148.726562"/>
    <use xlink:href="#DejaVuSans-6e" x="176.509766"/>
    <use xlink:href="#DejaVuSans-69" x="239.888672"/>
    <use xlink:href="#DejaVuSans-6e" x="267.671875"/>
    <use xlink:href="#DejaVuSans-67" x="331.050781"/>
    <use xlink:href="#DejaVuSans-20" x="394.527344"/>
    <use xlink:href="#DejaVuSans-56" x="426.314453"/>
    <use xlink:href="#DejaVuSans-53" x="494.722656"/>
    <use xlink:href="#DejaVuSans-2e" x="558.199219"/>
    <use xlink:href="#DejaVuSans-20" x="589.986328"/>
    <use xlink:href="#DejaVuSans-56" x="621.773438"/>
    <use xlink:href="#DejaVuSans-61" x="682.431641"/>
    <use xlink:href="#DejaVuSans-6c" x="743.710938"/>
    <use xlink:href="#DejaVuSans-69" x="771.494141"/>
    <use xlink:href="#DejaVuSans-64" x="799.277344"/>
    <use xlink:href="#DejaVuSans-61" x="862.753906"/>
    <use xlink:href="#DejaVuSans-74" x="924.033203"/>
    <use xlink:href="#DejaVuSans-69" x="963.242188"/>
    <use xlink:href="#DejaVuSans-6f" x="991.025391"/>
    <use xlink:href="#DejaVuSans-6e" x="1052.207031"/>
    <use xlink:href="#DejaVuSans-20" x="1115.585938"/>
    <use xlink:href="#DejaVuSans-41" x="1147.373047"/>
    <use xlink:href="#DejaVuSans-63" x="1214.03125"/>
    <use xlink:href="#DejaVuSans-63" x="1269.011719"/>
    <use xlink:href="#DejaVuSans-75" x="1323.992188"/>
    <use xlink:href="#DejaVuSans-72" x="1387.371094"/>
    <use xlink:href="#DejaVuSans-61" x="1428.484375"/>
    <use xlink:href="#DejaVuSans-63" x="1489.763672"/>
    <use xlink:href="#DejaVuSans-79" x="1544.744141"/>
    <use xlink:href="#DejaVuSans-20" x="1603.923828"/>
    <use xlink:href="#DejaVuSans-2d" x="1635.710938"/>
    <use xlink:href="#DejaVuSans-20" x="1671.794922"/>
    <use xlink:href="#DejaVuSans-44" x="1703.582031"/>
    <use xlink:href="#DejaVuSans-61" x="1780.583984"/>
    <use xlink:href="#DejaVuSans-74" x="1841.863281"/>
    <use xlink:href="#DejaVuSans-61" x="1881.072266"/>
    <use xlink:href="#DejaVuSans-73" x="1942.351562"/>
    <use xlink:href="#DejaVuSans-65" x="1994.451172"/>
    <use xlink:href="#DejaVuSans-74" x="2055.974609"/>
    <use xlink:href="#DejaVuSans-20" x="2095.183594"/>
    <use xlink:href="#DejaVuSans-53" x="2126.970703"/>
    <use xlink:href="#DejaVuSans-69" x="2190.447266"/>
    <use xlink:href="#DejaVuSans-7a" x="2218.230469"/>
    <use xlink:href="#DejaVuSans-65" x="2270.720703"/>
    <use xlink:href="#DejaVuSans-20" x="2332.244141"/>
    <use xlink:href="#DejaVuSans-3d" x="2364.03125"/>
    <use xlink:href="#DejaVuSans-20" x="2447.820312"/>
    <use xlink:href="#DejaVuSans-31" x="2479.607422"/>
    <use xlink:href="#DejaVuSans-30" x="2543.230469"/>
    <use xlink:href="#DejaVuSans-30" x="2606.853516"/>
    <use xlink:href="#DejaVuSans-2e" x="2670.476562"/>
    <use xlink:href="#DejaVuSans-30" x="2702.263672"/>
    <use xlink:href="#DejaVuSans-25" x="2765.886719"/>
   </g>
  </g>
 </g>
 <defs>
  <clipPath id="pde19237023">
   <rect x="43.78125" y="37.296" width="279" height="202.464"/>
  </clipPath>
 </defs>
</svg>
