<?xml version="1.0" encoding="utf-8" standalone="no"?>
<!DOCTYPE svg PUBLIC "-//W3C//DTD SVG 1.1//EN"
  "http://www.w3.org/Graphics/SVG/1.1/DTD/svg11.dtd">
<svg xmlns:xlink="http://www.w3.org/1999/xlink" width="343.328516pt" height="277.31625pt" viewBox="0 0 343.328516 277.31625" xmlns="http://www.w3.org/2000/svg" version="1.1">
 <metadata>
  <rdf:RDF xmlns:dc="http://purl.org/dc/elements/1.1/" xmlns:cc="http://creativecommons.org/ns#" xmlns:rdf="http://www.w3.org/1999/02/22-rdf-syntax-ns#">
   <cc:Work>
    <dc:type rdf:resource="http://purl.org/dc/dcmitype/StillImage"/>
    <dc:date>2026-06-10T19:22:17.105754</dc:date>
    <dc:format>image/svg+xml</dc:format>
    <dc:creator>
     <cc:Agent>
      <dc:title>Matplotlib v3.8.4, https://matplotlib.org/</dc:title>
     </cc:Agent>
    </dc:creator>
   </cc:Work>
  </rdf:RDF>
 </metadata>
 <defs>
  <style type="text/css">*{stroke-linejoin: round; stroke-linecap: butt}</style>
 </defs>
 <g id="figure_1">
  <g id="patch_1">
   <path d="M 0 277.31625 
L 343.328516 277.31625 
L 343.328516 0 
L 0 0 
z
" style="fill: #ffffff"/>
  </g>
  <g id="axes_1">
   <g id="patch_2">
    <path d="M 43.78125 239.76 
L 322.78125 239.76 
L 322.78125 37.296 
L 43.78125 37.296 
z
" style="fill: #ffffff"/>
   </g>
   <g id="matplotlib.axis_1">
    <g id="xtick_1">
     <g id="line2d_1">
      <path d="M 56.209178 239.76 
L 56.209178 37.296 
" clip-path="url(#p07316b701b)" style="fill: none; stroke-dasharray: 2.96,1.28; stroke-dashoffset: 0; stroke: #b0b0b0; stroke-opacity: 0.4; stroke-width: 0.8"/>
     </g>
     <g id="line2d_2">
      <defs>
       <path id="m00ece2f308" d="M 0 0 
L 0 3.5 
" style="stroke: #000000; stroke-width: 0.8"/>
      </defs>
      <g>
       <use xlink:href="#m00ece2f308" x="56.209178" y="239.76" style="stroke: #000000; stroke-width: 0.8"/>
      </g>
     </g>
     <g id="text_1">
      <!-- 0 -->
      <g transform="translate(53.027928 254.358437) scale(0.1 -0.1)">
       <defs>
        <path id="DejaVuSans-30" d="M 2034 4250 
Q 1547 4250 1301 3770 
Q 1056 3291 1056 2328 
Q 1056 1369 1301 889 
Q 1547 409 2034 409 
Q 2525 409 2770 889 
Q 3016 1369 3016 2328 
Q 3016 3291 2770 3770 
Q 2525 4250 2034 4250 
z
M 2034 4750 
Q 2819 4750 3233 4129 
Q 3647 3509 3647 2328 
Q 3647 1150 3233 529 
Q 2819 -91 2034 -91 
Q 1250 -91 836 529 
Q 422 1150 422 2328 
Q 422 3509 836 4129 
Q 1250 4750 2034 4750 
z
" transform="scale(0.015625)"/>
       </defs>
       <use xlink:href="#DejaVuSans-30"/>
      </g>
     </g>
    </g>
    <g id="xtick_2">
     <g id="line2d_3">
      <path d="M 106.987229 239.76 
L 106.987229 37.296 
" clip-path="url(#p07316b701b)" style="fill: none; stroke-dasharray: 2.96,1.28; stroke-dashoffset: 0; stroke: #b0b0b0; stroke-opacity: 0.4; stroke-width: 0.8"/>
     </g>
     <g id="line2d_4">
      <g>
       <use xlink:href="#m00ece2f308" x="106.987229" y="239.76" style="stroke: #000000; stroke-width: 0.8"/>
      </g>
     </g>
     <g id="text_2">
      <!-- 200 -->
      <g transform="translate(97.443479 254.358437) scale(0.1 -0.1)">
       <defs>
        <path id="DejaVuSans-32" d="M 1228 531 
L 3431 531 
L 3431 0 
L 469 0 
L 469 531 
Q 828 903 1448 1529 
Q 2069 2156 2228 2338 
Q 2531 2678 2651 2914 
Q 2772 3150 2772 3378 
Q 2772 3750 2511 3984 
Q 2250 4219 1831 4219 
Q 1534 4219 1204 4116 
Q 875 4013 500 3803 
L 500 4441 
Q 881 4594 1212 4672 
Q 1544 4750 1819 4750 
Q 2544 4750 2975 4387 
Q 3406 4025 3406 3419 
Q 3406 3131 3298 2873 
Q 3191 2616 2906 2266 
Q 2828 2175 2409 1742 
Q 1991 1309 1228 531 
z
" transform="scale(0.015625)"/>
       </defs>
       <use xlink:href="#DejaVuSans-32"/>
       <use xlink:href="#DejaVuSans-30" x="63.623047"/>
       <use xlink:href="#DejaVuSans-30" x="127.246094"/>
      </g>
     </g>
    </g>
    <g id="xtick_3">
     <g id="line2d_5">
      <path d="M 157.765279 239.76 
L 157.765279 37.296 
" clip-path="url(#p07316b701b)" style="fill: none; stroke-dasharray: 2.96,1.28; stroke-dashoffset: 0; stroke: #b0b0b0; stroke-opacity: 0.4; stroke-width: 0.8"/>
     </g>
     <g id="line2d_6">
      <g>
       <use xlink:href="#m00ece2f308" x="157.765279" y="239.76" style="stroke: #000000; stroke-width: 0.8"/>
      </g>
     </g>
     <g id="text_3">
      <!-- 400 -->
      <g transform="translate(148.221529 254.358437) scale(0.1 -0.1)">
       <defs>
        <path id="DejaVuSans-34" d="M 2419 4116 
L 825 1625 
L 2419 1625 
L 2419 4116 
z
M 2253 4666 
L 3047 4666 
L 3047 1625 
L 3713 1625 
L 3713 1100 
L 3047 1100 
L 3047 0 
L 2419 0 
L 2419 1100 
L 313 1100 
L 313 1709 
L 2253 4666 
z
" transform="scale(0.015625)"/>
       </defs>
       <use xlink:href="#DejaVuSans-34"/>
       <use xlink:href="#DejaVuSans-30" x="63.623047"/>
       <use xlink:href="#DejaVuSans-30" x="127.246094"/>
      </g>
     </g>
    </g>
    <g id="xtick_4">
     <g id="line2d_7">
      <path d="M 208.54333 239.76 
L 208.54333 37.296 
" clip-path="url(#p07316b701b)" style="fill: none; stroke-dasharray: 2.96,1.28; stroke-dashoffset: 0; stroke: #b0b0b0; stroke-opacity: 0.4; stroke-width: 0.8"/>
     </g>
     <g id="line2d_8">
      <g>
       <use xlink:href="#m00ece2f308" x="208.54333" y="239.76" style="stroke: #000000; stroke-width: 0.8"/>
      </g>
     </g>
     <g id="text_4">
      <!-- 600 -->
      <g transform="translate(198.99958 254.358437) scale(0.1 -0.1)">
       <defs>
        <path id="DejaVuSans-36" d="M 2113 2584 
Q 1688 2584 1439 2293 
Q 1191 2003 1191 1497 
Q 1191 994 1439 701 
Q 1688 409 2113 409 
Q 2538 409 2786 701 
Q 3034 994 3034 1497 
Q 3034 2003 2786 2293 
Q 2538 2584 2113 2584 
z
M 3366 4563 
L 3366 3988 
Q 3128 4100 2886 4159 
Q 2644 4219 2406 4219 
Q 1781 4219 1451 3797 
Q 1122 3375 1075 2522 
Q 1259 2794 1537 2939 
Q 1816 3084 2150 3084 
Q 2853 3084 3261 2657 
Q 3669 2231 3669 1497 
Q 3669 778 3244 343 
Q 2819 -91 2113 -91 
Q 1303 -91 875 529 
Q 447 1150 447 2328 
Q 447 3434 972 4092 
Q 1497 4750 2381 4750 
Q 2619 4750 2861 4703 
Q 3103 4656 3366 4563 
z
" transform="scale(0.015625)"/>
       </defs>
       <use xlink:href="#DejaVuSans-36"/>
       <use xlink:href="#DejaVuSans-30" x="63.623047"/>
       <use xlink:href="#DejaVuSans-30" x="127.246094"/>
      </g>
     </g>
    </g>
    <g id="xtick_5">
     <g id="line2d_9">
      <path d="M 259.321381 239.76 
L 259.321381 37.296 
" clip-path="url(#p07316b701b)" style="fill: none; stroke-dasharray: 2.96,1.28; stroke-dashoffset: 0; stroke: #b0b0b0; stroke-opacity: 0.4; stroke-width: 0.8"/>
     </g>
     <g id="line2d_10">
      <g>
       <use xlink:href="#m00ece2f308" x="259.321381" y="239.76" style="stroke: #000000; stroke-width: 0.8"/>
      </g>
     </g>
     <g id="text_5">
      <!-- 800 -->
      <g transform="translate(249.777631 254.358437) scale(0.1 -0.1)">
       <defs>
        <path id="DejaVuSans-38" d="M 2034 2216 
Q 1584 2216 1326 1975 
Q 1069 1734 1069 1313 
Q 1069 891 1326 650 
Q 1584 409 2034 409 
Q 2484 409 2743 651 
Q 3003 894 3003 1313 
Q 3003 1734 2745 1975 
Q 2488 2216 2034 2216 
z
M 1403 2484 
Q 997 2584 770 2862 
Q 544 3141 544 3541 
Q 544 4100 942 4425 
Q 1341 4750 2034 4750 
Q 2731 4750 3128 4425 
Q 3525 4100 3525 3541 
Q 3525 3141 3298 2862 
Q 3072 2584 2669 2484 
Q 3125 2378 3379 2068 
Q 3634 1759 3634 1313 
Q 3634 634 3220 271 
Q 2806 -91 2034 -91 
Q 1263 -91 848 271 
Q 434 634 434 1313 
Q 434 1759 690 2068 
Q 947 2378 1403 2484 
z
M 1172 3481 
Q 1172 3119 1398 2916 
Q 1625 2713 2034 2713 
Q 2441 2713 2670 2916 
Q 2900 3119 2900 3481 
Q 2900 3844 2670 4047 
Q 2441 4250 2034 4250 
Q 1625 4250 1398 4047 
Q 1172 3844 1172 3481 
z
" transform="scale(0.015625)"/>
       </defs>
       <use xlink:href="#DejaVuSans-38"/>
       <use xlink:href="#DejaVuSans-30" x="63.623047"/>
       <use xlink:href="#DejaVuSans-30" x="127.246094"/>
      </g>
     </g>
    </g>
    <g id="xtick_6">
     <g id="line2d_11">
      <path d="M 310.099432 239.76 
L 310.099432 37.296 
" clip-path="url(#p07316b701b)" style="fill: none; stroke-dasharray: 2.96,1.28; stroke-dashoffset: 0; stroke: #b0b0b0; stroke-opacity: 0.4; stroke-width: 0.8"/>
     </g>
     <g id="line2d_12">
      <g>
       <use xlink:href="#m00ece2f308" x="310.099432" y="239.76" style="stroke: #000000; stroke-width: 0.8"/>
      </g>
     </g>
     <g id="text_6">
      <!-- 1000 -->
      <g transform="translate(297.374432 254.358437) scale(0.1 -0.1)">
       <defs>
        <path id="DejaVuSans-31" d="M 794 531 
L 1825 531 
L 1825 4091 
L 703 3866 
L 703 4441 
L 1819 4666 
L 2450 4666 
L 2450 531 
L 3481 531 
L 3481 0 
L 794 0 
L 794 531 
z
" transform="scale(0.015625)"/>
       </defs>
       <use xlink:href="#DejaVuSans-31"/>
       <use xlink:href="#DejaVuSans-30" x="63.623047"/>
       <use xlink:href="#DejaVuSans-30" x="127.246094"/>
       <use xlink:href="#DejaVuSans-30" x="190.869141"/>
      </g>
     </g>
    </g>
    <g id="text_7">
     <!-- Epochs -->
     <g transform="translate(165.365625 268.036562) scale(0.1 -0.1)">
      <defs>
       <path id="DejaVuSans-45" d="M 628 4666 
L 3578 4666 
L 3578 4134 
L 1259 4134 
L 1259 2753 
L 3481 2753 
L 3481 2222 
L 1259 2222 
L 1259 531 
L 3634 531 
L 3634 0 
L 628 0 
L 628 4666 
z
" transform="scale(0.015625)"/>
       <path id="DejaVuSans-70" d="M 1159 525 
L 1159 -1331 
L 581 -1331 
L 581 3500 
L 1159 3500 
L 1159 2969 
Q 1341 3281 1617 3432 
Q 1894 3584 2278 3584 
Q 2916 3584 3314 3078 
Q 3713 2572 3713 1747 
Q 3713 922 3314 415 
Q 2916 -91 2278 -91 
Q 1894 -91 1617 61 
Q 1341 213 1159 525 
z
M 3116 1747 
Q 3116 2381 2855 2742 
Q 2594 3103 2138 3103 
Q 1681 3103 1420 2742 
Q 1159 2381 1159 1747 
Q 1159 1113 1420 752 
Q 1681 391 2138 391 
Q 2594 391 2855 752 
Q 3116 1113 3116 1747 
z
" transform="scale(0.015625)"/>
       <path id="DejaVuSans-6f" d="M 1959 3097 
Q 1497 3097 1228 2736 
Q 959 2375 959 1747 
Q 959 1119 1226 758 
Q 1494 397 1959 397 
Q 2419 397 2687 759 
Q 2956 1122 2956 1747 
Q 2956 2369 2687 2733 
Q 2419 3097 1959 3097 
z
M 1959 3584 
Q 2709 3584 3137 3096 
Q 3566 2609 3566 1747 
Q 3566 888 3137 398 
Q 2709 -91 1959 -91 
Q 1206 -91 779 398 
Q 353 888 353 1747 
Q 353 2609 779 3096 
Q 1206 3584 1959 3584 
z
" transform="scale(0.015625)"/>
       <path id="DejaVuSans-63" d="M 3122 3366 
L 3122 2828 
Q 2878 2963 2633 3030 
Q 2388 3097 2138 3097 
Q 1578 3097 1268 2742 
Q 959 2388 959 1747 
Q 959 1106 1268 751 
Q 1578 397 2138 397 
Q 2388 397 2633 464 
Q 2878 531 3122 666 
L 3122 134 
Q 2881 22 2623 -34 
Q 2366 -91 2075 -91 
Q 1284 -91 818 406 
Q 353 903 353 1747 
Q 353 2603 823 3093 
Q 1294 3584 2113 3584 
Q 2378 3584 2631 3529 
Q 2884 3475 3122 3366 
z
" transform="scale(0.015625)"/>
       <path id="DejaVuSans-68" d="M 3513 2113 
L 3513 0 
L 2938 0 
L 2938 2094 
Q 2938 2591 2744 2837 
Q 2550 3084 2163 3084 
Q 1697 3084 1428 2787 
Q 1159 2491 1159 1978 
L 1159 0 
L 581 0 
L 581 4863 
L 1159 4863 
L 1159 2956 
Q 1366 3272 1645 3428 
Q 1925 3584 2291 3584 
Q 2894 3584 3203 3211 
Q 3513 2838 3513 2113 
z
" transform="scale(0.015625)"/>
       <path id="DejaVuSans-73" d="M 2834 3397 
L 2834 2853 
Q 2591 2978 2328 3040 
Q 2066 3103 1784 3103 
Q 1356 3103 1142 2972 
Q 928 2841 928 2578 
Q 928 2378 1081 2264 
Q 1234 2150 1697 2047 
L 1894 2003 
Q 2506 1872 2764 1633 
Q 3022 1394 3022 966 
Q 3022 478 2636 193 
Q 2250 -91 1575 -91 
Q 1294 -91 989 -36 
Q 684 19 347 128 
L 347 722 
Q 666 556 975 473 
Q 1284 391 1588 391 
Q 1994 391 2212 530 
Q 2431 669 2431 922 
Q 2431 1156 2273 1281 
Q 2116 1406 1581 1522 
L 1381 1569 
Q 847 1681 609 1914 
Q 372 2147 372 2553 
Q 372 3047 722 3315 
Q 1072 3584 1716 3584 
Q 2034 3584 2315 3537 
Q 2597 3491 2834 3397 
z
" transform="scale(0.015625)"/>
      </defs>
      <use xlink:href="#DejaVuSans-45"/>
      <use xlink:href="#DejaVuSans-70" x="63.183594"/>
      <use xlink:href="#DejaVuSans-6f" x="126.660156"/>
      <use xlink:href="#DejaVuSans-63" x="187.841797"/>
      <use xlink:href="#DejaVuSans-68" x="242.822266"/>
      <use xlink:href="#DejaVuSans-73" x="306.201172"/>
     </g>
    </g>
   </g>
   <g id="matplotlib.axis_2">
    <g id="ytick_1">
     <g id="line2d_13">
      <path d="M 43.78125 206.348669 
L 322.78125 206.348669 
" clip-path="url(#p07316b701b)" style="fill: none; stroke-dasharray: 2.96,1.28; stroke-dashoffset: 0; stroke: #b0b0b0; stroke-opacity: 0.4; stroke-width: 0.8"/>
     </g>
     <g id="line2d_14">
      <defs>
       <path id="md315e66e7b" d="M 0 0 
L -3.5 0 
" style="stroke: #000000; stroke-width: 0.8"/>
      </defs>
      <g>
       <use xlink:href="#md315e66e7b" x="43.78125" y="206.348669" style="stroke: #000000; stroke-width: 0.8"/>
      </g>
     </g>
     <g id="text_8">
      <!-- 0.5 -->
      <g transform="translate(20.878125 210.147887) scale(0.1 -0.1)">
       <defs>
        <path id="DejaVuSans-2e" d="M 684 794 
L 1344 794 
L 1344 0 
L 684 0 
L 684 794 
z
" transform="scale(0.015625)"/>
        <path id="DejaVuSans-35" d="M 691 4666 
L 3169 4666 
L 3169 4134 
L 1269 4134 
L 1269 2991 
Q 1406 3038 1543 3061 
Q 1681 3084 1819 3084 
Q 2600 3084 3056 2656 
Q 3513 2228 3513 1497 
Q 3513 744 3044 326 
Q 2575 -91 1722 -91 
Q 1428 -91 1123 -41 
Q 819 9 494 109 
L 494 744 
Q 775 591 1075 516 
Q 1375 441 1709 441 
Q 2250 441 2565 725 
Q 2881 1009 2881 1497 
Q 2881 1984 2565 2268 
Q 2250 2553 1709 2553 
Q 1456 2553 1204 2497 
Q 953 2441 691 2322 
L 691 4666 
z
" transform="scale(0.015625)"/>
       </defs>
       <use xlink:href="#DejaVuSans-30"/>
       <use xlink:href="#DejaVuSans-2e" x="63.623047"/>
       <use xlink:href="#DejaVuSans-35" x="95.410156"/>
      </g>
     </g>
    </g>
    <g id="ytick_2">
     <g id="line2d_15">
      <path d="M 43.78125 167.20314 
L 322.78125 167.20314 
" clip-path="url(#p07316b701b)" style="fill: none; stroke-dasharray: 2.96,1.28; stroke-dashoffset: 0; stroke: #b0b0b0; stroke-opacity: 0.4; stroke-width: 0.8"/>
     </g>
     <g id="line2d_16">
      <g>
       <use xlink:href="#md315e66e7b" x="43.78125" y="167.20314" style="stroke: #000000; stroke-width: 0.8"/>
      </g>
     </g>
     <g id="text_9">
      <!-- 0.6 -->
      <g transform="translate(20.878125 171.002359) scale(0.1 -0.1)">
       <use xlink:href="#DejaVuSans-30"/>
       <use xlink:href="#DejaVuSans-2e" x="63.623047"/>
       <use xlink:href="#DejaVuSans-36" x="95.410156"/>
      </g>
     </g>
    </g>
    <g id="ytick_3">
     <g id="line2d_17">
      <path d="M 43.78125 128.057611 
L 322.78125 128.057611 
" clip-path="url(#p07316b701b)" style="fill: none; stroke-dasharray: 2.96,1.28; stroke-dashoffset: 0; stroke: #b0b0b0; stroke-opacity: 0.4; stroke-width: 0.8"/>
     </g>
     <g id="line2d_18">
      <g>
       <use xlink:href="#md315e66e7b" x="43.78125" y="128.057611" style="stroke: #000000; stroke-width: 0.8"/>
      </g>
     </g>
     <g id="text_10">
      <!-- 0.7 -->
      <g transform="translate(20.878125 131.85683) scale(0.1 -0.1)">
       <defs>
        <path id="DejaVuSans-37" d="M 525 4666 
L 3525 4666 
L 3525 4397 
L 1831 0 
L 1172 0 
L 2766 4134 
L 525 4134 
L 525 4666 
z
" transform="scale(0.015625)"/>
       </defs>
       <use xlink:href="#DejaVuSans-30"/>
       <use xlink:href="#DejaVuSans-2e" x="63.623047"/>
       <use xlink:href="#DejaVuSans-37" x="95.410156"/>
      </g>
     </g>
    </g>
    <g id="ytick_4">
     <g id="line2d_19">
      <path d="M 43.78125 88.912083 
L 322.78125 88.912083 
" clip-path="url(#p07316b701b)" style="fill: none; stroke-dasharray: 2.96,1.28; stroke-dashoffset: 0; stroke: #b0b0b0; stroke-opacity: 0.4; stroke-width: 0.8"/>
     </g>
     <g id="line2d_20">
      <g>
       <use xlink:href="#md315e66e7b" x="43.78125" y="88.912083" style="stroke: #000000; stroke-width: 0.8"/>
      </g>
     </g>
     <g id="text_11">
      <!-- 0.8 -->
      <g transform="translate(20.878125 92.711301) scale(0.1 -0.1)">
       <use xlink:href="#DejaVuSans-30"/>
       <use xlink:href="#DejaVuSans-2e" x="63.623047"/>
       <use xlink:href="#DejaVuSans-38" x="95.410156"/>
      </g>
     </g>
    </g>
    <g id="ytick_5">
     <g id="line2d_21">
      <path d="M 43.78125 49.766554 
L 322.78125 49.766554 
" clip-path="url(#p07316b701b)" style="fill: none; stroke-dasharray: 2.96,1.28; stroke-dashoffset: 0; stroke: #b0b0b0; stroke-opacity: 0.4; stroke-width: 0.8"/>
     </g>
     <g id="line2d_22">
      <g>
       <use xlink:href="#md315e66e7b" x="43.78125" y="49.766554" style="stroke: #000000; stroke-width: 0.8"/>
      </g>
     </g>
     <g id="text_12">
      <!-- 0.9 -->
      <g transform="translate(20.878125 53.565773) scale(0.1 -0.1)">
       <defs>
        <path id="DejaVuSans-39" d="M 703 97 
L 703 672 
Q 941 559 1184 500 
Q 1428 441 1663 441 
Q 2288 441 2617 861 
Q 2947 1281 2994 2138 
Q 2813 1869 2534 1725 
Q 2256 1581 1919 1581 
Q 1219 1581 811 2004 
Q 403 2428 403 3163 
Q 403 3881 828 4315 
Q 1253 4750 1959 4750 
Q 2769 4750 3195 4129 
Q 3622 3509 3622 2328 
Q 3622 1225 3098 567 
Q 2575 -91 1691 -91 
Q 1453 -91 1209 -44 
Q 966 3 703 97 
z
M 1959 2075 
Q 2384 2075 2632 2365 
Q 2881 2656 2881 3163 
Q 2881 3666 2632 3958 
Q 2384 4250 1959 4250 
Q 1534 4250 1286 3958 
Q 1038 3666 1038 3163 
Q 1038 2656 1286 2365 
Q 1534 2075 1959 2075 
z
" transform="scale(0.015625)"/>
       </defs>
       <use xlink:href="#DejaVuSans-30"/>
       <use xlink:href="#DejaVuSans-2e" x="63.623047"/>
       <use xlink:href="#DejaVuSans-39" x="95.410156"/>
      </g>
     </g>
    </g>
    <g id="text_13">
     <!-- Accuracy -->
     <g transform="translate(14.798438 161.356125) rotate(-90) scale(0.1 -0.1)">
      <defs>
       <path id="DejaVuSans-41" d="M 2188 4044 
L 1331 1722 
L 3047 1722 
L 2188 4044 
z
M 1831 4666 
L 2547 4666 
L 4325 0 
L 3669 0 
L 3244 1197 
L 1141 1197 
L 716 0 
L 50 0 
L 1831 4666 
z
" transform="scale(0.015625)"/>
       <path id="DejaVuSans-75" d="M 544 1381 
L 544 3500 
L 1119 3500 
L 1119 1403 
Q 1119 906 1312 657 
Q 1506 409 1894 409 
Q 2359 409 2629 706 
Q 2900 1003 2900 1516 
L 2900 3500 
L 3475 3500 
L 3475 0 
L 2900 0 
L 2900 538 
Q 2691 219 2414 64 
Q 2138 -91 1772 -91 
Q 1169 -91 856 284 
Q 544 659 544 1381 
z
M 1991 3584 
L 1991 3584 
z
" transform="scale(0.015625)"/>
       <path id="DejaVuSans-72" d="M 2631 2963 
Q 2534 3019 2420 3045 
Q 2306 3072 2169 3072 
Q 1681 3072 1420 2755 
Q 1159 2438 1159 1844 
L 1159 0 
L 581 0 
L 581 3500 
L 1159 3500 
L 1159 2956 
Q 1341 3275 1631 3429 
Q 1922 3584 2338 3584 
Q 2397 3584 2469 3576 
Q 2541 3569 2628 3553 
L 2631 2963 
z
" transform="scale(0.015625)"/>
       <path id="DejaVuSans-61" d="M 2194 1759 
Q 1497 1759 1228 1600 
Q 959 1441 959 1056 
Q 959 750 1161 570 
Q 1363 391 1709 391 
Q 2188 391 2477 730 
Q 2766 1069 2766 1631 
L 2766 1759 
L 2194 1759 
z
M 3341 1997 
L 3341 0 
L 2766 0 
L 2766 531 
Q 2569 213 2275 61 
Q 1981 -91 1556 -91 
Q 1019 -91 701 211 
Q 384 513 384 1019 
Q 384 1609 779 1909 
Q 1175 2209 1959 2209 
L 2766 2209 
L 2766 2266 
Q 2766 2663 2505 2880 
Q 2244 3097 1772 3097 
Q 1472 3097 1187 3025 
Q 903 2953 641 2809 
L 641 3341 
Q 956 3463 1253 3523 
Q 1550 3584 1831 3584 
Q 2591 3584 2966 3190 
Q 3341 2797 3341 1997 
z
" transform="scale(0.015625)"/>
       <path id="DejaVuSans-79" d="M 2059 -325 
Q 1816 -950 1584 -1140 
Q 1353 -1331 966 -1331 
L 506 -1331 
L 506 -850 
L 844 -850 
Q 1081 -850 1212 -737 
Q 1344 -625 1503 -206 
L 1606 56 
L 191 3500 
L 800 3500 
L 1894 763 
L 2988 3500 
L 3597 3500 
L 2059 -325 
z
" transform="scale(0.015625)"/>
      </defs>
      <use xlink:href="#DejaVuSans-41"/>
      <use xlink:href="#DejaVuSans-63" x="66.658203"/>
      <use xlink:href="#DejaVuSans-63" x="121.638672"/>
      <use xlink:href="#DejaVuSans-75" x="176.619141"/>
      <use xlink:href="#DejaVuSans-72" x="239.998047"/>
      <use xlink:href="#DejaVuSans-61" x="281.111328"/>
      <use xlink:href="#DejaVuSans-63" x="342.390625"/>
      <use xlink:href="#DejaVuSans-79" x="397.371094"/>
     </g>
    </g>
   </g>
   <g id="line2d_23">
    <path d="M 56.463068 203.80962 
L 56.716958 206.238282 
L 56.970849 204.803167 
L 57.224739 211.095583 
L 57.732519 204.030416 
L 57.98641 207.121419 
L 58.2403 207.894182 
L 58.49419 207.563 
L 59.001971 202.043322 
L 59.255861 201.822527 
L 59.509751 204.251189 
L 60.017532 204.251189 
L 60.271422 202.153709 
L 60.525312 205.355122 
L 60.779202 204.251189 
L 61.033093 204.361575 
L 61.286983 204.692757 
L 61.540873 207.121419 
L 61.794764 198.179545 
L 62.048654 203.036869 
L 62.302544 210.102048 
L 62.556434 199.504274 
L 62.810325 203.588824 
L 63.064215 201.822527 
L 63.318105 203.588824 
L 63.571995 198.952296 
L 63.825886 204.803167 
L 64.333666 198.289955 
L 64.587556 202.153709 
L 64.841447 199.393888 
L 65.095337 201.822527 
L 65.349227 195.971679 
L 65.603117 193.653426 
L 65.857008 196.523657 
L 66.110898 193.763813 
L 66.364788 194.094995 
L 67.126459 181.399753 
L 67.380349 183.607619 
L 67.88813 162.080888 
L 68.39591 142.541228 
L 68.6498 141.106113 
L 68.903691 146.846574 
L 69.157581 122.670409 
L 69.411471 143.313979 
L 69.665361 121.45609 
L 69.919252 136.359198 
L 70.427032 187.140214 
L 71.442593 131.501897 
L 71.696483 126.975755 
L 72.204264 111.851851 
L 72.458154 110.306349 
L 72.712044 104.89707 
L 72.965935 113.507739 
L 73.219825 104.676274 
L 73.473715 104.234706 
L 73.727605 98.825426 
L 73.981496 99.156609 
L 74.235386 96.948719 
L 74.489276 99.156609 
L 74.743166 93.857716 
L 74.997057 110.858304 
L 75.250947 92.201805 
L 75.504837 93.63692 
L 75.758727 110.306349 
L 76.012618 95.292831 
L 76.266508 96.617537 
L 76.520398 91.53944 
L 76.774288 89.993938 
L 77.028179 95.7344 
L 77.282069 87.786072 
L 77.535959 88.890005 
L 77.78985 87.344504 
L 78.04374 89.110801 
L 78.55152 88.006845 
L 78.805411 90.545917 
L 79.059301 85.578206 
L 79.313191 92.643373 
L 79.820972 89.221188 
L 80.074862 84.805455 
L 80.328752 102.357998 
L 80.582642 87.234094 
L 80.836533 86.792525 
L 81.090423 88.117254 
L 81.344313 86.019775 
L 81.598203 85.136614 
L 81.852094 83.480726 
L 82.105984 84.143091 
L 82.359874 85.35741 
L 82.867655 81.16245 
L 83.121545 83.149544 
L 83.375435 90.766689 
L 83.629325 83.922295 
L 83.883216 96.727947 
L 84.137106 94.299284 
L 84.390996 80.610495 
L 84.644886 83.25993 
L 84.898777 80.941678 
L 85.152667 84.474273 
L 85.406557 105.007456 
L 85.914338 81.493633 
L 86.168228 79.948131 
L 86.422118 80.168927 
L 86.676008 83.701499 
L 87.183789 78.513016 
L 87.437679 92.532987 
L 87.691569 81.493633 
L 87.94546 81.714428 
L 88.70713 79.616949 
L 88.961021 78.181833 
L 89.214911 77.629878 
L 89.468801 80.500109 
L 89.976582 77.629878 
L 90.230472 78.733811 
L 90.484362 76.305149 
L 90.738252 77.629878 
L 90.992143 77.961061 
L 91.499923 74.428465 
L 91.753813 86.350957 
L 92.007704 76.636332 
L 92.261594 93.968102 
L 92.515484 76.415536 
L 92.769374 74.870034 
L 93.531045 72.220599 
L 93.784936 79.17538 
L 94.038826 72.772554 
L 94.292716 77.298696 
L 94.546606 84.915841 
L 94.800497 75.863581 
L 95.054387 83.039158 
L 95.562167 71.227052 
L 95.816058 78.513016 
L 96.069948 81.052064 
L 96.577728 74.870034 
L 96.831619 74.759648 
L 97.085509 74.428465 
L 97.339399 71.999803 
L 97.593289 78.844198 
L 97.84718 71.779007 
L 98.10107 81.16245 
L 98.35496 73.103736 
L 98.60885 71.116643 
L 98.862741 71.227052 
L 99.116631 71.999803 
L 99.370521 71.668621 
L 99.624411 107.325709 
L 99.878302 74.759648 
L 100.132192 73.766101 
L 100.639972 69.571141 
L 101.147753 75.09083 
L 101.401643 73.876487 
L 101.909424 69.902323 
L 102.163314 70.785484 
L 102.417204 73.103736 
L 102.671094 72.662168 
L 102.924985 80.389699 
L 103.178875 74.428465 
L 103.432765 72.220599 
L 103.686655 71.116643 
L 104.194436 66.811297 
L 104.702216 75.863581 
L 104.956107 72.772554 
L 105.209997 72.11019 
L 105.463887 68.025639 
L 105.717777 67.252889 
L 105.971668 70.01271 
L 106.225558 73.986873 
L 106.479448 67.694457 
L 106.733338 69.350368 
L 106.987229 68.246412 
L 107.495009 68.136026 
L 107.748899 70.123119 
L 108.25668 65.92816 
L 108.51057 71.227052 
L 108.76446 65.92816 
L 109.018351 67.473661 
L 109.272241 64.051476 
L 109.526131 68.79839 
L 109.780021 68.136026 
L 110.033912 65.707364 
L 110.287802 66.369728 
L 110.541692 71.227052 
L 110.795583 67.915253 
L 111.049473 67.584071 
L 111.557253 65.486591 
L 112.318924 75.973967 
L 112.572814 73.766101 
L 112.826705 66.259342 
L 113.080595 64.934613 
L 113.334485 67.032093 
L 113.588375 67.473661 
L 113.842266 69.350368 
L 114.096156 65.817773 
L 114.350046 66.259342 
L 114.603936 67.915253 
L 114.857827 67.252889 
L 115.365607 60.629267 
L 115.873388 61.7332 
L 116.127278 61.843609 
L 116.381168 61.291631 
L 116.635058 62.505951 
L 116.888949 62.726747 
L 117.142839 61.402018 
L 117.396729 61.953996 
L 117.650619 61.622813 
L 117.90451 60.850063 
L 118.1584 58.531787 
L 118.41229 61.7332 
L 118.66618 62.61636 
L 118.920071 61.070835 
L 119.173961 61.181245 
L 119.427851 62.064382 
L 119.681741 60.187698 
L 119.935632 60.739676 
L 120.189522 60.408494 
L 120.443412 60.960449 
L 120.697302 60.077312 
L 120.951193 61.070835 
L 121.205083 59.856516 
L 121.458973 59.63572 
L 121.966754 60.960449 
L 122.220644 59.414947 
L 122.474534 59.304561 
L 122.728424 57.427854 
L 122.982315 60.298084 
L 123.236205 60.077312 
L 123.490095 60.51888 
L 123.743985 58.973379 
L 123.997876 58.973379 
L 124.251766 58.090218 
L 124.505656 56.43433 
L 124.759546 57.317467 
L 125.013437 57.427854 
L 125.267327 61.7332 
L 125.521217 58.311014 
L 125.775107 59.856516 
L 126.028998 59.525334 
L 126.282888 60.629267 
L 126.536778 60.298084 
L 126.790669 58.200605 
L 127.044559 61.843609 
L 127.298449 62.726747 
L 127.552339 56.875899 
L 127.80623 57.538263 
L 128.06012 56.655103 
L 128.31401 56.213534 
L 128.5679 61.291631 
L 128.821791 55.882352 
L 129.075681 56.544717 
L 129.329571 54.999215 
L 129.583461 55.992738 
L 129.837352 56.323921 
L 130.091242 56.213534 
L 130.345132 55.440783 
L 130.599022 56.323921 
L 130.852913 56.213534 
L 131.106803 57.64865 
L 131.360693 55.440783 
L 131.614583 58.421401 
L 131.868474 55.882352 
L 132.122364 56.655103 
L 132.376254 53.895258 
L 132.630144 53.5641 
L 133.137925 57.207081 
L 133.645705 54.33685 
L 133.899596 57.207081 
L 134.153486 57.096671 
L 134.407376 56.213534 
L 134.661266 52.680939 
L 134.915157 55.771966 
L 135.169047 55.440783 
L 135.422937 54.116054 
L 135.676827 54.447237 
L 135.930718 56.544717 
L 136.184608 55.330374 
L 136.438498 54.668033 
L 136.692388 56.103148 
L 136.946279 54.999215 
L 137.200169 53.343304 
L 137.454059 55.992738 
L 137.707949 53.674486 
L 137.96184 57.64865 
L 138.21573 56.323921 
L 138.46962 56.323921 
L 138.977401 53.122508 
L 139.231291 53.343304 
L 139.739071 56.544717 
L 139.992962 56.103148 
L 140.246852 53.674486 
L 140.500742 56.103148 
L 140.754632 52.349757 
L 141.008523 52.570553 
L 141.262413 53.45369 
L 141.516303 52.680939 
L 141.770193 52.349757 
L 142.024084 53.895258 
L 142.277974 52.349757 
L 142.785755 53.343304 
L 143.039645 52.018575 
L 143.293535 52.791325 
L 143.547425 51.908188 
L 143.801316 53.5641 
L 144.055206 51.687392 
L 144.309096 52.901735 
L 144.816877 51.135437 
L 145.070767 52.680939 
L 145.324657 54.999215 
L 145.578547 50.141891 
L 145.832438 52.791325 
L 146.086328 53.784872 
L 146.340218 49.921095 
L 146.594108 52.680939 
L 146.847999 51.46662 
L 147.355779 55.440783 
L 147.609669 55.55117 
L 147.86356 51.35621 
L 148.11745 53.674486 
L 148.37134 53.343304 
L 148.879121 50.252277 
L 149.133011 53.232917 
L 149.386901 52.349757 
L 149.640791 52.791325 
L 149.894682 50.583459 
L 150.148572 53.45369 
L 150.402462 53.343304 
L 150.910243 51.687392 
L 151.164133 53.674486 
L 151.418023 51.46662 
L 151.671913 53.343304 
L 151.925804 52.239371 
L 152.179694 52.349757 
L 152.433584 51.135437 
L 152.687474 53.122508 
L 153.195255 52.349757 
L 153.449145 51.245824 
L 153.703035 51.35621 
L 153.956926 50.914641 
L 154.210816 52.239371 
L 154.464706 51.797802 
L 154.718596 52.901735 
L 154.972487 50.362687 
L 155.226377 52.239371 
L 155.480267 50.473073 
L 155.734157 50.693869 
L 155.988048 49.258753 
L 156.241938 51.245824 
L 156.495828 52.349757 
L 157.003609 51.35621 
L 157.257499 51.577006 
L 157.511389 50.583459 
L 157.765279 52.239371 
L 158.01917 51.577006 
L 158.27306 51.797802 
L 158.52695 50.914641 
L 158.78084 51.135437 
L 159.288621 51.025051 
L 159.542511 49.810708 
L 159.796402 52.349757 
L 160.050292 49.921095 
L 160.304182 51.908188 
L 160.558072 52.570553 
L 161.065853 50.693869 
L 161.319743 53.343304 
L 161.573633 50.804255 
L 161.827524 52.570553 
L 162.081414 51.245824 
L 162.335304 52.349757 
L 162.589194 50.804255 
L 162.843085 50.252277 
L 163.096975 53.122508 
L 163.350865 50.693869 
L 163.604755 50.473073 
L 163.858646 51.577006 
L 164.112536 53.232917 
L 164.620316 49.921095 
L 164.874207 49.810708 
L 165.128097 50.693869 
L 165.381987 52.570553 
L 165.635877 50.583459 
L 165.889768 50.252277 
L 166.143658 52.791325 
L 166.397548 51.025051 
L 166.651438 51.135437 
L 167.159219 48.265207 
L 167.413109 52.239371 
L 167.666999 50.031504 
L 167.92089 50.252277 
L 168.17478 52.239371 
L 168.42867 52.128984 
L 168.68256 50.473073 
L 168.936451 50.693869 
L 169.190341 49.037958 
L 169.444231 51.577006 
L 169.698121 49.36914 
L 169.952012 49.479526 
L 170.459792 51.797802 
L 170.713682 52.570553 
L 170.967573 52.349757 
L 171.221463 51.025051 
L 171.475353 52.018575 
L 171.729243 50.031504 
L 171.983134 49.258753 
L 172.237024 48.927571 
L 172.490914 51.797802 
L 172.744804 49.921095 
L 172.998695 50.141891 
L 173.252585 53.012121 
L 173.506475 49.700322 
L 173.760365 49.921095 
L 174.014256 49.700322 
L 174.268146 50.693869 
L 174.522036 53.784872 
L 174.775926 51.35621 
L 175.283707 50.141891 
L 175.537597 51.577006 
L 175.791488 51.35621 
L 176.045378 51.797802 
L 176.553158 50.252277 
L 176.807049 51.025051 
L 177.060939 50.141891 
L 177.314829 50.362687 
L 177.568719 52.349757 
L 177.82261 52.239371 
L 178.0765 50.362687 
L 178.33039 51.135437 
L 178.58428 51.35621 
L 178.838171 51.135437 
L 179.092061 47.27166 
L 179.599841 51.797802 
L 179.853732 49.921095 
L 180.107622 50.362687 
L 180.361512 50.362687 
L 180.615402 48.044411 
L 181.123183 51.35621 
L 181.377073 52.239371 
L 181.630963 49.589936 
L 181.884854 49.148344 
L 182.138744 52.901735 
L 182.392634 51.577006 
L 182.646524 51.687392 
L 182.900415 46.940478 
L 183.408195 51.908188 
L 183.662085 48.927571 
L 184.169866 50.141891 
L 184.423756 48.15482 
L 184.931537 51.687392 
L 185.185427 50.583459 
L 185.439317 52.018575 
L 185.693207 50.362687 
L 185.947098 50.362687 
L 186.200988 49.700322 
L 186.454878 53.895258 
L 186.962659 49.258753 
L 187.216549 51.35621 
L 187.470439 50.693869 
L 187.724329 50.804255 
L 187.97822 50.473073 
L 188.23211 51.46662 
L 188.486 51.687392 
L 188.73989 49.479526 
L 188.993781 50.362687 
L 189.247671 51.687392 
L 189.501561 49.700322 
L 189.755451 50.693869 
L 190.009342 48.044411 
L 190.263232 51.797802 
L 190.517122 51.245824 
L 190.771012 52.680939 
L 191.024903 51.025051 
L 191.278793 51.245824 
L 191.532683 49.479526 
L 192.040464 52.570553 
L 192.294354 49.258753 
L 192.548244 48.044411 
L 192.802135 50.693869 
L 193.056025 50.141891 
L 193.309915 51.908188 
L 193.817696 48.706775 
L 194.071586 49.479526 
L 194.325476 50.804255 
L 194.833257 48.706775 
L 195.087147 48.375593 
L 195.341037 48.706775 
L 195.594927 49.810708 
L 195.848818 49.037958 
L 196.102708 50.362687 
L 196.356598 49.36914 
L 196.610488 50.804255 
L 196.864379 54.999215 
L 197.118269 49.258753 
L 197.372159 52.239371 
L 197.626049 47.161274 
L 197.87994 50.252277 
L 198.13383 50.141891 
L 198.38772 50.914641 
L 198.64161 51.135437 
L 199.403281 50.473073 
L 199.657171 50.914641 
L 199.911062 51.908188 
L 200.164952 51.687392 
L 200.418842 48.375593 
L 200.926623 51.025051 
L 201.180513 49.037958 
L 201.434403 50.693869 
L 201.688293 50.473073 
L 202.196074 52.460166 
L 202.449964 51.35621 
L 202.703854 51.35621 
L 202.957745 48.927571 
L 203.211635 50.141891 
L 203.465525 49.258753 
L 203.719415 50.141891 
L 203.973306 49.700322 
L 204.227196 50.141891 
L 204.481086 46.830091 
L 204.734976 49.921095 
L 204.988867 49.921095 
L 205.242757 50.362687 
L 205.496647 50.031504 
L 205.750537 52.349757 
L 206.004428 50.252277 
L 206.258318 50.031504 
L 206.512208 51.35621 
L 207.273879 48.265207 
L 207.527769 50.141891 
L 207.78166 47.823638 
L 208.03555 50.252277 
L 208.28944 49.36914 
L 208.54333 50.252277 
L 208.797221 50.141891 
L 209.051111 50.693869 
L 209.305001 49.810708 
L 209.558891 51.135437 
L 209.812782 49.810708 
L 210.066672 51.245824 
L 210.320562 49.921095 
L 210.574452 51.025051 
L 210.828343 48.596389 
L 211.082233 50.804255 
L 211.336123 51.687392 
L 211.590013 47.382046 
L 211.843904 52.018575 
L 212.097794 49.037958 
L 212.605574 50.252277 
L 212.859465 50.031504 
L 213.113355 50.583459 
L 213.367245 48.596389 
L 213.621135 50.362687 
L 213.875026 48.927571 
L 214.382806 51.46662 
L 214.636696 49.810708 
L 214.890587 51.245824 
L 215.144477 48.265207 
L 215.398367 50.031504 
L 215.652257 50.031504 
L 215.906148 50.473073 
L 216.160038 49.258753 
L 216.921709 48.706775 
L 217.175599 50.473073 
L 217.429489 50.914641 
L 217.683379 52.018575 
L 217.93727 50.914641 
L 218.19116 51.245824 
L 218.44505 50.583459 
L 218.69894 50.473073 
L 218.952831 49.810708 
L 219.206721 48.596389 
L 219.714501 50.141891 
L 219.968392 51.797802 
L 220.222282 52.128984 
L 220.476172 50.583459 
L 220.730062 50.583459 
L 220.983953 49.479526 
L 221.237843 50.473073 
L 221.491733 52.128984 
L 221.745623 50.583459 
L 221.999514 50.031504 
L 222.253404 50.362687 
L 222.507294 49.148344 
L 222.761184 50.252277 
L 223.015075 49.148344 
L 223.268965 50.583459 
L 223.522855 50.362687 
L 224.030636 53.122508 
L 224.284526 49.810708 
L 224.538416 50.473073 
L 224.792307 48.706775 
L 225.046197 48.15482 
L 225.300087 52.791325 
L 225.807868 50.693869 
L 226.061758 52.018575 
L 226.315648 49.36914 
L 226.569538 48.485979 
L 226.823429 51.577006 
L 227.077319 50.583459 
L 227.331209 46.498909 
L 227.585099 50.141891 
L 227.83899 48.817162 
L 228.09288 49.921095 
L 228.34677 50.473073 
L 228.60066 48.265207 
L 228.854551 51.908188 
L 229.108441 48.706775 
L 229.362331 49.810708 
L 229.616221 48.15482 
L 230.124002 51.245824 
L 230.377892 49.36914 
L 230.631782 48.927571 
L 230.885673 49.700322 
L 231.139563 49.36914 
L 231.393453 50.583459 
L 231.647343 48.927571 
L 231.901234 48.817162 
L 232.155124 48.375593 
L 232.409014 50.362687 
L 232.662904 49.921095 
L 232.916795 50.914641 
L 233.170685 50.804255 
L 233.424575 48.817162 
L 233.678465 48.706775 
L 233.932356 51.797802 
L 234.440136 47.050864 
L 234.694026 51.135437 
L 235.201807 50.031504 
L 235.455697 48.15482 
L 236.217368 51.245824 
L 236.471258 50.693869 
L 236.725148 50.804255 
L 236.979039 47.934024 
L 237.232929 49.148344 
L 237.486819 48.817162 
L 237.740709 50.141891 
L 238.50238 50.362687 
L 238.75627 50.031504 
L 239.010161 49.037958 
L 239.264051 51.797802 
L 239.517941 48.596389 
L 239.771831 48.706775 
L 240.025722 51.245824 
L 240.279612 51.577006 
L 240.533502 50.031504 
L 240.787393 50.362687 
L 241.041283 50.141891 
L 241.295173 47.823638 
L 241.549063 50.031504 
L 241.802954 48.927571 
L 242.056844 50.362687 
L 242.310734 49.037958 
L 242.564624 51.135437 
L 242.818515 49.037958 
L 243.072405 51.135437 
L 243.326295 50.804255 
L 243.580185 47.823638 
L 243.834076 49.037958 
L 244.341856 48.927571 
L 244.595746 49.810708 
L 244.849637 49.36914 
L 245.357417 50.252277 
L 245.611307 49.258753 
L 245.865198 49.258753 
L 246.119088 50.362687 
L 246.372978 47.823638 
L 246.626868 48.485979 
L 246.880759 51.577006 
L 247.388539 49.258753 
L 247.642429 49.258753 
L 247.89632 53.343304 
L 248.4041 50.362687 
L 248.65799 51.025051 
L 248.911881 49.148344 
L 249.165771 51.025051 
L 249.419661 51.135437 
L 249.673551 52.239371 
L 249.927442 49.921095 
L 250.181332 50.141891 
L 250.689112 47.27166 
L 251.196893 51.35621 
L 251.450783 51.46662 
L 251.958564 48.927571 
L 252.212454 51.46662 
L 252.466344 51.35621 
L 252.720234 47.823638 
L 252.974125 50.693869 
L 253.228015 50.141891 
L 253.481905 51.35621 
L 253.735795 49.921095 
L 253.989686 49.700322 
L 254.243576 48.15482 
L 254.497466 50.362687 
L 254.751356 51.577006 
L 255.005247 48.817162 
L 255.259137 49.921095 
L 255.513027 47.823638 
L 255.766917 51.908188 
L 256.020808 51.35621 
L 256.274698 49.36914 
L 256.528588 50.693869 
L 257.036369 49.36914 
L 257.544149 51.025051 
L 257.79804 51.025051 
L 258.05193 51.577006 
L 258.30582 49.479526 
L 258.55971 53.012121 
L 259.067491 46.940478 
L 259.321381 49.258753 
L 259.575271 49.148344 
L 259.829162 52.680939 
L 260.083052 49.700322 
L 260.336942 50.031504 
L 260.590832 49.037958 
L 260.844723 50.914641 
L 261.606393 48.15482 
L 262.114174 51.687392 
L 262.368064 48.265207 
L 262.621954 49.479526 
L 262.875845 48.15482 
L 263.129735 51.025051 
L 263.383625 48.927571 
L 263.637515 50.362687 
L 263.891406 49.921095 
L 264.145296 48.485979 
L 264.399186 48.927571 
L 264.653076 48.817162 
L 264.906967 49.700322 
L 265.160857 51.35621 
L 265.414747 50.473073 
L 265.668637 48.706775 
L 265.922528 48.485979 
L 266.176418 48.817162 
L 266.430308 49.36914 
L 266.684198 48.817162 
L 267.191979 51.797802 
L 267.445869 50.362687 
L 267.95365 50.252277 
L 268.20754 49.921095 
L 268.46143 51.797802 
L 268.969211 47.934024 
L 269.223101 50.473073 
L 269.476991 49.589936 
L 269.730881 49.700322 
L 269.984772 49.36914 
L 270.238662 48.596389 
L 270.492552 48.817162 
L 270.746442 49.36914 
L 271.000333 48.596389 
L 271.254223 48.927571 
L 271.508113 50.583459 
L 271.762003 50.804255 
L 272.015894 50.362687 
L 272.269784 51.245824 
L 272.523674 49.921095 
L 272.777564 50.693869 
L 273.031455 49.810708 
L 273.285345 50.583459 
L 273.539235 48.927571 
L 273.793126 48.817162 
L 274.047016 50.583459 
L 274.300906 50.031504 
L 274.554796 50.252277 
L 274.808687 49.258753 
L 275.062577 49.479526 
L 275.316467 50.252277 
L 275.570357 50.141891 
L 275.824248 51.245824 
L 276.332028 47.382046 
L 276.585918 48.927571 
L 276.839809 49.36914 
L 277.093699 48.265207 
L 277.347589 50.362687 
L 277.601479 49.589936 
L 277.85537 49.921095 
L 278.10926 49.36914 
L 278.36315 50.031504 
L 278.61704 51.797802 
L 278.870931 49.921095 
L 279.124821 49.36914 
L 279.378711 48.044411 
L 279.632601 47.382046 
L 279.886492 50.914641 
L 280.140382 51.025051 
L 280.648162 48.15482 
L 280.902053 49.810708 
L 281.155943 48.485979 
L 281.409833 51.577006 
L 281.663723 49.148344 
L 281.917614 49.921095 
L 282.171504 48.15482 
L 282.425394 51.908188 
L 282.679284 51.797802 
L 282.933175 50.583459 
L 283.187065 48.596389 
L 283.440955 49.148344 
L 283.694845 49.36914 
L 283.948736 50.141891 
L 284.202626 50.141891 
L 284.456516 48.927571 
L 284.710406 50.693869 
L 284.964297 50.804255 
L 285.218187 50.141891 
L 285.472077 50.693869 
L 285.725967 49.921095 
L 285.979858 50.473073 
L 286.233748 49.037958 
L 286.487638 50.252277 
L 286.741528 48.596389 
L 286.995419 50.914641 
L 287.503199 49.810708 
L 287.757089 48.265207 
L 288.01098 50.031504 
L 288.26487 49.700322 
L 288.51876 50.031504 
L 288.77265 49.037958 
L 289.026541 52.791325 
L 289.280431 50.914641 
L 289.534321 49.921095 
L 289.788212 51.687392 
L 290.042102 47.382046 
L 290.295992 48.15482 
L 290.549882 49.479526 
L 290.803773 48.15482 
L 291.057663 49.810708 
L 291.311553 49.037958 
L 291.565443 51.135437 
L 291.819334 50.252277 
L 292.073224 51.025051 
L 292.327114 49.037958 
L 292.581004 51.135437 
L 292.834895 48.375593 
L 293.088785 48.375593 
L 293.342675 50.252277 
L 293.596565 49.921095 
L 293.850456 50.141891 
L 294.104346 50.914641 
L 294.358236 49.36914 
L 294.612126 51.797802 
L 295.119907 49.037958 
L 295.373797 47.823638 
L 296.135468 51.025051 
L 296.389358 49.921095 
L 296.643248 49.589936 
L 296.897139 50.473073 
L 297.151029 52.460166 
L 297.404919 50.031504 
L 297.658809 51.35621 
L 297.9127 50.473073 
L 298.16659 49.148344 
L 298.42048 51.687392 
L 298.67437 49.700322 
L 298.928261 49.700322 
L 299.436041 50.252277 
L 299.689931 50.252277 
L 299.943822 48.485979 
L 300.197712 49.36914 
L 300.451602 49.148344 
L 300.705492 50.362687 
L 301.213273 51.245824 
L 301.467163 48.15482 
L 301.721053 49.037958 
L 301.974944 48.927571 
L 302.228834 48.15482 
L 302.482724 49.810708 
L 302.736614 50.473073 
L 302.990505 49.589936 
L 303.244395 50.914641 
L 303.498285 49.36914 
L 303.752175 52.128984 
L 304.006066 49.258753 
L 304.259956 49.921095 
L 304.513846 51.46662 
L 305.021627 49.700322 
L 305.275517 49.700322 
L 305.529407 49.148344 
L 305.783298 50.914641 
L 306.037188 49.700322 
L 306.291078 51.245824 
L 306.544968 50.914641 
L 306.798859 48.706775 
L 307.052749 52.018575 
L 307.306639 49.36914 
L 307.560529 51.245824 
L 307.81442 47.934024 
L 308.3222 51.245824 
L 308.57609 51.908188 
L 308.829981 52.018575 
L 309.337761 48.706775 
L 309.591651 50.362687 
L 309.845542 50.252277 
L 310.099432 51.245824 
L 310.099432 51.245824 
" clip-path="url(#p07316b701b)" style="fill: none; stroke: #0000ff; stroke-width: 0.6; stroke-linecap: square"/>
   </g>
   <g id="line2d_24">
    <path d="M 56.463068 207.121279 
L 56.716958 207.89389 
L 56.970849 211.756933 
L 57.224739 207.636345 
L 57.478629 207.89389 
L 57.732519 204.030836 
L 58.2403 216.392586 
L 58.49419 207.378812 
L 58.74808 206.091124 
L 59.001971 204.030836 
L 59.255861 204.803447 
L 59.509751 213.04461 
L 59.763641 204.545925 
L 60.017532 204.803447 
L 60.271422 207.89389 
L 60.525312 213.817221 
L 60.779202 204.545925 
L 61.033093 213.04461 
L 61.286983 215.104909 
L 61.540873 206.863746 
L 61.794764 202.743159 
L 62.048654 202.485614 
L 62.302544 207.121279 
L 62.556434 205.576058 
L 62.810325 206.348669 
L 63.318105 203.000704 
L 63.571995 199.652716 
L 63.825886 201.455482 
L 64.333666 198.622583 
L 64.587556 194.501985 
L 64.841447 198.880105 
L 65.095337 199.91026 
L 65.603117 187.033444 
L 65.857008 197.592428 
L 66.110898 201.197937 
L 66.364788 184.973156 
L 66.618678 190.123888 
L 66.872569 169.520963 
L 67.126459 206.863746 
L 67.380349 143.509786 
L 67.634239 141.191977 
L 67.88813 161.279812 
L 68.14202 119.301375 
L 68.39591 147.630385 
L 68.6498 122.134274 
L 68.903691 124.709628 
L 69.157581 116.210932 
L 69.411471 115.1808 
L 69.919252 104.364271 
L 70.173142 230.557091 
L 70.680922 127.285005 
L 70.934813 133.980958 
L 71.188703 112.605422 
L 71.442593 105.394404 
L 71.696483 125.224717 
L 71.950374 101.016283 
L 72.204264 95.092965 
L 72.458154 121.619208 
L 72.712044 92.002521 
L 72.965935 97.410774 
L 73.219825 97.410774 
L 73.473715 89.427144 
L 73.727605 96.123097 
L 73.981496 86.594245 
L 74.235386 95.350486 
L 74.489276 84.018891 
L 74.743166 87.881946 
L 74.997057 85.564113 
L 75.250947 90.714844 
L 75.504837 80.413382 
L 75.758727 83.246281 
L 76.012618 96.638163 
L 76.266508 83.503825 
L 76.520398 88.139467 
L 76.774288 80.670927 
L 77.282069 92.260066 
L 77.535959 82.988736 
L 77.78985 78.86816 
L 78.04374 78.095549 
L 78.29763 76.035262 
L 78.55152 88.654556 
L 78.805411 76.292806 
L 79.059301 79.383226 
L 79.313191 76.807873 
L 79.567081 96.380642 
L 79.820972 74.49004 
L 80.074862 161.794878 
L 80.328752 73.717429 
L 80.582642 79.898316 
L 80.836533 94.83542 
L 81.090423 80.928448 
L 81.344313 79.383226 
L 81.598203 80.155837 
L 81.852094 77.065417 
L 82.105984 75.777717 
L 82.359874 80.670927 
L 82.613764 77.322939 
L 82.867655 72.172207 
L 83.121545 81.701059 
L 83.375435 86.079179 
L 83.629325 80.155837 
L 83.883216 95.865575 
L 84.137106 77.838028 
L 84.390996 73.717429 
L 84.898777 81.185993 
L 85.152667 123.93704 
L 85.406557 83.246281 
L 85.660447 73.202363 
L 85.914338 72.687297 
L 86.168228 79.125705 
L 86.422118 80.413382 
L 86.676008 87.366856 
L 86.929899 73.459908 
L 87.183789 72.944818 
L 87.437679 78.353094 
L 87.691569 75.777717 
L 87.94546 75.777717 
L 88.19935 84.533958 
L 88.45324 71.657141 
L 88.70713 72.687297 
L 88.961021 72.944818 
L 89.214911 71.142075 
L 89.468801 76.035262 
L 89.722691 66.50641 
L 89.976582 71.39962 
L 90.230472 69.081787 
L 90.738252 76.550328 
L 90.992143 71.914686 
L 91.246033 77.580483 
L 91.499923 70.11192 
L 91.753813 75.777717 
L 92.007704 72.172207 
L 92.261594 74.232519 
L 92.515484 71.142075 
L 92.769374 69.596854 
L 93.023265 72.687297 
L 93.277155 71.914686 
L 93.531045 71.657141 
L 93.784936 68.309177 
L 94.038826 69.081787 
L 94.292716 76.292806 
L 94.546606 72.429752 
L 94.800497 78.095549 
L 95.054387 70.627009 
L 95.308277 73.202363 
L 95.562167 66.763955 
L 95.816058 76.035262 
L 96.069948 73.717429 
L 96.323838 75.262651 
L 96.577728 69.854398 
L 96.831619 72.944818 
L 97.085509 72.944818 
L 97.339399 143.252265 
L 97.593289 66.763955 
L 97.84718 68.051632 
L 98.10107 74.232519 
L 98.35496 68.566698 
L 98.60885 71.657141 
L 98.862741 72.429752 
L 99.116631 69.596854 
L 99.624411 82.988736 
L 99.878302 73.459908 
L 100.132192 74.232519 
L 100.386082 81.958604 
L 100.639972 68.051632 
L 100.893863 77.838028 
L 101.147753 70.369464 
L 101.401643 71.39962 
L 101.655533 68.566698 
L 101.909424 67.0215 
L 102.163314 67.794111 
L 102.417204 74.232519 
L 102.671094 67.0215 
L 102.924985 66.50641 
L 103.178875 77.065417 
L 103.432765 81.185993 
L 103.686655 63.673512 
L 103.940546 64.703667 
L 104.194436 68.051632 
L 104.448326 85.821635 
L 104.956107 67.536566 
L 105.463887 68.824243 
L 105.717777 70.369464 
L 105.971668 66.763955 
L 106.225558 71.39962 
L 106.479448 68.566698 
L 106.733338 69.854398 
L 106.987229 65.733799 
L 107.241119 68.824243 
L 107.495009 70.369464 
L 107.748899 66.763955 
L 108.00279 74.232519 
L 108.25668 75.520196 
L 108.51057 68.309177 
L 108.76446 67.794111 
L 109.018351 68.824243 
L 109.272241 66.248889 
L 109.526131 77.580483 
L 109.780021 69.854398 
L 110.033912 69.854398 
L 110.287802 64.961189 
L 110.541692 71.39962 
L 110.795583 65.476278 
L 111.049473 69.596854 
L 111.303363 70.369464 
L 111.811144 91.744976 
L 112.065034 113.893099 
L 112.318924 69.339309 
L 112.572814 67.536566 
L 112.826705 67.536566 
L 113.080595 66.763955 
L 113.334485 68.309177 
L 113.588375 64.703667 
L 114.096156 76.292806 
L 114.350046 66.763955 
L 114.603936 64.188601 
L 114.857827 70.11192 
L 115.619497 65.476278 
L 115.873388 68.824243 
L 116.381168 65.991344 
L 116.635058 70.884531 
L 116.888949 66.248889 
L 117.142839 65.476278 
L 117.396729 69.339309 
L 117.650619 67.0215 
L 118.1584 68.309177 
L 118.41229 64.188601 
L 118.920071 67.0215 
L 119.173961 67.536566 
L 119.427851 63.931056 
L 119.681741 65.476278 
L 119.935632 67.794111 
L 120.189522 68.309177 
L 120.443412 67.0215 
L 120.697302 67.279021 
L 120.951193 67.794111 
L 121.205083 66.248889 
L 121.458973 65.991344 
L 121.712863 68.824243 
L 122.220644 66.50641 
L 122.474534 68.824243 
L 122.982315 64.703667 
L 123.236205 68.824243 
L 123.490095 67.0215 
L 123.743985 66.248889 
L 123.997876 66.50641 
L 124.251766 63.41599 
L 124.759546 70.11192 
L 125.267327 68.051632 
L 125.521217 67.794111 
L 125.775107 67.279021 
L 126.028998 67.794111 
L 126.282888 67.0215 
L 126.536778 66.763955 
L 126.790669 70.11192 
L 127.044559 65.733799 
L 127.298449 67.279021 
L 127.552339 65.218733 
L 127.80623 65.476278 
L 128.06012 64.961189 
L 128.31401 63.673512 
L 128.5679 66.50641 
L 128.821791 67.794111 
L 129.075681 64.961189 
L 129.329571 66.50641 
L 129.583461 67.279021 
L 129.837352 65.218733 
L 130.091242 67.0215 
L 130.345132 65.476278 
L 130.599022 66.50641 
L 130.852913 64.446122 
L 131.106803 67.0215 
L 131.360693 63.931056 
L 131.614583 64.961189 
L 131.868474 67.279021 
L 132.122364 64.961189 
L 132.630144 67.0215 
L 132.884035 64.703667 
L 133.137925 65.476278 
L 133.391815 68.309177 
L 133.645705 64.961189 
L 133.899596 65.733799 
L 134.153486 64.446122 
L 134.407376 64.446122 
L 134.661266 67.536566 
L 134.915157 64.703667 
L 135.169047 65.733799 
L 135.422937 65.476278 
L 135.676827 64.703667 
L 135.930718 65.733799 
L 136.184608 65.476278 
L 136.438498 68.309177 
L 136.946279 63.931056 
L 137.200169 67.279021 
L 137.454059 68.051632 
L 137.707949 65.476278 
L 137.96184 65.733799 
L 138.21573 66.50641 
L 138.46962 66.763955 
L 138.72351 65.476278 
L 139.231291 67.536566 
L 139.485181 64.961189 
L 139.739071 65.476278 
L 139.992962 67.0215 
L 140.246852 66.763955 
L 140.500742 68.824243 
L 140.754632 65.733799 
L 141.008523 67.279021 
L 141.262413 67.536566 
L 141.516303 65.733799 
L 141.770193 65.733799 
L 142.024084 65.218733 
L 142.277974 65.991344 
L 142.531864 66.248889 
L 142.785755 65.733799 
L 143.039645 67.794111 
L 143.293535 65.991344 
L 143.547425 67.0215 
L 143.801316 67.536566 
L 144.055206 67.536566 
L 144.309096 65.991344 
L 144.562986 67.279021 
L 144.816877 67.536566 
L 145.070767 65.991344 
L 145.324657 66.50641 
L 145.578547 66.763955 
L 145.832438 66.248889 
L 146.086328 66.248889 
L 146.594108 66.763955 
L 146.847999 67.536566 
L 147.101889 67.279021 
L 147.355779 66.248889 
L 147.609669 67.279021 
L 148.11745 64.446122 
L 148.37134 66.50641 
L 148.62523 67.279021 
L 148.879121 64.446122 
L 149.133011 65.476278 
L 149.894682 67.0215 
L 150.148572 65.218733 
L 150.402462 64.446122 
L 150.656352 67.279021 
L 150.910243 67.0215 
L 151.164133 69.081787 
L 151.418023 64.703667 
L 151.671913 66.248889 
L 151.925804 64.703667 
L 152.179694 66.763955 
L 152.433584 65.476278 
L 152.687474 67.279021 
L 152.941365 65.218733 
L 153.195255 67.536566 
L 153.449145 65.476278 
L 153.703035 68.309177 
L 153.956926 65.733799 
L 154.210816 65.991344 
L 154.718596 67.0215 
L 154.972487 66.50641 
L 155.226377 66.763955 
L 155.480267 67.794111 
L 155.988048 65.733799 
L 156.495828 66.248889 
L 156.749718 67.279021 
L 157.003609 66.763955 
L 157.257499 66.50641 
L 157.511389 65.733799 
L 157.765279 67.536566 
L 158.01917 65.991344 
L 158.27306 67.536566 
L 158.52695 67.536566 
L 159.034731 65.991344 
L 159.288621 66.50641 
L 159.542511 67.794111 
L 159.796402 65.733799 
L 160.050292 64.961189 
L 160.304182 66.763955 
L 160.558072 66.248889 
L 160.811963 66.248889 
L 161.065853 65.991344 
L 161.573633 65.991344 
L 161.827524 65.733799 
L 162.335304 67.536566 
L 162.589194 64.961189 
L 162.843085 67.0215 
L 163.096975 66.763955 
L 163.350865 65.218733 
L 163.604755 66.50641 
L 163.858646 65.476278 
L 164.112536 66.50641 
L 164.366426 65.476278 
L 164.620316 68.309177 
L 164.874207 67.0215 
L 165.128097 66.763955 
L 165.381987 66.248889 
L 165.635877 66.248889 
L 165.889768 66.50641 
L 166.143658 67.794111 
L 166.397548 67.0215 
L 166.651438 66.763955 
L 166.905329 67.0215 
L 167.159219 68.566698 
L 167.413109 65.733799 
L 167.666999 67.0215 
L 167.92089 65.476278 
L 168.17478 67.279021 
L 168.42867 67.0215 
L 168.68256 67.0215 
L 168.936451 66.248889 
L 169.190341 67.536566 
L 169.444231 66.763955 
L 169.698121 67.0215 
L 169.952012 66.248889 
L 170.205902 64.961189 
L 170.713682 67.794111 
L 170.967573 65.733799 
L 171.221463 66.763955 
L 171.475353 66.248889 
L 171.729243 66.248889 
L 171.983134 67.536566 
L 172.237024 67.279021 
L 172.490914 65.991344 
L 172.744804 65.733799 
L 172.998695 66.50641 
L 173.252585 65.476278 
L 173.506475 66.50641 
L 173.760365 65.218733 
L 174.014256 66.763955 
L 174.268146 65.733799 
L 174.522036 67.0215 
L 174.775926 67.279021 
L 175.029817 65.476278 
L 175.283707 67.794111 
L 175.791488 65.733799 
L 176.045378 67.0215 
L 176.299268 65.733799 
L 176.553158 65.476278 
L 176.807049 67.0215 
L 177.060939 66.50641 
L 177.314829 64.703667 
L 177.82261 66.50641 
L 178.0765 66.248889 
L 178.33039 66.763955 
L 178.58428 65.991344 
L 178.838171 65.991344 
L 179.092061 66.248889 
L 179.345951 66.248889 
L 179.599841 65.476278 
L 179.853732 65.733799 
L 180.107622 66.50641 
L 180.361512 65.476278 
L 180.615402 65.476278 
L 180.869293 64.703667 
L 181.123183 66.248889 
L 181.377073 65.991344 
L 181.630963 67.0215 
L 181.884854 67.0215 
L 182.138744 66.50641 
L 182.392634 66.763955 
L 182.900415 66.248889 
L 183.154305 65.218733 
L 183.408195 65.476278 
L 183.662085 66.763955 
L 183.915976 65.218733 
L 184.169866 64.446122 
L 184.423756 66.763955 
L 184.677646 66.50641 
L 184.931537 67.0215 
L 185.185427 66.50641 
L 185.439317 65.476278 
L 185.693207 65.991344 
L 185.947098 65.991344 
L 186.200988 64.961189 
L 186.454878 65.733799 
L 186.708768 65.733799 
L 186.962659 64.961189 
L 187.216549 65.733799 
L 187.470439 65.218733 
L 187.724329 65.476278 
L 187.97822 66.50641 
L 188.486 67.0215 
L 188.73989 65.476278 
L 188.993781 65.218733 
L 189.247671 64.703667 
L 189.501561 66.248889 
L 190.263232 66.248889 
L 190.517122 65.991344 
L 190.771012 64.961189 
L 191.024903 65.218733 
L 191.278793 65.991344 
L 191.532683 65.218733 
L 191.786574 65.476278 
L 192.040464 65.218733 
L 192.294354 66.248889 
L 192.548244 65.218733 
L 192.802135 65.733799 
L 193.309915 65.733799 
L 193.563805 67.0215 
L 193.817696 65.218733 
L 194.071586 65.476278 
L 194.325476 65.476278 
L 194.579366 66.50641 
L 194.833257 65.476278 
L 195.087147 65.733799 
L 195.341037 65.733799 
L 195.594927 66.50641 
L 195.848818 65.991344 
L 196.102708 65.733799 
L 196.356598 66.763955 
L 196.610488 65.733799 
L 197.118269 66.248889 
L 197.372159 65.733799 
L 197.626049 65.733799 
L 197.87994 65.991344 
L 198.13383 65.991344 
L 198.38772 66.763955 
L 198.64161 65.733799 
L 198.895501 65.218733 
L 199.149391 65.733799 
L 199.403281 64.703667 
L 199.657171 65.733799 
L 199.911062 65.733799 
L 200.164952 65.991344 
L 200.418842 66.763955 
L 200.672732 65.991344 
L 200.926623 65.991344 
L 201.180513 65.733799 
L 201.434403 66.763955 
L 201.688293 66.248889 
L 202.196074 65.733799 
L 202.703854 66.763955 
L 202.957745 65.218733 
L 203.211635 65.733799 
L 203.465525 66.763955 
L 203.719415 64.961189 
L 204.227196 66.763955 
L 204.481086 66.50641 
L 204.734976 66.50641 
L 204.988867 66.248889 
L 205.242757 67.0215 
L 205.496647 67.0215 
L 205.750537 66.248889 
L 206.004428 65.991344 
L 206.258318 65.991344 
L 206.512208 66.763955 
L 206.766098 66.248889 
L 207.019989 66.763955 
L 207.273879 66.248889 
L 207.527769 66.50641 
L 207.78166 65.733799 
L 208.03555 66.248889 
L 208.28944 66.50641 
L 208.54333 66.50641 
L 208.797221 66.248889 
L 209.305001 64.961189 
L 209.812782 66.248889 
L 210.066672 66.763955 
L 210.320562 66.50641 
L 210.574452 66.763955 
L 210.828343 65.733799 
L 211.082233 66.248889 
L 211.336123 67.0215 
L 211.590013 66.763955 
L 211.843904 65.991344 
L 212.097794 66.248889 
L 212.351684 66.763955 
L 212.605574 66.50641 
L 212.859465 65.991344 
L 213.621135 66.763955 
L 213.875026 66.248889 
L 214.128916 67.0215 
L 214.382806 67.0215 
L 214.636696 65.991344 
L 214.890587 66.763955 
L 215.144477 67.0215 
L 215.398367 66.763955 
L 215.652257 67.0215 
L 216.160038 66.50641 
L 216.667818 67.0215 
L 216.921709 66.763955 
L 217.175599 65.991344 
L 217.429489 67.0215 
L 217.683379 66.763955 
L 217.93727 66.763955 
L 218.19116 66.50641 
L 218.44505 66.50641 
L 218.69894 65.476278 
L 218.952831 65.991344 
L 219.206721 66.763955 
L 219.460611 66.50641 
L 219.714501 65.733799 
L 220.222282 67.0215 
L 220.730062 67.0215 
L 220.983953 67.279021 
L 221.745623 66.50641 
L 221.999514 66.763955 
L 222.253404 66.763955 
L 222.761184 66.248889 
L 223.522855 66.248889 
L 223.776745 65.991344 
L 224.030636 65.991344 
L 224.284526 66.50641 
L 224.538416 65.733799 
L 224.792307 66.50641 
L 225.046197 66.50641 
L 225.300087 67.0215 
L 225.553977 65.991344 
L 225.807868 65.733799 
L 226.061758 66.50641 
L 226.315648 65.991344 
L 227.331209 65.991344 
L 227.585099 66.763955 
L 228.09288 66.763955 
L 228.34677 66.50641 
L 228.60066 66.763955 
L 228.854551 66.763955 
L 229.108441 66.50641 
L 229.362331 66.763955 
L 229.616221 66.248889 
L 229.870112 66.763955 
L 230.124002 66.50641 
L 230.377892 66.50641 
L 230.631782 65.733799 
L 230.885673 66.763955 
L 231.139563 66.50641 
L 231.393453 66.763955 
L 231.647343 66.763955 
L 231.901234 66.50641 
L 232.155124 66.763955 
L 233.424575 66.763955 
L 233.678465 66.50641 
L 233.932356 66.50641 
L 234.440136 67.0215 
L 234.694026 67.0215 
L 234.947917 66.763955 
L 235.709587 66.763955 
L 235.963478 66.248889 
L 236.217368 66.763955 
L 236.979039 65.991344 
L 237.232929 66.50641 
L 237.486819 66.50641 
L 237.740709 66.763955 
L 237.9946 66.248889 
L 238.24849 65.991344 
L 238.50238 66.50641 
L 240.025722 66.50641 
L 240.279612 66.248889 
L 240.787393 66.763955 
L 241.041283 65.991344 
L 241.295173 65.991344 
L 241.549063 66.50641 
L 242.056844 66.50641 
L 242.310734 66.248889 
L 242.564624 66.50641 
L 242.818515 66.50641 
L 243.072405 66.248889 
L 243.326295 66.50641 
L 243.580185 66.50641 
L 243.834076 66.248889 
L 245.611307 66.248889 
L 245.865198 65.991344 
L 246.119088 66.248889 
L 246.880759 66.248889 
L 247.134649 66.50641 
L 247.388539 66.50641 
L 247.642429 66.248889 
L 248.65799 66.248889 
L 248.911881 65.991344 
L 249.419661 66.50641 
L 250.181332 66.50641 
L 250.435222 66.763955 
L 250.689112 66.248889 
L 250.943003 65.991344 
L 251.196893 66.248889 
L 253.228015 66.248889 
L 253.481905 66.50641 
L 253.735795 66.248889 
L 255.259137 66.248889 
L 255.513027 66.50641 
L 257.79804 66.50641 
L 258.05193 66.763955 
L 258.30582 66.50641 
L 264.906967 66.50641 
L 265.160857 66.248889 
L 265.922528 66.248889 
L 266.176418 66.50641 
L 273.539235 66.50641 
L 273.793126 66.248889 
L 274.047016 66.50641 
L 277.85537 66.50641 
L 278.10926 66.248889 
L 278.36315 66.50641 
L 278.61704 66.248889 
L 279.124821 66.248889 
L 279.378711 66.50641 
L 293.342675 66.50641 
L 293.596565 66.248889 
L 293.850456 66.50641 
L 296.389358 66.50641 
L 296.643248 66.248889 
L 296.897139 66.248889 
L 297.151029 66.50641 
L 310.099432 66.50641 
L 310.099432 66.50641 
" clip-path="url(#p07316b701b)" style="fill: none; stroke: #ff0000; stroke-width: 0.6; stroke-linecap: square"/>
   </g>
   <g id="patch_3">
    <path d="M 43.78125 239.76 
L 43.78125 37.296 
" style="fill: none; stroke: #000000; stroke-width: 0.8; stroke-linejoin: miter; stroke-linecap: square"/>
   </g>
   <g id="patch_4">
    <path d="M 322.78125 239.76 
L 322.78125 37.296 
" style="fill: none; stroke: #000000; stroke-width: 0.8; stroke-linejoin: miter; stroke-linecap: square"/>
   </g>
   <g id="patch_5">
    <path d="M 43.78125 239.76 
L 322.78125 239.76 
" style="fill: none; stroke: #000000; stroke-width: 0.8; stroke-linejoin: miter; stroke-linecap: square"/>
   </g>
   <g id="patch_6">
    <path d="M 43.78125 37.296 
L 322.78125 37.296 
" style="fill: none; stroke: #000000; stroke-width: 0.8; stroke-linejoin: miter; stroke-linecap: square"/>
   </g>
   <g id="text_14">
    <!-- Constrained Model -->
    <g transform="translate(141.147891 31.296) scale(0.09 -0.09)">
     <defs>
      <path id="DejaVuSans-43" d="M 4122 4306 
L 4122 3641 
Q 3803 3938 3442 4084 
Q 3081 4231 2675 4231 
Q 1875 4231 1450 3742 
Q 1025 3253 1025 2328 
Q 1025 1406 1450 917 
Q 1875 428 2675 428 
Q 3081 428 3442 575 
Q 3803 722 4122 1019 
L 4122 359 
Q 3791 134 3420 21 
Q 3050 -91 2638 -91 
Q 1578 -91 968 557 
Q 359 1206 359 2328 
Q 359 3453 968 4101 
Q 1578 4750 2638 4750 
Q 3056 4750 3426 4639 
Q 3797 4528 4122 4306 
z
" transform="scale(0.015625)"/>
      <path id="DejaVuSans-6e" d="M 3513 2113 
L 3513 0 
L 2938 0 
L 2938 2094 
Q 2938 2591 2744 2837 
Q 2550 3084 2163 3084 
Q 1697 3084 1428 2787 
Q 1159 2491 1159 1978 
L 1159 0 
L 581 0 
L 581 3500 
L 1159 3500 
L 1159 2956 
Q 1366 3272 1645 3428 
Q 1925 3584 2291 3584 
Q 2894 3584 3203 3211 
Q 3513 2838 3513 2113 
z
" transform="scale(0.015625)"/>
      <path id="DejaVuSans-74" d="M 1172 4494 
L 1172 3500 
L 2356 3500 
L 2356 3053 
L 1172 3053 
L 1172 1153 
Q 1172 725 1289 603 
Q 1406 481 1766 481 
L 2356 481 
L 2356 0 
L 1766 0 
Q 1100 0 847 248 
Q 594 497 594 1153 
L 594 3053 
L 172 3053 
L 172 3500 
L 594 3500 
L 594 4494 
L 1172 4494 
z
" transform="scale(0.015625)"/>
      <path id="DejaVuSans-69" d="M 603 3500 
L 1178 3500 
L 1178 0 
L 603 0 
L 603 3500 
z
M 603 4863 
L 1178 4863 
L 1178 4134 
L 603 4134 
L 603 4863 
z
" transform="scale(0.015625)"/>
      <path id="DejaVuSans-65" d="M 3597 1894 
L 3597 1613 
L 953 1613 
Q 991 1019 1311 708 
Q 1631 397 2203 397 
Q 2534 397 2845 478 
Q 3156 559 3463 722 
L 3463 178 
Q 3153 47 2828 -22 
Q 2503 -91 2169 -91 
Q 1331 -91 842 396 
Q 353 884 353 1716 
Q 353 2575 817 3079 
Q 1281 3584 2069 3584 
Q 2775 3584 3186 3129 
Q 3597 2675 3597 1894 
z
M 3022 2063 
Q 3016 2534 2758 2815 
Q 2500 3097 2075 3097 
Q 1594 3097 1305 2825 
Q 1016 2553 972 2059 
L 3022 2063 
z
" transform="scale(0.015625)"/>
      <path id="DejaVuSans-64" d="M 2906 2969 
L 2906 4863 
L 3481 4863 
L 3481 0 
L 2906 0 
L 2906 525 
Q 2725 213 2448 61 
Q 2172 -91 1784 -91 
Q 1150 -91 751 415 
Q 353 922 353 1747 
Q 353 2572 751 3078 
Q 1150 3584 1784 3584 
Q 2172 3584 2448 3432 
Q 2725 3281 2906 2969 
z
M 947 1747 
Q 947 1113 1208 752 
Q 1469 391 1925 391 
Q 2381 391 2643 752 
Q 2906 1113 2906 1747 
Q 2906 2381 2643 2742 
Q 2381 3103 1925 3103 
Q 1469 3103 1208 2742 
Q 947 2381 947 1747 
z
" transform="scale(0.015625)"/>
      <path id="DejaVuSans-20" transform="scale(0.015625)"/>
      <path id="DejaVuSans-4d" d="M 628 4666 
L 1569 4666 
L 2759 1491 
L 3956 4666 
L 4897 4666 
L 4897 0 
L 4281 0 
L 4281 4097 
L 3078 897 
L 2444 897 
L 1241 4097 
L 1241 0 
L 628 0 
L 628 4666 
z
" transform="scale(0.015625)"/>
      <path id="DejaVuSans-6c" d="M 603 4863 
L 1178 4863 
L 1178 0 
L 603 0 
L 603 4863 
z
" transform="scale(0.015625)"/>
     </defs>
     <use xlink:href="#DejaVuSans-43"/>
     <use xlink:href="#DejaVuSans-6f" x="69.824219"/>
     <use xlink:href="#DejaVuSans-6e" x="131.005859"/>
     <use xlink:href="#DejaVuSans-73" x="194.384766"/>
     <use xlink:href="#DejaVuSans-74" x="246.484375"/>
     <use xlink:href="#DejaVuSans-72" x="285.693359"/>
     <use xlink:href="#DejaVuSans-61" x="326.806641"/>
     <use xlink:href="#DejaVuSans-69" x="388.085938"/>
     <use xlink:href="#DejaVuSans-6e" x="415.869141"/>
     <use xlink:href="#DejaVuSans-65" x="479.248047"/>
     <use xlink:href="#DejaVuSans-64" x="540.771484"/>
     <use xlink:href="#DejaVuSans-20" x="604.248047"/>
     <use xlink:href="#DejaVuSans-4d" x="636.035156"/>
     <use xlink:href="#DejaVuSans-6f" x="722.314453"/>
     <use xlink:href="#DejaVuSans-64" x="783.496094"/>
     <use xlink:href="#DejaVuSans-65" x="846.972656"/>
     <use xlink:href="#DejaVuSans-6c" x="908.496094"/>
    </g>
   </g>
   <g id="legend_1">
    <g id="patch_7">
     <path d="M 185.565625 234.76 
L 315.78125 234.76 
Q 317.78125 234.76 317.78125 232.76 
L 317.78125 204.40375 
Q 317.78125 202.40375 315.78125 202.40375 
L 185.565625 202.40375 
Q 183.565625 202.40375 183.565625 204.40375 
L 183.565625 232.76 
Q 183.565625 234.76 185.565625 234.76 
z
" style="fill: #ffffff; opacity: 0.8; stroke: #cccccc; stroke-linejoin: miter"/>
    </g>
    <g id="line2d_25">
     <path d="M 187.565625 210.502187 
L 197.565625 210.502187 
L 207.565625 210.502187 
" style="fill: none; stroke: #0000ff; stroke-width: 0.6; stroke-linecap: square"/>
    </g>
    <g id="text_15">
     <!-- Training Accuracy -->
     <g transform="translate(215.565625 214.002187) scale(0.1 -0.1)">
      <defs>
       <path id="DejaVuSans-54" d="M -19 4666 
L 3928 4666 
L 3928 4134 
L 2272 4134 
L 2272 0 
L 1638 0 
L 1638 4134 
L -19 4134 
L -19 4666 
z
" transform="scale(0.015625)"/>
       <path id="DejaVuSans-67" d="M 2906 1791 
Q 2906 2416 2648 2759 
Q 2391 3103 1925 3103 
Q 1463 3103 1205 2759 
Q 947 2416 947 1791 
Q 947 1169 1205 825 
Q 1463 481 1925 481 
Q 2391 481 2648 825 
Q 2906 1169 2906 1791 
z
M 3481 434 
Q 3481 -459 3084 -895 
Q 2688 -1331 1869 -1331 
Q 1566 -1331 1297 -1286 
Q 1028 -1241 775 -1147 
L 775 -588 
Q 1028 -725 1275 -790 
Q 1522 -856 1778 -856 
Q 2344 -856 2625 -561 
Q 2906 -266 2906 331 
L 2906 616 
Q 2728 306 2450 153 
Q 2172 0 1784 0 
Q 1141 0 747 490 
Q 353 981 353 1791 
Q 353 2603 747 3093 
Q 1141 3584 1784 3584 
Q 2172 3584 2450 3431 
Q 2728 3278 2906 2969 
L 2906 3500 
L 3481 3500 
L 3481 434 
z
" transform="scale(0.015625)"/>
      </defs>
      <use xlink:href="#DejaVuSans-54"/>
      <use xlink:href="#DejaVuSans-72" x="46.333984"/>
      <use xlink:href="#DejaVuSans-61" x="87.447266"/>
      <use xlink:href="#DejaVuSans-69" x="148.726562"/>
      <use xlink:href="#DejaVuSans-6e" x="176.509766"/>
      <use xlink:href="#DejaVuSans-69" x="239.888672"/>
      <use xlink:href="#DejaVuSans-6e" x="267.671875"/>
      <use xlink:href="#DejaVuSans-67" x="331.050781"/>
      <use xlink:href="#DejaVuSans-20" x="394.527344"/>
      <use xlink:href="#DejaVuSans-41" x="426.314453"/>
      <use xlink:href="#DejaVuSans-63" x="492.972656"/>
      <use xlink:href="#DejaVuSans-63" x="547.953125"/>
      <use xlink:href="#DejaVuSans-75" x="602.933594"/>
      <use xlink:href="#DejaVuSans-72" x="666.3125"/>
      <use xlink:href="#DejaVuSans-61" x="707.425781"/>
      <use xlink:href="#DejaVuSans-63" x="768.705078"/>
      <use xlink:href="#DejaVuSans-79" x="823.685547"/>
     </g>
    </g>
    <g id="line2d_26">
     <path d="M 187.565625 225.180312 
L 197.565625 225.180312 
L 207.565625 225.180312 
" style="fill: none; stroke: #ff0000; stroke-width: 0.6; stroke-linecap: square"/>
    </g>
    <g id="text_16">
     <!-- Validation Accuracy -->
     <g transform="translate(215.565625 228.680312) scale(0.1 -0.1)">
      <defs>
       <path id="DejaVuSans-56" d="M 1831 0 
L 50 4666 
L 709 4666 
L 2188 738 
L 3669 4666 
L 4325 4666 
L 2547 0 
L 1831 0 
z
" transform="scale(0.015625)"/>
      </defs>
      <use xlink:href="#DejaVuSans-56"/>
      <use xlink:href="#DejaVuSans-61" x="60.658203"/>
      <use xlink:href="#DejaVuSans-6c" x="121.9375"/>
      <use xlink:href="#DejaVuSans-69" x="149.720703"/>
      <use xlink:href="#DejaVuSans-64" x="177.503906"/>
      <use xlink:href="#DejaVuSans-61" x="240.980469"/>
      <use xlink:href="#DejaVuSans-74" x="302.259766"/>
      <use xlink:href="#DejaVuSans-69" x="341.46875"/>
      <use xlink:href="#DejaVuSans-6f" x="369.251953"/>
      <use xlink:href="#DejaVuSans-6e" x="430.433594"/>
      <use xlink:href="#DejaVuSans-20" x="493.8125"/>
      <use xlink:href="#DejaVuSans-41" x="525.599609"/>
      <use xlink:href="#DejaVuSans-63" x="592.257812"/>
      <use xlink:href="#DejaVuSans-63" x="647.238281"/>
      <use xlink:href="#DejaVuSans-75" x="702.21875"/>
      <use xlink:href="#DejaVuSans-72" x="765.597656"/>
      <use xlink:href="#DejaVuSans-61" x="806.710938"/>
      <use xlink:href="#DejaVuSans-63" x="867.990234"/>
      <use xlink:href="#DejaVuSans-79" x="922.970703"/>
     </g>
    </g>
   </g>
  </g>
  <g id="text_17">
   <!-- Training VS. Validation Accuracy - Dataset Size = 100.0% -->
   <g transform="translate(21.433984 15.558281) scale(0.11 -0.11)">
    <defs>
     <path id="DejaVuSans-53" d="M 3425 4513 
L 3425 3897 
Q 3066 4069 2747 4153 
Q 2428 4238 2131 4238 
Q 1616 4238 1336 4038 
Q 1056 3838 1056 3469 
Q 1056 3159 1242 3001 
Q 1428 2844 1947 2747 
L 2328 2669 
Q 3034 2534 3370 2195 
Q 3706 1856 3706 1288 
Q 3706 609 3251 259 
Q 2797 -91 1919 -91 
Q 1588 -91 1214 -16 
Q 841 59 441 206 
L 441 856 
Q 825 641 1194 531 
Q 1563 422 1919 422 
Q 2459 422 2753 634 
Q 3047 847 3047 1241 
Q 3047 1584 2836 1778 
Q 2625 1972 2144 2069 
L 1759 2144 
Q 1053 2284 737 2584 
Q 422 2884 422 3419 
Q 422 4038 858 4394 
Q 1294 4750 2059 4750 
Q 2388 4750 2728 4690 
Q 3069 4631 3425 4513 
z
" transform="scale(0.015625)"/>
     <path id="DejaVuSans-2d" d="M 313 2009 
L 1997 2009 
L 1997 1497 
L 313 1497 
L 313 2009 
z
" transform="scale(0.015625)"/>
     <path id="DejaVuSans-44" d="M 1259 4147 
L 1259 519 
L 2022 519 
Q 2988 519 3436 956 
Q 3884 1394 3884 2338 
Q 3884 3275 3436 3711 
Q 2988 4147 2022 4147 
L 1259 4147 
z
M 628 4666 
L 1925 4666 
Q 3281 4666 3915 4102 
Q 4550 3538 4550 2338 
Q 4550 1131 3912 565 
Q 3275 0 1925 0 
L 628 0 
L 628 4666 
z
" transform="scale(0.015625)"/>
     <path id="DejaVuSans-7a" d="M 353 3500 
L 3084 3500 
L 3084 2975 
L 922 459 
L 3084 459 
L 3084 0 
L 275 0 
L 275 525 
L 2438 3041 
L 353 3041 
L 353 3500 
z
" transform="scale(0.015625)"/>
     <path id="DejaVuSans-3d" d="M 678 2906 
L 4684 2906 
L 4684 2381 
L 678 2381 
L 678 2906 
z
M 678 1631 
L 4684 1631 
L 4684 1100 
L 678 1100 
L 678 1631 
z
" transform="scale(0.015625)"/>
     <path id="DejaVuSans-25" d="M 4653 2053 
Q 4381 2053 4226 1822 
Q 4072 1591 4072 1178 
Q 4072 772 4226 539 
Q 4381 306 4653 306 
Q 4919 306 5073 539 
Q 5228 772 5228 1178 
Q 5228 1588 5073 1820 
Q 4919 2053 4653 2053 
z
M 4653 2450 
Q 5147 2450 5437 2106 
Q 5728 1763 5728 1178 
Q 5728 594 5436 251 
Q 5144 -91 4653 -91 
Q 4153 -91 3862 251 
Q 3572 594 3572 1178 
Q 3572 1766 3864 2108 
Q 4156 2450 4653 2450 
z
M 1428 4353 
Q 1159 4353 1004 4120 
Q 850 3888 850 3481 
Q 850 3069 1003 2837 
Q 1156 2606 1428 2606 
Q 1700 2606 1854 2837 
Q 2009 3069 2009 3481 
Q 2009 3884 1853 4118 
Q 1697 4353 1428 4353 
z
M 4250 4750 
L 4750 4750 
L 1831 -91 
L 1331 -91 
L 4250 4750 
z
M 1428 4750 
Q 1922 4750 2215 4408 
Q 2509 4066 2509 3481 
Q 2509 2891 2217 2550 
Q 1925 2209 1428 2209 
Q 931 2209 642 2551 
Q 353 2894 353 3481 
Q 353 4063 643 4406 
Q 934 4750 1428 4750 
z
" transform="scale(0.015625)"/>
    </defs>
    <use xlink:href="#DejaVuSans-54"/>
    <use xlink:href="#DejaVuSans-72" x="46.333984"/>
    <use xlink:href="#DejaVuSans-61" x="87.447266"/>
    <use xlink:href="#DejaVuSans-69" x="148.726562"/>
    <use xlink:href="#DejaVuSans-6e" x="176.509766"/>
    <use xlink:href="#DejaVuSans-69" x="239.888672"/>
    <use xlink:href="#DejaVuSans-6e" x="267.671875"/>
    <use xlink:href="#DejaVuSans-67" x="331.050781"/>
    <use xlink:href="#DejaVuSans-20" x="394.527344"/>
    <use xlink:href="#DejaVuSans-56" x="426.314453"/>
    <use xlink:href="#DejaVuSans-53" x="494.722656"/>
    <use xlink:href="#DejaVuSans-2e" x="558.199219"/>
    <use xlink:href="#DejaVuSans-20" x="589.986328"/>
    <use xlink:href="#DejaVuSans-56" x="621.773438"/>
    <use xlink:href="#DejaVuSans-61" x="682.431641"/>
    <use xlink:href="#DejaVuSans-6c" x="743.710938"/>
    <use xlink:href="#DejaVuSans-69" x="771.494141"/>
    <use xlink:href="#DejaVuSans-64" x="799.277344"/>
    <use xlink:href="#DejaVuSans-61" x="862.753906"/>
    <use xlink:href="#DejaVuSans-74" x="924.033203"/>
    <use xlink:href="#DejaVuSans-69" x="963.242188"/>
    <use xlink:href="#DejaVuSans-6f" x="991.025391"/>
    <use xlink:href="#DejaVuSans-6e" x="1052.207031"/>
    <use xlink:href="#DejaVuSans-20" x="1115.585938"/>
    <use xlink:href="#DejaVuSans-41" x="1147.373047"/>
    <use xlink:href="#DejaVuSans-63" x="1214.03125"/>
    <use xlink:href="#DejaVuSans-63" x="1269.011719"/>
    <use xlink:href="#DejaVuSans-75" x="1323.992188"/>
    <use xlink:href="#DejaVuSans-72" x="1387.371094"/>
    <use xlink:href="#DejaVuSans-61" x="1428.484375"/>
    <use xlink:href="#DejaVuSans-63" x="1489.763672"/>
    <use xlink:href="#DejaVuSans-79" x="1544.744141"/>
    <use xlink:href="#DejaVuSans-20" x="1603.923828"/>
    <use xlink:href="#DejaVuSans-2d" x="1635.710938"/>
    <use xlink:href="#DejaVuSans-20" x="1671.794922"/>
    <use xlink:href="#DejaVuSans-44" x="1703.582031"/>
    <use xlink:href="#DejaVuSans-61" x="1780.583984"/>
    <use xlink:href="#DejaVuSans-74" x="1841.863281"/>
    <use xlink:href="#DejaVuSans-61" x="1881.072266"/>
    <use xlink:href="#DejaVuSans-73" x="1942.351562"/>
    <use xlink:href="#DejaVuSans-65" x="1994.451172"/>
    <use xlink:href="#DejaVuSans-74" x="2055.974609"/>
    <use xlink:href="#DejaVuSans-20" x="2095.183594"/>
    <use xlink:href="#DejaVuSans-53" x="2126.970703"/>
    <use xlink:href="#DejaVuSans-69" x="2190.447266"/>
    <use xlink:href="#DejaVuSans-7a" x="2218.230469"/>
    <use xlink:href="#DejaVuSans-65" x="2270.720703"/>
    <use xlink:href="#DejaVuSans-20" x="2332.244141"/>
    <use xlink:href="#DejaVuSans-3d" x="2364.03125"/>
    <use xlink:href="#DejaVuSans-20" x="2447.820312"/>
    <use xlink:href="#DejaVuSans-31" x="2479.607422"/>
    <use xlink:href="#DejaVuSans-30" x="2543.230469"/>
    <use xlink:href="#DejaVuSans-30" x="2606.853516"/>
    <use xlink:href="#DejaVuSans-2e" x="2670.476562"/>
    <use xlink:href="#DejaVuSans-30" x="2702.263672"/>
    <use xlink:href="#DejaVuSans-25" x="2765.886719"/>
   </g>
  </g>
 </g>
 <defs>
  <clipPath id="p07316b701b">
   <rect x="43.78125" y="37.296" width="279" height="202.464"/>
  </clipPath>
 </defs>
</svg>
