<?xml version="1.0" encoding="utf-8" standalone="no"?>
<!DOCTYPE svg PUBLIC "-//W3C//DTD SVG 1.1//EN"
  "http://www.w3.org/Graphics/SVG/1.1/DTD/svg11.dtd">
<svg xmlns:xlink="http://www.w3.org/1999/xlink" width="349.691016pt" height="277.31625pt" viewBox="0 0 349.691016 277.31625" xmlns="http://www.w3.org/2000/svg" version="1.1">
 <metadata>
  <rdf:RDF xmlns:dc="http://purl.org/dc/elements/1.1/" xmlns:cc="http://creativecommons.org/ns#" xmlns:rdf="http://www.w3.org/1999/02/22-rdf-syntax-ns#">
   <cc:Work>
    <dc:type rdf:resource="http://purl.org/dc/dcmitype/StillImage"/>
    <dc:date>2026-06-11T17:58:41.513213</dc:date>
    <dc:format>image/svg+xml</dc:format>
    <dc:creator>
     <cc:Agent>
      <dc:title>Matplotlib v3.8.4, https://matplotlib.org/</dc:title>
     </cc:Agent>
    </dc:creator>
   </cc:Work>
  </rdf:RDF>
 </metadata>
 <defs>
  <style type="text/css">*{stroke-linejoin: round; stroke-linecap: butt}</style>
 </defs>
 <g id="figure_1">
  <g id="patch_1">
   <path d="M 0 277.31625 
L 349.691016 277.31625 
L 349.691016 0 
L 0 0 
z
" style="fill: #ffffff"/>
  </g>
  <g id="axes_1">
   <g id="patch_2">
    <path d="M 50.14375 239.76 
L 329.14375 239.76 
L 329.14375 37.296 
L 50.14375 37.296 
z
" style="fill: #ffffff"/>
   </g>
   <g id="matplotlib.axis_1">
    <g id="xtick_1">
     <g id="line2d_1">
      <path d="M 62.571678 239.76 
L 62.571678 37.296 
" clip-path="url(#p49e90164bf)" style="fill: none; stroke-dasharray: 2.96,1.28; stroke-dashoffset: 0; stroke: #b0b0b0; stroke-opacity: 0.4; stroke-width: 0.8"/>
     </g>
     <g id="line2d_2">
      <defs>
       <path id="m6ebc47441f" d="M 0 0 
L 0 3.5 
" style="stroke: #000000; stroke-width: 0.8"/>
      </defs>
      <g>
       <use xlink:href="#m6ebc47441f" x="62.571678" y="239.76" style="stroke: #000000; stroke-width: 0.8"/>
      </g>
     </g>
     <g id="text_1">
      <!-- 0 -->
      <g transform="translate(59.390428 254.358437) scale(0.1 -0.1)">
       <defs>
        <path id="DejaVuSans-30" d="M 2034 4250 
Q 1547 4250 1301 3770 
Q 1056 3291 1056 2328 
Q 1056 1369 1301 889 
Q 1547 409 2034 409 
Q 2525 409 2770 889 
Q 3016 1369 3016 2328 
Q 3016 3291 2770 3770 
Q 2525 4250 2034 4250 
z
M 2034 4750 
Q 2819 4750 3233 4129 
Q 3647 3509 3647 2328 
Q 3647 1150 3233 529 
Q 2819 -91 2034 -91 
Q 1250 -91 836 529 
Q 422 1150 422 2328 
Q 422 3509 836 4129 
Q 1250 4750 2034 4750 
z
" transform="scale(0.015625)"/>
       </defs>
       <use xlink:href="#DejaVuSans-30"/>
      </g>
     </g>
    </g>
    <g id="xtick_2">
     <g id="line2d_3">
      <path d="M 113.349729 239.76 
L 113.349729 37.296 
" clip-path="url(#p49e90164bf)" style="fill: none; stroke-dasharray: 2.96,1.28; stroke-dashoffset: 0; stroke: #b0b0b0; stroke-opacity: 0.4; stroke-width: 0.8"/>
     </g>
     <g id="line2d_4">
      <g>
       <use xlink:href="#m6ebc47441f" x="113.349729" y="239.76" style="stroke: #000000; stroke-width: 0.8"/>
      </g>
     </g>
     <g id="text_2">
      <!-- 200 -->
      <g transform="translate(103.805979 254.358437) scale(0.1 -0.1)">
       <defs>
        <path id="DejaVuSans-32" d="M 1228 531 
L 3431 531 
L 3431 0 
L 469 0 
L 469 531 
Q 828 903 1448 1529 
Q 2069 2156 2228 2338 
Q 2531 2678 2651 2914 
Q 2772 3150 2772 3378 
Q 2772 3750 2511 3984 
Q 2250 4219 1831 4219 
Q 1534 4219 1204 4116 
Q 875 4013 500 3803 
L 500 4441 
Q 881 4594 1212 4672 
Q 1544 4750 1819 4750 
Q 2544 4750 2975 4387 
Q 3406 4025 3406 3419 
Q 3406 3131 3298 2873 
Q 3191 2616 2906 2266 
Q 2828 2175 2409 1742 
Q 1991 1309 1228 531 
z
" transform="scale(0.015625)"/>
       </defs>
       <use xlink:href="#DejaVuSans-32"/>
       <use xlink:href="#DejaVuSans-30" x="63.623047"/>
       <use xlink:href="#DejaVuSans-30" x="127.246094"/>
      </g>
     </g>
    </g>
    <g id="xtick_3">
     <g id="line2d_5">
      <path d="M 164.127779 239.76 
L 164.127779 37.296 
" clip-path="url(#p49e90164bf)" style="fill: none; stroke-dasharray: 2.96,1.28; stroke-dashoffset: 0; stroke: #b0b0b0; stroke-opacity: 0.4; stroke-width: 0.8"/>
     </g>
     <g id="line2d_6">
      <g>
       <use xlink:href="#m6ebc47441f" x="164.127779" y="239.76" style="stroke: #000000; stroke-width: 0.8"/>
      </g>
     </g>
     <g id="text_3">
      <!-- 400 -->
      <g transform="translate(154.584029 254.358437) scale(0.1 -0.1)">
       <defs>
        <path id="DejaVuSans-34" d="M 2419 4116 
L 825 1625 
L 2419 1625 
L 2419 4116 
z
M 2253 4666 
L 3047 4666 
L 3047 1625 
L 3713 1625 
L 3713 1100 
L 3047 1100 
L 3047 0 
L 2419 0 
L 2419 1100 
L 313 1100 
L 313 1709 
L 2253 4666 
z
" transform="scale(0.015625)"/>
       </defs>
       <use xlink:href="#DejaVuSans-34"/>
       <use xlink:href="#DejaVuSans-30" x="63.623047"/>
       <use xlink:href="#DejaVuSans-30" x="127.246094"/>
      </g>
     </g>
    </g>
    <g id="xtick_4">
     <g id="line2d_7">
      <path d="M 214.90583 239.76 
L 214.90583 37.296 
" clip-path="url(#p49e90164bf)" style="fill: none; stroke-dasharray: 2.96,1.28; stroke-dashoffset: 0; stroke: #b0b0b0; stroke-opacity: 0.4; stroke-width: 0.8"/>
     </g>
     <g id="line2d_8">
      <g>
       <use xlink:href="#m6ebc47441f" x="214.90583" y="239.76" style="stroke: #000000; stroke-width: 0.8"/>
      </g>
     </g>
     <g id="text_4">
      <!-- 600 -->
      <g transform="translate(205.36208 254.358437) scale(0.1 -0.1)">
       <defs>
        <path id="DejaVuSans-36" d="M 2113 2584 
Q 1688 2584 1439 2293 
Q 1191 2003 1191 1497 
Q 1191 994 1439 701 
Q 1688 409 2113 409 
Q 2538 409 2786 701 
Q 3034 994 3034 1497 
Q 3034 2003 2786 2293 
Q 2538 2584 2113 2584 
z
M 3366 4563 
L 3366 3988 
Q 3128 4100 2886 4159 
Q 2644 4219 2406 4219 
Q 1781 4219 1451 3797 
Q 1122 3375 1075 2522 
Q 1259 2794 1537 2939 
Q 1816 3084 2150 3084 
Q 2853 3084 3261 2657 
Q 3669 2231 3669 1497 
Q 3669 778 3244 343 
Q 2819 -91 2113 -91 
Q 1303 -91 875 529 
Q 447 1150 447 2328 
Q 447 3434 972 4092 
Q 1497 4750 2381 4750 
Q 2619 4750 2861 4703 
Q 3103 4656 3366 4563 
z
" transform="scale(0.015625)"/>
       </defs>
       <use xlink:href="#DejaVuSans-36"/>
       <use xlink:href="#DejaVuSans-30" x="63.623047"/>
       <use xlink:href="#DejaVuSans-30" x="127.246094"/>
      </g>
     </g>
    </g>
    <g id="xtick_5">
     <g id="line2d_9">
      <path d="M 265.683881 239.76 
L 265.683881 37.296 
" clip-path="url(#p49e90164bf)" style="fill: none; stroke-dasharray: 2.96,1.28; stroke-dashoffset: 0; stroke: #b0b0b0; stroke-opacity: 0.4; stroke-width: 0.8"/>
     </g>
     <g id="line2d_10">
      <g>
       <use xlink:href="#m6ebc47441f" x="265.683881" y="239.76" style="stroke: #000000; stroke-width: 0.8"/>
      </g>
     </g>
     <g id="text_5">
      <!-- 800 -->
      <g transform="translate(256.140131 254.358437) scale(0.1 -0.1)">
       <defs>
        <path id="DejaVuSans-38" d="M 2034 2216 
Q 1584 2216 1326 1975 
Q 1069 1734 1069 1313 
Q 1069 891 1326 650 
Q 1584 409 2034 409 
Q 2484 409 2743 651 
Q 3003 894 3003 1313 
Q 3003 1734 2745 1975 
Q 2488 2216 2034 2216 
z
M 1403 2484 
Q 997 2584 770 2862 
Q 544 3141 544 3541 
Q 544 4100 942 4425 
Q 1341 4750 2034 4750 
Q 2731 4750 3128 4425 
Q 3525 4100 3525 3541 
Q 3525 3141 3298 2862 
Q 3072 2584 2669 2484 
Q 3125 2378 3379 2068 
Q 3634 1759 3634 1313 
Q 3634 634 3220 271 
Q 2806 -91 2034 -91 
Q 1263 -91 848 271 
Q 434 634 434 1313 
Q 434 1759 690 2068 
Q 947 2378 1403 2484 
z
M 1172 3481 
Q 1172 3119 1398 2916 
Q 1625 2713 2034 2713 
Q 2441 2713 2670 2916 
Q 2900 3119 2900 3481 
Q 2900 3844 2670 4047 
Q 2441 4250 2034 4250 
Q 1625 4250 1398 4047 
Q 1172 3844 1172 3481 
z
" transform="scale(0.015625)"/>
       </defs>
       <use xlink:href="#DejaVuSans-38"/>
       <use xlink:href="#DejaVuSans-30" x="63.623047"/>
       <use xlink:href="#DejaVuSans-30" x="127.246094"/>
      </g>
     </g>
    </g>
    <g id="xtick_6">
     <g id="line2d_11">
      <path d="M 316.461932 239.76 
L 316.461932 37.296 
" clip-path="url(#p49e90164bf)" style="fill: none; stroke-dasharray: 2.96,1.28; stroke-dashoffset: 0; stroke: #b0b0b0; stroke-opacity: 0.4; stroke-width: 0.8"/>
     </g>
     <g id="line2d_12">
      <g>
       <use xlink:href="#m6ebc47441f" x="316.461932" y="239.76" style="stroke: #000000; stroke-width: 0.8"/>
      </g>
     </g>
     <g id="text_6">
      <!-- 1000 -->
      <g transform="translate(303.736932 254.358437) scale(0.1 -0.1)">
       <defs>
        <path id="DejaVuSans-31" d="M 794 531 
L 1825 531 
L 1825 4091 
L 703 3866 
L 703 4441 
L 1819 4666 
L 2450 4666 
L 2450 531 
L 3481 531 
L 3481 0 
L 794 0 
L 794 531 
z
" transform="scale(0.015625)"/>
       </defs>
       <use xlink:href="#DejaVuSans-31"/>
       <use xlink:href="#DejaVuSans-30" x="63.623047"/>
       <use xlink:href="#DejaVuSans-30" x="127.246094"/>
       <use xlink:href="#DejaVuSans-30" x="190.869141"/>
      </g>
     </g>
    </g>
    <g id="text_7">
     <!-- Epochs -->
     <g transform="translate(171.728125 268.036562) scale(0.1 -0.1)">
      <defs>
       <path id="DejaVuSans-45" d="M 628 4666 
L 3578 4666 
L 3578 4134 
L 1259 4134 
L 1259 2753 
L 3481 2753 
L 3481 2222 
L 1259 2222 
L 1259 531 
L 3634 531 
L 3634 0 
L 628 0 
L 628 4666 
z
" transform="scale(0.015625)"/>
       <path id="DejaVuSans-70" d="M 1159 525 
L 1159 -1331 
L 581 -1331 
L 581 3500 
L 1159 3500 
L 1159 2969 
Q 1341 3281 1617 3432 
Q 1894 3584 2278 3584 
Q 2916 3584 3314 3078 
Q 3713 2572 3713 1747 
Q 3713 922 3314 415 
Q 2916 -91 2278 -91 
Q 1894 -91 1617 61 
Q 1341 213 1159 525 
z
M 3116 1747 
Q 3116 2381 2855 2742 
Q 2594 3103 2138 3103 
Q 1681 3103 1420 2742 
Q 1159 2381 1159 1747 
Q 1159 1113 1420 752 
Q 1681 391 2138 391 
Q 2594 391 2855 752 
Q 3116 1113 3116 1747 
z
" transform="scale(0.015625)"/>
       <path id="DejaVuSans-6f" d="M 1959 3097 
Q 1497 3097 1228 2736 
Q 959 2375 959 1747 
Q 959 1119 1226 758 
Q 1494 397 1959 397 
Q 2419 397 2687 759 
Q 2956 1122 2956 1747 
Q 2956 2369 2687 2733 
Q 2419 3097 1959 3097 
z
M 1959 3584 
Q 2709 3584 3137 3096 
Q 3566 2609 3566 1747 
Q 3566 888 3137 398 
Q 2709 -91 1959 -91 
Q 1206 -91 779 398 
Q 353 888 353 1747 
Q 353 2609 779 3096 
Q 1206 3584 1959 3584 
z
" transform="scale(0.015625)"/>
       <path id="DejaVuSans-63" d="M 3122 3366 
L 3122 2828 
Q 2878 2963 2633 3030 
Q 2388 3097 2138 3097 
Q 1578 3097 1268 2742 
Q 959 2388 959 1747 
Q 959 1106 1268 751 
Q 1578 397 2138 397 
Q 2388 397 2633 464 
Q 2878 531 3122 666 
L 3122 134 
Q 2881 22 2623 -34 
Q 2366 -91 2075 -91 
Q 1284 -91 818 406 
Q 353 903 353 1747 
Q 353 2603 823 3093 
Q 1294 3584 2113 3584 
Q 2378 3584 2631 3529 
Q 2884 3475 3122 3366 
z
" transform="scale(0.015625)"/>
       <path id="DejaVuSans-68" d="M 3513 2113 
L 3513 0 
L 2938 0 
L 2938 2094 
Q 2938 2591 2744 2837 
Q 2550 3084 2163 3084 
Q 1697 3084 1428 2787 
Q 1159 2491 1159 1978 
L 1159 0 
L 581 0 
L 581 4863 
L 1159 4863 
L 1159 2956 
Q 1366 3272 1645 3428 
Q 1925 3584 2291 3584 
Q 2894 3584 3203 3211 
Q 3513 2838 3513 2113 
z
" transform="scale(0.015625)"/>
       <path id="DejaVuSans-73" d="M 2834 3397 
L 2834 2853 
Q 2591 2978 2328 3040 
Q 2066 3103 1784 3103 
Q 1356 3103 1142 2972 
Q 928 2841 928 2578 
Q 928 2378 1081 2264 
Q 1234 2150 1697 2047 
L 1894 2003 
Q 2506 1872 2764 1633 
Q 3022 1394 3022 966 
Q 3022 478 2636 193 
Q 2250 -91 1575 -91 
Q 1294 -91 989 -36 
Q 684 19 347 128 
L 347 722 
Q 666 556 975 473 
Q 1284 391 1588 391 
Q 1994 391 2212 530 
Q 2431 669 2431 922 
Q 2431 1156 2273 1281 
Q 2116 1406 1581 1522 
L 1381 1569 
Q 847 1681 609 1914 
Q 372 2147 372 2553 
Q 372 3047 722 3315 
Q 1072 3584 1716 3584 
Q 2034 3584 2315 3537 
Q 2597 3491 2834 3397 
z
" transform="scale(0.015625)"/>
      </defs>
      <use xlink:href="#DejaVuSans-45"/>
      <use xlink:href="#DejaVuSans-70" x="63.183594"/>
      <use xlink:href="#DejaVuSans-6f" x="126.660156"/>
      <use xlink:href="#DejaVuSans-63" x="187.841797"/>
      <use xlink:href="#DejaVuSans-68" x="242.822266"/>
      <use xlink:href="#DejaVuSans-73" x="306.201172"/>
     </g>
    </g>
   </g>
   <g id="matplotlib.axis_2">
    <g id="ytick_1">
     <g id="line2d_13">
      <path d="M 50.14375 229.263103 
L 329.14375 229.263103 
" clip-path="url(#p49e90164bf)" style="fill: none; stroke-dasharray: 2.96,1.28; stroke-dashoffset: 0; stroke: #b0b0b0; stroke-opacity: 0.4; stroke-width: 0.8"/>
     </g>
     <g id="line2d_14">
      <defs>
       <path id="m4e199926c7" d="M 0 0 
L -3.5 0 
" style="stroke: #000000; stroke-width: 0.8"/>
      </defs>
      <g>
       <use xlink:href="#m4e199926c7" x="50.14375" y="229.263103" style="stroke: #000000; stroke-width: 0.8"/>
      </g>
     </g>
     <g id="text_8">
      <!-- 0.50 -->
      <g transform="translate(20.878125 233.062322) scale(0.1 -0.1)">
       <defs>
        <path id="DejaVuSans-2e" d="M 684 794 
L 1344 794 
L 1344 0 
L 684 0 
L 684 794 
z
" transform="scale(0.015625)"/>
        <path id="DejaVuSans-35" d="M 691 4666 
L 3169 4666 
L 3169 4134 
L 1269 4134 
L 1269 2991 
Q 1406 3038 1543 3061 
Q 1681 3084 1819 3084 
Q 2600 3084 3056 2656 
Q 3513 2228 3513 1497 
Q 3513 744 3044 326 
Q 2575 -91 1722 -91 
Q 1428 -91 1123 -41 
Q 819 9 494 109 
L 494 744 
Q 775 591 1075 516 
Q 1375 441 1709 441 
Q 2250 441 2565 725 
Q 2881 1009 2881 1497 
Q 2881 1984 2565 2268 
Q 2250 2553 1709 2553 
Q 1456 2553 1204 2497 
Q 953 2441 691 2322 
L 691 4666 
z
" transform="scale(0.015625)"/>
       </defs>
       <use xlink:href="#DejaVuSans-30"/>
       <use xlink:href="#DejaVuSans-2e" x="63.623047"/>
       <use xlink:href="#DejaVuSans-35" x="95.410156"/>
       <use xlink:href="#DejaVuSans-30" x="159.033203"/>
      </g>
     </g>
    </g>
    <g id="ytick_2">
     <g id="line2d_15">
      <path d="M 50.14375 204.677297 
L 329.14375 204.677297 
" clip-path="url(#p49e90164bf)" style="fill: none; stroke-dasharray: 2.96,1.28; stroke-dashoffset: 0; stroke: #b0b0b0; stroke-opacity: 0.4; stroke-width: 0.8"/>
     </g>
     <g id="line2d_16">
      <g>
       <use xlink:href="#m4e199926c7" x="50.14375" y="204.677297" style="stroke: #000000; stroke-width: 0.8"/>
      </g>
     </g>
     <g id="text_9">
      <!-- 0.55 -->
      <g transform="translate(20.878125 208.476516) scale(0.1 -0.1)">
       <use xlink:href="#DejaVuSans-30"/>
       <use xlink:href="#DejaVuSans-2e" x="63.623047"/>
       <use xlink:href="#DejaVuSans-35" x="95.410156"/>
       <use xlink:href="#DejaVuSans-35" x="159.033203"/>
      </g>
     </g>
    </g>
    <g id="ytick_3">
     <g id="line2d_17">
      <path d="M 50.14375 180.091491 
L 329.14375 180.091491 
" clip-path="url(#p49e90164bf)" style="fill: none; stroke-dasharray: 2.96,1.28; stroke-dashoffset: 0; stroke: #b0b0b0; stroke-opacity: 0.4; stroke-width: 0.8"/>
     </g>
     <g id="line2d_18">
      <g>
       <use xlink:href="#m4e199926c7" x="50.14375" y="180.091491" style="stroke: #000000; stroke-width: 0.8"/>
      </g>
     </g>
     <g id="text_10">
      <!-- 0.60 -->
      <g transform="translate(20.878125 183.89071) scale(0.1 -0.1)">
       <use xlink:href="#DejaVuSans-30"/>
       <use xlink:href="#DejaVuSans-2e" x="63.623047"/>
       <use xlink:href="#DejaVuSans-36" x="95.410156"/>
       <use xlink:href="#DejaVuSans-30" x="159.033203"/>
      </g>
     </g>
    </g>
    <g id="ytick_4">
     <g id="line2d_19">
      <path d="M 50.14375 155.505685 
L 329.14375 155.505685 
" clip-path="url(#p49e90164bf)" style="fill: none; stroke-dasharray: 2.96,1.28; stroke-dashoffset: 0; stroke: #b0b0b0; stroke-opacity: 0.4; stroke-width: 0.8"/>
     </g>
     <g id="line2d_20">
      <g>
       <use xlink:href="#m4e199926c7" x="50.14375" y="155.505685" style="stroke: #000000; stroke-width: 0.8"/>
      </g>
     </g>
     <g id="text_11">
      <!-- 0.65 -->
      <g transform="translate(20.878125 159.304904) scale(0.1 -0.1)">
       <use xlink:href="#DejaVuSans-30"/>
       <use xlink:href="#DejaVuSans-2e" x="63.623047"/>
       <use xlink:href="#DejaVuSans-36" x="95.410156"/>
       <use xlink:href="#DejaVuSans-35" x="159.033203"/>
      </g>
     </g>
    </g>
    <g id="ytick_5">
     <g id="line2d_21">
      <path d="M 50.14375 130.919879 
L 329.14375 130.919879 
" clip-path="url(#p49e90164bf)" style="fill: none; stroke-dasharray: 2.96,1.28; stroke-dashoffset: 0; stroke: #b0b0b0; stroke-opacity: 0.4; stroke-width: 0.8"/>
     </g>
     <g id="line2d_22">
      <g>
       <use xlink:href="#m4e199926c7" x="50.14375" y="130.919879" style="stroke: #000000; stroke-width: 0.8"/>
      </g>
     </g>
     <g id="text_12">
      <!-- 0.70 -->
      <g transform="translate(20.878125 134.719098) scale(0.1 -0.1)">
       <defs>
        <path id="DejaVuSans-37" d="M 525 4666 
L 3525 4666 
L 3525 4397 
L 1831 0 
L 1172 0 
L 2766 4134 
L 525 4134 
L 525 4666 
z
" transform="scale(0.015625)"/>
       </defs>
       <use xlink:href="#DejaVuSans-30"/>
       <use xlink:href="#DejaVuSans-2e" x="63.623047"/>
       <use xlink:href="#DejaVuSans-37" x="95.410156"/>
       <use xlink:href="#DejaVuSans-30" x="159.033203"/>
      </g>
     </g>
    </g>
    <g id="ytick_6">
     <g id="line2d_23">
      <path d="M 50.14375 106.334073 
L 329.14375 106.334073 
" clip-path="url(#p49e90164bf)" style="fill: none; stroke-dasharray: 2.96,1.28; stroke-dashoffset: 0; stroke: #b0b0b0; stroke-opacity: 0.4; stroke-width: 0.8"/>
     </g>
     <g id="line2d_24">
      <g>
       <use xlink:href="#m4e199926c7" x="50.14375" y="106.334073" style="stroke: #000000; stroke-width: 0.8"/>
      </g>
     </g>
     <g id="text_13">
      <!-- 0.75 -->
      <g transform="translate(20.878125 110.133292) scale(0.1 -0.1)">
       <use xlink:href="#DejaVuSans-30"/>
       <use xlink:href="#DejaVuSans-2e" x="63.623047"/>
       <use xlink:href="#DejaVuSans-37" x="95.410156"/>
       <use xlink:href="#DejaVuSans-35" x="159.033203"/>
      </g>
     </g>
    </g>
    <g id="ytick_7">
     <g id="line2d_25">
      <path d="M 50.14375 81.748267 
L 329.14375 81.748267 
" clip-path="url(#p49e90164bf)" style="fill: none; stroke-dasharray: 2.96,1.28; stroke-dashoffset: 0; stroke: #b0b0b0; stroke-opacity: 0.4; stroke-width: 0.8"/>
     </g>
     <g id="line2d_26">
      <g>
       <use xlink:href="#m4e199926c7" x="50.14375" y="81.748267" style="stroke: #000000; stroke-width: 0.8"/>
      </g>
     </g>
     <g id="text_14">
      <!-- 0.80 -->
      <g transform="translate(20.878125 85.547486) scale(0.1 -0.1)">
       <use xlink:href="#DejaVuSans-30"/>
       <use xlink:href="#DejaVuSans-2e" x="63.623047"/>
       <use xlink:href="#DejaVuSans-38" x="95.410156"/>
       <use xlink:href="#DejaVuSans-30" x="159.033203"/>
      </g>
     </g>
    </g>
    <g id="ytick_8">
     <g id="line2d_27">
      <path d="M 50.14375 57.162461 
L 329.14375 57.162461 
" clip-path="url(#p49e90164bf)" style="fill: none; stroke-dasharray: 2.96,1.28; stroke-dashoffset: 0; stroke: #b0b0b0; stroke-opacity: 0.4; stroke-width: 0.8"/>
     </g>
     <g id="line2d_28">
      <g>
       <use xlink:href="#m4e199926c7" x="50.14375" y="57.162461" style="stroke: #000000; stroke-width: 0.8"/>
      </g>
     </g>
     <g id="text_15">
      <!-- 0.85 -->
      <g transform="translate(20.878125 60.96168) scale(0.1 -0.1)">
       <use xlink:href="#DejaVuSans-30"/>
       <use xlink:href="#DejaVuSans-2e" x="63.623047"/>
       <use xlink:href="#DejaVuSans-38" x="95.410156"/>
       <use xlink:href="#DejaVuSans-35" x="159.033203"/>
      </g>
     </g>
    </g>
    <g id="text_16">
     <!-- Accuracy -->
     <g transform="translate(14.798438 161.356125) rotate(-90) scale(0.1 -0.1)">
      <defs>
       <path id="DejaVuSans-41" d="M 2188 4044 
L 1331 1722 
L 3047 1722 
L 2188 4044 
z
M 1831 4666 
L 2547 4666 
L 4325 0 
L 3669 0 
L 3244 1197 
L 1141 1197 
L 716 0 
L 50 0 
L 1831 4666 
z
" transform="scale(0.015625)"/>
       <path id="DejaVuSans-75" d="M 544 1381 
L 544 3500 
L 1119 3500 
L 1119 1403 
Q 1119 906 1312 657 
Q 1506 409 1894 409 
Q 2359 409 2629 706 
Q 2900 1003 2900 1516 
L 2900 3500 
L 3475 3500 
L 3475 0 
L 2900 0 
L 2900 538 
Q 2691 219 2414 64 
Q 2138 -91 1772 -91 
Q 1169 -91 856 284 
Q 544 659 544 1381 
z
M 1991 3584 
L 1991 3584 
z
" transform="scale(0.015625)"/>
       <path id="DejaVuSans-72" d="M 2631 2963 
Q 2534 3019 2420 3045 
Q 2306 3072 2169 3072 
Q 1681 3072 1420 2755 
Q 1159 2438 1159 1844 
L 1159 0 
L 581 0 
L 581 3500 
L 1159 3500 
L 1159 2956 
Q 1341 3275 1631 3429 
Q 1922 3584 2338 3584 
Q 2397 3584 2469 3576 
Q 2541 3569 2628 3553 
L 2631 2963 
z
" transform="scale(0.015625)"/>
       <path id="DejaVuSans-61" d="M 2194 1759 
Q 1497 1759 1228 1600 
Q 959 1441 959 1056 
Q 959 750 1161 570 
Q 1363 391 1709 391 
Q 2188 391 2477 730 
Q 2766 1069 2766 1631 
L 2766 1759 
L 2194 1759 
z
M 3341 1997 
L 3341 0 
L 2766 0 
L 2766 531 
Q 2569 213 2275 61 
Q 1981 -91 1556 -91 
Q 1019 -91 701 211 
Q 384 513 384 1019 
Q 384 1609 779 1909 
Q 1175 2209 1959 2209 
L 2766 2209 
L 2766 2266 
Q 2766 2663 2505 2880 
Q 2244 3097 1772 3097 
Q 1472 3097 1187 3025 
Q 903 2953 641 2809 
L 641 3341 
Q 956 3463 1253 3523 
Q 1550 3584 1831 3584 
Q 2591 3584 2966 3190 
Q 3341 2797 3341 1997 
z
" transform="scale(0.015625)"/>
       <path id="DejaVuSans-79" d="M 2059 -325 
Q 1816 -950 1584 -1140 
Q 1353 -1331 966 -1331 
L 506 -1331 
L 506 -850 
L 844 -850 
Q 1081 -850 1212 -737 
Q 1344 -625 1503 -206 
L 1606 56 
L 191 3500 
L 800 3500 
L 1894 763 
L 2988 3500 
L 3597 3500 
L 2059 -325 
z
" transform="scale(0.015625)"/>
      </defs>
      <use xlink:href="#DejaVuSans-41"/>
      <use xlink:href="#DejaVuSans-63" x="66.658203"/>
      <use xlink:href="#DejaVuSans-63" x="121.638672"/>
      <use xlink:href="#DejaVuSans-75" x="176.619141"/>
      <use xlink:href="#DejaVuSans-72" x="239.998047"/>
      <use xlink:href="#DejaVuSans-61" x="281.111328"/>
      <use xlink:href="#DejaVuSans-63" x="342.390625"/>
      <use xlink:href="#DejaVuSans-79" x="397.371094"/>
     </g>
    </g>
   </g>
   <g id="line2d_29">
    <path d="M 62.825568 230.51112 
L 63.587239 148.558424 
L 63.841129 130.947611 
L 64.6028 114.168809 
L 64.85669 113.752804 
L 65.11058 109.454087 
L 65.618361 105.710064 
L 65.872251 100.995371 
L 66.126141 108.344758 
L 66.380032 102.382048 
L 66.633922 99.608695 
L 66.887812 98.499337 
L 67.141702 96.003332 
L 67.395593 97.112661 
L 67.649483 100.579366 
L 67.903373 94.061962 
L 68.157264 94.755314 
L 68.411154 97.112661 
L 68.918934 91.149951 
L 69.172825 99.470007 
L 69.426715 96.835314 
L 69.680605 89.763274 
L 69.934495 92.952632 
L 70.188386 88.931263 
L 70.442276 90.17928 
L 70.696166 88.099251 
L 70.950056 88.931263 
L 71.203947 92.120621 
L 71.457837 90.317939 
L 71.711727 92.952632 
L 71.965617 84.216541 
L 72.219508 90.456598 
L 72.473398 88.099251 
L 72.727288 83.384558 
L 72.981178 86.851234 
L 73.235069 87.405928 
L 73.488959 91.704615 
L 73.742849 86.435228 
L 73.996739 83.939223 
L 74.25063 83.939223 
L 74.50452 88.515257 
L 74.75841 83.661876 
L 75.0123 81.443188 
L 75.266191 85.464558 
L 75.520081 79.779195 
L 75.773971 85.603246 
L 76.027861 84.493888 
L 76.281752 85.18724 
L 76.535642 84.632546 
L 76.789532 82.413859 
L 77.043422 81.581876 
L 77.297313 81.859194 
L 77.551203 78.808495 
L 77.805093 80.888524 
L 78.058983 79.640506 
L 78.312874 83.939223 
L 78.820654 77.005813 
L 79.074544 80.1952 
L 79.328435 74.787155 
L 79.582325 75.896484 
L 80.343996 82.413859 
L 80.597886 82.829864 
L 80.851776 80.472518 
L 81.105666 80.888524 
L 81.359557 73.539137 
L 81.613447 78.808495 
L 81.867337 80.611177 
L 82.121227 74.371149 
L 82.375118 82.413859 
L 82.629008 75.480478 
L 82.882898 79.085842 
L 83.136788 79.917853 
L 83.390679 80.056512 
L 83.644569 76.035143 
L 83.898459 76.728495 
L 84.15235 79.779195 
L 84.40624 76.867154 
L 84.66013 77.28316 
L 84.91402 74.371149 
L 85.167911 76.451148 
L 85.421801 73.539137 
L 85.675691 75.064472 
L 85.929581 73.955143 
L 86.183472 75.203131 
L 86.437362 77.976513 
L 86.691252 78.115172 
L 86.945142 77.421819 
L 87.199033 74.787155 
L 87.452923 69.240421 
L 87.706813 75.896484 
L 87.960703 74.925814 
L 88.214594 70.765785 
L 88.468484 73.123132 
L 88.722374 72.568467 
L 88.976264 73.26179 
L 89.230155 72.29112 
L 89.991825 71.043103 
L 90.245716 72.013773 
L 90.499606 71.32045 
L 90.753496 73.816455 
L 91.007386 70.211091 
L 91.261277 71.459109 
L 91.515167 70.349779 
L 91.769057 74.925814 
L 92.022947 70.488438 
L 92.276838 69.656427 
L 92.530728 74.509808 
L 92.784618 68.824415 
L 93.038508 66.32841 
L 93.546289 74.787155 
L 93.800179 73.123132 
L 94.054069 72.568467 
L 94.30796 67.437739 
L 94.56185 72.429779 
L 94.81574 66.883074 
L 95.06963 67.29908 
L 95.323521 71.459109 
L 95.577411 70.904444 
L 95.831301 71.875114 
L 96.085191 70.072432 
L 96.339082 72.845785 
L 96.592972 67.853745 
L 96.846862 69.240421 
L 97.100752 72.152461 
L 97.354643 67.992433 
L 97.608533 67.29908 
L 97.862423 70.904444 
L 98.116313 67.576427 
L 98.370204 69.101762 
L 98.624094 64.525728 
L 98.877984 72.013773 
L 99.131874 69.240421 
L 99.385765 63.277711 
L 99.639655 69.240421 
L 99.893545 64.525728 
L 100.147436 66.189751 
L 100.401326 65.635057 
L 100.655216 74.648467 
L 100.909106 64.803046 
L 101.162997 67.437739 
L 101.416887 64.803046 
L 101.670777 64.525728 
L 101.924667 66.32841 
L 102.178558 69.933774 
L 102.432448 64.109722 
L 102.940228 67.29908 
L 103.194119 66.467069 
L 103.448009 61.891035 
L 103.955789 66.883074 
L 104.46357 62.445699 
L 104.71746 67.29908 
L 104.97135 59.949694 
L 105.225241 67.160421 
L 105.479131 60.920364 
L 105.733021 64.248381 
L 105.986911 64.803046 
L 106.240802 61.33637 
L 106.494692 68.408409 
L 106.748582 63.555058 
L 107.002472 67.021733 
L 107.256363 65.635057 
L 107.510253 68.547098 
L 108.018033 59.811006 
L 108.271924 61.197682 
L 108.525814 61.059023 
L 108.779704 63.832375 
L 109.033594 62.445699 
L 109.287485 63.693716 
L 109.541375 66.189751 
L 109.795265 64.248381 
L 110.049155 65.080393 
L 110.303046 66.883074 
L 110.556936 63.555058 
L 110.810826 67.160421 
L 111.318607 62.584387 
L 111.572497 59.395 
L 111.826387 61.752376 
L 112.080277 60.643017 
L 112.334168 60.781705 
L 112.588058 60.781705 
L 112.841948 61.475029 
L 113.095838 62.861705 
L 113.349729 60.227011 
L 113.603619 65.912404 
L 114.111399 60.504358 
L 114.36529 62.029693 
L 114.61918 59.672347 
L 114.87307 63.139052 
L 115.12696 59.811006 
L 115.634741 60.643017 
L 115.888631 63.139052 
L 116.396412 57.176342 
L 116.650302 61.197682 
L 116.904192 59.533688 
L 117.158083 62.723046 
L 117.665863 58.42433 
L 117.919753 60.643017 
L 118.173644 61.059023 
L 118.427534 58.147012 
L 118.935314 65.496398 
L 119.189205 60.781705 
L 119.443095 65.912404 
L 119.696985 60.643017 
L 119.950875 60.920364 
L 120.204766 62.30704 
L 120.458656 61.33637 
L 120.712546 62.30704 
L 121.474217 59.811006 
L 121.728107 61.891035 
L 121.981997 59.811006 
L 122.235888 65.219051 
L 122.489778 62.861705 
L 122.743668 64.664387 
L 122.997558 63.000364 
L 123.251449 62.723046 
L 123.505339 58.563018 
L 123.759229 62.584387 
L 124.013119 58.563018 
L 124.26701 59.117682 
L 124.5209 55.928324 
L 124.77479 56.621648 
L 125.02868 53.43229 
L 125.282571 59.117682 
L 125.536461 59.533688 
L 125.790351 58.840335 
L 126.044241 57.176342 
L 126.298132 58.147012 
L 126.552022 57.731006 
L 126.805912 61.752376 
L 127.059802 57.315 
L 127.313693 58.563018 
L 127.567583 60.781705 
L 127.821473 55.096313 
L 128.075363 58.563018 
L 128.329254 55.650977 
L 128.583144 59.811006 
L 128.837034 59.949694 
L 129.090924 58.701677 
L 129.344815 60.504358 
L 129.598705 53.986954 
L 129.852595 60.088353 
L 130.106485 59.256341 
L 130.360376 56.482989 
L 130.614266 55.928324 
L 130.868156 57.315 
L 131.122046 57.592318 
L 131.375937 58.42433 
L 131.629827 56.066983 
L 131.883717 57.592318 
L 132.137607 57.453659 
L 132.899278 62.30704 
L 133.153169 58.42433 
L 133.407059 52.738966 
L 133.660949 62.168381 
L 133.914839 54.680307 
L 134.16873 58.840335 
L 134.42262 57.037653 
L 134.67651 60.088353 
L 134.9304 59.811006 
L 135.184291 58.147012 
L 135.438181 57.731006 
L 135.692071 56.205642 
L 136.199852 56.482989 
L 136.707632 58.563018 
L 136.961522 56.34433 
L 137.215413 57.731006 
L 137.469303 53.848295 
L 137.723193 53.848295 
L 137.977083 58.008324 
L 138.230974 57.315 
L 138.484864 59.949694 
L 138.738754 56.205642 
L 139.246535 55.234972 
L 139.500425 56.760336 
L 139.754315 60.088353 
L 140.008205 55.789636 
L 140.262096 56.066983 
L 140.515986 59.533688 
L 140.769876 55.37366 
L 141.023766 59.395 
L 141.277657 58.840335 
L 142.039327 53.986954 
L 142.293218 49.826926 
L 142.547108 54.541648 
L 142.800998 57.176342 
L 143.054888 58.008324 
L 143.308779 53.709637 
L 143.562669 57.453659 
L 143.816559 54.40296 
L 144.070449 55.096313 
L 144.32434 58.563018 
L 144.57823 58.285671 
L 144.83212 54.818966 
L 145.08601 53.570978 
L 145.339901 56.34433 
L 145.593791 55.512319 
L 146.101571 56.760336 
L 146.355462 54.264301 
L 146.609352 55.512319 
L 146.863242 54.40296 
L 147.117132 53.848295 
L 147.371023 59.395 
L 147.624913 57.315 
L 147.878803 56.482989 
L 148.132693 56.34433 
L 148.386584 53.709637 
L 148.640474 61.475029 
L 149.148255 54.541648 
L 149.402145 62.029693 
L 149.656035 61.059023 
L 149.909925 55.37366 
L 150.163816 56.898995 
L 150.671596 55.928324 
L 150.925486 59.811006 
L 151.179377 54.40296 
L 151.433267 57.453659 
L 151.687157 55.928324 
L 151.941047 57.453659 
L 152.194938 58.285671 
L 152.448828 57.037653 
L 152.702718 56.482989 
L 152.956608 56.482989 
L 153.210499 58.840335 
L 153.464389 57.315 
L 153.718279 54.125642 
L 153.972169 58.840335 
L 154.47995 56.482989 
L 154.98773 51.906955 
L 155.241621 53.986954 
L 155.495511 57.869665 
L 155.749401 56.621648 
L 156.003291 53.43229 
L 156.257182 59.256341 
L 156.511072 58.285671 
L 156.764962 59.533688 
L 157.018852 52.045614 
L 157.272743 58.285671 
L 157.526633 53.709637 
L 157.780523 56.898995 
L 158.288304 57.592318 
L 158.542194 52.045614 
L 159.049974 55.789636 
L 159.303865 56.205642 
L 159.557755 57.315 
L 159.811645 56.482989 
L 160.065535 56.898995 
L 160.319426 54.818966 
L 160.827206 63.416369 
L 161.081096 59.256341 
L 161.334987 62.723046 
L 161.588877 53.848295 
L 161.842767 60.3657 
L 162.096657 52.877625 
L 162.350548 55.37366 
L 162.604438 53.570978 
L 162.858328 59.395 
L 163.112218 51.906955 
L 163.366109 55.234972 
L 163.619999 53.154972 
L 163.873889 59.256341 
L 164.127779 54.680307 
L 164.38167 53.709637 
L 164.63556 55.37366 
L 164.88945 55.928324 
L 165.14334 58.979023 
L 165.397231 60.088353 
L 165.651121 55.512319 
L 165.905011 55.096313 
L 166.158902 53.986954 
L 166.666682 58.563018 
L 166.920572 57.037653 
L 167.174463 51.906955 
L 167.428353 56.621648 
L 167.682243 56.898995 
L 167.936133 54.541648 
L 168.190024 58.147012 
L 168.443914 52.322961 
L 168.697804 57.731006 
L 168.951694 56.482989 
L 169.205585 54.40296 
L 169.459475 59.533688 
L 169.713365 54.957654 
L 169.967255 59.117682 
L 170.221146 54.818966 
L 170.728926 59.117682 
L 170.982816 53.848295 
L 171.236707 53.293631 
L 171.490597 55.928324 
L 171.744487 60.227011 
L 172.506158 56.621648 
L 172.760048 58.563018 
L 173.013938 50.104273 
L 173.267829 60.227011 
L 173.521719 50.520279 
L 173.775609 57.869665 
L 174.029499 58.008324 
L 174.28339 55.234972 
L 174.53728 57.037653 
L 174.79117 52.600278 
L 175.04506 55.789636 
L 175.298951 57.315 
L 175.552841 52.877625 
L 175.806731 57.037653 
L 176.060621 52.461619 
L 176.314512 54.264301 
L 176.568402 54.264301 
L 176.822292 54.40296 
L 177.076182 59.117682 
L 177.330073 51.35229 
L 177.583963 52.877625 
L 177.837853 59.811006 
L 178.345634 52.461619 
L 178.853414 60.781705 
L 179.107304 52.738966 
L 179.361195 53.293631 
L 179.615085 58.42433 
L 179.868975 58.42433 
L 180.122865 55.234972 
L 180.376756 53.570978 
L 180.630646 53.570978 
L 180.884536 55.789636 
L 181.138426 55.928324 
L 181.392317 56.34433 
L 181.646207 53.43229 
L 181.900097 52.738966 
L 182.153988 59.672347 
L 182.407878 56.205642 
L 182.661768 54.957654 
L 183.169549 57.315 
L 183.423439 57.176342 
L 183.677329 59.256341 
L 183.931219 49.688267 
L 184.18511 55.650977 
L 184.439 55.789636 
L 184.69289 56.621648 
L 184.94678 54.818966 
L 185.200671 54.264301 
L 185.454561 53.43229 
L 185.708451 54.680307 
L 185.962341 55.234972 
L 186.216232 59.256341 
L 186.470122 59.811006 
L 186.724012 55.650977 
L 186.977902 54.125642 
L 187.231793 55.234972 
L 187.485683 53.986954 
L 187.739573 58.147012 
L 187.993463 54.40296 
L 188.247354 54.264301 
L 188.501244 58.979023 
L 188.755134 53.293631 
L 189.009024 52.461619 
L 189.262915 60.643017 
L 189.516805 53.848295 
L 189.770695 51.768296 
L 190.024585 54.125642 
L 190.278476 58.285671 
L 190.532366 58.285671 
L 190.786256 53.848295 
L 191.040146 56.621648 
L 191.294037 54.40296 
L 191.547927 57.176342 
L 192.055707 54.680307 
L 192.309598 50.658937 
L 192.563488 49.826926 
L 192.817378 54.957654 
L 193.071268 56.34433 
L 193.325159 53.709637 
L 193.579049 58.285671 
L 193.832939 54.40296 
L 194.086829 53.154972 
L 194.34072 56.066983 
L 194.59461 55.096313 
L 194.8485 53.016284 
L 195.10239 55.096313 
L 195.356281 53.986954 
L 195.610171 51.213602 
L 195.864061 56.205642 
L 196.117951 56.760336 
L 196.371842 59.117682 
L 196.625732 56.760336 
L 196.879622 55.512319 
L 197.133512 57.869665 
L 197.387403 58.008324 
L 197.641293 55.234972 
L 197.895183 57.453659 
L 198.149074 52.738966 
L 198.402964 53.016284 
L 198.656854 58.979023 
L 199.164635 53.293631 
L 199.418525 61.059023 
L 199.926305 50.104273 
L 200.180196 55.37366 
L 200.434086 53.43229 
L 200.687976 57.731006 
L 201.195757 50.242932 
L 201.703537 56.205642 
L 201.957427 56.066983 
L 202.211318 51.629608 
L 202.465208 55.234972 
L 202.719098 50.936284 
L 202.972988 54.818966 
L 203.226879 56.482989 
L 203.480769 55.096313 
L 203.734659 55.37366 
L 203.988549 53.016284 
L 204.24244 54.541648 
L 204.49633 50.658937 
L 205.00411 55.789636 
L 205.258001 56.066983 
L 205.511891 52.600278 
L 205.765781 53.293631 
L 206.019671 50.936284 
L 206.273562 53.709637 
L 206.527452 54.125642 
L 206.781342 55.928324 
L 207.035232 50.658937 
L 207.289123 55.37366 
L 207.543013 53.016284 
L 208.050793 55.096313 
L 208.304684 56.760336 
L 208.558574 53.848295 
L 208.812464 53.154972 
L 209.066354 54.541648 
L 209.320245 54.264301 
L 209.574135 57.037653 
L 209.828025 51.906955 
L 210.081915 58.563018 
L 210.335806 53.709637 
L 210.589696 57.592318 
L 210.843586 52.877625 
L 211.097476 53.570978 
L 211.351367 59.395 
L 211.605257 53.848295 
L 211.859147 58.701677 
L 212.113037 56.066983 
L 212.366928 55.234972 
L 212.620818 48.717597 
L 212.874708 55.234972 
L 213.382489 53.570978 
L 213.636379 51.629608 
L 213.890269 58.285671 
L 214.14416 56.066983 
L 214.39805 57.592318 
L 214.65194 51.906955 
L 214.90583 49.272261 
L 215.413611 58.840335 
L 215.667501 58.701677 
L 215.921391 53.016284 
L 216.175282 56.205642 
L 216.429172 55.37366 
L 216.683062 51.213602 
L 216.936952 54.957654 
L 217.190843 53.293631 
L 217.444733 56.34433 
L 217.698623 54.818966 
L 218.206404 54.818966 
L 218.460294 55.512319 
L 218.714184 52.600278 
L 218.968074 52.738966 
L 219.221965 54.957654 
L 219.475855 54.818966 
L 219.729745 51.629608 
L 219.983635 57.315 
L 220.491416 52.322961 
L 220.745306 56.34433 
L 220.999196 56.205642 
L 221.253087 52.600278 
L 221.506977 58.979023 
L 222.014757 52.600278 
L 222.268648 59.117682 
L 223.030318 52.600278 
L 223.284209 56.205642 
L 223.538099 56.205642 
L 223.791989 55.234972 
L 224.045879 53.570978 
L 224.29977 54.541648 
L 224.55366 50.658937 
L 224.80755 55.789636 
L 225.315331 57.592318 
L 225.569221 56.34433 
L 225.823111 53.016284 
L 226.077001 53.709637 
L 226.330892 54.818966 
L 226.584782 50.520279 
L 226.838672 52.461619 
L 227.346453 53.016284 
L 227.600343 56.898995 
L 227.854233 51.906955 
L 228.108123 61.059023 
L 228.362014 51.768296 
L 228.615904 58.285671 
L 228.869794 54.957654 
L 229.123684 53.570978 
L 229.377575 58.285671 
L 229.631465 52.738966 
L 229.885355 56.760336 
L 230.139245 56.898995 
L 230.393136 57.592318 
L 230.647026 55.789636 
L 230.900916 57.731006 
L 231.154807 55.928324 
L 231.408697 58.008324 
L 231.662587 52.184272 
L 231.916477 52.322961 
L 232.424258 56.898995 
L 232.678148 46.498909 
L 233.185929 55.512319 
L 233.439819 58.42433 
L 233.693709 52.045614 
L 233.947599 55.789636 
L 234.20149 55.37366 
L 234.45538 56.205642 
L 234.70927 55.928324 
L 234.96316 57.453659 
L 235.217051 53.570978 
L 235.724831 57.176342 
L 235.978721 53.848295 
L 236.232612 55.512319 
L 236.486502 53.848295 
L 236.740392 58.285671 
L 236.994282 55.37366 
L 237.248173 55.234972 
L 237.502063 55.234972 
L 237.755953 55.928324 
L 238.009843 53.016284 
L 238.263734 51.768296 
L 238.517624 57.315 
L 238.771514 54.680307 
L 239.025404 57.315 
L 239.279295 52.045614 
L 239.533185 53.986954 
L 239.787075 53.848295 
L 240.040965 53.016284 
L 240.294856 50.520279 
L 240.548746 57.315 
L 240.802636 55.234972 
L 241.056526 55.928324 
L 241.310417 54.264301 
L 241.564307 57.869665 
L 242.072087 53.43229 
L 242.325978 49.826926 
L 242.833758 54.125642 
L 243.087648 52.600278 
L 243.341539 53.43229 
L 243.595429 51.490949 
L 243.849319 56.760336 
L 244.103209 57.731006 
L 244.3571 48.44025 
L 244.61099 54.957654 
L 244.86488 51.074943 
L 245.11877 53.293631 
L 245.372661 57.592318 
L 245.626551 51.906955 
L 245.880441 53.154972 
L 246.134331 53.43229 
L 246.388222 60.088353 
L 246.896002 52.461619 
L 247.149893 59.395 
L 247.403783 55.096313 
L 247.657673 54.264301 
L 247.911563 53.986954 
L 248.165454 60.781705 
L 248.673234 49.965614 
L 248.927124 56.482989 
L 249.181015 54.125642 
L 249.434905 55.512319 
L 249.688795 60.504358 
L 249.942685 58.147012 
L 250.196576 57.176342 
L 250.450466 52.600278 
L 250.704356 52.877625 
L 250.958246 52.461619 
L 251.212137 54.541648 
L 251.466027 51.35229 
L 251.719917 56.621648 
L 251.973807 55.512319 
L 252.227698 57.037653 
L 252.735478 52.877625 
L 252.989368 55.37366 
L 253.243259 52.184272 
L 253.497149 52.877625 
L 253.751039 52.877625 
L 254.004929 55.512319 
L 254.25882 56.482989 
L 254.51271 53.848295 
L 254.7666 57.869665 
L 255.02049 57.037653 
L 255.274381 53.986954 
L 255.528271 56.621648 
L 255.782161 55.37366 
L 256.036051 48.162932 
L 256.289942 50.242932 
L 256.543832 50.797596 
L 256.797722 57.176342 
L 257.051612 52.738966 
L 257.305503 57.731006 
L 257.559393 50.104273 
L 257.813283 56.482989 
L 258.067173 57.731006 
L 258.321064 51.768296 
L 258.574954 54.40296 
L 258.828844 55.789636 
L 259.082734 55.650977 
L 259.336625 54.541648 
L 259.590515 53.986954 
L 259.844405 56.205642 
L 260.098295 53.848295 
L 260.352186 54.40296 
L 260.606076 58.42433 
L 260.859966 55.512319 
L 261.113856 56.34433 
L 261.367747 49.826926 
L 261.621637 50.520279 
L 262.129417 55.650977 
L 262.383308 57.176342 
L 262.637198 53.570978 
L 262.891088 53.43229 
L 263.144979 53.43229 
L 263.398869 53.154972 
L 263.906649 58.840335 
L 264.16054 54.264301 
L 264.41443 56.898995 
L 264.66832 51.906955 
L 264.92221 52.738966 
L 265.176101 57.869665 
L 265.683881 51.35229 
L 265.937771 54.680307 
L 266.191662 59.672347 
L 266.699442 51.768296 
L 266.953332 52.738966 
L 267.207223 58.285671 
L 267.715003 53.848295 
L 268.476674 55.096313 
L 268.730564 53.570978 
L 268.984454 54.680307 
L 269.238345 59.395 
L 269.492235 53.570978 
L 269.746125 54.264301 
L 270.000015 60.643017 
L 270.253906 53.43229 
L 270.507796 53.709637 
L 270.761686 56.898995 
L 271.015576 54.818966 
L 271.269467 54.680307 
L 271.523357 50.797596 
L 272.031137 56.760336 
L 272.285028 54.680307 
L 272.538918 55.789636 
L 272.792808 53.709637 
L 273.300589 57.176342 
L 273.808369 50.797596 
L 274.062259 57.037653 
L 274.31615 55.928324 
L 274.57004 52.322961 
L 274.82393 55.234972 
L 275.331711 56.205642 
L 275.585601 52.877625 
L 275.839491 53.709637 
L 276.093381 59.533688 
L 276.347272 51.490949 
L 276.601162 56.482989 
L 276.855052 54.680307 
L 277.108942 54.818966 
L 277.362833 51.629608 
L 277.616723 55.789636 
L 277.870613 54.125642 
L 278.124503 53.709637 
L 278.378394 51.213602 
L 278.632284 51.490949 
L 278.886174 54.541648 
L 279.140064 55.650977 
L 279.393955 54.818966 
L 279.647845 48.301591 
L 279.901735 55.789636 
L 280.155626 52.600278 
L 280.409516 51.074943 
L 280.663406 55.37366 
L 280.917296 52.738966 
L 281.171187 59.672347 
L 281.425077 54.125642 
L 281.678967 54.264301 
L 281.932857 51.213602 
L 282.186748 52.600278 
L 282.440638 55.096313 
L 282.694528 54.40296 
L 282.948418 57.592318 
L 283.202309 56.066983 
L 283.456199 56.760336 
L 283.710089 53.43229 
L 283.963979 54.264301 
L 284.21787 51.35229 
L 284.72565 56.205642 
L 284.97954 52.600278 
L 285.233431 53.848295 
L 285.487321 57.592318 
L 285.741211 56.760336 
L 285.995101 58.840335 
L 286.248992 54.40296 
L 286.502882 57.453659 
L 286.756772 58.701677 
L 287.010662 53.43229 
L 287.264553 55.650977 
L 287.518443 52.600278 
L 287.772333 54.541648 
L 288.026223 53.43229 
L 288.280114 56.482989 
L 288.534004 51.35229 
L 288.787894 52.184272 
L 289.041784 50.936284 
L 289.295675 53.43229 
L 289.549565 49.133603 
L 290.057345 50.104273 
L 290.311236 56.205642 
L 290.565126 54.818966 
L 290.819016 52.045614 
L 291.072906 53.293631 
L 291.326797 57.037653 
L 291.580687 56.066983 
L 291.834577 48.856256 
L 292.088467 51.629608 
L 292.342358 57.176342 
L 292.596248 54.40296 
L 292.850138 57.037653 
L 293.104028 54.264301 
L 293.357919 56.760336 
L 293.611809 56.482989 
L 293.865699 52.738966 
L 294.119589 50.658937 
L 294.37348 55.096313 
L 294.62737 61.613688 
L 294.88126 53.986954 
L 295.13515 51.213602 
L 295.389041 50.936284 
L 295.642931 56.482989 
L 295.896821 58.979023 
L 296.150712 55.789636 
L 296.658492 54.818966 
L 296.912382 54.818966 
L 297.166273 57.592318 
L 297.420163 52.461619 
L 297.674053 56.621648 
L 297.927943 58.147012 
L 298.181834 57.037653 
L 298.435724 57.315 
L 298.689614 57.869665 
L 298.943504 55.37366 
L 299.197395 55.234972 
L 299.451285 56.205642 
L 299.705175 54.818966 
L 299.959065 54.818966 
L 300.212956 53.016284 
L 300.466846 48.024244 
L 300.720736 56.34433 
L 300.974626 59.117682 
L 301.482407 53.016284 
L 301.736297 52.045614 
L 301.990187 50.520279 
L 302.244078 54.125642 
L 302.497968 51.629608 
L 302.751858 52.184272 
L 303.005748 54.680307 
L 303.259639 53.709637 
L 303.513529 55.789636 
L 303.767419 53.293631 
L 304.021309 56.621648 
L 304.2752 53.43229 
L 304.52909 54.264301 
L 304.78298 58.42433 
L 305.03687 55.650977 
L 305.290761 55.37366 
L 305.544651 52.738966 
L 306.052431 55.650977 
L 306.306322 56.066983 
L 306.560212 53.986954 
L 306.814102 53.986954 
L 307.321883 52.045614 
L 307.575773 55.928324 
L 307.829663 53.570978 
L 308.083553 54.957654 
L 308.337444 55.096313 
L 308.591334 53.986954 
L 308.845224 55.789636 
L 309.099114 53.986954 
L 309.353005 56.205642 
L 309.606895 54.264301 
L 309.860785 53.570978 
L 310.114675 52.322961 
L 310.368566 53.43229 
L 310.876346 52.877625 
L 311.130236 50.381591 
L 311.384127 53.848295 
L 311.638017 54.818966 
L 311.891907 54.818966 
L 312.145798 51.074943 
L 312.653578 57.731006 
L 312.907468 56.34433 
L 313.161359 57.731006 
L 313.415249 56.760336 
L 313.669139 58.701677 
L 313.923029 56.066983 
L 314.17692 55.650977 
L 314.43081 54.818966 
L 314.6847 50.104273 
L 314.93859 54.40296 
L 315.192481 53.848295 
L 315.446371 55.789636 
L 315.700261 52.877625 
L 315.954151 52.322961 
L 316.208042 55.512319 
L 316.461932 52.738966 
L 316.461932 52.738966 
" clip-path="url(#p49e90164bf)" style="fill: none; stroke: #0000ff; stroke-width: 0.6; stroke-linecap: square"/>
   </g>
   <g id="line2d_30">
    <path d="M 62.825568 226.675128 
L 63.079458 219.234679 
L 63.333349 230.557091 
L 63.587239 211.794231 
L 63.841129 203.706797 
L 64.095019 154.211694 
L 64.34891 127.684894 
L 64.6028 195.295883 
L 64.85669 105.687087 
L 65.11058 125.096918 
L 65.364471 132.537366 
L 65.872251 101.158122 
L 66.126141 207.588775 
L 66.380032 132.213858 
L 66.633922 97.92313 
L 66.887812 197.883859 
L 67.141702 107.951554 
L 67.395593 101.805109 
L 67.649483 163.91661 
L 67.903373 100.187627 
L 68.157264 100.187627 
L 68.411154 102.128616 
L 68.665044 168.769083 
L 69.172825 99.217133 
L 69.680605 140.624801 
L 69.934495 121.214969 
L 70.188386 136.095836 
L 70.442276 91.776685 
L 70.696166 98.246638 
L 70.950056 114.745016 
L 71.203947 88.865201 
L 71.711727 110.863038 
L 71.965617 96.629157 
L 72.219508 137.713317 
L 72.473398 126.067412 
L 72.727288 90.482712 
L 72.981178 95.335155 
L 73.235069 90.80619 
L 73.488959 92.423671 
L 73.742849 112.480519 
L 74.25063 93.394166 
L 74.50452 92.747179 
L 74.75841 96.629157 
L 75.0123 95.658663 
L 75.266191 104.069605 
L 75.520081 89.835696 
L 75.773971 117.65647 
L 76.027861 107.951554 
L 76.535642 102.128616 
L 76.789532 82.718756 
L 77.043422 86.924212 
L 77.551203 170.386564 
L 77.805093 95.011676 
L 78.312874 143.536284 
L 78.566764 90.482712 
L 78.820654 122.185434 
L 79.074544 89.188709 
L 79.328435 126.067412 
L 79.582325 90.159204 
L 79.836215 125.420426 
L 80.090105 92.423671 
L 80.343996 88.541723 
L 80.597886 105.687087 
L 80.851776 92.423671 
L 81.105666 99.217133 
L 81.359557 88.541723 
L 81.613447 91.453177 
L 81.867337 102.452095 
L 82.121227 89.512217 
L 82.375118 117.979978 
L 82.629008 97.599652 
L 82.882898 87.894707 
L 83.136788 95.982141 
L 83.390679 96.629157 
L 83.644569 88.865201 
L 83.898459 127.684894 
L 84.15235 107.951554 
L 84.66013 90.482712 
L 84.91402 100.187627 
L 85.167911 83.365742 
L 85.675691 108.275062 
L 85.929581 96.952636 
L 86.183472 115.71551 
L 86.437362 90.159204 
L 86.691252 88.218215 
L 86.945142 114.745016 
L 87.199033 121.861956 
L 87.452923 116.038989 
L 87.706813 91.129698 
L 87.960703 106.98106 
L 88.214594 92.100193 
L 88.468484 94.041182 
L 88.722374 157.446657 
L 88.976264 103.42259 
L 89.230155 108.598541 
L 89.484045 90.80619 
L 89.737935 85.630239 
L 89.991825 99.540641 
L 90.245716 98.246638 
L 90.499606 92.100193 
L 90.753496 109.892543 
L 91.007386 89.512217 
L 91.261277 102.452095 
L 91.515167 89.835696 
L 91.769057 102.452095 
L 92.022947 101.158122 
L 92.276838 100.834614 
L 92.530728 97.599652 
L 92.784618 99.86412 
L 93.038508 138.036825 
L 93.292399 95.982141 
L 93.546289 105.040071 
L 93.800179 109.569035 
L 94.30796 86.924212 
L 94.56185 122.83245 
L 94.81574 91.776685 
L 95.06963 89.188709 
L 95.577411 97.599652 
L 95.831301 90.80619 
L 96.085191 94.041182 
L 96.339082 93.717674 
L 96.592972 90.159204 
L 96.846862 97.276144 
L 97.100752 95.335155 
L 97.354643 90.80619 
L 97.608533 112.15704 
L 97.862423 105.363579 
L 98.116313 93.070687 
L 98.624094 96.305649 
L 98.877984 95.982141 
L 99.385765 91.453177 
L 99.639655 92.747179 
L 100.147436 107.628076 
L 100.401326 92.747179 
L 100.655216 94.688168 
L 100.909106 94.041182 
L 101.162997 94.041182 
L 101.416887 94.688168 
L 101.924667 87.894707 
L 102.178558 98.246638 
L 102.432448 101.805109 
L 102.686338 90.482712 
L 103.194119 98.893625 
L 103.448009 108.922049 
L 103.955789 88.541723 
L 104.20968 95.982141 
L 104.46357 108.922049 
L 104.71746 95.658663 
L 105.225241 93.070687 
L 105.479131 98.893625 
L 105.733021 95.335155 
L 105.986911 95.011676 
L 106.240802 89.188709 
L 106.494692 98.246638 
L 106.748582 87.571228 
L 107.510253 105.040071 
L 107.764143 93.717674 
L 108.018033 90.80619 
L 108.271924 103.099111 
L 108.525814 88.541723 
L 108.779704 90.80619 
L 109.033594 105.040071 
L 109.287485 93.394166 
L 109.541375 94.36466 
L 109.795265 88.865201 
L 110.049155 95.011676 
L 110.303046 114.745016 
L 110.556936 96.305649 
L 110.810826 91.776685 
L 111.064716 97.276144 
L 111.318607 95.335155 
L 111.572497 91.453177 
L 111.826387 95.982141 
L 112.080277 95.335155 
L 112.334168 89.188709 
L 112.588058 94.041182 
L 112.841948 105.040071 
L 113.095838 92.423671 
L 113.349729 95.982141 
L 113.603619 94.041182 
L 113.857509 93.717674 
L 114.111399 96.952636 
L 114.36529 92.423671 
L 114.61918 97.599652 
L 114.87307 99.217133 
L 115.12696 92.423671 
L 115.380851 99.540641 
L 115.634741 85.630239 
L 115.888631 93.070687 
L 116.142521 105.040071 
L 116.396412 94.041182 
L 116.650302 109.892543 
L 116.904192 117.009483 
L 117.158083 95.982141 
L 117.411973 99.86412 
L 117.665863 114.098 
L 118.173644 87.894707 
L 118.427534 96.952636 
L 118.681424 100.834614 
L 118.935314 97.599652 
L 119.189205 95.982141 
L 119.443095 96.952636 
L 119.696985 94.041182 
L 119.950875 94.36466 
L 120.204766 87.894707 
L 120.458656 102.452095 
L 120.966436 92.100193 
L 121.220327 117.65647 
L 121.474217 96.952636 
L 121.728107 95.982141 
L 121.981997 99.217133 
L 122.235888 109.245557 
L 122.489778 94.36466 
L 122.743668 100.834614 
L 122.997558 94.688168 
L 123.251449 109.892543 
L 123.505339 90.482712 
L 123.759229 95.658663 
L 124.013119 91.776685 
L 124.26701 84.983253 
L 125.02868 103.42259 
L 125.282571 104.069605 
L 125.536461 92.423671 
L 125.790351 92.747179 
L 126.044241 94.36466 
L 126.298132 116.362497 
L 126.552022 99.540641 
L 126.805912 96.629157 
L 127.059802 96.952636 
L 127.313693 101.158122 
L 127.567583 97.92313 
L 127.821473 108.275062 
L 128.075363 96.305649 
L 128.329254 95.658663 
L 128.583144 103.42259 
L 128.837034 123.802945 
L 129.090924 98.246638 
L 129.344815 95.658663 
L 129.598705 98.246638 
L 129.852595 92.747179 
L 130.106485 90.159204 
L 130.360376 97.92313 
L 130.614266 93.070687 
L 130.868156 98.570146 
L 131.122046 98.570146 
L 131.375937 85.630239 
L 131.629827 96.629157 
L 131.883717 95.982141 
L 132.137607 88.218215 
L 132.391498 91.776685 
L 132.645388 92.747179 
L 132.899278 95.335155 
L 133.660949 89.835696 
L 133.914839 93.070687 
L 134.16873 103.746098 
L 134.42262 95.011676 
L 134.67651 93.717674 
L 134.9304 93.717674 
L 135.438181 93.070687 
L 135.692071 95.011676 
L 136.199852 90.80619 
L 136.453742 90.80619 
L 136.707632 99.217133 
L 136.961522 91.453177 
L 137.215413 97.599652 
L 137.469303 89.512217 
L 137.723193 94.041182 
L 137.977083 91.129698 
L 138.230974 90.80619 
L 138.484864 111.833532 
L 138.738754 92.747179 
L 138.992644 100.187627 
L 139.500425 90.80619 
L 139.754315 90.159204 
L 140.008205 101.481601 
L 140.262096 97.599652 
L 140.515986 105.363579 
L 140.769876 95.982141 
L 141.023766 91.453177 
L 141.277657 91.776685 
L 141.531547 88.218215 
L 141.785437 94.041182 
L 142.039327 94.688168 
L 142.293218 99.86412 
L 142.800998 93.717674 
L 143.054888 95.335155 
L 143.308779 95.011676 
L 143.816559 89.512217 
L 144.070449 92.423671 
L 144.32434 97.276144 
L 144.57823 91.776685 
L 144.83212 95.982141 
L 145.08601 104.393084 
L 145.339901 103.42259 
L 145.593791 98.246638 
L 145.847681 95.982141 
L 146.101571 101.481601 
L 146.355462 102.128616 
L 146.609352 87.24772 
L 147.117132 101.805109 
L 147.371023 97.599652 
L 147.624913 97.92313 
L 147.878803 92.747179 
L 148.132693 113.451013 
L 148.386584 117.009483 
L 148.640474 100.834614 
L 148.894364 93.070687 
L 149.148255 96.305649 
L 149.402145 91.453177 
L 149.656035 100.511106 
L 149.909925 92.100193 
L 150.163816 94.36466 
L 150.417706 93.717674 
L 150.671596 96.305649 
L 150.925486 96.629157 
L 151.179377 99.217133 
L 151.433267 93.717674 
L 151.687157 117.332991 
L 151.941047 115.392002 
L 152.194938 108.275062 
L 152.448828 90.482712 
L 152.702718 96.305649 
L 152.956608 98.893625 
L 153.210499 97.92313 
L 153.718279 102.452095 
L 153.972169 92.747179 
L 154.22606 108.275062 
L 154.73384 85.630239 
L 154.98773 100.187627 
L 155.241621 98.893625 
L 155.495511 92.100193 
L 155.749401 100.834614 
L 156.003291 99.86412 
L 156.257182 93.394166 
L 156.511072 92.423671 
L 156.764962 97.276144 
L 157.018852 99.86412 
L 157.272743 90.482712 
L 157.526633 95.658663 
L 157.780523 90.159204 
L 158.034413 92.747179 
L 158.288304 93.717674 
L 158.542194 92.100193 
L 158.796084 107.304568 
L 159.049974 98.893625 
L 159.303865 106.98106 
L 159.557755 94.36466 
L 159.811645 98.246638 
L 160.065535 98.570146 
L 160.319426 118.950472 
L 160.573316 95.335155 
L 160.827206 101.481601 
L 161.081096 103.099111 
L 161.334987 112.480519 
L 161.588877 105.040071 
L 161.842767 103.099111 
L 162.096657 91.776685 
L 162.350548 91.129698 
L 162.858328 103.746098 
L 163.366109 91.776685 
L 163.619999 97.599652 
L 163.873889 95.011676 
L 164.127779 95.011676 
L 164.38167 95.982141 
L 164.63556 99.86412 
L 164.88945 106.657581 
L 165.14334 106.657581 
L 165.397231 95.011676 
L 165.651121 94.041182 
L 165.905011 95.658663 
L 166.158902 95.982141 
L 166.412792 95.658663 
L 166.666682 97.276144 
L 166.920572 89.835696 
L 167.174463 90.80619 
L 167.682243 122.185434 
L 167.936133 97.92313 
L 168.190024 95.658663 
L 168.443914 114.098 
L 168.697804 97.92313 
L 168.951694 93.717674 
L 169.205585 95.658663 
L 169.459475 109.245557 
L 169.713365 138.036825 
L 169.967255 90.159204 
L 170.221146 99.217133 
L 170.475036 95.335155 
L 170.728926 124.449931 
L 170.982816 95.658663 
L 171.236707 90.80619 
L 171.490597 104.393084 
L 171.744487 96.952636 
L 171.998377 98.246638 
L 172.252268 90.159204 
L 172.506158 92.423671 
L 172.760048 85.630239 
L 173.013938 119.597459 
L 173.267829 94.36466 
L 173.521719 90.159204 
L 173.775609 97.276144 
L 174.029499 95.011676 
L 174.28339 96.305649 
L 174.53728 91.129698 
L 174.79117 102.452095 
L 175.04506 85.306731 
L 175.298951 97.599652 
L 175.552841 94.688168 
L 175.806731 95.982141 
L 176.060621 105.040071 
L 176.314512 97.599652 
L 176.822292 91.453177 
L 177.330073 93.394166 
L 177.583963 98.246638 
L 177.837853 92.100193 
L 178.091743 93.070687 
L 178.345634 103.746098 
L 178.599524 99.86412 
L 178.853414 88.218215 
L 179.107304 99.86412 
L 179.361195 97.276144 
L 179.615085 105.687087 
L 179.868975 94.041182 
L 180.122865 89.512217 
L 180.376756 89.188709 
L 180.630646 101.481601 
L 180.884536 94.041182 
L 181.138426 102.128616 
L 181.392317 94.688168 
L 181.646207 109.569035 
L 181.900097 98.246638 
L 182.153988 99.217133 
L 182.407878 96.952636 
L 182.661768 99.86412 
L 182.915658 100.187627 
L 183.169549 102.128616 
L 183.423439 97.92313 
L 183.677329 91.776685 
L 183.931219 92.423671 
L 184.18511 98.570146 
L 184.69289 95.011676 
L 185.200671 97.92313 
L 185.454561 97.276144 
L 185.962341 87.571228 
L 186.216232 96.305649 
L 186.470122 89.512217 
L 186.977902 93.070687 
L 187.231793 107.951554 
L 187.739573 91.129698 
L 188.247354 100.187627 
L 188.501244 118.303486 
L 188.755134 86.600734 
L 189.262915 102.452095 
L 189.516805 93.070687 
L 189.770695 99.540641 
L 190.024585 101.481601 
L 190.278476 95.335155 
L 190.532366 96.952636 
L 190.786256 91.129698 
L 191.040146 87.894707 
L 191.294037 98.893625 
L 191.547927 93.394166 
L 191.801817 92.747179 
L 192.055707 93.394166 
L 192.309598 94.688168 
L 192.563488 91.129698 
L 192.817378 95.335155 
L 193.071268 102.452095 
L 193.325159 94.688168 
L 193.579049 92.100193 
L 193.832939 97.92313 
L 194.086829 92.747179 
L 194.34072 101.805109 
L 194.59461 103.42259 
L 195.356281 91.453177 
L 195.610171 108.922049 
L 195.864061 90.159204 
L 196.117951 90.80619 
L 196.371842 96.305649 
L 196.625732 95.335155 
L 196.879622 91.453177 
L 197.133512 97.276144 
L 197.387403 95.982141 
L 197.641293 96.629157 
L 197.895183 91.776685 
L 198.149074 108.922049 
L 198.402964 98.893625 
L 198.656854 97.276144 
L 198.910744 94.688168 
L 199.164635 102.775603 
L 199.418525 100.187627 
L 199.672415 93.394166 
L 199.926305 94.041182 
L 200.180196 93.070687 
L 200.434086 91.129698 
L 200.687976 94.688168 
L 200.941866 93.070687 
L 201.195757 121.538448 
L 201.449647 97.599652 
L 201.703537 94.36466 
L 201.957427 104.716592 
L 202.211318 103.099111 
L 202.465208 92.423671 
L 202.719098 89.835696 
L 202.972988 95.982141 
L 203.226879 94.36466 
L 203.480769 103.746098 
L 203.734659 89.512217 
L 203.988549 96.952636 
L 204.24244 86.924212 
L 204.49633 100.834614 
L 204.75022 91.776685 
L 205.00411 95.982141 
L 205.258001 91.129698 
L 205.511891 95.011676 
L 205.765781 94.688168 
L 206.019671 93.717674 
L 206.273562 121.214969 
L 206.527452 96.305649 
L 206.781342 92.747179 
L 207.035232 110.53953 
L 207.289123 91.776685 
L 207.543013 88.541723 
L 207.796903 95.335155 
L 208.050793 97.276144 
L 208.304684 97.92313 
L 208.558574 95.335155 
L 208.812464 101.481601 
L 209.066354 96.305649 
L 209.320245 107.628076 
L 209.574135 95.011676 
L 209.828025 94.041182 
L 210.081915 91.776685 
L 210.335806 92.423671 
L 210.589696 94.688168 
L 210.843586 113.451013 
L 211.097476 113.127505 
L 211.351367 97.276144 
L 211.605257 88.865201 
L 211.859147 91.129698 
L 212.366928 103.746098 
L 212.874708 89.835696 
L 213.128598 95.982141 
L 213.382489 98.246638 
L 213.636379 98.246638 
L 213.890269 87.571228 
L 214.14416 105.040071 
L 214.65194 86.277226 
L 214.90583 98.893625 
L 215.159721 98.246638 
L 215.413611 91.129698 
L 215.667501 92.747179 
L 215.921391 88.218215 
L 216.175282 99.86412 
L 216.683062 92.423671 
L 216.936952 94.688168 
L 217.444733 92.423671 
L 217.698623 94.041182 
L 217.952513 99.217133 
L 218.206404 91.453177 
L 218.460294 101.481601 
L 218.714184 103.42259 
L 218.968074 91.129698 
L 219.221965 91.453177 
L 219.475855 97.92313 
L 219.729745 96.305649 
L 219.983635 97.276144 
L 220.237526 90.80619 
L 220.745306 102.775603 
L 220.999196 90.80619 
L 221.253087 108.922049 
L 221.506977 117.65647 
L 221.760867 94.36466 
L 222.014757 104.069605 
L 222.268648 94.36466 
L 222.522538 90.80619 
L 222.776428 100.834614 
L 223.284209 95.658663 
L 223.538099 97.599652 
L 223.791989 97.92313 
L 224.045879 87.24772 
L 224.29977 92.747179 
L 224.55366 92.747179 
L 225.06144 87.894707 
L 225.315331 95.011676 
L 225.569221 85.953747 
L 225.823111 103.746098 
L 226.077001 95.011676 
L 226.330892 97.276144 
L 226.584782 94.36466 
L 226.838672 159.711153 
L 227.092562 89.835696 
L 227.346453 96.305649 
L 227.600343 91.776685 
L 227.854233 98.570146 
L 228.108123 101.481601 
L 228.362014 99.86412 
L 228.615904 90.159204 
L 228.869794 95.982141 
L 229.123684 93.070687 
L 229.377575 125.420426 
L 229.631465 104.716592 
L 229.885355 94.688168 
L 230.139245 102.128616 
L 230.393136 90.80619 
L 230.647026 100.834614 
L 230.900916 92.423671 
L 231.154807 93.394166 
L 231.408697 95.011676 
L 231.662587 93.394166 
L 231.916477 102.775603 
L 232.170368 97.599652 
L 232.424258 98.570146 
L 232.678148 89.512217 
L 232.932038 93.070687 
L 233.185929 102.452095 
L 233.439819 94.688168 
L 233.693709 90.80619 
L 233.947599 96.629157 
L 234.20149 93.394166 
L 234.45538 102.775603 
L 234.70927 95.982141 
L 234.96316 97.92313 
L 235.217051 112.15704 
L 235.470941 95.658663 
L 235.724831 132.860874 
L 235.978721 134.478355 
L 236.232612 93.070687 
L 236.486502 100.511106 
L 236.740392 90.159204 
L 236.994282 96.629157 
L 237.248173 106.657581 
L 237.502063 90.80619 
L 237.755953 93.394166 
L 238.009843 92.423671 
L 238.263734 102.775603 
L 238.517624 94.688168 
L 238.771514 96.629157 
L 239.025404 94.36466 
L 239.279295 95.011676 
L 239.533185 86.924212 
L 239.787075 96.629157 
L 240.040965 97.92313 
L 240.294856 91.776685 
L 240.548746 91.129698 
L 240.802636 99.217133 
L 241.056526 88.218215 
L 241.310417 104.069605 
L 241.564307 93.070687 
L 241.818197 90.482712 
L 242.072087 92.423671 
L 242.325978 91.129698 
L 242.579868 112.15704 
L 243.087648 89.188709 
L 243.341539 91.453177 
L 243.595429 123.479437 
L 243.849319 98.246638 
L 244.103209 112.15704 
L 244.3571 96.305649 
L 244.61099 98.893625 
L 244.86488 98.570146 
L 245.11877 97.276144 
L 245.372661 97.599652 
L 245.626551 106.334073 
L 246.134331 98.893625 
L 246.388222 100.187627 
L 246.642112 108.275062 
L 246.896002 108.922049 
L 247.403783 94.36466 
L 247.911563 107.951554 
L 248.165454 108.275062 
L 248.419344 91.453177 
L 248.673234 96.305649 
L 248.927124 97.276144 
L 249.434905 88.218215 
L 249.688795 103.42259 
L 249.942685 89.835696 
L 250.196576 94.688168 
L 250.450466 94.041182 
L 250.704356 88.865201 
L 250.958246 87.24772 
L 251.212137 93.394166 
L 251.466027 96.305649 
L 251.719917 92.747179 
L 251.973807 101.481601 
L 252.227698 96.629157 
L 252.481588 104.069605 
L 252.735478 105.040071 
L 252.989368 92.100193 
L 253.243259 94.36466 
L 253.497149 102.452095 
L 253.751039 99.540641 
L 254.004929 106.010565 
L 254.25882 102.128616 
L 254.51271 88.865201 
L 254.7666 92.100193 
L 255.02049 92.423671 
L 255.274381 94.36466 
L 255.528271 93.717674 
L 255.782161 99.86412 
L 256.289942 90.482712 
L 256.543832 100.187627 
L 256.797722 95.658663 
L 257.051612 101.481601 
L 257.305503 93.070687 
L 257.559393 102.128616 
L 257.813283 98.893625 
L 258.067173 98.893625 
L 258.574954 95.982141 
L 258.828844 107.951554 
L 259.082734 89.188709 
L 259.336625 90.159204 
L 259.590515 95.335155 
L 259.844405 94.36466 
L 260.098295 91.776685 
L 260.352186 95.658663 
L 260.606076 92.100193 
L 260.859966 108.598541 
L 261.113856 94.688168 
L 261.367747 100.511106 
L 261.621637 93.717674 
L 261.875527 94.36466 
L 262.129417 94.36466 
L 262.383308 99.540641 
L 262.637198 111.510024 
L 263.144979 96.952636 
L 263.398869 95.982141 
L 263.652759 96.305649 
L 263.906649 97.599652 
L 264.16054 136.095836 
L 264.41443 101.805109 
L 264.66832 90.482712 
L 264.92221 121.538448 
L 265.176101 92.423671 
L 265.429991 92.423671 
L 265.683881 102.775603 
L 266.191662 91.453177 
L 266.445552 90.80619 
L 266.699442 101.805109 
L 266.953332 120.891461 
L 267.207223 98.893625 
L 267.461113 88.541723 
L 267.715003 89.512217 
L 267.968893 105.687087 
L 268.222784 95.335155 
L 268.476674 92.423671 
L 268.730564 93.070687 
L 268.984454 99.86412 
L 269.238345 101.158122 
L 269.746125 92.423671 
L 270.000015 100.834614 
L 270.253906 95.335155 
L 270.507796 94.36466 
L 270.761686 112.15704 
L 271.015576 88.865201 
L 271.269467 104.069605 
L 271.523357 88.541723 
L 271.777247 91.453177 
L 272.031137 92.100193 
L 272.285028 102.775603 
L 272.538918 96.305649 
L 272.792808 97.92313 
L 273.046698 98.570146 
L 273.300589 100.187627 
L 273.554479 93.070687 
L 273.808369 98.246638 
L 274.062259 86.600734 
L 274.31615 100.834614 
L 274.57004 95.335155 
L 274.82393 95.011676 
L 275.07782 95.658663 
L 275.331711 102.128616 
L 275.585601 97.599652 
L 275.839491 98.570146 
L 276.093381 112.804027 
L 276.347272 94.36466 
L 276.601162 93.070687 
L 276.855052 96.629157 
L 277.108942 90.80619 
L 277.616723 95.011676 
L 277.870613 101.481601 
L 278.124503 91.776685 
L 278.378394 99.540641 
L 278.632284 118.626964 
L 278.886174 92.423671 
L 279.140064 95.335155 
L 279.393955 94.36466 
L 279.647845 109.245557 
L 279.901735 91.129698 
L 280.155626 91.129698 
L 280.409516 104.716592 
L 280.663406 102.452095 
L 280.917296 90.482712 
L 281.171187 97.92313 
L 281.425077 92.100193 
L 281.678967 94.688168 
L 281.932857 100.187627 
L 282.186748 94.688168 
L 282.440638 92.747179 
L 282.694528 97.599652 
L 282.948418 90.159204 
L 283.202309 106.334073 
L 283.456199 95.011676 
L 283.710089 100.187627 
L 284.21787 90.80619 
L 284.47176 108.598541 
L 284.72565 100.187627 
L 284.97954 99.217133 
L 285.233431 93.717674 
L 285.487321 92.747179 
L 285.741211 93.717674 
L 285.995101 95.335155 
L 286.248992 93.717674 
L 286.502882 91.129698 
L 286.756772 96.952636 
L 287.010662 96.305649 
L 287.264553 104.069605 
L 287.518443 93.070687 
L 287.772333 100.187627 
L 288.026223 99.540641 
L 288.280114 95.011676 
L 288.534004 101.481601 
L 288.787894 95.011676 
L 289.041784 107.304568 
L 289.295675 100.511106 
L 289.549565 97.276144 
L 289.803455 104.716592 
L 290.057345 88.541723 
L 290.311236 93.070687 
L 290.565126 114.745016 
L 290.819016 98.570146 
L 291.072906 92.747179 
L 291.326797 92.100193 
L 291.580687 97.599652 
L 291.834577 89.512217 
L 292.088467 97.92313 
L 292.596248 106.657581 
L 292.850138 93.070687 
L 293.357919 103.099111 
L 293.611809 94.36466 
L 293.865699 91.453177 
L 294.119589 97.276144 
L 294.37348 94.688168 
L 294.62737 90.159204 
L 294.88126 88.218215 
L 295.389041 107.304568 
L 295.642931 92.100193 
L 295.896821 99.540641 
L 296.150712 87.571228 
L 296.404602 96.629157 
L 296.658492 100.511106 
L 296.912382 129.94939 
L 297.166273 103.42259 
L 297.420163 89.512217 
L 297.674053 91.776685 
L 297.927943 97.276144 
L 298.181834 89.512217 
L 298.435724 94.041182 
L 298.689614 94.688168 
L 298.943504 94.041182 
L 299.197395 91.129698 
L 299.451285 98.893625 
L 299.705175 96.305649 
L 299.959065 107.951554 
L 300.212956 87.571228 
L 300.466846 94.36466 
L 300.974626 91.776685 
L 301.228517 91.776685 
L 301.482407 89.512217 
L 301.736297 99.217133 
L 301.990187 99.540641 
L 302.497968 90.159204 
L 302.751858 96.629157 
L 303.005748 93.717674 
L 303.259639 95.658663 
L 303.513529 100.834614 
L 303.767419 98.893625 
L 304.021309 94.041182 
L 304.2752 97.599652 
L 304.52909 109.569035 
L 304.78298 95.011676 
L 305.03687 94.36466 
L 305.290761 106.334073 
L 305.544651 108.275062 
L 305.798541 100.187627 
L 306.052431 99.540641 
L 306.306322 95.982141 
L 306.560212 100.511106 
L 306.814102 91.129698 
L 307.067992 91.776685 
L 307.321883 88.865201 
L 307.575773 109.569035 
L 307.829663 86.924212 
L 308.083553 96.952636 
L 308.337444 98.893625 
L 308.845224 97.276144 
L 309.099114 103.42259 
L 309.353005 90.159204 
L 309.606895 91.776685 
L 309.860785 111.833532 
L 310.114675 96.629157 
L 310.368566 94.041182 
L 310.622456 100.834614 
L 310.876346 104.069605 
L 311.130236 91.776685 
L 311.384127 104.393084 
L 311.638017 95.011676 
L 311.891907 103.099111 
L 312.145798 91.453177 
L 312.399688 106.98106 
L 312.653578 95.335155 
L 312.907468 91.453177 
L 313.161359 101.805109 
L 313.415249 95.011676 
L 313.669139 97.92313 
L 313.923029 97.276144 
L 314.17692 95.658663 
L 314.43081 99.86412 
L 314.6847 97.92313 
L 314.93859 91.129698 
L 315.192481 116.362497 
L 315.446371 97.599652 
L 315.700261 93.717674 
L 315.954151 108.275062 
L 316.208042 90.80619 
L 316.461932 122.83245 
L 316.461932 122.83245 
" clip-path="url(#p49e90164bf)" style="fill: none; stroke: #ff0000; stroke-width: 0.6; stroke-linecap: square"/>
   </g>
   <g id="patch_3">
    <path d="M 50.14375 239.76 
L 50.14375 37.296 
" style="fill: none; stroke: #000000; stroke-width: 0.8; stroke-linejoin: miter; stroke-linecap: square"/>
   </g>
   <g id="patch_4">
    <path d="M 329.14375 239.76 
L 329.14375 37.296 
" style="fill: none; stroke: #000000; stroke-width: 0.8; stroke-linejoin: miter; stroke-linecap: square"/>
   </g>
   <g id="patch_5">
    <path d="M 50.14375 239.76 
L 329.14375 239.76 
" style="fill: none; stroke: #000000; stroke-width: 0.8; stroke-linejoin: miter; stroke-linecap: square"/>
   </g>
   <g id="patch_6">
    <path d="M 50.14375 37.296 
L 329.14375 37.296 
" style="fill: none; stroke: #000000; stroke-width: 0.8; stroke-linejoin: miter; stroke-linecap: square"/>
   </g>
   <g id="text_17">
    <!-- Baseline Model -->
    <g transform="translate(155.622344 31.296) scale(0.09 -0.09)">
     <defs>
      <path id="DejaVuSans-42" d="M 1259 2228 
L 1259 519 
L 2272 519 
Q 2781 519 3026 730 
Q 3272 941 3272 1375 
Q 3272 1813 3026 2020 
Q 2781 2228 2272 2228 
L 1259 2228 
z
M 1259 4147 
L 1259 2741 
L 2194 2741 
Q 2656 2741 2882 2914 
Q 3109 3088 3109 3444 
Q 3109 3797 2882 3972 
Q 2656 4147 2194 4147 
L 1259 4147 
z
M 628 4666 
L 2241 4666 
Q 2963 4666 3353 4366 
Q 3744 4066 3744 3513 
Q 3744 3084 3544 2831 
Q 3344 2578 2956 2516 
Q 3422 2416 3680 2098 
Q 3938 1781 3938 1306 
Q 3938 681 3513 340 
Q 3088 0 2303 0 
L 628 0 
L 628 4666 
z
" transform="scale(0.015625)"/>
      <path id="DejaVuSans-65" d="M 3597 1894 
L 3597 1613 
L 953 1613 
Q 991 1019 1311 708 
Q 1631 397 2203 397 
Q 2534 397 2845 478 
Q 3156 559 3463 722 
L 3463 178 
Q 3153 47 2828 -22 
Q 2503 -91 2169 -91 
Q 1331 -91 842 396 
Q 353 884 353 1716 
Q 353 2575 817 3079 
Q 1281 3584 2069 3584 
Q 2775 3584 3186 3129 
Q 3597 2675 3597 1894 
z
M 3022 2063 
Q 3016 2534 2758 2815 
Q 2500 3097 2075 3097 
Q 1594 3097 1305 2825 
Q 1016 2553 972 2059 
L 3022 2063 
z
" transform="scale(0.015625)"/>
      <path id="DejaVuSans-6c" d="M 603 4863 
L 1178 4863 
L 1178 0 
L 603 0 
L 603 4863 
z
" transform="scale(0.015625)"/>
      <path id="DejaVuSans-69" d="M 603 3500 
L 1178 3500 
L 1178 0 
L 603 0 
L 603 3500 
z
M 603 4863 
L 1178 4863 
L 1178 4134 
L 603 4134 
L 603 4863 
z
" transform="scale(0.015625)"/>
      <path id="DejaVuSans-6e" d="M 3513 2113 
L 3513 0 
L 2938 0 
L 2938 2094 
Q 2938 2591 2744 2837 
Q 2550 3084 2163 3084 
Q 1697 3084 1428 2787 
Q 1159 2491 1159 1978 
L 1159 0 
L 581 0 
L 581 3500 
L 1159 3500 
L 1159 2956 
Q 1366 3272 1645 3428 
Q 1925 3584 2291 3584 
Q 2894 3584 3203 3211 
Q 3513 2838 3513 2113 
z
" transform="scale(0.015625)"/>
      <path id="DejaVuSans-20" transform="scale(0.015625)"/>
      <path id="DejaVuSans-4d" d="M 628 4666 
L 1569 4666 
L 2759 1491 
L 3956 4666 
L 4897 4666 
L 4897 0 
L 4281 0 
L 4281 4097 
L 3078 897 
L 2444 897 
L 1241 4097 
L 1241 0 
L 628 0 
L 628 4666 
z
" transform="scale(0.015625)"/>
      <path id="DejaVuSans-64" d="M 2906 2969 
L 2906 4863 
L 3481 4863 
L 3481 0 
L 2906 0 
L 2906 525 
Q 2725 213 2448 61 
Q 2172 -91 1784 -91 
Q 1150 -91 751 415 
Q 353 922 353 1747 
Q 353 2572 751 3078 
Q 1150 3584 1784 3584 
Q 2172 3584 2448 3432 
Q 2725 3281 2906 2969 
z
M 947 1747 
Q 947 1113 1208 752 
Q 1469 391 1925 391 
Q 2381 391 2643 752 
Q 2906 1113 2906 1747 
Q 2906 2381 2643 2742 
Q 2381 3103 1925 3103 
Q 1469 3103 1208 2742 
Q 947 2381 947 1747 
z
" transform="scale(0.015625)"/>
     </defs>
     <use xlink:href="#DejaVuSans-42"/>
     <use xlink:href="#DejaVuSans-61" x="68.603516"/>
     <use xlink:href="#DejaVuSans-73" x="129.882812"/>
     <use xlink:href="#DejaVuSans-65" x="181.982422"/>
     <use xlink:href="#DejaVuSans-6c" x="243.505859"/>
     <use xlink:href="#DejaVuSans-69" x="271.289062"/>
     <use xlink:href="#DejaVuSans-6e" x="299.072266"/>
     <use xlink:href="#DejaVuSans-65" x="362.451172"/>
     <use xlink:href="#DejaVuSans-20" x="423.974609"/>
     <use xlink:href="#DejaVuSans-4d" x="455.761719"/>
     <use xlink:href="#DejaVuSans-6f" x="542.041016"/>
     <use xlink:href="#DejaVuSans-64" x="603.222656"/>
     <use xlink:href="#DejaVuSans-65" x="666.699219"/>
     <use xlink:href="#DejaVuSans-6c" x="728.222656"/>
    </g>
   </g>
   <g id="legend_1">
    <g id="patch_7">
     <path d="M 191.928125 234.76 
L 322.14375 234.76 
Q 324.14375 234.76 324.14375 232.76 
L 324.14375 204.40375 
Q 324.14375 202.40375 322.14375 202.40375 
L 191.928125 202.40375 
Q 189.928125 202.40375 189.928125 204.40375 
L 189.928125 232.76 
Q 189.928125 234.76 191.928125 234.76 
z
" style="fill: #ffffff; opacity: 0.8; stroke: #cccccc; stroke-linejoin: miter"/>
    </g>
    <g id="line2d_31">
     <path d="M 193.928125 210.502187 
L 203.928125 210.502187 
L 213.928125 210.502187 
" style="fill: none; stroke: #0000ff; stroke-width: 0.6; stroke-linecap: square"/>
    </g>
    <g id="text_18">
     <!-- Training Accuracy -->
     <g transform="translate(221.928125 214.002187) scale(0.1 -0.1)">
      <defs>
       <path id="DejaVuSans-54" d="M -19 4666 
L 3928 4666 
L 3928 4134 
L 2272 4134 
L 2272 0 
L 1638 0 
L 1638 4134 
L -19 4134 
L -19 4666 
z
" transform="scale(0.015625)"/>
       <path id="DejaVuSans-67" d="M 2906 1791 
Q 2906 2416 2648 2759 
Q 2391 3103 1925 3103 
Q 1463 3103 1205 2759 
Q 947 2416 947 1791 
Q 947 1169 1205 825 
Q 1463 481 1925 481 
Q 2391 481 2648 825 
Q 2906 1169 2906 1791 
z
M 3481 434 
Q 3481 -459 3084 -895 
Q 2688 -1331 1869 -1331 
Q 1566 -1331 1297 -1286 
Q 1028 -1241 775 -1147 
L 775 -588 
Q 1028 -725 1275 -790 
Q 1522 -856 1778 -856 
Q 2344 -856 2625 -561 
Q 2906 -266 2906 331 
L 2906 616 
Q 2728 306 2450 153 
Q 2172 0 1784 0 
Q 1141 0 747 490 
Q 353 981 353 1791 
Q 353 2603 747 3093 
Q 1141 3584 1784 3584 
Q 2172 3584 2450 3431 
Q 2728 3278 2906 2969 
L 2906 3500 
L 3481 3500 
L 3481 434 
z
" transform="scale(0.015625)"/>
      </defs>
      <use xlink:href="#DejaVuSans-54"/>
      <use xlink:href="#DejaVuSans-72" x="46.333984"/>
      <use xlink:href="#DejaVuSans-61" x="87.447266"/>
      <use xlink:href="#DejaVuSans-69" x="148.726562"/>
      <use xlink:href="#DejaVuSans-6e" x="176.509766"/>
      <use xlink:href="#DejaVuSans-69" x="239.888672"/>
      <use xlink:href="#DejaVuSans-6e" x="267.671875"/>
      <use xlink:href="#DejaVuSans-67" x="331.050781"/>
      <use xlink:href="#DejaVuSans-20" x="394.527344"/>
      <use xlink:href="#DejaVuSans-41" x="426.314453"/>
      <use xlink:href="#DejaVuSans-63" x="492.972656"/>
      <use xlink:href="#DejaVuSans-63" x="547.953125"/>
      <use xlink:href="#DejaVuSans-75" x="602.933594"/>
      <use xlink:href="#DejaVuSans-72" x="666.3125"/>
      <use xlink:href="#DejaVuSans-61" x="707.425781"/>
      <use xlink:href="#DejaVuSans-63" x="768.705078"/>
      <use xlink:href="#DejaVuSans-79" x="823.685547"/>
     </g>
    </g>
    <g id="line2d_32">
     <path d="M 193.928125 225.180312 
L 203.928125 225.180312 
L 213.928125 225.180312 
" style="fill: none; stroke: #ff0000; stroke-width: 0.6; stroke-linecap: square"/>
    </g>
    <g id="text_19">
     <!-- Validation Accuracy -->
     <g transform="translate(221.928125 228.680312) scale(0.1 -0.1)">
      <defs>
       <path id="DejaVuSans-56" d="M 1831 0 
L 50 4666 
L 709 4666 
L 2188 738 
L 3669 4666 
L 4325 4666 
L 2547 0 
L 1831 0 
z
" transform="scale(0.015625)"/>
       <path id="DejaVuSans-74" d="M 1172 4494 
L 1172 3500 
L 2356 3500 
L 2356 3053 
L 1172 3053 
L 1172 1153 
Q 1172 725 1289 603 
Q 1406 481 1766 481 
L 2356 481 
L 2356 0 
L 1766 0 
Q 1100 0 847 248 
Q 594 497 594 1153 
L 594 3053 
L 172 3053 
L 172 3500 
L 594 3500 
L 594 4494 
L 1172 4494 
z
" transform="scale(0.015625)"/>
      </defs>
      <use xlink:href="#DejaVuSans-56"/>
      <use xlink:href="#DejaVuSans-61" x="60.658203"/>
      <use xlink:href="#DejaVuSans-6c" x="121.9375"/>
      <use xlink:href="#DejaVuSans-69" x="149.720703"/>
      <use xlink:href="#DejaVuSans-64" x="177.503906"/>
      <use xlink:href="#DejaVuSans-61" x="240.980469"/>
      <use xlink:href="#DejaVuSans-74" x="302.259766"/>
      <use xlink:href="#DejaVuSans-69" x="341.46875"/>
      <use xlink:href="#DejaVuSans-6f" x="369.251953"/>
      <use xlink:href="#DejaVuSans-6e" x="430.433594"/>
      <use xlink:href="#DejaVuSans-20" x="493.8125"/>
      <use xlink:href="#DejaVuSans-41" x="525.599609"/>
      <use xlink:href="#DejaVuSans-63" x="592.257812"/>
      <use xlink:href="#DejaVuSans-63" x="647.238281"/>
      <use xlink:href="#DejaVuSans-75" x="702.21875"/>
      <use xlink:href="#DejaVuSans-72" x="765.597656"/>
      <use xlink:href="#DejaVuSans-61" x="806.710938"/>
      <use xlink:href="#DejaVuSans-63" x="867.990234"/>
      <use xlink:href="#DejaVuSans-79" x="922.970703"/>
     </g>
    </g>
   </g>
  </g>
  <g id="text_20">
   <!-- Training VS. Validation Accuracy - Dataset Size = 100.0% -->
   <g transform="translate(27.796484 15.558281) scale(0.11 -0.11)">
    <defs>
     <path id="DejaVuSans-53" d="M 3425 4513 
L 3425 3897 
Q 3066 4069 2747 4153 
Q 2428 4238 2131 4238 
Q 1616 4238 1336 4038 
Q 1056 3838 1056 3469 
Q 1056 3159 1242 3001 
Q 1428 2844 1947 2747 
L 2328 2669 
Q 3034 2534 3370 2195 
Q 3706 1856 3706 1288 
Q 3706 609 3251 259 
Q 2797 -91 1919 -91 
Q 1588 -91 1214 -16 
Q 841 59 441 206 
L 441 856 
Q 825 641 1194 531 
Q 1563 422 1919 422 
Q 2459 422 2753 634 
Q 3047 847 3047 1241 
Q 3047 1584 2836 1778 
Q 2625 1972 2144 2069 
L 1759 2144 
Q 1053 2284 737 2584 
Q 422 2884 422 3419 
Q 422 4038 858 4394 
Q 1294 4750 2059 4750 
Q 2388 4750 2728 4690 
Q 3069 4631 3425 4513 
z
" transform="scale(0.015625)"/>
     <path id="DejaVuSans-2d" d="M 313 2009 
L 1997 2009 
L 1997 1497 
L 313 1497 
L 313 2009 
z
" transform="scale(0.015625)"/>
     <path id="DejaVuSans-44" d="M 1259 4147 
L 1259 519 
L 2022 519 
Q 2988 519 3436 956 
Q 3884 1394 3884 2338 
Q 3884 3275 3436 3711 
Q 2988 4147 2022 4147 
L 1259 4147 
z
M 628 4666 
L 1925 4666 
Q 3281 4666 3915 4102 
Q 4550 3538 4550 2338 
Q 4550 1131 3912 565 
Q 3275 0 1925 0 
L 628 0 
L 628 4666 
z
" transform="scale(0.015625)"/>
     <path id="DejaVuSans-7a" d="M 353 3500 
L 3084 3500 
L 3084 2975 
L 922 459 
L 3084 459 
L 3084 0 
L 275 0 
L 275 525 
L 2438 3041 
L 353 3041 
L 353 3500 
z
" transform="scale(0.015625)"/>
     <path id="DejaVuSans-3d" d="M 678 2906 
L 4684 2906 
L 4684 2381 
L 678 2381 
L 678 2906 
z
M 678 1631 
L 4684 1631 
L 4684 1100 
L 678 1100 
L 678 1631 
z
" transform="scale(0.015625)"/>
     <path id="DejaVuSans-25" d="M 4653 2053 
Q 4381 2053 4226 1822 
Q 4072 1591 4072 1178 
Q 4072 772 4226 539 
Q 4381 306 4653 306 
Q 4919 306 5073 539 
Q 5228 772 5228 1178 
Q 5228 1588 5073 1820 
Q 4919 2053 4653 2053 
z
M 4653 2450 
Q 5147 2450 5437 2106 
Q 5728 1763 5728 1178 
Q 5728 594 5436 251 
Q 5144 -91 4653 -91 
Q 4153 -91 3862 251 
Q 3572 594 3572 1178 
Q 3572 1766 3864 2108 
Q 4156 2450 4653 2450 
z
M 1428 4353 
Q 1159 4353 1004 4120 
Q 850 3888 850 3481 
Q 850 3069 1003 2837 
Q 1156 2606 1428 2606 
Q 1700 2606 1854 2837 
Q 2009 3069 2009 3481 
Q 2009 3884 1853 4118 
Q 1697 4353 1428 4353 
z
M 4250 4750 
L 4750 4750 
L 1831 -91 
L 1331 -91 
L 4250 4750 
z
M 1428 4750 
Q 1922 4750 2215 4408 
Q 2509 4066 2509 3481 
Q 2509 2891 2217 2550 
Q 1925 2209 1428 2209 
Q 931 2209 642 2551 
Q 353 2894 353 3481 
Q 353 4063 643 4406 
Q 934 4750 1428 4750 
z
" transform="scale(0.015625)"/>
    </defs>
    <use xlink:href="#DejaVuSans-54"/>
    <use xlink:href="#DejaVuSans-72" x="46.333984"/>
    <use xlink:href="#DejaVuSans-61" x="87.447266"/>
    <use xlink:href="#DejaVuSans-69" x="148.726562"/>
    <use xlink:href="#DejaVuSans-6e" x="176.509766"/>
    <use xlink:href="#DejaVuSans-69" x="239.888672"/>
    <use xlink:href="#DejaVuSans-6e" x="267.671875"/>
    <use xlink:href="#DejaVuSans-67" x="331.050781"/>
    <use xlink:href="#DejaVuSans-20" x="394.527344"/>
    <use xlink:href="#DejaVuSans-56" x="426.314453"/>
    <use xlink:href="#DejaVuSans-53" x="494.722656"/>
    <use xlink:href="#DejaVuSans-2e" x="558.199219"/>
    <use xlink:href="#DejaVuSans-20" x="589.986328"/>
    <use xlink:href="#DejaVuSans-56" x="621.773438"/>
    <use xlink:href="#DejaVuSans-61" x="682.431641"/>
    <use xlink:href="#DejaVuSans-6c" x="743.710938"/>
    <use xlink:href="#DejaVuSans-69" x="771.494141"/>
    <use xlink:href="#DejaVuSans-64" x="799.277344"/>
    <use xlink:href="#DejaVuSans-61" x="862.753906"/>
    <use xlink:href="#DejaVuSans-74" x="924.033203"/>
    <use xlink:href="#DejaVuSans-69" x="963.242188"/>
    <use xlink:href="#DejaVuSans-6f" x="991.025391"/>
    <use xlink:href="#DejaVuSans-6e" x="1052.207031"/>
    <use xlink:href="#DejaVuSans-20" x="1115.585938"/>
    <use xlink:href="#DejaVuSans-41" x="1147.373047"/>
    <use xlink:href="#DejaVuSans-63" x="1214.03125"/>
    <use xlink:href="#DejaVuSans-63" x="1269.011719"/>
    <use xlink:href="#DejaVuSans-75" x="1323.992188"/>
    <use xlink:href="#DejaVuSans-72" x="1387.371094"/>
    <use xlink:href="#DejaVuSans-61" x="1428.484375"/>
    <use xlink:href="#DejaVuSans-63" x="1489.763672"/>
    <use xlink:href="#DejaVuSans-79" x="1544.744141"/>
    <use xlink:href="#DejaVuSans-20" x="1603.923828"/>
    <use xlink:href="#DejaVuSans-2d" x="1635.710938"/>
    <use xlink:href="#DejaVuSans-20" x="1671.794922"/>
    <use xlink:href="#DejaVuSans-44" x="1703.582031"/>
    <use xlink:href="#DejaVuSans-61" x="1780.583984"/>
    <use xlink:href="#DejaVuSans-74" x="1841.863281"/>
    <use xlink:href="#DejaVuSans-61" x="1881.072266"/>
    <use xlink:href="#DejaVuSans-73" x="1942.351562"/>
    <use xlink:href="#DejaVuSans-65" x="1994.451172"/>
    <use xlink:href="#DejaVuSans-74" x="2055.974609"/>
    <use xlink:href="#DejaVuSans-20" x="2095.183594"/>
    <use xlink:href="#DejaVuSans-53" x="2126.970703"/>
    <use xlink:href="#DejaVuSans-69" x="2190.447266"/>
    <use xlink:href="#DejaVuSans-7a" x="2218.230469"/>
    <use xlink:href="#DejaVuSans-65" x="2270.720703"/>
    <use xlink:href="#DejaVuSans-20" x="2332.244141"/>
    <use xlink:href="#DejaVuSans-3d" x="2364.03125"/>
    <use xlink:href="#DejaVuSans-20" x="2447.820312"/>
    <use xlink:href="#DejaVuSans-31" x="2479.607422"/>
    <use xlink:href="#DejaVuSans-30" x="2543.230469"/>
    <use xlink:href="#DejaVuSans-30" x="2606.853516"/>
    <use xlink:href="#DejaVuSans-2e" x="2670.476562"/>
    <use xlink:href="#DejaVuSans-30" x="2702.263672"/>
    <use xlink:href="#DejaVuSans-25" x="2765.886719"/>
   </g>
  </g>
 </g>
 <defs>
  <clipPath id="p49e90164bf">
   <rect x="50.14375" y="37.296" width="279" height="202.464"/>
  </clipPath>
 </defs>
</svg>
