<?xml version="1.0" encoding="utf-8" standalone="no"?>
<!DOCTYPE svg PUBLIC "-//W3C//DTD SVG 1.1//EN"
  "http://www.w3.org/Graphics/SVG/1.1/DTD/svg11.dtd">
<svg xmlns:xlink="http://www.w3.org/1999/xlink" width="349.691016pt" height="277.31625pt" viewBox="0 0 349.691016 277.31625" xmlns="http://www.w3.org/2000/svg" version="1.1">
 <metadata>
  <rdf:RDF xmlns:dc="http://purl.org/dc/elements/1.1/" xmlns:cc="http://creativecommons.org/ns#" xmlns:rdf="http://www.w3.org/1999/02/22-rdf-syntax-ns#">
   <cc:Work>
    <dc:type rdf:resource="http://purl.org/dc/dcmitype/StillImage"/>
    <dc:date>2026-06-11T17:48:09.612897</dc:date>
    <dc:format>image/svg+xml</dc:format>
    <dc:creator>
     <cc:Agent>
      <dc:title>Matplotlib v3.8.4, https://matplotlib.org/</dc:title>
     </cc:Agent>
    </dc:creator>
   </cc:Work>
  </rdf:RDF>
 </metadata>
 <defs>
  <style type="text/css">*{stroke-linejoin: round; stroke-linecap: butt}</style>
 </defs>
 <g id="figure_1">
  <g id="patch_1">
   <path d="M 0 277.31625 
L 349.691016 277.31625 
L 349.691016 0 
L 0 0 
z
" style="fill: #ffffff"/>
  </g>
  <g id="axes_1">
   <g id="patch_2">
    <path d="M 50.14375 239.76 
L 329.14375 239.76 
L 329.14375 37.296 
L 50.14375 37.296 
z
" style="fill: #ffffff"/>
   </g>
   <g id="matplotlib.axis_1">
    <g id="xtick_1">
     <g id="line2d_1">
      <path d="M 62.571678 239.76 
L 62.571678 37.296 
" clip-path="url(#p0e31cd0215)" style="fill: none; stroke-dasharray: 2.96,1.28; stroke-dashoffset: 0; stroke: #b0b0b0; stroke-opacity: 0.4; stroke-width: 0.8"/>
     </g>
     <g id="line2d_2">
      <defs>
       <path id="ma103ebc3a3" d="M 0 0 
L 0 3.5 
" style="stroke: #000000; stroke-width: 0.8"/>
      </defs>
      <g>
       <use xlink:href="#ma103ebc3a3" x="62.571678" y="239.76" style="stroke: #000000; stroke-width: 0.8"/>
      </g>
     </g>
     <g id="text_1">
      <!-- 0 -->
      <g transform="translate(59.390428 254.358437) scale(0.1 -0.1)">
       <defs>
        <path id="DejaVuSans-30" d="M 2034 4250 
Q 1547 4250 1301 3770 
Q 1056 3291 1056 2328 
Q 1056 1369 1301 889 
Q 1547 409 2034 409 
Q 2525 409 2770 889 
Q 3016 1369 3016 2328 
Q 3016 3291 2770 3770 
Q 2525 4250 2034 4250 
z
M 2034 4750 
Q 2819 4750 3233 4129 
Q 3647 3509 3647 2328 
Q 3647 1150 3233 529 
Q 2819 -91 2034 -91 
Q 1250 -91 836 529 
Q 422 1150 422 2328 
Q 422 3509 836 4129 
Q 1250 4750 2034 4750 
z
" transform="scale(0.015625)"/>
       </defs>
       <use xlink:href="#DejaVuSans-30"/>
      </g>
     </g>
    </g>
    <g id="xtick_2">
     <g id="line2d_3">
      <path d="M 113.349729 239.76 
L 113.349729 37.296 
" clip-path="url(#p0e31cd0215)" style="fill: none; stroke-dasharray: 2.96,1.28; stroke-dashoffset: 0; stroke: #b0b0b0; stroke-opacity: 0.4; stroke-width: 0.8"/>
     </g>
     <g id="line2d_4">
      <g>
       <use xlink:href="#ma103ebc3a3" x="113.349729" y="239.76" style="stroke: #000000; stroke-width: 0.8"/>
      </g>
     </g>
     <g id="text_2">
      <!-- 200 -->
      <g transform="translate(103.805979 254.358437) scale(0.1 -0.1)">
       <defs>
        <path id="DejaVuSans-32" d="M 1228 531 
L 3431 531 
L 3431 0 
L 469 0 
L 469 531 
Q 828 903 1448 1529 
Q 2069 2156 2228 2338 
Q 2531 2678 2651 2914 
Q 2772 3150 2772 3378 
Q 2772 3750 2511 3984 
Q 2250 4219 1831 4219 
Q 1534 4219 1204 4116 
Q 875 4013 500 3803 
L 500 4441 
Q 881 4594 1212 4672 
Q 1544 4750 1819 4750 
Q 2544 4750 2975 4387 
Q 3406 4025 3406 3419 
Q 3406 3131 3298 2873 
Q 3191 2616 2906 2266 
Q 2828 2175 2409 1742 
Q 1991 1309 1228 531 
z
" transform="scale(0.015625)"/>
       </defs>
       <use xlink:href="#DejaVuSans-32"/>
       <use xlink:href="#DejaVuSans-30" x="63.623047"/>
       <use xlink:href="#DejaVuSans-30" x="127.246094"/>
      </g>
     </g>
    </g>
    <g id="xtick_3">
     <g id="line2d_5">
      <path d="M 164.127779 239.76 
L 164.127779 37.296 
" clip-path="url(#p0e31cd0215)" style="fill: none; stroke-dasharray: 2.96,1.28; stroke-dashoffset: 0; stroke: #b0b0b0; stroke-opacity: 0.4; stroke-width: 0.8"/>
     </g>
     <g id="line2d_6">
      <g>
       <use xlink:href="#ma103ebc3a3" x="164.127779" y="239.76" style="stroke: #000000; stroke-width: 0.8"/>
      </g>
     </g>
     <g id="text_3">
      <!-- 400 -->
      <g transform="translate(154.584029 254.358437) scale(0.1 -0.1)">
       <defs>
        <path id="DejaVuSans-34" d="M 2419 4116 
L 825 1625 
L 2419 1625 
L 2419 4116 
z
M 2253 4666 
L 3047 4666 
L 3047 1625 
L 3713 1625 
L 3713 1100 
L 3047 1100 
L 3047 0 
L 2419 0 
L 2419 1100 
L 313 1100 
L 313 1709 
L 2253 4666 
z
" transform="scale(0.015625)"/>
       </defs>
       <use xlink:href="#DejaVuSans-34"/>
       <use xlink:href="#DejaVuSans-30" x="63.623047"/>
       <use xlink:href="#DejaVuSans-30" x="127.246094"/>
      </g>
     </g>
    </g>
    <g id="xtick_4">
     <g id="line2d_7">
      <path d="M 214.90583 239.76 
L 214.90583 37.296 
" clip-path="url(#p0e31cd0215)" style="fill: none; stroke-dasharray: 2.96,1.28; stroke-dashoffset: 0; stroke: #b0b0b0; stroke-opacity: 0.4; stroke-width: 0.8"/>
     </g>
     <g id="line2d_8">
      <g>
       <use xlink:href="#ma103ebc3a3" x="214.90583" y="239.76" style="stroke: #000000; stroke-width: 0.8"/>
      </g>
     </g>
     <g id="text_4">
      <!-- 600 -->
      <g transform="translate(205.36208 254.358437) scale(0.1 -0.1)">
       <defs>
        <path id="DejaVuSans-36" d="M 2113 2584 
Q 1688 2584 1439 2293 
Q 1191 2003 1191 1497 
Q 1191 994 1439 701 
Q 1688 409 2113 409 
Q 2538 409 2786 701 
Q 3034 994 3034 1497 
Q 3034 2003 2786 2293 
Q 2538 2584 2113 2584 
z
M 3366 4563 
L 3366 3988 
Q 3128 4100 2886 4159 
Q 2644 4219 2406 4219 
Q 1781 4219 1451 3797 
Q 1122 3375 1075 2522 
Q 1259 2794 1537 2939 
Q 1816 3084 2150 3084 
Q 2853 3084 3261 2657 
Q 3669 2231 3669 1497 
Q 3669 778 3244 343 
Q 2819 -91 2113 -91 
Q 1303 -91 875 529 
Q 447 1150 447 2328 
Q 447 3434 972 4092 
Q 1497 4750 2381 4750 
Q 2619 4750 2861 4703 
Q 3103 4656 3366 4563 
z
" transform="scale(0.015625)"/>
       </defs>
       <use xlink:href="#DejaVuSans-36"/>
       <use xlink:href="#DejaVuSans-30" x="63.623047"/>
       <use xlink:href="#DejaVuSans-30" x="127.246094"/>
      </g>
     </g>
    </g>
    <g id="xtick_5">
     <g id="line2d_9">
      <path d="M 265.683881 239.76 
L 265.683881 37.296 
" clip-path="url(#p0e31cd0215)" style="fill: none; stroke-dasharray: 2.96,1.28; stroke-dashoffset: 0; stroke: #b0b0b0; stroke-opacity: 0.4; stroke-width: 0.8"/>
     </g>
     <g id="line2d_10">
      <g>
       <use xlink:href="#ma103ebc3a3" x="265.683881" y="239.76" style="stroke: #000000; stroke-width: 0.8"/>
      </g>
     </g>
     <g id="text_5">
      <!-- 800 -->
      <g transform="translate(256.140131 254.358437) scale(0.1 -0.1)">
       <defs>
        <path id="DejaVuSans-38" d="M 2034 2216 
Q 1584 2216 1326 1975 
Q 1069 1734 1069 1313 
Q 1069 891 1326 650 
Q 1584 409 2034 409 
Q 2484 409 2743 651 
Q 3003 894 3003 1313 
Q 3003 1734 2745 1975 
Q 2488 2216 2034 2216 
z
M 1403 2484 
Q 997 2584 770 2862 
Q 544 3141 544 3541 
Q 544 4100 942 4425 
Q 1341 4750 2034 4750 
Q 2731 4750 3128 4425 
Q 3525 4100 3525 3541 
Q 3525 3141 3298 2862 
Q 3072 2584 2669 2484 
Q 3125 2378 3379 2068 
Q 3634 1759 3634 1313 
Q 3634 634 3220 271 
Q 2806 -91 2034 -91 
Q 1263 -91 848 271 
Q 434 634 434 1313 
Q 434 1759 690 2068 
Q 947 2378 1403 2484 
z
M 1172 3481 
Q 1172 3119 1398 2916 
Q 1625 2713 2034 2713 
Q 2441 2713 2670 2916 
Q 2900 3119 2900 3481 
Q 2900 3844 2670 4047 
Q 2441 4250 2034 4250 
Q 1625 4250 1398 4047 
Q 1172 3844 1172 3481 
z
" transform="scale(0.015625)"/>
       </defs>
       <use xlink:href="#DejaVuSans-38"/>
       <use xlink:href="#DejaVuSans-30" x="63.623047"/>
       <use xlink:href="#DejaVuSans-30" x="127.246094"/>
      </g>
     </g>
    </g>
    <g id="xtick_6">
     <g id="line2d_11">
      <path d="M 316.461932 239.76 
L 316.461932 37.296 
" clip-path="url(#p0e31cd0215)" style="fill: none; stroke-dasharray: 2.96,1.28; stroke-dashoffset: 0; stroke: #b0b0b0; stroke-opacity: 0.4; stroke-width: 0.8"/>
     </g>
     <g id="line2d_12">
      <g>
       <use xlink:href="#ma103ebc3a3" x="316.461932" y="239.76" style="stroke: #000000; stroke-width: 0.8"/>
      </g>
     </g>
     <g id="text_6">
      <!-- 1000 -->
      <g transform="translate(303.736932 254.358437) scale(0.1 -0.1)">
       <defs>
        <path id="DejaVuSans-31" d="M 794 531 
L 1825 531 
L 1825 4091 
L 703 3866 
L 703 4441 
L 1819 4666 
L 2450 4666 
L 2450 531 
L 3481 531 
L 3481 0 
L 794 0 
L 794 531 
z
" transform="scale(0.015625)"/>
       </defs>
       <use xlink:href="#DejaVuSans-31"/>
       <use xlink:href="#DejaVuSans-30" x="63.623047"/>
       <use xlink:href="#DejaVuSans-30" x="127.246094"/>
       <use xlink:href="#DejaVuSans-30" x="190.869141"/>
      </g>
     </g>
    </g>
    <g id="text_7">
     <!-- Epochs -->
     <g transform="translate(171.728125 268.036562) scale(0.1 -0.1)">
      <defs>
       <path id="DejaVuSans-45" d="M 628 4666 
L 3578 4666 
L 3578 4134 
L 1259 4134 
L 1259 2753 
L 3481 2753 
L 3481 2222 
L 1259 2222 
L 1259 531 
L 3634 531 
L 3634 0 
L 628 0 
L 628 4666 
z
" transform="scale(0.015625)"/>
       <path id="DejaVuSans-70" d="M 1159 525 
L 1159 -1331 
L 581 -1331 
L 581 3500 
L 1159 3500 
L 1159 2969 
Q 1341 3281 1617 3432 
Q 1894 3584 2278 3584 
Q 2916 3584 3314 3078 
Q 3713 2572 3713 1747 
Q 3713 922 3314 415 
Q 2916 -91 2278 -91 
Q 1894 -91 1617 61 
Q 1341 213 1159 525 
z
M 3116 1747 
Q 3116 2381 2855 2742 
Q 2594 3103 2138 3103 
Q 1681 3103 1420 2742 
Q 1159 2381 1159 1747 
Q 1159 1113 1420 752 
Q 1681 391 2138 391 
Q 2594 391 2855 752 
Q 3116 1113 3116 1747 
z
" transform="scale(0.015625)"/>
       <path id="DejaVuSans-6f" d="M 1959 3097 
Q 1497 3097 1228 2736 
Q 959 2375 959 1747 
Q 959 1119 1226 758 
Q 1494 397 1959 397 
Q 2419 397 2687 759 
Q 2956 1122 2956 1747 
Q 2956 2369 2687 2733 
Q 2419 3097 1959 3097 
z
M 1959 3584 
Q 2709 3584 3137 3096 
Q 3566 2609 3566 1747 
Q 3566 888 3137 398 
Q 2709 -91 1959 -91 
Q 1206 -91 779 398 
Q 353 888 353 1747 
Q 353 2609 779 3096 
Q 1206 3584 1959 3584 
z
" transform="scale(0.015625)"/>
       <path id="DejaVuSans-63" d="M 3122 3366 
L 3122 2828 
Q 2878 2963 2633 3030 
Q 2388 3097 2138 3097 
Q 1578 3097 1268 2742 
Q 959 2388 959 1747 
Q 959 1106 1268 751 
Q 1578 397 2138 397 
Q 2388 397 2633 464 
Q 2878 531 3122 666 
L 3122 134 
Q 2881 22 2623 -34 
Q 2366 -91 2075 -91 
Q 1284 -91 818 406 
Q 353 903 353 1747 
Q 353 2603 823 3093 
Q 1294 3584 2113 3584 
Q 2378 3584 2631 3529 
Q 2884 3475 3122 3366 
z
" transform="scale(0.015625)"/>
       <path id="DejaVuSans-68" d="M 3513 2113 
L 3513 0 
L 2938 0 
L 2938 2094 
Q 2938 2591 2744 2837 
Q 2550 3084 2163 3084 
Q 1697 3084 1428 2787 
Q 1159 2491 1159 1978 
L 1159 0 
L 581 0 
L 581 4863 
L 1159 4863 
L 1159 2956 
Q 1366 3272 1645 3428 
Q 1925 3584 2291 3584 
Q 2894 3584 3203 3211 
Q 3513 2838 3513 2113 
z
" transform="scale(0.015625)"/>
       <path id="DejaVuSans-73" d="M 2834 3397 
L 2834 2853 
Q 2591 2978 2328 3040 
Q 2066 3103 1784 3103 
Q 1356 3103 1142 2972 
Q 928 2841 928 2578 
Q 928 2378 1081 2264 
Q 1234 2150 1697 2047 
L 1894 2003 
Q 2506 1872 2764 1633 
Q 3022 1394 3022 966 
Q 3022 478 2636 193 
Q 2250 -91 1575 -91 
Q 1294 -91 989 -36 
Q 684 19 347 128 
L 347 722 
Q 666 556 975 473 
Q 1284 391 1588 391 
Q 1994 391 2212 530 
Q 2431 669 2431 922 
Q 2431 1156 2273 1281 
Q 2116 1406 1581 1522 
L 1381 1569 
Q 847 1681 609 1914 
Q 372 2147 372 2553 
Q 372 3047 722 3315 
Q 1072 3584 1716 3584 
Q 2034 3584 2315 3537 
Q 2597 3491 2834 3397 
z
" transform="scale(0.015625)"/>
      </defs>
      <use xlink:href="#DejaVuSans-45"/>
      <use xlink:href="#DejaVuSans-70" x="63.183594"/>
      <use xlink:href="#DejaVuSans-6f" x="126.660156"/>
      <use xlink:href="#DejaVuSans-63" x="187.841797"/>
      <use xlink:href="#DejaVuSans-68" x="242.822266"/>
      <use xlink:href="#DejaVuSans-73" x="306.201172"/>
     </g>
    </g>
   </g>
   <g id="matplotlib.axis_2">
    <g id="ytick_1">
     <g id="line2d_13">
      <path d="M 50.14375 232.50296 
L 329.14375 232.50296 
" clip-path="url(#p0e31cd0215)" style="fill: none; stroke-dasharray: 2.96,1.28; stroke-dashoffset: 0; stroke: #b0b0b0; stroke-opacity: 0.4; stroke-width: 0.8"/>
     </g>
     <g id="line2d_14">
      <defs>
       <path id="m8488e028be" d="M 0 0 
L -3.5 0 
" style="stroke: #000000; stroke-width: 0.8"/>
      </defs>
      <g>
       <use xlink:href="#m8488e028be" x="50.14375" y="232.50296" style="stroke: #000000; stroke-width: 0.8"/>
      </g>
     </g>
     <g id="text_8">
      <!-- 0.50 -->
      <g transform="translate(20.878125 236.302179) scale(0.1 -0.1)">
       <defs>
        <path id="DejaVuSans-2e" d="M 684 794 
L 1344 794 
L 1344 0 
L 684 0 
L 684 794 
z
" transform="scale(0.015625)"/>
        <path id="DejaVuSans-35" d="M 691 4666 
L 3169 4666 
L 3169 4134 
L 1269 4134 
L 1269 2991 
Q 1406 3038 1543 3061 
Q 1681 3084 1819 3084 
Q 2600 3084 3056 2656 
Q 3513 2228 3513 1497 
Q 3513 744 3044 326 
Q 2575 -91 1722 -91 
Q 1428 -91 1123 -41 
Q 819 9 494 109 
L 494 744 
Q 775 591 1075 516 
Q 1375 441 1709 441 
Q 2250 441 2565 725 
Q 2881 1009 2881 1497 
Q 2881 1984 2565 2268 
Q 2250 2553 1709 2553 
Q 1456 2553 1204 2497 
Q 953 2441 691 2322 
L 691 4666 
z
" transform="scale(0.015625)"/>
       </defs>
       <use xlink:href="#DejaVuSans-30"/>
       <use xlink:href="#DejaVuSans-2e" x="63.623047"/>
       <use xlink:href="#DejaVuSans-35" x="95.410156"/>
       <use xlink:href="#DejaVuSans-30" x="159.033203"/>
      </g>
     </g>
    </g>
    <g id="ytick_2">
     <g id="line2d_15">
      <path d="M 50.14375 207.855337 
L 329.14375 207.855337 
" clip-path="url(#p0e31cd0215)" style="fill: none; stroke-dasharray: 2.96,1.28; stroke-dashoffset: 0; stroke: #b0b0b0; stroke-opacity: 0.4; stroke-width: 0.8"/>
     </g>
     <g id="line2d_16">
      <g>
       <use xlink:href="#m8488e028be" x="50.14375" y="207.855337" style="stroke: #000000; stroke-width: 0.8"/>
      </g>
     </g>
     <g id="text_9">
      <!-- 0.55 -->
      <g transform="translate(20.878125 211.654556) scale(0.1 -0.1)">
       <use xlink:href="#DejaVuSans-30"/>
       <use xlink:href="#DejaVuSans-2e" x="63.623047"/>
       <use xlink:href="#DejaVuSans-35" x="95.410156"/>
       <use xlink:href="#DejaVuSans-35" x="159.033203"/>
      </g>
     </g>
    </g>
    <g id="ytick_3">
     <g id="line2d_17">
      <path d="M 50.14375 183.207714 
L 329.14375 183.207714 
" clip-path="url(#p0e31cd0215)" style="fill: none; stroke-dasharray: 2.96,1.28; stroke-dashoffset: 0; stroke: #b0b0b0; stroke-opacity: 0.4; stroke-width: 0.8"/>
     </g>
     <g id="line2d_18">
      <g>
       <use xlink:href="#m8488e028be" x="50.14375" y="183.207714" style="stroke: #000000; stroke-width: 0.8"/>
      </g>
     </g>
     <g id="text_10">
      <!-- 0.60 -->
      <g transform="translate(20.878125 187.006933) scale(0.1 -0.1)">
       <use xlink:href="#DejaVuSans-30"/>
       <use xlink:href="#DejaVuSans-2e" x="63.623047"/>
       <use xlink:href="#DejaVuSans-36" x="95.410156"/>
       <use xlink:href="#DejaVuSans-30" x="159.033203"/>
      </g>
     </g>
    </g>
    <g id="ytick_4">
     <g id="line2d_19">
      <path d="M 50.14375 158.560091 
L 329.14375 158.560091 
" clip-path="url(#p0e31cd0215)" style="fill: none; stroke-dasharray: 2.96,1.28; stroke-dashoffset: 0; stroke: #b0b0b0; stroke-opacity: 0.4; stroke-width: 0.8"/>
     </g>
     <g id="line2d_20">
      <g>
       <use xlink:href="#m8488e028be" x="50.14375" y="158.560091" style="stroke: #000000; stroke-width: 0.8"/>
      </g>
     </g>
     <g id="text_11">
      <!-- 0.65 -->
      <g transform="translate(20.878125 162.35931) scale(0.1 -0.1)">
       <use xlink:href="#DejaVuSans-30"/>
       <use xlink:href="#DejaVuSans-2e" x="63.623047"/>
       <use xlink:href="#DejaVuSans-36" x="95.410156"/>
       <use xlink:href="#DejaVuSans-35" x="159.033203"/>
      </g>
     </g>
    </g>
    <g id="ytick_5">
     <g id="line2d_21">
      <path d="M 50.14375 133.912468 
L 329.14375 133.912468 
" clip-path="url(#p0e31cd0215)" style="fill: none; stroke-dasharray: 2.96,1.28; stroke-dashoffset: 0; stroke: #b0b0b0; stroke-opacity: 0.4; stroke-width: 0.8"/>
     </g>
     <g id="line2d_22">
      <g>
       <use xlink:href="#m8488e028be" x="50.14375" y="133.912468" style="stroke: #000000; stroke-width: 0.8"/>
      </g>
     </g>
     <g id="text_12">
      <!-- 0.70 -->
      <g transform="translate(20.878125 137.711686) scale(0.1 -0.1)">
       <defs>
        <path id="DejaVuSans-37" d="M 525 4666 
L 3525 4666 
L 3525 4397 
L 1831 0 
L 1172 0 
L 2766 4134 
L 525 4134 
L 525 4666 
z
" transform="scale(0.015625)"/>
       </defs>
       <use xlink:href="#DejaVuSans-30"/>
       <use xlink:href="#DejaVuSans-2e" x="63.623047"/>
       <use xlink:href="#DejaVuSans-37" x="95.410156"/>
       <use xlink:href="#DejaVuSans-30" x="159.033203"/>
      </g>
     </g>
    </g>
    <g id="ytick_6">
     <g id="line2d_23">
      <path d="M 50.14375 109.264845 
L 329.14375 109.264845 
" clip-path="url(#p0e31cd0215)" style="fill: none; stroke-dasharray: 2.96,1.28; stroke-dashoffset: 0; stroke: #b0b0b0; stroke-opacity: 0.4; stroke-width: 0.8"/>
     </g>
     <g id="line2d_24">
      <g>
       <use xlink:href="#m8488e028be" x="50.14375" y="109.264845" style="stroke: #000000; stroke-width: 0.8"/>
      </g>
     </g>
     <g id="text_13">
      <!-- 0.75 -->
      <g transform="translate(20.878125 113.064063) scale(0.1 -0.1)">
       <use xlink:href="#DejaVuSans-30"/>
       <use xlink:href="#DejaVuSans-2e" x="63.623047"/>
       <use xlink:href="#DejaVuSans-37" x="95.410156"/>
       <use xlink:href="#DejaVuSans-35" x="159.033203"/>
      </g>
     </g>
    </g>
    <g id="ytick_7">
     <g id="line2d_25">
      <path d="M 50.14375 84.617221 
L 329.14375 84.617221 
" clip-path="url(#p0e31cd0215)" style="fill: none; stroke-dasharray: 2.96,1.28; stroke-dashoffset: 0; stroke: #b0b0b0; stroke-opacity: 0.4; stroke-width: 0.8"/>
     </g>
     <g id="line2d_26">
      <g>
       <use xlink:href="#m8488e028be" x="50.14375" y="84.617221" style="stroke: #000000; stroke-width: 0.8"/>
      </g>
     </g>
     <g id="text_14">
      <!-- 0.80 -->
      <g transform="translate(20.878125 88.41644) scale(0.1 -0.1)">
       <use xlink:href="#DejaVuSans-30"/>
       <use xlink:href="#DejaVuSans-2e" x="63.623047"/>
       <use xlink:href="#DejaVuSans-38" x="95.410156"/>
       <use xlink:href="#DejaVuSans-30" x="159.033203"/>
      </g>
     </g>
    </g>
    <g id="ytick_8">
     <g id="line2d_27">
      <path d="M 50.14375 59.969598 
L 329.14375 59.969598 
" clip-path="url(#p0e31cd0215)" style="fill: none; stroke-dasharray: 2.96,1.28; stroke-dashoffset: 0; stroke: #b0b0b0; stroke-opacity: 0.4; stroke-width: 0.8"/>
     </g>
     <g id="line2d_28">
      <g>
       <use xlink:href="#m8488e028be" x="50.14375" y="59.969598" style="stroke: #000000; stroke-width: 0.8"/>
      </g>
     </g>
     <g id="text_15">
      <!-- 0.85 -->
      <g transform="translate(20.878125 63.768817) scale(0.1 -0.1)">
       <use xlink:href="#DejaVuSans-30"/>
       <use xlink:href="#DejaVuSans-2e" x="63.623047"/>
       <use xlink:href="#DejaVuSans-38" x="95.410156"/>
       <use xlink:href="#DejaVuSans-35" x="159.033203"/>
      </g>
     </g>
    </g>
    <g id="text_16">
     <!-- Accuracy -->
     <g transform="translate(14.798438 161.356125) rotate(-90) scale(0.1 -0.1)">
      <defs>
       <path id="DejaVuSans-41" d="M 2188 4044 
L 1331 1722 
L 3047 1722 
L 2188 4044 
z
M 1831 4666 
L 2547 4666 
L 4325 0 
L 3669 0 
L 3244 1197 
L 1141 1197 
L 716 0 
L 50 0 
L 1831 4666 
z
" transform="scale(0.015625)"/>
       <path id="DejaVuSans-75" d="M 544 1381 
L 544 3500 
L 1119 3500 
L 1119 1403 
Q 1119 906 1312 657 
Q 1506 409 1894 409 
Q 2359 409 2629 706 
Q 2900 1003 2900 1516 
L 2900 3500 
L 3475 3500 
L 3475 0 
L 2900 0 
L 2900 538 
Q 2691 219 2414 64 
Q 2138 -91 1772 -91 
Q 1169 -91 856 284 
Q 544 659 544 1381 
z
M 1991 3584 
L 1991 3584 
z
" transform="scale(0.015625)"/>
       <path id="DejaVuSans-72" d="M 2631 2963 
Q 2534 3019 2420 3045 
Q 2306 3072 2169 3072 
Q 1681 3072 1420 2755 
Q 1159 2438 1159 1844 
L 1159 0 
L 581 0 
L 581 3500 
L 1159 3500 
L 1159 2956 
Q 1341 3275 1631 3429 
Q 1922 3584 2338 3584 
Q 2397 3584 2469 3576 
Q 2541 3569 2628 3553 
L 2631 2963 
z
" transform="scale(0.015625)"/>
       <path id="DejaVuSans-61" d="M 2194 1759 
Q 1497 1759 1228 1600 
Q 959 1441 959 1056 
Q 959 750 1161 570 
Q 1363 391 1709 391 
Q 2188 391 2477 730 
Q 2766 1069 2766 1631 
L 2766 1759 
L 2194 1759 
z
M 3341 1997 
L 3341 0 
L 2766 0 
L 2766 531 
Q 2569 213 2275 61 
Q 1981 -91 1556 -91 
Q 1019 -91 701 211 
Q 384 513 384 1019 
Q 384 1609 779 1909 
Q 1175 2209 1959 2209 
L 2766 2209 
L 2766 2266 
Q 2766 2663 2505 2880 
Q 2244 3097 1772 3097 
Q 1472 3097 1187 3025 
Q 903 2953 641 2809 
L 641 3341 
Q 956 3463 1253 3523 
Q 1550 3584 1831 3584 
Q 2591 3584 2966 3190 
Q 3341 2797 3341 1997 
z
" transform="scale(0.015625)"/>
       <path id="DejaVuSans-79" d="M 2059 -325 
Q 1816 -950 1584 -1140 
Q 1353 -1331 966 -1331 
L 506 -1331 
L 506 -850 
L 844 -850 
Q 1081 -850 1212 -737 
Q 1344 -625 1503 -206 
L 1606 56 
L 191 3500 
L 800 3500 
L 1894 763 
L 2988 3500 
L 3597 3500 
L 2059 -325 
z
" transform="scale(0.015625)"/>
      </defs>
      <use xlink:href="#DejaVuSans-41"/>
      <use xlink:href="#DejaVuSans-63" x="66.658203"/>
      <use xlink:href="#DejaVuSans-63" x="121.638672"/>
      <use xlink:href="#DejaVuSans-75" x="176.619141"/>
      <use xlink:href="#DejaVuSans-72" x="239.998047"/>
      <use xlink:href="#DejaVuSans-61" x="281.111328"/>
      <use xlink:href="#DejaVuSans-63" x="342.390625"/>
      <use xlink:href="#DejaVuSans-79" x="397.371094"/>
     </g>
    </g>
   </g>
   <g id="line2d_29">
    <path d="M 62.825568 228.47148 
L 63.079458 224.718043 
L 63.333349 213.457705 
L 64.34891 128.657633 
L 64.6028 121.428776 
L 64.85669 120.733709 
L 65.364471 108.639267 
L 65.618361 110.168437 
L 65.872251 101.827461 
L 66.126141 104.468779 
L 66.380032 95.571714 
L 66.633922 106.693045 
L 66.887812 99.32518 
L 67.141702 99.603195 
L 67.395593 95.154662 
L 67.903373 92.930396 
L 68.157264 93.7645 
L 68.665044 90.845167 
L 68.918934 90.984174 
L 69.172825 95.293699 
L 69.426715 89.037952 
L 69.680605 88.064841 
L 69.934495 90.428115 
L 70.188386 85.701538 
L 70.442276 90.984174 
L 70.696166 87.925805 
L 70.950056 88.620901 
L 71.203947 88.203849 
L 71.457837 86.674679 
L 71.711727 82.921213 
L 71.965617 81.392043 
L 72.219508 84.867464 
L 72.473398 85.979583 
L 72.727288 85.562531 
L 72.981178 86.257627 
L 73.235069 82.365154 
L 73.488959 81.392043 
L 73.742849 86.257627 
L 73.996739 81.670058 
L 74.25063 82.365154 
L 74.50452 80.00188 
L 74.75841 83.06025 
L 75.0123 80.418932 
L 75.266191 81.253035 
L 75.520081 76.94351 
L 75.773971 79.862843 
L 76.027861 80.279895 
L 76.281752 79.167777 
L 76.535642 79.167777 
L 76.789532 79.862843 
L 77.043422 77.082518 
L 77.297313 81.670058 
L 77.551203 77.916621 
L 77.805093 76.665466 
L 78.058983 78.055629 
L 78.312874 74.163185 
L 78.566764 80.974991 
L 79.074544 76.248414 
L 79.328435 74.997288 
L 79.582325 77.082518 
L 79.836215 77.777614 
L 80.090105 77.49957 
L 80.343996 80.835984 
L 80.597886 76.94351 
L 80.851776 78.611717 
L 81.105666 77.49957 
L 81.359557 77.916621 
L 81.613447 79.167777 
L 81.867337 75.136296 
L 82.121227 76.94351 
L 82.375118 77.777614 
L 82.882898 75.553348 
L 83.136788 75.41434 
L 83.390679 76.804503 
L 83.644569 73.607126 
L 83.898459 74.580237 
L 84.15235 78.889732 
L 84.40624 74.719244 
L 84.66013 76.804503 
L 84.91402 71.938919 
L 85.167911 74.719244 
L 85.421801 72.355971 
L 85.675691 73.190074 
L 85.929581 71.521867 
L 86.183472 73.329081 
L 86.437362 73.468089 
L 86.691252 71.799911 
L 86.945142 74.024178 
L 87.199033 72.077926 
L 87.452923 73.746133 
L 87.960703 74.719244 
L 88.214594 78.055629 
L 88.722374 68.185482 
L 88.976264 68.880549 
L 89.230155 71.243823 
L 89.484045 71.521867 
L 89.737935 68.602534 
L 89.991825 71.243823 
L 90.245716 71.243823 
L 90.499606 70.965808 
L 90.753496 71.104815 
L 91.007386 71.660875 
L 91.261277 68.741542 
L 91.515167 70.965808 
L 91.769057 70.687764 
L 92.022947 71.799911 
L 92.276838 71.38286 
L 92.530728 67.907438 
L 92.784618 69.019586 
L 93.038508 67.073335 
L 93.546289 73.051037 
L 93.800179 71.38286 
L 94.054069 70.548756 
L 94.30796 68.463497 
L 94.56185 68.046446 
L 94.81574 68.880549 
L 95.06963 70.409749 
L 95.323521 69.019586 
L 95.577411 70.965808 
L 95.831301 75.553348 
L 96.085191 70.687764 
L 96.339082 69.992697 
L 96.592972 72.355971 
L 96.846862 66.100224 
L 97.100752 66.656283 
L 97.354643 67.907438 
L 97.608533 65.683172 
L 97.862423 67.629394 
L 98.116313 66.378268 
L 98.370204 69.85366 
L 98.624094 67.768431 
L 98.877984 69.297601 
L 99.131874 64.432017 
L 99.385765 64.014965 
L 99.639655 70.131704 
L 99.893545 65.544165 
L 100.147436 65.127113 
L 100.401326 64.014965 
L 100.655216 68.046446 
L 100.909106 66.517275 
L 101.416887 59.427425 
L 101.670777 63.180891 
L 101.924667 62.068743 
L 102.178558 63.180891 
L 102.432448 65.822179 
L 102.686338 63.319898 
L 102.940228 64.293009 
L 103.194119 63.458906 
L 103.448009 63.597943 
L 103.701899 64.571054 
L 103.955789 58.871366 
L 104.20968 62.068743 
L 104.46357 62.763839 
L 104.71746 66.100224 
L 104.97135 62.763839 
L 105.225241 63.319898 
L 105.479131 61.095632 
L 105.733021 60.67858 
L 105.986911 64.988105 
L 106.240802 60.122521 
L 106.494692 60.539573 
L 106.748582 57.620211 
L 107.002472 60.122521 
L 107.256363 65.405157 
L 107.510253 58.315307 
L 107.764143 64.571054 
L 108.018033 63.597943 
L 108.271924 61.373676 
L 108.525814 64.571054 
L 108.779704 63.041854 
L 109.033594 62.763839 
L 109.287485 60.539573 
L 109.541375 66.239231 
L 109.795265 57.759248 
L 110.049155 67.073335 
L 110.303046 64.154002 
L 110.556936 64.154002 
L 110.810826 65.822179 
L 111.064716 62.485795 
L 111.318607 61.512684 
L 111.572497 59.288418 
L 112.080277 61.651691 
L 112.334168 65.544165 
L 112.588058 60.122521 
L 112.841948 59.288418 
L 113.349729 55.534981 
L 113.603619 61.929736 
L 113.857509 57.342196 
L 114.111399 59.705469 
L 114.36529 58.593322 
L 114.61918 56.369085 
L 114.87307 57.898255 
L 115.12696 56.369085 
L 115.380851 60.261529 
L 115.634741 58.315307 
L 115.888631 62.068743 
L 116.142521 54.839885 
L 116.396412 55.395944 
L 116.650302 59.288418 
L 116.904192 59.844477 
L 117.158083 56.230048 
L 117.411973 55.395944 
L 117.919753 63.180891 
L 118.173644 58.593322 
L 118.427534 59.010373 
L 118.681424 58.037262 
L 118.935314 62.207751 
L 119.443095 57.759248 
L 119.696985 57.203159 
L 119.950875 59.010373 
L 120.204766 57.064151 
L 120.458656 61.23464 
L 120.712546 58.871366 
L 120.966436 59.14941 
L 121.220327 60.67858 
L 121.474217 54.700878 
L 121.728107 59.705469 
L 121.981997 56.369085 
L 122.235888 61.373676 
L 122.489778 57.898255 
L 122.743668 60.400536 
L 122.997558 58.315307 
L 123.251449 57.342196 
L 123.759229 60.956625 
L 124.26701 56.6471 
L 124.5209 56.091041 
L 124.77479 61.512684 
L 125.02868 58.037262 
L 126.044241 53.866774 
L 126.298132 57.203159 
L 126.552022 59.010373 
L 126.805912 56.6471 
L 127.059802 61.790728 
L 127.313693 56.508092 
L 127.567583 55.812996 
L 127.821473 52.198567 
L 128.329254 57.481203 
L 128.583144 54.005782 
L 128.837034 55.534981 
L 129.090924 55.395944 
L 129.344815 57.898255 
L 129.598705 54.422834 
L 129.852595 58.871366 
L 130.106485 56.091041 
L 130.360376 57.481203 
L 130.614266 53.171678 
L 130.868156 58.315307 
L 131.122046 58.454314 
L 131.375937 55.673989 
L 131.629827 55.673989 
L 131.883717 58.176299 
L 132.137607 57.759248 
L 132.391498 55.395944 
L 132.645388 58.315307 
L 132.899278 53.866774 
L 133.153169 54.700878 
L 133.407059 58.315307 
L 133.660949 59.844477 
L 133.914839 50.669397 
L 134.42262 61.23464 
L 134.67651 55.952033 
L 134.9304 59.010373 
L 135.184291 55.534981 
L 135.692071 58.037262 
L 135.945961 57.064151 
L 136.199852 58.315307 
L 136.453742 54.005782 
L 136.707632 58.732358 
L 136.961522 54.144819 
L 137.215413 52.754656 
L 137.469303 53.866774 
L 137.723193 57.342196 
L 137.977083 55.11793 
L 138.230974 54.144819 
L 138.484864 56.786107 
L 138.738754 54.283826 
L 138.992644 54.283826 
L 139.246535 53.449723 
L 139.500425 56.6471 
L 139.754315 54.283826 
L 140.008205 57.342196 
L 140.262096 53.58873 
L 140.515986 59.427425 
L 140.769876 52.476612 
L 141.023766 54.422834 
L 141.277657 54.283826 
L 141.531547 54.005782 
L 141.785437 57.620211 
L 142.039327 53.866774 
L 142.293218 56.6471 
L 142.547108 53.310715 
L 143.054888 58.037262 
L 143.308779 56.786107 
L 143.562669 56.786107 
L 144.070449 52.893663 
L 144.32434 54.700878 
L 144.57823 52.476612 
L 144.83212 55.952033 
L 145.08601 55.11793 
L 145.339901 57.064151 
L 145.593791 52.754656 
L 146.101571 59.427425 
L 146.355462 52.337604 
L 146.609352 53.310715 
L 146.863242 51.503501 
L 147.117132 54.144819 
L 147.371023 54.56187 
L 147.624913 55.256937 
L 147.878803 57.203159 
L 148.132693 55.673989 
L 148.386584 58.037262 
L 148.894364 56.091041 
L 149.148255 59.010373 
L 149.656035 55.673989 
L 149.909925 58.176299 
L 150.163816 52.476612 
L 150.417706 61.373676 
L 150.671596 52.476612 
L 150.925486 54.839885 
L 151.179377 47.193976 
L 151.687157 57.342196 
L 151.941047 53.58873 
L 152.194938 54.283826 
L 152.448828 51.086449 
L 152.702718 56.369085 
L 152.956608 59.14941 
L 153.210499 56.925144 
L 153.464389 58.454314 
L 153.718279 54.978893 
L 153.972169 56.091041 
L 154.22606 56.6471 
L 154.47995 53.449723 
L 154.73384 53.032671 
L 154.98773 56.786107 
L 155.241621 54.700878 
L 155.495511 56.091041 
L 155.749401 52.05956 
L 156.003291 51.642508 
L 156.257182 56.6471 
L 156.511072 53.727767 
L 156.764962 55.256937 
L 157.018852 58.176299 
L 157.272743 53.866774 
L 157.526633 56.508092 
L 157.780523 55.395944 
L 158.034413 55.11793 
L 158.288304 58.176299 
L 158.542194 54.422834 
L 158.796084 54.56187 
L 159.049974 58.176299 
L 159.303865 53.032671 
L 159.557755 56.925144 
L 159.811645 58.315307 
L 160.065535 57.203159 
L 160.319426 51.503501 
L 160.573316 57.342196 
L 160.827206 54.005782 
L 161.081096 54.978893 
L 161.334987 56.508092 
L 161.588877 51.781516 
L 161.842767 56.925144 
L 162.096657 51.364464 
L 162.350548 51.086449 
L 162.604438 50.53039 
L 162.858328 56.786107 
L 163.112218 52.476612 
L 163.366109 59.844477 
L 163.619999 51.781516 
L 163.873889 48.167087 
L 164.127779 53.866774 
L 164.38167 53.171678 
L 164.63556 56.091041 
L 164.88945 55.256937 
L 165.14334 56.230048 
L 165.397231 60.122521 
L 165.651121 51.364464 
L 166.158902 53.449723 
L 166.412792 52.05956 
L 166.666682 53.449723 
L 166.920572 55.812996 
L 167.174463 49.279234 
L 167.428353 52.754656 
L 167.682243 50.808405 
L 168.190024 52.615619 
L 168.443914 49.835294 
L 168.697804 53.449723 
L 168.951694 52.893663 
L 169.205585 55.395944 
L 169.459475 55.952033 
L 169.713365 54.422834 
L 169.967255 58.037262 
L 170.221146 58.871366 
L 170.475036 55.952033 
L 170.728926 58.176299 
L 171.236707 51.920552 
L 171.744487 58.593322 
L 172.252268 52.198567 
L 172.506158 54.005782 
L 172.760048 51.642508 
L 173.267829 57.898255 
L 173.521719 52.754656 
L 173.775609 54.005782 
L 174.029499 56.091041 
L 174.28339 50.391353 
L 174.79117 54.283826 
L 175.04506 54.005782 
L 175.298951 55.11793 
L 175.552841 54.422834 
L 175.806731 54.839885 
L 176.060621 57.759248 
L 176.568402 50.252345 
L 176.822292 52.337604 
L 177.076182 51.086449 
L 177.330073 49.140227 
L 178.091743 56.925144 
L 178.345634 51.086449 
L 178.853414 56.369085 
L 179.107304 54.56187 
L 179.361195 50.252345 
L 179.615085 52.893663 
L 179.868975 49.279234 
L 180.122865 55.812996 
L 180.376756 52.198567 
L 180.630646 53.032671 
L 180.884536 54.839885 
L 181.138426 54.700878 
L 181.392317 56.091041 
L 181.646207 54.005782 
L 181.900097 53.58873 
L 182.153988 50.391353 
L 182.407878 56.508092 
L 182.661768 50.808405 
L 183.169549 55.812996 
L 183.423439 50.391353 
L 183.677329 54.144819 
L 183.931219 51.920552 
L 184.18511 51.364464 
L 184.439 50.252345 
L 184.69289 53.866774 
L 184.94678 55.395944 
L 185.200671 49.696286 
L 185.454561 50.113338 
L 185.708451 49.974301 
L 185.962341 53.310715 
L 186.216232 53.171678 
L 186.724012 54.56187 
L 187.231793 53.032671 
L 187.485683 52.615619 
L 187.739573 53.58873 
L 187.993463 51.642508 
L 188.247354 56.230048 
L 188.755134 56.230048 
L 189.009024 52.476612 
L 189.516805 52.754656 
L 189.770695 53.449723 
L 190.024585 51.503501 
L 190.278476 54.422834 
L 190.532366 51.364464 
L 190.786256 53.58873 
L 191.040146 53.032671 
L 191.294037 51.781516 
L 191.547927 54.422834 
L 191.801817 53.727767 
L 192.055707 50.53039 
L 192.309598 55.256937 
L 192.563488 52.893663 
L 192.817378 56.369085 
L 193.325159 52.476612 
L 193.579049 57.342196 
L 193.832939 49.140227 
L 194.086829 49.140227 
L 194.34072 52.476612 
L 194.59461 49.696286 
L 194.8485 49.00119 
L 195.10239 51.781516 
L 195.356281 51.781516 
L 195.610171 53.58873 
L 195.864061 53.171678 
L 196.117951 57.064151 
L 196.625732 50.669397 
L 196.879622 52.615619 
L 197.133512 50.947441 
L 197.641293 55.952033 
L 197.895183 54.56187 
L 198.149074 54.005782 
L 198.402964 51.364464 
L 198.656854 50.113338 
L 198.910744 50.391353 
L 199.164635 57.898255 
L 199.418525 52.893663 
L 199.672415 55.812996 
L 199.926305 50.808405 
L 200.180196 54.56187 
L 200.434086 55.673989 
L 200.687976 52.893663 
L 200.941866 47.750035 
L 201.195757 48.862183 
L 201.703537 52.05956 
L 202.211318 49.140227 
L 202.465208 52.198567 
L 202.719098 48.723175 
L 202.972988 56.925144 
L 203.226879 50.252345 
L 203.480769 53.310715 
L 203.734659 52.615619 
L 203.988549 54.56187 
L 204.24244 49.418242 
L 204.49633 49.974301 
L 204.75022 49.418242 
L 205.00411 51.225456 
L 205.258001 54.422834 
L 205.511891 53.171678 
L 205.765781 56.230048 
L 206.273562 52.337604 
L 206.527452 53.866774 
L 206.781342 53.727767 
L 207.035232 52.05956 
L 207.289123 51.642508 
L 207.543013 52.198567 
L 207.796903 47.054968 
L 208.558574 57.064151 
L 208.812464 54.56187 
L 209.066354 54.283826 
L 209.320245 51.364464 
L 209.574135 51.364464 
L 209.828025 55.952033 
L 210.335806 49.557249 
L 210.589696 50.808405 
L 210.843586 54.978893 
L 211.097476 54.422834 
L 211.351367 49.974301 
L 211.605257 50.808405 
L 211.859147 58.037262 
L 212.366928 52.754656 
L 212.620818 52.337604 
L 212.874708 54.005782 
L 213.128598 50.947441 
L 213.636379 54.978893 
L 213.890269 52.615619 
L 214.14416 56.230048 
L 214.39805 54.144819 
L 214.65194 55.256937 
L 214.90583 50.808405 
L 215.413611 47.611027 
L 215.667501 51.642508 
L 215.921391 51.781516 
L 216.175282 50.391353 
L 216.429172 56.091041 
L 216.936952 51.225456 
L 217.190843 51.503501 
L 217.444733 53.727767 
L 217.698623 52.198567 
L 218.206404 56.369085 
L 218.460294 50.947441 
L 218.714184 54.005782 
L 218.968074 54.005782 
L 219.221965 51.781516 
L 219.475855 52.337604 
L 219.729745 52.476612 
L 219.983635 49.835294 
L 220.237526 52.198567 
L 220.491416 57.064151 
L 220.745306 58.037262 
L 220.999196 52.198567 
L 221.253087 55.395944 
L 221.506977 52.615619 
L 221.760867 52.754656 
L 222.014757 51.364464 
L 222.268648 57.203159 
L 222.522538 54.978893 
L 222.776428 54.978893 
L 223.030318 48.445131 
L 223.284209 53.727767 
L 223.791989 55.395944 
L 224.045879 51.225456 
L 224.55366 54.978893 
L 224.80755 55.673989 
L 225.06144 53.310715 
L 225.315331 52.198567 
L 225.569221 53.171678 
L 225.823111 51.086449 
L 226.077001 58.176299 
L 226.330892 51.225456 
L 226.584782 57.759248 
L 226.838672 51.781516 
L 227.092562 53.58873 
L 227.346453 50.947441 
L 227.600343 53.58873 
L 227.854233 47.750035 
L 228.108123 50.391353 
L 228.362014 54.56187 
L 228.615904 52.337604 
L 228.869794 52.198567 
L 229.123684 56.6471 
L 229.377575 55.256937 
L 229.885355 50.53039 
L 230.139245 49.835294 
L 230.393136 54.144819 
L 230.647026 49.418242 
L 230.900916 56.6471 
L 231.154807 54.144819 
L 231.408697 54.839885 
L 231.662587 50.252345 
L 232.170368 51.503501 
L 232.424258 53.866774 
L 232.678148 51.642508 
L 232.932038 51.086449 
L 233.185929 52.754656 
L 233.693709 50.808405 
L 233.947599 52.754656 
L 234.20149 48.306124 
L 234.70927 49.974301 
L 234.96316 54.422834 
L 235.217051 55.395944 
L 235.470941 52.198567 
L 235.724831 53.449723 
L 235.978721 55.534981 
L 236.232612 52.05956 
L 236.486502 51.364464 
L 236.740392 54.978893 
L 236.994282 54.283826 
L 237.248173 48.584138 
L 237.502063 55.534981 
L 237.755953 54.56187 
L 238.009843 57.203159 
L 238.517624 51.642508 
L 238.771514 54.005782 
L 239.025404 52.754656 
L 239.279295 55.256937 
L 239.533185 49.418242 
L 239.787075 53.866774 
L 240.040965 50.808405 
L 240.294856 50.113338 
L 240.548746 54.422834 
L 240.802636 49.974301 
L 241.056526 51.086449 
L 241.564307 54.283826 
L 242.072087 50.669397 
L 242.325978 52.476612 
L 242.579868 52.05956 
L 242.833758 53.866774 
L 243.087648 52.754656 
L 243.341539 53.171678 
L 243.595429 52.198567 
L 243.849319 50.53039 
L 244.103209 53.727767 
L 244.3571 51.781516 
L 244.61099 51.781516 
L 244.86488 51.364464 
L 245.11877 54.56187 
L 245.372661 53.58873 
L 245.626551 51.225456 
L 245.880441 50.669397 
L 246.134331 49.140227 
L 246.642112 49.835294 
L 246.896002 51.781516 
L 247.149893 49.418242 
L 247.657673 54.005782 
L 247.911563 53.449723 
L 248.165454 53.58873 
L 248.419344 51.086449 
L 248.673234 50.53039 
L 249.181015 54.422834 
L 249.434905 50.252345 
L 249.688795 54.422834 
L 249.942685 52.198567 
L 250.196576 54.005782 
L 250.450466 54.839885 
L 250.704356 51.503501 
L 250.958246 52.476612 
L 251.212137 52.754656 
L 251.466027 52.615619 
L 251.719917 56.786107 
L 251.973807 55.673989 
L 252.227698 53.727767 
L 252.481588 52.893663 
L 252.735478 52.476612 
L 252.989368 54.56187 
L 253.243259 51.225456 
L 253.497149 51.781516 
L 253.751039 54.422834 
L 254.004929 52.05956 
L 254.25882 56.230048 
L 254.51271 49.557249 
L 254.7666 52.476612 
L 255.02049 49.557249 
L 255.274381 54.700878 
L 255.528271 51.642508 
L 255.782161 53.032671 
L 256.036051 51.920552 
L 256.543832 50.669397 
L 256.797722 54.422834 
L 257.051612 53.310715 
L 257.305503 54.144819 
L 257.559393 54.422834 
L 257.813283 50.947441 
L 258.321064 56.508092 
L 258.574954 55.11793 
L 258.828844 54.422834 
L 259.082734 55.812996 
L 260.098295 48.862183 
L 260.352186 51.225456 
L 260.606076 52.476612 
L 260.859966 49.974301 
L 261.113856 53.449723 
L 261.367747 49.279234 
L 261.875527 53.171678 
L 262.383308 50.113338 
L 262.637198 51.503501 
L 262.891088 55.395944 
L 263.144979 50.808405 
L 263.398869 50.252345 
L 263.652759 54.56187 
L 263.906649 50.391353 
L 264.16054 52.893663 
L 264.41443 52.615619 
L 264.92221 47.611027 
L 265.429991 55.673989 
L 265.683881 53.171678 
L 265.937771 56.925144 
L 266.445552 48.306124 
L 266.699442 54.144819 
L 266.953332 51.920552 
L 267.207223 54.144819 
L 267.461113 50.113338 
L 267.715003 52.337604 
L 267.968893 52.476612 
L 268.222784 55.11793 
L 268.476674 51.225456 
L 268.730564 49.279234 
L 268.984454 55.812996 
L 269.238345 50.391353 
L 269.492235 49.557249 
L 269.746125 50.808405 
L 270.000015 52.754656 
L 270.253906 51.503501 
L 270.507796 47.611027 
L 270.761686 55.952033 
L 271.015576 53.032671 
L 271.269467 55.11793 
L 271.777247 48.028079 
L 272.031137 53.58873 
L 272.285028 52.754656 
L 272.538918 56.369085 
L 272.792808 54.144819 
L 273.046698 50.113338 
L 273.300589 58.732358 
L 273.554479 51.225456 
L 273.808369 55.952033 
L 274.062259 53.310715 
L 274.31615 52.893663 
L 274.57004 51.781516 
L 274.82393 51.503501 
L 275.07782 49.00119 
L 275.331711 54.839885 
L 275.585601 54.422834 
L 275.839491 52.337604 
L 276.093381 48.862183 
L 276.347272 54.422834 
L 276.601162 50.947441 
L 276.855052 50.947441 
L 277.108942 51.086449 
L 277.362833 55.952033 
L 277.616723 50.669397 
L 277.870613 51.642508 
L 278.124503 50.53039 
L 278.378394 49.974301 
L 278.632284 51.364464 
L 278.886174 51.781516 
L 279.140064 53.866774 
L 279.393955 51.920552 
L 279.647845 56.508092 
L 279.901735 55.11793 
L 280.155626 52.337604 
L 280.663406 54.005782 
L 280.917296 52.476612 
L 281.171187 53.171678 
L 281.425077 56.230048 
L 281.678967 56.091041 
L 282.186748 50.252345 
L 282.440638 53.171678 
L 282.694528 50.252345 
L 282.948418 52.754656 
L 283.202309 53.866774 
L 283.456199 51.225456 
L 283.710089 54.144819 
L 283.963979 52.754656 
L 284.21787 53.032671 
L 284.47176 50.808405 
L 284.72565 51.642508 
L 284.97954 49.140227 
L 285.233431 53.727767 
L 285.487321 54.005782 
L 285.741211 54.700878 
L 285.995101 56.369085 
L 286.248992 52.198567 
L 286.502882 51.503501 
L 286.756772 54.978893 
L 287.010662 55.952033 
L 287.518443 51.225456 
L 287.772333 53.032671 
L 288.280114 50.113338 
L 288.787894 54.56187 
L 289.041784 47.054968 
L 289.295675 51.642508 
L 289.549565 51.086449 
L 289.803455 53.58873 
L 290.057345 57.203159 
L 290.311236 58.871366 
L 290.565126 50.53039 
L 290.819016 51.642508 
L 291.072906 53.866774 
L 291.326797 54.56187 
L 291.580687 51.920552 
L 291.834577 50.53039 
L 292.088467 53.171678 
L 292.342358 51.225456 
L 292.596248 50.53039 
L 292.850138 53.727767 
L 293.104028 54.700878 
L 293.357919 49.140227 
L 293.611809 51.920552 
L 293.865699 51.225456 
L 294.119589 48.167087 
L 294.37348 54.839885 
L 294.62737 47.750035 
L 294.88126 53.171678 
L 295.13515 52.476612 
L 295.389041 54.422834 
L 295.642931 51.642508 
L 295.896821 52.754656 
L 296.150712 54.56187 
L 296.404602 54.144819 
L 296.658492 52.615619 
L 296.912382 53.449723 
L 297.166273 51.781516 
L 297.420163 52.615619 
L 297.674053 52.615619 
L 297.927943 49.418242 
L 298.181834 50.53039 
L 298.689614 56.6471 
L 299.197395 50.808405 
L 299.451285 50.808405 
L 299.705175 52.754656 
L 299.959065 52.754656 
L 300.212956 49.974301 
L 300.466846 49.557249 
L 300.720736 48.723175 
L 300.974626 55.395944 
L 301.228517 53.866774 
L 301.736297 49.279234 
L 301.990187 47.611027 
L 302.244078 52.476612 
L 302.751858 47.611027 
L 303.005748 52.05956 
L 303.259639 51.225456 
L 303.513529 55.11793 
L 303.767419 50.947441 
L 304.2752 53.449723 
L 304.52909 53.866774 
L 304.78298 51.920552 
L 305.03687 54.700878 
L 305.290761 55.534981 
L 305.544651 49.696286 
L 306.052431 52.05956 
L 306.306322 51.503501 
L 306.560212 54.283826 
L 306.814102 46.498909 
L 307.067992 52.05956 
L 307.575773 48.723175 
L 307.829663 52.337604 
L 308.083553 50.113338 
L 308.337444 55.11793 
L 308.845224 50.391353 
L 309.099114 49.835294 
L 309.353005 52.615619 
L 309.606895 49.279234 
L 309.860785 54.422834 
L 310.114675 53.310715 
L 310.368566 52.754656 
L 310.622456 53.032671 
L 310.876346 48.584138 
L 311.130236 54.56187 
L 311.384127 50.947441 
L 311.638017 49.974301 
L 311.891907 51.642508 
L 312.145798 50.391353 
L 312.399688 47.611027 
L 312.653578 53.171678 
L 312.907468 47.889072 
L 313.415249 56.925144 
L 313.669139 50.808405 
L 313.923029 50.947441 
L 314.17692 54.839885 
L 314.6847 50.947441 
L 314.93859 51.364464 
L 315.192481 53.58873 
L 315.446371 51.086449 
L 315.700261 56.091041 
L 315.954151 52.476612 
L 316.208042 54.422834 
L 316.461932 51.781516 
L 316.461932 51.781516 
" clip-path="url(#p0e31cd0215)" style="fill: none; stroke: #0000ff; stroke-width: 0.6; stroke-linecap: square"/>
   </g>
   <g id="line2d_30">
    <path d="M 62.825568 230.557091 
L 63.079458 229.584156 
L 63.333349 208.179653 
L 63.587239 150.776625 
L 63.841129 130.669348 
L 64.095019 174.45132 
L 64.34891 137.155569 
L 64.6028 220.503452 
L 64.85669 114.45381 
L 65.11058 118.994162 
L 65.364471 105.697427 
L 65.618361 109.589166 
L 65.872251 173.154064 
L 66.126141 99.859819 
L 66.380032 98.238271 
L 66.633922 117.372614 
L 66.887812 100.832754 
L 67.141702 98.886885 
L 67.649483 107.643297 
L 68.157264 96.292402 
L 68.411154 102.778623 
L 68.665044 117.372614 
L 68.918934 110.886393 
L 69.172825 109.264845 
L 69.426715 118.021227 
L 69.680605 132.939539 
L 69.934495 98.238271 
L 70.188386 96.292402 
L 70.442276 96.941045 
L 70.696166 105.373106 
L 70.950056 132.939539 
L 71.203947 97.265337 
L 71.457837 96.941045 
L 71.711727 119.642804 
L 71.965617 94.346533 
L 72.219508 104.400171 
L 72.473398 90.130502 
L 72.727288 93.697919 
L 72.981178 92.076371 
L 73.488959 149.803691 
L 73.742849 147.209208 
L 73.996739 108.29191 
L 74.25063 122.561579 
L 74.50452 153.371108 
L 74.75841 115.102452 
L 75.0123 140.722987 
L 75.266191 89.157567 
L 75.520081 86.563085 
L 75.773971 101.481397 
L 76.027861 83.968602 
L 76.281752 92.724985 
L 76.535642 166.667872 
L 76.789532 93.697919 
L 77.043422 91.427758 
L 77.297313 105.697427 
L 77.551203 99.859819 
L 77.805093 104.724493 
L 78.058983 93.697919 
L 78.312874 98.562593 
L 78.566764 87.860341 
L 78.820654 219.530518 
L 79.074544 108.29191 
L 79.328435 205.58517 
L 79.582325 87.53602 
L 79.836215 123.534514 
L 80.090105 94.346533 
L 80.343996 100.184141 
L 80.597886 96.292402 
L 80.851776 99.535527 
L 81.105666 93.373627 
L 81.359557 107.318975 
L 81.613447 90.779115 
L 81.867337 97.913979 
L 82.121227 92.400693 
L 82.375118 93.373627 
L 82.629008 88.833276 
L 82.882898 89.806181 
L 83.136788 127.101931 
L 83.644569 96.941045 
L 83.898459 155.965591 
L 84.15235 95.319467 
L 84.40624 92.400693 
L 84.66013 111.535006 
L 84.91402 97.265337 
L 85.167911 98.562593 
L 85.421801 144.939047 
L 85.675691 111.535006 
L 85.929581 138.128504 
L 86.183472 97.913979 
L 86.437362 109.264845 
L 86.691252 110.237779 
L 86.945142 93.373627 
L 87.199033 84.292924 
L 87.452923 87.211698 
L 87.706813 104.075879 
L 87.960703 94.670854 
L 88.214594 98.562593 
L 88.468484 85.59015 
L 88.722374 89.481889 
L 88.976264 88.508954 
L 89.230155 180.61322 
L 89.484045 92.724985 
L 89.737935 96.292402 
L 89.991825 133.588152 
L 90.245716 90.779115 
L 90.499606 83.968602 
L 90.753496 100.832754 
L 91.261277 83.644281 
L 91.515167 91.75205 
L 91.769057 93.049306 
L 92.022947 110.237779 
L 92.276838 103.102945 
L 92.530728 102.778623 
L 92.784618 97.913979 
L 93.038508 86.238764 
L 93.292399 91.427758 
L 93.546289 99.535527 
L 93.800179 137.479891 
L 94.054069 91.427758 
L 94.30796 120.940031 
L 94.56185 90.779115 
L 94.81574 96.616723 
L 95.06963 84.292924 
L 95.323521 89.481889 
L 95.577411 116.399679 
L 95.831301 93.049306 
L 96.085191 115.426744 
L 96.339082 94.995175 
L 96.592972 89.157567 
L 96.846862 107.643297 
L 97.100752 89.806181 
L 97.354643 86.563085 
L 97.608533 91.427758 
L 97.862423 103.102945 
L 98.116313 90.454823 
L 98.370204 99.859819 
L 98.624094 145.911981 
L 98.877984 93.373627 
L 99.131874 95.319467 
L 99.385765 130.345056 
L 99.639655 96.292402 
L 99.893545 93.373627 
L 100.147436 106.346041 
L 100.655216 89.481889 
L 101.162997 122.561579 
L 101.416887 146.884887 
L 101.670777 119.642804 
L 102.178558 96.292402 
L 102.432448 103.751558 
L 102.686338 87.211698 
L 102.940228 97.913979 
L 103.194119 94.995175 
L 103.448009 137.479891 
L 103.701899 93.049306 
L 103.955789 90.454823 
L 104.20968 102.778623 
L 104.71746 95.643789 
L 104.97135 153.695429 
L 105.225241 143.317469 
L 105.733021 101.157075 
L 105.986911 97.265337 
L 106.240802 105.048814 
L 106.494692 96.616723 
L 106.748582 95.319467 
L 107.002472 116.075358 
L 107.256363 119.642804 
L 107.510253 103.427237 
L 107.764143 117.696935 
L 108.018033 123.534514 
L 108.271924 89.157567 
L 108.525814 87.211698 
L 108.779704 142.020243 
L 109.287485 90.454823 
L 109.541375 89.806181 
L 109.795265 93.373627 
L 110.049155 130.669348 
L 110.303046 101.481397 
L 110.556936 94.346533 
L 110.810826 92.076371 
L 111.064716 95.319467 
L 111.318607 91.427758 
L 111.572497 99.211206 
L 111.826387 95.319467 
L 112.080277 146.560595 
L 112.334168 93.049306 
L 112.588058 88.508954 
L 112.841948 89.157567 
L 113.095838 124.507448 
L 113.349729 91.103437 
L 113.603619 95.643789 
L 113.857509 90.779115 
L 114.111399 90.779115 
L 114.36529 101.157075 
L 114.61918 92.400693 
L 114.87307 90.130502 
L 115.12696 91.75205 
L 115.380851 90.130502 
L 115.634741 97.589658 
L 115.888631 90.130502 
L 116.142521 105.048814 
L 116.396412 101.805689 
L 116.650302 87.211698 
L 116.904192 111.535006 
L 117.158083 84.292924 
L 117.411973 107.643297 
L 117.665863 115.102452 
L 118.427534 85.914472 
L 118.681424 97.265337 
L 118.935314 95.319467 
L 119.189205 157.262847 
L 119.443095 107.643297 
L 119.696985 86.887406 
L 119.950875 99.535527 
L 120.204766 95.643789 
L 120.458656 99.211206 
L 120.712546 90.130502 
L 120.966436 87.860341 
L 121.220327 94.346533 
L 121.474217 178.991672 
L 121.728107 91.103437 
L 122.235888 119.642804 
L 122.743668 88.184633 
L 122.997558 130.020735 
L 123.251449 94.670854 
L 123.505339 89.481889 
L 123.759229 91.427758 
L 124.013119 96.292402 
L 124.26701 93.049306 
L 124.5209 94.022241 
L 124.77479 117.372614 
L 125.02868 109.589166 
L 125.282571 89.157567 
L 125.536461 99.535527 
L 125.790351 91.75205 
L 126.044241 94.022241 
L 126.298132 109.589166 
L 126.552022 89.157567 
L 126.805912 115.102452 
L 127.313693 90.130502 
L 127.567583 108.940523 
L 127.821473 90.130502 
L 128.075363 164.397681 
L 128.329254 114.129518 
L 128.583144 196.504466 
L 128.837034 92.076371 
L 129.090924 120.61571 
L 129.344815 92.076371 
L 129.598705 122.8859 
L 129.852595 93.697919 
L 130.106485 91.427758 
L 130.360376 91.103437 
L 130.614266 122.237287 
L 130.868156 91.75205 
L 131.122046 137.155569 
L 131.375937 100.508462 
L 131.629827 90.779115 
L 131.883717 103.751558 
L 132.137607 98.238271 
L 132.391498 113.156583 
L 132.645388 147.533529 
L 132.899278 96.941045 
L 133.153169 99.535527 
L 133.407059 125.480383 
L 133.660949 100.184141 
L 133.914839 101.157075 
L 134.16873 101.481397 
L 134.42262 96.941045 
L 134.67651 86.238764 
L 134.9304 99.535527 
L 135.184291 97.589658 
L 135.438181 91.427758 
L 135.692071 95.96811 
L 135.945961 91.75205 
L 136.199852 127.750574 
L 136.453742 92.724985 
L 136.707632 112.50794 
L 136.961522 98.238271 
L 137.215413 142.668856 
L 137.469303 119.967096 
L 137.723193 84.941537 
L 137.977083 94.995175 
L 138.230974 96.292402 
L 138.484864 88.508954 
L 138.738754 127.750574 
L 138.992644 91.75205 
L 139.246535 110.562101 
L 139.500425 91.427758 
L 139.754315 106.346041 
L 140.008205 93.373627 
L 140.515986 124.183156 
L 140.769876 90.454823 
L 141.023766 93.697919 
L 141.277657 189.369631 
L 141.531547 97.913979 
L 141.785437 96.292402 
L 142.039327 87.860341 
L 142.293218 102.454331 
L 142.547108 87.211698 
L 142.800998 94.670854 
L 143.054888 94.670854 
L 143.308779 105.048814 
L 143.562669 101.805689 
L 143.816559 154.019751 
L 144.070449 105.048814 
L 144.32434 88.184633 
L 144.57823 99.535527 
L 144.83212 94.670854 
L 145.08601 97.589658 
L 145.339901 90.130502 
L 145.593791 91.427758 
L 145.847681 100.184141 
L 146.101571 89.806181 
L 146.355462 97.589658 
L 146.609352 94.670854 
L 146.863242 145.911981 
L 147.117132 90.454823 
L 147.371023 166.019229 
L 147.624913 105.048814 
L 147.878803 105.048814 
L 148.132693 101.805689 
L 148.386584 114.129518 
L 148.640474 97.265337 
L 148.894364 90.779115 
L 149.148255 88.508954 
L 149.402145 106.346041 
L 149.656035 105.048814 
L 149.909925 91.427758 
L 150.163816 145.58766 
L 150.417706 98.886885 
L 150.671596 93.049306 
L 151.179377 90.779115 
L 151.433267 98.238271 
L 151.687157 94.995175 
L 151.941047 96.616723 
L 152.194938 107.643297 
L 152.448828 140.722987 
L 152.702718 94.670854 
L 152.956608 94.022241 
L 153.210499 95.643789 
L 153.464389 115.426744 
L 153.718279 98.238271 
L 153.972169 92.724985 
L 154.22606 93.697919 
L 154.47995 113.156583 
L 154.73384 95.96811 
L 154.98773 103.427237 
L 155.241621 139.750052 
L 155.495511 100.508462 
L 155.749401 98.562593 
L 156.003291 86.238764 
L 156.257182 104.724493 
L 156.511072 92.724985 
L 156.764962 93.049306 
L 157.018852 107.967589 
L 157.272743 87.211698 
L 157.526633 107.318975 
L 157.780523 95.319467 
L 158.034413 91.427758 
L 158.288304 94.995175 
L 158.542194 100.832754 
L 158.796084 123.534514 
L 159.049974 95.96811 
L 159.303865 101.805689 
L 159.557755 95.643789 
L 159.811645 120.940031 
L 160.065535 97.913979 
L 160.319426 111.210714 
L 160.573316 89.157567 
L 160.827206 88.833276 
L 161.081096 96.941045 
L 161.334987 92.724985 
L 161.842767 99.211206 
L 162.096657 95.319467 
L 162.350548 97.265337 
L 162.604438 89.806181 
L 162.858328 100.184141 
L 163.112218 93.697919 
L 163.366109 108.940523 
L 163.873889 91.427758 
L 164.127779 138.128504 
L 164.38167 90.130502 
L 164.63556 97.589658 
L 164.88945 109.913458 
L 165.14334 91.103437 
L 165.397231 89.806181 
L 165.651121 100.508462 
L 165.905011 99.535527 
L 166.158902 96.941045 
L 166.412792 129.372122 
L 166.666682 97.589658 
L 167.174463 105.697427 
L 167.428353 92.400693 
L 167.682243 93.373627 
L 167.936133 110.886393 
L 168.190024 113.480875 
L 168.443914 126.453318 
L 168.697804 95.643789 
L 168.951694 93.373627 
L 169.205585 95.643789 
L 169.459475 127.426252 
L 169.713365 92.724985 
L 170.221146 118.345548 
L 170.475036 90.130502 
L 170.728926 92.076371 
L 170.982816 95.319467 
L 171.236707 93.049306 
L 171.490597 99.859819 
L 171.744487 97.265337 
L 171.998377 91.75205 
L 172.252268 95.319467 
L 172.760048 106.670362 
L 173.013938 94.995175 
L 173.267829 101.481397 
L 173.775609 100.832754 
L 174.029499 95.96811 
L 174.28339 133.912474 
L 174.53728 99.535527 
L 174.79117 95.643789 
L 175.04506 103.427237 
L 175.298951 164.722002 
L 175.552841 106.021749 
L 175.806731 94.670854 
L 176.060621 98.562593 
L 176.314512 91.75205 
L 176.568402 106.021749 
L 176.822292 91.103437 
L 177.076182 101.481397 
L 177.330073 99.211206 
L 177.583963 91.103437 
L 177.837853 90.779115 
L 178.091743 114.129518 
L 178.345634 90.130502 
L 178.599524 93.049306 
L 178.853414 110.886393 
L 179.107304 94.995175 
L 179.361195 106.670362 
L 179.615085 106.021749 
L 179.868975 128.723508 
L 180.122865 135.2097 
L 180.376756 87.860341 
L 180.630646 97.265337 
L 180.884536 95.96811 
L 181.138426 103.102945 
L 181.392317 95.643789 
L 181.646207 99.211206 
L 181.900097 93.697919 
L 182.153988 126.777639 
L 182.407878 92.724985 
L 182.661768 170.883902 
L 182.915658 165.046294 
L 183.169549 95.319467 
L 183.423439 89.481889 
L 183.677329 104.724493 
L 183.931219 88.184633 
L 184.18511 99.535527 
L 184.439 94.995175 
L 184.69289 109.264845 
L 184.94678 90.779115 
L 185.200671 88.833276 
L 185.454561 123.534514 
L 185.708451 102.454331 
L 185.962341 94.670854 
L 186.216232 91.103437 
L 186.977902 111.210714 
L 187.231793 98.886885 
L 187.485683 99.859819 
L 187.739573 89.481889 
L 187.993463 106.994683 
L 188.501244 93.697919 
L 188.755134 99.859819 
L 189.009024 88.508954 
L 189.516805 105.048814 
L 189.770695 102.13001 
L 190.024585 95.96811 
L 190.278476 115.751066 
L 190.532366 173.154064 
L 190.786256 95.319467 
L 191.040146 110.237779 
L 191.547927 91.75205 
L 191.801817 118.021227 
L 192.055707 91.103437 
L 192.309598 119.967096 
L 192.817378 91.427758 
L 193.071268 117.048292 
L 193.325159 110.237779 
L 193.579049 90.779115 
L 193.832939 120.61571 
L 194.34072 87.211698 
L 194.59461 88.833276 
L 194.8485 88.833276 
L 195.10239 115.751066 
L 195.356281 123.534514 
L 195.610171 91.75205 
L 195.864061 107.643297 
L 196.117951 94.022241 
L 196.371842 97.265337 
L 196.625732 113.805196 
L 196.879622 116.075358 
L 197.133512 120.291418 
L 197.387403 93.049306 
L 197.895183 96.616723 
L 198.149074 91.427758 
L 198.656854 134.885408 
L 198.910744 91.75205 
L 199.164635 91.75205 
L 199.418525 129.696414 
L 199.672415 98.238271 
L 199.926305 114.45381 
L 200.434086 92.724985 
L 200.687976 105.048814 
L 200.941866 94.995175 
L 201.195757 175.748576 
L 201.449647 96.941045 
L 201.703537 88.508954 
L 201.957427 106.994683 
L 202.211318 96.616723 
L 202.465208 129.0478 
L 202.719098 99.211206 
L 203.226879 111.535006 
L 203.734659 88.184633 
L 203.988549 93.697919 
L 204.24244 149.479399 
L 204.49633 142.020243 
L 204.75022 144.939047 
L 205.00411 101.481397 
L 205.258001 93.373627 
L 205.511891 121.912966 
L 205.765781 89.481889 
L 206.019671 100.184141 
L 206.273562 97.913979 
L 206.781342 88.184633 
L 207.035232 100.832754 
L 207.289123 91.427758 
L 207.543013 137.804212 
L 207.796903 91.427758 
L 208.050793 94.022241 
L 208.304684 101.157075 
L 208.558574 103.427237 
L 208.812464 102.13001 
L 209.066354 91.427758 
L 209.320245 104.075879 
L 209.574135 96.941045 
L 209.828025 106.994683 
L 210.081915 94.346533 
L 210.335806 101.481397 
L 210.589696 89.157567 
L 210.843586 141.047308 
L 211.097476 103.751558 
L 211.351367 102.454331 
L 212.113037 92.724985 
L 212.620818 101.481397 
L 212.874708 98.238271 
L 213.128598 102.778623 
L 213.382489 143.317469 
L 213.636379 146.560595 
L 213.890269 91.75205 
L 214.14416 150.128012 
L 214.39805 103.427237 
L 214.65194 128.723508 
L 214.90583 101.805689 
L 215.159721 99.211206 
L 215.413611 93.697919 
L 215.667501 99.859819 
L 215.921391 90.130502 
L 216.175282 93.373627 
L 216.429172 86.887406 
L 216.683062 94.022241 
L 216.936952 97.589658 
L 217.190843 193.585662 
L 217.444733 95.643789 
L 217.698623 93.373627 
L 217.952513 100.508462 
L 218.206404 93.049306 
L 218.714184 99.211206 
L 218.968074 92.400693 
L 219.475855 100.832754 
L 219.729745 101.157075 
L 219.983635 97.265337 
L 220.237526 113.805196 
L 220.491416 112.183649 
L 220.745306 197.801693 
L 220.999196 104.075879 
L 221.253087 122.8859 
L 221.506977 91.75205 
L 221.760867 89.157567 
L 222.014757 106.994683 
L 222.268648 92.076371 
L 222.522538 98.238271 
L 222.776428 98.238271 
L 223.030318 98.562593 
L 223.284209 100.508462 
L 223.538099 106.021749 
L 223.791989 96.292402 
L 224.045879 102.778623 
L 224.29977 105.697427 
L 224.55366 126.453318 
L 224.80755 96.292402 
L 225.06144 95.319467 
L 225.315331 98.562593 
L 225.569221 117.372614 
L 225.823111 104.400171 
L 226.077001 151.100947 
L 226.330892 95.643789 
L 226.584782 97.265337 
L 227.092562 114.45381 
L 227.854233 85.265829 
L 228.108123 96.941045 
L 228.362014 95.96811 
L 228.615904 88.184633 
L 228.869794 98.238271 
L 229.123684 98.886885 
L 229.377575 89.481889 
L 229.631465 152.398173 
L 229.885355 92.076371 
L 230.139245 99.535527 
L 230.393136 93.697919 
L 230.647026 181.910476 
L 230.900916 105.373106 
L 231.154807 100.508462 
L 231.408697 91.75205 
L 231.662587 91.75205 
L 231.916477 94.346533 
L 232.170368 89.157567 
L 232.678148 135.2097 
L 232.932038 93.697919 
L 233.185929 99.535527 
L 233.439819 90.454823 
L 233.693709 115.426744 
L 233.947599 108.940523 
L 234.45538 93.049306 
L 234.70927 94.346533 
L 234.96316 90.779115 
L 235.217051 92.076371 
L 235.470941 148.182143 
L 235.724831 106.670362 
L 235.978721 104.400171 
L 236.486502 93.373627 
L 236.740392 118.994162 
L 236.994282 94.995175 
L 237.248173 91.75205 
L 237.502063 90.454823 
L 237.755953 100.184141 
L 238.009843 97.265337 
L 238.263734 93.049306 
L 238.517624 93.049306 
L 239.025404 88.833276 
L 239.533185 98.562593 
L 239.787075 90.130502 
L 240.040965 110.237779 
L 240.294856 95.319467 
L 240.548746 103.751558 
L 240.802636 125.480383 
L 241.056526 99.535527 
L 241.310417 98.562593 
L 241.564307 145.911981 
L 241.818197 103.427237 
L 242.072087 93.373627 
L 242.325978 94.022241 
L 242.579868 95.319467 
L 242.833758 128.723508 
L 243.087648 122.561579 
L 243.341539 138.128504 
L 243.595429 98.562593 
L 243.849319 112.832262 
L 244.103209 144.290404 
L 244.3571 89.157567 
L 244.61099 102.778623 
L 245.11877 89.481889 
L 245.372661 94.022241 
L 245.626551 104.400171 
L 245.880441 90.779115 
L 246.134331 141.047308 
L 246.388222 96.941045 
L 246.642112 103.427237 
L 246.896002 92.724985 
L 247.149893 94.995175 
L 247.403783 112.832262 
L 247.657673 104.400171 
L 247.911563 90.454823 
L 248.165454 108.29191 
L 248.419344 94.022241 
L 248.673234 99.535527 
L 248.927124 123.858835 
L 249.181015 89.481889 
L 249.434905 95.96811 
L 249.688795 93.373627 
L 249.942685 97.913979 
L 250.196576 94.022241 
L 250.450466 97.913979 
L 250.704356 92.400693 
L 250.958246 95.319467 
L 251.212137 183.856345 
L 251.466027 98.238271 
L 251.719917 106.994683 
L 251.973807 109.589166 
L 252.227698 90.454823 
L 252.481588 91.427758 
L 252.735478 90.779115 
L 253.243259 104.075879 
L 253.497149 101.157075 
L 253.751039 95.96811 
L 254.25882 118.021227 
L 254.51271 102.454331 
L 254.7666 100.184141 
L 255.02049 93.697919 
L 255.274381 127.101931 
L 255.528271 98.886885 
L 255.782161 104.075879 
L 256.036051 121.912966 
L 256.289942 94.022241 
L 256.543832 91.103437 
L 256.797722 114.45381 
L 257.051612 99.859819 
L 257.305503 98.562593 
L 257.559393 106.994683 
L 257.813283 102.778623 
L 258.067173 110.237779 
L 258.321064 92.724985 
L 258.574954 118.021227 
L 258.828844 102.778623 
L 259.082734 97.913979 
L 259.336625 108.940523 
L 259.590515 89.806181 
L 259.844405 118.345548 
L 260.098295 89.157567 
L 260.352186 92.724985 
L 260.606076 104.400171 
L 260.859966 92.724985 
L 261.113856 96.941045 
L 261.621637 117.372614 
L 261.875527 92.400693 
L 262.129417 95.319467 
L 262.383308 119.967096 
L 262.637198 97.913979 
L 263.144979 105.048814 
L 263.398869 99.211206 
L 263.652759 166.019229 
L 263.906649 99.859819 
L 264.16054 96.616723 
L 264.41443 87.53602 
L 264.66832 95.96811 
L 264.92221 89.157567 
L 265.176101 98.886885 
L 265.429991 98.886885 
L 265.683881 117.048292 
L 265.937771 107.967589 
L 266.191662 93.697919 
L 266.445552 93.049306 
L 266.699442 100.184141 
L 266.953332 100.832754 
L 267.207223 99.535527 
L 267.461113 94.346533 
L 267.715003 100.508462 
L 267.968893 112.832262 
L 268.222784 96.616723 
L 268.476674 88.833276 
L 268.730564 114.129518 
L 268.984454 108.616231 
L 269.238345 93.373627 
L 269.492235 92.400693 
L 269.746125 98.562593 
L 270.000015 85.59015 
L 270.253906 91.103437 
L 270.507796 93.697919 
L 270.761686 93.373627 
L 271.777247 107.967589 
L 272.031137 89.481889 
L 272.285028 104.400171 
L 272.538918 94.346533 
L 272.792808 95.643789 
L 273.046698 88.508954 
L 273.300589 111.859327 
L 273.554479 92.400693 
L 273.808369 90.454823 
L 274.062259 106.670362 
L 274.31615 115.751066 
L 274.57004 94.346533 
L 274.82393 109.589166 
L 275.07782 112.832262 
L 275.331711 94.022241 
L 275.585601 95.643789 
L 275.839491 103.427237 
L 276.347272 85.914472 
L 276.601162 101.805689 
L 276.855052 89.806181 
L 277.108942 97.913979 
L 277.362833 119.318483 
L 277.616723 90.454823 
L 277.870613 88.184633 
L 278.124503 97.265337 
L 278.632284 131.317991 
L 278.886174 100.184141 
L 279.140064 98.886885 
L 279.393955 94.670854 
L 279.647845 109.589166 
L 279.901735 86.563085 
L 280.155626 98.238271 
L 280.409516 91.427758 
L 280.663406 123.210222 
L 280.917296 89.157567 
L 281.171187 104.075879 
L 281.425077 84.292924 
L 281.678967 130.020735 
L 281.932857 96.292402 
L 282.186748 135.534022 
L 282.440638 91.103437 
L 282.694528 91.75205 
L 282.948418 89.806181 
L 283.202309 100.832754 
L 283.456199 120.61571 
L 283.710089 161.803199 
L 283.963979 102.778623 
L 284.21787 124.507448 
L 284.47176 91.103437 
L 284.72565 92.724985 
L 284.97954 120.940031 
L 285.233431 91.75205 
L 285.487321 97.265337 
L 285.741211 147.533529 
L 285.995101 98.238271 
L 286.502882 91.427758 
L 286.756772 92.076371 
L 287.010662 104.400171 
L 287.264553 89.481889 
L 287.518443 96.292402 
L 287.772333 110.237779 
L 288.026223 101.481397 
L 288.280114 111.859327 
L 288.534004 93.049306 
L 288.787894 101.805689 
L 289.041784 91.75205 
L 289.295675 95.643789 
L 289.549565 113.480875 
L 289.803455 189.693923 
L 290.057345 98.238271 
L 290.311236 104.724493 
L 290.565126 94.022241 
L 290.819016 101.157075 
L 291.072906 121.588644 
L 291.326797 98.886885 
L 291.580687 91.427758 
L 292.088467 90.779115 
L 292.342358 91.427758 
L 292.596248 98.238271 
L 292.850138 122.8859 
L 293.104028 93.049306 
L 293.357919 92.400693 
L 293.611809 95.96811 
L 293.865699 95.96811 
L 294.119589 129.696414 
L 294.37348 148.506464 
L 294.62737 86.563085 
L 294.88126 106.346041 
L 295.13515 93.373627 
L 295.389041 92.724985 
L 295.642931 98.238271 
L 295.896821 112.832262 
L 296.150712 110.886393 
L 296.404602 94.022241 
L 296.658492 88.184633 
L 296.912382 91.427758 
L 297.166273 98.562593 
L 297.420163 92.400693 
L 297.674053 94.670854 
L 297.927943 127.750574 
L 298.181834 90.779115 
L 298.435724 90.130502 
L 298.689614 101.157075 
L 299.197395 86.887406 
L 299.451285 91.75205 
L 299.705175 101.481397 
L 299.959065 93.697919 
L 300.212956 93.697919 
L 300.466846 94.022241 
L 300.720736 95.96811 
L 300.974626 104.724493 
L 301.228517 129.696414 
L 301.482407 102.454331 
L 301.736297 106.994683 
L 301.990187 106.021749 
L 302.244078 95.643789 
L 302.497968 93.373627 
L 302.751858 102.778623 
L 303.259639 91.427758 
L 303.513529 98.886885 
L 303.767419 94.346533 
L 304.021309 110.562101 
L 304.2752 91.103437 
L 304.52909 105.373106 
L 304.78298 109.589166 
L 305.03687 85.914472 
L 305.290761 93.697919 
L 305.544651 96.616723 
L 305.798541 111.210714 
L 306.052431 89.481889 
L 306.306322 92.076371 
L 306.560212 122.8859 
L 306.814102 99.859819 
L 307.067992 111.210714 
L 307.321883 98.562593 
L 307.575773 112.832262 
L 307.829663 90.130502 
L 308.083553 95.643789 
L 308.337444 97.913979 
L 308.591334 98.562593 
L 308.845224 85.59015 
L 309.099114 88.508954 
L 309.353005 110.886393 
L 309.606895 92.400693 
L 309.860785 93.697919 
L 310.114675 99.211206 
L 310.368566 94.670854 
L 310.622456 101.805689 
L 310.876346 95.319467 
L 311.130236 97.589658 
L 311.384127 88.508954 
L 311.638017 89.157567 
L 311.891907 105.697427 
L 312.145798 111.535006 
L 312.399688 124.83177 
L 312.653578 94.995175 
L 312.907468 96.941045 
L 313.161359 96.292402 
L 313.415249 98.562593 
L 313.669139 95.96811 
L 313.923029 116.075358 
L 314.17692 108.616231 
L 314.43081 94.022241 
L 314.6847 114.129518 
L 315.192481 91.75205 
L 315.446371 124.183156 
L 315.700261 102.454331 
L 315.954151 101.157075 
L 316.208042 88.184633 
L 316.461932 91.427758 
L 316.461932 91.427758 
" clip-path="url(#p0e31cd0215)" style="fill: none; stroke: #ff0000; stroke-width: 0.6; stroke-linecap: square"/>
   </g>
   <g id="patch_3">
    <path d="M 50.14375 239.76 
L 50.14375 37.296 
" style="fill: none; stroke: #000000; stroke-width: 0.8; stroke-linejoin: miter; stroke-linecap: square"/>
   </g>
   <g id="patch_4">
    <path d="M 329.14375 239.76 
L 329.14375 37.296 
" style="fill: none; stroke: #000000; stroke-width: 0.8; stroke-linejoin: miter; stroke-linecap: square"/>
   </g>
   <g id="patch_5">
    <path d="M 50.14375 239.76 
L 329.14375 239.76 
" style="fill: none; stroke: #000000; stroke-width: 0.8; stroke-linejoin: miter; stroke-linecap: square"/>
   </g>
   <g id="patch_6">
    <path d="M 50.14375 37.296 
L 329.14375 37.296 
" style="fill: none; stroke: #000000; stroke-width: 0.8; stroke-linejoin: miter; stroke-linecap: square"/>
   </g>
   <g id="text_17">
    <!-- Baseline Model -->
    <g transform="translate(155.622344 31.296) scale(0.09 -0.09)">
     <defs>
      <path id="DejaVuSans-42" d="M 1259 2228 
L 1259 519 
L 2272 519 
Q 2781 519 3026 730 
Q 3272 941 3272 1375 
Q 3272 1813 3026 2020 
Q 2781 2228 2272 2228 
L 1259 2228 
z
M 1259 4147 
L 1259 2741 
L 2194 2741 
Q 2656 2741 2882 2914 
Q 3109 3088 3109 3444 
Q 3109 3797 2882 3972 
Q 2656 4147 2194 4147 
L 1259 4147 
z
M 628 4666 
L 2241 4666 
Q 2963 4666 3353 4366 
Q 3744 4066 3744 3513 
Q 3744 3084 3544 2831 
Q 3344 2578 2956 2516 
Q 3422 2416 3680 2098 
Q 3938 1781 3938 1306 
Q 3938 681 3513 340 
Q 3088 0 2303 0 
L 628 0 
L 628 4666 
z
" transform="scale(0.015625)"/>
      <path id="DejaVuSans-65" d="M 3597 1894 
L 3597 1613 
L 953 1613 
Q 991 1019 1311 708 
Q 1631 397 2203 397 
Q 2534 397 2845 478 
Q 3156 559 3463 722 
L 3463 178 
Q 3153 47 2828 -22 
Q 2503 -91 2169 -91 
Q 1331 -91 842 396 
Q 353 884 353 1716 
Q 353 2575 817 3079 
Q 1281 3584 2069 3584 
Q 2775 3584 3186 3129 
Q 3597 2675 3597 1894 
z
M 3022 2063 
Q 3016 2534 2758 2815 
Q 2500 3097 2075 3097 
Q 1594 3097 1305 2825 
Q 1016 2553 972 2059 
L 3022 2063 
z
" transform="scale(0.015625)"/>
      <path id="DejaVuSans-6c" d="M 603 4863 
L 1178 4863 
L 1178 0 
L 603 0 
L 603 4863 
z
" transform="scale(0.015625)"/>
      <path id="DejaVuSans-69" d="M 603 3500 
L 1178 3500 
L 1178 0 
L 603 0 
L 603 3500 
z
M 603 4863 
L 1178 4863 
L 1178 4134 
L 603 4134 
L 603 4863 
z
" transform="scale(0.015625)"/>
      <path id="DejaVuSans-6e" d="M 3513 2113 
L 3513 0 
L 2938 0 
L 2938 2094 
Q 2938 2591 2744 2837 
Q 2550 3084 2163 3084 
Q 1697 3084 1428 2787 
Q 1159 2491 1159 1978 
L 1159 0 
L 581 0 
L 581 3500 
L 1159 3500 
L 1159 2956 
Q 1366 3272 1645 3428 
Q 1925 3584 2291 3584 
Q 2894 3584 3203 3211 
Q 3513 2838 3513 2113 
z
" transform="scale(0.015625)"/>
      <path id="DejaVuSans-20" transform="scale(0.015625)"/>
      <path id="DejaVuSans-4d" d="M 628 4666 
L 1569 4666 
L 2759 1491 
L 3956 4666 
L 4897 4666 
L 4897 0 
L 4281 0 
L 4281 4097 
L 3078 897 
L 2444 897 
L 1241 4097 
L 1241 0 
L 628 0 
L 628 4666 
z
" transform="scale(0.015625)"/>
      <path id="DejaVuSans-64" d="M 2906 2969 
L 2906 4863 
L 3481 4863 
L 3481 0 
L 2906 0 
L 2906 525 
Q 2725 213 2448 61 
Q 2172 -91 1784 -91 
Q 1150 -91 751 415 
Q 353 922 353 1747 
Q 353 2572 751 3078 
Q 1150 3584 1784 3584 
Q 2172 3584 2448 3432 
Q 2725 3281 2906 2969 
z
M 947 1747 
Q 947 1113 1208 752 
Q 1469 391 1925 391 
Q 2381 391 2643 752 
Q 2906 1113 2906 1747 
Q 2906 2381 2643 2742 
Q 2381 3103 1925 3103 
Q 1469 3103 1208 2742 
Q 947 2381 947 1747 
z
" transform="scale(0.015625)"/>
     </defs>
     <use xlink:href="#DejaVuSans-42"/>
     <use xlink:href="#DejaVuSans-61" x="68.603516"/>
     <use xlink:href="#DejaVuSans-73" x="129.882812"/>
     <use xlink:href="#DejaVuSans-65" x="181.982422"/>
     <use xlink:href="#DejaVuSans-6c" x="243.505859"/>
     <use xlink:href="#DejaVuSans-69" x="271.289062"/>
     <use xlink:href="#DejaVuSans-6e" x="299.072266"/>
     <use xlink:href="#DejaVuSans-65" x="362.451172"/>
     <use xlink:href="#DejaVuSans-20" x="423.974609"/>
     <use xlink:href="#DejaVuSans-4d" x="455.761719"/>
     <use xlink:href="#DejaVuSans-6f" x="542.041016"/>
     <use xlink:href="#DejaVuSans-64" x="603.222656"/>
     <use xlink:href="#DejaVuSans-65" x="666.699219"/>
     <use xlink:href="#DejaVuSans-6c" x="728.222656"/>
    </g>
   </g>
   <g id="legend_1">
    <g id="patch_7">
     <path d="M 191.928125 234.76 
L 322.14375 234.76 
Q 324.14375 234.76 324.14375 232.76 
L 324.14375 204.40375 
Q 324.14375 202.40375 322.14375 202.40375 
L 191.928125 202.40375 
Q 189.928125 202.40375 189.928125 204.40375 
L 189.928125 232.76 
Q 189.928125 234.76 191.928125 234.76 
z
" style="fill: #ffffff; opacity: 0.8; stroke: #cccccc; stroke-linejoin: miter"/>
    </g>
    <g id="line2d_31">
     <path d="M 193.928125 210.502187 
L 203.928125 210.502187 
L 213.928125 210.502187 
" style="fill: none; stroke: #0000ff; stroke-width: 0.6; stroke-linecap: square"/>
    </g>
    <g id="text_18">
     <!-- Training Accuracy -->
     <g transform="translate(221.928125 214.002187) scale(0.1 -0.1)">
      <defs>
       <path id="DejaVuSans-54" d="M -19 4666 
L 3928 4666 
L 3928 4134 
L 2272 4134 
L 2272 0 
L 1638 0 
L 1638 4134 
L -19 4134 
L -19 4666 
z
" transform="scale(0.015625)"/>
       <path id="DejaVuSans-67" d="M 2906 1791 
Q 2906 2416 2648 2759 
Q 2391 3103 1925 3103 
Q 1463 3103 1205 2759 
Q 947 2416 947 1791 
Q 947 1169 1205 825 
Q 1463 481 1925 481 
Q 2391 481 2648 825 
Q 2906 1169 2906 1791 
z
M 3481 434 
Q 3481 -459 3084 -895 
Q 2688 -1331 1869 -1331 
Q 1566 -1331 1297 -1286 
Q 1028 -1241 775 -1147 
L 775 -588 
Q 1028 -725 1275 -790 
Q 1522 -856 1778 -856 
Q 2344 -856 2625 -561 
Q 2906 -266 2906 331 
L 2906 616 
Q 2728 306 2450 153 
Q 2172 0 1784 0 
Q 1141 0 747 490 
Q 353 981 353 1791 
Q 353 2603 747 3093 
Q 1141 3584 1784 3584 
Q 2172 3584 2450 3431 
Q 2728 3278 2906 2969 
L 2906 3500 
L 3481 3500 
L 3481 434 
z
" transform="scale(0.015625)"/>
      </defs>
      <use xlink:href="#DejaVuSans-54"/>
      <use xlink:href="#DejaVuSans-72" x="46.333984"/>
      <use xlink:href="#DejaVuSans-61" x="87.447266"/>
      <use xlink:href="#DejaVuSans-69" x="148.726562"/>
      <use xlink:href="#DejaVuSans-6e" x="176.509766"/>
      <use xlink:href="#DejaVuSans-69" x="239.888672"/>
      <use xlink:href="#DejaVuSans-6e" x="267.671875"/>
      <use xlink:href="#DejaVuSans-67" x="331.050781"/>
      <use xlink:href="#DejaVuSans-20" x="394.527344"/>
      <use xlink:href="#DejaVuSans-41" x="426.314453"/>
      <use xlink:href="#DejaVuSans-63" x="492.972656"/>
      <use xlink:href="#DejaVuSans-63" x="547.953125"/>
      <use xlink:href="#DejaVuSans-75" x="602.933594"/>
      <use xlink:href="#DejaVuSans-72" x="666.3125"/>
      <use xlink:href="#DejaVuSans-61" x="707.425781"/>
      <use xlink:href="#DejaVuSans-63" x="768.705078"/>
      <use xlink:href="#DejaVuSans-79" x="823.685547"/>
     </g>
    </g>
    <g id="line2d_32">
     <path d="M 193.928125 225.180312 
L 203.928125 225.180312 
L 213.928125 225.180312 
" style="fill: none; stroke: #ff0000; stroke-width: 0.6; stroke-linecap: square"/>
    </g>
    <g id="text_19">
     <!-- Validation Accuracy -->
     <g transform="translate(221.928125 228.680312) scale(0.1 -0.1)">
      <defs>
       <path id="DejaVuSans-56" d="M 1831 0 
L 50 4666 
L 709 4666 
L 2188 738 
L 3669 4666 
L 4325 4666 
L 2547 0 
L 1831 0 
z
" transform="scale(0.015625)"/>
       <path id="DejaVuSans-74" d="M 1172 4494 
L 1172 3500 
L 2356 3500 
L 2356 3053 
L 1172 3053 
L 1172 1153 
Q 1172 725 1289 603 
Q 1406 481 1766 481 
L 2356 481 
L 2356 0 
L 1766 0 
Q 1100 0 847 248 
Q 594 497 594 1153 
L 594 3053 
L 172 3053 
L 172 3500 
L 594 3500 
L 594 4494 
L 1172 4494 
z
" transform="scale(0.015625)"/>
      </defs>
      <use xlink:href="#DejaVuSans-56"/>
      <use xlink:href="#DejaVuSans-61" x="60.658203"/>
      <use xlink:href="#DejaVuSans-6c" x="121.9375"/>
      <use xlink:href="#DejaVuSans-69" x="149.720703"/>
      <use xlink:href="#DejaVuSans-64" x="177.503906"/>
      <use xlink:href="#DejaVuSans-61" x="240.980469"/>
      <use xlink:href="#DejaVuSans-74" x="302.259766"/>
      <use xlink:href="#DejaVuSans-69" x="341.46875"/>
      <use xlink:href="#DejaVuSans-6f" x="369.251953"/>
      <use xlink:href="#DejaVuSans-6e" x="430.433594"/>
      <use xlink:href="#DejaVuSans-20" x="493.8125"/>
      <use xlink:href="#DejaVuSans-41" x="525.599609"/>
      <use xlink:href="#DejaVuSans-63" x="592.257812"/>
      <use xlink:href="#DejaVuSans-63" x="647.238281"/>
      <use xlink:href="#DejaVuSans-75" x="702.21875"/>
      <use xlink:href="#DejaVuSans-72" x="765.597656"/>
      <use xlink:href="#DejaVuSans-61" x="806.710938"/>
      <use xlink:href="#DejaVuSans-63" x="867.990234"/>
      <use xlink:href="#DejaVuSans-79" x="922.970703"/>
     </g>
    </g>
   </g>
  </g>
  <g id="text_20">
   <!-- Training VS. Validation Accuracy - Dataset Size = 100.0% -->
   <g transform="translate(27.796484 15.558281) scale(0.11 -0.11)">
    <defs>
     <path id="DejaVuSans-53" d="M 3425 4513 
L 3425 3897 
Q 3066 4069 2747 4153 
Q 2428 4238 2131 4238 
Q 1616 4238 1336 4038 
Q 1056 3838 1056 3469 
Q 1056 3159 1242 3001 
Q 1428 2844 1947 2747 
L 2328 2669 
Q 3034 2534 3370 2195 
Q 3706 1856 3706 1288 
Q 3706 609 3251 259 
Q 2797 -91 1919 -91 
Q 1588 -91 1214 -16 
Q 841 59 441 206 
L 441 856 
Q 825 641 1194 531 
Q 1563 422 1919 422 
Q 2459 422 2753 634 
Q 3047 847 3047 1241 
Q 3047 1584 2836 1778 
Q 2625 1972 2144 2069 
L 1759 2144 
Q 1053 2284 737 2584 
Q 422 2884 422 3419 
Q 422 4038 858 4394 
Q 1294 4750 2059 4750 
Q 2388 4750 2728 4690 
Q 3069 4631 3425 4513 
z
" transform="scale(0.015625)"/>
     <path id="DejaVuSans-2d" d="M 313 2009 
L 1997 2009 
L 1997 1497 
L 313 1497 
L 313 2009 
z
" transform="scale(0.015625)"/>
     <path id="DejaVuSans-44" d="M 1259 4147 
L 1259 519 
L 2022 519 
Q 2988 519 3436 956 
Q 3884 1394 3884 2338 
Q 3884 3275 3436 3711 
Q 2988 4147 2022 4147 
L 1259 4147 
z
M 628 4666 
L 1925 4666 
Q 3281 4666 3915 4102 
Q 4550 3538 4550 2338 
Q 4550 1131 3912 565 
Q 3275 0 1925 0 
L 628 0 
L 628 4666 
z
" transform="scale(0.015625)"/>
     <path id="DejaVuSans-7a" d="M 353 3500 
L 3084 3500 
L 3084 2975 
L 922 459 
L 3084 459 
L 3084 0 
L 275 0 
L 275 525 
L 2438 3041 
L 353 3041 
L 353 3500 
z
" transform="scale(0.015625)"/>
     <path id="DejaVuSans-3d" d="M 678 2906 
L 4684 2906 
L 4684 2381 
L 678 2381 
L 678 2906 
z
M 678 1631 
L 4684 1631 
L 4684 1100 
L 678 1100 
L 678 1631 
z
" transform="scale(0.015625)"/>
     <path id="DejaVuSans-25" d="M 4653 2053 
Q 4381 2053 4226 1822 
Q 4072 1591 4072 1178 
Q 4072 772 4226 539 
Q 4381 306 4653 306 
Q 4919 306 5073 539 
Q 5228 772 5228 1178 
Q 5228 1588 5073 1820 
Q 4919 2053 4653 2053 
z
M 4653 2450 
Q 5147 2450 5437 2106 
Q 5728 1763 5728 1178 
Q 5728 594 5436 251 
Q 5144 -91 4653 -91 
Q 4153 -91 3862 251 
Q 3572 594 3572 1178 
Q 3572 1766 3864 2108 
Q 4156 2450 4653 2450 
z
M 1428 4353 
Q 1159 4353 1004 4120 
Q 850 3888 850 3481 
Q 850 3069 1003 2837 
Q 1156 2606 1428 2606 
Q 1700 2606 1854 2837 
Q 2009 3069 2009 3481 
Q 2009 3884 1853 4118 
Q 1697 4353 1428 4353 
z
M 4250 4750 
L 4750 4750 
L 1831 -91 
L 1331 -91 
L 4250 4750 
z
M 1428 4750 
Q 1922 4750 2215 4408 
Q 2509 4066 2509 3481 
Q 2509 2891 2217 2550 
Q 1925 2209 1428 2209 
Q 931 2209 642 2551 
Q 353 2894 353 3481 
Q 353 4063 643 4406 
Q 934 4750 1428 4750 
z
" transform="scale(0.015625)"/>
    </defs>
    <use xlink:href="#DejaVuSans-54"/>
    <use xlink:href="#DejaVuSans-72" x="46.333984"/>
    <use xlink:href="#DejaVuSans-61" x="87.447266"/>
    <use xlink:href="#DejaVuSans-69" x="148.726562"/>
    <use xlink:href="#DejaVuSans-6e" x="176.509766"/>
    <use xlink:href="#DejaVuSans-69" x="239.888672"/>
    <use xlink:href="#DejaVuSans-6e" x="267.671875"/>
    <use xlink:href="#DejaVuSans-67" x="331.050781"/>
    <use xlink:href="#DejaVuSans-20" x="394.527344"/>
    <use xlink:href="#DejaVuSans-56" x="426.314453"/>
    <use xlink:href="#DejaVuSans-53" x="494.722656"/>
    <use xlink:href="#DejaVuSans-2e" x="558.199219"/>
    <use xlink:href="#DejaVuSans-20" x="589.986328"/>
    <use xlink:href="#DejaVuSans-56" x="621.773438"/>
    <use xlink:href="#DejaVuSans-61" x="682.431641"/>
    <use xlink:href="#DejaVuSans-6c" x="743.710938"/>
    <use xlink:href="#DejaVuSans-69" x="771.494141"/>
    <use xlink:href="#DejaVuSans-64" x="799.277344"/>
    <use xlink:href="#DejaVuSans-61" x="862.753906"/>
    <use xlink:href="#DejaVuSans-74" x="924.033203"/>
    <use xlink:href="#DejaVuSans-69" x="963.242188"/>
    <use xlink:href="#DejaVuSans-6f" x="991.025391"/>
    <use xlink:href="#DejaVuSans-6e" x="1052.207031"/>
    <use xlink:href="#DejaVuSans-20" x="1115.585938"/>
    <use xlink:href="#DejaVuSans-41" x="1147.373047"/>
    <use xlink:href="#DejaVuSans-63" x="1214.03125"/>
    <use xlink:href="#DejaVuSans-63" x="1269.011719"/>
    <use xlink:href="#DejaVuSans-75" x="1323.992188"/>
    <use xlink:href="#DejaVuSans-72" x="1387.371094"/>
    <use xlink:href="#DejaVuSans-61" x="1428.484375"/>
    <use xlink:href="#DejaVuSans-63" x="1489.763672"/>
    <use xlink:href="#DejaVuSans-79" x="1544.744141"/>
    <use xlink:href="#DejaVuSans-20" x="1603.923828"/>
    <use xlink:href="#DejaVuSans-2d" x="1635.710938"/>
    <use xlink:href="#DejaVuSans-20" x="1671.794922"/>
    <use xlink:href="#DejaVuSans-44" x="1703.582031"/>
    <use xlink:href="#DejaVuSans-61" x="1780.583984"/>
    <use xlink:href="#DejaVuSans-74" x="1841.863281"/>
    <use xlink:href="#DejaVuSans-61" x="1881.072266"/>
    <use xlink:href="#DejaVuSans-73" x="1942.351562"/>
    <use xlink:href="#DejaVuSans-65" x="1994.451172"/>
    <use xlink:href="#DejaVuSans-74" x="2055.974609"/>
    <use xlink:href="#DejaVuSans-20" x="2095.183594"/>
    <use xlink:href="#DejaVuSans-53" x="2126.970703"/>
    <use xlink:href="#DejaVuSans-69" x="2190.447266"/>
    <use xlink:href="#DejaVuSans-7a" x="2218.230469"/>
    <use xlink:href="#DejaVuSans-65" x="2270.720703"/>
    <use xlink:href="#DejaVuSans-20" x="2332.244141"/>
    <use xlink:href="#DejaVuSans-3d" x="2364.03125"/>
    <use xlink:href="#DejaVuSans-20" x="2447.820312"/>
    <use xlink:href="#DejaVuSans-31" x="2479.607422"/>
    <use xlink:href="#DejaVuSans-30" x="2543.230469"/>
    <use xlink:href="#DejaVuSans-30" x="2606.853516"/>
    <use xlink:href="#DejaVuSans-2e" x="2670.476562"/>
    <use xlink:href="#DejaVuSans-30" x="2702.263672"/>
    <use xlink:href="#DejaVuSans-25" x="2765.886719"/>
   </g>
  </g>
 </g>
 <defs>
  <clipPath id="p0e31cd0215">
   <rect x="50.14375" y="37.296" width="279" height="202.464"/>
  </clipPath>
 </defs>
</svg>
