<?xml version="1.0" encoding="utf-8" standalone="no"?>
<!DOCTYPE svg PUBLIC "-//W3C//DTD SVG 1.1//EN"
  "http://www.w3.org/Graphics/SVG/1.1/DTD/svg11.dtd">
<svg xmlns:xlink="http://www.w3.org/1999/xlink" width="349.691016pt" height="277.31625pt" viewBox="0 0 349.691016 277.31625" xmlns="http://www.w3.org/2000/svg" version="1.1">
 <metadata>
  <rdf:RDF xmlns:dc="http://purl.org/dc/elements/1.1/" xmlns:cc="http://creativecommons.org/ns#" xmlns:rdf="http://www.w3.org/1999/02/22-rdf-syntax-ns#">
   <cc:Work>
    <dc:type rdf:resource="http://purl.org/dc/dcmitype/StillImage"/>
    <dc:date>2026-06-11T17:27:28.275290</dc:date>
    <dc:format>image/svg+xml</dc:format>
    <dc:creator>
     <cc:Agent>
      <dc:title>Matplotlib v3.8.4, https://matplotlib.org/</dc:title>
     </cc:Agent>
    </dc:creator>
   </cc:Work>
  </rdf:RDF>
 </metadata>
 <defs>
  <style type="text/css">*{stroke-linejoin: round; stroke-linecap: butt}</style>
 </defs>
 <g id="figure_1">
  <g id="patch_1">
   <path d="M 0 277.31625 
L 349.691016 277.31625 
L 349.691016 0 
L 0 0 
z
" style="fill: #ffffff"/>
  </g>
  <g id="axes_1">
   <g id="patch_2">
    <path d="M 50.14375 239.76 
L 329.14375 239.76 
L 329.14375 37.296 
L 50.14375 37.296 
z
" style="fill: #ffffff"/>
   </g>
   <g id="matplotlib.axis_1">
    <g id="xtick_1">
     <g id="line2d_1">
      <path d="M 62.571678 239.76 
L 62.571678 37.296 
" clip-path="url(#p3bdb1f92c9)" style="fill: none; stroke-dasharray: 2.96,1.28; stroke-dashoffset: 0; stroke: #b0b0b0; stroke-opacity: 0.4; stroke-width: 0.8"/>
     </g>
     <g id="line2d_2">
      <defs>
       <path id="mc480eb4938" d="M 0 0 
L 0 3.5 
" style="stroke: #000000; stroke-width: 0.8"/>
      </defs>
      <g>
       <use xlink:href="#mc480eb4938" x="62.571678" y="239.76" style="stroke: #000000; stroke-width: 0.8"/>
      </g>
     </g>
     <g id="text_1">
      <!-- 0 -->
      <g transform="translate(59.390428 254.358437) scale(0.1 -0.1)">
       <defs>
        <path id="DejaVuSans-30" d="M 2034 4250 
Q 1547 4250 1301 3770 
Q 1056 3291 1056 2328 
Q 1056 1369 1301 889 
Q 1547 409 2034 409 
Q 2525 409 2770 889 
Q 3016 1369 3016 2328 
Q 3016 3291 2770 3770 
Q 2525 4250 2034 4250 
z
M 2034 4750 
Q 2819 4750 3233 4129 
Q 3647 3509 3647 2328 
Q 3647 1150 3233 529 
Q 2819 -91 2034 -91 
Q 1250 -91 836 529 
Q 422 1150 422 2328 
Q 422 3509 836 4129 
Q 1250 4750 2034 4750 
z
" transform="scale(0.015625)"/>
       </defs>
       <use xlink:href="#DejaVuSans-30"/>
      </g>
     </g>
    </g>
    <g id="xtick_2">
     <g id="line2d_3">
      <path d="M 113.349729 239.76 
L 113.349729 37.296 
" clip-path="url(#p3bdb1f92c9)" style="fill: none; stroke-dasharray: 2.96,1.28; stroke-dashoffset: 0; stroke: #b0b0b0; stroke-opacity: 0.4; stroke-width: 0.8"/>
     </g>
     <g id="line2d_4">
      <g>
       <use xlink:href="#mc480eb4938" x="113.349729" y="239.76" style="stroke: #000000; stroke-width: 0.8"/>
      </g>
     </g>
     <g id="text_2">
      <!-- 200 -->
      <g transform="translate(103.805979 254.358437) scale(0.1 -0.1)">
       <defs>
        <path id="DejaVuSans-32" d="M 1228 531 
L 3431 531 
L 3431 0 
L 469 0 
L 469 531 
Q 828 903 1448 1529 
Q 2069 2156 2228 2338 
Q 2531 2678 2651 2914 
Q 2772 3150 2772 3378 
Q 2772 3750 2511 3984 
Q 2250 4219 1831 4219 
Q 1534 4219 1204 4116 
Q 875 4013 500 3803 
L 500 4441 
Q 881 4594 1212 4672 
Q 1544 4750 1819 4750 
Q 2544 4750 2975 4387 
Q 3406 4025 3406 3419 
Q 3406 3131 3298 2873 
Q 3191 2616 2906 2266 
Q 2828 2175 2409 1742 
Q 1991 1309 1228 531 
z
" transform="scale(0.015625)"/>
       </defs>
       <use xlink:href="#DejaVuSans-32"/>
       <use xlink:href="#DejaVuSans-30" x="63.623047"/>
       <use xlink:href="#DejaVuSans-30" x="127.246094"/>
      </g>
     </g>
    </g>
    <g id="xtick_3">
     <g id="line2d_5">
      <path d="M 164.127779 239.76 
L 164.127779 37.296 
" clip-path="url(#p3bdb1f92c9)" style="fill: none; stroke-dasharray: 2.96,1.28; stroke-dashoffset: 0; stroke: #b0b0b0; stroke-opacity: 0.4; stroke-width: 0.8"/>
     </g>
     <g id="line2d_6">
      <g>
       <use xlink:href="#mc480eb4938" x="164.127779" y="239.76" style="stroke: #000000; stroke-width: 0.8"/>
      </g>
     </g>
     <g id="text_3">
      <!-- 400 -->
      <g transform="translate(154.584029 254.358437) scale(0.1 -0.1)">
       <defs>
        <path id="DejaVuSans-34" d="M 2419 4116 
L 825 1625 
L 2419 1625 
L 2419 4116 
z
M 2253 4666 
L 3047 4666 
L 3047 1625 
L 3713 1625 
L 3713 1100 
L 3047 1100 
L 3047 0 
L 2419 0 
L 2419 1100 
L 313 1100 
L 313 1709 
L 2253 4666 
z
" transform="scale(0.015625)"/>
       </defs>
       <use xlink:href="#DejaVuSans-34"/>
       <use xlink:href="#DejaVuSans-30" x="63.623047"/>
       <use xlink:href="#DejaVuSans-30" x="127.246094"/>
      </g>
     </g>
    </g>
    <g id="xtick_4">
     <g id="line2d_7">
      <path d="M 214.90583 239.76 
L 214.90583 37.296 
" clip-path="url(#p3bdb1f92c9)" style="fill: none; stroke-dasharray: 2.96,1.28; stroke-dashoffset: 0; stroke: #b0b0b0; stroke-opacity: 0.4; stroke-width: 0.8"/>
     </g>
     <g id="line2d_8">
      <g>
       <use xlink:href="#mc480eb4938" x="214.90583" y="239.76" style="stroke: #000000; stroke-width: 0.8"/>
      </g>
     </g>
     <g id="text_4">
      <!-- 600 -->
      <g transform="translate(205.36208 254.358437) scale(0.1 -0.1)">
       <defs>
        <path id="DejaVuSans-36" d="M 2113 2584 
Q 1688 2584 1439 2293 
Q 1191 2003 1191 1497 
Q 1191 994 1439 701 
Q 1688 409 2113 409 
Q 2538 409 2786 701 
Q 3034 994 3034 1497 
Q 3034 2003 2786 2293 
Q 2538 2584 2113 2584 
z
M 3366 4563 
L 3366 3988 
Q 3128 4100 2886 4159 
Q 2644 4219 2406 4219 
Q 1781 4219 1451 3797 
Q 1122 3375 1075 2522 
Q 1259 2794 1537 2939 
Q 1816 3084 2150 3084 
Q 2853 3084 3261 2657 
Q 3669 2231 3669 1497 
Q 3669 778 3244 343 
Q 2819 -91 2113 -91 
Q 1303 -91 875 529 
Q 447 1150 447 2328 
Q 447 3434 972 4092 
Q 1497 4750 2381 4750 
Q 2619 4750 2861 4703 
Q 3103 4656 3366 4563 
z
" transform="scale(0.015625)"/>
       </defs>
       <use xlink:href="#DejaVuSans-36"/>
       <use xlink:href="#DejaVuSans-30" x="63.623047"/>
       <use xlink:href="#DejaVuSans-30" x="127.246094"/>
      </g>
     </g>
    </g>
    <g id="xtick_5">
     <g id="line2d_9">
      <path d="M 265.683881 239.76 
L 265.683881 37.296 
" clip-path="url(#p3bdb1f92c9)" style="fill: none; stroke-dasharray: 2.96,1.28; stroke-dashoffset: 0; stroke: #b0b0b0; stroke-opacity: 0.4; stroke-width: 0.8"/>
     </g>
     <g id="line2d_10">
      <g>
       <use xlink:href="#mc480eb4938" x="265.683881" y="239.76" style="stroke: #000000; stroke-width: 0.8"/>
      </g>
     </g>
     <g id="text_5">
      <!-- 800 -->
      <g transform="translate(256.140131 254.358437) scale(0.1 -0.1)">
       <defs>
        <path id="DejaVuSans-38" d="M 2034 2216 
Q 1584 2216 1326 1975 
Q 1069 1734 1069 1313 
Q 1069 891 1326 650 
Q 1584 409 2034 409 
Q 2484 409 2743 651 
Q 3003 894 3003 1313 
Q 3003 1734 2745 1975 
Q 2488 2216 2034 2216 
z
M 1403 2484 
Q 997 2584 770 2862 
Q 544 3141 544 3541 
Q 544 4100 942 4425 
Q 1341 4750 2034 4750 
Q 2731 4750 3128 4425 
Q 3525 4100 3525 3541 
Q 3525 3141 3298 2862 
Q 3072 2584 2669 2484 
Q 3125 2378 3379 2068 
Q 3634 1759 3634 1313 
Q 3634 634 3220 271 
Q 2806 -91 2034 -91 
Q 1263 -91 848 271 
Q 434 634 434 1313 
Q 434 1759 690 2068 
Q 947 2378 1403 2484 
z
M 1172 3481 
Q 1172 3119 1398 2916 
Q 1625 2713 2034 2713 
Q 2441 2713 2670 2916 
Q 2900 3119 2900 3481 
Q 2900 3844 2670 4047 
Q 2441 4250 2034 4250 
Q 1625 4250 1398 4047 
Q 1172 3844 1172 3481 
z
" transform="scale(0.015625)"/>
       </defs>
       <use xlink:href="#DejaVuSans-38"/>
       <use xlink:href="#DejaVuSans-30" x="63.623047"/>
       <use xlink:href="#DejaVuSans-30" x="127.246094"/>
      </g>
     </g>
    </g>
    <g id="xtick_6">
     <g id="line2d_11">
      <path d="M 316.461932 239.76 
L 316.461932 37.296 
" clip-path="url(#p3bdb1f92c9)" style="fill: none; stroke-dasharray: 2.96,1.28; stroke-dashoffset: 0; stroke: #b0b0b0; stroke-opacity: 0.4; stroke-width: 0.8"/>
     </g>
     <g id="line2d_12">
      <g>
       <use xlink:href="#mc480eb4938" x="316.461932" y="239.76" style="stroke: #000000; stroke-width: 0.8"/>
      </g>
     </g>
     <g id="text_6">
      <!-- 1000 -->
      <g transform="translate(303.736932 254.358437) scale(0.1 -0.1)">
       <defs>
        <path id="DejaVuSans-31" d="M 794 531 
L 1825 531 
L 1825 4091 
L 703 3866 
L 703 4441 
L 1819 4666 
L 2450 4666 
L 2450 531 
L 3481 531 
L 3481 0 
L 794 0 
L 794 531 
z
" transform="scale(0.015625)"/>
       </defs>
       <use xlink:href="#DejaVuSans-31"/>
       <use xlink:href="#DejaVuSans-30" x="63.623047"/>
       <use xlink:href="#DejaVuSans-30" x="127.246094"/>
       <use xlink:href="#DejaVuSans-30" x="190.869141"/>
      </g>
     </g>
    </g>
    <g id="text_7">
     <!-- Epochs -->
     <g transform="translate(171.728125 268.036562) scale(0.1 -0.1)">
      <defs>
       <path id="DejaVuSans-45" d="M 628 4666 
L 3578 4666 
L 3578 4134 
L 1259 4134 
L 1259 2753 
L 3481 2753 
L 3481 2222 
L 1259 2222 
L 1259 531 
L 3634 531 
L 3634 0 
L 628 0 
L 628 4666 
z
" transform="scale(0.015625)"/>
       <path id="DejaVuSans-70" d="M 1159 525 
L 1159 -1331 
L 581 -1331 
L 581 3500 
L 1159 3500 
L 1159 2969 
Q 1341 3281 1617 3432 
Q 1894 3584 2278 3584 
Q 2916 3584 3314 3078 
Q 3713 2572 3713 1747 
Q 3713 922 3314 415 
Q 2916 -91 2278 -91 
Q 1894 -91 1617 61 
Q 1341 213 1159 525 
z
M 3116 1747 
Q 3116 2381 2855 2742 
Q 2594 3103 2138 3103 
Q 1681 3103 1420 2742 
Q 1159 2381 1159 1747 
Q 1159 1113 1420 752 
Q 1681 391 2138 391 
Q 2594 391 2855 752 
Q 3116 1113 3116 1747 
z
" transform="scale(0.015625)"/>
       <path id="DejaVuSans-6f" d="M 1959 3097 
Q 1497 3097 1228 2736 
Q 959 2375 959 1747 
Q 959 1119 1226 758 
Q 1494 397 1959 397 
Q 2419 397 2687 759 
Q 2956 1122 2956 1747 
Q 2956 2369 2687 2733 
Q 2419 3097 1959 3097 
z
M 1959 3584 
Q 2709 3584 3137 3096 
Q 3566 2609 3566 1747 
Q 3566 888 3137 398 
Q 2709 -91 1959 -91 
Q 1206 -91 779 398 
Q 353 888 353 1747 
Q 353 2609 779 3096 
Q 1206 3584 1959 3584 
z
" transform="scale(0.015625)"/>
       <path id="DejaVuSans-63" d="M 3122 3366 
L 3122 2828 
Q 2878 2963 2633 3030 
Q 2388 3097 2138 3097 
Q 1578 3097 1268 2742 
Q 959 2388 959 1747 
Q 959 1106 1268 751 
Q 1578 397 2138 397 
Q 2388 397 2633 464 
Q 2878 531 3122 666 
L 3122 134 
Q 2881 22 2623 -34 
Q 2366 -91 2075 -91 
Q 1284 -91 818 406 
Q 353 903 353 1747 
Q 353 2603 823 3093 
Q 1294 3584 2113 3584 
Q 2378 3584 2631 3529 
Q 2884 3475 3122 3366 
z
" transform="scale(0.015625)"/>
       <path id="DejaVuSans-68" d="M 3513 2113 
L 3513 0 
L 2938 0 
L 2938 2094 
Q 2938 2591 2744 2837 
Q 2550 3084 2163 3084 
Q 1697 3084 1428 2787 
Q 1159 2491 1159 1978 
L 1159 0 
L 581 0 
L 581 4863 
L 1159 4863 
L 1159 2956 
Q 1366 3272 1645 3428 
Q 1925 3584 2291 3584 
Q 2894 3584 3203 3211 
Q 3513 2838 3513 2113 
z
" transform="scale(0.015625)"/>
       <path id="DejaVuSans-73" d="M 2834 3397 
L 2834 2853 
Q 2591 2978 2328 3040 
Q 2066 3103 1784 3103 
Q 1356 3103 1142 2972 
Q 928 2841 928 2578 
Q 928 2378 1081 2264 
Q 1234 2150 1697 2047 
L 1894 2003 
Q 2506 1872 2764 1633 
Q 3022 1394 3022 966 
Q 3022 478 2636 193 
Q 2250 -91 1575 -91 
Q 1294 -91 989 -36 
Q 684 19 347 128 
L 347 722 
Q 666 556 975 473 
Q 1284 391 1588 391 
Q 1994 391 2212 530 
Q 2431 669 2431 922 
Q 2431 1156 2273 1281 
Q 2116 1406 1581 1522 
L 1381 1569 
Q 847 1681 609 1914 
Q 372 2147 372 2553 
Q 372 3047 722 3315 
Q 1072 3584 1716 3584 
Q 2034 3584 2315 3537 
Q 2597 3491 2834 3397 
z
" transform="scale(0.015625)"/>
      </defs>
      <use xlink:href="#DejaVuSans-45"/>
      <use xlink:href="#DejaVuSans-70" x="63.183594"/>
      <use xlink:href="#DejaVuSans-6f" x="126.660156"/>
      <use xlink:href="#DejaVuSans-63" x="187.841797"/>
      <use xlink:href="#DejaVuSans-68" x="242.822266"/>
      <use xlink:href="#DejaVuSans-73" x="306.201172"/>
     </g>
    </g>
   </g>
   <g id="matplotlib.axis_2">
    <g id="ytick_1">
     <g id="line2d_13">
      <path d="M 50.14375 230.414294 
L 329.14375 230.414294 
" clip-path="url(#p3bdb1f92c9)" style="fill: none; stroke-dasharray: 2.96,1.28; stroke-dashoffset: 0; stroke: #b0b0b0; stroke-opacity: 0.4; stroke-width: 0.8"/>
     </g>
     <g id="line2d_14">
      <defs>
       <path id="m406b99bca5" d="M 0 0 
L -3.5 0 
" style="stroke: #000000; stroke-width: 0.8"/>
      </defs>
      <g>
       <use xlink:href="#m406b99bca5" x="50.14375" y="230.414294" style="stroke: #000000; stroke-width: 0.8"/>
      </g>
     </g>
     <g id="text_8">
      <!-- 0.50 -->
      <g transform="translate(20.878125 234.213512) scale(0.1 -0.1)">
       <defs>
        <path id="DejaVuSans-2e" d="M 684 794 
L 1344 794 
L 1344 0 
L 684 0 
L 684 794 
z
" transform="scale(0.015625)"/>
        <path id="DejaVuSans-35" d="M 691 4666 
L 3169 4666 
L 3169 4134 
L 1269 4134 
L 1269 2991 
Q 1406 3038 1543 3061 
Q 1681 3084 1819 3084 
Q 2600 3084 3056 2656 
Q 3513 2228 3513 1497 
Q 3513 744 3044 326 
Q 2575 -91 1722 -91 
Q 1428 -91 1123 -41 
Q 819 9 494 109 
L 494 744 
Q 775 591 1075 516 
Q 1375 441 1709 441 
Q 2250 441 2565 725 
Q 2881 1009 2881 1497 
Q 2881 1984 2565 2268 
Q 2250 2553 1709 2553 
Q 1456 2553 1204 2497 
Q 953 2441 691 2322 
L 691 4666 
z
" transform="scale(0.015625)"/>
       </defs>
       <use xlink:href="#DejaVuSans-30"/>
       <use xlink:href="#DejaVuSans-2e" x="63.623047"/>
       <use xlink:href="#DejaVuSans-35" x="95.410156"/>
       <use xlink:href="#DejaVuSans-30" x="159.033203"/>
      </g>
     </g>
    </g>
    <g id="ytick_2">
     <g id="line2d_15">
      <path d="M 50.14375 205.09737 
L 329.14375 205.09737 
" clip-path="url(#p3bdb1f92c9)" style="fill: none; stroke-dasharray: 2.96,1.28; stroke-dashoffset: 0; stroke: #b0b0b0; stroke-opacity: 0.4; stroke-width: 0.8"/>
     </g>
     <g id="line2d_16">
      <g>
       <use xlink:href="#m406b99bca5" x="50.14375" y="205.09737" style="stroke: #000000; stroke-width: 0.8"/>
      </g>
     </g>
     <g id="text_9">
      <!-- 0.55 -->
      <g transform="translate(20.878125 208.896589) scale(0.1 -0.1)">
       <use xlink:href="#DejaVuSans-30"/>
       <use xlink:href="#DejaVuSans-2e" x="63.623047"/>
       <use xlink:href="#DejaVuSans-35" x="95.410156"/>
       <use xlink:href="#DejaVuSans-35" x="159.033203"/>
      </g>
     </g>
    </g>
    <g id="ytick_3">
     <g id="line2d_17">
      <path d="M 50.14375 179.780447 
L 329.14375 179.780447 
" clip-path="url(#p3bdb1f92c9)" style="fill: none; stroke-dasharray: 2.96,1.28; stroke-dashoffset: 0; stroke: #b0b0b0; stroke-opacity: 0.4; stroke-width: 0.8"/>
     </g>
     <g id="line2d_18">
      <g>
       <use xlink:href="#m406b99bca5" x="50.14375" y="179.780447" style="stroke: #000000; stroke-width: 0.8"/>
      </g>
     </g>
     <g id="text_10">
      <!-- 0.60 -->
      <g transform="translate(20.878125 183.579666) scale(0.1 -0.1)">
       <use xlink:href="#DejaVuSans-30"/>
       <use xlink:href="#DejaVuSans-2e" x="63.623047"/>
       <use xlink:href="#DejaVuSans-36" x="95.410156"/>
       <use xlink:href="#DejaVuSans-30" x="159.033203"/>
      </g>
     </g>
    </g>
    <g id="ytick_4">
     <g id="line2d_19">
      <path d="M 50.14375 154.463524 
L 329.14375 154.463524 
" clip-path="url(#p3bdb1f92c9)" style="fill: none; stroke-dasharray: 2.96,1.28; stroke-dashoffset: 0; stroke: #b0b0b0; stroke-opacity: 0.4; stroke-width: 0.8"/>
     </g>
     <g id="line2d_20">
      <g>
       <use xlink:href="#m406b99bca5" x="50.14375" y="154.463524" style="stroke: #000000; stroke-width: 0.8"/>
      </g>
     </g>
     <g id="text_11">
      <!-- 0.65 -->
      <g transform="translate(20.878125 158.262742) scale(0.1 -0.1)">
       <use xlink:href="#DejaVuSans-30"/>
       <use xlink:href="#DejaVuSans-2e" x="63.623047"/>
       <use xlink:href="#DejaVuSans-36" x="95.410156"/>
       <use xlink:href="#DejaVuSans-35" x="159.033203"/>
      </g>
     </g>
    </g>
    <g id="ytick_5">
     <g id="line2d_21">
      <path d="M 50.14375 129.1466 
L 329.14375 129.1466 
" clip-path="url(#p3bdb1f92c9)" style="fill: none; stroke-dasharray: 2.96,1.28; stroke-dashoffset: 0; stroke: #b0b0b0; stroke-opacity: 0.4; stroke-width: 0.8"/>
     </g>
     <g id="line2d_22">
      <g>
       <use xlink:href="#m406b99bca5" x="50.14375" y="129.1466" style="stroke: #000000; stroke-width: 0.8"/>
      </g>
     </g>
     <g id="text_12">
      <!-- 0.70 -->
      <g transform="translate(20.878125 132.945819) scale(0.1 -0.1)">
       <defs>
        <path id="DejaVuSans-37" d="M 525 4666 
L 3525 4666 
L 3525 4397 
L 1831 0 
L 1172 0 
L 2766 4134 
L 525 4134 
L 525 4666 
z
" transform="scale(0.015625)"/>
       </defs>
       <use xlink:href="#DejaVuSans-30"/>
       <use xlink:href="#DejaVuSans-2e" x="63.623047"/>
       <use xlink:href="#DejaVuSans-37" x="95.410156"/>
       <use xlink:href="#DejaVuSans-30" x="159.033203"/>
      </g>
     </g>
    </g>
    <g id="ytick_6">
     <g id="line2d_23">
      <path d="M 50.14375 103.829677 
L 329.14375 103.829677 
" clip-path="url(#p3bdb1f92c9)" style="fill: none; stroke-dasharray: 2.96,1.28; stroke-dashoffset: 0; stroke: #b0b0b0; stroke-opacity: 0.4; stroke-width: 0.8"/>
     </g>
     <g id="line2d_24">
      <g>
       <use xlink:href="#m406b99bca5" x="50.14375" y="103.829677" style="stroke: #000000; stroke-width: 0.8"/>
      </g>
     </g>
     <g id="text_13">
      <!-- 0.75 -->
      <g transform="translate(20.878125 107.628896) scale(0.1 -0.1)">
       <use xlink:href="#DejaVuSans-30"/>
       <use xlink:href="#DejaVuSans-2e" x="63.623047"/>
       <use xlink:href="#DejaVuSans-37" x="95.410156"/>
       <use xlink:href="#DejaVuSans-35" x="159.033203"/>
      </g>
     </g>
    </g>
    <g id="ytick_7">
     <g id="line2d_25">
      <path d="M 50.14375 78.512754 
L 329.14375 78.512754 
" clip-path="url(#p3bdb1f92c9)" style="fill: none; stroke-dasharray: 2.96,1.28; stroke-dashoffset: 0; stroke: #b0b0b0; stroke-opacity: 0.4; stroke-width: 0.8"/>
     </g>
     <g id="line2d_26">
      <g>
       <use xlink:href="#m406b99bca5" x="50.14375" y="78.512754" style="stroke: #000000; stroke-width: 0.8"/>
      </g>
     </g>
     <g id="text_14">
      <!-- 0.80 -->
      <g transform="translate(20.878125 82.311972) scale(0.1 -0.1)">
       <use xlink:href="#DejaVuSans-30"/>
       <use xlink:href="#DejaVuSans-2e" x="63.623047"/>
       <use xlink:href="#DejaVuSans-38" x="95.410156"/>
       <use xlink:href="#DejaVuSans-30" x="159.033203"/>
      </g>
     </g>
    </g>
    <g id="ytick_8">
     <g id="line2d_27">
      <path d="M 50.14375 53.19583 
L 329.14375 53.19583 
" clip-path="url(#p3bdb1f92c9)" style="fill: none; stroke-dasharray: 2.96,1.28; stroke-dashoffset: 0; stroke: #b0b0b0; stroke-opacity: 0.4; stroke-width: 0.8"/>
     </g>
     <g id="line2d_28">
      <g>
       <use xlink:href="#m406b99bca5" x="50.14375" y="53.19583" style="stroke: #000000; stroke-width: 0.8"/>
      </g>
     </g>
     <g id="text_15">
      <!-- 0.85 -->
      <g transform="translate(20.878125 56.995049) scale(0.1 -0.1)">
       <use xlink:href="#DejaVuSans-30"/>
       <use xlink:href="#DejaVuSans-2e" x="63.623047"/>
       <use xlink:href="#DejaVuSans-38" x="95.410156"/>
       <use xlink:href="#DejaVuSans-35" x="159.033203"/>
      </g>
     </g>
    </g>
    <g id="text_16">
     <!-- Accuracy -->
     <g transform="translate(14.798438 161.356125) rotate(-90) scale(0.1 -0.1)">
      <defs>
       <path id="DejaVuSans-41" d="M 2188 4044 
L 1331 1722 
L 3047 1722 
L 2188 4044 
z
M 1831 4666 
L 2547 4666 
L 4325 0 
L 3669 0 
L 3244 1197 
L 1141 1197 
L 716 0 
L 50 0 
L 1831 4666 
z
" transform="scale(0.015625)"/>
       <path id="DejaVuSans-75" d="M 544 1381 
L 544 3500 
L 1119 3500 
L 1119 1403 
Q 1119 906 1312 657 
Q 1506 409 1894 409 
Q 2359 409 2629 706 
Q 2900 1003 2900 1516 
L 2900 3500 
L 3475 3500 
L 3475 0 
L 2900 0 
L 2900 538 
Q 2691 219 2414 64 
Q 2138 -91 1772 -91 
Q 1169 -91 856 284 
Q 544 659 544 1381 
z
M 1991 3584 
L 1991 3584 
z
" transform="scale(0.015625)"/>
       <path id="DejaVuSans-72" d="M 2631 2963 
Q 2534 3019 2420 3045 
Q 2306 3072 2169 3072 
Q 1681 3072 1420 2755 
Q 1159 2438 1159 1844 
L 1159 0 
L 581 0 
L 581 3500 
L 1159 3500 
L 1159 2956 
Q 1341 3275 1631 3429 
Q 1922 3584 2338 3584 
Q 2397 3584 2469 3576 
Q 2541 3569 2628 3553 
L 2631 2963 
z
" transform="scale(0.015625)"/>
       <path id="DejaVuSans-61" d="M 2194 1759 
Q 1497 1759 1228 1600 
Q 959 1441 959 1056 
Q 959 750 1161 570 
Q 1363 391 1709 391 
Q 2188 391 2477 730 
Q 2766 1069 2766 1631 
L 2766 1759 
L 2194 1759 
z
M 3341 1997 
L 3341 0 
L 2766 0 
L 2766 531 
Q 2569 213 2275 61 
Q 1981 -91 1556 -91 
Q 1019 -91 701 211 
Q 384 513 384 1019 
Q 384 1609 779 1909 
Q 1175 2209 1959 2209 
L 2766 2209 
L 2766 2266 
Q 2766 2663 2505 2880 
Q 2244 3097 1772 3097 
Q 1472 3097 1187 3025 
Q 903 2953 641 2809 
L 641 3341 
Q 956 3463 1253 3523 
Q 1550 3584 1831 3584 
Q 2591 3584 2966 3190 
Q 3341 2797 3341 1997 
z
" transform="scale(0.015625)"/>
       <path id="DejaVuSans-79" d="M 2059 -325 
Q 1816 -950 1584 -1140 
Q 1353 -1331 966 -1331 
L 506 -1331 
L 506 -850 
L 844 -850 
Q 1081 -850 1212 -737 
Q 1344 -625 1503 -206 
L 1606 56 
L 191 3500 
L 800 3500 
L 1894 763 
L 2988 3500 
L 3597 3500 
L 2059 -325 
z
" transform="scale(0.015625)"/>
      </defs>
      <use xlink:href="#DejaVuSans-41"/>
      <use xlink:href="#DejaVuSans-63" x="66.658203"/>
      <use xlink:href="#DejaVuSans-63" x="121.638672"/>
      <use xlink:href="#DejaVuSans-75" x="176.619141"/>
      <use xlink:href="#DejaVuSans-72" x="239.998047"/>
      <use xlink:href="#DejaVuSans-61" x="281.111328"/>
      <use xlink:href="#DejaVuSans-63" x="342.390625"/>
      <use xlink:href="#DejaVuSans-79" x="397.371094"/>
     </g>
    </g>
   </g>
   <g id="line2d_29">
    <path d="M 62.825568 229.985917 
L 63.079458 230.557091 
L 63.333349 219.847719 
L 63.587239 218.990966 
L 63.841129 217.420271 
L 64.095019 214.850011 
L 64.85669 166.872094 
L 65.11058 164.016269 
L 65.364471 146.167352 
L 65.618361 143.311497 
L 65.872251 133.030517 
L 66.126141 147.166887 
L 66.633922 116.752293 
L 66.887812 129.032375 
L 67.141702 116.038352 
L 67.395593 116.895106 
L 67.649483 115.752758 
L 67.903373 116.466729 
L 68.157264 112.04018 
L 68.411154 110.897862 
L 68.665044 110.469486 
L 68.918934 108.042038 
L 69.172825 107.470849 
L 69.426715 105.328995 
L 69.680605 98.903375 
L 69.934495 104.757806 
L 70.442276 102.473171 
L 70.696166 97.90384 
L 70.950056 97.475463 
L 71.203947 99.046158 
L 71.457837 98.903375 
L 71.711727 100.045693 
L 71.965617 94.191262 
L 72.219508 95.476392 
L 72.727288 88.194019 
L 72.981178 92.049379 
L 73.235069 91.335438 
L 73.488959 93.191726 
L 73.742849 85.909353 
L 73.996739 89.336336 
L 74.25063 89.621931 
L 74.50452 86.480512 
L 74.75841 89.050772 
L 75.0123 89.621931 
L 75.266191 87.62286 
L 75.520081 82.767934 
L 76.027861 87.765642 
L 76.789532 79.626515 
L 77.043422 83.910282 
L 77.297313 82.339557 
L 77.551203 84.909817 
L 77.805093 86.194947 
L 78.058983 85.195382 
L 78.312874 79.769327 
L 78.566764 85.195382 
L 78.820654 79.340951 
L 79.074544 78.912574 
L 79.328435 80.054892 
L 79.582325 78.769792 
L 79.836215 81.911181 
L 80.090105 77.199067 
L 80.343996 85.480976 
L 80.597886 82.339557 
L 80.851776 84.624223 
L 81.105666 73.200925 
L 81.359557 78.484197 
L 81.613447 77.341849 
L 81.867337 75.057214 
L 82.121227 78.912574 
L 82.375118 78.912574 
L 82.629008 79.626515 
L 82.882898 81.19724 
L 83.136788 76.770691 
L 83.390679 80.197704 
L 83.644569 75.628373 
L 83.898459 77.199067 
L 84.15235 75.913937 
L 84.40624 76.627908 
L 84.66013 75.342778 
L 84.91402 76.770691 
L 85.167911 72.486954 
L 85.421801 72.344172 
L 85.675691 78.341415 
L 85.929581 77.627444 
L 86.183472 77.484662 
L 86.437362 73.343707 
L 86.691252 77.484662 
L 86.945142 72.344172 
L 87.199033 74.914402 
L 87.960703 67.632058 
L 88.214594 69.202753 
L 88.468484 69.488347 
L 88.722374 67.203682 
L 88.976264 68.631594 
L 89.230155 67.060869 
L 89.484045 71.059042 
L 89.737935 66.918087 
L 89.991825 70.630665 
L 90.245716 65.775769 
L 90.499606 69.488347 
L 90.753496 64.919016 
L 91.007386 69.202753 
L 91.261277 70.202288 
L 91.769057 67.346464 
L 92.022947 72.629736 
L 92.276838 66.48971 
L 92.530728 66.632493 
L 92.784618 68.345999 
L 93.038508 68.203217 
L 93.292399 69.916694 
L 93.546289 70.202288 
L 93.800179 70.773447 
L 94.30796 64.919016 
L 94.81574 68.345999 
L 95.06963 65.632957 
L 95.323521 67.060869 
L 95.577411 66.775305 
L 95.831301 70.202288 
L 96.085191 68.488782 
L 96.339082 68.631594 
L 96.592972 70.202288 
L 96.846862 66.204146 
L 97.100752 69.202753 
L 97.354643 67.346464 
L 97.608533 70.202288 
L 97.862423 62.777133 
L 98.116313 65.632957 
L 98.370204 62.63435 
L 98.624094 63.776668 
L 98.877984 66.346928 
L 99.131874 66.061334 
L 99.385765 68.917158 
L 99.639655 68.488782 
L 99.893545 60.778062 
L 100.147436 64.919016 
L 100.401326 62.348756 
L 100.655216 63.491104 
L 100.909106 66.346928 
L 101.162997 64.347857 
L 101.416887 58.636178 
L 101.670777 64.776204 
L 101.924667 62.63435 
L 102.178558 64.633422 
L 102.432448 60.920844 
L 102.686338 65.20458 
L 102.940228 65.347393 
L 103.701899 58.350614 
L 103.955789 66.346928 
L 104.20968 58.350614 
L 104.46357 64.062263 
L 104.71746 64.347857 
L 104.97135 66.061334 
L 105.225241 65.061798 
L 105.479131 58.493396 
L 105.733021 58.493396 
L 105.986911 65.061798 
L 106.240802 62.063192 
L 106.494692 65.20458 
L 106.748582 61.920379 
L 107.002472 66.48971 
L 107.256363 66.346928 
L 107.510253 62.205974 
L 107.764143 63.348291 
L 108.018033 61.492003 
L 108.271924 63.919481 
L 108.525814 64.776204 
L 108.779704 63.919481 
L 109.033594 65.061798 
L 109.287485 58.065019 
L 109.541375 64.062263 
L 109.795265 61.34922 
L 110.049155 61.920379 
L 110.303046 57.922237 
L 110.556936 63.205509 
L 110.810826 65.20458 
L 111.064716 58.636178 
L 111.572497 63.919481 
L 111.826387 63.491104 
L 112.334168 59.635714 
L 112.588058 56.351513 
L 112.841948 60.06409 
L 113.095838 57.065484 
L 113.603619 63.205509 
L 113.857509 60.635279 
L 114.111399 60.349685 
L 114.36529 58.77899 
L 114.61918 59.635714 
L 114.87307 59.350149 
L 115.12696 62.063192 
L 115.380851 58.636178 
L 115.634741 57.636643 
L 115.888631 59.207337 
L 116.142521 54.209659 
L 116.396412 55.923136 
L 116.904192 65.347393 
L 117.158083 58.921773 
L 117.411973 57.351048 
L 117.665863 60.920844 
L 117.919753 59.492931 
L 118.173644 59.778526 
L 118.427534 58.921773 
L 118.681424 58.636178 
L 118.935314 64.633422 
L 119.189205 62.919915 
L 119.443095 54.066847 
L 119.696985 59.635714 
L 119.950875 55.923136 
L 120.204766 60.492467 
L 120.458656 61.777597 
L 120.712546 61.492003 
L 120.966436 57.208266 
L 121.220327 54.9236 
L 121.728107 60.492467 
L 121.981997 60.206903 
L 122.235888 60.492467 
L 122.489778 63.491104 
L 122.743668 57.49386 
L 122.997558 63.205509 
L 123.251449 58.493396 
L 123.505339 57.065484 
L 123.759229 59.635714 
L 124.013119 58.350614 
L 124.26701 62.063192 
L 124.77479 59.064555 
L 125.02868 60.492467 
L 125.282571 59.350149 
L 125.536461 62.63435 
L 125.790351 54.066847 
L 126.044241 56.351513 
L 126.298132 53.495688 
L 126.552022 56.779889 
L 126.805912 56.922702 
L 127.059802 55.780354 
L 127.313693 56.351513 
L 127.567583 57.922237 
L 127.821473 54.209659 
L 128.075363 58.207801 
L 128.329254 57.351048 
L 128.583144 58.065019 
L 128.837034 57.922237 
L 129.090924 60.206903 
L 129.344815 54.495224 
L 129.598705 61.34922 
L 129.852595 58.636178 
L 130.106485 59.350149 
L 130.360376 52.496153 
L 130.614266 54.066847 
L 130.868156 62.205974 
L 131.122046 57.922237 
L 131.375937 57.49386 
L 131.629827 55.066413 
L 131.883717 58.350614 
L 132.137607 56.351513 
L 132.645388 59.492931 
L 132.899278 59.350149 
L 133.153169 56.922702 
L 133.407059 55.637571 
L 133.660949 62.348756 
L 134.16873 55.351977 
L 134.9304 59.064555 
L 135.184291 53.63847 
L 135.438181 57.636643 
L 135.692071 55.780354 
L 135.945961 59.492931 
L 136.199852 59.921308 
L 136.453742 59.350149 
L 136.707632 56.065948 
L 136.961522 57.49386 
L 137.469303 54.495224 
L 137.723193 54.352441 
L 137.977083 56.779889 
L 138.230974 56.20873 
L 138.738754 53.067311 
L 138.992644 55.209195 
L 139.246535 54.638036 
L 139.754315 57.208266 
L 140.008205 53.067311 
L 140.262096 54.352441 
L 140.515986 56.922702 
L 140.769876 57.351048 
L 141.023766 55.351977 
L 141.277657 56.779889 
L 141.531547 55.637571 
L 141.785437 57.49386 
L 142.039327 56.779889 
L 142.293218 54.638036 
L 142.547108 56.494325 
L 142.800998 63.205509 
L 143.054888 58.350614 
L 143.308779 57.208266 
L 143.562669 55.066413 
L 144.070449 61.492003 
L 144.57823 55.494759 
L 144.83212 58.77899 
L 145.08601 58.493396 
L 145.339901 56.351513 
L 145.593791 57.49386 
L 145.847681 57.922237 
L 146.101571 56.494325 
L 146.355462 53.210124 
L 146.609352 53.210124 
L 146.863242 52.638935 
L 147.117132 54.638036 
L 147.371023 54.495224 
L 147.878803 60.06409 
L 148.132693 58.636178 
L 148.386584 58.065019 
L 148.640474 56.494325 
L 148.894364 55.637571 
L 149.148255 56.637107 
L 149.402145 54.495224 
L 149.656035 56.494325 
L 149.909925 57.065484 
L 150.163816 54.638036 
L 150.925486 60.492467 
L 151.179377 53.495688 
L 151.433267 52.781747 
L 151.687157 53.495688 
L 151.941047 58.350614 
L 152.448828 51.639399 
L 152.702718 52.638935 
L 152.956608 52.210558 
L 153.210499 61.492003 
L 153.464389 57.208266 
L 153.718279 58.065019 
L 153.972169 56.494325 
L 154.22606 49.211951 
L 154.47995 58.065019 
L 154.73384 51.924994 
L 154.98773 58.207801 
L 155.241621 53.63847 
L 155.495511 56.20873 
L 155.749401 54.780818 
L 156.003291 55.066413 
L 156.257182 53.067311 
L 156.511072 48.926357 
L 156.764962 52.35337 
L 157.018852 52.210558 
L 157.272743 52.781747 
L 157.526633 54.638036 
L 157.780523 53.63847 
L 158.288304 58.921773 
L 158.542194 55.351977 
L 158.796084 55.780354 
L 159.049974 57.351048 
L 159.303865 52.638935 
L 159.557755 56.922702 
L 159.811645 56.351513 
L 160.065535 55.494759 
L 160.319426 59.492931 
L 160.573316 55.923136 
L 160.827206 56.20873 
L 161.081096 58.493396 
L 161.334987 56.922702 
L 161.588877 54.638036 
L 161.842767 57.636643 
L 162.096657 57.065484 
L 162.350548 52.924529 
L 162.858328 55.637571 
L 163.112218 54.495224 
L 163.366109 55.351977 
L 163.619999 54.780818 
L 163.873889 54.495224 
L 164.127779 53.067311 
L 164.38167 52.781747 
L 164.63556 58.921773 
L 164.88945 58.921773 
L 165.14334 56.494325 
L 165.397231 56.351513 
L 165.651121 54.9236 
L 165.905011 54.780818 
L 166.158902 57.636643 
L 166.412792 52.35337 
L 166.666682 52.067776 
L 166.920572 54.209659 
L 167.174463 54.638036 
L 167.428353 55.780354 
L 167.936133 52.924529 
L 168.190024 54.9236 
L 168.443914 49.497546 
L 168.697804 53.495688 
L 168.951694 55.066413 
L 169.205585 52.067776 
L 169.967255 57.065484 
L 170.221146 61.777597 
L 170.475036 56.779889 
L 170.728926 58.493396 
L 170.982816 56.922702 
L 171.236707 53.067311 
L 171.490597 56.20873 
L 171.744487 54.066847 
L 171.998377 63.491104 
L 172.252268 55.494759 
L 172.506158 58.493396 
L 172.760048 56.20873 
L 173.013938 55.923136 
L 173.267829 58.493396 
L 173.521719 52.067776 
L 174.029499 56.779889 
L 174.53728 52.781747 
L 174.79117 53.067311 
L 175.04506 60.635279 
L 175.298951 54.9236 
L 175.552841 53.067311 
L 176.060621 57.49386 
L 176.568402 51.639399 
L 176.822292 51.924994 
L 177.076182 52.781747 
L 177.330073 52.924529 
L 177.583963 57.49386 
L 178.091743 49.497546 
L 178.345634 56.922702 
L 178.599524 55.351977 
L 178.853414 50.354269 
L 179.107304 53.924065 
L 179.361195 53.924065 
L 179.615085 56.922702 
L 179.868975 52.35337 
L 180.122865 54.209659 
L 180.376756 57.636643 
L 180.630646 52.781747 
L 180.884536 54.209659 
L 181.138426 57.351048 
L 181.392317 57.49386 
L 181.646207 51.496617 
L 181.900097 53.210124 
L 182.153988 50.068705 
L 182.407878 59.635714 
L 182.661768 53.781283 
L 182.915658 54.780818 
L 183.169549 57.779425 
L 183.423439 51.06824 
L 183.677329 57.922237 
L 183.931219 53.352906 
L 184.18511 52.638935 
L 184.439 58.493396 
L 184.69289 49.354734 
L 184.94678 49.925892 
L 185.200671 54.9236 
L 185.454561 54.066847 
L 185.708451 51.06824 
L 185.962341 55.066413 
L 186.216232 54.352441 
L 186.470122 57.779425 
L 186.977902 52.924529 
L 187.231793 54.638036 
L 187.485683 54.9236 
L 187.739573 52.638935 
L 188.247354 54.780818 
L 188.501244 57.49386 
L 189.009024 51.353835 
L 189.262915 51.06824 
L 189.516805 51.211022 
L 189.770695 48.783575 
L 190.024585 52.210558 
L 190.278476 58.065019 
L 190.786256 48.49798 
L 191.040146 54.495224 
L 191.294037 54.780818 
L 191.547927 56.20873 
L 192.055707 50.354269 
L 192.309598 52.638935 
L 192.817378 53.63847 
L 193.071268 49.925892 
L 193.325159 55.209195 
L 193.579049 57.208266 
L 194.086829 51.639399 
L 194.34072 53.352906 
L 194.59461 51.211022 
L 194.8485 57.208266 
L 195.10239 58.065019 
L 195.356281 50.782646 
L 195.610171 53.63847 
L 195.864061 49.925892 
L 196.117951 52.638935 
L 196.371842 53.495688 
L 196.625732 58.350614 
L 197.133512 52.067776 
L 197.387403 57.208266 
L 197.641293 54.9236 
L 197.895183 55.209195 
L 198.149074 52.35337 
L 198.402964 54.209659 
L 198.656854 55.066413 
L 198.910744 51.06824 
L 199.164635 53.495688 
L 199.418525 54.495224 
L 199.672415 53.352906 
L 199.926305 57.065484 
L 200.180196 54.352441 
L 200.434086 56.351513 
L 200.941866 57.779425 
L 201.195757 51.782181 
L 201.449647 55.351977 
L 201.703537 52.496153 
L 201.957427 52.638935 
L 202.211318 49.640328 
L 202.465208 52.638935 
L 202.719098 49.069169 
L 202.972988 55.351977 
L 203.226879 49.497546 
L 203.734659 55.780354 
L 203.988549 52.067776 
L 204.24244 53.924065 
L 204.49633 48.49798 
L 204.75022 54.9236 
L 205.00411 55.494759 
L 205.511891 52.210558 
L 205.765781 56.779889 
L 206.019671 53.63847 
L 206.273562 54.352441 
L 206.527452 52.924529 
L 206.781342 56.351513 
L 207.035232 52.781747 
L 207.289123 54.638036 
L 207.543013 47.355662 
L 207.796903 56.351513 
L 208.050793 52.35337 
L 208.304684 55.351977 
L 208.558574 53.63847 
L 208.812464 57.351048 
L 209.066354 54.780818 
L 209.320245 54.638036 
L 209.574135 54.638036 
L 209.828025 53.924065 
L 210.081915 52.210558 
L 210.335806 52.496153 
L 210.589696 54.352441 
L 210.843586 57.636643 
L 211.097476 56.637107 
L 211.351367 51.782181 
L 211.859147 53.781283 
L 212.113037 52.924529 
L 212.366928 49.640328 
L 212.620818 50.068705 
L 212.874708 54.780818 
L 213.128598 50.782646 
L 213.382489 52.35337 
L 213.636379 50.068705 
L 213.890269 54.209659 
L 214.14416 49.497546 
L 214.39805 52.781747 
L 214.65194 53.495688 
L 214.90583 50.782646 
L 215.159721 56.922702 
L 215.413611 55.494759 
L 215.667501 49.069169 
L 215.921391 53.352906 
L 216.429172 51.924994 
L 216.683062 53.067311 
L 216.936952 47.641257 
L 217.190843 51.782181 
L 217.444733 51.639399 
L 217.698623 52.067776 
L 217.952513 54.9236 
L 218.206404 55.209195 
L 218.460294 58.493396 
L 218.714184 51.353835 
L 218.968074 52.924529 
L 219.221965 52.067776 
L 219.729745 54.352441 
L 219.983635 60.349685 
L 220.237526 55.066413 
L 220.491416 54.352441 
L 220.745306 56.637107 
L 220.999196 49.78311 
L 221.253087 54.495224 
L 221.506977 52.067776 
L 221.760867 55.780354 
L 222.014757 50.925458 
L 222.268648 57.636643 
L 222.522538 56.779889 
L 222.776428 52.924529 
L 223.030318 55.351977 
L 223.284209 50.211487 
L 223.538099 54.495224 
L 223.791989 52.781747 
L 224.045879 52.638935 
L 224.29977 49.78311 
L 224.55366 53.924065 
L 225.06144 50.782646 
L 225.315331 55.780354 
L 225.569221 56.351513 
L 225.823111 51.353835 
L 226.077001 55.923136 
L 226.330892 53.495688 
L 226.584782 52.496153 
L 226.838672 55.494759 
L 227.092562 52.924529 
L 227.346453 48.49798 
L 227.600343 54.352441 
L 227.854233 51.353835 
L 228.108123 50.068705 
L 228.362014 49.640328 
L 228.615904 55.209195 
L 228.869794 51.782181 
L 229.123684 56.351513 
L 229.377575 55.780354 
L 229.885355 51.639399 
L 230.139245 52.35337 
L 230.393136 54.066847 
L 230.647026 50.639864 
L 230.900916 55.209195 
L 231.154807 55.494759 
L 231.408697 53.067311 
L 231.662587 53.924065 
L 231.916477 53.495688 
L 232.170368 54.209659 
L 232.424258 53.924065 
L 232.932038 49.925892 
L 233.439819 53.781283 
L 233.693709 55.066413 
L 233.947599 50.782646 
L 234.20149 51.353835 
L 234.45538 51.639399 
L 234.70927 52.496153 
L 234.96316 57.49386 
L 235.217051 52.781747 
L 235.470941 54.495224 
L 235.724831 57.636643 
L 236.232612 52.067776 
L 236.486502 50.639864 
L 236.994282 53.495688 
L 237.248173 50.782646 
L 237.755953 56.494325 
L 238.009843 56.494325 
L 238.517624 49.497546 
L 238.771514 54.638036 
L 239.025404 55.351977 
L 239.279295 51.639399 
L 239.533185 51.496617 
L 239.787075 51.211022 
L 240.040965 46.498909 
L 240.294856 50.068705 
L 240.548746 52.067776 
L 240.802636 51.211022 
L 241.056526 54.780818 
L 241.310417 52.496153 
L 241.564307 54.638036 
L 241.818197 52.210558 
L 242.072087 52.210558 
L 242.325978 52.496153 
L 242.579868 53.067311 
L 242.833758 56.494325 
L 243.087648 52.924529 
L 243.341539 53.067311 
L 243.595429 49.640328 
L 243.849319 55.351977 
L 244.103209 51.496617 
L 244.3571 51.353835 
L 244.61099 54.495224 
L 244.86488 50.354269 
L 245.11877 54.638036 
L 245.372661 52.781747 
L 245.626551 55.494759 
L 246.134331 49.211951 
L 246.388222 50.354269 
L 246.642112 55.923136 
L 246.896002 51.496617 
L 247.149893 53.924065 
L 247.403783 53.781283 
L 247.657673 55.637571 
L 247.911563 55.066413 
L 248.165454 53.781283 
L 248.419344 51.211022 
L 248.673234 51.353835 
L 248.927124 49.211951 
L 249.181015 53.781283 
L 249.434905 52.924529 
L 249.688795 53.352906 
L 249.942685 53.495688 
L 250.196576 52.638935 
L 250.450466 55.351977 
L 250.704356 50.925458 
L 250.958246 50.211487 
L 251.212137 55.209195 
L 251.466027 48.49798 
L 251.719917 52.924529 
L 251.973807 50.211487 
L 252.227698 54.780818 
L 252.481588 53.924065 
L 252.735478 55.923136 
L 252.989368 56.351513 
L 253.243259 58.636178 
L 253.497149 55.209195 
L 253.751039 55.780354 
L 254.004929 53.352906 
L 254.25882 52.210558 
L 254.51271 48.926357 
L 254.7666 56.20873 
L 255.02049 50.639864 
L 255.274381 52.496153 
L 255.528271 51.06824 
L 256.036051 53.352906 
L 256.289942 51.496617 
L 256.543832 50.925458 
L 256.797722 52.638935 
L 257.051612 55.209195 
L 257.305503 54.495224 
L 257.559393 49.211951 
L 258.067173 57.922237 
L 258.574954 49.497546 
L 258.828844 48.49798 
L 259.336625 59.778526 
L 259.844405 52.067776 
L 260.098295 51.639399 
L 260.352186 49.069169 
L 260.606076 48.49798 
L 260.859966 54.495224 
L 261.113856 48.355198 
L 261.367747 50.497081 
L 261.621637 53.781283 
L 261.875527 52.781747 
L 262.383308 54.495224 
L 262.637198 50.639864 
L 262.891088 56.494325 
L 263.144979 54.9236 
L 263.398869 50.354269 
L 263.652759 50.925458 
L 263.906649 48.355198 
L 264.16054 52.638935 
L 264.41443 52.35337 
L 264.66832 50.639864 
L 264.92221 53.352906 
L 265.176101 50.068705 
L 265.429991 55.351977 
L 265.683881 55.494759 
L 265.937771 51.496617 
L 266.445552 55.780354 
L 266.953332 53.781283 
L 267.207223 49.069169 
L 267.715003 56.922702 
L 267.968893 54.352441 
L 268.222784 53.781283 
L 268.730564 58.350614 
L 268.984454 50.211487 
L 269.238345 53.352906 
L 269.492235 51.353835 
L 269.746125 54.209659 
L 270.000015 53.781283 
L 270.253906 56.922702 
L 270.507796 53.495688 
L 270.761686 57.779425 
L 271.015576 54.066847 
L 271.269467 52.210558 
L 271.523357 51.211022 
L 271.777247 51.353835 
L 272.031137 56.637107 
L 272.285028 53.352906 
L 272.538918 55.637571 
L 272.792808 53.63847 
L 273.046698 53.495688 
L 273.300589 54.352441 
L 273.554479 56.065948 
L 273.808369 51.639399 
L 274.062259 54.352441 
L 274.31615 52.35337 
L 274.57004 53.781283 
L 274.82393 58.493396 
L 275.07782 53.210124 
L 275.331711 53.781283 
L 275.585601 53.352906 
L 275.839491 54.209659 
L 276.093381 54.209659 
L 276.347272 52.210558 
L 276.601162 51.353835 
L 276.855052 49.069169 
L 277.108942 54.066847 
L 277.362833 54.209659 
L 277.616723 56.351513 
L 278.378394 48.355198 
L 278.632284 51.211022 
L 278.886174 56.922702 
L 279.140064 55.494759 
L 279.393955 56.922702 
L 279.647845 55.494759 
L 279.901735 56.779889 
L 280.155626 47.21288 
L 280.409516 54.495224 
L 280.663406 54.209659 
L 280.917296 51.639399 
L 281.171187 53.352906 
L 281.425077 59.207337 
L 281.678967 52.067776 
L 281.932857 56.637107 
L 282.186748 55.494759 
L 282.440638 55.351977 
L 282.694528 54.9236 
L 282.948418 57.065484 
L 283.202309 55.351977 
L 283.456199 55.066413 
L 283.710089 49.069169 
L 283.963979 53.63847 
L 284.47176 55.923136 
L 284.72565 49.78311 
L 285.233431 55.923136 
L 285.487321 55.351977 
L 285.741211 51.496617 
L 285.995101 60.492467 
L 286.248992 49.925892 
L 286.502882 49.78311 
L 286.756772 56.351513 
L 287.010662 51.211022 
L 287.264553 56.637107 
L 287.518443 53.067311 
L 287.772333 55.209195 
L 288.026223 53.067311 
L 288.280114 54.9236 
L 288.534004 51.06824 
L 288.787894 51.639399 
L 289.041784 50.497081 
L 289.295675 53.924065 
L 289.549565 48.640793 
L 289.803455 55.209195 
L 290.057345 55.780354 
L 290.311236 52.638935 
L 290.565126 52.35337 
L 290.819016 53.067311 
L 291.326797 55.923136 
L 291.580687 55.780354 
L 291.834577 55.923136 
L 292.088467 53.63847 
L 292.342358 58.065019 
L 292.596248 50.782646 
L 292.850138 57.065484 
L 293.104028 58.207801 
L 293.357919 56.922702 
L 293.611809 50.354269 
L 293.865699 56.922702 
L 294.119589 49.497546 
L 294.37348 55.351977 
L 294.62737 49.640328 
L 295.13515 55.209195 
L 295.389041 51.211022 
L 295.642931 49.78311 
L 295.896821 52.496153 
L 296.150712 51.924994 
L 296.404602 50.497081 
L 296.658492 53.63847 
L 296.912382 55.066413 
L 297.420163 59.064555 
L 297.927943 50.211487 
L 298.181834 55.780354 
L 298.435724 54.352441 
L 298.689614 57.636643 
L 298.943504 52.35337 
L 299.197395 52.496153 
L 299.451285 48.926357 
L 299.705175 54.9236 
L 299.959065 53.352906 
L 300.212956 54.638036 
L 300.466846 53.067311 
L 300.720736 59.207337 
L 300.974626 56.494325 
L 301.482407 55.351977 
L 301.736297 52.067776 
L 301.990187 50.354269 
L 302.244078 53.495688 
L 302.497968 53.495688 
L 302.751858 52.35337 
L 303.005748 54.638036 
L 303.259639 48.640793 
L 303.513529 55.209195 
L 303.767419 49.497546 
L 304.021309 52.210558 
L 304.2752 52.924529 
L 304.52909 51.353835 
L 304.78298 53.924065 
L 305.03687 54.9236 
L 305.290761 55.209195 
L 305.544651 53.63847 
L 305.798541 53.067311 
L 306.052431 52.781747 
L 306.306322 52.924529 
L 306.560212 56.494325 
L 306.814102 54.352441 
L 307.321883 49.069169 
L 307.575773 51.924994 
L 307.829663 50.068705 
L 308.083553 53.924065 
L 308.337444 51.06824 
L 308.591334 55.209195 
L 308.845224 48.783575 
L 309.099114 54.352441 
L 309.353005 50.211487 
L 309.606895 56.351513 
L 309.860785 54.352441 
L 310.114675 51.353835 
L 310.368566 58.350614 
L 310.622456 56.065948 
L 310.876346 56.351513 
L 311.130236 53.495688 
L 311.384127 52.496153 
L 311.638017 54.9236 
L 311.891907 54.352441 
L 312.145798 48.640793 
L 312.399688 52.638935 
L 312.653578 54.352441 
L 312.907468 51.639399 
L 313.161359 57.779425 
L 313.415249 56.637107 
L 313.669139 50.211487 
L 313.923029 54.9236 
L 314.17692 49.069169 
L 314.43081 52.35337 
L 314.93859 54.9236 
L 315.192481 50.354269 
L 315.446371 58.065019 
L 315.954151 53.495688 
L 316.208042 51.639399 
L 316.461932 52.210558 
L 316.461932 52.210558 
" clip-path="url(#p3bdb1f92c9)" style="fill: none; stroke: #0000ff; stroke-width: 0.6; stroke-linecap: square"/>
   </g>
   <g id="line2d_30">
    <path d="M 62.825568 230.081165 
L 63.079458 214.424652 
L 63.333349 227.083132 
L 63.587239 228.082487 
L 63.841129 228.415585 
L 64.095019 206.762945 
L 64.34891 226.083778 
L 64.6028 216.090233 
L 64.85669 163.790824 
L 65.11058 153.131053 
L 65.364471 131.811542 
L 65.618361 166.122631 
L 65.872251 136.142057 
L 66.126141 158.460923 
L 66.380032 125.815415 
L 66.633922 150.799246 
L 66.887812 118.819964 
L 67.141702 173.784338 
L 67.395593 153.464181 
L 67.649483 110.49203 
L 67.903373 115.155674 
L 68.157264 110.49203 
L 68.411154 114.822546 
L 68.665044 116.821255 
L 68.918934 133.81025 
L 69.172825 111.158256 
L 69.426715 112.157611 
L 69.934495 104.829032 
L 70.188386 127.814124 
L 70.442276 106.82774 
L 70.696166 114.15632 
L 70.950056 98.832905 
L 71.203947 100.831614 
L 71.457837 108.160193 
L 71.711727 157.461569 
L 71.965617 111.491385 
L 72.219508 200.766848 
L 72.473398 124.81606 
L 72.727288 139.473249 
L 73.488959 89.505617 
L 73.742849 114.489448 
L 73.996739 100.498516 
L 74.25063 112.490739 
L 74.50452 135.808959 
L 74.75841 92.50368 
L 75.0123 111.824483 
L 75.266191 92.50368 
L 75.520081 101.164742 
L 75.773971 90.504971 
L 76.027861 91.171227 
L 76.281752 111.491385 
L 76.535642 156.795343 
L 76.789532 101.830968 
L 77.043422 93.836163 
L 77.551203 114.15632 
L 77.805093 107.827095 
L 78.058983 106.82774 
L 78.312874 97.167324 
L 78.566764 92.836808 
L 78.820654 97.500452 
L 79.074544 121.484899 
L 79.328435 100.831614 
L 79.582325 95.834872 
L 79.836215 94.169261 
L 80.090105 100.498516 
L 80.343996 102.830323 
L 80.597886 103.163451 
L 80.851776 99.166033 
L 81.105666 119.819318 
L 81.359557 108.826449 
L 81.613447 124.149834 
L 81.867337 101.830968 
L 82.121227 103.163451 
L 82.375118 89.505617 
L 82.629008 111.824483 
L 82.882898 93.169906 
L 83.136788 114.822546 
L 83.390679 95.168615 
L 83.644569 102.164096 
L 83.898459 98.832905 
L 84.15235 102.830323 
L 84.40624 98.166679 
L 84.66013 113.490093 
L 84.91402 94.502389 
L 85.167911 95.834872 
L 85.421801 95.834872 
L 85.675691 113.156965 
L 85.929581 99.832259 
L 86.183472 93.503034 
L 86.437362 100.831614 
L 86.691252 92.50368 
L 86.945142 110.158902 
L 87.199033 97.167324 
L 87.452923 137.141412 
L 87.706813 101.164742 
L 87.960703 91.171227 
L 88.214594 99.832259 
L 88.468484 88.173164 
L 88.722374 123.483608 
L 89.230155 96.501098 
L 89.484045 97.167324 
L 89.737935 91.837454 
L 89.991825 96.501098 
L 90.245716 107.160838 
L 90.499606 98.166679 
L 90.753496 103.163451 
L 91.007386 100.165387 
L 91.261277 95.168615 
L 91.515167 94.502389 
L 91.769057 100.498516 
L 92.022947 142.471282 
L 92.276838 134.809605 
L 92.530728 95.501743 
L 92.784618 96.834226 
L 93.038508 100.498516 
L 93.292399 91.171227 
L 93.546289 95.501743 
L 93.800179 104.829032 
L 94.054069 97.167324 
L 94.30796 96.16797 
L 94.56185 106.82774 
L 94.81574 111.158256 
L 95.06963 99.832259 
L 95.323521 110.158902 
L 95.831301 91.171227 
L 96.085191 114.489448 
L 96.339082 100.165387 
L 96.592972 109.492676 
L 96.846862 99.832259 
L 97.100752 98.832905 
L 97.354643 108.493321 
L 97.608533 98.166679 
L 97.862423 101.830968 
L 98.116313 97.83355 
L 98.370204 100.498516 
L 98.624094 118.486836 
L 98.877984 112.157611 
L 99.131874 101.830968 
L 99.385765 108.826449 
L 99.639655 100.498516 
L 99.893545 98.166679 
L 100.147436 102.164096 
L 100.401326 92.836808 
L 100.655216 94.835517 
L 100.909106 103.163451 
L 101.162997 100.165387 
L 101.416887 100.165387 
L 101.670777 101.830968 
L 101.924667 109.159547 
L 102.178558 97.83355 
L 102.432448 97.167324 
L 102.686338 116.488127 
L 102.940228 96.501098 
L 103.194119 95.834872 
L 103.448009 104.829032 
L 103.701899 100.498516 
L 103.955789 115.155674 
L 104.20968 100.831614 
L 104.46357 108.493321 
L 104.71746 98.499807 
L 104.97135 101.830968 
L 105.225241 99.166033 
L 105.479131 93.169906 
L 105.733021 104.829032 
L 105.986911 107.827095 
L 106.240802 136.142057 
L 106.494692 103.496549 
L 106.748582 95.501743 
L 107.002472 104.829032 
L 107.256363 134.476477 
L 107.510253 106.161484 
L 107.764143 99.166033 
L 108.018033 105.495258 
L 108.271924 119.48619 
L 108.525814 106.161484 
L 108.779704 105.16216 
L 109.033594 100.831614 
L 109.287485 100.831614 
L 109.541375 98.832905 
L 109.795265 94.835517 
L 110.049155 108.160193 
L 110.303046 103.163451 
L 110.556936 113.156965 
L 110.810826 103.829677 
L 111.064716 130.145961 
L 111.318607 104.829032 
L 111.572497 125.149189 
L 111.826387 104.495903 
L 112.080277 97.83355 
L 112.334168 108.826449 
L 112.588058 140.472604 
L 112.841948 110.158902 
L 113.095838 107.160838 
L 113.349729 100.831614 
L 113.603619 98.499807 
L 113.857509 105.828386 
L 114.36529 100.498516 
L 114.61918 95.168615 
L 114.87307 105.495258 
L 115.12696 99.166033 
L 115.380851 101.49787 
L 115.634741 110.49203 
L 115.888631 108.160193 
L 116.142521 102.497194 
L 116.396412 99.499161 
L 116.650302 104.495903 
L 116.904192 112.490739 
L 117.158083 101.164742 
L 117.411973 98.499807 
L 117.665863 105.495258 
L 117.919753 100.831614 
L 118.173644 115.8219 
L 118.427534 102.497194 
L 118.681424 111.491385 
L 118.935314 103.496549 
L 119.189205 103.163451 
L 119.443095 100.165387 
L 119.950875 103.496549 
L 120.204766 114.15632 
L 120.458656 100.165387 
L 120.712546 108.493321 
L 120.966436 112.157611 
L 121.220327 107.827095 
L 121.474217 118.486836 
L 121.728107 114.489448 
L 121.981997 104.162805 
L 122.235888 98.832905 
L 122.489778 101.830968 
L 122.743668 101.830968 
L 122.997558 111.491385 
L 123.251449 109.825804 
L 123.505339 103.496549 
L 123.759229 103.829677 
L 124.26701 97.83355 
L 124.5209 99.832259 
L 124.77479 105.495258 
L 125.02868 100.165387 
L 125.282571 100.165387 
L 125.536461 102.497194 
L 125.790351 109.492676 
L 126.044241 105.828386 
L 126.298132 106.161484 
L 126.805912 99.166033 
L 127.313693 106.82774 
L 127.567583 111.491385 
L 128.075363 100.831614 
L 128.329254 113.490093 
L 128.583144 104.829032 
L 128.837034 106.161484 
L 129.090924 108.826449 
L 129.598705 100.831614 
L 129.852595 113.490093 
L 130.106485 109.492676 
L 130.360376 99.832259 
L 130.614266 109.492676 
L 130.868156 99.166033 
L 131.122046 98.499807 
L 131.375937 101.49787 
L 131.629827 94.169261 
L 131.883717 105.828386 
L 132.137607 98.832905 
L 132.391498 98.499807 
L 132.645388 97.83355 
L 132.899278 122.484253 
L 133.153169 106.161484 
L 133.407059 104.162805 
L 133.660949 103.496549 
L 133.914839 99.166033 
L 134.16873 122.817382 
L 134.42262 118.153738 
L 134.67651 97.167324 
L 134.9304 100.831614 
L 135.184291 99.166033 
L 135.438181 122.817382 
L 135.692071 107.160838 
L 135.945961 105.828386 
L 136.199852 98.499807 
L 136.453742 99.166033 
L 136.707632 94.502389 
L 136.961522 98.499807 
L 137.215413 107.160838 
L 137.469303 100.165387 
L 137.723193 108.160193 
L 137.977083 107.827095 
L 138.230974 109.159547 
L 138.484864 104.495903 
L 138.738754 102.164096 
L 138.992644 108.493321 
L 139.246535 102.830323 
L 139.500425 102.497194 
L 140.515986 111.158256 
L 140.769876 110.49203 
L 141.277657 103.496549 
L 141.531547 101.164742 
L 141.785437 105.16216 
L 142.039327 104.162805 
L 142.293218 106.494612 
L 142.547108 101.49787 
L 142.800998 106.82774 
L 143.054888 120.152416 
L 143.308779 99.499161 
L 143.562669 106.161484 
L 143.816559 117.820609 
L 144.070449 100.498516 
L 144.32434 101.164742 
L 144.57823 113.156965 
L 144.83212 97.500452 
L 145.08601 102.830323 
L 145.339901 100.831614 
L 145.593791 119.48619 
L 145.847681 105.16216 
L 146.101571 105.495258 
L 146.355462 104.162805 
L 146.609352 104.829032 
L 147.117132 109.159547 
L 147.371023 108.160193 
L 147.624913 119.819318 
L 147.878803 107.160838 
L 148.132693 111.824483 
L 148.386584 102.497194 
L 148.640474 97.500452 
L 148.894364 115.488772 
L 149.148255 115.155674 
L 149.402145 106.161484 
L 149.656035 106.82774 
L 149.909925 104.829032 
L 150.163816 105.16216 
L 150.417706 102.164096 
L 150.671596 104.829032 
L 151.179377 99.499161 
L 151.433267 103.163451 
L 151.687157 104.829032 
L 151.941047 99.832259 
L 152.194938 104.495903 
L 152.448828 97.83355 
L 152.702718 120.152416 
L 152.956608 99.832259 
L 153.464389 107.160838 
L 153.718279 102.164096 
L 153.972169 110.825128 
L 154.22606 108.826449 
L 154.47995 117.154383 
L 154.98773 100.498516 
L 155.495511 109.825804 
L 155.749401 126.481671 
L 156.003291 134.143349 
L 156.257182 105.495258 
L 156.511072 101.49787 
L 156.764962 103.496549 
L 157.018852 100.831614 
L 157.272743 96.16797 
L 157.526633 103.829677 
L 157.780523 103.496549 
L 158.034413 111.158256 
L 158.288304 109.492676 
L 158.542194 95.834872 
L 158.796084 116.155029 
L 159.049974 111.824483 
L 159.303865 103.829677 
L 159.557755 142.471282 
L 159.811645 97.167324 
L 160.065535 109.492676 
L 160.319426 97.500452 
L 160.573316 104.162805 
L 160.827206 99.832259 
L 161.081096 100.831614 
L 161.334987 109.492676 
L 161.588877 100.165387 
L 161.842767 114.15632 
L 162.096657 105.16216 
L 162.350548 101.49787 
L 162.604438 99.499161 
L 162.858328 102.497194 
L 163.112218 94.835517 
L 163.366109 104.495903 
L 163.619999 108.493321 
L 163.873889 103.829677 
L 164.38167 99.499161 
L 164.63556 107.827095 
L 165.14334 99.499161 
L 165.397231 101.164742 
L 165.651121 94.502389 
L 165.905011 104.162805 
L 166.158902 106.82774 
L 166.412792 100.831614 
L 166.666682 98.832905 
L 166.920572 98.832905 
L 167.174463 106.161484 
L 167.428353 97.167324 
L 167.682243 107.160838 
L 167.936133 105.495258 
L 168.443914 95.834872 
L 168.697804 103.496549 
L 168.951694 98.499807 
L 169.205585 103.829677 
L 169.459475 126.148543 
L 169.713365 104.162805 
L 169.967255 104.495903 
L 170.221146 103.496549 
L 170.475036 97.83355 
L 170.728926 101.164742 
L 170.982816 102.497194 
L 171.236707 111.491385 
L 171.490597 105.828386 
L 171.744487 108.493321 
L 171.998377 106.82774 
L 172.252268 97.500452 
L 172.506158 108.826449 
L 172.760048 96.834226 
L 173.267829 115.155674 
L 173.521719 105.16216 
L 173.775609 102.830323 
L 174.029499 112.823837 
L 174.28339 104.162805 
L 174.53728 105.828386 
L 174.79117 108.826449 
L 175.04506 105.828386 
L 175.298951 105.495258 
L 175.552841 104.829032 
L 175.806731 107.827095 
L 176.060621 108.826449 
L 176.314512 107.160838 
L 176.568402 100.498516 
L 176.822292 97.83355 
L 177.076182 103.163451 
L 177.330073 102.830323 
L 177.583963 102.830323 
L 177.837853 103.829677 
L 178.091743 100.498516 
L 178.345634 111.491385 
L 178.599524 102.164096 
L 178.853414 102.497194 
L 179.107304 106.82774 
L 179.361195 105.828386 
L 179.615085 103.163451 
L 179.868975 103.163451 
L 180.122865 106.494612 
L 180.376756 103.496549 
L 180.630646 105.828386 
L 180.884536 102.830323 
L 181.138426 101.49787 
L 181.392317 104.495903 
L 181.646207 104.495903 
L 181.900097 96.16797 
L 182.153988 103.163451 
L 182.407878 103.829677 
L 183.169549 100.498516 
L 183.423439 97.167324 
L 183.677329 108.493321 
L 183.931219 111.158256 
L 184.18511 100.165387 
L 184.69289 102.164096 
L 184.94678 109.825804 
L 185.200671 107.160838 
L 185.454561 109.825804 
L 185.708451 104.162805 
L 185.962341 102.497194 
L 186.216232 103.496549 
L 186.470122 99.166033 
L 186.724012 97.83355 
L 186.977902 109.492676 
L 187.231793 146.801828 
L 187.485683 100.498516 
L 187.739573 104.162805 
L 187.993463 101.830968 
L 188.247354 103.163451 
L 188.501244 96.501098 
L 189.009024 107.827095 
L 189.262915 100.165387 
L 189.516805 106.494612 
L 189.770695 102.830323 
L 190.024585 105.495258 
L 190.532366 100.165387 
L 190.786256 102.164096 
L 191.040146 107.827095 
L 191.294037 104.495903 
L 191.547927 103.496549 
L 191.801817 103.829677 
L 192.055707 109.159547 
L 192.309598 95.834872 
L 192.563488 108.160193 
L 192.817378 98.499807 
L 193.071268 101.830968 
L 193.325159 114.15632 
L 193.579049 99.832259 
L 193.832939 97.83355 
L 194.086829 102.830323 
L 194.34072 103.163451 
L 194.59461 97.500452 
L 194.8485 98.166679 
L 195.356281 103.163451 
L 195.610171 94.835517 
L 195.864061 103.496549 
L 196.117951 98.499807 
L 196.371842 103.163451 
L 196.625732 99.832259 
L 196.879622 106.494612 
L 197.133512 101.164742 
L 197.387403 113.490093 
L 197.641293 102.497194 
L 197.895183 103.496549 
L 198.149074 99.166033 
L 198.402964 101.830968 
L 198.656854 102.830323 
L 198.910744 102.164096 
L 199.164635 109.825804 
L 199.418525 99.832259 
L 199.672415 100.831614 
L 199.926305 107.827095 
L 200.180196 104.162805 
L 200.434086 97.83355 
L 200.687976 111.158256 
L 200.941866 99.832259 
L 201.195757 107.493967 
L 201.449647 105.495258 
L 201.703537 107.160838 
L 202.211318 95.834872 
L 202.465208 96.834226 
L 202.719098 106.82774 
L 202.972988 103.496549 
L 203.226879 96.834226 
L 203.480769 115.8219 
L 203.734659 102.830323 
L 203.988549 104.829032 
L 204.24244 102.497194 
L 204.49633 101.830968 
L 204.75022 99.166033 
L 205.00411 101.49787 
L 205.258001 114.15632 
L 205.511891 102.497194 
L 205.765781 101.830968 
L 206.019671 103.163451 
L 206.273562 101.830968 
L 206.527452 102.830323 
L 206.781342 100.831614 
L 207.035232 102.830323 
L 207.289123 103.163451 
L 207.543013 96.16797 
L 207.796903 98.499807 
L 208.050793 103.496549 
L 208.304684 100.831614 
L 208.558574 99.832259 
L 208.812464 117.820609 
L 209.066354 105.495258 
L 209.320245 118.153738 
L 209.574135 118.486836 
L 209.828025 104.829032 
L 210.081915 103.829677 
L 210.335806 99.499161 
L 210.589696 104.495903 
L 210.843586 102.497194 
L 211.097476 103.163451 
L 211.351367 103.163451 
L 211.605257 108.493321 
L 211.859147 101.164742 
L 212.113037 100.831614 
L 212.366928 105.16216 
L 212.620818 100.498516 
L 212.874708 104.495903 
L 213.128598 97.167324 
L 213.382489 97.83355 
L 213.636379 99.832259 
L 213.890269 108.160193 
L 214.14416 100.498516 
L 214.65194 109.159547 
L 214.90583 105.828386 
L 215.159721 104.495903 
L 215.413611 109.492676 
L 215.667501 102.830323 
L 215.921391 108.826449 
L 216.175282 106.161484 
L 216.429172 101.830968 
L 216.683062 101.164742 
L 216.936952 103.496549 
L 217.190843 98.832905 
L 217.444733 103.829677 
L 217.698623 101.164742 
L 217.952513 125.482317 
L 218.206404 108.160193 
L 218.460294 103.496549 
L 218.714184 121.151771 
L 218.968074 98.499807 
L 219.221965 114.822546 
L 219.475855 103.829677 
L 219.729745 119.48619 
L 219.983635 99.832259 
L 220.237526 104.829032 
L 220.491416 115.488772 
L 220.745306 105.495258 
L 220.999196 101.830968 
L 221.253087 105.495258 
L 221.506977 101.49787 
L 221.760867 105.16216 
L 222.014757 105.828386 
L 222.268648 100.165387 
L 222.522538 106.161484 
L 222.776428 157.461569 
L 223.030318 110.825128 
L 223.284209 118.819964 
L 223.538099 101.830968 
L 223.791989 109.492676 
L 224.045879 100.165387 
L 224.29977 108.160193 
L 224.55366 97.83355 
L 224.80755 98.166679 
L 225.06144 105.495258 
L 225.315331 109.159547 
L 225.569221 98.499807 
L 225.823111 113.156965 
L 226.077001 102.164096 
L 226.330892 104.162805 
L 226.584782 97.167324 
L 226.838672 100.165387 
L 227.092562 113.156965 
L 227.346453 112.823837 
L 227.600343 101.830968 
L 227.854233 102.497194 
L 228.108123 114.489448 
L 228.362014 111.824483 
L 228.615904 102.497194 
L 228.869794 107.827095 
L 229.123684 121.151771 
L 229.377575 103.163451 
L 229.631465 96.501098 
L 229.885355 100.831614 
L 230.393136 97.500452 
L 230.647026 106.82774 
L 230.900916 105.16216 
L 231.154807 99.166033 
L 231.408697 100.165387 
L 231.662587 115.155674 
L 231.916477 114.489448 
L 232.424258 94.835517 
L 232.678148 98.832905 
L 232.932038 99.166033 
L 233.185929 103.496549 
L 233.439819 125.482317 
L 233.693709 101.164742 
L 233.947599 107.493967 
L 234.20149 98.832905 
L 234.45538 108.160193 
L 234.70927 105.16216 
L 234.96316 99.832259 
L 235.217051 102.830323 
L 235.470941 96.834226 
L 235.978721 103.496549 
L 236.232612 98.499807 
L 236.740392 103.829677 
L 236.994282 103.163451 
L 237.248173 104.495903 
L 237.502063 98.499807 
L 237.755953 108.826449 
L 238.009843 99.832259 
L 238.263734 99.499161 
L 238.517624 104.829032 
L 238.771514 97.500452 
L 239.025404 105.495258 
L 239.279295 96.16797 
L 239.533185 109.159547 
L 239.787075 106.494612 
L 240.040965 109.825804 
L 240.294856 117.154383 
L 240.548746 112.490739 
L 240.802636 112.823837 
L 241.056526 110.49203 
L 241.310417 105.16216 
L 241.564307 102.830323 
L 241.818197 108.826449 
L 242.072087 100.498516 
L 242.325978 100.498516 
L 242.579868 114.15632 
L 242.833758 107.827095 
L 243.087648 114.489448 
L 243.341539 103.163451 
L 243.595429 101.164742 
L 243.849319 103.496549 
L 244.103209 107.493967 
L 244.3571 97.83355 
L 244.61099 107.493967 
L 244.86488 107.827095 
L 245.11877 99.832259 
L 245.626551 104.829032 
L 245.880441 104.162805 
L 246.134331 100.165387 
L 246.388222 108.826449 
L 246.642112 105.495258 
L 246.896002 121.484899 
L 247.149893 98.499807 
L 247.403783 99.499161 
L 247.657673 105.495258 
L 247.911563 105.495258 
L 248.165454 102.497194 
L 248.419344 101.49787 
L 248.673234 99.166033 
L 249.181015 112.490739 
L 249.434905 101.164742 
L 249.688795 108.160193 
L 249.942685 102.830323 
L 250.196576 111.824483 
L 250.704356 100.831614 
L 250.958246 102.164096 
L 251.212137 105.16216 
L 251.466027 100.831614 
L 251.719917 119.48619 
L 251.973807 103.496549 
L 252.227698 102.497194 
L 252.481588 94.502389 
L 252.735478 101.164742 
L 252.989368 128.48038 
L 253.243259 110.49203 
L 253.497149 112.157611 
L 253.751039 101.49787 
L 254.004929 98.832905 
L 254.25882 102.830323 
L 254.51271 103.163451 
L 254.7666 112.490739 
L 255.02049 102.164096 
L 255.274381 99.832259 
L 255.528271 101.830968 
L 255.782161 112.157611 
L 256.036051 103.496549 
L 256.289942 101.49787 
L 256.543832 106.494612 
L 256.797722 100.165387 
L 257.051612 102.830323 
L 257.305503 100.831614 
L 257.559393 110.825128 
L 257.813283 99.499161 
L 258.067173 99.499161 
L 258.321064 102.830323 
L 258.574954 112.157611 
L 258.828844 98.499807 
L 259.082734 110.825128 
L 259.336625 99.166033 
L 259.590515 97.167324 
L 259.844405 90.838099 
L 260.098295 104.495903 
L 260.352186 105.16216 
L 260.606076 105.495258 
L 260.859966 102.164096 
L 261.113856 100.498516 
L 261.621637 114.822546 
L 262.129417 97.167324 
L 262.383308 105.828386 
L 262.637198 101.49787 
L 262.891088 110.158902 
L 263.144979 106.82774 
L 263.398869 113.823191 
L 263.652759 110.158902 
L 263.906649 117.154383 
L 264.41443 103.829677 
L 264.66832 111.491385 
L 264.92221 101.164742 
L 265.176101 105.495258 
L 265.429991 107.493967 
L 265.683881 112.157611 
L 265.937771 100.498516 
L 266.191662 104.162805 
L 266.445552 97.83355 
L 266.699442 114.822546 
L 266.953332 104.829032 
L 267.207223 101.164742 
L 267.461113 102.164096 
L 267.715003 107.827095 
L 267.968893 99.166033 
L 268.222784 106.494612 
L 268.476674 101.164742 
L 268.730564 107.493967 
L 268.984454 99.166033 
L 269.238345 102.830323 
L 269.746125 105.16216 
L 270.000015 105.16216 
L 270.253906 107.827095 
L 270.507796 103.496549 
L 270.761686 102.497194 
L 271.015576 104.829032 
L 271.269467 98.166679 
L 271.523357 99.499161 
L 271.777247 98.166679 
L 272.031137 100.498516 
L 272.285028 106.161484 
L 272.538918 101.49787 
L 272.792808 102.164096 
L 273.300589 96.501098 
L 273.554479 100.165387 
L 273.808369 100.498516 
L 274.062259 103.496549 
L 274.31615 104.829032 
L 274.57004 111.158256 
L 274.82393 97.167324 
L 275.07782 108.826449 
L 275.585601 101.49787 
L 275.839491 103.829677 
L 276.093381 107.493967 
L 276.347272 107.827095 
L 276.601162 101.830968 
L 276.855052 104.162805 
L 277.108942 97.83355 
L 277.616723 106.82774 
L 277.870613 101.164742 
L 278.378394 97.500452 
L 278.632284 114.489448 
L 278.886174 102.497194 
L 279.140064 103.496549 
L 279.393955 96.501098 
L 279.647845 101.49787 
L 280.155626 107.160838 
L 280.409516 101.49787 
L 280.917296 106.82774 
L 281.171187 109.159547 
L 281.425077 107.827095 
L 281.932857 102.497194 
L 282.186748 108.160193 
L 282.440638 100.831614 
L 282.694528 98.832905 
L 282.948418 101.830968 
L 283.202309 99.166033 
L 283.456199 106.161484 
L 283.710089 108.493321 
L 283.963979 109.159547 
L 284.21787 105.828386 
L 284.72565 103.496549 
L 284.97954 100.831614 
L 285.233431 106.161484 
L 285.487321 108.160193 
L 285.741211 108.493321 
L 285.995101 107.160838 
L 286.248992 100.831614 
L 286.502882 105.16216 
L 286.756772 103.163451 
L 287.010662 106.82774 
L 287.264553 122.151125 
L 287.518443 101.49787 
L 287.772333 113.156965 
L 288.026223 102.497194 
L 288.280114 109.492676 
L 288.534004 99.832259 
L 288.787894 101.49787 
L 289.041784 104.495903 
L 289.295675 103.829677 
L 289.549565 100.165387 
L 289.803455 101.164742 
L 290.057345 110.825128 
L 290.311236 101.49787 
L 290.565126 99.166033 
L 290.819016 106.494612 
L 291.072906 103.496549 
L 291.326797 103.496549 
L 291.580687 113.490093 
L 291.834577 102.497194 
L 292.088467 105.16216 
L 292.342358 104.829032 
L 292.596248 103.829677 
L 292.850138 97.500452 
L 293.104028 112.157611 
L 293.357919 102.830323 
L 293.611809 101.830968 
L 293.865699 101.830968 
L 294.119589 115.155674 
L 294.37348 99.166033 
L 294.62737 102.164096 
L 294.88126 110.158902 
L 295.13515 103.496549 
L 295.389041 103.163451 
L 295.896821 104.495903 
L 296.150712 112.490739 
L 296.404602 101.830968 
L 296.658492 100.165387 
L 296.912382 111.158256 
L 297.166273 107.827095 
L 297.420163 102.164096 
L 297.674053 117.820609 
L 297.927943 99.832259 
L 298.435724 104.829032 
L 298.689614 102.497194 
L 298.943504 96.16797 
L 299.197395 100.498516 
L 299.451285 100.831614 
L 299.705175 104.495903 
L 300.212956 98.832905 
L 300.466846 109.492676 
L 300.720736 102.830323 
L 300.974626 105.16216 
L 301.228517 103.496549 
L 301.482407 102.830323 
L 301.736297 97.500452 
L 301.990187 102.497194 
L 302.244078 102.164096 
L 302.497968 106.494612 
L 302.751858 113.490093 
L 303.005748 98.499807 
L 303.259639 105.495258 
L 303.513529 99.832259 
L 303.767419 98.166679 
L 304.021309 107.493967 
L 304.2752 95.168615 
L 304.52909 110.49203 
L 304.78298 103.496549 
L 305.03687 105.495258 
L 305.290761 99.166033 
L 305.544651 102.830323 
L 305.798541 108.493321 
L 306.052431 103.496549 
L 306.306322 104.495903 
L 306.560212 108.493321 
L 306.814102 105.828386 
L 307.067992 99.166033 
L 307.321883 101.164742 
L 307.575773 105.16216 
L 307.829663 104.162805 
L 308.337444 99.499161 
L 308.591334 107.493967 
L 309.099114 94.835517 
L 309.353005 101.49787 
L 309.606895 104.829032 
L 309.860785 97.167324 
L 310.114675 125.815415 
L 310.368566 105.495258 
L 310.622456 103.163451 
L 310.876346 98.832905 
L 311.130236 114.489448 
L 311.384127 114.822546 
L 311.638017 94.502389 
L 311.891907 106.161484 
L 312.145798 106.161484 
L 312.399688 100.165387 
L 312.653578 99.166033 
L 312.907468 102.164096 
L 313.161359 101.164742 
L 313.415249 113.823191 
L 313.923029 98.832905 
L 314.17692 121.484899 
L 314.43081 103.829677 
L 314.6847 112.823837 
L 314.93859 101.164742 
L 315.192481 108.493321 
L 315.446371 100.165387 
L 315.700261 98.499807 
L 315.954151 107.493967 
L 316.208042 108.826449 
L 316.461932 98.832905 
L 316.461932 98.832905 
" clip-path="url(#p3bdb1f92c9)" style="fill: none; stroke: #ff0000; stroke-width: 0.6; stroke-linecap: square"/>
   </g>
   <g id="patch_3">
    <path d="M 50.14375 239.76 
L 50.14375 37.296 
" style="fill: none; stroke: #000000; stroke-width: 0.8; stroke-linejoin: miter; stroke-linecap: square"/>
   </g>
   <g id="patch_4">
    <path d="M 329.14375 239.76 
L 329.14375 37.296 
" style="fill: none; stroke: #000000; stroke-width: 0.8; stroke-linejoin: miter; stroke-linecap: square"/>
   </g>
   <g id="patch_5">
    <path d="M 50.14375 239.76 
L 329.14375 239.76 
" style="fill: none; stroke: #000000; stroke-width: 0.8; stroke-linejoin: miter; stroke-linecap: square"/>
   </g>
   <g id="patch_6">
    <path d="M 50.14375 37.296 
L 329.14375 37.296 
" style="fill: none; stroke: #000000; stroke-width: 0.8; stroke-linejoin: miter; stroke-linecap: square"/>
   </g>
   <g id="text_17">
    <!-- Baseline Model -->
    <g transform="translate(155.622344 31.296) scale(0.09 -0.09)">
     <defs>
      <path id="DejaVuSans-42" d="M 1259 2228 
L 1259 519 
L 2272 519 
Q 2781 519 3026 730 
Q 3272 941 3272 1375 
Q 3272 1813 3026 2020 
Q 2781 2228 2272 2228 
L 1259 2228 
z
M 1259 4147 
L 1259 2741 
L 2194 2741 
Q 2656 2741 2882 2914 
Q 3109 3088 3109 3444 
Q 3109 3797 2882 3972 
Q 2656 4147 2194 4147 
L 1259 4147 
z
M 628 4666 
L 2241 4666 
Q 2963 4666 3353 4366 
Q 3744 4066 3744 3513 
Q 3744 3084 3544 2831 
Q 3344 2578 2956 2516 
Q 3422 2416 3680 2098 
Q 3938 1781 3938 1306 
Q 3938 681 3513 340 
Q 3088 0 2303 0 
L 628 0 
L 628 4666 
z
" transform="scale(0.015625)"/>
      <path id="DejaVuSans-65" d="M 3597 1894 
L 3597 1613 
L 953 1613 
Q 991 1019 1311 708 
Q 1631 397 2203 397 
Q 2534 397 2845 478 
Q 3156 559 3463 722 
L 3463 178 
Q 3153 47 2828 -22 
Q 2503 -91 2169 -91 
Q 1331 -91 842 396 
Q 353 884 353 1716 
Q 353 2575 817 3079 
Q 1281 3584 2069 3584 
Q 2775 3584 3186 3129 
Q 3597 2675 3597 1894 
z
M 3022 2063 
Q 3016 2534 2758 2815 
Q 2500 3097 2075 3097 
Q 1594 3097 1305 2825 
Q 1016 2553 972 2059 
L 3022 2063 
z
" transform="scale(0.015625)"/>
      <path id="DejaVuSans-6c" d="M 603 4863 
L 1178 4863 
L 1178 0 
L 603 0 
L 603 4863 
z
" transform="scale(0.015625)"/>
      <path id="DejaVuSans-69" d="M 603 3500 
L 1178 3500 
L 1178 0 
L 603 0 
L 603 3500 
z
M 603 4863 
L 1178 4863 
L 1178 4134 
L 603 4134 
L 603 4863 
z
" transform="scale(0.015625)"/>
      <path id="DejaVuSans-6e" d="M 3513 2113 
L 3513 0 
L 2938 0 
L 2938 2094 
Q 2938 2591 2744 2837 
Q 2550 3084 2163 3084 
Q 1697 3084 1428 2787 
Q 1159 2491 1159 1978 
L 1159 0 
L 581 0 
L 581 3500 
L 1159 3500 
L 1159 2956 
Q 1366 3272 1645 3428 
Q 1925 3584 2291 3584 
Q 2894 3584 3203 3211 
Q 3513 2838 3513 2113 
z
" transform="scale(0.015625)"/>
      <path id="DejaVuSans-20" transform="scale(0.015625)"/>
      <path id="DejaVuSans-4d" d="M 628 4666 
L 1569 4666 
L 2759 1491 
L 3956 4666 
L 4897 4666 
L 4897 0 
L 4281 0 
L 4281 4097 
L 3078 897 
L 2444 897 
L 1241 4097 
L 1241 0 
L 628 0 
L 628 4666 
z
" transform="scale(0.015625)"/>
      <path id="DejaVuSans-64" d="M 2906 2969 
L 2906 4863 
L 3481 4863 
L 3481 0 
L 2906 0 
L 2906 525 
Q 2725 213 2448 61 
Q 2172 -91 1784 -91 
Q 1150 -91 751 415 
Q 353 922 353 1747 
Q 353 2572 751 3078 
Q 1150 3584 1784 3584 
Q 2172 3584 2448 3432 
Q 2725 3281 2906 2969 
z
M 947 1747 
Q 947 1113 1208 752 
Q 1469 391 1925 391 
Q 2381 391 2643 752 
Q 2906 1113 2906 1747 
Q 2906 2381 2643 2742 
Q 2381 3103 1925 3103 
Q 1469 3103 1208 2742 
Q 947 2381 947 1747 
z
" transform="scale(0.015625)"/>
     </defs>
     <use xlink:href="#DejaVuSans-42"/>
     <use xlink:href="#DejaVuSans-61" x="68.603516"/>
     <use xlink:href="#DejaVuSans-73" x="129.882812"/>
     <use xlink:href="#DejaVuSans-65" x="181.982422"/>
     <use xlink:href="#DejaVuSans-6c" x="243.505859"/>
     <use xlink:href="#DejaVuSans-69" x="271.289062"/>
     <use xlink:href="#DejaVuSans-6e" x="299.072266"/>
     <use xlink:href="#DejaVuSans-65" x="362.451172"/>
     <use xlink:href="#DejaVuSans-20" x="423.974609"/>
     <use xlink:href="#DejaVuSans-4d" x="455.761719"/>
     <use xlink:href="#DejaVuSans-6f" x="542.041016"/>
     <use xlink:href="#DejaVuSans-64" x="603.222656"/>
     <use xlink:href="#DejaVuSans-65" x="666.699219"/>
     <use xlink:href="#DejaVuSans-6c" x="728.222656"/>
    </g>
   </g>
   <g id="legend_1">
    <g id="patch_7">
     <path d="M 191.928125 234.76 
L 322.14375 234.76 
Q 324.14375 234.76 324.14375 232.76 
L 324.14375 204.40375 
Q 324.14375 202.40375 322.14375 202.40375 
L 191.928125 202.40375 
Q 189.928125 202.40375 189.928125 204.40375 
L 189.928125 232.76 
Q 189.928125 234.76 191.928125 234.76 
z
" style="fill: #ffffff; opacity: 0.8; stroke: #cccccc; stroke-linejoin: miter"/>
    </g>
    <g id="line2d_31">
     <path d="M 193.928125 210.502187 
L 203.928125 210.502187 
L 213.928125 210.502187 
" style="fill: none; stroke: #0000ff; stroke-width: 0.6; stroke-linecap: square"/>
    </g>
    <g id="text_18">
     <!-- Training Accuracy -->
     <g transform="translate(221.928125 214.002187) scale(0.1 -0.1)">
      <defs>
       <path id="DejaVuSans-54" d="M -19 4666 
L 3928 4666 
L 3928 4134 
L 2272 4134 
L 2272 0 
L 1638 0 
L 1638 4134 
L -19 4134 
L -19 4666 
z
" transform="scale(0.015625)"/>
       <path id="DejaVuSans-67" d="M 2906 1791 
Q 2906 2416 2648 2759 
Q 2391 3103 1925 3103 
Q 1463 3103 1205 2759 
Q 947 2416 947 1791 
Q 947 1169 1205 825 
Q 1463 481 1925 481 
Q 2391 481 2648 825 
Q 2906 1169 2906 1791 
z
M 3481 434 
Q 3481 -459 3084 -895 
Q 2688 -1331 1869 -1331 
Q 1566 -1331 1297 -1286 
Q 1028 -1241 775 -1147 
L 775 -588 
Q 1028 -725 1275 -790 
Q 1522 -856 1778 -856 
Q 2344 -856 2625 -561 
Q 2906 -266 2906 331 
L 2906 616 
Q 2728 306 2450 153 
Q 2172 0 1784 0 
Q 1141 0 747 490 
Q 353 981 353 1791 
Q 353 2603 747 3093 
Q 1141 3584 1784 3584 
Q 2172 3584 2450 3431 
Q 2728 3278 2906 2969 
L 2906 3500 
L 3481 3500 
L 3481 434 
z
" transform="scale(0.015625)"/>
      </defs>
      <use xlink:href="#DejaVuSans-54"/>
      <use xlink:href="#DejaVuSans-72" x="46.333984"/>
      <use xlink:href="#DejaVuSans-61" x="87.447266"/>
      <use xlink:href="#DejaVuSans-69" x="148.726562"/>
      <use xlink:href="#DejaVuSans-6e" x="176.509766"/>
      <use xlink:href="#DejaVuSans-69" x="239.888672"/>
      <use xlink:href="#DejaVuSans-6e" x="267.671875"/>
      <use xlink:href="#DejaVuSans-67" x="331.050781"/>
      <use xlink:href="#DejaVuSans-20" x="394.527344"/>
      <use xlink:href="#DejaVuSans-41" x="426.314453"/>
      <use xlink:href="#DejaVuSans-63" x="492.972656"/>
      <use xlink:href="#DejaVuSans-63" x="547.953125"/>
      <use xlink:href="#DejaVuSans-75" x="602.933594"/>
      <use xlink:href="#DejaVuSans-72" x="666.3125"/>
      <use xlink:href="#DejaVuSans-61" x="707.425781"/>
      <use xlink:href="#DejaVuSans-63" x="768.705078"/>
      <use xlink:href="#DejaVuSans-79" x="823.685547"/>
     </g>
    </g>
    <g id="line2d_32">
     <path d="M 193.928125 225.180312 
L 203.928125 225.180312 
L 213.928125 225.180312 
" style="fill: none; stroke: #ff0000; stroke-width: 0.6; stroke-linecap: square"/>
    </g>
    <g id="text_19">
     <!-- Validation Accuracy -->
     <g transform="translate(221.928125 228.680312) scale(0.1 -0.1)">
      <defs>
       <path id="DejaVuSans-56" d="M 1831 0 
L 50 4666 
L 709 4666 
L 2188 738 
L 3669 4666 
L 4325 4666 
L 2547 0 
L 1831 0 
z
" transform="scale(0.015625)"/>
       <path id="DejaVuSans-74" d="M 1172 4494 
L 1172 3500 
L 2356 3500 
L 2356 3053 
L 1172 3053 
L 1172 1153 
Q 1172 725 1289 603 
Q 1406 481 1766 481 
L 2356 481 
L 2356 0 
L 1766 0 
Q 1100 0 847 248 
Q 594 497 594 1153 
L 594 3053 
L 172 3053 
L 172 3500 
L 594 3500 
L 594 4494 
L 1172 4494 
z
" transform="scale(0.015625)"/>
      </defs>
      <use xlink:href="#DejaVuSans-56"/>
      <use xlink:href="#DejaVuSans-61" x="60.658203"/>
      <use xlink:href="#DejaVuSans-6c" x="121.9375"/>
      <use xlink:href="#DejaVuSans-69" x="149.720703"/>
      <use xlink:href="#DejaVuSans-64" x="177.503906"/>
      <use xlink:href="#DejaVuSans-61" x="240.980469"/>
      <use xlink:href="#DejaVuSans-74" x="302.259766"/>
      <use xlink:href="#DejaVuSans-69" x="341.46875"/>
      <use xlink:href="#DejaVuSans-6f" x="369.251953"/>
      <use xlink:href="#DejaVuSans-6e" x="430.433594"/>
      <use xlink:href="#DejaVuSans-20" x="493.8125"/>
      <use xlink:href="#DejaVuSans-41" x="525.599609"/>
      <use xlink:href="#DejaVuSans-63" x="592.257812"/>
      <use xlink:href="#DejaVuSans-63" x="647.238281"/>
      <use xlink:href="#DejaVuSans-75" x="702.21875"/>
      <use xlink:href="#DejaVuSans-72" x="765.597656"/>
      <use xlink:href="#DejaVuSans-61" x="806.710938"/>
      <use xlink:href="#DejaVuSans-63" x="867.990234"/>
      <use xlink:href="#DejaVuSans-79" x="922.970703"/>
     </g>
    </g>
   </g>
  </g>
  <g id="text_20">
   <!-- Training VS. Validation Accuracy - Dataset Size = 100.0% -->
   <g transform="translate(27.796484 15.558281) scale(0.11 -0.11)">
    <defs>
     <path id="DejaVuSans-53" d="M 3425 4513 
L 3425 3897 
Q 3066 4069 2747 4153 
Q 2428 4238 2131 4238 
Q 1616 4238 1336 4038 
Q 1056 3838 1056 3469 
Q 1056 3159 1242 3001 
Q 1428 2844 1947 2747 
L 2328 2669 
Q 3034 2534 3370 2195 
Q 3706 1856 3706 1288 
Q 3706 609 3251 259 
Q 2797 -91 1919 -91 
Q 1588 -91 1214 -16 
Q 841 59 441 206 
L 441 856 
Q 825 641 1194 531 
Q 1563 422 1919 422 
Q 2459 422 2753 634 
Q 3047 847 3047 1241 
Q 3047 1584 2836 1778 
Q 2625 1972 2144 2069 
L 1759 2144 
Q 1053 2284 737 2584 
Q 422 2884 422 3419 
Q 422 4038 858 4394 
Q 1294 4750 2059 4750 
Q 2388 4750 2728 4690 
Q 3069 4631 3425 4513 
z
" transform="scale(0.015625)"/>
     <path id="DejaVuSans-2d" d="M 313 2009 
L 1997 2009 
L 1997 1497 
L 313 1497 
L 313 2009 
z
" transform="scale(0.015625)"/>
     <path id="DejaVuSans-44" d="M 1259 4147 
L 1259 519 
L 2022 519 
Q 2988 519 3436 956 
Q 3884 1394 3884 2338 
Q 3884 3275 3436 3711 
Q 2988 4147 2022 4147 
L 1259 4147 
z
M 628 4666 
L 1925 4666 
Q 3281 4666 3915 4102 
Q 4550 3538 4550 2338 
Q 4550 1131 3912 565 
Q 3275 0 1925 0 
L 628 0 
L 628 4666 
z
" transform="scale(0.015625)"/>
     <path id="DejaVuSans-7a" d="M 353 3500 
L 3084 3500 
L 3084 2975 
L 922 459 
L 3084 459 
L 3084 0 
L 275 0 
L 275 525 
L 2438 3041 
L 353 3041 
L 353 3500 
z
" transform="scale(0.015625)"/>
     <path id="DejaVuSans-3d" d="M 678 2906 
L 4684 2906 
L 4684 2381 
L 678 2381 
L 678 2906 
z
M 678 1631 
L 4684 1631 
L 4684 1100 
L 678 1100 
L 678 1631 
z
" transform="scale(0.015625)"/>
     <path id="DejaVuSans-25" d="M 4653 2053 
Q 4381 2053 4226 1822 
Q 4072 1591 4072 1178 
Q 4072 772 4226 539 
Q 4381 306 4653 306 
Q 4919 306 5073 539 
Q 5228 772 5228 1178 
Q 5228 1588 5073 1820 
Q 4919 2053 4653 2053 
z
M 4653 2450 
Q 5147 2450 5437 2106 
Q 5728 1763 5728 1178 
Q 5728 594 5436 251 
Q 5144 -91 4653 -91 
Q 4153 -91 3862 251 
Q 3572 594 3572 1178 
Q 3572 1766 3864 2108 
Q 4156 2450 4653 2450 
z
M 1428 4353 
Q 1159 4353 1004 4120 
Q 850 3888 850 3481 
Q 850 3069 1003 2837 
Q 1156 2606 1428 2606 
Q 1700 2606 1854 2837 
Q 2009 3069 2009 3481 
Q 2009 3884 1853 4118 
Q 1697 4353 1428 4353 
z
M 4250 4750 
L 4750 4750 
L 1831 -91 
L 1331 -91 
L 4250 4750 
z
M 1428 4750 
Q 1922 4750 2215 4408 
Q 2509 4066 2509 3481 
Q 2509 2891 2217 2550 
Q 1925 2209 1428 2209 
Q 931 2209 642 2551 
Q 353 2894 353 3481 
Q 353 4063 643 4406 
Q 934 4750 1428 4750 
z
" transform="scale(0.015625)"/>
    </defs>
    <use xlink:href="#DejaVuSans-54"/>
    <use xlink:href="#DejaVuSans-72" x="46.333984"/>
    <use xlink:href="#DejaVuSans-61" x="87.447266"/>
    <use xlink:href="#DejaVuSans-69" x="148.726562"/>
    <use xlink:href="#DejaVuSans-6e" x="176.509766"/>
    <use xlink:href="#DejaVuSans-69" x="239.888672"/>
    <use xlink:href="#DejaVuSans-6e" x="267.671875"/>
    <use xlink:href="#DejaVuSans-67" x="331.050781"/>
    <use xlink:href="#DejaVuSans-20" x="394.527344"/>
    <use xlink:href="#DejaVuSans-56" x="426.314453"/>
    <use xlink:href="#DejaVuSans-53" x="494.722656"/>
    <use xlink:href="#DejaVuSans-2e" x="558.199219"/>
    <use xlink:href="#DejaVuSans-20" x="589.986328"/>
    <use xlink:href="#DejaVuSans-56" x="621.773438"/>
    <use xlink:href="#DejaVuSans-61" x="682.431641"/>
    <use xlink:href="#DejaVuSans-6c" x="743.710938"/>
    <use xlink:href="#DejaVuSans-69" x="771.494141"/>
    <use xlink:href="#DejaVuSans-64" x="799.277344"/>
    <use xlink:href="#DejaVuSans-61" x="862.753906"/>
    <use xlink:href="#DejaVuSans-74" x="924.033203"/>
    <use xlink:href="#DejaVuSans-69" x="963.242188"/>
    <use xlink:href="#DejaVuSans-6f" x="991.025391"/>
    <use xlink:href="#DejaVuSans-6e" x="1052.207031"/>
    <use xlink:href="#DejaVuSans-20" x="1115.585938"/>
    <use xlink:href="#DejaVuSans-41" x="1147.373047"/>
    <use xlink:href="#DejaVuSans-63" x="1214.03125"/>
    <use xlink:href="#DejaVuSans-63" x="1269.011719"/>
    <use xlink:href="#DejaVuSans-75" x="1323.992188"/>
    <use xlink:href="#DejaVuSans-72" x="1387.371094"/>
    <use xlink:href="#DejaVuSans-61" x="1428.484375"/>
    <use xlink:href="#DejaVuSans-63" x="1489.763672"/>
    <use xlink:href="#DejaVuSans-79" x="1544.744141"/>
    <use xlink:href="#DejaVuSans-20" x="1603.923828"/>
    <use xlink:href="#DejaVuSans-2d" x="1635.710938"/>
    <use xlink:href="#DejaVuSans-20" x="1671.794922"/>
    <use xlink:href="#DejaVuSans-44" x="1703.582031"/>
    <use xlink:href="#DejaVuSans-61" x="1780.583984"/>
    <use xlink:href="#DejaVuSans-74" x="1841.863281"/>
    <use xlink:href="#DejaVuSans-61" x="1881.072266"/>
    <use xlink:href="#DejaVuSans-73" x="1942.351562"/>
    <use xlink:href="#DejaVuSans-65" x="1994.451172"/>
    <use xlink:href="#DejaVuSans-74" x="2055.974609"/>
    <use xlink:href="#DejaVuSans-20" x="2095.183594"/>
    <use xlink:href="#DejaVuSans-53" x="2126.970703"/>
    <use xlink:href="#DejaVuSans-69" x="2190.447266"/>
    <use xlink:href="#DejaVuSans-7a" x="2218.230469"/>
    <use xlink:href="#DejaVuSans-65" x="2270.720703"/>
    <use xlink:href="#DejaVuSans-20" x="2332.244141"/>
    <use xlink:href="#DejaVuSans-3d" x="2364.03125"/>
    <use xlink:href="#DejaVuSans-20" x="2447.820312"/>
    <use xlink:href="#DejaVuSans-31" x="2479.607422"/>
    <use xlink:href="#DejaVuSans-30" x="2543.230469"/>
    <use xlink:href="#DejaVuSans-30" x="2606.853516"/>
    <use xlink:href="#DejaVuSans-2e" x="2670.476562"/>
    <use xlink:href="#DejaVuSans-30" x="2702.263672"/>
    <use xlink:href="#DejaVuSans-25" x="2765.886719"/>
   </g>
  </g>
 </g>
 <defs>
  <clipPath id="p3bdb1f92c9">
   <rect x="50.14375" y="37.296" width="279" height="202.464"/>
  </clipPath>
 </defs>
</svg>
