<?xml version="1.0" encoding="utf-8" standalone="no"?>
<!DOCTYPE svg PUBLIC "-//W3C//DTD SVG 1.1//EN"
  "http://www.w3.org/Graphics/SVG/1.1/DTD/svg11.dtd">
<svg xmlns:xlink="http://www.w3.org/1999/xlink" width="349.691016pt" height="277.31625pt" viewBox="0 0 349.691016 277.31625" xmlns="http://www.w3.org/2000/svg" version="1.1">
 <metadata>
  <rdf:RDF xmlns:dc="http://purl.org/dc/elements/1.1/" xmlns:cc="http://creativecommons.org/ns#" xmlns:rdf="http://www.w3.org/1999/02/22-rdf-syntax-ns#">
   <cc:Work>
    <dc:type rdf:resource="http://purl.org/dc/dcmitype/StillImage"/>
    <dc:date>2026-06-11T16:38:45.299384</dc:date>
    <dc:format>image/svg+xml</dc:format>
    <dc:creator>
     <cc:Agent>
      <dc:title>Matplotlib v3.8.4, https://matplotlib.org/</dc:title>
     </cc:Agent>
    </dc:creator>
   </cc:Work>
  </rdf:RDF>
 </metadata>
 <defs>
  <style type="text/css">*{stroke-linejoin: round; stroke-linecap: butt}</style>
 </defs>
 <g id="figure_1">
  <g id="patch_1">
   <path d="M 0 277.31625 
L 349.691016 277.31625 
L 349.691016 0 
L 0 0 
z
" style="fill: #ffffff"/>
  </g>
  <g id="axes_1">
   <g id="patch_2">
    <path d="M 50.14375 239.76 
L 329.14375 239.76 
L 329.14375 37.296 
L 50.14375 37.296 
z
" style="fill: #ffffff"/>
   </g>
   <g id="matplotlib.axis_1">
    <g id="xtick_1">
     <g id="line2d_1">
      <path d="M 62.571678 239.76 
L 62.571678 37.296 
" clip-path="url(#p64dcdc8fa0)" style="fill: none; stroke-dasharray: 2.96,1.28; stroke-dashoffset: 0; stroke: #b0b0b0; stroke-opacity: 0.4; stroke-width: 0.8"/>
     </g>
     <g id="line2d_2">
      <defs>
       <path id="m309212bbce" d="M 0 0 
L 0 3.5 
" style="stroke: #000000; stroke-width: 0.8"/>
      </defs>
      <g>
       <use xlink:href="#m309212bbce" x="62.571678" y="239.76" style="stroke: #000000; stroke-width: 0.8"/>
      </g>
     </g>
     <g id="text_1">
      <!-- 0 -->
      <g transform="translate(59.390428 254.358437) scale(0.1 -0.1)">
       <defs>
        <path id="DejaVuSans-30" d="M 2034 4250 
Q 1547 4250 1301 3770 
Q 1056 3291 1056 2328 
Q 1056 1369 1301 889 
Q 1547 409 2034 409 
Q 2525 409 2770 889 
Q 3016 1369 3016 2328 
Q 3016 3291 2770 3770 
Q 2525 4250 2034 4250 
z
M 2034 4750 
Q 2819 4750 3233 4129 
Q 3647 3509 3647 2328 
Q 3647 1150 3233 529 
Q 2819 -91 2034 -91 
Q 1250 -91 836 529 
Q 422 1150 422 2328 
Q 422 3509 836 4129 
Q 1250 4750 2034 4750 
z
" transform="scale(0.015625)"/>
       </defs>
       <use xlink:href="#DejaVuSans-30"/>
      </g>
     </g>
    </g>
    <g id="xtick_2">
     <g id="line2d_3">
      <path d="M 113.349729 239.76 
L 113.349729 37.296 
" clip-path="url(#p64dcdc8fa0)" style="fill: none; stroke-dasharray: 2.96,1.28; stroke-dashoffset: 0; stroke: #b0b0b0; stroke-opacity: 0.4; stroke-width: 0.8"/>
     </g>
     <g id="line2d_4">
      <g>
       <use xlink:href="#m309212bbce" x="113.349729" y="239.76" style="stroke: #000000; stroke-width: 0.8"/>
      </g>
     </g>
     <g id="text_2">
      <!-- 200 -->
      <g transform="translate(103.805979 254.358437) scale(0.1 -0.1)">
       <defs>
        <path id="DejaVuSans-32" d="M 1228 531 
L 3431 531 
L 3431 0 
L 469 0 
L 469 531 
Q 828 903 1448 1529 
Q 2069 2156 2228 2338 
Q 2531 2678 2651 2914 
Q 2772 3150 2772 3378 
Q 2772 3750 2511 3984 
Q 2250 4219 1831 4219 
Q 1534 4219 1204 4116 
Q 875 4013 500 3803 
L 500 4441 
Q 881 4594 1212 4672 
Q 1544 4750 1819 4750 
Q 2544 4750 2975 4387 
Q 3406 4025 3406 3419 
Q 3406 3131 3298 2873 
Q 3191 2616 2906 2266 
Q 2828 2175 2409 1742 
Q 1991 1309 1228 531 
z
" transform="scale(0.015625)"/>
       </defs>
       <use xlink:href="#DejaVuSans-32"/>
       <use xlink:href="#DejaVuSans-30" x="63.623047"/>
       <use xlink:href="#DejaVuSans-30" x="127.246094"/>
      </g>
     </g>
    </g>
    <g id="xtick_3">
     <g id="line2d_5">
      <path d="M 164.127779 239.76 
L 164.127779 37.296 
" clip-path="url(#p64dcdc8fa0)" style="fill: none; stroke-dasharray: 2.96,1.28; stroke-dashoffset: 0; stroke: #b0b0b0; stroke-opacity: 0.4; stroke-width: 0.8"/>
     </g>
     <g id="line2d_6">
      <g>
       <use xlink:href="#m309212bbce" x="164.127779" y="239.76" style="stroke: #000000; stroke-width: 0.8"/>
      </g>
     </g>
     <g id="text_3">
      <!-- 400 -->
      <g transform="translate(154.584029 254.358437) scale(0.1 -0.1)">
       <defs>
        <path id="DejaVuSans-34" d="M 2419 4116 
L 825 1625 
L 2419 1625 
L 2419 4116 
z
M 2253 4666 
L 3047 4666 
L 3047 1625 
L 3713 1625 
L 3713 1100 
L 3047 1100 
L 3047 0 
L 2419 0 
L 2419 1100 
L 313 1100 
L 313 1709 
L 2253 4666 
z
" transform="scale(0.015625)"/>
       </defs>
       <use xlink:href="#DejaVuSans-34"/>
       <use xlink:href="#DejaVuSans-30" x="63.623047"/>
       <use xlink:href="#DejaVuSans-30" x="127.246094"/>
      </g>
     </g>
    </g>
    <g id="xtick_4">
     <g id="line2d_7">
      <path d="M 214.90583 239.76 
L 214.90583 37.296 
" clip-path="url(#p64dcdc8fa0)" style="fill: none; stroke-dasharray: 2.96,1.28; stroke-dashoffset: 0; stroke: #b0b0b0; stroke-opacity: 0.4; stroke-width: 0.8"/>
     </g>
     <g id="line2d_8">
      <g>
       <use xlink:href="#m309212bbce" x="214.90583" y="239.76" style="stroke: #000000; stroke-width: 0.8"/>
      </g>
     </g>
     <g id="text_4">
      <!-- 600 -->
      <g transform="translate(205.36208 254.358437) scale(0.1 -0.1)">
       <defs>
        <path id="DejaVuSans-36" d="M 2113 2584 
Q 1688 2584 1439 2293 
Q 1191 2003 1191 1497 
Q 1191 994 1439 701 
Q 1688 409 2113 409 
Q 2538 409 2786 701 
Q 3034 994 3034 1497 
Q 3034 2003 2786 2293 
Q 2538 2584 2113 2584 
z
M 3366 4563 
L 3366 3988 
Q 3128 4100 2886 4159 
Q 2644 4219 2406 4219 
Q 1781 4219 1451 3797 
Q 1122 3375 1075 2522 
Q 1259 2794 1537 2939 
Q 1816 3084 2150 3084 
Q 2853 3084 3261 2657 
Q 3669 2231 3669 1497 
Q 3669 778 3244 343 
Q 2819 -91 2113 -91 
Q 1303 -91 875 529 
Q 447 1150 447 2328 
Q 447 3434 972 4092 
Q 1497 4750 2381 4750 
Q 2619 4750 2861 4703 
Q 3103 4656 3366 4563 
z
" transform="scale(0.015625)"/>
       </defs>
       <use xlink:href="#DejaVuSans-36"/>
       <use xlink:href="#DejaVuSans-30" x="63.623047"/>
       <use xlink:href="#DejaVuSans-30" x="127.246094"/>
      </g>
     </g>
    </g>
    <g id="xtick_5">
     <g id="line2d_9">
      <path d="M 265.683881 239.76 
L 265.683881 37.296 
" clip-path="url(#p64dcdc8fa0)" style="fill: none; stroke-dasharray: 2.96,1.28; stroke-dashoffset: 0; stroke: #b0b0b0; stroke-opacity: 0.4; stroke-width: 0.8"/>
     </g>
     <g id="line2d_10">
      <g>
       <use xlink:href="#m309212bbce" x="265.683881" y="239.76" style="stroke: #000000; stroke-width: 0.8"/>
      </g>
     </g>
     <g id="text_5">
      <!-- 800 -->
      <g transform="translate(256.140131 254.358437) scale(0.1 -0.1)">
       <defs>
        <path id="DejaVuSans-38" d="M 2034 2216 
Q 1584 2216 1326 1975 
Q 1069 1734 1069 1313 
Q 1069 891 1326 650 
Q 1584 409 2034 409 
Q 2484 409 2743 651 
Q 3003 894 3003 1313 
Q 3003 1734 2745 1975 
Q 2488 2216 2034 2216 
z
M 1403 2484 
Q 997 2584 770 2862 
Q 544 3141 544 3541 
Q 544 4100 942 4425 
Q 1341 4750 2034 4750 
Q 2731 4750 3128 4425 
Q 3525 4100 3525 3541 
Q 3525 3141 3298 2862 
Q 3072 2584 2669 2484 
Q 3125 2378 3379 2068 
Q 3634 1759 3634 1313 
Q 3634 634 3220 271 
Q 2806 -91 2034 -91 
Q 1263 -91 848 271 
Q 434 634 434 1313 
Q 434 1759 690 2068 
Q 947 2378 1403 2484 
z
M 1172 3481 
Q 1172 3119 1398 2916 
Q 1625 2713 2034 2713 
Q 2441 2713 2670 2916 
Q 2900 3119 2900 3481 
Q 2900 3844 2670 4047 
Q 2441 4250 2034 4250 
Q 1625 4250 1398 4047 
Q 1172 3844 1172 3481 
z
" transform="scale(0.015625)"/>
       </defs>
       <use xlink:href="#DejaVuSans-38"/>
       <use xlink:href="#DejaVuSans-30" x="63.623047"/>
       <use xlink:href="#DejaVuSans-30" x="127.246094"/>
      </g>
     </g>
    </g>
    <g id="xtick_6">
     <g id="line2d_11">
      <path d="M 316.461932 239.76 
L 316.461932 37.296 
" clip-path="url(#p64dcdc8fa0)" style="fill: none; stroke-dasharray: 2.96,1.28; stroke-dashoffset: 0; stroke: #b0b0b0; stroke-opacity: 0.4; stroke-width: 0.8"/>
     </g>
     <g id="line2d_12">
      <g>
       <use xlink:href="#m309212bbce" x="316.461932" y="239.76" style="stroke: #000000; stroke-width: 0.8"/>
      </g>
     </g>
     <g id="text_6">
      <!-- 1000 -->
      <g transform="translate(303.736932 254.358437) scale(0.1 -0.1)">
       <defs>
        <path id="DejaVuSans-31" d="M 794 531 
L 1825 531 
L 1825 4091 
L 703 3866 
L 703 4441 
L 1819 4666 
L 2450 4666 
L 2450 531 
L 3481 531 
L 3481 0 
L 794 0 
L 794 531 
z
" transform="scale(0.015625)"/>
       </defs>
       <use xlink:href="#DejaVuSans-31"/>
       <use xlink:href="#DejaVuSans-30" x="63.623047"/>
       <use xlink:href="#DejaVuSans-30" x="127.246094"/>
       <use xlink:href="#DejaVuSans-30" x="190.869141"/>
      </g>
     </g>
    </g>
    <g id="text_7">
     <!-- Epochs -->
     <g transform="translate(171.728125 268.036562) scale(0.1 -0.1)">
      <defs>
       <path id="DejaVuSans-45" d="M 628 4666 
L 3578 4666 
L 3578 4134 
L 1259 4134 
L 1259 2753 
L 3481 2753 
L 3481 2222 
L 1259 2222 
L 1259 531 
L 3634 531 
L 3634 0 
L 628 0 
L 628 4666 
z
" transform="scale(0.015625)"/>
       <path id="DejaVuSans-70" d="M 1159 525 
L 1159 -1331 
L 581 -1331 
L 581 3500 
L 1159 3500 
L 1159 2969 
Q 1341 3281 1617 3432 
Q 1894 3584 2278 3584 
Q 2916 3584 3314 3078 
Q 3713 2572 3713 1747 
Q 3713 922 3314 415 
Q 2916 -91 2278 -91 
Q 1894 -91 1617 61 
Q 1341 213 1159 525 
z
M 3116 1747 
Q 3116 2381 2855 2742 
Q 2594 3103 2138 3103 
Q 1681 3103 1420 2742 
Q 1159 2381 1159 1747 
Q 1159 1113 1420 752 
Q 1681 391 2138 391 
Q 2594 391 2855 752 
Q 3116 1113 3116 1747 
z
" transform="scale(0.015625)"/>
       <path id="DejaVuSans-6f" d="M 1959 3097 
Q 1497 3097 1228 2736 
Q 959 2375 959 1747 
Q 959 1119 1226 758 
Q 1494 397 1959 397 
Q 2419 397 2687 759 
Q 2956 1122 2956 1747 
Q 2956 2369 2687 2733 
Q 2419 3097 1959 3097 
z
M 1959 3584 
Q 2709 3584 3137 3096 
Q 3566 2609 3566 1747 
Q 3566 888 3137 398 
Q 2709 -91 1959 -91 
Q 1206 -91 779 398 
Q 353 888 353 1747 
Q 353 2609 779 3096 
Q 1206 3584 1959 3584 
z
" transform="scale(0.015625)"/>
       <path id="DejaVuSans-63" d="M 3122 3366 
L 3122 2828 
Q 2878 2963 2633 3030 
Q 2388 3097 2138 3097 
Q 1578 3097 1268 2742 
Q 959 2388 959 1747 
Q 959 1106 1268 751 
Q 1578 397 2138 397 
Q 2388 397 2633 464 
Q 2878 531 3122 666 
L 3122 134 
Q 2881 22 2623 -34 
Q 2366 -91 2075 -91 
Q 1284 -91 818 406 
Q 353 903 353 1747 
Q 353 2603 823 3093 
Q 1294 3584 2113 3584 
Q 2378 3584 2631 3529 
Q 2884 3475 3122 3366 
z
" transform="scale(0.015625)"/>
       <path id="DejaVuSans-68" d="M 3513 2113 
L 3513 0 
L 2938 0 
L 2938 2094 
Q 2938 2591 2744 2837 
Q 2550 3084 2163 3084 
Q 1697 3084 1428 2787 
Q 1159 2491 1159 1978 
L 1159 0 
L 581 0 
L 581 4863 
L 1159 4863 
L 1159 2956 
Q 1366 3272 1645 3428 
Q 1925 3584 2291 3584 
Q 2894 3584 3203 3211 
Q 3513 2838 3513 2113 
z
" transform="scale(0.015625)"/>
       <path id="DejaVuSans-73" d="M 2834 3397 
L 2834 2853 
Q 2591 2978 2328 3040 
Q 2066 3103 1784 3103 
Q 1356 3103 1142 2972 
Q 928 2841 928 2578 
Q 928 2378 1081 2264 
Q 1234 2150 1697 2047 
L 1894 2003 
Q 2506 1872 2764 1633 
Q 3022 1394 3022 966 
Q 3022 478 2636 193 
Q 2250 -91 1575 -91 
Q 1294 -91 989 -36 
Q 684 19 347 128 
L 347 722 
Q 666 556 975 473 
Q 1284 391 1588 391 
Q 1994 391 2212 530 
Q 2431 669 2431 922 
Q 2431 1156 2273 1281 
Q 2116 1406 1581 1522 
L 1381 1569 
Q 847 1681 609 1914 
Q 372 2147 372 2553 
Q 372 3047 722 3315 
Q 1072 3584 1716 3584 
Q 2034 3584 2315 3537 
Q 2597 3491 2834 3397 
z
" transform="scale(0.015625)"/>
      </defs>
      <use xlink:href="#DejaVuSans-45"/>
      <use xlink:href="#DejaVuSans-70" x="63.183594"/>
      <use xlink:href="#DejaVuSans-6f" x="126.660156"/>
      <use xlink:href="#DejaVuSans-63" x="187.841797"/>
      <use xlink:href="#DejaVuSans-68" x="242.822266"/>
      <use xlink:href="#DejaVuSans-73" x="306.201172"/>
     </g>
    </g>
   </g>
   <g id="matplotlib.axis_2">
    <g id="ytick_1">
     <g id="line2d_13">
      <path d="M 50.14375 232.475431 
L 329.14375 232.475431 
" clip-path="url(#p64dcdc8fa0)" style="fill: none; stroke-dasharray: 2.96,1.28; stroke-dashoffset: 0; stroke: #b0b0b0; stroke-opacity: 0.4; stroke-width: 0.8"/>
     </g>
     <g id="line2d_14">
      <defs>
       <path id="m80445144ca" d="M 0 0 
L -3.5 0 
" style="stroke: #000000; stroke-width: 0.8"/>
      </defs>
      <g>
       <use xlink:href="#m80445144ca" x="50.14375" y="232.475431" style="stroke: #000000; stroke-width: 0.8"/>
      </g>
     </g>
     <g id="text_8">
      <!-- 0.50 -->
      <g transform="translate(20.878125 236.27465) scale(0.1 -0.1)">
       <defs>
        <path id="DejaVuSans-2e" d="M 684 794 
L 1344 794 
L 1344 0 
L 684 0 
L 684 794 
z
" transform="scale(0.015625)"/>
        <path id="DejaVuSans-35" d="M 691 4666 
L 3169 4666 
L 3169 4134 
L 1269 4134 
L 1269 2991 
Q 1406 3038 1543 3061 
Q 1681 3084 1819 3084 
Q 2600 3084 3056 2656 
Q 3513 2228 3513 1497 
Q 3513 744 3044 326 
Q 2575 -91 1722 -91 
Q 1428 -91 1123 -41 
Q 819 9 494 109 
L 494 744 
Q 775 591 1075 516 
Q 1375 441 1709 441 
Q 2250 441 2565 725 
Q 2881 1009 2881 1497 
Q 2881 1984 2565 2268 
Q 2250 2553 1709 2553 
Q 1456 2553 1204 2497 
Q 953 2441 691 2322 
L 691 4666 
z
" transform="scale(0.015625)"/>
       </defs>
       <use xlink:href="#DejaVuSans-30"/>
       <use xlink:href="#DejaVuSans-2e" x="63.623047"/>
       <use xlink:href="#DejaVuSans-35" x="95.410156"/>
       <use xlink:href="#DejaVuSans-30" x="159.033203"/>
      </g>
     </g>
    </g>
    <g id="ytick_2">
     <g id="line2d_15">
      <path d="M 50.14375 208.176509 
L 329.14375 208.176509 
" clip-path="url(#p64dcdc8fa0)" style="fill: none; stroke-dasharray: 2.96,1.28; stroke-dashoffset: 0; stroke: #b0b0b0; stroke-opacity: 0.4; stroke-width: 0.8"/>
     </g>
     <g id="line2d_16">
      <g>
       <use xlink:href="#m80445144ca" x="50.14375" y="208.176509" style="stroke: #000000; stroke-width: 0.8"/>
      </g>
     </g>
     <g id="text_9">
      <!-- 0.55 -->
      <g transform="translate(20.878125 211.975727) scale(0.1 -0.1)">
       <use xlink:href="#DejaVuSans-30"/>
       <use xlink:href="#DejaVuSans-2e" x="63.623047"/>
       <use xlink:href="#DejaVuSans-35" x="95.410156"/>
       <use xlink:href="#DejaVuSans-35" x="159.033203"/>
      </g>
     </g>
    </g>
    <g id="ytick_3">
     <g id="line2d_17">
      <path d="M 50.14375 183.877586 
L 329.14375 183.877586 
" clip-path="url(#p64dcdc8fa0)" style="fill: none; stroke-dasharray: 2.96,1.28; stroke-dashoffset: 0; stroke: #b0b0b0; stroke-opacity: 0.4; stroke-width: 0.8"/>
     </g>
     <g id="line2d_18">
      <g>
       <use xlink:href="#m80445144ca" x="50.14375" y="183.877586" style="stroke: #000000; stroke-width: 0.8"/>
      </g>
     </g>
     <g id="text_10">
      <!-- 0.60 -->
      <g transform="translate(20.878125 187.676805) scale(0.1 -0.1)">
       <use xlink:href="#DejaVuSans-30"/>
       <use xlink:href="#DejaVuSans-2e" x="63.623047"/>
       <use xlink:href="#DejaVuSans-36" x="95.410156"/>
       <use xlink:href="#DejaVuSans-30" x="159.033203"/>
      </g>
     </g>
    </g>
    <g id="ytick_4">
     <g id="line2d_19">
      <path d="M 50.14375 159.578663 
L 329.14375 159.578663 
" clip-path="url(#p64dcdc8fa0)" style="fill: none; stroke-dasharray: 2.96,1.28; stroke-dashoffset: 0; stroke: #b0b0b0; stroke-opacity: 0.4; stroke-width: 0.8"/>
     </g>
     <g id="line2d_20">
      <g>
       <use xlink:href="#m80445144ca" x="50.14375" y="159.578663" style="stroke: #000000; stroke-width: 0.8"/>
      </g>
     </g>
     <g id="text_11">
      <!-- 0.65 -->
      <g transform="translate(20.878125 163.377882) scale(0.1 -0.1)">
       <use xlink:href="#DejaVuSans-30"/>
       <use xlink:href="#DejaVuSans-2e" x="63.623047"/>
       <use xlink:href="#DejaVuSans-36" x="95.410156"/>
       <use xlink:href="#DejaVuSans-35" x="159.033203"/>
      </g>
     </g>
    </g>
    <g id="ytick_5">
     <g id="line2d_21">
      <path d="M 50.14375 135.279741 
L 329.14375 135.279741 
" clip-path="url(#p64dcdc8fa0)" style="fill: none; stroke-dasharray: 2.96,1.28; stroke-dashoffset: 0; stroke: #b0b0b0; stroke-opacity: 0.4; stroke-width: 0.8"/>
     </g>
     <g id="line2d_22">
      <g>
       <use xlink:href="#m80445144ca" x="50.14375" y="135.279741" style="stroke: #000000; stroke-width: 0.8"/>
      </g>
     </g>
     <g id="text_12">
      <!-- 0.70 -->
      <g transform="translate(20.878125 139.078959) scale(0.1 -0.1)">
       <defs>
        <path id="DejaVuSans-37" d="M 525 4666 
L 3525 4666 
L 3525 4397 
L 1831 0 
L 1172 0 
L 2766 4134 
L 525 4134 
L 525 4666 
z
" transform="scale(0.015625)"/>
       </defs>
       <use xlink:href="#DejaVuSans-30"/>
       <use xlink:href="#DejaVuSans-2e" x="63.623047"/>
       <use xlink:href="#DejaVuSans-37" x="95.410156"/>
       <use xlink:href="#DejaVuSans-30" x="159.033203"/>
      </g>
     </g>
    </g>
    <g id="ytick_6">
     <g id="line2d_23">
      <path d="M 50.14375 110.980818 
L 329.14375 110.980818 
" clip-path="url(#p64dcdc8fa0)" style="fill: none; stroke-dasharray: 2.96,1.28; stroke-dashoffset: 0; stroke: #b0b0b0; stroke-opacity: 0.4; stroke-width: 0.8"/>
     </g>
     <g id="line2d_24">
      <g>
       <use xlink:href="#m80445144ca" x="50.14375" y="110.980818" style="stroke: #000000; stroke-width: 0.8"/>
      </g>
     </g>
     <g id="text_13">
      <!-- 0.75 -->
      <g transform="translate(20.878125 114.780037) scale(0.1 -0.1)">
       <use xlink:href="#DejaVuSans-30"/>
       <use xlink:href="#DejaVuSans-2e" x="63.623047"/>
       <use xlink:href="#DejaVuSans-37" x="95.410156"/>
       <use xlink:href="#DejaVuSans-35" x="159.033203"/>
      </g>
     </g>
    </g>
    <g id="ytick_7">
     <g id="line2d_25">
      <path d="M 50.14375 86.681895 
L 329.14375 86.681895 
" clip-path="url(#p64dcdc8fa0)" style="fill: none; stroke-dasharray: 2.96,1.28; stroke-dashoffset: 0; stroke: #b0b0b0; stroke-opacity: 0.4; stroke-width: 0.8"/>
     </g>
     <g id="line2d_26">
      <g>
       <use xlink:href="#m80445144ca" x="50.14375" y="86.681895" style="stroke: #000000; stroke-width: 0.8"/>
      </g>
     </g>
     <g id="text_14">
      <!-- 0.80 -->
      <g transform="translate(20.878125 90.481114) scale(0.1 -0.1)">
       <use xlink:href="#DejaVuSans-30"/>
       <use xlink:href="#DejaVuSans-2e" x="63.623047"/>
       <use xlink:href="#DejaVuSans-38" x="95.410156"/>
       <use xlink:href="#DejaVuSans-30" x="159.033203"/>
      </g>
     </g>
    </g>
    <g id="ytick_8">
     <g id="line2d_27">
      <path d="M 50.14375 62.382973 
L 329.14375 62.382973 
" clip-path="url(#p64dcdc8fa0)" style="fill: none; stroke-dasharray: 2.96,1.28; stroke-dashoffset: 0; stroke: #b0b0b0; stroke-opacity: 0.4; stroke-width: 0.8"/>
     </g>
     <g id="line2d_28">
      <g>
       <use xlink:href="#m80445144ca" x="50.14375" y="62.382973" style="stroke: #000000; stroke-width: 0.8"/>
      </g>
     </g>
     <g id="text_15">
      <!-- 0.85 -->
      <g transform="translate(20.878125 66.182191) scale(0.1 -0.1)">
       <use xlink:href="#DejaVuSans-30"/>
       <use xlink:href="#DejaVuSans-2e" x="63.623047"/>
       <use xlink:href="#DejaVuSans-38" x="95.410156"/>
       <use xlink:href="#DejaVuSans-35" x="159.033203"/>
      </g>
     </g>
    </g>
    <g id="ytick_9">
     <g id="line2d_29">
      <path d="M 50.14375 38.08405 
L 329.14375 38.08405 
" clip-path="url(#p64dcdc8fa0)" style="fill: none; stroke-dasharray: 2.96,1.28; stroke-dashoffset: 0; stroke: #b0b0b0; stroke-opacity: 0.4; stroke-width: 0.8"/>
     </g>
     <g id="line2d_30">
      <g>
       <use xlink:href="#m80445144ca" x="50.14375" y="38.08405" style="stroke: #000000; stroke-width: 0.8"/>
      </g>
     </g>
     <g id="text_16">
      <!-- 0.90 -->
      <g transform="translate(20.878125 41.883269) scale(0.1 -0.1)">
       <defs>
        <path id="DejaVuSans-39" d="M 703 97 
L 703 672 
Q 941 559 1184 500 
Q 1428 441 1663 441 
Q 2288 441 2617 861 
Q 2947 1281 2994 2138 
Q 2813 1869 2534 1725 
Q 2256 1581 1919 1581 
Q 1219 1581 811 2004 
Q 403 2428 403 3163 
Q 403 3881 828 4315 
Q 1253 4750 1959 4750 
Q 2769 4750 3195 4129 
Q 3622 3509 3622 2328 
Q 3622 1225 3098 567 
Q 2575 -91 1691 -91 
Q 1453 -91 1209 -44 
Q 966 3 703 97 
z
M 1959 2075 
Q 2384 2075 2632 2365 
Q 2881 2656 2881 3163 
Q 2881 3666 2632 3958 
Q 2384 4250 1959 4250 
Q 1534 4250 1286 3958 
Q 1038 3666 1038 3163 
Q 1038 2656 1286 2365 
Q 1534 2075 1959 2075 
z
" transform="scale(0.015625)"/>
       </defs>
       <use xlink:href="#DejaVuSans-30"/>
       <use xlink:href="#DejaVuSans-2e" x="63.623047"/>
       <use xlink:href="#DejaVuSans-39" x="95.410156"/>
       <use xlink:href="#DejaVuSans-30" x="159.033203"/>
      </g>
     </g>
    </g>
    <g id="text_17">
     <!-- Accuracy -->
     <g transform="translate(14.798438 161.356125) rotate(-90) scale(0.1 -0.1)">
      <defs>
       <path id="DejaVuSans-41" d="M 2188 4044 
L 1331 1722 
L 3047 1722 
L 2188 4044 
z
M 1831 4666 
L 2547 4666 
L 4325 0 
L 3669 0 
L 3244 1197 
L 1141 1197 
L 716 0 
L 50 0 
L 1831 4666 
z
" transform="scale(0.015625)"/>
       <path id="DejaVuSans-75" d="M 544 1381 
L 544 3500 
L 1119 3500 
L 1119 1403 
Q 1119 906 1312 657 
Q 1506 409 1894 409 
Q 2359 409 2629 706 
Q 2900 1003 2900 1516 
L 2900 3500 
L 3475 3500 
L 3475 0 
L 2900 0 
L 2900 538 
Q 2691 219 2414 64 
Q 2138 -91 1772 -91 
Q 1169 -91 856 284 
Q 544 659 544 1381 
z
M 1991 3584 
L 1991 3584 
z
" transform="scale(0.015625)"/>
       <path id="DejaVuSans-72" d="M 2631 2963 
Q 2534 3019 2420 3045 
Q 2306 3072 2169 3072 
Q 1681 3072 1420 2755 
Q 1159 2438 1159 1844 
L 1159 0 
L 581 0 
L 581 3500 
L 1159 3500 
L 1159 2956 
Q 1341 3275 1631 3429 
Q 1922 3584 2338 3584 
Q 2397 3584 2469 3576 
Q 2541 3569 2628 3553 
L 2631 2963 
z
" transform="scale(0.015625)"/>
       <path id="DejaVuSans-61" d="M 2194 1759 
Q 1497 1759 1228 1600 
Q 959 1441 959 1056 
Q 959 750 1161 570 
Q 1363 391 1709 391 
Q 2188 391 2477 730 
Q 2766 1069 2766 1631 
L 2766 1759 
L 2194 1759 
z
M 3341 1997 
L 3341 0 
L 2766 0 
L 2766 531 
Q 2569 213 2275 61 
Q 1981 -91 1556 -91 
Q 1019 -91 701 211 
Q 384 513 384 1019 
Q 384 1609 779 1909 
Q 1175 2209 1959 2209 
L 2766 2209 
L 2766 2266 
Q 2766 2663 2505 2880 
Q 2244 3097 1772 3097 
Q 1472 3097 1187 3025 
Q 903 2953 641 2809 
L 641 3341 
Q 956 3463 1253 3523 
Q 1550 3584 1831 3584 
Q 2591 3584 2966 3190 
Q 3341 2797 3341 1997 
z
" transform="scale(0.015625)"/>
       <path id="DejaVuSans-79" d="M 2059 -325 
Q 1816 -950 1584 -1140 
Q 1353 -1331 966 -1331 
L 506 -1331 
L 506 -850 
L 844 -850 
Q 1081 -850 1212 -737 
Q 1344 -625 1503 -206 
L 1606 56 
L 191 3500 
L 800 3500 
L 1894 763 
L 2988 3500 
L 3597 3500 
L 2059 -325 
z
" transform="scale(0.015625)"/>
      </defs>
      <use xlink:href="#DejaVuSans-41"/>
      <use xlink:href="#DejaVuSans-63" x="66.658203"/>
      <use xlink:href="#DejaVuSans-63" x="121.638672"/>
      <use xlink:href="#DejaVuSans-75" x="176.619141"/>
      <use xlink:href="#DejaVuSans-72" x="239.998047"/>
      <use xlink:href="#DejaVuSans-61" x="281.111328"/>
      <use xlink:href="#DejaVuSans-63" x="342.390625"/>
      <use xlink:href="#DejaVuSans-79" x="397.371094"/>
     </g>
    </g>
   </g>
   <g id="line2d_31">
    <path d="M 62.825568 220.140943 
L 63.079458 197.253643 
L 63.587239 131.332703 
L 63.841129 121.053973 
L 64.095019 117.90183 
L 64.34891 106.937838 
L 64.6028 105.567342 
L 64.85669 110.364091 
L 65.364471 103.922765 
L 65.618361 108.171292 
L 65.872251 100.907663 
L 66.126141 102.552269 
L 66.887812 94.740419 
L 67.141702 92.684661 
L 67.395593 94.055186 
L 67.649483 94.055186 
L 67.903373 94.192227 
L 68.157264 89.80663 
L 68.411154 94.055186 
L 68.665044 93.781075 
L 68.918934 89.943671 
L 69.172825 91.999428 
L 69.680605 89.121367 
L 69.934495 89.532519 
L 70.188386 91.588277 
L 70.442276 89.80663 
L 70.696166 85.283992 
L 70.950056 88.710245 
L 71.203947 86.243336 
L 71.457837 93.232883 
L 71.711727 88.299093 
L 71.965617 86.380377 
L 72.219508 90.217781 
L 72.473398 85.283992 
L 72.727288 86.791528 
L 72.981178 90.765974 
L 73.235069 88.299093 
L 73.488959 82.954152 
L 73.996739 86.243336 
L 74.50452 83.365304 
L 74.75841 86.380377 
L 75.266191 81.172505 
L 75.520081 83.091193 
L 75.773971 80.350202 
L 76.027861 79.390858 
L 76.281752 83.776426 
L 76.535642 80.898395 
L 76.789532 81.994779 
L 77.043422 79.939051 
L 77.297313 81.857739 
L 77.551203 79.527899 
L 77.805093 79.66494 
L 78.058983 81.309546 
L 78.312874 79.116748 
L 78.566764 78.294445 
L 78.820654 79.527899 
L 79.074544 79.80201 
L 79.328435 76.786908 
L 79.582325 78.705596 
L 79.836215 82.26889 
L 80.090105 78.705596 
L 80.343996 83.639386 
L 80.597886 79.390858 
L 80.851776 78.842637 
L 81.105666 76.375757 
L 81.359557 77.609211 
L 81.613447 79.939051 
L 81.867337 76.649838 
L 82.121227 75.416413 
L 82.375118 78.020363 
L 82.629008 78.020363 
L 82.882898 80.761354 
L 83.136788 80.350202 
L 83.390679 76.649838 
L 83.644569 76.923949 
L 83.898459 72.675422 
L 84.15235 80.761354 
L 84.40624 74.731151 
L 84.66013 79.116748 
L 84.91402 77.19806 
L 85.167911 74.319999 
L 85.675691 77.746252 
L 85.929581 75.005261 
L 86.183472 80.076092 
L 86.437362 74.457069 
L 86.691252 75.279343 
L 86.945142 73.908847 
L 87.199033 73.497696 
L 87.452923 76.375757 
L 87.706813 75.690494 
L 87.960703 71.304926 
L 88.214594 71.579008 
L 88.468484 74.731151 
L 88.722374 76.101646 
L 88.976264 67.604563 
L 89.230155 73.908847 
L 89.484045 70.071472 
L 89.737935 73.223614 
L 90.245716 70.756705 
L 90.499606 69.249169 
L 90.753496 64.041268 
L 91.007386 68.289825 
L 91.261277 64.726531 
L 91.515167 71.716049 
L 91.769057 67.05637 
L 92.022947 67.741632 
L 92.530728 64.726531 
L 92.784618 68.152755 
L 93.038508 66.919329 
L 93.292399 69.249169 
L 93.546289 68.426866 
L 93.800179 68.700976 
L 94.054069 72.26427 
L 94.30796 65.822915 
L 94.56185 67.878673 
L 94.81574 64.178338 
L 95.06963 67.878673 
L 95.323521 66.645219 
L 95.577411 67.193411 
L 95.831301 61.84847 
L 96.085191 67.193411 
L 96.339082 66.508178 
L 96.592972 67.330481 
L 96.846862 66.508178 
L 97.100752 64.863572 
L 97.354643 68.426866 
L 97.608533 65.000612 
L 97.862423 66.508178 
L 98.116313 62.533732 
L 98.370204 71.579008 
L 98.624094 64.589461 
L 98.877984 70.071472 
L 99.385765 65.685875 
L 99.639655 66.645219 
L 99.893545 58.285176 
L 100.147436 66.919329 
L 100.401326 63.904228 
L 100.655216 69.66032 
L 101.162997 64.45242 
L 101.416887 65.274723 
L 101.670777 71.441967 
L 101.924667 63.081925 
L 102.178558 63.218965 
L 102.432448 69.934402 
L 102.686338 69.797361 
L 102.940228 63.767187 
L 103.194119 64.315379 
L 103.448009 61.163237 
L 103.701899 61.026167 
L 103.955789 61.300278 
L 104.20968 62.670773 
L 104.46357 66.371108 
L 104.71746 66.508178 
L 105.225241 62.259621 
L 105.479131 64.315379 
L 105.733021 61.98554 
L 105.986911 65.411764 
L 106.240802 61.98554 
L 106.494692 60.752085 
L 106.748582 60.340934 
L 107.002472 58.148135 
L 107.256363 62.259621 
L 107.510253 64.45242 
L 107.764143 59.792741 
L 108.018033 60.615044 
L 108.271924 58.833397 
L 108.525814 60.477974 
L 108.779704 59.24452 
L 109.033594 65.959985 
L 109.287485 57.188791 
L 109.541375 67.05637 
L 110.049155 64.589461 
L 110.303046 67.330481 
L 110.556936 61.437318 
L 111.064716 62.670773 
L 111.318607 59.107479 
L 111.572497 60.066823 
L 111.826387 59.929782 
L 112.080277 61.437318 
L 112.334168 61.574388 
L 112.841948 66.919329 
L 113.095838 63.493076 
L 113.349729 62.259621 
L 113.603619 62.670773 
L 113.857509 63.904228 
L 114.111399 64.315379 
L 114.36529 58.833397 
L 114.61918 63.767187 
L 114.87307 60.752085 
L 115.12696 59.929782 
L 115.380851 60.066823 
L 115.888631 58.833397 
L 116.142521 57.462873 
L 116.396412 54.995993 
L 116.650302 59.655671 
L 117.158083 58.148135 
L 117.665863 61.711429 
L 117.919753 61.300278 
L 118.173644 59.929782 
L 118.427534 57.188791 
L 118.681424 56.91468 
L 119.189205 59.24452 
L 119.443095 53.077305 
L 119.696985 57.325832 
L 120.204766 58.285176 
L 120.458656 58.696327 
L 120.712546 54.036649 
L 121.220327 57.05175 
L 121.474217 60.203893 
L 121.728107 56.229447 
L 121.981997 57.874024 
L 122.235888 58.148135 
L 122.489778 56.503529 
L 122.743668 56.503529 
L 122.997558 57.599943 
L 123.251449 61.163237 
L 123.505339 57.188791 
L 123.759229 58.833397 
L 124.26701 56.366488 
L 124.5209 57.05175 
L 124.77479 57.188791 
L 125.02868 60.066823 
L 125.282571 61.300278 
L 125.790351 58.148135 
L 126.044241 56.91468 
L 126.298132 53.488456 
L 126.805912 60.615044 
L 127.059802 58.559287 
L 127.313693 60.615044 
L 127.567583 57.05175 
L 127.821473 57.874024 
L 128.075363 61.711429 
L 128.329254 57.874024 
L 128.583144 59.518631 
L 128.837034 58.970438 
L 129.090924 57.05175 
L 129.344815 60.615044 
L 129.598705 57.188791 
L 129.852595 56.229447 
L 130.106485 57.599943 
L 130.614266 53.899579 
L 130.868156 58.833397 
L 131.122046 52.666153 
L 131.375937 55.955337 
L 131.629827 52.803194 
L 131.883717 57.874024 
L 132.137607 57.736984 
L 132.391498 56.366488 
L 132.645388 53.899579 
L 132.899278 57.736984 
L 133.153169 57.736984 
L 133.407059 56.366488 
L 133.660949 59.107479 
L 133.914839 55.955337 
L 134.16873 55.955337 
L 134.42262 60.203893 
L 134.67651 54.036649 
L 135.184291 59.38159 
L 135.438181 55.955337 
L 135.692071 59.929782 
L 135.945961 53.488456 
L 136.199852 53.488456 
L 136.453742 59.792741 
L 136.707632 56.503529 
L 136.961522 55.681226 
L 137.215413 53.488456 
L 137.469303 55.544185 
L 137.723193 54.995993 
L 137.977083 58.422246 
L 138.484864 54.721882 
L 139.246535 62.533732 
L 139.500425 57.188791 
L 139.754315 57.325832 
L 140.008205 54.4478 
L 140.262096 58.011094 
L 140.515986 57.188791 
L 140.769876 58.559287 
L 141.277657 56.91468 
L 141.785437 52.117932 
L 142.039327 55.955337 
L 142.293218 50.884506 
L 142.547108 52.666153 
L 142.800998 53.351386 
L 143.054888 50.884506 
L 143.308779 55.270103 
L 143.562669 57.05175 
L 143.816559 54.31073 
L 144.32434 57.188791 
L 144.57823 60.203893 
L 144.83212 53.488456 
L 145.08601 59.107479 
L 145.339901 55.407144 
L 145.593791 57.874024 
L 145.847681 58.011094 
L 146.101571 53.899579 
L 146.355462 59.24452 
L 146.609352 56.503529 
L 146.863242 57.188791 
L 147.117132 54.036649 
L 147.371023 55.133033 
L 147.624913 52.117932 
L 147.878803 56.77764 
L 148.132693 56.640599 
L 148.386584 55.818296 
L 148.640474 57.05175 
L 148.894364 54.4478 
L 149.148255 53.351386 
L 149.402145 60.889126 
L 149.656035 54.858952 
L 149.909925 52.803194 
L 150.417706 57.462873 
L 150.671596 54.858952 
L 150.925486 61.98554 
L 151.179377 56.503529 
L 151.433267 58.148135 
L 151.687157 56.229447 
L 151.941047 52.666153 
L 152.448828 54.584841 
L 152.702718 51.980891 
L 152.956608 56.77764 
L 153.210499 54.31073 
L 153.464389 59.655671 
L 153.718279 53.077305 
L 153.972169 53.488456 
L 154.22606 53.351386 
L 154.47995 57.462873 
L 154.98773 49.788092 
L 155.495511 57.462873 
L 155.749401 56.092377 
L 156.003291 57.599943 
L 156.257182 50.473355 
L 156.511072 58.970438 
L 156.764962 56.366488 
L 157.272743 53.899579 
L 158.034413 58.833397 
L 158.288304 55.407144 
L 158.542194 54.721882 
L 158.796084 50.336285 
L 159.049974 56.366488 
L 159.303865 51.432699 
L 159.557755 55.133033 
L 159.811645 55.955337 
L 160.065535 54.4478 
L 160.319426 58.011094 
L 160.573316 54.721882 
L 160.827206 52.940235 
L 161.081096 53.214346 
L 161.334987 55.955337 
L 161.588877 54.17369 
L 161.842767 55.133033 
L 162.096657 53.762538 
L 162.350548 56.91468 
L 162.604438 51.432699 
L 162.858328 57.462873 
L 163.112218 54.584841 
L 163.366109 59.929782 
L 163.619999 51.021547 
L 163.873889 53.077305 
L 164.127779 58.422246 
L 164.38167 52.940235 
L 164.63556 55.955337 
L 164.88945 55.681226 
L 165.14334 54.584841 
L 165.397231 57.874024 
L 165.651121 55.133033 
L 165.905011 55.544185 
L 166.158902 52.803194 
L 166.412792 56.91468 
L 166.666682 51.84385 
L 166.920572 55.955337 
L 167.174463 51.021547 
L 167.428353 52.666153 
L 167.682243 55.270103 
L 167.936133 55.407144 
L 168.190024 55.407144 
L 168.443914 51.158588 
L 168.697804 56.366488 
L 168.951694 58.422246 
L 169.205585 56.092377 
L 169.459475 55.681226 
L 169.713365 53.625497 
L 169.967255 55.544185 
L 170.221146 55.955337 
L 170.475036 55.955337 
L 170.728926 52.529083 
L 170.982816 53.488456 
L 171.236707 52.529083 
L 171.490597 53.488456 
L 171.744487 53.488456 
L 171.998377 58.559287 
L 172.252268 57.05175 
L 172.506158 52.392043 
L 172.760048 52.392043 
L 173.013938 50.336285 
L 173.267829 57.188791 
L 173.521719 52.666153 
L 173.775609 55.407144 
L 174.029499 61.026167 
L 174.28339 51.432699 
L 174.53728 53.351386 
L 174.79117 56.503529 
L 175.298951 55.133033 
L 175.552841 51.84385 
L 175.806731 55.133033 
L 176.060621 55.270103 
L 176.314512 58.011094 
L 176.568402 57.05175 
L 176.822292 58.559287 
L 177.076182 57.188791 
L 177.330073 49.925162 
L 177.583963 58.696327 
L 178.091743 55.133033 
L 178.345634 55.818296 
L 178.599524 52.392043 
L 178.853414 52.803194 
L 179.107304 58.285176 
L 179.615085 51.432699 
L 179.868975 52.117932 
L 180.122865 53.488456 
L 180.376756 54.17369 
L 180.630646 53.625497 
L 180.884536 53.351386 
L 181.138426 53.488456 
L 181.392317 58.148135 
L 181.646207 54.17369 
L 181.900097 55.818296 
L 182.153988 53.351386 
L 182.407878 57.599943 
L 182.661768 56.640599 
L 182.915658 53.899579 
L 183.169549 53.214346 
L 183.423439 53.077305 
L 183.677329 54.036649 
L 183.931219 53.351386 
L 184.18511 53.077305 
L 184.439 50.747436 
L 184.69289 57.599943 
L 184.94678 59.38159 
L 185.200671 50.747436 
L 185.454561 53.899579 
L 185.708451 52.392043 
L 185.962341 54.584841 
L 186.216232 55.681226 
L 186.470122 54.858952 
L 186.724012 54.995993 
L 186.977902 56.092377 
L 187.231793 51.980891 
L 187.485683 52.803194 
L 187.739573 51.432699 
L 188.247354 56.503529 
L 188.501244 54.721882 
L 188.755134 57.599943 
L 189.009024 50.199244 
L 189.262915 55.955337 
L 189.516805 54.995993 
L 189.770695 56.092377 
L 190.024585 54.4478 
L 190.278476 61.300278 
L 190.532366 56.229447 
L 191.040146 54.721882 
L 191.294037 54.721882 
L 191.547927 57.736984 
L 191.801817 52.255002 
L 192.309598 54.17369 
L 192.563488 52.666153 
L 192.817378 53.077305 
L 193.071268 51.706809 
L 193.325159 54.17369 
L 193.579049 53.488456 
L 193.832939 53.351386 
L 194.086829 51.706809 
L 194.34072 55.955337 
L 194.59461 51.021547 
L 194.8485 55.818296 
L 195.10239 51.158588 
L 195.356281 52.255002 
L 195.610171 56.640599 
L 195.864061 52.666153 
L 196.117951 54.995993 
L 196.371842 55.133033 
L 196.625732 55.955337 
L 196.879622 55.407144 
L 197.133512 52.666153 
L 197.387403 52.940235 
L 197.641293 55.133033 
L 197.895183 49.514011 
L 198.149074 60.477974 
L 198.402964 54.4478 
L 198.656854 52.117932 
L 198.910744 56.503529 
L 199.164635 53.214346 
L 199.418525 54.858952 
L 199.672415 52.940235 
L 199.926305 54.721882 
L 200.180196 53.214346 
L 200.434086 50.199244 
L 200.687976 53.488456 
L 200.941866 58.833397 
L 201.195757 52.666153 
L 201.703537 57.325832 
L 201.957427 57.188791 
L 202.211318 52.940235 
L 202.465208 53.488456 
L 202.719098 56.91468 
L 202.972988 53.351386 
L 203.226879 55.681226 
L 203.480769 55.407144 
L 203.734659 59.107479 
L 203.988549 53.488456 
L 204.24244 52.117932 
L 204.49633 53.077305 
L 204.75022 53.214346 
L 205.00411 52.666153 
L 205.258001 50.473355 
L 205.511891 58.285176 
L 205.765781 52.940235 
L 206.019671 54.036649 
L 206.273562 53.077305 
L 206.527452 49.514011 
L 206.781342 51.295658 
L 207.035232 51.84385 
L 207.289123 50.473355 
L 207.543013 56.91468 
L 208.050793 49.2399 
L 208.304684 50.473355 
L 208.812464 54.995993 
L 209.066354 53.488456 
L 209.320245 52.666153 
L 209.574135 50.473355 
L 209.828025 56.640599 
L 210.081915 53.214346 
L 210.335806 52.666153 
L 210.589696 54.4478 
L 210.843586 53.625497 
L 211.097476 51.158588 
L 211.351367 56.229447 
L 211.605257 54.995993 
L 211.859147 56.77764 
L 212.113037 52.803194 
L 212.366928 52.803194 
L 212.620818 52.940235 
L 212.874708 54.036649 
L 213.128598 57.325832 
L 213.382489 56.91468 
L 213.636379 54.721882 
L 213.890269 50.884506 
L 214.14416 53.762538 
L 214.39805 54.721882 
L 214.90583 52.392043 
L 215.159721 52.803194 
L 215.413611 57.05175 
L 215.667501 55.818296 
L 215.921391 52.666153 
L 216.175282 56.229447 
L 216.429172 54.31073 
L 216.683062 54.721882 
L 216.936952 50.336285 
L 217.444733 53.762538 
L 217.698623 51.021547 
L 217.952513 50.062203 
L 218.206404 51.84385 
L 218.460294 52.255002 
L 218.714184 48.417597 
L 218.968074 52.803194 
L 219.221965 51.706809 
L 219.475855 51.295658 
L 219.729745 50.473355 
L 219.983635 58.011094 
L 220.237526 52.529083 
L 220.491416 53.899579 
L 220.745306 56.640599 
L 221.506977 50.884506 
L 221.760867 56.092377 
L 222.014757 53.077305 
L 222.268648 57.05175 
L 222.522538 50.062203 
L 222.776428 56.229447 
L 223.030318 54.4478 
L 223.284209 54.4478 
L 223.538099 54.721882 
L 223.791989 56.092377 
L 224.045879 52.803194 
L 224.29977 51.569739 
L 224.55366 53.214346 
L 224.80755 56.092377 
L 225.06144 56.640599 
L 225.315331 55.407144 
L 225.569221 49.925162 
L 225.823111 55.681226 
L 226.077001 58.011094 
L 226.330892 52.940235 
L 226.584782 58.696327 
L 227.092562 52.803194 
L 227.346453 55.133033 
L 227.600343 49.925162 
L 227.854233 51.84385 
L 228.108123 52.666153 
L 228.362014 51.158588 
L 228.615904 53.351386 
L 228.869794 52.117932 
L 229.123684 53.625497 
L 229.377575 52.117932 
L 229.631465 52.666153 
L 229.885355 55.407144 
L 230.139245 51.158588 
L 230.393136 54.721882 
L 230.647026 46.498909 
L 231.154807 56.092377 
L 231.408697 56.91468 
L 231.662587 59.792741 
L 232.170368 51.432699 
L 232.424258 53.351386 
L 232.678148 49.2399 
L 232.932038 51.706809 
L 233.185929 53.077305 
L 233.439819 52.529083 
L 233.693709 53.214346 
L 233.947599 55.133033 
L 234.20149 54.31073 
L 234.45538 56.91468 
L 234.70927 51.432699 
L 234.96316 52.392043 
L 235.217051 52.803194 
L 235.470941 54.995993 
L 235.724831 53.625497 
L 235.978721 58.970438 
L 236.232612 53.077305 
L 236.486502 55.270103 
L 236.740392 56.366488 
L 236.994282 53.214346 
L 237.248173 51.706809 
L 237.755953 59.107479 
L 238.009843 60.203893 
L 238.263734 51.158588 
L 238.517624 53.214346 
L 238.771514 57.05175 
L 239.025404 51.706809 
L 239.279295 52.255002 
L 239.533185 48.965789 
L 240.040965 53.625497 
L 240.294856 50.062203 
L 240.548746 60.889126 
L 240.802636 53.625497 
L 241.056526 57.462873 
L 241.310417 54.721882 
L 241.564307 54.721882 
L 241.818197 52.392043 
L 242.072087 55.270103 
L 242.325978 55.818296 
L 242.579868 51.569739 
L 242.833758 55.407144 
L 243.087648 51.980891 
L 243.341539 52.666153 
L 243.849319 51.980891 
L 244.103209 49.102859 
L 244.3571 48.006445 
L 244.61099 52.529083 
L 244.86488 50.336285 
L 245.11877 51.158588 
L 245.372661 53.762538 
L 245.626551 52.392043 
L 245.880441 53.488456 
L 246.134331 56.229447 
L 246.388222 49.514011 
L 246.642112 55.955337 
L 246.896002 51.432699 
L 247.149893 54.4478 
L 247.403783 53.625497 
L 247.657673 53.762538 
L 247.911563 53.488456 
L 248.165454 54.17369 
L 248.419344 54.31073 
L 248.673234 50.610396 
L 248.927124 50.062203 
L 249.181015 50.884506 
L 249.942685 55.955337 
L 250.450466 51.706809 
L 250.704356 50.062203 
L 250.958246 56.229447 
L 251.212137 53.488456 
L 251.466027 53.899579 
L 251.719917 58.422246 
L 251.973807 56.77764 
L 252.227698 52.803194 
L 252.481588 55.818296 
L 252.735478 54.584841 
L 252.989368 54.995993 
L 253.243259 52.803194 
L 253.751039 61.437318 
L 254.004929 56.229447 
L 254.25882 58.011094 
L 254.51271 51.021547 
L 254.7666 54.995993 
L 255.02049 52.529083 
L 255.274381 53.762538 
L 255.528271 53.625497 
L 255.782161 52.392043 
L 256.289942 53.762538 
L 256.543832 52.255002 
L 257.051612 57.188791 
L 257.305503 55.681226 
L 257.559393 55.681226 
L 257.813283 53.077305 
L 258.067173 58.422246 
L 258.321064 51.980891 
L 258.574954 54.584841 
L 258.828844 51.980891 
L 259.082734 54.995993 
L 259.336625 51.980891 
L 259.590515 54.4478 
L 259.844405 53.077305 
L 260.098295 53.899579 
L 260.352186 50.473355 
L 260.606076 54.995993 
L 260.859966 52.255002 
L 261.113856 51.569739 
L 261.367747 55.681226 
L 261.621637 53.214346 
L 261.875527 53.762538 
L 262.129417 53.762538 
L 262.383308 54.31073 
L 262.637198 51.84385 
L 262.891088 51.84385 
L 263.144979 56.503529 
L 263.398869 52.666153 
L 263.906649 55.681226 
L 264.16054 55.544185 
L 264.41443 52.392043 
L 264.66832 55.818296 
L 264.92221 52.392043 
L 265.176101 52.940235 
L 265.429991 57.874024 
L 265.683881 60.203893 
L 265.937771 55.270103 
L 266.191662 54.721882 
L 266.445552 59.24452 
L 266.699442 49.788092 
L 266.953332 58.422246 
L 267.207223 51.432699 
L 267.461113 57.05175 
L 267.715003 54.858952 
L 267.968893 54.036649 
L 268.222784 52.529083 
L 268.476674 55.133033 
L 268.730564 56.092377 
L 268.984454 54.036649 
L 269.238345 55.681226 
L 269.492235 51.84385 
L 269.746125 54.036649 
L 270.000015 52.666153 
L 270.253906 60.203893 
L 270.507796 58.559287 
L 270.761686 58.696327 
L 271.015576 55.681226 
L 271.269467 56.229447 
L 271.777247 52.666153 
L 272.031137 57.05175 
L 272.285028 54.31073 
L 272.538918 56.91468 
L 272.792808 55.544185 
L 273.046698 49.651052 
L 273.300589 54.721882 
L 273.554479 54.858952 
L 273.808369 55.407144 
L 274.062259 54.17369 
L 274.31615 56.503529 
L 274.57004 53.488456 
L 274.82393 48.417597 
L 275.07782 53.351386 
L 275.331711 55.544185 
L 275.585601 52.666153 
L 275.839491 52.940235 
L 276.093381 54.31073 
L 276.347272 52.255002 
L 276.601162 53.899579 
L 276.855052 53.625497 
L 277.108942 53.762538 
L 277.362833 54.31073 
L 277.616723 51.569739 
L 277.870613 54.17369 
L 278.124503 58.559287 
L 278.378394 51.021547 
L 278.886174 55.955337 
L 279.140064 54.4478 
L 279.393955 58.559287 
L 279.647845 56.640599 
L 279.901735 56.366488 
L 280.155626 56.91468 
L 280.409516 57.874024 
L 280.663406 56.77764 
L 280.917296 52.255002 
L 281.171187 53.899579 
L 281.425077 52.940235 
L 281.678967 53.077305 
L 281.932857 54.17369 
L 282.186748 57.874024 
L 282.440638 49.925162 
L 282.694528 54.17369 
L 282.948418 54.858952 
L 283.202309 58.148135 
L 283.456199 55.955337 
L 283.710089 49.514011 
L 283.963979 56.503529 
L 284.47176 50.336285 
L 284.97954 52.392043 
L 285.233431 52.940235 
L 285.487321 52.940235 
L 285.741211 54.721882 
L 285.995101 52.117932 
L 286.248992 50.884506 
L 286.502882 56.229447 
L 286.756772 57.736984 
L 287.010662 52.666153 
L 287.264553 55.407144 
L 287.518443 54.17369 
L 287.772333 53.899579 
L 288.026223 50.884506 
L 288.280114 56.229447 
L 288.534004 55.133033 
L 289.041784 52.529083 
L 289.295675 51.158588 
L 289.549565 53.899579 
L 289.803455 51.84385 
L 290.057345 53.488456 
L 290.311236 56.77764 
L 290.565126 54.584841 
L 290.819016 53.625497 
L 291.072906 58.696327 
L 291.580687 51.158588 
L 291.834577 54.17369 
L 292.088467 55.681226 
L 292.342358 55.270103 
L 292.596248 55.955337 
L 292.850138 54.036649 
L 293.357919 55.544185 
L 293.611809 49.925162 
L 293.865699 53.214346 
L 294.119589 58.011094 
L 294.37348 52.666153 
L 294.62737 52.940235 
L 294.88126 57.325832 
L 295.13515 54.17369 
L 295.389041 53.762538 
L 295.642931 52.392043 
L 295.896821 55.270103 
L 296.150712 53.488456 
L 296.404602 58.148135 
L 296.658492 51.021547 
L 296.912382 59.518631 
L 297.166273 53.488456 
L 297.420163 54.17369 
L 297.674053 53.762538 
L 297.927943 57.874024 
L 298.181834 56.092377 
L 298.435724 59.24452 
L 298.689614 54.036649 
L 298.943504 56.503529 
L 299.197395 56.77764 
L 299.451285 55.544185 
L 299.705175 55.133033 
L 299.959065 58.011094 
L 300.212956 52.666153 
L 300.466846 52.117932 
L 300.720736 54.31073 
L 300.974626 51.432699 
L 301.228517 54.31073 
L 301.482407 54.17369 
L 301.736297 54.995993 
L 301.990187 53.214346 
L 302.244078 53.351386 
L 302.497968 53.762538 
L 302.751858 54.584841 
L 303.005748 57.325832 
L 303.513529 53.488456 
L 304.021309 62.259621 
L 304.2752 55.133033 
L 304.52909 52.803194 
L 304.78298 53.351386 
L 305.03687 52.392043 
L 305.290761 54.17369 
L 305.544651 56.77764 
L 305.798541 50.199244 
L 306.052431 57.05175 
L 306.306322 53.762538 
L 306.560212 54.31073 
L 306.814102 51.432699 
L 307.067992 58.148135 
L 307.321883 54.4478 
L 307.575773 54.995993 
L 307.829663 48.691708 
L 308.083553 53.214346 
L 308.337444 51.295658 
L 308.591334 53.214346 
L 308.845224 60.752085 
L 309.099114 52.529083 
L 309.353005 52.803194 
L 309.606895 57.325832 
L 309.860785 55.544185 
L 310.114675 52.392043 
L 310.368566 53.351386 
L 310.622456 50.747436 
L 310.876346 54.721882 
L 311.130236 56.640599 
L 311.384127 52.392043 
L 311.638017 55.818296 
L 311.891907 56.092377 
L 312.145798 56.640599 
L 312.399688 55.407144 
L 312.653578 50.610396 
L 312.907468 53.488456 
L 313.161359 57.874024 
L 313.415249 58.559287 
L 313.669139 50.336285 
L 313.923029 56.229447 
L 314.17692 57.599943 
L 314.43081 52.117932 
L 314.6847 52.803194 
L 314.93859 55.407144 
L 315.192481 51.706809 
L 315.446371 51.980891 
L 315.700261 51.84385 
L 315.954151 54.036649 
L 316.208042 50.199244 
L 316.461932 52.940235 
L 316.461932 52.940235 
" clip-path="url(#p64dcdc8fa0)" style="fill: none; stroke: #0000ff; stroke-width: 0.6; stroke-linecap: square"/>
   </g>
   <g id="line2d_32">
    <path d="M 62.825568 230.557091 
L 63.079458 165.6534 
L 63.333349 197.945393 
L 63.587239 117.69498 
L 63.841129 130.803629 
L 64.34891 107.144137 
L 64.6028 110.980818 
L 64.85669 137.517791 
L 65.11058 109.701915 
L 65.364471 110.980818 
L 65.618361 109.701915 
L 65.872251 103.307486 
L 66.126141 112.259721 
L 66.380032 125.368341 
L 66.633922 98.831368 
L 66.887812 110.980818 
L 67.141702 110.021648 
L 67.395593 111.620255 
L 67.649483 107.783604 
L 67.903373 99.470805 
L 68.411154 109.701915 
L 68.665044 127.926118 
L 68.918934 103.62719 
L 69.172825 99.470805 
L 69.426715 102.348316 
L 69.680605 112.899158 
L 69.934495 155.102557 
L 70.188386 103.307486 
L 70.442276 113.218862 
L 70.696166 128.565556 
L 70.950056 104.58636 
L 71.203947 100.110242 
L 71.457837 106.824433 
L 71.711727 98.191902 
L 71.965617 103.946923 
L 72.219508 97.872198 
L 72.473398 116.416106 
L 72.727288 115.456936 
L 72.981178 142.953079 
L 73.235069 142.953079 
L 73.488959 100.74968 
L 73.742849 108.423041 
L 73.996739 110.341381 
L 74.25063 148.068633 
L 74.50452 108.103308 
L 74.75841 105.865263 
L 75.0123 107.144137 
L 75.266191 103.307486 
L 75.773971 99.790538 
L 76.027861 110.980818 
L 76.535642 100.74968 
L 76.789532 112.259721 
L 77.043422 130.483896 
L 77.551203 100.74968 
L 77.805093 121.851394 
L 78.058983 106.184967 
L 78.312874 108.423041 
L 78.820654 121.851394 
L 79.074544 97.872198 
L 79.328435 141.034738 
L 79.582325 117.375276 
L 79.836215 132.721969 
L 80.090105 106.824433 
L 80.343996 116.416106 
L 80.597886 114.178032 
L 80.851776 104.906093 
L 81.105666 143.592516 
L 81.359557 113.858328 
L 81.613447 114.817499 
L 81.867337 143.592516 
L 82.121227 113.218862 
L 82.375118 103.946923 
L 82.629008 167.57174 
L 82.882898 108.103308 
L 83.136788 118.014713 
L 83.390679 107.463871 
L 83.644569 105.54553 
L 83.898459 105.225797 
L 84.15235 103.62719 
L 84.40624 111.939988 
L 84.66013 104.266656 
L 84.91402 188.673425 
L 85.167911 113.858328 
L 85.421801 110.980818 
L 85.675691 102.348316 
L 85.929581 115.137203 
L 86.183472 111.939988 
L 86.437362 101.70885 
L 86.691252 150.62644 
L 86.945142 119.293616 
L 87.199033 122.810564 
L 87.706813 111.620255 
L 87.960703 108.423041 
L 88.214594 124.409171 
L 88.468484 109.382211 
L 88.722374 121.851394 
L 88.976264 95.314421 
L 89.230155 113.538595 
L 89.484045 111.939988 
L 89.737935 122.490831 
L 89.991825 110.341381 
L 90.245716 105.225797 
L 90.499606 106.184967 
L 90.753496 123.769734 
L 91.007386 119.293616 
L 91.261277 151.905314 
L 91.515167 138.476961 
L 91.769057 114.817499 
L 92.276838 111.939988 
L 92.530728 109.382211 
L 92.784618 153.184217 
L 93.546289 112.899158 
L 93.800179 123.769734 
L 94.054069 109.382211 
L 94.30796 154.143387 
L 94.56185 110.341381 
L 94.81574 113.218862 
L 95.06963 118.014713 
L 95.323521 106.5047 
L 95.577411 119.933053 
L 95.831301 115.137203 
L 96.085191 179.401457 
L 96.339082 101.389146 
L 96.846862 108.742774 
L 97.100752 122.490831 
L 97.354643 110.341381 
L 97.608533 164.374497 
L 97.862423 106.184967 
L 98.116313 171.408392 
L 98.370204 117.375276 
L 98.624094 102.028583 
L 98.877984 104.58636 
L 99.131874 104.266656 
L 99.385765 135.59945 
L 99.639655 109.382211 
L 99.893545 114.817499 
L 100.147436 115.776669 
L 100.401326 109.382211 
L 100.909106 122.171098 
L 101.416887 102.66802 
L 101.670777 109.062478 
L 101.924667 124.409171 
L 102.178558 107.463871 
L 102.432448 129.205022 
L 102.686338 105.54553 
L 102.940228 107.144137 
L 103.194119 134.960013 
L 103.448009 110.661085 
L 103.701899 104.906093 
L 103.955789 110.661085 
L 104.20968 112.259721 
L 104.46357 116.416106 
L 104.71746 105.865263 
L 104.97135 117.055543 
L 105.225241 138.476961 
L 105.479131 108.423041 
L 105.733021 142.953079 
L 105.986911 103.62719 
L 106.240802 125.688074 
L 106.494692 109.062478 
L 106.748582 105.54553 
L 107.002472 108.742774 
L 107.256363 126.647215 
L 107.510253 116.735839 
L 107.764143 144.871419 
L 108.271924 103.307486 
L 108.525814 116.096373 
L 108.779704 105.865263 
L 109.033594 107.144137 
L 109.287485 194.108713 
L 109.541375 104.266656 
L 109.795265 110.661085 
L 110.049155 109.382211 
L 110.303046 103.946923 
L 110.556936 110.661085 
L 110.810826 111.300551 
L 111.064716 104.58636 
L 111.318607 110.341381 
L 111.572497 111.620255 
L 111.826387 125.688074 
L 112.080277 114.817499 
L 112.334168 116.096373 
L 112.588058 108.103308 
L 112.841948 107.463871 
L 113.095838 106.184967 
L 113.349729 131.443066 
L 113.603619 109.701915 
L 113.857509 118.334446 
L 114.111399 107.783604 
L 114.36529 119.61332 
L 114.61918 118.973883 
L 114.87307 114.817499 
L 115.12696 101.069413 
L 115.634741 125.368341 
L 115.888631 112.579425 
L 116.142521 114.817499 
L 116.396412 139.755864 
L 116.650302 110.021648 
L 116.904192 107.463871 
L 117.158083 107.144137 
L 117.411973 115.456936 
L 117.665863 104.58636 
L 117.919753 110.021648 
L 118.427534 131.123333 
L 118.681424 108.742774 
L 119.189205 123.130268 
L 119.696985 107.144137 
L 119.950875 110.980818 
L 120.204766 105.54553 
L 120.458656 103.307486 
L 120.712546 127.286681 
L 120.966436 115.776669 
L 121.220327 111.939988 
L 121.474217 112.579425 
L 121.728107 123.450001 
L 122.235888 105.225797 
L 122.489778 111.300551 
L 122.743668 113.858328 
L 122.997558 122.810564 
L 123.251449 105.225797 
L 123.759229 108.103308 
L 124.013119 152.864484 
L 124.26701 103.946923 
L 124.77479 122.490831 
L 125.02868 151.265877 
L 125.282571 127.606385 
L 125.536461 117.69498 
L 125.790351 127.286681 
L 126.044241 108.742774 
L 126.298132 108.103308 
L 126.552022 105.865263 
L 126.805912 100.74968 
L 127.059802 109.382211 
L 127.313693 125.688074 
L 127.567583 111.620255 
L 127.821473 122.171098 
L 128.075363 112.899158 
L 128.329254 139.436131 
L 128.837034 109.701915 
L 129.090924 139.116427 
L 129.598705 114.497766 
L 129.852595 109.701915 
L 130.106485 110.341381 
L 130.360376 115.456936 
L 130.614266 107.783604 
L 130.868156 110.341381 
L 131.122046 124.728904 
L 131.375937 116.096373 
L 131.629827 118.014713 
L 131.883717 122.810564 
L 132.391498 109.382211 
L 132.645388 129.205022 
L 132.899278 126.647215 
L 133.153169 109.062478 
L 133.407059 108.423041 
L 133.660949 109.062478 
L 133.914839 104.266656 
L 134.16873 105.54553 
L 134.42262 113.858328 
L 134.67651 113.538595 
L 134.9304 104.906093 
L 135.692071 110.661085 
L 135.945961 111.620255 
L 136.199852 121.211956 
L 136.453742 105.54553 
L 136.707632 106.824433 
L 137.215413 118.65415 
L 137.469303 113.858328 
L 137.723193 106.5047 
L 137.977083 115.137203 
L 138.230974 132.082503 
L 138.484864 107.783604 
L 138.738754 127.926118 
L 138.992644 111.939988 
L 139.246535 112.579425 
L 139.500425 113.858328 
L 139.754315 110.661085 
L 140.008205 111.939988 
L 140.262096 103.62719 
L 140.515986 163.415326 
L 140.769876 119.61332 
L 141.023766 117.375276 
L 141.277657 119.933053 
L 141.531547 110.661085 
L 141.785437 113.538595 
L 142.039327 111.939988 
L 142.293218 141.354471 
L 142.547108 110.980818 
L 143.054888 120.252786 
L 143.562669 109.062478 
L 143.816559 111.300551 
L 144.070449 120.252786 
L 144.32434 118.973883 
L 144.57823 116.096373 
L 144.83212 125.048608 
L 145.08601 110.021648 
L 145.339901 107.783604 
L 145.593791 121.531661 
L 145.847681 107.783604 
L 146.355462 113.538595 
L 146.609352 109.701915 
L 146.863242 147.748929 
L 147.117132 119.293616 
L 147.624913 105.54553 
L 147.878803 111.300551 
L 148.132693 119.933053 
L 148.386584 110.021648 
L 148.640474 119.933053 
L 148.894364 123.450001 
L 149.148255 106.184967 
L 149.402145 104.906093 
L 149.656035 108.742774 
L 149.909925 110.021648 
L 150.163816 121.851394 
L 150.417706 111.939988 
L 150.671596 116.416106 
L 150.925486 159.258942 
L 151.179377 123.769734 
L 151.433267 109.062478 
L 151.687157 115.456936 
L 151.941047 106.184967 
L 152.194938 111.300551 
L 152.448828 106.184967 
L 152.702718 107.144137 
L 152.956608 107.144137 
L 153.210499 129.524726 
L 153.464389 108.103308 
L 153.718279 107.144137 
L 153.972169 104.58636 
L 154.22606 104.58636 
L 154.47995 129.524726 
L 154.98773 109.701915 
L 155.241621 109.062478 
L 155.495511 117.375276 
L 155.749401 137.837524 
L 156.003291 108.103308 
L 156.257182 107.463871 
L 156.511072 111.300551 
L 156.764962 117.69498 
L 157.018852 107.463871 
L 157.526633 129.844459 
L 157.780523 103.307486 
L 158.034413 130.803629 
L 158.288304 128.565556 
L 158.542194 109.382211 
L 159.049974 134.640309 
L 159.303865 110.661085 
L 159.557755 111.939988 
L 159.811645 106.5047 
L 160.065535 121.531661 
L 160.319426 120.892223 
L 160.573316 111.939988 
L 160.827206 118.65415 
L 161.081096 118.65415 
L 161.334987 121.851394 
L 161.588877 131.443066 
L 161.842767 118.334446 
L 162.096657 111.939988 
L 162.350548 124.728904 
L 162.858328 108.103308 
L 163.112218 112.259721 
L 163.366109 105.54553 
L 163.619999 118.334446 
L 163.873889 119.933053 
L 164.127779 110.980818 
L 164.38167 122.810564 
L 164.63556 125.688074 
L 164.88945 111.300551 
L 165.14334 124.409171 
L 165.397231 116.735839 
L 165.651121 114.497766 
L 165.905011 116.735839 
L 166.158902 109.382211 
L 166.412792 110.021648 
L 166.666682 113.218862 
L 166.920572 125.688074 
L 167.174463 125.368341 
L 167.428353 133.361406 
L 167.682243 103.307486 
L 167.936133 110.341381 
L 168.190024 125.368341 
L 168.443914 126.647215 
L 168.951694 104.906093 
L 169.205585 105.225797 
L 169.459475 104.58636 
L 169.713365 118.65415 
L 170.221146 107.463871 
L 170.475036 112.259721 
L 170.728926 140.395301 
L 170.982816 118.65415 
L 171.236707 121.531661 
L 171.490597 127.926118 
L 171.744487 119.61332 
L 171.998377 106.824433 
L 172.252268 107.144137 
L 172.506158 114.817499 
L 172.760048 113.538595 
L 173.267829 107.463871 
L 173.521719 116.096373 
L 173.775609 158.299772 
L 174.029499 113.538595 
L 174.28339 109.062478 
L 174.53728 112.579425 
L 174.79117 133.041673 
L 175.04506 109.062478 
L 175.298951 105.225797 
L 175.552841 111.620255 
L 175.806731 122.171098 
L 176.060621 106.824433 
L 176.568402 111.300551 
L 176.822292 108.423041 
L 177.076182 121.531661 
L 177.837853 110.661085 
L 178.091743 121.211956 
L 178.345634 118.334446 
L 178.599524 109.062478 
L 178.853414 116.096373 
L 179.107304 111.300551 
L 179.361195 113.858328 
L 179.615085 111.620255 
L 179.868975 121.211956 
L 180.122865 106.184967 
L 180.376756 117.69498 
L 180.630646 113.858328 
L 180.884536 124.728904 
L 181.138426 123.130268 
L 181.646207 113.218862 
L 181.900097 116.735839 
L 182.153988 111.300551 
L 182.407878 118.65415 
L 182.661768 132.082503 
L 182.915658 118.973883 
L 183.169549 116.096373 
L 183.423439 107.463871 
L 184.18511 130.483896 
L 184.439 112.579425 
L 184.69289 115.137203 
L 185.200671 108.423041 
L 185.454561 129.524726 
L 185.708451 114.497766 
L 185.962341 123.769734 
L 186.216232 105.54553 
L 186.470122 118.65415 
L 186.724012 105.865263 
L 187.231793 121.531661 
L 187.485683 109.062478 
L 187.739573 118.65415 
L 187.993463 122.810564 
L 188.247354 107.783604 
L 188.501244 117.69498 
L 188.755134 108.742774 
L 189.009024 110.021648 
L 189.262915 122.171098 
L 189.516805 115.137203 
L 189.770695 119.933053 
L 190.024585 118.334446 
L 190.278476 110.980818 
L 190.532366 118.334446 
L 190.786256 119.61332 
L 191.040146 117.375276 
L 191.294037 128.565556 
L 191.547927 111.939988 
L 191.801817 112.259721 
L 192.055707 118.973883 
L 192.563488 105.225797 
L 192.817378 123.769734 
L 193.325159 112.579425 
L 193.579049 114.497766 
L 193.832939 125.688074 
L 194.086829 110.980818 
L 194.34072 126.007778 
L 194.59461 118.334446 
L 194.8485 129.205022 
L 195.10239 128.565556 
L 195.356281 136.238917 
L 195.610171 110.021648 
L 195.864061 117.375276 
L 196.117951 117.69498 
L 196.371842 111.300551 
L 196.625732 116.735839 
L 196.879622 160.857549 
L 197.133512 111.300551 
L 197.387403 116.416106 
L 197.641293 133.041673 
L 197.895183 107.463871 
L 198.402964 104.906093 
L 198.910744 116.735839 
L 199.164635 107.783604 
L 199.418525 110.341381 
L 199.672415 110.341381 
L 199.926305 111.300551 
L 200.434086 122.171098 
L 200.687976 100.74968 
L 200.941866 118.973883 
L 201.195757 112.579425 
L 201.449647 109.062478 
L 201.703537 116.735839 
L 201.957427 131.762799 
L 202.211318 114.817499 
L 202.465208 107.463871 
L 202.719098 131.443066 
L 202.972988 141.034738 
L 203.480769 111.620255 
L 203.734659 118.334446 
L 203.988549 113.218862 
L 204.24244 114.178032 
L 204.49633 106.824433 
L 204.75022 107.783604 
L 205.00411 110.661085 
L 205.258001 111.939988 
L 206.019671 126.327511 
L 206.273562 110.980818 
L 206.527452 157.020869 
L 206.781342 117.375276 
L 207.035232 117.69498 
L 207.289123 153.823654 
L 207.543013 108.423041 
L 207.796903 115.776669 
L 208.050793 110.980818 
L 208.304684 121.851394 
L 208.558574 122.490831 
L 208.812464 111.300551 
L 209.320245 124.089438 
L 209.574135 111.620255 
L 209.828025 133.041673 
L 210.081915 114.178032 
L 210.335806 119.933053 
L 210.589696 145.510856 
L 210.843586 107.463871 
L 211.097476 120.892223 
L 211.351367 120.57249 
L 211.605257 112.259721 
L 211.859147 110.341381 
L 212.113037 103.307486 
L 212.366928 106.5047 
L 212.874708 122.490831 
L 213.128598 108.423041 
L 213.382489 161.177282 
L 213.636379 109.701915 
L 213.890269 109.382211 
L 214.14416 132.402236 
L 214.39805 130.164192 
L 214.65194 109.701915 
L 214.90583 113.538595 
L 215.159721 132.402236 
L 215.413611 116.735839 
L 215.667501 109.701915 
L 215.921391 107.144137 
L 216.683062 118.65415 
L 217.190843 107.463871 
L 217.444733 108.742774 
L 217.698623 114.178032 
L 217.952513 114.497766 
L 218.206404 124.089438 
L 218.460294 111.939988 
L 218.714184 145.510856 
L 218.968074 118.973883 
L 219.221965 111.939988 
L 219.475855 114.178032 
L 219.729745 109.062478 
L 219.983635 118.014713 
L 220.237526 132.402236 
L 220.491416 106.824433 
L 220.745306 128.245851 
L 220.999196 114.178032 
L 221.253087 113.858328 
L 221.506977 113.858328 
L 221.760867 108.423041 
L 222.014757 119.933053 
L 222.268648 121.211956 
L 222.776428 127.926118 
L 223.030318 108.103308 
L 223.284209 130.803629 
L 223.538099 113.218862 
L 223.791989 136.558621 
L 224.045879 114.178032 
L 224.29977 115.776669 
L 224.55366 110.341381 
L 224.80755 110.341381 
L 225.06144 115.137203 
L 225.315331 113.538595 
L 225.569221 102.987753 
L 225.823111 131.123333 
L 226.077001 110.980818 
L 226.330892 130.164192 
L 226.838672 108.742774 
L 227.092562 112.899158 
L 227.346453 108.423041 
L 227.600343 116.416106 
L 227.854233 117.055543 
L 228.108123 115.776669 
L 228.362014 124.728904 
L 228.615904 110.661085 
L 228.869794 109.701915 
L 229.377575 127.606385 
L 229.631465 115.776669 
L 229.885355 121.211956 
L 230.139245 111.939988 
L 230.647026 133.361406 
L 230.900916 110.980818 
L 231.154807 126.007778 
L 231.408697 111.620255 
L 231.662587 112.899158 
L 231.916477 134.960013 
L 232.170368 107.783604 
L 232.424258 114.497766 
L 232.678148 110.980818 
L 232.932038 118.973883 
L 233.439819 106.184967 
L 233.693709 109.062478 
L 233.947599 114.178032 
L 234.20149 114.817499 
L 234.45538 127.606385 
L 234.70927 113.538595 
L 234.96316 117.69498 
L 235.217051 111.939988 
L 235.470941 112.579425 
L 235.724831 112.899158 
L 235.978721 122.171098 
L 236.486502 110.341381 
L 236.740392 119.61332 
L 236.994282 108.423041 
L 237.248173 108.423041 
L 237.502063 123.450001 
L 237.755953 106.824433 
L 238.009843 111.939988 
L 238.263734 127.606385 
L 238.771514 109.382211 
L 239.025404 116.735839 
L 239.279295 118.973883 
L 239.533185 128.565556 
L 239.787075 115.137203 
L 240.040965 127.606385 
L 240.294856 113.858328 
L 240.548746 122.490831 
L 240.802636 104.906093 
L 241.310417 115.137203 
L 241.564307 126.966948 
L 241.818197 121.531661 
L 242.072087 130.803629 
L 242.325978 122.171098 
L 242.579868 117.69498 
L 242.833758 115.776669 
L 243.087648 107.463871 
L 243.341539 122.171098 
L 243.595429 122.810564 
L 243.849319 114.817499 
L 244.3571 121.211956 
L 244.61099 129.205022 
L 244.86488 110.661085 
L 245.11877 115.456936 
L 245.372661 108.423041 
L 245.626551 122.490831 
L 245.880441 114.817499 
L 246.134331 115.776669 
L 246.388222 106.184967 
L 246.642112 108.103308 
L 247.149893 120.57249 
L 247.403783 120.892223 
L 247.657673 113.858328 
L 247.911563 116.096373 
L 248.165454 114.497766 
L 248.419344 147.109492 
L 248.673234 110.980818 
L 248.927124 118.014713 
L 249.434905 121.531661 
L 249.688795 116.416106 
L 249.942685 126.007778 
L 250.196576 117.69498 
L 250.450466 113.538595 
L 250.704356 111.620255 
L 250.958246 132.082503 
L 251.212137 114.817499 
L 251.466027 130.803629 
L 251.719917 108.423041 
L 252.227698 121.211956 
L 252.735478 113.538595 
L 252.989368 110.341381 
L 253.243259 118.973883 
L 253.497149 113.538595 
L 253.751039 111.939988 
L 254.004929 106.824433 
L 254.25882 134.640309 
L 254.7666 111.939988 
L 255.02049 109.382211 
L 255.274381 112.259721 
L 255.528271 112.899158 
L 255.782161 109.062478 
L 256.036051 119.293616 
L 256.289942 118.973883 
L 256.543832 115.456936 
L 256.797722 116.416106 
L 257.051612 122.171098 
L 257.305503 110.980818 
L 257.559393 131.123333 
L 257.813283 128.245851 
L 258.067173 111.620255 
L 258.321064 122.490831 
L 258.574954 138.157257 
L 258.828844 111.620255 
L 259.082734 113.858328 
L 259.336625 128.885289 
L 259.590515 124.409171 
L 259.844405 110.980818 
L 260.098295 110.980818 
L 260.352186 109.382211 
L 260.606076 114.497766 
L 260.859966 111.620255 
L 261.113856 131.443066 
L 261.621637 106.5047 
L 261.875527 117.375276 
L 262.129417 104.266656 
L 262.891088 120.252786 
L 263.144979 110.980818 
L 263.398869 116.416106 
L 263.652759 110.980818 
L 263.906649 111.300551 
L 264.16054 131.123333 
L 264.41443 119.933053 
L 264.66832 126.966948 
L 264.92221 158.299772 
L 265.176101 109.062478 
L 265.429991 120.892223 
L 265.683881 111.620255 
L 265.937771 125.688074 
L 266.191662 110.021648 
L 266.445552 111.300551 
L 266.699442 115.137203 
L 266.953332 102.66802 
L 267.207223 117.375276 
L 267.461113 117.375276 
L 267.715003 114.817499 
L 267.968893 117.69498 
L 268.222784 118.334446 
L 268.730564 112.259721 
L 269.238345 149.667269 
L 269.492235 123.769734 
L 269.746125 123.450001 
L 270.000015 128.885289 
L 270.507796 105.54553 
L 270.761686 108.742774 
L 271.015576 107.144137 
L 271.269467 128.565556 
L 271.523357 118.014713 
L 271.777247 132.082503 
L 272.031137 106.824433 
L 272.285028 135.59945 
L 272.538918 113.218862 
L 272.792808 106.824433 
L 273.300589 112.899158 
L 273.554479 166.292837 
L 273.808369 107.783604 
L 274.062259 107.463871 
L 274.31615 115.456936 
L 274.82393 109.382211 
L 275.07782 141.354471 
L 275.331711 114.497766 
L 275.585601 121.211956 
L 275.839491 132.721969 
L 276.093381 121.531661 
L 276.347272 121.851394 
L 276.601162 118.014713 
L 276.855052 111.939988 
L 277.108942 112.899158 
L 277.362833 118.973883 
L 277.616723 110.341381 
L 277.870613 109.382211 
L 278.124503 130.803629 
L 278.378394 120.892223 
L 278.632284 106.184967 
L 278.886174 115.776669 
L 279.140064 109.382211 
L 279.393955 127.606385 
L 279.647845 111.620255 
L 279.901735 113.538595 
L 280.155626 155.102557 
L 280.409516 114.497766 
L 280.663406 130.483896 
L 280.917296 109.701915 
L 281.171187 110.661085 
L 281.678967 116.735839 
L 281.932857 119.61332 
L 282.186748 107.783604 
L 282.440638 106.824433 
L 282.694528 115.137203 
L 282.948418 106.5047 
L 283.202309 117.375276 
L 283.456199 113.538595 
L 283.710089 117.375276 
L 283.963979 112.899158 
L 284.21787 130.803629 
L 284.47176 113.538595 
L 284.72565 113.858328 
L 284.97954 112.579425 
L 285.233431 131.762799 
L 285.487321 131.443066 
L 285.741211 116.096373 
L 285.995101 115.776669 
L 286.248992 106.5047 
L 286.502882 130.164192 
L 286.756772 126.647215 
L 287.010662 112.579425 
L 287.264553 120.57249 
L 287.518443 122.171098 
L 287.772333 122.490831 
L 288.026223 110.021648 
L 288.280114 113.218862 
L 288.534004 110.341381 
L 288.787894 130.803629 
L 289.041784 114.497766 
L 289.295675 118.014713 
L 289.549565 107.463871 
L 289.803455 128.245851 
L 290.057345 124.728904 
L 290.311236 115.456936 
L 290.565126 118.334446 
L 290.819016 116.735839 
L 291.072906 129.844459 
L 291.326797 111.939988 
L 291.580687 106.5047 
L 291.834577 118.973883 
L 292.088467 124.089438 
L 292.342358 108.423041 
L 292.850138 127.606385 
L 293.104028 126.647215 
L 293.357919 110.661085 
L 293.611809 138.476961 
L 293.865699 112.579425 
L 294.119589 114.817499 
L 294.37348 126.647215 
L 294.62737 116.416106 
L 294.88126 115.456936 
L 295.13515 128.565556 
L 295.389041 116.096373 
L 295.642931 110.021648 
L 295.896821 110.980818 
L 296.150712 112.579425 
L 296.404602 121.851394 
L 296.658492 109.382211 
L 296.912382 116.416106 
L 297.166273 110.661085 
L 297.420163 115.137203 
L 297.674053 111.300551 
L 297.927943 111.939988 
L 298.181834 117.055543 
L 298.435724 106.824433 
L 298.943504 112.579425 
L 299.197395 113.538595 
L 299.451285 118.973883 
L 299.705175 112.899158 
L 299.959065 110.021648 
L 300.212956 124.409171 
L 300.466846 117.69498 
L 300.720736 122.171098 
L 300.974626 115.137203 
L 301.228517 116.416106 
L 301.482407 110.980818 
L 301.736297 114.178032 
L 301.990187 132.721969 
L 302.497968 110.341381 
L 302.751858 118.014713 
L 303.005748 129.524726 
L 303.513529 106.5047 
L 303.767419 126.647215 
L 304.021309 112.579425 
L 304.2752 111.620255 
L 304.52909 105.865263 
L 304.78298 116.735839 
L 305.03687 113.218862 
L 305.290761 124.409171 
L 305.544651 111.300551 
L 305.798541 123.769734 
L 306.306322 108.103308 
L 306.814102 122.810564 
L 307.067992 119.293616 
L 307.321883 130.164192 
L 307.575773 109.062478 
L 307.829663 122.810564 
L 308.083553 105.865263 
L 308.591334 121.531661 
L 308.845224 111.300551 
L 309.099114 108.423041 
L 309.353005 111.300551 
L 309.606895 110.021648 
L 309.860785 117.375276 
L 310.114675 117.055543 
L 310.368566 120.252786 
L 310.622456 106.5047 
L 310.876346 118.973883 
L 311.130236 125.048608 
L 311.384127 112.259721 
L 311.638017 123.769734 
L 311.891907 110.980818 
L 312.145798 109.062478 
L 312.399688 111.939988 
L 312.653578 108.103308 
L 313.415249 125.048608 
L 313.669139 110.980818 
L 313.923029 126.007778 
L 314.17692 128.565556 
L 314.43081 117.69498 
L 314.6847 112.579425 
L 314.93859 116.416106 
L 315.192481 108.103308 
L 315.446371 110.341381 
L 315.954151 125.688074 
L 316.208042 107.144137 
L 316.461932 111.300551 
L 316.461932 111.300551 
" clip-path="url(#p64dcdc8fa0)" style="fill: none; stroke: #ff0000; stroke-width: 0.6; stroke-linecap: square"/>
   </g>
   <g id="patch_3">
    <path d="M 50.14375 239.76 
L 50.14375 37.296 
" style="fill: none; stroke: #000000; stroke-width: 0.8; stroke-linejoin: miter; stroke-linecap: square"/>
   </g>
   <g id="patch_4">
    <path d="M 329.14375 239.76 
L 329.14375 37.296 
" style="fill: none; stroke: #000000; stroke-width: 0.8; stroke-linejoin: miter; stroke-linecap: square"/>
   </g>
   <g id="patch_5">
    <path d="M 50.14375 239.76 
L 329.14375 239.76 
" style="fill: none; stroke: #000000; stroke-width: 0.8; stroke-linejoin: miter; stroke-linecap: square"/>
   </g>
   <g id="patch_6">
    <path d="M 50.14375 37.296 
L 329.14375 37.296 
" style="fill: none; stroke: #000000; stroke-width: 0.8; stroke-linejoin: miter; stroke-linecap: square"/>
   </g>
   <g id="text_18">
    <!-- Baseline Model -->
    <g transform="translate(155.622344 31.296) scale(0.09 -0.09)">
     <defs>
      <path id="DejaVuSans-42" d="M 1259 2228 
L 1259 519 
L 2272 519 
Q 2781 519 3026 730 
Q 3272 941 3272 1375 
Q 3272 1813 3026 2020 
Q 2781 2228 2272 2228 
L 1259 2228 
z
M 1259 4147 
L 1259 2741 
L 2194 2741 
Q 2656 2741 2882 2914 
Q 3109 3088 3109 3444 
Q 3109 3797 2882 3972 
Q 2656 4147 2194 4147 
L 1259 4147 
z
M 628 4666 
L 2241 4666 
Q 2963 4666 3353 4366 
Q 3744 4066 3744 3513 
Q 3744 3084 3544 2831 
Q 3344 2578 2956 2516 
Q 3422 2416 3680 2098 
Q 3938 1781 3938 1306 
Q 3938 681 3513 340 
Q 3088 0 2303 0 
L 628 0 
L 628 4666 
z
" transform="scale(0.015625)"/>
      <path id="DejaVuSans-65" d="M 3597 1894 
L 3597 1613 
L 953 1613 
Q 991 1019 1311 708 
Q 1631 397 2203 397 
Q 2534 397 2845 478 
Q 3156 559 3463 722 
L 3463 178 
Q 3153 47 2828 -22 
Q 2503 -91 2169 -91 
Q 1331 -91 842 396 
Q 353 884 353 1716 
Q 353 2575 817 3079 
Q 1281 3584 2069 3584 
Q 2775 3584 3186 3129 
Q 3597 2675 3597 1894 
z
M 3022 2063 
Q 3016 2534 2758 2815 
Q 2500 3097 2075 3097 
Q 1594 3097 1305 2825 
Q 1016 2553 972 2059 
L 3022 2063 
z
" transform="scale(0.015625)"/>
      <path id="DejaVuSans-6c" d="M 603 4863 
L 1178 4863 
L 1178 0 
L 603 0 
L 603 4863 
z
" transform="scale(0.015625)"/>
      <path id="DejaVuSans-69" d="M 603 3500 
L 1178 3500 
L 1178 0 
L 603 0 
L 603 3500 
z
M 603 4863 
L 1178 4863 
L 1178 4134 
L 603 4134 
L 603 4863 
z
" transform="scale(0.015625)"/>
      <path id="DejaVuSans-6e" d="M 3513 2113 
L 3513 0 
L 2938 0 
L 2938 2094 
Q 2938 2591 2744 2837 
Q 2550 3084 2163 3084 
Q 1697 3084 1428 2787 
Q 1159 2491 1159 1978 
L 1159 0 
L 581 0 
L 581 3500 
L 1159 3500 
L 1159 2956 
Q 1366 3272 1645 3428 
Q 1925 3584 2291 3584 
Q 2894 3584 3203 3211 
Q 3513 2838 3513 2113 
z
" transform="scale(0.015625)"/>
      <path id="DejaVuSans-20" transform="scale(0.015625)"/>
      <path id="DejaVuSans-4d" d="M 628 4666 
L 1569 4666 
L 2759 1491 
L 3956 4666 
L 4897 4666 
L 4897 0 
L 4281 0 
L 4281 4097 
L 3078 897 
L 2444 897 
L 1241 4097 
L 1241 0 
L 628 0 
L 628 4666 
z
" transform="scale(0.015625)"/>
      <path id="DejaVuSans-64" d="M 2906 2969 
L 2906 4863 
L 3481 4863 
L 3481 0 
L 2906 0 
L 2906 525 
Q 2725 213 2448 61 
Q 2172 -91 1784 -91 
Q 1150 -91 751 415 
Q 353 922 353 1747 
Q 353 2572 751 3078 
Q 1150 3584 1784 3584 
Q 2172 3584 2448 3432 
Q 2725 3281 2906 2969 
z
M 947 1747 
Q 947 1113 1208 752 
Q 1469 391 1925 391 
Q 2381 391 2643 752 
Q 2906 1113 2906 1747 
Q 2906 2381 2643 2742 
Q 2381 3103 1925 3103 
Q 1469 3103 1208 2742 
Q 947 2381 947 1747 
z
" transform="scale(0.015625)"/>
     </defs>
     <use xlink:href="#DejaVuSans-42"/>
     <use xlink:href="#DejaVuSans-61" x="68.603516"/>
     <use xlink:href="#DejaVuSans-73" x="129.882812"/>
     <use xlink:href="#DejaVuSans-65" x="181.982422"/>
     <use xlink:href="#DejaVuSans-6c" x="243.505859"/>
     <use xlink:href="#DejaVuSans-69" x="271.289062"/>
     <use xlink:href="#DejaVuSans-6e" x="299.072266"/>
     <use xlink:href="#DejaVuSans-65" x="362.451172"/>
     <use xlink:href="#DejaVuSans-20" x="423.974609"/>
     <use xlink:href="#DejaVuSans-4d" x="455.761719"/>
     <use xlink:href="#DejaVuSans-6f" x="542.041016"/>
     <use xlink:href="#DejaVuSans-64" x="603.222656"/>
     <use xlink:href="#DejaVuSans-65" x="666.699219"/>
     <use xlink:href="#DejaVuSans-6c" x="728.222656"/>
    </g>
   </g>
   <g id="legend_1">
    <g id="patch_7">
     <path d="M 191.928125 234.76 
L 322.14375 234.76 
Q 324.14375 234.76 324.14375 232.76 
L 324.14375 204.40375 
Q 324.14375 202.40375 322.14375 202.40375 
L 191.928125 202.40375 
Q 189.928125 202.40375 189.928125 204.40375 
L 189.928125 232.76 
Q 189.928125 234.76 191.928125 234.76 
z
" style="fill: #ffffff; opacity: 0.8; stroke: #cccccc; stroke-linejoin: miter"/>
    </g>
    <g id="line2d_33">
     <path d="M 193.928125 210.502187 
L 203.928125 210.502187 
L 213.928125 210.502187 
" style="fill: none; stroke: #0000ff; stroke-width: 0.6; stroke-linecap: square"/>
    </g>
    <g id="text_19">
     <!-- Training Accuracy -->
     <g transform="translate(221.928125 214.002187) scale(0.1 -0.1)">
      <defs>
       <path id="DejaVuSans-54" d="M -19 4666 
L 3928 4666 
L 3928 4134 
L 2272 4134 
L 2272 0 
L 1638 0 
L 1638 4134 
L -19 4134 
L -19 4666 
z
" transform="scale(0.015625)"/>
       <path id="DejaVuSans-67" d="M 2906 1791 
Q 2906 2416 2648 2759 
Q 2391 3103 1925 3103 
Q 1463 3103 1205 2759 
Q 947 2416 947 1791 
Q 947 1169 1205 825 
Q 1463 481 1925 481 
Q 2391 481 2648 825 
Q 2906 1169 2906 1791 
z
M 3481 434 
Q 3481 -459 3084 -895 
Q 2688 -1331 1869 -1331 
Q 1566 -1331 1297 -1286 
Q 1028 -1241 775 -1147 
L 775 -588 
Q 1028 -725 1275 -790 
Q 1522 -856 1778 -856 
Q 2344 -856 2625 -561 
Q 2906 -266 2906 331 
L 2906 616 
Q 2728 306 2450 153 
Q 2172 0 1784 0 
Q 1141 0 747 490 
Q 353 981 353 1791 
Q 353 2603 747 3093 
Q 1141 3584 1784 3584 
Q 2172 3584 2450 3431 
Q 2728 3278 2906 2969 
L 2906 3500 
L 3481 3500 
L 3481 434 
z
" transform="scale(0.015625)"/>
      </defs>
      <use xlink:href="#DejaVuSans-54"/>
      <use xlink:href="#DejaVuSans-72" x="46.333984"/>
      <use xlink:href="#DejaVuSans-61" x="87.447266"/>
      <use xlink:href="#DejaVuSans-69" x="148.726562"/>
      <use xlink:href="#DejaVuSans-6e" x="176.509766"/>
      <use xlink:href="#DejaVuSans-69" x="239.888672"/>
      <use xlink:href="#DejaVuSans-6e" x="267.671875"/>
      <use xlink:href="#DejaVuSans-67" x="331.050781"/>
      <use xlink:href="#DejaVuSans-20" x="394.527344"/>
      <use xlink:href="#DejaVuSans-41" x="426.314453"/>
      <use xlink:href="#DejaVuSans-63" x="492.972656"/>
      <use xlink:href="#DejaVuSans-63" x="547.953125"/>
      <use xlink:href="#DejaVuSans-75" x="602.933594"/>
      <use xlink:href="#DejaVuSans-72" x="666.3125"/>
      <use xlink:href="#DejaVuSans-61" x="707.425781"/>
      <use xlink:href="#DejaVuSans-63" x="768.705078"/>
      <use xlink:href="#DejaVuSans-79" x="823.685547"/>
     </g>
    </g>
    <g id="line2d_34">
     <path d="M 193.928125 225.180312 
L 203.928125 225.180312 
L 213.928125 225.180312 
" style="fill: none; stroke: #ff0000; stroke-width: 0.6; stroke-linecap: square"/>
    </g>
    <g id="text_20">
     <!-- Validation Accuracy -->
     <g transform="translate(221.928125 228.680312) scale(0.1 -0.1)">
      <defs>
       <path id="DejaVuSans-56" d="M 1831 0 
L 50 4666 
L 709 4666 
L 2188 738 
L 3669 4666 
L 4325 4666 
L 2547 0 
L 1831 0 
z
" transform="scale(0.015625)"/>
       <path id="DejaVuSans-74" d="M 1172 4494 
L 1172 3500 
L 2356 3500 
L 2356 3053 
L 1172 3053 
L 1172 1153 
Q 1172 725 1289 603 
Q 1406 481 1766 481 
L 2356 481 
L 2356 0 
L 1766 0 
Q 1100 0 847 248 
Q 594 497 594 1153 
L 594 3053 
L 172 3053 
L 172 3500 
L 594 3500 
L 594 4494 
L 1172 4494 
z
" transform="scale(0.015625)"/>
      </defs>
      <use xlink:href="#DejaVuSans-56"/>
      <use xlink:href="#DejaVuSans-61" x="60.658203"/>
      <use xlink:href="#DejaVuSans-6c" x="121.9375"/>
      <use xlink:href="#DejaVuSans-69" x="149.720703"/>
      <use xlink:href="#DejaVuSans-64" x="177.503906"/>
      <use xlink:href="#DejaVuSans-61" x="240.980469"/>
      <use xlink:href="#DejaVuSans-74" x="302.259766"/>
      <use xlink:href="#DejaVuSans-69" x="341.46875"/>
      <use xlink:href="#DejaVuSans-6f" x="369.251953"/>
      <use xlink:href="#DejaVuSans-6e" x="430.433594"/>
      <use xlink:href="#DejaVuSans-20" x="493.8125"/>
      <use xlink:href="#DejaVuSans-41" x="525.599609"/>
      <use xlink:href="#DejaVuSans-63" x="592.257812"/>
      <use xlink:href="#DejaVuSans-63" x="647.238281"/>
      <use xlink:href="#DejaVuSans-75" x="702.21875"/>
      <use xlink:href="#DejaVuSans-72" x="765.597656"/>
      <use xlink:href="#DejaVuSans-61" x="806.710938"/>
      <use xlink:href="#DejaVuSans-63" x="867.990234"/>
      <use xlink:href="#DejaVuSans-79" x="922.970703"/>
     </g>
    </g>
   </g>
  </g>
  <g id="text_21">
   <!-- Training VS. Validation Accuracy - Dataset Size = 100.0% -->
   <g transform="translate(27.796484 15.558281) scale(0.11 -0.11)">
    <defs>
     <path id="DejaVuSans-53" d="M 3425 4513 
L 3425 3897 
Q 3066 4069 2747 4153 
Q 2428 4238 2131 4238 
Q 1616 4238 1336 4038 
Q 1056 3838 1056 3469 
Q 1056 3159 1242 3001 
Q 1428 2844 1947 2747 
L 2328 2669 
Q 3034 2534 3370 2195 
Q 3706 1856 3706 1288 
Q 3706 609 3251 259 
Q 2797 -91 1919 -91 
Q 1588 -91 1214 -16 
Q 841 59 441 206 
L 441 856 
Q 825 641 1194 531 
Q 1563 422 1919 422 
Q 2459 422 2753 634 
Q 3047 847 3047 1241 
Q 3047 1584 2836 1778 
Q 2625 1972 2144 2069 
L 1759 2144 
Q 1053 2284 737 2584 
Q 422 2884 422 3419 
Q 422 4038 858 4394 
Q 1294 4750 2059 4750 
Q 2388 4750 2728 4690 
Q 3069 4631 3425 4513 
z
" transform="scale(0.015625)"/>
     <path id="DejaVuSans-2d" d="M 313 2009 
L 1997 2009 
L 1997 1497 
L 313 1497 
L 313 2009 
z
" transform="scale(0.015625)"/>
     <path id="DejaVuSans-44" d="M 1259 4147 
L 1259 519 
L 2022 519 
Q 2988 519 3436 956 
Q 3884 1394 3884 2338 
Q 3884 3275 3436 3711 
Q 2988 4147 2022 4147 
L 1259 4147 
z
M 628 4666 
L 1925 4666 
Q 3281 4666 3915 4102 
Q 4550 3538 4550 2338 
Q 4550 1131 3912 565 
Q 3275 0 1925 0 
L 628 0 
L 628 4666 
z
" transform="scale(0.015625)"/>
     <path id="DejaVuSans-7a" d="M 353 3500 
L 3084 3500 
L 3084 2975 
L 922 459 
L 3084 459 
L 3084 0 
L 275 0 
L 275 525 
L 2438 3041 
L 353 3041 
L 353 3500 
z
" transform="scale(0.015625)"/>
     <path id="DejaVuSans-3d" d="M 678 2906 
L 4684 2906 
L 4684 2381 
L 678 2381 
L 678 2906 
z
M 678 1631 
L 4684 1631 
L 4684 1100 
L 678 1100 
L 678 1631 
z
" transform="scale(0.015625)"/>
     <path id="DejaVuSans-25" d="M 4653 2053 
Q 4381 2053 4226 1822 
Q 4072 1591 4072 1178 
Q 4072 772 4226 539 
Q 4381 306 4653 306 
Q 4919 306 5073 539 
Q 5228 772 5228 1178 
Q 5228 1588 5073 1820 
Q 4919 2053 4653 2053 
z
M 4653 2450 
Q 5147 2450 5437 2106 
Q 5728 1763 5728 1178 
Q 5728 594 5436 251 
Q 5144 -91 4653 -91 
Q 4153 -91 3862 251 
Q 3572 594 3572 1178 
Q 3572 1766 3864 2108 
Q 4156 2450 4653 2450 
z
M 1428 4353 
Q 1159 4353 1004 4120 
Q 850 3888 850 3481 
Q 850 3069 1003 2837 
Q 1156 2606 1428 2606 
Q 1700 2606 1854 2837 
Q 2009 3069 2009 3481 
Q 2009 3884 1853 4118 
Q 1697 4353 1428 4353 
z
M 4250 4750 
L 4750 4750 
L 1831 -91 
L 1331 -91 
L 4250 4750 
z
M 1428 4750 
Q 1922 4750 2215 4408 
Q 2509 4066 2509 3481 
Q 2509 2891 2217 2550 
Q 1925 2209 1428 2209 
Q 931 2209 642 2551 
Q 353 2894 353 3481 
Q 353 4063 643 4406 
Q 934 4750 1428 4750 
z
" transform="scale(0.015625)"/>
    </defs>
    <use xlink:href="#DejaVuSans-54"/>
    <use xlink:href="#DejaVuSans-72" x="46.333984"/>
    <use xlink:href="#DejaVuSans-61" x="87.447266"/>
    <use xlink:href="#DejaVuSans-69" x="148.726562"/>
    <use xlink:href="#DejaVuSans-6e" x="176.509766"/>
    <use xlink:href="#DejaVuSans-69" x="239.888672"/>
    <use xlink:href="#DejaVuSans-6e" x="267.671875"/>
    <use xlink:href="#DejaVuSans-67" x="331.050781"/>
    <use xlink:href="#DejaVuSans-20" x="394.527344"/>
    <use xlink:href="#DejaVuSans-56" x="426.314453"/>
    <use xlink:href="#DejaVuSans-53" x="494.722656"/>
    <use xlink:href="#DejaVuSans-2e" x="558.199219"/>
    <use xlink:href="#DejaVuSans-20" x="589.986328"/>
    <use xlink:href="#DejaVuSans-56" x="621.773438"/>
    <use xlink:href="#DejaVuSans-61" x="682.431641"/>
    <use xlink:href="#DejaVuSans-6c" x="743.710938"/>
    <use xlink:href="#DejaVuSans-69" x="771.494141"/>
    <use xlink:href="#DejaVuSans-64" x="799.277344"/>
    <use xlink:href="#DejaVuSans-61" x="862.753906"/>
    <use xlink:href="#DejaVuSans-74" x="924.033203"/>
    <use xlink:href="#DejaVuSans-69" x="963.242188"/>
    <use xlink:href="#DejaVuSans-6f" x="991.025391"/>
    <use xlink:href="#DejaVuSans-6e" x="1052.207031"/>
    <use xlink:href="#DejaVuSans-20" x="1115.585938"/>
    <use xlink:href="#DejaVuSans-41" x="1147.373047"/>
    <use xlink:href="#DejaVuSans-63" x="1214.03125"/>
    <use xlink:href="#DejaVuSans-63" x="1269.011719"/>
    <use xlink:href="#DejaVuSans-75" x="1323.992188"/>
    <use xlink:href="#DejaVuSans-72" x="1387.371094"/>
    <use xlink:href="#DejaVuSans-61" x="1428.484375"/>
    <use xlink:href="#DejaVuSans-63" x="1489.763672"/>
    <use xlink:href="#DejaVuSans-79" x="1544.744141"/>
    <use xlink:href="#DejaVuSans-20" x="1603.923828"/>
    <use xlink:href="#DejaVuSans-2d" x="1635.710938"/>
    <use xlink:href="#DejaVuSans-20" x="1671.794922"/>
    <use xlink:href="#DejaVuSans-44" x="1703.582031"/>
    <use xlink:href="#DejaVuSans-61" x="1780.583984"/>
    <use xlink:href="#DejaVuSans-74" x="1841.863281"/>
    <use xlink:href="#DejaVuSans-61" x="1881.072266"/>
    <use xlink:href="#DejaVuSans-73" x="1942.351562"/>
    <use xlink:href="#DejaVuSans-65" x="1994.451172"/>
    <use xlink:href="#DejaVuSans-74" x="2055.974609"/>
    <use xlink:href="#DejaVuSans-20" x="2095.183594"/>
    <use xlink:href="#DejaVuSans-53" x="2126.970703"/>
    <use xlink:href="#DejaVuSans-69" x="2190.447266"/>
    <use xlink:href="#DejaVuSans-7a" x="2218.230469"/>
    <use xlink:href="#DejaVuSans-65" x="2270.720703"/>
    <use xlink:href="#DejaVuSans-20" x="2332.244141"/>
    <use xlink:href="#DejaVuSans-3d" x="2364.03125"/>
    <use xlink:href="#DejaVuSans-20" x="2447.820312"/>
    <use xlink:href="#DejaVuSans-31" x="2479.607422"/>
    <use xlink:href="#DejaVuSans-30" x="2543.230469"/>
    <use xlink:href="#DejaVuSans-30" x="2606.853516"/>
    <use xlink:href="#DejaVuSans-2e" x="2670.476562"/>
    <use xlink:href="#DejaVuSans-30" x="2702.263672"/>
    <use xlink:href="#DejaVuSans-25" x="2765.886719"/>
   </g>
  </g>
 </g>
 <defs>
  <clipPath id="p64dcdc8fa0">
   <rect x="50.14375" y="37.296" width="279" height="202.464"/>
  </clipPath>
 </defs>
</svg>
