<?xml version="1.0" encoding="utf-8" standalone="no"?>
<!DOCTYPE svg PUBLIC "-//W3C//DTD SVG 1.1//EN"
  "http://www.w3.org/Graphics/SVG/1.1/DTD/svg11.dtd">
<svg xmlns:xlink="http://www.w3.org/1999/xlink" width="349.691016pt" height="277.31625pt" viewBox="0 0 349.691016 277.31625" xmlns="http://www.w3.org/2000/svg" version="1.1">
 <metadata>
  <rdf:RDF xmlns:dc="http://purl.org/dc/elements/1.1/" xmlns:cc="http://creativecommons.org/ns#" xmlns:rdf="http://www.w3.org/1999/02/22-rdf-syntax-ns#">
   <cc:Work>
    <dc:type rdf:resource="http://purl.org/dc/dcmitype/StillImage"/>
    <dc:date>2026-06-11T18:08:51.485728</dc:date>
    <dc:format>image/svg+xml</dc:format>
    <dc:creator>
     <cc:Agent>
      <dc:title>Matplotlib v3.8.4, https://matplotlib.org/</dc:title>
     </cc:Agent>
    </dc:creator>
   </cc:Work>
  </rdf:RDF>
 </metadata>
 <defs>
  <style type="text/css">*{stroke-linejoin: round; stroke-linecap: butt}</style>
 </defs>
 <g id="figure_1">
  <g id="patch_1">
   <path d="M 0 277.31625 
L 349.691016 277.31625 
L 349.691016 0 
L 0 0 
z
" style="fill: #ffffff"/>
  </g>
  <g id="axes_1">
   <g id="patch_2">
    <path d="M 50.14375 239.76 
L 329.14375 239.76 
L 329.14375 37.296 
L 50.14375 37.296 
z
" style="fill: #ffffff"/>
   </g>
   <g id="matplotlib.axis_1">
    <g id="xtick_1">
     <g id="line2d_1">
      <path d="M 62.571678 239.76 
L 62.571678 37.296 
" clip-path="url(#pea44cee050)" style="fill: none; stroke-dasharray: 2.96,1.28; stroke-dashoffset: 0; stroke: #b0b0b0; stroke-opacity: 0.4; stroke-width: 0.8"/>
     </g>
     <g id="line2d_2">
      <defs>
       <path id="m272cacc1b6" d="M 0 0 
L 0 3.5 
" style="stroke: #000000; stroke-width: 0.8"/>
      </defs>
      <g>
       <use xlink:href="#m272cacc1b6" x="62.571678" y="239.76" style="stroke: #000000; stroke-width: 0.8"/>
      </g>
     </g>
     <g id="text_1">
      <!-- 0 -->
      <g transform="translate(59.390428 254.358437) scale(0.1 -0.1)">
       <defs>
        <path id="DejaVuSans-30" d="M 2034 4250 
Q 1547 4250 1301 3770 
Q 1056 3291 1056 2328 
Q 1056 1369 1301 889 
Q 1547 409 2034 409 
Q 2525 409 2770 889 
Q 3016 1369 3016 2328 
Q 3016 3291 2770 3770 
Q 2525 4250 2034 4250 
z
M 2034 4750 
Q 2819 4750 3233 4129 
Q 3647 3509 3647 2328 
Q 3647 1150 3233 529 
Q 2819 -91 2034 -91 
Q 1250 -91 836 529 
Q 422 1150 422 2328 
Q 422 3509 836 4129 
Q 1250 4750 2034 4750 
z
" transform="scale(0.015625)"/>
       </defs>
       <use xlink:href="#DejaVuSans-30"/>
      </g>
     </g>
    </g>
    <g id="xtick_2">
     <g id="line2d_3">
      <path d="M 113.349729 239.76 
L 113.349729 37.296 
" clip-path="url(#pea44cee050)" style="fill: none; stroke-dasharray: 2.96,1.28; stroke-dashoffset: 0; stroke: #b0b0b0; stroke-opacity: 0.4; stroke-width: 0.8"/>
     </g>
     <g id="line2d_4">
      <g>
       <use xlink:href="#m272cacc1b6" x="113.349729" y="239.76" style="stroke: #000000; stroke-width: 0.8"/>
      </g>
     </g>
     <g id="text_2">
      <!-- 200 -->
      <g transform="translate(103.805979 254.358437) scale(0.1 -0.1)">
       <defs>
        <path id="DejaVuSans-32" d="M 1228 531 
L 3431 531 
L 3431 0 
L 469 0 
L 469 531 
Q 828 903 1448 1529 
Q 2069 2156 2228 2338 
Q 2531 2678 2651 2914 
Q 2772 3150 2772 3378 
Q 2772 3750 2511 3984 
Q 2250 4219 1831 4219 
Q 1534 4219 1204 4116 
Q 875 4013 500 3803 
L 500 4441 
Q 881 4594 1212 4672 
Q 1544 4750 1819 4750 
Q 2544 4750 2975 4387 
Q 3406 4025 3406 3419 
Q 3406 3131 3298 2873 
Q 3191 2616 2906 2266 
Q 2828 2175 2409 1742 
Q 1991 1309 1228 531 
z
" transform="scale(0.015625)"/>
       </defs>
       <use xlink:href="#DejaVuSans-32"/>
       <use xlink:href="#DejaVuSans-30" x="63.623047"/>
       <use xlink:href="#DejaVuSans-30" x="127.246094"/>
      </g>
     </g>
    </g>
    <g id="xtick_3">
     <g id="line2d_5">
      <path d="M 164.127779 239.76 
L 164.127779 37.296 
" clip-path="url(#pea44cee050)" style="fill: none; stroke-dasharray: 2.96,1.28; stroke-dashoffset: 0; stroke: #b0b0b0; stroke-opacity: 0.4; stroke-width: 0.8"/>
     </g>
     <g id="line2d_6">
      <g>
       <use xlink:href="#m272cacc1b6" x="164.127779" y="239.76" style="stroke: #000000; stroke-width: 0.8"/>
      </g>
     </g>
     <g id="text_3">
      <!-- 400 -->
      <g transform="translate(154.584029 254.358437) scale(0.1 -0.1)">
       <defs>
        <path id="DejaVuSans-34" d="M 2419 4116 
L 825 1625 
L 2419 1625 
L 2419 4116 
z
M 2253 4666 
L 3047 4666 
L 3047 1625 
L 3713 1625 
L 3713 1100 
L 3047 1100 
L 3047 0 
L 2419 0 
L 2419 1100 
L 313 1100 
L 313 1709 
L 2253 4666 
z
" transform="scale(0.015625)"/>
       </defs>
       <use xlink:href="#DejaVuSans-34"/>
       <use xlink:href="#DejaVuSans-30" x="63.623047"/>
       <use xlink:href="#DejaVuSans-30" x="127.246094"/>
      </g>
     </g>
    </g>
    <g id="xtick_4">
     <g id="line2d_7">
      <path d="M 214.90583 239.76 
L 214.90583 37.296 
" clip-path="url(#pea44cee050)" style="fill: none; stroke-dasharray: 2.96,1.28; stroke-dashoffset: 0; stroke: #b0b0b0; stroke-opacity: 0.4; stroke-width: 0.8"/>
     </g>
     <g id="line2d_8">
      <g>
       <use xlink:href="#m272cacc1b6" x="214.90583" y="239.76" style="stroke: #000000; stroke-width: 0.8"/>
      </g>
     </g>
     <g id="text_4">
      <!-- 600 -->
      <g transform="translate(205.36208 254.358437) scale(0.1 -0.1)">
       <defs>
        <path id="DejaVuSans-36" d="M 2113 2584 
Q 1688 2584 1439 2293 
Q 1191 2003 1191 1497 
Q 1191 994 1439 701 
Q 1688 409 2113 409 
Q 2538 409 2786 701 
Q 3034 994 3034 1497 
Q 3034 2003 2786 2293 
Q 2538 2584 2113 2584 
z
M 3366 4563 
L 3366 3988 
Q 3128 4100 2886 4159 
Q 2644 4219 2406 4219 
Q 1781 4219 1451 3797 
Q 1122 3375 1075 2522 
Q 1259 2794 1537 2939 
Q 1816 3084 2150 3084 
Q 2853 3084 3261 2657 
Q 3669 2231 3669 1497 
Q 3669 778 3244 343 
Q 2819 -91 2113 -91 
Q 1303 -91 875 529 
Q 447 1150 447 2328 
Q 447 3434 972 4092 
Q 1497 4750 2381 4750 
Q 2619 4750 2861 4703 
Q 3103 4656 3366 4563 
z
" transform="scale(0.015625)"/>
       </defs>
       <use xlink:href="#DejaVuSans-36"/>
       <use xlink:href="#DejaVuSans-30" x="63.623047"/>
       <use xlink:href="#DejaVuSans-30" x="127.246094"/>
      </g>
     </g>
    </g>
    <g id="xtick_5">
     <g id="line2d_9">
      <path d="M 265.683881 239.76 
L 265.683881 37.296 
" clip-path="url(#pea44cee050)" style="fill: none; stroke-dasharray: 2.96,1.28; stroke-dashoffset: 0; stroke: #b0b0b0; stroke-opacity: 0.4; stroke-width: 0.8"/>
     </g>
     <g id="line2d_10">
      <g>
       <use xlink:href="#m272cacc1b6" x="265.683881" y="239.76" style="stroke: #000000; stroke-width: 0.8"/>
      </g>
     </g>
     <g id="text_5">
      <!-- 800 -->
      <g transform="translate(256.140131 254.358437) scale(0.1 -0.1)">
       <defs>
        <path id="DejaVuSans-38" d="M 2034 2216 
Q 1584 2216 1326 1975 
Q 1069 1734 1069 1313 
Q 1069 891 1326 650 
Q 1584 409 2034 409 
Q 2484 409 2743 651 
Q 3003 894 3003 1313 
Q 3003 1734 2745 1975 
Q 2488 2216 2034 2216 
z
M 1403 2484 
Q 997 2584 770 2862 
Q 544 3141 544 3541 
Q 544 4100 942 4425 
Q 1341 4750 2034 4750 
Q 2731 4750 3128 4425 
Q 3525 4100 3525 3541 
Q 3525 3141 3298 2862 
Q 3072 2584 2669 2484 
Q 3125 2378 3379 2068 
Q 3634 1759 3634 1313 
Q 3634 634 3220 271 
Q 2806 -91 2034 -91 
Q 1263 -91 848 271 
Q 434 634 434 1313 
Q 434 1759 690 2068 
Q 947 2378 1403 2484 
z
M 1172 3481 
Q 1172 3119 1398 2916 
Q 1625 2713 2034 2713 
Q 2441 2713 2670 2916 
Q 2900 3119 2900 3481 
Q 2900 3844 2670 4047 
Q 2441 4250 2034 4250 
Q 1625 4250 1398 4047 
Q 1172 3844 1172 3481 
z
" transform="scale(0.015625)"/>
       </defs>
       <use xlink:href="#DejaVuSans-38"/>
       <use xlink:href="#DejaVuSans-30" x="63.623047"/>
       <use xlink:href="#DejaVuSans-30" x="127.246094"/>
      </g>
     </g>
    </g>
    <g id="xtick_6">
     <g id="line2d_11">
      <path d="M 316.461932 239.76 
L 316.461932 37.296 
" clip-path="url(#pea44cee050)" style="fill: none; stroke-dasharray: 2.96,1.28; stroke-dashoffset: 0; stroke: #b0b0b0; stroke-opacity: 0.4; stroke-width: 0.8"/>
     </g>
     <g id="line2d_12">
      <g>
       <use xlink:href="#m272cacc1b6" x="316.461932" y="239.76" style="stroke: #000000; stroke-width: 0.8"/>
      </g>
     </g>
     <g id="text_6">
      <!-- 1000 -->
      <g transform="translate(303.736932 254.358437) scale(0.1 -0.1)">
       <defs>
        <path id="DejaVuSans-31" d="M 794 531 
L 1825 531 
L 1825 4091 
L 703 3866 
L 703 4441 
L 1819 4666 
L 2450 4666 
L 2450 531 
L 3481 531 
L 3481 0 
L 794 0 
L 794 531 
z
" transform="scale(0.015625)"/>
       </defs>
       <use xlink:href="#DejaVuSans-31"/>
       <use xlink:href="#DejaVuSans-30" x="63.623047"/>
       <use xlink:href="#DejaVuSans-30" x="127.246094"/>
       <use xlink:href="#DejaVuSans-30" x="190.869141"/>
      </g>
     </g>
    </g>
    <g id="text_7">
     <!-- Epochs -->
     <g transform="translate(171.728125 268.036562) scale(0.1 -0.1)">
      <defs>
       <path id="DejaVuSans-45" d="M 628 4666 
L 3578 4666 
L 3578 4134 
L 1259 4134 
L 1259 2753 
L 3481 2753 
L 3481 2222 
L 1259 2222 
L 1259 531 
L 3634 531 
L 3634 0 
L 628 0 
L 628 4666 
z
" transform="scale(0.015625)"/>
       <path id="DejaVuSans-70" d="M 1159 525 
L 1159 -1331 
L 581 -1331 
L 581 3500 
L 1159 3500 
L 1159 2969 
Q 1341 3281 1617 3432 
Q 1894 3584 2278 3584 
Q 2916 3584 3314 3078 
Q 3713 2572 3713 1747 
Q 3713 922 3314 415 
Q 2916 -91 2278 -91 
Q 1894 -91 1617 61 
Q 1341 213 1159 525 
z
M 3116 1747 
Q 3116 2381 2855 2742 
Q 2594 3103 2138 3103 
Q 1681 3103 1420 2742 
Q 1159 2381 1159 1747 
Q 1159 1113 1420 752 
Q 1681 391 2138 391 
Q 2594 391 2855 752 
Q 3116 1113 3116 1747 
z
" transform="scale(0.015625)"/>
       <path id="DejaVuSans-6f" d="M 1959 3097 
Q 1497 3097 1228 2736 
Q 959 2375 959 1747 
Q 959 1119 1226 758 
Q 1494 397 1959 397 
Q 2419 397 2687 759 
Q 2956 1122 2956 1747 
Q 2956 2369 2687 2733 
Q 2419 3097 1959 3097 
z
M 1959 3584 
Q 2709 3584 3137 3096 
Q 3566 2609 3566 1747 
Q 3566 888 3137 398 
Q 2709 -91 1959 -91 
Q 1206 -91 779 398 
Q 353 888 353 1747 
Q 353 2609 779 3096 
Q 1206 3584 1959 3584 
z
" transform="scale(0.015625)"/>
       <path id="DejaVuSans-63" d="M 3122 3366 
L 3122 2828 
Q 2878 2963 2633 3030 
Q 2388 3097 2138 3097 
Q 1578 3097 1268 2742 
Q 959 2388 959 1747 
Q 959 1106 1268 751 
Q 1578 397 2138 397 
Q 2388 397 2633 464 
Q 2878 531 3122 666 
L 3122 134 
Q 2881 22 2623 -34 
Q 2366 -91 2075 -91 
Q 1284 -91 818 406 
Q 353 903 353 1747 
Q 353 2603 823 3093 
Q 1294 3584 2113 3584 
Q 2378 3584 2631 3529 
Q 2884 3475 3122 3366 
z
" transform="scale(0.015625)"/>
       <path id="DejaVuSans-68" d="M 3513 2113 
L 3513 0 
L 2938 0 
L 2938 2094 
Q 2938 2591 2744 2837 
Q 2550 3084 2163 3084 
Q 1697 3084 1428 2787 
Q 1159 2491 1159 1978 
L 1159 0 
L 581 0 
L 581 4863 
L 1159 4863 
L 1159 2956 
Q 1366 3272 1645 3428 
Q 1925 3584 2291 3584 
Q 2894 3584 3203 3211 
Q 3513 2838 3513 2113 
z
" transform="scale(0.015625)"/>
       <path id="DejaVuSans-73" d="M 2834 3397 
L 2834 2853 
Q 2591 2978 2328 3040 
Q 2066 3103 1784 3103 
Q 1356 3103 1142 2972 
Q 928 2841 928 2578 
Q 928 2378 1081 2264 
Q 1234 2150 1697 2047 
L 1894 2003 
Q 2506 1872 2764 1633 
Q 3022 1394 3022 966 
Q 3022 478 2636 193 
Q 2250 -91 1575 -91 
Q 1294 -91 989 -36 
Q 684 19 347 128 
L 347 722 
Q 666 556 975 473 
Q 1284 391 1588 391 
Q 1994 391 2212 530 
Q 2431 669 2431 922 
Q 2431 1156 2273 1281 
Q 2116 1406 1581 1522 
L 1381 1569 
Q 847 1681 609 1914 
Q 372 2147 372 2553 
Q 372 3047 722 3315 
Q 1072 3584 1716 3584 
Q 2034 3584 2315 3537 
Q 2597 3491 2834 3397 
z
" transform="scale(0.015625)"/>
      </defs>
      <use xlink:href="#DejaVuSans-45"/>
      <use xlink:href="#DejaVuSans-70" x="63.183594"/>
      <use xlink:href="#DejaVuSans-6f" x="126.660156"/>
      <use xlink:href="#DejaVuSans-63" x="187.841797"/>
      <use xlink:href="#DejaVuSans-68" x="242.822266"/>
      <use xlink:href="#DejaVuSans-73" x="306.201172"/>
     </g>
    </g>
   </g>
   <g id="matplotlib.axis_2">
    <g id="ytick_1">
     <g id="line2d_13">
      <path d="M 50.14375 230.877381 
L 329.14375 230.877381 
" clip-path="url(#pea44cee050)" style="fill: none; stroke-dasharray: 2.96,1.28; stroke-dashoffset: 0; stroke: #b0b0b0; stroke-opacity: 0.4; stroke-width: 0.8"/>
     </g>
     <g id="line2d_14">
      <defs>
       <path id="m73bae1e775" d="M 0 0 
L -3.5 0 
" style="stroke: #000000; stroke-width: 0.8"/>
      </defs>
      <g>
       <use xlink:href="#m73bae1e775" x="50.14375" y="230.877381" style="stroke: #000000; stroke-width: 0.8"/>
      </g>
     </g>
     <g id="text_8">
      <!-- 0.50 -->
      <g transform="translate(20.878125 234.6766) scale(0.1 -0.1)">
       <defs>
        <path id="DejaVuSans-2e" d="M 684 794 
L 1344 794 
L 1344 0 
L 684 0 
L 684 794 
z
" transform="scale(0.015625)"/>
        <path id="DejaVuSans-35" d="M 691 4666 
L 3169 4666 
L 3169 4134 
L 1269 4134 
L 1269 2991 
Q 1406 3038 1543 3061 
Q 1681 3084 1819 3084 
Q 2600 3084 3056 2656 
Q 3513 2228 3513 1497 
Q 3513 744 3044 326 
Q 2575 -91 1722 -91 
Q 1428 -91 1123 -41 
Q 819 9 494 109 
L 494 744 
Q 775 591 1075 516 
Q 1375 441 1709 441 
Q 2250 441 2565 725 
Q 2881 1009 2881 1497 
Q 2881 1984 2565 2268 
Q 2250 2553 1709 2553 
Q 1456 2553 1204 2497 
Q 953 2441 691 2322 
L 691 4666 
z
" transform="scale(0.015625)"/>
       </defs>
       <use xlink:href="#DejaVuSans-30"/>
       <use xlink:href="#DejaVuSans-2e" x="63.623047"/>
       <use xlink:href="#DejaVuSans-35" x="95.410156"/>
       <use xlink:href="#DejaVuSans-30" x="159.033203"/>
      </g>
     </g>
    </g>
    <g id="ytick_2">
     <g id="line2d_15">
      <path d="M 50.14375 206.536128 
L 329.14375 206.536128 
" clip-path="url(#pea44cee050)" style="fill: none; stroke-dasharray: 2.96,1.28; stroke-dashoffset: 0; stroke: #b0b0b0; stroke-opacity: 0.4; stroke-width: 0.8"/>
     </g>
     <g id="line2d_16">
      <g>
       <use xlink:href="#m73bae1e775" x="50.14375" y="206.536128" style="stroke: #000000; stroke-width: 0.8"/>
      </g>
     </g>
     <g id="text_9">
      <!-- 0.55 -->
      <g transform="translate(20.878125 210.335347) scale(0.1 -0.1)">
       <use xlink:href="#DejaVuSans-30"/>
       <use xlink:href="#DejaVuSans-2e" x="63.623047"/>
       <use xlink:href="#DejaVuSans-35" x="95.410156"/>
       <use xlink:href="#DejaVuSans-35" x="159.033203"/>
      </g>
     </g>
    </g>
    <g id="ytick_3">
     <g id="line2d_17">
      <path d="M 50.14375 182.194876 
L 329.14375 182.194876 
" clip-path="url(#pea44cee050)" style="fill: none; stroke-dasharray: 2.96,1.28; stroke-dashoffset: 0; stroke: #b0b0b0; stroke-opacity: 0.4; stroke-width: 0.8"/>
     </g>
     <g id="line2d_18">
      <g>
       <use xlink:href="#m73bae1e775" x="50.14375" y="182.194876" style="stroke: #000000; stroke-width: 0.8"/>
      </g>
     </g>
     <g id="text_10">
      <!-- 0.60 -->
      <g transform="translate(20.878125 185.994095) scale(0.1 -0.1)">
       <use xlink:href="#DejaVuSans-30"/>
       <use xlink:href="#DejaVuSans-2e" x="63.623047"/>
       <use xlink:href="#DejaVuSans-36" x="95.410156"/>
       <use xlink:href="#DejaVuSans-30" x="159.033203"/>
      </g>
     </g>
    </g>
    <g id="ytick_4">
     <g id="line2d_19">
      <path d="M 50.14375 157.853623 
L 329.14375 157.853623 
" clip-path="url(#pea44cee050)" style="fill: none; stroke-dasharray: 2.96,1.28; stroke-dashoffset: 0; stroke: #b0b0b0; stroke-opacity: 0.4; stroke-width: 0.8"/>
     </g>
     <g id="line2d_20">
      <g>
       <use xlink:href="#m73bae1e775" x="50.14375" y="157.853623" style="stroke: #000000; stroke-width: 0.8"/>
      </g>
     </g>
     <g id="text_11">
      <!-- 0.65 -->
      <g transform="translate(20.878125 161.652842) scale(0.1 -0.1)">
       <use xlink:href="#DejaVuSans-30"/>
       <use xlink:href="#DejaVuSans-2e" x="63.623047"/>
       <use xlink:href="#DejaVuSans-36" x="95.410156"/>
       <use xlink:href="#DejaVuSans-35" x="159.033203"/>
      </g>
     </g>
    </g>
    <g id="ytick_5">
     <g id="line2d_21">
      <path d="M 50.14375 133.512371 
L 329.14375 133.512371 
" clip-path="url(#pea44cee050)" style="fill: none; stroke-dasharray: 2.96,1.28; stroke-dashoffset: 0; stroke: #b0b0b0; stroke-opacity: 0.4; stroke-width: 0.8"/>
     </g>
     <g id="line2d_22">
      <g>
       <use xlink:href="#m73bae1e775" x="50.14375" y="133.512371" style="stroke: #000000; stroke-width: 0.8"/>
      </g>
     </g>
     <g id="text_12">
      <!-- 0.70 -->
      <g transform="translate(20.878125 137.31159) scale(0.1 -0.1)">
       <defs>
        <path id="DejaVuSans-37" d="M 525 4666 
L 3525 4666 
L 3525 4397 
L 1831 0 
L 1172 0 
L 2766 4134 
L 525 4134 
L 525 4666 
z
" transform="scale(0.015625)"/>
       </defs>
       <use xlink:href="#DejaVuSans-30"/>
       <use xlink:href="#DejaVuSans-2e" x="63.623047"/>
       <use xlink:href="#DejaVuSans-37" x="95.410156"/>
       <use xlink:href="#DejaVuSans-30" x="159.033203"/>
      </g>
     </g>
    </g>
    <g id="ytick_6">
     <g id="line2d_23">
      <path d="M 50.14375 109.171118 
L 329.14375 109.171118 
" clip-path="url(#pea44cee050)" style="fill: none; stroke-dasharray: 2.96,1.28; stroke-dashoffset: 0; stroke: #b0b0b0; stroke-opacity: 0.4; stroke-width: 0.8"/>
     </g>
     <g id="line2d_24">
      <g>
       <use xlink:href="#m73bae1e775" x="50.14375" y="109.171118" style="stroke: #000000; stroke-width: 0.8"/>
      </g>
     </g>
     <g id="text_13">
      <!-- 0.75 -->
      <g transform="translate(20.878125 112.970337) scale(0.1 -0.1)">
       <use xlink:href="#DejaVuSans-30"/>
       <use xlink:href="#DejaVuSans-2e" x="63.623047"/>
       <use xlink:href="#DejaVuSans-37" x="95.410156"/>
       <use xlink:href="#DejaVuSans-35" x="159.033203"/>
      </g>
     </g>
    </g>
    <g id="ytick_7">
     <g id="line2d_25">
      <path d="M 50.14375 84.829866 
L 329.14375 84.829866 
" clip-path="url(#pea44cee050)" style="fill: none; stroke-dasharray: 2.96,1.28; stroke-dashoffset: 0; stroke: #b0b0b0; stroke-opacity: 0.4; stroke-width: 0.8"/>
     </g>
     <g id="line2d_26">
      <g>
       <use xlink:href="#m73bae1e775" x="50.14375" y="84.829866" style="stroke: #000000; stroke-width: 0.8"/>
      </g>
     </g>
     <g id="text_14">
      <!-- 0.80 -->
      <g transform="translate(20.878125 88.629085) scale(0.1 -0.1)">
       <use xlink:href="#DejaVuSans-30"/>
       <use xlink:href="#DejaVuSans-2e" x="63.623047"/>
       <use xlink:href="#DejaVuSans-38" x="95.410156"/>
       <use xlink:href="#DejaVuSans-30" x="159.033203"/>
      </g>
     </g>
    </g>
    <g id="ytick_8">
     <g id="line2d_27">
      <path d="M 50.14375 60.488613 
L 329.14375 60.488613 
" clip-path="url(#pea44cee050)" style="fill: none; stroke-dasharray: 2.96,1.28; stroke-dashoffset: 0; stroke: #b0b0b0; stroke-opacity: 0.4; stroke-width: 0.8"/>
     </g>
     <g id="line2d_28">
      <g>
       <use xlink:href="#m73bae1e775" x="50.14375" y="60.488613" style="stroke: #000000; stroke-width: 0.8"/>
      </g>
     </g>
     <g id="text_15">
      <!-- 0.85 -->
      <g transform="translate(20.878125 64.287832) scale(0.1 -0.1)">
       <use xlink:href="#DejaVuSans-30"/>
       <use xlink:href="#DejaVuSans-2e" x="63.623047"/>
       <use xlink:href="#DejaVuSans-38" x="95.410156"/>
       <use xlink:href="#DejaVuSans-35" x="159.033203"/>
      </g>
     </g>
    </g>
    <g id="text_16">
     <!-- Accuracy -->
     <g transform="translate(14.798438 161.356125) rotate(-90) scale(0.1 -0.1)">
      <defs>
       <path id="DejaVuSans-41" d="M 2188 4044 
L 1331 1722 
L 3047 1722 
L 2188 4044 
z
M 1831 4666 
L 2547 4666 
L 4325 0 
L 3669 0 
L 3244 1197 
L 1141 1197 
L 716 0 
L 50 0 
L 1831 4666 
z
" transform="scale(0.015625)"/>
       <path id="DejaVuSans-75" d="M 544 1381 
L 544 3500 
L 1119 3500 
L 1119 1403 
Q 1119 906 1312 657 
Q 1506 409 1894 409 
Q 2359 409 2629 706 
Q 2900 1003 2900 1516 
L 2900 3500 
L 3475 3500 
L 3475 0 
L 2900 0 
L 2900 538 
Q 2691 219 2414 64 
Q 2138 -91 1772 -91 
Q 1169 -91 856 284 
Q 544 659 544 1381 
z
M 1991 3584 
L 1991 3584 
z
" transform="scale(0.015625)"/>
       <path id="DejaVuSans-72" d="M 2631 2963 
Q 2534 3019 2420 3045 
Q 2306 3072 2169 3072 
Q 1681 3072 1420 2755 
Q 1159 2438 1159 1844 
L 1159 0 
L 581 0 
L 581 3500 
L 1159 3500 
L 1159 2956 
Q 1341 3275 1631 3429 
Q 1922 3584 2338 3584 
Q 2397 3584 2469 3576 
Q 2541 3569 2628 3553 
L 2631 2963 
z
" transform="scale(0.015625)"/>
       <path id="DejaVuSans-61" d="M 2194 1759 
Q 1497 1759 1228 1600 
Q 959 1441 959 1056 
Q 959 750 1161 570 
Q 1363 391 1709 391 
Q 2188 391 2477 730 
Q 2766 1069 2766 1631 
L 2766 1759 
L 2194 1759 
z
M 3341 1997 
L 3341 0 
L 2766 0 
L 2766 531 
Q 2569 213 2275 61 
Q 1981 -91 1556 -91 
Q 1019 -91 701 211 
Q 384 513 384 1019 
Q 384 1609 779 1909 
Q 1175 2209 1959 2209 
L 2766 2209 
L 2766 2266 
Q 2766 2663 2505 2880 
Q 2244 3097 1772 3097 
Q 1472 3097 1187 3025 
Q 903 2953 641 2809 
L 641 3341 
Q 956 3463 1253 3523 
Q 1550 3584 1831 3584 
Q 2591 3584 2966 3190 
Q 3341 2797 3341 1997 
z
" transform="scale(0.015625)"/>
       <path id="DejaVuSans-79" d="M 2059 -325 
Q 1816 -950 1584 -1140 
Q 1353 -1331 966 -1331 
L 506 -1331 
L 506 -850 
L 844 -850 
Q 1081 -850 1212 -737 
Q 1344 -625 1503 -206 
L 1606 56 
L 191 3500 
L 800 3500 
L 1894 763 
L 2988 3500 
L 3597 3500 
L 2059 -325 
z
" transform="scale(0.015625)"/>
      </defs>
      <use xlink:href="#DejaVuSans-41"/>
      <use xlink:href="#DejaVuSans-63" x="66.658203"/>
      <use xlink:href="#DejaVuSans-63" x="121.638672"/>
      <use xlink:href="#DejaVuSans-75" x="176.619141"/>
      <use xlink:href="#DejaVuSans-72" x="239.998047"/>
      <use xlink:href="#DejaVuSans-61" x="281.111328"/>
      <use xlink:href="#DejaVuSans-63" x="342.390625"/>
      <use xlink:href="#DejaVuSans-79" x="397.371094"/>
     </g>
    </g>
   </g>
   <g id="line2d_29">
    <path d="M 62.825568 221.54176 
L 63.079458 202.458649 
L 63.587239 129.558458 
L 64.34891 110.612656 
L 64.6028 109.377052 
L 64.85669 101.414314 
L 65.11058 110.338067 
L 65.364471 104.983815 
L 65.618361 107.180434 
L 65.872251 100.590578 
L 66.126141 102.10077 
L 66.380032 95.922782 
L 66.633922 97.982092 
L 66.887812 93.314296 
L 67.141702 90.843089 
L 67.395593 95.785502 
L 67.649483 92.078692 
L 67.903373 94.549899 
L 68.157264 94.000752 
L 68.411154 88.783779 
L 68.665044 94.687179 
L 68.918934 90.019382 
L 69.172825 89.195647 
L 69.426715 90.019382 
L 69.680605 94.000752 
L 69.934495 88.234632 
L 70.188386 91.117677 
L 70.442276 89.744794 
L 70.950056 83.704086 
L 71.203947 86.312572 
L 71.457837 84.527822 
L 71.711727 81.095629 
L 72.219508 91.117677 
L 72.473398 84.527822 
L 72.727288 85.626145 
L 72.981178 85.351557 
L 73.235069 79.448158 
L 73.488959 85.076998 
L 73.742849 79.310878 
L 74.25063 84.390542 
L 74.50452 83.154939 
L 74.75841 84.390542 
L 75.0123 86.587161 
L 75.266191 84.115954 
L 75.520081 85.214278 
L 75.773971 85.488837 
L 76.027861 82.605791 
L 76.281752 82.056644 
L 76.535642 83.292247 
L 76.789532 83.704086 
L 77.551203 77.11426 
L 77.805093 83.978674 
L 78.312874 77.526127 
L 78.566764 76.565083 
L 78.820654 79.173569 
L 79.074544 78.761702 
L 79.582325 76.565083 
L 79.836215 77.388819 
L 80.090105 74.231185 
L 80.343996 79.03629 
L 80.597886 81.507497 
L 80.851776 76.427804 
L 81.105666 74.780332 
L 81.359557 75.604068 
L 81.613447 75.466788 
L 81.867337 75.466788 
L 82.121227 72.309155 
L 82.375118 76.839671 
L 82.629008 76.153244 
L 82.882898 77.526127 
L 83.136788 75.1922 
L 83.390679 75.466788 
L 83.644569 75.1922 
L 83.898459 74.368494 
L 84.15235 78.075275 
L 84.40624 76.839671 
L 84.66013 76.290524 
L 84.91402 80.821041 
L 85.167911 73.13289 
L 85.421801 75.1922 
L 85.929581 72.171875 
L 86.183472 72.858302 
L 86.437362 72.721023 
L 86.691252 75.604068 
L 86.945142 72.446434 
L 87.199033 75.878656 
L 87.452923 69.975257 
L 87.706813 71.622699 
L 87.960703 71.622699 
L 88.214594 72.309155 
L 88.468484 72.309155 
L 88.722374 72.446434 
L 88.976264 69.837948 
L 89.230155 73.40745 
L 89.484045 69.563389 
L 89.737935 70.112536 
L 89.991825 70.936272 
L 90.245716 75.329509 
L 90.499606 70.798992 
L 90.753496 76.839671 
L 91.007386 71.073551 
L 91.261277 68.327786 
L 91.515167 73.13289 
L 91.769057 74.231185 
L 92.022947 68.602374 
L 92.276838 69.151521 
L 92.530728 70.387124 
L 92.784618 69.288801 
L 93.292399 63.248122 
L 93.546289 69.975257 
L 94.30796 61.73793 
L 94.56185 65.307431 
L 94.81574 66.543035 
L 95.06963 62.424386 
L 95.323521 60.502356 
L 95.577411 70.661684 
L 96.085191 65.170152 
L 96.339082 69.151521 
L 96.592972 68.739653 
L 97.100752 64.758284 
L 97.354643 60.502356 
L 97.608533 64.895564 
L 97.862423 65.032872 
L 98.116313 64.209137 
L 98.370204 67.915918 
L 98.624094 65.307431 
L 98.877984 67.778638 
L 99.385765 64.209137 
L 99.639655 67.229491 
L 100.147436 60.090488 
L 100.401326 64.895564 
L 100.655216 63.797269 
L 100.909106 67.50405 
L 101.416887 58.305737 
L 101.670777 64.209137 
L 101.924667 62.836254 
L 102.178558 65.44474 
L 102.432448 65.032872 
L 102.686338 63.934549 
L 102.940228 62.287106 
L 103.194119 61.875239 
L 103.448009 63.797269 
L 103.701899 62.012518 
L 104.20968 67.641359 
L 104.46357 64.483696 
L 104.71746 65.170152 
L 104.97135 63.659989 
L 105.225241 58.580296 
L 105.479131 59.8159 
L 105.733021 57.207413 
L 106.240802 62.973533 
L 106.494692 62.561666 
L 106.748582 53.9125 
L 107.002472 59.953179 
L 107.256363 61.188783 
L 107.510253 61.463371 
L 107.764143 60.227768 
L 108.018033 58.305737 
L 108.271924 63.797269 
L 108.525814 63.522681 
L 108.779704 61.463371 
L 109.033594 57.893869 
L 109.287485 60.639635 
L 109.541375 62.149798 
L 109.795265 59.8159 
L 110.049155 62.424386 
L 110.303046 57.619281 
L 111.064716 65.170152 
L 111.318607 58.580296 
L 111.572497 61.051503 
L 111.826387 56.795546 
L 112.080277 64.483696 
L 112.334168 62.287106 
L 112.588058 61.188783 
L 112.841948 62.012518 
L 113.349729 57.619281 
L 113.603619 57.070134 
L 113.857509 61.051503 
L 114.111399 61.326062 
L 114.36529 60.639635 
L 114.61918 61.188783 
L 114.87307 61.051503 
L 115.12696 54.598927 
L 115.634741 60.776915 
L 115.888631 61.326062 
L 116.142521 58.854885 
L 116.396412 58.580296 
L 116.650302 63.110813 
L 116.904192 61.60065 
L 117.158083 58.031149 
L 117.411973 58.992164 
L 117.919753 57.893869 
L 118.173644 60.365047 
L 118.427534 53.775192 
L 118.681424 52.814176 
L 118.935314 58.854885 
L 119.189205 58.168429 
L 119.443095 55.97181 
L 119.696985 59.129444 
L 119.950875 59.67862 
L 120.204766 57.756561 
L 120.458656 59.8159 
L 120.712546 55.83453 
L 120.966436 60.090488 
L 121.220327 56.246398 
L 121.474217 59.129444 
L 121.728107 57.619281 
L 121.981997 58.992164 
L 122.235888 61.051503 
L 122.489778 60.502356 
L 122.743668 54.873515 
L 122.997558 58.031149 
L 123.251449 56.932854 
L 123.505339 64.209137 
L 123.759229 63.248122 
L 124.013119 59.129444 
L 124.26701 58.854885 
L 124.5209 60.776915 
L 125.02868 55.422663 
L 125.282571 61.875239 
L 125.536461 60.776915 
L 125.790351 52.402309 
L 126.298132 58.580296 
L 126.552022 58.443017 
L 126.805912 59.541312 
L 127.059802 55.83453 
L 127.313693 56.109119 
L 127.567583 58.305737 
L 127.821473 56.246398 
L 128.075363 60.227768 
L 128.329254 55.422663 
L 128.583144 56.932854 
L 128.837034 57.070134 
L 129.344815 63.110813 
L 129.598705 58.168429 
L 129.852595 62.561666 
L 130.106485 63.659989 
L 130.360376 59.129444 
L 130.614266 59.404032 
L 130.868156 60.502356 
L 131.122046 55.285383 
L 131.375937 54.461648 
L 131.629827 52.402309 
L 131.883717 60.227768 
L 132.137607 55.559942 
L 132.391498 56.383678 
L 132.645388 61.60065 
L 132.899278 59.129444 
L 133.153169 57.756561 
L 133.407059 55.422663 
L 133.660949 59.129444 
L 133.914839 54.873515 
L 134.42262 58.992164 
L 134.67651 55.148104 
L 134.9304 60.090488 
L 135.184291 56.246398 
L 135.438181 55.285383 
L 135.692071 53.363353 
L 135.945961 58.305737 
L 136.199852 53.775192 
L 136.453742 55.83453 
L 136.707632 58.992164 
L 136.961522 54.598927 
L 137.215413 56.383678 
L 137.469303 55.83453 
L 137.723193 50.342999 
L 137.977083 51.990441 
L 138.230974 61.051503 
L 138.484864 59.67862 
L 138.738754 55.010795 
L 138.992644 62.561666 
L 139.246535 55.285383 
L 139.500425 57.482002 
L 139.754315 56.932854 
L 140.008205 57.756561 
L 140.515986 50.480278 
L 140.769876 55.83453 
L 141.023766 55.010795 
L 141.277657 57.207413 
L 141.531547 55.697251 
L 141.785437 56.520986 
L 142.039327 52.814176 
L 142.293218 52.402309 
L 142.800998 59.541312 
L 143.054888 59.67862 
L 143.308779 54.598927 
L 143.562669 59.129444 
L 143.816559 56.932854 
L 144.070449 49.931131 
L 144.32434 55.285383 
L 144.57823 51.166734 
L 144.83212 53.9125 
L 145.08601 53.9125 
L 145.339901 55.559942 
L 145.593791 52.402309 
L 145.847681 52.814176 
L 146.101571 56.795546 
L 146.355462 51.578602 
L 146.609352 57.344693 
L 146.863242 53.637912 
L 147.371023 55.97181 
L 147.624913 51.166734 
L 147.878803 52.676897 
L 148.132693 56.520986 
L 148.386584 57.344693 
L 148.640474 54.873515 
L 148.894364 56.795546 
L 149.148255 51.853161 
L 149.402145 56.383678 
L 149.909925 56.383678 
L 150.163816 56.520986 
L 150.417706 55.559942 
L 150.671596 55.285383 
L 150.925486 58.992164 
L 151.179377 58.168429 
L 151.433267 53.226044 
L 151.687157 53.500632 
L 151.941047 49.931131 
L 152.194938 54.461648 
L 152.448828 54.187059 
L 152.702718 53.088765 
L 152.956608 54.04978 
L 153.210499 57.344693 
L 153.464389 54.324368 
L 153.972169 59.541312 
L 154.22606 54.324368 
L 154.47995 54.187059 
L 154.73384 58.031149 
L 154.98773 49.931131 
L 155.241621 56.383678 
L 155.495511 59.67862 
L 156.003291 53.9125 
L 156.257182 57.070134 
L 156.511072 51.853161 
L 156.764962 58.031149 
L 157.018852 56.932854 
L 157.272743 59.266752 
L 157.526633 55.285383 
L 157.780523 56.246398 
L 158.288304 52.539617 
L 158.542194 51.166734 
L 158.796084 54.736236 
L 159.049974 56.109119 
L 159.303865 53.500632 
L 159.557755 57.619281 
L 159.811645 54.598927 
L 160.065535 58.168429 
L 160.319426 56.109119 
L 160.573316 55.97181 
L 160.827206 54.324368 
L 161.081096 58.031149 
L 161.334987 58.854885 
L 161.588877 51.441293 
L 161.842767 54.736236 
L 162.096657 53.226044 
L 162.350548 54.873515 
L 162.604438 53.363353 
L 162.858328 56.246398 
L 163.112218 54.873515 
L 163.366109 55.148104 
L 163.619999 57.619281 
L 163.873889 57.756561 
L 164.38167 54.736236 
L 164.88945 54.736236 
L 165.14334 59.67862 
L 165.397231 60.776915 
L 165.651121 53.500632 
L 165.905011 54.873515 
L 166.158902 53.500632 
L 166.412792 49.656543 
L 166.666682 56.795546 
L 166.920572 52.265029 
L 167.174463 56.109119 
L 167.428353 54.873515 
L 167.682243 52.676897 
L 167.936133 54.04978 
L 168.190024 54.04978 
L 168.443914 49.107395 
L 168.697804 56.383678 
L 168.951694 57.207413 
L 169.205585 54.598927 
L 169.459475 55.422663 
L 169.713365 58.031149 
L 169.967255 55.010795 
L 170.221146 56.795546 
L 170.475036 53.088765 
L 170.728926 55.010795 
L 170.982816 53.088765 
L 171.236707 53.226044 
L 171.744487 54.461648 
L 171.998377 57.756561 
L 172.252268 51.853161 
L 172.506158 54.187059 
L 173.013938 49.931131 
L 173.267829 55.559942 
L 173.521719 55.422663 
L 173.775609 51.853161 
L 174.029499 54.598927 
L 174.28339 52.814176 
L 174.53728 52.951485 
L 175.298951 58.443017 
L 175.552841 54.187059 
L 175.806731 55.83453 
L 176.060621 53.9125 
L 176.314512 55.422663 
L 176.568402 57.619281 
L 176.822292 53.9125 
L 177.076182 54.461648 
L 177.330073 59.67862 
L 177.583963 54.598927 
L 177.837853 54.873515 
L 178.091743 55.97181 
L 178.345634 52.539617 
L 178.599524 53.226044 
L 178.853414 59.129444 
L 179.107304 58.305737 
L 179.361195 51.166734 
L 179.615085 57.344693 
L 179.868975 55.148104 
L 180.122865 57.756561 
L 180.376756 54.324368 
L 180.630646 57.207413 
L 180.884536 52.539617 
L 181.138426 53.500632 
L 181.646207 59.541312 
L 181.900097 56.383678 
L 182.153988 55.285383 
L 182.407878 55.559942 
L 182.661768 55.422663 
L 182.915658 50.342999 
L 183.169549 55.559942 
L 183.423439 51.304014 
L 183.677329 50.20569 
L 183.931219 51.166734 
L 184.18511 57.070134 
L 184.439 50.068411 
L 184.69289 50.068411 
L 184.94678 57.344693 
L 185.200671 57.482002 
L 185.454561 56.932854 
L 185.708451 50.342999 
L 186.216232 53.500632 
L 186.470122 57.482002 
L 186.724012 51.715882 
L 186.977902 52.951485 
L 187.231793 50.342999 
L 187.485683 51.029426 
L 187.739573 55.83453 
L 187.993463 51.990441 
L 188.247354 59.541312 
L 188.501244 55.83453 
L 188.755134 56.520986 
L 189.009024 54.04978 
L 189.262915 55.559942 
L 189.516805 55.83453 
L 189.770695 58.854885 
L 190.024585 52.814176 
L 190.278476 55.697251 
L 190.532366 56.109119 
L 190.786256 52.265029 
L 191.040146 56.246398 
L 191.294037 55.83453 
L 191.547927 51.304014 
L 191.801817 49.107395 
L 192.055707 56.246398 
L 192.309598 55.83453 
L 192.563488 54.04978 
L 192.817378 53.9125 
L 193.071268 54.04978 
L 193.325159 55.559942 
L 193.832939 55.559942 
L 194.086829 57.756561 
L 194.34072 52.539617 
L 194.8485 48.970116 
L 195.10239 55.697251 
L 195.356281 52.539617 
L 195.610171 52.265029 
L 195.864061 50.342999 
L 196.117951 50.617558 
L 196.625732 55.83453 
L 196.879622 56.246398 
L 197.133512 50.892146 
L 197.387403 53.637912 
L 197.641293 53.226044 
L 197.895183 54.04978 
L 198.149074 52.539617 
L 198.402964 53.500632 
L 198.656854 57.893869 
L 198.910744 51.441293 
L 199.164635 51.853161 
L 199.418525 57.070134 
L 199.672415 55.83453 
L 199.926305 51.304014 
L 200.180196 52.676897 
L 200.434086 50.068411 
L 200.687976 55.97181 
L 201.195757 49.107395 
L 201.449647 50.754867 
L 201.703537 53.500632 
L 201.957427 58.031149 
L 202.211318 54.461648 
L 202.465208 53.775192 
L 202.719098 55.285383 
L 202.972988 55.148104 
L 203.226879 53.088765 
L 203.480769 56.246398 
L 203.988549 51.853161 
L 204.24244 54.598927 
L 204.49633 50.892146 
L 204.75022 54.873515 
L 205.00411 51.578602 
L 205.258001 53.226044 
L 205.511891 52.402309 
L 205.765781 56.658266 
L 206.019671 56.658266 
L 206.273562 52.951485 
L 206.527452 56.795546 
L 206.781342 53.637912 
L 207.035232 54.736236 
L 207.289123 54.324368 
L 207.543013 53.500632 
L 207.796903 51.578602 
L 208.050793 57.619281 
L 208.304684 53.500632 
L 208.812464 50.754867 
L 209.066354 54.324368 
L 209.320245 52.127749 
L 209.574135 52.676897 
L 209.828025 52.814176 
L 210.081915 53.775192 
L 210.335806 50.068411 
L 210.589696 51.304014 
L 210.843586 54.598927 
L 211.097476 52.814176 
L 211.351367 51.990441 
L 211.605257 54.873515 
L 211.859147 55.422663 
L 212.113037 55.148104 
L 212.366928 54.324368 
L 212.620818 50.20569 
L 212.874708 57.207413 
L 213.128598 52.402309 
L 213.382489 52.402309 
L 213.636379 52.539617 
L 213.890269 52.814176 
L 214.14416 55.285383 
L 214.65194 52.676897 
L 214.90583 56.520986 
L 215.159721 49.656543 
L 215.413611 53.226044 
L 215.667501 52.402309 
L 215.921391 54.04978 
L 216.175282 53.363353 
L 216.429172 48.009101 
L 216.936952 57.482002 
L 217.190843 54.187059 
L 217.444733 56.658266 
L 217.698623 56.795546 
L 217.952513 54.324368 
L 218.206404 54.461648 
L 218.460294 52.265029 
L 218.714184 52.951485 
L 218.968074 51.304014 
L 219.221965 52.814176 
L 219.475855 56.932854 
L 219.729745 51.441293 
L 219.983635 51.578602 
L 220.237526 55.697251 
L 220.491416 56.246398 
L 220.745306 54.736236 
L 220.999196 51.029426 
L 221.253087 55.148104 
L 221.506977 56.658266 
L 221.760867 55.148104 
L 222.014757 50.20569 
L 222.268648 58.168429 
L 222.522538 54.736236 
L 222.776428 54.736236 
L 223.030318 52.539617 
L 223.284209 52.402309 
L 223.538099 51.578602 
L 224.045879 53.775192 
L 224.29977 53.088765 
L 224.55366 53.637912 
L 224.80755 55.83453 
L 225.06144 53.226044 
L 225.315331 54.187059 
L 225.823111 57.482002 
L 226.077001 52.951485 
L 226.330892 54.324368 
L 226.584782 57.893869 
L 226.838672 53.500632 
L 227.092562 53.088765 
L 227.346453 52.265029 
L 227.600343 50.068411 
L 227.854233 56.658266 
L 228.108123 48.832807 
L 228.615904 55.010795 
L 228.869794 52.951485 
L 229.123684 55.285383 
L 229.377575 55.697251 
L 229.631465 54.736236 
L 229.885355 52.402309 
L 230.139245 53.088765 
L 230.647026 55.97181 
L 231.154807 52.265029 
L 231.408697 54.736236 
L 231.662587 53.363353 
L 231.916477 50.617558 
L 232.170368 53.500632 
L 232.424258 57.893869 
L 232.678148 51.853161 
L 232.932038 49.656543 
L 233.439819 54.461648 
L 233.693709 50.892146 
L 233.947599 55.97181 
L 234.20149 48.970116 
L 234.45538 52.402309 
L 234.70927 50.480278 
L 234.96316 55.148104 
L 235.217051 51.166734 
L 235.470941 51.578602 
L 235.724831 50.754867 
L 235.978721 53.9125 
L 236.232612 53.226044 
L 236.486502 51.853161 
L 236.740392 55.697251 
L 236.994282 50.892146 
L 237.248173 53.775192 
L 237.502063 52.814176 
L 237.755953 52.676897 
L 238.009843 56.520986 
L 238.263734 52.402309 
L 239.025404 55.97181 
L 239.279295 53.775192 
L 239.533185 55.422663 
L 239.787075 49.519263 
L 240.040965 52.951485 
L 240.294856 47.459924 
L 240.548746 57.344693 
L 240.802636 52.402309 
L 241.056526 51.990441 
L 241.310417 51.853161 
L 241.564307 50.342999 
L 241.818197 55.010795 
L 242.072087 51.304014 
L 242.325978 54.04978 
L 242.579868 50.892146 
L 242.833758 52.951485 
L 243.087648 56.520986 
L 243.341539 50.20569 
L 243.595429 52.539617 
L 243.849319 56.795546 
L 244.103209 57.893869 
L 244.61099 50.068411 
L 244.86488 48.420939 
L 245.11877 51.715882 
L 245.372661 51.853161 
L 245.626551 51.715882 
L 245.880441 54.324368 
L 246.134331 48.970116 
L 246.388222 51.166734 
L 246.642112 54.598927 
L 246.896002 51.441293 
L 247.149893 53.9125 
L 247.403783 52.402309 
L 247.657673 52.676897 
L 247.911563 54.187059 
L 248.419344 50.754867 
L 248.673234 48.970116 
L 248.927124 50.20569 
L 249.181015 52.814176 
L 249.434905 51.715882 
L 249.688795 51.441293 
L 249.942685 51.990441 
L 250.196576 54.736236 
L 250.450466 51.853161 
L 250.958246 53.9125 
L 251.212137 54.598927 
L 251.466027 56.932854 
L 251.719917 54.461648 
L 251.973807 53.637912 
L 252.227698 52.127749 
L 252.481588 57.482002 
L 252.735478 55.559942 
L 252.989368 52.265029 
L 253.243259 55.422663 
L 253.497149 55.697251 
L 253.751039 51.990441 
L 254.004929 53.9125 
L 254.51271 49.656543 
L 254.7666 52.814176 
L 255.02049 51.715882 
L 255.274381 52.951485 
L 255.528271 52.402309 
L 255.782161 53.363353 
L 256.036051 55.97181 
L 256.289942 50.754867 
L 256.543832 51.853161 
L 256.797722 54.736236 
L 257.051612 52.814176 
L 257.305503 55.697251 
L 257.559393 51.578602 
L 257.813283 53.637912 
L 258.067173 53.775192 
L 258.574954 51.304014 
L 258.828844 51.029426 
L 259.082734 58.580296 
L 259.336625 50.892146 
L 259.590515 54.461648 
L 259.844405 52.127749 
L 260.098295 51.715882 
L 260.352186 52.127749 
L 260.606076 49.244675 
L 260.859966 53.500632 
L 261.113856 48.695528 
L 261.367747 54.736236 
L 261.621637 52.402309 
L 261.875527 55.422663 
L 262.383308 55.010795 
L 262.637198 51.853161 
L 262.891088 53.088765 
L 263.144979 55.148104 
L 263.398869 50.20569 
L 263.906649 54.736236 
L 264.16054 50.480278 
L 264.41443 52.676897 
L 264.66832 49.244675 
L 264.92221 52.676897 
L 265.176101 51.990441 
L 265.429991 52.265029 
L 265.683881 57.207413 
L 265.937771 51.304014 
L 266.191662 56.932854 
L 266.445552 52.814176 
L 266.699442 51.853161 
L 266.953332 54.736236 
L 267.207223 51.029426 
L 267.461113 54.873515 
L 267.968893 55.97181 
L 268.222784 53.088765 
L 268.476674 56.109119 
L 268.730564 55.010795 
L 268.984454 58.580296 
L 269.238345 50.892146 
L 269.746125 52.814176 
L 270.000015 57.344693 
L 270.253906 57.619281 
L 270.761686 54.873515 
L 271.015576 50.892146 
L 271.269467 51.853161 
L 271.523357 56.658266 
L 271.777247 49.244675 
L 272.031137 55.83453 
L 272.285028 55.97181 
L 272.538918 59.541312 
L 272.792808 56.246398 
L 273.046698 51.029426 
L 273.300589 58.305737 
L 273.554479 53.775192 
L 273.808369 53.775192 
L 274.062259 56.795546 
L 274.31615 56.383678 
L 274.57004 53.088765 
L 274.82393 56.658266 
L 275.07782 52.402309 
L 275.331711 51.715882 
L 275.585601 51.853161 
L 276.093381 55.559942 
L 276.347272 51.578602 
L 276.601162 56.109119 
L 276.855052 51.441293 
L 277.108942 52.951485 
L 277.362833 56.109119 
L 277.616723 53.226044 
L 277.870613 53.363353 
L 278.124503 52.402309 
L 278.378394 52.676897 
L 278.632284 50.754867 
L 279.140064 55.285383 
L 279.393955 55.422663 
L 279.647845 52.127749 
L 279.901735 54.461648 
L 280.155626 52.951485 
L 280.409516 53.226044 
L 280.663406 50.617558 
L 280.917296 52.676897 
L 281.171187 51.304014 
L 281.425077 52.814176 
L 281.678967 53.637912 
L 281.932857 53.226044 
L 282.186748 56.246398 
L 282.440638 52.402309 
L 282.694528 55.148104 
L 282.948418 51.990441 
L 283.456199 55.83453 
L 283.710089 54.736236 
L 284.21787 57.756561 
L 284.47176 55.559942 
L 284.72565 55.422663 
L 284.97954 51.715882 
L 285.233431 54.04978 
L 285.487321 54.598927 
L 286.248992 50.068411 
L 286.502882 57.482002 
L 286.756772 56.246398 
L 287.010662 52.951485 
L 287.518443 56.658266 
L 287.772333 54.873515 
L 288.026223 55.285383 
L 288.280114 59.67862 
L 289.041784 50.342999 
L 289.295675 54.598927 
L 289.549565 51.578602 
L 289.803455 52.127749 
L 290.057345 54.187059 
L 290.311236 51.990441 
L 290.565126 53.500632 
L 290.819016 52.951485 
L 291.072906 51.166734 
L 291.326797 57.756561 
L 291.580687 50.068411 
L 291.834577 55.010795 
L 292.088467 54.598927 
L 292.342358 57.482002 
L 292.596248 58.717605 
L 292.850138 52.951485 
L 293.104028 57.619281 
L 293.611809 51.029426 
L 293.865699 56.246398 
L 294.37348 50.892146 
L 294.62737 55.285383 
L 294.88126 55.97181 
L 295.13515 52.265029 
L 295.389041 58.305737 
L 295.642931 53.500632 
L 295.896821 55.559942 
L 296.150712 59.541312 
L 296.404602 53.500632 
L 296.658492 55.559942 
L 296.912382 56.109119 
L 297.166273 52.539617 
L 297.420163 50.617558 
L 297.674053 53.775192 
L 297.927943 51.578602 
L 298.181834 55.422663 
L 298.689614 53.226044 
L 298.943504 53.088765 
L 299.197395 56.246398 
L 299.451285 50.892146 
L 299.705175 56.109119 
L 299.959065 52.127749 
L 300.212956 54.324368 
L 300.466846 50.617558 
L 300.720736 53.500632 
L 301.228517 56.246398 
L 301.736297 50.480278 
L 302.244078 54.324368 
L 302.497968 54.873515 
L 302.751858 55.97181 
L 303.005748 58.854885 
L 303.259639 54.461648 
L 303.513529 55.285383 
L 303.767419 51.990441 
L 304.021309 56.520986 
L 304.2752 50.342999 
L 304.52909 48.970116 
L 304.78298 56.383678 
L 305.290761 59.266752 
L 305.544651 55.697251 
L 305.798541 56.109119 
L 306.052431 55.97181 
L 306.306322 55.697251 
L 306.560212 51.990441 
L 306.814102 57.482002 
L 307.321883 54.873515 
L 307.575773 54.873515 
L 307.829663 54.736236 
L 308.083553 56.109119 
L 308.591334 51.578602 
L 308.845224 52.814176 
L 309.099114 56.246398 
L 309.353005 55.697251 
L 309.606895 55.559942 
L 309.860785 54.04978 
L 310.114675 46.498909 
L 310.622456 55.422663 
L 310.876346 49.931131 
L 311.130236 51.304014 
L 311.384127 55.559942 
L 311.638017 56.658266 
L 311.891907 51.304014 
L 312.145798 49.656543 
L 312.399688 53.775192 
L 312.653578 54.736236 
L 312.907468 51.441293 
L 313.415249 56.658266 
L 313.669139 53.637912 
L 313.923029 53.226044 
L 314.43081 51.715882 
L 314.6847 56.109119 
L 314.93859 52.951485 
L 315.446371 56.246398 
L 315.700261 56.109119 
L 315.954151 53.775192 
L 316.208042 57.344693 
L 316.461932 53.088765 
L 316.461932 53.088765 
" clip-path="url(#pea44cee050)" style="fill: none; stroke: #0000ff; stroke-width: 0.6; stroke-linecap: square"/>
   </g>
   <g id="line2d_30">
    <path d="M 62.825568 228.955699 
L 63.079458 230.557091 
L 63.333349 151.768299 
L 63.841129 106.288595 
L 64.095019 186.99907 
L 64.34891 114.615875 
L 64.6028 130.950143 
L 64.85669 92.836849 
L 65.11058 167.782306 
L 65.364471 113.334744 
L 65.618361 105.648044 
L 65.872251 130.309563 
L 66.126141 107.889987 
L 66.380032 96.359924 
L 66.633922 90.594906 
L 66.887812 115.896977 
L 67.141702 124.544546 
L 67.395593 204.934731 
L 67.649483 98.281606 
L 67.903373 124.864807 
L 68.157264 93.477429 
L 68.411154 101.164129 
L 68.665044 119.42008 
L 68.918934 89.954326 
L 69.172825 106.288595 
L 69.426715 103.085811 
L 69.934495 167.141726 
L 70.188386 97.000504 
L 70.442276 95.399083 
L 70.696166 92.196298 
L 70.950056 93.477429 
L 71.203947 98.601896 
L 71.457837 98.922157 
L 71.711727 100.843839 
L 71.965617 89.954326 
L 72.219508 111.413061 
L 72.473398 105.327754 
L 72.727288 213.582271 
L 72.981178 96.359924 
L 73.235069 105.327754 
L 73.488959 94.11798 
L 73.742849 94.11798 
L 73.996739 98.601896 
L 74.25063 96.039663 
L 74.50452 98.281606 
L 74.75841 91.235457 
L 75.0123 110.77251 
L 75.266191 101.80468 
L 75.520081 106.288595 
L 75.773971 113.014483 
L 76.027861 105.007493 
L 76.281752 132.551536 
L 76.535642 90.915167 
L 76.789532 99.242447 
L 77.043422 93.79769 
L 77.297313 99.562737 
L 77.551203 90.274616 
L 77.805093 107.569726 
L 78.058983 97.320765 
L 78.312874 112.373902 
L 78.820654 89.313775 
L 79.074544 93.157139 
L 79.328435 90.915167 
L 79.582325 106.929175 
L 79.836215 114.615875 
L 80.090105 87.712383 
L 80.343996 97.641055 
L 80.597886 100.843839 
L 80.851776 92.196298 
L 81.105666 160.415868 
L 81.359557 104.046652 
L 81.613447 93.79769 
L 82.121227 96.680214 
L 82.375118 101.164129 
L 82.629008 120.380892 
L 82.882898 97.961345 
L 83.136788 117.178108 
L 83.644569 92.836849 
L 83.898459 99.242447 
L 84.15235 121.341733 
L 84.40624 98.281606 
L 84.66013 145.36273 
L 84.91402 93.157139 
L 85.167911 91.235457 
L 85.421801 97.641055 
L 85.675691 92.836849 
L 85.929581 92.836849 
L 86.183472 125.185097 
L 86.437362 92.516588 
L 86.691252 92.836849 
L 86.945142 94.438241 
L 87.199033 94.11798 
L 87.706813 116.217267 
L 87.960703 99.882998 
L 88.214594 98.922157 
L 88.468484 92.836849 
L 88.722374 103.406072 
L 88.976264 89.313775 
L 89.484045 119.42008 
L 89.737935 89.954326 
L 89.991825 91.876008 
L 90.245716 92.196298 
L 90.499606 95.719373 
L 90.753496 96.680214 
L 91.007386 90.594906 
L 91.261277 96.359924 
L 91.515167 96.680214 
L 91.769057 99.242447 
L 92.022947 115.896977 
L 92.276838 104.046652 
L 92.530728 101.80468 
L 92.784618 97.961345 
L 93.038508 91.235457 
L 93.292399 94.438241 
L 93.546289 101.484419 
L 93.800179 98.601896 
L 94.054069 105.007493 
L 94.30796 103.085811 
L 94.56185 116.217267 
L 94.81574 90.274616 
L 95.06963 96.039663 
L 95.323521 94.11798 
L 95.577411 93.477429 
L 95.831301 91.555747 
L 96.085191 124.864807 
L 96.592972 93.79769 
L 96.846862 131.590695 
L 97.100752 98.601896 
L 97.354643 94.438241 
L 97.608533 165.860624 
L 97.862423 179.632631 
L 98.116313 107.569726 
L 98.370204 93.157139 
L 98.624094 93.477429 
L 98.877984 96.680214 
L 99.131874 110.131959 
L 99.385765 101.484419 
L 99.639655 103.726362 
L 99.893545 92.516588 
L 100.147436 102.765521 
L 100.401326 91.235457 
L 100.655216 95.078822 
L 100.909106 96.680214 
L 101.162997 99.882998 
L 101.416887 96.680214 
L 101.670777 106.929175 
L 101.924667 96.039663 
L 102.178558 98.922157 
L 102.432448 153.04943 
L 102.686338 98.281606 
L 102.940228 100.843839 
L 103.194119 111.0928 
L 103.448009 92.516588 
L 103.701899 106.929175 
L 103.955789 95.078822 
L 104.20968 101.164129 
L 104.46357 97.641055 
L 104.71746 100.523578 
L 104.97135 98.922157 
L 105.225241 95.078822 
L 105.479131 101.80468 
L 105.733021 94.11798 
L 105.986911 98.922157 
L 106.240802 97.320765 
L 106.494692 116.217267 
L 107.002472 100.523578 
L 107.256363 100.203288 
L 107.510253 92.836849 
L 107.764143 95.399083 
L 108.018033 101.80468 
L 108.271924 96.039663 
L 108.525814 97.961345 
L 109.033594 104.046652 
L 109.287485 94.438241 
L 109.541375 102.44526 
L 109.795265 95.078822 
L 110.049155 188.920752 
L 110.303046 99.242447 
L 110.556936 101.484419 
L 110.810826 98.281606 
L 111.064716 97.961345 
L 111.318607 102.12497 
L 111.572497 97.961345 
L 111.826387 102.12497 
L 112.080277 96.680214 
L 112.334168 123.583705 
L 112.588058 105.648044 
L 112.841948 117.498398 
L 113.095838 91.235457 
L 113.349729 182.515154 
L 113.603619 97.320765 
L 113.857509 104.366913 
L 114.111399 148.565514 
L 114.36529 100.843839 
L 114.61918 106.288595 
L 114.87307 96.039663 
L 115.12696 113.655034 
L 115.380851 98.281606 
L 115.634741 120.380892 
L 115.888631 96.680214 
L 116.142521 100.523578 
L 116.396412 96.039663 
L 116.650302 99.562737 
L 117.158083 92.516588 
L 117.411973 111.413061 
L 117.919753 95.719373 
L 118.173644 96.680214 
L 118.427534 100.843839 
L 118.681424 102.44526 
L 118.935314 93.157139 
L 119.189205 111.733351 
L 119.443095 98.281606 
L 119.696985 100.203288 
L 119.950875 136.3949 
L 120.204766 91.555747 
L 120.458656 91.555747 
L 120.712546 100.523578 
L 120.966436 97.000504 
L 121.220327 105.648044 
L 121.474217 107.249436 
L 121.981997 98.281606 
L 122.235888 100.203288 
L 122.489778 100.203288 
L 122.743668 94.438241 
L 122.997558 112.694192 
L 123.251449 103.406072 
L 124.013119 94.758531 
L 124.26701 101.164129 
L 124.5209 97.961345 
L 124.77479 101.484419 
L 125.02868 100.203288 
L 125.282571 99.882998 
L 125.536461 98.281606 
L 126.044241 110.452249 
L 126.552022 92.196298 
L 126.805912 95.399083 
L 127.059802 89.313775 
L 127.313693 108.210277 
L 127.567583 94.758531 
L 127.821473 104.366913 
L 128.075363 104.046652 
L 128.329254 106.929175 
L 128.583144 112.694192 
L 128.837034 97.000504 
L 129.090924 113.655034 
L 129.344815 100.843839 
L 129.598705 95.719373 
L 129.852595 97.000504 
L 130.106485 95.399083 
L 130.360376 97.961345 
L 130.614266 98.281606 
L 130.868156 97.000504 
L 131.375937 102.765521 
L 131.629827 112.373902 
L 131.883717 100.203288 
L 132.137607 101.80468 
L 132.391498 94.438241 
L 132.645388 112.053641 
L 132.899278 97.000504 
L 133.153169 106.288595 
L 133.407059 94.438241 
L 133.660949 104.366913 
L 133.914839 100.843839 
L 134.16873 106.288595 
L 134.42262 95.078822 
L 134.67651 106.608885 
L 134.9304 151.768299 
L 135.184291 97.961345 
L 135.438181 95.078822 
L 135.692071 101.484419 
L 135.945961 98.281606 
L 136.199852 101.164129 
L 136.453742 93.477429 
L 136.707632 91.555747 
L 136.961522 102.765521 
L 137.215413 93.79769 
L 137.469303 97.320765 
L 137.723193 93.79769 
L 137.977083 101.484419 
L 138.230974 92.516588 
L 138.484864 99.882998 
L 138.738754 95.719373 
L 138.992644 97.961345 
L 139.246535 105.968334 
L 139.500425 98.281606 
L 139.754315 103.085811 
L 140.008205 98.601896 
L 140.262096 101.484419 
L 140.515986 101.80468 
L 140.769876 101.164129 
L 141.023766 97.641055 
L 141.277657 96.359924 
L 141.531547 101.80468 
L 141.785437 102.765521 
L 142.039327 92.836849 
L 142.293218 95.078822 
L 142.547108 119.42008 
L 142.800998 98.601896 
L 143.054888 99.242447 
L 143.308779 99.242447 
L 143.562669 106.929175 
L 143.816559 92.836849 
L 144.070449 108.210277 
L 144.32434 98.281606 
L 144.57823 105.968334 
L 144.83212 119.42008 
L 145.08601 102.765521 
L 145.339901 103.726362 
L 145.593791 118.138949 
L 145.847681 97.000504 
L 146.101571 93.79769 
L 146.609352 105.968334 
L 147.117132 94.11798 
L 147.371023 99.242447 
L 147.624913 129.028461 
L 147.878803 92.516588 
L 148.132693 96.680214 
L 148.386584 108.530567 
L 148.640474 94.11798 
L 149.148255 100.523578 
L 149.402145 119.740341 
L 149.656035 101.484419 
L 149.909925 93.79769 
L 150.163816 103.406072 
L 150.417706 105.648044 
L 151.179377 99.242447 
L 151.433267 98.281606 
L 151.687157 99.562737 
L 151.941047 98.601896 
L 152.194938 135.434059 
L 152.448828 94.438241 
L 152.956608 112.694192 
L 153.210499 94.758531 
L 153.464389 95.078822 
L 153.972169 97.000504 
L 154.22606 96.039663 
L 154.47995 98.601896 
L 154.73384 102.44526 
L 154.98773 96.680214 
L 155.241621 121.021472 
L 155.495511 94.11798 
L 155.749401 104.366913 
L 156.003291 122.622864 
L 156.257182 117.178108 
L 156.764962 98.601896 
L 157.018852 104.046652 
L 157.272743 98.281606 
L 157.526633 102.44526 
L 157.780523 103.726362 
L 158.034413 112.694192 
L 158.288304 99.562737 
L 158.542194 93.477429 
L 159.049974 108.530567 
L 159.303865 97.641055 
L 159.557755 102.44526 
L 159.811645 101.164129 
L 160.065535 107.249436 
L 160.319426 97.641055 
L 160.573316 97.641055 
L 160.827206 101.164129 
L 161.081096 99.562737 
L 161.334987 108.530567 
L 161.588877 101.80468 
L 162.096657 97.961345 
L 162.350548 98.281606 
L 162.604438 101.80468 
L 163.112218 98.281606 
L 163.366109 98.922157 
L 163.619999 108.210277 
L 163.873889 113.014483 
L 164.127779 96.039663 
L 164.38167 97.000504 
L 164.63556 113.655034 
L 164.88945 105.968334 
L 165.14334 94.11798 
L 165.397231 101.80468 
L 165.651121 101.484419 
L 165.905011 93.477429 
L 166.158902 106.929175 
L 166.412792 96.039663 
L 166.666682 109.171118 
L 166.920572 107.569726 
L 167.174463 97.641055 
L 167.428353 100.523578 
L 167.682243 99.562737 
L 167.936133 105.648044 
L 168.190024 96.359924 
L 168.443914 99.242447 
L 168.697804 97.000504 
L 168.951694 99.562737 
L 169.205585 100.203288 
L 169.459475 119.740341 
L 169.713365 99.882998 
L 169.967255 102.12497 
L 170.221146 96.680214 
L 170.475036 103.406072 
L 170.728926 95.078822 
L 170.982816 112.053641 
L 171.490597 96.039663 
L 171.744487 97.000504 
L 171.998377 99.562737 
L 172.252268 108.530567 
L 172.506158 102.765521 
L 172.760048 105.327754 
L 173.013938 96.359924 
L 173.267829 98.922157 
L 173.521719 213.582271 
L 173.775609 99.242447 
L 174.029499 97.641055 
L 174.53728 114.615875 
L 174.79117 97.000504 
L 175.04506 96.680214 
L 175.298951 106.929175 
L 175.552841 97.320765 
L 175.806731 97.320765 
L 176.060621 91.555747 
L 176.314512 115.576716 
L 176.568402 105.007493 
L 176.822292 106.608885 
L 177.076182 100.203288 
L 177.330073 102.12497 
L 177.583963 97.641055 
L 177.837853 122.302574 
L 178.345634 96.680214 
L 178.599524 94.438241 
L 179.107304 103.406072 
L 179.361195 94.11798 
L 179.615085 119.09979 
L 179.868975 97.000504 
L 180.122865 117.178108 
L 180.630646 97.320765 
L 180.884536 98.922157 
L 181.138426 96.039663 
L 181.392317 95.719373 
L 181.646207 100.203288 
L 182.153988 124.864807 
L 182.407878 102.765521 
L 182.661768 97.320765 
L 182.915658 99.242447 
L 183.169549 103.726362 
L 183.423439 97.320765 
L 183.677329 97.000504 
L 183.931219 107.889987 
L 184.18511 101.164129 
L 184.439 102.44526 
L 184.69289 94.438241 
L 184.94678 101.484419 
L 185.200671 98.601896 
L 185.454561 99.562737 
L 185.708451 103.726362 
L 185.962341 118.7795 
L 186.216232 95.719373 
L 186.470122 104.366913 
L 186.724012 186.358519 
L 186.977902 127.427069 
L 187.231793 112.053641 
L 187.485683 129.028461 
L 187.739573 107.249436 
L 187.993463 100.843839 
L 188.247354 106.608885 
L 188.501244 106.608885 
L 188.755134 99.242447 
L 189.009024 99.882998 
L 189.262915 108.530567 
L 189.770695 97.641055 
L 190.024585 96.359924 
L 190.278476 97.320765 
L 190.532366 105.007493 
L 190.786256 96.680214 
L 191.040146 96.359924 
L 191.547927 101.80468 
L 191.801817 105.007493 
L 192.055707 110.131959 
L 192.309598 105.007493 
L 192.563488 102.765521 
L 192.817378 99.242447 
L 193.071268 100.523578 
L 193.325159 95.078822 
L 193.579049 106.288595 
L 193.832939 101.80468 
L 194.34072 98.601896 
L 194.59461 99.242447 
L 194.8485 99.242447 
L 195.10239 100.203288 
L 195.356281 105.648044 
L 195.610171 100.523578 
L 195.864061 98.281606 
L 196.117951 103.726362 
L 196.625732 96.039663 
L 196.879622 105.327754 
L 197.133512 127.74733 
L 197.387403 100.843839 
L 197.641293 92.836849 
L 198.149074 110.77251 
L 198.402964 101.164129 
L 198.656854 118.459239 
L 198.910744 98.922157 
L 199.164635 98.281606 
L 199.418525 106.288595 
L 199.672415 121.341733 
L 199.926305 101.80468 
L 200.434086 104.366913 
L 200.687976 105.648044 
L 200.941866 104.366913 
L 201.195757 113.014483 
L 201.449647 98.601896 
L 201.703537 101.80468 
L 201.957427 97.641055 
L 202.211318 108.850828 
L 202.719098 99.242447 
L 202.972988 108.210277 
L 203.226879 130.309563 
L 203.480769 101.164129 
L 203.734659 107.569726 
L 203.988549 111.0928 
L 204.24244 99.882998 
L 204.49633 94.11798 
L 204.75022 94.11798 
L 205.00411 96.359924 
L 205.258001 114.615875 
L 205.511891 95.078822 
L 205.765781 136.3949 
L 206.019671 102.765521 
L 206.527452 95.399083 
L 206.781342 103.406072 
L 207.035232 123.903995 
L 207.289123 98.922157 
L 207.796903 94.758531 
L 208.050793 103.085811 
L 208.304684 102.44526 
L 208.558574 107.249436 
L 208.812464 120.380892 
L 209.320245 96.359924 
L 209.574135 131.910985 
L 209.828025 101.80468 
L 210.081915 102.44526 
L 210.335806 105.648044 
L 210.589696 98.281606 
L 210.843586 99.242447 
L 211.351367 105.648044 
L 211.605257 94.11798 
L 211.859147 105.968334 
L 212.113037 112.053641 
L 212.366928 94.758531 
L 212.620818 111.413061 
L 212.874708 99.882998 
L 213.128598 108.210277 
L 213.382489 97.000504 
L 213.636379 105.327754 
L 213.890269 103.726362 
L 214.14416 110.131959 
L 214.39805 98.601896 
L 214.65194 92.516588 
L 214.90583 94.758531 
L 215.159721 104.687203 
L 215.413611 99.882998 
L 215.667501 126.145938 
L 215.921391 104.046652 
L 216.175282 93.157139 
L 216.429172 99.562737 
L 216.683062 115.576716 
L 217.190843 96.680214 
L 217.444733 101.164129 
L 217.698623 98.281606 
L 218.206404 103.726362 
L 218.460294 100.523578 
L 218.714184 103.085811 
L 218.968074 97.000504 
L 219.221965 124.544546 
L 219.729745 90.594906 
L 219.983635 94.438241 
L 220.237526 103.406072 
L 220.491416 101.80468 
L 220.745306 106.288595 
L 220.999196 97.000504 
L 221.253087 105.968334 
L 221.506977 131.910985 
L 221.760867 104.366913 
L 222.014757 114.295585 
L 222.268648 101.164129 
L 222.522538 100.843839 
L 222.776428 109.491408 
L 223.030318 97.000504 
L 223.284209 101.80468 
L 223.791989 104.046652 
L 224.045879 97.641055 
L 224.29977 107.249436 
L 224.55366 99.562737 
L 224.80755 107.889987 
L 225.06144 96.680214 
L 225.315331 98.922157 
L 225.569221 97.000504 
L 225.823111 100.203288 
L 226.077001 105.007493 
L 226.584782 95.719373 
L 226.838672 114.936165 
L 227.092562 100.523578 
L 227.346453 110.452249 
L 227.600343 106.929175 
L 227.854233 120.380892 
L 228.108123 112.053641 
L 228.362014 99.242447 
L 228.615904 103.085811 
L 228.869794 95.078822 
L 229.123684 131.590695 
L 229.377575 95.399083 
L 229.631465 130.950143 
L 229.885355 97.961345 
L 230.139245 103.406072 
L 230.393136 106.288595 
L 230.647026 101.164129 
L 230.900916 99.882998 
L 231.154807 99.882998 
L 231.408697 97.961345 
L 231.662587 98.922157 
L 232.170368 102.765521 
L 232.424258 96.359924 
L 232.678148 99.882998 
L 232.932038 99.882998 
L 233.185929 97.320765 
L 233.439819 97.961345 
L 233.693709 107.569726 
L 233.947599 95.399083 
L 234.20149 101.484419 
L 234.45538 99.242447 
L 234.70927 110.131959 
L 234.96316 101.484419 
L 235.217051 104.366913 
L 235.470941 99.562737 
L 235.724831 99.882998 
L 235.978721 106.288595 
L 236.232612 100.523578 
L 236.486502 113.014483 
L 236.740392 101.164129 
L 236.994282 118.7795 
L 237.502063 101.80468 
L 237.755953 103.085811 
L 238.009843 109.171118 
L 238.263734 99.242447 
L 238.517624 98.281606 
L 238.771514 97.961345 
L 239.025404 95.719373 
L 239.279295 107.889987 
L 239.533185 105.327754 
L 239.787075 96.039663 
L 240.040965 102.12497 
L 240.548746 121.982313 
L 240.802636 97.000504 
L 241.056526 101.484419 
L 241.310417 102.44526 
L 241.564307 95.399083 
L 241.818197 112.053641 
L 242.072087 100.843839 
L 242.325978 95.399083 
L 242.579868 106.929175 
L 242.833758 102.12497 
L 243.087648 102.765521 
L 243.341539 96.680214 
L 243.595429 94.758531 
L 243.849319 94.758531 
L 244.103209 97.641055 
L 244.3571 102.765521 
L 244.61099 102.12497 
L 244.86488 98.601896 
L 245.11877 101.484419 
L 245.372661 102.765521 
L 245.626551 95.078822 
L 245.880441 101.484419 
L 246.134331 96.680214 
L 246.388222 100.843839 
L 246.642112 101.484419 
L 246.896002 104.366913 
L 247.149893 103.085811 
L 247.403783 90.915167 
L 247.657673 97.000504 
L 247.911563 95.719373 
L 248.165454 102.44526 
L 248.419344 97.641055 
L 248.673234 97.000504 
L 248.927124 120.380892 
L 249.181015 100.843839 
L 249.434905 107.249436 
L 249.688795 98.922157 
L 249.942685 99.242447 
L 250.196576 101.484419 
L 250.450466 106.288595 
L 250.958246 97.000504 
L 251.212137 96.680214 
L 251.466027 148.245224 
L 251.719917 102.765521 
L 251.973807 103.726362 
L 252.227698 121.341733 
L 252.481588 104.046652 
L 252.735478 103.726362 
L 252.989368 97.320765 
L 253.243259 98.922157 
L 253.497149 99.242447 
L 253.751039 102.44526 
L 254.004929 98.922157 
L 254.25882 101.164129 
L 254.51271 96.680214 
L 254.7666 127.427069 
L 255.02049 97.961345 
L 255.274381 100.523578 
L 255.528271 109.811669 
L 255.782161 124.544546 
L 256.036051 100.203288 
L 256.289942 94.758531 
L 256.543832 102.12497 
L 256.797722 103.406072 
L 257.305503 100.523578 
L 257.559393 117.178108 
L 257.813283 98.281606 
L 258.067173 102.765521 
L 258.321064 100.523578 
L 258.574954 108.850828 
L 258.828844 112.373902 
L 259.082734 98.922157 
L 259.336625 95.719373 
L 259.590515 102.44526 
L 259.844405 99.562737 
L 260.098295 112.373902 
L 260.352186 112.694192 
L 260.606076 98.922157 
L 260.859966 103.085811 
L 261.113856 197.248031 
L 261.367747 98.922157 
L 261.621637 97.961345 
L 261.875527 107.569726 
L 262.129417 99.882998 
L 262.637198 104.046652 
L 262.891088 94.11798 
L 263.144979 104.046652 
L 263.398869 97.320765 
L 263.652759 101.164129 
L 263.906649 97.320765 
L 264.16054 96.359924 
L 264.41443 101.484419 
L 264.66832 101.164129 
L 264.92221 110.131959 
L 265.176101 99.562737 
L 265.429991 99.882998 
L 265.683881 125.185097 
L 265.937771 107.889987 
L 266.191662 106.608885 
L 266.699442 96.039663 
L 266.953332 101.484419 
L 267.461113 97.000504 
L 267.715003 100.203288 
L 267.968893 101.80468 
L 268.222784 100.203288 
L 268.476674 112.694192 
L 268.730564 97.961345 
L 269.238345 106.288595 
L 269.492235 108.530567 
L 269.746125 98.601896 
L 270.000015 101.80468 
L 270.253906 106.929175 
L 270.507796 98.601896 
L 270.761686 102.765521 
L 271.015576 96.359924 
L 271.269467 107.249436 
L 271.523357 102.12497 
L 271.777247 101.484419 
L 272.031137 97.961345 
L 272.285028 100.203288 
L 272.538918 97.000504 
L 273.046698 114.615875 
L 273.300589 97.000504 
L 273.554479 101.484419 
L 273.808369 115.576716 
L 274.062259 92.836849 
L 274.31615 115.256426 
L 274.82393 99.562737 
L 275.331711 101.484419 
L 275.585601 96.039663 
L 275.839491 100.523578 
L 276.093381 94.758531 
L 276.347272 101.164129 
L 276.601162 95.399083 
L 276.855052 113.655034 
L 277.108942 105.007493 
L 277.362833 111.733351 
L 277.616723 104.366913 
L 277.870613 107.249436 
L 278.124503 94.438241 
L 278.378394 98.281606 
L 278.632284 100.203288 
L 278.886174 100.203288 
L 279.393955 100.843839 
L 279.647845 107.249436 
L 279.901735 100.523578 
L 280.155626 99.882998 
L 280.409516 105.007493 
L 280.663406 97.000504 
L 281.171187 98.281606 
L 281.425077 104.687203 
L 281.678967 95.719373 
L 281.932857 102.765521 
L 282.186748 105.968334 
L 282.440638 97.641055 
L 282.694528 95.719373 
L 282.948418 95.719373 
L 283.202309 102.765521 
L 283.456199 97.961345 
L 283.710089 98.281606 
L 283.963979 103.085811 
L 284.21787 103.406072 
L 284.72565 101.164129 
L 284.97954 109.171118 
L 285.233431 99.882998 
L 285.487321 100.843839 
L 285.741211 108.530567 
L 286.248992 91.876008 
L 287.010662 102.765521 
L 287.264553 100.843839 
L 287.518443 103.726362 
L 287.772333 95.399083 
L 288.026223 100.203288 
L 288.280114 93.477429 
L 288.534004 99.242447 
L 288.787894 96.680214 
L 289.041784 109.811669 
L 289.295675 105.648044 
L 289.549565 125.185097 
L 289.803455 101.80468 
L 290.057345 107.569726 
L 290.311236 103.085811 
L 290.565126 106.608885 
L 290.819016 94.758531 
L 291.072906 98.601896 
L 291.326797 98.601896 
L 291.580687 97.961345 
L 291.834577 134.473218 
L 292.088467 96.359924 
L 292.596248 109.491408 
L 292.850138 133.192087 
L 293.104028 97.961345 
L 293.357919 106.288595 
L 293.611809 126.145938 
L 293.865699 106.288595 
L 294.119589 98.922157 
L 294.37348 104.687203 
L 294.62737 103.726362 
L 294.88126 101.484419 
L 295.13515 96.680214 
L 295.389041 103.406072 
L 295.642931 103.406072 
L 295.896821 127.74733 
L 296.150712 102.12497 
L 296.404602 106.288595 
L 296.658492 99.562737 
L 296.912382 98.281606 
L 297.166273 103.085811 
L 297.420163 95.719373 
L 297.674053 98.281606 
L 297.927943 98.281606 
L 298.181834 97.320765 
L 298.435724 98.922157 
L 298.689614 97.641055 
L 298.943504 101.80468 
L 299.197395 94.758531 
L 299.451285 112.053641 
L 299.705175 103.726362 
L 300.212956 99.882998 
L 300.720736 113.655034 
L 300.974626 99.242447 
L 301.228517 96.359924 
L 301.482407 102.12497 
L 301.736297 96.359924 
L 301.990187 104.366913 
L 302.244078 125.825648 
L 302.497968 106.929175 
L 302.751858 121.982313 
L 303.259639 91.235457 
L 303.767419 115.256426 
L 304.021309 102.12497 
L 304.2752 97.961345 
L 304.52909 98.601896 
L 304.78298 97.961345 
L 305.03687 101.164129 
L 305.290761 100.203288 
L 305.544651 110.452249 
L 305.798541 94.438241 
L 306.052431 113.975324 
L 306.306322 97.320765 
L 306.560212 97.961345 
L 306.814102 97.000504 
L 307.067992 107.889987 
L 307.321883 104.687203 
L 307.575773 99.242447 
L 307.829663 104.687203 
L 308.083553 101.484419 
L 308.337444 94.438241 
L 308.591334 101.484419 
L 308.845224 98.281606 
L 309.099114 99.562737 
L 309.353005 103.406072 
L 309.606895 100.843839 
L 309.860785 103.726362 
L 310.114675 115.576716 
L 310.368566 97.320765 
L 310.622456 113.975324 
L 310.876346 98.922157 
L 311.130236 99.562737 
L 311.384127 98.281606 
L 311.638017 92.196298 
L 311.891907 95.399083 
L 312.145798 100.843839 
L 312.399688 101.164129 
L 312.653578 98.601896 
L 312.907468 93.157139 
L 313.161359 109.171118 
L 313.415249 106.288595 
L 313.669139 97.320765 
L 313.923029 100.203288 
L 314.17692 100.203288 
L 314.43081 105.648044 
L 314.93859 99.882998 
L 315.192481 103.726362 
L 315.446371 104.046652 
L 315.700261 100.523578 
L 315.954151 98.601896 
L 316.208042 104.046652 
L 316.461932 99.882998 
L 316.461932 99.882998 
" clip-path="url(#pea44cee050)" style="fill: none; stroke: #ff0000; stroke-width: 0.6; stroke-linecap: square"/>
   </g>
   <g id="patch_3">
    <path d="M 50.14375 239.76 
L 50.14375 37.296 
" style="fill: none; stroke: #000000; stroke-width: 0.8; stroke-linejoin: miter; stroke-linecap: square"/>
   </g>
   <g id="patch_4">
    <path d="M 329.14375 239.76 
L 329.14375 37.296 
" style="fill: none; stroke: #000000; stroke-width: 0.8; stroke-linejoin: miter; stroke-linecap: square"/>
   </g>
   <g id="patch_5">
    <path d="M 50.14375 239.76 
L 329.14375 239.76 
" style="fill: none; stroke: #000000; stroke-width: 0.8; stroke-linejoin: miter; stroke-linecap: square"/>
   </g>
   <g id="patch_6">
    <path d="M 50.14375 37.296 
L 329.14375 37.296 
" style="fill: none; stroke: #000000; stroke-width: 0.8; stroke-linejoin: miter; stroke-linecap: square"/>
   </g>
   <g id="text_17">
    <!-- Baseline Model -->
    <g transform="translate(155.622344 31.296) scale(0.09 -0.09)">
     <defs>
      <path id="DejaVuSans-42" d="M 1259 2228 
L 1259 519 
L 2272 519 
Q 2781 519 3026 730 
Q 3272 941 3272 1375 
Q 3272 1813 3026 2020 
Q 2781 2228 2272 2228 
L 1259 2228 
z
M 1259 4147 
L 1259 2741 
L 2194 2741 
Q 2656 2741 2882 2914 
Q 3109 3088 3109 3444 
Q 3109 3797 2882 3972 
Q 2656 4147 2194 4147 
L 1259 4147 
z
M 628 4666 
L 2241 4666 
Q 2963 4666 3353 4366 
Q 3744 4066 3744 3513 
Q 3744 3084 3544 2831 
Q 3344 2578 2956 2516 
Q 3422 2416 3680 2098 
Q 3938 1781 3938 1306 
Q 3938 681 3513 340 
Q 3088 0 2303 0 
L 628 0 
L 628 4666 
z
" transform="scale(0.015625)"/>
      <path id="DejaVuSans-65" d="M 3597 1894 
L 3597 1613 
L 953 1613 
Q 991 1019 1311 708 
Q 1631 397 2203 397 
Q 2534 397 2845 478 
Q 3156 559 3463 722 
L 3463 178 
Q 3153 47 2828 -22 
Q 2503 -91 2169 -91 
Q 1331 -91 842 396 
Q 353 884 353 1716 
Q 353 2575 817 3079 
Q 1281 3584 2069 3584 
Q 2775 3584 3186 3129 
Q 3597 2675 3597 1894 
z
M 3022 2063 
Q 3016 2534 2758 2815 
Q 2500 3097 2075 3097 
Q 1594 3097 1305 2825 
Q 1016 2553 972 2059 
L 3022 2063 
z
" transform="scale(0.015625)"/>
      <path id="DejaVuSans-6c" d="M 603 4863 
L 1178 4863 
L 1178 0 
L 603 0 
L 603 4863 
z
" transform="scale(0.015625)"/>
      <path id="DejaVuSans-69" d="M 603 3500 
L 1178 3500 
L 1178 0 
L 603 0 
L 603 3500 
z
M 603 4863 
L 1178 4863 
L 1178 4134 
L 603 4134 
L 603 4863 
z
" transform="scale(0.015625)"/>
      <path id="DejaVuSans-6e" d="M 3513 2113 
L 3513 0 
L 2938 0 
L 2938 2094 
Q 2938 2591 2744 2837 
Q 2550 3084 2163 3084 
Q 1697 3084 1428 2787 
Q 1159 2491 1159 1978 
L 1159 0 
L 581 0 
L 581 3500 
L 1159 3500 
L 1159 2956 
Q 1366 3272 1645 3428 
Q 1925 3584 2291 3584 
Q 2894 3584 3203 3211 
Q 3513 2838 3513 2113 
z
" transform="scale(0.015625)"/>
      <path id="DejaVuSans-20" transform="scale(0.015625)"/>
      <path id="DejaVuSans-4d" d="M 628 4666 
L 1569 4666 
L 2759 1491 
L 3956 4666 
L 4897 4666 
L 4897 0 
L 4281 0 
L 4281 4097 
L 3078 897 
L 2444 897 
L 1241 4097 
L 1241 0 
L 628 0 
L 628 4666 
z
" transform="scale(0.015625)"/>
      <path id="DejaVuSans-64" d="M 2906 2969 
L 2906 4863 
L 3481 4863 
L 3481 0 
L 2906 0 
L 2906 525 
Q 2725 213 2448 61 
Q 2172 -91 1784 -91 
Q 1150 -91 751 415 
Q 353 922 353 1747 
Q 353 2572 751 3078 
Q 1150 3584 1784 3584 
Q 2172 3584 2448 3432 
Q 2725 3281 2906 2969 
z
M 947 1747 
Q 947 1113 1208 752 
Q 1469 391 1925 391 
Q 2381 391 2643 752 
Q 2906 1113 2906 1747 
Q 2906 2381 2643 2742 
Q 2381 3103 1925 3103 
Q 1469 3103 1208 2742 
Q 947 2381 947 1747 
z
" transform="scale(0.015625)"/>
     </defs>
     <use xlink:href="#DejaVuSans-42"/>
     <use xlink:href="#DejaVuSans-61" x="68.603516"/>
     <use xlink:href="#DejaVuSans-73" x="129.882812"/>
     <use xlink:href="#DejaVuSans-65" x="181.982422"/>
     <use xlink:href="#DejaVuSans-6c" x="243.505859"/>
     <use xlink:href="#DejaVuSans-69" x="271.289062"/>
     <use xlink:href="#DejaVuSans-6e" x="299.072266"/>
     <use xlink:href="#DejaVuSans-65" x="362.451172"/>
     <use xlink:href="#DejaVuSans-20" x="423.974609"/>
     <use xlink:href="#DejaVuSans-4d" x="455.761719"/>
     <use xlink:href="#DejaVuSans-6f" x="542.041016"/>
     <use xlink:href="#DejaVuSans-64" x="603.222656"/>
     <use xlink:href="#DejaVuSans-65" x="666.699219"/>
     <use xlink:href="#DejaVuSans-6c" x="728.222656"/>
    </g>
   </g>
   <g id="legend_1">
    <g id="patch_7">
     <path d="M 191.928125 234.76 
L 322.14375 234.76 
Q 324.14375 234.76 324.14375 232.76 
L 324.14375 204.40375 
Q 324.14375 202.40375 322.14375 202.40375 
L 191.928125 202.40375 
Q 189.928125 202.40375 189.928125 204.40375 
L 189.928125 232.76 
Q 189.928125 234.76 191.928125 234.76 
z
" style="fill: #ffffff; opacity: 0.8; stroke: #cccccc; stroke-linejoin: miter"/>
    </g>
    <g id="line2d_31">
     <path d="M 193.928125 210.502187 
L 203.928125 210.502187 
L 213.928125 210.502187 
" style="fill: none; stroke: #0000ff; stroke-width: 0.6; stroke-linecap: square"/>
    </g>
    <g id="text_18">
     <!-- Training Accuracy -->
     <g transform="translate(221.928125 214.002187) scale(0.1 -0.1)">
      <defs>
       <path id="DejaVuSans-54" d="M -19 4666 
L 3928 4666 
L 3928 4134 
L 2272 4134 
L 2272 0 
L 1638 0 
L 1638 4134 
L -19 4134 
L -19 4666 
z
" transform="scale(0.015625)"/>
       <path id="DejaVuSans-67" d="M 2906 1791 
Q 2906 2416 2648 2759 
Q 2391 3103 1925 3103 
Q 1463 3103 1205 2759 
Q 947 2416 947 1791 
Q 947 1169 1205 825 
Q 1463 481 1925 481 
Q 2391 481 2648 825 
Q 2906 1169 2906 1791 
z
M 3481 434 
Q 3481 -459 3084 -895 
Q 2688 -1331 1869 -1331 
Q 1566 -1331 1297 -1286 
Q 1028 -1241 775 -1147 
L 775 -588 
Q 1028 -725 1275 -790 
Q 1522 -856 1778 -856 
Q 2344 -856 2625 -561 
Q 2906 -266 2906 331 
L 2906 616 
Q 2728 306 2450 153 
Q 2172 0 1784 0 
Q 1141 0 747 490 
Q 353 981 353 1791 
Q 353 2603 747 3093 
Q 1141 3584 1784 3584 
Q 2172 3584 2450 3431 
Q 2728 3278 2906 2969 
L 2906 3500 
L 3481 3500 
L 3481 434 
z
" transform="scale(0.015625)"/>
      </defs>
      <use xlink:href="#DejaVuSans-54"/>
      <use xlink:href="#DejaVuSans-72" x="46.333984"/>
      <use xlink:href="#DejaVuSans-61" x="87.447266"/>
      <use xlink:href="#DejaVuSans-69" x="148.726562"/>
      <use xlink:href="#DejaVuSans-6e" x="176.509766"/>
      <use xlink:href="#DejaVuSans-69" x="239.888672"/>
      <use xlink:href="#DejaVuSans-6e" x="267.671875"/>
      <use xlink:href="#DejaVuSans-67" x="331.050781"/>
      <use xlink:href="#DejaVuSans-20" x="394.527344"/>
      <use xlink:href="#DejaVuSans-41" x="426.314453"/>
      <use xlink:href="#DejaVuSans-63" x="492.972656"/>
      <use xlink:href="#DejaVuSans-63" x="547.953125"/>
      <use xlink:href="#DejaVuSans-75" x="602.933594"/>
      <use xlink:href="#DejaVuSans-72" x="666.3125"/>
      <use xlink:href="#DejaVuSans-61" x="707.425781"/>
      <use xlink:href="#DejaVuSans-63" x="768.705078"/>
      <use xlink:href="#DejaVuSans-79" x="823.685547"/>
     </g>
    </g>
    <g id="line2d_32">
     <path d="M 193.928125 225.180312 
L 203.928125 225.180312 
L 213.928125 225.180312 
" style="fill: none; stroke: #ff0000; stroke-width: 0.6; stroke-linecap: square"/>
    </g>
    <g id="text_19">
     <!-- Validation Accuracy -->
     <g transform="translate(221.928125 228.680312) scale(0.1 -0.1)">
      <defs>
       <path id="DejaVuSans-56" d="M 1831 0 
L 50 4666 
L 709 4666 
L 2188 738 
L 3669 4666 
L 4325 4666 
L 2547 0 
L 1831 0 
z
" transform="scale(0.015625)"/>
       <path id="DejaVuSans-74" d="M 1172 4494 
L 1172 3500 
L 2356 3500 
L 2356 3053 
L 1172 3053 
L 1172 1153 
Q 1172 725 1289 603 
Q 1406 481 1766 481 
L 2356 481 
L 2356 0 
L 1766 0 
Q 1100 0 847 248 
Q 594 497 594 1153 
L 594 3053 
L 172 3053 
L 172 3500 
L 594 3500 
L 594 4494 
L 1172 4494 
z
" transform="scale(0.015625)"/>
      </defs>
      <use xlink:href="#DejaVuSans-56"/>
      <use xlink:href="#DejaVuSans-61" x="60.658203"/>
      <use xlink:href="#DejaVuSans-6c" x="121.9375"/>
      <use xlink:href="#DejaVuSans-69" x="149.720703"/>
      <use xlink:href="#DejaVuSans-64" x="177.503906"/>
      <use xlink:href="#DejaVuSans-61" x="240.980469"/>
      <use xlink:href="#DejaVuSans-74" x="302.259766"/>
      <use xlink:href="#DejaVuSans-69" x="341.46875"/>
      <use xlink:href="#DejaVuSans-6f" x="369.251953"/>
      <use xlink:href="#DejaVuSans-6e" x="430.433594"/>
      <use xlink:href="#DejaVuSans-20" x="493.8125"/>
      <use xlink:href="#DejaVuSans-41" x="525.599609"/>
      <use xlink:href="#DejaVuSans-63" x="592.257812"/>
      <use xlink:href="#DejaVuSans-63" x="647.238281"/>
      <use xlink:href="#DejaVuSans-75" x="702.21875"/>
      <use xlink:href="#DejaVuSans-72" x="765.597656"/>
      <use xlink:href="#DejaVuSans-61" x="806.710938"/>
      <use xlink:href="#DejaVuSans-63" x="867.990234"/>
      <use xlink:href="#DejaVuSans-79" x="922.970703"/>
     </g>
    </g>
   </g>
  </g>
  <g id="text_20">
   <!-- Training VS. Validation Accuracy - Dataset Size = 100.0% -->
   <g transform="translate(27.796484 15.558281) scale(0.11 -0.11)">
    <defs>
     <path id="DejaVuSans-53" d="M 3425 4513 
L 3425 3897 
Q 3066 4069 2747 4153 
Q 2428 4238 2131 4238 
Q 1616 4238 1336 4038 
Q 1056 3838 1056 3469 
Q 1056 3159 1242 3001 
Q 1428 2844 1947 2747 
L 2328 2669 
Q 3034 2534 3370 2195 
Q 3706 1856 3706 1288 
Q 3706 609 3251 259 
Q 2797 -91 1919 -91 
Q 1588 -91 1214 -16 
Q 841 59 441 206 
L 441 856 
Q 825 641 1194 531 
Q 1563 422 1919 422 
Q 2459 422 2753 634 
Q 3047 847 3047 1241 
Q 3047 1584 2836 1778 
Q 2625 1972 2144 2069 
L 1759 2144 
Q 1053 2284 737 2584 
Q 422 2884 422 3419 
Q 422 4038 858 4394 
Q 1294 4750 2059 4750 
Q 2388 4750 2728 4690 
Q 3069 4631 3425 4513 
z
" transform="scale(0.015625)"/>
     <path id="DejaVuSans-2d" d="M 313 2009 
L 1997 2009 
L 1997 1497 
L 313 1497 
L 313 2009 
z
" transform="scale(0.015625)"/>
     <path id="DejaVuSans-44" d="M 1259 4147 
L 1259 519 
L 2022 519 
Q 2988 519 3436 956 
Q 3884 1394 3884 2338 
Q 3884 3275 3436 3711 
Q 2988 4147 2022 4147 
L 1259 4147 
z
M 628 4666 
L 1925 4666 
Q 3281 4666 3915 4102 
Q 4550 3538 4550 2338 
Q 4550 1131 3912 565 
Q 3275 0 1925 0 
L 628 0 
L 628 4666 
z
" transform="scale(0.015625)"/>
     <path id="DejaVuSans-7a" d="M 353 3500 
L 3084 3500 
L 3084 2975 
L 922 459 
L 3084 459 
L 3084 0 
L 275 0 
L 275 525 
L 2438 3041 
L 353 3041 
L 353 3500 
z
" transform="scale(0.015625)"/>
     <path id="DejaVuSans-3d" d="M 678 2906 
L 4684 2906 
L 4684 2381 
L 678 2381 
L 678 2906 
z
M 678 1631 
L 4684 1631 
L 4684 1100 
L 678 1100 
L 678 1631 
z
" transform="scale(0.015625)"/>
     <path id="DejaVuSans-25" d="M 4653 2053 
Q 4381 2053 4226 1822 
Q 4072 1591 4072 1178 
Q 4072 772 4226 539 
Q 4381 306 4653 306 
Q 4919 306 5073 539 
Q 5228 772 5228 1178 
Q 5228 1588 5073 1820 
Q 4919 2053 4653 2053 
z
M 4653 2450 
Q 5147 2450 5437 2106 
Q 5728 1763 5728 1178 
Q 5728 594 5436 251 
Q 5144 -91 4653 -91 
Q 4153 -91 3862 251 
Q 3572 594 3572 1178 
Q 3572 1766 3864 2108 
Q 4156 2450 4653 2450 
z
M 1428 4353 
Q 1159 4353 1004 4120 
Q 850 3888 850 3481 
Q 850 3069 1003 2837 
Q 1156 2606 1428 2606 
Q 1700 2606 1854 2837 
Q 2009 3069 2009 3481 
Q 2009 3884 1853 4118 
Q 1697 4353 1428 4353 
z
M 4250 4750 
L 4750 4750 
L 1831 -91 
L 1331 -91 
L 4250 4750 
z
M 1428 4750 
Q 1922 4750 2215 4408 
Q 2509 4066 2509 3481 
Q 2509 2891 2217 2550 
Q 1925 2209 1428 2209 
Q 931 2209 642 2551 
Q 353 2894 353 3481 
Q 353 4063 643 4406 
Q 934 4750 1428 4750 
z
" transform="scale(0.015625)"/>
    </defs>
    <use xlink:href="#DejaVuSans-54"/>
    <use xlink:href="#DejaVuSans-72" x="46.333984"/>
    <use xlink:href="#DejaVuSans-61" x="87.447266"/>
    <use xlink:href="#DejaVuSans-69" x="148.726562"/>
    <use xlink:href="#DejaVuSans-6e" x="176.509766"/>
    <use xlink:href="#DejaVuSans-69" x="239.888672"/>
    <use xlink:href="#DejaVuSans-6e" x="267.671875"/>
    <use xlink:href="#DejaVuSans-67" x="331.050781"/>
    <use xlink:href="#DejaVuSans-20" x="394.527344"/>
    <use xlink:href="#DejaVuSans-56" x="426.314453"/>
    <use xlink:href="#DejaVuSans-53" x="494.722656"/>
    <use xlink:href="#DejaVuSans-2e" x="558.199219"/>
    <use xlink:href="#DejaVuSans-20" x="589.986328"/>
    <use xlink:href="#DejaVuSans-56" x="621.773438"/>
    <use xlink:href="#DejaVuSans-61" x="682.431641"/>
    <use xlink:href="#DejaVuSans-6c" x="743.710938"/>
    <use xlink:href="#DejaVuSans-69" x="771.494141"/>
    <use xlink:href="#DejaVuSans-64" x="799.277344"/>
    <use xlink:href="#DejaVuSans-61" x="862.753906"/>
    <use xlink:href="#DejaVuSans-74" x="924.033203"/>
    <use xlink:href="#DejaVuSans-69" x="963.242188"/>
    <use xlink:href="#DejaVuSans-6f" x="991.025391"/>
    <use xlink:href="#DejaVuSans-6e" x="1052.207031"/>
    <use xlink:href="#DejaVuSans-20" x="1115.585938"/>
    <use xlink:href="#DejaVuSans-41" x="1147.373047"/>
    <use xlink:href="#DejaVuSans-63" x="1214.03125"/>
    <use xlink:href="#DejaVuSans-63" x="1269.011719"/>
    <use xlink:href="#DejaVuSans-75" x="1323.992188"/>
    <use xlink:href="#DejaVuSans-72" x="1387.371094"/>
    <use xlink:href="#DejaVuSans-61" x="1428.484375"/>
    <use xlink:href="#DejaVuSans-63" x="1489.763672"/>
    <use xlink:href="#DejaVuSans-79" x="1544.744141"/>
    <use xlink:href="#DejaVuSans-20" x="1603.923828"/>
    <use xlink:href="#DejaVuSans-2d" x="1635.710938"/>
    <use xlink:href="#DejaVuSans-20" x="1671.794922"/>
    <use xlink:href="#DejaVuSans-44" x="1703.582031"/>
    <use xlink:href="#DejaVuSans-61" x="1780.583984"/>
    <use xlink:href="#DejaVuSans-74" x="1841.863281"/>
    <use xlink:href="#DejaVuSans-61" x="1881.072266"/>
    <use xlink:href="#DejaVuSans-73" x="1942.351562"/>
    <use xlink:href="#DejaVuSans-65" x="1994.451172"/>
    <use xlink:href="#DejaVuSans-74" x="2055.974609"/>
    <use xlink:href="#DejaVuSans-20" x="2095.183594"/>
    <use xlink:href="#DejaVuSans-53" x="2126.970703"/>
    <use xlink:href="#DejaVuSans-69" x="2190.447266"/>
    <use xlink:href="#DejaVuSans-7a" x="2218.230469"/>
    <use xlink:href="#DejaVuSans-65" x="2270.720703"/>
    <use xlink:href="#DejaVuSans-20" x="2332.244141"/>
    <use xlink:href="#DejaVuSans-3d" x="2364.03125"/>
    <use xlink:href="#DejaVuSans-20" x="2447.820312"/>
    <use xlink:href="#DejaVuSans-31" x="2479.607422"/>
    <use xlink:href="#DejaVuSans-30" x="2543.230469"/>
    <use xlink:href="#DejaVuSans-30" x="2606.853516"/>
    <use xlink:href="#DejaVuSans-2e" x="2670.476562"/>
    <use xlink:href="#DejaVuSans-30" x="2702.263672"/>
    <use xlink:href="#DejaVuSans-25" x="2765.886719"/>
   </g>
  </g>
 </g>
 <defs>
  <clipPath id="pea44cee050">
   <rect x="50.14375" y="37.296" width="279" height="202.464"/>
  </clipPath>
 </defs>
</svg>
