<?xml version="1.0" encoding="utf-8" standalone="no"?>
<!DOCTYPE svg PUBLIC "-//W3C//DTD SVG 1.1//EN"
  "http://www.w3.org/Graphics/SVG/1.1/DTD/svg11.dtd">
<svg xmlns:xlink="http://www.w3.org/1999/xlink" width="343.328516pt" height="277.31625pt" viewBox="0 0 343.328516 277.31625" xmlns="http://www.w3.org/2000/svg" version="1.1">
 <metadata>
  <rdf:RDF xmlns:dc="http://purl.org/dc/elements/1.1/" xmlns:cc="http://creativecommons.org/ns#" xmlns:rdf="http://www.w3.org/1999/02/22-rdf-syntax-ns#">
   <cc:Work>
    <dc:type rdf:resource="http://purl.org/dc/dcmitype/StillImage"/>
    <dc:date>2026-06-11T20:26:15.172866</dc:date>
    <dc:format>image/svg+xml</dc:format>
    <dc:creator>
     <cc:Agent>
      <dc:title>Matplotlib v3.8.4, https://matplotlib.org/</dc:title>
     </cc:Agent>
    </dc:creator>
   </cc:Work>
  </rdf:RDF>
 </metadata>
 <defs>
  <style type="text/css">*{stroke-linejoin: round; stroke-linecap: butt}</style>
 </defs>
 <g id="figure_1">
  <g id="patch_1">
   <path d="M 0 277.31625 
L 343.328516 277.31625 
L 343.328516 0 
L 0 0 
z
" style="fill: #ffffff"/>
  </g>
  <g id="axes_1">
   <g id="patch_2">
    <path d="M 43.78125 239.76 
L 322.78125 239.76 
L 322.78125 37.296 
L 43.78125 37.296 
z
" style="fill: #ffffff"/>
   </g>
   <g id="matplotlib.axis_1">
    <g id="xtick_1">
     <g id="line2d_1">
      <path d="M 56.209178 239.76 
L 56.209178 37.296 
" clip-path="url(#p9cb6f8a4ca)" style="fill: none; stroke-dasharray: 2.96,1.28; stroke-dashoffset: 0; stroke: #b0b0b0; stroke-opacity: 0.4; stroke-width: 0.8"/>
     </g>
     <g id="line2d_2">
      <defs>
       <path id="m101a1f96f9" d="M 0 0 
L 0 3.5 
" style="stroke: #000000; stroke-width: 0.8"/>
      </defs>
      <g>
       <use xlink:href="#m101a1f96f9" x="56.209178" y="239.76" style="stroke: #000000; stroke-width: 0.8"/>
      </g>
     </g>
     <g id="text_1">
      <!-- 0 -->
      <g transform="translate(53.027928 254.358437) scale(0.1 -0.1)">
       <defs>
        <path id="DejaVuSans-30" d="M 2034 4250 
Q 1547 4250 1301 3770 
Q 1056 3291 1056 2328 
Q 1056 1369 1301 889 
Q 1547 409 2034 409 
Q 2525 409 2770 889 
Q 3016 1369 3016 2328 
Q 3016 3291 2770 3770 
Q 2525 4250 2034 4250 
z
M 2034 4750 
Q 2819 4750 3233 4129 
Q 3647 3509 3647 2328 
Q 3647 1150 3233 529 
Q 2819 -91 2034 -91 
Q 1250 -91 836 529 
Q 422 1150 422 2328 
Q 422 3509 836 4129 
Q 1250 4750 2034 4750 
z
" transform="scale(0.015625)"/>
       </defs>
       <use xlink:href="#DejaVuSans-30"/>
      </g>
     </g>
    </g>
    <g id="xtick_2">
     <g id="line2d_3">
      <path d="M 106.987229 239.76 
L 106.987229 37.296 
" clip-path="url(#p9cb6f8a4ca)" style="fill: none; stroke-dasharray: 2.96,1.28; stroke-dashoffset: 0; stroke: #b0b0b0; stroke-opacity: 0.4; stroke-width: 0.8"/>
     </g>
     <g id="line2d_4">
      <g>
       <use xlink:href="#m101a1f96f9" x="106.987229" y="239.76" style="stroke: #000000; stroke-width: 0.8"/>
      </g>
     </g>
     <g id="text_2">
      <!-- 200 -->
      <g transform="translate(97.443479 254.358437) scale(0.1 -0.1)">
       <defs>
        <path id="DejaVuSans-32" d="M 1228 531 
L 3431 531 
L 3431 0 
L 469 0 
L 469 531 
Q 828 903 1448 1529 
Q 2069 2156 2228 2338 
Q 2531 2678 2651 2914 
Q 2772 3150 2772 3378 
Q 2772 3750 2511 3984 
Q 2250 4219 1831 4219 
Q 1534 4219 1204 4116 
Q 875 4013 500 3803 
L 500 4441 
Q 881 4594 1212 4672 
Q 1544 4750 1819 4750 
Q 2544 4750 2975 4387 
Q 3406 4025 3406 3419 
Q 3406 3131 3298 2873 
Q 3191 2616 2906 2266 
Q 2828 2175 2409 1742 
Q 1991 1309 1228 531 
z
" transform="scale(0.015625)"/>
       </defs>
       <use xlink:href="#DejaVuSans-32"/>
       <use xlink:href="#DejaVuSans-30" x="63.623047"/>
       <use xlink:href="#DejaVuSans-30" x="127.246094"/>
      </g>
     </g>
    </g>
    <g id="xtick_3">
     <g id="line2d_5">
      <path d="M 157.765279 239.76 
L 157.765279 37.296 
" clip-path="url(#p9cb6f8a4ca)" style="fill: none; stroke-dasharray: 2.96,1.28; stroke-dashoffset: 0; stroke: #b0b0b0; stroke-opacity: 0.4; stroke-width: 0.8"/>
     </g>
     <g id="line2d_6">
      <g>
       <use xlink:href="#m101a1f96f9" x="157.765279" y="239.76" style="stroke: #000000; stroke-width: 0.8"/>
      </g>
     </g>
     <g id="text_3">
      <!-- 400 -->
      <g transform="translate(148.221529 254.358437) scale(0.1 -0.1)">
       <defs>
        <path id="DejaVuSans-34" d="M 2419 4116 
L 825 1625 
L 2419 1625 
L 2419 4116 
z
M 2253 4666 
L 3047 4666 
L 3047 1625 
L 3713 1625 
L 3713 1100 
L 3047 1100 
L 3047 0 
L 2419 0 
L 2419 1100 
L 313 1100 
L 313 1709 
L 2253 4666 
z
" transform="scale(0.015625)"/>
       </defs>
       <use xlink:href="#DejaVuSans-34"/>
       <use xlink:href="#DejaVuSans-30" x="63.623047"/>
       <use xlink:href="#DejaVuSans-30" x="127.246094"/>
      </g>
     </g>
    </g>
    <g id="xtick_4">
     <g id="line2d_7">
      <path d="M 208.54333 239.76 
L 208.54333 37.296 
" clip-path="url(#p9cb6f8a4ca)" style="fill: none; stroke-dasharray: 2.96,1.28; stroke-dashoffset: 0; stroke: #b0b0b0; stroke-opacity: 0.4; stroke-width: 0.8"/>
     </g>
     <g id="line2d_8">
      <g>
       <use xlink:href="#m101a1f96f9" x="208.54333" y="239.76" style="stroke: #000000; stroke-width: 0.8"/>
      </g>
     </g>
     <g id="text_4">
      <!-- 600 -->
      <g transform="translate(198.99958 254.358437) scale(0.1 -0.1)">
       <defs>
        <path id="DejaVuSans-36" d="M 2113 2584 
Q 1688 2584 1439 2293 
Q 1191 2003 1191 1497 
Q 1191 994 1439 701 
Q 1688 409 2113 409 
Q 2538 409 2786 701 
Q 3034 994 3034 1497 
Q 3034 2003 2786 2293 
Q 2538 2584 2113 2584 
z
M 3366 4563 
L 3366 3988 
Q 3128 4100 2886 4159 
Q 2644 4219 2406 4219 
Q 1781 4219 1451 3797 
Q 1122 3375 1075 2522 
Q 1259 2794 1537 2939 
Q 1816 3084 2150 3084 
Q 2853 3084 3261 2657 
Q 3669 2231 3669 1497 
Q 3669 778 3244 343 
Q 2819 -91 2113 -91 
Q 1303 -91 875 529 
Q 447 1150 447 2328 
Q 447 3434 972 4092 
Q 1497 4750 2381 4750 
Q 2619 4750 2861 4703 
Q 3103 4656 3366 4563 
z
" transform="scale(0.015625)"/>
       </defs>
       <use xlink:href="#DejaVuSans-36"/>
       <use xlink:href="#DejaVuSans-30" x="63.623047"/>
       <use xlink:href="#DejaVuSans-30" x="127.246094"/>
      </g>
     </g>
    </g>
    <g id="xtick_5">
     <g id="line2d_9">
      <path d="M 259.321381 239.76 
L 259.321381 37.296 
" clip-path="url(#p9cb6f8a4ca)" style="fill: none; stroke-dasharray: 2.96,1.28; stroke-dashoffset: 0; stroke: #b0b0b0; stroke-opacity: 0.4; stroke-width: 0.8"/>
     </g>
     <g id="line2d_10">
      <g>
       <use xlink:href="#m101a1f96f9" x="259.321381" y="239.76" style="stroke: #000000; stroke-width: 0.8"/>
      </g>
     </g>
     <g id="text_5">
      <!-- 800 -->
      <g transform="translate(249.777631 254.358437) scale(0.1 -0.1)">
       <defs>
        <path id="DejaVuSans-38" d="M 2034 2216 
Q 1584 2216 1326 1975 
Q 1069 1734 1069 1313 
Q 1069 891 1326 650 
Q 1584 409 2034 409 
Q 2484 409 2743 651 
Q 3003 894 3003 1313 
Q 3003 1734 2745 1975 
Q 2488 2216 2034 2216 
z
M 1403 2484 
Q 997 2584 770 2862 
Q 544 3141 544 3541 
Q 544 4100 942 4425 
Q 1341 4750 2034 4750 
Q 2731 4750 3128 4425 
Q 3525 4100 3525 3541 
Q 3525 3141 3298 2862 
Q 3072 2584 2669 2484 
Q 3125 2378 3379 2068 
Q 3634 1759 3634 1313 
Q 3634 634 3220 271 
Q 2806 -91 2034 -91 
Q 1263 -91 848 271 
Q 434 634 434 1313 
Q 434 1759 690 2068 
Q 947 2378 1403 2484 
z
M 1172 3481 
Q 1172 3119 1398 2916 
Q 1625 2713 2034 2713 
Q 2441 2713 2670 2916 
Q 2900 3119 2900 3481 
Q 2900 3844 2670 4047 
Q 2441 4250 2034 4250 
Q 1625 4250 1398 4047 
Q 1172 3844 1172 3481 
z
" transform="scale(0.015625)"/>
       </defs>
       <use xlink:href="#DejaVuSans-38"/>
       <use xlink:href="#DejaVuSans-30" x="63.623047"/>
       <use xlink:href="#DejaVuSans-30" x="127.246094"/>
      </g>
     </g>
    </g>
    <g id="xtick_6">
     <g id="line2d_11">
      <path d="M 310.099432 239.76 
L 310.099432 37.296 
" clip-path="url(#p9cb6f8a4ca)" style="fill: none; stroke-dasharray: 2.96,1.28; stroke-dashoffset: 0; stroke: #b0b0b0; stroke-opacity: 0.4; stroke-width: 0.8"/>
     </g>
     <g id="line2d_12">
      <g>
       <use xlink:href="#m101a1f96f9" x="310.099432" y="239.76" style="stroke: #000000; stroke-width: 0.8"/>
      </g>
     </g>
     <g id="text_6">
      <!-- 1000 -->
      <g transform="translate(297.374432 254.358437) scale(0.1 -0.1)">
       <defs>
        <path id="DejaVuSans-31" d="M 794 531 
L 1825 531 
L 1825 4091 
L 703 3866 
L 703 4441 
L 1819 4666 
L 2450 4666 
L 2450 531 
L 3481 531 
L 3481 0 
L 794 0 
L 794 531 
z
" transform="scale(0.015625)"/>
       </defs>
       <use xlink:href="#DejaVuSans-31"/>
       <use xlink:href="#DejaVuSans-30" x="63.623047"/>
       <use xlink:href="#DejaVuSans-30" x="127.246094"/>
       <use xlink:href="#DejaVuSans-30" x="190.869141"/>
      </g>
     </g>
    </g>
    <g id="text_7">
     <!-- Epochs -->
     <g transform="translate(165.365625 268.036562) scale(0.1 -0.1)">
      <defs>
       <path id="DejaVuSans-45" d="M 628 4666 
L 3578 4666 
L 3578 4134 
L 1259 4134 
L 1259 2753 
L 3481 2753 
L 3481 2222 
L 1259 2222 
L 1259 531 
L 3634 531 
L 3634 0 
L 628 0 
L 628 4666 
z
" transform="scale(0.015625)"/>
       <path id="DejaVuSans-70" d="M 1159 525 
L 1159 -1331 
L 581 -1331 
L 581 3500 
L 1159 3500 
L 1159 2969 
Q 1341 3281 1617 3432 
Q 1894 3584 2278 3584 
Q 2916 3584 3314 3078 
Q 3713 2572 3713 1747 
Q 3713 922 3314 415 
Q 2916 -91 2278 -91 
Q 1894 -91 1617 61 
Q 1341 213 1159 525 
z
M 3116 1747 
Q 3116 2381 2855 2742 
Q 2594 3103 2138 3103 
Q 1681 3103 1420 2742 
Q 1159 2381 1159 1747 
Q 1159 1113 1420 752 
Q 1681 391 2138 391 
Q 2594 391 2855 752 
Q 3116 1113 3116 1747 
z
" transform="scale(0.015625)"/>
       <path id="DejaVuSans-6f" d="M 1959 3097 
Q 1497 3097 1228 2736 
Q 959 2375 959 1747 
Q 959 1119 1226 758 
Q 1494 397 1959 397 
Q 2419 397 2687 759 
Q 2956 1122 2956 1747 
Q 2956 2369 2687 2733 
Q 2419 3097 1959 3097 
z
M 1959 3584 
Q 2709 3584 3137 3096 
Q 3566 2609 3566 1747 
Q 3566 888 3137 398 
Q 2709 -91 1959 -91 
Q 1206 -91 779 398 
Q 353 888 353 1747 
Q 353 2609 779 3096 
Q 1206 3584 1959 3584 
z
" transform="scale(0.015625)"/>
       <path id="DejaVuSans-63" d="M 3122 3366 
L 3122 2828 
Q 2878 2963 2633 3030 
Q 2388 3097 2138 3097 
Q 1578 3097 1268 2742 
Q 959 2388 959 1747 
Q 959 1106 1268 751 
Q 1578 397 2138 397 
Q 2388 397 2633 464 
Q 2878 531 3122 666 
L 3122 134 
Q 2881 22 2623 -34 
Q 2366 -91 2075 -91 
Q 1284 -91 818 406 
Q 353 903 353 1747 
Q 353 2603 823 3093 
Q 1294 3584 2113 3584 
Q 2378 3584 2631 3529 
Q 2884 3475 3122 3366 
z
" transform="scale(0.015625)"/>
       <path id="DejaVuSans-68" d="M 3513 2113 
L 3513 0 
L 2938 0 
L 2938 2094 
Q 2938 2591 2744 2837 
Q 2550 3084 2163 3084 
Q 1697 3084 1428 2787 
Q 1159 2491 1159 1978 
L 1159 0 
L 581 0 
L 581 4863 
L 1159 4863 
L 1159 2956 
Q 1366 3272 1645 3428 
Q 1925 3584 2291 3584 
Q 2894 3584 3203 3211 
Q 3513 2838 3513 2113 
z
" transform="scale(0.015625)"/>
       <path id="DejaVuSans-73" d="M 2834 3397 
L 2834 2853 
Q 2591 2978 2328 3040 
Q 2066 3103 1784 3103 
Q 1356 3103 1142 2972 
Q 928 2841 928 2578 
Q 928 2378 1081 2264 
Q 1234 2150 1697 2047 
L 1894 2003 
Q 2506 1872 2764 1633 
Q 3022 1394 3022 966 
Q 3022 478 2636 193 
Q 2250 -91 1575 -91 
Q 1294 -91 989 -36 
Q 684 19 347 128 
L 347 722 
Q 666 556 975 473 
Q 1284 391 1588 391 
Q 1994 391 2212 530 
Q 2431 669 2431 922 
Q 2431 1156 2273 1281 
Q 2116 1406 1581 1522 
L 1381 1569 
Q 847 1681 609 1914 
Q 372 2147 372 2553 
Q 372 3047 722 3315 
Q 1072 3584 1716 3584 
Q 2034 3584 2315 3537 
Q 2597 3491 2834 3397 
z
" transform="scale(0.015625)"/>
      </defs>
      <use xlink:href="#DejaVuSans-45"/>
      <use xlink:href="#DejaVuSans-70" x="63.183594"/>
      <use xlink:href="#DejaVuSans-6f" x="126.660156"/>
      <use xlink:href="#DejaVuSans-63" x="187.841797"/>
      <use xlink:href="#DejaVuSans-68" x="242.822266"/>
      <use xlink:href="#DejaVuSans-73" x="306.201172"/>
     </g>
    </g>
   </g>
   <g id="matplotlib.axis_2">
    <g id="ytick_1">
     <g id="line2d_13">
      <path d="M 43.78125 232.129943 
L 322.78125 232.129943 
" clip-path="url(#p9cb6f8a4ca)" style="fill: none; stroke-dasharray: 2.96,1.28; stroke-dashoffset: 0; stroke: #b0b0b0; stroke-opacity: 0.4; stroke-width: 0.8"/>
     </g>
     <g id="line2d_14">
      <defs>
       <path id="m18a9b84cef" d="M 0 0 
L -3.5 0 
" style="stroke: #000000; stroke-width: 0.8"/>
      </defs>
      <g>
       <use xlink:href="#m18a9b84cef" x="43.78125" y="232.129943" style="stroke: #000000; stroke-width: 0.8"/>
      </g>
     </g>
     <g id="text_8">
      <!-- 0.5 -->
      <g transform="translate(20.878125 235.929162) scale(0.1 -0.1)">
       <defs>
        <path id="DejaVuSans-2e" d="M 684 794 
L 1344 794 
L 1344 0 
L 684 0 
L 684 794 
z
" transform="scale(0.015625)"/>
        <path id="DejaVuSans-35" d="M 691 4666 
L 3169 4666 
L 3169 4134 
L 1269 4134 
L 1269 2991 
Q 1406 3038 1543 3061 
Q 1681 3084 1819 3084 
Q 2600 3084 3056 2656 
Q 3513 2228 3513 1497 
Q 3513 744 3044 326 
Q 2575 -91 1722 -91 
Q 1428 -91 1123 -41 
Q 819 9 494 109 
L 494 744 
Q 775 591 1075 516 
Q 1375 441 1709 441 
Q 2250 441 2565 725 
Q 2881 1009 2881 1497 
Q 2881 1984 2565 2268 
Q 2250 2553 1709 2553 
Q 1456 2553 1204 2497 
Q 953 2441 691 2322 
L 691 4666 
z
" transform="scale(0.015625)"/>
       </defs>
       <use xlink:href="#DejaVuSans-30"/>
       <use xlink:href="#DejaVuSans-2e" x="63.623047"/>
       <use xlink:href="#DejaVuSans-35" x="95.410156"/>
      </g>
     </g>
    </g>
    <g id="ytick_2">
     <g id="line2d_15">
      <path d="M 43.78125 192.284445 
L 322.78125 192.284445 
" clip-path="url(#p9cb6f8a4ca)" style="fill: none; stroke-dasharray: 2.96,1.28; stroke-dashoffset: 0; stroke: #b0b0b0; stroke-opacity: 0.4; stroke-width: 0.8"/>
     </g>
     <g id="line2d_16">
      <g>
       <use xlink:href="#m18a9b84cef" x="43.78125" y="192.284445" style="stroke: #000000; stroke-width: 0.8"/>
      </g>
     </g>
     <g id="text_9">
      <!-- 0.6 -->
      <g transform="translate(20.878125 196.083664) scale(0.1 -0.1)">
       <use xlink:href="#DejaVuSans-30"/>
       <use xlink:href="#DejaVuSans-2e" x="63.623047"/>
       <use xlink:href="#DejaVuSans-36" x="95.410156"/>
      </g>
     </g>
    </g>
    <g id="ytick_3">
     <g id="line2d_17">
      <path d="M 43.78125 152.438947 
L 322.78125 152.438947 
" clip-path="url(#p9cb6f8a4ca)" style="fill: none; stroke-dasharray: 2.96,1.28; stroke-dashoffset: 0; stroke: #b0b0b0; stroke-opacity: 0.4; stroke-width: 0.8"/>
     </g>
     <g id="line2d_18">
      <g>
       <use xlink:href="#m18a9b84cef" x="43.78125" y="152.438947" style="stroke: #000000; stroke-width: 0.8"/>
      </g>
     </g>
     <g id="text_10">
      <!-- 0.7 -->
      <g transform="translate(20.878125 156.238165) scale(0.1 -0.1)">
       <defs>
        <path id="DejaVuSans-37" d="M 525 4666 
L 3525 4666 
L 3525 4397 
L 1831 0 
L 1172 0 
L 2766 4134 
L 525 4134 
L 525 4666 
z
" transform="scale(0.015625)"/>
       </defs>
       <use xlink:href="#DejaVuSans-30"/>
       <use xlink:href="#DejaVuSans-2e" x="63.623047"/>
       <use xlink:href="#DejaVuSans-37" x="95.410156"/>
      </g>
     </g>
    </g>
    <g id="ytick_4">
     <g id="line2d_19">
      <path d="M 43.78125 112.593448 
L 322.78125 112.593448 
" clip-path="url(#p9cb6f8a4ca)" style="fill: none; stroke-dasharray: 2.96,1.28; stroke-dashoffset: 0; stroke: #b0b0b0; stroke-opacity: 0.4; stroke-width: 0.8"/>
     </g>
     <g id="line2d_20">
      <g>
       <use xlink:href="#m18a9b84cef" x="43.78125" y="112.593448" style="stroke: #000000; stroke-width: 0.8"/>
      </g>
     </g>
     <g id="text_11">
      <!-- 0.8 -->
      <g transform="translate(20.878125 116.392667) scale(0.1 -0.1)">
       <use xlink:href="#DejaVuSans-30"/>
       <use xlink:href="#DejaVuSans-2e" x="63.623047"/>
       <use xlink:href="#DejaVuSans-38" x="95.410156"/>
      </g>
     </g>
    </g>
    <g id="ytick_5">
     <g id="line2d_21">
      <path d="M 43.78125 72.74795 
L 322.78125 72.74795 
" clip-path="url(#p9cb6f8a4ca)" style="fill: none; stroke-dasharray: 2.96,1.28; stroke-dashoffset: 0; stroke: #b0b0b0; stroke-opacity: 0.4; stroke-width: 0.8"/>
     </g>
     <g id="line2d_22">
      <g>
       <use xlink:href="#m18a9b84cef" x="43.78125" y="72.74795" style="stroke: #000000; stroke-width: 0.8"/>
      </g>
     </g>
     <g id="text_12">
      <!-- 0.9 -->
      <g transform="translate(20.878125 76.547169) scale(0.1 -0.1)">
       <defs>
        <path id="DejaVuSans-39" d="M 703 97 
L 703 672 
Q 941 559 1184 500 
Q 1428 441 1663 441 
Q 2288 441 2617 861 
Q 2947 1281 2994 2138 
Q 2813 1869 2534 1725 
Q 2256 1581 1919 1581 
Q 1219 1581 811 2004 
Q 403 2428 403 3163 
Q 403 3881 828 4315 
Q 1253 4750 1959 4750 
Q 2769 4750 3195 4129 
Q 3622 3509 3622 2328 
Q 3622 1225 3098 567 
Q 2575 -91 1691 -91 
Q 1453 -91 1209 -44 
Q 966 3 703 97 
z
M 1959 2075 
Q 2384 2075 2632 2365 
Q 2881 2656 2881 3163 
Q 2881 3666 2632 3958 
Q 2384 4250 1959 4250 
Q 1534 4250 1286 3958 
Q 1038 3666 1038 3163 
Q 1038 2656 1286 2365 
Q 1534 2075 1959 2075 
z
" transform="scale(0.015625)"/>
       </defs>
       <use xlink:href="#DejaVuSans-30"/>
       <use xlink:href="#DejaVuSans-2e" x="63.623047"/>
       <use xlink:href="#DejaVuSans-39" x="95.410156"/>
      </g>
     </g>
    </g>
    <g id="text_13">
     <!-- Accuracy -->
     <g transform="translate(14.798438 161.356125) rotate(-90) scale(0.1 -0.1)">
      <defs>
       <path id="DejaVuSans-41" d="M 2188 4044 
L 1331 1722 
L 3047 1722 
L 2188 4044 
z
M 1831 4666 
L 2547 4666 
L 4325 0 
L 3669 0 
L 3244 1197 
L 1141 1197 
L 716 0 
L 50 0 
L 1831 4666 
z
" transform="scale(0.015625)"/>
       <path id="DejaVuSans-75" d="M 544 1381 
L 544 3500 
L 1119 3500 
L 1119 1403 
Q 1119 906 1312 657 
Q 1506 409 1894 409 
Q 2359 409 2629 706 
Q 2900 1003 2900 1516 
L 2900 3500 
L 3475 3500 
L 3475 0 
L 2900 0 
L 2900 538 
Q 2691 219 2414 64 
Q 2138 -91 1772 -91 
Q 1169 -91 856 284 
Q 544 659 544 1381 
z
M 1991 3584 
L 1991 3584 
z
" transform="scale(0.015625)"/>
       <path id="DejaVuSans-72" d="M 2631 2963 
Q 2534 3019 2420 3045 
Q 2306 3072 2169 3072 
Q 1681 3072 1420 2755 
Q 1159 2438 1159 1844 
L 1159 0 
L 581 0 
L 581 3500 
L 1159 3500 
L 1159 2956 
Q 1341 3275 1631 3429 
Q 1922 3584 2338 3584 
Q 2397 3584 2469 3576 
Q 2541 3569 2628 3553 
L 2631 2963 
z
" transform="scale(0.015625)"/>
       <path id="DejaVuSans-61" d="M 2194 1759 
Q 1497 1759 1228 1600 
Q 959 1441 959 1056 
Q 959 750 1161 570 
Q 1363 391 1709 391 
Q 2188 391 2477 730 
Q 2766 1069 2766 1631 
L 2766 1759 
L 2194 1759 
z
M 3341 1997 
L 3341 0 
L 2766 0 
L 2766 531 
Q 2569 213 2275 61 
Q 1981 -91 1556 -91 
Q 1019 -91 701 211 
Q 384 513 384 1019 
Q 384 1609 779 1909 
Q 1175 2209 1959 2209 
L 2766 2209 
L 2766 2266 
Q 2766 2663 2505 2880 
Q 2244 3097 1772 3097 
Q 1472 3097 1187 3025 
Q 903 2953 641 2809 
L 641 3341 
Q 956 3463 1253 3523 
Q 1550 3584 1831 3584 
Q 2591 3584 2966 3190 
Q 3341 2797 3341 1997 
z
" transform="scale(0.015625)"/>
       <path id="DejaVuSans-79" d="M 2059 -325 
Q 1816 -950 1584 -1140 
Q 1353 -1331 966 -1331 
L 506 -1331 
L 506 -850 
L 844 -850 
Q 1081 -850 1212 -737 
Q 1344 -625 1503 -206 
L 1606 56 
L 191 3500 
L 800 3500 
L 1894 763 
L 2988 3500 
L 3597 3500 
L 2059 -325 
z
" transform="scale(0.015625)"/>
      </defs>
      <use xlink:href="#DejaVuSans-41"/>
      <use xlink:href="#DejaVuSans-63" x="66.658203"/>
      <use xlink:href="#DejaVuSans-63" x="121.638672"/>
      <use xlink:href="#DejaVuSans-75" x="176.619141"/>
      <use xlink:href="#DejaVuSans-72" x="239.998047"/>
      <use xlink:href="#DejaVuSans-61" x="281.111328"/>
      <use xlink:href="#DejaVuSans-63" x="342.390625"/>
      <use xlink:href="#DejaVuSans-79" x="397.371094"/>
     </g>
    </g>
   </g>
   <g id="line2d_23">
    <path d="M 56.463068 225.837371 
L 56.970849 202.240195 
L 57.224739 223.590025 
L 58.2403 153.472731 
L 59.001971 116.840947 
L 59.255861 118.526444 
L 59.509751 114.031753 
L 59.763641 106.727869 
L 60.017532 104.817627 
L 60.271422 107.739181 
L 60.779202 96.727174 
L 61.033093 101.446609 
L 61.286983 94.816909 
L 61.540873 92.232459 
L 61.794764 94.704549 
L 62.048654 93.91798 
L 62.302544 97.626103 
L 62.556434 94.255084 
L 63.064215 90.097474 
L 63.318105 92.457203 
L 63.571995 87.625408 
L 63.825886 88.187232 
L 64.079776 91.33353 
L 64.333666 88.299616 
L 64.587556 88.187232 
L 65.095337 85.939887 
L 65.349227 83.580181 
L 65.603117 84.36675 
L 65.857008 94.142724 
L 66.110898 83.467797 
L 66.364788 87.17592 
L 66.618678 85.602783 
L 66.872569 82.344125 
L 67.126459 83.355437 
L 67.380349 83.580181 
L 67.88813 85.827527 
L 68.39591 79.984419 
L 68.6498 80.658627 
L 68.903691 81.89466 
L 69.157581 80.658627 
L 69.411471 87.400664 
L 69.665361 82.456509 
L 70.173142 82.119404 
L 70.427032 78.973106 
L 70.934813 81.220452 
L 71.188703 77.737073 
L 71.442593 84.029646 
L 71.950374 76.501017 
L 72.204264 76.613401 
L 72.458154 79.759675 
L 72.712044 79.19785 
L 72.965935 76.613401 
L 73.219825 77.399969 
L 73.727605 75.04024 
L 73.981496 76.838121 
L 74.235386 80.546243 
L 74.489276 80.883348 
L 74.743166 73.804207 
L 74.997057 78.973106 
L 75.250947 78.523642 
L 75.504837 75.714448 
L 75.758727 75.152624 
L 76.012618 81.108092 
L 76.266508 78.636002 
L 76.520398 79.422571 
L 76.774288 76.051552 
L 77.028179 78.973106 
L 77.282069 76.838121 
L 77.535959 78.074178 
L 77.78985 74.366031 
L 78.04374 73.242359 
L 78.29763 75.377344 
L 78.55152 75.377344 
L 78.805411 73.129999 
L 79.059301 77.62469 
L 79.313191 75.489728 
L 79.567081 76.501017 
L 79.820972 74.81552 
L 80.074862 74.92788 
L 80.328752 72.45579 
L 80.582642 73.916567 
L 80.836533 74.028951 
L 81.090423 73.467103 
L 81.344313 74.92788 
L 81.598203 75.377344 
L 81.852094 73.129999 
L 82.105984 73.017638 
L 82.359874 72.568174 
L 82.613764 75.152624 
L 82.867655 74.028951 
L 83.121545 69.983701 
L 83.375435 75.939192 
L 83.629325 71.107397 
L 83.883216 73.242359 
L 84.137106 73.579463 
L 84.390996 73.354743 
L 84.644886 72.34343 
L 84.898777 75.377344 
L 85.152667 73.579463 
L 85.406557 75.264984 
L 85.660447 81.89466 
L 85.914338 72.792894 
L 86.168228 70.995013 
L 86.422118 73.691847 
L 86.676008 72.23107 
L 86.929899 76.163913 
L 87.183789 71.669222 
L 87.94546 64.477697 
L 88.19935 67.848739 
L 88.70713 63.354024 
L 88.961021 66.050858 
L 89.468801 69.197132 
L 89.722691 65.039545 
L 89.976582 66.949787 
L 90.230472 67.736355 
L 90.484362 66.387962 
L 90.738252 65.713754 
L 90.992143 67.736355 
L 91.499923 64.252977 
L 92.007704 65.826114 
L 92.261594 66.949787 
L 92.515484 65.938474 
L 92.769374 66.949787 
L 93.023265 64.477697 
L 93.277155 64.590081 
L 93.531045 62.567456 
L 93.784936 65.48901 
L 94.038826 65.48901 
L 94.546606 62.455095 
L 94.800497 68.298203 
L 95.054387 61.443783 
L 95.308277 66.387962 
L 95.816058 62.342735 
L 96.323838 66.612682 
L 96.577728 64.365337 
L 96.831619 65.48901 
L 97.085509 63.915872 
L 97.339399 63.578768 
L 97.593289 61.780887 
L 97.84718 65.713754 
L 98.10107 65.376649 
L 98.35496 64.365337 
L 98.60885 67.511635 
L 98.862741 61.893247 
L 99.116631 61.331423 
L 99.370521 64.252977 
L 99.624411 63.915872 
L 100.132192 59.870646 
L 100.386082 59.758262 
L 100.639972 57.73566 
L 100.893863 59.196437 
L 101.147753 59.533542 
L 101.401643 60.43247 
L 101.655533 58.746973 
L 101.909424 58.072765 
L 102.163314 59.645902 
L 102.671094 57.510916 
L 102.924985 58.185125 
L 103.178875 59.983006 
L 103.432765 60.32011 
L 103.686655 58.185125 
L 103.940546 59.533542 
L 104.194436 59.870646 
L 104.448326 59.196437 
L 104.702216 58.185125 
L 104.956107 59.758262 
L 105.209997 59.308798 
L 105.463887 57.173812 
L 105.717777 56.387244 
L 105.971668 59.421181 
L 106.225558 57.510916 
L 106.733338 61.556143 
L 106.987229 60.994319 
L 107.241119 58.859333 
L 107.495009 58.746973 
L 107.748899 60.095366 
L 108.00279 59.196437 
L 108.25668 59.421181 
L 108.51057 59.196437 
L 108.76446 56.836708 
L 109.272241 61.556143 
L 109.526131 57.398556 
L 109.780021 59.645902 
L 110.287802 56.387244 
L 110.541692 59.870646 
L 110.795583 57.848021 
L 111.303363 57.398556 
L 111.557253 56.836708 
L 111.811144 57.960404 
L 112.318924 56.836708 
L 112.572814 59.645902 
L 112.826705 58.297485 
L 113.080595 55.937779 
L 113.334485 56.387244 
L 113.588375 57.398556 
L 113.842266 54.477002 
L 114.096156 57.848021 
L 114.603936 52.229657 
L 114.857827 53.802794 
L 115.111717 56.724348 
L 115.365607 57.173812 
L 115.619497 55.600675 
L 115.873388 56.724348 
L 116.127278 57.061452 
L 116.381168 54.364642 
L 116.635058 55.151211 
L 116.888949 55.375931 
L 117.142839 51.105984 
L 117.396729 56.724348 
L 117.650619 54.477002 
L 117.90451 54.139898 
L 118.1584 55.151211 
L 118.41229 54.027538 
L 118.66618 54.701746 
L 119.173961 55.263571 
L 119.427851 52.791481 
L 119.681741 54.701746 
L 119.935632 54.477002 
L 120.189522 54.589362 
L 120.443412 55.151211 
L 120.697302 54.027538 
L 120.951193 54.701746 
L 121.205083 52.566761 
L 121.458973 55.488315 
L 121.712863 55.263571 
L 121.966754 52.679121 
L 122.474534 55.038851 
L 122.728424 54.589362 
L 122.982315 54.701746 
L 123.236205 52.004913 
L 123.743985 55.600675 
L 123.997876 54.701746 
L 124.251766 52.903865 
L 124.759546 55.151211 
L 125.013437 54.139898 
L 125.267327 54.027538 
L 125.775107 56.050139 
L 126.028998 53.016225 
L 126.282888 54.589362 
L 126.536778 53.128585 
L 126.790669 53.802794 
L 127.044559 51.892553 
L 127.298449 55.713035 
L 127.80623 52.004913 
L 128.06012 57.173812 
L 128.31401 53.35333 
L 128.5679 55.937779 
L 128.821791 53.690434 
L 129.075681 53.802794 
L 129.583461 51.105984 
L 129.837352 51.892553 
L 130.091242 51.330704 
L 130.345132 53.915154 
L 130.599022 51.892553 
L 130.852913 55.151211 
L 131.106803 50.431776 
L 131.360693 50.431776 
L 131.614583 53.128585 
L 131.868474 54.252258 
L 132.122364 50.88124 
L 132.376254 51.555448 
L 132.630144 51.443088 
L 132.884035 52.454377 
L 133.137925 52.454377 
L 133.391815 54.814106 
L 133.899596 52.117297 
L 134.153486 49.532823 
L 134.407376 53.240969 
L 134.661266 53.46569 
L 134.915157 52.679121 
L 135.169047 52.566761 
L 135.422937 54.139898 
L 135.676827 53.240969 
L 135.930718 50.88124 
L 136.184608 50.207032 
L 136.438498 52.229657 
L 136.692388 51.892553 
L 136.946279 52.791481 
L 137.200169 53.016225 
L 137.454059 54.814106 
L 137.707949 51.443088 
L 137.96184 52.229657 
L 138.21573 50.88124 
L 138.46962 54.477002 
L 138.72351 52.229657 
L 138.977401 51.218344 
L 139.231291 53.35333 
L 139.485181 53.240969 
L 139.739071 49.757567 
L 139.992962 52.342017 
L 140.246852 52.679121 
L 140.500742 51.892553 
L 140.754632 52.791481 
L 141.008523 52.679121 
L 141.262413 50.88124 
L 141.516303 52.004913 
L 141.770193 51.105984 
L 142.024084 51.218344 
L 142.277974 55.263571 
L 142.531864 50.544136 
L 142.785755 49.420463 
L 143.293535 54.364642 
L 143.547425 52.229657 
L 143.801316 51.892553 
L 144.055206 52.117297 
L 144.309096 51.443088 
L 144.562986 53.802794 
L 144.816877 50.9936 
L 145.324657 52.903865 
L 145.578547 51.667809 
L 145.832438 52.004913 
L 146.086328 49.308103 
L 146.340218 49.869927 
L 146.594108 51.105984 
L 146.847999 51.443088 
L 147.101889 52.454377 
L 147.355779 52.342017 
L 147.86356 51.218344 
L 148.11745 51.443088 
L 148.62523 49.308103 
L 148.879121 52.229657 
L 149.133011 51.218344 
L 149.386901 51.443088 
L 149.894682 50.9936 
L 150.148572 51.667809 
L 150.402462 54.364642 
L 150.656352 51.555448 
L 150.910243 51.667809 
L 151.164133 51.555448 
L 151.418023 51.218344 
L 151.671913 50.319415 
L 151.925804 52.679121 
L 152.179694 49.532823 
L 152.687474 52.229657 
L 152.941365 52.117297 
L 153.195255 52.454377 
L 153.449145 54.477002 
L 153.703035 52.454377 
L 154.210816 52.791481 
L 154.464706 50.88124 
L 154.718596 51.330704 
L 154.972487 51.218344 
L 155.480267 49.083359 
L 155.734157 50.9936 
L 155.988048 50.094671 
L 156.749718 53.690434 
L 157.003609 52.903865 
L 157.257499 50.544136 
L 157.765279 51.667809 
L 158.27306 49.308103 
L 158.52695 50.9936 
L 158.78084 51.443088 
L 159.034731 52.679121 
L 159.288621 51.892553 
L 159.542511 49.869927 
L 159.796402 50.319415 
L 160.050292 53.802794 
L 160.304182 51.555448 
L 160.558072 51.218344 
L 160.811963 50.544136 
L 161.065853 51.443088 
L 161.573633 51.105984 
L 161.827524 50.65652 
L 162.081414 49.420463 
L 162.335304 49.308103 
L 162.589194 51.780192 
L 162.843085 51.218344 
L 163.096975 54.139898 
L 163.604755 50.9936 
L 163.858646 52.903865 
L 164.112536 52.903865 
L 164.366426 53.016225 
L 164.620316 52.004913 
L 164.874207 52.454377 
L 165.128097 50.431776 
L 165.381987 51.218344 
L 165.635877 53.128585 
L 165.889768 49.308103 
L 166.143658 52.229657 
L 166.397548 51.555448 
L 166.651438 50.431776 
L 166.905329 51.780192 
L 167.159219 50.88124 
L 167.413109 50.431776 
L 167.666999 51.780192 
L 167.92089 48.970999 
L 168.17478 51.780192 
L 168.42867 51.218344 
L 168.68256 49.757567 
L 168.936451 51.555448 
L 169.190341 49.757567 
L 169.444231 50.431776 
L 169.698121 50.207032 
L 169.952012 51.443088 
L 170.205902 50.319415 
L 170.459792 51.780192 
L 170.713682 48.970999 
L 170.967573 48.521534 
L 171.221463 51.555448 
L 171.475353 49.982311 
L 171.729243 52.117297 
L 171.983134 50.544136 
L 172.744804 54.139898 
L 172.998695 50.431776 
L 173.252585 52.566761 
L 173.506475 51.780192 
L 173.760365 49.869927 
L 174.014256 53.46569 
L 174.268146 51.105984 
L 174.522036 50.76888 
L 174.775926 49.308103 
L 175.029817 51.667809 
L 175.283707 50.76888 
L 175.537597 51.892553 
L 175.791488 51.330704 
L 176.045378 52.454377 
L 176.299268 49.420463 
L 176.553158 49.869927 
L 176.807049 50.76888 
L 177.060939 49.757567 
L 177.314829 49.532823 
L 177.568719 50.76888 
L 177.82261 52.791481 
L 178.0765 49.195743 
L 178.33039 51.780192 
L 178.838171 50.207032 
L 179.092061 48.072046 
L 179.345951 48.633894 
L 179.599841 52.004913 
L 179.853732 50.094671 
L 180.107622 51.443088 
L 180.361512 52.004913 
L 180.615402 48.858639 
L 180.869293 50.88124 
L 181.123183 52.004913 
L 181.377073 52.004913 
L 181.630963 54.027538 
L 181.884854 51.780192 
L 182.138744 52.229657 
L 182.392634 51.330704 
L 182.646524 49.532823 
L 182.900415 51.330704 
L 183.154305 49.195743 
L 183.408195 50.319415 
L 183.662085 49.982311 
L 184.169866 52.117297 
L 184.423756 51.105984 
L 184.677646 51.667809 
L 184.931537 52.791481 
L 185.185427 53.128585 
L 185.439317 49.308103 
L 185.693207 52.342017 
L 185.947098 49.420463 
L 186.454878 49.757567 
L 186.708768 48.746255 
L 186.962659 51.443088 
L 187.216549 50.094671 
L 187.470439 49.869927 
L 187.97822 51.443088 
L 188.23211 48.521534 
L 188.486 48.746255 
L 188.73989 51.667809 
L 188.993781 48.18443 
L 189.247671 49.982311 
L 189.501561 48.29679 
L 189.755451 50.9936 
L 190.009342 50.319415 
L 190.517122 51.892553 
L 190.771012 49.869927 
L 191.024903 51.892553 
L 191.278793 48.18443 
L 191.532683 50.9936 
L 192.040464 48.521534 
L 192.294354 50.65652 
L 192.548244 49.083359 
L 192.802135 50.431776 
L 193.056025 49.869927 
L 193.309915 51.780192 
L 193.563805 50.76888 
L 193.817696 48.858639 
L 194.071586 49.420463 
L 194.325476 50.88124 
L 194.579366 51.330704 
L 194.833257 48.970999 
L 195.087147 51.105984 
L 195.341037 48.970999 
L 195.594927 49.982311 
L 195.848818 52.117297 
L 196.102708 49.308103 
L 196.610488 51.105984 
L 196.864379 52.229657 
L 197.372159 49.645207 
L 197.626049 50.9936 
L 197.87994 48.858639 
L 198.38772 51.555448 
L 198.64161 51.667809 
L 199.149391 49.308103 
L 199.403281 49.532823 
L 199.657171 49.195743 
L 199.911062 51.105984 
L 200.164952 49.869927 
L 200.418842 53.46569 
L 200.672732 50.094671 
L 201.180513 48.858639 
L 201.434403 50.9936 
L 201.688293 51.443088 
L 201.942184 48.40915 
L 202.196074 51.218344 
L 202.703854 48.746255 
L 202.957745 48.18443 
L 203.211635 51.218344 
L 203.465525 50.9936 
L 203.719415 49.420463 
L 203.973306 49.083359 
L 204.227196 50.544136 
L 204.481086 51.218344 
L 204.734976 51.105984 
L 204.988867 49.982311 
L 205.242757 47.959686 
L 205.496647 51.105984 
L 205.750537 49.420463 
L 206.004428 49.195743 
L 206.258318 49.869927 
L 206.512208 50.9936 
L 206.766098 50.207032 
L 207.019989 51.218344 
L 207.273879 49.195743 
L 207.527769 48.29679 
L 207.78166 46.498909 
L 208.03555 50.9936 
L 208.28944 51.780192 
L 208.797221 48.858639 
L 209.051111 50.431776 
L 209.305001 48.746255 
L 209.558891 51.443088 
L 209.812782 51.892553 
L 210.066672 50.544136 
L 210.320562 50.76888 
L 210.574452 49.869927 
L 210.828343 49.869927 
L 211.082233 48.29679 
L 211.336123 50.9936 
L 211.590013 51.555448 
L 211.843904 50.431776 
L 212.097794 50.9936 
L 212.351684 48.858639 
L 212.605574 49.532823 
L 212.859465 50.65652 
L 213.113355 48.633894 
L 213.367245 49.982311 
L 213.621135 49.757567 
L 213.875026 51.892553 
L 214.128916 50.094671 
L 214.382806 51.780192 
L 214.636696 49.308103 
L 214.890587 51.218344 
L 215.144477 50.319415 
L 215.398367 51.218344 
L 215.652257 49.083359 
L 215.906148 51.105984 
L 216.160038 51.780192 
L 216.413928 49.982311 
L 216.667818 50.319415 
L 216.921709 51.218344 
L 217.175599 51.105984 
L 217.429489 51.443088 
L 217.683379 52.229657 
L 217.93727 50.76888 
L 218.19116 50.207032 
L 218.44505 52.229657 
L 218.69894 52.229657 
L 218.952831 50.094671 
L 219.206721 52.679121 
L 219.460611 49.308103 
L 219.714501 52.454377 
L 219.968392 50.431776 
L 220.222282 50.65652 
L 220.476172 49.869927 
L 220.730062 48.40915 
L 220.983953 49.757567 
L 221.237843 47.622582 
L 221.491733 47.060757 
L 221.745623 51.105984 
L 221.999514 48.746255 
L 222.253404 48.746255 
L 222.507294 51.330704 
L 223.015075 50.207032 
L 223.268965 52.903865 
L 223.522855 49.757567 
L 223.776745 49.420463 
L 224.030636 52.903865 
L 224.284526 50.88124 
L 224.538416 49.869927 
L 224.792307 50.9936 
L 225.046197 49.645207 
L 225.300087 50.88124 
L 225.553977 48.072046 
L 226.061758 50.319415 
L 226.315648 50.544136 
L 226.569538 49.757567 
L 226.823429 51.555448 
L 227.077319 50.544136 
L 227.331209 51.218344 
L 227.585099 49.532823 
L 228.09288 50.65652 
L 228.34677 51.892553 
L 228.60066 48.633894 
L 229.108441 52.342017 
L 229.362331 49.532823 
L 229.616221 51.218344 
L 229.870112 51.105984 
L 230.124002 49.308103 
L 230.377892 49.982311 
L 230.631782 48.40915 
L 230.885673 50.431776 
L 231.139563 49.532823 
L 231.393453 51.443088 
L 231.647343 52.454377 
L 231.901234 50.65652 
L 232.155124 51.667809 
L 232.409014 48.858639 
L 232.662904 50.094671 
L 232.916795 48.521534 
L 233.424575 51.443088 
L 233.932356 48.521534 
L 234.186246 52.566761 
L 234.440136 50.094671 
L 234.694026 50.88124 
L 234.947917 50.9936 
L 235.201807 50.544136 
L 235.455697 48.633894 
L 235.709587 50.319415 
L 235.963478 50.65652 
L 236.217368 50.76888 
L 236.471258 53.240969 
L 236.725148 50.65652 
L 236.979039 50.76888 
L 237.232929 49.083359 
L 237.486819 51.780192 
L 237.740709 51.105984 
L 237.9946 49.420463 
L 238.24849 49.532823 
L 238.50238 49.308103 
L 238.75627 48.18443 
L 239.010161 49.982311 
L 239.264051 50.207032 
L 239.517941 49.195743 
L 239.771831 51.555448 
L 240.025722 49.982311 
L 240.279612 50.094671 
L 240.533502 48.746255 
L 240.787393 51.105984 
L 241.041283 51.218344 
L 241.549063 49.083359 
L 241.802954 49.869927 
L 242.056844 51.105984 
L 242.310734 50.9936 
L 242.564624 51.330704 
L 242.818515 49.083359 
L 243.072405 53.46569 
L 243.326295 50.544136 
L 243.580185 51.105984 
L 243.834076 50.431776 
L 244.087966 50.544136 
L 244.341856 49.195743 
L 244.595746 50.094671 
L 244.849637 50.094671 
L 245.103527 48.970999 
L 245.611307 53.016225 
L 246.119088 48.633894 
L 246.372978 54.477002 
L 246.626868 49.420463 
L 246.880759 49.083359 
L 247.134649 49.083359 
L 247.388539 50.88124 
L 247.642429 49.982311 
L 247.89632 51.667809 
L 248.15021 47.060757 
L 248.65799 51.780192 
L 248.911881 53.240969 
L 249.165771 48.858639 
L 249.419661 48.521534 
L 249.673551 51.555448 
L 249.927442 48.521534 
L 250.181332 50.431776 
L 250.435222 51.105984 
L 250.689112 49.308103 
L 250.943003 49.869927 
L 251.196893 49.308103 
L 251.450783 51.330704 
L 251.704673 51.667809 
L 251.958564 51.218344 
L 252.466344 48.746255 
L 252.720234 51.780192 
L 252.974125 51.218344 
L 253.228015 51.218344 
L 253.735795 48.40915 
L 253.989686 52.679121 
L 254.243576 51.105984 
L 254.497466 50.65652 
L 254.751356 53.016225 
L 255.259137 47.510222 
L 255.513027 49.869927 
L 255.766917 50.65652 
L 256.020808 49.532823 
L 256.274698 49.869927 
L 256.528588 51.892553 
L 256.782479 49.757567 
L 257.036369 50.094671 
L 257.290259 49.420463 
L 257.544149 50.65652 
L 257.79804 48.858639 
L 258.05193 50.207032 
L 258.30582 48.40915 
L 258.813601 51.780192 
L 259.067491 51.555448 
L 259.321381 51.667809 
L 259.575271 50.094671 
L 259.829162 50.319415 
L 260.083052 47.959686 
L 260.336942 50.094671 
L 260.590832 50.65652 
L 260.844723 49.308103 
L 261.098613 50.431776 
L 261.352503 50.544136 
L 261.606393 49.645207 
L 262.114174 51.105984 
L 262.368064 50.207032 
L 262.621954 52.117297 
L 262.875845 49.645207 
L 263.129735 50.9936 
L 263.383625 48.18443 
L 263.637515 52.004913 
L 263.891406 49.982311 
L 264.145296 50.094671 
L 264.399186 51.555448 
L 264.653076 51.892553 
L 264.906967 48.858639 
L 265.160857 48.858639 
L 265.414747 50.431776 
L 265.668637 50.65652 
L 265.922528 49.195743 
L 266.176418 51.443088 
L 266.430308 49.982311 
L 266.684198 47.847326 
L 266.938089 52.454377 
L 267.191979 51.892553 
L 267.445869 50.094671 
L 267.699759 51.667809 
L 267.95365 52.004913 
L 268.20754 48.521534 
L 268.71532 51.105984 
L 268.969211 50.431776 
L 269.223101 50.319415 
L 269.476991 52.791481 
L 269.730881 50.9936 
L 269.984772 50.65652 
L 270.238662 48.746255 
L 270.492552 49.645207 
L 270.746442 47.959686 
L 271.000333 49.308103 
L 271.254223 52.004913 
L 271.508113 47.285478 
L 271.762003 50.207032 
L 272.015894 48.18443 
L 272.269784 49.645207 
L 272.523674 50.319415 
L 273.031455 50.65652 
L 273.285345 50.88124 
L 273.539235 50.094671 
L 273.793126 51.780192 
L 274.047016 49.532823 
L 274.300906 51.892553 
L 274.554796 48.858639 
L 274.808687 49.532823 
L 275.062577 50.65652 
L 275.316467 49.083359 
L 275.570357 49.982311 
L 275.824248 51.667809 
L 276.078138 51.443088 
L 276.332028 49.645207 
L 276.585918 50.65652 
L 276.839809 49.869927 
L 277.093699 49.645207 
L 277.347589 48.970999 
L 277.601479 51.330704 
L 277.85537 49.757567 
L 278.10926 49.195743 
L 278.36315 50.65652 
L 278.61704 49.083359 
L 278.870931 48.29679 
L 279.124821 51.780192 
L 279.378711 51.105984 
L 279.632601 49.757567 
L 279.886492 49.420463 
L 280.140382 51.218344 
L 280.394272 50.094671 
L 280.648162 49.757567 
L 280.902053 50.319415 
L 281.155943 50.207032 
L 281.409833 51.555448 
L 281.663723 48.633894 
L 281.917614 50.65652 
L 282.171504 49.869927 
L 282.425394 48.29679 
L 282.933175 53.578074 
L 283.187065 48.970999 
L 283.440955 48.970999 
L 283.694845 49.869927 
L 283.948736 52.342017 
L 284.202626 51.780192 
L 284.456516 49.532823 
L 284.710406 50.094671 
L 284.964297 52.229657 
L 285.218187 49.757567 
L 285.472077 49.982311 
L 285.725967 50.544136 
L 285.979858 50.65652 
L 286.233748 49.757567 
L 286.487638 53.128585 
L 286.741528 54.027538 
L 286.995419 48.18443 
L 287.249309 48.858639 
L 287.503199 50.094671 
L 287.757089 48.40915 
L 288.01098 49.645207 
L 288.26487 51.443088 
L 288.51876 49.420463 
L 288.77265 50.88124 
L 289.026541 49.308103 
L 289.280431 49.757567 
L 289.534321 50.76888 
L 290.042102 51.443088 
L 290.295992 50.094671 
L 290.549882 51.555448 
L 290.803773 51.105984 
L 291.057663 51.555448 
L 291.311553 51.667809 
L 291.565443 51.330704 
L 291.819334 53.35333 
L 292.073224 49.757567 
L 292.327114 53.240969 
L 292.581004 52.229657 
L 293.088785 48.746255 
L 293.342675 50.544136 
L 293.596565 49.982311 
L 293.850456 50.544136 
L 294.104346 48.18443 
L 294.358236 50.9936 
L 294.612126 50.094671 
L 294.866017 52.229657 
L 295.119907 49.195743 
L 295.373797 50.431776 
L 295.627687 48.746255 
L 295.881578 50.319415 
L 296.135468 50.9936 
L 296.389358 47.285478 
L 296.897139 51.555448 
L 297.151029 50.65652 
L 297.404919 52.117297 
L 298.16659 48.29679 
L 298.67437 52.229657 
L 298.928261 51.780192 
L 299.436041 48.40915 
L 299.689931 49.420463 
L 300.451602 50.431776 
L 300.705492 49.532823 
L 300.959383 49.869927 
L 301.213273 50.76888 
L 301.467163 48.521534 
L 301.721053 52.229657 
L 301.974944 52.679121 
L 302.228834 50.207032 
L 302.736614 48.970999 
L 302.990505 50.094671 
L 303.244395 49.869927 
L 303.498285 50.88124 
L 303.752175 51.105984 
L 304.006066 50.094671 
L 304.259956 49.982311 
L 304.513846 49.645207 
L 305.021627 50.76888 
L 305.275517 50.544136 
L 305.529407 52.903865 
L 305.783298 49.757567 
L 306.037188 49.532823 
L 306.291078 48.858639 
L 306.544968 50.207032 
L 306.798859 48.970999 
L 307.052749 50.094671 
L 307.306639 48.521534 
L 307.560529 50.88124 
L 307.81442 50.76888 
L 308.3222 48.40915 
L 308.57609 48.40915 
L 309.083871 51.780192 
L 309.337761 49.083359 
L 309.591651 48.633894 
L 309.845542 48.746255 
L 310.099432 49.195743 
L 310.099432 49.195743 
" clip-path="url(#p9cb6f8a4ca)" style="fill: none; stroke: #0000ff; stroke-width: 0.6; stroke-linecap: square"/>
   </g>
   <g id="line2d_24">
    <path d="M 56.463068 230.557091 
L 56.716958 230.557091 
L 56.970849 201.721548 
L 57.224739 230.557091 
L 57.478629 190.711607 
L 57.732519 184.682348 
L 57.98641 163.711019 
L 58.2403 158.20606 
L 58.49419 176.293812 
L 59.001971 131.205495 
L 59.255861 158.992486 
L 59.509751 112.593444 
L 59.763641 199.624396 
L 60.017532 201.721548 
L 60.271422 230.557091 
L 60.525312 124.389811 
L 60.779202 230.557091 
L 61.033093 97.127096 
L 61.286983 149.293247 
L 61.540873 113.64202 
L 62.048654 230.557091 
L 62.302544 129.632643 
L 62.556434 96.34067 
L 62.810325 92.146414 
L 63.064215 221.382152 
L 63.318105 226.362834 
L 63.571995 211.158637 
L 63.825886 99.224225 
L 64.079776 142.477563 
L 64.333666 132.516198 
L 64.587556 105.777783 
L 64.841447 106.039909 
L 65.095337 133.8269 
L 65.349227 112.593444 
L 65.603117 120.98198 
L 65.857008 116.525574 
L 66.110898 91.097862 
L 66.364788 210.372211 
L 66.618678 121.768406 
L 66.872569 100.53495 
L 67.126459 168.429575 
L 67.380349 172.623831 
L 67.634239 101.321377 
L 67.88813 162.924593 
L 68.14202 127.535515 
L 68.39591 148.506821 
L 68.6498 96.34067 
L 68.903691 134.875476 
L 69.157581 122.030533 
L 69.411471 178.91524 
L 69.665361 97.127096 
L 70.173142 216.663596 
L 70.680922 91.622138 
L 70.934813 101.321377 
L 71.188703 119.933404 
L 71.442593 176.818112 
L 71.696483 102.369929 
L 71.950374 90.573562 
L 72.204264 162.13819 
L 72.458154 101.059227 
L 72.965935 105.777783 
L 73.219825 110.234166 
L 73.473715 92.146414 
L 73.727605 97.127096 
L 73.981496 94.767842 
L 74.235386 86.641455 
L 74.489276 92.93284 
L 74.743166 105.515633 
L 74.997057 145.885417 
L 75.250947 89.525009 
L 75.504837 89.787136 
L 75.758727 167.643149 
L 76.012618 200.935122 
L 76.266508 96.078544 
L 76.520398 134.875476 
L 76.774288 104.991357 
L 77.028179 96.34067 
L 77.282069 115.214872 
L 77.535959 111.020592 
L 77.78985 103.418505 
L 78.04374 106.302059 
L 78.29763 106.302059 
L 78.55152 170.788853 
L 78.805411 119.671278 
L 79.059301 99.486374 
L 79.313191 120.457681 
L 79.567081 90.835712 
L 80.074862 116.7877 
L 80.328752 109.185613 
L 80.582642 128.846217 
L 80.836533 115.214872 
L 81.090423 131.991921 
L 81.344313 105.253483 
L 81.598203 113.64202 
L 81.852094 171.837405 
L 82.105984 139.856158 
L 82.359874 190.711607 
L 82.867655 103.418505 
L 83.121545 132.516198 
L 83.375435 91.622138 
L 83.629325 104.467057 
L 83.883216 104.991357 
L 84.137106 103.156355 
L 84.390996 90.835712 
L 84.644886 149.817523 
L 84.898777 125.438387 
L 85.152667 127.797641 
L 85.406557 120.195554 
L 85.660447 108.923463 
L 85.914338 171.313129 
L 86.168228 96.86497 
L 86.422118 113.37987 
L 86.676008 101.845653 
L 86.929899 99.486374 
L 87.437679 90.049286 
L 87.691569 105.253483 
L 87.94546 93.19499 
L 88.19935 100.272801 
L 88.45324 103.942781 
L 88.961021 93.719266 
L 89.214911 93.457116 
L 89.468801 113.37987 
L 89.722691 89.00071 
L 89.976582 96.60282 
L 90.230472 95.029968 
L 90.484362 101.845653 
L 90.738252 93.981416 
L 90.992143 94.505692 
L 91.246033 92.408564 
L 91.499923 96.60282 
L 91.753813 91.359988 
L 92.007704 131.205495 
L 92.261594 94.767842 
L 92.515484 112.331318 
L 92.769374 92.408564 
L 93.023265 90.311435 
L 93.531045 107.350611 
L 93.784936 95.029968 
L 94.038826 169.740277 
L 94.292716 101.583503 
L 94.546606 94.243542 
L 95.054387 91.359988 
L 95.308277 146.671843 
L 95.562167 104.991357 
L 95.816058 90.311435 
L 96.323838 101.321377 
L 96.577728 90.049286 
L 96.831619 95.029968 
L 97.085509 139.331882 
L 97.339399 90.835712 
L 97.593289 123.865535 
L 97.84718 212.207189 
L 98.10107 93.19499 
L 98.35496 91.359988 
L 98.60885 95.292118 
L 98.862741 106.039909 
L 99.116631 100.53495 
L 99.370521 109.972039 
L 99.624411 106.039909 
L 99.878302 90.049286 
L 100.386082 97.651396 
L 100.639972 89.262859 
L 100.893863 91.359988 
L 101.147753 135.399752 
L 101.401643 91.097862 
L 101.655533 92.408564 
L 101.909424 91.097862 
L 102.163314 91.097862 
L 102.417204 90.573562 
L 102.671094 94.505692 
L 102.924985 89.525009 
L 103.178875 94.767842 
L 103.432765 85.592879 
L 103.686655 93.457116 
L 103.940546 87.952157 
L 104.194436 134.351176 
L 104.448326 100.53495 
L 104.702216 103.156355 
L 104.956107 86.379305 
L 105.209997 91.884264 
L 105.463887 92.408564 
L 105.971668 103.942781 
L 106.733338 90.835712 
L 106.987229 92.408564 
L 107.495009 89.00071 
L 107.748899 101.321377 
L 108.00279 91.097862 
L 108.25668 89.00071 
L 108.51057 92.93284 
L 108.76446 90.573562 
L 109.018351 89.787136 
L 109.272241 87.952157 
L 109.526131 88.476433 
L 109.780021 114.690572 
L 110.033912 93.981416 
L 110.287802 93.19499 
L 110.541692 93.19499 
L 110.795583 94.767842 
L 111.049473 91.359988 
L 111.303363 92.146414 
L 111.557253 88.738583 
L 111.811144 94.767842 
L 112.065034 93.457116 
L 112.318924 91.359988 
L 112.572814 95.029968 
L 112.826705 102.632079 
L 113.080595 95.554244 
L 113.334485 94.767842 
L 113.842266 86.903581 
L 114.096156 89.787136 
L 114.350046 105.253483 
L 114.603936 90.049286 
L 114.857827 88.738583 
L 115.111717 88.214283 
L 115.365607 90.835712 
L 115.619497 98.962098 
L 115.873388 100.797077 
L 116.127278 91.884264 
L 116.381168 92.408564 
L 116.635058 90.835712 
L 116.888949 90.835712 
L 117.142839 91.359988 
L 117.396729 90.311435 
L 117.650619 99.748524 
L 117.90451 91.359988 
L 118.1584 92.67069 
L 118.41229 91.359988 
L 118.66618 89.00071 
L 118.920071 91.359988 
L 119.173961 106.039909 
L 119.427851 87.952157 
L 119.935632 92.146414 
L 120.189522 92.93284 
L 120.697302 89.525009 
L 120.951193 88.476433 
L 121.205083 96.34067 
L 121.458973 99.748524 
L 121.712863 90.049286 
L 121.966754 90.573562 
L 122.220644 105.515633 
L 122.474534 89.525009 
L 122.728424 96.078544 
L 122.982315 89.00071 
L 123.236205 90.835712 
L 123.490095 89.00071 
L 123.743985 88.738583 
L 123.997876 91.359988 
L 124.251766 89.525009 
L 124.505656 89.525009 
L 124.759546 94.767842 
L 125.267327 90.573562 
L 125.521217 91.097862 
L 126.028998 92.93284 
L 126.282888 93.981416 
L 126.790669 89.525009 
L 127.044559 98.175672 
L 127.298449 87.952157 
L 127.552339 90.311435 
L 127.80623 89.00071 
L 128.06012 90.049286 
L 128.5679 92.93284 
L 128.821791 91.622138 
L 129.075681 91.097862 
L 129.329571 89.00071 
L 129.583461 91.622138 
L 129.837352 91.097862 
L 130.091242 90.049286 
L 130.345132 90.049286 
L 130.599022 88.476433 
L 130.852913 87.952157 
L 131.106803 90.311435 
L 131.360693 90.573562 
L 131.614583 89.787136 
L 131.868474 90.573562 
L 132.122364 92.93284 
L 132.376254 92.67069 
L 132.630144 90.311435 
L 132.884035 92.146414 
L 133.391815 87.690007 
L 133.645705 91.622138 
L 133.899596 90.573562 
L 134.153486 93.719266 
L 134.407376 89.00071 
L 134.661266 91.884264 
L 134.915157 91.097862 
L 135.169047 88.738583 
L 135.422937 91.884264 
L 135.676827 89.525009 
L 135.930718 90.573562 
L 136.184608 90.835712 
L 136.438498 89.525009 
L 136.692388 90.049286 
L 136.946279 89.262859 
L 137.200169 91.884264 
L 137.454059 92.408564 
L 137.707949 91.622138 
L 137.96184 90.311435 
L 138.21573 90.311435 
L 138.46962 88.214283 
L 138.72351 90.311435 
L 139.231291 89.262859 
L 139.485181 91.884264 
L 139.739071 91.359988 
L 139.992962 90.049286 
L 140.246852 90.311435 
L 140.500742 89.787136 
L 140.754632 87.952157 
L 141.516303 90.573562 
L 141.770193 92.146414 
L 142.024084 88.476433 
L 142.277974 89.262859 
L 142.531864 95.029968 
L 142.785755 90.311435 
L 143.293535 88.476433 
L 143.547425 92.408564 
L 143.801316 89.262859 
L 144.055206 90.311435 
L 144.309096 89.787136 
L 144.562986 92.408564 
L 144.816877 88.476433 
L 145.070767 90.049286 
L 145.324657 88.214283 
L 146.086328 94.505692 
L 146.340218 91.622138 
L 146.847999 92.67069 
L 147.101889 89.787136 
L 147.355779 90.049286 
L 147.609669 90.835712 
L 147.86356 90.573562 
L 148.11745 96.86497 
L 148.37134 91.884264 
L 148.62523 90.573562 
L 148.879121 91.884264 
L 149.133011 87.952157 
L 149.386901 92.408564 
L 149.894682 89.787136 
L 150.148572 92.146414 
L 150.402462 90.835712 
L 150.656352 90.835712 
L 150.910243 91.359988 
L 151.164133 89.262859 
L 151.418023 89.525009 
L 151.671913 91.359988 
L 151.925804 92.146414 
L 152.179694 91.884264 
L 152.433584 91.359988 
L 152.687474 91.884264 
L 152.941365 92.146414 
L 153.195255 90.049286 
L 153.449145 89.525009 
L 153.703035 89.525009 
L 153.956926 92.146414 
L 154.210816 90.049286 
L 154.464706 92.408564 
L 154.718596 89.787136 
L 154.972487 89.787136 
L 155.226377 92.146414 
L 155.480267 91.884264 
L 155.734157 88.738583 
L 155.988048 90.049286 
L 156.241938 89.00071 
L 156.495828 91.097862 
L 156.749718 92.146414 
L 157.003609 92.67069 
L 157.257499 89.525009 
L 157.511389 91.622138 
L 157.765279 91.622138 
L 158.01917 91.097862 
L 158.27306 92.408564 
L 158.52695 89.787136 
L 158.78084 89.00071 
L 159.034731 91.622138 
L 159.288621 90.835712 
L 159.542511 91.359988 
L 159.796402 92.146414 
L 160.050292 89.262859 
L 160.304182 90.311435 
L 160.558072 91.884264 
L 160.811963 91.884264 
L 161.065853 89.00071 
L 161.319743 91.622138 
L 161.573633 91.622138 
L 161.827524 91.359988 
L 162.081414 90.835712 
L 162.335304 88.738583 
L 162.589194 93.19499 
L 162.843085 92.146414 
L 163.096975 90.311435 
L 163.350865 89.787136 
L 163.604755 90.049286 
L 163.858646 90.835712 
L 164.112536 89.00071 
L 164.366426 92.408564 
L 164.620316 93.19499 
L 164.874207 91.359988 
L 165.128097 90.573562 
L 165.635877 90.573562 
L 165.889768 91.097862 
L 166.143658 88.738583 
L 166.397548 91.097862 
L 166.651438 90.311435 
L 166.905329 90.049286 
L 167.159219 90.573562 
L 167.413109 91.884264 
L 167.666999 91.622138 
L 167.92089 90.311435 
L 168.17478 91.884264 
L 168.42867 91.359988 
L 168.68256 90.573562 
L 168.936451 90.311435 
L 169.190341 90.835712 
L 169.444231 93.457116 
L 169.698121 91.622138 
L 169.952012 92.146414 
L 170.459792 89.787136 
L 170.713682 90.311435 
L 171.221463 92.408564 
L 171.475353 91.359988 
L 171.729243 90.835712 
L 171.983134 90.835712 
L 172.237024 90.049286 
L 172.744804 91.622138 
L 172.998695 90.573562 
L 173.252585 91.622138 
L 173.506475 90.049286 
L 174.014256 92.67069 
L 174.268146 90.311435 
L 174.522036 89.262859 
L 174.775926 91.359988 
L 175.029817 89.262859 
L 175.537597 90.835712 
L 175.791488 92.146414 
L 176.045378 90.311435 
L 176.299268 90.049286 
L 176.553158 90.573562 
L 176.807049 91.622138 
L 177.060939 90.049286 
L 177.314829 92.146414 
L 177.568719 89.787136 
L 177.82261 90.835712 
L 178.0765 89.262859 
L 178.33039 90.835712 
L 178.58428 90.049286 
L 178.838171 90.049286 
L 179.092061 89.525009 
L 179.345951 91.884264 
L 179.599841 88.738583 
L 179.853732 90.573562 
L 180.107622 90.311435 
L 180.361512 90.311435 
L 180.615402 89.787136 
L 180.869293 90.311435 
L 181.123183 92.146414 
L 181.377073 90.835712 
L 181.630963 91.097862 
L 181.884854 91.884264 
L 182.138744 90.573562 
L 182.392634 91.884264 
L 182.646524 90.311435 
L 182.900415 90.311435 
L 183.154305 90.835712 
L 183.915976 90.835712 
L 184.169866 91.359988 
L 184.423756 89.262859 
L 184.677646 90.311435 
L 184.931537 90.049286 
L 185.185427 91.884264 
L 185.439317 91.097862 
L 185.693207 92.146414 
L 185.947098 89.00071 
L 186.200988 91.359988 
L 186.454878 91.884264 
L 186.708768 89.00071 
L 186.962659 90.573562 
L 187.216549 90.835712 
L 187.470439 90.573562 
L 187.724329 89.525009 
L 187.97822 90.311435 
L 188.23211 92.146414 
L 188.486 90.049286 
L 188.993781 91.884264 
L 189.501561 90.573562 
L 189.755451 90.311435 
L 190.009342 89.525009 
L 190.263232 91.622138 
L 190.771012 90.311435 
L 191.024903 91.097862 
L 191.278793 90.573562 
L 191.532683 90.835712 
L 191.786574 91.884264 
L 192.040464 90.835712 
L 192.294354 91.622138 
L 192.548244 91.097862 
L 192.802135 92.146414 
L 193.056025 90.311435 
L 193.309915 89.787136 
L 193.563805 90.049286 
L 193.817696 90.573562 
L 194.071586 92.408564 
L 194.325476 90.573562 
L 194.579366 91.359988 
L 195.087147 91.359988 
L 195.341037 91.622138 
L 195.594927 90.049286 
L 195.848818 90.835712 
L 196.102708 91.097862 
L 196.356598 90.311435 
L 196.610488 91.359988 
L 196.864379 90.311435 
L 197.118269 91.884264 
L 197.372159 90.573562 
L 197.626049 92.408564 
L 197.87994 90.049286 
L 198.13383 90.573562 
L 198.38772 92.67069 
L 198.64161 91.097862 
L 198.895501 91.097862 
L 199.149391 91.884264 
L 199.403281 90.573562 
L 199.657171 91.622138 
L 199.911062 90.573562 
L 200.164952 90.573562 
L 200.418842 91.884264 
L 200.672732 89.787136 
L 200.926623 90.835712 
L 201.180513 91.359988 
L 201.434403 91.622138 
L 201.688293 89.525009 
L 201.942184 92.146414 
L 202.196074 90.049286 
L 202.449964 90.835712 
L 202.703854 90.835712 
L 202.957745 89.262859 
L 203.211635 90.311435 
L 203.465525 92.67069 
L 203.719415 91.884264 
L 203.973306 90.311435 
L 204.227196 91.097862 
L 204.481086 88.476433 
L 204.734976 91.359988 
L 204.988867 90.835712 
L 205.242757 91.884264 
L 205.496647 90.049286 
L 205.750537 90.573562 
L 206.004428 90.049286 
L 206.258318 91.884264 
L 206.512208 89.787136 
L 206.766098 90.049286 
L 207.019989 91.359988 
L 207.273879 90.049286 
L 207.527769 90.311435 
L 207.78166 90.835712 
L 208.03555 90.835712 
L 208.28944 91.884264 
L 208.54333 91.884264 
L 208.797221 90.311435 
L 209.051111 91.097862 
L 209.305001 91.359988 
L 209.558891 91.359988 
L 209.812782 90.835712 
L 210.066672 89.787136 
L 210.320562 91.622138 
L 210.574452 90.573562 
L 210.828343 92.408564 
L 211.082233 90.573562 
L 211.336123 91.097862 
L 211.590013 90.835712 
L 211.843904 92.146414 
L 212.351684 90.835712 
L 212.605574 90.311435 
L 212.859465 91.359988 
L 213.113355 90.573562 
L 213.367245 91.359988 
L 213.621135 90.573562 
L 214.128916 91.097862 
L 214.382806 91.884264 
L 214.636696 91.622138 
L 214.890587 91.622138 
L 215.144477 90.311435 
L 215.398367 90.311435 
L 215.652257 90.835712 
L 215.906148 91.884264 
L 216.160038 92.146414 
L 216.413928 90.049286 
L 217.175599 92.146414 
L 217.429489 91.359988 
L 217.683379 91.884264 
L 217.93727 90.049286 
L 218.19116 90.311435 
L 218.44505 90.835712 
L 218.69894 91.097862 
L 218.952831 90.573562 
L 219.206721 91.622138 
L 219.460611 90.049286 
L 219.714501 90.049286 
L 219.968392 91.097862 
L 220.222282 90.835712 
L 220.476172 90.311435 
L 220.730062 91.097862 
L 220.983953 92.93284 
L 221.237843 89.787136 
L 221.491733 91.359988 
L 221.745623 91.884264 
L 221.999514 91.097862 
L 222.253404 91.622138 
L 222.507294 90.835712 
L 222.761184 91.097862 
L 223.015075 90.573562 
L 223.268965 91.622138 
L 223.522855 91.359988 
L 223.776745 91.359988 
L 224.030636 91.097862 
L 224.284526 90.049286 
L 224.538416 90.573562 
L 224.792307 91.622138 
L 225.300087 91.622138 
L 225.553977 90.311435 
L 225.807868 91.622138 
L 226.061758 91.359988 
L 226.315648 89.787136 
L 226.569538 89.787136 
L 226.823429 92.408564 
L 227.077319 92.93284 
L 227.331209 90.573562 
L 227.585099 90.835712 
L 227.83899 90.835712 
L 228.09288 89.525009 
L 228.60066 91.622138 
L 228.854551 90.835712 
L 229.108441 91.622138 
L 229.362331 92.93284 
L 229.616221 92.146414 
L 229.870112 90.049286 
L 230.124002 90.049286 
L 230.377892 90.311435 
L 230.631782 90.835712 
L 230.885673 90.835712 
L 231.139563 91.884264 
L 231.393453 91.097862 
L 231.901234 90.573562 
L 232.155124 90.835712 
L 232.409014 91.359988 
L 232.662904 91.097862 
L 232.916795 91.097862 
L 233.170685 90.311435 
L 233.424575 91.097862 
L 233.678465 90.311435 
L 233.932356 90.835712 
L 234.440136 91.359988 
L 234.694026 92.408564 
L 234.947917 91.622138 
L 235.201807 91.884264 
L 235.709587 89.787136 
L 235.963478 91.359988 
L 236.217368 90.573562 
L 236.471258 91.622138 
L 236.725148 90.573562 
L 236.979039 91.359988 
L 237.232929 90.835712 
L 237.740709 91.884264 
L 237.9946 91.097862 
L 238.24849 91.097862 
L 238.50238 91.359988 
L 238.75627 91.097862 
L 239.010161 91.097862 
L 239.264051 90.311435 
L 239.517941 91.622138 
L 240.025722 92.146414 
L 240.279612 91.884264 
L 240.533502 90.835712 
L 240.787393 90.573562 
L 241.041283 92.408564 
L 241.295173 90.311435 
L 241.549063 91.097862 
L 241.802954 91.359988 
L 242.056844 90.573562 
L 242.310734 90.311435 
L 242.564624 91.359988 
L 242.818515 91.359988 
L 243.072405 90.835712 
L 243.580185 90.311435 
L 243.834076 91.884264 
L 244.341856 90.311435 
L 244.595746 91.622138 
L 244.849637 91.622138 
L 245.357417 92.67069 
L 245.611307 91.884264 
L 245.865198 89.787136 
L 246.119088 89.787136 
L 246.372978 92.408564 
L 246.626868 90.835712 
L 246.880759 91.884264 
L 247.134649 89.525009 
L 247.642429 91.884264 
L 247.89632 90.573562 
L 248.4041 91.622138 
L 248.65799 91.884264 
L 249.165771 90.311435 
L 249.419661 92.146414 
L 249.673551 92.408564 
L 250.181332 90.311435 
L 250.435222 91.884264 
L 250.689112 91.622138 
L 250.943003 91.097862 
L 251.196893 90.835712 
L 251.450783 91.622138 
L 251.704673 91.097862 
L 251.958564 91.359988 
L 252.212454 90.573562 
L 252.466344 91.622138 
L 252.720234 90.835712 
L 252.974125 91.884264 
L 253.228015 90.573562 
L 253.481905 90.835712 
L 253.735795 90.573562 
L 253.989686 90.049286 
L 254.243576 92.93284 
L 254.497466 91.097862 
L 254.751356 90.573562 
L 255.005247 90.573562 
L 255.259137 90.835712 
L 255.513027 91.359988 
L 255.766917 91.622138 
L 256.020808 90.835712 
L 256.274698 90.835712 
L 256.528588 90.311435 
L 256.782479 91.097862 
L 257.036369 91.097862 
L 257.290259 91.622138 
L 257.544149 91.622138 
L 258.05193 91.097862 
L 258.30582 91.359988 
L 258.55971 91.359988 
L 258.813601 91.097862 
L 259.067491 91.097862 
L 259.321381 92.146414 
L 259.575271 90.573562 
L 259.829162 92.146414 
L 260.083052 90.311435 
L 260.336942 90.049286 
L 260.590832 91.884264 
L 260.844723 90.311435 
L 261.098613 90.835712 
L 261.352503 91.097862 
L 261.606393 90.311435 
L 261.860284 92.408564 
L 262.368064 91.097862 
L 262.875845 90.573562 
L 263.129735 93.19499 
L 263.383625 90.835712 
L 263.637515 91.097862 
L 263.891406 90.311435 
L 264.399186 92.146414 
L 264.653076 89.787136 
L 264.906967 90.311435 
L 265.160857 91.622138 
L 265.414747 91.097862 
L 265.668637 90.311435 
L 265.922528 92.67069 
L 266.176418 90.573562 
L 266.430308 92.67069 
L 266.684198 90.835712 
L 266.938089 91.622138 
L 267.191979 88.738583 
L 267.445869 91.622138 
L 267.699759 92.408564 
L 268.20754 90.311435 
L 268.46143 92.146414 
L 268.71532 90.311435 
L 268.969211 90.835712 
L 269.223101 90.835712 
L 269.476991 89.525009 
L 269.730881 90.049286 
L 269.984772 92.67069 
L 270.238662 90.835712 
L 270.492552 91.359988 
L 271.000333 91.884264 
L 271.254223 91.622138 
L 271.508113 90.311435 
L 271.762003 91.884264 
L 272.015894 92.408564 
L 272.269784 93.457116 
L 272.523674 91.884264 
L 272.777564 91.097862 
L 273.031455 91.884264 
L 273.285345 91.097862 
L 273.539235 91.359988 
L 274.047016 90.835712 
L 274.300906 91.359988 
L 274.554796 91.622138 
L 274.808687 90.573562 
L 275.062577 91.884264 
L 275.316467 91.359988 
L 275.570357 90.573562 
L 275.824248 91.097862 
L 276.078138 92.408564 
L 276.332028 90.573562 
L 276.839809 92.146414 
L 277.347589 91.097862 
L 277.601479 90.835712 
L 277.85537 89.787136 
L 278.10926 90.311435 
L 278.36315 90.573562 
L 278.61704 89.787136 
L 278.870931 90.049286 
L 279.124821 92.146414 
L 279.378711 90.311435 
L 279.632601 90.573562 
L 279.886492 91.622138 
L 280.648162 90.835712 
L 281.155943 90.835712 
L 281.409833 90.573562 
L 281.663723 91.359988 
L 281.917614 90.311435 
L 282.171504 91.097862 
L 282.425394 90.573562 
L 282.679284 91.622138 
L 282.933175 91.884264 
L 283.187065 91.359988 
L 283.948736 91.359988 
L 284.202626 93.19499 
L 284.456516 90.573562 
L 284.710406 90.835712 
L 284.964297 91.622138 
L 285.218187 91.359988 
L 285.472077 90.835712 
L 285.979858 92.93284 
L 286.233748 90.573562 
L 287.249309 90.573562 
L 287.503199 90.311435 
L 287.757089 91.097862 
L 288.01098 91.359988 
L 288.26487 90.049286 
L 288.51876 91.097862 
L 289.026541 90.573562 
L 289.280431 91.622138 
L 289.534321 91.622138 
L 289.788212 91.359988 
L 290.042102 91.622138 
L 290.295992 93.19499 
L 290.549882 92.408564 
L 290.803773 89.525009 
L 291.057663 91.359988 
L 291.311553 90.835712 
L 291.819334 91.359988 
L 292.073224 90.835712 
L 292.327114 92.146414 
L 292.581004 91.359988 
L 292.834895 91.622138 
L 293.088785 91.097862 
L 293.596565 89.787136 
L 293.850456 91.622138 
L 294.104346 90.049286 
L 294.358236 89.787136 
L 294.612126 90.311435 
L 294.866017 90.311435 
L 295.119907 92.408564 
L 295.373797 91.884264 
L 295.627687 92.146414 
L 295.881578 90.835712 
L 296.135468 90.835712 
L 296.389358 90.573562 
L 296.643248 90.573562 
L 296.897139 91.884264 
L 297.151029 92.408564 
L 297.404919 91.622138 
L 297.658809 90.049286 
L 297.9127 91.097862 
L 298.16659 91.359988 
L 298.42048 91.359988 
L 298.67437 92.146414 
L 298.928261 90.573562 
L 299.182151 90.049286 
L 299.436041 90.835712 
L 299.689931 91.097862 
L 299.943822 91.622138 
L 300.197712 91.884264 
L 300.451602 90.311435 
L 300.705492 92.408564 
L 300.959383 90.573562 
L 301.213273 91.622138 
L 301.467163 90.835712 
L 301.721053 91.359988 
L 301.974944 90.311435 
L 302.228834 90.573562 
L 302.482724 91.622138 
L 302.736614 91.359988 
L 302.990505 91.884264 
L 303.244395 90.311435 
L 303.752175 90.835712 
L 304.006066 90.573562 
L 304.259956 91.097862 
L 304.513846 91.097862 
L 304.767736 91.622138 
L 305.021627 89.262859 
L 305.275517 92.408564 
L 305.529407 90.835712 
L 305.783298 91.097862 
L 306.037188 92.146414 
L 306.291078 92.146414 
L 306.544968 91.359988 
L 306.798859 91.097862 
L 307.052749 89.00071 
L 307.306639 88.214283 
L 307.560529 91.097862 
L 307.81442 92.146414 
L 308.06831 89.262859 
L 308.3222 91.884264 
L 308.57609 88.214283 
L 308.829981 92.408564 
L 309.083871 90.573562 
L 309.337761 90.835712 
L 309.591651 90.573562 
L 309.845542 91.097862 
L 310.099432 90.311435 
L 310.099432 90.311435 
" clip-path="url(#p9cb6f8a4ca)" style="fill: none; stroke: #ff0000; stroke-width: 0.6; stroke-linecap: square"/>
   </g>
   <g id="patch_3">
    <path d="M 43.78125 239.76 
L 43.78125 37.296 
" style="fill: none; stroke: #000000; stroke-width: 0.8; stroke-linejoin: miter; stroke-linecap: square"/>
   </g>
   <g id="patch_4">
    <path d="M 322.78125 239.76 
L 322.78125 37.296 
" style="fill: none; stroke: #000000; stroke-width: 0.8; stroke-linejoin: miter; stroke-linecap: square"/>
   </g>
   <g id="patch_5">
    <path d="M 43.78125 239.76 
L 322.78125 239.76 
" style="fill: none; stroke: #000000; stroke-width: 0.8; stroke-linejoin: miter; stroke-linecap: square"/>
   </g>
   <g id="patch_6">
    <path d="M 43.78125 37.296 
L 322.78125 37.296 
" style="fill: none; stroke: #000000; stroke-width: 0.8; stroke-linejoin: miter; stroke-linecap: square"/>
   </g>
   <g id="text_14">
    <!-- Baseline Model -->
    <g transform="translate(149.259844 31.296) scale(0.09 -0.09)">
     <defs>
      <path id="DejaVuSans-42" d="M 1259 2228 
L 1259 519 
L 2272 519 
Q 2781 519 3026 730 
Q 3272 941 3272 1375 
Q 3272 1813 3026 2020 
Q 2781 2228 2272 2228 
L 1259 2228 
z
M 1259 4147 
L 1259 2741 
L 2194 2741 
Q 2656 2741 2882 2914 
Q 3109 3088 3109 3444 
Q 3109 3797 2882 3972 
Q 2656 4147 2194 4147 
L 1259 4147 
z
M 628 4666 
L 2241 4666 
Q 2963 4666 3353 4366 
Q 3744 4066 3744 3513 
Q 3744 3084 3544 2831 
Q 3344 2578 2956 2516 
Q 3422 2416 3680 2098 
Q 3938 1781 3938 1306 
Q 3938 681 3513 340 
Q 3088 0 2303 0 
L 628 0 
L 628 4666 
z
" transform="scale(0.015625)"/>
      <path id="DejaVuSans-65" d="M 3597 1894 
L 3597 1613 
L 953 1613 
Q 991 1019 1311 708 
Q 1631 397 2203 397 
Q 2534 397 2845 478 
Q 3156 559 3463 722 
L 3463 178 
Q 3153 47 2828 -22 
Q 2503 -91 2169 -91 
Q 1331 -91 842 396 
Q 353 884 353 1716 
Q 353 2575 817 3079 
Q 1281 3584 2069 3584 
Q 2775 3584 3186 3129 
Q 3597 2675 3597 1894 
z
M 3022 2063 
Q 3016 2534 2758 2815 
Q 2500 3097 2075 3097 
Q 1594 3097 1305 2825 
Q 1016 2553 972 2059 
L 3022 2063 
z
" transform="scale(0.015625)"/>
      <path id="DejaVuSans-6c" d="M 603 4863 
L 1178 4863 
L 1178 0 
L 603 0 
L 603 4863 
z
" transform="scale(0.015625)"/>
      <path id="DejaVuSans-69" d="M 603 3500 
L 1178 3500 
L 1178 0 
L 603 0 
L 603 3500 
z
M 603 4863 
L 1178 4863 
L 1178 4134 
L 603 4134 
L 603 4863 
z
" transform="scale(0.015625)"/>
      <path id="DejaVuSans-6e" d="M 3513 2113 
L 3513 0 
L 2938 0 
L 2938 2094 
Q 2938 2591 2744 2837 
Q 2550 3084 2163 3084 
Q 1697 3084 1428 2787 
Q 1159 2491 1159 1978 
L 1159 0 
L 581 0 
L 581 3500 
L 1159 3500 
L 1159 2956 
Q 1366 3272 1645 3428 
Q 1925 3584 2291 3584 
Q 2894 3584 3203 3211 
Q 3513 2838 3513 2113 
z
" transform="scale(0.015625)"/>
      <path id="DejaVuSans-20" transform="scale(0.015625)"/>
      <path id="DejaVuSans-4d" d="M 628 4666 
L 1569 4666 
L 2759 1491 
L 3956 4666 
L 4897 4666 
L 4897 0 
L 4281 0 
L 4281 4097 
L 3078 897 
L 2444 897 
L 1241 4097 
L 1241 0 
L 628 0 
L 628 4666 
z
" transform="scale(0.015625)"/>
      <path id="DejaVuSans-64" d="M 2906 2969 
L 2906 4863 
L 3481 4863 
L 3481 0 
L 2906 0 
L 2906 525 
Q 2725 213 2448 61 
Q 2172 -91 1784 -91 
Q 1150 -91 751 415 
Q 353 922 353 1747 
Q 353 2572 751 3078 
Q 1150 3584 1784 3584 
Q 2172 3584 2448 3432 
Q 2725 3281 2906 2969 
z
M 947 1747 
Q 947 1113 1208 752 
Q 1469 391 1925 391 
Q 2381 391 2643 752 
Q 2906 1113 2906 1747 
Q 2906 2381 2643 2742 
Q 2381 3103 1925 3103 
Q 1469 3103 1208 2742 
Q 947 2381 947 1747 
z
" transform="scale(0.015625)"/>
     </defs>
     <use xlink:href="#DejaVuSans-42"/>
     <use xlink:href="#DejaVuSans-61" x="68.603516"/>
     <use xlink:href="#DejaVuSans-73" x="129.882812"/>
     <use xlink:href="#DejaVuSans-65" x="181.982422"/>
     <use xlink:href="#DejaVuSans-6c" x="243.505859"/>
     <use xlink:href="#DejaVuSans-69" x="271.289062"/>
     <use xlink:href="#DejaVuSans-6e" x="299.072266"/>
     <use xlink:href="#DejaVuSans-65" x="362.451172"/>
     <use xlink:href="#DejaVuSans-20" x="423.974609"/>
     <use xlink:href="#DejaVuSans-4d" x="455.761719"/>
     <use xlink:href="#DejaVuSans-6f" x="542.041016"/>
     <use xlink:href="#DejaVuSans-64" x="603.222656"/>
     <use xlink:href="#DejaVuSans-65" x="666.699219"/>
     <use xlink:href="#DejaVuSans-6c" x="728.222656"/>
    </g>
   </g>
   <g id="legend_1">
    <g id="patch_7">
     <path d="M 185.565625 234.76 
L 315.78125 234.76 
Q 317.78125 234.76 317.78125 232.76 
L 317.78125 204.40375 
Q 317.78125 202.40375 315.78125 202.40375 
L 185.565625 202.40375 
Q 183.565625 202.40375 183.565625 204.40375 
L 183.565625 232.76 
Q 183.565625 234.76 185.565625 234.76 
z
" style="fill: #ffffff; opacity: 0.8; stroke: #cccccc; stroke-linejoin: miter"/>
    </g>
    <g id="line2d_25">
     <path d="M 187.565625 210.502187 
L 197.565625 210.502187 
L 207.565625 210.502187 
" style="fill: none; stroke: #0000ff; stroke-width: 0.6; stroke-linecap: square"/>
    </g>
    <g id="text_15">
     <!-- Training Accuracy -->
     <g transform="translate(215.565625 214.002187) scale(0.1 -0.1)">
      <defs>
       <path id="DejaVuSans-54" d="M -19 4666 
L 3928 4666 
L 3928 4134 
L 2272 4134 
L 2272 0 
L 1638 0 
L 1638 4134 
L -19 4134 
L -19 4666 
z
" transform="scale(0.015625)"/>
       <path id="DejaVuSans-67" d="M 2906 1791 
Q 2906 2416 2648 2759 
Q 2391 3103 1925 3103 
Q 1463 3103 1205 2759 
Q 947 2416 947 1791 
Q 947 1169 1205 825 
Q 1463 481 1925 481 
Q 2391 481 2648 825 
Q 2906 1169 2906 1791 
z
M 3481 434 
Q 3481 -459 3084 -895 
Q 2688 -1331 1869 -1331 
Q 1566 -1331 1297 -1286 
Q 1028 -1241 775 -1147 
L 775 -588 
Q 1028 -725 1275 -790 
Q 1522 -856 1778 -856 
Q 2344 -856 2625 -561 
Q 2906 -266 2906 331 
L 2906 616 
Q 2728 306 2450 153 
Q 2172 0 1784 0 
Q 1141 0 747 490 
Q 353 981 353 1791 
Q 353 2603 747 3093 
Q 1141 3584 1784 3584 
Q 2172 3584 2450 3431 
Q 2728 3278 2906 2969 
L 2906 3500 
L 3481 3500 
L 3481 434 
z
" transform="scale(0.015625)"/>
      </defs>
      <use xlink:href="#DejaVuSans-54"/>
      <use xlink:href="#DejaVuSans-72" x="46.333984"/>
      <use xlink:href="#DejaVuSans-61" x="87.447266"/>
      <use xlink:href="#DejaVuSans-69" x="148.726562"/>
      <use xlink:href="#DejaVuSans-6e" x="176.509766"/>
      <use xlink:href="#DejaVuSans-69" x="239.888672"/>
      <use xlink:href="#DejaVuSans-6e" x="267.671875"/>
      <use xlink:href="#DejaVuSans-67" x="331.050781"/>
      <use xlink:href="#DejaVuSans-20" x="394.527344"/>
      <use xlink:href="#DejaVuSans-41" x="426.314453"/>
      <use xlink:href="#DejaVuSans-63" x="492.972656"/>
      <use xlink:href="#DejaVuSans-63" x="547.953125"/>
      <use xlink:href="#DejaVuSans-75" x="602.933594"/>
      <use xlink:href="#DejaVuSans-72" x="666.3125"/>
      <use xlink:href="#DejaVuSans-61" x="707.425781"/>
      <use xlink:href="#DejaVuSans-63" x="768.705078"/>
      <use xlink:href="#DejaVuSans-79" x="823.685547"/>
     </g>
    </g>
    <g id="line2d_26">
     <path d="M 187.565625 225.180312 
L 197.565625 225.180312 
L 207.565625 225.180312 
" style="fill: none; stroke: #ff0000; stroke-width: 0.6; stroke-linecap: square"/>
    </g>
    <g id="text_16">
     <!-- Validation Accuracy -->
     <g transform="translate(215.565625 228.680312) scale(0.1 -0.1)">
      <defs>
       <path id="DejaVuSans-56" d="M 1831 0 
L 50 4666 
L 709 4666 
L 2188 738 
L 3669 4666 
L 4325 4666 
L 2547 0 
L 1831 0 
z
" transform="scale(0.015625)"/>
       <path id="DejaVuSans-74" d="M 1172 4494 
L 1172 3500 
L 2356 3500 
L 2356 3053 
L 1172 3053 
L 1172 1153 
Q 1172 725 1289 603 
Q 1406 481 1766 481 
L 2356 481 
L 2356 0 
L 1766 0 
Q 1100 0 847 248 
Q 594 497 594 1153 
L 594 3053 
L 172 3053 
L 172 3500 
L 594 3500 
L 594 4494 
L 1172 4494 
z
" transform="scale(0.015625)"/>
      </defs>
      <use xlink:href="#DejaVuSans-56"/>
      <use xlink:href="#DejaVuSans-61" x="60.658203"/>
      <use xlink:href="#DejaVuSans-6c" x="121.9375"/>
      <use xlink:href="#DejaVuSans-69" x="149.720703"/>
      <use xlink:href="#DejaVuSans-64" x="177.503906"/>
      <use xlink:href="#DejaVuSans-61" x="240.980469"/>
      <use xlink:href="#DejaVuSans-74" x="302.259766"/>
      <use xlink:href="#DejaVuSans-69" x="341.46875"/>
      <use xlink:href="#DejaVuSans-6f" x="369.251953"/>
      <use xlink:href="#DejaVuSans-6e" x="430.433594"/>
      <use xlink:href="#DejaVuSans-20" x="493.8125"/>
      <use xlink:href="#DejaVuSans-41" x="525.599609"/>
      <use xlink:href="#DejaVuSans-63" x="592.257812"/>
      <use xlink:href="#DejaVuSans-63" x="647.238281"/>
      <use xlink:href="#DejaVuSans-75" x="702.21875"/>
      <use xlink:href="#DejaVuSans-72" x="765.597656"/>
      <use xlink:href="#DejaVuSans-61" x="806.710938"/>
      <use xlink:href="#DejaVuSans-63" x="867.990234"/>
      <use xlink:href="#DejaVuSans-79" x="922.970703"/>
     </g>
    </g>
   </g>
  </g>
  <g id="text_17">
   <!-- Training VS. Validation Accuracy - Dataset Size = 100.0% -->
   <g transform="translate(21.433984 15.558281) scale(0.11 -0.11)">
    <defs>
     <path id="DejaVuSans-53" d="M 3425 4513 
L 3425 3897 
Q 3066 4069 2747 4153 
Q 2428 4238 2131 4238 
Q 1616 4238 1336 4038 
Q 1056 3838 1056 3469 
Q 1056 3159 1242 3001 
Q 1428 2844 1947 2747 
L 2328 2669 
Q 3034 2534 3370 2195 
Q 3706 1856 3706 1288 
Q 3706 609 3251 259 
Q 2797 -91 1919 -91 
Q 1588 -91 1214 -16 
Q 841 59 441 206 
L 441 856 
Q 825 641 1194 531 
Q 1563 422 1919 422 
Q 2459 422 2753 634 
Q 3047 847 3047 1241 
Q 3047 1584 2836 1778 
Q 2625 1972 2144 2069 
L 1759 2144 
Q 1053 2284 737 2584 
Q 422 2884 422 3419 
Q 422 4038 858 4394 
Q 1294 4750 2059 4750 
Q 2388 4750 2728 4690 
Q 3069 4631 3425 4513 
z
" transform="scale(0.015625)"/>
     <path id="DejaVuSans-2d" d="M 313 2009 
L 1997 2009 
L 1997 1497 
L 313 1497 
L 313 2009 
z
" transform="scale(0.015625)"/>
     <path id="DejaVuSans-44" d="M 1259 4147 
L 1259 519 
L 2022 519 
Q 2988 519 3436 956 
Q 3884 1394 3884 2338 
Q 3884 3275 3436 3711 
Q 2988 4147 2022 4147 
L 1259 4147 
z
M 628 4666 
L 1925 4666 
Q 3281 4666 3915 4102 
Q 4550 3538 4550 2338 
Q 4550 1131 3912 565 
Q 3275 0 1925 0 
L 628 0 
L 628 4666 
z
" transform="scale(0.015625)"/>
     <path id="DejaVuSans-7a" d="M 353 3500 
L 3084 3500 
L 3084 2975 
L 922 459 
L 3084 459 
L 3084 0 
L 275 0 
L 275 525 
L 2438 3041 
L 353 3041 
L 353 3500 
z
" transform="scale(0.015625)"/>
     <path id="DejaVuSans-3d" d="M 678 2906 
L 4684 2906 
L 4684 2381 
L 678 2381 
L 678 2906 
z
M 678 1631 
L 4684 1631 
L 4684 1100 
L 678 1100 
L 678 1631 
z
" transform="scale(0.015625)"/>
     <path id="DejaVuSans-25" d="M 4653 2053 
Q 4381 2053 4226 1822 
Q 4072 1591 4072 1178 
Q 4072 772 4226 539 
Q 4381 306 4653 306 
Q 4919 306 5073 539 
Q 5228 772 5228 1178 
Q 5228 1588 5073 1820 
Q 4919 2053 4653 2053 
z
M 4653 2450 
Q 5147 2450 5437 2106 
Q 5728 1763 5728 1178 
Q 5728 594 5436 251 
Q 5144 -91 4653 -91 
Q 4153 -91 3862 251 
Q 3572 594 3572 1178 
Q 3572 1766 3864 2108 
Q 4156 2450 4653 2450 
z
M 1428 4353 
Q 1159 4353 1004 4120 
Q 850 3888 850 3481 
Q 850 3069 1003 2837 
Q 1156 2606 1428 2606 
Q 1700 2606 1854 2837 
Q 2009 3069 2009 3481 
Q 2009 3884 1853 4118 
Q 1697 4353 1428 4353 
z
M 4250 4750 
L 4750 4750 
L 1831 -91 
L 1331 -91 
L 4250 4750 
z
M 1428 4750 
Q 1922 4750 2215 4408 
Q 2509 4066 2509 3481 
Q 2509 2891 2217 2550 
Q 1925 2209 1428 2209 
Q 931 2209 642 2551 
Q 353 2894 353 3481 
Q 353 4063 643 4406 
Q 934 4750 1428 4750 
z
" transform="scale(0.015625)"/>
    </defs>
    <use xlink:href="#DejaVuSans-54"/>
    <use xlink:href="#DejaVuSans-72" x="46.333984"/>
    <use xlink:href="#DejaVuSans-61" x="87.447266"/>
    <use xlink:href="#DejaVuSans-69" x="148.726562"/>
    <use xlink:href="#DejaVuSans-6e" x="176.509766"/>
    <use xlink:href="#DejaVuSans-69" x="239.888672"/>
    <use xlink:href="#DejaVuSans-6e" x="267.671875"/>
    <use xlink:href="#DejaVuSans-67" x="331.050781"/>
    <use xlink:href="#DejaVuSans-20" x="394.527344"/>
    <use xlink:href="#DejaVuSans-56" x="426.314453"/>
    <use xlink:href="#DejaVuSans-53" x="494.722656"/>
    <use xlink:href="#DejaVuSans-2e" x="558.199219"/>
    <use xlink:href="#DejaVuSans-20" x="589.986328"/>
    <use xlink:href="#DejaVuSans-56" x="621.773438"/>
    <use xlink:href="#DejaVuSans-61" x="682.431641"/>
    <use xlink:href="#DejaVuSans-6c" x="743.710938"/>
    <use xlink:href="#DejaVuSans-69" x="771.494141"/>
    <use xlink:href="#DejaVuSans-64" x="799.277344"/>
    <use xlink:href="#DejaVuSans-61" x="862.753906"/>
    <use xlink:href="#DejaVuSans-74" x="924.033203"/>
    <use xlink:href="#DejaVuSans-69" x="963.242188"/>
    <use xlink:href="#DejaVuSans-6f" x="991.025391"/>
    <use xlink:href="#DejaVuSans-6e" x="1052.207031"/>
    <use xlink:href="#DejaVuSans-20" x="1115.585938"/>
    <use xlink:href="#DejaVuSans-41" x="1147.373047"/>
    <use xlink:href="#DejaVuSans-63" x="1214.03125"/>
    <use xlink:href="#DejaVuSans-63" x="1269.011719"/>
    <use xlink:href="#DejaVuSans-75" x="1323.992188"/>
    <use xlink:href="#DejaVuSans-72" x="1387.371094"/>
    <use xlink:href="#DejaVuSans-61" x="1428.484375"/>
    <use xlink:href="#DejaVuSans-63" x="1489.763672"/>
    <use xlink:href="#DejaVuSans-79" x="1544.744141"/>
    <use xlink:href="#DejaVuSans-20" x="1603.923828"/>
    <use xlink:href="#DejaVuSans-2d" x="1635.710938"/>
    <use xlink:href="#DejaVuSans-20" x="1671.794922"/>
    <use xlink:href="#DejaVuSans-44" x="1703.582031"/>
    <use xlink:href="#DejaVuSans-61" x="1780.583984"/>
    <use xlink:href="#DejaVuSans-74" x="1841.863281"/>
    <use xlink:href="#DejaVuSans-61" x="1881.072266"/>
    <use xlink:href="#DejaVuSans-73" x="1942.351562"/>
    <use xlink:href="#DejaVuSans-65" x="1994.451172"/>
    <use xlink:href="#DejaVuSans-74" x="2055.974609"/>
    <use xlink:href="#DejaVuSans-20" x="2095.183594"/>
    <use xlink:href="#DejaVuSans-53" x="2126.970703"/>
    <use xlink:href="#DejaVuSans-69" x="2190.447266"/>
    <use xlink:href="#DejaVuSans-7a" x="2218.230469"/>
    <use xlink:href="#DejaVuSans-65" x="2270.720703"/>
    <use xlink:href="#DejaVuSans-20" x="2332.244141"/>
    <use xlink:href="#DejaVuSans-3d" x="2364.03125"/>
    <use xlink:href="#DejaVuSans-20" x="2447.820312"/>
    <use xlink:href="#DejaVuSans-31" x="2479.607422"/>
    <use xlink:href="#DejaVuSans-30" x="2543.230469"/>
    <use xlink:href="#DejaVuSans-30" x="2606.853516"/>
    <use xlink:href="#DejaVuSans-2e" x="2670.476562"/>
    <use xlink:href="#DejaVuSans-30" x="2702.263672"/>
    <use xlink:href="#DejaVuSans-25" x="2765.886719"/>
   </g>
  </g>
 </g>
 <defs>
  <clipPath id="p9cb6f8a4ca">
   <rect x="43.78125" y="37.296" width="279" height="202.464"/>
  </clipPath>
 </defs>
</svg>
