<?xml version="1.0" encoding="utf-8" standalone="no"?>
<!DOCTYPE svg PUBLIC "-//W3C//DTD SVG 1.1//EN"
  "http://www.w3.org/Graphics/SVG/1.1/DTD/svg11.dtd">
<svg xmlns:xlink="http://www.w3.org/1999/xlink" width="343.328516pt" height="277.31625pt" viewBox="0 0 343.328516 277.31625" xmlns="http://www.w3.org/2000/svg" version="1.1">
 <metadata>
  <rdf:RDF xmlns:dc="http://purl.org/dc/elements/1.1/" xmlns:cc="http://creativecommons.org/ns#" xmlns:rdf="http://www.w3.org/1999/02/22-rdf-syntax-ns#">
   <cc:Work>
    <dc:type rdf:resource="http://purl.org/dc/dcmitype/StillImage"/>
    <dc:date>2026-06-11T20:15:48.868952</dc:date>
    <dc:format>image/svg+xml</dc:format>
    <dc:creator>
     <cc:Agent>
      <dc:title>Matplotlib v3.8.4, https://matplotlib.org/</dc:title>
     </cc:Agent>
    </dc:creator>
   </cc:Work>
  </rdf:RDF>
 </metadata>
 <defs>
  <style type="text/css">*{stroke-linejoin: round; stroke-linecap: butt}</style>
 </defs>
 <g id="figure_1">
  <g id="patch_1">
   <path d="M 0 277.31625 
L 343.328516 277.31625 
L 343.328516 0 
L 0 0 
z
" style="fill: #ffffff"/>
  </g>
  <g id="axes_1">
   <g id="patch_2">
    <path d="M 43.78125 239.76 
L 322.78125 239.76 
L 322.78125 37.296 
L 43.78125 37.296 
z
" style="fill: #ffffff"/>
   </g>
   <g id="matplotlib.axis_1">
    <g id="xtick_1">
     <g id="line2d_1">
      <path d="M 56.209178 239.76 
L 56.209178 37.296 
" clip-path="url(#p36d73ce790)" style="fill: none; stroke-dasharray: 2.96,1.28; stroke-dashoffset: 0; stroke: #b0b0b0; stroke-opacity: 0.4; stroke-width: 0.8"/>
     </g>
     <g id="line2d_2">
      <defs>
       <path id="m20d46221be" d="M 0 0 
L 0 3.5 
" style="stroke: #000000; stroke-width: 0.8"/>
      </defs>
      <g>
       <use xlink:href="#m20d46221be" x="56.209178" y="239.76" style="stroke: #000000; stroke-width: 0.8"/>
      </g>
     </g>
     <g id="text_1">
      <!-- 0 -->
      <g transform="translate(53.027928 254.358437) scale(0.1 -0.1)">
       <defs>
        <path id="DejaVuSans-30" d="M 2034 4250 
Q 1547 4250 1301 3770 
Q 1056 3291 1056 2328 
Q 1056 1369 1301 889 
Q 1547 409 2034 409 
Q 2525 409 2770 889 
Q 3016 1369 3016 2328 
Q 3016 3291 2770 3770 
Q 2525 4250 2034 4250 
z
M 2034 4750 
Q 2819 4750 3233 4129 
Q 3647 3509 3647 2328 
Q 3647 1150 3233 529 
Q 2819 -91 2034 -91 
Q 1250 -91 836 529 
Q 422 1150 422 2328 
Q 422 3509 836 4129 
Q 1250 4750 2034 4750 
z
" transform="scale(0.015625)"/>
       </defs>
       <use xlink:href="#DejaVuSans-30"/>
      </g>
     </g>
    </g>
    <g id="xtick_2">
     <g id="line2d_3">
      <path d="M 106.987229 239.76 
L 106.987229 37.296 
" clip-path="url(#p36d73ce790)" style="fill: none; stroke-dasharray: 2.96,1.28; stroke-dashoffset: 0; stroke: #b0b0b0; stroke-opacity: 0.4; stroke-width: 0.8"/>
     </g>
     <g id="line2d_4">
      <g>
       <use xlink:href="#m20d46221be" x="106.987229" y="239.76" style="stroke: #000000; stroke-width: 0.8"/>
      </g>
     </g>
     <g id="text_2">
      <!-- 200 -->
      <g transform="translate(97.443479 254.358437) scale(0.1 -0.1)">
       <defs>
        <path id="DejaVuSans-32" d="M 1228 531 
L 3431 531 
L 3431 0 
L 469 0 
L 469 531 
Q 828 903 1448 1529 
Q 2069 2156 2228 2338 
Q 2531 2678 2651 2914 
Q 2772 3150 2772 3378 
Q 2772 3750 2511 3984 
Q 2250 4219 1831 4219 
Q 1534 4219 1204 4116 
Q 875 4013 500 3803 
L 500 4441 
Q 881 4594 1212 4672 
Q 1544 4750 1819 4750 
Q 2544 4750 2975 4387 
Q 3406 4025 3406 3419 
Q 3406 3131 3298 2873 
Q 3191 2616 2906 2266 
Q 2828 2175 2409 1742 
Q 1991 1309 1228 531 
z
" transform="scale(0.015625)"/>
       </defs>
       <use xlink:href="#DejaVuSans-32"/>
       <use xlink:href="#DejaVuSans-30" x="63.623047"/>
       <use xlink:href="#DejaVuSans-30" x="127.246094"/>
      </g>
     </g>
    </g>
    <g id="xtick_3">
     <g id="line2d_5">
      <path d="M 157.765279 239.76 
L 157.765279 37.296 
" clip-path="url(#p36d73ce790)" style="fill: none; stroke-dasharray: 2.96,1.28; stroke-dashoffset: 0; stroke: #b0b0b0; stroke-opacity: 0.4; stroke-width: 0.8"/>
     </g>
     <g id="line2d_6">
      <g>
       <use xlink:href="#m20d46221be" x="157.765279" y="239.76" style="stroke: #000000; stroke-width: 0.8"/>
      </g>
     </g>
     <g id="text_3">
      <!-- 400 -->
      <g transform="translate(148.221529 254.358437) scale(0.1 -0.1)">
       <defs>
        <path id="DejaVuSans-34" d="M 2419 4116 
L 825 1625 
L 2419 1625 
L 2419 4116 
z
M 2253 4666 
L 3047 4666 
L 3047 1625 
L 3713 1625 
L 3713 1100 
L 3047 1100 
L 3047 0 
L 2419 0 
L 2419 1100 
L 313 1100 
L 313 1709 
L 2253 4666 
z
" transform="scale(0.015625)"/>
       </defs>
       <use xlink:href="#DejaVuSans-34"/>
       <use xlink:href="#DejaVuSans-30" x="63.623047"/>
       <use xlink:href="#DejaVuSans-30" x="127.246094"/>
      </g>
     </g>
    </g>
    <g id="xtick_4">
     <g id="line2d_7">
      <path d="M 208.54333 239.76 
L 208.54333 37.296 
" clip-path="url(#p36d73ce790)" style="fill: none; stroke-dasharray: 2.96,1.28; stroke-dashoffset: 0; stroke: #b0b0b0; stroke-opacity: 0.4; stroke-width: 0.8"/>
     </g>
     <g id="line2d_8">
      <g>
       <use xlink:href="#m20d46221be" x="208.54333" y="239.76" style="stroke: #000000; stroke-width: 0.8"/>
      </g>
     </g>
     <g id="text_4">
      <!-- 600 -->
      <g transform="translate(198.99958 254.358437) scale(0.1 -0.1)">
       <defs>
        <path id="DejaVuSans-36" d="M 2113 2584 
Q 1688 2584 1439 2293 
Q 1191 2003 1191 1497 
Q 1191 994 1439 701 
Q 1688 409 2113 409 
Q 2538 409 2786 701 
Q 3034 994 3034 1497 
Q 3034 2003 2786 2293 
Q 2538 2584 2113 2584 
z
M 3366 4563 
L 3366 3988 
Q 3128 4100 2886 4159 
Q 2644 4219 2406 4219 
Q 1781 4219 1451 3797 
Q 1122 3375 1075 2522 
Q 1259 2794 1537 2939 
Q 1816 3084 2150 3084 
Q 2853 3084 3261 2657 
Q 3669 2231 3669 1497 
Q 3669 778 3244 343 
Q 2819 -91 2113 -91 
Q 1303 -91 875 529 
Q 447 1150 447 2328 
Q 447 3434 972 4092 
Q 1497 4750 2381 4750 
Q 2619 4750 2861 4703 
Q 3103 4656 3366 4563 
z
" transform="scale(0.015625)"/>
       </defs>
       <use xlink:href="#DejaVuSans-36"/>
       <use xlink:href="#DejaVuSans-30" x="63.623047"/>
       <use xlink:href="#DejaVuSans-30" x="127.246094"/>
      </g>
     </g>
    </g>
    <g id="xtick_5">
     <g id="line2d_9">
      <path d="M 259.321381 239.76 
L 259.321381 37.296 
" clip-path="url(#p36d73ce790)" style="fill: none; stroke-dasharray: 2.96,1.28; stroke-dashoffset: 0; stroke: #b0b0b0; stroke-opacity: 0.4; stroke-width: 0.8"/>
     </g>
     <g id="line2d_10">
      <g>
       <use xlink:href="#m20d46221be" x="259.321381" y="239.76" style="stroke: #000000; stroke-width: 0.8"/>
      </g>
     </g>
     <g id="text_5">
      <!-- 800 -->
      <g transform="translate(249.777631 254.358437) scale(0.1 -0.1)">
       <defs>
        <path id="DejaVuSans-38" d="M 2034 2216 
Q 1584 2216 1326 1975 
Q 1069 1734 1069 1313 
Q 1069 891 1326 650 
Q 1584 409 2034 409 
Q 2484 409 2743 651 
Q 3003 894 3003 1313 
Q 3003 1734 2745 1975 
Q 2488 2216 2034 2216 
z
M 1403 2484 
Q 997 2584 770 2862 
Q 544 3141 544 3541 
Q 544 4100 942 4425 
Q 1341 4750 2034 4750 
Q 2731 4750 3128 4425 
Q 3525 4100 3525 3541 
Q 3525 3141 3298 2862 
Q 3072 2584 2669 2484 
Q 3125 2378 3379 2068 
Q 3634 1759 3634 1313 
Q 3634 634 3220 271 
Q 2806 -91 2034 -91 
Q 1263 -91 848 271 
Q 434 634 434 1313 
Q 434 1759 690 2068 
Q 947 2378 1403 2484 
z
M 1172 3481 
Q 1172 3119 1398 2916 
Q 1625 2713 2034 2713 
Q 2441 2713 2670 2916 
Q 2900 3119 2900 3481 
Q 2900 3844 2670 4047 
Q 2441 4250 2034 4250 
Q 1625 4250 1398 4047 
Q 1172 3844 1172 3481 
z
" transform="scale(0.015625)"/>
       </defs>
       <use xlink:href="#DejaVuSans-38"/>
       <use xlink:href="#DejaVuSans-30" x="63.623047"/>
       <use xlink:href="#DejaVuSans-30" x="127.246094"/>
      </g>
     </g>
    </g>
    <g id="xtick_6">
     <g id="line2d_11">
      <path d="M 310.099432 239.76 
L 310.099432 37.296 
" clip-path="url(#p36d73ce790)" style="fill: none; stroke-dasharray: 2.96,1.28; stroke-dashoffset: 0; stroke: #b0b0b0; stroke-opacity: 0.4; stroke-width: 0.8"/>
     </g>
     <g id="line2d_12">
      <g>
       <use xlink:href="#m20d46221be" x="310.099432" y="239.76" style="stroke: #000000; stroke-width: 0.8"/>
      </g>
     </g>
     <g id="text_6">
      <!-- 1000 -->
      <g transform="translate(297.374432 254.358437) scale(0.1 -0.1)">
       <defs>
        <path id="DejaVuSans-31" d="M 794 531 
L 1825 531 
L 1825 4091 
L 703 3866 
L 703 4441 
L 1819 4666 
L 2450 4666 
L 2450 531 
L 3481 531 
L 3481 0 
L 794 0 
L 794 531 
z
" transform="scale(0.015625)"/>
       </defs>
       <use xlink:href="#DejaVuSans-31"/>
       <use xlink:href="#DejaVuSans-30" x="63.623047"/>
       <use xlink:href="#DejaVuSans-30" x="127.246094"/>
       <use xlink:href="#DejaVuSans-30" x="190.869141"/>
      </g>
     </g>
    </g>
    <g id="text_7">
     <!-- Epochs -->
     <g transform="translate(165.365625 268.036562) scale(0.1 -0.1)">
      <defs>
       <path id="DejaVuSans-45" d="M 628 4666 
L 3578 4666 
L 3578 4134 
L 1259 4134 
L 1259 2753 
L 3481 2753 
L 3481 2222 
L 1259 2222 
L 1259 531 
L 3634 531 
L 3634 0 
L 628 0 
L 628 4666 
z
" transform="scale(0.015625)"/>
       <path id="DejaVuSans-70" d="M 1159 525 
L 1159 -1331 
L 581 -1331 
L 581 3500 
L 1159 3500 
L 1159 2969 
Q 1341 3281 1617 3432 
Q 1894 3584 2278 3584 
Q 2916 3584 3314 3078 
Q 3713 2572 3713 1747 
Q 3713 922 3314 415 
Q 2916 -91 2278 -91 
Q 1894 -91 1617 61 
Q 1341 213 1159 525 
z
M 3116 1747 
Q 3116 2381 2855 2742 
Q 2594 3103 2138 3103 
Q 1681 3103 1420 2742 
Q 1159 2381 1159 1747 
Q 1159 1113 1420 752 
Q 1681 391 2138 391 
Q 2594 391 2855 752 
Q 3116 1113 3116 1747 
z
" transform="scale(0.015625)"/>
       <path id="DejaVuSans-6f" d="M 1959 3097 
Q 1497 3097 1228 2736 
Q 959 2375 959 1747 
Q 959 1119 1226 758 
Q 1494 397 1959 397 
Q 2419 397 2687 759 
Q 2956 1122 2956 1747 
Q 2956 2369 2687 2733 
Q 2419 3097 1959 3097 
z
M 1959 3584 
Q 2709 3584 3137 3096 
Q 3566 2609 3566 1747 
Q 3566 888 3137 398 
Q 2709 -91 1959 -91 
Q 1206 -91 779 398 
Q 353 888 353 1747 
Q 353 2609 779 3096 
Q 1206 3584 1959 3584 
z
" transform="scale(0.015625)"/>
       <path id="DejaVuSans-63" d="M 3122 3366 
L 3122 2828 
Q 2878 2963 2633 3030 
Q 2388 3097 2138 3097 
Q 1578 3097 1268 2742 
Q 959 2388 959 1747 
Q 959 1106 1268 751 
Q 1578 397 2138 397 
Q 2388 397 2633 464 
Q 2878 531 3122 666 
L 3122 134 
Q 2881 22 2623 -34 
Q 2366 -91 2075 -91 
Q 1284 -91 818 406 
Q 353 903 353 1747 
Q 353 2603 823 3093 
Q 1294 3584 2113 3584 
Q 2378 3584 2631 3529 
Q 2884 3475 3122 3366 
z
" transform="scale(0.015625)"/>
       <path id="DejaVuSans-68" d="M 3513 2113 
L 3513 0 
L 2938 0 
L 2938 2094 
Q 2938 2591 2744 2837 
Q 2550 3084 2163 3084 
Q 1697 3084 1428 2787 
Q 1159 2491 1159 1978 
L 1159 0 
L 581 0 
L 581 4863 
L 1159 4863 
L 1159 2956 
Q 1366 3272 1645 3428 
Q 1925 3584 2291 3584 
Q 2894 3584 3203 3211 
Q 3513 2838 3513 2113 
z
" transform="scale(0.015625)"/>
       <path id="DejaVuSans-73" d="M 2834 3397 
L 2834 2853 
Q 2591 2978 2328 3040 
Q 2066 3103 1784 3103 
Q 1356 3103 1142 2972 
Q 928 2841 928 2578 
Q 928 2378 1081 2264 
Q 1234 2150 1697 2047 
L 1894 2003 
Q 2506 1872 2764 1633 
Q 3022 1394 3022 966 
Q 3022 478 2636 193 
Q 2250 -91 1575 -91 
Q 1294 -91 989 -36 
Q 684 19 347 128 
L 347 722 
Q 666 556 975 473 
Q 1284 391 1588 391 
Q 1994 391 2212 530 
Q 2431 669 2431 922 
Q 2431 1156 2273 1281 
Q 2116 1406 1581 1522 
L 1381 1569 
Q 847 1681 609 1914 
Q 372 2147 372 2553 
Q 372 3047 722 3315 
Q 1072 3584 1716 3584 
Q 2034 3584 2315 3537 
Q 2597 3491 2834 3397 
z
" transform="scale(0.015625)"/>
      </defs>
      <use xlink:href="#DejaVuSans-45"/>
      <use xlink:href="#DejaVuSans-70" x="63.183594"/>
      <use xlink:href="#DejaVuSans-6f" x="126.660156"/>
      <use xlink:href="#DejaVuSans-63" x="187.841797"/>
      <use xlink:href="#DejaVuSans-68" x="242.822266"/>
      <use xlink:href="#DejaVuSans-73" x="306.201172"/>
     </g>
    </g>
   </g>
   <g id="matplotlib.axis_2">
    <g id="ytick_1">
     <g id="line2d_13">
      <path d="M 43.78125 228.016824 
L 322.78125 228.016824 
" clip-path="url(#p36d73ce790)" style="fill: none; stroke-dasharray: 2.96,1.28; stroke-dashoffset: 0; stroke: #b0b0b0; stroke-opacity: 0.4; stroke-width: 0.8"/>
     </g>
     <g id="line2d_14">
      <defs>
       <path id="me9f380bceb" d="M 0 0 
L -3.5 0 
" style="stroke: #000000; stroke-width: 0.8"/>
      </defs>
      <g>
       <use xlink:href="#me9f380bceb" x="43.78125" y="228.016824" style="stroke: #000000; stroke-width: 0.8"/>
      </g>
     </g>
     <g id="text_8">
      <!-- 0.5 -->
      <g transform="translate(20.878125 231.816043) scale(0.1 -0.1)">
       <defs>
        <path id="DejaVuSans-2e" d="M 684 794 
L 1344 794 
L 1344 0 
L 684 0 
L 684 794 
z
" transform="scale(0.015625)"/>
        <path id="DejaVuSans-35" d="M 691 4666 
L 3169 4666 
L 3169 4134 
L 1269 4134 
L 1269 2991 
Q 1406 3038 1543 3061 
Q 1681 3084 1819 3084 
Q 2600 3084 3056 2656 
Q 3513 2228 3513 1497 
Q 3513 744 3044 326 
Q 2575 -91 1722 -91 
Q 1428 -91 1123 -41 
Q 819 9 494 109 
L 494 744 
Q 775 591 1075 516 
Q 1375 441 1709 441 
Q 2250 441 2565 725 
Q 2881 1009 2881 1497 
Q 2881 1984 2565 2268 
Q 2250 2553 1709 2553 
Q 1456 2553 1204 2497 
Q 953 2441 691 2322 
L 691 4666 
z
" transform="scale(0.015625)"/>
       </defs>
       <use xlink:href="#DejaVuSans-30"/>
       <use xlink:href="#DejaVuSans-2e" x="63.623047"/>
       <use xlink:href="#DejaVuSans-35" x="95.410156"/>
      </g>
     </g>
    </g>
    <g id="ytick_2">
     <g id="line2d_15">
      <path d="M 43.78125 189.404793 
L 322.78125 189.404793 
" clip-path="url(#p36d73ce790)" style="fill: none; stroke-dasharray: 2.96,1.28; stroke-dashoffset: 0; stroke: #b0b0b0; stroke-opacity: 0.4; stroke-width: 0.8"/>
     </g>
     <g id="line2d_16">
      <g>
       <use xlink:href="#me9f380bceb" x="43.78125" y="189.404793" style="stroke: #000000; stroke-width: 0.8"/>
      </g>
     </g>
     <g id="text_9">
      <!-- 0.6 -->
      <g transform="translate(20.878125 193.204011) scale(0.1 -0.1)">
       <use xlink:href="#DejaVuSans-30"/>
       <use xlink:href="#DejaVuSans-2e" x="63.623047"/>
       <use xlink:href="#DejaVuSans-36" x="95.410156"/>
      </g>
     </g>
    </g>
    <g id="ytick_3">
     <g id="line2d_17">
      <path d="M 43.78125 150.792762 
L 322.78125 150.792762 
" clip-path="url(#p36d73ce790)" style="fill: none; stroke-dasharray: 2.96,1.28; stroke-dashoffset: 0; stroke: #b0b0b0; stroke-opacity: 0.4; stroke-width: 0.8"/>
     </g>
     <g id="line2d_18">
      <g>
       <use xlink:href="#me9f380bceb" x="43.78125" y="150.792762" style="stroke: #000000; stroke-width: 0.8"/>
      </g>
     </g>
     <g id="text_10">
      <!-- 0.7 -->
      <g transform="translate(20.878125 154.59198) scale(0.1 -0.1)">
       <defs>
        <path id="DejaVuSans-37" d="M 525 4666 
L 3525 4666 
L 3525 4397 
L 1831 0 
L 1172 0 
L 2766 4134 
L 525 4134 
L 525 4666 
z
" transform="scale(0.015625)"/>
       </defs>
       <use xlink:href="#DejaVuSans-30"/>
       <use xlink:href="#DejaVuSans-2e" x="63.623047"/>
       <use xlink:href="#DejaVuSans-37" x="95.410156"/>
      </g>
     </g>
    </g>
    <g id="ytick_4">
     <g id="line2d_19">
      <path d="M 43.78125 112.18073 
L 322.78125 112.18073 
" clip-path="url(#p36d73ce790)" style="fill: none; stroke-dasharray: 2.96,1.28; stroke-dashoffset: 0; stroke: #b0b0b0; stroke-opacity: 0.4; stroke-width: 0.8"/>
     </g>
     <g id="line2d_20">
      <g>
       <use xlink:href="#me9f380bceb" x="43.78125" y="112.18073" style="stroke: #000000; stroke-width: 0.8"/>
      </g>
     </g>
     <g id="text_11">
      <!-- 0.8 -->
      <g transform="translate(20.878125 115.979949) scale(0.1 -0.1)">
       <use xlink:href="#DejaVuSans-30"/>
       <use xlink:href="#DejaVuSans-2e" x="63.623047"/>
       <use xlink:href="#DejaVuSans-38" x="95.410156"/>
      </g>
     </g>
    </g>
    <g id="ytick_5">
     <g id="line2d_21">
      <path d="M 43.78125 73.568699 
L 322.78125 73.568699 
" clip-path="url(#p36d73ce790)" style="fill: none; stroke-dasharray: 2.96,1.28; stroke-dashoffset: 0; stroke: #b0b0b0; stroke-opacity: 0.4; stroke-width: 0.8"/>
     </g>
     <g id="line2d_22">
      <g>
       <use xlink:href="#me9f380bceb" x="43.78125" y="73.568699" style="stroke: #000000; stroke-width: 0.8"/>
      </g>
     </g>
     <g id="text_12">
      <!-- 0.9 -->
      <g transform="translate(20.878125 77.367918) scale(0.1 -0.1)">
       <defs>
        <path id="DejaVuSans-39" d="M 703 97 
L 703 672 
Q 941 559 1184 500 
Q 1428 441 1663 441 
Q 2288 441 2617 861 
Q 2947 1281 2994 2138 
Q 2813 1869 2534 1725 
Q 2256 1581 1919 1581 
Q 1219 1581 811 2004 
Q 403 2428 403 3163 
Q 403 3881 828 4315 
Q 1253 4750 1959 4750 
Q 2769 4750 3195 4129 
Q 3622 3509 3622 2328 
Q 3622 1225 3098 567 
Q 2575 -91 1691 -91 
Q 1453 -91 1209 -44 
Q 966 3 703 97 
z
M 1959 2075 
Q 2384 2075 2632 2365 
Q 2881 2656 2881 3163 
Q 2881 3666 2632 3958 
Q 2384 4250 1959 4250 
Q 1534 4250 1286 3958 
Q 1038 3666 1038 3163 
Q 1038 2656 1286 2365 
Q 1534 2075 1959 2075 
z
" transform="scale(0.015625)"/>
       </defs>
       <use xlink:href="#DejaVuSans-30"/>
       <use xlink:href="#DejaVuSans-2e" x="63.623047"/>
       <use xlink:href="#DejaVuSans-39" x="95.410156"/>
      </g>
     </g>
    </g>
    <g id="text_13">
     <!-- Accuracy -->
     <g transform="translate(14.798438 161.356125) rotate(-90) scale(0.1 -0.1)">
      <defs>
       <path id="DejaVuSans-41" d="M 2188 4044 
L 1331 1722 
L 3047 1722 
L 2188 4044 
z
M 1831 4666 
L 2547 4666 
L 4325 0 
L 3669 0 
L 3244 1197 
L 1141 1197 
L 716 0 
L 50 0 
L 1831 4666 
z
" transform="scale(0.015625)"/>
       <path id="DejaVuSans-75" d="M 544 1381 
L 544 3500 
L 1119 3500 
L 1119 1403 
Q 1119 906 1312 657 
Q 1506 409 1894 409 
Q 2359 409 2629 706 
Q 2900 1003 2900 1516 
L 2900 3500 
L 3475 3500 
L 3475 0 
L 2900 0 
L 2900 538 
Q 2691 219 2414 64 
Q 2138 -91 1772 -91 
Q 1169 -91 856 284 
Q 544 659 544 1381 
z
M 1991 3584 
L 1991 3584 
z
" transform="scale(0.015625)"/>
       <path id="DejaVuSans-72" d="M 2631 2963 
Q 2534 3019 2420 3045 
Q 2306 3072 2169 3072 
Q 1681 3072 1420 2755 
Q 1159 2438 1159 1844 
L 1159 0 
L 581 0 
L 581 3500 
L 1159 3500 
L 1159 2956 
Q 1341 3275 1631 3429 
Q 1922 3584 2338 3584 
Q 2397 3584 2469 3576 
Q 2541 3569 2628 3553 
L 2631 2963 
z
" transform="scale(0.015625)"/>
       <path id="DejaVuSans-61" d="M 2194 1759 
Q 1497 1759 1228 1600 
Q 959 1441 959 1056 
Q 959 750 1161 570 
Q 1363 391 1709 391 
Q 2188 391 2477 730 
Q 2766 1069 2766 1631 
L 2766 1759 
L 2194 1759 
z
M 3341 1997 
L 3341 0 
L 2766 0 
L 2766 531 
Q 2569 213 2275 61 
Q 1981 -91 1556 -91 
Q 1019 -91 701 211 
Q 384 513 384 1019 
Q 384 1609 779 1909 
Q 1175 2209 1959 2209 
L 2766 2209 
L 2766 2266 
Q 2766 2663 2505 2880 
Q 2244 3097 1772 3097 
Q 1472 3097 1187 3025 
Q 903 2953 641 2809 
L 641 3341 
Q 956 3463 1253 3523 
Q 1550 3584 1831 3584 
Q 2591 3584 2966 3190 
Q 3341 2797 3341 1997 
z
" transform="scale(0.015625)"/>
       <path id="DejaVuSans-79" d="M 2059 -325 
Q 1816 -950 1584 -1140 
Q 1353 -1331 966 -1331 
L 506 -1331 
L 506 -850 
L 844 -850 
Q 1081 -850 1212 -737 
Q 1344 -625 1503 -206 
L 1606 56 
L 191 3500 
L 800 3500 
L 1894 763 
L 2988 3500 
L 3597 3500 
L 2059 -325 
z
" transform="scale(0.015625)"/>
      </defs>
      <use xlink:href="#DejaVuSans-41"/>
      <use xlink:href="#DejaVuSans-63" x="66.658203"/>
      <use xlink:href="#DejaVuSans-63" x="121.638672"/>
      <use xlink:href="#DejaVuSans-75" x="176.619141"/>
      <use xlink:href="#DejaVuSans-72" x="239.998047"/>
      <use xlink:href="#DejaVuSans-61" x="281.111328"/>
      <use xlink:href="#DejaVuSans-63" x="342.390625"/>
      <use xlink:href="#DejaVuSans-79" x="397.371094"/>
     </g>
    </g>
   </g>
   <g id="line2d_23">
    <path d="M 56.463068 229.214605 
L 56.716958 226.056812 
L 57.98641 133.065637 
L 58.2403 121.95897 
L 58.49419 118.474519 
L 58.74808 118.14785 
L 59.255861 110.743397 
L 59.509751 111.070066 
L 59.763641 107.476733 
L 60.017532 105.952271 
L 60.779202 92.667828 
L 61.033093 92.450041 
L 61.286983 90.707815 
L 61.540873 93.865598 
L 61.794764 91.252271 
L 62.048654 86.461145 
L 62.302544 86.461145 
L 62.556434 88.094489 
L 62.810325 87.550033 
L 63.064215 85.154493 
L 63.318105 85.698926 
L 63.571995 87.441151 
L 63.825886 85.372257 
L 64.079776 86.57005 
L 64.333666 82.976717 
L 64.841447 84.827824 
L 65.095337 81.887806 
L 65.349227 84.718919 
L 65.603117 80.798918 
L 65.857008 80.363367 
L 66.110898 81.887806 
L 66.364788 80.690036 
L 66.618678 81.234491 
L 67.126459 78.076709 
L 67.380349 78.838928 
L 67.634239 80.254485 
L 67.88813 78.51226 
L 68.14202 78.076709 
L 68.39591 78.838928 
L 68.903691 75.572264 
L 69.411471 78.730047 
L 69.919252 76.225602 
L 70.173142 77.641135 
L 70.427032 78.076709 
L 70.680922 79.492266 
L 70.934813 78.185591 
L 71.188703 73.721134 
L 71.442593 78.838928 
L 71.696483 76.334484 
L 71.950374 78.076709 
L 72.458154 75.572264 
L 72.712044 75.136691 
L 72.965935 75.354477 
L 73.219825 77.423372 
L 73.473715 73.938921 
L 73.727605 74.156707 
L 73.981496 81.016705 
L 74.235386 74.918927 
L 74.489276 76.443365 
L 74.743166 73.285583 
L 74.997057 74.047803 
L 75.250947 75.245596 
L 75.504837 73.067819 
L 75.758727 72.850033 
L 76.012618 68.603362 
L 76.266508 73.612252 
L 76.520398 69.69225 
L 76.774288 72.196695 
L 77.028179 71.543358 
L 77.282069 68.167812 
L 77.535959 68.821149 
L 77.78985 68.930031 
L 78.04374 68.058907 
L 78.29763 70.563375 
L 78.55152 68.712244 
L 78.805411 67.841143 
L 79.059301 67.841143 
L 79.313191 68.930031 
L 79.567081 66.970019 
L 79.820972 69.583368 
L 80.074862 66.970019 
L 80.328752 67.514474 
L 80.582642 67.187805 
L 80.836533 67.296687 
L 81.090423 68.276693 
L 81.344313 67.296687 
L 81.598203 67.841143 
L 81.852094 66.861137 
L 82.105984 66.970019 
L 82.359874 66.534468 
L 82.613764 67.187805 
L 83.121545 63.921141 
L 83.375435 66.425586 
L 83.883216 68.385575 
L 84.137106 68.058907 
L 84.390996 63.921141 
L 84.644886 68.385575 
L 84.898777 67.405592 
L 85.152667 67.187805 
L 85.406557 65.772249 
L 85.660447 67.187805 
L 85.914338 66.425586 
L 86.168228 67.841143 
L 86.422118 67.732261 
L 86.676008 63.050017 
L 87.437679 67.732261 
L 87.691569 66.861137 
L 87.94546 66.425586 
L 88.19935 66.425586 
L 88.70713 62.178916 
L 88.961021 66.207799 
L 89.214911 65.44558 
L 89.468801 68.385575 
L 89.722691 67.187805 
L 89.976582 63.158922 
L 90.230472 64.465574 
L 90.484362 63.703354 
L 90.738252 60.110021 
L 90.992143 62.723348 
L 91.246033 62.287798 
L 91.499923 60.43669 
L 91.753813 61.307791 
L 92.007704 59.892235 
L 92.261594 62.178916 
L 92.515484 63.050017 
L 92.769374 61.307791 
L 93.023265 61.307791 
L 93.277155 61.525578 
L 93.531045 59.674471 
L 93.784936 59.674471 
L 94.038826 63.921141 
L 94.292716 61.743365 
L 94.546606 61.307791 
L 94.800497 59.783353 
L 95.054387 60.218903 
L 95.308277 59.565566 
L 95.562167 59.347802 
L 95.816058 60.110021 
L 96.069948 57.932245 
L 96.323838 59.021133 
L 96.577728 58.803347 
L 96.831619 61.525578 
L 97.085509 57.496695 
L 97.339399 57.932245 
L 97.593289 60.00114 
L 97.84718 59.021133 
L 98.10107 59.347802 
L 98.35496 61.090028 
L 98.60885 57.932245 
L 98.862741 59.456684 
L 99.116631 56.734452 
L 99.624411 59.347802 
L 99.878302 57.061121 
L 100.132192 58.694465 
L 100.386082 58.912251 
L 100.639972 58.367796 
L 100.893863 60.218903 
L 101.147753 56.734452 
L 101.401643 55.863351 
L 101.655533 57.38779 
L 101.909424 58.150009 
L 102.163314 57.932245 
L 102.417204 57.932245 
L 102.671094 60.00114 
L 102.924985 54.883345 
L 103.178875 54.230007 
L 103.432765 57.170026 
L 103.686655 55.536682 
L 103.940546 55.754469 
L 104.194436 54.447794 
L 104.448326 58.367796 
L 104.702216 55.645564 
L 104.956107 54.774463 
L 105.209997 55.645564 
L 105.717777 52.596687 
L 105.971668 56.081138 
L 106.225558 55.101132 
L 106.479448 57.278908 
L 106.733338 56.407807 
L 106.987229 58.258914 
L 107.241119 54.556676 
L 107.495009 54.012244 
L 108.00279 55.754469 
L 108.25668 56.19002 
L 108.51057 56.081138 
L 108.76446 56.407807 
L 109.018351 54.121126 
L 109.272241 54.447794 
L 109.526131 54.121126 
L 110.033912 54.774463 
L 110.287802 55.972233 
L 110.541692 53.141119 
L 110.795583 53.358906 
L 111.049473 54.99225 
L 111.303363 55.536682 
L 111.557253 54.447794 
L 111.811144 54.447794 
L 112.065034 54.230007 
L 112.318924 54.556676 
L 112.572814 56.19002 
L 112.826705 56.734452 
L 113.080595 53.467788 
L 113.334485 55.101132 
L 113.588375 54.774463 
L 113.842266 52.270018 
L 114.096156 54.883345 
L 114.350046 54.665581 
L 114.603936 53.903339 
L 114.857827 55.863351 
L 115.111717 53.576693 
L 115.365607 54.230007 
L 115.619497 53.250024 
L 115.873388 54.012244 
L 116.127278 52.923356 
L 116.381168 49.983337 
L 116.635058 51.18113 
L 116.888949 53.032237 
L 117.142839 51.943349 
L 117.396729 55.318896 
L 117.650619 52.487782 
L 117.90451 52.270018 
L 118.1584 52.814451 
L 118.41229 49.221118 
L 118.66618 54.230007 
L 118.920071 55.318896 
L 119.173961 51.507799 
L 119.427851 52.923356 
L 119.681741 51.507799 
L 120.189522 54.338912 
L 120.443412 52.270018 
L 120.697302 52.596687 
L 120.951193 50.963343 
L 121.205083 54.883345 
L 121.458973 51.507799 
L 121.712863 52.3789 
L 121.966754 52.052231 
L 122.220644 52.270018 
L 122.474534 53.032237 
L 122.728424 49.983337 
L 122.982315 51.943349 
L 123.236205 50.854461 
L 123.490095 51.398894 
L 123.997876 53.250024 
L 124.251766 52.3789 
L 124.505656 52.705569 
L 124.759546 50.418911 
L 125.013437 51.834468 
L 125.267327 51.616681 
L 125.521217 52.705569 
L 125.775107 55.972233 
L 126.028998 54.121126 
L 126.282888 54.556676 
L 126.536778 50.310006 
L 126.790669 54.338912 
L 127.044559 49.983337 
L 127.298449 55.318896 
L 127.80623 51.725563 
L 128.06012 54.121126 
L 128.31401 50.527793 
L 128.5679 50.963343 
L 128.821791 50.636675 
L 129.075681 51.616681 
L 129.329571 49.656668 
L 129.583461 50.745579 
L 130.091242 51.072225 
L 130.345132 54.338912 
L 130.599022 50.636675 
L 131.360693 50.418911 
L 131.614583 50.636675 
L 131.868474 49.983337 
L 132.122364 51.072225 
L 132.376254 48.676685 
L 132.630144 50.963343 
L 132.884035 51.834468 
L 133.391815 50.636675 
L 133.645705 51.072225 
L 133.899596 50.963343 
L 134.153486 48.241135 
L 134.407376 52.923356 
L 134.661266 51.616681 
L 134.915157 51.290012 
L 135.169047 49.112236 
L 135.422937 53.250024 
L 135.676827 52.814451 
L 135.930718 51.507799 
L 136.184608 51.507799 
L 136.438498 52.923356 
L 136.692388 51.18113 
L 136.946279 51.398894 
L 137.200169 52.814451 
L 137.454059 51.072225 
L 137.707949 50.854461 
L 137.96184 49.656668 
L 138.21573 51.18113 
L 138.46962 49.656668 
L 138.72351 49.003354 
L 139.231291 52.487782 
L 139.739071 49.656668 
L 139.992962 51.507799 
L 140.246852 52.270018 
L 140.754632 47.805561 
L 141.008523 50.854461 
L 141.262413 49.983337 
L 141.516303 50.636675 
L 141.770193 49.656668 
L 142.277974 52.052231 
L 142.531864 52.705569 
L 142.785755 49.765573 
L 143.293535 53.358906 
L 143.801316 50.745579 
L 144.055206 48.350017 
L 144.309096 50.854461 
L 144.562986 51.290012 
L 144.816877 50.527793 
L 145.324657 50.636675 
L 145.578547 48.458898 
L 145.832438 49.330023 
L 146.086328 48.56778 
L 146.340218 49.765573 
L 146.594108 47.914466 
L 146.847999 51.943349 
L 147.101889 52.705569 
L 147.355779 50.527793 
L 147.609669 50.310006 
L 147.86356 49.874455 
L 148.11745 51.072225 
L 148.37134 50.745579 
L 148.62523 49.221118 
L 148.879121 49.765573 
L 149.133011 49.438905 
L 149.386901 50.418911 
L 149.640791 49.874455 
L 149.894682 48.894449 
L 150.148572 48.676685 
L 150.402462 50.745579 
L 150.656352 49.656668 
L 150.910243 51.072225 
L 151.164133 49.656668 
L 151.418023 50.201124 
L 151.671913 49.656668 
L 151.925804 49.656668 
L 152.179694 48.241135 
L 152.433584 49.330023 
L 152.687474 51.398894 
L 152.941365 49.330023 
L 153.195255 52.705569 
L 153.449145 51.507799 
L 153.703035 51.616681 
L 153.956926 48.894449 
L 154.210816 49.547786 
L 154.464706 50.636675 
L 154.718596 49.765573 
L 154.972487 49.765573 
L 155.226377 49.221118 
L 155.480267 50.745579 
L 155.734157 49.874455 
L 155.988048 50.963343 
L 156.241938 50.201124 
L 156.495828 50.963343 
L 156.749718 50.201124 
L 157.003609 49.983337 
L 157.257499 50.310006 
L 157.765279 49.983337 
L 158.01917 50.310006 
L 158.52695 51.725563 
L 158.78084 49.547786 
L 159.034731 52.705569 
L 159.542511 49.221118 
L 159.796402 49.983337 
L 160.050292 48.785567 
L 160.558072 50.527793 
L 160.811963 50.201124 
L 161.065853 52.270018 
L 161.319743 49.874455 
L 161.827524 50.310006 
L 162.081414 47.914466 
L 162.335304 50.636675 
L 162.589194 50.418911 
L 162.843085 48.894449 
L 163.096975 53.467788 
L 163.350865 50.201124 
L 163.604755 48.56778 
L 163.858646 50.418911 
L 164.112536 50.636675 
L 164.366426 50.092242 
L 164.874207 51.072225 
L 165.381987 50.092242 
L 165.635877 52.052231 
L 165.889768 48.350017 
L 166.143658 49.221118 
L 166.397548 50.527793 
L 166.651438 49.003354 
L 166.905329 51.943349 
L 167.159219 49.547786 
L 167.413109 49.221118 
L 167.666999 50.201124 
L 167.92089 49.003354 
L 168.17478 50.636675 
L 168.42867 49.330023 
L 168.68256 50.527793 
L 168.936451 49.983337 
L 169.190341 48.13223 
L 169.444231 50.527793 
L 169.698121 49.765573 
L 170.205902 50.201124 
L 170.459792 51.290012 
L 170.713682 51.072225 
L 170.967573 48.56778 
L 171.221463 50.527793 
L 171.729243 49.874455 
L 171.983134 48.023348 
L 172.237024 48.13223 
L 172.490914 52.161136 
L 172.744804 51.943349 
L 172.998695 48.56778 
L 173.252585 50.745579 
L 173.506475 51.507799 
L 173.760365 51.616681 
L 174.268146 50.418911 
L 174.522036 50.310006 
L 174.775926 52.052231 
L 175.029817 50.636675 
L 175.283707 50.963343 
L 175.537597 52.270018 
L 176.299268 49.221118 
L 176.553158 48.56778 
L 176.807049 51.725563 
L 177.060939 49.874455 
L 177.314829 52.270018 
L 177.568719 50.963343 
L 177.82261 51.834468 
L 178.0765 48.894449 
L 178.33039 50.310006 
L 178.58428 51.072225 
L 178.838171 51.18113 
L 179.092061 47.043342 
L 179.345951 50.636675 
L 179.599841 50.201124 
L 179.853732 50.963343 
L 180.107622 50.745579 
L 180.615402 48.350017 
L 180.869293 51.072225 
L 181.123183 49.656668 
L 181.377073 52.270018 
L 181.630963 50.527793 
L 181.884854 49.656668 
L 182.138744 50.963343 
L 182.392634 50.636675 
L 182.646524 48.458898 
L 182.900415 51.507799 
L 183.154305 48.676685 
L 183.408195 49.003354 
L 183.915976 52.052231 
L 184.423756 49.003354 
L 184.677646 50.527793 
L 184.931537 51.18113 
L 185.185427 51.18113 
L 185.439317 50.201124 
L 185.947098 51.943349 
L 186.200988 49.983337 
L 186.454878 49.112236 
L 186.708768 48.785567 
L 186.962659 51.18113 
L 187.216549 51.290012 
L 187.470439 48.350017 
L 187.724329 46.716673 
L 187.97822 49.547786 
L 188.23211 50.201124 
L 188.486 48.023348 
L 188.73989 49.547786 
L 188.993781 48.13223 
L 189.247671 50.636675 
L 189.755451 49.438905 
L 190.009342 51.072225 
L 190.263232 49.765573 
L 190.771012 48.785567 
L 191.024903 50.636675 
L 191.278793 48.241135 
L 191.532683 51.507799 
L 191.786574 50.310006 
L 192.040464 50.310006 
L 192.294354 51.072225 
L 192.548244 49.221118 
L 192.802135 49.438905 
L 193.056025 47.587797 
L 193.309915 51.072225 
L 193.563805 51.18113 
L 193.817696 47.478892 
L 194.071586 50.636675 
L 194.325476 49.221118 
L 194.579366 50.745579 
L 194.833257 47.37001 
L 195.594927 50.310006 
L 195.848818 49.765573 
L 196.102708 50.854461 
L 196.356598 49.112236 
L 196.610488 51.072225 
L 196.864379 49.656668 
L 197.372159 50.418911 
L 197.626049 48.785567 
L 197.87994 48.785567 
L 198.13383 49.221118 
L 198.38772 49.112236 
L 198.64161 50.636675 
L 198.895501 51.18113 
L 199.149391 49.874455 
L 199.403281 51.507799 
L 199.657171 48.458898 
L 199.911062 47.696679 
L 200.164952 50.527793 
L 200.418842 50.201124 
L 200.672732 51.398894 
L 200.926623 50.418911 
L 201.180513 48.676685 
L 201.434403 49.003354 
L 201.688293 49.656668 
L 201.942184 50.745579 
L 202.196074 48.676685 
L 202.449964 48.894449 
L 202.703854 48.785567 
L 202.957745 47.261128 
L 203.211635 49.547786 
L 203.465525 48.241135 
L 203.719415 48.350017 
L 204.481086 50.201124 
L 204.988867 47.587797 
L 205.242757 48.023348 
L 205.496647 50.854461 
L 205.750537 49.112236 
L 206.004428 48.785567 
L 206.258318 48.894449 
L 206.512208 49.330023 
L 206.766098 50.745579 
L 207.019989 49.003354 
L 207.273879 48.785567 
L 207.527769 50.201124 
L 207.78166 47.043342 
L 208.28944 49.656668 
L 208.54333 47.805561 
L 209.051111 49.330023 
L 209.305001 48.241135 
L 209.558891 49.438905 
L 209.812782 51.616681 
L 210.066672 49.003354 
L 210.320562 50.854461 
L 210.574452 48.350017 
L 210.828343 50.310006 
L 211.082233 50.092242 
L 211.336123 50.527793 
L 211.590013 49.112236 
L 211.843904 48.56778 
L 212.097794 48.350017 
L 212.351684 50.636675 
L 212.605574 49.003354 
L 212.859465 49.983337 
L 213.113355 48.894449 
L 213.367245 47.261128 
L 213.621135 51.18113 
L 213.875026 50.201124 
L 214.128916 49.983337 
L 214.382806 50.636675 
L 214.636696 50.310006 
L 214.890587 51.290012 
L 215.144477 50.745579 
L 215.398367 49.547786 
L 215.652257 49.438905 
L 215.906148 51.398894 
L 216.160038 50.636675 
L 216.413928 49.438905 
L 216.667818 49.112236 
L 216.921709 48.13223 
L 217.175599 51.507799 
L 217.429489 49.438905 
L 217.93727 50.636675 
L 218.19116 50.092242 
L 218.44505 48.458898 
L 218.69894 51.616681 
L 218.952831 50.092242 
L 219.206721 49.765573 
L 219.460611 49.221118 
L 219.714501 50.636675 
L 219.968392 47.261128 
L 220.222282 49.438905 
L 220.730062 47.914466 
L 221.237843 50.854461 
L 221.491733 49.438905 
L 221.745623 48.785567 
L 222.253404 49.874455 
L 222.507294 49.003354 
L 222.761184 49.112236 
L 223.015075 47.587797 
L 223.268965 49.003354 
L 223.522855 52.596687 
L 223.776745 48.350017 
L 224.284526 50.963343 
L 224.538416 51.290012 
L 224.792307 50.854461 
L 225.046197 51.398894 
L 225.300087 49.547786 
L 225.553977 48.894449 
L 225.807868 50.418911 
L 226.061758 50.092242 
L 226.315648 49.003354 
L 226.569538 50.201124 
L 226.823429 49.874455 
L 227.077319 50.745579 
L 227.331209 50.092242 
L 227.585099 50.201124 
L 227.83899 47.696679 
L 228.09288 49.547786 
L 228.34677 49.547786 
L 228.60066 50.745579 
L 228.854551 47.805561 
L 229.108441 49.874455 
L 229.870112 49.765573 
L 230.124002 49.547786 
L 230.377892 50.636675 
L 230.631782 47.261128 
L 230.885673 47.805561 
L 231.393453 51.398894 
L 231.901234 51.072225 
L 232.155124 50.854461 
L 232.409014 49.983337 
L 232.662904 49.656668 
L 232.916795 47.478892 
L 233.424575 51.616681 
L 233.678465 46.716673 
L 234.186246 51.616681 
L 234.440136 49.112236 
L 234.947917 51.18113 
L 235.201807 51.072225 
L 235.455697 48.785567 
L 235.709587 50.092242 
L 236.217368 48.785567 
L 236.471258 51.072225 
L 236.725148 51.507799 
L 236.979039 49.547786 
L 237.232929 50.092242 
L 237.486819 49.656668 
L 237.740709 50.418911 
L 237.9946 48.894449 
L 238.24849 49.112236 
L 238.50238 47.261128 
L 238.75627 50.310006 
L 239.010161 49.547786 
L 239.264051 48.13223 
L 239.517941 48.676685 
L 239.771831 48.676685 
L 240.025722 48.894449 
L 240.279612 50.092242 
L 240.533502 49.765573 
L 241.295173 49.765573 
L 241.549063 47.37001 
L 241.802954 51.725563 
L 242.056844 49.112236 
L 242.310734 51.18113 
L 242.564624 50.092242 
L 242.818515 47.587797 
L 243.072405 48.676685 
L 243.326295 48.56778 
L 243.580185 50.527793 
L 243.834076 48.023348 
L 244.087966 48.894449 
L 244.341856 48.56778 
L 244.849637 49.547786 
L 245.103527 48.023348 
L 245.611307 51.943349 
L 245.865198 49.765573 
L 246.119088 49.003354 
L 246.372978 48.894449 
L 246.626868 48.023348 
L 246.880759 51.072225 
L 247.134649 49.547786 
L 247.388539 50.201124 
L 247.642429 49.547786 
L 247.89632 49.221118 
L 248.15021 48.350017 
L 248.4041 49.547786 
L 248.65799 49.438905 
L 248.911881 50.745579 
L 249.165771 49.765573 
L 249.419661 50.310006 
L 249.673551 49.112236 
L 249.927442 50.092242 
L 250.181332 48.676685 
L 250.435222 49.874455 
L 250.689112 49.656668 
L 250.943003 48.894449 
L 251.196893 49.003354 
L 251.450783 48.458898 
L 251.704673 52.596687 
L 251.958564 48.13223 
L 252.212454 48.241135 
L 252.466344 50.310006 
L 252.720234 49.874455 
L 252.974125 49.112236 
L 253.228015 50.418911 
L 253.481905 46.498909 
L 253.989686 48.458898 
L 254.497466 51.072225 
L 254.751356 48.785567 
L 255.005247 48.023348 
L 255.259137 50.201124 
L 255.513027 49.003354 
L 255.766917 48.894449 
L 256.020808 49.003354 
L 256.274698 48.894449 
L 256.782479 50.092242 
L 257.290259 47.914466 
L 257.544149 48.785567 
L 257.79804 50.201124 
L 258.30582 47.261128 
L 258.55971 48.676685 
L 258.813601 49.221118 
L 259.067491 49.221118 
L 259.321381 48.894449 
L 259.575271 50.854461 
L 259.829162 49.330023 
L 260.083052 51.507799 
L 260.336942 48.785567 
L 260.590832 50.636675 
L 260.844723 49.438905 
L 261.098613 48.894449 
L 261.352503 49.547786 
L 261.606393 52.596687 
L 261.860284 49.656668 
L 262.114174 50.201124 
L 262.368064 50.418911 
L 262.621954 49.003354 
L 262.875845 50.201124 
L 263.129735 49.983337 
L 263.383625 50.527793 
L 263.637515 48.894449 
L 263.891406 51.072225 
L 264.145296 48.458898 
L 264.399186 51.943349 
L 264.653076 48.894449 
L 264.906967 48.785567 
L 265.160857 49.330023 
L 265.414747 49.221118 
L 265.668637 50.636675 
L 265.922528 49.656668 
L 266.176418 51.072225 
L 266.430308 48.676685 
L 266.684198 49.221118 
L 266.938089 51.507799 
L 267.191979 49.983337 
L 267.445869 49.547786 
L 267.699759 50.636675 
L 267.95365 52.487782 
L 268.20754 49.221118 
L 268.46143 50.418911 
L 268.71532 48.56778 
L 268.969211 51.072225 
L 269.223101 48.785567 
L 269.476991 50.418911 
L 269.984772 48.676685 
L 270.238662 48.458898 
L 270.492552 47.478892 
L 270.746442 49.221118 
L 271.254223 50.745579 
L 271.508113 47.696679 
L 271.762003 47.043342 
L 272.015894 49.112236 
L 272.269784 48.56778 
L 272.777564 50.201124 
L 273.031455 47.914466 
L 273.539235 50.201124 
L 273.793126 52.3789 
L 274.047016 49.112236 
L 274.300906 50.310006 
L 274.554796 47.587797 
L 274.808687 48.56778 
L 275.062577 50.201124 
L 275.316467 50.092242 
L 275.570357 46.93446 
L 275.824248 50.310006 
L 276.078138 48.56778 
L 276.332028 49.112236 
L 276.585918 48.676685 
L 277.093699 52.814451 
L 277.347589 49.330023 
L 277.601479 52.705569 
L 277.85537 48.894449 
L 278.10926 50.527793 
L 278.36315 49.765573 
L 278.61704 47.587797 
L 278.870931 50.092242 
L 279.124821 50.418911 
L 279.378711 50.527793 
L 279.632601 50.092242 
L 280.394272 50.092242 
L 280.648162 47.914466 
L 280.902053 52.3789 
L 281.409833 50.310006 
L 281.663723 46.607791 
L 281.917614 48.676685 
L 282.171504 48.350017 
L 282.425394 50.418911 
L 282.933175 50.963343 
L 283.187065 47.478892 
L 283.440955 49.547786 
L 283.694845 49.765573 
L 283.948736 48.894449 
L 284.202626 49.656668 
L 284.710406 49.547786 
L 284.964297 51.507799 
L 285.472077 48.676685 
L 285.725967 49.438905 
L 285.979858 51.18113 
L 286.233748 50.527793 
L 286.741528 48.676685 
L 286.995419 49.112236 
L 287.249309 48.458898 
L 287.757089 50.201124 
L 288.01098 49.438905 
L 288.26487 49.221118 
L 288.51876 48.676685 
L 289.026541 51.834468 
L 289.280431 48.676685 
L 289.534321 49.221118 
L 289.788212 52.3789 
L 290.042102 48.56778 
L 290.295992 49.547786 
L 290.549882 49.330023 
L 290.803773 48.785567 
L 291.057663 50.418911 
L 291.311553 50.745579 
L 291.565443 50.201124 
L 291.819334 51.398894 
L 292.073224 49.221118 
L 292.327114 50.636675 
L 292.581004 49.438905 
L 292.834895 51.398894 
L 293.088785 49.221118 
L 293.342675 50.527793 
L 293.596565 49.330023 
L 294.104346 50.418911 
L 294.358236 50.527793 
L 294.612126 49.221118 
L 294.866017 51.398894 
L 295.119907 51.072225 
L 295.373797 49.003354 
L 295.627687 49.438905 
L 295.881578 47.805561 
L 296.135468 48.56778 
L 296.389358 48.350017 
L 296.643248 48.350017 
L 296.897139 49.112236 
L 297.151029 48.241135 
L 297.404919 49.438905 
L 297.658809 49.330023 
L 297.9127 47.696679 
L 298.16659 49.330023 
L 298.42048 50.092242 
L 298.67437 52.3789 
L 298.928261 51.18113 
L 299.436041 47.043342 
L 299.689931 49.330023 
L 299.943822 48.241135 
L 300.197712 49.003354 
L 300.451602 48.785567 
L 300.705492 51.943349 
L 300.959383 49.547786 
L 301.213273 51.18113 
L 301.467163 50.201124 
L 301.721053 50.092242 
L 301.974944 50.854461 
L 302.228834 50.310006 
L 302.482724 51.290012 
L 302.736614 47.914466 
L 302.990505 49.765573 
L 303.244395 49.983337 
L 303.498285 49.112236 
L 303.752175 47.37001 
L 304.006066 51.725563 
L 304.259956 50.201124 
L 304.513846 49.983337 
L 304.767736 49.221118 
L 305.021627 49.438905 
L 305.275517 50.201124 
L 305.529407 51.507799 
L 305.783298 48.56778 
L 306.037188 49.221118 
L 306.291078 48.458898 
L 306.544968 48.894449 
L 307.052749 51.290012 
L 307.306639 48.785567 
L 307.560529 48.785567 
L 307.81442 47.043342 
L 308.06831 49.221118 
L 308.3222 50.310006 
L 308.57609 48.894449 
L 308.829981 50.745579 
L 309.083871 48.894449 
L 309.337761 48.894449 
L 309.591651 49.438905 
L 309.845542 49.656668 
L 310.099432 49.221118 
L 310.099432 49.221118 
" clip-path="url(#p36d73ce790)" style="fill: none; stroke: #0000ff; stroke-width: 0.6; stroke-linecap: square"/>
   </g>
   <g id="line2d_24">
    <path d="M 56.463068 226.492661 
L 56.970849 189.404783 
L 57.224739 200.581968 
L 57.478629 222.93629 
L 57.732519 225.476568 
L 57.98641 226.492661 
L 58.2403 226.492661 
L 58.74808 120.309585 
L 59.001971 144.18807 
L 59.255861 213.537303 
L 59.509751 155.111219 
L 59.763641 155.619265 
L 60.017532 131.486746 
L 60.271422 147.236395 
L 60.525312 187.372574 
L 60.779202 167.812543 
L 61.033093 91.350566 
L 61.286983 121.071666 
L 61.794764 91.858613 
L 62.048654 192.199074 
L 62.302544 193.977271 
L 62.556434 189.404783 
L 62.810325 84.491835 
L 63.064215 101.257599 
L 63.318105 96.685112 
L 63.571995 124.882049 
L 63.825886 111.164633 
L 64.079776 119.547504 
L 64.333666 104.305901 
L 64.587556 116.753213 
L 64.841447 145.712232 
L 65.095337 140.885733 
L 65.349227 101.511611 
L 65.603117 219.379918 
L 65.857008 222.93629 
L 66.110898 86.270032 
L 66.364788 95.160949 
L 66.618678 109.386435 
L 66.872569 81.697544 
L 67.126459 115.991132 
L 67.380349 218.871872 
L 67.634239 174.417239 
L 67.88813 182.29204 
L 68.14202 89.826404 
L 68.39591 226.746696 
L 68.903691 95.923031 
L 69.157581 98.463309 
L 69.411471 102.527727 
L 69.665361 113.704888 
L 69.919252 196.517527 
L 70.173142 97.447193 
L 70.427032 133.010908 
L 70.680922 93.382775 
L 70.934813 184.578284 
L 71.188703 152.824975 
L 71.442593 221.666162 
L 71.696483 125.390119 
L 71.950374 225.984615 
L 72.204264 100.241483 
L 72.458154 99.225367 
L 72.712044 116.753213 
L 72.965935 217.601744 
L 73.219825 120.817631 
L 73.473715 188.896737 
L 73.727605 212.267175 
L 73.981496 83.221707 
L 74.235386 230.557091 
L 74.489276 166.28838 
L 74.743166 178.735669 
L 74.997057 216.585628 
L 75.250947 204.138339 
L 75.504837 102.527727 
L 75.758727 105.067983 
L 76.266508 81.697544 
L 76.774288 98.463309 
L 77.028179 81.697544 
L 77.282069 81.697544 
L 77.535959 86.778078 
L 77.78985 99.225367 
L 78.04374 78.141173 
L 78.29763 104.305901 
L 78.55152 145.458197 
L 78.805411 96.685112 
L 79.059301 110.148517 
L 79.313191 150.538731 
L 79.567081 101.765646 
L 79.820972 111.672679 
L 80.074862 86.270032 
L 80.328752 109.132401 
L 80.582642 80.681451 
L 80.836533 79.411301 
L 81.090423 83.475742 
L 81.344313 203.884304 
L 81.598203 153.587056 
L 81.852094 78.649219 
L 82.105984 90.33445 
L 82.359874 117.26126 
L 82.613764 83.729753 
L 82.867655 107.100192 
L 83.121545 88.302241 
L 83.375435 88.302241 
L 83.883216 141.139745 
L 84.137106 201.344049 
L 84.390996 225.73058 
L 84.644886 130.978699 
L 84.898777 87.794194 
L 85.152667 159.937718 
L 85.406557 108.624354 
L 86.168228 161.207846 
L 86.422118 85.253916 
L 86.676008 129.708572 
L 86.929899 97.701228 
L 87.183789 88.810287 
L 87.437679 96.177065 
L 87.691569 98.971356 
L 87.94546 180.513866 
L 88.19935 177.719576 
L 88.45324 83.729753 
L 88.70713 97.193158 
L 88.961021 96.431077 
L 89.214911 97.701228 
L 89.722691 87.032113 
L 89.976582 89.572369 
L 90.230472 109.894482 
L 90.484362 89.064322 
L 90.738252 171.114879 
L 90.992143 90.080415 
L 91.246033 80.427417 
L 91.499923 82.205591 
L 91.753813 80.427417 
L 92.261594 90.842497 
L 92.515484 81.443533 
L 92.769374 154.349138 
L 93.023265 86.778078 
L 93.277155 89.572369 
L 93.531045 80.173382 
L 93.784936 90.588485 
L 94.038826 84.999881 
L 94.292716 109.386435 
L 94.546606 96.431077 
L 94.800497 107.100192 
L 95.054387 84.237823 
L 95.308277 82.967672 
L 96.069948 91.096531 
L 96.323838 100.74953 
L 96.577728 82.459626 
L 96.831619 134.027001 
L 97.085509 84.745869 
L 97.339399 113.704888 
L 97.593289 81.189498 
L 97.84718 80.173382 
L 98.10107 84.745869 
L 98.35496 98.717321 
L 98.60885 85.253916 
L 98.862741 90.33445 
L 99.116631 82.459626 
L 99.370521 91.858613 
L 99.878302 82.459626 
L 100.132192 96.939147 
L 100.386082 82.71366 
L 100.639972 80.935463 
L 100.893863 103.289808 
L 101.147753 86.778078 
L 101.401643 87.54016 
L 101.655533 94.652903 
L 101.909424 135.551164 
L 102.163314 95.668996 
L 102.417204 83.221707 
L 102.671094 80.935463 
L 103.178875 101.765646 
L 103.432765 83.221707 
L 103.940546 94.906938 
L 104.194436 101.765646 
L 104.448326 83.475742 
L 104.702216 87.286125 
L 104.956107 88.556253 
L 105.209997 81.443533 
L 105.463887 89.064322 
L 105.717777 82.967672 
L 105.971668 89.318334 
L 106.225558 80.173382 
L 106.479448 81.443533 
L 106.733338 105.067983 
L 106.987229 82.205591 
L 107.495009 87.54016 
L 107.748899 84.999881 
L 108.00279 85.761962 
L 108.25668 96.177065 
L 108.51057 88.810287 
L 108.76446 87.794194 
L 109.018351 80.427417 
L 109.272241 84.237823 
L 109.526131 83.475742 
L 109.780021 81.189498 
L 110.033912 88.556253 
L 110.287802 85.253916 
L 110.541692 80.173382 
L 110.795583 88.556253 
L 111.049473 86.270032 
L 111.303363 91.096531 
L 111.557253 82.71366 
L 111.811144 82.71366 
L 112.065034 83.983788 
L 112.318924 82.71366 
L 112.572814 98.209274 
L 112.826705 84.491835 
L 113.080595 80.681451 
L 113.588375 82.205591 
L 113.842266 94.652903 
L 114.096156 80.427417 
L 114.350046 109.386435 
L 114.603936 82.459626 
L 114.857827 81.697544 
L 115.111717 83.221707 
L 115.365607 87.794194 
L 115.619497 84.745869 
L 115.873388 80.173382 
L 116.127278 86.524044 
L 116.381168 87.286125 
L 116.635058 92.112624 
L 117.142839 81.443533 
L 117.650619 84.237823 
L 118.1584 80.173382 
L 118.41229 84.237823 
L 118.66618 83.729753 
L 118.920071 81.951579 
L 119.173961 84.491835 
L 119.427851 79.91937 
L 119.681741 83.475742 
L 120.189522 82.967672 
L 120.443412 82.967672 
L 120.697302 81.189498 
L 120.951193 84.491835 
L 121.205083 81.697544 
L 121.458973 82.205591 
L 121.712863 83.729753 
L 121.966754 118.785422 
L 122.220644 80.681451 
L 122.474534 84.237823 
L 122.728424 83.475742 
L 122.982315 83.221707 
L 123.236205 81.951579 
L 123.490095 87.794194 
L 123.743985 79.91937 
L 123.997876 85.507951 
L 124.251766 84.999881 
L 124.505656 82.967672 
L 124.759546 83.983788 
L 125.013437 81.951579 
L 125.775107 85.253916 
L 126.028998 90.588485 
L 126.282888 83.475742 
L 126.536778 86.524044 
L 126.790669 81.189498 
L 127.044559 87.286125 
L 127.298449 79.91937 
L 127.552339 82.205591 
L 127.80623 90.080415 
L 128.06012 80.935463 
L 128.31401 82.967672 
L 128.5679 97.193158 
L 128.821791 85.507951 
L 129.075681 82.459626 
L 129.329571 101.257599 
L 129.583461 82.459626 
L 129.837352 84.745869 
L 130.091242 82.71366 
L 130.599022 85.761962 
L 130.852913 80.681451 
L 131.106803 81.951579 
L 131.360693 85.253916 
L 131.868474 81.443533 
L 132.122364 83.475742 
L 132.376254 82.205591 
L 132.630144 84.237823 
L 132.884035 84.999881 
L 133.137925 81.443533 
L 133.391815 90.33445 
L 133.645705 82.71366 
L 133.899596 84.237823 
L 134.153486 83.729753 
L 134.407376 80.173382 
L 134.915157 86.524044 
L 135.169047 80.935463 
L 135.676827 83.983788 
L 135.930718 80.173382 
L 136.184608 82.967672 
L 136.438498 83.221707 
L 136.692388 102.781739 
L 136.946279 89.064322 
L 137.200169 81.951579 
L 137.454059 80.935463 
L 137.707949 83.729753 
L 137.96184 82.205591 
L 138.46962 82.205591 
L 138.72351 89.572369 
L 138.977401 88.556253 
L 139.231291 82.71366 
L 139.485181 86.524044 
L 139.739071 81.443533 
L 139.992962 83.983788 
L 140.246852 83.729753 
L 140.500742 81.443533 
L 140.754632 85.253916 
L 141.008523 82.459626 
L 141.262413 83.983788 
L 141.516303 82.459626 
L 141.770193 89.318334 
L 142.024084 82.71366 
L 142.277974 82.967672 
L 142.531864 82.967672 
L 142.785755 84.999881 
L 143.039645 83.983788 
L 143.293535 81.697544 
L 143.547425 81.697544 
L 143.801316 82.459626 
L 144.055206 81.443533 
L 144.309096 87.54016 
L 144.562986 79.91937 
L 144.816877 80.935463 
L 145.070767 89.064322 
L 145.324657 87.54016 
L 145.578547 82.71366 
L 146.086328 83.983788 
L 146.340218 84.491835 
L 146.594108 87.032113 
L 147.609669 82.459626 
L 147.86356 85.507951 
L 148.11745 85.761962 
L 148.37134 81.697544 
L 148.62523 82.459626 
L 148.879121 89.826404 
L 149.386901 83.475742 
L 149.640791 84.745869 
L 149.894682 82.967672 
L 150.148572 86.270032 
L 150.402462 82.967672 
L 150.656352 81.697544 
L 150.910243 81.951579 
L 151.418023 81.443533 
L 151.671913 85.253916 
L 151.925804 86.524044 
L 152.179694 82.71366 
L 152.433584 80.935463 
L 152.687474 81.189498 
L 152.941365 82.205591 
L 153.195255 81.443533 
L 153.449145 85.507951 
L 153.703035 81.697544 
L 153.956926 80.681451 
L 154.210816 88.810287 
L 154.464706 81.951579 
L 154.718596 86.524044 
L 155.226377 80.427417 
L 155.480267 83.221707 
L 155.734157 81.697544 
L 155.988048 81.443533 
L 156.241938 81.951579 
L 156.495828 82.205591 
L 156.749718 82.205591 
L 157.003609 81.443533 
L 157.257499 82.71366 
L 157.511389 89.064322 
L 157.765279 82.205591 
L 158.01917 82.205591 
L 158.27306 81.951579 
L 158.52695 83.475742 
L 158.78084 82.967672 
L 159.034731 83.221707 
L 159.288621 81.443533 
L 159.542511 81.443533 
L 160.050292 83.729753 
L 160.304182 81.951579 
L 160.558072 82.205591 
L 160.811963 81.951579 
L 161.065853 85.761962 
L 161.319743 85.253916 
L 161.573633 81.443533 
L 161.827524 82.205591 
L 162.081414 80.935463 
L 162.335304 83.729753 
L 162.589194 80.681451 
L 162.843085 81.189498 
L 163.096975 81.189498 
L 163.350865 81.951579 
L 163.604755 79.91937 
L 163.858646 81.697544 
L 164.112536 81.951579 
L 164.366426 80.935463 
L 164.620316 81.951579 
L 164.874207 80.173382 
L 165.381987 82.967672 
L 165.635877 82.205591 
L 165.889768 82.967672 
L 166.397548 82.967672 
L 166.651438 84.745869 
L 166.905329 81.697544 
L 167.159219 81.951579 
L 167.413109 85.761962 
L 167.666999 80.427417 
L 167.92089 83.221707 
L 168.17478 83.983788 
L 168.42867 83.475742 
L 168.68256 81.697544 
L 168.936451 83.729753 
L 169.190341 83.475742 
L 169.444231 81.443533 
L 169.952012 86.015997 
L 170.205902 82.71366 
L 170.459792 81.697544 
L 170.713682 83.729753 
L 170.967573 82.459626 
L 171.221463 82.71366 
L 171.475353 82.459626 
L 171.729243 81.443533 
L 171.983134 80.935463 
L 172.237024 82.967672 
L 172.490914 82.459626 
L 172.998695 79.91937 
L 173.252585 80.681451 
L 173.506475 88.302241 
L 173.760365 79.91937 
L 174.268146 82.459626 
L 174.775926 80.681451 
L 175.029817 81.951579 
L 175.283707 85.507951 
L 175.537597 85.253916 
L 175.791488 90.33445 
L 176.045378 81.443533 
L 176.299268 82.967672 
L 176.807049 80.935463 
L 177.060939 81.443533 
L 177.314829 82.71366 
L 177.568719 80.427417 
L 177.82261 79.91937 
L 178.0765 83.221707 
L 178.33039 83.983788 
L 178.58428 79.665335 
L 178.838171 84.999881 
L 179.092061 80.935463 
L 179.345951 81.951579 
L 179.599841 82.205591 
L 179.853732 81.697544 
L 180.107622 79.91937 
L 180.361512 82.205591 
L 180.615402 80.173382 
L 180.869293 84.237823 
L 181.377073 81.443533 
L 181.630963 81.443533 
L 181.884854 81.189498 
L 182.392634 81.697544 
L 182.646524 80.173382 
L 182.900415 82.205591 
L 183.154305 81.443533 
L 183.408195 82.459626 
L 183.662085 82.459626 
L 183.915976 81.189498 
L 184.169866 80.935463 
L 184.423756 80.173382 
L 184.677646 83.729753 
L 184.931537 80.427417 
L 185.185427 82.967672 
L 185.439317 81.189498 
L 185.693207 80.935463 
L 185.947098 80.173382 
L 186.200988 81.697544 
L 186.454878 81.951579 
L 186.708768 84.745869 
L 186.962659 81.697544 
L 187.216549 80.427417 
L 187.470439 81.443533 
L 187.724329 80.427417 
L 187.97822 81.189498 
L 188.23211 80.681451 
L 188.73989 81.951579 
L 188.993781 82.205591 
L 189.247671 80.427417 
L 189.501561 82.459626 
L 189.755451 81.697544 
L 190.009342 85.507951 
L 190.263232 81.951579 
L 190.517122 82.459626 
L 190.771012 81.443533 
L 191.024903 82.205591 
L 191.532683 80.681451 
L 191.786574 80.681451 
L 192.040464 79.411301 
L 192.294354 81.697544 
L 192.548244 82.205591 
L 192.802135 81.189498 
L 193.056025 81.697544 
L 193.309915 81.443533 
L 193.563805 81.951579 
L 193.817696 83.983788 
L 194.325476 80.173382 
L 194.579366 80.935463 
L 194.833257 80.681451 
L 195.087147 80.173382 
L 195.341037 81.189498 
L 195.594927 82.967672 
L 195.848818 80.935463 
L 196.102708 81.951579 
L 196.356598 81.189498 
L 196.610488 82.459626 
L 196.864379 80.935463 
L 197.118269 80.681451 
L 197.372159 81.697544 
L 197.626049 81.951579 
L 197.87994 80.173382 
L 198.13383 81.443533 
L 198.38772 79.91937 
L 198.895501 82.71366 
L 199.149391 80.173382 
L 199.403281 81.951579 
L 199.657171 81.697544 
L 199.911062 85.761962 
L 200.164952 81.189498 
L 200.418842 80.935463 
L 200.672732 80.935463 
L 200.926623 80.173382 
L 201.180513 81.951579 
L 201.434403 81.189498 
L 201.688293 81.697544 
L 201.942184 84.999881 
L 202.196074 80.935463 
L 202.449964 83.475742 
L 202.703854 81.443533 
L 202.957745 83.221707 
L 203.211635 82.205591 
L 203.465525 84.999881 
L 203.719415 80.935463 
L 203.973306 82.71366 
L 204.227196 83.475742 
L 204.734976 80.427417 
L 204.988867 86.270032 
L 205.242757 82.967672 
L 205.496647 82.205591 
L 205.750537 82.205591 
L 206.004428 79.91937 
L 206.512208 82.71366 
L 206.766098 81.189498 
L 207.019989 86.778078 
L 207.273879 80.427417 
L 207.527769 82.205591 
L 207.78166 81.189498 
L 208.28944 81.697544 
L 208.54333 82.205591 
L 208.797221 82.459626 
L 209.051111 81.951579 
L 209.305001 81.189498 
L 209.558891 81.951579 
L 209.812782 80.427417 
L 210.066672 80.427417 
L 210.320562 81.951579 
L 210.574452 82.205591 
L 210.828343 80.681451 
L 211.082233 89.318334 
L 211.336123 83.221707 
L 211.590013 81.443533 
L 211.843904 80.935463 
L 212.097794 81.443533 
L 212.351684 82.71366 
L 212.605574 83.221707 
L 212.859465 81.189498 
L 213.621135 81.951579 
L 214.128916 83.221707 
L 214.636696 80.935463 
L 214.890587 81.697544 
L 215.144477 79.665335 
L 215.652257 83.729753 
L 215.906148 81.951579 
L 216.160038 82.71366 
L 216.413928 80.935463 
L 216.667818 82.71366 
L 216.921709 81.951579 
L 217.175599 82.205591 
L 217.429489 81.951579 
L 217.683379 81.443533 
L 217.93727 81.443533 
L 218.19116 82.205591 
L 218.44505 81.189498 
L 218.69894 80.935463 
L 218.952831 81.189498 
L 219.206721 81.697544 
L 219.460611 81.189498 
L 219.714501 81.697544 
L 219.968392 81.189498 
L 220.222282 81.189498 
L 220.476172 80.427417 
L 220.730062 85.253916 
L 220.983953 80.681451 
L 221.237843 81.697544 
L 221.491733 81.951579 
L 221.745623 81.443533 
L 221.999514 83.221707 
L 222.253404 81.189498 
L 222.507294 80.427417 
L 222.761184 78.649219 
L 223.015075 84.999881 
L 223.522855 81.189498 
L 223.776745 84.999881 
L 224.030636 80.681451 
L 224.284526 82.205591 
L 224.538416 80.681451 
L 224.792307 83.475742 
L 225.046197 81.443533 
L 225.300087 81.443533 
L 225.553977 82.205591 
L 225.807868 81.443533 
L 226.061758 81.443533 
L 226.315648 81.951579 
L 226.569538 81.951579 
L 226.823429 82.205591 
L 227.077319 80.427417 
L 227.331209 80.173382 
L 227.585099 80.427417 
L 227.83899 81.189498 
L 228.09288 80.427417 
L 228.34677 80.681451 
L 228.60066 80.681451 
L 228.854551 79.91937 
L 229.108441 80.935463 
L 229.362331 80.935463 
L 229.870112 84.237823 
L 230.124002 81.697544 
L 230.377892 80.681451 
L 230.631782 80.935463 
L 230.885673 80.935463 
L 231.139563 81.951579 
L 231.393453 80.681451 
L 231.647343 81.189498 
L 231.901234 80.681451 
L 232.155124 81.189498 
L 232.409014 80.173382 
L 232.662904 80.681451 
L 232.916795 80.935463 
L 233.170685 80.935463 
L 233.424575 80.427417 
L 233.678465 81.189498 
L 233.932356 81.189498 
L 234.186246 81.951579 
L 234.440136 81.443533 
L 234.947917 81.443533 
L 235.201807 82.459626 
L 235.455697 80.427417 
L 235.709587 80.935463 
L 235.963478 80.681451 
L 236.217368 82.205591 
L 236.471258 80.935463 
L 236.725148 82.459626 
L 236.979039 82.459626 
L 237.232929 80.173382 
L 237.486819 81.951579 
L 237.740709 81.189498 
L 237.9946 81.697544 
L 238.24849 81.697544 
L 238.50238 82.205591 
L 238.75627 81.443533 
L 239.010161 82.459626 
L 239.264051 80.427417 
L 239.517941 79.91937 
L 239.771831 80.173382 
L 240.025722 81.697544 
L 240.279612 81.951579 
L 240.533502 81.951579 
L 240.787393 80.173382 
L 241.041283 81.189498 
L 241.295173 81.697544 
L 241.549063 80.935463 
L 241.802954 81.189498 
L 242.056844 80.427417 
L 242.310734 80.681451 
L 242.564624 80.173382 
L 242.818515 80.681451 
L 243.072405 82.459626 
L 243.580185 80.427417 
L 243.834076 82.205591 
L 244.087966 81.443533 
L 244.341856 81.443533 
L 244.595746 81.697544 
L 244.849637 81.189498 
L 245.103527 80.173382 
L 245.357417 82.459626 
L 245.611307 81.189498 
L 245.865198 80.681451 
L 246.119088 80.935463 
L 246.372978 81.951579 
L 246.626868 81.189498 
L 246.880759 80.935463 
L 247.134649 80.427417 
L 247.642429 81.697544 
L 247.89632 86.015997 
L 248.15021 80.935463 
L 248.4041 80.427417 
L 248.65799 81.697544 
L 249.165771 81.189498 
L 249.419661 80.173382 
L 249.673551 82.459626 
L 249.927442 81.189498 
L 250.181332 81.697544 
L 250.435222 82.71366 
L 250.689112 85.253916 
L 250.943003 81.697544 
L 251.196893 81.951579 
L 251.450783 81.951579 
L 251.958564 80.681451 
L 252.212454 82.205591 
L 252.466344 81.951579 
L 252.720234 84.491835 
L 252.974125 80.681451 
L 253.228015 83.475742 
L 253.481905 81.697544 
L 253.735795 81.443533 
L 253.989686 81.951579 
L 254.497466 81.951579 
L 254.751356 81.697544 
L 255.005247 80.935463 
L 255.513027 81.443533 
L 255.766917 81.189498 
L 256.020808 81.697544 
L 256.274698 80.681451 
L 256.528588 81.443533 
L 256.782479 80.935463 
L 257.036369 81.189498 
L 257.290259 81.189498 
L 257.544149 80.935463 
L 257.79804 81.189498 
L 258.05193 79.91937 
L 258.30582 83.729753 
L 258.55971 80.935463 
L 258.813601 83.983788 
L 259.067491 81.697544 
L 259.321381 82.205591 
L 259.575271 83.221707 
L 259.829162 80.935463 
L 260.083052 83.983788 
L 260.336942 81.697544 
L 260.590832 80.427417 
L 260.844723 80.935463 
L 261.098613 83.475742 
L 261.352503 80.935463 
L 261.860284 81.443533 
L 262.114174 80.681451 
L 262.368064 83.475742 
L 262.621954 82.205591 
L 262.875845 82.205591 
L 263.129735 81.189498 
L 263.383625 79.157289 
L 263.637515 83.983788 
L 263.891406 84.999881 
L 264.145296 81.951579 
L 264.653076 81.951579 
L 264.906967 82.205591 
L 265.160857 80.935463 
L 265.414747 80.681451 
L 265.922528 81.189498 
L 266.176418 82.205591 
L 266.430308 86.778078 
L 266.684198 81.443533 
L 266.938089 82.71366 
L 267.191979 81.443533 
L 267.445869 81.443533 
L 267.699759 81.951579 
L 267.95365 82.205591 
L 268.20754 81.951579 
L 268.46143 82.205591 
L 268.71532 80.427417 
L 268.969211 80.173382 
L 269.223101 80.427417 
L 269.476991 82.205591 
L 269.730881 81.697544 
L 269.984772 81.443533 
L 270.238662 81.443533 
L 270.492552 81.697544 
L 270.746442 82.71366 
L 271.000333 81.697544 
L 271.254223 82.71366 
L 271.508113 81.189498 
L 271.762003 81.189498 
L 272.015894 81.443533 
L 272.269784 82.71366 
L 272.523674 82.205591 
L 272.777564 81.951579 
L 273.031455 81.189498 
L 273.539235 81.189498 
L 274.047016 79.91937 
L 274.300906 80.935463 
L 274.554796 80.935463 
L 274.808687 80.427417 
L 275.062577 83.221707 
L 275.316467 81.443533 
L 275.570357 82.205591 
L 275.824248 80.681451 
L 276.078138 82.205591 
L 276.332028 80.681451 
L 276.585918 81.951579 
L 277.093699 80.427417 
L 277.347589 84.999881 
L 277.601479 81.951579 
L 278.10926 80.681451 
L 278.36315 80.173382 
L 278.61704 82.967672 
L 278.870931 80.935463 
L 279.124821 81.443533 
L 279.378711 83.221707 
L 279.886492 79.91937 
L 280.140382 82.459626 
L 280.648162 81.443533 
L 280.902053 81.443533 
L 281.155943 81.189498 
L 281.409833 82.459626 
L 281.663723 81.697544 
L 282.171504 81.697544 
L 282.425394 81.443533 
L 282.679284 82.71366 
L 283.187065 80.935463 
L 283.440955 81.189498 
L 283.694845 81.697544 
L 283.948736 81.189498 
L 284.202626 81.189498 
L 284.456516 82.71366 
L 284.710406 81.189498 
L 285.218187 80.681451 
L 285.472077 80.935463 
L 285.725967 80.427417 
L 285.979858 81.443533 
L 286.233748 81.443533 
L 286.487638 82.459626 
L 286.741528 82.967672 
L 286.995419 81.951579 
L 287.249309 82.71366 
L 287.503199 81.189498 
L 287.757089 81.951579 
L 288.01098 81.443533 
L 288.26487 81.951579 
L 288.51876 81.443533 
L 288.77265 82.459626 
L 289.026541 82.205591 
L 289.280431 81.443533 
L 289.534321 81.189498 
L 289.788212 84.491835 
L 290.042102 79.91937 
L 290.295992 85.761962 
L 290.549882 81.951579 
L 290.803773 80.935463 
L 291.057663 80.935463 
L 291.311553 83.221707 
L 291.565443 81.443533 
L 291.819334 80.681451 
L 292.073224 81.189498 
L 292.581004 81.697544 
L 292.834895 80.935463 
L 293.088785 81.189498 
L 293.342675 81.697544 
L 293.596565 81.443533 
L 293.850456 81.951579 
L 294.104346 80.935463 
L 294.358236 82.967672 
L 294.612126 82.459626 
L 294.866017 79.411301 
L 295.119907 82.71366 
L 295.373797 81.697544 
L 295.627687 81.189498 
L 295.881578 81.951579 
L 296.135468 81.697544 
L 296.389358 80.681451 
L 296.643248 86.270032 
L 296.897139 81.951579 
L 297.151029 81.697544 
L 297.404919 82.205591 
L 297.658809 82.967672 
L 298.16659 80.935463 
L 298.42048 81.697544 
L 298.67437 79.665335 
L 298.928261 81.697544 
L 299.182151 87.794194 
L 299.436041 81.189498 
L 299.689931 81.443533 
L 299.943822 80.935463 
L 300.197712 81.697544 
L 300.451602 81.443533 
L 300.705492 79.91937 
L 300.959383 82.71366 
L 301.213273 81.443533 
L 301.467163 81.697544 
L 301.721053 80.681451 
L 301.974944 80.935463 
L 302.228834 82.967672 
L 302.482724 81.443533 
L 302.736614 82.205591 
L 302.990505 80.681451 
L 303.244395 81.189498 
L 303.498285 80.681451 
L 303.752175 81.443533 
L 304.006066 83.983788 
L 304.513846 81.443533 
L 304.767736 84.999881 
L 305.021627 81.189498 
L 305.275517 79.91937 
L 305.529407 80.427417 
L 305.783298 82.459626 
L 306.037188 81.189498 
L 306.291078 81.697544 
L 306.544968 81.697544 
L 306.798859 80.935463 
L 307.052749 82.459626 
L 307.306639 80.935463 
L 307.560529 81.443533 
L 307.81442 80.681451 
L 308.06831 84.237823 
L 308.3222 81.189498 
L 308.57609 80.681451 
L 308.829981 80.935463 
L 309.083871 81.443533 
L 309.337761 81.697544 
L 309.591651 81.189498 
L 310.099432 82.71366 
L 310.099432 82.71366 
" clip-path="url(#p36d73ce790)" style="fill: none; stroke: #ff0000; stroke-width: 0.6; stroke-linecap: square"/>
   </g>
   <g id="patch_3">
    <path d="M 43.78125 239.76 
L 43.78125 37.296 
" style="fill: none; stroke: #000000; stroke-width: 0.8; stroke-linejoin: miter; stroke-linecap: square"/>
   </g>
   <g id="patch_4">
    <path d="M 322.78125 239.76 
L 322.78125 37.296 
" style="fill: none; stroke: #000000; stroke-width: 0.8; stroke-linejoin: miter; stroke-linecap: square"/>
   </g>
   <g id="patch_5">
    <path d="M 43.78125 239.76 
L 322.78125 239.76 
" style="fill: none; stroke: #000000; stroke-width: 0.8; stroke-linejoin: miter; stroke-linecap: square"/>
   </g>
   <g id="patch_6">
    <path d="M 43.78125 37.296 
L 322.78125 37.296 
" style="fill: none; stroke: #000000; stroke-width: 0.8; stroke-linejoin: miter; stroke-linecap: square"/>
   </g>
   <g id="text_14">
    <!-- Baseline Model -->
    <g transform="translate(149.259844 31.296) scale(0.09 -0.09)">
     <defs>
      <path id="DejaVuSans-42" d="M 1259 2228 
L 1259 519 
L 2272 519 
Q 2781 519 3026 730 
Q 3272 941 3272 1375 
Q 3272 1813 3026 2020 
Q 2781 2228 2272 2228 
L 1259 2228 
z
M 1259 4147 
L 1259 2741 
L 2194 2741 
Q 2656 2741 2882 2914 
Q 3109 3088 3109 3444 
Q 3109 3797 2882 3972 
Q 2656 4147 2194 4147 
L 1259 4147 
z
M 628 4666 
L 2241 4666 
Q 2963 4666 3353 4366 
Q 3744 4066 3744 3513 
Q 3744 3084 3544 2831 
Q 3344 2578 2956 2516 
Q 3422 2416 3680 2098 
Q 3938 1781 3938 1306 
Q 3938 681 3513 340 
Q 3088 0 2303 0 
L 628 0 
L 628 4666 
z
" transform="scale(0.015625)"/>
      <path id="DejaVuSans-65" d="M 3597 1894 
L 3597 1613 
L 953 1613 
Q 991 1019 1311 708 
Q 1631 397 2203 397 
Q 2534 397 2845 478 
Q 3156 559 3463 722 
L 3463 178 
Q 3153 47 2828 -22 
Q 2503 -91 2169 -91 
Q 1331 -91 842 396 
Q 353 884 353 1716 
Q 353 2575 817 3079 
Q 1281 3584 2069 3584 
Q 2775 3584 3186 3129 
Q 3597 2675 3597 1894 
z
M 3022 2063 
Q 3016 2534 2758 2815 
Q 2500 3097 2075 3097 
Q 1594 3097 1305 2825 
Q 1016 2553 972 2059 
L 3022 2063 
z
" transform="scale(0.015625)"/>
      <path id="DejaVuSans-6c" d="M 603 4863 
L 1178 4863 
L 1178 0 
L 603 0 
L 603 4863 
z
" transform="scale(0.015625)"/>
      <path id="DejaVuSans-69" d="M 603 3500 
L 1178 3500 
L 1178 0 
L 603 0 
L 603 3500 
z
M 603 4863 
L 1178 4863 
L 1178 4134 
L 603 4134 
L 603 4863 
z
" transform="scale(0.015625)"/>
      <path id="DejaVuSans-6e" d="M 3513 2113 
L 3513 0 
L 2938 0 
L 2938 2094 
Q 2938 2591 2744 2837 
Q 2550 3084 2163 3084 
Q 1697 3084 1428 2787 
Q 1159 2491 1159 1978 
L 1159 0 
L 581 0 
L 581 3500 
L 1159 3500 
L 1159 2956 
Q 1366 3272 1645 3428 
Q 1925 3584 2291 3584 
Q 2894 3584 3203 3211 
Q 3513 2838 3513 2113 
z
" transform="scale(0.015625)"/>
      <path id="DejaVuSans-20" transform="scale(0.015625)"/>
      <path id="DejaVuSans-4d" d="M 628 4666 
L 1569 4666 
L 2759 1491 
L 3956 4666 
L 4897 4666 
L 4897 0 
L 4281 0 
L 4281 4097 
L 3078 897 
L 2444 897 
L 1241 4097 
L 1241 0 
L 628 0 
L 628 4666 
z
" transform="scale(0.015625)"/>
      <path id="DejaVuSans-64" d="M 2906 2969 
L 2906 4863 
L 3481 4863 
L 3481 0 
L 2906 0 
L 2906 525 
Q 2725 213 2448 61 
Q 2172 -91 1784 -91 
Q 1150 -91 751 415 
Q 353 922 353 1747 
Q 353 2572 751 3078 
Q 1150 3584 1784 3584 
Q 2172 3584 2448 3432 
Q 2725 3281 2906 2969 
z
M 947 1747 
Q 947 1113 1208 752 
Q 1469 391 1925 391 
Q 2381 391 2643 752 
Q 2906 1113 2906 1747 
Q 2906 2381 2643 2742 
Q 2381 3103 1925 3103 
Q 1469 3103 1208 2742 
Q 947 2381 947 1747 
z
" transform="scale(0.015625)"/>
     </defs>
     <use xlink:href="#DejaVuSans-42"/>
     <use xlink:href="#DejaVuSans-61" x="68.603516"/>
     <use xlink:href="#DejaVuSans-73" x="129.882812"/>
     <use xlink:href="#DejaVuSans-65" x="181.982422"/>
     <use xlink:href="#DejaVuSans-6c" x="243.505859"/>
     <use xlink:href="#DejaVuSans-69" x="271.289062"/>
     <use xlink:href="#DejaVuSans-6e" x="299.072266"/>
     <use xlink:href="#DejaVuSans-65" x="362.451172"/>
     <use xlink:href="#DejaVuSans-20" x="423.974609"/>
     <use xlink:href="#DejaVuSans-4d" x="455.761719"/>
     <use xlink:href="#DejaVuSans-6f" x="542.041016"/>
     <use xlink:href="#DejaVuSans-64" x="603.222656"/>
     <use xlink:href="#DejaVuSans-65" x="666.699219"/>
     <use xlink:href="#DejaVuSans-6c" x="728.222656"/>
    </g>
   </g>
   <g id="legend_1">
    <g id="patch_7">
     <path d="M 185.565625 234.76 
L 315.78125 234.76 
Q 317.78125 234.76 317.78125 232.76 
L 317.78125 204.40375 
Q 317.78125 202.40375 315.78125 202.40375 
L 185.565625 202.40375 
Q 183.565625 202.40375 183.565625 204.40375 
L 183.565625 232.76 
Q 183.565625 234.76 185.565625 234.76 
z
" style="fill: #ffffff; opacity: 0.8; stroke: #cccccc; stroke-linejoin: miter"/>
    </g>
    <g id="line2d_25">
     <path d="M 187.565625 210.502187 
L 197.565625 210.502187 
L 207.565625 210.502187 
" style="fill: none; stroke: #0000ff; stroke-width: 0.6; stroke-linecap: square"/>
    </g>
    <g id="text_15">
     <!-- Training Accuracy -->
     <g transform="translate(215.565625 214.002187) scale(0.1 -0.1)">
      <defs>
       <path id="DejaVuSans-54" d="M -19 4666 
L 3928 4666 
L 3928 4134 
L 2272 4134 
L 2272 0 
L 1638 0 
L 1638 4134 
L -19 4134 
L -19 4666 
z
" transform="scale(0.015625)"/>
       <path id="DejaVuSans-67" d="M 2906 1791 
Q 2906 2416 2648 2759 
Q 2391 3103 1925 3103 
Q 1463 3103 1205 2759 
Q 947 2416 947 1791 
Q 947 1169 1205 825 
Q 1463 481 1925 481 
Q 2391 481 2648 825 
Q 2906 1169 2906 1791 
z
M 3481 434 
Q 3481 -459 3084 -895 
Q 2688 -1331 1869 -1331 
Q 1566 -1331 1297 -1286 
Q 1028 -1241 775 -1147 
L 775 -588 
Q 1028 -725 1275 -790 
Q 1522 -856 1778 -856 
Q 2344 -856 2625 -561 
Q 2906 -266 2906 331 
L 2906 616 
Q 2728 306 2450 153 
Q 2172 0 1784 0 
Q 1141 0 747 490 
Q 353 981 353 1791 
Q 353 2603 747 3093 
Q 1141 3584 1784 3584 
Q 2172 3584 2450 3431 
Q 2728 3278 2906 2969 
L 2906 3500 
L 3481 3500 
L 3481 434 
z
" transform="scale(0.015625)"/>
      </defs>
      <use xlink:href="#DejaVuSans-54"/>
      <use xlink:href="#DejaVuSans-72" x="46.333984"/>
      <use xlink:href="#DejaVuSans-61" x="87.447266"/>
      <use xlink:href="#DejaVuSans-69" x="148.726562"/>
      <use xlink:href="#DejaVuSans-6e" x="176.509766"/>
      <use xlink:href="#DejaVuSans-69" x="239.888672"/>
      <use xlink:href="#DejaVuSans-6e" x="267.671875"/>
      <use xlink:href="#DejaVuSans-67" x="331.050781"/>
      <use xlink:href="#DejaVuSans-20" x="394.527344"/>
      <use xlink:href="#DejaVuSans-41" x="426.314453"/>
      <use xlink:href="#DejaVuSans-63" x="492.972656"/>
      <use xlink:href="#DejaVuSans-63" x="547.953125"/>
      <use xlink:href="#DejaVuSans-75" x="602.933594"/>
      <use xlink:href="#DejaVuSans-72" x="666.3125"/>
      <use xlink:href="#DejaVuSans-61" x="707.425781"/>
      <use xlink:href="#DejaVuSans-63" x="768.705078"/>
      <use xlink:href="#DejaVuSans-79" x="823.685547"/>
     </g>
    </g>
    <g id="line2d_26">
     <path d="M 187.565625 225.180312 
L 197.565625 225.180312 
L 207.565625 225.180312 
" style="fill: none; stroke: #ff0000; stroke-width: 0.6; stroke-linecap: square"/>
    </g>
    <g id="text_16">
     <!-- Validation Accuracy -->
     <g transform="translate(215.565625 228.680312) scale(0.1 -0.1)">
      <defs>
       <path id="DejaVuSans-56" d="M 1831 0 
L 50 4666 
L 709 4666 
L 2188 738 
L 3669 4666 
L 4325 4666 
L 2547 0 
L 1831 0 
z
" transform="scale(0.015625)"/>
       <path id="DejaVuSans-74" d="M 1172 4494 
L 1172 3500 
L 2356 3500 
L 2356 3053 
L 1172 3053 
L 1172 1153 
Q 1172 725 1289 603 
Q 1406 481 1766 481 
L 2356 481 
L 2356 0 
L 1766 0 
Q 1100 0 847 248 
Q 594 497 594 1153 
L 594 3053 
L 172 3053 
L 172 3500 
L 594 3500 
L 594 4494 
L 1172 4494 
z
" transform="scale(0.015625)"/>
      </defs>
      <use xlink:href="#DejaVuSans-56"/>
      <use xlink:href="#DejaVuSans-61" x="60.658203"/>
      <use xlink:href="#DejaVuSans-6c" x="121.9375"/>
      <use xlink:href="#DejaVuSans-69" x="149.720703"/>
      <use xlink:href="#DejaVuSans-64" x="177.503906"/>
      <use xlink:href="#DejaVuSans-61" x="240.980469"/>
      <use xlink:href="#DejaVuSans-74" x="302.259766"/>
      <use xlink:href="#DejaVuSans-69" x="341.46875"/>
      <use xlink:href="#DejaVuSans-6f" x="369.251953"/>
      <use xlink:href="#DejaVuSans-6e" x="430.433594"/>
      <use xlink:href="#DejaVuSans-20" x="493.8125"/>
      <use xlink:href="#DejaVuSans-41" x="525.599609"/>
      <use xlink:href="#DejaVuSans-63" x="592.257812"/>
      <use xlink:href="#DejaVuSans-63" x="647.238281"/>
      <use xlink:href="#DejaVuSans-75" x="702.21875"/>
      <use xlink:href="#DejaVuSans-72" x="765.597656"/>
      <use xlink:href="#DejaVuSans-61" x="806.710938"/>
      <use xlink:href="#DejaVuSans-63" x="867.990234"/>
      <use xlink:href="#DejaVuSans-79" x="922.970703"/>
     </g>
    </g>
   </g>
  </g>
  <g id="text_17">
   <!-- Training VS. Validation Accuracy - Dataset Size = 100.0% -->
   <g transform="translate(21.433984 15.558281) scale(0.11 -0.11)">
    <defs>
     <path id="DejaVuSans-53" d="M 3425 4513 
L 3425 3897 
Q 3066 4069 2747 4153 
Q 2428 4238 2131 4238 
Q 1616 4238 1336 4038 
Q 1056 3838 1056 3469 
Q 1056 3159 1242 3001 
Q 1428 2844 1947 2747 
L 2328 2669 
Q 3034 2534 3370 2195 
Q 3706 1856 3706 1288 
Q 3706 609 3251 259 
Q 2797 -91 1919 -91 
Q 1588 -91 1214 -16 
Q 841 59 441 206 
L 441 856 
Q 825 641 1194 531 
Q 1563 422 1919 422 
Q 2459 422 2753 634 
Q 3047 847 3047 1241 
Q 3047 1584 2836 1778 
Q 2625 1972 2144 2069 
L 1759 2144 
Q 1053 2284 737 2584 
Q 422 2884 422 3419 
Q 422 4038 858 4394 
Q 1294 4750 2059 4750 
Q 2388 4750 2728 4690 
Q 3069 4631 3425 4513 
z
" transform="scale(0.015625)"/>
     <path id="DejaVuSans-2d" d="M 313 2009 
L 1997 2009 
L 1997 1497 
L 313 1497 
L 313 2009 
z
" transform="scale(0.015625)"/>
     <path id="DejaVuSans-44" d="M 1259 4147 
L 1259 519 
L 2022 519 
Q 2988 519 3436 956 
Q 3884 1394 3884 2338 
Q 3884 3275 3436 3711 
Q 2988 4147 2022 4147 
L 1259 4147 
z
M 628 4666 
L 1925 4666 
Q 3281 4666 3915 4102 
Q 4550 3538 4550 2338 
Q 4550 1131 3912 565 
Q 3275 0 1925 0 
L 628 0 
L 628 4666 
z
" transform="scale(0.015625)"/>
     <path id="DejaVuSans-7a" d="M 353 3500 
L 3084 3500 
L 3084 2975 
L 922 459 
L 3084 459 
L 3084 0 
L 275 0 
L 275 525 
L 2438 3041 
L 353 3041 
L 353 3500 
z
" transform="scale(0.015625)"/>
     <path id="DejaVuSans-3d" d="M 678 2906 
L 4684 2906 
L 4684 2381 
L 678 2381 
L 678 2906 
z
M 678 1631 
L 4684 1631 
L 4684 1100 
L 678 1100 
L 678 1631 
z
" transform="scale(0.015625)"/>
     <path id="DejaVuSans-25" d="M 4653 2053 
Q 4381 2053 4226 1822 
Q 4072 1591 4072 1178 
Q 4072 772 4226 539 
Q 4381 306 4653 306 
Q 4919 306 5073 539 
Q 5228 772 5228 1178 
Q 5228 1588 5073 1820 
Q 4919 2053 4653 2053 
z
M 4653 2450 
Q 5147 2450 5437 2106 
Q 5728 1763 5728 1178 
Q 5728 594 5436 251 
Q 5144 -91 4653 -91 
Q 4153 -91 3862 251 
Q 3572 594 3572 1178 
Q 3572 1766 3864 2108 
Q 4156 2450 4653 2450 
z
M 1428 4353 
Q 1159 4353 1004 4120 
Q 850 3888 850 3481 
Q 850 3069 1003 2837 
Q 1156 2606 1428 2606 
Q 1700 2606 1854 2837 
Q 2009 3069 2009 3481 
Q 2009 3884 1853 4118 
Q 1697 4353 1428 4353 
z
M 4250 4750 
L 4750 4750 
L 1831 -91 
L 1331 -91 
L 4250 4750 
z
M 1428 4750 
Q 1922 4750 2215 4408 
Q 2509 4066 2509 3481 
Q 2509 2891 2217 2550 
Q 1925 2209 1428 2209 
Q 931 2209 642 2551 
Q 353 2894 353 3481 
Q 353 4063 643 4406 
Q 934 4750 1428 4750 
z
" transform="scale(0.015625)"/>
    </defs>
    <use xlink:href="#DejaVuSans-54"/>
    <use xlink:href="#DejaVuSans-72" x="46.333984"/>
    <use xlink:href="#DejaVuSans-61" x="87.447266"/>
    <use xlink:href="#DejaVuSans-69" x="148.726562"/>
    <use xlink:href="#DejaVuSans-6e" x="176.509766"/>
    <use xlink:href="#DejaVuSans-69" x="239.888672"/>
    <use xlink:href="#DejaVuSans-6e" x="267.671875"/>
    <use xlink:href="#DejaVuSans-67" x="331.050781"/>
    <use xlink:href="#DejaVuSans-20" x="394.527344"/>
    <use xlink:href="#DejaVuSans-56" x="426.314453"/>
    <use xlink:href="#DejaVuSans-53" x="494.722656"/>
    <use xlink:href="#DejaVuSans-2e" x="558.199219"/>
    <use xlink:href="#DejaVuSans-20" x="589.986328"/>
    <use xlink:href="#DejaVuSans-56" x="621.773438"/>
    <use xlink:href="#DejaVuSans-61" x="682.431641"/>
    <use xlink:href="#DejaVuSans-6c" x="743.710938"/>
    <use xlink:href="#DejaVuSans-69" x="771.494141"/>
    <use xlink:href="#DejaVuSans-64" x="799.277344"/>
    <use xlink:href="#DejaVuSans-61" x="862.753906"/>
    <use xlink:href="#DejaVuSans-74" x="924.033203"/>
    <use xlink:href="#DejaVuSans-69" x="963.242188"/>
    <use xlink:href="#DejaVuSans-6f" x="991.025391"/>
    <use xlink:href="#DejaVuSans-6e" x="1052.207031"/>
    <use xlink:href="#DejaVuSans-20" x="1115.585938"/>
    <use xlink:href="#DejaVuSans-41" x="1147.373047"/>
    <use xlink:href="#DejaVuSans-63" x="1214.03125"/>
    <use xlink:href="#DejaVuSans-63" x="1269.011719"/>
    <use xlink:href="#DejaVuSans-75" x="1323.992188"/>
    <use xlink:href="#DejaVuSans-72" x="1387.371094"/>
    <use xlink:href="#DejaVuSans-61" x="1428.484375"/>
    <use xlink:href="#DejaVuSans-63" x="1489.763672"/>
    <use xlink:href="#DejaVuSans-79" x="1544.744141"/>
    <use xlink:href="#DejaVuSans-20" x="1603.923828"/>
    <use xlink:href="#DejaVuSans-2d" x="1635.710938"/>
    <use xlink:href="#DejaVuSans-20" x="1671.794922"/>
    <use xlink:href="#DejaVuSans-44" x="1703.582031"/>
    <use xlink:href="#DejaVuSans-61" x="1780.583984"/>
    <use xlink:href="#DejaVuSans-74" x="1841.863281"/>
    <use xlink:href="#DejaVuSans-61" x="1881.072266"/>
    <use xlink:href="#DejaVuSans-73" x="1942.351562"/>
    <use xlink:href="#DejaVuSans-65" x="1994.451172"/>
    <use xlink:href="#DejaVuSans-74" x="2055.974609"/>
    <use xlink:href="#DejaVuSans-20" x="2095.183594"/>
    <use xlink:href="#DejaVuSans-53" x="2126.970703"/>
    <use xlink:href="#DejaVuSans-69" x="2190.447266"/>
    <use xlink:href="#DejaVuSans-7a" x="2218.230469"/>
    <use xlink:href="#DejaVuSans-65" x="2270.720703"/>
    <use xlink:href="#DejaVuSans-20" x="2332.244141"/>
    <use xlink:href="#DejaVuSans-3d" x="2364.03125"/>
    <use xlink:href="#DejaVuSans-20" x="2447.820312"/>
    <use xlink:href="#DejaVuSans-31" x="2479.607422"/>
    <use xlink:href="#DejaVuSans-30" x="2543.230469"/>
    <use xlink:href="#DejaVuSans-30" x="2606.853516"/>
    <use xlink:href="#DejaVuSans-2e" x="2670.476562"/>
    <use xlink:href="#DejaVuSans-30" x="2702.263672"/>
    <use xlink:href="#DejaVuSans-25" x="2765.886719"/>
   </g>
  </g>
 </g>
 <defs>
  <clipPath id="p36d73ce790">
   <rect x="43.78125" y="37.296" width="279" height="202.464"/>
  </clipPath>
 </defs>
</svg>
