<?xml version="1.0" encoding="utf-8" standalone="no"?>
<!DOCTYPE svg PUBLIC "-//W3C//DTD SVG 1.1//EN"
  "http://www.w3.org/Graphics/SVG/1.1/DTD/svg11.dtd">
<svg xmlns:xlink="http://www.w3.org/1999/xlink" width="343.328516pt" height="277.31625pt" viewBox="0 0 343.328516 277.31625" xmlns="http://www.w3.org/2000/svg" version="1.1">
 <metadata>
  <rdf:RDF xmlns:dc="http://purl.org/dc/elements/1.1/" xmlns:cc="http://creativecommons.org/ns#" xmlns:rdf="http://www.w3.org/1999/02/22-rdf-syntax-ns#">
   <cc:Work>
    <dc:type rdf:resource="http://purl.org/dc/dcmitype/StillImage"/>
    <dc:date>2026-06-11T16:16:44.742059</dc:date>
    <dc:format>image/svg+xml</dc:format>
    <dc:creator>
     <cc:Agent>
      <dc:title>Matplotlib v3.8.4, https://matplotlib.org/</dc:title>
     </cc:Agent>
    </dc:creator>
   </cc:Work>
  </rdf:RDF>
 </metadata>
 <defs>
  <style type="text/css">*{stroke-linejoin: round; stroke-linecap: butt}</style>
 </defs>
 <g id="figure_1">
  <g id="patch_1">
   <path d="M 0 277.31625 
L 343.328516 277.31625 
L 343.328516 0 
L 0 0 
z
" style="fill: #ffffff"/>
  </g>
  <g id="axes_1">
   <g id="patch_2">
    <path d="M 43.78125 239.76 
L 322.78125 239.76 
L 322.78125 37.296 
L 43.78125 37.296 
z
" style="fill: #ffffff"/>
   </g>
   <g id="matplotlib.axis_1">
    <g id="xtick_1">
     <g id="line2d_1">
      <path d="M 56.209178 239.76 
L 56.209178 37.296 
" clip-path="url(#p3145715036)" style="fill: none; stroke-dasharray: 2.96,1.28; stroke-dashoffset: 0; stroke: #b0b0b0; stroke-opacity: 0.4; stroke-width: 0.8"/>
     </g>
     <g id="line2d_2">
      <defs>
       <path id="m065a6ca6d0" d="M 0 0 
L 0 3.5 
" style="stroke: #000000; stroke-width: 0.8"/>
      </defs>
      <g>
       <use xlink:href="#m065a6ca6d0" x="56.209178" y="239.76" style="stroke: #000000; stroke-width: 0.8"/>
      </g>
     </g>
     <g id="text_1">
      <!-- 0 -->
      <g transform="translate(53.027928 254.358437) scale(0.1 -0.1)">
       <defs>
        <path id="DejaVuSans-30" d="M 2034 4250 
Q 1547 4250 1301 3770 
Q 1056 3291 1056 2328 
Q 1056 1369 1301 889 
Q 1547 409 2034 409 
Q 2525 409 2770 889 
Q 3016 1369 3016 2328 
Q 3016 3291 2770 3770 
Q 2525 4250 2034 4250 
z
M 2034 4750 
Q 2819 4750 3233 4129 
Q 3647 3509 3647 2328 
Q 3647 1150 3233 529 
Q 2819 -91 2034 -91 
Q 1250 -91 836 529 
Q 422 1150 422 2328 
Q 422 3509 836 4129 
Q 1250 4750 2034 4750 
z
" transform="scale(0.015625)"/>
       </defs>
       <use xlink:href="#DejaVuSans-30"/>
      </g>
     </g>
    </g>
    <g id="xtick_2">
     <g id="line2d_3">
      <path d="M 106.987229 239.76 
L 106.987229 37.296 
" clip-path="url(#p3145715036)" style="fill: none; stroke-dasharray: 2.96,1.28; stroke-dashoffset: 0; stroke: #b0b0b0; stroke-opacity: 0.4; stroke-width: 0.8"/>
     </g>
     <g id="line2d_4">
      <g>
       <use xlink:href="#m065a6ca6d0" x="106.987229" y="239.76" style="stroke: #000000; stroke-width: 0.8"/>
      </g>
     </g>
     <g id="text_2">
      <!-- 200 -->
      <g transform="translate(97.443479 254.358437) scale(0.1 -0.1)">
       <defs>
        <path id="DejaVuSans-32" d="M 1228 531 
L 3431 531 
L 3431 0 
L 469 0 
L 469 531 
Q 828 903 1448 1529 
Q 2069 2156 2228 2338 
Q 2531 2678 2651 2914 
Q 2772 3150 2772 3378 
Q 2772 3750 2511 3984 
Q 2250 4219 1831 4219 
Q 1534 4219 1204 4116 
Q 875 4013 500 3803 
L 500 4441 
Q 881 4594 1212 4672 
Q 1544 4750 1819 4750 
Q 2544 4750 2975 4387 
Q 3406 4025 3406 3419 
Q 3406 3131 3298 2873 
Q 3191 2616 2906 2266 
Q 2828 2175 2409 1742 
Q 1991 1309 1228 531 
z
" transform="scale(0.015625)"/>
       </defs>
       <use xlink:href="#DejaVuSans-32"/>
       <use xlink:href="#DejaVuSans-30" x="63.623047"/>
       <use xlink:href="#DejaVuSans-30" x="127.246094"/>
      </g>
     </g>
    </g>
    <g id="xtick_3">
     <g id="line2d_5">
      <path d="M 157.765279 239.76 
L 157.765279 37.296 
" clip-path="url(#p3145715036)" style="fill: none; stroke-dasharray: 2.96,1.28; stroke-dashoffset: 0; stroke: #b0b0b0; stroke-opacity: 0.4; stroke-width: 0.8"/>
     </g>
     <g id="line2d_6">
      <g>
       <use xlink:href="#m065a6ca6d0" x="157.765279" y="239.76" style="stroke: #000000; stroke-width: 0.8"/>
      </g>
     </g>
     <g id="text_3">
      <!-- 400 -->
      <g transform="translate(148.221529 254.358437) scale(0.1 -0.1)">
       <defs>
        <path id="DejaVuSans-34" d="M 2419 4116 
L 825 1625 
L 2419 1625 
L 2419 4116 
z
M 2253 4666 
L 3047 4666 
L 3047 1625 
L 3713 1625 
L 3713 1100 
L 3047 1100 
L 3047 0 
L 2419 0 
L 2419 1100 
L 313 1100 
L 313 1709 
L 2253 4666 
z
" transform="scale(0.015625)"/>
       </defs>
       <use xlink:href="#DejaVuSans-34"/>
       <use xlink:href="#DejaVuSans-30" x="63.623047"/>
       <use xlink:href="#DejaVuSans-30" x="127.246094"/>
      </g>
     </g>
    </g>
    <g id="xtick_4">
     <g id="line2d_7">
      <path d="M 208.54333 239.76 
L 208.54333 37.296 
" clip-path="url(#p3145715036)" style="fill: none; stroke-dasharray: 2.96,1.28; stroke-dashoffset: 0; stroke: #b0b0b0; stroke-opacity: 0.4; stroke-width: 0.8"/>
     </g>
     <g id="line2d_8">
      <g>
       <use xlink:href="#m065a6ca6d0" x="208.54333" y="239.76" style="stroke: #000000; stroke-width: 0.8"/>
      </g>
     </g>
     <g id="text_4">
      <!-- 600 -->
      <g transform="translate(198.99958 254.358437) scale(0.1 -0.1)">
       <defs>
        <path id="DejaVuSans-36" d="M 2113 2584 
Q 1688 2584 1439 2293 
Q 1191 2003 1191 1497 
Q 1191 994 1439 701 
Q 1688 409 2113 409 
Q 2538 409 2786 701 
Q 3034 994 3034 1497 
Q 3034 2003 2786 2293 
Q 2538 2584 2113 2584 
z
M 3366 4563 
L 3366 3988 
Q 3128 4100 2886 4159 
Q 2644 4219 2406 4219 
Q 1781 4219 1451 3797 
Q 1122 3375 1075 2522 
Q 1259 2794 1537 2939 
Q 1816 3084 2150 3084 
Q 2853 3084 3261 2657 
Q 3669 2231 3669 1497 
Q 3669 778 3244 343 
Q 2819 -91 2113 -91 
Q 1303 -91 875 529 
Q 447 1150 447 2328 
Q 447 3434 972 4092 
Q 1497 4750 2381 4750 
Q 2619 4750 2861 4703 
Q 3103 4656 3366 4563 
z
" transform="scale(0.015625)"/>
       </defs>
       <use xlink:href="#DejaVuSans-36"/>
       <use xlink:href="#DejaVuSans-30" x="63.623047"/>
       <use xlink:href="#DejaVuSans-30" x="127.246094"/>
      </g>
     </g>
    </g>
    <g id="xtick_5">
     <g id="line2d_9">
      <path d="M 259.321381 239.76 
L 259.321381 37.296 
" clip-path="url(#p3145715036)" style="fill: none; stroke-dasharray: 2.96,1.28; stroke-dashoffset: 0; stroke: #b0b0b0; stroke-opacity: 0.4; stroke-width: 0.8"/>
     </g>
     <g id="line2d_10">
      <g>
       <use xlink:href="#m065a6ca6d0" x="259.321381" y="239.76" style="stroke: #000000; stroke-width: 0.8"/>
      </g>
     </g>
     <g id="text_5">
      <!-- 800 -->
      <g transform="translate(249.777631 254.358437) scale(0.1 -0.1)">
       <defs>
        <path id="DejaVuSans-38" d="M 2034 2216 
Q 1584 2216 1326 1975 
Q 1069 1734 1069 1313 
Q 1069 891 1326 650 
Q 1584 409 2034 409 
Q 2484 409 2743 651 
Q 3003 894 3003 1313 
Q 3003 1734 2745 1975 
Q 2488 2216 2034 2216 
z
M 1403 2484 
Q 997 2584 770 2862 
Q 544 3141 544 3541 
Q 544 4100 942 4425 
Q 1341 4750 2034 4750 
Q 2731 4750 3128 4425 
Q 3525 4100 3525 3541 
Q 3525 3141 3298 2862 
Q 3072 2584 2669 2484 
Q 3125 2378 3379 2068 
Q 3634 1759 3634 1313 
Q 3634 634 3220 271 
Q 2806 -91 2034 -91 
Q 1263 -91 848 271 
Q 434 634 434 1313 
Q 434 1759 690 2068 
Q 947 2378 1403 2484 
z
M 1172 3481 
Q 1172 3119 1398 2916 
Q 1625 2713 2034 2713 
Q 2441 2713 2670 2916 
Q 2900 3119 2900 3481 
Q 2900 3844 2670 4047 
Q 2441 4250 2034 4250 
Q 1625 4250 1398 4047 
Q 1172 3844 1172 3481 
z
" transform="scale(0.015625)"/>
       </defs>
       <use xlink:href="#DejaVuSans-38"/>
       <use xlink:href="#DejaVuSans-30" x="63.623047"/>
       <use xlink:href="#DejaVuSans-30" x="127.246094"/>
      </g>
     </g>
    </g>
    <g id="xtick_6">
     <g id="line2d_11">
      <path d="M 310.099432 239.76 
L 310.099432 37.296 
" clip-path="url(#p3145715036)" style="fill: none; stroke-dasharray: 2.96,1.28; stroke-dashoffset: 0; stroke: #b0b0b0; stroke-opacity: 0.4; stroke-width: 0.8"/>
     </g>
     <g id="line2d_12">
      <g>
       <use xlink:href="#m065a6ca6d0" x="310.099432" y="239.76" style="stroke: #000000; stroke-width: 0.8"/>
      </g>
     </g>
     <g id="text_6">
      <!-- 1000 -->
      <g transform="translate(297.374432 254.358437) scale(0.1 -0.1)">
       <defs>
        <path id="DejaVuSans-31" d="M 794 531 
L 1825 531 
L 1825 4091 
L 703 3866 
L 703 4441 
L 1819 4666 
L 2450 4666 
L 2450 531 
L 3481 531 
L 3481 0 
L 794 0 
L 794 531 
z
" transform="scale(0.015625)"/>
       </defs>
       <use xlink:href="#DejaVuSans-31"/>
       <use xlink:href="#DejaVuSans-30" x="63.623047"/>
       <use xlink:href="#DejaVuSans-30" x="127.246094"/>
       <use xlink:href="#DejaVuSans-30" x="190.869141"/>
      </g>
     </g>
    </g>
    <g id="text_7">
     <!-- Epochs -->
     <g transform="translate(165.365625 268.036562) scale(0.1 -0.1)">
      <defs>
       <path id="DejaVuSans-45" d="M 628 4666 
L 3578 4666 
L 3578 4134 
L 1259 4134 
L 1259 2753 
L 3481 2753 
L 3481 2222 
L 1259 2222 
L 1259 531 
L 3634 531 
L 3634 0 
L 628 0 
L 628 4666 
z
" transform="scale(0.015625)"/>
       <path id="DejaVuSans-70" d="M 1159 525 
L 1159 -1331 
L 581 -1331 
L 581 3500 
L 1159 3500 
L 1159 2969 
Q 1341 3281 1617 3432 
Q 1894 3584 2278 3584 
Q 2916 3584 3314 3078 
Q 3713 2572 3713 1747 
Q 3713 922 3314 415 
Q 2916 -91 2278 -91 
Q 1894 -91 1617 61 
Q 1341 213 1159 525 
z
M 3116 1747 
Q 3116 2381 2855 2742 
Q 2594 3103 2138 3103 
Q 1681 3103 1420 2742 
Q 1159 2381 1159 1747 
Q 1159 1113 1420 752 
Q 1681 391 2138 391 
Q 2594 391 2855 752 
Q 3116 1113 3116 1747 
z
" transform="scale(0.015625)"/>
       <path id="DejaVuSans-6f" d="M 1959 3097 
Q 1497 3097 1228 2736 
Q 959 2375 959 1747 
Q 959 1119 1226 758 
Q 1494 397 1959 397 
Q 2419 397 2687 759 
Q 2956 1122 2956 1747 
Q 2956 2369 2687 2733 
Q 2419 3097 1959 3097 
z
M 1959 3584 
Q 2709 3584 3137 3096 
Q 3566 2609 3566 1747 
Q 3566 888 3137 398 
Q 2709 -91 1959 -91 
Q 1206 -91 779 398 
Q 353 888 353 1747 
Q 353 2609 779 3096 
Q 1206 3584 1959 3584 
z
" transform="scale(0.015625)"/>
       <path id="DejaVuSans-63" d="M 3122 3366 
L 3122 2828 
Q 2878 2963 2633 3030 
Q 2388 3097 2138 3097 
Q 1578 3097 1268 2742 
Q 959 2388 959 1747 
Q 959 1106 1268 751 
Q 1578 397 2138 397 
Q 2388 397 2633 464 
Q 2878 531 3122 666 
L 3122 134 
Q 2881 22 2623 -34 
Q 2366 -91 2075 -91 
Q 1284 -91 818 406 
Q 353 903 353 1747 
Q 353 2603 823 3093 
Q 1294 3584 2113 3584 
Q 2378 3584 2631 3529 
Q 2884 3475 3122 3366 
z
" transform="scale(0.015625)"/>
       <path id="DejaVuSans-68" d="M 3513 2113 
L 3513 0 
L 2938 0 
L 2938 2094 
Q 2938 2591 2744 2837 
Q 2550 3084 2163 3084 
Q 1697 3084 1428 2787 
Q 1159 2491 1159 1978 
L 1159 0 
L 581 0 
L 581 4863 
L 1159 4863 
L 1159 2956 
Q 1366 3272 1645 3428 
Q 1925 3584 2291 3584 
Q 2894 3584 3203 3211 
Q 3513 2838 3513 2113 
z
" transform="scale(0.015625)"/>
       <path id="DejaVuSans-73" d="M 2834 3397 
L 2834 2853 
Q 2591 2978 2328 3040 
Q 2066 3103 1784 3103 
Q 1356 3103 1142 2972 
Q 928 2841 928 2578 
Q 928 2378 1081 2264 
Q 1234 2150 1697 2047 
L 1894 2003 
Q 2506 1872 2764 1633 
Q 3022 1394 3022 966 
Q 3022 478 2636 193 
Q 2250 -91 1575 -91 
Q 1294 -91 989 -36 
Q 684 19 347 128 
L 347 722 
Q 666 556 975 473 
Q 1284 391 1588 391 
Q 1994 391 2212 530 
Q 2431 669 2431 922 
Q 2431 1156 2273 1281 
Q 2116 1406 1581 1522 
L 1381 1569 
Q 847 1681 609 1914 
Q 372 2147 372 2553 
Q 372 3047 722 3315 
Q 1072 3584 1716 3584 
Q 2034 3584 2315 3537 
Q 2597 3491 2834 3397 
z
" transform="scale(0.015625)"/>
      </defs>
      <use xlink:href="#DejaVuSans-45"/>
      <use xlink:href="#DejaVuSans-70" x="63.183594"/>
      <use xlink:href="#DejaVuSans-6f" x="126.660156"/>
      <use xlink:href="#DejaVuSans-63" x="187.841797"/>
      <use xlink:href="#DejaVuSans-68" x="242.822266"/>
      <use xlink:href="#DejaVuSans-73" x="306.201172"/>
     </g>
    </g>
   </g>
   <g id="matplotlib.axis_2">
    <g id="ytick_1">
     <g id="line2d_13">
      <path d="M 43.78125 222.016698 
L 322.78125 222.016698 
" clip-path="url(#p3145715036)" style="fill: none; stroke-dasharray: 2.96,1.28; stroke-dashoffset: 0; stroke: #b0b0b0; stroke-opacity: 0.4; stroke-width: 0.8"/>
     </g>
     <g id="line2d_14">
      <defs>
       <path id="md2395d55cc" d="M 0 0 
L -3.5 0 
" style="stroke: #000000; stroke-width: 0.8"/>
      </defs>
      <g>
       <use xlink:href="#md2395d55cc" x="43.78125" y="222.016698" style="stroke: #000000; stroke-width: 0.8"/>
      </g>
     </g>
     <g id="text_8">
      <!-- 0.5 -->
      <g transform="translate(20.878125 225.815917) scale(0.1 -0.1)">
       <defs>
        <path id="DejaVuSans-2e" d="M 684 794 
L 1344 794 
L 1344 0 
L 684 0 
L 684 794 
z
" transform="scale(0.015625)"/>
        <path id="DejaVuSans-35" d="M 691 4666 
L 3169 4666 
L 3169 4134 
L 1269 4134 
L 1269 2991 
Q 1406 3038 1543 3061 
Q 1681 3084 1819 3084 
Q 2600 3084 3056 2656 
Q 3513 2228 3513 1497 
Q 3513 744 3044 326 
Q 2575 -91 1722 -91 
Q 1428 -91 1123 -41 
Q 819 9 494 109 
L 494 744 
Q 775 591 1075 516 
Q 1375 441 1709 441 
Q 2250 441 2565 725 
Q 2881 1009 2881 1497 
Q 2881 1984 2565 2268 
Q 2250 2553 1709 2553 
Q 1456 2553 1204 2497 
Q 953 2441 691 2322 
L 691 4666 
z
" transform="scale(0.015625)"/>
       </defs>
       <use xlink:href="#DejaVuSans-30"/>
       <use xlink:href="#DejaVuSans-2e" x="63.623047"/>
       <use xlink:href="#DejaVuSans-35" x="95.410156"/>
      </g>
     </g>
    </g>
    <g id="ytick_2">
     <g id="line2d_15">
      <path d="M 43.78125 185.957252 
L 322.78125 185.957252 
" clip-path="url(#p3145715036)" style="fill: none; stroke-dasharray: 2.96,1.28; stroke-dashoffset: 0; stroke: #b0b0b0; stroke-opacity: 0.4; stroke-width: 0.8"/>
     </g>
     <g id="line2d_16">
      <g>
       <use xlink:href="#md2395d55cc" x="43.78125" y="185.957252" style="stroke: #000000; stroke-width: 0.8"/>
      </g>
     </g>
     <g id="text_9">
      <!-- 0.6 -->
      <g transform="translate(20.878125 189.75647) scale(0.1 -0.1)">
       <use xlink:href="#DejaVuSans-30"/>
       <use xlink:href="#DejaVuSans-2e" x="63.623047"/>
       <use xlink:href="#DejaVuSans-36" x="95.410156"/>
      </g>
     </g>
    </g>
    <g id="ytick_3">
     <g id="line2d_17">
      <path d="M 43.78125 149.897805 
L 322.78125 149.897805 
" clip-path="url(#p3145715036)" style="fill: none; stroke-dasharray: 2.96,1.28; stroke-dashoffset: 0; stroke: #b0b0b0; stroke-opacity: 0.4; stroke-width: 0.8"/>
     </g>
     <g id="line2d_18">
      <g>
       <use xlink:href="#md2395d55cc" x="43.78125" y="149.897805" style="stroke: #000000; stroke-width: 0.8"/>
      </g>
     </g>
     <g id="text_10">
      <!-- 0.7 -->
      <g transform="translate(20.878125 153.697024) scale(0.1 -0.1)">
       <defs>
        <path id="DejaVuSans-37" d="M 525 4666 
L 3525 4666 
L 3525 4397 
L 1831 0 
L 1172 0 
L 2766 4134 
L 525 4134 
L 525 4666 
z
" transform="scale(0.015625)"/>
       </defs>
       <use xlink:href="#DejaVuSans-30"/>
       <use xlink:href="#DejaVuSans-2e" x="63.623047"/>
       <use xlink:href="#DejaVuSans-37" x="95.410156"/>
      </g>
     </g>
    </g>
    <g id="ytick_4">
     <g id="line2d_19">
      <path d="M 43.78125 113.838359 
L 322.78125 113.838359 
" clip-path="url(#p3145715036)" style="fill: none; stroke-dasharray: 2.96,1.28; stroke-dashoffset: 0; stroke: #b0b0b0; stroke-opacity: 0.4; stroke-width: 0.8"/>
     </g>
     <g id="line2d_20">
      <g>
       <use xlink:href="#md2395d55cc" x="43.78125" y="113.838359" style="stroke: #000000; stroke-width: 0.8"/>
      </g>
     </g>
     <g id="text_11">
      <!-- 0.8 -->
      <g transform="translate(20.878125 117.637578) scale(0.1 -0.1)">
       <use xlink:href="#DejaVuSans-30"/>
       <use xlink:href="#DejaVuSans-2e" x="63.623047"/>
       <use xlink:href="#DejaVuSans-38" x="95.410156"/>
      </g>
     </g>
    </g>
    <g id="ytick_5">
     <g id="line2d_21">
      <path d="M 43.78125 77.778912 
L 322.78125 77.778912 
" clip-path="url(#p3145715036)" style="fill: none; stroke-dasharray: 2.96,1.28; stroke-dashoffset: 0; stroke: #b0b0b0; stroke-opacity: 0.4; stroke-width: 0.8"/>
     </g>
     <g id="line2d_22">
      <g>
       <use xlink:href="#md2395d55cc" x="43.78125" y="77.778912" style="stroke: #000000; stroke-width: 0.8"/>
      </g>
     </g>
     <g id="text_12">
      <!-- 0.9 -->
      <g transform="translate(20.878125 81.578131) scale(0.1 -0.1)">
       <defs>
        <path id="DejaVuSans-39" d="M 703 97 
L 703 672 
Q 941 559 1184 500 
Q 1428 441 1663 441 
Q 2288 441 2617 861 
Q 2947 1281 2994 2138 
Q 2813 1869 2534 1725 
Q 2256 1581 1919 1581 
Q 1219 1581 811 2004 
Q 403 2428 403 3163 
Q 403 3881 828 4315 
Q 1253 4750 1959 4750 
Q 2769 4750 3195 4129 
Q 3622 3509 3622 2328 
Q 3622 1225 3098 567 
Q 2575 -91 1691 -91 
Q 1453 -91 1209 -44 
Q 966 3 703 97 
z
M 1959 2075 
Q 2384 2075 2632 2365 
Q 2881 2656 2881 3163 
Q 2881 3666 2632 3958 
Q 2384 4250 1959 4250 
Q 1534 4250 1286 3958 
Q 1038 3666 1038 3163 
Q 1038 2656 1286 2365 
Q 1534 2075 1959 2075 
z
" transform="scale(0.015625)"/>
       </defs>
       <use xlink:href="#DejaVuSans-30"/>
       <use xlink:href="#DejaVuSans-2e" x="63.623047"/>
       <use xlink:href="#DejaVuSans-39" x="95.410156"/>
      </g>
     </g>
    </g>
    <g id="ytick_6">
     <g id="line2d_23">
      <path d="M 43.78125 41.719466 
L 322.78125 41.719466 
" clip-path="url(#p3145715036)" style="fill: none; stroke-dasharray: 2.96,1.28; stroke-dashoffset: 0; stroke: #b0b0b0; stroke-opacity: 0.4; stroke-width: 0.8"/>
     </g>
     <g id="line2d_24">
      <g>
       <use xlink:href="#md2395d55cc" x="43.78125" y="41.719466" style="stroke: #000000; stroke-width: 0.8"/>
      </g>
     </g>
     <g id="text_13">
      <!-- 1.0 -->
      <g transform="translate(20.878125 45.518685) scale(0.1 -0.1)">
       <use xlink:href="#DejaVuSans-31"/>
       <use xlink:href="#DejaVuSans-2e" x="63.623047"/>
       <use xlink:href="#DejaVuSans-30" x="95.410156"/>
      </g>
     </g>
    </g>
    <g id="text_14">
     <!-- Accuracy -->
     <g transform="translate(14.798438 161.356125) rotate(-90) scale(0.1 -0.1)">
      <defs>
       <path id="DejaVuSans-41" d="M 2188 4044 
L 1331 1722 
L 3047 1722 
L 2188 4044 
z
M 1831 4666 
L 2547 4666 
L 4325 0 
L 3669 0 
L 3244 1197 
L 1141 1197 
L 716 0 
L 50 0 
L 1831 4666 
z
" transform="scale(0.015625)"/>
       <path id="DejaVuSans-75" d="M 544 1381 
L 544 3500 
L 1119 3500 
L 1119 1403 
Q 1119 906 1312 657 
Q 1506 409 1894 409 
Q 2359 409 2629 706 
Q 2900 1003 2900 1516 
L 2900 3500 
L 3475 3500 
L 3475 0 
L 2900 0 
L 2900 538 
Q 2691 219 2414 64 
Q 2138 -91 1772 -91 
Q 1169 -91 856 284 
Q 544 659 544 1381 
z
M 1991 3584 
L 1991 3584 
z
" transform="scale(0.015625)"/>
       <path id="DejaVuSans-72" d="M 2631 2963 
Q 2534 3019 2420 3045 
Q 2306 3072 2169 3072 
Q 1681 3072 1420 2755 
Q 1159 2438 1159 1844 
L 1159 0 
L 581 0 
L 581 3500 
L 1159 3500 
L 1159 2956 
Q 1341 3275 1631 3429 
Q 1922 3584 2338 3584 
Q 2397 3584 2469 3576 
Q 2541 3569 2628 3553 
L 2631 2963 
z
" transform="scale(0.015625)"/>
       <path id="DejaVuSans-61" d="M 2194 1759 
Q 1497 1759 1228 1600 
Q 959 1441 959 1056 
Q 959 750 1161 570 
Q 1363 391 1709 391 
Q 2188 391 2477 730 
Q 2766 1069 2766 1631 
L 2766 1759 
L 2194 1759 
z
M 3341 1997 
L 3341 0 
L 2766 0 
L 2766 531 
Q 2569 213 2275 61 
Q 1981 -91 1556 -91 
Q 1019 -91 701 211 
Q 384 513 384 1019 
Q 384 1609 779 1909 
Q 1175 2209 1959 2209 
L 2766 2209 
L 2766 2266 
Q 2766 2663 2505 2880 
Q 2244 3097 1772 3097 
Q 1472 3097 1187 3025 
Q 903 2953 641 2809 
L 641 3341 
Q 956 3463 1253 3523 
Q 1550 3584 1831 3584 
Q 2591 3584 2966 3190 
Q 3341 2797 3341 1997 
z
" transform="scale(0.015625)"/>
       <path id="DejaVuSans-79" d="M 2059 -325 
Q 1816 -950 1584 -1140 
Q 1353 -1331 966 -1331 
L 506 -1331 
L 506 -850 
L 844 -850 
Q 1081 -850 1212 -737 
Q 1344 -625 1503 -206 
L 1606 56 
L 191 3500 
L 800 3500 
L 1894 763 
L 2988 3500 
L 3597 3500 
L 2059 -325 
z
" transform="scale(0.015625)"/>
      </defs>
      <use xlink:href="#DejaVuSans-41"/>
      <use xlink:href="#DejaVuSans-63" x="66.658203"/>
      <use xlink:href="#DejaVuSans-63" x="121.638672"/>
      <use xlink:href="#DejaVuSans-75" x="176.619141"/>
      <use xlink:href="#DejaVuSans-72" x="239.998047"/>
      <use xlink:href="#DejaVuSans-61" x="281.111328"/>
      <use xlink:href="#DejaVuSans-63" x="342.390625"/>
      <use xlink:href="#DejaVuSans-79" x="397.371094"/>
     </g>
    </g>
   </g>
   <g id="line2d_25">
    <path d="M 56.463068 221.609941 
L 56.716958 217.745696 
L 56.970849 216.830476 
L 57.224739 219.576135 
L 57.478629 212.152717 
L 58.2403 218.050769 
L 58.49419 217.033866 
L 58.74808 215.5085 
L 59.001971 212.254401 
L 59.255861 207.474958 
L 59.509751 208.898618 
L 59.763641 209.508764 
L 60.271422 202.187052 
L 60.525312 192.52646 
L 60.779202 176.967816 
L 61.286983 124.393833 
L 61.794764 107.20814 
L 62.048654 104.360798 
L 62.302544 103.852357 
L 62.556434 97.954305 
L 63.064215 93.581619 
L 63.318105 94.09006 
L 63.571995 91.547812 
L 63.825886 92.971473 
L 64.333666 85.243003 
L 64.587556 87.27681 
L 65.095337 84.531152 
L 65.349227 85.039614 
L 65.857008 81.378758 
L 66.110898 83.107491 
L 66.364788 82.293977 
L 66.618678 79.650025 
L 66.872569 82.497345 
L 67.126459 78.734805 
L 67.380349 79.344952 
L 67.634239 81.277074 
L 67.88813 78.938195 
L 68.14202 79.243246 
L 68.39591 77.20944 
L 68.6498 82.293977 
L 68.903691 78.836489 
L 69.157581 79.955098 
L 69.411471 73.955341 
L 69.665361 78.226343 
L 69.919252 76.497609 
L 70.173142 76.904366 
L 70.427032 75.277317 
L 70.680922 77.107756 
L 70.934813 76.090852 
L 71.188703 73.4469 
L 71.442593 73.548584 
L 71.696483 75.58239 
L 71.950374 72.735069 
L 72.204264 74.15873 
L 72.458154 74.463803 
L 72.965935 71.514777 
L 73.219825 73.955341 
L 73.473715 72.226607 
L 73.727605 72.429996 
L 73.981496 71.514777 
L 74.235386 72.633364 
L 74.489276 75.887463 
L 74.743166 71.311388 
L 75.250947 74.15873 
L 75.504837 71.514777 
L 75.758727 73.141826 
L 76.012618 72.023239 
L 76.266508 71.718166 
L 76.520398 72.328312 
L 76.774288 70.497874 
L 77.028179 71.616461 
L 77.282069 70.294484 
L 77.535959 71.81985 
L 77.78985 67.345458 
L 78.04374 70.701263 
L 78.29763 70.39619 
L 78.55152 66.125187 
L 78.805411 67.040407 
L 79.059301 69.887727 
L 79.567081 67.142091 
L 79.820972 68.158994 
L 80.074862 69.887727 
L 80.582642 68.260678 
L 80.836533 67.955605 
L 81.090423 69.074213 
L 81.344313 67.040407 
L 81.598203 69.48097 
L 81.852094 69.48097 
L 82.359874 67.040407 
L 82.613764 69.786044 
L 82.867655 68.260678 
L 83.629325 60.430525 
L 83.883216 62.057553 
L 84.137106 62.871088 
L 84.390996 62.260942 
L 84.644886 64.091381 
L 85.152667 60.532209 
L 85.406557 62.057553 
L 85.660447 61.345723 
L 86.168228 62.260942 
L 86.422118 61.650796 
L 86.676008 60.023746 
L 87.437679 64.396454 
L 87.691569 61.04065 
L 87.94546 60.227136 
L 88.19935 62.769404 
L 88.45324 60.938966 
L 88.70713 59.922062 
L 88.961021 58.295013 
L 89.214911 60.938966 
L 89.468801 58.70177 
L 89.722691 59.4136 
L 89.976582 61.955869 
L 90.230472 63.074478 
L 90.992143 59.922062 
L 91.246033 60.125452 
L 92.007704 63.481235 
L 92.261594 62.667699 
L 92.515484 64.396454 
L 92.769374 58.498402 
L 93.023265 60.532209 
L 93.531045 62.464331 
L 93.784936 58.803475 
L 94.292716 60.430525 
L 94.546606 63.786308 
L 94.800497 59.718673 
L 95.054387 59.108548 
L 95.308277 62.260942 
L 95.562167 58.396697 
L 95.816058 57.176426 
L 96.069948 55.142619 
L 96.323838 58.295013 
L 97.085509 54.329084 
L 97.339399 54.634157 
L 97.84718 57.583183 
L 98.10107 56.667963 
L 98.35496 54.93923 
L 98.60885 55.549376 
L 98.862741 53.820643 
L 99.370521 55.447671 
L 99.624411 57.98994 
L 99.878302 53.108791 
L 100.132192 53.922327 
L 100.386082 53.820643 
L 100.639972 54.532473 
L 100.893863 58.193329 
L 101.147753 54.735841 
L 101.401643 56.566279 
L 101.655533 54.634157 
L 101.909424 53.617254 
L 102.163314 55.752744 
L 102.417204 56.871353 
L 102.671094 54.430768 
L 102.924985 54.837546 
L 103.178875 54.634157 
L 103.432765 55.040914 
L 103.686655 54.532473 
L 103.940546 54.837546 
L 104.194436 55.752744 
L 104.448326 58.600086 
L 104.956107 55.142619 
L 105.209997 53.007107 
L 105.463887 55.447671 
L 105.717777 54.532473 
L 105.971668 56.057817 
L 106.225558 53.617254 
L 106.479448 53.413864 
L 106.733338 57.379793 
L 106.987229 54.532473 
L 107.241119 56.36289 
L 107.495009 56.057817 
L 107.748899 56.057817 
L 108.00279 55.549376 
L 108.25668 55.447671 
L 108.51057 54.634157 
L 108.76446 52.193593 
L 109.018351 53.007107 
L 109.526131 52.60035 
L 109.780021 51.481763 
L 110.033912 50.871617 
L 110.287802 52.498666 
L 110.795583 53.31218 
L 111.049473 52.396961 
L 111.303363 52.295277 
L 111.557253 51.278374 
L 111.811144 53.51557 
L 112.065034 51.685131 
L 112.572814 52.702034 
L 112.826705 51.583447 
L 113.080595 52.60035 
L 113.334485 50.363154 
L 113.588375 51.685131 
L 113.842266 52.091888 
L 114.096156 53.108791 
L 114.350046 51.481763 
L 114.603936 52.091888 
L 114.857827 51.88852 
L 115.111717 53.210497 
L 115.365607 51.17669 
L 115.619497 51.380058 
L 115.873388 53.51557 
L 116.127278 53.108791 
L 116.381168 53.007107 
L 116.635058 53.922327 
L 116.888949 51.88852 
L 117.142839 51.786815 
L 117.396729 52.498666 
L 117.650619 49.651324 
L 117.90451 52.702034 
L 118.1584 52.702034 
L 118.41229 51.074985 
L 118.66618 50.363154 
L 118.920071 52.193593 
L 119.173961 52.803739 
L 119.427851 50.566544 
L 119.681741 51.685131 
L 119.935632 51.17669 
L 120.189522 51.278374 
L 120.443412 51.786815 
L 120.697302 51.074985 
L 120.951193 51.685131 
L 121.205083 54.125716 
L 121.458973 51.990204 
L 121.712863 52.803739 
L 121.966754 52.193593 
L 122.220644 52.803739 
L 122.728424 51.074985 
L 122.982315 51.278374 
L 123.236205 48.736105 
L 123.490095 53.31218 
L 123.743985 51.380058 
L 123.997876 51.17669 
L 124.251766 50.159787 
L 124.505656 50.261471 
L 124.759546 50.769911 
L 125.267327 50.668228 
L 125.521217 51.17669 
L 125.775107 51.17669 
L 126.028998 48.939494 
L 126.282888 54.430768 
L 126.536778 50.464838 
L 126.790669 51.786815 
L 127.044559 50.871617 
L 127.298449 54.125716 
L 127.552339 51.685131 
L 127.80623 51.074985 
L 128.06012 52.295277 
L 128.31401 51.380058 
L 128.821791 51.88852 
L 129.075681 52.091888 
L 129.329571 51.481763 
L 129.583461 50.464838 
L 129.837352 50.261471 
L 130.091242 52.193593 
L 130.345132 52.193593 
L 130.599022 49.854714 
L 130.852913 50.769911 
L 131.106803 49.651324 
L 131.360693 50.261471 
L 131.614583 50.159787 
L 131.868474 51.278374 
L 132.122364 50.973301 
L 132.376254 48.634421 
L 132.630144 51.786815 
L 133.137925 52.091888 
L 133.391815 50.261471 
L 133.645705 51.17669 
L 133.899596 49.651324 
L 134.407376 49.956397 
L 134.661266 52.193593 
L 134.915157 49.854714 
L 135.169047 50.668228 
L 135.422937 49.956397 
L 135.676827 50.871617 
L 135.930718 49.854714 
L 136.184608 49.54964 
L 136.438498 51.380058 
L 136.692388 50.058081 
L 136.946279 51.17669 
L 137.200169 51.786815 
L 137.707949 50.159787 
L 137.96184 50.668228 
L 138.21573 52.091888 
L 138.46962 50.566544 
L 138.72351 50.058081 
L 138.977401 50.363154 
L 139.231291 51.17669 
L 139.485181 48.83781 
L 139.992962 50.973301 
L 140.500742 50.668228 
L 140.754632 49.651324 
L 141.262413 49.346251 
L 141.770193 50.769911 
L 142.024084 52.396961 
L 142.277974 51.990204 
L 142.531864 49.651324 
L 142.785755 50.566544 
L 143.039645 50.464838 
L 143.293535 51.278374 
L 143.547425 50.464838 
L 143.801316 50.973301 
L 144.055206 49.447935 
L 144.309096 48.634421 
L 144.562986 49.651324 
L 144.816877 49.447935 
L 145.070767 50.871617 
L 145.324657 51.17669 
L 145.578547 49.244567 
L 145.832438 51.380058 
L 146.086328 50.159787 
L 146.340218 51.685131 
L 146.594108 50.159787 
L 146.847999 51.074985 
L 147.101889 50.261471 
L 147.355779 48.634421 
L 147.609669 49.753008 
L 147.86356 49.956397 
L 148.37134 47.922591 
L 148.62523 48.024275 
L 148.879121 50.973301 
L 149.133011 50.871617 
L 149.386901 49.854714 
L 149.640791 49.346251 
L 150.148572 49.244567 
L 150.402462 50.261471 
L 150.656352 50.058081 
L 150.910243 50.973301 
L 151.164133 49.447935 
L 151.418023 51.278374 
L 151.671913 50.363154 
L 151.925804 48.736105 
L 152.433584 49.854714 
L 152.687474 49.447935 
L 152.941365 50.363154 
L 153.195255 51.786815 
L 153.449145 51.278374 
L 153.703035 49.346251 
L 153.956926 50.363154 
L 154.210816 49.244567 
L 154.972487 51.786815 
L 155.226377 49.142862 
L 155.480267 49.447935 
L 155.988048 50.871617 
L 156.241938 49.346251 
L 156.749718 48.329348 
L 157.003609 49.041178 
L 157.257499 51.481763 
L 157.765279 49.447935 
L 158.01917 49.346251 
L 158.27306 51.17669 
L 158.52695 48.329348 
L 159.034731 51.685131 
L 159.542511 49.041178 
L 159.796402 49.346251 
L 160.050292 48.431032 
L 160.811963 50.566544 
L 161.065853 49.854714 
L 161.319743 49.956397 
L 161.573633 49.041178 
L 161.827524 48.634421 
L 162.081414 48.532737 
L 162.335304 49.854714 
L 162.589194 51.786815 
L 162.843085 50.261471 
L 163.096975 51.583447 
L 163.350865 50.261471 
L 163.604755 49.956397 
L 164.112536 51.380058 
L 164.366426 50.058081 
L 164.620316 49.753008 
L 164.874207 51.17669 
L 165.128097 51.481763 
L 165.381987 50.566544 
L 165.635877 50.566544 
L 165.889768 49.956397 
L 166.143658 50.769911 
L 166.651438 49.753008 
L 166.905329 51.481763 
L 167.159219 50.261471 
L 167.413109 51.074985 
L 167.92089 47.922591 
L 168.42867 50.363154 
L 168.68256 50.871617 
L 168.936451 49.854714 
L 169.190341 49.854714 
L 169.444231 50.159787 
L 169.698121 49.54964 
L 169.952012 50.566544 
L 170.205902 49.956397 
L 170.459792 50.973301 
L 170.713682 51.074985 
L 170.967573 50.769911 
L 171.475353 51.990204 
L 171.729243 50.769911 
L 171.983134 48.532737 
L 172.237024 48.939494 
L 172.490914 50.566544 
L 172.744804 50.363154 
L 172.998695 49.753008 
L 173.252585 51.074985 
L 173.760365 48.736105 
L 174.014256 50.261471 
L 174.268146 48.532737 
L 174.522036 50.769911 
L 174.775926 51.685131 
L 175.029817 53.108791 
L 175.283707 50.668228 
L 175.537597 50.261471 
L 175.791488 50.464838 
L 176.045378 51.88852 
L 176.299268 48.939494 
L 176.553158 51.481763 
L 177.060939 48.431032 
L 177.314829 48.83781 
L 177.568719 48.83781 
L 178.33039 50.566544 
L 178.58428 49.651324 
L 178.838171 50.363154 
L 179.092061 50.363154 
L 179.345951 49.54964 
L 179.599841 49.854714 
L 179.853732 48.939494 
L 180.107622 49.753008 
L 180.361512 48.83781 
L 180.615402 49.753008 
L 180.869293 49.041178 
L 181.123183 49.651324 
L 181.377073 49.54964 
L 181.630963 50.261471 
L 181.884854 50.363154 
L 182.138744 50.159787 
L 182.392634 50.668228 
L 182.646524 49.142862 
L 182.900415 50.159787 
L 183.154305 49.041178 
L 183.408195 50.668228 
L 183.662085 48.736105 
L 183.915976 51.380058 
L 184.169866 48.736105 
L 184.423756 49.854714 
L 184.677646 50.363154 
L 185.185427 48.939494 
L 185.439317 49.54964 
L 185.693207 49.041178 
L 185.947098 50.058081 
L 186.200988 48.736105 
L 186.454878 50.668228 
L 186.708768 48.939494 
L 186.962659 48.83781 
L 187.216549 50.871617 
L 187.470439 50.363154 
L 187.724329 47.820885 
L 188.23211 49.142862 
L 188.486 49.142862 
L 188.73989 50.769911 
L 189.247671 49.142862 
L 189.501561 49.142862 
L 189.755451 49.854714 
L 190.009342 49.244567 
L 190.263232 50.973301 
L 190.517122 49.447935 
L 190.771012 49.244567 
L 191.024903 50.464838 
L 191.278793 49.346251 
L 191.532683 50.566544 
L 191.786574 50.159787 
L 192.040464 49.142862 
L 192.294354 49.651324 
L 192.548244 47.617518 
L 193.056025 50.668228 
L 193.817696 49.142862 
L 194.071586 48.939494 
L 194.325476 52.091888 
L 194.833257 49.447935 
L 195.341037 50.159787 
L 196.102708 50.159787 
L 196.610488 49.54964 
L 197.118269 51.88852 
L 197.626049 48.329348 
L 197.87994 48.939494 
L 198.13383 49.142862 
L 198.895501 51.17669 
L 199.149391 48.939494 
L 199.403281 49.142862 
L 199.657171 49.142862 
L 199.911062 48.329348 
L 200.164952 49.244567 
L 200.418842 50.769911 
L 200.672732 49.041178 
L 200.926623 49.346251 
L 201.180513 49.346251 
L 201.434403 50.464838 
L 201.688293 50.363154 
L 201.942184 49.244567 
L 202.196074 49.956397 
L 202.449964 47.617518 
L 202.703854 51.17669 
L 202.957745 48.329348 
L 203.211635 49.142862 
L 203.465525 50.363154 
L 203.719415 49.54964 
L 203.973306 49.54964 
L 204.227196 50.159787 
L 204.481086 49.041178 
L 204.734976 49.346251 
L 204.988867 48.736105 
L 205.242757 48.532737 
L 205.496647 50.159787 
L 205.750537 49.854714 
L 206.004428 48.736105 
L 206.258318 49.956397 
L 206.512208 50.566544 
L 206.766098 49.041178 
L 207.019989 50.973301 
L 207.273879 48.736105 
L 207.527769 49.753008 
L 207.78166 49.142862 
L 208.03555 49.244567 
L 208.28944 51.685131 
L 208.54333 47.922591 
L 208.797221 50.363154 
L 209.305001 49.041178 
L 209.558891 50.769911 
L 209.812782 50.159787 
L 210.066672 47.515834 
L 210.320562 49.956397 
L 210.828343 48.83781 
L 211.082233 50.363154 
L 211.336123 49.651324 
L 211.590013 50.058081 
L 211.843904 48.024275 
L 212.351684 50.668228 
L 212.605574 49.142862 
L 212.859465 50.058081 
L 213.113355 49.753008 
L 213.367245 47.719202 
L 213.621135 50.464838 
L 214.128916 48.83781 
L 214.382806 50.769911 
L 214.636696 50.159787 
L 214.890587 50.566544 
L 215.144477 49.447935 
L 215.398367 49.956397 
L 215.652257 48.227664 
L 215.906148 50.769911 
L 216.160038 50.058081 
L 216.413928 48.634421 
L 216.667818 50.058081 
L 216.921709 48.939494 
L 217.175599 49.346251 
L 217.429489 48.939494 
L 217.683379 49.651324 
L 217.93727 50.871617 
L 218.19116 49.346251 
L 218.44505 49.854714 
L 218.69894 50.769911 
L 218.952831 49.54964 
L 219.206721 49.651324 
L 219.460611 49.956397 
L 219.714501 52.193593 
L 219.968392 47.515834 
L 220.476172 50.769911 
L 220.730062 49.447935 
L 220.983953 51.278374 
L 221.237843 48.939494 
L 221.491733 49.244567 
L 221.745623 51.88852 
L 221.999514 49.142862 
L 222.253404 51.278374 
L 222.507294 49.54964 
L 222.761184 48.83781 
L 223.015075 49.244567 
L 223.268965 48.736105 
L 223.522855 49.447935 
L 223.776745 48.431032 
L 224.030636 50.871617 
L 224.538416 49.346251 
L 224.792307 49.346251 
L 225.046197 50.261471 
L 225.300087 49.041178 
L 225.807868 48.939494 
L 226.061758 49.651324 
L 226.315648 47.820885 
L 226.569538 47.820885 
L 226.823429 50.058081 
L 227.077319 48.227664 
L 227.331209 48.736105 
L 227.585099 50.566544 
L 227.83899 48.431032 
L 228.09288 51.17669 
L 228.34677 51.481763 
L 228.60066 51.380058 
L 228.854551 50.058081 
L 229.108441 50.668228 
L 229.870112 48.634421 
L 230.124002 48.532737 
L 230.377892 49.651324 
L 230.631782 49.651324 
L 230.885673 49.346251 
L 231.139563 50.159787 
L 231.393453 50.159787 
L 231.647343 50.668228 
L 231.901234 50.566544 
L 232.155124 49.447935 
L 232.409014 50.159787 
L 232.662904 50.464838 
L 232.916795 50.058081 
L 233.170685 48.532737 
L 233.424575 48.83781 
L 233.678465 49.753008 
L 233.932356 48.125959 
L 234.186246 50.159787 
L 234.440136 50.363154 
L 234.694026 49.142862 
L 234.947917 48.634421 
L 235.201807 49.854714 
L 235.455697 49.041178 
L 235.709587 49.447935 
L 235.963478 51.17669 
L 236.217368 49.651324 
L 236.471258 50.769911 
L 236.725148 50.668228 
L 237.232929 48.634421 
L 237.486819 48.227664 
L 237.740709 50.464838 
L 237.9946 48.227664 
L 238.50238 50.668228 
L 238.75627 49.244567 
L 239.010161 49.854714 
L 239.264051 49.142862 
L 239.517941 49.142862 
L 239.771831 48.634421 
L 240.279612 49.753008 
L 240.533502 49.142862 
L 241.041283 50.159787 
L 241.295173 49.956397 
L 241.549063 50.363154 
L 241.802954 48.939494 
L 242.056844 48.83781 
L 242.310734 49.142862 
L 242.564624 50.363154 
L 242.818515 48.431032 
L 243.072405 50.363154 
L 243.580185 49.956397 
L 243.834076 49.244567 
L 244.087966 48.939494 
L 244.341856 50.159787 
L 244.595746 50.566544 
L 244.849637 50.668228 
L 245.103527 49.447935 
L 245.611307 50.566544 
L 245.865198 50.058081 
L 246.119088 48.634421 
L 246.372978 50.159787 
L 246.626868 48.634421 
L 246.880759 48.736105 
L 247.134649 51.17669 
L 247.388539 51.88852 
L 247.642429 49.651324 
L 247.89632 48.532737 
L 248.15021 48.83781 
L 248.4041 48.532737 
L 248.65799 49.346251 
L 249.165771 49.854714 
L 249.419661 48.634421 
L 249.673551 48.634421 
L 249.927442 50.058081 
L 250.181332 50.058081 
L 250.435222 49.651324 
L 250.689112 48.83781 
L 250.943003 49.041178 
L 251.196893 49.956397 
L 251.450783 49.041178 
L 251.704673 52.091888 
L 252.212454 49.346251 
L 252.466344 48.227664 
L 252.720234 50.973301 
L 252.974125 49.854714 
L 253.228015 51.278374 
L 253.481905 50.668228 
L 253.735795 48.431032 
L 253.989686 49.753008 
L 254.243576 47.414128 
L 254.497466 49.54964 
L 254.751356 50.464838 
L 255.005247 50.566544 
L 255.259137 49.651324 
L 255.513027 49.244567 
L 255.766917 47.719202 
L 256.274698 49.753008 
L 256.528588 50.261471 
L 256.782479 48.634421 
L 257.036369 48.83781 
L 257.290259 50.363154 
L 257.544149 48.024275 
L 258.05193 49.447935 
L 258.30582 47.719202 
L 258.813601 49.651324 
L 259.067491 49.854714 
L 259.321381 48.634421 
L 259.575271 50.261471 
L 259.829162 50.058081 
L 260.336942 49.041178 
L 260.590832 49.346251 
L 260.844723 49.244567 
L 261.098613 48.532737 
L 261.352503 50.769911 
L 261.606393 50.769911 
L 261.860284 49.041178 
L 262.114174 50.566544 
L 262.368064 48.83781 
L 262.621954 50.058081 
L 262.875845 48.736105 
L 263.129735 49.854714 
L 263.383625 49.244567 
L 263.637515 49.956397 
L 263.891406 49.753008 
L 264.145296 48.83781 
L 264.399186 49.753008 
L 264.653076 49.651324 
L 264.906967 49.244567 
L 265.160857 50.159787 
L 265.668637 49.041178 
L 265.922528 49.244567 
L 266.176418 50.363154 
L 266.430308 48.532737 
L 266.684198 49.041178 
L 266.938089 50.973301 
L 267.191979 49.346251 
L 267.445869 50.261471 
L 267.699759 50.363154 
L 267.95365 49.854714 
L 268.20754 50.261471 
L 268.71532 48.227664 
L 269.223101 50.566544 
L 269.476991 50.159787 
L 269.730881 50.973301 
L 269.984772 49.346251 
L 270.238662 49.54964 
L 270.492552 47.109055 
L 270.746442 48.83781 
L 271.000333 49.54964 
L 271.254223 49.54964 
L 271.508113 46.498909 
L 271.762003 48.227664 
L 272.015894 47.617518 
L 272.269784 49.651324 
L 272.523674 48.532737 
L 272.777564 49.244567 
L 273.031455 49.142862 
L 273.285345 50.464838 
L 273.539235 50.566544 
L 273.793126 50.261471 
L 274.047016 49.244567 
L 274.300906 50.668228 
L 274.554796 48.83781 
L 274.808687 49.753008 
L 275.062577 49.142862 
L 275.316467 49.041178 
L 275.824248 49.956397 
L 276.078138 49.142862 
L 276.332028 50.159787 
L 276.585918 48.532737 
L 276.839809 51.583447 
L 277.093699 51.074985 
L 277.347589 48.83781 
L 277.601479 52.60035 
L 277.85537 49.447935 
L 278.10926 48.532737 
L 278.36315 49.753008 
L 278.61704 50.261471 
L 278.870931 49.346251 
L 279.124821 49.54964 
L 279.378711 50.363154 
L 279.886492 49.54964 
L 280.140382 49.753008 
L 280.648162 48.431032 
L 280.902053 49.753008 
L 281.409833 48.634421 
L 281.663723 49.041178 
L 281.917614 50.464838 
L 282.171504 48.634421 
L 282.425394 48.125959 
L 282.679284 48.329348 
L 282.933175 51.17669 
L 283.187065 47.922591 
L 283.440955 49.54964 
L 283.694845 48.939494 
L 283.948736 49.447935 
L 284.202626 48.939494 
L 284.456516 50.363154 
L 284.710406 48.939494 
L 284.964297 48.634421 
L 285.218187 48.532737 
L 285.472077 49.753008 
L 285.725967 48.227664 
L 285.979858 50.769911 
L 286.233748 49.753008 
L 286.487638 50.058081 
L 286.741528 48.939494 
L 286.995419 49.244567 
L 287.249309 48.736105 
L 287.503199 49.54964 
L 287.757089 48.634421 
L 288.01098 49.854714 
L 288.26487 48.532737 
L 288.51876 48.431032 
L 288.77265 49.956397 
L 289.026541 50.363154 
L 289.280431 49.244567 
L 289.534321 49.244567 
L 289.788212 49.753008 
L 290.042102 48.532737 
L 290.549882 50.871617 
L 290.803773 48.431032 
L 291.057663 49.447935 
L 291.311553 49.346251 
L 291.565443 49.447935 
L 291.819334 50.566544 
L 292.073224 50.058081 
L 292.327114 51.278374 
L 292.581004 49.244567 
L 292.834895 51.786815 
L 293.088785 49.244567 
L 293.342675 49.753008 
L 293.596565 49.447935 
L 293.850456 48.634421 
L 294.358236 50.871617 
L 294.612126 49.651324 
L 294.866017 50.058081 
L 295.119907 50.058081 
L 295.373797 48.736105 
L 295.881578 49.854714 
L 296.643248 49.956397 
L 296.897139 48.634421 
L 297.151029 49.854714 
L 297.404919 49.142862 
L 297.658809 49.142862 
L 297.9127 50.058081 
L 298.16659 50.464838 
L 298.42048 50.159787 
L 298.67437 51.380058 
L 299.182151 49.346251 
L 299.436041 48.634421 
L 299.689931 51.583447 
L 299.943822 50.769911 
L 300.197712 50.363154 
L 300.451602 48.634421 
L 300.705492 50.058081 
L 300.959383 48.939494 
L 301.213273 49.651324 
L 301.467163 49.651324 
L 301.721053 49.244567 
L 301.974944 51.990204 
L 302.228834 49.753008 
L 302.482724 49.854714 
L 302.736614 48.532737 
L 302.990505 48.83781 
L 303.498285 50.261471 
L 303.752175 47.719202 
L 304.006066 51.17669 
L 304.259956 48.125959 
L 304.513846 49.142862 
L 304.767736 47.109055 
L 305.021627 50.261471 
L 305.275517 48.634421 
L 305.529407 48.939494 
L 305.783298 49.651324 
L 306.037188 49.753008 
L 306.291078 50.159787 
L 306.544968 49.346251 
L 307.052749 50.363154 
L 307.306639 47.922591 
L 307.560529 49.854714 
L 307.81442 48.431032 
L 308.06831 48.634421 
L 308.3222 49.041178 
L 308.57609 48.736105 
L 308.829981 50.871617 
L 309.337761 49.244567 
L 309.591651 50.261471 
L 309.845542 48.431032 
L 310.099432 48.939494 
L 310.099432 48.939494 
" clip-path="url(#p3145715036)" style="fill: none; stroke: #0000ff; stroke-width: 0.6; stroke-linecap: square"/>
   </g>
   <g id="line2d_26">
    <path d="M 56.463068 230.557091 
L 56.716958 226.998596 
L 56.970849 206.833775 
L 57.224739 210.866742 
L 57.478629 218.458192 
L 57.732519 212.290144 
L 57.98641 216.79757 
L 58.2403 225.575193 
L 58.74808 213.001845 
L 59.001971 220.830537 
L 59.763641 201.851867 
L 60.017532 207.782696 
L 60.271422 208.019937 
L 60.525312 221.542238 
L 60.779202 209.68058 
L 61.033093 152.270133 
L 61.286983 194.972118 
L 61.540873 129.970219 
L 61.794764 172.909424 
L 62.048654 186.906185 
L 62.302544 154.642477 
L 62.556434 212.527363 
L 62.810325 213.950766 
L 63.064215 209.9178 
L 63.318105 97.46927 
L 63.571995 112.652193 
L 63.825886 217.509272 
L 64.079776 213.713546 
L 64.333666 183.58492 
L 64.587556 89.403338 
L 64.841447 103.63734 
L 65.095337 101.027776 
L 65.349227 140.408475 
L 65.603117 202.326349 
L 65.857008 100.553294 
L 66.110898 111.466032 
L 66.364788 83.946969 
L 66.618678 201.377407 
L 67.126459 100.316075 
L 67.380349 219.881595 
L 67.634239 104.586261 
L 67.88813 125.462793 
L 68.14202 93.910764 
L 68.39591 128.309576 
L 68.6498 139.696774 
L 68.903691 183.822161 
L 69.157581 121.429827 
L 69.411471 136.138289 
L 69.665361 184.533862 
L 69.919252 86.319314 
L 70.173142 85.607612 
L 70.427032 93.199063 
L 70.680922 93.910764 
L 70.934813 95.571408 
L 71.188703 85.133152 
L 71.442593 136.612749 
L 71.696483 87.031015 
L 71.950374 176.46793 
L 72.204264 165.792434 
L 72.458154 99.367133 
L 72.712044 184.05938 
L 72.965935 175.044527 
L 73.219825 123.80215 
L 73.473715 163.420089 
L 73.727605 95.096926 
L 73.981496 197.107221 
L 74.235386 90.115039 
L 74.489276 201.851867 
L 74.743166 85.607612 
L 74.997057 187.143426 
L 75.250947 169.350918 
L 75.504837 91.775661 
L 75.758727 92.724603 
L 76.012618 96.757569 
L 76.266508 105.060721 
L 76.520398 99.367133 
L 76.774288 91.063981 
L 77.028179 160.098824 
L 77.282069 108.144766 
L 77.535959 97.706511 
L 77.78985 92.961844 
L 78.04374 91.3012 
L 78.55152 125.937253 
L 78.805411 85.607612 
L 79.059301 98.892673 
L 79.313191 94.385246 
L 79.567081 109.330928 
L 79.820972 164.606272 
L 80.074862 107.433065 
L 80.328752 99.841593 
L 80.582642 149.423349 
L 80.836533 89.166097 
L 81.090423 108.856468 
L 81.344313 118.345781 
L 81.598203 94.148005 
L 81.852094 88.217176 
L 82.105984 86.082073 
L 82.359874 96.99481 
L 82.613764 113.601135 
L 82.867655 147.525465 
L 83.121545 86.082073 
L 83.375435 87.979935 
L 83.629325 87.268234 
L 83.883216 87.505475 
L 84.137106 86.556533 
L 84.390996 103.874559 
L 84.644886 88.928877 
L 84.898777 87.031015 
L 85.152667 101.976697 
L 85.406557 175.993448 
L 85.660447 87.742716 
L 85.914338 85.133152 
L 86.168228 141.120176 
L 86.422118 120.006424 
L 86.676008 85.370372 
L 86.929899 106.009663 
L 87.183789 102.451157 
L 87.437679 92.724603 
L 87.691569 103.162858 
L 87.94546 92.250143 
L 88.19935 91.775661 
L 88.45324 107.907526 
L 88.70713 84.895911 
L 88.961021 85.607612 
L 89.214911 85.133152 
L 89.468801 113.838354 
L 89.722691 87.031015 
L 89.976582 88.691637 
L 90.230472 116.685159 
L 90.484362 93.910764 
L 90.738252 116.210699 
L 90.992143 88.691637 
L 91.246033 85.844832 
L 91.499923 96.045868 
L 91.753813 125.700012 
L 92.007704 84.895911 
L 92.261594 89.403338 
L 92.515484 87.031015 
L 92.769374 83.472509 
L 93.023265 89.640579 
L 93.277155 86.082073 
L 93.531045 104.823501 
L 93.784936 107.433065 
L 94.038826 95.334167 
L 94.292716 96.045868 
L 94.546606 110.042629 
L 94.800497 82.760808 
L 95.054387 88.928877 
L 95.308277 91.063981 
L 95.816058 84.421451 
L 96.069948 87.268234 
L 96.323838 85.133152 
L 96.577728 91.775661 
L 96.831619 84.895911 
L 97.085509 118.345781 
L 97.339399 93.910764 
L 97.593289 86.082073 
L 97.84718 90.82674 
L 98.10107 88.217176 
L 98.35496 87.031015 
L 98.60885 86.556533 
L 98.862741 85.844832 
L 99.116631 94.859706 
L 99.370521 83.946969 
L 99.624411 89.166097 
L 99.878302 86.793774 
L 100.132192 90.115039 
L 100.386082 89.403338 
L 100.639972 91.3012 
L 101.147753 108.856468 
L 101.401643 95.096926 
L 101.655533 87.742716 
L 101.909424 87.505475 
L 102.163314 101.976697 
L 102.417204 93.436304 
L 102.671094 89.166097 
L 102.924985 94.385246 
L 103.178875 88.928877 
L 103.432765 88.454396 
L 103.686655 85.370372 
L 104.194436 102.451157 
L 104.448326 96.757569 
L 104.702216 81.337405 
L 104.956107 89.403338 
L 105.209997 87.505475 
L 105.463887 92.961844 
L 105.717777 91.538441 
L 105.971668 86.319314 
L 106.225558 83.472509 
L 106.733338 108.856468 
L 106.987229 90.35228 
L 107.241119 134.240405 
L 107.495009 87.268234 
L 107.748899 131.630841 
L 108.00279 92.250143 
L 108.25668 91.063981 
L 108.51057 97.46927 
L 108.76446 86.793774 
L 109.018351 85.844832 
L 109.272241 86.793774 
L 109.526131 86.556533 
L 109.780021 87.979935 
L 110.033912 83.472509 
L 110.287802 86.319314 
L 110.541692 87.505475 
L 110.795583 102.925639 
L 111.049473 83.70975 
L 111.557253 87.031015 
L 111.811144 92.724603 
L 112.065034 83.946969 
L 112.318924 85.607612 
L 112.572814 84.895911 
L 112.826705 85.607612 
L 113.080595 84.895911 
L 113.334485 86.082073 
L 113.588375 84.421451 
L 113.842266 84.895911 
L 114.096156 87.505475 
L 114.350046 87.979935 
L 114.603936 83.472509 
L 114.857827 92.012902 
L 115.111717 86.319314 
L 115.365607 86.082073 
L 115.619497 97.46927 
L 115.873388 83.472509 
L 116.127278 92.487362 
L 116.381168 87.031015 
L 116.635058 85.607612 
L 116.888949 104.1118 
L 117.142839 86.319314 
L 117.396729 85.370372 
L 117.650619 86.793774 
L 118.1584 86.319314 
L 118.41229 87.742716 
L 118.66618 97.46927 
L 118.920071 93.910764 
L 119.173961 84.421451 
L 119.427851 84.18421 
L 119.681741 85.370372 
L 119.935632 84.65867 
L 120.189522 84.421451 
L 120.443412 91.775661 
L 120.697302 86.793774 
L 120.951193 88.217176 
L 121.205083 95.334167 
L 121.458973 83.70975 
L 121.966754 86.556533 
L 122.220644 89.877798 
L 122.474534 83.472509 
L 122.728424 84.421451 
L 122.982315 86.082073 
L 123.236205 84.65867 
L 123.490095 84.421451 
L 123.743985 83.235268 
L 123.997876 86.793774 
L 124.505656 87.742716 
L 124.759546 84.18421 
L 125.013437 83.472509 
L 125.267327 85.370372 
L 125.521217 85.607612 
L 125.775107 89.640579 
L 126.028998 83.946969 
L 126.282888 83.472509 
L 126.536778 84.895911 
L 126.790669 83.70975 
L 127.044559 84.895911 
L 127.298449 84.421451 
L 127.552339 85.607612 
L 127.80623 87.742716 
L 128.06012 85.370372 
L 128.31401 84.895911 
L 128.5679 88.691637 
L 129.075681 86.082073 
L 129.329571 85.370372 
L 129.583461 95.334167 
L 129.837352 85.607612 
L 130.091242 86.082073 
L 130.345132 88.217176 
L 130.599022 87.742716 
L 130.852913 87.031015 
L 131.106803 91.3012 
L 131.360693 85.370372 
L 131.614583 91.063981 
L 131.868474 83.70975 
L 132.376254 85.844832 
L 132.630144 84.895911 
L 133.137925 91.3012 
L 133.391815 85.607612 
L 133.645705 85.370372 
L 134.153486 83.70975 
L 134.407376 84.421451 
L 134.661266 84.421451 
L 134.915157 87.979935 
L 135.169047 87.742716 
L 135.422937 85.133152 
L 136.184608 87.505475 
L 136.438498 85.133152 
L 136.692388 85.844832 
L 136.946279 85.133152 
L 137.200169 85.844832 
L 137.454059 84.421451 
L 137.707949 85.370372 
L 137.96184 85.607612 
L 138.21573 85.607612 
L 138.46962 85.844832 
L 138.72351 83.70975 
L 138.977401 86.556533 
L 139.231291 85.370372 
L 139.485181 85.607612 
L 139.739071 85.133152 
L 139.992962 84.895911 
L 140.246852 84.18421 
L 140.500742 85.370372 
L 140.754632 84.65867 
L 141.008523 88.217176 
L 141.262413 85.370372 
L 141.516303 87.505475 
L 141.770193 85.133152 
L 142.024084 87.031015 
L 142.277974 91.775661 
L 142.531864 85.133152 
L 142.785755 86.556533 
L 143.039645 85.607612 
L 143.293535 89.166097 
L 143.547425 85.133152 
L 143.801316 86.793774 
L 144.055206 86.319314 
L 144.562986 85.844832 
L 144.816877 84.895911 
L 145.324657 87.742716 
L 145.578547 87.268234 
L 145.832438 84.895911 
L 146.086328 85.370372 
L 146.340218 88.454396 
L 146.594108 85.607612 
L 146.847999 84.18421 
L 147.101889 84.895911 
L 147.355779 86.082073 
L 147.609669 85.370372 
L 147.86356 85.133152 
L 148.11745 86.082073 
L 148.37134 86.556533 
L 148.62523 86.556533 
L 148.879121 85.370372 
L 149.133011 85.844832 
L 149.386901 85.133152 
L 149.640791 84.895911 
L 149.894682 86.319314 
L 150.148572 84.65867 
L 150.402462 86.319314 
L 150.656352 86.319314 
L 150.910243 87.742716 
L 151.164133 84.65867 
L 151.418023 89.403338 
L 151.671913 86.082073 
L 151.925804 85.607612 
L 152.179694 85.370372 
L 152.433584 88.217176 
L 152.687474 86.319314 
L 152.941365 90.589499 
L 153.195255 85.607612 
L 153.449145 85.370372 
L 153.703035 86.556533 
L 153.956926 86.082073 
L 154.210816 86.082073 
L 154.464706 85.844832 
L 154.718596 86.556533 
L 154.972487 90.115039 
L 155.226377 85.844832 
L 155.480267 84.18421 
L 155.734157 87.742716 
L 155.988048 84.65867 
L 156.241938 84.18421 
L 156.495828 88.217176 
L 157.003609 85.133152 
L 157.257499 87.742716 
L 157.511389 86.082073 
L 157.765279 86.556533 
L 158.01917 86.793774 
L 158.27306 84.895911 
L 158.52695 85.844832 
L 158.78084 83.946969 
L 159.034731 85.133152 
L 159.288621 85.607612 
L 159.542511 86.319314 
L 159.796402 84.895911 
L 160.050292 87.031015 
L 160.558072 85.133152 
L 161.065853 86.319314 
L 161.319743 86.319314 
L 161.573633 85.844832 
L 161.827524 85.133152 
L 162.081414 86.793774 
L 162.335304 85.370372 
L 162.589194 85.607612 
L 162.843085 85.370372 
L 163.096975 85.844832 
L 163.350865 84.895911 
L 163.604755 87.742716 
L 163.858646 85.607612 
L 164.112536 84.895911 
L 164.366426 85.607612 
L 164.620316 87.979935 
L 164.874207 86.793774 
L 165.128097 84.65867 
L 165.381987 85.844832 
L 165.635877 86.082073 
L 165.889768 86.082073 
L 166.143658 84.895911 
L 166.397548 85.844832 
L 166.651438 85.370372 
L 166.905329 85.844832 
L 167.159219 85.370372 
L 167.413109 87.268234 
L 167.666999 85.607612 
L 167.92089 85.370372 
L 168.17478 86.319314 
L 168.42867 86.082073 
L 168.68256 87.742716 
L 168.936451 86.082073 
L 169.190341 88.217176 
L 169.444231 85.607612 
L 169.698121 85.370372 
L 169.952012 85.844832 
L 170.205902 85.607612 
L 170.459792 86.793774 
L 170.713682 86.082073 
L 170.967573 87.031015 
L 171.221463 86.082073 
L 171.475353 86.082073 
L 171.729243 86.793774 
L 171.983134 85.370372 
L 172.237024 85.133152 
L 172.490914 88.454396 
L 172.998695 84.895911 
L 173.252585 86.082073 
L 173.506475 86.319314 
L 173.760365 85.133152 
L 174.014256 85.133152 
L 174.268146 84.65867 
L 174.522036 84.65867 
L 174.775926 88.217176 
L 175.029817 86.082073 
L 175.283707 85.844832 
L 175.537597 87.031015 
L 175.791488 84.895911 
L 176.045378 87.505475 
L 176.553158 85.844832 
L 176.807049 85.607612 
L 177.060939 86.793774 
L 177.314829 86.793774 
L 177.568719 84.18421 
L 177.82261 86.319314 
L 178.0765 86.793774 
L 178.33039 86.793774 
L 178.58428 85.607612 
L 178.838171 88.454396 
L 179.345951 86.319314 
L 179.599841 86.556533 
L 179.853732 84.421451 
L 180.107622 87.268234 
L 180.361512 85.607612 
L 180.615402 85.844832 
L 180.869293 84.421451 
L 181.123183 86.556533 
L 181.377073 85.370372 
L 181.884854 84.895911 
L 182.138744 85.133152 
L 182.392634 86.556533 
L 182.646524 87.268234 
L 182.900415 85.844832 
L 183.154305 86.319314 
L 183.408195 84.421451 
L 183.662085 87.031015 
L 183.915976 87.268234 
L 184.169866 85.607612 
L 184.423756 86.793774 
L 184.677646 85.607612 
L 185.185427 86.556533 
L 185.439317 85.133152 
L 185.693207 85.844832 
L 185.947098 85.370372 
L 186.200988 86.082073 
L 186.454878 85.133152 
L 186.708768 85.844832 
L 186.962659 85.133152 
L 187.216549 85.370372 
L 187.470439 86.556533 
L 187.724329 85.607612 
L 187.97822 86.082073 
L 188.23211 85.607612 
L 188.73989 86.082073 
L 188.993781 85.607612 
L 189.247671 85.844832 
L 189.755451 85.370372 
L 190.009342 85.607612 
L 190.263232 86.082073 
L 190.517122 86.319314 
L 190.771012 85.370372 
L 191.024903 86.793774 
L 191.278793 85.607612 
L 191.532683 85.607612 
L 191.786574 87.031015 
L 192.040464 86.082073 
L 192.294354 86.082073 
L 192.548244 86.793774 
L 192.802135 85.133152 
L 193.056025 84.895911 
L 193.309915 85.844832 
L 193.563805 84.421451 
L 193.817696 85.607612 
L 194.071586 85.607612 
L 194.325476 86.556533 
L 194.833257 86.082073 
L 195.087147 83.70975 
L 195.341037 85.607612 
L 195.594927 86.319314 
L 195.848818 84.895911 
L 196.102708 84.65867 
L 196.610488 86.556533 
L 196.864379 85.844832 
L 197.118269 85.844832 
L 197.372159 84.895911 
L 197.626049 86.319314 
L 197.87994 85.607612 
L 198.13383 86.319314 
L 198.38772 85.844832 
L 198.64161 86.319314 
L 198.895501 86.319314 
L 199.149391 85.133152 
L 199.403281 86.082073 
L 199.657171 85.607612 
L 199.911062 87.505475 
L 200.164952 86.793774 
L 200.418842 86.556533 
L 200.672732 84.895911 
L 201.180513 87.268234 
L 201.434403 85.607612 
L 201.688293 86.793774 
L 201.942184 85.844832 
L 202.449964 86.319314 
L 202.703854 85.370372 
L 202.957745 85.370372 
L 203.211635 86.793774 
L 203.719415 85.607612 
L 203.973306 86.319314 
L 204.227196 86.556533 
L 204.481086 86.082073 
L 204.734976 85.370372 
L 204.988867 85.844832 
L 205.242757 86.082073 
L 205.496647 85.844832 
L 206.004428 86.319314 
L 206.258318 85.844832 
L 206.512208 85.844832 
L 206.766098 87.031015 
L 207.019989 87.031015 
L 207.273879 85.607612 
L 207.527769 85.607612 
L 207.78166 85.133152 
L 208.03555 85.844832 
L 208.28944 84.421451 
L 208.54333 86.319314 
L 208.797221 85.133152 
L 209.051111 85.370372 
L 209.305001 86.319314 
L 209.812782 85.133152 
L 210.066672 85.844832 
L 210.320562 85.844832 
L 210.574452 85.133152 
L 210.828343 85.607612 
L 211.082233 85.607612 
L 211.336123 85.370372 
L 211.590013 86.556533 
L 211.843904 86.556533 
L 212.097794 85.133152 
L 212.351684 87.268234 
L 212.605574 84.895911 
L 212.859465 85.607612 
L 213.113355 85.370372 
L 213.367245 83.946969 
L 213.621135 86.082073 
L 213.875026 86.082073 
L 214.128916 85.844832 
L 214.382806 84.895911 
L 214.636696 84.895911 
L 214.890587 85.370372 
L 215.144477 84.65867 
L 215.398367 86.556533 
L 215.652257 85.607612 
L 215.906148 87.031015 
L 216.160038 86.556533 
L 216.413928 85.370372 
L 216.667818 85.370372 
L 216.921709 86.319314 
L 217.175599 85.607612 
L 217.429489 85.844832 
L 217.683379 85.844832 
L 217.93727 86.319314 
L 218.44505 86.793774 
L 218.952831 84.895911 
L 219.206721 84.895911 
L 219.714501 86.556533 
L 219.968392 86.556533 
L 220.222282 86.082073 
L 220.476172 85.370372 
L 220.730062 85.133152 
L 220.983953 85.844832 
L 221.237843 85.607612 
L 221.745623 86.556533 
L 221.999514 86.319314 
L 222.253404 84.421451 
L 222.507294 86.082073 
L 222.761184 85.844832 
L 223.015075 86.082073 
L 223.268965 86.082073 
L 223.522855 86.556533 
L 223.776745 86.082073 
L 224.030636 86.319314 
L 224.284526 84.65867 
L 224.538416 85.844832 
L 224.792307 85.370372 
L 225.046197 86.319314 
L 225.300087 86.082073 
L 225.553977 87.505475 
L 226.061758 84.65867 
L 226.315648 86.793774 
L 226.569538 86.319314 
L 227.077319 85.844832 
L 227.331209 86.082073 
L 227.585099 86.556533 
L 227.83899 85.607612 
L 228.09288 86.793774 
L 228.34677 86.082073 
L 228.60066 86.556533 
L 228.854551 86.556533 
L 229.108441 85.844832 
L 229.362331 85.607612 
L 229.616221 85.607612 
L 230.124002 87.742716 
L 230.377892 84.65867 
L 230.631782 86.082073 
L 230.885673 86.556533 
L 231.139563 86.082073 
L 231.393453 84.895911 
L 231.901234 86.319314 
L 232.155124 85.607612 
L 232.409014 86.556533 
L 232.662904 86.082073 
L 232.916795 86.082073 
L 233.170685 86.793774 
L 233.424575 86.556533 
L 233.678465 87.031015 
L 233.932356 85.607612 
L 234.186246 85.370372 
L 234.440136 85.607612 
L 234.694026 85.607612 
L 234.947917 85.133152 
L 235.201807 85.607612 
L 235.455697 84.65867 
L 235.709587 86.082073 
L 235.963478 86.793774 
L 236.217368 85.607612 
L 236.471258 85.133152 
L 236.725148 84.421451 
L 236.979039 86.793774 
L 237.232929 85.844832 
L 237.486819 87.268234 
L 237.740709 87.505475 
L 237.9946 85.370372 
L 238.24849 85.607612 
L 238.50238 86.319314 
L 238.75627 85.607612 
L 239.264051 86.082073 
L 239.517941 86.082073 
L 239.771831 86.793774 
L 240.025722 85.370372 
L 240.279612 86.556533 
L 240.787393 84.895911 
L 241.041283 86.319314 
L 241.549063 84.421451 
L 241.802954 87.268234 
L 242.056844 85.370372 
L 242.310734 86.319314 
L 242.564624 86.082073 
L 242.818515 85.607612 
L 243.072405 85.370372 
L 243.326295 85.844832 
L 243.580185 86.082073 
L 243.834076 86.082073 
L 244.087966 85.607612 
L 244.341856 86.319314 
L 244.595746 85.370372 
L 244.849637 84.895911 
L 245.103527 86.082073 
L 245.357417 85.607612 
L 245.611307 86.319314 
L 245.865198 83.70975 
L 246.119088 85.133152 
L 246.372978 84.895911 
L 246.626868 85.607612 
L 247.134649 86.082073 
L 247.388539 84.895911 
L 247.642429 85.844832 
L 247.89632 84.421451 
L 248.15021 87.268234 
L 248.4041 86.082073 
L 248.65799 86.793774 
L 248.911881 84.65867 
L 249.165771 83.946969 
L 249.673551 85.370372 
L 249.927442 85.133152 
L 250.435222 86.793774 
L 250.689112 85.133152 
L 250.943003 85.370372 
L 251.196893 84.65867 
L 251.450783 85.844832 
L 251.704673 85.370372 
L 251.958564 86.556533 
L 252.466344 85.370372 
L 252.720234 86.082073 
L 252.974125 86.082073 
L 253.228015 85.607612 
L 253.481905 86.556533 
L 253.735795 86.082073 
L 253.989686 84.895911 
L 254.497466 85.370372 
L 254.751356 85.844832 
L 255.005247 85.844832 
L 255.259137 86.082073 
L 255.513027 84.895911 
L 255.766917 86.082073 
L 256.020808 85.133152 
L 256.274698 86.556533 
L 256.528588 85.607612 
L 256.782479 87.505475 
L 257.290259 84.895911 
L 257.544149 86.556533 
L 257.79804 86.319314 
L 258.05193 85.370372 
L 258.30582 85.844832 
L 258.55971 85.607612 
L 258.813601 85.607612 
L 259.321381 87.031015 
L 259.575271 86.793774 
L 259.829162 87.268234 
L 260.083052 86.793774 
L 260.336942 85.844832 
L 260.590832 86.082073 
L 260.844723 86.082073 
L 261.098613 86.319314 
L 261.352503 87.268234 
L 261.606393 87.031015 
L 261.860284 85.844832 
L 262.114174 85.370372 
L 262.368064 85.133152 
L 262.621954 84.18421 
L 262.875845 85.844832 
L 263.129735 85.844832 
L 263.383625 86.082073 
L 263.637515 85.370372 
L 263.891406 86.082073 
L 264.145296 85.133152 
L 264.399186 85.844832 
L 264.653076 85.133152 
L 264.906967 86.319314 
L 265.160857 85.607612 
L 265.414747 85.607612 
L 265.668637 85.844832 
L 265.922528 85.607612 
L 266.176418 85.844832 
L 266.430308 86.793774 
L 266.684198 85.370372 
L 266.938089 85.607612 
L 267.191979 86.082073 
L 267.445869 84.65867 
L 267.699759 85.370372 
L 267.95365 86.556533 
L 268.46143 86.556533 
L 268.71532 86.319314 
L 268.969211 85.370372 
L 269.223101 85.844832 
L 269.984772 85.133152 
L 270.238662 85.370372 
L 270.492552 86.082073 
L 270.746442 85.607612 
L 271.000333 85.844832 
L 271.254223 85.844832 
L 271.508113 84.18421 
L 271.762003 85.607612 
L 272.015894 85.844832 
L 272.269784 85.844832 
L 272.777564 85.370372 
L 273.031455 87.031015 
L 273.285345 86.319314 
L 273.539235 86.793774 
L 273.793126 85.370372 
L 274.047016 85.607612 
L 274.300906 85.370372 
L 274.554796 86.082073 
L 274.808687 85.133152 
L 275.062577 85.844832 
L 275.316467 85.607612 
L 275.570357 86.319314 
L 275.824248 86.556533 
L 276.078138 86.319314 
L 276.332028 85.607612 
L 276.585918 85.844832 
L 276.839809 85.607612 
L 277.093699 86.319314 
L 277.347589 84.895911 
L 277.601479 86.319314 
L 277.85537 85.370372 
L 278.10926 86.319314 
L 278.36315 85.844832 
L 278.61704 87.031015 
L 278.870931 86.556533 
L 279.124821 85.133152 
L 279.378711 85.370372 
L 279.632601 86.319314 
L 279.886492 85.844832 
L 280.140382 85.607612 
L 280.394272 86.082073 
L 280.648162 84.18421 
L 280.902053 86.556533 
L 281.155943 85.844832 
L 281.409833 86.319314 
L 281.663723 86.556533 
L 281.917614 84.895911 
L 282.171504 86.793774 
L 282.425394 85.370372 
L 282.933175 87.031015 
L 283.187065 85.844832 
L 283.440955 86.556533 
L 283.694845 86.082073 
L 283.948736 86.793774 
L 284.202626 85.133152 
L 284.456516 86.556533 
L 284.710406 86.556533 
L 285.218187 85.133152 
L 285.472077 84.895911 
L 285.725967 85.844832 
L 285.979858 85.607612 
L 286.233748 85.607612 
L 286.741528 86.082073 
L 286.995419 86.556533 
L 287.249309 86.319314 
L 287.503199 86.556533 
L 287.757089 85.607612 
L 288.01098 85.844832 
L 288.26487 85.607612 
L 288.51876 85.607612 
L 288.77265 86.556533 
L 289.280431 85.607612 
L 289.534321 85.844832 
L 289.788212 85.133152 
L 290.042102 86.556533 
L 290.295992 86.319314 
L 290.549882 85.844832 
L 290.803773 85.844832 
L 291.057663 85.133152 
L 291.311553 86.319314 
L 291.565443 86.082073 
L 291.819334 84.895911 
L 292.073224 86.082073 
L 292.327114 86.556533 
L 292.834895 85.607612 
L 293.088785 86.319314 
L 293.342675 86.082073 
L 293.596565 85.607612 
L 293.850456 86.082073 
L 294.104346 86.319314 
L 294.358236 86.793774 
L 294.866017 85.370372 
L 295.119907 86.556533 
L 295.373797 85.844832 
L 295.627687 85.844832 
L 295.881578 85.133152 
L 296.135468 86.319314 
L 296.389358 86.082073 
L 296.643248 86.319314 
L 296.897139 85.844832 
L 297.151029 85.844832 
L 297.404919 84.18421 
L 297.658809 85.607612 
L 297.9127 84.895911 
L 298.16659 84.895911 
L 298.42048 85.844832 
L 298.67437 85.133152 
L 299.182151 86.793774 
L 299.436041 85.607612 
L 299.689931 86.556533 
L 299.943822 85.844832 
L 300.197712 85.607612 
L 300.451602 86.793774 
L 300.705492 85.133152 
L 300.959383 86.556533 
L 301.213273 85.370372 
L 301.467163 85.370372 
L 301.974944 87.268234 
L 302.228834 85.133152 
L 302.482724 85.133152 
L 302.736614 85.844832 
L 302.990505 85.370372 
L 303.498285 85.844832 
L 303.752175 85.844832 
L 304.006066 87.031015 
L 304.513846 85.607612 
L 304.767736 85.607612 
L 305.021627 86.082073 
L 305.275517 86.082073 
L 305.529407 86.319314 
L 305.783298 84.65867 
L 306.037188 84.65867 
L 306.291078 86.319314 
L 306.544968 86.319314 
L 306.798859 87.268234 
L 307.052749 87.268234 
L 307.306639 85.133152 
L 307.560529 85.844832 
L 307.81442 85.844832 
L 308.06831 85.607612 
L 308.57609 84.18421 
L 308.829981 86.556533 
L 309.337761 86.082073 
L 309.845542 86.556533 
L 310.099432 86.082073 
L 310.099432 86.082073 
" clip-path="url(#p3145715036)" style="fill: none; stroke: #ff0000; stroke-width: 0.6; stroke-linecap: square"/>
   </g>
   <g id="patch_3">
    <path d="M 43.78125 239.76 
L 43.78125 37.296 
" style="fill: none; stroke: #000000; stroke-width: 0.8; stroke-linejoin: miter; stroke-linecap: square"/>
   </g>
   <g id="patch_4">
    <path d="M 322.78125 239.76 
L 322.78125 37.296 
" style="fill: none; stroke: #000000; stroke-width: 0.8; stroke-linejoin: miter; stroke-linecap: square"/>
   </g>
   <g id="patch_5">
    <path d="M 43.78125 239.76 
L 322.78125 239.76 
" style="fill: none; stroke: #000000; stroke-width: 0.8; stroke-linejoin: miter; stroke-linecap: square"/>
   </g>
   <g id="patch_6">
    <path d="M 43.78125 37.296 
L 322.78125 37.296 
" style="fill: none; stroke: #000000; stroke-width: 0.8; stroke-linejoin: miter; stroke-linecap: square"/>
   </g>
   <g id="text_15">
    <!-- Baseline Model -->
    <g transform="translate(149.259844 31.296) scale(0.09 -0.09)">
     <defs>
      <path id="DejaVuSans-42" d="M 1259 2228 
L 1259 519 
L 2272 519 
Q 2781 519 3026 730 
Q 3272 941 3272 1375 
Q 3272 1813 3026 2020 
Q 2781 2228 2272 2228 
L 1259 2228 
z
M 1259 4147 
L 1259 2741 
L 2194 2741 
Q 2656 2741 2882 2914 
Q 3109 3088 3109 3444 
Q 3109 3797 2882 3972 
Q 2656 4147 2194 4147 
L 1259 4147 
z
M 628 4666 
L 2241 4666 
Q 2963 4666 3353 4366 
Q 3744 4066 3744 3513 
Q 3744 3084 3544 2831 
Q 3344 2578 2956 2516 
Q 3422 2416 3680 2098 
Q 3938 1781 3938 1306 
Q 3938 681 3513 340 
Q 3088 0 2303 0 
L 628 0 
L 628 4666 
z
" transform="scale(0.015625)"/>
      <path id="DejaVuSans-65" d="M 3597 1894 
L 3597 1613 
L 953 1613 
Q 991 1019 1311 708 
Q 1631 397 2203 397 
Q 2534 397 2845 478 
Q 3156 559 3463 722 
L 3463 178 
Q 3153 47 2828 -22 
Q 2503 -91 2169 -91 
Q 1331 -91 842 396 
Q 353 884 353 1716 
Q 353 2575 817 3079 
Q 1281 3584 2069 3584 
Q 2775 3584 3186 3129 
Q 3597 2675 3597 1894 
z
M 3022 2063 
Q 3016 2534 2758 2815 
Q 2500 3097 2075 3097 
Q 1594 3097 1305 2825 
Q 1016 2553 972 2059 
L 3022 2063 
z
" transform="scale(0.015625)"/>
      <path id="DejaVuSans-6c" d="M 603 4863 
L 1178 4863 
L 1178 0 
L 603 0 
L 603 4863 
z
" transform="scale(0.015625)"/>
      <path id="DejaVuSans-69" d="M 603 3500 
L 1178 3500 
L 1178 0 
L 603 0 
L 603 3500 
z
M 603 4863 
L 1178 4863 
L 1178 4134 
L 603 4134 
L 603 4863 
z
" transform="scale(0.015625)"/>
      <path id="DejaVuSans-6e" d="M 3513 2113 
L 3513 0 
L 2938 0 
L 2938 2094 
Q 2938 2591 2744 2837 
Q 2550 3084 2163 3084 
Q 1697 3084 1428 2787 
Q 1159 2491 1159 1978 
L 1159 0 
L 581 0 
L 581 3500 
L 1159 3500 
L 1159 2956 
Q 1366 3272 1645 3428 
Q 1925 3584 2291 3584 
Q 2894 3584 3203 3211 
Q 3513 2838 3513 2113 
z
" transform="scale(0.015625)"/>
      <path id="DejaVuSans-20" transform="scale(0.015625)"/>
      <path id="DejaVuSans-4d" d="M 628 4666 
L 1569 4666 
L 2759 1491 
L 3956 4666 
L 4897 4666 
L 4897 0 
L 4281 0 
L 4281 4097 
L 3078 897 
L 2444 897 
L 1241 4097 
L 1241 0 
L 628 0 
L 628 4666 
z
" transform="scale(0.015625)"/>
      <path id="DejaVuSans-64" d="M 2906 2969 
L 2906 4863 
L 3481 4863 
L 3481 0 
L 2906 0 
L 2906 525 
Q 2725 213 2448 61 
Q 2172 -91 1784 -91 
Q 1150 -91 751 415 
Q 353 922 353 1747 
Q 353 2572 751 3078 
Q 1150 3584 1784 3584 
Q 2172 3584 2448 3432 
Q 2725 3281 2906 2969 
z
M 947 1747 
Q 947 1113 1208 752 
Q 1469 391 1925 391 
Q 2381 391 2643 752 
Q 2906 1113 2906 1747 
Q 2906 2381 2643 2742 
Q 2381 3103 1925 3103 
Q 1469 3103 1208 2742 
Q 947 2381 947 1747 
z
" transform="scale(0.015625)"/>
     </defs>
     <use xlink:href="#DejaVuSans-42"/>
     <use xlink:href="#DejaVuSans-61" x="68.603516"/>
     <use xlink:href="#DejaVuSans-73" x="129.882812"/>
     <use xlink:href="#DejaVuSans-65" x="181.982422"/>
     <use xlink:href="#DejaVuSans-6c" x="243.505859"/>
     <use xlink:href="#DejaVuSans-69" x="271.289062"/>
     <use xlink:href="#DejaVuSans-6e" x="299.072266"/>
     <use xlink:href="#DejaVuSans-65" x="362.451172"/>
     <use xlink:href="#DejaVuSans-20" x="423.974609"/>
     <use xlink:href="#DejaVuSans-4d" x="455.761719"/>
     <use xlink:href="#DejaVuSans-6f" x="542.041016"/>
     <use xlink:href="#DejaVuSans-64" x="603.222656"/>
     <use xlink:href="#DejaVuSans-65" x="666.699219"/>
     <use xlink:href="#DejaVuSans-6c" x="728.222656"/>
    </g>
   </g>
   <g id="legend_1">
    <g id="patch_7">
     <path d="M 185.565625 234.76 
L 315.78125 234.76 
Q 317.78125 234.76 317.78125 232.76 
L 317.78125 204.40375 
Q 317.78125 202.40375 315.78125 202.40375 
L 185.565625 202.40375 
Q 183.565625 202.40375 183.565625 204.40375 
L 183.565625 232.76 
Q 183.565625 234.76 185.565625 234.76 
z
" style="fill: #ffffff; opacity: 0.8; stroke: #cccccc; stroke-linejoin: miter"/>
    </g>
    <g id="line2d_27">
     <path d="M 187.565625 210.502187 
L 197.565625 210.502187 
L 207.565625 210.502187 
" style="fill: none; stroke: #0000ff; stroke-width: 0.6; stroke-linecap: square"/>
    </g>
    <g id="text_16">
     <!-- Training Accuracy -->
     <g transform="translate(215.565625 214.002187) scale(0.1 -0.1)">
      <defs>
       <path id="DejaVuSans-54" d="M -19 4666 
L 3928 4666 
L 3928 4134 
L 2272 4134 
L 2272 0 
L 1638 0 
L 1638 4134 
L -19 4134 
L -19 4666 
z
" transform="scale(0.015625)"/>
       <path id="DejaVuSans-67" d="M 2906 1791 
Q 2906 2416 2648 2759 
Q 2391 3103 1925 3103 
Q 1463 3103 1205 2759 
Q 947 2416 947 1791 
Q 947 1169 1205 825 
Q 1463 481 1925 481 
Q 2391 481 2648 825 
Q 2906 1169 2906 1791 
z
M 3481 434 
Q 3481 -459 3084 -895 
Q 2688 -1331 1869 -1331 
Q 1566 -1331 1297 -1286 
Q 1028 -1241 775 -1147 
L 775 -588 
Q 1028 -725 1275 -790 
Q 1522 -856 1778 -856 
Q 2344 -856 2625 -561 
Q 2906 -266 2906 331 
L 2906 616 
Q 2728 306 2450 153 
Q 2172 0 1784 0 
Q 1141 0 747 490 
Q 353 981 353 1791 
Q 353 2603 747 3093 
Q 1141 3584 1784 3584 
Q 2172 3584 2450 3431 
Q 2728 3278 2906 2969 
L 2906 3500 
L 3481 3500 
L 3481 434 
z
" transform="scale(0.015625)"/>
      </defs>
      <use xlink:href="#DejaVuSans-54"/>
      <use xlink:href="#DejaVuSans-72" x="46.333984"/>
      <use xlink:href="#DejaVuSans-61" x="87.447266"/>
      <use xlink:href="#DejaVuSans-69" x="148.726562"/>
      <use xlink:href="#DejaVuSans-6e" x="176.509766"/>
      <use xlink:href="#DejaVuSans-69" x="239.888672"/>
      <use xlink:href="#DejaVuSans-6e" x="267.671875"/>
      <use xlink:href="#DejaVuSans-67" x="331.050781"/>
      <use xlink:href="#DejaVuSans-20" x="394.527344"/>
      <use xlink:href="#DejaVuSans-41" x="426.314453"/>
      <use xlink:href="#DejaVuSans-63" x="492.972656"/>
      <use xlink:href="#DejaVuSans-63" x="547.953125"/>
      <use xlink:href="#DejaVuSans-75" x="602.933594"/>
      <use xlink:href="#DejaVuSans-72" x="666.3125"/>
      <use xlink:href="#DejaVuSans-61" x="707.425781"/>
      <use xlink:href="#DejaVuSans-63" x="768.705078"/>
      <use xlink:href="#DejaVuSans-79" x="823.685547"/>
     </g>
    </g>
    <g id="line2d_28">
     <path d="M 187.565625 225.180312 
L 197.565625 225.180312 
L 207.565625 225.180312 
" style="fill: none; stroke: #ff0000; stroke-width: 0.6; stroke-linecap: square"/>
    </g>
    <g id="text_17">
     <!-- Validation Accuracy -->
     <g transform="translate(215.565625 228.680312) scale(0.1 -0.1)">
      <defs>
       <path id="DejaVuSans-56" d="M 1831 0 
L 50 4666 
L 709 4666 
L 2188 738 
L 3669 4666 
L 4325 4666 
L 2547 0 
L 1831 0 
z
" transform="scale(0.015625)"/>
       <path id="DejaVuSans-74" d="M 1172 4494 
L 1172 3500 
L 2356 3500 
L 2356 3053 
L 1172 3053 
L 1172 1153 
Q 1172 725 1289 603 
Q 1406 481 1766 481 
L 2356 481 
L 2356 0 
L 1766 0 
Q 1100 0 847 248 
Q 594 497 594 1153 
L 594 3053 
L 172 3053 
L 172 3500 
L 594 3500 
L 594 4494 
L 1172 4494 
z
" transform="scale(0.015625)"/>
      </defs>
      <use xlink:href="#DejaVuSans-56"/>
      <use xlink:href="#DejaVuSans-61" x="60.658203"/>
      <use xlink:href="#DejaVuSans-6c" x="121.9375"/>
      <use xlink:href="#DejaVuSans-69" x="149.720703"/>
      <use xlink:href="#DejaVuSans-64" x="177.503906"/>
      <use xlink:href="#DejaVuSans-61" x="240.980469"/>
      <use xlink:href="#DejaVuSans-74" x="302.259766"/>
      <use xlink:href="#DejaVuSans-69" x="341.46875"/>
      <use xlink:href="#DejaVuSans-6f" x="369.251953"/>
      <use xlink:href="#DejaVuSans-6e" x="430.433594"/>
      <use xlink:href="#DejaVuSans-20" x="493.8125"/>
      <use xlink:href="#DejaVuSans-41" x="525.599609"/>
      <use xlink:href="#DejaVuSans-63" x="592.257812"/>
      <use xlink:href="#DejaVuSans-63" x="647.238281"/>
      <use xlink:href="#DejaVuSans-75" x="702.21875"/>
      <use xlink:href="#DejaVuSans-72" x="765.597656"/>
      <use xlink:href="#DejaVuSans-61" x="806.710938"/>
      <use xlink:href="#DejaVuSans-63" x="867.990234"/>
      <use xlink:href="#DejaVuSans-79" x="922.970703"/>
     </g>
    </g>
   </g>
  </g>
  <g id="text_18">
   <!-- Training VS. Validation Accuracy - Dataset Size = 100.0% -->
   <g transform="translate(21.433984 15.558281) scale(0.11 -0.11)">
    <defs>
     <path id="DejaVuSans-53" d="M 3425 4513 
L 3425 3897 
Q 3066 4069 2747 4153 
Q 2428 4238 2131 4238 
Q 1616 4238 1336 4038 
Q 1056 3838 1056 3469 
Q 1056 3159 1242 3001 
Q 1428 2844 1947 2747 
L 2328 2669 
Q 3034 2534 3370 2195 
Q 3706 1856 3706 1288 
Q 3706 609 3251 259 
Q 2797 -91 1919 -91 
Q 1588 -91 1214 -16 
Q 841 59 441 206 
L 441 856 
Q 825 641 1194 531 
Q 1563 422 1919 422 
Q 2459 422 2753 634 
Q 3047 847 3047 1241 
Q 3047 1584 2836 1778 
Q 2625 1972 2144 2069 
L 1759 2144 
Q 1053 2284 737 2584 
Q 422 2884 422 3419 
Q 422 4038 858 4394 
Q 1294 4750 2059 4750 
Q 2388 4750 2728 4690 
Q 3069 4631 3425 4513 
z
" transform="scale(0.015625)"/>
     <path id="DejaVuSans-2d" d="M 313 2009 
L 1997 2009 
L 1997 1497 
L 313 1497 
L 313 2009 
z
" transform="scale(0.015625)"/>
     <path id="DejaVuSans-44" d="M 1259 4147 
L 1259 519 
L 2022 519 
Q 2988 519 3436 956 
Q 3884 1394 3884 2338 
Q 3884 3275 3436 3711 
Q 2988 4147 2022 4147 
L 1259 4147 
z
M 628 4666 
L 1925 4666 
Q 3281 4666 3915 4102 
Q 4550 3538 4550 2338 
Q 4550 1131 3912 565 
Q 3275 0 1925 0 
L 628 0 
L 628 4666 
z
" transform="scale(0.015625)"/>
     <path id="DejaVuSans-7a" d="M 353 3500 
L 3084 3500 
L 3084 2975 
L 922 459 
L 3084 459 
L 3084 0 
L 275 0 
L 275 525 
L 2438 3041 
L 353 3041 
L 353 3500 
z
" transform="scale(0.015625)"/>
     <path id="DejaVuSans-3d" d="M 678 2906 
L 4684 2906 
L 4684 2381 
L 678 2381 
L 678 2906 
z
M 678 1631 
L 4684 1631 
L 4684 1100 
L 678 1100 
L 678 1631 
z
" transform="scale(0.015625)"/>
     <path id="DejaVuSans-25" d="M 4653 2053 
Q 4381 2053 4226 1822 
Q 4072 1591 4072 1178 
Q 4072 772 4226 539 
Q 4381 306 4653 306 
Q 4919 306 5073 539 
Q 5228 772 5228 1178 
Q 5228 1588 5073 1820 
Q 4919 2053 4653 2053 
z
M 4653 2450 
Q 5147 2450 5437 2106 
Q 5728 1763 5728 1178 
Q 5728 594 5436 251 
Q 5144 -91 4653 -91 
Q 4153 -91 3862 251 
Q 3572 594 3572 1178 
Q 3572 1766 3864 2108 
Q 4156 2450 4653 2450 
z
M 1428 4353 
Q 1159 4353 1004 4120 
Q 850 3888 850 3481 
Q 850 3069 1003 2837 
Q 1156 2606 1428 2606 
Q 1700 2606 1854 2837 
Q 2009 3069 2009 3481 
Q 2009 3884 1853 4118 
Q 1697 4353 1428 4353 
z
M 4250 4750 
L 4750 4750 
L 1831 -91 
L 1331 -91 
L 4250 4750 
z
M 1428 4750 
Q 1922 4750 2215 4408 
Q 2509 4066 2509 3481 
Q 2509 2891 2217 2550 
Q 1925 2209 1428 2209 
Q 931 2209 642 2551 
Q 353 2894 353 3481 
Q 353 4063 643 4406 
Q 934 4750 1428 4750 
z
" transform="scale(0.015625)"/>
    </defs>
    <use xlink:href="#DejaVuSans-54"/>
    <use xlink:href="#DejaVuSans-72" x="46.333984"/>
    <use xlink:href="#DejaVuSans-61" x="87.447266"/>
    <use xlink:href="#DejaVuSans-69" x="148.726562"/>
    <use xlink:href="#DejaVuSans-6e" x="176.509766"/>
    <use xlink:href="#DejaVuSans-69" x="239.888672"/>
    <use xlink:href="#DejaVuSans-6e" x="267.671875"/>
    <use xlink:href="#DejaVuSans-67" x="331.050781"/>
    <use xlink:href="#DejaVuSans-20" x="394.527344"/>
    <use xlink:href="#DejaVuSans-56" x="426.314453"/>
    <use xlink:href="#DejaVuSans-53" x="494.722656"/>
    <use xlink:href="#DejaVuSans-2e" x="558.199219"/>
    <use xlink:href="#DejaVuSans-20" x="589.986328"/>
    <use xlink:href="#DejaVuSans-56" x="621.773438"/>
    <use xlink:href="#DejaVuSans-61" x="682.431641"/>
    <use xlink:href="#DejaVuSans-6c" x="743.710938"/>
    <use xlink:href="#DejaVuSans-69" x="771.494141"/>
    <use xlink:href="#DejaVuSans-64" x="799.277344"/>
    <use xlink:href="#DejaVuSans-61" x="862.753906"/>
    <use xlink:href="#DejaVuSans-74" x="924.033203"/>
    <use xlink:href="#DejaVuSans-69" x="963.242188"/>
    <use xlink:href="#DejaVuSans-6f" x="991.025391"/>
    <use xlink:href="#DejaVuSans-6e" x="1052.207031"/>
    <use xlink:href="#DejaVuSans-20" x="1115.585938"/>
    <use xlink:href="#DejaVuSans-41" x="1147.373047"/>
    <use xlink:href="#DejaVuSans-63" x="1214.03125"/>
    <use xlink:href="#DejaVuSans-63" x="1269.011719"/>
    <use xlink:href="#DejaVuSans-75" x="1323.992188"/>
    <use xlink:href="#DejaVuSans-72" x="1387.371094"/>
    <use xlink:href="#DejaVuSans-61" x="1428.484375"/>
    <use xlink:href="#DejaVuSans-63" x="1489.763672"/>
    <use xlink:href="#DejaVuSans-79" x="1544.744141"/>
    <use xlink:href="#DejaVuSans-20" x="1603.923828"/>
    <use xlink:href="#DejaVuSans-2d" x="1635.710938"/>
    <use xlink:href="#DejaVuSans-20" x="1671.794922"/>
    <use xlink:href="#DejaVuSans-44" x="1703.582031"/>
    <use xlink:href="#DejaVuSans-61" x="1780.583984"/>
    <use xlink:href="#DejaVuSans-74" x="1841.863281"/>
    <use xlink:href="#DejaVuSans-61" x="1881.072266"/>
    <use xlink:href="#DejaVuSans-73" x="1942.351562"/>
    <use xlink:href="#DejaVuSans-65" x="1994.451172"/>
    <use xlink:href="#DejaVuSans-74" x="2055.974609"/>
    <use xlink:href="#DejaVuSans-20" x="2095.183594"/>
    <use xlink:href="#DejaVuSans-53" x="2126.970703"/>
    <use xlink:href="#DejaVuSans-69" x="2190.447266"/>
    <use xlink:href="#DejaVuSans-7a" x="2218.230469"/>
    <use xlink:href="#DejaVuSans-65" x="2270.720703"/>
    <use xlink:href="#DejaVuSans-20" x="2332.244141"/>
    <use xlink:href="#DejaVuSans-3d" x="2364.03125"/>
    <use xlink:href="#DejaVuSans-20" x="2447.820312"/>
    <use xlink:href="#DejaVuSans-31" x="2479.607422"/>
    <use xlink:href="#DejaVuSans-30" x="2543.230469"/>
    <use xlink:href="#DejaVuSans-30" x="2606.853516"/>
    <use xlink:href="#DejaVuSans-2e" x="2670.476562"/>
    <use xlink:href="#DejaVuSans-30" x="2702.263672"/>
    <use xlink:href="#DejaVuSans-25" x="2765.886719"/>
   </g>
  </g>
 </g>
 <defs>
  <clipPath id="p3145715036">
   <rect x="43.78125" y="37.296" width="279" height="202.464"/>
  </clipPath>
 </defs>
</svg>
