<?xml version="1.0" encoding="utf-8" standalone="no"?>
<!DOCTYPE svg PUBLIC "-//W3C//DTD SVG 1.1//EN"
  "http://www.w3.org/Graphics/SVG/1.1/DTD/svg11.dtd">
<svg xmlns:xlink="http://www.w3.org/1999/xlink" width="330.024432pt" height="277.31625pt" viewBox="0 0 330.024432 277.31625" xmlns="http://www.w3.org/2000/svg" version="1.1">
 <metadata>
  <rdf:RDF xmlns:dc="http://purl.org/dc/elements/1.1/" xmlns:cc="http://creativecommons.org/ns#" xmlns:rdf="http://www.w3.org/1999/02/22-rdf-syntax-ns#">
   <cc:Work>
    <dc:type rdf:resource="http://purl.org/dc/dcmitype/StillImage"/>
    <dc:date>2026-06-11T10:47:24.723818</dc:date>
    <dc:format>image/svg+xml</dc:format>
    <dc:creator>
     <cc:Agent>
      <dc:title>Matplotlib v3.8.4, https://matplotlib.org/</dc:title>
     </cc:Agent>
    </dc:creator>
   </cc:Work>
  </rdf:RDF>
 </metadata>
 <defs>
  <style type="text/css">*{stroke-linejoin: round; stroke-linecap: butt}</style>
 </defs>
 <g id="figure_1">
  <g id="patch_1">
   <path d="M 0 277.31625 
L 330.024432 277.31625 
L 330.024432 0 
L 0 0 
z
" style="fill: #ffffff"/>
  </g>
  <g id="axes_1">
   <g id="patch_2">
    <path d="M 43.78125 239.76 
L 322.78125 239.76 
L 322.78125 37.296 
L 43.78125 37.296 
z
" style="fill: #ffffff"/>
   </g>
   <g id="matplotlib.axis_1">
    <g id="xtick_1">
     <g id="line2d_1">
      <path d="M 56.209178 239.76 
L 56.209178 37.296 
" clip-path="url(#p9a5c4a2a26)" style="fill: none; stroke-dasharray: 2.96,1.28; stroke-dashoffset: 0; stroke: #b0b0b0; stroke-opacity: 0.4; stroke-width: 0.8"/>
     </g>
     <g id="line2d_2">
      <defs>
       <path id="m1c2d3428f3" d="M 0 0 
L 0 3.5 
" style="stroke: #000000; stroke-width: 0.8"/>
      </defs>
      <g>
       <use xlink:href="#m1c2d3428f3" x="56.209178" y="239.76" style="stroke: #000000; stroke-width: 0.8"/>
      </g>
     </g>
     <g id="text_1">
      <!-- 0 -->
      <g transform="translate(53.027928 254.358437) scale(0.1 -0.1)">
       <defs>
        <path id="DejaVuSans-30" d="M 2034 4250 
Q 1547 4250 1301 3770 
Q 1056 3291 1056 2328 
Q 1056 1369 1301 889 
Q 1547 409 2034 409 
Q 2525 409 2770 889 
Q 3016 1369 3016 2328 
Q 3016 3291 2770 3770 
Q 2525 4250 2034 4250 
z
M 2034 4750 
Q 2819 4750 3233 4129 
Q 3647 3509 3647 2328 
Q 3647 1150 3233 529 
Q 2819 -91 2034 -91 
Q 1250 -91 836 529 
Q 422 1150 422 2328 
Q 422 3509 836 4129 
Q 1250 4750 2034 4750 
z
" transform="scale(0.015625)"/>
       </defs>
       <use xlink:href="#DejaVuSans-30"/>
      </g>
     </g>
    </g>
    <g id="xtick_2">
     <g id="line2d_3">
      <path d="M 106.987229 239.76 
L 106.987229 37.296 
" clip-path="url(#p9a5c4a2a26)" style="fill: none; stroke-dasharray: 2.96,1.28; stroke-dashoffset: 0; stroke: #b0b0b0; stroke-opacity: 0.4; stroke-width: 0.8"/>
     </g>
     <g id="line2d_4">
      <g>
       <use xlink:href="#m1c2d3428f3" x="106.987229" y="239.76" style="stroke: #000000; stroke-width: 0.8"/>
      </g>
     </g>
     <g id="text_2">
      <!-- 200 -->
      <g transform="translate(97.443479 254.358437) scale(0.1 -0.1)">
       <defs>
        <path id="DejaVuSans-32" d="M 1228 531 
L 3431 531 
L 3431 0 
L 469 0 
L 469 531 
Q 828 903 1448 1529 
Q 2069 2156 2228 2338 
Q 2531 2678 2651 2914 
Q 2772 3150 2772 3378 
Q 2772 3750 2511 3984 
Q 2250 4219 1831 4219 
Q 1534 4219 1204 4116 
Q 875 4013 500 3803 
L 500 4441 
Q 881 4594 1212 4672 
Q 1544 4750 1819 4750 
Q 2544 4750 2975 4387 
Q 3406 4025 3406 3419 
Q 3406 3131 3298 2873 
Q 3191 2616 2906 2266 
Q 2828 2175 2409 1742 
Q 1991 1309 1228 531 
z
" transform="scale(0.015625)"/>
       </defs>
       <use xlink:href="#DejaVuSans-32"/>
       <use xlink:href="#DejaVuSans-30" x="63.623047"/>
       <use xlink:href="#DejaVuSans-30" x="127.246094"/>
      </g>
     </g>
    </g>
    <g id="xtick_3">
     <g id="line2d_5">
      <path d="M 157.765279 239.76 
L 157.765279 37.296 
" clip-path="url(#p9a5c4a2a26)" style="fill: none; stroke-dasharray: 2.96,1.28; stroke-dashoffset: 0; stroke: #b0b0b0; stroke-opacity: 0.4; stroke-width: 0.8"/>
     </g>
     <g id="line2d_6">
      <g>
       <use xlink:href="#m1c2d3428f3" x="157.765279" y="239.76" style="stroke: #000000; stroke-width: 0.8"/>
      </g>
     </g>
     <g id="text_3">
      <!-- 400 -->
      <g transform="translate(148.221529 254.358437) scale(0.1 -0.1)">
       <defs>
        <path id="DejaVuSans-34" d="M 2419 4116 
L 825 1625 
L 2419 1625 
L 2419 4116 
z
M 2253 4666 
L 3047 4666 
L 3047 1625 
L 3713 1625 
L 3713 1100 
L 3047 1100 
L 3047 0 
L 2419 0 
L 2419 1100 
L 313 1100 
L 313 1709 
L 2253 4666 
z
" transform="scale(0.015625)"/>
       </defs>
       <use xlink:href="#DejaVuSans-34"/>
       <use xlink:href="#DejaVuSans-30" x="63.623047"/>
       <use xlink:href="#DejaVuSans-30" x="127.246094"/>
      </g>
     </g>
    </g>
    <g id="xtick_4">
     <g id="line2d_7">
      <path d="M 208.54333 239.76 
L 208.54333 37.296 
" clip-path="url(#p9a5c4a2a26)" style="fill: none; stroke-dasharray: 2.96,1.28; stroke-dashoffset: 0; stroke: #b0b0b0; stroke-opacity: 0.4; stroke-width: 0.8"/>
     </g>
     <g id="line2d_8">
      <g>
       <use xlink:href="#m1c2d3428f3" x="208.54333" y="239.76" style="stroke: #000000; stroke-width: 0.8"/>
      </g>
     </g>
     <g id="text_4">
      <!-- 600 -->
      <g transform="translate(198.99958 254.358437) scale(0.1 -0.1)">
       <defs>
        <path id="DejaVuSans-36" d="M 2113 2584 
Q 1688 2584 1439 2293 
Q 1191 2003 1191 1497 
Q 1191 994 1439 701 
Q 1688 409 2113 409 
Q 2538 409 2786 701 
Q 3034 994 3034 1497 
Q 3034 2003 2786 2293 
Q 2538 2584 2113 2584 
z
M 3366 4563 
L 3366 3988 
Q 3128 4100 2886 4159 
Q 2644 4219 2406 4219 
Q 1781 4219 1451 3797 
Q 1122 3375 1075 2522 
Q 1259 2794 1537 2939 
Q 1816 3084 2150 3084 
Q 2853 3084 3261 2657 
Q 3669 2231 3669 1497 
Q 3669 778 3244 343 
Q 2819 -91 2113 -91 
Q 1303 -91 875 529 
Q 447 1150 447 2328 
Q 447 3434 972 4092 
Q 1497 4750 2381 4750 
Q 2619 4750 2861 4703 
Q 3103 4656 3366 4563 
z
" transform="scale(0.015625)"/>
       </defs>
       <use xlink:href="#DejaVuSans-36"/>
       <use xlink:href="#DejaVuSans-30" x="63.623047"/>
       <use xlink:href="#DejaVuSans-30" x="127.246094"/>
      </g>
     </g>
    </g>
    <g id="xtick_5">
     <g id="line2d_9">
      <path d="M 259.321381 239.76 
L 259.321381 37.296 
" clip-path="url(#p9a5c4a2a26)" style="fill: none; stroke-dasharray: 2.96,1.28; stroke-dashoffset: 0; stroke: #b0b0b0; stroke-opacity: 0.4; stroke-width: 0.8"/>
     </g>
     <g id="line2d_10">
      <g>
       <use xlink:href="#m1c2d3428f3" x="259.321381" y="239.76" style="stroke: #000000; stroke-width: 0.8"/>
      </g>
     </g>
     <g id="text_5">
      <!-- 800 -->
      <g transform="translate(249.777631 254.358437) scale(0.1 -0.1)">
       <defs>
        <path id="DejaVuSans-38" d="M 2034 2216 
Q 1584 2216 1326 1975 
Q 1069 1734 1069 1313 
Q 1069 891 1326 650 
Q 1584 409 2034 409 
Q 2484 409 2743 651 
Q 3003 894 3003 1313 
Q 3003 1734 2745 1975 
Q 2488 2216 2034 2216 
z
M 1403 2484 
Q 997 2584 770 2862 
Q 544 3141 544 3541 
Q 544 4100 942 4425 
Q 1341 4750 2034 4750 
Q 2731 4750 3128 4425 
Q 3525 4100 3525 3541 
Q 3525 3141 3298 2862 
Q 3072 2584 2669 2484 
Q 3125 2378 3379 2068 
Q 3634 1759 3634 1313 
Q 3634 634 3220 271 
Q 2806 -91 2034 -91 
Q 1263 -91 848 271 
Q 434 634 434 1313 
Q 434 1759 690 2068 
Q 947 2378 1403 2484 
z
M 1172 3481 
Q 1172 3119 1398 2916 
Q 1625 2713 2034 2713 
Q 2441 2713 2670 2916 
Q 2900 3119 2900 3481 
Q 2900 3844 2670 4047 
Q 2441 4250 2034 4250 
Q 1625 4250 1398 4047 
Q 1172 3844 1172 3481 
z
" transform="scale(0.015625)"/>
       </defs>
       <use xlink:href="#DejaVuSans-38"/>
       <use xlink:href="#DejaVuSans-30" x="63.623047"/>
       <use xlink:href="#DejaVuSans-30" x="127.246094"/>
      </g>
     </g>
    </g>
    <g id="xtick_6">
     <g id="line2d_11">
      <path d="M 310.099432 239.76 
L 310.099432 37.296 
" clip-path="url(#p9a5c4a2a26)" style="fill: none; stroke-dasharray: 2.96,1.28; stroke-dashoffset: 0; stroke: #b0b0b0; stroke-opacity: 0.4; stroke-width: 0.8"/>
     </g>
     <g id="line2d_12">
      <g>
       <use xlink:href="#m1c2d3428f3" x="310.099432" y="239.76" style="stroke: #000000; stroke-width: 0.8"/>
      </g>
     </g>
     <g id="text_6">
      <!-- 1000 -->
      <g transform="translate(297.374432 254.358437) scale(0.1 -0.1)">
       <defs>
        <path id="DejaVuSans-31" d="M 794 531 
L 1825 531 
L 1825 4091 
L 703 3866 
L 703 4441 
L 1819 4666 
L 2450 4666 
L 2450 531 
L 3481 531 
L 3481 0 
L 794 0 
L 794 531 
z
" transform="scale(0.015625)"/>
       </defs>
       <use xlink:href="#DejaVuSans-31"/>
       <use xlink:href="#DejaVuSans-30" x="63.623047"/>
       <use xlink:href="#DejaVuSans-30" x="127.246094"/>
       <use xlink:href="#DejaVuSans-30" x="190.869141"/>
      </g>
     </g>
    </g>
    <g id="text_7">
     <!-- Epochs -->
     <g transform="translate(165.365625 268.036562) scale(0.1 -0.1)">
      <defs>
       <path id="DejaVuSans-45" d="M 628 4666 
L 3578 4666 
L 3578 4134 
L 1259 4134 
L 1259 2753 
L 3481 2753 
L 3481 2222 
L 1259 2222 
L 1259 531 
L 3634 531 
L 3634 0 
L 628 0 
L 628 4666 
z
" transform="scale(0.015625)"/>
       <path id="DejaVuSans-70" d="M 1159 525 
L 1159 -1331 
L 581 -1331 
L 581 3500 
L 1159 3500 
L 1159 2969 
Q 1341 3281 1617 3432 
Q 1894 3584 2278 3584 
Q 2916 3584 3314 3078 
Q 3713 2572 3713 1747 
Q 3713 922 3314 415 
Q 2916 -91 2278 -91 
Q 1894 -91 1617 61 
Q 1341 213 1159 525 
z
M 3116 1747 
Q 3116 2381 2855 2742 
Q 2594 3103 2138 3103 
Q 1681 3103 1420 2742 
Q 1159 2381 1159 1747 
Q 1159 1113 1420 752 
Q 1681 391 2138 391 
Q 2594 391 2855 752 
Q 3116 1113 3116 1747 
z
" transform="scale(0.015625)"/>
       <path id="DejaVuSans-6f" d="M 1959 3097 
Q 1497 3097 1228 2736 
Q 959 2375 959 1747 
Q 959 1119 1226 758 
Q 1494 397 1959 397 
Q 2419 397 2687 759 
Q 2956 1122 2956 1747 
Q 2956 2369 2687 2733 
Q 2419 3097 1959 3097 
z
M 1959 3584 
Q 2709 3584 3137 3096 
Q 3566 2609 3566 1747 
Q 3566 888 3137 398 
Q 2709 -91 1959 -91 
Q 1206 -91 779 398 
Q 353 888 353 1747 
Q 353 2609 779 3096 
Q 1206 3584 1959 3584 
z
" transform="scale(0.015625)"/>
       <path id="DejaVuSans-63" d="M 3122 3366 
L 3122 2828 
Q 2878 2963 2633 3030 
Q 2388 3097 2138 3097 
Q 1578 3097 1268 2742 
Q 959 2388 959 1747 
Q 959 1106 1268 751 
Q 1578 397 2138 397 
Q 2388 397 2633 464 
Q 2878 531 3122 666 
L 3122 134 
Q 2881 22 2623 -34 
Q 2366 -91 2075 -91 
Q 1284 -91 818 406 
Q 353 903 353 1747 
Q 353 2603 823 3093 
Q 1294 3584 2113 3584 
Q 2378 3584 2631 3529 
Q 2884 3475 3122 3366 
z
" transform="scale(0.015625)"/>
       <path id="DejaVuSans-68" d="M 3513 2113 
L 3513 0 
L 2938 0 
L 2938 2094 
Q 2938 2591 2744 2837 
Q 2550 3084 2163 3084 
Q 1697 3084 1428 2787 
Q 1159 2491 1159 1978 
L 1159 0 
L 581 0 
L 581 4863 
L 1159 4863 
L 1159 2956 
Q 1366 3272 1645 3428 
Q 1925 3584 2291 3584 
Q 2894 3584 3203 3211 
Q 3513 2838 3513 2113 
z
" transform="scale(0.015625)"/>
       <path id="DejaVuSans-73" d="M 2834 3397 
L 2834 2853 
Q 2591 2978 2328 3040 
Q 2066 3103 1784 3103 
Q 1356 3103 1142 2972 
Q 928 2841 928 2578 
Q 928 2378 1081 2264 
Q 1234 2150 1697 2047 
L 1894 2003 
Q 2506 1872 2764 1633 
Q 3022 1394 3022 966 
Q 3022 478 2636 193 
Q 2250 -91 1575 -91 
Q 1294 -91 989 -36 
Q 684 19 347 128 
L 347 722 
Q 666 556 975 473 
Q 1284 391 1588 391 
Q 1994 391 2212 530 
Q 2431 669 2431 922 
Q 2431 1156 2273 1281 
Q 2116 1406 1581 1522 
L 1381 1569 
Q 847 1681 609 1914 
Q 372 2147 372 2553 
Q 372 3047 722 3315 
Q 1072 3584 1716 3584 
Q 2034 3584 2315 3537 
Q 2597 3491 2834 3397 
z
" transform="scale(0.015625)"/>
      </defs>
      <use xlink:href="#DejaVuSans-45"/>
      <use xlink:href="#DejaVuSans-70" x="63.183594"/>
      <use xlink:href="#DejaVuSans-6f" x="126.660156"/>
      <use xlink:href="#DejaVuSans-63" x="187.841797"/>
      <use xlink:href="#DejaVuSans-68" x="242.822266"/>
      <use xlink:href="#DejaVuSans-73" x="306.201172"/>
     </g>
    </g>
   </g>
   <g id="matplotlib.axis_2">
    <g id="ytick_1">
     <g id="line2d_13">
      <path d="M 43.78125 233.51922 
L 322.78125 233.51922 
" clip-path="url(#p9a5c4a2a26)" style="fill: none; stroke-dasharray: 2.96,1.28; stroke-dashoffset: 0; stroke: #b0b0b0; stroke-opacity: 0.4; stroke-width: 0.8"/>
     </g>
     <g id="line2d_14">
      <defs>
       <path id="m5a2b310a37" d="M 0 0 
L -3.5 0 
" style="stroke: #000000; stroke-width: 0.8"/>
      </defs>
      <g>
       <use xlink:href="#m5a2b310a37" x="43.78125" y="233.51922" style="stroke: #000000; stroke-width: 0.8"/>
      </g>
     </g>
     <g id="text_8">
      <!-- 0.0 -->
      <g transform="translate(20.878125 237.318438) scale(0.1 -0.1)">
       <defs>
        <path id="DejaVuSans-2e" d="M 684 794 
L 1344 794 
L 1344 0 
L 684 0 
L 684 794 
z
" transform="scale(0.015625)"/>
       </defs>
       <use xlink:href="#DejaVuSans-30"/>
       <use xlink:href="#DejaVuSans-2e" x="63.623047"/>
       <use xlink:href="#DejaVuSans-30" x="95.410156"/>
      </g>
     </g>
    </g>
    <g id="ytick_2">
     <g id="line2d_15">
      <path d="M 43.78125 193.709562 
L 322.78125 193.709562 
" clip-path="url(#p9a5c4a2a26)" style="fill: none; stroke-dasharray: 2.96,1.28; stroke-dashoffset: 0; stroke: #b0b0b0; stroke-opacity: 0.4; stroke-width: 0.8"/>
     </g>
     <g id="line2d_16">
      <g>
       <use xlink:href="#m5a2b310a37" x="43.78125" y="193.709562" style="stroke: #000000; stroke-width: 0.8"/>
      </g>
     </g>
     <g id="text_9">
      <!-- 0.2 -->
      <g transform="translate(20.878125 197.508781) scale(0.1 -0.1)">
       <use xlink:href="#DejaVuSans-30"/>
       <use xlink:href="#DejaVuSans-2e" x="63.623047"/>
       <use xlink:href="#DejaVuSans-32" x="95.410156"/>
      </g>
     </g>
    </g>
    <g id="ytick_3">
     <g id="line2d_17">
      <path d="M 43.78125 153.899905 
L 322.78125 153.899905 
" clip-path="url(#p9a5c4a2a26)" style="fill: none; stroke-dasharray: 2.96,1.28; stroke-dashoffset: 0; stroke: #b0b0b0; stroke-opacity: 0.4; stroke-width: 0.8"/>
     </g>
     <g id="line2d_18">
      <g>
       <use xlink:href="#m5a2b310a37" x="43.78125" y="153.899905" style="stroke: #000000; stroke-width: 0.8"/>
      </g>
     </g>
     <g id="text_10">
      <!-- 0.4 -->
      <g transform="translate(20.878125 157.699124) scale(0.1 -0.1)">
       <use xlink:href="#DejaVuSans-30"/>
       <use xlink:href="#DejaVuSans-2e" x="63.623047"/>
       <use xlink:href="#DejaVuSans-34" x="95.410156"/>
      </g>
     </g>
    </g>
    <g id="ytick_4">
     <g id="line2d_19">
      <path d="M 43.78125 114.090248 
L 322.78125 114.090248 
" clip-path="url(#p9a5c4a2a26)" style="fill: none; stroke-dasharray: 2.96,1.28; stroke-dashoffset: 0; stroke: #b0b0b0; stroke-opacity: 0.4; stroke-width: 0.8"/>
     </g>
     <g id="line2d_20">
      <g>
       <use xlink:href="#m5a2b310a37" x="43.78125" y="114.090248" style="stroke: #000000; stroke-width: 0.8"/>
      </g>
     </g>
     <g id="text_11">
      <!-- 0.6 -->
      <g transform="translate(20.878125 117.889467) scale(0.1 -0.1)">
       <use xlink:href="#DejaVuSans-30"/>
       <use xlink:href="#DejaVuSans-2e" x="63.623047"/>
       <use xlink:href="#DejaVuSans-36" x="95.410156"/>
      </g>
     </g>
    </g>
    <g id="ytick_5">
     <g id="line2d_21">
      <path d="M 43.78125 74.280591 
L 322.78125 74.280591 
" clip-path="url(#p9a5c4a2a26)" style="fill: none; stroke-dasharray: 2.96,1.28; stroke-dashoffset: 0; stroke: #b0b0b0; stroke-opacity: 0.4; stroke-width: 0.8"/>
     </g>
     <g id="line2d_22">
      <g>
       <use xlink:href="#m5a2b310a37" x="43.78125" y="74.280591" style="stroke: #000000; stroke-width: 0.8"/>
      </g>
     </g>
     <g id="text_12">
      <!-- 0.8 -->
      <g transform="translate(20.878125 78.079809) scale(0.1 -0.1)">
       <use xlink:href="#DejaVuSans-30"/>
       <use xlink:href="#DejaVuSans-2e" x="63.623047"/>
       <use xlink:href="#DejaVuSans-38" x="95.410156"/>
      </g>
     </g>
    </g>
    <g id="text_13">
     <!-- Loss -->
     <g transform="translate(14.798438 149.495187) rotate(-90) scale(0.1 -0.1)">
      <defs>
       <path id="DejaVuSans-4c" d="M 628 4666 
L 1259 4666 
L 1259 531 
L 3531 531 
L 3531 0 
L 628 0 
L 628 4666 
z
" transform="scale(0.015625)"/>
      </defs>
      <use xlink:href="#DejaVuSans-4c"/>
      <use xlink:href="#DejaVuSans-6f" x="53.962891"/>
      <use xlink:href="#DejaVuSans-73" x="115.144531"/>
      <use xlink:href="#DejaVuSans-73" x="167.244141"/>
     </g>
    </g>
   </g>
   <g id="line2d_23">
    <path d="M 56.463068 91.915064 
L 56.716958 95.135803 
L 56.970849 95.991189 
L 57.224739 95.941561 
L 57.478629 96.06572 
L 57.732519 96.467691 
L 57.98641 96.471048 
L 58.49419 97.502914 
L 58.74808 98.290151 
L 59.001971 97.97798 
L 60.017532 102.577779 
L 60.779202 111.935633 
L 61.540873 123.812043 
L 61.794764 129.0044 
L 62.048654 122.67607 
L 62.556434 136.742606 
L 62.810325 136.939493 
L 63.064215 137.595542 
L 63.318105 140.569256 
L 63.571995 141.075051 
L 63.825886 145.152991 
L 64.333666 149.61806 
L 64.587556 148.229141 
L 64.841447 152.808451 
L 65.095337 153.849167 
L 65.349227 153.290066 
L 65.857008 157.976207 
L 66.110898 156.895135 
L 66.364788 161.617627 
L 66.618678 159.46565 
L 67.380349 162.805874 
L 67.634239 162.433457 
L 68.14202 169.004095 
L 68.39591 164.969988 
L 68.6498 165.396494 
L 69.411471 173.290792 
L 69.665361 171.791151 
L 69.919252 175.959176 
L 70.173142 173.056527 
L 70.427032 166.272499 
L 70.680922 172.692231 
L 70.934813 175.941931 
L 71.442593 164.769791 
L 71.696483 176.201259 
L 71.950374 166.416056 
L 72.458154 181.05835 
L 72.712044 180.267987 
L 72.965935 181.669001 
L 73.219825 182.005209 
L 73.473715 179.927947 
L 73.727605 185.013069 
L 73.981496 187.523694 
L 74.235386 187.964289 
L 74.489276 178.435869 
L 74.743166 180.025607 
L 74.997057 186.115778 
L 75.250947 187.245176 
L 75.504837 190.458435 
L 75.758727 192.082422 
L 76.012618 192.803736 
L 76.266508 191.618861 
L 76.774288 195.713215 
L 77.028179 187.97658 
L 77.282069 194.6435 
L 77.535959 190.868432 
L 77.78985 182.236211 
L 78.04374 192.029772 
L 78.29763 191.765209 
L 78.55152 196.309234 
L 78.805411 195.099441 
L 79.059301 196.481452 
L 79.313191 195.4666 
L 79.567081 199.223975 
L 79.820972 199.002316 
L 80.074862 201.2443 
L 80.328752 196.889242 
L 80.582642 185.876068 
L 80.836533 199.68799 
L 81.090423 196.494894 
L 81.344313 205.015085 
L 81.598203 201.316446 
L 81.852094 205.584294 
L 82.105984 206.250629 
L 82.359874 210.871248 
L 82.867655 208.640729 
L 83.121545 211.342979 
L 83.375435 210.744477 
L 83.629325 200.475366 
L 83.883216 207.63786 
L 84.137106 210.726684 
L 84.390996 211.184811 
L 84.644886 211.335672 
L 84.898777 213.129811 
L 85.152667 213.66482 
L 85.406557 213.741637 
L 85.660447 215.416532 
L 86.168228 211.777057 
L 86.422118 208.315267 
L 86.676008 214.95509 
L 86.929899 209.332468 
L 87.183789 215.052107 
L 87.437679 212.982362 
L 87.691569 216.633311 
L 87.94546 214.763123 
L 88.19935 216.915179 
L 88.45324 212.117406 
L 88.70713 218.290022 
L 88.961021 215.261473 
L 89.214911 215.761911 
L 89.468801 218.718194 
L 89.722691 218.202749 
L 89.976582 220.25733 
L 90.484362 213.897368 
L 90.738252 213.286669 
L 90.992143 217.644031 
L 91.246033 217.614986 
L 91.499923 216.005502 
L 91.753813 219.63967 
L 92.007704 217.272669 
L 92.261594 216.511335 
L 92.515484 218.368043 
L 92.769374 218.537855 
L 93.023265 216.466834 
L 93.277155 218.029256 
L 93.531045 218.201016 
L 93.784936 218.769353 
L 94.038826 218.924507 
L 94.292716 218.792061 
L 94.546606 220.963709 
L 94.800497 219.503966 
L 95.054387 221.999149 
L 95.308277 222.123433 
L 95.562167 222.419957 
L 95.816058 221.835907 
L 96.069948 222.296054 
L 96.323838 222.281144 
L 96.577728 222.070571 
L 96.831619 222.364773 
L 97.085509 221.709401 
L 97.339399 222.326112 
L 97.593289 224.411024 
L 97.84718 223.283822 
L 98.10107 220.691874 
L 98.35496 224.013722 
L 98.60885 222.758893 
L 98.862741 223.928078 
L 99.116631 224.34875 
L 99.370521 223.11116 
L 99.624411 224.390738 
L 99.878302 223.033024 
L 100.132192 222.695451 
L 100.639972 223.952014 
L 100.893863 221.902984 
L 101.147753 224.679506 
L 101.401643 223.220405 
L 102.163314 225.004451 
L 102.924985 222.21268 
L 103.178875 222.027556 
L 103.686655 226.553133 
L 103.940546 224.294632 
L 104.194436 225.834276 
L 104.702216 224.420565 
L 104.956107 225.334462 
L 105.463887 224.305037 
L 105.717777 225.840766 
L 105.971668 223.737056 
L 106.225558 225.905879 
L 106.479448 222.381042 
L 106.733338 224.1694 
L 106.987229 224.566943 
L 107.241119 224.68087 
L 107.495009 227.185766 
L 107.748899 224.139582 
L 108.00279 225.805157 
L 108.25668 225.290058 
L 108.51057 225.15656 
L 108.76446 226.340381 
L 109.272241 223.830363 
L 109.526131 224.212683 
L 109.780021 226.379488 
L 110.033912 224.327505 
L 110.541692 226.757625 
L 110.795583 226.330714 
L 111.049473 226.292607 
L 111.303363 223.0398 
L 111.557253 225.405816 
L 111.811144 226.098294 
L 112.065034 224.829132 
L 112.318924 227.063322 
L 112.572814 225.594849 
L 112.826705 225.989468 
L 113.080595 224.970947 
L 113.334485 224.852862 
L 113.842266 225.71413 
L 114.096156 228.040097 
L 114.350046 227.275197 
L 114.603936 226.010382 
L 114.857827 226.306736 
L 115.111717 226.125093 
L 115.365607 224.88001 
L 115.873388 228.545178 
L 116.127278 227.68181 
L 116.381168 225.551228 
L 116.635058 226.964633 
L 116.888949 225.478237 
L 117.142839 225.669834 
L 117.396729 228.070342 
L 117.650619 224.646578 
L 117.90451 227.717707 
L 118.1584 227.706416 
L 118.41229 224.882438 
L 118.66618 226.746727 
L 118.920071 226.010113 
L 119.173961 224.838235 
L 119.427851 225.752021 
L 119.681741 227.175051 
L 119.935632 227.097816 
L 120.189522 225.412843 
L 120.443412 227.386182 
L 120.697302 226.990496 
L 120.951193 226.957899 
L 121.205083 227.78166 
L 121.458973 227.533141 
L 121.966754 227.842045 
L 122.220644 227.479354 
L 122.474534 226.843637 
L 122.728424 228.039172 
L 122.982315 224.255902 
L 123.236205 227.124756 
L 123.490095 228.056804 
L 123.997876 227.743578 
L 124.251766 224.448505 
L 124.505656 226.364123 
L 124.759546 227.206833 
L 125.013437 225.98933 
L 125.267327 227.565438 
L 125.521217 228.121533 
L 126.282888 227.51091 
L 126.536778 226.559077 
L 127.044559 228.289442 
L 127.298449 226.957926 
L 127.552339 228.560132 
L 127.80623 227.576651 
L 128.06012 226.118255 
L 128.31401 227.915196 
L 128.5679 227.907689 
L 128.821791 227.169915 
L 129.075681 228.849815 
L 129.329571 228.03422 
L 129.583461 225.504118 
L 129.837352 226.797781 
L 130.091242 226.59494 
L 130.345132 228.11988 
L 130.599022 227.493904 
L 130.852913 228.009249 
L 131.106803 228.184944 
L 131.360693 228.143792 
L 131.868474 228.760154 
L 132.122364 228.004162 
L 132.376254 226.657049 
L 132.630144 228.430189 
L 132.884035 228.490566 
L 133.137925 227.928615 
L 133.391815 228.402856 
L 133.645705 227.192864 
L 133.899596 228.155129 
L 134.153486 228.302456 
L 134.661266 226.665208 
L 134.915157 227.791561 
L 135.169047 225.892032 
L 135.422937 227.727813 
L 135.930718 227.058523 
L 136.184608 228.789265 
L 136.692388 226.866843 
L 136.946279 228.493967 
L 137.200169 228.33146 
L 137.454059 228.401299 
L 137.707949 227.633296 
L 137.96184 226.1435 
L 138.21573 227.296785 
L 138.46962 226.894533 
L 138.72351 227.404651 
L 138.977401 228.535343 
L 139.231291 227.553833 
L 139.739071 229.594251 
L 140.246852 227.819653 
L 140.500742 228.439367 
L 140.754632 228.513994 
L 141.008523 228.990437 
L 141.262413 227.972643 
L 141.516303 228.409699 
L 141.770193 228.52671 
L 142.024084 227.297553 
L 142.277974 227.611094 
L 142.531864 227.433332 
L 142.785755 228.735088 
L 143.293535 227.376021 
L 143.547425 227.501684 
L 143.801316 227.174309 
L 144.055206 227.254142 
L 144.309096 227.994066 
L 144.562986 229.532359 
L 144.816877 228.09277 
L 145.070767 227.431689 
L 145.578547 228.350935 
L 145.832438 228.124653 
L 146.086328 228.886013 
L 146.340218 227.046973 
L 146.594108 228.188327 
L 146.847999 227.99114 
L 147.101889 228.222917 
L 147.355779 228.172182 
L 147.609669 229.315918 
L 147.86356 228.469792 
L 148.11745 226.295236 
L 148.37134 228.157781 
L 148.62523 229.123186 
L 148.879121 227.991636 
L 149.133011 227.849183 
L 149.386901 228.942549 
L 149.640791 228.276167 
L 149.894682 229.492855 
L 150.148572 229.010832 
L 150.402462 228.94859 
L 150.656352 228.13701 
L 150.910243 228.818556 
L 151.164133 228.808827 
L 151.418023 228.437603 
L 151.671913 228.713759 
L 151.925804 228.419938 
L 152.179694 228.741265 
L 152.433584 228.677772 
L 152.687474 227.730485 
L 152.941365 228.407796 
L 153.195255 227.543762 
L 153.449145 228.071465 
L 153.703035 229.21071 
L 153.956926 227.729632 
L 154.210816 228.619522 
L 154.464706 227.532704 
L 154.718596 228.600495 
L 155.226377 227.142001 
L 155.734157 228.435573 
L 155.988048 227.903652 
L 156.241938 229.423214 
L 156.495828 227.756077 
L 156.749718 228.892426 
L 157.003609 228.181333 
L 157.257499 228.076436 
L 157.511389 229.097014 
L 157.765279 228.166231 
L 158.01917 228.073062 
L 158.27306 228.458524 
L 158.52695 227.785229 
L 158.78084 228.017148 
L 159.034731 227.008397 
L 159.288621 227.639936 
L 159.542511 226.96437 
L 159.796402 229.520662 
L 160.050292 227.977501 
L 160.558072 229.192922 
L 160.811963 229.015583 
L 161.065853 226.983722 
L 161.319743 228.404133 
L 161.827524 226.305193 
L 162.081414 227.646962 
L 162.335304 228.039543 
L 162.589194 227.932498 
L 163.096975 228.200593 
L 163.350865 227.729478 
L 163.604755 228.978698 
L 163.858646 229.05463 
L 164.112536 227.846397 
L 164.366426 227.790832 
L 164.620316 229.053229 
L 164.874207 227.667349 
L 165.128097 228.1064 
L 165.381987 228.141303 
L 165.635877 229.094708 
L 165.889768 228.99896 
L 166.143658 228.570688 
L 166.397548 228.363821 
L 166.651438 228.526285 
L 166.905329 228.487221 
L 167.159219 229.031767 
L 167.413109 228.27697 
L 167.666999 228.215728 
L 167.92089 228.572499 
L 168.17478 228.123403 
L 168.42867 228.639771 
L 168.68256 227.727406 
L 169.190341 229.082567 
L 169.444231 227.027661 
L 169.698121 228.81506 
L 169.952012 228.602389 
L 170.205902 227.984784 
L 170.459792 228.445893 
L 170.713682 227.784442 
L 170.967573 227.533501 
L 171.221463 226.792757 
L 171.475353 227.107656 
L 171.729243 226.777524 
L 172.237024 228.481711 
L 172.490914 227.088895 
L 172.998695 229.415059 
L 173.760365 227.951341 
L 174.014256 227.65269 
L 174.268146 227.710182 
L 174.522036 228.204752 
L 174.775926 228.283457 
L 175.029817 229.053983 
L 175.283707 228.779205 
L 175.537597 227.871925 
L 175.791488 227.866583 
L 176.045378 229.007367 
L 176.553158 227.812237 
L 176.807049 228.852205 
L 177.060939 228.92913 
L 177.314829 229.528139 
L 177.568719 228.541843 
L 177.82261 228.306219 
L 178.0765 228.776274 
L 178.58428 228.841666 
L 179.092061 227.981342 
L 179.345951 228.71145 
L 179.599841 227.911437 
L 179.853732 226.211647 
L 180.107622 228.071139 
L 180.361512 227.815953 
L 180.869293 229.025461 
L 181.123183 229.053294 
L 181.377073 227.624724 
L 181.630963 227.522383 
L 181.884854 227.582369 
L 182.138744 229.236832 
L 182.392634 229.120876 
L 182.646524 227.169984 
L 182.900415 227.911512 
L 183.154305 229.180625 
L 183.408195 227.829688 
L 183.662085 227.553096 
L 183.915976 229.424475 
L 184.169866 229.082767 
L 184.423756 227.956717 
L 184.931537 227.013003 
L 185.439317 228.689112 
L 185.693207 227.499621 
L 185.947098 226.864569 
L 186.200988 228.201647 
L 186.454878 228.70013 
L 186.708768 228.292633 
L 186.962659 227.405656 
L 187.216549 228.323582 
L 187.470439 226.904967 
L 187.724329 226.971927 
L 187.97822 229.147404 
L 188.23211 230.176991 
L 188.486 229.661984 
L 188.73989 227.533693 
L 188.993781 228.213214 
L 189.501561 228.633504 
L 189.755451 226.335449 
L 190.009342 227.649277 
L 190.263232 228.308407 
L 190.771012 226.954047 
L 191.278793 229.785833 
L 191.786574 228.036228 
L 192.548244 228.688831 
L 192.802135 228.526089 
L 193.056025 228.078146 
L 193.309915 228.513241 
L 193.817696 228.987937 
L 194.071586 227.567084 
L 194.325476 227.378684 
L 194.579366 227.047844 
L 194.833257 229.039691 
L 195.087147 228.860886 
L 195.341037 229.563209 
L 195.594927 229.358441 
L 195.848818 228.26701 
L 196.102708 229.51043 
L 196.356598 228.761317 
L 196.610488 227.317645 
L 197.118269 229.089524 
L 197.372159 227.703414 
L 197.626049 227.941821 
L 197.87994 228.79324 
L 198.13383 228.870295 
L 198.38772 228.793468 
L 198.64161 228.233228 
L 198.895501 228.071364 
L 199.149391 228.662592 
L 199.403281 227.718261 
L 199.657171 227.867989 
L 199.911062 228.333589 
L 200.164952 227.955798 
L 200.672732 228.926762 
L 200.926623 227.925113 
L 201.434403 229.373487 
L 201.942184 226.421962 
L 202.196074 229.434691 
L 202.449964 227.544828 
L 202.703854 228.038001 
L 202.957745 228.80996 
L 203.211635 227.426799 
L 203.465525 228.205778 
L 203.719415 229.518326 
L 203.973306 227.944405 
L 204.227196 227.839411 
L 204.481086 228.453359 
L 204.734976 228.0238 
L 204.988867 228.29659 
L 205.242757 227.737142 
L 205.496647 228.188466 
L 205.750537 227.841098 
L 206.004428 228.073509 
L 206.258318 228.721991 
L 206.512208 227.473836 
L 206.766098 228.883841 
L 207.019989 228.93825 
L 207.273879 228.682375 
L 207.527769 229.077959 
L 207.78166 227.273632 
L 208.03555 229.187804 
L 208.28944 228.123614 
L 208.54333 227.743456 
L 208.797221 229.312537 
L 209.305001 228.046255 
L 209.558891 226.122121 
L 209.812782 228.874916 
L 210.066672 228.178298 
L 210.320562 228.152366 
L 210.574452 227.692959 
L 210.828343 227.730573 
L 211.082233 229.364013 
L 211.336123 227.688656 
L 211.590013 228.787154 
L 211.843904 228.772364 
L 212.097794 227.01382 
L 212.351684 229.06355 
L 212.605574 228.355341 
L 212.859465 229.119443 
L 213.113355 229.050062 
L 213.367245 227.402246 
L 213.875026 229.142099 
L 214.128916 228.793828 
L 214.636696 229.843509 
L 214.890587 227.493152 
L 215.144477 228.412207 
L 215.398367 227.339604 
L 215.652257 226.833748 
L 215.906148 229.58386 
L 216.160038 229.233608 
L 216.413928 227.15573 
L 216.921709 228.77653 
L 217.175599 227.235606 
L 217.429489 227.070543 
L 217.683379 229.099656 
L 217.93727 229.220356 
L 218.19116 228.370184 
L 218.44505 229.417554 
L 218.69894 228.517137 
L 218.952831 229.351582 
L 219.206721 228.882517 
L 219.460611 228.134174 
L 219.714501 228.33267 
L 220.222282 227.47424 
L 220.476172 226.671601 
L 220.730062 229.055672 
L 220.983953 229.385362 
L 221.237843 228.651611 
L 221.491733 227.475728 
L 221.745623 229.186539 
L 221.999514 228.762393 
L 222.507294 228.768586 
L 222.761184 227.974686 
L 223.015075 227.899618 
L 223.268965 228.475886 
L 223.522855 228.389557 
L 224.030636 228.654389 
L 224.284526 227.992671 
L 224.538416 225.970986 
L 224.792307 228.480314 
L 225.046197 228.545495 
L 225.300087 228.992554 
L 225.553977 227.413348 
L 225.807868 228.081383 
L 226.061758 227.516661 
L 226.315648 228.886273 
L 226.569538 226.241421 
L 226.823429 228.651433 
L 227.077319 228.454425 
L 227.331209 227.623811 
L 227.585099 228.19408 
L 227.83899 227.734261 
L 228.09288 227.602697 
L 228.34677 227.950364 
L 228.60066 229.301843 
L 228.854551 227.136777 
L 229.108441 228.945607 
L 229.362331 227.782639 
L 229.616221 229.090519 
L 229.870112 227.774279 
L 230.124002 229.696895 
L 230.631782 228.383457 
L 230.885673 228.83594 
L 231.139563 228.601126 
L 231.393453 226.170662 
L 231.647343 228.860018 
L 231.901234 227.795486 
L 232.155124 228.412819 
L 232.662904 227.430459 
L 232.916795 228.705298 
L 233.170685 228.548514 
L 233.424575 227.023151 
L 234.186246 229.023136 
L 234.440136 229.357775 
L 234.694026 228.922376 
L 234.947917 227.236789 
L 235.455697 228.570173 
L 235.709587 228.725138 
L 236.217368 228.129982 
L 236.471258 228.700231 
L 236.725148 228.314065 
L 236.979039 228.512204 
L 237.232929 228.023757 
L 237.486819 226.699 
L 237.740709 227.495664 
L 237.9946 228.905617 
L 238.24849 228.032332 
L 238.50238 228.316319 
L 238.75627 227.012898 
L 239.010161 227.945255 
L 239.264051 227.607878 
L 239.517941 230.557091 
L 239.771831 229.789864 
L 240.025722 227.666173 
L 240.279612 227.688972 
L 240.533502 228.040486 
L 240.787393 227.77048 
L 241.041283 228.899303 
L 241.295173 229.032389 
L 241.549063 227.338546 
L 241.802954 228.610397 
L 242.056844 227.119624 
L 242.310734 228.705331 
L 242.564624 227.847778 
L 242.818515 228.927238 
L 243.072405 229.496825 
L 243.326295 226.304899 
L 243.580185 228.417993 
L 243.834076 229.190959 
L 244.087966 228.398934 
L 244.341856 228.641548 
L 244.595746 227.336632 
L 244.849637 229.85745 
L 245.357417 227.917379 
L 245.611307 229.046337 
L 245.865198 228.467528 
L 246.119088 227.479086 
L 246.372978 226.954424 
L 246.626868 228.642514 
L 246.880759 229.282667 
L 247.134649 227.354104 
L 247.388539 228.969758 
L 247.642429 228.40442 
L 247.89632 229.024184 
L 248.4041 228.318348 
L 248.911881 229.061253 
L 249.165771 229.169258 
L 249.419661 229.02868 
L 249.673551 229.208069 
L 249.927442 227.51988 
L 250.181332 229.760244 
L 250.435222 228.632793 
L 250.689112 228.611552 
L 250.943003 227.265604 
L 251.196893 227.992543 
L 251.450783 228.043448 
L 251.704673 228.297947 
L 251.958564 229.674132 
L 252.212454 228.768001 
L 252.466344 227.175014 
L 252.720234 227.262835 
L 252.974125 228.667001 
L 253.228015 227.867228 
L 253.481905 229.178139 
L 253.735795 228.682231 
L 253.989686 227.068669 
L 254.243576 228.318106 
L 254.497466 227.546963 
L 254.751356 229.411679 
L 255.259137 227.643105 
L 255.766917 228.564181 
L 256.020808 229.42511 
L 256.274698 228.419948 
L 256.528588 228.742041 
L 256.782479 228.031776 
L 257.036369 228.71854 
L 257.290259 227.963948 
L 257.544149 228.48746 
L 258.05193 228.725722 
L 258.30582 228.035679 
L 258.55971 228.723626 
L 259.067491 229.218141 
L 259.321381 228.340488 
L 259.575271 228.630725 
L 259.829162 227.317732 
L 260.083052 228.512797 
L 260.336942 227.299103 
L 260.590832 226.934604 
L 260.844723 228.389001 
L 261.098613 228.510301 
L 261.606393 227.958176 
L 261.860284 227.918888 
L 262.114174 228.841101 
L 262.368064 228.75102 
L 262.621954 227.952663 
L 263.129735 227.829774 
L 263.637515 228.622686 
L 263.891406 228.052173 
L 264.145296 226.353659 
L 264.399186 228.003866 
L 264.653076 228.259966 
L 264.906967 228.976922 
L 265.160857 228.39619 
L 265.414747 228.418076 
L 265.922528 227.356373 
L 266.430308 229.18586 
L 266.684198 228.342832 
L 266.938089 228.761409 
L 267.191979 228.780833 
L 267.445869 228.308288 
L 267.699759 228.44795 
L 267.95365 227.879285 
L 268.20754 228.667224 
L 268.46143 228.506611 
L 268.71532 228.613566 
L 268.969211 229.749181 
L 269.223101 227.726633 
L 269.730881 229.275376 
L 269.984772 227.850579 
L 270.238662 228.654472 
L 270.746442 227.795744 
L 271.000333 228.031352 
L 271.254223 227.883067 
L 271.508113 229.769501 
L 271.762003 227.535675 
L 272.015894 228.120107 
L 272.523674 227.459842 
L 273.031455 229.438108 
L 273.285345 227.76319 
L 273.793126 229.248256 
L 274.047016 228.834152 
L 274.300906 228.166228 
L 274.554796 228.826123 
L 274.808687 228.920339 
L 275.062577 227.485602 
L 275.570357 229.958194 
L 275.824248 227.53524 
L 276.078138 227.554573 
L 276.332028 227.912251 
L 276.585918 229.087707 
L 276.839809 229.636092 
L 277.093699 228.154683 
L 277.347589 227.804496 
L 277.601479 226.827346 
L 277.85537 226.820672 
L 278.36315 229.16617 
L 278.870931 227.961345 
L 279.378711 230.276364 
L 279.632601 228.745406 
L 279.886492 229.156293 
L 280.648162 227.932706 
L 280.902053 229.031496 
L 281.409833 227.312156 
L 281.663723 228.453942 
L 281.917614 227.713726 
L 282.171504 228.454947 
L 282.425394 226.057566 
L 282.679284 226.868082 
L 282.933175 229.146684 
L 283.187065 229.027768 
L 283.440955 227.620484 
L 283.694845 228.322591 
L 284.202626 228.580761 
L 284.456516 228.080571 
L 284.710406 226.702877 
L 284.964297 229.364082 
L 285.218187 229.183132 
L 285.472077 228.299391 
L 285.725967 229.071011 
L 285.979858 227.138455 
L 286.233748 229.121097 
L 286.487638 227.528067 
L 286.995419 228.797739 
L 287.249309 228.23693 
L 287.503199 228.954621 
L 287.757089 228.739255 
L 288.26487 227.021671 
L 288.77265 229.449169 
L 289.026541 229.316956 
L 289.280431 226.323826 
L 289.534321 227.77651 
L 290.042102 229.036659 
L 290.295992 228.520199 
L 290.549882 229.021569 
L 290.803773 227.621089 
L 291.057663 228.641401 
L 291.565443 228.886914 
L 291.819334 229.033016 
L 292.073224 228.169377 
L 292.327114 229.134822 
L 292.581004 228.237089 
L 292.834895 228.750168 
L 293.088785 229.551785 
L 293.342675 226.932774 
L 293.596565 228.466957 
L 293.850456 227.6915 
L 294.104346 227.86451 
L 294.358236 229.048228 
L 294.612126 228.88649 
L 294.866017 228.469667 
L 295.119907 228.355387 
L 295.627687 229.407495 
L 295.881578 228.625785 
L 296.135468 228.889085 
L 296.389358 228.855791 
L 296.643248 228.65276 
L 296.897139 229.185519 
L 297.151029 227.559509 
L 297.404919 228.244993 
L 297.658809 228.456199 
L 297.9127 227.695127 
L 298.42048 228.484615 
L 298.67437 229.679851 
L 299.182151 227.988622 
L 299.436041 228.476575 
L 299.943822 228.331217 
L 300.197712 228.127605 
L 300.451602 228.569601 
L 300.705492 228.554107 
L 300.959383 228.889366 
L 301.213273 227.453622 
L 301.467163 229.650228 
L 301.974944 228.40188 
L 302.228834 228.943068 
L 302.736614 227.798963 
L 302.990505 228.046516 
L 303.244395 227.90874 
L 303.498285 228.644432 
L 303.752175 228.956411 
L 304.006066 227.027143 
L 304.259956 229.027237 
L 304.513846 229.089026 
L 304.767736 228.959764 
L 305.021627 228.692642 
L 305.275517 229.973774 
L 306.037188 227.313682 
L 306.798859 229.785835 
L 307.052749 228.399945 
L 307.306639 228.730064 
L 307.560529 227.290523 
L 307.81442 227.325531 
L 308.06831 228.112838 
L 308.3222 227.090177 
L 308.829981 229.190251 
L 309.083871 226.323833 
L 309.591651 229.554464 
L 309.845542 229.322552 
L 310.099432 228.640121 
L 310.099432 228.640121 
" clip-path="url(#p9a5c4a2a26)" style="fill: none; stroke: #0000ff; stroke-width: 0.6; stroke-linecap: square"/>
   </g>
   <g id="line2d_24">
    <path d="M 56.463068 94.518106 
L 56.716958 95.802999 
L 56.970849 95.710387 
L 57.224739 96.415868 
L 57.478629 96.307773 
L 57.732519 96.453205 
L 57.98641 97.166219 
L 58.2403 97.300368 
L 58.49419 97.592595 
L 58.74808 97.525135 
L 59.763641 102.367355 
L 60.017532 105.195734 
L 60.271422 105.245385 
L 60.525312 112.503691 
L 60.779202 115.069574 
L 61.033093 118.972493 
L 61.540873 132.172806 
L 61.794764 112.321362 
L 62.048654 133.790075 
L 62.302544 132.624298 
L 62.556434 134.423267 
L 62.810325 130.418636 
L 63.064215 138.118664 
L 63.318105 126.21776 
L 63.571995 141.481833 
L 63.825886 147.698924 
L 64.079776 148.309599 
L 64.333666 137.446059 
L 64.587556 149.635939 
L 64.841447 152.408313 
L 65.095337 150.447866 
L 65.349227 152.046282 
L 65.603117 150.977128 
L 65.857008 151.454638 
L 66.110898 154.915314 
L 66.618678 147.525404 
L 66.872569 147.040206 
L 67.126459 155.814151 
L 67.380349 141.214776 
L 67.634239 155.819324 
L 67.88813 155.062436 
L 68.14202 117.397995 
L 68.39591 145.270375 
L 68.6498 155.019315 
L 68.903691 156.384713 
L 69.157581 148.480046 
L 69.411471 152.672511 
L 69.665361 153.367563 
L 69.919252 133.175058 
L 70.173142 156.185264 
L 70.427032 150.737738 
L 70.680922 149.180206 
L 70.934813 135.449895 
L 71.188703 101.518685 
L 71.442593 145.57455 
L 71.696483 118.168836 
L 71.950374 116.060057 
L 72.204264 141.794146 
L 72.458154 143.985097 
L 72.712044 148.419597 
L 72.965935 146.251302 
L 73.219825 151.121165 
L 73.473715 152.869391 
L 73.981496 148.729746 
L 74.489276 134.42233 
L 74.743166 143.336255 
L 74.997057 141.471114 
L 75.250947 147.375969 
L 75.758727 142.213297 
L 76.012618 142.129096 
L 76.266508 145.164481 
L 76.520398 146.310077 
L 76.774288 143.738831 
L 77.028179 126.595812 
L 77.282069 134.70732 
L 77.535959 73.850748 
L 77.78985 132.618283 
L 78.04374 127.646186 
L 78.29763 130.732314 
L 78.55152 143.030396 
L 78.805411 135.195734 
L 79.059301 109.961406 
L 79.313191 131.442897 
L 79.567081 122.324071 
L 80.074862 139.538352 
L 80.328752 99.643595 
L 80.582642 126.79729 
L 81.090423 136.3427 
L 81.344313 122.623927 
L 81.598203 129.71802 
L 81.852094 120.74561 
L 82.105984 128.723989 
L 82.359874 123.671002 
L 82.613764 121.090467 
L 82.867655 123.212071 
L 83.121545 116.677482 
L 83.375435 117.063744 
L 83.629325 121.510044 
L 83.883216 120.680463 
L 84.137106 118.081135 
L 84.390996 122.744111 
L 84.644886 114.423544 
L 84.898777 114.058577 
L 85.152667 109.817742 
L 85.406557 111.001279 
L 85.660447 110.913757 
L 86.168228 96.468747 
L 86.422118 109.33831 
L 86.676008 112.326428 
L 86.929899 111.453341 
L 87.183789 113.630814 
L 87.437679 108.750901 
L 87.691569 110.914825 
L 87.94546 111.279602 
L 88.45324 93.427952 
L 88.70713 104.408686 
L 88.961021 104.34876 
L 89.214911 103.616217 
L 89.468801 94.449697 
L 89.722691 101.001299 
L 89.976582 73.733138 
L 90.230472 94.1723 
L 90.484362 94.190393 
L 90.738252 106.664996 
L 90.992143 93.151409 
L 91.246033 99.415435 
L 91.499923 99.037809 
L 91.753813 84.216039 
L 92.007704 99.195188 
L 92.261594 91.309302 
L 92.515484 90.947835 
L 92.769374 78.472543 
L 93.023265 85.492734 
L 93.277155 85.84936 
L 93.531045 91.214151 
L 93.784936 80.682156 
L 94.038826 80.788423 
L 94.546606 88.448036 
L 94.800497 95.050583 
L 95.054387 79.713835 
L 95.308277 84.544488 
L 95.562167 75.97813 
L 95.816058 85.797264 
L 96.069948 86.419423 
L 96.577728 90.55736 
L 96.831619 87.911904 
L 97.085509 88.968471 
L 97.339399 87.016015 
L 97.593289 88.774705 
L 98.10107 80.571332 
L 98.35496 85.107408 
L 99.116631 73.971621 
L 99.370521 85.586544 
L 99.624411 77.889702 
L 99.878302 81.602723 
L 100.132192 81.730417 
L 100.386082 81.394281 
L 100.639972 67.236657 
L 100.893863 87.325421 
L 101.401643 77.267057 
L 101.655533 72.960767 
L 101.909424 78.616871 
L 102.163314 76.463661 
L 102.417204 71.316495 
L 102.671094 75.632182 
L 102.924985 63.49967 
L 103.178875 75.863546 
L 103.432765 77.121353 
L 103.686655 79.152658 
L 103.940546 74.282308 
L 104.194436 74.794973 
L 104.448326 65.064808 
L 104.702216 74.061207 
L 104.956107 77.439124 
L 105.209997 56.000759 
L 105.463887 68.014403 
L 105.717777 63.750242 
L 105.971668 66.195716 
L 106.225558 66.696504 
L 106.479448 69.188235 
L 106.987229 77.778202 
L 107.748899 59.531451 
L 108.00279 64.886074 
L 108.25668 73.320572 
L 108.51057 64.496204 
L 108.76446 60.458365 
L 109.018351 68.308172 
L 109.272241 66.324478 
L 109.526131 69.529082 
L 109.780021 69.451229 
L 110.033912 70.20005 
L 110.287802 71.723544 
L 110.541692 71.236471 
L 110.795583 64.905531 
L 111.049473 65.951966 
L 111.303363 65.256652 
L 111.557253 65.030556 
L 111.811144 65.398323 
L 112.065034 63.500691 
L 112.318924 68.901632 
L 112.572814 59.855533 
L 112.826705 68.803716 
L 113.080595 64.33701 
L 113.334485 70.651139 
L 113.588375 63.944626 
L 113.842266 65.358079 
L 114.096156 65.031825 
L 114.350046 58.599577 
L 114.603936 59.41218 
L 114.857827 61.17017 
L 115.111717 61.585381 
L 115.365607 59.736962 
L 115.619497 60.40691 
L 115.873388 58.040358 
L 116.127278 62.51035 
L 116.381168 60.705081 
L 116.635058 65.004668 
L 116.888949 59.598246 
L 117.142839 59.854477 
L 117.396729 62.508855 
L 117.650619 67.506568 
L 118.1584 55.83625 
L 118.41229 60.963958 
L 118.66618 61.167323 
L 118.920071 55.960053 
L 119.173961 68.277017 
L 119.427851 69.554519 
L 119.681741 68.298883 
L 120.697302 57.31167 
L 120.951193 58.028956 
L 121.458973 63.5593 
L 121.712863 62.807584 
L 121.966754 58.807699 
L 122.220644 59.506631 
L 122.728424 64.850327 
L 122.982315 64.306662 
L 123.236205 59.038778 
L 123.490095 58.857837 
L 123.743985 49.030647 
L 123.997876 46.498909 
L 124.251766 54.837818 
L 124.505656 58.337188 
L 124.759546 55.148791 
L 125.013437 59.551988 
L 125.267327 58.125768 
L 125.521217 54.778497 
L 125.775107 57.333785 
L 126.028998 57.969149 
L 126.282888 54.215908 
L 126.536778 56.076251 
L 126.790669 52.037261 
L 127.044559 58.233543 
L 127.298449 59.730129 
L 127.552339 57.320557 
L 127.80623 57.841419 
L 128.06012 59.410353 
L 128.31401 55.979083 
L 128.5679 54.867253 
L 128.821791 50.67283 
L 129.075681 52.939925 
L 129.837352 48.70278 
L 130.091242 56.595156 
L 130.345132 54.29299 
L 130.599022 53.891256 
L 130.852913 52.763089 
L 131.106803 52.467694 
L 131.360693 52.591058 
L 131.614583 50.666234 
L 132.122364 51.214431 
L 132.376254 54.787644 
L 132.630144 53.72371 
L 132.884035 50.544519 
L 133.137925 52.806607 
L 133.391815 50.263598 
L 133.645705 53.306434 
L 133.899596 53.649962 
L 134.153486 55.594125 
L 134.407376 52.311502 
L 134.661266 54.028418 
L 134.915157 52.712655 
L 135.169047 55.754945 
L 135.422937 54.475746 
L 135.676827 53.96415 
L 135.930718 54.428527 
L 136.184608 54.658645 
L 136.438498 54.433664 
L 136.692388 56.535657 
L 136.946279 54.732677 
L 137.200169 54.530203 
L 137.454059 55.171119 
L 137.707949 50.986401 
L 138.21573 56.205855 
L 138.46962 53.728824 
L 138.72351 53.475499 
L 138.977401 51.640949 
L 139.231291 52.292318 
L 139.739071 48.423093 
L 140.246852 52.846684 
L 140.500742 52.705073 
L 140.754632 50.419542 
L 141.008523 52.40619 
L 141.262413 48.556399 
L 141.516303 49.602288 
L 141.770193 49.897149 
L 142.024084 52.868372 
L 142.277974 54.482058 
L 142.531864 52.91806 
L 142.785755 53.978494 
L 143.293535 50.141112 
L 143.547425 51.981001 
L 143.801316 54.649035 
L 144.055206 52.971033 
L 144.309096 52.073649 
L 144.562986 50.489956 
L 145.070767 55.692515 
L 145.578547 53.23258 
L 146.086328 52.645847 
L 146.340218 53.074584 
L 146.594108 53.912659 
L 146.847999 52.429207 
L 147.101889 52.743786 
L 147.355779 52.259964 
L 147.609669 51.091566 
L 147.86356 51.370196 
L 148.11745 52.282648 
L 148.37134 51.840944 
L 148.62523 50.935824 
L 148.879121 50.655165 
L 149.133011 51.75532 
L 149.386901 52.073791 
L 149.640791 51.442604 
L 149.894682 50.07459 
L 150.148572 50.572103 
L 150.656352 52.553295 
L 150.910243 53.537501 
L 151.164133 52.994857 
L 151.671913 49.208123 
L 152.179694 51.38212 
L 152.433584 51.579386 
L 152.687474 50.262756 
L 152.941365 47.038457 
L 153.195255 48.439525 
L 153.449145 50.709799 
L 153.703035 51.283671 
L 154.210816 48.881004 
L 154.464706 49.73035 
L 154.718596 51.206945 
L 154.972487 50.893422 
L 155.480267 51.383306 
L 155.734157 50.445975 
L 155.988048 53.132908 
L 156.241938 53.090992 
L 156.495828 51.645042 
L 156.749718 52.070861 
L 157.003609 50.702621 
L 157.257499 50.308018 
L 157.511389 51.197893 
L 157.765279 49.936075 
L 158.01917 49.397464 
L 158.78084 50.68785 
L 159.034731 51.708765 
L 159.288621 51.099894 
L 159.542511 48.93425 
L 159.796402 50.260988 
L 160.050292 50.539809 
L 160.304182 51.258934 
L 160.558072 51.587999 
L 160.811963 50.969198 
L 161.065853 49.740031 
L 161.573633 50.940961 
L 161.827524 50.853107 
L 162.081414 49.072409 
L 163.096975 52.780209 
L 163.350865 52.179276 
L 163.604755 50.999416 
L 163.858646 50.726196 
L 164.366426 50.649185 
L 164.620316 49.499959 
L 165.128097 52.531476 
L 165.381987 51.968105 
L 165.635877 52.183037 
L 165.889768 51.9738 
L 166.143658 51.481411 
L 166.397548 50.560215 
L 166.651438 50.668369 
L 167.159219 47.911378 
L 167.413109 48.404347 
L 167.666999 49.94985 
L 167.92089 50.371219 
L 168.17478 49.23623 
L 168.42867 48.916549 
L 168.68256 49.313003 
L 168.936451 50.57819 
L 169.444231 51.157222 
L 169.698121 50.373425 
L 170.205902 49.883327 
L 170.967573 50.837458 
L 171.221463 51.117762 
L 171.475353 51.041012 
L 171.729243 50.7702 
L 171.983134 50.718069 
L 172.237024 50.228077 
L 172.744804 50.894703 
L 172.998695 50.758953 
L 173.252585 50.398103 
L 173.506475 50.620521 
L 173.760365 50.172719 
L 174.268146 50.776488 
L 174.522036 51.036433 
L 174.775926 51.111509 
L 175.029817 50.522143 
L 175.283707 50.566729 
L 175.537597 49.815867 
L 175.791488 49.671136 
L 176.299268 48.713695 
L 176.553158 49.091344 
L 176.807049 49.25424 
L 177.060939 49.788093 
L 177.314829 49.535825 
L 177.82261 49.736804 
L 178.0765 50.07803 
L 178.58428 49.904944 
L 178.838171 50.906591 
L 179.092061 51.050266 
L 179.345951 51.345637 
L 179.853732 50.602772 
L 180.107622 50.611825 
L 180.361512 50.332992 
L 180.615402 50.567808 
L 180.869293 51.169739 
L 181.123183 50.492613 
L 181.630963 49.987708 
L 181.884854 50.241424 
L 182.138744 50.147211 
L 182.392634 50.312016 
L 182.900415 49.904908 
L 183.408195 50.05849 
L 183.662085 49.923689 
L 184.169866 50.026813 
L 184.423756 49.904445 
L 184.677646 50.043399 
L 185.439317 50.000083 
L 186.200988 49.614555 
L 186.454878 49.71826 
L 186.708768 49.48399 
L 186.962659 49.664563 
L 187.216549 49.584361 
L 187.97822 49.74257 
L 188.486 49.639245 
L 188.73989 49.841363 
L 188.993781 49.655594 
L 189.755451 49.546574 
L 190.009342 49.813613 
L 190.263232 49.885807 
L 190.517122 50.175542 
L 190.771012 50.228338 
L 191.024903 50.037752 
L 191.278793 50.022625 
L 191.532683 49.778898 
L 192.294354 49.518016 
L 192.802135 49.656317 
L 194.325476 49.912644 
L 194.579366 49.652592 
L 195.087147 49.577183 
L 195.341037 49.661289 
L 195.594927 49.86317 
L 195.848818 49.79183 
L 196.610488 50.078244 
L 198.38772 49.730967 
L 200.926623 50.200861 
L 201.688293 49.988088 
L 202.196074 50.084686 
L 202.449964 49.970944 
L 202.703854 50.033492 
L 203.465525 49.81035 
L 205.242757 49.738916 
L 205.750537 49.978015 
L 207.019989 50.103669 
L 207.527769 50.167131 
L 208.03555 50.13104 
L 208.54333 50.206769 
L 209.051111 50.333835 
L 210.066672 50.273256 
L 210.320562 50.398732 
L 213.875026 50.103242 
L 214.382806 50.125689 
L 215.652257 50.131324 
L 216.160038 50.146962 
L 218.952831 50.021877 
L 219.460611 49.877312 
L 219.968392 49.917176 
L 220.730062 49.842419 
L 223.268965 49.903947 
L 226.061758 49.945673 
L 227.585099 50.097357 
L 228.60066 50.1565 
L 229.616221 50.246799 
L 231.647343 50.265544 
L 233.932356 50.159371 
L 236.217368 50.137221 
L 253.735795 50.085517 
L 254.751356 50.12143 
L 259.575271 50.115699 
L 260.590832 50.12735 
L 265.414747 50.145526 
L 266.430308 50.173241 
L 273.539235 50.131419 
L 276.332028 50.143675 
L 280.394272 50.105899 
L 281.409833 50.081507 
L 282.933175 50.087664 
L 287.503199 50.199579 
L 288.77265 50.161175 
L 302.736614 50.058751 
L 304.006066 50.033492 
L 307.560529 50.081851 
L 309.337761 50.05951 
L 310.099432 50.060946 
L 310.099432 50.060946 
" clip-path="url(#p9a5c4a2a26)" style="fill: none; stroke: #ff0000; stroke-width: 0.6; stroke-linecap: square"/>
   </g>
   <g id="patch_3">
    <path d="M 43.78125 239.76 
L 43.78125 37.296 
" style="fill: none; stroke: #000000; stroke-width: 0.8; stroke-linejoin: miter; stroke-linecap: square"/>
   </g>
   <g id="patch_4">
    <path d="M 322.78125 239.76 
L 322.78125 37.296 
" style="fill: none; stroke: #000000; stroke-width: 0.8; stroke-linejoin: miter; stroke-linecap: square"/>
   </g>
   <g id="patch_5">
    <path d="M 43.78125 239.76 
L 322.78125 239.76 
" style="fill: none; stroke: #000000; stroke-width: 0.8; stroke-linejoin: miter; stroke-linecap: square"/>
   </g>
   <g id="patch_6">
    <path d="M 43.78125 37.296 
L 322.78125 37.296 
" style="fill: none; stroke: #000000; stroke-width: 0.8; stroke-linejoin: miter; stroke-linecap: square"/>
   </g>
   <g id="text_14">
    <!-- Baseline Model -->
    <g transform="translate(149.259844 31.296) scale(0.09 -0.09)">
     <defs>
      <path id="DejaVuSans-42" d="M 1259 2228 
L 1259 519 
L 2272 519 
Q 2781 519 3026 730 
Q 3272 941 3272 1375 
Q 3272 1813 3026 2020 
Q 2781 2228 2272 2228 
L 1259 2228 
z
M 1259 4147 
L 1259 2741 
L 2194 2741 
Q 2656 2741 2882 2914 
Q 3109 3088 3109 3444 
Q 3109 3797 2882 3972 
Q 2656 4147 2194 4147 
L 1259 4147 
z
M 628 4666 
L 2241 4666 
Q 2963 4666 3353 4366 
Q 3744 4066 3744 3513 
Q 3744 3084 3544 2831 
Q 3344 2578 2956 2516 
Q 3422 2416 3680 2098 
Q 3938 1781 3938 1306 
Q 3938 681 3513 340 
Q 3088 0 2303 0 
L 628 0 
L 628 4666 
z
" transform="scale(0.015625)"/>
      <path id="DejaVuSans-61" d="M 2194 1759 
Q 1497 1759 1228 1600 
Q 959 1441 959 1056 
Q 959 750 1161 570 
Q 1363 391 1709 391 
Q 2188 391 2477 730 
Q 2766 1069 2766 1631 
L 2766 1759 
L 2194 1759 
z
M 3341 1997 
L 3341 0 
L 2766 0 
L 2766 531 
Q 2569 213 2275 61 
Q 1981 -91 1556 -91 
Q 1019 -91 701 211 
Q 384 513 384 1019 
Q 384 1609 779 1909 
Q 1175 2209 1959 2209 
L 2766 2209 
L 2766 2266 
Q 2766 2663 2505 2880 
Q 2244 3097 1772 3097 
Q 1472 3097 1187 3025 
Q 903 2953 641 2809 
L 641 3341 
Q 956 3463 1253 3523 
Q 1550 3584 1831 3584 
Q 2591 3584 2966 3190 
Q 3341 2797 3341 1997 
z
" transform="scale(0.015625)"/>
      <path id="DejaVuSans-65" d="M 3597 1894 
L 3597 1613 
L 953 1613 
Q 991 1019 1311 708 
Q 1631 397 2203 397 
Q 2534 397 2845 478 
Q 3156 559 3463 722 
L 3463 178 
Q 3153 47 2828 -22 
Q 2503 -91 2169 -91 
Q 1331 -91 842 396 
Q 353 884 353 1716 
Q 353 2575 817 3079 
Q 1281 3584 2069 3584 
Q 2775 3584 3186 3129 
Q 3597 2675 3597 1894 
z
M 3022 2063 
Q 3016 2534 2758 2815 
Q 2500 3097 2075 3097 
Q 1594 3097 1305 2825 
Q 1016 2553 972 2059 
L 3022 2063 
z
" transform="scale(0.015625)"/>
      <path id="DejaVuSans-6c" d="M 603 4863 
L 1178 4863 
L 1178 0 
L 603 0 
L 603 4863 
z
" transform="scale(0.015625)"/>
      <path id="DejaVuSans-69" d="M 603 3500 
L 1178 3500 
L 1178 0 
L 603 0 
L 603 3500 
z
M 603 4863 
L 1178 4863 
L 1178 4134 
L 603 4134 
L 603 4863 
z
" transform="scale(0.015625)"/>
      <path id="DejaVuSans-6e" d="M 3513 2113 
L 3513 0 
L 2938 0 
L 2938 2094 
Q 2938 2591 2744 2837 
Q 2550 3084 2163 3084 
Q 1697 3084 1428 2787 
Q 1159 2491 1159 1978 
L 1159 0 
L 581 0 
L 581 3500 
L 1159 3500 
L 1159 2956 
Q 1366 3272 1645 3428 
Q 1925 3584 2291 3584 
Q 2894 3584 3203 3211 
Q 3513 2838 3513 2113 
z
" transform="scale(0.015625)"/>
      <path id="DejaVuSans-20" transform="scale(0.015625)"/>
      <path id="DejaVuSans-4d" d="M 628 4666 
L 1569 4666 
L 2759 1491 
L 3956 4666 
L 4897 4666 
L 4897 0 
L 4281 0 
L 4281 4097 
L 3078 897 
L 2444 897 
L 1241 4097 
L 1241 0 
L 628 0 
L 628 4666 
z
" transform="scale(0.015625)"/>
      <path id="DejaVuSans-64" d="M 2906 2969 
L 2906 4863 
L 3481 4863 
L 3481 0 
L 2906 0 
L 2906 525 
Q 2725 213 2448 61 
Q 2172 -91 1784 -91 
Q 1150 -91 751 415 
Q 353 922 353 1747 
Q 353 2572 751 3078 
Q 1150 3584 1784 3584 
Q 2172 3584 2448 3432 
Q 2725 3281 2906 2969 
z
M 947 1747 
Q 947 1113 1208 752 
Q 1469 391 1925 391 
Q 2381 391 2643 752 
Q 2906 1113 2906 1747 
Q 2906 2381 2643 2742 
Q 2381 3103 1925 3103 
Q 1469 3103 1208 2742 
Q 947 2381 947 1747 
z
" transform="scale(0.015625)"/>
     </defs>
     <use xlink:href="#DejaVuSans-42"/>
     <use xlink:href="#DejaVuSans-61" x="68.603516"/>
     <use xlink:href="#DejaVuSans-73" x="129.882812"/>
     <use xlink:href="#DejaVuSans-65" x="181.982422"/>
     <use xlink:href="#DejaVuSans-6c" x="243.505859"/>
     <use xlink:href="#DejaVuSans-69" x="271.289062"/>
     <use xlink:href="#DejaVuSans-6e" x="299.072266"/>
     <use xlink:href="#DejaVuSans-65" x="362.451172"/>
     <use xlink:href="#DejaVuSans-20" x="423.974609"/>
     <use xlink:href="#DejaVuSans-4d" x="455.761719"/>
     <use xlink:href="#DejaVuSans-6f" x="542.041016"/>
     <use xlink:href="#DejaVuSans-64" x="603.222656"/>
     <use xlink:href="#DejaVuSans-65" x="666.699219"/>
     <use xlink:href="#DejaVuSans-6c" x="728.222656"/>
    </g>
   </g>
   <g id="legend_1">
    <g id="patch_7">
     <path d="M 209.2875 154.706125 
L 315.78125 154.706125 
Q 317.78125 154.706125 317.78125 152.706125 
L 317.78125 124.349875 
Q 317.78125 122.349875 315.78125 122.349875 
L 209.2875 122.349875 
Q 207.2875 122.349875 207.2875 124.349875 
L 207.2875 152.706125 
Q 207.2875 154.706125 209.2875 154.706125 
z
" style="fill: #ffffff; opacity: 0.8; stroke: #cccccc; stroke-linejoin: miter"/>
    </g>
    <g id="line2d_25">
     <path d="M 211.2875 130.448312 
L 221.2875 130.448312 
L 231.2875 130.448312 
" style="fill: none; stroke: #0000ff; stroke-width: 0.6; stroke-linecap: square"/>
    </g>
    <g id="text_15">
     <!-- Training Loss -->
     <g transform="translate(239.2875 133.948312) scale(0.1 -0.1)">
      <defs>
       <path id="DejaVuSans-54" d="M -19 4666 
L 3928 4666 
L 3928 4134 
L 2272 4134 
L 2272 0 
L 1638 0 
L 1638 4134 
L -19 4134 
L -19 4666 
z
" transform="scale(0.015625)"/>
       <path id="DejaVuSans-72" d="M 2631 2963 
Q 2534 3019 2420 3045 
Q 2306 3072 2169 3072 
Q 1681 3072 1420 2755 
Q 1159 2438 1159 1844 
L 1159 0 
L 581 0 
L 581 3500 
L 1159 3500 
L 1159 2956 
Q 1341 3275 1631 3429 
Q 1922 3584 2338 3584 
Q 2397 3584 2469 3576 
Q 2541 3569 2628 3553 
L 2631 2963 
z
" transform="scale(0.015625)"/>
       <path id="DejaVuSans-67" d="M 2906 1791 
Q 2906 2416 2648 2759 
Q 2391 3103 1925 3103 
Q 1463 3103 1205 2759 
Q 947 2416 947 1791 
Q 947 1169 1205 825 
Q 1463 481 1925 481 
Q 2391 481 2648 825 
Q 2906 1169 2906 1791 
z
M 3481 434 
Q 3481 -459 3084 -895 
Q 2688 -1331 1869 -1331 
Q 1566 -1331 1297 -1286 
Q 1028 -1241 775 -1147 
L 775 -588 
Q 1028 -725 1275 -790 
Q 1522 -856 1778 -856 
Q 2344 -856 2625 -561 
Q 2906 -266 2906 331 
L 2906 616 
Q 2728 306 2450 153 
Q 2172 0 1784 0 
Q 1141 0 747 490 
Q 353 981 353 1791 
Q 353 2603 747 3093 
Q 1141 3584 1784 3584 
Q 2172 3584 2450 3431 
Q 2728 3278 2906 2969 
L 2906 3500 
L 3481 3500 
L 3481 434 
z
" transform="scale(0.015625)"/>
      </defs>
      <use xlink:href="#DejaVuSans-54"/>
      <use xlink:href="#DejaVuSans-72" x="46.333984"/>
      <use xlink:href="#DejaVuSans-61" x="87.447266"/>
      <use xlink:href="#DejaVuSans-69" x="148.726562"/>
      <use xlink:href="#DejaVuSans-6e" x="176.509766"/>
      <use xlink:href="#DejaVuSans-69" x="239.888672"/>
      <use xlink:href="#DejaVuSans-6e" x="267.671875"/>
      <use xlink:href="#DejaVuSans-67" x="331.050781"/>
      <use xlink:href="#DejaVuSans-20" x="394.527344"/>
      <use xlink:href="#DejaVuSans-4c" x="426.314453"/>
      <use xlink:href="#DejaVuSans-6f" x="480.277344"/>
      <use xlink:href="#DejaVuSans-73" x="541.458984"/>
      <use xlink:href="#DejaVuSans-73" x="593.558594"/>
     </g>
    </g>
    <g id="line2d_26">
     <path d="M 211.2875 145.126437 
L 221.2875 145.126437 
L 231.2875 145.126437 
" style="fill: none; stroke: #ff0000; stroke-width: 0.6; stroke-linecap: square"/>
    </g>
    <g id="text_16">
     <!-- Validation Loss -->
     <g transform="translate(239.2875 148.626437) scale(0.1 -0.1)">
      <defs>
       <path id="DejaVuSans-56" d="M 1831 0 
L 50 4666 
L 709 4666 
L 2188 738 
L 3669 4666 
L 4325 4666 
L 2547 0 
L 1831 0 
z
" transform="scale(0.015625)"/>
       <path id="DejaVuSans-74" d="M 1172 4494 
L 1172 3500 
L 2356 3500 
L 2356 3053 
L 1172 3053 
L 1172 1153 
Q 1172 725 1289 603 
Q 1406 481 1766 481 
L 2356 481 
L 2356 0 
L 1766 0 
Q 1100 0 847 248 
Q 594 497 594 1153 
L 594 3053 
L 172 3053 
L 172 3500 
L 594 3500 
L 594 4494 
L 1172 4494 
z
" transform="scale(0.015625)"/>
      </defs>
      <use xlink:href="#DejaVuSans-56"/>
      <use xlink:href="#DejaVuSans-61" x="60.658203"/>
      <use xlink:href="#DejaVuSans-6c" x="121.9375"/>
      <use xlink:href="#DejaVuSans-69" x="149.720703"/>
      <use xlink:href="#DejaVuSans-64" x="177.503906"/>
      <use xlink:href="#DejaVuSans-61" x="240.980469"/>
      <use xlink:href="#DejaVuSans-74" x="302.259766"/>
      <use xlink:href="#DejaVuSans-69" x="341.46875"/>
      <use xlink:href="#DejaVuSans-6f" x="369.251953"/>
      <use xlink:href="#DejaVuSans-6e" x="430.433594"/>
      <use xlink:href="#DejaVuSans-20" x="493.8125"/>
      <use xlink:href="#DejaVuSans-4c" x="525.599609"/>
      <use xlink:href="#DejaVuSans-6f" x="579.5625"/>
      <use xlink:href="#DejaVuSans-73" x="640.744141"/>
      <use xlink:href="#DejaVuSans-73" x="692.84375"/>
     </g>
    </g>
   </g>
  </g>
  <g id="text_17">
   <!-- Training VS. Validation Loss - Dataset Size = 40.0% -->
   <g transform="translate(37.980391 15.558281) scale(0.11 -0.11)">
    <defs>
     <path id="DejaVuSans-53" d="M 3425 4513 
L 3425 3897 
Q 3066 4069 2747 4153 
Q 2428 4238 2131 4238 
Q 1616 4238 1336 4038 
Q 1056 3838 1056 3469 
Q 1056 3159 1242 3001 
Q 1428 2844 1947 2747 
L 2328 2669 
Q 3034 2534 3370 2195 
Q 3706 1856 3706 1288 
Q 3706 609 3251 259 
Q 2797 -91 1919 -91 
Q 1588 -91 1214 -16 
Q 841 59 441 206 
L 441 856 
Q 825 641 1194 531 
Q 1563 422 1919 422 
Q 2459 422 2753 634 
Q 3047 847 3047 1241 
Q 3047 1584 2836 1778 
Q 2625 1972 2144 2069 
L 1759 2144 
Q 1053 2284 737 2584 
Q 422 2884 422 3419 
Q 422 4038 858 4394 
Q 1294 4750 2059 4750 
Q 2388 4750 2728 4690 
Q 3069 4631 3425 4513 
z
" transform="scale(0.015625)"/>
     <path id="DejaVuSans-2d" d="M 313 2009 
L 1997 2009 
L 1997 1497 
L 313 1497 
L 313 2009 
z
" transform="scale(0.015625)"/>
     <path id="DejaVuSans-44" d="M 1259 4147 
L 1259 519 
L 2022 519 
Q 2988 519 3436 956 
Q 3884 1394 3884 2338 
Q 3884 3275 3436 3711 
Q 2988 4147 2022 4147 
L 1259 4147 
z
M 628 4666 
L 1925 4666 
Q 3281 4666 3915 4102 
Q 4550 3538 4550 2338 
Q 4550 1131 3912 565 
Q 3275 0 1925 0 
L 628 0 
L 628 4666 
z
" transform="scale(0.015625)"/>
     <path id="DejaVuSans-7a" d="M 353 3500 
L 3084 3500 
L 3084 2975 
L 922 459 
L 3084 459 
L 3084 0 
L 275 0 
L 275 525 
L 2438 3041 
L 353 3041 
L 353 3500 
z
" transform="scale(0.015625)"/>
     <path id="DejaVuSans-3d" d="M 678 2906 
L 4684 2906 
L 4684 2381 
L 678 2381 
L 678 2906 
z
M 678 1631 
L 4684 1631 
L 4684 1100 
L 678 1100 
L 678 1631 
z
" transform="scale(0.015625)"/>
     <path id="DejaVuSans-25" d="M 4653 2053 
Q 4381 2053 4226 1822 
Q 4072 1591 4072 1178 
Q 4072 772 4226 539 
Q 4381 306 4653 306 
Q 4919 306 5073 539 
Q 5228 772 5228 1178 
Q 5228 1588 5073 1820 
Q 4919 2053 4653 2053 
z
M 4653 2450 
Q 5147 2450 5437 2106 
Q 5728 1763 5728 1178 
Q 5728 594 5436 251 
Q 5144 -91 4653 -91 
Q 4153 -91 3862 251 
Q 3572 594 3572 1178 
Q 3572 1766 3864 2108 
Q 4156 2450 4653 2450 
z
M 1428 4353 
Q 1159 4353 1004 4120 
Q 850 3888 850 3481 
Q 850 3069 1003 2837 
Q 1156 2606 1428 2606 
Q 1700 2606 1854 2837 
Q 2009 3069 2009 3481 
Q 2009 3884 1853 4118 
Q 1697 4353 1428 4353 
z
M 4250 4750 
L 4750 4750 
L 1831 -91 
L 1331 -91 
L 4250 4750 
z
M 1428 4750 
Q 1922 4750 2215 4408 
Q 2509 4066 2509 3481 
Q 2509 2891 2217 2550 
Q 1925 2209 1428 2209 
Q 931 2209 642 2551 
Q 353 2894 353 3481 
Q 353 4063 643 4406 
Q 934 4750 1428 4750 
z
" transform="scale(0.015625)"/>
    </defs>
    <use xlink:href="#DejaVuSans-54"/>
    <use xlink:href="#DejaVuSans-72" x="46.333984"/>
    <use xlink:href="#DejaVuSans-61" x="87.447266"/>
    <use xlink:href="#DejaVuSans-69" x="148.726562"/>
    <use xlink:href="#DejaVuSans-6e" x="176.509766"/>
    <use xlink:href="#DejaVuSans-69" x="239.888672"/>
    <use xlink:href="#DejaVuSans-6e" x="267.671875"/>
    <use xlink:href="#DejaVuSans-67" x="331.050781"/>
    <use xlink:href="#DejaVuSans-20" x="394.527344"/>
    <use xlink:href="#DejaVuSans-56" x="426.314453"/>
    <use xlink:href="#DejaVuSans-53" x="494.722656"/>
    <use xlink:href="#DejaVuSans-2e" x="558.199219"/>
    <use xlink:href="#DejaVuSans-20" x="589.986328"/>
    <use xlink:href="#DejaVuSans-56" x="621.773438"/>
    <use xlink:href="#DejaVuSans-61" x="682.431641"/>
    <use xlink:href="#DejaVuSans-6c" x="743.710938"/>
    <use xlink:href="#DejaVuSans-69" x="771.494141"/>
    <use xlink:href="#DejaVuSans-64" x="799.277344"/>
    <use xlink:href="#DejaVuSans-61" x="862.753906"/>
    <use xlink:href="#DejaVuSans-74" x="924.033203"/>
    <use xlink:href="#DejaVuSans-69" x="963.242188"/>
    <use xlink:href="#DejaVuSans-6f" x="991.025391"/>
    <use xlink:href="#DejaVuSans-6e" x="1052.207031"/>
    <use xlink:href="#DejaVuSans-20" x="1115.585938"/>
    <use xlink:href="#DejaVuSans-4c" x="1147.373047"/>
    <use xlink:href="#DejaVuSans-6f" x="1201.335938"/>
    <use xlink:href="#DejaVuSans-73" x="1262.517578"/>
    <use xlink:href="#DejaVuSans-73" x="1314.617188"/>
    <use xlink:href="#DejaVuSans-20" x="1366.716797"/>
    <use xlink:href="#DejaVuSans-2d" x="1398.503906"/>
    <use xlink:href="#DejaVuSans-20" x="1434.587891"/>
    <use xlink:href="#DejaVuSans-44" x="1466.375"/>
    <use xlink:href="#DejaVuSans-61" x="1543.376953"/>
    <use xlink:href="#DejaVuSans-74" x="1604.65625"/>
    <use xlink:href="#DejaVuSans-61" x="1643.865234"/>
    <use xlink:href="#DejaVuSans-73" x="1705.144531"/>
    <use xlink:href="#DejaVuSans-65" x="1757.244141"/>
    <use xlink:href="#DejaVuSans-74" x="1818.767578"/>
    <use xlink:href="#DejaVuSans-20" x="1857.976562"/>
    <use xlink:href="#DejaVuSans-53" x="1889.763672"/>
    <use xlink:href="#DejaVuSans-69" x="1953.240234"/>
    <use xlink:href="#DejaVuSans-7a" x="1981.023438"/>
    <use xlink:href="#DejaVuSans-65" x="2033.513672"/>
    <use xlink:href="#DejaVuSans-20" x="2095.037109"/>
    <use xlink:href="#DejaVuSans-3d" x="2126.824219"/>
    <use xlink:href="#DejaVuSans-20" x="2210.613281"/>
    <use xlink:href="#DejaVuSans-34" x="2242.400391"/>
    <use xlink:href="#DejaVuSans-30" x="2306.023438"/>
    <use xlink:href="#DejaVuSans-2e" x="2369.646484"/>
    <use xlink:href="#DejaVuSans-30" x="2401.433594"/>
    <use xlink:href="#DejaVuSans-25" x="2465.056641"/>
   </g>
  </g>
 </g>
 <defs>
  <clipPath id="p9a5c4a2a26">
   <rect x="43.78125" y="37.296" width="279" height="202.464"/>
  </clipPath>
 </defs>
</svg>
