<?xml version="1.0" encoding="utf-8" standalone="no"?>
<!DOCTYPE svg PUBLIC "-//W3C//DTD SVG 1.1//EN"
  "http://www.w3.org/Graphics/SVG/1.1/DTD/svg11.dtd">
<svg xmlns:xlink="http://www.w3.org/1999/xlink" width="330.281484pt" height="277.31625pt" viewBox="0 0 330.281484 277.31625" xmlns="http://www.w3.org/2000/svg" version="1.1">
 <metadata>
  <rdf:RDF xmlns:dc="http://purl.org/dc/elements/1.1/" xmlns:cc="http://creativecommons.org/ns#" xmlns:rdf="http://www.w3.org/1999/02/22-rdf-syntax-ns#">
   <cc:Work>
    <dc:type rdf:resource="http://purl.org/dc/dcmitype/StillImage"/>
    <dc:date>2026-06-11T11:36:29.522060</dc:date>
    <dc:format>image/svg+xml</dc:format>
    <dc:creator>
     <cc:Agent>
      <dc:title>Matplotlib v3.8.4, https://matplotlib.org/</dc:title>
     </cc:Agent>
    </dc:creator>
   </cc:Work>
  </rdf:RDF>
 </metadata>
 <defs>
  <style type="text/css">*{stroke-linejoin: round; stroke-linecap: butt}</style>
 </defs>
 <g id="figure_1">
  <g id="patch_1">
   <path d="M 0 277.31625 
L 330.281484 277.31625 
L 330.281484 0 
L 0 0 
z
" style="fill: #ffffff"/>
  </g>
  <g id="axes_1">
   <g id="patch_2">
    <path d="M 43.78125 239.76 
L 322.78125 239.76 
L 322.78125 37.296 
L 43.78125 37.296 
z
" style="fill: #ffffff"/>
   </g>
   <g id="matplotlib.axis_1">
    <g id="xtick_1">
     <g id="line2d_1">
      <path d="M 56.209178 239.76 
L 56.209178 37.296 
" clip-path="url(#p6983895b3c)" style="fill: none; stroke-dasharray: 2.96,1.28; stroke-dashoffset: 0; stroke: #b0b0b0; stroke-opacity: 0.4; stroke-width: 0.8"/>
     </g>
     <g id="line2d_2">
      <defs>
       <path id="m4e54c6315b" d="M 0 0 
L 0 3.5 
" style="stroke: #000000; stroke-width: 0.8"/>
      </defs>
      <g>
       <use xlink:href="#m4e54c6315b" x="56.209178" y="239.76" style="stroke: #000000; stroke-width: 0.8"/>
      </g>
     </g>
     <g id="text_1">
      <!-- 0 -->
      <g transform="translate(53.027928 254.358437) scale(0.1 -0.1)">
       <defs>
        <path id="DejaVuSans-30" d="M 2034 4250 
Q 1547 4250 1301 3770 
Q 1056 3291 1056 2328 
Q 1056 1369 1301 889 
Q 1547 409 2034 409 
Q 2525 409 2770 889 
Q 3016 1369 3016 2328 
Q 3016 3291 2770 3770 
Q 2525 4250 2034 4250 
z
M 2034 4750 
Q 2819 4750 3233 4129 
Q 3647 3509 3647 2328 
Q 3647 1150 3233 529 
Q 2819 -91 2034 -91 
Q 1250 -91 836 529 
Q 422 1150 422 2328 
Q 422 3509 836 4129 
Q 1250 4750 2034 4750 
z
" transform="scale(0.015625)"/>
       </defs>
       <use xlink:href="#DejaVuSans-30"/>
      </g>
     </g>
    </g>
    <g id="xtick_2">
     <g id="line2d_3">
      <path d="M 106.987229 239.76 
L 106.987229 37.296 
" clip-path="url(#p6983895b3c)" style="fill: none; stroke-dasharray: 2.96,1.28; stroke-dashoffset: 0; stroke: #b0b0b0; stroke-opacity: 0.4; stroke-width: 0.8"/>
     </g>
     <g id="line2d_4">
      <g>
       <use xlink:href="#m4e54c6315b" x="106.987229" y="239.76" style="stroke: #000000; stroke-width: 0.8"/>
      </g>
     </g>
     <g id="text_2">
      <!-- 200 -->
      <g transform="translate(97.443479 254.358437) scale(0.1 -0.1)">
       <defs>
        <path id="DejaVuSans-32" d="M 1228 531 
L 3431 531 
L 3431 0 
L 469 0 
L 469 531 
Q 828 903 1448 1529 
Q 2069 2156 2228 2338 
Q 2531 2678 2651 2914 
Q 2772 3150 2772 3378 
Q 2772 3750 2511 3984 
Q 2250 4219 1831 4219 
Q 1534 4219 1204 4116 
Q 875 4013 500 3803 
L 500 4441 
Q 881 4594 1212 4672 
Q 1544 4750 1819 4750 
Q 2544 4750 2975 4387 
Q 3406 4025 3406 3419 
Q 3406 3131 3298 2873 
Q 3191 2616 2906 2266 
Q 2828 2175 2409 1742 
Q 1991 1309 1228 531 
z
" transform="scale(0.015625)"/>
       </defs>
       <use xlink:href="#DejaVuSans-32"/>
       <use xlink:href="#DejaVuSans-30" x="63.623047"/>
       <use xlink:href="#DejaVuSans-30" x="127.246094"/>
      </g>
     </g>
    </g>
    <g id="xtick_3">
     <g id="line2d_5">
      <path d="M 157.765279 239.76 
L 157.765279 37.296 
" clip-path="url(#p6983895b3c)" style="fill: none; stroke-dasharray: 2.96,1.28; stroke-dashoffset: 0; stroke: #b0b0b0; stroke-opacity: 0.4; stroke-width: 0.8"/>
     </g>
     <g id="line2d_6">
      <g>
       <use xlink:href="#m4e54c6315b" x="157.765279" y="239.76" style="stroke: #000000; stroke-width: 0.8"/>
      </g>
     </g>
     <g id="text_3">
      <!-- 400 -->
      <g transform="translate(148.221529 254.358437) scale(0.1 -0.1)">
       <defs>
        <path id="DejaVuSans-34" d="M 2419 4116 
L 825 1625 
L 2419 1625 
L 2419 4116 
z
M 2253 4666 
L 3047 4666 
L 3047 1625 
L 3713 1625 
L 3713 1100 
L 3047 1100 
L 3047 0 
L 2419 0 
L 2419 1100 
L 313 1100 
L 313 1709 
L 2253 4666 
z
" transform="scale(0.015625)"/>
       </defs>
       <use xlink:href="#DejaVuSans-34"/>
       <use xlink:href="#DejaVuSans-30" x="63.623047"/>
       <use xlink:href="#DejaVuSans-30" x="127.246094"/>
      </g>
     </g>
    </g>
    <g id="xtick_4">
     <g id="line2d_7">
      <path d="M 208.54333 239.76 
L 208.54333 37.296 
" clip-path="url(#p6983895b3c)" style="fill: none; stroke-dasharray: 2.96,1.28; stroke-dashoffset: 0; stroke: #b0b0b0; stroke-opacity: 0.4; stroke-width: 0.8"/>
     </g>
     <g id="line2d_8">
      <g>
       <use xlink:href="#m4e54c6315b" x="208.54333" y="239.76" style="stroke: #000000; stroke-width: 0.8"/>
      </g>
     </g>
     <g id="text_4">
      <!-- 600 -->
      <g transform="translate(198.99958 254.358437) scale(0.1 -0.1)">
       <defs>
        <path id="DejaVuSans-36" d="M 2113 2584 
Q 1688 2584 1439 2293 
Q 1191 2003 1191 1497 
Q 1191 994 1439 701 
Q 1688 409 2113 409 
Q 2538 409 2786 701 
Q 3034 994 3034 1497 
Q 3034 2003 2786 2293 
Q 2538 2584 2113 2584 
z
M 3366 4563 
L 3366 3988 
Q 3128 4100 2886 4159 
Q 2644 4219 2406 4219 
Q 1781 4219 1451 3797 
Q 1122 3375 1075 2522 
Q 1259 2794 1537 2939 
Q 1816 3084 2150 3084 
Q 2853 3084 3261 2657 
Q 3669 2231 3669 1497 
Q 3669 778 3244 343 
Q 2819 -91 2113 -91 
Q 1303 -91 875 529 
Q 447 1150 447 2328 
Q 447 3434 972 4092 
Q 1497 4750 2381 4750 
Q 2619 4750 2861 4703 
Q 3103 4656 3366 4563 
z
" transform="scale(0.015625)"/>
       </defs>
       <use xlink:href="#DejaVuSans-36"/>
       <use xlink:href="#DejaVuSans-30" x="63.623047"/>
       <use xlink:href="#DejaVuSans-30" x="127.246094"/>
      </g>
     </g>
    </g>
    <g id="xtick_5">
     <g id="line2d_9">
      <path d="M 259.321381 239.76 
L 259.321381 37.296 
" clip-path="url(#p6983895b3c)" style="fill: none; stroke-dasharray: 2.96,1.28; stroke-dashoffset: 0; stroke: #b0b0b0; stroke-opacity: 0.4; stroke-width: 0.8"/>
     </g>
     <g id="line2d_10">
      <g>
       <use xlink:href="#m4e54c6315b" x="259.321381" y="239.76" style="stroke: #000000; stroke-width: 0.8"/>
      </g>
     </g>
     <g id="text_5">
      <!-- 800 -->
      <g transform="translate(249.777631 254.358437) scale(0.1 -0.1)">
       <defs>
        <path id="DejaVuSans-38" d="M 2034 2216 
Q 1584 2216 1326 1975 
Q 1069 1734 1069 1313 
Q 1069 891 1326 650 
Q 1584 409 2034 409 
Q 2484 409 2743 651 
Q 3003 894 3003 1313 
Q 3003 1734 2745 1975 
Q 2488 2216 2034 2216 
z
M 1403 2484 
Q 997 2584 770 2862 
Q 544 3141 544 3541 
Q 544 4100 942 4425 
Q 1341 4750 2034 4750 
Q 2731 4750 3128 4425 
Q 3525 4100 3525 3541 
Q 3525 3141 3298 2862 
Q 3072 2584 2669 2484 
Q 3125 2378 3379 2068 
Q 3634 1759 3634 1313 
Q 3634 634 3220 271 
Q 2806 -91 2034 -91 
Q 1263 -91 848 271 
Q 434 634 434 1313 
Q 434 1759 690 2068 
Q 947 2378 1403 2484 
z
M 1172 3481 
Q 1172 3119 1398 2916 
Q 1625 2713 2034 2713 
Q 2441 2713 2670 2916 
Q 2900 3119 2900 3481 
Q 2900 3844 2670 4047 
Q 2441 4250 2034 4250 
Q 1625 4250 1398 4047 
Q 1172 3844 1172 3481 
z
" transform="scale(0.015625)"/>
       </defs>
       <use xlink:href="#DejaVuSans-38"/>
       <use xlink:href="#DejaVuSans-30" x="63.623047"/>
       <use xlink:href="#DejaVuSans-30" x="127.246094"/>
      </g>
     </g>
    </g>
    <g id="xtick_6">
     <g id="line2d_11">
      <path d="M 310.099432 239.76 
L 310.099432 37.296 
" clip-path="url(#p6983895b3c)" style="fill: none; stroke-dasharray: 2.96,1.28; stroke-dashoffset: 0; stroke: #b0b0b0; stroke-opacity: 0.4; stroke-width: 0.8"/>
     </g>
     <g id="line2d_12">
      <g>
       <use xlink:href="#m4e54c6315b" x="310.099432" y="239.76" style="stroke: #000000; stroke-width: 0.8"/>
      </g>
     </g>
     <g id="text_6">
      <!-- 1000 -->
      <g transform="translate(297.374432 254.358437) scale(0.1 -0.1)">
       <defs>
        <path id="DejaVuSans-31" d="M 794 531 
L 1825 531 
L 1825 4091 
L 703 3866 
L 703 4441 
L 1819 4666 
L 2450 4666 
L 2450 531 
L 3481 531 
L 3481 0 
L 794 0 
L 794 531 
z
" transform="scale(0.015625)"/>
       </defs>
       <use xlink:href="#DejaVuSans-31"/>
       <use xlink:href="#DejaVuSans-30" x="63.623047"/>
       <use xlink:href="#DejaVuSans-30" x="127.246094"/>
       <use xlink:href="#DejaVuSans-30" x="190.869141"/>
      </g>
     </g>
    </g>
    <g id="text_7">
     <!-- Epochs -->
     <g transform="translate(165.365625 268.036562) scale(0.1 -0.1)">
      <defs>
       <path id="DejaVuSans-45" d="M 628 4666 
L 3578 4666 
L 3578 4134 
L 1259 4134 
L 1259 2753 
L 3481 2753 
L 3481 2222 
L 1259 2222 
L 1259 531 
L 3634 531 
L 3634 0 
L 628 0 
L 628 4666 
z
" transform="scale(0.015625)"/>
       <path id="DejaVuSans-70" d="M 1159 525 
L 1159 -1331 
L 581 -1331 
L 581 3500 
L 1159 3500 
L 1159 2969 
Q 1341 3281 1617 3432 
Q 1894 3584 2278 3584 
Q 2916 3584 3314 3078 
Q 3713 2572 3713 1747 
Q 3713 922 3314 415 
Q 2916 -91 2278 -91 
Q 1894 -91 1617 61 
Q 1341 213 1159 525 
z
M 3116 1747 
Q 3116 2381 2855 2742 
Q 2594 3103 2138 3103 
Q 1681 3103 1420 2742 
Q 1159 2381 1159 1747 
Q 1159 1113 1420 752 
Q 1681 391 2138 391 
Q 2594 391 2855 752 
Q 3116 1113 3116 1747 
z
" transform="scale(0.015625)"/>
       <path id="DejaVuSans-6f" d="M 1959 3097 
Q 1497 3097 1228 2736 
Q 959 2375 959 1747 
Q 959 1119 1226 758 
Q 1494 397 1959 397 
Q 2419 397 2687 759 
Q 2956 1122 2956 1747 
Q 2956 2369 2687 2733 
Q 2419 3097 1959 3097 
z
M 1959 3584 
Q 2709 3584 3137 3096 
Q 3566 2609 3566 1747 
Q 3566 888 3137 398 
Q 2709 -91 1959 -91 
Q 1206 -91 779 398 
Q 353 888 353 1747 
Q 353 2609 779 3096 
Q 1206 3584 1959 3584 
z
" transform="scale(0.015625)"/>
       <path id="DejaVuSans-63" d="M 3122 3366 
L 3122 2828 
Q 2878 2963 2633 3030 
Q 2388 3097 2138 3097 
Q 1578 3097 1268 2742 
Q 959 2388 959 1747 
Q 959 1106 1268 751 
Q 1578 397 2138 397 
Q 2388 397 2633 464 
Q 2878 531 3122 666 
L 3122 134 
Q 2881 22 2623 -34 
Q 2366 -91 2075 -91 
Q 1284 -91 818 406 
Q 353 903 353 1747 
Q 353 2603 823 3093 
Q 1294 3584 2113 3584 
Q 2378 3584 2631 3529 
Q 2884 3475 3122 3366 
z
" transform="scale(0.015625)"/>
       <path id="DejaVuSans-68" d="M 3513 2113 
L 3513 0 
L 2938 0 
L 2938 2094 
Q 2938 2591 2744 2837 
Q 2550 3084 2163 3084 
Q 1697 3084 1428 2787 
Q 1159 2491 1159 1978 
L 1159 0 
L 581 0 
L 581 4863 
L 1159 4863 
L 1159 2956 
Q 1366 3272 1645 3428 
Q 1925 3584 2291 3584 
Q 2894 3584 3203 3211 
Q 3513 2838 3513 2113 
z
" transform="scale(0.015625)"/>
       <path id="DejaVuSans-73" d="M 2834 3397 
L 2834 2853 
Q 2591 2978 2328 3040 
Q 2066 3103 1784 3103 
Q 1356 3103 1142 2972 
Q 928 2841 928 2578 
Q 928 2378 1081 2264 
Q 1234 2150 1697 2047 
L 1894 2003 
Q 2506 1872 2764 1633 
Q 3022 1394 3022 966 
Q 3022 478 2636 193 
Q 2250 -91 1575 -91 
Q 1294 -91 989 -36 
Q 684 19 347 128 
L 347 722 
Q 666 556 975 473 
Q 1284 391 1588 391 
Q 1994 391 2212 530 
Q 2431 669 2431 922 
Q 2431 1156 2273 1281 
Q 2116 1406 1581 1522 
L 1381 1569 
Q 847 1681 609 1914 
Q 372 2147 372 2553 
Q 372 3047 722 3315 
Q 1072 3584 1716 3584 
Q 2034 3584 2315 3537 
Q 2597 3491 2834 3397 
z
" transform="scale(0.015625)"/>
      </defs>
      <use xlink:href="#DejaVuSans-45"/>
      <use xlink:href="#DejaVuSans-70" x="63.183594"/>
      <use xlink:href="#DejaVuSans-6f" x="126.660156"/>
      <use xlink:href="#DejaVuSans-63" x="187.841797"/>
      <use xlink:href="#DejaVuSans-68" x="242.822266"/>
      <use xlink:href="#DejaVuSans-73" x="306.201172"/>
     </g>
    </g>
   </g>
   <g id="matplotlib.axis_2">
    <g id="ytick_1">
     <g id="line2d_13">
      <path d="M 43.78125 213.946827 
L 322.78125 213.946827 
" clip-path="url(#p6983895b3c)" style="fill: none; stroke-dasharray: 2.96,1.28; stroke-dashoffset: 0; stroke: #b0b0b0; stroke-opacity: 0.4; stroke-width: 0.8"/>
     </g>
     <g id="line2d_14">
      <defs>
       <path id="m87b2f04e24" d="M 0 0 
L -3.5 0 
" style="stroke: #000000; stroke-width: 0.8"/>
      </defs>
      <g>
       <use xlink:href="#m87b2f04e24" x="43.78125" y="213.946827" style="stroke: #000000; stroke-width: 0.8"/>
      </g>
     </g>
     <g id="text_8">
      <!-- 0.1 -->
      <g transform="translate(20.878125 217.746046) scale(0.1 -0.1)">
       <defs>
        <path id="DejaVuSans-2e" d="M 684 794 
L 1344 794 
L 1344 0 
L 684 0 
L 684 794 
z
" transform="scale(0.015625)"/>
       </defs>
       <use xlink:href="#DejaVuSans-30"/>
       <use xlink:href="#DejaVuSans-2e" x="63.623047"/>
       <use xlink:href="#DejaVuSans-31" x="95.410156"/>
      </g>
     </g>
    </g>
    <g id="ytick_2">
     <g id="line2d_15">
      <path d="M 43.78125 185.994984 
L 322.78125 185.994984 
" clip-path="url(#p6983895b3c)" style="fill: none; stroke-dasharray: 2.96,1.28; stroke-dashoffset: 0; stroke: #b0b0b0; stroke-opacity: 0.4; stroke-width: 0.8"/>
     </g>
     <g id="line2d_16">
      <g>
       <use xlink:href="#m87b2f04e24" x="43.78125" y="185.994984" style="stroke: #000000; stroke-width: 0.8"/>
      </g>
     </g>
     <g id="text_9">
      <!-- 0.2 -->
      <g transform="translate(20.878125 189.794203) scale(0.1 -0.1)">
       <use xlink:href="#DejaVuSans-30"/>
       <use xlink:href="#DejaVuSans-2e" x="63.623047"/>
       <use xlink:href="#DejaVuSans-32" x="95.410156"/>
      </g>
     </g>
    </g>
    <g id="ytick_3">
     <g id="line2d_17">
      <path d="M 43.78125 158.043141 
L 322.78125 158.043141 
" clip-path="url(#p6983895b3c)" style="fill: none; stroke-dasharray: 2.96,1.28; stroke-dashoffset: 0; stroke: #b0b0b0; stroke-opacity: 0.4; stroke-width: 0.8"/>
     </g>
     <g id="line2d_18">
      <g>
       <use xlink:href="#m87b2f04e24" x="43.78125" y="158.043141" style="stroke: #000000; stroke-width: 0.8"/>
      </g>
     </g>
     <g id="text_10">
      <!-- 0.3 -->
      <g transform="translate(20.878125 161.84236) scale(0.1 -0.1)">
       <defs>
        <path id="DejaVuSans-33" d="M 2597 2516 
Q 3050 2419 3304 2112 
Q 3559 1806 3559 1356 
Q 3559 666 3084 287 
Q 2609 -91 1734 -91 
Q 1441 -91 1130 -33 
Q 819 25 488 141 
L 488 750 
Q 750 597 1062 519 
Q 1375 441 1716 441 
Q 2309 441 2620 675 
Q 2931 909 2931 1356 
Q 2931 1769 2642 2001 
Q 2353 2234 1838 2234 
L 1294 2234 
L 1294 2753 
L 1863 2753 
Q 2328 2753 2575 2939 
Q 2822 3125 2822 3475 
Q 2822 3834 2567 4026 
Q 2313 4219 1838 4219 
Q 1578 4219 1281 4162 
Q 984 4106 628 3988 
L 628 4550 
Q 988 4650 1302 4700 
Q 1616 4750 1894 4750 
Q 2613 4750 3031 4423 
Q 3450 4097 3450 3541 
Q 3450 3153 3228 2886 
Q 3006 2619 2597 2516 
z
" transform="scale(0.015625)"/>
       </defs>
       <use xlink:href="#DejaVuSans-30"/>
       <use xlink:href="#DejaVuSans-2e" x="63.623047"/>
       <use xlink:href="#DejaVuSans-33" x="95.410156"/>
      </g>
     </g>
    </g>
    <g id="ytick_4">
     <g id="line2d_19">
      <path d="M 43.78125 130.091298 
L 322.78125 130.091298 
" clip-path="url(#p6983895b3c)" style="fill: none; stroke-dasharray: 2.96,1.28; stroke-dashoffset: 0; stroke: #b0b0b0; stroke-opacity: 0.4; stroke-width: 0.8"/>
     </g>
     <g id="line2d_20">
      <g>
       <use xlink:href="#m87b2f04e24" x="43.78125" y="130.091298" style="stroke: #000000; stroke-width: 0.8"/>
      </g>
     </g>
     <g id="text_11">
      <!-- 0.4 -->
      <g transform="translate(20.878125 133.890517) scale(0.1 -0.1)">
       <use xlink:href="#DejaVuSans-30"/>
       <use xlink:href="#DejaVuSans-2e" x="63.623047"/>
       <use xlink:href="#DejaVuSans-34" x="95.410156"/>
      </g>
     </g>
    </g>
    <g id="ytick_5">
     <g id="line2d_21">
      <path d="M 43.78125 102.139455 
L 322.78125 102.139455 
" clip-path="url(#p6983895b3c)" style="fill: none; stroke-dasharray: 2.96,1.28; stroke-dashoffset: 0; stroke: #b0b0b0; stroke-opacity: 0.4; stroke-width: 0.8"/>
     </g>
     <g id="line2d_22">
      <g>
       <use xlink:href="#m87b2f04e24" x="43.78125" y="102.139455" style="stroke: #000000; stroke-width: 0.8"/>
      </g>
     </g>
     <g id="text_12">
      <!-- 0.5 -->
      <g transform="translate(20.878125 105.938673) scale(0.1 -0.1)">
       <defs>
        <path id="DejaVuSans-35" d="M 691 4666 
L 3169 4666 
L 3169 4134 
L 1269 4134 
L 1269 2991 
Q 1406 3038 1543 3061 
Q 1681 3084 1819 3084 
Q 2600 3084 3056 2656 
Q 3513 2228 3513 1497 
Q 3513 744 3044 326 
Q 2575 -91 1722 -91 
Q 1428 -91 1123 -41 
Q 819 9 494 109 
L 494 744 
Q 775 591 1075 516 
Q 1375 441 1709 441 
Q 2250 441 2565 725 
Q 2881 1009 2881 1497 
Q 2881 1984 2565 2268 
Q 2250 2553 1709 2553 
Q 1456 2553 1204 2497 
Q 953 2441 691 2322 
L 691 4666 
z
" transform="scale(0.015625)"/>
       </defs>
       <use xlink:href="#DejaVuSans-30"/>
       <use xlink:href="#DejaVuSans-2e" x="63.623047"/>
       <use xlink:href="#DejaVuSans-35" x="95.410156"/>
      </g>
     </g>
    </g>
    <g id="ytick_6">
     <g id="line2d_23">
      <path d="M 43.78125 74.187611 
L 322.78125 74.187611 
" clip-path="url(#p6983895b3c)" style="fill: none; stroke-dasharray: 2.96,1.28; stroke-dashoffset: 0; stroke: #b0b0b0; stroke-opacity: 0.4; stroke-width: 0.8"/>
     </g>
     <g id="line2d_24">
      <g>
       <use xlink:href="#m87b2f04e24" x="43.78125" y="74.187611" style="stroke: #000000; stroke-width: 0.8"/>
      </g>
     </g>
     <g id="text_13">
      <!-- 0.6 -->
      <g transform="translate(20.878125 77.98683) scale(0.1 -0.1)">
       <use xlink:href="#DejaVuSans-30"/>
       <use xlink:href="#DejaVuSans-2e" x="63.623047"/>
       <use xlink:href="#DejaVuSans-36" x="95.410156"/>
      </g>
     </g>
    </g>
    <g id="ytick_7">
     <g id="line2d_25">
      <path d="M 43.78125 46.235768 
L 322.78125 46.235768 
" clip-path="url(#p6983895b3c)" style="fill: none; stroke-dasharray: 2.96,1.28; stroke-dashoffset: 0; stroke: #b0b0b0; stroke-opacity: 0.4; stroke-width: 0.8"/>
     </g>
     <g id="line2d_26">
      <g>
       <use xlink:href="#m87b2f04e24" x="43.78125" y="46.235768" style="stroke: #000000; stroke-width: 0.8"/>
      </g>
     </g>
     <g id="text_14">
      <!-- 0.7 -->
      <g transform="translate(20.878125 50.034987) scale(0.1 -0.1)">
       <defs>
        <path id="DejaVuSans-37" d="M 525 4666 
L 3525 4666 
L 3525 4397 
L 1831 0 
L 1172 0 
L 2766 4134 
L 525 4134 
L 525 4666 
z
" transform="scale(0.015625)"/>
       </defs>
       <use xlink:href="#DejaVuSans-30"/>
       <use xlink:href="#DejaVuSans-2e" x="63.623047"/>
       <use xlink:href="#DejaVuSans-37" x="95.410156"/>
      </g>
     </g>
    </g>
    <g id="text_15">
     <!-- Loss -->
     <g transform="translate(14.798438 149.495187) rotate(-90) scale(0.1 -0.1)">
      <defs>
       <path id="DejaVuSans-4c" d="M 628 4666 
L 1259 4666 
L 1259 531 
L 3531 531 
L 3531 0 
L 628 0 
L 628 4666 
z
" transform="scale(0.015625)"/>
      </defs>
      <use xlink:href="#DejaVuSans-4c"/>
      <use xlink:href="#DejaVuSans-6f" x="53.962891"/>
      <use xlink:href="#DejaVuSans-73" x="115.144531"/>
      <use xlink:href="#DejaVuSans-73" x="167.244141"/>
     </g>
    </g>
   </g>
   <g id="line2d_27">
    <path d="M 56.463068 46.498909 
L 56.716958 48.293838 
L 56.970849 48.661821 
L 57.224739 49.41443 
L 57.478629 51.301893 
L 57.732519 55.779495 
L 58.2403 85.980708 
L 59.001971 108.305483 
L 59.255861 111.08607 
L 59.763641 123.052452 
L 60.017532 127.307019 
L 60.271422 126.583491 
L 60.525312 132.564695 
L 60.779202 134.988654 
L 61.033093 142.874231 
L 61.286983 136.840729 
L 61.794764 146.52266 
L 62.048654 137.270905 
L 62.302544 148.094304 
L 62.556434 152.7938 
L 62.810325 147.84517 
L 63.318105 151.989743 
L 63.571995 154.824319 
L 63.825886 155.367063 
L 64.079776 159.51845 
L 64.333666 145.178358 
L 64.587556 156.099387 
L 64.841447 156.331569 
L 65.095337 161.203544 
L 65.603117 164.262697 
L 65.857008 164.31202 
L 66.110898 158.857891 
L 66.364788 165.792314 
L 66.618678 168.116059 
L 66.872569 168.017812 
L 67.126459 170.761696 
L 67.380349 167.093515 
L 67.634239 170.896663 
L 67.88813 161.903973 
L 68.14202 168.674139 
L 68.39591 171.081212 
L 68.6498 169.343137 
L 69.411471 177.924907 
L 69.665361 176.406118 
L 69.919252 173.124518 
L 70.173142 166.22569 
L 70.427032 174.930106 
L 70.680922 177.770959 
L 70.934813 178.357703 
L 71.188703 178.054143 
L 71.442593 178.496369 
L 71.696483 183.245385 
L 71.950374 182.866411 
L 72.204264 183.213876 
L 72.458154 184.394675 
L 72.712044 181.624167 
L 72.965935 180.666566 
L 73.219825 184.288059 
L 73.473715 178.540183 
L 73.727605 183.234081 
L 73.981496 181.779094 
L 74.235386 186.691492 
L 74.489276 185.136808 
L 74.743166 179.725963 
L 75.504837 190.65 
L 75.758727 186.985256 
L 76.012618 189.254121 
L 76.266508 187.128262 
L 76.520398 188.421903 
L 76.774288 191.689113 
L 77.028179 189.207346 
L 77.282069 193.574609 
L 77.535959 191.449334 
L 77.78985 185.37603 
L 78.04374 186.200238 
L 78.29763 186.566892 
L 78.55152 191.646108 
L 78.805411 189.64856 
L 79.059301 189.247856 
L 79.313191 187.613348 
L 79.567081 196.843702 
L 79.820972 192.46441 
L 80.074862 198.299575 
L 80.328752 194.905066 
L 80.582642 195.387074 
L 80.836533 197.085464 
L 81.090423 192.820555 
L 81.344313 199.722115 
L 81.852094 194.545497 
L 82.359874 200.082872 
L 82.613764 200.032032 
L 82.867655 204.66521 
L 83.121545 204.850076 
L 83.375435 208.065032 
L 83.629325 206.87915 
L 83.883216 204.968358 
L 84.137106 207.257216 
L 84.390996 207.795153 
L 84.644886 208.736261 
L 84.898777 208.436528 
L 85.406557 212.073928 
L 85.660447 207.7256 
L 85.914338 207.934138 
L 86.168228 209.19424 
L 86.422118 207.370402 
L 86.676008 209.491285 
L 86.929899 207.91179 
L 87.183789 208.44954 
L 87.437679 211.678374 
L 87.94546 207.883609 
L 88.19935 208.753502 
L 88.45324 209.137362 
L 88.70713 211.686627 
L 88.961021 211.877131 
L 89.214911 208.381611 
L 89.468801 212.403091 
L 89.722691 211.635429 
L 89.976582 211.392647 
L 90.230472 212.968952 
L 90.484362 210.631293 
L 90.738252 215.497481 
L 90.992143 213.553258 
L 91.246033 212.838152 
L 91.499923 211.104977 
L 91.753813 214.159576 
L 92.007704 208.608792 
L 92.515484 214.064626 
L 92.769374 209.623673 
L 93.277155 215.520574 
L 93.531045 213.721463 
L 93.784936 213.695552 
L 94.038826 209.439331 
L 94.292716 213.199183 
L 94.546606 212.313849 
L 95.054387 215.681126 
L 95.308277 218.730782 
L 95.816058 215.195214 
L 96.069948 216.999702 
L 96.323838 219.63307 
L 96.577728 219.139381 
L 96.831619 220.571655 
L 97.339399 218.772235 
L 97.84718 221.163479 
L 98.10107 219.37521 
L 98.35496 219.398516 
L 98.60885 218.474579 
L 99.116631 221.367423 
L 99.370521 219.495541 
L 99.624411 219.579641 
L 99.878302 220.930582 
L 100.132192 221.330466 
L 100.386082 216.491108 
L 100.639972 221.988031 
L 100.893863 220.741049 
L 101.147753 221.070615 
L 101.401643 221.585696 
L 101.655533 220.442669 
L 101.909424 219.967396 
L 102.163314 221.626377 
L 102.417204 221.165755 
L 102.671094 221.199743 
L 102.924985 221.378323 
L 103.178875 221.359382 
L 103.432765 220.020287 
L 103.686655 222.315967 
L 103.940546 221.138925 
L 104.194436 223.117767 
L 104.448326 223.197992 
L 104.702216 218.446891 
L 105.209997 221.932178 
L 105.463887 221.924991 
L 105.717777 219.6881 
L 105.971668 220.931459 
L 106.479448 220.335501 
L 106.733338 220.666772 
L 106.987229 219.691301 
L 107.495009 223.123484 
L 107.748899 220.408758 
L 108.25668 223.874893 
L 108.51057 222.60149 
L 108.76446 222.28623 
L 109.018351 224.642948 
L 109.272241 225.876509 
L 109.526131 222.023657 
L 109.780021 224.93763 
L 110.287802 224.092518 
L 110.541692 224.209871 
L 110.795583 225.477675 
L 111.049473 223.814857 
L 111.303363 223.516132 
L 111.557253 223.857504 
L 111.811144 225.485589 
L 112.065034 222.144698 
L 112.318924 226.039551 
L 112.572814 225.80892 
L 112.826705 223.884156 
L 113.080595 224.357682 
L 113.334485 226.007975 
L 113.588375 225.358701 
L 113.842266 225.481118 
L 114.096156 224.872857 
L 114.350046 224.981371 
L 114.603936 224.717506 
L 114.857827 224.884034 
L 115.111717 223.630749 
L 115.619497 225.491269 
L 115.873388 223.883736 
L 116.127278 223.997251 
L 116.381168 224.506696 
L 116.635058 224.080189 
L 116.888949 224.353388 
L 117.142839 225.842732 
L 117.396729 225.240503 
L 117.650619 225.206528 
L 117.90451 226.682297 
L 118.1584 224.537088 
L 118.41229 225.88918 
L 118.66618 222.891351 
L 118.920071 225.817428 
L 119.173961 225.37326 
L 119.427851 224.271374 
L 119.935632 224.869693 
L 120.189522 224.605701 
L 120.697302 226.921205 
L 120.951193 227.121043 
L 121.458973 226.340421 
L 121.712863 226.867062 
L 121.966754 226.965399 
L 122.220644 225.254258 
L 122.474534 226.737132 
L 122.728424 225.552965 
L 122.982315 227.331145 
L 123.236205 225.113251 
L 123.743985 227.161618 
L 123.997876 226.732766 
L 124.251766 226.844511 
L 124.505656 225.836956 
L 124.759546 227.34621 
L 125.013437 226.675474 
L 125.267327 227.197762 
L 125.521217 227.162068 
L 125.775107 227.983168 
L 126.028998 226.83466 
L 126.282888 226.290469 
L 126.536778 227.696945 
L 126.790669 226.047619 
L 127.044559 227.112834 
L 127.552339 226.473499 
L 127.80623 227.691092 
L 128.31401 226.23779 
L 128.821791 228.185513 
L 129.329571 226.174232 
L 129.583461 228.096674 
L 129.837352 225.828059 
L 130.345132 228.67817 
L 130.599022 227.740777 
L 130.852913 226.010039 
L 131.106803 227.889454 
L 131.360693 225.887648 
L 131.614583 224.877744 
L 132.122364 226.957303 
L 132.376254 226.128442 
L 132.630144 228.114165 
L 132.884035 228.698651 
L 133.137925 227.48261 
L 133.391815 226.959463 
L 133.645705 227.460847 
L 133.899596 228.674511 
L 134.153486 228.055897 
L 134.407376 226.265095 
L 134.661266 226.550377 
L 134.915157 228.735788 
L 135.169047 226.883069 
L 135.422937 227.176076 
L 135.676827 228.422417 
L 135.930718 226.406744 
L 136.184608 226.971433 
L 136.692388 229.389364 
L 136.946279 227.203229 
L 137.200169 226.734172 
L 137.454059 228.744099 
L 137.707949 228.008619 
L 137.96184 227.75421 
L 138.21573 227.262534 
L 138.46962 228.385982 
L 138.72351 227.190172 
L 138.977401 228.374447 
L 139.485181 226.215804 
L 139.739071 226.626272 
L 139.992962 227.352117 
L 140.246852 226.101164 
L 140.500742 228.707959 
L 140.754632 227.432469 
L 141.008523 227.268287 
L 141.262413 226.53555 
L 141.516303 228.343008 
L 141.770193 228.151283 
L 142.024084 225.896308 
L 142.277974 226.540443 
L 142.531864 225.900447 
L 142.785755 225.695136 
L 143.039645 227.193321 
L 143.547425 226.913187 
L 143.801316 226.236849 
L 144.055206 229.48834 
L 144.309096 226.912194 
L 144.816877 229.624113 
L 145.070767 228.655634 
L 145.324657 230.406701 
L 145.578547 226.6016 
L 145.832438 227.42027 
L 146.340218 227.544198 
L 146.594108 228.744635 
L 147.101889 227.159611 
L 147.355779 227.690628 
L 147.609669 228.659999 
L 147.86356 227.760084 
L 148.11745 228.04229 
L 148.37134 228.9294 
L 148.62523 228.133935 
L 148.879121 226.780586 
L 149.133011 228.29014 
L 149.386901 225.891378 
L 149.640791 228.082289 
L 149.894682 228.695208 
L 150.402462 226.798161 
L 150.656352 227.075528 
L 150.910243 229.386433 
L 151.164133 227.489822 
L 151.418023 228.177228 
L 151.671913 226.236199 
L 151.925804 227.871971 
L 152.179694 227.398169 
L 152.433584 228.699706 
L 152.687474 228.260401 
L 152.941365 228.386452 
L 153.195255 227.497742 
L 153.449145 228.020187 
L 153.703035 226.958236 
L 153.956926 227.680506 
L 154.210816 227.475868 
L 154.464706 226.752149 
L 154.718596 228.18666 
L 155.226377 229.38341 
L 155.734157 226.967435 
L 155.988048 228.601594 
L 156.241938 226.024419 
L 156.495828 228.455859 
L 157.003609 228.556276 
L 157.257499 227.999193 
L 157.511389 228.499855 
L 157.765279 227.231165 
L 158.01917 227.327907 
L 158.27306 228.814622 
L 158.52695 228.179464 
L 158.78084 228.021452 
L 159.034731 227.576709 
L 159.542511 228.404118 
L 159.796402 229.562339 
L 160.050292 228.29151 
L 160.304182 227.724383 
L 160.558072 229.15169 
L 160.811963 227.472209 
L 161.065853 228.106129 
L 161.319743 227.94602 
L 161.573633 229.081021 
L 161.827524 228.037993 
L 162.081414 228.151224 
L 162.335304 229.634818 
L 162.589194 227.761456 
L 162.843085 228.092849 
L 163.096975 227.798565 
L 163.350865 228.892638 
L 163.604755 228.611994 
L 163.858646 228.937813 
L 164.112536 227.367277 
L 164.366426 227.209225 
L 164.620316 228.782139 
L 164.874207 228.804105 
L 165.128097 229.6735 
L 165.381987 226.346051 
L 165.635877 228.087697 
L 165.889768 228.188789 
L 166.143658 227.431287 
L 166.397548 227.451634 
L 166.651438 228.57078 
L 166.905329 229.057838 
L 167.159219 228.79385 
L 167.413109 226.899472 
L 167.666999 228.198738 
L 167.92089 227.080418 
L 168.17478 226.638069 
L 168.42867 226.960447 
L 168.68256 228.20466 
L 168.936451 227.213815 
L 169.444231 227.734202 
L 169.698121 227.779248 
L 169.952012 228.567697 
L 170.205902 228.173164 
L 170.459792 228.99309 
L 170.713682 227.057069 
L 170.967573 229.268919 
L 171.221463 227.622646 
L 171.475353 229.364337 
L 171.729243 226.997134 
L 171.983134 227.800766 
L 172.237024 227.267563 
L 173.252585 230.214299 
L 173.506475 228.256694 
L 173.760365 228.595561 
L 174.014256 227.933285 
L 174.268146 226.576033 
L 174.522036 228.007857 
L 174.775926 227.454895 
L 175.029817 227.728399 
L 175.283707 229.649889 
L 175.537597 228.473555 
L 175.791488 229.239361 
L 176.045378 227.51021 
L 176.299268 227.901068 
L 176.553158 227.915702 
L 176.807049 229.162565 
L 177.060939 227.427727 
L 177.314829 229.718198 
L 177.568719 227.674002 
L 177.82261 229.433213 
L 178.0765 229.989447 
L 178.33039 228.599897 
L 178.58428 228.342327 
L 178.838171 227.918138 
L 179.092061 227.768944 
L 179.345951 228.265832 
L 179.599841 227.73122 
L 179.853732 228.245832 
L 180.107622 228.394753 
L 180.361512 228.79248 
L 180.615402 228.983372 
L 180.869293 227.748066 
L 181.123183 228.132826 
L 181.377073 229.370942 
L 181.630963 227.814622 
L 181.884854 227.011668 
L 182.138744 228.490774 
L 182.392634 228.901331 
L 182.646524 227.27645 
L 182.900415 228.071819 
L 183.154305 229.357578 
L 183.408195 228.988467 
L 183.662085 230.500498 
L 183.915976 227.134735 
L 184.169866 228.352039 
L 184.423756 228.566236 
L 184.677646 227.790082 
L 184.931537 229.276618 
L 185.185427 228.600847 
L 185.439317 228.458035 
L 185.693207 227.286489 
L 185.947098 228.851414 
L 186.200988 229.285142 
L 186.454878 228.157448 
L 186.708768 228.488863 
L 186.962659 227.437056 
L 187.216549 229.029252 
L 187.470439 229.605103 
L 187.724329 229.088525 
L 187.97822 229.650253 
L 188.23211 226.875487 
L 188.486 228.223305 
L 188.73989 228.250953 
L 188.993781 227.626339 
L 189.247671 228.604916 
L 189.501561 228.000299 
L 189.755451 229.258398 
L 190.009342 228.440141 
L 190.263232 228.772811 
L 190.517122 227.506473 
L 191.024903 229.057911 
L 191.278793 229.118206 
L 191.786574 228.700316 
L 192.040464 229.697362 
L 192.294354 229.308612 
L 192.548244 228.125563 
L 193.056025 229.007435 
L 193.309915 228.322452 
L 193.563805 228.381171 
L 193.817696 227.169633 
L 194.071586 228.495703 
L 194.579366 226.499809 
L 195.087147 229.976067 
L 195.341037 227.367862 
L 195.594927 229.019008 
L 195.848818 229.006911 
L 196.102708 228.277962 
L 196.356598 228.998884 
L 196.610488 228.193749 
L 196.864379 229.274764 
L 197.118269 228.545897 
L 197.372159 228.670672 
L 197.626049 227.176906 
L 197.87994 227.019349 
L 198.38772 229.272308 
L 198.64161 227.664293 
L 198.895501 228.87274 
L 199.149391 228.208716 
L 199.403281 229.469701 
L 199.657171 229.471372 
L 200.164952 227.118992 
L 200.672732 229.077742 
L 200.926623 229.512037 
L 201.180513 228.288543 
L 201.434403 228.999753 
L 201.688293 229.34289 
L 201.942184 229.941931 
L 202.196074 228.596287 
L 202.449964 229.310222 
L 202.703854 229.355988 
L 202.957745 227.284778 
L 203.211635 228.743638 
L 203.465525 229.346662 
L 203.719415 229.273556 
L 203.973306 227.913543 
L 204.227196 229.162526 
L 204.734976 228.509077 
L 205.242757 227.925795 
L 205.496647 228.773642 
L 205.750537 228.821402 
L 206.004428 228.231085 
L 206.258318 228.191715 
L 206.512208 229.003389 
L 206.766098 228.25831 
L 207.019989 228.490937 
L 207.273879 227.165992 
L 207.527769 228.367942 
L 207.78166 228.44247 
L 208.03555 229.113279 
L 208.28944 229.367584 
L 208.54333 229.266956 
L 208.797221 228.378691 
L 209.051111 228.275428 
L 209.305001 228.715456 
L 209.558891 228.726361 
L 209.812782 229.246113 
L 210.066672 228.016557 
L 210.320562 228.141467 
L 210.574452 228.743541 
L 210.828343 227.990928 
L 211.082233 228.758948 
L 211.336123 228.660067 
L 211.590013 229.04705 
L 211.843904 228.16897 
L 212.097794 228.465994 
L 212.351684 230.052067 
L 212.605574 227.998252 
L 212.859465 229.315342 
L 213.113355 229.745067 
L 213.621135 227.427654 
L 213.875026 229.430886 
L 214.128916 228.818844 
L 214.382806 229.089843 
L 214.636696 227.594483 
L 214.890587 228.942433 
L 215.144477 228.486163 
L 215.398367 228.39576 
L 215.652257 227.809553 
L 215.906148 229.779409 
L 216.160038 227.840479 
L 216.413928 228.359114 
L 216.667818 227.888768 
L 216.921709 229.384313 
L 217.175599 227.25045 
L 217.683379 229.378765 
L 217.93727 228.823276 
L 218.19116 228.717268 
L 218.44505 227.936914 
L 218.69894 229.196324 
L 219.206721 226.604128 
L 219.460611 228.742731 
L 219.714501 227.285102 
L 219.968392 227.892755 
L 220.222282 227.971378 
L 220.476172 228.657789 
L 220.730062 228.402746 
L 220.983953 227.934798 
L 221.237843 227.834617 
L 221.491733 229.333719 
L 221.745623 227.872435 
L 221.999514 229.88319 
L 222.253404 226.46651 
L 222.507294 229.354638 
L 223.015075 228.865478 
L 223.268965 227.135046 
L 223.522855 228.856951 
L 223.776745 227.472843 
L 224.030636 229.324116 
L 224.284526 226.940415 
L 224.538416 228.259399 
L 224.792307 228.969643 
L 225.046197 226.573645 
L 225.300087 229.291103 
L 225.553977 227.402898 
L 225.807868 227.390044 
L 226.061758 228.167525 
L 226.315648 228.560299 
L 226.569538 227.989403 
L 226.823429 229.045131 
L 227.077319 229.007167 
L 227.331209 227.488059 
L 227.585099 226.922814 
L 228.09288 228.792506 
L 228.34677 228.033507 
L 228.60066 229.00512 
L 228.854551 228.465905 
L 229.108441 230.112195 
L 229.362331 229.656067 
L 229.616221 228.188817 
L 229.870112 229.037213 
L 230.124002 229.081086 
L 230.377892 228.440766 
L 230.631782 229.66603 
L 230.885673 227.234042 
L 231.139563 227.554156 
L 231.393453 228.567347 
L 231.647343 226.998321 
L 231.901234 227.321354 
L 232.155124 229.000197 
L 232.409014 229.490015 
L 232.662904 229.422728 
L 232.916795 228.97791 
L 233.170685 228.782064 
L 233.424575 226.574121 
L 233.678465 227.445021 
L 233.932356 229.090461 
L 234.186246 228.794932 
L 234.440136 229.161257 
L 234.947917 227.639874 
L 235.455697 228.305754 
L 235.709587 227.861281 
L 235.963478 228.678358 
L 236.217368 228.40662 
L 236.471258 228.841014 
L 236.725148 229.70979 
L 236.979039 229.124936 
L 237.232929 229.249789 
L 237.486819 227.852885 
L 237.740709 228.557571 
L 237.9946 228.170202 
L 238.24849 226.907156 
L 238.50238 229.466301 
L 238.75627 228.817338 
L 239.010161 227.305393 
L 239.264051 227.904573 
L 239.517941 228.133081 
L 239.771831 229.158499 
L 240.279612 227.831894 
L 240.787393 228.948747 
L 241.041283 228.374464 
L 241.549063 229.094474 
L 241.802954 228.239478 
L 242.056844 228.946426 
L 242.310734 228.889652 
L 242.818515 227.434548 
L 243.072405 228.987077 
L 243.326295 226.999027 
L 243.580185 227.869055 
L 243.834076 227.457944 
L 244.087966 227.794284 
L 244.341856 227.733285 
L 244.595746 227.387456 
L 244.849637 228.049565 
L 245.103527 227.247408 
L 245.357417 229.981636 
L 245.611307 229.091353 
L 245.865198 229.706265 
L 246.626868 228.15641 
L 247.134649 228.718929 
L 247.388539 230.557091 
L 247.642429 229.181412 
L 247.89632 229.491119 
L 248.15021 228.139652 
L 248.4041 228.13966 
L 248.65799 227.973526 
L 248.911881 228.953306 
L 249.165771 227.371254 
L 249.419661 229.808945 
L 249.673551 228.227059 
L 249.927442 227.779726 
L 250.181332 229.267532 
L 250.435222 228.804873 
L 250.689112 230.163623 
L 250.943003 228.633393 
L 251.196893 227.938269 
L 251.450783 229.414121 
L 251.704673 229.371394 
L 252.212454 227.883641 
L 252.466344 229.166921 
L 252.720234 228.914775 
L 252.974125 228.965537 
L 253.228015 227.792934 
L 253.481905 227.70851 
L 253.735795 228.479523 
L 253.989686 228.298882 
L 254.243576 228.957868 
L 254.497466 228.178139 
L 254.751356 228.953388 
L 255.005247 228.757686 
L 255.259137 227.570279 
L 255.513027 229.038682 
L 255.766917 228.724116 
L 256.020808 227.484694 
L 256.274698 229.083681 
L 256.528588 227.857258 
L 256.782479 229.405088 
L 257.036369 228.141919 
L 257.290259 228.827071 
L 257.544149 229.14275 
L 257.79804 229.266772 
L 258.05193 227.844034 
L 258.30582 228.067802 
L 258.55971 227.66229 
L 258.813601 228.990214 
L 259.067491 227.872355 
L 259.321381 227.818716 
L 259.575271 228.377525 
L 259.829162 228.291508 
L 260.083052 228.748081 
L 260.336942 228.435084 
L 260.590832 227.656271 
L 260.844723 228.716248 
L 261.098613 229.016294 
L 261.352503 228.429018 
L 261.606393 228.745201 
L 261.860284 227.952572 
L 262.114174 228.391594 
L 262.368064 227.770675 
L 262.621954 228.838169 
L 262.875845 227.743915 
L 263.129735 227.30828 
L 263.383625 229.240681 
L 263.891406 227.856691 
L 264.145296 228.764479 
L 264.399186 227.909146 
L 264.653076 228.860497 
L 264.906967 225.269728 
L 265.160857 228.041095 
L 265.414747 229.233641 
L 265.668637 229.116751 
L 265.922528 228.662631 
L 266.176418 226.951161 
L 266.430308 229.978519 
L 266.684198 227.844193 
L 266.938089 228.838228 
L 267.191979 229.315524 
L 267.445869 230.226017 
L 267.95365 228.193878 
L 268.20754 228.588396 
L 268.71532 227.923312 
L 268.969211 226.823189 
L 269.223101 227.548473 
L 269.476991 227.504211 
L 269.730881 228.272324 
L 270.238662 228.197475 
L 270.492552 227.02667 
L 270.746442 229.891282 
L 271.000333 228.290052 
L 271.254223 227.816469 
L 271.508113 228.869371 
L 271.762003 228.556803 
L 272.015894 228.470614 
L 272.269784 229.134575 
L 272.523674 228.958819 
L 272.777564 228.159442 
L 273.031455 229.309707 
L 273.285345 227.160501 
L 273.539235 228.506504 
L 273.793126 226.852335 
L 274.300906 228.798532 
L 274.554796 227.727856 
L 274.808687 227.85963 
L 275.062577 227.5095 
L 275.316467 228.727819 
L 275.570357 229.041152 
L 275.824248 230.016034 
L 276.078138 229.815434 
L 276.332028 228.002049 
L 276.585918 225.349232 
L 276.839809 228.561952 
L 277.093699 229.001294 
L 277.347589 228.766568 
L 277.601479 229.016309 
L 277.85537 227.151332 
L 278.10926 229.152027 
L 278.36315 229.082696 
L 278.61704 230.362086 
L 278.870931 228.300531 
L 279.124821 228.476916 
L 279.378711 227.886816 
L 279.632601 227.60856 
L 279.886492 228.897303 
L 280.140382 228.693833 
L 280.394272 227.011824 
L 280.648162 228.90739 
L 280.902053 228.820933 
L 281.155943 228.356604 
L 281.409833 229.38238 
L 281.663723 228.335788 
L 281.917614 229.608794 
L 282.171504 228.633176 
L 282.425394 229.375192 
L 282.679284 228.276988 
L 282.933175 228.127794 
L 283.187065 229.815373 
L 283.694845 228.371023 
L 283.948736 227.785704 
L 284.202626 227.922609 
L 284.456516 226.796139 
L 284.710406 228.830172 
L 285.218187 228.756959 
L 285.472077 228.254693 
L 285.725967 228.135586 
L 285.979858 227.756673 
L 286.233748 225.661395 
L 286.487638 227.97809 
L 286.741528 229.14505 
L 286.995419 229.117082 
L 287.249309 228.973506 
L 287.503199 227.362866 
L 288.01098 226.448871 
L 288.26487 228.70604 
L 288.51876 228.167491 
L 288.77265 228.224893 
L 289.280431 229.396043 
L 289.534321 228.470852 
L 289.788212 228.160887 
L 290.042102 228.292945 
L 290.295992 229.033545 
L 290.549882 227.563842 
L 290.803773 228.481597 
L 291.057663 227.60485 
L 291.311553 227.541776 
L 291.565443 229.714316 
L 291.819334 227.917158 
L 292.073224 229.345623 
L 292.327114 228.22739 
L 292.581004 228.173925 
L 292.834895 228.792472 
L 293.088785 228.582647 
L 293.342675 230.411213 
L 293.596565 228.163805 
L 293.850456 229.207344 
L 294.104346 229.40584 
L 294.866017 226.647764 
L 295.119907 227.589775 
L 295.373797 227.435531 
L 295.627687 228.225061 
L 295.881578 228.302452 
L 296.135468 228.683914 
L 296.389358 227.519132 
L 296.643248 229.375567 
L 296.897139 225.394978 
L 297.151029 229.311301 
L 297.404919 227.7662 
L 297.658809 229.070614 
L 297.9127 229.615868 
L 298.16659 227.143048 
L 298.42048 229.410056 
L 298.67437 227.531648 
L 298.928261 228.941474 
L 299.182151 227.560366 
L 299.436041 228.891392 
L 299.689931 228.393006 
L 299.943822 228.374447 
L 300.197712 228.664033 
L 300.451602 228.62146 
L 300.705492 226.832758 
L 300.959383 229.410318 
L 301.213273 228.131476 
L 301.467163 228.240253 
L 301.721053 228.16569 
L 301.974944 228.968282 
L 302.228834 229.324258 
L 302.482724 228.115595 
L 302.736614 228.596466 
L 302.990505 229.58803 
L 303.244395 228.807158 
L 303.498285 229.661535 
L 303.752175 228.152997 
L 304.006066 228.945607 
L 304.513846 227.916708 
L 304.767736 229.62663 
L 305.275517 227.893764 
L 305.529407 229.785414 
L 305.783298 228.505576 
L 306.291078 229.558311 
L 306.544968 227.544059 
L 307.052749 228.482697 
L 307.306639 229.510094 
L 307.560529 227.959862 
L 307.81442 227.994354 
L 308.3222 225.584437 
L 308.57609 229.209275 
L 308.829981 226.769122 
L 309.083871 229.272954 
L 309.337761 228.825961 
L 309.591651 229.939006 
L 309.845542 228.333827 
L 310.099432 228.398102 
L 310.099432 228.398102 
" clip-path="url(#p6983895b3c)" style="fill: none; stroke: #0000ff; stroke-width: 0.6; stroke-linecap: square"/>
   </g>
   <g id="line2d_28">
    <path d="M 56.463068 48.369111 
L 56.716958 48.125217 
L 57.224739 50.35697 
L 57.478629 52.081775 
L 57.732519 62.799604 
L 57.98641 85.122088 
L 58.49419 102.910465 
L 58.74808 91.282943 
L 59.001971 69.677798 
L 59.255861 107.910152 
L 59.509751 120.249057 
L 59.763641 94.029643 
L 60.017532 112.448274 
L 60.271422 99.442171 
L 60.525312 108.697615 
L 60.779202 129.724613 
L 61.033093 68.968989 
L 61.286983 120.93454 
L 61.540873 121.023533 
L 61.794764 131.407183 
L 62.048654 118.847801 
L 62.302544 129.044036 
L 62.556434 64.641932 
L 62.810325 130.997466 
L 63.064215 115.205244 
L 63.571995 141.7913 
L 63.825886 131.763762 
L 64.079776 143.850533 
L 64.587556 125.311329 
L 64.841447 139.047117 
L 65.095337 140.612938 
L 65.349227 145.612983 
L 65.603117 116.610441 
L 65.857008 136.329673 
L 66.110898 140.211301 
L 66.364788 140.068719 
L 66.618678 142.335902 
L 66.872569 137.234194 
L 67.126459 137.953357 
L 67.380349 137.729788 
L 67.634239 140.296811 
L 67.88813 137.6732 
L 68.14202 147.894627 
L 68.39591 97.028916 
L 68.6498 127.096854 
L 68.903691 141.836517 
L 69.411471 150.474562 
L 69.665361 141.895387 
L 69.919252 122.535607 
L 70.173142 139.434759 
L 70.427032 142.980908 
L 70.680922 142.557055 
L 70.934813 145.282303 
L 71.188703 143.583031 
L 71.442593 143.824409 
L 71.696483 143.55305 
L 71.950374 147.604907 
L 72.204264 134.241659 
L 72.458154 131.385958 
L 72.965935 141.694002 
L 73.219825 111.530208 
L 73.473715 128.172578 
L 73.727605 93.460083 
L 73.981496 146.656603 
L 74.235386 139.935984 
L 74.489276 139.730534 
L 74.743166 130.824854 
L 74.997057 134.337782 
L 75.250947 133.483968 
L 75.504837 126.747206 
L 75.758727 144.52822 
L 76.012618 136.396974 
L 76.266508 138.475975 
L 76.520398 133.585848 
L 76.774288 138.07787 
L 77.282069 121.432734 
L 77.535959 129.169599 
L 77.78985 128.787838 
L 78.29763 137.254611 
L 78.55152 116.113314 
L 78.805411 128.188223 
L 79.059301 102.874345 
L 79.313191 137.331133 
L 79.567081 127.428891 
L 79.820972 128.71853 
L 80.074862 120.939938 
L 80.328752 124.179425 
L 80.582642 130.582359 
L 80.836533 120.819782 
L 81.090423 128.308062 
L 81.344313 120.50972 
L 81.598203 134.648886 
L 81.852094 122.490049 
L 82.105984 127.507304 
L 82.359874 129.985076 
L 82.613764 125.055497 
L 82.867655 129.479344 
L 83.121545 127.141163 
L 83.375435 121.827207 
L 83.629325 107.192314 
L 83.883216 124.004147 
L 84.137106 123.187894 
L 84.390996 125.998529 
L 84.644886 121.120631 
L 84.898777 121.520002 
L 85.152667 117.979925 
L 85.406557 108.068878 
L 85.660447 116.70374 
L 85.914338 109.462078 
L 86.168228 116.104075 
L 86.422118 118.091951 
L 86.676008 112.150932 
L 86.929899 109.158997 
L 87.183789 109.781304 
L 87.437679 105.497689 
L 87.691569 106.820999 
L 87.94546 113.636799 
L 88.19935 106.585635 
L 88.45324 112.370577 
L 88.70713 103.78064 
L 88.961021 106.098296 
L 89.214911 116.883541 
L 89.468801 121.006464 
L 89.722691 118.185192 
L 89.976582 103.229732 
L 90.230472 112.085923 
L 90.484362 115.12474 
L 90.992143 92.293625 
L 91.246033 111.934219 
L 91.499923 110.185323 
L 92.007704 116.067239 
L 92.515484 84.909015 
L 92.769374 102.64128 
L 93.023265 94.901108 
L 93.277155 102.589191 
L 93.531045 99.083585 
L 93.784936 107.052273 
L 94.038826 89.968389 
L 94.292716 109.123327 
L 94.546606 101.005234 
L 94.800497 111.765039 
L 95.054387 103.610827 
L 95.308277 108.954105 
L 95.562167 96.358994 
L 95.816058 104.353706 
L 97.085509 93.127838 
L 97.339399 100.067626 
L 97.593289 96.076513 
L 97.84718 94.273237 
L 98.10107 98.664471 
L 98.35496 88.488361 
L 98.60885 97.64091 
L 98.862741 94.609881 
L 99.116631 93.652996 
L 99.370521 93.366001 
L 99.624411 88.872605 
L 99.878302 90.473555 
L 100.132192 80.599952 
L 100.386082 97.659787 
L 100.639972 88.013434 
L 100.893863 84.882159 
L 101.147753 91.29962 
L 101.401643 91.371411 
L 101.909424 82.420039 
L 102.417204 93.905454 
L 102.924985 82.177877 
L 103.178875 79.405204 
L 103.432765 90.287906 
L 103.686655 91.442702 
L 103.940546 83.125598 
L 104.194436 83.315346 
L 104.448326 76.888487 
L 104.702216 82.245036 
L 104.956107 82.559238 
L 105.209997 77.83236 
L 105.463887 76.430404 
L 105.717777 81.63136 
L 105.971668 81.428483 
L 106.225558 78.097097 
L 106.479448 76.81628 
L 106.733338 85.565793 
L 106.987229 83.943584 
L 107.241119 69.501146 
L 107.495009 66.581642 
L 107.748899 79.45367 
L 108.00279 83.821978 
L 108.25668 77.421976 
L 108.51057 80.746149 
L 109.018351 76.787291 
L 109.272241 71.808105 
L 109.526131 84.737278 
L 109.780021 81.443361 
L 110.033912 74.317491 
L 110.287802 76.86433 
L 110.795583 73.620795 
L 111.049473 77.559176 
L 111.303363 76.92664 
L 111.557253 71.648013 
L 111.811144 70.101743 
L 112.065034 72.02186 
L 112.318924 70.732497 
L 112.572814 75.533165 
L 112.826705 73.298329 
L 113.080595 68.953212 
L 113.334485 71.304022 
L 113.588375 68.869559 
L 113.842266 70.20304 
L 114.350046 70.280728 
L 114.857827 75.229225 
L 115.111717 73.155114 
L 115.365607 76.2606 
L 115.619497 73.339097 
L 115.873388 65.485575 
L 116.127278 77.71427 
L 116.635058 70.151075 
L 116.888949 71.828581 
L 117.142839 70.679733 
L 117.396729 68.666633 
L 117.650619 69.440718 
L 118.1584 73.859774 
L 118.41229 67.879136 
L 118.66618 70.733413 
L 118.920071 71.132651 
L 119.173961 65.610929 
L 119.427851 70.738445 
L 119.681741 69.929923 
L 119.935632 73.510568 
L 120.189522 71.824216 
L 120.443412 68.974437 
L 120.697302 72.225236 
L 120.951193 68.698271 
L 121.205083 68.800218 
L 121.458973 70.33859 
L 121.966754 67.931584 
L 122.220644 68.141108 
L 122.474534 67.219227 
L 122.728424 71.091549 
L 122.982315 68.606405 
L 123.236205 69.852018 
L 123.490095 69.624067 
L 123.743985 71.351555 
L 124.505656 63.942721 
L 125.013437 71.279847 
L 125.267327 68.301366 
L 125.521217 70.636482 
L 125.775107 70.135181 
L 126.028998 68.351314 
L 126.282888 65.200696 
L 127.044559 70.10291 
L 127.298449 66.97195 
L 127.552339 66.914288 
L 127.80623 66.295064 
L 128.06012 67.881402 
L 128.31401 62.365345 
L 128.5679 65.30844 
L 128.821791 66.078176 
L 129.075681 68.446446 
L 129.837352 64.946455 
L 130.091242 65.734218 
L 130.345132 63.138047 
L 130.599022 64.179034 
L 130.852913 68.043377 
L 131.106803 67.487596 
L 131.360693 65.145316 
L 131.614583 64.078038 
L 131.868474 57.988273 
L 132.122364 63.161405 
L 132.376254 64.643615 
L 132.630144 63.341156 
L 132.884035 60.886451 
L 133.391815 62.127915 
L 133.645705 61.814279 
L 133.899596 62.27951 
L 134.153486 60.858111 
L 134.407376 62.364829 
L 134.661266 62.148291 
L 134.915157 60.212963 
L 135.169047 63.288409 
L 135.422937 61.035946 
L 135.676827 62.98367 
L 136.184608 60.359426 
L 136.438498 61.404345 
L 136.692388 60.017601 
L 136.946279 62.00356 
L 137.200169 59.545023 
L 137.454059 58.800727 
L 137.707949 57.183933 
L 137.96184 60.666531 
L 138.21573 59.911889 
L 138.46962 59.784769 
L 138.72351 60.309877 
L 138.977401 61.256583 
L 139.231291 59.663446 
L 139.485181 63.168653 
L 139.739071 60.552322 
L 139.992962 61.03468 
L 140.246852 59.965603 
L 140.500742 60.903678 
L 140.754632 59.394794 
L 141.008523 57.116124 
L 141.262413 56.491052 
L 141.516303 58.949973 
L 141.770193 58.695899 
L 142.024084 60.222126 
L 142.277974 63.139696 
L 142.531864 63.105559 
L 142.785755 61.904413 
L 143.039645 59.914955 
L 143.293535 63.030553 
L 143.547425 63.232663 
L 143.801316 61.61915 
L 144.055206 61.518687 
L 144.309096 61.186508 
L 144.816877 58.838247 
L 145.070767 58.643784 
L 145.324657 58.723939 
L 145.832438 59.582109 
L 146.086328 59.547405 
L 146.340218 58.29966 
L 146.594108 59.121527 
L 146.847999 57.510431 
L 147.101889 59.810209 
L 147.355779 58.790781 
L 147.609669 59.949842 
L 148.11745 57.666374 
L 148.37134 59.135222 
L 148.62523 59.886115 
L 148.879121 60.104036 
L 149.133011 57.634252 
L 149.386901 60.677144 
L 149.640791 60.67916 
L 149.894682 58.282583 
L 150.148572 60.893981 
L 150.656352 60.292001 
L 150.910243 59.169893 
L 151.418023 59.798447 
L 151.671913 59.56135 
L 151.925804 60.444912 
L 152.433584 57.784814 
L 152.687474 59.371836 
L 152.941365 59.586957 
L 153.449145 58.352657 
L 154.210816 59.516033 
L 154.464706 57.9152 
L 154.718596 59.655966 
L 154.972487 60.071214 
L 155.226377 59.214243 
L 155.734157 59.109398 
L 156.241938 61.386319 
L 156.495828 60.981616 
L 156.749718 59.279636 
L 157.003609 59.741601 
L 157.257499 57.751676 
L 157.511389 58.222238 
L 157.765279 59.330368 
L 158.01917 58.669992 
L 158.27306 56.412464 
L 158.52695 57.975411 
L 158.78084 58.450721 
L 159.034731 57.685167 
L 159.288621 58.374566 
L 159.542511 58.158495 
L 160.050292 58.30894 
L 160.304182 57.919782 
L 160.558072 58.08817 
L 160.811963 59.159213 
L 161.065853 59.004436 
L 161.319743 58.530376 
L 161.573633 57.572575 
L 161.827524 58.168574 
L 162.335304 56.855986 
L 162.843085 58.35414 
L 163.096975 58.04302 
L 163.350865 58.211492 
L 163.604755 58.70253 
L 163.858646 57.574774 
L 164.112536 58.921317 
L 164.366426 58.323651 
L 164.620316 58.476929 
L 164.874207 57.965748 
L 165.128097 58.533475 
L 165.381987 58.605115 
L 165.635877 58.451188 
L 165.889768 57.649363 
L 166.143658 57.793578 
L 166.397548 58.487391 
L 166.651438 58.283149 
L 166.905329 57.312486 
L 167.159219 57.610661 
L 167.666999 58.55485 
L 168.42867 59.101318 
L 168.936451 58.89356 
L 169.190341 59.851911 
L 169.444231 59.092638 
L 169.698121 59.217226 
L 169.952012 59.12126 
L 170.205902 59.870421 
L 170.459792 58.460485 
L 170.713682 58.80201 
L 170.967573 58.794879 
L 171.221463 59.045488 
L 171.475353 58.86652 
L 171.983134 58.081573 
L 172.237024 58.29796 
L 172.490914 58.267355 
L 172.744804 58.051833 
L 172.998695 58.203128 
L 173.252585 57.567543 
L 173.506475 57.5498 
L 173.760365 57.033721 
L 174.014256 57.42951 
L 174.268146 57.355654 
L 174.522036 57.788179 
L 174.775926 57.599848 
L 175.029817 56.841491 
L 175.283707 56.901686 
L 175.537597 57.224135 
L 175.791488 57.071724 
L 176.045378 57.228633 
L 176.299268 58.191916 
L 176.553158 57.743362 
L 176.807049 58.041537 
L 177.568719 57.441639 
L 177.82261 56.964646 
L 178.0765 57.166506 
L 178.33039 56.731548 
L 178.58428 56.724617 
L 178.838171 57.372681 
L 179.092061 57.217038 
L 179.599841 57.827782 
L 179.853732 57.31915 
L 180.107622 57.44019 
L 180.361512 58.111412 
L 180.615402 58.01413 
L 180.869293 57.37593 
L 181.123183 57.762655 
L 181.377073 56.887758 
L 181.630963 57.848807 
L 181.884854 57.74023 
L 182.138744 57.791895 
L 182.392634 57.458949 
L 182.646524 57.87778 
L 183.408195 57.542236 
L 183.662085 57.377796 
L 183.915976 57.655811 
L 184.677646 57.844442 
L 184.931537 57.635119 
L 185.185427 57.779016 
L 185.439317 57.650946 
L 185.947098 57.150678 
L 186.454878 57.290694 
L 186.708768 57.187248 
L 186.962659 57.371165 
L 187.470439 56.98269 
L 187.724329 57.019743 
L 187.97822 56.883492 
L 188.486 57.168339 
L 188.73989 56.920596 
L 188.993781 57.028656 
L 189.247671 56.901702 
L 189.501561 57.142115 
L 189.755451 57.028956 
L 190.771012 57.500384 
L 191.024903 57.195096 
L 191.278793 57.23723 
L 191.532683 57.16464 
L 191.786574 57.357253 
L 192.294354 57.353505 
L 192.802135 57.635868 
L 193.056025 57.281881 
L 193.309915 57.177935 
L 193.817696 57.558447 
L 194.071586 57.362901 
L 194.579366 57.186632 
L 194.833257 56.984106 
L 195.087147 57.022075 
L 195.341037 57.214322 
L 195.594927 57.254007 
L 195.848818 57.512763 
L 196.102708 57.476476 
L 196.356598 57.263021 
L 196.610488 57.321466 
L 197.118269 57.033804 
L 197.372159 56.965662 
L 197.626049 57.031538 
L 197.87994 57.221952 
L 199.403281 57.198644 
L 200.926623 57.21064 
L 201.434403 57.264604 
L 201.942184 57.229666 
L 202.703854 57.28263 
L 202.957745 57.377912 
L 203.973306 57.014161 
L 204.481086 57.107477 
L 204.734976 57.106761 
L 204.988867 56.978458 
L 206.004428 57.05533 
L 206.258318 56.934341 
L 206.766098 57.053897 
L 207.273879 56.944903 
L 207.527769 57.111476 
L 207.78166 57.032322 
L 208.28944 57.102479 
L 209.305001 56.904651 
L 209.558891 57.00115 
L 210.066672 57.020792 
L 211.336123 56.997884 
L 211.843904 57.034854 
L 215.652257 56.997684 
L 216.160038 56.928276 
L 220.730062 57.07429 
L 221.237843 57.05603 
L 221.491733 56.974892 
L 221.999514 57.095882 
L 223.015075 57.050365 
L 224.792307 57.062194 
L 225.300087 57.004981 
L 227.585099 57.111443 
L 228.34677 57.105362 
L 230.377892 57.13825 
L 231.139563 57.027473 
L 233.678465 57.002716 
L 237.232929 57.019976 
L 242.310734 57.01916 
L 245.865198 57.016227 
L 248.15021 57.017194 
L 250.181332 56.996168 
L 253.735795 57.00918 
L 257.036369 56.95305 
L 261.352503 56.95475 
L 262.875845 56.987821 
L 267.191979 56.996635 
L 269.984772 57.003899 
L 272.777564 57.014261 
L 274.554796 57.026074 
L 289.026541 57.001883 
L 294.866017 57.007864 
L 297.9127 57.010996 
L 299.436041 57.009497 
L 301.467163 57.063177 
L 310.099432 57.016111 
L 310.099432 57.016111 
" clip-path="url(#p6983895b3c)" style="fill: none; stroke: #ff0000; stroke-width: 0.6; stroke-linecap: square"/>
   </g>
   <g id="patch_3">
    <path d="M 43.78125 239.76 
L 43.78125 37.296 
" style="fill: none; stroke: #000000; stroke-width: 0.8; stroke-linejoin: miter; stroke-linecap: square"/>
   </g>
   <g id="patch_4">
    <path d="M 322.78125 239.76 
L 322.78125 37.296 
" style="fill: none; stroke: #000000; stroke-width: 0.8; stroke-linejoin: miter; stroke-linecap: square"/>
   </g>
   <g id="patch_5">
    <path d="M 43.78125 239.76 
L 322.78125 239.76 
" style="fill: none; stroke: #000000; stroke-width: 0.8; stroke-linejoin: miter; stroke-linecap: square"/>
   </g>
   <g id="patch_6">
    <path d="M 43.78125 37.296 
L 322.78125 37.296 
" style="fill: none; stroke: #000000; stroke-width: 0.8; stroke-linejoin: miter; stroke-linecap: square"/>
   </g>
   <g id="text_16">
    <!-- Baseline Model -->
    <g transform="translate(149.259844 31.296) scale(0.09 -0.09)">
     <defs>
      <path id="DejaVuSans-42" d="M 1259 2228 
L 1259 519 
L 2272 519 
Q 2781 519 3026 730 
Q 3272 941 3272 1375 
Q 3272 1813 3026 2020 
Q 2781 2228 2272 2228 
L 1259 2228 
z
M 1259 4147 
L 1259 2741 
L 2194 2741 
Q 2656 2741 2882 2914 
Q 3109 3088 3109 3444 
Q 3109 3797 2882 3972 
Q 2656 4147 2194 4147 
L 1259 4147 
z
M 628 4666 
L 2241 4666 
Q 2963 4666 3353 4366 
Q 3744 4066 3744 3513 
Q 3744 3084 3544 2831 
Q 3344 2578 2956 2516 
Q 3422 2416 3680 2098 
Q 3938 1781 3938 1306 
Q 3938 681 3513 340 
Q 3088 0 2303 0 
L 628 0 
L 628 4666 
z
" transform="scale(0.015625)"/>
      <path id="DejaVuSans-61" d="M 2194 1759 
Q 1497 1759 1228 1600 
Q 959 1441 959 1056 
Q 959 750 1161 570 
Q 1363 391 1709 391 
Q 2188 391 2477 730 
Q 2766 1069 2766 1631 
L 2766 1759 
L 2194 1759 
z
M 3341 1997 
L 3341 0 
L 2766 0 
L 2766 531 
Q 2569 213 2275 61 
Q 1981 -91 1556 -91 
Q 1019 -91 701 211 
Q 384 513 384 1019 
Q 384 1609 779 1909 
Q 1175 2209 1959 2209 
L 2766 2209 
L 2766 2266 
Q 2766 2663 2505 2880 
Q 2244 3097 1772 3097 
Q 1472 3097 1187 3025 
Q 903 2953 641 2809 
L 641 3341 
Q 956 3463 1253 3523 
Q 1550 3584 1831 3584 
Q 2591 3584 2966 3190 
Q 3341 2797 3341 1997 
z
" transform="scale(0.015625)"/>
      <path id="DejaVuSans-65" d="M 3597 1894 
L 3597 1613 
L 953 1613 
Q 991 1019 1311 708 
Q 1631 397 2203 397 
Q 2534 397 2845 478 
Q 3156 559 3463 722 
L 3463 178 
Q 3153 47 2828 -22 
Q 2503 -91 2169 -91 
Q 1331 -91 842 396 
Q 353 884 353 1716 
Q 353 2575 817 3079 
Q 1281 3584 2069 3584 
Q 2775 3584 3186 3129 
Q 3597 2675 3597 1894 
z
M 3022 2063 
Q 3016 2534 2758 2815 
Q 2500 3097 2075 3097 
Q 1594 3097 1305 2825 
Q 1016 2553 972 2059 
L 3022 2063 
z
" transform="scale(0.015625)"/>
      <path id="DejaVuSans-6c" d="M 603 4863 
L 1178 4863 
L 1178 0 
L 603 0 
L 603 4863 
z
" transform="scale(0.015625)"/>
      <path id="DejaVuSans-69" d="M 603 3500 
L 1178 3500 
L 1178 0 
L 603 0 
L 603 3500 
z
M 603 4863 
L 1178 4863 
L 1178 4134 
L 603 4134 
L 603 4863 
z
" transform="scale(0.015625)"/>
      <path id="DejaVuSans-6e" d="M 3513 2113 
L 3513 0 
L 2938 0 
L 2938 2094 
Q 2938 2591 2744 2837 
Q 2550 3084 2163 3084 
Q 1697 3084 1428 2787 
Q 1159 2491 1159 1978 
L 1159 0 
L 581 0 
L 581 3500 
L 1159 3500 
L 1159 2956 
Q 1366 3272 1645 3428 
Q 1925 3584 2291 3584 
Q 2894 3584 3203 3211 
Q 3513 2838 3513 2113 
z
" transform="scale(0.015625)"/>
      <path id="DejaVuSans-20" transform="scale(0.015625)"/>
      <path id="DejaVuSans-4d" d="M 628 4666 
L 1569 4666 
L 2759 1491 
L 3956 4666 
L 4897 4666 
L 4897 0 
L 4281 0 
L 4281 4097 
L 3078 897 
L 2444 897 
L 1241 4097 
L 1241 0 
L 628 0 
L 628 4666 
z
" transform="scale(0.015625)"/>
      <path id="DejaVuSans-64" d="M 2906 2969 
L 2906 4863 
L 3481 4863 
L 3481 0 
L 2906 0 
L 2906 525 
Q 2725 213 2448 61 
Q 2172 -91 1784 -91 
Q 1150 -91 751 415 
Q 353 922 353 1747 
Q 353 2572 751 3078 
Q 1150 3584 1784 3584 
Q 2172 3584 2448 3432 
Q 2725 3281 2906 2969 
z
M 947 1747 
Q 947 1113 1208 752 
Q 1469 391 1925 391 
Q 2381 391 2643 752 
Q 2906 1113 2906 1747 
Q 2906 2381 2643 2742 
Q 2381 3103 1925 3103 
Q 1469 3103 1208 2742 
Q 947 2381 947 1747 
z
" transform="scale(0.015625)"/>
     </defs>
     <use xlink:href="#DejaVuSans-42"/>
     <use xlink:href="#DejaVuSans-61" x="68.603516"/>
     <use xlink:href="#DejaVuSans-73" x="129.882812"/>
     <use xlink:href="#DejaVuSans-65" x="181.982422"/>
     <use xlink:href="#DejaVuSans-6c" x="243.505859"/>
     <use xlink:href="#DejaVuSans-69" x="271.289062"/>
     <use xlink:href="#DejaVuSans-6e" x="299.072266"/>
     <use xlink:href="#DejaVuSans-65" x="362.451172"/>
     <use xlink:href="#DejaVuSans-20" x="423.974609"/>
     <use xlink:href="#DejaVuSans-4d" x="455.761719"/>
     <use xlink:href="#DejaVuSans-6f" x="542.041016"/>
     <use xlink:href="#DejaVuSans-64" x="603.222656"/>
     <use xlink:href="#DejaVuSans-65" x="666.699219"/>
     <use xlink:href="#DejaVuSans-6c" x="728.222656"/>
    </g>
   </g>
   <g id="legend_1">
    <g id="patch_7">
     <path d="M 209.2875 154.706125 
L 315.78125 154.706125 
Q 317.78125 154.706125 317.78125 152.706125 
L 317.78125 124.349875 
Q 317.78125 122.349875 315.78125 122.349875 
L 209.2875 122.349875 
Q 207.2875 122.349875 207.2875 124.349875 
L 207.2875 152.706125 
Q 207.2875 154.706125 209.2875 154.706125 
z
" style="fill: #ffffff; opacity: 0.8; stroke: #cccccc; stroke-linejoin: miter"/>
    </g>
    <g id="line2d_29">
     <path d="M 211.2875 130.448312 
L 221.2875 130.448312 
L 231.2875 130.448312 
" style="fill: none; stroke: #0000ff; stroke-width: 0.6; stroke-linecap: square"/>
    </g>
    <g id="text_17">
     <!-- Training Loss -->
     <g transform="translate(239.2875 133.948312) scale(0.1 -0.1)">
      <defs>
       <path id="DejaVuSans-54" d="M -19 4666 
L 3928 4666 
L 3928 4134 
L 2272 4134 
L 2272 0 
L 1638 0 
L 1638 4134 
L -19 4134 
L -19 4666 
z
" transform="scale(0.015625)"/>
       <path id="DejaVuSans-72" d="M 2631 2963 
Q 2534 3019 2420 3045 
Q 2306 3072 2169 3072 
Q 1681 3072 1420 2755 
Q 1159 2438 1159 1844 
L 1159 0 
L 581 0 
L 581 3500 
L 1159 3500 
L 1159 2956 
Q 1341 3275 1631 3429 
Q 1922 3584 2338 3584 
Q 2397 3584 2469 3576 
Q 2541 3569 2628 3553 
L 2631 2963 
z
" transform="scale(0.015625)"/>
       <path id="DejaVuSans-67" d="M 2906 1791 
Q 2906 2416 2648 2759 
Q 2391 3103 1925 3103 
Q 1463 3103 1205 2759 
Q 947 2416 947 1791 
Q 947 1169 1205 825 
Q 1463 481 1925 481 
Q 2391 481 2648 825 
Q 2906 1169 2906 1791 
z
M 3481 434 
Q 3481 -459 3084 -895 
Q 2688 -1331 1869 -1331 
Q 1566 -1331 1297 -1286 
Q 1028 -1241 775 -1147 
L 775 -588 
Q 1028 -725 1275 -790 
Q 1522 -856 1778 -856 
Q 2344 -856 2625 -561 
Q 2906 -266 2906 331 
L 2906 616 
Q 2728 306 2450 153 
Q 2172 0 1784 0 
Q 1141 0 747 490 
Q 353 981 353 1791 
Q 353 2603 747 3093 
Q 1141 3584 1784 3584 
Q 2172 3584 2450 3431 
Q 2728 3278 2906 2969 
L 2906 3500 
L 3481 3500 
L 3481 434 
z
" transform="scale(0.015625)"/>
      </defs>
      <use xlink:href="#DejaVuSans-54"/>
      <use xlink:href="#DejaVuSans-72" x="46.333984"/>
      <use xlink:href="#DejaVuSans-61" x="87.447266"/>
      <use xlink:href="#DejaVuSans-69" x="148.726562"/>
      <use xlink:href="#DejaVuSans-6e" x="176.509766"/>
      <use xlink:href="#DejaVuSans-69" x="239.888672"/>
      <use xlink:href="#DejaVuSans-6e" x="267.671875"/>
      <use xlink:href="#DejaVuSans-67" x="331.050781"/>
      <use xlink:href="#DejaVuSans-20" x="394.527344"/>
      <use xlink:href="#DejaVuSans-4c" x="426.314453"/>
      <use xlink:href="#DejaVuSans-6f" x="480.277344"/>
      <use xlink:href="#DejaVuSans-73" x="541.458984"/>
      <use xlink:href="#DejaVuSans-73" x="593.558594"/>
     </g>
    </g>
    <g id="line2d_30">
     <path d="M 211.2875 145.126437 
L 221.2875 145.126437 
L 231.2875 145.126437 
" style="fill: none; stroke: #ff0000; stroke-width: 0.6; stroke-linecap: square"/>
    </g>
    <g id="text_18">
     <!-- Validation Loss -->
     <g transform="translate(239.2875 148.626437) scale(0.1 -0.1)">
      <defs>
       <path id="DejaVuSans-56" d="M 1831 0 
L 50 4666 
L 709 4666 
L 2188 738 
L 3669 4666 
L 4325 4666 
L 2547 0 
L 1831 0 
z
" transform="scale(0.015625)"/>
       <path id="DejaVuSans-74" d="M 1172 4494 
L 1172 3500 
L 2356 3500 
L 2356 3053 
L 1172 3053 
L 1172 1153 
Q 1172 725 1289 603 
Q 1406 481 1766 481 
L 2356 481 
L 2356 0 
L 1766 0 
Q 1100 0 847 248 
Q 594 497 594 1153 
L 594 3053 
L 172 3053 
L 172 3500 
L 594 3500 
L 594 4494 
L 1172 4494 
z
" transform="scale(0.015625)"/>
      </defs>
      <use xlink:href="#DejaVuSans-56"/>
      <use xlink:href="#DejaVuSans-61" x="60.658203"/>
      <use xlink:href="#DejaVuSans-6c" x="121.9375"/>
      <use xlink:href="#DejaVuSans-69" x="149.720703"/>
      <use xlink:href="#DejaVuSans-64" x="177.503906"/>
      <use xlink:href="#DejaVuSans-61" x="240.980469"/>
      <use xlink:href="#DejaVuSans-74" x="302.259766"/>
      <use xlink:href="#DejaVuSans-69" x="341.46875"/>
      <use xlink:href="#DejaVuSans-6f" x="369.251953"/>
      <use xlink:href="#DejaVuSans-6e" x="430.433594"/>
      <use xlink:href="#DejaVuSans-20" x="493.8125"/>
      <use xlink:href="#DejaVuSans-4c" x="525.599609"/>
      <use xlink:href="#DejaVuSans-6f" x="579.5625"/>
      <use xlink:href="#DejaVuSans-73" x="640.744141"/>
      <use xlink:href="#DejaVuSans-73" x="692.84375"/>
     </g>
    </g>
   </g>
  </g>
  <g id="text_19">
   <!-- Training VS. Validation Loss - Dataset Size = 100.0% -->
   <g transform="translate(34.481016 15.558281) scale(0.11 -0.11)">
    <defs>
     <path id="DejaVuSans-53" d="M 3425 4513 
L 3425 3897 
Q 3066 4069 2747 4153 
Q 2428 4238 2131 4238 
Q 1616 4238 1336 4038 
Q 1056 3838 1056 3469 
Q 1056 3159 1242 3001 
Q 1428 2844 1947 2747 
L 2328 2669 
Q 3034 2534 3370 2195 
Q 3706 1856 3706 1288 
Q 3706 609 3251 259 
Q 2797 -91 1919 -91 
Q 1588 -91 1214 -16 
Q 841 59 441 206 
L 441 856 
Q 825 641 1194 531 
Q 1563 422 1919 422 
Q 2459 422 2753 634 
Q 3047 847 3047 1241 
Q 3047 1584 2836 1778 
Q 2625 1972 2144 2069 
L 1759 2144 
Q 1053 2284 737 2584 
Q 422 2884 422 3419 
Q 422 4038 858 4394 
Q 1294 4750 2059 4750 
Q 2388 4750 2728 4690 
Q 3069 4631 3425 4513 
z
" transform="scale(0.015625)"/>
     <path id="DejaVuSans-2d" d="M 313 2009 
L 1997 2009 
L 1997 1497 
L 313 1497 
L 313 2009 
z
" transform="scale(0.015625)"/>
     <path id="DejaVuSans-44" d="M 1259 4147 
L 1259 519 
L 2022 519 
Q 2988 519 3436 956 
Q 3884 1394 3884 2338 
Q 3884 3275 3436 3711 
Q 2988 4147 2022 4147 
L 1259 4147 
z
M 628 4666 
L 1925 4666 
Q 3281 4666 3915 4102 
Q 4550 3538 4550 2338 
Q 4550 1131 3912 565 
Q 3275 0 1925 0 
L 628 0 
L 628 4666 
z
" transform="scale(0.015625)"/>
     <path id="DejaVuSans-7a" d="M 353 3500 
L 3084 3500 
L 3084 2975 
L 922 459 
L 3084 459 
L 3084 0 
L 275 0 
L 275 525 
L 2438 3041 
L 353 3041 
L 353 3500 
z
" transform="scale(0.015625)"/>
     <path id="DejaVuSans-3d" d="M 678 2906 
L 4684 2906 
L 4684 2381 
L 678 2381 
L 678 2906 
z
M 678 1631 
L 4684 1631 
L 4684 1100 
L 678 1100 
L 678 1631 
z
" transform="scale(0.015625)"/>
     <path id="DejaVuSans-25" d="M 4653 2053 
Q 4381 2053 4226 1822 
Q 4072 1591 4072 1178 
Q 4072 772 4226 539 
Q 4381 306 4653 306 
Q 4919 306 5073 539 
Q 5228 772 5228 1178 
Q 5228 1588 5073 1820 
Q 4919 2053 4653 2053 
z
M 4653 2450 
Q 5147 2450 5437 2106 
Q 5728 1763 5728 1178 
Q 5728 594 5436 251 
Q 5144 -91 4653 -91 
Q 4153 -91 3862 251 
Q 3572 594 3572 1178 
Q 3572 1766 3864 2108 
Q 4156 2450 4653 2450 
z
M 1428 4353 
Q 1159 4353 1004 4120 
Q 850 3888 850 3481 
Q 850 3069 1003 2837 
Q 1156 2606 1428 2606 
Q 1700 2606 1854 2837 
Q 2009 3069 2009 3481 
Q 2009 3884 1853 4118 
Q 1697 4353 1428 4353 
z
M 4250 4750 
L 4750 4750 
L 1831 -91 
L 1331 -91 
L 4250 4750 
z
M 1428 4750 
Q 1922 4750 2215 4408 
Q 2509 4066 2509 3481 
Q 2509 2891 2217 2550 
Q 1925 2209 1428 2209 
Q 931 2209 642 2551 
Q 353 2894 353 3481 
Q 353 4063 643 4406 
Q 934 4750 1428 4750 
z
" transform="scale(0.015625)"/>
    </defs>
    <use xlink:href="#DejaVuSans-54"/>
    <use xlink:href="#DejaVuSans-72" x="46.333984"/>
    <use xlink:href="#DejaVuSans-61" x="87.447266"/>
    <use xlink:href="#DejaVuSans-69" x="148.726562"/>
    <use xlink:href="#DejaVuSans-6e" x="176.509766"/>
    <use xlink:href="#DejaVuSans-69" x="239.888672"/>
    <use xlink:href="#DejaVuSans-6e" x="267.671875"/>
    <use xlink:href="#DejaVuSans-67" x="331.050781"/>
    <use xlink:href="#DejaVuSans-20" x="394.527344"/>
    <use xlink:href="#DejaVuSans-56" x="426.314453"/>
    <use xlink:href="#DejaVuSans-53" x="494.722656"/>
    <use xlink:href="#DejaVuSans-2e" x="558.199219"/>
    <use xlink:href="#DejaVuSans-20" x="589.986328"/>
    <use xlink:href="#DejaVuSans-56" x="621.773438"/>
    <use xlink:href="#DejaVuSans-61" x="682.431641"/>
    <use xlink:href="#DejaVuSans-6c" x="743.710938"/>
    <use xlink:href="#DejaVuSans-69" x="771.494141"/>
    <use xlink:href="#DejaVuSans-64" x="799.277344"/>
    <use xlink:href="#DejaVuSans-61" x="862.753906"/>
    <use xlink:href="#DejaVuSans-74" x="924.033203"/>
    <use xlink:href="#DejaVuSans-69" x="963.242188"/>
    <use xlink:href="#DejaVuSans-6f" x="991.025391"/>
    <use xlink:href="#DejaVuSans-6e" x="1052.207031"/>
    <use xlink:href="#DejaVuSans-20" x="1115.585938"/>
    <use xlink:href="#DejaVuSans-4c" x="1147.373047"/>
    <use xlink:href="#DejaVuSans-6f" x="1201.335938"/>
    <use xlink:href="#DejaVuSans-73" x="1262.517578"/>
    <use xlink:href="#DejaVuSans-73" x="1314.617188"/>
    <use xlink:href="#DejaVuSans-20" x="1366.716797"/>
    <use xlink:href="#DejaVuSans-2d" x="1398.503906"/>
    <use xlink:href="#DejaVuSans-20" x="1434.587891"/>
    <use xlink:href="#DejaVuSans-44" x="1466.375"/>
    <use xlink:href="#DejaVuSans-61" x="1543.376953"/>
    <use xlink:href="#DejaVuSans-74" x="1604.65625"/>
    <use xlink:href="#DejaVuSans-61" x="1643.865234"/>
    <use xlink:href="#DejaVuSans-73" x="1705.144531"/>
    <use xlink:href="#DejaVuSans-65" x="1757.244141"/>
    <use xlink:href="#DejaVuSans-74" x="1818.767578"/>
    <use xlink:href="#DejaVuSans-20" x="1857.976562"/>
    <use xlink:href="#DejaVuSans-53" x="1889.763672"/>
    <use xlink:href="#DejaVuSans-69" x="1953.240234"/>
    <use xlink:href="#DejaVuSans-7a" x="1981.023438"/>
    <use xlink:href="#DejaVuSans-65" x="2033.513672"/>
    <use xlink:href="#DejaVuSans-20" x="2095.037109"/>
    <use xlink:href="#DejaVuSans-3d" x="2126.824219"/>
    <use xlink:href="#DejaVuSans-20" x="2210.613281"/>
    <use xlink:href="#DejaVuSans-31" x="2242.400391"/>
    <use xlink:href="#DejaVuSans-30" x="2306.023438"/>
    <use xlink:href="#DejaVuSans-30" x="2369.646484"/>
    <use xlink:href="#DejaVuSans-2e" x="2433.269531"/>
    <use xlink:href="#DejaVuSans-30" x="2465.056641"/>
    <use xlink:href="#DejaVuSans-25" x="2528.679688"/>
   </g>
  </g>
 </g>
 <defs>
  <clipPath id="p6983895b3c">
   <rect x="43.78125" y="37.296" width="279" height="202.464"/>
  </clipPath>
 </defs>
</svg>
