<?xml version="1.0" encoding="utf-8" standalone="no"?>
<!DOCTYPE svg PUBLIC "-//W3C//DTD SVG 1.1//EN"
  "http://www.w3.org/Graphics/SVG/1.1/DTD/svg11.dtd">
<svg xmlns:xlink="http://www.w3.org/1999/xlink" width="330.281484pt" height="277.31625pt" viewBox="0 0 330.281484 277.31625" xmlns="http://www.w3.org/2000/svg" version="1.1">
 <metadata>
  <rdf:RDF xmlns:dc="http://purl.org/dc/elements/1.1/" xmlns:cc="http://creativecommons.org/ns#" xmlns:rdf="http://www.w3.org/1999/02/22-rdf-syntax-ns#">
   <cc:Work>
    <dc:type rdf:resource="http://purl.org/dc/dcmitype/StillImage"/>
    <dc:date>2026-06-11T11:59:14.819108</dc:date>
    <dc:format>image/svg+xml</dc:format>
    <dc:creator>
     <cc:Agent>
      <dc:title>Matplotlib v3.8.4, https://matplotlib.org/</dc:title>
     </cc:Agent>
    </dc:creator>
   </cc:Work>
  </rdf:RDF>
 </metadata>
 <defs>
  <style type="text/css">*{stroke-linejoin: round; stroke-linecap: butt}</style>
 </defs>
 <g id="figure_1">
  <g id="patch_1">
   <path d="M 0 277.31625 
L 330.281484 277.31625 
L 330.281484 0 
L 0 0 
z
" style="fill: #ffffff"/>
  </g>
  <g id="axes_1">
   <g id="patch_2">
    <path d="M 43.78125 239.76 
L 322.78125 239.76 
L 322.78125 37.296 
L 43.78125 37.296 
z
" style="fill: #ffffff"/>
   </g>
   <g id="matplotlib.axis_1">
    <g id="xtick_1">
     <g id="line2d_1">
      <path d="M 56.209178 239.76 
L 56.209178 37.296 
" clip-path="url(#pd318f0f0e0)" style="fill: none; stroke-dasharray: 2.96,1.28; stroke-dashoffset: 0; stroke: #b0b0b0; stroke-opacity: 0.4; stroke-width: 0.8"/>
     </g>
     <g id="line2d_2">
      <defs>
       <path id="ma0b9208620" d="M 0 0 
L 0 3.5 
" style="stroke: #000000; stroke-width: 0.8"/>
      </defs>
      <g>
       <use xlink:href="#ma0b9208620" x="56.209178" y="239.76" style="stroke: #000000; stroke-width: 0.8"/>
      </g>
     </g>
     <g id="text_1">
      <!-- 0 -->
      <g transform="translate(53.027928 254.358437) scale(0.1 -0.1)">
       <defs>
        <path id="DejaVuSans-30" d="M 2034 4250 
Q 1547 4250 1301 3770 
Q 1056 3291 1056 2328 
Q 1056 1369 1301 889 
Q 1547 409 2034 409 
Q 2525 409 2770 889 
Q 3016 1369 3016 2328 
Q 3016 3291 2770 3770 
Q 2525 4250 2034 4250 
z
M 2034 4750 
Q 2819 4750 3233 4129 
Q 3647 3509 3647 2328 
Q 3647 1150 3233 529 
Q 2819 -91 2034 -91 
Q 1250 -91 836 529 
Q 422 1150 422 2328 
Q 422 3509 836 4129 
Q 1250 4750 2034 4750 
z
" transform="scale(0.015625)"/>
       </defs>
       <use xlink:href="#DejaVuSans-30"/>
      </g>
     </g>
    </g>
    <g id="xtick_2">
     <g id="line2d_3">
      <path d="M 106.987229 239.76 
L 106.987229 37.296 
" clip-path="url(#pd318f0f0e0)" style="fill: none; stroke-dasharray: 2.96,1.28; stroke-dashoffset: 0; stroke: #b0b0b0; stroke-opacity: 0.4; stroke-width: 0.8"/>
     </g>
     <g id="line2d_4">
      <g>
       <use xlink:href="#ma0b9208620" x="106.987229" y="239.76" style="stroke: #000000; stroke-width: 0.8"/>
      </g>
     </g>
     <g id="text_2">
      <!-- 200 -->
      <g transform="translate(97.443479 254.358437) scale(0.1 -0.1)">
       <defs>
        <path id="DejaVuSans-32" d="M 1228 531 
L 3431 531 
L 3431 0 
L 469 0 
L 469 531 
Q 828 903 1448 1529 
Q 2069 2156 2228 2338 
Q 2531 2678 2651 2914 
Q 2772 3150 2772 3378 
Q 2772 3750 2511 3984 
Q 2250 4219 1831 4219 
Q 1534 4219 1204 4116 
Q 875 4013 500 3803 
L 500 4441 
Q 881 4594 1212 4672 
Q 1544 4750 1819 4750 
Q 2544 4750 2975 4387 
Q 3406 4025 3406 3419 
Q 3406 3131 3298 2873 
Q 3191 2616 2906 2266 
Q 2828 2175 2409 1742 
Q 1991 1309 1228 531 
z
" transform="scale(0.015625)"/>
       </defs>
       <use xlink:href="#DejaVuSans-32"/>
       <use xlink:href="#DejaVuSans-30" x="63.623047"/>
       <use xlink:href="#DejaVuSans-30" x="127.246094"/>
      </g>
     </g>
    </g>
    <g id="xtick_3">
     <g id="line2d_5">
      <path d="M 157.765279 239.76 
L 157.765279 37.296 
" clip-path="url(#pd318f0f0e0)" style="fill: none; stroke-dasharray: 2.96,1.28; stroke-dashoffset: 0; stroke: #b0b0b0; stroke-opacity: 0.4; stroke-width: 0.8"/>
     </g>
     <g id="line2d_6">
      <g>
       <use xlink:href="#ma0b9208620" x="157.765279" y="239.76" style="stroke: #000000; stroke-width: 0.8"/>
      </g>
     </g>
     <g id="text_3">
      <!-- 400 -->
      <g transform="translate(148.221529 254.358437) scale(0.1 -0.1)">
       <defs>
        <path id="DejaVuSans-34" d="M 2419 4116 
L 825 1625 
L 2419 1625 
L 2419 4116 
z
M 2253 4666 
L 3047 4666 
L 3047 1625 
L 3713 1625 
L 3713 1100 
L 3047 1100 
L 3047 0 
L 2419 0 
L 2419 1100 
L 313 1100 
L 313 1709 
L 2253 4666 
z
" transform="scale(0.015625)"/>
       </defs>
       <use xlink:href="#DejaVuSans-34"/>
       <use xlink:href="#DejaVuSans-30" x="63.623047"/>
       <use xlink:href="#DejaVuSans-30" x="127.246094"/>
      </g>
     </g>
    </g>
    <g id="xtick_4">
     <g id="line2d_7">
      <path d="M 208.54333 239.76 
L 208.54333 37.296 
" clip-path="url(#pd318f0f0e0)" style="fill: none; stroke-dasharray: 2.96,1.28; stroke-dashoffset: 0; stroke: #b0b0b0; stroke-opacity: 0.4; stroke-width: 0.8"/>
     </g>
     <g id="line2d_8">
      <g>
       <use xlink:href="#ma0b9208620" x="208.54333" y="239.76" style="stroke: #000000; stroke-width: 0.8"/>
      </g>
     </g>
     <g id="text_4">
      <!-- 600 -->
      <g transform="translate(198.99958 254.358437) scale(0.1 -0.1)">
       <defs>
        <path id="DejaVuSans-36" d="M 2113 2584 
Q 1688 2584 1439 2293 
Q 1191 2003 1191 1497 
Q 1191 994 1439 701 
Q 1688 409 2113 409 
Q 2538 409 2786 701 
Q 3034 994 3034 1497 
Q 3034 2003 2786 2293 
Q 2538 2584 2113 2584 
z
M 3366 4563 
L 3366 3988 
Q 3128 4100 2886 4159 
Q 2644 4219 2406 4219 
Q 1781 4219 1451 3797 
Q 1122 3375 1075 2522 
Q 1259 2794 1537 2939 
Q 1816 3084 2150 3084 
Q 2853 3084 3261 2657 
Q 3669 2231 3669 1497 
Q 3669 778 3244 343 
Q 2819 -91 2113 -91 
Q 1303 -91 875 529 
Q 447 1150 447 2328 
Q 447 3434 972 4092 
Q 1497 4750 2381 4750 
Q 2619 4750 2861 4703 
Q 3103 4656 3366 4563 
z
" transform="scale(0.015625)"/>
       </defs>
       <use xlink:href="#DejaVuSans-36"/>
       <use xlink:href="#DejaVuSans-30" x="63.623047"/>
       <use xlink:href="#DejaVuSans-30" x="127.246094"/>
      </g>
     </g>
    </g>
    <g id="xtick_5">
     <g id="line2d_9">
      <path d="M 259.321381 239.76 
L 259.321381 37.296 
" clip-path="url(#pd318f0f0e0)" style="fill: none; stroke-dasharray: 2.96,1.28; stroke-dashoffset: 0; stroke: #b0b0b0; stroke-opacity: 0.4; stroke-width: 0.8"/>
     </g>
     <g id="line2d_10">
      <g>
       <use xlink:href="#ma0b9208620" x="259.321381" y="239.76" style="stroke: #000000; stroke-width: 0.8"/>
      </g>
     </g>
     <g id="text_5">
      <!-- 800 -->
      <g transform="translate(249.777631 254.358437) scale(0.1 -0.1)">
       <defs>
        <path id="DejaVuSans-38" d="M 2034 2216 
Q 1584 2216 1326 1975 
Q 1069 1734 1069 1313 
Q 1069 891 1326 650 
Q 1584 409 2034 409 
Q 2484 409 2743 651 
Q 3003 894 3003 1313 
Q 3003 1734 2745 1975 
Q 2488 2216 2034 2216 
z
M 1403 2484 
Q 997 2584 770 2862 
Q 544 3141 544 3541 
Q 544 4100 942 4425 
Q 1341 4750 2034 4750 
Q 2731 4750 3128 4425 
Q 3525 4100 3525 3541 
Q 3525 3141 3298 2862 
Q 3072 2584 2669 2484 
Q 3125 2378 3379 2068 
Q 3634 1759 3634 1313 
Q 3634 634 3220 271 
Q 2806 -91 2034 -91 
Q 1263 -91 848 271 
Q 434 634 434 1313 
Q 434 1759 690 2068 
Q 947 2378 1403 2484 
z
M 1172 3481 
Q 1172 3119 1398 2916 
Q 1625 2713 2034 2713 
Q 2441 2713 2670 2916 
Q 2900 3119 2900 3481 
Q 2900 3844 2670 4047 
Q 2441 4250 2034 4250 
Q 1625 4250 1398 4047 
Q 1172 3844 1172 3481 
z
" transform="scale(0.015625)"/>
       </defs>
       <use xlink:href="#DejaVuSans-38"/>
       <use xlink:href="#DejaVuSans-30" x="63.623047"/>
       <use xlink:href="#DejaVuSans-30" x="127.246094"/>
      </g>
     </g>
    </g>
    <g id="xtick_6">
     <g id="line2d_11">
      <path d="M 310.099432 239.76 
L 310.099432 37.296 
" clip-path="url(#pd318f0f0e0)" style="fill: none; stroke-dasharray: 2.96,1.28; stroke-dashoffset: 0; stroke: #b0b0b0; stroke-opacity: 0.4; stroke-width: 0.8"/>
     </g>
     <g id="line2d_12">
      <g>
       <use xlink:href="#ma0b9208620" x="310.099432" y="239.76" style="stroke: #000000; stroke-width: 0.8"/>
      </g>
     </g>
     <g id="text_6">
      <!-- 1000 -->
      <g transform="translate(297.374432 254.358437) scale(0.1 -0.1)">
       <defs>
        <path id="DejaVuSans-31" d="M 794 531 
L 1825 531 
L 1825 4091 
L 703 3866 
L 703 4441 
L 1819 4666 
L 2450 4666 
L 2450 531 
L 3481 531 
L 3481 0 
L 794 0 
L 794 531 
z
" transform="scale(0.015625)"/>
       </defs>
       <use xlink:href="#DejaVuSans-31"/>
       <use xlink:href="#DejaVuSans-30" x="63.623047"/>
       <use xlink:href="#DejaVuSans-30" x="127.246094"/>
       <use xlink:href="#DejaVuSans-30" x="190.869141"/>
      </g>
     </g>
    </g>
    <g id="text_7">
     <!-- Epochs -->
     <g transform="translate(165.365625 268.036562) scale(0.1 -0.1)">
      <defs>
       <path id="DejaVuSans-45" d="M 628 4666 
L 3578 4666 
L 3578 4134 
L 1259 4134 
L 1259 2753 
L 3481 2753 
L 3481 2222 
L 1259 2222 
L 1259 531 
L 3634 531 
L 3634 0 
L 628 0 
L 628 4666 
z
" transform="scale(0.015625)"/>
       <path id="DejaVuSans-70" d="M 1159 525 
L 1159 -1331 
L 581 -1331 
L 581 3500 
L 1159 3500 
L 1159 2969 
Q 1341 3281 1617 3432 
Q 1894 3584 2278 3584 
Q 2916 3584 3314 3078 
Q 3713 2572 3713 1747 
Q 3713 922 3314 415 
Q 2916 -91 2278 -91 
Q 1894 -91 1617 61 
Q 1341 213 1159 525 
z
M 3116 1747 
Q 3116 2381 2855 2742 
Q 2594 3103 2138 3103 
Q 1681 3103 1420 2742 
Q 1159 2381 1159 1747 
Q 1159 1113 1420 752 
Q 1681 391 2138 391 
Q 2594 391 2855 752 
Q 3116 1113 3116 1747 
z
" transform="scale(0.015625)"/>
       <path id="DejaVuSans-6f" d="M 1959 3097 
Q 1497 3097 1228 2736 
Q 959 2375 959 1747 
Q 959 1119 1226 758 
Q 1494 397 1959 397 
Q 2419 397 2687 759 
Q 2956 1122 2956 1747 
Q 2956 2369 2687 2733 
Q 2419 3097 1959 3097 
z
M 1959 3584 
Q 2709 3584 3137 3096 
Q 3566 2609 3566 1747 
Q 3566 888 3137 398 
Q 2709 -91 1959 -91 
Q 1206 -91 779 398 
Q 353 888 353 1747 
Q 353 2609 779 3096 
Q 1206 3584 1959 3584 
z
" transform="scale(0.015625)"/>
       <path id="DejaVuSans-63" d="M 3122 3366 
L 3122 2828 
Q 2878 2963 2633 3030 
Q 2388 3097 2138 3097 
Q 1578 3097 1268 2742 
Q 959 2388 959 1747 
Q 959 1106 1268 751 
Q 1578 397 2138 397 
Q 2388 397 2633 464 
Q 2878 531 3122 666 
L 3122 134 
Q 2881 22 2623 -34 
Q 2366 -91 2075 -91 
Q 1284 -91 818 406 
Q 353 903 353 1747 
Q 353 2603 823 3093 
Q 1294 3584 2113 3584 
Q 2378 3584 2631 3529 
Q 2884 3475 3122 3366 
z
" transform="scale(0.015625)"/>
       <path id="DejaVuSans-68" d="M 3513 2113 
L 3513 0 
L 2938 0 
L 2938 2094 
Q 2938 2591 2744 2837 
Q 2550 3084 2163 3084 
Q 1697 3084 1428 2787 
Q 1159 2491 1159 1978 
L 1159 0 
L 581 0 
L 581 4863 
L 1159 4863 
L 1159 2956 
Q 1366 3272 1645 3428 
Q 1925 3584 2291 3584 
Q 2894 3584 3203 3211 
Q 3513 2838 3513 2113 
z
" transform="scale(0.015625)"/>
       <path id="DejaVuSans-73" d="M 2834 3397 
L 2834 2853 
Q 2591 2978 2328 3040 
Q 2066 3103 1784 3103 
Q 1356 3103 1142 2972 
Q 928 2841 928 2578 
Q 928 2378 1081 2264 
Q 1234 2150 1697 2047 
L 1894 2003 
Q 2506 1872 2764 1633 
Q 3022 1394 3022 966 
Q 3022 478 2636 193 
Q 2250 -91 1575 -91 
Q 1294 -91 989 -36 
Q 684 19 347 128 
L 347 722 
Q 666 556 975 473 
Q 1284 391 1588 391 
Q 1994 391 2212 530 
Q 2431 669 2431 922 
Q 2431 1156 2273 1281 
Q 2116 1406 1581 1522 
L 1381 1569 
Q 847 1681 609 1914 
Q 372 2147 372 2553 
Q 372 3047 722 3315 
Q 1072 3584 1716 3584 
Q 2034 3584 2315 3537 
Q 2597 3491 2834 3397 
z
" transform="scale(0.015625)"/>
      </defs>
      <use xlink:href="#DejaVuSans-45"/>
      <use xlink:href="#DejaVuSans-70" x="63.183594"/>
      <use xlink:href="#DejaVuSans-6f" x="126.660156"/>
      <use xlink:href="#DejaVuSans-63" x="187.841797"/>
      <use xlink:href="#DejaVuSans-68" x="242.822266"/>
      <use xlink:href="#DejaVuSans-73" x="306.201172"/>
     </g>
    </g>
   </g>
   <g id="matplotlib.axis_2">
    <g id="ytick_1">
     <g id="line2d_13">
      <path d="M 43.78125 239.025712 
L 322.78125 239.025712 
" clip-path="url(#pd318f0f0e0)" style="fill: none; stroke-dasharray: 2.96,1.28; stroke-dashoffset: 0; stroke: #b0b0b0; stroke-opacity: 0.4; stroke-width: 0.8"/>
     </g>
     <g id="line2d_14">
      <defs>
       <path id="ma833ac6b87" d="M 0 0 
L -3.5 0 
" style="stroke: #000000; stroke-width: 0.8"/>
      </defs>
      <g>
       <use xlink:href="#ma833ac6b87" x="43.78125" y="239.025712" style="stroke: #000000; stroke-width: 0.8"/>
      </g>
     </g>
     <g id="text_8">
      <!-- 0.0 -->
      <g transform="translate(20.878125 242.824931) scale(0.1 -0.1)">
       <defs>
        <path id="DejaVuSans-2e" d="M 684 794 
L 1344 794 
L 1344 0 
L 684 0 
L 684 794 
z
" transform="scale(0.015625)"/>
       </defs>
       <use xlink:href="#DejaVuSans-30"/>
       <use xlink:href="#DejaVuSans-2e" x="63.623047"/>
       <use xlink:href="#DejaVuSans-30" x="95.410156"/>
      </g>
     </g>
    </g>
    <g id="ytick_2">
     <g id="line2d_15">
      <path d="M 43.78125 211.383881 
L 322.78125 211.383881 
" clip-path="url(#pd318f0f0e0)" style="fill: none; stroke-dasharray: 2.96,1.28; stroke-dashoffset: 0; stroke: #b0b0b0; stroke-opacity: 0.4; stroke-width: 0.8"/>
     </g>
     <g id="line2d_16">
      <g>
       <use xlink:href="#ma833ac6b87" x="43.78125" y="211.383881" style="stroke: #000000; stroke-width: 0.8"/>
      </g>
     </g>
     <g id="text_9">
      <!-- 0.1 -->
      <g transform="translate(20.878125 215.1831) scale(0.1 -0.1)">
       <use xlink:href="#DejaVuSans-30"/>
       <use xlink:href="#DejaVuSans-2e" x="63.623047"/>
       <use xlink:href="#DejaVuSans-31" x="95.410156"/>
      </g>
     </g>
    </g>
    <g id="ytick_3">
     <g id="line2d_17">
      <path d="M 43.78125 183.74205 
L 322.78125 183.74205 
" clip-path="url(#pd318f0f0e0)" style="fill: none; stroke-dasharray: 2.96,1.28; stroke-dashoffset: 0; stroke: #b0b0b0; stroke-opacity: 0.4; stroke-width: 0.8"/>
     </g>
     <g id="line2d_18">
      <g>
       <use xlink:href="#ma833ac6b87" x="43.78125" y="183.74205" style="stroke: #000000; stroke-width: 0.8"/>
      </g>
     </g>
     <g id="text_10">
      <!-- 0.2 -->
      <g transform="translate(20.878125 187.541269) scale(0.1 -0.1)">
       <use xlink:href="#DejaVuSans-30"/>
       <use xlink:href="#DejaVuSans-2e" x="63.623047"/>
       <use xlink:href="#DejaVuSans-32" x="95.410156"/>
      </g>
     </g>
    </g>
    <g id="ytick_4">
     <g id="line2d_19">
      <path d="M 43.78125 156.100219 
L 322.78125 156.100219 
" clip-path="url(#pd318f0f0e0)" style="fill: none; stroke-dasharray: 2.96,1.28; stroke-dashoffset: 0; stroke: #b0b0b0; stroke-opacity: 0.4; stroke-width: 0.8"/>
     </g>
     <g id="line2d_20">
      <g>
       <use xlink:href="#ma833ac6b87" x="43.78125" y="156.100219" style="stroke: #000000; stroke-width: 0.8"/>
      </g>
     </g>
     <g id="text_11">
      <!-- 0.3 -->
      <g transform="translate(20.878125 159.899438) scale(0.1 -0.1)">
       <defs>
        <path id="DejaVuSans-33" d="M 2597 2516 
Q 3050 2419 3304 2112 
Q 3559 1806 3559 1356 
Q 3559 666 3084 287 
Q 2609 -91 1734 -91 
Q 1441 -91 1130 -33 
Q 819 25 488 141 
L 488 750 
Q 750 597 1062 519 
Q 1375 441 1716 441 
Q 2309 441 2620 675 
Q 2931 909 2931 1356 
Q 2931 1769 2642 2001 
Q 2353 2234 1838 2234 
L 1294 2234 
L 1294 2753 
L 1863 2753 
Q 2328 2753 2575 2939 
Q 2822 3125 2822 3475 
Q 2822 3834 2567 4026 
Q 2313 4219 1838 4219 
Q 1578 4219 1281 4162 
Q 984 4106 628 3988 
L 628 4550 
Q 988 4650 1302 4700 
Q 1616 4750 1894 4750 
Q 2613 4750 3031 4423 
Q 3450 4097 3450 3541 
Q 3450 3153 3228 2886 
Q 3006 2619 2597 2516 
z
" transform="scale(0.015625)"/>
       </defs>
       <use xlink:href="#DejaVuSans-30"/>
       <use xlink:href="#DejaVuSans-2e" x="63.623047"/>
       <use xlink:href="#DejaVuSans-33" x="95.410156"/>
      </g>
     </g>
    </g>
    <g id="ytick_5">
     <g id="line2d_21">
      <path d="M 43.78125 128.458388 
L 322.78125 128.458388 
" clip-path="url(#pd318f0f0e0)" style="fill: none; stroke-dasharray: 2.96,1.28; stroke-dashoffset: 0; stroke: #b0b0b0; stroke-opacity: 0.4; stroke-width: 0.8"/>
     </g>
     <g id="line2d_22">
      <g>
       <use xlink:href="#ma833ac6b87" x="43.78125" y="128.458388" style="stroke: #000000; stroke-width: 0.8"/>
      </g>
     </g>
     <g id="text_12">
      <!-- 0.4 -->
      <g transform="translate(20.878125 132.257607) scale(0.1 -0.1)">
       <use xlink:href="#DejaVuSans-30"/>
       <use xlink:href="#DejaVuSans-2e" x="63.623047"/>
       <use xlink:href="#DejaVuSans-34" x="95.410156"/>
      </g>
     </g>
    </g>
    <g id="ytick_6">
     <g id="line2d_23">
      <path d="M 43.78125 100.816558 
L 322.78125 100.816558 
" clip-path="url(#pd318f0f0e0)" style="fill: none; stroke-dasharray: 2.96,1.28; stroke-dashoffset: 0; stroke: #b0b0b0; stroke-opacity: 0.4; stroke-width: 0.8"/>
     </g>
     <g id="line2d_24">
      <g>
       <use xlink:href="#ma833ac6b87" x="43.78125" y="100.816558" style="stroke: #000000; stroke-width: 0.8"/>
      </g>
     </g>
     <g id="text_13">
      <!-- 0.5 -->
      <g transform="translate(20.878125 104.615776) scale(0.1 -0.1)">
       <defs>
        <path id="DejaVuSans-35" d="M 691 4666 
L 3169 4666 
L 3169 4134 
L 1269 4134 
L 1269 2991 
Q 1406 3038 1543 3061 
Q 1681 3084 1819 3084 
Q 2600 3084 3056 2656 
Q 3513 2228 3513 1497 
Q 3513 744 3044 326 
Q 2575 -91 1722 -91 
Q 1428 -91 1123 -41 
Q 819 9 494 109 
L 494 744 
Q 775 591 1075 516 
Q 1375 441 1709 441 
Q 2250 441 2565 725 
Q 2881 1009 2881 1497 
Q 2881 1984 2565 2268 
Q 2250 2553 1709 2553 
Q 1456 2553 1204 2497 
Q 953 2441 691 2322 
L 691 4666 
z
" transform="scale(0.015625)"/>
       </defs>
       <use xlink:href="#DejaVuSans-30"/>
       <use xlink:href="#DejaVuSans-2e" x="63.623047"/>
       <use xlink:href="#DejaVuSans-35" x="95.410156"/>
      </g>
     </g>
    </g>
    <g id="ytick_7">
     <g id="line2d_25">
      <path d="M 43.78125 73.174727 
L 322.78125 73.174727 
" clip-path="url(#pd318f0f0e0)" style="fill: none; stroke-dasharray: 2.96,1.28; stroke-dashoffset: 0; stroke: #b0b0b0; stroke-opacity: 0.4; stroke-width: 0.8"/>
     </g>
     <g id="line2d_26">
      <g>
       <use xlink:href="#ma833ac6b87" x="43.78125" y="73.174727" style="stroke: #000000; stroke-width: 0.8"/>
      </g>
     </g>
     <g id="text_14">
      <!-- 0.6 -->
      <g transform="translate(20.878125 76.973945) scale(0.1 -0.1)">
       <use xlink:href="#DejaVuSans-30"/>
       <use xlink:href="#DejaVuSans-2e" x="63.623047"/>
       <use xlink:href="#DejaVuSans-36" x="95.410156"/>
      </g>
     </g>
    </g>
    <g id="ytick_8">
     <g id="line2d_27">
      <path d="M 43.78125 45.532896 
L 322.78125 45.532896 
" clip-path="url(#pd318f0f0e0)" style="fill: none; stroke-dasharray: 2.96,1.28; stroke-dashoffset: 0; stroke: #b0b0b0; stroke-opacity: 0.4; stroke-width: 0.8"/>
     </g>
     <g id="line2d_28">
      <g>
       <use xlink:href="#ma833ac6b87" x="43.78125" y="45.532896" style="stroke: #000000; stroke-width: 0.8"/>
      </g>
     </g>
     <g id="text_15">
      <!-- 0.7 -->
      <g transform="translate(20.878125 49.332115) scale(0.1 -0.1)">
       <defs>
        <path id="DejaVuSans-37" d="M 525 4666 
L 3525 4666 
L 3525 4397 
L 1831 0 
L 1172 0 
L 2766 4134 
L 525 4134 
L 525 4666 
z
" transform="scale(0.015625)"/>
       </defs>
       <use xlink:href="#DejaVuSans-30"/>
       <use xlink:href="#DejaVuSans-2e" x="63.623047"/>
       <use xlink:href="#DejaVuSans-37" x="95.410156"/>
      </g>
     </g>
    </g>
    <g id="text_16">
     <!-- Loss -->
     <g transform="translate(14.798438 149.495187) rotate(-90) scale(0.1 -0.1)">
      <defs>
       <path id="DejaVuSans-4c" d="M 628 4666 
L 1259 4666 
L 1259 531 
L 3531 531 
L 3531 0 
L 628 0 
L 628 4666 
z
" transform="scale(0.015625)"/>
      </defs>
      <use xlink:href="#DejaVuSans-4c"/>
      <use xlink:href="#DejaVuSans-6f" x="53.962891"/>
      <use xlink:href="#DejaVuSans-73" x="115.144531"/>
      <use xlink:href="#DejaVuSans-73" x="167.244141"/>
     </g>
    </g>
   </g>
   <g id="line2d_29">
    <path d="M 56.463068 46.498909 
L 56.716958 47.599362 
L 57.224739 48.194336 
L 57.478629 48.308744 
L 57.732519 48.866121 
L 57.98641 50.312994 
L 58.49419 56.160591 
L 59.001971 76.175312 
L 59.763641 121.208246 
L 60.017532 128.307279 
L 60.271422 130.897862 
L 60.525312 137.663935 
L 60.779202 139.170311 
L 61.033093 144.465152 
L 61.286983 139.930274 
L 61.540873 144.092996 
L 61.794764 144.632999 
L 62.048654 150.702788 
L 62.302544 151.562579 
L 62.556434 156.260707 
L 62.810325 154.068213 
L 63.318105 160.28789 
L 63.571995 164.325412 
L 64.333666 154.746538 
L 64.587556 162.173136 
L 64.841447 165.193498 
L 65.095337 161.852648 
L 65.349227 162.202331 
L 65.603117 168.468948 
L 65.857008 168.128385 
L 66.110898 172.736876 
L 66.364788 173.250308 
L 66.618678 170.243196 
L 66.872569 174.983329 
L 67.126459 172.826583 
L 67.380349 175.848832 
L 67.634239 176.987637 
L 67.88813 176.578315 
L 68.39591 178.676749 
L 68.6498 176.191282 
L 68.903691 180.022473 
L 69.157581 181.399374 
L 69.411471 178.546146 
L 69.665361 178.846454 
L 69.919252 183.195238 
L 70.173142 184.70656 
L 70.427032 185.216445 
L 70.680922 183.053282 
L 70.934813 183.296778 
L 71.188703 185.778398 
L 71.442593 180.010063 
L 71.696483 184.086979 
L 72.204264 188.399157 
L 72.458154 187.350521 
L 72.712044 190.578553 
L 72.965935 188.994622 
L 73.219825 188.727499 
L 73.473715 190.846594 
L 73.727605 191.630773 
L 73.981496 191.434331 
L 74.235386 193.890109 
L 74.489276 193.786027 
L 74.743166 195.040591 
L 74.997057 191.853682 
L 75.250947 196.280441 
L 75.504837 191.407793 
L 75.758727 194.881451 
L 76.012618 196.315065 
L 76.520398 188.953378 
L 76.774288 191.096371 
L 77.028179 196.685108 
L 77.282069 193.626974 
L 77.535959 193.117394 
L 77.78985 193.25196 
L 78.04374 194.444113 
L 78.29763 196.815563 
L 78.55152 203.780648 
L 78.805411 205.797459 
L 79.059301 204.862928 
L 79.313191 206.942602 
L 79.567081 203.395983 
L 79.820972 209.094327 
L 80.074862 208.369181 
L 80.328752 208.03602 
L 80.582642 208.772379 
L 80.836533 208.292182 
L 81.344313 209.32081 
L 81.598203 209.349054 
L 81.852094 210.163443 
L 82.105984 210.481436 
L 82.359874 211.692048 
L 82.613764 210.728415 
L 82.867655 213.439115 
L 83.121545 213.040157 
L 83.375435 211.222459 
L 83.629325 212.222784 
L 83.883216 212.227152 
L 84.137106 211.239787 
L 84.390996 212.334745 
L 84.644886 212.704378 
L 85.152667 210.713286 
L 85.660447 212.042629 
L 85.914338 213.68194 
L 86.168228 214.264325 
L 86.422118 213.41643 
L 86.676008 213.533999 
L 86.929899 210.09644 
L 87.183789 210.348015 
L 87.437679 213.903043 
L 87.691569 214.436435 
L 87.94546 214.26494 
L 88.19935 215.523374 
L 88.45324 214.384007 
L 88.70713 214.614765 
L 89.214911 209.178333 
L 89.468801 214.955442 
L 89.722691 211.01974 
L 89.976582 218.085264 
L 90.230472 216.766877 
L 90.484362 214.844541 
L 90.738252 214.738287 
L 90.992143 214.087836 
L 91.499923 220.230623 
L 91.753813 219.712294 
L 92.007704 220.574871 
L 92.261594 219.0812 
L 92.769374 221.826947 
L 93.023265 221.91938 
L 93.531045 218.760692 
L 93.784936 221.381271 
L 94.038826 219.882444 
L 94.292716 221.612363 
L 94.546606 218.867365 
L 94.800497 219.433752 
L 95.054387 220.567708 
L 95.562167 218.101649 
L 95.816058 222.241179 
L 96.069948 221.539066 
L 96.323838 222.631732 
L 96.577728 221.203067 
L 96.831619 222.969947 
L 97.085509 221.58703 
L 97.593289 223.214169 
L 97.84718 221.535905 
L 98.10107 221.520735 
L 98.35496 223.593847 
L 98.60885 220.903716 
L 98.862741 222.063836 
L 99.370521 221.490926 
L 99.624411 222.463612 
L 100.132192 221.074897 
L 100.386082 221.680629 
L 100.893863 222.45786 
L 101.147753 222.969485 
L 101.401643 221.958879 
L 101.655533 221.773456 
L 101.909424 222.937129 
L 102.163314 220.176387 
L 102.417204 220.225318 
L 102.671094 224.882051 
L 102.924985 220.788041 
L 103.178875 222.696363 
L 103.432765 220.970657 
L 103.686655 223.192968 
L 103.940546 224.236924 
L 104.448326 224.429581 
L 104.702216 225.125804 
L 104.956107 225.313123 
L 105.209997 223.549385 
L 105.463887 224.886667 
L 105.717777 224.647592 
L 105.971668 225.843494 
L 106.225558 224.839834 
L 106.479448 225.264598 
L 106.733338 224.443749 
L 106.987229 221.359702 
L 107.241119 222.465769 
L 107.495009 224.718728 
L 107.748899 225.687201 
L 108.00279 225.669916 
L 108.76446 224.484484 
L 109.018351 224.654101 
L 109.272241 225.970556 
L 109.526131 225.068231 
L 109.780021 224.863992 
L 110.033912 225.459162 
L 110.287802 225.094093 
L 110.541692 227.512807 
L 110.795583 224.666246 
L 111.049473 224.356825 
L 111.303363 223.559176 
L 111.557253 224.901646 
L 111.811144 225.50305 
L 112.065034 225.615864 
L 112.318924 226.388611 
L 112.572814 226.133423 
L 112.826705 225.091459 
L 113.080595 227.707409 
L 113.334485 225.902736 
L 113.588375 225.853401 
L 113.842266 225.277783 
L 114.096156 226.011658 
L 114.350046 225.536647 
L 114.603936 226.492829 
L 114.857827 225.051235 
L 115.111717 226.466783 
L 115.365607 224.600946 
L 115.873388 226.269272 
L 116.127278 226.754818 
L 116.381168 226.709287 
L 116.635058 225.925241 
L 116.888949 226.813436 
L 117.142839 225.65602 
L 117.396729 227.194197 
L 117.650619 227.787085 
L 117.90451 227.131063 
L 118.1584 227.401328 
L 118.41229 227.968336 
L 118.66618 225.883245 
L 118.920071 226.545175 
L 119.173961 227.556348 
L 119.427851 227.103078 
L 119.681741 227.461505 
L 120.189522 227.59324 
L 120.443412 226.756657 
L 120.697302 226.674366 
L 120.951193 228.005415 
L 121.205083 225.183663 
L 121.458973 227.859389 
L 121.712863 227.827462 
L 121.966754 227.281932 
L 122.220644 227.470117 
L 122.474534 228.917519 
L 122.728424 226.885033 
L 122.982315 228.353324 
L 123.236205 226.38096 
L 123.490095 226.808063 
L 123.743985 226.299125 
L 123.997876 228.116571 
L 124.251766 227.275942 
L 124.505656 227.795944 
L 124.759546 227.165714 
L 125.013437 227.95278 
L 125.267327 227.885686 
L 125.521217 228.300598 
L 125.775107 227.533891 
L 126.028998 227.627689 
L 126.282888 228.497684 
L 126.536778 227.265383 
L 126.790669 226.600125 
L 127.044559 228.717936 
L 127.298449 225.906234 
L 127.552339 227.368506 
L 127.80623 226.205619 
L 128.06012 228.228567 
L 128.31401 228.121271 
L 128.5679 227.481379 
L 128.821791 228.793697 
L 129.075681 227.547369 
L 129.329571 228.511276 
L 129.583461 227.949363 
L 129.837352 227.976577 
L 130.091242 227.739586 
L 130.345132 228.899664 
L 130.599022 228.436395 
L 130.852913 227.31977 
L 131.360693 226.626445 
L 131.614583 227.124849 
L 131.868474 228.138664 
L 132.122364 226.515216 
L 132.376254 226.924697 
L 132.884035 228.513381 
L 133.137925 226.968739 
L 133.645705 228.142944 
L 133.899596 227.737538 
L 134.153486 227.857184 
L 134.407376 228.474916 
L 134.661266 228.515072 
L 134.915157 228.988861 
L 135.169047 228.978321 
L 135.422937 227.570635 
L 135.676827 227.693328 
L 135.930718 228.738991 
L 136.184608 227.975807 
L 136.438498 229.150972 
L 136.692388 227.587092 
L 136.946279 227.94161 
L 137.200169 228.952793 
L 137.707949 227.554892 
L 137.96184 226.102365 
L 138.21573 228.075161 
L 138.72351 228.169499 
L 138.977401 227.972951 
L 139.231291 227.074818 
L 139.739071 228.988983 
L 139.992962 227.391863 
L 140.246852 229.636081 
L 140.500742 227.646526 
L 140.754632 228.516835 
L 141.008523 228.311388 
L 141.262413 227.532654 
L 141.516303 228.126884 
L 141.770193 229.99724 
L 142.277974 228.291503 
L 142.531864 228.418569 
L 142.785755 229.436229 
L 143.039645 228.033134 
L 143.293535 228.111681 
L 143.547425 227.857786 
L 143.801316 228.130612 
L 144.055206 227.732812 
L 144.562986 229.955035 
L 144.816877 228.35826 
L 145.324657 229.71113 
L 145.578547 228.315678 
L 145.832438 229.058171 
L 146.086328 228.64089 
L 146.340218 227.740198 
L 146.594108 230.557091 
L 146.847999 228.150346 
L 147.101889 229.17406 
L 147.355779 228.65759 
L 147.609669 227.000883 
L 147.86356 226.898965 
L 148.11745 229.006401 
L 148.37134 227.270473 
L 148.62523 227.208394 
L 148.879121 229.901282 
L 149.133011 226.788993 
L 149.640791 229.365145 
L 150.148572 226.758313 
L 150.402462 228.825358 
L 150.656352 229.543708 
L 150.910243 228.234571 
L 151.164133 229.712793 
L 151.418023 228.561219 
L 151.671913 229.849008 
L 152.179694 227.689102 
L 152.433584 228.975088 
L 152.687474 228.351013 
L 152.941365 228.665868 
L 153.195255 227.168135 
L 153.449145 228.704775 
L 153.703035 227.72927 
L 154.210816 228.630001 
L 154.464706 228.02023 
L 154.718596 227.753397 
L 154.972487 228.362475 
L 155.226377 229.289612 
L 155.480267 229.088951 
L 155.734157 228.399911 
L 155.988048 229.799373 
L 156.241938 229.138507 
L 156.495828 227.528595 
L 156.749718 228.839926 
L 157.003609 228.981061 
L 157.257499 228.148546 
L 157.511389 228.953585 
L 158.01917 227.990094 
L 158.27306 228.093249 
L 158.52695 228.810598 
L 158.78084 228.226527 
L 159.034731 229.297702 
L 159.288621 228.794436 
L 159.542511 229.399387 
L 159.796402 228.234719 
L 160.050292 228.925138 
L 160.304182 226.997515 
L 160.558072 228.664006 
L 160.811963 228.717627 
L 161.065853 229.435346 
L 161.573633 228.272935 
L 161.827524 228.613504 
L 162.081414 228.719835 
L 162.335304 228.69892 
L 162.589194 229.283152 
L 163.096975 227.721408 
L 163.858646 229.507626 
L 164.112536 229.157353 
L 164.620316 229.903258 
L 164.874207 229.507677 
L 165.128097 227.600213 
L 165.635877 229.149258 
L 165.889768 228.811499 
L 166.143658 227.604724 
L 166.397548 229.592661 
L 166.651438 229.319158 
L 166.905329 227.664792 
L 167.159219 229.621923 
L 167.413109 228.74466 
L 167.666999 228.98473 
L 167.92089 228.347584 
L 168.17478 228.639644 
L 168.42867 228.142653 
L 168.68256 228.471741 
L 168.936451 226.808299 
L 169.190341 229.453126 
L 169.444231 228.519274 
L 169.698121 229.301476 
L 169.952012 228.941102 
L 170.205902 228.36497 
L 170.459792 228.565062 
L 170.713682 228.275019 
L 170.967573 228.754659 
L 171.221463 228.699811 
L 171.475353 229.968794 
L 171.729243 227.020737 
L 172.237024 229.475642 
L 172.490914 228.995548 
L 172.744804 229.025134 
L 172.998695 228.049556 
L 173.252585 228.797962 
L 173.506475 227.967552 
L 173.760365 229.784937 
L 174.268146 228.785781 
L 174.522036 227.707401 
L 174.775926 227.625748 
L 175.029817 229.250054 
L 175.283707 229.734191 
L 175.537597 228.036366 
L 175.791488 230.080526 
L 176.045378 227.365877 
L 176.299268 228.976252 
L 176.553158 229.140723 
L 176.807049 227.592023 
L 177.060939 228.688709 
L 177.314829 227.789294 
L 177.568719 227.787636 
L 177.82261 228.874141 
L 178.58428 228.176347 
L 178.838171 229.121646 
L 179.092061 228.734444 
L 179.345951 229.154715 
L 179.599841 228.400595 
L 179.853732 229.189582 
L 180.107622 226.392051 
L 180.361512 229.136578 
L 180.615402 229.09901 
L 180.869293 229.830952 
L 181.123183 228.265647 
L 181.377073 229.054645 
L 181.630963 228.81984 
L 181.884854 230.357296 
L 182.392634 227.553899 
L 182.900415 229.436472 
L 183.154305 228.539138 
L 183.662085 228.232153 
L 183.915976 228.495767 
L 184.169866 228.541641 
L 184.423756 227.968425 
L 184.677646 229.493018 
L 184.931537 227.724486 
L 185.185427 227.536082 
L 185.439317 228.594866 
L 185.693207 228.126368 
L 186.200988 229.042412 
L 186.454878 228.82007 
L 186.708768 229.371065 
L 186.962659 228.785233 
L 187.216549 229.039321 
L 187.470439 228.335514 
L 187.724329 229.292119 
L 187.97822 229.385662 
L 188.23211 228.622712 
L 188.486 230.438655 
L 188.73989 228.240812 
L 188.993781 229.778044 
L 189.247671 228.399206 
L 189.755451 228.27572 
L 190.009342 228.852467 
L 190.263232 228.545096 
L 190.517122 228.895215 
L 190.771012 227.403249 
L 191.024903 230.119104 
L 191.278793 227.247942 
L 191.532683 229.146902 
L 191.786574 228.867192 
L 192.040464 229.159488 
L 192.294354 228.989032 
L 192.802135 228.074193 
L 193.056025 228.275847 
L 193.309915 228.949681 
L 193.563805 226.483941 
L 193.817696 228.05522 
L 194.071586 228.395954 
L 194.325476 229.261885 
L 194.833257 228.133367 
L 195.087147 229.202907 
L 195.341037 229.547531 
L 195.594927 227.847279 
L 195.848818 227.383598 
L 196.102708 228.784929 
L 196.356598 228.855162 
L 196.610488 229.606625 
L 197.118269 228.637862 
L 197.626049 229.478297 
L 197.87994 227.783436 
L 198.13383 228.86144 
L 198.38772 229.338922 
L 198.64161 228.177953 
L 198.895501 229.714615 
L 199.149391 227.300411 
L 199.403281 228.522051 
L 199.657171 229.084385 
L 199.911062 229.079804 
L 200.164952 228.860656 
L 200.418842 229.010013 
L 200.672732 228.61416 
L 200.926623 229.482295 
L 201.180513 229.700086 
L 201.942184 228.43666 
L 202.196074 229.616268 
L 202.449964 229.022829 
L 202.703854 229.435637 
L 202.957745 230.06315 
L 203.211635 230.095289 
L 203.465525 229.39082 
L 203.719415 228.230284 
L 203.973306 229.028774 
L 204.481086 228.600112 
L 204.734976 228.992334 
L 205.496647 227.835037 
L 205.750537 227.70703 
L 206.004428 229.307299 
L 206.258318 229.459984 
L 206.512208 228.360771 
L 206.766098 229.487161 
L 207.019989 227.659471 
L 207.273879 228.485447 
L 207.527769 230.011353 
L 207.78166 227.960304 
L 208.03555 228.947895 
L 208.54333 227.385206 
L 208.797221 229.264176 
L 209.051111 229.505501 
L 209.558891 228.141636 
L 210.066672 230.307389 
L 210.320562 228.727579 
L 210.828343 227.676453 
L 211.082233 229.116016 
L 211.336123 229.104665 
L 211.590013 229.773227 
L 211.843904 228.634573 
L 212.351684 230.072272 
L 213.113355 227.825578 
L 213.367245 229.51045 
L 213.621135 230.211633 
L 213.875026 228.53574 
L 214.128916 229.413864 
L 214.382806 229.251204 
L 214.636696 230.07617 
L 214.890587 228.660181 
L 215.144477 228.833011 
L 215.398367 228.219309 
L 215.652257 229.279839 
L 216.160038 228.262309 
L 216.413928 228.944794 
L 216.667818 228.333443 
L 216.921709 228.087563 
L 217.175599 229.18803 
L 217.429489 228.38404 
L 217.683379 228.328704 
L 217.93727 228.609578 
L 218.19116 228.567495 
L 218.44505 229.725741 
L 218.69894 228.750177 
L 218.952831 228.604552 
L 219.206721 229.657038 
L 219.460611 228.955816 
L 219.714501 228.738291 
L 219.968392 228.330819 
L 220.222282 228.189666 
L 220.476172 230.23348 
L 220.730062 228.797643 
L 220.983953 228.872664 
L 221.237843 227.054144 
L 221.491733 228.047334 
L 221.745623 227.619907 
L 221.999514 228.151313 
L 222.253404 230.092168 
L 222.507294 227.839961 
L 222.761184 228.472446 
L 223.015075 228.164746 
L 223.522855 228.724285 
L 223.776745 229.493966 
L 224.030636 228.147209 
L 224.284526 228.762111 
L 224.792307 226.644867 
L 225.046197 228.377297 
L 225.300087 229.283652 
L 225.553977 228.121128 
L 226.061758 229.682597 
L 226.315648 228.689916 
L 226.569538 229.750266 
L 227.077319 227.784374 
L 227.331209 228.397677 
L 227.585099 227.956751 
L 227.83899 228.016106 
L 228.09288 228.645081 
L 228.34677 230.497417 
L 228.60066 228.11058 
L 228.854551 229.111048 
L 229.108441 229.351192 
L 229.362331 228.293965 
L 229.616221 228.73115 
L 229.870112 229.511264 
L 230.124002 229.870239 
L 230.377892 229.42352 
L 230.631782 226.971875 
L 230.885673 226.8636 
L 231.139563 229.702463 
L 231.393453 229.173085 
L 231.647343 228.996107 
L 232.155124 228.241923 
L 232.409014 229.027115 
L 232.916795 228.332562 
L 233.170685 228.625025 
L 233.424575 228.11172 
L 233.678465 229.364876 
L 234.186246 229.183159 
L 234.440136 229.051047 
L 234.694026 229.342032 
L 234.947917 230.219097 
L 235.201807 228.916662 
L 235.455697 226.862908 
L 235.709587 228.994255 
L 235.963478 229.734429 
L 236.217368 228.608947 
L 236.471258 228.473903 
L 236.725148 228.639936 
L 236.979039 228.258531 
L 237.232929 229.386066 
L 237.486819 229.063952 
L 237.740709 229.10434 
L 237.9946 228.672129 
L 238.24849 229.850418 
L 238.50238 229.832191 
L 238.75627 229.391932 
L 239.010161 228.593038 
L 239.264051 228.250929 
L 239.517941 229.573961 
L 239.771831 229.420911 
L 240.279612 229.580385 
L 240.533502 228.508454 
L 240.787393 229.488049 
L 241.041283 228.857862 
L 241.295173 227.307452 
L 241.549063 228.442089 
L 241.802954 228.907882 
L 242.056844 229.004283 
L 242.310734 227.963844 
L 242.564624 228.266681 
L 242.818515 227.879366 
L 243.326295 229.909906 
L 243.580185 227.389535 
L 243.834076 228.605035 
L 244.087966 228.916585 
L 244.341856 228.721888 
L 244.595746 228.691413 
L 244.849637 227.562942 
L 245.103527 228.423143 
L 245.611307 227.079595 
L 246.119088 229.35856 
L 246.372978 227.532117 
L 246.626868 227.917425 
L 246.880759 228.092993 
L 247.134649 229.9199 
L 247.642429 226.984196 
L 248.15021 228.470387 
L 248.4041 228.623198 
L 248.65799 229.416815 
L 248.911881 228.639381 
L 249.165771 229.128216 
L 249.419661 226.970514 
L 249.673551 227.529537 
L 249.927442 228.734465 
L 250.181332 228.648508 
L 250.435222 229.104382 
L 250.689112 229.280731 
L 250.943003 228.69452 
L 251.196893 229.611066 
L 251.450783 229.368298 
L 251.704673 228.914393 
L 251.958564 228.939027 
L 252.212454 228.585515 
L 252.466344 229.941343 
L 252.720234 227.85757 
L 252.974125 228.879653 
L 253.228015 228.341782 
L 253.481905 229.21732 
L 253.735795 229.376491 
L 253.989686 228.415988 
L 254.243576 229.502604 
L 254.497466 228.759965 
L 254.751356 229.208412 
L 255.005247 228.880316 
L 255.513027 230.54237 
L 255.766917 227.395869 
L 256.020808 229.245329 
L 256.528588 229.537463 
L 256.782479 228.995142 
L 257.290259 229.021067 
L 257.544149 228.502607 
L 257.79804 229.850204 
L 258.30582 228.653382 
L 258.55971 228.667845 
L 258.813601 227.542012 
L 259.067491 227.640603 
L 259.321381 229.830341 
L 259.575271 228.766113 
L 259.829162 228.928618 
L 260.083052 227.926381 
L 260.336942 229.459357 
L 260.590832 229.098722 
L 260.844723 229.328255 
L 261.098613 228.446665 
L 261.352503 228.665117 
L 261.606393 227.70042 
L 261.860284 229.03358 
L 262.114174 229.063583 
L 262.368064 228.841507 
L 262.621954 229.215823 
L 262.875845 228.840052 
L 263.129735 229.680862 
L 263.383625 228.574912 
L 263.637515 229.150417 
L 263.891406 227.520126 
L 264.145296 228.708708 
L 264.399186 227.284737 
L 264.653076 228.652155 
L 264.906967 228.412319 
L 265.160857 228.593454 
L 265.414747 228.372351 
L 265.668637 229.065929 
L 265.922528 229.230887 
L 266.176418 228.48752 
L 266.430308 229.762331 
L 266.684198 228.245358 
L 266.938089 229.055566 
L 267.191979 228.917319 
L 267.445869 229.180787 
L 267.699759 227.568241 
L 267.95365 228.931484 
L 268.46143 230.142756 
L 268.969211 228.266915 
L 269.223101 228.35028 
L 269.476991 230.121156 
L 269.730881 228.271091 
L 269.984772 228.563348 
L 270.238662 228.240508 
L 270.492552 227.531598 
L 270.746442 229.205866 
L 271.000333 229.403338 
L 271.508113 227.98405 
L 271.762003 229.715188 
L 272.015894 229.353362 
L 272.269784 228.14322 
L 272.523674 228.416618 
L 272.777564 229.005181 
L 273.031455 229.253585 
L 273.285345 228.625106 
L 273.539235 228.665737 
L 273.793126 229.918488 
L 274.047016 228.765776 
L 274.300906 228.289279 
L 274.554796 228.895313 
L 274.808687 227.796371 
L 275.062577 228.471824 
L 275.316467 227.505115 
L 275.570357 228.852429 
L 275.824248 226.421987 
L 276.078138 228.746342 
L 276.332028 228.192592 
L 276.585918 230.396904 
L 276.839809 228.699263 
L 277.093699 230.201114 
L 277.347589 228.528781 
L 277.601479 229.361548 
L 277.85537 229.098745 
L 278.36315 229.744623 
L 278.870931 227.525319 
L 279.378711 229.868543 
L 279.632601 228.506091 
L 279.886492 228.318235 
L 280.140382 228.772702 
L 280.394272 228.86439 
L 280.648162 227.347691 
L 280.902053 229.670866 
L 281.155943 228.924068 
L 281.409833 228.706913 
L 281.663723 227.996336 
L 282.171504 228.749602 
L 282.425394 229.360552 
L 282.679284 228.284097 
L 283.187065 228.507062 
L 283.440955 230.094459 
L 283.694845 228.639402 
L 283.948736 228.499657 
L 284.202626 229.405871 
L 284.456516 228.38549 
L 284.710406 229.381307 
L 284.964297 227.908195 
L 285.218187 229.509058 
L 285.472077 228.384384 
L 285.725967 228.985126 
L 285.979858 228.667363 
L 286.233748 230.073874 
L 286.487638 229.117424 
L 286.741528 230.197303 
L 286.995419 228.332824 
L 287.249309 229.279176 
L 287.757089 230.000412 
L 288.01098 228.380977 
L 288.26487 228.479102 
L 288.77265 229.997779 
L 289.026541 227.034689 
L 289.280431 227.512648 
L 289.534321 228.989147 
L 289.788212 228.869304 
L 290.042102 230.22921 
L 290.295992 230.430941 
L 290.549882 227.983868 
L 290.803773 227.505463 
L 291.057663 228.884449 
L 291.311553 228.047369 
L 291.819334 229.694537 
L 292.581004 228.273067 
L 292.834895 228.652862 
L 293.088785 229.561495 
L 293.342675 228.804546 
L 293.596565 227.190056 
L 293.850456 229.700389 
L 294.104346 228.246233 
L 294.358236 230.021441 
L 294.612126 226.861124 
L 295.119907 229.563305 
L 295.627687 229.193561 
L 296.135468 228.163792 
L 296.389358 227.875298 
L 296.643248 226.934809 
L 296.897139 229.439393 
L 297.151029 228.559107 
L 297.404919 228.340901 
L 297.658809 229.540948 
L 297.9127 228.976816 
L 298.16659 229.196146 
L 298.42048 228.578324 
L 298.928261 229.887181 
L 299.182151 229.21323 
L 299.436041 228.015393 
L 299.689931 229.251255 
L 299.943822 229.313229 
L 300.197712 229.191881 
L 300.451602 228.934395 
L 300.705492 229.328806 
L 300.959383 227.904564 
L 301.213273 228.874755 
L 301.467163 229.048901 
L 301.721053 228.200147 
L 301.974944 229.108688 
L 302.228834 227.871885 
L 302.482724 229.153841 
L 302.736614 229.481147 
L 302.990505 228.481481 
L 303.244395 229.156764 
L 303.498285 228.755195 
L 303.752175 229.119899 
L 304.006066 230.341353 
L 304.259956 228.785348 
L 304.513846 229.998625 
L 304.767736 229.047673 
L 305.021627 229.277162 
L 305.529407 227.911581 
L 305.783298 229.578442 
L 306.037188 229.083552 
L 306.291078 228.131313 
L 306.544968 228.412794 
L 306.798859 229.837408 
L 307.052749 229.183461 
L 307.306639 228.958651 
L 307.560529 229.628111 
L 307.81442 228.93127 
L 308.06831 228.606372 
L 308.3222 228.965234 
L 308.57609 229.539593 
L 308.829981 229.086786 
L 309.083871 227.100349 
L 309.591651 229.668705 
L 310.099432 228.386795 
L 310.099432 228.386795 
" clip-path="url(#pd318f0f0e0)" style="fill: none; stroke: #0000ff; stroke-width: 0.6; stroke-linecap: square"/>
   </g>
   <g id="line2d_30">
    <path d="M 56.463068 47.786066 
L 56.716958 47.719437 
L 56.970849 48.375669 
L 57.224739 48.529652 
L 57.478629 48.313852 
L 57.732519 50.142997 
L 57.98641 51.063979 
L 58.2403 54.797349 
L 58.49419 62.214431 
L 59.255861 101.471084 
L 59.509751 128.175077 
L 59.763641 132.158987 
L 60.017532 128.253337 
L 60.271422 141.130925 
L 60.525312 148.294148 
L 60.779202 142.583466 
L 61.033093 84.814785 
L 61.286983 143.931797 
L 61.794764 150.528392 
L 62.048654 144.444994 
L 62.302544 151.087144 
L 62.556434 149.710878 
L 62.810325 155.636727 
L 63.064215 151.969177 
L 63.318105 152.22143 
L 63.571995 150.2788 
L 63.825886 133.489681 
L 64.079776 156.875667 
L 64.333666 147.153198 
L 64.587556 155.436101 
L 64.841447 139.885378 
L 65.095337 134.974572 
L 65.349227 156.039923 
L 65.603117 158.54166 
L 65.857008 153.723044 
L 66.110898 144.957523 
L 66.618678 154.930829 
L 66.872569 151.047141 
L 67.126459 156.308363 
L 67.380349 154.488774 
L 67.88813 156.128554 
L 68.14202 154.704896 
L 68.39591 130.410392 
L 68.6498 150.844933 
L 68.903691 141.362155 
L 69.157581 150.34219 
L 69.411471 153.051935 
L 69.665361 150.936341 
L 69.919252 154.025359 
L 70.173142 143.629227 
L 70.427032 150.686271 
L 70.680922 148.335897 
L 70.934813 137.785543 
L 71.188703 147.750874 
L 71.442593 142.871216 
L 71.696483 131.12611 
L 71.950374 146.151666 
L 72.204264 140.560548 
L 72.458154 140.598253 
L 72.712044 135.539082 
L 72.965935 144.92944 
L 73.219825 145.146344 
L 73.473715 141.682263 
L 73.727605 112.491427 
L 73.981496 131.234908 
L 74.235386 137.243761 
L 74.489276 137.086046 
L 74.743166 127.852069 
L 74.997057 134.852931 
L 75.250947 137.464298 
L 75.504837 132.684911 
L 75.758727 132.006305 
L 76.012618 125.313887 
L 76.266508 124.921441 
L 76.774288 127.198753 
L 77.028179 124.17909 
L 77.282069 125.380169 
L 77.535959 132.464555 
L 77.78985 130.037437 
L 78.04374 130.357892 
L 78.29763 125.459294 
L 78.55152 126.061263 
L 78.805411 127.890424 
L 79.059301 126.48886 
L 79.313191 126.770464 
L 79.567081 122.612265 
L 79.820972 125.568183 
L 80.074862 127.117181 
L 80.582642 122.127077 
L 80.836533 124.866124 
L 81.090423 118.087331 
L 81.598203 122.526327 
L 81.852094 118.028347 
L 82.105984 120.985212 
L 82.613764 115.467561 
L 82.867655 118.552031 
L 83.121545 115.945483 
L 83.375435 115.941628 
L 83.629325 102.306688 
L 83.883216 115.641059 
L 84.137106 122.873992 
L 84.390996 117.284629 
L 84.644886 116.725646 
L 84.898777 117.376094 
L 85.152667 119.182758 
L 85.406557 108.413375 
L 85.660447 111.982415 
L 85.914338 110.838837 
L 86.168228 110.455371 
L 86.676008 103.180236 
L 86.929899 108.921596 
L 87.183789 109.580307 
L 87.437679 108.181939 
L 87.691569 103.52346 
L 88.19935 109.99287 
L 88.45324 106.189346 
L 88.70713 108.283932 
L 88.961021 108.22719 
L 89.214911 112.038878 
L 89.468801 112.103702 
L 89.976582 90.281477 
L 90.230472 94.642081 
L 90.484362 103.644079 
L 90.992143 89.257356 
L 91.499923 98.530522 
L 91.753813 98.732252 
L 92.007704 96.313108 
L 92.261594 97.387743 
L 92.515484 91.81984 
L 92.769374 93.143309 
L 93.023265 91.012278 
L 93.277155 91.355074 
L 93.531045 93.16397 
L 93.784936 89.861261 
L 94.038826 88.481049 
L 94.546606 92.785092 
L 94.800497 92.225441 
L 95.054387 94.294128 
L 95.308277 90.59801 
L 95.562167 84.190252 
L 96.069948 89.058543 
L 96.323838 88.16244 
L 96.577728 90.047026 
L 97.085509 86.589807 
L 97.339399 93.215144 
L 97.593289 88.579228 
L 97.84718 87.943179 
L 98.10107 84.373546 
L 98.35496 85.271807 
L 98.862741 87.761138 
L 99.116631 84.813565 
L 99.370521 83.212347 
L 99.624411 78.725472 
L 99.878302 87.587154 
L 100.132192 85.705253 
L 100.639972 75.322672 
L 100.893863 83.124761 
L 101.147753 81.854641 
L 101.655533 85.868644 
L 101.909424 81.986002 
L 102.163314 73.519954 
L 102.417204 79.20327 
L 102.671094 78.348686 
L 102.924985 79.206598 
L 103.178875 84.170086 
L 103.432765 84.428591 
L 103.686655 82.492881 
L 103.940546 86.086289 
L 104.194436 86.308943 
L 104.448326 83.042596 
L 104.702216 84.213104 
L 104.956107 80.284479 
L 105.209997 83.100871 
L 105.463887 82.760893 
L 105.717777 81.216598 
L 105.971668 82.791703 
L 106.225558 83.501184 
L 106.479448 78.567254 
L 106.733338 82.598639 
L 106.987229 78.221509 
L 107.241119 79.557995 
L 107.495009 75.437492 
L 107.748899 76.409318 
L 108.00279 82.158241 
L 108.25668 78.86835 
L 108.51057 79.892552 
L 109.018351 75.822812 
L 109.272241 76.296838 
L 109.526131 78.666538 
L 109.780021 78.296145 
L 110.033912 79.781851 
L 110.287802 77.609466 
L 110.541692 78.138307 
L 110.795583 76.197208 
L 111.049473 71.284054 
L 111.303363 72.554834 
L 111.557253 75.423669 
L 111.811144 73.880165 
L 112.318924 78.088467 
L 112.572814 72.709608 
L 112.826705 78.45797 
L 113.080595 74.98103 
L 113.334485 76.833092 
L 113.588375 74.816238 
L 113.842266 80.315816 
L 114.096156 77.238496 
L 114.603936 75.324666 
L 114.857827 75.252881 
L 115.111717 74.357321 
L 115.365607 79.474693 
L 115.619497 75.950994 
L 115.873388 76.95849 
L 116.381168 73.515621 
L 116.635058 77.245449 
L 116.888949 75.554371 
L 117.396729 74.118982 
L 117.650619 75.13577 
L 117.90451 74.865748 
L 118.1584 74.306971 
L 118.41229 74.549594 
L 118.66618 74.336331 
L 118.920071 74.802794 
L 119.173961 73.164999 
L 119.427851 74.324963 
L 119.681741 69.166879 
L 120.443412 73.447016 
L 120.697302 73.202037 
L 120.951193 72.367998 
L 121.205083 70.814247 
L 121.458973 67.219042 
L 121.712863 66.434695 
L 121.966754 71.62138 
L 122.220644 70.819255 
L 122.474534 71.311915 
L 122.728424 71.29684 
L 122.982315 67.162876 
L 123.236205 70.138837 
L 123.490095 68.827066 
L 123.743985 69.087285 
L 123.997876 70.55177 
L 124.505656 64.49938 
L 124.759546 67.858271 
L 125.013437 67.069409 
L 125.267327 66.70157 
L 125.521217 65.719298 
L 125.775107 67.466097 
L 126.028998 68.35393 
L 126.282888 63.990689 
L 126.790669 67.351805 
L 127.044559 65.089741 
L 127.298449 65.959252 
L 127.552339 65.535231 
L 127.80623 68.733845 
L 128.06012 66.670167 
L 128.5679 69.868551 
L 128.821791 68.668766 
L 129.075681 68.264548 
L 129.329571 68.298011 
L 129.583461 67.880036 
L 129.837352 68.216571 
L 130.091242 66.63168 
L 130.599022 69.267332 
L 130.852913 68.324949 
L 131.106803 68.976501 
L 131.360693 67.526069 
L 131.614583 67.024694 
L 131.868474 69.585431 
L 132.122364 69.589929 
L 132.630144 68.113284 
L 132.884035 67.948443 
L 133.137925 66.305409 
L 133.391815 68.494139 
L 133.645705 68.185711 
L 133.899596 69.341012 
L 134.153486 67.970389 
L 134.661266 63.662655 
L 134.915157 65.086281 
L 135.422937 68.470265 
L 135.676827 67.973421 
L 135.930718 64.442769 
L 136.184608 68.842503 
L 136.438498 66.946961 
L 136.692388 67.555775 
L 136.946279 70.071665 
L 137.200169 69.188001 
L 137.454059 69.310219 
L 137.707949 68.740765 
L 137.96184 70.831975 
L 138.21573 68.049671 
L 138.72351 67.054037 
L 138.977401 67.612238 
L 139.231291 66.519694 
L 139.739071 68.327305 
L 139.992962 68.029307 
L 140.246852 67.27305 
L 140.500742 67.640098 
L 140.754632 68.427445 
L 141.008523 68.140831 
L 141.262413 64.572022 
L 141.516303 66.580259 
L 141.770193 66.237875 
L 142.024084 66.162514 
L 142.277974 66.89811 
L 142.531864 65.736829 
L 142.785755 65.414743 
L 143.039645 65.884304 
L 143.293535 66.659211 
L 143.547425 65.671914 
L 144.055206 67.511439 
L 144.309096 67.501405 
L 144.562986 67.846787 
L 144.816877 67.623359 
L 145.070767 67.018729 
L 145.324657 67.81092 
L 145.578547 67.149086 
L 145.832438 67.03967 
L 146.086328 67.598909 
L 146.594108 67.366204 
L 146.847999 67.490218 
L 147.101889 68.118292 
L 147.355779 67.427099 
L 147.609669 68.07127 
L 147.86356 68.141095 
L 148.11745 67.868074 
L 148.37134 67.032783 
L 148.62523 66.970142 
L 149.133011 65.500038 
L 149.640791 65.685737 
L 149.894682 66.178759 
L 150.402462 65.722396 
L 150.656352 66.487236 
L 150.910243 66.032108 
L 151.164133 64.893844 
L 151.418023 65.288884 
L 151.671913 66.083332 
L 151.925804 66.480217 
L 152.179694 67.107814 
L 152.687474 67.005055 
L 152.941365 66.398745 
L 153.195255 67.497599 
L 153.703035 66.328525 
L 153.956926 65.487484 
L 154.210816 65.123599 
L 154.464706 65.498045 
L 154.718596 65.341294 
L 155.226377 65.735774 
L 155.480267 66.10877 
L 155.734157 66.832355 
L 155.988048 66.700054 
L 156.241938 66.777606 
L 156.749718 66.364623 
L 157.003609 66.554672 
L 157.257499 66.184608 
L 157.511389 66.487945 
L 157.765279 66.434612 
L 158.01917 66.078422 
L 158.27306 66.222041 
L 158.52695 66.701125 
L 159.288621 67.045371 
L 159.542511 66.522692 
L 159.796402 66.986931 
L 160.304182 67.397756 
L 160.558072 67.08633 
L 160.811963 67.02929 
L 161.065853 65.81064 
L 161.319743 66.254103 
L 161.573633 66.319908 
L 161.827524 66.673891 
L 162.081414 66.704536 
L 162.335304 66.392583 
L 162.589194 66.883018 
L 163.350865 65.706925 
L 163.604755 66.058667 
L 164.112536 66.037364 
L 164.620316 65.273628 
L 164.874207 65.49844 
L 165.381987 66.314026 
L 165.889768 65.776618 
L 166.143658 65.559401 
L 166.397548 66.214331 
L 166.905329 65.37151 
L 167.92089 65.966716 
L 168.17478 65.918392 
L 168.42867 65.699923 
L 168.68256 65.883842 
L 169.190341 65.719677 
L 169.444231 65.617 
L 169.698121 65.691767 
L 169.952012 65.883529 
L 170.205902 65.880004 
L 170.459792 66.248946 
L 170.713682 65.627034 
L 170.967573 65.66534 
L 171.221463 65.962663 
L 171.475353 65.770769 
L 171.729243 65.867432 
L 171.983134 65.695804 
L 172.237024 65.37296 
L 172.744804 65.786371 
L 173.252585 65.613754 
L 173.760365 65.807016 
L 174.522036 65.39835 
L 174.775926 65.727124 
L 175.283707 65.452637 
L 175.791488 65.895458 
L 176.807049 65.745956 
L 177.060939 65.828154 
L 177.314829 65.655916 
L 177.568719 65.707634 
L 177.82261 65.64374 
L 178.0765 65.823805 
L 178.33039 65.775909 
L 178.838171 65.912164 
L 179.092061 66.288785 
L 179.345951 66.392747 
L 179.599841 66.356237 
L 179.853732 66.0256 
L 180.107622 66.279905 
L 180.615402 66.309923 
L 181.377073 65.763651 
L 182.138744 65.542612 
L 182.392634 65.432899 
L 183.154305 65.858453 
L 183.662085 66.024793 
L 183.915976 66.081503 
L 184.169866 65.848963 
L 184.423756 65.929447 
L 185.439317 65.767606 
L 185.693207 65.902888 
L 186.200988 65.725872 
L 187.470439 65.857646 
L 188.23211 65.44435 
L 188.993781 65.6055 
L 189.501561 65.48348 
L 189.755451 65.646492 
L 190.517122 65.507831 
L 190.771012 65.658288 
L 191.278793 65.385103 
L 191.786574 65.490762 
L 193.817696 65.647431 
L 194.833257 65.321094 
L 195.594927 65.3278 
L 195.848818 65.461271 
L 196.356598 65.468042 
L 196.864379 65.524011 
L 197.372159 65.40087 
L 197.87994 65.330453 
L 198.38772 65.308754 
L 199.911062 65.341393 
L 200.672732 64.938526 
L 201.180513 65.083365 
L 201.688293 65.055554 
L 202.196074 65.200837 
L 202.957745 65.16927 
L 203.973306 64.972417 
L 205.750537 65.090136 
L 208.797221 65.048782 
L 209.558891 65.076775 
L 223.522855 65.459046 
L 224.538416 65.385218 
L 225.553977 65.350553 
L 227.331209 65.342068 
L 228.60066 65.290515 
L 229.616221 65.25244 
L 230.631782 65.262095 
L 246.880759 65.217346 
L 249.927442 65.230346 
L 257.290259 65.190145 
L 259.321381 65.202172 
L 271.000333 65.216226 
L 272.777564 65.222322 
L 275.062577 65.2415 
L 280.140382 65.234185 
L 285.725967 65.277368 
L 291.819334 65.275704 
L 295.627687 65.253972 
L 309.083871 65.292212 
L 310.099432 65.305821 
L 310.099432 65.305821 
" clip-path="url(#pd318f0f0e0)" style="fill: none; stroke: #ff0000; stroke-width: 0.6; stroke-linecap: square"/>
   </g>
   <g id="patch_3">
    <path d="M 43.78125 239.76 
L 43.78125 37.296 
" style="fill: none; stroke: #000000; stroke-width: 0.8; stroke-linejoin: miter; stroke-linecap: square"/>
   </g>
   <g id="patch_4">
    <path d="M 322.78125 239.76 
L 322.78125 37.296 
" style="fill: none; stroke: #000000; stroke-width: 0.8; stroke-linejoin: miter; stroke-linecap: square"/>
   </g>
   <g id="patch_5">
    <path d="M 43.78125 239.76 
L 322.78125 239.76 
" style="fill: none; stroke: #000000; stroke-width: 0.8; stroke-linejoin: miter; stroke-linecap: square"/>
   </g>
   <g id="patch_6">
    <path d="M 43.78125 37.296 
L 322.78125 37.296 
" style="fill: none; stroke: #000000; stroke-width: 0.8; stroke-linejoin: miter; stroke-linecap: square"/>
   </g>
   <g id="text_17">
    <!-- Baseline Model -->
    <g transform="translate(149.259844 31.296) scale(0.09 -0.09)">
     <defs>
      <path id="DejaVuSans-42" d="M 1259 2228 
L 1259 519 
L 2272 519 
Q 2781 519 3026 730 
Q 3272 941 3272 1375 
Q 3272 1813 3026 2020 
Q 2781 2228 2272 2228 
L 1259 2228 
z
M 1259 4147 
L 1259 2741 
L 2194 2741 
Q 2656 2741 2882 2914 
Q 3109 3088 3109 3444 
Q 3109 3797 2882 3972 
Q 2656 4147 2194 4147 
L 1259 4147 
z
M 628 4666 
L 2241 4666 
Q 2963 4666 3353 4366 
Q 3744 4066 3744 3513 
Q 3744 3084 3544 2831 
Q 3344 2578 2956 2516 
Q 3422 2416 3680 2098 
Q 3938 1781 3938 1306 
Q 3938 681 3513 340 
Q 3088 0 2303 0 
L 628 0 
L 628 4666 
z
" transform="scale(0.015625)"/>
      <path id="DejaVuSans-61" d="M 2194 1759 
Q 1497 1759 1228 1600 
Q 959 1441 959 1056 
Q 959 750 1161 570 
Q 1363 391 1709 391 
Q 2188 391 2477 730 
Q 2766 1069 2766 1631 
L 2766 1759 
L 2194 1759 
z
M 3341 1997 
L 3341 0 
L 2766 0 
L 2766 531 
Q 2569 213 2275 61 
Q 1981 -91 1556 -91 
Q 1019 -91 701 211 
Q 384 513 384 1019 
Q 384 1609 779 1909 
Q 1175 2209 1959 2209 
L 2766 2209 
L 2766 2266 
Q 2766 2663 2505 2880 
Q 2244 3097 1772 3097 
Q 1472 3097 1187 3025 
Q 903 2953 641 2809 
L 641 3341 
Q 956 3463 1253 3523 
Q 1550 3584 1831 3584 
Q 2591 3584 2966 3190 
Q 3341 2797 3341 1997 
z
" transform="scale(0.015625)"/>
      <path id="DejaVuSans-65" d="M 3597 1894 
L 3597 1613 
L 953 1613 
Q 991 1019 1311 708 
Q 1631 397 2203 397 
Q 2534 397 2845 478 
Q 3156 559 3463 722 
L 3463 178 
Q 3153 47 2828 -22 
Q 2503 -91 2169 -91 
Q 1331 -91 842 396 
Q 353 884 353 1716 
Q 353 2575 817 3079 
Q 1281 3584 2069 3584 
Q 2775 3584 3186 3129 
Q 3597 2675 3597 1894 
z
M 3022 2063 
Q 3016 2534 2758 2815 
Q 2500 3097 2075 3097 
Q 1594 3097 1305 2825 
Q 1016 2553 972 2059 
L 3022 2063 
z
" transform="scale(0.015625)"/>
      <path id="DejaVuSans-6c" d="M 603 4863 
L 1178 4863 
L 1178 0 
L 603 0 
L 603 4863 
z
" transform="scale(0.015625)"/>
      <path id="DejaVuSans-69" d="M 603 3500 
L 1178 3500 
L 1178 0 
L 603 0 
L 603 3500 
z
M 603 4863 
L 1178 4863 
L 1178 4134 
L 603 4134 
L 603 4863 
z
" transform="scale(0.015625)"/>
      <path id="DejaVuSans-6e" d="M 3513 2113 
L 3513 0 
L 2938 0 
L 2938 2094 
Q 2938 2591 2744 2837 
Q 2550 3084 2163 3084 
Q 1697 3084 1428 2787 
Q 1159 2491 1159 1978 
L 1159 0 
L 581 0 
L 581 3500 
L 1159 3500 
L 1159 2956 
Q 1366 3272 1645 3428 
Q 1925 3584 2291 3584 
Q 2894 3584 3203 3211 
Q 3513 2838 3513 2113 
z
" transform="scale(0.015625)"/>
      <path id="DejaVuSans-20" transform="scale(0.015625)"/>
      <path id="DejaVuSans-4d" d="M 628 4666 
L 1569 4666 
L 2759 1491 
L 3956 4666 
L 4897 4666 
L 4897 0 
L 4281 0 
L 4281 4097 
L 3078 897 
L 2444 897 
L 1241 4097 
L 1241 0 
L 628 0 
L 628 4666 
z
" transform="scale(0.015625)"/>
      <path id="DejaVuSans-64" d="M 2906 2969 
L 2906 4863 
L 3481 4863 
L 3481 0 
L 2906 0 
L 2906 525 
Q 2725 213 2448 61 
Q 2172 -91 1784 -91 
Q 1150 -91 751 415 
Q 353 922 353 1747 
Q 353 2572 751 3078 
Q 1150 3584 1784 3584 
Q 2172 3584 2448 3432 
Q 2725 3281 2906 2969 
z
M 947 1747 
Q 947 1113 1208 752 
Q 1469 391 1925 391 
Q 2381 391 2643 752 
Q 2906 1113 2906 1747 
Q 2906 2381 2643 2742 
Q 2381 3103 1925 3103 
Q 1469 3103 1208 2742 
Q 947 2381 947 1747 
z
" transform="scale(0.015625)"/>
     </defs>
     <use xlink:href="#DejaVuSans-42"/>
     <use xlink:href="#DejaVuSans-61" x="68.603516"/>
     <use xlink:href="#DejaVuSans-73" x="129.882812"/>
     <use xlink:href="#DejaVuSans-65" x="181.982422"/>
     <use xlink:href="#DejaVuSans-6c" x="243.505859"/>
     <use xlink:href="#DejaVuSans-69" x="271.289062"/>
     <use xlink:href="#DejaVuSans-6e" x="299.072266"/>
     <use xlink:href="#DejaVuSans-65" x="362.451172"/>
     <use xlink:href="#DejaVuSans-20" x="423.974609"/>
     <use xlink:href="#DejaVuSans-4d" x="455.761719"/>
     <use xlink:href="#DejaVuSans-6f" x="542.041016"/>
     <use xlink:href="#DejaVuSans-64" x="603.222656"/>
     <use xlink:href="#DejaVuSans-65" x="666.699219"/>
     <use xlink:href="#DejaVuSans-6c" x="728.222656"/>
    </g>
   </g>
   <g id="legend_1">
    <g id="patch_7">
     <path d="M 209.2875 154.706125 
L 315.78125 154.706125 
Q 317.78125 154.706125 317.78125 152.706125 
L 317.78125 124.349875 
Q 317.78125 122.349875 315.78125 122.349875 
L 209.2875 122.349875 
Q 207.2875 122.349875 207.2875 124.349875 
L 207.2875 152.706125 
Q 207.2875 154.706125 209.2875 154.706125 
z
" style="fill: #ffffff; opacity: 0.8; stroke: #cccccc; stroke-linejoin: miter"/>
    </g>
    <g id="line2d_31">
     <path d="M 211.2875 130.448312 
L 221.2875 130.448312 
L 231.2875 130.448312 
" style="fill: none; stroke: #0000ff; stroke-width: 0.6; stroke-linecap: square"/>
    </g>
    <g id="text_18">
     <!-- Training Loss -->
     <g transform="translate(239.2875 133.948312) scale(0.1 -0.1)">
      <defs>
       <path id="DejaVuSans-54" d="M -19 4666 
L 3928 4666 
L 3928 4134 
L 2272 4134 
L 2272 0 
L 1638 0 
L 1638 4134 
L -19 4134 
L -19 4666 
z
" transform="scale(0.015625)"/>
       <path id="DejaVuSans-72" d="M 2631 2963 
Q 2534 3019 2420 3045 
Q 2306 3072 2169 3072 
Q 1681 3072 1420 2755 
Q 1159 2438 1159 1844 
L 1159 0 
L 581 0 
L 581 3500 
L 1159 3500 
L 1159 2956 
Q 1341 3275 1631 3429 
Q 1922 3584 2338 3584 
Q 2397 3584 2469 3576 
Q 2541 3569 2628 3553 
L 2631 2963 
z
" transform="scale(0.015625)"/>
       <path id="DejaVuSans-67" d="M 2906 1791 
Q 2906 2416 2648 2759 
Q 2391 3103 1925 3103 
Q 1463 3103 1205 2759 
Q 947 2416 947 1791 
Q 947 1169 1205 825 
Q 1463 481 1925 481 
Q 2391 481 2648 825 
Q 2906 1169 2906 1791 
z
M 3481 434 
Q 3481 -459 3084 -895 
Q 2688 -1331 1869 -1331 
Q 1566 -1331 1297 -1286 
Q 1028 -1241 775 -1147 
L 775 -588 
Q 1028 -725 1275 -790 
Q 1522 -856 1778 -856 
Q 2344 -856 2625 -561 
Q 2906 -266 2906 331 
L 2906 616 
Q 2728 306 2450 153 
Q 2172 0 1784 0 
Q 1141 0 747 490 
Q 353 981 353 1791 
Q 353 2603 747 3093 
Q 1141 3584 1784 3584 
Q 2172 3584 2450 3431 
Q 2728 3278 2906 2969 
L 2906 3500 
L 3481 3500 
L 3481 434 
z
" transform="scale(0.015625)"/>
      </defs>
      <use xlink:href="#DejaVuSans-54"/>
      <use xlink:href="#DejaVuSans-72" x="46.333984"/>
      <use xlink:href="#DejaVuSans-61" x="87.447266"/>
      <use xlink:href="#DejaVuSans-69" x="148.726562"/>
      <use xlink:href="#DejaVuSans-6e" x="176.509766"/>
      <use xlink:href="#DejaVuSans-69" x="239.888672"/>
      <use xlink:href="#DejaVuSans-6e" x="267.671875"/>
      <use xlink:href="#DejaVuSans-67" x="331.050781"/>
      <use xlink:href="#DejaVuSans-20" x="394.527344"/>
      <use xlink:href="#DejaVuSans-4c" x="426.314453"/>
      <use xlink:href="#DejaVuSans-6f" x="480.277344"/>
      <use xlink:href="#DejaVuSans-73" x="541.458984"/>
      <use xlink:href="#DejaVuSans-73" x="593.558594"/>
     </g>
    </g>
    <g id="line2d_32">
     <path d="M 211.2875 145.126437 
L 221.2875 145.126437 
L 231.2875 145.126437 
" style="fill: none; stroke: #ff0000; stroke-width: 0.6; stroke-linecap: square"/>
    </g>
    <g id="text_19">
     <!-- Validation Loss -->
     <g transform="translate(239.2875 148.626437) scale(0.1 -0.1)">
      <defs>
       <path id="DejaVuSans-56" d="M 1831 0 
L 50 4666 
L 709 4666 
L 2188 738 
L 3669 4666 
L 4325 4666 
L 2547 0 
L 1831 0 
z
" transform="scale(0.015625)"/>
       <path id="DejaVuSans-74" d="M 1172 4494 
L 1172 3500 
L 2356 3500 
L 2356 3053 
L 1172 3053 
L 1172 1153 
Q 1172 725 1289 603 
Q 1406 481 1766 481 
L 2356 481 
L 2356 0 
L 1766 0 
Q 1100 0 847 248 
Q 594 497 594 1153 
L 594 3053 
L 172 3053 
L 172 3500 
L 594 3500 
L 594 4494 
L 1172 4494 
z
" transform="scale(0.015625)"/>
      </defs>
      <use xlink:href="#DejaVuSans-56"/>
      <use xlink:href="#DejaVuSans-61" x="60.658203"/>
      <use xlink:href="#DejaVuSans-6c" x="121.9375"/>
      <use xlink:href="#DejaVuSans-69" x="149.720703"/>
      <use xlink:href="#DejaVuSans-64" x="177.503906"/>
      <use xlink:href="#DejaVuSans-61" x="240.980469"/>
      <use xlink:href="#DejaVuSans-74" x="302.259766"/>
      <use xlink:href="#DejaVuSans-69" x="341.46875"/>
      <use xlink:href="#DejaVuSans-6f" x="369.251953"/>
      <use xlink:href="#DejaVuSans-6e" x="430.433594"/>
      <use xlink:href="#DejaVuSans-20" x="493.8125"/>
      <use xlink:href="#DejaVuSans-4c" x="525.599609"/>
      <use xlink:href="#DejaVuSans-6f" x="579.5625"/>
      <use xlink:href="#DejaVuSans-73" x="640.744141"/>
      <use xlink:href="#DejaVuSans-73" x="692.84375"/>
     </g>
    </g>
   </g>
  </g>
  <g id="text_20">
   <!-- Training VS. Validation Loss - Dataset Size = 100.0% -->
   <g transform="translate(34.481016 15.558281) scale(0.11 -0.11)">
    <defs>
     <path id="DejaVuSans-53" d="M 3425 4513 
L 3425 3897 
Q 3066 4069 2747 4153 
Q 2428 4238 2131 4238 
Q 1616 4238 1336 4038 
Q 1056 3838 1056 3469 
Q 1056 3159 1242 3001 
Q 1428 2844 1947 2747 
L 2328 2669 
Q 3034 2534 3370 2195 
Q 3706 1856 3706 1288 
Q 3706 609 3251 259 
Q 2797 -91 1919 -91 
Q 1588 -91 1214 -16 
Q 841 59 441 206 
L 441 856 
Q 825 641 1194 531 
Q 1563 422 1919 422 
Q 2459 422 2753 634 
Q 3047 847 3047 1241 
Q 3047 1584 2836 1778 
Q 2625 1972 2144 2069 
L 1759 2144 
Q 1053 2284 737 2584 
Q 422 2884 422 3419 
Q 422 4038 858 4394 
Q 1294 4750 2059 4750 
Q 2388 4750 2728 4690 
Q 3069 4631 3425 4513 
z
" transform="scale(0.015625)"/>
     <path id="DejaVuSans-2d" d="M 313 2009 
L 1997 2009 
L 1997 1497 
L 313 1497 
L 313 2009 
z
" transform="scale(0.015625)"/>
     <path id="DejaVuSans-44" d="M 1259 4147 
L 1259 519 
L 2022 519 
Q 2988 519 3436 956 
Q 3884 1394 3884 2338 
Q 3884 3275 3436 3711 
Q 2988 4147 2022 4147 
L 1259 4147 
z
M 628 4666 
L 1925 4666 
Q 3281 4666 3915 4102 
Q 4550 3538 4550 2338 
Q 4550 1131 3912 565 
Q 3275 0 1925 0 
L 628 0 
L 628 4666 
z
" transform="scale(0.015625)"/>
     <path id="DejaVuSans-7a" d="M 353 3500 
L 3084 3500 
L 3084 2975 
L 922 459 
L 3084 459 
L 3084 0 
L 275 0 
L 275 525 
L 2438 3041 
L 353 3041 
L 353 3500 
z
" transform="scale(0.015625)"/>
     <path id="DejaVuSans-3d" d="M 678 2906 
L 4684 2906 
L 4684 2381 
L 678 2381 
L 678 2906 
z
M 678 1631 
L 4684 1631 
L 4684 1100 
L 678 1100 
L 678 1631 
z
" transform="scale(0.015625)"/>
     <path id="DejaVuSans-25" d="M 4653 2053 
Q 4381 2053 4226 1822 
Q 4072 1591 4072 1178 
Q 4072 772 4226 539 
Q 4381 306 4653 306 
Q 4919 306 5073 539 
Q 5228 772 5228 1178 
Q 5228 1588 5073 1820 
Q 4919 2053 4653 2053 
z
M 4653 2450 
Q 5147 2450 5437 2106 
Q 5728 1763 5728 1178 
Q 5728 594 5436 251 
Q 5144 -91 4653 -91 
Q 4153 -91 3862 251 
Q 3572 594 3572 1178 
Q 3572 1766 3864 2108 
Q 4156 2450 4653 2450 
z
M 1428 4353 
Q 1159 4353 1004 4120 
Q 850 3888 850 3481 
Q 850 3069 1003 2837 
Q 1156 2606 1428 2606 
Q 1700 2606 1854 2837 
Q 2009 3069 2009 3481 
Q 2009 3884 1853 4118 
Q 1697 4353 1428 4353 
z
M 4250 4750 
L 4750 4750 
L 1831 -91 
L 1331 -91 
L 4250 4750 
z
M 1428 4750 
Q 1922 4750 2215 4408 
Q 2509 4066 2509 3481 
Q 2509 2891 2217 2550 
Q 1925 2209 1428 2209 
Q 931 2209 642 2551 
Q 353 2894 353 3481 
Q 353 4063 643 4406 
Q 934 4750 1428 4750 
z
" transform="scale(0.015625)"/>
    </defs>
    <use xlink:href="#DejaVuSans-54"/>
    <use xlink:href="#DejaVuSans-72" x="46.333984"/>
    <use xlink:href="#DejaVuSans-61" x="87.447266"/>
    <use xlink:href="#DejaVuSans-69" x="148.726562"/>
    <use xlink:href="#DejaVuSans-6e" x="176.509766"/>
    <use xlink:href="#DejaVuSans-69" x="239.888672"/>
    <use xlink:href="#DejaVuSans-6e" x="267.671875"/>
    <use xlink:href="#DejaVuSans-67" x="331.050781"/>
    <use xlink:href="#DejaVuSans-20" x="394.527344"/>
    <use xlink:href="#DejaVuSans-56" x="426.314453"/>
    <use xlink:href="#DejaVuSans-53" x="494.722656"/>
    <use xlink:href="#DejaVuSans-2e" x="558.199219"/>
    <use xlink:href="#DejaVuSans-20" x="589.986328"/>
    <use xlink:href="#DejaVuSans-56" x="621.773438"/>
    <use xlink:href="#DejaVuSans-61" x="682.431641"/>
    <use xlink:href="#DejaVuSans-6c" x="743.710938"/>
    <use xlink:href="#DejaVuSans-69" x="771.494141"/>
    <use xlink:href="#DejaVuSans-64" x="799.277344"/>
    <use xlink:href="#DejaVuSans-61" x="862.753906"/>
    <use xlink:href="#DejaVuSans-74" x="924.033203"/>
    <use xlink:href="#DejaVuSans-69" x="963.242188"/>
    <use xlink:href="#DejaVuSans-6f" x="991.025391"/>
    <use xlink:href="#DejaVuSans-6e" x="1052.207031"/>
    <use xlink:href="#DejaVuSans-20" x="1115.585938"/>
    <use xlink:href="#DejaVuSans-4c" x="1147.373047"/>
    <use xlink:href="#DejaVuSans-6f" x="1201.335938"/>
    <use xlink:href="#DejaVuSans-73" x="1262.517578"/>
    <use xlink:href="#DejaVuSans-73" x="1314.617188"/>
    <use xlink:href="#DejaVuSans-20" x="1366.716797"/>
    <use xlink:href="#DejaVuSans-2d" x="1398.503906"/>
    <use xlink:href="#DejaVuSans-20" x="1434.587891"/>
    <use xlink:href="#DejaVuSans-44" x="1466.375"/>
    <use xlink:href="#DejaVuSans-61" x="1543.376953"/>
    <use xlink:href="#DejaVuSans-74" x="1604.65625"/>
    <use xlink:href="#DejaVuSans-61" x="1643.865234"/>
    <use xlink:href="#DejaVuSans-73" x="1705.144531"/>
    <use xlink:href="#DejaVuSans-65" x="1757.244141"/>
    <use xlink:href="#DejaVuSans-74" x="1818.767578"/>
    <use xlink:href="#DejaVuSans-20" x="1857.976562"/>
    <use xlink:href="#DejaVuSans-53" x="1889.763672"/>
    <use xlink:href="#DejaVuSans-69" x="1953.240234"/>
    <use xlink:href="#DejaVuSans-7a" x="1981.023438"/>
    <use xlink:href="#DejaVuSans-65" x="2033.513672"/>
    <use xlink:href="#DejaVuSans-20" x="2095.037109"/>
    <use xlink:href="#DejaVuSans-3d" x="2126.824219"/>
    <use xlink:href="#DejaVuSans-20" x="2210.613281"/>
    <use xlink:href="#DejaVuSans-31" x="2242.400391"/>
    <use xlink:href="#DejaVuSans-30" x="2306.023438"/>
    <use xlink:href="#DejaVuSans-30" x="2369.646484"/>
    <use xlink:href="#DejaVuSans-2e" x="2433.269531"/>
    <use xlink:href="#DejaVuSans-30" x="2465.056641"/>
    <use xlink:href="#DejaVuSans-25" x="2528.679688"/>
   </g>
  </g>
 </g>
 <defs>
  <clipPath id="pd318f0f0e0">
   <rect x="43.78125" y="37.296" width="279" height="202.464"/>
  </clipPath>
 </defs>
</svg>
