<?xml version="1.0" encoding="utf-8" standalone="no"?>
<!DOCTYPE svg PUBLIC "-//W3C//DTD SVG 1.1//EN"
  "http://www.w3.org/Graphics/SVG/1.1/DTD/svg11.dtd">
<svg xmlns:xlink="http://www.w3.org/1999/xlink" width="330.024432pt" height="277.31625pt" viewBox="0 0 330.024432 277.31625" xmlns="http://www.w3.org/2000/svg" version="1.1">
 <metadata>
  <rdf:RDF xmlns:dc="http://purl.org/dc/elements/1.1/" xmlns:cc="http://creativecommons.org/ns#" xmlns:rdf="http://www.w3.org/1999/02/22-rdf-syntax-ns#">
   <cc:Work>
    <dc:type rdf:resource="http://purl.org/dc/dcmitype/StillImage"/>
    <dc:date>2026-06-11T10:56:05.455069</dc:date>
    <dc:format>image/svg+xml</dc:format>
    <dc:creator>
     <cc:Agent>
      <dc:title>Matplotlib v3.8.4, https://matplotlib.org/</dc:title>
     </cc:Agent>
    </dc:creator>
   </cc:Work>
  </rdf:RDF>
 </metadata>
 <defs>
  <style type="text/css">*{stroke-linejoin: round; stroke-linecap: butt}</style>
 </defs>
 <g id="figure_1">
  <g id="patch_1">
   <path d="M 0 277.31625 
L 330.024432 277.31625 
L 330.024432 0 
L 0 0 
z
" style="fill: #ffffff"/>
  </g>
  <g id="axes_1">
   <g id="patch_2">
    <path d="M 43.78125 239.76 
L 322.78125 239.76 
L 322.78125 37.296 
L 43.78125 37.296 
z
" style="fill: #ffffff"/>
   </g>
   <g id="matplotlib.axis_1">
    <g id="xtick_1">
     <g id="line2d_1">
      <path d="M 56.209178 239.76 
L 56.209178 37.296 
" clip-path="url(#pe3a0d2d706)" style="fill: none; stroke-dasharray: 2.96,1.28; stroke-dashoffset: 0; stroke: #b0b0b0; stroke-opacity: 0.4; stroke-width: 0.8"/>
     </g>
     <g id="line2d_2">
      <defs>
       <path id="m5b942ee5cb" d="M 0 0 
L 0 3.5 
" style="stroke: #000000; stroke-width: 0.8"/>
      </defs>
      <g>
       <use xlink:href="#m5b942ee5cb" x="56.209178" y="239.76" style="stroke: #000000; stroke-width: 0.8"/>
      </g>
     </g>
     <g id="text_1">
      <!-- 0 -->
      <g transform="translate(53.027928 254.358437) scale(0.1 -0.1)">
       <defs>
        <path id="DejaVuSans-30" d="M 2034 4250 
Q 1547 4250 1301 3770 
Q 1056 3291 1056 2328 
Q 1056 1369 1301 889 
Q 1547 409 2034 409 
Q 2525 409 2770 889 
Q 3016 1369 3016 2328 
Q 3016 3291 2770 3770 
Q 2525 4250 2034 4250 
z
M 2034 4750 
Q 2819 4750 3233 4129 
Q 3647 3509 3647 2328 
Q 3647 1150 3233 529 
Q 2819 -91 2034 -91 
Q 1250 -91 836 529 
Q 422 1150 422 2328 
Q 422 3509 836 4129 
Q 1250 4750 2034 4750 
z
" transform="scale(0.015625)"/>
       </defs>
       <use xlink:href="#DejaVuSans-30"/>
      </g>
     </g>
    </g>
    <g id="xtick_2">
     <g id="line2d_3">
      <path d="M 106.987229 239.76 
L 106.987229 37.296 
" clip-path="url(#pe3a0d2d706)" style="fill: none; stroke-dasharray: 2.96,1.28; stroke-dashoffset: 0; stroke: #b0b0b0; stroke-opacity: 0.4; stroke-width: 0.8"/>
     </g>
     <g id="line2d_4">
      <g>
       <use xlink:href="#m5b942ee5cb" x="106.987229" y="239.76" style="stroke: #000000; stroke-width: 0.8"/>
      </g>
     </g>
     <g id="text_2">
      <!-- 200 -->
      <g transform="translate(97.443479 254.358437) scale(0.1 -0.1)">
       <defs>
        <path id="DejaVuSans-32" d="M 1228 531 
L 3431 531 
L 3431 0 
L 469 0 
L 469 531 
Q 828 903 1448 1529 
Q 2069 2156 2228 2338 
Q 2531 2678 2651 2914 
Q 2772 3150 2772 3378 
Q 2772 3750 2511 3984 
Q 2250 4219 1831 4219 
Q 1534 4219 1204 4116 
Q 875 4013 500 3803 
L 500 4441 
Q 881 4594 1212 4672 
Q 1544 4750 1819 4750 
Q 2544 4750 2975 4387 
Q 3406 4025 3406 3419 
Q 3406 3131 3298 2873 
Q 3191 2616 2906 2266 
Q 2828 2175 2409 1742 
Q 1991 1309 1228 531 
z
" transform="scale(0.015625)"/>
       </defs>
       <use xlink:href="#DejaVuSans-32"/>
       <use xlink:href="#DejaVuSans-30" x="63.623047"/>
       <use xlink:href="#DejaVuSans-30" x="127.246094"/>
      </g>
     </g>
    </g>
    <g id="xtick_3">
     <g id="line2d_5">
      <path d="M 157.765279 239.76 
L 157.765279 37.296 
" clip-path="url(#pe3a0d2d706)" style="fill: none; stroke-dasharray: 2.96,1.28; stroke-dashoffset: 0; stroke: #b0b0b0; stroke-opacity: 0.4; stroke-width: 0.8"/>
     </g>
     <g id="line2d_6">
      <g>
       <use xlink:href="#m5b942ee5cb" x="157.765279" y="239.76" style="stroke: #000000; stroke-width: 0.8"/>
      </g>
     </g>
     <g id="text_3">
      <!-- 400 -->
      <g transform="translate(148.221529 254.358437) scale(0.1 -0.1)">
       <defs>
        <path id="DejaVuSans-34" d="M 2419 4116 
L 825 1625 
L 2419 1625 
L 2419 4116 
z
M 2253 4666 
L 3047 4666 
L 3047 1625 
L 3713 1625 
L 3713 1100 
L 3047 1100 
L 3047 0 
L 2419 0 
L 2419 1100 
L 313 1100 
L 313 1709 
L 2253 4666 
z
" transform="scale(0.015625)"/>
       </defs>
       <use xlink:href="#DejaVuSans-34"/>
       <use xlink:href="#DejaVuSans-30" x="63.623047"/>
       <use xlink:href="#DejaVuSans-30" x="127.246094"/>
      </g>
     </g>
    </g>
    <g id="xtick_4">
     <g id="line2d_7">
      <path d="M 208.54333 239.76 
L 208.54333 37.296 
" clip-path="url(#pe3a0d2d706)" style="fill: none; stroke-dasharray: 2.96,1.28; stroke-dashoffset: 0; stroke: #b0b0b0; stroke-opacity: 0.4; stroke-width: 0.8"/>
     </g>
     <g id="line2d_8">
      <g>
       <use xlink:href="#m5b942ee5cb" x="208.54333" y="239.76" style="stroke: #000000; stroke-width: 0.8"/>
      </g>
     </g>
     <g id="text_4">
      <!-- 600 -->
      <g transform="translate(198.99958 254.358437) scale(0.1 -0.1)">
       <defs>
        <path id="DejaVuSans-36" d="M 2113 2584 
Q 1688 2584 1439 2293 
Q 1191 2003 1191 1497 
Q 1191 994 1439 701 
Q 1688 409 2113 409 
Q 2538 409 2786 701 
Q 3034 994 3034 1497 
Q 3034 2003 2786 2293 
Q 2538 2584 2113 2584 
z
M 3366 4563 
L 3366 3988 
Q 3128 4100 2886 4159 
Q 2644 4219 2406 4219 
Q 1781 4219 1451 3797 
Q 1122 3375 1075 2522 
Q 1259 2794 1537 2939 
Q 1816 3084 2150 3084 
Q 2853 3084 3261 2657 
Q 3669 2231 3669 1497 
Q 3669 778 3244 343 
Q 2819 -91 2113 -91 
Q 1303 -91 875 529 
Q 447 1150 447 2328 
Q 447 3434 972 4092 
Q 1497 4750 2381 4750 
Q 2619 4750 2861 4703 
Q 3103 4656 3366 4563 
z
" transform="scale(0.015625)"/>
       </defs>
       <use xlink:href="#DejaVuSans-36"/>
       <use xlink:href="#DejaVuSans-30" x="63.623047"/>
       <use xlink:href="#DejaVuSans-30" x="127.246094"/>
      </g>
     </g>
    </g>
    <g id="xtick_5">
     <g id="line2d_9">
      <path d="M 259.321381 239.76 
L 259.321381 37.296 
" clip-path="url(#pe3a0d2d706)" style="fill: none; stroke-dasharray: 2.96,1.28; stroke-dashoffset: 0; stroke: #b0b0b0; stroke-opacity: 0.4; stroke-width: 0.8"/>
     </g>
     <g id="line2d_10">
      <g>
       <use xlink:href="#m5b942ee5cb" x="259.321381" y="239.76" style="stroke: #000000; stroke-width: 0.8"/>
      </g>
     </g>
     <g id="text_5">
      <!-- 800 -->
      <g transform="translate(249.777631 254.358437) scale(0.1 -0.1)">
       <defs>
        <path id="DejaVuSans-38" d="M 2034 2216 
Q 1584 2216 1326 1975 
Q 1069 1734 1069 1313 
Q 1069 891 1326 650 
Q 1584 409 2034 409 
Q 2484 409 2743 651 
Q 3003 894 3003 1313 
Q 3003 1734 2745 1975 
Q 2488 2216 2034 2216 
z
M 1403 2484 
Q 997 2584 770 2862 
Q 544 3141 544 3541 
Q 544 4100 942 4425 
Q 1341 4750 2034 4750 
Q 2731 4750 3128 4425 
Q 3525 4100 3525 3541 
Q 3525 3141 3298 2862 
Q 3072 2584 2669 2484 
Q 3125 2378 3379 2068 
Q 3634 1759 3634 1313 
Q 3634 634 3220 271 
Q 2806 -91 2034 -91 
Q 1263 -91 848 271 
Q 434 634 434 1313 
Q 434 1759 690 2068 
Q 947 2378 1403 2484 
z
M 1172 3481 
Q 1172 3119 1398 2916 
Q 1625 2713 2034 2713 
Q 2441 2713 2670 2916 
Q 2900 3119 2900 3481 
Q 2900 3844 2670 4047 
Q 2441 4250 2034 4250 
Q 1625 4250 1398 4047 
Q 1172 3844 1172 3481 
z
" transform="scale(0.015625)"/>
       </defs>
       <use xlink:href="#DejaVuSans-38"/>
       <use xlink:href="#DejaVuSans-30" x="63.623047"/>
       <use xlink:href="#DejaVuSans-30" x="127.246094"/>
      </g>
     </g>
    </g>
    <g id="xtick_6">
     <g id="line2d_11">
      <path d="M 310.099432 239.76 
L 310.099432 37.296 
" clip-path="url(#pe3a0d2d706)" style="fill: none; stroke-dasharray: 2.96,1.28; stroke-dashoffset: 0; stroke: #b0b0b0; stroke-opacity: 0.4; stroke-width: 0.8"/>
     </g>
     <g id="line2d_12">
      <g>
       <use xlink:href="#m5b942ee5cb" x="310.099432" y="239.76" style="stroke: #000000; stroke-width: 0.8"/>
      </g>
     </g>
     <g id="text_6">
      <!-- 1000 -->
      <g transform="translate(297.374432 254.358437) scale(0.1 -0.1)">
       <defs>
        <path id="DejaVuSans-31" d="M 794 531 
L 1825 531 
L 1825 4091 
L 703 3866 
L 703 4441 
L 1819 4666 
L 2450 4666 
L 2450 531 
L 3481 531 
L 3481 0 
L 794 0 
L 794 531 
z
" transform="scale(0.015625)"/>
       </defs>
       <use xlink:href="#DejaVuSans-31"/>
       <use xlink:href="#DejaVuSans-30" x="63.623047"/>
       <use xlink:href="#DejaVuSans-30" x="127.246094"/>
       <use xlink:href="#DejaVuSans-30" x="190.869141"/>
      </g>
     </g>
    </g>
    <g id="text_7">
     <!-- Epochs -->
     <g transform="translate(165.365625 268.036562) scale(0.1 -0.1)">
      <defs>
       <path id="DejaVuSans-45" d="M 628 4666 
L 3578 4666 
L 3578 4134 
L 1259 4134 
L 1259 2753 
L 3481 2753 
L 3481 2222 
L 1259 2222 
L 1259 531 
L 3634 531 
L 3634 0 
L 628 0 
L 628 4666 
z
" transform="scale(0.015625)"/>
       <path id="DejaVuSans-70" d="M 1159 525 
L 1159 -1331 
L 581 -1331 
L 581 3500 
L 1159 3500 
L 1159 2969 
Q 1341 3281 1617 3432 
Q 1894 3584 2278 3584 
Q 2916 3584 3314 3078 
Q 3713 2572 3713 1747 
Q 3713 922 3314 415 
Q 2916 -91 2278 -91 
Q 1894 -91 1617 61 
Q 1341 213 1159 525 
z
M 3116 1747 
Q 3116 2381 2855 2742 
Q 2594 3103 2138 3103 
Q 1681 3103 1420 2742 
Q 1159 2381 1159 1747 
Q 1159 1113 1420 752 
Q 1681 391 2138 391 
Q 2594 391 2855 752 
Q 3116 1113 3116 1747 
z
" transform="scale(0.015625)"/>
       <path id="DejaVuSans-6f" d="M 1959 3097 
Q 1497 3097 1228 2736 
Q 959 2375 959 1747 
Q 959 1119 1226 758 
Q 1494 397 1959 397 
Q 2419 397 2687 759 
Q 2956 1122 2956 1747 
Q 2956 2369 2687 2733 
Q 2419 3097 1959 3097 
z
M 1959 3584 
Q 2709 3584 3137 3096 
Q 3566 2609 3566 1747 
Q 3566 888 3137 398 
Q 2709 -91 1959 -91 
Q 1206 -91 779 398 
Q 353 888 353 1747 
Q 353 2609 779 3096 
Q 1206 3584 1959 3584 
z
" transform="scale(0.015625)"/>
       <path id="DejaVuSans-63" d="M 3122 3366 
L 3122 2828 
Q 2878 2963 2633 3030 
Q 2388 3097 2138 3097 
Q 1578 3097 1268 2742 
Q 959 2388 959 1747 
Q 959 1106 1268 751 
Q 1578 397 2138 397 
Q 2388 397 2633 464 
Q 2878 531 3122 666 
L 3122 134 
Q 2881 22 2623 -34 
Q 2366 -91 2075 -91 
Q 1284 -91 818 406 
Q 353 903 353 1747 
Q 353 2603 823 3093 
Q 1294 3584 2113 3584 
Q 2378 3584 2631 3529 
Q 2884 3475 3122 3366 
z
" transform="scale(0.015625)"/>
       <path id="DejaVuSans-68" d="M 3513 2113 
L 3513 0 
L 2938 0 
L 2938 2094 
Q 2938 2591 2744 2837 
Q 2550 3084 2163 3084 
Q 1697 3084 1428 2787 
Q 1159 2491 1159 1978 
L 1159 0 
L 581 0 
L 581 4863 
L 1159 4863 
L 1159 2956 
Q 1366 3272 1645 3428 
Q 1925 3584 2291 3584 
Q 2894 3584 3203 3211 
Q 3513 2838 3513 2113 
z
" transform="scale(0.015625)"/>
       <path id="DejaVuSans-73" d="M 2834 3397 
L 2834 2853 
Q 2591 2978 2328 3040 
Q 2066 3103 1784 3103 
Q 1356 3103 1142 2972 
Q 928 2841 928 2578 
Q 928 2378 1081 2264 
Q 1234 2150 1697 2047 
L 1894 2003 
Q 2506 1872 2764 1633 
Q 3022 1394 3022 966 
Q 3022 478 2636 193 
Q 2250 -91 1575 -91 
Q 1294 -91 989 -36 
Q 684 19 347 128 
L 347 722 
Q 666 556 975 473 
Q 1284 391 1588 391 
Q 1994 391 2212 530 
Q 2431 669 2431 922 
Q 2431 1156 2273 1281 
Q 2116 1406 1581 1522 
L 1381 1569 
Q 847 1681 609 1914 
Q 372 2147 372 2553 
Q 372 3047 722 3315 
Q 1072 3584 1716 3584 
Q 2034 3584 2315 3537 
Q 2597 3491 2834 3397 
z
" transform="scale(0.015625)"/>
      </defs>
      <use xlink:href="#DejaVuSans-45"/>
      <use xlink:href="#DejaVuSans-70" x="63.183594"/>
      <use xlink:href="#DejaVuSans-6f" x="126.660156"/>
      <use xlink:href="#DejaVuSans-63" x="187.841797"/>
      <use xlink:href="#DejaVuSans-68" x="242.822266"/>
      <use xlink:href="#DejaVuSans-73" x="306.201172"/>
     </g>
    </g>
   </g>
   <g id="matplotlib.axis_2">
    <g id="ytick_1">
     <g id="line2d_13">
      <path d="M 43.78125 216.003287 
L 322.78125 216.003287 
" clip-path="url(#pe3a0d2d706)" style="fill: none; stroke-dasharray: 2.96,1.28; stroke-dashoffset: 0; stroke: #b0b0b0; stroke-opacity: 0.4; stroke-width: 0.8"/>
     </g>
     <g id="line2d_14">
      <defs>
       <path id="ma9cbdf15eb" d="M 0 0 
L -3.5 0 
" style="stroke: #000000; stroke-width: 0.8"/>
      </defs>
      <g>
       <use xlink:href="#ma9cbdf15eb" x="43.78125" y="216.003287" style="stroke: #000000; stroke-width: 0.8"/>
      </g>
     </g>
     <g id="text_8">
      <!-- 0.1 -->
      <g transform="translate(20.878125 219.802506) scale(0.1 -0.1)">
       <defs>
        <path id="DejaVuSans-2e" d="M 684 794 
L 1344 794 
L 1344 0 
L 684 0 
L 684 794 
z
" transform="scale(0.015625)"/>
       </defs>
       <use xlink:href="#DejaVuSans-30"/>
       <use xlink:href="#DejaVuSans-2e" x="63.623047"/>
       <use xlink:href="#DejaVuSans-31" x="95.410156"/>
      </g>
     </g>
    </g>
    <g id="ytick_2">
     <g id="line2d_15">
      <path d="M 43.78125 187.69981 
L 322.78125 187.69981 
" clip-path="url(#pe3a0d2d706)" style="fill: none; stroke-dasharray: 2.96,1.28; stroke-dashoffset: 0; stroke: #b0b0b0; stroke-opacity: 0.4; stroke-width: 0.8"/>
     </g>
     <g id="line2d_16">
      <g>
       <use xlink:href="#ma9cbdf15eb" x="43.78125" y="187.69981" style="stroke: #000000; stroke-width: 0.8"/>
      </g>
     </g>
     <g id="text_9">
      <!-- 0.2 -->
      <g transform="translate(20.878125 191.499028) scale(0.1 -0.1)">
       <use xlink:href="#DejaVuSans-30"/>
       <use xlink:href="#DejaVuSans-2e" x="63.623047"/>
       <use xlink:href="#DejaVuSans-32" x="95.410156"/>
      </g>
     </g>
    </g>
    <g id="ytick_3">
     <g id="line2d_17">
      <path d="M 43.78125 159.396332 
L 322.78125 159.396332 
" clip-path="url(#pe3a0d2d706)" style="fill: none; stroke-dasharray: 2.96,1.28; stroke-dashoffset: 0; stroke: #b0b0b0; stroke-opacity: 0.4; stroke-width: 0.8"/>
     </g>
     <g id="line2d_18">
      <g>
       <use xlink:href="#ma9cbdf15eb" x="43.78125" y="159.396332" style="stroke: #000000; stroke-width: 0.8"/>
      </g>
     </g>
     <g id="text_10">
      <!-- 0.3 -->
      <g transform="translate(20.878125 163.195551) scale(0.1 -0.1)">
       <defs>
        <path id="DejaVuSans-33" d="M 2597 2516 
Q 3050 2419 3304 2112 
Q 3559 1806 3559 1356 
Q 3559 666 3084 287 
Q 2609 -91 1734 -91 
Q 1441 -91 1130 -33 
Q 819 25 488 141 
L 488 750 
Q 750 597 1062 519 
Q 1375 441 1716 441 
Q 2309 441 2620 675 
Q 2931 909 2931 1356 
Q 2931 1769 2642 2001 
Q 2353 2234 1838 2234 
L 1294 2234 
L 1294 2753 
L 1863 2753 
Q 2328 2753 2575 2939 
Q 2822 3125 2822 3475 
Q 2822 3834 2567 4026 
Q 2313 4219 1838 4219 
Q 1578 4219 1281 4162 
Q 984 4106 628 3988 
L 628 4550 
Q 988 4650 1302 4700 
Q 1616 4750 1894 4750 
Q 2613 4750 3031 4423 
Q 3450 4097 3450 3541 
Q 3450 3153 3228 2886 
Q 3006 2619 2597 2516 
z
" transform="scale(0.015625)"/>
       </defs>
       <use xlink:href="#DejaVuSans-30"/>
       <use xlink:href="#DejaVuSans-2e" x="63.623047"/>
       <use xlink:href="#DejaVuSans-33" x="95.410156"/>
      </g>
     </g>
    </g>
    <g id="ytick_4">
     <g id="line2d_19">
      <path d="M 43.78125 131.092854 
L 322.78125 131.092854 
" clip-path="url(#pe3a0d2d706)" style="fill: none; stroke-dasharray: 2.96,1.28; stroke-dashoffset: 0; stroke: #b0b0b0; stroke-opacity: 0.4; stroke-width: 0.8"/>
     </g>
     <g id="line2d_20">
      <g>
       <use xlink:href="#ma9cbdf15eb" x="43.78125" y="131.092854" style="stroke: #000000; stroke-width: 0.8"/>
      </g>
     </g>
     <g id="text_11">
      <!-- 0.4 -->
      <g transform="translate(20.878125 134.892073) scale(0.1 -0.1)">
       <use xlink:href="#DejaVuSans-30"/>
       <use xlink:href="#DejaVuSans-2e" x="63.623047"/>
       <use xlink:href="#DejaVuSans-34" x="95.410156"/>
      </g>
     </g>
    </g>
    <g id="ytick_5">
     <g id="line2d_21">
      <path d="M 43.78125 102.789376 
L 322.78125 102.789376 
" clip-path="url(#pe3a0d2d706)" style="fill: none; stroke-dasharray: 2.96,1.28; stroke-dashoffset: 0; stroke: #b0b0b0; stroke-opacity: 0.4; stroke-width: 0.8"/>
     </g>
     <g id="line2d_22">
      <g>
       <use xlink:href="#ma9cbdf15eb" x="43.78125" y="102.789376" style="stroke: #000000; stroke-width: 0.8"/>
      </g>
     </g>
     <g id="text_12">
      <!-- 0.5 -->
      <g transform="translate(20.878125 106.588595) scale(0.1 -0.1)">
       <defs>
        <path id="DejaVuSans-35" d="M 691 4666 
L 3169 4666 
L 3169 4134 
L 1269 4134 
L 1269 2991 
Q 1406 3038 1543 3061 
Q 1681 3084 1819 3084 
Q 2600 3084 3056 2656 
Q 3513 2228 3513 1497 
Q 3513 744 3044 326 
Q 2575 -91 1722 -91 
Q 1428 -91 1123 -41 
Q 819 9 494 109 
L 494 744 
Q 775 591 1075 516 
Q 1375 441 1709 441 
Q 2250 441 2565 725 
Q 2881 1009 2881 1497 
Q 2881 1984 2565 2268 
Q 2250 2553 1709 2553 
Q 1456 2553 1204 2497 
Q 953 2441 691 2322 
L 691 4666 
z
" transform="scale(0.015625)"/>
       </defs>
       <use xlink:href="#DejaVuSans-30"/>
       <use xlink:href="#DejaVuSans-2e" x="63.623047"/>
       <use xlink:href="#DejaVuSans-35" x="95.410156"/>
      </g>
     </g>
    </g>
    <g id="ytick_6">
     <g id="line2d_23">
      <path d="M 43.78125 74.485899 
L 322.78125 74.485899 
" clip-path="url(#pe3a0d2d706)" style="fill: none; stroke-dasharray: 2.96,1.28; stroke-dashoffset: 0; stroke: #b0b0b0; stroke-opacity: 0.4; stroke-width: 0.8"/>
     </g>
     <g id="line2d_24">
      <g>
       <use xlink:href="#ma9cbdf15eb" x="43.78125" y="74.485899" style="stroke: #000000; stroke-width: 0.8"/>
      </g>
     </g>
     <g id="text_13">
      <!-- 0.6 -->
      <g transform="translate(20.878125 78.285117) scale(0.1 -0.1)">
       <use xlink:href="#DejaVuSans-30"/>
       <use xlink:href="#DejaVuSans-2e" x="63.623047"/>
       <use xlink:href="#DejaVuSans-36" x="95.410156"/>
      </g>
     </g>
    </g>
    <g id="ytick_7">
     <g id="line2d_25">
      <path d="M 43.78125 46.182421 
L 322.78125 46.182421 
" clip-path="url(#pe3a0d2d706)" style="fill: none; stroke-dasharray: 2.96,1.28; stroke-dashoffset: 0; stroke: #b0b0b0; stroke-opacity: 0.4; stroke-width: 0.8"/>
     </g>
     <g id="line2d_26">
      <g>
       <use xlink:href="#ma9cbdf15eb" x="43.78125" y="46.182421" style="stroke: #000000; stroke-width: 0.8"/>
      </g>
     </g>
     <g id="text_14">
      <!-- 0.7 -->
      <g transform="translate(20.878125 49.98164) scale(0.1 -0.1)">
       <defs>
        <path id="DejaVuSans-37" d="M 525 4666 
L 3525 4666 
L 3525 4397 
L 1831 0 
L 1172 0 
L 2766 4134 
L 525 4134 
L 525 4666 
z
" transform="scale(0.015625)"/>
       </defs>
       <use xlink:href="#DejaVuSans-30"/>
       <use xlink:href="#DejaVuSans-2e" x="63.623047"/>
       <use xlink:href="#DejaVuSans-37" x="95.410156"/>
      </g>
     </g>
    </g>
    <g id="text_15">
     <!-- Loss -->
     <g transform="translate(14.798438 149.495187) rotate(-90) scale(0.1 -0.1)">
      <defs>
       <path id="DejaVuSans-4c" d="M 628 4666 
L 1259 4666 
L 1259 531 
L 3531 531 
L 3531 0 
L 628 0 
L 628 4666 
z
" transform="scale(0.015625)"/>
      </defs>
      <use xlink:href="#DejaVuSans-4c"/>
      <use xlink:href="#DejaVuSans-6f" x="53.962891"/>
      <use xlink:href="#DejaVuSans-73" x="115.144531"/>
      <use xlink:href="#DejaVuSans-73" x="167.244141"/>
     </g>
    </g>
   </g>
   <g id="line2d_27">
    <path d="M 56.463068 46.498909 
L 56.970849 48.710051 
L 57.224739 48.653097 
L 57.478629 48.437732 
L 57.98641 49.945488 
L 58.2403 50.202388 
L 59.001971 54.839496 
L 59.255861 59.341626 
L 59.509751 69.17158 
L 60.017532 97.839275 
L 60.271422 104.845245 
L 60.779202 110.991164 
L 61.286983 120.696633 
L 61.540873 121.922362 
L 61.794764 126.80742 
L 62.302544 130.048875 
L 62.556434 128.834432 
L 62.810325 138.644657 
L 63.064215 136.44195 
L 63.318105 128.279049 
L 63.571995 141.014648 
L 63.825886 143.313127 
L 64.079776 144.526743 
L 64.333666 150.000022 
L 64.587556 149.754089 
L 64.841447 148.096542 
L 65.095337 152.283571 
L 65.349227 135.911096 
L 65.603117 148.706163 
L 65.857008 146.72023 
L 66.110898 155.674655 
L 66.364788 158.286118 
L 66.872569 159.79681 
L 67.126459 162.858125 
L 67.380349 160.078424 
L 67.634239 161.185876 
L 67.88813 159.254779 
L 68.14202 158.760187 
L 68.39591 164.261193 
L 68.6498 165.882064 
L 68.903691 155.03444 
L 69.157581 165.965638 
L 69.665361 168.790518 
L 69.919252 169.571945 
L 70.173142 149.800262 
L 70.427032 168.980054 
L 70.680922 172.174028 
L 70.934813 163.13849 
L 71.188703 161.649317 
L 71.696483 176.148694 
L 71.950374 162.427631 
L 72.458154 176.388276 
L 72.712044 175.234221 
L 72.965935 176.639368 
L 73.219825 181.057463 
L 73.473715 179.751179 
L 73.727605 182.766612 
L 73.981496 181.02013 
L 74.235386 180.184899 
L 74.743166 181.603556 
L 74.997057 183.339949 
L 75.250947 179.778522 
L 75.504837 179.266073 
L 76.012618 187.524329 
L 76.266508 188.305259 
L 76.520398 188.250009 
L 76.774288 189.919314 
L 77.028179 177.10008 
L 77.535959 186.975234 
L 77.78985 188.098999 
L 78.04374 191.057056 
L 78.29763 189.564905 
L 78.55152 192.41608 
L 78.805411 192.006375 
L 79.059301 194.618825 
L 79.313191 195.486843 
L 79.820972 195.083173 
L 80.074862 197.045833 
L 80.328752 201.099157 
L 80.582642 202.531723 
L 80.836533 202.422775 
L 81.090423 203.938317 
L 81.344313 201.534944 
L 81.598203 204.308356 
L 81.852094 201.82773 
L 82.105984 205.245331 
L 82.359874 205.241214 
L 82.613764 205.806383 
L 82.867655 204.17706 
L 83.121545 204.16102 
L 83.375435 203.914142 
L 83.883216 205.552651 
L 84.137106 208.623632 
L 84.390996 207.516378 
L 84.644886 205.498497 
L 84.898777 207.13674 
L 85.152667 206.784001 
L 85.406557 207.872622 
L 85.914338 205.177879 
L 86.422118 209.923058 
L 86.676008 208.397513 
L 86.929899 208.746143 
L 87.183789 208.491328 
L 87.437679 210.18819 
L 87.691569 208.575455 
L 87.94546 211.125808 
L 88.19935 209.278938 
L 88.45324 209.737377 
L 88.70713 210.933393 
L 88.961021 211.067363 
L 89.214911 210.253039 
L 89.468801 211.006487 
L 89.722691 212.739682 
L 89.976582 211.953225 
L 90.230472 211.743025 
L 90.484362 208.561276 
L 90.738252 215.483061 
L 90.992143 212.860036 
L 91.246033 214.040044 
L 91.499923 212.618431 
L 91.753813 212.236279 
L 92.007704 215.17433 
L 92.261594 213.163163 
L 92.515484 210.133855 
L 92.769374 215.252901 
L 93.023265 217.102544 
L 93.277155 216.500827 
L 93.531045 217.312105 
L 93.784936 218.73182 
L 94.038826 214.918814 
L 94.546606 218.745721 
L 94.800497 218.161285 
L 95.308277 215.937666 
L 95.562167 218.381239 
L 95.816058 217.451504 
L 96.069948 214.407047 
L 96.577728 218.05234 
L 96.831619 219.081301 
L 97.085509 218.613896 
L 97.339399 218.999215 
L 97.593289 220.630688 
L 97.84718 218.527366 
L 98.10107 218.182797 
L 98.60885 219.698851 
L 98.862741 219.728393 
L 99.116631 221.400072 
L 99.370521 217.836024 
L 99.624411 221.129801 
L 99.878302 220.306709 
L 100.132192 219.902774 
L 100.386082 220.754503 
L 100.639972 220.873995 
L 100.893863 219.360581 
L 101.147753 221.707565 
L 101.401643 219.264258 
L 101.655533 222.262641 
L 101.909424 220.241 
L 102.163314 221.728301 
L 102.417204 219.864132 
L 102.671094 221.405148 
L 102.924985 221.762885 
L 103.178875 222.532165 
L 103.432765 222.164431 
L 103.686655 222.13782 
L 103.940546 221.348319 
L 104.194436 221.495492 
L 104.448326 223.054943 
L 104.702216 219.753599 
L 104.956107 222.99238 
L 105.209997 222.498016 
L 105.463887 223.178487 
L 105.717777 223.234513 
L 105.971668 225.298676 
L 106.225558 223.375044 
L 106.479448 223.869227 
L 106.733338 222.21428 
L 106.987229 222.566188 
L 107.241119 223.214727 
L 107.495009 222.93151 
L 107.748899 223.031789 
L 108.00279 225.22757 
L 108.25668 225.482015 
L 108.51057 224.654671 
L 108.76446 224.667347 
L 109.018351 222.449071 
L 109.526131 222.313827 
L 109.780021 225.062784 
L 110.033912 223.336331 
L 110.287802 227.264157 
L 110.541692 224.469995 
L 110.795583 223.539248 
L 111.049473 223.933348 
L 111.303363 224.005742 
L 111.557253 225.003536 
L 111.811144 223.099921 
L 112.065034 223.056579 
L 112.318924 225.384374 
L 112.572814 225.929165 
L 112.826705 224.237319 
L 113.080595 224.624425 
L 113.334485 226.270569 
L 113.588375 224.208777 
L 113.842266 223.402003 
L 114.096156 224.085547 
L 114.350046 225.100668 
L 114.603936 223.770551 
L 114.857827 223.810717 
L 115.111717 225.278878 
L 115.365607 224.029736 
L 115.619497 224.088282 
L 115.873388 225.297788 
L 116.127278 222.359609 
L 116.381168 224.688958 
L 116.635058 225.095869 
L 116.888949 226.259249 
L 117.142839 223.784091 
L 117.396729 223.647966 
L 117.650619 225.934266 
L 117.90451 224.045539 
L 118.1584 225.454729 
L 118.41229 225.667506 
L 118.66618 226.163838 
L 118.920071 224.646156 
L 119.173961 226.940367 
L 119.427851 225.648734 
L 119.681741 226.456938 
L 119.935632 226.73984 
L 120.189522 226.479585 
L 120.443412 224.866145 
L 120.697302 225.235872 
L 120.951193 224.119055 
L 121.205083 225.43761 
L 121.712863 226.422169 
L 121.966754 225.57389 
L 122.474534 225.450604 
L 122.728424 224.563405 
L 122.982315 227.853968 
L 123.236205 226.366432 
L 123.490095 226.488619 
L 123.743985 227.222254 
L 123.997876 225.899318 
L 124.251766 225.676507 
L 124.505656 226.631952 
L 124.759546 224.026653 
L 125.013437 226.307224 
L 125.267327 226.765059 
L 125.521217 226.029663 
L 125.775107 226.984869 
L 126.028998 227.115788 
L 126.282888 225.693099 
L 126.536778 226.206313 
L 126.790669 226.000106 
L 127.044559 225.469491 
L 127.298449 227.623676 
L 127.552339 228.007741 
L 128.06012 226.246091 
L 128.31401 223.354043 
L 128.5679 227.763956 
L 128.821791 225.285158 
L 129.075681 227.676426 
L 129.329571 228.332757 
L 129.583461 226.004191 
L 129.837352 228.185609 
L 130.091242 225.215219 
L 130.345132 224.945319 
L 130.599022 228.079389 
L 131.106803 226.170453 
L 131.360693 227.860244 
L 131.614583 226.163336 
L 131.868474 226.853299 
L 132.122364 227.18956 
L 132.376254 226.9769 
L 132.630144 225.956982 
L 132.884035 225.511727 
L 133.137925 228.623763 
L 133.391815 228.675799 
L 133.645705 227.807188 
L 133.899596 227.667698 
L 134.153486 227.949751 
L 134.407376 227.466167 
L 134.661266 227.906985 
L 134.915157 225.923744 
L 135.169047 228.205627 
L 135.422937 226.589213 
L 135.676827 226.295965 
L 135.930718 228.287912 
L 136.438498 226.296273 
L 136.692388 228.190697 
L 136.946279 227.086424 
L 137.200169 228.675631 
L 137.707949 226.229014 
L 137.96184 228.231514 
L 138.21573 228.181242 
L 138.46962 228.946409 
L 138.72351 228.218329 
L 138.977401 228.150688 
L 139.231291 228.683425 
L 139.485181 226.085297 
L 139.992962 228.264672 
L 140.246852 226.99469 
L 140.500742 226.293844 
L 140.754632 226.950768 
L 141.262413 229.385653 
L 141.516303 227.242236 
L 141.770193 227.706036 
L 142.024084 227.597193 
L 142.277974 228.187596 
L 142.531864 227.310691 
L 142.785755 227.620696 
L 143.039645 226.62899 
L 143.293535 226.426098 
L 143.547425 227.634945 
L 143.801316 227.663408 
L 144.055206 228.820863 
L 144.309096 228.75367 
L 144.562986 229.037017 
L 145.070767 224.684476 
L 145.324657 226.855468 
L 145.832438 228.530485 
L 146.086328 227.698874 
L 146.340218 227.542777 
L 146.594108 226.67903 
L 146.847999 226.626376 
L 147.101889 227.217396 
L 147.355779 226.848317 
L 147.609669 227.272844 
L 147.86356 225.5152 
L 148.11745 227.651016 
L 148.37134 227.361733 
L 148.62523 228.929645 
L 148.879121 226.935445 
L 149.133011 229.881007 
L 149.386901 227.510096 
L 149.640791 227.438568 
L 149.894682 228.096222 
L 150.148572 227.728511 
L 150.402462 229.6185 
L 150.910243 226.73252 
L 151.164133 227.031303 
L 151.418023 228.238228 
L 151.671913 227.105487 
L 151.925804 228.119132 
L 152.179694 227.2706 
L 152.433584 227.616317 
L 152.687474 228.387335 
L 152.941365 227.678456 
L 153.449145 229.390167 
L 153.703035 228.047097 
L 153.956926 227.768817 
L 154.464706 228.50538 
L 154.718596 227.914167 
L 154.972487 228.967173 
L 155.226377 228.917908 
L 155.480267 229.361096 
L 155.734157 228.626777 
L 155.988048 230.557091 
L 156.241938 228.211984 
L 156.495828 228.154409 
L 156.749718 227.915801 
L 157.003609 226.664277 
L 157.511389 229.459511 
L 157.765279 226.49811 
L 158.01917 228.200958 
L 158.27306 228.02102 
L 158.52695 225.781813 
L 159.034731 229.122311 
L 159.288621 229.902879 
L 159.542511 229.764558 
L 159.796402 226.857611 
L 160.050292 229.104849 
L 160.304182 227.687933 
L 160.811963 228.570745 
L 161.065853 226.970294 
L 161.319743 229.697593 
L 161.827524 227.630182 
L 162.081414 229.468477 
L 162.335304 224.702009 
L 162.589194 227.808471 
L 162.843085 228.818701 
L 163.096975 227.843424 
L 163.350865 228.812227 
L 163.604755 227.200456 
L 163.858646 229.397105 
L 164.112536 228.157625 
L 164.366426 227.575666 
L 164.874207 228.950793 
L 165.128097 227.031656 
L 165.381987 227.882892 
L 165.635877 227.314651 
L 166.143658 229.584545 
L 166.651438 229.128595 
L 166.905329 227.953458 
L 167.159219 229.36282 
L 167.666999 227.610442 
L 167.92089 229.975005 
L 168.17478 227.681303 
L 168.68256 229.675515 
L 168.936451 228.592539 
L 169.190341 226.923805 
L 169.444231 228.341088 
L 169.698121 226.99509 
L 169.952012 229.209815 
L 170.205902 227.649865 
L 170.459792 228.623891 
L 170.713682 227.157492 
L 170.967573 227.270109 
L 171.475353 229.401661 
L 171.729243 230.52455 
L 171.983134 228.510896 
L 172.237024 228.879369 
L 172.490914 227.408192 
L 172.744804 228.308818 
L 172.998695 228.086447 
L 173.506475 227.989436 
L 173.760365 227.051717 
L 174.014256 230.491547 
L 174.268146 228.534875 
L 174.522036 227.797251 
L 175.029817 227.076201 
L 175.283707 228.474603 
L 175.537597 228.282406 
L 175.791488 229.06254 
L 176.299268 228.016283 
L 176.553158 228.002413 
L 176.807049 229.435252 
L 177.060939 228.179116 
L 177.314829 228.873907 
L 177.568719 229.082368 
L 177.82261 226.963013 
L 178.0765 229.208434 
L 178.58428 226.766833 
L 178.838171 228.0531 
L 179.092061 228.748158 
L 179.599841 229.494012 
L 179.853732 229.010617 
L 180.107622 227.484588 
L 180.361512 227.138379 
L 180.615402 227.703459 
L 180.869293 226.318734 
L 181.123183 226.213455 
L 181.377073 227.793122 
L 181.630963 227.660414 
L 181.884854 228.618162 
L 182.138744 228.783808 
L 182.392634 226.969002 
L 182.646524 227.085482 
L 183.154305 228.608768 
L 183.408195 228.348741 
L 183.662085 228.313883 
L 183.915976 229.554891 
L 184.169866 226.903573 
L 184.423756 228.916276 
L 184.677646 228.779638 
L 184.931537 228.908215 
L 185.185427 227.634889 
L 185.439317 228.449417 
L 185.693207 228.85916 
L 185.947098 228.513991 
L 186.200988 227.677595 
L 186.708768 228.505623 
L 187.216549 227.853987 
L 187.470439 227.857455 
L 187.724329 227.086558 
L 187.97822 226.887062 
L 188.23211 228.464954 
L 188.73989 227.85315 
L 188.993781 228.876406 
L 189.247671 228.217241 
L 189.501561 228.91562 
L 189.755451 228.579911 
L 190.009342 229.223705 
L 190.263232 226.175894 
L 190.517122 229.222103 
L 190.771012 227.671112 
L 191.024903 228.927436 
L 191.278793 229.246725 
L 191.532683 229.117569 
L 191.786574 228.72001 
L 192.040464 228.571379 
L 192.294354 228.030733 
L 192.548244 226.88133 
L 193.056025 230.481992 
L 193.309915 228.028096 
L 193.563805 228.578605 
L 193.817696 227.732909 
L 194.071586 229.225929 
L 194.325476 228.581906 
L 194.579366 228.955193 
L 194.833257 227.842799 
L 195.087147 229.469395 
L 195.341037 227.810849 
L 195.594927 227.64012 
L 195.848818 228.098729 
L 196.102708 227.494983 
L 196.356598 229.032159 
L 196.610488 229.258842 
L 196.864379 227.839176 
L 197.118269 228.587628 
L 197.372159 228.928664 
L 197.626049 227.986744 
L 197.87994 228.687213 
L 198.13383 227.719213 
L 198.38772 228.625031 
L 198.64161 228.848278 
L 198.895501 227.511231 
L 199.149391 228.477638 
L 199.403281 228.067476 
L 199.657171 228.871505 
L 199.911062 227.649547 
L 200.164952 229.344486 
L 200.418842 227.380769 
L 200.672732 227.905338 
L 200.926623 228.095199 
L 201.180513 229.599904 
L 201.434403 227.209049 
L 201.688293 227.359119 
L 201.942184 227.676985 
L 202.196074 226.958886 
L 202.449964 229.113417 
L 202.703854 228.283207 
L 203.211635 228.529612 
L 203.465525 228.537411 
L 203.973306 226.07977 
L 204.481086 228.513143 
L 204.734976 228.58342 
L 204.988867 227.473151 
L 205.496647 229.565236 
L 205.750537 228.583996 
L 206.004428 228.437596 
L 206.258318 229.158526 
L 206.512208 226.075942 
L 206.766098 228.844417 
L 207.019989 229.116879 
L 207.273879 228.796672 
L 207.527769 227.343549 
L 208.03555 228.996856 
L 208.28944 228.588978 
L 208.54333 228.568721 
L 208.797221 228.006443 
L 209.051111 229.349274 
L 209.305001 228.59183 
L 209.558891 226.877647 
L 209.812782 228.901884 
L 210.066672 229.708419 
L 210.320562 228.349128 
L 210.574452 229.009557 
L 210.828343 228.174939 
L 211.082233 228.181001 
L 211.336123 229.529241 
L 211.590013 228.711511 
L 211.843904 228.703314 
L 212.097794 228.471221 
L 212.351684 227.61956 
L 212.605574 227.743131 
L 212.859465 226.731215 
L 213.113355 230.181164 
L 213.367245 226.813285 
L 213.621135 227.424116 
L 213.875026 228.693286 
L 214.128916 227.059372 
L 214.382806 228.573892 
L 214.636696 229.071517 
L 214.890587 228.70035 
L 215.144477 227.199073 
L 215.652257 228.121545 
L 215.906148 228.232117 
L 216.160038 228.709979 
L 216.413928 226.308434 
L 216.667818 228.250792 
L 216.921709 228.307117 
L 217.175599 226.133632 
L 217.429489 228.381808 
L 217.683379 227.785524 
L 217.93727 227.711492 
L 218.19116 230.171299 
L 218.44505 228.696913 
L 218.69894 228.889471 
L 218.952831 230.19704 
L 219.206721 229.973872 
L 219.460611 227.900566 
L 219.714501 227.465587 
L 220.222282 229.588103 
L 220.476172 229.713621 
L 220.730062 226.165219 
L 220.983953 229.629495 
L 221.237843 229.391429 
L 221.491733 228.289023 
L 221.745623 227.966706 
L 221.999514 228.965902 
L 222.253404 228.97584 
L 222.761184 227.374253 
L 223.015075 228.182014 
L 223.268965 227.52873 
L 223.522855 229.225062 
L 223.776745 228.37071 
L 224.030636 228.6213 
L 224.284526 227.068204 
L 224.538416 226.762146 
L 224.792307 229.273776 
L 225.046197 226.853121 
L 225.300087 229.529206 
L 225.807868 226.783192 
L 226.061758 228.022349 
L 226.315648 227.997862 
L 226.569538 227.558107 
L 226.823429 227.513537 
L 227.077319 228.511291 
L 227.331209 227.286812 
L 227.585099 227.615586 
L 228.09288 228.915645 
L 228.34677 226.866632 
L 228.60066 228.166379 
L 228.854551 228.295811 
L 229.108441 227.45184 
L 229.362331 228.46249 
L 229.616221 228.74701 
L 229.870112 227.15815 
L 230.124002 226.858683 
L 230.377892 227.968689 
L 230.631782 226.673453 
L 230.885673 227.748535 
L 231.139563 226.52855 
L 231.393453 228.534622 
L 231.647343 227.683632 
L 231.901234 228.604735 
L 232.155124 227.622208 
L 232.409014 228.687335 
L 232.662904 226.741395 
L 232.916795 227.675513 
L 233.170685 225.81566 
L 233.424575 227.938566 
L 233.678465 227.90452 
L 233.932356 225.922116 
L 234.440136 229.209546 
L 234.947917 227.479653 
L 235.201807 227.790547 
L 235.455697 227.851577 
L 235.709587 227.20095 
L 235.963478 227.824742 
L 236.217368 226.281914 
L 236.471258 226.965023 
L 236.725148 229.351363 
L 236.979039 229.213441 
L 237.486819 227.374841 
L 237.740709 228.57783 
L 237.9946 228.118344 
L 238.24849 228.659619 
L 238.50238 226.669776 
L 239.010161 229.461778 
L 239.264051 226.299554 
L 240.025722 228.285073 
L 240.279612 227.975 
L 240.533502 229.109723 
L 240.787393 228.58929 
L 241.041283 229.141876 
L 241.549063 226.530923 
L 242.056844 228.665697 
L 242.310734 228.153561 
L 242.564624 228.933692 
L 242.818515 228.965584 
L 243.072405 227.255023 
L 243.326295 227.395931 
L 243.580185 227.142108 
L 243.834076 230.066601 
L 244.341856 226.665449 
L 244.849637 229.355105 
L 245.103527 228.117051 
L 245.357417 228.199043 
L 245.611307 227.876321 
L 246.119088 228.868536 
L 246.372978 228.893019 
L 246.626868 226.568366 
L 246.880759 227.913835 
L 247.134649 228.496996 
L 247.388539 228.598521 
L 247.642429 228.859814 
L 247.89632 229.512586 
L 248.15021 228.334221 
L 248.4041 229.042146 
L 248.65799 227.411322 
L 248.911881 227.216334 
L 249.165771 228.67672 
L 249.673551 228.416924 
L 249.927442 229.037921 
L 250.181332 227.868902 
L 250.435222 230.541447 
L 250.689112 229.788154 
L 251.196893 227.261588 
L 251.450783 229.226577 
L 251.704673 229.154146 
L 251.958564 227.293499 
L 252.212454 229.53546 
L 252.466344 229.170153 
L 252.974125 229.766529 
L 253.481905 227.173063 
L 253.989686 227.76617 
L 254.497466 228.475377 
L 254.751356 227.414442 
L 255.005247 229.166239 
L 255.259137 228.563633 
L 255.513027 229.335187 
L 255.766917 228.27297 
L 256.020808 228.626393 
L 256.274698 229.678224 
L 256.528588 227.786744 
L 256.782479 229.153791 
L 257.036369 229.714078 
L 257.544149 227.147049 
L 257.79804 226.660132 
L 258.05193 228.980916 
L 258.30582 229.260198 
L 258.55971 228.038685 
L 258.813601 229.756538 
L 259.067491 226.400518 
L 259.321381 228.257319 
L 259.575271 228.739001 
L 259.829162 226.133202 
L 260.083052 229.16035 
L 260.336942 226.981486 
L 260.590832 228.850659 
L 260.844723 228.440785 
L 261.098613 228.866551 
L 261.352503 227.342557 
L 261.606393 227.388097 
L 261.860284 226.012711 
L 262.114174 228.323643 
L 262.368064 228.35017 
L 262.621954 227.851844 
L 262.875845 229.643591 
L 263.129735 227.607919 
L 263.383625 226.852665 
L 263.891406 229.306264 
L 264.145296 227.148857 
L 264.399186 227.517142 
L 264.653076 228.939165 
L 264.906967 226.854989 
L 265.160857 228.51077 
L 265.414747 228.910734 
L 265.668637 227.853861 
L 265.922528 228.28658 
L 266.430308 227.220543 
L 266.684198 229.044719 
L 266.938089 227.611614 
L 267.191979 227.986005 
L 267.445869 229.050684 
L 267.95365 228.465348 
L 268.20754 228.987169 
L 268.46143 229.863381 
L 268.71532 226.867097 
L 268.969211 227.932896 
L 269.223101 226.344977 
L 269.730881 228.19705 
L 269.984772 229.03452 
L 270.238662 228.036258 
L 270.492552 228.670608 
L 270.746442 227.692183 
L 271.000333 227.202676 
L 271.254223 230.247255 
L 271.508113 226.662034 
L 271.762003 228.37508 
L 272.269784 228.61873 
L 272.523674 229.141026 
L 272.777564 225.943226 
L 273.031455 228.683393 
L 273.285345 228.808484 
L 273.539235 227.447675 
L 274.047016 229.706939 
L 274.300906 227.455927 
L 274.554796 229.605042 
L 274.808687 227.339077 
L 275.062577 229.876978 
L 275.316467 228.060663 
L 275.570357 227.906849 
L 275.824248 228.781081 
L 276.078138 226.680346 
L 276.332028 228.668365 
L 276.585918 229.600184 
L 276.839809 229.519977 
L 277.093699 227.318196 
L 277.347589 228.505345 
L 277.601479 228.693173 
L 277.85537 227.958711 
L 278.10926 226.865325 
L 278.36315 229.596677 
L 278.61704 226.654241 
L 278.870931 229.325972 
L 279.124821 225.385279 
L 279.378711 227.710292 
L 279.632601 227.89518 
L 279.886492 227.740319 
L 280.140382 228.193898 
L 280.394272 228.893916 
L 280.648162 227.489119 
L 280.902053 228.038276 
L 281.155943 227.403433 
L 281.409833 229.498748 
L 281.663723 228.373047 
L 281.917614 229.114587 
L 282.171504 228.916443 
L 282.425394 227.971826 
L 282.679284 228.706242 
L 282.933175 228.405642 
L 283.187065 228.436571 
L 283.440955 229.122328 
L 283.694845 228.16179 
L 283.948736 228.835758 
L 284.202626 227.513979 
L 284.456516 227.52981 
L 284.710406 229.26863 
L 284.964297 227.052315 
L 285.218187 228.878845 
L 285.472077 228.765516 
L 285.725967 227.611038 
L 285.979858 229.268279 
L 286.233748 227.416675 
L 286.487638 230.381404 
L 286.741528 228.026425 
L 286.995419 229.248909 
L 287.249309 227.737466 
L 287.503199 228.558109 
L 287.757089 228.496628 
L 288.01098 228.787808 
L 288.26487 229.373492 
L 288.51876 226.900476 
L 288.77265 226.939823 
L 289.026541 226.663775 
L 289.280431 228.507705 
L 289.534321 227.906271 
L 289.788212 226.178724 
L 290.042102 228.038757 
L 290.295992 227.427151 
L 290.549882 227.185938 
L 290.803773 226.656866 
L 291.057663 228.217892 
L 291.311553 228.848127 
L 291.565443 229.023269 
L 291.819334 229.053595 
L 292.073224 228.58255 
L 292.581004 226.947693 
L 292.834895 229.009715 
L 293.088785 228.733937 
L 293.342675 227.832372 
L 293.596565 228.738455 
L 293.850456 228.768654 
L 294.104346 229.207543 
L 294.358236 227.548304 
L 294.612126 228.050424 
L 294.866017 229.464649 
L 295.119907 228.319981 
L 295.373797 229.306764 
L 295.881578 229.103977 
L 296.135468 227.740549 
L 296.389358 228.061573 
L 296.643248 229.074702 
L 297.151029 227.611709 
L 297.404919 227.511005 
L 297.658809 225.959268 
L 298.16659 227.86852 
L 298.42048 228.129262 
L 298.67437 227.107913 
L 298.928261 227.807387 
L 299.182151 227.998188 
L 299.689931 228.9394 
L 299.943822 227.672603 
L 300.197712 227.880678 
L 300.451602 228.558378 
L 300.705492 228.29607 
L 300.959383 227.119336 
L 301.213273 227.39618 
L 301.467163 226.225361 
L 301.721053 229.717363 
L 301.974944 227.869384 
L 302.228834 227.204746 
L 302.482724 228.613094 
L 302.736614 227.091415 
L 302.990505 224.810227 
L 303.244395 229.304677 
L 303.752175 229.561676 
L 304.006066 230.051361 
L 304.259956 227.947301 
L 304.513846 229.730375 
L 304.767736 227.515207 
L 305.021627 229.069623 
L 305.275517 229.633432 
L 305.783298 227.868638 
L 306.037188 227.872042 
L 306.544968 227.392916 
L 306.798859 226.535286 
L 307.052749 227.366063 
L 307.306639 227.702539 
L 307.560529 227.744884 
L 308.06831 228.42842 
L 308.3222 229.393354 
L 308.57609 227.882367 
L 308.829981 227.759281 
L 309.083871 228.194572 
L 309.337761 227.773274 
L 309.591651 227.063675 
L 309.845542 227.289197 
L 310.099432 229.867959 
L 310.099432 229.867959 
" clip-path="url(#pe3a0d2d706)" style="fill: none; stroke: #0000ff; stroke-width: 0.6; stroke-linecap: square"/>
   </g>
   <g id="line2d_28">
    <path d="M 56.463068 47.225997 
L 56.716958 48.363352 
L 56.970849 47.141444 
L 57.224739 48.620217 
L 57.478629 48.492324 
L 57.732519 48.654345 
L 58.2403 50.791511 
L 58.49419 50.282656 
L 59.001971 58.130026 
L 59.255861 64.514194 
L 59.763641 102.64851 
L 60.017532 112.344971 
L 60.271422 111.028076 
L 60.525312 122.490035 
L 60.779202 125.935214 
L 61.033093 125.25877 
L 61.286983 119.373428 
L 61.540873 120.96422 
L 61.794764 126.113929 
L 62.048654 115.791179 
L 62.302544 133.598624 
L 62.556434 134.038547 
L 62.810325 139.02513 
L 63.064215 52.635389 
L 63.318105 142.564259 
L 63.571995 144.79368 
L 63.825886 139.195148 
L 64.079776 144.970108 
L 64.333666 148.079157 
L 64.587556 143.872956 
L 64.841447 149.23932 
L 65.095337 128.6508 
L 65.603117 149.538116 
L 65.857008 144.028102 
L 66.110898 147.873872 
L 66.618678 142.042734 
L 66.872569 150.921843 
L 67.380349 140.230185 
L 67.634239 140.622804 
L 67.88813 149.168954 
L 68.14202 139.149776 
L 68.39591 145.910832 
L 68.6498 144.78737 
L 68.903691 141.548826 
L 69.157581 147.191068 
L 69.411471 148.919723 
L 69.665361 142.456509 
L 69.919252 146.868468 
L 70.173142 134.238012 
L 70.427032 143.3952 
L 70.680922 140.068501 
L 70.934813 134.833741 
L 71.188703 143.620257 
L 71.442593 143.199397 
L 71.696483 143.080757 
L 71.950374 129.666672 
L 72.204264 140.275768 
L 72.458154 146.219076 
L 72.712044 134.579161 
L 72.965935 144.585552 
L 73.219825 147.150538 
L 73.473715 142.533994 
L 73.727605 133.492746 
L 74.235386 145.427088 
L 74.489276 134.599312 
L 74.743166 140.87568 
L 74.997057 138.633919 
L 75.250947 137.853934 
L 75.504837 138.639267 
L 75.758727 142.030546 
L 76.012618 138.620828 
L 76.266508 138.626496 
L 76.520398 137.141852 
L 76.774288 142.724737 
L 77.028179 131.126584 
L 77.282069 140.551578 
L 77.535959 135.535329 
L 77.78985 134.52828 
L 78.04374 139.938744 
L 78.29763 134.006637 
L 78.55152 139.3141 
L 78.805411 139.728583 
L 79.059301 138.794346 
L 79.313191 122.389008 
L 79.567081 126.554182 
L 79.820972 133.260596 
L 80.328752 136.569109 
L 80.836533 134.668666 
L 81.090423 134.958656 
L 81.344313 137.351608 
L 81.598203 129.995641 
L 81.852094 131.310419 
L 82.105984 136.126436 
L 82.359874 131.956623 
L 82.613764 135.139142 
L 82.867655 123.977159 
L 83.121545 123.80952 
L 83.629325 130.693889 
L 83.883216 127.849795 
L 84.137106 128.057855 
L 84.390996 128.823652 
L 84.644886 123.096544 
L 84.898777 125.300803 
L 85.406557 119.574724 
L 85.914338 123.974991 
L 86.168228 124.856223 
L 86.422118 109.11449 
L 86.929899 122.14019 
L 87.183789 113.268917 
L 87.437679 115.729991 
L 87.691569 112.915403 
L 87.94546 112.021899 
L 88.19935 111.723313 
L 88.45324 108.702073 
L 88.70713 116.204111 
L 88.961021 110.822698 
L 89.214911 113.039829 
L 89.468801 109.45138 
L 89.722691 114.440206 
L 89.976582 106.797902 
L 90.230472 107.271886 
L 90.484362 110.489757 
L 90.738252 97.124283 
L 90.992143 107.884527 
L 91.246033 108.116045 
L 91.499923 109.39322 
L 91.753813 112.049178 
L 92.007704 105.856225 
L 92.261594 108.809486 
L 92.515484 107.930431 
L 92.769374 103.958885 
L 93.023265 101.879027 
L 93.277155 103.307907 
L 93.531045 102.929838 
L 94.038826 100.952517 
L 94.292716 102.860341 
L 94.546606 103.2666 
L 94.800497 100.598884 
L 95.054387 103.187774 
L 95.308277 96.918838 
L 95.562167 98.069992 
L 95.816058 100.094887 
L 96.069948 101.079262 
L 96.577728 99.157799 
L 97.085509 100.426521 
L 97.339399 98.880453 
L 97.593289 99.600607 
L 97.84718 105.003335 
L 98.10107 93.777255 
L 98.35496 92.663806 
L 98.60885 99.451475 
L 98.862741 94.048915 
L 99.116631 96.538938 
L 99.370521 96.90573 
L 99.624411 100.284761 
L 99.878302 96.769334 
L 100.132192 96.38763 
L 100.386082 94.670531 
L 100.639972 91.529066 
L 100.893863 93.882896 
L 101.147753 93.8059 
L 101.401643 95.882232 
L 101.655533 93.019598 
L 101.909424 93.900677 
L 102.163314 93.244612 
L 102.417204 93.413534 
L 102.671094 95.820623 
L 102.924985 88.270033 
L 103.178875 88.574725 
L 103.432765 91.868022 
L 103.686655 92.402368 
L 103.940546 91.403569 
L 104.194436 95.94391 
L 104.702216 89.77649 
L 104.956107 89.948498 
L 105.209997 91.810107 
L 105.463887 90.552097 
L 105.717777 91.578715 
L 105.971668 91.375632 
L 106.479448 88.604096 
L 106.733338 91.579778 
L 106.987229 91.605134 
L 107.495009 90.740115 
L 107.748899 92.277478 
L 108.00279 86.205712 
L 108.25668 84.935876 
L 108.76446 86.927216 
L 109.018351 85.801486 
L 109.272241 87.214162 
L 109.526131 86.609416 
L 109.780021 87.958947 
L 110.033912 86.996772 
L 110.287802 84.495109 
L 110.541692 86.584111 
L 110.795583 82.402227 
L 111.049473 84.989287 
L 111.303363 84.843833 
L 111.557253 85.797589 
L 112.065034 83.682067 
L 112.318924 82.455824 
L 112.572814 82.818432 
L 112.826705 76.490661 
L 113.080595 86.315605 
L 113.334485 81.582691 
L 113.588375 82.263656 
L 113.842266 81.66662 
L 114.096156 82.314283 
L 114.350046 85.963625 
L 114.603936 83.992884 
L 114.857827 83.53172 
L 115.111717 81.934097 
L 115.365607 86.518958 
L 115.619497 82.888544 
L 115.873388 82.979137 
L 116.635058 80.096849 
L 116.888949 83.32118 
L 117.142839 81.557976 
L 117.650619 83.203764 
L 117.90451 82.029683 
L 118.1584 83.648951 
L 118.41229 82.144535 
L 118.920071 80.898604 
L 119.173961 82.069429 
L 119.427851 81.251225 
L 119.681741 81.864524 
L 119.935632 83.073003 
L 120.189522 82.516 
L 120.443412 80.910498 
L 120.697302 80.185586 
L 120.951193 80.466812 
L 121.205083 80.555414 
L 121.458973 80.46855 
L 121.712863 80.678617 
L 121.966754 81.071777 
L 122.220644 80.900949 
L 122.474534 81.04912 
L 122.728424 80.436884 
L 122.982315 78.372429 
L 123.236205 78.361058 
L 123.490095 80.310628 
L 123.997876 78.565137 
L 124.251766 80.676357 
L 124.505656 80.321863 
L 124.759546 80.948102 
L 125.013437 79.669021 
L 125.267327 80.659385 
L 125.521217 79.92479 
L 125.775107 77.721695 
L 126.028998 76.957627 
L 126.282888 75.000163 
L 126.536778 79.257034 
L 126.790669 80.025775 
L 127.044559 79.208617 
L 127.552339 78.624486 
L 128.06012 76.06759 
L 128.31401 77.549012 
L 128.5679 76.91034 
L 129.075681 78.737297 
L 129.329571 76.357656 
L 129.583461 77.349657 
L 129.837352 76.242213 
L 130.091242 73.768555 
L 130.599022 76.609714 
L 130.852913 76.138867 
L 131.106803 74.484542 
L 131.360693 76.60855 
L 131.614583 75.014334 
L 131.868474 76.605277 
L 132.122364 75.565466 
L 132.630144 74.670924 
L 132.884035 75.461664 
L 133.391815 75.865536 
L 133.645705 75.687437 
L 133.899596 75.677602 
L 134.153486 75.253806 
L 134.407376 74.526094 
L 134.661266 76.256266 
L 134.915157 74.274357 
L 135.169047 73.408984 
L 135.422937 73.217591 
L 135.676827 73.876895 
L 135.930718 73.603446 
L 136.184608 73.77893 
L 136.438498 73.394509 
L 136.692388 74.222413 
L 136.946279 73.610295 
L 137.200169 74.511029 
L 137.96184 74.154157 
L 138.21573 73.050003 
L 138.46962 73.604256 
L 138.72351 72.69912 
L 138.977401 73.908544 
L 139.231291 73.601152 
L 139.485181 74.417365 
L 139.739071 73.959441 
L 139.992962 71.431899 
L 140.246852 72.64716 
L 140.500742 71.34964 
L 140.754632 70.736965 
L 141.008523 70.845424 
L 141.262413 70.818094 
L 141.516303 71.459583 
L 141.770193 71.642591 
L 142.024084 71.481025 
L 142.277974 70.860151 
L 142.531864 71.1985 
L 142.785755 71.75719 
L 143.039645 73.482538 
L 143.293535 74.023649 
L 143.547425 73.295076 
L 143.801316 73.111984 
L 144.055206 73.174302 
L 144.562986 71.672687 
L 144.816877 72.729925 
L 145.070767 72.650888 
L 145.324657 72.995546 
L 145.578547 72.687547 
L 145.832438 71.703711 
L 146.086328 71.832262 
L 146.340218 72.105104 
L 146.594108 72.075361 
L 146.847999 72.545601 
L 147.101889 72.548857 
L 147.355779 72.790202 
L 147.609669 71.906879 
L 147.86356 72.623896 
L 148.11745 72.180513 
L 148.37134 72.392555 
L 148.62523 72.829223 
L 148.879121 71.945309 
L 149.133011 71.987502 
L 149.386901 72.890647 
L 149.640791 72.067601 
L 149.894682 72.249462 
L 150.402462 73.205478 
L 150.656352 72.357887 
L 150.910243 72.31895 
L 151.164133 72.684342 
L 151.418023 72.777904 
L 151.925804 71.348712 
L 152.179694 71.733572 
L 152.433584 71.376328 
L 152.687474 72.24214 
L 152.941365 71.631338 
L 153.195255 71.348138 
L 153.449145 71.355899 
L 153.703035 70.759959 
L 153.956926 70.674377 
L 154.210816 70.433842 
L 154.464706 72.195005 
L 154.972487 71.226673 
L 155.226377 72.158987 
L 155.480267 70.931613 
L 155.734157 71.47259 
L 155.988048 71.716566 
L 156.241938 71.527721 
L 156.495828 71.052033 
L 156.749718 71.396893 
L 157.003609 71.360926 
L 157.257499 71.054648 
L 157.511389 71.403557 
L 157.765279 71.112158 
L 158.01917 70.620527 
L 158.27306 70.810081 
L 158.78084 71.697081 
L 159.288621 71.637732 
L 159.542511 71.19855 
L 159.796402 71.446272 
L 160.050292 72.028209 
L 160.304182 71.736811 
L 160.558072 71.089906 
L 160.811963 71.27919 
L 161.065853 71.027571 
L 161.319743 71.315781 
L 161.573633 71.426703 
L 162.081414 71.272999 
L 162.335304 71.715993 
L 162.589194 71.090379 
L 162.843085 71.619158 
L 163.096975 71.484213 
L 163.350865 71.18556 
L 163.604755 71.952496 
L 163.858646 71.438293 
L 164.366426 71.331926 
L 164.620316 71.868499 
L 164.874207 71.625349 
L 165.381987 71.927899 
L 165.635877 71.382621 
L 166.143658 71.632435 
L 166.397548 71.392271 
L 166.651438 71.396859 
L 166.905329 71.016133 
L 167.159219 71.09215 
L 167.413109 71.478056 
L 167.666999 71.127004 
L 167.92089 71.152798 
L 168.17478 71.479506 
L 168.42867 70.774957 
L 168.68256 70.806082 
L 169.444231 71.482695 
L 169.698121 71.105613 
L 169.952012 71.165721 
L 170.205902 70.989883 
L 170.459792 71.086246 
L 170.713682 70.923954 
L 170.967573 71.103774 
L 171.475353 70.973215 
L 171.729243 71.133077 
L 172.744804 70.950373 
L 172.998695 71.071872 
L 173.506475 70.928155 
L 173.760365 71.115566 
L 174.014256 70.935257 
L 174.775926 71.100467 
L 175.029817 70.728631 
L 175.283707 71.073239 
L 175.537597 71.210393 
L 175.791488 71.00176 
L 176.045378 70.994438 
L 176.553158 70.502385 
L 177.060939 70.584492 
L 177.314829 70.402362 
L 177.568719 70.758627 
L 177.82261 70.671357 
L 178.0765 70.384564 
L 178.58428 70.434601 
L 178.838171 70.399696 
L 179.092061 70.5064 
L 179.345951 70.337496 
L 179.599841 70.483288 
L 180.361512 70.181278 
L 180.869293 70.574674 
L 181.377073 69.876518 
L 181.630963 69.941232 
L 181.884854 69.815246 
L 182.392634 69.990493 
L 182.646524 69.852478 
L 182.900415 69.846034 
L 183.408195 70.130414 
L 183.662085 70.107167 
L 184.423756 70.460648 
L 184.931537 70.485009 
L 185.439317 70.432121 
L 185.693207 70.288539 
L 185.947098 70.334696 
L 186.200988 70.24304 
L 186.708768 70.489378 
L 186.962659 70.377276 
L 187.724329 70.461036 
L 188.23211 70.39202 
L 188.486 70.239969 
L 188.73989 70.332317 
L 188.993781 70.211779 
L 191.278793 70.508155 
L 191.786574 70.422049 
L 192.294354 70.405567 
L 194.071586 70.021028 
L 195.848818 70.16984 
L 196.610488 70.054094 
L 199.149391 70.271871 
L 199.911062 70.149562 
L 203.973306 70.185496 
L 204.227196 70.327543 
L 205.496647 70.127125 
L 206.258318 70.114506 
L 210.828343 70.164847 
L 211.336123 70.123751 
L 212.351684 70.158874 
L 214.128916 70.189561 
L 214.890587 70.150423 
L 215.652257 70.143776 
L 216.667818 70.144754 
L 218.69894 70.168862 
L 222.253404 70.121001 
L 223.268965 70.090415 
L 225.807868 70.040581 
L 227.585099 70.130398 
L 230.377892 70.024571 
L 231.393453 70.042588 
L 236.471258 70.110204 
L 240.787393 70.113409 
L 251.196893 70.130651 
L 256.782479 70.104114 
L 273.285345 70.127901 
L 277.85537 70.09303 
L 309.337761 70.090449 
L 310.099432 70.105835 
L 310.099432 70.105835 
" clip-path="url(#pe3a0d2d706)" style="fill: none; stroke: #ff0000; stroke-width: 0.6; stroke-linecap: square"/>
   </g>
   <g id="patch_3">
    <path d="M 43.78125 239.76 
L 43.78125 37.296 
" style="fill: none; stroke: #000000; stroke-width: 0.8; stroke-linejoin: miter; stroke-linecap: square"/>
   </g>
   <g id="patch_4">
    <path d="M 322.78125 239.76 
L 322.78125 37.296 
" style="fill: none; stroke: #000000; stroke-width: 0.8; stroke-linejoin: miter; stroke-linecap: square"/>
   </g>
   <g id="patch_5">
    <path d="M 43.78125 239.76 
L 322.78125 239.76 
" style="fill: none; stroke: #000000; stroke-width: 0.8; stroke-linejoin: miter; stroke-linecap: square"/>
   </g>
   <g id="patch_6">
    <path d="M 43.78125 37.296 
L 322.78125 37.296 
" style="fill: none; stroke: #000000; stroke-width: 0.8; stroke-linejoin: miter; stroke-linecap: square"/>
   </g>
   <g id="text_16">
    <!-- Baseline Model -->
    <g transform="translate(149.259844 31.296) scale(0.09 -0.09)">
     <defs>
      <path id="DejaVuSans-42" d="M 1259 2228 
L 1259 519 
L 2272 519 
Q 2781 519 3026 730 
Q 3272 941 3272 1375 
Q 3272 1813 3026 2020 
Q 2781 2228 2272 2228 
L 1259 2228 
z
M 1259 4147 
L 1259 2741 
L 2194 2741 
Q 2656 2741 2882 2914 
Q 3109 3088 3109 3444 
Q 3109 3797 2882 3972 
Q 2656 4147 2194 4147 
L 1259 4147 
z
M 628 4666 
L 2241 4666 
Q 2963 4666 3353 4366 
Q 3744 4066 3744 3513 
Q 3744 3084 3544 2831 
Q 3344 2578 2956 2516 
Q 3422 2416 3680 2098 
Q 3938 1781 3938 1306 
Q 3938 681 3513 340 
Q 3088 0 2303 0 
L 628 0 
L 628 4666 
z
" transform="scale(0.015625)"/>
      <path id="DejaVuSans-61" d="M 2194 1759 
Q 1497 1759 1228 1600 
Q 959 1441 959 1056 
Q 959 750 1161 570 
Q 1363 391 1709 391 
Q 2188 391 2477 730 
Q 2766 1069 2766 1631 
L 2766 1759 
L 2194 1759 
z
M 3341 1997 
L 3341 0 
L 2766 0 
L 2766 531 
Q 2569 213 2275 61 
Q 1981 -91 1556 -91 
Q 1019 -91 701 211 
Q 384 513 384 1019 
Q 384 1609 779 1909 
Q 1175 2209 1959 2209 
L 2766 2209 
L 2766 2266 
Q 2766 2663 2505 2880 
Q 2244 3097 1772 3097 
Q 1472 3097 1187 3025 
Q 903 2953 641 2809 
L 641 3341 
Q 956 3463 1253 3523 
Q 1550 3584 1831 3584 
Q 2591 3584 2966 3190 
Q 3341 2797 3341 1997 
z
" transform="scale(0.015625)"/>
      <path id="DejaVuSans-65" d="M 3597 1894 
L 3597 1613 
L 953 1613 
Q 991 1019 1311 708 
Q 1631 397 2203 397 
Q 2534 397 2845 478 
Q 3156 559 3463 722 
L 3463 178 
Q 3153 47 2828 -22 
Q 2503 -91 2169 -91 
Q 1331 -91 842 396 
Q 353 884 353 1716 
Q 353 2575 817 3079 
Q 1281 3584 2069 3584 
Q 2775 3584 3186 3129 
Q 3597 2675 3597 1894 
z
M 3022 2063 
Q 3016 2534 2758 2815 
Q 2500 3097 2075 3097 
Q 1594 3097 1305 2825 
Q 1016 2553 972 2059 
L 3022 2063 
z
" transform="scale(0.015625)"/>
      <path id="DejaVuSans-6c" d="M 603 4863 
L 1178 4863 
L 1178 0 
L 603 0 
L 603 4863 
z
" transform="scale(0.015625)"/>
      <path id="DejaVuSans-69" d="M 603 3500 
L 1178 3500 
L 1178 0 
L 603 0 
L 603 3500 
z
M 603 4863 
L 1178 4863 
L 1178 4134 
L 603 4134 
L 603 4863 
z
" transform="scale(0.015625)"/>
      <path id="DejaVuSans-6e" d="M 3513 2113 
L 3513 0 
L 2938 0 
L 2938 2094 
Q 2938 2591 2744 2837 
Q 2550 3084 2163 3084 
Q 1697 3084 1428 2787 
Q 1159 2491 1159 1978 
L 1159 0 
L 581 0 
L 581 3500 
L 1159 3500 
L 1159 2956 
Q 1366 3272 1645 3428 
Q 1925 3584 2291 3584 
Q 2894 3584 3203 3211 
Q 3513 2838 3513 2113 
z
" transform="scale(0.015625)"/>
      <path id="DejaVuSans-20" transform="scale(0.015625)"/>
      <path id="DejaVuSans-4d" d="M 628 4666 
L 1569 4666 
L 2759 1491 
L 3956 4666 
L 4897 4666 
L 4897 0 
L 4281 0 
L 4281 4097 
L 3078 897 
L 2444 897 
L 1241 4097 
L 1241 0 
L 628 0 
L 628 4666 
z
" transform="scale(0.015625)"/>
      <path id="DejaVuSans-64" d="M 2906 2969 
L 2906 4863 
L 3481 4863 
L 3481 0 
L 2906 0 
L 2906 525 
Q 2725 213 2448 61 
Q 2172 -91 1784 -91 
Q 1150 -91 751 415 
Q 353 922 353 1747 
Q 353 2572 751 3078 
Q 1150 3584 1784 3584 
Q 2172 3584 2448 3432 
Q 2725 3281 2906 2969 
z
M 947 1747 
Q 947 1113 1208 752 
Q 1469 391 1925 391 
Q 2381 391 2643 752 
Q 2906 1113 2906 1747 
Q 2906 2381 2643 2742 
Q 2381 3103 1925 3103 
Q 1469 3103 1208 2742 
Q 947 2381 947 1747 
z
" transform="scale(0.015625)"/>
     </defs>
     <use xlink:href="#DejaVuSans-42"/>
     <use xlink:href="#DejaVuSans-61" x="68.603516"/>
     <use xlink:href="#DejaVuSans-73" x="129.882812"/>
     <use xlink:href="#DejaVuSans-65" x="181.982422"/>
     <use xlink:href="#DejaVuSans-6c" x="243.505859"/>
     <use xlink:href="#DejaVuSans-69" x="271.289062"/>
     <use xlink:href="#DejaVuSans-6e" x="299.072266"/>
     <use xlink:href="#DejaVuSans-65" x="362.451172"/>
     <use xlink:href="#DejaVuSans-20" x="423.974609"/>
     <use xlink:href="#DejaVuSans-4d" x="455.761719"/>
     <use xlink:href="#DejaVuSans-6f" x="542.041016"/>
     <use xlink:href="#DejaVuSans-64" x="603.222656"/>
     <use xlink:href="#DejaVuSans-65" x="666.699219"/>
     <use xlink:href="#DejaVuSans-6c" x="728.222656"/>
    </g>
   </g>
   <g id="legend_1">
    <g id="patch_7">
     <path d="M 209.2875 154.706125 
L 315.78125 154.706125 
Q 317.78125 154.706125 317.78125 152.706125 
L 317.78125 124.349875 
Q 317.78125 122.349875 315.78125 122.349875 
L 209.2875 122.349875 
Q 207.2875 122.349875 207.2875 124.349875 
L 207.2875 152.706125 
Q 207.2875 154.706125 209.2875 154.706125 
z
" style="fill: #ffffff; opacity: 0.8; stroke: #cccccc; stroke-linejoin: miter"/>
    </g>
    <g id="line2d_29">
     <path d="M 211.2875 130.448312 
L 221.2875 130.448312 
L 231.2875 130.448312 
" style="fill: none; stroke: #0000ff; stroke-width: 0.6; stroke-linecap: square"/>
    </g>
    <g id="text_17">
     <!-- Training Loss -->
     <g transform="translate(239.2875 133.948312) scale(0.1 -0.1)">
      <defs>
       <path id="DejaVuSans-54" d="M -19 4666 
L 3928 4666 
L 3928 4134 
L 2272 4134 
L 2272 0 
L 1638 0 
L 1638 4134 
L -19 4134 
L -19 4666 
z
" transform="scale(0.015625)"/>
       <path id="DejaVuSans-72" d="M 2631 2963 
Q 2534 3019 2420 3045 
Q 2306 3072 2169 3072 
Q 1681 3072 1420 2755 
Q 1159 2438 1159 1844 
L 1159 0 
L 581 0 
L 581 3500 
L 1159 3500 
L 1159 2956 
Q 1341 3275 1631 3429 
Q 1922 3584 2338 3584 
Q 2397 3584 2469 3576 
Q 2541 3569 2628 3553 
L 2631 2963 
z
" transform="scale(0.015625)"/>
       <path id="DejaVuSans-67" d="M 2906 1791 
Q 2906 2416 2648 2759 
Q 2391 3103 1925 3103 
Q 1463 3103 1205 2759 
Q 947 2416 947 1791 
Q 947 1169 1205 825 
Q 1463 481 1925 481 
Q 2391 481 2648 825 
Q 2906 1169 2906 1791 
z
M 3481 434 
Q 3481 -459 3084 -895 
Q 2688 -1331 1869 -1331 
Q 1566 -1331 1297 -1286 
Q 1028 -1241 775 -1147 
L 775 -588 
Q 1028 -725 1275 -790 
Q 1522 -856 1778 -856 
Q 2344 -856 2625 -561 
Q 2906 -266 2906 331 
L 2906 616 
Q 2728 306 2450 153 
Q 2172 0 1784 0 
Q 1141 0 747 490 
Q 353 981 353 1791 
Q 353 2603 747 3093 
Q 1141 3584 1784 3584 
Q 2172 3584 2450 3431 
Q 2728 3278 2906 2969 
L 2906 3500 
L 3481 3500 
L 3481 434 
z
" transform="scale(0.015625)"/>
      </defs>
      <use xlink:href="#DejaVuSans-54"/>
      <use xlink:href="#DejaVuSans-72" x="46.333984"/>
      <use xlink:href="#DejaVuSans-61" x="87.447266"/>
      <use xlink:href="#DejaVuSans-69" x="148.726562"/>
      <use xlink:href="#DejaVuSans-6e" x="176.509766"/>
      <use xlink:href="#DejaVuSans-69" x="239.888672"/>
      <use xlink:href="#DejaVuSans-6e" x="267.671875"/>
      <use xlink:href="#DejaVuSans-67" x="331.050781"/>
      <use xlink:href="#DejaVuSans-20" x="394.527344"/>
      <use xlink:href="#DejaVuSans-4c" x="426.314453"/>
      <use xlink:href="#DejaVuSans-6f" x="480.277344"/>
      <use xlink:href="#DejaVuSans-73" x="541.458984"/>
      <use xlink:href="#DejaVuSans-73" x="593.558594"/>
     </g>
    </g>
    <g id="line2d_30">
     <path d="M 211.2875 145.126437 
L 221.2875 145.126437 
L 231.2875 145.126437 
" style="fill: none; stroke: #ff0000; stroke-width: 0.6; stroke-linecap: square"/>
    </g>
    <g id="text_18">
     <!-- Validation Loss -->
     <g transform="translate(239.2875 148.626437) scale(0.1 -0.1)">
      <defs>
       <path id="DejaVuSans-56" d="M 1831 0 
L 50 4666 
L 709 4666 
L 2188 738 
L 3669 4666 
L 4325 4666 
L 2547 0 
L 1831 0 
z
" transform="scale(0.015625)"/>
       <path id="DejaVuSans-74" d="M 1172 4494 
L 1172 3500 
L 2356 3500 
L 2356 3053 
L 1172 3053 
L 1172 1153 
Q 1172 725 1289 603 
Q 1406 481 1766 481 
L 2356 481 
L 2356 0 
L 1766 0 
Q 1100 0 847 248 
Q 594 497 594 1153 
L 594 3053 
L 172 3053 
L 172 3500 
L 594 3500 
L 594 4494 
L 1172 4494 
z
" transform="scale(0.015625)"/>
      </defs>
      <use xlink:href="#DejaVuSans-56"/>
      <use xlink:href="#DejaVuSans-61" x="60.658203"/>
      <use xlink:href="#DejaVuSans-6c" x="121.9375"/>
      <use xlink:href="#DejaVuSans-69" x="149.720703"/>
      <use xlink:href="#DejaVuSans-64" x="177.503906"/>
      <use xlink:href="#DejaVuSans-61" x="240.980469"/>
      <use xlink:href="#DejaVuSans-74" x="302.259766"/>
      <use xlink:href="#DejaVuSans-69" x="341.46875"/>
      <use xlink:href="#DejaVuSans-6f" x="369.251953"/>
      <use xlink:href="#DejaVuSans-6e" x="430.433594"/>
      <use xlink:href="#DejaVuSans-20" x="493.8125"/>
      <use xlink:href="#DejaVuSans-4c" x="525.599609"/>
      <use xlink:href="#DejaVuSans-6f" x="579.5625"/>
      <use xlink:href="#DejaVuSans-73" x="640.744141"/>
      <use xlink:href="#DejaVuSans-73" x="692.84375"/>
     </g>
    </g>
   </g>
  </g>
  <g id="text_19">
   <!-- Training VS. Validation Loss - Dataset Size = 60.0% -->
   <g transform="translate(37.980391 15.558281) scale(0.11 -0.11)">
    <defs>
     <path id="DejaVuSans-53" d="M 3425 4513 
L 3425 3897 
Q 3066 4069 2747 4153 
Q 2428 4238 2131 4238 
Q 1616 4238 1336 4038 
Q 1056 3838 1056 3469 
Q 1056 3159 1242 3001 
Q 1428 2844 1947 2747 
L 2328 2669 
Q 3034 2534 3370 2195 
Q 3706 1856 3706 1288 
Q 3706 609 3251 259 
Q 2797 -91 1919 -91 
Q 1588 -91 1214 -16 
Q 841 59 441 206 
L 441 856 
Q 825 641 1194 531 
Q 1563 422 1919 422 
Q 2459 422 2753 634 
Q 3047 847 3047 1241 
Q 3047 1584 2836 1778 
Q 2625 1972 2144 2069 
L 1759 2144 
Q 1053 2284 737 2584 
Q 422 2884 422 3419 
Q 422 4038 858 4394 
Q 1294 4750 2059 4750 
Q 2388 4750 2728 4690 
Q 3069 4631 3425 4513 
z
" transform="scale(0.015625)"/>
     <path id="DejaVuSans-2d" d="M 313 2009 
L 1997 2009 
L 1997 1497 
L 313 1497 
L 313 2009 
z
" transform="scale(0.015625)"/>
     <path id="DejaVuSans-44" d="M 1259 4147 
L 1259 519 
L 2022 519 
Q 2988 519 3436 956 
Q 3884 1394 3884 2338 
Q 3884 3275 3436 3711 
Q 2988 4147 2022 4147 
L 1259 4147 
z
M 628 4666 
L 1925 4666 
Q 3281 4666 3915 4102 
Q 4550 3538 4550 2338 
Q 4550 1131 3912 565 
Q 3275 0 1925 0 
L 628 0 
L 628 4666 
z
" transform="scale(0.015625)"/>
     <path id="DejaVuSans-7a" d="M 353 3500 
L 3084 3500 
L 3084 2975 
L 922 459 
L 3084 459 
L 3084 0 
L 275 0 
L 275 525 
L 2438 3041 
L 353 3041 
L 353 3500 
z
" transform="scale(0.015625)"/>
     <path id="DejaVuSans-3d" d="M 678 2906 
L 4684 2906 
L 4684 2381 
L 678 2381 
L 678 2906 
z
M 678 1631 
L 4684 1631 
L 4684 1100 
L 678 1100 
L 678 1631 
z
" transform="scale(0.015625)"/>
     <path id="DejaVuSans-25" d="M 4653 2053 
Q 4381 2053 4226 1822 
Q 4072 1591 4072 1178 
Q 4072 772 4226 539 
Q 4381 306 4653 306 
Q 4919 306 5073 539 
Q 5228 772 5228 1178 
Q 5228 1588 5073 1820 
Q 4919 2053 4653 2053 
z
M 4653 2450 
Q 5147 2450 5437 2106 
Q 5728 1763 5728 1178 
Q 5728 594 5436 251 
Q 5144 -91 4653 -91 
Q 4153 -91 3862 251 
Q 3572 594 3572 1178 
Q 3572 1766 3864 2108 
Q 4156 2450 4653 2450 
z
M 1428 4353 
Q 1159 4353 1004 4120 
Q 850 3888 850 3481 
Q 850 3069 1003 2837 
Q 1156 2606 1428 2606 
Q 1700 2606 1854 2837 
Q 2009 3069 2009 3481 
Q 2009 3884 1853 4118 
Q 1697 4353 1428 4353 
z
M 4250 4750 
L 4750 4750 
L 1831 -91 
L 1331 -91 
L 4250 4750 
z
M 1428 4750 
Q 1922 4750 2215 4408 
Q 2509 4066 2509 3481 
Q 2509 2891 2217 2550 
Q 1925 2209 1428 2209 
Q 931 2209 642 2551 
Q 353 2894 353 3481 
Q 353 4063 643 4406 
Q 934 4750 1428 4750 
z
" transform="scale(0.015625)"/>
    </defs>
    <use xlink:href="#DejaVuSans-54"/>
    <use xlink:href="#DejaVuSans-72" x="46.333984"/>
    <use xlink:href="#DejaVuSans-61" x="87.447266"/>
    <use xlink:href="#DejaVuSans-69" x="148.726562"/>
    <use xlink:href="#DejaVuSans-6e" x="176.509766"/>
    <use xlink:href="#DejaVuSans-69" x="239.888672"/>
    <use xlink:href="#DejaVuSans-6e" x="267.671875"/>
    <use xlink:href="#DejaVuSans-67" x="331.050781"/>
    <use xlink:href="#DejaVuSans-20" x="394.527344"/>
    <use xlink:href="#DejaVuSans-56" x="426.314453"/>
    <use xlink:href="#DejaVuSans-53" x="494.722656"/>
    <use xlink:href="#DejaVuSans-2e" x="558.199219"/>
    <use xlink:href="#DejaVuSans-20" x="589.986328"/>
    <use xlink:href="#DejaVuSans-56" x="621.773438"/>
    <use xlink:href="#DejaVuSans-61" x="682.431641"/>
    <use xlink:href="#DejaVuSans-6c" x="743.710938"/>
    <use xlink:href="#DejaVuSans-69" x="771.494141"/>
    <use xlink:href="#DejaVuSans-64" x="799.277344"/>
    <use xlink:href="#DejaVuSans-61" x="862.753906"/>
    <use xlink:href="#DejaVuSans-74" x="924.033203"/>
    <use xlink:href="#DejaVuSans-69" x="963.242188"/>
    <use xlink:href="#DejaVuSans-6f" x="991.025391"/>
    <use xlink:href="#DejaVuSans-6e" x="1052.207031"/>
    <use xlink:href="#DejaVuSans-20" x="1115.585938"/>
    <use xlink:href="#DejaVuSans-4c" x="1147.373047"/>
    <use xlink:href="#DejaVuSans-6f" x="1201.335938"/>
    <use xlink:href="#DejaVuSans-73" x="1262.517578"/>
    <use xlink:href="#DejaVuSans-73" x="1314.617188"/>
    <use xlink:href="#DejaVuSans-20" x="1366.716797"/>
    <use xlink:href="#DejaVuSans-2d" x="1398.503906"/>
    <use xlink:href="#DejaVuSans-20" x="1434.587891"/>
    <use xlink:href="#DejaVuSans-44" x="1466.375"/>
    <use xlink:href="#DejaVuSans-61" x="1543.376953"/>
    <use xlink:href="#DejaVuSans-74" x="1604.65625"/>
    <use xlink:href="#DejaVuSans-61" x="1643.865234"/>
    <use xlink:href="#DejaVuSans-73" x="1705.144531"/>
    <use xlink:href="#DejaVuSans-65" x="1757.244141"/>
    <use xlink:href="#DejaVuSans-74" x="1818.767578"/>
    <use xlink:href="#DejaVuSans-20" x="1857.976562"/>
    <use xlink:href="#DejaVuSans-53" x="1889.763672"/>
    <use xlink:href="#DejaVuSans-69" x="1953.240234"/>
    <use xlink:href="#DejaVuSans-7a" x="1981.023438"/>
    <use xlink:href="#DejaVuSans-65" x="2033.513672"/>
    <use xlink:href="#DejaVuSans-20" x="2095.037109"/>
    <use xlink:href="#DejaVuSans-3d" x="2126.824219"/>
    <use xlink:href="#DejaVuSans-20" x="2210.613281"/>
    <use xlink:href="#DejaVuSans-36" x="2242.400391"/>
    <use xlink:href="#DejaVuSans-30" x="2306.023438"/>
    <use xlink:href="#DejaVuSans-2e" x="2369.646484"/>
    <use xlink:href="#DejaVuSans-30" x="2401.433594"/>
    <use xlink:href="#DejaVuSans-25" x="2465.056641"/>
   </g>
  </g>
 </g>
 <defs>
  <clipPath id="pe3a0d2d706">
   <rect x="43.78125" y="37.296" width="279" height="202.464"/>
  </clipPath>
 </defs>
</svg>
