<?xml version="1.0" encoding="utf-8" standalone="no"?>
<!DOCTYPE svg PUBLIC "-//W3C//DTD SVG 1.1//EN"
  "http://www.w3.org/Graphics/SVG/1.1/DTD/svg11.dtd">
<svg xmlns:xlink="http://www.w3.org/1999/xlink" width="330.024432pt" height="277.31625pt" viewBox="0 0 330.024432 277.31625" xmlns="http://www.w3.org/2000/svg" version="1.1">
 <metadata>
  <rdf:RDF xmlns:dc="http://purl.org/dc/elements/1.1/" xmlns:cc="http://creativecommons.org/ns#" xmlns:rdf="http://www.w3.org/1999/02/22-rdf-syntax-ns#">
   <cc:Work>
    <dc:type rdf:resource="http://purl.org/dc/dcmitype/StillImage"/>
    <dc:date>2026-06-11T10:39:29.924757</dc:date>
    <dc:format>image/svg+xml</dc:format>
    <dc:creator>
     <cc:Agent>
      <dc:title>Matplotlib v3.8.4, https://matplotlib.org/</dc:title>
     </cc:Agent>
    </dc:creator>
   </cc:Work>
  </rdf:RDF>
 </metadata>
 <defs>
  <style type="text/css">*{stroke-linejoin: round; stroke-linecap: butt}</style>
 </defs>
 <g id="figure_1">
  <g id="patch_1">
   <path d="M 0 277.31625 
L 330.024432 277.31625 
L 330.024432 0 
L 0 0 
z
" style="fill: #ffffff"/>
  </g>
  <g id="axes_1">
   <g id="patch_2">
    <path d="M 43.78125 239.76 
L 322.78125 239.76 
L 322.78125 37.296 
L 43.78125 37.296 
z
" style="fill: #ffffff"/>
   </g>
   <g id="matplotlib.axis_1">
    <g id="xtick_1">
     <g id="line2d_1">
      <path d="M 56.209178 239.76 
L 56.209178 37.296 
" clip-path="url(#p20be13aa7c)" style="fill: none; stroke-dasharray: 2.96,1.28; stroke-dashoffset: 0; stroke: #b0b0b0; stroke-opacity: 0.4; stroke-width: 0.8"/>
     </g>
     <g id="line2d_2">
      <defs>
       <path id="m7141a9b472" d="M 0 0 
L 0 3.5 
" style="stroke: #000000; stroke-width: 0.8"/>
      </defs>
      <g>
       <use xlink:href="#m7141a9b472" x="56.209178" y="239.76" style="stroke: #000000; stroke-width: 0.8"/>
      </g>
     </g>
     <g id="text_1">
      <!-- 0 -->
      <g transform="translate(53.027928 254.358437) scale(0.1 -0.1)">
       <defs>
        <path id="DejaVuSans-30" d="M 2034 4250 
Q 1547 4250 1301 3770 
Q 1056 3291 1056 2328 
Q 1056 1369 1301 889 
Q 1547 409 2034 409 
Q 2525 409 2770 889 
Q 3016 1369 3016 2328 
Q 3016 3291 2770 3770 
Q 2525 4250 2034 4250 
z
M 2034 4750 
Q 2819 4750 3233 4129 
Q 3647 3509 3647 2328 
Q 3647 1150 3233 529 
Q 2819 -91 2034 -91 
Q 1250 -91 836 529 
Q 422 1150 422 2328 
Q 422 3509 836 4129 
Q 1250 4750 2034 4750 
z
" transform="scale(0.015625)"/>
       </defs>
       <use xlink:href="#DejaVuSans-30"/>
      </g>
     </g>
    </g>
    <g id="xtick_2">
     <g id="line2d_3">
      <path d="M 106.987229 239.76 
L 106.987229 37.296 
" clip-path="url(#p20be13aa7c)" style="fill: none; stroke-dasharray: 2.96,1.28; stroke-dashoffset: 0; stroke: #b0b0b0; stroke-opacity: 0.4; stroke-width: 0.8"/>
     </g>
     <g id="line2d_4">
      <g>
       <use xlink:href="#m7141a9b472" x="106.987229" y="239.76" style="stroke: #000000; stroke-width: 0.8"/>
      </g>
     </g>
     <g id="text_2">
      <!-- 200 -->
      <g transform="translate(97.443479 254.358437) scale(0.1 -0.1)">
       <defs>
        <path id="DejaVuSans-32" d="M 1228 531 
L 3431 531 
L 3431 0 
L 469 0 
L 469 531 
Q 828 903 1448 1529 
Q 2069 2156 2228 2338 
Q 2531 2678 2651 2914 
Q 2772 3150 2772 3378 
Q 2772 3750 2511 3984 
Q 2250 4219 1831 4219 
Q 1534 4219 1204 4116 
Q 875 4013 500 3803 
L 500 4441 
Q 881 4594 1212 4672 
Q 1544 4750 1819 4750 
Q 2544 4750 2975 4387 
Q 3406 4025 3406 3419 
Q 3406 3131 3298 2873 
Q 3191 2616 2906 2266 
Q 2828 2175 2409 1742 
Q 1991 1309 1228 531 
z
" transform="scale(0.015625)"/>
       </defs>
       <use xlink:href="#DejaVuSans-32"/>
       <use xlink:href="#DejaVuSans-30" x="63.623047"/>
       <use xlink:href="#DejaVuSans-30" x="127.246094"/>
      </g>
     </g>
    </g>
    <g id="xtick_3">
     <g id="line2d_5">
      <path d="M 157.765279 239.76 
L 157.765279 37.296 
" clip-path="url(#p20be13aa7c)" style="fill: none; stroke-dasharray: 2.96,1.28; stroke-dashoffset: 0; stroke: #b0b0b0; stroke-opacity: 0.4; stroke-width: 0.8"/>
     </g>
     <g id="line2d_6">
      <g>
       <use xlink:href="#m7141a9b472" x="157.765279" y="239.76" style="stroke: #000000; stroke-width: 0.8"/>
      </g>
     </g>
     <g id="text_3">
      <!-- 400 -->
      <g transform="translate(148.221529 254.358437) scale(0.1 -0.1)">
       <defs>
        <path id="DejaVuSans-34" d="M 2419 4116 
L 825 1625 
L 2419 1625 
L 2419 4116 
z
M 2253 4666 
L 3047 4666 
L 3047 1625 
L 3713 1625 
L 3713 1100 
L 3047 1100 
L 3047 0 
L 2419 0 
L 2419 1100 
L 313 1100 
L 313 1709 
L 2253 4666 
z
" transform="scale(0.015625)"/>
       </defs>
       <use xlink:href="#DejaVuSans-34"/>
       <use xlink:href="#DejaVuSans-30" x="63.623047"/>
       <use xlink:href="#DejaVuSans-30" x="127.246094"/>
      </g>
     </g>
    </g>
    <g id="xtick_4">
     <g id="line2d_7">
      <path d="M 208.54333 239.76 
L 208.54333 37.296 
" clip-path="url(#p20be13aa7c)" style="fill: none; stroke-dasharray: 2.96,1.28; stroke-dashoffset: 0; stroke: #b0b0b0; stroke-opacity: 0.4; stroke-width: 0.8"/>
     </g>
     <g id="line2d_8">
      <g>
       <use xlink:href="#m7141a9b472" x="208.54333" y="239.76" style="stroke: #000000; stroke-width: 0.8"/>
      </g>
     </g>
     <g id="text_4">
      <!-- 600 -->
      <g transform="translate(198.99958 254.358437) scale(0.1 -0.1)">
       <defs>
        <path id="DejaVuSans-36" d="M 2113 2584 
Q 1688 2584 1439 2293 
Q 1191 2003 1191 1497 
Q 1191 994 1439 701 
Q 1688 409 2113 409 
Q 2538 409 2786 701 
Q 3034 994 3034 1497 
Q 3034 2003 2786 2293 
Q 2538 2584 2113 2584 
z
M 3366 4563 
L 3366 3988 
Q 3128 4100 2886 4159 
Q 2644 4219 2406 4219 
Q 1781 4219 1451 3797 
Q 1122 3375 1075 2522 
Q 1259 2794 1537 2939 
Q 1816 3084 2150 3084 
Q 2853 3084 3261 2657 
Q 3669 2231 3669 1497 
Q 3669 778 3244 343 
Q 2819 -91 2113 -91 
Q 1303 -91 875 529 
Q 447 1150 447 2328 
Q 447 3434 972 4092 
Q 1497 4750 2381 4750 
Q 2619 4750 2861 4703 
Q 3103 4656 3366 4563 
z
" transform="scale(0.015625)"/>
       </defs>
       <use xlink:href="#DejaVuSans-36"/>
       <use xlink:href="#DejaVuSans-30" x="63.623047"/>
       <use xlink:href="#DejaVuSans-30" x="127.246094"/>
      </g>
     </g>
    </g>
    <g id="xtick_5">
     <g id="line2d_9">
      <path d="M 259.321381 239.76 
L 259.321381 37.296 
" clip-path="url(#p20be13aa7c)" style="fill: none; stroke-dasharray: 2.96,1.28; stroke-dashoffset: 0; stroke: #b0b0b0; stroke-opacity: 0.4; stroke-width: 0.8"/>
     </g>
     <g id="line2d_10">
      <g>
       <use xlink:href="#m7141a9b472" x="259.321381" y="239.76" style="stroke: #000000; stroke-width: 0.8"/>
      </g>
     </g>
     <g id="text_5">
      <!-- 800 -->
      <g transform="translate(249.777631 254.358437) scale(0.1 -0.1)">
       <defs>
        <path id="DejaVuSans-38" d="M 2034 2216 
Q 1584 2216 1326 1975 
Q 1069 1734 1069 1313 
Q 1069 891 1326 650 
Q 1584 409 2034 409 
Q 2484 409 2743 651 
Q 3003 894 3003 1313 
Q 3003 1734 2745 1975 
Q 2488 2216 2034 2216 
z
M 1403 2484 
Q 997 2584 770 2862 
Q 544 3141 544 3541 
Q 544 4100 942 4425 
Q 1341 4750 2034 4750 
Q 2731 4750 3128 4425 
Q 3525 4100 3525 3541 
Q 3525 3141 3298 2862 
Q 3072 2584 2669 2484 
Q 3125 2378 3379 2068 
Q 3634 1759 3634 1313 
Q 3634 634 3220 271 
Q 2806 -91 2034 -91 
Q 1263 -91 848 271 
Q 434 634 434 1313 
Q 434 1759 690 2068 
Q 947 2378 1403 2484 
z
M 1172 3481 
Q 1172 3119 1398 2916 
Q 1625 2713 2034 2713 
Q 2441 2713 2670 2916 
Q 2900 3119 2900 3481 
Q 2900 3844 2670 4047 
Q 2441 4250 2034 4250 
Q 1625 4250 1398 4047 
Q 1172 3844 1172 3481 
z
" transform="scale(0.015625)"/>
       </defs>
       <use xlink:href="#DejaVuSans-38"/>
       <use xlink:href="#DejaVuSans-30" x="63.623047"/>
       <use xlink:href="#DejaVuSans-30" x="127.246094"/>
      </g>
     </g>
    </g>
    <g id="xtick_6">
     <g id="line2d_11">
      <path d="M 310.099432 239.76 
L 310.099432 37.296 
" clip-path="url(#p20be13aa7c)" style="fill: none; stroke-dasharray: 2.96,1.28; stroke-dashoffset: 0; stroke: #b0b0b0; stroke-opacity: 0.4; stroke-width: 0.8"/>
     </g>
     <g id="line2d_12">
      <g>
       <use xlink:href="#m7141a9b472" x="310.099432" y="239.76" style="stroke: #000000; stroke-width: 0.8"/>
      </g>
     </g>
     <g id="text_6">
      <!-- 1000 -->
      <g transform="translate(297.374432 254.358437) scale(0.1 -0.1)">
       <defs>
        <path id="DejaVuSans-31" d="M 794 531 
L 1825 531 
L 1825 4091 
L 703 3866 
L 703 4441 
L 1819 4666 
L 2450 4666 
L 2450 531 
L 3481 531 
L 3481 0 
L 794 0 
L 794 531 
z
" transform="scale(0.015625)"/>
       </defs>
       <use xlink:href="#DejaVuSans-31"/>
       <use xlink:href="#DejaVuSans-30" x="63.623047"/>
       <use xlink:href="#DejaVuSans-30" x="127.246094"/>
       <use xlink:href="#DejaVuSans-30" x="190.869141"/>
      </g>
     </g>
    </g>
    <g id="text_7">
     <!-- Epochs -->
     <g transform="translate(165.365625 268.036562) scale(0.1 -0.1)">
      <defs>
       <path id="DejaVuSans-45" d="M 628 4666 
L 3578 4666 
L 3578 4134 
L 1259 4134 
L 1259 2753 
L 3481 2753 
L 3481 2222 
L 1259 2222 
L 1259 531 
L 3634 531 
L 3634 0 
L 628 0 
L 628 4666 
z
" transform="scale(0.015625)"/>
       <path id="DejaVuSans-70" d="M 1159 525 
L 1159 -1331 
L 581 -1331 
L 581 3500 
L 1159 3500 
L 1159 2969 
Q 1341 3281 1617 3432 
Q 1894 3584 2278 3584 
Q 2916 3584 3314 3078 
Q 3713 2572 3713 1747 
Q 3713 922 3314 415 
Q 2916 -91 2278 -91 
Q 1894 -91 1617 61 
Q 1341 213 1159 525 
z
M 3116 1747 
Q 3116 2381 2855 2742 
Q 2594 3103 2138 3103 
Q 1681 3103 1420 2742 
Q 1159 2381 1159 1747 
Q 1159 1113 1420 752 
Q 1681 391 2138 391 
Q 2594 391 2855 752 
Q 3116 1113 3116 1747 
z
" transform="scale(0.015625)"/>
       <path id="DejaVuSans-6f" d="M 1959 3097 
Q 1497 3097 1228 2736 
Q 959 2375 959 1747 
Q 959 1119 1226 758 
Q 1494 397 1959 397 
Q 2419 397 2687 759 
Q 2956 1122 2956 1747 
Q 2956 2369 2687 2733 
Q 2419 3097 1959 3097 
z
M 1959 3584 
Q 2709 3584 3137 3096 
Q 3566 2609 3566 1747 
Q 3566 888 3137 398 
Q 2709 -91 1959 -91 
Q 1206 -91 779 398 
Q 353 888 353 1747 
Q 353 2609 779 3096 
Q 1206 3584 1959 3584 
z
" transform="scale(0.015625)"/>
       <path id="DejaVuSans-63" d="M 3122 3366 
L 3122 2828 
Q 2878 2963 2633 3030 
Q 2388 3097 2138 3097 
Q 1578 3097 1268 2742 
Q 959 2388 959 1747 
Q 959 1106 1268 751 
Q 1578 397 2138 397 
Q 2388 397 2633 464 
Q 2878 531 3122 666 
L 3122 134 
Q 2881 22 2623 -34 
Q 2366 -91 2075 -91 
Q 1284 -91 818 406 
Q 353 903 353 1747 
Q 353 2603 823 3093 
Q 1294 3584 2113 3584 
Q 2378 3584 2631 3529 
Q 2884 3475 3122 3366 
z
" transform="scale(0.015625)"/>
       <path id="DejaVuSans-68" d="M 3513 2113 
L 3513 0 
L 2938 0 
L 2938 2094 
Q 2938 2591 2744 2837 
Q 2550 3084 2163 3084 
Q 1697 3084 1428 2787 
Q 1159 2491 1159 1978 
L 1159 0 
L 581 0 
L 581 4863 
L 1159 4863 
L 1159 2956 
Q 1366 3272 1645 3428 
Q 1925 3584 2291 3584 
Q 2894 3584 3203 3211 
Q 3513 2838 3513 2113 
z
" transform="scale(0.015625)"/>
       <path id="DejaVuSans-73" d="M 2834 3397 
L 2834 2853 
Q 2591 2978 2328 3040 
Q 2066 3103 1784 3103 
Q 1356 3103 1142 2972 
Q 928 2841 928 2578 
Q 928 2378 1081 2264 
Q 1234 2150 1697 2047 
L 1894 2003 
Q 2506 1872 2764 1633 
Q 3022 1394 3022 966 
Q 3022 478 2636 193 
Q 2250 -91 1575 -91 
Q 1294 -91 989 -36 
Q 684 19 347 128 
L 347 722 
Q 666 556 975 473 
Q 1284 391 1588 391 
Q 1994 391 2212 530 
Q 2431 669 2431 922 
Q 2431 1156 2273 1281 
Q 2116 1406 1581 1522 
L 1381 1569 
Q 847 1681 609 1914 
Q 372 2147 372 2553 
Q 372 3047 722 3315 
Q 1072 3584 1716 3584 
Q 2034 3584 2315 3537 
Q 2597 3491 2834 3397 
z
" transform="scale(0.015625)"/>
      </defs>
      <use xlink:href="#DejaVuSans-45"/>
      <use xlink:href="#DejaVuSans-70" x="63.183594"/>
      <use xlink:href="#DejaVuSans-6f" x="126.660156"/>
      <use xlink:href="#DejaVuSans-63" x="187.841797"/>
      <use xlink:href="#DejaVuSans-68" x="242.822266"/>
      <use xlink:href="#DejaVuSans-73" x="306.201172"/>
     </g>
    </g>
   </g>
   <g id="matplotlib.axis_2">
    <g id="ytick_1">
     <g id="line2d_13">
      <path d="M 43.78125 237.462585 
L 322.78125 237.462585 
" clip-path="url(#p20be13aa7c)" style="fill: none; stroke-dasharray: 2.96,1.28; stroke-dashoffset: 0; stroke: #b0b0b0; stroke-opacity: 0.4; stroke-width: 0.8"/>
     </g>
     <g id="line2d_14">
      <defs>
       <path id="m3af1f06f98" d="M 0 0 
L -3.5 0 
" style="stroke: #000000; stroke-width: 0.8"/>
      </defs>
      <g>
       <use xlink:href="#m3af1f06f98" x="43.78125" y="237.462585" style="stroke: #000000; stroke-width: 0.8"/>
      </g>
     </g>
     <g id="text_8">
      <!-- 0.0 -->
      <g transform="translate(20.878125 241.261803) scale(0.1 -0.1)">
       <defs>
        <path id="DejaVuSans-2e" d="M 684 794 
L 1344 794 
L 1344 0 
L 684 0 
L 684 794 
z
" transform="scale(0.015625)"/>
       </defs>
       <use xlink:href="#DejaVuSans-30"/>
       <use xlink:href="#DejaVuSans-2e" x="63.623047"/>
       <use xlink:href="#DejaVuSans-30" x="95.410156"/>
      </g>
     </g>
    </g>
    <g id="ytick_2">
     <g id="line2d_15">
      <path d="M 43.78125 203.781963 
L 322.78125 203.781963 
" clip-path="url(#p20be13aa7c)" style="fill: none; stroke-dasharray: 2.96,1.28; stroke-dashoffset: 0; stroke: #b0b0b0; stroke-opacity: 0.4; stroke-width: 0.8"/>
     </g>
     <g id="line2d_16">
      <g>
       <use xlink:href="#m3af1f06f98" x="43.78125" y="203.781963" style="stroke: #000000; stroke-width: 0.8"/>
      </g>
     </g>
     <g id="text_9">
      <!-- 0.2 -->
      <g transform="translate(20.878125 207.581182) scale(0.1 -0.1)">
       <use xlink:href="#DejaVuSans-30"/>
       <use xlink:href="#DejaVuSans-2e" x="63.623047"/>
       <use xlink:href="#DejaVuSans-32" x="95.410156"/>
      </g>
     </g>
    </g>
    <g id="ytick_3">
     <g id="line2d_17">
      <path d="M 43.78125 170.101341 
L 322.78125 170.101341 
" clip-path="url(#p20be13aa7c)" style="fill: none; stroke-dasharray: 2.96,1.28; stroke-dashoffset: 0; stroke: #b0b0b0; stroke-opacity: 0.4; stroke-width: 0.8"/>
     </g>
     <g id="line2d_18">
      <g>
       <use xlink:href="#m3af1f06f98" x="43.78125" y="170.101341" style="stroke: #000000; stroke-width: 0.8"/>
      </g>
     </g>
     <g id="text_10">
      <!-- 0.4 -->
      <g transform="translate(20.878125 173.90056) scale(0.1 -0.1)">
       <use xlink:href="#DejaVuSans-30"/>
       <use xlink:href="#DejaVuSans-2e" x="63.623047"/>
       <use xlink:href="#DejaVuSans-34" x="95.410156"/>
      </g>
     </g>
    </g>
    <g id="ytick_4">
     <g id="line2d_19">
      <path d="M 43.78125 136.420719 
L 322.78125 136.420719 
" clip-path="url(#p20be13aa7c)" style="fill: none; stroke-dasharray: 2.96,1.28; stroke-dashoffset: 0; stroke: #b0b0b0; stroke-opacity: 0.4; stroke-width: 0.8"/>
     </g>
     <g id="line2d_20">
      <g>
       <use xlink:href="#m3af1f06f98" x="43.78125" y="136.420719" style="stroke: #000000; stroke-width: 0.8"/>
      </g>
     </g>
     <g id="text_11">
      <!-- 0.6 -->
      <g transform="translate(20.878125 140.219938) scale(0.1 -0.1)">
       <use xlink:href="#DejaVuSans-30"/>
       <use xlink:href="#DejaVuSans-2e" x="63.623047"/>
       <use xlink:href="#DejaVuSans-36" x="95.410156"/>
      </g>
     </g>
    </g>
    <g id="ytick_5">
     <g id="line2d_21">
      <path d="M 43.78125 102.740098 
L 322.78125 102.740098 
" clip-path="url(#p20be13aa7c)" style="fill: none; stroke-dasharray: 2.96,1.28; stroke-dashoffset: 0; stroke: #b0b0b0; stroke-opacity: 0.4; stroke-width: 0.8"/>
     </g>
     <g id="line2d_22">
      <g>
       <use xlink:href="#m3af1f06f98" x="43.78125" y="102.740098" style="stroke: #000000; stroke-width: 0.8"/>
      </g>
     </g>
     <g id="text_12">
      <!-- 0.8 -->
      <g transform="translate(20.878125 106.539316) scale(0.1 -0.1)">
       <use xlink:href="#DejaVuSans-30"/>
       <use xlink:href="#DejaVuSans-2e" x="63.623047"/>
       <use xlink:href="#DejaVuSans-38" x="95.410156"/>
      </g>
     </g>
    </g>
    <g id="ytick_6">
     <g id="line2d_23">
      <path d="M 43.78125 69.059476 
L 322.78125 69.059476 
" clip-path="url(#p20be13aa7c)" style="fill: none; stroke-dasharray: 2.96,1.28; stroke-dashoffset: 0; stroke: #b0b0b0; stroke-opacity: 0.4; stroke-width: 0.8"/>
     </g>
     <g id="line2d_24">
      <g>
       <use xlink:href="#m3af1f06f98" x="43.78125" y="69.059476" style="stroke: #000000; stroke-width: 0.8"/>
      </g>
     </g>
     <g id="text_13">
      <!-- 1.0 -->
      <g transform="translate(20.878125 72.858695) scale(0.1 -0.1)">
       <use xlink:href="#DejaVuSans-31"/>
       <use xlink:href="#DejaVuSans-2e" x="63.623047"/>
       <use xlink:href="#DejaVuSans-30" x="95.410156"/>
      </g>
     </g>
    </g>
    <g id="text_14">
     <!-- Loss -->
     <g transform="translate(14.798438 149.495187) rotate(-90) scale(0.1 -0.1)">
      <defs>
       <path id="DejaVuSans-4c" d="M 628 4666 
L 1259 4666 
L 1259 531 
L 3531 531 
L 3531 0 
L 628 0 
L 628 4666 
z
" transform="scale(0.015625)"/>
      </defs>
      <use xlink:href="#DejaVuSans-4c"/>
      <use xlink:href="#DejaVuSans-6f" x="53.962891"/>
      <use xlink:href="#DejaVuSans-73" x="115.144531"/>
      <use xlink:href="#DejaVuSans-73" x="167.244141"/>
     </g>
    </g>
   </g>
   <g id="line2d_25">
    <path d="M 56.463068 119.334057 
L 56.716958 120.599338 
L 56.970849 121.106619 
L 57.224739 121.238473 
L 57.478629 121.752117 
L 58.2403 120.740497 
L 58.49419 122.066073 
L 58.74808 122.213305 
L 59.001971 121.614843 
L 59.255861 121.898295 
L 59.509751 122.48165 
L 59.763641 122.759652 
L 60.017532 122.868279 
L 60.271422 123.224504 
L 60.525312 123.185628 
L 60.779202 123.623278 
L 61.033093 125.023564 
L 61.286983 122.557675 
L 61.540873 124.204776 
L 62.302544 126.812717 
L 62.556434 124.888478 
L 62.810325 125.795045 
L 63.318105 130.526472 
L 63.571995 130.412766 
L 64.333666 135.216544 
L 64.587556 135.65336 
L 65.095337 142.979599 
L 65.349227 145.592599 
L 65.603117 146.867827 
L 66.110898 156.091686 
L 66.618678 158.418694 
L 66.872569 164.476947 
L 67.126459 164.535236 
L 67.380349 166.529061 
L 67.634239 164.624269 
L 68.14202 172.728463 
L 68.39591 169.771655 
L 68.903691 176.518468 
L 69.157581 176.873578 
L 69.411471 176.671998 
L 69.665361 179.95677 
L 69.919252 181.674039 
L 70.173142 181.191456 
L 70.427032 181.085815 
L 70.680922 179.524189 
L 70.934813 184.359094 
L 71.188703 184.700147 
L 71.442593 182.923099 
L 71.696483 187.710054 
L 71.950374 186.219509 
L 72.204264 188.843556 
L 72.458154 188.307191 
L 72.712044 189.087911 
L 72.965935 187.258989 
L 73.219825 190.942113 
L 73.473715 186.782067 
L 73.727605 193.890254 
L 73.981496 194.863937 
L 74.235386 196.686824 
L 74.489276 192.19292 
L 74.743166 196.739755 
L 74.997057 198.823884 
L 75.250947 195.350605 
L 75.504837 199.003391 
L 75.758727 199.622747 
L 76.012618 198.105299 
L 76.520398 202.514408 
L 76.774288 202.683351 
L 77.028179 202.42747 
L 77.282069 204.883058 
L 77.535959 202.850856 
L 77.78985 206.087809 
L 78.04374 207.633955 
L 78.29763 208.365633 
L 78.55152 207.730471 
L 78.805411 206.403718 
L 79.059301 210.376337 
L 79.313191 207.505124 
L 79.567081 208.280843 
L 80.074862 211.762126 
L 80.328752 210.366691 
L 80.582642 211.575101 
L 80.836533 211.700651 
L 81.090423 210.4153 
L 81.344313 213.855118 
L 81.598203 214.284427 
L 81.852094 211.183393 
L 82.105984 211.341611 
L 82.613764 215.068103 
L 82.867655 211.938728 
L 83.121545 216.893562 
L 83.375435 216.909058 
L 83.883216 214.203787 
L 84.137106 216.327622 
L 84.390996 215.012158 
L 84.644886 214.578797 
L 84.898777 212.30686 
L 85.152667 214.85717 
L 85.406557 211.870683 
L 85.660447 215.976928 
L 85.914338 216.509597 
L 86.168228 216.151873 
L 86.422118 216.365243 
L 86.676008 220.208128 
L 86.929899 216.132011 
L 87.183789 218.402437 
L 87.437679 217.801255 
L 87.691569 216.590912 
L 87.94546 219.417014 
L 88.19935 220.322006 
L 88.45324 215.848459 
L 88.70713 217.789321 
L 88.961021 218.807365 
L 89.214911 216.620384 
L 89.468801 220.958442 
L 89.722691 219.970854 
L 89.976582 220.928825 
L 90.484362 214.036821 
L 90.738252 217.137855 
L 90.992143 217.777665 
L 91.246033 216.010551 
L 91.753813 220.407466 
L 92.007704 219.805121 
L 92.515484 222.785402 
L 92.769374 219.348642 
L 93.023265 218.21875 
L 93.277155 220.973133 
L 93.531045 222.324351 
L 93.784936 222.627848 
L 94.038826 222.480134 
L 94.292716 221.049637 
L 94.546606 221.198204 
L 94.800497 217.034415 
L 95.054387 223.736818 
L 95.308277 221.378477 
L 95.562167 221.763612 
L 95.816058 220.895673 
L 96.069948 224.214464 
L 96.323838 221.310521 
L 96.577728 224.197775 
L 96.831619 220.865988 
L 97.085509 224.301695 
L 97.339399 223.101979 
L 97.593289 220.799285 
L 97.84718 219.8767 
L 98.10107 222.496437 
L 98.35496 223.195399 
L 98.60885 222.163979 
L 98.862741 223.664147 
L 99.116631 223.140752 
L 99.370521 223.974861 
L 99.624411 222.129285 
L 100.132192 225.338548 
L 100.386082 226.706853 
L 100.639972 221.241526 
L 100.893863 225.15879 
L 101.147753 223.020282 
L 101.401643 225.486247 
L 101.655533 222.957931 
L 102.163314 224.627477 
L 102.417204 224.845818 
L 102.671094 225.363616 
L 102.924985 224.814339 
L 103.178875 225.174968 
L 103.432765 223.373111 
L 103.940546 225.505911 
L 104.194436 224.983392 
L 104.448326 225.740314 
L 104.702216 223.403972 
L 105.209997 225.396501 
L 105.463887 223.395 
L 105.717777 226.761161 
L 105.971668 226.32936 
L 106.225558 224.431088 
L 106.733338 227.061943 
L 106.987229 225.049633 
L 107.241119 227.125221 
L 107.495009 226.150217 
L 107.748899 226.931984 
L 108.00279 225.480982 
L 108.25668 227.335249 
L 108.51057 226.526577 
L 108.76446 224.757955 
L 109.018351 225.304223 
L 109.272241 224.998261 
L 109.526131 226.878339 
L 109.780021 224.151306 
L 110.033912 226.640723 
L 110.541692 225.852533 
L 110.795583 226.187097 
L 111.049473 226.187505 
L 111.303363 225.676599 
L 111.557253 221.958484 
L 112.065034 226.757131 
L 112.572814 224.320092 
L 112.826705 227.994664 
L 113.080595 225.17339 
L 113.588375 227.547252 
L 113.842266 225.558439 
L 114.096156 225.174758 
L 114.350046 227.844158 
L 114.603936 225.691065 
L 114.857827 225.439811 
L 115.111717 224.811986 
L 115.365607 226.831496 
L 115.619497 226.285154 
L 115.873388 226.82044 
L 116.127278 225.178297 
L 116.381168 227.147794 
L 116.888949 227.0692 
L 117.396729 228.050037 
L 117.650619 226.075568 
L 117.90451 228.24487 
L 118.1584 226.933137 
L 118.41229 227.502606 
L 118.66618 224.38872 
L 118.920071 228.18721 
L 119.427851 226.143236 
L 119.681741 226.146434 
L 119.935632 227.976093 
L 120.443412 226.427834 
L 120.697302 228.265859 
L 120.951193 224.634118 
L 121.205083 228.36951 
L 121.458973 226.29116 
L 121.712863 228.591823 
L 121.966754 224.679029 
L 122.220644 226.432196 
L 122.474534 226.362301 
L 122.728424 227.028937 
L 122.982315 229.660654 
L 123.236205 223.346035 
L 123.490095 227.898148 
L 123.743985 228.005548 
L 123.997876 225.895508 
L 124.251766 229.073326 
L 124.505656 227.230431 
L 124.759546 228.52587 
L 125.013437 227.428137 
L 125.267327 228.956008 
L 125.521217 226.296592 
L 125.775107 225.554404 
L 126.028998 225.63789 
L 126.536778 227.868089 
L 126.790669 225.918771 
L 127.044559 227.523735 
L 127.298449 227.385302 
L 127.552339 229.491845 
L 127.80623 226.987651 
L 128.31401 226.83428 
L 128.821791 227.762612 
L 129.075681 227.803529 
L 129.329571 227.20084 
L 129.837352 224.779931 
L 130.091242 226.449533 
L 130.345132 225.954903 
L 130.599022 226.800861 
L 130.852913 226.342115 
L 131.106803 228.143105 
L 131.360693 227.907272 
L 131.614583 226.852674 
L 131.868474 228.587353 
L 132.122364 226.149054 
L 132.376254 227.24997 
L 132.630144 227.019372 
L 132.884035 226.516983 
L 133.137925 227.676376 
L 133.391815 227.367423 
L 133.645705 225.839575 
L 133.899596 228.720234 
L 134.407376 227.381065 
L 134.661266 228.735195 
L 134.915157 224.986323 
L 135.169047 227.916577 
L 135.422937 228.520443 
L 135.676827 227.77371 
L 135.930718 228.489097 
L 136.184608 227.727614 
L 136.692388 227.700915 
L 136.946279 221.64129 
L 137.200169 227.988775 
L 137.454059 228.111457 
L 137.707949 226.321471 
L 137.96184 227.705893 
L 138.21573 225.984548 
L 138.72351 227.731462 
L 139.231291 227.44782 
L 139.485181 228.530582 
L 139.739071 226.762767 
L 139.992962 229.376156 
L 140.754632 227.727055 
L 141.008523 228.94171 
L 141.262413 228.031337 
L 141.516303 227.911608 
L 141.770193 226.927276 
L 142.024084 228.045246 
L 142.277974 228.069553 
L 142.531864 226.764742 
L 142.785755 228.284474 
L 143.039645 226.073258 
L 143.293535 226.371857 
L 143.547425 229.089842 
L 143.801316 228.615759 
L 144.055206 227.822518 
L 144.309096 229.10849 
L 144.816877 227.128791 
L 145.070767 228.491075 
L 145.578547 227.645055 
L 145.832438 227.665966 
L 146.086328 229.243268 
L 146.340218 228.197319 
L 146.594108 228.607244 
L 146.847999 226.902576 
L 147.101889 228.81296 
L 147.355779 226.839845 
L 147.609669 227.742792 
L 147.86356 226.057368 
L 148.11745 230.557091 
L 148.37134 227.648781 
L 148.62523 229.793519 
L 148.879121 229.42329 
L 149.133011 228.130297 
L 149.386901 227.649143 
L 149.640791 229.283642 
L 150.148572 228.549736 
L 150.402462 226.326978 
L 150.656352 227.200781 
L 150.910243 227.282052 
L 151.164133 228.709266 
L 151.418023 225.354652 
L 151.671913 228.066109 
L 151.925804 228.453052 
L 152.179694 229.746873 
L 152.433584 227.841357 
L 152.687474 228.381919 
L 152.941365 227.700836 
L 153.195255 227.73442 
L 153.449145 227.604276 
L 153.703035 229.219897 
L 153.956926 226.184546 
L 154.210816 228.450946 
L 154.464706 228.897039 
L 154.718596 229.00762 
L 154.972487 229.483396 
L 155.226377 228.11973 
L 155.480267 228.832094 
L 155.734157 226.733706 
L 155.988048 228.130196 
L 156.241938 224.663413 
L 156.495828 227.659637 
L 156.749718 228.055745 
L 157.003609 229.008696 
L 157.257499 226.628489 
L 157.511389 228.828536 
L 157.765279 229.859077 
L 158.01917 228.142217 
L 158.27306 228.778596 
L 158.52695 230.13787 
L 159.034731 228.363196 
L 159.288621 226.105259 
L 159.542511 226.730508 
L 159.796402 229.056223 
L 160.050292 229.560118 
L 160.558072 222.410399 
L 160.811963 227.499503 
L 161.065853 226.759342 
L 161.573633 228.75306 
L 161.827524 228.088258 
L 162.081414 230.115301 
L 162.335304 227.227615 
L 162.843085 229.278728 
L 163.096975 227.555193 
L 163.350865 228.098173 
L 163.604755 227.952182 
L 163.858646 229.448708 
L 164.112536 227.779585 
L 164.366426 224.701319 
L 164.874207 229.796549 
L 165.381987 228.435156 
L 165.635877 228.566044 
L 166.143658 226.590784 
L 166.397548 229.75851 
L 166.651438 230.012822 
L 166.905329 225.832511 
L 167.159219 226.485295 
L 167.413109 228.870975 
L 167.666999 228.584775 
L 167.92089 227.030065 
L 168.17478 229.153796 
L 168.42867 227.374737 
L 168.68256 227.424758 
L 168.936451 228.218238 
L 169.190341 226.15927 
L 169.698121 228.641324 
L 169.952012 229.65837 
L 170.459792 224.753448 
L 170.713682 229.375206 
L 170.967573 227.781558 
L 171.221463 228.815348 
L 171.475353 228.943928 
L 171.729243 227.207852 
L 171.983134 229.979711 
L 172.237024 227.711882 
L 172.744804 226.781291 
L 172.998695 227.913124 
L 173.252585 225.305572 
L 173.506475 227.47269 
L 173.760365 228.020421 
L 174.014256 230.16307 
L 174.268146 228.306219 
L 174.522036 228.554464 
L 174.775926 229.113318 
L 175.029817 228.264149 
L 175.283707 227.929454 
L 175.537597 229.402691 
L 175.791488 229.545871 
L 176.299268 227.216732 
L 176.553158 228.432808 
L 176.807049 228.13756 
L 177.060939 228.597921 
L 177.314829 229.603262 
L 177.568719 228.159404 
L 177.82261 228.074301 
L 178.0765 227.744285 
L 178.33039 227.779347 
L 178.58428 228.745581 
L 178.838171 228.679636 
L 179.092061 227.424911 
L 179.599841 228.028748 
L 179.853732 226.703431 
L 180.361512 229.017911 
L 180.615402 226.436834 
L 180.869293 228.724478 
L 181.123183 224.775415 
L 181.377073 229.331715 
L 181.630963 229.295162 
L 181.884854 226.978762 
L 182.138744 228.302157 
L 182.392634 228.815859 
L 182.646524 228.056687 
L 182.900415 228.897376 
L 183.154305 227.674 
L 183.408195 228.256595 
L 183.662085 228.036382 
L 184.169866 229.781259 
L 184.423756 229.516627 
L 184.677646 227.572189 
L 185.185427 228.385902 
L 185.439317 229.286234 
L 185.693207 229.183096 
L 185.947098 229.807006 
L 186.200988 225.597256 
L 186.454878 228.04247 
L 186.708768 227.09414 
L 186.962659 227.635931 
L 187.216549 229.381118 
L 187.470439 229.668723 
L 187.724329 227.683985 
L 187.97822 228.518343 
L 188.23211 228.430915 
L 188.486 228.647277 
L 188.73989 228.586062 
L 188.993781 227.673784 
L 189.247671 229.485971 
L 189.501561 228.352495 
L 189.755451 228.411882 
L 190.009342 229.554056 
L 190.263232 227.792336 
L 190.517122 227.873198 
L 190.771012 228.956788 
L 191.024903 228.297445 
L 191.278793 229.468265 
L 191.532683 227.543928 
L 191.786574 228.24119 
L 192.040464 226.339528 
L 192.294354 230.318939 
L 192.548244 228.531632 
L 192.802135 228.082676 
L 193.056025 229.304957 
L 193.309915 228.678406 
L 193.563805 227.14742 
L 193.817696 228.697026 
L 194.071586 225.574556 
L 194.325476 226.116281 
L 194.579366 229.458356 
L 194.833257 228.067457 
L 195.087147 224.436104 
L 195.341037 229.246413 
L 195.594927 228.376162 
L 195.848818 229.536378 
L 196.102708 228.868965 
L 196.356598 229.079944 
L 196.610488 228.250013 
L 196.864379 228.767376 
L 197.118269 227.35058 
L 197.372159 228.430489 
L 197.626049 226.108329 
L 198.13383 229.347342 
L 198.38772 227.236822 
L 198.64161 229.580757 
L 198.895501 229.596785 
L 199.149391 225.420454 
L 199.403281 226.480687 
L 199.657171 229.620194 
L 199.911062 228.030901 
L 200.164952 228.530031 
L 200.418842 227.66655 
L 200.672732 227.773095 
L 200.926623 228.880969 
L 201.180513 226.893695 
L 201.434403 229.269763 
L 201.688293 228.025997 
L 201.942184 228.765989 
L 202.196074 230.241713 
L 202.449964 228.125358 
L 202.957745 226.97387 
L 203.211635 229.453039 
L 203.465525 228.946573 
L 203.719415 228.052645 
L 203.973306 229.259543 
L 204.734976 228.544305 
L 204.988867 225.9794 
L 205.242757 226.336423 
L 205.496647 228.164342 
L 205.750537 228.945352 
L 206.258318 227.162329 
L 206.512208 227.281044 
L 206.766098 229.037097 
L 207.019989 229.139441 
L 207.273879 226.72964 
L 207.527769 228.396061 
L 207.78166 229.219065 
L 208.03555 227.883407 
L 208.28944 229.165879 
L 208.54333 227.592771 
L 208.797221 228.994123 
L 209.051111 227.223401 
L 209.305001 226.806694 
L 209.558891 228.281533 
L 209.812782 228.539463 
L 210.066672 228.504733 
L 210.320562 225.885442 
L 210.574452 226.817795 
L 211.082233 229.900611 
L 211.336123 228.458219 
L 211.590013 229.29741 
L 211.843904 228.838691 
L 212.097794 227.225258 
L 212.351684 228.719799 
L 212.605574 229.434517 
L 212.859465 226.828691 
L 213.113355 228.08201 
L 213.367245 226.014468 
L 213.621135 226.478934 
L 213.875026 228.533855 
L 214.128916 228.725007 
L 214.382806 227.209664 
L 214.636696 227.717809 
L 214.890587 228.912337 
L 215.144477 229.143579 
L 215.398367 228.06418 
L 215.652257 228.108008 
L 215.906148 227.607058 
L 216.160038 228.903255 
L 216.413928 228.83039 
L 216.667818 227.140131 
L 217.175599 227.483545 
L 217.429489 228.398443 
L 217.683379 228.48554 
L 217.93727 227.758427 
L 218.19116 226.269273 
L 218.44505 228.636892 
L 218.69894 226.912255 
L 218.952831 225.97544 
L 219.206721 230.428823 
L 219.460611 226.939877 
L 219.968392 228.260274 
L 220.222282 228.239447 
L 220.476172 228.461164 
L 220.730062 229.249954 
L 220.983953 228.425828 
L 221.237843 226.741431 
L 221.491733 230.001789 
L 221.745623 227.117072 
L 221.999514 228.646594 
L 222.253404 227.346506 
L 223.015075 230.539277 
L 223.268965 227.564028 
L 223.522855 226.679907 
L 223.776745 227.350682 
L 224.030636 229.46409 
L 224.284526 229.307017 
L 224.538416 228.084826 
L 224.792307 228.968443 
L 225.046197 228.158441 
L 225.553977 228.946436 
L 225.807868 228.164186 
L 226.061758 228.027673 
L 226.823429 226.344106 
L 227.331209 229.221326 
L 227.585099 229.583917 
L 227.83899 228.412922 
L 228.09288 229.356636 
L 228.60066 229.023949 
L 228.854551 227.361761 
L 229.108441 228.085816 
L 229.362331 226.546779 
L 229.616221 228.509391 
L 229.870112 226.478574 
L 230.124002 225.763081 
L 230.377892 229.123135 
L 230.631782 223.187621 
L 230.885673 228.531713 
L 231.139563 228.554899 
L 231.393453 226.347382 
L 231.647343 228.757803 
L 231.901234 229.613945 
L 232.409014 229.541596 
L 232.662904 225.336194 
L 232.916795 229.541766 
L 233.170685 225.742162 
L 233.678465 228.124058 
L 233.932356 226.607684 
L 234.186246 226.007756 
L 234.440136 228.338189 
L 234.694026 228.199015 
L 234.947917 225.034097 
L 235.201807 229.150842 
L 235.455697 228.854979 
L 235.709587 228.307665 
L 236.217368 225.211492 
L 236.471258 226.532384 
L 236.725148 229.801625 
L 236.979039 227.366043 
L 237.232929 227.476583 
L 237.486819 227.027982 
L 237.740709 226.981802 
L 237.9946 228.618323 
L 238.24849 226.720818 
L 238.50238 228.265503 
L 239.010161 228.412658 
L 239.264051 227.462801 
L 239.517941 229.807821 
L 239.771831 227.847306 
L 240.025722 229.269108 
L 240.279612 222.448626 
L 240.533502 227.235219 
L 240.787393 228.768043 
L 241.295173 229.316828 
L 241.549063 227.913568 
L 241.802954 227.956445 
L 242.056844 228.279651 
L 242.310734 228.880955 
L 242.564624 228.948909 
L 242.818515 227.37216 
L 243.072405 228.661205 
L 243.580185 227.780835 
L 243.834076 229.430417 
L 244.087966 229.321601 
L 244.341856 228.220065 
L 244.595746 228.415815 
L 244.849637 227.994337 
L 245.103527 224.792775 
L 245.357417 227.820936 
L 245.611307 227.668464 
L 245.865198 228.496592 
L 246.119088 229.827559 
L 246.372978 226.924275 
L 246.626868 228.581052 
L 246.880759 227.532377 
L 247.134649 230.382641 
L 247.388539 227.859387 
L 247.642429 229.002036 
L 248.15021 229.104314 
L 248.4041 227.864784 
L 248.65799 228.844375 
L 248.911881 227.094631 
L 249.165771 228.13057 
L 249.419661 225.616171 
L 249.673551 229.455751 
L 249.927442 230.536344 
L 250.181332 227.057259 
L 250.689112 229.353303 
L 250.943003 229.485079 
L 251.196893 225.676055 
L 251.450783 228.823264 
L 251.704673 228.79084 
L 251.958564 228.888135 
L 252.466344 227.050874 
L 252.720234 227.363402 
L 252.974125 227.956152 
L 253.228015 225.029792 
L 253.481905 228.27096 
L 253.735795 226.158808 
L 253.989686 228.206394 
L 254.243576 227.704767 
L 254.497466 228.926849 
L 254.751356 227.327207 
L 255.005247 228.592269 
L 255.259137 228.395242 
L 255.513027 225.828113 
L 255.766917 227.37017 
L 256.020808 228.127967 
L 256.274698 227.7863 
L 256.528588 228.895392 
L 256.782479 227.577974 
L 257.036369 229.266583 
L 257.290259 227.43245 
L 257.544149 226.652477 
L 257.79804 229.24346 
L 258.05193 229.316583 
L 258.55971 228.859848 
L 258.813601 227.249115 
L 259.067491 227.115429 
L 259.321381 229.381037 
L 259.575271 228.803449 
L 259.829162 226.052322 
L 260.083052 227.834098 
L 260.336942 227.896378 
L 260.590832 226.80721 
L 260.844723 228.750379 
L 261.098613 228.946579 
L 261.352503 229.727807 
L 261.606393 227.177163 
L 261.860284 229.801274 
L 262.114174 229.121547 
L 262.368064 227.055138 
L 262.621954 228.325605 
L 262.875845 228.753556 
L 263.129735 229.936017 
L 263.383625 227.17971 
L 263.637515 229.120444 
L 263.891406 228.253527 
L 264.145296 229.213483 
L 264.399186 227.825713 
L 264.653076 228.761579 
L 264.906967 228.775461 
L 265.160857 229.220242 
L 265.414747 227.422859 
L 265.668637 230.204728 
L 265.922528 228.498362 
L 266.176418 229.311908 
L 266.430308 228.799264 
L 266.684198 227.156826 
L 266.938089 227.124215 
L 267.191979 227.919605 
L 267.445869 229.670108 
L 267.699759 228.538996 
L 267.95365 228.226679 
L 268.20754 226.080256 
L 268.46143 226.772146 
L 268.71532 229.955329 
L 268.969211 226.751404 
L 269.223101 226.892386 
L 269.476991 228.151357 
L 269.730881 228.668026 
L 269.984772 228.330511 
L 270.238662 229.34182 
L 270.492552 226.486377 
L 270.746442 229.39523 
L 271.000333 228.506306 
L 271.254223 229.278245 
L 271.508113 227.412978 
L 272.015894 227.236861 
L 272.269784 228.755894 
L 272.523674 228.324904 
L 272.777564 228.308447 
L 273.031455 228.002734 
L 273.285345 228.069649 
L 273.793126 229.231122 
L 274.047016 228.858955 
L 274.300906 227.580282 
L 274.554796 229.077825 
L 274.808687 228.065768 
L 275.062577 228.615068 
L 275.316467 227.353505 
L 275.824248 228.153059 
L 276.078138 229.57069 
L 276.332028 227.59638 
L 276.585918 227.588071 
L 276.839809 229.668797 
L 277.093699 227.533076 
L 277.347589 227.733158 
L 277.601479 228.906854 
L 278.10926 227.22767 
L 278.61704 229.875279 
L 278.870931 225.564736 
L 279.124821 229.707799 
L 279.378711 229.209174 
L 279.632601 228.231133 
L 279.886492 228.407831 
L 280.140382 228.824916 
L 280.394272 227.729838 
L 280.648162 228.585286 
L 280.902053 226.987674 
L 281.155943 226.975838 
L 281.409833 226.637744 
L 281.663723 229.362857 
L 281.917614 228.691435 
L 282.425394 225.581185 
L 282.679284 227.874276 
L 282.933175 227.134732 
L 283.187065 227.180605 
L 283.440955 229.186252 
L 283.694845 229.248178 
L 284.202626 227.666136 
L 284.456516 229.433357 
L 284.710406 229.353838 
L 284.964297 227.797825 
L 285.218187 229.120958 
L 285.472077 225.422501 
L 285.725967 225.779774 
L 285.979858 229.679849 
L 286.233748 228.30221 
L 286.487638 227.679483 
L 286.741528 228.877408 
L 286.995419 227.528919 
L 287.249309 227.877811 
L 287.503199 228.550677 
L 287.757089 225.652303 
L 288.01098 229.25571 
L 288.51876 227.353487 
L 288.77265 228.638534 
L 289.026541 227.576453 
L 289.280431 227.356644 
L 289.534321 229.442298 
L 289.788212 227.557518 
L 290.042102 226.700325 
L 290.295992 227.015724 
L 290.549882 227.91143 
L 290.803773 229.578164 
L 291.057663 227.440319 
L 291.565443 227.983954 
L 291.819334 226.834718 
L 292.073224 228.216239 
L 292.581004 228.754212 
L 292.834895 227.36844 
L 293.088785 228.753647 
L 293.342675 227.257241 
L 293.596565 229.108857 
L 293.850456 227.150331 
L 294.104346 228.023701 
L 294.358236 226.141437 
L 294.612126 228.385926 
L 294.866017 227.798978 
L 295.119907 228.170466 
L 295.373797 229.027755 
L 295.627687 228.354261 
L 295.881578 227.208624 
L 296.135468 229.033721 
L 296.389358 229.133818 
L 296.643248 228.687969 
L 296.897139 230.27373 
L 297.151029 227.352432 
L 297.404919 229.002867 
L 297.658809 228.001688 
L 297.9127 227.638941 
L 298.16659 227.079766 
L 298.42048 229.20485 
L 298.67437 229.204391 
L 298.928261 229.337555 
L 299.182151 229.033008 
L 299.436041 229.62907 
L 299.689931 229.129722 
L 299.943822 227.71442 
L 300.197712 227.471129 
L 300.451602 226.733638 
L 300.959383 228.681782 
L 301.213273 229.632551 
L 301.974944 227.564454 
L 302.228834 226.631783 
L 302.482724 228.230612 
L 302.736614 228.673099 
L 302.990505 228.522805 
L 303.498285 228.911135 
L 303.752175 228.399386 
L 304.006066 230.033541 
L 304.259956 229.342313 
L 304.513846 229.196397 
L 304.767736 228.750579 
L 305.275517 228.362048 
L 305.529407 230.001971 
L 305.783298 228.150586 
L 306.291078 227.93057 
L 306.544968 229.150819 
L 306.798859 228.111615 
L 307.052749 228.855166 
L 307.306639 228.378754 
L 307.560529 227.033042 
L 307.81442 227.757815 
L 308.06831 227.637551 
L 308.3222 227.803591 
L 308.57609 228.763849 
L 308.829981 226.405353 
L 309.083871 226.476994 
L 309.337761 228.316509 
L 309.591651 227.619512 
L 309.845542 228.954499 
L 310.099432 228.943273 
L 310.099432 228.943273 
" clip-path="url(#p20be13aa7c)" style="fill: none; stroke: #0000ff; stroke-width: 0.6; stroke-linecap: square"/>
   </g>
   <g id="line2d_26">
    <path d="M 56.463068 120.905596 
L 56.970849 120.797561 
L 58.2403 121.626145 
L 58.49419 121.580213 
L 59.763641 122.036864 
L 60.525312 122.923656 
L 60.779202 123.06329 
L 62.048654 124.773126 
L 62.302544 125.436009 
L 62.556434 125.359302 
L 62.810325 124.861517 
L 63.064215 127.071246 
L 63.571995 129.152514 
L 64.079776 131.990647 
L 65.095337 139.124094 
L 65.349227 141.011977 
L 65.603117 138.304453 
L 65.857008 144.96286 
L 66.110898 139.768057 
L 66.364788 147.315253 
L 66.618678 147.388076 
L 66.872569 146.168758 
L 67.126459 146.080357 
L 67.380349 142.275401 
L 67.634239 146.362424 
L 67.88813 138.781832 
L 68.14202 146.283287 
L 68.39591 145.602215 
L 68.6498 145.271737 
L 68.903691 143.390639 
L 69.157581 142.601101 
L 69.411471 141.312704 
L 69.665361 144.623649 
L 69.919252 143.655893 
L 70.173142 140.901202 
L 70.427032 128.387919 
L 70.680922 140.940851 
L 71.188703 133.019442 
L 71.442593 137.300763 
L 71.696483 133.200892 
L 71.950374 137.829233 
L 72.204264 138.911507 
L 72.458154 129.380026 
L 72.712044 130.485167 
L 72.965935 136.444625 
L 73.219825 134.472707 
L 73.473715 127.946957 
L 73.727605 133.692594 
L 73.981496 129.956837 
L 74.235386 124.487596 
L 74.489276 114.213372 
L 74.743166 130.652564 
L 74.997057 119.19056 
L 75.250947 129.334486 
L 75.504837 125.818573 
L 75.758727 111.112474 
L 76.012618 123.844597 
L 76.266508 118.737824 
L 76.520398 124.20849 
L 76.774288 116.640285 
L 77.028179 116.386584 
L 77.282069 116.723306 
L 77.535959 114.153357 
L 77.78985 114.99761 
L 78.29763 109.205901 
L 78.55152 111.251013 
L 78.805411 110.847662 
L 79.059301 98.893915 
L 79.313191 109.049435 
L 79.567081 107.88982 
L 79.820972 101.511492 
L 80.074862 99.980416 
L 80.328752 96.870695 
L 80.582642 101.76713 
L 80.836533 98.363227 
L 81.090423 101.35059 
L 81.344313 99.954951 
L 81.598203 96.607188 
L 82.105984 102.927939 
L 82.613764 98.317245 
L 82.867655 97.92373 
L 83.121545 96.052088 
L 83.375435 96.001378 
L 83.883216 91.947911 
L 84.137106 92.649178 
L 84.390996 90.277482 
L 84.898777 96.590616 
L 85.152667 91.265384 
L 85.406557 94.861618 
L 85.660447 90.474651 
L 85.914338 92.534338 
L 86.168228 89.863501 
L 86.422118 92.102882 
L 86.676008 88.575626 
L 87.183789 90.653461 
L 87.437679 89.80695 
L 87.691569 89.888284 
L 87.94546 89.322274 
L 88.45324 83.99669 
L 88.70713 84.530691 
L 88.961021 81.01259 
L 89.214911 88.565498 
L 89.468801 86.049261 
L 89.722691 84.759679 
L 89.976582 84.98689 
L 90.230472 83.025702 
L 90.484362 84.677571 
L 90.738252 91.668544 
L 90.992143 82.62993 
L 91.246033 79.226599 
L 91.499923 88.545533 
L 91.753813 78.261703 
L 92.007704 78.196088 
L 92.515484 80.053828 
L 93.023265 75.821581 
L 93.277155 80.40939 
L 93.784936 74.473189 
L 94.038826 74.483829 
L 94.292716 72.262145 
L 94.546606 75.175059 
L 94.800497 76.285118 
L 95.054387 78.752803 
L 95.562167 76.780373 
L 95.816058 75.535429 
L 96.323838 71.96452 
L 96.577728 72.636789 
L 96.831619 73.746677 
L 97.085509 72.369377 
L 97.593289 73.326142 
L 97.84718 72.263631 
L 98.10107 69.634279 
L 98.35496 71.594534 
L 98.60885 71.228683 
L 98.862741 72.011406 
L 99.116631 69.633095 
L 99.370521 68.538002 
L 99.624411 69.369658 
L 99.878302 69.66905 
L 100.132192 66.773792 
L 100.386082 67.28846 
L 100.639972 66.468629 
L 100.893863 67.104672 
L 101.147753 70.058168 
L 101.401643 69.478817 
L 101.655533 70.56604 
L 102.163314 65.224166 
L 102.417204 66.607449 
L 102.671094 65.985238 
L 102.924985 67.497423 
L 103.178875 63.675885 
L 103.432765 63.075195 
L 103.940546 63.292409 
L 104.194436 62.469405 
L 104.448326 59.854448 
L 104.702216 63.230035 
L 104.956107 62.590258 
L 105.209997 60.114121 
L 105.463887 61.529704 
L 105.717777 62.094781 
L 105.971668 61.123763 
L 106.225558 61.720559 
L 106.479448 61.270353 
L 106.733338 59.549967 
L 106.987229 60.446928 
L 107.241119 59.410645 
L 107.495009 59.168879 
L 107.748899 59.599934 
L 108.00279 60.606365 
L 108.25668 60.705095 
L 108.51057 59.640265 
L 109.018351 54.190788 
L 109.526131 57.602671 
L 109.780021 58.110514 
L 110.033912 59.706774 
L 110.541692 56.155228 
L 110.795583 55.14948 
L 111.049473 54.999257 
L 111.303363 54.646274 
L 111.557253 56.672044 
L 112.065034 54.631559 
L 112.318924 55.705262 
L 112.572814 55.927736 
L 112.826705 55.454744 
L 113.334485 58.713935 
L 113.842266 58.595993 
L 114.096156 57.431811 
L 114.350046 57.091998 
L 114.603936 55.272983 
L 115.873388 57.471138 
L 116.127278 55.736017 
L 116.381168 54.9521 
L 116.635058 55.679566 
L 117.142839 54.440945 
L 117.396729 54.104264 
L 117.90451 52.600871 
L 118.1584 52.85693 
L 118.41229 53.359955 
L 118.66618 53.464105 
L 118.920071 53.431624 
L 119.427851 54.444378 
L 119.935632 54.214276 
L 120.443412 51.82934 
L 120.697302 51.597713 
L 121.205083 52.970335 
L 121.458973 53.514876 
L 121.966754 52.460646 
L 122.220644 52.524927 
L 122.728424 54.186532 
L 122.982315 53.909012 
L 123.236205 54.610902 
L 123.490095 54.612648 
L 123.743985 53.585139 
L 123.997876 53.309406 
L 124.251766 52.281555 
L 124.505656 52.230825 
L 124.759546 52.759385 
L 125.013437 52.48323 
L 125.267327 52.586798 
L 125.775107 52.276175 
L 126.028998 51.994118 
L 126.282888 52.390784 
L 126.790669 51.326657 
L 127.044559 51.67185 
L 127.298449 51.650129 
L 127.552339 49.999304 
L 127.80623 50.309064 
L 128.06012 51.018523 
L 128.31401 51.036329 
L 128.5679 50.656386 
L 129.075681 52.584349 
L 129.329571 52.236225 
L 129.583461 51.527349 
L 129.837352 53.362525 
L 130.091242 52.99302 
L 130.345132 53.026064 
L 131.106803 51.792201 
L 131.614583 51.186171 
L 131.868474 50.579819 
L 132.376254 50.125035 
L 132.630144 49.941849 
L 133.137925 50.124533 
L 133.391815 51.212369 
L 133.645705 51.622807 
L 134.661266 50.725545 
L 135.169047 49.033806 
L 135.422937 49.55249 
L 135.676827 49.752339 
L 135.930718 50.146977 
L 136.438498 49.646562 
L 136.946279 49.203924 
L 137.707949 48.965691 
L 138.21573 49.131432 
L 138.46962 49.304119 
L 138.72351 49.640178 
L 138.977401 49.610808 
L 139.231291 49.24568 
L 139.485181 49.178609 
L 139.739071 48.911508 
L 140.246852 48.919318 
L 140.754632 48.47951 
L 141.262413 47.423814 
L 141.516303 47.47597 
L 142.024084 48.71188 
L 142.277974 48.776824 
L 142.531864 48.245172 
L 143.039645 48.157824 
L 144.309096 47.235449 
L 144.562986 47.203248 
L 145.070767 47.850854 
L 145.324657 48.337096 
L 145.578547 48.523334 
L 146.594108 47.943421 
L 147.101889 48.378471 
L 147.355779 48.495791 
L 147.609669 48.310597 
L 148.11745 48.296564 
L 149.133011 47.471112 
L 149.640791 47.125677 
L 149.894682 47.1584 
L 151.164133 48.553306 
L 151.671913 48.854976 
L 151.925804 48.731915 
L 152.433584 48.283696 
L 152.687474 48.070216 
L 152.941365 48.084931 
L 153.956926 47.429435 
L 154.464706 47.584898 
L 155.480267 47.059911 
L 155.988048 46.561704 
L 158.27306 47.146556 
L 159.034731 46.883711 
L 160.558072 46.810416 
L 162.335304 47.435016 
L 163.096975 47.247956 
L 163.350865 47.13437 
L 164.112536 47.368728 
L 164.620316 47.314103 
L 164.874207 47.219589 
L 165.381987 47.266666 
L 165.635877 47.132643 
L 166.397548 47.071936 
L 167.413109 46.716805 
L 167.666999 46.55532 
L 167.92089 46.57656 
L 168.42867 46.83274 
L 169.190341 46.666858 
L 169.698121 46.676113 
L 170.205902 46.618156 
L 170.713682 46.652725 
L 172.237024 46.579852 
L 173.252585 46.83818 
L 173.760365 47.111585 
L 174.775926 47.168418 
L 177.060939 46.693639 
L 178.838171 46.712369 
L 179.599841 46.72881 
L 180.361512 46.606894 
L 180.869293 46.768399 
L 182.392634 46.768861 
L 183.408195 46.672058 
L 185.185427 46.726783 
L 189.247671 46.824047 
L 191.278793 46.749307 
L 192.548244 46.69663 
L 194.325476 46.802145 
L 199.403281 46.737985 
L 201.942184 46.79267 
L 207.273879 46.701729 
L 211.082233 46.698898 
L 216.921709 46.690587 
L 310.099432 46.58447 
L 310.099432 46.58447 
" clip-path="url(#p20be13aa7c)" style="fill: none; stroke: #ff0000; stroke-width: 0.6; stroke-linecap: square"/>
   </g>
   <g id="patch_3">
    <path d="M 43.78125 239.76 
L 43.78125 37.296 
" style="fill: none; stroke: #000000; stroke-width: 0.8; stroke-linejoin: miter; stroke-linecap: square"/>
   </g>
   <g id="patch_4">
    <path d="M 322.78125 239.76 
L 322.78125 37.296 
" style="fill: none; stroke: #000000; stroke-width: 0.8; stroke-linejoin: miter; stroke-linecap: square"/>
   </g>
   <g id="patch_5">
    <path d="M 43.78125 239.76 
L 322.78125 239.76 
" style="fill: none; stroke: #000000; stroke-width: 0.8; stroke-linejoin: miter; stroke-linecap: square"/>
   </g>
   <g id="patch_6">
    <path d="M 43.78125 37.296 
L 322.78125 37.296 
" style="fill: none; stroke: #000000; stroke-width: 0.8; stroke-linejoin: miter; stroke-linecap: square"/>
   </g>
   <g id="text_15">
    <!-- Baseline Model -->
    <g transform="translate(149.259844 31.296) scale(0.09 -0.09)">
     <defs>
      <path id="DejaVuSans-42" d="M 1259 2228 
L 1259 519 
L 2272 519 
Q 2781 519 3026 730 
Q 3272 941 3272 1375 
Q 3272 1813 3026 2020 
Q 2781 2228 2272 2228 
L 1259 2228 
z
M 1259 4147 
L 1259 2741 
L 2194 2741 
Q 2656 2741 2882 2914 
Q 3109 3088 3109 3444 
Q 3109 3797 2882 3972 
Q 2656 4147 2194 4147 
L 1259 4147 
z
M 628 4666 
L 2241 4666 
Q 2963 4666 3353 4366 
Q 3744 4066 3744 3513 
Q 3744 3084 3544 2831 
Q 3344 2578 2956 2516 
Q 3422 2416 3680 2098 
Q 3938 1781 3938 1306 
Q 3938 681 3513 340 
Q 3088 0 2303 0 
L 628 0 
L 628 4666 
z
" transform="scale(0.015625)"/>
      <path id="DejaVuSans-61" d="M 2194 1759 
Q 1497 1759 1228 1600 
Q 959 1441 959 1056 
Q 959 750 1161 570 
Q 1363 391 1709 391 
Q 2188 391 2477 730 
Q 2766 1069 2766 1631 
L 2766 1759 
L 2194 1759 
z
M 3341 1997 
L 3341 0 
L 2766 0 
L 2766 531 
Q 2569 213 2275 61 
Q 1981 -91 1556 -91 
Q 1019 -91 701 211 
Q 384 513 384 1019 
Q 384 1609 779 1909 
Q 1175 2209 1959 2209 
L 2766 2209 
L 2766 2266 
Q 2766 2663 2505 2880 
Q 2244 3097 1772 3097 
Q 1472 3097 1187 3025 
Q 903 2953 641 2809 
L 641 3341 
Q 956 3463 1253 3523 
Q 1550 3584 1831 3584 
Q 2591 3584 2966 3190 
Q 3341 2797 3341 1997 
z
" transform="scale(0.015625)"/>
      <path id="DejaVuSans-65" d="M 3597 1894 
L 3597 1613 
L 953 1613 
Q 991 1019 1311 708 
Q 1631 397 2203 397 
Q 2534 397 2845 478 
Q 3156 559 3463 722 
L 3463 178 
Q 3153 47 2828 -22 
Q 2503 -91 2169 -91 
Q 1331 -91 842 396 
Q 353 884 353 1716 
Q 353 2575 817 3079 
Q 1281 3584 2069 3584 
Q 2775 3584 3186 3129 
Q 3597 2675 3597 1894 
z
M 3022 2063 
Q 3016 2534 2758 2815 
Q 2500 3097 2075 3097 
Q 1594 3097 1305 2825 
Q 1016 2553 972 2059 
L 3022 2063 
z
" transform="scale(0.015625)"/>
      <path id="DejaVuSans-6c" d="M 603 4863 
L 1178 4863 
L 1178 0 
L 603 0 
L 603 4863 
z
" transform="scale(0.015625)"/>
      <path id="DejaVuSans-69" d="M 603 3500 
L 1178 3500 
L 1178 0 
L 603 0 
L 603 3500 
z
M 603 4863 
L 1178 4863 
L 1178 4134 
L 603 4134 
L 603 4863 
z
" transform="scale(0.015625)"/>
      <path id="DejaVuSans-6e" d="M 3513 2113 
L 3513 0 
L 2938 0 
L 2938 2094 
Q 2938 2591 2744 2837 
Q 2550 3084 2163 3084 
Q 1697 3084 1428 2787 
Q 1159 2491 1159 1978 
L 1159 0 
L 581 0 
L 581 3500 
L 1159 3500 
L 1159 2956 
Q 1366 3272 1645 3428 
Q 1925 3584 2291 3584 
Q 2894 3584 3203 3211 
Q 3513 2838 3513 2113 
z
" transform="scale(0.015625)"/>
      <path id="DejaVuSans-20" transform="scale(0.015625)"/>
      <path id="DejaVuSans-4d" d="M 628 4666 
L 1569 4666 
L 2759 1491 
L 3956 4666 
L 4897 4666 
L 4897 0 
L 4281 0 
L 4281 4097 
L 3078 897 
L 2444 897 
L 1241 4097 
L 1241 0 
L 628 0 
L 628 4666 
z
" transform="scale(0.015625)"/>
      <path id="DejaVuSans-64" d="M 2906 2969 
L 2906 4863 
L 3481 4863 
L 3481 0 
L 2906 0 
L 2906 525 
Q 2725 213 2448 61 
Q 2172 -91 1784 -91 
Q 1150 -91 751 415 
Q 353 922 353 1747 
Q 353 2572 751 3078 
Q 1150 3584 1784 3584 
Q 2172 3584 2448 3432 
Q 2725 3281 2906 2969 
z
M 947 1747 
Q 947 1113 1208 752 
Q 1469 391 1925 391 
Q 2381 391 2643 752 
Q 2906 1113 2906 1747 
Q 2906 2381 2643 2742 
Q 2381 3103 1925 3103 
Q 1469 3103 1208 2742 
Q 947 2381 947 1747 
z
" transform="scale(0.015625)"/>
     </defs>
     <use xlink:href="#DejaVuSans-42"/>
     <use xlink:href="#DejaVuSans-61" x="68.603516"/>
     <use xlink:href="#DejaVuSans-73" x="129.882812"/>
     <use xlink:href="#DejaVuSans-65" x="181.982422"/>
     <use xlink:href="#DejaVuSans-6c" x="243.505859"/>
     <use xlink:href="#DejaVuSans-69" x="271.289062"/>
     <use xlink:href="#DejaVuSans-6e" x="299.072266"/>
     <use xlink:href="#DejaVuSans-65" x="362.451172"/>
     <use xlink:href="#DejaVuSans-20" x="423.974609"/>
     <use xlink:href="#DejaVuSans-4d" x="455.761719"/>
     <use xlink:href="#DejaVuSans-6f" x="542.041016"/>
     <use xlink:href="#DejaVuSans-64" x="603.222656"/>
     <use xlink:href="#DejaVuSans-65" x="666.699219"/>
     <use xlink:href="#DejaVuSans-6c" x="728.222656"/>
    </g>
   </g>
   <g id="legend_1">
    <g id="patch_7">
     <path d="M 209.2875 154.706125 
L 315.78125 154.706125 
Q 317.78125 154.706125 317.78125 152.706125 
L 317.78125 124.349875 
Q 317.78125 122.349875 315.78125 122.349875 
L 209.2875 122.349875 
Q 207.2875 122.349875 207.2875 124.349875 
L 207.2875 152.706125 
Q 207.2875 154.706125 209.2875 154.706125 
z
" style="fill: #ffffff; opacity: 0.8; stroke: #cccccc; stroke-linejoin: miter"/>
    </g>
    <g id="line2d_27">
     <path d="M 211.2875 130.448312 
L 221.2875 130.448312 
L 231.2875 130.448312 
" style="fill: none; stroke: #0000ff; stroke-width: 0.6; stroke-linecap: square"/>
    </g>
    <g id="text_16">
     <!-- Training Loss -->
     <g transform="translate(239.2875 133.948312) scale(0.1 -0.1)">
      <defs>
       <path id="DejaVuSans-54" d="M -19 4666 
L 3928 4666 
L 3928 4134 
L 2272 4134 
L 2272 0 
L 1638 0 
L 1638 4134 
L -19 4134 
L -19 4666 
z
" transform="scale(0.015625)"/>
       <path id="DejaVuSans-72" d="M 2631 2963 
Q 2534 3019 2420 3045 
Q 2306 3072 2169 3072 
Q 1681 3072 1420 2755 
Q 1159 2438 1159 1844 
L 1159 0 
L 581 0 
L 581 3500 
L 1159 3500 
L 1159 2956 
Q 1341 3275 1631 3429 
Q 1922 3584 2338 3584 
Q 2397 3584 2469 3576 
Q 2541 3569 2628 3553 
L 2631 2963 
z
" transform="scale(0.015625)"/>
       <path id="DejaVuSans-67" d="M 2906 1791 
Q 2906 2416 2648 2759 
Q 2391 3103 1925 3103 
Q 1463 3103 1205 2759 
Q 947 2416 947 1791 
Q 947 1169 1205 825 
Q 1463 481 1925 481 
Q 2391 481 2648 825 
Q 2906 1169 2906 1791 
z
M 3481 434 
Q 3481 -459 3084 -895 
Q 2688 -1331 1869 -1331 
Q 1566 -1331 1297 -1286 
Q 1028 -1241 775 -1147 
L 775 -588 
Q 1028 -725 1275 -790 
Q 1522 -856 1778 -856 
Q 2344 -856 2625 -561 
Q 2906 -266 2906 331 
L 2906 616 
Q 2728 306 2450 153 
Q 2172 0 1784 0 
Q 1141 0 747 490 
Q 353 981 353 1791 
Q 353 2603 747 3093 
Q 1141 3584 1784 3584 
Q 2172 3584 2450 3431 
Q 2728 3278 2906 2969 
L 2906 3500 
L 3481 3500 
L 3481 434 
z
" transform="scale(0.015625)"/>
      </defs>
      <use xlink:href="#DejaVuSans-54"/>
      <use xlink:href="#DejaVuSans-72" x="46.333984"/>
      <use xlink:href="#DejaVuSans-61" x="87.447266"/>
      <use xlink:href="#DejaVuSans-69" x="148.726562"/>
      <use xlink:href="#DejaVuSans-6e" x="176.509766"/>
      <use xlink:href="#DejaVuSans-69" x="239.888672"/>
      <use xlink:href="#DejaVuSans-6e" x="267.671875"/>
      <use xlink:href="#DejaVuSans-67" x="331.050781"/>
      <use xlink:href="#DejaVuSans-20" x="394.527344"/>
      <use xlink:href="#DejaVuSans-4c" x="426.314453"/>
      <use xlink:href="#DejaVuSans-6f" x="480.277344"/>
      <use xlink:href="#DejaVuSans-73" x="541.458984"/>
      <use xlink:href="#DejaVuSans-73" x="593.558594"/>
     </g>
    </g>
    <g id="line2d_28">
     <path d="M 211.2875 145.126437 
L 221.2875 145.126437 
L 231.2875 145.126437 
" style="fill: none; stroke: #ff0000; stroke-width: 0.6; stroke-linecap: square"/>
    </g>
    <g id="text_17">
     <!-- Validation Loss -->
     <g transform="translate(239.2875 148.626437) scale(0.1 -0.1)">
      <defs>
       <path id="DejaVuSans-56" d="M 1831 0 
L 50 4666 
L 709 4666 
L 2188 738 
L 3669 4666 
L 4325 4666 
L 2547 0 
L 1831 0 
z
" transform="scale(0.015625)"/>
       <path id="DejaVuSans-74" d="M 1172 4494 
L 1172 3500 
L 2356 3500 
L 2356 3053 
L 1172 3053 
L 1172 1153 
Q 1172 725 1289 603 
Q 1406 481 1766 481 
L 2356 481 
L 2356 0 
L 1766 0 
Q 1100 0 847 248 
Q 594 497 594 1153 
L 594 3053 
L 172 3053 
L 172 3500 
L 594 3500 
L 594 4494 
L 1172 4494 
z
" transform="scale(0.015625)"/>
      </defs>
      <use xlink:href="#DejaVuSans-56"/>
      <use xlink:href="#DejaVuSans-61" x="60.658203"/>
      <use xlink:href="#DejaVuSans-6c" x="121.9375"/>
      <use xlink:href="#DejaVuSans-69" x="149.720703"/>
      <use xlink:href="#DejaVuSans-64" x="177.503906"/>
      <use xlink:href="#DejaVuSans-61" x="240.980469"/>
      <use xlink:href="#DejaVuSans-74" x="302.259766"/>
      <use xlink:href="#DejaVuSans-69" x="341.46875"/>
      <use xlink:href="#DejaVuSans-6f" x="369.251953"/>
      <use xlink:href="#DejaVuSans-6e" x="430.433594"/>
      <use xlink:href="#DejaVuSans-20" x="493.8125"/>
      <use xlink:href="#DejaVuSans-4c" x="525.599609"/>
      <use xlink:href="#DejaVuSans-6f" x="579.5625"/>
      <use xlink:href="#DejaVuSans-73" x="640.744141"/>
      <use xlink:href="#DejaVuSans-73" x="692.84375"/>
     </g>
    </g>
   </g>
  </g>
  <g id="text_18">
   <!-- Training VS. Validation Loss - Dataset Size = 10.0% -->
   <g transform="translate(37.980391 15.558281) scale(0.11 -0.11)">
    <defs>
     <path id="DejaVuSans-53" d="M 3425 4513 
L 3425 3897 
Q 3066 4069 2747 4153 
Q 2428 4238 2131 4238 
Q 1616 4238 1336 4038 
Q 1056 3838 1056 3469 
Q 1056 3159 1242 3001 
Q 1428 2844 1947 2747 
L 2328 2669 
Q 3034 2534 3370 2195 
Q 3706 1856 3706 1288 
Q 3706 609 3251 259 
Q 2797 -91 1919 -91 
Q 1588 -91 1214 -16 
Q 841 59 441 206 
L 441 856 
Q 825 641 1194 531 
Q 1563 422 1919 422 
Q 2459 422 2753 634 
Q 3047 847 3047 1241 
Q 3047 1584 2836 1778 
Q 2625 1972 2144 2069 
L 1759 2144 
Q 1053 2284 737 2584 
Q 422 2884 422 3419 
Q 422 4038 858 4394 
Q 1294 4750 2059 4750 
Q 2388 4750 2728 4690 
Q 3069 4631 3425 4513 
z
" transform="scale(0.015625)"/>
     <path id="DejaVuSans-2d" d="M 313 2009 
L 1997 2009 
L 1997 1497 
L 313 1497 
L 313 2009 
z
" transform="scale(0.015625)"/>
     <path id="DejaVuSans-44" d="M 1259 4147 
L 1259 519 
L 2022 519 
Q 2988 519 3436 956 
Q 3884 1394 3884 2338 
Q 3884 3275 3436 3711 
Q 2988 4147 2022 4147 
L 1259 4147 
z
M 628 4666 
L 1925 4666 
Q 3281 4666 3915 4102 
Q 4550 3538 4550 2338 
Q 4550 1131 3912 565 
Q 3275 0 1925 0 
L 628 0 
L 628 4666 
z
" transform="scale(0.015625)"/>
     <path id="DejaVuSans-7a" d="M 353 3500 
L 3084 3500 
L 3084 2975 
L 922 459 
L 3084 459 
L 3084 0 
L 275 0 
L 275 525 
L 2438 3041 
L 353 3041 
L 353 3500 
z
" transform="scale(0.015625)"/>
     <path id="DejaVuSans-3d" d="M 678 2906 
L 4684 2906 
L 4684 2381 
L 678 2381 
L 678 2906 
z
M 678 1631 
L 4684 1631 
L 4684 1100 
L 678 1100 
L 678 1631 
z
" transform="scale(0.015625)"/>
     <path id="DejaVuSans-25" d="M 4653 2053 
Q 4381 2053 4226 1822 
Q 4072 1591 4072 1178 
Q 4072 772 4226 539 
Q 4381 306 4653 306 
Q 4919 306 5073 539 
Q 5228 772 5228 1178 
Q 5228 1588 5073 1820 
Q 4919 2053 4653 2053 
z
M 4653 2450 
Q 5147 2450 5437 2106 
Q 5728 1763 5728 1178 
Q 5728 594 5436 251 
Q 5144 -91 4653 -91 
Q 4153 -91 3862 251 
Q 3572 594 3572 1178 
Q 3572 1766 3864 2108 
Q 4156 2450 4653 2450 
z
M 1428 4353 
Q 1159 4353 1004 4120 
Q 850 3888 850 3481 
Q 850 3069 1003 2837 
Q 1156 2606 1428 2606 
Q 1700 2606 1854 2837 
Q 2009 3069 2009 3481 
Q 2009 3884 1853 4118 
Q 1697 4353 1428 4353 
z
M 4250 4750 
L 4750 4750 
L 1831 -91 
L 1331 -91 
L 4250 4750 
z
M 1428 4750 
Q 1922 4750 2215 4408 
Q 2509 4066 2509 3481 
Q 2509 2891 2217 2550 
Q 1925 2209 1428 2209 
Q 931 2209 642 2551 
Q 353 2894 353 3481 
Q 353 4063 643 4406 
Q 934 4750 1428 4750 
z
" transform="scale(0.015625)"/>
    </defs>
    <use xlink:href="#DejaVuSans-54"/>
    <use xlink:href="#DejaVuSans-72" x="46.333984"/>
    <use xlink:href="#DejaVuSans-61" x="87.447266"/>
    <use xlink:href="#DejaVuSans-69" x="148.726562"/>
    <use xlink:href="#DejaVuSans-6e" x="176.509766"/>
    <use xlink:href="#DejaVuSans-69" x="239.888672"/>
    <use xlink:href="#DejaVuSans-6e" x="267.671875"/>
    <use xlink:href="#DejaVuSans-67" x="331.050781"/>
    <use xlink:href="#DejaVuSans-20" x="394.527344"/>
    <use xlink:href="#DejaVuSans-56" x="426.314453"/>
    <use xlink:href="#DejaVuSans-53" x="494.722656"/>
    <use xlink:href="#DejaVuSans-2e" x="558.199219"/>
    <use xlink:href="#DejaVuSans-20" x="589.986328"/>
    <use xlink:href="#DejaVuSans-56" x="621.773438"/>
    <use xlink:href="#DejaVuSans-61" x="682.431641"/>
    <use xlink:href="#DejaVuSans-6c" x="743.710938"/>
    <use xlink:href="#DejaVuSans-69" x="771.494141"/>
    <use xlink:href="#DejaVuSans-64" x="799.277344"/>
    <use xlink:href="#DejaVuSans-61" x="862.753906"/>
    <use xlink:href="#DejaVuSans-74" x="924.033203"/>
    <use xlink:href="#DejaVuSans-69" x="963.242188"/>
    <use xlink:href="#DejaVuSans-6f" x="991.025391"/>
    <use xlink:href="#DejaVuSans-6e" x="1052.207031"/>
    <use xlink:href="#DejaVuSans-20" x="1115.585938"/>
    <use xlink:href="#DejaVuSans-4c" x="1147.373047"/>
    <use xlink:href="#DejaVuSans-6f" x="1201.335938"/>
    <use xlink:href="#DejaVuSans-73" x="1262.517578"/>
    <use xlink:href="#DejaVuSans-73" x="1314.617188"/>
    <use xlink:href="#DejaVuSans-20" x="1366.716797"/>
    <use xlink:href="#DejaVuSans-2d" x="1398.503906"/>
    <use xlink:href="#DejaVuSans-20" x="1434.587891"/>
    <use xlink:href="#DejaVuSans-44" x="1466.375"/>
    <use xlink:href="#DejaVuSans-61" x="1543.376953"/>
    <use xlink:href="#DejaVuSans-74" x="1604.65625"/>
    <use xlink:href="#DejaVuSans-61" x="1643.865234"/>
    <use xlink:href="#DejaVuSans-73" x="1705.144531"/>
    <use xlink:href="#DejaVuSans-65" x="1757.244141"/>
    <use xlink:href="#DejaVuSans-74" x="1818.767578"/>
    <use xlink:href="#DejaVuSans-20" x="1857.976562"/>
    <use xlink:href="#DejaVuSans-53" x="1889.763672"/>
    <use xlink:href="#DejaVuSans-69" x="1953.240234"/>
    <use xlink:href="#DejaVuSans-7a" x="1981.023438"/>
    <use xlink:href="#DejaVuSans-65" x="2033.513672"/>
    <use xlink:href="#DejaVuSans-20" x="2095.037109"/>
    <use xlink:href="#DejaVuSans-3d" x="2126.824219"/>
    <use xlink:href="#DejaVuSans-20" x="2210.613281"/>
    <use xlink:href="#DejaVuSans-31" x="2242.400391"/>
    <use xlink:href="#DejaVuSans-30" x="2306.023438"/>
    <use xlink:href="#DejaVuSans-2e" x="2369.646484"/>
    <use xlink:href="#DejaVuSans-30" x="2401.433594"/>
    <use xlink:href="#DejaVuSans-25" x="2465.056641"/>
   </g>
  </g>
 </g>
 <defs>
  <clipPath id="p20be13aa7c">
   <rect x="43.78125" y="37.296" width="279" height="202.464"/>
  </clipPath>
 </defs>
</svg>
