<?xml version="1.0" encoding="utf-8" standalone="no"?>
<!DOCTYPE svg PUBLIC "-//W3C//DTD SVG 1.1//EN"
  "http://www.w3.org/Graphics/SVG/1.1/DTD/svg11.dtd">
<svg xmlns:xlink="http://www.w3.org/1999/xlink" width="330.024432pt" height="277.31625pt" viewBox="0 0 330.024432 277.31625" xmlns="http://www.w3.org/2000/svg" version="1.1">
 <metadata>
  <rdf:RDF xmlns:dc="http://purl.org/dc/elements/1.1/" xmlns:cc="http://creativecommons.org/ns#" xmlns:rdf="http://www.w3.org/1999/02/22-rdf-syntax-ns#">
   <cc:Work>
    <dc:type rdf:resource="http://purl.org/dc/dcmitype/StillImage"/>
    <dc:date>2026-06-11T10:43:57.704799</dc:date>
    <dc:format>image/svg+xml</dc:format>
    <dc:creator>
     <cc:Agent>
      <dc:title>Matplotlib v3.8.4, https://matplotlib.org/</dc:title>
     </cc:Agent>
    </dc:creator>
   </cc:Work>
  </rdf:RDF>
 </metadata>
 <defs>
  <style type="text/css">*{stroke-linejoin: round; stroke-linecap: butt}</style>
 </defs>
 <g id="figure_1">
  <g id="patch_1">
   <path d="M 0 277.31625 
L 330.024432 277.31625 
L 330.024432 0 
L 0 0 
z
" style="fill: #ffffff"/>
  </g>
  <g id="axes_1">
   <g id="patch_2">
    <path d="M 43.78125 239.76 
L 322.78125 239.76 
L 322.78125 37.296 
L 43.78125 37.296 
z
" style="fill: #ffffff"/>
   </g>
   <g id="matplotlib.axis_1">
    <g id="xtick_1">
     <g id="line2d_1">
      <path d="M 56.209178 239.76 
L 56.209178 37.296 
" clip-path="url(#p8200a4e73d)" style="fill: none; stroke-dasharray: 2.96,1.28; stroke-dashoffset: 0; stroke: #b0b0b0; stroke-opacity: 0.4; stroke-width: 0.8"/>
     </g>
     <g id="line2d_2">
      <defs>
       <path id="mba2deb2dcb" d="M 0 0 
L 0 3.5 
" style="stroke: #000000; stroke-width: 0.8"/>
      </defs>
      <g>
       <use xlink:href="#mba2deb2dcb" x="56.209178" y="239.76" style="stroke: #000000; stroke-width: 0.8"/>
      </g>
     </g>
     <g id="text_1">
      <!-- 0 -->
      <g transform="translate(53.027928 254.358437) scale(0.1 -0.1)">
       <defs>
        <path id="DejaVuSans-30" d="M 2034 4250 
Q 1547 4250 1301 3770 
Q 1056 3291 1056 2328 
Q 1056 1369 1301 889 
Q 1547 409 2034 409 
Q 2525 409 2770 889 
Q 3016 1369 3016 2328 
Q 3016 3291 2770 3770 
Q 2525 4250 2034 4250 
z
M 2034 4750 
Q 2819 4750 3233 4129 
Q 3647 3509 3647 2328 
Q 3647 1150 3233 529 
Q 2819 -91 2034 -91 
Q 1250 -91 836 529 
Q 422 1150 422 2328 
Q 422 3509 836 4129 
Q 1250 4750 2034 4750 
z
" transform="scale(0.015625)"/>
       </defs>
       <use xlink:href="#DejaVuSans-30"/>
      </g>
     </g>
    </g>
    <g id="xtick_2">
     <g id="line2d_3">
      <path d="M 106.987229 239.76 
L 106.987229 37.296 
" clip-path="url(#p8200a4e73d)" style="fill: none; stroke-dasharray: 2.96,1.28; stroke-dashoffset: 0; stroke: #b0b0b0; stroke-opacity: 0.4; stroke-width: 0.8"/>
     </g>
     <g id="line2d_4">
      <g>
       <use xlink:href="#mba2deb2dcb" x="106.987229" y="239.76" style="stroke: #000000; stroke-width: 0.8"/>
      </g>
     </g>
     <g id="text_2">
      <!-- 200 -->
      <g transform="translate(97.443479 254.358437) scale(0.1 -0.1)">
       <defs>
        <path id="DejaVuSans-32" d="M 1228 531 
L 3431 531 
L 3431 0 
L 469 0 
L 469 531 
Q 828 903 1448 1529 
Q 2069 2156 2228 2338 
Q 2531 2678 2651 2914 
Q 2772 3150 2772 3378 
Q 2772 3750 2511 3984 
Q 2250 4219 1831 4219 
Q 1534 4219 1204 4116 
Q 875 4013 500 3803 
L 500 4441 
Q 881 4594 1212 4672 
Q 1544 4750 1819 4750 
Q 2544 4750 2975 4387 
Q 3406 4025 3406 3419 
Q 3406 3131 3298 2873 
Q 3191 2616 2906 2266 
Q 2828 2175 2409 1742 
Q 1991 1309 1228 531 
z
" transform="scale(0.015625)"/>
       </defs>
       <use xlink:href="#DejaVuSans-32"/>
       <use xlink:href="#DejaVuSans-30" x="63.623047"/>
       <use xlink:href="#DejaVuSans-30" x="127.246094"/>
      </g>
     </g>
    </g>
    <g id="xtick_3">
     <g id="line2d_5">
      <path d="M 157.765279 239.76 
L 157.765279 37.296 
" clip-path="url(#p8200a4e73d)" style="fill: none; stroke-dasharray: 2.96,1.28; stroke-dashoffset: 0; stroke: #b0b0b0; stroke-opacity: 0.4; stroke-width: 0.8"/>
     </g>
     <g id="line2d_6">
      <g>
       <use xlink:href="#mba2deb2dcb" x="157.765279" y="239.76" style="stroke: #000000; stroke-width: 0.8"/>
      </g>
     </g>
     <g id="text_3">
      <!-- 400 -->
      <g transform="translate(148.221529 254.358437) scale(0.1 -0.1)">
       <defs>
        <path id="DejaVuSans-34" d="M 2419 4116 
L 825 1625 
L 2419 1625 
L 2419 4116 
z
M 2253 4666 
L 3047 4666 
L 3047 1625 
L 3713 1625 
L 3713 1100 
L 3047 1100 
L 3047 0 
L 2419 0 
L 2419 1100 
L 313 1100 
L 313 1709 
L 2253 4666 
z
" transform="scale(0.015625)"/>
       </defs>
       <use xlink:href="#DejaVuSans-34"/>
       <use xlink:href="#DejaVuSans-30" x="63.623047"/>
       <use xlink:href="#DejaVuSans-30" x="127.246094"/>
      </g>
     </g>
    </g>
    <g id="xtick_4">
     <g id="line2d_7">
      <path d="M 208.54333 239.76 
L 208.54333 37.296 
" clip-path="url(#p8200a4e73d)" style="fill: none; stroke-dasharray: 2.96,1.28; stroke-dashoffset: 0; stroke: #b0b0b0; stroke-opacity: 0.4; stroke-width: 0.8"/>
     </g>
     <g id="line2d_8">
      <g>
       <use xlink:href="#mba2deb2dcb" x="208.54333" y="239.76" style="stroke: #000000; stroke-width: 0.8"/>
      </g>
     </g>
     <g id="text_4">
      <!-- 600 -->
      <g transform="translate(198.99958 254.358437) scale(0.1 -0.1)">
       <defs>
        <path id="DejaVuSans-36" d="M 2113 2584 
Q 1688 2584 1439 2293 
Q 1191 2003 1191 1497 
Q 1191 994 1439 701 
Q 1688 409 2113 409 
Q 2538 409 2786 701 
Q 3034 994 3034 1497 
Q 3034 2003 2786 2293 
Q 2538 2584 2113 2584 
z
M 3366 4563 
L 3366 3988 
Q 3128 4100 2886 4159 
Q 2644 4219 2406 4219 
Q 1781 4219 1451 3797 
Q 1122 3375 1075 2522 
Q 1259 2794 1537 2939 
Q 1816 3084 2150 3084 
Q 2853 3084 3261 2657 
Q 3669 2231 3669 1497 
Q 3669 778 3244 343 
Q 2819 -91 2113 -91 
Q 1303 -91 875 529 
Q 447 1150 447 2328 
Q 447 3434 972 4092 
Q 1497 4750 2381 4750 
Q 2619 4750 2861 4703 
Q 3103 4656 3366 4563 
z
" transform="scale(0.015625)"/>
       </defs>
       <use xlink:href="#DejaVuSans-36"/>
       <use xlink:href="#DejaVuSans-30" x="63.623047"/>
       <use xlink:href="#DejaVuSans-30" x="127.246094"/>
      </g>
     </g>
    </g>
    <g id="xtick_5">
     <g id="line2d_9">
      <path d="M 259.321381 239.76 
L 259.321381 37.296 
" clip-path="url(#p8200a4e73d)" style="fill: none; stroke-dasharray: 2.96,1.28; stroke-dashoffset: 0; stroke: #b0b0b0; stroke-opacity: 0.4; stroke-width: 0.8"/>
     </g>
     <g id="line2d_10">
      <g>
       <use xlink:href="#mba2deb2dcb" x="259.321381" y="239.76" style="stroke: #000000; stroke-width: 0.8"/>
      </g>
     </g>
     <g id="text_5">
      <!-- 800 -->
      <g transform="translate(249.777631 254.358437) scale(0.1 -0.1)">
       <defs>
        <path id="DejaVuSans-38" d="M 2034 2216 
Q 1584 2216 1326 1975 
Q 1069 1734 1069 1313 
Q 1069 891 1326 650 
Q 1584 409 2034 409 
Q 2484 409 2743 651 
Q 3003 894 3003 1313 
Q 3003 1734 2745 1975 
Q 2488 2216 2034 2216 
z
M 1403 2484 
Q 997 2584 770 2862 
Q 544 3141 544 3541 
Q 544 4100 942 4425 
Q 1341 4750 2034 4750 
Q 2731 4750 3128 4425 
Q 3525 4100 3525 3541 
Q 3525 3141 3298 2862 
Q 3072 2584 2669 2484 
Q 3125 2378 3379 2068 
Q 3634 1759 3634 1313 
Q 3634 634 3220 271 
Q 2806 -91 2034 -91 
Q 1263 -91 848 271 
Q 434 634 434 1313 
Q 434 1759 690 2068 
Q 947 2378 1403 2484 
z
M 1172 3481 
Q 1172 3119 1398 2916 
Q 1625 2713 2034 2713 
Q 2441 2713 2670 2916 
Q 2900 3119 2900 3481 
Q 2900 3844 2670 4047 
Q 2441 4250 2034 4250 
Q 1625 4250 1398 4047 
Q 1172 3844 1172 3481 
z
" transform="scale(0.015625)"/>
       </defs>
       <use xlink:href="#DejaVuSans-38"/>
       <use xlink:href="#DejaVuSans-30" x="63.623047"/>
       <use xlink:href="#DejaVuSans-30" x="127.246094"/>
      </g>
     </g>
    </g>
    <g id="xtick_6">
     <g id="line2d_11">
      <path d="M 310.099432 239.76 
L 310.099432 37.296 
" clip-path="url(#p8200a4e73d)" style="fill: none; stroke-dasharray: 2.96,1.28; stroke-dashoffset: 0; stroke: #b0b0b0; stroke-opacity: 0.4; stroke-width: 0.8"/>
     </g>
     <g id="line2d_12">
      <g>
       <use xlink:href="#mba2deb2dcb" x="310.099432" y="239.76" style="stroke: #000000; stroke-width: 0.8"/>
      </g>
     </g>
     <g id="text_6">
      <!-- 1000 -->
      <g transform="translate(297.374432 254.358437) scale(0.1 -0.1)">
       <defs>
        <path id="DejaVuSans-31" d="M 794 531 
L 1825 531 
L 1825 4091 
L 703 3866 
L 703 4441 
L 1819 4666 
L 2450 4666 
L 2450 531 
L 3481 531 
L 3481 0 
L 794 0 
L 794 531 
z
" transform="scale(0.015625)"/>
       </defs>
       <use xlink:href="#DejaVuSans-31"/>
       <use xlink:href="#DejaVuSans-30" x="63.623047"/>
       <use xlink:href="#DejaVuSans-30" x="127.246094"/>
       <use xlink:href="#DejaVuSans-30" x="190.869141"/>
      </g>
     </g>
    </g>
    <g id="text_7">
     <!-- Epochs -->
     <g transform="translate(165.365625 268.036562) scale(0.1 -0.1)">
      <defs>
       <path id="DejaVuSans-45" d="M 628 4666 
L 3578 4666 
L 3578 4134 
L 1259 4134 
L 1259 2753 
L 3481 2753 
L 3481 2222 
L 1259 2222 
L 1259 531 
L 3634 531 
L 3634 0 
L 628 0 
L 628 4666 
z
" transform="scale(0.015625)"/>
       <path id="DejaVuSans-70" d="M 1159 525 
L 1159 -1331 
L 581 -1331 
L 581 3500 
L 1159 3500 
L 1159 2969 
Q 1341 3281 1617 3432 
Q 1894 3584 2278 3584 
Q 2916 3584 3314 3078 
Q 3713 2572 3713 1747 
Q 3713 922 3314 415 
Q 2916 -91 2278 -91 
Q 1894 -91 1617 61 
Q 1341 213 1159 525 
z
M 3116 1747 
Q 3116 2381 2855 2742 
Q 2594 3103 2138 3103 
Q 1681 3103 1420 2742 
Q 1159 2381 1159 1747 
Q 1159 1113 1420 752 
Q 1681 391 2138 391 
Q 2594 391 2855 752 
Q 3116 1113 3116 1747 
z
" transform="scale(0.015625)"/>
       <path id="DejaVuSans-6f" d="M 1959 3097 
Q 1497 3097 1228 2736 
Q 959 2375 959 1747 
Q 959 1119 1226 758 
Q 1494 397 1959 397 
Q 2419 397 2687 759 
Q 2956 1122 2956 1747 
Q 2956 2369 2687 2733 
Q 2419 3097 1959 3097 
z
M 1959 3584 
Q 2709 3584 3137 3096 
Q 3566 2609 3566 1747 
Q 3566 888 3137 398 
Q 2709 -91 1959 -91 
Q 1206 -91 779 398 
Q 353 888 353 1747 
Q 353 2609 779 3096 
Q 1206 3584 1959 3584 
z
" transform="scale(0.015625)"/>
       <path id="DejaVuSans-63" d="M 3122 3366 
L 3122 2828 
Q 2878 2963 2633 3030 
Q 2388 3097 2138 3097 
Q 1578 3097 1268 2742 
Q 959 2388 959 1747 
Q 959 1106 1268 751 
Q 1578 397 2138 397 
Q 2388 397 2633 464 
Q 2878 531 3122 666 
L 3122 134 
Q 2881 22 2623 -34 
Q 2366 -91 2075 -91 
Q 1284 -91 818 406 
Q 353 903 353 1747 
Q 353 2603 823 3093 
Q 1294 3584 2113 3584 
Q 2378 3584 2631 3529 
Q 2884 3475 3122 3366 
z
" transform="scale(0.015625)"/>
       <path id="DejaVuSans-68" d="M 3513 2113 
L 3513 0 
L 2938 0 
L 2938 2094 
Q 2938 2591 2744 2837 
Q 2550 3084 2163 3084 
Q 1697 3084 1428 2787 
Q 1159 2491 1159 1978 
L 1159 0 
L 581 0 
L 581 4863 
L 1159 4863 
L 1159 2956 
Q 1366 3272 1645 3428 
Q 1925 3584 2291 3584 
Q 2894 3584 3203 3211 
Q 3513 2838 3513 2113 
z
" transform="scale(0.015625)"/>
       <path id="DejaVuSans-73" d="M 2834 3397 
L 2834 2853 
Q 2591 2978 2328 3040 
Q 2066 3103 1784 3103 
Q 1356 3103 1142 2972 
Q 928 2841 928 2578 
Q 928 2378 1081 2264 
Q 1234 2150 1697 2047 
L 1894 2003 
Q 2506 1872 2764 1633 
Q 3022 1394 3022 966 
Q 3022 478 2636 193 
Q 2250 -91 1575 -91 
Q 1294 -91 989 -36 
Q 684 19 347 128 
L 347 722 
Q 666 556 975 473 
Q 1284 391 1588 391 
Q 1994 391 2212 530 
Q 2431 669 2431 922 
Q 2431 1156 2273 1281 
Q 2116 1406 1581 1522 
L 1381 1569 
Q 847 1681 609 1914 
Q 372 2147 372 2553 
Q 372 3047 722 3315 
Q 1072 3584 1716 3584 
Q 2034 3584 2315 3537 
Q 2597 3491 2834 3397 
z
" transform="scale(0.015625)"/>
      </defs>
      <use xlink:href="#DejaVuSans-45"/>
      <use xlink:href="#DejaVuSans-70" x="63.183594"/>
      <use xlink:href="#DejaVuSans-6f" x="126.660156"/>
      <use xlink:href="#DejaVuSans-63" x="187.841797"/>
      <use xlink:href="#DejaVuSans-68" x="242.822266"/>
      <use xlink:href="#DejaVuSans-73" x="306.201172"/>
     </g>
    </g>
   </g>
   <g id="matplotlib.axis_2">
    <g id="ytick_1">
     <g id="line2d_13">
      <path d="M 43.78125 235.137592 
L 322.78125 235.137592 
" clip-path="url(#p8200a4e73d)" style="fill: none; stroke-dasharray: 2.96,1.28; stroke-dashoffset: 0; stroke: #b0b0b0; stroke-opacity: 0.4; stroke-width: 0.8"/>
     </g>
     <g id="line2d_14">
      <defs>
       <path id="medc6e0fd53" d="M 0 0 
L -3.5 0 
" style="stroke: #000000; stroke-width: 0.8"/>
      </defs>
      <g>
       <use xlink:href="#medc6e0fd53" x="43.78125" y="235.137592" style="stroke: #000000; stroke-width: 0.8"/>
      </g>
     </g>
     <g id="text_8">
      <!-- 0.0 -->
      <g transform="translate(20.878125 238.93681) scale(0.1 -0.1)">
       <defs>
        <path id="DejaVuSans-2e" d="M 684 794 
L 1344 794 
L 1344 0 
L 684 0 
L 684 794 
z
" transform="scale(0.015625)"/>
       </defs>
       <use xlink:href="#DejaVuSans-30"/>
       <use xlink:href="#DejaVuSans-2e" x="63.623047"/>
       <use xlink:href="#DejaVuSans-30" x="95.410156"/>
      </g>
     </g>
    </g>
    <g id="ytick_2">
     <g id="line2d_15">
      <path d="M 43.78125 211.991634 
L 322.78125 211.991634 
" clip-path="url(#p8200a4e73d)" style="fill: none; stroke-dasharray: 2.96,1.28; stroke-dashoffset: 0; stroke: #b0b0b0; stroke-opacity: 0.4; stroke-width: 0.8"/>
     </g>
     <g id="line2d_16">
      <g>
       <use xlink:href="#medc6e0fd53" x="43.78125" y="211.991634" style="stroke: #000000; stroke-width: 0.8"/>
      </g>
     </g>
     <g id="text_9">
      <!-- 0.1 -->
      <g transform="translate(20.878125 215.790853) scale(0.1 -0.1)">
       <use xlink:href="#DejaVuSans-30"/>
       <use xlink:href="#DejaVuSans-2e" x="63.623047"/>
       <use xlink:href="#DejaVuSans-31" x="95.410156"/>
      </g>
     </g>
    </g>
    <g id="ytick_3">
     <g id="line2d_17">
      <path d="M 43.78125 188.845677 
L 322.78125 188.845677 
" clip-path="url(#p8200a4e73d)" style="fill: none; stroke-dasharray: 2.96,1.28; stroke-dashoffset: 0; stroke: #b0b0b0; stroke-opacity: 0.4; stroke-width: 0.8"/>
     </g>
     <g id="line2d_18">
      <g>
       <use xlink:href="#medc6e0fd53" x="43.78125" y="188.845677" style="stroke: #000000; stroke-width: 0.8"/>
      </g>
     </g>
     <g id="text_10">
      <!-- 0.2 -->
      <g transform="translate(20.878125 192.644896) scale(0.1 -0.1)">
       <use xlink:href="#DejaVuSans-30"/>
       <use xlink:href="#DejaVuSans-2e" x="63.623047"/>
       <use xlink:href="#DejaVuSans-32" x="95.410156"/>
      </g>
     </g>
    </g>
    <g id="ytick_4">
     <g id="line2d_19">
      <path d="M 43.78125 165.69972 
L 322.78125 165.69972 
" clip-path="url(#p8200a4e73d)" style="fill: none; stroke-dasharray: 2.96,1.28; stroke-dashoffset: 0; stroke: #b0b0b0; stroke-opacity: 0.4; stroke-width: 0.8"/>
     </g>
     <g id="line2d_20">
      <g>
       <use xlink:href="#medc6e0fd53" x="43.78125" y="165.69972" style="stroke: #000000; stroke-width: 0.8"/>
      </g>
     </g>
     <g id="text_11">
      <!-- 0.3 -->
      <g transform="translate(20.878125 169.498938) scale(0.1 -0.1)">
       <defs>
        <path id="DejaVuSans-33" d="M 2597 2516 
Q 3050 2419 3304 2112 
Q 3559 1806 3559 1356 
Q 3559 666 3084 287 
Q 2609 -91 1734 -91 
Q 1441 -91 1130 -33 
Q 819 25 488 141 
L 488 750 
Q 750 597 1062 519 
Q 1375 441 1716 441 
Q 2309 441 2620 675 
Q 2931 909 2931 1356 
Q 2931 1769 2642 2001 
Q 2353 2234 1838 2234 
L 1294 2234 
L 1294 2753 
L 1863 2753 
Q 2328 2753 2575 2939 
Q 2822 3125 2822 3475 
Q 2822 3834 2567 4026 
Q 2313 4219 1838 4219 
Q 1578 4219 1281 4162 
Q 984 4106 628 3988 
L 628 4550 
Q 988 4650 1302 4700 
Q 1616 4750 1894 4750 
Q 2613 4750 3031 4423 
Q 3450 4097 3450 3541 
Q 3450 3153 3228 2886 
Q 3006 2619 2597 2516 
z
" transform="scale(0.015625)"/>
       </defs>
       <use xlink:href="#DejaVuSans-30"/>
       <use xlink:href="#DejaVuSans-2e" x="63.623047"/>
       <use xlink:href="#DejaVuSans-33" x="95.410156"/>
      </g>
     </g>
    </g>
    <g id="ytick_5">
     <g id="line2d_21">
      <path d="M 43.78125 142.553762 
L 322.78125 142.553762 
" clip-path="url(#p8200a4e73d)" style="fill: none; stroke-dasharray: 2.96,1.28; stroke-dashoffset: 0; stroke: #b0b0b0; stroke-opacity: 0.4; stroke-width: 0.8"/>
     </g>
     <g id="line2d_22">
      <g>
       <use xlink:href="#medc6e0fd53" x="43.78125" y="142.553762" style="stroke: #000000; stroke-width: 0.8"/>
      </g>
     </g>
     <g id="text_12">
      <!-- 0.4 -->
      <g transform="translate(20.878125 146.352981) scale(0.1 -0.1)">
       <use xlink:href="#DejaVuSans-30"/>
       <use xlink:href="#DejaVuSans-2e" x="63.623047"/>
       <use xlink:href="#DejaVuSans-34" x="95.410156"/>
      </g>
     </g>
    </g>
    <g id="ytick_6">
     <g id="line2d_23">
      <path d="M 43.78125 119.407805 
L 322.78125 119.407805 
" clip-path="url(#p8200a4e73d)" style="fill: none; stroke-dasharray: 2.96,1.28; stroke-dashoffset: 0; stroke: #b0b0b0; stroke-opacity: 0.4; stroke-width: 0.8"/>
     </g>
     <g id="line2d_24">
      <g>
       <use xlink:href="#medc6e0fd53" x="43.78125" y="119.407805" style="stroke: #000000; stroke-width: 0.8"/>
      </g>
     </g>
     <g id="text_13">
      <!-- 0.5 -->
      <g transform="translate(20.878125 123.207024) scale(0.1 -0.1)">
       <defs>
        <path id="DejaVuSans-35" d="M 691 4666 
L 3169 4666 
L 3169 4134 
L 1269 4134 
L 1269 2991 
Q 1406 3038 1543 3061 
Q 1681 3084 1819 3084 
Q 2600 3084 3056 2656 
Q 3513 2228 3513 1497 
Q 3513 744 3044 326 
Q 2575 -91 1722 -91 
Q 1428 -91 1123 -41 
Q 819 9 494 109 
L 494 744 
Q 775 591 1075 516 
Q 1375 441 1709 441 
Q 2250 441 2565 725 
Q 2881 1009 2881 1497 
Q 2881 1984 2565 2268 
Q 2250 2553 1709 2553 
Q 1456 2553 1204 2497 
Q 953 2441 691 2322 
L 691 4666 
z
" transform="scale(0.015625)"/>
       </defs>
       <use xlink:href="#DejaVuSans-30"/>
       <use xlink:href="#DejaVuSans-2e" x="63.623047"/>
       <use xlink:href="#DejaVuSans-35" x="95.410156"/>
      </g>
     </g>
    </g>
    <g id="ytick_7">
     <g id="line2d_25">
      <path d="M 43.78125 96.261848 
L 322.78125 96.261848 
" clip-path="url(#p8200a4e73d)" style="fill: none; stroke-dasharray: 2.96,1.28; stroke-dashoffset: 0; stroke: #b0b0b0; stroke-opacity: 0.4; stroke-width: 0.8"/>
     </g>
     <g id="line2d_26">
      <g>
       <use xlink:href="#medc6e0fd53" x="43.78125" y="96.261848" style="stroke: #000000; stroke-width: 0.8"/>
      </g>
     </g>
     <g id="text_14">
      <!-- 0.6 -->
      <g transform="translate(20.878125 100.061066) scale(0.1 -0.1)">
       <use xlink:href="#DejaVuSans-30"/>
       <use xlink:href="#DejaVuSans-2e" x="63.623047"/>
       <use xlink:href="#DejaVuSans-36" x="95.410156"/>
      </g>
     </g>
    </g>
    <g id="ytick_8">
     <g id="line2d_27">
      <path d="M 43.78125 73.11589 
L 322.78125 73.11589 
" clip-path="url(#p8200a4e73d)" style="fill: none; stroke-dasharray: 2.96,1.28; stroke-dashoffset: 0; stroke: #b0b0b0; stroke-opacity: 0.4; stroke-width: 0.8"/>
     </g>
     <g id="line2d_28">
      <g>
       <use xlink:href="#medc6e0fd53" x="43.78125" y="73.11589" style="stroke: #000000; stroke-width: 0.8"/>
      </g>
     </g>
     <g id="text_15">
      <!-- 0.7 -->
      <g transform="translate(20.878125 76.915109) scale(0.1 -0.1)">
       <defs>
        <path id="DejaVuSans-37" d="M 525 4666 
L 3525 4666 
L 3525 4397 
L 1831 0 
L 1172 0 
L 2766 4134 
L 525 4134 
L 525 4666 
z
" transform="scale(0.015625)"/>
       </defs>
       <use xlink:href="#DejaVuSans-30"/>
       <use xlink:href="#DejaVuSans-2e" x="63.623047"/>
       <use xlink:href="#DejaVuSans-37" x="95.410156"/>
      </g>
     </g>
    </g>
    <g id="ytick_9">
     <g id="line2d_29">
      <path d="M 43.78125 49.969933 
L 322.78125 49.969933 
" clip-path="url(#p8200a4e73d)" style="fill: none; stroke-dasharray: 2.96,1.28; stroke-dashoffset: 0; stroke: #b0b0b0; stroke-opacity: 0.4; stroke-width: 0.8"/>
     </g>
     <g id="line2d_30">
      <g>
       <use xlink:href="#medc6e0fd53" x="43.78125" y="49.969933" style="stroke: #000000; stroke-width: 0.8"/>
      </g>
     </g>
     <g id="text_16">
      <!-- 0.8 -->
      <g transform="translate(20.878125 53.769152) scale(0.1 -0.1)">
       <use xlink:href="#DejaVuSans-30"/>
       <use xlink:href="#DejaVuSans-2e" x="63.623047"/>
       <use xlink:href="#DejaVuSans-38" x="95.410156"/>
      </g>
     </g>
    </g>
    <g id="text_17">
     <!-- Loss -->
     <g transform="translate(14.798438 149.495187) rotate(-90) scale(0.1 -0.1)">
      <defs>
       <path id="DejaVuSans-4c" d="M 628 4666 
L 1259 4666 
L 1259 531 
L 3531 531 
L 3531 0 
L 628 0 
L 628 4666 
z
" transform="scale(0.015625)"/>
      </defs>
      <use xlink:href="#DejaVuSans-4c"/>
      <use xlink:href="#DejaVuSans-6f" x="53.962891"/>
      <use xlink:href="#DejaVuSans-73" x="115.144531"/>
      <use xlink:href="#DejaVuSans-73" x="167.244141"/>
     </g>
    </g>
   </g>
   <g id="line2d_31">
    <path d="M 56.463068 74.238548 
L 56.716958 74.873539 
L 56.970849 74.934421 
L 57.224739 75.509855 
L 57.478629 75.37464 
L 57.732519 76.063133 
L 57.98641 76.400571 
L 58.2403 76.928036 
L 58.49419 77.179676 
L 59.001971 78.422536 
L 59.255861 79.089727 
L 59.763641 82.834945 
L 60.779202 101.002239 
L 61.286983 110.508487 
L 61.540873 115.372373 
L 61.794764 117.753008 
L 62.048654 122.421238 
L 62.302544 121.589984 
L 63.064215 131.319294 
L 63.318105 126.410088 
L 63.571995 132.131261 
L 63.825886 131.17867 
L 64.079776 132.021541 
L 64.333666 137.072287 
L 64.587556 137.904252 
L 64.841447 140.121294 
L 65.095337 135.845072 
L 65.603117 141.439197 
L 65.857008 145.135501 
L 66.110898 145.737313 
L 66.364788 147.349618 
L 66.618678 146.288804 
L 66.872569 150.918081 
L 67.126459 152.561524 
L 67.380349 149.774546 
L 68.14202 157.168899 
L 68.39591 155.803385 
L 68.6498 157.98337 
L 69.411471 161.542811 
L 69.665361 159.278621 
L 69.919252 158.684211 
L 70.173142 165.299872 
L 70.427032 164.280695 
L 71.188703 170.36587 
L 71.442593 167.17204 
L 71.696483 170.573977 
L 71.950374 171.600142 
L 72.204264 171.233022 
L 72.458154 174.503331 
L 72.712044 175.424777 
L 72.965935 175.343815 
L 73.219825 180.626387 
L 73.473715 180.437899 
L 73.727605 180.080818 
L 73.981496 184.28935 
L 74.235386 181.30843 
L 74.489276 179.999518 
L 74.997057 185.712586 
L 75.250947 184.488851 
L 75.504837 185.183145 
L 75.758727 183.324574 
L 76.012618 187.68791 
L 76.266508 185.563027 
L 76.774288 189.003031 
L 77.028179 185.793938 
L 77.282069 190.57402 
L 77.535959 189.769554 
L 77.78985 188.347262 
L 78.29763 194.83739 
L 78.55152 189.85678 
L 78.805411 194.302638 
L 79.059301 192.396028 
L 79.313191 194.609638 
L 79.567081 195.281634 
L 79.820972 201.87238 
L 80.074862 198.67489 
L 80.328752 199.338774 
L 80.836533 197.021325 
L 81.090423 200.527581 
L 81.344313 197.990367 
L 81.598203 188.406272 
L 81.852094 197.648687 
L 82.105984 197.506329 
L 82.359874 202.342153 
L 82.613764 203.068913 
L 82.867655 205.260028 
L 83.375435 195.145377 
L 83.629325 203.744068 
L 83.883216 207.039588 
L 84.137106 207.165384 
L 84.390996 203.375399 
L 84.898777 209.943299 
L 85.152667 201.739583 
L 85.406557 207.529586 
L 85.660447 209.341475 
L 85.914338 210.28627 
L 86.422118 215.639602 
L 86.676008 211.996742 
L 86.929899 212.212583 
L 87.183789 212.248618 
L 87.437679 214.766813 
L 87.691569 212.134447 
L 87.94546 217.701919 
L 88.19935 215.679903 
L 88.45324 216.185933 
L 88.70713 212.238027 
L 88.961021 217.16738 
L 89.214911 216.247882 
L 89.468801 217.007075 
L 89.722691 216.398873 
L 89.976582 216.634424 
L 90.230472 214.984199 
L 90.484362 215.410575 
L 90.738252 215.040982 
L 90.992143 217.435901 
L 91.246033 215.792859 
L 91.499923 217.21535 
L 91.753813 217.005626 
L 92.007704 218.483473 
L 92.261594 217.709565 
L 92.515484 218.42661 
L 92.769374 215.719841 
L 93.023265 217.522097 
L 93.277155 220.866056 
L 93.531045 219.389691 
L 94.038826 220.271403 
L 94.292716 217.528393 
L 94.546606 220.648356 
L 94.800497 219.945914 
L 95.054387 217.124165 
L 95.308277 216.258404 
L 95.816058 221.473805 
L 96.069948 219.05199 
L 96.577728 221.674708 
L 96.831619 218.932497 
L 97.085509 219.365616 
L 97.339399 221.707776 
L 97.593289 218.698969 
L 97.84718 220.036679 
L 98.10107 220.605794 
L 98.35496 220.812514 
L 98.862741 223.367418 
L 99.116631 221.10456 
L 99.370521 220.119081 
L 99.624411 222.610206 
L 99.878302 223.752989 
L 100.132192 221.835497 
L 100.639972 224.351026 
L 101.147753 223.315292 
L 101.401643 224.563212 
L 101.655533 223.582938 
L 101.909424 224.533297 
L 102.163314 223.544401 
L 102.417204 221.712184 
L 102.671094 221.445545 
L 102.924985 222.318431 
L 103.178875 221.696114 
L 103.686655 224.214839 
L 103.940546 223.430274 
L 104.194436 223.676081 
L 104.448326 224.721608 
L 104.702216 225.001801 
L 104.956107 224.918679 
L 105.209997 225.133371 
L 105.463887 224.587025 
L 105.717777 224.4945 
L 105.971668 226.020212 
L 106.225558 224.422434 
L 106.479448 225.215002 
L 106.733338 225.234401 
L 106.987229 224.014873 
L 107.241119 224.645711 
L 107.495009 224.367752 
L 107.748899 226.245187 
L 108.00279 224.296544 
L 108.25668 225.840867 
L 108.51057 224.791901 
L 108.76446 226.391565 
L 109.018351 225.428994 
L 109.272241 225.087925 
L 109.526131 225.7682 
L 109.780021 224.392564 
L 110.033912 225.999958 
L 110.287802 222.249431 
L 110.541692 225.662096 
L 110.795583 225.856875 
L 111.049473 227.70962 
L 111.303363 227.10793 
L 111.557253 227.816642 
L 111.811144 226.177452 
L 112.065034 225.511432 
L 112.318924 226.655084 
L 112.572814 225.173148 
L 112.826705 225.956667 
L 113.080595 227.590495 
L 113.334485 227.544405 
L 113.588375 227.082978 
L 113.842266 227.044724 
L 114.096156 226.172931 
L 114.350046 228.104253 
L 114.603936 227.629695 
L 114.857827 226.894684 
L 115.111717 226.818128 
L 115.365607 228.063758 
L 115.873388 226.743755 
L 116.127278 226.786918 
L 116.381168 225.462898 
L 116.635058 226.035197 
L 117.142839 225.23961 
L 117.650619 225.280983 
L 117.90451 225.623743 
L 118.1584 224.40889 
L 118.41229 226.437744 
L 118.66618 224.273554 
L 118.920071 226.657415 
L 119.173961 226.713215 
L 119.427851 224.2274 
L 119.681741 226.777755 
L 119.935632 226.38829 
L 120.189522 226.725112 
L 120.697302 226.122421 
L 120.951193 227.493612 
L 121.205083 226.469119 
L 121.458973 227.697503 
L 121.712863 227.400098 
L 121.966754 228.509635 
L 122.220644 225.055112 
L 122.474534 227.659875 
L 122.728424 227.775686 
L 122.982315 225.369574 
L 123.236205 227.466399 
L 123.490095 226.513099 
L 123.743985 227.518072 
L 123.997876 226.734374 
L 124.251766 227.341335 
L 124.505656 227.009758 
L 124.759546 227.649912 
L 125.013437 227.184436 
L 125.267327 227.88899 
L 125.775107 228.354728 
L 126.028998 227.040776 
L 126.282888 228.573838 
L 126.536778 226.48744 
L 126.790669 227.679317 
L 127.044559 226.160269 
L 127.298449 225.803698 
L 127.552339 226.643925 
L 127.80623 226.70561 
L 128.06012 227.381118 
L 128.31401 227.070124 
L 128.5679 226.53766 
L 128.821791 228.587973 
L 129.075681 229.403901 
L 129.329571 226.462338 
L 129.583461 224.917892 
L 129.837352 227.760226 
L 130.345132 226.027734 
L 130.852913 228.795501 
L 131.106803 226.8367 
L 131.360693 226.844854 
L 131.868474 228.868166 
L 132.376254 227.070651 
L 132.630144 227.370036 
L 132.884035 225.104646 
L 133.137925 227.834954 
L 133.391815 227.225483 
L 133.645705 227.117588 
L 133.899596 228.21262 
L 134.153486 227.331359 
L 134.407376 228.142715 
L 134.661266 226.817014 
L 134.915157 228.396973 
L 135.169047 226.406135 
L 135.422937 228.665977 
L 135.676827 225.830652 
L 135.930718 227.83828 
L 136.184608 227.454166 
L 136.438498 228.305185 
L 136.692388 227.105676 
L 136.946279 228.172618 
L 137.200169 227.844217 
L 137.454059 227.937019 
L 137.707949 226.9436 
L 137.96184 227.080199 
L 138.46962 228.688283 
L 138.977401 228.348589 
L 139.231291 228.23591 
L 139.485181 227.084787 
L 139.739071 228.681332 
L 139.992962 227.329558 
L 140.246852 226.973381 
L 140.754632 227.828427 
L 141.008523 227.494831 
L 141.262413 228.52019 
L 141.516303 226.540779 
L 141.770193 228.200724 
L 142.024084 227.873713 
L 142.277974 226.788311 
L 142.531864 228.641343 
L 142.785755 228.061375 
L 143.039645 228.478871 
L 143.293535 228.263104 
L 143.547425 228.272901 
L 143.801316 228.77688 
L 144.055206 228.687265 
L 144.309096 227.198449 
L 144.816877 227.900461 
L 145.070767 227.717443 
L 145.324657 229.603985 
L 145.578547 227.933002 
L 145.832438 228.610214 
L 146.086328 227.227886 
L 146.340218 226.521048 
L 146.594108 227.775402 
L 147.101889 229.195136 
L 147.355779 227.851259 
L 147.609669 227.363416 
L 147.86356 227.306962 
L 148.11745 225.630547 
L 148.37134 228.303717 
L 148.62523 226.933449 
L 148.879121 228.431719 
L 149.133011 228.012824 
L 149.386901 226.661568 
L 149.640791 229.325509 
L 150.148572 228.333882 
L 150.402462 229.486708 
L 150.656352 227.64223 
L 150.910243 229.158331 
L 151.164133 227.549195 
L 151.418023 227.868133 
L 151.671913 228.39705 
L 151.925804 228.382664 
L 152.179694 226.943861 
L 152.433584 229.760403 
L 152.687474 227.862598 
L 152.941365 228.124793 
L 153.195255 226.699162 
L 153.449145 228.702751 
L 153.703035 228.473769 
L 153.956926 227.734796 
L 154.464706 229.177594 
L 154.718596 228.93001 
L 154.972487 227.643339 
L 155.226377 227.692404 
L 155.480267 228.337606 
L 155.734157 227.72332 
L 155.988048 228.243942 
L 156.241938 227.16242 
L 156.495828 228.031056 
L 156.749718 229.643225 
L 157.257499 227.460367 
L 157.511389 227.779158 
L 157.765279 228.434529 
L 158.01917 227.182026 
L 158.27306 227.704168 
L 158.52695 229.311193 
L 159.034731 228.049937 
L 159.288621 227.901597 
L 159.542511 227.598649 
L 159.796402 228.911205 
L 160.050292 228.251264 
L 160.304182 228.444468 
L 160.558072 228.02179 
L 160.811963 228.722575 
L 161.065853 229.063406 
L 161.319743 228.448762 
L 161.573633 227.366921 
L 161.827524 228.845108 
L 162.081414 228.714623 
L 162.335304 227.833644 
L 162.843085 228.139972 
L 163.096975 227.53014 
L 163.350865 227.599547 
L 163.604755 227.409278 
L 163.858646 228.43804 
L 164.112536 228.837399 
L 164.366426 227.408122 
L 164.620316 228.256938 
L 164.874207 229.512129 
L 165.128097 228.514016 
L 165.381987 228.441664 
L 165.635877 228.495556 
L 165.889768 228.783565 
L 166.143658 228.537606 
L 166.397548 228.021111 
L 166.651438 226.102127 
L 166.905329 228.667551 
L 167.159219 227.847761 
L 167.413109 229.231888 
L 167.666999 229.23788 
L 167.92089 226.240942 
L 168.17478 228.05247 
L 168.42867 227.949576 
L 168.68256 227.03066 
L 168.936451 229.169362 
L 169.190341 228.832456 
L 169.444231 229.523088 
L 169.698121 227.659131 
L 169.952012 228.691526 
L 170.205902 227.685467 
L 170.459792 227.143053 
L 170.713682 229.20871 
L 170.967573 227.705014 
L 171.221463 228.848698 
L 171.475353 228.582232 
L 171.729243 228.689122 
L 171.983134 227.972386 
L 172.237024 229.128723 
L 172.490914 227.806394 
L 172.744804 228.393189 
L 172.998695 229.460146 
L 173.252585 228.714087 
L 173.506475 229.299222 
L 173.760365 227.845354 
L 174.014256 228.046619 
L 174.268146 229.034318 
L 174.522036 229.553055 
L 174.775926 229.181532 
L 175.029817 228.408776 
L 175.283707 228.875191 
L 175.537597 228.844597 
L 175.791488 227.975989 
L 176.045378 227.570352 
L 176.299268 228.390019 
L 176.553158 227.960628 
L 176.807049 229.64081 
L 177.060939 225.41273 
L 177.314829 229.674103 
L 177.568719 227.871679 
L 177.82261 229.03176 
L 178.0765 229.502467 
L 178.838171 225.674674 
L 179.092061 226.200735 
L 179.345951 229.646465 
L 179.599841 227.292625 
L 179.853732 226.66516 
L 180.361512 228.839624 
L 180.615402 227.20841 
L 181.123183 228.766979 
L 181.377073 229.108767 
L 181.630963 229.251259 
L 181.884854 227.256192 
L 182.138744 228.436135 
L 182.392634 228.580418 
L 182.646524 228.406309 
L 182.900415 229.142148 
L 183.154305 227.549682 
L 183.408195 227.284578 
L 183.662085 229.668513 
L 183.915976 227.351811 
L 184.169866 227.900689 
L 184.423756 227.248113 
L 184.677646 225.546612 
L 184.931537 229.307278 
L 185.185427 228.292367 
L 185.439317 228.247644 
L 185.693207 227.990285 
L 185.947098 228.76831 
L 186.200988 228.55617 
L 186.454878 228.576989 
L 186.708768 228.928928 
L 186.962659 229.86955 
L 187.216549 229.133748 
L 187.470439 227.116262 
L 187.724329 228.514112 
L 187.97822 228.675054 
L 188.23211 229.747598 
L 188.486 223.75306 
L 188.993781 229.038888 
L 189.501561 227.070931 
L 189.755451 226.971386 
L 190.009342 227.675095 
L 190.263232 227.712491 
L 190.771012 228.709543 
L 191.024903 226.47735 
L 191.278793 225.22966 
L 191.532683 229.474341 
L 191.786574 229.648872 
L 192.040464 230.431135 
L 192.294354 228.10892 
L 192.548244 229.825177 
L 192.802135 228.538816 
L 193.056025 229.353732 
L 193.309915 229.405283 
L 193.563805 228.821707 
L 193.817696 227.148973 
L 194.071586 228.876005 
L 194.325476 229.598604 
L 194.579366 228.263823 
L 194.833257 228.972638 
L 195.087147 228.2411 
L 195.341037 228.761327 
L 195.848818 227.525619 
L 196.102708 228.254943 
L 196.356598 227.521607 
L 196.610488 226.153179 
L 197.118269 227.194069 
L 197.372159 228.791084 
L 197.626049 228.825494 
L 197.87994 228.994337 
L 198.13383 228.166519 
L 198.64161 228.94897 
L 198.895501 228.30032 
L 199.149391 228.008296 
L 199.403281 227.468388 
L 199.657171 227.440884 
L 199.911062 229.746243 
L 200.418842 227.126057 
L 200.672732 227.760938 
L 200.926623 228.780125 
L 201.180513 228.901243 
L 201.434403 226.833703 
L 201.688293 228.509502 
L 201.942184 227.984636 
L 202.196074 229.405747 
L 202.449964 227.139644 
L 202.703854 229.022557 
L 202.957745 229.023193 
L 203.211635 228.705491 
L 203.465525 229.593149 
L 203.719415 228.226178 
L 203.973306 229.929427 
L 204.227196 228.131253 
L 204.481086 229.215956 
L 204.734976 229.299251 
L 204.988867 228.798448 
L 205.242757 227.41089 
L 205.496647 227.340011 
L 205.750537 227.084947 
L 206.004428 228.739414 
L 206.258318 228.683681 
L 206.512208 228.228088 
L 206.766098 228.250262 
L 207.019989 227.916594 
L 207.273879 226.963036 
L 207.527769 229.628619 
L 207.78166 227.431673 
L 208.03555 227.644603 
L 208.28944 229.133463 
L 208.54333 229.919476 
L 208.797221 227.577806 
L 209.051111 227.213312 
L 209.305001 228.518317 
L 209.558891 228.122155 
L 209.812782 229.666485 
L 210.066672 227.735761 
L 210.574452 229.274465 
L 211.082233 228.359942 
L 211.336123 228.267986 
L 211.590013 228.008728 
L 211.843904 229.496692 
L 212.097794 227.590453 
L 212.351684 229.681106 
L 212.605574 228.700203 
L 212.859465 226.691256 
L 213.113355 229.214528 
L 213.367245 227.614259 
L 213.621135 229.005949 
L 213.875026 227.284424 
L 214.128916 228.191649 
L 214.636696 228.76347 
L 214.890587 227.864271 
L 215.144477 226.538212 
L 215.398367 228.085733 
L 215.652257 226.405645 
L 215.906148 226.306798 
L 216.160038 228.702507 
L 216.413928 226.849655 
L 216.921709 228.55506 
L 217.175599 228.337962 
L 217.429489 227.705469 
L 217.683379 230.280972 
L 217.93727 228.280884 
L 218.44505 227.677558 
L 218.69894 229.082607 
L 218.952831 228.430311 
L 219.206721 229.225897 
L 219.460611 228.56157 
L 219.714501 229.07835 
L 219.968392 228.049509 
L 220.222282 227.821365 
L 220.476172 228.495167 
L 220.730062 225.904213 
L 220.983953 229.36519 
L 221.237843 229.443878 
L 221.491733 227.129602 
L 221.745623 227.316336 
L 221.999514 229.563625 
L 222.253404 229.348971 
L 222.507294 227.597909 
L 222.761184 228.615999 
L 223.015075 227.751741 
L 223.268965 227.772592 
L 223.522855 228.683223 
L 223.776745 227.705569 
L 224.030636 229.102558 
L 224.284526 228.987137 
L 224.538416 229.312638 
L 224.792307 225.578236 
L 225.046197 228.173146 
L 225.300087 227.884626 
L 225.807868 229.259752 
L 226.061758 227.595542 
L 226.315648 227.575856 
L 226.569538 228.820567 
L 226.823429 229.234881 
L 227.077319 228.183659 
L 227.331209 228.448006 
L 227.585099 229.560947 
L 227.83899 228.366374 
L 228.09288 228.076184 
L 228.34677 228.342708 
L 228.60066 225.747136 
L 229.108441 230.269427 
L 229.362331 228.074937 
L 229.616221 228.288644 
L 229.870112 225.961826 
L 230.377892 228.721892 
L 230.631782 228.925882 
L 230.885673 228.944637 
L 231.139563 229.423651 
L 231.393453 228.951938 
L 231.647343 226.651123 
L 231.901234 227.128054 
L 232.155124 228.754433 
L 232.409014 228.873043 
L 232.662904 227.315731 
L 232.916795 226.904065 
L 233.170685 227.289355 
L 233.424575 229.518854 
L 233.932356 228.374267 
L 234.186246 227.983176 
L 234.440136 228.652565 
L 234.694026 228.899156 
L 234.947917 228.748253 
L 235.201807 228.302288 
L 235.455697 228.971816 
L 235.709587 228.152314 
L 235.963478 228.397709 
L 236.725148 226.852039 
L 236.979039 229.395493 
L 237.486819 227.368931 
L 237.740709 229.033136 
L 237.9946 226.733995 
L 238.24849 227.864627 
L 238.50238 228.145097 
L 238.75627 228.018398 
L 239.010161 229.830957 
L 239.264051 228.635258 
L 239.517941 229.49974 
L 239.771831 228.87464 
L 240.025722 227.680064 
L 240.279612 227.310211 
L 240.533502 228.669662 
L 240.787393 227.695874 
L 241.041283 228.429227 
L 241.295173 228.217332 
L 241.549063 229.113495 
L 242.056844 228.258856 
L 242.310734 227.828785 
L 242.564624 229.236531 
L 242.818515 229.582327 
L 243.072405 227.671325 
L 243.326295 229.006714 
L 243.580185 228.13859 
L 243.834076 228.761779 
L 244.087966 228.970718 
L 244.341856 228.655118 
L 244.595746 228.753491 
L 244.849637 229.240344 
L 245.103527 228.131028 
L 245.357417 229.493346 
L 245.611307 229.62832 
L 245.865198 228.281507 
L 246.119088 228.150725 
L 246.372978 229.033663 
L 246.626868 228.926947 
L 246.880759 225.510588 
L 247.134649 229.105763 
L 247.388539 228.340987 
L 247.642429 228.163184 
L 247.89632 228.548543 
L 248.15021 228.692688 
L 248.4041 228.679901 
L 248.65799 229.596477 
L 248.911881 229.20112 
L 249.165771 227.999112 
L 249.419661 228.782524 
L 249.673551 228.05662 
L 249.927442 229.176487 
L 250.181332 227.951381 
L 250.435222 227.644921 
L 250.689112 228.080203 
L 250.943003 229.19801 
L 251.196893 228.245059 
L 251.450783 227.954106 
L 251.704673 228.706493 
L 251.958564 225.637811 
L 252.212454 228.349593 
L 252.466344 227.392326 
L 252.720234 228.914167 
L 252.974125 228.300527 
L 253.228015 229.404361 
L 253.481905 227.941708 
L 253.735795 228.419306 
L 253.989686 228.451575 
L 254.243576 227.311745 
L 254.497466 229.696104 
L 254.751356 226.992047 
L 255.005247 228.694666 
L 255.259137 229.605985 
L 255.766917 229.093183 
L 256.020808 227.785748 
L 256.528588 229.661667 
L 256.782479 228.157873 
L 257.036369 228.540643 
L 257.290259 229.715905 
L 257.544149 229.718804 
L 257.79804 227.858624 
L 258.30582 228.881399 
L 258.55971 226.902911 
L 258.813601 227.605136 
L 259.067491 227.889573 
L 259.321381 229.027302 
L 259.575271 228.483189 
L 259.829162 229.482161 
L 260.083052 226.756709 
L 260.336942 228.501973 
L 261.098613 228.476448 
L 261.352503 229.202156 
L 261.606393 227.679673 
L 261.860284 229.247085 
L 262.114174 228.722044 
L 262.621954 228.416952 
L 262.875845 228.544726 
L 263.129735 229.0511 
L 263.383625 229.219755 
L 263.637515 229.824459 
L 263.891406 228.422414 
L 264.145296 228.318974 
L 264.653076 229.690633 
L 264.906967 227.242486 
L 265.160857 228.978153 
L 265.414747 229.558056 
L 265.668637 227.603485 
L 265.922528 228.51311 
L 266.176418 227.278857 
L 266.430308 228.260423 
L 266.684198 228.37748 
L 266.938089 229.858163 
L 267.445869 228.554885 
L 267.699759 228.534537 
L 267.95365 229.365976 
L 268.20754 228.816649 
L 268.46143 227.07049 
L 268.71532 227.307836 
L 268.969211 226.289034 
L 269.223101 228.428678 
L 269.476991 229.167912 
L 269.730881 229.371269 
L 269.984772 227.732365 
L 270.238662 228.308171 
L 270.492552 226.863826 
L 270.746442 227.788377 
L 271.000333 227.731019 
L 271.254223 227.885378 
L 271.508113 229.729837 
L 271.762003 228.610335 
L 272.015894 228.735139 
L 272.269784 228.711865 
L 272.523674 227.176068 
L 272.777564 226.649286 
L 273.031455 228.065522 
L 273.539235 228.874656 
L 273.793126 228.422777 
L 274.300906 228.051594 
L 274.554796 228.512285 
L 274.808687 226.170572 
L 275.062577 226.589035 
L 275.316467 227.964953 
L 275.570357 228.522434 
L 275.824248 229.928878 
L 276.839809 225.844043 
L 277.093699 228.739207 
L 277.347589 228.412369 
L 277.601479 229.025942 
L 277.85537 227.308766 
L 278.10926 229.038824 
L 278.36315 227.835837 
L 278.61704 228.391112 
L 278.870931 227.43919 
L 279.124821 228.524632 
L 279.378711 227.330195 
L 279.632601 228.940881 
L 279.886492 226.971374 
L 280.140382 229.036478 
L 280.394272 229.229013 
L 280.648162 228.020694 
L 280.902053 229.334298 
L 281.155943 228.441384 
L 281.409833 230.260794 
L 281.663723 227.812248 
L 281.917614 228.195449 
L 282.171504 227.867084 
L 282.425394 229.138005 
L 282.679284 228.625296 
L 282.933175 229.482391 
L 283.187065 227.240543 
L 283.694845 230.160637 
L 283.948736 226.397587 
L 284.202626 229.081586 
L 284.456516 226.008163 
L 284.710406 227.900452 
L 284.964297 228.676347 
L 285.218187 228.790156 
L 285.472077 226.843224 
L 285.725967 228.465061 
L 285.979858 228.974109 
L 286.233748 228.307458 
L 286.487638 228.011788 
L 286.741528 228.398595 
L 286.995419 228.994437 
L 287.249309 228.08062 
L 287.503199 228.825776 
L 287.757089 230.213464 
L 288.01098 226.926318 
L 288.26487 230.337715 
L 288.51876 227.60644 
L 288.77265 230.364042 
L 289.026541 228.810923 
L 289.280431 228.475693 
L 289.534321 229.05242 
L 289.788212 228.25163 
L 290.042102 227.930218 
L 290.295992 227.224385 
L 290.549882 228.787915 
L 290.803773 229.231289 
L 291.057663 227.620217 
L 291.311553 228.516489 
L 291.565443 228.892413 
L 291.819334 228.722538 
L 292.073224 229.534629 
L 292.327114 227.96132 
L 292.581004 227.803086 
L 292.834895 228.242471 
L 293.088785 228.401187 
L 293.342675 229.646017 
L 293.596565 229.224521 
L 293.850456 227.22656 
L 294.104346 229.329022 
L 294.358236 227.27255 
L 294.612126 228.564444 
L 294.866017 226.403793 
L 295.119907 229.596188 
L 295.373797 227.818242 
L 295.881578 228.988129 
L 296.135468 227.05308 
L 296.389358 229.01422 
L 296.643248 229.298716 
L 296.897139 228.458592 
L 297.151029 229.882659 
L 297.404919 227.905666 
L 297.658809 227.956283 
L 297.9127 226.477496 
L 298.16659 228.985331 
L 298.42048 229.573178 
L 298.67437 227.895249 
L 298.928261 228.303429 
L 299.182151 228.96999 
L 299.689931 228.051927 
L 299.943822 229.033503 
L 300.197712 229.185417 
L 300.451602 226.978608 
L 300.705492 226.926506 
L 300.959383 228.400452 
L 301.213273 226.662884 
L 301.467163 228.509653 
L 301.721053 228.618308 
L 301.974944 229.342646 
L 302.228834 228.850797 
L 302.482724 228.912381 
L 302.736614 230.01263 
L 302.990505 228.661225 
L 303.244395 230.557091 
L 303.498285 227.862759 
L 303.752175 228.38059 
L 304.006066 224.893296 
L 304.513846 228.870076 
L 304.767736 229.445013 
L 305.021627 227.216007 
L 305.275517 227.328386 
L 305.529407 228.418555 
L 305.783298 226.429783 
L 306.037188 229.660691 
L 306.291078 228.662059 
L 306.544968 229.35966 
L 307.306639 228.300568 
L 307.560529 229.266531 
L 307.81442 228.219095 
L 308.06831 229.376213 
L 308.3222 228.241766 
L 308.57609 229.110902 
L 309.083871 227.453064 
L 309.337761 229.551084 
L 309.845542 226.857432 
L 310.099432 229.916038 
L 310.099432 229.916038 
" clip-path="url(#p8200a4e73d)" style="fill: none; stroke: #0000ff; stroke-width: 0.6; stroke-linecap: square"/>
   </g>
   <g id="line2d_32">
    <path d="M 56.463068 75.267362 
L 56.970849 75.430404 
L 57.224739 75.723322 
L 57.478629 75.817356 
L 57.98641 76.445132 
L 58.49419 77.23842 
L 59.001971 78.772749 
L 59.509751 82.192173 
L 60.017532 89.565218 
L 60.779202 106.581672 
L 61.033093 102.317073 
L 61.286983 112.846327 
L 61.540873 117.986452 
L 61.794764 113.616217 
L 62.048654 121.586569 
L 62.302544 124.640832 
L 62.556434 123.795678 
L 62.810325 125.651697 
L 63.064215 126.047603 
L 63.318105 127.5605 
L 63.571995 123.261129 
L 63.825886 130.564152 
L 64.079776 124.882311 
L 64.333666 128.441448 
L 64.587556 133.719374 
L 65.095337 128.393024 
L 65.349227 133.75056 
L 65.603117 133.824473 
L 65.857008 134.291132 
L 66.110898 136.175585 
L 66.364788 133.001551 
L 66.618678 135.924496 
L 66.872569 135.377517 
L 67.126459 133.085583 
L 67.380349 138.319431 
L 67.634239 132.304533 
L 67.88813 135.603986 
L 68.14202 136.579933 
L 68.39591 125.449606 
L 68.6498 129.842563 
L 68.903691 136.926353 
L 69.157581 134.083591 
L 69.411471 137.708293 
L 69.665361 130.158624 
L 69.919252 140.095495 
L 70.427032 136.967465 
L 70.680922 132.921782 
L 70.934813 138.473719 
L 71.188703 137.163817 
L 71.442593 140.8881 
L 71.696483 127.263947 
L 71.950374 134.670861 
L 72.458154 140.072187 
L 72.712044 134.812513 
L 72.965935 143.136389 
L 73.219825 133.952335 
L 73.473715 133.349812 
L 73.727605 136.541622 
L 74.235386 126.725894 
L 74.489276 132.423869 
L 74.743166 134.084363 
L 74.997057 133.902972 
L 75.250947 134.679608 
L 75.504837 127.158766 
L 75.758727 135.01099 
L 76.012618 134.590596 
L 76.266508 129.36159 
L 76.520398 128.242654 
L 76.774288 128.430391 
L 77.028179 131.288521 
L 77.282069 125.525622 
L 77.535959 126.034655 
L 77.78985 128.826779 
L 78.04374 122.325783 
L 78.29763 124.611157 
L 78.55152 128.945273 
L 78.805411 127.130139 
L 79.313191 131.678247 
L 79.567081 131.342664 
L 80.328752 119.313536 
L 80.582642 121.089228 
L 80.836533 115.712943 
L 81.090423 120.164574 
L 81.344313 118.317047 
L 81.598203 113.704498 
L 81.852094 123.873391 
L 82.105984 118.202167 
L 82.359874 118.994765 
L 82.867655 115.0955 
L 83.121545 115.339718 
L 83.375435 115.176841 
L 83.629325 116.724305 
L 83.883216 111.081052 
L 84.137106 113.870271 
L 84.390996 112.132243 
L 84.644886 109.155935 
L 84.898777 102.32851 
L 85.152667 112.040237 
L 85.406557 99.534283 
L 85.660447 98.946529 
L 86.168228 106.985483 
L 86.422118 95.306672 
L 86.676008 97.744781 
L 86.929899 91.499937 
L 87.183789 105.36708 
L 87.437679 99.004403 
L 87.691569 106.708982 
L 87.94546 98.316711 
L 88.19935 109.398414 
L 88.45324 103.369396 
L 88.70713 100.317403 
L 88.961021 102.036351 
L 89.214911 99.724199 
L 89.468801 99.272475 
L 89.722691 99.840376 
L 90.230472 93.786593 
L 90.484362 94.426386 
L 90.738252 92.696001 
L 90.992143 95.035262 
L 91.246033 91.339985 
L 91.499923 96.115521 
L 91.753813 95.244079 
L 92.007704 91.102196 
L 92.261594 92.203881 
L 92.515484 91.007569 
L 92.769374 87.924093 
L 93.023265 89.940043 
L 93.531045 80.770737 
L 93.784936 80.81567 
L 94.038826 75.463101 
L 94.292716 85.695725 
L 94.546606 85.403994 
L 94.800497 87.481681 
L 95.054387 81.907891 
L 95.308277 84.037783 
L 95.562167 90.672311 
L 96.069948 84.526136 
L 96.323838 87.138752 
L 96.577728 79.165151 
L 96.831619 85.509768 
L 97.085509 80.264311 
L 97.339399 79.3493 
L 97.593289 85.820911 
L 97.84718 82.688183 
L 98.10107 81.622423 
L 98.35496 79.905172 
L 98.60885 83.019192 
L 98.862741 78.968074 
L 99.116631 84.137018 
L 99.624411 77.395184 
L 99.878302 78.069977 
L 100.132192 82.634075 
L 100.386082 78.059948 
L 100.639972 76.648652 
L 100.893863 79.027466 
L 101.401643 73.145941 
L 101.655533 78.829741 
L 102.163314 76.064305 
L 102.671094 74.628825 
L 102.924985 72.94238 
L 103.432765 76.613858 
L 103.686655 74.572302 
L 103.940546 74.70233 
L 104.194436 74.098601 
L 104.448326 68.338467 
L 104.702216 70.018538 
L 104.956107 67.128608 
L 105.209997 69.205095 
L 105.463887 68.514215 
L 105.971668 72.052796 
L 106.225558 64.80753 
L 106.479448 65.327462 
L 106.733338 65.331642 
L 106.987229 62.89127 
L 107.241119 69.332667 
L 107.495009 68.88635 
L 107.748899 61.179744 
L 108.00279 63.307594 
L 108.25668 66.857791 
L 108.51057 61.671684 
L 108.76446 65.809966 
L 109.018351 66.065096 
L 109.272241 71.36807 
L 109.526131 66.899372 
L 109.780021 67.472199 
L 110.033912 64.736687 
L 110.287802 56.936019 
L 110.541692 68.455665 
L 110.795583 58.679028 
L 111.049473 62.20384 
L 111.303363 63.104143 
L 111.557253 60.916005 
L 111.811144 62.910819 
L 112.065034 61.294376 
L 112.318924 60.692012 
L 112.572814 60.899477 
L 112.826705 60.336625 
L 113.080595 60.822674 
L 113.588375 65.043787 
L 113.842266 60.75317 
L 114.096156 61.417257 
L 114.350046 62.642693 
L 114.603936 60.495887 
L 114.857827 59.58536 
L 115.111717 60.394844 
L 115.365607 58.681608 
L 115.619497 58.911091 
L 115.873388 58.361415 
L 116.127278 59.674869 
L 116.381168 63.935687 
L 116.635058 62.760732 
L 116.888949 64.964957 
L 117.142839 64.38904 
L 117.396729 61.978233 
L 117.650619 63.674376 
L 117.90451 63.723035 
L 118.1584 62.606409 
L 118.41229 62.750454 
L 118.66618 60.424078 
L 118.920071 62.243186 
L 119.427851 58.614904 
L 119.681741 58.124385 
L 119.935632 56.260784 
L 120.189522 58.729535 
L 120.443412 58.49692 
L 120.697302 58.102394 
L 120.951193 57.978146 
L 121.205083 59.42069 
L 121.966754 55.057961 
L 122.474534 56.71891 
L 122.728424 55.059382 
L 122.982315 54.740223 
L 123.236205 55.855622 
L 123.490095 54.831015 
L 123.743985 55.869128 
L 123.997876 54.011998 
L 124.505656 57.844849 
L 124.759546 57.176967 
L 125.267327 53.22118 
L 125.521217 55.235309 
L 125.775107 53.564302 
L 126.028998 54.913102 
L 126.282888 54.431357 
L 126.536778 54.241965 
L 126.790669 53.527742 
L 127.044559 56.224777 
L 127.298449 53.777589 
L 127.552339 55.28772 
L 127.80623 54.079323 
L 128.06012 53.626577 
L 128.31401 55.418893 
L 128.5679 52.944238 
L 128.821791 52.866304 
L 129.075681 52.958531 
L 129.329571 51.632315 
L 129.583461 55.418659 
L 129.837352 54.576712 
L 130.091242 54.99425 
L 130.345132 54.797298 
L 130.599022 52.745519 
L 130.852913 53.42034 
L 131.106803 52.251179 
L 131.360693 52.744471 
L 131.614583 51.324055 
L 131.868474 51.304106 
L 132.122364 48.60532 
L 132.376254 51.104326 
L 132.630144 49.918388 
L 132.884035 51.399423 
L 133.137925 50.868316 
L 133.391815 51.661493 
L 133.645705 50.728203 
L 133.899596 50.320764 
L 134.153486 49.435553 
L 134.407376 49.395821 
L 134.661266 50.238609 
L 134.915157 50.002116 
L 135.422937 46.619652 
L 135.676827 50.176554 
L 135.930718 51.324028 
L 136.184608 51.054742 
L 136.438498 50.364884 
L 136.946279 49.97171 
L 137.200169 49.016608 
L 137.454059 49.997081 
L 137.96184 49.298779 
L 138.21573 49.186396 
L 138.46962 49.931729 
L 138.977401 48.519564 
L 139.231291 48.89839 
L 139.485181 46.905521 
L 140.246852 51.30085 
L 140.500742 50.995461 
L 140.754632 51.112396 
L 141.008523 50.047036 
L 141.262413 50.013857 
L 141.516303 51.194593 
L 142.024084 50.902627 
L 142.277974 50.507218 
L 142.531864 51.263877 
L 142.785755 51.438218 
L 143.039645 51.104657 
L 143.293535 50.240402 
L 143.547425 50.276244 
L 143.801316 48.821822 
L 144.055206 49.379472 
L 144.309096 48.324073 
L 144.562986 46.498909 
L 144.816877 48.982822 
L 145.324657 47.069749 
L 145.578547 48.496676 
L 145.832438 48.326074 
L 146.086328 49.274112 
L 146.340218 49.590194 
L 146.594108 49.651227 
L 146.847999 49.56623 
L 147.101889 49.975918 
L 147.355779 49.752435 
L 147.86356 47.99901 
L 148.11745 48.626373 
L 148.37134 49.793396 
L 148.62523 50.12337 
L 148.879121 49.875607 
L 149.640791 49.685635 
L 150.148572 50.02041 
L 150.656352 49.040241 
L 150.910243 49.440175 
L 151.164133 49.494435 
L 151.418023 49.978029 
L 151.671913 49.744627 
L 151.925804 49.151906 
L 152.179694 49.866032 
L 152.687474 49.431221 
L 152.941365 49.416791 
L 153.449145 50.229572 
L 153.703035 50.048554 
L 153.956926 50.012353 
L 154.464706 49.00811 
L 154.718596 49.61682 
L 154.972487 49.65807 
L 155.226377 49.493318 
L 155.480267 49.122824 
L 155.734157 48.995997 
L 155.988048 49.259571 
L 156.241938 49.891196 
L 156.495828 49.606914 
L 156.749718 49.96953 
L 157.003609 50.029598 
L 157.511389 49.450715 
L 157.765279 49.721353 
L 158.27306 48.74484 
L 158.52695 48.121188 
L 158.78084 48.240566 
L 159.034731 48.00795 
L 159.288621 49.117706 
L 159.542511 48.638237 
L 159.796402 48.86292 
L 160.050292 48.638706 
L 160.304182 48.102674 
L 160.558072 48.333634 
L 160.811963 49.22039 
L 161.065853 49.143035 
L 161.573633 47.852276 
L 161.827524 47.439884 
L 162.081414 47.985656 
L 162.843085 48.607872 
L 163.350865 48.753517 
L 163.604755 49.044725 
L 163.858646 49.052147 
L 164.366426 48.705148 
L 165.381987 48.877447 
L 165.889768 48.676949 
L 166.143658 48.752303 
L 166.397548 48.454212 
L 166.651438 48.918974 
L 166.905329 49.118948 
L 167.159219 49.050836 
L 167.413109 49.257833 
L 167.666999 48.997942 
L 167.92089 49.197751 
L 168.42867 49.043676 
L 168.68256 48.796023 
L 169.190341 49.358047 
L 169.698121 48.927817 
L 169.952012 48.464255 
L 170.205902 48.477196 
L 170.459792 48.750041 
L 170.967573 48.628539 
L 171.221463 48.670299 
L 171.475353 48.392005 
L 172.490914 48.465925 
L 173.506475 47.393501 
L 174.014256 47.744211 
L 174.268146 47.869562 
L 175.029817 47.68166 
L 175.283707 47.618736 
L 175.791488 47.823883 
L 176.299268 48.041889 
L 176.807049 48.109324 
L 177.060939 47.987477 
L 177.314829 48.1253 
L 177.568719 47.891167 
L 178.0765 48.09808 
L 178.58428 48.019691 
L 179.092061 48.462324 
L 179.853732 48.384376 
L 180.361512 48.529993 
L 180.869293 48.249713 
L 181.377073 47.991712 
L 181.630963 48.099915 
L 181.884854 48.338683 
L 182.646524 48.417831 
L 182.900415 48.251092 
L 183.408195 48.268779 
L 183.662085 48.13068 
L 183.915976 48.12094 
L 184.169866 47.903045 
L 184.931537 47.848013 
L 185.185427 47.915475 
L 185.439317 47.811467 
L 185.693207 47.883441 
L 186.200988 47.812929 
L 186.454878 48.01867 
L 186.962659 48.097225 
L 187.470439 48.283472 
L 191.278793 48.640293 
L 191.532683 48.746385 
L 193.056025 48.581315 
L 195.594927 48.450514 
L 196.102708 48.269979 
L 196.610488 47.99501 
L 198.38772 48.107848 
L 199.149391 47.919324 
L 199.657171 47.973874 
L 200.926623 47.972743 
L 201.434403 48.071136 
L 202.449964 48.155872 
L 203.211635 48.208283 
L 203.973306 48.327053 
L 206.258318 48.329895 
L 207.273879 48.373684 
L 207.78166 48.380016 
L 208.797221 48.194846 
L 209.305001 48.188306 
L 210.828343 48.384859 
L 212.351684 48.22121 
L 215.906148 48.312029 
L 217.683379 48.326888 
L 219.968392 48.295322 
L 222.761184 48.287679 
L 224.030636 48.343733 
L 238.50238 48.328957 
L 265.414747 48.365448 
L 310.099432 48.35648 
L 310.099432 48.35648 
" clip-path="url(#p8200a4e73d)" style="fill: none; stroke: #ff0000; stroke-width: 0.6; stroke-linecap: square"/>
   </g>
   <g id="patch_3">
    <path d="M 43.78125 239.76 
L 43.78125 37.296 
" style="fill: none; stroke: #000000; stroke-width: 0.8; stroke-linejoin: miter; stroke-linecap: square"/>
   </g>
   <g id="patch_4">
    <path d="M 322.78125 239.76 
L 322.78125 37.296 
" style="fill: none; stroke: #000000; stroke-width: 0.8; stroke-linejoin: miter; stroke-linecap: square"/>
   </g>
   <g id="patch_5">
    <path d="M 43.78125 239.76 
L 322.78125 239.76 
" style="fill: none; stroke: #000000; stroke-width: 0.8; stroke-linejoin: miter; stroke-linecap: square"/>
   </g>
   <g id="patch_6">
    <path d="M 43.78125 37.296 
L 322.78125 37.296 
" style="fill: none; stroke: #000000; stroke-width: 0.8; stroke-linejoin: miter; stroke-linecap: square"/>
   </g>
   <g id="text_18">
    <!-- Baseline Model -->
    <g transform="translate(149.259844 31.296) scale(0.09 -0.09)">
     <defs>
      <path id="DejaVuSans-42" d="M 1259 2228 
L 1259 519 
L 2272 519 
Q 2781 519 3026 730 
Q 3272 941 3272 1375 
Q 3272 1813 3026 2020 
Q 2781 2228 2272 2228 
L 1259 2228 
z
M 1259 4147 
L 1259 2741 
L 2194 2741 
Q 2656 2741 2882 2914 
Q 3109 3088 3109 3444 
Q 3109 3797 2882 3972 
Q 2656 4147 2194 4147 
L 1259 4147 
z
M 628 4666 
L 2241 4666 
Q 2963 4666 3353 4366 
Q 3744 4066 3744 3513 
Q 3744 3084 3544 2831 
Q 3344 2578 2956 2516 
Q 3422 2416 3680 2098 
Q 3938 1781 3938 1306 
Q 3938 681 3513 340 
Q 3088 0 2303 0 
L 628 0 
L 628 4666 
z
" transform="scale(0.015625)"/>
      <path id="DejaVuSans-61" d="M 2194 1759 
Q 1497 1759 1228 1600 
Q 959 1441 959 1056 
Q 959 750 1161 570 
Q 1363 391 1709 391 
Q 2188 391 2477 730 
Q 2766 1069 2766 1631 
L 2766 1759 
L 2194 1759 
z
M 3341 1997 
L 3341 0 
L 2766 0 
L 2766 531 
Q 2569 213 2275 61 
Q 1981 -91 1556 -91 
Q 1019 -91 701 211 
Q 384 513 384 1019 
Q 384 1609 779 1909 
Q 1175 2209 1959 2209 
L 2766 2209 
L 2766 2266 
Q 2766 2663 2505 2880 
Q 2244 3097 1772 3097 
Q 1472 3097 1187 3025 
Q 903 2953 641 2809 
L 641 3341 
Q 956 3463 1253 3523 
Q 1550 3584 1831 3584 
Q 2591 3584 2966 3190 
Q 3341 2797 3341 1997 
z
" transform="scale(0.015625)"/>
      <path id="DejaVuSans-65" d="M 3597 1894 
L 3597 1613 
L 953 1613 
Q 991 1019 1311 708 
Q 1631 397 2203 397 
Q 2534 397 2845 478 
Q 3156 559 3463 722 
L 3463 178 
Q 3153 47 2828 -22 
Q 2503 -91 2169 -91 
Q 1331 -91 842 396 
Q 353 884 353 1716 
Q 353 2575 817 3079 
Q 1281 3584 2069 3584 
Q 2775 3584 3186 3129 
Q 3597 2675 3597 1894 
z
M 3022 2063 
Q 3016 2534 2758 2815 
Q 2500 3097 2075 3097 
Q 1594 3097 1305 2825 
Q 1016 2553 972 2059 
L 3022 2063 
z
" transform="scale(0.015625)"/>
      <path id="DejaVuSans-6c" d="M 603 4863 
L 1178 4863 
L 1178 0 
L 603 0 
L 603 4863 
z
" transform="scale(0.015625)"/>
      <path id="DejaVuSans-69" d="M 603 3500 
L 1178 3500 
L 1178 0 
L 603 0 
L 603 3500 
z
M 603 4863 
L 1178 4863 
L 1178 4134 
L 603 4134 
L 603 4863 
z
" transform="scale(0.015625)"/>
      <path id="DejaVuSans-6e" d="M 3513 2113 
L 3513 0 
L 2938 0 
L 2938 2094 
Q 2938 2591 2744 2837 
Q 2550 3084 2163 3084 
Q 1697 3084 1428 2787 
Q 1159 2491 1159 1978 
L 1159 0 
L 581 0 
L 581 3500 
L 1159 3500 
L 1159 2956 
Q 1366 3272 1645 3428 
Q 1925 3584 2291 3584 
Q 2894 3584 3203 3211 
Q 3513 2838 3513 2113 
z
" transform="scale(0.015625)"/>
      <path id="DejaVuSans-20" transform="scale(0.015625)"/>
      <path id="DejaVuSans-4d" d="M 628 4666 
L 1569 4666 
L 2759 1491 
L 3956 4666 
L 4897 4666 
L 4897 0 
L 4281 0 
L 4281 4097 
L 3078 897 
L 2444 897 
L 1241 4097 
L 1241 0 
L 628 0 
L 628 4666 
z
" transform="scale(0.015625)"/>
      <path id="DejaVuSans-64" d="M 2906 2969 
L 2906 4863 
L 3481 4863 
L 3481 0 
L 2906 0 
L 2906 525 
Q 2725 213 2448 61 
Q 2172 -91 1784 -91 
Q 1150 -91 751 415 
Q 353 922 353 1747 
Q 353 2572 751 3078 
Q 1150 3584 1784 3584 
Q 2172 3584 2448 3432 
Q 2725 3281 2906 2969 
z
M 947 1747 
Q 947 1113 1208 752 
Q 1469 391 1925 391 
Q 2381 391 2643 752 
Q 2906 1113 2906 1747 
Q 2906 2381 2643 2742 
Q 2381 3103 1925 3103 
Q 1469 3103 1208 2742 
Q 947 2381 947 1747 
z
" transform="scale(0.015625)"/>
     </defs>
     <use xlink:href="#DejaVuSans-42"/>
     <use xlink:href="#DejaVuSans-61" x="68.603516"/>
     <use xlink:href="#DejaVuSans-73" x="129.882812"/>
     <use xlink:href="#DejaVuSans-65" x="181.982422"/>
     <use xlink:href="#DejaVuSans-6c" x="243.505859"/>
     <use xlink:href="#DejaVuSans-69" x="271.289062"/>
     <use xlink:href="#DejaVuSans-6e" x="299.072266"/>
     <use xlink:href="#DejaVuSans-65" x="362.451172"/>
     <use xlink:href="#DejaVuSans-20" x="423.974609"/>
     <use xlink:href="#DejaVuSans-4d" x="455.761719"/>
     <use xlink:href="#DejaVuSans-6f" x="542.041016"/>
     <use xlink:href="#DejaVuSans-64" x="603.222656"/>
     <use xlink:href="#DejaVuSans-65" x="666.699219"/>
     <use xlink:href="#DejaVuSans-6c" x="728.222656"/>
    </g>
   </g>
   <g id="legend_1">
    <g id="patch_7">
     <path d="M 209.2875 154.706125 
L 315.78125 154.706125 
Q 317.78125 154.706125 317.78125 152.706125 
L 317.78125 124.349875 
Q 317.78125 122.349875 315.78125 122.349875 
L 209.2875 122.349875 
Q 207.2875 122.349875 207.2875 124.349875 
L 207.2875 152.706125 
Q 207.2875 154.706125 209.2875 154.706125 
z
" style="fill: #ffffff; opacity: 0.8; stroke: #cccccc; stroke-linejoin: miter"/>
    </g>
    <g id="line2d_33">
     <path d="M 211.2875 130.448312 
L 221.2875 130.448312 
L 231.2875 130.448312 
" style="fill: none; stroke: #0000ff; stroke-width: 0.6; stroke-linecap: square"/>
    </g>
    <g id="text_19">
     <!-- Training Loss -->
     <g transform="translate(239.2875 133.948312) scale(0.1 -0.1)">
      <defs>
       <path id="DejaVuSans-54" d="M -19 4666 
L 3928 4666 
L 3928 4134 
L 2272 4134 
L 2272 0 
L 1638 0 
L 1638 4134 
L -19 4134 
L -19 4666 
z
" transform="scale(0.015625)"/>
       <path id="DejaVuSans-72" d="M 2631 2963 
Q 2534 3019 2420 3045 
Q 2306 3072 2169 3072 
Q 1681 3072 1420 2755 
Q 1159 2438 1159 1844 
L 1159 0 
L 581 0 
L 581 3500 
L 1159 3500 
L 1159 2956 
Q 1341 3275 1631 3429 
Q 1922 3584 2338 3584 
Q 2397 3584 2469 3576 
Q 2541 3569 2628 3553 
L 2631 2963 
z
" transform="scale(0.015625)"/>
       <path id="DejaVuSans-67" d="M 2906 1791 
Q 2906 2416 2648 2759 
Q 2391 3103 1925 3103 
Q 1463 3103 1205 2759 
Q 947 2416 947 1791 
Q 947 1169 1205 825 
Q 1463 481 1925 481 
Q 2391 481 2648 825 
Q 2906 1169 2906 1791 
z
M 3481 434 
Q 3481 -459 3084 -895 
Q 2688 -1331 1869 -1331 
Q 1566 -1331 1297 -1286 
Q 1028 -1241 775 -1147 
L 775 -588 
Q 1028 -725 1275 -790 
Q 1522 -856 1778 -856 
Q 2344 -856 2625 -561 
Q 2906 -266 2906 331 
L 2906 616 
Q 2728 306 2450 153 
Q 2172 0 1784 0 
Q 1141 0 747 490 
Q 353 981 353 1791 
Q 353 2603 747 3093 
Q 1141 3584 1784 3584 
Q 2172 3584 2450 3431 
Q 2728 3278 2906 2969 
L 2906 3500 
L 3481 3500 
L 3481 434 
z
" transform="scale(0.015625)"/>
      </defs>
      <use xlink:href="#DejaVuSans-54"/>
      <use xlink:href="#DejaVuSans-72" x="46.333984"/>
      <use xlink:href="#DejaVuSans-61" x="87.447266"/>
      <use xlink:href="#DejaVuSans-69" x="148.726562"/>
      <use xlink:href="#DejaVuSans-6e" x="176.509766"/>
      <use xlink:href="#DejaVuSans-69" x="239.888672"/>
      <use xlink:href="#DejaVuSans-6e" x="267.671875"/>
      <use xlink:href="#DejaVuSans-67" x="331.050781"/>
      <use xlink:href="#DejaVuSans-20" x="394.527344"/>
      <use xlink:href="#DejaVuSans-4c" x="426.314453"/>
      <use xlink:href="#DejaVuSans-6f" x="480.277344"/>
      <use xlink:href="#DejaVuSans-73" x="541.458984"/>
      <use xlink:href="#DejaVuSans-73" x="593.558594"/>
     </g>
    </g>
    <g id="line2d_34">
     <path d="M 211.2875 145.126437 
L 221.2875 145.126437 
L 231.2875 145.126437 
" style="fill: none; stroke: #ff0000; stroke-width: 0.6; stroke-linecap: square"/>
    </g>
    <g id="text_20">
     <!-- Validation Loss -->
     <g transform="translate(239.2875 148.626437) scale(0.1 -0.1)">
      <defs>
       <path id="DejaVuSans-56" d="M 1831 0 
L 50 4666 
L 709 4666 
L 2188 738 
L 3669 4666 
L 4325 4666 
L 2547 0 
L 1831 0 
z
" transform="scale(0.015625)"/>
       <path id="DejaVuSans-74" d="M 1172 4494 
L 1172 3500 
L 2356 3500 
L 2356 3053 
L 1172 3053 
L 1172 1153 
Q 1172 725 1289 603 
Q 1406 481 1766 481 
L 2356 481 
L 2356 0 
L 1766 0 
Q 1100 0 847 248 
Q 594 497 594 1153 
L 594 3053 
L 172 3053 
L 172 3500 
L 594 3500 
L 594 4494 
L 1172 4494 
z
" transform="scale(0.015625)"/>
      </defs>
      <use xlink:href="#DejaVuSans-56"/>
      <use xlink:href="#DejaVuSans-61" x="60.658203"/>
      <use xlink:href="#DejaVuSans-6c" x="121.9375"/>
      <use xlink:href="#DejaVuSans-69" x="149.720703"/>
      <use xlink:href="#DejaVuSans-64" x="177.503906"/>
      <use xlink:href="#DejaVuSans-61" x="240.980469"/>
      <use xlink:href="#DejaVuSans-74" x="302.259766"/>
      <use xlink:href="#DejaVuSans-69" x="341.46875"/>
      <use xlink:href="#DejaVuSans-6f" x="369.251953"/>
      <use xlink:href="#DejaVuSans-6e" x="430.433594"/>
      <use xlink:href="#DejaVuSans-20" x="493.8125"/>
      <use xlink:href="#DejaVuSans-4c" x="525.599609"/>
      <use xlink:href="#DejaVuSans-6f" x="579.5625"/>
      <use xlink:href="#DejaVuSans-73" x="640.744141"/>
      <use xlink:href="#DejaVuSans-73" x="692.84375"/>
     </g>
    </g>
   </g>
  </g>
  <g id="text_21">
   <!-- Training VS. Validation Loss - Dataset Size = 30.0% -->
   <g transform="translate(37.980391 15.558281) scale(0.11 -0.11)">
    <defs>
     <path id="DejaVuSans-53" d="M 3425 4513 
L 3425 3897 
Q 3066 4069 2747 4153 
Q 2428 4238 2131 4238 
Q 1616 4238 1336 4038 
Q 1056 3838 1056 3469 
Q 1056 3159 1242 3001 
Q 1428 2844 1947 2747 
L 2328 2669 
Q 3034 2534 3370 2195 
Q 3706 1856 3706 1288 
Q 3706 609 3251 259 
Q 2797 -91 1919 -91 
Q 1588 -91 1214 -16 
Q 841 59 441 206 
L 441 856 
Q 825 641 1194 531 
Q 1563 422 1919 422 
Q 2459 422 2753 634 
Q 3047 847 3047 1241 
Q 3047 1584 2836 1778 
Q 2625 1972 2144 2069 
L 1759 2144 
Q 1053 2284 737 2584 
Q 422 2884 422 3419 
Q 422 4038 858 4394 
Q 1294 4750 2059 4750 
Q 2388 4750 2728 4690 
Q 3069 4631 3425 4513 
z
" transform="scale(0.015625)"/>
     <path id="DejaVuSans-2d" d="M 313 2009 
L 1997 2009 
L 1997 1497 
L 313 1497 
L 313 2009 
z
" transform="scale(0.015625)"/>
     <path id="DejaVuSans-44" d="M 1259 4147 
L 1259 519 
L 2022 519 
Q 2988 519 3436 956 
Q 3884 1394 3884 2338 
Q 3884 3275 3436 3711 
Q 2988 4147 2022 4147 
L 1259 4147 
z
M 628 4666 
L 1925 4666 
Q 3281 4666 3915 4102 
Q 4550 3538 4550 2338 
Q 4550 1131 3912 565 
Q 3275 0 1925 0 
L 628 0 
L 628 4666 
z
" transform="scale(0.015625)"/>
     <path id="DejaVuSans-7a" d="M 353 3500 
L 3084 3500 
L 3084 2975 
L 922 459 
L 3084 459 
L 3084 0 
L 275 0 
L 275 525 
L 2438 3041 
L 353 3041 
L 353 3500 
z
" transform="scale(0.015625)"/>
     <path id="DejaVuSans-3d" d="M 678 2906 
L 4684 2906 
L 4684 2381 
L 678 2381 
L 678 2906 
z
M 678 1631 
L 4684 1631 
L 4684 1100 
L 678 1100 
L 678 1631 
z
" transform="scale(0.015625)"/>
     <path id="DejaVuSans-25" d="M 4653 2053 
Q 4381 2053 4226 1822 
Q 4072 1591 4072 1178 
Q 4072 772 4226 539 
Q 4381 306 4653 306 
Q 4919 306 5073 539 
Q 5228 772 5228 1178 
Q 5228 1588 5073 1820 
Q 4919 2053 4653 2053 
z
M 4653 2450 
Q 5147 2450 5437 2106 
Q 5728 1763 5728 1178 
Q 5728 594 5436 251 
Q 5144 -91 4653 -91 
Q 4153 -91 3862 251 
Q 3572 594 3572 1178 
Q 3572 1766 3864 2108 
Q 4156 2450 4653 2450 
z
M 1428 4353 
Q 1159 4353 1004 4120 
Q 850 3888 850 3481 
Q 850 3069 1003 2837 
Q 1156 2606 1428 2606 
Q 1700 2606 1854 2837 
Q 2009 3069 2009 3481 
Q 2009 3884 1853 4118 
Q 1697 4353 1428 4353 
z
M 4250 4750 
L 4750 4750 
L 1831 -91 
L 1331 -91 
L 4250 4750 
z
M 1428 4750 
Q 1922 4750 2215 4408 
Q 2509 4066 2509 3481 
Q 2509 2891 2217 2550 
Q 1925 2209 1428 2209 
Q 931 2209 642 2551 
Q 353 2894 353 3481 
Q 353 4063 643 4406 
Q 934 4750 1428 4750 
z
" transform="scale(0.015625)"/>
    </defs>
    <use xlink:href="#DejaVuSans-54"/>
    <use xlink:href="#DejaVuSans-72" x="46.333984"/>
    <use xlink:href="#DejaVuSans-61" x="87.447266"/>
    <use xlink:href="#DejaVuSans-69" x="148.726562"/>
    <use xlink:href="#DejaVuSans-6e" x="176.509766"/>
    <use xlink:href="#DejaVuSans-69" x="239.888672"/>
    <use xlink:href="#DejaVuSans-6e" x="267.671875"/>
    <use xlink:href="#DejaVuSans-67" x="331.050781"/>
    <use xlink:href="#DejaVuSans-20" x="394.527344"/>
    <use xlink:href="#DejaVuSans-56" x="426.314453"/>
    <use xlink:href="#DejaVuSans-53" x="494.722656"/>
    <use xlink:href="#DejaVuSans-2e" x="558.199219"/>
    <use xlink:href="#DejaVuSans-20" x="589.986328"/>
    <use xlink:href="#DejaVuSans-56" x="621.773438"/>
    <use xlink:href="#DejaVuSans-61" x="682.431641"/>
    <use xlink:href="#DejaVuSans-6c" x="743.710938"/>
    <use xlink:href="#DejaVuSans-69" x="771.494141"/>
    <use xlink:href="#DejaVuSans-64" x="799.277344"/>
    <use xlink:href="#DejaVuSans-61" x="862.753906"/>
    <use xlink:href="#DejaVuSans-74" x="924.033203"/>
    <use xlink:href="#DejaVuSans-69" x="963.242188"/>
    <use xlink:href="#DejaVuSans-6f" x="991.025391"/>
    <use xlink:href="#DejaVuSans-6e" x="1052.207031"/>
    <use xlink:href="#DejaVuSans-20" x="1115.585938"/>
    <use xlink:href="#DejaVuSans-4c" x="1147.373047"/>
    <use xlink:href="#DejaVuSans-6f" x="1201.335938"/>
    <use xlink:href="#DejaVuSans-73" x="1262.517578"/>
    <use xlink:href="#DejaVuSans-73" x="1314.617188"/>
    <use xlink:href="#DejaVuSans-20" x="1366.716797"/>
    <use xlink:href="#DejaVuSans-2d" x="1398.503906"/>
    <use xlink:href="#DejaVuSans-20" x="1434.587891"/>
    <use xlink:href="#DejaVuSans-44" x="1466.375"/>
    <use xlink:href="#DejaVuSans-61" x="1543.376953"/>
    <use xlink:href="#DejaVuSans-74" x="1604.65625"/>
    <use xlink:href="#DejaVuSans-61" x="1643.865234"/>
    <use xlink:href="#DejaVuSans-73" x="1705.144531"/>
    <use xlink:href="#DejaVuSans-65" x="1757.244141"/>
    <use xlink:href="#DejaVuSans-74" x="1818.767578"/>
    <use xlink:href="#DejaVuSans-20" x="1857.976562"/>
    <use xlink:href="#DejaVuSans-53" x="1889.763672"/>
    <use xlink:href="#DejaVuSans-69" x="1953.240234"/>
    <use xlink:href="#DejaVuSans-7a" x="1981.023438"/>
    <use xlink:href="#DejaVuSans-65" x="2033.513672"/>
    <use xlink:href="#DejaVuSans-20" x="2095.037109"/>
    <use xlink:href="#DejaVuSans-3d" x="2126.824219"/>
    <use xlink:href="#DejaVuSans-20" x="2210.613281"/>
    <use xlink:href="#DejaVuSans-33" x="2242.400391"/>
    <use xlink:href="#DejaVuSans-30" x="2306.023438"/>
    <use xlink:href="#DejaVuSans-2e" x="2369.646484"/>
    <use xlink:href="#DejaVuSans-30" x="2401.433594"/>
    <use xlink:href="#DejaVuSans-25" x="2465.056641"/>
   </g>
  </g>
 </g>
 <defs>
  <clipPath id="p8200a4e73d">
   <rect x="43.78125" y="37.296" width="279" height="202.464"/>
  </clipPath>
 </defs>
</svg>
