<?xml version="1.0" encoding="utf-8" standalone="no"?>
<!DOCTYPE svg PUBLIC "-//W3C//DTD SVG 1.1//EN"
  "http://www.w3.org/Graphics/SVG/1.1/DTD/svg11.dtd">
<svg xmlns:xlink="http://www.w3.org/1999/xlink" width="330.024432pt" height="277.31625pt" viewBox="0 0 330.024432 277.31625" xmlns="http://www.w3.org/2000/svg" version="1.1">
 <metadata>
  <rdf:RDF xmlns:dc="http://purl.org/dc/elements/1.1/" xmlns:cc="http://creativecommons.org/ns#" xmlns:rdf="http://www.w3.org/1999/02/22-rdf-syntax-ns#">
   <cc:Work>
    <dc:type rdf:resource="http://purl.org/dc/dcmitype/StillImage"/>
    <dc:date>2026-06-11T10:41:22.409158</dc:date>
    <dc:format>image/svg+xml</dc:format>
    <dc:creator>
     <cc:Agent>
      <dc:title>Matplotlib v3.8.4, https://matplotlib.org/</dc:title>
     </cc:Agent>
    </dc:creator>
   </cc:Work>
  </rdf:RDF>
 </metadata>
 <defs>
  <style type="text/css">*{stroke-linejoin: round; stroke-linecap: butt}</style>
 </defs>
 <g id="figure_1">
  <g id="patch_1">
   <path d="M 0 277.31625 
L 330.024432 277.31625 
L 330.024432 0 
L 0 0 
z
" style="fill: #ffffff"/>
  </g>
  <g id="axes_1">
   <g id="patch_2">
    <path d="M 43.78125 239.76 
L 322.78125 239.76 
L 322.78125 37.296 
L 43.78125 37.296 
z
" style="fill: #ffffff"/>
   </g>
   <g id="matplotlib.axis_1">
    <g id="xtick_1">
     <g id="line2d_1">
      <path d="M 56.209178 239.76 
L 56.209178 37.296 
" clip-path="url(#p556e7fec68)" style="fill: none; stroke-dasharray: 2.96,1.28; stroke-dashoffset: 0; stroke: #b0b0b0; stroke-opacity: 0.4; stroke-width: 0.8"/>
     </g>
     <g id="line2d_2">
      <defs>
       <path id="mba4cc6b269" d="M 0 0 
L 0 3.5 
" style="stroke: #000000; stroke-width: 0.8"/>
      </defs>
      <g>
       <use xlink:href="#mba4cc6b269" x="56.209178" y="239.76" style="stroke: #000000; stroke-width: 0.8"/>
      </g>
     </g>
     <g id="text_1">
      <!-- 0 -->
      <g transform="translate(53.027928 254.358437) scale(0.1 -0.1)">
       <defs>
        <path id="DejaVuSans-30" d="M 2034 4250 
Q 1547 4250 1301 3770 
Q 1056 3291 1056 2328 
Q 1056 1369 1301 889 
Q 1547 409 2034 409 
Q 2525 409 2770 889 
Q 3016 1369 3016 2328 
Q 3016 3291 2770 3770 
Q 2525 4250 2034 4250 
z
M 2034 4750 
Q 2819 4750 3233 4129 
Q 3647 3509 3647 2328 
Q 3647 1150 3233 529 
Q 2819 -91 2034 -91 
Q 1250 -91 836 529 
Q 422 1150 422 2328 
Q 422 3509 836 4129 
Q 1250 4750 2034 4750 
z
" transform="scale(0.015625)"/>
       </defs>
       <use xlink:href="#DejaVuSans-30"/>
      </g>
     </g>
    </g>
    <g id="xtick_2">
     <g id="line2d_3">
      <path d="M 106.987229 239.76 
L 106.987229 37.296 
" clip-path="url(#p556e7fec68)" style="fill: none; stroke-dasharray: 2.96,1.28; stroke-dashoffset: 0; stroke: #b0b0b0; stroke-opacity: 0.4; stroke-width: 0.8"/>
     </g>
     <g id="line2d_4">
      <g>
       <use xlink:href="#mba4cc6b269" x="106.987229" y="239.76" style="stroke: #000000; stroke-width: 0.8"/>
      </g>
     </g>
     <g id="text_2">
      <!-- 200 -->
      <g transform="translate(97.443479 254.358437) scale(0.1 -0.1)">
       <defs>
        <path id="DejaVuSans-32" d="M 1228 531 
L 3431 531 
L 3431 0 
L 469 0 
L 469 531 
Q 828 903 1448 1529 
Q 2069 2156 2228 2338 
Q 2531 2678 2651 2914 
Q 2772 3150 2772 3378 
Q 2772 3750 2511 3984 
Q 2250 4219 1831 4219 
Q 1534 4219 1204 4116 
Q 875 4013 500 3803 
L 500 4441 
Q 881 4594 1212 4672 
Q 1544 4750 1819 4750 
Q 2544 4750 2975 4387 
Q 3406 4025 3406 3419 
Q 3406 3131 3298 2873 
Q 3191 2616 2906 2266 
Q 2828 2175 2409 1742 
Q 1991 1309 1228 531 
z
" transform="scale(0.015625)"/>
       </defs>
       <use xlink:href="#DejaVuSans-32"/>
       <use xlink:href="#DejaVuSans-30" x="63.623047"/>
       <use xlink:href="#DejaVuSans-30" x="127.246094"/>
      </g>
     </g>
    </g>
    <g id="xtick_3">
     <g id="line2d_5">
      <path d="M 157.765279 239.76 
L 157.765279 37.296 
" clip-path="url(#p556e7fec68)" style="fill: none; stroke-dasharray: 2.96,1.28; stroke-dashoffset: 0; stroke: #b0b0b0; stroke-opacity: 0.4; stroke-width: 0.8"/>
     </g>
     <g id="line2d_6">
      <g>
       <use xlink:href="#mba4cc6b269" x="157.765279" y="239.76" style="stroke: #000000; stroke-width: 0.8"/>
      </g>
     </g>
     <g id="text_3">
      <!-- 400 -->
      <g transform="translate(148.221529 254.358437) scale(0.1 -0.1)">
       <defs>
        <path id="DejaVuSans-34" d="M 2419 4116 
L 825 1625 
L 2419 1625 
L 2419 4116 
z
M 2253 4666 
L 3047 4666 
L 3047 1625 
L 3713 1625 
L 3713 1100 
L 3047 1100 
L 3047 0 
L 2419 0 
L 2419 1100 
L 313 1100 
L 313 1709 
L 2253 4666 
z
" transform="scale(0.015625)"/>
       </defs>
       <use xlink:href="#DejaVuSans-34"/>
       <use xlink:href="#DejaVuSans-30" x="63.623047"/>
       <use xlink:href="#DejaVuSans-30" x="127.246094"/>
      </g>
     </g>
    </g>
    <g id="xtick_4">
     <g id="line2d_7">
      <path d="M 208.54333 239.76 
L 208.54333 37.296 
" clip-path="url(#p556e7fec68)" style="fill: none; stroke-dasharray: 2.96,1.28; stroke-dashoffset: 0; stroke: #b0b0b0; stroke-opacity: 0.4; stroke-width: 0.8"/>
     </g>
     <g id="line2d_8">
      <g>
       <use xlink:href="#mba4cc6b269" x="208.54333" y="239.76" style="stroke: #000000; stroke-width: 0.8"/>
      </g>
     </g>
     <g id="text_4">
      <!-- 600 -->
      <g transform="translate(198.99958 254.358437) scale(0.1 -0.1)">
       <defs>
        <path id="DejaVuSans-36" d="M 2113 2584 
Q 1688 2584 1439 2293 
Q 1191 2003 1191 1497 
Q 1191 994 1439 701 
Q 1688 409 2113 409 
Q 2538 409 2786 701 
Q 3034 994 3034 1497 
Q 3034 2003 2786 2293 
Q 2538 2584 2113 2584 
z
M 3366 4563 
L 3366 3988 
Q 3128 4100 2886 4159 
Q 2644 4219 2406 4219 
Q 1781 4219 1451 3797 
Q 1122 3375 1075 2522 
Q 1259 2794 1537 2939 
Q 1816 3084 2150 3084 
Q 2853 3084 3261 2657 
Q 3669 2231 3669 1497 
Q 3669 778 3244 343 
Q 2819 -91 2113 -91 
Q 1303 -91 875 529 
Q 447 1150 447 2328 
Q 447 3434 972 4092 
Q 1497 4750 2381 4750 
Q 2619 4750 2861 4703 
Q 3103 4656 3366 4563 
z
" transform="scale(0.015625)"/>
       </defs>
       <use xlink:href="#DejaVuSans-36"/>
       <use xlink:href="#DejaVuSans-30" x="63.623047"/>
       <use xlink:href="#DejaVuSans-30" x="127.246094"/>
      </g>
     </g>
    </g>
    <g id="xtick_5">
     <g id="line2d_9">
      <path d="M 259.321381 239.76 
L 259.321381 37.296 
" clip-path="url(#p556e7fec68)" style="fill: none; stroke-dasharray: 2.96,1.28; stroke-dashoffset: 0; stroke: #b0b0b0; stroke-opacity: 0.4; stroke-width: 0.8"/>
     </g>
     <g id="line2d_10">
      <g>
       <use xlink:href="#mba4cc6b269" x="259.321381" y="239.76" style="stroke: #000000; stroke-width: 0.8"/>
      </g>
     </g>
     <g id="text_5">
      <!-- 800 -->
      <g transform="translate(249.777631 254.358437) scale(0.1 -0.1)">
       <defs>
        <path id="DejaVuSans-38" d="M 2034 2216 
Q 1584 2216 1326 1975 
Q 1069 1734 1069 1313 
Q 1069 891 1326 650 
Q 1584 409 2034 409 
Q 2484 409 2743 651 
Q 3003 894 3003 1313 
Q 3003 1734 2745 1975 
Q 2488 2216 2034 2216 
z
M 1403 2484 
Q 997 2584 770 2862 
Q 544 3141 544 3541 
Q 544 4100 942 4425 
Q 1341 4750 2034 4750 
Q 2731 4750 3128 4425 
Q 3525 4100 3525 3541 
Q 3525 3141 3298 2862 
Q 3072 2584 2669 2484 
Q 3125 2378 3379 2068 
Q 3634 1759 3634 1313 
Q 3634 634 3220 271 
Q 2806 -91 2034 -91 
Q 1263 -91 848 271 
Q 434 634 434 1313 
Q 434 1759 690 2068 
Q 947 2378 1403 2484 
z
M 1172 3481 
Q 1172 3119 1398 2916 
Q 1625 2713 2034 2713 
Q 2441 2713 2670 2916 
Q 2900 3119 2900 3481 
Q 2900 3844 2670 4047 
Q 2441 4250 2034 4250 
Q 1625 4250 1398 4047 
Q 1172 3844 1172 3481 
z
" transform="scale(0.015625)"/>
       </defs>
       <use xlink:href="#DejaVuSans-38"/>
       <use xlink:href="#DejaVuSans-30" x="63.623047"/>
       <use xlink:href="#DejaVuSans-30" x="127.246094"/>
      </g>
     </g>
    </g>
    <g id="xtick_6">
     <g id="line2d_11">
      <path d="M 310.099432 239.76 
L 310.099432 37.296 
" clip-path="url(#p556e7fec68)" style="fill: none; stroke-dasharray: 2.96,1.28; stroke-dashoffset: 0; stroke: #b0b0b0; stroke-opacity: 0.4; stroke-width: 0.8"/>
     </g>
     <g id="line2d_12">
      <g>
       <use xlink:href="#mba4cc6b269" x="310.099432" y="239.76" style="stroke: #000000; stroke-width: 0.8"/>
      </g>
     </g>
     <g id="text_6">
      <!-- 1000 -->
      <g transform="translate(297.374432 254.358437) scale(0.1 -0.1)">
       <defs>
        <path id="DejaVuSans-31" d="M 794 531 
L 1825 531 
L 1825 4091 
L 703 3866 
L 703 4441 
L 1819 4666 
L 2450 4666 
L 2450 531 
L 3481 531 
L 3481 0 
L 794 0 
L 794 531 
z
" transform="scale(0.015625)"/>
       </defs>
       <use xlink:href="#DejaVuSans-31"/>
       <use xlink:href="#DejaVuSans-30" x="63.623047"/>
       <use xlink:href="#DejaVuSans-30" x="127.246094"/>
       <use xlink:href="#DejaVuSans-30" x="190.869141"/>
      </g>
     </g>
    </g>
    <g id="text_7">
     <!-- Epochs -->
     <g transform="translate(165.365625 268.036562) scale(0.1 -0.1)">
      <defs>
       <path id="DejaVuSans-45" d="M 628 4666 
L 3578 4666 
L 3578 4134 
L 1259 4134 
L 1259 2753 
L 3481 2753 
L 3481 2222 
L 1259 2222 
L 1259 531 
L 3634 531 
L 3634 0 
L 628 0 
L 628 4666 
z
" transform="scale(0.015625)"/>
       <path id="DejaVuSans-70" d="M 1159 525 
L 1159 -1331 
L 581 -1331 
L 581 3500 
L 1159 3500 
L 1159 2969 
Q 1341 3281 1617 3432 
Q 1894 3584 2278 3584 
Q 2916 3584 3314 3078 
Q 3713 2572 3713 1747 
Q 3713 922 3314 415 
Q 2916 -91 2278 -91 
Q 1894 -91 1617 61 
Q 1341 213 1159 525 
z
M 3116 1747 
Q 3116 2381 2855 2742 
Q 2594 3103 2138 3103 
Q 1681 3103 1420 2742 
Q 1159 2381 1159 1747 
Q 1159 1113 1420 752 
Q 1681 391 2138 391 
Q 2594 391 2855 752 
Q 3116 1113 3116 1747 
z
" transform="scale(0.015625)"/>
       <path id="DejaVuSans-6f" d="M 1959 3097 
Q 1497 3097 1228 2736 
Q 959 2375 959 1747 
Q 959 1119 1226 758 
Q 1494 397 1959 397 
Q 2419 397 2687 759 
Q 2956 1122 2956 1747 
Q 2956 2369 2687 2733 
Q 2419 3097 1959 3097 
z
M 1959 3584 
Q 2709 3584 3137 3096 
Q 3566 2609 3566 1747 
Q 3566 888 3137 398 
Q 2709 -91 1959 -91 
Q 1206 -91 779 398 
Q 353 888 353 1747 
Q 353 2609 779 3096 
Q 1206 3584 1959 3584 
z
" transform="scale(0.015625)"/>
       <path id="DejaVuSans-63" d="M 3122 3366 
L 3122 2828 
Q 2878 2963 2633 3030 
Q 2388 3097 2138 3097 
Q 1578 3097 1268 2742 
Q 959 2388 959 1747 
Q 959 1106 1268 751 
Q 1578 397 2138 397 
Q 2388 397 2633 464 
Q 2878 531 3122 666 
L 3122 134 
Q 2881 22 2623 -34 
Q 2366 -91 2075 -91 
Q 1284 -91 818 406 
Q 353 903 353 1747 
Q 353 2603 823 3093 
Q 1294 3584 2113 3584 
Q 2378 3584 2631 3529 
Q 2884 3475 3122 3366 
z
" transform="scale(0.015625)"/>
       <path id="DejaVuSans-68" d="M 3513 2113 
L 3513 0 
L 2938 0 
L 2938 2094 
Q 2938 2591 2744 2837 
Q 2550 3084 2163 3084 
Q 1697 3084 1428 2787 
Q 1159 2491 1159 1978 
L 1159 0 
L 581 0 
L 581 4863 
L 1159 4863 
L 1159 2956 
Q 1366 3272 1645 3428 
Q 1925 3584 2291 3584 
Q 2894 3584 3203 3211 
Q 3513 2838 3513 2113 
z
" transform="scale(0.015625)"/>
       <path id="DejaVuSans-73" d="M 2834 3397 
L 2834 2853 
Q 2591 2978 2328 3040 
Q 2066 3103 1784 3103 
Q 1356 3103 1142 2972 
Q 928 2841 928 2578 
Q 928 2378 1081 2264 
Q 1234 2150 1697 2047 
L 1894 2003 
Q 2506 1872 2764 1633 
Q 3022 1394 3022 966 
Q 3022 478 2636 193 
Q 2250 -91 1575 -91 
Q 1294 -91 989 -36 
Q 684 19 347 128 
L 347 722 
Q 666 556 975 473 
Q 1284 391 1588 391 
Q 1994 391 2212 530 
Q 2431 669 2431 922 
Q 2431 1156 2273 1281 
Q 2116 1406 1581 1522 
L 1381 1569 
Q 847 1681 609 1914 
Q 372 2147 372 2553 
Q 372 3047 722 3315 
Q 1072 3584 1716 3584 
Q 2034 3584 2315 3537 
Q 2597 3491 2834 3397 
z
" transform="scale(0.015625)"/>
      </defs>
      <use xlink:href="#DejaVuSans-45"/>
      <use xlink:href="#DejaVuSans-70" x="63.183594"/>
      <use xlink:href="#DejaVuSans-6f" x="126.660156"/>
      <use xlink:href="#DejaVuSans-63" x="187.841797"/>
      <use xlink:href="#DejaVuSans-68" x="242.822266"/>
      <use xlink:href="#DejaVuSans-73" x="306.201172"/>
     </g>
    </g>
   </g>
   <g id="matplotlib.axis_2">
    <g id="ytick_1">
     <g id="line2d_13">
      <path d="M 43.78125 234.330092 
L 322.78125 234.330092 
" clip-path="url(#p556e7fec68)" style="fill: none; stroke-dasharray: 2.96,1.28; stroke-dashoffset: 0; stroke: #b0b0b0; stroke-opacity: 0.4; stroke-width: 0.8"/>
     </g>
     <g id="line2d_14">
      <defs>
       <path id="m7704ce0cc9" d="M 0 0 
L -3.5 0 
" style="stroke: #000000; stroke-width: 0.8"/>
      </defs>
      <g>
       <use xlink:href="#m7704ce0cc9" x="43.78125" y="234.330092" style="stroke: #000000; stroke-width: 0.8"/>
      </g>
     </g>
     <g id="text_8">
      <!-- 0.0 -->
      <g transform="translate(20.878125 238.129311) scale(0.1 -0.1)">
       <defs>
        <path id="DejaVuSans-2e" d="M 684 794 
L 1344 794 
L 1344 0 
L 684 0 
L 684 794 
z
" transform="scale(0.015625)"/>
       </defs>
       <use xlink:href="#DejaVuSans-30"/>
       <use xlink:href="#DejaVuSans-2e" x="63.623047"/>
       <use xlink:href="#DejaVuSans-30" x="95.410156"/>
      </g>
     </g>
    </g>
    <g id="ytick_2">
     <g id="line2d_15">
      <path d="M 43.78125 193.516209 
L 322.78125 193.516209 
" clip-path="url(#p556e7fec68)" style="fill: none; stroke-dasharray: 2.96,1.28; stroke-dashoffset: 0; stroke: #b0b0b0; stroke-opacity: 0.4; stroke-width: 0.8"/>
     </g>
     <g id="line2d_16">
      <g>
       <use xlink:href="#m7704ce0cc9" x="43.78125" y="193.516209" style="stroke: #000000; stroke-width: 0.8"/>
      </g>
     </g>
     <g id="text_9">
      <!-- 0.5 -->
      <g transform="translate(20.878125 197.315428) scale(0.1 -0.1)">
       <defs>
        <path id="DejaVuSans-35" d="M 691 4666 
L 3169 4666 
L 3169 4134 
L 1269 4134 
L 1269 2991 
Q 1406 3038 1543 3061 
Q 1681 3084 1819 3084 
Q 2600 3084 3056 2656 
Q 3513 2228 3513 1497 
Q 3513 744 3044 326 
Q 2575 -91 1722 -91 
Q 1428 -91 1123 -41 
Q 819 9 494 109 
L 494 744 
Q 775 591 1075 516 
Q 1375 441 1709 441 
Q 2250 441 2565 725 
Q 2881 1009 2881 1497 
Q 2881 1984 2565 2268 
Q 2250 2553 1709 2553 
Q 1456 2553 1204 2497 
Q 953 2441 691 2322 
L 691 4666 
z
" transform="scale(0.015625)"/>
       </defs>
       <use xlink:href="#DejaVuSans-30"/>
       <use xlink:href="#DejaVuSans-2e" x="63.623047"/>
       <use xlink:href="#DejaVuSans-35" x="95.410156"/>
      </g>
     </g>
    </g>
    <g id="ytick_3">
     <g id="line2d_17">
      <path d="M 43.78125 152.702326 
L 322.78125 152.702326 
" clip-path="url(#p556e7fec68)" style="fill: none; stroke-dasharray: 2.96,1.28; stroke-dashoffset: 0; stroke: #b0b0b0; stroke-opacity: 0.4; stroke-width: 0.8"/>
     </g>
     <g id="line2d_18">
      <g>
       <use xlink:href="#m7704ce0cc9" x="43.78125" y="152.702326" style="stroke: #000000; stroke-width: 0.8"/>
      </g>
     </g>
     <g id="text_10">
      <!-- 1.0 -->
      <g transform="translate(20.878125 156.501544) scale(0.1 -0.1)">
       <use xlink:href="#DejaVuSans-31"/>
       <use xlink:href="#DejaVuSans-2e" x="63.623047"/>
       <use xlink:href="#DejaVuSans-30" x="95.410156"/>
      </g>
     </g>
    </g>
    <g id="ytick_4">
     <g id="line2d_19">
      <path d="M 43.78125 111.888442 
L 322.78125 111.888442 
" clip-path="url(#p556e7fec68)" style="fill: none; stroke-dasharray: 2.96,1.28; stroke-dashoffset: 0; stroke: #b0b0b0; stroke-opacity: 0.4; stroke-width: 0.8"/>
     </g>
     <g id="line2d_20">
      <g>
       <use xlink:href="#m7704ce0cc9" x="43.78125" y="111.888442" style="stroke: #000000; stroke-width: 0.8"/>
      </g>
     </g>
     <g id="text_11">
      <!-- 1.5 -->
      <g transform="translate(20.878125 115.687661) scale(0.1 -0.1)">
       <use xlink:href="#DejaVuSans-31"/>
       <use xlink:href="#DejaVuSans-2e" x="63.623047"/>
       <use xlink:href="#DejaVuSans-35" x="95.410156"/>
      </g>
     </g>
    </g>
    <g id="ytick_5">
     <g id="line2d_21">
      <path d="M 43.78125 71.074559 
L 322.78125 71.074559 
" clip-path="url(#p556e7fec68)" style="fill: none; stroke-dasharray: 2.96,1.28; stroke-dashoffset: 0; stroke: #b0b0b0; stroke-opacity: 0.4; stroke-width: 0.8"/>
     </g>
     <g id="line2d_22">
      <g>
       <use xlink:href="#m7704ce0cc9" x="43.78125" y="71.074559" style="stroke: #000000; stroke-width: 0.8"/>
      </g>
     </g>
     <g id="text_12">
      <!-- 2.0 -->
      <g transform="translate(20.878125 74.873778) scale(0.1 -0.1)">
       <use xlink:href="#DejaVuSans-32"/>
       <use xlink:href="#DejaVuSans-2e" x="63.623047"/>
       <use xlink:href="#DejaVuSans-30" x="95.410156"/>
      </g>
     </g>
    </g>
    <g id="text_13">
     <!-- Loss -->
     <g transform="translate(14.798438 149.495187) rotate(-90) scale(0.1 -0.1)">
      <defs>
       <path id="DejaVuSans-4c" d="M 628 4666 
L 1259 4666 
L 1259 531 
L 3531 531 
L 3531 0 
L 628 0 
L 628 4666 
z
" transform="scale(0.015625)"/>
      </defs>
      <use xlink:href="#DejaVuSans-4c"/>
      <use xlink:href="#DejaVuSans-6f" x="53.962891"/>
      <use xlink:href="#DejaVuSans-73" x="115.144531"/>
      <use xlink:href="#DejaVuSans-73" x="167.244141"/>
     </g>
    </g>
   </g>
   <g id="line2d_23">
    <path d="M 56.463068 177.23661 
L 56.716958 177.642958 
L 57.224739 177.96151 
L 57.478629 177.935106 
L 57.98641 178.201423 
L 58.49419 178.261077 
L 58.74808 178.457099 
L 59.001971 178.428369 
L 59.255861 178.517299 
L 59.509751 178.165842 
L 60.779202 179.594584 
L 61.033093 179.98964 
L 61.540873 181.31528 
L 61.794764 182.761839 
L 62.048654 183.549493 
L 62.302544 183.059149 
L 62.810325 186.03079 
L 63.064215 185.031964 
L 63.571995 188.842185 
L 63.825886 189.374051 
L 64.079776 189.622599 
L 64.587556 191.657405 
L 64.841447 193.591588 
L 65.095337 192.35914 
L 65.603117 193.106377 
L 65.857008 194.794601 
L 66.110898 191.686334 
L 66.618678 193.681737 
L 66.872569 194.099027 
L 67.126459 195.235646 
L 67.380349 197.324844 
L 67.634239 198.416103 
L 67.88813 197.705496 
L 68.14202 196.37201 
L 68.39591 199.815885 
L 68.6498 200.833613 
L 68.903691 201.175069 
L 69.157581 193.685335 
L 69.411471 198.388755 
L 70.173142 201.439211 
L 70.427032 204.099163 
L 70.680922 201.419757 
L 70.934813 197.443616 
L 71.188703 205.022501 
L 71.442593 201.543708 
L 71.696483 204.924597 
L 71.950374 205.115067 
L 72.204264 205.929566 
L 72.458154 205.085191 
L 72.712044 207.00603 
L 72.965935 201.880943 
L 73.219825 201.926388 
L 73.727605 206.048403 
L 74.743166 210.794147 
L 74.997057 212.748223 
L 75.504837 210.048499 
L 75.758727 213.98411 
L 76.012618 212.232261 
L 76.266508 214.033708 
L 76.520398 212.86284 
L 76.774288 209.473195 
L 77.028179 214.571576 
L 77.282069 213.341206 
L 77.535959 215.626548 
L 77.78985 216.722454 
L 78.04374 210.590183 
L 78.55152 216.799468 
L 78.805411 210.891584 
L 79.059301 216.257248 
L 79.313191 218.275232 
L 79.567081 218.216724 
L 79.820972 219.198707 
L 80.074862 215.878762 
L 80.582642 219.334271 
L 80.836533 219.715057 
L 81.598203 221.979134 
L 81.852094 223.327938 
L 82.105984 222.451146 
L 82.613764 219.909709 
L 82.867655 221.881851 
L 83.121545 221.354068 
L 83.375435 189.736673 
L 83.883216 205.510047 
L 84.137106 205.956039 
L 84.644886 213.411576 
L 84.898777 210.819596 
L 85.152667 216.475217 
L 85.406557 218.069074 
L 85.660447 214.229624 
L 85.914338 216.129284 
L 86.676008 223.70977 
L 86.929899 222.424269 
L 87.183789 225.242549 
L 87.437679 224.249558 
L 87.691569 210.044213 
L 87.94546 210.590081 
L 88.19935 220.04851 
L 88.45324 218.220319 
L 88.70713 221.197187 
L 88.961021 222.656628 
L 89.214911 220.230521 
L 89.468801 225.334454 
L 89.722691 224.199752 
L 89.976582 226.450614 
L 90.230472 224.518483 
L 90.484362 202.772672 
L 90.738252 216.321857 
L 90.992143 160.314123 
L 91.246033 181.992294 
L 91.753813 188.473724 
L 92.007704 186.904829 
L 92.515484 195.469611 
L 92.769374 199.306682 
L 93.023265 199.226007 
L 93.277155 200.951706 
L 93.531045 203.85899 
L 93.784936 204.141653 
L 94.038826 205.931378 
L 94.292716 202.764783 
L 94.546606 206.921914 
L 94.800497 206.538001 
L 95.054387 207.833743 
L 95.308277 210.89716 
L 95.562167 209.651972 
L 95.816058 210.664273 
L 96.069948 213.62803 
L 96.323838 211.783087 
L 96.577728 212.033307 
L 96.831619 213.918066 
L 97.339399 214.137992 
L 97.593289 212.121729 
L 97.84718 213.815737 
L 98.10107 212.955959 
L 98.35496 214.875056 
L 98.60885 215.088012 
L 98.862741 213.487416 
L 99.116631 217.288334 
L 99.370521 216.901764 
L 99.624411 215.747679 
L 99.878302 216.64875 
L 100.132192 216.241051 
L 100.386082 217.716736 
L 100.639972 217.444404 
L 100.893863 211.063678 
L 101.147753 214.365202 
L 101.401643 211.855521 
L 101.909424 218.303504 
L 102.163314 207.331337 
L 102.417204 216.874587 
L 102.671094 218.35151 
L 102.924985 218.33618 
L 103.178875 219.101551 
L 103.432765 219.14305 
L 103.686655 218.523692 
L 103.940546 219.194104 
L 104.194436 220.696456 
L 104.448326 221.495804 
L 104.702216 221.609815 
L 105.209997 217.52422 
L 105.463887 218.105037 
L 105.717777 220.007647 
L 105.971668 216.334035 
L 106.225558 220.858835 
L 106.479448 220.808672 
L 106.733338 218.391217 
L 106.987229 221.093628 
L 107.241119 220.690647 
L 107.748899 221.957687 
L 108.00279 221.466214 
L 108.25668 219.914974 
L 108.51057 223.277719 
L 108.76446 222.890783 
L 109.018351 223.279606 
L 109.272241 223.168173 
L 109.526131 222.763191 
L 109.780021 220.298319 
L 110.033912 221.563663 
L 110.287802 222.238621 
L 110.541692 224.774509 
L 110.795583 222.069607 
L 111.303363 223.843865 
L 111.557253 220.737702 
L 111.811144 220.483109 
L 112.065034 223.687707 
L 112.318924 224.070606 
L 112.572814 224.012396 
L 112.826705 224.261828 
L 113.080595 222.564936 
L 113.334485 225.452725 
L 113.588375 223.788698 
L 113.842266 223.130122 
L 114.096156 224.166277 
L 114.350046 224.376763 
L 114.603936 224.968097 
L 114.857827 223.515894 
L 115.111717 224.484349 
L 115.365607 224.204088 
L 115.619497 222.995286 
L 115.873388 219.819664 
L 116.127278 223.755045 
L 116.381168 225.482479 
L 116.635058 224.851326 
L 116.888949 226.065812 
L 117.142839 225.251831 
L 117.396729 225.170376 
L 117.650619 224.595751 
L 118.1584 225.628054 
L 118.41229 224.842133 
L 118.66618 219.047999 
L 118.920071 224.671095 
L 119.173961 225.451608 
L 119.427851 225.12649 
L 119.681741 225.254892 
L 120.189522 226.313985 
L 120.443412 225.13389 
L 120.697302 226.736233 
L 121.205083 225.819443 
L 121.458973 226.963859 
L 121.712863 225.97025 
L 121.966754 224.372376 
L 122.220644 227.077735 
L 122.474534 226.402648 
L 122.728424 226.642706 
L 122.982315 227.053507 
L 123.236205 226.858537 
L 123.490095 225.226272 
L 123.743985 226.458756 
L 123.997876 225.046366 
L 124.251766 225.301745 
L 124.505656 227.084812 
L 124.759546 225.85678 
L 125.013437 226.722969 
L 125.267327 226.926227 
L 125.521217 226.236601 
L 125.775107 227.656694 
L 126.282888 226.044616 
L 126.536778 227.049799 
L 126.790669 226.008902 
L 127.044559 226.240672 
L 127.298449 227.604282 
L 127.80623 225.201987 
L 128.06012 226.66326 
L 128.31401 226.925257 
L 128.5679 226.008579 
L 128.821791 227.668069 
L 129.075681 227.023828 
L 129.329571 227.402264 
L 129.837352 226.329643 
L 130.091242 226.044766 
L 130.345132 226.970597 
L 130.599022 226.833971 
L 130.852913 226.887544 
L 131.106803 227.495648 
L 131.360693 227.089479 
L 131.614583 227.304539 
L 131.868474 227.717015 
L 132.122364 227.625656 
L 132.630144 226.853752 
L 132.884035 227.398921 
L 133.137925 226.649527 
L 133.645705 228.045819 
L 133.899596 227.023065 
L 134.153486 227.105648 
L 134.407376 227.541227 
L 134.915157 226.000148 
L 135.169047 227.002404 
L 135.422937 227.444715 
L 135.676827 226.287473 
L 135.930718 228.270279 
L 136.184608 226.950154 
L 136.438498 227.650299 
L 136.692388 227.881911 
L 136.946279 228.531142 
L 137.200169 227.698687 
L 137.454059 228.505855 
L 137.707949 228.19378 
L 138.21573 227.245245 
L 138.46962 229.031463 
L 138.72351 227.953659 
L 138.977401 227.912412 
L 139.231291 227.523816 
L 139.485181 226.637872 
L 139.739071 228.283433 
L 139.992962 228.191084 
L 140.246852 227.232318 
L 140.500742 228.582723 
L 140.754632 228.761539 
L 141.008523 228.343079 
L 141.262413 228.680344 
L 141.516303 228.006468 
L 141.770193 227.963049 
L 142.024084 227.757822 
L 142.277974 228.29933 
L 142.531864 227.187077 
L 142.785755 228.999026 
L 143.039645 228.231672 
L 143.547425 227.585794 
L 143.801316 229.050207 
L 144.055206 226.82801 
L 144.309096 226.434432 
L 144.816877 228.774371 
L 145.070767 228.663212 
L 145.324657 228.679913 
L 145.578547 227.946446 
L 146.340218 229.062818 
L 146.594108 228.034211 
L 146.847999 228.040132 
L 147.101889 228.28456 
L 147.355779 228.292697 
L 147.609669 228.160237 
L 147.86356 228.442915 
L 148.11745 228.205171 
L 148.37134 228.925856 
L 148.62523 229.188533 
L 148.879121 228.75333 
L 149.133011 227.911658 
L 149.386901 228.562592 
L 149.640791 228.042017 
L 149.894682 228.232358 
L 150.148572 228.771389 
L 150.402462 228.099374 
L 150.656352 228.496025 
L 150.910243 227.800011 
L 151.164133 228.461771 
L 151.671913 227.730583 
L 151.925804 229.007817 
L 152.179694 228.085934 
L 152.433584 229.327964 
L 152.687474 228.96773 
L 152.941365 227.43107 
L 153.195255 228.537712 
L 153.703035 228.203433 
L 153.956926 227.965919 
L 154.464706 228.732681 
L 154.718596 228.197506 
L 154.972487 228.59832 
L 155.480267 228.80968 
L 155.734157 229.197529 
L 155.988048 228.208316 
L 156.241938 227.839899 
L 156.495828 228.711815 
L 156.749718 228.595405 
L 157.003609 229.892502 
L 157.257499 228.531896 
L 157.511389 228.813333 
L 158.52695 228.119345 
L 158.78084 228.228166 
L 159.034731 228.990847 
L 159.288621 227.932458 
L 159.542511 228.211889 
L 159.796402 229.201425 
L 160.050292 228.639431 
L 160.304182 228.491088 
L 160.558072 229.051476 
L 160.811963 228.541443 
L 161.319743 228.405898 
L 161.573633 228.664089 
L 161.827524 229.439192 
L 162.081414 228.593734 
L 162.335304 228.363569 
L 162.589194 229.229946 
L 162.843085 227.44915 
L 163.096975 228.575566 
L 163.350865 227.513164 
L 163.604755 228.150081 
L 163.858646 228.27029 
L 164.366426 228.96513 
L 164.620316 228.324796 
L 164.874207 226.993497 
L 165.128097 228.686388 
L 166.397548 228.307824 
L 166.651438 228.079728 
L 166.905329 228.630474 
L 167.159219 228.563928 
L 167.413109 229.606619 
L 167.666999 228.699049 
L 167.92089 229.446748 
L 168.17478 228.058032 
L 168.42867 227.977981 
L 168.68256 228.395793 
L 168.936451 228.530307 
L 169.190341 229.398106 
L 169.444231 228.335035 
L 169.698121 229.202498 
L 169.952012 229.445838 
L 170.205902 229.325802 
L 170.459792 228.652439 
L 170.713682 228.686167 
L 170.967573 227.834147 
L 171.221463 229.262052 
L 171.475353 229.139081 
L 171.729243 229.487796 
L 172.237024 229.654181 
L 172.490914 228.694089 
L 172.744804 228.844889 
L 172.998695 229.439497 
L 173.252585 228.698447 
L 174.014256 228.016159 
L 174.268146 227.927164 
L 174.522036 229.467738 
L 174.775926 229.712129 
L 175.029817 228.570591 
L 175.283707 228.450205 
L 175.537597 229.451658 
L 175.791488 228.846748 
L 176.045378 228.716042 
L 176.299268 229.290463 
L 176.553158 227.95087 
L 176.807049 229.088397 
L 177.060939 228.793662 
L 177.314829 228.821113 
L 177.568719 230.557091 
L 177.82261 228.893584 
L 178.0765 228.745906 
L 178.58428 229.113994 
L 178.838171 228.123081 
L 179.092061 229.779798 
L 179.345951 228.806759 
L 179.599841 228.996646 
L 179.853732 229.583042 
L 180.361512 228.181619 
L 180.615402 229.339521 
L 180.869293 228.529429 
L 181.123183 228.57677 
L 181.377073 229.368322 
L 181.630963 228.036385 
L 181.884854 229.034769 
L 182.138744 228.825666 
L 182.392634 229.338719 
L 182.900415 228.636086 
L 183.154305 229.304083 
L 183.408195 228.340908 
L 183.662085 228.4229 
L 183.915976 229.719675 
L 184.169866 229.352531 
L 184.423756 228.488129 
L 184.677646 229.606287 
L 184.931537 228.099157 
L 185.185427 229.654103 
L 185.439317 228.855915 
L 185.693207 229.501763 
L 185.947098 229.532059 
L 186.200988 229.676756 
L 186.454878 229.328249 
L 186.708768 228.493185 
L 186.962659 229.479879 
L 187.216549 229.24648 
L 187.470439 229.571327 
L 187.724329 229.010787 
L 187.97822 229.187481 
L 188.23211 228.364192 
L 188.486 228.976649 
L 188.73989 229.278007 
L 188.993781 228.864803 
L 189.247671 229.011025 
L 189.501561 229.472594 
L 190.009342 227.890689 
L 190.263232 228.610356 
L 190.771012 229.237058 
L 191.024903 228.222336 
L 191.278793 229.141193 
L 191.532683 228.433213 
L 191.786574 228.300928 
L 192.040464 229.13785 
L 192.294354 227.454124 
L 192.548244 228.905865 
L 193.056025 228.970721 
L 193.309915 228.448608 
L 193.563805 229.375315 
L 193.817696 227.888434 
L 194.325476 228.834003 
L 195.087147 229.570394 
L 195.341037 228.155183 
L 195.594927 229.232248 
L 195.848818 229.763465 
L 196.102708 228.8376 
L 196.356598 228.945492 
L 196.610488 229.292133 
L 197.118269 228.523924 
L 197.372159 229.175226 
L 197.626049 229.031553 
L 197.87994 227.908988 
L 198.13383 228.865041 
L 198.64161 228.922576 
L 198.895501 228.00525 
L 199.149391 229.010053 
L 199.403281 229.208491 
L 199.911062 229.247101 
L 200.164952 229.133143 
L 200.418842 229.265924 
L 200.672732 229.034224 
L 201.180513 229.634829 
L 201.434403 228.777569 
L 201.688293 228.431205 
L 201.942184 228.691191 
L 202.196074 229.279026 
L 202.449964 229.236008 
L 202.703854 228.720063 
L 202.957745 229.137501 
L 203.211635 228.814565 
L 203.465525 229.545223 
L 204.481086 229.449236 
L 204.734976 228.638516 
L 204.988867 228.750476 
L 205.242757 228.417068 
L 205.496647 229.437632 
L 205.750537 228.796383 
L 206.258318 228.66663 
L 206.512208 229.076545 
L 206.766098 228.423079 
L 207.019989 229.060259 
L 207.273879 229.177221 
L 207.527769 229.04382 
L 207.78166 229.888525 
L 208.03555 228.053303 
L 208.28944 229.248149 
L 208.797221 229.864495 
L 209.051111 229.387053 
L 209.305001 229.691046 
L 209.812782 228.35511 
L 210.066672 229.212301 
L 210.320562 228.878398 
L 210.574452 229.069784 
L 210.828343 227.859349 
L 211.082233 229.052752 
L 211.336123 229.00886 
L 211.590013 228.814877 
L 211.843904 228.147156 
L 212.097794 229.360916 
L 212.351684 227.982733 
L 212.605574 229.78479 
L 213.367245 228.813758 
L 213.621135 229.610686 
L 213.875026 229.254707 
L 214.128916 229.417088 
L 214.382806 229.00964 
L 214.636696 228.16137 
L 214.890587 229.479448 
L 215.144477 229.007121 
L 215.398367 228.833577 
L 215.652257 229.312209 
L 215.906148 228.782706 
L 216.160038 227.092111 
L 216.413928 228.667213 
L 216.667818 229.263039 
L 217.175599 228.580705 
L 217.429489 229.80886 
L 217.683379 227.940897 
L 217.93727 228.768081 
L 218.19116 229.077628 
L 218.44505 228.64473 
L 218.69894 228.949202 
L 218.952831 228.47077 
L 219.206721 229.051757 
L 219.460611 229.338511 
L 219.714501 228.413248 
L 219.968392 229.486193 
L 220.222282 228.448907 
L 220.476172 229.268153 
L 220.730062 228.630365 
L 220.983953 228.414031 
L 221.237843 229.013607 
L 221.491733 229.316687 
L 221.745623 229.041951 
L 221.999514 228.947417 
L 222.253404 228.524726 
L 222.507294 229.010136 
L 222.761184 229.168518 
L 223.015075 228.535685 
L 223.268965 229.428417 
L 223.522855 229.560239 
L 224.030636 228.115931 
L 224.538416 229.502582 
L 224.792307 228.312334 
L 225.046197 229.79587 
L 225.300087 228.820098 
L 225.553977 228.549403 
L 225.807868 229.24702 
L 226.061758 229.174759 
L 226.315648 228.741131 
L 226.569538 228.750228 
L 226.823429 229.324987 
L 227.077319 229.486873 
L 227.331209 229.332813 
L 227.585099 229.425711 
L 227.83899 228.413626 
L 228.09288 228.725215 
L 228.34677 228.688584 
L 228.854551 229.566848 
L 229.108441 229.413891 
L 229.362331 228.463604 
L 229.616221 229.340401 
L 230.124002 229.114069 
L 230.377892 229.490811 
L 230.631782 229.266581 
L 231.139563 228.333667 
L 231.393453 229.015445 
L 231.647343 228.450036 
L 231.901234 228.706337 
L 232.155124 229.557423 
L 232.409014 228.487823 
L 232.662904 229.634304 
L 233.170685 228.298948 
L 233.424575 228.649911 
L 233.678465 228.593849 
L 233.932356 229.853012 
L 234.186246 229.703148 
L 234.440136 228.268927 
L 234.694026 228.771206 
L 234.947917 228.494834 
L 235.201807 229.463472 
L 235.455697 229.170118 
L 235.709587 228.642506 
L 235.963478 229.215344 
L 236.217368 229.144957 
L 236.471258 229.570885 
L 236.725148 228.907227 
L 236.979039 229.141491 
L 237.232929 228.63272 
L 237.486819 229.114486 
L 237.740709 229.146023 
L 237.9946 228.706758 
L 238.24849 228.774434 
L 238.50238 228.556553 
L 238.75627 229.003367 
L 239.010161 229.002036 
L 239.264051 229.286362 
L 239.517941 229.795739 
L 239.771831 228.29196 
L 240.025722 229.042604 
L 240.279612 228.242056 
L 240.533502 229.58666 
L 241.041283 229.477496 
L 241.295173 229.592928 
L 241.549063 229.437061 
L 241.802954 230.126849 
L 242.056844 228.596625 
L 242.310734 228.729726 
L 242.564624 228.693699 
L 242.818515 229.179299 
L 243.072405 229.133578 
L 243.326295 229.459907 
L 243.580185 228.356836 
L 243.834076 228.666862 
L 244.087966 228.785858 
L 244.341856 228.648106 
L 244.595746 228.886486 
L 244.849637 228.359386 
L 245.103527 228.765329 
L 245.357417 228.70244 
L 245.611307 229.281312 
L 246.119088 229.151216 
L 246.372978 228.74887 
L 246.626868 229.474046 
L 246.880759 229.037206 
L 247.134649 229.258511 
L 247.388539 229.151256 
L 247.642429 229.341206 
L 247.89632 228.691622 
L 248.15021 227.413804 
L 248.4041 227.929287 
L 248.65799 229.337087 
L 249.165771 228.61244 
L 249.419661 227.586565 
L 249.673551 229.437362 
L 249.927442 228.710497 
L 250.181332 228.557948 
L 250.435222 228.945758 
L 250.689112 229.598042 
L 250.943003 229.050991 
L 251.196893 229.552577 
L 251.450783 227.779001 
L 251.704673 227.276277 
L 251.958564 228.621291 
L 252.212454 229.186239 
L 252.466344 229.106247 
L 252.720234 229.373745 
L 252.974125 229.356865 
L 253.228015 228.756253 
L 253.481905 229.099272 
L 253.735795 228.331783 
L 254.243576 229.961317 
L 254.497466 229.295734 
L 254.751356 229.615463 
L 255.005247 229.330888 
L 255.259137 228.432458 
L 255.513027 228.131291 
L 255.766917 229.499005 
L 256.020808 228.68631 
L 256.274698 228.448975 
L 256.528588 228.966501 
L 256.782479 228.884903 
L 257.036369 229.610425 
L 257.290259 229.308748 
L 257.544149 228.251892 
L 257.79804 229.161293 
L 258.05193 229.291159 
L 258.30582 229.149383 
L 258.55971 229.440933 
L 258.813601 229.368805 
L 259.067491 228.405142 
L 259.321381 228.351623 
L 259.575271 229.288157 
L 259.829162 228.782629 
L 260.083052 228.768942 
L 260.336942 229.693511 
L 260.844723 229.65424 
L 261.098613 228.681877 
L 261.352503 229.252304 
L 261.606393 229.126148 
L 261.860284 229.371078 
L 262.114174 229.261467 
L 262.368064 228.669854 
L 262.621954 228.880596 
L 262.875845 229.252815 
L 263.129735 229.329432 
L 263.383625 229.555086 
L 263.637515 228.797263 
L 263.891406 229.039222 
L 264.145296 228.37529 
L 264.399186 229.88416 
L 264.653076 228.095818 
L 265.160857 229.172697 
L 265.414747 228.876744 
L 265.668637 229.267436 
L 265.922528 228.087429 
L 266.176418 228.62319 
L 266.430308 228.264786 
L 266.938089 228.555424 
L 267.191979 229.195259 
L 267.445869 228.507091 
L 267.699759 228.514451 
L 267.95365 229.461461 
L 268.20754 228.731372 
L 268.969211 228.603733 
L 269.223101 229.273765 
L 269.476991 228.552689 
L 269.730881 228.935677 
L 269.984772 228.594691 
L 270.238662 229.12993 
L 270.492552 229.281786 
L 270.746442 228.592979 
L 271.000333 229.073138 
L 271.254223 229.039505 
L 271.508113 229.162923 
L 271.762003 228.912296 
L 272.015894 228.945982 
L 272.269784 228.492927 
L 272.523674 228.42003 
L 272.777564 229.095677 
L 273.031455 228.620566 
L 273.285345 228.939145 
L 273.539235 228.255757 
L 273.793126 228.531782 
L 274.300906 229.551821 
L 274.554796 229.997731 
L 274.808687 228.595462 
L 275.316467 229.525075 
L 275.824248 229.207267 
L 276.078138 229.603907 
L 276.332028 229.736108 
L 276.585918 228.645214 
L 276.839809 230.054971 
L 277.093699 228.534223 
L 277.347589 228.881061 
L 277.601479 228.788431 
L 277.85537 227.946291 
L 278.10926 229.593658 
L 278.36315 229.974841 
L 278.61704 228.790104 
L 278.870931 230.387304 
L 279.124821 228.833855 
L 279.378711 228.977368 
L 279.632601 228.673823 
L 279.886492 229.070374 
L 280.140382 228.561807 
L 280.394272 228.959341 
L 280.648162 228.707562 
L 280.902053 227.77816 
L 281.155943 229.852826 
L 281.409833 229.689692 
L 281.663723 228.802047 
L 281.917614 229.114945 
L 282.171504 227.564519 
L 282.425394 228.941773 
L 282.679284 229.334953 
L 282.933175 228.237198 
L 283.440955 230.325755 
L 283.694845 227.723619 
L 283.948736 229.13048 
L 284.202626 229.402739 
L 284.456516 228.298402 
L 284.710406 229.567198 
L 284.964297 229.281444 
L 285.218187 228.730504 
L 285.472077 229.306635 
L 285.725967 228.288268 
L 285.979858 229.950102 
L 286.233748 229.611666 
L 286.741528 228.18614 
L 287.249309 229.220936 
L 287.503199 229.491911 
L 287.757089 228.917124 
L 288.01098 228.846937 
L 288.26487 229.443014 
L 288.77265 228.435691 
L 289.026541 228.981182 
L 289.280431 229.096577 
L 289.534321 228.509582 
L 289.788212 229.153248 
L 290.042102 228.593701 
L 290.295992 229.341767 
L 290.549882 229.355487 
L 290.803773 228.865825 
L 291.057663 229.371925 
L 291.311553 228.97584 
L 291.565443 228.975977 
L 291.819334 229.408978 
L 292.073224 228.587511 
L 292.327114 229.060476 
L 292.581004 228.682128 
L 292.834895 229.287533 
L 293.088785 229.100606 
L 293.342675 228.356927 
L 293.596565 229.131821 
L 293.850456 228.983177 
L 294.104346 229.038355 
L 294.358236 228.489913 
L 294.612126 229.419724 
L 294.866017 228.815946 
L 295.119907 228.918564 
L 295.373797 229.548677 
L 295.627687 229.28284 
L 295.881578 228.202178 
L 296.135468 228.306614 
L 296.389358 228.839699 
L 296.897139 228.794642 
L 297.151029 228.320488 
L 297.404919 227.434581 
L 297.658809 229.498091 
L 298.16659 228.801877 
L 298.42048 228.238253 
L 298.928261 229.712521 
L 299.182151 229.198849 
L 299.436041 229.401946 
L 299.689931 229.221171 
L 299.943822 228.853678 
L 300.197712 228.182996 
L 300.451602 228.988959 
L 300.705492 228.742762 
L 300.959383 228.22946 
L 301.467163 229.840065 
L 301.721053 229.167368 
L 301.974944 229.840562 
L 302.482724 229.162352 
L 302.736614 229.141 
L 302.990505 228.83862 
L 303.244395 228.029243 
L 303.498285 228.258821 
L 303.752175 228.764759 
L 304.006066 229.56238 
L 304.259956 229.117158 
L 304.513846 229.028945 
L 304.767736 229.529803 
L 305.275517 229.264523 
L 305.529407 229.610943 
L 305.783298 229.44796 
L 306.037188 228.277972 
L 306.291078 229.405499 
L 306.544968 228.789727 
L 306.798859 227.567061 
L 307.052749 228.785396 
L 307.306639 228.368335 
L 307.560529 228.45212 
L 307.81442 229.271037 
L 308.06831 229.476854 
L 308.3222 229.226532 
L 308.57609 228.536375 
L 308.829981 229.374655 
L 309.083871 228.435325 
L 309.337761 228.920107 
L 309.591651 228.303383 
L 309.845542 228.422507 
L 310.099432 229.373734 
L 310.099432 229.373734 
" clip-path="url(#p556e7fec68)" style="fill: none; stroke: #0000ff; stroke-width: 0.6; stroke-linecap: square"/>
   </g>
   <g id="line2d_24">
    <path d="M 56.463068 177.740461 
L 56.716958 178.012869 
L 57.478629 178.173923 
L 59.255861 178.697751 
L 59.509751 179.081261 
L 60.017532 179.235976 
L 60.525312 180.234384 
L 61.033093 181.568854 
L 61.540873 184.171835 
L 61.794764 185.510198 
L 62.048654 185.730299 
L 62.302544 186.238129 
L 62.556434 187.729066 
L 62.810325 184.864813 
L 63.064215 188.932224 
L 63.571995 191.563337 
L 63.825886 190.967292 
L 64.079776 193.109418 
L 64.333666 193.058974 
L 64.587556 194.356188 
L 64.841447 194.55769 
L 65.095337 194.56139 
L 65.349227 194.215006 
L 65.603117 195.790418 
L 66.110898 192.326615 
L 66.364788 192.568542 
L 66.618678 189.112439 
L 66.872569 194.962508 
L 67.380349 197.056031 
L 67.634239 196.117604 
L 67.88813 196.571017 
L 68.14202 197.99243 
L 68.39591 197.830709 
L 68.6498 198.474272 
L 68.903691 176.932508 
L 69.157581 197.453658 
L 69.411471 196.338444 
L 69.919252 197.264017 
L 70.173142 197.44085 
L 70.427032 196.291554 
L 70.680922 183.700223 
L 70.934813 199.508392 
L 71.188703 194.941777 
L 71.442593 198.763911 
L 71.696483 198.538668 
L 71.950374 199.974494 
L 72.204264 197.24422 
L 72.458154 197.500108 
L 72.712044 191.649625 
L 72.965935 189.135851 
L 73.219825 199.811501 
L 73.473715 197.684287 
L 73.727605 198.599998 
L 73.981496 197.287454 
L 74.235386 200.937044 
L 74.489276 202.20904 
L 74.743166 202.120125 
L 74.997057 195.231934 
L 75.250947 197.757477 
L 75.504837 198.815817 
L 75.758727 193.596359 
L 76.012618 199.308692 
L 76.266508 199.845933 
L 76.520398 195.762895 
L 76.774288 199.978814 
L 77.028179 191.415356 
L 77.282069 201.897524 
L 77.535959 198.866179 
L 77.78985 197.843121 
L 78.04374 190.663803 
L 78.29763 202.727091 
L 78.55152 185.047684 
L 79.059301 202.325012 
L 79.313191 196.254956 
L 79.567081 199.226469 
L 79.820972 190.572383 
L 80.074862 194.418676 
L 80.328752 202.924801 
L 80.582642 196.815245 
L 80.836533 194.241413 
L 81.090423 195.351764 
L 81.344313 200.258679 
L 81.598203 198.845949 
L 81.852094 199.44384 
L 82.105984 192.874819 
L 82.359874 201.040728 
L 82.613764 199.850665 
L 82.867655 196.114485 
L 83.121545 161.570903 
L 83.375435 190.83235 
L 83.629325 195.088578 
L 83.883216 192.73146 
L 84.137106 193.20097 
L 84.390996 196.857263 
L 84.644886 181.032805 
L 84.898777 196.973045 
L 85.152667 198.325918 
L 85.406557 193.980905 
L 85.660447 193.195234 
L 85.914338 199.005439 
L 86.168228 197.136612 
L 86.422118 197.357613 
L 86.676008 193.395095 
L 86.929899 194.183617 
L 87.183789 195.477904 
L 87.437679 120.946308 
L 87.691569 189.461414 
L 87.94546 191.812075 
L 88.19935 192.300678 
L 88.45324 185.418164 
L 88.70713 188.692302 
L 88.961021 183.241494 
L 89.214911 193.500941 
L 89.468801 195.095944 
L 89.722691 191.026061 
L 89.976582 189.968962 
L 90.230472 128.998243 
L 90.484362 190.397404 
L 90.738252 46.498909 
L 90.992143 169.117547 
L 91.246033 183.982528 
L 91.499923 186.935437 
L 91.753813 182.258295 
L 92.007704 182.630191 
L 92.261594 183.789887 
L 92.515484 194.349882 
L 92.769374 189.996291 
L 93.023265 195.99341 
L 93.277155 195.979906 
L 93.531045 195.215061 
L 93.784936 191.391486 
L 94.038826 160.781969 
L 94.292716 196.198943 
L 94.546606 190.380939 
L 94.800497 194.050811 
L 95.054387 192.862071 
L 95.308277 196.165786 
L 95.562167 192.14208 
L 95.816058 195.350029 
L 96.069948 195.120806 
L 96.323838 186.682846 
L 96.577728 193.27888 
L 96.831619 194.100745 
L 97.085509 192.042958 
L 97.339399 192.193936 
L 97.593289 193.134475 
L 97.84718 188.417928 
L 98.10107 194.634722 
L 98.35496 191.386679 
L 98.60885 192.38554 
L 98.862741 195.128968 
L 99.116631 192.472163 
L 99.370521 186.794745 
L 99.624411 194.402124 
L 99.878302 192.142995 
L 100.132192 193.736047 
L 100.386082 191.896057 
L 100.639972 183.88285 
L 100.893863 185.25892 
L 101.147753 189.119829 
L 101.401643 191.128001 
L 101.655533 194.633824 
L 101.909424 108.668885 
L 102.163314 193.73077 
L 102.417204 191.828681 
L 102.671094 194.503307 
L 102.924985 194.286396 
L 103.178875 190.252104 
L 103.432765 192.445666 
L 103.686655 193.56723 
L 103.940546 194.048923 
L 104.194436 193.644375 
L 104.448326 191.732453 
L 104.702216 184.993751 
L 104.956107 174.886187 
L 105.463887 191.764745 
L 105.717777 184.968928 
L 105.971668 195.148646 
L 106.225558 194.755079 
L 106.987229 191.115701 
L 107.241119 192.266625 
L 107.495009 187.906054 
L 107.748899 192.510892 
L 108.00279 189.327898 
L 108.25668 191.999748 
L 108.51057 191.792609 
L 108.76446 191.124036 
L 109.018351 189.369283 
L 109.272241 189.799564 
L 109.526131 179.459599 
L 109.780021 190.894024 
L 110.033912 190.143766 
L 110.287802 190.378414 
L 110.541692 186.801342 
L 110.795583 191.695033 
L 111.049473 190.891251 
L 111.303363 182.891011 
L 111.557253 183.596342 
L 111.811144 189.596857 
L 112.065034 188.481558 
L 112.318924 189.775431 
L 112.572814 188.968909 
L 112.826705 185.381834 
L 113.080595 190.20724 
L 113.334485 184.075126 
L 113.588375 185.093195 
L 113.842266 188.047491 
L 114.096156 189.694636 
L 114.350046 188.514379 
L 114.603936 184.373068 
L 114.857827 188.066749 
L 115.111717 185.994096 
L 115.619497 175.221709 
L 115.873388 186.063111 
L 116.127278 186.351196 
L 116.381168 187.752697 
L 116.635058 186.247101 
L 116.888949 186.917348 
L 117.142839 186.424975 
L 117.396729 186.481851 
L 117.90451 185.641719 
L 118.1584 186.025137 
L 118.41229 181.340619 
L 118.66618 186.689594 
L 118.920071 186.339811 
L 119.427851 183.501452 
L 119.681741 186.489904 
L 119.935632 186.49149 
L 120.189522 185.388121 
L 120.443412 183.767151 
L 120.697302 184.811124 
L 120.951193 183.832153 
L 121.205083 184.270778 
L 121.458973 185.04042 
L 121.712863 183.235432 
L 122.220644 186.129621 
L 122.474534 186.041134 
L 122.982315 184.905396 
L 123.236205 185.012191 
L 123.490095 184.151152 
L 123.743985 183.899135 
L 123.997876 183.899349 
L 124.505656 185.494716 
L 124.759546 183.564143 
L 125.013437 184.168838 
L 125.267327 183.382654 
L 125.521217 183.816837 
L 125.775107 183.0237 
L 126.028998 183.875051 
L 126.282888 182.572916 
L 126.536778 182.890461 
L 126.790669 183.966496 
L 127.044559 183.431687 
L 127.298449 182.526223 
L 127.552339 182.781228 
L 127.80623 184.21974 
L 128.06012 182.266781 
L 128.31401 184.361347 
L 128.821791 183.28934 
L 129.075681 183.27524 
L 129.329571 183.074791 
L 129.837352 183.762699 
L 130.345132 182.254544 
L 130.599022 181.993506 
L 131.106803 183.468776 
L 131.360693 183.725479 
L 131.614583 184.185147 
L 131.868474 184.24215 
L 132.122364 183.93273 
L 132.376254 184.007784 
L 132.630144 183.485007 
L 132.884035 183.310675 
L 133.137925 184.151021 
L 133.645705 182.442747 
L 133.899596 182.513655 
L 134.153486 181.730604 
L 134.407376 183.751485 
L 134.661266 183.746639 
L 134.915157 183.30707 
L 135.422937 181.767187 
L 135.676827 182.412017 
L 135.930718 181.237901 
L 136.184608 181.660518 
L 136.692388 180.613899 
L 136.946279 180.830035 
L 137.200169 180.416559 
L 137.707949 181.222385 
L 137.96184 181.042122 
L 138.21573 181.275383 
L 138.46962 181.739036 
L 138.72351 181.552093 
L 138.977401 180.880099 
L 139.231291 180.769222 
L 139.485181 181.498287 
L 139.992962 180.265897 
L 140.246852 179.949116 
L 140.500742 179.0578 
L 140.754632 178.929101 
L 141.008523 179.675267 
L 141.262413 179.971122 
L 141.516303 181.112339 
L 142.024084 180.521296 
L 142.277974 180.372702 
L 142.531864 181.082485 
L 142.785755 180.517156 
L 143.039645 181.022602 
L 143.293535 180.401228 
L 143.801316 180.48322 
L 144.055206 180.216036 
L 144.309096 180.803236 
L 144.816877 181.034099 
L 145.070767 180.70657 
L 145.324657 180.957926 
L 146.340218 180.399934 
L 146.594108 180.388471 
L 146.847999 180.128167 
L 147.355779 180.106974 
L 147.609669 179.899372 
L 148.11745 179.911881 
L 148.37134 179.456183 
L 148.879121 179.159005 
L 149.133011 179.145387 
L 149.386901 179.59964 
L 150.148572 179.442774 
L 150.402462 179.522927 
L 150.656352 179.168254 
L 150.910243 179.017091 
L 151.671913 179.984847 
L 152.179694 180.105529 
L 152.433584 180.103403 
L 152.687474 179.732888 
L 152.941365 179.871669 
L 153.195255 179.701745 
L 153.449145 179.799028 
L 153.703035 179.650541 
L 153.956926 179.198381 
L 154.210816 178.50386 
L 154.464706 179.044712 
L 154.718596 178.925515 
L 154.972487 178.630993 
L 155.480267 178.837573 
L 155.734157 178.070967 
L 156.241938 178.649915 
L 157.257499 178.782205 
L 157.765279 178.607956 
L 158.27306 179.015233 
L 159.034731 178.603922 
L 159.796402 178.839748 
L 160.050292 179.042275 
L 160.558072 178.624396 
L 161.065853 178.739389 
L 161.319743 178.637235 
L 161.573633 178.664 
L 162.081414 178.879308 
L 162.335304 178.966983 
L 163.350865 178.532805 
L 163.604755 178.834595 
L 165.381987 178.610237 
L 165.635877 178.875251 
L 167.413109 178.814793 
L 167.92089 178.584456 
L 168.68256 178.719923 
L 168.936451 178.575932 
L 169.190341 178.635805 
L 169.952012 178.514764 
L 170.205902 178.526183 
L 170.713682 178.274063 
L 171.221463 178.561321 
L 171.475353 178.450784 
L 171.729243 178.174011 
L 171.983134 178.280257 
L 172.237024 178.138859 
L 172.490914 178.136937 
L 172.744804 178.290537 
L 173.506475 178.230761 
L 173.760365 178.160106 
L 174.522036 178.507743 
L 175.029817 178.1276 
L 175.283707 178.419543 
L 175.791488 178.18633 
L 176.045378 178.147076 
L 176.299268 177.979395 
L 177.060939 178.029728 
L 177.314829 177.857274 
L 178.33039 178.133692 
L 179.599841 177.924956 
L 180.107622 177.970394 
L 181.123183 177.916184 
L 183.408195 178.174673 
L 183.915976 178.240555 
L 184.677646 178.147884 
L 185.439317 178.044261 
L 186.708768 178.026166 
L 187.724329 177.999144 
L 188.23211 177.930479 
L 191.024903 177.910711 
L 192.040464 177.995266 
L 192.548244 177.925954 
L 193.309915 178.041249 
L 195.341037 178.054648 
L 197.372159 178.039186 
L 203.465525 177.910959 
L 204.734976 177.960182 
L 209.305001 177.91 
L 233.424575 177.768748 
L 263.129735 177.73326 
L 275.824248 177.746756 
L 310.099432 177.721252 
L 310.099432 177.721252 
" clip-path="url(#p556e7fec68)" style="fill: none; stroke: #ff0000; stroke-width: 0.6; stroke-linecap: square"/>
   </g>
   <g id="patch_3">
    <path d="M 43.78125 239.76 
L 43.78125 37.296 
" style="fill: none; stroke: #000000; stroke-width: 0.8; stroke-linejoin: miter; stroke-linecap: square"/>
   </g>
   <g id="patch_4">
    <path d="M 322.78125 239.76 
L 322.78125 37.296 
" style="fill: none; stroke: #000000; stroke-width: 0.8; stroke-linejoin: miter; stroke-linecap: square"/>
   </g>
   <g id="patch_5">
    <path d="M 43.78125 239.76 
L 322.78125 239.76 
" style="fill: none; stroke: #000000; stroke-width: 0.8; stroke-linejoin: miter; stroke-linecap: square"/>
   </g>
   <g id="patch_6">
    <path d="M 43.78125 37.296 
L 322.78125 37.296 
" style="fill: none; stroke: #000000; stroke-width: 0.8; stroke-linejoin: miter; stroke-linecap: square"/>
   </g>
   <g id="text_14">
    <!-- Baseline Model -->
    <g transform="translate(149.259844 31.296) scale(0.09 -0.09)">
     <defs>
      <path id="DejaVuSans-42" d="M 1259 2228 
L 1259 519 
L 2272 519 
Q 2781 519 3026 730 
Q 3272 941 3272 1375 
Q 3272 1813 3026 2020 
Q 2781 2228 2272 2228 
L 1259 2228 
z
M 1259 4147 
L 1259 2741 
L 2194 2741 
Q 2656 2741 2882 2914 
Q 3109 3088 3109 3444 
Q 3109 3797 2882 3972 
Q 2656 4147 2194 4147 
L 1259 4147 
z
M 628 4666 
L 2241 4666 
Q 2963 4666 3353 4366 
Q 3744 4066 3744 3513 
Q 3744 3084 3544 2831 
Q 3344 2578 2956 2516 
Q 3422 2416 3680 2098 
Q 3938 1781 3938 1306 
Q 3938 681 3513 340 
Q 3088 0 2303 0 
L 628 0 
L 628 4666 
z
" transform="scale(0.015625)"/>
      <path id="DejaVuSans-61" d="M 2194 1759 
Q 1497 1759 1228 1600 
Q 959 1441 959 1056 
Q 959 750 1161 570 
Q 1363 391 1709 391 
Q 2188 391 2477 730 
Q 2766 1069 2766 1631 
L 2766 1759 
L 2194 1759 
z
M 3341 1997 
L 3341 0 
L 2766 0 
L 2766 531 
Q 2569 213 2275 61 
Q 1981 -91 1556 -91 
Q 1019 -91 701 211 
Q 384 513 384 1019 
Q 384 1609 779 1909 
Q 1175 2209 1959 2209 
L 2766 2209 
L 2766 2266 
Q 2766 2663 2505 2880 
Q 2244 3097 1772 3097 
Q 1472 3097 1187 3025 
Q 903 2953 641 2809 
L 641 3341 
Q 956 3463 1253 3523 
Q 1550 3584 1831 3584 
Q 2591 3584 2966 3190 
Q 3341 2797 3341 1997 
z
" transform="scale(0.015625)"/>
      <path id="DejaVuSans-65" d="M 3597 1894 
L 3597 1613 
L 953 1613 
Q 991 1019 1311 708 
Q 1631 397 2203 397 
Q 2534 397 2845 478 
Q 3156 559 3463 722 
L 3463 178 
Q 3153 47 2828 -22 
Q 2503 -91 2169 -91 
Q 1331 -91 842 396 
Q 353 884 353 1716 
Q 353 2575 817 3079 
Q 1281 3584 2069 3584 
Q 2775 3584 3186 3129 
Q 3597 2675 3597 1894 
z
M 3022 2063 
Q 3016 2534 2758 2815 
Q 2500 3097 2075 3097 
Q 1594 3097 1305 2825 
Q 1016 2553 972 2059 
L 3022 2063 
z
" transform="scale(0.015625)"/>
      <path id="DejaVuSans-6c" d="M 603 4863 
L 1178 4863 
L 1178 0 
L 603 0 
L 603 4863 
z
" transform="scale(0.015625)"/>
      <path id="DejaVuSans-69" d="M 603 3500 
L 1178 3500 
L 1178 0 
L 603 0 
L 603 3500 
z
M 603 4863 
L 1178 4863 
L 1178 4134 
L 603 4134 
L 603 4863 
z
" transform="scale(0.015625)"/>
      <path id="DejaVuSans-6e" d="M 3513 2113 
L 3513 0 
L 2938 0 
L 2938 2094 
Q 2938 2591 2744 2837 
Q 2550 3084 2163 3084 
Q 1697 3084 1428 2787 
Q 1159 2491 1159 1978 
L 1159 0 
L 581 0 
L 581 3500 
L 1159 3500 
L 1159 2956 
Q 1366 3272 1645 3428 
Q 1925 3584 2291 3584 
Q 2894 3584 3203 3211 
Q 3513 2838 3513 2113 
z
" transform="scale(0.015625)"/>
      <path id="DejaVuSans-20" transform="scale(0.015625)"/>
      <path id="DejaVuSans-4d" d="M 628 4666 
L 1569 4666 
L 2759 1491 
L 3956 4666 
L 4897 4666 
L 4897 0 
L 4281 0 
L 4281 4097 
L 3078 897 
L 2444 897 
L 1241 4097 
L 1241 0 
L 628 0 
L 628 4666 
z
" transform="scale(0.015625)"/>
      <path id="DejaVuSans-64" d="M 2906 2969 
L 2906 4863 
L 3481 4863 
L 3481 0 
L 2906 0 
L 2906 525 
Q 2725 213 2448 61 
Q 2172 -91 1784 -91 
Q 1150 -91 751 415 
Q 353 922 353 1747 
Q 353 2572 751 3078 
Q 1150 3584 1784 3584 
Q 2172 3584 2448 3432 
Q 2725 3281 2906 2969 
z
M 947 1747 
Q 947 1113 1208 752 
Q 1469 391 1925 391 
Q 2381 391 2643 752 
Q 2906 1113 2906 1747 
Q 2906 2381 2643 2742 
Q 2381 3103 1925 3103 
Q 1469 3103 1208 2742 
Q 947 2381 947 1747 
z
" transform="scale(0.015625)"/>
     </defs>
     <use xlink:href="#DejaVuSans-42"/>
     <use xlink:href="#DejaVuSans-61" x="68.603516"/>
     <use xlink:href="#DejaVuSans-73" x="129.882812"/>
     <use xlink:href="#DejaVuSans-65" x="181.982422"/>
     <use xlink:href="#DejaVuSans-6c" x="243.505859"/>
     <use xlink:href="#DejaVuSans-69" x="271.289062"/>
     <use xlink:href="#DejaVuSans-6e" x="299.072266"/>
     <use xlink:href="#DejaVuSans-65" x="362.451172"/>
     <use xlink:href="#DejaVuSans-20" x="423.974609"/>
     <use xlink:href="#DejaVuSans-4d" x="455.761719"/>
     <use xlink:href="#DejaVuSans-6f" x="542.041016"/>
     <use xlink:href="#DejaVuSans-64" x="603.222656"/>
     <use xlink:href="#DejaVuSans-65" x="666.699219"/>
     <use xlink:href="#DejaVuSans-6c" x="728.222656"/>
    </g>
   </g>
   <g id="legend_1">
    <g id="patch_7">
     <path d="M 209.2875 74.65225 
L 315.78125 74.65225 
Q 317.78125 74.65225 317.78125 72.65225 
L 317.78125 44.296 
Q 317.78125 42.296 315.78125 42.296 
L 209.2875 42.296 
Q 207.2875 42.296 207.2875 44.296 
L 207.2875 72.65225 
Q 207.2875 74.65225 209.2875 74.65225 
z
" style="fill: #ffffff; opacity: 0.8; stroke: #cccccc; stroke-linejoin: miter"/>
    </g>
    <g id="line2d_25">
     <path d="M 211.2875 50.394438 
L 221.2875 50.394438 
L 231.2875 50.394438 
" style="fill: none; stroke: #0000ff; stroke-width: 0.6; stroke-linecap: square"/>
    </g>
    <g id="text_15">
     <!-- Training Loss -->
     <g transform="translate(239.2875 53.894438) scale(0.1 -0.1)">
      <defs>
       <path id="DejaVuSans-54" d="M -19 4666 
L 3928 4666 
L 3928 4134 
L 2272 4134 
L 2272 0 
L 1638 0 
L 1638 4134 
L -19 4134 
L -19 4666 
z
" transform="scale(0.015625)"/>
       <path id="DejaVuSans-72" d="M 2631 2963 
Q 2534 3019 2420 3045 
Q 2306 3072 2169 3072 
Q 1681 3072 1420 2755 
Q 1159 2438 1159 1844 
L 1159 0 
L 581 0 
L 581 3500 
L 1159 3500 
L 1159 2956 
Q 1341 3275 1631 3429 
Q 1922 3584 2338 3584 
Q 2397 3584 2469 3576 
Q 2541 3569 2628 3553 
L 2631 2963 
z
" transform="scale(0.015625)"/>
       <path id="DejaVuSans-67" d="M 2906 1791 
Q 2906 2416 2648 2759 
Q 2391 3103 1925 3103 
Q 1463 3103 1205 2759 
Q 947 2416 947 1791 
Q 947 1169 1205 825 
Q 1463 481 1925 481 
Q 2391 481 2648 825 
Q 2906 1169 2906 1791 
z
M 3481 434 
Q 3481 -459 3084 -895 
Q 2688 -1331 1869 -1331 
Q 1566 -1331 1297 -1286 
Q 1028 -1241 775 -1147 
L 775 -588 
Q 1028 -725 1275 -790 
Q 1522 -856 1778 -856 
Q 2344 -856 2625 -561 
Q 2906 -266 2906 331 
L 2906 616 
Q 2728 306 2450 153 
Q 2172 0 1784 0 
Q 1141 0 747 490 
Q 353 981 353 1791 
Q 353 2603 747 3093 
Q 1141 3584 1784 3584 
Q 2172 3584 2450 3431 
Q 2728 3278 2906 2969 
L 2906 3500 
L 3481 3500 
L 3481 434 
z
" transform="scale(0.015625)"/>
      </defs>
      <use xlink:href="#DejaVuSans-54"/>
      <use xlink:href="#DejaVuSans-72" x="46.333984"/>
      <use xlink:href="#DejaVuSans-61" x="87.447266"/>
      <use xlink:href="#DejaVuSans-69" x="148.726562"/>
      <use xlink:href="#DejaVuSans-6e" x="176.509766"/>
      <use xlink:href="#DejaVuSans-69" x="239.888672"/>
      <use xlink:href="#DejaVuSans-6e" x="267.671875"/>
      <use xlink:href="#DejaVuSans-67" x="331.050781"/>
      <use xlink:href="#DejaVuSans-20" x="394.527344"/>
      <use xlink:href="#DejaVuSans-4c" x="426.314453"/>
      <use xlink:href="#DejaVuSans-6f" x="480.277344"/>
      <use xlink:href="#DejaVuSans-73" x="541.458984"/>
      <use xlink:href="#DejaVuSans-73" x="593.558594"/>
     </g>
    </g>
    <g id="line2d_26">
     <path d="M 211.2875 65.072563 
L 221.2875 65.072563 
L 231.2875 65.072563 
" style="fill: none; stroke: #ff0000; stroke-width: 0.6; stroke-linecap: square"/>
    </g>
    <g id="text_16">
     <!-- Validation Loss -->
     <g transform="translate(239.2875 68.572563) scale(0.1 -0.1)">
      <defs>
       <path id="DejaVuSans-56" d="M 1831 0 
L 50 4666 
L 709 4666 
L 2188 738 
L 3669 4666 
L 4325 4666 
L 2547 0 
L 1831 0 
z
" transform="scale(0.015625)"/>
       <path id="DejaVuSans-74" d="M 1172 4494 
L 1172 3500 
L 2356 3500 
L 2356 3053 
L 1172 3053 
L 1172 1153 
Q 1172 725 1289 603 
Q 1406 481 1766 481 
L 2356 481 
L 2356 0 
L 1766 0 
Q 1100 0 847 248 
Q 594 497 594 1153 
L 594 3053 
L 172 3053 
L 172 3500 
L 594 3500 
L 594 4494 
L 1172 4494 
z
" transform="scale(0.015625)"/>
      </defs>
      <use xlink:href="#DejaVuSans-56"/>
      <use xlink:href="#DejaVuSans-61" x="60.658203"/>
      <use xlink:href="#DejaVuSans-6c" x="121.9375"/>
      <use xlink:href="#DejaVuSans-69" x="149.720703"/>
      <use xlink:href="#DejaVuSans-64" x="177.503906"/>
      <use xlink:href="#DejaVuSans-61" x="240.980469"/>
      <use xlink:href="#DejaVuSans-74" x="302.259766"/>
      <use xlink:href="#DejaVuSans-69" x="341.46875"/>
      <use xlink:href="#DejaVuSans-6f" x="369.251953"/>
      <use xlink:href="#DejaVuSans-6e" x="430.433594"/>
      <use xlink:href="#DejaVuSans-20" x="493.8125"/>
      <use xlink:href="#DejaVuSans-4c" x="525.599609"/>
      <use xlink:href="#DejaVuSans-6f" x="579.5625"/>
      <use xlink:href="#DejaVuSans-73" x="640.744141"/>
      <use xlink:href="#DejaVuSans-73" x="692.84375"/>
     </g>
    </g>
   </g>
  </g>
  <g id="text_17">
   <!-- Training VS. Validation Loss - Dataset Size = 20.0% -->
   <g transform="translate(37.980391 15.558281) scale(0.11 -0.11)">
    <defs>
     <path id="DejaVuSans-53" d="M 3425 4513 
L 3425 3897 
Q 3066 4069 2747 4153 
Q 2428 4238 2131 4238 
Q 1616 4238 1336 4038 
Q 1056 3838 1056 3469 
Q 1056 3159 1242 3001 
Q 1428 2844 1947 2747 
L 2328 2669 
Q 3034 2534 3370 2195 
Q 3706 1856 3706 1288 
Q 3706 609 3251 259 
Q 2797 -91 1919 -91 
Q 1588 -91 1214 -16 
Q 841 59 441 206 
L 441 856 
Q 825 641 1194 531 
Q 1563 422 1919 422 
Q 2459 422 2753 634 
Q 3047 847 3047 1241 
Q 3047 1584 2836 1778 
Q 2625 1972 2144 2069 
L 1759 2144 
Q 1053 2284 737 2584 
Q 422 2884 422 3419 
Q 422 4038 858 4394 
Q 1294 4750 2059 4750 
Q 2388 4750 2728 4690 
Q 3069 4631 3425 4513 
z
" transform="scale(0.015625)"/>
     <path id="DejaVuSans-2d" d="M 313 2009 
L 1997 2009 
L 1997 1497 
L 313 1497 
L 313 2009 
z
" transform="scale(0.015625)"/>
     <path id="DejaVuSans-44" d="M 1259 4147 
L 1259 519 
L 2022 519 
Q 2988 519 3436 956 
Q 3884 1394 3884 2338 
Q 3884 3275 3436 3711 
Q 2988 4147 2022 4147 
L 1259 4147 
z
M 628 4666 
L 1925 4666 
Q 3281 4666 3915 4102 
Q 4550 3538 4550 2338 
Q 4550 1131 3912 565 
Q 3275 0 1925 0 
L 628 0 
L 628 4666 
z
" transform="scale(0.015625)"/>
     <path id="DejaVuSans-7a" d="M 353 3500 
L 3084 3500 
L 3084 2975 
L 922 459 
L 3084 459 
L 3084 0 
L 275 0 
L 275 525 
L 2438 3041 
L 353 3041 
L 353 3500 
z
" transform="scale(0.015625)"/>
     <path id="DejaVuSans-3d" d="M 678 2906 
L 4684 2906 
L 4684 2381 
L 678 2381 
L 678 2906 
z
M 678 1631 
L 4684 1631 
L 4684 1100 
L 678 1100 
L 678 1631 
z
" transform="scale(0.015625)"/>
     <path id="DejaVuSans-25" d="M 4653 2053 
Q 4381 2053 4226 1822 
Q 4072 1591 4072 1178 
Q 4072 772 4226 539 
Q 4381 306 4653 306 
Q 4919 306 5073 539 
Q 5228 772 5228 1178 
Q 5228 1588 5073 1820 
Q 4919 2053 4653 2053 
z
M 4653 2450 
Q 5147 2450 5437 2106 
Q 5728 1763 5728 1178 
Q 5728 594 5436 251 
Q 5144 -91 4653 -91 
Q 4153 -91 3862 251 
Q 3572 594 3572 1178 
Q 3572 1766 3864 2108 
Q 4156 2450 4653 2450 
z
M 1428 4353 
Q 1159 4353 1004 4120 
Q 850 3888 850 3481 
Q 850 3069 1003 2837 
Q 1156 2606 1428 2606 
Q 1700 2606 1854 2837 
Q 2009 3069 2009 3481 
Q 2009 3884 1853 4118 
Q 1697 4353 1428 4353 
z
M 4250 4750 
L 4750 4750 
L 1831 -91 
L 1331 -91 
L 4250 4750 
z
M 1428 4750 
Q 1922 4750 2215 4408 
Q 2509 4066 2509 3481 
Q 2509 2891 2217 2550 
Q 1925 2209 1428 2209 
Q 931 2209 642 2551 
Q 353 2894 353 3481 
Q 353 4063 643 4406 
Q 934 4750 1428 4750 
z
" transform="scale(0.015625)"/>
    </defs>
    <use xlink:href="#DejaVuSans-54"/>
    <use xlink:href="#DejaVuSans-72" x="46.333984"/>
    <use xlink:href="#DejaVuSans-61" x="87.447266"/>
    <use xlink:href="#DejaVuSans-69" x="148.726562"/>
    <use xlink:href="#DejaVuSans-6e" x="176.509766"/>
    <use xlink:href="#DejaVuSans-69" x="239.888672"/>
    <use xlink:href="#DejaVuSans-6e" x="267.671875"/>
    <use xlink:href="#DejaVuSans-67" x="331.050781"/>
    <use xlink:href="#DejaVuSans-20" x="394.527344"/>
    <use xlink:href="#DejaVuSans-56" x="426.314453"/>
    <use xlink:href="#DejaVuSans-53" x="494.722656"/>
    <use xlink:href="#DejaVuSans-2e" x="558.199219"/>
    <use xlink:href="#DejaVuSans-20" x="589.986328"/>
    <use xlink:href="#DejaVuSans-56" x="621.773438"/>
    <use xlink:href="#DejaVuSans-61" x="682.431641"/>
    <use xlink:href="#DejaVuSans-6c" x="743.710938"/>
    <use xlink:href="#DejaVuSans-69" x="771.494141"/>
    <use xlink:href="#DejaVuSans-64" x="799.277344"/>
    <use xlink:href="#DejaVuSans-61" x="862.753906"/>
    <use xlink:href="#DejaVuSans-74" x="924.033203"/>
    <use xlink:href="#DejaVuSans-69" x="963.242188"/>
    <use xlink:href="#DejaVuSans-6f" x="991.025391"/>
    <use xlink:href="#DejaVuSans-6e" x="1052.207031"/>
    <use xlink:href="#DejaVuSans-20" x="1115.585938"/>
    <use xlink:href="#DejaVuSans-4c" x="1147.373047"/>
    <use xlink:href="#DejaVuSans-6f" x="1201.335938"/>
    <use xlink:href="#DejaVuSans-73" x="1262.517578"/>
    <use xlink:href="#DejaVuSans-73" x="1314.617188"/>
    <use xlink:href="#DejaVuSans-20" x="1366.716797"/>
    <use xlink:href="#DejaVuSans-2d" x="1398.503906"/>
    <use xlink:href="#DejaVuSans-20" x="1434.587891"/>
    <use xlink:href="#DejaVuSans-44" x="1466.375"/>
    <use xlink:href="#DejaVuSans-61" x="1543.376953"/>
    <use xlink:href="#DejaVuSans-74" x="1604.65625"/>
    <use xlink:href="#DejaVuSans-61" x="1643.865234"/>
    <use xlink:href="#DejaVuSans-73" x="1705.144531"/>
    <use xlink:href="#DejaVuSans-65" x="1757.244141"/>
    <use xlink:href="#DejaVuSans-74" x="1818.767578"/>
    <use xlink:href="#DejaVuSans-20" x="1857.976562"/>
    <use xlink:href="#DejaVuSans-53" x="1889.763672"/>
    <use xlink:href="#DejaVuSans-69" x="1953.240234"/>
    <use xlink:href="#DejaVuSans-7a" x="1981.023438"/>
    <use xlink:href="#DejaVuSans-65" x="2033.513672"/>
    <use xlink:href="#DejaVuSans-20" x="2095.037109"/>
    <use xlink:href="#DejaVuSans-3d" x="2126.824219"/>
    <use xlink:href="#DejaVuSans-20" x="2210.613281"/>
    <use xlink:href="#DejaVuSans-32" x="2242.400391"/>
    <use xlink:href="#DejaVuSans-30" x="2306.023438"/>
    <use xlink:href="#DejaVuSans-2e" x="2369.646484"/>
    <use xlink:href="#DejaVuSans-30" x="2401.433594"/>
    <use xlink:href="#DejaVuSans-25" x="2465.056641"/>
   </g>
  </g>
 </g>
 <defs>
  <clipPath id="p556e7fec68">
   <rect x="43.78125" y="37.296" width="279" height="202.464"/>
  </clipPath>
 </defs>
</svg>
