<?xml version="1.0" encoding="utf-8" standalone="no"?>
<!DOCTYPE svg PUBLIC "-//W3C//DTD SVG 1.1//EN"
  "http://www.w3.org/Graphics/SVG/1.1/DTD/svg11.dtd">
<svg xmlns:xlink="http://www.w3.org/1999/xlink" width="330.281484pt" height="277.31625pt" viewBox="0 0 330.281484 277.31625" xmlns="http://www.w3.org/2000/svg" version="1.1">
 <metadata>
  <rdf:RDF xmlns:dc="http://purl.org/dc/elements/1.1/" xmlns:cc="http://creativecommons.org/ns#" xmlns:rdf="http://www.w3.org/1999/02/22-rdf-syntax-ns#">
   <cc:Work>
    <dc:type rdf:resource="http://purl.org/dc/dcmitype/StillImage"/>
    <dc:date>2026-06-11T12:14:58.012403</dc:date>
    <dc:format>image/svg+xml</dc:format>
    <dc:creator>
     <cc:Agent>
      <dc:title>Matplotlib v3.8.4, https://matplotlib.org/</dc:title>
     </cc:Agent>
    </dc:creator>
   </cc:Work>
  </rdf:RDF>
 </metadata>
 <defs>
  <style type="text/css">*{stroke-linejoin: round; stroke-linecap: butt}</style>
 </defs>
 <g id="figure_1">
  <g id="patch_1">
   <path d="M 0 277.31625 
L 330.281484 277.31625 
L 330.281484 0 
L 0 0 
z
" style="fill: #ffffff"/>
  </g>
  <g id="axes_1">
   <g id="patch_2">
    <path d="M 43.78125 239.76 
L 322.78125 239.76 
L 322.78125 37.296 
L 43.78125 37.296 
z
" style="fill: #ffffff"/>
   </g>
   <g id="matplotlib.axis_1">
    <g id="xtick_1">
     <g id="line2d_1">
      <path d="M 56.209178 239.76 
L 56.209178 37.296 
" clip-path="url(#p877ee47c90)" style="fill: none; stroke-dasharray: 2.96,1.28; stroke-dashoffset: 0; stroke: #b0b0b0; stroke-opacity: 0.4; stroke-width: 0.8"/>
     </g>
     <g id="line2d_2">
      <defs>
       <path id="mca608375c3" d="M 0 0 
L 0 3.5 
" style="stroke: #000000; stroke-width: 0.8"/>
      </defs>
      <g>
       <use xlink:href="#mca608375c3" x="56.209178" y="239.76" style="stroke: #000000; stroke-width: 0.8"/>
      </g>
     </g>
     <g id="text_1">
      <!-- 0 -->
      <g transform="translate(53.027928 254.358437) scale(0.1 -0.1)">
       <defs>
        <path id="DejaVuSans-30" d="M 2034 4250 
Q 1547 4250 1301 3770 
Q 1056 3291 1056 2328 
Q 1056 1369 1301 889 
Q 1547 409 2034 409 
Q 2525 409 2770 889 
Q 3016 1369 3016 2328 
Q 3016 3291 2770 3770 
Q 2525 4250 2034 4250 
z
M 2034 4750 
Q 2819 4750 3233 4129 
Q 3647 3509 3647 2328 
Q 3647 1150 3233 529 
Q 2819 -91 2034 -91 
Q 1250 -91 836 529 
Q 422 1150 422 2328 
Q 422 3509 836 4129 
Q 1250 4750 2034 4750 
z
" transform="scale(0.015625)"/>
       </defs>
       <use xlink:href="#DejaVuSans-30"/>
      </g>
     </g>
    </g>
    <g id="xtick_2">
     <g id="line2d_3">
      <path d="M 106.987229 239.76 
L 106.987229 37.296 
" clip-path="url(#p877ee47c90)" style="fill: none; stroke-dasharray: 2.96,1.28; stroke-dashoffset: 0; stroke: #b0b0b0; stroke-opacity: 0.4; stroke-width: 0.8"/>
     </g>
     <g id="line2d_4">
      <g>
       <use xlink:href="#mca608375c3" x="106.987229" y="239.76" style="stroke: #000000; stroke-width: 0.8"/>
      </g>
     </g>
     <g id="text_2">
      <!-- 200 -->
      <g transform="translate(97.443479 254.358437) scale(0.1 -0.1)">
       <defs>
        <path id="DejaVuSans-32" d="M 1228 531 
L 3431 531 
L 3431 0 
L 469 0 
L 469 531 
Q 828 903 1448 1529 
Q 2069 2156 2228 2338 
Q 2531 2678 2651 2914 
Q 2772 3150 2772 3378 
Q 2772 3750 2511 3984 
Q 2250 4219 1831 4219 
Q 1534 4219 1204 4116 
Q 875 4013 500 3803 
L 500 4441 
Q 881 4594 1212 4672 
Q 1544 4750 1819 4750 
Q 2544 4750 2975 4387 
Q 3406 4025 3406 3419 
Q 3406 3131 3298 2873 
Q 3191 2616 2906 2266 
Q 2828 2175 2409 1742 
Q 1991 1309 1228 531 
z
" transform="scale(0.015625)"/>
       </defs>
       <use xlink:href="#DejaVuSans-32"/>
       <use xlink:href="#DejaVuSans-30" x="63.623047"/>
       <use xlink:href="#DejaVuSans-30" x="127.246094"/>
      </g>
     </g>
    </g>
    <g id="xtick_3">
     <g id="line2d_5">
      <path d="M 157.765279 239.76 
L 157.765279 37.296 
" clip-path="url(#p877ee47c90)" style="fill: none; stroke-dasharray: 2.96,1.28; stroke-dashoffset: 0; stroke: #b0b0b0; stroke-opacity: 0.4; stroke-width: 0.8"/>
     </g>
     <g id="line2d_6">
      <g>
       <use xlink:href="#mca608375c3" x="157.765279" y="239.76" style="stroke: #000000; stroke-width: 0.8"/>
      </g>
     </g>
     <g id="text_3">
      <!-- 400 -->
      <g transform="translate(148.221529 254.358437) scale(0.1 -0.1)">
       <defs>
        <path id="DejaVuSans-34" d="M 2419 4116 
L 825 1625 
L 2419 1625 
L 2419 4116 
z
M 2253 4666 
L 3047 4666 
L 3047 1625 
L 3713 1625 
L 3713 1100 
L 3047 1100 
L 3047 0 
L 2419 0 
L 2419 1100 
L 313 1100 
L 313 1709 
L 2253 4666 
z
" transform="scale(0.015625)"/>
       </defs>
       <use xlink:href="#DejaVuSans-34"/>
       <use xlink:href="#DejaVuSans-30" x="63.623047"/>
       <use xlink:href="#DejaVuSans-30" x="127.246094"/>
      </g>
     </g>
    </g>
    <g id="xtick_4">
     <g id="line2d_7">
      <path d="M 208.54333 239.76 
L 208.54333 37.296 
" clip-path="url(#p877ee47c90)" style="fill: none; stroke-dasharray: 2.96,1.28; stroke-dashoffset: 0; stroke: #b0b0b0; stroke-opacity: 0.4; stroke-width: 0.8"/>
     </g>
     <g id="line2d_8">
      <g>
       <use xlink:href="#mca608375c3" x="208.54333" y="239.76" style="stroke: #000000; stroke-width: 0.8"/>
      </g>
     </g>
     <g id="text_4">
      <!-- 600 -->
      <g transform="translate(198.99958 254.358437) scale(0.1 -0.1)">
       <defs>
        <path id="DejaVuSans-36" d="M 2113 2584 
Q 1688 2584 1439 2293 
Q 1191 2003 1191 1497 
Q 1191 994 1439 701 
Q 1688 409 2113 409 
Q 2538 409 2786 701 
Q 3034 994 3034 1497 
Q 3034 2003 2786 2293 
Q 2538 2584 2113 2584 
z
M 3366 4563 
L 3366 3988 
Q 3128 4100 2886 4159 
Q 2644 4219 2406 4219 
Q 1781 4219 1451 3797 
Q 1122 3375 1075 2522 
Q 1259 2794 1537 2939 
Q 1816 3084 2150 3084 
Q 2853 3084 3261 2657 
Q 3669 2231 3669 1497 
Q 3669 778 3244 343 
Q 2819 -91 2113 -91 
Q 1303 -91 875 529 
Q 447 1150 447 2328 
Q 447 3434 972 4092 
Q 1497 4750 2381 4750 
Q 2619 4750 2861 4703 
Q 3103 4656 3366 4563 
z
" transform="scale(0.015625)"/>
       </defs>
       <use xlink:href="#DejaVuSans-36"/>
       <use xlink:href="#DejaVuSans-30" x="63.623047"/>
       <use xlink:href="#DejaVuSans-30" x="127.246094"/>
      </g>
     </g>
    </g>
    <g id="xtick_5">
     <g id="line2d_9">
      <path d="M 259.321381 239.76 
L 259.321381 37.296 
" clip-path="url(#p877ee47c90)" style="fill: none; stroke-dasharray: 2.96,1.28; stroke-dashoffset: 0; stroke: #b0b0b0; stroke-opacity: 0.4; stroke-width: 0.8"/>
     </g>
     <g id="line2d_10">
      <g>
       <use xlink:href="#mca608375c3" x="259.321381" y="239.76" style="stroke: #000000; stroke-width: 0.8"/>
      </g>
     </g>
     <g id="text_5">
      <!-- 800 -->
      <g transform="translate(249.777631 254.358437) scale(0.1 -0.1)">
       <defs>
        <path id="DejaVuSans-38" d="M 2034 2216 
Q 1584 2216 1326 1975 
Q 1069 1734 1069 1313 
Q 1069 891 1326 650 
Q 1584 409 2034 409 
Q 2484 409 2743 651 
Q 3003 894 3003 1313 
Q 3003 1734 2745 1975 
Q 2488 2216 2034 2216 
z
M 1403 2484 
Q 997 2584 770 2862 
Q 544 3141 544 3541 
Q 544 4100 942 4425 
Q 1341 4750 2034 4750 
Q 2731 4750 3128 4425 
Q 3525 4100 3525 3541 
Q 3525 3141 3298 2862 
Q 3072 2584 2669 2484 
Q 3125 2378 3379 2068 
Q 3634 1759 3634 1313 
Q 3634 634 3220 271 
Q 2806 -91 2034 -91 
Q 1263 -91 848 271 
Q 434 634 434 1313 
Q 434 1759 690 2068 
Q 947 2378 1403 2484 
z
M 1172 3481 
Q 1172 3119 1398 2916 
Q 1625 2713 2034 2713 
Q 2441 2713 2670 2916 
Q 2900 3119 2900 3481 
Q 2900 3844 2670 4047 
Q 2441 4250 2034 4250 
Q 1625 4250 1398 4047 
Q 1172 3844 1172 3481 
z
" transform="scale(0.015625)"/>
       </defs>
       <use xlink:href="#DejaVuSans-38"/>
       <use xlink:href="#DejaVuSans-30" x="63.623047"/>
       <use xlink:href="#DejaVuSans-30" x="127.246094"/>
      </g>
     </g>
    </g>
    <g id="xtick_6">
     <g id="line2d_11">
      <path d="M 310.099432 239.76 
L 310.099432 37.296 
" clip-path="url(#p877ee47c90)" style="fill: none; stroke-dasharray: 2.96,1.28; stroke-dashoffset: 0; stroke: #b0b0b0; stroke-opacity: 0.4; stroke-width: 0.8"/>
     </g>
     <g id="line2d_12">
      <g>
       <use xlink:href="#mca608375c3" x="310.099432" y="239.76" style="stroke: #000000; stroke-width: 0.8"/>
      </g>
     </g>
     <g id="text_6">
      <!-- 1000 -->
      <g transform="translate(297.374432 254.358437) scale(0.1 -0.1)">
       <defs>
        <path id="DejaVuSans-31" d="M 794 531 
L 1825 531 
L 1825 4091 
L 703 3866 
L 703 4441 
L 1819 4666 
L 2450 4666 
L 2450 531 
L 3481 531 
L 3481 0 
L 794 0 
L 794 531 
z
" transform="scale(0.015625)"/>
       </defs>
       <use xlink:href="#DejaVuSans-31"/>
       <use xlink:href="#DejaVuSans-30" x="63.623047"/>
       <use xlink:href="#DejaVuSans-30" x="127.246094"/>
       <use xlink:href="#DejaVuSans-30" x="190.869141"/>
      </g>
     </g>
    </g>
    <g id="text_7">
     <!-- Epochs -->
     <g transform="translate(165.365625 268.036562) scale(0.1 -0.1)">
      <defs>
       <path id="DejaVuSans-45" d="M 628 4666 
L 3578 4666 
L 3578 4134 
L 1259 4134 
L 1259 2753 
L 3481 2753 
L 3481 2222 
L 1259 2222 
L 1259 531 
L 3634 531 
L 3634 0 
L 628 0 
L 628 4666 
z
" transform="scale(0.015625)"/>
       <path id="DejaVuSans-70" d="M 1159 525 
L 1159 -1331 
L 581 -1331 
L 581 3500 
L 1159 3500 
L 1159 2969 
Q 1341 3281 1617 3432 
Q 1894 3584 2278 3584 
Q 2916 3584 3314 3078 
Q 3713 2572 3713 1747 
Q 3713 922 3314 415 
Q 2916 -91 2278 -91 
Q 1894 -91 1617 61 
Q 1341 213 1159 525 
z
M 3116 1747 
Q 3116 2381 2855 2742 
Q 2594 3103 2138 3103 
Q 1681 3103 1420 2742 
Q 1159 2381 1159 1747 
Q 1159 1113 1420 752 
Q 1681 391 2138 391 
Q 2594 391 2855 752 
Q 3116 1113 3116 1747 
z
" transform="scale(0.015625)"/>
       <path id="DejaVuSans-6f" d="M 1959 3097 
Q 1497 3097 1228 2736 
Q 959 2375 959 1747 
Q 959 1119 1226 758 
Q 1494 397 1959 397 
Q 2419 397 2687 759 
Q 2956 1122 2956 1747 
Q 2956 2369 2687 2733 
Q 2419 3097 1959 3097 
z
M 1959 3584 
Q 2709 3584 3137 3096 
Q 3566 2609 3566 1747 
Q 3566 888 3137 398 
Q 2709 -91 1959 -91 
Q 1206 -91 779 398 
Q 353 888 353 1747 
Q 353 2609 779 3096 
Q 1206 3584 1959 3584 
z
" transform="scale(0.015625)"/>
       <path id="DejaVuSans-63" d="M 3122 3366 
L 3122 2828 
Q 2878 2963 2633 3030 
Q 2388 3097 2138 3097 
Q 1578 3097 1268 2742 
Q 959 2388 959 1747 
Q 959 1106 1268 751 
Q 1578 397 2138 397 
Q 2388 397 2633 464 
Q 2878 531 3122 666 
L 3122 134 
Q 2881 22 2623 -34 
Q 2366 -91 2075 -91 
Q 1284 -91 818 406 
Q 353 903 353 1747 
Q 353 2603 823 3093 
Q 1294 3584 2113 3584 
Q 2378 3584 2631 3529 
Q 2884 3475 3122 3366 
z
" transform="scale(0.015625)"/>
       <path id="DejaVuSans-68" d="M 3513 2113 
L 3513 0 
L 2938 0 
L 2938 2094 
Q 2938 2591 2744 2837 
Q 2550 3084 2163 3084 
Q 1697 3084 1428 2787 
Q 1159 2491 1159 1978 
L 1159 0 
L 581 0 
L 581 4863 
L 1159 4863 
L 1159 2956 
Q 1366 3272 1645 3428 
Q 1925 3584 2291 3584 
Q 2894 3584 3203 3211 
Q 3513 2838 3513 2113 
z
" transform="scale(0.015625)"/>
       <path id="DejaVuSans-73" d="M 2834 3397 
L 2834 2853 
Q 2591 2978 2328 3040 
Q 2066 3103 1784 3103 
Q 1356 3103 1142 2972 
Q 928 2841 928 2578 
Q 928 2378 1081 2264 
Q 1234 2150 1697 2047 
L 1894 2003 
Q 2506 1872 2764 1633 
Q 3022 1394 3022 966 
Q 3022 478 2636 193 
Q 2250 -91 1575 -91 
Q 1294 -91 989 -36 
Q 684 19 347 128 
L 347 722 
Q 666 556 975 473 
Q 1284 391 1588 391 
Q 1994 391 2212 530 
Q 2431 669 2431 922 
Q 2431 1156 2273 1281 
Q 2116 1406 1581 1522 
L 1381 1569 
Q 847 1681 609 1914 
Q 372 2147 372 2553 
Q 372 3047 722 3315 
Q 1072 3584 1716 3584 
Q 2034 3584 2315 3537 
Q 2597 3491 2834 3397 
z
" transform="scale(0.015625)"/>
      </defs>
      <use xlink:href="#DejaVuSans-45"/>
      <use xlink:href="#DejaVuSans-70" x="63.183594"/>
      <use xlink:href="#DejaVuSans-6f" x="126.660156"/>
      <use xlink:href="#DejaVuSans-63" x="187.841797"/>
      <use xlink:href="#DejaVuSans-68" x="242.822266"/>
      <use xlink:href="#DejaVuSans-73" x="306.201172"/>
     </g>
    </g>
   </g>
   <g id="matplotlib.axis_2">
    <g id="ytick_1">
     <g id="line2d_13">
      <path d="M 43.78125 214.141 
L 322.78125 214.141 
" clip-path="url(#p877ee47c90)" style="fill: none; stroke-dasharray: 2.96,1.28; stroke-dashoffset: 0; stroke: #b0b0b0; stroke-opacity: 0.4; stroke-width: 0.8"/>
     </g>
     <g id="line2d_14">
      <defs>
       <path id="m04b565bb2f" d="M 0 0 
L -3.5 0 
" style="stroke: #000000; stroke-width: 0.8"/>
      </defs>
      <g>
       <use xlink:href="#m04b565bb2f" x="43.78125" y="214.141" style="stroke: #000000; stroke-width: 0.8"/>
      </g>
     </g>
     <g id="text_8">
      <!-- 0.1 -->
      <g transform="translate(20.878125 217.940218) scale(0.1 -0.1)">
       <defs>
        <path id="DejaVuSans-2e" d="M 684 794 
L 1344 794 
L 1344 0 
L 684 0 
L 684 794 
z
" transform="scale(0.015625)"/>
       </defs>
       <use xlink:href="#DejaVuSans-30"/>
       <use xlink:href="#DejaVuSans-2e" x="63.623047"/>
       <use xlink:href="#DejaVuSans-31" x="95.410156"/>
      </g>
     </g>
    </g>
    <g id="ytick_2">
     <g id="line2d_15">
      <path d="M 43.78125 185.94965 
L 322.78125 185.94965 
" clip-path="url(#p877ee47c90)" style="fill: none; stroke-dasharray: 2.96,1.28; stroke-dashoffset: 0; stroke: #b0b0b0; stroke-opacity: 0.4; stroke-width: 0.8"/>
     </g>
     <g id="line2d_16">
      <g>
       <use xlink:href="#m04b565bb2f" x="43.78125" y="185.94965" style="stroke: #000000; stroke-width: 0.8"/>
      </g>
     </g>
     <g id="text_9">
      <!-- 0.2 -->
      <g transform="translate(20.878125 189.748869) scale(0.1 -0.1)">
       <use xlink:href="#DejaVuSans-30"/>
       <use xlink:href="#DejaVuSans-2e" x="63.623047"/>
       <use xlink:href="#DejaVuSans-32" x="95.410156"/>
      </g>
     </g>
    </g>
    <g id="ytick_3">
     <g id="line2d_17">
      <path d="M 43.78125 157.758301 
L 322.78125 157.758301 
" clip-path="url(#p877ee47c90)" style="fill: none; stroke-dasharray: 2.96,1.28; stroke-dashoffset: 0; stroke: #b0b0b0; stroke-opacity: 0.4; stroke-width: 0.8"/>
     </g>
     <g id="line2d_18">
      <g>
       <use xlink:href="#m04b565bb2f" x="43.78125" y="157.758301" style="stroke: #000000; stroke-width: 0.8"/>
      </g>
     </g>
     <g id="text_10">
      <!-- 0.3 -->
      <g transform="translate(20.878125 161.55752) scale(0.1 -0.1)">
       <defs>
        <path id="DejaVuSans-33" d="M 2597 2516 
Q 3050 2419 3304 2112 
Q 3559 1806 3559 1356 
Q 3559 666 3084 287 
Q 2609 -91 1734 -91 
Q 1441 -91 1130 -33 
Q 819 25 488 141 
L 488 750 
Q 750 597 1062 519 
Q 1375 441 1716 441 
Q 2309 441 2620 675 
Q 2931 909 2931 1356 
Q 2931 1769 2642 2001 
Q 2353 2234 1838 2234 
L 1294 2234 
L 1294 2753 
L 1863 2753 
Q 2328 2753 2575 2939 
Q 2822 3125 2822 3475 
Q 2822 3834 2567 4026 
Q 2313 4219 1838 4219 
Q 1578 4219 1281 4162 
Q 984 4106 628 3988 
L 628 4550 
Q 988 4650 1302 4700 
Q 1616 4750 1894 4750 
Q 2613 4750 3031 4423 
Q 3450 4097 3450 3541 
Q 3450 3153 3228 2886 
Q 3006 2619 2597 2516 
z
" transform="scale(0.015625)"/>
       </defs>
       <use xlink:href="#DejaVuSans-30"/>
       <use xlink:href="#DejaVuSans-2e" x="63.623047"/>
       <use xlink:href="#DejaVuSans-33" x="95.410156"/>
      </g>
     </g>
    </g>
    <g id="ytick_4">
     <g id="line2d_19">
      <path d="M 43.78125 129.566952 
L 322.78125 129.566952 
" clip-path="url(#p877ee47c90)" style="fill: none; stroke-dasharray: 2.96,1.28; stroke-dashoffset: 0; stroke: #b0b0b0; stroke-opacity: 0.4; stroke-width: 0.8"/>
     </g>
     <g id="line2d_20">
      <g>
       <use xlink:href="#m04b565bb2f" x="43.78125" y="129.566952" style="stroke: #000000; stroke-width: 0.8"/>
      </g>
     </g>
     <g id="text_11">
      <!-- 0.4 -->
      <g transform="translate(20.878125 133.366171) scale(0.1 -0.1)">
       <use xlink:href="#DejaVuSans-30"/>
       <use xlink:href="#DejaVuSans-2e" x="63.623047"/>
       <use xlink:href="#DejaVuSans-34" x="95.410156"/>
      </g>
     </g>
    </g>
    <g id="ytick_5">
     <g id="line2d_21">
      <path d="M 43.78125 101.375603 
L 322.78125 101.375603 
" clip-path="url(#p877ee47c90)" style="fill: none; stroke-dasharray: 2.96,1.28; stroke-dashoffset: 0; stroke: #b0b0b0; stroke-opacity: 0.4; stroke-width: 0.8"/>
     </g>
     <g id="line2d_22">
      <g>
       <use xlink:href="#m04b565bb2f" x="43.78125" y="101.375603" style="stroke: #000000; stroke-width: 0.8"/>
      </g>
     </g>
     <g id="text_12">
      <!-- 0.5 -->
      <g transform="translate(20.878125 105.174822) scale(0.1 -0.1)">
       <defs>
        <path id="DejaVuSans-35" d="M 691 4666 
L 3169 4666 
L 3169 4134 
L 1269 4134 
L 1269 2991 
Q 1406 3038 1543 3061 
Q 1681 3084 1819 3084 
Q 2600 3084 3056 2656 
Q 3513 2228 3513 1497 
Q 3513 744 3044 326 
Q 2575 -91 1722 -91 
Q 1428 -91 1123 -41 
Q 819 9 494 109 
L 494 744 
Q 775 591 1075 516 
Q 1375 441 1709 441 
Q 2250 441 2565 725 
Q 2881 1009 2881 1497 
Q 2881 1984 2565 2268 
Q 2250 2553 1709 2553 
Q 1456 2553 1204 2497 
Q 953 2441 691 2322 
L 691 4666 
z
" transform="scale(0.015625)"/>
       </defs>
       <use xlink:href="#DejaVuSans-30"/>
       <use xlink:href="#DejaVuSans-2e" x="63.623047"/>
       <use xlink:href="#DejaVuSans-35" x="95.410156"/>
      </g>
     </g>
    </g>
    <g id="ytick_6">
     <g id="line2d_23">
      <path d="M 43.78125 73.184254 
L 322.78125 73.184254 
" clip-path="url(#p877ee47c90)" style="fill: none; stroke-dasharray: 2.96,1.28; stroke-dashoffset: 0; stroke: #b0b0b0; stroke-opacity: 0.4; stroke-width: 0.8"/>
     </g>
     <g id="line2d_24">
      <g>
       <use xlink:href="#m04b565bb2f" x="43.78125" y="73.184254" style="stroke: #000000; stroke-width: 0.8"/>
      </g>
     </g>
     <g id="text_13">
      <!-- 0.6 -->
      <g transform="translate(20.878125 76.983473) scale(0.1 -0.1)">
       <use xlink:href="#DejaVuSans-30"/>
       <use xlink:href="#DejaVuSans-2e" x="63.623047"/>
       <use xlink:href="#DejaVuSans-36" x="95.410156"/>
      </g>
     </g>
    </g>
    <g id="ytick_7">
     <g id="line2d_25">
      <path d="M 43.78125 44.992905 
L 322.78125 44.992905 
" clip-path="url(#p877ee47c90)" style="fill: none; stroke-dasharray: 2.96,1.28; stroke-dashoffset: 0; stroke: #b0b0b0; stroke-opacity: 0.4; stroke-width: 0.8"/>
     </g>
     <g id="line2d_26">
      <g>
       <use xlink:href="#m04b565bb2f" x="43.78125" y="44.992905" style="stroke: #000000; stroke-width: 0.8"/>
      </g>
     </g>
     <g id="text_14">
      <!-- 0.7 -->
      <g transform="translate(20.878125 48.792124) scale(0.1 -0.1)">
       <defs>
        <path id="DejaVuSans-37" d="M 525 4666 
L 3525 4666 
L 3525 4397 
L 1831 0 
L 1172 0 
L 2766 4134 
L 525 4134 
L 525 4666 
z
" transform="scale(0.015625)"/>
       </defs>
       <use xlink:href="#DejaVuSans-30"/>
       <use xlink:href="#DejaVuSans-2e" x="63.623047"/>
       <use xlink:href="#DejaVuSans-37" x="95.410156"/>
      </g>
     </g>
    </g>
    <g id="text_15">
     <!-- Loss -->
     <g transform="translate(14.798438 149.495187) rotate(-90) scale(0.1 -0.1)">
      <defs>
       <path id="DejaVuSans-4c" d="M 628 4666 
L 1259 4666 
L 1259 531 
L 3531 531 
L 3531 0 
L 628 0 
L 628 4666 
z
" transform="scale(0.015625)"/>
      </defs>
      <use xlink:href="#DejaVuSans-4c"/>
      <use xlink:href="#DejaVuSans-6f" x="53.962891"/>
      <use xlink:href="#DejaVuSans-73" x="115.144531"/>
      <use xlink:href="#DejaVuSans-73" x="167.244141"/>
     </g>
    </g>
   </g>
   <g id="line2d_27">
    <path d="M 56.463068 46.498909 
L 57.478629 49.103967 
L 57.732519 50.069554 
L 57.98641 51.861767 
L 58.49419 60.261091 
L 59.509751 100.214626 
L 59.763641 106.624702 
L 60.017532 106.797029 
L 60.271422 113.415819 
L 60.525312 116.530934 
L 60.779202 121.911839 
L 61.033093 123.418074 
L 61.286983 121.82047 
L 61.540873 128.883508 
L 61.794764 129.810112 
L 62.048654 135.632499 
L 62.302544 133.719933 
L 62.556434 139.813955 
L 63.064215 137.155572 
L 63.571995 145.613658 
L 63.825886 144.791402 
L 64.333666 145.826833 
L 64.587556 153.172335 
L 64.841447 152.103054 
L 65.603117 158.029991 
L 65.857008 157.991865 
L 66.110898 158.368907 
L 66.364788 160.622942 
L 66.618678 161.507571 
L 66.872569 160.096594 
L 67.126459 160.900718 
L 67.380349 160.906188 
L 67.88813 165.90753 
L 68.14202 168.387074 
L 68.39591 169.539835 
L 68.6498 165.437557 
L 69.157581 168.89914 
L 69.665361 172.188127 
L 69.919252 169.807672 
L 70.173142 170.453845 
L 70.427032 174.254373 
L 70.680922 174.118051 
L 70.934813 173.812222 
L 71.188703 174.273709 
L 71.696483 176.888756 
L 71.950374 176.538797 
L 72.204264 177.098555 
L 72.458154 177.233032 
L 72.712044 178.317373 
L 72.965935 178.191659 
L 73.219825 177.607348 
L 73.473715 180.810823 
L 73.727605 177.573241 
L 73.981496 180.801489 
L 74.489276 182.542711 
L 74.743166 179.382265 
L 74.997057 183.313632 
L 75.250947 184.015092 
L 75.504837 182.025886 
L 75.758727 184.205062 
L 76.012618 182.667245 
L 76.266508 187.377603 
L 76.520398 185.872006 
L 76.774288 185.959316 
L 77.028179 188.915051 
L 77.282069 187.987644 
L 77.535959 184.862775 
L 77.78985 188.404002 
L 78.04374 188.442393 
L 78.29763 186.703603 
L 78.805411 189.853686 
L 79.059301 189.04121 
L 79.313191 187.709423 
L 79.567081 190.132303 
L 79.820972 191.147263 
L 80.074862 189.610491 
L 80.328752 186.144972 
L 80.582642 187.459788 
L 80.836533 194.056827 
L 81.090423 193.794472 
L 81.344313 192.363082 
L 81.598203 190.089626 
L 81.852094 191.866283 
L 82.105984 190.312758 
L 82.359874 189.818613 
L 82.613764 190.145619 
L 82.867655 194.94112 
L 83.121545 202.884754 
L 83.375435 201.582259 
L 83.883216 207.175723 
L 84.137106 205.681034 
L 84.390996 205.259353 
L 84.644886 203.082084 
L 84.898777 206.927733 
L 85.152667 203.325993 
L 85.914338 207.879729 
L 86.168228 206.552355 
L 86.422118 206.048951 
L 86.676008 206.329303 
L 86.929899 209.073797 
L 87.183789 202.827034 
L 87.94546 210.01829 
L 88.45324 205.949837 
L 88.961021 209.764034 
L 89.214911 208.621896 
L 89.468801 209.374283 
L 89.722691 209.142705 
L 89.976582 212.024554 
L 90.484362 206.671448 
L 90.738252 209.669408 
L 90.992143 211.239747 
L 91.246033 207.585788 
L 91.499923 209.617566 
L 91.753813 212.594498 
L 92.007704 210.102649 
L 92.261594 211.107401 
L 92.515484 212.985199 
L 92.769374 213.504125 
L 93.023265 211.817333 
L 93.277155 211.451944 
L 93.784936 211.933064 
L 94.038826 213.225949 
L 94.292716 210.345582 
L 94.546606 213.059579 
L 94.800497 211.882767 
L 95.054387 211.335165 
L 95.308277 214.024936 
L 95.562167 213.571462 
L 96.069948 217.279019 
L 96.323838 215.737349 
L 96.831619 217.854437 
L 97.085509 216.898585 
L 97.593289 219.005127 
L 97.84718 221.742973 
L 98.10107 218.689257 
L 98.60885 217.317801 
L 98.862741 218.753114 
L 99.116631 219.478028 
L 99.370521 216.097216 
L 99.624411 217.535802 
L 99.878302 220.956485 
L 100.132192 218.992654 
L 100.386082 219.782349 
L 100.639972 220.010261 
L 100.893863 219.211676 
L 101.147753 217.094625 
L 101.655533 218.870593 
L 101.909424 218.467153 
L 102.163314 219.216187 
L 102.417204 219.125911 
L 102.671094 218.193054 
L 102.924985 218.488856 
L 103.178875 217.458435 
L 103.432765 219.301962 
L 103.686655 216.44346 
L 103.940546 218.227449 
L 104.194436 218.992573 
L 104.448326 218.312556 
L 104.702216 218.782083 
L 104.956107 218.958075 
L 105.209997 217.480735 
L 105.463887 219.947883 
L 105.717777 218.348378 
L 105.971668 219.546583 
L 106.225558 219.521842 
L 106.479448 218.018682 
L 106.733338 218.817463 
L 106.987229 221.07644 
L 107.241119 220.513885 
L 107.495009 218.545904 
L 107.748899 222.285616 
L 108.00279 219.293892 
L 108.25668 220.007949 
L 108.51057 221.171489 
L 109.018351 221.397645 
L 109.272241 223.574946 
L 109.526131 221.812238 
L 109.780021 222.532209 
L 110.033912 221.900519 
L 110.287802 224.373945 
L 110.541692 222.843296 
L 110.795583 222.435416 
L 111.049473 221.074008 
L 111.303363 223.576149 
L 111.811144 221.194076 
L 112.065034 221.014907 
L 112.318924 223.496422 
L 112.572814 222.0857 
L 112.826705 224.482547 
L 113.080595 223.736069 
L 113.334485 221.643793 
L 113.588375 221.81818 
L 113.842266 220.998595 
L 114.096156 223.163507 
L 114.350046 223.511181 
L 114.603936 222.887584 
L 114.857827 224.944648 
L 115.111717 224.039281 
L 115.365607 224.935669 
L 115.619497 223.805965 
L 115.873388 223.961244 
L 116.127278 222.920029 
L 116.381168 225.379246 
L 116.635058 223.569901 
L 116.888949 225.678053 
L 117.142839 223.049757 
L 117.396729 225.39829 
L 117.90451 224.824692 
L 118.1584 221.190516 
L 118.41229 224.560832 
L 118.66618 223.828256 
L 118.920071 225.053805 
L 119.427851 222.857852 
L 119.681741 224.835574 
L 119.935632 224.000262 
L 120.189522 224.41777 
L 120.443412 223.347351 
L 120.697302 223.089339 
L 120.951193 223.681571 
L 121.205083 224.706463 
L 121.458973 223.548863 
L 121.712863 226.744813 
L 121.966754 225.173108 
L 122.474534 226.032591 
L 122.728424 224.856794 
L 122.982315 225.167024 
L 123.236205 226.350336 
L 123.490095 225.280189 
L 123.743985 226.046002 
L 123.997876 225.195478 
L 124.251766 224.769926 
L 124.505656 225.445517 
L 124.759546 225.211391 
L 125.013437 225.710845 
L 125.267327 225.509408 
L 125.521217 225.138501 
L 125.775107 224.982272 
L 126.028998 225.093428 
L 126.282888 224.461245 
L 126.536778 225.357373 
L 126.790669 224.416411 
L 127.044559 224.439548 
L 127.552339 227.54097 
L 127.80623 226.154459 
L 128.31401 227.225238 
L 128.5679 224.981182 
L 128.821791 226.319868 
L 129.075681 225.692938 
L 129.329571 224.332042 
L 129.583461 225.166552 
L 129.837352 224.526169 
L 130.091242 224.9567 
L 130.345132 226.968015 
L 130.852913 223.758634 
L 131.106803 226.636762 
L 131.360693 225.61807 
L 131.614583 223.99634 
L 131.868474 226.350403 
L 132.122364 226.586492 
L 132.376254 224.74748 
L 132.630144 226.956393 
L 132.884035 225.677405 
L 133.137925 226.500069 
L 133.391815 224.626285 
L 133.645705 225.296587 
L 133.899596 225.261987 
L 134.153486 226.745584 
L 134.407376 225.833612 
L 134.915157 226.862675 
L 135.169047 224.723661 
L 135.422937 226.219276 
L 135.676827 226.077976 
L 135.930718 226.412231 
L 136.184608 224.639904 
L 136.438498 226.47405 
L 136.692388 226.27277 
L 136.946279 224.562447 
L 137.200169 226.384497 
L 137.454059 224.656765 
L 137.707949 227.042372 
L 137.96184 224.476775 
L 138.21573 227.061204 
L 138.46962 225.95666 
L 138.72351 227.990167 
L 139.231291 224.524732 
L 139.485181 226.786005 
L 139.739071 226.393042 
L 139.992962 228.471532 
L 140.246852 226.203748 
L 140.754632 226.664052 
L 141.008523 226.504725 
L 141.262413 224.980596 
L 141.516303 225.258208 
L 141.770193 224.456721 
L 142.024084 226.714629 
L 142.277974 225.062575 
L 142.531864 228.491674 
L 142.785755 225.775262 
L 143.039645 226.653493 
L 143.293535 225.497228 
L 143.801316 227.148494 
L 144.309096 225.658993 
L 144.562986 226.619128 
L 144.816877 224.867177 
L 145.070767 225.90979 
L 145.324657 223.989692 
L 145.578547 226.309555 
L 145.832438 226.104053 
L 146.086328 227.461077 
L 146.340218 226.200393 
L 146.594108 226.770615 
L 146.847999 227.646159 
L 147.355779 227.610049 
L 147.609669 224.28766 
L 147.86356 226.491132 
L 148.11745 226.529355 
L 148.37134 223.964771 
L 148.62523 227.142494 
L 148.879121 225.12039 
L 149.133011 226.343226 
L 149.386901 225.511903 
L 149.640791 228.018144 
L 149.894682 228.503065 
L 150.402462 225.517367 
L 150.910243 228.504259 
L 151.164133 226.990759 
L 151.418023 226.327221 
L 151.925804 227.754091 
L 152.179694 225.967009 
L 152.433584 226.833886 
L 152.687474 227.191228 
L 152.941365 225.959723 
L 153.195255 227.112723 
L 153.449145 225.790862 
L 153.703035 228.893382 
L 153.956926 226.785161 
L 154.210816 227.737377 
L 154.464706 226.642513 
L 154.718596 227.512292 
L 154.972487 226.231394 
L 155.480267 227.233456 
L 155.734157 225.636345 
L 156.241938 227.724149 
L 156.495828 226.22832 
L 157.003609 227.113506 
L 157.257499 226.829397 
L 157.511389 227.088907 
L 158.01917 226.667255 
L 158.27306 225.725167 
L 158.52695 227.708517 
L 158.78084 227.594564 
L 159.034731 227.816565 
L 159.542511 226.782796 
L 159.796402 227.979983 
L 160.304182 225.632213 
L 160.558072 229.054327 
L 160.811963 227.441755 
L 161.065853 227.112837 
L 161.319743 226.269102 
L 161.573633 228.2181 
L 161.827524 227.523639 
L 162.081414 227.87108 
L 162.335304 225.452142 
L 162.589194 228.129994 
L 162.843085 226.268945 
L 163.096975 225.961579 
L 163.350865 228.033806 
L 163.858646 226.827113 
L 164.112536 228.345597 
L 164.366426 227.397337 
L 164.620316 227.498667 
L 164.874207 228.510225 
L 165.128097 226.868926 
L 165.381987 226.598063 
L 165.635877 227.138325 
L 165.889768 229.898576 
L 166.397548 227.095662 
L 166.651438 226.904734 
L 166.905329 228.68949 
L 167.413109 225.552855 
L 167.666999 227.808207 
L 167.92089 228.597816 
L 168.17478 227.364001 
L 168.42867 227.515577 
L 168.68256 228.396095 
L 168.936451 226.556212 
L 169.190341 227.900467 
L 169.444231 225.867296 
L 169.698121 226.998358 
L 169.952012 227.227645 
L 170.205902 227.245522 
L 170.459792 226.928939 
L 170.713682 226.212135 
L 170.967573 228.888721 
L 171.221463 226.455556 
L 171.475353 225.304085 
L 171.729243 226.151927 
L 171.983134 226.380351 
L 172.237024 227.634631 
L 172.490914 227.880345 
L 172.744804 227.497775 
L 172.998695 228.966533 
L 173.252585 229.018544 
L 173.506475 227.90971 
L 173.760365 227.48272 
L 174.014256 227.515764 
L 174.268146 225.921391 
L 174.522036 227.310143 
L 174.775926 226.500406 
L 175.029817 227.066401 
L 175.283707 229.160702 
L 175.537597 228.91129 
L 175.791488 227.498255 
L 176.045378 226.744074 
L 176.299268 227.192633 
L 176.553158 225.70779 
L 176.807049 228.588952 
L 177.060939 227.758195 
L 177.314829 228.214055 
L 177.568719 227.077096 
L 177.82261 228.12226 
L 178.0765 226.055583 
L 178.33039 227.659311 
L 178.58428 225.947321 
L 178.838171 225.382812 
L 179.092061 226.294728 
L 179.345951 225.042287 
L 179.853732 227.84001 
L 180.107622 227.274205 
L 180.615402 227.035228 
L 180.869293 229.318721 
L 181.123183 228.851597 
L 181.377073 225.756625 
L 181.630963 227.933182 
L 181.884854 227.339481 
L 182.138744 227.429966 
L 182.646524 226.308672 
L 182.900415 228.166637 
L 183.154305 226.565717 
L 183.408195 227.936277 
L 183.662085 228.129077 
L 183.915976 226.344762 
L 184.169866 228.327181 
L 184.423756 227.188692 
L 184.677646 228.301546 
L 184.931537 226.437854 
L 185.185427 227.560898 
L 185.439317 227.681183 
L 185.693207 227.665634 
L 186.200988 226.364003 
L 186.454878 226.760632 
L 186.708768 226.401482 
L 186.962659 226.584813 
L 187.216549 226.331814 
L 187.724329 228.331771 
L 187.97822 226.394797 
L 188.23211 226.973926 
L 188.73989 228.942637 
L 189.247671 226.680729 
L 189.501561 228.121263 
L 189.755451 227.292317 
L 190.517122 228.18055 
L 190.771012 227.066511 
L 191.024903 227.542686 
L 191.278793 227.498218 
L 191.532683 228.740079 
L 191.786574 226.971034 
L 192.040464 226.133017 
L 192.294354 227.625849 
L 192.548244 227.725121 
L 192.802135 227.443904 
L 193.056025 226.788431 
L 193.309915 228.147644 
L 193.563805 227.175854 
L 193.817696 226.765781 
L 194.071586 226.026348 
L 194.325476 228.140308 
L 194.579366 226.926153 
L 194.833257 226.682399 
L 195.087147 226.243171 
L 195.341037 228.244375 
L 195.594927 227.885912 
L 195.848818 228.012719 
L 196.102708 227.383728 
L 196.356598 227.420006 
L 196.610488 227.651376 
L 196.864379 224.66072 
L 197.118269 225.730578 
L 197.372159 227.403495 
L 197.626049 226.775956 
L 197.87994 227.154333 
L 198.13383 227.228443 
L 198.38772 225.387973 
L 198.64161 225.828488 
L 198.895501 224.584584 
L 199.149391 228.19709 
L 199.403281 228.898697 
L 199.657171 228.192184 
L 199.911062 225.782483 
L 200.164952 225.201353 
L 200.418842 227.030276 
L 200.672732 226.630292 
L 200.926623 226.952712 
L 201.180513 227.073334 
L 201.434403 226.945107 
L 201.688293 228.064864 
L 201.942184 227.388111 
L 202.196074 228.923159 
L 202.449964 228.581813 
L 202.703854 229.157495 
L 202.957745 227.098612 
L 203.211635 227.721929 
L 203.465525 227.302406 
L 203.973306 228.236246 
L 204.227196 228.648059 
L 204.481086 228.065322 
L 204.734976 226.835306 
L 204.988867 226.626824 
L 205.242757 227.523611 
L 205.496647 226.707671 
L 205.750537 227.147337 
L 206.258318 226.760817 
L 206.512208 227.83741 
L 206.766098 227.402193 
L 207.019989 227.572605 
L 207.273879 227.50998 
L 207.527769 227.25464 
L 207.78166 230.557091 
L 208.28944 225.191579 
L 208.797221 228.521052 
L 209.051111 226.072386 
L 209.305001 227.308299 
L 209.558891 227.49578 
L 209.812782 226.190906 
L 210.066672 227.438232 
L 210.320562 225.173701 
L 210.574452 227.8922 
L 210.828343 227.615705 
L 211.336123 225.597628 
L 211.590013 227.364133 
L 211.843904 227.957869 
L 212.097794 228.266851 
L 212.351684 227.247814 
L 212.605574 227.926725 
L 212.859465 229.438705 
L 213.367245 227.751248 
L 213.621135 227.303118 
L 213.875026 229.139395 
L 214.128916 226.733567 
L 214.636696 228.527438 
L 214.890587 227.123217 
L 215.144477 227.010387 
L 215.398367 227.990448 
L 215.652257 225.99736 
L 216.160038 227.235219 
L 216.413928 228.095864 
L 216.667818 227.503812 
L 216.921709 226.230155 
L 217.175599 228.687345 
L 217.429489 226.834237 
L 217.683379 227.684805 
L 217.93727 226.454146 
L 218.19116 227.513175 
L 218.44505 226.726298 
L 218.69894 227.974533 
L 218.952831 227.312707 
L 219.206721 227.077296 
L 219.460611 228.170332 
L 219.714501 227.811116 
L 219.968392 227.182284 
L 220.222282 227.933847 
L 220.476172 227.750401 
L 220.730062 227.250791 
L 220.983953 228.668871 
L 221.237843 227.51664 
L 221.491733 229.146952 
L 221.745623 226.849133 
L 221.999514 228.408673 
L 222.253404 228.93771 
L 222.507294 228.903182 
L 222.761184 226.782675 
L 223.015075 228.396367 
L 223.268965 226.646021 
L 223.522855 226.895701 
L 223.776745 228.319009 
L 224.030636 227.840586 
L 224.284526 228.351551 
L 224.538416 228.014813 
L 224.792307 228.462438 
L 225.046197 229.138678 
L 225.300087 228.199904 
L 225.553977 228.496281 
L 225.807868 227.182812 
L 226.061758 228.878903 
L 226.315648 226.540355 
L 226.569538 225.60463 
L 226.823429 227.815278 
L 227.077319 227.496857 
L 227.331209 226.718509 
L 227.83899 228.118917 
L 228.09288 227.144406 
L 228.34677 228.078188 
L 228.854551 227.333058 
L 229.108441 228.230556 
L 229.362331 226.67529 
L 229.616221 227.606001 
L 229.870112 227.679122 
L 230.124002 227.920026 
L 230.377892 227.43828 
L 230.631782 228.447032 
L 230.885673 226.520476 
L 231.139563 227.256646 
L 231.393453 226.666739 
L 231.647343 227.144915 
L 231.901234 225.248851 
L 232.155124 228.910102 
L 232.409014 226.542643 
L 233.170685 228.824757 
L 233.678465 227.709899 
L 234.186246 228.10233 
L 234.440136 227.714664 
L 234.694026 227.825707 
L 234.947917 228.920808 
L 235.709587 227.190958 
L 235.963478 227.488029 
L 236.217368 226.493584 
L 236.471258 226.440801 
L 236.725148 228.043365 
L 236.979039 228.238679 
L 237.232929 228.003392 
L 237.486819 227.387698 
L 237.740709 228.548471 
L 237.9946 228.561278 
L 238.24849 227.101479 
L 238.50238 227.29907 
L 239.010161 228.456291 
L 239.264051 228.090834 
L 239.517941 226.413132 
L 239.771831 228.161858 
L 240.025722 226.625789 
L 240.279612 228.106555 
L 240.533502 227.287917 
L 240.787393 227.757421 
L 241.295173 227.647573 
L 241.549063 227.738512 
L 241.802954 226.954078 
L 242.056844 228.714 
L 242.310734 228.525159 
L 242.818515 225.540256 
L 243.072405 226.787673 
L 243.326295 227.401915 
L 243.580185 225.957957 
L 243.834076 227.391267 
L 244.087966 226.440841 
L 244.341856 227.689892 
L 244.595746 226.274006 
L 244.849637 228.644938 
L 245.103527 224.951418 
L 245.865198 229.26274 
L 246.119088 226.846301 
L 246.626868 228.075552 
L 246.880759 227.184102 
L 247.134649 227.682236 
L 247.388539 228.647086 
L 247.642429 228.009036 
L 247.89632 228.279798 
L 248.15021 228.319594 
L 248.4041 227.097556 
L 248.65799 227.164045 
L 248.911881 228.325546 
L 249.165771 225.020996 
L 249.419661 226.247714 
L 249.673551 228.825543 
L 249.927442 227.899661 
L 250.181332 228.172603 
L 250.435222 229.211807 
L 251.196893 226.105142 
L 251.450783 227.781708 
L 251.704673 227.927176 
L 251.958564 226.865186 
L 252.212454 226.40638 
L 252.466344 227.700753 
L 252.720234 227.73676 
L 252.974125 228.156535 
L 253.228015 228.320001 
L 253.735795 227.414909 
L 253.989686 227.506959 
L 254.243576 226.730764 
L 254.497466 229.833967 
L 254.751356 228.066873 
L 255.005247 228.52831 
L 255.259137 226.971262 
L 255.513027 227.009521 
L 255.766917 225.373143 
L 256.020808 226.334087 
L 256.274698 229.096468 
L 256.528588 227.709899 
L 256.782479 225.4735 
L 257.036369 226.706332 
L 257.290259 228.968095 
L 257.544149 227.745664 
L 257.79804 227.741527 
L 258.05193 226.285323 
L 258.30582 229.016053 
L 258.55971 225.65118 
L 258.813601 228.03218 
L 259.067491 226.819925 
L 259.321381 228.056261 
L 259.829162 226.795506 
L 260.083052 227.351042 
L 260.336942 227.077825 
L 260.590832 228.964427 
L 260.844723 226.06652 
L 261.098613 226.877904 
L 261.352503 225.756252 
L 261.606393 228.037873 
L 261.860284 228.194927 
L 262.114174 226.205588 
L 262.368064 225.215659 
L 262.621954 226.31988 
L 262.875845 228.076016 
L 263.129735 227.950131 
L 263.383625 227.107394 
L 263.637515 225.610788 
L 263.891406 227.811399 
L 264.145296 224.187896 
L 264.399186 227.207883 
L 264.653076 228.597675 
L 264.906967 227.94543 
L 265.160857 228.653332 
L 265.668637 228.867679 
L 265.922528 227.236501 
L 266.176418 228.688312 
L 266.430308 226.339453 
L 266.684198 227.452901 
L 266.938089 227.05237 
L 267.191979 228.687708 
L 267.445869 227.627078 
L 267.699759 227.463161 
L 267.95365 230.217222 
L 268.20754 227.660632 
L 268.46143 229.233929 
L 268.71532 227.146748 
L 268.969211 227.841283 
L 269.223101 227.106268 
L 269.476991 227.134058 
L 269.730881 226.636937 
L 269.984772 228.30417 
L 270.238662 228.243682 
L 270.492552 227.666087 
L 270.746442 228.876955 
L 271.000333 227.782953 
L 271.254223 227.949667 
L 271.508113 227.600128 
L 271.762003 227.611776 
L 272.015894 227.823019 
L 272.269784 228.282284 
L 272.523674 227.849933 
L 272.777564 225.742538 
L 273.031455 228.556968 
L 273.285345 227.929702 
L 273.539235 224.856776 
L 274.047016 229.044196 
L 274.300906 227.100839 
L 274.554796 227.264564 
L 274.808687 226.409847 
L 275.062577 228.509804 
L 275.316467 226.947029 
L 275.824248 228.041412 
L 276.332028 226.636576 
L 276.585918 227.841918 
L 276.839809 227.960456 
L 277.093699 227.636152 
L 277.347589 227.871708 
L 277.85537 226.820942 
L 278.10926 227.182382 
L 278.36315 227.986848 
L 278.61704 228.259348 
L 278.870931 229.64853 
L 279.124821 227.450145 
L 279.632601 227.903242 
L 279.886492 229.382886 
L 280.140382 225.699398 
L 280.394272 227.909479 
L 280.648162 226.529116 
L 281.155943 229.28026 
L 281.409833 227.985879 
L 281.663723 227.771631 
L 281.917614 226.89919 
L 282.171504 226.834608 
L 282.425394 227.492947 
L 282.679284 226.822565 
L 282.933175 226.703955 
L 283.187065 229.413086 
L 283.440955 227.097212 
L 283.694845 226.852791 
L 283.948736 226.822093 
L 284.202626 229.460168 
L 284.456516 227.770072 
L 284.710406 226.993208 
L 285.218187 228.41791 
L 285.472077 225.699415 
L 285.725967 226.8299 
L 285.979858 229.024556 
L 286.233748 226.743879 
L 286.487638 226.247757 
L 286.995419 226.836391 
L 287.249309 227.938776 
L 287.503199 227.470206 
L 287.757089 229.331313 
L 288.26487 226.925148 
L 288.51876 226.530825 
L 288.77265 227.452874 
L 289.026541 229.75397 
L 289.280431 228.676217 
L 289.534321 226.610264 
L 289.788212 229.736551 
L 290.042102 227.344878 
L 290.295992 227.559758 
L 290.549882 226.119507 
L 290.803773 227.209225 
L 291.057663 227.44874 
L 291.311553 226.517025 
L 291.565443 228.772643 
L 292.073224 226.678249 
L 292.327114 227.752441 
L 292.581004 227.303651 
L 292.834895 227.756748 
L 293.088785 226.935234 
L 293.342675 227.132693 
L 293.596565 229.000284 
L 293.850456 228.681663 
L 294.358236 227.151696 
L 294.612126 229.245363 
L 294.866017 227.423312 
L 295.119907 227.945011 
L 295.373797 226.903369 
L 295.627687 228.202858 
L 295.881578 227.839159 
L 296.135468 226.968453 
L 296.389358 227.779275 
L 296.643248 228.166336 
L 296.897139 228.032901 
L 297.151029 226.449618 
L 297.404919 226.094957 
L 297.658809 228.540053 
L 297.9127 226.785691 
L 298.16659 227.100794 
L 298.42048 228.303595 
L 298.928261 226.114467 
L 299.182151 228.572526 
L 299.436041 228.709698 
L 299.689931 227.745583 
L 299.943822 227.448057 
L 300.197712 227.858025 
L 300.451602 228.018168 
L 300.705492 227.050524 
L 300.959383 226.832776 
L 301.213273 227.147847 
L 301.467163 227.802348 
L 301.721053 226.561168 
L 301.974944 227.135194 
L 302.228834 228.121436 
L 302.482724 227.529865 
L 302.736614 227.621841 
L 302.990505 228.158723 
L 303.244395 226.884383 
L 303.498285 228.410118 
L 303.752175 227.207774 
L 304.006066 226.552815 
L 304.259956 226.973983 
L 304.513846 228.332566 
L 304.767736 228.548036 
L 305.021627 229.008314 
L 305.275517 227.02116 
L 305.529407 227.530804 
L 305.783298 227.257742 
L 306.291078 229.208714 
L 306.544968 228.125074 
L 306.798859 229.067271 
L 307.052749 227.005831 
L 307.306639 228.553088 
L 307.560529 226.804049 
L 307.81442 227.713653 
L 308.06831 227.813609 
L 308.3222 227.714019 
L 308.57609 227.110771 
L 308.829981 228.864271 
L 309.083871 226.670916 
L 309.337761 227.923085 
L 309.591651 226.140805 
L 309.845542 227.792814 
L 310.099432 226.518832 
L 310.099432 226.518832 
" clip-path="url(#p877ee47c90)" style="fill: none; stroke: #0000ff; stroke-width: 0.6; stroke-linecap: square"/>
   </g>
   <g id="line2d_28">
    <path d="M 56.463068 46.983652 
L 56.716958 46.981115 
L 57.224739 48.473152 
L 57.478629 48.758758 
L 57.732519 51.142096 
L 57.98641 52.346258 
L 58.74808 74.688248 
L 59.001971 96.233223 
L 59.509751 114.583745 
L 59.763641 108.569741 
L 60.017532 95.787631 
L 60.271422 104.755085 
L 60.525312 126.436444 
L 60.779202 126.890378 
L 61.033093 89.706783 
L 61.286983 128.006432 
L 61.540873 133.237988 
L 61.794764 131.949843 
L 62.048654 127.05022 
L 62.302544 142.357436 
L 62.556434 106.731 
L 62.810325 136.850087 
L 63.064215 129.080023 
L 63.318105 132.361155 
L 63.571995 130.399439 
L 63.825886 146.164471 
L 64.079776 123.874689 
L 64.333666 147.610425 
L 64.587556 147.043976 
L 64.841447 150.264204 
L 65.095337 148.542902 
L 65.349227 139.216545 
L 65.603117 148.91145 
L 65.857008 143.546979 
L 66.110898 152.638694 
L 66.364788 141.896042 
L 66.618678 149.091204 
L 66.872569 127.25817 
L 67.126459 146.513191 
L 67.380349 153.891435 
L 67.634239 149.739183 
L 67.88813 153.383663 
L 68.14202 150.656226 
L 68.39591 133.04175 
L 68.903691 151.889256 
L 69.157581 154.852687 
L 69.411471 153.17289 
L 69.665361 145.318187 
L 69.919252 155.840036 
L 70.173142 146.095603 
L 70.427032 150.42024 
L 70.680922 149.207987 
L 70.934813 152.497076 
L 71.188703 150.868965 
L 71.442593 154.287095 
L 71.696483 153.602081 
L 71.950374 154.34941 
L 72.204264 136.827369 
L 72.458154 153.868515 
L 72.712044 150.677508 
L 72.965935 145.820725 
L 73.219825 149.701611 
L 73.473715 149.290903 
L 73.727605 140.064518 
L 73.981496 149.40404 
L 74.235386 144.2154 
L 74.489276 150.438959 
L 74.743166 153.169294 
L 75.250947 138.091695 
L 75.758727 151.596407 
L 76.012618 150.89885 
L 76.266508 148.356528 
L 76.520398 148.610998 
L 76.774288 133.599697 
L 77.028179 147.410213 
L 77.282069 129.216651 
L 77.535959 144.373394 
L 77.78985 144.827916 
L 78.04374 146.805578 
L 78.55152 142.075375 
L 78.805411 144.301963 
L 79.059301 122.142019 
L 79.567081 136.580149 
L 79.820972 131.616716 
L 80.074862 124.208361 
L 80.328752 142.737831 
L 80.582642 143.795266 
L 80.836533 135.308236 
L 81.090423 141.689646 
L 81.344313 144.39612 
L 82.105984 110.065214 
L 82.359874 135.489015 
L 82.613764 131.49732 
L 82.867655 138.331177 
L 83.121545 137.410924 
L 83.375435 135.689782 
L 83.629325 129.841719 
L 83.883216 127.582231 
L 84.137106 131.168756 
L 84.390996 127.933135 
L 84.898777 133.592412 
L 85.152667 130.81234 
L 85.660447 129.448101 
L 85.914338 124.616884 
L 86.168228 124.751572 
L 86.422118 127.540483 
L 86.676008 126.250926 
L 86.929899 129.422828 
L 87.183789 123.370563 
L 87.437679 127.377331 
L 87.691569 123.229331 
L 87.94546 126.239937 
L 88.19935 122.318639 
L 88.45324 123.13629 
L 88.70713 124.762637 
L 88.961021 120.847195 
L 89.214911 121.082249 
L 89.468801 112.934807 
L 89.722691 122.139457 
L 89.976582 119.143284 
L 90.230472 120.728874 
L 90.484362 120.276007 
L 90.738252 117.429662 
L 90.992143 118.265477 
L 91.246033 112.277434 
L 91.499923 116.332344 
L 91.753813 110.022189 
L 92.007704 119.180537 
L 92.515484 111.418716 
L 92.769374 112.700341 
L 93.023265 110.022601 
L 93.277155 114.707594 
L 93.531045 110.568869 
L 93.784936 115.129148 
L 94.038826 114.681742 
L 94.292716 116.852231 
L 94.546606 105.830097 
L 94.800497 100.411292 
L 95.054387 113.34843 
L 95.308277 105.991442 
L 95.816058 109.808097 
L 96.069948 107.160284 
L 96.323838 107.153285 
L 96.577728 109.777188 
L 96.831619 105.125826 
L 97.085509 103.340193 
L 97.339399 110.011662 
L 97.84718 104.664322 
L 98.10107 108.912689 
L 98.35496 103.189962 
L 98.60885 104.273216 
L 98.862741 98.901629 
L 99.116631 106.92281 
L 99.370521 104.820736 
L 99.624411 104.583498 
L 99.878302 105.527292 
L 100.132192 102.383132 
L 100.386082 102.117244 
L 100.893863 93.407554 
L 101.147753 98.062688 
L 101.401643 100.457317 
L 101.655533 97.133059 
L 101.909424 100.583829 
L 102.163314 100.723381 
L 102.417204 95.691903 
L 102.671094 98.279233 
L 102.924985 98.198056 
L 103.178875 95.643727 
L 103.432765 95.938744 
L 103.686655 102.114312 
L 103.940546 95.41463 
L 104.194436 99.23284 
L 104.448326 99.322519 
L 104.702216 94.327638 
L 104.956107 93.259533 
L 105.209997 97.77325 
L 105.463887 95.558047 
L 105.717777 94.742261 
L 105.971668 92.455341 
L 106.225558 93.306415 
L 106.479448 98.763472 
L 106.733338 94.371999 
L 106.987229 84.36083 
L 107.241119 91.473202 
L 107.495009 92.174406 
L 107.748899 93.946017 
L 108.00279 89.574978 
L 108.25668 95.64939 
L 108.51057 91.953761 
L 108.76446 93.231572 
L 109.018351 95.437802 
L 109.272241 89.738038 
L 109.526131 89.95875 
L 109.780021 91.235536 
L 110.033912 90.096403 
L 110.287802 90.106502 
L 110.541692 91.227907 
L 110.795583 88.258099 
L 111.049473 92.647605 
L 111.303363 88.416941 
L 111.557253 89.835127 
L 111.811144 89.671362 
L 112.065034 89.881219 
L 112.318924 88.654574 
L 112.572814 92.735185 
L 112.826705 92.373812 
L 113.080595 90.334909 
L 113.334485 89.90303 
L 113.588375 86.485631 
L 113.842266 90.241802 
L 114.096156 88.466141 
L 114.350046 88.651936 
L 114.603936 86.858027 
L 114.857827 87.973971 
L 115.111717 89.770955 
L 115.365607 84.630255 
L 115.873388 88.94744 
L 116.127278 85.27421 
L 116.381168 87.964225 
L 116.635058 84.467212 
L 116.888949 82.827121 
L 117.142839 85.729245 
L 117.396729 85.285855 
L 117.650619 82.079136 
L 117.90451 83.814486 
L 118.1584 86.837779 
L 118.41229 85.551381 
L 118.66618 82.299865 
L 118.920071 83.71054 
L 119.173961 83.852932 
L 119.427851 88.237633 
L 119.681741 80.358792 
L 119.935632 85.43033 
L 120.189522 83.445148 
L 120.443412 80.366891 
L 120.951193 82.380975 
L 121.205083 80.616824 
L 121.458973 81.48045 
L 121.712863 80.637224 
L 121.966754 81.897005 
L 122.220644 80.513232 
L 122.474534 80.162865 
L 122.728424 80.446102 
L 122.982315 81.386687 
L 123.490095 81.797596 
L 123.743985 81.656431 
L 123.997876 80.354843 
L 124.251766 84.275721 
L 124.505656 80.868774 
L 124.759546 82.930579 
L 125.013437 81.810938 
L 125.267327 79.336073 
L 125.521217 79.963073 
L 125.775107 79.681567 
L 126.282888 82.282978 
L 126.536778 82.110256 
L 126.790669 79.696387 
L 127.044559 79.103565 
L 127.298449 80.965612 
L 127.552339 78.455611 
L 127.80623 79.514659 
L 128.06012 78.828023 
L 128.31401 78.796231 
L 128.5679 79.066194 
L 129.075681 75.014536 
L 129.583461 79.115142 
L 129.837352 79.422576 
L 130.091242 80.281329 
L 130.345132 80.28926 
L 130.599022 82.388251 
L 130.852913 78.699007 
L 131.614583 81.706119 
L 131.868474 79.985321 
L 132.122364 79.318177 
L 132.376254 80.149506 
L 132.630144 81.915455 
L 133.137925 78.447982 
L 133.391815 78.667619 
L 133.645705 79.093516 
L 133.899596 78.093431 
L 134.153486 77.987621 
L 134.407376 77.022974 
L 134.661266 78.720549 
L 134.915157 78.155402 
L 135.169047 79.00713 
L 135.422937 78.226379 
L 135.930718 80.588242 
L 136.184608 79.604254 
L 136.692388 78.635911 
L 136.946279 78.994578 
L 137.200169 78.721289 
L 137.454059 78.909284 
L 137.707949 77.647134 
L 137.96184 78.673668 
L 138.21573 78.047474 
L 138.46962 78.249131 
L 138.72351 79.438338 
L 139.231291 77.028031 
L 139.485181 78.257751 
L 139.992962 75.264839 
L 140.246852 76.842842 
L 140.500742 76.888933 
L 140.754632 75.962447 
L 141.008523 76.080037 
L 141.516303 77.302682 
L 141.770193 77.463658 
L 142.024084 76.069703 
L 142.277974 78.044819 
L 142.531864 77.954921 
L 142.785755 76.131203 
L 143.039645 75.836606 
L 143.293535 77.94247 
L 143.547425 78.036585 
L 143.801316 77.242694 
L 144.055206 77.157602 
L 144.309096 77.290382 
L 144.562986 75.528551 
L 145.070767 78.687497 
L 145.324657 77.157703 
L 145.578547 78.505954 
L 145.832438 76.825736 
L 146.340218 76.929093 
L 146.594108 77.143403 
L 146.847999 77.144932 
L 147.101889 76.918322 
L 147.355779 76.943174 
L 147.609669 77.175464 
L 147.86356 77.192771 
L 148.11745 76.303269 
L 148.37134 77.006204 
L 148.62523 77.092876 
L 148.879121 75.933965 
L 149.133011 76.58943 
L 149.386901 76.78193 
L 149.640791 77.442049 
L 149.894682 76.592791 
L 150.148572 77.671197 
L 150.402462 76.59353 
L 150.656352 76.480897 
L 150.910243 76.584288 
L 151.164133 75.943056 
L 151.418023 76.693914 
L 151.671913 76.144746 
L 151.925804 76.034516 
L 152.179694 75.785188 
L 152.687474 76.247852 
L 152.941365 76.33086 
L 153.195255 76.913886 
L 153.449145 76.612938 
L 153.703035 75.783289 
L 153.956926 75.890243 
L 154.210816 75.29979 
L 154.464706 76.261395 
L 154.718596 75.759009 
L 155.226377 76.454197 
L 155.480267 76.4505 
L 155.734157 75.982728 
L 155.988048 76.003783 
L 156.241938 76.865778 
L 156.495828 76.673716 
L 156.749718 76.26032 
L 157.003609 76.150829 
L 157.257499 76.39357 
L 157.511389 76.221319 
L 157.765279 76.269696 
L 158.01917 76.927883 
L 158.27306 76.256573 
L 158.52695 76.654476 
L 159.288621 76.374549 
L 159.542511 75.476863 
L 159.796402 75.259983 
L 160.050292 75.352115 
L 160.304182 75.8297 
L 160.558072 75.003076 
L 160.811963 75.640074 
L 161.065853 75.659482 
L 161.319743 75.81656 
L 161.573633 75.231047 
L 161.827524 75.331851 
L 162.081414 74.850838 
L 162.335304 75.259798 
L 162.843085 75.278634 
L 163.096975 75.540111 
L 163.350865 75.578641 
L 163.604755 75.115927 
L 163.858646 75.417396 
L 164.112536 75.508941 
L 164.366426 75.204145 
L 164.620316 74.669513 
L 164.874207 74.489549 
L 165.381987 75.030785 
L 165.635877 75.229417 
L 166.143658 74.523324 
L 166.651438 74.754588 
L 167.413109 74.584101 
L 167.666999 74.62085 
L 167.92089 74.856097 
L 168.17478 74.694483 
L 168.42867 74.314055 
L 168.68256 74.655952 
L 168.936451 74.503848 
L 169.444231 75.105812 
L 169.698121 75.096469 
L 169.952012 74.641922 
L 170.205902 74.519492 
L 170.459792 73.755427 
L 170.713682 74.434787 
L 170.967573 74.159212 
L 171.221463 74.453892 
L 171.475353 74.957993 
L 171.729243 74.817836 
L 171.983134 74.935275 
L 172.744804 74.555166 
L 172.998695 74.836185 
L 173.252585 74.526079 
L 174.014256 74.671159 
L 174.268146 74.896997 
L 174.522036 74.786346 
L 174.775926 74.841831 
L 176.045378 74.260082 
L 176.299268 74.37542 
L 176.553158 74.631386 
L 177.314829 74.508923 
L 177.568719 74.443676 
L 177.82261 74.214528 
L 178.0765 74.397853 
L 178.33039 74.096653 
L 178.58428 74.343645 
L 179.345951 74.456816 
L 179.599841 74.703607 
L 180.361512 74.478559 
L 180.615402 74.582303 
L 180.869293 74.232205 
L 181.377073 74.169193 
L 181.630963 74.539455 
L 181.884854 74.520601 
L 182.138744 74.345763 
L 182.392634 74.308022 
L 182.646524 74.535691 
L 182.900415 74.485499 
L 183.154305 74.593814 
L 183.662085 74.479954 
L 183.915976 74.728694 
L 184.169866 74.525794 
L 184.931537 74.430519 
L 185.693207 74.565802 
L 185.947098 74.695457 
L 186.200988 74.642056 
L 186.454878 74.442466 
L 186.962659 74.500118 
L 187.216549 74.253142 
L 187.97822 74.317146 
L 188.23211 74.191659 
L 188.486 74.376496 
L 190.009342 74.05898 
L 190.517122 74.125303 
L 192.040464 74.179426 
L 192.802135 74.095863 
L 194.325476 74.324002 
L 194.833257 74.196465 
L 195.087147 74.270551 
L 195.848818 74.098451 
L 196.610488 74.268652 
L 199.149391 74.23812 
L 199.657171 74.190113 
L 201.180513 74.232138 
L 202.703854 74.054678 
L 203.465525 74.18319 
L 203.973306 74.178149 
L 205.496647 74.328623 
L 206.004428 74.237734 
L 206.512208 74.255545 
L 208.28944 74.002588 
L 208.54333 74.090402 
L 209.051111 74.009158 
L 209.558891 74.063869 
L 220.476172 74.13194 
L 220.983953 74.166387 
L 221.745623 74.212562 
L 222.253404 74.253344 
L 223.776745 74.265627 
L 228.09288 74.249815 
L 235.709587 74.276953 
L 298.16659 74.255192 
L 301.213273 74.229114 
L 305.275517 74.229382 
L 309.845542 74.17499 
L 310.099432 74.170386 
L 310.099432 74.170386 
" clip-path="url(#p877ee47c90)" style="fill: none; stroke: #ff0000; stroke-width: 0.6; stroke-linecap: square"/>
   </g>
   <g id="patch_3">
    <path d="M 43.78125 239.76 
L 43.78125 37.296 
" style="fill: none; stroke: #000000; stroke-width: 0.8; stroke-linejoin: miter; stroke-linecap: square"/>
   </g>
   <g id="patch_4">
    <path d="M 322.78125 239.76 
L 322.78125 37.296 
" style="fill: none; stroke: #000000; stroke-width: 0.8; stroke-linejoin: miter; stroke-linecap: square"/>
   </g>
   <g id="patch_5">
    <path d="M 43.78125 239.76 
L 322.78125 239.76 
" style="fill: none; stroke: #000000; stroke-width: 0.8; stroke-linejoin: miter; stroke-linecap: square"/>
   </g>
   <g id="patch_6">
    <path d="M 43.78125 37.296 
L 322.78125 37.296 
" style="fill: none; stroke: #000000; stroke-width: 0.8; stroke-linejoin: miter; stroke-linecap: square"/>
   </g>
   <g id="text_16">
    <!-- Baseline Model -->
    <g transform="translate(149.259844 31.296) scale(0.09 -0.09)">
     <defs>
      <path id="DejaVuSans-42" d="M 1259 2228 
L 1259 519 
L 2272 519 
Q 2781 519 3026 730 
Q 3272 941 3272 1375 
Q 3272 1813 3026 2020 
Q 2781 2228 2272 2228 
L 1259 2228 
z
M 1259 4147 
L 1259 2741 
L 2194 2741 
Q 2656 2741 2882 2914 
Q 3109 3088 3109 3444 
Q 3109 3797 2882 3972 
Q 2656 4147 2194 4147 
L 1259 4147 
z
M 628 4666 
L 2241 4666 
Q 2963 4666 3353 4366 
Q 3744 4066 3744 3513 
Q 3744 3084 3544 2831 
Q 3344 2578 2956 2516 
Q 3422 2416 3680 2098 
Q 3938 1781 3938 1306 
Q 3938 681 3513 340 
Q 3088 0 2303 0 
L 628 0 
L 628 4666 
z
" transform="scale(0.015625)"/>
      <path id="DejaVuSans-61" d="M 2194 1759 
Q 1497 1759 1228 1600 
Q 959 1441 959 1056 
Q 959 750 1161 570 
Q 1363 391 1709 391 
Q 2188 391 2477 730 
Q 2766 1069 2766 1631 
L 2766 1759 
L 2194 1759 
z
M 3341 1997 
L 3341 0 
L 2766 0 
L 2766 531 
Q 2569 213 2275 61 
Q 1981 -91 1556 -91 
Q 1019 -91 701 211 
Q 384 513 384 1019 
Q 384 1609 779 1909 
Q 1175 2209 1959 2209 
L 2766 2209 
L 2766 2266 
Q 2766 2663 2505 2880 
Q 2244 3097 1772 3097 
Q 1472 3097 1187 3025 
Q 903 2953 641 2809 
L 641 3341 
Q 956 3463 1253 3523 
Q 1550 3584 1831 3584 
Q 2591 3584 2966 3190 
Q 3341 2797 3341 1997 
z
" transform="scale(0.015625)"/>
      <path id="DejaVuSans-65" d="M 3597 1894 
L 3597 1613 
L 953 1613 
Q 991 1019 1311 708 
Q 1631 397 2203 397 
Q 2534 397 2845 478 
Q 3156 559 3463 722 
L 3463 178 
Q 3153 47 2828 -22 
Q 2503 -91 2169 -91 
Q 1331 -91 842 396 
Q 353 884 353 1716 
Q 353 2575 817 3079 
Q 1281 3584 2069 3584 
Q 2775 3584 3186 3129 
Q 3597 2675 3597 1894 
z
M 3022 2063 
Q 3016 2534 2758 2815 
Q 2500 3097 2075 3097 
Q 1594 3097 1305 2825 
Q 1016 2553 972 2059 
L 3022 2063 
z
" transform="scale(0.015625)"/>
      <path id="DejaVuSans-6c" d="M 603 4863 
L 1178 4863 
L 1178 0 
L 603 0 
L 603 4863 
z
" transform="scale(0.015625)"/>
      <path id="DejaVuSans-69" d="M 603 3500 
L 1178 3500 
L 1178 0 
L 603 0 
L 603 3500 
z
M 603 4863 
L 1178 4863 
L 1178 4134 
L 603 4134 
L 603 4863 
z
" transform="scale(0.015625)"/>
      <path id="DejaVuSans-6e" d="M 3513 2113 
L 3513 0 
L 2938 0 
L 2938 2094 
Q 2938 2591 2744 2837 
Q 2550 3084 2163 3084 
Q 1697 3084 1428 2787 
Q 1159 2491 1159 1978 
L 1159 0 
L 581 0 
L 581 3500 
L 1159 3500 
L 1159 2956 
Q 1366 3272 1645 3428 
Q 1925 3584 2291 3584 
Q 2894 3584 3203 3211 
Q 3513 2838 3513 2113 
z
" transform="scale(0.015625)"/>
      <path id="DejaVuSans-20" transform="scale(0.015625)"/>
      <path id="DejaVuSans-4d" d="M 628 4666 
L 1569 4666 
L 2759 1491 
L 3956 4666 
L 4897 4666 
L 4897 0 
L 4281 0 
L 4281 4097 
L 3078 897 
L 2444 897 
L 1241 4097 
L 1241 0 
L 628 0 
L 628 4666 
z
" transform="scale(0.015625)"/>
      <path id="DejaVuSans-64" d="M 2906 2969 
L 2906 4863 
L 3481 4863 
L 3481 0 
L 2906 0 
L 2906 525 
Q 2725 213 2448 61 
Q 2172 -91 1784 -91 
Q 1150 -91 751 415 
Q 353 922 353 1747 
Q 353 2572 751 3078 
Q 1150 3584 1784 3584 
Q 2172 3584 2448 3432 
Q 2725 3281 2906 2969 
z
M 947 1747 
Q 947 1113 1208 752 
Q 1469 391 1925 391 
Q 2381 391 2643 752 
Q 2906 1113 2906 1747 
Q 2906 2381 2643 2742 
Q 2381 3103 1925 3103 
Q 1469 3103 1208 2742 
Q 947 2381 947 1747 
z
" transform="scale(0.015625)"/>
     </defs>
     <use xlink:href="#DejaVuSans-42"/>
     <use xlink:href="#DejaVuSans-61" x="68.603516"/>
     <use xlink:href="#DejaVuSans-73" x="129.882812"/>
     <use xlink:href="#DejaVuSans-65" x="181.982422"/>
     <use xlink:href="#DejaVuSans-6c" x="243.505859"/>
     <use xlink:href="#DejaVuSans-69" x="271.289062"/>
     <use xlink:href="#DejaVuSans-6e" x="299.072266"/>
     <use xlink:href="#DejaVuSans-65" x="362.451172"/>
     <use xlink:href="#DejaVuSans-20" x="423.974609"/>
     <use xlink:href="#DejaVuSans-4d" x="455.761719"/>
     <use xlink:href="#DejaVuSans-6f" x="542.041016"/>
     <use xlink:href="#DejaVuSans-64" x="603.222656"/>
     <use xlink:href="#DejaVuSans-65" x="666.699219"/>
     <use xlink:href="#DejaVuSans-6c" x="728.222656"/>
    </g>
   </g>
   <g id="legend_1">
    <g id="patch_7">
     <path d="M 209.2875 154.706125 
L 315.78125 154.706125 
Q 317.78125 154.706125 317.78125 152.706125 
L 317.78125 124.349875 
Q 317.78125 122.349875 315.78125 122.349875 
L 209.2875 122.349875 
Q 207.2875 122.349875 207.2875 124.349875 
L 207.2875 152.706125 
Q 207.2875 154.706125 209.2875 154.706125 
z
" style="fill: #ffffff; opacity: 0.8; stroke: #cccccc; stroke-linejoin: miter"/>
    </g>
    <g id="line2d_29">
     <path d="M 211.2875 130.448312 
L 221.2875 130.448312 
L 231.2875 130.448312 
" style="fill: none; stroke: #0000ff; stroke-width: 0.6; stroke-linecap: square"/>
    </g>
    <g id="text_17">
     <!-- Training Loss -->
     <g transform="translate(239.2875 133.948312) scale(0.1 -0.1)">
      <defs>
       <path id="DejaVuSans-54" d="M -19 4666 
L 3928 4666 
L 3928 4134 
L 2272 4134 
L 2272 0 
L 1638 0 
L 1638 4134 
L -19 4134 
L -19 4666 
z
" transform="scale(0.015625)"/>
       <path id="DejaVuSans-72" d="M 2631 2963 
Q 2534 3019 2420 3045 
Q 2306 3072 2169 3072 
Q 1681 3072 1420 2755 
Q 1159 2438 1159 1844 
L 1159 0 
L 581 0 
L 581 3500 
L 1159 3500 
L 1159 2956 
Q 1341 3275 1631 3429 
Q 1922 3584 2338 3584 
Q 2397 3584 2469 3576 
Q 2541 3569 2628 3553 
L 2631 2963 
z
" transform="scale(0.015625)"/>
       <path id="DejaVuSans-67" d="M 2906 1791 
Q 2906 2416 2648 2759 
Q 2391 3103 1925 3103 
Q 1463 3103 1205 2759 
Q 947 2416 947 1791 
Q 947 1169 1205 825 
Q 1463 481 1925 481 
Q 2391 481 2648 825 
Q 2906 1169 2906 1791 
z
M 3481 434 
Q 3481 -459 3084 -895 
Q 2688 -1331 1869 -1331 
Q 1566 -1331 1297 -1286 
Q 1028 -1241 775 -1147 
L 775 -588 
Q 1028 -725 1275 -790 
Q 1522 -856 1778 -856 
Q 2344 -856 2625 -561 
Q 2906 -266 2906 331 
L 2906 616 
Q 2728 306 2450 153 
Q 2172 0 1784 0 
Q 1141 0 747 490 
Q 353 981 353 1791 
Q 353 2603 747 3093 
Q 1141 3584 1784 3584 
Q 2172 3584 2450 3431 
Q 2728 3278 2906 2969 
L 2906 3500 
L 3481 3500 
L 3481 434 
z
" transform="scale(0.015625)"/>
      </defs>
      <use xlink:href="#DejaVuSans-54"/>
      <use xlink:href="#DejaVuSans-72" x="46.333984"/>
      <use xlink:href="#DejaVuSans-61" x="87.447266"/>
      <use xlink:href="#DejaVuSans-69" x="148.726562"/>
      <use xlink:href="#DejaVuSans-6e" x="176.509766"/>
      <use xlink:href="#DejaVuSans-69" x="239.888672"/>
      <use xlink:href="#DejaVuSans-6e" x="267.671875"/>
      <use xlink:href="#DejaVuSans-67" x="331.050781"/>
      <use xlink:href="#DejaVuSans-20" x="394.527344"/>
      <use xlink:href="#DejaVuSans-4c" x="426.314453"/>
      <use xlink:href="#DejaVuSans-6f" x="480.277344"/>
      <use xlink:href="#DejaVuSans-73" x="541.458984"/>
      <use xlink:href="#DejaVuSans-73" x="593.558594"/>
     </g>
    </g>
    <g id="line2d_30">
     <path d="M 211.2875 145.126437 
L 221.2875 145.126437 
L 231.2875 145.126437 
" style="fill: none; stroke: #ff0000; stroke-width: 0.6; stroke-linecap: square"/>
    </g>
    <g id="text_18">
     <!-- Validation Loss -->
     <g transform="translate(239.2875 148.626437) scale(0.1 -0.1)">
      <defs>
       <path id="DejaVuSans-56" d="M 1831 0 
L 50 4666 
L 709 4666 
L 2188 738 
L 3669 4666 
L 4325 4666 
L 2547 0 
L 1831 0 
z
" transform="scale(0.015625)"/>
       <path id="DejaVuSans-74" d="M 1172 4494 
L 1172 3500 
L 2356 3500 
L 2356 3053 
L 1172 3053 
L 1172 1153 
Q 1172 725 1289 603 
Q 1406 481 1766 481 
L 2356 481 
L 2356 0 
L 1766 0 
Q 1100 0 847 248 
Q 594 497 594 1153 
L 594 3053 
L 172 3053 
L 172 3500 
L 594 3500 
L 594 4494 
L 1172 4494 
z
" transform="scale(0.015625)"/>
      </defs>
      <use xlink:href="#DejaVuSans-56"/>
      <use xlink:href="#DejaVuSans-61" x="60.658203"/>
      <use xlink:href="#DejaVuSans-6c" x="121.9375"/>
      <use xlink:href="#DejaVuSans-69" x="149.720703"/>
      <use xlink:href="#DejaVuSans-64" x="177.503906"/>
      <use xlink:href="#DejaVuSans-61" x="240.980469"/>
      <use xlink:href="#DejaVuSans-74" x="302.259766"/>
      <use xlink:href="#DejaVuSans-69" x="341.46875"/>
      <use xlink:href="#DejaVuSans-6f" x="369.251953"/>
      <use xlink:href="#DejaVuSans-6e" x="430.433594"/>
      <use xlink:href="#DejaVuSans-20" x="493.8125"/>
      <use xlink:href="#DejaVuSans-4c" x="525.599609"/>
      <use xlink:href="#DejaVuSans-6f" x="579.5625"/>
      <use xlink:href="#DejaVuSans-73" x="640.744141"/>
      <use xlink:href="#DejaVuSans-73" x="692.84375"/>
     </g>
    </g>
   </g>
  </g>
  <g id="text_19">
   <!-- Training VS. Validation Loss - Dataset Size = 100.0% -->
   <g transform="translate(34.481016 15.558281) scale(0.11 -0.11)">
    <defs>
     <path id="DejaVuSans-53" d="M 3425 4513 
L 3425 3897 
Q 3066 4069 2747 4153 
Q 2428 4238 2131 4238 
Q 1616 4238 1336 4038 
Q 1056 3838 1056 3469 
Q 1056 3159 1242 3001 
Q 1428 2844 1947 2747 
L 2328 2669 
Q 3034 2534 3370 2195 
Q 3706 1856 3706 1288 
Q 3706 609 3251 259 
Q 2797 -91 1919 -91 
Q 1588 -91 1214 -16 
Q 841 59 441 206 
L 441 856 
Q 825 641 1194 531 
Q 1563 422 1919 422 
Q 2459 422 2753 634 
Q 3047 847 3047 1241 
Q 3047 1584 2836 1778 
Q 2625 1972 2144 2069 
L 1759 2144 
Q 1053 2284 737 2584 
Q 422 2884 422 3419 
Q 422 4038 858 4394 
Q 1294 4750 2059 4750 
Q 2388 4750 2728 4690 
Q 3069 4631 3425 4513 
z
" transform="scale(0.015625)"/>
     <path id="DejaVuSans-2d" d="M 313 2009 
L 1997 2009 
L 1997 1497 
L 313 1497 
L 313 2009 
z
" transform="scale(0.015625)"/>
     <path id="DejaVuSans-44" d="M 1259 4147 
L 1259 519 
L 2022 519 
Q 2988 519 3436 956 
Q 3884 1394 3884 2338 
Q 3884 3275 3436 3711 
Q 2988 4147 2022 4147 
L 1259 4147 
z
M 628 4666 
L 1925 4666 
Q 3281 4666 3915 4102 
Q 4550 3538 4550 2338 
Q 4550 1131 3912 565 
Q 3275 0 1925 0 
L 628 0 
L 628 4666 
z
" transform="scale(0.015625)"/>
     <path id="DejaVuSans-7a" d="M 353 3500 
L 3084 3500 
L 3084 2975 
L 922 459 
L 3084 459 
L 3084 0 
L 275 0 
L 275 525 
L 2438 3041 
L 353 3041 
L 353 3500 
z
" transform="scale(0.015625)"/>
     <path id="DejaVuSans-3d" d="M 678 2906 
L 4684 2906 
L 4684 2381 
L 678 2381 
L 678 2906 
z
M 678 1631 
L 4684 1631 
L 4684 1100 
L 678 1100 
L 678 1631 
z
" transform="scale(0.015625)"/>
     <path id="DejaVuSans-25" d="M 4653 2053 
Q 4381 2053 4226 1822 
Q 4072 1591 4072 1178 
Q 4072 772 4226 539 
Q 4381 306 4653 306 
Q 4919 306 5073 539 
Q 5228 772 5228 1178 
Q 5228 1588 5073 1820 
Q 4919 2053 4653 2053 
z
M 4653 2450 
Q 5147 2450 5437 2106 
Q 5728 1763 5728 1178 
Q 5728 594 5436 251 
Q 5144 -91 4653 -91 
Q 4153 -91 3862 251 
Q 3572 594 3572 1178 
Q 3572 1766 3864 2108 
Q 4156 2450 4653 2450 
z
M 1428 4353 
Q 1159 4353 1004 4120 
Q 850 3888 850 3481 
Q 850 3069 1003 2837 
Q 1156 2606 1428 2606 
Q 1700 2606 1854 2837 
Q 2009 3069 2009 3481 
Q 2009 3884 1853 4118 
Q 1697 4353 1428 4353 
z
M 4250 4750 
L 4750 4750 
L 1831 -91 
L 1331 -91 
L 4250 4750 
z
M 1428 4750 
Q 1922 4750 2215 4408 
Q 2509 4066 2509 3481 
Q 2509 2891 2217 2550 
Q 1925 2209 1428 2209 
Q 931 2209 642 2551 
Q 353 2894 353 3481 
Q 353 4063 643 4406 
Q 934 4750 1428 4750 
z
" transform="scale(0.015625)"/>
    </defs>
    <use xlink:href="#DejaVuSans-54"/>
    <use xlink:href="#DejaVuSans-72" x="46.333984"/>
    <use xlink:href="#DejaVuSans-61" x="87.447266"/>
    <use xlink:href="#DejaVuSans-69" x="148.726562"/>
    <use xlink:href="#DejaVuSans-6e" x="176.509766"/>
    <use xlink:href="#DejaVuSans-69" x="239.888672"/>
    <use xlink:href="#DejaVuSans-6e" x="267.671875"/>
    <use xlink:href="#DejaVuSans-67" x="331.050781"/>
    <use xlink:href="#DejaVuSans-20" x="394.527344"/>
    <use xlink:href="#DejaVuSans-56" x="426.314453"/>
    <use xlink:href="#DejaVuSans-53" x="494.722656"/>
    <use xlink:href="#DejaVuSans-2e" x="558.199219"/>
    <use xlink:href="#DejaVuSans-20" x="589.986328"/>
    <use xlink:href="#DejaVuSans-56" x="621.773438"/>
    <use xlink:href="#DejaVuSans-61" x="682.431641"/>
    <use xlink:href="#DejaVuSans-6c" x="743.710938"/>
    <use xlink:href="#DejaVuSans-69" x="771.494141"/>
    <use xlink:href="#DejaVuSans-64" x="799.277344"/>
    <use xlink:href="#DejaVuSans-61" x="862.753906"/>
    <use xlink:href="#DejaVuSans-74" x="924.033203"/>
    <use xlink:href="#DejaVuSans-69" x="963.242188"/>
    <use xlink:href="#DejaVuSans-6f" x="991.025391"/>
    <use xlink:href="#DejaVuSans-6e" x="1052.207031"/>
    <use xlink:href="#DejaVuSans-20" x="1115.585938"/>
    <use xlink:href="#DejaVuSans-4c" x="1147.373047"/>
    <use xlink:href="#DejaVuSans-6f" x="1201.335938"/>
    <use xlink:href="#DejaVuSans-73" x="1262.517578"/>
    <use xlink:href="#DejaVuSans-73" x="1314.617188"/>
    <use xlink:href="#DejaVuSans-20" x="1366.716797"/>
    <use xlink:href="#DejaVuSans-2d" x="1398.503906"/>
    <use xlink:href="#DejaVuSans-20" x="1434.587891"/>
    <use xlink:href="#DejaVuSans-44" x="1466.375"/>
    <use xlink:href="#DejaVuSans-61" x="1543.376953"/>
    <use xlink:href="#DejaVuSans-74" x="1604.65625"/>
    <use xlink:href="#DejaVuSans-61" x="1643.865234"/>
    <use xlink:href="#DejaVuSans-73" x="1705.144531"/>
    <use xlink:href="#DejaVuSans-65" x="1757.244141"/>
    <use xlink:href="#DejaVuSans-74" x="1818.767578"/>
    <use xlink:href="#DejaVuSans-20" x="1857.976562"/>
    <use xlink:href="#DejaVuSans-53" x="1889.763672"/>
    <use xlink:href="#DejaVuSans-69" x="1953.240234"/>
    <use xlink:href="#DejaVuSans-7a" x="1981.023438"/>
    <use xlink:href="#DejaVuSans-65" x="2033.513672"/>
    <use xlink:href="#DejaVuSans-20" x="2095.037109"/>
    <use xlink:href="#DejaVuSans-3d" x="2126.824219"/>
    <use xlink:href="#DejaVuSans-20" x="2210.613281"/>
    <use xlink:href="#DejaVuSans-31" x="2242.400391"/>
    <use xlink:href="#DejaVuSans-30" x="2306.023438"/>
    <use xlink:href="#DejaVuSans-30" x="2369.646484"/>
    <use xlink:href="#DejaVuSans-2e" x="2433.269531"/>
    <use xlink:href="#DejaVuSans-30" x="2465.056641"/>
    <use xlink:href="#DejaVuSans-25" x="2528.679688"/>
   </g>
  </g>
 </g>
 <defs>
  <clipPath id="p877ee47c90">
   <rect x="43.78125" y="37.296" width="279" height="202.464"/>
  </clipPath>
 </defs>
</svg>
