<?xml version="1.0" encoding="utf-8" standalone="no"?>
<!DOCTYPE svg PUBLIC "-//W3C//DTD SVG 1.1//EN"
  "http://www.w3.org/Graphics/SVG/1.1/DTD/svg11.dtd">
<svg xmlns:xlink="http://www.w3.org/1999/xlink" width="330.281484pt" height="277.31625pt" viewBox="0 0 330.281484 277.31625" xmlns="http://www.w3.org/2000/svg" version="1.1">
 <metadata>
  <rdf:RDF xmlns:dc="http://purl.org/dc/elements/1.1/" xmlns:cc="http://creativecommons.org/ns#" xmlns:rdf="http://www.w3.org/1999/02/22-rdf-syntax-ns#">
   <cc:Work>
    <dc:type rdf:resource="http://purl.org/dc/dcmitype/StillImage"/>
    <dc:date>2026-06-11T12:06:58.591631</dc:date>
    <dc:format>image/svg+xml</dc:format>
    <dc:creator>
     <cc:Agent>
      <dc:title>Matplotlib v3.8.4, https://matplotlib.org/</dc:title>
     </cc:Agent>
    </dc:creator>
   </cc:Work>
  </rdf:RDF>
 </metadata>
 <defs>
  <style type="text/css">*{stroke-linejoin: round; stroke-linecap: butt}</style>
 </defs>
 <g id="figure_1">
  <g id="patch_1">
   <path d="M 0 277.31625 
L 330.281484 277.31625 
L 330.281484 0 
L 0 0 
z
" style="fill: #ffffff"/>
  </g>
  <g id="axes_1">
   <g id="patch_2">
    <path d="M 43.78125 239.76 
L 322.78125 239.76 
L 322.78125 37.296 
L 43.78125 37.296 
z
" style="fill: #ffffff"/>
   </g>
   <g id="matplotlib.axis_1">
    <g id="xtick_1">
     <g id="line2d_1">
      <path d="M 56.209178 239.76 
L 56.209178 37.296 
" clip-path="url(#pd5bf6bd43c)" style="fill: none; stroke-dasharray: 2.96,1.28; stroke-dashoffset: 0; stroke: #b0b0b0; stroke-opacity: 0.4; stroke-width: 0.8"/>
     </g>
     <g id="line2d_2">
      <defs>
       <path id="m337222d165" d="M 0 0 
L 0 3.5 
" style="stroke: #000000; stroke-width: 0.8"/>
      </defs>
      <g>
       <use xlink:href="#m337222d165" x="56.209178" y="239.76" style="stroke: #000000; stroke-width: 0.8"/>
      </g>
     </g>
     <g id="text_1">
      <!-- 0 -->
      <g transform="translate(53.027928 254.358437) scale(0.1 -0.1)">
       <defs>
        <path id="DejaVuSans-30" d="M 2034 4250 
Q 1547 4250 1301 3770 
Q 1056 3291 1056 2328 
Q 1056 1369 1301 889 
Q 1547 409 2034 409 
Q 2525 409 2770 889 
Q 3016 1369 3016 2328 
Q 3016 3291 2770 3770 
Q 2525 4250 2034 4250 
z
M 2034 4750 
Q 2819 4750 3233 4129 
Q 3647 3509 3647 2328 
Q 3647 1150 3233 529 
Q 2819 -91 2034 -91 
Q 1250 -91 836 529 
Q 422 1150 422 2328 
Q 422 3509 836 4129 
Q 1250 4750 2034 4750 
z
" transform="scale(0.015625)"/>
       </defs>
       <use xlink:href="#DejaVuSans-30"/>
      </g>
     </g>
    </g>
    <g id="xtick_2">
     <g id="line2d_3">
      <path d="M 106.987229 239.76 
L 106.987229 37.296 
" clip-path="url(#pd5bf6bd43c)" style="fill: none; stroke-dasharray: 2.96,1.28; stroke-dashoffset: 0; stroke: #b0b0b0; stroke-opacity: 0.4; stroke-width: 0.8"/>
     </g>
     <g id="line2d_4">
      <g>
       <use xlink:href="#m337222d165" x="106.987229" y="239.76" style="stroke: #000000; stroke-width: 0.8"/>
      </g>
     </g>
     <g id="text_2">
      <!-- 200 -->
      <g transform="translate(97.443479 254.358437) scale(0.1 -0.1)">
       <defs>
        <path id="DejaVuSans-32" d="M 1228 531 
L 3431 531 
L 3431 0 
L 469 0 
L 469 531 
Q 828 903 1448 1529 
Q 2069 2156 2228 2338 
Q 2531 2678 2651 2914 
Q 2772 3150 2772 3378 
Q 2772 3750 2511 3984 
Q 2250 4219 1831 4219 
Q 1534 4219 1204 4116 
Q 875 4013 500 3803 
L 500 4441 
Q 881 4594 1212 4672 
Q 1544 4750 1819 4750 
Q 2544 4750 2975 4387 
Q 3406 4025 3406 3419 
Q 3406 3131 3298 2873 
Q 3191 2616 2906 2266 
Q 2828 2175 2409 1742 
Q 1991 1309 1228 531 
z
" transform="scale(0.015625)"/>
       </defs>
       <use xlink:href="#DejaVuSans-32"/>
       <use xlink:href="#DejaVuSans-30" x="63.623047"/>
       <use xlink:href="#DejaVuSans-30" x="127.246094"/>
      </g>
     </g>
    </g>
    <g id="xtick_3">
     <g id="line2d_5">
      <path d="M 157.765279 239.76 
L 157.765279 37.296 
" clip-path="url(#pd5bf6bd43c)" style="fill: none; stroke-dasharray: 2.96,1.28; stroke-dashoffset: 0; stroke: #b0b0b0; stroke-opacity: 0.4; stroke-width: 0.8"/>
     </g>
     <g id="line2d_6">
      <g>
       <use xlink:href="#m337222d165" x="157.765279" y="239.76" style="stroke: #000000; stroke-width: 0.8"/>
      </g>
     </g>
     <g id="text_3">
      <!-- 400 -->
      <g transform="translate(148.221529 254.358437) scale(0.1 -0.1)">
       <defs>
        <path id="DejaVuSans-34" d="M 2419 4116 
L 825 1625 
L 2419 1625 
L 2419 4116 
z
M 2253 4666 
L 3047 4666 
L 3047 1625 
L 3713 1625 
L 3713 1100 
L 3047 1100 
L 3047 0 
L 2419 0 
L 2419 1100 
L 313 1100 
L 313 1709 
L 2253 4666 
z
" transform="scale(0.015625)"/>
       </defs>
       <use xlink:href="#DejaVuSans-34"/>
       <use xlink:href="#DejaVuSans-30" x="63.623047"/>
       <use xlink:href="#DejaVuSans-30" x="127.246094"/>
      </g>
     </g>
    </g>
    <g id="xtick_4">
     <g id="line2d_7">
      <path d="M 208.54333 239.76 
L 208.54333 37.296 
" clip-path="url(#pd5bf6bd43c)" style="fill: none; stroke-dasharray: 2.96,1.28; stroke-dashoffset: 0; stroke: #b0b0b0; stroke-opacity: 0.4; stroke-width: 0.8"/>
     </g>
     <g id="line2d_8">
      <g>
       <use xlink:href="#m337222d165" x="208.54333" y="239.76" style="stroke: #000000; stroke-width: 0.8"/>
      </g>
     </g>
     <g id="text_4">
      <!-- 600 -->
      <g transform="translate(198.99958 254.358437) scale(0.1 -0.1)">
       <defs>
        <path id="DejaVuSans-36" d="M 2113 2584 
Q 1688 2584 1439 2293 
Q 1191 2003 1191 1497 
Q 1191 994 1439 701 
Q 1688 409 2113 409 
Q 2538 409 2786 701 
Q 3034 994 3034 1497 
Q 3034 2003 2786 2293 
Q 2538 2584 2113 2584 
z
M 3366 4563 
L 3366 3988 
Q 3128 4100 2886 4159 
Q 2644 4219 2406 4219 
Q 1781 4219 1451 3797 
Q 1122 3375 1075 2522 
Q 1259 2794 1537 2939 
Q 1816 3084 2150 3084 
Q 2853 3084 3261 2657 
Q 3669 2231 3669 1497 
Q 3669 778 3244 343 
Q 2819 -91 2113 -91 
Q 1303 -91 875 529 
Q 447 1150 447 2328 
Q 447 3434 972 4092 
Q 1497 4750 2381 4750 
Q 2619 4750 2861 4703 
Q 3103 4656 3366 4563 
z
" transform="scale(0.015625)"/>
       </defs>
       <use xlink:href="#DejaVuSans-36"/>
       <use xlink:href="#DejaVuSans-30" x="63.623047"/>
       <use xlink:href="#DejaVuSans-30" x="127.246094"/>
      </g>
     </g>
    </g>
    <g id="xtick_5">
     <g id="line2d_9">
      <path d="M 259.321381 239.76 
L 259.321381 37.296 
" clip-path="url(#pd5bf6bd43c)" style="fill: none; stroke-dasharray: 2.96,1.28; stroke-dashoffset: 0; stroke: #b0b0b0; stroke-opacity: 0.4; stroke-width: 0.8"/>
     </g>
     <g id="line2d_10">
      <g>
       <use xlink:href="#m337222d165" x="259.321381" y="239.76" style="stroke: #000000; stroke-width: 0.8"/>
      </g>
     </g>
     <g id="text_5">
      <!-- 800 -->
      <g transform="translate(249.777631 254.358437) scale(0.1 -0.1)">
       <defs>
        <path id="DejaVuSans-38" d="M 2034 2216 
Q 1584 2216 1326 1975 
Q 1069 1734 1069 1313 
Q 1069 891 1326 650 
Q 1584 409 2034 409 
Q 2484 409 2743 651 
Q 3003 894 3003 1313 
Q 3003 1734 2745 1975 
Q 2488 2216 2034 2216 
z
M 1403 2484 
Q 997 2584 770 2862 
Q 544 3141 544 3541 
Q 544 4100 942 4425 
Q 1341 4750 2034 4750 
Q 2731 4750 3128 4425 
Q 3525 4100 3525 3541 
Q 3525 3141 3298 2862 
Q 3072 2584 2669 2484 
Q 3125 2378 3379 2068 
Q 3634 1759 3634 1313 
Q 3634 634 3220 271 
Q 2806 -91 2034 -91 
Q 1263 -91 848 271 
Q 434 634 434 1313 
Q 434 1759 690 2068 
Q 947 2378 1403 2484 
z
M 1172 3481 
Q 1172 3119 1398 2916 
Q 1625 2713 2034 2713 
Q 2441 2713 2670 2916 
Q 2900 3119 2900 3481 
Q 2900 3844 2670 4047 
Q 2441 4250 2034 4250 
Q 1625 4250 1398 4047 
Q 1172 3844 1172 3481 
z
" transform="scale(0.015625)"/>
       </defs>
       <use xlink:href="#DejaVuSans-38"/>
       <use xlink:href="#DejaVuSans-30" x="63.623047"/>
       <use xlink:href="#DejaVuSans-30" x="127.246094"/>
      </g>
     </g>
    </g>
    <g id="xtick_6">
     <g id="line2d_11">
      <path d="M 310.099432 239.76 
L 310.099432 37.296 
" clip-path="url(#pd5bf6bd43c)" style="fill: none; stroke-dasharray: 2.96,1.28; stroke-dashoffset: 0; stroke: #b0b0b0; stroke-opacity: 0.4; stroke-width: 0.8"/>
     </g>
     <g id="line2d_12">
      <g>
       <use xlink:href="#m337222d165" x="310.099432" y="239.76" style="stroke: #000000; stroke-width: 0.8"/>
      </g>
     </g>
     <g id="text_6">
      <!-- 1000 -->
      <g transform="translate(297.374432 254.358437) scale(0.1 -0.1)">
       <defs>
        <path id="DejaVuSans-31" d="M 794 531 
L 1825 531 
L 1825 4091 
L 703 3866 
L 703 4441 
L 1819 4666 
L 2450 4666 
L 2450 531 
L 3481 531 
L 3481 0 
L 794 0 
L 794 531 
z
" transform="scale(0.015625)"/>
       </defs>
       <use xlink:href="#DejaVuSans-31"/>
       <use xlink:href="#DejaVuSans-30" x="63.623047"/>
       <use xlink:href="#DejaVuSans-30" x="127.246094"/>
       <use xlink:href="#DejaVuSans-30" x="190.869141"/>
      </g>
     </g>
    </g>
    <g id="text_7">
     <!-- Epochs -->
     <g transform="translate(165.365625 268.036562) scale(0.1 -0.1)">
      <defs>
       <path id="DejaVuSans-45" d="M 628 4666 
L 3578 4666 
L 3578 4134 
L 1259 4134 
L 1259 2753 
L 3481 2753 
L 3481 2222 
L 1259 2222 
L 1259 531 
L 3634 531 
L 3634 0 
L 628 0 
L 628 4666 
z
" transform="scale(0.015625)"/>
       <path id="DejaVuSans-70" d="M 1159 525 
L 1159 -1331 
L 581 -1331 
L 581 3500 
L 1159 3500 
L 1159 2969 
Q 1341 3281 1617 3432 
Q 1894 3584 2278 3584 
Q 2916 3584 3314 3078 
Q 3713 2572 3713 1747 
Q 3713 922 3314 415 
Q 2916 -91 2278 -91 
Q 1894 -91 1617 61 
Q 1341 213 1159 525 
z
M 3116 1747 
Q 3116 2381 2855 2742 
Q 2594 3103 2138 3103 
Q 1681 3103 1420 2742 
Q 1159 2381 1159 1747 
Q 1159 1113 1420 752 
Q 1681 391 2138 391 
Q 2594 391 2855 752 
Q 3116 1113 3116 1747 
z
" transform="scale(0.015625)"/>
       <path id="DejaVuSans-6f" d="M 1959 3097 
Q 1497 3097 1228 2736 
Q 959 2375 959 1747 
Q 959 1119 1226 758 
Q 1494 397 1959 397 
Q 2419 397 2687 759 
Q 2956 1122 2956 1747 
Q 2956 2369 2687 2733 
Q 2419 3097 1959 3097 
z
M 1959 3584 
Q 2709 3584 3137 3096 
Q 3566 2609 3566 1747 
Q 3566 888 3137 398 
Q 2709 -91 1959 -91 
Q 1206 -91 779 398 
Q 353 888 353 1747 
Q 353 2609 779 3096 
Q 1206 3584 1959 3584 
z
" transform="scale(0.015625)"/>
       <path id="DejaVuSans-63" d="M 3122 3366 
L 3122 2828 
Q 2878 2963 2633 3030 
Q 2388 3097 2138 3097 
Q 1578 3097 1268 2742 
Q 959 2388 959 1747 
Q 959 1106 1268 751 
Q 1578 397 2138 397 
Q 2388 397 2633 464 
Q 2878 531 3122 666 
L 3122 134 
Q 2881 22 2623 -34 
Q 2366 -91 2075 -91 
Q 1284 -91 818 406 
Q 353 903 353 1747 
Q 353 2603 823 3093 
Q 1294 3584 2113 3584 
Q 2378 3584 2631 3529 
Q 2884 3475 3122 3366 
z
" transform="scale(0.015625)"/>
       <path id="DejaVuSans-68" d="M 3513 2113 
L 3513 0 
L 2938 0 
L 2938 2094 
Q 2938 2591 2744 2837 
Q 2550 3084 2163 3084 
Q 1697 3084 1428 2787 
Q 1159 2491 1159 1978 
L 1159 0 
L 581 0 
L 581 4863 
L 1159 4863 
L 1159 2956 
Q 1366 3272 1645 3428 
Q 1925 3584 2291 3584 
Q 2894 3584 3203 3211 
Q 3513 2838 3513 2113 
z
" transform="scale(0.015625)"/>
       <path id="DejaVuSans-73" d="M 2834 3397 
L 2834 2853 
Q 2591 2978 2328 3040 
Q 2066 3103 1784 3103 
Q 1356 3103 1142 2972 
Q 928 2841 928 2578 
Q 928 2378 1081 2264 
Q 1234 2150 1697 2047 
L 1894 2003 
Q 2506 1872 2764 1633 
Q 3022 1394 3022 966 
Q 3022 478 2636 193 
Q 2250 -91 1575 -91 
Q 1294 -91 989 -36 
Q 684 19 347 128 
L 347 722 
Q 666 556 975 473 
Q 1284 391 1588 391 
Q 1994 391 2212 530 
Q 2431 669 2431 922 
Q 2431 1156 2273 1281 
Q 2116 1406 1581 1522 
L 1381 1569 
Q 847 1681 609 1914 
Q 372 2147 372 2553 
Q 372 3047 722 3315 
Q 1072 3584 1716 3584 
Q 2034 3584 2315 3537 
Q 2597 3491 2834 3397 
z
" transform="scale(0.015625)"/>
      </defs>
      <use xlink:href="#DejaVuSans-45"/>
      <use xlink:href="#DejaVuSans-70" x="63.183594"/>
      <use xlink:href="#DejaVuSans-6f" x="126.660156"/>
      <use xlink:href="#DejaVuSans-63" x="187.841797"/>
      <use xlink:href="#DejaVuSans-68" x="242.822266"/>
      <use xlink:href="#DejaVuSans-73" x="306.201172"/>
     </g>
    </g>
   </g>
   <g id="matplotlib.axis_2">
    <g id="ytick_1">
     <g id="line2d_13">
      <path d="M 43.78125 235.680578 
L 322.78125 235.680578 
" clip-path="url(#pd5bf6bd43c)" style="fill: none; stroke-dasharray: 2.96,1.28; stroke-dashoffset: 0; stroke: #b0b0b0; stroke-opacity: 0.4; stroke-width: 0.8"/>
     </g>
     <g id="line2d_14">
      <defs>
       <path id="m3735d1830d" d="M 0 0 
L -3.5 0 
" style="stroke: #000000; stroke-width: 0.8"/>
      </defs>
      <g>
       <use xlink:href="#m3735d1830d" x="43.78125" y="235.680578" style="stroke: #000000; stroke-width: 0.8"/>
      </g>
     </g>
     <g id="text_8">
      <!-- 0.0 -->
      <g transform="translate(20.878125 239.479796) scale(0.1 -0.1)">
       <defs>
        <path id="DejaVuSans-2e" d="M 684 794 
L 1344 794 
L 1344 0 
L 684 0 
L 684 794 
z
" transform="scale(0.015625)"/>
       </defs>
       <use xlink:href="#DejaVuSans-30"/>
       <use xlink:href="#DejaVuSans-2e" x="63.623047"/>
       <use xlink:href="#DejaVuSans-30" x="95.410156"/>
      </g>
     </g>
    </g>
    <g id="ytick_2">
     <g id="line2d_15">
      <path d="M 43.78125 202.801166 
L 322.78125 202.801166 
" clip-path="url(#pd5bf6bd43c)" style="fill: none; stroke-dasharray: 2.96,1.28; stroke-dashoffset: 0; stroke: #b0b0b0; stroke-opacity: 0.4; stroke-width: 0.8"/>
     </g>
     <g id="line2d_16">
      <g>
       <use xlink:href="#m3735d1830d" x="43.78125" y="202.801166" style="stroke: #000000; stroke-width: 0.8"/>
      </g>
     </g>
     <g id="text_9">
      <!-- 0.2 -->
      <g transform="translate(20.878125 206.600384) scale(0.1 -0.1)">
       <use xlink:href="#DejaVuSans-30"/>
       <use xlink:href="#DejaVuSans-2e" x="63.623047"/>
       <use xlink:href="#DejaVuSans-32" x="95.410156"/>
      </g>
     </g>
    </g>
    <g id="ytick_3">
     <g id="line2d_17">
      <path d="M 43.78125 169.921753 
L 322.78125 169.921753 
" clip-path="url(#pd5bf6bd43c)" style="fill: none; stroke-dasharray: 2.96,1.28; stroke-dashoffset: 0; stroke: #b0b0b0; stroke-opacity: 0.4; stroke-width: 0.8"/>
     </g>
     <g id="line2d_18">
      <g>
       <use xlink:href="#m3735d1830d" x="43.78125" y="169.921753" style="stroke: #000000; stroke-width: 0.8"/>
      </g>
     </g>
     <g id="text_10">
      <!-- 0.4 -->
      <g transform="translate(20.878125 173.720972) scale(0.1 -0.1)">
       <use xlink:href="#DejaVuSans-30"/>
       <use xlink:href="#DejaVuSans-2e" x="63.623047"/>
       <use xlink:href="#DejaVuSans-34" x="95.410156"/>
      </g>
     </g>
    </g>
    <g id="ytick_4">
     <g id="line2d_19">
      <path d="M 43.78125 137.042341 
L 322.78125 137.042341 
" clip-path="url(#pd5bf6bd43c)" style="fill: none; stroke-dasharray: 2.96,1.28; stroke-dashoffset: 0; stroke: #b0b0b0; stroke-opacity: 0.4; stroke-width: 0.8"/>
     </g>
     <g id="line2d_20">
      <g>
       <use xlink:href="#m3735d1830d" x="43.78125" y="137.042341" style="stroke: #000000; stroke-width: 0.8"/>
      </g>
     </g>
     <g id="text_11">
      <!-- 0.6 -->
      <g transform="translate(20.878125 140.84156) scale(0.1 -0.1)">
       <use xlink:href="#DejaVuSans-30"/>
       <use xlink:href="#DejaVuSans-2e" x="63.623047"/>
       <use xlink:href="#DejaVuSans-36" x="95.410156"/>
      </g>
     </g>
    </g>
    <g id="ytick_5">
     <g id="line2d_21">
      <path d="M 43.78125 104.162929 
L 322.78125 104.162929 
" clip-path="url(#pd5bf6bd43c)" style="fill: none; stroke-dasharray: 2.96,1.28; stroke-dashoffset: 0; stroke: #b0b0b0; stroke-opacity: 0.4; stroke-width: 0.8"/>
     </g>
     <g id="line2d_22">
      <g>
       <use xlink:href="#m3735d1830d" x="43.78125" y="104.162929" style="stroke: #000000; stroke-width: 0.8"/>
      </g>
     </g>
     <g id="text_12">
      <!-- 0.8 -->
      <g transform="translate(20.878125 107.962148) scale(0.1 -0.1)">
       <use xlink:href="#DejaVuSans-30"/>
       <use xlink:href="#DejaVuSans-2e" x="63.623047"/>
       <use xlink:href="#DejaVuSans-38" x="95.410156"/>
      </g>
     </g>
    </g>
    <g id="ytick_6">
     <g id="line2d_23">
      <path d="M 43.78125 71.283517 
L 322.78125 71.283517 
" clip-path="url(#pd5bf6bd43c)" style="fill: none; stroke-dasharray: 2.96,1.28; stroke-dashoffset: 0; stroke: #b0b0b0; stroke-opacity: 0.4; stroke-width: 0.8"/>
     </g>
     <g id="line2d_24">
      <g>
       <use xlink:href="#m3735d1830d" x="43.78125" y="71.283517" style="stroke: #000000; stroke-width: 0.8"/>
      </g>
     </g>
     <g id="text_13">
      <!-- 1.0 -->
      <g transform="translate(20.878125 75.082736) scale(0.1 -0.1)">
       <use xlink:href="#DejaVuSans-31"/>
       <use xlink:href="#DejaVuSans-2e" x="63.623047"/>
       <use xlink:href="#DejaVuSans-30" x="95.410156"/>
      </g>
     </g>
    </g>
    <g id="ytick_7">
     <g id="line2d_25">
      <path d="M 43.78125 38.404105 
L 322.78125 38.404105 
" clip-path="url(#pd5bf6bd43c)" style="fill: none; stroke-dasharray: 2.96,1.28; stroke-dashoffset: 0; stroke: #b0b0b0; stroke-opacity: 0.4; stroke-width: 0.8"/>
     </g>
     <g id="line2d_26">
      <g>
       <use xlink:href="#m3735d1830d" x="43.78125" y="38.404105" style="stroke: #000000; stroke-width: 0.8"/>
      </g>
     </g>
     <g id="text_14">
      <!-- 1.2 -->
      <g transform="translate(20.878125 42.203324) scale(0.1 -0.1)">
       <use xlink:href="#DejaVuSans-31"/>
       <use xlink:href="#DejaVuSans-2e" x="63.623047"/>
       <use xlink:href="#DejaVuSans-32" x="95.410156"/>
      </g>
     </g>
    </g>
    <g id="text_15">
     <!-- Loss -->
     <g transform="translate(14.798438 149.495187) rotate(-90) scale(0.1 -0.1)">
      <defs>
       <path id="DejaVuSans-4c" d="M 628 4666 
L 1259 4666 
L 1259 531 
L 3531 531 
L 3531 0 
L 628 0 
L 628 4666 
z
" transform="scale(0.015625)"/>
      </defs>
      <use xlink:href="#DejaVuSans-4c"/>
      <use xlink:href="#DejaVuSans-6f" x="53.962891"/>
      <use xlink:href="#DejaVuSans-73" x="115.144531"/>
      <use xlink:href="#DejaVuSans-73" x="167.244141"/>
     </g>
    </g>
   </g>
   <g id="line2d_27">
    <path d="M 56.463068 121.354158 
L 56.716958 121.980666 
L 56.970849 122.166902 
L 57.224739 122.592201 
L 57.478629 123.342301 
L 57.732519 124.809754 
L 57.98641 129.655393 
L 58.2403 140.786528 
L 58.74808 148.781716 
L 59.001971 151.072447 
L 59.255861 151.630294 
L 59.763641 155.84111 
L 60.017532 158.892392 
L 60.271422 159.084591 
L 60.525312 161.741558 
L 60.779202 162.348017 
L 61.033093 164.322413 
L 61.286983 167.207095 
L 61.794764 170.003259 
L 62.048654 169.719343 
L 62.302544 173.073389 
L 62.556434 173.720322 
L 62.810325 173.639996 
L 63.064215 175.498114 
L 63.318105 174.868181 
L 63.571995 177.650554 
L 64.079776 178.723942 
L 64.333666 176.924025 
L 64.587556 179.941334 
L 64.841447 179.75131 
L 65.349227 183.019312 
L 65.603117 184.289779 
L 65.857008 183.97827 
L 66.110898 186.720516 
L 66.364788 186.903044 
L 66.872569 187.965173 
L 67.126459 189.448044 
L 67.380349 188.897899 
L 67.634239 189.050202 
L 67.88813 188.99991 
L 68.14202 191.293825 
L 68.39591 191.3613 
L 68.6498 178.209185 
L 68.903691 190.081024 
L 69.157581 192.366532 
L 69.411471 189.859835 
L 69.665361 191.5829 
L 69.919252 195.271471 
L 70.173142 194.87078 
L 70.427032 195.433424 
L 70.680922 192.572185 
L 70.934813 196.199346 
L 71.188703 197.449844 
L 71.442593 196.25992 
L 71.696483 197.659286 
L 71.950374 196.800948 
L 72.204264 196.555326 
L 72.458154 197.290698 
L 72.712044 197.430346 
L 72.965935 198.764876 
L 73.219825 198.640798 
L 73.473715 199.711751 
L 73.727605 199.12087 
L 73.981496 199.415344 
L 74.489276 201.277761 
L 74.743166 199.435459 
L 74.997057 198.659982 
L 75.250947 194.630089 
L 75.758727 201.797682 
L 76.012618 200.549147 
L 76.266508 201.132486 
L 76.520398 202.38995 
L 76.774288 201.69231 
L 77.028179 200.352065 
L 77.282069 204.31904 
L 77.535959 204.846891 
L 77.78985 205.008584 
L 78.04374 199.585743 
L 78.55152 204.897225 
L 78.805411 202.922286 
L 79.059301 202.25489 
L 79.313191 205.838951 
L 79.567081 203.767165 
L 79.820972 206.586134 
L 80.074862 205.335211 
L 80.328752 204.966589 
L 80.582642 207.426354 
L 81.090423 206.665823 
L 81.344313 204.833572 
L 81.598203 204.99272 
L 81.852094 206.937814 
L 82.105984 204.913778 
L 82.359874 207.959357 
L 82.613764 208.41778 
L 82.867655 203.620305 
L 83.375435 208.547583 
L 83.629325 208.909848 
L 83.883216 206.88968 
L 84.137106 211.774195 
L 84.390996 206.642142 
L 84.898777 208.386926 
L 85.152667 206.192199 
L 85.406557 208.792948 
L 85.660447 208.497702 
L 85.914338 210.615518 
L 86.168228 209.68383 
L 86.422118 209.322751 
L 86.676008 209.994607 
L 87.183789 214.868961 
L 87.437679 214.99298 
L 87.94546 216.762286 
L 88.19935 217.588363 
L 88.45324 217.656396 
L 88.70713 216.159469 
L 88.961021 218.586452 
L 89.214911 217.162764 
L 89.468801 216.427472 
L 89.976582 217.474777 
L 90.230472 217.657902 
L 90.484362 218.875396 
L 90.738252 216.673195 
L 90.992143 218.204861 
L 91.246033 217.682882 
L 91.499923 218.993543 
L 91.753813 219.63185 
L 92.007704 220.92905 
L 92.261594 219.263809 
L 92.769374 220.287391 
L 93.023265 220.225393 
L 93.277155 217.240761 
L 93.531045 219.745131 
L 93.784936 220.620992 
L 94.546606 216.886359 
L 94.800497 218.303981 
L 95.054387 220.582406 
L 95.562167 220.194622 
L 95.816058 219.662584 
L 96.069948 218.553033 
L 96.577728 220.615839 
L 96.831619 219.278096 
L 97.085509 222.317914 
L 97.339399 220.030507 
L 97.593289 220.562167 
L 97.84718 219.524465 
L 98.35496 222.182671 
L 98.60885 221.344072 
L 98.862741 218.383976 
L 99.116631 220.850077 
L 99.370521 220.110673 
L 99.624411 222.34679 
L 99.878302 222.64266 
L 100.132192 221.597541 
L 100.386082 222.476638 
L 100.639972 224.651422 
L 100.893863 224.418924 
L 101.147753 222.787937 
L 101.401643 224.207082 
L 101.655533 224.299747 
L 101.909424 224.975668 
L 102.417204 223.653423 
L 102.671094 224.555532 
L 102.924985 224.483036 
L 103.178875 224.101393 
L 103.940546 225.228318 
L 104.194436 225.146922 
L 104.448326 224.452466 
L 104.702216 224.246436 
L 104.956107 225.516987 
L 105.209997 225.111103 
L 105.463887 224.083798 
L 105.717777 225.421164 
L 105.971668 224.318635 
L 106.225558 225.111135 
L 106.479448 225.305876 
L 106.733338 224.589006 
L 106.987229 225.041111 
L 107.241119 226.12366 
L 107.748899 223.086972 
L 108.00279 225.246435 
L 108.25668 223.582011 
L 108.51057 223.321709 
L 108.76446 224.548595 
L 109.018351 224.086741 
L 109.272241 224.661904 
L 109.526131 224.528458 
L 109.780021 225.723413 
L 110.033912 224.33345 
L 110.287802 225.218896 
L 110.541692 224.613402 
L 110.795583 224.830709 
L 111.049473 225.915535 
L 111.303363 226.238331 
L 111.557253 225.765661 
L 111.811144 226.338226 
L 112.065034 224.80688 
L 112.318924 224.694298 
L 112.572814 226.202969 
L 112.826705 226.482439 
L 113.080595 227.63516 
L 113.588375 226.631502 
L 113.842266 226.550636 
L 114.096156 226.633091 
L 114.350046 227.900238 
L 114.603936 226.229686 
L 114.857827 227.40238 
L 115.111717 226.936168 
L 115.619497 226.749122 
L 115.873388 226.433554 
L 116.127278 227.977463 
L 116.381168 226.435649 
L 116.635058 227.875977 
L 116.888949 227.552119 
L 117.142839 226.59912 
L 117.396729 227.131699 
L 117.90451 227.598443 
L 118.1584 227.150375 
L 118.41229 227.006039 
L 118.66618 227.84105 
L 118.920071 226.122144 
L 119.681741 226.971375 
L 119.935632 226.692491 
L 120.189522 227.254363 
L 120.443412 227.468719 
L 120.697302 227.884607 
L 120.951193 226.381461 
L 121.205083 226.896065 
L 121.458973 226.899715 
L 121.712863 227.708158 
L 121.966754 227.213978 
L 122.220644 227.296397 
L 122.728424 226.388019 
L 122.982315 227.278726 
L 123.236205 227.104785 
L 123.490095 227.612921 
L 123.743985 226.651629 
L 123.997876 226.898373 
L 124.505656 226.899778 
L 124.759546 228.092513 
L 125.013437 228.30909 
L 125.267327 227.876077 
L 125.521217 227.149713 
L 125.775107 228.35998 
L 126.028998 228.282395 
L 126.282888 226.869096 
L 126.536778 227.973461 
L 126.790669 228.493164 
L 127.044559 227.80583 
L 127.298449 228.319048 
L 127.552339 226.35275 
L 127.80623 227.767692 
L 128.06012 227.511593 
L 128.31401 228.550053 
L 128.5679 227.387275 
L 128.821791 227.471712 
L 129.075681 229.434311 
L 129.329571 227.246804 
L 129.583461 227.509062 
L 129.837352 228.596243 
L 130.091242 228.168537 
L 130.345132 228.410243 
L 130.599022 227.901831 
L 130.852913 227.955074 
L 131.106803 227.153448 
L 131.360693 228.631739 
L 131.614583 228.991821 
L 132.122364 228.198411 
L 132.376254 228.704517 
L 132.630144 227.681286 
L 132.884035 228.098699 
L 133.137925 228.954855 
L 133.391815 228.142954 
L 133.645705 228.511853 
L 133.899596 228.475698 
L 134.153486 228.274678 
L 134.407376 228.583832 
L 134.661266 228.335137 
L 134.915157 228.24941 
L 135.169047 228.868609 
L 135.422937 227.784458 
L 135.676827 228.746389 
L 135.930718 228.462194 
L 136.438498 227.651494 
L 136.692388 228.640735 
L 136.946279 228.215528 
L 137.200169 229.106419 
L 137.454059 228.173651 
L 137.707949 229.457065 
L 137.96184 229.038224 
L 138.21573 227.791278 
L 138.46962 228.647923 
L 138.72351 228.999264 
L 138.977401 228.147843 
L 139.231291 228.287752 
L 139.485181 228.738053 
L 139.992962 228.380328 
L 140.246852 228.535145 
L 140.500742 228.954253 
L 140.754632 229.047051 
L 141.008523 228.22037 
L 141.262413 228.29215 
L 141.516303 228.846023 
L 142.024084 228.305518 
L 142.277974 228.92225 
L 142.531864 228.059919 
L 142.785755 229.098604 
L 143.039645 228.168811 
L 143.293535 228.251608 
L 143.547425 228.923355 
L 143.801316 228.909857 
L 144.055206 228.034022 
L 144.309096 228.942048 
L 144.562986 228.985897 
L 144.816877 228.290802 
L 145.070767 228.290021 
L 145.324657 228.483962 
L 145.578547 229.215529 
L 145.832438 228.635302 
L 146.086328 229.574778 
L 146.340218 228.958052 
L 146.594108 229.492955 
L 146.847999 228.57682 
L 147.355779 229.340589 
L 147.609669 228.14531 
L 147.86356 228.987822 
L 148.11745 228.482666 
L 148.37134 229.012378 
L 148.62523 227.65815 
L 148.879121 228.253571 
L 149.133011 229.149876 
L 149.386901 229.219791 
L 149.640791 228.442872 
L 150.148572 228.886305 
L 150.402462 229.146328 
L 150.656352 228.580464 
L 150.910243 228.846743 
L 151.164133 228.460365 
L 151.418023 229.769829 
L 151.671913 229.291803 
L 151.925804 228.034243 
L 152.433584 229.517176 
L 152.687474 229.097793 
L 152.941365 229.297954 
L 153.195255 228.707892 
L 153.449145 229.165621 
L 153.956926 229.258209 
L 154.210816 228.821817 
L 154.464706 229.201885 
L 154.718596 228.541462 
L 154.972487 229.247095 
L 155.226377 229.041454 
L 155.480267 229.528344 
L 155.734157 228.211239 
L 155.988048 228.79373 
L 156.241938 229.702399 
L 156.495828 229.216171 
L 157.257499 228.928191 
L 157.511389 228.498864 
L 158.01917 230.073682 
L 158.27306 228.515006 
L 158.52695 228.49353 
L 158.78084 229.733503 
L 159.034731 228.833785 
L 159.288621 228.846057 
L 159.542511 228.978238 
L 159.796402 229.359001 
L 160.558072 229.027888 
L 160.811963 228.825556 
L 161.319743 229.55343 
L 161.573633 229.360621 
L 161.827524 228.730497 
L 162.081414 228.484442 
L 162.589194 229.704716 
L 162.843085 228.761624 
L 163.096975 229.632721 
L 163.350865 228.801063 
L 163.604755 229.303586 
L 163.858646 228.52586 
L 164.112536 229.676855 
L 164.620316 229.461581 
L 164.874207 228.651821 
L 165.128097 229.367364 
L 165.381987 228.926294 
L 165.635877 229.323118 
L 165.889768 228.944276 
L 166.143658 229.086401 
L 166.651438 228.858734 
L 166.905329 229.413342 
L 167.159219 229.696869 
L 167.413109 227.339941 
L 167.666999 229.377115 
L 167.92089 229.018379 
L 168.17478 229.0423 
L 168.42867 229.235526 
L 168.68256 228.821461 
L 169.190341 228.555521 
L 169.444231 229.182499 
L 169.698121 229.309074 
L 169.952012 229.839536 
L 170.205902 228.786139 
L 170.459792 229.492339 
L 170.713682 228.667058 
L 170.967573 229.158794 
L 171.221463 229.346633 
L 171.475353 228.803648 
L 171.729243 229.867536 
L 171.983134 229.473879 
L 172.237024 227.899404 
L 172.490914 228.719577 
L 172.744804 227.75759 
L 172.998695 229.970671 
L 173.252585 229.042896 
L 173.506475 228.717848 
L 173.760365 229.572274 
L 174.014256 229.806645 
L 174.268146 228.551467 
L 174.522036 228.831345 
L 175.283707 229.18682 
L 175.537597 229.6992 
L 176.045378 228.539479 
L 176.299268 229.581803 
L 176.553158 229.443201 
L 176.807049 229.143223 
L 177.060939 229.38334 
L 177.314829 229.36276 
L 177.568719 228.999151 
L 177.82261 229.587683 
L 178.0765 229.086565 
L 178.33039 229.242261 
L 178.58428 229.718027 
L 178.838171 229.117437 
L 179.092061 229.617356 
L 179.345951 228.453315 
L 179.599841 228.230213 
L 179.853732 229.35857 
L 180.107622 228.741231 
L 180.361512 229.97327 
L 180.615402 229.152919 
L 180.869293 229.736179 
L 181.123183 229.11834 
L 181.630963 229.539257 
L 181.884854 229.465165 
L 182.138744 230.077447 
L 182.392634 229.656149 
L 182.646524 229.475279 
L 182.900415 228.912014 
L 183.154305 228.909626 
L 183.408195 228.376104 
L 183.662085 229.682684 
L 184.169866 228.210707 
L 184.423756 229.103339 
L 184.677646 229.197478 
L 184.931537 229.641011 
L 185.185427 228.668746 
L 185.439317 229.221272 
L 185.693207 228.755235 
L 185.947098 229.094287 
L 186.200988 229.151805 
L 186.454878 228.050944 
L 186.708768 228.671708 
L 186.962659 228.884628 
L 187.216549 229.38609 
L 187.470439 228.907673 
L 187.724329 230.159776 
L 187.97822 228.18523 
L 188.23211 228.432952 
L 188.486 229.371382 
L 188.73989 227.857086 
L 188.993781 229.227952 
L 189.247671 227.806332 
L 189.501561 229.528282 
L 189.755451 229.427844 
L 190.009342 228.537223 
L 190.263232 228.929822 
L 190.517122 228.261816 
L 190.771012 228.710929 
L 191.024903 230.242018 
L 191.278793 228.80408 
L 191.532683 229.740129 
L 191.786574 228.880461 
L 192.040464 228.467611 
L 192.294354 229.670313 
L 192.548244 228.985055 
L 192.802135 229.536472 
L 193.056025 229.256785 
L 193.309915 230.037262 
L 193.563805 229.489753 
L 193.817696 228.619241 
L 194.071586 228.346302 
L 194.325476 229.59238 
L 194.579366 229.342723 
L 194.833257 229.767013 
L 195.087147 229.126555 
L 195.341037 229.339806 
L 195.594927 229.775683 
L 195.848818 228.080589 
L 196.102708 229.337882 
L 196.610488 229.798112 
L 196.864379 229.543935 
L 197.118269 229.56573 
L 197.372159 228.68748 
L 197.87994 228.742044 
L 198.13383 229.222719 
L 198.38772 228.709143 
L 198.64161 229.268592 
L 198.895501 228.967284 
L 199.149391 229.892802 
L 199.403281 229.291163 
L 199.657171 229.094692 
L 199.911062 228.605992 
L 200.164952 229.976702 
L 200.418842 228.540847 
L 200.672732 229.168607 
L 200.926623 229.052349 
L 201.180513 229.537856 
L 201.434403 229.213996 
L 201.688293 230.391917 
L 201.942184 228.022333 
L 202.196074 229.797066 
L 202.449964 228.395035 
L 202.703854 229.695797 
L 202.957745 228.775387 
L 203.211635 228.758144 
L 203.465525 229.775358 
L 203.973306 228.176245 
L 204.227196 229.259418 
L 204.481086 229.055495 
L 204.734976 229.596414 
L 204.988867 229.499938 
L 205.242757 229.040157 
L 205.496647 229.831154 
L 205.750537 229.968767 
L 206.004428 228.653533 
L 206.512208 229.50482 
L 206.766098 229.413231 
L 207.019989 229.190011 
L 207.273879 229.454152 
L 207.78166 228.03872 
L 208.03555 229.5496 
L 208.28944 229.131783 
L 208.54333 229.461193 
L 208.797221 228.534043 
L 209.051111 229.676203 
L 209.305001 229.054194 
L 209.558891 229.477211 
L 209.812782 229.288081 
L 210.320562 228.400959 
L 210.574452 229.221456 
L 210.828343 229.583853 
L 211.082233 229.351074 
L 211.336123 229.431925 
L 211.590013 228.868977 
L 211.843904 229.438733 
L 212.097794 229.68461 
L 212.351684 229.309556 
L 212.605574 228.232286 
L 212.859465 229.510364 
L 213.113355 229.608456 
L 213.367245 229.109306 
L 213.621135 229.196451 
L 213.875026 228.381805 
L 214.128916 228.849034 
L 214.382806 228.64787 
L 214.636696 229.732629 
L 214.890587 228.219447 
L 215.398367 229.925274 
L 215.652257 229.275232 
L 215.906148 229.108353 
L 216.160038 230.557091 
L 216.413928 229.199716 
L 216.667818 228.628063 
L 217.175599 229.241302 
L 217.429489 229.218956 
L 217.683379 229.335855 
L 217.93727 228.433877 
L 218.19116 228.991159 
L 218.44505 228.982459 
L 218.69894 228.495031 
L 218.952831 228.625512 
L 219.206721 229.182238 
L 219.714501 228.594799 
L 220.222282 229.11671 
L 220.476172 229.758948 
L 220.730062 229.333127 
L 220.983953 229.437988 
L 221.237843 229.113433 
L 221.491733 228.545905 
L 221.745623 229.095762 
L 221.999514 227.992923 
L 222.253404 229.509753 
L 222.507294 228.89474 
L 222.761184 229.898389 
L 223.015075 229.115737 
L 223.522855 230.042462 
L 224.030636 229.721897 
L 224.284526 229.457137 
L 224.538416 229.669193 
L 224.792307 229.54447 
L 225.046197 229.545908 
L 225.300087 228.931862 
L 225.807868 229.698591 
L 226.061758 229.183637 
L 226.315648 229.456043 
L 226.569538 229.097434 
L 226.823429 229.62313 
L 227.077319 229.140999 
L 227.331209 229.572767 
L 227.585099 229.415251 
L 227.83899 229.023199 
L 228.34677 229.691759 
L 228.60066 229.73286 
L 228.854551 228.710606 
L 229.362331 229.707538 
L 229.616221 230.010386 
L 229.870112 229.404698 
L 230.124002 229.396939 
L 230.377892 229.217901 
L 230.631782 228.502955 
L 230.885673 229.408447 
L 231.393453 229.033026 
L 231.647343 229.683767 
L 231.901234 229.255826 
L 232.155124 229.914365 
L 232.409014 228.592388 
L 232.662904 229.039767 
L 232.916795 229.012847 
L 233.170685 229.691181 
L 233.424575 229.504744 
L 233.678465 228.232042 
L 233.932356 229.457196 
L 234.186246 228.966702 
L 235.455697 229.353141 
L 235.709587 228.872628 
L 236.217368 228.615727 
L 236.471258 229.064827 
L 236.725148 229.109101 
L 237.232929 228.272731 
L 237.486819 229.097834 
L 237.740709 228.850032 
L 238.24849 230.104274 
L 238.50238 229.024561 
L 238.75627 228.848515 
L 239.010161 228.26192 
L 239.264051 228.943203 
L 239.517941 229.038791 
L 239.771831 229.672149 
L 240.025722 229.909199 
L 240.279612 229.600666 
L 240.533502 230.18114 
L 240.787393 229.703309 
L 241.041283 228.352251 
L 241.295173 228.710896 
L 241.549063 229.44239 
L 241.802954 228.744433 
L 242.056844 228.437816 
L 242.310734 228.502797 
L 242.564624 229.113656 
L 242.818515 228.301359 
L 243.072405 228.908883 
L 243.326295 227.66842 
L 243.580185 229.362522 
L 244.087966 229.436721 
L 244.595746 229.670142 
L 244.849637 229.138832 
L 245.103527 229.273242 
L 245.357417 228.680731 
L 245.865198 229.2721 
L 246.119088 228.836187 
L 246.372978 229.78339 
L 246.626868 229.732492 
L 246.880759 229.195347 
L 247.134649 229.196514 
L 247.388539 229.329998 
L 247.642429 228.018892 
L 247.89632 229.160872 
L 248.4041 228.581685 
L 248.65799 229.382024 
L 249.165771 229.311604 
L 249.419661 228.957132 
L 249.673551 230.080199 
L 249.927442 229.784876 
L 250.181332 228.609555 
L 250.435222 229.091079 
L 250.689112 229.879687 
L 250.943003 228.779378 
L 251.196893 229.65443 
L 251.450783 228.194812 
L 251.704673 229.444725 
L 251.958564 229.719632 
L 252.212454 229.024887 
L 252.974125 229.76472 
L 253.481905 228.893092 
L 253.735795 227.920189 
L 253.989686 229.636417 
L 254.243576 228.926748 
L 254.497466 229.425742 
L 254.751356 228.441369 
L 255.005247 228.773695 
L 255.259137 228.726816 
L 255.766917 229.671717 
L 256.020808 228.81888 
L 256.274698 228.565112 
L 256.782479 229.500416 
L 257.036369 228.837593 
L 257.290259 228.551647 
L 257.544149 228.91217 
L 257.79804 228.352854 
L 258.30582 228.884307 
L 258.55971 228.807665 
L 258.813601 227.964521 
L 259.067491 229.566014 
L 259.321381 229.329229 
L 259.575271 229.29695 
L 259.829162 228.30934 
L 260.083052 229.498143 
L 260.336942 228.330771 
L 260.590832 229.449496 
L 260.844723 229.737408 
L 261.098613 228.931201 
L 261.352503 228.78011 
L 261.606393 229.36341 
L 261.860284 228.915506 
L 262.114174 229.02187 
L 262.368064 229.39709 
L 262.621954 229.03259 
L 262.875845 229.403616 
L 263.129735 229.299883 
L 263.637515 228.567475 
L 263.891406 228.906728 
L 264.145296 229.647217 
L 264.399186 228.901428 
L 264.653076 229.983713 
L 265.160857 228.902919 
L 265.414747 229.096112 
L 265.668637 229.56597 
L 265.922528 228.900023 
L 266.430308 229.586101 
L 266.684198 229.101963 
L 266.938089 229.631445 
L 267.191979 228.900316 
L 267.445869 228.81935 
L 267.699759 228.583068 
L 267.95365 229.619886 
L 268.46143 229.075962 
L 268.71532 229.49122 
L 269.223101 229.522667 
L 269.476991 229.172068 
L 269.730881 229.486641 
L 269.984772 230.495083 
L 270.238662 229.135456 
L 270.492552 229.618318 
L 270.746442 228.89792 
L 271.000333 228.952624 
L 271.254223 228.349323 
L 271.508113 229.718061 
L 271.762003 229.358933 
L 272.015894 229.646757 
L 272.269784 228.839592 
L 272.777564 228.623258 
L 273.031455 229.455697 
L 273.285345 228.395433 
L 273.793126 229.486511 
L 274.047016 229.682868 
L 274.300906 229.057991 
L 274.554796 229.538637 
L 275.316467 229.548249 
L 275.570357 229.230762 
L 275.824248 228.694536 
L 276.078138 228.91456 
L 276.585918 227.540099 
L 276.839809 229.234854 
L 277.093699 229.286203 
L 277.347589 229.680014 
L 277.601479 229.704066 
L 278.10926 228.810457 
L 278.36315 228.956137 
L 278.61704 228.524449 
L 278.870931 229.413181 
L 279.124821 228.748479 
L 279.378711 229.755784 
L 279.632601 228.63077 
L 280.140382 229.265341 
L 280.394272 229.281279 
L 280.648162 229.736466 
L 280.902053 229.581297 
L 281.409833 228.896385 
L 281.663723 229.08489 
L 282.171504 229.635702 
L 282.425394 229.283318 
L 282.679284 229.381753 
L 282.933175 229.055879 
L 283.187065 228.243444 
L 283.440955 229.192271 
L 283.694845 229.080768 
L 283.948736 229.221222 
L 284.202626 229.85382 
L 284.456516 228.839092 
L 284.710406 228.893876 
L 284.964297 229.310085 
L 285.218187 229.186572 
L 285.472077 229.640042 
L 285.725967 228.880058 
L 285.979858 229.454092 
L 286.233748 229.641689 
L 286.741528 229.075121 
L 286.995419 229.416798 
L 287.249309 228.948724 
L 287.757089 229.776357 
L 288.26487 228.929676 
L 288.77265 229.571783 
L 289.026541 229.582098 
L 289.280431 229.911221 
L 289.534321 229.011501 
L 289.788212 229.382572 
L 290.042102 229.393466 
L 290.295992 228.718103 
L 290.549882 229.201792 
L 290.803773 229.381844 
L 291.311553 228.971632 
L 291.565443 229.110918 
L 291.819334 228.354369 
L 292.073224 228.680069 
L 292.327114 229.41475 
L 292.581004 228.551589 
L 292.834895 230.181934 
L 293.088785 229.143558 
L 293.342675 228.857397 
L 293.596565 229.30886 
L 294.104346 228.880506 
L 294.358236 229.354277 
L 294.612126 228.720241 
L 295.119907 229.413178 
L 295.373797 228.353432 
L 295.627687 228.441818 
L 295.881578 229.354071 
L 296.135468 229.820745 
L 296.389358 228.155183 
L 296.643248 228.698831 
L 296.897139 228.044082 
L 297.151029 229.488236 
L 297.404919 229.357061 
L 297.658809 229.634982 
L 297.9127 229.1208 
L 298.16659 228.883803 
L 298.42048 229.888758 
L 298.67437 228.897302 
L 298.928261 228.665611 
L 299.182151 228.754314 
L 299.436041 229.471567 
L 299.689931 229.674156 
L 299.943822 228.221553 
L 300.197712 228.955193 
L 300.451602 230.107722 
L 300.959383 229.133588 
L 301.213273 229.202151 
L 301.467163 229.837192 
L 301.721053 229.216255 
L 301.974944 229.977542 
L 302.228834 228.451 
L 302.482724 228.431721 
L 302.736614 229.30094 
L 302.990505 228.886433 
L 303.498285 229.523445 
L 303.752175 229.518406 
L 304.006066 229.187282 
L 304.259956 230.197531 
L 304.513846 229.420311 
L 304.767736 229.360068 
L 305.021627 228.715923 
L 305.275517 229.47336 
L 305.529407 229.439337 
L 305.783298 228.770883 
L 306.037188 228.690496 
L 306.291078 229.791417 
L 306.544968 229.516508 
L 306.798859 229.958559 
L 307.052749 229.054982 
L 307.306639 228.703896 
L 307.560529 228.789622 
L 307.81442 229.191538 
L 308.06831 228.768057 
L 308.3222 229.093527 
L 308.57609 228.250046 
L 308.829981 229.414172 
L 309.083871 229.799936 
L 309.337761 229.156726 
L 309.591651 230.077728 
L 309.845542 228.951464 
L 310.099432 229.425169 
L 310.099432 229.425169 
" clip-path="url(#pd5bf6bd43c)" style="fill: none; stroke: #0000ff; stroke-width: 0.6; stroke-linecap: square"/>
   </g>
   <g id="line2d_28">
    <path d="M 56.463068 121.773685 
L 56.716958 121.818731 
L 57.224739 122.959373 
L 57.478629 123.683036 
L 57.732519 127.132968 
L 58.49419 154.914778 
L 58.74808 158.193045 
L 59.763641 163.217957 
L 60.017532 157.803625 
L 60.525312 169.248563 
L 60.779202 166.577608 
L 61.033093 119.355756 
L 61.286983 174.069606 
L 62.048654 162.940068 
L 62.556434 176.34169 
L 62.810325 173.532959 
L 63.064215 158.9692 
L 63.318105 176.265769 
L 63.571995 177.355305 
L 63.825886 168.902988 
L 64.079776 178.690141 
L 64.333666 178.481494 
L 64.587556 177.289859 
L 64.841447 178.49192 
L 65.095337 177.015791 
L 65.349227 180.49072 
L 65.603117 174.985787 
L 65.857008 176.297002 
L 66.110898 180.785307 
L 66.364788 178.401752 
L 66.618678 178.260237 
L 66.872569 178.930648 
L 67.126459 176.612432 
L 67.380349 166.30159 
L 67.634239 182.716558 
L 67.88813 180.270579 
L 68.14202 180.211032 
L 68.39591 46.498909 
L 68.6498 176.783451 
L 68.903691 182.86307 
L 69.157581 169.884914 
L 69.665361 181.087414 
L 69.919252 177.905813 
L 70.173142 179.405304 
L 70.427032 178.428052 
L 70.934813 182.628648 
L 71.188703 176.923892 
L 71.442593 181.799569 
L 71.696483 176.987394 
L 71.950374 179.608962 
L 72.204264 173.408626 
L 72.458154 182.450044 
L 72.712044 179.086244 
L 72.965935 181.964375 
L 73.219825 182.882658 
L 73.473715 178.706789 
L 73.727605 177.971568 
L 73.981496 183.004888 
L 74.235386 179.699082 
L 74.489276 172.665415 
L 74.743166 172.690833 
L 74.997057 177.778566 
L 75.250947 177.815277 
L 75.504837 174.562228 
L 76.012618 178.941236 
L 76.266508 179.321132 
L 76.520398 178.407087 
L 76.774288 170.543596 
L 77.028179 182.488304 
L 77.282069 176.515546 
L 77.535959 176.650074 
L 77.78985 173.846507 
L 78.04374 176.55772 
L 78.29763 177.630736 
L 78.805411 165.190511 
L 79.059301 165.738907 
L 79.820972 172.329623 
L 80.074862 169.759082 
L 80.328752 171.853464 
L 80.582642 170.507193 
L 80.836533 173.098763 
L 81.090423 172.451609 
L 81.344313 166.645313 
L 81.598203 171.931815 
L 81.852094 142.223203 
L 82.105984 164.342672 
L 82.359874 171.705761 
L 82.613764 170.355189 
L 82.867655 167.398299 
L 83.121545 162.138381 
L 83.375435 165.641149 
L 83.629325 164.39195 
L 83.883216 160.12529 
L 84.137106 171.22533 
L 84.390996 168.594158 
L 84.898777 172.560572 
L 85.152667 172.446474 
L 85.406557 166.120561 
L 85.660447 169.81104 
L 85.914338 166.865204 
L 86.168228 166.471364 
L 86.422118 168.927 
L 86.676008 157.187239 
L 86.929899 158.698797 
L 87.183789 163.681667 
L 87.437679 162.264282 
L 87.691569 159.036092 
L 87.94546 160.272797 
L 88.19935 159.24345 
L 88.45324 162.121135 
L 88.70713 159.81745 
L 88.961021 158.90904 
L 89.214911 156.620107 
L 89.468801 156.819249 
L 89.722691 154.556925 
L 89.976582 157.122018 
L 90.484362 153.821969 
L 90.738252 148.884937 
L 91.499923 153.109584 
L 91.753813 150.541889 
L 92.007704 149.969079 
L 92.261594 150.289501 
L 92.515484 146.79808 
L 93.023265 145.822666 
L 93.277155 150.638349 
L 93.531045 148.041258 
L 93.784936 155.166559 
L 94.038826 145.588111 
L 94.292716 148.143724 
L 94.546606 142.159795 
L 94.800497 146.864477 
L 95.054387 149.045226 
L 95.308277 147.09134 
L 95.562167 149.406372 
L 95.816058 140.930885 
L 96.069948 153.025393 
L 96.323838 147.199783 
L 96.577728 145.365149 
L 97.085509 140.226153 
L 97.339399 138.359829 
L 97.593289 145.81416 
L 97.84718 146.580576 
L 98.10107 146.928013 
L 98.60885 133.353 
L 98.862741 137.907623 
L 99.370521 150.162586 
L 99.624411 143.921027 
L 99.878302 142.241116 
L 100.386082 145.427655 
L 100.639972 138.224429 
L 100.893863 140.43185 
L 101.147753 144.804871 
L 101.401643 140.984053 
L 101.655533 140.668913 
L 101.909424 139.028756 
L 102.163314 140.726961 
L 102.417204 137.714184 
L 102.671094 138.954236 
L 102.924985 134.669404 
L 103.432765 139.24141 
L 103.686655 143.685855 
L 104.194436 135.510898 
L 104.448326 137.312217 
L 104.702216 140.738005 
L 104.956107 134.060407 
L 105.209997 136.942037 
L 105.463887 134.632825 
L 105.717777 137.815475 
L 105.971668 138.279518 
L 106.225558 136.278803 
L 106.479448 133.069745 
L 106.733338 137.44943 
L 106.987229 131.906918 
L 107.241119 130.682065 
L 107.495009 134.525528 
L 108.00279 132.648739 
L 108.25668 135.159365 
L 108.51057 133.316813 
L 108.76446 133.789851 
L 109.018351 131.32866 
L 109.272241 130.193289 
L 109.526131 134.685053 
L 109.780021 134.076722 
L 110.033912 130.308377 
L 110.287802 129.740721 
L 110.795583 130.613561 
L 111.049473 131.055861 
L 111.303363 132.04373 
L 111.557253 134.614795 
L 111.811144 125.73105 
L 112.065034 131.465746 
L 112.318924 133.853387 
L 112.826705 130.607055 
L 113.080595 128.362868 
L 113.334485 133.155152 
L 113.588375 129.686435 
L 113.842266 134.726884 
L 114.096156 130.26583 
L 114.350046 128.218708 
L 114.603936 129.091235 
L 114.857827 131.370148 
L 115.111717 126.451225 
L 115.365607 127.960068 
L 115.619497 125.670238 
L 115.873388 129.709345 
L 116.127278 124.103141 
L 116.381168 127.480552 
L 116.635058 126.900452 
L 116.888949 129.813026 
L 117.142839 129.950171 
L 117.396729 127.323134 
L 117.90451 125.388297 
L 118.1584 128.749932 
L 118.41229 128.36619 
L 118.66618 125.311013 
L 118.920071 129.126001 
L 119.173961 125.402632 
L 119.427851 124.590241 
L 119.681741 127.059056 
L 119.935632 124.485805 
L 120.443412 123.272553 
L 120.697302 121.526902 
L 120.951193 127.022594 
L 121.205083 125.877836 
L 121.712863 129.773361 
L 121.966754 125.879208 
L 122.474534 127.141562 
L 122.728424 125.836446 
L 122.982315 128.472145 
L 123.236205 127.679968 
L 123.490095 129.619137 
L 123.743985 130.094115 
L 123.997876 131.157749 
L 124.251766 128.73103 
L 124.759546 126.754881 
L 125.013437 127.064484 
L 125.267327 125.56249 
L 125.521217 127.496544 
L 125.775107 125.310925 
L 126.282888 127.064357 
L 126.536778 124.357156 
L 126.790669 123.928977 
L 127.044559 125.671502 
L 127.298449 125.833369 
L 127.552339 128.194436 
L 128.06012 125.88059 
L 128.31401 125.674667 
L 128.5679 127.254376 
L 128.821791 126.335961 
L 129.075681 124.830067 
L 129.329571 124.339538 
L 129.583461 125.320606 
L 129.837352 122.815203 
L 130.852913 126.499239 
L 131.360693 124.527029 
L 131.614583 126.115213 
L 131.868474 126.979773 
L 132.122364 124.209116 
L 132.376254 125.586664 
L 132.630144 126.031168 
L 132.884035 124.007348 
L 133.137925 124.951769 
L 133.391815 126.696911 
L 133.645705 127.020968 
L 134.407376 122.667133 
L 134.915157 125.380781 
L 135.169047 125.440662 
L 135.422937 123.979774 
L 135.930718 126.142444 
L 136.184608 122.221766 
L 136.438498 124.477995 
L 136.692388 123.127256 
L 136.946279 123.145286 
L 137.200169 126.16405 
L 137.454059 126.894004 
L 137.707949 125.301303 
L 137.96184 124.596787 
L 138.46962 121.360243 
L 138.72351 122.852046 
L 138.977401 122.104298 
L 139.231291 122.705368 
L 139.485181 122.892525 
L 139.739071 123.32046 
L 139.992962 121.590486 
L 140.246852 121.941804 
L 140.500742 123.408022 
L 140.754632 121.73353 
L 141.008523 121.667809 
L 141.262413 122.1534 
L 141.516303 122.066856 
L 141.770193 122.452842 
L 142.024084 121.958227 
L 142.277974 123.922706 
L 142.785755 122.695255 
L 143.039645 123.50069 
L 143.293535 122.969456 
L 143.547425 123.086033 
L 143.801316 122.21233 
L 144.055206 123.332307 
L 144.309096 123.666956 
L 144.562986 123.80558 
L 144.816877 123.685437 
L 145.070767 121.074323 
L 145.324657 122.904186 
L 146.086328 120.076538 
L 146.340218 120.745357 
L 146.594108 120.693531 
L 146.847999 121.47145 
L 147.101889 121.815732 
L 147.355779 120.981313 
L 147.609669 121.210468 
L 148.11745 123.163179 
L 148.37134 122.650916 
L 148.62523 123.286615 
L 148.879121 123.201424 
L 149.133011 122.83387 
L 149.386901 122.791313 
L 149.640791 123.606615 
L 149.894682 122.866862 
L 150.148572 122.857553 
L 150.656352 123.653865 
L 150.910243 123.192585 
L 151.164133 121.884902 
L 151.418023 122.920217 
L 151.671913 122.140818 
L 151.925804 122.659274 
L 152.433584 121.537171 
L 152.687474 122.384221 
L 152.941365 122.117556 
L 153.195255 122.138212 
L 153.449145 121.185785 
L 153.703035 121.520386 
L 153.956926 121.530929 
L 154.210816 121.750972 
L 154.464706 120.359861 
L 154.718596 121.996687 
L 155.226377 121.149294 
L 155.480267 121.787364 
L 155.734157 121.858102 
L 155.988048 122.758811 
L 156.241938 122.331141 
L 156.495828 122.356431 
L 156.749718 122.266968 
L 157.003609 122.328299 
L 157.257499 121.942117 
L 157.511389 121.993199 
L 157.765279 122.725671 
L 158.01917 121.328691 
L 158.27306 121.898287 
L 158.52695 121.745494 
L 158.78084 121.890086 
L 159.034731 120.498231 
L 159.288621 122.30634 
L 159.542511 121.344977 
L 159.796402 121.175202 
L 160.050292 121.868342 
L 160.304182 122.183071 
L 160.558072 121.728395 
L 160.811963 121.878601 
L 161.065853 122.207656 
L 161.319743 121.977119 
L 161.573633 122.30195 
L 161.827524 121.515163 
L 162.081414 121.633004 
L 162.335304 121.608007 
L 162.589194 120.626693 
L 162.843085 121.953856 
L 163.096975 121.57669 
L 163.350865 121.693002 
L 163.858646 121.545235 
L 164.112536 121.098174 
L 164.366426 120.945586 
L 164.620316 121.153949 
L 164.874207 121.080203 
L 165.128097 121.736097 
L 165.381987 121.386387 
L 165.635877 121.310377 
L 165.889768 121.539581 
L 166.143658 121.131911 
L 166.397548 121.602 
L 166.651438 121.548244 
L 166.905329 121.741281 
L 167.92089 121.317138 
L 168.17478 121.613935 
L 168.68256 120.957296 
L 168.936451 121.508108 
L 169.190341 121.244558 
L 169.444231 121.39013 
L 169.698121 120.670229 
L 170.459792 121.688965 
L 170.967573 121.619422 
L 171.475353 120.866882 
L 171.729243 121.286292 
L 171.983134 120.966193 
L 172.237024 120.430481 
L 172.490914 120.438007 
L 172.744804 121.285419 
L 172.998695 121.036186 
L 173.252585 120.966036 
L 173.506475 120.745406 
L 173.760365 120.857946 
L 174.014256 120.341351 
L 174.268146 120.859161 
L 174.522036 120.732256 
L 174.775926 120.774352 
L 175.029817 121.13098 
L 175.283707 121.27516 
L 175.537597 120.757831 
L 176.045378 121.505139 
L 176.299268 121.553809 
L 176.807049 121.281265 
L 177.060939 121.393363 
L 177.314829 121.783994 
L 177.568719 121.903647 
L 177.82261 121.839916 
L 178.33039 121.468422 
L 178.58428 121.499494 
L 178.838171 121.305262 
L 179.092061 121.546833 
L 179.853732 121.51677 
L 180.107622 121.418674 
L 180.361512 121.539826 
L 180.615402 121.367152 
L 181.123183 121.639138 
L 181.377073 121.502973 
L 181.630963 121.076675 
L 181.884854 121.312131 
L 182.138744 120.897964 
L 182.392634 121.194947 
L 182.900415 120.533898 
L 183.154305 120.637433 
L 183.408195 120.873898 
L 183.662085 120.558552 
L 184.169866 120.945214 
L 184.423756 120.804807 
L 184.677646 120.473978 
L 185.185427 120.858808 
L 185.439317 121.217994 
L 185.947098 121.097723 
L 186.200988 120.870214 
L 186.708768 120.981058 
L 186.962659 121.006849 
L 187.216549 121.299638 
L 187.470439 121.204481 
L 187.724329 120.916886 
L 187.97822 121.463503 
L 188.486 121.327564 
L 188.73989 121.241521 
L 188.993781 121.275826 
L 189.247671 121.103955 
L 189.501561 121.183198 
L 189.755451 121.080614 
L 190.771012 121.264891 
L 191.786574 121.040782 
L 192.040464 121.17094 
L 192.548244 120.924607 
L 193.309915 121.046622 
L 193.563805 120.93759 
L 194.071586 121.044486 
L 194.833257 121.264607 
L 195.341037 120.893751 
L 196.102708 120.961098 
L 197.118269 120.676109 
L 197.626049 120.710512 
L 197.87994 120.647065 
L 198.38772 120.892457 
L 198.64161 121.007868 
L 199.657171 120.885872 
L 199.911062 121.114116 
L 200.672732 120.743877 
L 200.926623 120.951769 
L 202.703854 120.868362 
L 202.957745 120.808981 
L 203.211635 120.868685 
L 203.719415 120.781613 
L 203.973306 120.957316 
L 204.481086 120.909507 
L 204.988867 121.032051 
L 206.004428 120.930672 
L 206.258318 121.035324 
L 207.527769 120.927468 
L 208.03555 121.025202 
L 209.558891 120.956982 
L 210.574452 121.020048 
L 210.828343 121.150284 
L 211.082233 121.08909 
L 211.590013 121.146452 
L 212.351684 121.175829 
L 214.636696 120.885568 
L 215.906148 120.989906 
L 216.413928 120.925998 
L 221.999514 121.000303 
L 222.507294 120.929575 
L 223.522855 120.941912 
L 225.046197 120.850312 
L 226.569538 120.832322 
L 233.678465 120.819299 
L 234.440136 120.810803 
L 235.709587 120.877014 
L 245.103527 120.939384 
L 255.766917 120.989946 
L 261.606393 120.967516 
L 271.000333 120.981548 
L 274.300906 120.988319 
L 282.425394 121.019861 
L 289.788212 120.9503 
L 299.182151 120.942745 
L 301.467163 120.948898 
L 304.259956 120.974885 
L 309.845542 120.979637 
L 310.099432 120.975963 
L 310.099432 120.975963 
" clip-path="url(#pd5bf6bd43c)" style="fill: none; stroke: #ff0000; stroke-width: 0.6; stroke-linecap: square"/>
   </g>
   <g id="patch_3">
    <path d="M 43.78125 239.76 
L 43.78125 37.296 
" style="fill: none; stroke: #000000; stroke-width: 0.8; stroke-linejoin: miter; stroke-linecap: square"/>
   </g>
   <g id="patch_4">
    <path d="M 322.78125 239.76 
L 322.78125 37.296 
" style="fill: none; stroke: #000000; stroke-width: 0.8; stroke-linejoin: miter; stroke-linecap: square"/>
   </g>
   <g id="patch_5">
    <path d="M 43.78125 239.76 
L 322.78125 239.76 
" style="fill: none; stroke: #000000; stroke-width: 0.8; stroke-linejoin: miter; stroke-linecap: square"/>
   </g>
   <g id="patch_6">
    <path d="M 43.78125 37.296 
L 322.78125 37.296 
" style="fill: none; stroke: #000000; stroke-width: 0.8; stroke-linejoin: miter; stroke-linecap: square"/>
   </g>
   <g id="text_16">
    <!-- Baseline Model -->
    <g transform="translate(149.259844 31.296) scale(0.09 -0.09)">
     <defs>
      <path id="DejaVuSans-42" d="M 1259 2228 
L 1259 519 
L 2272 519 
Q 2781 519 3026 730 
Q 3272 941 3272 1375 
Q 3272 1813 3026 2020 
Q 2781 2228 2272 2228 
L 1259 2228 
z
M 1259 4147 
L 1259 2741 
L 2194 2741 
Q 2656 2741 2882 2914 
Q 3109 3088 3109 3444 
Q 3109 3797 2882 3972 
Q 2656 4147 2194 4147 
L 1259 4147 
z
M 628 4666 
L 2241 4666 
Q 2963 4666 3353 4366 
Q 3744 4066 3744 3513 
Q 3744 3084 3544 2831 
Q 3344 2578 2956 2516 
Q 3422 2416 3680 2098 
Q 3938 1781 3938 1306 
Q 3938 681 3513 340 
Q 3088 0 2303 0 
L 628 0 
L 628 4666 
z
" transform="scale(0.015625)"/>
      <path id="DejaVuSans-61" d="M 2194 1759 
Q 1497 1759 1228 1600 
Q 959 1441 959 1056 
Q 959 750 1161 570 
Q 1363 391 1709 391 
Q 2188 391 2477 730 
Q 2766 1069 2766 1631 
L 2766 1759 
L 2194 1759 
z
M 3341 1997 
L 3341 0 
L 2766 0 
L 2766 531 
Q 2569 213 2275 61 
Q 1981 -91 1556 -91 
Q 1019 -91 701 211 
Q 384 513 384 1019 
Q 384 1609 779 1909 
Q 1175 2209 1959 2209 
L 2766 2209 
L 2766 2266 
Q 2766 2663 2505 2880 
Q 2244 3097 1772 3097 
Q 1472 3097 1187 3025 
Q 903 2953 641 2809 
L 641 3341 
Q 956 3463 1253 3523 
Q 1550 3584 1831 3584 
Q 2591 3584 2966 3190 
Q 3341 2797 3341 1997 
z
" transform="scale(0.015625)"/>
      <path id="DejaVuSans-65" d="M 3597 1894 
L 3597 1613 
L 953 1613 
Q 991 1019 1311 708 
Q 1631 397 2203 397 
Q 2534 397 2845 478 
Q 3156 559 3463 722 
L 3463 178 
Q 3153 47 2828 -22 
Q 2503 -91 2169 -91 
Q 1331 -91 842 396 
Q 353 884 353 1716 
Q 353 2575 817 3079 
Q 1281 3584 2069 3584 
Q 2775 3584 3186 3129 
Q 3597 2675 3597 1894 
z
M 3022 2063 
Q 3016 2534 2758 2815 
Q 2500 3097 2075 3097 
Q 1594 3097 1305 2825 
Q 1016 2553 972 2059 
L 3022 2063 
z
" transform="scale(0.015625)"/>
      <path id="DejaVuSans-6c" d="M 603 4863 
L 1178 4863 
L 1178 0 
L 603 0 
L 603 4863 
z
" transform="scale(0.015625)"/>
      <path id="DejaVuSans-69" d="M 603 3500 
L 1178 3500 
L 1178 0 
L 603 0 
L 603 3500 
z
M 603 4863 
L 1178 4863 
L 1178 4134 
L 603 4134 
L 603 4863 
z
" transform="scale(0.015625)"/>
      <path id="DejaVuSans-6e" d="M 3513 2113 
L 3513 0 
L 2938 0 
L 2938 2094 
Q 2938 2591 2744 2837 
Q 2550 3084 2163 3084 
Q 1697 3084 1428 2787 
Q 1159 2491 1159 1978 
L 1159 0 
L 581 0 
L 581 3500 
L 1159 3500 
L 1159 2956 
Q 1366 3272 1645 3428 
Q 1925 3584 2291 3584 
Q 2894 3584 3203 3211 
Q 3513 2838 3513 2113 
z
" transform="scale(0.015625)"/>
      <path id="DejaVuSans-20" transform="scale(0.015625)"/>
      <path id="DejaVuSans-4d" d="M 628 4666 
L 1569 4666 
L 2759 1491 
L 3956 4666 
L 4897 4666 
L 4897 0 
L 4281 0 
L 4281 4097 
L 3078 897 
L 2444 897 
L 1241 4097 
L 1241 0 
L 628 0 
L 628 4666 
z
" transform="scale(0.015625)"/>
      <path id="DejaVuSans-64" d="M 2906 2969 
L 2906 4863 
L 3481 4863 
L 3481 0 
L 2906 0 
L 2906 525 
Q 2725 213 2448 61 
Q 2172 -91 1784 -91 
Q 1150 -91 751 415 
Q 353 922 353 1747 
Q 353 2572 751 3078 
Q 1150 3584 1784 3584 
Q 2172 3584 2448 3432 
Q 2725 3281 2906 2969 
z
M 947 1747 
Q 947 1113 1208 752 
Q 1469 391 1925 391 
Q 2381 391 2643 752 
Q 2906 1113 2906 1747 
Q 2906 2381 2643 2742 
Q 2381 3103 1925 3103 
Q 1469 3103 1208 2742 
Q 947 2381 947 1747 
z
" transform="scale(0.015625)"/>
     </defs>
     <use xlink:href="#DejaVuSans-42"/>
     <use xlink:href="#DejaVuSans-61" x="68.603516"/>
     <use xlink:href="#DejaVuSans-73" x="129.882812"/>
     <use xlink:href="#DejaVuSans-65" x="181.982422"/>
     <use xlink:href="#DejaVuSans-6c" x="243.505859"/>
     <use xlink:href="#DejaVuSans-69" x="271.289062"/>
     <use xlink:href="#DejaVuSans-6e" x="299.072266"/>
     <use xlink:href="#DejaVuSans-65" x="362.451172"/>
     <use xlink:href="#DejaVuSans-20" x="423.974609"/>
     <use xlink:href="#DejaVuSans-4d" x="455.761719"/>
     <use xlink:href="#DejaVuSans-6f" x="542.041016"/>
     <use xlink:href="#DejaVuSans-64" x="603.222656"/>
     <use xlink:href="#DejaVuSans-65" x="666.699219"/>
     <use xlink:href="#DejaVuSans-6c" x="728.222656"/>
    </g>
   </g>
   <g id="legend_1">
    <g id="patch_7">
     <path d="M 209.2875 74.65225 
L 315.78125 74.65225 
Q 317.78125 74.65225 317.78125 72.65225 
L 317.78125 44.296 
Q 317.78125 42.296 315.78125 42.296 
L 209.2875 42.296 
Q 207.2875 42.296 207.2875 44.296 
L 207.2875 72.65225 
Q 207.2875 74.65225 209.2875 74.65225 
z
" style="fill: #ffffff; opacity: 0.8; stroke: #cccccc; stroke-linejoin: miter"/>
    </g>
    <g id="line2d_29">
     <path d="M 211.2875 50.394438 
L 221.2875 50.394438 
L 231.2875 50.394438 
" style="fill: none; stroke: #0000ff; stroke-width: 0.6; stroke-linecap: square"/>
    </g>
    <g id="text_17">
     <!-- Training Loss -->
     <g transform="translate(239.2875 53.894438) scale(0.1 -0.1)">
      <defs>
       <path id="DejaVuSans-54" d="M -19 4666 
L 3928 4666 
L 3928 4134 
L 2272 4134 
L 2272 0 
L 1638 0 
L 1638 4134 
L -19 4134 
L -19 4666 
z
" transform="scale(0.015625)"/>
       <path id="DejaVuSans-72" d="M 2631 2963 
Q 2534 3019 2420 3045 
Q 2306 3072 2169 3072 
Q 1681 3072 1420 2755 
Q 1159 2438 1159 1844 
L 1159 0 
L 581 0 
L 581 3500 
L 1159 3500 
L 1159 2956 
Q 1341 3275 1631 3429 
Q 1922 3584 2338 3584 
Q 2397 3584 2469 3576 
Q 2541 3569 2628 3553 
L 2631 2963 
z
" transform="scale(0.015625)"/>
       <path id="DejaVuSans-67" d="M 2906 1791 
Q 2906 2416 2648 2759 
Q 2391 3103 1925 3103 
Q 1463 3103 1205 2759 
Q 947 2416 947 1791 
Q 947 1169 1205 825 
Q 1463 481 1925 481 
Q 2391 481 2648 825 
Q 2906 1169 2906 1791 
z
M 3481 434 
Q 3481 -459 3084 -895 
Q 2688 -1331 1869 -1331 
Q 1566 -1331 1297 -1286 
Q 1028 -1241 775 -1147 
L 775 -588 
Q 1028 -725 1275 -790 
Q 1522 -856 1778 -856 
Q 2344 -856 2625 -561 
Q 2906 -266 2906 331 
L 2906 616 
Q 2728 306 2450 153 
Q 2172 0 1784 0 
Q 1141 0 747 490 
Q 353 981 353 1791 
Q 353 2603 747 3093 
Q 1141 3584 1784 3584 
Q 2172 3584 2450 3431 
Q 2728 3278 2906 2969 
L 2906 3500 
L 3481 3500 
L 3481 434 
z
" transform="scale(0.015625)"/>
      </defs>
      <use xlink:href="#DejaVuSans-54"/>
      <use xlink:href="#DejaVuSans-72" x="46.333984"/>
      <use xlink:href="#DejaVuSans-61" x="87.447266"/>
      <use xlink:href="#DejaVuSans-69" x="148.726562"/>
      <use xlink:href="#DejaVuSans-6e" x="176.509766"/>
      <use xlink:href="#DejaVuSans-69" x="239.888672"/>
      <use xlink:href="#DejaVuSans-6e" x="267.671875"/>
      <use xlink:href="#DejaVuSans-67" x="331.050781"/>
      <use xlink:href="#DejaVuSans-20" x="394.527344"/>
      <use xlink:href="#DejaVuSans-4c" x="426.314453"/>
      <use xlink:href="#DejaVuSans-6f" x="480.277344"/>
      <use xlink:href="#DejaVuSans-73" x="541.458984"/>
      <use xlink:href="#DejaVuSans-73" x="593.558594"/>
     </g>
    </g>
    <g id="line2d_30">
     <path d="M 211.2875 65.072563 
L 221.2875 65.072563 
L 231.2875 65.072563 
" style="fill: none; stroke: #ff0000; stroke-width: 0.6; stroke-linecap: square"/>
    </g>
    <g id="text_18">
     <!-- Validation Loss -->
     <g transform="translate(239.2875 68.572563) scale(0.1 -0.1)">
      <defs>
       <path id="DejaVuSans-56" d="M 1831 0 
L 50 4666 
L 709 4666 
L 2188 738 
L 3669 4666 
L 4325 4666 
L 2547 0 
L 1831 0 
z
" transform="scale(0.015625)"/>
       <path id="DejaVuSans-74" d="M 1172 4494 
L 1172 3500 
L 2356 3500 
L 2356 3053 
L 1172 3053 
L 1172 1153 
Q 1172 725 1289 603 
Q 1406 481 1766 481 
L 2356 481 
L 2356 0 
L 1766 0 
Q 1100 0 847 248 
Q 594 497 594 1153 
L 594 3053 
L 172 3053 
L 172 3500 
L 594 3500 
L 594 4494 
L 1172 4494 
z
" transform="scale(0.015625)"/>
      </defs>
      <use xlink:href="#DejaVuSans-56"/>
      <use xlink:href="#DejaVuSans-61" x="60.658203"/>
      <use xlink:href="#DejaVuSans-6c" x="121.9375"/>
      <use xlink:href="#DejaVuSans-69" x="149.720703"/>
      <use xlink:href="#DejaVuSans-64" x="177.503906"/>
      <use xlink:href="#DejaVuSans-61" x="240.980469"/>
      <use xlink:href="#DejaVuSans-74" x="302.259766"/>
      <use xlink:href="#DejaVuSans-69" x="341.46875"/>
      <use xlink:href="#DejaVuSans-6f" x="369.251953"/>
      <use xlink:href="#DejaVuSans-6e" x="430.433594"/>
      <use xlink:href="#DejaVuSans-20" x="493.8125"/>
      <use xlink:href="#DejaVuSans-4c" x="525.599609"/>
      <use xlink:href="#DejaVuSans-6f" x="579.5625"/>
      <use xlink:href="#DejaVuSans-73" x="640.744141"/>
      <use xlink:href="#DejaVuSans-73" x="692.84375"/>
     </g>
    </g>
   </g>
  </g>
  <g id="text_19">
   <!-- Training VS. Validation Loss - Dataset Size = 100.0% -->
   <g transform="translate(34.481016 15.558281) scale(0.11 -0.11)">
    <defs>
     <path id="DejaVuSans-53" d="M 3425 4513 
L 3425 3897 
Q 3066 4069 2747 4153 
Q 2428 4238 2131 4238 
Q 1616 4238 1336 4038 
Q 1056 3838 1056 3469 
Q 1056 3159 1242 3001 
Q 1428 2844 1947 2747 
L 2328 2669 
Q 3034 2534 3370 2195 
Q 3706 1856 3706 1288 
Q 3706 609 3251 259 
Q 2797 -91 1919 -91 
Q 1588 -91 1214 -16 
Q 841 59 441 206 
L 441 856 
Q 825 641 1194 531 
Q 1563 422 1919 422 
Q 2459 422 2753 634 
Q 3047 847 3047 1241 
Q 3047 1584 2836 1778 
Q 2625 1972 2144 2069 
L 1759 2144 
Q 1053 2284 737 2584 
Q 422 2884 422 3419 
Q 422 4038 858 4394 
Q 1294 4750 2059 4750 
Q 2388 4750 2728 4690 
Q 3069 4631 3425 4513 
z
" transform="scale(0.015625)"/>
     <path id="DejaVuSans-2d" d="M 313 2009 
L 1997 2009 
L 1997 1497 
L 313 1497 
L 313 2009 
z
" transform="scale(0.015625)"/>
     <path id="DejaVuSans-44" d="M 1259 4147 
L 1259 519 
L 2022 519 
Q 2988 519 3436 956 
Q 3884 1394 3884 2338 
Q 3884 3275 3436 3711 
Q 2988 4147 2022 4147 
L 1259 4147 
z
M 628 4666 
L 1925 4666 
Q 3281 4666 3915 4102 
Q 4550 3538 4550 2338 
Q 4550 1131 3912 565 
Q 3275 0 1925 0 
L 628 0 
L 628 4666 
z
" transform="scale(0.015625)"/>
     <path id="DejaVuSans-7a" d="M 353 3500 
L 3084 3500 
L 3084 2975 
L 922 459 
L 3084 459 
L 3084 0 
L 275 0 
L 275 525 
L 2438 3041 
L 353 3041 
L 353 3500 
z
" transform="scale(0.015625)"/>
     <path id="DejaVuSans-3d" d="M 678 2906 
L 4684 2906 
L 4684 2381 
L 678 2381 
L 678 2906 
z
M 678 1631 
L 4684 1631 
L 4684 1100 
L 678 1100 
L 678 1631 
z
" transform="scale(0.015625)"/>
     <path id="DejaVuSans-25" d="M 4653 2053 
Q 4381 2053 4226 1822 
Q 4072 1591 4072 1178 
Q 4072 772 4226 539 
Q 4381 306 4653 306 
Q 4919 306 5073 539 
Q 5228 772 5228 1178 
Q 5228 1588 5073 1820 
Q 4919 2053 4653 2053 
z
M 4653 2450 
Q 5147 2450 5437 2106 
Q 5728 1763 5728 1178 
Q 5728 594 5436 251 
Q 5144 -91 4653 -91 
Q 4153 -91 3862 251 
Q 3572 594 3572 1178 
Q 3572 1766 3864 2108 
Q 4156 2450 4653 2450 
z
M 1428 4353 
Q 1159 4353 1004 4120 
Q 850 3888 850 3481 
Q 850 3069 1003 2837 
Q 1156 2606 1428 2606 
Q 1700 2606 1854 2837 
Q 2009 3069 2009 3481 
Q 2009 3884 1853 4118 
Q 1697 4353 1428 4353 
z
M 4250 4750 
L 4750 4750 
L 1831 -91 
L 1331 -91 
L 4250 4750 
z
M 1428 4750 
Q 1922 4750 2215 4408 
Q 2509 4066 2509 3481 
Q 2509 2891 2217 2550 
Q 1925 2209 1428 2209 
Q 931 2209 642 2551 
Q 353 2894 353 3481 
Q 353 4063 643 4406 
Q 934 4750 1428 4750 
z
" transform="scale(0.015625)"/>
    </defs>
    <use xlink:href="#DejaVuSans-54"/>
    <use xlink:href="#DejaVuSans-72" x="46.333984"/>
    <use xlink:href="#DejaVuSans-61" x="87.447266"/>
    <use xlink:href="#DejaVuSans-69" x="148.726562"/>
    <use xlink:href="#DejaVuSans-6e" x="176.509766"/>
    <use xlink:href="#DejaVuSans-69" x="239.888672"/>
    <use xlink:href="#DejaVuSans-6e" x="267.671875"/>
    <use xlink:href="#DejaVuSans-67" x="331.050781"/>
    <use xlink:href="#DejaVuSans-20" x="394.527344"/>
    <use xlink:href="#DejaVuSans-56" x="426.314453"/>
    <use xlink:href="#DejaVuSans-53" x="494.722656"/>
    <use xlink:href="#DejaVuSans-2e" x="558.199219"/>
    <use xlink:href="#DejaVuSans-20" x="589.986328"/>
    <use xlink:href="#DejaVuSans-56" x="621.773438"/>
    <use xlink:href="#DejaVuSans-61" x="682.431641"/>
    <use xlink:href="#DejaVuSans-6c" x="743.710938"/>
    <use xlink:href="#DejaVuSans-69" x="771.494141"/>
    <use xlink:href="#DejaVuSans-64" x="799.277344"/>
    <use xlink:href="#DejaVuSans-61" x="862.753906"/>
    <use xlink:href="#DejaVuSans-74" x="924.033203"/>
    <use xlink:href="#DejaVuSans-69" x="963.242188"/>
    <use xlink:href="#DejaVuSans-6f" x="991.025391"/>
    <use xlink:href="#DejaVuSans-6e" x="1052.207031"/>
    <use xlink:href="#DejaVuSans-20" x="1115.585938"/>
    <use xlink:href="#DejaVuSans-4c" x="1147.373047"/>
    <use xlink:href="#DejaVuSans-6f" x="1201.335938"/>
    <use xlink:href="#DejaVuSans-73" x="1262.517578"/>
    <use xlink:href="#DejaVuSans-73" x="1314.617188"/>
    <use xlink:href="#DejaVuSans-20" x="1366.716797"/>
    <use xlink:href="#DejaVuSans-2d" x="1398.503906"/>
    <use xlink:href="#DejaVuSans-20" x="1434.587891"/>
    <use xlink:href="#DejaVuSans-44" x="1466.375"/>
    <use xlink:href="#DejaVuSans-61" x="1543.376953"/>
    <use xlink:href="#DejaVuSans-74" x="1604.65625"/>
    <use xlink:href="#DejaVuSans-61" x="1643.865234"/>
    <use xlink:href="#DejaVuSans-73" x="1705.144531"/>
    <use xlink:href="#DejaVuSans-65" x="1757.244141"/>
    <use xlink:href="#DejaVuSans-74" x="1818.767578"/>
    <use xlink:href="#DejaVuSans-20" x="1857.976562"/>
    <use xlink:href="#DejaVuSans-53" x="1889.763672"/>
    <use xlink:href="#DejaVuSans-69" x="1953.240234"/>
    <use xlink:href="#DejaVuSans-7a" x="1981.023438"/>
    <use xlink:href="#DejaVuSans-65" x="2033.513672"/>
    <use xlink:href="#DejaVuSans-20" x="2095.037109"/>
    <use xlink:href="#DejaVuSans-3d" x="2126.824219"/>
    <use xlink:href="#DejaVuSans-20" x="2210.613281"/>
    <use xlink:href="#DejaVuSans-31" x="2242.400391"/>
    <use xlink:href="#DejaVuSans-30" x="2306.023438"/>
    <use xlink:href="#DejaVuSans-30" x="2369.646484"/>
    <use xlink:href="#DejaVuSans-2e" x="2433.269531"/>
    <use xlink:href="#DejaVuSans-30" x="2465.056641"/>
    <use xlink:href="#DejaVuSans-25" x="2528.679688"/>
   </g>
  </g>
 </g>
 <defs>
  <clipPath id="pd5bf6bd43c">
   <rect x="43.78125" y="37.296" width="279" height="202.464"/>
  </clipPath>
 </defs>
</svg>
