<?xml version="1.0" encoding="utf-8" standalone="no"?>
<!DOCTYPE svg PUBLIC "-//W3C//DTD SVG 1.1//EN"
  "http://www.w3.org/Graphics/SVG/1.1/DTD/svg11.dtd">
<svg xmlns:xlink="http://www.w3.org/1999/xlink" width="330.281484pt" height="277.31625pt" viewBox="0 0 330.281484 277.31625" xmlns="http://www.w3.org/2000/svg" version="1.1">
 <metadata>
  <rdf:RDF xmlns:dc="http://purl.org/dc/elements/1.1/" xmlns:cc="http://creativecommons.org/ns#" xmlns:rdf="http://www.w3.org/1999/02/22-rdf-syntax-ns#">
   <cc:Work>
    <dc:type rdf:resource="http://purl.org/dc/dcmitype/StillImage"/>
    <dc:date>2026-06-11T17:48:12.886783</dc:date>
    <dc:format>image/svg+xml</dc:format>
    <dc:creator>
     <cc:Agent>
      <dc:title>Matplotlib v3.8.4, https://matplotlib.org/</dc:title>
     </cc:Agent>
    </dc:creator>
   </cc:Work>
  </rdf:RDF>
 </metadata>
 <defs>
  <style type="text/css">*{stroke-linejoin: round; stroke-linecap: butt}</style>
 </defs>
 <g id="figure_1">
  <g id="patch_1">
   <path d="M 0 277.31625 
L 330.281484 277.31625 
L 330.281484 0 
L 0 0 
z
" style="fill: #ffffff"/>
  </g>
  <g id="axes_1">
   <g id="patch_2">
    <path d="M 43.78125 239.76 
L 322.78125 239.76 
L 322.78125 37.296 
L 43.78125 37.296 
z
" style="fill: #ffffff"/>
   </g>
   <g id="matplotlib.axis_1">
    <g id="xtick_1">
     <g id="line2d_1">
      <path d="M 56.209178 239.76 
L 56.209178 37.296 
" clip-path="url(#p9c1ed74106)" style="fill: none; stroke-dasharray: 2.96,1.28; stroke-dashoffset: 0; stroke: #b0b0b0; stroke-opacity: 0.4; stroke-width: 0.8"/>
     </g>
     <g id="line2d_2">
      <defs>
       <path id="m3f06411a66" d="M 0 0 
L 0 3.5 
" style="stroke: #000000; stroke-width: 0.8"/>
      </defs>
      <g>
       <use xlink:href="#m3f06411a66" x="56.209178" y="239.76" style="stroke: #000000; stroke-width: 0.8"/>
      </g>
     </g>
     <g id="text_1">
      <!-- 0 -->
      <g transform="translate(53.027928 254.358437) scale(0.1 -0.1)">
       <defs>
        <path id="DejaVuSans-30" d="M 2034 4250 
Q 1547 4250 1301 3770 
Q 1056 3291 1056 2328 
Q 1056 1369 1301 889 
Q 1547 409 2034 409 
Q 2525 409 2770 889 
Q 3016 1369 3016 2328 
Q 3016 3291 2770 3770 
Q 2525 4250 2034 4250 
z
M 2034 4750 
Q 2819 4750 3233 4129 
Q 3647 3509 3647 2328 
Q 3647 1150 3233 529 
Q 2819 -91 2034 -91 
Q 1250 -91 836 529 
Q 422 1150 422 2328 
Q 422 3509 836 4129 
Q 1250 4750 2034 4750 
z
" transform="scale(0.015625)"/>
       </defs>
       <use xlink:href="#DejaVuSans-30"/>
      </g>
     </g>
    </g>
    <g id="xtick_2">
     <g id="line2d_3">
      <path d="M 106.987229 239.76 
L 106.987229 37.296 
" clip-path="url(#p9c1ed74106)" style="fill: none; stroke-dasharray: 2.96,1.28; stroke-dashoffset: 0; stroke: #b0b0b0; stroke-opacity: 0.4; stroke-width: 0.8"/>
     </g>
     <g id="line2d_4">
      <g>
       <use xlink:href="#m3f06411a66" x="106.987229" y="239.76" style="stroke: #000000; stroke-width: 0.8"/>
      </g>
     </g>
     <g id="text_2">
      <!-- 200 -->
      <g transform="translate(97.443479 254.358437) scale(0.1 -0.1)">
       <defs>
        <path id="DejaVuSans-32" d="M 1228 531 
L 3431 531 
L 3431 0 
L 469 0 
L 469 531 
Q 828 903 1448 1529 
Q 2069 2156 2228 2338 
Q 2531 2678 2651 2914 
Q 2772 3150 2772 3378 
Q 2772 3750 2511 3984 
Q 2250 4219 1831 4219 
Q 1534 4219 1204 4116 
Q 875 4013 500 3803 
L 500 4441 
Q 881 4594 1212 4672 
Q 1544 4750 1819 4750 
Q 2544 4750 2975 4387 
Q 3406 4025 3406 3419 
Q 3406 3131 3298 2873 
Q 3191 2616 2906 2266 
Q 2828 2175 2409 1742 
Q 1991 1309 1228 531 
z
" transform="scale(0.015625)"/>
       </defs>
       <use xlink:href="#DejaVuSans-32"/>
       <use xlink:href="#DejaVuSans-30" x="63.623047"/>
       <use xlink:href="#DejaVuSans-30" x="127.246094"/>
      </g>
     </g>
    </g>
    <g id="xtick_3">
     <g id="line2d_5">
      <path d="M 157.765279 239.76 
L 157.765279 37.296 
" clip-path="url(#p9c1ed74106)" style="fill: none; stroke-dasharray: 2.96,1.28; stroke-dashoffset: 0; stroke: #b0b0b0; stroke-opacity: 0.4; stroke-width: 0.8"/>
     </g>
     <g id="line2d_6">
      <g>
       <use xlink:href="#m3f06411a66" x="157.765279" y="239.76" style="stroke: #000000; stroke-width: 0.8"/>
      </g>
     </g>
     <g id="text_3">
      <!-- 400 -->
      <g transform="translate(148.221529 254.358437) scale(0.1 -0.1)">
       <defs>
        <path id="DejaVuSans-34" d="M 2419 4116 
L 825 1625 
L 2419 1625 
L 2419 4116 
z
M 2253 4666 
L 3047 4666 
L 3047 1625 
L 3713 1625 
L 3713 1100 
L 3047 1100 
L 3047 0 
L 2419 0 
L 2419 1100 
L 313 1100 
L 313 1709 
L 2253 4666 
z
" transform="scale(0.015625)"/>
       </defs>
       <use xlink:href="#DejaVuSans-34"/>
       <use xlink:href="#DejaVuSans-30" x="63.623047"/>
       <use xlink:href="#DejaVuSans-30" x="127.246094"/>
      </g>
     </g>
    </g>
    <g id="xtick_4">
     <g id="line2d_7">
      <path d="M 208.54333 239.76 
L 208.54333 37.296 
" clip-path="url(#p9c1ed74106)" style="fill: none; stroke-dasharray: 2.96,1.28; stroke-dashoffset: 0; stroke: #b0b0b0; stroke-opacity: 0.4; stroke-width: 0.8"/>
     </g>
     <g id="line2d_8">
      <g>
       <use xlink:href="#m3f06411a66" x="208.54333" y="239.76" style="stroke: #000000; stroke-width: 0.8"/>
      </g>
     </g>
     <g id="text_4">
      <!-- 600 -->
      <g transform="translate(198.99958 254.358437) scale(0.1 -0.1)">
       <defs>
        <path id="DejaVuSans-36" d="M 2113 2584 
Q 1688 2584 1439 2293 
Q 1191 2003 1191 1497 
Q 1191 994 1439 701 
Q 1688 409 2113 409 
Q 2538 409 2786 701 
Q 3034 994 3034 1497 
Q 3034 2003 2786 2293 
Q 2538 2584 2113 2584 
z
M 3366 4563 
L 3366 3988 
Q 3128 4100 2886 4159 
Q 2644 4219 2406 4219 
Q 1781 4219 1451 3797 
Q 1122 3375 1075 2522 
Q 1259 2794 1537 2939 
Q 1816 3084 2150 3084 
Q 2853 3084 3261 2657 
Q 3669 2231 3669 1497 
Q 3669 778 3244 343 
Q 2819 -91 2113 -91 
Q 1303 -91 875 529 
Q 447 1150 447 2328 
Q 447 3434 972 4092 
Q 1497 4750 2381 4750 
Q 2619 4750 2861 4703 
Q 3103 4656 3366 4563 
z
" transform="scale(0.015625)"/>
       </defs>
       <use xlink:href="#DejaVuSans-36"/>
       <use xlink:href="#DejaVuSans-30" x="63.623047"/>
       <use xlink:href="#DejaVuSans-30" x="127.246094"/>
      </g>
     </g>
    </g>
    <g id="xtick_5">
     <g id="line2d_9">
      <path d="M 259.321381 239.76 
L 259.321381 37.296 
" clip-path="url(#p9c1ed74106)" style="fill: none; stroke-dasharray: 2.96,1.28; stroke-dashoffset: 0; stroke: #b0b0b0; stroke-opacity: 0.4; stroke-width: 0.8"/>
     </g>
     <g id="line2d_10">
      <g>
       <use xlink:href="#m3f06411a66" x="259.321381" y="239.76" style="stroke: #000000; stroke-width: 0.8"/>
      </g>
     </g>
     <g id="text_5">
      <!-- 800 -->
      <g transform="translate(249.777631 254.358437) scale(0.1 -0.1)">
       <defs>
        <path id="DejaVuSans-38" d="M 2034 2216 
Q 1584 2216 1326 1975 
Q 1069 1734 1069 1313 
Q 1069 891 1326 650 
Q 1584 409 2034 409 
Q 2484 409 2743 651 
Q 3003 894 3003 1313 
Q 3003 1734 2745 1975 
Q 2488 2216 2034 2216 
z
M 1403 2484 
Q 997 2584 770 2862 
Q 544 3141 544 3541 
Q 544 4100 942 4425 
Q 1341 4750 2034 4750 
Q 2731 4750 3128 4425 
Q 3525 4100 3525 3541 
Q 3525 3141 3298 2862 
Q 3072 2584 2669 2484 
Q 3125 2378 3379 2068 
Q 3634 1759 3634 1313 
Q 3634 634 3220 271 
Q 2806 -91 2034 -91 
Q 1263 -91 848 271 
Q 434 634 434 1313 
Q 434 1759 690 2068 
Q 947 2378 1403 2484 
z
M 1172 3481 
Q 1172 3119 1398 2916 
Q 1625 2713 2034 2713 
Q 2441 2713 2670 2916 
Q 2900 3119 2900 3481 
Q 2900 3844 2670 4047 
Q 2441 4250 2034 4250 
Q 1625 4250 1398 4047 
Q 1172 3844 1172 3481 
z
" transform="scale(0.015625)"/>
       </defs>
       <use xlink:href="#DejaVuSans-38"/>
       <use xlink:href="#DejaVuSans-30" x="63.623047"/>
       <use xlink:href="#DejaVuSans-30" x="127.246094"/>
      </g>
     </g>
    </g>
    <g id="xtick_6">
     <g id="line2d_11">
      <path d="M 310.099432 239.76 
L 310.099432 37.296 
" clip-path="url(#p9c1ed74106)" style="fill: none; stroke-dasharray: 2.96,1.28; stroke-dashoffset: 0; stroke: #b0b0b0; stroke-opacity: 0.4; stroke-width: 0.8"/>
     </g>
     <g id="line2d_12">
      <g>
       <use xlink:href="#m3f06411a66" x="310.099432" y="239.76" style="stroke: #000000; stroke-width: 0.8"/>
      </g>
     </g>
     <g id="text_6">
      <!-- 1000 -->
      <g transform="translate(297.374432 254.358437) scale(0.1 -0.1)">
       <defs>
        <path id="DejaVuSans-31" d="M 794 531 
L 1825 531 
L 1825 4091 
L 703 3866 
L 703 4441 
L 1819 4666 
L 2450 4666 
L 2450 531 
L 3481 531 
L 3481 0 
L 794 0 
L 794 531 
z
" transform="scale(0.015625)"/>
       </defs>
       <use xlink:href="#DejaVuSans-31"/>
       <use xlink:href="#DejaVuSans-30" x="63.623047"/>
       <use xlink:href="#DejaVuSans-30" x="127.246094"/>
       <use xlink:href="#DejaVuSans-30" x="190.869141"/>
      </g>
     </g>
    </g>
    <g id="text_7">
     <!-- Epochs -->
     <g transform="translate(165.365625 268.036562) scale(0.1 -0.1)">
      <defs>
       <path id="DejaVuSans-45" d="M 628 4666 
L 3578 4666 
L 3578 4134 
L 1259 4134 
L 1259 2753 
L 3481 2753 
L 3481 2222 
L 1259 2222 
L 1259 531 
L 3634 531 
L 3634 0 
L 628 0 
L 628 4666 
z
" transform="scale(0.015625)"/>
       <path id="DejaVuSans-70" d="M 1159 525 
L 1159 -1331 
L 581 -1331 
L 581 3500 
L 1159 3500 
L 1159 2969 
Q 1341 3281 1617 3432 
Q 1894 3584 2278 3584 
Q 2916 3584 3314 3078 
Q 3713 2572 3713 1747 
Q 3713 922 3314 415 
Q 2916 -91 2278 -91 
Q 1894 -91 1617 61 
Q 1341 213 1159 525 
z
M 3116 1747 
Q 3116 2381 2855 2742 
Q 2594 3103 2138 3103 
Q 1681 3103 1420 2742 
Q 1159 2381 1159 1747 
Q 1159 1113 1420 752 
Q 1681 391 2138 391 
Q 2594 391 2855 752 
Q 3116 1113 3116 1747 
z
" transform="scale(0.015625)"/>
       <path id="DejaVuSans-6f" d="M 1959 3097 
Q 1497 3097 1228 2736 
Q 959 2375 959 1747 
Q 959 1119 1226 758 
Q 1494 397 1959 397 
Q 2419 397 2687 759 
Q 2956 1122 2956 1747 
Q 2956 2369 2687 2733 
Q 2419 3097 1959 3097 
z
M 1959 3584 
Q 2709 3584 3137 3096 
Q 3566 2609 3566 1747 
Q 3566 888 3137 398 
Q 2709 -91 1959 -91 
Q 1206 -91 779 398 
Q 353 888 353 1747 
Q 353 2609 779 3096 
Q 1206 3584 1959 3584 
z
" transform="scale(0.015625)"/>
       <path id="DejaVuSans-63" d="M 3122 3366 
L 3122 2828 
Q 2878 2963 2633 3030 
Q 2388 3097 2138 3097 
Q 1578 3097 1268 2742 
Q 959 2388 959 1747 
Q 959 1106 1268 751 
Q 1578 397 2138 397 
Q 2388 397 2633 464 
Q 2878 531 3122 666 
L 3122 134 
Q 2881 22 2623 -34 
Q 2366 -91 2075 -91 
Q 1284 -91 818 406 
Q 353 903 353 1747 
Q 353 2603 823 3093 
Q 1294 3584 2113 3584 
Q 2378 3584 2631 3529 
Q 2884 3475 3122 3366 
z
" transform="scale(0.015625)"/>
       <path id="DejaVuSans-68" d="M 3513 2113 
L 3513 0 
L 2938 0 
L 2938 2094 
Q 2938 2591 2744 2837 
Q 2550 3084 2163 3084 
Q 1697 3084 1428 2787 
Q 1159 2491 1159 1978 
L 1159 0 
L 581 0 
L 581 4863 
L 1159 4863 
L 1159 2956 
Q 1366 3272 1645 3428 
Q 1925 3584 2291 3584 
Q 2894 3584 3203 3211 
Q 3513 2838 3513 2113 
z
" transform="scale(0.015625)"/>
       <path id="DejaVuSans-73" d="M 2834 3397 
L 2834 2853 
Q 2591 2978 2328 3040 
Q 2066 3103 1784 3103 
Q 1356 3103 1142 2972 
Q 928 2841 928 2578 
Q 928 2378 1081 2264 
Q 1234 2150 1697 2047 
L 1894 2003 
Q 2506 1872 2764 1633 
Q 3022 1394 3022 966 
Q 3022 478 2636 193 
Q 2250 -91 1575 -91 
Q 1294 -91 989 -36 
Q 684 19 347 128 
L 347 722 
Q 666 556 975 473 
Q 1284 391 1588 391 
Q 1994 391 2212 530 
Q 2431 669 2431 922 
Q 2431 1156 2273 1281 
Q 2116 1406 1581 1522 
L 1381 1569 
Q 847 1681 609 1914 
Q 372 2147 372 2553 
Q 372 3047 722 3315 
Q 1072 3584 1716 3584 
Q 2034 3584 2315 3537 
Q 2597 3491 2834 3397 
z
" transform="scale(0.015625)"/>
      </defs>
      <use xlink:href="#DejaVuSans-45"/>
      <use xlink:href="#DejaVuSans-70" x="63.183594"/>
      <use xlink:href="#DejaVuSans-6f" x="126.660156"/>
      <use xlink:href="#DejaVuSans-63" x="187.841797"/>
      <use xlink:href="#DejaVuSans-68" x="242.822266"/>
      <use xlink:href="#DejaVuSans-73" x="306.201172"/>
     </g>
    </g>
   </g>
   <g id="matplotlib.axis_2">
    <g id="ytick_1">
     <g id="line2d_13">
      <path d="M 43.78125 220.027479 
L 322.78125 220.027479 
" clip-path="url(#p9c1ed74106)" style="fill: none; stroke-dasharray: 2.96,1.28; stroke-dashoffset: 0; stroke: #b0b0b0; stroke-opacity: 0.4; stroke-width: 0.8"/>
     </g>
     <g id="line2d_14">
      <defs>
       <path id="m985363280b" d="M 0 0 
L -3.5 0 
" style="stroke: #000000; stroke-width: 0.8"/>
      </defs>
      <g>
       <use xlink:href="#m985363280b" x="43.78125" y="220.027479" style="stroke: #000000; stroke-width: 0.8"/>
      </g>
     </g>
     <g id="text_8">
      <!-- 0.7 -->
      <g transform="translate(20.878125 223.826698) scale(0.1 -0.1)">
       <defs>
        <path id="DejaVuSans-2e" d="M 684 794 
L 1344 794 
L 1344 0 
L 684 0 
L 684 794 
z
" transform="scale(0.015625)"/>
        <path id="DejaVuSans-37" d="M 525 4666 
L 3525 4666 
L 3525 4397 
L 1831 0 
L 1172 0 
L 2766 4134 
L 525 4134 
L 525 4666 
z
" transform="scale(0.015625)"/>
       </defs>
       <use xlink:href="#DejaVuSans-30"/>
       <use xlink:href="#DejaVuSans-2e" x="63.623047"/>
       <use xlink:href="#DejaVuSans-37" x="95.410156"/>
      </g>
     </g>
    </g>
    <g id="ytick_2">
     <g id="line2d_15">
      <path d="M 43.78125 196.644525 
L 322.78125 196.644525 
" clip-path="url(#p9c1ed74106)" style="fill: none; stroke-dasharray: 2.96,1.28; stroke-dashoffset: 0; stroke: #b0b0b0; stroke-opacity: 0.4; stroke-width: 0.8"/>
     </g>
     <g id="line2d_16">
      <g>
       <use xlink:href="#m985363280b" x="43.78125" y="196.644525" style="stroke: #000000; stroke-width: 0.8"/>
      </g>
     </g>
     <g id="text_9">
      <!-- 0.8 -->
      <g transform="translate(20.878125 200.443743) scale(0.1 -0.1)">
       <use xlink:href="#DejaVuSans-30"/>
       <use xlink:href="#DejaVuSans-2e" x="63.623047"/>
       <use xlink:href="#DejaVuSans-38" x="95.410156"/>
      </g>
     </g>
    </g>
    <g id="ytick_3">
     <g id="line2d_17">
      <path d="M 43.78125 173.26157 
L 322.78125 173.26157 
" clip-path="url(#p9c1ed74106)" style="fill: none; stroke-dasharray: 2.96,1.28; stroke-dashoffset: 0; stroke: #b0b0b0; stroke-opacity: 0.4; stroke-width: 0.8"/>
     </g>
     <g id="line2d_18">
      <g>
       <use xlink:href="#m985363280b" x="43.78125" y="173.26157" style="stroke: #000000; stroke-width: 0.8"/>
      </g>
     </g>
     <g id="text_10">
      <!-- 0.9 -->
      <g transform="translate(20.878125 177.060788) scale(0.1 -0.1)">
       <defs>
        <path id="DejaVuSans-39" d="M 703 97 
L 703 672 
Q 941 559 1184 500 
Q 1428 441 1663 441 
Q 2288 441 2617 861 
Q 2947 1281 2994 2138 
Q 2813 1869 2534 1725 
Q 2256 1581 1919 1581 
Q 1219 1581 811 2004 
Q 403 2428 403 3163 
Q 403 3881 828 4315 
Q 1253 4750 1959 4750 
Q 2769 4750 3195 4129 
Q 3622 3509 3622 2328 
Q 3622 1225 3098 567 
Q 2575 -91 1691 -91 
Q 1453 -91 1209 -44 
Q 966 3 703 97 
z
M 1959 2075 
Q 2384 2075 2632 2365 
Q 2881 2656 2881 3163 
Q 2881 3666 2632 3958 
Q 2384 4250 1959 4250 
Q 1534 4250 1286 3958 
Q 1038 3666 1038 3163 
Q 1038 2656 1286 2365 
Q 1534 2075 1959 2075 
z
" transform="scale(0.015625)"/>
       </defs>
       <use xlink:href="#DejaVuSans-30"/>
       <use xlink:href="#DejaVuSans-2e" x="63.623047"/>
       <use xlink:href="#DejaVuSans-39" x="95.410156"/>
      </g>
     </g>
    </g>
    <g id="ytick_4">
     <g id="line2d_19">
      <path d="M 43.78125 149.878615 
L 322.78125 149.878615 
" clip-path="url(#p9c1ed74106)" style="fill: none; stroke-dasharray: 2.96,1.28; stroke-dashoffset: 0; stroke: #b0b0b0; stroke-opacity: 0.4; stroke-width: 0.8"/>
     </g>
     <g id="line2d_20">
      <g>
       <use xlink:href="#m985363280b" x="43.78125" y="149.878615" style="stroke: #000000; stroke-width: 0.8"/>
      </g>
     </g>
     <g id="text_11">
      <!-- 1.0 -->
      <g transform="translate(20.878125 153.677834) scale(0.1 -0.1)">
       <use xlink:href="#DejaVuSans-31"/>
       <use xlink:href="#DejaVuSans-2e" x="63.623047"/>
       <use xlink:href="#DejaVuSans-30" x="95.410156"/>
      </g>
     </g>
    </g>
    <g id="ytick_5">
     <g id="line2d_21">
      <path d="M 43.78125 126.49566 
L 322.78125 126.49566 
" clip-path="url(#p9c1ed74106)" style="fill: none; stroke-dasharray: 2.96,1.28; stroke-dashoffset: 0; stroke: #b0b0b0; stroke-opacity: 0.4; stroke-width: 0.8"/>
     </g>
     <g id="line2d_22">
      <g>
       <use xlink:href="#m985363280b" x="43.78125" y="126.49566" style="stroke: #000000; stroke-width: 0.8"/>
      </g>
     </g>
     <g id="text_12">
      <!-- 1.1 -->
      <g transform="translate(20.878125 130.294879) scale(0.1 -0.1)">
       <use xlink:href="#DejaVuSans-31"/>
       <use xlink:href="#DejaVuSans-2e" x="63.623047"/>
       <use xlink:href="#DejaVuSans-31" x="95.410156"/>
      </g>
     </g>
    </g>
    <g id="ytick_6">
     <g id="line2d_23">
      <path d="M 43.78125 103.112705 
L 322.78125 103.112705 
" clip-path="url(#p9c1ed74106)" style="fill: none; stroke-dasharray: 2.96,1.28; stroke-dashoffset: 0; stroke: #b0b0b0; stroke-opacity: 0.4; stroke-width: 0.8"/>
     </g>
     <g id="line2d_24">
      <g>
       <use xlink:href="#m985363280b" x="43.78125" y="103.112705" style="stroke: #000000; stroke-width: 0.8"/>
      </g>
     </g>
     <g id="text_13">
      <!-- 1.2 -->
      <g transform="translate(20.878125 106.911924) scale(0.1 -0.1)">
       <use xlink:href="#DejaVuSans-31"/>
       <use xlink:href="#DejaVuSans-2e" x="63.623047"/>
       <use xlink:href="#DejaVuSans-32" x="95.410156"/>
      </g>
     </g>
    </g>
    <g id="ytick_7">
     <g id="line2d_25">
      <path d="M 43.78125 79.729751 
L 322.78125 79.729751 
" clip-path="url(#p9c1ed74106)" style="fill: none; stroke-dasharray: 2.96,1.28; stroke-dashoffset: 0; stroke: #b0b0b0; stroke-opacity: 0.4; stroke-width: 0.8"/>
     </g>
     <g id="line2d_26">
      <g>
       <use xlink:href="#m985363280b" x="43.78125" y="79.729751" style="stroke: #000000; stroke-width: 0.8"/>
      </g>
     </g>
     <g id="text_14">
      <!-- 1.3 -->
      <g transform="translate(20.878125 83.528969) scale(0.1 -0.1)">
       <defs>
        <path id="DejaVuSans-33" d="M 2597 2516 
Q 3050 2419 3304 2112 
Q 3559 1806 3559 1356 
Q 3559 666 3084 287 
Q 2609 -91 1734 -91 
Q 1441 -91 1130 -33 
Q 819 25 488 141 
L 488 750 
Q 750 597 1062 519 
Q 1375 441 1716 441 
Q 2309 441 2620 675 
Q 2931 909 2931 1356 
Q 2931 1769 2642 2001 
Q 2353 2234 1838 2234 
L 1294 2234 
L 1294 2753 
L 1863 2753 
Q 2328 2753 2575 2939 
Q 2822 3125 2822 3475 
Q 2822 3834 2567 4026 
Q 2313 4219 1838 4219 
Q 1578 4219 1281 4162 
Q 984 4106 628 3988 
L 628 4550 
Q 988 4650 1302 4700 
Q 1616 4750 1894 4750 
Q 2613 4750 3031 4423 
Q 3450 4097 3450 3541 
Q 3450 3153 3228 2886 
Q 3006 2619 2597 2516 
z
" transform="scale(0.015625)"/>
       </defs>
       <use xlink:href="#DejaVuSans-31"/>
       <use xlink:href="#DejaVuSans-2e" x="63.623047"/>
       <use xlink:href="#DejaVuSans-33" x="95.410156"/>
      </g>
     </g>
    </g>
    <g id="ytick_8">
     <g id="line2d_27">
      <path d="M 43.78125 56.346796 
L 322.78125 56.346796 
" clip-path="url(#p9c1ed74106)" style="fill: none; stroke-dasharray: 2.96,1.28; stroke-dashoffset: 0; stroke: #b0b0b0; stroke-opacity: 0.4; stroke-width: 0.8"/>
     </g>
     <g id="line2d_28">
      <g>
       <use xlink:href="#m985363280b" x="43.78125" y="56.346796" style="stroke: #000000; stroke-width: 0.8"/>
      </g>
     </g>
     <g id="text_15">
      <!-- 1.4 -->
      <g transform="translate(20.878125 60.146015) scale(0.1 -0.1)">
       <use xlink:href="#DejaVuSans-31"/>
       <use xlink:href="#DejaVuSans-2e" x="63.623047"/>
       <use xlink:href="#DejaVuSans-34" x="95.410156"/>
      </g>
     </g>
    </g>
    <g id="text_16">
     <!-- Loss -->
     <g transform="translate(14.798438 149.495187) rotate(-90) scale(0.1 -0.1)">
      <defs>
       <path id="DejaVuSans-4c" d="M 628 4666 
L 1259 4666 
L 1259 531 
L 3531 531 
L 3531 0 
L 628 0 
L 628 4666 
z
" transform="scale(0.015625)"/>
      </defs>
      <use xlink:href="#DejaVuSans-4c"/>
      <use xlink:href="#DejaVuSans-6f" x="53.962891"/>
      <use xlink:href="#DejaVuSans-73" x="115.144531"/>
      <use xlink:href="#DejaVuSans-73" x="167.244141"/>
     </g>
    </g>
   </g>
   <g id="line2d_29">
    <path d="M 56.463068 203.04903 
L 56.716958 219.317626 
L 56.970849 220.879778 
L 57.224739 221.672853 
L 57.732519 221.4584 
L 57.98641 221.886066 
L 58.2403 221.804352 
L 58.49419 221.952757 
L 58.74808 221.917258 
L 59.255861 222.354082 
L 59.509751 222.991882 
L 59.763641 222.216757 
L 60.017532 221.839753 
L 60.271422 222.494751 
L 60.525312 222.692898 
L 61.033093 223.598044 
L 61.540873 222.710167 
L 61.794764 222.75977 
L 62.048654 223.24274 
L 62.302544 222.92062 
L 62.810325 223.208092 
L 63.064215 223.486629 
L 63.318105 222.99761 
L 63.571995 223.048537 
L 63.825886 223.649919 
L 64.079776 223.162085 
L 64.333666 223.146489 
L 64.587556 223.430908 
L 64.841447 223.058405 
L 65.095337 223.056147 
L 65.349227 224.065934 
L 65.603117 224.088443 
L 65.857008 222.830042 
L 66.364788 224.099607 
L 66.872569 223.590183 
L 67.126459 223.668901 
L 67.380349 223.308747 
L 67.88813 223.648971 
L 68.14202 222.914209 
L 68.39591 223.615926 
L 68.6498 223.697403 
L 68.903691 224.114436 
L 69.157581 223.805348 
L 69.411471 223.772721 
L 69.665361 223.617459 
L 70.173142 224.15406 
L 70.427032 224.048471 
L 70.680922 223.820581 
L 70.934813 224.201196 
L 71.188703 224.325642 
L 71.442593 223.919704 
L 71.696483 224.067997 
L 71.950374 224.807358 
L 72.204264 224.470632 
L 72.965935 224.935972 
L 73.219825 226.183683 
L 73.473715 225.182272 
L 73.727605 225.918567 
L 73.981496 224.504138 
L 74.235386 226.403029 
L 74.489276 225.296015 
L 74.743166 225.014592 
L 74.997057 225.903654 
L 75.250947 224.83232 
L 75.504837 226.113397 
L 75.758727 226.192993 
L 76.012618 225.727598 
L 76.266508 225.95808 
L 76.520398 225.383067 
L 76.774288 225.225032 
L 77.028179 225.731361 
L 77.282069 225.384531 
L 77.535959 225.322719 
L 78.04374 226.520409 
L 78.29763 226.836048 
L 78.55152 227.385429 
L 79.059301 225.514538 
L 79.313191 226.509719 
L 79.567081 225.753354 
L 79.820972 225.648699 
L 80.328752 226.770236 
L 80.582642 226.069522 
L 81.090423 227.03871 
L 81.344313 227.182167 
L 81.852094 224.251621 
L 82.359874 227.301345 
L 82.613764 227.100676 
L 82.867655 226.320046 
L 83.121545 227.508593 
L 83.375435 224.962383 
L 83.629325 227.047477 
L 83.883216 225.568922 
L 84.137106 227.359352 
L 84.390996 227.04848 
L 84.644886 227.266767 
L 84.898777 226.961595 
L 85.152667 227.350516 
L 85.660447 226.709817 
L 86.168228 228.096776 
L 86.422118 227.367227 
L 87.183789 226.622918 
L 87.437679 227.28108 
L 87.691569 227.475492 
L 87.94546 226.576158 
L 88.19935 226.52374 
L 88.45324 225.864936 
L 88.961021 226.6225 
L 89.214911 227.051156 
L 89.468801 224.896473 
L 89.722691 226.848605 
L 89.976582 224.280109 
L 90.230472 224.597866 
L 90.484362 225.409423 
L 90.738252 223.828958 
L 90.992143 225.767041 
L 91.499923 225.307987 
L 91.753813 225.495681 
L 92.007704 224.631274 
L 92.261594 226.308283 
L 92.515484 224.49381 
L 92.769374 225.679305 
L 93.023265 225.546273 
L 93.277155 225.00761 
L 93.531045 225.885229 
L 93.784936 225.271959 
L 94.038826 226.073355 
L 94.292716 225.094133 
L 94.546606 226.430179 
L 94.800497 224.444402 
L 95.054387 224.790633 
L 95.562167 226.092575 
L 95.816058 225.344558 
L 96.069948 225.711877 
L 96.323838 224.505517 
L 96.831619 226.765539 
L 97.085509 225.912951 
L 97.339399 225.473005 
L 97.593289 226.446903 
L 97.84718 226.189871 
L 98.10107 226.333035 
L 98.35496 224.279788 
L 98.862741 225.835515 
L 99.116631 226.324548 
L 99.370521 226.059878 
L 99.624411 226.308366 
L 99.878302 225.777912 
L 100.386082 226.928605 
L 100.639972 226.772591 
L 100.893863 226.753887 
L 101.401643 226.110122 
L 101.655533 226.408032 
L 101.909424 226.250345 
L 102.163314 227.218906 
L 102.417204 226.751992 
L 102.671094 227.450893 
L 102.924985 227.633458 
L 103.432765 226.994975 
L 103.686655 227.171254 
L 103.940546 226.008658 
L 104.194436 227.270627 
L 104.448326 227.141735 
L 104.702216 226.819323 
L 105.209997 227.606419 
L 105.717777 226.668019 
L 105.971668 227.826936 
L 106.225558 228.24815 
L 106.479448 226.554416 
L 106.733338 227.58635 
L 106.987229 226.855936 
L 107.241119 227.533039 
L 107.748899 226.309635 
L 108.00279 226.988076 
L 108.25668 225.984714 
L 108.51057 226.44236 
L 108.76446 226.444074 
L 109.018351 227.712817 
L 109.272241 226.861037 
L 109.526131 227.444858 
L 109.780021 227.712496 
L 110.287802 225.366189 
L 110.541692 226.148575 
L 110.795583 228.128038 
L 111.049473 227.139477 
L 111.303363 227.718197 
L 111.557253 226.936661 
L 111.811144 227.387102 
L 112.065034 227.434196 
L 112.572814 226.274736 
L 112.826705 226.207711 
L 113.334485 227.651298 
L 113.588375 227.347715 
L 113.842266 228.035787 
L 114.096156 227.614601 
L 114.350046 227.720664 
L 114.857827 227.472733 
L 115.111717 227.724092 
L 115.365607 227.280467 
L 115.619497 228.212944 
L 116.127278 227.676231 
L 116.381168 227.757277 
L 116.635058 225.530733 
L 116.888949 227.564705 
L 117.142839 226.588799 
L 117.396729 228.186811 
L 117.650619 227.779521 
L 117.90451 227.072508 
L 118.1584 227.382112 
L 118.41229 226.989024 
L 118.66618 228.17817 
L 118.920071 227.461861 
L 119.173961 228.465683 
L 119.427851 227.262739 
L 119.681741 226.723504 
L 119.935632 228.092316 
L 120.189522 227.976414 
L 120.443412 227.548259 
L 120.697302 227.503227 
L 120.951193 224.879177 
L 121.205083 226.533956 
L 121.458973 227.326377 
L 121.712863 226.387391 
L 121.966754 227.612468 
L 122.220644 227.333234 
L 122.474534 227.390433 
L 122.728424 227.923619 
L 122.982315 228.026156 
L 123.236205 227.252342 
L 123.743985 226.627043 
L 123.997876 226.806096 
L 124.251766 226.827323 
L 124.505656 227.212592 
L 124.759546 228.415635 
L 125.013437 227.012034 
L 125.267327 227.725848 
L 125.775107 227.295129 
L 126.028998 228.353572 
L 126.282888 227.6215 
L 126.536778 227.741988 
L 126.790669 228.725991 
L 127.044559 228.215383 
L 127.298449 228.339314 
L 127.552339 228.143425 
L 127.80623 228.754019 
L 128.06012 227.41584 
L 128.31401 228.642715 
L 128.821791 229.43685 
L 129.329571 228.157766 
L 129.583461 228.53045 
L 129.837352 228.672235 
L 130.091242 228.560457 
L 130.345132 229.091679 
L 130.599022 227.70196 
L 130.852913 228.797657 
L 131.106803 228.73912 
L 131.360693 228.301627 
L 131.614583 228.660262 
L 131.868474 228.708597 
L 132.122364 229.114661 
L 132.376254 227.738935 
L 132.630144 228.46776 
L 132.884035 228.007104 
L 133.137925 228.335523 
L 133.391815 228.861406 
L 133.645705 226.577789 
L 133.899596 228.934619 
L 134.153486 229.075846 
L 134.407376 228.308833 
L 134.661266 227.919535 
L 135.169047 229.042159 
L 135.422937 229.635708 
L 135.676827 228.541266 
L 136.438498 228.164986 
L 136.946279 229.267832 
L 137.200169 228.234171 
L 137.454059 228.246408 
L 137.707949 229.332725 
L 137.96184 229.01034 
L 138.46962 228.076581 
L 138.72351 228.907288 
L 138.977401 228.929072 
L 139.231291 228.287481 
L 139.485181 228.336596 
L 139.739071 228.971511 
L 139.992962 228.322171 
L 140.500742 228.41923 
L 140.754632 229.006466 
L 141.008523 228.32992 
L 141.262413 228.666005 
L 141.516303 227.531994 
L 141.770193 228.096721 
L 142.024084 228.963204 
L 142.277974 228.503482 
L 142.531864 227.660608 
L 142.785755 228.700932 
L 143.039645 228.961183 
L 143.293535 226.553092 
L 143.547425 227.970588 
L 143.801316 228.264735 
L 144.055206 226.789483 
L 144.562986 228.199968 
L 144.816877 227.809918 
L 145.070767 227.748622 
L 145.324657 228.375704 
L 145.578547 228.192136 
L 145.832438 228.783608 
L 146.086328 228.340554 
L 146.340218 228.935009 
L 146.594108 229.07795 
L 146.847999 227.492496 
L 147.101889 228.797921 
L 147.355779 228.153975 
L 147.609669 228.456499 
L 147.86356 227.976177 
L 148.11745 227.942685 
L 148.37134 227.660078 
L 148.62523 228.062114 
L 149.133011 228.177139 
L 149.386901 228.550004 
L 149.640791 228.691189 
L 149.894682 227.817737 
L 150.148572 228.646339 
L 150.402462 228.029013 
L 150.910243 227.714169 
L 151.164133 228.374101 
L 151.418023 227.877932 
L 151.671913 228.562548 
L 151.925804 227.806964 
L 152.179694 228.759204 
L 152.433584 228.701113 
L 152.687474 228.168428 
L 152.941365 228.05941 
L 153.449145 229.300014 
L 153.703035 228.679844 
L 153.956926 229.046229 
L 154.210816 229.164724 
L 154.464706 228.934173 
L 154.718596 228.154602 
L 155.226377 228.808333 
L 155.480267 227.394084 
L 155.988048 228.966201 
L 156.241938 228.126059 
L 156.495828 228.413823 
L 157.003609 228.647343 
L 157.257499 228.825657 
L 157.765279 227.507297 
L 158.01917 228.496401 
L 158.27306 228.71112 
L 158.78084 227.859786 
L 159.034731 229.34807 
L 159.288621 229.080347 
L 159.542511 228.3347 
L 159.796402 229.655402 
L 160.304182 228.523273 
L 160.558072 229.176167 
L 160.811963 228.645698 
L 161.065853 228.554144 
L 161.319743 228.835943 
L 161.573633 228.891692 
L 162.081414 229.23331 
L 162.335304 229.307136 
L 162.843085 228.740249 
L 163.096975 229.281881 
L 163.350865 229.341324 
L 163.858646 228.369446 
L 164.112536 229.017769 
L 164.366426 229.33207 
L 164.620316 228.858814 
L 165.128097 229.241979 
L 165.381987 228.419398 
L 165.635877 229.515791 
L 165.889768 229.475025 
L 166.397548 228.997699 
L 166.651438 229.228571 
L 166.905329 229.15448 
L 167.159219 228.559496 
L 167.413109 229.598983 
L 167.666999 228.697475 
L 167.92089 229.735346 
L 168.17478 229.103386 
L 168.42867 230.327571 
L 168.68256 228.860667 
L 169.190341 229.860211 
L 169.444231 229.316432 
L 169.698121 229.832796 
L 169.952012 229.546635 
L 170.205902 229.698565 
L 170.459792 229.112626 
L 170.713682 228.96004 
L 170.967573 229.493603 
L 171.221463 228.453028 
L 171.475353 229.006089 
L 171.729243 228.298784 
L 171.983134 229.564391 
L 172.237024 228.633447 
L 172.490914 229.415359 
L 172.744804 228.574659 
L 172.998695 228.83696 
L 173.252585 228.500959 
L 173.506475 229.528781 
L 173.760365 228.82411 
L 174.014256 229.352418 
L 174.268146 229.243372 
L 174.522036 229.346174 
L 174.775926 228.571147 
L 175.029817 229.642287 
L 175.283707 229.237867 
L 175.537597 229.206006 
L 175.791488 228.441349 
L 176.045378 229.486439 
L 176.553158 228.597614 
L 176.807049 229.981967 
L 177.060939 229.632823 
L 177.314829 229.838775 
L 177.568719 230.434317 
L 177.82261 228.532318 
L 178.0765 228.615133 
L 178.33039 229.047149 
L 178.58428 228.931316 
L 178.838171 228.236428 
L 179.092061 228.304178 
L 179.345951 230.182609 
L 179.853732 228.597196 
L 180.107622 228.738869 
L 180.361512 229.364655 
L 180.615402 229.079302 
L 180.869293 229.115999 
L 181.123183 229.741311 
L 181.377073 228.876835 
L 181.630963 228.669127 
L 181.884854 229.694119 
L 182.138744 230.150888 
L 182.392634 229.148403 
L 182.646524 229.478983 
L 182.900415 229.310899 
L 183.154305 229.34354 
L 183.408195 230.169368 
L 183.662085 229.593325 
L 183.915976 228.566116 
L 184.169866 229.626147 
L 184.423756 228.723329 
L 184.677646 229.398788 
L 184.931537 229.464837 
L 185.185427 229.328167 
L 185.693207 228.578646 
L 185.947098 228.982368 
L 186.200988 229.603708 
L 186.454878 229.193059 
L 186.708768 229.596976 
L 186.962659 229.790371 
L 187.216549 229.773716 
L 187.724329 228.71098 
L 187.97822 228.641001 
L 188.23211 229.092696 
L 188.486 228.708555 
L 188.73989 229.677492 
L 188.993781 229.771764 
L 189.501561 228.98549 
L 189.755451 229.348962 
L 190.009342 228.692778 
L 190.517122 229.931082 
L 190.771012 229.492934 
L 191.024903 229.780308 
L 191.278793 229.6966 
L 191.532683 228.825601 
L 191.786574 229.102814 
L 192.040464 228.939539 
L 192.294354 229.599123 
L 192.548244 229.531095 
L 192.802135 229.106466 
L 193.056025 229.155916 
L 193.309915 228.718339 
L 193.563805 229.544014 
L 193.817696 228.897155 
L 194.071586 229.256543 
L 194.325476 228.306909 
L 194.579366 229.860671 
L 194.833257 229.178815 
L 195.087147 229.515359 
L 195.341037 229.165532 
L 195.594927 229.277714 
L 195.848818 229.144877 
L 196.102708 229.578593 
L 196.356598 228.809685 
L 196.610488 229.33738 
L 196.864379 228.937253 
L 197.626049 229.770203 
L 197.87994 228.96464 
L 198.13383 229.703053 
L 198.38772 229.943751 
L 198.64161 228.897936 
L 199.149391 229.682106 
L 199.403281 229.15986 
L 199.911062 229.657186 
L 200.164952 228.8582 
L 200.418842 229.665799 
L 200.672732 228.607872 
L 200.926623 228.833824 
L 201.180513 230.225564 
L 201.434403 229.703471 
L 201.688293 230.542262 
L 201.942184 230.185689 
L 202.196074 229.154564 
L 202.449964 229.710426 
L 202.703854 229.996518 
L 202.957745 229.448349 
L 203.211635 230.012629 
L 203.465525 229.21278 
L 203.719415 229.768224 
L 203.973306 229.784252 
L 204.227196 229.469241 
L 204.481086 229.586509 
L 204.734976 229.295052 
L 204.988867 229.841827 
L 205.242757 229.173839 
L 205.496647 229.948768 
L 205.750537 229.772726 
L 206.004428 229.334899 
L 206.258318 229.889256 
L 206.766098 228.719036 
L 207.019989 229.349895 
L 207.273879 229.042772 
L 207.527769 229.782231 
L 207.78166 229.583485 
L 208.03555 229.722538 
L 208.28944 229.363456 
L 208.797221 229.304362 
L 209.051111 229.901911 
L 209.558891 228.990521 
L 209.812782 229.116598 
L 210.066672 229.500711 
L 210.320562 229.345603 
L 210.574452 228.381363 
L 210.828343 229.14609 
L 211.082233 228.922242 
L 211.336123 229.703597 
L 211.843904 228.634311 
L 212.097794 228.896319 
L 212.351684 228.854005 
L 212.605574 228.998396 
L 212.859465 228.936277 
L 213.113355 229.503582 
L 213.367245 228.929699 
L 214.128916 229.738343 
L 214.382806 228.729029 
L 214.636696 228.807831 
L 214.890587 230.144602 
L 215.144477 229.526788 
L 215.398367 229.276223 
L 215.652257 229.218146 
L 215.906148 229.484251 
L 216.160038 229.197588 
L 216.413928 229.498704 
L 216.667818 230.120741 
L 217.175599 229.051107 
L 217.429489 229.907319 
L 217.683379 228.874828 
L 217.93727 229.564767 
L 218.19116 229.566468 
L 218.44505 229.109686 
L 218.69894 229.353157 
L 218.952831 228.597461 
L 219.206721 229.273156 
L 219.460611 228.792082 
L 219.714501 230.295752 
L 219.968392 229.47777 
L 220.222282 229.261547 
L 220.476172 229.824726 
L 220.730062 229.436836 
L 220.983953 229.58991 
L 221.237843 229.972991 
L 221.491733 229.759109 
L 221.745623 228.773336 
L 221.999514 229.265435 
L 222.253404 229.210508 
L 222.507294 230.01819 
L 223.015075 228.600081 
L 223.522855 229.375666 
L 223.776745 229.170773 
L 224.030636 229.63536 
L 224.284526 228.869141 
L 224.538416 229.061476 
L 224.792307 229.60184 
L 225.046197 229.369575 
L 225.300087 230.244755 
L 225.553977 230.199264 
L 225.807868 229.773674 
L 226.061758 229.069044 
L 226.315648 229.370871 
L 226.569538 229.11795 
L 226.823429 229.900963 
L 227.077319 229.008974 
L 227.83899 229.27586 
L 228.09288 229.065156 
L 228.34677 229.555053 
L 228.60066 228.737266 
L 228.854551 229.978274 
L 229.108441 228.759092 
L 229.362331 229.904726 
L 229.616221 229.594259 
L 229.870112 228.874312 
L 230.124002 228.621363 
L 230.631782 229.877465 
L 230.885673 228.773601 
L 231.139563 228.857183 
L 231.393453 229.299094 
L 231.647343 229.200989 
L 231.901234 229.820224 
L 232.155124 229.428126 
L 232.409014 230.303404 
L 232.662904 229.602203 
L 232.916795 229.416362 
L 233.170685 229.738343 
L 233.424575 229.842036 
L 233.678465 228.875552 
L 233.932356 229.697255 
L 234.186246 229.694315 
L 234.440136 229.39968 
L 234.694026 228.647956 
L 234.947917 229.288975 
L 235.201807 228.803956 
L 235.455697 229.348307 
L 235.709587 229.45168 
L 235.963478 229.049574 
L 236.217368 229.047915 
L 236.471258 228.918242 
L 236.725148 229.498189 
L 237.232929 229.225003 
L 237.486819 230.279529 
L 237.9946 229.069769 
L 238.24849 229.166647 
L 238.50238 229.030758 
L 238.75627 230.470861 
L 239.010161 228.856988 
L 239.264051 230.282623 
L 239.517941 228.927037 
L 239.771831 229.515304 
L 240.279612 229.569548 
L 240.533502 228.635942 
L 241.041283 229.849925 
L 241.295173 230.058985 
L 241.802954 228.653085 
L 242.056844 229.727276 
L 242.310734 229.739722 
L 242.564624 229.287359 
L 242.818515 229.458551 
L 243.072405 229.884085 
L 243.326295 229.798231 
L 243.580185 229.565771 
L 243.834076 229.493338 
L 244.341856 230.116184 
L 244.595746 229.119316 
L 244.849637 230.173062 
L 245.357417 228.605545 
L 245.611307 228.779455 
L 245.865198 228.379648 
L 246.372978 230.162539 
L 246.626868 229.633478 
L 246.880759 228.662841 
L 247.134649 228.461014 
L 247.642429 229.7206 
L 248.15021 229.137644 
L 248.4041 229.313282 
L 248.911881 229.025922 
L 249.165771 229.80081 
L 249.419661 229.417575 
L 249.673551 229.647806 
L 249.927442 228.763538 
L 250.181332 229.487986 
L 250.435222 228.764653 
L 250.689112 229.222773 
L 250.943003 229.439303 
L 251.196893 228.871427 
L 251.450783 229.429115 
L 251.704673 228.467412 
L 252.212454 230.375599 
L 252.466344 228.840681 
L 252.720234 228.826911 
L 252.974125 228.665921 
L 253.228015 229.722134 
L 253.735795 229.277045 
L 253.989686 229.422383 
L 254.243576 228.612248 
L 254.497466 228.835817 
L 254.751356 228.887594 
L 255.005247 228.174533 
L 255.259137 229.139734 
L 255.513027 229.417993 
L 255.766917 229.495889 
L 256.020808 229.879611 
L 256.274698 229.469938 
L 256.528588 229.372474 
L 257.036369 229.557004 
L 257.290259 229.004919 
L 257.544149 230.104504 
L 257.79804 229.348962 
L 258.05193 229.060835 
L 258.30582 229.115804 
L 258.55971 229.768796 
L 258.813601 229.330146 
L 259.067491 228.482966 
L 259.575271 229.225588 
L 259.829162 228.685378 
L 260.083052 229.083358 
L 260.336942 228.965852 
L 260.844723 229.427345 
L 261.098613 228.933058 
L 261.606393 229.402606 
L 261.860284 228.38185 
L 262.114174 229.940768 
L 262.368064 229.808057 
L 262.621954 229.314745 
L 262.875845 229.111874 
L 263.129735 229.782677 
L 263.383625 229.76021 
L 263.637515 228.77781 
L 263.891406 229.878803 
L 264.399186 229.544447 
L 264.653076 230.334024 
L 264.906967 229.453032 
L 265.160857 229.162076 
L 265.414747 230.370219 
L 265.668637 229.716935 
L 266.176418 229.777534 
L 266.430308 229.407401 
L 268.46143 229.242829 
L 268.71532 230.073535 
L 269.223101 229.573826 
L 269.476991 228.764026 
L 269.730881 229.766468 
L 270.238662 228.865281 
L 270.492552 228.607524 
L 270.746442 228.776291 
L 271.000333 229.781618 
L 271.508113 229.075888 
L 271.762003 229.043121 
L 272.015894 229.359192 
L 272.269784 229.119372 
L 272.523674 229.105909 
L 272.777564 228.606353 
L 273.031455 228.76804 
L 273.539235 229.605199 
L 274.047016 228.965824 
L 274.300906 229.245686 
L 274.554796 228.662702 
L 274.808687 229.101379 
L 275.824248 228.652513 
L 276.078138 229.92258 
L 276.585918 229.313073 
L 276.839809 228.650214 
L 277.093699 229.562217 
L 277.347589 229.164236 
L 277.601479 229.408028 
L 277.85537 229.321268 
L 278.10926 228.498283 
L 278.36315 228.658785 
L 278.61704 229.180027 
L 278.870931 228.983023 
L 279.124821 229.376056 
L 279.378711 229.431763 
L 279.632601 229.02995 
L 279.886492 228.303997 
L 280.140382 229.620252 
L 280.394272 229.057128 
L 280.648162 229.256627 
L 280.902053 229.256613 
L 281.155943 229.498035 
L 281.409833 228.937936 
L 281.917614 229.706775 
L 282.171504 229.304599 
L 282.679284 229.530551 
L 283.187065 228.78305 
L 283.440955 229.193853 
L 283.694845 229.208543 
L 283.948736 230.052629 
L 284.202626 228.891594 
L 284.456516 229.420181 
L 284.710406 229.239721 
L 285.472077 229.776294 
L 285.725967 229.609673 
L 285.979858 228.852054 
L 286.233748 228.484471 
L 286.487638 229.491234 
L 286.741528 229.471053 
L 286.995419 229.220529 
L 287.249309 229.201128 
L 287.503199 229.8389 
L 287.757089 229.087888 
L 288.01098 229.229533 
L 288.26487 229.722273 
L 288.51876 229.264961 
L 288.77265 230.240881 
L 289.026541 229.342355 
L 289.280431 229.449924 
L 289.534321 230.195166 
L 289.788212 229.132975 
L 290.042102 228.894312 
L 290.549882 229.972615 
L 291.057663 229.684363 
L 291.311553 229.858538 
L 291.565443 229.163832 
L 292.073224 228.948026 
L 292.327114 228.925072 
L 292.581004 229.510272 
L 292.834895 228.462798 
L 293.342675 229.508154 
L 293.596565 229.911026 
L 293.850456 229.089114 
L 294.104346 229.804545 
L 294.358236 229.605617 
L 294.612126 229.177045 
L 294.866017 229.361561 
L 295.119907 228.374478 
L 295.627687 229.454314 
L 295.881578 229.035637 
L 296.135468 229.626635 
L 296.643248 229.210104 
L 296.897139 229.809757 
L 297.151029 228.844835 
L 297.404919 229.337937 
L 297.9127 229.54846 
L 298.16659 228.904695 
L 298.42048 229.837228 
L 298.67437 228.995037 
L 298.928261 228.728137 
L 299.182151 229.985856 
L 299.689931 229.711848 
L 299.943822 229.411624 
L 300.197712 228.438575 
L 300.451602 229.752168 
L 300.705492 228.737921 
L 300.959383 229.527415 
L 301.467163 228.754549 
L 301.721053 228.748737 
L 301.974944 229.761047 
L 302.228834 229.555555 
L 302.482724 229.742384 
L 302.736614 228.829364 
L 302.990505 229.100807 
L 303.244395 228.762019 
L 303.498285 228.985309 
L 303.752175 230.141438 
L 304.006066 229.453617 
L 304.259956 229.211999 
L 304.513846 229.862622 
L 304.767736 229.171818 
L 305.021627 229.925409 
L 305.275517 229.903695 
L 305.529407 230.292853 
L 305.783298 228.91388 
L 306.037188 229.663429 
L 306.291078 229.980253 
L 306.544968 229.269937 
L 306.798859 229.871486 
L 307.052749 229.14078 
L 307.306639 229.185755 
L 307.560529 228.713169 
L 308.06831 229.158564 
L 308.3222 228.765782 
L 308.57609 230.557091 
L 308.829981 228.587886 
L 309.083871 229.342327 
L 309.337761 229.623206 
L 309.591651 228.942898 
L 309.845542 229.71982 
L 310.099432 230.110692 
L 310.099432 230.110692 
" clip-path="url(#p9c1ed74106)" style="fill: none; stroke: #0000ff; stroke-width: 0.6; stroke-linecap: square"/>
   </g>
   <g id="line2d_30">
    <path d="M 56.463068 211.944947 
L 56.716958 221.302497 
L 57.224739 218.935492 
L 57.478629 221.070942 
L 57.732519 221.9013 
L 57.98641 221.584421 
L 58.2403 220.961799 
L 58.49419 222.233636 
L 58.74808 219.178587 
L 59.001971 220.961464 
L 59.255861 220.020151 
L 59.509751 222.224604 
L 59.763641 221.63716 
L 60.017532 220.330939 
L 60.271422 221.891098 
L 60.525312 220.613491 
L 60.779202 215.318659 
L 61.033093 203.359582 
L 61.540873 218.763171 
L 62.048654 213.204868 
L 62.302544 197.286196 
L 62.556434 211.71395 
L 63.064215 175.950741 
L 63.318105 214.149735 
L 63.571995 216.626886 
L 63.825886 190.975793 
L 64.079776 219.084343 
L 64.333666 223.277667 
L 64.587556 222.336103 
L 64.841447 222.994892 
L 65.095337 220.358591 
L 65.349227 224.226548 
L 65.603117 222.801038 
L 65.857008 222.441218 
L 66.110898 210.744442 
L 66.364788 220.550425 
L 66.618678 220.744599 
L 66.872569 211.541559 
L 67.126459 220.260598 
L 67.380349 210.06653 
L 67.634239 206.852819 
L 67.88813 222.340535 
L 68.14202 222.333901 
L 68.39591 214.851688 
L 68.6498 221.723585 
L 68.903691 223.443493 
L 69.411471 218.886865 
L 69.665361 222.557288 
L 69.919252 224.006617 
L 70.173142 221.444393 
L 70.427032 186.486426 
L 70.680922 222.303294 
L 70.934813 219.895105 
L 71.188703 223.687354 
L 71.442593 223.482518 
L 71.696483 224.625281 
L 72.204264 224.91009 
L 72.458154 210.603703 
L 72.712044 214.644412 
L 72.965935 216.216585 
L 73.219825 206.481111 
L 73.473715 205.379769 
L 73.727605 223.306336 
L 73.981496 225.880672 
L 74.235386 223.529835 
L 74.489276 224.349419 
L 74.743166 222.244688 
L 74.997057 221.644867 
L 75.250947 205.996189 
L 75.504837 212.821912 
L 75.758727 226.00923 
L 76.012618 222.615825 
L 76.266508 221.372183 
L 76.520398 209.117328 
L 76.774288 224.744975 
L 77.028179 208.445466 
L 77.282069 225.356405 
L 77.535959 194.463623 
L 77.78985 201.72635 
L 78.04374 222.423002 
L 78.29763 221.543111 
L 78.55152 225.247457 
L 78.805411 202.029807 
L 79.059301 210.118252 
L 79.313191 206.33994 
L 79.567081 225.149687 
L 79.820972 224.55735 
L 80.074862 210.989028 
L 80.328752 223.428037 
L 80.582642 225.820086 
L 80.836533 208.298594 
L 81.090423 221.758721 
L 81.344313 211.883846 
L 81.598203 221.763502 
L 81.852094 222.333246 
L 82.105984 201.609862 
L 82.359874 145.784692 
L 82.613764 225.394775 
L 82.867655 221.338831 
L 83.121545 205.848496 
L 83.375435 46.498909 
L 83.629325 204.50162 
L 83.883216 200.57974 
L 84.137106 224.009906 
L 84.390996 209.692271 
L 84.644886 225.469939 
L 84.898777 225.797995 
L 85.152667 224.065223 
L 85.406557 225.108683 
L 85.660447 225.002188 
L 85.914338 150.688555 
L 86.168228 224.156959 
L 86.422118 221.508407 
L 86.676008 217.661077 
L 86.929899 226.45712 
L 87.183789 226.359196 
L 87.437679 224.791776 
L 87.691569 221.820338 
L 87.94546 223.63934 
L 88.19935 199.195749 
L 88.45324 220.619233 
L 88.70713 219.673488 
L 88.961021 203.520934 
L 89.214911 217.436087 
L 89.468801 214.833723 
L 89.722691 171.753849 
L 89.976582 222.465497 
L 90.230472 191.562457 
L 90.484362 213.231349 
L 90.738252 212.748685 
L 90.992143 191.019416 
L 91.246033 222.443267 
L 91.499923 225.177743 
L 91.753813 207.517853 
L 92.007704 207.718564 
L 92.261594 225.813842 
L 92.515484 222.432772 
L 92.769374 221.065729 
L 93.023265 225.524308 
L 93.277155 225.520029 
L 93.531045 221.467542 
L 93.784936 224.626605 
L 94.038826 225.130969 
L 94.292716 221.406818 
L 94.546606 225.744309 
L 94.800497 173.655848 
L 95.054387 221.48371 
L 95.308277 220.572585 
L 95.562167 221.162789 
L 95.816058 218.008312 
L 96.069948 223.100593 
L 96.323838 225.903139 
L 96.831619 224.386841 
L 97.085509 224.177029 
L 97.339399 163.098978 
L 97.593289 226.176714 
L 97.84718 222.620424 
L 98.10107 145.806685 
L 98.35496 223.53587 
L 98.60885 217.272477 
L 98.862741 197.130447 
L 99.116631 219.259661 
L 99.370521 225.542301 
L 99.624411 222.486737 
L 99.878302 225.743528 
L 100.132192 225.028293 
L 100.386082 224.87108 
L 100.639972 226.028839 
L 100.893863 224.984836 
L 101.147753 226.994013 
L 101.401643 223.414866 
L 101.909424 226.342192 
L 102.163314 222.955812 
L 102.417204 226.96972 
L 102.671094 227.501694 
L 102.924985 224.393057 
L 103.178875 226.426987 
L 103.432765 226.010637 
L 103.686655 227.39361 
L 103.940546 224.662689 
L 104.194436 214.640733 
L 104.448326 214.854169 
L 104.702216 225.908254 
L 104.956107 224.610006 
L 105.209997 225.982024 
L 105.463887 226.171474 
L 105.717777 225.957578 
L 105.971668 224.587134 
L 106.225558 226.409956 
L 106.479448 226.095627 
L 106.733338 224.27866 
L 106.987229 224.851247 
L 107.241119 226.563015 
L 107.495009 208.805843 
L 107.748899 99.051552 
L 108.25668 225.242342 
L 108.51057 191.838569 
L 108.76446 220.033601 
L 109.018351 215.460359 
L 109.272241 225.420796 
L 109.526131 226.134303 
L 109.780021 224.813644 
L 110.033912 224.915498 
L 110.287802 148.008226 
L 110.541692 215.608848 
L 111.049473 170.109523 
L 111.303363 224.450897 
L 111.557253 226.082888 
L 111.811144 224.531371 
L 112.065034 220.724376 
L 112.318924 225.36343 
L 112.572814 225.087972 
L 112.826705 222.71825 
L 113.080595 226.519322 
L 113.588375 190.244529 
L 113.842266 221.829885 
L 114.096156 226.354081 
L 114.350046 226.81326 
L 114.603936 226.988829 
L 114.857827 195.946763 
L 115.111717 202.16663 
L 115.365607 226.809595 
L 115.619497 225.130007 
L 115.873388 144.364953 
L 116.127278 154.381821 
L 116.381168 204.754081 
L 116.635058 216.266466 
L 116.888949 188.557527 
L 117.142839 123.002431 
L 117.396729 224.204471 
L 117.650619 226.042512 
L 117.90451 222.981067 
L 118.1584 224.183231 
L 118.41229 166.853959 
L 118.66618 199.536949 
L 118.920071 142.647623 
L 119.173961 197.803815 
L 119.427851 220.780613 
L 119.681741 217.27164 
L 119.935632 190.73699 
L 120.189522 213.707058 
L 120.443412 185.936334 
L 120.697302 223.989808 
L 120.951193 201.221331 
L 121.205083 164.943597 
L 121.458973 206.791621 
L 121.712863 226.68749 
L 121.966754 169.032447 
L 122.220644 136.713472 
L 122.474534 180.001583 
L 122.728424 100.55355 
L 122.982315 225.595277 
L 123.236205 225.60849 
L 123.490095 188.352035 
L 123.743985 223.860163 
L 123.997876 225.609549 
L 124.251766 202.53661 
L 124.505656 226.310109 
L 124.759546 225.945592 
L 125.013437 223.900038 
L 125.267327 196.177329 
L 125.521217 225.313799 
L 125.775107 202.453795 
L 126.028998 222.079767 
L 126.282888 225.023178 
L 126.536778 59.753168 
L 126.790669 224.077377 
L 127.044559 227.410907 
L 127.298449 57.699057 
L 127.552339 225.951613 
L 127.80623 221.594693 
L 128.06012 224.147063 
L 128.31401 117.379388 
L 128.5679 106.834825 
L 128.821791 226.223474 
L 129.075681 102.42957 
L 129.329571 121.577395 
L 129.837352 226.030846 
L 130.091242 225.682971 
L 130.345132 226.310248 
L 130.599022 224.626605 
L 130.852913 225.864574 
L 131.106803 225.093993 
L 131.360693 225.854414 
L 131.614583 214.757012 
L 131.868474 225.25175 
L 132.122364 165.35794 
L 132.376254 77.255552 
L 132.630144 227.738615 
L 132.884035 225.192391 
L 133.391815 225.850233 
L 133.645705 224.904236 
L 133.899596 225.199624 
L 134.153486 226.513064 
L 134.407376 226.396868 
L 134.661266 170.081551 
L 134.915157 226.091404 
L 135.169047 225.90895 
L 135.422937 227.000661 
L 135.676827 226.261035 
L 135.930718 227.393917 
L 136.184608 225.177018 
L 136.438498 227.541862 
L 136.692388 221.936297 
L 136.946279 225.875654 
L 137.200169 203.394286 
L 137.454059 223.41927 
L 137.707949 223.832177 
L 137.96184 226.413997 
L 138.21573 206.470728 
L 138.46962 226.802919 
L 138.72351 215.401948 
L 138.977401 226.605761 
L 139.231291 225.110272 
L 139.485181 226.902877 
L 139.739071 225.84056 
L 139.992962 226.478221 
L 140.246852 222.912007 
L 140.500742 222.54218 
L 140.754632 219.486254 
L 141.008523 226.387879 
L 141.262413 222.822808 
L 141.516303 226.486904 
L 142.024084 226.256561 
L 142.277974 227.057052 
L 142.785755 225.054411 
L 143.039645 226.584061 
L 143.293535 225.401228 
L 143.547425 222.742153 
L 143.801316 225.123568 
L 144.055206 121.155261 
L 144.309096 222.608954 
L 144.562986 225.28244 
L 144.816877 153.32441 
L 145.070767 226.294276 
L 145.324657 226.278248 
L 145.578547 225.823347 
L 145.832438 225.642984 
L 146.086328 227.255018 
L 146.340218 110.702823 
L 146.594108 226.147488 
L 146.847999 49.05259 
L 147.101889 227.592203 
L 147.355779 225.1766 
L 147.609669 226.908536 
L 147.86356 226.719072 
L 148.11745 217.714262 
L 148.37134 227.35899 
L 148.62523 224.370088 
L 148.879121 115.030726 
L 149.133011 225.501604 
L 149.386901 93.755312 
L 149.640791 226.972661 
L 149.894682 226.933023 
L 150.402462 223.704121 
L 150.656352 223.627285 
L 150.910243 226.969665 
L 151.164133 122.035375 
L 151.418023 224.114143 
L 151.671913 226.548311 
L 151.925804 123.419352 
L 152.179694 212.911682 
L 152.433584 225.151387 
L 152.687474 114.344563 
L 152.941365 114.263086 
L 153.195255 134.303262 
L 153.449145 225.921815 
L 153.956926 227.277944 
L 154.464706 223.141109 
L 154.718596 224.834118 
L 154.972487 224.269363 
L 155.226377 226.721497 
L 155.480267 219.441627 
L 155.734157 106.95424 
L 155.988048 225.915849 
L 156.495828 223.230768 
L 157.003609 226.740145 
L 157.257499 226.808563 
L 157.511389 224.950662 
L 157.765279 225.696225 
L 158.01917 199.480503 
L 158.52695 225.447987 
L 158.78084 225.66265 
L 159.034731 226.2293 
L 159.288621 225.988142 
L 159.542511 226.174861 
L 159.796402 224.955219 
L 160.050292 174.632228 
L 160.304182 226.241718 
L 160.558072 226.870947 
L 160.811963 228.08341 
L 161.065853 225.339569 
L 161.319743 225.422844 
L 161.573633 225.018787 
L 161.827524 226.418248 
L 162.081414 225.775556 
L 162.335304 226.959741 
L 162.589194 223.535744 
L 162.843085 225.764337 
L 163.096975 225.201743 
L 163.350865 225.227136 
L 163.604755 227.022348 
L 163.858646 226.751992 
L 164.112536 224.433489 
L 164.366426 226.064644 
L 164.620316 226.199613 
L 164.874207 226.847142 
L 165.128097 220.149657 
L 165.381987 226.060951 
L 165.635877 226.757999 
L 165.889768 226.701636 
L 166.143658 225.114258 
L 166.397548 224.454688 
L 166.651438 227.092062 
L 166.905329 226.523698 
L 167.159219 226.685232 
L 167.413109 226.691531 
L 167.666999 226.314722 
L 167.92089 226.771587 
L 168.17478 225.933689 
L 168.42867 226.206359 
L 168.68256 220.594648 
L 168.936451 224.795024 
L 169.190341 226.927044 
L 169.444231 226.474611 
L 169.698121 227.211366 
L 169.952012 226.919281 
L 170.205902 225.996463 
L 170.459792 228.098755 
L 170.967573 226.309119 
L 171.221463 226.994153 
L 171.475353 225.233366 
L 171.729243 226.514235 
L 171.983134 225.970066 
L 172.237024 227.179937 
L 172.490914 226.498081 
L 172.744804 226.897706 
L 172.998695 225.954512 
L 173.252585 226.45744 
L 173.506475 226.411531 
L 173.760365 225.54258 
L 174.014256 225.801731 
L 174.268146 225.069171 
L 174.775926 227.102599 
L 175.029817 225.645925 
L 175.283707 227.461067 
L 175.791488 226.024881 
L 176.045378 225.892058 
L 176.299268 227.092411 
L 176.553158 227.432788 
L 176.807049 224.926689 
L 177.060939 226.730417 
L 177.314829 226.7591 
L 177.568719 226.27599 
L 177.82261 224.991554 
L 178.33039 227.396718 
L 178.58428 226.287265 
L 178.838171 227.56175 
L 179.092061 223.835954 
L 179.345951 225.571263 
L 179.599841 226.280687 
L 179.853732 202.180358 
L 180.107622 225.325353 
L 180.361512 226.319251 
L 180.615402 226.60381 
L 180.869293 225.633437 
L 181.123183 226.589873 
L 181.377073 226.316255 
L 181.630963 226.598096 
L 181.884854 227.070627 
L 182.138744 225.564559 
L 182.392634 225.917898 
L 182.646524 226.800619 
L 182.900415 226.232171 
L 183.154305 226.279865 
L 183.408195 227.348858 
L 183.662085 225.360433 
L 183.915976 226.728911 
L 184.169866 226.622681 
L 184.423756 222.253357 
L 184.677646 226.645078 
L 185.185427 226.814264 
L 185.693207 226.17468 
L 186.200988 227.050864 
L 186.454878 226.336701 
L 186.708768 226.907086 
L 186.962659 225.622706 
L 187.216549 226.915602 
L 187.470439 224.608277 
L 187.724329 226.012393 
L 187.97822 226.504479 
L 188.23211 226.500632 
L 188.486 223.531229 
L 188.73989 225.830009 
L 188.993781 226.19691 
L 189.501561 225.655514 
L 189.755451 227.820539 
L 190.009342 225.685006 
L 190.263232 227.067351 
L 190.517122 226.702653 
L 190.771012 227.396426 
L 191.024903 227.07255 
L 191.278793 225.510036 
L 191.532683 225.503012 
L 191.786574 227.546127 
L 192.040464 225.830567 
L 192.294354 227.134683 
L 192.548244 225.106871 
L 192.802135 225.970038 
L 193.056025 225.04354 
L 193.309915 225.904435 
L 193.563805 225.875166 
L 193.817696 226.971755 
L 194.325476 226.88618 
L 194.579366 226.254861 
L 194.833257 224.611483 
L 195.087147 226.613538 
L 195.341037 225.908602 
L 195.594927 226.250638 
L 195.848818 225.897257 
L 196.102708 224.067007 
L 196.356598 223.53396 
L 196.610488 226.505942 
L 196.864379 225.134049 
L 197.118269 227.207463 
L 197.372159 225.712378 
L 197.626049 226.039669 
L 197.87994 225.323151 
L 198.13383 227.404579 
L 198.38772 227.106738 
L 198.64161 225.619389 
L 198.895501 227.970044 
L 199.149391 225.465827 
L 199.403281 224.773267 
L 199.911062 228.172581 
L 200.418842 226.287502 
L 200.926623 227.616189 
L 201.180513 227.813626 
L 201.434403 226.473482 
L 201.688293 227.292397 
L 201.942184 227.285415 
L 202.196074 225.425632 
L 202.449964 224.653936 
L 202.703854 226.629873 
L 202.957745 227.597193 
L 203.211635 226.614751 
L 203.465525 226.528618 
L 203.719415 226.643294 
L 203.973306 225.346384 
L 204.227196 222.376075 
L 204.481086 225.416057 
L 204.734976 227.005539 
L 204.988867 227.292188 
L 205.242757 225.764699 
L 205.496647 226.603894 
L 205.750537 226.39599 
L 206.004428 225.069673 
L 206.258318 227.418154 
L 206.512208 225.775612 
L 206.766098 226.510137 
L 207.019989 227.700009 
L 207.273879 226.707991 
L 207.527769 226.51429 
L 207.78166 226.803727 
L 208.03555 225.722441 
L 208.28944 225.529813 
L 208.54333 223.789362 
L 208.797221 226.156742 
L 209.051111 226.915379 
L 209.305001 227.017721 
L 209.558891 222.8134 
L 209.812782 226.964745 
L 210.066672 222.547002 
L 210.320562 225.553103 
L 210.574452 198.984836 
L 210.828343 224.933533 
L 211.082233 205.329567 
L 211.336123 226.259962 
L 211.590013 226.018094 
L 211.843904 227.362223 
L 212.097794 225.939794 
L 212.351684 226.532548 
L 212.605574 207.960433 
L 212.859465 226.400144 
L 213.113355 226.035014 
L 213.367245 218.648091 
L 213.621135 224.948278 
L 214.128916 227.738197 
L 214.382806 224.965449 
L 214.636696 227.189902 
L 214.890587 227.57205 
L 215.144477 226.005926 
L 215.652257 226.049495 
L 215.906148 225.452893 
L 216.160038 226.076867 
L 216.413928 226.180924 
L 216.667818 225.449757 
L 216.921709 226.239683 
L 217.175599 226.013857 
L 217.429489 225.57051 
L 217.683379 226.094038 
L 217.93727 227.638824 
L 218.19116 224.529504 
L 218.44505 224.048234 
L 218.69894 226.242471 
L 219.206721 227.321889 
L 219.460611 226.471099 
L 219.714501 224.943735 
L 219.968392 226.489036 
L 220.222282 226.250554 
L 220.476172 226.541872 
L 220.730062 224.843149 
L 220.983953 225.37575 
L 221.237843 225.296921 
L 221.745623 227.186794 
L 221.999514 224.022742 
L 222.253404 227.298753 
L 222.507294 225.778943 
L 222.761184 226.349398 
L 223.015075 225.796894 
L 223.268965 225.628434 
L 223.522855 227.386474 
L 223.776745 224.595789 
L 224.030636 224.837741 
L 224.284526 227.115421 
L 224.538416 227.424328 
L 224.792307 226.419531 
L 225.046197 226.954863 
L 225.300087 224.76903 
L 225.553977 226.776312 
L 225.807868 226.957135 
L 226.061758 225.380977 
L 226.315648 226.417496 
L 226.569538 225.012934 
L 226.823429 226.162805 
L 227.331209 226.002233 
L 227.585099 227.698963 
L 227.83899 226.393147 
L 228.09288 226.856466 
L 228.34677 226.306415 
L 228.60066 226.305077 
L 228.854551 224.457935 
L 229.108441 225.974191 
L 229.362331 225.745103 
L 229.616221 226.383321 
L 229.870112 225.022996 
L 230.124002 226.932229 
L 230.377892 226.861497 
L 230.631782 226.409733 
L 230.885673 226.46859 
L 231.139563 225.824727 
L 231.393453 225.935863 
L 231.647343 225.67833 
L 231.901234 226.794263 
L 232.409014 226.972034 
L 232.662904 226.553942 
L 232.916795 226.775573 
L 233.424575 226.314569 
L 233.678465 225.721786 
L 233.932356 226.717761 
L 234.440136 226.818431 
L 234.694026 227.643521 
L 234.947917 226.183112 
L 235.201807 226.336924 
L 235.455697 226.289732 
L 235.709587 226.696089 
L 235.963478 226.288338 
L 236.217368 225.662734 
L 236.471258 227.178167 
L 236.725148 226.448172 
L 236.979039 227.295617 
L 237.232929 226.71319 
L 237.740709 227.215073 
L 237.9946 226.466653 
L 238.24849 224.750536 
L 238.50238 225.497855 
L 238.75627 227.331617 
L 239.010161 224.573086 
L 239.264051 225.876295 
L 239.517941 226.220631 
L 239.771831 225.352517 
L 240.025722 225.816867 
L 240.279612 226.940522 
L 240.533502 226.250457 
L 240.787393 226.10962 
L 241.041283 227.043379 
L 242.056844 226.70112 
L 242.310734 227.038153 
L 242.564624 227.16777 
L 242.818515 225.013756 
L 243.072405 226.213035 
L 243.326295 226.448813 
L 243.580185 225.977885 
L 243.834076 225.177952 
L 244.087966 227.049749 
L 244.341856 226.657232 
L 244.595746 226.942905 
L 244.849637 226.535615 
L 245.103527 226.812842 
L 245.611307 226.664423 
L 245.865198 226.156965 
L 246.119088 226.577775 
L 246.880759 224.824654 
L 247.388539 226.85503 
L 247.642429 224.366841 
L 247.89632 225.583319 
L 248.15021 224.909839 
L 248.4041 226.106902 
L 248.911881 226.8711 
L 249.165771 225.335053 
L 249.419661 225.896686 
L 249.673551 225.94424 
L 249.927442 225.608685 
L 250.181332 222.962181 
L 250.435222 225.683891 
L 250.689112 225.420252 
L 250.943003 227.455241 
L 251.196893 227.402628 
L 251.450783 225.933592 
L 251.704673 225.6915 
L 252.466344 227.411297 
L 252.720234 225.195443 
L 253.228015 224.572361 
L 253.481905 226.145843 
L 253.735795 224.926146 
L 253.989686 226.824563 
L 254.243576 227.119198 
L 254.497466 226.962557 
L 255.005247 225.174481 
L 255.259137 227.501583 
L 255.513027 227.618169 
L 255.766917 227.508914 
L 256.020808 226.871588 
L 256.274698 226.663336 
L 256.528588 225.487472 
L 256.782479 179.221595 
L 257.036369 225.538803 
L 257.290259 226.536019 
L 257.79804 225.411276 
L 258.30582 226.361245 
L 258.55971 227.350976 
L 258.813601 223.049234 
L 259.067491 225.748699 
L 259.321381 225.805313 
L 259.575271 225.531068 
L 259.829162 226.723058 
L 260.083052 225.158648 
L 260.336942 226.261426 
L 260.590832 225.783124 
L 260.844723 227.668817 
L 261.098613 226.074191 
L 261.352503 225.274509 
L 261.606393 225.085394 
L 261.860284 227.034696 
L 262.114174 227.383436 
L 262.621954 226.507322 
L 262.875845 226.20753 
L 263.129735 227.288843 
L 263.383625 187.124616 
L 263.637515 227.785403 
L 263.891406 226.664674 
L 264.145296 226.643392 
L 264.399186 227.576468 
L 264.653076 227.111616 
L 264.906967 225.271833 
L 265.414747 226.952299 
L 265.668637 227.434029 
L 266.430308 225.706469 
L 266.684198 224.369587 
L 266.938089 225.588169 
L 267.191979 224.418284 
L 267.445869 225.943989 
L 267.699759 225.812658 
L 267.95365 226.466053 
L 268.20754 226.582514 
L 268.46143 226.501886 
L 268.71532 225.476336 
L 268.969211 226.625524 
L 269.223101 225.628587 
L 269.476991 226.029508 
L 269.730881 228.654911 
L 269.984772 227.592482 
L 270.238662 225.327095 
L 270.492552 227.035742 
L 270.746442 226.832717 
L 271.000333 225.221659 
L 271.254223 225.452029 
L 271.508113 225.511918 
L 271.762003 226.142972 
L 272.015894 226.169328 
L 272.269784 224.447538 
L 272.523674 227.107435 
L 272.777564 225.962735 
L 273.031455 226.735532 
L 273.285345 224.187941 
L 273.539235 227.709472 
L 273.793126 225.902609 
L 274.047016 225.809145 
L 274.300906 226.42622 
L 274.554796 225.44927 
L 274.808687 227.045317 
L 275.062577 225.715626 
L 275.316467 226.225342 
L 275.570357 225.565772 
L 275.824248 226.323293 
L 276.078138 226.548632 
L 276.585918 226.329105 
L 276.839809 224.907052 
L 277.093699 226.797121 
L 277.347589 226.773817 
L 277.601479 227.115101 
L 278.36315 225.838553 
L 278.61704 225.52566 
L 278.870931 226.227809 
L 279.124821 227.614155 
L 279.378711 226.265105 
L 279.886492 227.600189 
L 280.140382 227.753472 
L 280.394272 226.518221 
L 280.902053 226.860382 
L 281.155943 227.615228 
L 281.409833 225.736044 
L 281.663723 227.129414 
L 281.917614 226.874961 
L 282.171504 227.53644 
L 282.425394 226.275544 
L 282.679284 227.259742 
L 282.933175 226.511754 
L 283.187065 227.096411 
L 283.440955 225.910386 
L 283.948736 226.86395 
L 284.202626 226.874222 
L 284.456516 226.655963 
L 284.710406 226.707643 
L 284.964297 227.478879 
L 285.725967 224.519218 
L 285.979858 226.069118 
L 286.233748 223.992345 
L 286.741528 225.429799 
L 286.995419 224.049641 
L 287.249309 226.54105 
L 287.503199 225.969815 
L 287.757089 227.292161 
L 288.01098 227.322558 
L 288.26487 225.713953 
L 288.51876 226.790138 
L 288.77265 226.478067 
L 289.026541 227.010069 
L 289.280431 227.853068 
L 289.534321 225.869801 
L 289.788212 226.993261 
L 290.042102 226.895602 
L 290.549882 227.240481 
L 290.803773 225.403876 
L 291.057663 227.165052 
L 291.311553 226.67935 
L 291.565443 225.037909 
L 291.819334 226.34084 
L 292.073224 226.832856 
L 292.327114 227.668287 
L 292.581004 227.700204 
L 293.088785 226.09539 
L 293.342675 227.254558 
L 293.596565 226.175446 
L 293.850456 186.804964 
L 294.104346 226.455768 
L 294.358236 226.056909 
L 294.612126 227.072787 
L 294.866017 226.825915 
L 295.119907 227.514586 
L 295.373797 225.898679 
L 295.627687 227.595353 
L 296.135468 226.186889 
L 296.389358 226.771601 
L 296.897139 225.700044 
L 297.151029 224.106589 
L 297.404919 224.612082 
L 297.658809 224.075983 
L 297.9127 226.022679 
L 298.42048 227.82872 
L 298.67437 224.549016 
L 298.928261 226.27461 
L 299.182151 224.156136 
L 299.436041 225.415151 
L 299.689931 227.455854 
L 299.943822 226.591099 
L 300.197712 226.915881 
L 300.451602 222.684522 
L 300.705492 227.147477 
L 300.959383 227.159826 
L 301.467163 225.004962 
L 301.721053 225.359081 
L 301.974944 162.705207 
L 302.228834 226.525189 
L 302.482724 226.239641 
L 302.736614 199.979529 
L 302.990505 190.769855 
L 303.244395 225.607988 
L 303.498285 225.574357 
L 303.752175 226.675726 
L 304.006066 226.757023 
L 304.259956 227.461276 
L 304.513846 226.422764 
L 304.767736 226.743629 
L 305.021627 226.399433 
L 305.275517 226.86349 
L 305.529407 225.915208 
L 305.783298 226.039752 
L 306.037188 226.001968 
L 306.291078 227.174557 
L 306.544968 227.629932 
L 306.798859 226.921093 
L 307.052749 225.451095 
L 307.560529 226.849971 
L 308.06831 225.102704 
L 308.3222 227.974281 
L 308.57609 228.182505 
L 308.829981 223.544344 
L 309.337761 227.706364 
L 309.591651 226.163223 
L 309.845542 227.267338 
L 310.099432 224.123272 
L 310.099432 224.123272 
" clip-path="url(#p9c1ed74106)" style="fill: none; stroke: #ff0000; stroke-width: 0.6; stroke-linecap: square"/>
   </g>
   <g id="patch_3">
    <path d="M 43.78125 239.76 
L 43.78125 37.296 
" style="fill: none; stroke: #000000; stroke-width: 0.8; stroke-linejoin: miter; stroke-linecap: square"/>
   </g>
   <g id="patch_4">
    <path d="M 322.78125 239.76 
L 322.78125 37.296 
" style="fill: none; stroke: #000000; stroke-width: 0.8; stroke-linejoin: miter; stroke-linecap: square"/>
   </g>
   <g id="patch_5">
    <path d="M 43.78125 239.76 
L 322.78125 239.76 
" style="fill: none; stroke: #000000; stroke-width: 0.8; stroke-linejoin: miter; stroke-linecap: square"/>
   </g>
   <g id="patch_6">
    <path d="M 43.78125 37.296 
L 322.78125 37.296 
" style="fill: none; stroke: #000000; stroke-width: 0.8; stroke-linejoin: miter; stroke-linecap: square"/>
   </g>
   <g id="text_17">
    <!-- Baseline Model -->
    <g transform="translate(149.259844 31.296) scale(0.09 -0.09)">
     <defs>
      <path id="DejaVuSans-42" d="M 1259 2228 
L 1259 519 
L 2272 519 
Q 2781 519 3026 730 
Q 3272 941 3272 1375 
Q 3272 1813 3026 2020 
Q 2781 2228 2272 2228 
L 1259 2228 
z
M 1259 4147 
L 1259 2741 
L 2194 2741 
Q 2656 2741 2882 2914 
Q 3109 3088 3109 3444 
Q 3109 3797 2882 3972 
Q 2656 4147 2194 4147 
L 1259 4147 
z
M 628 4666 
L 2241 4666 
Q 2963 4666 3353 4366 
Q 3744 4066 3744 3513 
Q 3744 3084 3544 2831 
Q 3344 2578 2956 2516 
Q 3422 2416 3680 2098 
Q 3938 1781 3938 1306 
Q 3938 681 3513 340 
Q 3088 0 2303 0 
L 628 0 
L 628 4666 
z
" transform="scale(0.015625)"/>
      <path id="DejaVuSans-61" d="M 2194 1759 
Q 1497 1759 1228 1600 
Q 959 1441 959 1056 
Q 959 750 1161 570 
Q 1363 391 1709 391 
Q 2188 391 2477 730 
Q 2766 1069 2766 1631 
L 2766 1759 
L 2194 1759 
z
M 3341 1997 
L 3341 0 
L 2766 0 
L 2766 531 
Q 2569 213 2275 61 
Q 1981 -91 1556 -91 
Q 1019 -91 701 211 
Q 384 513 384 1019 
Q 384 1609 779 1909 
Q 1175 2209 1959 2209 
L 2766 2209 
L 2766 2266 
Q 2766 2663 2505 2880 
Q 2244 3097 1772 3097 
Q 1472 3097 1187 3025 
Q 903 2953 641 2809 
L 641 3341 
Q 956 3463 1253 3523 
Q 1550 3584 1831 3584 
Q 2591 3584 2966 3190 
Q 3341 2797 3341 1997 
z
" transform="scale(0.015625)"/>
      <path id="DejaVuSans-65" d="M 3597 1894 
L 3597 1613 
L 953 1613 
Q 991 1019 1311 708 
Q 1631 397 2203 397 
Q 2534 397 2845 478 
Q 3156 559 3463 722 
L 3463 178 
Q 3153 47 2828 -22 
Q 2503 -91 2169 -91 
Q 1331 -91 842 396 
Q 353 884 353 1716 
Q 353 2575 817 3079 
Q 1281 3584 2069 3584 
Q 2775 3584 3186 3129 
Q 3597 2675 3597 1894 
z
M 3022 2063 
Q 3016 2534 2758 2815 
Q 2500 3097 2075 3097 
Q 1594 3097 1305 2825 
Q 1016 2553 972 2059 
L 3022 2063 
z
" transform="scale(0.015625)"/>
      <path id="DejaVuSans-6c" d="M 603 4863 
L 1178 4863 
L 1178 0 
L 603 0 
L 603 4863 
z
" transform="scale(0.015625)"/>
      <path id="DejaVuSans-69" d="M 603 3500 
L 1178 3500 
L 1178 0 
L 603 0 
L 603 3500 
z
M 603 4863 
L 1178 4863 
L 1178 4134 
L 603 4134 
L 603 4863 
z
" transform="scale(0.015625)"/>
      <path id="DejaVuSans-6e" d="M 3513 2113 
L 3513 0 
L 2938 0 
L 2938 2094 
Q 2938 2591 2744 2837 
Q 2550 3084 2163 3084 
Q 1697 3084 1428 2787 
Q 1159 2491 1159 1978 
L 1159 0 
L 581 0 
L 581 3500 
L 1159 3500 
L 1159 2956 
Q 1366 3272 1645 3428 
Q 1925 3584 2291 3584 
Q 2894 3584 3203 3211 
Q 3513 2838 3513 2113 
z
" transform="scale(0.015625)"/>
      <path id="DejaVuSans-20" transform="scale(0.015625)"/>
      <path id="DejaVuSans-4d" d="M 628 4666 
L 1569 4666 
L 2759 1491 
L 3956 4666 
L 4897 4666 
L 4897 0 
L 4281 0 
L 4281 4097 
L 3078 897 
L 2444 897 
L 1241 4097 
L 1241 0 
L 628 0 
L 628 4666 
z
" transform="scale(0.015625)"/>
      <path id="DejaVuSans-64" d="M 2906 2969 
L 2906 4863 
L 3481 4863 
L 3481 0 
L 2906 0 
L 2906 525 
Q 2725 213 2448 61 
Q 2172 -91 1784 -91 
Q 1150 -91 751 415 
Q 353 922 353 1747 
Q 353 2572 751 3078 
Q 1150 3584 1784 3584 
Q 2172 3584 2448 3432 
Q 2725 3281 2906 2969 
z
M 947 1747 
Q 947 1113 1208 752 
Q 1469 391 1925 391 
Q 2381 391 2643 752 
Q 2906 1113 2906 1747 
Q 2906 2381 2643 2742 
Q 2381 3103 1925 3103 
Q 1469 3103 1208 2742 
Q 947 2381 947 1747 
z
" transform="scale(0.015625)"/>
     </defs>
     <use xlink:href="#DejaVuSans-42"/>
     <use xlink:href="#DejaVuSans-61" x="68.603516"/>
     <use xlink:href="#DejaVuSans-73" x="129.882812"/>
     <use xlink:href="#DejaVuSans-65" x="181.982422"/>
     <use xlink:href="#DejaVuSans-6c" x="243.505859"/>
     <use xlink:href="#DejaVuSans-69" x="271.289062"/>
     <use xlink:href="#DejaVuSans-6e" x="299.072266"/>
     <use xlink:href="#DejaVuSans-65" x="362.451172"/>
     <use xlink:href="#DejaVuSans-20" x="423.974609"/>
     <use xlink:href="#DejaVuSans-4d" x="455.761719"/>
     <use xlink:href="#DejaVuSans-6f" x="542.041016"/>
     <use xlink:href="#DejaVuSans-64" x="603.222656"/>
     <use xlink:href="#DejaVuSans-65" x="666.699219"/>
     <use xlink:href="#DejaVuSans-6c" x="728.222656"/>
    </g>
   </g>
   <g id="legend_1">
    <g id="patch_7">
     <path d="M 209.2875 74.65225 
L 315.78125 74.65225 
Q 317.78125 74.65225 317.78125 72.65225 
L 317.78125 44.296 
Q 317.78125 42.296 315.78125 42.296 
L 209.2875 42.296 
Q 207.2875 42.296 207.2875 44.296 
L 207.2875 72.65225 
Q 207.2875 74.65225 209.2875 74.65225 
z
" style="fill: #ffffff; opacity: 0.8; stroke: #cccccc; stroke-linejoin: miter"/>
    </g>
    <g id="line2d_31">
     <path d="M 211.2875 50.394438 
L 221.2875 50.394438 
L 231.2875 50.394438 
" style="fill: none; stroke: #0000ff; stroke-width: 0.6; stroke-linecap: square"/>
    </g>
    <g id="text_18">
     <!-- Training Loss -->
     <g transform="translate(239.2875 53.894438) scale(0.1 -0.1)">
      <defs>
       <path id="DejaVuSans-54" d="M -19 4666 
L 3928 4666 
L 3928 4134 
L 2272 4134 
L 2272 0 
L 1638 0 
L 1638 4134 
L -19 4134 
L -19 4666 
z
" transform="scale(0.015625)"/>
       <path id="DejaVuSans-72" d="M 2631 2963 
Q 2534 3019 2420 3045 
Q 2306 3072 2169 3072 
Q 1681 3072 1420 2755 
Q 1159 2438 1159 1844 
L 1159 0 
L 581 0 
L 581 3500 
L 1159 3500 
L 1159 2956 
Q 1341 3275 1631 3429 
Q 1922 3584 2338 3584 
Q 2397 3584 2469 3576 
Q 2541 3569 2628 3553 
L 2631 2963 
z
" transform="scale(0.015625)"/>
       <path id="DejaVuSans-67" d="M 2906 1791 
Q 2906 2416 2648 2759 
Q 2391 3103 1925 3103 
Q 1463 3103 1205 2759 
Q 947 2416 947 1791 
Q 947 1169 1205 825 
Q 1463 481 1925 481 
Q 2391 481 2648 825 
Q 2906 1169 2906 1791 
z
M 3481 434 
Q 3481 -459 3084 -895 
Q 2688 -1331 1869 -1331 
Q 1566 -1331 1297 -1286 
Q 1028 -1241 775 -1147 
L 775 -588 
Q 1028 -725 1275 -790 
Q 1522 -856 1778 -856 
Q 2344 -856 2625 -561 
Q 2906 -266 2906 331 
L 2906 616 
Q 2728 306 2450 153 
Q 2172 0 1784 0 
Q 1141 0 747 490 
Q 353 981 353 1791 
Q 353 2603 747 3093 
Q 1141 3584 1784 3584 
Q 2172 3584 2450 3431 
Q 2728 3278 2906 2969 
L 2906 3500 
L 3481 3500 
L 3481 434 
z
" transform="scale(0.015625)"/>
      </defs>
      <use xlink:href="#DejaVuSans-54"/>
      <use xlink:href="#DejaVuSans-72" x="46.333984"/>
      <use xlink:href="#DejaVuSans-61" x="87.447266"/>
      <use xlink:href="#DejaVuSans-69" x="148.726562"/>
      <use xlink:href="#DejaVuSans-6e" x="176.509766"/>
      <use xlink:href="#DejaVuSans-69" x="239.888672"/>
      <use xlink:href="#DejaVuSans-6e" x="267.671875"/>
      <use xlink:href="#DejaVuSans-67" x="331.050781"/>
      <use xlink:href="#DejaVuSans-20" x="394.527344"/>
      <use xlink:href="#DejaVuSans-4c" x="426.314453"/>
      <use xlink:href="#DejaVuSans-6f" x="480.277344"/>
      <use xlink:href="#DejaVuSans-73" x="541.458984"/>
      <use xlink:href="#DejaVuSans-73" x="593.558594"/>
     </g>
    </g>
    <g id="line2d_32">
     <path d="M 211.2875 65.072563 
L 221.2875 65.072563 
L 231.2875 65.072563 
" style="fill: none; stroke: #ff0000; stroke-width: 0.6; stroke-linecap: square"/>
    </g>
    <g id="text_19">
     <!-- Validation Loss -->
     <g transform="translate(239.2875 68.572563) scale(0.1 -0.1)">
      <defs>
       <path id="DejaVuSans-56" d="M 1831 0 
L 50 4666 
L 709 4666 
L 2188 738 
L 3669 4666 
L 4325 4666 
L 2547 0 
L 1831 0 
z
" transform="scale(0.015625)"/>
       <path id="DejaVuSans-74" d="M 1172 4494 
L 1172 3500 
L 2356 3500 
L 2356 3053 
L 1172 3053 
L 1172 1153 
Q 1172 725 1289 603 
Q 1406 481 1766 481 
L 2356 481 
L 2356 0 
L 1766 0 
Q 1100 0 847 248 
Q 594 497 594 1153 
L 594 3053 
L 172 3053 
L 172 3500 
L 594 3500 
L 594 4494 
L 1172 4494 
z
" transform="scale(0.015625)"/>
      </defs>
      <use xlink:href="#DejaVuSans-56"/>
      <use xlink:href="#DejaVuSans-61" x="60.658203"/>
      <use xlink:href="#DejaVuSans-6c" x="121.9375"/>
      <use xlink:href="#DejaVuSans-69" x="149.720703"/>
      <use xlink:href="#DejaVuSans-64" x="177.503906"/>
      <use xlink:href="#DejaVuSans-61" x="240.980469"/>
      <use xlink:href="#DejaVuSans-74" x="302.259766"/>
      <use xlink:href="#DejaVuSans-69" x="341.46875"/>
      <use xlink:href="#DejaVuSans-6f" x="369.251953"/>
      <use xlink:href="#DejaVuSans-6e" x="430.433594"/>
      <use xlink:href="#DejaVuSans-20" x="493.8125"/>
      <use xlink:href="#DejaVuSans-4c" x="525.599609"/>
      <use xlink:href="#DejaVuSans-6f" x="579.5625"/>
      <use xlink:href="#DejaVuSans-73" x="640.744141"/>
      <use xlink:href="#DejaVuSans-73" x="692.84375"/>
     </g>
    </g>
   </g>
  </g>
  <g id="text_20">
   <!-- Training VS. Validation Loss - Dataset Size = 100.0% -->
   <g transform="translate(34.481016 15.558281) scale(0.11 -0.11)">
    <defs>
     <path id="DejaVuSans-53" d="M 3425 4513 
L 3425 3897 
Q 3066 4069 2747 4153 
Q 2428 4238 2131 4238 
Q 1616 4238 1336 4038 
Q 1056 3838 1056 3469 
Q 1056 3159 1242 3001 
Q 1428 2844 1947 2747 
L 2328 2669 
Q 3034 2534 3370 2195 
Q 3706 1856 3706 1288 
Q 3706 609 3251 259 
Q 2797 -91 1919 -91 
Q 1588 -91 1214 -16 
Q 841 59 441 206 
L 441 856 
Q 825 641 1194 531 
Q 1563 422 1919 422 
Q 2459 422 2753 634 
Q 3047 847 3047 1241 
Q 3047 1584 2836 1778 
Q 2625 1972 2144 2069 
L 1759 2144 
Q 1053 2284 737 2584 
Q 422 2884 422 3419 
Q 422 4038 858 4394 
Q 1294 4750 2059 4750 
Q 2388 4750 2728 4690 
Q 3069 4631 3425 4513 
z
" transform="scale(0.015625)"/>
     <path id="DejaVuSans-2d" d="M 313 2009 
L 1997 2009 
L 1997 1497 
L 313 1497 
L 313 2009 
z
" transform="scale(0.015625)"/>
     <path id="DejaVuSans-44" d="M 1259 4147 
L 1259 519 
L 2022 519 
Q 2988 519 3436 956 
Q 3884 1394 3884 2338 
Q 3884 3275 3436 3711 
Q 2988 4147 2022 4147 
L 1259 4147 
z
M 628 4666 
L 1925 4666 
Q 3281 4666 3915 4102 
Q 4550 3538 4550 2338 
Q 4550 1131 3912 565 
Q 3275 0 1925 0 
L 628 0 
L 628 4666 
z
" transform="scale(0.015625)"/>
     <path id="DejaVuSans-7a" d="M 353 3500 
L 3084 3500 
L 3084 2975 
L 922 459 
L 3084 459 
L 3084 0 
L 275 0 
L 275 525 
L 2438 3041 
L 353 3041 
L 353 3500 
z
" transform="scale(0.015625)"/>
     <path id="DejaVuSans-3d" d="M 678 2906 
L 4684 2906 
L 4684 2381 
L 678 2381 
L 678 2906 
z
M 678 1631 
L 4684 1631 
L 4684 1100 
L 678 1100 
L 678 1631 
z
" transform="scale(0.015625)"/>
     <path id="DejaVuSans-25" d="M 4653 2053 
Q 4381 2053 4226 1822 
Q 4072 1591 4072 1178 
Q 4072 772 4226 539 
Q 4381 306 4653 306 
Q 4919 306 5073 539 
Q 5228 772 5228 1178 
Q 5228 1588 5073 1820 
Q 4919 2053 4653 2053 
z
M 4653 2450 
Q 5147 2450 5437 2106 
Q 5728 1763 5728 1178 
Q 5728 594 5436 251 
Q 5144 -91 4653 -91 
Q 4153 -91 3862 251 
Q 3572 594 3572 1178 
Q 3572 1766 3864 2108 
Q 4156 2450 4653 2450 
z
M 1428 4353 
Q 1159 4353 1004 4120 
Q 850 3888 850 3481 
Q 850 3069 1003 2837 
Q 1156 2606 1428 2606 
Q 1700 2606 1854 2837 
Q 2009 3069 2009 3481 
Q 2009 3884 1853 4118 
Q 1697 4353 1428 4353 
z
M 4250 4750 
L 4750 4750 
L 1831 -91 
L 1331 -91 
L 4250 4750 
z
M 1428 4750 
Q 1922 4750 2215 4408 
Q 2509 4066 2509 3481 
Q 2509 2891 2217 2550 
Q 1925 2209 1428 2209 
Q 931 2209 642 2551 
Q 353 2894 353 3481 
Q 353 4063 643 4406 
Q 934 4750 1428 4750 
z
" transform="scale(0.015625)"/>
    </defs>
    <use xlink:href="#DejaVuSans-54"/>
    <use xlink:href="#DejaVuSans-72" x="46.333984"/>
    <use xlink:href="#DejaVuSans-61" x="87.447266"/>
    <use xlink:href="#DejaVuSans-69" x="148.726562"/>
    <use xlink:href="#DejaVuSans-6e" x="176.509766"/>
    <use xlink:href="#DejaVuSans-69" x="239.888672"/>
    <use xlink:href="#DejaVuSans-6e" x="267.671875"/>
    <use xlink:href="#DejaVuSans-67" x="331.050781"/>
    <use xlink:href="#DejaVuSans-20" x="394.527344"/>
    <use xlink:href="#DejaVuSans-56" x="426.314453"/>
    <use xlink:href="#DejaVuSans-53" x="494.722656"/>
    <use xlink:href="#DejaVuSans-2e" x="558.199219"/>
    <use xlink:href="#DejaVuSans-20" x="589.986328"/>
    <use xlink:href="#DejaVuSans-56" x="621.773438"/>
    <use xlink:href="#DejaVuSans-61" x="682.431641"/>
    <use xlink:href="#DejaVuSans-6c" x="743.710938"/>
    <use xlink:href="#DejaVuSans-69" x="771.494141"/>
    <use xlink:href="#DejaVuSans-64" x="799.277344"/>
    <use xlink:href="#DejaVuSans-61" x="862.753906"/>
    <use xlink:href="#DejaVuSans-74" x="924.033203"/>
    <use xlink:href="#DejaVuSans-69" x="963.242188"/>
    <use xlink:href="#DejaVuSans-6f" x="991.025391"/>
    <use xlink:href="#DejaVuSans-6e" x="1052.207031"/>
    <use xlink:href="#DejaVuSans-20" x="1115.585938"/>
    <use xlink:href="#DejaVuSans-4c" x="1147.373047"/>
    <use xlink:href="#DejaVuSans-6f" x="1201.335938"/>
    <use xlink:href="#DejaVuSans-73" x="1262.517578"/>
    <use xlink:href="#DejaVuSans-73" x="1314.617188"/>
    <use xlink:href="#DejaVuSans-20" x="1366.716797"/>
    <use xlink:href="#DejaVuSans-2d" x="1398.503906"/>
    <use xlink:href="#DejaVuSans-20" x="1434.587891"/>
    <use xlink:href="#DejaVuSans-44" x="1466.375"/>
    <use xlink:href="#DejaVuSans-61" x="1543.376953"/>
    <use xlink:href="#DejaVuSans-74" x="1604.65625"/>
    <use xlink:href="#DejaVuSans-61" x="1643.865234"/>
    <use xlink:href="#DejaVuSans-73" x="1705.144531"/>
    <use xlink:href="#DejaVuSans-65" x="1757.244141"/>
    <use xlink:href="#DejaVuSans-74" x="1818.767578"/>
    <use xlink:href="#DejaVuSans-20" x="1857.976562"/>
    <use xlink:href="#DejaVuSans-53" x="1889.763672"/>
    <use xlink:href="#DejaVuSans-69" x="1953.240234"/>
    <use xlink:href="#DejaVuSans-7a" x="1981.023438"/>
    <use xlink:href="#DejaVuSans-65" x="2033.513672"/>
    <use xlink:href="#DejaVuSans-20" x="2095.037109"/>
    <use xlink:href="#DejaVuSans-3d" x="2126.824219"/>
    <use xlink:href="#DejaVuSans-20" x="2210.613281"/>
    <use xlink:href="#DejaVuSans-31" x="2242.400391"/>
    <use xlink:href="#DejaVuSans-30" x="2306.023438"/>
    <use xlink:href="#DejaVuSans-30" x="2369.646484"/>
    <use xlink:href="#DejaVuSans-2e" x="2433.269531"/>
    <use xlink:href="#DejaVuSans-30" x="2465.056641"/>
    <use xlink:href="#DejaVuSans-25" x="2528.679688"/>
   </g>
  </g>
 </g>
 <defs>
  <clipPath id="p9c1ed74106">
   <rect x="43.78125" y="37.296" width="279" height="202.464"/>
  </clipPath>
 </defs>
</svg>
