<?xml version="1.0" encoding="utf-8" standalone="no"?>
<!DOCTYPE svg PUBLIC "-//W3C//DTD SVG 1.1//EN"
  "http://www.w3.org/Graphics/SVG/1.1/DTD/svg11.dtd">
<svg xmlns:xlink="http://www.w3.org/1999/xlink" width="336.643984pt" height="277.31625pt" viewBox="0 0 336.643984 277.31625" xmlns="http://www.w3.org/2000/svg" version="1.1">
 <metadata>
  <rdf:RDF xmlns:dc="http://purl.org/dc/elements/1.1/" xmlns:cc="http://creativecommons.org/ns#" xmlns:rdf="http://www.w3.org/1999/02/22-rdf-syntax-ns#">
   <cc:Work>
    <dc:type rdf:resource="http://purl.org/dc/dcmitype/StillImage"/>
    <dc:date>2026-06-11T17:38:01.920911</dc:date>
    <dc:format>image/svg+xml</dc:format>
    <dc:creator>
     <cc:Agent>
      <dc:title>Matplotlib v3.8.4, https://matplotlib.org/</dc:title>
     </cc:Agent>
    </dc:creator>
   </cc:Work>
  </rdf:RDF>
 </metadata>
 <defs>
  <style type="text/css">*{stroke-linejoin: round; stroke-linecap: butt}</style>
 </defs>
 <g id="figure_1">
  <g id="patch_1">
   <path d="M 0 277.31625 
L 336.643984 277.31625 
L 336.643984 0 
L 0 0 
z
" style="fill: #ffffff"/>
  </g>
  <g id="axes_1">
   <g id="patch_2">
    <path d="M 50.14375 239.76 
L 329.14375 239.76 
L 329.14375 37.296 
L 50.14375 37.296 
z
" style="fill: #ffffff"/>
   </g>
   <g id="matplotlib.axis_1">
    <g id="xtick_1">
     <g id="line2d_1">
      <path d="M 62.571678 239.76 
L 62.571678 37.296 
" clip-path="url(#p8b5edd3d72)" style="fill: none; stroke-dasharray: 2.96,1.28; stroke-dashoffset: 0; stroke: #b0b0b0; stroke-opacity: 0.4; stroke-width: 0.8"/>
     </g>
     <g id="line2d_2">
      <defs>
       <path id="mc652e60e1c" d="M 0 0 
L 0 3.5 
" style="stroke: #000000; stroke-width: 0.8"/>
      </defs>
      <g>
       <use xlink:href="#mc652e60e1c" x="62.571678" y="239.76" style="stroke: #000000; stroke-width: 0.8"/>
      </g>
     </g>
     <g id="text_1">
      <!-- 0 -->
      <g transform="translate(59.390428 254.358437) scale(0.1 -0.1)">
       <defs>
        <path id="DejaVuSans-30" d="M 2034 4250 
Q 1547 4250 1301 3770 
Q 1056 3291 1056 2328 
Q 1056 1369 1301 889 
Q 1547 409 2034 409 
Q 2525 409 2770 889 
Q 3016 1369 3016 2328 
Q 3016 3291 2770 3770 
Q 2525 4250 2034 4250 
z
M 2034 4750 
Q 2819 4750 3233 4129 
Q 3647 3509 3647 2328 
Q 3647 1150 3233 529 
Q 2819 -91 2034 -91 
Q 1250 -91 836 529 
Q 422 1150 422 2328 
Q 422 3509 836 4129 
Q 1250 4750 2034 4750 
z
" transform="scale(0.015625)"/>
       </defs>
       <use xlink:href="#DejaVuSans-30"/>
      </g>
     </g>
    </g>
    <g id="xtick_2">
     <g id="line2d_3">
      <path d="M 113.349729 239.76 
L 113.349729 37.296 
" clip-path="url(#p8b5edd3d72)" style="fill: none; stroke-dasharray: 2.96,1.28; stroke-dashoffset: 0; stroke: #b0b0b0; stroke-opacity: 0.4; stroke-width: 0.8"/>
     </g>
     <g id="line2d_4">
      <g>
       <use xlink:href="#mc652e60e1c" x="113.349729" y="239.76" style="stroke: #000000; stroke-width: 0.8"/>
      </g>
     </g>
     <g id="text_2">
      <!-- 200 -->
      <g transform="translate(103.805979 254.358437) scale(0.1 -0.1)">
       <defs>
        <path id="DejaVuSans-32" d="M 1228 531 
L 3431 531 
L 3431 0 
L 469 0 
L 469 531 
Q 828 903 1448 1529 
Q 2069 2156 2228 2338 
Q 2531 2678 2651 2914 
Q 2772 3150 2772 3378 
Q 2772 3750 2511 3984 
Q 2250 4219 1831 4219 
Q 1534 4219 1204 4116 
Q 875 4013 500 3803 
L 500 4441 
Q 881 4594 1212 4672 
Q 1544 4750 1819 4750 
Q 2544 4750 2975 4387 
Q 3406 4025 3406 3419 
Q 3406 3131 3298 2873 
Q 3191 2616 2906 2266 
Q 2828 2175 2409 1742 
Q 1991 1309 1228 531 
z
" transform="scale(0.015625)"/>
       </defs>
       <use xlink:href="#DejaVuSans-32"/>
       <use xlink:href="#DejaVuSans-30" x="63.623047"/>
       <use xlink:href="#DejaVuSans-30" x="127.246094"/>
      </g>
     </g>
    </g>
    <g id="xtick_3">
     <g id="line2d_5">
      <path d="M 164.127779 239.76 
L 164.127779 37.296 
" clip-path="url(#p8b5edd3d72)" style="fill: none; stroke-dasharray: 2.96,1.28; stroke-dashoffset: 0; stroke: #b0b0b0; stroke-opacity: 0.4; stroke-width: 0.8"/>
     </g>
     <g id="line2d_6">
      <g>
       <use xlink:href="#mc652e60e1c" x="164.127779" y="239.76" style="stroke: #000000; stroke-width: 0.8"/>
      </g>
     </g>
     <g id="text_3">
      <!-- 400 -->
      <g transform="translate(154.584029 254.358437) scale(0.1 -0.1)">
       <defs>
        <path id="DejaVuSans-34" d="M 2419 4116 
L 825 1625 
L 2419 1625 
L 2419 4116 
z
M 2253 4666 
L 3047 4666 
L 3047 1625 
L 3713 1625 
L 3713 1100 
L 3047 1100 
L 3047 0 
L 2419 0 
L 2419 1100 
L 313 1100 
L 313 1709 
L 2253 4666 
z
" transform="scale(0.015625)"/>
       </defs>
       <use xlink:href="#DejaVuSans-34"/>
       <use xlink:href="#DejaVuSans-30" x="63.623047"/>
       <use xlink:href="#DejaVuSans-30" x="127.246094"/>
      </g>
     </g>
    </g>
    <g id="xtick_4">
     <g id="line2d_7">
      <path d="M 214.90583 239.76 
L 214.90583 37.296 
" clip-path="url(#p8b5edd3d72)" style="fill: none; stroke-dasharray: 2.96,1.28; stroke-dashoffset: 0; stroke: #b0b0b0; stroke-opacity: 0.4; stroke-width: 0.8"/>
     </g>
     <g id="line2d_8">
      <g>
       <use xlink:href="#mc652e60e1c" x="214.90583" y="239.76" style="stroke: #000000; stroke-width: 0.8"/>
      </g>
     </g>
     <g id="text_4">
      <!-- 600 -->
      <g transform="translate(205.36208 254.358437) scale(0.1 -0.1)">
       <defs>
        <path id="DejaVuSans-36" d="M 2113 2584 
Q 1688 2584 1439 2293 
Q 1191 2003 1191 1497 
Q 1191 994 1439 701 
Q 1688 409 2113 409 
Q 2538 409 2786 701 
Q 3034 994 3034 1497 
Q 3034 2003 2786 2293 
Q 2538 2584 2113 2584 
z
M 3366 4563 
L 3366 3988 
Q 3128 4100 2886 4159 
Q 2644 4219 2406 4219 
Q 1781 4219 1451 3797 
Q 1122 3375 1075 2522 
Q 1259 2794 1537 2939 
Q 1816 3084 2150 3084 
Q 2853 3084 3261 2657 
Q 3669 2231 3669 1497 
Q 3669 778 3244 343 
Q 2819 -91 2113 -91 
Q 1303 -91 875 529 
Q 447 1150 447 2328 
Q 447 3434 972 4092 
Q 1497 4750 2381 4750 
Q 2619 4750 2861 4703 
Q 3103 4656 3366 4563 
z
" transform="scale(0.015625)"/>
       </defs>
       <use xlink:href="#DejaVuSans-36"/>
       <use xlink:href="#DejaVuSans-30" x="63.623047"/>
       <use xlink:href="#DejaVuSans-30" x="127.246094"/>
      </g>
     </g>
    </g>
    <g id="xtick_5">
     <g id="line2d_9">
      <path d="M 265.683881 239.76 
L 265.683881 37.296 
" clip-path="url(#p8b5edd3d72)" style="fill: none; stroke-dasharray: 2.96,1.28; stroke-dashoffset: 0; stroke: #b0b0b0; stroke-opacity: 0.4; stroke-width: 0.8"/>
     </g>
     <g id="line2d_10">
      <g>
       <use xlink:href="#mc652e60e1c" x="265.683881" y="239.76" style="stroke: #000000; stroke-width: 0.8"/>
      </g>
     </g>
     <g id="text_5">
      <!-- 800 -->
      <g transform="translate(256.140131 254.358437) scale(0.1 -0.1)">
       <defs>
        <path id="DejaVuSans-38" d="M 2034 2216 
Q 1584 2216 1326 1975 
Q 1069 1734 1069 1313 
Q 1069 891 1326 650 
Q 1584 409 2034 409 
Q 2484 409 2743 651 
Q 3003 894 3003 1313 
Q 3003 1734 2745 1975 
Q 2488 2216 2034 2216 
z
M 1403 2484 
Q 997 2584 770 2862 
Q 544 3141 544 3541 
Q 544 4100 942 4425 
Q 1341 4750 2034 4750 
Q 2731 4750 3128 4425 
Q 3525 4100 3525 3541 
Q 3525 3141 3298 2862 
Q 3072 2584 2669 2484 
Q 3125 2378 3379 2068 
Q 3634 1759 3634 1313 
Q 3634 634 3220 271 
Q 2806 -91 2034 -91 
Q 1263 -91 848 271 
Q 434 634 434 1313 
Q 434 1759 690 2068 
Q 947 2378 1403 2484 
z
M 1172 3481 
Q 1172 3119 1398 2916 
Q 1625 2713 2034 2713 
Q 2441 2713 2670 2916 
Q 2900 3119 2900 3481 
Q 2900 3844 2670 4047 
Q 2441 4250 2034 4250 
Q 1625 4250 1398 4047 
Q 1172 3844 1172 3481 
z
" transform="scale(0.015625)"/>
       </defs>
       <use xlink:href="#DejaVuSans-38"/>
       <use xlink:href="#DejaVuSans-30" x="63.623047"/>
       <use xlink:href="#DejaVuSans-30" x="127.246094"/>
      </g>
     </g>
    </g>
    <g id="xtick_6">
     <g id="line2d_11">
      <path d="M 316.461932 239.76 
L 316.461932 37.296 
" clip-path="url(#p8b5edd3d72)" style="fill: none; stroke-dasharray: 2.96,1.28; stroke-dashoffset: 0; stroke: #b0b0b0; stroke-opacity: 0.4; stroke-width: 0.8"/>
     </g>
     <g id="line2d_12">
      <g>
       <use xlink:href="#mc652e60e1c" x="316.461932" y="239.76" style="stroke: #000000; stroke-width: 0.8"/>
      </g>
     </g>
     <g id="text_6">
      <!-- 1000 -->
      <g transform="translate(303.736932 254.358437) scale(0.1 -0.1)">
       <defs>
        <path id="DejaVuSans-31" d="M 794 531 
L 1825 531 
L 1825 4091 
L 703 3866 
L 703 4441 
L 1819 4666 
L 2450 4666 
L 2450 531 
L 3481 531 
L 3481 0 
L 794 0 
L 794 531 
z
" transform="scale(0.015625)"/>
       </defs>
       <use xlink:href="#DejaVuSans-31"/>
       <use xlink:href="#DejaVuSans-30" x="63.623047"/>
       <use xlink:href="#DejaVuSans-30" x="127.246094"/>
       <use xlink:href="#DejaVuSans-30" x="190.869141"/>
      </g>
     </g>
    </g>
    <g id="text_7">
     <!-- Epochs -->
     <g transform="translate(171.728125 268.036562) scale(0.1 -0.1)">
      <defs>
       <path id="DejaVuSans-45" d="M 628 4666 
L 3578 4666 
L 3578 4134 
L 1259 4134 
L 1259 2753 
L 3481 2753 
L 3481 2222 
L 1259 2222 
L 1259 531 
L 3634 531 
L 3634 0 
L 628 0 
L 628 4666 
z
" transform="scale(0.015625)"/>
       <path id="DejaVuSans-70" d="M 1159 525 
L 1159 -1331 
L 581 -1331 
L 581 3500 
L 1159 3500 
L 1159 2969 
Q 1341 3281 1617 3432 
Q 1894 3584 2278 3584 
Q 2916 3584 3314 3078 
Q 3713 2572 3713 1747 
Q 3713 922 3314 415 
Q 2916 -91 2278 -91 
Q 1894 -91 1617 61 
Q 1341 213 1159 525 
z
M 3116 1747 
Q 3116 2381 2855 2742 
Q 2594 3103 2138 3103 
Q 1681 3103 1420 2742 
Q 1159 2381 1159 1747 
Q 1159 1113 1420 752 
Q 1681 391 2138 391 
Q 2594 391 2855 752 
Q 3116 1113 3116 1747 
z
" transform="scale(0.015625)"/>
       <path id="DejaVuSans-6f" d="M 1959 3097 
Q 1497 3097 1228 2736 
Q 959 2375 959 1747 
Q 959 1119 1226 758 
Q 1494 397 1959 397 
Q 2419 397 2687 759 
Q 2956 1122 2956 1747 
Q 2956 2369 2687 2733 
Q 2419 3097 1959 3097 
z
M 1959 3584 
Q 2709 3584 3137 3096 
Q 3566 2609 3566 1747 
Q 3566 888 3137 398 
Q 2709 -91 1959 -91 
Q 1206 -91 779 398 
Q 353 888 353 1747 
Q 353 2609 779 3096 
Q 1206 3584 1959 3584 
z
" transform="scale(0.015625)"/>
       <path id="DejaVuSans-63" d="M 3122 3366 
L 3122 2828 
Q 2878 2963 2633 3030 
Q 2388 3097 2138 3097 
Q 1578 3097 1268 2742 
Q 959 2388 959 1747 
Q 959 1106 1268 751 
Q 1578 397 2138 397 
Q 2388 397 2633 464 
Q 2878 531 3122 666 
L 3122 134 
Q 2881 22 2623 -34 
Q 2366 -91 2075 -91 
Q 1284 -91 818 406 
Q 353 903 353 1747 
Q 353 2603 823 3093 
Q 1294 3584 2113 3584 
Q 2378 3584 2631 3529 
Q 2884 3475 3122 3366 
z
" transform="scale(0.015625)"/>
       <path id="DejaVuSans-68" d="M 3513 2113 
L 3513 0 
L 2938 0 
L 2938 2094 
Q 2938 2591 2744 2837 
Q 2550 3084 2163 3084 
Q 1697 3084 1428 2787 
Q 1159 2491 1159 1978 
L 1159 0 
L 581 0 
L 581 4863 
L 1159 4863 
L 1159 2956 
Q 1366 3272 1645 3428 
Q 1925 3584 2291 3584 
Q 2894 3584 3203 3211 
Q 3513 2838 3513 2113 
z
" transform="scale(0.015625)"/>
       <path id="DejaVuSans-73" d="M 2834 3397 
L 2834 2853 
Q 2591 2978 2328 3040 
Q 2066 3103 1784 3103 
Q 1356 3103 1142 2972 
Q 928 2841 928 2578 
Q 928 2378 1081 2264 
Q 1234 2150 1697 2047 
L 1894 2003 
Q 2506 1872 2764 1633 
Q 3022 1394 3022 966 
Q 3022 478 2636 193 
Q 2250 -91 1575 -91 
Q 1294 -91 989 -36 
Q 684 19 347 128 
L 347 722 
Q 666 556 975 473 
Q 1284 391 1588 391 
Q 1994 391 2212 530 
Q 2431 669 2431 922 
Q 2431 1156 2273 1281 
Q 2116 1406 1581 1522 
L 1381 1569 
Q 847 1681 609 1914 
Q 372 2147 372 2553 
Q 372 3047 722 3315 
Q 1072 3584 1716 3584 
Q 2034 3584 2315 3537 
Q 2597 3491 2834 3397 
z
" transform="scale(0.015625)"/>
      </defs>
      <use xlink:href="#DejaVuSans-45"/>
      <use xlink:href="#DejaVuSans-70" x="63.183594"/>
      <use xlink:href="#DejaVuSans-6f" x="126.660156"/>
      <use xlink:href="#DejaVuSans-63" x="187.841797"/>
      <use xlink:href="#DejaVuSans-68" x="242.822266"/>
      <use xlink:href="#DejaVuSans-73" x="306.201172"/>
     </g>
    </g>
   </g>
   <g id="matplotlib.axis_2">
    <g id="ytick_1">
     <g id="line2d_13">
      <path d="M 50.14375 213.121999 
L 329.14375 213.121999 
" clip-path="url(#p8b5edd3d72)" style="fill: none; stroke-dasharray: 2.96,1.28; stroke-dashoffset: 0; stroke: #b0b0b0; stroke-opacity: 0.4; stroke-width: 0.8"/>
     </g>
     <g id="line2d_14">
      <defs>
       <path id="m4a09b282a1" d="M 0 0 
L -3.5 0 
" style="stroke: #000000; stroke-width: 0.8"/>
      </defs>
      <g>
       <use xlink:href="#m4a09b282a1" x="50.14375" y="213.121999" style="stroke: #000000; stroke-width: 0.8"/>
      </g>
     </g>
     <g id="text_8">
      <!-- 0.66 -->
      <g transform="translate(20.878125 216.921218) scale(0.1 -0.1)">
       <defs>
        <path id="DejaVuSans-2e" d="M 684 794 
L 1344 794 
L 1344 0 
L 684 0 
L 684 794 
z
" transform="scale(0.015625)"/>
       </defs>
       <use xlink:href="#DejaVuSans-30"/>
       <use xlink:href="#DejaVuSans-2e" x="63.623047"/>
       <use xlink:href="#DejaVuSans-36" x="95.410156"/>
       <use xlink:href="#DejaVuSans-36" x="159.033203"/>
      </g>
     </g>
    </g>
    <g id="ytick_2">
     <g id="line2d_15">
      <path d="M 50.14375 183.64877 
L 329.14375 183.64877 
" clip-path="url(#p8b5edd3d72)" style="fill: none; stroke-dasharray: 2.96,1.28; stroke-dashoffset: 0; stroke: #b0b0b0; stroke-opacity: 0.4; stroke-width: 0.8"/>
     </g>
     <g id="line2d_16">
      <g>
       <use xlink:href="#m4a09b282a1" x="50.14375" y="183.64877" style="stroke: #000000; stroke-width: 0.8"/>
      </g>
     </g>
     <g id="text_9">
      <!-- 0.68 -->
      <g transform="translate(20.878125 187.447989) scale(0.1 -0.1)">
       <use xlink:href="#DejaVuSans-30"/>
       <use xlink:href="#DejaVuSans-2e" x="63.623047"/>
       <use xlink:href="#DejaVuSans-36" x="95.410156"/>
       <use xlink:href="#DejaVuSans-38" x="159.033203"/>
      </g>
     </g>
    </g>
    <g id="ytick_3">
     <g id="line2d_17">
      <path d="M 50.14375 154.175541 
L 329.14375 154.175541 
" clip-path="url(#p8b5edd3d72)" style="fill: none; stroke-dasharray: 2.96,1.28; stroke-dashoffset: 0; stroke: #b0b0b0; stroke-opacity: 0.4; stroke-width: 0.8"/>
     </g>
     <g id="line2d_18">
      <g>
       <use xlink:href="#m4a09b282a1" x="50.14375" y="154.175541" style="stroke: #000000; stroke-width: 0.8"/>
      </g>
     </g>
     <g id="text_10">
      <!-- 0.70 -->
      <g transform="translate(20.878125 157.97476) scale(0.1 -0.1)">
       <defs>
        <path id="DejaVuSans-37" d="M 525 4666 
L 3525 4666 
L 3525 4397 
L 1831 0 
L 1172 0 
L 2766 4134 
L 525 4134 
L 525 4666 
z
" transform="scale(0.015625)"/>
       </defs>
       <use xlink:href="#DejaVuSans-30"/>
       <use xlink:href="#DejaVuSans-2e" x="63.623047"/>
       <use xlink:href="#DejaVuSans-37" x="95.410156"/>
       <use xlink:href="#DejaVuSans-30" x="159.033203"/>
      </g>
     </g>
    </g>
    <g id="ytick_4">
     <g id="line2d_19">
      <path d="M 50.14375 124.702312 
L 329.14375 124.702312 
" clip-path="url(#p8b5edd3d72)" style="fill: none; stroke-dasharray: 2.96,1.28; stroke-dashoffset: 0; stroke: #b0b0b0; stroke-opacity: 0.4; stroke-width: 0.8"/>
     </g>
     <g id="line2d_20">
      <g>
       <use xlink:href="#m4a09b282a1" x="50.14375" y="124.702312" style="stroke: #000000; stroke-width: 0.8"/>
      </g>
     </g>
     <g id="text_11">
      <!-- 0.72 -->
      <g transform="translate(20.878125 128.501531) scale(0.1 -0.1)">
       <use xlink:href="#DejaVuSans-30"/>
       <use xlink:href="#DejaVuSans-2e" x="63.623047"/>
       <use xlink:href="#DejaVuSans-37" x="95.410156"/>
       <use xlink:href="#DejaVuSans-32" x="159.033203"/>
      </g>
     </g>
    </g>
    <g id="ytick_5">
     <g id="line2d_21">
      <path d="M 50.14375 95.229083 
L 329.14375 95.229083 
" clip-path="url(#p8b5edd3d72)" style="fill: none; stroke-dasharray: 2.96,1.28; stroke-dashoffset: 0; stroke: #b0b0b0; stroke-opacity: 0.4; stroke-width: 0.8"/>
     </g>
     <g id="line2d_22">
      <g>
       <use xlink:href="#m4a09b282a1" x="50.14375" y="95.229083" style="stroke: #000000; stroke-width: 0.8"/>
      </g>
     </g>
     <g id="text_12">
      <!-- 0.74 -->
      <g transform="translate(20.878125 99.028302) scale(0.1 -0.1)">
       <use xlink:href="#DejaVuSans-30"/>
       <use xlink:href="#DejaVuSans-2e" x="63.623047"/>
       <use xlink:href="#DejaVuSans-37" x="95.410156"/>
       <use xlink:href="#DejaVuSans-34" x="159.033203"/>
      </g>
     </g>
    </g>
    <g id="ytick_6">
     <g id="line2d_23">
      <path d="M 50.14375 65.755854 
L 329.14375 65.755854 
" clip-path="url(#p8b5edd3d72)" style="fill: none; stroke-dasharray: 2.96,1.28; stroke-dashoffset: 0; stroke: #b0b0b0; stroke-opacity: 0.4; stroke-width: 0.8"/>
     </g>
     <g id="line2d_24">
      <g>
       <use xlink:href="#m4a09b282a1" x="50.14375" y="65.755854" style="stroke: #000000; stroke-width: 0.8"/>
      </g>
     </g>
     <g id="text_13">
      <!-- 0.76 -->
      <g transform="translate(20.878125 69.555073) scale(0.1 -0.1)">
       <use xlink:href="#DejaVuSans-30"/>
       <use xlink:href="#DejaVuSans-2e" x="63.623047"/>
       <use xlink:href="#DejaVuSans-37" x="95.410156"/>
       <use xlink:href="#DejaVuSans-36" x="159.033203"/>
      </g>
     </g>
    </g>
    <g id="text_14">
     <!-- Loss -->
     <g transform="translate(14.798438 149.495187) rotate(-90) scale(0.1 -0.1)">
      <defs>
       <path id="DejaVuSans-4c" d="M 628 4666 
L 1259 4666 
L 1259 531 
L 3531 531 
L 3531 0 
L 628 0 
L 628 4666 
z
" transform="scale(0.015625)"/>
      </defs>
      <use xlink:href="#DejaVuSans-4c"/>
      <use xlink:href="#DejaVuSans-6f" x="53.962891"/>
      <use xlink:href="#DejaVuSans-73" x="115.144531"/>
      <use xlink:href="#DejaVuSans-73" x="167.244141"/>
     </g>
    </g>
   </g>
   <g id="line2d_25">
    <path d="M 62.825568 46.498909 
L 63.079458 159.611268 
L 63.333349 159.001766 
L 64.095019 169.151164 
L 64.34891 164.49536 
L 64.6028 165.925172 
L 64.85669 166.23673 
L 65.11058 164.861026 
L 65.364471 167.326524 
L 65.618361 165.944672 
L 65.872251 168.979442 
L 66.126141 167.284626 
L 66.380032 167.523982 
L 66.887812 170.022332 
L 67.141702 171.249591 
L 67.395593 175.048281 
L 67.649483 175.399541 
L 67.903373 174.096742 
L 68.157264 173.637442 
L 68.411154 175.630114 
L 68.665044 180.535638 
L 68.918934 180.561726 
L 69.172825 184.516677 
L 69.426715 177.514043 
L 69.680605 178.042471 
L 69.934495 182.897225 
L 70.188386 182.786199 
L 70.442276 184.140647 
L 70.696166 179.070428 
L 70.950056 177.373504 
L 71.203947 186.484491 
L 71.457837 188.511507 
L 71.711727 185.30765 
L 71.965617 187.692075 
L 72.219508 184.33301 
L 72.473398 190.242512 
L 72.727288 190.898128 
L 72.981178 195.424021 
L 73.235069 188.884727 
L 73.488959 189.015868 
L 73.742849 189.780577 
L 73.996739 189.829854 
L 74.25063 192.675423 
L 74.50452 190.114973 
L 75.0123 197.127269 
L 75.266191 198.012491 
L 75.520081 197.273343 
L 75.773971 191.624277 
L 76.027861 198.870572 
L 76.281752 193.083602 
L 76.535642 192.672261 
L 76.789532 190.376727 
L 77.043422 192.28367 
L 77.297313 200.850244 
L 77.551203 193.490024 
L 77.805093 196.635031 
L 78.058983 195.964307 
L 78.312874 201.351881 
L 78.566764 196.305905 
L 78.820654 199.962035 
L 79.074544 197.784115 
L 79.328435 203.184953 
L 79.836215 198.797491 
L 80.343996 201.048404 
L 80.851776 197.110229 
L 81.105666 203.895203 
L 81.359557 198.76789 
L 81.613447 204.096789 
L 81.867337 201.67398 
L 82.121227 202.312467 
L 82.375118 198.752958 
L 82.629008 200.949412 
L 82.882898 201.395536 
L 83.136788 202.685775 
L 83.390679 197.896195 
L 83.898459 206.359297 
L 84.15235 199.83959 
L 84.66013 207.114959 
L 84.91402 204.49434 
L 85.421801 195.84599 
L 85.675691 202.940239 
L 85.929581 199.52935 
L 86.183472 203.358255 
L 86.437362 201.190612 
L 86.691252 201.390002 
L 86.945142 203.080427 
L 87.199033 206.582227 
L 87.452923 208.505507 
L 87.706813 202.727058 
L 87.960703 205.387906 
L 88.214594 204.598515 
L 88.468484 201.875214 
L 88.976264 207.993769 
L 89.230155 202.373338 
L 89.737935 206.578626 
L 89.991825 206.890447 
L 90.245716 204.477914 
L 90.499606 207.515496 
L 90.753496 202.299204 
L 91.007386 202.722403 
L 91.261277 201.852201 
L 91.515167 207.82477 
L 91.769057 202.157698 
L 92.022947 203.518997 
L 92.276838 206.926724 
L 92.530728 206.232108 
L 92.784618 210.54078 
L 93.292399 202.383 
L 93.546289 203.865427 
L 93.800179 208.352144 
L 94.054069 209.811205 
L 94.30796 209.773172 
L 94.56185 206.215332 
L 94.81574 207.535435 
L 95.06963 202.148827 
L 95.323521 206.897913 
L 95.831301 207.331477 
L 96.339082 202.198543 
L 96.846862 210.396376 
L 97.100752 208.913862 
L 97.354643 210.023156 
L 97.608533 214.306092 
L 97.862423 212.214867 
L 98.116313 207.030987 
L 98.370204 206.6012 
L 98.624094 204.561799 
L 98.877984 209.920211 
L 99.131874 209.113955 
L 99.385765 209.336973 
L 99.639655 211.677743 
L 100.147436 204.786047 
L 100.401326 205.422602 
L 100.655216 210.03317 
L 100.909106 206.528207 
L 101.162997 210.04898 
L 101.416887 215.179895 
L 101.670777 212.535384 
L 101.924667 204.016858 
L 102.178558 204.582177 
L 102.432448 204.814594 
L 102.686338 209.038415 
L 102.940228 205.673026 
L 103.194119 206.649335 
L 103.448009 211.128059 
L 103.955789 213.793562 
L 104.20968 213.058454 
L 104.46357 211.27097 
L 104.71746 208.196497 
L 105.225241 214.723933 
L 105.479131 207.669913 
L 105.986911 212.798368 
L 106.240802 209.77528 
L 106.494692 210.887385 
L 106.748582 214.932106 
L 107.002472 210.561158 
L 107.256363 215.155564 
L 107.510253 211.914464 
L 107.764143 211.385246 
L 108.018033 211.456306 
L 108.271924 214.657879 
L 108.525814 220.990756 
L 109.033594 209.810854 
L 109.287485 208.974645 
L 109.541375 215.5005 
L 109.795265 213.809022 
L 110.049155 217.15456 
L 110.303046 214.931931 
L 110.556936 210.635468 
L 110.810826 214.578914 
L 111.064716 211.837519 
L 111.318607 211.697243 
L 111.572497 214.672899 
L 111.826387 207.354666 
L 112.080277 214.519799 
L 112.334168 213.714158 
L 112.588058 219.554444 
L 112.841948 213.09719 
L 113.095838 215.333697 
L 113.349729 205.764727 
L 113.603619 211.19947 
L 113.857509 214.154748 
L 114.111399 212.56806 
L 114.36529 217.172391 
L 114.61918 214.369247 
L 115.12696 221.997896 
L 115.380851 211.99624 
L 115.634741 210.006292 
L 115.888631 211.786398 
L 116.142521 215.862213 
L 116.396412 213.809373 
L 116.650302 210.102561 
L 116.904192 209.654768 
L 117.411973 217.782595 
L 117.665863 215.232246 
L 117.919753 210.295978 
L 118.173644 208.260354 
L 118.681424 217.74544 
L 118.935314 216.036745 
L 119.189205 213.207162 
L 119.443095 213.742353 
L 119.696985 211.499961 
L 120.204766 217.313545 
L 120.458656 217.402348 
L 120.712546 213.770198 
L 121.474217 219.149164 
L 121.728107 214.762405 
L 121.981997 214.637237 
L 122.235888 212.723795 
L 122.489778 206.912934 
L 122.743668 213.965811 
L 122.997558 211.406327 
L 123.251449 213.251696 
L 123.505339 216.340837 
L 123.759229 207.553441 
L 124.013119 209.261697 
L 124.26701 214.907688 
L 124.77479 219.787037 
L 125.02868 219.833503 
L 125.282571 215.063511 
L 125.536461 213.534707 
L 126.044241 220.412261 
L 126.298132 215.337035 
L 126.552022 217.317322 
L 126.805912 211.753546 
L 127.059802 212.678559 
L 127.313693 218.775769 
L 127.567583 220.22429 
L 127.821473 214.012189 
L 128.075363 214.100114 
L 128.329254 211.837431 
L 128.583144 215.033207 
L 128.837034 214.001209 
L 129.090924 219.320007 
L 129.344815 215.376298 
L 129.598705 214.443908 
L 129.852595 215.012741 
L 130.106485 218.75864 
L 130.360376 215.210813 
L 130.614266 214.761966 
L 130.868156 216.72328 
L 131.122046 215.123064 
L 131.375937 210.941229 
L 131.629827 215.261232 
L 131.883717 217.429314 
L 132.137607 214.231254 
L 132.391498 218.318665 
L 132.645388 211.32982 
L 132.899278 208.185429 
L 133.153169 213.470498 
L 133.407059 221.292828 
L 133.660949 212.741186 
L 133.914839 219.352858 
L 134.16873 218.505757 
L 134.42262 210.620448 
L 134.67651 213.259513 
L 134.9304 213.120643 
L 135.945961 219.521505 
L 136.453742 212.958847 
L 136.707632 217.495016 
L 136.961522 208.738363 
L 137.215413 215.740734 
L 137.723193 221.976551 
L 137.977083 213.098332 
L 138.230974 218.381117 
L 138.484864 214.683967 
L 138.738754 212.860381 
L 139.246535 215.274232 
L 139.500425 209.125286 
L 139.754315 217.3182 
L 140.262096 215.328954 
L 140.515986 217.564144 
L 140.769876 214.567231 
L 141.023766 220.558158 
L 141.277657 219.898326 
L 141.785437 216.897549 
L 142.039327 214.320497 
L 142.293218 217.360099 
L 142.547108 212.724849 
L 142.800998 217.543502 
L 143.054888 216.227 
L 143.308779 216.431573 
L 143.562669 215.129388 
L 143.816559 215.229611 
L 144.070449 215.999766 
L 144.32434 217.367213 
L 144.57823 214.845938 
L 144.83212 218.58323 
L 145.08601 216.423404 
L 145.339901 221.118295 
L 145.593791 222.219333 
L 145.847681 215.448325 
L 146.101571 212.178239 
L 146.355462 219.220839 
L 146.609352 216.949021 
L 146.863242 222.844996 
L 147.117132 217.259877 
L 147.371023 220.95852 
L 147.624913 219.582816 
L 147.878803 216.283655 
L 148.132693 221.079823 
L 148.386584 216.431397 
L 148.640474 221.456556 
L 148.894364 216.768867 
L 149.148255 218.602905 
L 149.656035 210.99683 
L 149.909925 215.840078 
L 150.163816 225.0057 
L 150.417706 227.782142 
L 150.671596 224.033256 
L 151.179377 220.743495 
L 151.433267 213.397417 
L 151.941047 220.435626 
L 152.194938 219.950238 
L 152.448828 222.968408 
L 152.702718 223.846251 
L 152.956608 222.717106 
L 153.210499 222.661241 
L 153.464389 220.26856 
L 153.718279 225.164422 
L 153.972169 216.773435 
L 154.22606 217.783649 
L 154.47995 216.064238 
L 154.73384 221.704169 
L 154.98773 220.506774 
L 155.241621 221.089485 
L 155.495511 214.484577 
L 155.749401 216.490072 
L 156.003291 216.118258 
L 156.257182 220.895365 
L 156.764962 218.816437 
L 157.018852 211.965673 
L 157.272743 220.396714 
L 157.526633 223.897109 
L 157.780523 218.801681 
L 158.034413 219.110779 
L 158.288304 221.76706 
L 158.542194 218.185152 
L 159.049974 220.643536 
L 159.303865 220.618766 
L 159.557755 217.543151 
L 159.811645 224.221491 
L 160.065535 220.293505 
L 160.319426 224.547103 
L 160.573316 219.879266 
L 160.827206 222.666775 
L 161.081096 219.925117 
L 161.334987 220.211729 
L 161.588877 217.166154 
L 161.842767 216.395208 
L 162.096657 212.013983 
L 162.604438 219.305075 
L 162.858328 214.368017 
L 163.112218 217.916371 
L 163.366109 218.930274 
L 163.873889 216.496045 
L 164.127779 218.688898 
L 164.38167 222.788429 
L 164.63556 215.290394 
L 164.88945 219.736355 
L 165.14334 219.104982 
L 165.397231 213.659962 
L 165.905011 220.801116 
L 166.158902 216.128272 
L 166.412792 222.404494 
L 166.666682 221.698723 
L 166.920572 221.790864 
L 167.174463 221.054877 
L 167.428353 222.130881 
L 167.682243 218.06464 
L 167.936133 222.158462 
L 168.190024 217.842324 
L 168.443914 217.133479 
L 168.697804 219.517728 
L 168.951694 214.835661 
L 169.205585 221.271483 
L 169.459475 217.95537 
L 169.713365 220.575287 
L 169.967255 219.789233 
L 170.221146 217.88554 
L 170.475036 221.182153 
L 170.728926 221.355192 
L 170.982816 223.468113 
L 171.236707 224.066898 
L 171.744487 216.153217 
L 171.998377 219.482945 
L 172.252268 218.129024 
L 172.506158 218.999577 
L 172.760048 218.321651 
L 173.013938 220.199432 
L 173.267829 224.512232 
L 173.521719 224.283241 
L 173.775609 224.970478 
L 174.029499 217.861209 
L 174.28339 224.281045 
L 174.79117 217.401646 
L 175.04506 223.483923 
L 175.298951 224.58742 
L 175.552841 212.104719 
L 176.060621 220.91627 
L 176.314512 218.685472 
L 176.568402 224.560454 
L 176.822292 222.67187 
L 177.076182 212.870834 
L 177.330073 213.937967 
L 177.583963 211.884863 
L 177.837853 216.275399 
L 178.091743 223.785468 
L 178.345634 216.814191 
L 178.599524 217.627826 
L 178.853414 219.260102 
L 179.107304 220.160344 
L 179.361195 213.933575 
L 179.615085 211.120593 
L 179.868975 220.078129 
L 180.122865 219.38975 
L 180.376756 217.640826 
L 180.630646 217.092635 
L 180.884536 213.651881 
L 181.392317 217.049419 
L 181.646207 221.678784 
L 181.900097 221.838735 
L 182.153988 219.939961 
L 182.407878 216.613132 
L 182.661768 222.961732 
L 182.915658 217.939823 
L 183.423439 224.4518 
L 183.677329 212.39344 
L 183.931219 221.480272 
L 184.18511 208.595101 
L 184.439 212.827706 
L 184.69289 221.839262 
L 184.94678 218.480197 
L 185.200671 212.163921 
L 185.962341 223.833603 
L 186.216232 215.08749 
L 186.470122 221.714094 
L 186.724012 218.031262 
L 186.977902 228.992625 
L 187.231793 219.202832 
L 187.485683 221.912957 
L 187.739573 219.310257 
L 187.993463 217.959323 
L 188.247354 217.617286 
L 188.501244 218.461751 
L 188.755134 223.675145 
L 189.009024 217.266464 
L 189.262915 220.217526 
L 189.516805 221.571183 
L 189.770695 220.48297 
L 190.024585 214.990694 
L 190.532366 218.98447 
L 190.786256 213.727509 
L 191.040146 218.54221 
L 191.294037 218.576818 
L 191.547927 217.113803 
L 191.801817 221.066384 
L 192.055707 213.806738 
L 192.309598 222.069219 
L 192.817378 211.922281 
L 193.071268 224.40551 
L 193.325159 215.52527 
L 193.579049 219.319129 
L 193.832939 219.471526 
L 194.086829 220.16702 
L 194.34072 213.804981 
L 194.59461 224.55334 
L 194.8485 218.071052 
L 195.10239 223.351026 
L 195.356281 218.211767 
L 195.864061 224.634062 
L 196.117951 220.121345 
L 196.371842 217.876932 
L 196.625732 222.308839 
L 196.879622 219.68093 
L 197.133512 219.732314 
L 197.387403 216.10561 
L 197.641293 220.516963 
L 197.895183 220.813501 
L 198.149074 219.722564 
L 198.402964 223.051853 
L 198.656854 219.310433 
L 198.910744 220.330221 
L 199.164635 220.629658 
L 199.418525 222.679336 
L 199.672415 219.894374 
L 199.926305 219.921252 
L 200.180196 216.723104 
L 200.434086 223.217689 
L 200.941866 215.556716 
L 201.195757 218.097491 
L 201.449647 222.412311 
L 201.703537 221.199808 
L 201.957427 220.846088 
L 202.211318 222.909117 
L 202.465208 222.501554 
L 202.719098 216.54014 
L 202.972988 225.803964 
L 203.226879 219.961218 
L 203.480769 230.557091 
L 203.734659 222.560141 
L 204.24244 217.107479 
L 204.49633 225.177949 
L 204.75022 221.86289 
L 205.00411 221.350624 
L 205.258001 227.651529 
L 205.511891 220.75342 
L 205.765781 217.42949 
L 206.273562 224.192329 
L 206.527452 217.24512 
L 206.781342 218.269739 
L 207.035232 218.732377 
L 207.289123 226.773246 
L 207.543013 224.247227 
L 207.796903 216.418397 
L 208.050793 220.006893 
L 208.304684 220.625793 
L 208.558574 220.008825 
L 208.812464 217.34297 
L 209.066354 223.326783 
L 209.320245 216.912393 
L 209.574135 215.359873 
L 210.081915 226.307709 
L 210.335806 226.625504 
L 210.843586 221.29476 
L 211.097476 221.457083 
L 211.351367 221.793587 
L 211.605257 219.271609 
L 211.859147 223.175 
L 212.366928 224.664805 
L 212.620818 223.649935 
L 212.874708 215.196408 
L 213.128598 216.213298 
L 213.382489 221.439691 
L 213.890269 218.563379 
L 214.14416 212.997583 
L 214.39805 218.065606 
L 214.65194 217.888087 
L 214.90583 219.166907 
L 215.159721 226.850455 
L 215.413611 220.024724 
L 215.667501 219.812773 
L 215.921391 216.352783 
L 216.175282 224.380301 
L 216.429172 225.451122 
L 216.683062 219.120705 
L 216.936952 217.456456 
L 217.190843 218.198679 
L 217.444733 215.393602 
L 217.698623 217.292464 
L 217.952513 217.832311 
L 218.206404 223.821832 
L 218.460294 224.973903 
L 218.714184 219.594498 
L 218.968074 221.883795 
L 219.221965 222.416176 
L 219.475855 223.64976 
L 219.729745 216.629909 
L 219.983635 218.040397 
L 220.237526 218.153092 
L 220.491416 227.399348 
L 220.999196 218.854031 
L 221.253087 222.463871 
L 221.506977 219.752429 
L 221.760867 221.337976 
L 222.014757 220.953952 
L 222.268648 220.955358 
L 222.522538 223.774664 
L 222.776428 223.542686 
L 223.030318 224.263302 
L 223.284209 221.337888 
L 223.538099 225.028714 
L 223.791989 219.96561 
L 224.045879 220.033859 
L 224.29977 225.766809 
L 224.55366 225.760572 
L 224.80755 216.586254 
L 225.06144 218.006931 
L 225.315331 218.319719 
L 225.569221 217.995424 
L 225.823111 214.885641 
L 226.077001 221.850681 
L 226.330892 220.090426 
L 226.584782 215.485831 
L 226.838672 214.154397 
L 227.092562 220.833088 
L 227.346453 219.53187 
L 227.600343 225.135963 
L 227.854233 216.855475 
L 228.108123 224.882641 
L 228.362014 217.10906 
L 228.615904 222.165752 
L 228.869794 217.902405 
L 229.123684 221.036783 
L 229.377575 214.355456 
L 229.631465 216.855826 
L 229.885355 224.068742 
L 230.393136 218.88047 
L 230.647026 222.162415 
L 230.900916 218.083437 
L 231.154807 224.635731 
L 231.662587 218.41511 
L 231.916477 223.903521 
L 232.170368 225.499169 
L 232.424258 218.350374 
L 232.678148 222.892955 
L 232.932038 219.952083 
L 233.185929 222.916759 
L 233.439819 216.103677 
L 233.693709 227.78671 
L 233.947599 220.518456 
L 234.20149 220.576429 
L 234.45538 218.855876 
L 234.70927 224.917073 
L 234.96316 219.119826 
L 235.217051 215.925544 
L 235.470941 217.620184 
L 235.978721 223.754374 
L 236.232612 215.013707 
L 236.486502 219.424094 
L 236.740392 220.426842 
L 236.994282 223.416113 
L 237.248173 221.193747 
L 237.502063 223.624111 
L 237.755953 218.18524 
L 238.263734 226.39335 
L 238.517624 218.785694 
L 238.771514 219.078719 
L 239.025404 224.095533 
L 239.279295 223.522835 
L 239.533185 219.960603 
L 239.787075 222.323508 
L 240.040965 214.369071 
L 240.294856 225.947577 
L 240.548746 220.369924 
L 240.802636 222.473446 
L 241.056526 219.132914 
L 241.310417 220.965108 
L 241.564307 218.481251 
L 241.818197 222.430493 
L 242.072087 218.726931 
L 242.325978 218.267719 
L 242.579868 220.070136 
L 243.087648 214.52788 
L 243.341539 220.919871 
L 243.595429 219.31096 
L 243.849319 221.556778 
L 244.103209 222.688032 
L 244.3571 222.652282 
L 244.61099 219.361378 
L 244.86488 217.742805 
L 245.11877 219.979224 
L 245.372661 217.395409 
L 245.626551 222.505945 
L 245.880441 224.190748 
L 246.134331 214.881688 
L 246.388222 224.531819 
L 246.642112 227.194424 
L 246.896002 215.321312 
L 247.149893 221.13393 
L 247.657673 217.753521 
L 247.911563 214.322517 
L 248.165454 220.423065 
L 248.419344 213.454072 
L 248.927124 218.247341 
L 249.181015 226.549788 
L 249.434905 221.631967 
L 249.688795 225.234252 
L 249.942685 221.370212 
L 250.196576 221.240389 
L 250.450466 224.079019 
L 250.704356 223.879629 
L 250.958246 220.455389 
L 251.212137 224.974694 
L 251.466027 224.657426 
L 251.719917 219.145475 
L 251.973807 221.676676 
L 252.227698 219.523438 
L 252.481588 220.77942 
L 252.735478 220.415072 
L 252.989368 221.545447 
L 253.243259 221.548521 
L 253.497149 219.370426 
L 253.751039 213.449153 
L 254.004929 220.261972 
L 254.25882 221.166254 
L 254.51271 221.287118 
L 254.7666 218.141497 
L 255.02049 217.193472 
L 255.274381 222.176556 
L 255.528271 221.903647 
L 255.782161 223.259939 
L 256.036051 218.480987 
L 256.289942 225.227489 
L 256.543832 219.51562 
L 256.797722 217.92981 
L 257.051612 219.52537 
L 257.305503 219.96315 
L 257.559393 217.498793 
L 257.813283 220.405146 
L 258.067173 219.459405 
L 258.321064 222.112787 
L 258.574954 216.741462 
L 258.828844 219.02707 
L 259.082734 212.435689 
L 259.336625 219.079421 
L 259.590515 215.592993 
L 259.844405 218.644101 
L 260.098295 216.957102 
L 260.352186 217.99033 
L 260.606076 221.898464 
L 260.859966 218.689513 
L 261.113856 217.722075 
L 261.367747 218.737647 
L 261.621637 221.633372 
L 261.875527 218.342029 
L 262.129417 221.792708 
L 262.383308 219.727835 
L 262.637198 216.658105 
L 262.891088 219.561998 
L 263.144979 215.246387 
L 263.398869 214.940802 
L 263.652759 212.886996 
L 264.16054 216.676551 
L 264.41443 222.128949 
L 264.66832 223.190899 
L 264.92221 222.252008 
L 265.176101 220.027095 
L 265.429991 219.14688 
L 265.683881 224.359483 
L 265.937771 216.908001 
L 266.191662 218.158186 
L 266.445552 224.996565 
L 266.699442 228.107754 
L 266.953332 223.616645 
L 267.207223 223.859954 
L 267.461113 225.508919 
L 267.715003 223.604963 
L 267.968893 223.389938 
L 268.222784 218.446994 
L 268.476674 224.42826 
L 268.730564 217.312667 
L 268.984454 230.063095 
L 269.238345 224.167911 
L 269.492235 220.97231 
L 269.746125 226.113238 
L 270.000015 224.519698 
L 270.253906 220.473132 
L 270.507796 229.802131 
L 270.761686 219.798016 
L 271.015576 225.602641 
L 271.269467 217.145776 
L 271.523357 226.915805 
L 272.031137 216.421384 
L 272.285028 220.408484 
L 272.538918 220.595665 
L 272.792808 221.862978 
L 273.046698 219.560066 
L 273.300589 220.384417 
L 273.554479 217.141296 
L 273.808369 221.076046 
L 274.062259 219.516147 
L 274.31615 219.220663 
L 274.57004 227.094027 
L 274.82393 220.078217 
L 275.07782 221.000506 
L 275.331711 220.412876 
L 275.585601 212.372183 
L 275.839491 220.398471 
L 276.093381 218.920261 
L 276.347272 219.77026 
L 276.601162 215.837267 
L 276.855052 217.338666 
L 277.108942 215.648769 
L 277.362833 217.153594 
L 277.870613 223.980993 
L 278.124503 223.388884 
L 278.378394 221.774965 
L 278.632284 227.747974 
L 278.886174 218.918943 
L 279.140064 216.68955 
L 279.393955 217.866304 
L 279.647845 216.488931 
L 279.901735 217.24635 
L 280.155626 217.238971 
L 280.409516 217.455226 
L 280.663406 217.978384 
L 280.917296 219.043145 
L 281.171187 213.641429 
L 281.425077 224.409902 
L 281.678967 214.144559 
L 281.932857 217.143317 
L 282.186748 213.750259 
L 282.440638 220.560706 
L 282.694528 222.959712 
L 282.948418 216.751915 
L 283.202309 215.328427 
L 283.456199 221.268497 
L 283.710089 221.343158 
L 283.963979 213.592152 
L 284.21787 225.533162 
L 284.47176 219.698234 
L 284.72565 218.544494 
L 284.97954 222.888915 
L 285.233431 220.268647 
L 285.487321 220.521618 
L 285.995101 225.466845 
L 286.502882 216.828333 
L 287.010662 227.35297 
L 287.264553 217.363261 
L 287.518443 220.872088 
L 287.772333 222.020119 
L 288.026223 221.95793 
L 288.280114 220.730407 
L 288.534004 224.334889 
L 288.787894 218.212645 
L 289.041784 219.620146 
L 289.295675 216.570795 
L 289.549565 221.866667 
L 289.803455 219.495593 
L 290.057345 219.473546 
L 290.311236 215.999854 
L 290.565126 216.285324 
L 290.819016 221.160369 
L 291.072906 218.769884 
L 291.326797 219.033131 
L 291.580687 226.255095 
L 292.088467 219.393702 
L 292.596248 213.900636 
L 292.850138 218.257618 
L 293.104028 220.221918 
L 293.357919 217.231417 
L 293.611809 222.622769 
L 293.865699 224.043006 
L 294.119589 223.81586 
L 294.37348 219.174373 
L 294.88126 223.031123 
L 295.13515 226.284081 
L 295.389041 222.376298 
L 295.642931 220.576165 
L 295.896821 224.512671 
L 296.150712 219.695598 
L 296.404602 217.792081 
L 296.658492 217.991559 
L 297.166273 223.024975 
L 297.674053 226.649659 
L 297.927943 220.407957 
L 298.181834 219.521769 
L 298.435724 223.990567 
L 298.689614 219.573241 
L 298.943504 226.610571 
L 299.197395 218.253929 
L 299.451285 221.222294 
L 299.705175 221.378469 
L 299.959065 216.889468 
L 300.212956 225.572601 
L 300.466846 218.243915 
L 300.720736 220.148398 
L 300.974626 220.618942 
L 301.228517 216.5722 
L 301.482407 216.461877 
L 301.990187 224.883343 
L 302.497968 216.402762 
L 302.751858 222.571033 
L 303.005748 222.122361 
L 303.259639 214.141749 
L 303.513529 225.07149 
L 303.767419 223.256513 
L 304.021309 225.092747 
L 304.2752 223.713969 
L 304.78298 215.971482 
L 305.290761 223.406363 
L 305.544651 218.439968 
L 305.798541 223.271797 
L 306.052431 218.091781 
L 306.560212 225.605452 
L 307.067992 214.723757 
L 307.321883 219.86811 
L 307.575773 220.566239 
L 307.829663 224.725676 
L 308.083553 222.407568 
L 308.337444 224.16589 
L 308.591334 224.344814 
L 308.845224 222.605289 
L 309.099114 225.26157 
L 309.606895 214.368544 
L 309.860785 221.25172 
L 310.114675 223.068542 
L 310.368566 222.803625 
L 310.622456 222.302515 
L 310.876346 223.212331 
L 311.130236 225.00614 
L 311.384127 221.5169 
L 311.638017 222.150996 
L 311.891907 221.767148 
L 312.145798 220.38064 
L 312.399688 220.246425 
L 312.653578 222.073523 
L 312.907468 222.206684 
L 313.161359 224.266552 
L 313.669139 219.003179 
L 313.923029 221.877822 
L 314.6847 218.864484 
L 314.93859 220.196972 
L 315.192481 224.55334 
L 315.446371 221.71181 
L 315.700261 225.1588 
L 315.954151 219.850367 
L 316.461932 223.758326 
L 316.461932 223.758326 
" clip-path="url(#p8b5edd3d72)" style="fill: none; stroke: #0000ff; stroke-width: 0.6; stroke-linecap: square"/>
   </g>
   <g id="line2d_26">
    <path d="M 62.825568 97.680514 
L 63.079458 159.448242 
L 63.333349 155.493378 
L 63.587239 158.853409 
L 63.841129 157.416307 
L 64.095019 167.142593 
L 64.34891 155.388149 
L 64.6028 164.809817 
L 65.11058 148.686884 
L 65.364471 106.250074 
L 65.618361 168.892835 
L 65.872251 168.449345 
L 66.633922 162.979643 
L 66.887812 163.17148 
L 67.141702 172.7632 
L 67.395593 166.348546 
L 67.649483 176.961021 
L 67.903373 162.536769 
L 68.157264 138.316313 
L 68.411154 173.325093 
L 68.665044 165.385149 
L 68.918934 177.572279 
L 69.172825 169.890752 
L 69.426715 171.656628 
L 69.934495 176.881704 
L 70.188386 185.829227 
L 70.696166 155.143172 
L 70.950056 167.134776 
L 71.203947 184.998288 
L 71.711727 183.353627 
L 71.965617 97.216822 
L 72.219508 189.754753 
L 72.473398 158.710586 
L 72.727288 181.205044 
L 72.981178 143.185824 
L 73.488959 197.187526 
L 73.742849 145.740214 
L 73.996739 183.79492 
L 74.25063 153.749022 
L 74.50452 185.17326 
L 75.0123 196.189609 
L 75.266191 191.682162 
L 75.520081 189.362121 
L 75.773971 194.467387 
L 76.027861 175.821335 
L 76.281752 197.616961 
L 76.789532 180.657644 
L 77.043422 192.939462 
L 77.297313 182.369588 
L 77.551203 178.894754 
L 77.805093 193.147021 
L 78.058983 158.475183 
L 78.312874 188.125815 
L 78.566764 182.804821 
L 78.820654 188.787843 
L 79.074544 192.081469 
L 79.328435 184.486549 
L 79.582325 186.189359 
L 79.836215 149.323351 
L 80.090105 186.174953 
L 80.343996 180.275728 
L 80.597886 160.811825 
L 80.851776 196.941231 
L 81.105666 190.326748 
L 81.359557 180.100581 
L 81.613447 186.770928 
L 81.867337 180.150648 
L 82.121227 187.730197 
L 82.375118 179.065948 
L 82.629008 185.340326 
L 82.882898 198.541973 
L 83.136788 186.54422 
L 83.390679 193.676854 
L 83.644569 181.880863 
L 83.898459 192.786186 
L 84.15235 191.736621 
L 84.40624 192.240454 
L 84.66013 189.359925 
L 84.91402 195.774052 
L 85.167911 173.900777 
L 85.421801 199.288149 
L 85.675691 189.016483 
L 85.929581 193.502761 
L 86.183472 165.102314 
L 86.437362 176.358371 
L 86.691252 194.525799 
L 86.945142 188.66856 
L 87.199033 191.063086 
L 87.452923 188.477778 
L 87.706813 187.105851 
L 87.960703 195.977394 
L 88.468484 190.053136 
L 88.722374 199.22394 
L 89.230155 156.309824 
L 89.484045 199.678409 
L 89.737935 197.104783 
L 89.991825 198.054653 
L 90.245716 181.521258 
L 90.499606 196.027374 
L 90.753496 189.964859 
L 91.007386 192.091219 
L 91.261277 200.468855 
L 91.515167 171.17774 
L 91.769057 201.801343 
L 92.022947 174.647744 
L 92.276838 197.342909 
L 92.530728 192.555965 
L 92.784618 162.810996 
L 93.038508 181.568778 
L 93.292399 184.528448 
L 93.546289 203.065143 
L 93.800179 183.952851 
L 94.054069 193.141136 
L 94.30796 189.785145 
L 94.56185 200.206134 
L 95.06963 196.289128 
L 95.323521 186.999216 
L 95.577411 197.42126 
L 95.831301 180.223202 
L 96.085191 177.909837 
L 96.592972 200.462531 
L 97.100752 181.866018 
L 97.608533 191.299192 
L 97.862423 194.855715 
L 98.116313 189.984447 
L 98.370204 200.817568 
L 98.624094 192.520479 
L 98.877984 199.910914 
L 99.131874 192.233076 
L 99.385765 196.890285 
L 99.639655 197.49232 
L 99.893545 197.002014 
L 100.147436 195.274347 
L 100.401326 168.291941 
L 100.655216 193.262087 
L 100.909106 196.43239 
L 101.162997 185.460487 
L 101.416887 189.97215 
L 101.670777 199.641869 
L 101.924667 190.032055 
L 102.178558 165.935009 
L 102.432448 179.801759 
L 102.686338 151.937558 
L 102.940228 196.439505 
L 103.448009 201.36409 
L 103.701899 193.420545 
L 103.955789 193.867372 
L 104.20968 170.680934 
L 104.46357 194.474063 
L 104.71746 188.416731 
L 104.97135 198.563933 
L 105.225241 198.940051 
L 105.479131 192.003997 
L 105.733021 191.243591 
L 105.986911 193.513038 
L 106.240802 197.820567 
L 106.494692 192.541208 
L 106.748582 202.559289 
L 107.002472 180.597124 
L 107.256363 196.138488 
L 107.510253 188.635445 
L 107.764143 159.501383 
L 108.018033 189.43854 
L 108.271924 182.96363 
L 108.525814 193.337627 
L 108.779704 184.087418 
L 109.033594 195.705627 
L 109.287485 183.973669 
L 109.541375 189.364229 
L 109.795265 191.530819 
L 110.049155 197.550732 
L 110.303046 193.691083 
L 110.556936 195.161652 
L 110.810826 198.775005 
L 111.064716 189.762483 
L 111.318607 195.490338 
L 111.572497 197.742919 
L 111.826387 187.723521 
L 112.080277 160.197492 
L 112.334168 196.460586 
L 112.588058 197.861324 
L 112.841948 186.592267 
L 113.095838 193.936149 
L 113.349729 173.245249 
L 113.603619 203.063913 
L 113.857509 190.80467 
L 114.111399 193.146142 
L 114.36529 194.424523 
L 114.61918 194.545562 
L 114.87307 192.246515 
L 115.12696 192.892205 
L 115.380851 191.450096 
L 115.634741 194.944694 
L 115.888631 190.20808 
L 116.142521 198.177449 
L 116.396412 143.293864 
L 116.650302 173.878994 
L 116.904192 180.750048 
L 117.158083 170.195459 
L 117.411973 200.269728 
L 117.665863 192.80876 
L 117.919753 195.315191 
L 118.173644 196.456106 
L 118.427534 193.616773 
L 118.681424 186.155278 
L 118.935314 204.351868 
L 119.189205 202.507114 
L 119.443095 202.451865 
L 119.696985 185.2098 
L 119.950875 200.392437 
L 120.204766 191.758317 
L 120.458656 187.038655 
L 120.712546 188.292529 
L 120.966436 202.425162 
L 121.220327 201.760587 
L 121.474217 194.139843 
L 121.728107 194.247268 
L 121.981997 205.217942 
L 122.235888 197.565576 
L 122.489778 199.118711 
L 122.743668 188.713181 
L 122.997558 196.92867 
L 123.251449 197.733433 
L 123.505339 197.082912 
L 123.759229 181.370002 
L 124.013119 196.206298 
L 124.26701 193.264634 
L 124.5209 208.034437 
L 124.77479 184.466962 
L 125.02868 193.983669 
L 125.282571 188.133369 
L 125.536461 207.102486 
L 125.790351 203.153595 
L 126.044241 186.369776 
L 126.298132 195.781254 
L 126.552022 170.362788 
L 126.805912 194.301463 
L 127.059802 197.144925 
L 127.567583 168.779437 
L 127.821473 173.210378 
L 128.075363 161.723837 
L 128.329254 201.431988 
L 128.583144 201.297773 
L 129.090924 193.512862 
L 129.344815 194.151964 
L 129.598705 193.370478 
L 129.852595 181.55771 
L 130.106485 195.472243 
L 130.360376 159.953657 
L 130.614266 202.640714 
L 130.868156 168.041694 
L 131.122046 177.050702 
L 131.375937 198.452906 
L 131.629827 202.135563 
L 131.883717 199.539627 
L 132.137607 202.758679 
L 132.391498 188.514318 
L 132.645388 197.563644 
L 132.899278 195.118787 
L 133.153169 188.260469 
L 133.407059 198.435515 
L 133.660949 197.627853 
L 133.914839 188.470927 
L 134.16873 201.295226 
L 134.42262 197.529212 
L 134.67651 188.31036 
L 134.9304 201.596946 
L 135.184291 194.878641 
L 135.438181 177.872418 
L 135.692071 175.763538 
L 135.945961 181.225862 
L 136.199852 169.691889 
L 136.453742 176.267986 
L 136.707632 175.527344 
L 137.215413 198.704208 
L 137.469303 202.491743 
L 137.723193 197.587184 
L 137.977083 197.223627 
L 138.230974 172.303548 
L 138.484864 186.985953 
L 138.738754 194.65694 
L 138.992644 183.620827 
L 139.246535 195.824646 
L 139.500425 195.396001 
L 139.754315 200.401133 
L 140.262096 187.124472 
L 140.515986 190.021426 
L 140.769876 177.958147 
L 141.023766 200.245222 
L 141.277657 193.330776 
L 141.531547 201.895856 
L 141.785437 190.374092 
L 142.293218 198.440785 
L 142.547108 188.82245 
L 142.800998 190.595529 
L 143.054888 191.551285 
L 143.308779 194.355571 
L 143.562669 180.913074 
L 143.816559 185.547797 
L 144.070449 197.097141 
L 144.32434 197.976215 
L 144.57823 182.898543 
L 144.83212 178.318806 
L 145.08601 196.609558 
L 145.339901 171.554122 
L 145.593791 179.063577 
L 145.847681 193.990081 
L 146.101571 201.037512 
L 146.609352 191.624716 
L 146.863242 183.042947 
L 147.117132 199.316433 
L 147.371023 191.640264 
L 147.624913 202.155766 
L 147.878803 198.91045 
L 148.132693 202.214265 
L 148.386584 180.575165 
L 148.640474 202.523364 
L 148.894364 200.338153 
L 149.148255 202.191076 
L 149.402145 200.708475 
L 149.909925 178.592067 
L 150.163816 197.027574 
L 150.417706 183.961986 
L 150.671596 192.734538 
L 150.925486 196.104143 
L 151.179377 176.945737 
L 151.433267 200.0049 
L 151.687157 199.222184 
L 151.941047 202.116503 
L 152.194938 196.881589 
L 152.448828 203.64232 
L 152.702718 183.125602 
L 152.956608 198.024262 
L 153.210499 197.817932 
L 153.464389 201.523602 
L 153.718279 199.014712 
L 153.972169 180.864412 
L 154.47995 197.996769 
L 154.73384 191.074681 
L 154.98773 196.526727 
L 155.495511 186.187602 
L 155.749401 193.11742 
L 156.003291 173.568314 
L 156.257182 197.576644 
L 156.511072 199.378621 
L 156.764962 190.911743 
L 157.018852 201.618906 
L 157.272743 191.925646 
L 157.526633 201.405901 
L 157.780523 190.401585 
L 158.034413 190.966553 
L 158.288304 204.695838 
L 158.542194 183.281161 
L 158.796084 197.688724 
L 159.049974 177.91335 
L 159.303865 204.567508 
L 159.557755 174.525035 
L 159.811645 196.364141 
L 160.065535 193.113379 
L 160.319426 198.036734 
L 160.573316 183.318756 
L 160.827206 196.244068 
L 161.081096 187.429091 
L 161.334987 189.711186 
L 161.588877 182.342183 
L 161.842767 123.04092 
L 162.096657 194.225923 
L 162.350548 180.348984 
L 162.604438 199.640815 
L 162.858328 200.932723 
L 163.112218 199.987947 
L 163.366109 194.709642 
L 163.619999 203.732178 
L 163.873889 186.132704 
L 164.127779 198.515622 
L 164.38167 173.533618 
L 164.63556 195.309218 
L 164.88945 193.871676 
L 165.14334 198.020924 
L 165.397231 196.759759 
L 165.651121 199.917414 
L 166.158902 181.967997 
L 166.412792 197.70269 
L 166.666682 199.54437 
L 166.920572 200.071392 
L 167.428353 191.884187 
L 167.682243 192.195042 
L 167.936133 184.043851 
L 168.190024 195.920476 
L 168.443914 165.024139 
L 168.697804 196.364844 
L 168.951694 193.495295 
L 169.205585 197.012027 
L 169.459475 189.036861 
L 169.713365 194.595805 
L 169.967255 193.109339 
L 170.221146 193.612206 
L 170.475036 200.21685 
L 170.728926 203.199709 
L 170.982816 198.848437 
L 171.236707 203.841623 
L 171.490597 182.988049 
L 171.744487 172.088084 
L 171.998377 197.712791 
L 172.252268 194.233565 
L 172.760048 199.5326 
L 173.013938 205.757086 
L 173.267829 197.004298 
L 173.521719 192.861199 
L 173.775609 194.271072 
L 174.029499 193.488882 
L 174.28339 182.993495 
L 174.53728 197.363727 
L 174.79117 194.579819 
L 175.04506 194.985275 
L 175.298951 169.708138 
L 175.552841 189.579957 
L 175.806731 196.099576 
L 176.060621 181.16297 
L 176.314512 195.363501 
L 176.568402 188.013998 
L 176.822292 175.48773 
L 177.330073 198.325191 
L 177.583963 204.730182 
L 177.837853 192.201718 
L 178.091743 192.018929 
L 178.345634 199.236764 
L 178.599524 182.315041 
L 178.853414 189.584964 
L 179.107304 189.508634 
L 179.361195 187.152668 
L 179.615085 196.097029 
L 179.868975 197.067277 
L 180.376756 201.060262 
L 180.630646 191.769648 
L 180.884536 193.349836 
L 181.138426 197.544759 
L 181.392317 146.72232 
L 181.646207 201.384029 
L 181.900097 199.409101 
L 182.153988 188.400745 
L 182.407878 169.838577 
L 182.661768 192.958961 
L 182.915658 196.930954 
L 183.169549 181.823769 
L 183.423439 198.837018 
L 183.677329 186.957494 
L 183.931219 198.298665 
L 184.18511 193.524896 
L 184.439 199.907664 
L 184.69289 184.39353 
L 184.94678 198.772809 
L 185.200671 185.435629 
L 185.454561 161.912599 
L 185.708451 203.334978 
L 185.962341 204.390165 
L 186.216232 182.981549 
L 186.470122 199.053712 
L 186.977902 181.412955 
L 187.485683 196.62001 
L 187.739573 190.397896 
L 187.993463 190.190161 
L 188.247354 200.804744 
L 188.501244 196.07138 
L 188.755134 172.798247 
L 189.009024 197.899972 
L 189.262915 201.038039 
L 189.770695 155.659742 
L 190.024585 193.623888 
L 190.278476 190.172682 
L 190.532366 196.928758 
L 190.786256 193.990783 
L 191.040146 198.241483 
L 191.294037 189.450398 
L 191.801817 189.871576 
L 192.055707 203.29431 
L 192.309598 193.971811 
L 192.563488 195.199773 
L 192.817378 201.897701 
L 193.325159 179.960569 
L 193.579049 194.58869 
L 193.832939 198.56771 
L 194.086829 184.005641 
L 194.34072 194.582981 
L 194.59461 192.644241 
L 194.8485 179.932285 
L 195.10239 181.216815 
L 195.356281 184.882782 
L 195.610171 191.812951 
L 195.864061 194.651757 
L 196.117951 193.300911 
L 196.371842 197.216073 
L 197.133512 190.784379 
L 197.387403 190.599219 
L 197.641293 175.85401 
L 197.895183 198.501305 
L 198.149074 197.27264 
L 198.402964 200.054791 
L 198.656854 201.401245 
L 198.910744 197.642873 
L 199.164635 196.424309 
L 199.418525 204.716743 
L 199.672415 193.205344 
L 199.926305 195.650553 
L 200.180196 187.721149 
L 200.434086 198.658182 
L 200.687976 198.74962 
L 200.941866 195.593195 
L 201.195757 189.624227 
L 201.449647 196.104319 
L 201.703537 187.901742 
L 201.957427 199.126792 
L 202.211318 201.428651 
L 202.465208 202.239826 
L 202.719098 177.191681 
L 202.972988 192.378798 
L 203.226879 192.690268 
L 203.480769 196.781894 
L 203.734659 203.176784 
L 204.24244 176.974548 
L 204.49633 200.316282 
L 204.75022 199.617362 
L 205.00411 195.933212 
L 205.258001 195.49798 
L 205.765781 180.671346 
L 206.019671 193.877737 
L 206.273562 198.366563 
L 206.781342 186.969176 
L 207.035232 195.877348 
L 207.543013 166.938899 
L 208.050793 202.630613 
L 208.304684 193.789285 
L 208.558574 198.223037 
L 208.812464 184.303848 
L 209.066354 182.142529 
L 209.320245 193.168277 
L 209.574135 193.065596 
L 209.828025 200.333762 
L 210.081915 201.738803 
L 210.335806 182.33867 
L 210.589696 201.137822 
L 210.843586 187.881979 
L 211.097476 192.393027 
L 211.351367 186.65024 
L 211.605257 196.701962 
L 211.859147 193.566882 
L 212.113037 188.460123 
L 212.366928 202.376413 
L 212.620818 199.281122 
L 212.874708 193.175568 
L 213.128598 203.405424 
L 213.382489 197.778669 
L 213.636379 196.86288 
L 213.890269 194.76454 
L 214.39805 188.264422 
L 214.65194 199.289818 
L 215.413611 206.827556 
L 215.667501 198.459846 
L 215.921391 194.022229 
L 216.175282 199.809111 
L 216.683062 204.880999 
L 216.936952 184.320449 
L 217.190843 202.022254 
L 217.444733 196.087718 
L 217.698623 202.791706 
L 217.952513 202.675586 
L 218.206404 203.10467 
L 218.460294 202.71845 
L 218.714184 200.81344 
L 218.968074 201.063512 
L 219.221965 192.385385 
L 219.475855 191.023823 
L 219.983635 197.310761 
L 220.237526 177.209424 
L 220.491416 200.19981 
L 220.745306 188.249577 
L 220.999196 195.408649 
L 221.253087 164.330138 
L 221.506977 199.796901 
L 221.760867 191.783877 
L 222.014757 203.761515 
L 222.268648 188.805234 
L 222.522538 199.160698 
L 222.776428 171.361232 
L 223.030318 201.836478 
L 223.284209 201.89164 
L 223.791989 186.138501 
L 224.045879 191.031026 
L 224.29977 201.11516 
L 224.55366 190.211242 
L 224.80755 194.49084 
L 225.06144 200.963641 
L 225.315331 187.685927 
L 225.569221 197.022831 
L 225.823111 190.745731 
L 226.330892 199.407871 
L 226.584782 167.622447 
L 226.838672 191.601703 
L 227.092562 194.715615 
L 227.346453 183.269391 
L 227.600343 203.647064 
L 227.854233 195.923287 
L 228.108123 200.788406 
L 228.362014 197.751176 
L 228.615904 203.221054 
L 228.869794 198.443508 
L 229.123684 199.147786 
L 229.377575 194.897877 
L 229.631465 200.602192 
L 230.139245 198.207578 
L 230.393136 191.876633 
L 230.647026 198.552338 
L 230.900916 197.826365 
L 231.154807 195.627276 
L 231.408697 198.21478 
L 231.662587 198.180524 
L 232.170368 188.327401 
L 232.424258 207.073588 
L 232.678148 187.274059 
L 232.932038 187.067027 
L 233.185929 185.338305 
L 233.439819 199.72751 
L 233.693709 195.732505 
L 233.947599 199.980832 
L 234.20149 202.026733 
L 234.45538 193.28633 
L 234.70927 202.750598 
L 235.217051 179.001037 
L 235.470941 205.733897 
L 235.978721 196.207967 
L 236.232612 203.013407 
L 236.486502 193.485193 
L 236.740392 198.525021 
L 236.994282 201.067552 
L 237.248173 197.284322 
L 237.502063 199.395047 
L 237.755953 192.355696 
L 238.009843 195.286907 
L 238.263734 190.030298 
L 238.517624 187.880222 
L 238.771514 201.333962 
L 239.025404 187.761642 
L 239.279295 199.235798 
L 239.533185 197.911215 
L 239.787075 204.731851 
L 240.040965 200.564422 
L 240.294856 184.051317 
L 240.548746 202.703693 
L 240.802636 196.957744 
L 241.056526 197.721751 
L 241.564307 174.727412 
L 241.818197 203.399012 
L 242.072087 204.813276 
L 242.325978 202.048605 
L 242.579868 196.020874 
L 242.833758 194.360314 
L 243.087648 198.077052 
L 243.595429 188.078383 
L 243.849319 196.719793 
L 244.103209 190.730711 
L 244.3571 200.748089 
L 244.61099 201.165579 
L 245.11877 191.452117 
L 245.626551 199.59839 
L 245.880441 196.218419 
L 246.134331 195.244833 
L 246.388222 195.134773 
L 246.642112 189.606396 
L 246.896002 195.287786 
L 247.149893 184.732142 
L 247.657673 203.208054 
L 247.911563 194.653865 
L 248.165454 203.094129 
L 248.419344 173.333613 
L 248.673234 190.930364 
L 248.927124 195.191077 
L 249.181015 181.618669 
L 249.688795 194.843681 
L 249.942685 191.309557 
L 250.196576 193.217554 
L 250.450466 193.367667 
L 250.704356 196.472971 
L 250.958246 196.581626 
L 251.212137 195.60356 
L 251.466027 197.672123 
L 251.719917 188.378346 
L 251.973807 196.487289 
L 252.227698 187.119026 
L 252.481588 196.899069 
L 252.735478 195.934793 
L 252.989368 199.877887 
L 253.243259 184.686379 
L 253.497149 186.695476 
L 253.751039 189.603761 
L 254.004929 171.538751 
L 254.25882 196.969865 
L 254.51271 183.080981 
L 254.7666 192.010058 
L 255.02049 189.948785 
L 255.274381 199.211731 
L 255.528271 196.299581 
L 255.782161 200.075696 
L 256.036051 188.057917 
L 256.289942 189.827921 
L 256.543832 129.712496 
L 256.797722 191.052107 
L 257.051612 188.427271 
L 257.305503 191.679615 
L 257.559393 196.542099 
L 258.067173 191.220315 
L 258.321064 198.262564 
L 258.574954 193.916649 
L 258.828844 195.201617 
L 259.082734 194.388949 
L 259.336625 198.343725 
L 259.590515 190.511733 
L 260.098295 206.116954 
L 260.352186 204.618102 
L 260.606076 197.000521 
L 260.859966 199.766158 
L 261.113856 195.506676 
L 261.367747 176.287223 
L 261.621637 185.963442 
L 261.875527 203.561159 
L 262.129417 199.584951 
L 262.383308 191.624541 
L 262.637198 200.269026 
L 262.891088 203.261635 
L 263.144979 183.296621 
L 263.398869 189.973028 
L 263.652759 202.77572 
L 263.906649 181.818323 
L 264.16054 173.983344 
L 264.41443 188.218044 
L 264.66832 187.700859 
L 264.92221 174.671811 
L 265.176101 196.73903 
L 265.429991 194.59194 
L 265.683881 194.388334 
L 265.937771 202.195029 
L 266.445552 199.303081 
L 266.699442 191.568501 
L 266.953332 189.261636 
L 267.207223 198.000985 
L 267.461113 196.949663 
L 267.715003 202.155942 
L 267.968893 198.408373 
L 268.222784 205.633675 
L 268.476674 192.446696 
L 268.730564 198.175781 
L 268.984454 197.568299 
L 269.238345 202.852753 
L 269.492235 201.852991 
L 269.746125 199.834671 
L 270.000015 202.158225 
L 270.253906 196.911366 
L 270.507796 194.405023 
L 270.761686 197.995715 
L 271.015576 189.488519 
L 271.269467 196.399979 
L 271.523357 198.134761 
L 271.777247 196.990595 
L 272.031137 193.714536 
L 272.285028 194.666602 
L 272.538918 189.353953 
L 272.792808 197.024939 
L 273.046698 197.608441 
L 273.300589 198.721073 
L 273.554479 197.484591 
L 273.808369 191.87391 
L 274.062259 202.526175 
L 274.31615 187.428828 
L 274.57004 195.084531 
L 274.82393 192.016031 
L 275.07782 200.075345 
L 275.331711 196.808245 
L 275.839491 202.883847 
L 276.093381 191.356813 
L 276.347272 201.244105 
L 276.601162 195.129328 
L 277.362833 204.50084 
L 277.616723 196.243541 
L 277.870613 200.945108 
L 278.124503 189.781719 
L 278.378394 198.100504 
L 278.632284 201.15495 
L 278.886174 192.128462 
L 279.140064 189.962663 
L 279.393955 201.305767 
L 279.647845 191.09339 
L 279.901735 198.669249 
L 280.155626 196.722253 
L 280.409516 198.435778 
L 280.663406 197.838574 
L 280.917296 183.194554 
L 281.425077 204.144661 
L 281.678967 186.738165 
L 281.932857 157.972491 
L 282.186748 193.775231 
L 282.440638 206.048265 
L 282.694528 196.545173 
L 282.948418 195.90001 
L 283.202309 191.510616 
L 283.456199 199.391094 
L 283.710089 183.964885 
L 283.963979 194.614075 
L 284.21787 191.921957 
L 284.47176 197.913411 
L 284.72565 197.322443 
L 284.97954 198.767539 
L 285.233431 163.127298 
L 285.487321 187.134134 
L 285.741211 193.430646 
L 285.995101 193.554497 
L 286.248992 202.32046 
L 286.756772 195.154625 
L 287.010662 189.129441 
L 287.264553 203.624577 
L 287.518443 196.450397 
L 287.772333 202.214002 
L 288.026223 193.589192 
L 288.280114 180.541435 
L 288.534004 203.244067 
L 289.295675 189.091056 
L 289.549565 194.062459 
L 289.803455 172.100205 
L 290.057345 194.8616 
L 290.311236 197.396051 
L 290.565126 192.944117 
L 290.819016 203.27604 
L 291.072906 197.717798 
L 291.326797 188.564649 
L 291.580687 199.435364 
L 291.834577 186.414573 
L 292.088467 194.845614 
L 292.596248 190.934668 
L 292.850138 197.499435 
L 293.104028 194.248937 
L 293.357919 199.788469 
L 293.611809 197.252701 
L 293.865699 189.837935 
L 294.119589 202.614802 
L 294.62737 193.157912 
L 294.88126 194.266855 
L 295.13515 166.911318 
L 295.389041 192.156394 
L 295.642931 193.865352 
L 295.896821 201.448853 
L 296.150712 191.518082 
L 296.404602 190.457362 
L 296.658492 204.190863 
L 296.912382 196.147886 
L 297.166273 194.447888 
L 297.420163 204.3798 
L 297.674053 200.071129 
L 297.927943 177.339774 
L 298.181834 196.533667 
L 298.689614 199.367027 
L 298.943504 192.861989 
L 299.197395 189.783564 
L 299.705175 198.194314 
L 299.959065 197.638218 
L 300.212956 193.269993 
L 300.466846 193.917791 
L 300.720736 199.924792 
L 300.974626 187.486273 
L 301.228517 185.810693 
L 301.482407 194.687507 
L 301.736297 197.108297 
L 301.990187 196.034752 
L 302.244078 191.047276 
L 302.497968 203.360188 
L 302.751858 191.890687 
L 303.005748 190.775508 
L 303.259639 195.045531 
L 304.021309 199.585302 
L 304.2752 200.703995 
L 304.52909 197.411862 
L 304.78298 198.632006 
L 305.03687 201.733533 
L 305.290761 191.45765 
L 305.798541 194.523252 
L 306.052431 201.718864 
L 306.306322 181.891403 
L 306.560212 193.879582 
L 306.814102 191.209159 
L 307.067992 200.674921 
L 307.321883 191.727134 
L 307.575773 205.069058 
L 307.829663 189.15992 
L 308.083553 201.128951 
L 308.337444 189.052408 
L 308.591334 200.29889 
L 308.845224 190.74538 
L 309.099114 189.907238 
L 309.353005 189.941846 
L 309.606895 197.467287 
L 309.860785 173.893311 
L 310.114675 194.683994 
L 310.622456 207.847959 
L 310.876346 180.671698 
L 311.130236 197.062621 
L 311.384127 200.454977 
L 311.638017 184.629812 
L 311.891907 198.232875 
L 312.145798 180.284248 
L 312.653578 204.072371 
L 312.907468 200.007798 
L 313.161359 183.994574 
L 313.415249 198.462305 
L 313.923029 191.667844 
L 314.17692 193.161865 
L 314.43081 200.075521 
L 314.6847 119.23696 
L 314.93859 194.826992 
L 315.192481 199.396979 
L 315.446371 197.850344 
L 315.700261 205.657391 
L 315.954151 195.647039 
L 316.208042 194.634981 
L 316.461932 195.162003 
L 316.461932 195.162003 
" clip-path="url(#p8b5edd3d72)" style="fill: none; stroke: #ff0000; stroke-width: 0.6; stroke-linecap: square"/>
   </g>
   <g id="patch_3">
    <path d="M 50.14375 239.76 
L 50.14375 37.296 
" style="fill: none; stroke: #000000; stroke-width: 0.8; stroke-linejoin: miter; stroke-linecap: square"/>
   </g>
   <g id="patch_4">
    <path d="M 329.14375 239.76 
L 329.14375 37.296 
" style="fill: none; stroke: #000000; stroke-width: 0.8; stroke-linejoin: miter; stroke-linecap: square"/>
   </g>
   <g id="patch_5">
    <path d="M 50.14375 239.76 
L 329.14375 239.76 
" style="fill: none; stroke: #000000; stroke-width: 0.8; stroke-linejoin: miter; stroke-linecap: square"/>
   </g>
   <g id="patch_6">
    <path d="M 50.14375 37.296 
L 329.14375 37.296 
" style="fill: none; stroke: #000000; stroke-width: 0.8; stroke-linejoin: miter; stroke-linecap: square"/>
   </g>
   <g id="text_15">
    <!-- Baseline Model -->
    <g transform="translate(155.622344 31.296) scale(0.09 -0.09)">
     <defs>
      <path id="DejaVuSans-42" d="M 1259 2228 
L 1259 519 
L 2272 519 
Q 2781 519 3026 730 
Q 3272 941 3272 1375 
Q 3272 1813 3026 2020 
Q 2781 2228 2272 2228 
L 1259 2228 
z
M 1259 4147 
L 1259 2741 
L 2194 2741 
Q 2656 2741 2882 2914 
Q 3109 3088 3109 3444 
Q 3109 3797 2882 3972 
Q 2656 4147 2194 4147 
L 1259 4147 
z
M 628 4666 
L 2241 4666 
Q 2963 4666 3353 4366 
Q 3744 4066 3744 3513 
Q 3744 3084 3544 2831 
Q 3344 2578 2956 2516 
Q 3422 2416 3680 2098 
Q 3938 1781 3938 1306 
Q 3938 681 3513 340 
Q 3088 0 2303 0 
L 628 0 
L 628 4666 
z
" transform="scale(0.015625)"/>
      <path id="DejaVuSans-61" d="M 2194 1759 
Q 1497 1759 1228 1600 
Q 959 1441 959 1056 
Q 959 750 1161 570 
Q 1363 391 1709 391 
Q 2188 391 2477 730 
Q 2766 1069 2766 1631 
L 2766 1759 
L 2194 1759 
z
M 3341 1997 
L 3341 0 
L 2766 0 
L 2766 531 
Q 2569 213 2275 61 
Q 1981 -91 1556 -91 
Q 1019 -91 701 211 
Q 384 513 384 1019 
Q 384 1609 779 1909 
Q 1175 2209 1959 2209 
L 2766 2209 
L 2766 2266 
Q 2766 2663 2505 2880 
Q 2244 3097 1772 3097 
Q 1472 3097 1187 3025 
Q 903 2953 641 2809 
L 641 3341 
Q 956 3463 1253 3523 
Q 1550 3584 1831 3584 
Q 2591 3584 2966 3190 
Q 3341 2797 3341 1997 
z
" transform="scale(0.015625)"/>
      <path id="DejaVuSans-65" d="M 3597 1894 
L 3597 1613 
L 953 1613 
Q 991 1019 1311 708 
Q 1631 397 2203 397 
Q 2534 397 2845 478 
Q 3156 559 3463 722 
L 3463 178 
Q 3153 47 2828 -22 
Q 2503 -91 2169 -91 
Q 1331 -91 842 396 
Q 353 884 353 1716 
Q 353 2575 817 3079 
Q 1281 3584 2069 3584 
Q 2775 3584 3186 3129 
Q 3597 2675 3597 1894 
z
M 3022 2063 
Q 3016 2534 2758 2815 
Q 2500 3097 2075 3097 
Q 1594 3097 1305 2825 
Q 1016 2553 972 2059 
L 3022 2063 
z
" transform="scale(0.015625)"/>
      <path id="DejaVuSans-6c" d="M 603 4863 
L 1178 4863 
L 1178 0 
L 603 0 
L 603 4863 
z
" transform="scale(0.015625)"/>
      <path id="DejaVuSans-69" d="M 603 3500 
L 1178 3500 
L 1178 0 
L 603 0 
L 603 3500 
z
M 603 4863 
L 1178 4863 
L 1178 4134 
L 603 4134 
L 603 4863 
z
" transform="scale(0.015625)"/>
      <path id="DejaVuSans-6e" d="M 3513 2113 
L 3513 0 
L 2938 0 
L 2938 2094 
Q 2938 2591 2744 2837 
Q 2550 3084 2163 3084 
Q 1697 3084 1428 2787 
Q 1159 2491 1159 1978 
L 1159 0 
L 581 0 
L 581 3500 
L 1159 3500 
L 1159 2956 
Q 1366 3272 1645 3428 
Q 1925 3584 2291 3584 
Q 2894 3584 3203 3211 
Q 3513 2838 3513 2113 
z
" transform="scale(0.015625)"/>
      <path id="DejaVuSans-20" transform="scale(0.015625)"/>
      <path id="DejaVuSans-4d" d="M 628 4666 
L 1569 4666 
L 2759 1491 
L 3956 4666 
L 4897 4666 
L 4897 0 
L 4281 0 
L 4281 4097 
L 3078 897 
L 2444 897 
L 1241 4097 
L 1241 0 
L 628 0 
L 628 4666 
z
" transform="scale(0.015625)"/>
      <path id="DejaVuSans-64" d="M 2906 2969 
L 2906 4863 
L 3481 4863 
L 3481 0 
L 2906 0 
L 2906 525 
Q 2725 213 2448 61 
Q 2172 -91 1784 -91 
Q 1150 -91 751 415 
Q 353 922 353 1747 
Q 353 2572 751 3078 
Q 1150 3584 1784 3584 
Q 2172 3584 2448 3432 
Q 2725 3281 2906 2969 
z
M 947 1747 
Q 947 1113 1208 752 
Q 1469 391 1925 391 
Q 2381 391 2643 752 
Q 2906 1113 2906 1747 
Q 2906 2381 2643 2742 
Q 2381 3103 1925 3103 
Q 1469 3103 1208 2742 
Q 947 2381 947 1747 
z
" transform="scale(0.015625)"/>
     </defs>
     <use xlink:href="#DejaVuSans-42"/>
     <use xlink:href="#DejaVuSans-61" x="68.603516"/>
     <use xlink:href="#DejaVuSans-73" x="129.882812"/>
     <use xlink:href="#DejaVuSans-65" x="181.982422"/>
     <use xlink:href="#DejaVuSans-6c" x="243.505859"/>
     <use xlink:href="#DejaVuSans-69" x="271.289062"/>
     <use xlink:href="#DejaVuSans-6e" x="299.072266"/>
     <use xlink:href="#DejaVuSans-65" x="362.451172"/>
     <use xlink:href="#DejaVuSans-20" x="423.974609"/>
     <use xlink:href="#DejaVuSans-4d" x="455.761719"/>
     <use xlink:href="#DejaVuSans-6f" x="542.041016"/>
     <use xlink:href="#DejaVuSans-64" x="603.222656"/>
     <use xlink:href="#DejaVuSans-65" x="666.699219"/>
     <use xlink:href="#DejaVuSans-6c" x="728.222656"/>
    </g>
   </g>
   <g id="legend_1">
    <g id="patch_7">
     <path d="M 215.65 74.65225 
L 322.14375 74.65225 
Q 324.14375 74.65225 324.14375 72.65225 
L 324.14375 44.296 
Q 324.14375 42.296 322.14375 42.296 
L 215.65 42.296 
Q 213.65 42.296 213.65 44.296 
L 213.65 72.65225 
Q 213.65 74.65225 215.65 74.65225 
z
" style="fill: #ffffff; opacity: 0.8; stroke: #cccccc; stroke-linejoin: miter"/>
    </g>
    <g id="line2d_27">
     <path d="M 217.65 50.394438 
L 227.65 50.394438 
L 237.65 50.394438 
" style="fill: none; stroke: #0000ff; stroke-width: 0.6; stroke-linecap: square"/>
    </g>
    <g id="text_16">
     <!-- Training Loss -->
     <g transform="translate(245.65 53.894438) scale(0.1 -0.1)">
      <defs>
       <path id="DejaVuSans-54" d="M -19 4666 
L 3928 4666 
L 3928 4134 
L 2272 4134 
L 2272 0 
L 1638 0 
L 1638 4134 
L -19 4134 
L -19 4666 
z
" transform="scale(0.015625)"/>
       <path id="DejaVuSans-72" d="M 2631 2963 
Q 2534 3019 2420 3045 
Q 2306 3072 2169 3072 
Q 1681 3072 1420 2755 
Q 1159 2438 1159 1844 
L 1159 0 
L 581 0 
L 581 3500 
L 1159 3500 
L 1159 2956 
Q 1341 3275 1631 3429 
Q 1922 3584 2338 3584 
Q 2397 3584 2469 3576 
Q 2541 3569 2628 3553 
L 2631 2963 
z
" transform="scale(0.015625)"/>
       <path id="DejaVuSans-67" d="M 2906 1791 
Q 2906 2416 2648 2759 
Q 2391 3103 1925 3103 
Q 1463 3103 1205 2759 
Q 947 2416 947 1791 
Q 947 1169 1205 825 
Q 1463 481 1925 481 
Q 2391 481 2648 825 
Q 2906 1169 2906 1791 
z
M 3481 434 
Q 3481 -459 3084 -895 
Q 2688 -1331 1869 -1331 
Q 1566 -1331 1297 -1286 
Q 1028 -1241 775 -1147 
L 775 -588 
Q 1028 -725 1275 -790 
Q 1522 -856 1778 -856 
Q 2344 -856 2625 -561 
Q 2906 -266 2906 331 
L 2906 616 
Q 2728 306 2450 153 
Q 2172 0 1784 0 
Q 1141 0 747 490 
Q 353 981 353 1791 
Q 353 2603 747 3093 
Q 1141 3584 1784 3584 
Q 2172 3584 2450 3431 
Q 2728 3278 2906 2969 
L 2906 3500 
L 3481 3500 
L 3481 434 
z
" transform="scale(0.015625)"/>
      </defs>
      <use xlink:href="#DejaVuSans-54"/>
      <use xlink:href="#DejaVuSans-72" x="46.333984"/>
      <use xlink:href="#DejaVuSans-61" x="87.447266"/>
      <use xlink:href="#DejaVuSans-69" x="148.726562"/>
      <use xlink:href="#DejaVuSans-6e" x="176.509766"/>
      <use xlink:href="#DejaVuSans-69" x="239.888672"/>
      <use xlink:href="#DejaVuSans-6e" x="267.671875"/>
      <use xlink:href="#DejaVuSans-67" x="331.050781"/>
      <use xlink:href="#DejaVuSans-20" x="394.527344"/>
      <use xlink:href="#DejaVuSans-4c" x="426.314453"/>
      <use xlink:href="#DejaVuSans-6f" x="480.277344"/>
      <use xlink:href="#DejaVuSans-73" x="541.458984"/>
      <use xlink:href="#DejaVuSans-73" x="593.558594"/>
     </g>
    </g>
    <g id="line2d_28">
     <path d="M 217.65 65.072563 
L 227.65 65.072563 
L 237.65 65.072563 
" style="fill: none; stroke: #ff0000; stroke-width: 0.6; stroke-linecap: square"/>
    </g>
    <g id="text_17">
     <!-- Validation Loss -->
     <g transform="translate(245.65 68.572563) scale(0.1 -0.1)">
      <defs>
       <path id="DejaVuSans-56" d="M 1831 0 
L 50 4666 
L 709 4666 
L 2188 738 
L 3669 4666 
L 4325 4666 
L 2547 0 
L 1831 0 
z
" transform="scale(0.015625)"/>
       <path id="DejaVuSans-74" d="M 1172 4494 
L 1172 3500 
L 2356 3500 
L 2356 3053 
L 1172 3053 
L 1172 1153 
Q 1172 725 1289 603 
Q 1406 481 1766 481 
L 2356 481 
L 2356 0 
L 1766 0 
Q 1100 0 847 248 
Q 594 497 594 1153 
L 594 3053 
L 172 3053 
L 172 3500 
L 594 3500 
L 594 4494 
L 1172 4494 
z
" transform="scale(0.015625)"/>
      </defs>
      <use xlink:href="#DejaVuSans-56"/>
      <use xlink:href="#DejaVuSans-61" x="60.658203"/>
      <use xlink:href="#DejaVuSans-6c" x="121.9375"/>
      <use xlink:href="#DejaVuSans-69" x="149.720703"/>
      <use xlink:href="#DejaVuSans-64" x="177.503906"/>
      <use xlink:href="#DejaVuSans-61" x="240.980469"/>
      <use xlink:href="#DejaVuSans-74" x="302.259766"/>
      <use xlink:href="#DejaVuSans-69" x="341.46875"/>
      <use xlink:href="#DejaVuSans-6f" x="369.251953"/>
      <use xlink:href="#DejaVuSans-6e" x="430.433594"/>
      <use xlink:href="#DejaVuSans-20" x="493.8125"/>
      <use xlink:href="#DejaVuSans-4c" x="525.599609"/>
      <use xlink:href="#DejaVuSans-6f" x="579.5625"/>
      <use xlink:href="#DejaVuSans-73" x="640.744141"/>
      <use xlink:href="#DejaVuSans-73" x="692.84375"/>
     </g>
    </g>
   </g>
  </g>
  <g id="text_18">
   <!-- Training VS. Validation Loss - Dataset Size = 100.0% -->
   <g transform="translate(40.843516 15.558281) scale(0.11 -0.11)">
    <defs>
     <path id="DejaVuSans-53" d="M 3425 4513 
L 3425 3897 
Q 3066 4069 2747 4153 
Q 2428 4238 2131 4238 
Q 1616 4238 1336 4038 
Q 1056 3838 1056 3469 
Q 1056 3159 1242 3001 
Q 1428 2844 1947 2747 
L 2328 2669 
Q 3034 2534 3370 2195 
Q 3706 1856 3706 1288 
Q 3706 609 3251 259 
Q 2797 -91 1919 -91 
Q 1588 -91 1214 -16 
Q 841 59 441 206 
L 441 856 
Q 825 641 1194 531 
Q 1563 422 1919 422 
Q 2459 422 2753 634 
Q 3047 847 3047 1241 
Q 3047 1584 2836 1778 
Q 2625 1972 2144 2069 
L 1759 2144 
Q 1053 2284 737 2584 
Q 422 2884 422 3419 
Q 422 4038 858 4394 
Q 1294 4750 2059 4750 
Q 2388 4750 2728 4690 
Q 3069 4631 3425 4513 
z
" transform="scale(0.015625)"/>
     <path id="DejaVuSans-2d" d="M 313 2009 
L 1997 2009 
L 1997 1497 
L 313 1497 
L 313 2009 
z
" transform="scale(0.015625)"/>
     <path id="DejaVuSans-44" d="M 1259 4147 
L 1259 519 
L 2022 519 
Q 2988 519 3436 956 
Q 3884 1394 3884 2338 
Q 3884 3275 3436 3711 
Q 2988 4147 2022 4147 
L 1259 4147 
z
M 628 4666 
L 1925 4666 
Q 3281 4666 3915 4102 
Q 4550 3538 4550 2338 
Q 4550 1131 3912 565 
Q 3275 0 1925 0 
L 628 0 
L 628 4666 
z
" transform="scale(0.015625)"/>
     <path id="DejaVuSans-7a" d="M 353 3500 
L 3084 3500 
L 3084 2975 
L 922 459 
L 3084 459 
L 3084 0 
L 275 0 
L 275 525 
L 2438 3041 
L 353 3041 
L 353 3500 
z
" transform="scale(0.015625)"/>
     <path id="DejaVuSans-3d" d="M 678 2906 
L 4684 2906 
L 4684 2381 
L 678 2381 
L 678 2906 
z
M 678 1631 
L 4684 1631 
L 4684 1100 
L 678 1100 
L 678 1631 
z
" transform="scale(0.015625)"/>
     <path id="DejaVuSans-25" d="M 4653 2053 
Q 4381 2053 4226 1822 
Q 4072 1591 4072 1178 
Q 4072 772 4226 539 
Q 4381 306 4653 306 
Q 4919 306 5073 539 
Q 5228 772 5228 1178 
Q 5228 1588 5073 1820 
Q 4919 2053 4653 2053 
z
M 4653 2450 
Q 5147 2450 5437 2106 
Q 5728 1763 5728 1178 
Q 5728 594 5436 251 
Q 5144 -91 4653 -91 
Q 4153 -91 3862 251 
Q 3572 594 3572 1178 
Q 3572 1766 3864 2108 
Q 4156 2450 4653 2450 
z
M 1428 4353 
Q 1159 4353 1004 4120 
Q 850 3888 850 3481 
Q 850 3069 1003 2837 
Q 1156 2606 1428 2606 
Q 1700 2606 1854 2837 
Q 2009 3069 2009 3481 
Q 2009 3884 1853 4118 
Q 1697 4353 1428 4353 
z
M 4250 4750 
L 4750 4750 
L 1831 -91 
L 1331 -91 
L 4250 4750 
z
M 1428 4750 
Q 1922 4750 2215 4408 
Q 2509 4066 2509 3481 
Q 2509 2891 2217 2550 
Q 1925 2209 1428 2209 
Q 931 2209 642 2551 
Q 353 2894 353 3481 
Q 353 4063 643 4406 
Q 934 4750 1428 4750 
z
" transform="scale(0.015625)"/>
    </defs>
    <use xlink:href="#DejaVuSans-54"/>
    <use xlink:href="#DejaVuSans-72" x="46.333984"/>
    <use xlink:href="#DejaVuSans-61" x="87.447266"/>
    <use xlink:href="#DejaVuSans-69" x="148.726562"/>
    <use xlink:href="#DejaVuSans-6e" x="176.509766"/>
    <use xlink:href="#DejaVuSans-69" x="239.888672"/>
    <use xlink:href="#DejaVuSans-6e" x="267.671875"/>
    <use xlink:href="#DejaVuSans-67" x="331.050781"/>
    <use xlink:href="#DejaVuSans-20" x="394.527344"/>
    <use xlink:href="#DejaVuSans-56" x="426.314453"/>
    <use xlink:href="#DejaVuSans-53" x="494.722656"/>
    <use xlink:href="#DejaVuSans-2e" x="558.199219"/>
    <use xlink:href="#DejaVuSans-20" x="589.986328"/>
    <use xlink:href="#DejaVuSans-56" x="621.773438"/>
    <use xlink:href="#DejaVuSans-61" x="682.431641"/>
    <use xlink:href="#DejaVuSans-6c" x="743.710938"/>
    <use xlink:href="#DejaVuSans-69" x="771.494141"/>
    <use xlink:href="#DejaVuSans-64" x="799.277344"/>
    <use xlink:href="#DejaVuSans-61" x="862.753906"/>
    <use xlink:href="#DejaVuSans-74" x="924.033203"/>
    <use xlink:href="#DejaVuSans-69" x="963.242188"/>
    <use xlink:href="#DejaVuSans-6f" x="991.025391"/>
    <use xlink:href="#DejaVuSans-6e" x="1052.207031"/>
    <use xlink:href="#DejaVuSans-20" x="1115.585938"/>
    <use xlink:href="#DejaVuSans-4c" x="1147.373047"/>
    <use xlink:href="#DejaVuSans-6f" x="1201.335938"/>
    <use xlink:href="#DejaVuSans-73" x="1262.517578"/>
    <use xlink:href="#DejaVuSans-73" x="1314.617188"/>
    <use xlink:href="#DejaVuSans-20" x="1366.716797"/>
    <use xlink:href="#DejaVuSans-2d" x="1398.503906"/>
    <use xlink:href="#DejaVuSans-20" x="1434.587891"/>
    <use xlink:href="#DejaVuSans-44" x="1466.375"/>
    <use xlink:href="#DejaVuSans-61" x="1543.376953"/>
    <use xlink:href="#DejaVuSans-74" x="1604.65625"/>
    <use xlink:href="#DejaVuSans-61" x="1643.865234"/>
    <use xlink:href="#DejaVuSans-73" x="1705.144531"/>
    <use xlink:href="#DejaVuSans-65" x="1757.244141"/>
    <use xlink:href="#DejaVuSans-74" x="1818.767578"/>
    <use xlink:href="#DejaVuSans-20" x="1857.976562"/>
    <use xlink:href="#DejaVuSans-53" x="1889.763672"/>
    <use xlink:href="#DejaVuSans-69" x="1953.240234"/>
    <use xlink:href="#DejaVuSans-7a" x="1981.023438"/>
    <use xlink:href="#DejaVuSans-65" x="2033.513672"/>
    <use xlink:href="#DejaVuSans-20" x="2095.037109"/>
    <use xlink:href="#DejaVuSans-3d" x="2126.824219"/>
    <use xlink:href="#DejaVuSans-20" x="2210.613281"/>
    <use xlink:href="#DejaVuSans-31" x="2242.400391"/>
    <use xlink:href="#DejaVuSans-30" x="2306.023438"/>
    <use xlink:href="#DejaVuSans-30" x="2369.646484"/>
    <use xlink:href="#DejaVuSans-2e" x="2433.269531"/>
    <use xlink:href="#DejaVuSans-30" x="2465.056641"/>
    <use xlink:href="#DejaVuSans-25" x="2528.679688"/>
   </g>
  </g>
 </g>
 <defs>
  <clipPath id="p8b5edd3d72">
   <rect x="50.14375" y="37.296" width="279" height="202.464"/>
  </clipPath>
 </defs>
</svg>
