<?xml version="1.0" encoding="utf-8" standalone="no"?>
<!DOCTYPE svg PUBLIC "-//W3C//DTD SVG 1.1//EN"
  "http://www.w3.org/Graphics/SVG/1.1/DTD/svg11.dtd">
<svg xmlns:xlink="http://www.w3.org/1999/xlink" width="330.281484pt" height="277.31625pt" viewBox="0 0 330.281484 277.31625" xmlns="http://www.w3.org/2000/svg" version="1.1">
 <metadata>
  <rdf:RDF xmlns:dc="http://purl.org/dc/elements/1.1/" xmlns:cc="http://creativecommons.org/ns#" xmlns:rdf="http://www.w3.org/1999/02/22-rdf-syntax-ns#">
   <cc:Work>
    <dc:type rdf:resource="http://purl.org/dc/dcmitype/StillImage"/>
    <dc:date>2026-06-11T18:08:44.207155</dc:date>
    <dc:format>image/svg+xml</dc:format>
    <dc:creator>
     <cc:Agent>
      <dc:title>Matplotlib v3.8.4, https://matplotlib.org/</dc:title>
     </cc:Agent>
    </dc:creator>
   </cc:Work>
  </rdf:RDF>
 </metadata>
 <defs>
  <style type="text/css">*{stroke-linejoin: round; stroke-linecap: butt}</style>
 </defs>
 <g id="figure_1">
  <g id="patch_1">
   <path d="M 0 277.31625 
L 330.281484 277.31625 
L 330.281484 0 
L 0 0 
z
" style="fill: #ffffff"/>
  </g>
  <g id="axes_1">
   <g id="patch_2">
    <path d="M 43.78125 239.76 
L 322.78125 239.76 
L 322.78125 37.296 
L 43.78125 37.296 
z
" style="fill: #ffffff"/>
   </g>
   <g id="matplotlib.axis_1">
    <g id="xtick_1">
     <g id="line2d_1">
      <path d="M 56.209178 239.76 
L 56.209178 37.296 
" clip-path="url(#pf9a718df21)" style="fill: none; stroke-dasharray: 2.96,1.28; stroke-dashoffset: 0; stroke: #b0b0b0; stroke-opacity: 0.4; stroke-width: 0.8"/>
     </g>
     <g id="line2d_2">
      <defs>
       <path id="m5632cc750e" d="M 0 0 
L 0 3.5 
" style="stroke: #000000; stroke-width: 0.8"/>
      </defs>
      <g>
       <use xlink:href="#m5632cc750e" x="56.209178" y="239.76" style="stroke: #000000; stroke-width: 0.8"/>
      </g>
     </g>
     <g id="text_1">
      <!-- 0 -->
      <g transform="translate(53.027928 254.358437) scale(0.1 -0.1)">
       <defs>
        <path id="DejaVuSans-30" d="M 2034 4250 
Q 1547 4250 1301 3770 
Q 1056 3291 1056 2328 
Q 1056 1369 1301 889 
Q 1547 409 2034 409 
Q 2525 409 2770 889 
Q 3016 1369 3016 2328 
Q 3016 3291 2770 3770 
Q 2525 4250 2034 4250 
z
M 2034 4750 
Q 2819 4750 3233 4129 
Q 3647 3509 3647 2328 
Q 3647 1150 3233 529 
Q 2819 -91 2034 -91 
Q 1250 -91 836 529 
Q 422 1150 422 2328 
Q 422 3509 836 4129 
Q 1250 4750 2034 4750 
z
" transform="scale(0.015625)"/>
       </defs>
       <use xlink:href="#DejaVuSans-30"/>
      </g>
     </g>
    </g>
    <g id="xtick_2">
     <g id="line2d_3">
      <path d="M 106.987229 239.76 
L 106.987229 37.296 
" clip-path="url(#pf9a718df21)" style="fill: none; stroke-dasharray: 2.96,1.28; stroke-dashoffset: 0; stroke: #b0b0b0; stroke-opacity: 0.4; stroke-width: 0.8"/>
     </g>
     <g id="line2d_4">
      <g>
       <use xlink:href="#m5632cc750e" x="106.987229" y="239.76" style="stroke: #000000; stroke-width: 0.8"/>
      </g>
     </g>
     <g id="text_2">
      <!-- 200 -->
      <g transform="translate(97.443479 254.358437) scale(0.1 -0.1)">
       <defs>
        <path id="DejaVuSans-32" d="M 1228 531 
L 3431 531 
L 3431 0 
L 469 0 
L 469 531 
Q 828 903 1448 1529 
Q 2069 2156 2228 2338 
Q 2531 2678 2651 2914 
Q 2772 3150 2772 3378 
Q 2772 3750 2511 3984 
Q 2250 4219 1831 4219 
Q 1534 4219 1204 4116 
Q 875 4013 500 3803 
L 500 4441 
Q 881 4594 1212 4672 
Q 1544 4750 1819 4750 
Q 2544 4750 2975 4387 
Q 3406 4025 3406 3419 
Q 3406 3131 3298 2873 
Q 3191 2616 2906 2266 
Q 2828 2175 2409 1742 
Q 1991 1309 1228 531 
z
" transform="scale(0.015625)"/>
       </defs>
       <use xlink:href="#DejaVuSans-32"/>
       <use xlink:href="#DejaVuSans-30" x="63.623047"/>
       <use xlink:href="#DejaVuSans-30" x="127.246094"/>
      </g>
     </g>
    </g>
    <g id="xtick_3">
     <g id="line2d_5">
      <path d="M 157.765279 239.76 
L 157.765279 37.296 
" clip-path="url(#pf9a718df21)" style="fill: none; stroke-dasharray: 2.96,1.28; stroke-dashoffset: 0; stroke: #b0b0b0; stroke-opacity: 0.4; stroke-width: 0.8"/>
     </g>
     <g id="line2d_6">
      <g>
       <use xlink:href="#m5632cc750e" x="157.765279" y="239.76" style="stroke: #000000; stroke-width: 0.8"/>
      </g>
     </g>
     <g id="text_3">
      <!-- 400 -->
      <g transform="translate(148.221529 254.358437) scale(0.1 -0.1)">
       <defs>
        <path id="DejaVuSans-34" d="M 2419 4116 
L 825 1625 
L 2419 1625 
L 2419 4116 
z
M 2253 4666 
L 3047 4666 
L 3047 1625 
L 3713 1625 
L 3713 1100 
L 3047 1100 
L 3047 0 
L 2419 0 
L 2419 1100 
L 313 1100 
L 313 1709 
L 2253 4666 
z
" transform="scale(0.015625)"/>
       </defs>
       <use xlink:href="#DejaVuSans-34"/>
       <use xlink:href="#DejaVuSans-30" x="63.623047"/>
       <use xlink:href="#DejaVuSans-30" x="127.246094"/>
      </g>
     </g>
    </g>
    <g id="xtick_4">
     <g id="line2d_7">
      <path d="M 208.54333 239.76 
L 208.54333 37.296 
" clip-path="url(#pf9a718df21)" style="fill: none; stroke-dasharray: 2.96,1.28; stroke-dashoffset: 0; stroke: #b0b0b0; stroke-opacity: 0.4; stroke-width: 0.8"/>
     </g>
     <g id="line2d_8">
      <g>
       <use xlink:href="#m5632cc750e" x="208.54333" y="239.76" style="stroke: #000000; stroke-width: 0.8"/>
      </g>
     </g>
     <g id="text_4">
      <!-- 600 -->
      <g transform="translate(198.99958 254.358437) scale(0.1 -0.1)">
       <defs>
        <path id="DejaVuSans-36" d="M 2113 2584 
Q 1688 2584 1439 2293 
Q 1191 2003 1191 1497 
Q 1191 994 1439 701 
Q 1688 409 2113 409 
Q 2538 409 2786 701 
Q 3034 994 3034 1497 
Q 3034 2003 2786 2293 
Q 2538 2584 2113 2584 
z
M 3366 4563 
L 3366 3988 
Q 3128 4100 2886 4159 
Q 2644 4219 2406 4219 
Q 1781 4219 1451 3797 
Q 1122 3375 1075 2522 
Q 1259 2794 1537 2939 
Q 1816 3084 2150 3084 
Q 2853 3084 3261 2657 
Q 3669 2231 3669 1497 
Q 3669 778 3244 343 
Q 2819 -91 2113 -91 
Q 1303 -91 875 529 
Q 447 1150 447 2328 
Q 447 3434 972 4092 
Q 1497 4750 2381 4750 
Q 2619 4750 2861 4703 
Q 3103 4656 3366 4563 
z
" transform="scale(0.015625)"/>
       </defs>
       <use xlink:href="#DejaVuSans-36"/>
       <use xlink:href="#DejaVuSans-30" x="63.623047"/>
       <use xlink:href="#DejaVuSans-30" x="127.246094"/>
      </g>
     </g>
    </g>
    <g id="xtick_5">
     <g id="line2d_9">
      <path d="M 259.321381 239.76 
L 259.321381 37.296 
" clip-path="url(#pf9a718df21)" style="fill: none; stroke-dasharray: 2.96,1.28; stroke-dashoffset: 0; stroke: #b0b0b0; stroke-opacity: 0.4; stroke-width: 0.8"/>
     </g>
     <g id="line2d_10">
      <g>
       <use xlink:href="#m5632cc750e" x="259.321381" y="239.76" style="stroke: #000000; stroke-width: 0.8"/>
      </g>
     </g>
     <g id="text_5">
      <!-- 800 -->
      <g transform="translate(249.777631 254.358437) scale(0.1 -0.1)">
       <defs>
        <path id="DejaVuSans-38" d="M 2034 2216 
Q 1584 2216 1326 1975 
Q 1069 1734 1069 1313 
Q 1069 891 1326 650 
Q 1584 409 2034 409 
Q 2484 409 2743 651 
Q 3003 894 3003 1313 
Q 3003 1734 2745 1975 
Q 2488 2216 2034 2216 
z
M 1403 2484 
Q 997 2584 770 2862 
Q 544 3141 544 3541 
Q 544 4100 942 4425 
Q 1341 4750 2034 4750 
Q 2731 4750 3128 4425 
Q 3525 4100 3525 3541 
Q 3525 3141 3298 2862 
Q 3072 2584 2669 2484 
Q 3125 2378 3379 2068 
Q 3634 1759 3634 1313 
Q 3634 634 3220 271 
Q 2806 -91 2034 -91 
Q 1263 -91 848 271 
Q 434 634 434 1313 
Q 434 1759 690 2068 
Q 947 2378 1403 2484 
z
M 1172 3481 
Q 1172 3119 1398 2916 
Q 1625 2713 2034 2713 
Q 2441 2713 2670 2916 
Q 2900 3119 2900 3481 
Q 2900 3844 2670 4047 
Q 2441 4250 2034 4250 
Q 1625 4250 1398 4047 
Q 1172 3844 1172 3481 
z
" transform="scale(0.015625)"/>
       </defs>
       <use xlink:href="#DejaVuSans-38"/>
       <use xlink:href="#DejaVuSans-30" x="63.623047"/>
       <use xlink:href="#DejaVuSans-30" x="127.246094"/>
      </g>
     </g>
    </g>
    <g id="xtick_6">
     <g id="line2d_11">
      <path d="M 310.099432 239.76 
L 310.099432 37.296 
" clip-path="url(#pf9a718df21)" style="fill: none; stroke-dasharray: 2.96,1.28; stroke-dashoffset: 0; stroke: #b0b0b0; stroke-opacity: 0.4; stroke-width: 0.8"/>
     </g>
     <g id="line2d_12">
      <g>
       <use xlink:href="#m5632cc750e" x="310.099432" y="239.76" style="stroke: #000000; stroke-width: 0.8"/>
      </g>
     </g>
     <g id="text_6">
      <!-- 1000 -->
      <g transform="translate(297.374432 254.358437) scale(0.1 -0.1)">
       <defs>
        <path id="DejaVuSans-31" d="M 794 531 
L 1825 531 
L 1825 4091 
L 703 3866 
L 703 4441 
L 1819 4666 
L 2450 4666 
L 2450 531 
L 3481 531 
L 3481 0 
L 794 0 
L 794 531 
z
" transform="scale(0.015625)"/>
       </defs>
       <use xlink:href="#DejaVuSans-31"/>
       <use xlink:href="#DejaVuSans-30" x="63.623047"/>
       <use xlink:href="#DejaVuSans-30" x="127.246094"/>
       <use xlink:href="#DejaVuSans-30" x="190.869141"/>
      </g>
     </g>
    </g>
    <g id="text_7">
     <!-- Epochs -->
     <g transform="translate(165.365625 268.036562) scale(0.1 -0.1)">
      <defs>
       <path id="DejaVuSans-45" d="M 628 4666 
L 3578 4666 
L 3578 4134 
L 1259 4134 
L 1259 2753 
L 3481 2753 
L 3481 2222 
L 1259 2222 
L 1259 531 
L 3634 531 
L 3634 0 
L 628 0 
L 628 4666 
z
" transform="scale(0.015625)"/>
       <path id="DejaVuSans-70" d="M 1159 525 
L 1159 -1331 
L 581 -1331 
L 581 3500 
L 1159 3500 
L 1159 2969 
Q 1341 3281 1617 3432 
Q 1894 3584 2278 3584 
Q 2916 3584 3314 3078 
Q 3713 2572 3713 1747 
Q 3713 922 3314 415 
Q 2916 -91 2278 -91 
Q 1894 -91 1617 61 
Q 1341 213 1159 525 
z
M 3116 1747 
Q 3116 2381 2855 2742 
Q 2594 3103 2138 3103 
Q 1681 3103 1420 2742 
Q 1159 2381 1159 1747 
Q 1159 1113 1420 752 
Q 1681 391 2138 391 
Q 2594 391 2855 752 
Q 3116 1113 3116 1747 
z
" transform="scale(0.015625)"/>
       <path id="DejaVuSans-6f" d="M 1959 3097 
Q 1497 3097 1228 2736 
Q 959 2375 959 1747 
Q 959 1119 1226 758 
Q 1494 397 1959 397 
Q 2419 397 2687 759 
Q 2956 1122 2956 1747 
Q 2956 2369 2687 2733 
Q 2419 3097 1959 3097 
z
M 1959 3584 
Q 2709 3584 3137 3096 
Q 3566 2609 3566 1747 
Q 3566 888 3137 398 
Q 2709 -91 1959 -91 
Q 1206 -91 779 398 
Q 353 888 353 1747 
Q 353 2609 779 3096 
Q 1206 3584 1959 3584 
z
" transform="scale(0.015625)"/>
       <path id="DejaVuSans-63" d="M 3122 3366 
L 3122 2828 
Q 2878 2963 2633 3030 
Q 2388 3097 2138 3097 
Q 1578 3097 1268 2742 
Q 959 2388 959 1747 
Q 959 1106 1268 751 
Q 1578 397 2138 397 
Q 2388 397 2633 464 
Q 2878 531 3122 666 
L 3122 134 
Q 2881 22 2623 -34 
Q 2366 -91 2075 -91 
Q 1284 -91 818 406 
Q 353 903 353 1747 
Q 353 2603 823 3093 
Q 1294 3584 2113 3584 
Q 2378 3584 2631 3529 
Q 2884 3475 3122 3366 
z
" transform="scale(0.015625)"/>
       <path id="DejaVuSans-68" d="M 3513 2113 
L 3513 0 
L 2938 0 
L 2938 2094 
Q 2938 2591 2744 2837 
Q 2550 3084 2163 3084 
Q 1697 3084 1428 2787 
Q 1159 2491 1159 1978 
L 1159 0 
L 581 0 
L 581 4863 
L 1159 4863 
L 1159 2956 
Q 1366 3272 1645 3428 
Q 1925 3584 2291 3584 
Q 2894 3584 3203 3211 
Q 3513 2838 3513 2113 
z
" transform="scale(0.015625)"/>
       <path id="DejaVuSans-73" d="M 2834 3397 
L 2834 2853 
Q 2591 2978 2328 3040 
Q 2066 3103 1784 3103 
Q 1356 3103 1142 2972 
Q 928 2841 928 2578 
Q 928 2378 1081 2264 
Q 1234 2150 1697 2047 
L 1894 2003 
Q 2506 1872 2764 1633 
Q 3022 1394 3022 966 
Q 3022 478 2636 193 
Q 2250 -91 1575 -91 
Q 1294 -91 989 -36 
Q 684 19 347 128 
L 347 722 
Q 666 556 975 473 
Q 1284 391 1588 391 
Q 1994 391 2212 530 
Q 2431 669 2431 922 
Q 2431 1156 2273 1281 
Q 2116 1406 1581 1522 
L 1381 1569 
Q 847 1681 609 1914 
Q 372 2147 372 2553 
Q 372 3047 722 3315 
Q 1072 3584 1716 3584 
Q 2034 3584 2315 3537 
Q 2597 3491 2834 3397 
z
" transform="scale(0.015625)"/>
      </defs>
      <use xlink:href="#DejaVuSans-45"/>
      <use xlink:href="#DejaVuSans-70" x="63.183594"/>
      <use xlink:href="#DejaVuSans-6f" x="126.660156"/>
      <use xlink:href="#DejaVuSans-63" x="187.841797"/>
      <use xlink:href="#DejaVuSans-68" x="242.822266"/>
      <use xlink:href="#DejaVuSans-73" x="306.201172"/>
     </g>
    </g>
   </g>
   <g id="matplotlib.axis_2">
    <g id="ytick_1">
     <g id="line2d_13">
      <path d="M 43.78125 210.365822 
L 322.78125 210.365822 
" clip-path="url(#pf9a718df21)" style="fill: none; stroke-dasharray: 2.96,1.28; stroke-dashoffset: 0; stroke: #b0b0b0; stroke-opacity: 0.4; stroke-width: 0.8"/>
     </g>
     <g id="line2d_14">
      <defs>
       <path id="mc80ed48a75" d="M 0 0 
L -3.5 0 
" style="stroke: #000000; stroke-width: 0.8"/>
      </defs>
      <g>
       <use xlink:href="#mc80ed48a75" x="43.78125" y="210.365822" style="stroke: #000000; stroke-width: 0.8"/>
      </g>
     </g>
     <g id="text_8">
      <!-- 0.8 -->
      <g transform="translate(20.878125 214.165041) scale(0.1 -0.1)">
       <defs>
        <path id="DejaVuSans-2e" d="M 684 794 
L 1344 794 
L 1344 0 
L 684 0 
L 684 794 
z
" transform="scale(0.015625)"/>
       </defs>
       <use xlink:href="#DejaVuSans-30"/>
       <use xlink:href="#DejaVuSans-2e" x="63.623047"/>
       <use xlink:href="#DejaVuSans-38" x="95.410156"/>
      </g>
     </g>
    </g>
    <g id="ytick_2">
     <g id="line2d_15">
      <path d="M 43.78125 180.726499 
L 322.78125 180.726499 
" clip-path="url(#pf9a718df21)" style="fill: none; stroke-dasharray: 2.96,1.28; stroke-dashoffset: 0; stroke: #b0b0b0; stroke-opacity: 0.4; stroke-width: 0.8"/>
     </g>
     <g id="line2d_16">
      <g>
       <use xlink:href="#mc80ed48a75" x="43.78125" y="180.726499" style="stroke: #000000; stroke-width: 0.8"/>
      </g>
     </g>
     <g id="text_9">
      <!-- 1.0 -->
      <g transform="translate(20.878125 184.525717) scale(0.1 -0.1)">
       <use xlink:href="#DejaVuSans-31"/>
       <use xlink:href="#DejaVuSans-2e" x="63.623047"/>
       <use xlink:href="#DejaVuSans-30" x="95.410156"/>
      </g>
     </g>
    </g>
    <g id="ytick_3">
     <g id="line2d_17">
      <path d="M 43.78125 151.087175 
L 322.78125 151.087175 
" clip-path="url(#pf9a718df21)" style="fill: none; stroke-dasharray: 2.96,1.28; stroke-dashoffset: 0; stroke: #b0b0b0; stroke-opacity: 0.4; stroke-width: 0.8"/>
     </g>
     <g id="line2d_18">
      <g>
       <use xlink:href="#mc80ed48a75" x="43.78125" y="151.087175" style="stroke: #000000; stroke-width: 0.8"/>
      </g>
     </g>
     <g id="text_10">
      <!-- 1.2 -->
      <g transform="translate(20.878125 154.886394) scale(0.1 -0.1)">
       <use xlink:href="#DejaVuSans-31"/>
       <use xlink:href="#DejaVuSans-2e" x="63.623047"/>
       <use xlink:href="#DejaVuSans-32" x="95.410156"/>
      </g>
     </g>
    </g>
    <g id="ytick_4">
     <g id="line2d_19">
      <path d="M 43.78125 121.447852 
L 322.78125 121.447852 
" clip-path="url(#pf9a718df21)" style="fill: none; stroke-dasharray: 2.96,1.28; stroke-dashoffset: 0; stroke: #b0b0b0; stroke-opacity: 0.4; stroke-width: 0.8"/>
     </g>
     <g id="line2d_20">
      <g>
       <use xlink:href="#mc80ed48a75" x="43.78125" y="121.447852" style="stroke: #000000; stroke-width: 0.8"/>
      </g>
     </g>
     <g id="text_11">
      <!-- 1.4 -->
      <g transform="translate(20.878125 125.247071) scale(0.1 -0.1)">
       <use xlink:href="#DejaVuSans-31"/>
       <use xlink:href="#DejaVuSans-2e" x="63.623047"/>
       <use xlink:href="#DejaVuSans-34" x="95.410156"/>
      </g>
     </g>
    </g>
    <g id="ytick_5">
     <g id="line2d_21">
      <path d="M 43.78125 91.808528 
L 322.78125 91.808528 
" clip-path="url(#pf9a718df21)" style="fill: none; stroke-dasharray: 2.96,1.28; stroke-dashoffset: 0; stroke: #b0b0b0; stroke-opacity: 0.4; stroke-width: 0.8"/>
     </g>
     <g id="line2d_22">
      <g>
       <use xlink:href="#mc80ed48a75" x="43.78125" y="91.808528" style="stroke: #000000; stroke-width: 0.8"/>
      </g>
     </g>
     <g id="text_12">
      <!-- 1.6 -->
      <g transform="translate(20.878125 95.607747) scale(0.1 -0.1)">
       <use xlink:href="#DejaVuSans-31"/>
       <use xlink:href="#DejaVuSans-2e" x="63.623047"/>
       <use xlink:href="#DejaVuSans-36" x="95.410156"/>
      </g>
     </g>
    </g>
    <g id="ytick_6">
     <g id="line2d_23">
      <path d="M 43.78125 62.169205 
L 322.78125 62.169205 
" clip-path="url(#pf9a718df21)" style="fill: none; stroke-dasharray: 2.96,1.28; stroke-dashoffset: 0; stroke: #b0b0b0; stroke-opacity: 0.4; stroke-width: 0.8"/>
     </g>
     <g id="line2d_24">
      <g>
       <use xlink:href="#mc80ed48a75" x="43.78125" y="62.169205" style="stroke: #000000; stroke-width: 0.8"/>
      </g>
     </g>
     <g id="text_13">
      <!-- 1.8 -->
      <g transform="translate(20.878125 65.968424) scale(0.1 -0.1)">
       <use xlink:href="#DejaVuSans-31"/>
       <use xlink:href="#DejaVuSans-2e" x="63.623047"/>
       <use xlink:href="#DejaVuSans-38" x="95.410156"/>
      </g>
     </g>
    </g>
    <g id="text_14">
     <!-- Loss -->
     <g transform="translate(14.798438 149.495187) rotate(-90) scale(0.1 -0.1)">
      <defs>
       <path id="DejaVuSans-4c" d="M 628 4666 
L 1259 4666 
L 1259 531 
L 3531 531 
L 3531 0 
L 628 0 
L 628 4666 
z
" transform="scale(0.015625)"/>
      </defs>
      <use xlink:href="#DejaVuSans-4c"/>
      <use xlink:href="#DejaVuSans-6f" x="53.962891"/>
      <use xlink:href="#DejaVuSans-73" x="115.144531"/>
      <use xlink:href="#DejaVuSans-73" x="167.244141"/>
     </g>
    </g>
   </g>
   <g id="line2d_25">
    <path d="M 56.463068 212.252637 
L 56.716958 224.848719 
L 56.970849 225.94114 
L 58.49419 226.244516 
L 58.74808 225.98618 
L 59.255861 226.274019 
L 59.509751 226.165044 
L 59.763641 226.179292 
L 60.017532 226.067755 
L 60.525312 226.237202 
L 60.779202 225.968196 
L 61.033093 226.210049 
L 61.540873 226.139136 
L 63.825886 226.210561 
L 64.079776 226.052173 
L 65.095337 226.183426 
L 65.603117 226.125056 
L 66.872569 226.22745 
L 67.634239 226.059355 
L 68.14202 226.176695 
L 68.903691 226.173798 
L 69.919252 226.18112 
L 70.173142 226.258437 
L 70.427032 226.067331 
L 70.680922 226.193345 
L 70.934813 226.083125 
L 71.442593 226.20997 
L 71.696483 226.058454 
L 72.204264 226.133792 
L 74.997057 226.111638 
L 75.504837 226.152156 
L 76.520398 226.120463 
L 77.028179 226.150319 
L 79.567081 226.288797 
L 80.328752 226.31171 
L 80.836533 226.290537 
L 81.090423 226.12881 
L 81.344313 226.166422 
L 81.598203 226.33783 
L 82.359874 226.36463 
L 82.613764 226.237776 
L 82.867655 226.377995 
L 83.121545 226.365681 
L 83.375435 226.220039 
L 86.168228 226.330967 
L 86.422118 226.607782 
L 86.676008 226.104634 
L 86.929899 226.443652 
L 87.183789 226.100526 
L 87.691569 226.472749 
L 87.94546 226.302135 
L 88.19935 226.487915 
L 88.45324 226.189945 
L 88.961021 226.367439 
L 89.214911 226.391642 
L 89.468801 226.262774 
L 89.976582 226.285114 
L 90.230472 226.501704 
L 90.484362 226.340295 
L 90.738252 226.657018 
L 90.992143 226.524785 
L 91.246033 226.643963 
L 91.499923 226.322849 
L 92.007704 226.597403 
L 92.261594 226.504972 
L 92.769374 226.800867 
L 93.023265 226.522215 
L 93.277155 226.62233 
L 93.531045 226.50287 
L 93.784936 226.664765 
L 94.038826 226.621208 
L 94.292716 226.792043 
L 94.546606 226.769827 
L 94.800497 226.492314 
L 95.054387 226.767177 
L 95.562167 226.729283 
L 95.816058 226.787317 
L 96.069948 226.639696 
L 96.323838 226.693111 
L 96.831619 227.043789 
L 97.339399 226.804736 
L 98.10107 227.009781 
L 98.35496 226.946456 
L 98.60885 227.191021 
L 99.116631 227.193229 
L 99.370521 227.14613 
L 99.624411 227.587747 
L 99.878302 227.021176 
L 100.132192 227.297373 
L 100.386082 227.016159 
L 101.147753 227.326266 
L 101.401643 226.722631 
L 101.655533 227.195075 
L 101.909424 227.389441 
L 102.163314 227.126971 
L 102.417204 227.577509 
L 102.671094 227.226062 
L 102.924985 227.501967 
L 103.178875 227.191224 
L 104.194436 227.496641 
L 104.448326 226.820671 
L 104.702216 227.785769 
L 104.956107 227.718734 
L 105.463887 227.254867 
L 105.717777 227.668032 
L 105.971668 227.120823 
L 106.733338 228.009691 
L 106.987229 227.139832 
L 107.495009 227.868563 
L 107.748899 228.333004 
L 108.00279 227.714344 
L 108.25668 227.931235 
L 108.51057 227.780125 
L 108.76446 228.155757 
L 109.018351 227.886459 
L 109.272241 228.374679 
L 109.780021 227.609185 
L 110.033912 228.542051 
L 110.287802 228.023824 
L 110.541692 228.404456 
L 110.795583 227.864067 
L 111.049473 228.296108 
L 111.303363 228.094296 
L 111.557253 228.529826 
L 111.811144 228.030326 
L 112.065034 227.793145 
L 112.318924 228.0898 
L 112.572814 228.180676 
L 112.826705 228.653588 
L 113.080595 228.320496 
L 113.334485 227.322927 
L 114.096156 228.59081 
L 114.350046 228.34046 
L 114.603936 228.700218 
L 114.857827 228.524075 
L 115.365607 227.505951 
L 115.619497 227.70067 
L 115.873388 227.673499 
L 116.127278 228.621108 
L 116.635058 227.924663 
L 117.396729 228.141924 
L 117.650619 228.951903 
L 117.90451 228.607655 
L 118.41229 228.840516 
L 118.66618 228.895256 
L 118.920071 229.408244 
L 119.173961 228.49353 
L 119.681741 229.032161 
L 119.935632 228.316716 
L 120.189522 229.187405 
L 120.443412 228.974975 
L 120.697302 229.016915 
L 120.951193 228.857723 
L 121.205083 229.126279 
L 121.458973 228.490297 
L 121.712863 228.958934 
L 121.966754 228.803355 
L 122.220644 228.780327 
L 122.474534 228.47294 
L 122.728424 228.505367 
L 123.236205 227.977521 
L 123.743985 228.630869 
L 123.997876 228.214895 
L 124.251766 228.445469 
L 124.759546 228.417353 
L 125.267327 229.131032 
L 125.521217 228.339082 
L 125.775107 228.457491 
L 126.028998 228.042118 
L 126.282888 228.598663 
L 126.536778 227.892952 
L 126.790669 227.619317 
L 127.044559 228.131961 
L 127.298449 228.031677 
L 127.552339 228.216538 
L 127.80623 228.020803 
L 128.06012 227.980241 
L 128.31401 228.134964 
L 128.5679 227.86768 
L 128.821791 228.126793 
L 129.075681 228.999426 
L 129.329571 228.066533 
L 129.583461 228.867793 
L 129.837352 228.789928 
L 130.091242 227.816792 
L 130.599022 228.361297 
L 130.852913 228.26558 
L 131.106803 228.582975 
L 131.360693 228.641036 
L 131.614583 229.080117 
L 131.868474 228.844889 
L 132.122364 228.035493 
L 132.376254 229.183925 
L 132.630144 228.825297 
L 132.884035 229.187458 
L 133.137925 228.847786 
L 133.391815 229.128196 
L 133.645705 228.884947 
L 133.899596 229.725542 
L 134.153486 229.625082 
L 134.661266 228.423527 
L 134.915157 228.603124 
L 135.169047 229.034131 
L 135.422937 229.08297 
L 135.676827 229.513147 
L 135.930718 229.641953 
L 136.438498 229.460157 
L 136.692388 229.741636 
L 136.946279 229.124981 
L 137.200169 229.221245 
L 137.454059 229.116837 
L 137.707949 229.439867 
L 137.96184 229.386921 
L 138.21573 228.397178 
L 138.46962 229.095425 
L 138.72351 228.889867 
L 138.977401 229.620064 
L 139.231291 229.340405 
L 139.485181 229.744083 
L 139.739071 229.742228 
L 140.246852 229.931249 
L 140.754632 229.306335 
L 141.008523 229.712345 
L 141.516303 228.837628 
L 141.770193 229.17162 
L 142.024084 228.981097 
L 142.277974 229.225026 
L 142.531864 228.977228 
L 142.785755 229.699378 
L 143.039645 229.632961 
L 143.293535 229.175683 
L 143.547425 228.383292 
L 143.801316 229.08918 
L 144.055206 228.728979 
L 144.309096 229.404852 
L 144.816877 228.785061 
L 145.070767 228.896775 
L 145.324657 228.838193 
L 145.578547 229.023408 
L 145.832438 228.995415 
L 146.340218 229.235997 
L 146.594108 229.110768 
L 146.847999 229.710569 
L 147.101889 229.619216 
L 147.355779 229.302908 
L 147.609669 229.865071 
L 147.86356 229.287273 
L 148.11745 229.406557 
L 148.37134 229.776244 
L 148.62523 229.026809 
L 148.879121 229.633597 
L 149.386901 229.10137 
L 149.640791 229.317465 
L 149.894682 229.123541 
L 150.148572 229.561385 
L 150.402462 229.209771 
L 150.910243 229.037444 
L 151.164133 229.485526 
L 151.418023 228.935058 
L 151.671913 229.800324 
L 152.433584 229.166488 
L 152.687474 229.589413 
L 153.195255 229.859109 
L 153.449145 229.586083 
L 153.703035 229.616513 
L 153.956926 229.494862 
L 154.210816 229.745346 
L 154.464706 229.291178 
L 154.718596 229.120794 
L 155.226377 229.296292 
L 155.480267 229.974073 
L 155.988048 229.262796 
L 156.241938 229.258318 
L 156.749718 229.527881 
L 157.003609 229.076566 
L 157.511389 229.614791 
L 157.765279 229.481542 
L 158.01917 229.77711 
L 158.27306 229.412281 
L 158.52695 229.42516 
L 158.78084 229.858066 
L 159.034731 229.595287 
L 159.288621 229.771854 
L 159.542511 229.751158 
L 159.796402 229.589095 
L 160.050292 229.640443 
L 160.304182 229.199436 
L 160.558072 229.058794 
L 160.811963 229.689582 
L 161.065853 229.25618 
L 161.319743 229.438171 
L 161.573633 229.82405 
L 161.827524 229.883877 
L 162.081414 229.767632 
L 162.335304 229.411592 
L 162.589194 229.442164 
L 162.843085 229.91035 
L 163.096975 229.977588 
L 163.350865 229.321175 
L 163.604755 229.991563 
L 163.858646 229.814121 
L 164.112536 229.404826 
L 164.366426 228.729235 
L 164.620316 229.575404 
L 164.874207 229.340679 
L 165.128097 229.65061 
L 165.381987 229.356844 
L 165.635877 228.834006 
L 166.143658 229.656537 
L 166.397548 229.411327 
L 166.651438 229.534789 
L 166.905329 229.517096 
L 167.159219 229.25013 
L 167.413109 229.419533 
L 168.17478 229.527254 
L 168.42867 229.323304 
L 168.68256 229.625276 
L 168.936451 229.453258 
L 169.190341 229.860548 
L 169.444231 229.083058 
L 169.698121 229.059182 
L 169.952012 229.635805 
L 170.205902 229.389306 
L 170.967573 229.359962 
L 171.221463 229.743067 
L 171.475353 229.65833 
L 171.729243 230.301988 
L 172.237024 229.664434 
L 172.490914 230.020756 
L 172.744804 229.607353 
L 172.998695 229.504853 
L 173.252585 228.967865 
L 173.506475 229.192882 
L 173.760365 229.724579 
L 174.014256 229.732582 
L 174.268146 229.122225 
L 174.775926 229.959577 
L 175.029817 229.224399 
L 175.537597 229.354255 
L 175.791488 229.526874 
L 176.299268 229.600781 
L 176.807049 229.951 
L 177.060939 229.69149 
L 177.568719 229.854021 
L 177.82261 229.472647 
L 178.0765 230.041108 
L 178.33039 229.391682 
L 178.58428 229.654205 
L 178.838171 229.613166 
L 179.092061 229.967298 
L 179.345951 229.714164 
L 179.599841 229.661121 
L 179.853732 229.195293 
L 180.107622 228.996555 
L 180.615402 229.664584 
L 180.869293 229.648534 
L 181.123183 229.962934 
L 181.630963 229.43417 
L 181.884854 229.57929 
L 182.138744 229.101944 
L 182.392634 229.360218 
L 182.646524 229.177671 
L 182.900415 229.623836 
L 183.154305 229.132825 
L 183.408195 228.942628 
L 183.662085 229.567975 
L 183.915976 229.059977 
L 184.169866 229.277937 
L 184.423756 229.051727 
L 184.677646 229.438825 
L 184.931537 229.418632 
L 185.185427 229.681331 
L 185.693207 229.006024 
L 185.947098 229.496762 
L 186.200988 229.553762 
L 186.454878 229.220035 
L 186.708768 229.519428 
L 186.962659 230.345394 
L 187.216549 229.269845 
L 187.470439 229.851733 
L 187.724329 230.050286 
L 187.97822 229.586233 
L 188.23211 229.869276 
L 188.486 229.853968 
L 188.73989 230.153201 
L 188.993781 230.022161 
L 189.247671 230.17524 
L 189.501561 229.399305 
L 189.755451 230.066627 
L 190.263232 229.528367 
L 190.517122 229.012455 
L 190.771012 229.663285 
L 191.786574 229.495463 
L 192.040464 229.927115 
L 192.294354 229.525929 
L 192.548244 229.690474 
L 192.802135 229.341085 
L 193.056025 229.500516 
L 193.309915 229.137957 
L 193.563805 229.676827 
L 193.817696 228.780274 
L 194.071586 228.425983 
L 194.325476 229.942918 
L 194.579366 229.211617 
L 194.833257 229.701206 
L 195.087147 229.323807 
L 195.341037 229.619711 
L 195.594927 229.500657 
L 195.848818 229.729331 
L 196.102708 229.370703 
L 196.356598 230.305636 
L 196.610488 229.690544 
L 196.864379 230.088048 
L 197.118269 229.540133 
L 197.372159 229.743888 
L 197.626049 229.728942 
L 197.87994 229.203199 
L 198.13383 229.675351 
L 198.38772 229.681932 
L 198.64161 229.343541 
L 198.895501 229.425478 
L 199.149391 229.732379 
L 199.403281 229.739869 
L 199.657171 230.025173 
L 199.911062 229.322385 
L 200.164952 229.564062 
L 200.418842 230.08818 
L 200.672732 229.241959 
L 200.926623 230.069295 
L 201.180513 230.085901 
L 201.434403 230.390373 
L 201.942184 229.5238 
L 202.196074 229.798787 
L 202.449964 229.45816 
L 202.957745 229.944879 
L 203.211635 229.590579 
L 203.465525 229.431785 
L 203.973306 230.087005 
L 204.227196 229.725966 
L 204.481086 229.694405 
L 204.734976 230.138856 
L 204.988867 230.036206 
L 205.242757 230.08508 
L 205.750537 229.157142 
L 206.004428 230.080266 
L 206.258318 229.378008 
L 206.766098 229.448691 
L 207.019989 229.251207 
L 207.527769 229.955355 
L 207.78166 230.14193 
L 208.03555 230.109053 
L 208.28944 229.506142 
L 208.54333 229.693292 
L 208.797221 230.26548 
L 209.051111 229.92784 
L 209.305001 230.557091 
L 209.812782 229.923458 
L 210.066672 229.897295 
L 210.320562 229.641326 
L 210.574452 229.998709 
L 210.828343 230.038652 
L 211.336123 230.353892 
L 211.590013 229.747227 
L 211.843904 229.997808 
L 212.097794 229.681367 
L 212.351684 230.078949 
L 212.605574 230.079638 
L 212.859465 229.845073 
L 213.367245 230.005802 
L 213.621135 229.774981 
L 213.875026 230.012312 
L 214.382806 229.03899 
L 214.636696 229.837935 
L 214.890587 229.146684 
L 215.144477 229.881536 
L 215.652257 229.625435 
L 215.906148 229.738147 
L 216.160038 228.618971 
L 216.413928 229.584396 
L 216.667818 230.046894 
L 216.921709 230.160082 
L 217.175599 229.932407 
L 217.429489 230.360967 
L 217.683379 230.252487 
L 217.93727 229.424241 
L 218.19116 229.870813 
L 218.44505 229.851097 
L 218.69894 230.026383 
L 219.206721 229.731062 
L 219.460611 229.063007 
L 219.968392 229.874054 
L 220.222282 229.210557 
L 220.476172 229.933263 
L 220.730062 230.156655 
L 221.237843 229.693733 
L 221.491733 229.519578 
L 222.253404 230.075549 
L 222.507294 229.784918 
L 222.761184 229.994106 
L 223.015075 229.750522 
L 223.268965 229.780599 
L 223.522855 229.233541 
L 223.776745 229.576773 
L 224.030636 229.508218 
L 224.284526 229.603317 
L 224.538416 230.320811 
L 224.792307 229.57407 
L 225.046197 230.158634 
L 225.300087 229.48966 
L 225.553977 229.511213 
L 226.315648 229.910447 
L 226.569538 229.664451 
L 226.823429 229.910262 
L 227.077319 229.528826 
L 227.331209 229.711294 
L 227.585099 229.337181 
L 227.83899 230.142584 
L 228.09288 229.398881 
L 228.34677 229.675387 
L 228.60066 229.700005 
L 228.854551 229.969435 
L 229.108441 229.503148 
L 229.362331 229.993735 
L 229.616221 229.174765 
L 230.124002 229.055031 
L 230.631782 229.587814 
L 230.885673 229.517599 
L 231.139563 229.218781 
L 231.393453 229.207536 
L 231.647343 229.524471 
L 231.901234 229.489987 
L 232.155124 229.725427 
L 232.409014 229.48239 
L 232.662904 229.940816 
L 232.916795 229.450396 
L 233.170685 229.845638 
L 233.424575 229.158732 
L 233.678465 229.775043 
L 233.932356 229.929403 
L 234.186246 229.50624 
L 234.440136 229.375862 
L 234.694026 229.597098 
L 235.201807 229.567569 
L 235.455697 229.027109 
L 235.709587 230.006217 
L 235.963478 229.572003 
L 236.217368 229.6039 
L 237.486819 229.309913 
L 237.740709 229.265738 
L 237.9946 229.799158 
L 238.24849 229.47217 
L 238.50238 229.413385 
L 238.75627 228.969402 
L 239.010161 230.044253 
L 239.264051 229.532633 
L 239.517941 229.939314 
L 239.771831 230.128133 
L 240.279612 229.594148 
L 241.802954 229.449822 
L 242.056844 229.735832 
L 242.564624 229.036887 
L 242.818515 229.33628 
L 243.072405 229.382999 
L 243.326295 229.247595 
L 243.580185 230.031621 
L 243.834076 229.766713 
L 244.087966 229.702248 
L 244.341856 229.12741 
L 244.849637 229.976237 
L 245.103527 229.028655 
L 245.357417 229.595208 
L 246.372978 229.680263 
L 246.626868 229.504288 
L 246.880759 229.522316 
L 247.134649 228.81308 
L 247.388539 229.562781 
L 248.15021 229.534744 
L 248.4041 229.960505 
L 248.65799 229.948156 
L 248.911881 229.436342 
L 249.165771 229.964365 
L 249.673551 229.24521 
L 249.927442 229.425902 
L 250.181332 229.802143 
L 251.196893 229.17321 
L 251.450783 229.506646 
L 251.958564 229.756113 
L 252.212454 229.271665 
L 252.466344 229.795509 
L 252.974125 229.78233 
L 253.228015 230.037619 
L 253.481905 229.109902 
L 253.735795 229.823493 
L 253.989686 229.212173 
L 254.243576 230.01293 
L 254.751356 229.711903 
L 255.259137 229.687047 
L 255.513027 229.456677 
L 255.766917 229.545883 
L 256.020808 229.494562 
L 256.274698 229.804705 
L 256.528588 229.92587 
L 256.782479 229.645142 
L 257.036369 229.791473 
L 257.290259 229.497822 
L 257.544149 229.801693 
L 257.79804 229.584272 
L 258.05193 230.008231 
L 259.067491 229.433004 
L 259.321381 229.503917 
L 259.575271 229.355686 
L 259.829162 229.935392 
L 260.083052 229.670369 
L 260.336942 229.685315 
L 260.590832 229.283219 
L 260.844723 229.479148 
L 261.098613 229.202015 
L 261.352503 229.478132 
L 261.606393 229.49912 
L 261.860284 229.636326 
L 262.114174 229.375526 
L 262.368064 229.895811 
L 262.875845 229.67642 
L 263.129735 229.524507 
L 263.637515 230.31613 
L 263.891406 229.882587 
L 264.145296 229.903805 
L 264.653076 230.068933 
L 264.906967 229.584855 
L 265.414747 229.803389 
L 265.668637 229.591772 
L 265.922528 229.702187 
L 266.176418 229.303208 
L 266.430308 229.201936 
L 266.684198 230.040472 
L 267.191979 229.17276 
L 267.699759 229.847263 
L 268.20754 229.874664 
L 268.46143 229.595808 
L 268.71532 229.700243 
L 268.969211 229.958915 
L 269.223101 230.052538 
L 269.476991 228.951223 
L 269.730881 229.60624 
L 269.984772 229.675643 
L 270.238662 229.414259 
L 270.492552 229.693521 
L 270.746442 229.309913 
L 271.000333 229.483123 
L 271.254223 230.162035 
L 271.508113 229.740964 
L 271.762003 229.702973 
L 272.015894 229.964718 
L 272.269784 229.364361 
L 272.523674 229.364891 
L 273.031455 229.964568 
L 273.285345 229.776969 
L 273.539235 229.352074 
L 273.793126 229.830109 
L 274.047016 229.542465 
L 274.554796 229.546192 
L 274.808687 230.174622 
L 275.570357 229.767614 
L 276.078138 230.049544 
L 276.332028 229.600154 
L 276.585918 229.972359 
L 276.839809 229.903593 
L 277.093699 229.998258 
L 277.347589 229.613183 
L 277.85537 229.746123 
L 278.10926 229.734163 
L 278.36315 229.390357 
L 278.61704 229.548242 
L 278.870931 230.165462 
L 279.124821 229.73116 
L 279.378711 229.546634 
L 279.632601 229.87833 
L 279.886492 230.014025 
L 280.140382 229.532889 
L 280.394272 229.749347 
L 280.648162 229.424188 
L 281.155943 229.875945 
L 281.409833 229.650186 
L 281.663723 229.657623 
L 281.917614 229.276488 
L 282.171504 229.268247 
L 282.425394 229.675917 
L 282.933175 229.889707 
L 283.440955 229.412051 
L 283.694845 229.50177 
L 283.948736 229.987384 
L 284.456516 229.285365 
L 284.710406 229.615445 
L 284.964297 229.748075 
L 285.218187 229.577347 
L 285.725967 229.899565 
L 285.979858 229.516901 
L 286.233748 230.268086 
L 286.487638 229.483397 
L 286.741528 229.719871 
L 286.995419 229.543092 
L 287.249309 229.764266 
L 287.503199 229.205946 
L 287.757089 229.70413 
L 288.26487 230.014582 
L 288.51876 230.26639 
L 288.77265 229.603511 
L 289.026541 229.747386 
L 289.280431 229.395144 
L 289.534321 229.454539 
L 290.042102 229.823016 
L 290.295992 229.901543 
L 290.549882 230.361232 
L 290.803773 229.73116 
L 291.311553 229.681349 
L 291.565443 229.368203 
L 291.819334 229.712071 
L 292.327114 229.721514 
L 292.581004 229.986157 
L 292.834895 229.38011 
L 293.088785 229.674839 
L 293.342675 229.032418 
L 293.596565 229.815711 
L 293.850456 229.782834 
L 294.104346 229.381974 
L 294.358236 229.876307 
L 294.612126 229.53826 
L 294.866017 229.797824 
L 295.119907 229.324099 
L 295.373797 229.837432 
L 295.627687 230.008884 
L 295.881578 229.492584 
L 296.135468 229.895625 
L 296.389358 229.868074 
L 296.643248 230.022196 
L 296.897139 229.434823 
L 297.151029 229.906384 
L 297.404919 229.878215 
L 297.9127 229.517528 
L 298.16659 229.994424 
L 298.42048 229.336863 
L 298.67437 229.935021 
L 298.928261 229.631397 
L 299.182151 229.935754 
L 299.436041 229.866228 
L 299.689931 229.665723 
L 299.943822 229.299922 
L 300.197712 230.198684 
L 300.451602 229.823997 
L 300.705492 229.95305 
L 300.959383 229.562127 
L 301.213273 229.502053 
L 301.467163 229.703167 
L 301.721053 230.053642 
L 302.228834 229.438047 
L 302.482724 229.818449 
L 302.736614 229.914078 
L 302.990505 229.413323 
L 303.244395 230.322357 
L 303.498285 229.591312 
L 303.752175 229.476481 
L 304.006066 229.755787 
L 304.259956 229.666792 
L 304.513846 229.715887 
L 304.767736 229.9856 
L 305.021627 230.043175 
L 305.275517 229.633491 
L 305.529407 230.078287 
L 306.037188 229.566314 
L 306.291078 229.080294 
L 306.544968 229.637183 
L 306.798859 229.757597 
L 307.052749 229.415717 
L 307.306639 229.742837 
L 307.560529 229.318534 
L 308.06831 229.716682 
L 308.3222 229.214125 
L 308.57609 229.232066 
L 309.083871 229.903319 
L 309.337761 229.583407 
L 310.099432 230.27843 
L 310.099432 230.27843 
" clip-path="url(#pf9a718df21)" style="fill: none; stroke: #0000ff; stroke-width: 0.6; stroke-linecap: square"/>
   </g>
   <g id="line2d_26">
    <path d="M 56.463068 224.901657 
L 56.716958 223.150959 
L 56.970849 226.109121 
L 57.478629 226.16212 
L 57.732519 226.208671 
L 57.98641 226.137157 
L 58.2403 226.219324 
L 58.49419 226.071915 
L 58.74808 226.203415 
L 59.255861 226.069204 
L 59.509751 226.201746 
L 69.919252 226.186835 
L 70.427032 225.759211 
L 70.680922 226.199025 
L 71.696483 226.203592 
L 72.458154 226.078611 
L 73.219825 226.174363 
L 74.235386 226.21466 
L 74.489276 226.215685 
L 74.743166 226.094564 
L 74.997057 226.226638 
L 75.504837 226.192321 
L 76.012618 226.18824 
L 77.282069 226.207116 
L 79.059301 226.232839 
L 79.313191 225.973142 
L 79.567081 226.136928 
L 80.074862 226.024234 
L 80.328752 226.184927 
L 81.090423 226.237061 
L 81.598203 226.085501 
L 81.852094 226.170317 
L 82.105984 226.081305 
L 82.359874 226.268339 
L 82.613764 226.05068 
L 82.867655 226.292542 
L 83.121545 226.359374 
L 83.375435 226.033076 
L 83.629325 226.142979 
L 83.883216 225.928155 
L 84.390996 226.256777 
L 84.644886 226.150301 
L 84.898777 226.294353 
L 85.660447 226.200748 
L 85.914338 226.226655 
L 86.168228 225.948736 
L 87.183789 226.528831 
L 87.94546 225.9749 
L 88.19935 226.436753 
L 88.45324 226.446055 
L 88.70713 225.912326 
L 88.961021 226.209713 
L 89.722691 226.46237 
L 89.976582 226.297568 
L 90.230472 226.493727 
L 90.738252 226.254339 
L 90.992143 225.244456 
L 91.246033 226.64164 
L 91.499923 226.627162 
L 91.753813 226.494531 
L 92.007704 226.737542 
L 92.261594 226.346231 
L 92.515484 226.660066 
L 92.769374 225.929277 
L 93.023265 226.276227 
L 93.277155 225.56776 
L 93.531045 221.975207 
L 93.784936 220.595698 
L 94.038826 213.036514 
L 94.292716 216.571775 
L 94.546606 226.714911 
L 94.800497 222.727071 
L 95.054387 226.076712 
L 95.308277 226.309361 
L 95.562167 225.91782 
L 95.816058 226.54231 
L 96.069948 225.895887 
L 96.323838 223.980972 
L 96.577728 226.428282 
L 96.831619 225.138493 
L 97.085509 225.169356 
L 97.339399 225.612562 
L 97.593289 225.291219 
L 97.84718 226.00223 
L 98.10107 225.212559 
L 98.35496 225.836263 
L 98.60885 227.096726 
L 98.862741 227.018544 
L 99.116631 182.745363 
L 99.370521 226.912342 
L 99.624411 226.576283 
L 99.878302 226.858141 
L 100.132192 226.717923 
L 100.386082 226.864307 
L 100.639972 218.57625 
L 100.893863 226.141071 
L 101.147753 200.959559 
L 101.401643 227.516471 
L 101.655533 226.545075 
L 101.909424 223.872403 
L 102.163314 226.580955 
L 102.417204 206.045357 
L 102.671094 199.078219 
L 102.924985 226.034242 
L 103.178875 227.417566 
L 103.432765 226.887662 
L 103.686655 226.88033 
L 103.940546 225.888105 
L 104.194436 222.617637 
L 104.702216 228.005911 
L 104.956107 223.126226 
L 105.209997 226.87829 
L 105.463887 225.360719 
L 105.717777 226.471379 
L 106.225558 227.111972 
L 106.479448 226.566301 
L 106.733338 151.496322 
L 106.987229 227.960172 
L 107.241119 216.60679 
L 107.748899 227.559754 
L 108.00279 226.992168 
L 108.25668 227.274724 
L 108.51057 228.168945 
L 108.76446 221.209173 
L 109.018351 227.642566 
L 109.272241 227.531373 
L 109.526131 225.475541 
L 109.780021 226.380662 
L 110.033912 228.327024 
L 110.287802 226.405987 
L 110.541692 227.987308 
L 110.795583 226.427602 
L 111.049473 226.079044 
L 111.303363 228.114771 
L 111.557253 226.564632 
L 111.811144 226.746172 
L 112.065034 228.10342 
L 112.318924 225.07303 
L 112.572814 227.712224 
L 112.826705 226.91584 
L 113.080595 222.564947 
L 113.334485 226.754599 
L 113.588375 223.806719 
L 113.842266 228.812409 
L 114.096156 227.625774 
L 114.350046 228.616718 
L 114.603936 228.54554 
L 114.857827 228.02393 
L 115.111717 208.456673 
L 115.365607 224.211722 
L 115.619497 227.816059 
L 115.873388 228.512424 
L 116.127278 227.160264 
L 116.381168 228.034044 
L 116.635058 227.515182 
L 116.888949 228.044264 
L 117.142839 228.277337 
L 117.396729 201.765572 
L 117.650619 228.351483 
L 117.90451 220.69077 
L 118.1584 228.817356 
L 118.41229 228.644419 
L 118.66618 228.24764 
L 118.920071 228.362004 
L 119.173961 225.237222 
L 119.427851 227.563111 
L 119.681741 228.604175 
L 119.935632 228.11092 
L 120.189522 228.157356 
L 120.443412 221.586837 
L 120.697302 227.965834 
L 120.951193 226.321074 
L 121.205083 223.383096 
L 121.458973 226.487173 
L 121.712863 226.105932 
L 121.966754 227.945112 
L 122.220644 223.239786 
L 122.474534 229.028681 
L 122.728424 226.261979 
L 122.982315 228.118163 
L 123.236205 226.990966 
L 123.490095 228.042312 
L 123.743985 226.197665 
L 123.997876 228.333181 
L 124.759546 225.783167 
L 125.013437 227.836843 
L 125.267327 227.864473 
L 125.521217 227.014807 
L 125.775107 228.30457 
L 126.028998 225.254314 
L 126.282888 226.519688 
L 126.790669 227.569506 
L 127.044559 226.230895 
L 127.298449 228.994709 
L 127.552339 227.701192 
L 127.80623 227.312999 
L 128.06012 228.740657 
L 128.31401 225.235093 
L 128.5679 226.562132 
L 129.075681 227.813188 
L 129.583461 226.899764 
L 129.837352 224.964443 
L 130.091242 227.125523 
L 130.345132 227.766902 
L 130.599022 224.315786 
L 130.852913 228.295675 
L 131.106803 226.083081 
L 131.360693 228.157718 
L 131.614583 228.133338 
L 131.868474 228.580007 
L 132.122364 228.075569 
L 132.376254 226.311728 
L 132.630144 228.38944 
L 132.884035 228.749331 
L 133.137925 228.594856 
L 133.391815 228.073812 
L 133.645705 218.079188 
L 133.899596 225.74877 
L 134.153486 228.027234 
L 134.407376 227.3569 
L 134.661266 225.476858 
L 134.915157 226.457723 
L 135.169047 226.717693 
L 135.422937 226.017229 
L 135.676827 228.472675 
L 135.930718 228.177372 
L 136.184608 227.384574 
L 136.438498 222.210064 
L 136.692388 225.526597 
L 137.200169 227.568976 
L 137.454059 222.980823 
L 137.707949 224.114768 
L 137.96184 227.839467 
L 138.21573 227.698082 
L 138.46962 228.472693 
L 138.72351 225.056379 
L 138.977401 228.312343 
L 139.231291 228.131272 
L 139.485181 226.886028 
L 139.739071 221.399767 
L 139.992962 227.544861 
L 140.246852 226.685876 
L 140.500742 227.146563 
L 140.754632 227.904179 
L 141.008523 228.187848 
L 141.262413 227.677271 
L 141.516303 226.198151 
L 142.024084 227.848459 
L 142.277974 227.561671 
L 142.531864 228.221052 
L 143.039645 226.186332 
L 143.293535 227.901281 
L 143.547425 226.492085 
L 143.801316 228.810943 
L 144.055206 226.175979 
L 144.309096 226.876144 
L 144.562986 226.68524 
L 144.816877 227.928655 
L 145.324657 228.483266 
L 145.578547 227.715678 
L 146.086328 227.718452 
L 146.340218 227.500881 
L 146.594108 229.199904 
L 146.847999 228.698902 
L 147.101889 225.949708 
L 147.609669 229.243982 
L 148.37134 227.577703 
L 148.62523 225.489083 
L 148.879121 228.352437 
L 149.133011 228.2191 
L 149.386901 228.799194 
L 149.640791 228.104427 
L 150.148572 228.768119 
L 150.402462 228.252092 
L 150.656352 228.270969 
L 150.910243 228.598539 
L 151.164133 228.344797 
L 151.418023 227.031528 
L 151.671913 228.289951 
L 151.925804 228.373778 
L 152.179694 228.628387 
L 152.687474 227.739457 
L 152.941365 227.139426 
L 153.449145 228.558975 
L 153.703035 227.393522 
L 153.956926 229.025236 
L 154.210816 228.470643 
L 154.464706 228.459858 
L 154.718596 154.020959 
L 154.972487 227.974765 
L 155.226377 228.838529 
L 155.480267 227.301224 
L 155.734157 228.749543 
L 155.988048 228.352066 
L 156.241938 229.289446 
L 156.495828 228.402672 
L 156.749718 225.658106 
L 157.003609 228.51352 
L 157.257499 188.778753 
L 157.511389 228.936604 
L 157.765279 229.08282 
L 158.01917 228.098942 
L 158.27306 228.300127 
L 158.52695 227.141166 
L 158.78084 228.722257 
L 159.034731 225.988495 
L 159.288621 228.742406 
L 159.542511 223.441448 
L 159.796402 227.929309 
L 160.050292 227.778517 
L 160.304182 228.624853 
L 160.558072 228.5759 
L 160.811963 229.321078 
L 161.065853 94.906277 
L 161.319743 86.280121 
L 161.573633 223.83972 
L 161.827524 212.384429 
L 162.081414 228.146217 
L 162.335304 223.887702 
L 162.589194 227.180871 
L 162.843085 224.681622 
L 163.096975 229.510895 
L 163.350865 208.176801 
L 163.604755 223.622317 
L 163.858646 225.033289 
L 164.112536 214.40415 
L 164.366426 226.189689 
L 164.620316 227.718452 
L 164.874207 169.158973 
L 165.128097 221.048577 
L 165.381987 225.681205 
L 165.635877 227.450222 
L 166.143658 228.022349 
L 166.397548 187.505985 
L 166.651438 176.987208 
L 166.905329 185.295466 
L 167.159219 227.747522 
L 167.413109 228.909857 
L 167.666999 228.253929 
L 167.92089 229.466402 
L 168.17478 229.211908 
L 168.42867 227.120611 
L 168.68256 209.507065 
L 168.936451 94.471578 
L 169.190341 228.926189 
L 169.444231 228.295286 
L 169.698121 228.107024 
L 169.952012 226.886938 
L 170.205902 224.0766 
L 170.459792 158.611841 
L 170.713682 171.529081 
L 170.967573 158.911994 
L 171.221463 155.837949 
L 171.475353 229.060755 
L 171.983134 225.597608 
L 172.490914 155.525166 
L 172.744804 226.953169 
L 172.998695 223.332446 
L 173.252585 225.219714 
L 173.506475 225.423417 
L 173.760365 225.06334 
L 174.014256 227.485838 
L 174.268146 185.947463 
L 174.522036 221.044681 
L 174.775926 218.036621 
L 175.029817 203.165255 
L 175.283707 88.365253 
L 175.537597 108.544607 
L 175.791488 118.478078 
L 176.045378 121.149028 
L 176.299268 214.322302 
L 176.553158 229.051912 
L 176.807049 229.111227 
L 177.060939 46.498909 
L 177.314829 227.629139 
L 177.568719 227.352598 
L 177.82261 228.821631 
L 178.0765 227.721923 
L 178.33039 225.723198 
L 178.58428 229.151754 
L 178.838171 228.569858 
L 179.092061 228.873429 
L 179.345951 225.284037 
L 179.599841 227.839917 
L 179.853732 228.281454 
L 180.107622 227.674851 
L 180.361512 228.38921 
L 180.615402 227.504494 
L 180.869293 228.44758 
L 181.123183 228.014982 
L 181.377073 228.128736 
L 181.630963 228.461271 
L 181.884854 227.658527 
L 182.138744 228.019964 
L 182.392634 228.049158 
L 182.646524 227.454436 
L 182.900415 228.508891 
L 183.154305 228.280871 
L 183.408195 226.902811 
L 183.662085 228.488027 
L 183.915976 227.446557 
L 184.423756 228.745542 
L 184.677646 228.074615 
L 184.931537 228.631205 
L 185.185427 226.497826 
L 185.439317 228.889973 
L 185.693207 226.896142 
L 185.947098 228.117483 
L 186.200988 225.413161 
L 186.454878 228.18117 
L 186.708768 228.089959 
L 186.962659 226.685629 
L 187.216549 229.073351 
L 187.470439 227.090817 
L 187.724329 228.61882 
L 187.97822 229.225503 
L 188.23211 228.596384 
L 188.486 228.826869 
L 188.993781 226.37288 
L 189.247671 229.204974 
L 189.501561 229.152558 
L 190.009342 227.961859 
L 190.263232 228.929961 
L 190.517122 227.695697 
L 190.771012 229.087466 
L 191.278793 227.156218 
L 191.786574 229.290029 
L 192.040464 227.961921 
L 192.294354 227.929026 
L 192.548244 228.22334 
L 192.802135 227.877856 
L 193.056025 226.992548 
L 193.309915 229.49185 
L 193.563805 227.505748 
L 193.817696 228.78795 
L 194.071586 227.25242 
L 194.325476 226.872619 
L 194.579366 226.900894 
L 194.833257 228.929749 
L 195.087147 227.173549 
L 195.341037 227.398592 
L 195.594927 228.273548 
L 195.848818 227.084713 
L 196.102708 227.118836 
L 196.356598 229.065463 
L 196.610488 226.888996 
L 196.864379 226.075484 
L 197.118269 228.086302 
L 197.372159 217.549585 
L 197.626049 215.921854 
L 197.87994 227.451115 
L 198.13383 221.48075 
L 198.38772 227.946057 
L 198.64161 228.666449 
L 198.895501 228.809388 
L 199.403281 228.13499 
L 199.657171 228.117554 
L 199.911062 227.987476 
L 200.164952 228.526496 
L 200.418842 227.850287 
L 200.672732 228.567994 
L 200.926623 228.148761 
L 201.180513 228.981326 
L 201.434403 228.859826 
L 201.688293 229.262867 
L 201.942184 227.535083 
L 202.196074 228.819378 
L 202.449964 228.584503 
L 202.703854 228.636398 
L 202.957745 227.402249 
L 203.211635 225.404399 
L 203.465525 228.175994 
L 203.719415 229.249193 
L 203.973306 228.658464 
L 204.227196 226.720644 
L 204.734976 229.090443 
L 204.988867 227.937913 
L 205.242757 228.571934 
L 205.496647 227.165237 
L 205.750537 227.209915 
L 206.004428 228.487912 
L 206.512208 229.062389 
L 206.766098 226.966666 
L 207.019989 227.825961 
L 207.273879 226.37659 
L 207.527769 226.588287 
L 207.78166 226.94832 
L 208.03555 229.22938 
L 208.28944 228.838167 
L 208.54333 228.673206 
L 208.797221 227.736887 
L 209.051111 228.847627 
L 209.305001 228.280694 
L 209.558891 228.67984 
L 209.812782 228.607911 
L 210.066672 228.889496 
L 210.320562 227.716959 
L 210.574452 227.265988 
L 210.828343 228.157877 
L 211.082233 228.506073 
L 211.336123 227.744951 
L 211.590013 228.051137 
L 211.843904 226.18044 
L 212.097794 226.355567 
L 212.351684 228.004365 
L 212.605574 228.49005 
L 212.859465 228.659259 
L 213.113355 228.461156 
L 213.367245 228.008993 
L 213.621135 228.016343 
L 213.875026 227.17036 
L 214.128916 229.113471 
L 214.382806 228.874657 
L 214.636696 224.565244 
L 214.890587 228.347517 
L 215.144477 228.469062 
L 215.398367 228.403281 
L 215.652257 227.333015 
L 215.906148 227.776389 
L 216.160038 227.981178 
L 216.413928 228.783162 
L 216.667818 228.102784 
L 216.921709 228.225566 
L 217.175599 229.142965 
L 217.429489 228.783383 
L 217.683379 227.784603 
L 217.93727 228.913417 
L 218.19116 228.588505 
L 218.44505 227.755639 
L 218.69894 228.449134 
L 218.952831 226.314502 
L 219.206721 225.152502 
L 219.460611 227.492701 
L 219.714501 226.083902 
L 219.968392 228.008587 
L 220.222282 228.866609 
L 220.476172 228.909468 
L 220.983953 225.043023 
L 221.237843 226.178453 
L 221.491733 228.000266 
L 221.745623 228.335999 
L 221.999514 227.503557 
L 222.253404 228.214984 
L 222.507294 226.430376 
L 222.761184 228.363647 
L 223.268965 228.75797 
L 223.522855 227.673226 
L 223.776745 228.492479 
L 224.538416 227.738468 
L 224.792307 228.825615 
L 225.046197 228.727681 
L 225.300087 229.4381 
L 225.553977 227.287188 
L 226.061758 229.043998 
L 226.315648 228.847918 
L 226.569538 228.481164 
L 226.823429 224.482972 
L 227.077319 228.49096 
L 227.331209 227.538616 
L 227.585099 227.233199 
L 227.83899 227.489 
L 228.34677 228.340725 
L 228.60066 226.354763 
L 228.854551 229.062345 
L 229.108441 228.867263 
L 229.362331 225.845414 
L 229.616221 227.58265 
L 229.870112 226.905426 
L 230.124002 227.334781 
L 230.377892 227.077682 
L 230.631782 228.288414 
L 230.885673 226.881647 
L 231.647343 228.623873 
L 232.155124 227.107927 
L 232.409014 227.983333 
L 232.662904 227.237952 
L 232.916795 228.887845 
L 233.170685 226.418663 
L 233.424575 228.824987 
L 233.678465 228.964261 
L 233.932356 228.33251 
L 234.186246 226.749961 
L 234.440136 228.363841 
L 234.694026 227.808285 
L 234.947917 228.48657 
L 235.201807 227.091214 
L 235.455697 226.979837 
L 235.709587 228.666661 
L 235.963478 227.95739 
L 236.217368 227.686281 
L 236.471258 228.629588 
L 236.725148 227.240575 
L 236.979039 228.312229 
L 237.486819 229.023125 
L 237.740709 226.765826 
L 237.9946 228.319763 
L 238.24849 228.336785 
L 238.50238 227.812534 
L 238.75627 226.212681 
L 239.010161 226.911777 
L 239.264051 228.103226 
L 239.517941 228.523007 
L 239.771831 227.504891 
L 240.025722 228.575864 
L 240.279612 228.198598 
L 240.533502 227.17876 
L 241.041283 228.605129 
L 241.295173 226.782512 
L 241.802954 228.4553 
L 242.056844 228.016122 
L 242.310734 227.326337 
L 242.564624 228.225186 
L 242.818515 226.010321 
L 243.326295 228.784761 
L 243.580185 228.08033 
L 243.834076 228.601604 
L 244.087966 228.512548 
L 244.341856 227.650992 
L 244.595746 229.039113 
L 244.849637 227.60248 
L 245.103527 228.952018 
L 245.357417 228.510013 
L 245.611307 226.898191 
L 245.865198 228.515569 
L 246.119088 229.044016 
L 246.372978 227.799134 
L 246.626868 228.729094 
L 246.880759 229.089595 
L 247.134649 228.729783 
L 247.388539 228.791368 
L 247.642429 229.248169 
L 247.89632 228.823936 
L 248.15021 229.120811 
L 248.4041 229.146852 
L 248.65799 226.938603 
L 248.911881 227.368224 
L 249.165771 223.78801 
L 249.419661 228.042153 
L 249.673551 227.54957 
L 249.927442 228.826834 
L 250.181332 228.563365 
L 250.435222 228.979445 
L 250.689112 228.70028 
L 250.943003 224.88581 
L 251.196893 228.094543 
L 251.450783 226.94779 
L 251.704673 228.678286 
L 251.958564 229.019998 
L 252.212454 228.85934 
L 252.466344 228.521346 
L 252.720234 229.113056 
L 252.974125 228.726868 
L 253.228015 226.779323 
L 253.735795 229.288634 
L 253.989686 228.764833 
L 254.243576 227.713258 
L 254.497466 228.04203 
L 254.751356 229.197784 
L 255.005247 228.720941 
L 255.259137 226.864537 
L 255.513027 228.038258 
L 255.766917 227.498346 
L 256.020808 226.604425 
L 256.274698 227.955067 
L 256.528588 228.27293 
L 256.782479 228.208156 
L 257.036369 227.960208 
L 257.290259 228.981909 
L 257.544149 227.307902 
L 257.79804 227.058682 
L 258.05193 228.66296 
L 258.30582 227.494865 
L 258.55971 226.903562 
L 258.813601 228.223517 
L 259.067491 227.221955 
L 259.575271 229.207006 
L 259.829162 226.127326 
L 260.083052 228.308554 
L 260.336942 228.466969 
L 260.590832 226.240214 
L 260.844723 226.959078 
L 261.352503 228.938026 
L 261.606393 227.633997 
L 261.860284 228.586014 
L 262.114174 228.486782 
L 262.368064 227.836613 
L 262.621954 227.81423 
L 262.875845 226.517215 
L 263.129735 226.782414 
L 263.383625 228.076196 
L 263.637515 228.26346 
L 263.891406 227.766663 
L 264.145296 226.558961 
L 264.399186 228.267745 
L 264.653076 227.739174 
L 264.906967 227.801996 
L 265.160857 226.988873 
L 265.668637 227.816147 
L 265.922528 227.802358 
L 266.176418 228.059988 
L 266.430308 228.591826 
L 266.684198 226.144047 
L 266.938089 228.720102 
L 267.191979 228.742247 
L 267.445869 227.599954 
L 267.699759 227.747248 
L 267.95365 228.631187 
L 268.20754 225.114784 
L 268.46143 228.777368 
L 268.71532 227.18081 
L 268.969211 228.669841 
L 269.476991 225.821944 
L 269.730881 227.731887 
L 269.984772 227.684779 
L 270.238662 228.116997 
L 270.746442 228.32887 
L 271.000333 228.785344 
L 271.254223 228.082 
L 271.508113 228.267338 
L 271.762003 228.058088 
L 272.015894 228.061065 
L 272.523674 226.754431 
L 272.777564 228.030069 
L 273.031455 228.314622 
L 273.285345 228.112563 
L 273.539235 227.4164 
L 273.793126 228.483557 
L 274.047016 228.400172 
L 274.300906 224.67694 
L 274.554796 228.121617 
L 274.808687 229.020696 
L 275.316467 227.306974 
L 275.570357 228.200224 
L 275.824248 228.514297 
L 276.078138 228.090029 
L 276.332028 228.558428 
L 276.585918 226.521543 
L 276.839809 228.068785 
L 277.093699 227.160988 
L 277.347589 229.358451 
L 277.601479 228.000399 
L 277.85537 228.352508 
L 278.10926 227.163947 
L 278.61704 228.408369 
L 278.870931 227.4351 
L 279.124821 227.928346 
L 279.378711 229.100371 
L 279.632601 228.050598 
L 279.886492 227.54684 
L 280.394272 229.101166 
L 280.902053 227.122422 
L 281.155943 226.92909 
L 281.409833 226.307974 
L 281.663723 229.003003 
L 281.917614 226.701599 
L 282.171504 227.255786 
L 282.425394 229.022304 
L 282.679284 227.505969 
L 283.187065 228.283547 
L 283.440955 228.481429 
L 283.694845 228.214569 
L 284.202626 228.600385 
L 284.710406 227.477756 
L 284.964297 227.585247 
L 285.218187 228.733581 
L 285.472077 228.826551 
L 285.979858 227.367756 
L 286.233748 226.784614 
L 286.487638 228.070746 
L 286.741528 227.449233 
L 286.995419 227.876071 
L 287.249309 228.701031 
L 287.503199 227.751099 
L 287.757089 228.633174 
L 288.01098 227.201541 
L 288.26487 226.802104 
L 288.51876 225.852234 
L 289.026541 228.397063 
L 289.534321 227.980356 
L 289.788212 227.03788 
L 290.042102 229.445582 
L 290.295992 227.087884 
L 290.549882 226.937013 
L 290.803773 228.524464 
L 291.057663 228.558145 
L 291.311553 226.597668 
L 291.565443 228.153885 
L 291.819334 228.058053 
L 292.073224 226.103671 
L 292.327114 229.297758 
L 292.581004 228.828989 
L 292.834895 229.004425 
L 293.088785 228.327943 
L 293.342675 228.682375 
L 293.596565 228.43433 
L 293.850456 226.109501 
L 294.104346 227.553677 
L 294.358236 227.906378 
L 294.612126 228.052091 
L 294.866017 227.872706 
L 295.119907 228.232862 
L 295.373797 227.918709 
L 295.627687 228.630489 
L 295.881578 228.874869 
L 296.135468 227.803083 
L 296.389358 227.569382 
L 296.643248 227.130001 
L 296.897139 226.414299 
L 297.151029 226.510369 
L 297.404919 225.031973 
L 297.658809 226.009438 
L 297.9127 228.338366 
L 298.16659 227.169053 
L 298.42048 227.372172 
L 298.67437 228.862131 
L 298.928261 227.139417 
L 299.182151 228.191302 
L 299.436041 228.287937 
L 299.689931 223.261851 
L 299.943822 228.663587 
L 300.197712 228.059661 
L 300.451602 228.793373 
L 300.705492 226.614795 
L 300.959383 227.651708 
L 301.467163 225.891179 
L 301.721053 228.760938 
L 302.228834 228.178573 
L 302.482724 227.09397 
L 302.990505 229.306636 
L 303.244395 226.472386 
L 303.498285 228.678895 
L 303.752175 228.443075 
L 304.006066 228.785847 
L 304.259956 226.70084 
L 304.513846 226.731835 
L 304.767736 227.846568 
L 305.021627 228.113216 
L 305.275517 227.40671 
L 305.529407 223.935878 
L 305.783298 226.551099 
L 306.291078 227.812322 
L 306.544968 227.720695 
L 306.798859 228.628431 
L 307.052749 228.529808 
L 307.306639 227.82665 
L 307.560529 228.305736 
L 307.81442 227.409625 
L 308.06831 229.137224 
L 308.3222 228.740356 
L 308.57609 227.735747 
L 309.083871 228.850454 
L 309.337761 226.06174 
L 309.591651 228.801288 
L 309.845542 227.863219 
L 310.099432 224.233513 
L 310.099432 224.233513 
" clip-path="url(#pf9a718df21)" style="fill: none; stroke: #ff0000; stroke-width: 0.6; stroke-linecap: square"/>
   </g>
   <g id="patch_3">
    <path d="M 43.78125 239.76 
L 43.78125 37.296 
" style="fill: none; stroke: #000000; stroke-width: 0.8; stroke-linejoin: miter; stroke-linecap: square"/>
   </g>
   <g id="patch_4">
    <path d="M 322.78125 239.76 
L 322.78125 37.296 
" style="fill: none; stroke: #000000; stroke-width: 0.8; stroke-linejoin: miter; stroke-linecap: square"/>
   </g>
   <g id="patch_5">
    <path d="M 43.78125 239.76 
L 322.78125 239.76 
" style="fill: none; stroke: #000000; stroke-width: 0.8; stroke-linejoin: miter; stroke-linecap: square"/>
   </g>
   <g id="patch_6">
    <path d="M 43.78125 37.296 
L 322.78125 37.296 
" style="fill: none; stroke: #000000; stroke-width: 0.8; stroke-linejoin: miter; stroke-linecap: square"/>
   </g>
   <g id="text_15">
    <!-- Baseline Model -->
    <g transform="translate(149.259844 31.296) scale(0.09 -0.09)">
     <defs>
      <path id="DejaVuSans-42" d="M 1259 2228 
L 1259 519 
L 2272 519 
Q 2781 519 3026 730 
Q 3272 941 3272 1375 
Q 3272 1813 3026 2020 
Q 2781 2228 2272 2228 
L 1259 2228 
z
M 1259 4147 
L 1259 2741 
L 2194 2741 
Q 2656 2741 2882 2914 
Q 3109 3088 3109 3444 
Q 3109 3797 2882 3972 
Q 2656 4147 2194 4147 
L 1259 4147 
z
M 628 4666 
L 2241 4666 
Q 2963 4666 3353 4366 
Q 3744 4066 3744 3513 
Q 3744 3084 3544 2831 
Q 3344 2578 2956 2516 
Q 3422 2416 3680 2098 
Q 3938 1781 3938 1306 
Q 3938 681 3513 340 
Q 3088 0 2303 0 
L 628 0 
L 628 4666 
z
" transform="scale(0.015625)"/>
      <path id="DejaVuSans-61" d="M 2194 1759 
Q 1497 1759 1228 1600 
Q 959 1441 959 1056 
Q 959 750 1161 570 
Q 1363 391 1709 391 
Q 2188 391 2477 730 
Q 2766 1069 2766 1631 
L 2766 1759 
L 2194 1759 
z
M 3341 1997 
L 3341 0 
L 2766 0 
L 2766 531 
Q 2569 213 2275 61 
Q 1981 -91 1556 -91 
Q 1019 -91 701 211 
Q 384 513 384 1019 
Q 384 1609 779 1909 
Q 1175 2209 1959 2209 
L 2766 2209 
L 2766 2266 
Q 2766 2663 2505 2880 
Q 2244 3097 1772 3097 
Q 1472 3097 1187 3025 
Q 903 2953 641 2809 
L 641 3341 
Q 956 3463 1253 3523 
Q 1550 3584 1831 3584 
Q 2591 3584 2966 3190 
Q 3341 2797 3341 1997 
z
" transform="scale(0.015625)"/>
      <path id="DejaVuSans-65" d="M 3597 1894 
L 3597 1613 
L 953 1613 
Q 991 1019 1311 708 
Q 1631 397 2203 397 
Q 2534 397 2845 478 
Q 3156 559 3463 722 
L 3463 178 
Q 3153 47 2828 -22 
Q 2503 -91 2169 -91 
Q 1331 -91 842 396 
Q 353 884 353 1716 
Q 353 2575 817 3079 
Q 1281 3584 2069 3584 
Q 2775 3584 3186 3129 
Q 3597 2675 3597 1894 
z
M 3022 2063 
Q 3016 2534 2758 2815 
Q 2500 3097 2075 3097 
Q 1594 3097 1305 2825 
Q 1016 2553 972 2059 
L 3022 2063 
z
" transform="scale(0.015625)"/>
      <path id="DejaVuSans-6c" d="M 603 4863 
L 1178 4863 
L 1178 0 
L 603 0 
L 603 4863 
z
" transform="scale(0.015625)"/>
      <path id="DejaVuSans-69" d="M 603 3500 
L 1178 3500 
L 1178 0 
L 603 0 
L 603 3500 
z
M 603 4863 
L 1178 4863 
L 1178 4134 
L 603 4134 
L 603 4863 
z
" transform="scale(0.015625)"/>
      <path id="DejaVuSans-6e" d="M 3513 2113 
L 3513 0 
L 2938 0 
L 2938 2094 
Q 2938 2591 2744 2837 
Q 2550 3084 2163 3084 
Q 1697 3084 1428 2787 
Q 1159 2491 1159 1978 
L 1159 0 
L 581 0 
L 581 3500 
L 1159 3500 
L 1159 2956 
Q 1366 3272 1645 3428 
Q 1925 3584 2291 3584 
Q 2894 3584 3203 3211 
Q 3513 2838 3513 2113 
z
" transform="scale(0.015625)"/>
      <path id="DejaVuSans-20" transform="scale(0.015625)"/>
      <path id="DejaVuSans-4d" d="M 628 4666 
L 1569 4666 
L 2759 1491 
L 3956 4666 
L 4897 4666 
L 4897 0 
L 4281 0 
L 4281 4097 
L 3078 897 
L 2444 897 
L 1241 4097 
L 1241 0 
L 628 0 
L 628 4666 
z
" transform="scale(0.015625)"/>
      <path id="DejaVuSans-64" d="M 2906 2969 
L 2906 4863 
L 3481 4863 
L 3481 0 
L 2906 0 
L 2906 525 
Q 2725 213 2448 61 
Q 2172 -91 1784 -91 
Q 1150 -91 751 415 
Q 353 922 353 1747 
Q 353 2572 751 3078 
Q 1150 3584 1784 3584 
Q 2172 3584 2448 3432 
Q 2725 3281 2906 2969 
z
M 947 1747 
Q 947 1113 1208 752 
Q 1469 391 1925 391 
Q 2381 391 2643 752 
Q 2906 1113 2906 1747 
Q 2906 2381 2643 2742 
Q 2381 3103 1925 3103 
Q 1469 3103 1208 2742 
Q 947 2381 947 1747 
z
" transform="scale(0.015625)"/>
     </defs>
     <use xlink:href="#DejaVuSans-42"/>
     <use xlink:href="#DejaVuSans-61" x="68.603516"/>
     <use xlink:href="#DejaVuSans-73" x="129.882812"/>
     <use xlink:href="#DejaVuSans-65" x="181.982422"/>
     <use xlink:href="#DejaVuSans-6c" x="243.505859"/>
     <use xlink:href="#DejaVuSans-69" x="271.289062"/>
     <use xlink:href="#DejaVuSans-6e" x="299.072266"/>
     <use xlink:href="#DejaVuSans-65" x="362.451172"/>
     <use xlink:href="#DejaVuSans-20" x="423.974609"/>
     <use xlink:href="#DejaVuSans-4d" x="455.761719"/>
     <use xlink:href="#DejaVuSans-6f" x="542.041016"/>
     <use xlink:href="#DejaVuSans-64" x="603.222656"/>
     <use xlink:href="#DejaVuSans-65" x="666.699219"/>
     <use xlink:href="#DejaVuSans-6c" x="728.222656"/>
    </g>
   </g>
   <g id="legend_1">
    <g id="patch_7">
     <path d="M 209.2875 74.65225 
L 315.78125 74.65225 
Q 317.78125 74.65225 317.78125 72.65225 
L 317.78125 44.296 
Q 317.78125 42.296 315.78125 42.296 
L 209.2875 42.296 
Q 207.2875 42.296 207.2875 44.296 
L 207.2875 72.65225 
Q 207.2875 74.65225 209.2875 74.65225 
z
" style="fill: #ffffff; opacity: 0.8; stroke: #cccccc; stroke-linejoin: miter"/>
    </g>
    <g id="line2d_27">
     <path d="M 211.2875 50.394438 
L 221.2875 50.394438 
L 231.2875 50.394438 
" style="fill: none; stroke: #0000ff; stroke-width: 0.6; stroke-linecap: square"/>
    </g>
    <g id="text_16">
     <!-- Training Loss -->
     <g transform="translate(239.2875 53.894438) scale(0.1 -0.1)">
      <defs>
       <path id="DejaVuSans-54" d="M -19 4666 
L 3928 4666 
L 3928 4134 
L 2272 4134 
L 2272 0 
L 1638 0 
L 1638 4134 
L -19 4134 
L -19 4666 
z
" transform="scale(0.015625)"/>
       <path id="DejaVuSans-72" d="M 2631 2963 
Q 2534 3019 2420 3045 
Q 2306 3072 2169 3072 
Q 1681 3072 1420 2755 
Q 1159 2438 1159 1844 
L 1159 0 
L 581 0 
L 581 3500 
L 1159 3500 
L 1159 2956 
Q 1341 3275 1631 3429 
Q 1922 3584 2338 3584 
Q 2397 3584 2469 3576 
Q 2541 3569 2628 3553 
L 2631 2963 
z
" transform="scale(0.015625)"/>
       <path id="DejaVuSans-67" d="M 2906 1791 
Q 2906 2416 2648 2759 
Q 2391 3103 1925 3103 
Q 1463 3103 1205 2759 
Q 947 2416 947 1791 
Q 947 1169 1205 825 
Q 1463 481 1925 481 
Q 2391 481 2648 825 
Q 2906 1169 2906 1791 
z
M 3481 434 
Q 3481 -459 3084 -895 
Q 2688 -1331 1869 -1331 
Q 1566 -1331 1297 -1286 
Q 1028 -1241 775 -1147 
L 775 -588 
Q 1028 -725 1275 -790 
Q 1522 -856 1778 -856 
Q 2344 -856 2625 -561 
Q 2906 -266 2906 331 
L 2906 616 
Q 2728 306 2450 153 
Q 2172 0 1784 0 
Q 1141 0 747 490 
Q 353 981 353 1791 
Q 353 2603 747 3093 
Q 1141 3584 1784 3584 
Q 2172 3584 2450 3431 
Q 2728 3278 2906 2969 
L 2906 3500 
L 3481 3500 
L 3481 434 
z
" transform="scale(0.015625)"/>
      </defs>
      <use xlink:href="#DejaVuSans-54"/>
      <use xlink:href="#DejaVuSans-72" x="46.333984"/>
      <use xlink:href="#DejaVuSans-61" x="87.447266"/>
      <use xlink:href="#DejaVuSans-69" x="148.726562"/>
      <use xlink:href="#DejaVuSans-6e" x="176.509766"/>
      <use xlink:href="#DejaVuSans-69" x="239.888672"/>
      <use xlink:href="#DejaVuSans-6e" x="267.671875"/>
      <use xlink:href="#DejaVuSans-67" x="331.050781"/>
      <use xlink:href="#DejaVuSans-20" x="394.527344"/>
      <use xlink:href="#DejaVuSans-4c" x="426.314453"/>
      <use xlink:href="#DejaVuSans-6f" x="480.277344"/>
      <use xlink:href="#DejaVuSans-73" x="541.458984"/>
      <use xlink:href="#DejaVuSans-73" x="593.558594"/>
     </g>
    </g>
    <g id="line2d_28">
     <path d="M 211.2875 65.072563 
L 221.2875 65.072563 
L 231.2875 65.072563 
" style="fill: none; stroke: #ff0000; stroke-width: 0.6; stroke-linecap: square"/>
    </g>
    <g id="text_17">
     <!-- Validation Loss -->
     <g transform="translate(239.2875 68.572563) scale(0.1 -0.1)">
      <defs>
       <path id="DejaVuSans-56" d="M 1831 0 
L 50 4666 
L 709 4666 
L 2188 738 
L 3669 4666 
L 4325 4666 
L 2547 0 
L 1831 0 
z
" transform="scale(0.015625)"/>
       <path id="DejaVuSans-74" d="M 1172 4494 
L 1172 3500 
L 2356 3500 
L 2356 3053 
L 1172 3053 
L 1172 1153 
Q 1172 725 1289 603 
Q 1406 481 1766 481 
L 2356 481 
L 2356 0 
L 1766 0 
Q 1100 0 847 248 
Q 594 497 594 1153 
L 594 3053 
L 172 3053 
L 172 3500 
L 594 3500 
L 594 4494 
L 1172 4494 
z
" transform="scale(0.015625)"/>
      </defs>
      <use xlink:href="#DejaVuSans-56"/>
      <use xlink:href="#DejaVuSans-61" x="60.658203"/>
      <use xlink:href="#DejaVuSans-6c" x="121.9375"/>
      <use xlink:href="#DejaVuSans-69" x="149.720703"/>
      <use xlink:href="#DejaVuSans-64" x="177.503906"/>
      <use xlink:href="#DejaVuSans-61" x="240.980469"/>
      <use xlink:href="#DejaVuSans-74" x="302.259766"/>
      <use xlink:href="#DejaVuSans-69" x="341.46875"/>
      <use xlink:href="#DejaVuSans-6f" x="369.251953"/>
      <use xlink:href="#DejaVuSans-6e" x="430.433594"/>
      <use xlink:href="#DejaVuSans-20" x="493.8125"/>
      <use xlink:href="#DejaVuSans-4c" x="525.599609"/>
      <use xlink:href="#DejaVuSans-6f" x="579.5625"/>
      <use xlink:href="#DejaVuSans-73" x="640.744141"/>
      <use xlink:href="#DejaVuSans-73" x="692.84375"/>
     </g>
    </g>
   </g>
  </g>
  <g id="text_18">
   <!-- Training VS. Validation Loss - Dataset Size = 100.0% -->
   <g transform="translate(34.481016 15.558281) scale(0.11 -0.11)">
    <defs>
     <path id="DejaVuSans-53" d="M 3425 4513 
L 3425 3897 
Q 3066 4069 2747 4153 
Q 2428 4238 2131 4238 
Q 1616 4238 1336 4038 
Q 1056 3838 1056 3469 
Q 1056 3159 1242 3001 
Q 1428 2844 1947 2747 
L 2328 2669 
Q 3034 2534 3370 2195 
Q 3706 1856 3706 1288 
Q 3706 609 3251 259 
Q 2797 -91 1919 -91 
Q 1588 -91 1214 -16 
Q 841 59 441 206 
L 441 856 
Q 825 641 1194 531 
Q 1563 422 1919 422 
Q 2459 422 2753 634 
Q 3047 847 3047 1241 
Q 3047 1584 2836 1778 
Q 2625 1972 2144 2069 
L 1759 2144 
Q 1053 2284 737 2584 
Q 422 2884 422 3419 
Q 422 4038 858 4394 
Q 1294 4750 2059 4750 
Q 2388 4750 2728 4690 
Q 3069 4631 3425 4513 
z
" transform="scale(0.015625)"/>
     <path id="DejaVuSans-2d" d="M 313 2009 
L 1997 2009 
L 1997 1497 
L 313 1497 
L 313 2009 
z
" transform="scale(0.015625)"/>
     <path id="DejaVuSans-44" d="M 1259 4147 
L 1259 519 
L 2022 519 
Q 2988 519 3436 956 
Q 3884 1394 3884 2338 
Q 3884 3275 3436 3711 
Q 2988 4147 2022 4147 
L 1259 4147 
z
M 628 4666 
L 1925 4666 
Q 3281 4666 3915 4102 
Q 4550 3538 4550 2338 
Q 4550 1131 3912 565 
Q 3275 0 1925 0 
L 628 0 
L 628 4666 
z
" transform="scale(0.015625)"/>
     <path id="DejaVuSans-7a" d="M 353 3500 
L 3084 3500 
L 3084 2975 
L 922 459 
L 3084 459 
L 3084 0 
L 275 0 
L 275 525 
L 2438 3041 
L 353 3041 
L 353 3500 
z
" transform="scale(0.015625)"/>
     <path id="DejaVuSans-3d" d="M 678 2906 
L 4684 2906 
L 4684 2381 
L 678 2381 
L 678 2906 
z
M 678 1631 
L 4684 1631 
L 4684 1100 
L 678 1100 
L 678 1631 
z
" transform="scale(0.015625)"/>
     <path id="DejaVuSans-25" d="M 4653 2053 
Q 4381 2053 4226 1822 
Q 4072 1591 4072 1178 
Q 4072 772 4226 539 
Q 4381 306 4653 306 
Q 4919 306 5073 539 
Q 5228 772 5228 1178 
Q 5228 1588 5073 1820 
Q 4919 2053 4653 2053 
z
M 4653 2450 
Q 5147 2450 5437 2106 
Q 5728 1763 5728 1178 
Q 5728 594 5436 251 
Q 5144 -91 4653 -91 
Q 4153 -91 3862 251 
Q 3572 594 3572 1178 
Q 3572 1766 3864 2108 
Q 4156 2450 4653 2450 
z
M 1428 4353 
Q 1159 4353 1004 4120 
Q 850 3888 850 3481 
Q 850 3069 1003 2837 
Q 1156 2606 1428 2606 
Q 1700 2606 1854 2837 
Q 2009 3069 2009 3481 
Q 2009 3884 1853 4118 
Q 1697 4353 1428 4353 
z
M 4250 4750 
L 4750 4750 
L 1831 -91 
L 1331 -91 
L 4250 4750 
z
M 1428 4750 
Q 1922 4750 2215 4408 
Q 2509 4066 2509 3481 
Q 2509 2891 2217 2550 
Q 1925 2209 1428 2209 
Q 931 2209 642 2551 
Q 353 2894 353 3481 
Q 353 4063 643 4406 
Q 934 4750 1428 4750 
z
" transform="scale(0.015625)"/>
    </defs>
    <use xlink:href="#DejaVuSans-54"/>
    <use xlink:href="#DejaVuSans-72" x="46.333984"/>
    <use xlink:href="#DejaVuSans-61" x="87.447266"/>
    <use xlink:href="#DejaVuSans-69" x="148.726562"/>
    <use xlink:href="#DejaVuSans-6e" x="176.509766"/>
    <use xlink:href="#DejaVuSans-69" x="239.888672"/>
    <use xlink:href="#DejaVuSans-6e" x="267.671875"/>
    <use xlink:href="#DejaVuSans-67" x="331.050781"/>
    <use xlink:href="#DejaVuSans-20" x="394.527344"/>
    <use xlink:href="#DejaVuSans-56" x="426.314453"/>
    <use xlink:href="#DejaVuSans-53" x="494.722656"/>
    <use xlink:href="#DejaVuSans-2e" x="558.199219"/>
    <use xlink:href="#DejaVuSans-20" x="589.986328"/>
    <use xlink:href="#DejaVuSans-56" x="621.773438"/>
    <use xlink:href="#DejaVuSans-61" x="682.431641"/>
    <use xlink:href="#DejaVuSans-6c" x="743.710938"/>
    <use xlink:href="#DejaVuSans-69" x="771.494141"/>
    <use xlink:href="#DejaVuSans-64" x="799.277344"/>
    <use xlink:href="#DejaVuSans-61" x="862.753906"/>
    <use xlink:href="#DejaVuSans-74" x="924.033203"/>
    <use xlink:href="#DejaVuSans-69" x="963.242188"/>
    <use xlink:href="#DejaVuSans-6f" x="991.025391"/>
    <use xlink:href="#DejaVuSans-6e" x="1052.207031"/>
    <use xlink:href="#DejaVuSans-20" x="1115.585938"/>
    <use xlink:href="#DejaVuSans-4c" x="1147.373047"/>
    <use xlink:href="#DejaVuSans-6f" x="1201.335938"/>
    <use xlink:href="#DejaVuSans-73" x="1262.517578"/>
    <use xlink:href="#DejaVuSans-73" x="1314.617188"/>
    <use xlink:href="#DejaVuSans-20" x="1366.716797"/>
    <use xlink:href="#DejaVuSans-2d" x="1398.503906"/>
    <use xlink:href="#DejaVuSans-20" x="1434.587891"/>
    <use xlink:href="#DejaVuSans-44" x="1466.375"/>
    <use xlink:href="#DejaVuSans-61" x="1543.376953"/>
    <use xlink:href="#DejaVuSans-74" x="1604.65625"/>
    <use xlink:href="#DejaVuSans-61" x="1643.865234"/>
    <use xlink:href="#DejaVuSans-73" x="1705.144531"/>
    <use xlink:href="#DejaVuSans-65" x="1757.244141"/>
    <use xlink:href="#DejaVuSans-74" x="1818.767578"/>
    <use xlink:href="#DejaVuSans-20" x="1857.976562"/>
    <use xlink:href="#DejaVuSans-53" x="1889.763672"/>
    <use xlink:href="#DejaVuSans-69" x="1953.240234"/>
    <use xlink:href="#DejaVuSans-7a" x="1981.023438"/>
    <use xlink:href="#DejaVuSans-65" x="2033.513672"/>
    <use xlink:href="#DejaVuSans-20" x="2095.037109"/>
    <use xlink:href="#DejaVuSans-3d" x="2126.824219"/>
    <use xlink:href="#DejaVuSans-20" x="2210.613281"/>
    <use xlink:href="#DejaVuSans-31" x="2242.400391"/>
    <use xlink:href="#DejaVuSans-30" x="2306.023438"/>
    <use xlink:href="#DejaVuSans-30" x="2369.646484"/>
    <use xlink:href="#DejaVuSans-2e" x="2433.269531"/>
    <use xlink:href="#DejaVuSans-30" x="2465.056641"/>
    <use xlink:href="#DejaVuSans-25" x="2528.679688"/>
   </g>
  </g>
 </g>
 <defs>
  <clipPath id="pf9a718df21">
   <rect x="43.78125" y="37.296" width="279" height="202.464"/>
  </clipPath>
 </defs>
</svg>
