<?xml version="1.0" encoding="utf-8" standalone="no"?>
<!DOCTYPE svg PUBLIC "-//W3C//DTD SVG 1.1//EN"
  "http://www.w3.org/Graphics/SVG/1.1/DTD/svg11.dtd">
<svg xmlns:xlink="http://www.w3.org/1999/xlink" width="336.643984pt" height="277.31625pt" viewBox="0 0 336.643984 277.31625" xmlns="http://www.w3.org/2000/svg" version="1.1">
 <metadata>
  <rdf:RDF xmlns:dc="http://purl.org/dc/elements/1.1/" xmlns:cc="http://creativecommons.org/ns#" xmlns:rdf="http://www.w3.org/1999/02/22-rdf-syntax-ns#">
   <cc:Work>
    <dc:type rdf:resource="http://purl.org/dc/dcmitype/StillImage"/>
    <dc:date>2026-06-11T17:58:25.533352</dc:date>
    <dc:format>image/svg+xml</dc:format>
    <dc:creator>
     <cc:Agent>
      <dc:title>Matplotlib v3.8.4, https://matplotlib.org/</dc:title>
     </cc:Agent>
    </dc:creator>
   </cc:Work>
  </rdf:RDF>
 </metadata>
 <defs>
  <style type="text/css">*{stroke-linejoin: round; stroke-linecap: butt}</style>
 </defs>
 <g id="figure_1">
  <g id="patch_1">
   <path d="M 0 277.31625 
L 336.643984 277.31625 
L 336.643984 0 
L 0 0 
z
" style="fill: #ffffff"/>
  </g>
  <g id="axes_1">
   <g id="patch_2">
    <path d="M 50.14375 239.76 
L 329.14375 239.76 
L 329.14375 37.296 
L 50.14375 37.296 
z
" style="fill: #ffffff"/>
   </g>
   <g id="matplotlib.axis_1">
    <g id="xtick_1">
     <g id="line2d_1">
      <path d="M 62.571678 239.76 
L 62.571678 37.296 
" clip-path="url(#p1b5deb4ace)" style="fill: none; stroke-dasharray: 2.96,1.28; stroke-dashoffset: 0; stroke: #b0b0b0; stroke-opacity: 0.4; stroke-width: 0.8"/>
     </g>
     <g id="line2d_2">
      <defs>
       <path id="md1de8016f9" d="M 0 0 
L 0 3.5 
" style="stroke: #000000; stroke-width: 0.8"/>
      </defs>
      <g>
       <use xlink:href="#md1de8016f9" x="62.571678" y="239.76" style="stroke: #000000; stroke-width: 0.8"/>
      </g>
     </g>
     <g id="text_1">
      <!-- 0 -->
      <g transform="translate(59.390428 254.358437) scale(0.1 -0.1)">
       <defs>
        <path id="DejaVuSans-30" d="M 2034 4250 
Q 1547 4250 1301 3770 
Q 1056 3291 1056 2328 
Q 1056 1369 1301 889 
Q 1547 409 2034 409 
Q 2525 409 2770 889 
Q 3016 1369 3016 2328 
Q 3016 3291 2770 3770 
Q 2525 4250 2034 4250 
z
M 2034 4750 
Q 2819 4750 3233 4129 
Q 3647 3509 3647 2328 
Q 3647 1150 3233 529 
Q 2819 -91 2034 -91 
Q 1250 -91 836 529 
Q 422 1150 422 2328 
Q 422 3509 836 4129 
Q 1250 4750 2034 4750 
z
" transform="scale(0.015625)"/>
       </defs>
       <use xlink:href="#DejaVuSans-30"/>
      </g>
     </g>
    </g>
    <g id="xtick_2">
     <g id="line2d_3">
      <path d="M 113.349729 239.76 
L 113.349729 37.296 
" clip-path="url(#p1b5deb4ace)" style="fill: none; stroke-dasharray: 2.96,1.28; stroke-dashoffset: 0; stroke: #b0b0b0; stroke-opacity: 0.4; stroke-width: 0.8"/>
     </g>
     <g id="line2d_4">
      <g>
       <use xlink:href="#md1de8016f9" x="113.349729" y="239.76" style="stroke: #000000; stroke-width: 0.8"/>
      </g>
     </g>
     <g id="text_2">
      <!-- 200 -->
      <g transform="translate(103.805979 254.358437) scale(0.1 -0.1)">
       <defs>
        <path id="DejaVuSans-32" d="M 1228 531 
L 3431 531 
L 3431 0 
L 469 0 
L 469 531 
Q 828 903 1448 1529 
Q 2069 2156 2228 2338 
Q 2531 2678 2651 2914 
Q 2772 3150 2772 3378 
Q 2772 3750 2511 3984 
Q 2250 4219 1831 4219 
Q 1534 4219 1204 4116 
Q 875 4013 500 3803 
L 500 4441 
Q 881 4594 1212 4672 
Q 1544 4750 1819 4750 
Q 2544 4750 2975 4387 
Q 3406 4025 3406 3419 
Q 3406 3131 3298 2873 
Q 3191 2616 2906 2266 
Q 2828 2175 2409 1742 
Q 1991 1309 1228 531 
z
" transform="scale(0.015625)"/>
       </defs>
       <use xlink:href="#DejaVuSans-32"/>
       <use xlink:href="#DejaVuSans-30" x="63.623047"/>
       <use xlink:href="#DejaVuSans-30" x="127.246094"/>
      </g>
     </g>
    </g>
    <g id="xtick_3">
     <g id="line2d_5">
      <path d="M 164.127779 239.76 
L 164.127779 37.296 
" clip-path="url(#p1b5deb4ace)" style="fill: none; stroke-dasharray: 2.96,1.28; stroke-dashoffset: 0; stroke: #b0b0b0; stroke-opacity: 0.4; stroke-width: 0.8"/>
     </g>
     <g id="line2d_6">
      <g>
       <use xlink:href="#md1de8016f9" x="164.127779" y="239.76" style="stroke: #000000; stroke-width: 0.8"/>
      </g>
     </g>
     <g id="text_3">
      <!-- 400 -->
      <g transform="translate(154.584029 254.358437) scale(0.1 -0.1)">
       <defs>
        <path id="DejaVuSans-34" d="M 2419 4116 
L 825 1625 
L 2419 1625 
L 2419 4116 
z
M 2253 4666 
L 3047 4666 
L 3047 1625 
L 3713 1625 
L 3713 1100 
L 3047 1100 
L 3047 0 
L 2419 0 
L 2419 1100 
L 313 1100 
L 313 1709 
L 2253 4666 
z
" transform="scale(0.015625)"/>
       </defs>
       <use xlink:href="#DejaVuSans-34"/>
       <use xlink:href="#DejaVuSans-30" x="63.623047"/>
       <use xlink:href="#DejaVuSans-30" x="127.246094"/>
      </g>
     </g>
    </g>
    <g id="xtick_4">
     <g id="line2d_7">
      <path d="M 214.90583 239.76 
L 214.90583 37.296 
" clip-path="url(#p1b5deb4ace)" style="fill: none; stroke-dasharray: 2.96,1.28; stroke-dashoffset: 0; stroke: #b0b0b0; stroke-opacity: 0.4; stroke-width: 0.8"/>
     </g>
     <g id="line2d_8">
      <g>
       <use xlink:href="#md1de8016f9" x="214.90583" y="239.76" style="stroke: #000000; stroke-width: 0.8"/>
      </g>
     </g>
     <g id="text_4">
      <!-- 600 -->
      <g transform="translate(205.36208 254.358437) scale(0.1 -0.1)">
       <defs>
        <path id="DejaVuSans-36" d="M 2113 2584 
Q 1688 2584 1439 2293 
Q 1191 2003 1191 1497 
Q 1191 994 1439 701 
Q 1688 409 2113 409 
Q 2538 409 2786 701 
Q 3034 994 3034 1497 
Q 3034 2003 2786 2293 
Q 2538 2584 2113 2584 
z
M 3366 4563 
L 3366 3988 
Q 3128 4100 2886 4159 
Q 2644 4219 2406 4219 
Q 1781 4219 1451 3797 
Q 1122 3375 1075 2522 
Q 1259 2794 1537 2939 
Q 1816 3084 2150 3084 
Q 2853 3084 3261 2657 
Q 3669 2231 3669 1497 
Q 3669 778 3244 343 
Q 2819 -91 2113 -91 
Q 1303 -91 875 529 
Q 447 1150 447 2328 
Q 447 3434 972 4092 
Q 1497 4750 2381 4750 
Q 2619 4750 2861 4703 
Q 3103 4656 3366 4563 
z
" transform="scale(0.015625)"/>
       </defs>
       <use xlink:href="#DejaVuSans-36"/>
       <use xlink:href="#DejaVuSans-30" x="63.623047"/>
       <use xlink:href="#DejaVuSans-30" x="127.246094"/>
      </g>
     </g>
    </g>
    <g id="xtick_5">
     <g id="line2d_9">
      <path d="M 265.683881 239.76 
L 265.683881 37.296 
" clip-path="url(#p1b5deb4ace)" style="fill: none; stroke-dasharray: 2.96,1.28; stroke-dashoffset: 0; stroke: #b0b0b0; stroke-opacity: 0.4; stroke-width: 0.8"/>
     </g>
     <g id="line2d_10">
      <g>
       <use xlink:href="#md1de8016f9" x="265.683881" y="239.76" style="stroke: #000000; stroke-width: 0.8"/>
      </g>
     </g>
     <g id="text_5">
      <!-- 800 -->
      <g transform="translate(256.140131 254.358437) scale(0.1 -0.1)">
       <defs>
        <path id="DejaVuSans-38" d="M 2034 2216 
Q 1584 2216 1326 1975 
Q 1069 1734 1069 1313 
Q 1069 891 1326 650 
Q 1584 409 2034 409 
Q 2484 409 2743 651 
Q 3003 894 3003 1313 
Q 3003 1734 2745 1975 
Q 2488 2216 2034 2216 
z
M 1403 2484 
Q 997 2584 770 2862 
Q 544 3141 544 3541 
Q 544 4100 942 4425 
Q 1341 4750 2034 4750 
Q 2731 4750 3128 4425 
Q 3525 4100 3525 3541 
Q 3525 3141 3298 2862 
Q 3072 2584 2669 2484 
Q 3125 2378 3379 2068 
Q 3634 1759 3634 1313 
Q 3634 634 3220 271 
Q 2806 -91 2034 -91 
Q 1263 -91 848 271 
Q 434 634 434 1313 
Q 434 1759 690 2068 
Q 947 2378 1403 2484 
z
M 1172 3481 
Q 1172 3119 1398 2916 
Q 1625 2713 2034 2713 
Q 2441 2713 2670 2916 
Q 2900 3119 2900 3481 
Q 2900 3844 2670 4047 
Q 2441 4250 2034 4250 
Q 1625 4250 1398 4047 
Q 1172 3844 1172 3481 
z
" transform="scale(0.015625)"/>
       </defs>
       <use xlink:href="#DejaVuSans-38"/>
       <use xlink:href="#DejaVuSans-30" x="63.623047"/>
       <use xlink:href="#DejaVuSans-30" x="127.246094"/>
      </g>
     </g>
    </g>
    <g id="xtick_6">
     <g id="line2d_11">
      <path d="M 316.461932 239.76 
L 316.461932 37.296 
" clip-path="url(#p1b5deb4ace)" style="fill: none; stroke-dasharray: 2.96,1.28; stroke-dashoffset: 0; stroke: #b0b0b0; stroke-opacity: 0.4; stroke-width: 0.8"/>
     </g>
     <g id="line2d_12">
      <g>
       <use xlink:href="#md1de8016f9" x="316.461932" y="239.76" style="stroke: #000000; stroke-width: 0.8"/>
      </g>
     </g>
     <g id="text_6">
      <!-- 1000 -->
      <g transform="translate(303.736932 254.358437) scale(0.1 -0.1)">
       <defs>
        <path id="DejaVuSans-31" d="M 794 531 
L 1825 531 
L 1825 4091 
L 703 3866 
L 703 4441 
L 1819 4666 
L 2450 4666 
L 2450 531 
L 3481 531 
L 3481 0 
L 794 0 
L 794 531 
z
" transform="scale(0.015625)"/>
       </defs>
       <use xlink:href="#DejaVuSans-31"/>
       <use xlink:href="#DejaVuSans-30" x="63.623047"/>
       <use xlink:href="#DejaVuSans-30" x="127.246094"/>
       <use xlink:href="#DejaVuSans-30" x="190.869141"/>
      </g>
     </g>
    </g>
    <g id="text_7">
     <!-- Epochs -->
     <g transform="translate(171.728125 268.036562) scale(0.1 -0.1)">
      <defs>
       <path id="DejaVuSans-45" d="M 628 4666 
L 3578 4666 
L 3578 4134 
L 1259 4134 
L 1259 2753 
L 3481 2753 
L 3481 2222 
L 1259 2222 
L 1259 531 
L 3634 531 
L 3634 0 
L 628 0 
L 628 4666 
z
" transform="scale(0.015625)"/>
       <path id="DejaVuSans-70" d="M 1159 525 
L 1159 -1331 
L 581 -1331 
L 581 3500 
L 1159 3500 
L 1159 2969 
Q 1341 3281 1617 3432 
Q 1894 3584 2278 3584 
Q 2916 3584 3314 3078 
Q 3713 2572 3713 1747 
Q 3713 922 3314 415 
Q 2916 -91 2278 -91 
Q 1894 -91 1617 61 
Q 1341 213 1159 525 
z
M 3116 1747 
Q 3116 2381 2855 2742 
Q 2594 3103 2138 3103 
Q 1681 3103 1420 2742 
Q 1159 2381 1159 1747 
Q 1159 1113 1420 752 
Q 1681 391 2138 391 
Q 2594 391 2855 752 
Q 3116 1113 3116 1747 
z
" transform="scale(0.015625)"/>
       <path id="DejaVuSans-6f" d="M 1959 3097 
Q 1497 3097 1228 2736 
Q 959 2375 959 1747 
Q 959 1119 1226 758 
Q 1494 397 1959 397 
Q 2419 397 2687 759 
Q 2956 1122 2956 1747 
Q 2956 2369 2687 2733 
Q 2419 3097 1959 3097 
z
M 1959 3584 
Q 2709 3584 3137 3096 
Q 3566 2609 3566 1747 
Q 3566 888 3137 398 
Q 2709 -91 1959 -91 
Q 1206 -91 779 398 
Q 353 888 353 1747 
Q 353 2609 779 3096 
Q 1206 3584 1959 3584 
z
" transform="scale(0.015625)"/>
       <path id="DejaVuSans-63" d="M 3122 3366 
L 3122 2828 
Q 2878 2963 2633 3030 
Q 2388 3097 2138 3097 
Q 1578 3097 1268 2742 
Q 959 2388 959 1747 
Q 959 1106 1268 751 
Q 1578 397 2138 397 
Q 2388 397 2633 464 
Q 2878 531 3122 666 
L 3122 134 
Q 2881 22 2623 -34 
Q 2366 -91 2075 -91 
Q 1284 -91 818 406 
Q 353 903 353 1747 
Q 353 2603 823 3093 
Q 1294 3584 2113 3584 
Q 2378 3584 2631 3529 
Q 2884 3475 3122 3366 
z
" transform="scale(0.015625)"/>
       <path id="DejaVuSans-68" d="M 3513 2113 
L 3513 0 
L 2938 0 
L 2938 2094 
Q 2938 2591 2744 2837 
Q 2550 3084 2163 3084 
Q 1697 3084 1428 2787 
Q 1159 2491 1159 1978 
L 1159 0 
L 581 0 
L 581 4863 
L 1159 4863 
L 1159 2956 
Q 1366 3272 1645 3428 
Q 1925 3584 2291 3584 
Q 2894 3584 3203 3211 
Q 3513 2838 3513 2113 
z
" transform="scale(0.015625)"/>
       <path id="DejaVuSans-73" d="M 2834 3397 
L 2834 2853 
Q 2591 2978 2328 3040 
Q 2066 3103 1784 3103 
Q 1356 3103 1142 2972 
Q 928 2841 928 2578 
Q 928 2378 1081 2264 
Q 1234 2150 1697 2047 
L 1894 2003 
Q 2506 1872 2764 1633 
Q 3022 1394 3022 966 
Q 3022 478 2636 193 
Q 2250 -91 1575 -91 
Q 1294 -91 989 -36 
Q 684 19 347 128 
L 347 722 
Q 666 556 975 473 
Q 1284 391 1588 391 
Q 1994 391 2212 530 
Q 2431 669 2431 922 
Q 2431 1156 2273 1281 
Q 2116 1406 1581 1522 
L 1381 1569 
Q 847 1681 609 1914 
Q 372 2147 372 2553 
Q 372 3047 722 3315 
Q 1072 3584 1716 3584 
Q 2034 3584 2315 3537 
Q 2597 3491 2834 3397 
z
" transform="scale(0.015625)"/>
      </defs>
      <use xlink:href="#DejaVuSans-45"/>
      <use xlink:href="#DejaVuSans-70" x="63.183594"/>
      <use xlink:href="#DejaVuSans-6f" x="126.660156"/>
      <use xlink:href="#DejaVuSans-63" x="187.841797"/>
      <use xlink:href="#DejaVuSans-68" x="242.822266"/>
      <use xlink:href="#DejaVuSans-73" x="306.201172"/>
     </g>
    </g>
   </g>
   <g id="matplotlib.axis_2">
    <g id="ytick_1">
     <g id="line2d_13">
      <path d="M 50.14375 231.866633 
L 329.14375 231.866633 
" clip-path="url(#p1b5deb4ace)" style="fill: none; stroke-dasharray: 2.96,1.28; stroke-dashoffset: 0; stroke: #b0b0b0; stroke-opacity: 0.4; stroke-width: 0.8"/>
     </g>
     <g id="line2d_14">
      <defs>
       <path id="m48eb4696d8" d="M 0 0 
L -3.5 0 
" style="stroke: #000000; stroke-width: 0.8"/>
      </defs>
      <g>
       <use xlink:href="#m48eb4696d8" x="50.14375" y="231.866633" style="stroke: #000000; stroke-width: 0.8"/>
      </g>
     </g>
     <g id="text_8">
      <!-- 0.65 -->
      <g transform="translate(20.878125 235.665852) scale(0.1 -0.1)">
       <defs>
        <path id="DejaVuSans-2e" d="M 684 794 
L 1344 794 
L 1344 0 
L 684 0 
L 684 794 
z
" transform="scale(0.015625)"/>
        <path id="DejaVuSans-35" d="M 691 4666 
L 3169 4666 
L 3169 4134 
L 1269 4134 
L 1269 2991 
Q 1406 3038 1543 3061 
Q 1681 3084 1819 3084 
Q 2600 3084 3056 2656 
Q 3513 2228 3513 1497 
Q 3513 744 3044 326 
Q 2575 -91 1722 -91 
Q 1428 -91 1123 -41 
Q 819 9 494 109 
L 494 744 
Q 775 591 1075 516 
Q 1375 441 1709 441 
Q 2250 441 2565 725 
Q 2881 1009 2881 1497 
Q 2881 1984 2565 2268 
Q 2250 2553 1709 2553 
Q 1456 2553 1204 2497 
Q 953 2441 691 2322 
L 691 4666 
z
" transform="scale(0.015625)"/>
       </defs>
       <use xlink:href="#DejaVuSans-30"/>
       <use xlink:href="#DejaVuSans-2e" x="63.623047"/>
       <use xlink:href="#DejaVuSans-36" x="95.410156"/>
       <use xlink:href="#DejaVuSans-35" x="159.033203"/>
      </g>
     </g>
    </g>
    <g id="ytick_2">
     <g id="line2d_15">
      <path d="M 50.14375 209.352669 
L 329.14375 209.352669 
" clip-path="url(#p1b5deb4ace)" style="fill: none; stroke-dasharray: 2.96,1.28; stroke-dashoffset: 0; stroke: #b0b0b0; stroke-opacity: 0.4; stroke-width: 0.8"/>
     </g>
     <g id="line2d_16">
      <g>
       <use xlink:href="#m48eb4696d8" x="50.14375" y="209.352669" style="stroke: #000000; stroke-width: 0.8"/>
      </g>
     </g>
     <g id="text_9">
      <!-- 0.66 -->
      <g transform="translate(20.878125 213.151888) scale(0.1 -0.1)">
       <use xlink:href="#DejaVuSans-30"/>
       <use xlink:href="#DejaVuSans-2e" x="63.623047"/>
       <use xlink:href="#DejaVuSans-36" x="95.410156"/>
       <use xlink:href="#DejaVuSans-36" x="159.033203"/>
      </g>
     </g>
    </g>
    <g id="ytick_3">
     <g id="line2d_17">
      <path d="M 50.14375 186.838704 
L 329.14375 186.838704 
" clip-path="url(#p1b5deb4ace)" style="fill: none; stroke-dasharray: 2.96,1.28; stroke-dashoffset: 0; stroke: #b0b0b0; stroke-opacity: 0.4; stroke-width: 0.8"/>
     </g>
     <g id="line2d_18">
      <g>
       <use xlink:href="#m48eb4696d8" x="50.14375" y="186.838704" style="stroke: #000000; stroke-width: 0.8"/>
      </g>
     </g>
     <g id="text_10">
      <!-- 0.67 -->
      <g transform="translate(20.878125 190.637923) scale(0.1 -0.1)">
       <defs>
        <path id="DejaVuSans-37" d="M 525 4666 
L 3525 4666 
L 3525 4397 
L 1831 0 
L 1172 0 
L 2766 4134 
L 525 4134 
L 525 4666 
z
" transform="scale(0.015625)"/>
       </defs>
       <use xlink:href="#DejaVuSans-30"/>
       <use xlink:href="#DejaVuSans-2e" x="63.623047"/>
       <use xlink:href="#DejaVuSans-36" x="95.410156"/>
       <use xlink:href="#DejaVuSans-37" x="159.033203"/>
      </g>
     </g>
    </g>
    <g id="ytick_4">
     <g id="line2d_19">
      <path d="M 50.14375 164.324739 
L 329.14375 164.324739 
" clip-path="url(#p1b5deb4ace)" style="fill: none; stroke-dasharray: 2.96,1.28; stroke-dashoffset: 0; stroke: #b0b0b0; stroke-opacity: 0.4; stroke-width: 0.8"/>
     </g>
     <g id="line2d_20">
      <g>
       <use xlink:href="#m48eb4696d8" x="50.14375" y="164.324739" style="stroke: #000000; stroke-width: 0.8"/>
      </g>
     </g>
     <g id="text_11">
      <!-- 0.68 -->
      <g transform="translate(20.878125 168.123958) scale(0.1 -0.1)">
       <use xlink:href="#DejaVuSans-30"/>
       <use xlink:href="#DejaVuSans-2e" x="63.623047"/>
       <use xlink:href="#DejaVuSans-36" x="95.410156"/>
       <use xlink:href="#DejaVuSans-38" x="159.033203"/>
      </g>
     </g>
    </g>
    <g id="ytick_5">
     <g id="line2d_21">
      <path d="M 50.14375 141.810775 
L 329.14375 141.810775 
" clip-path="url(#p1b5deb4ace)" style="fill: none; stroke-dasharray: 2.96,1.28; stroke-dashoffset: 0; stroke: #b0b0b0; stroke-opacity: 0.4; stroke-width: 0.8"/>
     </g>
     <g id="line2d_22">
      <g>
       <use xlink:href="#m48eb4696d8" x="50.14375" y="141.810775" style="stroke: #000000; stroke-width: 0.8"/>
      </g>
     </g>
     <g id="text_12">
      <!-- 0.69 -->
      <g transform="translate(20.878125 145.609994) scale(0.1 -0.1)">
       <defs>
        <path id="DejaVuSans-39" d="M 703 97 
L 703 672 
Q 941 559 1184 500 
Q 1428 441 1663 441 
Q 2288 441 2617 861 
Q 2947 1281 2994 2138 
Q 2813 1869 2534 1725 
Q 2256 1581 1919 1581 
Q 1219 1581 811 2004 
Q 403 2428 403 3163 
Q 403 3881 828 4315 
Q 1253 4750 1959 4750 
Q 2769 4750 3195 4129 
Q 3622 3509 3622 2328 
Q 3622 1225 3098 567 
Q 2575 -91 1691 -91 
Q 1453 -91 1209 -44 
Q 966 3 703 97 
z
M 1959 2075 
Q 2384 2075 2632 2365 
Q 2881 2656 2881 3163 
Q 2881 3666 2632 3958 
Q 2384 4250 1959 4250 
Q 1534 4250 1286 3958 
Q 1038 3666 1038 3163 
Q 1038 2656 1286 2365 
Q 1534 2075 1959 2075 
z
" transform="scale(0.015625)"/>
       </defs>
       <use xlink:href="#DejaVuSans-30"/>
       <use xlink:href="#DejaVuSans-2e" x="63.623047"/>
       <use xlink:href="#DejaVuSans-36" x="95.410156"/>
       <use xlink:href="#DejaVuSans-39" x="159.033203"/>
      </g>
     </g>
    </g>
    <g id="ytick_6">
     <g id="line2d_23">
      <path d="M 50.14375 119.29681 
L 329.14375 119.29681 
" clip-path="url(#p1b5deb4ace)" style="fill: none; stroke-dasharray: 2.96,1.28; stroke-dashoffset: 0; stroke: #b0b0b0; stroke-opacity: 0.4; stroke-width: 0.8"/>
     </g>
     <g id="line2d_24">
      <g>
       <use xlink:href="#m48eb4696d8" x="50.14375" y="119.29681" style="stroke: #000000; stroke-width: 0.8"/>
      </g>
     </g>
     <g id="text_13">
      <!-- 0.70 -->
      <g transform="translate(20.878125 123.096029) scale(0.1 -0.1)">
       <use xlink:href="#DejaVuSans-30"/>
       <use xlink:href="#DejaVuSans-2e" x="63.623047"/>
       <use xlink:href="#DejaVuSans-37" x="95.410156"/>
       <use xlink:href="#DejaVuSans-30" x="159.033203"/>
      </g>
     </g>
    </g>
    <g id="ytick_7">
     <g id="line2d_25">
      <path d="M 50.14375 96.782845 
L 329.14375 96.782845 
" clip-path="url(#p1b5deb4ace)" style="fill: none; stroke-dasharray: 2.96,1.28; stroke-dashoffset: 0; stroke: #b0b0b0; stroke-opacity: 0.4; stroke-width: 0.8"/>
     </g>
     <g id="line2d_26">
      <g>
       <use xlink:href="#m48eb4696d8" x="50.14375" y="96.782845" style="stroke: #000000; stroke-width: 0.8"/>
      </g>
     </g>
     <g id="text_14">
      <!-- 0.71 -->
      <g transform="translate(20.878125 100.582064) scale(0.1 -0.1)">
       <use xlink:href="#DejaVuSans-30"/>
       <use xlink:href="#DejaVuSans-2e" x="63.623047"/>
       <use xlink:href="#DejaVuSans-37" x="95.410156"/>
       <use xlink:href="#DejaVuSans-31" x="159.033203"/>
      </g>
     </g>
    </g>
    <g id="ytick_8">
     <g id="line2d_27">
      <path d="M 50.14375 74.268881 
L 329.14375 74.268881 
" clip-path="url(#p1b5deb4ace)" style="fill: none; stroke-dasharray: 2.96,1.28; stroke-dashoffset: 0; stroke: #b0b0b0; stroke-opacity: 0.4; stroke-width: 0.8"/>
     </g>
     <g id="line2d_28">
      <g>
       <use xlink:href="#m48eb4696d8" x="50.14375" y="74.268881" style="stroke: #000000; stroke-width: 0.8"/>
      </g>
     </g>
     <g id="text_15">
      <!-- 0.72 -->
      <g transform="translate(20.878125 78.0681) scale(0.1 -0.1)">
       <use xlink:href="#DejaVuSans-30"/>
       <use xlink:href="#DejaVuSans-2e" x="63.623047"/>
       <use xlink:href="#DejaVuSans-37" x="95.410156"/>
       <use xlink:href="#DejaVuSans-32" x="159.033203"/>
      </g>
     </g>
    </g>
    <g id="ytick_9">
     <g id="line2d_29">
      <path d="M 50.14375 51.754916 
L 329.14375 51.754916 
" clip-path="url(#p1b5deb4ace)" style="fill: none; stroke-dasharray: 2.96,1.28; stroke-dashoffset: 0; stroke: #b0b0b0; stroke-opacity: 0.4; stroke-width: 0.8"/>
     </g>
     <g id="line2d_30">
      <g>
       <use xlink:href="#m48eb4696d8" x="50.14375" y="51.754916" style="stroke: #000000; stroke-width: 0.8"/>
      </g>
     </g>
     <g id="text_16">
      <!-- 0.73 -->
      <g transform="translate(20.878125 55.554135) scale(0.1 -0.1)">
       <defs>
        <path id="DejaVuSans-33" d="M 2597 2516 
Q 3050 2419 3304 2112 
Q 3559 1806 3559 1356 
Q 3559 666 3084 287 
Q 2609 -91 1734 -91 
Q 1441 -91 1130 -33 
Q 819 25 488 141 
L 488 750 
Q 750 597 1062 519 
Q 1375 441 1716 441 
Q 2309 441 2620 675 
Q 2931 909 2931 1356 
Q 2931 1769 2642 2001 
Q 2353 2234 1838 2234 
L 1294 2234 
L 1294 2753 
L 1863 2753 
Q 2328 2753 2575 2939 
Q 2822 3125 2822 3475 
Q 2822 3834 2567 4026 
Q 2313 4219 1838 4219 
Q 1578 4219 1281 4162 
Q 984 4106 628 3988 
L 628 4550 
Q 988 4650 1302 4700 
Q 1616 4750 1894 4750 
Q 2613 4750 3031 4423 
Q 3450 4097 3450 3541 
Q 3450 3153 3228 2886 
Q 3006 2619 2597 2516 
z
" transform="scale(0.015625)"/>
       </defs>
       <use xlink:href="#DejaVuSans-30"/>
       <use xlink:href="#DejaVuSans-2e" x="63.623047"/>
       <use xlink:href="#DejaVuSans-37" x="95.410156"/>
       <use xlink:href="#DejaVuSans-33" x="159.033203"/>
      </g>
     </g>
    </g>
    <g id="text_17">
     <!-- Loss -->
     <g transform="translate(14.798438 149.495187) rotate(-90) scale(0.1 -0.1)">
      <defs>
       <path id="DejaVuSans-4c" d="M 628 4666 
L 1259 4666 
L 1259 531 
L 3531 531 
L 3531 0 
L 628 0 
L 628 4666 
z
" transform="scale(0.015625)"/>
      </defs>
      <use xlink:href="#DejaVuSans-4c"/>
      <use xlink:href="#DejaVuSans-6f" x="53.962891"/>
      <use xlink:href="#DejaVuSans-73" x="115.144531"/>
      <use xlink:href="#DejaVuSans-73" x="167.244141"/>
     </g>
    </g>
   </g>
   <g id="line2d_31">
    <path d="M 62.825568 46.498909 
L 63.079458 142.583065 
L 63.333349 148.468263 
L 63.587239 148.388284 
L 63.841129 153.664243 
L 64.095019 153.965508 
L 64.34891 157.78466 
L 64.6028 143.617027 
L 65.11058 153.627339 
L 65.364471 166.185587 
L 65.872251 157.737424 
L 66.633922 165.469798 
L 66.887812 170.607001 
L 67.141702 170.7628 
L 67.395593 168.04162 
L 67.649483 163.351953 
L 67.903373 170.738779 
L 68.157264 153.437321 
L 68.411154 159.166184 
L 68.665044 169.378726 
L 68.918934 173.014033 
L 69.172825 166.18183 
L 69.426715 166.599172 
L 69.680605 174.749023 
L 69.934495 173.54705 
L 70.188386 170.266417 
L 70.442276 176.426176 
L 70.696166 175.01325 
L 70.950056 169.906376 
L 71.457837 177.400825 
L 71.711727 189.153373 
L 71.965617 176.671884 
L 72.219508 177.992082 
L 72.473398 172.909764 
L 72.727288 188.308893 
L 72.981178 190.007785 
L 73.235069 188.472072 
L 73.488959 175.835589 
L 73.742849 178.605213 
L 73.996739 190.543352 
L 74.25063 183.571855 
L 74.50452 181.102557 
L 74.75841 188.629213 
L 75.0123 184.414189 
L 75.266191 187.008422 
L 75.520081 185.685674 
L 75.773971 191.272694 
L 76.027861 190.366619 
L 76.281752 190.525235 
L 76.535642 193.030229 
L 76.789532 188.302854 
L 77.043422 188.436645 
L 77.297313 199.226086 
L 77.551203 199.322705 
L 77.805093 202.118765 
L 78.058983 200.368342 
L 78.312874 209.235056 
L 78.566764 195.842258 
L 78.820654 192.86356 
L 79.074544 188.426983 
L 79.328435 204.722793 
L 79.582325 206.16873 
L 79.836215 205.961133 
L 80.343996 185.210897 
L 80.597886 193.92208 
L 81.105666 196.734512 
L 81.359557 202.870115 
L 81.613447 201.627348 
L 81.867337 198.547602 
L 82.121227 201.76597 
L 82.375118 199.148119 
L 82.882898 197.856773 
L 83.136788 208.199081 
L 83.390679 209.577787 
L 83.644569 196.112926 
L 83.898459 205.753803 
L 84.15235 206.331373 
L 84.66013 199.836264 
L 84.91402 206.450671 
L 85.167911 202.622662 
L 85.421801 207.815287 
L 85.929581 197.034166 
L 86.183472 205.391212 
L 86.437362 195.78442 
L 86.691252 201.4172 
L 86.945142 193.973074 
L 87.199033 194.496698 
L 87.452923 198.679246 
L 87.706813 197.808866 
L 88.214594 205.38155 
L 88.722374 200.554872 
L 88.976264 205.956973 
L 89.230155 199.912218 
L 89.484045 202.531142 
L 89.737935 201.535157 
L 89.991825 195.531331 
L 90.499606 205.732735 
L 90.753496 205.821169 
L 91.007386 204.371072 
L 91.261277 196.893799 
L 91.515167 201.599435 
L 91.769057 201.851585 
L 92.530728 209.121126 
L 92.784618 208.881187 
L 93.038508 204.688977 
L 93.292399 215.698763 
L 93.546289 203.73808 
L 93.800179 205.139062 
L 94.054069 214.377224 
L 94.30796 202.096086 
L 94.56185 203.428361 
L 94.81574 214.35535 
L 95.06963 197.192917 
L 95.323521 206.209257 
L 95.577411 205.160265 
L 95.831301 211.704086 
L 96.085191 208.966132 
L 96.339082 204.990107 
L 96.592972 208.481961 
L 96.846862 204.691258 
L 97.100752 210.909391 
L 97.354643 200.866335 
L 97.608533 204.296594 
L 97.862423 209.31933 
L 98.116313 206.853655 
L 98.370204 206.266289 
L 98.624094 206.384514 
L 99.131874 199.099139 
L 99.385765 210.041426 
L 99.639655 203.558126 
L 99.893545 202.980423 
L 100.401326 205.576668 
L 100.655216 209.522231 
L 101.162997 200.686381 
L 101.416887 198.290487 
L 101.670777 214.310395 
L 102.178558 201.212823 
L 102.432448 205.893096 
L 102.686338 206.651157 
L 102.940228 211.640209 
L 103.448009 204.653415 
L 103.701899 210.156296 
L 103.955789 200.72664 
L 104.20968 205.200254 
L 104.46357 207.308303 
L 104.71746 213.617956 
L 104.97135 212.862177 
L 105.225241 209.594829 
L 105.479131 211.981196 
L 105.733021 212.827555 
L 105.986911 214.104274 
L 106.240802 211.164895 
L 106.494692 212.844195 
L 107.002472 201.50456 
L 107.510253 207.310182 
L 108.018033 207.018982 
L 108.271924 211.784468 
L 108.525814 204.45548 
L 109.033594 218.625259 
L 109.287485 203.017326 
L 109.541375 211.05687 
L 109.795265 212.518373 
L 110.049155 212.914244 
L 110.303046 206.386124 
L 110.556936 208.130776 
L 110.810826 196.246986 
L 111.064716 207.059508 
L 111.318607 211.454485 
L 111.826387 196.612261 
L 112.080277 212.216035 
L 112.334168 209.837317 
L 112.588058 215.954939 
L 112.841948 218.416856 
L 113.095838 212.497841 
L 113.349729 211.528426 
L 113.603619 202.358972 
L 113.857509 211.384168 
L 114.111399 204.544987 
L 114.36529 210.410861 
L 114.61918 206.723487 
L 114.87307 208.164727 
L 115.12696 214.096625 
L 115.380851 201.118888 
L 115.634741 207.750471 
L 115.888631 210.78714 
L 116.142521 217.389604 
L 116.396412 216.705484 
L 116.650302 216.47655 
L 117.158083 208.359442 
L 117.411973 210.82042 
L 117.665863 209.571614 
L 117.919753 211.022248 
L 118.173644 210.470577 
L 118.427534 213.070312 
L 118.681424 211.9871 
L 118.935314 209.688228 
L 119.189205 210.71065 
L 119.443095 211.048415 
L 119.696985 214.776048 
L 119.950875 214.37615 
L 120.204766 213.398147 
L 120.458656 216.255533 
L 120.712546 216.694481 
L 120.966436 212.648675 
L 121.220327 213.30032 
L 121.474217 210.490035 
L 121.728107 215.960173 
L 121.981997 204.977627 
L 122.489778 217.608608 
L 122.743668 203.226131 
L 122.997558 211.503064 
L 123.251449 207.035487 
L 123.505339 212.993284 
L 124.013119 213.710281 
L 124.26701 211.673624 
L 124.5209 200.466438 
L 124.77479 210.176022 
L 125.02868 213.213496 
L 125.282571 208.680702 
L 125.536461 208.981296 
L 125.790351 214.892125 
L 126.044241 212.365392 
L 126.298132 215.566583 
L 126.552022 217.168721 
L 126.805912 213.180485 
L 127.059802 211.911415 
L 127.313693 216.279419 
L 127.567583 211.717773 
L 128.075363 222.710249 
L 128.329254 209.445874 
L 128.583144 221.681386 
L 128.837034 212.253743 
L 129.090924 211.359476 
L 129.344815 209.704063 
L 129.598705 213.10641 
L 129.852595 213.412506 
L 130.360376 216.706692 
L 130.614266 210.189039 
L 130.868156 218.67679 
L 131.122046 219.021533 
L 131.375937 218.431215 
L 131.629827 208.518999 
L 131.883717 206.534811 
L 132.137607 215.892002 
L 132.391498 210.727424 
L 132.645388 213.555422 
L 132.899278 212.880159 
L 133.153169 209.178695 
L 133.407059 208.717471 
L 133.660949 208.737332 
L 133.914839 206.626197 
L 134.16873 215.952524 
L 134.42262 212.981475 
L 134.67651 215.676085 
L 134.9304 215.260755 
L 135.184291 209.586644 
L 135.945961 223.115917 
L 136.199852 218.069832 
L 136.453742 207.746848 
L 136.707632 210.471919 
L 136.961522 217.269366 
L 137.215413 213.115535 
L 137.469303 214.532754 
L 137.723193 218.38465 
L 137.977083 215.989158 
L 138.230974 209.001291 
L 138.484864 218.029037 
L 138.738754 209.009879 
L 138.992644 212.985367 
L 139.246535 205.923693 
L 139.500425 209.008 
L 139.754315 215.930784 
L 140.008205 207.368824 
L 140.262096 209.071877 
L 140.769876 214.229745 
L 141.023766 203.489151 
L 141.531547 216.129257 
L 141.785437 211.118464 
L 142.039327 211.603038 
L 142.293218 210.976622 
L 142.547108 208.308449 
L 142.800998 203.491029 
L 143.054888 215.279945 
L 143.308779 210.914624 
L 143.816559 214.845157 
L 144.070449 208.099375 
L 144.32434 213.79952 
L 144.83212 212.549506 
L 145.08601 215.593153 
L 145.339901 208.696 
L 145.593791 220.706738 
L 145.847681 205.666578 
L 146.101571 213.903654 
L 146.355462 210.177767 
L 146.609352 202.625212 
L 146.863242 206.78535 
L 147.117132 204.427836 
L 147.371023 212.315472 
L 147.624913 214.695531 
L 147.878803 209.205131 
L 148.132693 212.419338 
L 148.386584 213.364464 
L 148.640474 213.554214 
L 148.894364 209.37247 
L 149.402145 204.668713 
L 149.656035 210.321488 
L 149.909925 203.16145 
L 150.163816 205.079078 
L 150.417706 213.443236 
L 150.925486 216.075177 
L 151.179377 211.203677 
L 151.687157 217.480319 
L 151.941047 212.958528 
L 152.194938 213.734034 
L 152.448828 213.271334 
L 152.702718 217.531849 
L 152.956608 211.6959 
L 153.210499 214.026978 
L 153.464389 217.543792 
L 153.718279 214.949828 
L 153.972169 216.278212 
L 154.22606 211.55191 
L 154.47995 215.3822 
L 154.73384 212.925785 
L 154.98773 212.773475 
L 155.241621 205.01869 
L 155.495511 223.787288 
L 155.749401 211.68087 
L 156.003291 214.462571 
L 156.257182 215.301282 
L 156.511072 212.628814 
L 156.764962 215.524446 
L 157.018852 215.344358 
L 157.272743 212.423632 
L 157.526633 222.098594 
L 157.780523 215.525117 
L 158.034413 213.466317 
L 158.288304 221.14743 
L 158.542194 213.615675 
L 158.796084 212.641965 
L 159.049974 218.718524 
L 159.303865 220.723378 
L 159.557755 213.873863 
L 159.811645 217.790306 
L 160.065535 215.287191 
L 160.573316 220.480487 
L 160.827206 217.231121 
L 161.081096 223.789703 
L 161.334987 215.067785 
L 161.588877 215.753514 
L 161.842767 214.93708 
L 162.096657 218.247504 
L 162.350548 213.402844 
L 162.604438 219.109698 
L 162.858328 216.717159 
L 163.112218 219.554551 
L 163.366109 214.276713 
L 163.619999 217.453748 
L 163.873889 214.034896 
L 164.127779 213.713368 
L 164.38167 220.261885 
L 164.63556 205.233937 
L 164.88945 220.132254 
L 165.14334 217.233 
L 165.397231 218.276221 
L 165.651121 215.901798 
L 165.905011 216.895771 
L 166.158902 219.103257 
L 166.412792 217.355787 
L 166.666682 214.787186 
L 166.920572 215.797798 
L 167.174463 217.304928 
L 167.428353 224.555412 
L 167.682243 201.806362 
L 167.936133 225.740209 
L 168.190024 205.080151 
L 168.443914 216.037737 
L 168.951694 210.468296 
L 169.205585 212.586812 
L 169.713365 222.688778 
L 170.221146 205.272316 
L 170.475036 220.784838 
L 170.728926 218.040175 
L 170.982816 220.760281 
L 171.490597 206.703224 
L 171.744487 210.078195 
L 171.998377 210.875574 
L 172.252268 216.679451 
L 172.760048 209.353549 
L 173.013938 209.4707 
L 173.267829 215.896565 
L 173.521719 210.198969 
L 174.029499 208.599917 
L 174.28339 220.901184 
L 174.53728 219.157203 
L 174.79117 219.021936 
L 175.04506 212.602378 
L 175.552841 217.002992 
L 175.806731 215.430644 
L 176.060621 216.735678 
L 176.314512 220.115346 
L 176.568402 210.849943 
L 176.822292 212.611906 
L 177.076182 212.409542 
L 177.330073 215.426484 
L 177.583963 211.250108 
L 177.837853 210.172131 
L 178.091743 217.093841 
L 178.345634 219.844811 
L 178.599524 216.048472 
L 178.853414 216.139858 
L 179.107304 213.85615 
L 179.361195 216.566326 
L 179.615085 216.160121 
L 179.868975 211.479445 
L 180.122865 219.032537 
L 180.376756 220.147552 
L 180.630646 224.583056 
L 180.884536 218.302121 
L 181.138426 221.474996 
L 181.392317 205.289091 
L 181.646207 216.551833 
L 181.900097 216.416834 
L 182.153988 219.131975 
L 182.407878 213.600242 
L 182.661768 219.917008 
L 182.915658 217.485552 
L 183.169549 217.810301 
L 183.423439 222.585718 
L 183.677329 218.526761 
L 183.931219 221.463456 
L 184.18511 220.472838 
L 184.439 224.846076 
L 184.69289 217.308282 
L 184.94678 214.620785 
L 185.200671 213.329171 
L 185.454561 214.431572 
L 185.708451 218.167122 
L 185.962341 215.049132 
L 186.216232 220.240146 
L 186.470122 220.441571 
L 186.724012 222.952603 
L 186.977902 219.679216 
L 187.231793 214.880182 
L 187.485683 219.712094 
L 187.739573 212.257232 
L 187.993463 217.745351 
L 188.247354 214.896956 
L 188.501244 217.056267 
L 189.009024 210.768085 
L 189.516805 223.825801 
L 189.770695 222.336922 
L 190.024585 221.536457 
L 190.278476 208.083137 
L 190.532366 214.909973 
L 190.786256 214.24303 
L 191.040146 216.566594 
L 191.294037 223.808893 
L 191.547927 216.899797 
L 191.801817 221.316782 
L 192.055707 215.356704 
L 192.309598 217.927318 
L 192.563488 225.254025 
L 192.817378 225.076487 
L 193.071268 213.026296 
L 193.325159 216.296596 
L 193.579049 213.959747 
L 193.832939 212.982146 
L 194.086829 220.875285 
L 194.59461 215.323692 
L 194.8485 214.769472 
L 195.10239 215.793638 
L 195.356281 224.154173 
L 195.610171 223.662622 
L 195.864061 215.047924 
L 196.117951 214.95533 
L 196.371842 207.24228 
L 196.625732 216.914558 
L 196.879622 218.30145 
L 197.133512 216.005396 
L 197.387403 212.345397 
L 197.641293 219.689415 
L 197.895183 215.590066 
L 198.149074 223.523597 
L 198.402964 221.42776 
L 198.656854 220.573752 
L 199.164635 215.974666 
L 199.418525 217.922084 
L 199.672415 211.8831 
L 199.926305 220.711569 
L 200.180196 211.837072 
L 200.434086 215.903409 
L 200.687976 214.768935 
L 200.941866 210.295455 
L 201.195757 217.814595 
L 201.449647 217.082837 
L 201.703537 218.454699 
L 201.957427 209.29759 
L 202.465208 228.453873 
L 202.719098 209.211706 
L 202.972988 214.143056 
L 203.226879 212.484825 
L 203.480769 215.580405 
L 203.734659 213.015561 
L 203.988549 213.543076 
L 204.24244 217.486223 
L 204.49633 216.207089 
L 204.75022 225.393452 
L 205.00411 219.164852 
L 205.258001 222.074574 
L 205.511891 213.675928 
L 205.765781 214.926881 
L 206.019671 204.442329 
L 206.273562 221.771564 
L 206.527452 214.979754 
L 206.781342 221.059264 
L 207.035232 216.522981 
L 207.289123 220.746861 
L 207.543013 216.889196 
L 207.796903 216.564313 
L 208.050793 218.208185 
L 208.558574 207.021531 
L 208.812464 220.149029 
L 209.066354 220.190763 
L 209.320245 212.541857 
L 209.574135 221.824303 
L 209.828025 210.556327 
L 210.081915 223.5032 
L 210.335806 214.171908 
L 210.589696 221.110661 
L 210.843586 217.740789 
L 211.097476 218.942359 
L 211.351367 224.35855 
L 211.605257 214.608037 
L 211.859147 221.067584 
L 212.113037 217.037748 
L 212.366928 217.656381 
L 212.620818 221.015249 
L 212.874708 218.699468 
L 213.128598 217.767359 
L 213.382489 220.523966 
L 213.636379 211.358537 
L 213.890269 216.809887 
L 214.14416 217.852169 
L 214.39805 212.216169 
L 214.65194 218.444635 
L 214.90583 214.371588 
L 215.159721 221.539409 
L 215.413611 213.44592 
L 215.667501 221.759084 
L 215.921391 213.038239 
L 216.429172 217.152886 
L 216.683062 217.234342 
L 216.936952 209.124078 
L 217.190843 210.143413 
L 217.444733 218.673166 
L 217.698623 211.342702 
L 217.952513 222.768489 
L 218.206404 224.23053 
L 218.460294 219.626344 
L 218.714184 210.080342 
L 218.968074 219.848703 
L 219.221965 220.618304 
L 219.475855 218.920888 
L 219.729745 214.8206 
L 219.983635 219.910298 
L 220.237526 227.812964 
L 220.491416 223.48401 
L 220.745306 216.003517 
L 220.999196 212.300174 
L 221.253087 217.277149 
L 221.506977 215.239955 
L 221.760867 219.797173 
L 222.014757 214.054354 
L 222.268648 216.356178 
L 222.522538 213.041728 
L 222.776428 222.655767 
L 223.030318 220.238804 
L 223.284209 213.26449 
L 223.538099 222.329542 
L 223.791989 216.921939 
L 224.045879 216.783048 
L 224.29977 217.116117 
L 224.55366 213.04978 
L 224.80755 214.912388 
L 225.06144 222.760035 
L 225.315331 215.016523 
L 225.569221 215.819538 
L 225.823111 216.181726 
L 226.077001 222.768221 
L 226.330892 213.864067 
L 226.584782 218.246833 
L 226.838672 219.588502 
L 227.092562 217.176102 
L 227.346453 216.119058 
L 227.600343 225.818175 
L 228.108123 211.123832 
L 228.362014 218.017496 
L 228.615904 213.568975 
L 229.123684 221.192384 
L 229.377575 220.674934 
L 229.631465 211.979854 
L 229.885355 219.331252 
L 230.139245 216.279688 
L 230.647026 214.452775 
L 230.900916 211.837206 
L 231.154807 224.971815 
L 231.408697 223.393966 
L 231.662587 223.422281 
L 231.916477 216.202258 
L 232.170368 221.184199 
L 232.424258 216.147239 
L 232.932038 211.589887 
L 233.185929 211.726496 
L 233.439819 218.021656 
L 233.693709 220.448146 
L 233.947599 215.159707 
L 234.20149 218.720134 
L 234.45538 213.443773 
L 234.70927 217.999246 
L 234.96316 218.495091 
L 235.217051 219.394457 
L 235.470941 213.89775 
L 235.978721 219.330581 
L 236.232612 216.187228 
L 236.486502 210.091883 
L 236.740392 220.829927 
L 236.994282 215.066443 
L 237.248173 222.527746 
L 237.755953 218.316211 
L 238.009843 219.21759 
L 238.263734 217.589284 
L 238.517624 211.589887 
L 238.771514 220.951238 
L 239.025404 211.780174 
L 239.279295 220.972709 
L 239.533185 216.818341 
L 239.787075 216.84679 
L 240.040965 215.919512 
L 240.294856 213.419349 
L 240.548746 219.611449 
L 240.802636 211.25655 
L 241.056526 209.552827 
L 241.310417 220.02973 
L 241.564307 218.863856 
L 241.818197 213.73873 
L 242.072087 224.762473 
L 242.325978 217.628334 
L 242.579868 222.324845 
L 243.087648 214.210824 
L 243.341539 218.824537 
L 243.595429 221.358382 
L 243.849319 206.723353 
L 244.103209 220.816911 
L 244.3571 226.391048 
L 244.61099 218.78656 
L 244.86488 218.841445 
L 245.11877 222.87826 
L 245.372661 216.682269 
L 245.880441 221.755059 
L 246.134331 218.947324 
L 246.388222 221.813299 
L 246.642112 219.574948 
L 246.896002 215.900859 
L 247.149893 214.939361 
L 247.403783 209.514984 
L 247.657673 218.61023 
L 247.911563 216.93093 
L 248.165454 217.76548 
L 248.419344 215.715672 
L 248.673234 216.676364 
L 248.927124 221.489087 
L 249.181015 207.834342 
L 249.434905 221.289541 
L 249.688795 218.337145 
L 249.942685 224.010452 
L 250.196576 215.430913 
L 250.450466 215.892539 
L 250.704356 224.101435 
L 250.958246 217.036272 
L 251.212137 218.404913 
L 251.466027 214.055159 
L 251.719917 213.885001 
L 251.973807 220.553891 
L 252.735478 210.668647 
L 252.989368 220.856095 
L 253.243259 214.895346 
L 253.497149 217.107931 
L 254.004929 218.852583 
L 254.25882 212.108814 
L 254.51271 220.330727 
L 254.7666 213.229331 
L 255.02049 216.212591 
L 255.274381 225.2449 
L 255.528271 224.526963 
L 256.036051 211.92886 
L 256.289942 213.785698 
L 256.543832 218.629822 
L 256.797722 211.667853 
L 257.051612 216.35913 
L 257.305503 215.788271 
L 257.559393 208.213708 
L 257.813283 218.531995 
L 258.067173 221.615766 
L 258.321064 214.707743 
L 258.574954 217.75971 
L 258.828844 218.496031 
L 259.082734 217.695297 
L 259.336625 220.003026 
L 259.590515 215.775388 
L 259.844405 222.245939 
L 260.098295 221.697758 
L 260.352186 222.237485 
L 260.606076 217.002321 
L 260.859966 221.611069 
L 261.113856 218.609022 
L 261.367747 222.758425 
L 261.621637 217.89028 
L 261.875527 216.799957 
L 262.129417 221.380121 
L 262.383308 220.977675 
L 262.637198 219.435655 
L 262.891088 218.861843 
L 263.144979 214.294426 
L 263.398869 216.629531 
L 263.652759 211.007889 
L 264.16054 216.708168 
L 264.41443 211.193479 
L 264.66832 219.73182 
L 264.92221 223.523866 
L 265.176101 222.919055 
L 265.429991 208.967876 
L 265.683881 208.58113 
L 265.937771 214.038385 
L 266.191662 212.641965 
L 266.699442 221.445742 
L 266.953332 216.954548 
L 267.207223 222.434481 
L 267.461113 223.844454 
L 267.715003 220.131852 
L 267.968893 219.285761 
L 268.222784 221.554305 
L 268.476674 213.400562 
L 268.730564 213.848769 
L 268.984454 223.74703 
L 269.238345 217.096525 
L 269.492235 213.988196 
L 269.746125 220.39836 
L 270.000015 217.062708 
L 270.253906 220.804296 
L 270.507796 229.796884 
L 270.761686 216.205076 
L 271.015576 218.191545 
L 271.269467 213.676062 
L 271.523357 214.902055 
L 271.777247 212.979328 
L 272.031137 221.998754 
L 272.285028 219.995779 
L 272.538918 213.068701 
L 272.792808 219.306829 
L 273.046698 212.87828 
L 273.300589 217.327606 
L 273.554479 216.97669 
L 273.808369 223.109341 
L 274.062259 221.080199 
L 274.31615 215.011155 
L 274.57004 219.891511 
L 274.82393 219.321322 
L 275.07782 219.890437 
L 275.331711 224.536223 
L 275.839491 212.80434 
L 276.093381 217.12068 
L 276.347272 214.403928 
L 276.601162 218.637471 
L 276.855052 214.092868 
L 277.108942 217.637191 
L 277.362833 227.079596 
L 277.870613 218.939943 
L 278.124503 216.279688 
L 278.378394 227.222646 
L 278.632284 221.948163 
L 278.886174 222.564649 
L 279.140064 209.997276 
L 279.393955 218.481806 
L 279.647845 222.251709 
L 279.901735 215.983657 
L 280.155626 216.704411 
L 280.409516 212.991272 
L 280.663406 216.753928 
L 280.917296 215.75083 
L 281.171187 215.471708 
L 281.425077 215.830676 
L 281.678967 215.936152 
L 281.932857 217.589284 
L 282.186748 218.119886 
L 282.440638 222.764195 
L 282.694528 224.953297 
L 283.202309 212.713893 
L 283.456199 220.956606 
L 283.710089 221.912065 
L 284.21787 212.617274 
L 284.47176 219.169549 
L 284.72565 216.386238 
L 284.97954 222.831695 
L 285.233431 224.508847 
L 285.487321 220.060327 
L 285.741211 221.528674 
L 285.995101 217.24038 
L 286.248992 223.227834 
L 286.502882 203.37361 
L 287.010662 220.665272 
L 287.264553 226.790543 
L 287.772333 211.201396 
L 288.026223 216.352689 
L 288.280114 218.663773 
L 288.534004 219.849777 
L 288.787894 213.485775 
L 289.041784 222.457428 
L 289.295675 215.558799 
L 289.549565 212.481067 
L 289.803455 214.300331 
L 290.057345 210.443202 
L 290.311236 217.300499 
L 290.565126 217.08485 
L 291.072906 205.07532 
L 291.326797 218.406658 
L 291.580687 213.417739 
L 291.834577 218.618147 
L 292.088467 230.557091 
L 292.342358 212.537965 
L 292.596248 207.535493 
L 292.850138 218.547024 
L 293.104028 223.14195 
L 293.357919 223.17617 
L 293.611809 227.293366 
L 293.865699 217.821573 
L 294.119589 213.729337 
L 294.37348 214.700094 
L 294.62737 213.445786 
L 294.88126 223.439055 
L 295.13515 222.308742 
L 295.389041 219.965049 
L 295.642931 222.268215 
L 295.896821 210.819883 
L 296.150712 214.577307 
L 296.404602 207.976588 
L 296.658492 221.814909 
L 297.166273 214.737668 
L 297.420163 213.283814 
L 297.674053 218.393373 
L 297.927943 215.199294 
L 298.181834 219.027975 
L 298.435724 218.660552 
L 298.689614 217.506621 
L 298.943504 219.4323 
L 299.197395 219.388419 
L 299.451285 214.388899 
L 299.705175 215.536792 
L 299.959065 219.543681 
L 300.212956 216.06471 
L 300.720736 221.524648 
L 300.974626 219.459273 
L 301.228517 214.793224 
L 301.482407 212.235761 
L 301.736297 213.834142 
L 301.990187 223.468175 
L 302.497968 210.159114 
L 302.751858 222.786605 
L 303.005748 215.513442 
L 303.767419 223.825667 
L 304.021309 216.414955 
L 304.2752 215.587919 
L 304.52909 213.78959 
L 304.78298 217.028757 
L 305.03687 227.333088 
L 305.290761 218.323458 
L 305.544651 218.573058 
L 305.798541 222.10356 
L 306.052431 221.255187 
L 306.306322 213.654323 
L 306.560212 215.460838 
L 307.067992 212.073923 
L 307.321883 218.51616 
L 307.575773 218.395251 
L 307.829663 217.425836 
L 308.083553 221.826986 
L 308.337444 217.555601 
L 308.591334 224.313327 
L 308.845224 214.247593 
L 309.099114 215.466742 
L 309.353005 213.840047 
L 309.606895 213.703706 
L 309.860785 215.357643 
L 310.114675 219.632249 
L 310.368566 216.623895 
L 310.622456 224.49583 
L 310.876346 218.832991 
L 311.130236 224.104119 
L 311.384127 224.142767 
L 311.638017 212.663034 
L 311.891907 219.452966 
L 312.145798 214.353203 
L 312.399688 214.117559 
L 312.653578 214.96875 
L 312.907468 208.56288 
L 313.161359 218.797564 
L 313.415249 211.096859 
L 313.669139 218.439804 
L 313.923029 220.512291 
L 314.17692 223.744883 
L 314.43081 206.792328 
L 314.6847 210.054309 
L 314.93859 223.457574 
L 315.192481 212.621434 
L 315.446371 214.242896 
L 315.700261 214.281812 
L 315.954151 220.240549 
L 316.208042 218.365192 
L 316.461932 221.023435 
L 316.461932 221.023435 
" clip-path="url(#p1b5deb4ace)" style="fill: none; stroke: #0000ff; stroke-width: 0.6; stroke-linecap: square"/>
   </g>
   <g id="line2d_32">
    <path d="M 62.825568 118.417197 
L 63.079458 54.572806 
L 63.333349 116.12007 
L 63.587239 130.777912 
L 63.841129 118.268242 
L 64.095019 129.555139 
L 64.34891 149.145002 
L 64.6028 119.023753 
L 64.85669 135.786155 
L 65.364471 155.184791 
L 65.618361 130.901236 
L 66.126141 156.011022 
L 66.380032 143.522957 
L 66.633922 158.826271 
L 66.887812 147.561114 
L 67.141702 149.906954 
L 67.395593 144.536254 
L 67.649483 143.997735 
L 67.903373 90.324017 
L 68.157264 148.837967 
L 68.411154 119.586293 
L 68.665044 125.644467 
L 68.918934 159.531862 
L 69.172825 127.532974 
L 69.934495 161.678424 
L 70.442276 113.61521 
L 70.696166 155.00524 
L 70.950056 153.782065 
L 71.203947 163.514193 
L 71.457837 158.828418 
L 71.711727 103.794782 
L 71.965617 151.928179 
L 72.219508 147.094522 
L 72.473398 155.760751 
L 72.727288 147.910957 
L 72.981178 168.989833 
L 73.235069 163.773724 
L 73.488959 147.23556 
L 73.742849 167.427684 
L 73.996739 162.626636 
L 74.50452 143.862467 
L 74.75841 168.938705 
L 75.0123 160.48571 
L 75.266191 128.551102 
L 75.520081 152.992603 
L 75.773971 164.562112 
L 76.281752 154.624264 
L 76.535642 163.95824 
L 76.789532 153.046683 
L 77.043422 155.112998 
L 77.297313 163.428712 
L 77.551203 154.423913 
L 77.805093 158.038286 
L 78.058983 156.294573 
L 78.312874 160.731553 
L 78.566764 174.218421 
L 78.820654 160.219873 
L 79.074544 167.701171 
L 79.328435 155.987941 
L 79.582325 152.506017 
L 79.836215 170.083914 
L 80.090105 152.405372 
L 80.343996 157.517749 
L 80.597886 159.574804 
L 80.851776 156.316983 
L 81.359557 173.273832 
L 81.613447 170.049158 
L 81.867337 164.405642 
L 82.121227 163.732392 
L 82.375118 165.548838 
L 82.629008 175.422273 
L 82.882898 173.838385 
L 83.136788 170.986903 
L 83.390679 170.528363 
L 83.644569 152.360283 
L 84.15235 170.565401 
L 84.40624 166.093799 
L 84.66013 172.479942 
L 84.91402 164.394772 
L 85.167911 174.534179 
L 85.421801 159.999795 
L 85.675691 168.795386 
L 85.929581 147.717852 
L 86.183472 157.938043 
L 86.437362 152.855592 
L 86.691252 172.339978 
L 86.945142 153.644114 
L 87.199033 154.572868 
L 87.452923 161.997536 
L 88.214594 169.867996 
L 88.722374 162.065438 
L 88.976264 186.767946 
L 89.230155 176.151481 
L 89.737935 144.358984 
L 89.991825 170.117462 
L 90.245716 168.044304 
L 90.499606 177.130693 
L 91.007386 167.265578 
L 91.261277 133.675288 
L 91.515167 174.293167 
L 91.769057 170.520848 
L 92.022947 168.793507 
L 92.276838 158.102565 
L 92.530728 159.048362 
L 92.784618 149.904807 
L 93.038508 185.873009 
L 93.292399 162.027998 
L 93.546289 176.688256 
L 94.054069 159.680682 
L 94.30796 135.119212 
L 94.56185 172.570523 
L 94.81574 161.23545 
L 95.06963 176.020911 
L 95.323521 145.906371 
L 95.577411 161.787255 
L 95.831301 164.895181 
L 96.085191 156.054903 
L 96.339082 177.349697 
L 96.846862 161.783632 
L 97.100752 173.291009 
L 97.354643 155.966335 
L 97.608533 170.618541 
L 97.862423 165.920018 
L 98.116313 169.398989 
L 98.370204 165.982552 
L 98.624094 165.82984 
L 98.877984 166.190552 
L 99.131874 163.587866 
L 99.385765 172.071188 
L 99.639655 171.827358 
L 99.893545 181.031032 
L 100.147436 159.388677 
L 100.401326 166.415461 
L 100.655216 152.050832 
L 100.909106 163.738029 
L 101.162997 159.584734 
L 101.416887 171.217582 
L 101.670777 173.572547 
L 101.924667 167.899241 
L 102.178558 167.740087 
L 102.432448 168.750297 
L 102.686338 167.639576 
L 102.940228 163.536335 
L 103.194119 173.465058 
L 103.448009 172.373795 
L 103.701899 162.141526 
L 104.20968 170.513602 
L 104.46357 164.230519 
L 104.71746 164.976636 
L 104.97135 164.411681 
L 105.225241 179.824899 
L 105.479131 169.757152 
L 105.733021 171.415115 
L 105.986911 171.802667 
L 106.240802 163.885239 
L 106.494692 173.412588 
L 107.002472 137.756252 
L 107.256363 161.494981 
L 107.510253 161.870992 
L 107.764143 180.69112 
L 108.018033 157.225475 
L 108.271924 148.642178 
L 108.779704 175.062768 
L 109.287485 140.177777 
L 109.541375 157.325181 
L 109.795265 164.105853 
L 110.049155 176.274269 
L 110.303046 164.627464 
L 110.556936 140.996493 
L 110.810826 162.329129 
L 111.064716 168.037728 
L 111.318607 179.400847 
L 111.572497 171.044472 
L 111.826387 152.005072 
L 112.080277 169.850417 
L 112.334168 160.533618 
L 112.588058 167.710564 
L 112.841948 167.120112 
L 113.095838 173.071065 
L 113.603619 152.465222 
L 114.111399 171.68149 
L 114.36529 161.193716 
L 114.61918 169.64926 
L 114.87307 168.368248 
L 115.12696 166.452901 
L 115.380851 174.441049 
L 115.634741 165.253209 
L 116.142521 182.223209 
L 116.396412 182.97362 
L 116.904192 156.212983 
L 117.158083 175.032574 
L 117.411973 169.61692 
L 117.665863 166.678346 
L 117.919753 162.371266 
L 118.173644 169.52862 
L 118.427534 165.633246 
L 118.681424 169.271639 
L 118.935314 168.71648 
L 119.189205 169.03358 
L 119.443095 175.769029 
L 119.696985 168.029543 
L 119.950875 164.791852 
L 120.204766 148.907747 
L 120.458656 168.64992 
L 120.712546 161.007858 
L 120.966436 160.216786 
L 121.220327 166.72102 
L 121.474217 167.217134 
L 121.728107 152.94993 
L 121.981997 167.913465 
L 122.235888 164.309425 
L 122.489778 129.680208 
L 122.743668 160.981959 
L 123.251449 163.884702 
L 123.505339 152.614848 
L 123.759229 160.851791 
L 124.013119 186.642475 
L 124.26701 168.364893 
L 124.5209 171.393242 
L 124.77479 165.822056 
L 125.02868 174.936626 
L 125.282571 177.514755 
L 125.536461 165.827424 
L 125.790351 165.957055 
L 126.044241 179.491562 
L 126.298132 184.423314 
L 126.552022 164.025203 
L 126.805912 170.26682 
L 127.059802 171.015218 
L 127.313693 176.239378 
L 127.567583 176.601433 
L 127.821473 180.262639 
L 128.075363 191.029535 
L 128.329254 170.22106 
L 128.583144 181.835658 
L 128.837034 169.087123 
L 129.090924 162.432995 
L 129.344815 176.920277 
L 129.598705 174.726344 
L 129.852595 175.966428 
L 130.106485 174.320811 
L 130.360376 152.095653 
L 130.868156 169.403552 
L 131.122046 166.263017 
L 131.375937 169.39644 
L 131.629827 127.806864 
L 131.883717 165.921091 
L 132.137607 157.037872 
L 132.391498 173.737069 
L 132.645388 178.250807 
L 133.153169 167.979086 
L 133.407059 172.795968 
L 133.660949 173.997673 
L 133.914839 183.821187 
L 134.16873 164.93933 
L 134.42262 178.99008 
L 134.67651 164.667722 
L 134.9304 176.987508 
L 135.184291 178.801538 
L 135.438181 174.570143 
L 135.692071 174.657771 
L 135.945961 175.369803 
L 136.199852 177.973026 
L 136.453742 171.665252 
L 136.961522 180.740234 
L 137.215413 164.247965 
L 137.469303 174.800151 
L 137.723193 179.438958 
L 137.977083 160.036162 
L 138.230974 178.099168 
L 138.484864 164.902293 
L 138.738754 164.342169 
L 138.992644 174.676559 
L 139.500425 185.190097 
L 139.754315 168.914818 
L 140.008205 184.274628 
L 140.262096 186.1108 
L 141.023766 175.037808 
L 141.277657 176.970734 
L 141.785437 160.2294 
L 142.039327 167.415875 
L 142.293218 186.034712 
L 142.547108 169.273652 
L 142.800998 170.773669 
L 143.054888 180.000559 
L 143.308779 162.628247 
L 143.562669 190.064146 
L 143.816559 171.899152 
L 144.070449 166.952102 
L 144.32434 170.404234 
L 144.57823 162.54035 
L 144.83212 179.013698 
L 145.08601 179.969694 
L 145.339901 159.01374 
L 145.593791 163.862426 
L 145.847681 174.237745 
L 146.101571 166.917211 
L 146.355462 182.530378 
L 146.609352 166.580385 
L 146.863242 165.710542 
L 147.117132 165.627744 
L 147.371023 151.152674 
L 147.624913 186.819745 
L 147.878803 176.549097 
L 148.132693 172.574012 
L 148.386584 171.118816 
L 148.640474 171.518444 
L 148.894364 124.74859 
L 149.402145 181.156503 
L 149.656035 173.907763 
L 149.909925 175.191728 
L 150.163816 162.466543 
L 150.417706 181.117721 
L 150.671596 176.045871 
L 150.925486 163.099803 
L 151.179377 171.390021 
L 151.433267 172.115069 
L 151.687157 171.105665 
L 152.194938 164.487366 
L 152.448828 173.812217 
L 152.956608 158.266281 
L 153.210499 141.04695 
L 153.464389 174.204197 
L 153.718279 165.857484 
L 153.972169 180.518278 
L 154.22606 175.378123 
L 154.47995 161.318785 
L 154.73384 162.26163 
L 154.98773 163.871283 
L 155.241621 175.99367 
L 155.495511 172.814084 
L 155.749401 180.123078 
L 156.003291 182.426781 
L 156.257182 171.00985 
L 156.764962 175.994877 
L 157.018852 162.518074 
L 157.272743 173.486395 
L 157.526633 178.878834 
L 158.034413 172.888159 
L 158.288304 179.650045 
L 158.542194 176.542388 
L 158.796084 171.063125 
L 159.049974 176.16423 
L 159.303865 176.983482 
L 159.557755 167.566709 
L 159.811645 175.497153 
L 160.065535 177.824474 
L 160.319426 182.521521 
L 160.573316 180.011429 
L 160.827206 160.454712 
L 161.081096 172.714244 
L 161.334987 159.517503 
L 161.588877 176.171476 
L 161.842767 176.596199 
L 162.096657 156.386362 
L 162.350548 172.990683 
L 162.604438 180.486072 
L 162.858328 175.860684 
L 163.112218 167.771488 
L 163.366109 173.600191 
L 163.619999 173.338782 
L 163.873889 173.564764 
L 164.127779 161.531616 
L 164.63556 174.010153 
L 164.88945 159.989865 
L 165.14334 170.426913 
L 165.397231 175.784193 
L 165.651121 169.221585 
L 165.905011 170.052244 
L 166.158902 162.7666 
L 166.412792 180.023238 
L 166.666682 173.961977 
L 166.920572 184.29422 
L 167.174463 182.472541 
L 167.682243 144.668166 
L 167.936133 165.56011 
L 168.190024 161.184188 
L 168.443914 106.664648 
L 168.697804 171.368147 
L 169.205585 158.328681 
L 169.459475 172.320252 
L 169.713365 169.652615 
L 169.967255 169.265869 
L 170.221146 180.797133 
L 170.475036 174.557663 
L 170.728926 175.488833 
L 170.982816 171.250996 
L 171.236707 152.816004 
L 171.490597 175.50762 
L 171.744487 180.831889 
L 172.252268 155.701705 
L 172.506158 179.589121 
L 172.760048 159.378747 
L 173.013938 176.35398 
L 173.267829 169.991454 
L 173.521719 176.594186 
L 173.775609 167.767865 
L 174.28339 178.49088 
L 174.79117 156.533572 
L 175.04506 165.053798 
L 175.298951 183.606477 
L 175.552841 173.826576 
L 175.806731 173.224314 
L 176.060621 156.064699 
L 176.314512 154.996518 
L 176.568402 176.37384 
L 176.822292 162.747277 
L 177.076182 162.722048 
L 177.330073 165.230262 
L 177.583963 174.804982 
L 177.837853 176.231863 
L 178.091743 184.952037 
L 178.345634 175.838273 
L 178.599524 175.921473 
L 178.853414 172.836495 
L 179.107304 180.76345 
L 179.361195 161.005845 
L 179.615085 163.438508 
L 179.868975 164.487903 
L 180.122865 181.892153 
L 180.376756 164.46509 
L 180.630646 90.941174 
L 180.884536 172.383591 
L 181.138426 156.667229 
L 181.392317 182.44691 
L 181.900097 154.920698 
L 182.153988 172.741351 
L 182.407878 164.98925 
L 182.661768 188.734689 
L 182.915658 177.255224 
L 183.169549 179.216197 
L 183.423439 178.123726 
L 183.677329 170.221999 
L 183.931219 168.28706 
L 184.18511 181.664695 
L 184.439 174.266328 
L 184.69289 183.312191 
L 185.200671 158.665507 
L 185.454561 186.130526 
L 185.708451 176.345123 
L 185.962341 159.550917 
L 186.216232 175.04331 
L 186.724012 157.957233 
L 186.977902 165.538371 
L 187.231793 178.017176 
L 187.485683 176.450465 
L 187.739573 179.366091 
L 187.993463 167.314022 
L 188.247354 178.482426 
L 188.501244 174.758685 
L 188.755134 145.404085 
L 189.009024 176.920948 
L 189.262915 176.37478 
L 189.516805 174.4334 
L 189.770695 177.242208 
L 190.024585 182.712613 
L 190.278476 160.995378 
L 190.532366 172.216386 
L 190.786256 166.063739 
L 191.040146 185.094283 
L 191.294037 132.678766 
L 191.547927 157.045118 
L 191.801817 169.241848 
L 192.055707 171.130088 
L 192.563488 189.375867 
L 192.817378 180.072889 
L 193.071268 153.160748 
L 193.325159 186.464266 
L 193.579049 171.390424 
L 193.832939 174.831686 
L 194.086829 161.830868 
L 194.34072 171.304003 
L 194.59461 171.84118 
L 194.8485 157.805594 
L 195.356281 181.070485 
L 195.610171 181.339812 
L 196.117951 174.675351 
L 196.625732 176.851033 
L 197.133512 166.018784 
L 197.641293 183.776367 
L 198.149074 172.677341 
L 198.402964 181.815931 
L 198.656854 179.458953 
L 198.910744 157.493594 
L 199.164635 179.208682 
L 199.418525 178.707603 
L 199.672415 169.875779 
L 199.926305 173.937151 
L 200.180196 172.059782 
L 200.434086 153.456779 
L 200.687976 184.040594 
L 200.941866 166.539724 
L 201.195757 168.224258 
L 201.449647 174.220568 
L 201.703537 168.557461 
L 201.957427 178.123189 
L 202.211318 165.216172 
L 202.465208 169.973741 
L 202.719098 171.115461 
L 202.972988 167.201433 
L 203.226879 183.733156 
L 203.480769 168.758885 
L 203.734659 176.022119 
L 203.988549 175.094438 
L 204.49633 172.234233 
L 204.75022 165.597819 
L 205.00411 172.771008 
L 205.258001 167.828789 
L 205.511891 186.977825 
L 205.765781 175.189313 
L 206.019671 149.735052 
L 206.273562 175.102087 
L 206.527452 176.330093 
L 206.781342 187.410063 
L 207.035232 175.471924 
L 207.289123 168.818602 
L 207.543013 178.907283 
L 207.796903 147.247772 
L 208.050793 181.028617 
L 208.304684 154.534489 
L 208.558574 172.801202 
L 208.812464 176.988179 
L 209.320245 168.828666 
L 209.574135 174.366839 
L 209.828025 167.625083 
L 210.081915 178.083602 
L 210.589696 166.906744 
L 210.843586 147.325738 
L 211.097476 177.167462 
L 211.351367 170.680002 
L 211.605257 173.090523 
L 211.859147 164.677384 
L 212.366928 171.430547 
L 212.620818 178.971562 
L 212.874708 174.207015 
L 213.128598 183.476578 
L 213.382489 188.440537 
L 213.636379 167.484716 
L 213.890269 178.311195 
L 214.14416 163.93006 
L 214.39805 170.263733 
L 214.65194 165.065607 
L 214.90583 171.653309 
L 215.159721 170.415641 
L 215.413611 178.625745 
L 215.667501 180.471981 
L 215.921391 178.779799 
L 216.175282 169.886783 
L 216.429172 175.157777 
L 216.683062 176.555941 
L 217.190843 162.860402 
L 217.444733 174.640058 
L 217.698623 181.073035 
L 217.952513 174.103551 
L 218.206404 183.698803 
L 218.460294 182.998983 
L 218.714184 178.910504 
L 218.968074 181.562708 
L 219.221965 175.731589 
L 219.475855 176.351564 
L 219.729745 160.777179 
L 219.983635 176.834393 
L 220.491416 180.690314 
L 220.745306 158.555737 
L 221.253087 178.749874 
L 221.760867 167.914941 
L 222.014757 175.656575 
L 222.268648 170.699192 
L 222.522538 176.926987 
L 223.030318 164.242865 
L 223.284209 188.883644 
L 223.538099 172.009862 
L 223.791989 174.059804 
L 224.045879 177.084933 
L 224.29977 176.678192 
L 224.55366 168.87711 
L 224.80755 178.736186 
L 225.06144 183.355535 
L 225.315331 147.159741 
L 225.569221 178.245574 
L 226.077001 155.067909 
L 226.330892 159.136259 
L 226.584782 182.443555 
L 226.838672 151.866718 
L 227.092562 158.210322 
L 227.600343 180.92408 
L 227.854233 164.557147 
L 228.108123 161.536313 
L 228.362014 177.998926 
L 228.615904 162.178698 
L 228.869794 181.346522 
L 229.377575 164.09485 
L 229.631465 180.2358 
L 229.885355 182.920077 
L 230.139245 175.678851 
L 230.393136 164.121017 
L 230.647026 167.921114 
L 230.900916 160.237586 
L 231.154807 173.096696 
L 231.408697 195.147403 
L 231.662587 172.569315 
L 231.916477 177.283673 
L 232.170368 167.828789 
L 232.424258 172.229 
L 232.678148 170.432683 
L 232.932038 163.156433 
L 233.185929 176.417453 
L 233.439819 178.16801 
L 233.693709 172.349774 
L 233.947599 179.704393 
L 234.20149 182.516019 
L 234.45538 136.824411 
L 234.70927 180.422464 
L 234.96316 174.660858 
L 235.217051 151.233727 
L 235.470941 176.838821 
L 235.724831 163.741249 
L 235.978721 176.005747 
L 236.232612 169.944889 
L 236.486502 170.526887 
L 236.740392 181.654093 
L 236.994282 175.055521 
L 237.248173 179.118101 
L 237.502063 167.324221 
L 237.755953 174.474865 
L 238.009843 172.088365 
L 238.263734 182.167653 
L 238.517624 172.079776 
L 238.771514 143.969017 
L 239.025404 163.583303 
L 239.279295 169.666571 
L 239.533185 172.598972 
L 239.787075 185.665814 
L 240.040965 173.441977 
L 240.294856 151.667306 
L 240.548746 169.389193 
L 240.802636 171.260256 
L 241.056526 181.513727 
L 241.310417 181.464075 
L 241.564307 180.733793 
L 241.818197 169.550628 
L 242.072087 177.299106 
L 242.325978 171.56501 
L 242.579868 171.925185 
L 242.833758 178.206121 
L 243.087648 163.933817 
L 243.341539 164.952213 
L 243.595429 178.964584 
L 243.849319 174.869529 
L 244.103209 184.58797 
L 244.3571 183.675319 
L 244.61099 175.407914 
L 244.86488 174.867382 
L 245.11877 188.749316 
L 245.372661 169.385301 
L 245.626551 170.95161 
L 245.880441 180.526061 
L 246.134331 178.219406 
L 246.642112 170.301576 
L 246.896002 182.237702 
L 247.149893 176.163022 
L 247.403783 173.566374 
L 247.657673 168.790555 
L 247.911563 171.012937 
L 248.165454 177.57796 
L 248.419344 141.340834 
L 248.673234 177.203426 
L 249.181015 153.143169 
L 249.434905 172.092659 
L 249.688795 153.533806 
L 249.942685 179.465529 
L 250.196576 173.715463 
L 250.450466 171.102712 
L 250.704356 174.432192 
L 250.958246 189.837761 
L 251.212137 177.449537 
L 251.466027 174.142468 
L 251.719917 173.673327 
L 251.973807 177.643715 
L 252.227698 172.7749 
L 252.481588 181.931472 
L 252.735478 167.708954 
L 252.989368 164.836941 
L 253.243259 176.823121 
L 253.497149 133.885033 
L 253.751039 173.430436 
L 254.004929 178.499602 
L 254.25882 160.41338 
L 254.51271 186.220839 
L 254.7666 181.090614 
L 255.02049 194.209657 
L 255.274381 161.449758 
L 255.528271 179.491562 
L 255.782161 188.380015 
L 256.289942 151.746347 
L 256.543832 180.015991 
L 256.797722 159.469596 
L 257.051612 165.147465 
L 257.305503 177.499725 
L 257.559393 177.653377 
L 257.813283 169.554251 
L 258.067173 169.369198 
L 258.321064 149.508398 
L 258.574954 183.159747 
L 258.828844 174.780961 
L 259.082734 176.856535 
L 259.336625 167.475725 
L 259.844405 187.718977 
L 260.098295 179.279536 
L 260.352186 180.456012 
L 260.606076 183.429476 
L 260.859966 174.583294 
L 261.113856 178.644397 
L 261.367747 165.629489 
L 261.621637 184.723506 
L 262.383308 151.955689 
L 262.637198 188.687856 
L 262.891088 183.822663 
L 263.144979 184.057502 
L 263.398869 161.707275 
L 263.652759 164.386587 
L 263.906649 156.009412 
L 264.16054 170.413896 
L 264.41443 175.339744 
L 264.66832 176.80742 
L 264.92221 170.667388 
L 265.176101 155.546712 
L 265.429991 176.874114 
L 265.683881 163.245538 
L 265.937771 171.912437 
L 266.191662 186.557262 
L 266.445552 172.421702 
L 266.699442 175.523186 
L 266.953332 161.288457 
L 267.207223 161.071332 
L 267.715003 171.318764 
L 267.968893 170.464487 
L 268.222784 181.76534 
L 268.476674 178.864878 
L 268.730564 181.107523 
L 269.238345 167.913063 
L 269.492235 147.338218 
L 269.746125 169.271639 
L 270.000015 175.13067 
L 270.253906 173.829394 
L 270.507796 178.452098 
L 270.761686 174.940786 
L 271.015576 191.07033 
L 271.269467 188.856537 
L 271.523357 176.636592 
L 271.777247 182.529707 
L 272.031137 178.016639 
L 272.285028 157.696226 
L 272.538918 157.375235 
L 273.300589 178.46847 
L 273.554479 160.067697 
L 274.062259 182.780918 
L 274.31615 167.771757 
L 274.57004 162.576851 
L 274.82393 176.092839 
L 275.07782 166.987663 
L 275.331711 173.105016 
L 275.585601 160.098696 
L 275.839491 172.924928 
L 276.093381 168.517605 
L 276.347272 170.869349 
L 276.601162 154.285425 
L 276.855052 179.768404 
L 277.108942 169.886112 
L 277.362833 180.367444 
L 277.616723 163.652547 
L 278.124503 184.325353 
L 278.632284 168.620263 
L 278.886174 184.614138 
L 279.393955 161.393933 
L 279.647845 168.746808 
L 279.901735 179.756192 
L 280.155626 178.442839 
L 280.409516 170.691274 
L 280.663406 180.962593 
L 280.917296 155.729752 
L 281.171187 172.397816 
L 281.425077 175.006004 
L 281.678967 173.629043 
L 281.932857 158.229512 
L 282.186748 177.59876 
L 282.440638 167.152319 
L 282.694528 180.185612 
L 282.948418 164.622768 
L 283.202309 179.117833 
L 283.456199 178.8944 
L 283.710089 182.917527 
L 283.963979 183.762142 
L 284.21787 168.866509 
L 284.47176 183.74416 
L 284.72565 161.009066 
L 284.97954 178.742761 
L 285.233431 162.493516 
L 285.487321 177.316819 
L 285.741211 175.169855 
L 285.995101 171.666997 
L 286.248992 175.175088 
L 287.010662 161.897025 
L 287.264553 165.292528 
L 287.518443 181.537613 
L 288.026223 161.308049 
L 288.280114 179.911723 
L 288.534004 156.292023 
L 289.041784 180.938975 
L 289.295675 159.117069 
L 289.549565 171.909351 
L 289.803455 172.538853 
L 290.311236 160.300523 
L 290.565126 167.560133 
L 290.819016 162.450038 
L 291.072906 150.050675 
L 291.326797 180.370933 
L 291.580687 126.621665 
L 291.834577 170.945035 
L 292.088467 172.160964 
L 292.342358 158.766018 
L 292.596248 162.464799 
L 292.850138 177.505227 
L 293.104028 176.609216 
L 293.357919 180.679311 
L 293.611809 164.74475 
L 293.865699 180.680787 
L 294.119589 185.435269 
L 294.88126 164.023056 
L 295.13515 175.036466 
L 295.389041 177.571519 
L 295.642931 173.13937 
L 295.896821 173.371659 
L 296.150712 175.985484 
L 296.404602 164.621962 
L 296.658492 181.62229 
L 296.912382 185.563021 
L 297.166273 181.221856 
L 297.420163 164.584925 
L 297.674053 179.237534 
L 297.927943 184.987062 
L 298.181834 176.594455 
L 298.435724 174.695077 
L 298.689614 186.616308 
L 298.943504 181.072095 
L 299.197395 179.485121 
L 299.451285 182.773537 
L 299.705175 179.190163 
L 299.959065 178.698612 
L 300.212956 164.552718 
L 300.466846 179.260481 
L 300.720736 165.718325 
L 300.974626 191.60952 
L 301.228517 156.609928 
L 301.482407 168.658374 
L 301.736297 148.798648 
L 301.990187 166.433309 
L 302.244078 175.846996 
L 302.497968 181.09303 
L 302.751858 170.090355 
L 303.005748 167.596902 
L 303.259639 159.113177 
L 303.513529 182.787493 
L 303.767419 148.54945 
L 304.2752 180.597452 
L 304.52909 163.296666 
L 304.78298 157.08806 
L 305.03687 185.600998 
L 305.290761 176.402826 
L 305.544651 162.008138 
L 305.798541 157.954012 
L 306.052431 170.912157 
L 306.306322 178.143587 
L 306.560212 165.563465 
L 306.814102 178.095814 
L 307.067992 164.661415 
L 307.575773 180.570479 
L 307.829663 159.757978 
L 308.083553 160.339037 
L 308.337444 173.932455 
L 308.591334 163.264727 
L 308.845224 174.277735 
L 309.099114 173.201502 
L 309.353005 174.813436 
L 309.606895 173.435133 
L 309.860785 165.038365 
L 310.114675 168.544444 
L 310.368566 180.549277 
L 310.622456 183.135726 
L 310.876346 176.383234 
L 311.130236 177.370631 
L 311.384127 177.510192 
L 311.638017 178.338838 
L 311.891907 174.162731 
L 312.145798 163.766612 
L 312.399688 170.319826 
L 312.653578 169.018013 
L 312.907468 169.197699 
L 313.161359 181.164018 
L 313.415249 174.336512 
L 313.669139 180.934815 
L 313.923029 173.217873 
L 314.17692 170.203615 
L 314.43081 169.464744 
L 314.6847 154.348362 
L 314.93859 163.803649 
L 315.446371 173.811278 
L 315.700261 174.762442 
L 315.954151 178.26208 
L 316.208042 179.119175 
L 316.461932 177.308097 
L 316.461932 177.308097 
" clip-path="url(#p1b5deb4ace)" style="fill: none; stroke: #ff0000; stroke-width: 0.6; stroke-linecap: square"/>
   </g>
   <g id="patch_3">
    <path d="M 50.14375 239.76 
L 50.14375 37.296 
" style="fill: none; stroke: #000000; stroke-width: 0.8; stroke-linejoin: miter; stroke-linecap: square"/>
   </g>
   <g id="patch_4">
    <path d="M 329.14375 239.76 
L 329.14375 37.296 
" style="fill: none; stroke: #000000; stroke-width: 0.8; stroke-linejoin: miter; stroke-linecap: square"/>
   </g>
   <g id="patch_5">
    <path d="M 50.14375 239.76 
L 329.14375 239.76 
" style="fill: none; stroke: #000000; stroke-width: 0.8; stroke-linejoin: miter; stroke-linecap: square"/>
   </g>
   <g id="patch_6">
    <path d="M 50.14375 37.296 
L 329.14375 37.296 
" style="fill: none; stroke: #000000; stroke-width: 0.8; stroke-linejoin: miter; stroke-linecap: square"/>
   </g>
   <g id="text_18">
    <!-- Baseline Model -->
    <g transform="translate(155.622344 31.296) scale(0.09 -0.09)">
     <defs>
      <path id="DejaVuSans-42" d="M 1259 2228 
L 1259 519 
L 2272 519 
Q 2781 519 3026 730 
Q 3272 941 3272 1375 
Q 3272 1813 3026 2020 
Q 2781 2228 2272 2228 
L 1259 2228 
z
M 1259 4147 
L 1259 2741 
L 2194 2741 
Q 2656 2741 2882 2914 
Q 3109 3088 3109 3444 
Q 3109 3797 2882 3972 
Q 2656 4147 2194 4147 
L 1259 4147 
z
M 628 4666 
L 2241 4666 
Q 2963 4666 3353 4366 
Q 3744 4066 3744 3513 
Q 3744 3084 3544 2831 
Q 3344 2578 2956 2516 
Q 3422 2416 3680 2098 
Q 3938 1781 3938 1306 
Q 3938 681 3513 340 
Q 3088 0 2303 0 
L 628 0 
L 628 4666 
z
" transform="scale(0.015625)"/>
      <path id="DejaVuSans-61" d="M 2194 1759 
Q 1497 1759 1228 1600 
Q 959 1441 959 1056 
Q 959 750 1161 570 
Q 1363 391 1709 391 
Q 2188 391 2477 730 
Q 2766 1069 2766 1631 
L 2766 1759 
L 2194 1759 
z
M 3341 1997 
L 3341 0 
L 2766 0 
L 2766 531 
Q 2569 213 2275 61 
Q 1981 -91 1556 -91 
Q 1019 -91 701 211 
Q 384 513 384 1019 
Q 384 1609 779 1909 
Q 1175 2209 1959 2209 
L 2766 2209 
L 2766 2266 
Q 2766 2663 2505 2880 
Q 2244 3097 1772 3097 
Q 1472 3097 1187 3025 
Q 903 2953 641 2809 
L 641 3341 
Q 956 3463 1253 3523 
Q 1550 3584 1831 3584 
Q 2591 3584 2966 3190 
Q 3341 2797 3341 1997 
z
" transform="scale(0.015625)"/>
      <path id="DejaVuSans-65" d="M 3597 1894 
L 3597 1613 
L 953 1613 
Q 991 1019 1311 708 
Q 1631 397 2203 397 
Q 2534 397 2845 478 
Q 3156 559 3463 722 
L 3463 178 
Q 3153 47 2828 -22 
Q 2503 -91 2169 -91 
Q 1331 -91 842 396 
Q 353 884 353 1716 
Q 353 2575 817 3079 
Q 1281 3584 2069 3584 
Q 2775 3584 3186 3129 
Q 3597 2675 3597 1894 
z
M 3022 2063 
Q 3016 2534 2758 2815 
Q 2500 3097 2075 3097 
Q 1594 3097 1305 2825 
Q 1016 2553 972 2059 
L 3022 2063 
z
" transform="scale(0.015625)"/>
      <path id="DejaVuSans-6c" d="M 603 4863 
L 1178 4863 
L 1178 0 
L 603 0 
L 603 4863 
z
" transform="scale(0.015625)"/>
      <path id="DejaVuSans-69" d="M 603 3500 
L 1178 3500 
L 1178 0 
L 603 0 
L 603 3500 
z
M 603 4863 
L 1178 4863 
L 1178 4134 
L 603 4134 
L 603 4863 
z
" transform="scale(0.015625)"/>
      <path id="DejaVuSans-6e" d="M 3513 2113 
L 3513 0 
L 2938 0 
L 2938 2094 
Q 2938 2591 2744 2837 
Q 2550 3084 2163 3084 
Q 1697 3084 1428 2787 
Q 1159 2491 1159 1978 
L 1159 0 
L 581 0 
L 581 3500 
L 1159 3500 
L 1159 2956 
Q 1366 3272 1645 3428 
Q 1925 3584 2291 3584 
Q 2894 3584 3203 3211 
Q 3513 2838 3513 2113 
z
" transform="scale(0.015625)"/>
      <path id="DejaVuSans-20" transform="scale(0.015625)"/>
      <path id="DejaVuSans-4d" d="M 628 4666 
L 1569 4666 
L 2759 1491 
L 3956 4666 
L 4897 4666 
L 4897 0 
L 4281 0 
L 4281 4097 
L 3078 897 
L 2444 897 
L 1241 4097 
L 1241 0 
L 628 0 
L 628 4666 
z
" transform="scale(0.015625)"/>
      <path id="DejaVuSans-64" d="M 2906 2969 
L 2906 4863 
L 3481 4863 
L 3481 0 
L 2906 0 
L 2906 525 
Q 2725 213 2448 61 
Q 2172 -91 1784 -91 
Q 1150 -91 751 415 
Q 353 922 353 1747 
Q 353 2572 751 3078 
Q 1150 3584 1784 3584 
Q 2172 3584 2448 3432 
Q 2725 3281 2906 2969 
z
M 947 1747 
Q 947 1113 1208 752 
Q 1469 391 1925 391 
Q 2381 391 2643 752 
Q 2906 1113 2906 1747 
Q 2906 2381 2643 2742 
Q 2381 3103 1925 3103 
Q 1469 3103 1208 2742 
Q 947 2381 947 1747 
z
" transform="scale(0.015625)"/>
     </defs>
     <use xlink:href="#DejaVuSans-42"/>
     <use xlink:href="#DejaVuSans-61" x="68.603516"/>
     <use xlink:href="#DejaVuSans-73" x="129.882812"/>
     <use xlink:href="#DejaVuSans-65" x="181.982422"/>
     <use xlink:href="#DejaVuSans-6c" x="243.505859"/>
     <use xlink:href="#DejaVuSans-69" x="271.289062"/>
     <use xlink:href="#DejaVuSans-6e" x="299.072266"/>
     <use xlink:href="#DejaVuSans-65" x="362.451172"/>
     <use xlink:href="#DejaVuSans-20" x="423.974609"/>
     <use xlink:href="#DejaVuSans-4d" x="455.761719"/>
     <use xlink:href="#DejaVuSans-6f" x="542.041016"/>
     <use xlink:href="#DejaVuSans-64" x="603.222656"/>
     <use xlink:href="#DejaVuSans-65" x="666.699219"/>
     <use xlink:href="#DejaVuSans-6c" x="728.222656"/>
    </g>
   </g>
   <g id="legend_1">
    <g id="patch_7">
     <path d="M 215.65 74.65225 
L 322.14375 74.65225 
Q 324.14375 74.65225 324.14375 72.65225 
L 324.14375 44.296 
Q 324.14375 42.296 322.14375 42.296 
L 215.65 42.296 
Q 213.65 42.296 213.65 44.296 
L 213.65 72.65225 
Q 213.65 74.65225 215.65 74.65225 
z
" style="fill: #ffffff; opacity: 0.8; stroke: #cccccc; stroke-linejoin: miter"/>
    </g>
    <g id="line2d_33">
     <path d="M 217.65 50.394438 
L 227.65 50.394438 
L 237.65 50.394438 
" style="fill: none; stroke: #0000ff; stroke-width: 0.6; stroke-linecap: square"/>
    </g>
    <g id="text_19">
     <!-- Training Loss -->
     <g transform="translate(245.65 53.894438) scale(0.1 -0.1)">
      <defs>
       <path id="DejaVuSans-54" d="M -19 4666 
L 3928 4666 
L 3928 4134 
L 2272 4134 
L 2272 0 
L 1638 0 
L 1638 4134 
L -19 4134 
L -19 4666 
z
" transform="scale(0.015625)"/>
       <path id="DejaVuSans-72" d="M 2631 2963 
Q 2534 3019 2420 3045 
Q 2306 3072 2169 3072 
Q 1681 3072 1420 2755 
Q 1159 2438 1159 1844 
L 1159 0 
L 581 0 
L 581 3500 
L 1159 3500 
L 1159 2956 
Q 1341 3275 1631 3429 
Q 1922 3584 2338 3584 
Q 2397 3584 2469 3576 
Q 2541 3569 2628 3553 
L 2631 2963 
z
" transform="scale(0.015625)"/>
       <path id="DejaVuSans-67" d="M 2906 1791 
Q 2906 2416 2648 2759 
Q 2391 3103 1925 3103 
Q 1463 3103 1205 2759 
Q 947 2416 947 1791 
Q 947 1169 1205 825 
Q 1463 481 1925 481 
Q 2391 481 2648 825 
Q 2906 1169 2906 1791 
z
M 3481 434 
Q 3481 -459 3084 -895 
Q 2688 -1331 1869 -1331 
Q 1566 -1331 1297 -1286 
Q 1028 -1241 775 -1147 
L 775 -588 
Q 1028 -725 1275 -790 
Q 1522 -856 1778 -856 
Q 2344 -856 2625 -561 
Q 2906 -266 2906 331 
L 2906 616 
Q 2728 306 2450 153 
Q 2172 0 1784 0 
Q 1141 0 747 490 
Q 353 981 353 1791 
Q 353 2603 747 3093 
Q 1141 3584 1784 3584 
Q 2172 3584 2450 3431 
Q 2728 3278 2906 2969 
L 2906 3500 
L 3481 3500 
L 3481 434 
z
" transform="scale(0.015625)"/>
      </defs>
      <use xlink:href="#DejaVuSans-54"/>
      <use xlink:href="#DejaVuSans-72" x="46.333984"/>
      <use xlink:href="#DejaVuSans-61" x="87.447266"/>
      <use xlink:href="#DejaVuSans-69" x="148.726562"/>
      <use xlink:href="#DejaVuSans-6e" x="176.509766"/>
      <use xlink:href="#DejaVuSans-69" x="239.888672"/>
      <use xlink:href="#DejaVuSans-6e" x="267.671875"/>
      <use xlink:href="#DejaVuSans-67" x="331.050781"/>
      <use xlink:href="#DejaVuSans-20" x="394.527344"/>
      <use xlink:href="#DejaVuSans-4c" x="426.314453"/>
      <use xlink:href="#DejaVuSans-6f" x="480.277344"/>
      <use xlink:href="#DejaVuSans-73" x="541.458984"/>
      <use xlink:href="#DejaVuSans-73" x="593.558594"/>
     </g>
    </g>
    <g id="line2d_34">
     <path d="M 217.65 65.072563 
L 227.65 65.072563 
L 237.65 65.072563 
" style="fill: none; stroke: #ff0000; stroke-width: 0.6; stroke-linecap: square"/>
    </g>
    <g id="text_20">
     <!-- Validation Loss -->
     <g transform="translate(245.65 68.572563) scale(0.1 -0.1)">
      <defs>
       <path id="DejaVuSans-56" d="M 1831 0 
L 50 4666 
L 709 4666 
L 2188 738 
L 3669 4666 
L 4325 4666 
L 2547 0 
L 1831 0 
z
" transform="scale(0.015625)"/>
       <path id="DejaVuSans-74" d="M 1172 4494 
L 1172 3500 
L 2356 3500 
L 2356 3053 
L 1172 3053 
L 1172 1153 
Q 1172 725 1289 603 
Q 1406 481 1766 481 
L 2356 481 
L 2356 0 
L 1766 0 
Q 1100 0 847 248 
Q 594 497 594 1153 
L 594 3053 
L 172 3053 
L 172 3500 
L 594 3500 
L 594 4494 
L 1172 4494 
z
" transform="scale(0.015625)"/>
      </defs>
      <use xlink:href="#DejaVuSans-56"/>
      <use xlink:href="#DejaVuSans-61" x="60.658203"/>
      <use xlink:href="#DejaVuSans-6c" x="121.9375"/>
      <use xlink:href="#DejaVuSans-69" x="149.720703"/>
      <use xlink:href="#DejaVuSans-64" x="177.503906"/>
      <use xlink:href="#DejaVuSans-61" x="240.980469"/>
      <use xlink:href="#DejaVuSans-74" x="302.259766"/>
      <use xlink:href="#DejaVuSans-69" x="341.46875"/>
      <use xlink:href="#DejaVuSans-6f" x="369.251953"/>
      <use xlink:href="#DejaVuSans-6e" x="430.433594"/>
      <use xlink:href="#DejaVuSans-20" x="493.8125"/>
      <use xlink:href="#DejaVuSans-4c" x="525.599609"/>
      <use xlink:href="#DejaVuSans-6f" x="579.5625"/>
      <use xlink:href="#DejaVuSans-73" x="640.744141"/>
      <use xlink:href="#DejaVuSans-73" x="692.84375"/>
     </g>
    </g>
   </g>
  </g>
  <g id="text_21">
   <!-- Training VS. Validation Loss - Dataset Size = 100.0% -->
   <g transform="translate(40.843516 15.558281) scale(0.11 -0.11)">
    <defs>
     <path id="DejaVuSans-53" d="M 3425 4513 
L 3425 3897 
Q 3066 4069 2747 4153 
Q 2428 4238 2131 4238 
Q 1616 4238 1336 4038 
Q 1056 3838 1056 3469 
Q 1056 3159 1242 3001 
Q 1428 2844 1947 2747 
L 2328 2669 
Q 3034 2534 3370 2195 
Q 3706 1856 3706 1288 
Q 3706 609 3251 259 
Q 2797 -91 1919 -91 
Q 1588 -91 1214 -16 
Q 841 59 441 206 
L 441 856 
Q 825 641 1194 531 
Q 1563 422 1919 422 
Q 2459 422 2753 634 
Q 3047 847 3047 1241 
Q 3047 1584 2836 1778 
Q 2625 1972 2144 2069 
L 1759 2144 
Q 1053 2284 737 2584 
Q 422 2884 422 3419 
Q 422 4038 858 4394 
Q 1294 4750 2059 4750 
Q 2388 4750 2728 4690 
Q 3069 4631 3425 4513 
z
" transform="scale(0.015625)"/>
     <path id="DejaVuSans-2d" d="M 313 2009 
L 1997 2009 
L 1997 1497 
L 313 1497 
L 313 2009 
z
" transform="scale(0.015625)"/>
     <path id="DejaVuSans-44" d="M 1259 4147 
L 1259 519 
L 2022 519 
Q 2988 519 3436 956 
Q 3884 1394 3884 2338 
Q 3884 3275 3436 3711 
Q 2988 4147 2022 4147 
L 1259 4147 
z
M 628 4666 
L 1925 4666 
Q 3281 4666 3915 4102 
Q 4550 3538 4550 2338 
Q 4550 1131 3912 565 
Q 3275 0 1925 0 
L 628 0 
L 628 4666 
z
" transform="scale(0.015625)"/>
     <path id="DejaVuSans-7a" d="M 353 3500 
L 3084 3500 
L 3084 2975 
L 922 459 
L 3084 459 
L 3084 0 
L 275 0 
L 275 525 
L 2438 3041 
L 353 3041 
L 353 3500 
z
" transform="scale(0.015625)"/>
     <path id="DejaVuSans-3d" d="M 678 2906 
L 4684 2906 
L 4684 2381 
L 678 2381 
L 678 2906 
z
M 678 1631 
L 4684 1631 
L 4684 1100 
L 678 1100 
L 678 1631 
z
" transform="scale(0.015625)"/>
     <path id="DejaVuSans-25" d="M 4653 2053 
Q 4381 2053 4226 1822 
Q 4072 1591 4072 1178 
Q 4072 772 4226 539 
Q 4381 306 4653 306 
Q 4919 306 5073 539 
Q 5228 772 5228 1178 
Q 5228 1588 5073 1820 
Q 4919 2053 4653 2053 
z
M 4653 2450 
Q 5147 2450 5437 2106 
Q 5728 1763 5728 1178 
Q 5728 594 5436 251 
Q 5144 -91 4653 -91 
Q 4153 -91 3862 251 
Q 3572 594 3572 1178 
Q 3572 1766 3864 2108 
Q 4156 2450 4653 2450 
z
M 1428 4353 
Q 1159 4353 1004 4120 
Q 850 3888 850 3481 
Q 850 3069 1003 2837 
Q 1156 2606 1428 2606 
Q 1700 2606 1854 2837 
Q 2009 3069 2009 3481 
Q 2009 3884 1853 4118 
Q 1697 4353 1428 4353 
z
M 4250 4750 
L 4750 4750 
L 1831 -91 
L 1331 -91 
L 4250 4750 
z
M 1428 4750 
Q 1922 4750 2215 4408 
Q 2509 4066 2509 3481 
Q 2509 2891 2217 2550 
Q 1925 2209 1428 2209 
Q 931 2209 642 2551 
Q 353 2894 353 3481 
Q 353 4063 643 4406 
Q 934 4750 1428 4750 
z
" transform="scale(0.015625)"/>
    </defs>
    <use xlink:href="#DejaVuSans-54"/>
    <use xlink:href="#DejaVuSans-72" x="46.333984"/>
    <use xlink:href="#DejaVuSans-61" x="87.447266"/>
    <use xlink:href="#DejaVuSans-69" x="148.726562"/>
    <use xlink:href="#DejaVuSans-6e" x="176.509766"/>
    <use xlink:href="#DejaVuSans-69" x="239.888672"/>
    <use xlink:href="#DejaVuSans-6e" x="267.671875"/>
    <use xlink:href="#DejaVuSans-67" x="331.050781"/>
    <use xlink:href="#DejaVuSans-20" x="394.527344"/>
    <use xlink:href="#DejaVuSans-56" x="426.314453"/>
    <use xlink:href="#DejaVuSans-53" x="494.722656"/>
    <use xlink:href="#DejaVuSans-2e" x="558.199219"/>
    <use xlink:href="#DejaVuSans-20" x="589.986328"/>
    <use xlink:href="#DejaVuSans-56" x="621.773438"/>
    <use xlink:href="#DejaVuSans-61" x="682.431641"/>
    <use xlink:href="#DejaVuSans-6c" x="743.710938"/>
    <use xlink:href="#DejaVuSans-69" x="771.494141"/>
    <use xlink:href="#DejaVuSans-64" x="799.277344"/>
    <use xlink:href="#DejaVuSans-61" x="862.753906"/>
    <use xlink:href="#DejaVuSans-74" x="924.033203"/>
    <use xlink:href="#DejaVuSans-69" x="963.242188"/>
    <use xlink:href="#DejaVuSans-6f" x="991.025391"/>
    <use xlink:href="#DejaVuSans-6e" x="1052.207031"/>
    <use xlink:href="#DejaVuSans-20" x="1115.585938"/>
    <use xlink:href="#DejaVuSans-4c" x="1147.373047"/>
    <use xlink:href="#DejaVuSans-6f" x="1201.335938"/>
    <use xlink:href="#DejaVuSans-73" x="1262.517578"/>
    <use xlink:href="#DejaVuSans-73" x="1314.617188"/>
    <use xlink:href="#DejaVuSans-20" x="1366.716797"/>
    <use xlink:href="#DejaVuSans-2d" x="1398.503906"/>
    <use xlink:href="#DejaVuSans-20" x="1434.587891"/>
    <use xlink:href="#DejaVuSans-44" x="1466.375"/>
    <use xlink:href="#DejaVuSans-61" x="1543.376953"/>
    <use xlink:href="#DejaVuSans-74" x="1604.65625"/>
    <use xlink:href="#DejaVuSans-61" x="1643.865234"/>
    <use xlink:href="#DejaVuSans-73" x="1705.144531"/>
    <use xlink:href="#DejaVuSans-65" x="1757.244141"/>
    <use xlink:href="#DejaVuSans-74" x="1818.767578"/>
    <use xlink:href="#DejaVuSans-20" x="1857.976562"/>
    <use xlink:href="#DejaVuSans-53" x="1889.763672"/>
    <use xlink:href="#DejaVuSans-69" x="1953.240234"/>
    <use xlink:href="#DejaVuSans-7a" x="1981.023438"/>
    <use xlink:href="#DejaVuSans-65" x="2033.513672"/>
    <use xlink:href="#DejaVuSans-20" x="2095.037109"/>
    <use xlink:href="#DejaVuSans-3d" x="2126.824219"/>
    <use xlink:href="#DejaVuSans-20" x="2210.613281"/>
    <use xlink:href="#DejaVuSans-31" x="2242.400391"/>
    <use xlink:href="#DejaVuSans-30" x="2306.023438"/>
    <use xlink:href="#DejaVuSans-30" x="2369.646484"/>
    <use xlink:href="#DejaVuSans-2e" x="2433.269531"/>
    <use xlink:href="#DejaVuSans-30" x="2465.056641"/>
    <use xlink:href="#DejaVuSans-25" x="2528.679688"/>
   </g>
  </g>
 </g>
 <defs>
  <clipPath id="p1b5deb4ace">
   <rect x="50.14375" y="37.296" width="279" height="202.464"/>
  </clipPath>
 </defs>
</svg>
