<?xml version="1.0" encoding="utf-8" standalone="no"?>
<!DOCTYPE svg PUBLIC "-//W3C//DTD SVG 1.1//EN"
  "http://www.w3.org/Graphics/SVG/1.1/DTD/svg11.dtd">
<svg xmlns:xlink="http://www.w3.org/1999/xlink" width="343.328516pt" height="277.31625pt" viewBox="0 0 343.328516 277.31625" xmlns="http://www.w3.org/2000/svg" version="1.1">
 <metadata>
  <rdf:RDF xmlns:dc="http://purl.org/dc/elements/1.1/" xmlns:cc="http://creativecommons.org/ns#" xmlns:rdf="http://www.w3.org/1999/02/22-rdf-syntax-ns#">
   <cc:Work>
    <dc:type rdf:resource="http://purl.org/dc/dcmitype/StillImage"/>
    <dc:date>2026-06-11T15:24:26.146345</dc:date>
    <dc:format>image/svg+xml</dc:format>
    <dc:creator>
     <cc:Agent>
      <dc:title>Matplotlib v3.8.4, https://matplotlib.org/</dc:title>
     </cc:Agent>
    </dc:creator>
   </cc:Work>
  </rdf:RDF>
 </metadata>
 <defs>
  <style type="text/css">*{stroke-linejoin: round; stroke-linecap: butt}</style>
 </defs>
 <g id="figure_1">
  <g id="patch_1">
   <path d="M 0 277.31625 
L 343.328516 277.31625 
L 343.328516 0 
L 0 0 
z
" style="fill: #ffffff"/>
  </g>
  <g id="axes_1">
   <g id="patch_2">
    <path d="M 43.78125 239.76 
L 322.78125 239.76 
L 322.78125 37.296 
L 43.78125 37.296 
z
" style="fill: #ffffff"/>
   </g>
   <g id="matplotlib.axis_1">
    <g id="xtick_1">
     <g id="line2d_1">
      <path d="M 56.209178 239.76 
L 56.209178 37.296 
" clip-path="url(#pfea2adc68d)" style="fill: none; stroke-dasharray: 2.96,1.28; stroke-dashoffset: 0; stroke: #b0b0b0; stroke-opacity: 0.4; stroke-width: 0.8"/>
     </g>
     <g id="line2d_2">
      <defs>
       <path id="m7ef9b2db3a" d="M 0 0 
L 0 3.5 
" style="stroke: #000000; stroke-width: 0.8"/>
      </defs>
      <g>
       <use xlink:href="#m7ef9b2db3a" x="56.209178" y="239.76" style="stroke: #000000; stroke-width: 0.8"/>
      </g>
     </g>
     <g id="text_1">
      <!-- 0 -->
      <g transform="translate(53.027928 254.358437) scale(0.1 -0.1)">
       <defs>
        <path id="DejaVuSans-30" d="M 2034 4250 
Q 1547 4250 1301 3770 
Q 1056 3291 1056 2328 
Q 1056 1369 1301 889 
Q 1547 409 2034 409 
Q 2525 409 2770 889 
Q 3016 1369 3016 2328 
Q 3016 3291 2770 3770 
Q 2525 4250 2034 4250 
z
M 2034 4750 
Q 2819 4750 3233 4129 
Q 3647 3509 3647 2328 
Q 3647 1150 3233 529 
Q 2819 -91 2034 -91 
Q 1250 -91 836 529 
Q 422 1150 422 2328 
Q 422 3509 836 4129 
Q 1250 4750 2034 4750 
z
" transform="scale(0.015625)"/>
       </defs>
       <use xlink:href="#DejaVuSans-30"/>
      </g>
     </g>
    </g>
    <g id="xtick_2">
     <g id="line2d_3">
      <path d="M 106.987229 239.76 
L 106.987229 37.296 
" clip-path="url(#pfea2adc68d)" style="fill: none; stroke-dasharray: 2.96,1.28; stroke-dashoffset: 0; stroke: #b0b0b0; stroke-opacity: 0.4; stroke-width: 0.8"/>
     </g>
     <g id="line2d_4">
      <g>
       <use xlink:href="#m7ef9b2db3a" x="106.987229" y="239.76" style="stroke: #000000; stroke-width: 0.8"/>
      </g>
     </g>
     <g id="text_2">
      <!-- 200 -->
      <g transform="translate(97.443479 254.358437) scale(0.1 -0.1)">
       <defs>
        <path id="DejaVuSans-32" d="M 1228 531 
L 3431 531 
L 3431 0 
L 469 0 
L 469 531 
Q 828 903 1448 1529 
Q 2069 2156 2228 2338 
Q 2531 2678 2651 2914 
Q 2772 3150 2772 3378 
Q 2772 3750 2511 3984 
Q 2250 4219 1831 4219 
Q 1534 4219 1204 4116 
Q 875 4013 500 3803 
L 500 4441 
Q 881 4594 1212 4672 
Q 1544 4750 1819 4750 
Q 2544 4750 2975 4387 
Q 3406 4025 3406 3419 
Q 3406 3131 3298 2873 
Q 3191 2616 2906 2266 
Q 2828 2175 2409 1742 
Q 1991 1309 1228 531 
z
" transform="scale(0.015625)"/>
       </defs>
       <use xlink:href="#DejaVuSans-32"/>
       <use xlink:href="#DejaVuSans-30" x="63.623047"/>
       <use xlink:href="#DejaVuSans-30" x="127.246094"/>
      </g>
     </g>
    </g>
    <g id="xtick_3">
     <g id="line2d_5">
      <path d="M 157.765279 239.76 
L 157.765279 37.296 
" clip-path="url(#pfea2adc68d)" style="fill: none; stroke-dasharray: 2.96,1.28; stroke-dashoffset: 0; stroke: #b0b0b0; stroke-opacity: 0.4; stroke-width: 0.8"/>
     </g>
     <g id="line2d_6">
      <g>
       <use xlink:href="#m7ef9b2db3a" x="157.765279" y="239.76" style="stroke: #000000; stroke-width: 0.8"/>
      </g>
     </g>
     <g id="text_3">
      <!-- 400 -->
      <g transform="translate(148.221529 254.358437) scale(0.1 -0.1)">
       <defs>
        <path id="DejaVuSans-34" d="M 2419 4116 
L 825 1625 
L 2419 1625 
L 2419 4116 
z
M 2253 4666 
L 3047 4666 
L 3047 1625 
L 3713 1625 
L 3713 1100 
L 3047 1100 
L 3047 0 
L 2419 0 
L 2419 1100 
L 313 1100 
L 313 1709 
L 2253 4666 
z
" transform="scale(0.015625)"/>
       </defs>
       <use xlink:href="#DejaVuSans-34"/>
       <use xlink:href="#DejaVuSans-30" x="63.623047"/>
       <use xlink:href="#DejaVuSans-30" x="127.246094"/>
      </g>
     </g>
    </g>
    <g id="xtick_4">
     <g id="line2d_7">
      <path d="M 208.54333 239.76 
L 208.54333 37.296 
" clip-path="url(#pfea2adc68d)" style="fill: none; stroke-dasharray: 2.96,1.28; stroke-dashoffset: 0; stroke: #b0b0b0; stroke-opacity: 0.4; stroke-width: 0.8"/>
     </g>
     <g id="line2d_8">
      <g>
       <use xlink:href="#m7ef9b2db3a" x="208.54333" y="239.76" style="stroke: #000000; stroke-width: 0.8"/>
      </g>
     </g>
     <g id="text_4">
      <!-- 600 -->
      <g transform="translate(198.99958 254.358437) scale(0.1 -0.1)">
       <defs>
        <path id="DejaVuSans-36" d="M 2113 2584 
Q 1688 2584 1439 2293 
Q 1191 2003 1191 1497 
Q 1191 994 1439 701 
Q 1688 409 2113 409 
Q 2538 409 2786 701 
Q 3034 994 3034 1497 
Q 3034 2003 2786 2293 
Q 2538 2584 2113 2584 
z
M 3366 4563 
L 3366 3988 
Q 3128 4100 2886 4159 
Q 2644 4219 2406 4219 
Q 1781 4219 1451 3797 
Q 1122 3375 1075 2522 
Q 1259 2794 1537 2939 
Q 1816 3084 2150 3084 
Q 2853 3084 3261 2657 
Q 3669 2231 3669 1497 
Q 3669 778 3244 343 
Q 2819 -91 2113 -91 
Q 1303 -91 875 529 
Q 447 1150 447 2328 
Q 447 3434 972 4092 
Q 1497 4750 2381 4750 
Q 2619 4750 2861 4703 
Q 3103 4656 3366 4563 
z
" transform="scale(0.015625)"/>
       </defs>
       <use xlink:href="#DejaVuSans-36"/>
       <use xlink:href="#DejaVuSans-30" x="63.623047"/>
       <use xlink:href="#DejaVuSans-30" x="127.246094"/>
      </g>
     </g>
    </g>
    <g id="xtick_5">
     <g id="line2d_9">
      <path d="M 259.321381 239.76 
L 259.321381 37.296 
" clip-path="url(#pfea2adc68d)" style="fill: none; stroke-dasharray: 2.96,1.28; stroke-dashoffset: 0; stroke: #b0b0b0; stroke-opacity: 0.4; stroke-width: 0.8"/>
     </g>
     <g id="line2d_10">
      <g>
       <use xlink:href="#m7ef9b2db3a" x="259.321381" y="239.76" style="stroke: #000000; stroke-width: 0.8"/>
      </g>
     </g>
     <g id="text_5">
      <!-- 800 -->
      <g transform="translate(249.777631 254.358437) scale(0.1 -0.1)">
       <defs>
        <path id="DejaVuSans-38" d="M 2034 2216 
Q 1584 2216 1326 1975 
Q 1069 1734 1069 1313 
Q 1069 891 1326 650 
Q 1584 409 2034 409 
Q 2484 409 2743 651 
Q 3003 894 3003 1313 
Q 3003 1734 2745 1975 
Q 2488 2216 2034 2216 
z
M 1403 2484 
Q 997 2584 770 2862 
Q 544 3141 544 3541 
Q 544 4100 942 4425 
Q 1341 4750 2034 4750 
Q 2731 4750 3128 4425 
Q 3525 4100 3525 3541 
Q 3525 3141 3298 2862 
Q 3072 2584 2669 2484 
Q 3125 2378 3379 2068 
Q 3634 1759 3634 1313 
Q 3634 634 3220 271 
Q 2806 -91 2034 -91 
Q 1263 -91 848 271 
Q 434 634 434 1313 
Q 434 1759 690 2068 
Q 947 2378 1403 2484 
z
M 1172 3481 
Q 1172 3119 1398 2916 
Q 1625 2713 2034 2713 
Q 2441 2713 2670 2916 
Q 2900 3119 2900 3481 
Q 2900 3844 2670 4047 
Q 2441 4250 2034 4250 
Q 1625 4250 1398 4047 
Q 1172 3844 1172 3481 
z
" transform="scale(0.015625)"/>
       </defs>
       <use xlink:href="#DejaVuSans-38"/>
       <use xlink:href="#DejaVuSans-30" x="63.623047"/>
       <use xlink:href="#DejaVuSans-30" x="127.246094"/>
      </g>
     </g>
    </g>
    <g id="xtick_6">
     <g id="line2d_11">
      <path d="M 310.099432 239.76 
L 310.099432 37.296 
" clip-path="url(#pfea2adc68d)" style="fill: none; stroke-dasharray: 2.96,1.28; stroke-dashoffset: 0; stroke: #b0b0b0; stroke-opacity: 0.4; stroke-width: 0.8"/>
     </g>
     <g id="line2d_12">
      <g>
       <use xlink:href="#m7ef9b2db3a" x="310.099432" y="239.76" style="stroke: #000000; stroke-width: 0.8"/>
      </g>
     </g>
     <g id="text_6">
      <!-- 1000 -->
      <g transform="translate(297.374432 254.358437) scale(0.1 -0.1)">
       <defs>
        <path id="DejaVuSans-31" d="M 794 531 
L 1825 531 
L 1825 4091 
L 703 3866 
L 703 4441 
L 1819 4666 
L 2450 4666 
L 2450 531 
L 3481 531 
L 3481 0 
L 794 0 
L 794 531 
z
" transform="scale(0.015625)"/>
       </defs>
       <use xlink:href="#DejaVuSans-31"/>
       <use xlink:href="#DejaVuSans-30" x="63.623047"/>
       <use xlink:href="#DejaVuSans-30" x="127.246094"/>
       <use xlink:href="#DejaVuSans-30" x="190.869141"/>
      </g>
     </g>
    </g>
    <g id="text_7">
     <!-- Epochs -->
     <g transform="translate(165.365625 268.036562) scale(0.1 -0.1)">
      <defs>
       <path id="DejaVuSans-45" d="M 628 4666 
L 3578 4666 
L 3578 4134 
L 1259 4134 
L 1259 2753 
L 3481 2753 
L 3481 2222 
L 1259 2222 
L 1259 531 
L 3634 531 
L 3634 0 
L 628 0 
L 628 4666 
z
" transform="scale(0.015625)"/>
       <path id="DejaVuSans-70" d="M 1159 525 
L 1159 -1331 
L 581 -1331 
L 581 3500 
L 1159 3500 
L 1159 2969 
Q 1341 3281 1617 3432 
Q 1894 3584 2278 3584 
Q 2916 3584 3314 3078 
Q 3713 2572 3713 1747 
Q 3713 922 3314 415 
Q 2916 -91 2278 -91 
Q 1894 -91 1617 61 
Q 1341 213 1159 525 
z
M 3116 1747 
Q 3116 2381 2855 2742 
Q 2594 3103 2138 3103 
Q 1681 3103 1420 2742 
Q 1159 2381 1159 1747 
Q 1159 1113 1420 752 
Q 1681 391 2138 391 
Q 2594 391 2855 752 
Q 3116 1113 3116 1747 
z
" transform="scale(0.015625)"/>
       <path id="DejaVuSans-6f" d="M 1959 3097 
Q 1497 3097 1228 2736 
Q 959 2375 959 1747 
Q 959 1119 1226 758 
Q 1494 397 1959 397 
Q 2419 397 2687 759 
Q 2956 1122 2956 1747 
Q 2956 2369 2687 2733 
Q 2419 3097 1959 3097 
z
M 1959 3584 
Q 2709 3584 3137 3096 
Q 3566 2609 3566 1747 
Q 3566 888 3137 398 
Q 2709 -91 1959 -91 
Q 1206 -91 779 398 
Q 353 888 353 1747 
Q 353 2609 779 3096 
Q 1206 3584 1959 3584 
z
" transform="scale(0.015625)"/>
       <path id="DejaVuSans-63" d="M 3122 3366 
L 3122 2828 
Q 2878 2963 2633 3030 
Q 2388 3097 2138 3097 
Q 1578 3097 1268 2742 
Q 959 2388 959 1747 
Q 959 1106 1268 751 
Q 1578 397 2138 397 
Q 2388 397 2633 464 
Q 2878 531 3122 666 
L 3122 134 
Q 2881 22 2623 -34 
Q 2366 -91 2075 -91 
Q 1284 -91 818 406 
Q 353 903 353 1747 
Q 353 2603 823 3093 
Q 1294 3584 2113 3584 
Q 2378 3584 2631 3529 
Q 2884 3475 3122 3366 
z
" transform="scale(0.015625)"/>
       <path id="DejaVuSans-68" d="M 3513 2113 
L 3513 0 
L 2938 0 
L 2938 2094 
Q 2938 2591 2744 2837 
Q 2550 3084 2163 3084 
Q 1697 3084 1428 2787 
Q 1159 2491 1159 1978 
L 1159 0 
L 581 0 
L 581 4863 
L 1159 4863 
L 1159 2956 
Q 1366 3272 1645 3428 
Q 1925 3584 2291 3584 
Q 2894 3584 3203 3211 
Q 3513 2838 3513 2113 
z
" transform="scale(0.015625)"/>
       <path id="DejaVuSans-73" d="M 2834 3397 
L 2834 2853 
Q 2591 2978 2328 3040 
Q 2066 3103 1784 3103 
Q 1356 3103 1142 2972 
Q 928 2841 928 2578 
Q 928 2378 1081 2264 
Q 1234 2150 1697 2047 
L 1894 2003 
Q 2506 1872 2764 1633 
Q 3022 1394 3022 966 
Q 3022 478 2636 193 
Q 2250 -91 1575 -91 
Q 1294 -91 989 -36 
Q 684 19 347 128 
L 347 722 
Q 666 556 975 473 
Q 1284 391 1588 391 
Q 1994 391 2212 530 
Q 2431 669 2431 922 
Q 2431 1156 2273 1281 
Q 2116 1406 1581 1522 
L 1381 1569 
Q 847 1681 609 1914 
Q 372 2147 372 2553 
Q 372 3047 722 3315 
Q 1072 3584 1716 3584 
Q 2034 3584 2315 3537 
Q 2597 3491 2834 3397 
z
" transform="scale(0.015625)"/>
      </defs>
      <use xlink:href="#DejaVuSans-45"/>
      <use xlink:href="#DejaVuSans-70" x="63.183594"/>
      <use xlink:href="#DejaVuSans-6f" x="126.660156"/>
      <use xlink:href="#DejaVuSans-63" x="187.841797"/>
      <use xlink:href="#DejaVuSans-68" x="242.822266"/>
      <use xlink:href="#DejaVuSans-73" x="306.201172"/>
     </g>
    </g>
   </g>
   <g id="matplotlib.axis_2">
    <g id="ytick_1">
     <g id="line2d_13">
      <path d="M 43.78125 228.557222 
L 322.78125 228.557222 
" clip-path="url(#pfea2adc68d)" style="fill: none; stroke-dasharray: 2.96,1.28; stroke-dashoffset: 0; stroke: #b0b0b0; stroke-opacity: 0.4; stroke-width: 0.8"/>
     </g>
     <g id="line2d_14">
      <defs>
       <path id="mce329e5ed4" d="M 0 0 
L -3.5 0 
" style="stroke: #000000; stroke-width: 0.8"/>
      </defs>
      <g>
       <use xlink:href="#mce329e5ed4" x="43.78125" y="228.557222" style="stroke: #000000; stroke-width: 0.8"/>
      </g>
     </g>
     <g id="text_8">
      <!-- 0.5 -->
      <g transform="translate(20.878125 232.35644) scale(0.1 -0.1)">
       <defs>
        <path id="DejaVuSans-2e" d="M 684 794 
L 1344 794 
L 1344 0 
L 684 0 
L 684 794 
z
" transform="scale(0.015625)"/>
        <path id="DejaVuSans-35" d="M 691 4666 
L 3169 4666 
L 3169 4134 
L 1269 4134 
L 1269 2991 
Q 1406 3038 1543 3061 
Q 1681 3084 1819 3084 
Q 2600 3084 3056 2656 
Q 3513 2228 3513 1497 
Q 3513 744 3044 326 
Q 2575 -91 1722 -91 
Q 1428 -91 1123 -41 
Q 819 9 494 109 
L 494 744 
Q 775 591 1075 516 
Q 1375 441 1709 441 
Q 2250 441 2565 725 
Q 2881 1009 2881 1497 
Q 2881 1984 2565 2268 
Q 2250 2553 1709 2553 
Q 1456 2553 1204 2497 
Q 953 2441 691 2322 
L 691 4666 
z
" transform="scale(0.015625)"/>
       </defs>
       <use xlink:href="#DejaVuSans-30"/>
       <use xlink:href="#DejaVuSans-2e" x="63.623047"/>
       <use xlink:href="#DejaVuSans-35" x="95.410156"/>
      </g>
     </g>
    </g>
    <g id="ytick_2">
     <g id="line2d_15">
      <path d="M 43.78125 190.559647 
L 322.78125 190.559647 
" clip-path="url(#pfea2adc68d)" style="fill: none; stroke-dasharray: 2.96,1.28; stroke-dashoffset: 0; stroke: #b0b0b0; stroke-opacity: 0.4; stroke-width: 0.8"/>
     </g>
     <g id="line2d_16">
      <g>
       <use xlink:href="#mce329e5ed4" x="43.78125" y="190.559647" style="stroke: #000000; stroke-width: 0.8"/>
      </g>
     </g>
     <g id="text_9">
      <!-- 0.6 -->
      <g transform="translate(20.878125 194.358866) scale(0.1 -0.1)">
       <use xlink:href="#DejaVuSans-30"/>
       <use xlink:href="#DejaVuSans-2e" x="63.623047"/>
       <use xlink:href="#DejaVuSans-36" x="95.410156"/>
      </g>
     </g>
    </g>
    <g id="ytick_3">
     <g id="line2d_17">
      <path d="M 43.78125 152.562072 
L 322.78125 152.562072 
" clip-path="url(#pfea2adc68d)" style="fill: none; stroke-dasharray: 2.96,1.28; stroke-dashoffset: 0; stroke: #b0b0b0; stroke-opacity: 0.4; stroke-width: 0.8"/>
     </g>
     <g id="line2d_18">
      <g>
       <use xlink:href="#mce329e5ed4" x="43.78125" y="152.562072" style="stroke: #000000; stroke-width: 0.8"/>
      </g>
     </g>
     <g id="text_10">
      <!-- 0.7 -->
      <g transform="translate(20.878125 156.361291) scale(0.1 -0.1)">
       <defs>
        <path id="DejaVuSans-37" d="M 525 4666 
L 3525 4666 
L 3525 4397 
L 1831 0 
L 1172 0 
L 2766 4134 
L 525 4134 
L 525 4666 
z
" transform="scale(0.015625)"/>
       </defs>
       <use xlink:href="#DejaVuSans-30"/>
       <use xlink:href="#DejaVuSans-2e" x="63.623047"/>
       <use xlink:href="#DejaVuSans-37" x="95.410156"/>
      </g>
     </g>
    </g>
    <g id="ytick_4">
     <g id="line2d_19">
      <path d="M 43.78125 114.564497 
L 322.78125 114.564497 
" clip-path="url(#pfea2adc68d)" style="fill: none; stroke-dasharray: 2.96,1.28; stroke-dashoffset: 0; stroke: #b0b0b0; stroke-opacity: 0.4; stroke-width: 0.8"/>
     </g>
     <g id="line2d_20">
      <g>
       <use xlink:href="#mce329e5ed4" x="43.78125" y="114.564497" style="stroke: #000000; stroke-width: 0.8"/>
      </g>
     </g>
     <g id="text_11">
      <!-- 0.8 -->
      <g transform="translate(20.878125 118.363716) scale(0.1 -0.1)">
       <use xlink:href="#DejaVuSans-30"/>
       <use xlink:href="#DejaVuSans-2e" x="63.623047"/>
       <use xlink:href="#DejaVuSans-38" x="95.410156"/>
      </g>
     </g>
    </g>
    <g id="ytick_5">
     <g id="line2d_21">
      <path d="M 43.78125 76.566922 
L 322.78125 76.566922 
" clip-path="url(#pfea2adc68d)" style="fill: none; stroke-dasharray: 2.96,1.28; stroke-dashoffset: 0; stroke: #b0b0b0; stroke-opacity: 0.4; stroke-width: 0.8"/>
     </g>
     <g id="line2d_22">
      <g>
       <use xlink:href="#mce329e5ed4" x="43.78125" y="76.566922" style="stroke: #000000; stroke-width: 0.8"/>
      </g>
     </g>
     <g id="text_12">
      <!-- 0.9 -->
      <g transform="translate(20.878125 80.366141) scale(0.1 -0.1)">
       <defs>
        <path id="DejaVuSans-39" d="M 703 97 
L 703 672 
Q 941 559 1184 500 
Q 1428 441 1663 441 
Q 2288 441 2617 861 
Q 2947 1281 2994 2138 
Q 2813 1869 2534 1725 
Q 2256 1581 1919 1581 
Q 1219 1581 811 2004 
Q 403 2428 403 3163 
Q 403 3881 828 4315 
Q 1253 4750 1959 4750 
Q 2769 4750 3195 4129 
Q 3622 3509 3622 2328 
Q 3622 1225 3098 567 
Q 2575 -91 1691 -91 
Q 1453 -91 1209 -44 
Q 966 3 703 97 
z
M 1959 2075 
Q 2384 2075 2632 2365 
Q 2881 2656 2881 3163 
Q 2881 3666 2632 3958 
Q 2384 4250 1959 4250 
Q 1534 4250 1286 3958 
Q 1038 3666 1038 3163 
Q 1038 2656 1286 2365 
Q 1534 2075 1959 2075 
z
" transform="scale(0.015625)"/>
       </defs>
       <use xlink:href="#DejaVuSans-30"/>
       <use xlink:href="#DejaVuSans-2e" x="63.623047"/>
       <use xlink:href="#DejaVuSans-39" x="95.410156"/>
      </g>
     </g>
    </g>
    <g id="ytick_6">
     <g id="line2d_23">
      <path d="M 43.78125 38.569347 
L 322.78125 38.569347 
" clip-path="url(#pfea2adc68d)" style="fill: none; stroke-dasharray: 2.96,1.28; stroke-dashoffset: 0; stroke: #b0b0b0; stroke-opacity: 0.4; stroke-width: 0.8"/>
     </g>
     <g id="line2d_24">
      <g>
       <use xlink:href="#mce329e5ed4" x="43.78125" y="38.569347" style="stroke: #000000; stroke-width: 0.8"/>
      </g>
     </g>
     <g id="text_13">
      <!-- 1.0 -->
      <g transform="translate(20.878125 42.368566) scale(0.1 -0.1)">
       <use xlink:href="#DejaVuSans-31"/>
       <use xlink:href="#DejaVuSans-2e" x="63.623047"/>
       <use xlink:href="#DejaVuSans-30" x="95.410156"/>
      </g>
     </g>
    </g>
    <g id="text_14">
     <!-- Accuracy -->
     <g transform="translate(14.798438 161.356125) rotate(-90) scale(0.1 -0.1)">
      <defs>
       <path id="DejaVuSans-41" d="M 2188 4044 
L 1331 1722 
L 3047 1722 
L 2188 4044 
z
M 1831 4666 
L 2547 4666 
L 4325 0 
L 3669 0 
L 3244 1197 
L 1141 1197 
L 716 0 
L 50 0 
L 1831 4666 
z
" transform="scale(0.015625)"/>
       <path id="DejaVuSans-75" d="M 544 1381 
L 544 3500 
L 1119 3500 
L 1119 1403 
Q 1119 906 1312 657 
Q 1506 409 1894 409 
Q 2359 409 2629 706 
Q 2900 1003 2900 1516 
L 2900 3500 
L 3475 3500 
L 3475 0 
L 2900 0 
L 2900 538 
Q 2691 219 2414 64 
Q 2138 -91 1772 -91 
Q 1169 -91 856 284 
Q 544 659 544 1381 
z
M 1991 3584 
L 1991 3584 
z
" transform="scale(0.015625)"/>
       <path id="DejaVuSans-72" d="M 2631 2963 
Q 2534 3019 2420 3045 
Q 2306 3072 2169 3072 
Q 1681 3072 1420 2755 
Q 1159 2438 1159 1844 
L 1159 0 
L 581 0 
L 581 3500 
L 1159 3500 
L 1159 2956 
Q 1341 3275 1631 3429 
Q 1922 3584 2338 3584 
Q 2397 3584 2469 3576 
Q 2541 3569 2628 3553 
L 2631 2963 
z
" transform="scale(0.015625)"/>
       <path id="DejaVuSans-61" d="M 2194 1759 
Q 1497 1759 1228 1600 
Q 959 1441 959 1056 
Q 959 750 1161 570 
Q 1363 391 1709 391 
Q 2188 391 2477 730 
Q 2766 1069 2766 1631 
L 2766 1759 
L 2194 1759 
z
M 3341 1997 
L 3341 0 
L 2766 0 
L 2766 531 
Q 2569 213 2275 61 
Q 1981 -91 1556 -91 
Q 1019 -91 701 211 
Q 384 513 384 1019 
Q 384 1609 779 1909 
Q 1175 2209 1959 2209 
L 2766 2209 
L 2766 2266 
Q 2766 2663 2505 2880 
Q 2244 3097 1772 3097 
Q 1472 3097 1187 3025 
Q 903 2953 641 2809 
L 641 3341 
Q 956 3463 1253 3523 
Q 1550 3584 1831 3584 
Q 2591 3584 2966 3190 
Q 3341 2797 3341 1997 
z
" transform="scale(0.015625)"/>
       <path id="DejaVuSans-79" d="M 2059 -325 
Q 1816 -950 1584 -1140 
Q 1353 -1331 966 -1331 
L 506 -1331 
L 506 -850 
L 844 -850 
Q 1081 -850 1212 -737 
Q 1344 -625 1503 -206 
L 1606 56 
L 191 3500 
L 800 3500 
L 1894 763 
L 2988 3500 
L 3597 3500 
L 2059 -325 
z
" transform="scale(0.015625)"/>
      </defs>
      <use xlink:href="#DejaVuSans-41"/>
      <use xlink:href="#DejaVuSans-63" x="66.658203"/>
      <use xlink:href="#DejaVuSans-63" x="121.638672"/>
      <use xlink:href="#DejaVuSans-75" x="176.619141"/>
      <use xlink:href="#DejaVuSans-72" x="239.998047"/>
      <use xlink:href="#DejaVuSans-61" x="281.111328"/>
      <use xlink:href="#DejaVuSans-63" x="342.390625"/>
      <use xlink:href="#DejaVuSans-79" x="397.371094"/>
     </g>
    </g>
   </g>
   <g id="line2d_25">
    <path d="M 56.463068 221.69922 
L 56.716958 216.01995 
L 57.224739 194.588728 
L 57.478629 154.512323 
L 58.2403 112.828567 
L 58.49419 115.186008 
L 58.74808 108.756625 
L 59.001971 107.149297 
L 59.255861 102.648736 
L 59.509751 101.684325 
L 59.763641 98.041026 
L 60.017532 97.183765 
L 60.271422 94.612025 
L 60.525312 95.040645 
L 60.779202 90.861554 
L 61.033093 90.218614 
L 61.286983 93.969085 
L 61.540873 93.754764 
L 61.794764 90.004315 
L 62.048654 104.041766 
L 62.302544 94.397704 
L 62.556434 89.789994 
L 62.810325 89.039904 
L 63.318105 86.575314 
L 63.571995 87.754023 
L 63.825886 87.861173 
L 64.079776 86.682464 
L 64.333666 87.325404 
L 64.587556 89.254203 
L 64.841447 89.254203 
L 65.095337 91.825965 
L 65.349227 85.182284 
L 65.603117 83.039164 
L 65.857008 85.610904 
L 66.110898 85.932374 
L 66.364788 83.789254 
L 66.872569 85.932374 
L 67.126459 85.610904 
L 67.380349 82.074753 
L 67.634239 83.039164 
L 67.88813 81.538962 
L 68.14202 85.289433 
L 68.39591 83.682082 
L 68.6498 78.002812 
L 68.903691 81.646134 
L 69.157581 82.289052 
L 69.411471 82.289052 
L 69.665361 81.646134 
L 69.919252 82.503373 
L 70.173142 78.002812 
L 70.427032 77.359872 
L 70.680922 78.538603 
L 70.934813 80.681723 
L 71.188703 81.860432 
L 71.442593 77.145573 
L 71.696483 79.824462 
L 71.950374 77.038401 
L 72.204264 75.752543 
L 72.458154 78.002812 
L 72.712044 77.252722 
L 72.965935 88.611285 
L 73.219825 76.181162 
L 73.473715 75.859692 
L 73.981496 78.538603 
L 74.235386 73.823722 
L 74.489276 76.931252 
L 74.997057 68.787392 
L 75.250947 69.216012 
L 75.504837 69.108862 
L 75.758727 67.930131 
L 76.266508 70.609042 
L 76.520398 72.002072 
L 76.774288 69.858952 
L 77.028179 69.966101 
L 77.282069 68.573071 
L 77.535959 69.644631 
L 77.78985 66.322802 
L 78.04374 67.501511 
L 78.29763 67.715832 
L 78.55152 67.715832 
L 78.805411 66.108481 
L 79.059301 67.822981 
L 79.313191 68.144452 
L 80.074862 63.75104 
L 80.328752 66.96572 
L 80.582642 67.715832 
L 80.836533 65.679861 
L 81.090423 64.8226 
L 81.344313 66.96572 
L 81.598203 64.50113 
L 81.852094 64.179659 
L 82.105984 67.394362 
L 82.359874 66.96572 
L 82.613764 66.001332 
L 82.867655 65.57269 
L 83.121545 63.75104 
L 83.375435 67.394362 
L 83.883216 63.75104 
L 84.137106 65.46554 
L 84.390996 65.679861 
L 84.644886 66.108481 
L 84.898777 65.679861 
L 85.152667 62.572331 
L 85.660447 66.001332 
L 85.914338 64.07251 
L 86.168228 66.322802 
L 86.422118 66.001332 
L 86.676008 61.072151 
L 87.183789 66.5371 
L 87.437679 64.286831 
L 87.691569 65.036921 
L 87.94546 61.393599 
L 88.19935 59.89342 
L 88.45324 60.21489 
L 88.961021 57.857449 
L 89.214911 60.429211 
L 89.468801 57.535979 
L 89.722691 57.964621 
L 89.976582 60.322039 
L 90.230472 60.000569 
L 90.484362 60.85783 
L 90.738252 59.571949 
L 91.246033 55.92865 
L 91.499923 59.679121 
L 92.007704 61.072151 
L 92.261594 58.07177 
L 92.515484 58.607539 
L 93.023265 58.07177 
L 93.277155 59.14333 
L 93.531045 56.785889 
L 93.784936 56.035799 
L 94.038826 57.00021 
L 94.292716 59.357651 
L 94.546606 55.17856 
L 94.800497 58.39324 
L 95.054387 58.178919 
L 95.308277 56.35727 
L 96.323838 58.07177 
L 96.577728 56.785889 
L 96.831619 59.679121 
L 97.085509 54.964239 
L 97.339399 55.17856 
L 97.593289 59.679121 
L 97.84718 59.250479 
L 98.10107 58.07177 
L 98.60885 57.7503 
L 98.862741 57.00021 
L 99.116631 57.00021 
L 99.370521 57.643151 
L 99.624411 57.107359 
L 99.878302 57.964621 
L 100.132192 56.35727 
L 100.386082 57.214509 
L 100.639972 54.964239 
L 100.893863 54.964239 
L 101.147753 55.392859 
L 101.401643 54.321299 
L 101.655533 55.392859 
L 102.163314 54.642769 
L 102.417204 55.60718 
L 102.671094 57.535979 
L 102.924985 55.500031 
L 103.178875 56.035799 
L 103.432765 54.428448 
L 103.686655 53.999829 
L 103.940546 52.606798 
L 104.194436 54.321299 
L 104.448326 56.893061 
L 104.702216 54.107001 
L 104.956107 54.21415 
L 105.209997 55.60718 
L 105.463887 53.035418 
L 105.717777 52.71397 
L 105.971668 56.35727 
L 106.225558 53.78553 
L 106.479448 53.892679 
L 106.733338 54.21415 
L 106.987229 54.749918 
L 107.241119 53.78553 
L 107.495009 53.356888 
L 107.748899 53.249739 
L 108.00279 54.107001 
L 108.25668 56.035799 
L 108.51057 55.17856 
L 108.76446 55.392859 
L 109.018351 55.392859 
L 109.526131 51.856709 
L 109.780021 52.499649 
L 110.033912 53.571209 
L 110.287802 53.78553 
L 110.541692 54.53562 
L 110.795583 54.749918 
L 111.049473 54.321299 
L 111.303363 53.14259 
L 111.557253 52.928269 
L 111.811144 52.07103 
L 112.065034 51.64241 
L 112.318924 52.285328 
L 112.826705 54.642769 
L 113.080595 52.71397 
L 113.334485 52.82112 
L 113.588375 53.356888 
L 113.842266 51.963858 
L 114.096156 52.928269 
L 114.350046 51.74956 
L 114.603936 52.71397 
L 114.857827 50.463679 
L 115.111717 53.356888 
L 115.365607 50.24938 
L 115.619497 50.463679 
L 115.873388 53.14259 
L 116.127278 54.642769 
L 116.381168 51.856709 
L 116.635058 52.07103 
L 116.888949 50.99947 
L 117.142839 50.785149 
L 117.396729 51.856709 
L 117.650619 51.535239 
L 117.90451 50.678 
L 118.1584 53.571209 
L 118.41229 50.892298 
L 118.66618 53.78553 
L 118.920071 52.285328 
L 119.173961 52.3925 
L 119.427851 50.142208 
L 119.681741 52.606798 
L 119.935632 50.785149 
L 120.189522 53.678358 
L 120.443412 51.963858 
L 120.697302 53.035418 
L 120.951193 51.428089 
L 121.205083 50.99947 
L 121.458973 52.285328 
L 121.712863 51.963858 
L 121.966754 50.24938 
L 122.474534 50.892298 
L 122.728424 52.606798 
L 122.982315 53.14259 
L 123.236205 50.142208 
L 123.490095 52.07103 
L 123.743985 52.07103 
L 123.997876 52.285328 
L 124.251766 50.892298 
L 124.505656 50.99947 
L 124.759546 49.92791 
L 125.013437 50.463679 
L 125.267327 50.035059 
L 125.521217 50.24938 
L 125.775107 54.53562 
L 126.028998 51.963858 
L 126.282888 53.678358 
L 126.536778 50.463679 
L 127.044559 50.356529 
L 127.298449 51.535239 
L 127.552339 50.99947 
L 127.80623 50.99947 
L 128.06012 50.142208 
L 128.5679 51.213768 
L 128.821791 49.177798 
L 129.075681 51.428089 
L 129.329571 49.713589 
L 129.583461 49.284969 
L 130.091242 51.963858 
L 130.345132 51.64241 
L 130.599022 51.106619 
L 130.852913 47.891939 
L 131.360693 50.463679 
L 131.614583 51.428089 
L 131.868474 51.106619 
L 132.122364 52.07103 
L 132.376254 49.499268 
L 132.630144 48.963499 
L 132.884035 50.142208 
L 133.137925 53.46406 
L 133.391815 51.428089 
L 133.645705 50.570828 
L 133.899596 51.106619 
L 134.153486 48.21341 
L 134.407376 52.07103 
L 134.661266 54.107001 
L 134.915157 50.678 
L 135.169047 51.32094 
L 135.422937 48.53488 
L 135.676827 51.106619 
L 135.930718 51.213768 
L 136.184608 51.535239 
L 136.438498 53.46406 
L 136.692388 49.820738 
L 137.200169 52.82112 
L 137.454059 52.07103 
L 137.707949 49.92791 
L 137.96184 49.070648 
L 138.21573 49.92791 
L 138.46962 48.53488 
L 139.231291 51.856709 
L 139.485181 50.035059 
L 139.739071 50.356529 
L 139.992962 53.46406 
L 140.500742 49.284969 
L 140.754632 51.74956 
L 141.008523 51.535239 
L 141.516303 50.24938 
L 141.770193 51.535239 
L 142.024084 50.035059 
L 142.531864 51.963858 
L 142.785755 50.142208 
L 143.293535 51.535239 
L 143.547425 49.070648 
L 143.801316 48.106238 
L 144.309096 50.892298 
L 144.562986 50.892298 
L 144.816877 51.963858 
L 145.070767 50.570828 
L 145.324657 50.570828 
L 145.578547 49.284969 
L 145.832438 50.142208 
L 146.086328 50.570828 
L 146.340218 48.320559 
L 146.594108 50.570828 
L 146.847999 50.463679 
L 147.101889 49.499268 
L 147.355779 49.284969 
L 147.609669 48.85635 
L 147.86356 49.284969 
L 148.11745 49.284969 
L 148.37134 50.785149 
L 148.62523 49.60644 
L 148.879121 49.713589 
L 149.386901 51.64241 
L 149.640791 47.784767 
L 149.894682 50.892298 
L 150.148572 48.963499 
L 150.402462 50.99947 
L 150.656352 51.213768 
L 151.164133 49.392119 
L 151.418023 51.535239 
L 151.671913 51.213768 
L 151.925804 50.356529 
L 152.179694 48.963499 
L 152.433584 50.678 
L 152.687474 50.678 
L 152.941365 50.892298 
L 153.195255 52.606798 
L 153.703035 50.035059 
L 153.956926 49.284969 
L 154.210816 50.785149 
L 154.464706 49.92791 
L 154.718596 52.178179 
L 155.226377 48.320559 
L 155.480267 48.963499 
L 155.734157 50.035059 
L 155.988048 46.927529 
L 156.241938 50.356529 
L 156.495828 51.64241 
L 156.749718 51.428089 
L 157.003609 50.99947 
L 157.257499 48.963499 
L 157.511389 49.392119 
L 157.765279 48.963499 
L 158.01917 49.177798 
L 158.27306 50.99947 
L 158.52695 49.070648 
L 158.78084 50.356529 
L 159.034731 53.249739 
L 159.288621 50.24938 
L 159.542511 50.035059 
L 159.796402 50.570828 
L 160.050292 50.356529 
L 160.558072 50.463679 
L 160.811963 48.85635 
L 161.065853 52.285328 
L 161.573633 49.713589 
L 162.081414 49.820738 
L 162.335304 49.92791 
L 162.589194 52.178179 
L 162.843085 47.999088 
L 163.096975 50.463679 
L 163.350865 47.784767 
L 163.604755 50.24938 
L 163.858646 51.106619 
L 164.112536 53.249739 
L 164.366426 52.499649 
L 164.620316 50.678 
L 164.874207 49.713589 
L 165.128097 51.106619 
L 165.381987 49.92791 
L 165.635877 51.963858 
L 165.889768 49.392119 
L 166.143658 52.606798 
L 166.397548 49.499268 
L 166.651438 49.392119 
L 166.905329 50.785149 
L 167.159219 49.177798 
L 167.413109 49.60644 
L 167.666999 49.713589 
L 167.92089 49.499268 
L 168.17478 48.85635 
L 168.42867 49.284969 
L 168.936451 48.85635 
L 169.190341 50.99947 
L 169.444231 49.92791 
L 169.698121 51.32094 
L 169.952012 48.53488 
L 170.205902 51.106619 
L 170.459792 50.678 
L 170.713682 50.570828 
L 170.967573 48.85635 
L 171.221463 48.749178 
L 171.475353 51.428089 
L 171.983134 48.427708 
L 172.237024 48.749178 
L 172.490914 49.284969 
L 172.744804 50.678 
L 173.252585 48.53488 
L 173.760365 52.178179 
L 174.014256 49.92791 
L 174.268146 49.60644 
L 174.522036 49.820738 
L 174.775926 48.963499 
L 175.029817 50.142208 
L 175.283707 51.856709 
L 175.537597 50.356529 
L 175.791488 50.678 
L 176.299268 48.320559 
L 176.553158 50.892298 
L 177.060939 49.070648 
L 177.314829 49.070648 
L 177.568719 50.142208 
L 177.82261 49.92791 
L 178.0765 51.32094 
L 178.33039 50.678 
L 178.58428 50.99947 
L 178.838171 50.356529 
L 179.092061 49.284969 
L 179.345951 49.499268 
L 179.599841 47.784767 
L 179.853732 51.428089 
L 180.107622 49.392119 
L 180.361512 50.785149 
L 180.615402 48.106238 
L 180.869293 48.963499 
L 181.123183 48.320559 
L 181.377073 49.60644 
L 181.630963 50.035059 
L 181.884854 49.177798 
L 182.138744 50.142208 
L 182.392634 50.24938 
L 182.646524 47.570469 
L 182.900415 53.356888 
L 183.154305 50.570828 
L 183.408195 51.32094 
L 183.662085 49.92791 
L 183.915976 50.892298 
L 184.169866 49.820738 
L 184.423756 47.46332 
L 184.931537 51.428089 
L 185.439317 48.21341 
L 185.693207 51.106619 
L 186.200988 48.21341 
L 186.454878 50.99947 
L 186.708768 50.24938 
L 186.962659 50.570828 
L 187.216549 50.035059 
L 187.470439 47.891939 
L 187.97822 50.892298 
L 188.23211 49.92791 
L 188.486 47.784767 
L 188.73989 48.427708 
L 188.993781 49.499268 
L 189.247671 49.60644 
L 189.501561 50.035059 
L 189.755451 48.427708 
L 190.009342 48.320559 
L 190.263232 48.85635 
L 190.517122 50.356529 
L 191.024903 50.24938 
L 191.278793 49.60644 
L 191.786574 50.035059 
L 192.040464 49.499268 
L 192.294354 51.428089 
L 192.548244 48.963499 
L 192.802135 48.427708 
L 193.056025 50.142208 
L 193.309915 48.85635 
L 193.563805 49.392119 
L 193.817696 47.46332 
L 194.071586 50.142208 
L 194.325476 51.64241 
L 194.833257 48.642029 
L 195.087147 48.963499 
L 195.341037 48.85635 
L 195.594927 48.53488 
L 196.102708 50.24938 
L 196.356598 47.14185 
L 196.864379 51.856709 
L 197.118269 51.32094 
L 197.626049 48.963499 
L 197.87994 48.749178 
L 198.13383 49.713589 
L 198.38772 49.070648 
L 198.64161 49.92791 
L 198.895501 49.284969 
L 199.149391 46.713207 
L 199.403281 48.963499 
L 199.657171 48.53488 
L 199.911062 48.749178 
L 200.164952 50.142208 
L 200.418842 49.177798 
L 200.672732 48.963499 
L 200.926623 49.60644 
L 201.180513 48.963499 
L 201.434403 50.356529 
L 201.688293 50.678 
L 201.942184 49.499268 
L 202.196074 50.570828 
L 202.449964 47.46332 
L 202.703854 50.356529 
L 202.957745 48.320559 
L 203.211635 48.749178 
L 203.465525 50.463679 
L 203.719415 48.53488 
L 203.973306 49.392119 
L 204.227196 48.749178 
L 204.481086 50.463679 
L 204.734976 48.53488 
L 204.988867 49.070648 
L 205.242757 49.284969 
L 205.496647 50.570828 
L 205.750537 48.749178 
L 206.004428 49.392119 
L 206.258318 49.392119 
L 206.512208 50.678 
L 206.766098 51.213768 
L 207.019989 50.356529 
L 207.273879 48.21341 
L 207.527769 47.891939 
L 208.03555 49.499268 
L 208.28944 50.99947 
L 208.797221 49.713589 
L 209.051111 51.535239 
L 209.305001 50.035059 
L 209.558891 50.892298 
L 209.812782 50.142208 
L 210.066672 47.677618 
L 210.320562 52.07103 
L 210.828343 46.498909 
L 211.082233 50.892298 
L 211.336123 50.142208 
L 211.590013 50.570828 
L 211.843904 49.392119 
L 212.097794 49.070648 
L 212.351684 49.177798 
L 212.605574 47.248999 
L 212.859465 50.035059 
L 213.113355 50.99947 
L 213.367245 47.784767 
L 213.621135 50.570828 
L 213.875026 50.785149 
L 214.128916 49.60644 
L 214.382806 51.428089 
L 214.636696 50.142208 
L 214.890587 49.92791 
L 215.144477 51.32094 
L 215.398367 49.070648 
L 215.652257 49.392119 
L 215.906148 50.99947 
L 216.413928 50.678 
L 216.667818 49.392119 
L 216.921709 49.713589 
L 217.175599 50.463679 
L 217.429489 50.24938 
L 217.683379 51.32094 
L 217.93727 49.713589 
L 218.19116 50.142208 
L 218.44505 50.24938 
L 218.69894 51.963858 
L 218.952831 49.820738 
L 219.460611 48.106238 
L 219.968392 49.92791 
L 220.222282 49.820738 
L 220.476172 50.570828 
L 220.730062 49.499268 
L 220.983953 49.713589 
L 221.237843 48.106238 
L 221.491733 48.642029 
L 221.745623 51.74956 
L 221.999514 50.99947 
L 222.253404 50.678 
L 222.507294 48.320559 
L 222.761184 48.53488 
L 223.015075 50.99947 
L 223.268965 48.963499 
L 223.522855 52.178179 
L 223.776745 49.070648 
L 224.030636 51.64241 
L 224.284526 49.177798 
L 224.538416 49.820738 
L 224.792307 51.428089 
L 225.046197 49.499268 
L 225.300087 50.99947 
L 225.553977 49.60644 
L 225.807868 49.499268 
L 226.061758 50.035059 
L 226.315648 50.892298 
L 226.569538 49.177798 
L 226.823429 49.820738 
L 227.077319 49.60644 
L 227.331209 49.177798 
L 227.585099 51.106619 
L 227.83899 49.60644 
L 228.09288 50.678 
L 228.34677 48.749178 
L 228.60066 50.035059 
L 228.854551 49.499268 
L 229.108441 51.32094 
L 229.362331 47.570469 
L 229.616221 49.499268 
L 229.870112 49.60644 
L 230.124002 48.21341 
L 230.377892 50.678 
L 230.631782 49.284969 
L 231.139563 51.213768 
L 231.393453 50.142208 
L 231.647343 51.856709 
L 231.901234 49.284969 
L 232.155124 50.142208 
L 232.662904 48.749178 
L 232.916795 49.92791 
L 233.170685 47.677618 
L 233.424575 50.356529 
L 233.678465 49.499268 
L 233.932356 49.284969 
L 234.186246 50.570828 
L 234.440136 50.463679 
L 234.694026 50.892298 
L 234.947917 49.070648 
L 235.201807 49.713589 
L 235.455697 49.392119 
L 235.963478 49.92791 
L 236.217368 48.85635 
L 236.471258 50.463679 
L 236.725148 49.177798 
L 236.979039 49.284969 
L 237.486819 49.820738 
L 237.740709 51.106619 
L 237.9946 47.891939 
L 238.50238 49.820738 
L 238.75627 47.891939 
L 239.010161 47.891939 
L 239.264051 48.53488 
L 239.517941 48.53488 
L 239.771831 49.284969 
L 240.025722 50.570828 
L 240.533502 48.53488 
L 240.787393 49.713589 
L 241.041283 50.24938 
L 241.295173 50.356529 
L 241.549063 49.820738 
L 241.802954 48.963499 
L 242.056844 49.499268 
L 242.310734 48.85635 
L 242.564624 49.499268 
L 242.818515 49.60644 
L 243.072405 50.570828 
L 243.580185 51.32094 
L 243.834076 49.713589 
L 244.087966 50.142208 
L 244.341856 50.142208 
L 244.595746 48.642029 
L 244.849637 49.070648 
L 245.103527 47.891939 
L 245.357417 52.07103 
L 245.611307 50.785149 
L 246.119088 49.713589 
L 246.372978 50.785149 
L 246.626868 46.927529 
L 246.880759 50.356529 
L 247.134649 48.963499 
L 247.388539 51.74956 
L 247.642429 49.820738 
L 247.89632 48.749178 
L 248.15021 49.499268 
L 248.4041 49.499268 
L 248.65799 51.32094 
L 248.911881 50.035059 
L 249.165771 47.034678 
L 249.419661 51.213768 
L 249.673551 49.284969 
L 249.927442 48.53488 
L 250.181332 48.53488 
L 250.435222 52.606798 
L 250.689112 50.035059 
L 250.943003 49.713589 
L 251.196893 48.427708 
L 251.704673 51.74956 
L 251.958564 49.820738 
L 252.212454 51.64241 
L 252.466344 49.392119 
L 252.720234 50.142208 
L 252.974125 48.21341 
L 253.481905 51.32094 
L 253.989686 49.070648 
L 254.243576 49.070648 
L 254.497466 50.24938 
L 254.751356 49.499268 
L 255.005247 48.320559 
L 255.259137 50.785149 
L 255.513027 48.427708 
L 256.020808 50.678 
L 256.274698 50.892298 
L 256.528588 50.785149 
L 256.782479 48.749178 
L 257.036369 49.499268 
L 257.290259 49.070648 
L 257.544149 50.24938 
L 257.79804 47.46332 
L 258.05193 50.463679 
L 258.55971 47.784767 
L 258.813601 49.820738 
L 259.067491 49.177798 
L 259.321381 50.678 
L 259.575271 50.892298 
L 259.829162 51.856709 
L 260.336942 48.21341 
L 260.590832 51.32094 
L 260.844723 48.642029 
L 261.098613 49.60644 
L 261.352503 48.642029 
L 261.606393 51.64241 
L 262.368064 49.60644 
L 262.621954 47.14185 
L 262.875845 50.463679 
L 263.129735 50.785149 
L 263.383625 49.499268 
L 263.637515 52.07103 
L 263.891406 49.713589 
L 264.145296 49.499268 
L 264.399186 50.142208 
L 264.653076 48.85635 
L 265.160857 51.535239 
L 265.414747 47.570469 
L 265.668637 50.99947 
L 265.922528 51.74956 
L 266.176418 50.035059 
L 266.430308 50.24938 
L 266.684198 49.60644 
L 266.938089 51.64241 
L 267.445869 47.784767 
L 267.699759 50.785149 
L 267.95365 51.74956 
L 268.20754 49.60644 
L 268.46143 50.142208 
L 268.969211 50.463679 
L 269.223101 50.356529 
L 269.476991 50.570828 
L 269.730881 50.99947 
L 270.238662 49.392119 
L 270.492552 49.499268 
L 270.746442 49.392119 
L 271.254223 51.535239 
L 271.508113 47.677618 
L 271.762003 48.106238 
L 272.015894 47.46332 
L 272.269784 49.177798 
L 272.523674 48.106238 
L 272.777564 48.963499 
L 273.031455 50.570828 
L 273.285345 47.784767 
L 273.539235 49.820738 
L 273.793126 49.177798 
L 274.047016 47.14185 
L 274.300906 50.356529 
L 274.554796 49.177798 
L 274.808687 49.499268 
L 275.062577 51.213768 
L 275.316467 49.60644 
L 275.570357 51.213768 
L 275.824248 49.070648 
L 276.078138 48.85635 
L 276.332028 48.427708 
L 276.585918 50.463679 
L 276.839809 50.99947 
L 277.093699 50.142208 
L 277.347589 50.24938 
L 277.601479 50.142208 
L 277.85537 51.64241 
L 278.61704 48.427708 
L 278.870931 50.142208 
L 279.124821 49.284969 
L 279.378711 49.392119 
L 279.632601 50.356529 
L 279.886492 49.177798 
L 280.140382 51.106619 
L 280.394272 50.463679 
L 280.648162 50.570828 
L 281.155943 49.60644 
L 281.409833 50.356529 
L 281.663723 48.106238 
L 281.917614 51.213768 
L 282.425394 49.284969 
L 282.679284 48.320559 
L 282.933175 50.785149 
L 283.187065 49.284969 
L 283.440955 50.24938 
L 283.694845 50.035059 
L 283.948736 51.74956 
L 284.456516 47.034678 
L 284.710406 49.284969 
L 284.964297 49.713589 
L 285.218187 50.570828 
L 285.472077 48.749178 
L 285.725967 48.85635 
L 285.979858 50.24938 
L 286.233748 49.820738 
L 286.487638 51.32094 
L 286.741528 49.392119 
L 286.995419 49.820738 
L 287.249309 47.356148 
L 287.503199 50.24938 
L 287.757089 47.999088 
L 288.01098 49.92791 
L 288.26487 50.356529 
L 288.77265 48.642029 
L 289.026541 49.177798 
L 289.280431 51.32094 
L 289.788212 49.070648 
L 290.042102 50.892298 
L 290.295992 47.570469 
L 290.549882 47.46332 
L 290.803773 49.713589 
L 291.057663 50.142208 
L 291.311553 50.24938 
L 291.565443 49.177798 
L 291.819334 48.642029 
L 292.073224 51.535239 
L 292.581004 49.60644 
L 292.834895 48.53488 
L 293.088785 49.820738 
L 293.342675 50.035059 
L 293.850456 50.035059 
L 294.104346 48.85635 
L 294.358236 49.499268 
L 294.612126 52.07103 
L 294.866017 50.99947 
L 295.119907 48.320559 
L 295.373797 47.999088 
L 295.627687 49.713589 
L 295.881578 50.356529 
L 296.135468 47.248999 
L 296.389358 48.963499 
L 296.643248 48.642029 
L 296.897139 48.106238 
L 297.151029 50.035059 
L 297.404919 48.642029 
L 297.9127 50.356529 
L 298.16659 49.284969 
L 298.42048 48.963499 
L 298.67437 49.392119 
L 298.928261 51.856709 
L 299.182151 47.14185 
L 299.436041 49.92791 
L 299.689931 49.070648 
L 299.943822 50.678 
L 300.197712 50.356529 
L 300.451602 49.284969 
L 300.705492 50.99947 
L 300.959383 48.427708 
L 301.213273 49.60644 
L 301.467163 48.642029 
L 301.721053 51.32094 
L 301.974944 50.678 
L 302.228834 47.677618 
L 302.482724 49.392119 
L 302.736614 47.999088 
L 302.990505 48.85635 
L 303.244395 50.24938 
L 303.498285 48.749178 
L 303.752175 49.070648 
L 304.006066 49.60644 
L 304.513846 47.356148 
L 304.767736 50.142208 
L 305.021627 50.24938 
L 305.275517 49.392119 
L 305.529407 50.785149 
L 305.783298 48.427708 
L 306.037188 50.570828 
L 306.291078 49.60644 
L 306.544968 47.46332 
L 307.052749 50.142208 
L 307.306639 46.820379 
L 307.560529 50.463679 
L 308.06831 49.499268 
L 308.3222 49.92791 
L 308.829981 48.749178 
L 309.083871 51.64241 
L 309.337761 48.963499 
L 309.591651 49.284969 
L 309.845542 48.749178 
L 310.099432 48.642029 
L 310.099432 48.642029 
" clip-path="url(#pfea2adc68d)" style="fill: none; stroke: #0000ff; stroke-width: 0.6; stroke-linecap: square"/>
   </g>
   <g id="line2d_26">
    <path d="M 56.463068 227.057314 
L 56.970849 210.558376 
L 57.224739 222.807583 
L 57.478629 220.307752 
L 57.732519 227.057314 
L 57.98641 137.313054 
L 58.2403 170.560922 
L 58.49419 226.557352 
L 58.74808 208.058522 
L 59.001971 111.064716 
L 59.255861 177.060515 
L 59.509751 103.815192 
L 59.763641 102.315285 
L 60.017532 194.559399 
L 60.271422 97.565593 
L 60.525312 171.310876 
L 60.779202 180.310299 
L 61.033093 174.810653 
L 61.286983 94.565777 
L 61.540873 132.563339 
L 61.794764 93.815824 
L 62.048654 211.808291 
L 62.302544 97.3156 
L 62.556434 94.565777 
L 62.810325 123.813908 
L 63.064215 117.064346 
L 63.318105 121.814038 
L 63.571995 213.558168 
L 63.825886 99.815431 
L 64.079776 212.558245 
L 64.333666 98.315524 
L 64.587556 93.815824 
L 64.841447 230.557091 
L 65.095337 94.815747 
L 65.349227 135.563154 
L 65.857008 110.314762 
L 66.110898 134.8132 
L 66.364788 99.565462 
L 66.618678 120.064139 
L 66.872569 222.807583 
L 67.126459 100.315416 
L 67.380349 106.814985 
L 67.634239 155.3119 
L 67.88813 149.312269 
L 68.14202 124.563862 
L 68.39591 119.064215 
L 68.6498 94.565777 
L 68.903691 109.064846 
L 69.157581 139.062931 
L 69.411471 118.314262 
L 69.665361 136.813069 
L 70.173142 222.557614 
L 70.427032 104.565146 
L 70.680922 97.065608 
L 70.934813 226.807345 
L 71.188703 99.815431 
L 71.442593 202.308906 
L 71.696483 137.563023 
L 71.950374 118.314262 
L 72.204264 110.814746 
L 72.458154 109.564808 
L 72.712044 184.56003 
L 72.965935 106.065031 
L 73.219825 198.559137 
L 73.473715 140.81283 
L 73.727605 227.057314 
L 73.981496 95.315731 
L 74.235386 92.565908 
L 74.489276 160.811546 
L 74.743166 92.065924 
L 74.997057 106.315023 
L 75.250947 87.816193 
L 75.504837 131.563415 
L 75.758727 125.813777 
L 76.012618 103.065239 
L 76.266508 141.0628 
L 76.520398 107.064977 
L 77.028179 94.315785 
L 77.535959 109.564808 
L 77.78985 88.066185 
L 78.04374 93.565831 
L 78.55152 121.314077 
L 78.805411 91.815954 
L 79.059301 123.813908 
L 79.313191 95.815693 
L 79.567081 103.815192 
L 79.820972 101.065369 
L 80.328752 87.316231 
L 80.582642 113.814539 
L 80.836533 98.815508 
L 81.090423 106.065031 
L 81.344313 91.31597 
L 81.598203 91.066 
L 81.852094 162.061461 
L 82.105984 101.565331 
L 82.359874 116.0644 
L 82.613764 95.315731 
L 83.121545 111.81467 
L 83.375435 139.562892 
L 83.629325 97.565593 
L 83.883216 114.564493 
L 84.137106 98.315524 
L 84.390996 96.815639 
L 84.644886 102.315285 
L 84.898777 93.315862 
L 85.152667 109.8148 
L 85.406557 114.814485 
L 85.660447 125.813777 
L 85.914338 90.816008 
L 86.168228 95.815693 
L 86.422118 203.558822 
L 86.676008 99.065477 
L 86.929899 213.558168 
L 87.183789 92.315916 
L 87.437679 129.563546 
L 87.691569 101.065369 
L 87.94546 128.5636 
L 88.19935 117.564308 
L 88.45324 92.315916 
L 88.70713 89.566093 
L 88.961021 97.3156 
L 89.214911 115.564439 
L 89.468801 93.315862 
L 89.722691 94.815747 
L 89.976582 141.312792 
L 90.230472 91.565962 
L 90.484362 105.56507 
L 90.738252 96.565647 
L 91.246033 131.563415 
L 91.499923 122.813962 
L 91.753813 131.063454 
L 92.007704 94.815747 
L 92.515484 101.065369 
L 92.769374 95.065739 
L 93.023265 99.565462 
L 93.277155 125.313815 
L 93.531045 90.066054 
L 93.784936 104.565146 
L 94.038826 99.565462 
L 94.292716 92.315916 
L 94.546606 107.314969 
L 94.800497 90.816008 
L 95.054387 91.815954 
L 95.562167 101.815301 
L 95.816058 121.314077 
L 96.069948 101.315339 
L 96.323838 100.565385 
L 96.577728 156.061853 
L 96.831619 94.565777 
L 97.085509 94.065816 
L 97.339399 113.814539 
L 97.84718 91.31597 
L 98.10107 102.065293 
L 98.35496 153.31203 
L 98.60885 100.565385 
L 98.862741 104.565146 
L 99.116631 89.316101 
L 99.370521 90.316047 
L 99.624411 93.815824 
L 99.878302 109.8148 
L 100.132192 89.816085 
L 100.386082 128.5636 
L 100.639972 130.063508 
L 100.893863 92.815878 
L 101.147753 97.815562 
L 101.401643 99.815431 
L 101.655533 93.315862 
L 101.909424 90.066054 
L 102.163314 102.565254 
L 102.417204 123.063954 
L 102.671094 97.565593 
L 102.924985 143.812623 
L 103.178875 94.065816 
L 103.432765 91.815954 
L 103.686655 93.06587 
L 103.940546 98.315524 
L 104.194436 100.815377 
L 104.448326 91.565962 
L 104.956107 109.564808 
L 105.209997 105.315077 
L 105.463887 91.815954 
L 105.717777 94.065816 
L 105.971668 94.565777 
L 106.225558 91.565962 
L 106.479448 91.31597 
L 106.733338 90.816008 
L 106.987229 92.065924 
L 107.241119 95.815693 
L 107.495009 90.566039 
L 107.748899 90.566039 
L 108.00279 96.815639 
L 108.25668 159.061646 
L 108.51057 90.316047 
L 108.76446 88.066185 
L 109.018351 87.816193 
L 109.272241 90.816008 
L 109.526131 90.816008 
L 109.780021 91.565962 
L 110.033912 121.064085 
L 110.287802 89.566093 
L 110.541692 92.815878 
L 110.795583 91.565962 
L 111.049473 119.564177 
L 111.303363 88.316177 
L 111.557253 95.315731 
L 111.811144 95.565701 
L 112.065034 90.566039 
L 112.318924 99.565462 
L 112.572814 91.31597 
L 113.080595 94.815747 
L 113.334485 91.815954 
L 113.588375 90.316047 
L 113.842266 92.065924 
L 114.096156 91.565962 
L 114.350046 96.065685 
L 114.603936 90.316047 
L 114.857827 98.315524 
L 115.111717 99.565462 
L 115.365607 94.315785 
L 115.619497 92.565908 
L 115.873388 92.565908 
L 116.127278 100.565385 
L 116.381168 92.565908 
L 116.635058 105.815062 
L 116.888949 92.065924 
L 117.142839 92.315916 
L 117.396729 96.065685 
L 117.650619 91.066 
L 117.90451 111.314708 
L 118.1584 94.815747 
L 118.41229 109.064846 
L 118.66618 92.315916 
L 118.920071 96.315654 
L 119.173961 97.065608 
L 119.427851 94.065816 
L 119.681741 98.315524 
L 119.935632 92.565908 
L 120.443412 90.316047 
L 120.697302 95.065739 
L 120.951193 89.316101 
L 121.205083 90.066054 
L 121.458973 92.315916 
L 121.712863 98.565516 
L 121.966754 90.066054 
L 122.220644 91.565962 
L 122.474534 91.565962 
L 122.728424 90.316047 
L 122.982315 91.565962 
L 123.490095 89.316101 
L 123.743985 90.566039 
L 123.997876 101.065369 
L 124.251766 90.816008 
L 124.505656 91.31597 
L 125.013437 100.065423 
L 125.267327 92.815878 
L 125.521217 98.065554 
L 125.775107 91.565962 
L 126.028998 92.815878 
L 126.282888 91.066 
L 126.536778 94.065816 
L 126.790669 90.066054 
L 127.044559 89.816085 
L 127.298449 99.31547 
L 127.552339 90.566039 
L 127.80623 90.066054 
L 128.06012 92.065924 
L 128.31401 91.066 
L 128.5679 93.06587 
L 129.075681 89.816085 
L 129.329571 91.31597 
L 129.583461 88.316177 
L 129.837352 90.566039 
L 130.091242 90.566039 
L 130.345132 92.565908 
L 130.599022 90.066054 
L 130.852913 90.316047 
L 131.106803 89.816085 
L 131.360693 91.815954 
L 131.614583 90.816008 
L 131.868474 90.316047 
L 132.122364 89.566093 
L 132.376254 93.565831 
L 132.884035 89.566093 
L 133.137925 91.565962 
L 133.391815 90.066054 
L 133.645705 90.816008 
L 133.899596 93.06587 
L 134.153486 91.31597 
L 134.407376 90.566039 
L 134.661266 90.566039 
L 134.915157 90.066054 
L 135.169047 90.566039 
L 135.422937 95.315731 
L 135.676827 89.816085 
L 135.930718 88.816139 
L 136.438498 92.815878 
L 136.692388 90.066054 
L 136.946279 96.315654 
L 137.200169 90.816008 
L 137.454059 90.066054 
L 137.96184 92.065924 
L 138.21573 92.065924 
L 138.46962 91.565962 
L 138.72351 92.565908 
L 138.977401 92.565908 
L 139.231291 91.565962 
L 139.485181 89.566093 
L 139.739071 91.31597 
L 139.992962 89.566093 
L 140.246852 90.066054 
L 140.500742 89.566093 
L 140.754632 91.066 
L 141.008523 90.316047 
L 141.262413 90.566039 
L 141.516303 90.566039 
L 141.770193 89.566093 
L 142.277974 90.566039 
L 142.531864 90.816008 
L 142.785755 90.316047 
L 143.293535 88.816139 
L 143.547425 89.566093 
L 143.801316 91.066 
L 144.055206 90.566039 
L 144.309096 90.816008 
L 144.562986 90.566039 
L 144.816877 89.066131 
L 145.070767 89.816085 
L 145.324657 88.816139 
L 145.578547 90.316047 
L 145.832438 91.066 
L 146.086328 89.316101 
L 146.594108 91.066 
L 146.847999 91.565962 
L 147.101889 90.816008 
L 147.355779 89.316101 
L 147.609669 89.816085 
L 147.86356 89.566093 
L 148.11745 88.316177 
L 148.37134 89.566093 
L 148.62523 89.816085 
L 148.879121 98.065554 
L 149.133011 92.315916 
L 149.386901 89.566093 
L 149.640791 89.316101 
L 149.894682 90.066054 
L 150.148572 89.816085 
L 150.656352 90.316047 
L 151.164133 89.816085 
L 151.418023 89.316101 
L 151.671913 90.566039 
L 151.925804 90.316047 
L 152.179694 89.066131 
L 152.433584 89.066131 
L 152.687474 89.566093 
L 152.941365 90.816008 
L 153.195255 90.816008 
L 153.449145 88.316177 
L 153.703035 90.316047 
L 153.956926 91.31597 
L 154.210816 90.816008 
L 154.464706 90.066054 
L 154.718596 91.066 
L 154.972487 92.565908 
L 155.226377 89.816085 
L 155.480267 89.316101 
L 155.734157 89.066131 
L 155.988048 90.816008 
L 156.241938 90.066054 
L 156.749718 89.566093 
L 157.257499 90.566039 
L 157.511389 89.066131 
L 157.765279 89.566093 
L 158.01917 89.316101 
L 158.27306 89.316101 
L 158.52695 89.816085 
L 158.78084 89.316101 
L 159.034731 91.066 
L 159.288621 88.816139 
L 159.542511 90.566039 
L 159.796402 89.066131 
L 160.050292 89.066131 
L 160.304182 91.066 
L 160.558072 89.816085 
L 160.811963 90.816008 
L 161.065853 90.316047 
L 161.319743 89.066131 
L 161.573633 89.066131 
L 161.827524 88.066185 
L 162.081414 89.066131 
L 162.335304 89.066131 
L 162.843085 91.066 
L 163.096975 89.066131 
L 163.350865 89.316101 
L 163.604755 91.31597 
L 163.858646 88.816139 
L 164.112536 88.816139 
L 164.366426 90.316047 
L 164.620316 89.816085 
L 164.874207 89.066131 
L 165.635877 89.816085 
L 165.889768 89.566093 
L 166.143658 88.816139 
L 166.651438 89.316101 
L 166.905329 89.066131 
L 167.159219 90.066054 
L 167.413109 90.066054 
L 167.666999 89.816085 
L 167.92089 89.816085 
L 168.17478 91.31597 
L 168.42867 90.316047 
L 168.68256 89.816085 
L 168.936451 90.566039 
L 169.190341 89.816085 
L 169.444231 89.566093 
L 169.952012 89.566093 
L 170.205902 90.066054 
L 170.459792 90.066054 
L 170.713682 89.566093 
L 170.967573 90.066054 
L 171.221463 90.066054 
L 171.475353 89.566093 
L 171.729243 90.316047 
L 171.983134 90.316047 
L 172.237024 90.066054 
L 172.490914 89.066131 
L 172.744804 89.066131 
L 172.998695 88.566147 
L 173.252585 88.566147 
L 173.506475 89.816085 
L 173.760365 90.066054 
L 174.014256 91.066 
L 174.268146 90.316047 
L 174.522036 88.816139 
L 174.775926 88.566147 
L 175.029817 90.316047 
L 175.283707 89.566093 
L 175.537597 90.566039 
L 175.791488 89.566093 
L 176.045378 89.566093 
L 176.299268 90.316047 
L 176.553158 90.316047 
L 176.807049 89.066131 
L 177.060939 89.816085 
L 177.314829 90.066054 
L 177.568719 88.566147 
L 177.82261 88.566147 
L 178.0765 89.316101 
L 178.33039 89.066131 
L 178.58428 90.066054 
L 178.838171 89.816085 
L 179.092061 89.316101 
L 179.345951 89.566093 
L 179.599841 89.566093 
L 179.853732 90.066054 
L 180.107622 90.816008 
L 180.361512 89.816085 
L 180.615402 90.566039 
L 180.869293 90.566039 
L 181.123183 89.566093 
L 181.377073 89.816085 
L 181.884854 89.816085 
L 182.138744 89.316101 
L 182.392634 90.066054 
L 182.646524 89.816085 
L 182.900415 89.816085 
L 183.154305 90.066054 
L 183.408195 89.566093 
L 183.662085 89.316101 
L 183.915976 89.816085 
L 184.169866 89.566093 
L 184.423756 89.566093 
L 184.677646 89.066131 
L 184.931537 89.566093 
L 185.185427 89.066131 
L 185.439317 89.566093 
L 185.693207 90.316047 
L 185.947098 90.566039 
L 186.454878 89.066131 
L 186.708768 89.566093 
L 186.962659 89.816085 
L 187.470439 89.816085 
L 187.724329 90.316047 
L 187.97822 91.066 
L 188.23211 90.316047 
L 188.486 90.066054 
L 188.73989 89.566093 
L 188.993781 89.316101 
L 189.247671 90.066054 
L 189.501561 89.816085 
L 189.755451 90.316047 
L 190.263232 89.816085 
L 190.517122 91.066 
L 190.771012 89.566093 
L 191.278793 90.066054 
L 191.532683 89.316101 
L 191.786574 89.316101 
L 192.294354 90.316047 
L 192.548244 90.066054 
L 192.802135 90.566039 
L 193.309915 89.066131 
L 193.563805 89.316101 
L 193.817696 90.316047 
L 194.071586 89.566093 
L 194.325476 89.566093 
L 194.579366 89.316101 
L 194.833257 89.316101 
L 195.087147 89.816085 
L 195.341037 89.816085 
L 195.594927 90.816008 
L 196.102708 90.316047 
L 196.356598 89.816085 
L 196.610488 89.066131 
L 196.864379 90.316047 
L 197.118269 89.566093 
L 197.372159 90.566039 
L 197.626049 89.566093 
L 198.13383 89.566093 
L 198.38772 90.066054 
L 198.64161 90.066054 
L 198.895501 90.316047 
L 199.149391 90.316047 
L 199.657171 89.316101 
L 199.911062 89.316101 
L 200.164952 90.066054 
L 200.418842 90.066054 
L 200.672732 89.566093 
L 200.926623 89.816085 
L 201.180513 89.816085 
L 201.434403 89.566093 
L 201.688293 89.816085 
L 201.942184 89.816085 
L 202.196074 89.316101 
L 202.703854 90.316047 
L 202.957745 90.066054 
L 203.211635 89.566093 
L 203.465525 90.316047 
L 203.719415 90.316047 
L 203.973306 89.566093 
L 204.227196 89.816085 
L 204.481086 90.566039 
L 204.734976 90.066054 
L 204.988867 89.816085 
L 205.496647 90.316047 
L 205.750537 90.066054 
L 206.004428 90.566039 
L 206.766098 89.816085 
L 207.273879 89.816085 
L 207.527769 89.566093 
L 208.03555 90.066054 
L 208.28944 89.816085 
L 209.558891 89.816085 
L 209.812782 89.566093 
L 210.066672 89.816085 
L 210.320562 89.816085 
L 210.574452 90.316047 
L 210.828343 90.316047 
L 211.082233 89.816085 
L 211.336123 90.566039 
L 211.590013 90.066054 
L 212.097794 90.066054 
L 212.351684 89.816085 
L 212.859465 89.816085 
L 213.113355 90.316047 
L 213.367245 90.066054 
L 213.621135 90.066054 
L 213.875026 89.816085 
L 214.128916 89.316101 
L 214.382806 89.566093 
L 214.636696 90.066054 
L 214.890587 89.566093 
L 215.144477 90.066054 
L 215.906148 90.066054 
L 216.160038 89.816085 
L 216.413928 90.316047 
L 216.667818 90.316047 
L 216.921709 89.816085 
L 217.175599 89.566093 
L 217.429489 89.816085 
L 217.683379 89.816085 
L 217.93727 90.316047 
L 218.19116 89.566093 
L 218.69894 90.066054 
L 218.952831 89.566093 
L 219.206721 90.066054 
L 220.476172 90.066054 
L 220.730062 90.566039 
L 220.983953 89.566093 
L 221.237843 89.816085 
L 221.491733 89.566093 
L 221.745623 89.566093 
L 222.253404 90.566039 
L 222.507294 89.816085 
L 223.015075 90.316047 
L 223.522855 89.816085 
L 223.776745 89.816085 
L 224.030636 90.066054 
L 224.284526 89.816085 
L 224.538416 90.066054 
L 224.792307 90.066054 
L 225.046197 90.316047 
L 225.300087 90.066054 
L 225.553977 90.066054 
L 225.807868 90.316047 
L 226.315648 90.316047 
L 226.569538 90.066054 
L 227.585099 90.066054 
L 227.83899 90.316047 
L 228.09288 90.066054 
L 228.34677 90.316047 
L 228.60066 89.816085 
L 229.108441 90.316047 
L 229.362331 89.816085 
L 229.870112 90.316047 
L 230.124002 90.066054 
L 230.377892 90.316047 
L 230.631782 90.316047 
L 230.885673 89.816085 
L 231.139563 90.066054 
L 231.647343 90.066054 
L 231.901234 89.566093 
L 232.155124 90.316047 
L 232.409014 90.566039 
L 232.662904 90.316047 
L 232.916795 90.316047 
L 233.170685 89.816085 
L 233.424575 89.566093 
L 233.678465 90.066054 
L 233.932356 89.816085 
L 234.440136 89.816085 
L 234.694026 90.316047 
L 234.947917 90.066054 
L 235.201807 90.566039 
L 235.709587 89.566093 
L 235.963478 89.816085 
L 236.217368 89.566093 
L 236.471258 90.066054 
L 236.725148 89.816085 
L 237.232929 89.816085 
L 237.486819 89.566093 
L 237.740709 90.066054 
L 237.9946 89.566093 
L 238.24849 90.066054 
L 238.75627 90.066054 
L 239.010161 89.816085 
L 239.264051 90.566039 
L 239.517941 90.066054 
L 239.771831 90.316047 
L 240.279612 89.816085 
L 240.533502 89.816085 
L 240.787393 89.566093 
L 241.041283 89.816085 
L 241.295173 89.566093 
L 241.549063 89.816085 
L 241.802954 89.566093 
L 242.056844 90.316047 
L 242.310734 89.816085 
L 242.564624 90.066054 
L 243.580185 90.066054 
L 243.834076 89.816085 
L 244.341856 89.816085 
L 244.595746 90.066054 
L 244.849637 89.816085 
L 245.103527 90.566039 
L 245.357417 90.566039 
L 245.611307 90.066054 
L 245.865198 90.566039 
L 246.119088 90.316047 
L 246.372978 90.566039 
L 246.626868 90.566039 
L 246.880759 90.066054 
L 247.134649 90.566039 
L 247.388539 90.316047 
L 247.642429 90.316047 
L 247.89632 89.816085 
L 248.15021 90.066054 
L 248.4041 89.816085 
L 248.65799 89.816085 
L 248.911881 90.066054 
L 249.165771 89.566093 
L 249.673551 90.066054 
L 249.927442 89.816085 
L 250.181332 90.066054 
L 250.435222 89.816085 
L 250.943003 89.816085 
L 251.196893 90.066054 
L 251.704673 89.566093 
L 252.212454 90.066054 
L 252.466344 89.816085 
L 252.720234 90.066054 
L 252.974125 89.816085 
L 253.228015 89.816085 
L 253.481905 89.566093 
L 253.735795 89.566093 
L 253.989686 89.816085 
L 254.243576 89.816085 
L 254.497466 90.566039 
L 254.751356 89.816085 
L 255.005247 90.066054 
L 255.513027 90.066054 
L 255.766917 90.316047 
L 256.020808 89.816085 
L 256.274698 89.566093 
L 256.528588 89.566093 
L 256.782479 90.066054 
L 257.036369 90.066054 
L 257.544149 89.566093 
L 257.79804 90.066054 
L 258.30582 89.566093 
L 258.55971 89.066131 
L 258.813601 89.566093 
L 259.067491 89.566093 
L 259.321381 89.816085 
L 259.575271 89.566093 
L 260.083052 90.066054 
L 260.336942 90.066054 
L 260.844723 89.566093 
L 261.098613 89.816085 
L 261.352503 89.816085 
L 261.606393 90.316047 
L 261.860284 89.816085 
L 262.114174 89.566093 
L 262.368064 90.066054 
L 262.875845 90.066054 
L 263.129735 89.816085 
L 263.383625 89.316101 
L 263.637515 89.566093 
L 263.891406 89.066131 
L 264.145296 89.566093 
L 264.399186 89.816085 
L 265.414747 89.816085 
L 265.668637 89.566093 
L 265.922528 90.066054 
L 266.430308 89.566093 
L 266.684198 90.816008 
L 267.191979 89.816085 
L 267.95365 89.816085 
L 268.20754 90.316047 
L 268.46143 89.566093 
L 268.71532 89.816085 
L 270.238662 89.816085 
L 270.746442 89.316101 
L 271.000333 89.816085 
L 271.254223 89.566093 
L 271.762003 89.566093 
L 272.015894 89.316101 
L 272.269784 89.566093 
L 272.523674 89.566093 
L 272.777564 89.816085 
L 273.285345 89.816085 
L 273.539235 89.566093 
L 273.793126 89.566093 
L 274.047016 90.066054 
L 274.300906 89.566093 
L 274.554796 89.316101 
L 274.808687 90.066054 
L 275.062577 89.316101 
L 275.316467 89.816085 
L 276.078138 89.816085 
L 276.332028 89.566093 
L 276.585918 89.566093 
L 276.839809 90.066054 
L 277.347589 89.566093 
L 278.10926 90.316047 
L 278.36315 89.566093 
L 278.870931 90.066054 
L 279.378711 89.566093 
L 279.632601 89.816085 
L 279.886492 89.566093 
L 280.140382 89.816085 
L 280.394272 90.316047 
L 280.648162 89.816085 
L 280.902053 90.066054 
L 281.155943 89.816085 
L 281.409833 89.816085 
L 281.663723 90.066054 
L 281.917614 89.566093 
L 282.171504 89.816085 
L 282.425394 89.816085 
L 282.679284 90.316047 
L 282.933175 89.566093 
L 283.187065 90.066054 
L 283.440955 89.816085 
L 283.694845 89.816085 
L 283.948736 90.066054 
L 284.202626 90.066054 
L 284.710406 89.566093 
L 285.218187 90.066054 
L 285.472077 89.816085 
L 286.487638 89.816085 
L 286.741528 90.066054 
L 286.995419 89.816085 
L 287.249309 89.816085 
L 287.503199 90.066054 
L 287.757089 89.566093 
L 288.01098 89.816085 
L 288.26487 89.816085 
L 288.51876 89.566093 
L 289.026541 90.066054 
L 289.280431 89.816085 
L 289.534321 90.316047 
L 290.042102 89.816085 
L 290.295992 90.066054 
L 290.803773 90.066054 
L 291.057663 89.816085 
L 291.311553 90.066054 
L 291.565443 89.566093 
L 291.819334 89.816085 
L 293.342675 89.816085 
L 293.596565 89.566093 
L 293.850456 89.816085 
L 294.358236 89.816085 
L 294.612126 89.566093 
L 294.866017 90.066054 
L 295.627687 90.066054 
L 295.881578 89.816085 
L 296.135468 89.816085 
L 296.389358 90.066054 
L 296.643248 89.816085 
L 296.897139 90.066054 
L 297.151029 89.566093 
L 297.404919 90.566039 
L 297.9127 89.566093 
L 298.16659 89.816085 
L 298.42048 89.566093 
L 298.67437 89.816085 
L 298.928261 89.816085 
L 299.182151 90.066054 
L 299.436041 90.066054 
L 299.689931 89.566093 
L 299.943822 89.566093 
L 300.451602 90.066054 
L 300.705492 89.816085 
L 300.959383 89.816085 
L 301.213273 90.066054 
L 301.467163 89.816085 
L 301.721053 90.066054 
L 301.974944 89.816085 
L 302.228834 90.316047 
L 302.736614 90.316047 
L 302.990505 89.816085 
L 303.244395 89.566093 
L 303.498285 89.816085 
L 308.3222 89.816085 
L 308.57609 89.566093 
L 308.829981 89.816085 
L 309.083871 89.816085 
L 309.337761 90.066054 
L 309.591651 89.816085 
L 309.845542 89.816085 
L 310.099432 89.566093 
L 310.099432 89.566093 
" clip-path="url(#pfea2adc68d)" style="fill: none; stroke: #ff0000; stroke-width: 0.6; stroke-linecap: square"/>
   </g>
   <g id="patch_3">
    <path d="M 43.78125 239.76 
L 43.78125 37.296 
" style="fill: none; stroke: #000000; stroke-width: 0.8; stroke-linejoin: miter; stroke-linecap: square"/>
   </g>
   <g id="patch_4">
    <path d="M 322.78125 239.76 
L 322.78125 37.296 
" style="fill: none; stroke: #000000; stroke-width: 0.8; stroke-linejoin: miter; stroke-linecap: square"/>
   </g>
   <g id="patch_5">
    <path d="M 43.78125 239.76 
L 322.78125 239.76 
" style="fill: none; stroke: #000000; stroke-width: 0.8; stroke-linejoin: miter; stroke-linecap: square"/>
   </g>
   <g id="patch_6">
    <path d="M 43.78125 37.296 
L 322.78125 37.296 
" style="fill: none; stroke: #000000; stroke-width: 0.8; stroke-linejoin: miter; stroke-linecap: square"/>
   </g>
   <g id="text_15">
    <!-- Quantized-16 Model -->
    <g transform="translate(137.983828 31.296) scale(0.09 -0.09)">
     <defs>
      <path id="DejaVuSans-51" d="M 2522 4238 
Q 1834 4238 1429 3725 
Q 1025 3213 1025 2328 
Q 1025 1447 1429 934 
Q 1834 422 2522 422 
Q 3209 422 3611 934 
Q 4013 1447 4013 2328 
Q 4013 3213 3611 3725 
Q 3209 4238 2522 4238 
z
M 3406 84 
L 4238 -825 
L 3475 -825 
L 2784 -78 
Q 2681 -84 2626 -87 
Q 2572 -91 2522 -91 
Q 1538 -91 948 567 
Q 359 1225 359 2328 
Q 359 3434 948 4092 
Q 1538 4750 2522 4750 
Q 3503 4750 4090 4092 
Q 4678 3434 4678 2328 
Q 4678 1516 4351 937 
Q 4025 359 3406 84 
z
" transform="scale(0.015625)"/>
      <path id="DejaVuSans-6e" d="M 3513 2113 
L 3513 0 
L 2938 0 
L 2938 2094 
Q 2938 2591 2744 2837 
Q 2550 3084 2163 3084 
Q 1697 3084 1428 2787 
Q 1159 2491 1159 1978 
L 1159 0 
L 581 0 
L 581 3500 
L 1159 3500 
L 1159 2956 
Q 1366 3272 1645 3428 
Q 1925 3584 2291 3584 
Q 2894 3584 3203 3211 
Q 3513 2838 3513 2113 
z
" transform="scale(0.015625)"/>
      <path id="DejaVuSans-74" d="M 1172 4494 
L 1172 3500 
L 2356 3500 
L 2356 3053 
L 1172 3053 
L 1172 1153 
Q 1172 725 1289 603 
Q 1406 481 1766 481 
L 2356 481 
L 2356 0 
L 1766 0 
Q 1100 0 847 248 
Q 594 497 594 1153 
L 594 3053 
L 172 3053 
L 172 3500 
L 594 3500 
L 594 4494 
L 1172 4494 
z
" transform="scale(0.015625)"/>
      <path id="DejaVuSans-69" d="M 603 3500 
L 1178 3500 
L 1178 0 
L 603 0 
L 603 3500 
z
M 603 4863 
L 1178 4863 
L 1178 4134 
L 603 4134 
L 603 4863 
z
" transform="scale(0.015625)"/>
      <path id="DejaVuSans-7a" d="M 353 3500 
L 3084 3500 
L 3084 2975 
L 922 459 
L 3084 459 
L 3084 0 
L 275 0 
L 275 525 
L 2438 3041 
L 353 3041 
L 353 3500 
z
" transform="scale(0.015625)"/>
      <path id="DejaVuSans-65" d="M 3597 1894 
L 3597 1613 
L 953 1613 
Q 991 1019 1311 708 
Q 1631 397 2203 397 
Q 2534 397 2845 478 
Q 3156 559 3463 722 
L 3463 178 
Q 3153 47 2828 -22 
Q 2503 -91 2169 -91 
Q 1331 -91 842 396 
Q 353 884 353 1716 
Q 353 2575 817 3079 
Q 1281 3584 2069 3584 
Q 2775 3584 3186 3129 
Q 3597 2675 3597 1894 
z
M 3022 2063 
Q 3016 2534 2758 2815 
Q 2500 3097 2075 3097 
Q 1594 3097 1305 2825 
Q 1016 2553 972 2059 
L 3022 2063 
z
" transform="scale(0.015625)"/>
      <path id="DejaVuSans-64" d="M 2906 2969 
L 2906 4863 
L 3481 4863 
L 3481 0 
L 2906 0 
L 2906 525 
Q 2725 213 2448 61 
Q 2172 -91 1784 -91 
Q 1150 -91 751 415 
Q 353 922 353 1747 
Q 353 2572 751 3078 
Q 1150 3584 1784 3584 
Q 2172 3584 2448 3432 
Q 2725 3281 2906 2969 
z
M 947 1747 
Q 947 1113 1208 752 
Q 1469 391 1925 391 
Q 2381 391 2643 752 
Q 2906 1113 2906 1747 
Q 2906 2381 2643 2742 
Q 2381 3103 1925 3103 
Q 1469 3103 1208 2742 
Q 947 2381 947 1747 
z
" transform="scale(0.015625)"/>
      <path id="DejaVuSans-2d" d="M 313 2009 
L 1997 2009 
L 1997 1497 
L 313 1497 
L 313 2009 
z
" transform="scale(0.015625)"/>
      <path id="DejaVuSans-20" transform="scale(0.015625)"/>
      <path id="DejaVuSans-4d" d="M 628 4666 
L 1569 4666 
L 2759 1491 
L 3956 4666 
L 4897 4666 
L 4897 0 
L 4281 0 
L 4281 4097 
L 3078 897 
L 2444 897 
L 1241 4097 
L 1241 0 
L 628 0 
L 628 4666 
z
" transform="scale(0.015625)"/>
      <path id="DejaVuSans-6c" d="M 603 4863 
L 1178 4863 
L 1178 0 
L 603 0 
L 603 4863 
z
" transform="scale(0.015625)"/>
     </defs>
     <use xlink:href="#DejaVuSans-51"/>
     <use xlink:href="#DejaVuSans-75" x="78.710938"/>
     <use xlink:href="#DejaVuSans-61" x="142.089844"/>
     <use xlink:href="#DejaVuSans-6e" x="203.369141"/>
     <use xlink:href="#DejaVuSans-74" x="266.748047"/>
     <use xlink:href="#DejaVuSans-69" x="305.957031"/>
     <use xlink:href="#DejaVuSans-7a" x="333.740234"/>
     <use xlink:href="#DejaVuSans-65" x="386.230469"/>
     <use xlink:href="#DejaVuSans-64" x="447.753906"/>
     <use xlink:href="#DejaVuSans-2d" x="511.230469"/>
     <use xlink:href="#DejaVuSans-31" x="547.314453"/>
     <use xlink:href="#DejaVuSans-36" x="610.9375"/>
     <use xlink:href="#DejaVuSans-20" x="674.560547"/>
     <use xlink:href="#DejaVuSans-4d" x="706.347656"/>
     <use xlink:href="#DejaVuSans-6f" x="792.626953"/>
     <use xlink:href="#DejaVuSans-64" x="853.808594"/>
     <use xlink:href="#DejaVuSans-65" x="917.285156"/>
     <use xlink:href="#DejaVuSans-6c" x="978.808594"/>
    </g>
   </g>
   <g id="legend_1">
    <g id="patch_7">
     <path d="M 185.565625 234.76 
L 315.78125 234.76 
Q 317.78125 234.76 317.78125 232.76 
L 317.78125 204.40375 
Q 317.78125 202.40375 315.78125 202.40375 
L 185.565625 202.40375 
Q 183.565625 202.40375 183.565625 204.40375 
L 183.565625 232.76 
Q 183.565625 234.76 185.565625 234.76 
z
" style="fill: #ffffff; opacity: 0.8; stroke: #cccccc; stroke-linejoin: miter"/>
    </g>
    <g id="line2d_27">
     <path d="M 187.565625 210.502187 
L 197.565625 210.502187 
L 207.565625 210.502187 
" style="fill: none; stroke: #0000ff; stroke-width: 0.6; stroke-linecap: square"/>
    </g>
    <g id="text_16">
     <!-- Training Accuracy -->
     <g transform="translate(215.565625 214.002187) scale(0.1 -0.1)">
      <defs>
       <path id="DejaVuSans-54" d="M -19 4666 
L 3928 4666 
L 3928 4134 
L 2272 4134 
L 2272 0 
L 1638 0 
L 1638 4134 
L -19 4134 
L -19 4666 
z
" transform="scale(0.015625)"/>
       <path id="DejaVuSans-67" d="M 2906 1791 
Q 2906 2416 2648 2759 
Q 2391 3103 1925 3103 
Q 1463 3103 1205 2759 
Q 947 2416 947 1791 
Q 947 1169 1205 825 
Q 1463 481 1925 481 
Q 2391 481 2648 825 
Q 2906 1169 2906 1791 
z
M 3481 434 
Q 3481 -459 3084 -895 
Q 2688 -1331 1869 -1331 
Q 1566 -1331 1297 -1286 
Q 1028 -1241 775 -1147 
L 775 -588 
Q 1028 -725 1275 -790 
Q 1522 -856 1778 -856 
Q 2344 -856 2625 -561 
Q 2906 -266 2906 331 
L 2906 616 
Q 2728 306 2450 153 
Q 2172 0 1784 0 
Q 1141 0 747 490 
Q 353 981 353 1791 
Q 353 2603 747 3093 
Q 1141 3584 1784 3584 
Q 2172 3584 2450 3431 
Q 2728 3278 2906 2969 
L 2906 3500 
L 3481 3500 
L 3481 434 
z
" transform="scale(0.015625)"/>
      </defs>
      <use xlink:href="#DejaVuSans-54"/>
      <use xlink:href="#DejaVuSans-72" x="46.333984"/>
      <use xlink:href="#DejaVuSans-61" x="87.447266"/>
      <use xlink:href="#DejaVuSans-69" x="148.726562"/>
      <use xlink:href="#DejaVuSans-6e" x="176.509766"/>
      <use xlink:href="#DejaVuSans-69" x="239.888672"/>
      <use xlink:href="#DejaVuSans-6e" x="267.671875"/>
      <use xlink:href="#DejaVuSans-67" x="331.050781"/>
      <use xlink:href="#DejaVuSans-20" x="394.527344"/>
      <use xlink:href="#DejaVuSans-41" x="426.314453"/>
      <use xlink:href="#DejaVuSans-63" x="492.972656"/>
      <use xlink:href="#DejaVuSans-63" x="547.953125"/>
      <use xlink:href="#DejaVuSans-75" x="602.933594"/>
      <use xlink:href="#DejaVuSans-72" x="666.3125"/>
      <use xlink:href="#DejaVuSans-61" x="707.425781"/>
      <use xlink:href="#DejaVuSans-63" x="768.705078"/>
      <use xlink:href="#DejaVuSans-79" x="823.685547"/>
     </g>
    </g>
    <g id="line2d_28">
     <path d="M 187.565625 225.180312 
L 197.565625 225.180312 
L 207.565625 225.180312 
" style="fill: none; stroke: #ff0000; stroke-width: 0.6; stroke-linecap: square"/>
    </g>
    <g id="text_17">
     <!-- Validation Accuracy -->
     <g transform="translate(215.565625 228.680312) scale(0.1 -0.1)">
      <defs>
       <path id="DejaVuSans-56" d="M 1831 0 
L 50 4666 
L 709 4666 
L 2188 738 
L 3669 4666 
L 4325 4666 
L 2547 0 
L 1831 0 
z
" transform="scale(0.015625)"/>
      </defs>
      <use xlink:href="#DejaVuSans-56"/>
      <use xlink:href="#DejaVuSans-61" x="60.658203"/>
      <use xlink:href="#DejaVuSans-6c" x="121.9375"/>
      <use xlink:href="#DejaVuSans-69" x="149.720703"/>
      <use xlink:href="#DejaVuSans-64" x="177.503906"/>
      <use xlink:href="#DejaVuSans-61" x="240.980469"/>
      <use xlink:href="#DejaVuSans-74" x="302.259766"/>
      <use xlink:href="#DejaVuSans-69" x="341.46875"/>
      <use xlink:href="#DejaVuSans-6f" x="369.251953"/>
      <use xlink:href="#DejaVuSans-6e" x="430.433594"/>
      <use xlink:href="#DejaVuSans-20" x="493.8125"/>
      <use xlink:href="#DejaVuSans-41" x="525.599609"/>
      <use xlink:href="#DejaVuSans-63" x="592.257812"/>
      <use xlink:href="#DejaVuSans-63" x="647.238281"/>
      <use xlink:href="#DejaVuSans-75" x="702.21875"/>
      <use xlink:href="#DejaVuSans-72" x="765.597656"/>
      <use xlink:href="#DejaVuSans-61" x="806.710938"/>
      <use xlink:href="#DejaVuSans-63" x="867.990234"/>
      <use xlink:href="#DejaVuSans-79" x="922.970703"/>
     </g>
    </g>
   </g>
  </g>
  <g id="text_18">
   <!-- Training VS. Validation Accuracy - Dataset Size = 100.0% -->
   <g transform="translate(21.433984 15.558281) scale(0.11 -0.11)">
    <defs>
     <path id="DejaVuSans-53" d="M 3425 4513 
L 3425 3897 
Q 3066 4069 2747 4153 
Q 2428 4238 2131 4238 
Q 1616 4238 1336 4038 
Q 1056 3838 1056 3469 
Q 1056 3159 1242 3001 
Q 1428 2844 1947 2747 
L 2328 2669 
Q 3034 2534 3370 2195 
Q 3706 1856 3706 1288 
Q 3706 609 3251 259 
Q 2797 -91 1919 -91 
Q 1588 -91 1214 -16 
Q 841 59 441 206 
L 441 856 
Q 825 641 1194 531 
Q 1563 422 1919 422 
Q 2459 422 2753 634 
Q 3047 847 3047 1241 
Q 3047 1584 2836 1778 
Q 2625 1972 2144 2069 
L 1759 2144 
Q 1053 2284 737 2584 
Q 422 2884 422 3419 
Q 422 4038 858 4394 
Q 1294 4750 2059 4750 
Q 2388 4750 2728 4690 
Q 3069 4631 3425 4513 
z
" transform="scale(0.015625)"/>
     <path id="DejaVuSans-44" d="M 1259 4147 
L 1259 519 
L 2022 519 
Q 2988 519 3436 956 
Q 3884 1394 3884 2338 
Q 3884 3275 3436 3711 
Q 2988 4147 2022 4147 
L 1259 4147 
z
M 628 4666 
L 1925 4666 
Q 3281 4666 3915 4102 
Q 4550 3538 4550 2338 
Q 4550 1131 3912 565 
Q 3275 0 1925 0 
L 628 0 
L 628 4666 
z
" transform="scale(0.015625)"/>
     <path id="DejaVuSans-3d" d="M 678 2906 
L 4684 2906 
L 4684 2381 
L 678 2381 
L 678 2906 
z
M 678 1631 
L 4684 1631 
L 4684 1100 
L 678 1100 
L 678 1631 
z
" transform="scale(0.015625)"/>
     <path id="DejaVuSans-25" d="M 4653 2053 
Q 4381 2053 4226 1822 
Q 4072 1591 4072 1178 
Q 4072 772 4226 539 
Q 4381 306 4653 306 
Q 4919 306 5073 539 
Q 5228 772 5228 1178 
Q 5228 1588 5073 1820 
Q 4919 2053 4653 2053 
z
M 4653 2450 
Q 5147 2450 5437 2106 
Q 5728 1763 5728 1178 
Q 5728 594 5436 251 
Q 5144 -91 4653 -91 
Q 4153 -91 3862 251 
Q 3572 594 3572 1178 
Q 3572 1766 3864 2108 
Q 4156 2450 4653 2450 
z
M 1428 4353 
Q 1159 4353 1004 4120 
Q 850 3888 850 3481 
Q 850 3069 1003 2837 
Q 1156 2606 1428 2606 
Q 1700 2606 1854 2837 
Q 2009 3069 2009 3481 
Q 2009 3884 1853 4118 
Q 1697 4353 1428 4353 
z
M 4250 4750 
L 4750 4750 
L 1831 -91 
L 1331 -91 
L 4250 4750 
z
M 1428 4750 
Q 1922 4750 2215 4408 
Q 2509 4066 2509 3481 
Q 2509 2891 2217 2550 
Q 1925 2209 1428 2209 
Q 931 2209 642 2551 
Q 353 2894 353 3481 
Q 353 4063 643 4406 
Q 934 4750 1428 4750 
z
" transform="scale(0.015625)"/>
    </defs>
    <use xlink:href="#DejaVuSans-54"/>
    <use xlink:href="#DejaVuSans-72" x="46.333984"/>
    <use xlink:href="#DejaVuSans-61" x="87.447266"/>
    <use xlink:href="#DejaVuSans-69" x="148.726562"/>
    <use xlink:href="#DejaVuSans-6e" x="176.509766"/>
    <use xlink:href="#DejaVuSans-69" x="239.888672"/>
    <use xlink:href="#DejaVuSans-6e" x="267.671875"/>
    <use xlink:href="#DejaVuSans-67" x="331.050781"/>
    <use xlink:href="#DejaVuSans-20" x="394.527344"/>
    <use xlink:href="#DejaVuSans-56" x="426.314453"/>
    <use xlink:href="#DejaVuSans-53" x="494.722656"/>
    <use xlink:href="#DejaVuSans-2e" x="558.199219"/>
    <use xlink:href="#DejaVuSans-20" x="589.986328"/>
    <use xlink:href="#DejaVuSans-56" x="621.773438"/>
    <use xlink:href="#DejaVuSans-61" x="682.431641"/>
    <use xlink:href="#DejaVuSans-6c" x="743.710938"/>
    <use xlink:href="#DejaVuSans-69" x="771.494141"/>
    <use xlink:href="#DejaVuSans-64" x="799.277344"/>
    <use xlink:href="#DejaVuSans-61" x="862.753906"/>
    <use xlink:href="#DejaVuSans-74" x="924.033203"/>
    <use xlink:href="#DejaVuSans-69" x="963.242188"/>
    <use xlink:href="#DejaVuSans-6f" x="991.025391"/>
    <use xlink:href="#DejaVuSans-6e" x="1052.207031"/>
    <use xlink:href="#DejaVuSans-20" x="1115.585938"/>
    <use xlink:href="#DejaVuSans-41" x="1147.373047"/>
    <use xlink:href="#DejaVuSans-63" x="1214.03125"/>
    <use xlink:href="#DejaVuSans-63" x="1269.011719"/>
    <use xlink:href="#DejaVuSans-75" x="1323.992188"/>
    <use xlink:href="#DejaVuSans-72" x="1387.371094"/>
    <use xlink:href="#DejaVuSans-61" x="1428.484375"/>
    <use xlink:href="#DejaVuSans-63" x="1489.763672"/>
    <use xlink:href="#DejaVuSans-79" x="1544.744141"/>
    <use xlink:href="#DejaVuSans-20" x="1603.923828"/>
    <use xlink:href="#DejaVuSans-2d" x="1635.710938"/>
    <use xlink:href="#DejaVuSans-20" x="1671.794922"/>
    <use xlink:href="#DejaVuSans-44" x="1703.582031"/>
    <use xlink:href="#DejaVuSans-61" x="1780.583984"/>
    <use xlink:href="#DejaVuSans-74" x="1841.863281"/>
    <use xlink:href="#DejaVuSans-61" x="1881.072266"/>
    <use xlink:href="#DejaVuSans-73" x="1942.351562"/>
    <use xlink:href="#DejaVuSans-65" x="1994.451172"/>
    <use xlink:href="#DejaVuSans-74" x="2055.974609"/>
    <use xlink:href="#DejaVuSans-20" x="2095.183594"/>
    <use xlink:href="#DejaVuSans-53" x="2126.970703"/>
    <use xlink:href="#DejaVuSans-69" x="2190.447266"/>
    <use xlink:href="#DejaVuSans-7a" x="2218.230469"/>
    <use xlink:href="#DejaVuSans-65" x="2270.720703"/>
    <use xlink:href="#DejaVuSans-20" x="2332.244141"/>
    <use xlink:href="#DejaVuSans-3d" x="2364.03125"/>
    <use xlink:href="#DejaVuSans-20" x="2447.820312"/>
    <use xlink:href="#DejaVuSans-31" x="2479.607422"/>
    <use xlink:href="#DejaVuSans-30" x="2543.230469"/>
    <use xlink:href="#DejaVuSans-30" x="2606.853516"/>
    <use xlink:href="#DejaVuSans-2e" x="2670.476562"/>
    <use xlink:href="#DejaVuSans-30" x="2702.263672"/>
    <use xlink:href="#DejaVuSans-25" x="2765.886719"/>
   </g>
  </g>
 </g>
 <defs>
  <clipPath id="pfea2adc68d">
   <rect x="43.78125" y="37.296" width="279" height="202.464"/>
  </clipPath>
 </defs>
</svg>
