<?xml version="1.0" encoding="utf-8" standalone="no"?>
<!DOCTYPE svg PUBLIC "-//W3C//DTD SVG 1.1//EN"
  "http://www.w3.org/Graphics/SVG/1.1/DTD/svg11.dtd">
<svg xmlns:xlink="http://www.w3.org/1999/xlink" width="343.328516pt" height="277.31625pt" viewBox="0 0 343.328516 277.31625" xmlns="http://www.w3.org/2000/svg" version="1.1">
 <metadata>
  <rdf:RDF xmlns:dc="http://purl.org/dc/elements/1.1/" xmlns:cc="http://creativecommons.org/ns#" xmlns:rdf="http://www.w3.org/1999/02/22-rdf-syntax-ns#">
   <cc:Work>
    <dc:type rdf:resource="http://purl.org/dc/dcmitype/StillImage"/>
    <dc:date>2026-06-11T14:53:31.803991</dc:date>
    <dc:format>image/svg+xml</dc:format>
    <dc:creator>
     <cc:Agent>
      <dc:title>Matplotlib v3.8.4, https://matplotlib.org/</dc:title>
     </cc:Agent>
    </dc:creator>
   </cc:Work>
  </rdf:RDF>
 </metadata>
 <defs>
  <style type="text/css">*{stroke-linejoin: round; stroke-linecap: butt}</style>
 </defs>
 <g id="figure_1">
  <g id="patch_1">
   <path d="M 0 277.31625 
L 343.328516 277.31625 
L 343.328516 0 
L 0 0 
z
" style="fill: #ffffff"/>
  </g>
  <g id="axes_1">
   <g id="patch_2">
    <path d="M 43.78125 239.76 
L 322.78125 239.76 
L 322.78125 37.296 
L 43.78125 37.296 
z
" style="fill: #ffffff"/>
   </g>
   <g id="matplotlib.axis_1">
    <g id="xtick_1">
     <g id="line2d_1">
      <path d="M 56.209178 239.76 
L 56.209178 37.296 
" clip-path="url(#p7f6f29bbae)" style="fill: none; stroke-dasharray: 2.96,1.28; stroke-dashoffset: 0; stroke: #b0b0b0; stroke-opacity: 0.4; stroke-width: 0.8"/>
     </g>
     <g id="line2d_2">
      <defs>
       <path id="me2a775ec34" d="M 0 0 
L 0 3.5 
" style="stroke: #000000; stroke-width: 0.8"/>
      </defs>
      <g>
       <use xlink:href="#me2a775ec34" x="56.209178" y="239.76" style="stroke: #000000; stroke-width: 0.8"/>
      </g>
     </g>
     <g id="text_1">
      <!-- 0 -->
      <g transform="translate(53.027928 254.358437) scale(0.1 -0.1)">
       <defs>
        <path id="DejaVuSans-30" d="M 2034 4250 
Q 1547 4250 1301 3770 
Q 1056 3291 1056 2328 
Q 1056 1369 1301 889 
Q 1547 409 2034 409 
Q 2525 409 2770 889 
Q 3016 1369 3016 2328 
Q 3016 3291 2770 3770 
Q 2525 4250 2034 4250 
z
M 2034 4750 
Q 2819 4750 3233 4129 
Q 3647 3509 3647 2328 
Q 3647 1150 3233 529 
Q 2819 -91 2034 -91 
Q 1250 -91 836 529 
Q 422 1150 422 2328 
Q 422 3509 836 4129 
Q 1250 4750 2034 4750 
z
" transform="scale(0.015625)"/>
       </defs>
       <use xlink:href="#DejaVuSans-30"/>
      </g>
     </g>
    </g>
    <g id="xtick_2">
     <g id="line2d_3">
      <path d="M 106.987229 239.76 
L 106.987229 37.296 
" clip-path="url(#p7f6f29bbae)" style="fill: none; stroke-dasharray: 2.96,1.28; stroke-dashoffset: 0; stroke: #b0b0b0; stroke-opacity: 0.4; stroke-width: 0.8"/>
     </g>
     <g id="line2d_4">
      <g>
       <use xlink:href="#me2a775ec34" x="106.987229" y="239.76" style="stroke: #000000; stroke-width: 0.8"/>
      </g>
     </g>
     <g id="text_2">
      <!-- 200 -->
      <g transform="translate(97.443479 254.358437) scale(0.1 -0.1)">
       <defs>
        <path id="DejaVuSans-32" d="M 1228 531 
L 3431 531 
L 3431 0 
L 469 0 
L 469 531 
Q 828 903 1448 1529 
Q 2069 2156 2228 2338 
Q 2531 2678 2651 2914 
Q 2772 3150 2772 3378 
Q 2772 3750 2511 3984 
Q 2250 4219 1831 4219 
Q 1534 4219 1204 4116 
Q 875 4013 500 3803 
L 500 4441 
Q 881 4594 1212 4672 
Q 1544 4750 1819 4750 
Q 2544 4750 2975 4387 
Q 3406 4025 3406 3419 
Q 3406 3131 3298 2873 
Q 3191 2616 2906 2266 
Q 2828 2175 2409 1742 
Q 1991 1309 1228 531 
z
" transform="scale(0.015625)"/>
       </defs>
       <use xlink:href="#DejaVuSans-32"/>
       <use xlink:href="#DejaVuSans-30" x="63.623047"/>
       <use xlink:href="#DejaVuSans-30" x="127.246094"/>
      </g>
     </g>
    </g>
    <g id="xtick_3">
     <g id="line2d_5">
      <path d="M 157.765279 239.76 
L 157.765279 37.296 
" clip-path="url(#p7f6f29bbae)" style="fill: none; stroke-dasharray: 2.96,1.28; stroke-dashoffset: 0; stroke: #b0b0b0; stroke-opacity: 0.4; stroke-width: 0.8"/>
     </g>
     <g id="line2d_6">
      <g>
       <use xlink:href="#me2a775ec34" x="157.765279" y="239.76" style="stroke: #000000; stroke-width: 0.8"/>
      </g>
     </g>
     <g id="text_3">
      <!-- 400 -->
      <g transform="translate(148.221529 254.358437) scale(0.1 -0.1)">
       <defs>
        <path id="DejaVuSans-34" d="M 2419 4116 
L 825 1625 
L 2419 1625 
L 2419 4116 
z
M 2253 4666 
L 3047 4666 
L 3047 1625 
L 3713 1625 
L 3713 1100 
L 3047 1100 
L 3047 0 
L 2419 0 
L 2419 1100 
L 313 1100 
L 313 1709 
L 2253 4666 
z
" transform="scale(0.015625)"/>
       </defs>
       <use xlink:href="#DejaVuSans-34"/>
       <use xlink:href="#DejaVuSans-30" x="63.623047"/>
       <use xlink:href="#DejaVuSans-30" x="127.246094"/>
      </g>
     </g>
    </g>
    <g id="xtick_4">
     <g id="line2d_7">
      <path d="M 208.54333 239.76 
L 208.54333 37.296 
" clip-path="url(#p7f6f29bbae)" style="fill: none; stroke-dasharray: 2.96,1.28; stroke-dashoffset: 0; stroke: #b0b0b0; stroke-opacity: 0.4; stroke-width: 0.8"/>
     </g>
     <g id="line2d_8">
      <g>
       <use xlink:href="#me2a775ec34" x="208.54333" y="239.76" style="stroke: #000000; stroke-width: 0.8"/>
      </g>
     </g>
     <g id="text_4">
      <!-- 600 -->
      <g transform="translate(198.99958 254.358437) scale(0.1 -0.1)">
       <defs>
        <path id="DejaVuSans-36" d="M 2113 2584 
Q 1688 2584 1439 2293 
Q 1191 2003 1191 1497 
Q 1191 994 1439 701 
Q 1688 409 2113 409 
Q 2538 409 2786 701 
Q 3034 994 3034 1497 
Q 3034 2003 2786 2293 
Q 2538 2584 2113 2584 
z
M 3366 4563 
L 3366 3988 
Q 3128 4100 2886 4159 
Q 2644 4219 2406 4219 
Q 1781 4219 1451 3797 
Q 1122 3375 1075 2522 
Q 1259 2794 1537 2939 
Q 1816 3084 2150 3084 
Q 2853 3084 3261 2657 
Q 3669 2231 3669 1497 
Q 3669 778 3244 343 
Q 2819 -91 2113 -91 
Q 1303 -91 875 529 
Q 447 1150 447 2328 
Q 447 3434 972 4092 
Q 1497 4750 2381 4750 
Q 2619 4750 2861 4703 
Q 3103 4656 3366 4563 
z
" transform="scale(0.015625)"/>
       </defs>
       <use xlink:href="#DejaVuSans-36"/>
       <use xlink:href="#DejaVuSans-30" x="63.623047"/>
       <use xlink:href="#DejaVuSans-30" x="127.246094"/>
      </g>
     </g>
    </g>
    <g id="xtick_5">
     <g id="line2d_9">
      <path d="M 259.321381 239.76 
L 259.321381 37.296 
" clip-path="url(#p7f6f29bbae)" style="fill: none; stroke-dasharray: 2.96,1.28; stroke-dashoffset: 0; stroke: #b0b0b0; stroke-opacity: 0.4; stroke-width: 0.8"/>
     </g>
     <g id="line2d_10">
      <g>
       <use xlink:href="#me2a775ec34" x="259.321381" y="239.76" style="stroke: #000000; stroke-width: 0.8"/>
      </g>
     </g>
     <g id="text_5">
      <!-- 800 -->
      <g transform="translate(249.777631 254.358437) scale(0.1 -0.1)">
       <defs>
        <path id="DejaVuSans-38" d="M 2034 2216 
Q 1584 2216 1326 1975 
Q 1069 1734 1069 1313 
Q 1069 891 1326 650 
Q 1584 409 2034 409 
Q 2484 409 2743 651 
Q 3003 894 3003 1313 
Q 3003 1734 2745 1975 
Q 2488 2216 2034 2216 
z
M 1403 2484 
Q 997 2584 770 2862 
Q 544 3141 544 3541 
Q 544 4100 942 4425 
Q 1341 4750 2034 4750 
Q 2731 4750 3128 4425 
Q 3525 4100 3525 3541 
Q 3525 3141 3298 2862 
Q 3072 2584 2669 2484 
Q 3125 2378 3379 2068 
Q 3634 1759 3634 1313 
Q 3634 634 3220 271 
Q 2806 -91 2034 -91 
Q 1263 -91 848 271 
Q 434 634 434 1313 
Q 434 1759 690 2068 
Q 947 2378 1403 2484 
z
M 1172 3481 
Q 1172 3119 1398 2916 
Q 1625 2713 2034 2713 
Q 2441 2713 2670 2916 
Q 2900 3119 2900 3481 
Q 2900 3844 2670 4047 
Q 2441 4250 2034 4250 
Q 1625 4250 1398 4047 
Q 1172 3844 1172 3481 
z
" transform="scale(0.015625)"/>
       </defs>
       <use xlink:href="#DejaVuSans-38"/>
       <use xlink:href="#DejaVuSans-30" x="63.623047"/>
       <use xlink:href="#DejaVuSans-30" x="127.246094"/>
      </g>
     </g>
    </g>
    <g id="xtick_6">
     <g id="line2d_11">
      <path d="M 310.099432 239.76 
L 310.099432 37.296 
" clip-path="url(#p7f6f29bbae)" style="fill: none; stroke-dasharray: 2.96,1.28; stroke-dashoffset: 0; stroke: #b0b0b0; stroke-opacity: 0.4; stroke-width: 0.8"/>
     </g>
     <g id="line2d_12">
      <g>
       <use xlink:href="#me2a775ec34" x="310.099432" y="239.76" style="stroke: #000000; stroke-width: 0.8"/>
      </g>
     </g>
     <g id="text_6">
      <!-- 1000 -->
      <g transform="translate(297.374432 254.358437) scale(0.1 -0.1)">
       <defs>
        <path id="DejaVuSans-31" d="M 794 531 
L 1825 531 
L 1825 4091 
L 703 3866 
L 703 4441 
L 1819 4666 
L 2450 4666 
L 2450 531 
L 3481 531 
L 3481 0 
L 794 0 
L 794 531 
z
" transform="scale(0.015625)"/>
       </defs>
       <use xlink:href="#DejaVuSans-31"/>
       <use xlink:href="#DejaVuSans-30" x="63.623047"/>
       <use xlink:href="#DejaVuSans-30" x="127.246094"/>
       <use xlink:href="#DejaVuSans-30" x="190.869141"/>
      </g>
     </g>
    </g>
    <g id="text_7">
     <!-- Epochs -->
     <g transform="translate(165.365625 268.036562) scale(0.1 -0.1)">
      <defs>
       <path id="DejaVuSans-45" d="M 628 4666 
L 3578 4666 
L 3578 4134 
L 1259 4134 
L 1259 2753 
L 3481 2753 
L 3481 2222 
L 1259 2222 
L 1259 531 
L 3634 531 
L 3634 0 
L 628 0 
L 628 4666 
z
" transform="scale(0.015625)"/>
       <path id="DejaVuSans-70" d="M 1159 525 
L 1159 -1331 
L 581 -1331 
L 581 3500 
L 1159 3500 
L 1159 2969 
Q 1341 3281 1617 3432 
Q 1894 3584 2278 3584 
Q 2916 3584 3314 3078 
Q 3713 2572 3713 1747 
Q 3713 922 3314 415 
Q 2916 -91 2278 -91 
Q 1894 -91 1617 61 
Q 1341 213 1159 525 
z
M 3116 1747 
Q 3116 2381 2855 2742 
Q 2594 3103 2138 3103 
Q 1681 3103 1420 2742 
Q 1159 2381 1159 1747 
Q 1159 1113 1420 752 
Q 1681 391 2138 391 
Q 2594 391 2855 752 
Q 3116 1113 3116 1747 
z
" transform="scale(0.015625)"/>
       <path id="DejaVuSans-6f" d="M 1959 3097 
Q 1497 3097 1228 2736 
Q 959 2375 959 1747 
Q 959 1119 1226 758 
Q 1494 397 1959 397 
Q 2419 397 2687 759 
Q 2956 1122 2956 1747 
Q 2956 2369 2687 2733 
Q 2419 3097 1959 3097 
z
M 1959 3584 
Q 2709 3584 3137 3096 
Q 3566 2609 3566 1747 
Q 3566 888 3137 398 
Q 2709 -91 1959 -91 
Q 1206 -91 779 398 
Q 353 888 353 1747 
Q 353 2609 779 3096 
Q 1206 3584 1959 3584 
z
" transform="scale(0.015625)"/>
       <path id="DejaVuSans-63" d="M 3122 3366 
L 3122 2828 
Q 2878 2963 2633 3030 
Q 2388 3097 2138 3097 
Q 1578 3097 1268 2742 
Q 959 2388 959 1747 
Q 959 1106 1268 751 
Q 1578 397 2138 397 
Q 2388 397 2633 464 
Q 2878 531 3122 666 
L 3122 134 
Q 2881 22 2623 -34 
Q 2366 -91 2075 -91 
Q 1284 -91 818 406 
Q 353 903 353 1747 
Q 353 2603 823 3093 
Q 1294 3584 2113 3584 
Q 2378 3584 2631 3529 
Q 2884 3475 3122 3366 
z
" transform="scale(0.015625)"/>
       <path id="DejaVuSans-68" d="M 3513 2113 
L 3513 0 
L 2938 0 
L 2938 2094 
Q 2938 2591 2744 2837 
Q 2550 3084 2163 3084 
Q 1697 3084 1428 2787 
Q 1159 2491 1159 1978 
L 1159 0 
L 581 0 
L 581 4863 
L 1159 4863 
L 1159 2956 
Q 1366 3272 1645 3428 
Q 1925 3584 2291 3584 
Q 2894 3584 3203 3211 
Q 3513 2838 3513 2113 
z
" transform="scale(0.015625)"/>
       <path id="DejaVuSans-73" d="M 2834 3397 
L 2834 2853 
Q 2591 2978 2328 3040 
Q 2066 3103 1784 3103 
Q 1356 3103 1142 2972 
Q 928 2841 928 2578 
Q 928 2378 1081 2264 
Q 1234 2150 1697 2047 
L 1894 2003 
Q 2506 1872 2764 1633 
Q 3022 1394 3022 966 
Q 3022 478 2636 193 
Q 2250 -91 1575 -91 
Q 1294 -91 989 -36 
Q 684 19 347 128 
L 347 722 
Q 666 556 975 473 
Q 1284 391 1588 391 
Q 1994 391 2212 530 
Q 2431 669 2431 922 
Q 2431 1156 2273 1281 
Q 2116 1406 1581 1522 
L 1381 1569 
Q 847 1681 609 1914 
Q 372 2147 372 2553 
Q 372 3047 722 3315 
Q 1072 3584 1716 3584 
Q 2034 3584 2315 3537 
Q 2597 3491 2834 3397 
z
" transform="scale(0.015625)"/>
      </defs>
      <use xlink:href="#DejaVuSans-45"/>
      <use xlink:href="#DejaVuSans-70" x="63.183594"/>
      <use xlink:href="#DejaVuSans-6f" x="126.660156"/>
      <use xlink:href="#DejaVuSans-63" x="187.841797"/>
      <use xlink:href="#DejaVuSans-68" x="242.822266"/>
      <use xlink:href="#DejaVuSans-73" x="306.201172"/>
     </g>
    </g>
   </g>
   <g id="matplotlib.axis_2">
    <g id="ytick_1">
     <g id="line2d_13">
      <path d="M 43.78125 230.814887 
L 322.78125 230.814887 
" clip-path="url(#p7f6f29bbae)" style="fill: none; stroke-dasharray: 2.96,1.28; stroke-dashoffset: 0; stroke: #b0b0b0; stroke-opacity: 0.4; stroke-width: 0.8"/>
     </g>
     <g id="line2d_14">
      <defs>
       <path id="m12c3341aba" d="M 0 0 
L -3.5 0 
" style="stroke: #000000; stroke-width: 0.8"/>
      </defs>
      <g>
       <use xlink:href="#m12c3341aba" x="43.78125" y="230.814887" style="stroke: #000000; stroke-width: 0.8"/>
      </g>
     </g>
     <g id="text_8">
      <!-- 0.5 -->
      <g transform="translate(20.878125 234.614106) scale(0.1 -0.1)">
       <defs>
        <path id="DejaVuSans-2e" d="M 684 794 
L 1344 794 
L 1344 0 
L 684 0 
L 684 794 
z
" transform="scale(0.015625)"/>
        <path id="DejaVuSans-35" d="M 691 4666 
L 3169 4666 
L 3169 4134 
L 1269 4134 
L 1269 2991 
Q 1406 3038 1543 3061 
Q 1681 3084 1819 3084 
Q 2600 3084 3056 2656 
Q 3513 2228 3513 1497 
Q 3513 744 3044 326 
Q 2575 -91 1722 -91 
Q 1428 -91 1123 -41 
Q 819 9 494 109 
L 494 744 
Q 775 591 1075 516 
Q 1375 441 1709 441 
Q 2250 441 2565 725 
Q 2881 1009 2881 1497 
Q 2881 1984 2565 2268 
Q 2250 2553 1709 2553 
Q 1456 2553 1204 2497 
Q 953 2441 691 2322 
L 691 4666 
z
" transform="scale(0.015625)"/>
       </defs>
       <use xlink:href="#DejaVuSans-30"/>
       <use xlink:href="#DejaVuSans-2e" x="63.623047"/>
       <use xlink:href="#DejaVuSans-35" x="95.410156"/>
      </g>
     </g>
    </g>
    <g id="ytick_2">
     <g id="line2d_15">
      <path d="M 43.78125 191.631168 
L 322.78125 191.631168 
" clip-path="url(#p7f6f29bbae)" style="fill: none; stroke-dasharray: 2.96,1.28; stroke-dashoffset: 0; stroke: #b0b0b0; stroke-opacity: 0.4; stroke-width: 0.8"/>
     </g>
     <g id="line2d_16">
      <g>
       <use xlink:href="#m12c3341aba" x="43.78125" y="191.631168" style="stroke: #000000; stroke-width: 0.8"/>
      </g>
     </g>
     <g id="text_9">
      <!-- 0.6 -->
      <g transform="translate(20.878125 195.430387) scale(0.1 -0.1)">
       <use xlink:href="#DejaVuSans-30"/>
       <use xlink:href="#DejaVuSans-2e" x="63.623047"/>
       <use xlink:href="#DejaVuSans-36" x="95.410156"/>
      </g>
     </g>
    </g>
    <g id="ytick_3">
     <g id="line2d_17">
      <path d="M 43.78125 152.447449 
L 322.78125 152.447449 
" clip-path="url(#p7f6f29bbae)" style="fill: none; stroke-dasharray: 2.96,1.28; stroke-dashoffset: 0; stroke: #b0b0b0; stroke-opacity: 0.4; stroke-width: 0.8"/>
     </g>
     <g id="line2d_18">
      <g>
       <use xlink:href="#m12c3341aba" x="43.78125" y="152.447449" style="stroke: #000000; stroke-width: 0.8"/>
      </g>
     </g>
     <g id="text_10">
      <!-- 0.7 -->
      <g transform="translate(20.878125 156.246667) scale(0.1 -0.1)">
       <defs>
        <path id="DejaVuSans-37" d="M 525 4666 
L 3525 4666 
L 3525 4397 
L 1831 0 
L 1172 0 
L 2766 4134 
L 525 4134 
L 525 4666 
z
" transform="scale(0.015625)"/>
       </defs>
       <use xlink:href="#DejaVuSans-30"/>
       <use xlink:href="#DejaVuSans-2e" x="63.623047"/>
       <use xlink:href="#DejaVuSans-37" x="95.410156"/>
      </g>
     </g>
    </g>
    <g id="ytick_4">
     <g id="line2d_19">
      <path d="M 43.78125 113.26373 
L 322.78125 113.26373 
" clip-path="url(#p7f6f29bbae)" style="fill: none; stroke-dasharray: 2.96,1.28; stroke-dashoffset: 0; stroke: #b0b0b0; stroke-opacity: 0.4; stroke-width: 0.8"/>
     </g>
     <g id="line2d_20">
      <g>
       <use xlink:href="#m12c3341aba" x="43.78125" y="113.26373" style="stroke: #000000; stroke-width: 0.8"/>
      </g>
     </g>
     <g id="text_11">
      <!-- 0.8 -->
      <g transform="translate(20.878125 117.062948) scale(0.1 -0.1)">
       <use xlink:href="#DejaVuSans-30"/>
       <use xlink:href="#DejaVuSans-2e" x="63.623047"/>
       <use xlink:href="#DejaVuSans-38" x="95.410156"/>
      </g>
     </g>
    </g>
    <g id="ytick_5">
     <g id="line2d_21">
      <path d="M 43.78125 74.080011 
L 322.78125 74.080011 
" clip-path="url(#p7f6f29bbae)" style="fill: none; stroke-dasharray: 2.96,1.28; stroke-dashoffset: 0; stroke: #b0b0b0; stroke-opacity: 0.4; stroke-width: 0.8"/>
     </g>
     <g id="line2d_22">
      <g>
       <use xlink:href="#m12c3341aba" x="43.78125" y="74.080011" style="stroke: #000000; stroke-width: 0.8"/>
      </g>
     </g>
     <g id="text_12">
      <!-- 0.9 -->
      <g transform="translate(20.878125 77.879229) scale(0.1 -0.1)">
       <defs>
        <path id="DejaVuSans-39" d="M 703 97 
L 703 672 
Q 941 559 1184 500 
Q 1428 441 1663 441 
Q 2288 441 2617 861 
Q 2947 1281 2994 2138 
Q 2813 1869 2534 1725 
Q 2256 1581 1919 1581 
Q 1219 1581 811 2004 
Q 403 2428 403 3163 
Q 403 3881 828 4315 
Q 1253 4750 1959 4750 
Q 2769 4750 3195 4129 
Q 3622 3509 3622 2328 
Q 3622 1225 3098 567 
Q 2575 -91 1691 -91 
Q 1453 -91 1209 -44 
Q 966 3 703 97 
z
M 1959 2075 
Q 2384 2075 2632 2365 
Q 2881 2656 2881 3163 
Q 2881 3666 2632 3958 
Q 2384 4250 1959 4250 
Q 1534 4250 1286 3958 
Q 1038 3666 1038 3163 
Q 1038 2656 1286 2365 
Q 1534 2075 1959 2075 
z
" transform="scale(0.015625)"/>
       </defs>
       <use xlink:href="#DejaVuSans-30"/>
       <use xlink:href="#DejaVuSans-2e" x="63.623047"/>
       <use xlink:href="#DejaVuSans-39" x="95.410156"/>
      </g>
     </g>
    </g>
    <g id="text_13">
     <!-- Accuracy -->
     <g transform="translate(14.798438 161.356125) rotate(-90) scale(0.1 -0.1)">
      <defs>
       <path id="DejaVuSans-41" d="M 2188 4044 
L 1331 1722 
L 3047 1722 
L 2188 4044 
z
M 1831 4666 
L 2547 4666 
L 4325 0 
L 3669 0 
L 3244 1197 
L 1141 1197 
L 716 0 
L 50 0 
L 1831 4666 
z
" transform="scale(0.015625)"/>
       <path id="DejaVuSans-75" d="M 544 1381 
L 544 3500 
L 1119 3500 
L 1119 1403 
Q 1119 906 1312 657 
Q 1506 409 1894 409 
Q 2359 409 2629 706 
Q 2900 1003 2900 1516 
L 2900 3500 
L 3475 3500 
L 3475 0 
L 2900 0 
L 2900 538 
Q 2691 219 2414 64 
Q 2138 -91 1772 -91 
Q 1169 -91 856 284 
Q 544 659 544 1381 
z
M 1991 3584 
L 1991 3584 
z
" transform="scale(0.015625)"/>
       <path id="DejaVuSans-72" d="M 2631 2963 
Q 2534 3019 2420 3045 
Q 2306 3072 2169 3072 
Q 1681 3072 1420 2755 
Q 1159 2438 1159 1844 
L 1159 0 
L 581 0 
L 581 3500 
L 1159 3500 
L 1159 2956 
Q 1341 3275 1631 3429 
Q 1922 3584 2338 3584 
Q 2397 3584 2469 3576 
Q 2541 3569 2628 3553 
L 2631 2963 
z
" transform="scale(0.015625)"/>
       <path id="DejaVuSans-61" d="M 2194 1759 
Q 1497 1759 1228 1600 
Q 959 1441 959 1056 
Q 959 750 1161 570 
Q 1363 391 1709 391 
Q 2188 391 2477 730 
Q 2766 1069 2766 1631 
L 2766 1759 
L 2194 1759 
z
M 3341 1997 
L 3341 0 
L 2766 0 
L 2766 531 
Q 2569 213 2275 61 
Q 1981 -91 1556 -91 
Q 1019 -91 701 211 
Q 384 513 384 1019 
Q 384 1609 779 1909 
Q 1175 2209 1959 2209 
L 2766 2209 
L 2766 2266 
Q 2766 2663 2505 2880 
Q 2244 3097 1772 3097 
Q 1472 3097 1187 3025 
Q 903 2953 641 2809 
L 641 3341 
Q 956 3463 1253 3523 
Q 1550 3584 1831 3584 
Q 2591 3584 2966 3190 
Q 3341 2797 3341 1997 
z
" transform="scale(0.015625)"/>
       <path id="DejaVuSans-79" d="M 2059 -325 
Q 1816 -950 1584 -1140 
Q 1353 -1331 966 -1331 
L 506 -1331 
L 506 -850 
L 844 -850 
Q 1081 -850 1212 -737 
Q 1344 -625 1503 -206 
L 1606 56 
L 191 3500 
L 800 3500 
L 1894 763 
L 2988 3500 
L 3597 3500 
L 2059 -325 
z
" transform="scale(0.015625)"/>
      </defs>
      <use xlink:href="#DejaVuSans-41"/>
      <use xlink:href="#DejaVuSans-63" x="66.658203"/>
      <use xlink:href="#DejaVuSans-63" x="121.638672"/>
      <use xlink:href="#DejaVuSans-75" x="176.619141"/>
      <use xlink:href="#DejaVuSans-72" x="239.998047"/>
      <use xlink:href="#DejaVuSans-61" x="281.111328"/>
      <use xlink:href="#DejaVuSans-63" x="342.390625"/>
      <use xlink:href="#DejaVuSans-79" x="397.371094"/>
     </g>
    </g>
   </g>
   <g id="line2d_23">
    <path d="M 56.463068 228.273361 
L 57.224739 220.869773 
L 57.732519 210.151177 
L 58.49419 170.26025 
L 59.001971 127.606785 
L 59.509751 105.285549 
L 59.763641 103.075529 
L 60.017532 93.903919 
L 60.271422 95.229941 
L 60.525312 92.798909 
L 60.779202 87.936869 
L 61.033093 87.826352 
L 61.286983 86.721342 
L 61.794764 87.826352 
L 62.048654 86.500354 
L 62.302544 89.704867 
L 62.556434 81.638291 
L 62.810325 80.201775 
L 63.064215 80.643775 
L 63.318105 82.08029 
L 63.571995 79.649259 
L 63.825886 81.417279 
L 64.079776 82.301302 
L 64.333666 80.643775 
L 64.587556 83.074806 
L 64.841447 79.207259 
L 65.095337 81.527797 
L 65.857008 75.781735 
L 66.110898 77.439238 
L 66.364788 75.229218 
L 66.618678 77.107733 
L 66.872569 77.991755 
L 67.126459 77.328744 
L 67.380349 76.11324 
L 67.634239 78.875754 
L 68.14202 75.892229 
L 68.6498 78.986271 
L 69.157581 74.124208 
L 69.411471 76.997239 
L 69.665361 75.229218 
L 69.919252 75.671218 
L 70.173142 75.00823 
L 70.427032 73.019198 
L 70.934813 77.770744 
L 71.188703 73.792703 
L 71.442593 74.897713 
L 71.696483 72.245693 
L 71.950374 71.472189 
L 72.204264 71.693177 
L 72.458154 73.350703 
L 72.712044 71.693177 
L 72.965935 71.030189 
L 73.219825 74.234702 
L 73.473715 72.466705 
L 73.727605 74.234702 
L 73.981496 76.886745 
L 74.235386 72.245693 
L 74.489276 72.908704 
L 74.743166 71.803694 
L 74.997057 72.798187 
L 75.250947 71.030189 
L 75.504837 72.798187 
L 75.758727 69.814662 
L 76.012618 71.803694 
L 76.266508 76.776251 
L 76.774288 69.814662 
L 77.028179 75.229218 
L 77.282069 68.820146 
L 77.535959 70.035673 
L 77.78985 66.499631 
L 78.04374 68.930663 
L 78.55152 65.063116 
L 78.805411 64.731611 
L 79.059301 64.842105 
L 79.313191 66.720643 
L 79.567081 65.726127 
L 79.820972 66.499631 
L 80.074862 62.742578 
L 80.328752 65.836621 
L 80.582642 64.289611 
L 80.836533 63.737095 
L 81.090423 62.411096 
L 81.344313 65.947115 
L 81.598203 62.742578 
L 81.852094 64.731611 
L 82.105984 63.958106 
L 82.359874 64.0686 
L 82.613764 65.505115 
L 83.121545 61.748086 
L 83.375435 63.847612 
L 83.629325 67.38363 
L 83.883216 65.063116 
L 84.137106 65.17361 
L 84.390996 66.720643 
L 84.644886 67.494148 
L 84.898777 66.499631 
L 85.152667 64.952622 
L 85.406557 66.057632 
L 85.914338 63.295095 
L 86.168228 64.400105 
L 86.422118 64.510599 
L 86.676008 63.958106 
L 86.929899 62.300579 
L 87.183789 66.941631 
L 87.437679 65.505115 
L 87.691569 64.731611 
L 88.19935 62.079591 
L 88.45324 64.179094 
L 88.70713 63.958106 
L 88.961021 61.748086 
L 89.214911 62.52159 
L 89.468801 64.400105 
L 89.976582 63.847612 
L 90.230472 64.400105 
L 90.484362 64.510599 
L 90.738252 60.201053 
L 90.992143 58.654043 
L 91.246033 58.654043 
L 91.499923 60.643076 
L 91.753813 58.875055 
L 92.007704 59.980065 
L 92.261594 60.201053 
L 92.515484 57.659527 
L 93.023265 60.864064 
L 93.277155 60.864064 
L 93.531045 56.996517 
L 93.784936 59.427548 
L 94.038826 60.532558 
L 94.292716 57.991033 
L 94.546606 58.10155 
L 94.800497 57.328022 
L 95.054387 57.991033 
L 95.308277 60.974581 
L 95.562167 57.770045 
L 95.816058 59.64856 
L 96.069948 58.543549 
L 96.323838 61.195569 
L 96.577728 58.985549 
L 97.085509 58.322538 
L 97.339399 56.996517 
L 97.593289 58.322538 
L 97.84718 56.886023 
L 98.10107 59.096043 
L 98.35496 59.980065 
L 98.60885 58.764537 
L 98.862741 58.764537 
L 99.116631 55.891507 
L 99.370521 56.223012 
L 99.624411 58.322538 
L 99.878302 55.449507 
L 100.132192 57.549033 
L 100.386082 56.665035 
L 100.639972 59.20656 
L 100.893863 55.670519 
L 101.147753 59.869548 
L 101.401643 57.438539 
L 101.655533 56.775529 
L 101.909424 56.444023 
L 102.163314 55.339013 
L 102.417204 58.10155 
L 102.671094 58.543549 
L 102.924985 55.007508 
L 103.178875 57.549033 
L 103.432765 56.665035 
L 103.686655 56.333529 
L 104.194436 54.676002 
L 104.448326 57.438539 
L 104.702216 56.223012 
L 104.956107 55.781013 
L 105.209997 54.454991 
L 105.463887 53.792004 
L 105.971668 57.438539 
L 106.225558 55.228519 
L 106.479448 55.560001 
L 106.733338 54.454991 
L 106.987229 55.118002 
L 107.241119 55.007508 
L 107.495009 56.112518 
L 108.00279 54.123486 
L 108.51057 58.433032 
L 108.76446 55.449507 
L 109.018351 56.444023 
L 109.272241 56.886023 
L 109.526131 55.670519 
L 109.780021 52.576476 
L 110.033912 54.454991 
L 110.287802 54.344497 
L 110.541692 56.002024 
L 110.795583 56.554517 
L 111.049473 54.676002 
L 111.557253 52.797488 
L 111.811144 52.797488 
L 112.065034 53.902498 
L 112.318924 54.454991 
L 112.572814 54.454991 
L 112.826705 56.554517 
L 113.080595 54.012992 
L 113.334485 53.570992 
L 113.588375 54.676002 
L 113.842266 54.454991 
L 114.350046 53.239487 
L 114.603936 55.118002 
L 114.857827 54.454991 
L 115.111717 55.670519 
L 115.619497 53.239487 
L 115.873388 56.112518 
L 116.127278 55.670519 
L 116.381168 53.792004 
L 116.635058 54.234003 
L 116.888949 51.250455 
L 117.142839 50.255962 
L 117.396729 51.802972 
L 117.650619 51.913466 
L 117.90451 53.570992 
L 118.1584 53.349981 
L 118.41229 53.460498 
L 118.66618 52.465982 
L 118.920071 53.681486 
L 119.427851 53.792004 
L 119.681741 51.471466 
L 119.935632 52.576476 
L 120.189522 54.234003 
L 120.443412 52.023983 
L 120.697302 53.570992 
L 120.951193 52.023983 
L 121.205083 53.128993 
L 121.458973 52.797488 
L 121.712863 55.449507 
L 121.966754 52.134477 
L 122.474534 51.58196 
L 122.728424 53.128993 
L 122.982315 51.692478 
L 123.490095 52.797488 
L 123.743985 52.244971 
L 123.997876 53.128993 
L 124.251766 50.255962 
L 124.505656 53.018476 
L 124.759546 51.250455 
L 125.013437 53.349981 
L 125.267327 53.239487 
L 125.521217 51.802972 
L 125.775107 54.234003 
L 126.028998 53.792004 
L 126.282888 56.112518 
L 126.536778 52.465982 
L 126.790669 51.692478 
L 127.044559 52.576476 
L 127.552339 52.023983 
L 128.06012 54.234003 
L 128.31401 49.924457 
L 128.5679 54.565508 
L 128.821791 51.58196 
L 129.075681 49.924457 
L 129.329571 50.808455 
L 129.583461 51.029467 
L 129.837352 50.587467 
L 130.091242 52.576476 
L 130.599022 50.808455 
L 130.852913 51.139961 
L 131.106803 50.808455 
L 131.360693 50.918973 
L 131.614583 50.145445 
L 132.122364 51.913466 
L 132.376254 50.034951 
L 132.630144 54.123486 
L 133.137925 51.139961 
L 133.391815 50.145445 
L 133.645705 50.034951 
L 133.899596 52.355488 
L 134.153486 50.145445 
L 134.661266 53.018476 
L 134.915157 51.360972 
L 135.169047 51.913466 
L 135.422937 51.250455 
L 135.930718 53.128993 
L 136.184608 50.697961 
L 136.438498 53.570992 
L 136.692388 49.813939 
L 136.946279 50.255962 
L 137.200169 49.150952 
L 137.454059 52.907982 
L 137.96184 49.482457 
L 138.21573 50.034951 
L 138.46962 51.802972 
L 138.72351 49.813939 
L 138.977401 50.366456 
L 139.231291 53.128993 
L 139.485181 50.034951 
L 139.739071 50.034951 
L 139.992962 52.465982 
L 140.246852 53.460498 
L 140.500742 49.703445 
L 140.754632 52.576476 
L 141.008523 52.355488 
L 141.262413 50.587467 
L 141.516303 52.134477 
L 141.770193 51.913466 
L 142.024084 50.697961 
L 142.277974 52.576476 
L 142.785755 49.482457 
L 143.039645 51.58196 
L 143.293535 51.58196 
L 143.547425 50.47695 
L 143.801316 52.023983 
L 144.055206 51.360972 
L 144.309096 49.37194 
L 144.562986 50.697961 
L 144.816877 50.918973 
L 145.324657 50.918973 
L 145.578547 49.924457 
L 145.832438 50.697961 
L 146.086328 49.924457 
L 146.340218 51.692478 
L 146.594108 50.366456 
L 147.101889 52.68697 
L 147.355779 52.797488 
L 147.609669 51.029467 
L 147.86356 51.250455 
L 148.11745 50.255962 
L 148.37134 51.029467 
L 148.62523 48.598435 
L 148.879121 51.692478 
L 149.133011 53.239487 
L 149.386901 51.692478 
L 149.640791 51.913466 
L 149.894682 50.697961 
L 150.148572 50.587467 
L 150.402462 50.918973 
L 150.656352 50.255962 
L 150.910243 50.47695 
L 151.164133 52.023983 
L 151.418023 50.808455 
L 151.671913 48.929941 
L 151.925804 50.145445 
L 152.179694 49.924457 
L 152.433584 52.023983 
L 152.687474 52.907982 
L 152.941365 52.576476 
L 153.195255 51.139961 
L 153.449145 52.465982 
L 153.703035 51.250455 
L 153.956926 50.808455 
L 154.210816 51.029467 
L 154.464706 51.802972 
L 154.718596 50.034951 
L 154.972487 51.029467 
L 155.226377 49.150952 
L 155.480267 51.802972 
L 155.988048 52.134477 
L 156.241938 50.145445 
L 156.495828 51.802972 
L 156.749718 50.034951 
L 157.003609 52.355488 
L 157.257499 50.587467 
L 157.511389 49.703445 
L 157.765279 50.145445 
L 158.01917 49.813939 
L 158.27306 51.139961 
L 158.52695 50.918973 
L 158.78084 51.029467 
L 159.034731 52.134477 
L 159.288621 49.592951 
L 159.542511 49.703445 
L 159.796402 51.250455 
L 160.050292 49.261446 
L 160.304182 51.360972 
L 160.558072 49.924457 
L 160.811963 50.366456 
L 161.065853 51.360972 
L 161.319743 50.145445 
L 161.573633 50.366456 
L 161.827524 49.37194 
L 162.081414 48.929941 
L 162.335304 51.692478 
L 162.843085 48.708929 
L 163.350865 50.587467 
L 163.604755 49.482457 
L 163.858646 52.244971 
L 164.112536 52.355488 
L 164.366426 51.58196 
L 164.620316 52.355488 
L 164.874207 50.918973 
L 165.128097 51.58196 
L 165.381987 50.587467 
L 165.635877 50.918973 
L 165.889768 49.040435 
L 166.143658 51.139961 
L 166.397548 51.692478 
L 166.651438 51.139961 
L 166.905329 51.250455 
L 167.159219 48.487941 
L 167.413109 50.587467 
L 167.92089 49.37194 
L 168.17478 50.587467 
L 168.42867 48.598435 
L 168.68256 51.692478 
L 168.936451 51.360972 
L 169.190341 49.040435 
L 169.444231 50.697961 
L 169.698121 48.819447 
L 169.952012 52.576476 
L 170.205902 51.250455 
L 170.459792 49.040435 
L 170.713682 50.034951 
L 170.967573 48.929941 
L 171.221463 51.139961 
L 171.729243 50.47695 
L 171.983134 52.023983 
L 172.237024 51.250455 
L 172.490914 49.924457 
L 172.744804 51.802972 
L 172.998695 49.482457 
L 173.252585 50.255962 
L 173.760365 49.813939 
L 174.014256 50.697961 
L 174.268146 50.034951 
L 174.522036 50.918973 
L 174.775926 50.366456 
L 175.029817 51.58196 
L 175.283707 50.697961 
L 175.537597 49.150952 
L 175.791488 53.349981 
L 176.045378 51.360972 
L 176.299268 51.58196 
L 176.553158 50.697961 
L 176.807049 50.587467 
L 177.060939 51.250455 
L 177.568719 50.697961 
L 177.82261 49.703445 
L 178.0765 50.697961 
L 178.33039 50.918973 
L 178.58428 49.813939 
L 178.838171 49.37194 
L 179.092061 49.813939 
L 179.345951 49.040435 
L 179.599841 49.924457 
L 179.853732 50.255962 
L 180.107622 49.813939 
L 180.361512 52.465982 
L 180.615402 48.708929 
L 181.123183 50.587467 
L 181.377073 52.244971 
L 181.630963 49.150952 
L 181.884854 50.366456 
L 182.392634 51.471466 
L 182.646524 50.034951 
L 182.900415 51.692478 
L 183.154305 49.37194 
L 183.915976 52.134477 
L 184.169866 48.929941 
L 184.423756 49.150952 
L 184.677646 48.929941 
L 184.931537 50.808455 
L 185.185427 50.587467 
L 185.439317 48.156436 
L 185.693207 48.819447 
L 185.947098 50.808455 
L 186.200988 51.360972 
L 186.454878 47.824931 
L 186.708768 51.692478 
L 186.962659 51.471466 
L 187.216549 50.808455 
L 187.470439 48.156436 
L 187.724329 51.802972 
L 187.97822 50.587467 
L 188.23211 49.924457 
L 188.486 51.250455 
L 188.73989 50.255962 
L 188.993781 47.714437 
L 189.247671 50.697961 
L 189.501561 49.261446 
L 189.755451 49.261446 
L 190.009342 49.482457 
L 190.263232 51.360972 
L 190.517122 49.703445 
L 191.024903 51.692478 
L 191.278793 48.819447 
L 191.786574 51.58196 
L 192.040464 49.592951 
L 192.294354 51.913466 
L 192.548244 48.708929 
L 192.802135 49.482457 
L 193.056025 48.377447 
L 193.563805 51.58196 
L 193.817696 51.802972 
L 194.071586 49.813939 
L 194.325476 52.907982 
L 194.579366 49.924457 
L 194.833257 49.150952 
L 195.087147 50.034951 
L 195.341037 49.482457 
L 195.848818 52.576476 
L 196.102708 50.697961 
L 196.356598 50.255962 
L 196.610488 51.692478 
L 196.864379 49.813939 
L 197.118269 48.929941 
L 197.372159 50.918973 
L 197.626049 48.045942 
L 197.87994 49.703445 
L 198.13383 48.598435 
L 198.64161 50.587467 
L 198.895501 50.47695 
L 199.149391 48.045942 
L 199.403281 48.819447 
L 199.657171 51.471466 
L 199.911062 49.150952 
L 200.164952 50.808455 
L 200.418842 51.471466 
L 200.672732 48.598435 
L 200.926623 51.692478 
L 201.180513 48.929941 
L 201.434403 48.26693 
L 201.688293 49.813939 
L 201.942184 49.482457 
L 202.196074 51.250455 
L 202.449964 49.924457 
L 202.703854 49.924457 
L 202.957745 48.045942 
L 203.211635 50.145445 
L 203.465525 50.366456 
L 203.719415 48.819447 
L 203.973306 50.47695 
L 204.227196 48.045942 
L 204.734976 51.913466 
L 205.242757 48.598435 
L 205.496647 52.023983 
L 205.750537 48.377447 
L 206.258318 50.808455 
L 206.512208 51.360972 
L 206.766098 49.813939 
L 207.019989 49.813939 
L 207.273879 48.929941 
L 207.527769 50.145445 
L 207.78166 49.37194 
L 208.03555 49.592951 
L 208.28944 51.029467 
L 208.54333 49.261446 
L 209.051111 52.68697 
L 209.305001 48.708929 
L 209.558891 49.924457 
L 209.812782 52.244971 
L 210.066672 48.819447 
L 210.320562 49.813939 
L 210.574452 49.703445 
L 210.828343 49.924457 
L 211.082233 51.471466 
L 211.336123 49.150952 
L 211.590013 50.034951 
L 211.843904 51.913466 
L 212.097794 47.493425 
L 212.605574 50.808455 
L 212.859465 51.471466 
L 213.113355 51.360972 
L 213.367245 49.703445 
L 213.621135 52.465982 
L 213.875026 50.47695 
L 214.128916 50.47695 
L 214.382806 51.029467 
L 214.636696 52.797488 
L 214.890587 50.366456 
L 215.144477 51.471466 
L 215.652257 48.929941 
L 215.906148 51.471466 
L 216.160038 50.587467 
L 216.413928 51.029467 
L 216.667818 49.040435 
L 217.175599 50.366456 
L 217.429489 52.355488 
L 217.683379 48.929941 
L 217.93727 50.587467 
L 218.19116 51.139961 
L 218.44505 52.023983 
L 218.69894 50.034951 
L 218.952831 49.813939 
L 219.206721 49.040435 
L 219.460611 52.355488 
L 219.968392 50.145445 
L 220.222282 51.692478 
L 220.730062 48.708929 
L 220.983953 50.587467 
L 221.237843 49.37194 
L 221.491733 51.58196 
L 221.745623 51.139961 
L 221.999514 51.471466 
L 222.253404 48.708929 
L 222.507294 50.587467 
L 222.761184 49.040435 
L 223.268965 52.134477 
L 223.522855 49.924457 
L 223.776745 49.040435 
L 224.030636 51.58196 
L 224.284526 49.482457 
L 224.538416 51.58196 
L 224.792307 51.802972 
L 225.046197 52.465982 
L 225.300087 52.797488 
L 225.553977 50.255962 
L 225.807868 51.802972 
L 226.315648 50.255962 
L 226.569538 50.587467 
L 226.823429 52.134477 
L 227.077319 51.692478 
L 227.331209 49.813939 
L 227.83899 50.918973 
L 228.09288 51.913466 
L 228.34677 47.935425 
L 228.60066 50.697961 
L 228.854551 49.150952 
L 229.108441 51.029467 
L 229.362331 49.813939 
L 229.616221 50.145445 
L 229.870112 51.029467 
L 230.124002 50.47695 
L 230.377892 50.47695 
L 230.631782 47.935425 
L 230.885673 49.703445 
L 231.139563 48.487941 
L 231.393453 49.482457 
L 231.647343 51.58196 
L 231.901234 51.139961 
L 232.155124 50.366456 
L 232.409014 50.145445 
L 232.662904 50.47695 
L 232.916795 49.37194 
L 233.170685 50.366456 
L 233.424575 49.261446 
L 233.678465 50.034951 
L 233.932356 49.924457 
L 234.186246 51.913466 
L 234.440136 49.592951 
L 234.694026 52.355488 
L 235.201807 48.708929 
L 235.455697 50.255962 
L 235.709587 50.697961 
L 235.963478 50.697961 
L 236.217368 49.37194 
L 236.471258 50.587467 
L 236.725148 49.813939 
L 236.979039 50.697961 
L 237.232929 51.139961 
L 237.486819 52.134477 
L 237.740709 51.471466 
L 237.9946 48.929941 
L 238.24849 49.703445 
L 238.50238 49.482457 
L 238.75627 48.819447 
L 239.010161 51.029467 
L 239.264051 51.139961 
L 239.517941 48.929941 
L 239.771831 48.156436 
L 240.025722 52.576476 
L 240.533502 49.482457 
L 240.787393 49.37194 
L 241.295173 51.58196 
L 241.549063 49.482457 
L 241.802954 50.47695 
L 242.056844 52.355488 
L 242.310734 50.034951 
L 242.564624 51.139961 
L 242.818515 50.255962 
L 243.072405 52.68697 
L 243.326295 50.697961 
L 243.580185 51.471466 
L 243.834076 49.813939 
L 244.087966 50.587467 
L 244.341856 49.150952 
L 244.595746 51.250455 
L 244.849637 52.244971 
L 245.103527 48.487941 
L 245.357417 50.47695 
L 245.611307 50.697961 
L 245.865198 50.587467 
L 246.119088 49.150952 
L 246.372978 50.145445 
L 246.626868 49.482457 
L 246.880759 50.145445 
L 247.134649 51.692478 
L 247.388539 52.023983 
L 247.89632 47.824931 
L 248.15021 50.366456 
L 248.4041 51.58196 
L 248.65799 51.139961 
L 248.911881 49.924457 
L 249.165771 51.029467 
L 249.419661 50.587467 
L 249.673551 51.913466 
L 249.927442 49.040435 
L 250.181332 49.592951 
L 250.435222 51.692478 
L 250.689112 50.808455 
L 250.943003 51.471466 
L 251.196893 48.598435 
L 251.450783 47.824931 
L 251.704673 51.58196 
L 251.958564 50.697961 
L 252.212454 52.134477 
L 252.466344 48.819447 
L 252.720234 49.37194 
L 252.974125 50.697961 
L 253.228015 51.250455 
L 253.481905 51.471466 
L 253.735795 47.272414 
L 253.989686 49.37194 
L 254.243576 48.929941 
L 254.751356 51.58196 
L 255.259137 48.156436 
L 255.513027 49.924457 
L 255.766917 49.813939 
L 256.020808 49.261446 
L 256.274698 49.703445 
L 256.528588 50.697961 
L 256.782479 50.697961 
L 257.036369 48.045942 
L 257.544149 50.145445 
L 257.79804 48.708929 
L 258.05193 51.471466 
L 258.30582 49.592951 
L 258.55971 50.034951 
L 258.813601 50.145445 
L 259.067491 49.150952 
L 259.321381 50.255962 
L 259.575271 49.37194 
L 259.829162 51.360972 
L 260.336942 46.498909 
L 260.590832 50.808455 
L 260.844723 49.592951 
L 261.098613 52.465982 
L 261.352503 51.360972 
L 261.606393 51.360972 
L 261.860284 50.034951 
L 262.114174 51.139961 
L 262.368064 51.029467 
L 262.621954 50.145445 
L 262.875845 51.471466 
L 263.129735 49.261446 
L 263.383625 49.813939 
L 263.637515 52.576476 
L 263.891406 51.360972 
L 264.145296 47.272414 
L 264.399186 51.139961 
L 264.653076 48.819447 
L 264.906967 50.587467 
L 265.160857 50.255962 
L 265.414747 49.592951 
L 265.668637 49.813939 
L 265.922528 49.150952 
L 266.176418 51.360972 
L 266.430308 48.598435 
L 266.684198 49.040435 
L 266.938089 52.576476 
L 267.191979 48.708929 
L 267.445869 48.377447 
L 267.699759 51.029467 
L 267.95365 51.029467 
L 268.20754 48.819447 
L 268.46143 50.366456 
L 268.71532 51.029467 
L 268.969211 50.697961 
L 269.223101 49.924457 
L 269.476991 50.587467 
L 269.730881 52.244971 
L 269.984772 50.255962 
L 270.238662 50.808455 
L 270.746442 48.929941 
L 271.000333 51.139961 
L 271.254223 48.819447 
L 271.508113 49.261446 
L 271.762003 50.255962 
L 272.015894 50.255962 
L 272.269784 48.708929 
L 272.523674 50.034951 
L 272.777564 48.929941 
L 273.031455 50.808455 
L 273.285345 48.598435 
L 273.539235 53.460498 
L 273.793126 52.134477 
L 274.047016 49.261446 
L 274.300906 50.587467 
L 274.808687 50.255962 
L 275.062577 50.47695 
L 275.316467 49.592951 
L 275.570357 49.703445 
L 276.078138 51.360972 
L 276.332028 48.377447 
L 276.585918 51.360972 
L 276.839809 52.576476 
L 277.093699 50.587467 
L 277.347589 49.592951 
L 277.601479 49.813939 
L 277.85537 50.366456 
L 278.10926 49.482457 
L 278.36315 49.482457 
L 278.61704 48.929941 
L 278.870931 49.150952 
L 279.124821 51.58196 
L 279.632601 50.366456 
L 279.886492 49.924457 
L 280.140382 49.040435 
L 280.394272 49.592951 
L 280.902053 53.128993 
L 281.155943 51.360972 
L 281.409833 51.029467 
L 281.663723 49.924457 
L 282.171504 50.255962 
L 282.679284 48.929941 
L 282.933175 51.913466 
L 283.187065 49.261446 
L 283.440955 50.587467 
L 283.694845 49.703445 
L 283.948736 51.471466 
L 284.202626 49.924457 
L 284.456516 52.355488 
L 284.710406 51.360972 
L 284.964297 51.139961 
L 285.472077 48.377447 
L 285.725967 49.703445 
L 285.979858 51.692478 
L 286.233748 49.37194 
L 286.487638 51.471466 
L 286.741528 50.145445 
L 286.995419 51.029467 
L 287.249309 48.045942 
L 287.503199 49.150952 
L 287.757089 48.045942 
L 288.01098 50.47695 
L 288.26487 49.040435 
L 288.51876 49.261446 
L 289.280431 50.808455 
L 289.534321 49.482457 
L 289.788212 51.802972 
L 290.042102 50.808455 
L 290.295992 52.134477 
L 290.549882 49.040435 
L 290.803773 49.482457 
L 291.057663 50.587467 
L 291.311553 50.366456 
L 291.565443 49.261446 
L 291.819334 51.802972 
L 292.073224 49.592951 
L 292.581004 50.918973 
L 292.834895 50.034951 
L 293.088785 49.924457 
L 293.342675 51.139961 
L 293.596565 49.703445 
L 293.850456 49.482457 
L 294.104346 50.47695 
L 294.612126 49.261446 
L 294.866017 52.797488 
L 295.119907 50.587467 
L 295.373797 49.482457 
L 295.627687 49.040435 
L 295.881578 49.261446 
L 296.135468 50.145445 
L 296.643248 49.592951 
L 296.897139 49.482457 
L 297.151029 51.029467 
L 297.658809 49.261446 
L 298.16659 51.250455 
L 298.42048 51.029467 
L 298.67437 50.366456 
L 298.928261 51.139961 
L 299.436041 48.819447 
L 299.943822 52.797488 
L 300.197712 49.37194 
L 300.451602 48.819447 
L 300.705492 50.034951 
L 300.959383 52.907982 
L 301.213273 49.040435 
L 301.721053 49.37194 
L 301.974944 49.592951 
L 302.228834 50.47695 
L 302.482724 53.128993 
L 302.736614 50.587467 
L 302.990505 50.366456 
L 303.244395 51.029467 
L 303.752175 49.813939 
L 304.006066 50.587467 
L 304.259956 51.802972 
L 304.513846 51.250455 
L 304.767736 48.819447 
L 305.021627 49.261446 
L 305.275517 48.819447 
L 305.529407 48.929941 
L 305.783298 48.377447 
L 306.291078 50.47695 
L 306.544968 49.703445 
L 306.798859 47.824931 
L 307.052749 51.802972 
L 307.560529 48.819447 
L 307.81442 48.819447 
L 308.06831 49.37194 
L 308.3222 50.697961 
L 308.57609 50.697961 
L 308.829981 48.26693 
L 309.083871 50.808455 
L 309.337761 49.040435 
L 309.591651 50.918973 
L 309.845542 48.708929 
L 310.099432 48.929941 
L 310.099432 48.929941 
" clip-path="url(#p7f6f29bbae)" style="fill: none; stroke: #0000ff; stroke-width: 0.6; stroke-linecap: square"/>
   </g>
   <g id="line2d_24">
    <path d="M 56.463068 229.268158 
L 56.716958 229.525954 
L 56.970849 230.557091 
L 57.478629 207.871792 
L 57.732519 208.645156 
L 57.98641 229.268158 
L 58.2403 229.268158 
L 58.49419 224.885766 
L 58.74808 159.665507 
L 59.001971 188.537723 
L 59.255861 181.319669 
L 59.509751 119.192846 
L 59.763641 139.300279 
L 60.017532 128.215402 
L 60.271422 210.96525 
L 60.525312 94.703021 
L 60.779202 142.135941 
L 61.033093 108.107969 
L 61.286983 96.249751 
L 61.540873 229.268158 
L 61.794764 147.807266 
L 62.048654 139.558075 
L 62.302544 92.898496 
L 62.556434 173.070455 
L 62.810325 155.283116 
L 63.064215 161.985601 
L 63.318105 115.06825 
L 63.571995 121.770712 
L 63.825886 229.525954 
L 64.079776 100.374346 
L 64.333666 83.360372 
L 64.841447 108.623561 
L 65.095337 92.382928 
L 65.349227 96.249751 
L 65.603117 183.897536 
L 65.857008 199.622577 
L 66.110898 223.081264 
L 66.364788 85.680442 
L 66.618678 87.742763 
L 66.872569 102.69444 
L 67.126459 109.139129 
L 67.380349 222.565672 
L 67.634239 131.824429 
L 67.88813 92.382928 
L 68.14202 83.618144 
L 68.39591 101.663279 
L 68.6498 108.365765 
L 68.903691 89.805061 
L 69.157581 88.516128 
L 69.919252 121.770712 
L 70.427032 223.081264 
L 70.680922 227.20586 
L 70.934813 109.396925 
L 71.188703 109.912494 
L 71.442593 99.085413 
L 71.696483 80.266913 
L 71.950374 81.555847 
L 72.204264 92.125155 
L 72.712044 165.079036 
L 72.965935 167.39913 
L 73.473715 84.133736 
L 73.981496 169.976996 
L 74.235386 230.557091 
L 74.489276 102.69444 
L 74.743166 99.858778 
L 74.997057 216.120983 
L 75.250947 114.03709 
L 75.504837 92.898496 
L 75.758727 165.852401 
L 76.012618 88.000536 
L 76.266508 104.241169 
L 76.520398 85.422669 
L 76.774288 86.453807 
L 77.535959 107.334604 
L 77.78985 79.751345 
L 78.04374 86.711603 
L 78.29763 84.133736 
L 78.55152 84.649305 
L 78.805411 93.414088 
L 79.059301 85.164874 
L 79.313191 81.555847 
L 79.567081 76.142318 
L 79.820972 93.414088 
L 80.074862 127.44206 
L 80.328752 99.858778 
L 80.582642 90.578426 
L 80.836533 100.889915 
L 81.090423 80.524709 
L 81.344313 82.071438 
L 81.598203 82.587007 
L 81.852094 116.099387 
L 82.105984 89.547265 
L 82.359874 89.805061 
L 82.613764 86.711603 
L 82.867655 87.484967 
L 83.121545 135.175683 
L 83.629325 82.071438 
L 83.883216 116.872752 
L 84.390996 83.87594 
L 84.644886 90.578426 
L 84.898777 118.419481 
L 85.152667 88.258332 
L 85.406557 78.97798 
L 85.914338 93.929657 
L 86.168228 80.782482 
L 86.422118 91.867359 
L 86.676008 94.960817 
L 86.929899 82.071438 
L 87.183789 82.329211 
L 87.437679 83.360372 
L 87.691569 125.637535 
L 87.94546 89.547265 
L 88.19935 82.071438 
L 88.45324 94.187453 
L 88.70713 167.39913 
L 88.961021 93.156292 
L 89.214911 95.476386 
L 89.468801 81.040278 
L 89.722691 94.703021 
L 89.976582 99.858778 
L 90.230472 130.793291 
L 90.484362 89.289469 
L 90.738252 81.813642 
L 90.992143 89.805061 
L 91.246033 79.751345 
L 91.499923 100.11655 
L 91.753813 83.102576 
L 92.007704 98.569844 
L 92.261594 81.040278 
L 92.515484 86.196034 
L 92.769374 86.969399 
L 93.023265 90.578426 
L 93.277155 112.49036 
L 93.531045 83.360372 
L 93.784936 80.009117 
L 94.038826 92.382928 
L 94.292716 94.960817 
L 94.546606 85.164874 
L 94.800497 87.742763 
L 95.054387 88.258332 
L 95.308277 84.133736 
L 95.562167 85.938238 
L 95.816058 82.071438 
L 96.069948 84.649305 
L 96.323838 99.085413 
L 96.577728 81.813642 
L 96.831619 85.164874 
L 97.085509 83.360372 
L 97.339399 82.587007 
L 97.593289 79.751345 
L 97.84718 81.813642 
L 98.10107 81.040278 
L 98.35496 82.587007 
L 98.60885 105.014534 
L 98.862741 83.102576 
L 99.116631 83.618144 
L 99.370521 83.618144 
L 99.624411 85.164874 
L 99.878302 81.555847 
L 100.132192 84.133736 
L 100.386082 79.751345 
L 100.893863 91.35179 
L 101.147753 83.618144 
L 101.401643 86.453807 
L 101.655533 86.969399 
L 101.909424 91.609563 
L 102.163314 83.360372 
L 102.417204 91.093994 
L 102.671094 85.422669 
L 102.924985 82.329211 
L 103.178875 81.040278 
L 103.432765 90.062834 
L 103.686655 83.360372 
L 103.940546 82.84478 
L 104.194436 103.210009 
L 104.448326 80.009117 
L 104.956107 86.453807 
L 105.209997 81.813642 
L 105.463887 81.298074 
L 105.717777 82.587007 
L 105.971668 82.329211 
L 106.225558 84.133736 
L 106.733338 81.298074 
L 106.987229 89.805061 
L 107.241119 84.391509 
L 107.495009 85.680442 
L 107.748899 82.071438 
L 108.00279 115.841615 
L 108.25668 102.178871 
L 108.51057 80.524709 
L 108.76446 81.555847 
L 109.018351 80.524709 
L 109.272241 96.249751 
L 109.526131 81.555847 
L 109.780021 82.071438 
L 110.033912 81.298074 
L 110.287802 82.071438 
L 110.541692 81.555847 
L 110.795583 84.391509 
L 111.049473 84.907101 
L 111.303363 84.649305 
L 111.557253 81.555847 
L 111.811144 85.422669 
L 112.318924 81.813642 
L 112.572814 86.453807 
L 112.826705 85.164874 
L 113.080595 82.071438 
L 113.334485 80.524709 
L 113.588375 82.071438 
L 113.842266 92.125155 
L 114.096156 81.813642 
L 114.350046 83.102576 
L 114.603936 80.524709 
L 114.857827 83.360372 
L 115.111717 82.587007 
L 115.365607 82.84478 
L 115.619497 80.782482 
L 115.873388 85.164874 
L 116.635058 82.84478 
L 116.888949 82.587007 
L 117.142839 84.133736 
L 117.650619 82.329211 
L 117.90451 83.102576 
L 118.1584 81.813642 
L 118.41229 84.649305 
L 118.66618 83.360372 
L 118.920071 83.102576 
L 119.173961 81.555847 
L 119.427851 83.87594 
L 119.681741 83.87594 
L 119.935632 92.125155 
L 120.189522 80.782482 
L 120.443412 85.164874 
L 120.697302 83.102576 
L 120.951193 83.87594 
L 121.205083 82.329211 
L 121.458973 83.87594 
L 121.712863 83.360372 
L 121.966754 79.751345 
L 122.220644 82.84478 
L 122.474534 83.360372 
L 122.728424 82.071438 
L 122.982315 82.071438 
L 123.236205 83.102576 
L 123.490095 83.360372 
L 123.743985 82.071438 
L 123.997876 86.453807 
L 124.251766 83.618144 
L 124.505656 82.329211 
L 124.759546 83.87594 
L 125.013437 83.87594 
L 125.267327 82.84478 
L 125.521217 86.711603 
L 125.775107 82.587007 
L 126.282888 85.680442 
L 126.536778 82.329211 
L 126.790669 81.555847 
L 127.044559 80.266913 
L 127.298449 87.484967 
L 127.552339 80.524709 
L 127.80623 79.235753 
L 128.06012 82.587007 
L 128.31401 82.071438 
L 128.5679 82.84478 
L 128.821791 82.329211 
L 129.075681 82.329211 
L 129.329571 83.618144 
L 129.583461 83.360372 
L 129.837352 81.040278 
L 130.091242 82.329211 
L 130.345132 82.84478 
L 130.599022 81.555847 
L 130.852913 83.360372 
L 131.106803 82.587007 
L 131.360693 82.84478 
L 131.614583 80.266913 
L 131.868474 81.555847 
L 132.122364 84.133736 
L 132.376254 82.071438 
L 132.630144 83.360372 
L 133.391815 81.813642 
L 133.645705 83.102576 
L 133.899596 81.555847 
L 134.407376 84.391509 
L 134.915157 82.587007 
L 135.169047 82.587007 
L 135.422937 86.196034 
L 135.676827 81.555847 
L 135.930718 82.587007 
L 136.184608 82.84478 
L 136.438498 83.618144 
L 136.692388 82.329211 
L 136.946279 81.813642 
L 137.200169 82.071438 
L 137.454059 82.587007 
L 137.707949 88.773901 
L 137.96184 83.360372 
L 138.21573 82.329211 
L 138.46962 82.84478 
L 138.977401 81.813642 
L 139.231291 83.102576 
L 139.485181 82.587007 
L 139.739071 82.587007 
L 139.992962 81.298074 
L 140.246852 84.133736 
L 140.500742 82.071438 
L 140.754632 81.555847 
L 141.008523 83.102576 
L 141.262413 83.360372 
L 141.516303 85.680442 
L 142.024084 82.587007 
L 142.277974 81.813642 
L 142.531864 83.618144 
L 142.785755 83.618144 
L 143.039645 81.555847 
L 143.293535 82.84478 
L 143.547425 82.587007 
L 143.801316 82.84478 
L 144.055206 81.555847 
L 144.309096 83.360372 
L 144.816877 82.329211 
L 145.324657 83.87594 
L 145.832438 83.360372 
L 146.086328 82.329211 
L 146.340218 81.813642 
L 146.594108 81.555847 
L 147.101889 83.360372 
L 147.355779 82.071438 
L 147.609669 84.133736 
L 147.86356 82.587007 
L 148.11745 83.87594 
L 148.37134 82.329211 
L 148.879121 83.360372 
L 149.133011 82.84478 
L 149.386901 82.84478 
L 149.640791 82.587007 
L 149.894682 83.360372 
L 150.402462 82.071438 
L 150.656352 82.587007 
L 150.910243 82.329211 
L 151.164133 82.329211 
L 151.418023 81.298074 
L 151.671913 83.102576 
L 151.925804 82.84478 
L 152.179694 82.329211 
L 152.433584 84.133736 
L 152.687474 83.102576 
L 152.941365 84.649305 
L 153.195255 82.587007 
L 153.449145 84.391509 
L 153.703035 83.618144 
L 153.956926 83.360372 
L 154.210816 82.84478 
L 154.464706 83.87594 
L 154.718596 83.360372 
L 154.972487 83.360372 
L 155.226377 83.618144 
L 155.480267 82.84478 
L 155.734157 83.87594 
L 155.988048 83.360372 
L 156.241938 82.587007 
L 156.495828 83.360372 
L 156.749718 82.587007 
L 157.003609 82.329211 
L 157.257499 83.102576 
L 157.511389 82.329211 
L 157.765279 82.071438 
L 158.01917 85.164874 
L 158.27306 82.84478 
L 158.78084 82.329211 
L 159.034731 83.618144 
L 159.288621 82.84478 
L 159.796402 83.87594 
L 160.050292 83.102576 
L 160.304182 84.133736 
L 160.558072 83.618144 
L 160.811963 82.329211 
L 161.065853 83.102576 
L 161.319743 82.587007 
L 161.573633 82.84478 
L 161.827524 83.360372 
L 162.081414 82.84478 
L 162.589194 82.84478 
L 162.843085 83.618144 
L 163.096975 83.87594 
L 163.350865 83.618144 
L 163.604755 82.587007 
L 163.858646 82.84478 
L 164.112536 82.587007 
L 164.366426 85.164874 
L 164.620316 83.360372 
L 164.874207 84.391509 
L 165.128097 83.102576 
L 165.635877 82.071438 
L 165.889768 83.87594 
L 166.143658 83.618144 
L 166.397548 83.102576 
L 166.651438 82.84478 
L 166.905329 82.329211 
L 167.159219 83.102576 
L 167.666999 82.071438 
L 167.92089 82.587007 
L 168.17478 81.555847 
L 168.42867 83.102576 
L 168.68256 82.587007 
L 168.936451 83.102576 
L 169.190341 83.102576 
L 169.444231 82.329211 
L 169.698121 81.040278 
L 169.952012 83.87594 
L 170.205902 83.360372 
L 170.459792 82.329211 
L 170.713682 82.071438 
L 171.475353 82.84478 
L 171.983134 81.555847 
L 172.237024 82.587007 
L 172.490914 81.813642 
L 172.744804 82.329211 
L 172.998695 82.587007 
L 173.506475 82.071438 
L 173.760365 82.329211 
L 174.014256 82.329211 
L 174.268146 82.071438 
L 174.522036 83.102576 
L 174.775926 83.360372 
L 175.029817 83.102576 
L 175.283707 83.102576 
L 175.537597 83.360372 
L 175.791488 83.360372 
L 176.045378 83.102576 
L 176.299268 82.587007 
L 176.553158 82.587007 
L 176.807049 82.84478 
L 177.060939 82.071438 
L 177.314829 82.329211 
L 177.568719 83.102576 
L 177.82261 82.587007 
L 178.0765 83.618144 
L 178.33039 82.587007 
L 178.58428 82.587007 
L 178.838171 83.87594 
L 179.092061 84.391509 
L 179.345951 82.329211 
L 179.599841 83.102576 
L 179.853732 82.84478 
L 180.107622 83.102576 
L 180.361512 82.84478 
L 180.615402 82.84478 
L 181.123183 81.813642 
L 181.630963 82.329211 
L 181.884854 82.84478 
L 182.138744 82.329211 
L 182.392634 82.84478 
L 182.646524 82.84478 
L 182.900415 82.587007 
L 183.154305 83.102576 
L 183.408195 82.071438 
L 183.662085 82.84478 
L 183.915976 82.071438 
L 184.169866 82.84478 
L 184.677646 82.329211 
L 184.931537 81.813642 
L 185.185427 83.102576 
L 185.439317 83.102576 
L 185.693207 81.813642 
L 185.947098 83.102576 
L 186.200988 82.84478 
L 186.454878 82.84478 
L 186.708768 82.587007 
L 186.962659 82.587007 
L 187.216549 81.813642 
L 187.470439 83.360372 
L 187.724329 83.102576 
L 188.23211 83.102576 
L 188.486 83.618144 
L 188.73989 83.102576 
L 188.993781 82.84478 
L 189.247671 83.102576 
L 189.501561 83.618144 
L 189.755451 82.587007 
L 190.009342 82.84478 
L 190.263232 82.587007 
L 190.517122 83.87594 
L 190.771012 83.360372 
L 191.024903 82.329211 
L 191.278793 82.587007 
L 191.532683 82.329211 
L 191.786574 83.102576 
L 192.040464 81.813642 
L 192.294354 81.555847 
L 192.548244 82.587007 
L 192.802135 82.071438 
L 193.056025 82.587007 
L 193.563805 83.102576 
L 193.817696 82.587007 
L 194.071586 82.587007 
L 194.325476 82.84478 
L 194.579366 82.84478 
L 194.833257 82.071438 
L 195.594927 82.84478 
L 195.848818 82.84478 
L 196.102708 83.102576 
L 196.356598 82.329211 
L 196.610488 82.84478 
L 196.864379 83.102576 
L 197.118269 82.587007 
L 197.626049 82.587007 
L 198.13383 83.102576 
L 198.38772 83.102576 
L 198.895501 82.587007 
L 199.149391 81.813642 
L 199.657171 83.618144 
L 199.911062 83.618144 
L 200.164952 83.87594 
L 200.418842 82.587007 
L 200.672732 83.87594 
L 200.926623 82.84478 
L 201.180513 83.618144 
L 201.434403 83.618144 
L 201.688293 82.84478 
L 201.942184 82.587007 
L 202.196074 83.102576 
L 202.449964 83.102576 
L 202.703854 82.84478 
L 203.211635 83.360372 
L 203.465525 82.587007 
L 203.719415 82.84478 
L 203.973306 83.360372 
L 204.227196 82.84478 
L 204.481086 83.360372 
L 204.734976 83.618144 
L 204.988867 82.587007 
L 205.242757 82.587007 
L 205.496647 83.102576 
L 205.750537 82.329211 
L 206.004428 82.84478 
L 206.258318 82.587007 
L 206.512208 82.071438 
L 207.019989 82.071438 
L 207.273879 81.813642 
L 207.527769 82.84478 
L 207.78166 83.360372 
L 208.03555 82.329211 
L 208.28944 81.813642 
L 208.54333 83.102576 
L 208.797221 82.84478 
L 209.051111 82.329211 
L 209.305001 82.329211 
L 209.558891 83.360372 
L 209.812782 82.329211 
L 210.066672 83.87594 
L 210.320562 82.84478 
L 210.574452 83.618144 
L 210.828343 83.102576 
L 211.082233 82.84478 
L 211.336123 82.84478 
L 211.590013 82.587007 
L 211.843904 82.587007 
L 212.097794 82.84478 
L 212.605574 82.84478 
L 212.859465 83.102576 
L 213.113355 82.84478 
L 213.367245 83.102576 
L 213.621135 82.84478 
L 214.128916 83.360372 
L 214.636696 83.360372 
L 214.890587 82.84478 
L 215.144477 82.071438 
L 215.652257 83.102576 
L 215.906148 83.360372 
L 216.160038 82.84478 
L 216.413928 82.84478 
L 216.667818 82.587007 
L 217.683379 82.587007 
L 218.19116 83.102576 
L 218.69894 83.102576 
L 218.952831 82.84478 
L 219.206721 83.102576 
L 219.460611 82.84478 
L 219.714501 83.618144 
L 219.968392 83.618144 
L 220.476172 83.102576 
L 220.983953 83.102576 
L 221.237843 83.360372 
L 221.745623 83.360372 
L 221.999514 82.587007 
L 222.507294 83.102576 
L 222.761184 83.102576 
L 223.015075 83.360372 
L 223.268965 82.587007 
L 223.522855 82.84478 
L 223.776745 82.071438 
L 224.284526 83.87594 
L 224.538416 82.329211 
L 224.792307 83.360372 
L 225.046197 82.587007 
L 225.300087 82.84478 
L 225.807868 82.329211 
L 226.061758 82.84478 
L 226.315648 83.102576 
L 226.569538 82.84478 
L 227.077319 82.84478 
L 227.331209 82.587007 
L 227.585099 82.587007 
L 227.83899 82.84478 
L 228.09288 82.329211 
L 228.34677 83.102576 
L 228.60066 83.360372 
L 228.854551 83.102576 
L 229.108441 83.618144 
L 229.616221 83.102576 
L 229.870112 83.102576 
L 230.124002 82.84478 
L 231.139563 82.84478 
L 231.393453 82.587007 
L 231.647343 82.587007 
L 231.901234 82.84478 
L 232.409014 82.84478 
L 232.662904 82.587007 
L 232.916795 82.84478 
L 233.170685 82.84478 
L 233.424575 82.587007 
L 233.678465 83.102576 
L 233.932356 83.102576 
L 234.186246 82.587007 
L 234.440136 82.84478 
L 235.455697 82.84478 
L 235.709587 82.587007 
L 235.963478 83.102576 
L 236.217368 83.360372 
L 236.471258 83.102576 
L 236.725148 83.102576 
L 236.979039 83.360372 
L 237.232929 83.360372 
L 237.486819 83.102576 
L 237.740709 83.360372 
L 238.75627 83.360372 
L 239.010161 82.84478 
L 239.264051 82.84478 
L 239.517941 83.102576 
L 239.771831 82.587007 
L 240.025722 82.329211 
L 240.279612 83.360372 
L 240.533502 83.102576 
L 240.787393 82.587007 
L 241.041283 82.587007 
L 241.295173 82.84478 
L 242.056844 82.071438 
L 242.310734 82.329211 
L 242.564624 83.87594 
L 242.818515 82.329211 
L 243.072405 82.587007 
L 243.326295 83.102576 
L 243.580185 83.87594 
L 244.087966 82.329211 
L 244.341856 82.071438 
L 244.595746 82.84478 
L 244.849637 81.813642 
L 245.103527 82.587007 
L 245.357417 82.071438 
L 246.372978 82.071438 
L 246.626868 82.329211 
L 247.388539 82.329211 
L 247.642429 82.071438 
L 247.89632 82.84478 
L 248.15021 82.587007 
L 248.4041 83.102576 
L 248.65799 82.84478 
L 248.911881 83.102576 
L 249.165771 82.84478 
L 249.419661 82.071438 
L 249.927442 82.587007 
L 250.181332 83.360372 
L 250.689112 82.329211 
L 251.196893 82.329211 
L 251.450783 82.071438 
L 251.704673 82.071438 
L 251.958564 82.329211 
L 252.212454 82.071438 
L 252.720234 82.587007 
L 252.974125 82.071438 
L 253.228015 82.329211 
L 253.481905 82.071438 
L 253.735795 82.071438 
L 253.989686 82.587007 
L 254.243576 82.071438 
L 254.497466 82.329211 
L 254.751356 82.071438 
L 255.259137 82.071438 
L 255.513027 81.813642 
L 255.766917 82.071438 
L 256.020808 82.071438 
L 256.274698 82.329211 
L 256.528588 82.071438 
L 257.036369 82.071438 
L 257.544149 82.587007 
L 257.79804 82.587007 
L 258.05193 82.329211 
L 258.30582 82.84478 
L 258.55971 83.102576 
L 258.813601 82.84478 
L 259.067491 82.329211 
L 259.321381 82.587007 
L 259.829162 82.071438 
L 260.336942 82.587007 
L 260.590832 82.587007 
L 260.844723 82.84478 
L 261.352503 82.329211 
L 261.606393 82.329211 
L 261.860284 83.102576 
L 262.114174 82.587007 
L 262.621954 82.071438 
L 262.875845 82.329211 
L 263.129735 82.329211 
L 263.383625 82.071438 
L 263.637515 82.84478 
L 264.145296 82.84478 
L 264.399186 82.587007 
L 264.653076 82.84478 
L 264.906967 82.587007 
L 265.160857 82.587007 
L 265.414747 82.84478 
L 265.922528 82.329211 
L 266.430308 82.329211 
L 266.684198 82.071438 
L 266.938089 82.84478 
L 267.191979 82.84478 
L 267.445869 82.587007 
L 267.699759 82.84478 
L 267.95365 82.329211 
L 268.46143 82.84478 
L 269.223101 82.84478 
L 269.476991 82.587007 
L 269.730881 82.84478 
L 269.984772 82.587007 
L 270.746442 82.587007 
L 271.000333 82.071438 
L 271.508113 82.071438 
L 271.762003 82.329211 
L 272.015894 82.071438 
L 272.269784 82.329211 
L 272.523674 82.071438 
L 272.777564 82.329211 
L 273.031455 82.071438 
L 273.285345 82.071438 
L 273.539235 82.329211 
L 273.793126 83.618144 
L 274.047016 82.587007 
L 274.300906 83.618144 
L 274.554796 83.360372 
L 274.808687 82.587007 
L 275.062577 82.84478 
L 275.316467 82.329211 
L 275.570357 82.329211 
L 275.824248 82.071438 
L 276.078138 82.071438 
L 276.332028 82.587007 
L 276.585918 83.360372 
L 276.839809 83.618144 
L 277.093699 82.84478 
L 277.347589 83.102576 
L 277.601479 82.84478 
L 278.10926 83.360372 
L 278.36315 82.84478 
L 278.61704 82.84478 
L 278.870931 83.360372 
L 279.124821 82.587007 
L 279.632601 82.587007 
L 279.886492 82.329211 
L 280.140382 82.329211 
L 280.394272 82.071438 
L 280.648162 82.071438 
L 280.902053 82.329211 
L 281.155943 83.102576 
L 281.409833 82.071438 
L 281.663723 82.587007 
L 281.917614 82.071438 
L 282.171504 82.587007 
L 282.425394 82.329211 
L 282.933175 82.84478 
L 283.187065 82.84478 
L 283.440955 82.587007 
L 283.948736 83.102576 
L 284.202626 82.84478 
L 284.710406 82.84478 
L 284.964297 82.329211 
L 285.218187 82.329211 
L 285.472077 82.84478 
L 285.725967 82.587007 
L 285.979858 83.102576 
L 286.233748 82.84478 
L 286.487638 82.84478 
L 286.741528 82.587007 
L 286.995419 82.84478 
L 287.249309 82.587007 
L 287.503199 82.84478 
L 287.757089 82.587007 
L 288.01098 82.84478 
L 288.26487 82.587007 
L 288.77265 83.102576 
L 289.280431 82.587007 
L 289.534321 82.84478 
L 290.042102 82.84478 
L 290.295992 82.071438 
L 290.803773 82.587007 
L 291.057663 83.102576 
L 291.311553 82.587007 
L 291.565443 82.587007 
L 291.819334 82.84478 
L 292.073224 82.587007 
L 292.327114 82.84478 
L 292.581004 82.587007 
L 292.834895 82.587007 
L 293.088785 82.84478 
L 293.342675 82.329211 
L 293.596565 83.102576 
L 293.850456 82.329211 
L 294.358236 82.329211 
L 294.612126 83.102576 
L 295.119907 82.071438 
L 295.627687 82.071438 
L 295.881578 82.329211 
L 296.643248 82.329211 
L 296.897139 82.071438 
L 297.151029 82.329211 
L 297.658809 82.329211 
L 297.9127 82.587007 
L 298.16659 82.587007 
L 298.42048 83.102576 
L 298.67437 82.587007 
L 298.928261 82.84478 
L 299.182151 82.84478 
L 299.436041 82.329211 
L 300.197712 82.329211 
L 300.451602 82.587007 
L 300.705492 82.329211 
L 300.959383 82.587007 
L 301.213273 82.587007 
L 301.467163 82.329211 
L 301.721053 82.329211 
L 302.228834 82.84478 
L 302.482724 82.587007 
L 303.244395 82.587007 
L 303.498285 82.071438 
L 303.752175 82.84478 
L 304.006066 82.84478 
L 304.259956 83.102576 
L 304.513846 82.84478 
L 304.767736 83.102576 
L 305.021627 82.84478 
L 305.275517 82.84478 
L 305.529407 83.102576 
L 305.783298 82.84478 
L 306.037188 82.84478 
L 306.291078 83.102576 
L 306.544968 82.84478 
L 306.798859 82.84478 
L 307.052749 82.587007 
L 307.306639 83.102576 
L 307.560529 82.84478 
L 307.81442 83.102576 
L 308.3222 82.587007 
L 308.57609 82.587007 
L 308.829981 82.071438 
L 309.083871 82.84478 
L 309.337761 82.587007 
L 309.591651 82.587007 
L 310.099432 82.071438 
L 310.099432 82.071438 
" clip-path="url(#p7f6f29bbae)" style="fill: none; stroke: #ff0000; stroke-width: 0.6; stroke-linecap: square"/>
   </g>
   <g id="patch_3">
    <path d="M 43.78125 239.76 
L 43.78125 37.296 
" style="fill: none; stroke: #000000; stroke-width: 0.8; stroke-linejoin: miter; stroke-linecap: square"/>
   </g>
   <g id="patch_4">
    <path d="M 322.78125 239.76 
L 322.78125 37.296 
" style="fill: none; stroke: #000000; stroke-width: 0.8; stroke-linejoin: miter; stroke-linecap: square"/>
   </g>
   <g id="patch_5">
    <path d="M 43.78125 239.76 
L 322.78125 239.76 
" style="fill: none; stroke: #000000; stroke-width: 0.8; stroke-linejoin: miter; stroke-linecap: square"/>
   </g>
   <g id="patch_6">
    <path d="M 43.78125 37.296 
L 322.78125 37.296 
" style="fill: none; stroke: #000000; stroke-width: 0.8; stroke-linejoin: miter; stroke-linecap: square"/>
   </g>
   <g id="text_14">
    <!-- Quantized-16 Model -->
    <g transform="translate(137.983828 31.296) scale(0.09 -0.09)">
     <defs>
      <path id="DejaVuSans-51" d="M 2522 4238 
Q 1834 4238 1429 3725 
Q 1025 3213 1025 2328 
Q 1025 1447 1429 934 
Q 1834 422 2522 422 
Q 3209 422 3611 934 
Q 4013 1447 4013 2328 
Q 4013 3213 3611 3725 
Q 3209 4238 2522 4238 
z
M 3406 84 
L 4238 -825 
L 3475 -825 
L 2784 -78 
Q 2681 -84 2626 -87 
Q 2572 -91 2522 -91 
Q 1538 -91 948 567 
Q 359 1225 359 2328 
Q 359 3434 948 4092 
Q 1538 4750 2522 4750 
Q 3503 4750 4090 4092 
Q 4678 3434 4678 2328 
Q 4678 1516 4351 937 
Q 4025 359 3406 84 
z
" transform="scale(0.015625)"/>
      <path id="DejaVuSans-6e" d="M 3513 2113 
L 3513 0 
L 2938 0 
L 2938 2094 
Q 2938 2591 2744 2837 
Q 2550 3084 2163 3084 
Q 1697 3084 1428 2787 
Q 1159 2491 1159 1978 
L 1159 0 
L 581 0 
L 581 3500 
L 1159 3500 
L 1159 2956 
Q 1366 3272 1645 3428 
Q 1925 3584 2291 3584 
Q 2894 3584 3203 3211 
Q 3513 2838 3513 2113 
z
" transform="scale(0.015625)"/>
      <path id="DejaVuSans-74" d="M 1172 4494 
L 1172 3500 
L 2356 3500 
L 2356 3053 
L 1172 3053 
L 1172 1153 
Q 1172 725 1289 603 
Q 1406 481 1766 481 
L 2356 481 
L 2356 0 
L 1766 0 
Q 1100 0 847 248 
Q 594 497 594 1153 
L 594 3053 
L 172 3053 
L 172 3500 
L 594 3500 
L 594 4494 
L 1172 4494 
z
" transform="scale(0.015625)"/>
      <path id="DejaVuSans-69" d="M 603 3500 
L 1178 3500 
L 1178 0 
L 603 0 
L 603 3500 
z
M 603 4863 
L 1178 4863 
L 1178 4134 
L 603 4134 
L 603 4863 
z
" transform="scale(0.015625)"/>
      <path id="DejaVuSans-7a" d="M 353 3500 
L 3084 3500 
L 3084 2975 
L 922 459 
L 3084 459 
L 3084 0 
L 275 0 
L 275 525 
L 2438 3041 
L 353 3041 
L 353 3500 
z
" transform="scale(0.015625)"/>
      <path id="DejaVuSans-65" d="M 3597 1894 
L 3597 1613 
L 953 1613 
Q 991 1019 1311 708 
Q 1631 397 2203 397 
Q 2534 397 2845 478 
Q 3156 559 3463 722 
L 3463 178 
Q 3153 47 2828 -22 
Q 2503 -91 2169 -91 
Q 1331 -91 842 396 
Q 353 884 353 1716 
Q 353 2575 817 3079 
Q 1281 3584 2069 3584 
Q 2775 3584 3186 3129 
Q 3597 2675 3597 1894 
z
M 3022 2063 
Q 3016 2534 2758 2815 
Q 2500 3097 2075 3097 
Q 1594 3097 1305 2825 
Q 1016 2553 972 2059 
L 3022 2063 
z
" transform="scale(0.015625)"/>
      <path id="DejaVuSans-64" d="M 2906 2969 
L 2906 4863 
L 3481 4863 
L 3481 0 
L 2906 0 
L 2906 525 
Q 2725 213 2448 61 
Q 2172 -91 1784 -91 
Q 1150 -91 751 415 
Q 353 922 353 1747 
Q 353 2572 751 3078 
Q 1150 3584 1784 3584 
Q 2172 3584 2448 3432 
Q 2725 3281 2906 2969 
z
M 947 1747 
Q 947 1113 1208 752 
Q 1469 391 1925 391 
Q 2381 391 2643 752 
Q 2906 1113 2906 1747 
Q 2906 2381 2643 2742 
Q 2381 3103 1925 3103 
Q 1469 3103 1208 2742 
Q 947 2381 947 1747 
z
" transform="scale(0.015625)"/>
      <path id="DejaVuSans-2d" d="M 313 2009 
L 1997 2009 
L 1997 1497 
L 313 1497 
L 313 2009 
z
" transform="scale(0.015625)"/>
      <path id="DejaVuSans-20" transform="scale(0.015625)"/>
      <path id="DejaVuSans-4d" d="M 628 4666 
L 1569 4666 
L 2759 1491 
L 3956 4666 
L 4897 4666 
L 4897 0 
L 4281 0 
L 4281 4097 
L 3078 897 
L 2444 897 
L 1241 4097 
L 1241 0 
L 628 0 
L 628 4666 
z
" transform="scale(0.015625)"/>
      <path id="DejaVuSans-6c" d="M 603 4863 
L 1178 4863 
L 1178 0 
L 603 0 
L 603 4863 
z
" transform="scale(0.015625)"/>
     </defs>
     <use xlink:href="#DejaVuSans-51"/>
     <use xlink:href="#DejaVuSans-75" x="78.710938"/>
     <use xlink:href="#DejaVuSans-61" x="142.089844"/>
     <use xlink:href="#DejaVuSans-6e" x="203.369141"/>
     <use xlink:href="#DejaVuSans-74" x="266.748047"/>
     <use xlink:href="#DejaVuSans-69" x="305.957031"/>
     <use xlink:href="#DejaVuSans-7a" x="333.740234"/>
     <use xlink:href="#DejaVuSans-65" x="386.230469"/>
     <use xlink:href="#DejaVuSans-64" x="447.753906"/>
     <use xlink:href="#DejaVuSans-2d" x="511.230469"/>
     <use xlink:href="#DejaVuSans-31" x="547.314453"/>
     <use xlink:href="#DejaVuSans-36" x="610.9375"/>
     <use xlink:href="#DejaVuSans-20" x="674.560547"/>
     <use xlink:href="#DejaVuSans-4d" x="706.347656"/>
     <use xlink:href="#DejaVuSans-6f" x="792.626953"/>
     <use xlink:href="#DejaVuSans-64" x="853.808594"/>
     <use xlink:href="#DejaVuSans-65" x="917.285156"/>
     <use xlink:href="#DejaVuSans-6c" x="978.808594"/>
    </g>
   </g>
   <g id="legend_1">
    <g id="patch_7">
     <path d="M 185.565625 234.76 
L 315.78125 234.76 
Q 317.78125 234.76 317.78125 232.76 
L 317.78125 204.40375 
Q 317.78125 202.40375 315.78125 202.40375 
L 185.565625 202.40375 
Q 183.565625 202.40375 183.565625 204.40375 
L 183.565625 232.76 
Q 183.565625 234.76 185.565625 234.76 
z
" style="fill: #ffffff; opacity: 0.8; stroke: #cccccc; stroke-linejoin: miter"/>
    </g>
    <g id="line2d_25">
     <path d="M 187.565625 210.502187 
L 197.565625 210.502187 
L 207.565625 210.502187 
" style="fill: none; stroke: #0000ff; stroke-width: 0.6; stroke-linecap: square"/>
    </g>
    <g id="text_15">
     <!-- Training Accuracy -->
     <g transform="translate(215.565625 214.002187) scale(0.1 -0.1)">
      <defs>
       <path id="DejaVuSans-54" d="M -19 4666 
L 3928 4666 
L 3928 4134 
L 2272 4134 
L 2272 0 
L 1638 0 
L 1638 4134 
L -19 4134 
L -19 4666 
z
" transform="scale(0.015625)"/>
       <path id="DejaVuSans-67" d="M 2906 1791 
Q 2906 2416 2648 2759 
Q 2391 3103 1925 3103 
Q 1463 3103 1205 2759 
Q 947 2416 947 1791 
Q 947 1169 1205 825 
Q 1463 481 1925 481 
Q 2391 481 2648 825 
Q 2906 1169 2906 1791 
z
M 3481 434 
Q 3481 -459 3084 -895 
Q 2688 -1331 1869 -1331 
Q 1566 -1331 1297 -1286 
Q 1028 -1241 775 -1147 
L 775 -588 
Q 1028 -725 1275 -790 
Q 1522 -856 1778 -856 
Q 2344 -856 2625 -561 
Q 2906 -266 2906 331 
L 2906 616 
Q 2728 306 2450 153 
Q 2172 0 1784 0 
Q 1141 0 747 490 
Q 353 981 353 1791 
Q 353 2603 747 3093 
Q 1141 3584 1784 3584 
Q 2172 3584 2450 3431 
Q 2728 3278 2906 2969 
L 2906 3500 
L 3481 3500 
L 3481 434 
z
" transform="scale(0.015625)"/>
      </defs>
      <use xlink:href="#DejaVuSans-54"/>
      <use xlink:href="#DejaVuSans-72" x="46.333984"/>
      <use xlink:href="#DejaVuSans-61" x="87.447266"/>
      <use xlink:href="#DejaVuSans-69" x="148.726562"/>
      <use xlink:href="#DejaVuSans-6e" x="176.509766"/>
      <use xlink:href="#DejaVuSans-69" x="239.888672"/>
      <use xlink:href="#DejaVuSans-6e" x="267.671875"/>
      <use xlink:href="#DejaVuSans-67" x="331.050781"/>
      <use xlink:href="#DejaVuSans-20" x="394.527344"/>
      <use xlink:href="#DejaVuSans-41" x="426.314453"/>
      <use xlink:href="#DejaVuSans-63" x="492.972656"/>
      <use xlink:href="#DejaVuSans-63" x="547.953125"/>
      <use xlink:href="#DejaVuSans-75" x="602.933594"/>
      <use xlink:href="#DejaVuSans-72" x="666.3125"/>
      <use xlink:href="#DejaVuSans-61" x="707.425781"/>
      <use xlink:href="#DejaVuSans-63" x="768.705078"/>
      <use xlink:href="#DejaVuSans-79" x="823.685547"/>
     </g>
    </g>
    <g id="line2d_26">
     <path d="M 187.565625 225.180312 
L 197.565625 225.180312 
L 207.565625 225.180312 
" style="fill: none; stroke: #ff0000; stroke-width: 0.6; stroke-linecap: square"/>
    </g>
    <g id="text_16">
     <!-- Validation Accuracy -->
     <g transform="translate(215.565625 228.680312) scale(0.1 -0.1)">
      <defs>
       <path id="DejaVuSans-56" d="M 1831 0 
L 50 4666 
L 709 4666 
L 2188 738 
L 3669 4666 
L 4325 4666 
L 2547 0 
L 1831 0 
z
" transform="scale(0.015625)"/>
      </defs>
      <use xlink:href="#DejaVuSans-56"/>
      <use xlink:href="#DejaVuSans-61" x="60.658203"/>
      <use xlink:href="#DejaVuSans-6c" x="121.9375"/>
      <use xlink:href="#DejaVuSans-69" x="149.720703"/>
      <use xlink:href="#DejaVuSans-64" x="177.503906"/>
      <use xlink:href="#DejaVuSans-61" x="240.980469"/>
      <use xlink:href="#DejaVuSans-74" x="302.259766"/>
      <use xlink:href="#DejaVuSans-69" x="341.46875"/>
      <use xlink:href="#DejaVuSans-6f" x="369.251953"/>
      <use xlink:href="#DejaVuSans-6e" x="430.433594"/>
      <use xlink:href="#DejaVuSans-20" x="493.8125"/>
      <use xlink:href="#DejaVuSans-41" x="525.599609"/>
      <use xlink:href="#DejaVuSans-63" x="592.257812"/>
      <use xlink:href="#DejaVuSans-63" x="647.238281"/>
      <use xlink:href="#DejaVuSans-75" x="702.21875"/>
      <use xlink:href="#DejaVuSans-72" x="765.597656"/>
      <use xlink:href="#DejaVuSans-61" x="806.710938"/>
      <use xlink:href="#DejaVuSans-63" x="867.990234"/>
      <use xlink:href="#DejaVuSans-79" x="922.970703"/>
     </g>
    </g>
   </g>
  </g>
  <g id="text_17">
   <!-- Training VS. Validation Accuracy - Dataset Size = 100.0% -->
   <g transform="translate(21.433984 15.558281) scale(0.11 -0.11)">
    <defs>
     <path id="DejaVuSans-53" d="M 3425 4513 
L 3425 3897 
Q 3066 4069 2747 4153 
Q 2428 4238 2131 4238 
Q 1616 4238 1336 4038 
Q 1056 3838 1056 3469 
Q 1056 3159 1242 3001 
Q 1428 2844 1947 2747 
L 2328 2669 
Q 3034 2534 3370 2195 
Q 3706 1856 3706 1288 
Q 3706 609 3251 259 
Q 2797 -91 1919 -91 
Q 1588 -91 1214 -16 
Q 841 59 441 206 
L 441 856 
Q 825 641 1194 531 
Q 1563 422 1919 422 
Q 2459 422 2753 634 
Q 3047 847 3047 1241 
Q 3047 1584 2836 1778 
Q 2625 1972 2144 2069 
L 1759 2144 
Q 1053 2284 737 2584 
Q 422 2884 422 3419 
Q 422 4038 858 4394 
Q 1294 4750 2059 4750 
Q 2388 4750 2728 4690 
Q 3069 4631 3425 4513 
z
" transform="scale(0.015625)"/>
     <path id="DejaVuSans-44" d="M 1259 4147 
L 1259 519 
L 2022 519 
Q 2988 519 3436 956 
Q 3884 1394 3884 2338 
Q 3884 3275 3436 3711 
Q 2988 4147 2022 4147 
L 1259 4147 
z
M 628 4666 
L 1925 4666 
Q 3281 4666 3915 4102 
Q 4550 3538 4550 2338 
Q 4550 1131 3912 565 
Q 3275 0 1925 0 
L 628 0 
L 628 4666 
z
" transform="scale(0.015625)"/>
     <path id="DejaVuSans-3d" d="M 678 2906 
L 4684 2906 
L 4684 2381 
L 678 2381 
L 678 2906 
z
M 678 1631 
L 4684 1631 
L 4684 1100 
L 678 1100 
L 678 1631 
z
" transform="scale(0.015625)"/>
     <path id="DejaVuSans-25" d="M 4653 2053 
Q 4381 2053 4226 1822 
Q 4072 1591 4072 1178 
Q 4072 772 4226 539 
Q 4381 306 4653 306 
Q 4919 306 5073 539 
Q 5228 772 5228 1178 
Q 5228 1588 5073 1820 
Q 4919 2053 4653 2053 
z
M 4653 2450 
Q 5147 2450 5437 2106 
Q 5728 1763 5728 1178 
Q 5728 594 5436 251 
Q 5144 -91 4653 -91 
Q 4153 -91 3862 251 
Q 3572 594 3572 1178 
Q 3572 1766 3864 2108 
Q 4156 2450 4653 2450 
z
M 1428 4353 
Q 1159 4353 1004 4120 
Q 850 3888 850 3481 
Q 850 3069 1003 2837 
Q 1156 2606 1428 2606 
Q 1700 2606 1854 2837 
Q 2009 3069 2009 3481 
Q 2009 3884 1853 4118 
Q 1697 4353 1428 4353 
z
M 4250 4750 
L 4750 4750 
L 1831 -91 
L 1331 -91 
L 4250 4750 
z
M 1428 4750 
Q 1922 4750 2215 4408 
Q 2509 4066 2509 3481 
Q 2509 2891 2217 2550 
Q 1925 2209 1428 2209 
Q 931 2209 642 2551 
Q 353 2894 353 3481 
Q 353 4063 643 4406 
Q 934 4750 1428 4750 
z
" transform="scale(0.015625)"/>
    </defs>
    <use xlink:href="#DejaVuSans-54"/>
    <use xlink:href="#DejaVuSans-72" x="46.333984"/>
    <use xlink:href="#DejaVuSans-61" x="87.447266"/>
    <use xlink:href="#DejaVuSans-69" x="148.726562"/>
    <use xlink:href="#DejaVuSans-6e" x="176.509766"/>
    <use xlink:href="#DejaVuSans-69" x="239.888672"/>
    <use xlink:href="#DejaVuSans-6e" x="267.671875"/>
    <use xlink:href="#DejaVuSans-67" x="331.050781"/>
    <use xlink:href="#DejaVuSans-20" x="394.527344"/>
    <use xlink:href="#DejaVuSans-56" x="426.314453"/>
    <use xlink:href="#DejaVuSans-53" x="494.722656"/>
    <use xlink:href="#DejaVuSans-2e" x="558.199219"/>
    <use xlink:href="#DejaVuSans-20" x="589.986328"/>
    <use xlink:href="#DejaVuSans-56" x="621.773438"/>
    <use xlink:href="#DejaVuSans-61" x="682.431641"/>
    <use xlink:href="#DejaVuSans-6c" x="743.710938"/>
    <use xlink:href="#DejaVuSans-69" x="771.494141"/>
    <use xlink:href="#DejaVuSans-64" x="799.277344"/>
    <use xlink:href="#DejaVuSans-61" x="862.753906"/>
    <use xlink:href="#DejaVuSans-74" x="924.033203"/>
    <use xlink:href="#DejaVuSans-69" x="963.242188"/>
    <use xlink:href="#DejaVuSans-6f" x="991.025391"/>
    <use xlink:href="#DejaVuSans-6e" x="1052.207031"/>
    <use xlink:href="#DejaVuSans-20" x="1115.585938"/>
    <use xlink:href="#DejaVuSans-41" x="1147.373047"/>
    <use xlink:href="#DejaVuSans-63" x="1214.03125"/>
    <use xlink:href="#DejaVuSans-63" x="1269.011719"/>
    <use xlink:href="#DejaVuSans-75" x="1323.992188"/>
    <use xlink:href="#DejaVuSans-72" x="1387.371094"/>
    <use xlink:href="#DejaVuSans-61" x="1428.484375"/>
    <use xlink:href="#DejaVuSans-63" x="1489.763672"/>
    <use xlink:href="#DejaVuSans-79" x="1544.744141"/>
    <use xlink:href="#DejaVuSans-20" x="1603.923828"/>
    <use xlink:href="#DejaVuSans-2d" x="1635.710938"/>
    <use xlink:href="#DejaVuSans-20" x="1671.794922"/>
    <use xlink:href="#DejaVuSans-44" x="1703.582031"/>
    <use xlink:href="#DejaVuSans-61" x="1780.583984"/>
    <use xlink:href="#DejaVuSans-74" x="1841.863281"/>
    <use xlink:href="#DejaVuSans-61" x="1881.072266"/>
    <use xlink:href="#DejaVuSans-73" x="1942.351562"/>
    <use xlink:href="#DejaVuSans-65" x="1994.451172"/>
    <use xlink:href="#DejaVuSans-74" x="2055.974609"/>
    <use xlink:href="#DejaVuSans-20" x="2095.183594"/>
    <use xlink:href="#DejaVuSans-53" x="2126.970703"/>
    <use xlink:href="#DejaVuSans-69" x="2190.447266"/>
    <use xlink:href="#DejaVuSans-7a" x="2218.230469"/>
    <use xlink:href="#DejaVuSans-65" x="2270.720703"/>
    <use xlink:href="#DejaVuSans-20" x="2332.244141"/>
    <use xlink:href="#DejaVuSans-3d" x="2364.03125"/>
    <use xlink:href="#DejaVuSans-20" x="2447.820312"/>
    <use xlink:href="#DejaVuSans-31" x="2479.607422"/>
    <use xlink:href="#DejaVuSans-30" x="2543.230469"/>
    <use xlink:href="#DejaVuSans-30" x="2606.853516"/>
    <use xlink:href="#DejaVuSans-2e" x="2670.476562"/>
    <use xlink:href="#DejaVuSans-30" x="2702.263672"/>
    <use xlink:href="#DejaVuSans-25" x="2765.886719"/>
   </g>
  </g>
 </g>
 <defs>
  <clipPath id="p7f6f29bbae">
   <rect x="43.78125" y="37.296" width="279" height="202.464"/>
  </clipPath>
 </defs>
</svg>
