<?xml version="1.0" encoding="utf-8" standalone="no"?>
<!DOCTYPE svg PUBLIC "-//W3C//DTD SVG 1.1//EN"
  "http://www.w3.org/Graphics/SVG/1.1/DTD/svg11.dtd">
<svg xmlns:xlink="http://www.w3.org/1999/xlink" width="343.328516pt" height="277.31625pt" viewBox="0 0 343.328516 277.31625" xmlns="http://www.w3.org/2000/svg" version="1.1">
 <metadata>
  <rdf:RDF xmlns:dc="http://purl.org/dc/elements/1.1/" xmlns:cc="http://creativecommons.org/ns#" xmlns:rdf="http://www.w3.org/1999/02/22-rdf-syntax-ns#">
   <cc:Work>
    <dc:type rdf:resource="http://purl.org/dc/dcmitype/StillImage"/>
    <dc:date>2026-06-11T14:42:02.236102</dc:date>
    <dc:format>image/svg+xml</dc:format>
    <dc:creator>
     <cc:Agent>
      <dc:title>Matplotlib v3.8.4, https://matplotlib.org/</dc:title>
     </cc:Agent>
    </dc:creator>
   </cc:Work>
  </rdf:RDF>
 </metadata>
 <defs>
  <style type="text/css">*{stroke-linejoin: round; stroke-linecap: butt}</style>
 </defs>
 <g id="figure_1">
  <g id="patch_1">
   <path d="M 0 277.31625 
L 343.328516 277.31625 
L 343.328516 0 
L 0 0 
z
" style="fill: #ffffff"/>
  </g>
  <g id="axes_1">
   <g id="patch_2">
    <path d="M 43.78125 239.76 
L 322.78125 239.76 
L 322.78125 37.296 
L 43.78125 37.296 
z
" style="fill: #ffffff"/>
   </g>
   <g id="matplotlib.axis_1">
    <g id="xtick_1">
     <g id="line2d_1">
      <path d="M 56.209178 239.76 
L 56.209178 37.296 
" clip-path="url(#p41cfedcf64)" style="fill: none; stroke-dasharray: 2.96,1.28; stroke-dashoffset: 0; stroke: #b0b0b0; stroke-opacity: 0.4; stroke-width: 0.8"/>
     </g>
     <g id="line2d_2">
      <defs>
       <path id="m7300c58c5c" d="M 0 0 
L 0 3.5 
" style="stroke: #000000; stroke-width: 0.8"/>
      </defs>
      <g>
       <use xlink:href="#m7300c58c5c" x="56.209178" y="239.76" style="stroke: #000000; stroke-width: 0.8"/>
      </g>
     </g>
     <g id="text_1">
      <!-- 0 -->
      <g transform="translate(53.027928 254.358437) scale(0.1 -0.1)">
       <defs>
        <path id="DejaVuSans-30" d="M 2034 4250 
Q 1547 4250 1301 3770 
Q 1056 3291 1056 2328 
Q 1056 1369 1301 889 
Q 1547 409 2034 409 
Q 2525 409 2770 889 
Q 3016 1369 3016 2328 
Q 3016 3291 2770 3770 
Q 2525 4250 2034 4250 
z
M 2034 4750 
Q 2819 4750 3233 4129 
Q 3647 3509 3647 2328 
Q 3647 1150 3233 529 
Q 2819 -91 2034 -91 
Q 1250 -91 836 529 
Q 422 1150 422 2328 
Q 422 3509 836 4129 
Q 1250 4750 2034 4750 
z
" transform="scale(0.015625)"/>
       </defs>
       <use xlink:href="#DejaVuSans-30"/>
      </g>
     </g>
    </g>
    <g id="xtick_2">
     <g id="line2d_3">
      <path d="M 106.987229 239.76 
L 106.987229 37.296 
" clip-path="url(#p41cfedcf64)" style="fill: none; stroke-dasharray: 2.96,1.28; stroke-dashoffset: 0; stroke: #b0b0b0; stroke-opacity: 0.4; stroke-width: 0.8"/>
     </g>
     <g id="line2d_4">
      <g>
       <use xlink:href="#m7300c58c5c" x="106.987229" y="239.76" style="stroke: #000000; stroke-width: 0.8"/>
      </g>
     </g>
     <g id="text_2">
      <!-- 200 -->
      <g transform="translate(97.443479 254.358437) scale(0.1 -0.1)">
       <defs>
        <path id="DejaVuSans-32" d="M 1228 531 
L 3431 531 
L 3431 0 
L 469 0 
L 469 531 
Q 828 903 1448 1529 
Q 2069 2156 2228 2338 
Q 2531 2678 2651 2914 
Q 2772 3150 2772 3378 
Q 2772 3750 2511 3984 
Q 2250 4219 1831 4219 
Q 1534 4219 1204 4116 
Q 875 4013 500 3803 
L 500 4441 
Q 881 4594 1212 4672 
Q 1544 4750 1819 4750 
Q 2544 4750 2975 4387 
Q 3406 4025 3406 3419 
Q 3406 3131 3298 2873 
Q 3191 2616 2906 2266 
Q 2828 2175 2409 1742 
Q 1991 1309 1228 531 
z
" transform="scale(0.015625)"/>
       </defs>
       <use xlink:href="#DejaVuSans-32"/>
       <use xlink:href="#DejaVuSans-30" x="63.623047"/>
       <use xlink:href="#DejaVuSans-30" x="127.246094"/>
      </g>
     </g>
    </g>
    <g id="xtick_3">
     <g id="line2d_5">
      <path d="M 157.765279 239.76 
L 157.765279 37.296 
" clip-path="url(#p41cfedcf64)" style="fill: none; stroke-dasharray: 2.96,1.28; stroke-dashoffset: 0; stroke: #b0b0b0; stroke-opacity: 0.4; stroke-width: 0.8"/>
     </g>
     <g id="line2d_6">
      <g>
       <use xlink:href="#m7300c58c5c" x="157.765279" y="239.76" style="stroke: #000000; stroke-width: 0.8"/>
      </g>
     </g>
     <g id="text_3">
      <!-- 400 -->
      <g transform="translate(148.221529 254.358437) scale(0.1 -0.1)">
       <defs>
        <path id="DejaVuSans-34" d="M 2419 4116 
L 825 1625 
L 2419 1625 
L 2419 4116 
z
M 2253 4666 
L 3047 4666 
L 3047 1625 
L 3713 1625 
L 3713 1100 
L 3047 1100 
L 3047 0 
L 2419 0 
L 2419 1100 
L 313 1100 
L 313 1709 
L 2253 4666 
z
" transform="scale(0.015625)"/>
       </defs>
       <use xlink:href="#DejaVuSans-34"/>
       <use xlink:href="#DejaVuSans-30" x="63.623047"/>
       <use xlink:href="#DejaVuSans-30" x="127.246094"/>
      </g>
     </g>
    </g>
    <g id="xtick_4">
     <g id="line2d_7">
      <path d="M 208.54333 239.76 
L 208.54333 37.296 
" clip-path="url(#p41cfedcf64)" style="fill: none; stroke-dasharray: 2.96,1.28; stroke-dashoffset: 0; stroke: #b0b0b0; stroke-opacity: 0.4; stroke-width: 0.8"/>
     </g>
     <g id="line2d_8">
      <g>
       <use xlink:href="#m7300c58c5c" x="208.54333" y="239.76" style="stroke: #000000; stroke-width: 0.8"/>
      </g>
     </g>
     <g id="text_4">
      <!-- 600 -->
      <g transform="translate(198.99958 254.358437) scale(0.1 -0.1)">
       <defs>
        <path id="DejaVuSans-36" d="M 2113 2584 
Q 1688 2584 1439 2293 
Q 1191 2003 1191 1497 
Q 1191 994 1439 701 
Q 1688 409 2113 409 
Q 2538 409 2786 701 
Q 3034 994 3034 1497 
Q 3034 2003 2786 2293 
Q 2538 2584 2113 2584 
z
M 3366 4563 
L 3366 3988 
Q 3128 4100 2886 4159 
Q 2644 4219 2406 4219 
Q 1781 4219 1451 3797 
Q 1122 3375 1075 2522 
Q 1259 2794 1537 2939 
Q 1816 3084 2150 3084 
Q 2853 3084 3261 2657 
Q 3669 2231 3669 1497 
Q 3669 778 3244 343 
Q 2819 -91 2113 -91 
Q 1303 -91 875 529 
Q 447 1150 447 2328 
Q 447 3434 972 4092 
Q 1497 4750 2381 4750 
Q 2619 4750 2861 4703 
Q 3103 4656 3366 4563 
z
" transform="scale(0.015625)"/>
       </defs>
       <use xlink:href="#DejaVuSans-36"/>
       <use xlink:href="#DejaVuSans-30" x="63.623047"/>
       <use xlink:href="#DejaVuSans-30" x="127.246094"/>
      </g>
     </g>
    </g>
    <g id="xtick_5">
     <g id="line2d_9">
      <path d="M 259.321381 239.76 
L 259.321381 37.296 
" clip-path="url(#p41cfedcf64)" style="fill: none; stroke-dasharray: 2.96,1.28; stroke-dashoffset: 0; stroke: #b0b0b0; stroke-opacity: 0.4; stroke-width: 0.8"/>
     </g>
     <g id="line2d_10">
      <g>
       <use xlink:href="#m7300c58c5c" x="259.321381" y="239.76" style="stroke: #000000; stroke-width: 0.8"/>
      </g>
     </g>
     <g id="text_5">
      <!-- 800 -->
      <g transform="translate(249.777631 254.358437) scale(0.1 -0.1)">
       <defs>
        <path id="DejaVuSans-38" d="M 2034 2216 
Q 1584 2216 1326 1975 
Q 1069 1734 1069 1313 
Q 1069 891 1326 650 
Q 1584 409 2034 409 
Q 2484 409 2743 651 
Q 3003 894 3003 1313 
Q 3003 1734 2745 1975 
Q 2488 2216 2034 2216 
z
M 1403 2484 
Q 997 2584 770 2862 
Q 544 3141 544 3541 
Q 544 4100 942 4425 
Q 1341 4750 2034 4750 
Q 2731 4750 3128 4425 
Q 3525 4100 3525 3541 
Q 3525 3141 3298 2862 
Q 3072 2584 2669 2484 
Q 3125 2378 3379 2068 
Q 3634 1759 3634 1313 
Q 3634 634 3220 271 
Q 2806 -91 2034 -91 
Q 1263 -91 848 271 
Q 434 634 434 1313 
Q 434 1759 690 2068 
Q 947 2378 1403 2484 
z
M 1172 3481 
Q 1172 3119 1398 2916 
Q 1625 2713 2034 2713 
Q 2441 2713 2670 2916 
Q 2900 3119 2900 3481 
Q 2900 3844 2670 4047 
Q 2441 4250 2034 4250 
Q 1625 4250 1398 4047 
Q 1172 3844 1172 3481 
z
" transform="scale(0.015625)"/>
       </defs>
       <use xlink:href="#DejaVuSans-38"/>
       <use xlink:href="#DejaVuSans-30" x="63.623047"/>
       <use xlink:href="#DejaVuSans-30" x="127.246094"/>
      </g>
     </g>
    </g>
    <g id="xtick_6">
     <g id="line2d_11">
      <path d="M 310.099432 239.76 
L 310.099432 37.296 
" clip-path="url(#p41cfedcf64)" style="fill: none; stroke-dasharray: 2.96,1.28; stroke-dashoffset: 0; stroke: #b0b0b0; stroke-opacity: 0.4; stroke-width: 0.8"/>
     </g>
     <g id="line2d_12">
      <g>
       <use xlink:href="#m7300c58c5c" x="310.099432" y="239.76" style="stroke: #000000; stroke-width: 0.8"/>
      </g>
     </g>
     <g id="text_6">
      <!-- 1000 -->
      <g transform="translate(297.374432 254.358437) scale(0.1 -0.1)">
       <defs>
        <path id="DejaVuSans-31" d="M 794 531 
L 1825 531 
L 1825 4091 
L 703 3866 
L 703 4441 
L 1819 4666 
L 2450 4666 
L 2450 531 
L 3481 531 
L 3481 0 
L 794 0 
L 794 531 
z
" transform="scale(0.015625)"/>
       </defs>
       <use xlink:href="#DejaVuSans-31"/>
       <use xlink:href="#DejaVuSans-30" x="63.623047"/>
       <use xlink:href="#DejaVuSans-30" x="127.246094"/>
       <use xlink:href="#DejaVuSans-30" x="190.869141"/>
      </g>
     </g>
    </g>
    <g id="text_7">
     <!-- Epochs -->
     <g transform="translate(165.365625 268.036562) scale(0.1 -0.1)">
      <defs>
       <path id="DejaVuSans-45" d="M 628 4666 
L 3578 4666 
L 3578 4134 
L 1259 4134 
L 1259 2753 
L 3481 2753 
L 3481 2222 
L 1259 2222 
L 1259 531 
L 3634 531 
L 3634 0 
L 628 0 
L 628 4666 
z
" transform="scale(0.015625)"/>
       <path id="DejaVuSans-70" d="M 1159 525 
L 1159 -1331 
L 581 -1331 
L 581 3500 
L 1159 3500 
L 1159 2969 
Q 1341 3281 1617 3432 
Q 1894 3584 2278 3584 
Q 2916 3584 3314 3078 
Q 3713 2572 3713 1747 
Q 3713 922 3314 415 
Q 2916 -91 2278 -91 
Q 1894 -91 1617 61 
Q 1341 213 1159 525 
z
M 3116 1747 
Q 3116 2381 2855 2742 
Q 2594 3103 2138 3103 
Q 1681 3103 1420 2742 
Q 1159 2381 1159 1747 
Q 1159 1113 1420 752 
Q 1681 391 2138 391 
Q 2594 391 2855 752 
Q 3116 1113 3116 1747 
z
" transform="scale(0.015625)"/>
       <path id="DejaVuSans-6f" d="M 1959 3097 
Q 1497 3097 1228 2736 
Q 959 2375 959 1747 
Q 959 1119 1226 758 
Q 1494 397 1959 397 
Q 2419 397 2687 759 
Q 2956 1122 2956 1747 
Q 2956 2369 2687 2733 
Q 2419 3097 1959 3097 
z
M 1959 3584 
Q 2709 3584 3137 3096 
Q 3566 2609 3566 1747 
Q 3566 888 3137 398 
Q 2709 -91 1959 -91 
Q 1206 -91 779 398 
Q 353 888 353 1747 
Q 353 2609 779 3096 
Q 1206 3584 1959 3584 
z
" transform="scale(0.015625)"/>
       <path id="DejaVuSans-63" d="M 3122 3366 
L 3122 2828 
Q 2878 2963 2633 3030 
Q 2388 3097 2138 3097 
Q 1578 3097 1268 2742 
Q 959 2388 959 1747 
Q 959 1106 1268 751 
Q 1578 397 2138 397 
Q 2388 397 2633 464 
Q 2878 531 3122 666 
L 3122 134 
Q 2881 22 2623 -34 
Q 2366 -91 2075 -91 
Q 1284 -91 818 406 
Q 353 903 353 1747 
Q 353 2603 823 3093 
Q 1294 3584 2113 3584 
Q 2378 3584 2631 3529 
Q 2884 3475 3122 3366 
z
" transform="scale(0.015625)"/>
       <path id="DejaVuSans-68" d="M 3513 2113 
L 3513 0 
L 2938 0 
L 2938 2094 
Q 2938 2591 2744 2837 
Q 2550 3084 2163 3084 
Q 1697 3084 1428 2787 
Q 1159 2491 1159 1978 
L 1159 0 
L 581 0 
L 581 4863 
L 1159 4863 
L 1159 2956 
Q 1366 3272 1645 3428 
Q 1925 3584 2291 3584 
Q 2894 3584 3203 3211 
Q 3513 2838 3513 2113 
z
" transform="scale(0.015625)"/>
       <path id="DejaVuSans-73" d="M 2834 3397 
L 2834 2853 
Q 2591 2978 2328 3040 
Q 2066 3103 1784 3103 
Q 1356 3103 1142 2972 
Q 928 2841 928 2578 
Q 928 2378 1081 2264 
Q 1234 2150 1697 2047 
L 1894 2003 
Q 2506 1872 2764 1633 
Q 3022 1394 3022 966 
Q 3022 478 2636 193 
Q 2250 -91 1575 -91 
Q 1294 -91 989 -36 
Q 684 19 347 128 
L 347 722 
Q 666 556 975 473 
Q 1284 391 1588 391 
Q 1994 391 2212 530 
Q 2431 669 2431 922 
Q 2431 1156 2273 1281 
Q 2116 1406 1581 1522 
L 1381 1569 
Q 847 1681 609 1914 
Q 372 2147 372 2553 
Q 372 3047 722 3315 
Q 1072 3584 1716 3584 
Q 2034 3584 2315 3537 
Q 2597 3491 2834 3397 
z
" transform="scale(0.015625)"/>
      </defs>
      <use xlink:href="#DejaVuSans-45"/>
      <use xlink:href="#DejaVuSans-70" x="63.183594"/>
      <use xlink:href="#DejaVuSans-6f" x="126.660156"/>
      <use xlink:href="#DejaVuSans-63" x="187.841797"/>
      <use xlink:href="#DejaVuSans-68" x="242.822266"/>
      <use xlink:href="#DejaVuSans-73" x="306.201172"/>
     </g>
    </g>
   </g>
   <g id="matplotlib.axis_2">
    <g id="ytick_1">
     <g id="line2d_13">
      <path d="M 43.78125 231.846281 
L 322.78125 231.846281 
" clip-path="url(#p41cfedcf64)" style="fill: none; stroke-dasharray: 2.96,1.28; stroke-dashoffset: 0; stroke: #b0b0b0; stroke-opacity: 0.4; stroke-width: 0.8"/>
     </g>
     <g id="line2d_14">
      <defs>
       <path id="mfdc5e20ff0" d="M 0 0 
L -3.5 0 
" style="stroke: #000000; stroke-width: 0.8"/>
      </defs>
      <g>
       <use xlink:href="#mfdc5e20ff0" x="43.78125" y="231.846281" style="stroke: #000000; stroke-width: 0.8"/>
      </g>
     </g>
     <g id="text_8">
      <!-- 0.5 -->
      <g transform="translate(20.878125 235.6455) scale(0.1 -0.1)">
       <defs>
        <path id="DejaVuSans-2e" d="M 684 794 
L 1344 794 
L 1344 0 
L 684 0 
L 684 794 
z
" transform="scale(0.015625)"/>
        <path id="DejaVuSans-35" d="M 691 4666 
L 3169 4666 
L 3169 4134 
L 1269 4134 
L 1269 2991 
Q 1406 3038 1543 3061 
Q 1681 3084 1819 3084 
Q 2600 3084 3056 2656 
Q 3513 2228 3513 1497 
Q 3513 744 3044 326 
Q 2575 -91 1722 -91 
Q 1428 -91 1123 -41 
Q 819 9 494 109 
L 494 744 
Q 775 591 1075 516 
Q 1375 441 1709 441 
Q 2250 441 2565 725 
Q 2881 1009 2881 1497 
Q 2881 1984 2565 2268 
Q 2250 2553 1709 2553 
Q 1456 2553 1204 2497 
Q 953 2441 691 2322 
L 691 4666 
z
" transform="scale(0.015625)"/>
       </defs>
       <use xlink:href="#DejaVuSans-30"/>
       <use xlink:href="#DejaVuSans-2e" x="63.623047"/>
       <use xlink:href="#DejaVuSans-35" x="95.410156"/>
      </g>
     </g>
    </g>
    <g id="ytick_2">
     <g id="line2d_15">
      <path d="M 43.78125 192.654759 
L 322.78125 192.654759 
" clip-path="url(#p41cfedcf64)" style="fill: none; stroke-dasharray: 2.96,1.28; stroke-dashoffset: 0; stroke: #b0b0b0; stroke-opacity: 0.4; stroke-width: 0.8"/>
     </g>
     <g id="line2d_16">
      <g>
       <use xlink:href="#mfdc5e20ff0" x="43.78125" y="192.654759" style="stroke: #000000; stroke-width: 0.8"/>
      </g>
     </g>
     <g id="text_9">
      <!-- 0.6 -->
      <g transform="translate(20.878125 196.453978) scale(0.1 -0.1)">
       <use xlink:href="#DejaVuSans-30"/>
       <use xlink:href="#DejaVuSans-2e" x="63.623047"/>
       <use xlink:href="#DejaVuSans-36" x="95.410156"/>
      </g>
     </g>
    </g>
    <g id="ytick_3">
     <g id="line2d_17">
      <path d="M 43.78125 153.463237 
L 322.78125 153.463237 
" clip-path="url(#p41cfedcf64)" style="fill: none; stroke-dasharray: 2.96,1.28; stroke-dashoffset: 0; stroke: #b0b0b0; stroke-opacity: 0.4; stroke-width: 0.8"/>
     </g>
     <g id="line2d_18">
      <g>
       <use xlink:href="#mfdc5e20ff0" x="43.78125" y="153.463237" style="stroke: #000000; stroke-width: 0.8"/>
      </g>
     </g>
     <g id="text_10">
      <!-- 0.7 -->
      <g transform="translate(20.878125 157.262456) scale(0.1 -0.1)">
       <defs>
        <path id="DejaVuSans-37" d="M 525 4666 
L 3525 4666 
L 3525 4397 
L 1831 0 
L 1172 0 
L 2766 4134 
L 525 4134 
L 525 4666 
z
" transform="scale(0.015625)"/>
       </defs>
       <use xlink:href="#DejaVuSans-30"/>
       <use xlink:href="#DejaVuSans-2e" x="63.623047"/>
       <use xlink:href="#DejaVuSans-37" x="95.410156"/>
      </g>
     </g>
    </g>
    <g id="ytick_4">
     <g id="line2d_19">
      <path d="M 43.78125 114.271715 
L 322.78125 114.271715 
" clip-path="url(#p41cfedcf64)" style="fill: none; stroke-dasharray: 2.96,1.28; stroke-dashoffset: 0; stroke: #b0b0b0; stroke-opacity: 0.4; stroke-width: 0.8"/>
     </g>
     <g id="line2d_20">
      <g>
       <use xlink:href="#mfdc5e20ff0" x="43.78125" y="114.271715" style="stroke: #000000; stroke-width: 0.8"/>
      </g>
     </g>
     <g id="text_11">
      <!-- 0.8 -->
      <g transform="translate(20.878125 118.070934) scale(0.1 -0.1)">
       <use xlink:href="#DejaVuSans-30"/>
       <use xlink:href="#DejaVuSans-2e" x="63.623047"/>
       <use xlink:href="#DejaVuSans-38" x="95.410156"/>
      </g>
     </g>
    </g>
    <g id="ytick_5">
     <g id="line2d_21">
      <path d="M 43.78125 75.080194 
L 322.78125 75.080194 
" clip-path="url(#p41cfedcf64)" style="fill: none; stroke-dasharray: 2.96,1.28; stroke-dashoffset: 0; stroke: #b0b0b0; stroke-opacity: 0.4; stroke-width: 0.8"/>
     </g>
     <g id="line2d_22">
      <g>
       <use xlink:href="#mfdc5e20ff0" x="43.78125" y="75.080194" style="stroke: #000000; stroke-width: 0.8"/>
      </g>
     </g>
     <g id="text_12">
      <!-- 0.9 -->
      <g transform="translate(20.878125 78.879412) scale(0.1 -0.1)">
       <defs>
        <path id="DejaVuSans-39" d="M 703 97 
L 703 672 
Q 941 559 1184 500 
Q 1428 441 1663 441 
Q 2288 441 2617 861 
Q 2947 1281 2994 2138 
Q 2813 1869 2534 1725 
Q 2256 1581 1919 1581 
Q 1219 1581 811 2004 
Q 403 2428 403 3163 
Q 403 3881 828 4315 
Q 1253 4750 1959 4750 
Q 2769 4750 3195 4129 
Q 3622 3509 3622 2328 
Q 3622 1225 3098 567 
Q 2575 -91 1691 -91 
Q 1453 -91 1209 -44 
Q 966 3 703 97 
z
M 1959 2075 
Q 2384 2075 2632 2365 
Q 2881 2656 2881 3163 
Q 2881 3666 2632 3958 
Q 2384 4250 1959 4250 
Q 1534 4250 1286 3958 
Q 1038 3666 1038 3163 
Q 1038 2656 1286 2365 
Q 1534 2075 1959 2075 
z
" transform="scale(0.015625)"/>
       </defs>
       <use xlink:href="#DejaVuSans-30"/>
       <use xlink:href="#DejaVuSans-2e" x="63.623047"/>
       <use xlink:href="#DejaVuSans-39" x="95.410156"/>
      </g>
     </g>
    </g>
    <g id="text_13">
     <!-- Accuracy -->
     <g transform="translate(14.798438 161.356125) rotate(-90) scale(0.1 -0.1)">
      <defs>
       <path id="DejaVuSans-41" d="M 2188 4044 
L 1331 1722 
L 3047 1722 
L 2188 4044 
z
M 1831 4666 
L 2547 4666 
L 4325 0 
L 3669 0 
L 3244 1197 
L 1141 1197 
L 716 0 
L 50 0 
L 1831 4666 
z
" transform="scale(0.015625)"/>
       <path id="DejaVuSans-75" d="M 544 1381 
L 544 3500 
L 1119 3500 
L 1119 1403 
Q 1119 906 1312 657 
Q 1506 409 1894 409 
Q 2359 409 2629 706 
Q 2900 1003 2900 1516 
L 2900 3500 
L 3475 3500 
L 3475 0 
L 2900 0 
L 2900 538 
Q 2691 219 2414 64 
Q 2138 -91 1772 -91 
Q 1169 -91 856 284 
Q 544 659 544 1381 
z
M 1991 3584 
L 1991 3584 
z
" transform="scale(0.015625)"/>
       <path id="DejaVuSans-72" d="M 2631 2963 
Q 2534 3019 2420 3045 
Q 2306 3072 2169 3072 
Q 1681 3072 1420 2755 
Q 1159 2438 1159 1844 
L 1159 0 
L 581 0 
L 581 3500 
L 1159 3500 
L 1159 2956 
Q 1341 3275 1631 3429 
Q 1922 3584 2338 3584 
Q 2397 3584 2469 3576 
Q 2541 3569 2628 3553 
L 2631 2963 
z
" transform="scale(0.015625)"/>
       <path id="DejaVuSans-61" d="M 2194 1759 
Q 1497 1759 1228 1600 
Q 959 1441 959 1056 
Q 959 750 1161 570 
Q 1363 391 1709 391 
Q 2188 391 2477 730 
Q 2766 1069 2766 1631 
L 2766 1759 
L 2194 1759 
z
M 3341 1997 
L 3341 0 
L 2766 0 
L 2766 531 
Q 2569 213 2275 61 
Q 1981 -91 1556 -91 
Q 1019 -91 701 211 
Q 384 513 384 1019 
Q 384 1609 779 1909 
Q 1175 2209 1959 2209 
L 2766 2209 
L 2766 2266 
Q 2766 2663 2505 2880 
Q 2244 3097 1772 3097 
Q 1472 3097 1187 3025 
Q 903 2953 641 2809 
L 641 3341 
Q 956 3463 1253 3523 
Q 1550 3584 1831 3584 
Q 2591 3584 2966 3190 
Q 3341 2797 3341 1997 
z
" transform="scale(0.015625)"/>
       <path id="DejaVuSans-79" d="M 2059 -325 
Q 1816 -950 1584 -1140 
Q 1353 -1331 966 -1331 
L 506 -1331 
L 506 -850 
L 844 -850 
Q 1081 -850 1212 -737 
Q 1344 -625 1503 -206 
L 1606 56 
L 191 3500 
L 800 3500 
L 1894 763 
L 2988 3500 
L 3597 3500 
L 2059 -325 
z
" transform="scale(0.015625)"/>
      </defs>
      <use xlink:href="#DejaVuSans-41"/>
      <use xlink:href="#DejaVuSans-63" x="66.658203"/>
      <use xlink:href="#DejaVuSans-63" x="121.638672"/>
      <use xlink:href="#DejaVuSans-75" x="176.619141"/>
      <use xlink:href="#DejaVuSans-72" x="239.998047"/>
      <use xlink:href="#DejaVuSans-61" x="281.111328"/>
      <use xlink:href="#DejaVuSans-63" x="342.390625"/>
      <use xlink:href="#DejaVuSans-79" x="397.371094"/>
     </g>
    </g>
   </g>
   <g id="line2d_23">
    <path d="M 56.463068 203.220767 
L 56.970849 146.190817 
L 57.224739 117.233731 
L 57.478629 130.717572 
L 57.732519 106.181406 
L 57.98641 105.628803 
L 58.2403 103.197287 
L 58.49419 98.555312 
L 58.74808 101.207883 
L 59.001971 91.481843 
L 59.255861 93.250216 
L 59.509751 93.139677 
L 59.763641 91.592359 
L 60.017532 88.055614 
L 60.271422 87.171439 
L 60.525312 86.950383 
L 60.779202 86.066209 
L 61.033093 86.508296 
L 61.540873 83.524154 
L 61.794764 86.729328 
L 62.048654 84.739923 
L 62.302544 87.613526 
L 62.556434 81.86632 
L 62.810325 81.424233 
L 63.064215 85.403066 
L 63.318105 82.087352 
L 63.571995 83.413638 
L 63.825886 82.308408 
L 64.079776 85.845153 
L 64.333666 82.197892 
L 64.587556 83.745209 
L 64.841447 80.429519 
L 65.095337 85.734637 
L 65.603117 80.650551 
L 66.110898 78.771662 
L 66.618678 82.418924 
L 66.872569 81.534749 
L 67.126459 82.750495 
L 67.380349 76.119114 
L 67.634239 80.429519 
L 67.88813 77.998003 
L 68.14202 79.766376 
L 68.39591 79.545321 
L 68.6498 83.082066 
L 68.903691 82.639979 
L 69.157581 78.219058 
L 69.411471 78.992717 
L 69.665361 81.534749 
L 70.427032 75.1244 
L 70.680922 78.44009 
L 70.934813 78.992717 
L 71.188703 78.55063 
L 71.442593 81.203177 
L 71.696483 79.545321 
L 72.204264 75.013884 
L 72.712044 77.33486 
L 72.965935 81.424233 
L 73.219825 75.898059 
L 73.473715 76.008598 
L 73.727605 76.892773 
L 73.981496 75.566487 
L 74.235386 77.003289 
L 74.489276 76.671717 
L 74.743166 73.798114 
L 74.997057 74.682313 
L 75.250947 73.245511 
L 75.504837 77.003289 
L 75.758727 74.903368 
L 76.012618 79.213749 
L 76.266508 74.129686 
L 76.520398 75.013884 
L 76.774288 74.461257 
L 77.028179 75.677027 
L 77.282069 76.22963 
L 77.535959 77.555916 
L 78.04374 70.703479 
L 78.29763 77.4454 
L 78.55152 74.240225 
L 78.805411 75.013884 
L 79.059301 74.01917 
L 79.313191 75.898059 
L 79.567081 72.803424 
L 79.820972 76.561201 
L 80.328752 71.256083 
L 80.582642 78.219058 
L 81.090423 74.682313 
L 81.344313 75.677027 
L 81.598203 71.035051 
L 81.852094 76.22963 
L 82.105984 75.898059 
L 82.359874 71.80871 
L 82.613764 73.798114 
L 82.867655 72.692884 
L 83.121545 74.240225 
L 83.375435 74.01917 
L 83.629325 72.692884 
L 83.883216 75.787543 
L 84.137106 72.029765 
L 84.390996 71.256083 
L 84.644886 71.587654 
L 84.898777 71.698194 
L 85.152667 70.150853 
L 85.406557 69.708765 
L 85.660447 73.134995 
L 85.914338 70.040337 
L 86.168228 79.987431 
L 86.676008 69.598249 
L 86.929899 71.256083 
L 87.183789 71.035051 
L 87.437679 71.035051 
L 87.691569 73.356027 
L 87.94546 69.48771 
L 88.19935 69.819281 
L 88.45324 73.356027 
L 88.70713 72.471852 
L 88.961021 68.493019 
L 89.214911 74.682313 
L 89.468801 74.903368 
L 89.722691 77.666432 
L 89.976582 70.150853 
L 90.230472 67.498305 
L 90.484362 66.503591 
L 90.738252 64.293131 
L 90.992143 65.729932 
L 91.246033 63.740504 
L 91.499923 64.845757 
L 91.753813 63.961559 
L 92.007704 63.629988 
L 92.261594 65.619416 
L 92.515484 66.614107 
L 92.769374 65.066789 
L 93.023265 62.745813 
L 93.277155 65.177305 
L 93.531045 62.966845 
L 93.784936 62.856329 
L 94.038826 62.08267 
L 94.292716 66.17202 
L 94.546606 62.303702 
L 94.800497 67.27725 
L 95.054387 62.414242 
L 95.308277 67.056218 
L 95.562167 63.298416 
L 95.816058 64.293131 
L 96.069948 64.182615 
L 96.323838 64.735218 
L 96.577728 61.309012 
L 96.831619 66.282559 
L 97.339399 61.972154 
L 97.593289 64.403647 
L 97.84718 69.045623 
L 98.10107 63.077384 
L 98.35496 67.608821 
L 98.862741 61.087956 
L 99.116631 62.524758 
L 99.370521 61.419528 
L 99.624411 61.751099 
L 100.386082 64.514186 
L 100.639972 65.950988 
L 100.893863 63.519472 
L 101.147753 62.193186 
L 101.655533 63.077384 
L 101.909424 64.403647 
L 102.163314 63.408956 
L 102.417204 65.066789 
L 102.671094 63.1879 
L 102.924985 63.519472 
L 103.178875 65.177305 
L 103.432765 61.309012 
L 103.686655 64.293131 
L 103.940546 62.303702 
L 104.194436 58.324869 
L 104.448326 73.466566 
L 104.702216 63.298416 
L 104.956107 57.66175 
L 105.463887 57.772266 
L 105.717777 56.667036 
L 105.971668 60.314297 
L 106.225558 58.324869 
L 106.479448 58.324869 
L 106.733338 57.66175 
L 106.987229 62.193186 
L 107.241119 60.314297 
L 107.495009 62.193186 
L 107.748899 59.098551 
L 108.00279 58.103837 
L 108.25668 59.430099 
L 108.51057 57.66175 
L 108.76446 57.109123 
L 109.018351 57.993298 
L 109.272241 57.330178 
L 109.526131 57.993298 
L 109.780021 57.219639 
L 110.033912 57.330178 
L 110.287802 58.324869 
L 110.541692 56.667036 
L 110.795583 57.330178 
L 111.049473 56.44598 
L 111.303363 57.55121 
L 111.557253 57.219639 
L 111.811144 57.882782 
L 112.065034 57.440694 
L 112.318924 57.772266 
L 112.572814 57.772266 
L 112.826705 59.098551 
L 113.080595 58.435409 
L 113.334485 55.672322 
L 113.588375 57.993298 
L 113.842266 57.440694 
L 114.096156 58.656441 
L 114.857827 56.114409 
L 115.111717 59.87221 
L 115.365607 56.777552 
L 115.619497 59.982726 
L 115.873388 57.109123 
L 116.127278 56.998607 
L 116.381168 57.109123 
L 116.888949 59.651155 
L 117.396729 56.888068 
L 117.650619 58.435409 
L 117.90451 55.672322 
L 118.1584 54.898663 
L 118.41229 54.567091 
L 118.66618 53.461861 
L 119.173961 55.561806 
L 119.427851 53.572377 
L 119.681741 54.014465 
L 119.935632 55.34075 
L 120.189522 54.898663 
L 120.443412 53.13029 
L 120.697302 55.230234 
L 120.951193 53.019774 
L 121.205083 56.003893 
L 121.458973 55.561806 
L 121.712863 54.456575 
L 121.966754 55.230234 
L 122.220644 52.02506 
L 122.474534 54.456575 
L 122.728424 53.903949 
L 122.982315 55.230234 
L 123.236205 55.451266 
L 123.490095 55.119695 
L 123.743985 55.119695 
L 123.997876 53.903949 
L 124.251766 53.461861 
L 124.505656 54.456575 
L 124.759546 54.788147 
L 125.013437 55.34075 
L 125.267327 54.346036 
L 125.521217 52.798719 
L 125.775107 56.998607 
L 126.028998 53.903949 
L 126.282888 57.330178 
L 126.536778 52.577663 
L 126.790669 53.793433 
L 127.044559 53.240806 
L 127.298449 54.23552 
L 127.552339 53.240806 
L 128.06012 55.893377 
L 128.31401 54.346036 
L 128.5679 55.561806 
L 128.821791 52.02506 
L 129.075681 54.567091 
L 129.329571 54.346036 
L 129.583461 53.793433 
L 129.837352 51.914544 
L 130.091242 53.793433 
L 130.345132 54.014465 
L 130.599022 52.577663 
L 131.106803 52.577663 
L 131.360693 51.582972 
L 131.614583 51.472433 
L 131.868474 54.677607 
L 132.376254 50.035632 
L 132.630144 53.793433 
L 132.884035 49.372512 
L 133.137925 52.577663 
L 133.391815 52.02506 
L 133.645705 52.798719 
L 133.899596 54.677607 
L 134.153486 50.91983 
L 134.407376 51.472433 
L 134.661266 53.13029 
L 134.915157 52.909235 
L 135.169047 52.02506 
L 135.676827 53.793433 
L 135.930718 52.909235 
L 136.184608 51.472433 
L 136.438498 53.13029 
L 136.692388 50.367203 
L 137.200169 53.351345 
L 137.454059 53.572377 
L 137.707949 50.698774 
L 137.96184 50.91983 
L 138.21573 52.577663 
L 138.46962 50.477742 
L 138.72351 50.367203 
L 138.977401 50.80929 
L 139.231291 53.351345 
L 139.485181 52.135576 
L 139.739071 51.582972 
L 139.992962 52.135576 
L 140.246852 54.125004 
L 140.500742 52.356631 
L 140.754632 53.351345 
L 141.008523 52.798719 
L 141.262413 51.251401 
L 141.516303 53.461861 
L 141.770193 52.356631 
L 142.024084 52.798719 
L 142.277974 50.91983 
L 142.531864 53.903949 
L 142.785755 50.91983 
L 143.039645 51.251401 
L 143.293535 53.572377 
L 143.547425 50.367203 
L 144.055206 52.135576 
L 144.309096 49.593544 
L 144.562986 50.91983 
L 144.816877 53.240806 
L 145.070767 51.140862 
L 145.324657 51.582972 
L 145.578547 48.709369 
L 145.832438 50.477742 
L 146.340218 50.80929 
L 146.594108 49.593544 
L 146.847999 53.793433 
L 147.355779 51.361917 
L 147.609669 51.914544 
L 147.86356 48.930401 
L 148.11745 50.367203 
L 148.37134 50.588258 
L 148.62523 49.151457 
L 148.879121 51.804004 
L 149.133011 52.246092 
L 149.640791 49.925116 
L 149.894682 51.361917 
L 150.148572 49.593544 
L 150.402462 51.140862 
L 150.910243 49.040941 
L 151.164133 48.488314 
L 151.671913 52.798719 
L 151.925804 47.935711 
L 152.179694 51.472433 
L 152.433584 48.267259 
L 152.687474 52.02506 
L 152.941365 51.030346 
L 153.195255 51.914544 
L 153.449145 52.135576 
L 153.703035 52.02506 
L 153.956926 51.251401 
L 154.210816 52.135576 
L 154.464706 51.030346 
L 154.718596 50.588258 
L 154.972487 50.477742 
L 155.226377 49.925116 
L 155.480267 51.914544 
L 155.734157 50.698774 
L 156.241938 52.467147 
L 156.749718 50.367203 
L 157.003609 50.91983 
L 157.257499 50.80929 
L 157.511389 49.483028 
L 157.765279 49.261973 
L 158.01917 49.814599 
L 158.27306 50.80929 
L 158.52695 50.146171 
L 159.034731 53.13029 
L 159.288621 50.146171 
L 159.542511 50.698774 
L 159.796402 50.367203 
L 160.304182 50.477742 
L 160.558072 50.477742 
L 160.811963 51.251401 
L 161.065853 50.91983 
L 161.319743 50.80929 
L 161.573633 49.372512 
L 161.827524 50.477742 
L 162.081414 49.261973 
L 162.589194 52.577663 
L 162.843085 49.040941 
L 163.096975 52.577663 
L 163.350865 52.135576 
L 163.604755 51.030346 
L 163.858646 51.804004 
L 164.112536 50.367203 
L 164.620316 50.91983 
L 164.874207 49.261973 
L 165.128097 51.914544 
L 165.381987 50.146171 
L 165.635877 52.577663 
L 165.889768 48.59883 
L 166.143658 51.251401 
L 166.397548 51.361917 
L 166.651438 50.588258 
L 166.905329 50.91983 
L 167.159219 52.577663 
L 167.413109 50.035632 
L 167.666999 51.030346 
L 167.92089 49.593544 
L 168.17478 51.251401 
L 168.42867 50.588258 
L 168.68256 50.256687 
L 168.936451 50.91983 
L 169.190341 49.151457 
L 169.444231 48.819885 
L 169.698121 50.588258 
L 169.952012 50.035632 
L 170.205902 52.135576 
L 170.459792 52.02506 
L 170.713682 49.593544 
L 170.967573 50.146171 
L 171.221463 51.030346 
L 171.475353 50.698774 
L 171.729243 50.035632 
L 171.983134 51.251401 
L 172.237024 51.140862 
L 172.490914 49.151457 
L 172.744804 51.030346 
L 172.998695 51.140862 
L 173.252585 51.472433 
L 173.506475 49.483028 
L 173.760365 51.030346 
L 174.014256 49.483028 
L 174.268146 50.91983 
L 174.522036 51.030346 
L 174.775926 49.70406 
L 175.029817 52.356631 
L 175.283707 49.483028 
L 175.537597 53.13029 
L 175.791488 52.467147 
L 176.045378 51.472433 
L 176.299268 49.483028 
L 176.553158 51.140862 
L 176.807049 49.593544 
L 177.060939 49.372512 
L 177.314829 51.361917 
L 177.568719 48.488314 
L 177.82261 49.372512 
L 178.0765 50.698774 
L 178.33039 53.019774 
L 178.58428 51.693488 
L 178.838171 49.151457 
L 179.092061 49.040941 
L 179.345951 48.156743 
L 179.599841 50.80929 
L 180.107622 49.925116 
L 180.361512 50.698774 
L 180.615402 50.91983 
L 180.869293 49.70406 
L 181.123183 51.140862 
L 181.377073 49.483028 
L 181.630963 49.814599 
L 181.884854 49.925116 
L 182.138744 51.804004 
L 182.392634 48.709369 
L 182.646524 49.483028 
L 182.900415 51.693488 
L 183.154305 49.261973 
L 183.408195 51.472433 
L 183.662085 50.367203 
L 183.915976 50.256687 
L 184.169866 50.367203 
L 184.423756 52.135576 
L 184.677646 47.825171 
L 184.931537 52.688203 
L 185.185427 49.483028 
L 185.439317 49.814599 
L 185.693207 50.91983 
L 185.947098 47.714655 
L 186.200988 49.372512 
L 186.454878 48.377798 
L 186.962659 50.91983 
L 187.216549 50.146171 
L 187.470439 49.925116 
L 187.724329 49.925116 
L 187.97822 51.030346 
L 188.23211 49.814599 
L 188.486 50.477742 
L 188.73989 49.040941 
L 188.993781 49.372512 
L 189.501561 50.477742 
L 189.755451 50.035632 
L 190.009342 50.146171 
L 190.263232 49.261973 
L 190.517122 49.483028 
L 191.024903 50.91983 
L 191.278793 49.372512 
L 191.786574 50.91983 
L 192.040464 48.046227 
L 192.294354 50.588258 
L 192.548244 49.925116 
L 192.802135 50.146171 
L 193.309915 51.251401 
L 193.563805 50.146171 
L 193.817696 48.156743 
L 194.071586 49.151457 
L 194.325476 48.930401 
L 194.579366 51.140862 
L 194.833257 50.698774 
L 195.087147 49.483028 
L 195.341037 49.261973 
L 195.594927 49.70406 
L 195.848818 50.91983 
L 196.102708 50.698774 
L 196.356598 48.156743 
L 197.118269 50.477742 
L 197.372159 50.256687 
L 197.626049 48.267259 
L 197.87994 48.819885 
L 198.13383 48.930401 
L 198.38772 49.483028 
L 198.64161 48.930401 
L 198.895501 50.477742 
L 199.149391 51.030346 
L 199.403281 50.91983 
L 199.657171 48.046227 
L 199.911062 48.819885 
L 200.164952 51.361917 
L 200.418842 49.593544 
L 200.672732 49.261973 
L 200.926623 50.588258 
L 201.180513 50.035632 
L 201.434403 50.256687 
L 201.688293 50.80929 
L 201.942184 49.483028 
L 202.196074 50.588258 
L 202.449964 46.498909 
L 202.703854 48.930401 
L 202.957745 47.935711 
L 203.211635 49.372512 
L 203.465525 47.714655 
L 203.719415 49.925116 
L 203.973306 50.588258 
L 204.227196 49.261973 
L 204.481086 50.698774 
L 204.734976 50.146171 
L 205.242757 50.367203 
L 205.496647 50.256687 
L 205.750537 49.040941 
L 206.004428 48.819885 
L 206.258318 50.146171 
L 206.512208 49.925116 
L 206.766098 50.588258 
L 207.019989 50.698774 
L 207.273879 49.925116 
L 207.527769 50.146171 
L 207.78166 48.156743 
L 208.28944 50.698774 
L 208.797221 50.146171 
L 209.051111 51.693488 
L 209.305001 49.151457 
L 209.558891 48.709369 
L 209.812782 50.588258 
L 210.066672 47.825171 
L 210.320562 50.367203 
L 210.574452 46.609425 
L 210.828343 49.261973 
L 211.082233 50.035632 
L 211.336123 50.146171 
L 211.590013 49.925116 
L 211.843904 50.91983 
L 212.097794 50.80929 
L 212.351684 49.814599 
L 212.605574 48.267259 
L 212.859465 49.483028 
L 213.367245 50.477742 
L 213.621135 51.140862 
L 213.875026 49.70406 
L 214.382806 52.356631 
L 214.636696 47.935711 
L 214.890587 50.91983 
L 215.144477 48.819885 
L 215.398367 49.261973 
L 215.652257 50.035632 
L 215.906148 52.02506 
L 216.160038 49.372512 
L 216.413928 51.140862 
L 216.667818 49.925116 
L 216.921709 49.70406 
L 217.175599 50.588258 
L 217.429489 50.256687 
L 217.683379 49.372512 
L 217.93727 52.577663 
L 218.19116 49.925116 
L 218.44505 50.477742 
L 218.69894 50.698774 
L 218.952831 49.483028 
L 219.206721 49.372512 
L 219.460611 50.035632 
L 219.714501 52.356631 
L 219.968392 47.4936 
L 220.222282 50.698774 
L 220.476172 51.030346 
L 220.730062 48.377798 
L 220.983953 51.251401 
L 221.237843 48.930401 
L 221.491733 49.593544 
L 221.745623 49.925116 
L 222.253404 50.91983 
L 222.761184 49.483028 
L 223.015075 52.135576 
L 223.268965 50.588258 
L 223.522855 50.256687 
L 223.776745 47.714655 
L 224.030636 50.146171 
L 224.284526 48.59883 
L 224.538416 51.582972 
L 225.046197 50.146171 
L 225.300087 53.13029 
L 225.553977 48.046227 
L 225.807868 50.256687 
L 226.061758 51.361917 
L 226.315648 47.272568 
L 226.569538 51.361917 
L 226.823429 49.261973 
L 227.077319 52.02506 
L 227.331209 50.367203 
L 227.585099 51.140862 
L 227.83899 48.709369 
L 228.09288 50.146171 
L 228.34677 50.477742 
L 228.60066 50.256687 
L 228.854551 49.814599 
L 229.108441 52.02506 
L 229.362331 48.046227 
L 229.616221 51.361917 
L 229.870112 50.698774 
L 230.124002 49.372512 
L 230.377892 49.70406 
L 230.631782 49.372512 
L 230.885673 50.146171 
L 231.139563 48.819885 
L 231.647343 52.356631 
L 231.901234 50.477742 
L 232.155124 49.925116 
L 232.409014 48.488314 
L 232.662904 49.261973 
L 232.916795 48.488314 
L 233.424575 50.588258 
L 233.678465 48.59883 
L 233.932356 48.59883 
L 234.186246 51.030346 
L 234.440136 50.146171 
L 234.694026 51.804004 
L 234.947917 49.593544 
L 235.201807 50.035632 
L 235.455697 50.91983 
L 235.709587 49.814599 
L 235.963478 47.714655 
L 236.217368 48.156743 
L 236.725148 51.251401 
L 236.979039 48.709369 
L 237.232929 48.819885 
L 237.486819 51.030346 
L 237.740709 51.804004 
L 237.9946 47.383084 
L 238.24849 47.604139 
L 238.50238 48.267259 
L 238.75627 49.925116 
L 239.010161 50.477742 
L 239.264051 50.477742 
L 239.517941 49.814599 
L 239.771831 50.035632 
L 240.279612 48.709369 
L 240.533502 49.483028 
L 240.787393 50.698774 
L 241.041283 50.91983 
L 241.295173 49.814599 
L 241.549063 51.140862 
L 241.802954 51.030346 
L 242.310734 47.935711 
L 242.818515 51.251401 
L 243.072405 50.146171 
L 243.326295 48.156743 
L 243.580185 52.135576 
L 243.834076 50.035632 
L 244.087966 50.477742 
L 244.341856 48.488314 
L 244.595746 50.698774 
L 244.849637 53.903949 
L 245.103527 48.819885 
L 245.357417 50.588258 
L 245.611307 51.030346 
L 245.865198 49.814599 
L 246.119088 49.372512 
L 246.372978 49.814599 
L 246.626868 48.156743 
L 246.880759 48.819885 
L 247.388539 52.688203 
L 247.642429 47.272568 
L 247.89632 49.372512 
L 248.15021 50.035632 
L 248.4041 51.251401 
L 248.911881 48.377798 
L 249.165771 47.825171 
L 249.419661 50.91983 
L 249.673551 51.030346 
L 250.181332 49.261973 
L 250.435222 51.582972 
L 250.689112 49.372512 
L 251.196893 51.140862 
L 251.450783 50.146171 
L 251.704673 52.688203 
L 251.958564 47.935711 
L 252.466344 48.488314 
L 252.720234 52.356631 
L 252.974125 51.804004 
L 253.228015 52.246092 
L 253.481905 48.488314 
L 253.735795 48.930401 
L 253.989686 48.930401 
L 254.243576 49.372512 
L 254.497466 48.930401 
L 254.751356 52.246092 
L 255.005247 52.577663 
L 255.259137 49.151457 
L 255.513027 50.256687 
L 255.766917 48.488314 
L 256.020808 48.267259 
L 256.274698 49.040941 
L 256.528588 51.361917 
L 257.036369 48.488314 
L 257.290259 52.135576 
L 257.544149 51.693488 
L 257.79804 47.825171 
L 258.05193 49.372512 
L 258.30582 49.040941 
L 258.55971 51.140862 
L 258.813601 50.035632 
L 259.067491 49.814599 
L 259.321381 49.814599 
L 259.575271 49.261973 
L 259.829162 50.698774 
L 260.083052 51.030346 
L 260.336942 48.267259 
L 260.590832 49.925116 
L 260.844723 49.151457 
L 261.098613 50.80929 
L 261.352503 49.593544 
L 261.606393 49.593544 
L 261.860284 51.030346 
L 262.114174 50.91983 
L 262.368064 48.709369 
L 262.621954 48.59883 
L 262.875845 50.588258 
L 263.129735 51.030346 
L 263.383625 49.372512 
L 263.637515 50.367203 
L 263.891406 48.156743 
L 264.145296 49.593544 
L 264.399186 49.925116 
L 264.653076 48.819885 
L 264.906967 49.70406 
L 265.160857 49.814599 
L 265.414747 50.698774 
L 265.668637 49.593544 
L 265.922528 49.70406 
L 266.176418 51.472433 
L 266.430308 47.4936 
L 266.684198 47.825171 
L 266.938089 48.709369 
L 267.191979 51.030346 
L 267.445869 49.151457 
L 267.699759 50.91983 
L 267.95365 49.040941 
L 268.20754 49.483028 
L 268.46143 48.59883 
L 268.71532 48.819885 
L 268.969211 50.80929 
L 269.223101 49.483028 
L 269.730881 50.588258 
L 269.984772 48.930401 
L 270.238662 49.593544 
L 270.492552 49.814599 
L 270.746442 48.267259 
L 271.000333 49.814599 
L 271.254223 50.367203 
L 271.508113 49.483028 
L 271.762003 50.588258 
L 272.015894 47.714655 
L 272.269784 49.151457 
L 272.523674 49.151457 
L 272.777564 50.256687 
L 273.285345 50.146171 
L 273.539235 50.698774 
L 273.793126 50.80929 
L 274.047016 49.261973 
L 274.300906 50.80929 
L 274.554796 49.593544 
L 274.808687 50.477742 
L 275.316467 49.261973 
L 275.570357 50.256687 
L 275.824248 50.256687 
L 276.078138 47.714655 
L 276.332028 50.256687 
L 276.585918 50.477742 
L 276.839809 48.819885 
L 277.093699 49.70406 
L 277.347589 48.377798 
L 277.601479 51.030346 
L 277.85537 51.472433 
L 278.10926 50.256687 
L 278.36315 51.251401 
L 278.61704 49.372512 
L 279.124821 49.814599 
L 279.378711 51.140862 
L 279.632601 50.91983 
L 279.886492 49.814599 
L 280.140382 50.698774 
L 280.394272 47.604139 
L 280.902053 52.135576 
L 281.155943 49.925116 
L 281.409833 50.256687 
L 281.663723 50.035632 
L 282.171504 48.377798 
L 282.425394 48.377798 
L 282.679284 50.91983 
L 282.933175 50.035632 
L 283.187065 48.377798 
L 283.440955 50.588258 
L 283.694845 49.040941 
L 283.948736 50.698774 
L 284.202626 48.709369 
L 284.456516 50.367203 
L 284.710406 48.156743 
L 284.964297 49.814599 
L 285.218187 50.588258 
L 285.725967 49.040941 
L 285.979858 51.361917 
L 286.233748 50.367203 
L 286.487638 51.693488 
L 286.995419 48.046227 
L 287.249309 49.261973 
L 287.503199 49.593544 
L 287.757089 49.151457 
L 288.01098 50.477742 
L 288.26487 48.59883 
L 288.51876 48.819885 
L 289.026541 51.361917 
L 289.534321 49.261973 
L 289.788212 50.035632 
L 290.042102 51.804004 
L 290.295992 51.361917 
L 290.549882 49.814599 
L 290.803773 49.261973 
L 291.057663 50.80929 
L 291.311553 48.156743 
L 291.565443 51.140862 
L 291.819334 51.251401 
L 292.073224 49.040941 
L 292.327114 51.251401 
L 292.581004 50.035632 
L 292.834895 51.140862 
L 293.342675 49.261973 
L 293.596565 48.709369 
L 293.850456 49.261973 
L 294.104346 48.819885 
L 294.358236 52.02506 
L 294.612126 51.251401 
L 294.866017 51.251401 
L 295.119907 48.819885 
L 295.373797 49.372512 
L 295.881578 51.361917 
L 296.135468 50.80929 
L 296.389358 48.930401 
L 296.643248 49.151457 
L 296.897139 49.040941 
L 297.151029 50.588258 
L 297.404919 50.146171 
L 297.658809 48.930401 
L 297.9127 49.483028 
L 298.16659 51.361917 
L 298.42048 49.925116 
L 298.67437 51.030346 
L 298.928261 50.698774 
L 299.182151 47.383084 
L 299.436041 48.377798 
L 299.689931 52.356631 
L 299.943822 49.814599 
L 300.197712 49.483028 
L 300.451602 49.593544 
L 300.705492 50.367203 
L 300.959383 48.930401 
L 301.467163 49.593544 
L 301.721053 50.80929 
L 301.974944 50.146171 
L 302.228834 49.925116 
L 302.482724 50.698774 
L 302.736614 48.377798 
L 302.990505 50.91983 
L 303.244395 51.361917 
L 303.498285 49.593544 
L 303.752175 50.477742 
L 304.006066 50.698774 
L 304.259956 48.819885 
L 304.513846 50.477742 
L 304.767736 46.719941 
L 305.021627 52.135576 
L 305.275517 50.256687 
L 305.529407 49.483028 
L 305.783298 50.146171 
L 306.291078 50.367203 
L 306.544968 47.825171 
L 306.798859 50.80929 
L 307.052749 52.02506 
L 307.306639 49.483028 
L 307.560529 49.70406 
L 307.81442 49.70406 
L 308.3222 48.267259 
L 308.57609 49.814599 
L 308.829981 50.256687 
L 309.337761 50.146171 
L 309.591651 51.693488 
L 309.845542 49.925116 
L 310.099432 50.698774 
L 310.099432 50.698774 
" clip-path="url(#p41cfedcf64)" style="fill: none; stroke: #0000ff; stroke-width: 0.6; stroke-linecap: square"/>
   </g>
   <g id="line2d_24">
    <path d="M 56.463068 230.299244 
L 56.716958 132.062615 
L 56.970849 167.38653 
L 57.224739 173.316831 
L 57.732519 130.515578 
L 57.98641 154.494584 
L 58.2403 230.299244 
L 58.49419 191.623407 
L 58.74808 102.153284 
L 59.001971 115.560901 
L 59.255861 99.574904 
L 59.509751 98.801385 
L 59.763641 93.386755 
L 60.017532 100.864094 
L 60.271422 118.397128 
L 60.525312 112.982521 
L 60.779202 99.574904 
L 61.033093 94.160274 
L 61.286983 102.153284 
L 61.540873 133.351805 
L 61.794764 96.222982 
L 62.048654 130.773402 
L 62.302544 123.811758 
L 62.556434 140.571296 
L 62.810325 94.418121 
L 63.064215 94.418121 
L 63.318105 101.121918 
L 63.571995 181.567689 
L 63.825886 115.818748 
L 64.079776 103.442474 
L 64.333666 150.11132 
L 64.587556 103.700321 
L 64.841447 127.937175 
L 65.095337 117.365785 
L 65.349227 215.34459 
L 65.857008 84.104555 
L 66.110898 93.644603 
L 66.364788 89.261338 
L 66.872569 86.425111 
L 67.126459 100.348423 
L 67.380349 97.77002 
L 67.634239 167.38653 
L 67.88813 122.522568 
L 68.14202 109.888446 
L 68.39591 230.299244 
L 68.6498 84.362403 
L 68.903691 83.073213 
L 69.157581 213.281881 
L 69.411471 95.19164 
L 69.665361 221.274891 
L 69.919252 123.296087 
L 70.427032 86.167264 
L 70.680922 104.989511 
L 70.934813 225.142461 
L 71.188703 120.202012 
L 71.442593 101.379765 
L 71.696483 230.04142 
L 71.950374 137.477222 
L 72.204264 203.226163 
L 72.458154 92.613237 
L 72.712044 214.828918 
L 72.965935 102.926802 
L 73.473715 88.229972 
L 73.727605 107.310067 
L 73.981496 82.815366 
L 74.235386 82.299694 
L 74.489276 94.418121 
L 74.743166 129.742059 
L 74.997057 96.222982 
L 75.250947 101.637613 
L 75.504837 101.379765 
L 75.758727 230.557091 
L 76.012618 109.630622 
L 76.266508 84.620227 
L 76.520398 106.536548 
L 76.774288 116.076595 
L 77.028179 82.041847 
L 77.282069 118.912822 
L 77.535959 204.7732 
L 77.78985 99.059209 
L 78.04374 94.675945 
L 78.29763 100.606247 
L 78.55152 230.299244 
L 78.805411 183.888244 
L 79.059301 186.208777 
L 79.313191 85.135921 
L 79.567081 104.989511 
L 79.820972 94.675945 
L 80.074862 212.508363 
L 80.328752 113.240368 
L 80.582642 117.107938 
L 80.836533 172.80116 
L 81.090423 87.972148 
L 81.344313 86.167264 
L 81.852094 111.693331 
L 82.359874 208.64077 
L 82.613764 134.898842 
L 82.867655 163.776784 
L 83.121545 123.038239 
L 83.375435 176.153058 
L 83.629325 98.285691 
L 83.883216 91.324047 
L 84.137106 102.668955 
L 84.390996 101.895436 
L 84.644886 164.034632 
L 84.898777 92.613237 
L 85.152667 104.989511 
L 85.406557 129.742059 
L 85.660447 81.784 
L 85.914338 82.299694 
L 86.168228 214.571071 
L 86.422118 95.965158 
L 86.676008 121.749049 
L 86.929899 108.857104 
L 87.183789 109.888446 
L 87.437679 99.059209 
L 87.691569 109.630622 
L 87.94546 91.839718 
L 88.19935 125.616619 
L 88.45324 82.815366 
L 88.70713 78.689949 
L 88.961021 105.505182 
L 89.214911 149.337825 
L 89.468801 81.526176 
L 89.722691 99.574904 
L 89.976582 106.536548 
L 90.230472 104.215992 
L 90.484362 84.362403 
L 90.738252 113.756039 
L 90.992143 85.651593 
L 91.246033 86.940782 
L 91.499923 93.386755 
L 91.753813 80.49481 
L 92.007704 132.320439 
L 92.261594 91.066199 
L 92.515484 95.449464 
L 92.769374 108.083585 
L 93.023265 79.979138 
L 93.277155 85.90944 
L 93.531045 80.49481 
L 93.784936 99.059209 
L 94.038826 105.505182 
L 94.292716 88.229972 
L 94.546606 86.425111 
L 94.800497 86.425111 
L 95.054387 219.727854 
L 95.308277 83.588884 
L 95.562167 156.81514 
L 95.816058 83.331037 
L 96.069948 97.77002 
L 96.323838 81.526176 
L 96.577728 101.895436 
L 96.831619 87.19863 
L 97.085509 132.578286 
L 97.339399 129.226365 
L 97.593289 213.024034 
L 97.84718 199.35857 
L 98.10107 103.442474 
L 98.35496 85.90944 
L 98.862741 79.463467 
L 99.116631 93.386755 
L 99.370521 160.940557 
L 99.624411 84.878074 
L 99.878302 106.536548 
L 100.132192 84.104555 
L 100.386082 80.752657 
L 100.639972 92.097565 
L 100.893863 96.738677 
L 101.147753 96.222982 
L 101.401643 100.348423 
L 101.655533 88.229972 
L 101.909424 94.933792 
L 102.163314 110.661965 
L 102.417204 79.721291 
L 102.671094 221.017044 
L 102.924985 92.613237 
L 103.432765 79.979138 
L 103.686655 83.073213 
L 103.940546 90.292681 
L 104.194436 167.644377 
L 104.448326 105.247358 
L 104.956107 87.972148 
L 105.209997 131.804768 
L 105.463887 94.160274 
L 105.717777 84.362403 
L 105.971668 86.425111 
L 106.225558 94.675945 
L 106.479448 83.073213 
L 106.733338 84.620227 
L 106.987229 80.49481 
L 107.241119 87.19863 
L 107.495009 183.114726 
L 107.748899 85.651593 
L 108.00279 80.752657 
L 108.25668 103.700321 
L 108.51057 82.557518 
L 108.76446 83.073213 
L 109.018351 113.498192 
L 109.272241 81.526176 
L 109.526131 115.045229 
L 109.780021 86.940782 
L 110.033912 82.557518 
L 110.541692 97.254348 
L 110.795583 94.933792 
L 111.049473 153.463242 
L 111.303363 84.878074 
L 111.557253 98.027867 
L 111.811144 87.714301 
L 112.065034 181.052017 
L 112.318924 81.010481 
L 112.572814 89.261338 
L 112.826705 93.644603 
L 113.080595 90.292681 
L 113.334485 132.578286 
L 113.588375 81.526176 
L 113.842266 94.675945 
L 114.096156 83.846708 
L 114.350046 88.48782 
L 114.603936 90.034857 
L 114.857827 93.902427 
L 115.111717 93.128931 
L 115.365607 102.926802 
L 115.619497 85.135921 
L 115.873388 90.292681 
L 116.127278 99.317057 
L 116.381168 86.425111 
L 116.635058 110.661965 
L 116.888949 116.334419 
L 117.142839 86.682935 
L 117.396729 88.745667 
L 117.650619 96.222982 
L 117.90451 84.878074 
L 118.1584 82.815366 
L 118.41229 83.073213 
L 118.66618 86.167264 
L 118.920071 86.425111 
L 119.173961 87.456454 
L 119.427851 82.815366 
L 119.681741 125.616619 
L 119.935632 85.393745 
L 120.189522 86.682935 
L 120.443412 109.372775 
L 120.697302 92.613237 
L 120.951193 88.48782 
L 121.205083 90.550528 
L 121.458973 81.268328 
L 121.712863 89.003491 
L 121.966754 83.846708 
L 122.220644 81.784 
L 122.474534 86.682935 
L 122.728424 80.236962 
L 122.982315 85.90944 
L 123.236205 89.003491 
L 123.490095 81.526176 
L 123.743985 84.362403 
L 123.997876 82.299694 
L 124.251766 78.689949 
L 124.759546 86.167264 
L 125.013437 110.919812 
L 125.267327 83.331037 
L 125.521217 86.940782 
L 125.775107 86.940782 
L 126.028998 81.526176 
L 126.282888 85.393745 
L 126.790669 82.557518 
L 127.044559 83.846708 
L 127.298449 83.846708 
L 127.552339 95.19164 
L 127.80623 90.550528 
L 128.06012 81.268328 
L 128.5679 90.292681 
L 128.821791 92.613237 
L 129.075681 93.386755 
L 129.329571 115.818748 
L 129.583461 82.041847 
L 129.837352 81.010481 
L 130.091242 83.846708 
L 130.345132 98.543538 
L 130.599022 86.167264 
L 130.852913 85.651593 
L 131.106803 85.393745 
L 131.360693 87.714301 
L 131.614583 83.331037 
L 132.122364 87.714301 
L 132.376254 82.557518 
L 132.630144 81.268328 
L 132.884035 85.90944 
L 133.137925 86.940782 
L 133.391815 81.526176 
L 133.645705 86.167264 
L 133.899596 86.167264 
L 134.153486 82.557518 
L 134.407376 86.167264 
L 134.915157 87.972148 
L 135.169047 86.167264 
L 135.422937 97.77002 
L 135.676827 83.331037 
L 135.930718 86.167264 
L 136.184608 83.073213 
L 136.438498 87.19863 
L 136.692388 82.041847 
L 136.946279 81.784 
L 137.200169 82.557518 
L 137.454059 85.90944 
L 137.707949 84.362403 
L 137.96184 88.745667 
L 138.21573 85.90944 
L 138.46962 86.940782 
L 138.72351 86.425111 
L 138.977401 87.972148 
L 139.485181 82.557518 
L 139.739071 83.073213 
L 139.992962 86.425111 
L 140.246852 84.362403 
L 140.500742 81.268328 
L 140.754632 88.48782 
L 141.008523 83.073213 
L 141.262413 84.104555 
L 141.516303 83.588884 
L 141.770193 89.261338 
L 142.024084 84.620227 
L 142.277974 82.299694 
L 142.531864 81.268328 
L 142.785755 86.682935 
L 143.293535 84.878074 
L 143.547425 86.425111 
L 143.801316 82.041847 
L 144.055206 84.104555 
L 144.309096 81.784 
L 144.562986 86.940782 
L 144.816877 86.425111 
L 145.070767 83.073213 
L 145.324657 84.104555 
L 145.578547 88.229972 
L 145.832438 87.456454 
L 146.086328 86.167264 
L 146.340218 83.073213 
L 146.594108 86.425111 
L 146.847999 81.784 
L 147.101889 89.003491 
L 147.355779 81.784 
L 147.609669 83.073213 
L 147.86356 82.299694 
L 148.11745 85.90944 
L 148.37134 81.010481 
L 148.62523 89.519186 
L 148.879121 83.846708 
L 149.133011 83.331037 
L 149.386901 84.362403 
L 149.640791 87.456454 
L 149.894682 83.846708 
L 150.148572 87.714301 
L 150.402462 82.815366 
L 150.656352 83.073213 
L 150.910243 86.682935 
L 151.164133 83.073213 
L 151.418023 82.557518 
L 151.671913 85.393745 
L 151.925804 85.90944 
L 152.179694 81.784 
L 152.433584 81.010481 
L 152.687474 86.167264 
L 152.941365 80.49481 
L 153.195255 84.362403 
L 153.449145 83.073213 
L 153.703035 82.815366 
L 153.956926 87.19863 
L 154.210816 87.972148 
L 154.464706 82.041847 
L 155.226377 85.135921 
L 155.480267 85.135921 
L 155.734157 85.393745 
L 155.988048 84.620227 
L 156.241938 85.135921 
L 156.495828 83.588884 
L 156.749718 82.815366 
L 157.003609 85.651593 
L 157.257499 84.362403 
L 157.511389 86.425111 
L 157.765279 82.815366 
L 158.01917 87.456454 
L 158.52695 83.073213 
L 158.78084 83.588884 
L 159.034731 83.588884 
L 159.288621 83.846708 
L 159.542511 83.846708 
L 160.050292 84.878074 
L 160.304182 84.620227 
L 160.558072 85.135921 
L 160.811963 84.620227 
L 161.065853 82.557518 
L 161.319743 83.588884 
L 161.573633 82.815366 
L 161.827524 83.331037 
L 162.081414 84.104555 
L 162.335304 83.331037 
L 162.589194 86.167264 
L 163.096975 82.815366 
L 163.604755 85.135921 
L 163.858646 84.878074 
L 164.112536 83.331037 
L 164.366426 83.846708 
L 164.620316 84.620227 
L 164.874207 83.846708 
L 165.128097 85.651593 
L 165.381987 83.846708 
L 165.635877 84.104555 
L 165.889768 86.425111 
L 166.143658 83.331037 
L 166.651438 85.651593 
L 166.905329 83.073213 
L 167.159219 89.519186 
L 167.413109 86.940782 
L 167.666999 83.073213 
L 167.92089 84.620227 
L 168.17478 84.620227 
L 168.42867 86.682935 
L 168.936451 82.557518 
L 169.444231 86.940782 
L 169.698121 84.878074 
L 169.952012 86.425111 
L 170.205902 85.135921 
L 170.459792 84.620227 
L 170.713682 83.331037 
L 171.221463 86.940782 
L 171.475353 84.878074 
L 171.729243 86.682935 
L 171.983134 84.104555 
L 172.237024 85.90944 
L 172.744804 83.846708 
L 172.998695 86.940782 
L 173.252585 84.104555 
L 173.506475 84.620227 
L 173.760365 84.104555 
L 174.014256 84.878074 
L 174.268146 86.682935 
L 174.522036 84.362403 
L 174.775926 84.620227 
L 175.029817 85.90944 
L 175.283707 85.393745 
L 175.537597 85.393745 
L 175.791488 85.651593 
L 176.045378 83.331037 
L 176.299268 86.425111 
L 176.807049 82.299694 
L 177.060939 85.135921 
L 177.314829 84.104555 
L 177.568719 85.393745 
L 177.82261 85.651593 
L 178.0765 83.588884 
L 178.33039 86.167264 
L 178.58428 85.651593 
L 178.838171 85.651593 
L 179.092061 87.714301 
L 179.345951 87.714301 
L 179.599841 85.651593 
L 179.853732 85.393745 
L 180.107622 85.90944 
L 180.361512 84.362403 
L 180.869293 85.393745 
L 181.377073 85.393745 
L 181.630963 85.90944 
L 181.884854 85.90944 
L 182.138744 84.362403 
L 182.392634 85.90944 
L 182.646524 84.878074 
L 182.900415 85.651593 
L 183.154305 84.620227 
L 183.408195 84.620227 
L 183.915976 86.425111 
L 184.169866 85.90944 
L 184.423756 87.19863 
L 185.185427 84.104555 
L 185.439317 85.135921 
L 185.693207 85.135921 
L 185.947098 85.90944 
L 186.454878 84.620227 
L 186.708768 85.393745 
L 186.962659 85.651593 
L 187.216549 86.167264 
L 187.470439 85.651593 
L 187.724329 86.425111 
L 187.97822 85.90944 
L 188.23211 86.167264 
L 188.486 86.167264 
L 188.73989 85.651593 
L 188.993781 85.393745 
L 189.247671 85.651593 
L 189.501561 85.393745 
L 189.755451 85.651593 
L 190.009342 85.393745 
L 190.263232 86.167264 
L 190.771012 84.878074 
L 191.024903 87.19863 
L 191.278793 86.940782 
L 191.532683 86.425111 
L 191.786574 86.425111 
L 192.294354 85.393745 
L 192.548244 86.167264 
L 192.802135 84.878074 
L 193.056025 85.651593 
L 193.309915 85.90944 
L 193.563805 85.90944 
L 194.071586 85.393745 
L 194.325476 86.167264 
L 194.579366 85.651593 
L 194.833257 86.167264 
L 195.087147 86.167264 
L 195.341037 85.90944 
L 195.594927 85.393745 
L 195.848818 85.393745 
L 196.102708 85.90944 
L 196.356598 85.651593 
L 196.610488 85.135921 
L 196.864379 86.167264 
L 197.118269 85.651593 
L 197.372159 85.90944 
L 197.626049 85.651593 
L 197.87994 85.651593 
L 198.38772 86.167264 
L 198.64161 85.90944 
L 198.895501 86.167264 
L 199.149391 86.167264 
L 199.403281 85.90944 
L 199.657171 86.940782 
L 199.911062 86.425111 
L 200.418842 84.620227 
L 200.672732 85.90944 
L 200.926623 86.167264 
L 201.180513 85.135921 
L 201.434403 85.90944 
L 201.688293 86.167264 
L 202.449964 85.393745 
L 202.703854 86.167264 
L 202.957745 85.90944 
L 203.211635 86.425111 
L 203.465525 86.682935 
L 203.719415 87.19863 
L 203.973306 86.425111 
L 204.227196 86.682935 
L 204.481086 85.393745 
L 204.734976 85.90944 
L 204.988867 85.393745 
L 205.242757 85.651593 
L 205.496647 86.167264 
L 205.750537 86.940782 
L 206.258318 85.651593 
L 206.512208 85.90944 
L 206.766098 85.135921 
L 207.019989 85.135921 
L 207.273879 85.651593 
L 207.527769 84.620227 
L 207.78166 85.135921 
L 208.28944 85.135921 
L 208.54333 85.651593 
L 208.797221 85.90944 
L 209.051111 85.651593 
L 209.305001 85.651593 
L 209.558891 86.167264 
L 209.812782 86.425111 
L 210.574452 86.425111 
L 210.828343 85.90944 
L 211.082233 85.90944 
L 211.336123 85.393745 
L 211.590013 86.682935 
L 211.843904 86.167264 
L 212.097794 85.393745 
L 212.351684 86.425111 
L 212.605574 86.167264 
L 212.859465 85.135921 
L 213.113355 86.167264 
L 213.367245 86.682935 
L 213.621135 85.651593 
L 213.875026 85.135921 
L 214.128916 85.135921 
L 214.382806 86.167264 
L 214.890587 86.167264 
L 215.144477 86.425111 
L 215.652257 85.393745 
L 215.906148 85.90944 
L 216.413928 87.19863 
L 216.921709 85.90944 
L 217.175599 86.425111 
L 217.429489 86.425111 
L 217.683379 86.167264 
L 217.93727 86.682935 
L 218.19116 86.425111 
L 218.44505 86.425111 
L 218.952831 85.393745 
L 219.206721 86.425111 
L 219.714501 85.90944 
L 219.968392 85.90944 
L 220.222282 85.651593 
L 220.476172 86.425111 
L 220.983953 85.393745 
L 221.237843 85.135921 
L 221.491733 85.651593 
L 221.745623 86.682935 
L 221.999514 85.90944 
L 222.253404 85.651593 
L 222.507294 85.651593 
L 222.761184 85.393745 
L 223.015075 85.90944 
L 223.268965 85.651593 
L 223.522855 84.878074 
L 223.776745 84.878074 
L 224.030636 85.90944 
L 224.284526 85.90944 
L 224.538416 86.167264 
L 224.792307 85.90944 
L 225.300087 85.90944 
L 225.553977 86.167264 
L 225.807868 85.90944 
L 226.315648 85.90944 
L 226.569538 85.393745 
L 226.823429 85.651593 
L 227.077319 85.135921 
L 227.331209 85.90944 
L 227.585099 85.90944 
L 227.83899 85.135921 
L 228.09288 85.651593 
L 228.34677 85.651593 
L 228.60066 86.167264 
L 228.854551 86.167264 
L 229.108441 85.651593 
L 229.362331 86.167264 
L 229.616221 85.393745 
L 229.870112 85.90944 
L 230.124002 85.90944 
L 230.377892 86.682935 
L 230.631782 85.393745 
L 230.885673 85.393745 
L 231.139563 85.651593 
L 231.393453 85.393745 
L 231.647343 84.878074 
L 231.901234 84.620227 
L 232.155124 85.651593 
L 232.409014 85.393745 
L 232.662904 85.393745 
L 232.916795 85.651593 
L 233.170685 85.651593 
L 233.424575 85.90944 
L 233.678465 85.651593 
L 233.932356 85.651593 
L 234.186246 85.90944 
L 234.440136 85.651593 
L 234.694026 85.651593 
L 234.947917 85.90944 
L 235.201807 85.651593 
L 235.455697 85.651593 
L 235.709587 86.167264 
L 235.963478 85.393745 
L 236.217368 85.90944 
L 236.471258 86.167264 
L 236.725148 85.90944 
L 236.979039 86.167264 
L 237.232929 85.651593 
L 237.486819 86.167264 
L 237.740709 85.90944 
L 238.24849 85.90944 
L 238.50238 85.393745 
L 238.75627 85.90944 
L 239.264051 85.393745 
L 239.517941 85.651593 
L 239.771831 85.135921 
L 240.279612 85.651593 
L 240.787393 85.651593 
L 241.295173 85.135921 
L 241.549063 85.90944 
L 242.056844 84.878074 
L 242.310734 85.651593 
L 242.564624 85.393745 
L 242.818515 85.90944 
L 243.072405 86.167264 
L 243.326295 86.167264 
L 243.580185 84.878074 
L 243.834076 85.90944 
L 244.087966 86.167264 
L 245.103527 86.167264 
L 245.357417 86.425111 
L 245.611307 86.425111 
L 245.865198 85.90944 
L 246.372978 86.425111 
L 246.626868 86.167264 
L 247.134649 86.167264 
L 247.388539 85.90944 
L 247.89632 85.90944 
L 248.15021 86.167264 
L 248.65799 86.167264 
L 248.911881 85.90944 
L 249.165771 86.167264 
L 249.673551 86.167264 
L 249.927442 85.90944 
L 250.181332 86.167264 
L 251.450783 86.167264 
L 251.704673 85.90944 
L 251.958564 86.167264 
L 252.974125 86.167264 
L 253.228015 85.90944 
L 253.481905 86.167264 
L 253.735795 85.90944 
L 255.005247 85.90944 
L 255.259137 85.651593 
L 255.513027 85.651593 
L 255.766917 85.90944 
L 256.020808 85.90944 
L 256.274698 86.167264 
L 256.528588 85.651593 
L 256.782479 85.393745 
L 257.036369 86.167264 
L 257.290259 85.651593 
L 257.544149 85.90944 
L 257.79804 85.651593 
L 258.05193 85.90944 
L 258.30582 85.135921 
L 258.55971 86.167264 
L 258.813601 85.90944 
L 259.575271 85.90944 
L 259.829162 84.878074 
L 260.083052 86.167264 
L 260.336942 85.651593 
L 260.590832 85.90944 
L 260.844723 85.651593 
L 261.352503 86.167264 
L 261.860284 86.167264 
L 262.114174 85.651593 
L 262.368064 85.90944 
L 264.399186 85.90944 
L 264.653076 86.167264 
L 264.906967 85.90944 
L 265.160857 86.425111 
L 265.414747 85.90944 
L 265.922528 85.90944 
L 266.176418 86.167264 
L 266.684198 86.167264 
L 266.938089 85.90944 
L 267.191979 86.167264 
L 267.445869 86.167264 
L 267.699759 85.393745 
L 267.95365 86.167264 
L 268.20754 86.167264 
L 268.46143 85.90944 
L 268.71532 86.167264 
L 268.969211 86.167264 
L 269.223101 85.90944 
L 269.476991 86.167264 
L 269.730881 85.90944 
L 270.238662 85.90944 
L 270.492552 86.167264 
L 270.746442 85.90944 
L 271.000333 85.90944 
L 271.254223 86.167264 
L 271.762003 86.167264 
L 272.015894 85.90944 
L 272.269784 85.90944 
L 272.523674 86.167264 
L 272.777564 85.90944 
L 273.031455 85.90944 
L 273.285345 86.167264 
L 273.539235 86.167264 
L 273.793126 85.90944 
L 274.300906 85.90944 
L 274.554796 86.167264 
L 274.808687 85.90944 
L 275.062577 85.90944 
L 275.316467 86.167264 
L 275.570357 86.167264 
L 275.824248 85.651593 
L 276.585918 85.651593 
L 276.839809 85.90944 
L 277.093699 85.393745 
L 277.347589 85.90944 
L 277.601479 85.90944 
L 277.85537 85.651593 
L 278.10926 86.167264 
L 280.140382 86.167264 
L 280.394272 86.425111 
L 280.648162 86.167264 
L 282.171504 86.167264 
L 282.425394 85.651593 
L 282.679284 86.167264 
L 282.933175 85.90944 
L 283.187065 86.167264 
L 285.218187 86.167264 
L 285.472077 85.90944 
L 285.979858 85.90944 
L 286.233748 86.167264 
L 287.249309 86.167264 
L 287.503199 85.90944 
L 287.757089 86.425111 
L 288.01098 85.90944 
L 288.26487 85.90944 
L 288.51876 86.167264 
L 290.042102 86.167264 
L 290.295992 86.425111 
L 290.549882 86.167264 
L 291.057663 86.167264 
L 291.311553 85.90944 
L 291.565443 86.167264 
L 292.073224 86.167264 
L 292.327114 85.90944 
L 292.581004 86.167264 
L 292.834895 86.167264 
L 293.088785 85.90944 
L 293.342675 85.90944 
L 293.596565 86.167264 
L 294.358236 86.167264 
L 294.612126 85.135921 
L 294.866017 86.167264 
L 295.119907 85.90944 
L 296.389358 85.90944 
L 296.643248 86.167264 
L 299.943822 86.167264 
L 300.197712 86.425111 
L 300.451602 85.90944 
L 300.959383 85.90944 
L 301.213273 86.167264 
L 302.228834 86.167264 
L 302.482724 85.90944 
L 302.736614 85.90944 
L 302.990505 86.167264 
L 303.244395 86.167264 
L 303.498285 85.90944 
L 304.767736 85.90944 
L 305.021627 86.167264 
L 305.529407 85.651593 
L 305.783298 85.651593 
L 306.291078 86.167264 
L 306.544968 85.90944 
L 306.798859 85.90944 
L 307.306639 85.393745 
L 307.560529 85.90944 
L 308.57609 85.90944 
L 308.829981 86.167264 
L 309.337761 86.167264 
L 309.591651 85.90944 
L 309.845542 86.167264 
L 310.099432 86.167264 
L 310.099432 86.167264 
" clip-path="url(#p41cfedcf64)" style="fill: none; stroke: #ff0000; stroke-width: 0.6; stroke-linecap: square"/>
   </g>
   <g id="patch_3">
    <path d="M 43.78125 239.76 
L 43.78125 37.296 
" style="fill: none; stroke: #000000; stroke-width: 0.8; stroke-linejoin: miter; stroke-linecap: square"/>
   </g>
   <g id="patch_4">
    <path d="M 322.78125 239.76 
L 322.78125 37.296 
" style="fill: none; stroke: #000000; stroke-width: 0.8; stroke-linejoin: miter; stroke-linecap: square"/>
   </g>
   <g id="patch_5">
    <path d="M 43.78125 239.76 
L 322.78125 239.76 
" style="fill: none; stroke: #000000; stroke-width: 0.8; stroke-linejoin: miter; stroke-linecap: square"/>
   </g>
   <g id="patch_6">
    <path d="M 43.78125 37.296 
L 322.78125 37.296 
" style="fill: none; stroke: #000000; stroke-width: 0.8; stroke-linejoin: miter; stroke-linecap: square"/>
   </g>
   <g id="text_14">
    <!-- Quantized-16 Model -->
    <g transform="translate(137.983828 31.296) scale(0.09 -0.09)">
     <defs>
      <path id="DejaVuSans-51" d="M 2522 4238 
Q 1834 4238 1429 3725 
Q 1025 3213 1025 2328 
Q 1025 1447 1429 934 
Q 1834 422 2522 422 
Q 3209 422 3611 934 
Q 4013 1447 4013 2328 
Q 4013 3213 3611 3725 
Q 3209 4238 2522 4238 
z
M 3406 84 
L 4238 -825 
L 3475 -825 
L 2784 -78 
Q 2681 -84 2626 -87 
Q 2572 -91 2522 -91 
Q 1538 -91 948 567 
Q 359 1225 359 2328 
Q 359 3434 948 4092 
Q 1538 4750 2522 4750 
Q 3503 4750 4090 4092 
Q 4678 3434 4678 2328 
Q 4678 1516 4351 937 
Q 4025 359 3406 84 
z
" transform="scale(0.015625)"/>
      <path id="DejaVuSans-6e" d="M 3513 2113 
L 3513 0 
L 2938 0 
L 2938 2094 
Q 2938 2591 2744 2837 
Q 2550 3084 2163 3084 
Q 1697 3084 1428 2787 
Q 1159 2491 1159 1978 
L 1159 0 
L 581 0 
L 581 3500 
L 1159 3500 
L 1159 2956 
Q 1366 3272 1645 3428 
Q 1925 3584 2291 3584 
Q 2894 3584 3203 3211 
Q 3513 2838 3513 2113 
z
" transform="scale(0.015625)"/>
      <path id="DejaVuSans-74" d="M 1172 4494 
L 1172 3500 
L 2356 3500 
L 2356 3053 
L 1172 3053 
L 1172 1153 
Q 1172 725 1289 603 
Q 1406 481 1766 481 
L 2356 481 
L 2356 0 
L 1766 0 
Q 1100 0 847 248 
Q 594 497 594 1153 
L 594 3053 
L 172 3053 
L 172 3500 
L 594 3500 
L 594 4494 
L 1172 4494 
z
" transform="scale(0.015625)"/>
      <path id="DejaVuSans-69" d="M 603 3500 
L 1178 3500 
L 1178 0 
L 603 0 
L 603 3500 
z
M 603 4863 
L 1178 4863 
L 1178 4134 
L 603 4134 
L 603 4863 
z
" transform="scale(0.015625)"/>
      <path id="DejaVuSans-7a" d="M 353 3500 
L 3084 3500 
L 3084 2975 
L 922 459 
L 3084 459 
L 3084 0 
L 275 0 
L 275 525 
L 2438 3041 
L 353 3041 
L 353 3500 
z
" transform="scale(0.015625)"/>
      <path id="DejaVuSans-65" d="M 3597 1894 
L 3597 1613 
L 953 1613 
Q 991 1019 1311 708 
Q 1631 397 2203 397 
Q 2534 397 2845 478 
Q 3156 559 3463 722 
L 3463 178 
Q 3153 47 2828 -22 
Q 2503 -91 2169 -91 
Q 1331 -91 842 396 
Q 353 884 353 1716 
Q 353 2575 817 3079 
Q 1281 3584 2069 3584 
Q 2775 3584 3186 3129 
Q 3597 2675 3597 1894 
z
M 3022 2063 
Q 3016 2534 2758 2815 
Q 2500 3097 2075 3097 
Q 1594 3097 1305 2825 
Q 1016 2553 972 2059 
L 3022 2063 
z
" transform="scale(0.015625)"/>
      <path id="DejaVuSans-64" d="M 2906 2969 
L 2906 4863 
L 3481 4863 
L 3481 0 
L 2906 0 
L 2906 525 
Q 2725 213 2448 61 
Q 2172 -91 1784 -91 
Q 1150 -91 751 415 
Q 353 922 353 1747 
Q 353 2572 751 3078 
Q 1150 3584 1784 3584 
Q 2172 3584 2448 3432 
Q 2725 3281 2906 2969 
z
M 947 1747 
Q 947 1113 1208 752 
Q 1469 391 1925 391 
Q 2381 391 2643 752 
Q 2906 1113 2906 1747 
Q 2906 2381 2643 2742 
Q 2381 3103 1925 3103 
Q 1469 3103 1208 2742 
Q 947 2381 947 1747 
z
" transform="scale(0.015625)"/>
      <path id="DejaVuSans-2d" d="M 313 2009 
L 1997 2009 
L 1997 1497 
L 313 1497 
L 313 2009 
z
" transform="scale(0.015625)"/>
      <path id="DejaVuSans-20" transform="scale(0.015625)"/>
      <path id="DejaVuSans-4d" d="M 628 4666 
L 1569 4666 
L 2759 1491 
L 3956 4666 
L 4897 4666 
L 4897 0 
L 4281 0 
L 4281 4097 
L 3078 897 
L 2444 897 
L 1241 4097 
L 1241 0 
L 628 0 
L 628 4666 
z
" transform="scale(0.015625)"/>
      <path id="DejaVuSans-6c" d="M 603 4863 
L 1178 4863 
L 1178 0 
L 603 0 
L 603 4863 
z
" transform="scale(0.015625)"/>
     </defs>
     <use xlink:href="#DejaVuSans-51"/>
     <use xlink:href="#DejaVuSans-75" x="78.710938"/>
     <use xlink:href="#DejaVuSans-61" x="142.089844"/>
     <use xlink:href="#DejaVuSans-6e" x="203.369141"/>
     <use xlink:href="#DejaVuSans-74" x="266.748047"/>
     <use xlink:href="#DejaVuSans-69" x="305.957031"/>
     <use xlink:href="#DejaVuSans-7a" x="333.740234"/>
     <use xlink:href="#DejaVuSans-65" x="386.230469"/>
     <use xlink:href="#DejaVuSans-64" x="447.753906"/>
     <use xlink:href="#DejaVuSans-2d" x="511.230469"/>
     <use xlink:href="#DejaVuSans-31" x="547.314453"/>
     <use xlink:href="#DejaVuSans-36" x="610.9375"/>
     <use xlink:href="#DejaVuSans-20" x="674.560547"/>
     <use xlink:href="#DejaVuSans-4d" x="706.347656"/>
     <use xlink:href="#DejaVuSans-6f" x="792.626953"/>
     <use xlink:href="#DejaVuSans-64" x="853.808594"/>
     <use xlink:href="#DejaVuSans-65" x="917.285156"/>
     <use xlink:href="#DejaVuSans-6c" x="978.808594"/>
    </g>
   </g>
   <g id="legend_1">
    <g id="patch_7">
     <path d="M 185.565625 234.76 
L 315.78125 234.76 
Q 317.78125 234.76 317.78125 232.76 
L 317.78125 204.40375 
Q 317.78125 202.40375 315.78125 202.40375 
L 185.565625 202.40375 
Q 183.565625 202.40375 183.565625 204.40375 
L 183.565625 232.76 
Q 183.565625 234.76 185.565625 234.76 
z
" style="fill: #ffffff; opacity: 0.8; stroke: #cccccc; stroke-linejoin: miter"/>
    </g>
    <g id="line2d_25">
     <path d="M 187.565625 210.502187 
L 197.565625 210.502187 
L 207.565625 210.502187 
" style="fill: none; stroke: #0000ff; stroke-width: 0.6; stroke-linecap: square"/>
    </g>
    <g id="text_15">
     <!-- Training Accuracy -->
     <g transform="translate(215.565625 214.002187) scale(0.1 -0.1)">
      <defs>
       <path id="DejaVuSans-54" d="M -19 4666 
L 3928 4666 
L 3928 4134 
L 2272 4134 
L 2272 0 
L 1638 0 
L 1638 4134 
L -19 4134 
L -19 4666 
z
" transform="scale(0.015625)"/>
       <path id="DejaVuSans-67" d="M 2906 1791 
Q 2906 2416 2648 2759 
Q 2391 3103 1925 3103 
Q 1463 3103 1205 2759 
Q 947 2416 947 1791 
Q 947 1169 1205 825 
Q 1463 481 1925 481 
Q 2391 481 2648 825 
Q 2906 1169 2906 1791 
z
M 3481 434 
Q 3481 -459 3084 -895 
Q 2688 -1331 1869 -1331 
Q 1566 -1331 1297 -1286 
Q 1028 -1241 775 -1147 
L 775 -588 
Q 1028 -725 1275 -790 
Q 1522 -856 1778 -856 
Q 2344 -856 2625 -561 
Q 2906 -266 2906 331 
L 2906 616 
Q 2728 306 2450 153 
Q 2172 0 1784 0 
Q 1141 0 747 490 
Q 353 981 353 1791 
Q 353 2603 747 3093 
Q 1141 3584 1784 3584 
Q 2172 3584 2450 3431 
Q 2728 3278 2906 2969 
L 2906 3500 
L 3481 3500 
L 3481 434 
z
" transform="scale(0.015625)"/>
      </defs>
      <use xlink:href="#DejaVuSans-54"/>
      <use xlink:href="#DejaVuSans-72" x="46.333984"/>
      <use xlink:href="#DejaVuSans-61" x="87.447266"/>
      <use xlink:href="#DejaVuSans-69" x="148.726562"/>
      <use xlink:href="#DejaVuSans-6e" x="176.509766"/>
      <use xlink:href="#DejaVuSans-69" x="239.888672"/>
      <use xlink:href="#DejaVuSans-6e" x="267.671875"/>
      <use xlink:href="#DejaVuSans-67" x="331.050781"/>
      <use xlink:href="#DejaVuSans-20" x="394.527344"/>
      <use xlink:href="#DejaVuSans-41" x="426.314453"/>
      <use xlink:href="#DejaVuSans-63" x="492.972656"/>
      <use xlink:href="#DejaVuSans-63" x="547.953125"/>
      <use xlink:href="#DejaVuSans-75" x="602.933594"/>
      <use xlink:href="#DejaVuSans-72" x="666.3125"/>
      <use xlink:href="#DejaVuSans-61" x="707.425781"/>
      <use xlink:href="#DejaVuSans-63" x="768.705078"/>
      <use xlink:href="#DejaVuSans-79" x="823.685547"/>
     </g>
    </g>
    <g id="line2d_26">
     <path d="M 187.565625 225.180312 
L 197.565625 225.180312 
L 207.565625 225.180312 
" style="fill: none; stroke: #ff0000; stroke-width: 0.6; stroke-linecap: square"/>
    </g>
    <g id="text_16">
     <!-- Validation Accuracy -->
     <g transform="translate(215.565625 228.680312) scale(0.1 -0.1)">
      <defs>
       <path id="DejaVuSans-56" d="M 1831 0 
L 50 4666 
L 709 4666 
L 2188 738 
L 3669 4666 
L 4325 4666 
L 2547 0 
L 1831 0 
z
" transform="scale(0.015625)"/>
      </defs>
      <use xlink:href="#DejaVuSans-56"/>
      <use xlink:href="#DejaVuSans-61" x="60.658203"/>
      <use xlink:href="#DejaVuSans-6c" x="121.9375"/>
      <use xlink:href="#DejaVuSans-69" x="149.720703"/>
      <use xlink:href="#DejaVuSans-64" x="177.503906"/>
      <use xlink:href="#DejaVuSans-61" x="240.980469"/>
      <use xlink:href="#DejaVuSans-74" x="302.259766"/>
      <use xlink:href="#DejaVuSans-69" x="341.46875"/>
      <use xlink:href="#DejaVuSans-6f" x="369.251953"/>
      <use xlink:href="#DejaVuSans-6e" x="430.433594"/>
      <use xlink:href="#DejaVuSans-20" x="493.8125"/>
      <use xlink:href="#DejaVuSans-41" x="525.599609"/>
      <use xlink:href="#DejaVuSans-63" x="592.257812"/>
      <use xlink:href="#DejaVuSans-63" x="647.238281"/>
      <use xlink:href="#DejaVuSans-75" x="702.21875"/>
      <use xlink:href="#DejaVuSans-72" x="765.597656"/>
      <use xlink:href="#DejaVuSans-61" x="806.710938"/>
      <use xlink:href="#DejaVuSans-63" x="867.990234"/>
      <use xlink:href="#DejaVuSans-79" x="922.970703"/>
     </g>
    </g>
   </g>
  </g>
  <g id="text_17">
   <!-- Training VS. Validation Accuracy - Dataset Size = 100.0% -->
   <g transform="translate(21.433984 15.558281) scale(0.11 -0.11)">
    <defs>
     <path id="DejaVuSans-53" d="M 3425 4513 
L 3425 3897 
Q 3066 4069 2747 4153 
Q 2428 4238 2131 4238 
Q 1616 4238 1336 4038 
Q 1056 3838 1056 3469 
Q 1056 3159 1242 3001 
Q 1428 2844 1947 2747 
L 2328 2669 
Q 3034 2534 3370 2195 
Q 3706 1856 3706 1288 
Q 3706 609 3251 259 
Q 2797 -91 1919 -91 
Q 1588 -91 1214 -16 
Q 841 59 441 206 
L 441 856 
Q 825 641 1194 531 
Q 1563 422 1919 422 
Q 2459 422 2753 634 
Q 3047 847 3047 1241 
Q 3047 1584 2836 1778 
Q 2625 1972 2144 2069 
L 1759 2144 
Q 1053 2284 737 2584 
Q 422 2884 422 3419 
Q 422 4038 858 4394 
Q 1294 4750 2059 4750 
Q 2388 4750 2728 4690 
Q 3069 4631 3425 4513 
z
" transform="scale(0.015625)"/>
     <path id="DejaVuSans-44" d="M 1259 4147 
L 1259 519 
L 2022 519 
Q 2988 519 3436 956 
Q 3884 1394 3884 2338 
Q 3884 3275 3436 3711 
Q 2988 4147 2022 4147 
L 1259 4147 
z
M 628 4666 
L 1925 4666 
Q 3281 4666 3915 4102 
Q 4550 3538 4550 2338 
Q 4550 1131 3912 565 
Q 3275 0 1925 0 
L 628 0 
L 628 4666 
z
" transform="scale(0.015625)"/>
     <path id="DejaVuSans-3d" d="M 678 2906 
L 4684 2906 
L 4684 2381 
L 678 2381 
L 678 2906 
z
M 678 1631 
L 4684 1631 
L 4684 1100 
L 678 1100 
L 678 1631 
z
" transform="scale(0.015625)"/>
     <path id="DejaVuSans-25" d="M 4653 2053 
Q 4381 2053 4226 1822 
Q 4072 1591 4072 1178 
Q 4072 772 4226 539 
Q 4381 306 4653 306 
Q 4919 306 5073 539 
Q 5228 772 5228 1178 
Q 5228 1588 5073 1820 
Q 4919 2053 4653 2053 
z
M 4653 2450 
Q 5147 2450 5437 2106 
Q 5728 1763 5728 1178 
Q 5728 594 5436 251 
Q 5144 -91 4653 -91 
Q 4153 -91 3862 251 
Q 3572 594 3572 1178 
Q 3572 1766 3864 2108 
Q 4156 2450 4653 2450 
z
M 1428 4353 
Q 1159 4353 1004 4120 
Q 850 3888 850 3481 
Q 850 3069 1003 2837 
Q 1156 2606 1428 2606 
Q 1700 2606 1854 2837 
Q 2009 3069 2009 3481 
Q 2009 3884 1853 4118 
Q 1697 4353 1428 4353 
z
M 4250 4750 
L 4750 4750 
L 1831 -91 
L 1331 -91 
L 4250 4750 
z
M 1428 4750 
Q 1922 4750 2215 4408 
Q 2509 4066 2509 3481 
Q 2509 2891 2217 2550 
Q 1925 2209 1428 2209 
Q 931 2209 642 2551 
Q 353 2894 353 3481 
Q 353 4063 643 4406 
Q 934 4750 1428 4750 
z
" transform="scale(0.015625)"/>
    </defs>
    <use xlink:href="#DejaVuSans-54"/>
    <use xlink:href="#DejaVuSans-72" x="46.333984"/>
    <use xlink:href="#DejaVuSans-61" x="87.447266"/>
    <use xlink:href="#DejaVuSans-69" x="148.726562"/>
    <use xlink:href="#DejaVuSans-6e" x="176.509766"/>
    <use xlink:href="#DejaVuSans-69" x="239.888672"/>
    <use xlink:href="#DejaVuSans-6e" x="267.671875"/>
    <use xlink:href="#DejaVuSans-67" x="331.050781"/>
    <use xlink:href="#DejaVuSans-20" x="394.527344"/>
    <use xlink:href="#DejaVuSans-56" x="426.314453"/>
    <use xlink:href="#DejaVuSans-53" x="494.722656"/>
    <use xlink:href="#DejaVuSans-2e" x="558.199219"/>
    <use xlink:href="#DejaVuSans-20" x="589.986328"/>
    <use xlink:href="#DejaVuSans-56" x="621.773438"/>
    <use xlink:href="#DejaVuSans-61" x="682.431641"/>
    <use xlink:href="#DejaVuSans-6c" x="743.710938"/>
    <use xlink:href="#DejaVuSans-69" x="771.494141"/>
    <use xlink:href="#DejaVuSans-64" x="799.277344"/>
    <use xlink:href="#DejaVuSans-61" x="862.753906"/>
    <use xlink:href="#DejaVuSans-74" x="924.033203"/>
    <use xlink:href="#DejaVuSans-69" x="963.242188"/>
    <use xlink:href="#DejaVuSans-6f" x="991.025391"/>
    <use xlink:href="#DejaVuSans-6e" x="1052.207031"/>
    <use xlink:href="#DejaVuSans-20" x="1115.585938"/>
    <use xlink:href="#DejaVuSans-41" x="1147.373047"/>
    <use xlink:href="#DejaVuSans-63" x="1214.03125"/>
    <use xlink:href="#DejaVuSans-63" x="1269.011719"/>
    <use xlink:href="#DejaVuSans-75" x="1323.992188"/>
    <use xlink:href="#DejaVuSans-72" x="1387.371094"/>
    <use xlink:href="#DejaVuSans-61" x="1428.484375"/>
    <use xlink:href="#DejaVuSans-63" x="1489.763672"/>
    <use xlink:href="#DejaVuSans-79" x="1544.744141"/>
    <use xlink:href="#DejaVuSans-20" x="1603.923828"/>
    <use xlink:href="#DejaVuSans-2d" x="1635.710938"/>
    <use xlink:href="#DejaVuSans-20" x="1671.794922"/>
    <use xlink:href="#DejaVuSans-44" x="1703.582031"/>
    <use xlink:href="#DejaVuSans-61" x="1780.583984"/>
    <use xlink:href="#DejaVuSans-74" x="1841.863281"/>
    <use xlink:href="#DejaVuSans-61" x="1881.072266"/>
    <use xlink:href="#DejaVuSans-73" x="1942.351562"/>
    <use xlink:href="#DejaVuSans-65" x="1994.451172"/>
    <use xlink:href="#DejaVuSans-74" x="2055.974609"/>
    <use xlink:href="#DejaVuSans-20" x="2095.183594"/>
    <use xlink:href="#DejaVuSans-53" x="2126.970703"/>
    <use xlink:href="#DejaVuSans-69" x="2190.447266"/>
    <use xlink:href="#DejaVuSans-7a" x="2218.230469"/>
    <use xlink:href="#DejaVuSans-65" x="2270.720703"/>
    <use xlink:href="#DejaVuSans-20" x="2332.244141"/>
    <use xlink:href="#DejaVuSans-3d" x="2364.03125"/>
    <use xlink:href="#DejaVuSans-20" x="2447.820312"/>
    <use xlink:href="#DejaVuSans-31" x="2479.607422"/>
    <use xlink:href="#DejaVuSans-30" x="2543.230469"/>
    <use xlink:href="#DejaVuSans-30" x="2606.853516"/>
    <use xlink:href="#DejaVuSans-2e" x="2670.476562"/>
    <use xlink:href="#DejaVuSans-30" x="2702.263672"/>
    <use xlink:href="#DejaVuSans-25" x="2765.886719"/>
   </g>
  </g>
 </g>
 <defs>
  <clipPath id="p41cfedcf64">
   <rect x="43.78125" y="37.296" width="279" height="202.464"/>
  </clipPath>
 </defs>
</svg>
