<?xml version="1.0" encoding="utf-8" standalone="no"?>
<!DOCTYPE svg PUBLIC "-//W3C//DTD SVG 1.1//EN"
  "http://www.w3.org/Graphics/SVG/1.1/DTD/svg11.dtd">
<svg xmlns:xlink="http://www.w3.org/1999/xlink" width="343.328516pt" height="277.31625pt" viewBox="0 0 343.328516 277.31625" xmlns="http://www.w3.org/2000/svg" version="1.1">
 <metadata>
  <rdf:RDF xmlns:dc="http://purl.org/dc/elements/1.1/" xmlns:cc="http://creativecommons.org/ns#" xmlns:rdf="http://www.w3.org/1999/02/22-rdf-syntax-ns#">
   <cc:Work>
    <dc:type rdf:resource="http://purl.org/dc/dcmitype/StillImage"/>
    <dc:date>2026-06-11T15:45:28.961795</dc:date>
    <dc:format>image/svg+xml</dc:format>
    <dc:creator>
     <cc:Agent>
      <dc:title>Matplotlib v3.8.4, https://matplotlib.org/</dc:title>
     </cc:Agent>
    </dc:creator>
   </cc:Work>
  </rdf:RDF>
 </metadata>
 <defs>
  <style type="text/css">*{stroke-linejoin: round; stroke-linecap: butt}</style>
 </defs>
 <g id="figure_1">
  <g id="patch_1">
   <path d="M 0 277.31625 
L 343.328516 277.31625 
L 343.328516 0 
L 0 0 
z
" style="fill: #ffffff"/>
  </g>
  <g id="axes_1">
   <g id="patch_2">
    <path d="M 43.78125 239.76 
L 322.78125 239.76 
L 322.78125 37.296 
L 43.78125 37.296 
z
" style="fill: #ffffff"/>
   </g>
   <g id="matplotlib.axis_1">
    <g id="xtick_1">
     <g id="line2d_1">
      <path d="M 56.209178 239.76 
L 56.209178 37.296 
" clip-path="url(#pa916aafc2b)" style="fill: none; stroke-dasharray: 2.96,1.28; stroke-dashoffset: 0; stroke: #b0b0b0; stroke-opacity: 0.4; stroke-width: 0.8"/>
     </g>
     <g id="line2d_2">
      <defs>
       <path id="mc39ef1eec8" d="M 0 0 
L 0 3.5 
" style="stroke: #000000; stroke-width: 0.8"/>
      </defs>
      <g>
       <use xlink:href="#mc39ef1eec8" x="56.209178" y="239.76" style="stroke: #000000; stroke-width: 0.8"/>
      </g>
     </g>
     <g id="text_1">
      <!-- 0 -->
      <g transform="translate(53.027928 254.358437) scale(0.1 -0.1)">
       <defs>
        <path id="DejaVuSans-30" d="M 2034 4250 
Q 1547 4250 1301 3770 
Q 1056 3291 1056 2328 
Q 1056 1369 1301 889 
Q 1547 409 2034 409 
Q 2525 409 2770 889 
Q 3016 1369 3016 2328 
Q 3016 3291 2770 3770 
Q 2525 4250 2034 4250 
z
M 2034 4750 
Q 2819 4750 3233 4129 
Q 3647 3509 3647 2328 
Q 3647 1150 3233 529 
Q 2819 -91 2034 -91 
Q 1250 -91 836 529 
Q 422 1150 422 2328 
Q 422 3509 836 4129 
Q 1250 4750 2034 4750 
z
" transform="scale(0.015625)"/>
       </defs>
       <use xlink:href="#DejaVuSans-30"/>
      </g>
     </g>
    </g>
    <g id="xtick_2">
     <g id="line2d_3">
      <path d="M 106.987229 239.76 
L 106.987229 37.296 
" clip-path="url(#pa916aafc2b)" style="fill: none; stroke-dasharray: 2.96,1.28; stroke-dashoffset: 0; stroke: #b0b0b0; stroke-opacity: 0.4; stroke-width: 0.8"/>
     </g>
     <g id="line2d_4">
      <g>
       <use xlink:href="#mc39ef1eec8" x="106.987229" y="239.76" style="stroke: #000000; stroke-width: 0.8"/>
      </g>
     </g>
     <g id="text_2">
      <!-- 200 -->
      <g transform="translate(97.443479 254.358437) scale(0.1 -0.1)">
       <defs>
        <path id="DejaVuSans-32" d="M 1228 531 
L 3431 531 
L 3431 0 
L 469 0 
L 469 531 
Q 828 903 1448 1529 
Q 2069 2156 2228 2338 
Q 2531 2678 2651 2914 
Q 2772 3150 2772 3378 
Q 2772 3750 2511 3984 
Q 2250 4219 1831 4219 
Q 1534 4219 1204 4116 
Q 875 4013 500 3803 
L 500 4441 
Q 881 4594 1212 4672 
Q 1544 4750 1819 4750 
Q 2544 4750 2975 4387 
Q 3406 4025 3406 3419 
Q 3406 3131 3298 2873 
Q 3191 2616 2906 2266 
Q 2828 2175 2409 1742 
Q 1991 1309 1228 531 
z
" transform="scale(0.015625)"/>
       </defs>
       <use xlink:href="#DejaVuSans-32"/>
       <use xlink:href="#DejaVuSans-30" x="63.623047"/>
       <use xlink:href="#DejaVuSans-30" x="127.246094"/>
      </g>
     </g>
    </g>
    <g id="xtick_3">
     <g id="line2d_5">
      <path d="M 157.765279 239.76 
L 157.765279 37.296 
" clip-path="url(#pa916aafc2b)" style="fill: none; stroke-dasharray: 2.96,1.28; stroke-dashoffset: 0; stroke: #b0b0b0; stroke-opacity: 0.4; stroke-width: 0.8"/>
     </g>
     <g id="line2d_6">
      <g>
       <use xlink:href="#mc39ef1eec8" x="157.765279" y="239.76" style="stroke: #000000; stroke-width: 0.8"/>
      </g>
     </g>
     <g id="text_3">
      <!-- 400 -->
      <g transform="translate(148.221529 254.358437) scale(0.1 -0.1)">
       <defs>
        <path id="DejaVuSans-34" d="M 2419 4116 
L 825 1625 
L 2419 1625 
L 2419 4116 
z
M 2253 4666 
L 3047 4666 
L 3047 1625 
L 3713 1625 
L 3713 1100 
L 3047 1100 
L 3047 0 
L 2419 0 
L 2419 1100 
L 313 1100 
L 313 1709 
L 2253 4666 
z
" transform="scale(0.015625)"/>
       </defs>
       <use xlink:href="#DejaVuSans-34"/>
       <use xlink:href="#DejaVuSans-30" x="63.623047"/>
       <use xlink:href="#DejaVuSans-30" x="127.246094"/>
      </g>
     </g>
    </g>
    <g id="xtick_4">
     <g id="line2d_7">
      <path d="M 208.54333 239.76 
L 208.54333 37.296 
" clip-path="url(#pa916aafc2b)" style="fill: none; stroke-dasharray: 2.96,1.28; stroke-dashoffset: 0; stroke: #b0b0b0; stroke-opacity: 0.4; stroke-width: 0.8"/>
     </g>
     <g id="line2d_8">
      <g>
       <use xlink:href="#mc39ef1eec8" x="208.54333" y="239.76" style="stroke: #000000; stroke-width: 0.8"/>
      </g>
     </g>
     <g id="text_4">
      <!-- 600 -->
      <g transform="translate(198.99958 254.358437) scale(0.1 -0.1)">
       <defs>
        <path id="DejaVuSans-36" d="M 2113 2584 
Q 1688 2584 1439 2293 
Q 1191 2003 1191 1497 
Q 1191 994 1439 701 
Q 1688 409 2113 409 
Q 2538 409 2786 701 
Q 3034 994 3034 1497 
Q 3034 2003 2786 2293 
Q 2538 2584 2113 2584 
z
M 3366 4563 
L 3366 3988 
Q 3128 4100 2886 4159 
Q 2644 4219 2406 4219 
Q 1781 4219 1451 3797 
Q 1122 3375 1075 2522 
Q 1259 2794 1537 2939 
Q 1816 3084 2150 3084 
Q 2853 3084 3261 2657 
Q 3669 2231 3669 1497 
Q 3669 778 3244 343 
Q 2819 -91 2113 -91 
Q 1303 -91 875 529 
Q 447 1150 447 2328 
Q 447 3434 972 4092 
Q 1497 4750 2381 4750 
Q 2619 4750 2861 4703 
Q 3103 4656 3366 4563 
z
" transform="scale(0.015625)"/>
       </defs>
       <use xlink:href="#DejaVuSans-36"/>
       <use xlink:href="#DejaVuSans-30" x="63.623047"/>
       <use xlink:href="#DejaVuSans-30" x="127.246094"/>
      </g>
     </g>
    </g>
    <g id="xtick_5">
     <g id="line2d_9">
      <path d="M 259.321381 239.76 
L 259.321381 37.296 
" clip-path="url(#pa916aafc2b)" style="fill: none; stroke-dasharray: 2.96,1.28; stroke-dashoffset: 0; stroke: #b0b0b0; stroke-opacity: 0.4; stroke-width: 0.8"/>
     </g>
     <g id="line2d_10">
      <g>
       <use xlink:href="#mc39ef1eec8" x="259.321381" y="239.76" style="stroke: #000000; stroke-width: 0.8"/>
      </g>
     </g>
     <g id="text_5">
      <!-- 800 -->
      <g transform="translate(249.777631 254.358437) scale(0.1 -0.1)">
       <defs>
        <path id="DejaVuSans-38" d="M 2034 2216 
Q 1584 2216 1326 1975 
Q 1069 1734 1069 1313 
Q 1069 891 1326 650 
Q 1584 409 2034 409 
Q 2484 409 2743 651 
Q 3003 894 3003 1313 
Q 3003 1734 2745 1975 
Q 2488 2216 2034 2216 
z
M 1403 2484 
Q 997 2584 770 2862 
Q 544 3141 544 3541 
Q 544 4100 942 4425 
Q 1341 4750 2034 4750 
Q 2731 4750 3128 4425 
Q 3525 4100 3525 3541 
Q 3525 3141 3298 2862 
Q 3072 2584 2669 2484 
Q 3125 2378 3379 2068 
Q 3634 1759 3634 1313 
Q 3634 634 3220 271 
Q 2806 -91 2034 -91 
Q 1263 -91 848 271 
Q 434 634 434 1313 
Q 434 1759 690 2068 
Q 947 2378 1403 2484 
z
M 1172 3481 
Q 1172 3119 1398 2916 
Q 1625 2713 2034 2713 
Q 2441 2713 2670 2916 
Q 2900 3119 2900 3481 
Q 2900 3844 2670 4047 
Q 2441 4250 2034 4250 
Q 1625 4250 1398 4047 
Q 1172 3844 1172 3481 
z
" transform="scale(0.015625)"/>
       </defs>
       <use xlink:href="#DejaVuSans-38"/>
       <use xlink:href="#DejaVuSans-30" x="63.623047"/>
       <use xlink:href="#DejaVuSans-30" x="127.246094"/>
      </g>
     </g>
    </g>
    <g id="xtick_6">
     <g id="line2d_11">
      <path d="M 310.099432 239.76 
L 310.099432 37.296 
" clip-path="url(#pa916aafc2b)" style="fill: none; stroke-dasharray: 2.96,1.28; stroke-dashoffset: 0; stroke: #b0b0b0; stroke-opacity: 0.4; stroke-width: 0.8"/>
     </g>
     <g id="line2d_12">
      <g>
       <use xlink:href="#mc39ef1eec8" x="310.099432" y="239.76" style="stroke: #000000; stroke-width: 0.8"/>
      </g>
     </g>
     <g id="text_6">
      <!-- 1000 -->
      <g transform="translate(297.374432 254.358437) scale(0.1 -0.1)">
       <defs>
        <path id="DejaVuSans-31" d="M 794 531 
L 1825 531 
L 1825 4091 
L 703 3866 
L 703 4441 
L 1819 4666 
L 2450 4666 
L 2450 531 
L 3481 531 
L 3481 0 
L 794 0 
L 794 531 
z
" transform="scale(0.015625)"/>
       </defs>
       <use xlink:href="#DejaVuSans-31"/>
       <use xlink:href="#DejaVuSans-30" x="63.623047"/>
       <use xlink:href="#DejaVuSans-30" x="127.246094"/>
       <use xlink:href="#DejaVuSans-30" x="190.869141"/>
      </g>
     </g>
    </g>
    <g id="text_7">
     <!-- Epochs -->
     <g transform="translate(165.365625 268.036562) scale(0.1 -0.1)">
      <defs>
       <path id="DejaVuSans-45" d="M 628 4666 
L 3578 4666 
L 3578 4134 
L 1259 4134 
L 1259 2753 
L 3481 2753 
L 3481 2222 
L 1259 2222 
L 1259 531 
L 3634 531 
L 3634 0 
L 628 0 
L 628 4666 
z
" transform="scale(0.015625)"/>
       <path id="DejaVuSans-70" d="M 1159 525 
L 1159 -1331 
L 581 -1331 
L 581 3500 
L 1159 3500 
L 1159 2969 
Q 1341 3281 1617 3432 
Q 1894 3584 2278 3584 
Q 2916 3584 3314 3078 
Q 3713 2572 3713 1747 
Q 3713 922 3314 415 
Q 2916 -91 2278 -91 
Q 1894 -91 1617 61 
Q 1341 213 1159 525 
z
M 3116 1747 
Q 3116 2381 2855 2742 
Q 2594 3103 2138 3103 
Q 1681 3103 1420 2742 
Q 1159 2381 1159 1747 
Q 1159 1113 1420 752 
Q 1681 391 2138 391 
Q 2594 391 2855 752 
Q 3116 1113 3116 1747 
z
" transform="scale(0.015625)"/>
       <path id="DejaVuSans-6f" d="M 1959 3097 
Q 1497 3097 1228 2736 
Q 959 2375 959 1747 
Q 959 1119 1226 758 
Q 1494 397 1959 397 
Q 2419 397 2687 759 
Q 2956 1122 2956 1747 
Q 2956 2369 2687 2733 
Q 2419 3097 1959 3097 
z
M 1959 3584 
Q 2709 3584 3137 3096 
Q 3566 2609 3566 1747 
Q 3566 888 3137 398 
Q 2709 -91 1959 -91 
Q 1206 -91 779 398 
Q 353 888 353 1747 
Q 353 2609 779 3096 
Q 1206 3584 1959 3584 
z
" transform="scale(0.015625)"/>
       <path id="DejaVuSans-63" d="M 3122 3366 
L 3122 2828 
Q 2878 2963 2633 3030 
Q 2388 3097 2138 3097 
Q 1578 3097 1268 2742 
Q 959 2388 959 1747 
Q 959 1106 1268 751 
Q 1578 397 2138 397 
Q 2388 397 2633 464 
Q 2878 531 3122 666 
L 3122 134 
Q 2881 22 2623 -34 
Q 2366 -91 2075 -91 
Q 1284 -91 818 406 
Q 353 903 353 1747 
Q 353 2603 823 3093 
Q 1294 3584 2113 3584 
Q 2378 3584 2631 3529 
Q 2884 3475 3122 3366 
z
" transform="scale(0.015625)"/>
       <path id="DejaVuSans-68" d="M 3513 2113 
L 3513 0 
L 2938 0 
L 2938 2094 
Q 2938 2591 2744 2837 
Q 2550 3084 2163 3084 
Q 1697 3084 1428 2787 
Q 1159 2491 1159 1978 
L 1159 0 
L 581 0 
L 581 4863 
L 1159 4863 
L 1159 2956 
Q 1366 3272 1645 3428 
Q 1925 3584 2291 3584 
Q 2894 3584 3203 3211 
Q 3513 2838 3513 2113 
z
" transform="scale(0.015625)"/>
       <path id="DejaVuSans-73" d="M 2834 3397 
L 2834 2853 
Q 2591 2978 2328 3040 
Q 2066 3103 1784 3103 
Q 1356 3103 1142 2972 
Q 928 2841 928 2578 
Q 928 2378 1081 2264 
Q 1234 2150 1697 2047 
L 1894 2003 
Q 2506 1872 2764 1633 
Q 3022 1394 3022 966 
Q 3022 478 2636 193 
Q 2250 -91 1575 -91 
Q 1294 -91 989 -36 
Q 684 19 347 128 
L 347 722 
Q 666 556 975 473 
Q 1284 391 1588 391 
Q 1994 391 2212 530 
Q 2431 669 2431 922 
Q 2431 1156 2273 1281 
Q 2116 1406 1581 1522 
L 1381 1569 
Q 847 1681 609 1914 
Q 372 2147 372 2553 
Q 372 3047 722 3315 
Q 1072 3584 1716 3584 
Q 2034 3584 2315 3537 
Q 2597 3491 2834 3397 
z
" transform="scale(0.015625)"/>
      </defs>
      <use xlink:href="#DejaVuSans-45"/>
      <use xlink:href="#DejaVuSans-70" x="63.183594"/>
      <use xlink:href="#DejaVuSans-6f" x="126.660156"/>
      <use xlink:href="#DejaVuSans-63" x="187.841797"/>
      <use xlink:href="#DejaVuSans-68" x="242.822266"/>
      <use xlink:href="#DejaVuSans-73" x="306.201172"/>
     </g>
    </g>
   </g>
   <g id="matplotlib.axis_2">
    <g id="ytick_1">
     <g id="line2d_13">
      <path d="M 43.78125 230.00832 
L 322.78125 230.00832 
" clip-path="url(#pa916aafc2b)" style="fill: none; stroke-dasharray: 2.96,1.28; stroke-dashoffset: 0; stroke: #b0b0b0; stroke-opacity: 0.4; stroke-width: 0.8"/>
     </g>
     <g id="line2d_14">
      <defs>
       <path id="mb34a88ac7c" d="M 0 0 
L -3.5 0 
" style="stroke: #000000; stroke-width: 0.8"/>
      </defs>
      <g>
       <use xlink:href="#mb34a88ac7c" x="43.78125" y="230.00832" style="stroke: #000000; stroke-width: 0.8"/>
      </g>
     </g>
     <g id="text_8">
      <!-- 0.5 -->
      <g transform="translate(20.878125 233.807538) scale(0.1 -0.1)">
       <defs>
        <path id="DejaVuSans-2e" d="M 684 794 
L 1344 794 
L 1344 0 
L 684 0 
L 684 794 
z
" transform="scale(0.015625)"/>
        <path id="DejaVuSans-35" d="M 691 4666 
L 3169 4666 
L 3169 4134 
L 1269 4134 
L 1269 2991 
Q 1406 3038 1543 3061 
Q 1681 3084 1819 3084 
Q 2600 3084 3056 2656 
Q 3513 2228 3513 1497 
Q 3513 744 3044 326 
Q 2575 -91 1722 -91 
Q 1428 -91 1123 -41 
Q 819 9 494 109 
L 494 744 
Q 775 591 1075 516 
Q 1375 441 1709 441 
Q 2250 441 2565 725 
Q 2881 1009 2881 1497 
Q 2881 1984 2565 2268 
Q 2250 2553 1709 2553 
Q 1456 2553 1204 2497 
Q 953 2441 691 2322 
L 691 4666 
z
" transform="scale(0.015625)"/>
       </defs>
       <use xlink:href="#DejaVuSans-30"/>
       <use xlink:href="#DejaVuSans-2e" x="63.623047"/>
       <use xlink:href="#DejaVuSans-35" x="95.410156"/>
      </g>
     </g>
    </g>
    <g id="ytick_2">
     <g id="line2d_15">
      <path d="M 43.78125 191.089398 
L 322.78125 191.089398 
" clip-path="url(#pa916aafc2b)" style="fill: none; stroke-dasharray: 2.96,1.28; stroke-dashoffset: 0; stroke: #b0b0b0; stroke-opacity: 0.4; stroke-width: 0.8"/>
     </g>
     <g id="line2d_16">
      <g>
       <use xlink:href="#mb34a88ac7c" x="43.78125" y="191.089398" style="stroke: #000000; stroke-width: 0.8"/>
      </g>
     </g>
     <g id="text_9">
      <!-- 0.6 -->
      <g transform="translate(20.878125 194.888617) scale(0.1 -0.1)">
       <use xlink:href="#DejaVuSans-30"/>
       <use xlink:href="#DejaVuSans-2e" x="63.623047"/>
       <use xlink:href="#DejaVuSans-36" x="95.410156"/>
      </g>
     </g>
    </g>
    <g id="ytick_3">
     <g id="line2d_17">
      <path d="M 43.78125 152.170477 
L 322.78125 152.170477 
" clip-path="url(#pa916aafc2b)" style="fill: none; stroke-dasharray: 2.96,1.28; stroke-dashoffset: 0; stroke: #b0b0b0; stroke-opacity: 0.4; stroke-width: 0.8"/>
     </g>
     <g id="line2d_18">
      <g>
       <use xlink:href="#mb34a88ac7c" x="43.78125" y="152.170477" style="stroke: #000000; stroke-width: 0.8"/>
      </g>
     </g>
     <g id="text_10">
      <!-- 0.7 -->
      <g transform="translate(20.878125 155.969696) scale(0.1 -0.1)">
       <defs>
        <path id="DejaVuSans-37" d="M 525 4666 
L 3525 4666 
L 3525 4397 
L 1831 0 
L 1172 0 
L 2766 4134 
L 525 4134 
L 525 4666 
z
" transform="scale(0.015625)"/>
       </defs>
       <use xlink:href="#DejaVuSans-30"/>
       <use xlink:href="#DejaVuSans-2e" x="63.623047"/>
       <use xlink:href="#DejaVuSans-37" x="95.410156"/>
      </g>
     </g>
    </g>
    <g id="ytick_4">
     <g id="line2d_19">
      <path d="M 43.78125 113.251555 
L 322.78125 113.251555 
" clip-path="url(#pa916aafc2b)" style="fill: none; stroke-dasharray: 2.96,1.28; stroke-dashoffset: 0; stroke: #b0b0b0; stroke-opacity: 0.4; stroke-width: 0.8"/>
     </g>
     <g id="line2d_20">
      <g>
       <use xlink:href="#mb34a88ac7c" x="43.78125" y="113.251555" style="stroke: #000000; stroke-width: 0.8"/>
      </g>
     </g>
     <g id="text_11">
      <!-- 0.8 -->
      <g transform="translate(20.878125 117.050774) scale(0.1 -0.1)">
       <use xlink:href="#DejaVuSans-30"/>
       <use xlink:href="#DejaVuSans-2e" x="63.623047"/>
       <use xlink:href="#DejaVuSans-38" x="95.410156"/>
      </g>
     </g>
    </g>
    <g id="ytick_5">
     <g id="line2d_21">
      <path d="M 43.78125 74.332634 
L 322.78125 74.332634 
" clip-path="url(#pa916aafc2b)" style="fill: none; stroke-dasharray: 2.96,1.28; stroke-dashoffset: 0; stroke: #b0b0b0; stroke-opacity: 0.4; stroke-width: 0.8"/>
     </g>
     <g id="line2d_22">
      <g>
       <use xlink:href="#mb34a88ac7c" x="43.78125" y="74.332634" style="stroke: #000000; stroke-width: 0.8"/>
      </g>
     </g>
     <g id="text_12">
      <!-- 0.9 -->
      <g transform="translate(20.878125 78.131853) scale(0.1 -0.1)">
       <defs>
        <path id="DejaVuSans-39" d="M 703 97 
L 703 672 
Q 941 559 1184 500 
Q 1428 441 1663 441 
Q 2288 441 2617 861 
Q 2947 1281 2994 2138 
Q 2813 1869 2534 1725 
Q 2256 1581 1919 1581 
Q 1219 1581 811 2004 
Q 403 2428 403 3163 
Q 403 3881 828 4315 
Q 1253 4750 1959 4750 
Q 2769 4750 3195 4129 
Q 3622 3509 3622 2328 
Q 3622 1225 3098 567 
Q 2575 -91 1691 -91 
Q 1453 -91 1209 -44 
Q 966 3 703 97 
z
M 1959 2075 
Q 2384 2075 2632 2365 
Q 2881 2656 2881 3163 
Q 2881 3666 2632 3958 
Q 2384 4250 1959 4250 
Q 1534 4250 1286 3958 
Q 1038 3666 1038 3163 
Q 1038 2656 1286 2365 
Q 1534 2075 1959 2075 
z
" transform="scale(0.015625)"/>
       </defs>
       <use xlink:href="#DejaVuSans-30"/>
       <use xlink:href="#DejaVuSans-2e" x="63.623047"/>
       <use xlink:href="#DejaVuSans-39" x="95.410156"/>
      </g>
     </g>
    </g>
    <g id="text_13">
     <!-- Accuracy -->
     <g transform="translate(14.798438 161.356125) rotate(-90) scale(0.1 -0.1)">
      <defs>
       <path id="DejaVuSans-41" d="M 2188 4044 
L 1331 1722 
L 3047 1722 
L 2188 4044 
z
M 1831 4666 
L 2547 4666 
L 4325 0 
L 3669 0 
L 3244 1197 
L 1141 1197 
L 716 0 
L 50 0 
L 1831 4666 
z
" transform="scale(0.015625)"/>
       <path id="DejaVuSans-75" d="M 544 1381 
L 544 3500 
L 1119 3500 
L 1119 1403 
Q 1119 906 1312 657 
Q 1506 409 1894 409 
Q 2359 409 2629 706 
Q 2900 1003 2900 1516 
L 2900 3500 
L 3475 3500 
L 3475 0 
L 2900 0 
L 2900 538 
Q 2691 219 2414 64 
Q 2138 -91 1772 -91 
Q 1169 -91 856 284 
Q 544 659 544 1381 
z
M 1991 3584 
L 1991 3584 
z
" transform="scale(0.015625)"/>
       <path id="DejaVuSans-72" d="M 2631 2963 
Q 2534 3019 2420 3045 
Q 2306 3072 2169 3072 
Q 1681 3072 1420 2755 
Q 1159 2438 1159 1844 
L 1159 0 
L 581 0 
L 581 3500 
L 1159 3500 
L 1159 2956 
Q 1341 3275 1631 3429 
Q 1922 3584 2338 3584 
Q 2397 3584 2469 3576 
Q 2541 3569 2628 3553 
L 2631 2963 
z
" transform="scale(0.015625)"/>
       <path id="DejaVuSans-61" d="M 2194 1759 
Q 1497 1759 1228 1600 
Q 959 1441 959 1056 
Q 959 750 1161 570 
Q 1363 391 1709 391 
Q 2188 391 2477 730 
Q 2766 1069 2766 1631 
L 2766 1759 
L 2194 1759 
z
M 3341 1997 
L 3341 0 
L 2766 0 
L 2766 531 
Q 2569 213 2275 61 
Q 1981 -91 1556 -91 
Q 1019 -91 701 211 
Q 384 513 384 1019 
Q 384 1609 779 1909 
Q 1175 2209 1959 2209 
L 2766 2209 
L 2766 2266 
Q 2766 2663 2505 2880 
Q 2244 3097 1772 3097 
Q 1472 3097 1187 3025 
Q 903 2953 641 2809 
L 641 3341 
Q 956 3463 1253 3523 
Q 1550 3584 1831 3584 
Q 2591 3584 2966 3190 
Q 3341 2797 3341 1997 
z
" transform="scale(0.015625)"/>
       <path id="DejaVuSans-79" d="M 2059 -325 
Q 1816 -950 1584 -1140 
Q 1353 -1331 966 -1331 
L 506 -1331 
L 506 -850 
L 844 -850 
Q 1081 -850 1212 -737 
Q 1344 -625 1503 -206 
L 1606 56 
L 191 3500 
L 800 3500 
L 1894 763 
L 2988 3500 
L 3597 3500 
L 2059 -325 
z
" transform="scale(0.015625)"/>
      </defs>
      <use xlink:href="#DejaVuSans-41"/>
      <use xlink:href="#DejaVuSans-63" x="66.658203"/>
      <use xlink:href="#DejaVuSans-63" x="121.638672"/>
      <use xlink:href="#DejaVuSans-75" x="176.619141"/>
      <use xlink:href="#DejaVuSans-72" x="239.998047"/>
      <use xlink:href="#DejaVuSans-61" x="281.111328"/>
      <use xlink:href="#DejaVuSans-63" x="342.390625"/>
      <use xlink:href="#DejaVuSans-79" x="397.371094"/>
     </g>
    </g>
   </g>
   <g id="line2d_23">
    <path d="M 56.463068 230.557091 
L 56.970849 196.533212 
L 57.224739 137.156072 
L 57.478629 112.132063 
L 57.98641 97.424974 
L 58.2403 99.510312 
L 58.49419 97.315203 
L 58.74808 100.607854 
L 59.001971 92.376273 
L 59.255861 95.010371 
L 59.509751 90.51043 
L 59.763641 90.51043 
L 60.017532 89.742153 
L 60.271422 89.8519 
L 60.525312 88.534863 
L 60.779202 87.98608 
L 61.033093 88.425092 
L 61.286983 85.571477 
L 61.540873 87.547067 
L 61.794764 84.91297 
L 62.302544 89.083622 
L 62.556434 86.669043 
L 62.810325 87.217802 
L 63.064215 83.815427 
L 63.318105 84.364187 
L 63.571995 82.608114 
L 63.825886 84.803199 
L 64.079776 85.132464 
L 64.333666 84.034922 
L 64.587556 84.91297 
L 64.841447 86.77879 
L 65.095337 80.852041 
L 65.349227 82.827632 
L 65.603117 82.388619 
L 65.857008 83.486162 
L 66.110898 83.266644 
L 66.364788 80.961812 
L 66.872569 84.364187 
L 67.126459 78.766703 
L 67.380349 78.437438 
L 67.634239 79.535004 
L 67.88813 81.291054 
L 68.14202 79.095968 
L 68.39591 79.205739 
L 68.6498 79.535004 
L 68.903691 78.986221 
L 69.157581 78.766703 
L 69.411471 81.291054 
L 69.665361 85.351982 
L 70.173142 77.888679 
L 70.427032 78.656956 
L 70.680922 76.022858 
L 70.934813 79.644751 
L 71.188703 81.510571 
L 71.442593 78.656956 
L 71.696483 79.535004 
L 71.950374 78.766703 
L 72.204264 82.059354 
L 72.458154 76.571618 
L 72.712044 76.461871 
L 72.965935 77.339896 
L 73.219825 78.656956 
L 73.473715 78.547209 
L 73.727605 78.217944 
L 73.981496 79.974016 
L 74.235386 77.339896 
L 74.489276 77.120401 
L 74.743166 78.437438 
L 74.997057 75.254581 
L 75.250947 75.693593 
L 75.504837 74.596051 
L 75.758727 75.583846 
L 76.012618 77.559413 
L 76.266508 77.778931 
L 76.520398 77.559413 
L 76.774288 76.022858 
L 77.028179 75.913088 
L 77.282069 77.888679 
L 77.535959 76.461871 
L 77.78985 73.608255 
L 78.04374 74.047268 
L 78.29763 73.27899 
L 78.55152 73.718003 
L 78.805411 77.669161 
L 79.313191 71.742435 
L 79.567081 73.388738 
L 79.820972 71.41317 
L 80.328752 74.705798 
L 80.582642 72.181448 
L 80.836533 73.827773 
L 81.090423 70.974158 
L 81.344313 72.0717 
L 81.598203 71.742435 
L 81.852094 72.839978 
L 82.105984 74.705798 
L 82.359874 72.400966 
L 82.613764 74.157038 
L 82.867655 73.608255 
L 83.121545 70.09611 
L 83.375435 72.291195 
L 83.883216 66.693735 
L 84.137106 66.36447 
L 84.390996 66.693735 
L 84.644886 68.010772 
L 84.898777 70.315628 
L 85.152667 63.620602 
L 85.406557 66.144952 
L 85.660447 66.913229 
L 85.914338 63.840119 
L 86.168228 68.23029 
L 86.422118 64.827891 
L 86.676008 66.36447 
L 86.929899 67.132747 
L 87.183789 64.608397 
L 87.437679 66.254699 
L 87.691569 62.852324 
L 87.94546 65.047409 
L 88.19935 63.840119 
L 88.45324 64.059614 
L 88.70713 67.023 
L 88.961021 66.035205 
L 89.214911 67.242494 
L 89.468801 70.09611 
L 89.722691 65.705939 
L 89.976582 67.023 
L 90.230472 66.803482 
L 90.484362 66.36447 
L 90.738252 66.254699 
L 90.992143 68.23029 
L 91.246033 62.084047 
L 91.753813 66.803482 
L 92.007704 66.144952 
L 92.261594 64.937662 
L 92.515484 66.144952 
L 92.769374 63.291336 
L 93.023265 65.705939 
L 93.277155 65.486422 
L 93.531045 65.815687 
L 93.784936 64.827891 
L 94.038826 63.181589 
L 94.292716 63.730349 
L 94.546606 61.754781 
L 94.800497 64.059614 
L 95.054387 63.840119 
L 95.308277 64.059614 
L 95.562167 62.523059 
L 95.816058 67.023 
L 96.069948 59.559696 
L 96.323838 60.986504 
L 96.577728 60.547468 
L 96.831619 60.657239 
L 97.085509 58.681648 
L 97.339399 57.584106 
L 97.593289 57.584106 
L 97.84718 61.864529 
L 98.10107 60.218203 
L 98.35496 60.327974 
L 98.60885 58.023118 
L 98.862741 58.132888 
L 99.116631 57.584106 
L 99.624411 61.974276 
L 99.878302 58.791395 
L 100.386082 59.998709 
L 100.639972 57.035346 
L 100.893863 57.913371 
L 101.147753 59.888961 
L 101.401643 57.035346 
L 101.655533 59.230431 
L 101.909424 58.901166 
L 102.163314 59.010913 
L 102.671094 60.547468 
L 102.924985 58.132888 
L 103.178875 60.986504 
L 103.432765 60.986504 
L 103.686655 57.035346 
L 104.194436 58.791395 
L 104.448326 61.974276 
L 104.702216 60.437721 
L 104.956107 56.59631 
L 105.209997 57.364588 
L 105.463887 55.828033 
L 105.717777 59.559696 
L 105.971668 59.559696 
L 106.225558 57.803623 
L 106.479448 57.474358 
L 106.733338 58.132888 
L 106.987229 57.693853 
L 107.241119 56.047551 
L 107.748899 61.096251 
L 108.00279 57.035346 
L 108.51057 60.437721 
L 108.76446 56.486563 
L 109.272241 52.645152 
L 109.526131 54.620743 
L 109.780021 53.962213 
L 110.033912 56.047551 
L 110.287802 56.047551 
L 110.541692 53.742695 
L 110.795583 54.950008 
L 111.303363 55.608538 
L 111.557253 55.828033 
L 111.811144 53.193935 
L 112.065034 55.279273 
L 112.318924 54.510972 
L 112.572814 57.474358 
L 112.826705 55.608538 
L 113.080595 52.86467 
L 113.334485 51.657357 
L 113.588375 56.486563 
L 113.842266 53.962213 
L 114.096156 56.815828 
L 114.350046 53.632948 
L 114.603936 53.632948 
L 114.857827 53.303682 
L 115.111717 55.608538 
L 115.365607 55.059755 
L 115.619497 54.950008 
L 115.873388 54.620743 
L 116.127278 56.047551 
L 116.635058 52.425658 
L 116.888949 53.632948 
L 117.142839 50.889079 
L 117.396729 51.328115 
L 117.650619 56.925575 
L 118.1584 52.974417 
L 118.41229 52.315887 
L 118.66618 53.852465 
L 118.920071 53.41343 
L 119.173961 54.18173 
L 119.681741 50.99885 
L 120.189522 54.291478 
L 120.443412 52.974417 
L 120.697302 54.291478 
L 121.205083 55.38902 
L 121.458973 51.657357 
L 121.712863 54.401225 
L 121.966754 52.315887 
L 122.220644 52.096393 
L 122.474534 51.437862 
L 122.728424 52.974417 
L 122.982315 52.754923 
L 123.236205 51.657357 
L 123.490095 52.20614 
L 123.743985 50.889079 
L 123.997876 52.974417 
L 124.251766 52.315887 
L 124.505656 52.096393 
L 124.759546 53.193935 
L 125.013437 53.084165 
L 125.267327 52.20614 
L 125.521217 51.986622 
L 125.775107 54.840237 
L 126.028998 52.754923 
L 126.282888 55.93778 
L 126.790669 52.754923 
L 127.044559 52.096393 
L 127.298449 56.815828 
L 127.552339 52.86467 
L 127.80623 50.779332 
L 128.06012 53.632948 
L 128.31401 50.889079 
L 128.5679 52.425658 
L 128.821791 53.084165 
L 129.075681 51.876875 
L 129.329571 52.535405 
L 129.583461 51.767127 
L 129.837352 50.34032 
L 130.091242 53.962213 
L 130.599022 51.108597 
L 130.852913 51.328115 
L 131.106803 51.218345 
L 131.360693 52.535405 
L 131.614583 51.108597 
L 131.868474 52.645152 
L 132.122364 52.645152 
L 132.376254 51.108597 
L 132.884035 55.93778 
L 133.391815 52.974417 
L 133.645705 53.084165 
L 133.899596 49.242777 
L 134.153486 51.767127 
L 134.407376 52.974417 
L 134.661266 52.86467 
L 134.915157 50.889079 
L 135.169047 51.218345 
L 135.422937 51.767127 
L 135.676827 51.437862 
L 135.930718 49.791537 
L 136.184608 50.559814 
L 136.438498 51.767127 
L 136.692388 50.120802 
L 136.946279 51.108597 
L 137.200169 52.754923 
L 137.454059 50.779332 
L 137.707949 50.450067 
L 137.96184 49.133007 
L 138.72351 51.108597 
L 138.977401 52.754923 
L 139.231291 51.986622 
L 139.485181 49.352524 
L 139.739071 49.242777 
L 140.246852 51.657357 
L 140.500742 51.328115 
L 140.754632 51.437862 
L 141.008523 49.242777 
L 141.262413 51.54761 
L 141.516303 50.120802 
L 141.770193 52.20614 
L 142.024084 52.754923 
L 142.531864 50.669585 
L 142.785755 50.450067 
L 143.039645 50.450067 
L 143.293535 52.425658 
L 143.547425 51.54761 
L 143.801316 52.096393 
L 144.309096 50.230549 
L 144.562986 52.974417 
L 145.070767 51.657357 
L 145.324657 51.54761 
L 145.578547 51.108597 
L 145.832438 52.86467 
L 146.086328 52.974417 
L 146.594108 50.011055 
L 146.847999 52.535405 
L 147.101889 50.889079 
L 147.355779 52.645152 
L 147.609669 51.876875 
L 147.86356 49.791537 
L 148.11745 51.657357 
L 148.37134 50.889079 
L 148.62523 49.572042 
L 148.879121 51.437862 
L 149.133011 51.986622 
L 149.386901 49.242777 
L 149.640791 49.901307 
L 149.894682 51.108597 
L 150.148572 50.34032 
L 150.402462 51.54761 
L 150.656352 49.462272 
L 150.910243 51.218345 
L 151.164133 49.462272 
L 151.418023 51.437862 
L 151.671913 51.108597 
L 151.925804 50.120802 
L 152.179694 50.011055 
L 152.433584 50.230549 
L 152.687474 51.54761 
L 152.941365 51.437862 
L 153.195255 51.54761 
L 153.449145 53.41343 
L 153.703035 50.34032 
L 153.956926 50.230549 
L 154.210816 52.20614 
L 154.464706 50.450067 
L 154.718596 49.901307 
L 154.972487 50.889079 
L 155.226377 50.230549 
L 155.734157 52.86467 
L 156.495828 49.572042 
L 156.749718 49.901307 
L 157.003609 51.108597 
L 157.257499 50.99885 
L 157.511389 49.462272 
L 157.765279 50.120802 
L 158.01917 49.572042 
L 158.27306 50.230549 
L 158.52695 49.901307 
L 158.78084 50.450067 
L 159.034731 53.303682 
L 159.288621 49.68179 
L 159.542511 48.584247 
L 159.796402 50.99885 
L 160.050292 49.791537 
L 160.304182 50.779332 
L 160.558072 49.572042 
L 160.811963 49.791537 
L 161.065853 51.437862 
L 161.573633 50.450067 
L 161.827524 48.254982 
L 162.335304 50.669585 
L 162.589194 49.462272 
L 162.843085 51.108597 
L 163.096975 48.913512 
L 163.350865 49.901307 
L 163.604755 49.023259 
L 163.858646 51.767127 
L 164.112536 50.011055 
L 164.620316 52.645152 
L 164.874207 51.328115 
L 165.128097 52.425658 
L 165.381987 51.876875 
L 165.635877 50.230549 
L 165.889768 50.34032 
L 166.143658 49.572042 
L 166.397548 52.20614 
L 166.651438 48.584247 
L 166.905329 51.54761 
L 167.413109 49.242777 
L 167.666999 51.876875 
L 167.92089 48.254982 
L 168.17478 50.889079 
L 168.42867 49.901307 
L 168.68256 51.328115 
L 168.936451 49.901307 
L 169.952012 51.328115 
L 170.205902 49.242777 
L 170.459792 52.096393 
L 170.713682 49.352524 
L 170.967573 50.34032 
L 171.221463 49.572042 
L 171.475353 51.218345 
L 171.729243 51.437862 
L 171.983134 50.669585 
L 172.237024 50.99885 
L 172.490914 48.803765 
L 172.744804 50.669585 
L 172.998695 48.254982 
L 173.252585 50.889079 
L 173.506475 49.242777 
L 173.760365 51.108597 
L 174.014256 51.54761 
L 174.268146 51.218345 
L 174.522036 49.352524 
L 174.775926 50.779332 
L 175.029817 53.084165 
L 175.283707 50.34032 
L 175.791488 51.108597 
L 176.045378 50.779332 
L 176.299268 48.803765 
L 176.553158 49.791537 
L 176.807049 52.86467 
L 177.060939 49.901307 
L 177.314829 49.68179 
L 177.568719 49.791537 
L 177.82261 51.328115 
L 178.0765 48.035464 
L 178.58428 51.54761 
L 178.838171 51.328115 
L 179.092061 49.352524 
L 179.345951 48.364729 
L 179.599841 50.011055 
L 179.853732 49.242777 
L 180.107622 51.657357 
L 180.361512 50.34032 
L 180.615402 48.145235 
L 180.869293 49.133007 
L 181.123183 50.889079 
L 181.884854 49.791537 
L 182.138744 50.230549 
L 182.392634 51.437862 
L 182.646524 50.99885 
L 182.900415 50.99885 
L 183.154305 50.120802 
L 183.408195 51.108597 
L 183.662085 49.023259 
L 184.169866 52.974417 
L 184.423756 47.925717 
L 184.931537 51.657357 
L 185.185427 49.901307 
L 185.439317 51.54761 
L 185.693207 49.023259 
L 185.947098 50.120802 
L 186.200988 50.669585 
L 186.454878 50.450067 
L 186.708768 50.889079 
L 186.962659 51.986622 
L 187.216549 50.889079 
L 187.470439 48.693994 
L 187.724329 47.925717 
L 187.97822 50.120802 
L 188.23211 47.376957 
L 188.486 50.011055 
L 188.73989 51.218345 
L 188.993781 50.011055 
L 189.247671 50.450067 
L 189.501561 51.218345 
L 189.755451 49.901307 
L 190.009342 51.657357 
L 190.771012 51.108597 
L 191.024903 49.242777 
L 191.278793 48.254982 
L 191.786574 52.645152 
L 192.040464 49.462272 
L 192.294354 51.328115 
L 192.548244 49.023259 
L 192.802135 49.242777 
L 193.056025 48.803765 
L 193.309915 50.230549 
L 193.563805 49.901307 
L 193.817696 48.364729 
L 194.325476 51.54761 
L 194.579366 49.572042 
L 194.833257 48.803765 
L 195.087147 48.584247 
L 195.341037 48.693994 
L 195.594927 50.450067 
L 195.848818 51.328115 
L 196.102708 51.767127 
L 196.610488 49.68179 
L 197.118269 51.328115 
L 197.372159 51.437862 
L 197.626049 49.242777 
L 197.87994 50.450067 
L 198.13383 50.011055 
L 198.38772 50.559814 
L 198.64161 50.450067 
L 198.895501 50.559814 
L 199.149391 50.34032 
L 199.403281 50.669585 
L 199.657171 50.559814 
L 199.911062 47.047692 
L 200.164952 48.145235 
L 200.418842 50.34032 
L 200.926623 47.925717 
L 201.180513 49.242777 
L 201.434403 51.328115 
L 201.688293 50.889079 
L 201.942184 49.023259 
L 202.196074 49.901307 
L 202.703854 49.572042 
L 202.957745 49.352524 
L 203.465525 50.559814 
L 203.719415 50.011055 
L 203.973306 50.34032 
L 204.227196 48.913512 
L 204.481086 50.559814 
L 204.734976 50.230549 
L 204.988867 49.462272 
L 205.242757 47.047692 
L 205.496647 51.986622 
L 205.750537 49.791537 
L 206.004428 50.120802 
L 206.258318 49.352524 
L 206.512208 50.889079 
L 206.766098 48.913512 
L 207.019989 48.803765 
L 207.273879 49.901307 
L 207.527769 49.462272 
L 207.78166 48.035464 
L 208.03555 50.34032 
L 208.28944 50.34032 
L 208.54333 49.133007 
L 208.797221 48.584247 
L 209.051111 50.230549 
L 209.305001 49.023259 
L 209.558891 52.974417 
L 210.066672 48.035464 
L 210.320562 52.315887 
L 210.574452 49.352524 
L 210.828343 49.242777 
L 211.336123 50.99885 
L 211.590013 49.791537 
L 211.843904 50.120802 
L 212.097794 50.230549 
L 212.351684 49.023259 
L 213.113355 50.011055 
L 213.367245 49.901307 
L 213.621135 50.230549 
L 213.875026 49.901307 
L 214.128916 48.693994 
L 214.382806 52.645152 
L 214.636696 52.315887 
L 214.890587 50.450067 
L 215.144477 49.791537 
L 215.398367 50.120802 
L 215.652257 49.572042 
L 215.906148 52.86467 
L 216.160038 49.023259 
L 216.413928 50.011055 
L 216.667818 49.462272 
L 216.921709 51.54761 
L 217.175599 49.242777 
L 217.429489 50.779332 
L 217.683379 50.889079 
L 217.93727 48.035464 
L 218.19116 48.254982 
L 218.44505 51.328115 
L 218.69894 51.657357 
L 218.952831 48.584247 
L 219.460611 52.315887 
L 219.714501 50.889079 
L 219.968392 50.99885 
L 220.222282 51.986622 
L 220.476172 50.34032 
L 220.730062 47.706199 
L 220.983953 51.54761 
L 221.237843 49.023259 
L 221.491733 49.791537 
L 221.745623 50.99885 
L 221.999514 50.011055 
L 222.253404 50.34032 
L 222.507294 50.230549 
L 222.761184 50.450067 
L 223.015075 52.315887 
L 223.268965 52.425658 
L 223.522855 50.34032 
L 223.776745 49.791537 
L 224.030636 51.657357 
L 224.284526 49.462272 
L 224.538416 51.218345 
L 225.046197 50.559814 
L 225.300087 51.108597 
L 225.553977 49.68179 
L 225.807868 51.986622 
L 226.061758 49.242777 
L 226.315648 48.145235 
L 226.569538 48.913512 
L 227.077319 51.986622 
L 227.331209 49.462272 
L 227.585099 50.889079 
L 227.83899 49.242777 
L 228.09288 49.791537 
L 228.34677 48.364729 
L 228.60066 52.754923 
L 228.854551 49.462272 
L 229.870112 52.20614 
L 230.124002 49.68179 
L 230.377892 48.4745 
L 230.631782 48.913512 
L 230.885673 51.54761 
L 231.139563 48.693994 
L 231.393453 51.657357 
L 231.647343 51.657357 
L 232.155124 48.145235 
L 232.409014 48.4745 
L 232.662904 49.791537 
L 233.170685 48.145235 
L 233.424575 49.572042 
L 233.932356 51.108597 
L 234.186246 50.99885 
L 234.440136 47.925717 
L 234.694026 50.559814 
L 234.947917 48.803765 
L 235.201807 50.230549 
L 235.455697 50.779332 
L 235.709587 49.791537 
L 235.963478 51.657357 
L 236.217368 52.096393 
L 236.471258 49.901307 
L 236.725148 51.328115 
L 236.979039 49.901307 
L 237.486819 51.437862 
L 237.740709 51.218345 
L 237.9946 47.267187 
L 238.24849 49.901307 
L 238.50238 47.925717 
L 238.75627 48.364729 
L 239.010161 49.133007 
L 239.264051 50.559814 
L 239.517941 50.450067 
L 239.771831 48.254982 
L 240.025722 51.767127 
L 240.279612 48.913512 
L 240.533502 50.120802 
L 240.787393 48.584247 
L 241.041283 50.34032 
L 241.295173 49.572042 
L 241.549063 48.254982 
L 241.802954 51.108597 
L 242.056844 49.352524 
L 242.310734 50.450067 
L 242.564624 48.584247 
L 242.818515 48.4745 
L 243.072405 49.462272 
L 243.326295 51.218345 
L 243.580185 48.913512 
L 243.834076 51.767127 
L 244.087966 48.803765 
L 244.341856 48.803765 
L 244.595746 50.230549 
L 244.849637 50.450067 
L 245.103527 49.462272 
L 245.357417 52.535405 
L 245.865198 49.572042 
L 246.119088 49.462272 
L 246.626868 50.34032 
L 246.880759 51.218345 
L 247.134649 49.462272 
L 247.388539 51.54761 
L 247.89632 48.913512 
L 248.15021 50.120802 
L 248.4041 48.145235 
L 248.65799 51.108597 
L 249.165771 48.913512 
L 249.419661 48.693994 
L 249.673551 47.486704 
L 249.927442 49.023259 
L 250.181332 48.693994 
L 250.435222 51.437862 
L 250.689112 48.693994 
L 250.943003 48.913512 
L 251.196893 48.693994 
L 251.450783 49.68179 
L 251.704673 51.218345 
L 251.958564 51.218345 
L 252.466344 48.254982 
L 252.720234 51.328115 
L 252.974125 48.4745 
L 253.228015 51.108597 
L 253.481905 50.99885 
L 253.735795 46.718427 
L 253.989686 49.791537 
L 254.243576 49.462272 
L 254.497466 48.364729 
L 254.751356 51.54761 
L 255.005247 49.791537 
L 255.259137 50.011055 
L 255.513027 49.462272 
L 255.766917 50.450067 
L 256.020808 49.791537 
L 256.274698 50.120802 
L 256.528588 51.876875 
L 256.782479 46.718427 
L 257.036369 46.498909 
L 257.290259 48.693994 
L 257.544149 49.242777 
L 257.79804 49.352524 
L 258.30582 49.242777 
L 258.55971 46.937921 
L 259.067491 51.986622 
L 259.575271 48.364729 
L 259.829162 51.218345 
L 260.083052 48.803765 
L 260.336942 50.230549 
L 260.590832 50.230549 
L 260.844723 49.023259 
L 261.098613 49.791537 
L 261.352503 50.011055 
L 261.606393 51.108597 
L 261.860284 49.133007 
L 262.114174 50.450067 
L 262.368064 48.584247 
L 262.621954 49.791537 
L 262.875845 47.925717 
L 263.129735 48.693994 
L 263.383625 50.120802 
L 263.637515 50.559814 
L 263.891406 49.791537 
L 264.145296 47.486704 
L 264.399186 52.425658 
L 264.653076 47.047692 
L 264.906967 49.68179 
L 265.414747 49.901307 
L 265.668637 51.767127 
L 265.922528 50.889079 
L 266.176418 51.657357 
L 266.430308 49.133007 
L 266.684198 49.133007 
L 266.938089 50.559814 
L 267.191979 49.572042 
L 267.445869 49.133007 
L 267.699759 51.328115 
L 267.95365 50.99885 
L 268.20754 48.693994 
L 268.46143 50.450067 
L 268.71532 49.352524 
L 268.969211 50.99885 
L 269.223101 50.011055 
L 269.476991 53.303682 
L 269.730881 53.303682 
L 269.984772 50.011055 
L 270.238662 49.242777 
L 270.492552 50.011055 
L 270.746442 50.34032 
L 271.000333 51.437862 
L 271.254223 51.767127 
L 271.508113 48.803765 
L 271.762003 50.230549 
L 272.015894 49.572042 
L 272.269784 49.462272 
L 272.523674 50.779332 
L 272.777564 49.901307 
L 273.031455 50.120802 
L 273.285345 49.572042 
L 273.539235 50.120802 
L 273.793126 49.901307 
L 274.047016 50.011055 
L 274.300906 51.767127 
L 274.554796 50.011055 
L 274.808687 49.133007 
L 275.062577 51.328115 
L 275.316467 50.230549 
L 275.570357 51.108597 
L 276.078138 47.815969 
L 276.332028 48.803765 
L 276.585918 50.669585 
L 276.839809 50.450067 
L 277.093699 50.779332 
L 277.347589 50.011055 
L 277.601479 51.986622 
L 277.85537 50.230549 
L 278.10926 47.596452 
L 278.36315 47.706199 
L 278.61704 49.901307 
L 278.870931 49.023259 
L 279.124821 49.791537 
L 279.378711 51.657357 
L 279.886492 50.120802 
L 280.140382 50.011055 
L 280.394272 51.657357 
L 280.648162 50.011055 
L 280.902053 52.20614 
L 281.155943 50.230549 
L 281.409833 51.108597 
L 281.663723 47.815969 
L 281.917614 48.145235 
L 282.425394 49.68179 
L 282.679284 48.693994 
L 282.933175 50.450067 
L 283.187065 49.242777 
L 283.440955 51.657357 
L 283.948736 49.242777 
L 284.202626 49.462272 
L 284.456516 49.133007 
L 284.710406 50.450067 
L 284.964297 50.120802 
L 285.218187 51.437862 
L 285.472077 49.242777 
L 285.979858 50.450067 
L 286.233748 49.68179 
L 286.487638 51.437862 
L 286.741528 50.889079 
L 286.995419 49.572042 
L 287.249309 49.462272 
L 287.503199 50.559814 
L 287.757089 47.047692 
L 288.77265 50.559814 
L 289.026541 50.889079 
L 289.280431 50.559814 
L 289.534321 48.4745 
L 289.788212 50.559814 
L 290.042102 49.352524 
L 290.295992 50.669585 
L 290.549882 48.584247 
L 290.803773 49.791537 
L 291.565443 48.254982 
L 291.819334 50.230549 
L 292.073224 50.450067 
L 292.327114 51.328115 
L 293.088785 49.462272 
L 293.342675 51.218345 
L 293.596565 48.254982 
L 293.850456 50.99885 
L 294.104346 47.706199 
L 294.358236 50.669585 
L 294.612126 50.34032 
L 294.866017 48.693994 
L 295.119907 48.035464 
L 295.373797 48.913512 
L 295.627687 48.803765 
L 295.881578 50.669585 
L 296.135468 50.450067 
L 296.389358 48.145235 
L 296.643248 50.34032 
L 297.151029 49.133007 
L 297.658809 51.876875 
L 297.9127 50.120802 
L 298.16659 50.34032 
L 298.42048 50.779332 
L 298.67437 50.889079 
L 298.928261 49.901307 
L 299.182151 48.254982 
L 299.436041 49.68179 
L 299.689931 49.901307 
L 299.943822 51.986622 
L 300.197712 50.779332 
L 300.451602 47.706199 
L 300.705492 50.889079 
L 300.959383 49.68179 
L 301.213273 51.657357 
L 301.467163 49.68179 
L 301.721053 50.34032 
L 301.974944 52.645152 
L 302.228834 48.035464 
L 302.482724 50.230549 
L 302.736614 48.693994 
L 302.990505 50.779332 
L 303.244395 51.657357 
L 303.752175 47.157439 
L 304.006066 50.559814 
L 304.259956 50.669585 
L 304.513846 50.011055 
L 304.767736 48.145235 
L 305.021627 49.572042 
L 305.275517 49.023259 
L 305.529407 52.096393 
L 305.783298 50.230549 
L 306.037188 51.108597 
L 306.291078 50.669585 
L 306.798859 48.913512 
L 307.052749 51.657357 
L 307.306639 51.54761 
L 307.560529 50.450067 
L 307.81442 50.669585 
L 308.06831 50.230549 
L 308.3222 50.120802 
L 308.57609 49.023259 
L 308.829981 50.669585 
L 309.083871 48.4745 
L 309.591651 50.99885 
L 309.845542 49.791537 
L 310.099432 49.352524 
L 310.099432 49.352524 
" clip-path="url(#pa916aafc2b)" style="fill: none; stroke: #0000ff; stroke-width: 0.6; stroke-linecap: square"/>
   </g>
   <g id="line2d_24">
    <path d="M 56.463068 228.472043 
L 56.716958 221.302767 
L 56.970849 168.045309 
L 57.224739 172.142031 
L 57.478629 226.423682 
L 57.732519 225.39949 
L 57.98641 228.216012 
L 58.2403 226.167628 
L 58.49419 110.435051 
L 58.74808 143.977014 
L 59.001971 127.334071 
L 59.255861 178.287115 
L 59.509751 127.846156 
L 59.763641 115.299912 
L 60.017532 174.702477 
L 60.271422 118.116411 
L 60.779202 90.719555 
L 61.033093 92.767916 
L 61.286983 100.449276 
L 61.540873 202.867494 
L 61.794764 155.755119 
L 62.302544 131.430793 
L 62.556434 91.23164 
L 62.810325 211.316993 
L 63.318105 98.144861 
L 63.571995 176.750838 
L 63.825886 134.247293 
L 64.079776 185.712444 
L 64.333666 112.739466 
L 64.587556 119.140603 
L 64.841447 142.696791 
L 65.095337 117.092242 
L 65.603117 190.321251 
L 65.857008 155.243035 
L 66.364788 133.479154 
L 66.618678 155.755119 
L 66.872569 96.864639 
L 67.126459 109.922967 
L 67.380349 93.536055 
L 67.634239 102.753691 
L 67.88813 189.041028 
L 68.14202 92.511863 
L 68.6498 164.972756 
L 68.903691 85.086556 
L 69.157581 123.237326 
L 69.411471 143.464929 
L 69.665361 143.720983 
L 70.427032 84.318418 
L 70.680922 228.472043 
L 70.934813 209.780716 
L 71.188703 110.947136 
L 71.442593 166.765063 
L 71.696483 125.029656 
L 71.950374 120.420826 
L 72.204264 104.545999 
L 72.458154 98.144861 
L 72.712044 205.940048 
L 72.965935 163.692533 
L 73.219825 98.144861 
L 73.473715 101.217415 
L 73.727605 86.366779 
L 73.981496 135.527516 
L 74.235386 81.757949 
L 74.489276 164.972756 
L 74.743166 97.632777 
L 74.997057 158.827649 
L 75.250947 175.726669 
L 75.504837 174.958531 
L 75.758727 90.719555 
L 76.012618 217.462099 
L 76.266508 143.977014 
L 76.520398 105.058106 
L 76.774288 109.922967 
L 77.028179 123.749433 
L 77.282069 118.116411 
L 77.535959 142.696791 
L 78.04374 123.749433 
L 78.29763 179.823391 
L 78.805411 120.67688 
L 79.059301 120.67688 
L 79.313191 93.792085 
L 79.567081 108.38669 
L 79.820972 87.647002 
L 80.074862 186.992667 
L 80.328752 103.52183 
L 80.582642 86.878864 
L 80.836533 115.043881 
L 81.090423 186.736613 
L 81.344313 91.999778 
L 81.598203 84.830503 
L 81.852094 105.570191 
L 82.105984 146.793513 
L 82.359874 162.668341 
L 82.613764 192.625666 
L 83.121545 102.753691 
L 83.375435 85.854672 
L 83.629325 90.719555 
L 83.883216 127.846156 
L 84.137106 103.77786 
L 84.644886 135.015431 
L 84.898777 88.41514 
L 85.152667 87.647002 
L 85.660447 94.048139 
L 85.914338 92.511863 
L 86.168228 86.110725 
L 86.422118 133.735208 
L 86.676008 85.086556 
L 86.929899 89.951417 
L 87.183789 88.159087 
L 87.691569 124.773602 
L 87.94546 91.487694 
L 88.19935 93.280001 
L 88.45324 91.23164 
L 88.70713 92.767916 
L 88.961021 95.328362 
L 89.214911 104.802052 
L 89.468801 167.789255 
L 89.722691 88.41514 
L 89.976582 121.188965 
L 90.484362 91.23164 
L 90.738252 166.509032 
L 90.992143 90.719555 
L 91.246033 127.078017 
L 91.499923 94.816278 
L 91.753813 111.715274 
L 92.007704 171.629947 
L 92.261594 99.937192 
L 92.515484 92.255832 
L 92.769374 88.927225 
L 93.023265 104.289968 
L 93.277155 87.134918 
L 93.531045 89.695363 
L 93.784936 118.116411 
L 94.292716 97.888831 
L 94.546606 130.150571 
L 94.800497 88.159087 
L 95.054387 178.031084 
L 95.308277 87.390948 
L 95.562167 86.366779 
L 95.816058 133.223101 
L 96.069948 85.854672 
L 96.323838 91.23164 
L 96.577728 88.927225 
L 96.831619 119.140603 
L 97.085509 90.207448 
L 97.339399 86.62281 
L 97.593289 101.217415 
L 97.84718 96.608585 
L 98.10107 89.695363 
L 98.60885 97.120693 
L 98.862741 91.743724 
L 99.116631 98.400915 
L 99.370521 98.656969 
L 99.624411 87.647002 
L 99.878302 115.043881 
L 100.132192 91.23164 
L 100.386082 94.304193 
L 100.639972 87.390948 
L 100.893863 87.647002 
L 101.147753 109.922967 
L 101.401643 91.999778 
L 101.655533 97.888831 
L 101.909424 108.898775 
L 102.163314 90.463502 
L 102.417204 91.999778 
L 102.671094 90.719555 
L 102.924985 97.888831 
L 103.178875 101.217415 
L 103.432765 90.207448 
L 103.686655 86.110725 
L 103.940546 90.975586 
L 104.194436 93.536055 
L 104.448326 104.289968 
L 104.702216 96.864639 
L 104.956107 102.753691 
L 105.209997 104.802052 
L 105.463887 89.439309 
L 105.717777 103.77786 
L 105.971668 110.178997 
L 106.225558 85.342587 
L 106.987229 92.767916 
L 107.241119 86.878864 
L 107.495009 97.120693 
L 107.748899 97.632777 
L 108.00279 90.719555 
L 108.25668 106.338329 
L 108.51057 95.84047 
L 108.76446 107.618552 
L 109.272241 88.159087 
L 109.526131 92.511863 
L 110.033912 90.719555 
L 110.287802 95.328362 
L 110.541692 95.584416 
L 110.795583 90.719555 
L 111.049473 91.999778 
L 111.303363 90.719555 
L 111.557253 91.743724 
L 111.811144 90.719555 
L 112.065034 88.41514 
L 112.318924 88.671194 
L 112.572814 106.594383 
L 112.826705 88.671194 
L 113.080595 99.937192 
L 113.334485 93.280001 
L 113.588375 91.999778 
L 113.842266 93.280001 
L 114.096156 96.352554 
L 114.350046 106.850414 
L 114.603936 87.903056 
L 115.111717 102.497638 
L 115.365607 92.255832 
L 115.619497 87.903056 
L 115.873388 93.792085 
L 116.127278 86.366779 
L 116.381168 89.439309 
L 116.635058 88.159087 
L 116.888949 93.536055 
L 117.396729 86.366779 
L 117.650619 85.086556 
L 117.90451 87.390948 
L 118.1584 113.251551 
L 118.41229 89.951417 
L 118.66618 91.23164 
L 118.920071 93.280001 
L 119.173961 90.463502 
L 119.427851 93.023947 
L 119.681741 100.70533 
L 119.935632 91.487694 
L 120.189522 90.975586 
L 120.443412 100.70533 
L 120.697302 92.511863 
L 120.951193 90.207448 
L 121.205083 92.767916 
L 121.458973 87.647002 
L 121.712863 103.52183 
L 121.966754 89.695363 
L 122.220644 87.903056 
L 122.474534 87.903056 
L 122.728424 88.159087 
L 122.982315 86.878864 
L 123.236205 88.41514 
L 123.490095 99.937192 
L 123.743985 89.695363 
L 123.997876 89.951417 
L 124.251766 87.134918 
L 124.505656 87.134918 
L 124.759546 93.792085 
L 125.013437 95.584416 
L 125.775107 87.903056 
L 126.028998 87.903056 
L 126.282888 103.77786 
L 126.536778 98.400915 
L 126.790669 86.878864 
L 127.044559 92.255832 
L 127.298449 89.695363 
L 127.552339 89.439309 
L 127.80623 87.903056 
L 128.06012 87.903056 
L 128.31401 89.951417 
L 128.5679 90.719555 
L 128.821791 106.594383 
L 129.075681 91.999778 
L 129.329571 89.951417 
L 129.583461 91.743724 
L 129.837352 87.647002 
L 130.091242 88.927225 
L 130.345132 97.376723 
L 130.599022 88.41514 
L 130.852913 88.41514 
L 131.106803 90.463502 
L 131.360693 87.134918 
L 131.614583 90.719555 
L 131.868474 88.159087 
L 132.122364 92.511863 
L 132.376254 88.41514 
L 132.884035 86.62281 
L 133.391815 90.719555 
L 134.153486 86.110725 
L 134.915157 91.487694 
L 135.169047 87.903056 
L 135.422937 86.878864 
L 135.676827 87.647002 
L 135.930718 91.23164 
L 136.184608 92.511863 
L 136.438498 98.400915 
L 136.692388 88.41514 
L 136.946279 88.159087 
L 137.454059 86.366779 
L 137.707949 89.951417 
L 137.96184 88.159087 
L 138.21573 87.390948 
L 138.72351 89.695363 
L 138.977401 96.0965 
L 139.231291 88.159087 
L 139.485181 88.671194 
L 139.739071 88.159087 
L 139.992962 87.134918 
L 140.246852 88.41514 
L 140.500742 87.903056 
L 140.754632 89.183279 
L 141.008523 91.487694 
L 141.262413 87.903056 
L 141.770193 91.487694 
L 142.024084 93.536055 
L 142.277974 83.806311 
L 142.531864 92.255832 
L 142.785755 87.903056 
L 143.039645 88.41514 
L 143.293535 98.400915 
L 143.547425 86.110725 
L 143.801316 88.41514 
L 144.055206 97.888831 
L 144.309096 88.159087 
L 144.816877 90.207448 
L 145.070767 87.134918 
L 145.324657 88.927225 
L 145.578547 88.927225 
L 145.832438 86.366779 
L 146.086328 87.390948 
L 146.340218 91.999778 
L 146.594108 88.927225 
L 146.847999 87.647002 
L 147.355779 87.647002 
L 147.609669 87.903056 
L 147.86356 87.390948 
L 148.11745 90.975586 
L 148.37134 88.159087 
L 148.62523 88.41514 
L 148.879121 95.328362 
L 149.386901 87.647002 
L 149.640791 89.183279 
L 149.894682 87.390948 
L 150.148572 90.719555 
L 150.656352 85.854672 
L 151.164133 87.903056 
L 151.418023 88.927225 
L 151.671913 89.439309 
L 152.179694 86.878864 
L 152.433584 88.927225 
L 152.687474 87.647002 
L 152.941365 88.671194 
L 153.195255 88.671194 
L 153.449145 86.62281 
L 153.703035 85.854672 
L 153.956926 90.719555 
L 154.210816 88.159087 
L 154.464706 88.927225 
L 154.718596 88.671194 
L 154.972487 89.695363 
L 155.226377 94.816278 
L 155.480267 87.134918 
L 155.734157 88.159087 
L 155.988048 87.390948 
L 156.495828 89.439309 
L 156.749718 85.598641 
L 157.003609 85.854672 
L 157.257499 87.390948 
L 157.511389 86.366779 
L 158.01917 88.927225 
L 158.52695 87.903056 
L 158.78084 86.878864 
L 159.034731 91.487694 
L 159.288621 87.647002 
L 159.542511 87.647002 
L 159.796402 85.854672 
L 160.050292 88.41514 
L 160.304182 87.903056 
L 160.558072 86.878864 
L 160.811963 86.366779 
L 161.065853 88.159087 
L 161.319743 84.830503 
L 161.573633 86.878864 
L 162.081414 88.41514 
L 162.335304 88.159087 
L 162.589194 88.41514 
L 162.843085 86.62281 
L 163.096975 87.134918 
L 163.350865 88.671194 
L 163.604755 88.927225 
L 163.858646 86.878864 
L 164.112536 88.671194 
L 164.366426 86.62281 
L 164.620316 86.878864 
L 164.874207 88.159087 
L 165.128097 87.647002 
L 165.381987 87.390948 
L 165.635877 86.62281 
L 165.889768 88.671194 
L 166.143658 86.110725 
L 166.397548 86.878864 
L 166.651438 88.159087 
L 166.905329 85.854672 
L 167.159219 87.647002 
L 167.413109 87.134918 
L 167.666999 88.927225 
L 167.92089 87.390948 
L 168.17478 87.903056 
L 168.42867 86.366779 
L 168.936451 86.878864 
L 169.190341 86.878864 
L 169.444231 86.366779 
L 169.698121 88.159087 
L 169.952012 86.878864 
L 170.205902 87.647002 
L 170.459792 86.366779 
L 170.713682 86.62281 
L 170.967573 86.62281 
L 171.221463 87.903056 
L 171.475353 88.41514 
L 171.983134 87.134918 
L 172.490914 87.647002 
L 172.744804 87.647002 
L 172.998695 86.878864 
L 173.252585 87.647002 
L 173.506475 86.62281 
L 173.760365 86.366779 
L 174.014256 86.62281 
L 174.268146 86.366779 
L 174.522036 86.878864 
L 174.775926 88.159087 
L 175.029817 86.62281 
L 175.283707 87.390948 
L 175.537597 86.878864 
L 175.791488 87.134918 
L 176.045378 88.159087 
L 176.299268 87.390948 
L 176.553158 87.390948 
L 176.807049 88.41514 
L 177.060939 87.390948 
L 177.568719 87.903056 
L 177.82261 86.878864 
L 178.0765 88.41514 
L 178.33039 86.878864 
L 178.58428 88.41514 
L 178.838171 87.903056 
L 179.092061 87.903056 
L 179.345951 87.647002 
L 179.599841 87.647002 
L 179.853732 86.366779 
L 180.361512 87.647002 
L 180.869293 87.134918 
L 181.123183 87.647002 
L 181.377073 88.927225 
L 181.630963 87.134918 
L 181.884854 86.366779 
L 182.392634 87.647002 
L 182.646524 86.366779 
L 182.900415 88.41514 
L 183.154305 87.903056 
L 183.662085 86.110725 
L 184.169866 87.134918 
L 184.423756 86.366779 
L 184.677646 86.366779 
L 184.931537 86.878864 
L 185.185427 86.878864 
L 185.439317 88.41514 
L 185.947098 86.62281 
L 186.200988 87.903056 
L 186.454878 86.878864 
L 186.708768 87.647002 
L 186.962659 87.390948 
L 187.216549 86.366779 
L 187.470439 87.390948 
L 187.724329 87.903056 
L 188.23211 86.878864 
L 188.486 86.62281 
L 188.73989 86.878864 
L 188.993781 86.62281 
L 189.247671 86.62281 
L 189.501561 89.183279 
L 189.755451 87.134918 
L 190.009342 87.134918 
L 190.263232 86.62281 
L 190.517122 86.62281 
L 190.771012 88.159087 
L 191.024903 87.134918 
L 191.278793 86.878864 
L 191.532683 86.878864 
L 191.786574 88.927225 
L 192.040464 88.159087 
L 192.294354 87.903056 
L 192.548244 88.159087 
L 192.802135 87.390948 
L 193.056025 89.183279 
L 193.309915 87.390948 
L 193.563805 87.134918 
L 193.817696 87.647002 
L 194.071586 87.134918 
L 194.325476 86.110725 
L 194.579366 86.878864 
L 194.833257 86.62281 
L 195.087147 86.878864 
L 195.341037 86.878864 
L 195.594927 86.62281 
L 195.848818 86.110725 
L 196.102708 86.62281 
L 196.356598 86.62281 
L 196.610488 88.41514 
L 196.864379 86.878864 
L 197.118269 86.62281 
L 197.372159 86.62281 
L 197.626049 86.878864 
L 197.87994 86.62281 
L 198.13383 87.134918 
L 198.38772 87.134918 
L 198.64161 86.878864 
L 198.895501 87.134918 
L 200.926623 87.134918 
L 201.180513 86.878864 
L 201.434403 87.134918 
L 201.688293 86.62281 
L 201.942184 87.390948 
L 202.196074 87.134918 
L 202.449964 87.390948 
L 202.703854 86.878864 
L 202.957745 86.878864 
L 203.211635 87.134918 
L 203.719415 87.134918 
L 203.973306 86.878864 
L 204.227196 87.390948 
L 204.481086 87.390948 
L 204.734976 87.134918 
L 205.242757 87.134918 
L 205.496647 87.903056 
L 205.750537 87.903056 
L 206.258318 86.62281 
L 206.512208 87.134918 
L 207.019989 86.62281 
L 207.527769 87.134918 
L 207.78166 86.62281 
L 208.28944 86.62281 
L 208.54333 86.878864 
L 209.558891 86.878864 
L 209.812782 87.647002 
L 210.066672 87.647002 
L 210.320562 87.134918 
L 210.574452 87.390948 
L 210.828343 86.62281 
L 211.082233 87.390948 
L 211.336123 87.134918 
L 211.590013 87.134918 
L 212.097794 86.62281 
L 212.351684 86.62281 
L 212.605574 86.878864 
L 213.367245 86.878864 
L 213.621135 87.134918 
L 213.875026 86.62281 
L 214.128916 87.134918 
L 214.382806 86.62281 
L 214.636696 86.878864 
L 214.890587 86.878864 
L 215.144477 87.134918 
L 215.906148 87.134918 
L 216.160038 86.878864 
L 216.413928 87.390948 
L 216.667818 86.62281 
L 216.921709 86.878864 
L 217.429489 86.878864 
L 217.683379 87.134918 
L 217.93727 87.134918 
L 218.19116 86.878864 
L 218.44505 86.878864 
L 218.69894 87.134918 
L 218.952831 86.878864 
L 219.206721 87.134918 
L 219.460611 86.878864 
L 219.714501 87.134918 
L 220.476172 87.134918 
L 220.730062 86.878864 
L 220.983953 87.134918 
L 221.999514 87.134918 
L 222.253404 86.878864 
L 223.015075 86.878864 
L 223.268965 87.134918 
L 223.522855 86.878864 
L 223.776745 87.134918 
L 224.030636 87.134918 
L 224.284526 86.62281 
L 224.538416 86.878864 
L 225.300087 86.878864 
L 225.553977 86.62281 
L 225.807868 86.878864 
L 226.061758 86.878864 
L 226.315648 86.62281 
L 226.569538 86.62281 
L 226.823429 86.878864 
L 230.631782 86.878864 
L 230.885673 87.134918 
L 231.139563 87.134918 
L 231.393453 86.878864 
L 231.901234 86.878864 
L 232.155124 86.62281 
L 232.409014 86.878864 
L 232.662904 86.62281 
L 232.916795 86.878864 
L 233.424575 86.878864 
L 233.678465 87.134918 
L 234.947917 87.134918 
L 235.201807 86.878864 
L 235.455697 87.134918 
L 235.709587 86.878864 
L 236.217368 86.878864 
L 236.471258 87.134918 
L 236.725148 87.134918 
L 236.979039 86.878864 
L 237.486819 86.878864 
L 237.740709 86.62281 
L 237.9946 86.878864 
L 239.517941 86.878864 
L 239.771831 87.134918 
L 240.025722 87.134918 
L 240.279612 86.878864 
L 242.818515 86.878864 
L 243.072405 87.134918 
L 243.326295 86.878864 
L 243.580185 86.878864 
L 243.834076 87.134918 
L 244.087966 87.134918 
L 244.341856 86.878864 
L 244.849637 86.878864 
L 245.103527 87.134918 
L 246.372978 87.134918 
L 246.626868 87.390948 
L 247.134649 87.390948 
L 247.388539 87.134918 
L 248.4041 87.134918 
L 248.65799 86.878864 
L 250.181332 86.878864 
L 250.435222 87.134918 
L 251.450783 87.134918 
L 251.704673 86.878864 
L 251.958564 86.878864 
L 252.212454 87.134918 
L 252.466344 86.878864 
L 253.735795 86.878864 
L 253.989686 87.134918 
L 254.243576 86.878864 
L 254.751356 86.878864 
L 255.005247 87.134918 
L 255.259137 86.878864 
L 255.766917 86.878864 
L 256.020808 87.134918 
L 256.274698 86.878864 
L 257.036369 86.878864 
L 257.290259 87.134918 
L 258.30582 87.134918 
L 258.55971 86.878864 
L 259.067491 86.878864 
L 259.321381 87.134918 
L 259.829162 86.62281 
L 260.083052 87.134918 
L 260.336942 86.878864 
L 261.098613 86.878864 
L 261.352503 87.134918 
L 261.606393 86.878864 
L 261.860284 86.878864 
L 262.114174 87.134918 
L 262.368064 86.878864 
L 263.129735 86.878864 
L 263.383625 86.62281 
L 263.637515 86.878864 
L 264.399186 86.878864 
L 264.653076 86.62281 
L 265.160857 87.134918 
L 265.668637 86.62281 
L 265.922528 86.878864 
L 266.176418 86.878864 
L 266.430308 87.134918 
L 266.684198 86.62281 
L 267.191979 87.134918 
L 267.445869 86.878864 
L 267.95365 86.878864 
L 268.20754 86.62281 
L 268.46143 86.878864 
L 268.71532 86.62281 
L 268.969211 86.878864 
L 269.223101 87.390948 
L 269.476991 86.878864 
L 269.730881 87.134918 
L 271.000333 87.134918 
L 271.254223 86.878864 
L 271.508113 87.134918 
L 272.015894 87.134918 
L 272.269784 86.62281 
L 272.523674 87.134918 
L 272.777564 87.134918 
L 273.031455 86.878864 
L 273.285345 87.134918 
L 273.539235 87.134918 
L 273.793126 86.878864 
L 275.062577 86.878864 
L 275.316467 87.134918 
L 275.824248 87.134918 
L 276.078138 86.878864 
L 277.347589 86.878864 
L 277.601479 87.134918 
L 277.85537 86.878864 
L 278.10926 87.134918 
L 282.425394 87.134918 
L 282.679284 86.878864 
L 282.933175 87.134918 
L 283.948736 87.134918 
L 284.202626 86.878864 
L 284.456516 86.878864 
L 284.710406 86.62281 
L 285.218187 87.134918 
L 285.472077 86.878864 
L 285.725967 87.134918 
L 285.979858 86.62281 
L 286.487638 87.134918 
L 286.741528 87.134918 
L 286.995419 86.878864 
L 287.249309 87.390948 
L 287.503199 87.134918 
L 288.01098 87.134918 
L 288.26487 86.878864 
L 288.51876 86.878864 
L 288.77265 87.134918 
L 289.788212 87.134918 
L 290.042102 86.878864 
L 290.549882 86.878864 
L 290.803773 87.134918 
L 292.073224 87.134918 
L 292.327114 86.878864 
L 292.581004 87.134918 
L 292.834895 87.134918 
L 293.088785 86.878864 
L 293.342675 87.134918 
L 293.596565 86.878864 
L 293.850456 87.134918 
L 294.358236 87.134918 
L 294.612126 86.62281 
L 294.866017 87.134918 
L 295.119907 86.878864 
L 295.373797 87.134918 
L 295.881578 87.134918 
L 296.135468 86.878864 
L 296.389358 87.134918 
L 296.643248 87.134918 
L 296.897139 86.878864 
L 297.151029 87.134918 
L 297.658809 87.134918 
L 297.9127 87.390948 
L 298.16659 87.390948 
L 298.42048 87.134918 
L 300.197712 87.134918 
L 300.451602 86.878864 
L 301.213273 86.878864 
L 301.467163 87.134918 
L 301.974944 87.134918 
L 302.228834 86.878864 
L 302.482724 86.878864 
L 302.736614 87.134918 
L 302.990505 87.134918 
L 303.244395 86.878864 
L 303.498285 87.134918 
L 304.006066 87.134918 
L 304.259956 87.390948 
L 304.513846 87.134918 
L 305.529407 87.134918 
L 305.783298 86.878864 
L 306.037188 87.134918 
L 306.291078 86.878864 
L 306.544968 87.134918 
L 307.81442 87.134918 
L 308.06831 86.878864 
L 308.3222 87.134918 
L 308.57609 87.134918 
L 308.829981 86.62281 
L 309.083871 86.878864 
L 309.337761 86.878864 
L 309.591651 87.134918 
L 310.099432 87.134918 
L 310.099432 87.134918 
" clip-path="url(#pa916aafc2b)" style="fill: none; stroke: #ff0000; stroke-width: 0.6; stroke-linecap: square"/>
   </g>
   <g id="patch_3">
    <path d="M 43.78125 239.76 
L 43.78125 37.296 
" style="fill: none; stroke: #000000; stroke-width: 0.8; stroke-linejoin: miter; stroke-linecap: square"/>
   </g>
   <g id="patch_4">
    <path d="M 322.78125 239.76 
L 322.78125 37.296 
" style="fill: none; stroke: #000000; stroke-width: 0.8; stroke-linejoin: miter; stroke-linecap: square"/>
   </g>
   <g id="patch_5">
    <path d="M 43.78125 239.76 
L 322.78125 239.76 
" style="fill: none; stroke: #000000; stroke-width: 0.8; stroke-linejoin: miter; stroke-linecap: square"/>
   </g>
   <g id="patch_6">
    <path d="M 43.78125 37.296 
L 322.78125 37.296 
" style="fill: none; stroke: #000000; stroke-width: 0.8; stroke-linejoin: miter; stroke-linecap: square"/>
   </g>
   <g id="text_14">
    <!-- Quantized-16 Model -->
    <g transform="translate(137.983828 31.296) scale(0.09 -0.09)">
     <defs>
      <path id="DejaVuSans-51" d="M 2522 4238 
Q 1834 4238 1429 3725 
Q 1025 3213 1025 2328 
Q 1025 1447 1429 934 
Q 1834 422 2522 422 
Q 3209 422 3611 934 
Q 4013 1447 4013 2328 
Q 4013 3213 3611 3725 
Q 3209 4238 2522 4238 
z
M 3406 84 
L 4238 -825 
L 3475 -825 
L 2784 -78 
Q 2681 -84 2626 -87 
Q 2572 -91 2522 -91 
Q 1538 -91 948 567 
Q 359 1225 359 2328 
Q 359 3434 948 4092 
Q 1538 4750 2522 4750 
Q 3503 4750 4090 4092 
Q 4678 3434 4678 2328 
Q 4678 1516 4351 937 
Q 4025 359 3406 84 
z
" transform="scale(0.015625)"/>
      <path id="DejaVuSans-6e" d="M 3513 2113 
L 3513 0 
L 2938 0 
L 2938 2094 
Q 2938 2591 2744 2837 
Q 2550 3084 2163 3084 
Q 1697 3084 1428 2787 
Q 1159 2491 1159 1978 
L 1159 0 
L 581 0 
L 581 3500 
L 1159 3500 
L 1159 2956 
Q 1366 3272 1645 3428 
Q 1925 3584 2291 3584 
Q 2894 3584 3203 3211 
Q 3513 2838 3513 2113 
z
" transform="scale(0.015625)"/>
      <path id="DejaVuSans-74" d="M 1172 4494 
L 1172 3500 
L 2356 3500 
L 2356 3053 
L 1172 3053 
L 1172 1153 
Q 1172 725 1289 603 
Q 1406 481 1766 481 
L 2356 481 
L 2356 0 
L 1766 0 
Q 1100 0 847 248 
Q 594 497 594 1153 
L 594 3053 
L 172 3053 
L 172 3500 
L 594 3500 
L 594 4494 
L 1172 4494 
z
" transform="scale(0.015625)"/>
      <path id="DejaVuSans-69" d="M 603 3500 
L 1178 3500 
L 1178 0 
L 603 0 
L 603 3500 
z
M 603 4863 
L 1178 4863 
L 1178 4134 
L 603 4134 
L 603 4863 
z
" transform="scale(0.015625)"/>
      <path id="DejaVuSans-7a" d="M 353 3500 
L 3084 3500 
L 3084 2975 
L 922 459 
L 3084 459 
L 3084 0 
L 275 0 
L 275 525 
L 2438 3041 
L 353 3041 
L 353 3500 
z
" transform="scale(0.015625)"/>
      <path id="DejaVuSans-65" d="M 3597 1894 
L 3597 1613 
L 953 1613 
Q 991 1019 1311 708 
Q 1631 397 2203 397 
Q 2534 397 2845 478 
Q 3156 559 3463 722 
L 3463 178 
Q 3153 47 2828 -22 
Q 2503 -91 2169 -91 
Q 1331 -91 842 396 
Q 353 884 353 1716 
Q 353 2575 817 3079 
Q 1281 3584 2069 3584 
Q 2775 3584 3186 3129 
Q 3597 2675 3597 1894 
z
M 3022 2063 
Q 3016 2534 2758 2815 
Q 2500 3097 2075 3097 
Q 1594 3097 1305 2825 
Q 1016 2553 972 2059 
L 3022 2063 
z
" transform="scale(0.015625)"/>
      <path id="DejaVuSans-64" d="M 2906 2969 
L 2906 4863 
L 3481 4863 
L 3481 0 
L 2906 0 
L 2906 525 
Q 2725 213 2448 61 
Q 2172 -91 1784 -91 
Q 1150 -91 751 415 
Q 353 922 353 1747 
Q 353 2572 751 3078 
Q 1150 3584 1784 3584 
Q 2172 3584 2448 3432 
Q 2725 3281 2906 2969 
z
M 947 1747 
Q 947 1113 1208 752 
Q 1469 391 1925 391 
Q 2381 391 2643 752 
Q 2906 1113 2906 1747 
Q 2906 2381 2643 2742 
Q 2381 3103 1925 3103 
Q 1469 3103 1208 2742 
Q 947 2381 947 1747 
z
" transform="scale(0.015625)"/>
      <path id="DejaVuSans-2d" d="M 313 2009 
L 1997 2009 
L 1997 1497 
L 313 1497 
L 313 2009 
z
" transform="scale(0.015625)"/>
      <path id="DejaVuSans-20" transform="scale(0.015625)"/>
      <path id="DejaVuSans-4d" d="M 628 4666 
L 1569 4666 
L 2759 1491 
L 3956 4666 
L 4897 4666 
L 4897 0 
L 4281 0 
L 4281 4097 
L 3078 897 
L 2444 897 
L 1241 4097 
L 1241 0 
L 628 0 
L 628 4666 
z
" transform="scale(0.015625)"/>
      <path id="DejaVuSans-6c" d="M 603 4863 
L 1178 4863 
L 1178 0 
L 603 0 
L 603 4863 
z
" transform="scale(0.015625)"/>
     </defs>
     <use xlink:href="#DejaVuSans-51"/>
     <use xlink:href="#DejaVuSans-75" x="78.710938"/>
     <use xlink:href="#DejaVuSans-61" x="142.089844"/>
     <use xlink:href="#DejaVuSans-6e" x="203.369141"/>
     <use xlink:href="#DejaVuSans-74" x="266.748047"/>
     <use xlink:href="#DejaVuSans-69" x="305.957031"/>
     <use xlink:href="#DejaVuSans-7a" x="333.740234"/>
     <use xlink:href="#DejaVuSans-65" x="386.230469"/>
     <use xlink:href="#DejaVuSans-64" x="447.753906"/>
     <use xlink:href="#DejaVuSans-2d" x="511.230469"/>
     <use xlink:href="#DejaVuSans-31" x="547.314453"/>
     <use xlink:href="#DejaVuSans-36" x="610.9375"/>
     <use xlink:href="#DejaVuSans-20" x="674.560547"/>
     <use xlink:href="#DejaVuSans-4d" x="706.347656"/>
     <use xlink:href="#DejaVuSans-6f" x="792.626953"/>
     <use xlink:href="#DejaVuSans-64" x="853.808594"/>
     <use xlink:href="#DejaVuSans-65" x="917.285156"/>
     <use xlink:href="#DejaVuSans-6c" x="978.808594"/>
    </g>
   </g>
   <g id="legend_1">
    <g id="patch_7">
     <path d="M 185.565625 234.76 
L 315.78125 234.76 
Q 317.78125 234.76 317.78125 232.76 
L 317.78125 204.40375 
Q 317.78125 202.40375 315.78125 202.40375 
L 185.565625 202.40375 
Q 183.565625 202.40375 183.565625 204.40375 
L 183.565625 232.76 
Q 183.565625 234.76 185.565625 234.76 
z
" style="fill: #ffffff; opacity: 0.8; stroke: #cccccc; stroke-linejoin: miter"/>
    </g>
    <g id="line2d_25">
     <path d="M 187.565625 210.502187 
L 197.565625 210.502187 
L 207.565625 210.502187 
" style="fill: none; stroke: #0000ff; stroke-width: 0.6; stroke-linecap: square"/>
    </g>
    <g id="text_15">
     <!-- Training Accuracy -->
     <g transform="translate(215.565625 214.002187) scale(0.1 -0.1)">
      <defs>
       <path id="DejaVuSans-54" d="M -19 4666 
L 3928 4666 
L 3928 4134 
L 2272 4134 
L 2272 0 
L 1638 0 
L 1638 4134 
L -19 4134 
L -19 4666 
z
" transform="scale(0.015625)"/>
       <path id="DejaVuSans-67" d="M 2906 1791 
Q 2906 2416 2648 2759 
Q 2391 3103 1925 3103 
Q 1463 3103 1205 2759 
Q 947 2416 947 1791 
Q 947 1169 1205 825 
Q 1463 481 1925 481 
Q 2391 481 2648 825 
Q 2906 1169 2906 1791 
z
M 3481 434 
Q 3481 -459 3084 -895 
Q 2688 -1331 1869 -1331 
Q 1566 -1331 1297 -1286 
Q 1028 -1241 775 -1147 
L 775 -588 
Q 1028 -725 1275 -790 
Q 1522 -856 1778 -856 
Q 2344 -856 2625 -561 
Q 2906 -266 2906 331 
L 2906 616 
Q 2728 306 2450 153 
Q 2172 0 1784 0 
Q 1141 0 747 490 
Q 353 981 353 1791 
Q 353 2603 747 3093 
Q 1141 3584 1784 3584 
Q 2172 3584 2450 3431 
Q 2728 3278 2906 2969 
L 2906 3500 
L 3481 3500 
L 3481 434 
z
" transform="scale(0.015625)"/>
      </defs>
      <use xlink:href="#DejaVuSans-54"/>
      <use xlink:href="#DejaVuSans-72" x="46.333984"/>
      <use xlink:href="#DejaVuSans-61" x="87.447266"/>
      <use xlink:href="#DejaVuSans-69" x="148.726562"/>
      <use xlink:href="#DejaVuSans-6e" x="176.509766"/>
      <use xlink:href="#DejaVuSans-69" x="239.888672"/>
      <use xlink:href="#DejaVuSans-6e" x="267.671875"/>
      <use xlink:href="#DejaVuSans-67" x="331.050781"/>
      <use xlink:href="#DejaVuSans-20" x="394.527344"/>
      <use xlink:href="#DejaVuSans-41" x="426.314453"/>
      <use xlink:href="#DejaVuSans-63" x="492.972656"/>
      <use xlink:href="#DejaVuSans-63" x="547.953125"/>
      <use xlink:href="#DejaVuSans-75" x="602.933594"/>
      <use xlink:href="#DejaVuSans-72" x="666.3125"/>
      <use xlink:href="#DejaVuSans-61" x="707.425781"/>
      <use xlink:href="#DejaVuSans-63" x="768.705078"/>
      <use xlink:href="#DejaVuSans-79" x="823.685547"/>
     </g>
    </g>
    <g id="line2d_26">
     <path d="M 187.565625 225.180312 
L 197.565625 225.180312 
L 207.565625 225.180312 
" style="fill: none; stroke: #ff0000; stroke-width: 0.6; stroke-linecap: square"/>
    </g>
    <g id="text_16">
     <!-- Validation Accuracy -->
     <g transform="translate(215.565625 228.680312) scale(0.1 -0.1)">
      <defs>
       <path id="DejaVuSans-56" d="M 1831 0 
L 50 4666 
L 709 4666 
L 2188 738 
L 3669 4666 
L 4325 4666 
L 2547 0 
L 1831 0 
z
" transform="scale(0.015625)"/>
      </defs>
      <use xlink:href="#DejaVuSans-56"/>
      <use xlink:href="#DejaVuSans-61" x="60.658203"/>
      <use xlink:href="#DejaVuSans-6c" x="121.9375"/>
      <use xlink:href="#DejaVuSans-69" x="149.720703"/>
      <use xlink:href="#DejaVuSans-64" x="177.503906"/>
      <use xlink:href="#DejaVuSans-61" x="240.980469"/>
      <use xlink:href="#DejaVuSans-74" x="302.259766"/>
      <use xlink:href="#DejaVuSans-69" x="341.46875"/>
      <use xlink:href="#DejaVuSans-6f" x="369.251953"/>
      <use xlink:href="#DejaVuSans-6e" x="430.433594"/>
      <use xlink:href="#DejaVuSans-20" x="493.8125"/>
      <use xlink:href="#DejaVuSans-41" x="525.599609"/>
      <use xlink:href="#DejaVuSans-63" x="592.257812"/>
      <use xlink:href="#DejaVuSans-63" x="647.238281"/>
      <use xlink:href="#DejaVuSans-75" x="702.21875"/>
      <use xlink:href="#DejaVuSans-72" x="765.597656"/>
      <use xlink:href="#DejaVuSans-61" x="806.710938"/>
      <use xlink:href="#DejaVuSans-63" x="867.990234"/>
      <use xlink:href="#DejaVuSans-79" x="922.970703"/>
     </g>
    </g>
   </g>
  </g>
  <g id="text_17">
   <!-- Training VS. Validation Accuracy - Dataset Size = 100.0% -->
   <g transform="translate(21.433984 15.558281) scale(0.11 -0.11)">
    <defs>
     <path id="DejaVuSans-53" d="M 3425 4513 
L 3425 3897 
Q 3066 4069 2747 4153 
Q 2428 4238 2131 4238 
Q 1616 4238 1336 4038 
Q 1056 3838 1056 3469 
Q 1056 3159 1242 3001 
Q 1428 2844 1947 2747 
L 2328 2669 
Q 3034 2534 3370 2195 
Q 3706 1856 3706 1288 
Q 3706 609 3251 259 
Q 2797 -91 1919 -91 
Q 1588 -91 1214 -16 
Q 841 59 441 206 
L 441 856 
Q 825 641 1194 531 
Q 1563 422 1919 422 
Q 2459 422 2753 634 
Q 3047 847 3047 1241 
Q 3047 1584 2836 1778 
Q 2625 1972 2144 2069 
L 1759 2144 
Q 1053 2284 737 2584 
Q 422 2884 422 3419 
Q 422 4038 858 4394 
Q 1294 4750 2059 4750 
Q 2388 4750 2728 4690 
Q 3069 4631 3425 4513 
z
" transform="scale(0.015625)"/>
     <path id="DejaVuSans-44" d="M 1259 4147 
L 1259 519 
L 2022 519 
Q 2988 519 3436 956 
Q 3884 1394 3884 2338 
Q 3884 3275 3436 3711 
Q 2988 4147 2022 4147 
L 1259 4147 
z
M 628 4666 
L 1925 4666 
Q 3281 4666 3915 4102 
Q 4550 3538 4550 2338 
Q 4550 1131 3912 565 
Q 3275 0 1925 0 
L 628 0 
L 628 4666 
z
" transform="scale(0.015625)"/>
     <path id="DejaVuSans-3d" d="M 678 2906 
L 4684 2906 
L 4684 2381 
L 678 2381 
L 678 2906 
z
M 678 1631 
L 4684 1631 
L 4684 1100 
L 678 1100 
L 678 1631 
z
" transform="scale(0.015625)"/>
     <path id="DejaVuSans-25" d="M 4653 2053 
Q 4381 2053 4226 1822 
Q 4072 1591 4072 1178 
Q 4072 772 4226 539 
Q 4381 306 4653 306 
Q 4919 306 5073 539 
Q 5228 772 5228 1178 
Q 5228 1588 5073 1820 
Q 4919 2053 4653 2053 
z
M 4653 2450 
Q 5147 2450 5437 2106 
Q 5728 1763 5728 1178 
Q 5728 594 5436 251 
Q 5144 -91 4653 -91 
Q 4153 -91 3862 251 
Q 3572 594 3572 1178 
Q 3572 1766 3864 2108 
Q 4156 2450 4653 2450 
z
M 1428 4353 
Q 1159 4353 1004 4120 
Q 850 3888 850 3481 
Q 850 3069 1003 2837 
Q 1156 2606 1428 2606 
Q 1700 2606 1854 2837 
Q 2009 3069 2009 3481 
Q 2009 3884 1853 4118 
Q 1697 4353 1428 4353 
z
M 4250 4750 
L 4750 4750 
L 1831 -91 
L 1331 -91 
L 4250 4750 
z
M 1428 4750 
Q 1922 4750 2215 4408 
Q 2509 4066 2509 3481 
Q 2509 2891 2217 2550 
Q 1925 2209 1428 2209 
Q 931 2209 642 2551 
Q 353 2894 353 3481 
Q 353 4063 643 4406 
Q 934 4750 1428 4750 
z
" transform="scale(0.015625)"/>
    </defs>
    <use xlink:href="#DejaVuSans-54"/>
    <use xlink:href="#DejaVuSans-72" x="46.333984"/>
    <use xlink:href="#DejaVuSans-61" x="87.447266"/>
    <use xlink:href="#DejaVuSans-69" x="148.726562"/>
    <use xlink:href="#DejaVuSans-6e" x="176.509766"/>
    <use xlink:href="#DejaVuSans-69" x="239.888672"/>
    <use xlink:href="#DejaVuSans-6e" x="267.671875"/>
    <use xlink:href="#DejaVuSans-67" x="331.050781"/>
    <use xlink:href="#DejaVuSans-20" x="394.527344"/>
    <use xlink:href="#DejaVuSans-56" x="426.314453"/>
    <use xlink:href="#DejaVuSans-53" x="494.722656"/>
    <use xlink:href="#DejaVuSans-2e" x="558.199219"/>
    <use xlink:href="#DejaVuSans-20" x="589.986328"/>
    <use xlink:href="#DejaVuSans-56" x="621.773438"/>
    <use xlink:href="#DejaVuSans-61" x="682.431641"/>
    <use xlink:href="#DejaVuSans-6c" x="743.710938"/>
    <use xlink:href="#DejaVuSans-69" x="771.494141"/>
    <use xlink:href="#DejaVuSans-64" x="799.277344"/>
    <use xlink:href="#DejaVuSans-61" x="862.753906"/>
    <use xlink:href="#DejaVuSans-74" x="924.033203"/>
    <use xlink:href="#DejaVuSans-69" x="963.242188"/>
    <use xlink:href="#DejaVuSans-6f" x="991.025391"/>
    <use xlink:href="#DejaVuSans-6e" x="1052.207031"/>
    <use xlink:href="#DejaVuSans-20" x="1115.585938"/>
    <use xlink:href="#DejaVuSans-41" x="1147.373047"/>
    <use xlink:href="#DejaVuSans-63" x="1214.03125"/>
    <use xlink:href="#DejaVuSans-63" x="1269.011719"/>
    <use xlink:href="#DejaVuSans-75" x="1323.992188"/>
    <use xlink:href="#DejaVuSans-72" x="1387.371094"/>
    <use xlink:href="#DejaVuSans-61" x="1428.484375"/>
    <use xlink:href="#DejaVuSans-63" x="1489.763672"/>
    <use xlink:href="#DejaVuSans-79" x="1544.744141"/>
    <use xlink:href="#DejaVuSans-20" x="1603.923828"/>
    <use xlink:href="#DejaVuSans-2d" x="1635.710938"/>
    <use xlink:href="#DejaVuSans-20" x="1671.794922"/>
    <use xlink:href="#DejaVuSans-44" x="1703.582031"/>
    <use xlink:href="#DejaVuSans-61" x="1780.583984"/>
    <use xlink:href="#DejaVuSans-74" x="1841.863281"/>
    <use xlink:href="#DejaVuSans-61" x="1881.072266"/>
    <use xlink:href="#DejaVuSans-73" x="1942.351562"/>
    <use xlink:href="#DejaVuSans-65" x="1994.451172"/>
    <use xlink:href="#DejaVuSans-74" x="2055.974609"/>
    <use xlink:href="#DejaVuSans-20" x="2095.183594"/>
    <use xlink:href="#DejaVuSans-53" x="2126.970703"/>
    <use xlink:href="#DejaVuSans-69" x="2190.447266"/>
    <use xlink:href="#DejaVuSans-7a" x="2218.230469"/>
    <use xlink:href="#DejaVuSans-65" x="2270.720703"/>
    <use xlink:href="#DejaVuSans-20" x="2332.244141"/>
    <use xlink:href="#DejaVuSans-3d" x="2364.03125"/>
    <use xlink:href="#DejaVuSans-20" x="2447.820312"/>
    <use xlink:href="#DejaVuSans-31" x="2479.607422"/>
    <use xlink:href="#DejaVuSans-30" x="2543.230469"/>
    <use xlink:href="#DejaVuSans-30" x="2606.853516"/>
    <use xlink:href="#DejaVuSans-2e" x="2670.476562"/>
    <use xlink:href="#DejaVuSans-30" x="2702.263672"/>
    <use xlink:href="#DejaVuSans-25" x="2765.886719"/>
   </g>
  </g>
 </g>
 <defs>
  <clipPath id="pa916aafc2b">
   <rect x="43.78125" y="37.296" width="279" height="202.464"/>
  </clipPath>
 </defs>
</svg>
