<?xml version="1.0" encoding="utf-8" standalone="no"?>
<!DOCTYPE svg PUBLIC "-//W3C//DTD SVG 1.1//EN"
  "http://www.w3.org/Graphics/SVG/1.1/DTD/svg11.dtd">
<svg xmlns:xlink="http://www.w3.org/1999/xlink" width="343.328516pt" height="277.31625pt" viewBox="0 0 343.328516 277.31625" xmlns="http://www.w3.org/2000/svg" version="1.1">
 <metadata>
  <rdf:RDF xmlns:dc="http://purl.org/dc/elements/1.1/" xmlns:cc="http://creativecommons.org/ns#" xmlns:rdf="http://www.w3.org/1999/02/22-rdf-syntax-ns#">
   <cc:Work>
    <dc:type rdf:resource="http://purl.org/dc/dcmitype/StillImage"/>
    <dc:date>2026-06-11T15:03:48.783270</dc:date>
    <dc:format>image/svg+xml</dc:format>
    <dc:creator>
     <cc:Agent>
      <dc:title>Matplotlib v3.8.4, https://matplotlib.org/</dc:title>
     </cc:Agent>
    </dc:creator>
   </cc:Work>
  </rdf:RDF>
 </metadata>
 <defs>
  <style type="text/css">*{stroke-linejoin: round; stroke-linecap: butt}</style>
 </defs>
 <g id="figure_1">
  <g id="patch_1">
   <path d="M 0 277.31625 
L 343.328516 277.31625 
L 343.328516 0 
L 0 0 
z
" style="fill: #ffffff"/>
  </g>
  <g id="axes_1">
   <g id="patch_2">
    <path d="M 43.78125 239.76 
L 322.78125 239.76 
L 322.78125 37.296 
L 43.78125 37.296 
z
" style="fill: #ffffff"/>
   </g>
   <g id="matplotlib.axis_1">
    <g id="xtick_1">
     <g id="line2d_1">
      <path d="M 56.209178 239.76 
L 56.209178 37.296 
" clip-path="url(#p4a77ad0244)" style="fill: none; stroke-dasharray: 2.96,1.28; stroke-dashoffset: 0; stroke: #b0b0b0; stroke-opacity: 0.4; stroke-width: 0.8"/>
     </g>
     <g id="line2d_2">
      <defs>
       <path id="m1449e28254" d="M 0 0 
L 0 3.5 
" style="stroke: #000000; stroke-width: 0.8"/>
      </defs>
      <g>
       <use xlink:href="#m1449e28254" x="56.209178" y="239.76" style="stroke: #000000; stroke-width: 0.8"/>
      </g>
     </g>
     <g id="text_1">
      <!-- 0 -->
      <g transform="translate(53.027928 254.358437) scale(0.1 -0.1)">
       <defs>
        <path id="DejaVuSans-30" d="M 2034 4250 
Q 1547 4250 1301 3770 
Q 1056 3291 1056 2328 
Q 1056 1369 1301 889 
Q 1547 409 2034 409 
Q 2525 409 2770 889 
Q 3016 1369 3016 2328 
Q 3016 3291 2770 3770 
Q 2525 4250 2034 4250 
z
M 2034 4750 
Q 2819 4750 3233 4129 
Q 3647 3509 3647 2328 
Q 3647 1150 3233 529 
Q 2819 -91 2034 -91 
Q 1250 -91 836 529 
Q 422 1150 422 2328 
Q 422 3509 836 4129 
Q 1250 4750 2034 4750 
z
" transform="scale(0.015625)"/>
       </defs>
       <use xlink:href="#DejaVuSans-30"/>
      </g>
     </g>
    </g>
    <g id="xtick_2">
     <g id="line2d_3">
      <path d="M 106.987229 239.76 
L 106.987229 37.296 
" clip-path="url(#p4a77ad0244)" style="fill: none; stroke-dasharray: 2.96,1.28; stroke-dashoffset: 0; stroke: #b0b0b0; stroke-opacity: 0.4; stroke-width: 0.8"/>
     </g>
     <g id="line2d_4">
      <g>
       <use xlink:href="#m1449e28254" x="106.987229" y="239.76" style="stroke: #000000; stroke-width: 0.8"/>
      </g>
     </g>
     <g id="text_2">
      <!-- 200 -->
      <g transform="translate(97.443479 254.358437) scale(0.1 -0.1)">
       <defs>
        <path id="DejaVuSans-32" d="M 1228 531 
L 3431 531 
L 3431 0 
L 469 0 
L 469 531 
Q 828 903 1448 1529 
Q 2069 2156 2228 2338 
Q 2531 2678 2651 2914 
Q 2772 3150 2772 3378 
Q 2772 3750 2511 3984 
Q 2250 4219 1831 4219 
Q 1534 4219 1204 4116 
Q 875 4013 500 3803 
L 500 4441 
Q 881 4594 1212 4672 
Q 1544 4750 1819 4750 
Q 2544 4750 2975 4387 
Q 3406 4025 3406 3419 
Q 3406 3131 3298 2873 
Q 3191 2616 2906 2266 
Q 2828 2175 2409 1742 
Q 1991 1309 1228 531 
z
" transform="scale(0.015625)"/>
       </defs>
       <use xlink:href="#DejaVuSans-32"/>
       <use xlink:href="#DejaVuSans-30" x="63.623047"/>
       <use xlink:href="#DejaVuSans-30" x="127.246094"/>
      </g>
     </g>
    </g>
    <g id="xtick_3">
     <g id="line2d_5">
      <path d="M 157.765279 239.76 
L 157.765279 37.296 
" clip-path="url(#p4a77ad0244)" style="fill: none; stroke-dasharray: 2.96,1.28; stroke-dashoffset: 0; stroke: #b0b0b0; stroke-opacity: 0.4; stroke-width: 0.8"/>
     </g>
     <g id="line2d_6">
      <g>
       <use xlink:href="#m1449e28254" x="157.765279" y="239.76" style="stroke: #000000; stroke-width: 0.8"/>
      </g>
     </g>
     <g id="text_3">
      <!-- 400 -->
      <g transform="translate(148.221529 254.358437) scale(0.1 -0.1)">
       <defs>
        <path id="DejaVuSans-34" d="M 2419 4116 
L 825 1625 
L 2419 1625 
L 2419 4116 
z
M 2253 4666 
L 3047 4666 
L 3047 1625 
L 3713 1625 
L 3713 1100 
L 3047 1100 
L 3047 0 
L 2419 0 
L 2419 1100 
L 313 1100 
L 313 1709 
L 2253 4666 
z
" transform="scale(0.015625)"/>
       </defs>
       <use xlink:href="#DejaVuSans-34"/>
       <use xlink:href="#DejaVuSans-30" x="63.623047"/>
       <use xlink:href="#DejaVuSans-30" x="127.246094"/>
      </g>
     </g>
    </g>
    <g id="xtick_4">
     <g id="line2d_7">
      <path d="M 208.54333 239.76 
L 208.54333 37.296 
" clip-path="url(#p4a77ad0244)" style="fill: none; stroke-dasharray: 2.96,1.28; stroke-dashoffset: 0; stroke: #b0b0b0; stroke-opacity: 0.4; stroke-width: 0.8"/>
     </g>
     <g id="line2d_8">
      <g>
       <use xlink:href="#m1449e28254" x="208.54333" y="239.76" style="stroke: #000000; stroke-width: 0.8"/>
      </g>
     </g>
     <g id="text_4">
      <!-- 600 -->
      <g transform="translate(198.99958 254.358437) scale(0.1 -0.1)">
       <defs>
        <path id="DejaVuSans-36" d="M 2113 2584 
Q 1688 2584 1439 2293 
Q 1191 2003 1191 1497 
Q 1191 994 1439 701 
Q 1688 409 2113 409 
Q 2538 409 2786 701 
Q 3034 994 3034 1497 
Q 3034 2003 2786 2293 
Q 2538 2584 2113 2584 
z
M 3366 4563 
L 3366 3988 
Q 3128 4100 2886 4159 
Q 2644 4219 2406 4219 
Q 1781 4219 1451 3797 
Q 1122 3375 1075 2522 
Q 1259 2794 1537 2939 
Q 1816 3084 2150 3084 
Q 2853 3084 3261 2657 
Q 3669 2231 3669 1497 
Q 3669 778 3244 343 
Q 2819 -91 2113 -91 
Q 1303 -91 875 529 
Q 447 1150 447 2328 
Q 447 3434 972 4092 
Q 1497 4750 2381 4750 
Q 2619 4750 2861 4703 
Q 3103 4656 3366 4563 
z
" transform="scale(0.015625)"/>
       </defs>
       <use xlink:href="#DejaVuSans-36"/>
       <use xlink:href="#DejaVuSans-30" x="63.623047"/>
       <use xlink:href="#DejaVuSans-30" x="127.246094"/>
      </g>
     </g>
    </g>
    <g id="xtick_5">
     <g id="line2d_9">
      <path d="M 259.321381 239.76 
L 259.321381 37.296 
" clip-path="url(#p4a77ad0244)" style="fill: none; stroke-dasharray: 2.96,1.28; stroke-dashoffset: 0; stroke: #b0b0b0; stroke-opacity: 0.4; stroke-width: 0.8"/>
     </g>
     <g id="line2d_10">
      <g>
       <use xlink:href="#m1449e28254" x="259.321381" y="239.76" style="stroke: #000000; stroke-width: 0.8"/>
      </g>
     </g>
     <g id="text_5">
      <!-- 800 -->
      <g transform="translate(249.777631 254.358437) scale(0.1 -0.1)">
       <defs>
        <path id="DejaVuSans-38" d="M 2034 2216 
Q 1584 2216 1326 1975 
Q 1069 1734 1069 1313 
Q 1069 891 1326 650 
Q 1584 409 2034 409 
Q 2484 409 2743 651 
Q 3003 894 3003 1313 
Q 3003 1734 2745 1975 
Q 2488 2216 2034 2216 
z
M 1403 2484 
Q 997 2584 770 2862 
Q 544 3141 544 3541 
Q 544 4100 942 4425 
Q 1341 4750 2034 4750 
Q 2731 4750 3128 4425 
Q 3525 4100 3525 3541 
Q 3525 3141 3298 2862 
Q 3072 2584 2669 2484 
Q 3125 2378 3379 2068 
Q 3634 1759 3634 1313 
Q 3634 634 3220 271 
Q 2806 -91 2034 -91 
Q 1263 -91 848 271 
Q 434 634 434 1313 
Q 434 1759 690 2068 
Q 947 2378 1403 2484 
z
M 1172 3481 
Q 1172 3119 1398 2916 
Q 1625 2713 2034 2713 
Q 2441 2713 2670 2916 
Q 2900 3119 2900 3481 
Q 2900 3844 2670 4047 
Q 2441 4250 2034 4250 
Q 1625 4250 1398 4047 
Q 1172 3844 1172 3481 
z
" transform="scale(0.015625)"/>
       </defs>
       <use xlink:href="#DejaVuSans-38"/>
       <use xlink:href="#DejaVuSans-30" x="63.623047"/>
       <use xlink:href="#DejaVuSans-30" x="127.246094"/>
      </g>
     </g>
    </g>
    <g id="xtick_6">
     <g id="line2d_11">
      <path d="M 310.099432 239.76 
L 310.099432 37.296 
" clip-path="url(#p4a77ad0244)" style="fill: none; stroke-dasharray: 2.96,1.28; stroke-dashoffset: 0; stroke: #b0b0b0; stroke-opacity: 0.4; stroke-width: 0.8"/>
     </g>
     <g id="line2d_12">
      <g>
       <use xlink:href="#m1449e28254" x="310.099432" y="239.76" style="stroke: #000000; stroke-width: 0.8"/>
      </g>
     </g>
     <g id="text_6">
      <!-- 1000 -->
      <g transform="translate(297.374432 254.358437) scale(0.1 -0.1)">
       <defs>
        <path id="DejaVuSans-31" d="M 794 531 
L 1825 531 
L 1825 4091 
L 703 3866 
L 703 4441 
L 1819 4666 
L 2450 4666 
L 2450 531 
L 3481 531 
L 3481 0 
L 794 0 
L 794 531 
z
" transform="scale(0.015625)"/>
       </defs>
       <use xlink:href="#DejaVuSans-31"/>
       <use xlink:href="#DejaVuSans-30" x="63.623047"/>
       <use xlink:href="#DejaVuSans-30" x="127.246094"/>
       <use xlink:href="#DejaVuSans-30" x="190.869141"/>
      </g>
     </g>
    </g>
    <g id="text_7">
     <!-- Epochs -->
     <g transform="translate(165.365625 268.036562) scale(0.1 -0.1)">
      <defs>
       <path id="DejaVuSans-45" d="M 628 4666 
L 3578 4666 
L 3578 4134 
L 1259 4134 
L 1259 2753 
L 3481 2753 
L 3481 2222 
L 1259 2222 
L 1259 531 
L 3634 531 
L 3634 0 
L 628 0 
L 628 4666 
z
" transform="scale(0.015625)"/>
       <path id="DejaVuSans-70" d="M 1159 525 
L 1159 -1331 
L 581 -1331 
L 581 3500 
L 1159 3500 
L 1159 2969 
Q 1341 3281 1617 3432 
Q 1894 3584 2278 3584 
Q 2916 3584 3314 3078 
Q 3713 2572 3713 1747 
Q 3713 922 3314 415 
Q 2916 -91 2278 -91 
Q 1894 -91 1617 61 
Q 1341 213 1159 525 
z
M 3116 1747 
Q 3116 2381 2855 2742 
Q 2594 3103 2138 3103 
Q 1681 3103 1420 2742 
Q 1159 2381 1159 1747 
Q 1159 1113 1420 752 
Q 1681 391 2138 391 
Q 2594 391 2855 752 
Q 3116 1113 3116 1747 
z
" transform="scale(0.015625)"/>
       <path id="DejaVuSans-6f" d="M 1959 3097 
Q 1497 3097 1228 2736 
Q 959 2375 959 1747 
Q 959 1119 1226 758 
Q 1494 397 1959 397 
Q 2419 397 2687 759 
Q 2956 1122 2956 1747 
Q 2956 2369 2687 2733 
Q 2419 3097 1959 3097 
z
M 1959 3584 
Q 2709 3584 3137 3096 
Q 3566 2609 3566 1747 
Q 3566 888 3137 398 
Q 2709 -91 1959 -91 
Q 1206 -91 779 398 
Q 353 888 353 1747 
Q 353 2609 779 3096 
Q 1206 3584 1959 3584 
z
" transform="scale(0.015625)"/>
       <path id="DejaVuSans-63" d="M 3122 3366 
L 3122 2828 
Q 2878 2963 2633 3030 
Q 2388 3097 2138 3097 
Q 1578 3097 1268 2742 
Q 959 2388 959 1747 
Q 959 1106 1268 751 
Q 1578 397 2138 397 
Q 2388 397 2633 464 
Q 2878 531 3122 666 
L 3122 134 
Q 2881 22 2623 -34 
Q 2366 -91 2075 -91 
Q 1284 -91 818 406 
Q 353 903 353 1747 
Q 353 2603 823 3093 
Q 1294 3584 2113 3584 
Q 2378 3584 2631 3529 
Q 2884 3475 3122 3366 
z
" transform="scale(0.015625)"/>
       <path id="DejaVuSans-68" d="M 3513 2113 
L 3513 0 
L 2938 0 
L 2938 2094 
Q 2938 2591 2744 2837 
Q 2550 3084 2163 3084 
Q 1697 3084 1428 2787 
Q 1159 2491 1159 1978 
L 1159 0 
L 581 0 
L 581 4863 
L 1159 4863 
L 1159 2956 
Q 1366 3272 1645 3428 
Q 1925 3584 2291 3584 
Q 2894 3584 3203 3211 
Q 3513 2838 3513 2113 
z
" transform="scale(0.015625)"/>
       <path id="DejaVuSans-73" d="M 2834 3397 
L 2834 2853 
Q 2591 2978 2328 3040 
Q 2066 3103 1784 3103 
Q 1356 3103 1142 2972 
Q 928 2841 928 2578 
Q 928 2378 1081 2264 
Q 1234 2150 1697 2047 
L 1894 2003 
Q 2506 1872 2764 1633 
Q 3022 1394 3022 966 
Q 3022 478 2636 193 
Q 2250 -91 1575 -91 
Q 1294 -91 989 -36 
Q 684 19 347 128 
L 347 722 
Q 666 556 975 473 
Q 1284 391 1588 391 
Q 1994 391 2212 530 
Q 2431 669 2431 922 
Q 2431 1156 2273 1281 
Q 2116 1406 1581 1522 
L 1381 1569 
Q 847 1681 609 1914 
Q 372 2147 372 2553 
Q 372 3047 722 3315 
Q 1072 3584 1716 3584 
Q 2034 3584 2315 3537 
Q 2597 3491 2834 3397 
z
" transform="scale(0.015625)"/>
      </defs>
      <use xlink:href="#DejaVuSans-45"/>
      <use xlink:href="#DejaVuSans-70" x="63.183594"/>
      <use xlink:href="#DejaVuSans-6f" x="126.660156"/>
      <use xlink:href="#DejaVuSans-63" x="187.841797"/>
      <use xlink:href="#DejaVuSans-68" x="242.822266"/>
      <use xlink:href="#DejaVuSans-73" x="306.201172"/>
     </g>
    </g>
   </g>
   <g id="matplotlib.axis_2">
    <g id="ytick_1">
     <g id="line2d_13">
      <path d="M 43.78125 229.038918 
L 322.78125 229.038918 
" clip-path="url(#p4a77ad0244)" style="fill: none; stroke-dasharray: 2.96,1.28; stroke-dashoffset: 0; stroke: #b0b0b0; stroke-opacity: 0.4; stroke-width: 0.8"/>
     </g>
     <g id="line2d_14">
      <defs>
       <path id="m0cd9961724" d="M 0 0 
L -3.5 0 
" style="stroke: #000000; stroke-width: 0.8"/>
      </defs>
      <g>
       <use xlink:href="#m0cd9961724" x="43.78125" y="229.038918" style="stroke: #000000; stroke-width: 0.8"/>
      </g>
     </g>
     <g id="text_8">
      <!-- 0.5 -->
      <g transform="translate(20.878125 232.838136) scale(0.1 -0.1)">
       <defs>
        <path id="DejaVuSans-2e" d="M 684 794 
L 1344 794 
L 1344 0 
L 684 0 
L 684 794 
z
" transform="scale(0.015625)"/>
        <path id="DejaVuSans-35" d="M 691 4666 
L 3169 4666 
L 3169 4134 
L 1269 4134 
L 1269 2991 
Q 1406 3038 1543 3061 
Q 1681 3084 1819 3084 
Q 2600 3084 3056 2656 
Q 3513 2228 3513 1497 
Q 3513 744 3044 326 
Q 2575 -91 1722 -91 
Q 1428 -91 1123 -41 
Q 819 9 494 109 
L 494 744 
Q 775 591 1075 516 
Q 1375 441 1709 441 
Q 2250 441 2565 725 
Q 2881 1009 2881 1497 
Q 2881 1984 2565 2268 
Q 2250 2553 1709 2553 
Q 1456 2553 1204 2497 
Q 953 2441 691 2322 
L 691 4666 
z
" transform="scale(0.015625)"/>
       </defs>
       <use xlink:href="#DejaVuSans-30"/>
       <use xlink:href="#DejaVuSans-2e" x="63.623047"/>
       <use xlink:href="#DejaVuSans-35" x="95.410156"/>
      </g>
     </g>
    </g>
    <g id="ytick_2">
     <g id="line2d_15">
      <path d="M 43.78125 190.578615 
L 322.78125 190.578615 
" clip-path="url(#p4a77ad0244)" style="fill: none; stroke-dasharray: 2.96,1.28; stroke-dashoffset: 0; stroke: #b0b0b0; stroke-opacity: 0.4; stroke-width: 0.8"/>
     </g>
     <g id="line2d_16">
      <g>
       <use xlink:href="#m0cd9961724" x="43.78125" y="190.578615" style="stroke: #000000; stroke-width: 0.8"/>
      </g>
     </g>
     <g id="text_9">
      <!-- 0.6 -->
      <g transform="translate(20.878125 194.377834) scale(0.1 -0.1)">
       <use xlink:href="#DejaVuSans-30"/>
       <use xlink:href="#DejaVuSans-2e" x="63.623047"/>
       <use xlink:href="#DejaVuSans-36" x="95.410156"/>
      </g>
     </g>
    </g>
    <g id="ytick_3">
     <g id="line2d_17">
      <path d="M 43.78125 152.118312 
L 322.78125 152.118312 
" clip-path="url(#p4a77ad0244)" style="fill: none; stroke-dasharray: 2.96,1.28; stroke-dashoffset: 0; stroke: #b0b0b0; stroke-opacity: 0.4; stroke-width: 0.8"/>
     </g>
     <g id="line2d_18">
      <g>
       <use xlink:href="#m0cd9961724" x="43.78125" y="152.118312" style="stroke: #000000; stroke-width: 0.8"/>
      </g>
     </g>
     <g id="text_10">
      <!-- 0.7 -->
      <g transform="translate(20.878125 155.917531) scale(0.1 -0.1)">
       <defs>
        <path id="DejaVuSans-37" d="M 525 4666 
L 3525 4666 
L 3525 4397 
L 1831 0 
L 1172 0 
L 2766 4134 
L 525 4134 
L 525 4666 
z
" transform="scale(0.015625)"/>
       </defs>
       <use xlink:href="#DejaVuSans-30"/>
       <use xlink:href="#DejaVuSans-2e" x="63.623047"/>
       <use xlink:href="#DejaVuSans-37" x="95.410156"/>
      </g>
     </g>
    </g>
    <g id="ytick_4">
     <g id="line2d_19">
      <path d="M 43.78125 113.658009 
L 322.78125 113.658009 
" clip-path="url(#p4a77ad0244)" style="fill: none; stroke-dasharray: 2.96,1.28; stroke-dashoffset: 0; stroke: #b0b0b0; stroke-opacity: 0.4; stroke-width: 0.8"/>
     </g>
     <g id="line2d_20">
      <g>
       <use xlink:href="#m0cd9961724" x="43.78125" y="113.658009" style="stroke: #000000; stroke-width: 0.8"/>
      </g>
     </g>
     <g id="text_11">
      <!-- 0.8 -->
      <g transform="translate(20.878125 117.457228) scale(0.1 -0.1)">
       <use xlink:href="#DejaVuSans-30"/>
       <use xlink:href="#DejaVuSans-2e" x="63.623047"/>
       <use xlink:href="#DejaVuSans-38" x="95.410156"/>
      </g>
     </g>
    </g>
    <g id="ytick_5">
     <g id="line2d_21">
      <path d="M 43.78125 75.197706 
L 322.78125 75.197706 
" clip-path="url(#p4a77ad0244)" style="fill: none; stroke-dasharray: 2.96,1.28; stroke-dashoffset: 0; stroke: #b0b0b0; stroke-opacity: 0.4; stroke-width: 0.8"/>
     </g>
     <g id="line2d_22">
      <g>
       <use xlink:href="#m0cd9961724" x="43.78125" y="75.197706" style="stroke: #000000; stroke-width: 0.8"/>
      </g>
     </g>
     <g id="text_12">
      <!-- 0.9 -->
      <g transform="translate(20.878125 78.996925) scale(0.1 -0.1)">
       <defs>
        <path id="DejaVuSans-39" d="M 703 97 
L 703 672 
Q 941 559 1184 500 
Q 1428 441 1663 441 
Q 2288 441 2617 861 
Q 2947 1281 2994 2138 
Q 2813 1869 2534 1725 
Q 2256 1581 1919 1581 
Q 1219 1581 811 2004 
Q 403 2428 403 3163 
Q 403 3881 828 4315 
Q 1253 4750 1959 4750 
Q 2769 4750 3195 4129 
Q 3622 3509 3622 2328 
Q 3622 1225 3098 567 
Q 2575 -91 1691 -91 
Q 1453 -91 1209 -44 
Q 966 3 703 97 
z
M 1959 2075 
Q 2384 2075 2632 2365 
Q 2881 2656 2881 3163 
Q 2881 3666 2632 3958 
Q 2384 4250 1959 4250 
Q 1534 4250 1286 3958 
Q 1038 3666 1038 3163 
Q 1038 2656 1286 2365 
Q 1534 2075 1959 2075 
z
" transform="scale(0.015625)"/>
       </defs>
       <use xlink:href="#DejaVuSans-30"/>
       <use xlink:href="#DejaVuSans-2e" x="63.623047"/>
       <use xlink:href="#DejaVuSans-39" x="95.410156"/>
      </g>
     </g>
    </g>
    <g id="text_13">
     <!-- Accuracy -->
     <g transform="translate(14.798438 161.356125) rotate(-90) scale(0.1 -0.1)">
      <defs>
       <path id="DejaVuSans-41" d="M 2188 4044 
L 1331 1722 
L 3047 1722 
L 2188 4044 
z
M 1831 4666 
L 2547 4666 
L 4325 0 
L 3669 0 
L 3244 1197 
L 1141 1197 
L 716 0 
L 50 0 
L 1831 4666 
z
" transform="scale(0.015625)"/>
       <path id="DejaVuSans-75" d="M 544 1381 
L 544 3500 
L 1119 3500 
L 1119 1403 
Q 1119 906 1312 657 
Q 1506 409 1894 409 
Q 2359 409 2629 706 
Q 2900 1003 2900 1516 
L 2900 3500 
L 3475 3500 
L 3475 0 
L 2900 0 
L 2900 538 
Q 2691 219 2414 64 
Q 2138 -91 1772 -91 
Q 1169 -91 856 284 
Q 544 659 544 1381 
z
M 1991 3584 
L 1991 3584 
z
" transform="scale(0.015625)"/>
       <path id="DejaVuSans-72" d="M 2631 2963 
Q 2534 3019 2420 3045 
Q 2306 3072 2169 3072 
Q 1681 3072 1420 2755 
Q 1159 2438 1159 1844 
L 1159 0 
L 581 0 
L 581 3500 
L 1159 3500 
L 1159 2956 
Q 1341 3275 1631 3429 
Q 1922 3584 2338 3584 
Q 2397 3584 2469 3576 
Q 2541 3569 2628 3553 
L 2631 2963 
z
" transform="scale(0.015625)"/>
       <path id="DejaVuSans-61" d="M 2194 1759 
Q 1497 1759 1228 1600 
Q 959 1441 959 1056 
Q 959 750 1161 570 
Q 1363 391 1709 391 
Q 2188 391 2477 730 
Q 2766 1069 2766 1631 
L 2766 1759 
L 2194 1759 
z
M 3341 1997 
L 3341 0 
L 2766 0 
L 2766 531 
Q 2569 213 2275 61 
Q 1981 -91 1556 -91 
Q 1019 -91 701 211 
Q 384 513 384 1019 
Q 384 1609 779 1909 
Q 1175 2209 1959 2209 
L 2766 2209 
L 2766 2266 
Q 2766 2663 2505 2880 
Q 2244 3097 1772 3097 
Q 1472 3097 1187 3025 
Q 903 2953 641 2809 
L 641 3341 
Q 956 3463 1253 3523 
Q 1550 3584 1831 3584 
Q 2591 3584 2966 3190 
Q 3341 2797 3341 1997 
z
" transform="scale(0.015625)"/>
       <path id="DejaVuSans-79" d="M 2059 -325 
Q 1816 -950 1584 -1140 
Q 1353 -1331 966 -1331 
L 506 -1331 
L 506 -850 
L 844 -850 
Q 1081 -850 1212 -737 
Q 1344 -625 1503 -206 
L 1606 56 
L 191 3500 
L 800 3500 
L 1894 763 
L 2988 3500 
L 3597 3500 
L 2059 -325 
z
" transform="scale(0.015625)"/>
      </defs>
      <use xlink:href="#DejaVuSans-41"/>
      <use xlink:href="#DejaVuSans-63" x="66.658203"/>
      <use xlink:href="#DejaVuSans-63" x="121.638672"/>
      <use xlink:href="#DejaVuSans-75" x="176.619141"/>
      <use xlink:href="#DejaVuSans-72" x="239.998047"/>
      <use xlink:href="#DejaVuSans-61" x="281.111328"/>
      <use xlink:href="#DejaVuSans-63" x="342.390625"/>
      <use xlink:href="#DejaVuSans-79" x="397.371094"/>
     </g>
    </g>
   </g>
   <g id="line2d_23">
    <path d="M 56.463068 225.676613 
L 56.716958 229.581222 
L 56.970849 219.928182 
L 57.224739 218.084349 
L 57.98641 141.619273 
L 58.2403 131.315474 
L 58.74808 118.733979 
L 59.001971 112.877094 
L 59.255861 111.575554 
L 59.509751 104.091743 
L 60.017532 98.56022 
L 60.271422 101.054824 
L 60.525312 94.438714 
L 61.033093 88.798737 
L 61.286983 91.184864 
L 61.540873 89.991801 
L 61.794764 87.388743 
L 62.048654 86.087203 
L 62.302544 100.2956 
L 62.556434 84.894117 
L 62.810325 84.134892 
L 63.064215 84.785663 
L 63.318105 81.85722 
L 63.571995 83.267214 
L 64.079776 82.941829 
L 64.333666 80.230295 
L 64.587556 85.111048 
L 64.841447 83.267214 
L 65.095337 80.230295 
L 65.349227 81.20645 
L 65.603117 81.314904 
L 65.857008 78.711846 
L 66.110898 79.25414 
L 66.364788 81.314904 
L 66.618678 82.182605 
L 67.126459 77.627237 
L 67.380349 77.735691 
L 67.634239 77.301852 
L 67.88813 78.928777 
L 68.14202 75.132634 
L 68.6498 81.20645 
L 69.157581 78.494915 
L 69.411471 76.651082 
L 69.665361 79.796456 
L 69.919252 79.90491 
L 70.427032 75.458019 
L 70.680922 77.627237 
L 70.934813 75.132634 
L 71.188703 78.928777 
L 71.442593 77.301852 
L 71.950374 78.494915 
L 72.458154 73.939547 
L 72.712044 74.807249 
L 72.965935 72.746484 
L 73.219825 72.204191 
L 73.473715 70.143427 
L 73.727605 77.084921 
L 73.981496 77.735691 
L 74.743166 73.831093 
L 75.250947 75.241088 
L 75.758727 72.204191 
L 76.012618 73.2888 
L 76.266508 73.614185 
L 76.520398 75.891858 
L 76.774288 74.156479 
L 77.028179 73.831093 
L 77.282069 72.312645 
L 77.535959 74.590318 
L 77.78985 72.095714 
L 78.04374 73.505708 
L 78.29763 72.746484 
L 78.55152 73.939547 
L 78.805411 72.204191 
L 79.059301 75.02418 
L 79.313191 74.264933 
L 79.567081 68.950341 
L 79.820972 73.614185 
L 80.074862 72.963415 
L 80.328752 72.746484 
L 80.582642 69.167272 
L 80.836533 70.03495 
L 81.090423 69.275726 
L 81.344313 73.505708 
L 81.598203 69.601111 
L 81.852094 71.661875 
L 82.105984 70.68572 
L 82.359874 69.058817 
L 82.867655 72.529553 
L 83.121545 69.709565 
L 83.375435 71.661875 
L 83.629325 78.494915 
L 83.883216 71.770329 
L 84.137106 83.484122 
L 84.390996 72.204191 
L 84.644886 71.011105 
L 84.898777 72.529553 
L 85.152667 69.275726 
L 85.406557 70.577266 
L 85.660447 68.082662 
L 85.914338 69.058817 
L 86.168228 68.950341 
L 86.422118 70.251881 
L 86.676008 70.143427 
L 86.929899 72.854938 
L 87.94546 67.323438 
L 88.45324 69.601111 
L 88.70713 68.950341 
L 88.961021 70.360335 
L 89.214911 68.841886 
L 89.468801 70.794197 
L 89.976582 67.757277 
L 90.230472 73.722639 
L 90.484362 69.384203 
L 90.738252 70.902651 
L 91.246033 66.564214 
L 91.499923 68.191116 
L 91.753813 71.119559 
L 92.007704 72.746484 
L 92.261594 69.492657 
L 92.515484 70.794197 
L 93.023265 66.238829 
L 93.277155 68.733432 
L 93.531045 65.913444 
L 93.784936 67.431892 
L 94.038826 71.770329 
L 94.292716 68.408047 
L 94.546606 72.854938 
L 94.800497 66.672668 
L 95.054387 67.974208 
L 95.308277 67.106507 
L 95.562167 64.937289 
L 95.816058 70.577266 
L 96.069948 68.191116 
L 96.323838 69.167272 
L 96.577728 67.431892 
L 96.831619 67.540346 
L 97.085509 67.214961 
L 97.339399 64.069588 
L 97.593289 69.058817 
L 97.84718 70.577266 
L 98.10107 69.167272 
L 98.35496 69.167272 
L 98.60885 68.516501 
L 98.862741 69.167272 
L 99.116631 66.130352 
L 99.370521 66.130352 
L 99.624411 69.926496 
L 99.878302 65.479582 
L 100.132192 67.757277 
L 100.386082 67.214961 
L 100.893863 70.902651 
L 101.147753 68.082662 
L 101.401643 67.540346 
L 101.655533 77.735691 
L 101.909424 67.974208 
L 102.163314 67.648823 
L 102.417204 66.455737 
L 102.924985 61.900369 
L 103.178875 62.334231 
L 103.432765 59.188858 
L 103.686655 61.900369 
L 103.940546 62.225754 
L 104.194436 60.707306 
L 104.448326 63.635748 
L 104.702216 62.225754 
L 104.956107 59.297312 
L 105.209997 61.358076 
L 105.463887 58.646541 
L 105.971668 64.069588 
L 106.225558 60.490375 
L 106.479448 62.1173 
L 106.733338 61.574984 
L 106.987229 63.744225 
L 107.241119 60.598852 
L 107.495009 59.948082 
L 107.748899 61.683461 
L 108.00279 58.971927 
L 108.25668 62.008846 
L 108.51057 61.900369 
L 108.76446 64.178065 
L 109.272241 61.46653 
L 109.526131 58.646541 
L 109.780021 59.405766 
L 110.033912 61.574984 
L 110.287802 57.561932 
L 110.541692 62.551139 
L 110.795583 61.791915 
L 111.049473 58.104248 
L 111.303363 60.924237 
L 111.557253 59.948082 
L 111.811144 61.249599 
L 112.065034 57.670386 
L 112.318924 60.273467 
L 112.572814 60.707306 
L 112.826705 60.707306 
L 113.080595 60.056536 
L 113.334485 57.778863 
L 113.588375 60.598852 
L 113.842266 59.297312 
L 114.096156 60.924237 
L 114.350046 61.683461 
L 114.603936 57.778863 
L 114.857827 61.032691 
L 115.111717 59.188858 
L 115.365607 58.42961 
L 115.619497 55.718099 
L 115.873388 58.42961 
L 116.127278 58.321156 
L 116.381168 57.128093 
L 116.635058 58.646541 
L 116.888949 57.887317 
L 117.142839 55.826553 
L 117.396729 55.392714 
L 117.650619 56.585777 
L 117.90451 55.501168 
L 118.1584 58.971927 
L 118.41229 54.525013 
L 118.66618 54.416559 
L 118.920071 56.694254 
L 119.427851 57.453478 
L 119.935632 53.98272 
L 120.189522 57.561932 
L 120.443412 57.778863 
L 120.697302 54.525013 
L 120.951193 56.802708 
L 121.205083 56.802708 
L 121.458973 55.175783 
L 121.712863 58.321156 
L 121.966754 57.236547 
L 122.474534 53.98272 
L 122.728424 54.525013 
L 122.982315 57.561932 
L 123.236205 56.260392 
L 123.490095 56.911162 
L 123.743985 56.585777 
L 123.997876 53.98272 
L 124.251766 56.043484 
L 124.505656 55.501168 
L 124.759546 54.416559 
L 125.013437 56.368869 
L 125.267327 55.501168 
L 125.521217 56.585777 
L 125.775107 56.585777 
L 126.028998 58.104248 
L 126.282888 55.392714 
L 126.536778 55.392714 
L 126.790669 55.935007 
L 127.044559 53.223495 
L 127.298449 57.453478 
L 127.80623 53.765789 
L 128.06012 58.104248 
L 128.31401 54.958875 
L 128.5679 54.850398 
L 128.821791 54.199628 
L 129.075681 54.525013 
L 129.329571 55.392714 
L 129.837352 53.331949 
L 130.091242 53.006564 
L 130.345132 54.958875 
L 130.599022 53.657335 
L 130.852913 51.271185 
L 131.106803 51.921955 
L 131.614583 54.091174 
L 131.868474 53.440403 
L 132.122364 54.308105 
L 132.376254 51.379639 
L 132.884035 52.681179 
L 133.137925 54.63349 
L 133.391815 54.63349 
L 133.645705 52.789633 
L 134.661266 57.670386 
L 134.915157 51.921955 
L 135.422937 54.525013 
L 135.676827 51.813501 
L 135.930718 54.091174 
L 136.184608 54.525013 
L 136.438498 54.308105 
L 136.692388 53.331949 
L 136.946279 55.28426 
L 137.200169 54.850398 
L 137.454059 55.609622 
L 137.707949 51.705024 
L 137.96184 52.24734 
L 138.21573 54.308105 
L 138.46962 52.138886 
L 138.72351 51.488116 
L 138.977401 52.030409 
L 139.231291 52.89811 
L 139.485181 53.115018 
L 139.739071 52.681179 
L 139.992962 53.006564 
L 140.246852 52.355794 
L 140.500742 52.89811 
L 140.754632 52.572725 
L 141.008523 53.874266 
L 141.262413 50.620415 
L 141.516303 50.728892 
L 141.770193 53.657335 
L 142.024084 52.464271 
L 142.277974 56.368869 
L 142.531864 51.59657 
L 142.785755 51.054277 
L 143.039645 53.115018 
L 143.293535 53.440403 
L 143.547425 53.115018 
L 143.801316 51.271185 
L 144.055206 52.030409 
L 144.309096 49.861191 
L 144.562986 52.355794 
L 144.816877 53.006564 
L 145.070767 52.138886 
L 145.324657 52.464271 
L 145.578547 52.572725 
L 146.086328 49.969668 
L 146.594108 51.488116 
L 146.847999 53.657335 
L 147.101889 52.24734 
L 147.355779 52.355794 
L 147.609669 51.271185 
L 148.11745 50.186576 
L 148.37134 51.921955 
L 148.62523 50.078122 
L 148.879121 53.331949 
L 149.133011 53.98272 
L 149.386901 51.379639 
L 149.640791 50.078122 
L 149.894682 53.657335 
L 150.148572 52.464271 
L 150.402462 52.572725 
L 150.656352 50.728892 
L 150.910243 51.705024 
L 151.164133 50.728892 
L 151.418023 51.162731 
L 151.671913 52.572725 
L 151.925804 52.355794 
L 152.179694 49.535806 
L 152.433584 51.921955 
L 152.687474 53.223495 
L 152.941365 53.331949 
L 153.195255 53.115018 
L 153.449145 51.162731 
L 153.703035 50.078122 
L 153.956926 50.620415 
L 154.210816 49.210421 
L 154.464706 50.9458 
L 154.972487 52.355794 
L 155.226377 52.24734 
L 155.480267 51.59657 
L 155.734157 51.488116 
L 155.988048 49.969668 
L 156.241938 50.511961 
L 156.495828 53.54888 
L 156.749718 51.054277 
L 157.003609 50.837346 
L 157.257499 49.969668 
L 157.511389 50.837346 
L 157.765279 51.162731 
L 158.01917 50.511961 
L 158.27306 51.921955 
L 158.52695 50.078122 
L 158.78084 52.464271 
L 159.288621 50.186576 
L 159.542511 50.511961 
L 159.796402 50.403507 
L 160.050292 50.9458 
L 160.304182 52.681179 
L 160.558072 49.969668 
L 160.811963 50.728892 
L 161.065853 52.464271 
L 161.319743 52.464271 
L 161.573633 50.728892 
L 161.827524 50.186576 
L 162.081414 48.017357 
L 162.335304 51.488116 
L 162.589194 52.681179 
L 162.843085 50.186576 
L 163.096975 50.9458 
L 163.350865 48.125811 
L 163.604755 50.837346 
L 164.112536 53.331949 
L 164.366426 53.006564 
L 164.620316 49.535806 
L 164.874207 49.969668 
L 165.128097 52.464271 
L 165.381987 49.752737 
L 165.635877 51.488116 
L 165.889768 48.234288 
L 166.143658 49.535806 
L 166.397548 52.89811 
L 166.651438 49.861191 
L 166.905329 52.355794 
L 167.159219 50.29503 
L 167.413109 52.138886 
L 167.666999 50.728892 
L 167.92089 51.054277 
L 168.42867 49.969668 
L 168.68256 50.403507 
L 168.936451 50.511961 
L 169.190341 48.668128 
L 169.698121 50.186576 
L 170.205902 50.29503 
L 170.713682 51.705024 
L 170.967573 50.29503 
L 171.221463 49.644283 
L 171.475353 49.969668 
L 171.729243 50.620415 
L 171.983134 52.24734 
L 172.237024 48.993513 
L 172.490914 49.535806 
L 172.744804 53.657335 
L 172.998695 50.403507 
L 173.252585 50.9458 
L 173.506475 50.186576 
L 173.760365 51.054277 
L 174.014256 50.728892 
L 174.268146 50.186576 
L 174.522036 48.234288 
L 174.775926 50.29503 
L 175.029817 50.9458 
L 175.283707 49.861191 
L 175.537597 52.464271 
L 175.791488 50.511961 
L 176.045378 51.813501 
L 176.299268 48.776582 
L 176.553158 52.355794 
L 176.807049 50.728892 
L 177.060939 50.511961 
L 177.314829 49.644283 
L 177.568719 49.861191 
L 177.82261 49.861191 
L 178.0765 51.054277 
L 178.58428 52.138886 
L 179.092061 46.824294 
L 179.345951 49.752737 
L 179.599841 48.451197 
L 179.853732 50.728892 
L 180.107622 50.620415 
L 180.361512 52.030409 
L 180.615402 49.752737 
L 180.869293 49.969668 
L 181.123183 47.800426 
L 181.377073 50.9458 
L 181.630963 49.318898 
L 181.884854 48.993513 
L 182.138744 51.813501 
L 182.392634 49.427352 
L 182.646524 49.101967 
L 182.900415 51.488116 
L 183.154305 48.559673 
L 183.408195 49.861191 
L 183.662085 48.451197 
L 183.915976 50.620415 
L 184.423756 50.511961 
L 184.677646 51.054277 
L 184.931537 50.078122 
L 185.185427 51.054277 
L 185.439317 48.885036 
L 185.693207 51.271185 
L 185.947098 50.403507 
L 186.200988 50.511961 
L 186.708768 51.921955 
L 186.962659 49.861191 
L 187.470439 49.427352 
L 187.724329 48.776582 
L 187.97822 50.511961 
L 188.23211 48.993513 
L 188.73989 49.644283 
L 188.993781 49.210421 
L 189.247671 50.511961 
L 189.501561 50.837346 
L 189.755451 50.620415 
L 190.009342 48.668128 
L 190.263232 51.271185 
L 190.517122 51.271185 
L 191.024903 49.210421 
L 191.278793 49.427352 
L 191.786574 50.837346 
L 192.040464 48.885036 
L 192.294354 50.620415 
L 192.548244 47.258133 
L 192.802135 49.752737 
L 193.056025 49.861191 
L 193.309915 49.427352 
L 193.563805 49.752737 
L 193.817696 47.583518 
L 194.325476 50.403507 
L 194.579366 48.125811 
L 194.833257 48.776582 
L 195.087147 51.379639 
L 195.341037 48.451197 
L 195.594927 49.318898 
L 195.848818 49.318898 
L 196.102708 49.644283 
L 196.356598 49.210421 
L 196.610488 49.861191 
L 196.864379 50.837346 
L 197.118269 50.837346 
L 197.372159 52.24734 
L 197.626049 48.885036 
L 197.87994 48.559673 
L 198.13383 50.728892 
L 198.38772 49.861191 
L 198.64161 50.403507 
L 198.895501 50.078122 
L 199.149391 49.427352 
L 199.403281 50.620415 
L 199.657171 50.29503 
L 199.911062 48.125811 
L 200.164952 47.691972 
L 200.418842 50.620415 
L 200.672732 47.800426 
L 200.926623 50.9458 
L 201.180513 50.837346 
L 201.434403 48.776582 
L 201.688293 50.837346 
L 201.942184 49.752737 
L 202.196074 49.752737 
L 202.449964 50.511961 
L 202.703854 49.427352 
L 202.957745 48.885036 
L 203.211635 51.162731 
L 203.465525 50.186576 
L 203.719415 49.861191 
L 203.973306 50.728892 
L 204.227196 47.583518 
L 204.734976 51.271185 
L 205.242757 48.125811 
L 205.750537 49.752737 
L 206.004428 49.969668 
L 206.258318 49.210421 
L 206.512208 49.101967 
L 206.766098 49.535806 
L 207.019989 49.427352 
L 207.273879 50.29503 
L 207.527769 48.885036 
L 207.78166 48.342742 
L 208.03555 49.101967 
L 208.28944 50.29503 
L 208.54333 48.776582 
L 208.797221 48.776582 
L 209.051111 50.29503 
L 209.305001 49.210421 
L 209.558891 50.837346 
L 209.812782 49.861191 
L 210.066672 48.234288 
L 210.320562 51.162731 
L 210.574452 49.318898 
L 211.082233 51.162731 
L 211.336123 48.234288 
L 211.590013 50.837346 
L 211.843904 49.210421 
L 212.097794 48.776582 
L 212.351684 49.210421 
L 212.859465 51.162731 
L 213.113355 50.511961 
L 213.367245 51.271185 
L 213.875026 48.017357 
L 214.382806 51.162731 
L 214.636696 49.644283 
L 214.890587 49.318898 
L 215.144477 50.078122 
L 215.398367 48.776582 
L 215.906148 50.9458 
L 216.160038 48.559673 
L 216.413928 49.210421 
L 216.667818 49.101967 
L 216.921709 48.559673 
L 217.175599 49.318898 
L 217.429489 49.427352 
L 217.683379 50.620415 
L 217.93727 50.837346 
L 218.19116 50.078122 
L 218.44505 48.668128 
L 218.69894 49.644283 
L 218.952831 48.559673 
L 219.206721 50.620415 
L 219.460611 50.186576 
L 219.968392 50.511961 
L 220.222282 49.101967 
L 220.476172 49.101967 
L 220.730062 49.752737 
L 221.237843 48.342742 
L 221.491733 50.078122 
L 221.999514 49.752737 
L 222.253404 50.29503 
L 222.507294 50.511961 
L 222.761184 51.921955 
L 223.015075 49.101967 
L 223.268965 50.29503 
L 223.522855 49.861191 
L 223.776745 49.969668 
L 224.030636 51.054277 
L 224.538416 48.776582 
L 224.792307 50.728892 
L 225.046197 49.535806 
L 225.300087 50.29503 
L 225.553977 49.752737 
L 225.807868 48.776582 
L 226.061758 50.728892 
L 226.315648 49.427352 
L 226.823429 51.59657 
L 227.077319 49.535806 
L 227.331209 50.9458 
L 227.585099 50.078122 
L 227.83899 50.511961 
L 228.09288 48.342742 
L 228.34677 48.559673 
L 228.60066 51.488116 
L 228.854551 49.101967 
L 229.108441 50.620415 
L 229.362331 47.475041 
L 229.616221 51.162731 
L 230.377892 48.559673 
L 230.631782 50.728892 
L 231.139563 48.017357 
L 231.647343 53.006564 
L 231.901234 49.210421 
L 232.155124 50.620415 
L 232.409014 49.427352 
L 232.662904 50.403507 
L 232.916795 49.427352 
L 233.170685 47.583518 
L 233.678465 49.861191 
L 233.932356 49.210421 
L 234.186246 49.644283 
L 234.440136 48.993513 
L 234.694026 49.318898 
L 234.947917 48.559673 
L 235.201807 50.29503 
L 235.455697 50.9458 
L 235.709587 49.861191 
L 235.963478 48.017357 
L 236.471258 49.861191 
L 236.725148 49.752737 
L 236.979039 49.969668 
L 237.232929 47.800426 
L 237.486819 50.186576 
L 237.740709 50.403507 
L 237.9946 48.342742 
L 238.24849 49.101967 
L 238.50238 48.559673 
L 238.75627 48.668128 
L 239.010161 50.29503 
L 239.264051 48.885036 
L 239.517941 49.210421 
L 239.771831 48.559673 
L 240.025722 49.752737 
L 240.279612 49.752737 
L 240.533502 48.776582 
L 240.787393 51.054277 
L 241.295173 49.101967 
L 241.549063 51.813501 
L 241.802954 50.9458 
L 242.056844 49.535806 
L 242.310734 49.427352 
L 242.564624 49.535806 
L 242.818515 48.885036 
L 243.072405 51.054277 
L 243.326295 52.138886 
L 243.580185 49.318898 
L 243.834076 50.511961 
L 244.087966 50.511961 
L 244.341856 48.668128 
L 244.595746 49.752737 
L 245.103527 50.837346 
L 245.357417 52.355794 
L 245.865198 48.993513 
L 246.119088 50.186576 
L 246.372978 50.511961 
L 246.626868 48.885036 
L 246.880759 50.9458 
L 247.134649 50.29503 
L 247.388539 50.29503 
L 247.642429 48.342742 
L 248.15021 49.535806 
L 248.4041 49.427352 
L 248.65799 49.861191 
L 249.165771 48.885036 
L 249.419661 49.210421 
L 249.673551 50.078122 
L 249.927442 49.101967 
L 250.181332 48.885036 
L 250.435222 50.078122 
L 250.689112 49.210421 
L 250.943003 47.475041 
L 251.196893 49.535806 
L 251.450783 47.583518 
L 251.704673 50.620415 
L 252.212454 48.234288 
L 252.466344 50.728892 
L 252.720234 50.728892 
L 252.974125 50.29503 
L 253.228015 50.837346 
L 253.481905 48.993513 
L 253.735795 48.234288 
L 253.989686 49.861191 
L 254.243576 48.342742 
L 254.497466 47.583518 
L 254.751356 50.403507 
L 255.005247 50.511961 
L 255.259137 51.379639 
L 255.513027 51.59657 
L 255.766917 49.644283 
L 256.020808 50.29503 
L 256.274698 50.620415 
L 256.528588 49.101967 
L 256.782479 50.511961 
L 257.036369 47.149679 
L 257.290259 49.535806 
L 257.544149 49.427352 
L 257.79804 48.234288 
L 258.05193 50.078122 
L 258.30582 46.498909 
L 258.55971 50.728892 
L 259.067491 51.59657 
L 259.321381 50.511961 
L 259.575271 50.511961 
L 259.829162 50.078122 
L 260.336942 48.234288 
L 260.844723 50.837346 
L 261.098613 50.511961 
L 261.352503 50.620415 
L 261.860284 48.776582 
L 262.114174 48.993513 
L 262.368064 47.800426 
L 262.621954 48.451197 
L 262.875845 49.969668 
L 263.129735 50.078122 
L 263.383625 49.210421 
L 263.637515 50.186576 
L 263.891406 49.861191 
L 264.145296 48.885036 
L 264.399186 51.271185 
L 264.653076 49.752737 
L 264.906967 47.366587 
L 265.160857 49.969668 
L 265.668637 50.403507 
L 265.922528 48.125811 
L 266.176418 50.403507 
L 266.684198 48.125811 
L 266.938089 51.379639 
L 267.445869 49.318898 
L 267.699759 51.379639 
L 267.95365 51.162731 
L 268.20754 49.427352 
L 268.46143 49.210421 
L 268.71532 49.861191 
L 268.969211 49.210421 
L 269.223101 49.210421 
L 269.476991 51.054277 
L 269.730881 49.861191 
L 269.984772 49.969668 
L 270.238662 49.752737 
L 270.492552 49.752737 
L 270.746442 49.318898 
L 271.000333 51.59657 
L 271.254223 50.29503 
L 271.508113 48.125811 
L 271.762003 49.969668 
L 272.015894 48.776582 
L 272.269784 48.993513 
L 272.523674 50.9458 
L 272.777564 48.668128 
L 273.031455 49.861191 
L 273.285345 48.668128 
L 273.539235 50.29503 
L 273.793126 49.427352 
L 274.047016 47.691972 
L 274.300906 50.511961 
L 274.554796 49.969668 
L 274.808687 49.969668 
L 275.062577 49.427352 
L 275.316467 50.9458 
L 275.570357 51.271185 
L 275.824248 50.186576 
L 276.078138 48.342742 
L 276.332028 48.776582 
L 276.585918 50.620415 
L 276.839809 50.186576 
L 277.093699 52.355794 
L 277.347589 48.776582 
L 277.601479 51.054277 
L 277.85537 49.861191 
L 278.10926 49.752737 
L 278.36315 48.776582 
L 278.61704 48.885036 
L 278.870931 47.908903 
L 279.124821 50.078122 
L 279.378711 49.644283 
L 279.632601 51.054277 
L 279.886492 48.993513 
L 280.140382 50.620415 
L 280.394272 49.752737 
L 280.648162 51.162731 
L 280.902053 50.29503 
L 281.409833 47.908903 
L 281.663723 47.583518 
L 282.171504 48.993513 
L 282.425394 49.101967 
L 282.679284 47.800426 
L 282.933175 50.9458 
L 283.187065 49.861191 
L 283.440955 50.186576 
L 283.694845 50.728892 
L 283.948736 49.535806 
L 284.202626 49.644283 
L 284.456516 50.078122 
L 284.710406 49.861191 
L 285.472077 48.125811 
L 285.725967 49.752737 
L 285.979858 49.752737 
L 286.233748 49.427352 
L 286.487638 50.403507 
L 286.741528 50.403507 
L 286.995419 50.9458 
L 287.249309 48.125811 
L 287.503199 50.403507 
L 287.757089 49.861191 
L 288.01098 50.403507 
L 288.51876 49.318898 
L 288.77265 49.644283 
L 289.026541 51.054277 
L 289.534321 48.885036 
L 289.788212 48.993513 
L 290.295992 49.535806 
L 290.549882 49.644283 
L 290.803773 50.837346 
L 291.057663 49.318898 
L 291.311553 50.078122 
L 291.565443 51.705024 
L 292.073224 49.318898 
L 292.327114 50.9458 
L 292.581004 49.101967 
L 292.834895 50.29503 
L 293.088785 49.752737 
L 293.342675 50.728892 
L 293.850456 48.668128 
L 294.104346 48.668128 
L 294.358236 49.101967 
L 294.612126 51.488116 
L 295.119907 48.668128 
L 295.373797 49.210421 
L 295.627687 47.800426 
L 295.881578 48.776582 
L 296.135468 50.511961 
L 296.389358 48.885036 
L 296.643248 50.29503 
L 296.897139 50.078122 
L 297.151029 48.559673 
L 297.404919 48.776582 
L 297.658809 50.728892 
L 297.9127 49.644283 
L 298.16659 49.427352 
L 298.42048 50.078122 
L 298.67437 51.59657 
L 298.928261 50.511961 
L 299.182151 48.342742 
L 299.689931 49.427352 
L 299.943822 50.620415 
L 300.451602 48.668128 
L 300.705492 50.837346 
L 300.959383 48.776582 
L 301.213273 48.776582 
L 301.467163 49.861191 
L 301.721053 48.125811 
L 301.974944 52.572725 
L 302.228834 49.969668 
L 302.482724 49.752737 
L 302.736614 47.800426 
L 303.244395 51.271185 
L 303.498285 48.559673 
L 303.752175 48.993513 
L 304.006066 49.861191 
L 304.259956 47.908903 
L 304.513846 48.451197 
L 304.767736 49.535806 
L 305.021627 49.644283 
L 305.275517 48.885036 
L 305.529407 49.644283 
L 305.783298 48.342742 
L 306.037188 49.535806 
L 306.291078 49.752737 
L 306.544968 48.125811 
L 306.798859 48.017357 
L 307.052749 51.59657 
L 307.306639 49.535806 
L 307.560529 50.186576 
L 307.81442 51.705024 
L 308.06831 49.318898 
L 308.3222 50.29503 
L 308.57609 49.427352 
L 308.829981 48.017357 
L 309.083871 50.728892 
L 309.337761 48.559673 
L 309.591651 50.29503 
L 309.845542 49.861191 
L 310.099432 49.101967 
L 310.099432 49.101967 
" clip-path="url(#p4a77ad0244)" style="fill: none; stroke: #0000ff; stroke-width: 0.6; stroke-linecap: square"/>
   </g>
   <g id="line2d_24">
    <path d="M 56.463068 226.002571 
L 56.716958 222.460175 
L 56.970849 230.557091 
L 57.224739 220.688988 
L 57.478629 229.798004 
L 57.732519 229.544979 
L 57.98641 229.038918 
L 58.2403 227.773781 
L 58.74808 131.369987 
L 59.001971 140.73204 
L 59.255861 217.905678 
L 59.763641 163.504593 
L 60.271422 210.567848 
L 60.525312 227.520744 
L 60.779202 203.230042 
L 61.033093 225.496521 
L 61.286983 190.831642 
L 61.540873 116.947387 
L 61.794764 91.897575 
L 62.048654 139.972954 
L 62.302544 222.460175 
L 62.556434 87.596092 
L 62.810325 95.693008 
L 63.064215 227.520744 
L 63.318105 83.547645 
L 63.571995 91.897575 
L 63.825886 226.255608 
L 64.079776 111.380745 
L 64.333666 113.151954 
L 64.587556 87.849128 
L 64.841447 122.260971 
L 65.095337 90.885452 
L 65.349227 100.753555 
L 65.603117 217.399605 
L 65.857008 119.477661 
L 66.110898 87.596092 
L 66.364788 92.909698 
L 66.618678 224.484398 
L 66.872569 106.067161 
L 67.126459 94.680885 
L 67.380349 78.234039 
L 67.634239 118.465538 
L 67.88813 100.500541 
L 68.14202 93.162712 
L 68.39591 227.520744 
L 68.6498 131.369987 
L 69.157581 79.246162 
L 69.411471 104.548988 
L 69.665361 185.011986 
L 69.919252 88.355178 
L 70.173142 82.029472 
L 70.427032 82.282508 
L 70.680922 105.308075 
L 70.934813 217.905678 
L 71.188703 97.464195 
L 71.442593 87.343055 
L 71.696483 88.861228 
L 71.950374 93.921798 
L 72.204264 103.536888 
L 72.458154 84.306732 
L 72.712044 94.680885 
L 72.965935 91.644538 
L 73.219825 90.885452 
L 73.473715 91.897575 
L 73.727605 96.199058 
L 73.981496 160.974296 
L 74.235386 81.270385 
L 74.489276 212.086021 
L 74.743166 88.355178 
L 74.997057 105.561111 
L 75.250947 90.632438 
L 75.504837 88.102142 
L 76.012618 182.734726 
L 76.266508 98.223281 
L 76.520398 99.235405 
L 76.774288 85.318832 
L 77.028179 89.114265 
L 77.282069 194.880089 
L 77.535959 98.223281 
L 77.78985 84.053695 
L 78.04374 81.523422 
L 78.29763 227.267731 
L 78.55152 227.773781 
L 78.805411 83.800659 
L 79.059301 79.246162 
L 79.313191 93.162712 
L 79.567081 91.644538 
L 79.820972 95.693008 
L 80.074862 113.911041 
L 80.328752 87.090042 
L 80.582642 108.850471 
L 80.836533 79.752212 
L 81.344313 88.861228 
L 81.598203 97.211158 
L 81.852094 109.862594 
L 82.105984 86.837005 
L 82.359874 106.067161 
L 82.613764 79.499198 
L 82.867655 180.963539 
L 83.121545 86.330955 
L 83.375435 216.640541 
L 83.629325 93.415748 
L 83.883216 227.773781 
L 84.137106 227.773781 
L 84.390996 96.958145 
L 84.644886 117.453437 
L 84.898777 89.367302 
L 85.152667 115.176178 
L 85.406557 227.267731 
L 85.660447 211.073898 
L 85.914338 79.752212 
L 86.168228 87.343055 
L 86.422118 160.21521 
L 86.676008 94.427848 
L 86.929899 124.538231 
L 87.183789 93.921798 
L 87.437679 126.309417 
L 87.94546 84.306732 
L 88.19935 227.773781 
L 88.45324 128.839714 
L 88.70713 84.559745 
L 88.961021 184.252899 
L 89.214911 95.439972 
L 89.468801 97.464195 
L 89.722691 77.981025 
L 89.976582 127.321541 
L 90.230472 78.234039 
L 90.484362 83.294609 
L 90.738252 85.318832 
L 90.992143 105.308075 
L 91.246033 91.391525 
L 91.499923 85.065818 
L 91.753813 137.44268 
L 92.007704 224.990471 
L 92.261594 90.632438 
L 92.515484 86.583969 
L 92.769374 124.538231 
L 93.023265 228.026795 
L 93.277155 191.590729 
L 93.531045 195.133125 
L 93.784936 88.861228 
L 94.038826 84.812782 
L 94.292716 135.418434 
L 94.546606 83.041595 
L 94.800497 86.077919 
L 95.308277 200.446709 
L 95.562167 194.880089 
L 95.816058 104.042938 
L 96.069948 141.74414 
L 96.577728 123.779144 
L 96.831619 225.749558 
L 97.339399 91.644538 
L 97.593289 133.394211 
L 97.84718 82.029472 
L 98.10107 147.310783 
L 98.35496 95.439972 
L 98.60885 86.077919 
L 98.862741 110.115608 
L 99.116631 80.511299 
L 99.370521 151.35923 
L 99.624411 82.535522 
L 99.878302 109.862594 
L 100.132192 83.041595 
L 100.386082 212.845108 
L 100.893863 106.320198 
L 101.147753 89.873352 
L 101.401643 114.670128 
L 101.655533 96.958145 
L 101.909424 92.909698 
L 102.417204 194.374039 
L 102.671094 160.468246 
L 102.924985 89.873352 
L 103.178875 83.547645 
L 103.432765 80.764335 
L 103.686655 82.282508 
L 103.940546 84.812782 
L 104.194436 84.053695 
L 104.448326 221.701088 
L 104.702216 88.608215 
L 104.956107 97.970245 
L 105.209997 121.248848 
L 105.463887 86.837005 
L 105.717777 90.885452 
L 105.971668 80.005249 
L 106.225558 109.356521 
L 106.733338 80.258262 
L 106.987229 104.295951 
L 107.241119 144.274437 
L 107.495009 94.427848 
L 107.748899 78.487075 
L 108.00279 114.670128 
L 108.25668 131.369987 
L 108.51057 89.873352 
L 108.76446 106.573211 
L 109.018351 82.535522 
L 109.526131 218.411728 
L 109.780021 85.318832 
L 110.033912 104.042938 
L 110.287802 167.806076 
L 110.541692 81.776435 
L 110.795583 84.559745 
L 111.049473 109.862594 
L 111.303363 103.536888 
L 111.557253 83.041595 
L 111.811144 91.138488 
L 112.065034 153.889503 
L 112.318924 90.126365 
L 112.572814 84.053695 
L 112.826705 83.041595 
L 113.080595 92.909698 
L 113.334485 135.418434 
L 113.588375 93.162712 
L 113.842266 126.562454 
L 114.096156 90.632438 
L 114.350046 217.146591 
L 114.603936 89.367302 
L 114.857827 85.824905 
L 115.111717 85.571868 
L 115.365607 83.800659 
L 115.619497 79.499198 
L 115.873388 85.065818 
L 116.127278 96.452095 
L 116.381168 142.250213 
L 116.635058 81.776435 
L 116.888949 81.523422 
L 117.142839 90.379402 
L 117.650619 81.017349 
L 117.90451 176.915092 
L 118.1584 80.764335 
L 118.41229 80.258262 
L 118.66618 82.788558 
L 118.920071 81.523422 
L 119.173961 85.824905 
L 119.427851 95.186935 
L 119.681741 83.800659 
L 119.935632 97.464195 
L 120.189522 97.717231 
L 120.443412 84.559745 
L 120.697302 92.909698 
L 120.951193 85.065818 
L 121.458973 96.199058 
L 121.712863 89.873352 
L 121.966754 80.511299 
L 122.220644 82.282508 
L 122.474534 79.752212 
L 122.728424 80.511299 
L 122.982315 122.767021 
L 123.236205 83.294609 
L 123.490095 88.355178 
L 123.743985 86.583969 
L 123.997876 88.861228 
L 124.251766 80.764335 
L 124.505656 80.005249 
L 124.759546 81.523422 
L 125.013437 86.077919 
L 125.267327 85.065818 
L 125.521217 82.788558 
L 125.775107 83.800659 
L 126.028998 78.993125 
L 126.282888 90.379402 
L 126.536778 83.547645 
L 126.790669 83.041595 
L 127.044559 88.102142 
L 127.298449 81.523422 
L 127.80623 86.077919 
L 128.06012 86.077919 
L 128.31401 81.523422 
L 128.5679 84.559745 
L 129.075681 79.752212 
L 129.329571 86.077919 
L 129.583461 78.993125 
L 129.837352 88.102142 
L 130.091242 105.814125 
L 130.345132 82.029472 
L 130.599022 101.006591 
L 131.106803 77.727989 
L 131.360693 91.897575 
L 131.614583 82.788558 
L 131.868474 86.077919 
L 132.122364 83.800659 
L 132.630144 80.764335 
L 132.884035 81.776435 
L 133.137925 83.294609 
L 133.391815 81.523422 
L 133.645705 146.551697 
L 133.899596 84.053695 
L 134.153486 83.547645 
L 134.407376 80.511299 
L 134.661266 89.873352 
L 134.915157 81.017349 
L 135.169047 82.282508 
L 135.422937 81.523422 
L 135.676827 80.005249 
L 135.930718 81.523422 
L 136.184608 85.824905 
L 136.438498 81.270385 
L 136.692388 84.053695 
L 137.200169 82.029472 
L 137.454059 83.294609 
L 137.707949 99.741455 
L 137.96184 82.535522 
L 138.21573 83.041595 
L 138.46962 82.029472 
L 138.72351 83.041595 
L 138.977401 82.535522 
L 139.231291 84.053695 
L 139.485181 86.837005 
L 139.739071 88.102142 
L 139.992962 81.776435 
L 140.246852 107.079284 
L 140.500742 84.053695 
L 141.008523 81.776435 
L 141.262413 82.029472 
L 141.516303 91.897575 
L 141.770193 81.270385 
L 142.024084 80.764335 
L 142.277974 81.017349 
L 142.531864 80.764335 
L 142.785755 81.017349 
L 143.039645 81.017349 
L 143.547425 83.800659 
L 143.801316 82.282508 
L 144.055206 83.800659 
L 144.309096 82.282508 
L 144.562986 79.499198 
L 144.816877 80.764335 
L 145.070767 85.065818 
L 145.324657 82.282508 
L 145.578547 81.017349 
L 145.832438 83.041595 
L 146.086328 81.776435 
L 146.340218 82.788558 
L 146.594108 81.017349 
L 146.847999 83.547645 
L 147.101889 82.029472 
L 147.609669 83.800659 
L 147.86356 82.029472 
L 148.11745 82.029472 
L 148.37134 80.511299 
L 148.879121 90.885452 
L 149.133011 80.764335 
L 149.386901 80.258262 
L 149.640791 80.005249 
L 149.894682 84.053695 
L 150.148572 81.523422 
L 150.402462 84.306732 
L 150.656352 84.053695 
L 150.910243 84.053695 
L 151.164133 82.282508 
L 151.418023 83.800659 
L 151.671913 83.294609 
L 151.925804 83.294609 
L 152.179694 84.559745 
L 152.433584 84.306732 
L 152.687474 82.282508 
L 152.941365 81.776435 
L 153.195255 84.306732 
L 153.449145 83.294609 
L 153.703035 80.258262 
L 153.956926 82.788558 
L 154.210816 83.547645 
L 154.464706 83.294609 
L 154.972487 81.523422 
L 155.226377 81.270385 
L 155.480267 81.776435 
L 155.734157 82.029472 
L 155.988048 83.800659 
L 156.241938 82.282508 
L 156.495828 82.282508 
L 157.003609 84.306732 
L 157.257499 83.294609 
L 157.511389 82.788558 
L 157.765279 81.270385 
L 158.01917 80.764335 
L 158.27306 82.029472 
L 158.52695 81.523422 
L 158.78084 80.005249 
L 159.034731 83.294609 
L 159.288621 82.282508 
L 159.542511 83.294609 
L 159.796402 82.535522 
L 160.050292 81.270385 
L 160.304182 81.017349 
L 160.558072 83.800659 
L 160.811963 84.812782 
L 161.319743 81.523422 
L 161.573633 83.294609 
L 161.827524 83.547645 
L 162.081414 82.535522 
L 162.335304 82.788558 
L 162.589194 83.547645 
L 162.843085 87.849128 
L 163.096975 81.270385 
L 163.350865 83.547645 
L 163.604755 84.812782 
L 163.858646 83.547645 
L 164.112536 81.270385 
L 164.366426 82.282508 
L 164.620316 80.764335 
L 164.874207 83.800659 
L 165.128097 82.535522 
L 165.381987 82.029472 
L 165.635877 83.294609 
L 165.889768 83.294609 
L 166.143658 82.535522 
L 166.397548 82.282508 
L 166.651438 83.041595 
L 166.905329 80.764335 
L 167.159219 82.029472 
L 167.666999 81.017349 
L 167.92089 80.005249 
L 168.42867 81.523422 
L 168.68256 81.776435 
L 168.936451 81.776435 
L 169.190341 83.041595 
L 169.698121 82.029472 
L 169.952012 81.270385 
L 170.459792 83.547645 
L 170.713682 81.017349 
L 170.967573 80.764335 
L 171.221463 81.776435 
L 171.475353 82.282508 
L 171.729243 81.776435 
L 171.983134 80.764335 
L 172.237024 80.511299 
L 172.490914 82.535522 
L 172.744804 83.041595 
L 173.252585 81.017349 
L 173.506475 82.029472 
L 173.760365 82.282508 
L 174.014256 81.776435 
L 174.522036 81.776435 
L 174.775926 82.788558 
L 175.029817 82.282508 
L 175.283707 80.764335 
L 175.537597 82.282508 
L 175.791488 81.523422 
L 176.045378 82.535522 
L 176.299268 81.270385 
L 176.553158 82.282508 
L 176.807049 81.017349 
L 177.060939 81.270385 
L 177.314829 82.535522 
L 177.568719 81.523422 
L 177.82261 83.041595 
L 178.0765 80.764335 
L 178.33039 81.270385 
L 178.58428 81.523422 
L 178.838171 81.017349 
L 179.092061 81.017349 
L 179.345951 80.511299 
L 179.599841 82.535522 
L 179.853732 81.776435 
L 180.107622 81.523422 
L 180.361512 80.258262 
L 180.615402 81.523422 
L 180.869293 81.776435 
L 181.377073 81.776435 
L 181.630963 81.017349 
L 181.884854 81.523422 
L 182.138744 81.523422 
L 182.392634 81.776435 
L 182.646524 81.776435 
L 182.900415 84.559745 
L 183.154305 82.029472 
L 183.662085 84.053695 
L 183.915976 80.511299 
L 184.423756 80.511299 
L 184.677646 82.282508 
L 184.931537 85.065818 
L 185.185427 81.523422 
L 185.439317 82.788558 
L 185.693207 80.258262 
L 185.947098 81.523422 
L 186.200988 81.270385 
L 186.454878 82.788558 
L 186.708768 81.776435 
L 186.962659 82.788558 
L 187.216549 83.041595 
L 187.470439 81.523422 
L 187.724329 82.282508 
L 187.97822 82.282508 
L 188.23211 81.523422 
L 188.486 82.282508 
L 188.73989 81.776435 
L 188.993781 81.017349 
L 189.247671 81.523422 
L 189.501561 82.535522 
L 189.755451 82.282508 
L 190.009342 82.282508 
L 190.263232 82.535522 
L 190.517122 83.800659 
L 190.771012 79.752212 
L 191.024903 84.053695 
L 191.278793 83.800659 
L 191.532683 81.776435 
L 191.786574 84.053695 
L 192.040464 83.547645 
L 192.294354 81.270385 
L 192.548244 83.041595 
L 192.802135 83.294609 
L 193.056025 81.270385 
L 193.309915 84.053695 
L 193.563805 81.270385 
L 193.817696 80.511299 
L 194.071586 82.029472 
L 194.325476 82.535522 
L 194.579366 84.053695 
L 194.833257 82.535522 
L 195.087147 82.535522 
L 195.341037 81.776435 
L 195.594927 81.776435 
L 195.848818 82.282508 
L 196.102708 81.523422 
L 196.356598 83.294609 
L 196.610488 81.523422 
L 196.864379 82.282508 
L 197.118269 82.029472 
L 197.372159 83.041595 
L 197.626049 82.282508 
L 197.87994 82.029472 
L 198.13383 82.788558 
L 198.38772 82.029472 
L 198.64161 82.788558 
L 199.149391 81.776435 
L 199.403281 83.294609 
L 199.657171 81.523422 
L 199.911062 82.029472 
L 200.164952 83.547645 
L 200.418842 81.017349 
L 200.672732 82.282508 
L 200.926623 82.535522 
L 201.180513 83.041595 
L 201.434403 82.535522 
L 201.942184 82.029472 
L 202.196074 83.294609 
L 202.449964 82.535522 
L 202.703854 83.041595 
L 202.957745 83.041595 
L 203.211635 82.788558 
L 203.719415 82.788558 
L 203.973306 81.776435 
L 204.227196 82.282508 
L 204.481086 83.547645 
L 204.734976 83.041595 
L 204.988867 83.547645 
L 205.242757 83.294609 
L 205.750537 82.029472 
L 206.004428 82.282508 
L 206.258318 82.029472 
L 206.512208 82.788558 
L 206.766098 82.535522 
L 207.019989 81.523422 
L 207.273879 82.282508 
L 207.527769 82.535522 
L 207.78166 81.523422 
L 208.03555 82.029472 
L 208.28944 82.282508 
L 209.051111 82.282508 
L 209.305001 82.535522 
L 209.558891 81.523422 
L 209.812782 82.788558 
L 210.066672 82.282508 
L 210.320562 82.535522 
L 210.574452 83.800659 
L 211.082233 81.523422 
L 211.336123 83.041595 
L 211.590013 82.535522 
L 211.843904 82.282508 
L 212.097794 83.041595 
L 212.351684 82.535522 
L 212.605574 83.294609 
L 212.859465 82.788558 
L 213.113355 82.029472 
L 213.367245 83.294609 
L 213.621135 82.282508 
L 213.875026 82.788558 
L 214.128916 83.041595 
L 214.382806 82.788558 
L 214.636696 82.029472 
L 214.890587 83.041595 
L 215.144477 82.535522 
L 215.398367 82.535522 
L 215.652257 83.041595 
L 215.906148 82.029472 
L 216.160038 82.535522 
L 216.413928 82.029472 
L 216.667818 82.788558 
L 216.921709 82.788558 
L 217.175599 81.776435 
L 217.429489 82.029472 
L 217.683379 82.535522 
L 217.93727 82.788558 
L 218.19116 82.788558 
L 218.44505 83.294609 
L 218.69894 82.535522 
L 218.952831 82.535522 
L 219.206721 82.788558 
L 219.460611 82.029472 
L 219.714501 82.535522 
L 219.968392 82.282508 
L 220.222282 82.788558 
L 220.476172 82.788558 
L 220.730062 82.282508 
L 220.983953 82.788558 
L 221.491733 82.788558 
L 221.745623 83.041595 
L 222.253404 83.041595 
L 222.507294 82.788558 
L 222.761184 81.776435 
L 223.015075 82.029472 
L 223.522855 83.041595 
L 223.776745 83.041595 
L 224.030636 82.535522 
L 224.284526 82.535522 
L 224.538416 83.294609 
L 224.792307 83.294609 
L 225.046197 82.788558 
L 225.553977 83.294609 
L 225.807868 82.788558 
L 226.061758 82.535522 
L 226.315648 82.029472 
L 226.569538 83.041595 
L 227.077319 82.029472 
L 227.331209 82.788558 
L 227.585099 82.282508 
L 227.83899 82.788558 
L 228.09288 82.282508 
L 228.34677 83.041595 
L 228.60066 82.282508 
L 228.854551 82.029472 
L 229.108441 82.029472 
L 229.362331 82.282508 
L 229.870112 82.282508 
L 230.124002 81.270385 
L 230.377892 82.282508 
L 230.631782 82.788558 
L 231.139563 82.788558 
L 231.393453 81.776435 
L 231.647343 83.041595 
L 231.901234 83.294609 
L 232.155124 83.041595 
L 232.916795 83.041595 
L 233.424575 82.029472 
L 233.678465 82.788558 
L 233.932356 81.523422 
L 234.186246 82.282508 
L 234.440136 82.029472 
L 234.694026 82.282508 
L 234.947917 82.029472 
L 235.201807 82.282508 
L 235.455697 83.294609 
L 235.963478 83.294609 
L 236.217368 83.547645 
L 236.471258 83.547645 
L 236.725148 83.041595 
L 236.979039 83.547645 
L 237.232929 83.294609 
L 237.486819 83.547645 
L 237.740709 83.294609 
L 237.9946 83.294609 
L 238.24849 83.800659 
L 238.50238 83.294609 
L 238.75627 83.041595 
L 239.010161 83.294609 
L 239.264051 82.788558 
L 239.771831 82.788558 
L 240.025722 83.041595 
L 240.279612 82.788558 
L 240.533502 83.041595 
L 241.041283 83.041595 
L 241.549063 82.535522 
L 241.802954 83.294609 
L 242.310734 82.029472 
L 242.564624 82.535522 
L 243.072405 81.523422 
L 243.326295 81.776435 
L 243.580185 82.282508 
L 243.834076 82.029472 
L 244.087966 82.535522 
L 244.341856 82.535522 
L 244.595746 82.282508 
L 245.103527 82.788558 
L 245.611307 82.788558 
L 245.865198 83.041595 
L 246.119088 83.041595 
L 246.372978 82.788558 
L 246.626868 83.041595 
L 246.880759 82.788558 
L 247.134649 82.788558 
L 247.642429 83.294609 
L 247.89632 82.788558 
L 248.15021 82.788558 
L 248.4041 82.535522 
L 248.911881 82.535522 
L 249.165771 82.282508 
L 249.419661 82.535522 
L 249.673551 82.535522 
L 249.927442 82.788558 
L 250.435222 82.788558 
L 250.689112 83.041595 
L 250.943003 82.788558 
L 251.450783 82.788558 
L 251.704673 83.041595 
L 251.958564 83.041595 
L 252.212454 82.788558 
L 252.466344 82.788558 
L 252.720234 82.282508 
L 253.228015 82.282508 
L 253.481905 82.788558 
L 253.735795 82.029472 
L 253.989686 82.535522 
L 254.751356 82.535522 
L 255.005247 82.788558 
L 255.513027 82.788558 
L 255.766917 83.041595 
L 256.020808 82.535522 
L 256.274698 83.041595 
L 256.782479 82.535522 
L 257.036369 82.029472 
L 257.290259 82.788558 
L 257.544149 82.788558 
L 257.79804 82.282508 
L 258.30582 82.282508 
L 258.55971 82.029472 
L 258.813601 82.535522 
L 259.067491 82.282508 
L 259.321381 82.535522 
L 259.575271 82.029472 
L 260.083052 82.029472 
L 260.336942 82.535522 
L 260.590832 82.535522 
L 260.844723 82.282508 
L 261.098613 82.535522 
L 261.352503 82.029472 
L 261.606393 82.282508 
L 261.860284 82.282508 
L 262.114174 82.535522 
L 262.368064 82.535522 
L 262.621954 82.282508 
L 262.875845 82.535522 
L 263.383625 82.535522 
L 263.637515 83.041595 
L 263.891406 82.788558 
L 264.145296 83.041595 
L 264.399186 82.282508 
L 264.653076 82.535522 
L 264.906967 82.282508 
L 265.160857 82.788558 
L 265.414747 83.041595 
L 265.922528 82.535522 
L 266.176418 83.041595 
L 266.684198 82.535522 
L 266.938089 82.535522 
L 267.445869 83.041595 
L 267.699759 83.041595 
L 267.95365 82.535522 
L 268.20754 82.282508 
L 268.46143 82.788558 
L 268.71532 82.535522 
L 268.969211 82.788558 
L 269.223101 82.788558 
L 269.476991 82.282508 
L 269.730881 83.041595 
L 270.492552 83.041595 
L 270.746442 82.788558 
L 271.000333 82.282508 
L 271.254223 82.282508 
L 271.508113 82.788558 
L 271.762003 83.041595 
L 272.523674 83.041595 
L 272.777564 82.535522 
L 273.285345 83.041595 
L 274.047016 83.041595 
L 274.300906 82.535522 
L 274.554796 83.041595 
L 274.808687 83.294609 
L 275.062577 82.788558 
L 275.316467 83.041595 
L 275.570357 82.788558 
L 275.824248 83.041595 
L 276.078138 83.041595 
L 276.332028 82.535522 
L 276.585918 82.788558 
L 276.839809 82.788558 
L 277.093699 83.041595 
L 277.347589 82.788558 
L 277.601479 82.788558 
L 277.85537 83.041595 
L 278.10926 83.041595 
L 278.36315 82.788558 
L 278.61704 83.294609 
L 278.870931 83.547645 
L 279.124821 83.294609 
L 279.378711 82.788558 
L 279.632601 83.041595 
L 281.155943 83.041595 
L 281.409833 82.788558 
L 281.663723 83.041595 
L 282.171504 83.041595 
L 282.425394 82.788558 
L 282.679284 83.041595 
L 282.933175 82.788558 
L 283.187065 83.041595 
L 283.440955 82.788558 
L 283.694845 83.041595 
L 284.456516 83.041595 
L 284.710406 82.535522 
L 284.964297 83.041595 
L 285.472077 83.041595 
L 285.725967 82.788558 
L 285.979858 82.788558 
L 286.233748 83.041595 
L 286.995419 83.041595 
L 287.249309 82.788558 
L 287.503199 83.041595 
L 287.757089 83.041595 
L 288.01098 82.535522 
L 288.26487 82.535522 
L 288.51876 83.041595 
L 288.77265 82.788558 
L 289.026541 83.041595 
L 289.280431 82.535522 
L 289.534321 82.282508 
L 289.788212 82.788558 
L 290.042102 83.041595 
L 290.295992 82.535522 
L 290.803773 82.535522 
L 291.311553 83.041595 
L 291.565443 82.788558 
L 291.819334 83.041595 
L 292.073224 82.788558 
L 293.596565 82.788558 
L 293.850456 83.041595 
L 294.104346 83.041595 
L 294.358236 82.788558 
L 294.612126 82.788558 
L 294.866017 83.041595 
L 295.119907 82.788558 
L 295.373797 82.788558 
L 295.627687 83.041595 
L 295.881578 83.041595 
L 296.135468 82.788558 
L 296.389358 82.788558 
L 296.643248 83.041595 
L 296.897139 82.788558 
L 297.404919 82.788558 
L 297.658809 83.041595 
L 297.9127 82.788558 
L 298.16659 82.788558 
L 298.42048 83.041595 
L 298.928261 83.041595 
L 299.182151 82.788558 
L 299.436041 83.041595 
L 299.689931 82.788558 
L 299.943822 82.788558 
L 300.197712 83.041595 
L 300.451602 82.788558 
L 300.705492 83.041595 
L 300.959383 82.788558 
L 301.213273 82.788558 
L 301.467163 82.282508 
L 301.721053 82.535522 
L 301.974944 82.535522 
L 302.482724 83.041595 
L 302.990505 82.535522 
L 303.244395 83.041595 
L 303.498285 82.535522 
L 303.752175 82.535522 
L 304.006066 82.282508 
L 304.259956 82.535522 
L 305.529407 82.535522 
L 306.037188 83.547645 
L 306.291078 83.041595 
L 306.544968 82.788558 
L 307.306639 82.788558 
L 307.560529 82.535522 
L 307.81442 82.535522 
L 308.06831 82.282508 
L 308.57609 82.282508 
L 308.829981 83.041595 
L 309.083871 82.282508 
L 309.337761 82.282508 
L 309.591651 82.535522 
L 309.845542 82.535522 
L 310.099432 82.788558 
L 310.099432 82.788558 
" clip-path="url(#p4a77ad0244)" style="fill: none; stroke: #ff0000; stroke-width: 0.6; stroke-linecap: square"/>
   </g>
   <g id="patch_3">
    <path d="M 43.78125 239.76 
L 43.78125 37.296 
" style="fill: none; stroke: #000000; stroke-width: 0.8; stroke-linejoin: miter; stroke-linecap: square"/>
   </g>
   <g id="patch_4">
    <path d="M 322.78125 239.76 
L 322.78125 37.296 
" style="fill: none; stroke: #000000; stroke-width: 0.8; stroke-linejoin: miter; stroke-linecap: square"/>
   </g>
   <g id="patch_5">
    <path d="M 43.78125 239.76 
L 322.78125 239.76 
" style="fill: none; stroke: #000000; stroke-width: 0.8; stroke-linejoin: miter; stroke-linecap: square"/>
   </g>
   <g id="patch_6">
    <path d="M 43.78125 37.296 
L 322.78125 37.296 
" style="fill: none; stroke: #000000; stroke-width: 0.8; stroke-linejoin: miter; stroke-linecap: square"/>
   </g>
   <g id="text_14">
    <!-- Quantized-16 Model -->
    <g transform="translate(137.983828 31.296) scale(0.09 -0.09)">
     <defs>
      <path id="DejaVuSans-51" d="M 2522 4238 
Q 1834 4238 1429 3725 
Q 1025 3213 1025 2328 
Q 1025 1447 1429 934 
Q 1834 422 2522 422 
Q 3209 422 3611 934 
Q 4013 1447 4013 2328 
Q 4013 3213 3611 3725 
Q 3209 4238 2522 4238 
z
M 3406 84 
L 4238 -825 
L 3475 -825 
L 2784 -78 
Q 2681 -84 2626 -87 
Q 2572 -91 2522 -91 
Q 1538 -91 948 567 
Q 359 1225 359 2328 
Q 359 3434 948 4092 
Q 1538 4750 2522 4750 
Q 3503 4750 4090 4092 
Q 4678 3434 4678 2328 
Q 4678 1516 4351 937 
Q 4025 359 3406 84 
z
" transform="scale(0.015625)"/>
      <path id="DejaVuSans-6e" d="M 3513 2113 
L 3513 0 
L 2938 0 
L 2938 2094 
Q 2938 2591 2744 2837 
Q 2550 3084 2163 3084 
Q 1697 3084 1428 2787 
Q 1159 2491 1159 1978 
L 1159 0 
L 581 0 
L 581 3500 
L 1159 3500 
L 1159 2956 
Q 1366 3272 1645 3428 
Q 1925 3584 2291 3584 
Q 2894 3584 3203 3211 
Q 3513 2838 3513 2113 
z
" transform="scale(0.015625)"/>
      <path id="DejaVuSans-74" d="M 1172 4494 
L 1172 3500 
L 2356 3500 
L 2356 3053 
L 1172 3053 
L 1172 1153 
Q 1172 725 1289 603 
Q 1406 481 1766 481 
L 2356 481 
L 2356 0 
L 1766 0 
Q 1100 0 847 248 
Q 594 497 594 1153 
L 594 3053 
L 172 3053 
L 172 3500 
L 594 3500 
L 594 4494 
L 1172 4494 
z
" transform="scale(0.015625)"/>
      <path id="DejaVuSans-69" d="M 603 3500 
L 1178 3500 
L 1178 0 
L 603 0 
L 603 3500 
z
M 603 4863 
L 1178 4863 
L 1178 4134 
L 603 4134 
L 603 4863 
z
" transform="scale(0.015625)"/>
      <path id="DejaVuSans-7a" d="M 353 3500 
L 3084 3500 
L 3084 2975 
L 922 459 
L 3084 459 
L 3084 0 
L 275 0 
L 275 525 
L 2438 3041 
L 353 3041 
L 353 3500 
z
" transform="scale(0.015625)"/>
      <path id="DejaVuSans-65" d="M 3597 1894 
L 3597 1613 
L 953 1613 
Q 991 1019 1311 708 
Q 1631 397 2203 397 
Q 2534 397 2845 478 
Q 3156 559 3463 722 
L 3463 178 
Q 3153 47 2828 -22 
Q 2503 -91 2169 -91 
Q 1331 -91 842 396 
Q 353 884 353 1716 
Q 353 2575 817 3079 
Q 1281 3584 2069 3584 
Q 2775 3584 3186 3129 
Q 3597 2675 3597 1894 
z
M 3022 2063 
Q 3016 2534 2758 2815 
Q 2500 3097 2075 3097 
Q 1594 3097 1305 2825 
Q 1016 2553 972 2059 
L 3022 2063 
z
" transform="scale(0.015625)"/>
      <path id="DejaVuSans-64" d="M 2906 2969 
L 2906 4863 
L 3481 4863 
L 3481 0 
L 2906 0 
L 2906 525 
Q 2725 213 2448 61 
Q 2172 -91 1784 -91 
Q 1150 -91 751 415 
Q 353 922 353 1747 
Q 353 2572 751 3078 
Q 1150 3584 1784 3584 
Q 2172 3584 2448 3432 
Q 2725 3281 2906 2969 
z
M 947 1747 
Q 947 1113 1208 752 
Q 1469 391 1925 391 
Q 2381 391 2643 752 
Q 2906 1113 2906 1747 
Q 2906 2381 2643 2742 
Q 2381 3103 1925 3103 
Q 1469 3103 1208 2742 
Q 947 2381 947 1747 
z
" transform="scale(0.015625)"/>
      <path id="DejaVuSans-2d" d="M 313 2009 
L 1997 2009 
L 1997 1497 
L 313 1497 
L 313 2009 
z
" transform="scale(0.015625)"/>
      <path id="DejaVuSans-20" transform="scale(0.015625)"/>
      <path id="DejaVuSans-4d" d="M 628 4666 
L 1569 4666 
L 2759 1491 
L 3956 4666 
L 4897 4666 
L 4897 0 
L 4281 0 
L 4281 4097 
L 3078 897 
L 2444 897 
L 1241 4097 
L 1241 0 
L 628 0 
L 628 4666 
z
" transform="scale(0.015625)"/>
      <path id="DejaVuSans-6c" d="M 603 4863 
L 1178 4863 
L 1178 0 
L 603 0 
L 603 4863 
z
" transform="scale(0.015625)"/>
     </defs>
     <use xlink:href="#DejaVuSans-51"/>
     <use xlink:href="#DejaVuSans-75" x="78.710938"/>
     <use xlink:href="#DejaVuSans-61" x="142.089844"/>
     <use xlink:href="#DejaVuSans-6e" x="203.369141"/>
     <use xlink:href="#DejaVuSans-74" x="266.748047"/>
     <use xlink:href="#DejaVuSans-69" x="305.957031"/>
     <use xlink:href="#DejaVuSans-7a" x="333.740234"/>
     <use xlink:href="#DejaVuSans-65" x="386.230469"/>
     <use xlink:href="#DejaVuSans-64" x="447.753906"/>
     <use xlink:href="#DejaVuSans-2d" x="511.230469"/>
     <use xlink:href="#DejaVuSans-31" x="547.314453"/>
     <use xlink:href="#DejaVuSans-36" x="610.9375"/>
     <use xlink:href="#DejaVuSans-20" x="674.560547"/>
     <use xlink:href="#DejaVuSans-4d" x="706.347656"/>
     <use xlink:href="#DejaVuSans-6f" x="792.626953"/>
     <use xlink:href="#DejaVuSans-64" x="853.808594"/>
     <use xlink:href="#DejaVuSans-65" x="917.285156"/>
     <use xlink:href="#DejaVuSans-6c" x="978.808594"/>
    </g>
   </g>
   <g id="legend_1">
    <g id="patch_7">
     <path d="M 185.565625 234.76 
L 315.78125 234.76 
Q 317.78125 234.76 317.78125 232.76 
L 317.78125 204.40375 
Q 317.78125 202.40375 315.78125 202.40375 
L 185.565625 202.40375 
Q 183.565625 202.40375 183.565625 204.40375 
L 183.565625 232.76 
Q 183.565625 234.76 185.565625 234.76 
z
" style="fill: #ffffff; opacity: 0.8; stroke: #cccccc; stroke-linejoin: miter"/>
    </g>
    <g id="line2d_25">
     <path d="M 187.565625 210.502187 
L 197.565625 210.502187 
L 207.565625 210.502187 
" style="fill: none; stroke: #0000ff; stroke-width: 0.6; stroke-linecap: square"/>
    </g>
    <g id="text_15">
     <!-- Training Accuracy -->
     <g transform="translate(215.565625 214.002187) scale(0.1 -0.1)">
      <defs>
       <path id="DejaVuSans-54" d="M -19 4666 
L 3928 4666 
L 3928 4134 
L 2272 4134 
L 2272 0 
L 1638 0 
L 1638 4134 
L -19 4134 
L -19 4666 
z
" transform="scale(0.015625)"/>
       <path id="DejaVuSans-67" d="M 2906 1791 
Q 2906 2416 2648 2759 
Q 2391 3103 1925 3103 
Q 1463 3103 1205 2759 
Q 947 2416 947 1791 
Q 947 1169 1205 825 
Q 1463 481 1925 481 
Q 2391 481 2648 825 
Q 2906 1169 2906 1791 
z
M 3481 434 
Q 3481 -459 3084 -895 
Q 2688 -1331 1869 -1331 
Q 1566 -1331 1297 -1286 
Q 1028 -1241 775 -1147 
L 775 -588 
Q 1028 -725 1275 -790 
Q 1522 -856 1778 -856 
Q 2344 -856 2625 -561 
Q 2906 -266 2906 331 
L 2906 616 
Q 2728 306 2450 153 
Q 2172 0 1784 0 
Q 1141 0 747 490 
Q 353 981 353 1791 
Q 353 2603 747 3093 
Q 1141 3584 1784 3584 
Q 2172 3584 2450 3431 
Q 2728 3278 2906 2969 
L 2906 3500 
L 3481 3500 
L 3481 434 
z
" transform="scale(0.015625)"/>
      </defs>
      <use xlink:href="#DejaVuSans-54"/>
      <use xlink:href="#DejaVuSans-72" x="46.333984"/>
      <use xlink:href="#DejaVuSans-61" x="87.447266"/>
      <use xlink:href="#DejaVuSans-69" x="148.726562"/>
      <use xlink:href="#DejaVuSans-6e" x="176.509766"/>
      <use xlink:href="#DejaVuSans-69" x="239.888672"/>
      <use xlink:href="#DejaVuSans-6e" x="267.671875"/>
      <use xlink:href="#DejaVuSans-67" x="331.050781"/>
      <use xlink:href="#DejaVuSans-20" x="394.527344"/>
      <use xlink:href="#DejaVuSans-41" x="426.314453"/>
      <use xlink:href="#DejaVuSans-63" x="492.972656"/>
      <use xlink:href="#DejaVuSans-63" x="547.953125"/>
      <use xlink:href="#DejaVuSans-75" x="602.933594"/>
      <use xlink:href="#DejaVuSans-72" x="666.3125"/>
      <use xlink:href="#DejaVuSans-61" x="707.425781"/>
      <use xlink:href="#DejaVuSans-63" x="768.705078"/>
      <use xlink:href="#DejaVuSans-79" x="823.685547"/>
     </g>
    </g>
    <g id="line2d_26">
     <path d="M 187.565625 225.180312 
L 197.565625 225.180312 
L 207.565625 225.180312 
" style="fill: none; stroke: #ff0000; stroke-width: 0.6; stroke-linecap: square"/>
    </g>
    <g id="text_16">
     <!-- Validation Accuracy -->
     <g transform="translate(215.565625 228.680312) scale(0.1 -0.1)">
      <defs>
       <path id="DejaVuSans-56" d="M 1831 0 
L 50 4666 
L 709 4666 
L 2188 738 
L 3669 4666 
L 4325 4666 
L 2547 0 
L 1831 0 
z
" transform="scale(0.015625)"/>
      </defs>
      <use xlink:href="#DejaVuSans-56"/>
      <use xlink:href="#DejaVuSans-61" x="60.658203"/>
      <use xlink:href="#DejaVuSans-6c" x="121.9375"/>
      <use xlink:href="#DejaVuSans-69" x="149.720703"/>
      <use xlink:href="#DejaVuSans-64" x="177.503906"/>
      <use xlink:href="#DejaVuSans-61" x="240.980469"/>
      <use xlink:href="#DejaVuSans-74" x="302.259766"/>
      <use xlink:href="#DejaVuSans-69" x="341.46875"/>
      <use xlink:href="#DejaVuSans-6f" x="369.251953"/>
      <use xlink:href="#DejaVuSans-6e" x="430.433594"/>
      <use xlink:href="#DejaVuSans-20" x="493.8125"/>
      <use xlink:href="#DejaVuSans-41" x="525.599609"/>
      <use xlink:href="#DejaVuSans-63" x="592.257812"/>
      <use xlink:href="#DejaVuSans-63" x="647.238281"/>
      <use xlink:href="#DejaVuSans-75" x="702.21875"/>
      <use xlink:href="#DejaVuSans-72" x="765.597656"/>
      <use xlink:href="#DejaVuSans-61" x="806.710938"/>
      <use xlink:href="#DejaVuSans-63" x="867.990234"/>
      <use xlink:href="#DejaVuSans-79" x="922.970703"/>
     </g>
    </g>
   </g>
  </g>
  <g id="text_17">
   <!-- Training VS. Validation Accuracy - Dataset Size = 100.0% -->
   <g transform="translate(21.433984 15.558281) scale(0.11 -0.11)">
    <defs>
     <path id="DejaVuSans-53" d="M 3425 4513 
L 3425 3897 
Q 3066 4069 2747 4153 
Q 2428 4238 2131 4238 
Q 1616 4238 1336 4038 
Q 1056 3838 1056 3469 
Q 1056 3159 1242 3001 
Q 1428 2844 1947 2747 
L 2328 2669 
Q 3034 2534 3370 2195 
Q 3706 1856 3706 1288 
Q 3706 609 3251 259 
Q 2797 -91 1919 -91 
Q 1588 -91 1214 -16 
Q 841 59 441 206 
L 441 856 
Q 825 641 1194 531 
Q 1563 422 1919 422 
Q 2459 422 2753 634 
Q 3047 847 3047 1241 
Q 3047 1584 2836 1778 
Q 2625 1972 2144 2069 
L 1759 2144 
Q 1053 2284 737 2584 
Q 422 2884 422 3419 
Q 422 4038 858 4394 
Q 1294 4750 2059 4750 
Q 2388 4750 2728 4690 
Q 3069 4631 3425 4513 
z
" transform="scale(0.015625)"/>
     <path id="DejaVuSans-44" d="M 1259 4147 
L 1259 519 
L 2022 519 
Q 2988 519 3436 956 
Q 3884 1394 3884 2338 
Q 3884 3275 3436 3711 
Q 2988 4147 2022 4147 
L 1259 4147 
z
M 628 4666 
L 1925 4666 
Q 3281 4666 3915 4102 
Q 4550 3538 4550 2338 
Q 4550 1131 3912 565 
Q 3275 0 1925 0 
L 628 0 
L 628 4666 
z
" transform="scale(0.015625)"/>
     <path id="DejaVuSans-3d" d="M 678 2906 
L 4684 2906 
L 4684 2381 
L 678 2381 
L 678 2906 
z
M 678 1631 
L 4684 1631 
L 4684 1100 
L 678 1100 
L 678 1631 
z
" transform="scale(0.015625)"/>
     <path id="DejaVuSans-25" d="M 4653 2053 
Q 4381 2053 4226 1822 
Q 4072 1591 4072 1178 
Q 4072 772 4226 539 
Q 4381 306 4653 306 
Q 4919 306 5073 539 
Q 5228 772 5228 1178 
Q 5228 1588 5073 1820 
Q 4919 2053 4653 2053 
z
M 4653 2450 
Q 5147 2450 5437 2106 
Q 5728 1763 5728 1178 
Q 5728 594 5436 251 
Q 5144 -91 4653 -91 
Q 4153 -91 3862 251 
Q 3572 594 3572 1178 
Q 3572 1766 3864 2108 
Q 4156 2450 4653 2450 
z
M 1428 4353 
Q 1159 4353 1004 4120 
Q 850 3888 850 3481 
Q 850 3069 1003 2837 
Q 1156 2606 1428 2606 
Q 1700 2606 1854 2837 
Q 2009 3069 2009 3481 
Q 2009 3884 1853 4118 
Q 1697 4353 1428 4353 
z
M 4250 4750 
L 4750 4750 
L 1831 -91 
L 1331 -91 
L 4250 4750 
z
M 1428 4750 
Q 1922 4750 2215 4408 
Q 2509 4066 2509 3481 
Q 2509 2891 2217 2550 
Q 1925 2209 1428 2209 
Q 931 2209 642 2551 
Q 353 2894 353 3481 
Q 353 4063 643 4406 
Q 934 4750 1428 4750 
z
" transform="scale(0.015625)"/>
    </defs>
    <use xlink:href="#DejaVuSans-54"/>
    <use xlink:href="#DejaVuSans-72" x="46.333984"/>
    <use xlink:href="#DejaVuSans-61" x="87.447266"/>
    <use xlink:href="#DejaVuSans-69" x="148.726562"/>
    <use xlink:href="#DejaVuSans-6e" x="176.509766"/>
    <use xlink:href="#DejaVuSans-69" x="239.888672"/>
    <use xlink:href="#DejaVuSans-6e" x="267.671875"/>
    <use xlink:href="#DejaVuSans-67" x="331.050781"/>
    <use xlink:href="#DejaVuSans-20" x="394.527344"/>
    <use xlink:href="#DejaVuSans-56" x="426.314453"/>
    <use xlink:href="#DejaVuSans-53" x="494.722656"/>
    <use xlink:href="#DejaVuSans-2e" x="558.199219"/>
    <use xlink:href="#DejaVuSans-20" x="589.986328"/>
    <use xlink:href="#DejaVuSans-56" x="621.773438"/>
    <use xlink:href="#DejaVuSans-61" x="682.431641"/>
    <use xlink:href="#DejaVuSans-6c" x="743.710938"/>
    <use xlink:href="#DejaVuSans-69" x="771.494141"/>
    <use xlink:href="#DejaVuSans-64" x="799.277344"/>
    <use xlink:href="#DejaVuSans-61" x="862.753906"/>
    <use xlink:href="#DejaVuSans-74" x="924.033203"/>
    <use xlink:href="#DejaVuSans-69" x="963.242188"/>
    <use xlink:href="#DejaVuSans-6f" x="991.025391"/>
    <use xlink:href="#DejaVuSans-6e" x="1052.207031"/>
    <use xlink:href="#DejaVuSans-20" x="1115.585938"/>
    <use xlink:href="#DejaVuSans-41" x="1147.373047"/>
    <use xlink:href="#DejaVuSans-63" x="1214.03125"/>
    <use xlink:href="#DejaVuSans-63" x="1269.011719"/>
    <use xlink:href="#DejaVuSans-75" x="1323.992188"/>
    <use xlink:href="#DejaVuSans-72" x="1387.371094"/>
    <use xlink:href="#DejaVuSans-61" x="1428.484375"/>
    <use xlink:href="#DejaVuSans-63" x="1489.763672"/>
    <use xlink:href="#DejaVuSans-79" x="1544.744141"/>
    <use xlink:href="#DejaVuSans-20" x="1603.923828"/>
    <use xlink:href="#DejaVuSans-2d" x="1635.710938"/>
    <use xlink:href="#DejaVuSans-20" x="1671.794922"/>
    <use xlink:href="#DejaVuSans-44" x="1703.582031"/>
    <use xlink:href="#DejaVuSans-61" x="1780.583984"/>
    <use xlink:href="#DejaVuSans-74" x="1841.863281"/>
    <use xlink:href="#DejaVuSans-61" x="1881.072266"/>
    <use xlink:href="#DejaVuSans-73" x="1942.351562"/>
    <use xlink:href="#DejaVuSans-65" x="1994.451172"/>
    <use xlink:href="#DejaVuSans-74" x="2055.974609"/>
    <use xlink:href="#DejaVuSans-20" x="2095.183594"/>
    <use xlink:href="#DejaVuSans-53" x="2126.970703"/>
    <use xlink:href="#DejaVuSans-69" x="2190.447266"/>
    <use xlink:href="#DejaVuSans-7a" x="2218.230469"/>
    <use xlink:href="#DejaVuSans-65" x="2270.720703"/>
    <use xlink:href="#DejaVuSans-20" x="2332.244141"/>
    <use xlink:href="#DejaVuSans-3d" x="2364.03125"/>
    <use xlink:href="#DejaVuSans-20" x="2447.820312"/>
    <use xlink:href="#DejaVuSans-31" x="2479.607422"/>
    <use xlink:href="#DejaVuSans-30" x="2543.230469"/>
    <use xlink:href="#DejaVuSans-30" x="2606.853516"/>
    <use xlink:href="#DejaVuSans-2e" x="2670.476562"/>
    <use xlink:href="#DejaVuSans-30" x="2702.263672"/>
    <use xlink:href="#DejaVuSans-25" x="2765.886719"/>
   </g>
  </g>
 </g>
 <defs>
  <clipPath id="p4a77ad0244">
   <rect x="43.78125" y="37.296" width="279" height="202.464"/>
  </clipPath>
 </defs>
</svg>
