<?xml version="1.0" encoding="utf-8" standalone="no"?>
<!DOCTYPE svg PUBLIC "-//W3C//DTD SVG 1.1//EN"
  "http://www.w3.org/Graphics/SVG/1.1/DTD/svg11.dtd">
<svg xmlns:xlink="http://www.w3.org/1999/xlink" width="330.281484pt" height="277.31625pt" viewBox="0 0 330.281484 277.31625" xmlns="http://www.w3.org/2000/svg" version="1.1">
 <metadata>
  <rdf:RDF xmlns:dc="http://purl.org/dc/elements/1.1/" xmlns:cc="http://creativecommons.org/ns#" xmlns:rdf="http://www.w3.org/1999/02/22-rdf-syntax-ns#">
   <cc:Work>
    <dc:type rdf:resource="http://purl.org/dc/dcmitype/StillImage"/>
    <dc:date>2026-06-11T20:15:47.440723</dc:date>
    <dc:format>image/svg+xml</dc:format>
    <dc:creator>
     <cc:Agent>
      <dc:title>Matplotlib v3.8.4, https://matplotlib.org/</dc:title>
     </cc:Agent>
    </dc:creator>
   </cc:Work>
  </rdf:RDF>
 </metadata>
 <defs>
  <style type="text/css">*{stroke-linejoin: round; stroke-linecap: butt}</style>
 </defs>
 <g id="figure_1">
  <g id="patch_1">
   <path d="M 0 277.31625 
L 330.281484 277.31625 
L 330.281484 0 
L 0 0 
z
" style="fill: #ffffff"/>
  </g>
  <g id="axes_1">
   <g id="patch_2">
    <path d="M 43.78125 239.76 
L 322.78125 239.76 
L 322.78125 37.296 
L 43.78125 37.296 
z
" style="fill: #ffffff"/>
   </g>
   <g id="matplotlib.axis_1">
    <g id="xtick_1">
     <g id="line2d_1">
      <path d="M 56.209178 239.76 
L 56.209178 37.296 
" clip-path="url(#pc010eded95)" style="fill: none; stroke-dasharray: 2.96,1.28; stroke-dashoffset: 0; stroke: #b0b0b0; stroke-opacity: 0.4; stroke-width: 0.8"/>
     </g>
     <g id="line2d_2">
      <defs>
       <path id="m01f2624d5f" d="M 0 0 
L 0 3.5 
" style="stroke: #000000; stroke-width: 0.8"/>
      </defs>
      <g>
       <use xlink:href="#m01f2624d5f" x="56.209178" y="239.76" style="stroke: #000000; stroke-width: 0.8"/>
      </g>
     </g>
     <g id="text_1">
      <!-- 0 -->
      <g transform="translate(53.027928 254.358437) scale(0.1 -0.1)">
       <defs>
        <path id="DejaVuSans-30" d="M 2034 4250 
Q 1547 4250 1301 3770 
Q 1056 3291 1056 2328 
Q 1056 1369 1301 889 
Q 1547 409 2034 409 
Q 2525 409 2770 889 
Q 3016 1369 3016 2328 
Q 3016 3291 2770 3770 
Q 2525 4250 2034 4250 
z
M 2034 4750 
Q 2819 4750 3233 4129 
Q 3647 3509 3647 2328 
Q 3647 1150 3233 529 
Q 2819 -91 2034 -91 
Q 1250 -91 836 529 
Q 422 1150 422 2328 
Q 422 3509 836 4129 
Q 1250 4750 2034 4750 
z
" transform="scale(0.015625)"/>
       </defs>
       <use xlink:href="#DejaVuSans-30"/>
      </g>
     </g>
    </g>
    <g id="xtick_2">
     <g id="line2d_3">
      <path d="M 106.987229 239.76 
L 106.987229 37.296 
" clip-path="url(#pc010eded95)" style="fill: none; stroke-dasharray: 2.96,1.28; stroke-dashoffset: 0; stroke: #b0b0b0; stroke-opacity: 0.4; stroke-width: 0.8"/>
     </g>
     <g id="line2d_4">
      <g>
       <use xlink:href="#m01f2624d5f" x="106.987229" y="239.76" style="stroke: #000000; stroke-width: 0.8"/>
      </g>
     </g>
     <g id="text_2">
      <!-- 200 -->
      <g transform="translate(97.443479 254.358437) scale(0.1 -0.1)">
       <defs>
        <path id="DejaVuSans-32" d="M 1228 531 
L 3431 531 
L 3431 0 
L 469 0 
L 469 531 
Q 828 903 1448 1529 
Q 2069 2156 2228 2338 
Q 2531 2678 2651 2914 
Q 2772 3150 2772 3378 
Q 2772 3750 2511 3984 
Q 2250 4219 1831 4219 
Q 1534 4219 1204 4116 
Q 875 4013 500 3803 
L 500 4441 
Q 881 4594 1212 4672 
Q 1544 4750 1819 4750 
Q 2544 4750 2975 4387 
Q 3406 4025 3406 3419 
Q 3406 3131 3298 2873 
Q 3191 2616 2906 2266 
Q 2828 2175 2409 1742 
Q 1991 1309 1228 531 
z
" transform="scale(0.015625)"/>
       </defs>
       <use xlink:href="#DejaVuSans-32"/>
       <use xlink:href="#DejaVuSans-30" x="63.623047"/>
       <use xlink:href="#DejaVuSans-30" x="127.246094"/>
      </g>
     </g>
    </g>
    <g id="xtick_3">
     <g id="line2d_5">
      <path d="M 157.765279 239.76 
L 157.765279 37.296 
" clip-path="url(#pc010eded95)" style="fill: none; stroke-dasharray: 2.96,1.28; stroke-dashoffset: 0; stroke: #b0b0b0; stroke-opacity: 0.4; stroke-width: 0.8"/>
     </g>
     <g id="line2d_6">
      <g>
       <use xlink:href="#m01f2624d5f" x="157.765279" y="239.76" style="stroke: #000000; stroke-width: 0.8"/>
      </g>
     </g>
     <g id="text_3">
      <!-- 400 -->
      <g transform="translate(148.221529 254.358437) scale(0.1 -0.1)">
       <defs>
        <path id="DejaVuSans-34" d="M 2419 4116 
L 825 1625 
L 2419 1625 
L 2419 4116 
z
M 2253 4666 
L 3047 4666 
L 3047 1625 
L 3713 1625 
L 3713 1100 
L 3047 1100 
L 3047 0 
L 2419 0 
L 2419 1100 
L 313 1100 
L 313 1709 
L 2253 4666 
z
" transform="scale(0.015625)"/>
       </defs>
       <use xlink:href="#DejaVuSans-34"/>
       <use xlink:href="#DejaVuSans-30" x="63.623047"/>
       <use xlink:href="#DejaVuSans-30" x="127.246094"/>
      </g>
     </g>
    </g>
    <g id="xtick_4">
     <g id="line2d_7">
      <path d="M 208.54333 239.76 
L 208.54333 37.296 
" clip-path="url(#pc010eded95)" style="fill: none; stroke-dasharray: 2.96,1.28; stroke-dashoffset: 0; stroke: #b0b0b0; stroke-opacity: 0.4; stroke-width: 0.8"/>
     </g>
     <g id="line2d_8">
      <g>
       <use xlink:href="#m01f2624d5f" x="208.54333" y="239.76" style="stroke: #000000; stroke-width: 0.8"/>
      </g>
     </g>
     <g id="text_4">
      <!-- 600 -->
      <g transform="translate(198.99958 254.358437) scale(0.1 -0.1)">
       <defs>
        <path id="DejaVuSans-36" d="M 2113 2584 
Q 1688 2584 1439 2293 
Q 1191 2003 1191 1497 
Q 1191 994 1439 701 
Q 1688 409 2113 409 
Q 2538 409 2786 701 
Q 3034 994 3034 1497 
Q 3034 2003 2786 2293 
Q 2538 2584 2113 2584 
z
M 3366 4563 
L 3366 3988 
Q 3128 4100 2886 4159 
Q 2644 4219 2406 4219 
Q 1781 4219 1451 3797 
Q 1122 3375 1075 2522 
Q 1259 2794 1537 2939 
Q 1816 3084 2150 3084 
Q 2853 3084 3261 2657 
Q 3669 2231 3669 1497 
Q 3669 778 3244 343 
Q 2819 -91 2113 -91 
Q 1303 -91 875 529 
Q 447 1150 447 2328 
Q 447 3434 972 4092 
Q 1497 4750 2381 4750 
Q 2619 4750 2861 4703 
Q 3103 4656 3366 4563 
z
" transform="scale(0.015625)"/>
       </defs>
       <use xlink:href="#DejaVuSans-36"/>
       <use xlink:href="#DejaVuSans-30" x="63.623047"/>
       <use xlink:href="#DejaVuSans-30" x="127.246094"/>
      </g>
     </g>
    </g>
    <g id="xtick_5">
     <g id="line2d_9">
      <path d="M 259.321381 239.76 
L 259.321381 37.296 
" clip-path="url(#pc010eded95)" style="fill: none; stroke-dasharray: 2.96,1.28; stroke-dashoffset: 0; stroke: #b0b0b0; stroke-opacity: 0.4; stroke-width: 0.8"/>
     </g>
     <g id="line2d_10">
      <g>
       <use xlink:href="#m01f2624d5f" x="259.321381" y="239.76" style="stroke: #000000; stroke-width: 0.8"/>
      </g>
     </g>
     <g id="text_5">
      <!-- 800 -->
      <g transform="translate(249.777631 254.358437) scale(0.1 -0.1)">
       <defs>
        <path id="DejaVuSans-38" d="M 2034 2216 
Q 1584 2216 1326 1975 
Q 1069 1734 1069 1313 
Q 1069 891 1326 650 
Q 1584 409 2034 409 
Q 2484 409 2743 651 
Q 3003 894 3003 1313 
Q 3003 1734 2745 1975 
Q 2488 2216 2034 2216 
z
M 1403 2484 
Q 997 2584 770 2862 
Q 544 3141 544 3541 
Q 544 4100 942 4425 
Q 1341 4750 2034 4750 
Q 2731 4750 3128 4425 
Q 3525 4100 3525 3541 
Q 3525 3141 3298 2862 
Q 3072 2584 2669 2484 
Q 3125 2378 3379 2068 
Q 3634 1759 3634 1313 
Q 3634 634 3220 271 
Q 2806 -91 2034 -91 
Q 1263 -91 848 271 
Q 434 634 434 1313 
Q 434 1759 690 2068 
Q 947 2378 1403 2484 
z
M 1172 3481 
Q 1172 3119 1398 2916 
Q 1625 2713 2034 2713 
Q 2441 2713 2670 2916 
Q 2900 3119 2900 3481 
Q 2900 3844 2670 4047 
Q 2441 4250 2034 4250 
Q 1625 4250 1398 4047 
Q 1172 3844 1172 3481 
z
" transform="scale(0.015625)"/>
       </defs>
       <use xlink:href="#DejaVuSans-38"/>
       <use xlink:href="#DejaVuSans-30" x="63.623047"/>
       <use xlink:href="#DejaVuSans-30" x="127.246094"/>
      </g>
     </g>
    </g>
    <g id="xtick_6">
     <g id="line2d_11">
      <path d="M 310.099432 239.76 
L 310.099432 37.296 
" clip-path="url(#pc010eded95)" style="fill: none; stroke-dasharray: 2.96,1.28; stroke-dashoffset: 0; stroke: #b0b0b0; stroke-opacity: 0.4; stroke-width: 0.8"/>
     </g>
     <g id="line2d_12">
      <g>
       <use xlink:href="#m01f2624d5f" x="310.099432" y="239.76" style="stroke: #000000; stroke-width: 0.8"/>
      </g>
     </g>
     <g id="text_6">
      <!-- 1000 -->
      <g transform="translate(297.374432 254.358437) scale(0.1 -0.1)">
       <defs>
        <path id="DejaVuSans-31" d="M 794 531 
L 1825 531 
L 1825 4091 
L 703 3866 
L 703 4441 
L 1819 4666 
L 2450 4666 
L 2450 531 
L 3481 531 
L 3481 0 
L 794 0 
L 794 531 
z
" transform="scale(0.015625)"/>
       </defs>
       <use xlink:href="#DejaVuSans-31"/>
       <use xlink:href="#DejaVuSans-30" x="63.623047"/>
       <use xlink:href="#DejaVuSans-30" x="127.246094"/>
       <use xlink:href="#DejaVuSans-30" x="190.869141"/>
      </g>
     </g>
    </g>
    <g id="text_7">
     <!-- Epochs -->
     <g transform="translate(165.365625 268.036562) scale(0.1 -0.1)">
      <defs>
       <path id="DejaVuSans-45" d="M 628 4666 
L 3578 4666 
L 3578 4134 
L 1259 4134 
L 1259 2753 
L 3481 2753 
L 3481 2222 
L 1259 2222 
L 1259 531 
L 3634 531 
L 3634 0 
L 628 0 
L 628 4666 
z
" transform="scale(0.015625)"/>
       <path id="DejaVuSans-70" d="M 1159 525 
L 1159 -1331 
L 581 -1331 
L 581 3500 
L 1159 3500 
L 1159 2969 
Q 1341 3281 1617 3432 
Q 1894 3584 2278 3584 
Q 2916 3584 3314 3078 
Q 3713 2572 3713 1747 
Q 3713 922 3314 415 
Q 2916 -91 2278 -91 
Q 1894 -91 1617 61 
Q 1341 213 1159 525 
z
M 3116 1747 
Q 3116 2381 2855 2742 
Q 2594 3103 2138 3103 
Q 1681 3103 1420 2742 
Q 1159 2381 1159 1747 
Q 1159 1113 1420 752 
Q 1681 391 2138 391 
Q 2594 391 2855 752 
Q 3116 1113 3116 1747 
z
" transform="scale(0.015625)"/>
       <path id="DejaVuSans-6f" d="M 1959 3097 
Q 1497 3097 1228 2736 
Q 959 2375 959 1747 
Q 959 1119 1226 758 
Q 1494 397 1959 397 
Q 2419 397 2687 759 
Q 2956 1122 2956 1747 
Q 2956 2369 2687 2733 
Q 2419 3097 1959 3097 
z
M 1959 3584 
Q 2709 3584 3137 3096 
Q 3566 2609 3566 1747 
Q 3566 888 3137 398 
Q 2709 -91 1959 -91 
Q 1206 -91 779 398 
Q 353 888 353 1747 
Q 353 2609 779 3096 
Q 1206 3584 1959 3584 
z
" transform="scale(0.015625)"/>
       <path id="DejaVuSans-63" d="M 3122 3366 
L 3122 2828 
Q 2878 2963 2633 3030 
Q 2388 3097 2138 3097 
Q 1578 3097 1268 2742 
Q 959 2388 959 1747 
Q 959 1106 1268 751 
Q 1578 397 2138 397 
Q 2388 397 2633 464 
Q 2878 531 3122 666 
L 3122 134 
Q 2881 22 2623 -34 
Q 2366 -91 2075 -91 
Q 1284 -91 818 406 
Q 353 903 353 1747 
Q 353 2603 823 3093 
Q 1294 3584 2113 3584 
Q 2378 3584 2631 3529 
Q 2884 3475 3122 3366 
z
" transform="scale(0.015625)"/>
       <path id="DejaVuSans-68" d="M 3513 2113 
L 3513 0 
L 2938 0 
L 2938 2094 
Q 2938 2591 2744 2837 
Q 2550 3084 2163 3084 
Q 1697 3084 1428 2787 
Q 1159 2491 1159 1978 
L 1159 0 
L 581 0 
L 581 4863 
L 1159 4863 
L 1159 2956 
Q 1366 3272 1645 3428 
Q 1925 3584 2291 3584 
Q 2894 3584 3203 3211 
Q 3513 2838 3513 2113 
z
" transform="scale(0.015625)"/>
       <path id="DejaVuSans-73" d="M 2834 3397 
L 2834 2853 
Q 2591 2978 2328 3040 
Q 2066 3103 1784 3103 
Q 1356 3103 1142 2972 
Q 928 2841 928 2578 
Q 928 2378 1081 2264 
Q 1234 2150 1697 2047 
L 1894 2003 
Q 2506 1872 2764 1633 
Q 3022 1394 3022 966 
Q 3022 478 2636 193 
Q 2250 -91 1575 -91 
Q 1294 -91 989 -36 
Q 684 19 347 128 
L 347 722 
Q 666 556 975 473 
Q 1284 391 1588 391 
Q 1994 391 2212 530 
Q 2431 669 2431 922 
Q 2431 1156 2273 1281 
Q 2116 1406 1581 1522 
L 1381 1569 
Q 847 1681 609 1914 
Q 372 2147 372 2553 
Q 372 3047 722 3315 
Q 1072 3584 1716 3584 
Q 2034 3584 2315 3537 
Q 2597 3491 2834 3397 
z
" transform="scale(0.015625)"/>
      </defs>
      <use xlink:href="#DejaVuSans-45"/>
      <use xlink:href="#DejaVuSans-70" x="63.183594"/>
      <use xlink:href="#DejaVuSans-6f" x="126.660156"/>
      <use xlink:href="#DejaVuSans-63" x="187.841797"/>
      <use xlink:href="#DejaVuSans-68" x="242.822266"/>
      <use xlink:href="#DejaVuSans-73" x="306.201172"/>
     </g>
    </g>
   </g>
   <g id="matplotlib.axis_2">
    <g id="ytick_1">
     <g id="line2d_13">
      <path d="M 43.78125 237.621002 
L 322.78125 237.621002 
" clip-path="url(#pc010eded95)" style="fill: none; stroke-dasharray: 2.96,1.28; stroke-dashoffset: 0; stroke: #b0b0b0; stroke-opacity: 0.4; stroke-width: 0.8"/>
     </g>
     <g id="line2d_14">
      <defs>
       <path id="m968af1c18e" d="M 0 0 
L -3.5 0 
" style="stroke: #000000; stroke-width: 0.8"/>
      </defs>
      <g>
       <use xlink:href="#m968af1c18e" x="43.78125" y="237.621002" style="stroke: #000000; stroke-width: 0.8"/>
      </g>
     </g>
     <g id="text_8">
      <!-- 0.0 -->
      <g transform="translate(20.878125 241.420221) scale(0.1 -0.1)">
       <defs>
        <path id="DejaVuSans-2e" d="M 684 794 
L 1344 794 
L 1344 0 
L 684 0 
L 684 794 
z
" transform="scale(0.015625)"/>
       </defs>
       <use xlink:href="#DejaVuSans-30"/>
       <use xlink:href="#DejaVuSans-2e" x="63.623047"/>
       <use xlink:href="#DejaVuSans-30" x="95.410156"/>
      </g>
     </g>
    </g>
    <g id="ytick_2">
     <g id="line2d_15">
      <path d="M 43.78125 197.76997 
L 322.78125 197.76997 
" clip-path="url(#pc010eded95)" style="fill: none; stroke-dasharray: 2.96,1.28; stroke-dashoffset: 0; stroke: #b0b0b0; stroke-opacity: 0.4; stroke-width: 0.8"/>
     </g>
     <g id="line2d_16">
      <g>
       <use xlink:href="#m968af1c18e" x="43.78125" y="197.76997" style="stroke: #000000; stroke-width: 0.8"/>
      </g>
     </g>
     <g id="text_9">
      <!-- 0.5 -->
      <g transform="translate(20.878125 201.569189) scale(0.1 -0.1)">
       <defs>
        <path id="DejaVuSans-35" d="M 691 4666 
L 3169 4666 
L 3169 4134 
L 1269 4134 
L 1269 2991 
Q 1406 3038 1543 3061 
Q 1681 3084 1819 3084 
Q 2600 3084 3056 2656 
Q 3513 2228 3513 1497 
Q 3513 744 3044 326 
Q 2575 -91 1722 -91 
Q 1428 -91 1123 -41 
Q 819 9 494 109 
L 494 744 
Q 775 591 1075 516 
Q 1375 441 1709 441 
Q 2250 441 2565 725 
Q 2881 1009 2881 1497 
Q 2881 1984 2565 2268 
Q 2250 2553 1709 2553 
Q 1456 2553 1204 2497 
Q 953 2441 691 2322 
L 691 4666 
z
" transform="scale(0.015625)"/>
       </defs>
       <use xlink:href="#DejaVuSans-30"/>
       <use xlink:href="#DejaVuSans-2e" x="63.623047"/>
       <use xlink:href="#DejaVuSans-35" x="95.410156"/>
      </g>
     </g>
    </g>
    <g id="ytick_3">
     <g id="line2d_17">
      <path d="M 43.78125 157.918937 
L 322.78125 157.918937 
" clip-path="url(#pc010eded95)" style="fill: none; stroke-dasharray: 2.96,1.28; stroke-dashoffset: 0; stroke: #b0b0b0; stroke-opacity: 0.4; stroke-width: 0.8"/>
     </g>
     <g id="line2d_18">
      <g>
       <use xlink:href="#m968af1c18e" x="43.78125" y="157.918937" style="stroke: #000000; stroke-width: 0.8"/>
      </g>
     </g>
     <g id="text_10">
      <!-- 1.0 -->
      <g transform="translate(20.878125 161.718156) scale(0.1 -0.1)">
       <use xlink:href="#DejaVuSans-31"/>
       <use xlink:href="#DejaVuSans-2e" x="63.623047"/>
       <use xlink:href="#DejaVuSans-30" x="95.410156"/>
      </g>
     </g>
    </g>
    <g id="ytick_4">
     <g id="line2d_19">
      <path d="M 43.78125 118.067905 
L 322.78125 118.067905 
" clip-path="url(#pc010eded95)" style="fill: none; stroke-dasharray: 2.96,1.28; stroke-dashoffset: 0; stroke: #b0b0b0; stroke-opacity: 0.4; stroke-width: 0.8"/>
     </g>
     <g id="line2d_20">
      <g>
       <use xlink:href="#m968af1c18e" x="43.78125" y="118.067905" style="stroke: #000000; stroke-width: 0.8"/>
      </g>
     </g>
     <g id="text_11">
      <!-- 1.5 -->
      <g transform="translate(20.878125 121.867124) scale(0.1 -0.1)">
       <use xlink:href="#DejaVuSans-31"/>
       <use xlink:href="#DejaVuSans-2e" x="63.623047"/>
       <use xlink:href="#DejaVuSans-35" x="95.410156"/>
      </g>
     </g>
    </g>
    <g id="ytick_5">
     <g id="line2d_21">
      <path d="M 43.78125 78.216873 
L 322.78125 78.216873 
" clip-path="url(#pc010eded95)" style="fill: none; stroke-dasharray: 2.96,1.28; stroke-dashoffset: 0; stroke: #b0b0b0; stroke-opacity: 0.4; stroke-width: 0.8"/>
     </g>
     <g id="line2d_22">
      <g>
       <use xlink:href="#m968af1c18e" x="43.78125" y="78.216873" style="stroke: #000000; stroke-width: 0.8"/>
      </g>
     </g>
     <g id="text_12">
      <!-- 2.0 -->
      <g transform="translate(20.878125 82.016091) scale(0.1 -0.1)">
       <use xlink:href="#DejaVuSans-32"/>
       <use xlink:href="#DejaVuSans-2e" x="63.623047"/>
       <use xlink:href="#DejaVuSans-30" x="95.410156"/>
      </g>
     </g>
    </g>
    <g id="ytick_6">
     <g id="line2d_23">
      <path d="M 43.78125 38.36584 
L 322.78125 38.36584 
" clip-path="url(#pc010eded95)" style="fill: none; stroke-dasharray: 2.96,1.28; stroke-dashoffset: 0; stroke: #b0b0b0; stroke-opacity: 0.4; stroke-width: 0.8"/>
     </g>
     <g id="line2d_24">
      <g>
       <use xlink:href="#m968af1c18e" x="43.78125" y="38.36584" style="stroke: #000000; stroke-width: 0.8"/>
      </g>
     </g>
     <g id="text_13">
      <!-- 2.5 -->
      <g transform="translate(20.878125 42.165059) scale(0.1 -0.1)">
       <use xlink:href="#DejaVuSans-32"/>
       <use xlink:href="#DejaVuSans-2e" x="63.623047"/>
       <use xlink:href="#DejaVuSans-35" x="95.410156"/>
      </g>
     </g>
    </g>
    <g id="text_14">
     <!-- Loss -->
     <g transform="translate(14.798438 149.495187) rotate(-90) scale(0.1 -0.1)">
      <defs>
       <path id="DejaVuSans-4c" d="M 628 4666 
L 1259 4666 
L 1259 531 
L 3531 531 
L 3531 0 
L 628 0 
L 628 4666 
z
" transform="scale(0.015625)"/>
      </defs>
      <use xlink:href="#DejaVuSans-4c"/>
      <use xlink:href="#DejaVuSans-6f" x="53.962891"/>
      <use xlink:href="#DejaVuSans-73" x="115.144531"/>
      <use xlink:href="#DejaVuSans-73" x="167.244141"/>
     </g>
    </g>
   </g>
   <g id="line2d_25">
    <path d="M 56.463068 179.974909 
L 56.716958 182.272044 
L 56.970849 183.065853 
L 57.224739 185.631255 
L 57.732519 194.423187 
L 58.2403 198.837072 
L 58.49419 200.446667 
L 58.74808 200.885717 
L 59.255861 203.225199 
L 59.509751 203.310406 
L 59.763641 204.313094 
L 60.017532 205.800387 
L 60.271422 206.597289 
L 60.525312 208.504068 
L 60.779202 208.818055 
L 61.286983 211.06168 
L 61.540873 209.646859 
L 62.048654 211.458472 
L 62.302544 211.15796 
L 62.810325 212.239392 
L 63.064215 212.781055 
L 63.318105 212.857326 
L 63.571995 212.311787 
L 63.825886 213.212328 
L 64.079776 212.824281 
L 64.333666 213.513901 
L 64.587556 213.294587 
L 64.841447 213.286252 
L 65.095337 214.034027 
L 65.349227 213.540203 
L 65.603117 215.041558 
L 65.857008 214.463511 
L 66.364788 215.257759 
L 66.618678 214.896686 
L 66.872569 215.190998 
L 67.380349 216.069408 
L 67.634239 215.578256 
L 67.88813 216.113883 
L 68.14202 215.500095 
L 68.39591 215.43256 
L 68.903691 216.313514 
L 69.157581 215.543641 
L 69.411471 216.373409 
L 69.919252 216.846775 
L 70.427032 216.344293 
L 70.680922 215.874536 
L 70.934813 216.549239 
L 71.188703 218.112934 
L 71.442593 216.910188 
L 71.950374 216.132461 
L 72.458154 217.343551 
L 72.712044 217.391777 
L 73.219825 217.042678 
L 73.473715 218.281618 
L 73.981496 215.451408 
L 74.235386 217.442832 
L 74.489276 217.239494 
L 74.743166 219.165361 
L 75.250947 217.202703 
L 75.758727 218.735879 
L 76.012618 219.983726 
L 76.266508 218.947724 
L 76.520398 219.858413 
L 76.774288 219.611723 
L 77.028179 219.65814 
L 77.282069 220.526855 
L 77.535959 220.682455 
L 77.78985 221.102129 
L 78.29763 220.365301 
L 78.55152 220.878254 
L 78.805411 221.102982 
L 79.059301 220.928199 
L 79.313191 220.608502 
L 79.567081 221.201364 
L 79.820972 219.753749 
L 80.074862 221.135001 
L 80.328752 221.170681 
L 80.836533 220.863922 
L 81.090423 220.4886 
L 81.344313 221.441518 
L 81.598203 221.034649 
L 81.852094 221.714422 
L 82.105984 221.331286 
L 82.359874 222.168785 
L 82.613764 221.477178 
L 83.121545 222.733463 
L 83.629325 220.762723 
L 83.883216 221.452339 
L 84.137106 221.085731 
L 84.390996 222.269551 
L 84.644886 221.537623 
L 84.898777 221.167855 
L 85.152667 221.710309 
L 85.406557 221.03724 
L 85.660447 221.288245 
L 85.914338 221.863713 
L 86.422118 221.015472 
L 86.676008 222.724545 
L 86.929899 221.939812 
L 87.183789 221.846198 
L 87.691569 221.995445 
L 87.94546 222.258456 
L 88.19935 221.641917 
L 88.45324 222.716578 
L 88.70713 223.184305 
L 88.961021 221.770383 
L 89.214911 221.821846 
L 89.722691 221.279301 
L 89.976582 222.523774 
L 90.230472 223.108254 
L 90.484362 223.184919 
L 90.738252 224.829212 
L 90.992143 224.339289 
L 91.499923 224.6345 
L 91.753813 224.143716 
L 92.007704 224.286572 
L 92.261594 223.871116 
L 92.515484 223.904274 
L 93.023265 224.175851 
L 93.277155 224.3346 
L 93.531045 225.104635 
L 93.784936 224.763351 
L 94.038826 223.984666 
L 94.292716 224.376282 
L 94.546606 224.251406 
L 94.800497 225.017077 
L 95.054387 224.892468 
L 95.308277 225.166177 
L 95.816058 224.479678 
L 96.069948 225.328032 
L 96.323838 224.877019 
L 96.577728 224.944364 
L 96.831619 224.388576 
L 97.085509 225.874777 
L 97.339399 225.819501 
L 97.593289 224.875742 
L 97.84718 225.128816 
L 98.10107 225.751923 
L 98.35496 224.488045 
L 98.60885 225.49359 
L 98.862741 225.172266 
L 99.116631 225.803607 
L 99.370521 225.627023 
L 99.624411 224.938396 
L 99.878302 225.930568 
L 100.132192 225.342409 
L 100.386082 225.809216 
L 100.639972 225.865959 
L 100.893863 225.205925 
L 101.147753 226.103976 
L 101.401643 226.339755 
L 101.655533 225.664707 
L 101.909424 225.892694 
L 102.163314 225.81638 
L 102.417204 225.500188 
L 102.924985 226.661231 
L 103.178875 227.214285 
L 103.432765 226.520133 
L 103.686655 226.784975 
L 103.940546 226.355999 
L 104.194436 227.030175 
L 104.448326 226.374261 
L 104.702216 226.583072 
L 104.956107 227.229122 
L 105.209997 226.716565 
L 105.717777 227.74338 
L 105.971668 226.874508 
L 106.225558 227.044258 
L 106.479448 226.226099 
L 106.733338 226.605723 
L 106.987229 226.532978 
L 107.241119 227.074125 
L 107.495009 227.195341 
L 107.748899 227.173859 
L 108.25668 226.513959 
L 108.51057 226.532382 
L 109.018351 227.377296 
L 109.272241 226.923559 
L 109.526131 227.520445 
L 109.780021 227.519483 
L 110.287802 226.775507 
L 110.541692 227.677996 
L 110.795583 227.793783 
L 111.049473 227.265522 
L 111.557253 226.982733 
L 111.811144 227.494416 
L 112.065034 227.22179 
L 112.318924 227.288036 
L 112.572814 226.685767 
L 112.826705 226.516707 
L 113.080595 227.546555 
L 113.334485 227.050371 
L 113.588375 227.304009 
L 113.842266 227.984324 
L 114.096156 226.825585 
L 114.350046 227.350664 
L 114.603936 227.354054 
L 114.857827 227.48676 
L 115.111717 227.430867 
L 115.365607 227.525576 
L 115.619497 227.926697 
L 115.873388 227.751688 
L 116.127278 227.404026 
L 116.381168 228.417854 
L 116.635058 228.487867 
L 116.888949 228.024163 
L 117.142839 228.369563 
L 117.396729 227.57161 
L 117.650619 228.257072 
L 117.90451 228.115392 
L 118.1584 228.122457 
L 118.41229 229.08986 
L 118.66618 227.7797 
L 118.920071 227.317734 
L 119.173961 228.357755 
L 119.427851 228.436876 
L 119.681741 228.742427 
L 120.189522 227.63009 
L 120.443412 228.537799 
L 120.697302 227.930721 
L 120.951193 228.593861 
L 121.205083 227.611693 
L 121.458973 228.595353 
L 121.712863 227.899632 
L 122.220644 228.245583 
L 122.474534 228.078794 
L 122.728424 228.516083 
L 122.982315 228.284217 
L 123.236205 228.982505 
L 123.490095 228.025117 
L 123.743985 228.051354 
L 123.997876 228.43586 
L 124.251766 228.15192 
L 124.505656 228.761754 
L 125.267327 228.650678 
L 125.521217 228.062408 
L 125.775107 227.069251 
L 126.028998 227.478414 
L 126.282888 227.151901 
L 126.536778 228.768539 
L 126.790669 227.583504 
L 127.044559 228.772041 
L 127.298449 227.586201 
L 127.80623 228.976927 
L 128.06012 227.655433 
L 128.31401 228.84582 
L 128.821791 228.846072 
L 129.075681 228.645113 
L 129.329571 229.549043 
L 129.583461 228.964878 
L 129.837352 228.839754 
L 130.345132 228.019025 
L 130.599022 229.01176 
L 131.106803 229.308934 
L 131.360693 228.96442 
L 131.614583 229.269456 
L 131.868474 229.177316 
L 132.122364 228.743529 
L 132.376254 229.781685 
L 132.630144 228.422343 
L 132.884035 228.664559 
L 133.137925 228.214179 
L 133.391815 229.130859 
L 133.899596 228.777205 
L 134.153486 229.478739 
L 134.407376 228.262045 
L 134.661266 228.145208 
L 134.915157 228.97986 
L 135.169047 229.227955 
L 135.676827 227.867335 
L 135.930718 228.92003 
L 136.438498 228.263914 
L 136.692388 229.1817 
L 136.946279 228.966359 
L 137.200169 228.366951 
L 137.96184 229.428042 
L 138.21573 228.811802 
L 138.46962 229.38227 
L 138.72351 229.505684 
L 139.231291 228.574786 
L 139.485181 229.349601 
L 139.739071 229.083482 
L 139.992962 228.410131 
L 140.500742 229.20691 
L 140.754632 230.055351 
L 141.008523 228.894001 
L 141.262413 229.110551 
L 141.516303 228.874701 
L 141.770193 229.394447 
L 142.024084 229.045 
L 142.277974 228.34493 
L 142.531864 228.406162 
L 142.785755 229.443895 
L 143.039645 229.018646 
L 143.293535 228.256573 
L 143.547425 229.425597 
L 143.801316 229.169077 
L 144.055206 230.278454 
L 144.309096 228.570528 
L 144.816877 229.097398 
L 145.070767 228.990194 
L 145.324657 229.074799 
L 145.832438 229.68314 
L 146.086328 229.657875 
L 146.340218 229.476101 
L 146.594108 229.790415 
L 147.101889 228.029076 
L 147.355779 229.15368 
L 147.609669 228.802488 
L 147.86356 229.270688 
L 148.37134 228.846712 
L 148.62523 229.86419 
L 148.879121 228.972679 
L 149.133011 228.993041 
L 149.640791 228.874705 
L 149.894682 229.427982 
L 150.148572 229.711264 
L 150.402462 229.053228 
L 150.656352 229.386208 
L 151.164133 228.921075 
L 151.418023 229.089954 
L 151.925804 229.708925 
L 152.179694 229.858657 
L 152.433584 229.255605 
L 152.687474 228.97748 
L 152.941365 229.389776 
L 153.195255 228.491717 
L 153.449145 228.582303 
L 153.956926 229.174553 
L 154.464706 229.315235 
L 154.718596 229.469403 
L 154.972487 229.31132 
L 155.226377 229.591278 
L 155.480267 228.89553 
L 155.988048 229.315712 
L 156.241938 229.040945 
L 156.749718 229.065144 
L 157.257499 229.373654 
L 157.511389 229.015324 
L 157.765279 229.492424 
L 158.27306 229.292436 
L 158.52695 228.984064 
L 158.78084 229.136987 
L 159.034731 228.273871 
L 159.542511 229.630399 
L 159.796402 229.31286 
L 160.304182 229.225811 
L 160.558072 228.752989 
L 160.811963 229.339552 
L 161.065853 228.549014 
L 161.319743 229.371574 
L 161.573633 229.153725 
L 161.827524 229.208311 
L 162.081414 230.119749 
L 162.335304 228.958803 
L 162.589194 229.386204 
L 162.843085 229.354713 
L 163.096975 228.635096 
L 163.350865 229.414437 
L 163.604755 229.628813 
L 163.858646 228.546058 
L 164.112536 229.199765 
L 164.366426 228.838241 
L 164.620316 228.965241 
L 164.874207 228.959986 
L 165.381987 229.201789 
L 165.635877 228.802356 
L 165.889768 229.611515 
L 166.143658 229.746439 
L 166.397548 229.271716 
L 166.651438 229.694175 
L 166.905329 229.003 
L 167.413109 229.524723 
L 167.666999 229.337282 
L 167.92089 229.835882 
L 168.17478 229.415016 
L 168.42867 229.772915 
L 168.68256 229.287401 
L 168.936451 229.347921 
L 169.190341 229.927592 
L 169.444231 229.110859 
L 169.698121 229.139121 
L 169.952012 229.563648 
L 170.205902 229.405142 
L 170.459792 228.737136 
L 170.713682 229.127504 
L 170.967573 229.783099 
L 171.221463 229.263716 
L 171.475353 229.310253 
L 171.729243 229.02939 
L 171.983134 229.822974 
L 172.237024 229.409922 
L 172.490914 228.323946 
L 172.744804 228.361802 
L 172.998695 229.972846 
L 173.252585 228.85417 
L 173.506475 228.836555 
L 173.760365 228.632758 
L 174.014256 229.190557 
L 174.522036 229.463619 
L 174.775926 229.102545 
L 175.029817 229.274637 
L 175.537597 228.969314 
L 176.045378 228.766323 
L 176.299268 229.956175 
L 176.553158 229.633021 
L 176.807049 229.017929 
L 177.060939 229.59699 
L 177.314829 228.94444 
L 177.82261 229.041972 
L 178.0765 229.914369 
L 178.33039 229.116209 
L 178.58428 228.811268 
L 178.838171 228.877302 
L 179.092061 230.341505 
L 179.345951 229.594686 
L 179.599841 229.497655 
L 179.853732 228.896331 
L 180.361512 229.28486 
L 180.615402 229.708301 
L 180.869293 229.186632 
L 181.123183 229.359935 
L 181.377073 229.120497 
L 181.884854 229.370091 
L 182.138744 229.022649 
L 182.646524 229.68148 
L 182.900415 228.725637 
L 183.154305 229.912171 
L 183.408195 229.797454 
L 183.662085 228.966498 
L 183.915976 228.942602 
L 184.169866 229.225749 
L 184.423756 230.190898 
L 184.677646 229.109394 
L 184.931537 229.290069 
L 185.185427 229.035589 
L 185.439317 229.461747 
L 185.693207 229.146414 
L 185.947098 229.161153 
L 186.200988 229.752971 
L 186.454878 229.818985 
L 186.708768 230.036431 
L 186.962659 229.097897 
L 187.216549 229.099977 
L 187.470439 230.045896 
L 187.724329 230.113878 
L 187.97822 229.468275 
L 188.23211 229.637434 
L 188.486 229.647864 
L 188.73989 229.473116 
L 188.993781 230.023759 
L 189.247671 229.182377 
L 189.501561 228.988818 
L 189.755451 229.781164 
L 190.009342 229.137815 
L 190.263232 229.501755 
L 190.517122 229.50941 
L 190.771012 229.940892 
L 191.024903 229.499827 
L 191.278793 229.923397 
L 191.532683 229.242592 
L 191.786574 229.501833 
L 192.040464 229.475665 
L 192.294354 229.233982 
L 192.548244 229.701893 
L 192.802135 229.845969 
L 193.309915 229.508306 
L 193.563805 229.556611 
L 193.817696 230.086539 
L 194.071586 229.491905 
L 194.325476 229.628818 
L 194.579366 229.502204 
L 194.833257 230.354021 
L 195.087147 230.115809 
L 195.594927 228.83361 
L 195.848818 229.487853 
L 196.102708 228.98591 
L 196.356598 229.890694 
L 196.610488 229.153228 
L 196.864379 229.741849 
L 197.118269 228.625328 
L 197.372159 228.839373 
L 197.626049 229.503253 
L 197.87994 229.787374 
L 198.13383 229.795569 
L 198.38772 229.190061 
L 198.64161 229.252552 
L 198.895501 229.160069 
L 199.149391 229.226849 
L 199.403281 228.641243 
L 199.657171 230.105558 
L 199.911062 230.106663 
L 200.164952 229.760246 
L 200.418842 228.971276 
L 200.672732 228.740861 
L 200.926623 229.400506 
L 201.434403 229.676193 
L 201.688293 229.178358 
L 202.196074 229.518381 
L 202.449964 229.482337 
L 202.957745 229.991164 
L 203.211635 229.612497 
L 203.465525 229.90308 
L 203.719415 229.953553 
L 203.973306 229.863184 
L 204.227196 229.642357 
L 204.481086 229.269685 
L 204.988867 230.282938 
L 205.242757 229.944677 
L 205.496647 229.294224 
L 205.750537 229.486616 
L 206.004428 230.070267 
L 206.258318 229.653728 
L 206.766098 229.37233 
L 207.019989 229.724226 
L 207.273879 229.86353 
L 207.527769 229.42352 
L 207.78166 230.500091 
L 208.28944 229.050265 
L 208.54333 229.834988 
L 208.797221 229.77922 
L 209.051111 229.348093 
L 209.305001 229.797971 
L 209.812782 228.761444 
L 210.066672 229.89101 
L 210.320562 229.066177 
L 210.574452 229.761326 
L 210.828343 229.005261 
L 211.082233 229.521585 
L 211.590013 229.493655 
L 211.843904 229.59102 
L 212.097794 230.317137 
L 212.351684 229.144802 
L 212.605574 229.742827 
L 212.859465 229.10998 
L 213.367245 230.21185 
L 213.621135 228.732332 
L 213.875026 229.243388 
L 214.128916 229.497489 
L 214.382806 229.10453 
L 214.636696 229.003072 
L 214.890587 228.764781 
L 215.144477 229.3646 
L 215.398367 229.591346 
L 215.652257 229.485484 
L 215.906148 229.042726 
L 216.160038 229.460845 
L 216.413928 229.030719 
L 216.921709 229.619402 
L 217.175599 228.80167 
L 217.429489 229.528005 
L 217.683379 229.312849 
L 218.19116 229.510887 
L 218.44505 229.78855 
L 218.69894 228.970998 
L 218.952831 229.396027 
L 219.206721 229.552877 
L 219.714501 229.420332 
L 219.968392 230.259865 
L 220.222282 229.722931 
L 220.476172 229.469262 
L 220.730062 230.024678 
L 220.983953 229.238 
L 221.237843 229.264323 
L 221.745623 229.917107 
L 221.999514 229.801576 
L 222.253404 229.069189 
L 222.507294 229.87265 
L 222.761184 229.499378 
L 223.015075 230.01114 
L 223.268965 229.721418 
L 223.522855 228.810656 
L 223.776745 229.89664 
L 224.284526 228.718451 
L 224.538416 229.030745 
L 224.792307 229.133431 
L 225.046197 228.817428 
L 225.300087 229.445851 
L 225.553977 229.63621 
L 225.807868 229.386319 
L 226.061758 229.445349 
L 226.315648 229.678153 
L 226.569538 229.522721 
L 226.823429 228.936939 
L 227.077319 229.390882 
L 227.331209 229.577542 
L 227.585099 229.006292 
L 227.83899 229.740162 
L 228.09288 229.59927 
L 228.34677 229.228057 
L 228.60066 229.165278 
L 228.854551 230.098537 
L 229.108441 229.392853 
L 229.362331 229.382564 
L 229.616221 228.845107 
L 229.870112 229.389118 
L 230.124002 229.634893 
L 230.377892 229.292952 
L 230.631782 230.124676 
L 230.885673 229.797246 
L 231.139563 229.86947 
L 231.393453 228.814078 
L 231.647343 229.045657 
L 232.155124 229.149743 
L 232.916795 229.755686 
L 233.170685 229.458913 
L 233.424575 228.731983 
L 233.678465 229.942046 
L 233.932356 229.828026 
L 234.186246 229.014535 
L 234.440136 229.952961 
L 234.694026 229.264723 
L 234.947917 229.366461 
L 235.201807 229.090655 
L 235.455697 229.61866 
L 235.963478 229.188852 
L 236.217368 229.441936 
L 236.471258 228.898925 
L 236.725148 229.093217 
L 236.979039 229.717221 
L 237.486819 229.143935 
L 237.740709 229.185208 
L 237.9946 229.924417 
L 238.24849 229.82676 
L 238.50238 230.279598 
L 238.75627 229.527629 
L 239.010161 229.498235 
L 239.264051 230.104539 
L 239.517941 229.635473 
L 239.771831 229.879302 
L 240.025722 229.30235 
L 240.533502 229.725121 
L 240.787393 229.508218 
L 241.041283 229.458759 
L 241.295173 229.527859 
L 241.549063 229.84849 
L 241.802954 228.899234 
L 242.056844 229.184164 
L 242.310734 229.252424 
L 242.818515 230.051945 
L 243.072405 229.619095 
L 243.326295 229.620017 
L 243.580185 229.052008 
L 243.834076 229.806958 
L 244.087966 229.528431 
L 244.341856 229.973114 
L 244.595746 229.758297 
L 244.849637 229.335018 
L 245.103527 230.151924 
L 245.357417 229.077626 
L 245.611307 228.65366 
L 245.865198 229.271448 
L 246.119088 229.592799 
L 246.372978 229.428818 
L 246.626868 229.824546 
L 246.880759 229.384995 
L 247.134649 229.957574 
L 247.388539 228.882997 
L 247.642429 229.432949 
L 247.89632 229.6418 
L 248.15021 230.061241 
L 248.65799 229.206701 
L 249.165771 229.778541 
L 249.673551 229.239841 
L 249.927442 229.614107 
L 250.181332 229.695095 
L 250.689112 228.898746 
L 251.196893 229.724548 
L 251.450783 229.835277 
L 251.704673 228.611082 
L 251.958564 229.740591 
L 252.212454 229.850916 
L 252.466344 229.463831 
L 252.720234 229.354886 
L 252.974125 229.401821 
L 253.228015 228.9906 
L 253.481905 230.030306 
L 253.735795 230.347252 
L 253.989686 229.485762 
L 254.243576 229.728529 
L 254.497466 229.473404 
L 254.751356 229.917323 
L 255.005247 230.02351 
L 255.259137 229.933425 
L 255.513027 229.450189 
L 256.528588 229.553088 
L 256.782479 229.169343 
L 257.036369 229.513881 
L 257.290259 229.481206 
L 257.544149 230.07719 
L 257.79804 228.866393 
L 258.05193 229.822673 
L 258.30582 230.176327 
L 258.55971 229.665661 
L 258.813601 229.921959 
L 259.067491 229.352316 
L 259.321381 229.879065 
L 259.575271 229.537404 
L 259.829162 229.785748 
L 260.083052 229.133463 
L 260.336942 229.89738 
L 260.590832 228.870267 
L 260.844723 229.745809 
L 261.352503 229.440922 
L 261.606393 228.657185 
L 261.860284 229.523917 
L 262.114174 228.945481 
L 262.368064 229.307645 
L 263.129735 229.601227 
L 263.383625 229.522139 
L 263.637515 229.560223 
L 263.891406 229.475421 
L 264.145296 229.855358 
L 264.399186 229.026663 
L 264.906967 229.884802 
L 265.160857 229.676783 
L 265.414747 230.051158 
L 265.668637 229.023789 
L 265.922528 229.314544 
L 266.176418 229.288665 
L 266.430308 229.676239 
L 266.684198 229.790257 
L 266.938089 228.729753 
L 267.191979 229.556482 
L 267.445869 229.362125 
L 267.95365 228.346896 
L 268.20754 229.438531 
L 268.46143 229.368833 
L 268.71532 230.103357 
L 268.969211 229.360608 
L 269.223101 229.674072 
L 269.476991 229.079008 
L 269.984772 229.953208 
L 270.238662 229.732538 
L 270.492552 230.177729 
L 270.746442 230.118233 
L 271.000333 228.896258 
L 271.254223 229.244552 
L 271.508113 230.195354 
L 271.762003 230.285394 
L 272.015894 229.714916 
L 272.523674 229.616236 
L 272.777564 229.450567 
L 273.285345 229.927247 
L 273.539235 229.179892 
L 273.793126 228.846792 
L 274.047016 229.882947 
L 274.300906 229.079955 
L 274.554796 229.989576 
L 275.062577 229.237384 
L 275.316467 229.579184 
L 275.570357 230.10998 
L 275.824248 228.916549 
L 276.078138 229.889848 
L 276.332028 229.746925 
L 276.585918 229.446574 
L 276.839809 228.654799 
L 277.093699 228.805449 
L 277.347589 229.403773 
L 277.601479 228.83028 
L 277.85537 229.935033 
L 278.10926 229.24156 
L 278.36315 229.575038 
L 279.124821 229.249206 
L 279.378711 229.345114 
L 279.632601 229.262719 
L 279.886492 229.319284 
L 280.394272 229.194303 
L 280.648162 229.710351 
L 280.902053 228.760889 
L 281.155943 229.345149 
L 281.409833 229.410156 
L 281.663723 230.557091 
L 281.917614 229.733376 
L 282.171504 230.102427 
L 282.425394 229.280355 
L 282.679284 229.372464 
L 282.933175 229.20351 
L 283.187065 230.101778 
L 283.440955 229.900288 
L 283.694845 229.36905 
L 283.948736 229.396176 
L 284.202626 229.617094 
L 284.456516 229.631231 
L 284.710406 229.154147 
L 284.964297 229.306624 
L 285.218187 229.594685 
L 285.472077 229.627003 
L 285.725967 229.51606 
L 285.979858 229.142943 
L 286.233748 229.393078 
L 286.487638 229.313074 
L 286.741528 229.530862 
L 286.995419 229.309333 
L 287.249309 230.014213 
L 287.503199 229.552002 
L 287.757089 229.531533 
L 288.01098 229.913016 
L 288.51876 229.540036 
L 288.77265 228.8777 
L 289.026541 228.848567 
L 289.280431 229.689636 
L 289.534321 229.921539 
L 289.788212 228.801147 
L 290.295992 229.92237 
L 290.549882 229.593974 
L 290.803773 229.586229 
L 291.057663 229.118715 
L 291.565443 229.153711 
L 291.819334 228.87389 
L 292.073224 229.158385 
L 292.327114 229.216525 
L 292.581004 229.733549 
L 292.834895 229.223123 
L 293.088785 229.58324 
L 293.342675 229.203568 
L 293.850456 229.542037 
L 294.104346 229.193916 
L 294.358236 229.425646 
L 294.612126 229.427673 
L 294.866017 228.946691 
L 295.119907 229.086689 
L 295.373797 229.594114 
L 295.881578 229.824491 
L 296.135468 229.872614 
L 296.643248 229.64167 
L 296.897139 229.323934 
L 297.151029 230.197683 
L 297.404919 229.354946 
L 297.9127 230.203553 
L 298.16659 229.572595 
L 298.42048 229.293469 
L 298.928261 228.488449 
L 299.182151 229.981339 
L 299.436041 229.866814 
L 299.689931 229.085062 
L 299.943822 229.714561 
L 300.197712 229.618073 
L 300.451602 229.802385 
L 300.705492 228.992598 
L 300.959383 229.571866 
L 301.213273 229.265729 
L 301.467163 229.434054 
L 301.721053 229.400382 
L 301.974944 228.660189 
L 302.228834 229.434506 
L 302.482724 228.975249 
L 302.736614 229.813184 
L 302.990505 229.55423 
L 303.244395 229.549615 
L 303.498285 229.365416 
L 303.752175 230.238534 
L 304.006066 229.225702 
L 304.259956 229.624402 
L 304.513846 229.443992 
L 304.767736 229.754119 
L 305.021627 229.677151 
L 305.275517 228.941454 
L 305.783298 229.555427 
L 306.037188 229.616163 
L 306.291078 229.954349 
L 306.544968 230.003123 
L 307.052749 229.049559 
L 307.306639 229.603385 
L 307.560529 229.199337 
L 307.81442 230.131821 
L 308.06831 229.910395 
L 308.3222 229.243712 
L 308.57609 229.314173 
L 308.829981 229.254274 
L 309.083871 229.918384 
L 309.337761 229.857299 
L 309.845542 229.478937 
L 310.099432 229.462339 
L 310.099432 229.462339 
" clip-path="url(#pc010eded95)" style="fill: none; stroke: #0000ff; stroke-width: 0.6; stroke-linecap: square"/>
   </g>
   <g id="line2d_26">
    <path d="M 56.463068 180.218596 
L 56.716958 183.314153 
L 56.970849 183.228566 
L 57.224739 183.969533 
L 57.478629 173.124164 
L 57.732519 173.735938 
L 57.98641 173.75942 
L 58.2403 163.297838 
L 58.49419 191.615398 
L 58.74808 201.191958 
L 59.001971 196.215108 
L 59.255861 181.816223 
L 59.509751 191.173088 
L 59.763641 190.333065 
L 60.017532 200.055701 
L 60.525312 186.92146 
L 60.779202 192.949185 
L 61.033093 210.083061 
L 61.286983 203.726944 
L 61.540873 205.287523 
L 61.794764 212.135599 
L 62.048654 178.466071 
L 62.302544 178.686851 
L 62.556434 177.574011 
L 62.810325 213.003125 
L 63.064215 205.327673 
L 63.318105 208.367719 
L 63.571995 195.343385 
L 63.825886 204.282583 
L 64.079776 190.900892 
L 64.333666 205.252471 
L 64.587556 194.060282 
L 64.841447 164.824652 
L 65.095337 195.582669 
L 65.349227 201.482353 
L 65.603117 141.537293 
L 65.857008 135.305173 
L 66.110898 208.197796 
L 66.364788 208.096725 
L 66.618678 204.972467 
L 66.872569 209.613738 
L 67.126459 202.567514 
L 67.380349 157.42056 
L 67.634239 180.759686 
L 67.88813 169.556006 
L 68.14202 211.397413 
L 68.39591 51.717648 
L 68.6498 192.121866 
L 68.903691 209.411827 
L 69.157581 206.498723 
L 69.411471 205.65213 
L 69.665361 202.482913 
L 69.919252 153.856679 
L 70.173142 205.247445 
L 70.427032 195.764864 
L 70.680922 209.981571 
L 70.934813 166.571714 
L 71.188703 166.06032 
L 71.442593 85.710937 
L 71.696483 198.573686 
L 71.950374 145.761149 
L 72.204264 206.161455 
L 72.458154 207.040469 
L 72.712044 203.315684 
L 72.965935 149.740453 
L 73.219825 194.976315 
L 73.473715 176.207981 
L 73.727605 178.139433 
L 73.981496 209.639664 
L 74.235386 145.212301 
L 74.489276 178.141063 
L 74.743166 167.955211 
L 74.997057 139.019981 
L 75.250947 153.152191 
L 75.504837 206.164569 
L 75.758727 204.084043 
L 76.266508 213.79257 
L 76.520398 206.37595 
L 76.774288 208.315091 
L 77.028179 215.330189 
L 77.535959 211.11478 
L 77.78985 206.404245 
L 78.04374 214.158445 
L 78.55152 188.748669 
L 78.805411 206.01159 
L 79.059301 203.102771 
L 79.313191 186.188702 
L 79.567081 203.956857 
L 79.820972 198.892409 
L 80.074862 210.871572 
L 80.328752 201.572527 
L 80.582642 212.60276 
L 80.836533 213.584272 
L 81.090423 207.911862 
L 81.344313 142.327776 
L 81.852094 214.737757 
L 82.105984 209.892632 
L 82.359874 187.266521 
L 82.613764 213.584735 
L 82.867655 198.637163 
L 83.121545 210.620044 
L 83.375435 212.725026 
L 83.629325 191.775694 
L 83.883216 186.197362 
L 84.137106 141.179781 
L 84.390996 46.498909 
L 84.644886 189.375076 
L 84.898777 211.788464 
L 85.152667 177.298955 
L 85.406557 202.904521 
L 85.660447 192.707526 
L 85.914338 173.130254 
L 86.168228 168.591048 
L 86.422118 206.544671 
L 86.676008 171.349211 
L 86.929899 202.190513 
L 87.183789 210.355423 
L 87.437679 207.010772 
L 87.691569 199.823339 
L 87.94546 171.96319 
L 88.19935 174.631224 
L 88.45324 212.138922 
L 88.70713 206.475165 
L 88.961021 206.099985 
L 89.214911 203.519739 
L 89.468801 205.311203 
L 89.722691 211.732141 
L 89.976582 207.42747 
L 90.230472 198.879777 
L 90.484362 203.851631 
L 90.738252 163.269335 
L 90.992143 208.128984 
L 91.246033 212.670373 
L 91.499923 213.092436 
L 91.753813 211.688575 
L 92.007704 212.323364 
L 92.261594 206.668111 
L 92.515484 211.20463 
L 92.769374 174.044334 
L 93.023265 210.328936 
L 93.277155 210.226016 
L 93.531045 212.679152 
L 93.784936 206.883107 
L 94.038826 211.707003 
L 94.292716 189.55225 
L 94.546606 201.341419 
L 94.800497 201.347847 
L 95.054387 212.826834 
L 95.308277 211.753664 
L 95.562167 211.811909 
L 95.816058 211.586007 
L 96.323838 196.236021 
L 96.577728 212.847252 
L 96.831619 185.645721 
L 97.085509 211.286013 
L 97.339399 195.650826 
L 97.593289 212.436189 
L 97.84718 211.969159 
L 98.10107 209.330324 
L 98.35496 204.990845 
L 98.60885 212.670489 
L 98.862741 205.457845 
L 99.116631 211.735288 
L 99.370521 202.914554 
L 99.624411 212.627997 
L 99.878302 212.942203 
L 100.132192 205.926331 
L 100.386082 212.668019 
L 100.639972 212.159304 
L 100.893863 203.25009 
L 101.147753 210.21241 
L 101.401643 207.706545 
L 101.655533 208.530593 
L 101.909424 185.755313 
L 102.417204 210.900171 
L 102.671094 211.576145 
L 102.924985 207.048371 
L 103.178875 190.55927 
L 103.432765 211.898063 
L 103.940546 202.059624 
L 104.194436 202.772815 
L 104.448326 211.289336 
L 104.956107 207.765469 
L 105.209997 213.482854 
L 105.463887 209.599804 
L 105.717777 210.433188 
L 105.971668 206.086417 
L 106.225558 210.750702 
L 106.479448 211.241324 
L 106.733338 191.892891 
L 106.987229 212.450096 
L 107.241119 210.187633 
L 107.495009 208.933747 
L 107.748899 209.772639 
L 108.00279 211.018834 
L 108.25668 205.169981 
L 108.51057 205.957528 
L 109.018351 212.649841 
L 109.272241 212.070242 
L 109.526131 211.98138 
L 109.780021 211.631207 
L 110.033912 209.823516 
L 110.287802 210.33909 
L 110.541692 211.548943 
L 110.795583 208.470206 
L 111.049473 210.805855 
L 111.303363 202.468075 
L 111.557253 212.309388 
L 111.811144 211.960472 
L 112.065034 209.819841 
L 112.318924 211.04453 
L 112.572814 198.521664 
L 112.826705 209.227525 
L 113.080595 212.380984 
L 113.334485 212.381246 
L 113.588375 210.536633 
L 113.842266 206.8731 
L 114.096156 210.204491 
L 114.350046 198.714617 
L 114.603936 211.024528 
L 114.857827 211.086564 
L 115.111717 210.030355 
L 115.365607 207.180821 
L 115.619497 211.603663 
L 115.873388 212.355286 
L 116.127278 210.046336 
L 116.381168 208.800908 
L 116.635058 206.156964 
L 116.888949 207.493302 
L 117.142839 211.830607 
L 117.650619 211.34789 
L 117.90451 211.527375 
L 118.1584 212.09234 
L 118.41229 211.543109 
L 118.66618 207.562447 
L 118.920071 211.283284 
L 119.173961 210.638053 
L 119.427851 210.961043 
L 119.681741 211.684882 
L 119.935632 210.709004 
L 120.189522 210.682747 
L 120.697302 212.172936 
L 120.951193 209.061325 
L 121.205083 211.652134 
L 121.458973 211.036991 
L 121.712863 211.309265 
L 121.966754 189.010485 
L 122.220644 212.17949 
L 122.474534 210.688443 
L 122.728424 211.115096 
L 122.982315 210.607877 
L 123.236205 211.269227 
L 123.490095 209.107185 
L 123.743985 212.461272 
L 123.997876 210.372644 
L 124.251766 211.520879 
L 124.505656 209.478058 
L 124.759546 210.902622 
L 125.013437 211.04253 
L 126.028998 208.168723 
L 126.282888 209.293083 
L 126.536778 207.60925 
L 126.790669 211.241196 
L 127.044559 208.86922 
L 127.298449 212.090874 
L 127.80623 207.958254 
L 128.06012 211.08702 
L 128.31401 210.985019 
L 128.5679 203.516414 
L 128.821791 210.15393 
L 129.075681 211.275598 
L 129.329571 202.702111 
L 129.583461 211.617442 
L 129.837352 209.379635 
L 130.091242 211.050646 
L 130.345132 211.296272 
L 130.599022 208.33746 
L 130.852913 211.170673 
L 131.106803 211.447145 
L 131.614583 209.888981 
L 131.868474 211.443567 
L 132.122364 210.078559 
L 132.376254 209.768876 
L 132.630144 211.164789 
L 133.137925 211.177025 
L 133.391815 208.452755 
L 133.645705 210.799515 
L 133.899596 210.790218 
L 134.153486 211.047516 
L 134.407376 211.859517 
L 134.661266 210.975684 
L 134.915157 208.861968 
L 135.169047 211.0724 
L 135.422937 210.30186 
L 135.676827 210.359729 
L 135.930718 210.590219 
L 136.184608 210.623569 
L 136.438498 211.458786 
L 136.692388 200.987192 
L 136.946279 208.100461 
L 137.200169 210.482323 
L 137.707949 210.535157 
L 137.96184 211.517171 
L 138.21573 211.426247 
L 138.46962 210.906575 
L 138.977401 206.66213 
L 139.231291 210.96014 
L 139.485181 208.289647 
L 139.739071 210.866964 
L 139.992962 210.097434 
L 140.500742 211.559069 
L 140.754632 209.787102 
L 141.008523 210.574295 
L 141.262413 210.596409 
L 141.516303 210.769769 
L 141.770193 208.698266 
L 142.024084 211.02292 
L 142.277974 209.625881 
L 142.531864 210.490312 
L 142.785755 210.383057 
L 143.039645 210.533492 
L 143.293535 210.259586 
L 143.547425 210.910646 
L 143.801316 210.749363 
L 144.309096 209.356461 
L 144.562986 211.431627 
L 144.816877 210.985853 
L 145.070767 207.893847 
L 145.578547 210.813187 
L 145.832438 209.25544 
L 146.086328 210.400214 
L 146.340218 209.006263 
L 146.847999 210.115217 
L 147.101889 207.936966 
L 147.355779 210.607671 
L 147.609669 209.799138 
L 148.11745 210.12856 
L 148.62523 209.956198 
L 148.879121 209.026997 
L 149.133011 209.167446 
L 149.386901 210.627091 
L 149.640791 210.888242 
L 149.894682 210.902544 
L 150.148572 209.467564 
L 150.402462 210.991418 
L 150.656352 211.122036 
L 150.910243 210.98148 
L 151.164133 210.516081 
L 151.418023 210.381801 
L 151.671913 208.695207 
L 151.925804 208.599287 
L 152.179694 211.183056 
L 152.433584 210.861456 
L 152.687474 211.10296 
L 152.941365 210.456594 
L 153.195255 210.84085 
L 153.449145 210.703894 
L 153.703035 211.360605 
L 153.956926 210.967931 
L 154.210816 208.211725 
L 154.464706 211.166761 
L 154.718596 208.835431 
L 154.972487 209.439269 
L 155.226377 211.163965 
L 155.480267 210.982523 
L 155.734157 210.394314 
L 155.988048 211.029787 
L 156.495828 209.853117 
L 156.749718 210.753429 
L 157.003609 210.714441 
L 157.257499 210.894814 
L 157.511389 208.91735 
L 157.765279 210.95839 
L 158.01917 211.140065 
L 158.78084 210.658367 
L 159.034731 209.387991 
L 159.288621 210.684108 
L 159.542511 210.629735 
L 159.796402 210.18993 
L 160.050292 209.341682 
L 160.304182 210.710379 
L 160.558072 210.607483 
L 160.811963 210.858035 
L 161.065853 210.014889 
L 161.573633 211.086421 
L 161.827524 210.650419 
L 162.081414 211.134818 
L 162.335304 210.667635 
L 162.589194 211.000853 
L 163.096975 211.10507 
L 163.350865 210.527089 
L 163.858646 211.143162 
L 164.112536 210.515416 
L 164.366426 211.23303 
L 164.620316 210.266009 
L 164.874207 210.462549 
L 165.128097 211.041174 
L 165.889768 209.915138 
L 166.143658 210.490639 
L 166.397548 210.339912 
L 166.651438 210.396535 
L 166.905329 210.866016 
L 167.159219 211.042103 
L 167.413109 210.242681 
L 167.666999 211.130393 
L 167.92089 210.99825 
L 168.17478 210.503993 
L 168.42867 210.424212 
L 168.68256 210.650246 
L 168.936451 210.541516 
L 169.444231 211.050618 
L 169.698121 210.700016 
L 169.952012 210.601934 
L 170.205902 211.013421 
L 170.459792 210.667602 
L 170.713682 209.65256 
L 170.967573 211.003466 
L 171.221463 210.944919 
L 171.475353 210.484347 
L 171.729243 211.004264 
L 171.983134 210.829885 
L 172.237024 210.096704 
L 172.490914 210.978744 
L 172.998695 210.901857 
L 173.252585 210.772199 
L 173.506475 209.213879 
L 173.760365 210.995216 
L 174.014256 210.796132 
L 174.268146 209.901468 
L 174.522036 211.040012 
L 174.775926 211.169329 
L 175.029817 211.003566 
L 175.283707 210.354337 
L 175.537597 210.462568 
L 175.791488 207.263854 
L 176.045378 210.536378 
L 176.299268 210.820562 
L 176.553158 210.623258 
L 176.807049 211.104096 
L 177.060939 211.049269 
L 177.314829 210.197334 
L 177.568719 210.941767 
L 177.82261 210.742733 
L 178.0765 209.370511 
L 178.33039 209.342338 
L 178.58428 210.863983 
L 178.838171 210.469212 
L 179.092061 210.819258 
L 179.599841 210.21133 
L 179.853732 210.543321 
L 180.107622 211.121305 
L 180.361512 209.502909 
L 180.615402 210.66012 
L 180.869293 208.796314 
L 181.123183 210.391535 
L 181.377073 210.928541 
L 181.884854 211.007599 
L 182.138744 209.898877 
L 182.392634 210.794085 
L 182.900415 210.639669 
L 183.408195 210.766379 
L 183.662085 210.851427 
L 183.915976 210.303869 
L 184.169866 210.591773 
L 184.423756 210.668198 
L 184.677646 210.213657 
L 184.931537 210.56325 
L 185.185427 209.867404 
L 185.439317 210.871677 
L 185.693207 210.67631 
L 185.947098 210.652395 
L 186.200988 210.330123 
L 186.454878 210.858731 
L 186.708768 209.946319 
L 186.962659 210.681156 
L 187.216549 210.904805 
L 187.470439 210.806356 
L 187.97822 211.052335 
L 188.23211 211.08877 
L 188.486 210.974565 
L 188.73989 210.205802 
L 189.247671 210.290392 
L 189.501561 210.815997 
L 189.755451 210.54053 
L 190.009342 209.964238 
L 190.263232 210.509775 
L 191.024903 210.978193 
L 191.278793 210.352696 
L 191.532683 211.067948 
L 191.786574 211.092846 
L 192.040464 210.635849 
L 192.548244 210.758465 
L 192.802135 211.064656 
L 193.309915 210.555072 
L 193.563805 209.831062 
L 193.817696 210.463965 
L 194.071586 210.493442 
L 194.325476 211.102288 
L 194.833257 211.144858 
L 195.087147 210.861287 
L 195.341037 210.966157 
L 195.594927 209.48783 
L 195.848818 211.052205 
L 196.356598 210.668108 
L 196.864379 210.982437 
L 197.372159 210.704343 
L 197.626049 210.951406 
L 198.13383 209.86967 
L 198.38772 210.92048 
L 198.64161 211.049744 
L 198.895501 210.351729 
L 199.149391 210.778797 
L 199.403281 209.97444 
L 199.657171 210.90186 
L 199.911062 210.31413 
L 200.164952 210.768477 
L 200.672732 210.634457 
L 200.926623 211.028889 
L 201.180513 210.367577 
L 201.434403 210.839738 
L 201.688293 210.901798 
L 201.942184 210.496841 
L 202.196074 210.950185 
L 202.449964 209.450768 
L 202.703854 210.977226 
L 202.957745 209.236371 
L 203.211635 210.905912 
L 203.465525 209.525398 
L 203.719415 210.14245 
L 203.973306 209.668593 
L 204.227196 210.741923 
L 204.734976 210.91313 
L 204.988867 209.935732 
L 205.242757 209.939096 
L 205.496647 210.849235 
L 205.750537 210.724153 
L 206.004428 210.872791 
L 206.512208 209.905245 
L 206.766098 210.640797 
L 207.019989 209.238478 
L 207.273879 210.373366 
L 207.527769 210.00239 
L 207.78166 210.701339 
L 208.03555 210.501409 
L 208.28944 210.734225 
L 208.54333 210.215995 
L 209.051111 210.865202 
L 209.305001 210.69235 
L 209.558891 209.956184 
L 209.812782 210.900843 
L 210.574452 210.840242 
L 210.828343 210.916508 
L 211.082233 207.800025 
L 211.336123 210.216486 
L 211.590013 210.777812 
L 211.843904 210.598512 
L 212.097794 210.593141 
L 212.351684 210.74194 
L 212.605574 209.429614 
L 212.859465 211.033414 
L 213.367245 209.919186 
L 213.621135 210.225838 
L 213.875026 210.240548 
L 214.128916 209.744898 
L 214.382806 210.727386 
L 214.636696 210.897425 
L 214.890587 210.735474 
L 215.398367 210.768009 
L 215.652257 209.08571 
L 215.906148 210.988608 
L 216.160038 210.78109 
L 216.413928 210.983698 
L 216.667818 210.951394 
L 216.921709 211.080359 
L 217.429489 210.722006 
L 218.19116 211.092335 
L 218.44505 210.810387 
L 218.69894 210.991753 
L 218.952831 210.830562 
L 219.206721 210.832494 
L 219.714501 211.104706 
L 219.968392 211.097832 
L 220.222282 210.837719 
L 220.476172 211.030171 
L 220.730062 210.43744 
L 220.983953 211.07258 
L 221.237843 210.519887 
L 221.745623 210.432765 
L 221.999514 210.871997 
L 222.253404 210.72226 
L 222.507294 210.779087 
L 223.268965 210.68084 
L 223.522855 210.241368 
L 223.776745 210.542141 
L 224.284526 210.599034 
L 224.538416 210.654053 
L 224.792307 210.160215 
L 225.046197 210.818199 
L 225.300087 210.783957 
L 225.553977 210.318888 
L 225.807868 210.791802 
L 226.061758 210.992615 
L 226.315648 210.903869 
L 226.569538 210.565673 
L 226.823429 210.902159 
L 227.077319 211.025889 
L 227.331209 210.783641 
L 227.585099 211.025212 
L 227.83899 210.672918 
L 228.09288 210.734572 
L 228.34677 210.992437 
L 228.854551 210.947848 
L 229.362331 210.860582 
L 229.870112 210.558207 
L 230.124002 210.886256 
L 230.631782 210.850256 
L 230.885673 210.256695 
L 231.139563 210.813197 
L 231.393453 210.32729 
L 231.647343 210.918501 
L 231.901234 211.037017 
L 232.155124 210.431751 
L 232.409014 210.752329 
L 232.662904 210.893088 
L 232.916795 210.457466 
L 233.170685 211.092898 
L 233.678465 210.645697 
L 233.932356 210.691343 
L 234.440136 210.966147 
L 234.947917 210.858786 
L 235.201807 210.78474 
L 235.709587 210.887824 
L 235.963478 210.614946 
L 236.471258 210.977485 
L 236.725148 210.646861 
L 236.979039 210.567193 
L 237.232929 210.998204 
L 237.740709 210.453445 
L 237.9946 210.911986 
L 238.24849 211.078157 
L 238.50238 210.842779 
L 238.75627 210.876933 
L 239.010161 210.710058 
L 239.264051 211.161951 
L 239.517941 210.935558 
L 241.041283 210.6806 
L 241.295173 210.87651 
L 241.549063 210.531067 
L 242.564624 210.971356 
L 243.072405 210.648436 
L 243.580185 210.919014 
L 243.834076 210.805821 
L 244.087966 211.0123 
L 244.341856 210.836273 
L 244.595746 210.85508 
L 244.849637 211.026834 
L 245.103527 210.915589 
L 245.357417 210.660635 
L 245.611307 211.003204 
L 245.865198 210.370907 
L 246.372978 210.973494 
L 246.626868 210.953069 
L 246.880759 210.475174 
L 247.134649 210.872814 
L 247.642429 210.957926 
L 247.89632 210.280099 
L 248.15021 210.598314 
L 248.4041 210.420029 
L 248.65799 210.769766 
L 249.927442 211.017252 
L 250.181332 210.77303 
L 250.435222 210.832482 
L 250.689112 210.216978 
L 250.943003 210.624122 
L 251.450783 210.890309 
L 251.704673 211.051492 
L 251.958564 210.905537 
L 252.466344 210.816037 
L 252.720234 210.410715 
L 252.974125 210.462853 
L 253.228015 210.076289 
L 253.481905 210.772068 
L 253.735795 210.871608 
L 253.989686 210.59625 
L 254.497466 211.018105 
L 254.751356 210.960126 
L 255.005247 210.266121 
L 255.259137 210.964344 
L 255.513027 210.695367 
L 256.020808 210.998361 
L 256.528588 210.607951 
L 256.782479 210.845855 
L 257.036369 210.771907 
L 257.290259 210.868508 
L 257.544149 210.753698 
L 257.79804 210.912967 
L 258.05193 210.771391 
L 258.30582 210.376195 
L 258.55971 210.76232 
L 258.813601 210.608516 
L 259.067491 210.691156 
L 259.321381 210.895195 
L 259.575271 210.661612 
L 259.829162 210.717106 
L 260.083052 210.32328 
L 260.590832 210.826992 
L 260.844723 210.818788 
L 261.098613 210.502525 
L 261.352503 210.485224 
L 261.606393 210.798869 
L 261.860284 210.73374 
L 262.114174 210.464739 
L 262.368064 210.463238 
L 262.621954 210.247539 
L 262.875845 210.784451 
L 263.129735 210.144094 
L 263.383625 210.56387 
L 263.637515 210.063357 
L 263.891406 210.161676 
L 264.145296 210.792294 
L 265.160857 210.962145 
L 265.414747 210.870608 
L 265.668637 210.088671 
L 266.176418 210.628685 
L 266.430308 209.187658 
L 266.684198 210.856394 
L 266.938089 210.787094 
L 267.191979 210.563302 
L 267.445869 210.5513 
L 267.95365 210.848798 
L 268.20754 210.65473 
L 268.46143 210.683006 
L 268.71532 210.880793 
L 268.969211 210.863297 
L 269.223101 210.49649 
L 269.984772 210.819517 
L 270.238662 210.989625 
L 270.492552 210.909522 
L 271.000333 210.155515 
L 271.254223 210.743823 
L 271.508113 210.945608 
L 271.762003 210.666761 
L 272.015894 210.850087 
L 272.269784 210.008091 
L 272.777564 210.34272 
L 273.031455 210.851441 
L 273.285345 210.978983 
L 273.539235 210.720322 
L 273.793126 210.952551 
L 274.047016 210.571158 
L 274.300906 210.885092 
L 274.554796 210.797769 
L 274.808687 210.937002 
L 275.062577 210.586336 
L 275.570357 210.556846 
L 275.824248 210.755975 
L 276.078138 210.281325 
L 276.332028 211.069834 
L 276.585918 210.76761 
L 276.839809 210.778021 
L 277.347589 210.425943 
L 277.601479 210.757705 
L 277.85537 210.642571 
L 278.10926 210.649697 
L 278.36315 210.962782 
L 278.61704 209.883418 
L 278.870931 210.922544 
L 279.124821 210.778253 
L 279.378711 210.505979 
L 279.632601 211.058193 
L 279.886492 210.335912 
L 280.140382 210.220458 
L 280.394272 210.776052 
L 280.648162 210.715795 
L 280.902053 210.864503 
L 281.155943 210.431212 
L 281.409833 210.913962 
L 281.917614 211.086896 
L 282.425394 210.958302 
L 282.679284 210.620535 
L 283.187065 210.925302 
L 283.694845 210.512661 
L 284.202626 211.072473 
L 284.456516 209.96116 
L 284.710406 210.783163 
L 284.964297 210.674163 
L 285.218187 210.932919 
L 285.472077 210.843532 
L 285.725967 210.608177 
L 285.979858 210.136968 
L 286.487638 210.453637 
L 286.995419 210.911197 
L 287.249309 210.808688 
L 287.757089 210.932199 
L 288.01098 210.167327 
L 288.26487 210.982513 
L 288.51876 210.426259 
L 288.77265 210.625438 
L 289.026541 210.55026 
L 289.534321 211.046316 
L 289.788212 209.809589 
L 290.042102 211.045321 
L 290.295992 210.328708 
L 290.803773 210.901907 
L 291.057663 210.804292 
L 291.311553 210.857684 
L 291.565443 210.579253 
L 291.819334 210.813767 
L 292.327114 210.919131 
L 292.581004 210.098552 
L 292.834895 211.002335 
L 293.088785 210.786223 
L 293.596565 210.920791 
L 293.850456 210.545977 
L 294.104346 210.496426 
L 294.358236 210.665334 
L 294.866017 210.480238 
L 295.373797 211.022283 
L 295.627687 211.091559 
L 296.135468 211.003594 
L 296.389358 211.092229 
L 296.643248 209.599574 
L 296.897139 210.773149 
L 297.404919 210.621683 
L 297.658809 210.192156 
L 297.9127 211.006699 
L 298.42048 210.087291 
L 298.67437 210.657013 
L 298.928261 210.534932 
L 299.182151 208.82559 
L 299.436041 210.920128 
L 299.943822 210.579338 
L 300.197712 210.99547 
L 300.451602 211.105815 
L 300.959383 210.88062 
L 301.213273 210.462946 
L 301.467163 210.747607 
L 301.721053 210.534982 
L 301.974944 210.894116 
L 302.228834 210.588751 
L 302.482724 210.959366 
L 302.736614 210.020889 
L 303.244395 210.998166 
L 303.498285 210.932993 
L 303.752175 211.046395 
L 304.006066 210.178486 
L 304.259956 210.769332 
L 304.513846 210.933204 
L 304.767736 210.198227 
L 305.021627 210.883456 
L 305.275517 210.940886 
L 305.783298 210.738089 
L 306.037188 211.0792 
L 306.291078 210.954622 
L 306.798859 211.03392 
L 307.052749 210.76537 
L 307.306639 210.748956 
L 307.81442 211.1114 
L 308.06831 210.195462 
L 308.3222 210.879522 
L 309.083871 210.746301 
L 309.337761 210.766793 
L 309.591651 210.908473 
L 309.845542 210.552036 
L 310.099432 210.729503 
L 310.099432 210.729503 
" clip-path="url(#pc010eded95)" style="fill: none; stroke: #ff0000; stroke-width: 0.6; stroke-linecap: square"/>
   </g>
   <g id="patch_3">
    <path d="M 43.78125 239.76 
L 43.78125 37.296 
" style="fill: none; stroke: #000000; stroke-width: 0.8; stroke-linejoin: miter; stroke-linecap: square"/>
   </g>
   <g id="patch_4">
    <path d="M 322.78125 239.76 
L 322.78125 37.296 
" style="fill: none; stroke: #000000; stroke-width: 0.8; stroke-linejoin: miter; stroke-linecap: square"/>
   </g>
   <g id="patch_5">
    <path d="M 43.78125 239.76 
L 322.78125 239.76 
" style="fill: none; stroke: #000000; stroke-width: 0.8; stroke-linejoin: miter; stroke-linecap: square"/>
   </g>
   <g id="patch_6">
    <path d="M 43.78125 37.296 
L 322.78125 37.296 
" style="fill: none; stroke: #000000; stroke-width: 0.8; stroke-linejoin: miter; stroke-linecap: square"/>
   </g>
   <g id="text_15">
    <!-- Baseline Model -->
    <g transform="translate(149.259844 31.296) scale(0.09 -0.09)">
     <defs>
      <path id="DejaVuSans-42" d="M 1259 2228 
L 1259 519 
L 2272 519 
Q 2781 519 3026 730 
Q 3272 941 3272 1375 
Q 3272 1813 3026 2020 
Q 2781 2228 2272 2228 
L 1259 2228 
z
M 1259 4147 
L 1259 2741 
L 2194 2741 
Q 2656 2741 2882 2914 
Q 3109 3088 3109 3444 
Q 3109 3797 2882 3972 
Q 2656 4147 2194 4147 
L 1259 4147 
z
M 628 4666 
L 2241 4666 
Q 2963 4666 3353 4366 
Q 3744 4066 3744 3513 
Q 3744 3084 3544 2831 
Q 3344 2578 2956 2516 
Q 3422 2416 3680 2098 
Q 3938 1781 3938 1306 
Q 3938 681 3513 340 
Q 3088 0 2303 0 
L 628 0 
L 628 4666 
z
" transform="scale(0.015625)"/>
      <path id="DejaVuSans-61" d="M 2194 1759 
Q 1497 1759 1228 1600 
Q 959 1441 959 1056 
Q 959 750 1161 570 
Q 1363 391 1709 391 
Q 2188 391 2477 730 
Q 2766 1069 2766 1631 
L 2766 1759 
L 2194 1759 
z
M 3341 1997 
L 3341 0 
L 2766 0 
L 2766 531 
Q 2569 213 2275 61 
Q 1981 -91 1556 -91 
Q 1019 -91 701 211 
Q 384 513 384 1019 
Q 384 1609 779 1909 
Q 1175 2209 1959 2209 
L 2766 2209 
L 2766 2266 
Q 2766 2663 2505 2880 
Q 2244 3097 1772 3097 
Q 1472 3097 1187 3025 
Q 903 2953 641 2809 
L 641 3341 
Q 956 3463 1253 3523 
Q 1550 3584 1831 3584 
Q 2591 3584 2966 3190 
Q 3341 2797 3341 1997 
z
" transform="scale(0.015625)"/>
      <path id="DejaVuSans-65" d="M 3597 1894 
L 3597 1613 
L 953 1613 
Q 991 1019 1311 708 
Q 1631 397 2203 397 
Q 2534 397 2845 478 
Q 3156 559 3463 722 
L 3463 178 
Q 3153 47 2828 -22 
Q 2503 -91 2169 -91 
Q 1331 -91 842 396 
Q 353 884 353 1716 
Q 353 2575 817 3079 
Q 1281 3584 2069 3584 
Q 2775 3584 3186 3129 
Q 3597 2675 3597 1894 
z
M 3022 2063 
Q 3016 2534 2758 2815 
Q 2500 3097 2075 3097 
Q 1594 3097 1305 2825 
Q 1016 2553 972 2059 
L 3022 2063 
z
" transform="scale(0.015625)"/>
      <path id="DejaVuSans-6c" d="M 603 4863 
L 1178 4863 
L 1178 0 
L 603 0 
L 603 4863 
z
" transform="scale(0.015625)"/>
      <path id="DejaVuSans-69" d="M 603 3500 
L 1178 3500 
L 1178 0 
L 603 0 
L 603 3500 
z
M 603 4863 
L 1178 4863 
L 1178 4134 
L 603 4134 
L 603 4863 
z
" transform="scale(0.015625)"/>
      <path id="DejaVuSans-6e" d="M 3513 2113 
L 3513 0 
L 2938 0 
L 2938 2094 
Q 2938 2591 2744 2837 
Q 2550 3084 2163 3084 
Q 1697 3084 1428 2787 
Q 1159 2491 1159 1978 
L 1159 0 
L 581 0 
L 581 3500 
L 1159 3500 
L 1159 2956 
Q 1366 3272 1645 3428 
Q 1925 3584 2291 3584 
Q 2894 3584 3203 3211 
Q 3513 2838 3513 2113 
z
" transform="scale(0.015625)"/>
      <path id="DejaVuSans-20" transform="scale(0.015625)"/>
      <path id="DejaVuSans-4d" d="M 628 4666 
L 1569 4666 
L 2759 1491 
L 3956 4666 
L 4897 4666 
L 4897 0 
L 4281 0 
L 4281 4097 
L 3078 897 
L 2444 897 
L 1241 4097 
L 1241 0 
L 628 0 
L 628 4666 
z
" transform="scale(0.015625)"/>
      <path id="DejaVuSans-64" d="M 2906 2969 
L 2906 4863 
L 3481 4863 
L 3481 0 
L 2906 0 
L 2906 525 
Q 2725 213 2448 61 
Q 2172 -91 1784 -91 
Q 1150 -91 751 415 
Q 353 922 353 1747 
Q 353 2572 751 3078 
Q 1150 3584 1784 3584 
Q 2172 3584 2448 3432 
Q 2725 3281 2906 2969 
z
M 947 1747 
Q 947 1113 1208 752 
Q 1469 391 1925 391 
Q 2381 391 2643 752 
Q 2906 1113 2906 1747 
Q 2906 2381 2643 2742 
Q 2381 3103 1925 3103 
Q 1469 3103 1208 2742 
Q 947 2381 947 1747 
z
" transform="scale(0.015625)"/>
     </defs>
     <use xlink:href="#DejaVuSans-42"/>
     <use xlink:href="#DejaVuSans-61" x="68.603516"/>
     <use xlink:href="#DejaVuSans-73" x="129.882812"/>
     <use xlink:href="#DejaVuSans-65" x="181.982422"/>
     <use xlink:href="#DejaVuSans-6c" x="243.505859"/>
     <use xlink:href="#DejaVuSans-69" x="271.289062"/>
     <use xlink:href="#DejaVuSans-6e" x="299.072266"/>
     <use xlink:href="#DejaVuSans-65" x="362.451172"/>
     <use xlink:href="#DejaVuSans-20" x="423.974609"/>
     <use xlink:href="#DejaVuSans-4d" x="455.761719"/>
     <use xlink:href="#DejaVuSans-6f" x="542.041016"/>
     <use xlink:href="#DejaVuSans-64" x="603.222656"/>
     <use xlink:href="#DejaVuSans-65" x="666.699219"/>
     <use xlink:href="#DejaVuSans-6c" x="728.222656"/>
    </g>
   </g>
   <g id="legend_1">
    <g id="patch_7">
     <path d="M 209.2875 74.65225 
L 315.78125 74.65225 
Q 317.78125 74.65225 317.78125 72.65225 
L 317.78125 44.296 
Q 317.78125 42.296 315.78125 42.296 
L 209.2875 42.296 
Q 207.2875 42.296 207.2875 44.296 
L 207.2875 72.65225 
Q 207.2875 74.65225 209.2875 74.65225 
z
" style="fill: #ffffff; opacity: 0.8; stroke: #cccccc; stroke-linejoin: miter"/>
    </g>
    <g id="line2d_27">
     <path d="M 211.2875 50.394438 
L 221.2875 50.394438 
L 231.2875 50.394438 
" style="fill: none; stroke: #0000ff; stroke-width: 0.6; stroke-linecap: square"/>
    </g>
    <g id="text_16">
     <!-- Training Loss -->
     <g transform="translate(239.2875 53.894438) scale(0.1 -0.1)">
      <defs>
       <path id="DejaVuSans-54" d="M -19 4666 
L 3928 4666 
L 3928 4134 
L 2272 4134 
L 2272 0 
L 1638 0 
L 1638 4134 
L -19 4134 
L -19 4666 
z
" transform="scale(0.015625)"/>
       <path id="DejaVuSans-72" d="M 2631 2963 
Q 2534 3019 2420 3045 
Q 2306 3072 2169 3072 
Q 1681 3072 1420 2755 
Q 1159 2438 1159 1844 
L 1159 0 
L 581 0 
L 581 3500 
L 1159 3500 
L 1159 2956 
Q 1341 3275 1631 3429 
Q 1922 3584 2338 3584 
Q 2397 3584 2469 3576 
Q 2541 3569 2628 3553 
L 2631 2963 
z
" transform="scale(0.015625)"/>
       <path id="DejaVuSans-67" d="M 2906 1791 
Q 2906 2416 2648 2759 
Q 2391 3103 1925 3103 
Q 1463 3103 1205 2759 
Q 947 2416 947 1791 
Q 947 1169 1205 825 
Q 1463 481 1925 481 
Q 2391 481 2648 825 
Q 2906 1169 2906 1791 
z
M 3481 434 
Q 3481 -459 3084 -895 
Q 2688 -1331 1869 -1331 
Q 1566 -1331 1297 -1286 
Q 1028 -1241 775 -1147 
L 775 -588 
Q 1028 -725 1275 -790 
Q 1522 -856 1778 -856 
Q 2344 -856 2625 -561 
Q 2906 -266 2906 331 
L 2906 616 
Q 2728 306 2450 153 
Q 2172 0 1784 0 
Q 1141 0 747 490 
Q 353 981 353 1791 
Q 353 2603 747 3093 
Q 1141 3584 1784 3584 
Q 2172 3584 2450 3431 
Q 2728 3278 2906 2969 
L 2906 3500 
L 3481 3500 
L 3481 434 
z
" transform="scale(0.015625)"/>
      </defs>
      <use xlink:href="#DejaVuSans-54"/>
      <use xlink:href="#DejaVuSans-72" x="46.333984"/>
      <use xlink:href="#DejaVuSans-61" x="87.447266"/>
      <use xlink:href="#DejaVuSans-69" x="148.726562"/>
      <use xlink:href="#DejaVuSans-6e" x="176.509766"/>
      <use xlink:href="#DejaVuSans-69" x="239.888672"/>
      <use xlink:href="#DejaVuSans-6e" x="267.671875"/>
      <use xlink:href="#DejaVuSans-67" x="331.050781"/>
      <use xlink:href="#DejaVuSans-20" x="394.527344"/>
      <use xlink:href="#DejaVuSans-4c" x="426.314453"/>
      <use xlink:href="#DejaVuSans-6f" x="480.277344"/>
      <use xlink:href="#DejaVuSans-73" x="541.458984"/>
      <use xlink:href="#DejaVuSans-73" x="593.558594"/>
     </g>
    </g>
    <g id="line2d_28">
     <path d="M 211.2875 65.072563 
L 221.2875 65.072563 
L 231.2875 65.072563 
" style="fill: none; stroke: #ff0000; stroke-width: 0.6; stroke-linecap: square"/>
    </g>
    <g id="text_17">
     <!-- Validation Loss -->
     <g transform="translate(239.2875 68.572563) scale(0.1 -0.1)">
      <defs>
       <path id="DejaVuSans-56" d="M 1831 0 
L 50 4666 
L 709 4666 
L 2188 738 
L 3669 4666 
L 4325 4666 
L 2547 0 
L 1831 0 
z
" transform="scale(0.015625)"/>
       <path id="DejaVuSans-74" d="M 1172 4494 
L 1172 3500 
L 2356 3500 
L 2356 3053 
L 1172 3053 
L 1172 1153 
Q 1172 725 1289 603 
Q 1406 481 1766 481 
L 2356 481 
L 2356 0 
L 1766 0 
Q 1100 0 847 248 
Q 594 497 594 1153 
L 594 3053 
L 172 3053 
L 172 3500 
L 594 3500 
L 594 4494 
L 1172 4494 
z
" transform="scale(0.015625)"/>
      </defs>
      <use xlink:href="#DejaVuSans-56"/>
      <use xlink:href="#DejaVuSans-61" x="60.658203"/>
      <use xlink:href="#DejaVuSans-6c" x="121.9375"/>
      <use xlink:href="#DejaVuSans-69" x="149.720703"/>
      <use xlink:href="#DejaVuSans-64" x="177.503906"/>
      <use xlink:href="#DejaVuSans-61" x="240.980469"/>
      <use xlink:href="#DejaVuSans-74" x="302.259766"/>
      <use xlink:href="#DejaVuSans-69" x="341.46875"/>
      <use xlink:href="#DejaVuSans-6f" x="369.251953"/>
      <use xlink:href="#DejaVuSans-6e" x="430.433594"/>
      <use xlink:href="#DejaVuSans-20" x="493.8125"/>
      <use xlink:href="#DejaVuSans-4c" x="525.599609"/>
      <use xlink:href="#DejaVuSans-6f" x="579.5625"/>
      <use xlink:href="#DejaVuSans-73" x="640.744141"/>
      <use xlink:href="#DejaVuSans-73" x="692.84375"/>
     </g>
    </g>
   </g>
  </g>
  <g id="text_18">
   <!-- Training VS. Validation Loss - Dataset Size = 100.0% -->
   <g transform="translate(34.481016 15.558281) scale(0.11 -0.11)">
    <defs>
     <path id="DejaVuSans-53" d="M 3425 4513 
L 3425 3897 
Q 3066 4069 2747 4153 
Q 2428 4238 2131 4238 
Q 1616 4238 1336 4038 
Q 1056 3838 1056 3469 
Q 1056 3159 1242 3001 
Q 1428 2844 1947 2747 
L 2328 2669 
Q 3034 2534 3370 2195 
Q 3706 1856 3706 1288 
Q 3706 609 3251 259 
Q 2797 -91 1919 -91 
Q 1588 -91 1214 -16 
Q 841 59 441 206 
L 441 856 
Q 825 641 1194 531 
Q 1563 422 1919 422 
Q 2459 422 2753 634 
Q 3047 847 3047 1241 
Q 3047 1584 2836 1778 
Q 2625 1972 2144 2069 
L 1759 2144 
Q 1053 2284 737 2584 
Q 422 2884 422 3419 
Q 422 4038 858 4394 
Q 1294 4750 2059 4750 
Q 2388 4750 2728 4690 
Q 3069 4631 3425 4513 
z
" transform="scale(0.015625)"/>
     <path id="DejaVuSans-2d" d="M 313 2009 
L 1997 2009 
L 1997 1497 
L 313 1497 
L 313 2009 
z
" transform="scale(0.015625)"/>
     <path id="DejaVuSans-44" d="M 1259 4147 
L 1259 519 
L 2022 519 
Q 2988 519 3436 956 
Q 3884 1394 3884 2338 
Q 3884 3275 3436 3711 
Q 2988 4147 2022 4147 
L 1259 4147 
z
M 628 4666 
L 1925 4666 
Q 3281 4666 3915 4102 
Q 4550 3538 4550 2338 
Q 4550 1131 3912 565 
Q 3275 0 1925 0 
L 628 0 
L 628 4666 
z
" transform="scale(0.015625)"/>
     <path id="DejaVuSans-7a" d="M 353 3500 
L 3084 3500 
L 3084 2975 
L 922 459 
L 3084 459 
L 3084 0 
L 275 0 
L 275 525 
L 2438 3041 
L 353 3041 
L 353 3500 
z
" transform="scale(0.015625)"/>
     <path id="DejaVuSans-3d" d="M 678 2906 
L 4684 2906 
L 4684 2381 
L 678 2381 
L 678 2906 
z
M 678 1631 
L 4684 1631 
L 4684 1100 
L 678 1100 
L 678 1631 
z
" transform="scale(0.015625)"/>
     <path id="DejaVuSans-25" d="M 4653 2053 
Q 4381 2053 4226 1822 
Q 4072 1591 4072 1178 
Q 4072 772 4226 539 
Q 4381 306 4653 306 
Q 4919 306 5073 539 
Q 5228 772 5228 1178 
Q 5228 1588 5073 1820 
Q 4919 2053 4653 2053 
z
M 4653 2450 
Q 5147 2450 5437 2106 
Q 5728 1763 5728 1178 
Q 5728 594 5436 251 
Q 5144 -91 4653 -91 
Q 4153 -91 3862 251 
Q 3572 594 3572 1178 
Q 3572 1766 3864 2108 
Q 4156 2450 4653 2450 
z
M 1428 4353 
Q 1159 4353 1004 4120 
Q 850 3888 850 3481 
Q 850 3069 1003 2837 
Q 1156 2606 1428 2606 
Q 1700 2606 1854 2837 
Q 2009 3069 2009 3481 
Q 2009 3884 1853 4118 
Q 1697 4353 1428 4353 
z
M 4250 4750 
L 4750 4750 
L 1831 -91 
L 1331 -91 
L 4250 4750 
z
M 1428 4750 
Q 1922 4750 2215 4408 
Q 2509 4066 2509 3481 
Q 2509 2891 2217 2550 
Q 1925 2209 1428 2209 
Q 931 2209 642 2551 
Q 353 2894 353 3481 
Q 353 4063 643 4406 
Q 934 4750 1428 4750 
z
" transform="scale(0.015625)"/>
    </defs>
    <use xlink:href="#DejaVuSans-54"/>
    <use xlink:href="#DejaVuSans-72" x="46.333984"/>
    <use xlink:href="#DejaVuSans-61" x="87.447266"/>
    <use xlink:href="#DejaVuSans-69" x="148.726562"/>
    <use xlink:href="#DejaVuSans-6e" x="176.509766"/>
    <use xlink:href="#DejaVuSans-69" x="239.888672"/>
    <use xlink:href="#DejaVuSans-6e" x="267.671875"/>
    <use xlink:href="#DejaVuSans-67" x="331.050781"/>
    <use xlink:href="#DejaVuSans-20" x="394.527344"/>
    <use xlink:href="#DejaVuSans-56" x="426.314453"/>
    <use xlink:href="#DejaVuSans-53" x="494.722656"/>
    <use xlink:href="#DejaVuSans-2e" x="558.199219"/>
    <use xlink:href="#DejaVuSans-20" x="589.986328"/>
    <use xlink:href="#DejaVuSans-56" x="621.773438"/>
    <use xlink:href="#DejaVuSans-61" x="682.431641"/>
    <use xlink:href="#DejaVuSans-6c" x="743.710938"/>
    <use xlink:href="#DejaVuSans-69" x="771.494141"/>
    <use xlink:href="#DejaVuSans-64" x="799.277344"/>
    <use xlink:href="#DejaVuSans-61" x="862.753906"/>
    <use xlink:href="#DejaVuSans-74" x="924.033203"/>
    <use xlink:href="#DejaVuSans-69" x="963.242188"/>
    <use xlink:href="#DejaVuSans-6f" x="991.025391"/>
    <use xlink:href="#DejaVuSans-6e" x="1052.207031"/>
    <use xlink:href="#DejaVuSans-20" x="1115.585938"/>
    <use xlink:href="#DejaVuSans-4c" x="1147.373047"/>
    <use xlink:href="#DejaVuSans-6f" x="1201.335938"/>
    <use xlink:href="#DejaVuSans-73" x="1262.517578"/>
    <use xlink:href="#DejaVuSans-73" x="1314.617188"/>
    <use xlink:href="#DejaVuSans-20" x="1366.716797"/>
    <use xlink:href="#DejaVuSans-2d" x="1398.503906"/>
    <use xlink:href="#DejaVuSans-20" x="1434.587891"/>
    <use xlink:href="#DejaVuSans-44" x="1466.375"/>
    <use xlink:href="#DejaVuSans-61" x="1543.376953"/>
    <use xlink:href="#DejaVuSans-74" x="1604.65625"/>
    <use xlink:href="#DejaVuSans-61" x="1643.865234"/>
    <use xlink:href="#DejaVuSans-73" x="1705.144531"/>
    <use xlink:href="#DejaVuSans-65" x="1757.244141"/>
    <use xlink:href="#DejaVuSans-74" x="1818.767578"/>
    <use xlink:href="#DejaVuSans-20" x="1857.976562"/>
    <use xlink:href="#DejaVuSans-53" x="1889.763672"/>
    <use xlink:href="#DejaVuSans-69" x="1953.240234"/>
    <use xlink:href="#DejaVuSans-7a" x="1981.023438"/>
    <use xlink:href="#DejaVuSans-65" x="2033.513672"/>
    <use xlink:href="#DejaVuSans-20" x="2095.037109"/>
    <use xlink:href="#DejaVuSans-3d" x="2126.824219"/>
    <use xlink:href="#DejaVuSans-20" x="2210.613281"/>
    <use xlink:href="#DejaVuSans-31" x="2242.400391"/>
    <use xlink:href="#DejaVuSans-30" x="2306.023438"/>
    <use xlink:href="#DejaVuSans-30" x="2369.646484"/>
    <use xlink:href="#DejaVuSans-2e" x="2433.269531"/>
    <use xlink:href="#DejaVuSans-30" x="2465.056641"/>
    <use xlink:href="#DejaVuSans-25" x="2528.679688"/>
   </g>
  </g>
 </g>
 <defs>
  <clipPath id="pc010eded95">
   <rect x="43.78125" y="37.296" width="279" height="202.464"/>
  </clipPath>
 </defs>
</svg>
