<?xml version="1.0" encoding="utf-8" standalone="no"?>
<!DOCTYPE svg PUBLIC "-//W3C//DTD SVG 1.1//EN"
  "http://www.w3.org/Graphics/SVG/1.1/DTD/svg11.dtd">
<svg xmlns:xlink="http://www.w3.org/1999/xlink" width="330.281484pt" height="277.31625pt" viewBox="0 0 330.281484 277.31625" xmlns="http://www.w3.org/2000/svg" version="1.1">
 <metadata>
  <rdf:RDF xmlns:dc="http://purl.org/dc/elements/1.1/" xmlns:cc="http://creativecommons.org/ns#" xmlns:rdf="http://www.w3.org/1999/02/22-rdf-syntax-ns#">
   <cc:Work>
    <dc:type rdf:resource="http://purl.org/dc/dcmitype/StillImage"/>
    <dc:date>2026-06-11T16:06:11.254941</dc:date>
    <dc:format>image/svg+xml</dc:format>
    <dc:creator>
     <cc:Agent>
      <dc:title>Matplotlib v3.8.4, https://matplotlib.org/</dc:title>
     </cc:Agent>
    </dc:creator>
   </cc:Work>
  </rdf:RDF>
 </metadata>
 <defs>
  <style type="text/css">*{stroke-linejoin: round; stroke-linecap: butt}</style>
 </defs>
 <g id="figure_1">
  <g id="patch_1">
   <path d="M 0 277.31625 
L 330.281484 277.31625 
L 330.281484 0 
L 0 0 
z
" style="fill: #ffffff"/>
  </g>
  <g id="axes_1">
   <g id="patch_2">
    <path d="M 43.78125 239.76 
L 322.78125 239.76 
L 322.78125 37.296 
L 43.78125 37.296 
z
" style="fill: #ffffff"/>
   </g>
   <g id="matplotlib.axis_1">
    <g id="xtick_1">
     <g id="line2d_1">
      <path d="M 56.209178 239.76 
L 56.209178 37.296 
" clip-path="url(#p9bb7dedb66)" style="fill: none; stroke-dasharray: 2.96,1.28; stroke-dashoffset: 0; stroke: #b0b0b0; stroke-opacity: 0.4; stroke-width: 0.8"/>
     </g>
     <g id="line2d_2">
      <defs>
       <path id="m33ab749f9b" d="M 0 0 
L 0 3.5 
" style="stroke: #000000; stroke-width: 0.8"/>
      </defs>
      <g>
       <use xlink:href="#m33ab749f9b" x="56.209178" y="239.76" style="stroke: #000000; stroke-width: 0.8"/>
      </g>
     </g>
     <g id="text_1">
      <!-- 0 -->
      <g transform="translate(53.027928 254.358437) scale(0.1 -0.1)">
       <defs>
        <path id="DejaVuSans-30" d="M 2034 4250 
Q 1547 4250 1301 3770 
Q 1056 3291 1056 2328 
Q 1056 1369 1301 889 
Q 1547 409 2034 409 
Q 2525 409 2770 889 
Q 3016 1369 3016 2328 
Q 3016 3291 2770 3770 
Q 2525 4250 2034 4250 
z
M 2034 4750 
Q 2819 4750 3233 4129 
Q 3647 3509 3647 2328 
Q 3647 1150 3233 529 
Q 2819 -91 2034 -91 
Q 1250 -91 836 529 
Q 422 1150 422 2328 
Q 422 3509 836 4129 
Q 1250 4750 2034 4750 
z
" transform="scale(0.015625)"/>
       </defs>
       <use xlink:href="#DejaVuSans-30"/>
      </g>
     </g>
    </g>
    <g id="xtick_2">
     <g id="line2d_3">
      <path d="M 106.987229 239.76 
L 106.987229 37.296 
" clip-path="url(#p9bb7dedb66)" style="fill: none; stroke-dasharray: 2.96,1.28; stroke-dashoffset: 0; stroke: #b0b0b0; stroke-opacity: 0.4; stroke-width: 0.8"/>
     </g>
     <g id="line2d_4">
      <g>
       <use xlink:href="#m33ab749f9b" x="106.987229" y="239.76" style="stroke: #000000; stroke-width: 0.8"/>
      </g>
     </g>
     <g id="text_2">
      <!-- 200 -->
      <g transform="translate(97.443479 254.358437) scale(0.1 -0.1)">
       <defs>
        <path id="DejaVuSans-32" d="M 1228 531 
L 3431 531 
L 3431 0 
L 469 0 
L 469 531 
Q 828 903 1448 1529 
Q 2069 2156 2228 2338 
Q 2531 2678 2651 2914 
Q 2772 3150 2772 3378 
Q 2772 3750 2511 3984 
Q 2250 4219 1831 4219 
Q 1534 4219 1204 4116 
Q 875 4013 500 3803 
L 500 4441 
Q 881 4594 1212 4672 
Q 1544 4750 1819 4750 
Q 2544 4750 2975 4387 
Q 3406 4025 3406 3419 
Q 3406 3131 3298 2873 
Q 3191 2616 2906 2266 
Q 2828 2175 2409 1742 
Q 1991 1309 1228 531 
z
" transform="scale(0.015625)"/>
       </defs>
       <use xlink:href="#DejaVuSans-32"/>
       <use xlink:href="#DejaVuSans-30" x="63.623047"/>
       <use xlink:href="#DejaVuSans-30" x="127.246094"/>
      </g>
     </g>
    </g>
    <g id="xtick_3">
     <g id="line2d_5">
      <path d="M 157.765279 239.76 
L 157.765279 37.296 
" clip-path="url(#p9bb7dedb66)" style="fill: none; stroke-dasharray: 2.96,1.28; stroke-dashoffset: 0; stroke: #b0b0b0; stroke-opacity: 0.4; stroke-width: 0.8"/>
     </g>
     <g id="line2d_6">
      <g>
       <use xlink:href="#m33ab749f9b" x="157.765279" y="239.76" style="stroke: #000000; stroke-width: 0.8"/>
      </g>
     </g>
     <g id="text_3">
      <!-- 400 -->
      <g transform="translate(148.221529 254.358437) scale(0.1 -0.1)">
       <defs>
        <path id="DejaVuSans-34" d="M 2419 4116 
L 825 1625 
L 2419 1625 
L 2419 4116 
z
M 2253 4666 
L 3047 4666 
L 3047 1625 
L 3713 1625 
L 3713 1100 
L 3047 1100 
L 3047 0 
L 2419 0 
L 2419 1100 
L 313 1100 
L 313 1709 
L 2253 4666 
z
" transform="scale(0.015625)"/>
       </defs>
       <use xlink:href="#DejaVuSans-34"/>
       <use xlink:href="#DejaVuSans-30" x="63.623047"/>
       <use xlink:href="#DejaVuSans-30" x="127.246094"/>
      </g>
     </g>
    </g>
    <g id="xtick_4">
     <g id="line2d_7">
      <path d="M 208.54333 239.76 
L 208.54333 37.296 
" clip-path="url(#p9bb7dedb66)" style="fill: none; stroke-dasharray: 2.96,1.28; stroke-dashoffset: 0; stroke: #b0b0b0; stroke-opacity: 0.4; stroke-width: 0.8"/>
     </g>
     <g id="line2d_8">
      <g>
       <use xlink:href="#m33ab749f9b" x="208.54333" y="239.76" style="stroke: #000000; stroke-width: 0.8"/>
      </g>
     </g>
     <g id="text_4">
      <!-- 600 -->
      <g transform="translate(198.99958 254.358437) scale(0.1 -0.1)">
       <defs>
        <path id="DejaVuSans-36" d="M 2113 2584 
Q 1688 2584 1439 2293 
Q 1191 2003 1191 1497 
Q 1191 994 1439 701 
Q 1688 409 2113 409 
Q 2538 409 2786 701 
Q 3034 994 3034 1497 
Q 3034 2003 2786 2293 
Q 2538 2584 2113 2584 
z
M 3366 4563 
L 3366 3988 
Q 3128 4100 2886 4159 
Q 2644 4219 2406 4219 
Q 1781 4219 1451 3797 
Q 1122 3375 1075 2522 
Q 1259 2794 1537 2939 
Q 1816 3084 2150 3084 
Q 2853 3084 3261 2657 
Q 3669 2231 3669 1497 
Q 3669 778 3244 343 
Q 2819 -91 2113 -91 
Q 1303 -91 875 529 
Q 447 1150 447 2328 
Q 447 3434 972 4092 
Q 1497 4750 2381 4750 
Q 2619 4750 2861 4703 
Q 3103 4656 3366 4563 
z
" transform="scale(0.015625)"/>
       </defs>
       <use xlink:href="#DejaVuSans-36"/>
       <use xlink:href="#DejaVuSans-30" x="63.623047"/>
       <use xlink:href="#DejaVuSans-30" x="127.246094"/>
      </g>
     </g>
    </g>
    <g id="xtick_5">
     <g id="line2d_9">
      <path d="M 259.321381 239.76 
L 259.321381 37.296 
" clip-path="url(#p9bb7dedb66)" style="fill: none; stroke-dasharray: 2.96,1.28; stroke-dashoffset: 0; stroke: #b0b0b0; stroke-opacity: 0.4; stroke-width: 0.8"/>
     </g>
     <g id="line2d_10">
      <g>
       <use xlink:href="#m33ab749f9b" x="259.321381" y="239.76" style="stroke: #000000; stroke-width: 0.8"/>
      </g>
     </g>
     <g id="text_5">
      <!-- 800 -->
      <g transform="translate(249.777631 254.358437) scale(0.1 -0.1)">
       <defs>
        <path id="DejaVuSans-38" d="M 2034 2216 
Q 1584 2216 1326 1975 
Q 1069 1734 1069 1313 
Q 1069 891 1326 650 
Q 1584 409 2034 409 
Q 2484 409 2743 651 
Q 3003 894 3003 1313 
Q 3003 1734 2745 1975 
Q 2488 2216 2034 2216 
z
M 1403 2484 
Q 997 2584 770 2862 
Q 544 3141 544 3541 
Q 544 4100 942 4425 
Q 1341 4750 2034 4750 
Q 2731 4750 3128 4425 
Q 3525 4100 3525 3541 
Q 3525 3141 3298 2862 
Q 3072 2584 2669 2484 
Q 3125 2378 3379 2068 
Q 3634 1759 3634 1313 
Q 3634 634 3220 271 
Q 2806 -91 2034 -91 
Q 1263 -91 848 271 
Q 434 634 434 1313 
Q 434 1759 690 2068 
Q 947 2378 1403 2484 
z
M 1172 3481 
Q 1172 3119 1398 2916 
Q 1625 2713 2034 2713 
Q 2441 2713 2670 2916 
Q 2900 3119 2900 3481 
Q 2900 3844 2670 4047 
Q 2441 4250 2034 4250 
Q 1625 4250 1398 4047 
Q 1172 3844 1172 3481 
z
" transform="scale(0.015625)"/>
       </defs>
       <use xlink:href="#DejaVuSans-38"/>
       <use xlink:href="#DejaVuSans-30" x="63.623047"/>
       <use xlink:href="#DejaVuSans-30" x="127.246094"/>
      </g>
     </g>
    </g>
    <g id="xtick_6">
     <g id="line2d_11">
      <path d="M 310.099432 239.76 
L 310.099432 37.296 
" clip-path="url(#p9bb7dedb66)" style="fill: none; stroke-dasharray: 2.96,1.28; stroke-dashoffset: 0; stroke: #b0b0b0; stroke-opacity: 0.4; stroke-width: 0.8"/>
     </g>
     <g id="line2d_12">
      <g>
       <use xlink:href="#m33ab749f9b" x="310.099432" y="239.76" style="stroke: #000000; stroke-width: 0.8"/>
      </g>
     </g>
     <g id="text_6">
      <!-- 1000 -->
      <g transform="translate(297.374432 254.358437) scale(0.1 -0.1)">
       <defs>
        <path id="DejaVuSans-31" d="M 794 531 
L 1825 531 
L 1825 4091 
L 703 3866 
L 703 4441 
L 1819 4666 
L 2450 4666 
L 2450 531 
L 3481 531 
L 3481 0 
L 794 0 
L 794 531 
z
" transform="scale(0.015625)"/>
       </defs>
       <use xlink:href="#DejaVuSans-31"/>
       <use xlink:href="#DejaVuSans-30" x="63.623047"/>
       <use xlink:href="#DejaVuSans-30" x="127.246094"/>
       <use xlink:href="#DejaVuSans-30" x="190.869141"/>
      </g>
     </g>
    </g>
    <g id="text_7">
     <!-- Epochs -->
     <g transform="translate(165.365625 268.036562) scale(0.1 -0.1)">
      <defs>
       <path id="DejaVuSans-45" d="M 628 4666 
L 3578 4666 
L 3578 4134 
L 1259 4134 
L 1259 2753 
L 3481 2753 
L 3481 2222 
L 1259 2222 
L 1259 531 
L 3634 531 
L 3634 0 
L 628 0 
L 628 4666 
z
" transform="scale(0.015625)"/>
       <path id="DejaVuSans-70" d="M 1159 525 
L 1159 -1331 
L 581 -1331 
L 581 3500 
L 1159 3500 
L 1159 2969 
Q 1341 3281 1617 3432 
Q 1894 3584 2278 3584 
Q 2916 3584 3314 3078 
Q 3713 2572 3713 1747 
Q 3713 922 3314 415 
Q 2916 -91 2278 -91 
Q 1894 -91 1617 61 
Q 1341 213 1159 525 
z
M 3116 1747 
Q 3116 2381 2855 2742 
Q 2594 3103 2138 3103 
Q 1681 3103 1420 2742 
Q 1159 2381 1159 1747 
Q 1159 1113 1420 752 
Q 1681 391 2138 391 
Q 2594 391 2855 752 
Q 3116 1113 3116 1747 
z
" transform="scale(0.015625)"/>
       <path id="DejaVuSans-6f" d="M 1959 3097 
Q 1497 3097 1228 2736 
Q 959 2375 959 1747 
Q 959 1119 1226 758 
Q 1494 397 1959 397 
Q 2419 397 2687 759 
Q 2956 1122 2956 1747 
Q 2956 2369 2687 2733 
Q 2419 3097 1959 3097 
z
M 1959 3584 
Q 2709 3584 3137 3096 
Q 3566 2609 3566 1747 
Q 3566 888 3137 398 
Q 2709 -91 1959 -91 
Q 1206 -91 779 398 
Q 353 888 353 1747 
Q 353 2609 779 3096 
Q 1206 3584 1959 3584 
z
" transform="scale(0.015625)"/>
       <path id="DejaVuSans-63" d="M 3122 3366 
L 3122 2828 
Q 2878 2963 2633 3030 
Q 2388 3097 2138 3097 
Q 1578 3097 1268 2742 
Q 959 2388 959 1747 
Q 959 1106 1268 751 
Q 1578 397 2138 397 
Q 2388 397 2633 464 
Q 2878 531 3122 666 
L 3122 134 
Q 2881 22 2623 -34 
Q 2366 -91 2075 -91 
Q 1284 -91 818 406 
Q 353 903 353 1747 
Q 353 2603 823 3093 
Q 1294 3584 2113 3584 
Q 2378 3584 2631 3529 
Q 2884 3475 3122 3366 
z
" transform="scale(0.015625)"/>
       <path id="DejaVuSans-68" d="M 3513 2113 
L 3513 0 
L 2938 0 
L 2938 2094 
Q 2938 2591 2744 2837 
Q 2550 3084 2163 3084 
Q 1697 3084 1428 2787 
Q 1159 2491 1159 1978 
L 1159 0 
L 581 0 
L 581 4863 
L 1159 4863 
L 1159 2956 
Q 1366 3272 1645 3428 
Q 1925 3584 2291 3584 
Q 2894 3584 3203 3211 
Q 3513 2838 3513 2113 
z
" transform="scale(0.015625)"/>
       <path id="DejaVuSans-73" d="M 2834 3397 
L 2834 2853 
Q 2591 2978 2328 3040 
Q 2066 3103 1784 3103 
Q 1356 3103 1142 2972 
Q 928 2841 928 2578 
Q 928 2378 1081 2264 
Q 1234 2150 1697 2047 
L 1894 2003 
Q 2506 1872 2764 1633 
Q 3022 1394 3022 966 
Q 3022 478 2636 193 
Q 2250 -91 1575 -91 
Q 1294 -91 989 -36 
Q 684 19 347 128 
L 347 722 
Q 666 556 975 473 
Q 1284 391 1588 391 
Q 1994 391 2212 530 
Q 2431 669 2431 922 
Q 2431 1156 2273 1281 
Q 2116 1406 1581 1522 
L 1381 1569 
Q 847 1681 609 1914 
Q 372 2147 372 2553 
Q 372 3047 722 3315 
Q 1072 3584 1716 3584 
Q 2034 3584 2315 3537 
Q 2597 3491 2834 3397 
z
" transform="scale(0.015625)"/>
      </defs>
      <use xlink:href="#DejaVuSans-45"/>
      <use xlink:href="#DejaVuSans-70" x="63.183594"/>
      <use xlink:href="#DejaVuSans-6f" x="126.660156"/>
      <use xlink:href="#DejaVuSans-63" x="187.841797"/>
      <use xlink:href="#DejaVuSans-68" x="242.822266"/>
      <use xlink:href="#DejaVuSans-73" x="306.201172"/>
     </g>
    </g>
   </g>
   <g id="matplotlib.axis_2">
    <g id="ytick_1">
     <g id="line2d_13">
      <path d="M 43.78125 232.428297 
L 322.78125 232.428297 
" clip-path="url(#p9bb7dedb66)" style="fill: none; stroke-dasharray: 2.96,1.28; stroke-dashoffset: 0; stroke: #b0b0b0; stroke-opacity: 0.4; stroke-width: 0.8"/>
     </g>
     <g id="line2d_14">
      <defs>
       <path id="m18089190aa" d="M 0 0 
L -3.5 0 
" style="stroke: #000000; stroke-width: 0.8"/>
      </defs>
      <g>
       <use xlink:href="#m18089190aa" x="43.78125" y="232.428297" style="stroke: #000000; stroke-width: 0.8"/>
      </g>
     </g>
     <g id="text_8">
      <!-- 0.0 -->
      <g transform="translate(20.878125 236.227515) scale(0.1 -0.1)">
       <defs>
        <path id="DejaVuSans-2e" d="M 684 794 
L 1344 794 
L 1344 0 
L 684 0 
L 684 794 
z
" transform="scale(0.015625)"/>
       </defs>
       <use xlink:href="#DejaVuSans-30"/>
       <use xlink:href="#DejaVuSans-2e" x="63.623047"/>
       <use xlink:href="#DejaVuSans-30" x="95.410156"/>
      </g>
     </g>
    </g>
    <g id="ytick_2">
     <g id="line2d_15">
      <path d="M 43.78125 196.572763 
L 322.78125 196.572763 
" clip-path="url(#p9bb7dedb66)" style="fill: none; stroke-dasharray: 2.96,1.28; stroke-dashoffset: 0; stroke: #b0b0b0; stroke-opacity: 0.4; stroke-width: 0.8"/>
     </g>
     <g id="line2d_16">
      <g>
       <use xlink:href="#m18089190aa" x="43.78125" y="196.572763" style="stroke: #000000; stroke-width: 0.8"/>
      </g>
     </g>
     <g id="text_9">
      <!-- 0.5 -->
      <g transform="translate(20.878125 200.371982) scale(0.1 -0.1)">
       <defs>
        <path id="DejaVuSans-35" d="M 691 4666 
L 3169 4666 
L 3169 4134 
L 1269 4134 
L 1269 2991 
Q 1406 3038 1543 3061 
Q 1681 3084 1819 3084 
Q 2600 3084 3056 2656 
Q 3513 2228 3513 1497 
Q 3513 744 3044 326 
Q 2575 -91 1722 -91 
Q 1428 -91 1123 -41 
Q 819 9 494 109 
L 494 744 
Q 775 591 1075 516 
Q 1375 441 1709 441 
Q 2250 441 2565 725 
Q 2881 1009 2881 1497 
Q 2881 1984 2565 2268 
Q 2250 2553 1709 2553 
Q 1456 2553 1204 2497 
Q 953 2441 691 2322 
L 691 4666 
z
" transform="scale(0.015625)"/>
       </defs>
       <use xlink:href="#DejaVuSans-30"/>
       <use xlink:href="#DejaVuSans-2e" x="63.623047"/>
       <use xlink:href="#DejaVuSans-35" x="95.410156"/>
      </g>
     </g>
    </g>
    <g id="ytick_3">
     <g id="line2d_17">
      <path d="M 43.78125 160.71723 
L 322.78125 160.71723 
" clip-path="url(#p9bb7dedb66)" style="fill: none; stroke-dasharray: 2.96,1.28; stroke-dashoffset: 0; stroke: #b0b0b0; stroke-opacity: 0.4; stroke-width: 0.8"/>
     </g>
     <g id="line2d_18">
      <g>
       <use xlink:href="#m18089190aa" x="43.78125" y="160.71723" style="stroke: #000000; stroke-width: 0.8"/>
      </g>
     </g>
     <g id="text_10">
      <!-- 1.0 -->
      <g transform="translate(20.878125 164.516448) scale(0.1 -0.1)">
       <use xlink:href="#DejaVuSans-31"/>
       <use xlink:href="#DejaVuSans-2e" x="63.623047"/>
       <use xlink:href="#DejaVuSans-30" x="95.410156"/>
      </g>
     </g>
    </g>
    <g id="ytick_4">
     <g id="line2d_19">
      <path d="M 43.78125 124.861696 
L 322.78125 124.861696 
" clip-path="url(#p9bb7dedb66)" style="fill: none; stroke-dasharray: 2.96,1.28; stroke-dashoffset: 0; stroke: #b0b0b0; stroke-opacity: 0.4; stroke-width: 0.8"/>
     </g>
     <g id="line2d_20">
      <g>
       <use xlink:href="#m18089190aa" x="43.78125" y="124.861696" style="stroke: #000000; stroke-width: 0.8"/>
      </g>
     </g>
     <g id="text_11">
      <!-- 1.5 -->
      <g transform="translate(20.878125 128.660915) scale(0.1 -0.1)">
       <use xlink:href="#DejaVuSans-31"/>
       <use xlink:href="#DejaVuSans-2e" x="63.623047"/>
       <use xlink:href="#DejaVuSans-35" x="95.410156"/>
      </g>
     </g>
    </g>
    <g id="ytick_5">
     <g id="line2d_21">
      <path d="M 43.78125 89.006162 
L 322.78125 89.006162 
" clip-path="url(#p9bb7dedb66)" style="fill: none; stroke-dasharray: 2.96,1.28; stroke-dashoffset: 0; stroke: #b0b0b0; stroke-opacity: 0.4; stroke-width: 0.8"/>
     </g>
     <g id="line2d_22">
      <g>
       <use xlink:href="#m18089190aa" x="43.78125" y="89.006162" style="stroke: #000000; stroke-width: 0.8"/>
      </g>
     </g>
     <g id="text_12">
      <!-- 2.0 -->
      <g transform="translate(20.878125 92.805381) scale(0.1 -0.1)">
       <use xlink:href="#DejaVuSans-32"/>
       <use xlink:href="#DejaVuSans-2e" x="63.623047"/>
       <use xlink:href="#DejaVuSans-30" x="95.410156"/>
      </g>
     </g>
    </g>
    <g id="ytick_6">
     <g id="line2d_23">
      <path d="M 43.78125 53.150629 
L 322.78125 53.150629 
" clip-path="url(#p9bb7dedb66)" style="fill: none; stroke-dasharray: 2.96,1.28; stroke-dashoffset: 0; stroke: #b0b0b0; stroke-opacity: 0.4; stroke-width: 0.8"/>
     </g>
     <g id="line2d_24">
      <g>
       <use xlink:href="#m18089190aa" x="43.78125" y="53.150629" style="stroke: #000000; stroke-width: 0.8"/>
      </g>
     </g>
     <g id="text_13">
      <!-- 2.5 -->
      <g transform="translate(20.878125 56.949847) scale(0.1 -0.1)">
       <use xlink:href="#DejaVuSans-32"/>
       <use xlink:href="#DejaVuSans-2e" x="63.623047"/>
       <use xlink:href="#DejaVuSans-35" x="95.410156"/>
      </g>
     </g>
    </g>
    <g id="text_14">
     <!-- Loss -->
     <g transform="translate(14.798438 149.495187) rotate(-90) scale(0.1 -0.1)">
      <defs>
       <path id="DejaVuSans-4c" d="M 628 4666 
L 1259 4666 
L 1259 531 
L 3531 531 
L 3531 0 
L 628 0 
L 628 4666 
z
" transform="scale(0.015625)"/>
      </defs>
      <use xlink:href="#DejaVuSans-4c"/>
      <use xlink:href="#DejaVuSans-6f" x="53.962891"/>
      <use xlink:href="#DejaVuSans-73" x="115.144531"/>
      <use xlink:href="#DejaVuSans-73" x="167.244141"/>
     </g>
    </g>
   </g>
   <g id="line2d_25">
    <path d="M 56.463068 182.250845 
L 56.716958 190.863414 
L 56.970849 205.721919 
L 57.224739 211.173426 
L 57.732519 214.767634 
L 57.98641 216.081499 
L 58.2403 216.307882 
L 58.49419 217.425756 
L 58.74808 217.361995 
L 59.001971 218.236125 
L 59.255861 218.255501 
L 59.509751 219.196293 
L 59.763641 219.600683 
L 60.017532 219.655612 
L 60.271422 219.54685 
L 60.779202 220.820937 
L 61.033093 221.235021 
L 61.540873 220.966208 
L 61.794764 221.454248 
L 62.048654 221.305787 
L 62.302544 220.741179 
L 62.556434 221.542941 
L 62.810325 221.789975 
L 63.064215 221.132852 
L 63.318105 222.207437 
L 63.825886 222.156329 
L 64.079776 221.896504 
L 64.333666 222.656413 
L 64.587556 221.982994 
L 64.841447 222.07964 
L 65.095337 223.11843 
L 65.349227 221.969573 
L 65.603117 222.83811 
L 65.857008 223.306144 
L 66.110898 222.742511 
L 66.364788 223.16489 
L 66.618678 223.276953 
L 66.872569 223.765201 
L 67.126459 223.453421 
L 67.380349 223.724161 
L 67.634239 223.499905 
L 68.14202 224.284177 
L 68.39591 222.86655 
L 68.6498 224.139863 
L 68.903691 224.080886 
L 69.157581 224.28288 
L 69.411471 224.113849 
L 69.665361 223.613437 
L 69.919252 223.592183 
L 70.427032 225.047578 
L 70.934813 223.699772 
L 71.188703 224.944453 
L 71.442593 224.191535 
L 71.950374 224.787314 
L 72.204264 225.656239 
L 72.458154 225.202521 
L 72.712044 225.185047 
L 72.965935 225.514266 
L 73.219825 224.91844 
L 73.473715 225.956729 
L 73.727605 225.410971 
L 73.981496 224.434194 
L 74.235386 225.927013 
L 74.489276 225.300588 
L 74.743166 226.55785 
L 75.250947 226.878737 
L 75.504837 226.876341 
L 75.758727 226.609787 
L 76.012618 225.911769 
L 76.266508 226.3163 
L 76.520398 226.193488 
L 76.774288 226.456176 
L 77.028179 226.501103 
L 77.282069 226.703024 
L 77.535959 226.582224 
L 77.78985 227.028568 
L 78.04374 226.659483 
L 78.55152 226.652055 
L 78.805411 227.19834 
L 79.059301 227.074378 
L 79.313191 226.419276 
L 79.567081 227.132561 
L 79.820972 227.130972 
L 80.074862 227.410756 
L 80.328752 227.41558 
L 80.836533 227.020053 
L 81.090423 227.79667 
L 81.344313 227.28547 
L 81.598203 227.554705 
L 82.105984 226.474049 
L 82.359874 227.577596 
L 82.867655 227.001724 
L 83.121545 227.604117 
L 83.375435 227.701519 
L 83.629325 226.768501 
L 83.883216 227.390543 
L 84.137106 227.400989 
L 84.390996 227.128636 
L 84.644886 227.04415 
L 84.898777 227.148926 
L 85.152667 227.566718 
L 85.406557 226.842562 
L 85.660447 227.752368 
L 86.676008 227.268454 
L 86.929899 228.1352 
L 87.183789 227.821715 
L 87.437679 227.819642 
L 87.94546 228.45423 
L 88.19935 228.344042 
L 88.45324 228.534948 
L 88.70713 228.285699 
L 89.468801 228.469947 
L 89.976582 227.615048 
L 90.230472 227.749975 
L 90.484362 228.559575 
L 90.738252 228.055579 
L 90.992143 228.613863 
L 91.246033 228.427714 
L 91.499923 228.866024 
L 91.753813 228.297192 
L 92.007704 228.186349 
L 93.023265 228.341531 
L 93.277155 228.147598 
L 93.531045 228.839712 
L 94.292716 228.412372 
L 95.054387 229.008355 
L 95.308277 228.158639 
L 95.562167 228.533751 
L 95.816058 229.394057 
L 96.323838 228.298594 
L 96.577728 228.466626 
L 96.831619 228.212423 
L 97.085509 228.985749 
L 97.593289 229.030162 
L 97.84718 228.347382 
L 98.10107 228.186276 
L 98.862741 229.073515 
L 99.370521 228.985218 
L 99.624411 228.575597 
L 100.132192 229.727345 
L 100.893863 228.970344 
L 101.147753 229.241648 
L 101.401643 229.149882 
L 101.655533 229.177626 
L 101.909424 228.928346 
L 102.163314 229.368906 
L 102.417204 229.340227 
L 102.671094 229.012744 
L 103.686655 229.148487 
L 103.940546 229.056767 
L 104.194436 229.490494 
L 104.448326 228.686368 
L 104.702216 229.259669 
L 104.956107 229.445576 
L 105.209997 229.237825 
L 105.463887 229.528501 
L 105.717777 229.429683 
L 105.971668 228.889282 
L 106.225558 229.537777 
L 106.479448 229.659096 
L 106.733338 228.975835 
L 106.987229 229.094032 
L 107.241119 229.424437 
L 107.748899 229.094807 
L 108.00279 229.165808 
L 108.25668 229.072597 
L 108.51057 228.73627 
L 108.76446 229.217443 
L 109.018351 229.260638 
L 109.272241 228.696788 
L 109.526131 229.43498 
L 109.780021 229.476925 
L 110.033912 229.059573 
L 110.541692 229.348514 
L 110.795583 229.485743 
L 111.049473 229.292193 
L 111.557253 229.65254 
L 112.065034 229.157579 
L 112.318924 229.445559 
L 112.826705 229.138725 
L 113.080595 229.661716 
L 113.334485 229.8328 
L 113.588375 229.391496 
L 113.842266 229.665297 
L 114.096156 229.052006 
L 114.350046 229.603227 
L 114.603936 229.290789 
L 114.857827 229.94715 
L 115.111717 229.564325 
L 115.619497 229.523722 
L 115.873388 228.954369 
L 116.127278 229.042639 
L 116.381168 229.553971 
L 116.635058 229.349974 
L 117.142839 229.782291 
L 117.396729 229.468884 
L 118.1584 229.486331 
L 118.41229 230.025201 
L 118.66618 229.423623 
L 118.920071 229.787088 
L 119.173961 229.405415 
L 119.427851 230.015566 
L 119.681741 229.858075 
L 119.935632 229.967801 
L 120.443412 229.287152 
L 120.697302 229.78195 
L 121.205083 229.553511 
L 121.458973 229.87612 
L 121.712863 229.509136 
L 121.966754 229.747306 
L 122.220644 229.425188 
L 122.474534 229.627288 
L 122.728424 229.471821 
L 122.982315 229.710006 
L 123.236205 230.199886 
L 123.490095 229.600392 
L 124.251766 229.935402 
L 124.505656 229.846155 
L 124.759546 229.318224 
L 125.267327 229.725918 
L 125.521217 229.982963 
L 125.775107 229.653975 
L 126.028998 229.716157 
L 126.282888 229.055517 
L 126.536778 230.057474 
L 126.790669 229.676615 
L 127.044559 229.794658 
L 127.298449 229.339284 
L 127.552339 229.988928 
L 128.06012 229.653993 
L 128.31401 229.842681 
L 128.5679 229.63427 
L 128.821791 230.03201 
L 129.075681 229.810034 
L 129.329571 230.09764 
L 129.583461 229.766543 
L 129.837352 230.067076 
L 130.091242 229.55324 
L 130.345132 229.840034 
L 130.599022 229.748844 
L 130.852913 230.007331 
L 131.106803 229.856208 
L 131.360693 230.069232 
L 132.122364 229.469639 
L 132.376254 230.313811 
L 132.630144 229.332864 
L 132.884035 229.566197 
L 133.137925 229.354404 
L 133.391815 229.794784 
L 133.645705 229.80135 
L 133.899596 230.115899 
L 134.153486 230.225254 
L 134.661266 229.164171 
L 134.915157 229.914649 
L 135.676827 229.659484 
L 135.930718 229.979723 
L 136.438498 229.823503 
L 136.946279 229.885872 
L 137.200169 229.568204 
L 137.454059 229.53733 
L 137.707949 229.862647 
L 137.96184 229.816328 
L 138.21573 230.051038 
L 138.72351 229.88524 
L 139.231291 230.003602 
L 139.485181 229.939871 
L 139.739071 230.01094 
L 139.992962 229.730252 
L 140.246852 229.703636 
L 140.754632 230.204063 
L 141.008523 229.608655 
L 141.516303 229.974675 
L 141.770193 229.751406 
L 142.785755 229.910853 
L 143.293535 229.286762 
L 143.547425 229.966306 
L 143.801316 229.993899 
L 144.562986 229.729913 
L 144.816877 230.061595 
L 145.070767 229.613939 
L 145.324657 230.007688 
L 146.086328 229.903917 
L 146.340218 229.977963 
L 146.594108 229.872955 
L 146.847999 229.331746 
L 147.101889 229.29307 
L 147.609669 229.831027 
L 148.11745 229.999503 
L 148.37134 229.790338 
L 148.62523 229.905863 
L 149.640791 229.859667 
L 149.894682 229.897559 
L 150.148572 230.167526 
L 150.402462 229.655869 
L 150.656352 230.033395 
L 151.164133 230.215615 
L 151.671913 229.807637 
L 152.179694 230.185207 
L 152.433584 230.086664 
L 152.687474 229.833498 
L 152.941365 230.205978 
L 153.195255 229.328104 
L 153.449145 229.68254 
L 153.956926 229.917965 
L 154.210816 229.484366 
L 154.464706 229.824211 
L 154.972487 229.682619 
L 155.226377 230.277787 
L 155.480267 229.826326 
L 155.734157 229.697361 
L 155.988048 229.898396 
L 156.495828 229.401351 
L 156.749718 229.762146 
L 157.511389 229.86937 
L 157.765279 229.67009 
L 158.01917 230.087669 
L 158.27306 229.553061 
L 158.52695 229.49054 
L 158.78084 229.755374 
L 159.034731 229.190808 
L 159.542511 230.107875 
L 159.796402 229.806789 
L 160.050292 229.684401 
L 160.304182 229.904154 
L 160.558072 229.601736 
L 160.811963 229.66002 
L 161.065853 229.372232 
L 161.573633 230.138943 
L 162.843085 229.699624 
L 163.096975 229.471458 
L 163.350865 230.014203 
L 163.604755 230.226468 
L 163.858646 229.287846 
L 164.112536 229.808846 
L 164.366426 229.503491 
L 164.620316 229.653083 
L 164.874207 230.099917 
L 165.128097 229.823762 
L 165.381987 229.883906 
L 165.635877 229.236588 
L 165.889768 230.174452 
L 166.143658 229.735119 
L 166.397548 229.83937 
L 166.905329 229.538075 
L 167.159219 229.872296 
L 167.413109 229.669734 
L 168.17478 230.015289 
L 168.68256 229.848231 
L 169.190341 229.999602 
L 169.444231 229.678516 
L 169.952012 229.603774 
L 170.205902 230.052265 
L 170.459792 229.911148 
L 170.713682 229.445306 
L 170.967573 229.833053 
L 171.221463 229.769453 
L 171.475353 229.974504 
L 171.729243 229.213422 
L 171.983134 230.017428 
L 172.237024 229.236168 
L 172.490914 229.697374 
L 172.744804 229.663123 
L 172.998695 230.163367 
L 173.252585 229.426005 
L 173.506475 229.994174 
L 174.014256 229.562974 
L 174.268146 230.021287 
L 174.775926 229.73886 
L 175.029817 229.403262 
L 175.283707 229.716529 
L 175.537597 229.842143 
L 175.791488 229.480806 
L 176.299268 230.090283 
L 176.553158 229.781225 
L 177.060939 230.249995 
L 177.314829 229.754593 
L 177.568719 230.036997 
L 177.82261 229.959743 
L 178.0765 229.731337 
L 178.33039 229.692523 
L 178.58428 229.823125 
L 178.838171 229.770582 
L 179.092061 230.01701 
L 179.345951 229.848073 
L 179.599841 230.083157 
L 179.853732 229.717824 
L 180.107622 230.019978 
L 180.361512 229.972804 
L 180.615402 230.320885 
L 180.869293 229.847758 
L 181.123183 230.153641 
L 181.377073 229.635641 
L 181.884854 229.860145 
L 182.138744 229.623615 
L 182.392634 230.061992 
L 182.646524 230.132323 
L 182.900415 229.632449 
L 183.154305 229.743839 
L 183.408195 229.666153 
L 183.662085 229.998366 
L 183.915976 229.411997 
L 184.169866 229.937329 
L 184.931537 229.601867 
L 185.185427 229.901296 
L 185.693207 229.940712 
L 185.947098 229.69291 
L 186.200988 229.95688 
L 186.454878 229.80259 
L 186.708768 230.295686 
L 186.962659 229.701076 
L 187.216549 229.628398 
L 187.724329 229.954635 
L 187.97822 229.655584 
L 188.486 230.051713 
L 188.73989 229.948898 
L 188.993781 230.246783 
L 189.247671 230.36945 
L 189.501561 229.584928 
L 189.755451 230.272781 
L 190.009342 229.810481 
L 190.263232 230.093278 
L 190.517122 230.179389 
L 190.771012 230.096881 
L 191.024903 229.749266 
L 191.278793 229.920661 
L 191.532683 229.748124 
L 192.294354 230.038896 
L 192.548244 229.923169 
L 192.802135 230.077273 
L 193.056025 229.9015 
L 193.563805 229.816569 
L 193.817696 230.039053 
L 194.325476 229.534849 
L 194.833257 230.255006 
L 195.594927 229.567015 
L 195.848818 229.670295 
L 196.102708 230.083076 
L 196.356598 230.014216 
L 196.864379 229.614842 
L 197.118269 229.721115 
L 197.372159 229.56983 
L 197.626049 230.072696 
L 197.87994 230.155801 
L 198.38772 229.663933 
L 198.895501 229.736882 
L 199.403281 230.085553 
L 199.657171 230.018325 
L 200.164952 230.310171 
L 200.672732 229.641878 
L 200.926623 229.90706 
L 201.434403 230.11192 
L 201.688293 229.830706 
L 202.449964 229.984166 
L 202.703854 229.759002 
L 202.957745 230.04374 
L 203.211635 229.827469 
L 203.465525 229.772398 
L 203.719415 230.078599 
L 203.973306 229.855355 
L 204.227196 230.234792 
L 204.481086 229.854275 
L 204.734976 229.974021 
L 204.988867 229.888717 
L 205.242757 230.192813 
L 205.496647 229.836158 
L 205.750537 230.053635 
L 206.004428 229.843086 
L 206.258318 230.293479 
L 206.512208 229.621735 
L 206.766098 229.752303 
L 207.273879 230.330631 
L 207.527769 230.223271 
L 207.78166 229.929713 
L 208.03555 229.949598 
L 208.28944 229.601687 
L 208.54333 230.025352 
L 209.305001 229.795783 
L 209.558891 229.982588 
L 209.812782 229.952239 
L 210.066672 230.076704 
L 210.320562 229.835373 
L 210.574452 229.960027 
L 210.828343 230.208533 
L 211.590013 229.607798 
L 211.843904 229.894815 
L 212.097794 229.976311 
L 212.351684 229.697116 
L 212.605574 230.056459 
L 212.859465 229.718978 
L 213.113355 229.961811 
L 213.367245 229.742215 
L 213.621135 229.718577 
L 213.875026 229.807491 
L 214.128916 230.134249 
L 214.382806 229.822888 
L 214.636696 229.707638 
L 214.890587 229.781228 
L 215.144477 229.629783 
L 215.398367 230.095381 
L 215.652257 230.240123 
L 216.160038 229.473555 
L 216.413928 229.999746 
L 216.667818 230.013568 
L 217.175599 229.602795 
L 217.683379 229.74474 
L 217.93727 230.148406 
L 218.19116 229.726748 
L 218.952831 229.724966 
L 219.206721 229.95222 
L 219.460611 229.89473 
L 219.714501 229.300527 
L 219.968392 230.006351 
L 220.476172 229.617241 
L 220.983953 230.225532 
L 221.237843 230.046824 
L 221.491733 230.032792 
L 221.745623 229.587083 
L 221.999514 229.880865 
L 222.253404 229.715855 
L 222.761184 230.08194 
L 223.015075 229.997939 
L 223.522855 230.13846 
L 223.776745 230.120761 
L 224.030636 229.660303 
L 224.284526 230.217821 
L 224.538416 229.606407 
L 224.792307 229.806401 
L 225.046197 229.740027 
L 225.300087 229.812272 
L 225.553977 230.320308 
L 225.807868 229.90125 
L 226.061758 229.843525 
L 226.315648 230.345592 
L 226.823429 229.84582 
L 227.331209 230.16818 
L 227.585099 229.773184 
L 227.83899 229.889278 
L 228.09288 229.641126 
L 228.34677 229.916879 
L 228.60066 229.272912 
L 229.108441 229.953232 
L 229.362331 230.084714 
L 229.616221 229.8253 
L 230.124002 230.07117 
L 230.377892 229.91917 
L 230.631782 229.915823 
L 230.885673 229.68384 
L 231.139563 229.886061 
L 231.393453 229.940549 
L 231.647343 229.485928 
L 231.901234 230.014972 
L 232.155124 229.273583 
L 232.409014 229.976807 
L 232.662904 229.52039 
L 232.916795 230.238469 
L 233.170685 230.192741 
L 233.424575 229.62751 
L 233.678465 230.278614 
L 233.932356 230.271473 
L 234.186246 229.69284 
L 234.440136 229.674025 
L 234.694026 229.502387 
L 234.947917 230.252398 
L 235.201807 229.854432 
L 235.709587 230.280561 
L 235.963478 229.854458 
L 236.217368 229.944942 
L 236.471258 229.667365 
L 236.979039 230.06209 
L 237.232929 230.091443 
L 237.486819 229.546341 
L 237.740709 229.503928 
L 237.9946 230.149701 
L 238.50238 229.962888 
L 239.264051 229.943058 
L 239.517941 230.115709 
L 239.771831 229.909545 
L 240.025722 229.535951 
L 240.279612 229.978141 
L 240.533502 230.083702 
L 240.787393 229.771407 
L 241.041283 229.784559 
L 241.295173 229.582032 
L 241.549063 229.653034 
L 241.802954 229.942847 
L 242.056844 229.777424 
L 242.310734 230.028386 
L 242.564624 230.057019 
L 242.818515 229.87533 
L 243.072405 229.837662 
L 243.326295 229.918335 
L 243.580185 229.655355 
L 243.834076 230.184433 
L 244.087966 230.313748 
L 244.341856 229.956218 
L 244.595746 230.194758 
L 244.849637 229.741895 
L 245.103527 230.261232 
L 245.611307 229.399876 
L 245.865198 230.070786 
L 246.372978 230.18707 
L 246.626868 230.056803 
L 246.880759 229.766989 
L 247.134649 229.83308 
L 247.388539 229.197062 
L 247.642429 229.873493 
L 247.89632 230.171492 
L 248.15021 230.159889 
L 248.4041 229.66239 
L 248.911881 229.648326 
L 249.165771 230.1795 
L 249.419661 229.832339 
L 249.927442 230.090865 
L 250.181332 229.910963 
L 250.435222 229.427094 
L 250.689112 229.983379 
L 250.943003 229.693218 
L 251.196893 229.930521 
L 251.450783 229.881395 
L 251.704673 229.637307 
L 251.958564 229.602955 
L 252.212454 230.301344 
L 252.466344 229.749136 
L 252.720234 229.731609 
L 252.974125 230.170829 
L 253.228015 229.506353 
L 253.481905 229.604408 
L 253.735795 230.269707 
L 253.989686 229.836554 
L 254.243576 229.962941 
L 254.497466 229.860951 
L 254.751356 230.023429 
L 255.005247 229.838018 
L 255.259137 230.075277 
L 255.513027 229.79159 
L 255.766917 230.245174 
L 256.020808 229.703007 
L 256.274698 229.82855 
L 256.528588 229.771653 
L 256.782479 230.247439 
L 257.290259 229.96088 
L 257.544149 230.018858 
L 258.05193 229.813795 
L 258.30582 230.212769 
L 258.813601 229.760176 
L 259.067491 229.919997 
L 259.321381 229.677718 
L 259.575271 229.830491 
L 259.829162 229.767105 
L 260.336942 230.074165 
L 260.590832 229.946626 
L 260.844723 230.010553 
L 261.098613 229.545822 
L 261.352503 229.934291 
L 261.606393 229.70483 
L 261.860284 229.84116 
L 262.114174 229.690919 
L 262.368064 230.311951 
L 262.621954 229.914123 
L 262.875845 230.111521 
L 263.129735 229.828327 
L 263.383625 229.93958 
L 263.637515 229.671166 
L 263.891406 230.131961 
L 264.399186 229.953817 
L 264.653076 230.04957 
L 264.906967 229.792998 
L 265.160857 230.136988 
L 265.414747 230.209465 
L 265.668637 229.815804 
L 266.176418 229.713055 
L 266.430308 229.732125 
L 266.684198 229.878764 
L 266.938089 229.70343 
L 267.445869 230.283379 
L 267.699759 229.807876 
L 267.95365 229.623453 
L 268.20754 229.876263 
L 268.71532 229.885544 
L 268.969211 229.657369 
L 269.223101 229.950719 
L 269.476991 230.038119 
L 269.730881 229.6675 
L 269.984772 230.093563 
L 270.238662 230.000024 
L 270.746442 230.205819 
L 271.000333 229.772596 
L 271.254223 229.777024 
L 271.508113 230.235262 
L 272.777564 230.051188 
L 273.031455 229.716394 
L 273.539235 229.906677 
L 273.793126 229.641883 
L 274.047016 229.828766 
L 274.300906 229.603922 
L 274.554796 230.078658 
L 275.062577 229.880859 
L 275.316467 229.89127 
L 275.824248 229.661986 
L 276.078138 230.266708 
L 276.585918 229.505073 
L 276.839809 230.00282 
L 277.093699 229.589088 
L 277.347589 230.018122 
L 277.85537 229.785925 
L 278.36315 230.065524 
L 279.632601 229.787371 
L 279.886492 229.896913 
L 280.140382 229.473499 
L 280.394272 229.822556 
L 280.648162 229.830698 
L 280.902053 229.372318 
L 281.155943 229.861999 
L 282.171504 230.089966 
L 282.425394 229.90155 
L 282.679284 230.037531 
L 282.933175 229.646966 
L 283.187065 230.269759 
L 283.440955 229.910858 
L 283.694845 229.981171 
L 283.948736 229.774316 
L 284.202626 230.10534 
L 284.456516 230.011907 
L 284.710406 229.766743 
L 284.964297 229.720286 
L 285.472077 230.105003 
L 285.725967 229.943225 
L 285.979858 230.081493 
L 286.487638 229.851211 
L 286.741528 230.019694 
L 286.995419 229.730066 
L 287.249309 230.410021 
L 287.503199 230.027943 
L 287.757089 230.201626 
L 288.01098 229.84019 
L 288.26487 230.107474 
L 288.51876 230.161022 
L 288.77265 229.747248 
L 289.026541 229.862771 
L 289.280431 229.762256 
L 289.534321 230.019609 
L 289.788212 229.293426 
L 290.042102 230.157373 
L 290.803773 229.866545 
L 291.057663 230.373094 
L 291.311553 229.889609 
L 291.565443 229.965469 
L 291.819334 229.567142 
L 292.073224 229.799746 
L 292.327114 229.465612 
L 292.581004 229.979002 
L 293.088785 229.833513 
L 293.342675 230.104594 
L 293.850456 229.827436 
L 294.358236 229.849853 
L 294.612126 229.632024 
L 295.119907 229.97498 
L 295.373797 229.809253 
L 295.627687 230.557091 
L 295.881578 229.91929 
L 296.643248 230.016853 
L 296.897139 229.774407 
L 297.151029 229.893703 
L 297.404919 229.717046 
L 298.16659 230.08311 
L 298.42048 230.001314 
L 298.67437 229.741311 
L 298.928261 229.671029 
L 299.182151 230.143791 
L 299.436041 230.018108 
L 299.689931 229.604113 
L 299.943822 229.637588 
L 300.451602 230.130714 
L 300.705492 230.052059 
L 300.959383 229.802773 
L 301.213273 229.888892 
L 301.721053 229.4776 
L 302.228834 230.086241 
L 302.482724 229.400888 
L 302.736614 230.144288 
L 302.990505 229.638897 
L 303.244395 229.731314 
L 303.498285 230.011528 
L 303.752175 230.121895 
L 304.006066 229.843792 
L 304.513846 230.032277 
L 304.767736 230.147506 
L 305.021627 229.787974 
L 305.275517 230.142505 
L 305.783298 229.695982 
L 306.037188 229.898115 
L 306.291078 229.866989 
L 306.544968 230.222042 
L 306.798859 229.404572 
L 307.052749 229.522322 
L 307.306639 230.1749 
L 307.560529 229.923256 
L 307.81442 229.977056 
L 308.06831 229.840723 
L 308.57609 229.933844 
L 308.829981 230.046918 
L 309.591651 229.857163 
L 310.099432 230.005539 
L 310.099432 230.005539 
" clip-path="url(#p9bb7dedb66)" style="fill: none; stroke: #0000ff; stroke-width: 0.6; stroke-linecap: square"/>
   </g>
   <g id="line2d_26">
    <path d="M 56.463068 174.584861 
L 56.716958 178.221643 
L 56.970849 191.496021 
L 57.224739 195.225346 
L 57.478629 186.815529 
L 57.732519 209.537484 
L 57.98641 184.583773 
L 58.2403 213.039551 
L 58.74808 200.386899 
L 59.001971 213.750852 
L 59.255861 177.322216 
L 59.509751 179.489784 
L 60.017532 216.72968 
L 60.271422 214.768183 
L 60.525312 176.790389 
L 60.779202 216.216803 
L 61.033093 213.25576 
L 61.286983 217.86342 
L 61.794764 212.384108 
L 62.048654 215.415218 
L 62.302544 216.165644 
L 62.556434 215.867333 
L 62.810325 97.014164 
L 63.318105 208.755884 
L 63.571995 208.286827 
L 63.825886 46.498909 
L 64.079776 214.292495 
L 64.333666 204.101698 
L 64.587556 91.427313 
L 64.841447 210.61574 
L 65.095337 215.814045 
L 65.349227 164.990123 
L 65.603117 216.293599 
L 65.857008 211.197969 
L 66.110898 215.240562 
L 66.618678 207.940676 
L 67.126459 215.487706 
L 67.380349 149.591664 
L 67.634239 130.951455 
L 67.88813 215.008044 
L 68.14202 127.216389 
L 68.39591 217.277067 
L 68.6498 182.006812 
L 68.903691 216.025223 
L 69.157581 217.571164 
L 69.411471 194.988652 
L 69.665361 135.275802 
L 69.919252 186.584866 
L 70.173142 214.187637 
L 70.427032 213.70215 
L 70.680922 212.194357 
L 70.934813 216.236814 
L 71.188703 214.861462 
L 71.442593 217.793469 
L 71.696483 188.136766 
L 71.950374 191.747231 
L 72.204264 216.533486 
L 72.458154 215.671055 
L 72.712044 216.181457 
L 72.965935 216.119466 
L 73.219825 214.48682 
L 73.473715 59.901051 
L 73.981496 203.454975 
L 74.235386 216.266363 
L 74.743166 211.541616 
L 74.997057 216.491393 
L 75.250947 215.388008 
L 75.504837 209.484021 
L 75.758727 216.480302 
L 76.012618 214.930149 
L 76.266508 214.967054 
L 76.520398 197.312982 
L 76.774288 215.891147 
L 77.028179 212.411729 
L 77.282069 215.278797 
L 77.535959 215.894533 
L 77.78985 212.143159 
L 78.04374 216.266344 
L 78.29763 213.850928 
L 78.55152 216.46418 
L 78.805411 205.18851 
L 79.059301 213.22606 
L 79.313191 215.297945 
L 79.567081 208.057655 
L 79.820972 215.19738 
L 80.074862 207.893992 
L 80.328752 215.536734 
L 80.582642 215.130753 
L 80.836533 207.023729 
L 81.090423 215.518855 
L 81.598203 195.792551 
L 81.852094 214.797578 
L 82.105984 212.697759 
L 82.359874 214.299327 
L 82.613764 214.510034 
L 82.867655 213.661831 
L 83.121545 213.381942 
L 83.375435 213.442881 
L 83.629325 213.00644 
L 84.137106 214.368308 
L 84.390996 213.355925 
L 84.644886 214.904795 
L 84.898777 201.081678 
L 85.152667 210.678482 
L 85.406557 202.36816 
L 85.914338 215.103812 
L 86.168228 207.496175 
L 86.422118 214.180174 
L 86.676008 214.910523 
L 87.691569 215.247686 
L 87.94546 211.515544 
L 88.19935 213.311335 
L 88.70713 214.713799 
L 88.961021 205.324854 
L 89.214911 214.438426 
L 89.468801 208.860846 
L 89.722691 196.663829 
L 89.976582 211.716563 
L 90.230472 212.807481 
L 90.484362 213.204755 
L 90.738252 214.333238 
L 90.992143 208.39262 
L 91.246033 209.6866 
L 91.499923 194.437278 
L 91.753813 209.405885 
L 92.007704 211.624388 
L 92.261594 211.885745 
L 92.515484 214.239656 
L 92.769374 213.65515 
L 93.023265 204.911283 
L 93.277155 213.448369 
L 93.531045 212.646808 
L 93.784936 210.930705 
L 94.038826 214.092855 
L 94.292716 213.254741 
L 94.546606 213.165299 
L 94.800497 209.881368 
L 95.054387 210.253556 
L 95.308277 213.286213 
L 95.562167 203.505318 
L 95.816058 213.25588 
L 96.069948 212.708264 
L 96.323838 213.236032 
L 96.577728 200.526545 
L 96.831619 207.306979 
L 97.085509 208.835907 
L 97.339399 212.537415 
L 97.593289 213.887709 
L 97.84718 202.920425 
L 98.10107 212.346531 
L 98.35496 212.413516 
L 98.60885 213.990089 
L 98.862741 210.760923 
L 99.116631 213.875651 
L 99.370521 211.333638 
L 99.624411 213.259977 
L 99.878302 212.839902 
L 100.132192 207.55048 
L 100.386082 213.549472 
L 100.639972 213.598101 
L 100.893863 211.315162 
L 101.147753 213.123831 
L 101.401643 213.593589 
L 101.655533 211.492666 
L 101.909424 213.316725 
L 102.417204 212.915596 
L 102.671094 213.98446 
L 102.924985 211.333241 
L 103.178875 210.272096 
L 103.432765 210.422853 
L 103.686655 213.993618 
L 103.940546 213.124362 
L 104.194436 212.948495 
L 104.448326 213.608231 
L 104.702216 200.865186 
L 104.956107 213.408152 
L 105.209997 213.137473 
L 105.717777 213.74933 
L 105.971668 213.385227 
L 106.225558 213.738969 
L 106.479448 213.367014 
L 106.733338 203.698192 
L 107.241119 213.01361 
L 107.495009 213.66266 
L 107.748899 210.860098 
L 108.00279 211.373695 
L 108.25668 210.841421 
L 108.51057 211.465097 
L 108.76446 213.323162 
L 109.018351 213.562891 
L 109.272241 213.329144 
L 109.526131 211.996402 
L 109.780021 208.564822 
L 110.033912 213.289936 
L 110.287802 213.325506 
L 110.541692 213.088915 
L 111.049473 213.267044 
L 111.303363 212.912005 
L 111.557253 211.316084 
L 111.811144 213.20106 
L 112.065034 213.792018 
L 112.318924 213.121156 
L 112.572814 209.845934 
L 112.826705 213.41223 
L 113.080595 213.225071 
L 113.334485 213.617395 
L 113.588375 210.535754 
L 113.842266 213.079082 
L 114.603936 213.218839 
L 114.857827 212.104094 
L 115.111717 213.878872 
L 115.365607 211.130331 
L 115.619497 212.955434 
L 115.873388 213.158669 
L 116.127278 212.925773 
L 116.381168 212.470689 
L 116.635058 213.031312 
L 116.888949 213.028328 
L 117.142839 212.612292 
L 117.396729 210.295064 
L 117.650619 213.158071 
L 117.90451 211.88361 
L 118.1584 212.781215 
L 118.41229 213.218832 
L 118.920071 213.295531 
L 119.173961 207.939787 
L 119.427851 213.355021 
L 119.681741 212.55248 
L 119.935632 212.639552 
L 120.189522 213.312416 
L 120.443412 212.004603 
L 120.697302 212.707336 
L 120.951193 212.578408 
L 121.205083 211.998422 
L 121.458973 212.486559 
L 121.712863 212.718265 
L 121.966754 213.2656 
L 122.220644 212.820041 
L 122.474534 213.472989 
L 122.728424 212.241957 
L 122.982315 213.376986 
L 123.236205 211.754564 
L 123.490095 212.870134 
L 123.743985 213.03081 
L 123.997876 212.771267 
L 124.251766 213.357619 
L 124.505656 213.252657 
L 124.759546 213.470408 
L 125.013437 212.560667 
L 125.267327 212.906587 
L 125.521217 212.475132 
L 125.775107 212.904354 
L 126.028998 212.338159 
L 126.282888 213.3978 
L 126.536778 212.218483 
L 127.044559 212.451916 
L 127.298449 212.075488 
L 127.552339 212.909344 
L 127.80623 212.898721 
L 128.06012 213.116871 
L 128.31401 212.895038 
L 128.5679 211.878547 
L 129.075681 211.896963 
L 129.329571 213.306826 
L 129.837352 212.873167 
L 130.599022 213.216161 
L 130.852913 212.266855 
L 131.360693 213.268395 
L 131.614583 212.98279 
L 131.868474 212.486534 
L 132.122364 213.124569 
L 132.376254 211.66369 
L 132.630144 212.729233 
L 132.884035 212.770207 
L 133.137925 212.540138 
L 133.391815 213.185132 
L 133.645705 212.863135 
L 133.899596 213.143132 
L 134.153486 211.865333 
L 134.407376 213.150413 
L 134.661266 212.723707 
L 134.915157 213.211485 
L 135.169047 213.299461 
L 135.422937 212.815 
L 135.930718 212.760271 
L 136.184608 212.29173 
L 136.438498 213.013672 
L 136.692388 212.683188 
L 136.946279 211.968384 
L 137.200169 212.656536 
L 137.454059 212.38644 
L 137.707949 212.590414 
L 137.96184 211.615888 
L 138.21573 212.428403 
L 138.46962 212.158474 
L 138.977401 212.845159 
L 139.231291 212.497294 
L 139.485181 212.848044 
L 139.992962 212.721693 
L 140.246852 212.367669 
L 140.500742 212.3813 
L 140.754632 212.602282 
L 141.262413 212.652533 
L 142.024084 212.807596 
L 142.277974 211.905518 
L 142.531864 212.904012 
L 143.039645 213.058977 
L 143.547425 212.120838 
L 143.801316 212.693842 
L 144.055206 212.886866 
L 144.309096 212.907598 
L 144.562986 212.808545 
L 144.816877 212.865099 
L 145.070767 212.712008 
L 145.324657 212.709997 
L 145.832438 211.872691 
L 146.086328 212.593154 
L 146.340218 211.240234 
L 146.594108 212.424996 
L 146.847999 212.261474 
L 147.101889 210.416213 
L 147.355779 212.770701 
L 147.609669 212.652811 
L 147.86356 212.839517 
L 148.11745 212.105534 
L 148.37134 212.981334 
L 148.879121 212.137136 
L 149.133011 212.639725 
L 149.386901 212.51861 
L 149.640791 212.79846 
L 149.894682 212.715957 
L 150.148572 213.063859 
L 150.402462 212.836418 
L 150.656352 212.183124 
L 151.164133 212.480669 
L 151.418023 212.747087 
L 151.925804 211.851067 
L 152.179694 212.499107 
L 152.433584 212.242289 
L 152.941365 212.875902 
L 153.195255 212.82999 
L 153.449145 212.935903 
L 153.703035 212.409461 
L 153.956926 212.341752 
L 154.210816 212.865644 
L 154.464706 212.156193 
L 154.718596 212.295132 
L 154.972487 211.298691 
L 155.226377 212.74854 
L 155.480267 212.664383 
L 155.734157 212.827555 
L 155.988048 212.73261 
L 156.241938 213.055551 
L 156.495828 212.506841 
L 156.749718 212.550676 
L 157.003609 212.828335 
L 157.257499 212.183993 
L 157.511389 212.647036 
L 157.765279 212.506909 
L 158.27306 212.887637 
L 158.52695 212.37475 
L 158.78084 212.399346 
L 159.034731 212.227529 
L 159.288621 212.692962 
L 160.050292 212.398722 
L 160.304182 212.703164 
L 160.558072 212.60711 
L 160.811963 212.663185 
L 161.065853 212.070245 
L 161.319743 212.831539 
L 161.573633 212.704957 
L 161.827524 211.9136 
L 162.081414 212.644745 
L 162.335304 212.421737 
L 162.589194 212.802303 
L 162.843085 212.941979 
L 163.096975 212.948061 
L 163.350865 212.129216 
L 163.604755 212.797041 
L 163.858646 212.668104 
L 164.112536 212.237818 
L 164.366426 212.930483 
L 164.620316 212.221163 
L 164.874207 211.924299 
L 165.128097 212.865167 
L 165.381987 212.426533 
L 165.635877 212.872434 
L 165.889768 212.396873 
L 166.143658 212.69599 
L 166.397548 212.304826 
L 166.651438 212.77854 
L 167.159219 212.975581 
L 167.413109 212.586471 
L 167.666999 212.539988 
L 167.92089 212.653595 
L 168.17478 212.561437 
L 168.42867 212.685663 
L 168.68256 212.335798 
L 168.936451 212.435022 
L 169.444231 212.791085 
L 169.698121 212.775531 
L 169.952012 212.500962 
L 170.205902 212.779027 
L 170.459792 212.297226 
L 170.713682 212.722294 
L 170.967573 212.298455 
L 171.221463 212.831727 
L 171.475353 212.298248 
L 171.983134 212.660571 
L 172.237024 212.214168 
L 172.490914 212.862712 
L 172.744804 212.204529 
L 172.998695 212.654719 
L 173.252585 212.718496 
L 173.506475 212.935969 
L 173.760365 212.587083 
L 174.014256 213.005914 
L 174.268146 212.5876 
L 174.522036 212.61416 
L 174.775926 212.475459 
L 175.029817 212.138147 
L 175.283707 212.218222 
L 175.791488 212.822706 
L 176.045378 212.604124 
L 176.299268 212.689234 
L 176.553158 212.510842 
L 177.314829 212.90669 
L 177.568719 212.481005 
L 177.82261 212.582547 
L 178.0765 212.405711 
L 178.33039 212.657132 
L 178.58428 212.337777 
L 179.092061 212.585486 
L 179.345951 213.027939 
L 179.599841 212.906957 
L 179.853732 211.936045 
L 180.361512 212.778542 
L 180.615402 212.43867 
L 180.869293 212.870925 
L 181.123183 212.720371 
L 181.377073 212.80448 
L 181.630963 212.762823 
L 181.884854 211.851033 
L 182.138744 212.643604 
L 182.646524 213.07553 
L 182.900415 211.87975 
L 183.154305 211.692127 
L 183.408195 212.255898 
L 183.662085 212.503986 
L 183.915976 212.527385 
L 184.169866 212.130041 
L 184.423756 212.744691 
L 184.677646 212.549009 
L 184.931537 212.623934 
L 185.185427 212.294696 
L 185.439317 212.530942 
L 185.693207 212.450537 
L 185.947098 212.850318 
L 186.454878 212.427503 
L 186.708768 212.843381 
L 186.962659 212.529854 
L 187.216549 212.687067 
L 187.470439 212.595315 
L 187.724329 212.930062 
L 187.97822 212.668632 
L 188.23211 212.996594 
L 188.486 212.444353 
L 188.73989 213.059321 
L 188.993781 212.506681 
L 190.009342 212.863746 
L 190.263232 211.550658 
L 190.517122 212.771117 
L 190.771012 212.050398 
L 191.024903 212.925809 
L 191.278793 213.143359 
L 191.786574 212.291497 
L 192.294354 213.144679 
L 192.548244 212.062099 
L 192.802135 212.966994 
L 193.056025 212.524177 
L 193.309915 212.908816 
L 193.563805 212.769168 
L 193.817696 212.111384 
L 194.325476 213.065761 
L 194.579366 212.875304 
L 194.833257 212.215482 
L 195.087147 212.755764 
L 195.341037 212.967439 
L 195.594927 212.404638 
L 195.848818 212.834343 
L 196.102708 212.75602 
L 196.356598 212.560407 
L 196.610488 212.223683 
L 196.864379 212.861729 
L 197.118269 212.913219 
L 197.372159 212.586974 
L 197.626049 212.842278 
L 197.87994 212.615644 
L 198.13383 212.694859 
L 198.38772 212.944441 
L 199.149391 211.99527 
L 199.403281 212.646017 
L 200.164952 212.669207 
L 200.418842 211.872535 
L 200.672732 212.753806 
L 200.926623 212.412334 
L 201.180513 212.75109 
L 201.434403 212.700245 
L 201.688293 212.420709 
L 201.942184 212.372888 
L 202.196074 212.776238 
L 202.449964 212.835743 
L 202.703854 212.653166 
L 202.957745 212.742689 
L 203.211635 212.461512 
L 203.465525 212.852175 
L 203.719415 212.281401 
L 203.973306 212.851509 
L 204.227196 211.82924 
L 204.481086 212.724448 
L 204.988867 212.36195 
L 205.242757 212.496001 
L 205.496647 212.374914 
L 205.750537 212.9381 
L 206.004428 212.999665 
L 206.258318 211.935286 
L 206.512208 212.807635 
L 206.766098 212.634083 
L 207.019989 212.673321 
L 207.273879 212.023743 
L 207.527769 212.842543 
L 207.78166 212.745711 
L 208.03555 212.816859 
L 208.28944 211.989138 
L 208.54333 212.920956 
L 209.051111 212.518897 
L 209.305001 211.871981 
L 209.558891 212.050573 
L 210.066672 212.939327 
L 210.320562 212.99149 
L 210.828343 212.301501 
L 211.082233 212.657218 
L 211.336123 212.743702 
L 211.590013 212.015872 
L 212.351684 213.045064 
L 212.605574 212.279734 
L 212.859465 212.585396 
L 213.113355 212.617122 
L 213.367245 212.930019 
L 213.621135 212.609238 
L 213.875026 213.036901 
L 214.128916 212.952177 
L 214.382806 212.388556 
L 214.636696 212.46261 
L 214.890587 212.761393 
L 215.144477 212.681167 
L 215.398367 212.893649 
L 215.652257 212.478184 
L 216.413928 212.569045 
L 216.667818 212.514496 
L 216.921709 212.074201 
L 217.175599 212.852383 
L 217.429489 212.618757 
L 217.683379 212.59664 
L 217.93727 212.403328 
L 218.19116 212.021907 
L 218.44505 212.940508 
L 218.69894 212.606402 
L 218.952831 211.893174 
L 219.714501 212.778403 
L 219.968392 212.674853 
L 220.222282 212.924151 
L 220.476172 212.475252 
L 220.730062 212.580836 
L 220.983953 212.842804 
L 221.237843 212.771273 
L 221.745623 213.013665 
L 221.999514 212.261795 
L 222.253404 212.803455 
L 222.507294 212.948756 
L 222.761184 212.236279 
L 223.015075 212.161553 
L 223.268965 212.80242 
L 223.522855 212.631317 
L 223.776745 212.891815 
L 224.284526 212.142947 
L 224.538416 212.810819 
L 224.792307 212.131281 
L 225.046197 212.719101 
L 225.553977 212.931879 
L 225.807868 212.578295 
L 226.061758 212.667395 
L 226.315648 212.600444 
L 226.569538 212.739199 
L 227.077319 212.634827 
L 227.331209 212.732674 
L 228.09288 212.599675 
L 228.34677 212.659673 
L 228.60066 212.852237 
L 228.854551 212.66452 
L 229.362331 213.004014 
L 229.870112 212.644269 
L 230.124002 211.968987 
L 230.631782 212.323454 
L 230.885673 212.826436 
L 231.139563 212.667852 
L 231.647343 212.814497 
L 231.901234 212.014432 
L 232.155124 212.824343 
L 232.409014 212.647182 
L 233.424575 212.668207 
L 233.678465 212.895124 
L 233.932356 212.550505 
L 234.186246 212.529319 
L 234.440136 212.763669 
L 234.694026 212.629954 
L 234.947917 212.989573 
L 235.201807 212.925031 
L 235.455697 212.266913 
L 235.709587 213.010752 
L 235.963478 212.8764 
L 236.217368 212.582535 
L 236.471258 212.972286 
L 236.725148 212.150865 
L 236.979039 212.342523 
L 237.486819 213.061469 
L 237.740709 212.547534 
L 237.9946 212.855499 
L 238.24849 212.066324 
L 238.50238 212.867561 
L 238.75627 212.210011 
L 239.010161 212.658493 
L 239.264051 211.870545 
L 239.517941 212.801495 
L 239.771831 212.655955 
L 240.025722 212.783489 
L 240.533502 212.685509 
L 240.787393 212.083917 
L 241.041283 211.908959 
L 241.295173 212.556805 
L 241.549063 212.387335 
L 241.802954 212.820494 
L 242.056844 212.002094 
L 242.310734 212.202905 
L 242.564624 212.76072 
L 242.818515 212.406779 
L 243.072405 212.761233 
L 243.326295 212.62896 
L 243.580185 212.740998 
L 243.834076 212.040919 
L 244.087966 212.973226 
L 244.341856 212.552226 
L 244.595746 212.799531 
L 244.849637 212.810484 
L 245.103527 212.690126 
L 245.357417 212.44513 
L 245.611307 212.803942 
L 246.372978 212.406106 
L 246.626868 212.169713 
L 246.880759 212.15932 
L 247.134649 212.897539 
L 247.388539 212.445872 
L 247.642429 212.343457 
L 247.89632 212.780914 
L 248.4041 212.786716 
L 248.65799 212.476572 
L 248.911881 212.376081 
L 249.419661 212.766475 
L 249.673551 212.575544 
L 249.927442 213.059108 
L 250.181332 212.069493 
L 250.689112 212.300915 
L 250.943003 212.804773 
L 251.196893 212.283089 
L 251.450783 212.745018 
L 251.958564 212.941959 
L 252.212454 212.797434 
L 252.466344 212.502017 
L 252.720234 212.695116 
L 252.974125 212.038489 
L 253.228015 212.091606 
L 253.481905 212.646765 
L 253.735795 212.202512 
L 253.989686 212.612404 
L 254.243576 212.809511 
L 254.497466 212.289567 
L 254.751356 212.288896 
L 255.005247 212.88409 
L 255.259137 212.205931 
L 255.513027 212.948512 
L 255.766917 212.113878 
L 256.020808 212.653315 
L 256.528588 212.706522 
L 256.782479 212.442615 
L 257.036369 212.526204 
L 257.290259 212.857189 
L 257.544149 212.386525 
L 257.79804 212.330222 
L 258.05193 213.030119 
L 258.30582 212.205976 
L 258.55971 212.524504 
L 258.813601 212.207132 
L 259.067491 212.731975 
L 259.321381 212.676452 
L 259.575271 212.449871 
L 259.829162 213.029017 
L 260.336942 212.594276 
L 260.590832 211.896424 
L 261.098613 212.642091 
L 261.606393 212.244635 
L 261.860284 213.032378 
L 262.114174 212.737829 
L 262.368064 211.956318 
L 262.621954 212.617197 
L 262.875845 212.720648 
L 263.129735 212.410987 
L 263.383625 212.773532 
L 263.637515 212.756901 
L 263.891406 213.131053 
L 264.145296 212.456368 
L 264.399186 212.541796 
L 264.653076 211.667511 
L 264.906967 212.921426 
L 265.160857 212.808507 
L 265.414747 212.320808 
L 265.668637 212.296925 
L 265.922528 212.80484 
L 266.430308 212.225491 
L 266.684198 212.314674 
L 266.938089 212.523694 
L 267.191979 212.553177 
L 267.699759 212.9596 
L 268.46143 212.940752 
L 268.71532 212.135595 
L 269.223101 213.143602 
L 269.730881 211.909796 
L 269.984772 212.676674 
L 270.238662 212.694404 
L 270.492552 213.139948 
L 270.746442 212.632427 
L 271.000333 212.53644 
L 271.508113 212.128342 
L 271.762003 212.348097 
L 272.015894 212.40128 
L 272.269784 211.734007 
L 272.523674 212.603609 
L 272.777564 212.918303 
L 273.031455 212.290048 
L 273.539235 212.825245 
L 273.793126 212.490874 
L 274.047016 212.701653 
L 274.300906 211.868124 
L 274.554796 211.96377 
L 274.808687 212.631993 
L 275.062577 212.23093 
L 275.316467 212.761218 
L 275.570357 212.331665 
L 275.824248 212.658878 
L 276.332028 211.734652 
L 276.585918 212.675606 
L 276.839809 211.936913 
L 277.093699 212.929126 
L 277.347589 212.803797 
L 277.601479 211.682005 
L 278.10926 212.705772 
L 278.36315 212.350354 
L 278.61704 212.792326 
L 278.870931 211.76157 
L 279.124821 212.783105 
L 279.378711 211.810763 
L 279.886492 212.830966 
L 280.140382 212.671239 
L 280.648162 212.97927 
L 280.902053 211.723515 
L 281.409833 212.902661 
L 281.663723 212.261559 
L 281.917614 212.644538 
L 282.171504 212.820612 
L 282.425394 212.555271 
L 283.187065 212.597946 
L 283.440955 211.940477 
L 283.694845 212.912879 
L 283.948736 212.567786 
L 284.202626 212.994108 
L 284.456516 212.719075 
L 284.710406 212.848301 
L 284.964297 212.238053 
L 285.218187 211.955429 
L 285.472077 212.259181 
L 285.725967 212.760746 
L 285.979858 212.535447 
L 286.233748 212.548156 
L 286.487638 212.813523 
L 286.741528 212.801048 
L 286.995419 212.618811 
L 287.249309 213.061805 
L 287.503199 212.699929 
L 287.757089 212.87839 
L 288.01098 212.344706 
L 288.26487 212.833749 
L 288.51876 212.953383 
L 288.77265 212.530794 
L 289.026541 212.806554 
L 289.280431 212.404563 
L 289.534321 212.882929 
L 289.788212 212.920473 
L 290.042102 212.184712 
L 290.295992 212.900689 
L 290.549882 212.803912 
L 290.803773 212.49168 
L 291.311553 212.717379 
L 291.565443 212.482058 
L 292.073224 212.685409 
L 292.327114 211.677372 
L 292.581004 212.582105 
L 292.834895 212.238249 
L 293.088785 212.753157 
L 293.342675 212.543579 
L 293.596565 212.035574 
L 293.850456 212.761201 
L 294.104346 212.002269 
L 294.358236 212.308158 
L 294.612126 212.292679 
L 294.866017 212.474125 
L 295.119907 212.333096 
L 295.373797 212.634822 
L 295.627687 212.326591 
L 295.881578 212.282918 
L 296.389358 212.854597 
L 296.643248 212.132531 
L 296.897139 212.74969 
L 297.151029 213.050771 
L 297.404919 212.484726 
L 297.658809 212.234279 
L 297.9127 212.785246 
L 298.16659 212.313618 
L 298.42048 212.780314 
L 298.67437 212.816098 
L 298.928261 212.255864 
L 299.182151 212.681173 
L 299.436041 212.586337 
L 299.689931 212.348777 
L 299.943822 212.525287 
L 300.197712 212.558851 
L 300.451602 211.887775 
L 300.705492 211.876444 
L 300.959383 212.708304 
L 301.213273 212.254024 
L 301.467163 212.667089 
L 301.721053 212.59708 
L 301.974944 212.736094 
L 302.228834 212.695627 
L 302.482724 212.930483 
L 302.736614 212.232665 
L 302.990505 212.236698 
L 303.244395 212.747091 
L 303.498285 212.831197 
L 303.752175 211.925981 
L 304.006066 212.566606 
L 304.259956 212.545972 
L 304.513846 212.856396 
L 304.767736 212.698366 
L 305.021627 212.343447 
L 305.275517 212.630839 
L 305.529407 212.378641 
L 305.783298 212.678666 
L 306.037188 212.715615 
L 306.291078 212.532773 
L 307.052749 212.843293 
L 307.306639 212.541003 
L 307.560529 211.880787 
L 307.81442 212.766758 
L 308.06831 212.658908 
L 308.3222 212.294803 
L 308.57609 212.854103 
L 308.829981 212.843368 
L 309.083871 212.537154 
L 309.337761 212.905572 
L 309.591651 212.699414 
L 310.099432 212.981181 
L 310.099432 212.981181 
" clip-path="url(#p9bb7dedb66)" style="fill: none; stroke: #ff0000; stroke-width: 0.6; stroke-linecap: square"/>
   </g>
   <g id="patch_3">
    <path d="M 43.78125 239.76 
L 43.78125 37.296 
" style="fill: none; stroke: #000000; stroke-width: 0.8; stroke-linejoin: miter; stroke-linecap: square"/>
   </g>
   <g id="patch_4">
    <path d="M 322.78125 239.76 
L 322.78125 37.296 
" style="fill: none; stroke: #000000; stroke-width: 0.8; stroke-linejoin: miter; stroke-linecap: square"/>
   </g>
   <g id="patch_5">
    <path d="M 43.78125 239.76 
L 322.78125 239.76 
" style="fill: none; stroke: #000000; stroke-width: 0.8; stroke-linejoin: miter; stroke-linecap: square"/>
   </g>
   <g id="patch_6">
    <path d="M 43.78125 37.296 
L 322.78125 37.296 
" style="fill: none; stroke: #000000; stroke-width: 0.8; stroke-linejoin: miter; stroke-linecap: square"/>
   </g>
   <g id="text_15">
    <!-- Baseline Model -->
    <g transform="translate(149.259844 31.296) scale(0.09 -0.09)">
     <defs>
      <path id="DejaVuSans-42" d="M 1259 2228 
L 1259 519 
L 2272 519 
Q 2781 519 3026 730 
Q 3272 941 3272 1375 
Q 3272 1813 3026 2020 
Q 2781 2228 2272 2228 
L 1259 2228 
z
M 1259 4147 
L 1259 2741 
L 2194 2741 
Q 2656 2741 2882 2914 
Q 3109 3088 3109 3444 
Q 3109 3797 2882 3972 
Q 2656 4147 2194 4147 
L 1259 4147 
z
M 628 4666 
L 2241 4666 
Q 2963 4666 3353 4366 
Q 3744 4066 3744 3513 
Q 3744 3084 3544 2831 
Q 3344 2578 2956 2516 
Q 3422 2416 3680 2098 
Q 3938 1781 3938 1306 
Q 3938 681 3513 340 
Q 3088 0 2303 0 
L 628 0 
L 628 4666 
z
" transform="scale(0.015625)"/>
      <path id="DejaVuSans-61" d="M 2194 1759 
Q 1497 1759 1228 1600 
Q 959 1441 959 1056 
Q 959 750 1161 570 
Q 1363 391 1709 391 
Q 2188 391 2477 730 
Q 2766 1069 2766 1631 
L 2766 1759 
L 2194 1759 
z
M 3341 1997 
L 3341 0 
L 2766 0 
L 2766 531 
Q 2569 213 2275 61 
Q 1981 -91 1556 -91 
Q 1019 -91 701 211 
Q 384 513 384 1019 
Q 384 1609 779 1909 
Q 1175 2209 1959 2209 
L 2766 2209 
L 2766 2266 
Q 2766 2663 2505 2880 
Q 2244 3097 1772 3097 
Q 1472 3097 1187 3025 
Q 903 2953 641 2809 
L 641 3341 
Q 956 3463 1253 3523 
Q 1550 3584 1831 3584 
Q 2591 3584 2966 3190 
Q 3341 2797 3341 1997 
z
" transform="scale(0.015625)"/>
      <path id="DejaVuSans-65" d="M 3597 1894 
L 3597 1613 
L 953 1613 
Q 991 1019 1311 708 
Q 1631 397 2203 397 
Q 2534 397 2845 478 
Q 3156 559 3463 722 
L 3463 178 
Q 3153 47 2828 -22 
Q 2503 -91 2169 -91 
Q 1331 -91 842 396 
Q 353 884 353 1716 
Q 353 2575 817 3079 
Q 1281 3584 2069 3584 
Q 2775 3584 3186 3129 
Q 3597 2675 3597 1894 
z
M 3022 2063 
Q 3016 2534 2758 2815 
Q 2500 3097 2075 3097 
Q 1594 3097 1305 2825 
Q 1016 2553 972 2059 
L 3022 2063 
z
" transform="scale(0.015625)"/>
      <path id="DejaVuSans-6c" d="M 603 4863 
L 1178 4863 
L 1178 0 
L 603 0 
L 603 4863 
z
" transform="scale(0.015625)"/>
      <path id="DejaVuSans-69" d="M 603 3500 
L 1178 3500 
L 1178 0 
L 603 0 
L 603 3500 
z
M 603 4863 
L 1178 4863 
L 1178 4134 
L 603 4134 
L 603 4863 
z
" transform="scale(0.015625)"/>
      <path id="DejaVuSans-6e" d="M 3513 2113 
L 3513 0 
L 2938 0 
L 2938 2094 
Q 2938 2591 2744 2837 
Q 2550 3084 2163 3084 
Q 1697 3084 1428 2787 
Q 1159 2491 1159 1978 
L 1159 0 
L 581 0 
L 581 3500 
L 1159 3500 
L 1159 2956 
Q 1366 3272 1645 3428 
Q 1925 3584 2291 3584 
Q 2894 3584 3203 3211 
Q 3513 2838 3513 2113 
z
" transform="scale(0.015625)"/>
      <path id="DejaVuSans-20" transform="scale(0.015625)"/>
      <path id="DejaVuSans-4d" d="M 628 4666 
L 1569 4666 
L 2759 1491 
L 3956 4666 
L 4897 4666 
L 4897 0 
L 4281 0 
L 4281 4097 
L 3078 897 
L 2444 897 
L 1241 4097 
L 1241 0 
L 628 0 
L 628 4666 
z
" transform="scale(0.015625)"/>
      <path id="DejaVuSans-64" d="M 2906 2969 
L 2906 4863 
L 3481 4863 
L 3481 0 
L 2906 0 
L 2906 525 
Q 2725 213 2448 61 
Q 2172 -91 1784 -91 
Q 1150 -91 751 415 
Q 353 922 353 1747 
Q 353 2572 751 3078 
Q 1150 3584 1784 3584 
Q 2172 3584 2448 3432 
Q 2725 3281 2906 2969 
z
M 947 1747 
Q 947 1113 1208 752 
Q 1469 391 1925 391 
Q 2381 391 2643 752 
Q 2906 1113 2906 1747 
Q 2906 2381 2643 2742 
Q 2381 3103 1925 3103 
Q 1469 3103 1208 2742 
Q 947 2381 947 1747 
z
" transform="scale(0.015625)"/>
     </defs>
     <use xlink:href="#DejaVuSans-42"/>
     <use xlink:href="#DejaVuSans-61" x="68.603516"/>
     <use xlink:href="#DejaVuSans-73" x="129.882812"/>
     <use xlink:href="#DejaVuSans-65" x="181.982422"/>
     <use xlink:href="#DejaVuSans-6c" x="243.505859"/>
     <use xlink:href="#DejaVuSans-69" x="271.289062"/>
     <use xlink:href="#DejaVuSans-6e" x="299.072266"/>
     <use xlink:href="#DejaVuSans-65" x="362.451172"/>
     <use xlink:href="#DejaVuSans-20" x="423.974609"/>
     <use xlink:href="#DejaVuSans-4d" x="455.761719"/>
     <use xlink:href="#DejaVuSans-6f" x="542.041016"/>
     <use xlink:href="#DejaVuSans-64" x="603.222656"/>
     <use xlink:href="#DejaVuSans-65" x="666.699219"/>
     <use xlink:href="#DejaVuSans-6c" x="728.222656"/>
    </g>
   </g>
   <g id="legend_1">
    <g id="patch_7">
     <path d="M 209.2875 74.65225 
L 315.78125 74.65225 
Q 317.78125 74.65225 317.78125 72.65225 
L 317.78125 44.296 
Q 317.78125 42.296 315.78125 42.296 
L 209.2875 42.296 
Q 207.2875 42.296 207.2875 44.296 
L 207.2875 72.65225 
Q 207.2875 74.65225 209.2875 74.65225 
z
" style="fill: #ffffff; opacity: 0.8; stroke: #cccccc; stroke-linejoin: miter"/>
    </g>
    <g id="line2d_27">
     <path d="M 211.2875 50.394438 
L 221.2875 50.394438 
L 231.2875 50.394438 
" style="fill: none; stroke: #0000ff; stroke-width: 0.6; stroke-linecap: square"/>
    </g>
    <g id="text_16">
     <!-- Training Loss -->
     <g transform="translate(239.2875 53.894438) scale(0.1 -0.1)">
      <defs>
       <path id="DejaVuSans-54" d="M -19 4666 
L 3928 4666 
L 3928 4134 
L 2272 4134 
L 2272 0 
L 1638 0 
L 1638 4134 
L -19 4134 
L -19 4666 
z
" transform="scale(0.015625)"/>
       <path id="DejaVuSans-72" d="M 2631 2963 
Q 2534 3019 2420 3045 
Q 2306 3072 2169 3072 
Q 1681 3072 1420 2755 
Q 1159 2438 1159 1844 
L 1159 0 
L 581 0 
L 581 3500 
L 1159 3500 
L 1159 2956 
Q 1341 3275 1631 3429 
Q 1922 3584 2338 3584 
Q 2397 3584 2469 3576 
Q 2541 3569 2628 3553 
L 2631 2963 
z
" transform="scale(0.015625)"/>
       <path id="DejaVuSans-67" d="M 2906 1791 
Q 2906 2416 2648 2759 
Q 2391 3103 1925 3103 
Q 1463 3103 1205 2759 
Q 947 2416 947 1791 
Q 947 1169 1205 825 
Q 1463 481 1925 481 
Q 2391 481 2648 825 
Q 2906 1169 2906 1791 
z
M 3481 434 
Q 3481 -459 3084 -895 
Q 2688 -1331 1869 -1331 
Q 1566 -1331 1297 -1286 
Q 1028 -1241 775 -1147 
L 775 -588 
Q 1028 -725 1275 -790 
Q 1522 -856 1778 -856 
Q 2344 -856 2625 -561 
Q 2906 -266 2906 331 
L 2906 616 
Q 2728 306 2450 153 
Q 2172 0 1784 0 
Q 1141 0 747 490 
Q 353 981 353 1791 
Q 353 2603 747 3093 
Q 1141 3584 1784 3584 
Q 2172 3584 2450 3431 
Q 2728 3278 2906 2969 
L 2906 3500 
L 3481 3500 
L 3481 434 
z
" transform="scale(0.015625)"/>
      </defs>
      <use xlink:href="#DejaVuSans-54"/>
      <use xlink:href="#DejaVuSans-72" x="46.333984"/>
      <use xlink:href="#DejaVuSans-61" x="87.447266"/>
      <use xlink:href="#DejaVuSans-69" x="148.726562"/>
      <use xlink:href="#DejaVuSans-6e" x="176.509766"/>
      <use xlink:href="#DejaVuSans-69" x="239.888672"/>
      <use xlink:href="#DejaVuSans-6e" x="267.671875"/>
      <use xlink:href="#DejaVuSans-67" x="331.050781"/>
      <use xlink:href="#DejaVuSans-20" x="394.527344"/>
      <use xlink:href="#DejaVuSans-4c" x="426.314453"/>
      <use xlink:href="#DejaVuSans-6f" x="480.277344"/>
      <use xlink:href="#DejaVuSans-73" x="541.458984"/>
      <use xlink:href="#DejaVuSans-73" x="593.558594"/>
     </g>
    </g>
    <g id="line2d_28">
     <path d="M 211.2875 65.072563 
L 221.2875 65.072563 
L 231.2875 65.072563 
" style="fill: none; stroke: #ff0000; stroke-width: 0.6; stroke-linecap: square"/>
    </g>
    <g id="text_17">
     <!-- Validation Loss -->
     <g transform="translate(239.2875 68.572563) scale(0.1 -0.1)">
      <defs>
       <path id="DejaVuSans-56" d="M 1831 0 
L 50 4666 
L 709 4666 
L 2188 738 
L 3669 4666 
L 4325 4666 
L 2547 0 
L 1831 0 
z
" transform="scale(0.015625)"/>
       <path id="DejaVuSans-74" d="M 1172 4494 
L 1172 3500 
L 2356 3500 
L 2356 3053 
L 1172 3053 
L 1172 1153 
Q 1172 725 1289 603 
Q 1406 481 1766 481 
L 2356 481 
L 2356 0 
L 1766 0 
Q 1100 0 847 248 
Q 594 497 594 1153 
L 594 3053 
L 172 3053 
L 172 3500 
L 594 3500 
L 594 4494 
L 1172 4494 
z
" transform="scale(0.015625)"/>
      </defs>
      <use xlink:href="#DejaVuSans-56"/>
      <use xlink:href="#DejaVuSans-61" x="60.658203"/>
      <use xlink:href="#DejaVuSans-6c" x="121.9375"/>
      <use xlink:href="#DejaVuSans-69" x="149.720703"/>
      <use xlink:href="#DejaVuSans-64" x="177.503906"/>
      <use xlink:href="#DejaVuSans-61" x="240.980469"/>
      <use xlink:href="#DejaVuSans-74" x="302.259766"/>
      <use xlink:href="#DejaVuSans-69" x="341.46875"/>
      <use xlink:href="#DejaVuSans-6f" x="369.251953"/>
      <use xlink:href="#DejaVuSans-6e" x="430.433594"/>
      <use xlink:href="#DejaVuSans-20" x="493.8125"/>
      <use xlink:href="#DejaVuSans-4c" x="525.599609"/>
      <use xlink:href="#DejaVuSans-6f" x="579.5625"/>
      <use xlink:href="#DejaVuSans-73" x="640.744141"/>
      <use xlink:href="#DejaVuSans-73" x="692.84375"/>
     </g>
    </g>
   </g>
  </g>
  <g id="text_18">
   <!-- Training VS. Validation Loss - Dataset Size = 100.0% -->
   <g transform="translate(34.481016 15.558281) scale(0.11 -0.11)">
    <defs>
     <path id="DejaVuSans-53" d="M 3425 4513 
L 3425 3897 
Q 3066 4069 2747 4153 
Q 2428 4238 2131 4238 
Q 1616 4238 1336 4038 
Q 1056 3838 1056 3469 
Q 1056 3159 1242 3001 
Q 1428 2844 1947 2747 
L 2328 2669 
Q 3034 2534 3370 2195 
Q 3706 1856 3706 1288 
Q 3706 609 3251 259 
Q 2797 -91 1919 -91 
Q 1588 -91 1214 -16 
Q 841 59 441 206 
L 441 856 
Q 825 641 1194 531 
Q 1563 422 1919 422 
Q 2459 422 2753 634 
Q 3047 847 3047 1241 
Q 3047 1584 2836 1778 
Q 2625 1972 2144 2069 
L 1759 2144 
Q 1053 2284 737 2584 
Q 422 2884 422 3419 
Q 422 4038 858 4394 
Q 1294 4750 2059 4750 
Q 2388 4750 2728 4690 
Q 3069 4631 3425 4513 
z
" transform="scale(0.015625)"/>
     <path id="DejaVuSans-2d" d="M 313 2009 
L 1997 2009 
L 1997 1497 
L 313 1497 
L 313 2009 
z
" transform="scale(0.015625)"/>
     <path id="DejaVuSans-44" d="M 1259 4147 
L 1259 519 
L 2022 519 
Q 2988 519 3436 956 
Q 3884 1394 3884 2338 
Q 3884 3275 3436 3711 
Q 2988 4147 2022 4147 
L 1259 4147 
z
M 628 4666 
L 1925 4666 
Q 3281 4666 3915 4102 
Q 4550 3538 4550 2338 
Q 4550 1131 3912 565 
Q 3275 0 1925 0 
L 628 0 
L 628 4666 
z
" transform="scale(0.015625)"/>
     <path id="DejaVuSans-7a" d="M 353 3500 
L 3084 3500 
L 3084 2975 
L 922 459 
L 3084 459 
L 3084 0 
L 275 0 
L 275 525 
L 2438 3041 
L 353 3041 
L 353 3500 
z
" transform="scale(0.015625)"/>
     <path id="DejaVuSans-3d" d="M 678 2906 
L 4684 2906 
L 4684 2381 
L 678 2381 
L 678 2906 
z
M 678 1631 
L 4684 1631 
L 4684 1100 
L 678 1100 
L 678 1631 
z
" transform="scale(0.015625)"/>
     <path id="DejaVuSans-25" d="M 4653 2053 
Q 4381 2053 4226 1822 
Q 4072 1591 4072 1178 
Q 4072 772 4226 539 
Q 4381 306 4653 306 
Q 4919 306 5073 539 
Q 5228 772 5228 1178 
Q 5228 1588 5073 1820 
Q 4919 2053 4653 2053 
z
M 4653 2450 
Q 5147 2450 5437 2106 
Q 5728 1763 5728 1178 
Q 5728 594 5436 251 
Q 5144 -91 4653 -91 
Q 4153 -91 3862 251 
Q 3572 594 3572 1178 
Q 3572 1766 3864 2108 
Q 4156 2450 4653 2450 
z
M 1428 4353 
Q 1159 4353 1004 4120 
Q 850 3888 850 3481 
Q 850 3069 1003 2837 
Q 1156 2606 1428 2606 
Q 1700 2606 1854 2837 
Q 2009 3069 2009 3481 
Q 2009 3884 1853 4118 
Q 1697 4353 1428 4353 
z
M 4250 4750 
L 4750 4750 
L 1831 -91 
L 1331 -91 
L 4250 4750 
z
M 1428 4750 
Q 1922 4750 2215 4408 
Q 2509 4066 2509 3481 
Q 2509 2891 2217 2550 
Q 1925 2209 1428 2209 
Q 931 2209 642 2551 
Q 353 2894 353 3481 
Q 353 4063 643 4406 
Q 934 4750 1428 4750 
z
" transform="scale(0.015625)"/>
    </defs>
    <use xlink:href="#DejaVuSans-54"/>
    <use xlink:href="#DejaVuSans-72" x="46.333984"/>
    <use xlink:href="#DejaVuSans-61" x="87.447266"/>
    <use xlink:href="#DejaVuSans-69" x="148.726562"/>
    <use xlink:href="#DejaVuSans-6e" x="176.509766"/>
    <use xlink:href="#DejaVuSans-69" x="239.888672"/>
    <use xlink:href="#DejaVuSans-6e" x="267.671875"/>
    <use xlink:href="#DejaVuSans-67" x="331.050781"/>
    <use xlink:href="#DejaVuSans-20" x="394.527344"/>
    <use xlink:href="#DejaVuSans-56" x="426.314453"/>
    <use xlink:href="#DejaVuSans-53" x="494.722656"/>
    <use xlink:href="#DejaVuSans-2e" x="558.199219"/>
    <use xlink:href="#DejaVuSans-20" x="589.986328"/>
    <use xlink:href="#DejaVuSans-56" x="621.773438"/>
    <use xlink:href="#DejaVuSans-61" x="682.431641"/>
    <use xlink:href="#DejaVuSans-6c" x="743.710938"/>
    <use xlink:href="#DejaVuSans-69" x="771.494141"/>
    <use xlink:href="#DejaVuSans-64" x="799.277344"/>
    <use xlink:href="#DejaVuSans-61" x="862.753906"/>
    <use xlink:href="#DejaVuSans-74" x="924.033203"/>
    <use xlink:href="#DejaVuSans-69" x="963.242188"/>
    <use xlink:href="#DejaVuSans-6f" x="991.025391"/>
    <use xlink:href="#DejaVuSans-6e" x="1052.207031"/>
    <use xlink:href="#DejaVuSans-20" x="1115.585938"/>
    <use xlink:href="#DejaVuSans-4c" x="1147.373047"/>
    <use xlink:href="#DejaVuSans-6f" x="1201.335938"/>
    <use xlink:href="#DejaVuSans-73" x="1262.517578"/>
    <use xlink:href="#DejaVuSans-73" x="1314.617188"/>
    <use xlink:href="#DejaVuSans-20" x="1366.716797"/>
    <use xlink:href="#DejaVuSans-2d" x="1398.503906"/>
    <use xlink:href="#DejaVuSans-20" x="1434.587891"/>
    <use xlink:href="#DejaVuSans-44" x="1466.375"/>
    <use xlink:href="#DejaVuSans-61" x="1543.376953"/>
    <use xlink:href="#DejaVuSans-74" x="1604.65625"/>
    <use xlink:href="#DejaVuSans-61" x="1643.865234"/>
    <use xlink:href="#DejaVuSans-73" x="1705.144531"/>
    <use xlink:href="#DejaVuSans-65" x="1757.244141"/>
    <use xlink:href="#DejaVuSans-74" x="1818.767578"/>
    <use xlink:href="#DejaVuSans-20" x="1857.976562"/>
    <use xlink:href="#DejaVuSans-53" x="1889.763672"/>
    <use xlink:href="#DejaVuSans-69" x="1953.240234"/>
    <use xlink:href="#DejaVuSans-7a" x="1981.023438"/>
    <use xlink:href="#DejaVuSans-65" x="2033.513672"/>
    <use xlink:href="#DejaVuSans-20" x="2095.037109"/>
    <use xlink:href="#DejaVuSans-3d" x="2126.824219"/>
    <use xlink:href="#DejaVuSans-20" x="2210.613281"/>
    <use xlink:href="#DejaVuSans-31" x="2242.400391"/>
    <use xlink:href="#DejaVuSans-30" x="2306.023438"/>
    <use xlink:href="#DejaVuSans-30" x="2369.646484"/>
    <use xlink:href="#DejaVuSans-2e" x="2433.269531"/>
    <use xlink:href="#DejaVuSans-30" x="2465.056641"/>
    <use xlink:href="#DejaVuSans-25" x="2528.679688"/>
   </g>
  </g>
 </g>
 <defs>
  <clipPath id="p9bb7dedb66">
   <rect x="43.78125" y="37.296" width="279" height="202.464"/>
  </clipPath>
 </defs>
</svg>
