<?xml version="1.0" encoding="utf-8" standalone="no"?>
<!DOCTYPE svg PUBLIC "-//W3C//DTD SVG 1.1//EN"
  "http://www.w3.org/Graphics/SVG/1.1/DTD/svg11.dtd">
<svg xmlns:xlink="http://www.w3.org/1999/xlink" width="330.281484pt" height="277.31625pt" viewBox="0 0 330.281484 277.31625" xmlns="http://www.w3.org/2000/svg" version="1.1">
 <metadata>
  <rdf:RDF xmlns:dc="http://purl.org/dc/elements/1.1/" xmlns:cc="http://creativecommons.org/ns#" xmlns:rdf="http://www.w3.org/1999/02/22-rdf-syntax-ns#">
   <cc:Work>
    <dc:type rdf:resource="http://purl.org/dc/dcmitype/StillImage"/>
    <dc:date>2026-06-11T20:36:44.512568</dc:date>
    <dc:format>image/svg+xml</dc:format>
    <dc:creator>
     <cc:Agent>
      <dc:title>Matplotlib v3.8.4, https://matplotlib.org/</dc:title>
     </cc:Agent>
    </dc:creator>
   </cc:Work>
  </rdf:RDF>
 </metadata>
 <defs>
  <style type="text/css">*{stroke-linejoin: round; stroke-linecap: butt}</style>
 </defs>
 <g id="figure_1">
  <g id="patch_1">
   <path d="M 0 277.31625 
L 330.281484 277.31625 
L 330.281484 0 
L 0 0 
z
" style="fill: #ffffff"/>
  </g>
  <g id="axes_1">
   <g id="patch_2">
    <path d="M 43.78125 239.76 
L 322.78125 239.76 
L 322.78125 37.296 
L 43.78125 37.296 
z
" style="fill: #ffffff"/>
   </g>
   <g id="matplotlib.axis_1">
    <g id="xtick_1">
     <g id="line2d_1">
      <path d="M 56.209178 239.76 
L 56.209178 37.296 
" clip-path="url(#pb0e05f95cb)" style="fill: none; stroke-dasharray: 2.96,1.28; stroke-dashoffset: 0; stroke: #b0b0b0; stroke-opacity: 0.4; stroke-width: 0.8"/>
     </g>
     <g id="line2d_2">
      <defs>
       <path id="md73e77858a" d="M 0 0 
L 0 3.5 
" style="stroke: #000000; stroke-width: 0.8"/>
      </defs>
      <g>
       <use xlink:href="#md73e77858a" x="56.209178" y="239.76" style="stroke: #000000; stroke-width: 0.8"/>
      </g>
     </g>
     <g id="text_1">
      <!-- 0 -->
      <g transform="translate(53.027928 254.358437) scale(0.1 -0.1)">
       <defs>
        <path id="DejaVuSans-30" d="M 2034 4250 
Q 1547 4250 1301 3770 
Q 1056 3291 1056 2328 
Q 1056 1369 1301 889 
Q 1547 409 2034 409 
Q 2525 409 2770 889 
Q 3016 1369 3016 2328 
Q 3016 3291 2770 3770 
Q 2525 4250 2034 4250 
z
M 2034 4750 
Q 2819 4750 3233 4129 
Q 3647 3509 3647 2328 
Q 3647 1150 3233 529 
Q 2819 -91 2034 -91 
Q 1250 -91 836 529 
Q 422 1150 422 2328 
Q 422 3509 836 4129 
Q 1250 4750 2034 4750 
z
" transform="scale(0.015625)"/>
       </defs>
       <use xlink:href="#DejaVuSans-30"/>
      </g>
     </g>
    </g>
    <g id="xtick_2">
     <g id="line2d_3">
      <path d="M 106.987229 239.76 
L 106.987229 37.296 
" clip-path="url(#pb0e05f95cb)" style="fill: none; stroke-dasharray: 2.96,1.28; stroke-dashoffset: 0; stroke: #b0b0b0; stroke-opacity: 0.4; stroke-width: 0.8"/>
     </g>
     <g id="line2d_4">
      <g>
       <use xlink:href="#md73e77858a" x="106.987229" y="239.76" style="stroke: #000000; stroke-width: 0.8"/>
      </g>
     </g>
     <g id="text_2">
      <!-- 200 -->
      <g transform="translate(97.443479 254.358437) scale(0.1 -0.1)">
       <defs>
        <path id="DejaVuSans-32" d="M 1228 531 
L 3431 531 
L 3431 0 
L 469 0 
L 469 531 
Q 828 903 1448 1529 
Q 2069 2156 2228 2338 
Q 2531 2678 2651 2914 
Q 2772 3150 2772 3378 
Q 2772 3750 2511 3984 
Q 2250 4219 1831 4219 
Q 1534 4219 1204 4116 
Q 875 4013 500 3803 
L 500 4441 
Q 881 4594 1212 4672 
Q 1544 4750 1819 4750 
Q 2544 4750 2975 4387 
Q 3406 4025 3406 3419 
Q 3406 3131 3298 2873 
Q 3191 2616 2906 2266 
Q 2828 2175 2409 1742 
Q 1991 1309 1228 531 
z
" transform="scale(0.015625)"/>
       </defs>
       <use xlink:href="#DejaVuSans-32"/>
       <use xlink:href="#DejaVuSans-30" x="63.623047"/>
       <use xlink:href="#DejaVuSans-30" x="127.246094"/>
      </g>
     </g>
    </g>
    <g id="xtick_3">
     <g id="line2d_5">
      <path d="M 157.765279 239.76 
L 157.765279 37.296 
" clip-path="url(#pb0e05f95cb)" style="fill: none; stroke-dasharray: 2.96,1.28; stroke-dashoffset: 0; stroke: #b0b0b0; stroke-opacity: 0.4; stroke-width: 0.8"/>
     </g>
     <g id="line2d_6">
      <g>
       <use xlink:href="#md73e77858a" x="157.765279" y="239.76" style="stroke: #000000; stroke-width: 0.8"/>
      </g>
     </g>
     <g id="text_3">
      <!-- 400 -->
      <g transform="translate(148.221529 254.358437) scale(0.1 -0.1)">
       <defs>
        <path id="DejaVuSans-34" d="M 2419 4116 
L 825 1625 
L 2419 1625 
L 2419 4116 
z
M 2253 4666 
L 3047 4666 
L 3047 1625 
L 3713 1625 
L 3713 1100 
L 3047 1100 
L 3047 0 
L 2419 0 
L 2419 1100 
L 313 1100 
L 313 1709 
L 2253 4666 
z
" transform="scale(0.015625)"/>
       </defs>
       <use xlink:href="#DejaVuSans-34"/>
       <use xlink:href="#DejaVuSans-30" x="63.623047"/>
       <use xlink:href="#DejaVuSans-30" x="127.246094"/>
      </g>
     </g>
    </g>
    <g id="xtick_4">
     <g id="line2d_7">
      <path d="M 208.54333 239.76 
L 208.54333 37.296 
" clip-path="url(#pb0e05f95cb)" style="fill: none; stroke-dasharray: 2.96,1.28; stroke-dashoffset: 0; stroke: #b0b0b0; stroke-opacity: 0.4; stroke-width: 0.8"/>
     </g>
     <g id="line2d_8">
      <g>
       <use xlink:href="#md73e77858a" x="208.54333" y="239.76" style="stroke: #000000; stroke-width: 0.8"/>
      </g>
     </g>
     <g id="text_4">
      <!-- 600 -->
      <g transform="translate(198.99958 254.358437) scale(0.1 -0.1)">
       <defs>
        <path id="DejaVuSans-36" d="M 2113 2584 
Q 1688 2584 1439 2293 
Q 1191 2003 1191 1497 
Q 1191 994 1439 701 
Q 1688 409 2113 409 
Q 2538 409 2786 701 
Q 3034 994 3034 1497 
Q 3034 2003 2786 2293 
Q 2538 2584 2113 2584 
z
M 3366 4563 
L 3366 3988 
Q 3128 4100 2886 4159 
Q 2644 4219 2406 4219 
Q 1781 4219 1451 3797 
Q 1122 3375 1075 2522 
Q 1259 2794 1537 2939 
Q 1816 3084 2150 3084 
Q 2853 3084 3261 2657 
Q 3669 2231 3669 1497 
Q 3669 778 3244 343 
Q 2819 -91 2113 -91 
Q 1303 -91 875 529 
Q 447 1150 447 2328 
Q 447 3434 972 4092 
Q 1497 4750 2381 4750 
Q 2619 4750 2861 4703 
Q 3103 4656 3366 4563 
z
" transform="scale(0.015625)"/>
       </defs>
       <use xlink:href="#DejaVuSans-36"/>
       <use xlink:href="#DejaVuSans-30" x="63.623047"/>
       <use xlink:href="#DejaVuSans-30" x="127.246094"/>
      </g>
     </g>
    </g>
    <g id="xtick_5">
     <g id="line2d_9">
      <path d="M 259.321381 239.76 
L 259.321381 37.296 
" clip-path="url(#pb0e05f95cb)" style="fill: none; stroke-dasharray: 2.96,1.28; stroke-dashoffset: 0; stroke: #b0b0b0; stroke-opacity: 0.4; stroke-width: 0.8"/>
     </g>
     <g id="line2d_10">
      <g>
       <use xlink:href="#md73e77858a" x="259.321381" y="239.76" style="stroke: #000000; stroke-width: 0.8"/>
      </g>
     </g>
     <g id="text_5">
      <!-- 800 -->
      <g transform="translate(249.777631 254.358437) scale(0.1 -0.1)">
       <defs>
        <path id="DejaVuSans-38" d="M 2034 2216 
Q 1584 2216 1326 1975 
Q 1069 1734 1069 1313 
Q 1069 891 1326 650 
Q 1584 409 2034 409 
Q 2484 409 2743 651 
Q 3003 894 3003 1313 
Q 3003 1734 2745 1975 
Q 2488 2216 2034 2216 
z
M 1403 2484 
Q 997 2584 770 2862 
Q 544 3141 544 3541 
Q 544 4100 942 4425 
Q 1341 4750 2034 4750 
Q 2731 4750 3128 4425 
Q 3525 4100 3525 3541 
Q 3525 3141 3298 2862 
Q 3072 2584 2669 2484 
Q 3125 2378 3379 2068 
Q 3634 1759 3634 1313 
Q 3634 634 3220 271 
Q 2806 -91 2034 -91 
Q 1263 -91 848 271 
Q 434 634 434 1313 
Q 434 1759 690 2068 
Q 947 2378 1403 2484 
z
M 1172 3481 
Q 1172 3119 1398 2916 
Q 1625 2713 2034 2713 
Q 2441 2713 2670 2916 
Q 2900 3119 2900 3481 
Q 2900 3844 2670 4047 
Q 2441 4250 2034 4250 
Q 1625 4250 1398 4047 
Q 1172 3844 1172 3481 
z
" transform="scale(0.015625)"/>
       </defs>
       <use xlink:href="#DejaVuSans-38"/>
       <use xlink:href="#DejaVuSans-30" x="63.623047"/>
       <use xlink:href="#DejaVuSans-30" x="127.246094"/>
      </g>
     </g>
    </g>
    <g id="xtick_6">
     <g id="line2d_11">
      <path d="M 310.099432 239.76 
L 310.099432 37.296 
" clip-path="url(#pb0e05f95cb)" style="fill: none; stroke-dasharray: 2.96,1.28; stroke-dashoffset: 0; stroke: #b0b0b0; stroke-opacity: 0.4; stroke-width: 0.8"/>
     </g>
     <g id="line2d_12">
      <g>
       <use xlink:href="#md73e77858a" x="310.099432" y="239.76" style="stroke: #000000; stroke-width: 0.8"/>
      </g>
     </g>
     <g id="text_6">
      <!-- 1000 -->
      <g transform="translate(297.374432 254.358437) scale(0.1 -0.1)">
       <defs>
        <path id="DejaVuSans-31" d="M 794 531 
L 1825 531 
L 1825 4091 
L 703 3866 
L 703 4441 
L 1819 4666 
L 2450 4666 
L 2450 531 
L 3481 531 
L 3481 0 
L 794 0 
L 794 531 
z
" transform="scale(0.015625)"/>
       </defs>
       <use xlink:href="#DejaVuSans-31"/>
       <use xlink:href="#DejaVuSans-30" x="63.623047"/>
       <use xlink:href="#DejaVuSans-30" x="127.246094"/>
       <use xlink:href="#DejaVuSans-30" x="190.869141"/>
      </g>
     </g>
    </g>
    <g id="text_7">
     <!-- Epochs -->
     <g transform="translate(165.365625 268.036562) scale(0.1 -0.1)">
      <defs>
       <path id="DejaVuSans-45" d="M 628 4666 
L 3578 4666 
L 3578 4134 
L 1259 4134 
L 1259 2753 
L 3481 2753 
L 3481 2222 
L 1259 2222 
L 1259 531 
L 3634 531 
L 3634 0 
L 628 0 
L 628 4666 
z
" transform="scale(0.015625)"/>
       <path id="DejaVuSans-70" d="M 1159 525 
L 1159 -1331 
L 581 -1331 
L 581 3500 
L 1159 3500 
L 1159 2969 
Q 1341 3281 1617 3432 
Q 1894 3584 2278 3584 
Q 2916 3584 3314 3078 
Q 3713 2572 3713 1747 
Q 3713 922 3314 415 
Q 2916 -91 2278 -91 
Q 1894 -91 1617 61 
Q 1341 213 1159 525 
z
M 3116 1747 
Q 3116 2381 2855 2742 
Q 2594 3103 2138 3103 
Q 1681 3103 1420 2742 
Q 1159 2381 1159 1747 
Q 1159 1113 1420 752 
Q 1681 391 2138 391 
Q 2594 391 2855 752 
Q 3116 1113 3116 1747 
z
" transform="scale(0.015625)"/>
       <path id="DejaVuSans-6f" d="M 1959 3097 
Q 1497 3097 1228 2736 
Q 959 2375 959 1747 
Q 959 1119 1226 758 
Q 1494 397 1959 397 
Q 2419 397 2687 759 
Q 2956 1122 2956 1747 
Q 2956 2369 2687 2733 
Q 2419 3097 1959 3097 
z
M 1959 3584 
Q 2709 3584 3137 3096 
Q 3566 2609 3566 1747 
Q 3566 888 3137 398 
Q 2709 -91 1959 -91 
Q 1206 -91 779 398 
Q 353 888 353 1747 
Q 353 2609 779 3096 
Q 1206 3584 1959 3584 
z
" transform="scale(0.015625)"/>
       <path id="DejaVuSans-63" d="M 3122 3366 
L 3122 2828 
Q 2878 2963 2633 3030 
Q 2388 3097 2138 3097 
Q 1578 3097 1268 2742 
Q 959 2388 959 1747 
Q 959 1106 1268 751 
Q 1578 397 2138 397 
Q 2388 397 2633 464 
Q 2878 531 3122 666 
L 3122 134 
Q 2881 22 2623 -34 
Q 2366 -91 2075 -91 
Q 1284 -91 818 406 
Q 353 903 353 1747 
Q 353 2603 823 3093 
Q 1294 3584 2113 3584 
Q 2378 3584 2631 3529 
Q 2884 3475 3122 3366 
z
" transform="scale(0.015625)"/>
       <path id="DejaVuSans-68" d="M 3513 2113 
L 3513 0 
L 2938 0 
L 2938 2094 
Q 2938 2591 2744 2837 
Q 2550 3084 2163 3084 
Q 1697 3084 1428 2787 
Q 1159 2491 1159 1978 
L 1159 0 
L 581 0 
L 581 4863 
L 1159 4863 
L 1159 2956 
Q 1366 3272 1645 3428 
Q 1925 3584 2291 3584 
Q 2894 3584 3203 3211 
Q 3513 2838 3513 2113 
z
" transform="scale(0.015625)"/>
       <path id="DejaVuSans-73" d="M 2834 3397 
L 2834 2853 
Q 2591 2978 2328 3040 
Q 2066 3103 1784 3103 
Q 1356 3103 1142 2972 
Q 928 2841 928 2578 
Q 928 2378 1081 2264 
Q 1234 2150 1697 2047 
L 1894 2003 
Q 2506 1872 2764 1633 
Q 3022 1394 3022 966 
Q 3022 478 2636 193 
Q 2250 -91 1575 -91 
Q 1294 -91 989 -36 
Q 684 19 347 128 
L 347 722 
Q 666 556 975 473 
Q 1284 391 1588 391 
Q 1994 391 2212 530 
Q 2431 669 2431 922 
Q 2431 1156 2273 1281 
Q 2116 1406 1581 1522 
L 1381 1569 
Q 847 1681 609 1914 
Q 372 2147 372 2553 
Q 372 3047 722 3315 
Q 1072 3584 1716 3584 
Q 2034 3584 2315 3537 
Q 2597 3491 2834 3397 
z
" transform="scale(0.015625)"/>
      </defs>
      <use xlink:href="#DejaVuSans-45"/>
      <use xlink:href="#DejaVuSans-70" x="63.183594"/>
      <use xlink:href="#DejaVuSans-6f" x="126.660156"/>
      <use xlink:href="#DejaVuSans-63" x="187.841797"/>
      <use xlink:href="#DejaVuSans-68" x="242.822266"/>
      <use xlink:href="#DejaVuSans-73" x="306.201172"/>
     </g>
    </g>
   </g>
   <g id="matplotlib.axis_2">
    <g id="ytick_1">
     <g id="line2d_13">
      <path d="M 43.78125 235.005186 
L 322.78125 235.005186 
" clip-path="url(#pb0e05f95cb)" style="fill: none; stroke-dasharray: 2.96,1.28; stroke-dashoffset: 0; stroke: #b0b0b0; stroke-opacity: 0.4; stroke-width: 0.8"/>
     </g>
     <g id="line2d_14">
      <defs>
       <path id="mff728b9b92" d="M 0 0 
L -3.5 0 
" style="stroke: #000000; stroke-width: 0.8"/>
      </defs>
      <g>
       <use xlink:href="#mff728b9b92" x="43.78125" y="235.005186" style="stroke: #000000; stroke-width: 0.8"/>
      </g>
     </g>
     <g id="text_8">
      <!-- 0.0 -->
      <g transform="translate(20.878125 238.804405) scale(0.1 -0.1)">
       <defs>
        <path id="DejaVuSans-2e" d="M 684 794 
L 1344 794 
L 1344 0 
L 684 0 
L 684 794 
z
" transform="scale(0.015625)"/>
       </defs>
       <use xlink:href="#DejaVuSans-30"/>
       <use xlink:href="#DejaVuSans-2e" x="63.623047"/>
       <use xlink:href="#DejaVuSans-30" x="95.410156"/>
      </g>
     </g>
    </g>
    <g id="ytick_2">
     <g id="line2d_15">
      <path d="M 43.78125 204.854423 
L 322.78125 204.854423 
" clip-path="url(#pb0e05f95cb)" style="fill: none; stroke-dasharray: 2.96,1.28; stroke-dashoffset: 0; stroke: #b0b0b0; stroke-opacity: 0.4; stroke-width: 0.8"/>
     </g>
     <g id="line2d_16">
      <g>
       <use xlink:href="#mff728b9b92" x="43.78125" y="204.854423" style="stroke: #000000; stroke-width: 0.8"/>
      </g>
     </g>
     <g id="text_9">
      <!-- 0.5 -->
      <g transform="translate(20.878125 208.653642) scale(0.1 -0.1)">
       <defs>
        <path id="DejaVuSans-35" d="M 691 4666 
L 3169 4666 
L 3169 4134 
L 1269 4134 
L 1269 2991 
Q 1406 3038 1543 3061 
Q 1681 3084 1819 3084 
Q 2600 3084 3056 2656 
Q 3513 2228 3513 1497 
Q 3513 744 3044 326 
Q 2575 -91 1722 -91 
Q 1428 -91 1123 -41 
Q 819 9 494 109 
L 494 744 
Q 775 591 1075 516 
Q 1375 441 1709 441 
Q 2250 441 2565 725 
Q 2881 1009 2881 1497 
Q 2881 1984 2565 2268 
Q 2250 2553 1709 2553 
Q 1456 2553 1204 2497 
Q 953 2441 691 2322 
L 691 4666 
z
" transform="scale(0.015625)"/>
       </defs>
       <use xlink:href="#DejaVuSans-30"/>
       <use xlink:href="#DejaVuSans-2e" x="63.623047"/>
       <use xlink:href="#DejaVuSans-35" x="95.410156"/>
      </g>
     </g>
    </g>
    <g id="ytick_3">
     <g id="line2d_17">
      <path d="M 43.78125 174.70366 
L 322.78125 174.70366 
" clip-path="url(#pb0e05f95cb)" style="fill: none; stroke-dasharray: 2.96,1.28; stroke-dashoffset: 0; stroke: #b0b0b0; stroke-opacity: 0.4; stroke-width: 0.8"/>
     </g>
     <g id="line2d_18">
      <g>
       <use xlink:href="#mff728b9b92" x="43.78125" y="174.70366" style="stroke: #000000; stroke-width: 0.8"/>
      </g>
     </g>
     <g id="text_10">
      <!-- 1.0 -->
      <g transform="translate(20.878125 178.502878) scale(0.1 -0.1)">
       <use xlink:href="#DejaVuSans-31"/>
       <use xlink:href="#DejaVuSans-2e" x="63.623047"/>
       <use xlink:href="#DejaVuSans-30" x="95.410156"/>
      </g>
     </g>
    </g>
    <g id="ytick_4">
     <g id="line2d_19">
      <path d="M 43.78125 144.552896 
L 322.78125 144.552896 
" clip-path="url(#pb0e05f95cb)" style="fill: none; stroke-dasharray: 2.96,1.28; stroke-dashoffset: 0; stroke: #b0b0b0; stroke-opacity: 0.4; stroke-width: 0.8"/>
     </g>
     <g id="line2d_20">
      <g>
       <use xlink:href="#mff728b9b92" x="43.78125" y="144.552896" style="stroke: #000000; stroke-width: 0.8"/>
      </g>
     </g>
     <g id="text_11">
      <!-- 1.5 -->
      <g transform="translate(20.878125 148.352115) scale(0.1 -0.1)">
       <use xlink:href="#DejaVuSans-31"/>
       <use xlink:href="#DejaVuSans-2e" x="63.623047"/>
       <use xlink:href="#DejaVuSans-35" x="95.410156"/>
      </g>
     </g>
    </g>
    <g id="ytick_5">
     <g id="line2d_21">
      <path d="M 43.78125 114.402133 
L 322.78125 114.402133 
" clip-path="url(#pb0e05f95cb)" style="fill: none; stroke-dasharray: 2.96,1.28; stroke-dashoffset: 0; stroke: #b0b0b0; stroke-opacity: 0.4; stroke-width: 0.8"/>
     </g>
     <g id="line2d_22">
      <g>
       <use xlink:href="#mff728b9b92" x="43.78125" y="114.402133" style="stroke: #000000; stroke-width: 0.8"/>
      </g>
     </g>
     <g id="text_12">
      <!-- 2.0 -->
      <g transform="translate(20.878125 118.201352) scale(0.1 -0.1)">
       <use xlink:href="#DejaVuSans-32"/>
       <use xlink:href="#DejaVuSans-2e" x="63.623047"/>
       <use xlink:href="#DejaVuSans-30" x="95.410156"/>
      </g>
     </g>
    </g>
    <g id="ytick_6">
     <g id="line2d_23">
      <path d="M 43.78125 84.25137 
L 322.78125 84.25137 
" clip-path="url(#pb0e05f95cb)" style="fill: none; stroke-dasharray: 2.96,1.28; stroke-dashoffset: 0; stroke: #b0b0b0; stroke-opacity: 0.4; stroke-width: 0.8"/>
     </g>
     <g id="line2d_24">
      <g>
       <use xlink:href="#mff728b9b92" x="43.78125" y="84.25137" style="stroke: #000000; stroke-width: 0.8"/>
      </g>
     </g>
     <g id="text_13">
      <!-- 2.5 -->
      <g transform="translate(20.878125 88.050588) scale(0.1 -0.1)">
       <use xlink:href="#DejaVuSans-32"/>
       <use xlink:href="#DejaVuSans-2e" x="63.623047"/>
       <use xlink:href="#DejaVuSans-35" x="95.410156"/>
      </g>
     </g>
    </g>
    <g id="ytick_7">
     <g id="line2d_25">
      <path d="M 43.78125 54.100606 
L 322.78125 54.100606 
" clip-path="url(#pb0e05f95cb)" style="fill: none; stroke-dasharray: 2.96,1.28; stroke-dashoffset: 0; stroke: #b0b0b0; stroke-opacity: 0.4; stroke-width: 0.8"/>
     </g>
     <g id="line2d_26">
      <g>
       <use xlink:href="#mff728b9b92" x="43.78125" y="54.100606" style="stroke: #000000; stroke-width: 0.8"/>
      </g>
     </g>
     <g id="text_14">
      <!-- 3.0 -->
      <g transform="translate(20.878125 57.899825) scale(0.1 -0.1)">
       <defs>
        <path id="DejaVuSans-33" d="M 2597 2516 
Q 3050 2419 3304 2112 
Q 3559 1806 3559 1356 
Q 3559 666 3084 287 
Q 2609 -91 1734 -91 
Q 1441 -91 1130 -33 
Q 819 25 488 141 
L 488 750 
Q 750 597 1062 519 
Q 1375 441 1716 441 
Q 2309 441 2620 675 
Q 2931 909 2931 1356 
Q 2931 1769 2642 2001 
Q 2353 2234 1838 2234 
L 1294 2234 
L 1294 2753 
L 1863 2753 
Q 2328 2753 2575 2939 
Q 2822 3125 2822 3475 
Q 2822 3834 2567 4026 
Q 2313 4219 1838 4219 
Q 1578 4219 1281 4162 
Q 984 4106 628 3988 
L 628 4550 
Q 988 4650 1302 4700 
Q 1616 4750 1894 4750 
Q 2613 4750 3031 4423 
Q 3450 4097 3450 3541 
Q 3450 3153 3228 2886 
Q 3006 2619 2597 2516 
z
" transform="scale(0.015625)"/>
       </defs>
       <use xlink:href="#DejaVuSans-33"/>
       <use xlink:href="#DejaVuSans-2e" x="63.623047"/>
       <use xlink:href="#DejaVuSans-30" x="95.410156"/>
      </g>
     </g>
    </g>
    <g id="text_15">
     <!-- Loss -->
     <g transform="translate(14.798438 149.495187) rotate(-90) scale(0.1 -0.1)">
      <defs>
       <path id="DejaVuSans-4c" d="M 628 4666 
L 1259 4666 
L 1259 531 
L 3531 531 
L 3531 0 
L 628 0 
L 628 4666 
z
" transform="scale(0.015625)"/>
      </defs>
      <use xlink:href="#DejaVuSans-4c"/>
      <use xlink:href="#DejaVuSans-6f" x="53.962891"/>
      <use xlink:href="#DejaVuSans-73" x="115.144531"/>
      <use xlink:href="#DejaVuSans-73" x="167.244141"/>
     </g>
    </g>
   </g>
   <g id="line2d_27">
    <path d="M 56.463068 191.211742 
L 56.716958 193.176169 
L 56.970849 193.575803 
L 57.224739 193.424219 
L 57.478629 194.302708 
L 57.732519 196.553601 
L 57.98641 199.808864 
L 58.49419 208.35375 
L 58.74808 209.313947 
L 59.001971 208.817175 
L 59.255861 211.981329 
L 59.763641 213.756177 
L 60.017532 213.759701 
L 60.271422 214.15242 
L 60.525312 214.087188 
L 60.779202 214.403859 
L 61.033093 215.353241 
L 61.286983 215.271939 
L 61.540873 215.066713 
L 61.794764 215.13332 
L 62.048654 215.890686 
L 62.302544 214.622002 
L 62.556434 216.628304 
L 62.810325 216.614575 
L 63.064215 216.944801 
L 63.318105 216.213525 
L 63.571995 217.480695 
L 63.825886 217.554271 
L 64.079776 216.526178 
L 64.333666 217.259158 
L 64.587556 217.490171 
L 64.841447 217.556271 
L 65.095337 217.421372 
L 65.603117 218.352302 
L 65.857008 217.978008 
L 66.110898 218.266905 
L 66.618678 218.272839 
L 66.872569 218.536373 
L 67.126459 218.281521 
L 67.380349 219.047982 
L 67.634239 219.274068 
L 67.88813 218.483604 
L 68.39591 219.137607 
L 68.6498 219.430049 
L 68.903691 218.977988 
L 69.157581 218.900959 
L 69.665361 219.520048 
L 70.173142 218.020062 
L 70.427032 219.372407 
L 70.680922 219.689594 
L 70.934813 218.81104 
L 71.188703 220.014147 
L 71.442593 219.184778 
L 71.696483 219.76492 
L 71.950374 219.571492 
L 72.204264 220.87035 
L 72.712044 220.018575 
L 72.965935 220.008097 
L 73.219825 221.203536 
L 73.473715 220.687924 
L 73.727605 221.13514 
L 73.981496 220.309873 
L 74.235386 220.184345 
L 74.489276 219.724081 
L 74.743166 221.671355 
L 74.997057 220.695491 
L 75.250947 221.650205 
L 75.504837 220.631851 
L 75.758727 221.2509 
L 76.012618 220.316723 
L 76.266508 220.160605 
L 76.774288 221.711425 
L 77.028179 221.322852 
L 77.282069 222.878786 
L 78.04374 223.333913 
L 78.29763 223.419405 
L 78.805411 223.40867 
L 79.059301 223.432463 
L 79.313191 223.312762 
L 79.567081 224.040306 
L 79.820972 223.290923 
L 80.074862 223.34883 
L 80.328752 223.870354 
L 80.836533 223.958741 
L 81.090423 224.338386 
L 81.344313 223.951015 
L 81.598203 224.819213 
L 81.852094 224.13651 
L 82.359874 224.464353 
L 82.613764 224.751569 
L 82.867655 224.772284 
L 83.121545 225.125717 
L 83.375435 224.299851 
L 83.883216 224.655716 
L 84.137106 224.018091 
L 84.390996 224.951337 
L 84.644886 223.945366 
L 85.152667 225.494448 
L 85.406557 223.968345 
L 85.914338 225.041408 
L 86.168228 225.153705 
L 86.422118 223.703688 
L 86.676008 224.814159 
L 86.929899 225.018013 
L 87.183789 224.39652 
L 87.691569 224.727277 
L 87.94546 225.621264 
L 88.19935 225.163076 
L 88.70713 224.873811 
L 88.961021 225.05544 
L 89.214911 224.266551 
L 89.468801 224.14197 
L 89.722691 224.593777 
L 89.976582 225.78899 
L 90.230472 226.10463 
L 90.484362 226.815552 
L 90.738252 226.651407 
L 90.992143 226.971904 
L 91.246033 226.508832 
L 91.499923 226.695276 
L 91.753813 226.6612 
L 92.007704 226.454116 
L 92.515484 226.597496 
L 92.769374 227.188525 
L 93.023265 226.600552 
L 93.277155 226.619189 
L 93.531045 227.535035 
L 93.784936 227.007842 
L 94.038826 226.987318 
L 94.292716 226.647679 
L 94.546606 226.982539 
L 94.800497 226.9747 
L 95.054387 227.288687 
L 95.562167 227.086998 
L 95.816058 227.350854 
L 96.323838 226.425361 
L 96.577728 227.278376 
L 96.831619 226.663113 
L 97.085509 227.445686 
L 97.339399 227.249573 
L 97.593289 227.328288 
L 97.84718 226.762892 
L 98.10107 227.038478 
L 98.35496 226.09302 
L 98.60885 227.313905 
L 98.862741 227.006767 
L 99.370521 227.816572 
L 99.624411 226.668981 
L 99.878302 227.384389 
L 100.386082 227.164328 
L 100.639972 227.490138 
L 100.893863 226.828861 
L 101.147753 226.913902 
L 101.401643 227.493016 
L 101.655533 227.146109 
L 101.909424 227.217675 
L 102.163314 227.63299 
L 102.417204 226.271114 
L 102.924985 228.271715 
L 103.178875 227.600682 
L 103.686655 228.254752 
L 103.940546 227.868185 
L 104.194436 227.894393 
L 104.448326 227.156172 
L 104.702216 228.298665 
L 104.956107 228.272075 
L 105.209997 228.737783 
L 105.463887 228.124575 
L 105.717777 228.521893 
L 105.971668 228.018373 
L 106.225558 228.323171 
L 106.479448 227.877445 
L 106.733338 228.058152 
L 106.987229 228.002333 
L 107.241119 228.175271 
L 107.495009 227.859293 
L 107.748899 227.927028 
L 108.00279 228.343077 
L 108.25668 227.851363 
L 108.76446 228.612216 
L 109.272241 228.030474 
L 109.526131 228.68183 
L 109.780021 228.808225 
L 110.033912 228.2105 
L 110.795583 228.616287 
L 111.049473 228.025602 
L 111.303363 228.733857 
L 111.557253 228.539958 
L 111.811144 228.71422 
L 112.065034 229.029719 
L 112.318924 228.88273 
L 112.572814 227.946193 
L 113.334485 228.927824 
L 113.588375 228.397268 
L 113.842266 228.614759 
L 114.096156 228.100304 
L 114.350046 228.546564 
L 114.603936 228.439352 
L 114.857827 228.663225 
L 115.111717 228.442588 
L 115.365607 228.960619 
L 115.873388 229.153701 
L 116.127278 228.528904 
L 116.381168 228.840492 
L 116.635058 228.781503 
L 116.888949 229.212547 
L 117.142839 229.012657 
L 117.396729 229.237602 
L 117.650619 228.856467 
L 118.1584 228.633413 
L 118.41229 229.518178 
L 118.66618 229.475845 
L 118.920071 228.411924 
L 119.173961 229.080608 
L 119.427851 229.081686 
L 119.681741 228.672667 
L 119.935632 229.084024 
L 120.189522 229.056851 
L 120.443412 229.254724 
L 120.697302 228.633959 
L 120.951193 229.166692 
L 121.205083 228.820994 
L 121.458973 229.298002 
L 121.712863 229.294747 
L 121.966754 228.98843 
L 122.220644 229.342505 
L 122.474534 229.15058 
L 122.728424 229.311957 
L 122.982315 228.807795 
L 123.236205 229.272869 
L 123.490095 228.960005 
L 123.743985 228.977326 
L 124.251766 229.594391 
L 124.505656 229.015454 
L 125.013437 229.13023 
L 125.267327 228.996241 
L 125.521217 229.135856 
L 125.775107 228.582292 
L 126.028998 229.279923 
L 126.282888 228.514198 
L 126.790669 229.387727 
L 127.044559 229.445316 
L 127.298449 228.161171 
L 127.80623 229.538687 
L 128.06012 228.896195 
L 128.31401 229.666845 
L 128.5679 228.883877 
L 128.821791 229.182333 
L 129.075681 229.847061 
L 129.329571 229.89273 
L 129.583461 229.267284 
L 129.837352 229.506921 
L 130.091242 228.844453 
L 131.106803 229.609307 
L 131.360693 229.345779 
L 131.614583 229.814148 
L 132.122364 229.109778 
L 132.376254 229.914312 
L 132.630144 229.246079 
L 132.884035 229.376667 
L 133.137925 228.680847 
L 133.391815 230.007688 
L 133.899596 229.660027 
L 134.153486 229.760111 
L 134.661266 229.025213 
L 134.915157 229.461471 
L 135.169047 229.320165 
L 135.422937 229.807461 
L 135.676827 229.358186 
L 135.930718 229.516033 
L 136.184608 229.455149 
L 136.438498 228.946536 
L 136.946279 229.722269 
L 137.200169 228.65604 
L 137.454059 229.341985 
L 137.96184 229.461222 
L 138.21573 229.817225 
L 138.46962 229.292779 
L 138.72351 229.537266 
L 138.977401 229.449228 
L 139.231291 229.171201 
L 139.485181 229.286054 
L 139.739071 229.118455 
L 139.992962 229.403028 
L 140.246852 228.789501 
L 140.500742 229.548752 
L 140.754632 229.683028 
L 141.008523 229.605183 
L 141.262413 230.102956 
L 141.516303 229.242464 
L 141.770193 229.731516 
L 142.024084 229.327046 
L 142.277974 229.343159 
L 142.531864 229.202489 
L 142.785755 229.775762 
L 143.039645 229.627696 
L 143.293535 229.219505 
L 143.547425 229.755363 
L 143.801316 229.44818 
L 144.055206 229.83559 
L 144.309096 229.935055 
L 144.562986 229.389812 
L 144.816877 229.388585 
L 145.070767 229.123135 
L 145.324657 229.180756 
L 145.578547 230.185356 
L 146.340218 229.493286 
L 146.594108 230.035505 
L 146.847999 229.037231 
L 147.101889 228.877924 
L 147.355779 229.416629 
L 147.609669 229.218136 
L 147.86356 229.720127 
L 148.11745 229.624695 
L 148.37134 229.342121 
L 148.62523 230.060622 
L 148.879121 229.280325 
L 149.133011 229.485157 
L 149.386901 229.340416 
L 149.640791 229.53326 
L 149.894682 229.286532 
L 150.148572 229.49156 
L 150.402462 229.164046 
L 150.656352 229.73628 
L 150.910243 229.789084 
L 151.164133 229.676613 
L 151.418023 229.902316 
L 151.671913 229.446897 
L 151.925804 229.431224 
L 152.179694 229.284921 
L 152.433584 229.554351 
L 152.687474 229.17598 
L 152.941365 229.940064 
L 153.195255 229.02157 
L 153.449145 229.496827 
L 153.956926 229.919946 
L 154.210816 229.288216 
L 154.464706 229.485265 
L 154.718596 229.823293 
L 155.226377 229.695899 
L 155.480267 230.017075 
L 155.734157 229.514645 
L 155.988048 229.498196 
L 156.241938 229.868778 
L 156.495828 229.43148 
L 156.749718 229.655639 
L 157.003609 229.333182 
L 157.511389 230.099224 
L 158.01917 229.657927 
L 158.52695 229.803309 
L 158.78084 228.970704 
L 159.034731 229.047288 
L 159.288621 229.617948 
L 159.796402 229.16247 
L 160.050292 229.835086 
L 160.304182 229.43312 
L 160.558072 229.379898 
L 160.811963 229.816901 
L 161.065853 229.407974 
L 161.319743 229.46393 
L 161.573633 230.095503 
L 161.827524 229.603351 
L 162.081414 230.187366 
L 162.335304 229.443687 
L 162.589194 229.253929 
L 162.843085 229.714183 
L 163.096975 229.428639 
L 163.604755 229.801658 
L 164.112536 229.033657 
L 164.620316 229.47119 
L 164.874207 229.409633 
L 165.128097 229.695538 
L 165.381987 229.520018 
L 165.635877 228.930797 
L 165.889768 229.904782 
L 166.143658 229.547193 
L 166.397548 229.934467 
L 166.651438 230.051128 
L 166.905329 229.578391 
L 167.666999 229.497756 
L 167.92089 230.092195 
L 168.17478 229.747736 
L 168.42867 229.64907 
L 168.68256 229.693531 
L 168.936451 229.856525 
L 169.190341 229.464006 
L 169.444231 229.869404 
L 169.698121 229.841287 
L 169.952012 229.607279 
L 170.205902 230.031518 
L 170.459792 229.276142 
L 170.713682 229.44198 
L 170.967573 229.94426 
L 171.221463 229.803532 
L 171.475353 229.1763 
L 171.729243 229.39298 
L 171.983134 229.961572 
L 172.237024 229.333314 
L 172.490914 229.49246 
L 172.744804 229.358439 
L 172.998695 230.070335 
L 173.252585 229.632711 
L 173.506475 229.876709 
L 173.760365 229.82367 
L 174.014256 229.422689 
L 174.268146 229.65661 
L 174.522036 229.675398 
L 174.775926 230.004408 
L 175.029817 228.991927 
L 175.537597 229.62424 
L 176.045378 229.153184 
L 176.299268 230.557091 
L 176.553158 229.369791 
L 176.807049 229.221454 
L 177.314829 229.960383 
L 177.568719 229.699018 
L 177.82261 230.157038 
L 178.33039 229.6679 
L 179.092061 229.795911 
L 179.345951 229.678232 
L 179.599841 229.948094 
L 179.853732 229.736174 
L 180.107622 229.749366 
L 180.361512 229.522023 
L 180.615402 230.054676 
L 180.869293 229.849928 
L 181.123183 230.038119 
L 181.377073 229.321453 
L 181.630963 229.957469 
L 181.884854 229.629007 
L 182.646524 229.949711 
L 182.900415 229.264804 
L 183.154305 229.882377 
L 183.408195 229.591791 
L 183.662085 229.804275 
L 183.915976 229.683706 
L 184.169866 229.96803 
L 184.423756 229.652577 
L 184.677646 229.045116 
L 184.931537 229.605707 
L 185.439317 230.153133 
L 185.947098 229.647239 
L 186.454878 230.185129 
L 186.962659 229.524906 
L 187.216549 229.930262 
L 187.470439 230.032993 
L 187.724329 230.378271 
L 187.97822 229.540862 
L 188.23211 229.50579 
L 188.486 230.20023 
L 188.993781 229.811588 
L 189.247671 230.023782 
L 189.755451 229.584946 
L 190.009342 229.971718 
L 190.263232 229.334577 
L 190.517122 229.688313 
L 191.024903 229.341157 
L 191.278793 229.956722 
L 191.532683 229.826825 
L 191.786574 229.56501 
L 192.040464 230.046236 
L 192.294354 229.530085 
L 192.548244 229.989774 
L 193.056025 229.875796 
L 193.309915 229.76568 
L 193.563805 229.075821 
L 193.817696 230.409881 
L 194.071586 229.836649 
L 194.325476 229.575867 
L 194.833257 230.465248 
L 195.341037 229.384508 
L 195.594927 229.822474 
L 195.848818 229.825879 
L 196.102708 229.483844 
L 196.356598 230.215492 
L 196.610488 229.819161 
L 196.864379 229.648936 
L 197.118269 229.100078 
L 197.372159 229.108486 
L 197.626049 230.059419 
L 197.87994 230.140786 
L 198.13383 229.325187 
L 198.38772 229.725247 
L 198.64161 229.75445 
L 198.895501 229.983445 
L 199.149391 229.391461 
L 199.403281 229.61861 
L 199.657171 230.165653 
L 199.911062 230.036832 
L 200.164952 230.066988 
L 200.418842 229.357429 
L 200.672732 229.763932 
L 201.180513 229.344627 
L 201.434403 229.726932 
L 201.688293 229.383796 
L 201.942184 229.903337 
L 202.449964 229.851053 
L 202.703854 230.127075 
L 202.957745 230.033683 
L 203.211635 229.729651 
L 203.465525 229.959919 
L 203.719415 229.87482 
L 203.973306 229.649078 
L 204.227196 230.084437 
L 204.734976 229.386073 
L 204.988867 229.823223 
L 205.242757 229.956636 
L 205.496647 229.65376 
L 205.750537 229.523918 
L 206.004428 230.147009 
L 206.258318 230.12836 
L 206.512208 229.453521 
L 206.766098 229.873592 
L 207.019989 229.368367 
L 207.527769 229.863175 
L 207.78166 230.212167 
L 208.03555 229.454447 
L 208.28944 229.227037 
L 208.54333 229.958546 
L 208.797221 229.798859 
L 209.051111 229.80721 
L 209.305001 230.051901 
L 209.558891 230.085604 
L 209.812782 229.695709 
L 210.066672 229.816534 
L 210.320562 229.465569 
L 210.574452 230.38905 
L 210.828343 229.97295 
L 211.082233 229.922597 
L 211.336123 229.683474 
L 211.590013 229.960374 
L 211.843904 230.068056 
L 212.097794 230.316035 
L 212.605574 230.040019 
L 212.859465 229.268718 
L 213.113355 229.87216 
L 213.367245 229.757274 
L 213.621135 229.166589 
L 213.875026 229.621859 
L 214.382806 229.316725 
L 214.890587 229.479048 
L 215.144477 229.596298 
L 215.652257 230.147059 
L 215.906148 229.181021 
L 216.160038 229.885854 
L 216.413928 229.653191 
L 217.175599 229.568724 
L 217.429489 229.911827 
L 217.683379 229.878977 
L 217.93727 229.52798 
L 218.19116 230.190775 
L 218.69894 229.432492 
L 218.952831 229.667144 
L 219.460611 229.931587 
L 219.968392 229.323599 
L 220.222282 229.815002 
L 220.730062 230.229588 
L 220.983953 229.965588 
L 221.237843 230.014651 
L 221.491733 229.91236 
L 221.745623 229.601098 
L 222.253404 229.404493 
L 222.507294 229.998667 
L 222.761184 229.599061 
L 223.015075 229.510485 
L 223.268965 229.715932 
L 223.522855 228.933297 
L 223.776745 230.071716 
L 224.030636 229.413092 
L 224.284526 229.695165 
L 224.538416 229.555248 
L 224.792307 229.201743 
L 225.553977 230.51448 
L 225.807868 230.157233 
L 226.061758 230.100316 
L 226.315648 229.927073 
L 226.569538 229.920938 
L 226.823429 229.601985 
L 227.077319 229.720586 
L 227.585099 229.804192 
L 227.83899 230.249888 
L 228.09288 229.483406 
L 228.34677 229.758579 
L 228.854551 229.897135 
L 229.108441 229.676797 
L 229.362331 230.113056 
L 229.616221 229.437167 
L 229.870112 229.202615 
L 230.124002 229.991233 
L 230.377892 229.083031 
L 230.631782 229.682053 
L 231.393453 230.063295 
L 231.647343 229.271774 
L 231.901234 229.194621 
L 232.155124 229.799518 
L 232.409014 229.488814 
L 232.662904 229.73184 
L 232.916795 229.702314 
L 233.170685 229.845898 
L 233.424575 229.417905 
L 233.678465 230.119519 
L 233.932356 230.118985 
L 234.694026 229.521132 
L 234.947917 229.977079 
L 235.201807 229.692277 
L 235.455697 229.917366 
L 235.709587 229.963074 
L 236.217368 229.632933 
L 236.471258 228.989862 
L 236.725148 230.013141 
L 236.979039 229.74757 
L 237.232929 229.872128 
L 237.486819 229.335951 
L 237.740709 229.300513 
L 237.9946 230.306888 
L 238.50238 229.816515 
L 238.75627 230.134773 
L 239.010161 229.587303 
L 239.264051 229.952413 
L 239.517941 228.829327 
L 239.771831 230.095514 
L 240.025722 229.520988 
L 240.279612 229.678542 
L 240.533502 230.104738 
L 240.787393 229.514192 
L 241.041283 229.657096 
L 241.295173 230.00335 
L 241.549063 229.697414 
L 242.056844 229.976461 
L 242.564624 229.532622 
L 242.818515 230.191281 
L 243.326295 229.488282 
L 243.580185 229.951859 
L 244.087966 229.631584 
L 244.341856 229.982732 
L 244.849637 230.003871 
L 245.103527 230.397976 
L 245.357417 229.513897 
L 245.611307 229.492232 
L 246.119088 230.085325 
L 246.372978 229.112082 
L 246.880759 229.77243 
L 247.388539 229.43962 
L 247.642429 230.311784 
L 247.89632 230.118448 
L 248.15021 230.139787 
L 248.4041 230.023032 
L 248.65799 229.511105 
L 249.419661 230.169107 
L 249.673551 229.217561 
L 249.927442 230.206039 
L 250.181332 230.058945 
L 250.435222 229.265842 
L 250.689112 229.958715 
L 250.943003 229.509996 
L 251.196893 230.211392 
L 251.704673 229.233647 
L 251.958564 230.132558 
L 252.212454 229.664467 
L 252.466344 230.024915 
L 252.720234 229.42342 
L 252.974125 229.570839 
L 253.228015 229.363496 
L 253.481905 229.935196 
L 253.735795 229.983817 
L 253.989686 230.148766 
L 254.243576 229.871851 
L 254.497466 230.214109 
L 254.751356 229.529508 
L 255.259137 229.588705 
L 255.513027 229.989093 
L 255.766917 229.837413 
L 256.020808 229.487613 
L 256.274698 230.088782 
L 256.528588 229.716659 
L 256.782479 229.788056 
L 257.036369 230.014919 
L 257.290259 229.913822 
L 257.79804 230.218189 
L 258.05193 229.978572 
L 258.30582 230.024639 
L 258.55971 229.560379 
L 259.067491 230.007942 
L 259.575271 229.746463 
L 259.829162 229.864673 
L 260.336942 230.356598 
L 260.590832 229.807629 
L 260.844723 229.935571 
L 261.098613 229.607204 
L 261.352503 229.771732 
L 261.606393 229.653085 
L 261.860284 229.909327 
L 262.114174 229.191883 
L 262.368064 229.757755 
L 262.621954 229.818251 
L 262.875845 229.625052 
L 263.129735 229.826189 
L 263.383625 229.84542 
L 263.637515 229.626608 
L 264.145296 230.116345 
L 264.399186 229.166153 
L 264.653076 229.757742 
L 265.160857 230.258935 
L 265.414747 230.145016 
L 265.668637 229.564921 
L 265.922528 229.921419 
L 266.176418 229.654792 
L 266.430308 230.104383 
L 266.684198 230.256275 
L 266.938089 229.436768 
L 267.699759 229.751331 
L 267.95365 229.256349 
L 268.20754 229.967771 
L 268.969211 229.820918 
L 269.223101 230.366999 
L 269.476991 229.560676 
L 269.730881 229.752093 
L 269.984772 229.452241 
L 270.238662 229.362849 
L 270.492552 230.233181 
L 270.746442 230.14327 
L 271.000333 229.626954 
L 271.254223 229.503788 
L 271.508113 230.25742 
L 271.762003 229.647466 
L 272.015894 230.065423 
L 272.523674 229.497885 
L 272.777564 229.789676 
L 273.031455 229.779499 
L 273.285345 230.036819 
L 273.539235 229.762706 
L 273.793126 229.912147 
L 274.047016 230.364681 
L 274.300906 229.42464 
L 274.554796 229.612617 
L 274.808687 229.447345 
L 275.062577 229.756857 
L 275.316467 229.857394 
L 275.824248 229.54885 
L 276.078138 230.063632 
L 276.332028 229.623269 
L 276.585918 229.977946 
L 276.839809 229.49431 
L 277.093699 229.886004 
L 277.347589 229.548733 
L 277.601479 229.008528 
L 278.36315 230.0849 
L 278.61704 230.015691 
L 278.870931 229.564438 
L 279.124821 229.805934 
L 279.632601 229.503601 
L 279.886492 229.916092 
L 280.140382 229.534498 
L 280.648162 230.232048 
L 280.902053 229.148738 
L 281.155943 229.870384 
L 281.409833 229.681189 
L 281.663723 229.924514 
L 281.917614 229.777202 
L 282.171504 230.181552 
L 282.425394 229.701343 
L 282.679284 230.168316 
L 282.933175 229.571173 
L 283.187065 230.051862 
L 283.694845 229.550639 
L 283.948736 229.567526 
L 284.456516 230.473702 
L 284.710406 230.376646 
L 284.964297 229.341242 
L 285.472077 229.996381 
L 285.979858 229.75166 
L 286.233748 229.738184 
L 286.741528 229.313026 
L 286.995419 229.968545 
L 287.503199 229.847739 
L 287.757089 229.935322 
L 288.01098 229.812013 
L 288.26487 230.286888 
L 288.51876 229.544239 
L 288.77265 230.281748 
L 289.026541 229.664238 
L 289.788212 229.558419 
L 290.042102 229.692297 
L 290.295992 230.391982 
L 290.549882 229.620384 
L 290.803773 229.84756 
L 291.057663 229.373654 
L 291.311553 229.951612 
L 291.565443 229.340015 
L 291.819334 229.124008 
L 292.073224 229.659839 
L 292.327114 229.202182 
L 292.581004 229.660286 
L 292.834895 229.50764 
L 293.088785 230.189956 
L 293.342675 230.217682 
L 293.596565 229.545397 
L 293.850456 230.38205 
L 294.104346 229.876914 
L 294.358236 229.619365 
L 294.612126 229.711458 
L 294.866017 229.177495 
L 295.119907 230.357478 
L 295.373797 229.959914 
L 295.627687 229.849494 
L 296.135468 229.971169 
L 296.389358 230.156858 
L 296.643248 230.191238 
L 296.897139 229.929495 
L 297.404919 229.892002 
L 297.658809 229.720022 
L 297.9127 229.781611 
L 298.16659 229.974838 
L 298.42048 229.188631 
L 298.67437 229.463539 
L 298.928261 229.253193 
L 299.182151 230.546932 
L 299.436041 230.293352 
L 299.689931 228.86399 
L 299.943822 229.302009 
L 300.197712 230.128899 
L 300.451602 230.219744 
L 300.705492 230.041533 
L 300.959383 230.167688 
L 301.213273 229.808736 
L 301.467163 229.694513 
L 301.721053 229.943224 
L 301.974944 229.147595 
L 302.482724 229.926914 
L 302.736614 230.426503 
L 302.990505 229.77437 
L 303.244395 229.790467 
L 303.752175 230.200272 
L 304.006066 229.434019 
L 304.259956 230.293529 
L 304.513846 229.741996 
L 304.767736 230.083019 
L 305.021627 229.915164 
L 305.275517 229.543513 
L 305.783298 229.977204 
L 306.037188 229.684383 
L 306.291078 230.142405 
L 306.544968 230.213162 
L 307.052749 229.297447 
L 307.306639 230.373612 
L 307.560529 229.221456 
L 308.06831 229.938508 
L 308.3222 229.661828 
L 308.57609 230.149237 
L 308.829981 229.970767 
L 309.083871 229.19177 
L 309.337761 230.048843 
L 309.591651 229.752015 
L 310.099432 229.623776 
L 310.099432 229.623776 
" clip-path="url(#pb0e05f95cb)" style="fill: none; stroke: #0000ff; stroke-width: 0.6; stroke-linecap: square"/>
   </g>
   <g id="line2d_28">
    <path d="M 56.463068 186.479889 
L 56.970849 192.898467 
L 57.478629 193.42322 
L 57.732519 195.750059 
L 57.98641 187.933864 
L 58.2403 137.902317 
L 58.49419 123.945394 
L 58.74808 57.598043 
L 59.255861 207.580131 
L 59.509751 187.151572 
L 59.763641 198.811394 
L 60.017532 201.619076 
L 60.271422 167.068838 
L 60.525312 203.40162 
L 60.779202 187.329692 
L 61.033093 204.268646 
L 61.286983 209.556056 
L 61.540873 209.945243 
L 61.794764 211.297627 
L 62.048654 167.402643 
L 62.302544 194.601193 
L 62.556434 193.452096 
L 62.810325 202.874081 
L 63.064215 151.227924 
L 63.318105 215.290822 
L 63.571995 214.30257 
L 63.825886 201.946674 
L 64.333666 215.67996 
L 64.587556 212.773624 
L 64.841447 211.737714 
L 65.095337 199.419384 
L 65.349227 210.257258 
L 65.603117 207.964033 
L 65.857008 210.10082 
L 66.110898 143.454012 
L 66.364788 214.036653 
L 66.618678 211.645771 
L 66.872569 153.260832 
L 67.126459 214.85738 
L 67.380349 213.099818 
L 67.634239 208.183082 
L 67.88813 207.073487 
L 68.14202 203.585383 
L 68.39591 209.746821 
L 68.6498 204.274146 
L 68.903691 202.899751 
L 69.157581 211.462197 
L 69.411471 208.63764 
L 69.665361 211.037177 
L 69.919252 141.58503 
L 70.173142 211.354998 
L 70.427032 209.617503 
L 70.680922 172.906592 
L 70.934813 200.353368 
L 71.188703 181.866679 
L 71.442593 118.13078 
L 71.696483 190.979791 
L 71.950374 214.160424 
L 72.204264 213.518743 
L 72.458154 204.672637 
L 72.712044 212.216364 
L 72.965935 210.291488 
L 73.219825 211.732299 
L 73.473715 214.789873 
L 73.727605 211.319879 
L 73.981496 176.35621 
L 74.235386 196.421102 
L 74.489276 201.364894 
L 74.743166 214.998284 
L 74.997057 211.095702 
L 75.250947 179.811799 
L 75.504837 211.853594 
L 75.758727 177.902389 
L 76.012618 46.498909 
L 76.266508 211.985703 
L 76.520398 214.901489 
L 76.774288 187.369894 
L 77.028179 209.61889 
L 77.535959 211.710788 
L 77.78985 213.883811 
L 78.04374 122.914887 
L 78.29763 212.018526 
L 78.55152 211.698416 
L 78.805411 211.937154 
L 79.059301 196.077542 
L 79.313191 213.904604 
L 79.567081 210.656698 
L 79.820972 200.936632 
L 80.074862 212.632497 
L 80.328752 212.665983 
L 80.582642 207.670684 
L 80.836533 213.902859 
L 81.090423 212.366002 
L 81.344313 205.508402 
L 81.598203 204.930014 
L 81.852094 188.206294 
L 82.105984 188.023106 
L 82.359874 212.216657 
L 82.613764 211.086817 
L 82.867655 208.597987 
L 83.121545 211.83053 
L 83.375435 195.729766 
L 83.629325 212.858157 
L 83.883216 205.096997 
L 84.137106 212.868746 
L 84.390996 211.494257 
L 84.644886 212.12789 
L 84.898777 207.440345 
L 85.152667 197.25705 
L 85.406557 205.31368 
L 85.660447 138.836801 
L 85.914338 206.657361 
L 86.168228 205.59802 
L 86.422118 210.584563 
L 86.676008 209.996274 
L 86.929899 210.788269 
L 87.183789 206.887233 
L 87.437679 209.474973 
L 87.691569 210.103748 
L 87.94546 128.521185 
L 88.19935 204.380205 
L 88.45324 197.024854 
L 88.70713 205.53234 
L 88.961021 158.509941 
L 89.214911 211.875699 
L 89.468801 209.036307 
L 89.722691 210.893105 
L 89.976582 211.729289 
L 90.230472 207.790394 
L 90.484362 207.991586 
L 90.738252 211.888899 
L 90.992143 211.316031 
L 91.246033 211.391719 
L 91.499923 212.01866 
L 91.753813 210.55194 
L 92.261594 202.10637 
L 92.515484 202.932167 
L 92.769374 210.49447 
L 93.023265 196.138113 
L 93.277155 209.162476 
L 93.531045 210.311064 
L 93.784936 210.859479 
L 94.038826 207.376459 
L 94.292716 208.971472 
L 94.546606 200.378078 
L 94.800497 210.053488 
L 95.054387 206.375832 
L 95.308277 159.800493 
L 95.562167 209.212722 
L 95.816058 209.226398 
L 96.069948 210.869769 
L 96.323838 203.424928 
L 96.577728 177.097258 
L 96.831619 209.79851 
L 97.085509 207.664371 
L 97.339399 209.851843 
L 97.593289 199.775322 
L 97.84718 209.730043 
L 98.10107 84.390208 
L 98.35496 201.68011 
L 98.60885 207.605565 
L 98.862741 200.777726 
L 99.116631 208.056416 
L 99.370521 208.004245 
L 99.624411 209.600067 
L 99.878302 209.3487 
L 100.132192 209.841957 
L 100.386082 209.917896 
L 100.639972 204.136899 
L 100.893863 173.517564 
L 101.147753 210.578424 
L 101.401643 209.220974 
L 101.655533 209.470867 
L 101.909424 210.039249 
L 102.163314 198.755885 
L 102.417204 207.135667 
L 102.671094 207.013844 
L 102.924985 210.290812 
L 103.178875 210.124905 
L 103.432765 208.872154 
L 103.686655 209.947795 
L 103.940546 210.066846 
L 104.194436 209.701037 
L 104.448326 202.317651 
L 104.702216 209.126536 
L 104.956107 210.026881 
L 105.209997 210.434742 
L 105.463887 209.914703 
L 105.717777 210.580579 
L 105.971668 192.806979 
L 106.225558 209.548569 
L 106.479448 206.918977 
L 106.733338 208.100749 
L 106.987229 208.553876 
L 107.241119 206.994221 
L 107.495009 210.328266 
L 107.748899 209.376841 
L 108.00279 207.38456 
L 108.25668 209.130985 
L 108.51057 206.895169 
L 108.76446 207.612641 
L 109.018351 209.522288 
L 109.272241 208.920653 
L 109.526131 205.336669 
L 109.780021 209.367947 
L 110.033912 206.313831 
L 110.287802 206.739669 
L 110.541692 209.858451 
L 110.795583 208.99282 
L 111.049473 209.288805 
L 111.303363 208.453789 
L 111.557253 209.029316 
L 112.065034 207.81346 
L 112.318924 207.357752 
L 112.572814 208.973854 
L 112.826705 209.517577 
L 113.080595 203.467434 
L 113.334485 202.20675 
L 113.588375 206.07562 
L 113.842266 205.380947 
L 114.096156 209.608571 
L 114.350046 204.95666 
L 114.603936 206.428058 
L 114.857827 201.231594 
L 115.111717 208.304139 
L 115.365607 209.322185 
L 115.619497 206.310742 
L 115.873388 205.487414 
L 116.127278 203.476488 
L 116.381168 208.660262 
L 116.635058 204.764409 
L 116.888949 206.402976 
L 117.142839 206.973973 
L 117.396729 208.850873 
L 117.650619 209.101162 
L 117.90451 203.37619 
L 118.1584 207.455331 
L 118.41229 207.97043 
L 118.66618 208.836718 
L 119.173961 209.099852 
L 119.427851 208.222427 
L 119.681741 208.897943 
L 119.935632 209.052426 
L 120.189522 205.714396 
L 120.443412 209.214535 
L 120.697302 207.565788 
L 120.951193 208.789587 
L 121.205083 208.737895 
L 121.458973 209.206506 
L 121.712863 208.915185 
L 121.966754 209.349704 
L 122.220644 206.361431 
L 122.474534 207.986412 
L 122.728424 208.762585 
L 122.982315 207.339325 
L 123.236205 207.33644 
L 123.490095 208.630559 
L 123.743985 208.840625 
L 123.997876 208.448989 
L 124.251766 209.003862 
L 124.505656 198.662815 
L 124.759546 206.180463 
L 125.013437 208.893578 
L 125.267327 207.761603 
L 125.521217 207.176024 
L 125.775107 208.688599 
L 126.028998 207.405989 
L 126.282888 208.931447 
L 126.536778 208.804106 
L 126.790669 208.975167 
L 127.044559 206.740763 
L 127.298449 206.990522 
L 127.552339 208.995232 
L 127.80623 208.531574 
L 128.06012 208.953627 
L 128.31401 207.233587 
L 128.821791 208.491536 
L 129.075681 208.098247 
L 129.583461 208.900394 
L 129.837352 206.894969 
L 130.091242 208.717078 
L 130.345132 207.364835 
L 130.599022 208.237622 
L 130.852913 208.333743 
L 131.106803 208.957951 
L 131.360693 208.542206 
L 131.614583 208.67531 
L 131.868474 208.599117 
L 132.122364 208.35715 
L 132.630144 207.032798 
L 132.884035 208.734291 
L 133.137925 207.404902 
L 133.391815 206.902064 
L 133.645705 208.260328 
L 134.153486 208.09006 
L 134.407376 207.887175 
L 134.661266 207.119017 
L 134.915157 208.913267 
L 135.169047 206.11575 
L 135.422937 207.95925 
L 135.930718 208.651198 
L 136.438498 207.917244 
L 136.692388 208.682137 
L 137.200169 204.672324 
L 137.454059 208.556383 
L 137.707949 208.080274 
L 137.96184 208.736937 
L 138.21573 208.54236 
L 138.46962 207.711644 
L 138.977401 208.379129 
L 139.231291 207.863526 
L 139.739071 208.482803 
L 139.992962 208.360054 
L 140.246852 207.124507 
L 140.500742 208.298043 
L 140.754632 205.014033 
L 141.008523 208.086825 
L 141.262413 208.223126 
L 141.516303 206.996965 
L 141.770193 208.576211 
L 142.024084 207.748665 
L 142.277974 206.262101 
L 142.531864 208.276603 
L 142.785755 208.608304 
L 143.293535 206.601355 
L 143.547425 208.077052 
L 143.801316 208.707685 
L 144.055206 208.556574 
L 144.309096 207.722657 
L 144.562986 205.327168 
L 144.816877 208.035851 
L 145.070767 206.781271 
L 145.324657 208.6598 
L 145.578547 208.632946 
L 145.832438 207.680543 
L 146.086328 208.374368 
L 146.340218 208.392701 
L 146.594108 207.29956 
L 147.101889 208.276583 
L 147.355779 208.445288 
L 147.609669 208.332071 
L 147.86356 208.404102 
L 148.37134 207.147915 
L 148.62523 208.271487 
L 148.879121 208.027667 
L 149.133011 208.069175 
L 149.386901 208.584733 
L 149.640791 208.369299 
L 149.894682 208.495087 
L 150.148572 208.386763 
L 150.402462 207.865688 
L 150.656352 204.865355 
L 150.910243 205.442851 
L 151.164133 208.275927 
L 151.418023 208.141614 
L 151.925804 208.491773 
L 152.179694 208.325438 
L 152.433584 207.978174 
L 152.687474 208.34704 
L 152.941365 208.440336 
L 153.195255 207.91238 
L 153.703035 208.582733 
L 153.956926 207.860042 
L 154.210816 208.234672 
L 154.464706 208.149181 
L 154.718596 208.397668 
L 154.972487 207.881386 
L 155.226377 208.276486 
L 155.480267 207.494097 
L 155.734157 208.344806 
L 156.241938 206.842464 
L 156.749718 208.34594 
L 157.003609 208.103033 
L 157.257499 206.779759 
L 157.511389 208.403058 
L 157.765279 206.426439 
L 158.01917 207.913726 
L 158.27306 207.727558 
L 158.52695 208.165848 
L 158.78084 206.544222 
L 159.034731 207.580131 
L 159.542511 208.446122 
L 159.796402 208.401264 
L 160.050292 206.146157 
L 160.304182 208.386914 
L 160.558072 208.01914 
L 160.811963 207.856983 
L 161.065853 208.416017 
L 161.319743 208.454687 
L 161.573633 208.332815 
L 162.081414 208.452112 
L 162.335304 207.332237 
L 162.589194 208.40337 
L 162.843085 208.152839 
L 163.096975 207.272678 
L 163.350865 208.442798 
L 163.604755 207.616891 
L 163.858646 208.234834 
L 164.112536 206.971473 
L 164.366426 207.988333 
L 164.620316 206.786955 
L 164.874207 208.368977 
L 165.128097 208.42524 
L 165.381987 208.243518 
L 165.635877 208.393236 
L 165.889768 208.185341 
L 166.143658 208.347886 
L 166.651438 208.105865 
L 166.905329 207.257672 
L 167.159219 208.178581 
L 167.666999 208.329153 
L 167.92089 208.134483 
L 168.17478 208.31598 
L 168.68256 208.342635 
L 168.936451 207.971178 
L 169.444231 208.29011 
L 169.698121 208.386794 
L 169.952012 208.107166 
L 170.205902 208.133237 
L 170.459792 207.577976 
L 170.967573 208.19136 
L 171.221463 207.500976 
L 171.475353 208.206637 
L 171.729243 208.345072 
L 171.983134 207.64064 
L 172.237024 207.397783 
L 172.490914 207.510654 
L 172.744804 208.327287 
L 172.998695 207.882076 
L 173.506475 208.26037 
L 174.014256 207.890381 
L 174.522036 208.300113 
L 174.775926 207.691707 
L 175.029817 208.123536 
L 175.283707 208.275361 
L 175.791488 208.290245 
L 176.045378 207.553292 
L 176.299268 208.41762 
L 176.553158 208.215226 
L 176.807049 208.4632 
L 177.060939 207.47341 
L 177.314829 208.174275 
L 177.568719 208.276646 
L 177.82261 208.245493 
L 178.0765 208.397239 
L 178.33039 208.395866 
L 178.58428 208.003341 
L 178.838171 208.402571 
L 179.345951 208.548761 
L 179.599841 205.763684 
L 179.853732 208.151649 
L 180.107622 208.320636 
L 180.361512 208.038876 
L 180.869293 208.419555 
L 181.123183 207.972145 
L 181.377073 208.21985 
L 181.630963 207.36941 
L 181.884854 208.469898 
L 182.392634 208.088616 
L 182.646524 208.281448 
L 183.154305 208.276235 
L 183.408195 207.954731 
L 183.662085 208.218293 
L 183.915976 207.021987 
L 184.677646 208.429664 
L 184.931537 208.220107 
L 185.439317 208.193608 
L 185.693207 208.391024 
L 185.947098 208.322874 
L 186.200988 207.434775 
L 186.454878 208.478947 
L 186.708768 208.106498 
L 187.216549 208.52574 
L 187.470439 207.487769 
L 187.724329 208.361334 
L 187.97822 208.096898 
L 188.23211 208.426244 
L 188.486 206.920183 
L 188.73989 207.521178 
L 188.993781 207.382567 
L 189.247671 208.132901 
L 189.501561 208.132305 
L 190.009342 208.418671 
L 190.263232 208.446944 
L 190.517122 208.259036 
L 190.771012 208.245193 
L 191.024903 207.855393 
L 191.278793 207.957667 
L 191.786574 207.889213 
L 192.040464 208.020331 
L 192.294354 208.463576 
L 192.548244 208.351169 
L 192.802135 208.087288 
L 193.309915 208.166817 
L 193.563805 207.53712 
L 193.817696 207.980588 
L 194.071586 208.150907 
L 194.325476 208.102582 
L 194.833257 208.386382 
L 195.087147 207.781189 
L 195.848818 208.107021 
L 196.102708 207.856834 
L 196.356598 207.962343 
L 196.610488 208.220522 
L 196.864379 208.218274 
L 197.118269 208.10295 
L 197.372159 208.267181 
L 197.626049 208.072595 
L 197.87994 208.167012 
L 198.13383 207.595248 
L 198.38772 208.410467 
L 198.64161 208.078251 
L 198.895501 208.254069 
L 199.149391 207.507482 
L 199.403281 208.087571 
L 199.657171 208.288913 
L 200.164952 207.918299 
L 200.418842 208.250784 
L 200.672732 208.050981 
L 200.926623 208.350292 
L 201.180513 208.204019 
L 201.434403 208.374435 
L 201.688293 207.947499 
L 202.196074 208.502606 
L 203.211635 208.022551 
L 203.465525 208.290996 
L 203.719415 208.236856 
L 203.973306 208.296684 
L 204.227196 208.097645 
L 204.481086 208.221938 
L 204.734976 208.055688 
L 205.242757 208.159132 
L 205.496647 208.434261 
L 205.750537 208.249028 
L 206.766098 208.365704 
L 207.527769 208.242181 
L 207.78166 208.373299 
L 208.28944 208.267982 
L 208.54333 207.53328 
L 208.797221 208.216196 
L 209.051111 208.368406 
L 209.305001 207.654061 
L 209.558891 208.262956 
L 209.812782 207.793298 
L 210.066672 208.381165 
L 210.320562 208.164674 
L 210.574452 208.28017 
L 210.828343 208.033668 
L 211.082233 208.25611 
L 211.336123 207.725417 
L 211.590013 208.205751 
L 211.843904 207.96887 
L 212.097794 208.301134 
L 212.351684 207.996844 
L 212.605574 208.164957 
L 212.859465 208.199625 
L 213.113355 208.106938 
L 213.367245 208.200009 
L 213.621135 208.083013 
L 213.875026 208.213756 
L 214.128916 208.197756 
L 214.382806 208.070131 
L 214.636696 208.224729 
L 214.890587 208.12244 
L 215.144477 208.169343 
L 215.398367 207.90963 
L 215.652257 208.287632 
L 215.906148 207.927937 
L 216.160038 207.987084 
L 216.413928 208.342283 
L 216.667818 207.906406 
L 216.921709 208.288173 
L 217.175599 208.259735 
L 217.429489 207.765633 
L 217.683379 207.980011 
L 218.19116 208.146588 
L 218.44505 208.242671 
L 218.69894 208.18592 
L 218.952831 208.316233 
L 219.206721 207.957717 
L 219.460611 208.061719 
L 219.714501 207.565423 
L 219.968392 208.181465 
L 220.222282 208.173919 
L 220.476172 208.37434 
L 220.730062 208.084054 
L 221.237843 208.187942 
L 221.491733 207.99148 
L 221.745623 208.006109 
L 221.999514 208.13647 
L 222.507294 208.061465 
L 223.015075 208.285743 
L 223.268965 208.110254 
L 223.522855 208.408846 
L 224.030636 208.429136 
L 224.538416 208.164786 
L 224.792307 208.005976 
L 225.046197 208.274531 
L 225.300087 208.272419 
L 225.553977 208.023915 
L 226.061758 208.003156 
L 226.569538 208.18454 
L 227.077319 208.349268 
L 227.331209 208.067797 
L 227.585099 208.131131 
L 227.83899 207.980397 
L 228.09288 208.359247 
L 228.34677 208.01295 
L 228.60066 207.890336 
L 228.854551 208.285797 
L 229.108441 208.011241 
L 229.362331 208.218619 
L 229.616221 208.264287 
L 230.124002 208.089603 
L 230.631782 208.199681 
L 230.885673 208.08848 
L 231.139563 207.660272 
L 231.647343 208.226199 
L 232.155124 208.140496 
L 232.662904 207.96611 
L 232.916795 208.084138 
L 233.170685 208.067547 
L 233.424575 208.311359 
L 233.932356 208.394428 
L 234.186246 207.995186 
L 234.440136 206.858241 
L 234.694026 207.254376 
L 234.947917 208.17541 
L 235.201807 208.371989 
L 235.709587 208.155434 
L 235.963478 208.119985 
L 236.471258 208.344741 
L 236.725148 208.0188 
L 236.979039 208.240091 
L 237.486819 208.122029 
L 237.740709 207.947903 
L 237.9946 208.370781 
L 238.50238 208.440061 
L 239.010161 208.116195 
L 240.025722 208.121213 
L 240.279612 208.134882 
L 240.533502 208.298352 
L 240.787393 208.111893 
L 241.041283 208.191389 
L 241.295173 208.020653 
L 241.549063 208.419368 
L 241.802954 208.270547 
L 242.056844 207.840423 
L 242.564624 208.361645 
L 242.818515 207.891524 
L 243.072405 208.353042 
L 243.326295 208.204775 
L 243.580185 208.210444 
L 243.834076 207.969474 
L 244.341856 208.012666 
L 244.595746 208.269501 
L 245.103527 208.262321 
L 245.357417 208.258662 
L 245.611307 208.136612 
L 245.865198 208.303096 
L 246.119088 208.194981 
L 246.372978 208.307929 
L 246.626868 208.267901 
L 246.880759 208.102904 
L 247.134649 208.074998 
L 247.642429 207.299296 
L 247.89632 207.915517 
L 248.15021 208.197012 
L 248.4041 208.132301 
L 248.65799 208.281971 
L 248.911881 208.145402 
L 249.165771 208.27562 
L 249.419661 208.197765 
L 249.673551 207.662074 
L 249.927442 208.03579 
L 250.181332 208.187969 
L 250.689112 208.232638 
L 250.943003 207.294589 
L 251.196893 208.284604 
L 251.450783 208.181823 
L 251.704673 207.457035 
L 251.958564 208.199221 
L 252.212454 207.702163 
L 252.466344 206.491876 
L 252.720234 208.069527 
L 252.974125 208.368154 
L 253.228015 208.038504 
L 253.481905 207.508991 
L 253.735795 208.235359 
L 253.989686 207.986637 
L 254.243576 208.217981 
L 254.751356 208.008269 
L 255.005247 207.366413 
L 255.259137 208.296765 
L 256.020808 208.185731 
L 256.274698 207.833076 
L 256.782479 208.023235 
L 257.036369 207.141269 
L 257.290259 208.168768 
L 257.544149 207.954253 
L 257.79804 207.429519 
L 258.05193 208.131322 
L 258.55971 208.324351 
L 259.067491 208.304498 
L 259.321381 208.139581 
L 259.575271 208.261158 
L 260.083052 208.147499 
L 260.336942 208.54837 
L 260.844723 207.862419 
L 261.098613 208.356719 
L 261.352503 208.223667 
L 261.606393 208.360804 
L 261.860284 208.022639 
L 262.114174 208.045133 
L 262.368064 207.648447 
L 262.875845 208.211482 
L 263.129735 208.163907 
L 263.383625 208.254757 
L 264.145296 208.031436 
L 264.399186 208.291338 
L 264.653076 207.699683 
L 264.906967 208.309151 
L 265.160857 208.451846 
L 265.414747 208.002967 
L 265.668637 208.292238 
L 265.922528 208.265813 
L 266.176418 208.392077 
L 266.430308 207.827379 
L 266.938089 208.097191 
L 267.445869 208.13265 
L 267.699759 207.876649 
L 267.95365 208.137428 
L 268.20754 207.821538 
L 268.46143 208.22778 
L 268.969211 207.763815 
L 269.223101 207.998516 
L 269.476991 207.683729 
L 269.730881 208.186251 
L 269.984772 208.074619 
L 270.238662 208.228622 
L 270.492552 208.06793 
L 271.000333 208.355378 
L 271.254223 208.099317 
L 271.508113 208.061302 
L 271.762003 208.342761 
L 272.015894 208.317703 
L 272.269784 208.404458 
L 272.523674 208.230688 
L 272.777564 207.456228 
L 273.031455 208.232374 
L 273.285345 208.201708 
L 273.539235 208.283928 
L 274.808687 208.084517 
L 275.062577 207.429664 
L 275.316467 208.231398 
L 275.570357 207.621198 
L 275.824248 207.490305 
L 276.078138 208.229204 
L 276.332028 208.010366 
L 276.585918 208.317754 
L 277.347589 208.302165 
L 277.601479 208.101137 
L 277.85537 208.151744 
L 278.10926 207.902544 
L 278.61704 208.270804 
L 278.870931 207.824621 
L 279.124821 208.246909 
L 279.632601 208.112786 
L 280.140382 207.947632 
L 280.394272 207.86575 
L 280.648162 208.116001 
L 280.902053 208.140377 
L 281.155943 208.050086 
L 281.409833 208.186409 
L 281.663723 208.074453 
L 281.917614 208.103912 
L 282.171504 208.300985 
L 282.425394 208.171861 
L 282.679284 208.26005 
L 283.187065 207.785319 
L 283.440955 208.167469 
L 283.694845 207.509153 
L 283.948736 208.308802 
L 284.202626 208.298443 
L 284.456516 207.80248 
L 284.710406 208.335346 
L 285.218187 207.934935 
L 285.472077 207.293971 
L 285.725967 208.250692 
L 285.979858 208.443288 
L 286.487638 208.226749 
L 286.741528 208.323837 
L 286.995419 208.182755 
L 287.249309 207.594738 
L 287.503199 208.241309 
L 287.757089 207.622455 
L 288.01098 208.274164 
L 288.26487 208.087901 
L 288.51876 208.050091 
L 288.77265 208.203111 
L 289.026541 208.190959 
L 289.280431 207.765851 
L 289.788212 208.295676 
L 290.295992 208.202791 
L 290.803773 207.875562 
L 291.057663 208.339407 
L 291.311553 207.676417 
L 291.565443 208.357165 
L 291.819334 208.124997 
L 292.327114 208.2381 
L 292.581004 207.541203 
L 292.834895 208.254554 
L 293.088785 208.192 
L 293.342675 208.288935 
L 293.596565 207.868891 
L 294.104346 208.065806 
L 294.612126 208.21407 
L 295.119907 208.243829 
L 295.373797 207.570063 
L 295.627687 208.246762 
L 295.881578 208.162592 
L 296.135468 208.329106 
L 296.643248 208.244664 
L 296.897139 207.735338 
L 297.151029 208.209732 
L 297.404919 208.074788 
L 298.16659 208.197452 
L 298.42048 208.338607 
L 298.67437 208.069213 
L 299.182151 207.924472 
L 299.689931 208.244887 
L 299.943822 207.92132 
L 300.197712 208.394582 
L 300.451602 208.090996 
L 300.959383 208.247743 
L 301.213273 208.000816 
L 301.467163 207.556346 
L 301.721053 208.234229 
L 302.228834 207.958364 
L 302.736614 207.898818 
L 303.244395 208.328806 
L 304.006066 207.951246 
L 304.259956 208.437085 
L 304.513846 207.831992 
L 304.767736 207.76228 
L 305.021627 208.288083 
L 305.529407 208.327016 
L 305.783298 208.034807 
L 306.037188 208.228388 
L 306.544968 208.026265 
L 306.798859 208.150713 
L 307.052749 207.971589 
L 307.560529 208.25509 
L 308.3222 208.166328 
L 308.829981 208.294154 
L 309.083871 208.388372 
L 309.337761 207.982843 
L 309.591651 207.947037 
L 309.845542 208.283171 
L 310.099432 208.270881 
L 310.099432 208.270881 
" clip-path="url(#pb0e05f95cb)" style="fill: none; stroke: #ff0000; stroke-width: 0.6; stroke-linecap: square"/>
   </g>
   <g id="patch_3">
    <path d="M 43.78125 239.76 
L 43.78125 37.296 
" style="fill: none; stroke: #000000; stroke-width: 0.8; stroke-linejoin: miter; stroke-linecap: square"/>
   </g>
   <g id="patch_4">
    <path d="M 322.78125 239.76 
L 322.78125 37.296 
" style="fill: none; stroke: #000000; stroke-width: 0.8; stroke-linejoin: miter; stroke-linecap: square"/>
   </g>
   <g id="patch_5">
    <path d="M 43.78125 239.76 
L 322.78125 239.76 
" style="fill: none; stroke: #000000; stroke-width: 0.8; stroke-linejoin: miter; stroke-linecap: square"/>
   </g>
   <g id="patch_6">
    <path d="M 43.78125 37.296 
L 322.78125 37.296 
" style="fill: none; stroke: #000000; stroke-width: 0.8; stroke-linejoin: miter; stroke-linecap: square"/>
   </g>
   <g id="text_16">
    <!-- Baseline Model -->
    <g transform="translate(149.259844 31.296) scale(0.09 -0.09)">
     <defs>
      <path id="DejaVuSans-42" d="M 1259 2228 
L 1259 519 
L 2272 519 
Q 2781 519 3026 730 
Q 3272 941 3272 1375 
Q 3272 1813 3026 2020 
Q 2781 2228 2272 2228 
L 1259 2228 
z
M 1259 4147 
L 1259 2741 
L 2194 2741 
Q 2656 2741 2882 2914 
Q 3109 3088 3109 3444 
Q 3109 3797 2882 3972 
Q 2656 4147 2194 4147 
L 1259 4147 
z
M 628 4666 
L 2241 4666 
Q 2963 4666 3353 4366 
Q 3744 4066 3744 3513 
Q 3744 3084 3544 2831 
Q 3344 2578 2956 2516 
Q 3422 2416 3680 2098 
Q 3938 1781 3938 1306 
Q 3938 681 3513 340 
Q 3088 0 2303 0 
L 628 0 
L 628 4666 
z
" transform="scale(0.015625)"/>
      <path id="DejaVuSans-61" d="M 2194 1759 
Q 1497 1759 1228 1600 
Q 959 1441 959 1056 
Q 959 750 1161 570 
Q 1363 391 1709 391 
Q 2188 391 2477 730 
Q 2766 1069 2766 1631 
L 2766 1759 
L 2194 1759 
z
M 3341 1997 
L 3341 0 
L 2766 0 
L 2766 531 
Q 2569 213 2275 61 
Q 1981 -91 1556 -91 
Q 1019 -91 701 211 
Q 384 513 384 1019 
Q 384 1609 779 1909 
Q 1175 2209 1959 2209 
L 2766 2209 
L 2766 2266 
Q 2766 2663 2505 2880 
Q 2244 3097 1772 3097 
Q 1472 3097 1187 3025 
Q 903 2953 641 2809 
L 641 3341 
Q 956 3463 1253 3523 
Q 1550 3584 1831 3584 
Q 2591 3584 2966 3190 
Q 3341 2797 3341 1997 
z
" transform="scale(0.015625)"/>
      <path id="DejaVuSans-65" d="M 3597 1894 
L 3597 1613 
L 953 1613 
Q 991 1019 1311 708 
Q 1631 397 2203 397 
Q 2534 397 2845 478 
Q 3156 559 3463 722 
L 3463 178 
Q 3153 47 2828 -22 
Q 2503 -91 2169 -91 
Q 1331 -91 842 396 
Q 353 884 353 1716 
Q 353 2575 817 3079 
Q 1281 3584 2069 3584 
Q 2775 3584 3186 3129 
Q 3597 2675 3597 1894 
z
M 3022 2063 
Q 3016 2534 2758 2815 
Q 2500 3097 2075 3097 
Q 1594 3097 1305 2825 
Q 1016 2553 972 2059 
L 3022 2063 
z
" transform="scale(0.015625)"/>
      <path id="DejaVuSans-6c" d="M 603 4863 
L 1178 4863 
L 1178 0 
L 603 0 
L 603 4863 
z
" transform="scale(0.015625)"/>
      <path id="DejaVuSans-69" d="M 603 3500 
L 1178 3500 
L 1178 0 
L 603 0 
L 603 3500 
z
M 603 4863 
L 1178 4863 
L 1178 4134 
L 603 4134 
L 603 4863 
z
" transform="scale(0.015625)"/>
      <path id="DejaVuSans-6e" d="M 3513 2113 
L 3513 0 
L 2938 0 
L 2938 2094 
Q 2938 2591 2744 2837 
Q 2550 3084 2163 3084 
Q 1697 3084 1428 2787 
Q 1159 2491 1159 1978 
L 1159 0 
L 581 0 
L 581 3500 
L 1159 3500 
L 1159 2956 
Q 1366 3272 1645 3428 
Q 1925 3584 2291 3584 
Q 2894 3584 3203 3211 
Q 3513 2838 3513 2113 
z
" transform="scale(0.015625)"/>
      <path id="DejaVuSans-20" transform="scale(0.015625)"/>
      <path id="DejaVuSans-4d" d="M 628 4666 
L 1569 4666 
L 2759 1491 
L 3956 4666 
L 4897 4666 
L 4897 0 
L 4281 0 
L 4281 4097 
L 3078 897 
L 2444 897 
L 1241 4097 
L 1241 0 
L 628 0 
L 628 4666 
z
" transform="scale(0.015625)"/>
      <path id="DejaVuSans-64" d="M 2906 2969 
L 2906 4863 
L 3481 4863 
L 3481 0 
L 2906 0 
L 2906 525 
Q 2725 213 2448 61 
Q 2172 -91 1784 -91 
Q 1150 -91 751 415 
Q 353 922 353 1747 
Q 353 2572 751 3078 
Q 1150 3584 1784 3584 
Q 2172 3584 2448 3432 
Q 2725 3281 2906 2969 
z
M 947 1747 
Q 947 1113 1208 752 
Q 1469 391 1925 391 
Q 2381 391 2643 752 
Q 2906 1113 2906 1747 
Q 2906 2381 2643 2742 
Q 2381 3103 1925 3103 
Q 1469 3103 1208 2742 
Q 947 2381 947 1747 
z
" transform="scale(0.015625)"/>
     </defs>
     <use xlink:href="#DejaVuSans-42"/>
     <use xlink:href="#DejaVuSans-61" x="68.603516"/>
     <use xlink:href="#DejaVuSans-73" x="129.882812"/>
     <use xlink:href="#DejaVuSans-65" x="181.982422"/>
     <use xlink:href="#DejaVuSans-6c" x="243.505859"/>
     <use xlink:href="#DejaVuSans-69" x="271.289062"/>
     <use xlink:href="#DejaVuSans-6e" x="299.072266"/>
     <use xlink:href="#DejaVuSans-65" x="362.451172"/>
     <use xlink:href="#DejaVuSans-20" x="423.974609"/>
     <use xlink:href="#DejaVuSans-4d" x="455.761719"/>
     <use xlink:href="#DejaVuSans-6f" x="542.041016"/>
     <use xlink:href="#DejaVuSans-64" x="603.222656"/>
     <use xlink:href="#DejaVuSans-65" x="666.699219"/>
     <use xlink:href="#DejaVuSans-6c" x="728.222656"/>
    </g>
   </g>
   <g id="legend_1">
    <g id="patch_7">
     <path d="M 209.2875 74.65225 
L 315.78125 74.65225 
Q 317.78125 74.65225 317.78125 72.65225 
L 317.78125 44.296 
Q 317.78125 42.296 315.78125 42.296 
L 209.2875 42.296 
Q 207.2875 42.296 207.2875 44.296 
L 207.2875 72.65225 
Q 207.2875 74.65225 209.2875 74.65225 
z
" style="fill: #ffffff; opacity: 0.8; stroke: #cccccc; stroke-linejoin: miter"/>
    </g>
    <g id="line2d_29">
     <path d="M 211.2875 50.394438 
L 221.2875 50.394438 
L 231.2875 50.394438 
" style="fill: none; stroke: #0000ff; stroke-width: 0.6; stroke-linecap: square"/>
    </g>
    <g id="text_17">
     <!-- Training Loss -->
     <g transform="translate(239.2875 53.894438) scale(0.1 -0.1)">
      <defs>
       <path id="DejaVuSans-54" d="M -19 4666 
L 3928 4666 
L 3928 4134 
L 2272 4134 
L 2272 0 
L 1638 0 
L 1638 4134 
L -19 4134 
L -19 4666 
z
" transform="scale(0.015625)"/>
       <path id="DejaVuSans-72" d="M 2631 2963 
Q 2534 3019 2420 3045 
Q 2306 3072 2169 3072 
Q 1681 3072 1420 2755 
Q 1159 2438 1159 1844 
L 1159 0 
L 581 0 
L 581 3500 
L 1159 3500 
L 1159 2956 
Q 1341 3275 1631 3429 
Q 1922 3584 2338 3584 
Q 2397 3584 2469 3576 
Q 2541 3569 2628 3553 
L 2631 2963 
z
" transform="scale(0.015625)"/>
       <path id="DejaVuSans-67" d="M 2906 1791 
Q 2906 2416 2648 2759 
Q 2391 3103 1925 3103 
Q 1463 3103 1205 2759 
Q 947 2416 947 1791 
Q 947 1169 1205 825 
Q 1463 481 1925 481 
Q 2391 481 2648 825 
Q 2906 1169 2906 1791 
z
M 3481 434 
Q 3481 -459 3084 -895 
Q 2688 -1331 1869 -1331 
Q 1566 -1331 1297 -1286 
Q 1028 -1241 775 -1147 
L 775 -588 
Q 1028 -725 1275 -790 
Q 1522 -856 1778 -856 
Q 2344 -856 2625 -561 
Q 2906 -266 2906 331 
L 2906 616 
Q 2728 306 2450 153 
Q 2172 0 1784 0 
Q 1141 0 747 490 
Q 353 981 353 1791 
Q 353 2603 747 3093 
Q 1141 3584 1784 3584 
Q 2172 3584 2450 3431 
Q 2728 3278 2906 2969 
L 2906 3500 
L 3481 3500 
L 3481 434 
z
" transform="scale(0.015625)"/>
      </defs>
      <use xlink:href="#DejaVuSans-54"/>
      <use xlink:href="#DejaVuSans-72" x="46.333984"/>
      <use xlink:href="#DejaVuSans-61" x="87.447266"/>
      <use xlink:href="#DejaVuSans-69" x="148.726562"/>
      <use xlink:href="#DejaVuSans-6e" x="176.509766"/>
      <use xlink:href="#DejaVuSans-69" x="239.888672"/>
      <use xlink:href="#DejaVuSans-6e" x="267.671875"/>
      <use xlink:href="#DejaVuSans-67" x="331.050781"/>
      <use xlink:href="#DejaVuSans-20" x="394.527344"/>
      <use xlink:href="#DejaVuSans-4c" x="426.314453"/>
      <use xlink:href="#DejaVuSans-6f" x="480.277344"/>
      <use xlink:href="#DejaVuSans-73" x="541.458984"/>
      <use xlink:href="#DejaVuSans-73" x="593.558594"/>
     </g>
    </g>
    <g id="line2d_30">
     <path d="M 211.2875 65.072563 
L 221.2875 65.072563 
L 231.2875 65.072563 
" style="fill: none; stroke: #ff0000; stroke-width: 0.6; stroke-linecap: square"/>
    </g>
    <g id="text_18">
     <!-- Validation Loss -->
     <g transform="translate(239.2875 68.572563) scale(0.1 -0.1)">
      <defs>
       <path id="DejaVuSans-56" d="M 1831 0 
L 50 4666 
L 709 4666 
L 2188 738 
L 3669 4666 
L 4325 4666 
L 2547 0 
L 1831 0 
z
" transform="scale(0.015625)"/>
       <path id="DejaVuSans-74" d="M 1172 4494 
L 1172 3500 
L 2356 3500 
L 2356 3053 
L 1172 3053 
L 1172 1153 
Q 1172 725 1289 603 
Q 1406 481 1766 481 
L 2356 481 
L 2356 0 
L 1766 0 
Q 1100 0 847 248 
Q 594 497 594 1153 
L 594 3053 
L 172 3053 
L 172 3500 
L 594 3500 
L 594 4494 
L 1172 4494 
z
" transform="scale(0.015625)"/>
      </defs>
      <use xlink:href="#DejaVuSans-56"/>
      <use xlink:href="#DejaVuSans-61" x="60.658203"/>
      <use xlink:href="#DejaVuSans-6c" x="121.9375"/>
      <use xlink:href="#DejaVuSans-69" x="149.720703"/>
      <use xlink:href="#DejaVuSans-64" x="177.503906"/>
      <use xlink:href="#DejaVuSans-61" x="240.980469"/>
      <use xlink:href="#DejaVuSans-74" x="302.259766"/>
      <use xlink:href="#DejaVuSans-69" x="341.46875"/>
      <use xlink:href="#DejaVuSans-6f" x="369.251953"/>
      <use xlink:href="#DejaVuSans-6e" x="430.433594"/>
      <use xlink:href="#DejaVuSans-20" x="493.8125"/>
      <use xlink:href="#DejaVuSans-4c" x="525.599609"/>
      <use xlink:href="#DejaVuSans-6f" x="579.5625"/>
      <use xlink:href="#DejaVuSans-73" x="640.744141"/>
      <use xlink:href="#DejaVuSans-73" x="692.84375"/>
     </g>
    </g>
   </g>
  </g>
  <g id="text_19">
   <!-- Training VS. Validation Loss - Dataset Size = 100.0% -->
   <g transform="translate(34.481016 15.558281) scale(0.11 -0.11)">
    <defs>
     <path id="DejaVuSans-53" d="M 3425 4513 
L 3425 3897 
Q 3066 4069 2747 4153 
Q 2428 4238 2131 4238 
Q 1616 4238 1336 4038 
Q 1056 3838 1056 3469 
Q 1056 3159 1242 3001 
Q 1428 2844 1947 2747 
L 2328 2669 
Q 3034 2534 3370 2195 
Q 3706 1856 3706 1288 
Q 3706 609 3251 259 
Q 2797 -91 1919 -91 
Q 1588 -91 1214 -16 
Q 841 59 441 206 
L 441 856 
Q 825 641 1194 531 
Q 1563 422 1919 422 
Q 2459 422 2753 634 
Q 3047 847 3047 1241 
Q 3047 1584 2836 1778 
Q 2625 1972 2144 2069 
L 1759 2144 
Q 1053 2284 737 2584 
Q 422 2884 422 3419 
Q 422 4038 858 4394 
Q 1294 4750 2059 4750 
Q 2388 4750 2728 4690 
Q 3069 4631 3425 4513 
z
" transform="scale(0.015625)"/>
     <path id="DejaVuSans-2d" d="M 313 2009 
L 1997 2009 
L 1997 1497 
L 313 1497 
L 313 2009 
z
" transform="scale(0.015625)"/>
     <path id="DejaVuSans-44" d="M 1259 4147 
L 1259 519 
L 2022 519 
Q 2988 519 3436 956 
Q 3884 1394 3884 2338 
Q 3884 3275 3436 3711 
Q 2988 4147 2022 4147 
L 1259 4147 
z
M 628 4666 
L 1925 4666 
Q 3281 4666 3915 4102 
Q 4550 3538 4550 2338 
Q 4550 1131 3912 565 
Q 3275 0 1925 0 
L 628 0 
L 628 4666 
z
" transform="scale(0.015625)"/>
     <path id="DejaVuSans-7a" d="M 353 3500 
L 3084 3500 
L 3084 2975 
L 922 459 
L 3084 459 
L 3084 0 
L 275 0 
L 275 525 
L 2438 3041 
L 353 3041 
L 353 3500 
z
" transform="scale(0.015625)"/>
     <path id="DejaVuSans-3d" d="M 678 2906 
L 4684 2906 
L 4684 2381 
L 678 2381 
L 678 2906 
z
M 678 1631 
L 4684 1631 
L 4684 1100 
L 678 1100 
L 678 1631 
z
" transform="scale(0.015625)"/>
     <path id="DejaVuSans-25" d="M 4653 2053 
Q 4381 2053 4226 1822 
Q 4072 1591 4072 1178 
Q 4072 772 4226 539 
Q 4381 306 4653 306 
Q 4919 306 5073 539 
Q 5228 772 5228 1178 
Q 5228 1588 5073 1820 
Q 4919 2053 4653 2053 
z
M 4653 2450 
Q 5147 2450 5437 2106 
Q 5728 1763 5728 1178 
Q 5728 594 5436 251 
Q 5144 -91 4653 -91 
Q 4153 -91 3862 251 
Q 3572 594 3572 1178 
Q 3572 1766 3864 2108 
Q 4156 2450 4653 2450 
z
M 1428 4353 
Q 1159 4353 1004 4120 
Q 850 3888 850 3481 
Q 850 3069 1003 2837 
Q 1156 2606 1428 2606 
Q 1700 2606 1854 2837 
Q 2009 3069 2009 3481 
Q 2009 3884 1853 4118 
Q 1697 4353 1428 4353 
z
M 4250 4750 
L 4750 4750 
L 1831 -91 
L 1331 -91 
L 4250 4750 
z
M 1428 4750 
Q 1922 4750 2215 4408 
Q 2509 4066 2509 3481 
Q 2509 2891 2217 2550 
Q 1925 2209 1428 2209 
Q 931 2209 642 2551 
Q 353 2894 353 3481 
Q 353 4063 643 4406 
Q 934 4750 1428 4750 
z
" transform="scale(0.015625)"/>
    </defs>
    <use xlink:href="#DejaVuSans-54"/>
    <use xlink:href="#DejaVuSans-72" x="46.333984"/>
    <use xlink:href="#DejaVuSans-61" x="87.447266"/>
    <use xlink:href="#DejaVuSans-69" x="148.726562"/>
    <use xlink:href="#DejaVuSans-6e" x="176.509766"/>
    <use xlink:href="#DejaVuSans-69" x="239.888672"/>
    <use xlink:href="#DejaVuSans-6e" x="267.671875"/>
    <use xlink:href="#DejaVuSans-67" x="331.050781"/>
    <use xlink:href="#DejaVuSans-20" x="394.527344"/>
    <use xlink:href="#DejaVuSans-56" x="426.314453"/>
    <use xlink:href="#DejaVuSans-53" x="494.722656"/>
    <use xlink:href="#DejaVuSans-2e" x="558.199219"/>
    <use xlink:href="#DejaVuSans-20" x="589.986328"/>
    <use xlink:href="#DejaVuSans-56" x="621.773438"/>
    <use xlink:href="#DejaVuSans-61" x="682.431641"/>
    <use xlink:href="#DejaVuSans-6c" x="743.710938"/>
    <use xlink:href="#DejaVuSans-69" x="771.494141"/>
    <use xlink:href="#DejaVuSans-64" x="799.277344"/>
    <use xlink:href="#DejaVuSans-61" x="862.753906"/>
    <use xlink:href="#DejaVuSans-74" x="924.033203"/>
    <use xlink:href="#DejaVuSans-69" x="963.242188"/>
    <use xlink:href="#DejaVuSans-6f" x="991.025391"/>
    <use xlink:href="#DejaVuSans-6e" x="1052.207031"/>
    <use xlink:href="#DejaVuSans-20" x="1115.585938"/>
    <use xlink:href="#DejaVuSans-4c" x="1147.373047"/>
    <use xlink:href="#DejaVuSans-6f" x="1201.335938"/>
    <use xlink:href="#DejaVuSans-73" x="1262.517578"/>
    <use xlink:href="#DejaVuSans-73" x="1314.617188"/>
    <use xlink:href="#DejaVuSans-20" x="1366.716797"/>
    <use xlink:href="#DejaVuSans-2d" x="1398.503906"/>
    <use xlink:href="#DejaVuSans-20" x="1434.587891"/>
    <use xlink:href="#DejaVuSans-44" x="1466.375"/>
    <use xlink:href="#DejaVuSans-61" x="1543.376953"/>
    <use xlink:href="#DejaVuSans-74" x="1604.65625"/>
    <use xlink:href="#DejaVuSans-61" x="1643.865234"/>
    <use xlink:href="#DejaVuSans-73" x="1705.144531"/>
    <use xlink:href="#DejaVuSans-65" x="1757.244141"/>
    <use xlink:href="#DejaVuSans-74" x="1818.767578"/>
    <use xlink:href="#DejaVuSans-20" x="1857.976562"/>
    <use xlink:href="#DejaVuSans-53" x="1889.763672"/>
    <use xlink:href="#DejaVuSans-69" x="1953.240234"/>
    <use xlink:href="#DejaVuSans-7a" x="1981.023438"/>
    <use xlink:href="#DejaVuSans-65" x="2033.513672"/>
    <use xlink:href="#DejaVuSans-20" x="2095.037109"/>
    <use xlink:href="#DejaVuSans-3d" x="2126.824219"/>
    <use xlink:href="#DejaVuSans-20" x="2210.613281"/>
    <use xlink:href="#DejaVuSans-31" x="2242.400391"/>
    <use xlink:href="#DejaVuSans-30" x="2306.023438"/>
    <use xlink:href="#DejaVuSans-30" x="2369.646484"/>
    <use xlink:href="#DejaVuSans-2e" x="2433.269531"/>
    <use xlink:href="#DejaVuSans-30" x="2465.056641"/>
    <use xlink:href="#DejaVuSans-25" x="2528.679688"/>
   </g>
  </g>
 </g>
 <defs>
  <clipPath id="pb0e05f95cb">
   <rect x="43.78125" y="37.296" width="279" height="202.464"/>
  </clipPath>
 </defs>
</svg>
