<?xml version="1.0" encoding="utf-8" standalone="no"?>
<!DOCTYPE svg PUBLIC "-//W3C//DTD SVG 1.1//EN"
  "http://www.w3.org/Graphics/SVG/1.1/DTD/svg11.dtd">
<svg xmlns:xlink="http://www.w3.org/1999/xlink" width="336.643984pt" height="277.31625pt" viewBox="0 0 336.643984 277.31625" xmlns="http://www.w3.org/2000/svg" version="1.1">
 <metadata>
  <rdf:RDF xmlns:dc="http://purl.org/dc/elements/1.1/" xmlns:cc="http://creativecommons.org/ns#" xmlns:rdf="http://www.w3.org/1999/02/22-rdf-syntax-ns#">
   <cc:Work>
    <dc:type rdf:resource="http://purl.org/dc/dcmitype/StillImage"/>
    <dc:date>2026-06-11T16:27:11.519068</dc:date>
    <dc:format>image/svg+xml</dc:format>
    <dc:creator>
     <cc:Agent>
      <dc:title>Matplotlib v3.8.4, https://matplotlib.org/</dc:title>
     </cc:Agent>
    </dc:creator>
   </cc:Work>
  </rdf:RDF>
 </metadata>
 <defs>
  <style type="text/css">*{stroke-linejoin: round; stroke-linecap: butt}</style>
 </defs>
 <g id="figure_1">
  <g id="patch_1">
   <path d="M 0 277.31625 
L 336.643984 277.31625 
L 336.643984 0 
L 0 0 
z
" style="fill: #ffffff"/>
  </g>
  <g id="axes_1">
   <g id="patch_2">
    <path d="M 50.14375 239.76 
L 329.14375 239.76 
L 329.14375 37.296 
L 50.14375 37.296 
z
" style="fill: #ffffff"/>
   </g>
   <g id="matplotlib.axis_1">
    <g id="xtick_1">
     <g id="line2d_1">
      <path d="M 62.571678 239.76 
L 62.571678 37.296 
" clip-path="url(#p4f71161ac5)" style="fill: none; stroke-dasharray: 2.96,1.28; stroke-dashoffset: 0; stroke: #b0b0b0; stroke-opacity: 0.4; stroke-width: 0.8"/>
     </g>
     <g id="line2d_2">
      <defs>
       <path id="m00ffbd4731" d="M 0 0 
L 0 3.5 
" style="stroke: #000000; stroke-width: 0.8"/>
      </defs>
      <g>
       <use xlink:href="#m00ffbd4731" x="62.571678" y="239.76" style="stroke: #000000; stroke-width: 0.8"/>
      </g>
     </g>
     <g id="text_1">
      <!-- 0 -->
      <g transform="translate(59.390428 254.358437) scale(0.1 -0.1)">
       <defs>
        <path id="DejaVuSans-30" d="M 2034 4250 
Q 1547 4250 1301 3770 
Q 1056 3291 1056 2328 
Q 1056 1369 1301 889 
Q 1547 409 2034 409 
Q 2525 409 2770 889 
Q 3016 1369 3016 2328 
Q 3016 3291 2770 3770 
Q 2525 4250 2034 4250 
z
M 2034 4750 
Q 2819 4750 3233 4129 
Q 3647 3509 3647 2328 
Q 3647 1150 3233 529 
Q 2819 -91 2034 -91 
Q 1250 -91 836 529 
Q 422 1150 422 2328 
Q 422 3509 836 4129 
Q 1250 4750 2034 4750 
z
" transform="scale(0.015625)"/>
       </defs>
       <use xlink:href="#DejaVuSans-30"/>
      </g>
     </g>
    </g>
    <g id="xtick_2">
     <g id="line2d_3">
      <path d="M 113.349729 239.76 
L 113.349729 37.296 
" clip-path="url(#p4f71161ac5)" style="fill: none; stroke-dasharray: 2.96,1.28; stroke-dashoffset: 0; stroke: #b0b0b0; stroke-opacity: 0.4; stroke-width: 0.8"/>
     </g>
     <g id="line2d_4">
      <g>
       <use xlink:href="#m00ffbd4731" x="113.349729" y="239.76" style="stroke: #000000; stroke-width: 0.8"/>
      </g>
     </g>
     <g id="text_2">
      <!-- 200 -->
      <g transform="translate(103.805979 254.358437) scale(0.1 -0.1)">
       <defs>
        <path id="DejaVuSans-32" d="M 1228 531 
L 3431 531 
L 3431 0 
L 469 0 
L 469 531 
Q 828 903 1448 1529 
Q 2069 2156 2228 2338 
Q 2531 2678 2651 2914 
Q 2772 3150 2772 3378 
Q 2772 3750 2511 3984 
Q 2250 4219 1831 4219 
Q 1534 4219 1204 4116 
Q 875 4013 500 3803 
L 500 4441 
Q 881 4594 1212 4672 
Q 1544 4750 1819 4750 
Q 2544 4750 2975 4387 
Q 3406 4025 3406 3419 
Q 3406 3131 3298 2873 
Q 3191 2616 2906 2266 
Q 2828 2175 2409 1742 
Q 1991 1309 1228 531 
z
" transform="scale(0.015625)"/>
       </defs>
       <use xlink:href="#DejaVuSans-32"/>
       <use xlink:href="#DejaVuSans-30" x="63.623047"/>
       <use xlink:href="#DejaVuSans-30" x="127.246094"/>
      </g>
     </g>
    </g>
    <g id="xtick_3">
     <g id="line2d_5">
      <path d="M 164.127779 239.76 
L 164.127779 37.296 
" clip-path="url(#p4f71161ac5)" style="fill: none; stroke-dasharray: 2.96,1.28; stroke-dashoffset: 0; stroke: #b0b0b0; stroke-opacity: 0.4; stroke-width: 0.8"/>
     </g>
     <g id="line2d_6">
      <g>
       <use xlink:href="#m00ffbd4731" x="164.127779" y="239.76" style="stroke: #000000; stroke-width: 0.8"/>
      </g>
     </g>
     <g id="text_3">
      <!-- 400 -->
      <g transform="translate(154.584029 254.358437) scale(0.1 -0.1)">
       <defs>
        <path id="DejaVuSans-34" d="M 2419 4116 
L 825 1625 
L 2419 1625 
L 2419 4116 
z
M 2253 4666 
L 3047 4666 
L 3047 1625 
L 3713 1625 
L 3713 1100 
L 3047 1100 
L 3047 0 
L 2419 0 
L 2419 1100 
L 313 1100 
L 313 1709 
L 2253 4666 
z
" transform="scale(0.015625)"/>
       </defs>
       <use xlink:href="#DejaVuSans-34"/>
       <use xlink:href="#DejaVuSans-30" x="63.623047"/>
       <use xlink:href="#DejaVuSans-30" x="127.246094"/>
      </g>
     </g>
    </g>
    <g id="xtick_4">
     <g id="line2d_7">
      <path d="M 214.90583 239.76 
L 214.90583 37.296 
" clip-path="url(#p4f71161ac5)" style="fill: none; stroke-dasharray: 2.96,1.28; stroke-dashoffset: 0; stroke: #b0b0b0; stroke-opacity: 0.4; stroke-width: 0.8"/>
     </g>
     <g id="line2d_8">
      <g>
       <use xlink:href="#m00ffbd4731" x="214.90583" y="239.76" style="stroke: #000000; stroke-width: 0.8"/>
      </g>
     </g>
     <g id="text_4">
      <!-- 600 -->
      <g transform="translate(205.36208 254.358437) scale(0.1 -0.1)">
       <defs>
        <path id="DejaVuSans-36" d="M 2113 2584 
Q 1688 2584 1439 2293 
Q 1191 2003 1191 1497 
Q 1191 994 1439 701 
Q 1688 409 2113 409 
Q 2538 409 2786 701 
Q 3034 994 3034 1497 
Q 3034 2003 2786 2293 
Q 2538 2584 2113 2584 
z
M 3366 4563 
L 3366 3988 
Q 3128 4100 2886 4159 
Q 2644 4219 2406 4219 
Q 1781 4219 1451 3797 
Q 1122 3375 1075 2522 
Q 1259 2794 1537 2939 
Q 1816 3084 2150 3084 
Q 2853 3084 3261 2657 
Q 3669 2231 3669 1497 
Q 3669 778 3244 343 
Q 2819 -91 2113 -91 
Q 1303 -91 875 529 
Q 447 1150 447 2328 
Q 447 3434 972 4092 
Q 1497 4750 2381 4750 
Q 2619 4750 2861 4703 
Q 3103 4656 3366 4563 
z
" transform="scale(0.015625)"/>
       </defs>
       <use xlink:href="#DejaVuSans-36"/>
       <use xlink:href="#DejaVuSans-30" x="63.623047"/>
       <use xlink:href="#DejaVuSans-30" x="127.246094"/>
      </g>
     </g>
    </g>
    <g id="xtick_5">
     <g id="line2d_9">
      <path d="M 265.683881 239.76 
L 265.683881 37.296 
" clip-path="url(#p4f71161ac5)" style="fill: none; stroke-dasharray: 2.96,1.28; stroke-dashoffset: 0; stroke: #b0b0b0; stroke-opacity: 0.4; stroke-width: 0.8"/>
     </g>
     <g id="line2d_10">
      <g>
       <use xlink:href="#m00ffbd4731" x="265.683881" y="239.76" style="stroke: #000000; stroke-width: 0.8"/>
      </g>
     </g>
     <g id="text_5">
      <!-- 800 -->
      <g transform="translate(256.140131 254.358437) scale(0.1 -0.1)">
       <defs>
        <path id="DejaVuSans-38" d="M 2034 2216 
Q 1584 2216 1326 1975 
Q 1069 1734 1069 1313 
Q 1069 891 1326 650 
Q 1584 409 2034 409 
Q 2484 409 2743 651 
Q 3003 894 3003 1313 
Q 3003 1734 2745 1975 
Q 2488 2216 2034 2216 
z
M 1403 2484 
Q 997 2584 770 2862 
Q 544 3141 544 3541 
Q 544 4100 942 4425 
Q 1341 4750 2034 4750 
Q 2731 4750 3128 4425 
Q 3525 4100 3525 3541 
Q 3525 3141 3298 2862 
Q 3072 2584 2669 2484 
Q 3125 2378 3379 2068 
Q 3634 1759 3634 1313 
Q 3634 634 3220 271 
Q 2806 -91 2034 -91 
Q 1263 -91 848 271 
Q 434 634 434 1313 
Q 434 1759 690 2068 
Q 947 2378 1403 2484 
z
M 1172 3481 
Q 1172 3119 1398 2916 
Q 1625 2713 2034 2713 
Q 2441 2713 2670 2916 
Q 2900 3119 2900 3481 
Q 2900 3844 2670 4047 
Q 2441 4250 2034 4250 
Q 1625 4250 1398 4047 
Q 1172 3844 1172 3481 
z
" transform="scale(0.015625)"/>
       </defs>
       <use xlink:href="#DejaVuSans-38"/>
       <use xlink:href="#DejaVuSans-30" x="63.623047"/>
       <use xlink:href="#DejaVuSans-30" x="127.246094"/>
      </g>
     </g>
    </g>
    <g id="xtick_6">
     <g id="line2d_11">
      <path d="M 316.461932 239.76 
L 316.461932 37.296 
" clip-path="url(#p4f71161ac5)" style="fill: none; stroke-dasharray: 2.96,1.28; stroke-dashoffset: 0; stroke: #b0b0b0; stroke-opacity: 0.4; stroke-width: 0.8"/>
     </g>
     <g id="line2d_12">
      <g>
       <use xlink:href="#m00ffbd4731" x="316.461932" y="239.76" style="stroke: #000000; stroke-width: 0.8"/>
      </g>
     </g>
     <g id="text_6">
      <!-- 1000 -->
      <g transform="translate(303.736932 254.358437) scale(0.1 -0.1)">
       <defs>
        <path id="DejaVuSans-31" d="M 794 531 
L 1825 531 
L 1825 4091 
L 703 3866 
L 703 4441 
L 1819 4666 
L 2450 4666 
L 2450 531 
L 3481 531 
L 3481 0 
L 794 0 
L 794 531 
z
" transform="scale(0.015625)"/>
       </defs>
       <use xlink:href="#DejaVuSans-31"/>
       <use xlink:href="#DejaVuSans-30" x="63.623047"/>
       <use xlink:href="#DejaVuSans-30" x="127.246094"/>
       <use xlink:href="#DejaVuSans-30" x="190.869141"/>
      </g>
     </g>
    </g>
    <g id="text_7">
     <!-- Epochs -->
     <g transform="translate(171.728125 268.036562) scale(0.1 -0.1)">
      <defs>
       <path id="DejaVuSans-45" d="M 628 4666 
L 3578 4666 
L 3578 4134 
L 1259 4134 
L 1259 2753 
L 3481 2753 
L 3481 2222 
L 1259 2222 
L 1259 531 
L 3634 531 
L 3634 0 
L 628 0 
L 628 4666 
z
" transform="scale(0.015625)"/>
       <path id="DejaVuSans-70" d="M 1159 525 
L 1159 -1331 
L 581 -1331 
L 581 3500 
L 1159 3500 
L 1159 2969 
Q 1341 3281 1617 3432 
Q 1894 3584 2278 3584 
Q 2916 3584 3314 3078 
Q 3713 2572 3713 1747 
Q 3713 922 3314 415 
Q 2916 -91 2278 -91 
Q 1894 -91 1617 61 
Q 1341 213 1159 525 
z
M 3116 1747 
Q 3116 2381 2855 2742 
Q 2594 3103 2138 3103 
Q 1681 3103 1420 2742 
Q 1159 2381 1159 1747 
Q 1159 1113 1420 752 
Q 1681 391 2138 391 
Q 2594 391 2855 752 
Q 3116 1113 3116 1747 
z
" transform="scale(0.015625)"/>
       <path id="DejaVuSans-6f" d="M 1959 3097 
Q 1497 3097 1228 2736 
Q 959 2375 959 1747 
Q 959 1119 1226 758 
Q 1494 397 1959 397 
Q 2419 397 2687 759 
Q 2956 1122 2956 1747 
Q 2956 2369 2687 2733 
Q 2419 3097 1959 3097 
z
M 1959 3584 
Q 2709 3584 3137 3096 
Q 3566 2609 3566 1747 
Q 3566 888 3137 398 
Q 2709 -91 1959 -91 
Q 1206 -91 779 398 
Q 353 888 353 1747 
Q 353 2609 779 3096 
Q 1206 3584 1959 3584 
z
" transform="scale(0.015625)"/>
       <path id="DejaVuSans-63" d="M 3122 3366 
L 3122 2828 
Q 2878 2963 2633 3030 
Q 2388 3097 2138 3097 
Q 1578 3097 1268 2742 
Q 959 2388 959 1747 
Q 959 1106 1268 751 
Q 1578 397 2138 397 
Q 2388 397 2633 464 
Q 2878 531 3122 666 
L 3122 134 
Q 2881 22 2623 -34 
Q 2366 -91 2075 -91 
Q 1284 -91 818 406 
Q 353 903 353 1747 
Q 353 2603 823 3093 
Q 1294 3584 2113 3584 
Q 2378 3584 2631 3529 
Q 2884 3475 3122 3366 
z
" transform="scale(0.015625)"/>
       <path id="DejaVuSans-68" d="M 3513 2113 
L 3513 0 
L 2938 0 
L 2938 2094 
Q 2938 2591 2744 2837 
Q 2550 3084 2163 3084 
Q 1697 3084 1428 2787 
Q 1159 2491 1159 1978 
L 1159 0 
L 581 0 
L 581 4863 
L 1159 4863 
L 1159 2956 
Q 1366 3272 1645 3428 
Q 1925 3584 2291 3584 
Q 2894 3584 3203 3211 
Q 3513 2838 3513 2113 
z
" transform="scale(0.015625)"/>
       <path id="DejaVuSans-73" d="M 2834 3397 
L 2834 2853 
Q 2591 2978 2328 3040 
Q 2066 3103 1784 3103 
Q 1356 3103 1142 2972 
Q 928 2841 928 2578 
Q 928 2378 1081 2264 
Q 1234 2150 1697 2047 
L 1894 2003 
Q 2506 1872 2764 1633 
Q 3022 1394 3022 966 
Q 3022 478 2636 193 
Q 2250 -91 1575 -91 
Q 1294 -91 989 -36 
Q 684 19 347 128 
L 347 722 
Q 666 556 975 473 
Q 1284 391 1588 391 
Q 1994 391 2212 530 
Q 2431 669 2431 922 
Q 2431 1156 2273 1281 
Q 2116 1406 1581 1522 
L 1381 1569 
Q 847 1681 609 1914 
Q 372 2147 372 2553 
Q 372 3047 722 3315 
Q 1072 3584 1716 3584 
Q 2034 3584 2315 3537 
Q 2597 3491 2834 3397 
z
" transform="scale(0.015625)"/>
      </defs>
      <use xlink:href="#DejaVuSans-45"/>
      <use xlink:href="#DejaVuSans-70" x="63.183594"/>
      <use xlink:href="#DejaVuSans-6f" x="126.660156"/>
      <use xlink:href="#DejaVuSans-63" x="187.841797"/>
      <use xlink:href="#DejaVuSans-68" x="242.822266"/>
      <use xlink:href="#DejaVuSans-73" x="306.201172"/>
     </g>
    </g>
   </g>
   <g id="matplotlib.axis_2">
    <g id="ytick_1">
     <g id="line2d_13">
      <path d="M 50.14375 235.920891 
L 329.14375 235.920891 
" clip-path="url(#p4f71161ac5)" style="fill: none; stroke-dasharray: 2.96,1.28; stroke-dashoffset: 0; stroke: #b0b0b0; stroke-opacity: 0.4; stroke-width: 0.8"/>
     </g>
     <g id="line2d_14">
      <defs>
       <path id="m5282aa24df" d="M 0 0 
L -3.5 0 
" style="stroke: #000000; stroke-width: 0.8"/>
      </defs>
      <g>
       <use xlink:href="#m5282aa24df" x="50.14375" y="235.920891" style="stroke: #000000; stroke-width: 0.8"/>
      </g>
     </g>
     <g id="text_8">
      <!-- 0.00 -->
      <g transform="translate(20.878125 239.72011) scale(0.1 -0.1)">
       <defs>
        <path id="DejaVuSans-2e" d="M 684 794 
L 1344 794 
L 1344 0 
L 684 0 
L 684 794 
z
" transform="scale(0.015625)"/>
       </defs>
       <use xlink:href="#DejaVuSans-30"/>
       <use xlink:href="#DejaVuSans-2e" x="63.623047"/>
       <use xlink:href="#DejaVuSans-30" x="95.410156"/>
       <use xlink:href="#DejaVuSans-30" x="159.033203"/>
      </g>
     </g>
    </g>
    <g id="ytick_2">
     <g id="line2d_15">
      <path d="M 50.14375 213.037627 
L 329.14375 213.037627 
" clip-path="url(#p4f71161ac5)" style="fill: none; stroke-dasharray: 2.96,1.28; stroke-dashoffset: 0; stroke: #b0b0b0; stroke-opacity: 0.4; stroke-width: 0.8"/>
     </g>
     <g id="line2d_16">
      <g>
       <use xlink:href="#m5282aa24df" x="50.14375" y="213.037627" style="stroke: #000000; stroke-width: 0.8"/>
      </g>
     </g>
     <g id="text_9">
      <!-- 0.25 -->
      <g transform="translate(20.878125 216.836846) scale(0.1 -0.1)">
       <defs>
        <path id="DejaVuSans-35" d="M 691 4666 
L 3169 4666 
L 3169 4134 
L 1269 4134 
L 1269 2991 
Q 1406 3038 1543 3061 
Q 1681 3084 1819 3084 
Q 2600 3084 3056 2656 
Q 3513 2228 3513 1497 
Q 3513 744 3044 326 
Q 2575 -91 1722 -91 
Q 1428 -91 1123 -41 
Q 819 9 494 109 
L 494 744 
Q 775 591 1075 516 
Q 1375 441 1709 441 
Q 2250 441 2565 725 
Q 2881 1009 2881 1497 
Q 2881 1984 2565 2268 
Q 2250 2553 1709 2553 
Q 1456 2553 1204 2497 
Q 953 2441 691 2322 
L 691 4666 
z
" transform="scale(0.015625)"/>
       </defs>
       <use xlink:href="#DejaVuSans-30"/>
       <use xlink:href="#DejaVuSans-2e" x="63.623047"/>
       <use xlink:href="#DejaVuSans-32" x="95.410156"/>
       <use xlink:href="#DejaVuSans-35" x="159.033203"/>
      </g>
     </g>
    </g>
    <g id="ytick_3">
     <g id="line2d_17">
      <path d="M 50.14375 190.154363 
L 329.14375 190.154363 
" clip-path="url(#p4f71161ac5)" style="fill: none; stroke-dasharray: 2.96,1.28; stroke-dashoffset: 0; stroke: #b0b0b0; stroke-opacity: 0.4; stroke-width: 0.8"/>
     </g>
     <g id="line2d_18">
      <g>
       <use xlink:href="#m5282aa24df" x="50.14375" y="190.154363" style="stroke: #000000; stroke-width: 0.8"/>
      </g>
     </g>
     <g id="text_10">
      <!-- 0.50 -->
      <g transform="translate(20.878125 193.953582) scale(0.1 -0.1)">
       <use xlink:href="#DejaVuSans-30"/>
       <use xlink:href="#DejaVuSans-2e" x="63.623047"/>
       <use xlink:href="#DejaVuSans-35" x="95.410156"/>
       <use xlink:href="#DejaVuSans-30" x="159.033203"/>
      </g>
     </g>
    </g>
    <g id="ytick_4">
     <g id="line2d_19">
      <path d="M 50.14375 167.271099 
L 329.14375 167.271099 
" clip-path="url(#p4f71161ac5)" style="fill: none; stroke-dasharray: 2.96,1.28; stroke-dashoffset: 0; stroke: #b0b0b0; stroke-opacity: 0.4; stroke-width: 0.8"/>
     </g>
     <g id="line2d_20">
      <g>
       <use xlink:href="#m5282aa24df" x="50.14375" y="167.271099" style="stroke: #000000; stroke-width: 0.8"/>
      </g>
     </g>
     <g id="text_11">
      <!-- 0.75 -->
      <g transform="translate(20.878125 171.070318) scale(0.1 -0.1)">
       <defs>
        <path id="DejaVuSans-37" d="M 525 4666 
L 3525 4666 
L 3525 4397 
L 1831 0 
L 1172 0 
L 2766 4134 
L 525 4134 
L 525 4666 
z
" transform="scale(0.015625)"/>
       </defs>
       <use xlink:href="#DejaVuSans-30"/>
       <use xlink:href="#DejaVuSans-2e" x="63.623047"/>
       <use xlink:href="#DejaVuSans-37" x="95.410156"/>
       <use xlink:href="#DejaVuSans-35" x="159.033203"/>
      </g>
     </g>
    </g>
    <g id="ytick_5">
     <g id="line2d_21">
      <path d="M 50.14375 144.387835 
L 329.14375 144.387835 
" clip-path="url(#p4f71161ac5)" style="fill: none; stroke-dasharray: 2.96,1.28; stroke-dashoffset: 0; stroke: #b0b0b0; stroke-opacity: 0.4; stroke-width: 0.8"/>
     </g>
     <g id="line2d_22">
      <g>
       <use xlink:href="#m5282aa24df" x="50.14375" y="144.387835" style="stroke: #000000; stroke-width: 0.8"/>
      </g>
     </g>
     <g id="text_12">
      <!-- 1.00 -->
      <g transform="translate(20.878125 148.187054) scale(0.1 -0.1)">
       <use xlink:href="#DejaVuSans-31"/>
       <use xlink:href="#DejaVuSans-2e" x="63.623047"/>
       <use xlink:href="#DejaVuSans-30" x="95.410156"/>
       <use xlink:href="#DejaVuSans-30" x="159.033203"/>
      </g>
     </g>
    </g>
    <g id="ytick_6">
     <g id="line2d_23">
      <path d="M 50.14375 121.504571 
L 329.14375 121.504571 
" clip-path="url(#p4f71161ac5)" style="fill: none; stroke-dasharray: 2.96,1.28; stroke-dashoffset: 0; stroke: #b0b0b0; stroke-opacity: 0.4; stroke-width: 0.8"/>
     </g>
     <g id="line2d_24">
      <g>
       <use xlink:href="#m5282aa24df" x="50.14375" y="121.504571" style="stroke: #000000; stroke-width: 0.8"/>
      </g>
     </g>
     <g id="text_13">
      <!-- 1.25 -->
      <g transform="translate(20.878125 125.30379) scale(0.1 -0.1)">
       <use xlink:href="#DejaVuSans-31"/>
       <use xlink:href="#DejaVuSans-2e" x="63.623047"/>
       <use xlink:href="#DejaVuSans-32" x="95.410156"/>
       <use xlink:href="#DejaVuSans-35" x="159.033203"/>
      </g>
     </g>
    </g>
    <g id="ytick_7">
     <g id="line2d_25">
      <path d="M 50.14375 98.621308 
L 329.14375 98.621308 
" clip-path="url(#p4f71161ac5)" style="fill: none; stroke-dasharray: 2.96,1.28; stroke-dashoffset: 0; stroke: #b0b0b0; stroke-opacity: 0.4; stroke-width: 0.8"/>
     </g>
     <g id="line2d_26">
      <g>
       <use xlink:href="#m5282aa24df" x="50.14375" y="98.621308" style="stroke: #000000; stroke-width: 0.8"/>
      </g>
     </g>
     <g id="text_14">
      <!-- 1.50 -->
      <g transform="translate(20.878125 102.420526) scale(0.1 -0.1)">
       <use xlink:href="#DejaVuSans-31"/>
       <use xlink:href="#DejaVuSans-2e" x="63.623047"/>
       <use xlink:href="#DejaVuSans-35" x="95.410156"/>
       <use xlink:href="#DejaVuSans-30" x="159.033203"/>
      </g>
     </g>
    </g>
    <g id="ytick_8">
     <g id="line2d_27">
      <path d="M 50.14375 75.738044 
L 329.14375 75.738044 
" clip-path="url(#p4f71161ac5)" style="fill: none; stroke-dasharray: 2.96,1.28; stroke-dashoffset: 0; stroke: #b0b0b0; stroke-opacity: 0.4; stroke-width: 0.8"/>
     </g>
     <g id="line2d_28">
      <g>
       <use xlink:href="#m5282aa24df" x="50.14375" y="75.738044" style="stroke: #000000; stroke-width: 0.8"/>
      </g>
     </g>
     <g id="text_15">
      <!-- 1.75 -->
      <g transform="translate(20.878125 79.537262) scale(0.1 -0.1)">
       <use xlink:href="#DejaVuSans-31"/>
       <use xlink:href="#DejaVuSans-2e" x="63.623047"/>
       <use xlink:href="#DejaVuSans-37" x="95.410156"/>
       <use xlink:href="#DejaVuSans-35" x="159.033203"/>
      </g>
     </g>
    </g>
    <g id="ytick_9">
     <g id="line2d_29">
      <path d="M 50.14375 52.85478 
L 329.14375 52.85478 
" clip-path="url(#p4f71161ac5)" style="fill: none; stroke-dasharray: 2.96,1.28; stroke-dashoffset: 0; stroke: #b0b0b0; stroke-opacity: 0.4; stroke-width: 0.8"/>
     </g>
     <g id="line2d_30">
      <g>
       <use xlink:href="#m5282aa24df" x="50.14375" y="52.85478" style="stroke: #000000; stroke-width: 0.8"/>
      </g>
     </g>
     <g id="text_16">
      <!-- 2.00 -->
      <g transform="translate(20.878125 56.653998) scale(0.1 -0.1)">
       <use xlink:href="#DejaVuSans-32"/>
       <use xlink:href="#DejaVuSans-2e" x="63.623047"/>
       <use xlink:href="#DejaVuSans-30" x="95.410156"/>
       <use xlink:href="#DejaVuSans-30" x="159.033203"/>
      </g>
     </g>
    </g>
    <g id="text_17">
     <!-- Loss -->
     <g transform="translate(14.798438 149.495187) rotate(-90) scale(0.1 -0.1)">
      <defs>
       <path id="DejaVuSans-4c" d="M 628 4666 
L 1259 4666 
L 1259 531 
L 3531 531 
L 3531 0 
L 628 0 
L 628 4666 
z
" transform="scale(0.015625)"/>
      </defs>
      <use xlink:href="#DejaVuSans-4c"/>
      <use xlink:href="#DejaVuSans-6f" x="53.962891"/>
      <use xlink:href="#DejaVuSans-73" x="115.144531"/>
      <use xlink:href="#DejaVuSans-73" x="167.244141"/>
     </g>
    </g>
   </g>
   <g id="line2d_31">
    <path d="M 62.825568 169.252142 
L 63.079458 172.582993 
L 63.333349 173.47992 
L 63.587239 175.402095 
L 64.85669 197.254579 
L 65.11058 198.122989 
L 65.364471 201.52316 
L 65.618361 201.378055 
L 65.872251 203.462633 
L 66.126141 203.876507 
L 66.380032 204.729242 
L 66.887812 207.461867 
L 67.141702 206.539854 
L 67.395593 207.490284 
L 67.649483 206.571907 
L 67.903373 207.791834 
L 68.157264 207.897545 
L 68.411154 209.063203 
L 68.665044 207.211855 
L 68.918934 209.396667 
L 69.172825 210.245354 
L 69.426715 209.492102 
L 69.934495 211.509977 
L 70.188386 211.554341 
L 70.442276 211.250609 
L 70.696166 210.346963 
L 70.950056 211.906758 
L 71.203947 210.792169 
L 71.457837 212.564173 
L 71.711727 211.90804 
L 71.965617 211.93204 
L 72.219508 212.14333 
L 72.473398 212.715523 
L 72.981178 212.038407 
L 73.235069 213.571466 
L 73.488959 212.445649 
L 73.742849 213.26951 
L 73.996739 213.159439 
L 74.25063 213.883868 
L 74.50452 212.418073 
L 74.75841 213.770004 
L 75.0123 212.905319 
L 75.266191 213.780173 
L 75.520081 214.206728 
L 75.773971 213.129196 
L 76.027861 213.441152 
L 76.281752 214.584846 
L 76.535642 214.353052 
L 76.789532 216.028185 
L 77.297313 213.836848 
L 77.551203 215.0219 
L 77.805093 214.246651 
L 78.058983 215.185984 
L 78.820654 216.292867 
L 79.074544 214.58587 
L 79.328435 216.732513 
L 79.582325 215.520392 
L 79.836215 216.133286 
L 80.090105 215.551426 
L 80.343996 215.92984 
L 80.597886 216.562411 
L 80.851776 215.213017 
L 81.105666 217.415142 
L 81.359557 216.308862 
L 81.867337 218.54542 
L 82.121227 217.165547 
L 82.375118 216.807508 
L 82.629008 217.054873 
L 82.882898 216.832654 
L 83.136788 216.190825 
L 83.390679 214.676046 
L 83.644569 217.013258 
L 83.898459 218.081747 
L 84.15235 217.221411 
L 84.40624 218.346299 
L 84.66013 217.033014 
L 85.167911 218.665462 
L 85.675691 216.863819 
L 86.183472 219.210508 
L 86.437362 217.563252 
L 86.691252 217.234629 
L 86.945142 218.904305 
L 87.199033 219.072379 
L 87.452923 218.554907 
L 87.706813 217.716332 
L 87.960703 219.030773 
L 88.214594 216.72344 
L 88.468484 218.479834 
L 88.722374 218.488849 
L 88.976264 220.236686 
L 89.484045 221.735645 
L 89.737935 222.174019 
L 89.991825 221.658767 
L 90.245716 221.414664 
L 90.499606 221.832511 
L 90.753496 222.792288 
L 91.007386 221.665374 
L 91.261277 221.999169 
L 91.515167 222.536632 
L 91.769057 221.874202 
L 92.022947 222.200318 
L 92.276838 222.788017 
L 93.038508 222.1184 
L 93.292399 222.463976 
L 93.546289 221.620017 
L 93.800179 222.381511 
L 94.054069 223.500269 
L 94.30796 222.592501 
L 94.56185 223.135692 
L 94.81574 222.959339 
L 95.06963 222.473578 
L 95.577411 222.559448 
L 95.831301 222.044662 
L 96.339082 222.752665 
L 96.592972 221.698157 
L 96.846862 222.671964 
L 97.100752 222.357135 
L 97.354643 222.724718 
L 97.608533 222.620692 
L 97.862423 224.135318 
L 98.624094 222.529354 
L 98.877984 222.848899 
L 99.131874 223.443794 
L 99.385765 223.001283 
L 99.639655 222.974552 
L 99.893545 224.608257 
L 100.147436 224.355863 
L 100.401326 222.067041 
L 100.655216 221.85563 
L 101.416887 223.399727 
L 101.670777 223.415301 
L 101.924667 225.170654 
L 102.178558 225.022006 
L 102.432448 225.106254 
L 102.686338 225.072635 
L 102.940228 225.516928 
L 103.448009 225.886584 
L 103.701899 226.248729 
L 103.955789 225.643331 
L 104.20968 224.491227 
L 104.46357 225.060862 
L 105.225241 225.791105 
L 105.733021 226.39995 
L 105.986911 225.040619 
L 106.494692 226.755885 
L 106.748582 225.250711 
L 107.002472 226.241909 
L 107.256363 226.45321 
L 107.510253 225.834594 
L 107.764143 225.777366 
L 108.018033 225.898891 
L 108.271924 226.597608 
L 108.525814 225.851271 
L 109.033594 225.575818 
L 109.287485 226.786917 
L 109.541375 224.693497 
L 110.049155 226.805594 
L 110.303046 225.664531 
L 110.556936 226.507258 
L 110.810826 224.008987 
L 111.318607 226.451824 
L 111.572497 225.516448 
L 111.826387 226.240031 
L 112.080277 226.301933 
L 112.334168 226.603786 
L 112.588058 227.099223 
L 113.095838 225.725719 
L 113.349729 225.875197 
L 113.603619 226.54879 
L 113.857509 225.730866 
L 114.111399 225.657533 
L 114.36529 227.353193 
L 114.61918 226.89246 
L 114.87307 225.895395 
L 115.12696 227.163709 
L 115.380851 227.13036 
L 115.634741 226.791632 
L 115.888631 226.039827 
L 116.142521 228.193995 
L 116.396412 227.840255 
L 116.650302 226.964626 
L 116.904192 226.646403 
L 117.158083 227.506559 
L 117.411973 227.647841 
L 117.665863 227.639847 
L 117.919753 227.243184 
L 118.173644 227.443642 
L 118.427534 228.252194 
L 118.681424 227.948108 
L 118.935314 226.757176 
L 119.189205 226.755228 
L 119.443095 228.280448 
L 119.696985 228.398088 
L 119.950875 227.302858 
L 120.204766 227.957136 
L 120.458656 227.751212 
L 120.712546 227.71228 
L 120.966436 227.786536 
L 121.220327 228.061855 
L 121.474217 226.965611 
L 121.728107 228.01547 
L 121.981997 227.707906 
L 122.489778 226.314813 
L 122.743668 227.454295 
L 122.997558 227.139407 
L 123.251449 227.691494 
L 123.505339 227.46265 
L 123.759229 227.859913 
L 124.013119 227.882249 
L 124.26701 227.312124 
L 124.77479 227.94963 
L 125.282571 227.818931 
L 125.536461 227.905437 
L 125.790351 228.194642 
L 126.044241 228.101082 
L 126.298132 228.585108 
L 126.552022 227.08019 
L 126.805912 227.767401 
L 127.059802 227.719346 
L 127.313693 228.331137 
L 127.567583 227.959973 
L 127.821473 228.505721 
L 128.329254 228.278901 
L 128.837034 229.028052 
L 129.090924 227.788272 
L 129.344815 228.068577 
L 129.598705 229.347946 
L 129.852595 227.992959 
L 130.106485 228.643379 
L 130.360376 228.186012 
L 130.614266 229.472121 
L 130.868156 228.803714 
L 131.375937 228.752212 
L 131.629827 228.885735 
L 131.883717 228.367688 
L 132.137607 228.280539 
L 132.391498 229.098871 
L 132.645388 227.510794 
L 132.899278 228.433433 
L 133.407059 229.118711 
L 133.660949 227.38812 
L 133.914839 228.754295 
L 134.16873 228.39777 
L 134.42262 227.499495 
L 134.67651 228.379178 
L 134.9304 227.692412 
L 135.184291 228.541481 
L 135.438181 228.593148 
L 135.692071 228.408048 
L 135.945961 228.368065 
L 136.199852 229.169599 
L 136.453742 229.010866 
L 136.707632 228.513771 
L 136.961522 229.160108 
L 137.215413 229.387113 
L 137.469303 229.038813 
L 137.723193 229.264977 
L 137.977083 228.513237 
L 138.230974 228.806791 
L 138.484864 228.067448 
L 138.738754 229.296102 
L 138.992644 228.60076 
L 139.246535 228.552238 
L 139.500425 228.139039 
L 140.008205 229.219686 
L 140.262096 229.176556 
L 140.515986 229.762369 
L 140.769876 228.737199 
L 141.023766 228.439712 
L 141.277657 228.544748 
L 141.531547 229.25644 
L 141.785437 229.285516 
L 142.039327 228.968969 
L 142.293218 229.381383 
L 142.547108 228.989288 
L 142.800998 228.009676 
L 143.054888 228.446542 
L 143.308779 229.12771 
L 143.816559 228.263172 
L 144.070449 229.271928 
L 144.57823 229.243912 
L 144.83212 228.644303 
L 145.08601 228.86737 
L 145.339901 229.625461 
L 145.593791 228.917538 
L 145.847681 228.87361 
L 146.101571 229.155474 
L 146.609352 228.635974 
L 147.117132 228.839137 
L 147.371023 228.527163 
L 147.624913 229.631146 
L 147.878803 228.972813 
L 148.132693 229.078911 
L 148.386584 228.03555 
L 148.640474 228.24012 
L 148.894364 229.142036 
L 149.148255 228.457453 
L 149.656035 228.242765 
L 149.909925 229.013099 
L 150.163816 229.152562 
L 150.417706 228.673227 
L 150.671596 229.438684 
L 150.925486 229.060738 
L 151.179377 229.351459 
L 151.433267 228.908855 
L 151.687157 229.216831 
L 151.941047 229.249854 
L 152.194938 228.044527 
L 152.448828 229.749877 
L 152.702718 229.669868 
L 152.956608 229.387638 
L 153.210499 229.344107 
L 153.464389 228.734817 
L 153.718279 228.903192 
L 153.972169 229.655773 
L 154.22606 229.083502 
L 154.47995 229.829383 
L 154.73384 228.834564 
L 154.98773 229.634074 
L 155.495511 228.594728 
L 155.749401 229.490109 
L 156.003291 229.124366 
L 156.257182 229.180131 
L 156.511072 229.428663 
L 156.764962 229.049197 
L 157.272743 229.898913 
L 157.780523 228.658671 
L 158.034413 229.364674 
L 158.288304 228.975031 
L 158.542194 229.726179 
L 159.049974 229.610978 
L 159.303865 229.305822 
L 159.557755 227.262161 
L 159.811645 228.458517 
L 160.065535 229.112467 
L 160.827206 229.068933 
L 161.081096 229.44475 
L 161.334987 228.700698 
L 161.588877 230.47502 
L 161.842767 229.052423 
L 162.096657 229.364822 
L 162.350548 229.121213 
L 162.604438 229.255318 
L 162.858328 228.884347 
L 163.112218 228.761166 
L 163.366109 228.908768 
L 163.619999 230.348617 
L 163.873889 229.921363 
L 164.127779 229.049055 
L 164.38167 229.35614 
L 164.63556 228.504968 
L 164.88945 229.728137 
L 165.397231 228.39313 
L 165.651121 228.628914 
L 165.905011 229.255571 
L 166.158902 229.572282 
L 166.412792 229.533583 
L 166.666682 228.83913 
L 166.920572 228.914409 
L 167.174463 229.353317 
L 167.428353 228.747091 
L 167.936133 229.415117 
L 168.190024 229.048357 
L 168.443914 229.656135 
L 168.697804 229.09389 
L 168.951694 229.253661 
L 169.205585 229.220634 
L 169.459475 229.412098 
L 169.713365 229.162349 
L 169.967255 229.818885 
L 170.221146 228.446445 
L 170.475036 228.555046 
L 170.728926 228.839874 
L 170.982816 229.35852 
L 171.490597 228.855638 
L 171.744487 229.56105 
L 171.998377 229.07405 
L 172.252268 229.408453 
L 172.506158 229.186437 
L 173.013938 229.649146 
L 173.267829 228.804766 
L 173.521719 228.565138 
L 173.775609 229.113648 
L 174.029499 229.117472 
L 174.28339 229.46782 
L 174.53728 229.434399 
L 174.79117 229.832998 
L 175.04506 229.34936 
L 175.298951 229.261399 
L 175.552841 230.02812 
L 175.806731 228.934121 
L 176.060621 229.717638 
L 176.314512 229.376295 
L 176.822292 229.620317 
L 177.076182 229.209432 
L 177.330073 229.255648 
L 177.583963 229.051107 
L 177.837853 229.031346 
L 178.091743 229.37904 
L 178.345634 229.032433 
L 178.599524 229.378707 
L 179.107304 228.438945 
L 179.361195 230.074199 
L 179.615085 228.78568 
L 179.868975 229.449339 
L 181.392317 228.856886 
L 181.646207 229.19332 
L 181.900097 229.226475 
L 182.153988 228.666086 
L 182.407878 228.839902 
L 182.661768 230.045944 
L 182.915658 228.754687 
L 183.423439 229.911614 
L 183.677329 228.817452 
L 183.931219 229.736771 
L 184.18511 229.194104 
L 184.69289 229.314455 
L 184.94678 228.598325 
L 185.200671 229.669522 
L 185.454561 230.043501 
L 185.708451 229.409063 
L 186.216232 228.882565 
L 186.724012 229.601457 
L 187.231793 228.899854 
L 187.485683 229.656117 
L 187.993463 228.982464 
L 188.247354 229.488706 
L 188.501244 228.902365 
L 188.755134 229.605595 
L 189.009024 229.750106 
L 189.262915 228.654294 
L 189.516805 229.997049 
L 189.770695 228.867985 
L 190.024585 229.492705 
L 190.532366 228.502944 
L 190.786256 229.778801 
L 191.040146 228.821131 
L 191.294037 229.501513 
L 191.547927 229.117319 
L 191.801817 229.649016 
L 192.055707 229.470936 
L 192.309598 228.797122 
L 192.563488 229.803067 
L 192.817378 229.547679 
L 193.071268 229.523778 
L 193.325159 229.747302 
L 193.579049 229.152659 
L 193.832939 229.71769 
L 194.086829 229.796846 
L 194.59461 229.122828 
L 194.8485 229.620227 
L 195.356281 229.646104 
L 195.610171 229.265244 
L 196.117951 229.922335 
L 196.371842 229.671167 
L 196.625732 229.123195 
L 196.879622 229.395268 
L 197.133512 229.963385 
L 197.387403 229.346602 
L 197.641293 229.786171 
L 197.895183 229.630023 
L 198.149074 229.214282 
L 198.656854 229.608061 
L 198.910744 229.233889 
L 199.164635 230.07031 
L 199.418525 229.151339 
L 199.672415 229.212994 
L 199.926305 229.76153 
L 200.180196 229.941518 
L 200.434086 229.639568 
L 200.687976 228.688052 
L 200.941866 230.044321 
L 201.195757 229.768617 
L 201.449647 229.85926 
L 201.703537 229.392327 
L 201.957427 229.474204 
L 202.211318 229.702096 
L 202.465208 228.397506 
L 202.719098 230.317965 
L 203.480769 228.934883 
L 203.734659 229.377096 
L 203.988549 229.534892 
L 204.24244 230.139088 
L 204.49633 229.428225 
L 204.75022 229.69402 
L 205.00411 228.923451 
L 205.258001 229.052209 
L 205.511891 229.72401 
L 206.019671 229.559826 
L 206.273562 230.328756 
L 206.781342 228.748295 
L 207.035232 229.430014 
L 207.543013 229.510927 
L 207.796903 229.18919 
L 208.304684 230.021916 
L 208.558574 229.207771 
L 208.812464 229.87148 
L 209.066354 229.60459 
L 209.320245 229.983513 
L 209.574135 229.464095 
L 210.081915 229.77181 
L 210.335806 229.470857 
L 210.589696 229.517062 
L 210.843586 229.676622 
L 211.097476 228.839465 
L 211.351367 229.856036 
L 211.605257 229.765973 
L 212.366928 229.244111 
L 212.620818 229.421895 
L 212.874708 229.017076 
L 213.128598 229.312347 
L 213.382489 229.936697 
L 213.890269 229.748344 
L 214.14416 229.908319 
L 214.65194 229.531989 
L 215.159721 229.855487 
L 215.413611 229.149355 
L 215.667501 229.623643 
L 215.921391 228.697603 
L 216.175282 229.333024 
L 216.429172 229.380598 
L 216.683062 229.164719 
L 216.936952 229.303378 
L 217.190843 229.694695 
L 217.444733 229.373412 
L 217.698623 229.527545 
L 218.206404 229.508044 
L 218.460294 230.06003 
L 218.714184 229.525328 
L 218.968074 229.688603 
L 219.475855 229.619999 
L 219.729745 229.97757 
L 219.983635 228.748474 
L 220.237526 229.440846 
L 220.745306 228.668741 
L 220.999196 229.217312 
L 221.253087 229.350743 
L 221.506977 229.293724 
L 221.760867 229.612882 
L 222.014757 229.596482 
L 222.268648 228.258243 
L 222.522538 229.301339 
L 222.776428 228.897066 
L 223.284209 229.62031 
L 223.538099 229.298031 
L 224.045879 229.177198 
L 224.29977 229.35226 
L 224.55366 230.174331 
L 224.80755 229.028121 
L 225.315331 229.713855 
L 225.569221 228.997549 
L 225.823111 229.111277 
L 226.077001 228.58357 
L 226.330892 230.214538 
L 226.584782 229.423069 
L 226.838672 229.299836 
L 227.092562 230.344465 
L 227.346453 229.627859 
L 227.854233 229.850456 
L 228.108123 228.431567 
L 228.362014 229.584289 
L 228.615904 229.828422 
L 228.869794 229.228083 
L 229.123684 229.730214 
L 229.377575 229.629109 
L 229.631465 229.231284 
L 230.139245 229.592693 
L 230.393136 229.22416 
L 230.647026 229.269677 
L 230.900916 229.767691 
L 231.154807 228.769339 
L 231.408697 229.543682 
L 231.662587 229.327793 
L 231.916477 229.761167 
L 232.170368 229.373641 
L 232.424258 229.30792 
L 232.678148 229.499432 
L 233.185929 228.762436 
L 233.439819 229.444255 
L 233.693709 229.104065 
L 233.947599 230.069178 
L 234.20149 228.944118 
L 234.45538 229.533784 
L 234.70927 229.80927 
L 234.96316 228.542243 
L 235.217051 229.841008 
L 235.470941 229.81669 
L 235.724831 230.088537 
L 235.978721 228.526014 
L 236.232612 229.355337 
L 236.486502 229.801402 
L 236.740392 229.120525 
L 236.994282 229.714392 
L 237.248173 229.707843 
L 237.502063 229.19069 
L 237.755953 229.378916 
L 238.009843 228.705582 
L 238.263734 229.411407 
L 238.517624 229.076894 
L 239.025404 229.891609 
L 239.279295 229.684441 
L 239.533185 230.307783 
L 239.787075 229.326228 
L 240.040965 229.711747 
L 240.294856 229.45155 
L 240.548746 228.897235 
L 240.802636 229.345954 
L 241.056526 229.112045 
L 241.310417 229.590668 
L 241.564307 229.361683 
L 241.818197 229.386638 
L 242.072087 229.978009 
L 242.325978 229.211801 
L 242.579868 229.552654 
L 242.833758 229.253609 
L 243.087648 229.454114 
L 243.341539 229.94316 
L 243.849319 229.066045 
L 244.103209 228.859696 
L 244.3571 229.797137 
L 244.61099 229.821702 
L 244.86488 230.11156 
L 245.372661 229.318312 
L 245.626551 229.78482 
L 245.880441 229.784477 
L 246.134331 229.513498 
L 246.642112 230.13909 
L 247.403783 229.175111 
L 247.657673 229.192694 
L 247.911563 229.853383 
L 248.419344 228.570396 
L 248.673234 229.639663 
L 248.927124 229.120136 
L 249.181015 229.435198 
L 249.434905 229.37581 
L 249.688795 229.795651 
L 249.942685 229.281215 
L 250.196576 229.322216 
L 250.450466 228.842799 
L 250.704356 229.922975 
L 250.958246 229.797002 
L 251.212137 229.247868 
L 251.466027 229.753737 
L 251.719917 229.154213 
L 251.973807 228.923421 
L 252.227698 229.693439 
L 252.481588 229.795428 
L 252.735478 228.949456 
L 252.989368 229.319283 
L 253.497149 229.32508 
L 253.751039 228.751109 
L 254.004929 229.432212 
L 254.25882 229.367257 
L 254.51271 229.63963 
L 255.02049 229.284238 
L 255.274381 229.836909 
L 255.528271 229.498702 
L 255.782161 229.656325 
L 256.289942 229.563854 
L 256.543832 229.909689 
L 256.797722 228.313368 
L 257.051612 229.584875 
L 257.305503 229.057717 
L 257.813283 229.763816 
L 258.067173 227.897116 
L 258.321064 229.516025 
L 258.574954 229.949493 
L 258.828844 229.171989 
L 259.590515 229.084928 
L 259.844405 229.264408 
L 260.098295 230.20484 
L 260.352186 229.645325 
L 260.859966 229.842905 
L 261.113856 229.739671 
L 261.367747 228.876185 
L 261.621637 230.07914 
L 261.875527 229.702966 
L 262.637198 229.547648 
L 262.891088 229.128222 
L 263.144979 228.926969 
L 263.398869 229.703108 
L 263.652759 229.59905 
L 264.16054 230.163155 
L 264.41443 229.772217 
L 264.66832 230.037977 
L 264.92221 230.049068 
L 265.176101 229.170258 
L 265.429991 229.5038 
L 265.683881 229.385261 
L 265.937771 229.603739 
L 266.191662 228.891321 
L 266.699442 229.933024 
L 266.953332 229.289683 
L 267.207223 230.149344 
L 267.461113 229.754082 
L 267.715003 229.566656 
L 267.968893 228.136953 
L 268.222784 229.479805 
L 268.476674 228.958124 
L 268.730564 230.059294 
L 269.492235 229.119273 
L 269.746125 229.111713 
L 270.000015 228.618254 
L 270.253906 229.448392 
L 270.507796 229.374042 
L 270.761686 228.638556 
L 271.015576 229.923615 
L 271.523357 229.90812 
L 271.777247 229.671889 
L 272.031137 229.768493 
L 272.285028 229.506039 
L 272.538918 228.76682 
L 273.046698 229.993911 
L 273.300589 228.788286 
L 273.554479 229.90754 
L 273.808369 229.632021 
L 274.062259 228.86644 
L 274.57004 229.929632 
L 275.07782 229.580851 
L 275.331711 228.730806 
L 275.585601 228.922574 
L 275.839491 228.940438 
L 276.093381 229.14377 
L 276.347272 229.517136 
L 276.601162 229.479015 
L 277.108942 230.146244 
L 277.362833 229.244761 
L 277.616723 229.359827 
L 277.870613 230.079868 
L 278.124503 229.67864 
L 278.378394 230.486731 
L 278.632284 229.141154 
L 278.886174 229.230124 
L 279.140064 229.902951 
L 280.155626 228.884776 
L 280.409516 229.753881 
L 280.663406 228.932867 
L 280.917296 229.620832 
L 281.171187 229.171989 
L 281.425077 229.709851 
L 281.678967 229.693128 
L 281.932857 229.351464 
L 282.186748 229.346274 
L 282.440638 230.127036 
L 282.694528 229.881231 
L 283.202309 228.296599 
L 283.710089 229.514879 
L 283.963979 229.102263 
L 284.21787 229.072694 
L 284.72565 229.594781 
L 284.97954 229.436393 
L 285.233431 229.506019 
L 285.487321 229.852397 
L 285.995101 229.428199 
L 286.248992 229.698951 
L 286.502882 229.445337 
L 286.756772 228.849758 
L 287.010662 229.279188 
L 287.264553 227.848011 
L 287.518443 229.762401 
L 287.772333 229.571302 
L 288.026223 229.915294 
L 288.280114 229.362017 
L 288.534004 230.557091 
L 289.295675 229.075772 
L 289.549565 229.779674 
L 289.803455 228.570939 
L 290.057345 229.678707 
L 290.311236 228.465685 
L 290.565126 229.622142 
L 291.326797 229.471995 
L 291.580687 229.137836 
L 292.088467 230.079649 
L 292.342358 228.972108 
L 292.596248 229.364112 
L 292.850138 229.048375 
L 293.104028 229.278521 
L 293.357919 229.950181 
L 293.611809 229.915146 
L 293.865699 229.363486 
L 294.119589 229.709127 
L 294.37348 228.862023 
L 294.62737 229.837875 
L 295.13515 229.542486 
L 295.389041 228.836351 
L 295.642931 229.421249 
L 296.404602 229.451065 
L 296.658492 229.934021 
L 296.912382 229.502362 
L 297.166273 229.851854 
L 297.674053 229.705752 
L 297.927943 229.467967 
L 298.181834 228.632814 
L 298.435724 229.422877 
L 298.689614 229.329343 
L 298.943504 228.883906 
L 299.197395 229.559004 
L 299.959065 229.46912 
L 300.212956 228.47842 
L 300.466846 229.846603 
L 300.720736 229.439887 
L 300.974626 229.634944 
L 301.228517 229.053161 
L 301.482407 230.005096 
L 301.736297 229.90176 
L 301.990187 230.183001 
L 302.244078 229.723459 
L 302.497968 229.878163 
L 303.005748 229.765394 
L 303.513529 229.498343 
L 303.767419 229.50599 
L 304.021309 229.218164 
L 304.52909 229.987223 
L 305.03687 229.205257 
L 305.290761 229.202593 
L 305.544651 229.68717 
L 305.798541 229.740701 
L 306.052431 228.520239 
L 306.306322 229.49832 
L 306.560212 229.66634 
L 306.814102 230.284841 
L 307.067992 228.983335 
L 307.321883 229.783336 
L 307.575773 229.617538 
L 307.829663 229.706687 
L 308.083553 229.248793 
L 308.337444 229.049447 
L 308.591334 229.076902 
L 308.845224 228.895277 
L 309.099114 230.248806 
L 309.353005 229.895572 
L 309.860785 229.825419 
L 310.114675 230.141047 
L 310.368566 229.588519 
L 310.622456 229.665111 
L 310.876346 229.11418 
L 311.130236 229.656797 
L 311.384127 228.981791 
L 311.638017 228.8675 
L 312.145798 229.427179 
L 312.399688 229.849892 
L 312.653578 229.994269 
L 312.907468 230.450028 
L 313.161359 230.063552 
L 313.415249 228.711687 
L 313.669139 230.001857 
L 313.923029 228.333539 
L 314.17692 229.881767 
L 314.43081 229.114844 
L 314.6847 230.018818 
L 314.93859 229.277605 
L 315.192481 230.112167 
L 315.446371 229.525849 
L 315.700261 229.73123 
L 315.954151 229.444541 
L 316.208042 229.63822 
L 316.461932 229.466172 
L 316.461932 229.466172 
" clip-path="url(#p4f71161ac5)" style="fill: none; stroke: #0000ff; stroke-width: 0.6; stroke-linecap: square"/>
   </g>
   <g id="line2d_32">
    <path d="M 62.825568 171.395741 
L 63.079458 172.544938 
L 63.333349 173.15793 
L 63.587239 176.240247 
L 63.841129 156.437559 
L 64.095019 153.749784 
L 64.34891 121.068544 
L 64.6028 136.935612 
L 64.85669 164.627477 
L 65.11058 117.854994 
L 65.364471 119.954373 
L 65.618361 100.235197 
L 65.872251 187.201551 
L 66.126141 190.203681 
L 66.380032 202.964906 
L 66.633922 187.882636 
L 66.887812 165.474648 
L 67.141702 196.926819 
L 67.395593 181.878915 
L 67.649483 201.877662 
L 67.903373 196.804258 
L 68.157264 206.222171 
L 68.411154 180.693327 
L 68.665044 194.681934 
L 68.918934 201.083181 
L 69.172825 195.769432 
L 69.426715 206.22302 
L 69.680605 200.323998 
L 69.934495 188.358212 
L 70.188386 191.395382 
L 70.442276 199.344809 
L 70.696166 192.027062 
L 70.950056 205.778373 
L 71.203947 198.806968 
L 71.711727 206.815241 
L 71.965617 195.327254 
L 72.219508 192.045778 
L 72.473398 192.031833 
L 72.727288 205.914915 
L 72.981178 183.889866 
L 73.235069 185.092957 
L 73.488959 200.481442 
L 73.742849 206.651376 
L 73.996739 204.061428 
L 74.25063 199.580856 
L 74.50452 203.732678 
L 74.75841 198.548789 
L 75.0123 196.499273 
L 75.266191 199.686453 
L 75.520081 191.029028 
L 76.027861 208.130598 
L 76.281752 206.190852 
L 76.535642 198.997558 
L 76.789532 202.904341 
L 77.043422 184.928704 
L 77.297313 205.065314 
L 77.551203 46.498909 
L 77.805093 201.760477 
L 78.058983 139.060317 
L 78.312874 160.228055 
L 78.566764 155.327998 
L 78.820654 167.390996 
L 79.074544 202.883582 
L 79.328435 173.799831 
L 79.582325 168.363966 
L 79.836215 207.971477 
L 80.090105 202.117594 
L 80.343996 201.846149 
L 80.597886 179.812963 
L 80.851776 186.513951 
L 81.105666 144.63543 
L 81.613447 203.423346 
L 81.867337 192.772957 
L 82.121227 63.678019 
L 82.375118 200.686773 
L 82.629008 67.512428 
L 82.882898 195.59099 
L 83.136788 204.440944 
L 83.390679 205.908695 
L 83.644569 204.795148 
L 83.898459 200.586722 
L 84.15235 203.987879 
L 84.40624 205.047457 
L 84.66013 204.425867 
L 84.91402 170.827219 
L 85.167911 206.744283 
L 85.421801 196.171999 
L 85.675691 155.633615 
L 85.929581 204.437251 
L 86.183472 201.166387 
L 86.437362 121.700478 
L 86.691252 193.463865 
L 86.945142 188.686814 
L 87.199033 199.618098 
L 87.452923 198.14114 
L 87.706813 184.520578 
L 87.960703 197.011804 
L 88.214594 198.354353 
L 88.468484 198.620871 
L 88.722374 183.115596 
L 88.976264 200.358703 
L 89.230155 190.20418 
L 89.484045 203.431003 
L 89.737935 206.588793 
L 89.991825 203.834233 
L 90.245716 205.240153 
L 90.499606 180.050476 
L 90.753496 202.025748 
L 91.515167 191.20136 
L 91.769057 205.453466 
L 92.022947 123.867542 
L 92.276838 197.596278 
L 92.530728 170.025807 
L 92.784618 178.349474 
L 93.038508 199.16492 
L 93.292399 195.982536 
L 93.546289 204.527304 
L 94.054069 198.902586 
L 94.30796 191.70971 
L 94.56185 199.77179 
L 94.81574 201.975045 
L 95.06963 187.380926 
L 95.323521 158.763829 
L 95.577411 201.52106 
L 95.831301 204.463526 
L 96.085191 201.228305 
L 96.339082 204.36324 
L 96.592972 201.808089 
L 96.846862 192.579415 
L 97.100752 199.206548 
L 97.354643 202.635393 
L 97.608533 189.299375 
L 97.862423 187.061211 
L 98.116313 203.321669 
L 98.370204 173.684654 
L 98.877984 202.496982 
L 99.131874 179.452532 
L 99.385765 200.248629 
L 99.639655 150.196402 
L 99.893545 200.994508 
L 100.147436 197.82044 
L 100.401326 161.44156 
L 100.655216 199.754659 
L 100.909106 171.213599 
L 101.162997 194.49465 
L 101.416887 160.673712 
L 101.670777 171.830115 
L 101.924667 196.622691 
L 102.178558 201.338367 
L 102.432448 199.753262 
L 102.686338 200.998678 
L 102.940228 201.145557 
L 103.194119 186.246574 
L 103.448009 202.830208 
L 103.701899 203.172292 
L 103.955789 201.33723 
L 104.20968 200.89279 
L 104.46357 195.293652 
L 104.71746 183.555279 
L 104.97135 198.984167 
L 105.225241 198.475711 
L 105.479131 202.100168 
L 105.733021 201.120097 
L 105.986911 202.972874 
L 106.240802 202.376706 
L 106.494692 195.360032 
L 106.748582 196.623461 
L 107.002472 200.448325 
L 107.256363 200.543987 
L 107.510253 186.784379 
L 107.764143 198.450279 
L 108.271924 185.125735 
L 108.525814 203.261729 
L 108.779704 201.529364 
L 109.287485 196.161268 
L 109.541375 187.168461 
L 109.795265 201.018658 
L 110.049155 202.137759 
L 110.303046 198.644159 
L 110.556936 200.549566 
L 111.064716 196.592916 
L 111.318607 201.730732 
L 111.572497 197.732283 
L 111.826387 196.957304 
L 112.080277 202.810472 
L 112.334168 198.086953 
L 112.588058 202.484414 
L 112.841948 198.271125 
L 113.095838 192.002009 
L 113.349729 194.631752 
L 113.603619 200.595473 
L 113.857509 185.998259 
L 114.111399 200.006414 
L 114.36529 197.978271 
L 114.61918 189.837911 
L 114.87307 200.503123 
L 115.12696 201.859685 
L 115.380851 197.999972 
L 115.634741 200.637554 
L 115.888631 201.377553 
L 116.142521 200.664069 
L 116.396412 201.01522 
L 116.650302 178.717794 
L 116.904192 202.262863 
L 117.158083 200.175745 
L 117.411973 201.646841 
L 117.665863 193.959641 
L 118.173644 200.132091 
L 118.427534 198.907772 
L 118.681424 200.158895 
L 118.935314 200.051662 
L 119.189205 199.274156 
L 119.443095 195.205502 
L 119.950875 196.017663 
L 120.204766 198.537498 
L 120.458656 199.655167 
L 120.712546 188.073474 
L 120.966436 186.872959 
L 121.220327 199.359556 
L 121.474217 199.686241 
L 121.728107 201.528635 
L 121.981997 199.955806 
L 122.235888 200.218148 
L 122.489778 196.934166 
L 122.743668 197.657525 
L 122.997558 200.000178 
L 123.251449 199.35177 
L 123.759229 200.96401 
L 124.013119 200.519226 
L 124.26701 197.207231 
L 124.5209 200.774181 
L 124.77479 197.60513 
L 125.282571 202.083001 
L 125.536461 199.43579 
L 126.044241 198.652051 
L 126.298132 201.310638 
L 126.552022 199.714016 
L 126.805912 200.179529 
L 127.059802 199.791336 
L 127.313693 201.454472 
L 127.567583 199.958891 
L 127.821473 199.833108 
L 128.075363 196.656245 
L 128.329254 200.896958 
L 128.583144 200.844149 
L 128.837034 199.917094 
L 129.090924 195.248669 
L 129.344815 199.499985 
L 129.852595 197.65576 
L 130.106485 197.567212 
L 130.360376 200.321393 
L 130.614266 200.852992 
L 130.868156 200.430455 
L 131.122046 201.095175 
L 131.375937 197.627597 
L 131.629827 199.402206 
L 132.137607 201.053108 
L 132.391498 198.730243 
L 132.645388 199.546927 
L 132.899278 198.238232 
L 133.153169 196.328395 
L 133.407059 198.540927 
L 133.660949 197.648089 
L 134.16873 199.798644 
L 134.42262 201.031915 
L 134.67651 187.366948 
L 134.9304 200.355045 
L 135.184291 196.905433 
L 135.692071 199.721654 
L 135.945961 196.503229 
L 136.199852 199.297392 
L 136.453742 200.114111 
L 136.707632 200.277201 
L 136.961522 197.215469 
L 137.215413 199.047198 
L 137.469303 196.698906 
L 137.723193 197.584603 
L 137.977083 199.362706 
L 138.230974 197.163353 
L 138.484864 199.769821 
L 138.738754 200.258573 
L 138.992644 200.017443 
L 139.246535 198.956689 
L 139.500425 200.451637 
L 139.754315 199.977749 
L 140.008205 196.653323 
L 140.262096 199.865914 
L 140.515986 193.803486 
L 140.769876 199.356634 
L 141.277657 200.078703 
L 141.531547 198.672126 
L 141.785437 200.544475 
L 142.039327 198.899267 
L 142.293218 198.485505 
L 142.547108 197.457581 
L 142.800998 199.682645 
L 143.054888 199.261109 
L 143.308779 198.321738 
L 143.562669 198.512227 
L 143.816559 197.457213 
L 144.070449 200.156639 
L 144.32434 199.736625 
L 144.83212 196.661872 
L 145.08601 197.205572 
L 145.339901 198.122986 
L 145.593791 199.863344 
L 145.847681 196.813434 
L 146.355462 198.868812 
L 146.609352 198.073139 
L 146.863242 200.214724 
L 147.117132 191.765915 
L 147.371023 200.581938 
L 147.624913 194.710179 
L 147.878803 195.502478 
L 148.132693 198.841007 
L 148.386584 198.886426 
L 148.640474 195.932381 
L 148.894364 198.634952 
L 149.148255 198.529628 
L 149.402145 197.124611 
L 149.656035 199.088596 
L 149.909925 198.252185 
L 150.163816 198.212786 
L 150.417706 198.879075 
L 150.671596 196.785203 
L 150.925486 198.970495 
L 151.179377 196.809552 
L 151.433267 200.056468 
L 151.687157 198.071361 
L 151.941047 200.307386 
L 152.194938 198.617617 
L 152.448828 198.728268 
L 152.956608 197.584052 
L 153.210499 199.030798 
L 153.464389 197.121722 
L 153.718279 199.807553 
L 153.972169 198.559731 
L 154.22606 200.120726 
L 154.73384 197.670253 
L 154.98773 199.368623 
L 155.241621 199.351047 
L 155.495511 193.743398 
L 155.749401 198.245924 
L 156.003291 198.315718 
L 156.257182 199.036862 
L 156.511072 198.088459 
L 156.764962 198.965726 
L 157.018852 197.893398 
L 157.272743 198.126071 
L 157.526633 198.166799 
L 157.780523 193.723441 
L 158.034413 198.709746 
L 158.288304 199.172062 
L 158.542194 198.530774 
L 158.796084 199.484523 
L 159.049974 199.023307 
L 159.303865 197.630325 
L 159.557755 198.020133 
L 159.811645 194.273783 
L 160.065535 199.170392 
L 160.319426 198.535332 
L 160.573316 196.762526 
L 161.081096 199.301498 
L 161.334987 198.544389 
L 161.588877 198.493263 
L 161.842767 199.595584 
L 162.096657 197.972095 
L 162.604438 197.286547 
L 162.858328 198.174134 
L 163.112218 196.959164 
L 163.619999 198.29082 
L 163.873889 198.402353 
L 164.127779 197.486235 
L 164.38167 198.864221 
L 164.63556 198.811306 
L 164.88945 199.243336 
L 165.397231 197.000104 
L 165.651121 199.411457 
L 165.905011 198.628692 
L 166.158902 199.003805 
L 166.412792 199.027644 
L 166.920572 196.465543 
L 167.174463 198.258844 
L 167.428353 198.303843 
L 167.682243 199.707153 
L 167.936133 194.913661 
L 168.190024 199.461852 
L 168.443914 198.463368 
L 168.697804 199.235745 
L 168.951694 198.544318 
L 169.205585 198.895213 
L 169.459475 198.457137 
L 169.967255 198.905339 
L 170.221146 196.444511 
L 170.475036 196.329958 
L 170.728926 199.668918 
L 170.982816 198.80971 
L 171.236707 198.356854 
L 171.490597 198.821238 
L 171.744487 199.711796 
L 171.998377 198.380344 
L 172.252268 198.694852 
L 172.506158 196.823497 
L 172.760048 198.818851 
L 173.013938 198.77674 
L 173.267829 199.068486 
L 173.521719 198.657087 
L 173.775609 198.616201 
L 174.029499 199.619052 
L 174.28339 196.620471 
L 174.53728 199.649117 
L 175.04506 198.347009 
L 175.298951 199.14059 
L 175.552841 198.75154 
L 175.806731 198.847267 
L 176.060621 198.260325 
L 176.314512 198.026001 
L 176.568402 195.423677 
L 176.822292 199.048949 
L 177.076182 198.316929 
L 177.330073 198.639936 
L 177.583963 199.239242 
L 177.837853 199.540628 
L 178.091743 199.31681 
L 178.345634 198.29665 
L 178.599524 198.970208 
L 178.853414 198.68208 
L 179.107304 199.313318 
L 179.615085 199.031387 
L 179.868975 197.98996 
L 180.122865 198.558983 
L 180.376756 198.134326 
L 180.884536 198.232609 
L 181.138426 199.18461 
L 181.646207 198.029105 
L 181.900097 198.095751 
L 182.153988 199.101849 
L 182.407878 198.377379 
L 182.661768 198.493994 
L 182.915658 199.107187 
L 183.169549 198.954747 
L 183.423439 197.593998 
L 183.677329 198.454971 
L 183.931219 198.634759 
L 184.18511 199.098283 
L 184.69289 198.360204 
L 184.94678 198.371817 
L 185.454561 198.119102 
L 185.708451 197.697077 
L 185.962341 198.502859 
L 186.216232 197.857832 
L 186.724012 198.559542 
L 186.977902 198.23567 
L 187.231793 198.203516 
L 187.485683 199.394991 
L 187.739573 196.781892 
L 187.993463 198.20805 
L 188.501244 198.068046 
L 188.755134 199.201728 
L 189.262915 197.765825 
L 189.516805 198.630391 
L 189.770695 197.99157 
L 190.024585 197.859411 
L 190.532366 198.646483 
L 190.786256 198.607556 
L 191.040146 199.004501 
L 191.294037 198.501375 
L 191.547927 198.652103 
L 191.801817 198.453585 
L 192.055707 199.017379 
L 192.309598 197.65325 
L 192.563488 198.980345 
L 192.817378 198.223435 
L 193.071268 198.451624 
L 193.325159 198.189893 
L 193.832939 198.906831 
L 194.086829 198.394202 
L 194.34072 198.996999 
L 194.59461 199.287542 
L 194.8485 198.356142 
L 195.10239 199.075909 
L 195.356281 197.747876 
L 195.864061 198.89015 
L 196.117951 198.439804 
L 196.371842 197.622406 
L 196.625732 198.949141 
L 196.879622 198.156449 
L 197.133512 199.481122 
L 197.387403 198.559245 
L 197.641293 198.52713 
L 197.895183 198.272388 
L 198.149074 198.613257 
L 198.656854 197.743552 
L 198.910744 198.441733 
L 199.164635 198.665985 
L 199.672415 196.528164 
L 199.926305 198.303649 
L 200.180196 198.096665 
L 200.434086 196.686091 
L 200.687976 199.090961 
L 200.941866 198.398858 
L 201.449647 198.500563 
L 201.703537 198.916321 
L 201.957427 196.595072 
L 202.211318 198.323672 
L 202.465208 198.628681 
L 202.719098 198.487084 
L 202.972988 197.678879 
L 203.226879 199.314766 
L 203.480769 198.339109 
L 203.734659 195.965563 
L 203.988549 198.557352 
L 204.24244 198.458455 
L 204.49633 199.314515 
L 204.75022 198.419091 
L 205.00411 198.798373 
L 205.258001 197.409777 
L 205.511891 197.108977 
L 205.765781 198.360799 
L 206.019671 199.016364 
L 206.527452 198.195371 
L 206.781342 198.04702 
L 207.035232 198.517866 
L 207.289123 198.239514 
L 207.543013 197.564809 
L 207.796903 198.727098 
L 208.050793 198.236529 
L 208.558574 199.274213 
L 208.812464 197.564433 
L 209.066354 199.268526 
L 209.320245 198.647542 
L 209.574135 199.382645 
L 209.828025 198.479536 
L 210.081915 198.615942 
L 210.335806 197.989728 
L 210.589696 198.843323 
L 210.843586 198.085276 
L 211.097476 198.229257 
L 211.351367 199.641664 
L 211.605257 198.784711 
L 211.859147 198.626147 
L 212.113037 199.425104 
L 212.366928 198.939067 
L 212.620818 199.101267 
L 212.874708 198.748168 
L 213.128598 198.719294 
L 213.382489 198.394535 
L 213.636379 199.228658 
L 213.890269 197.350716 
L 214.14416 198.726528 
L 214.39805 198.891601 
L 214.65194 198.320985 
L 214.90583 198.063442 
L 215.159721 199.140549 
L 215.413611 198.630885 
L 215.667501 197.809428 
L 216.175282 198.375516 
L 216.683062 198.262155 
L 216.936952 199.477155 
L 217.190843 198.957172 
L 217.444733 195.812891 
L 217.698623 198.879855 
L 217.952513 198.861567 
L 218.206404 198.189882 
L 218.714184 198.594438 
L 218.968074 199.057714 
L 219.221965 198.710783 
L 219.475855 197.301747 
L 219.729745 199.005221 
L 219.983635 198.720698 
L 220.237526 198.933292 
L 220.491416 198.70961 
L 220.745306 199.101409 
L 220.999196 199.020879 
L 221.253087 198.370055 
L 221.506977 199.09911 
L 222.014757 198.192215 
L 222.522538 198.838699 
L 222.776428 197.820784 
L 223.030318 199.057627 
L 223.284209 196.639501 
L 223.538099 198.185572 
L 223.791989 198.008024 
L 224.045879 198.445631 
L 224.55366 198.776386 
L 224.80755 198.640103 
L 225.06144 198.80944 
L 225.315331 198.575902 
L 225.569221 197.357642 
L 225.823111 197.955141 
L 226.077001 197.557798 
L 226.330892 198.192556 
L 226.584782 197.812306 
L 226.838672 196.780102 
L 227.092562 198.367447 
L 227.346453 198.155053 
L 227.600343 198.265901 
L 227.854233 198.860337 
L 228.108123 198.53503 
L 228.362014 197.950618 
L 228.615904 198.13626 
L 228.869794 198.67861 
L 229.123684 196.988074 
L 229.377575 198.559703 
L 229.631465 197.479208 
L 229.885355 198.772057 
L 230.139245 198.762285 
L 230.393136 198.592345 
L 230.647026 197.636204 
L 230.900916 198.697007 
L 231.154807 196.686895 
L 231.408697 198.566556 
L 231.662587 197.811616 
L 232.678148 198.995695 
L 232.932038 198.47941 
L 233.185929 198.241085 
L 233.439819 197.78979 
L 233.693709 197.667414 
L 234.20149 198.618446 
L 234.70927 197.206017 
L 234.96316 198.144618 
L 235.470941 197.769631 
L 235.724831 196.883268 
L 235.978721 198.002064 
L 236.232612 198.075995 
L 236.486502 199.145863 
L 236.740392 198.951091 
L 236.994282 197.882154 
L 237.248173 198.726604 
L 237.502063 198.774416 
L 237.755953 197.254554 
L 238.009843 198.61305 
L 238.263734 198.835652 
L 238.771514 198.259749 
L 239.025404 198.480638 
L 239.279295 198.479847 
L 239.533185 198.675295 
L 239.787075 198.20105 
L 240.040965 197.253043 
L 240.294856 198.404541 
L 240.548746 198.291387 
L 240.802636 198.700196 
L 241.056526 197.877453 
L 241.310417 198.525768 
L 241.564307 198.325702 
L 241.818197 199.062177 
L 242.325978 198.400048 
L 242.579868 198.975105 
L 242.833758 199.189253 
L 243.087648 199.063361 
L 243.341539 198.384627 
L 243.595429 197.228585 
L 243.849319 198.68295 
L 244.3571 198.551853 
L 244.61099 199.054822 
L 244.86488 198.911466 
L 245.11877 198.083942 
L 245.626551 199.007283 
L 245.880441 197.888992 
L 246.134331 198.375974 
L 246.388222 198.56948 
L 246.642112 198.378219 
L 246.896002 198.695176 
L 247.149893 198.059298 
L 247.403783 198.182482 
L 247.657673 199.07454 
L 247.911563 197.494421 
L 248.165454 198.697255 
L 248.419344 197.556688 
L 248.673234 197.725319 
L 248.927124 198.553904 
L 249.181015 198.54317 
L 249.434905 196.297463 
L 250.450466 198.843268 
L 250.704356 198.670099 
L 250.958246 198.700886 
L 251.212137 199.546984 
L 251.466027 198.60249 
L 251.719917 196.953482 
L 251.973807 198.2808 
L 252.227698 198.539547 
L 252.481588 198.635225 
L 252.735478 198.924953 
L 252.989368 198.424959 
L 253.243259 198.530155 
L 253.497149 198.856834 
L 254.004929 198.039952 
L 254.25882 199.442702 
L 254.51271 198.571371 
L 254.7666 198.272006 
L 255.528271 198.956752 
L 255.782161 199.063928 
L 256.036051 198.161267 
L 256.289942 198.225462 
L 256.543832 198.603623 
L 257.051612 197.987832 
L 257.305503 198.940671 
L 257.559393 197.770291 
L 257.813283 197.586141 
L 258.067173 198.314392 
L 258.321064 198.30563 
L 258.574954 198.170321 
L 258.828844 197.573222 
L 259.082734 198.23235 
L 259.336625 198.525545 
L 259.590515 198.352762 
L 259.844405 197.585871 
L 260.098295 198.486967 
L 260.352186 198.852748 
L 260.606076 198.214373 
L 260.859966 199.000109 
L 261.113856 198.5848 
L 261.367747 198.484132 
L 261.621637 198.086394 
L 261.875527 198.914256 
L 262.129417 198.425715 
L 262.383308 198.514922 
L 262.637198 198.413409 
L 262.891088 198.821448 
L 263.144979 198.675849 
L 263.398869 197.458247 
L 263.652759 198.476069 
L 264.41443 198.701513 
L 264.66832 197.988427 
L 264.92221 199.181798 
L 265.176101 198.27643 
L 265.429991 198.771697 
L 265.683881 198.36171 
L 265.937771 198.405899 
L 266.191662 198.687473 
L 266.445552 195.559338 
L 266.699442 198.418412 
L 267.207223 198.09119 
L 267.461113 198.283725 
L 267.715003 198.732022 
L 267.968893 198.697525 
L 268.222784 198.975031 
L 268.476674 198.267573 
L 268.984454 198.503932 
L 269.238345 198.042325 
L 269.492235 198.478311 
L 269.746125 198.443099 
L 270.000015 197.17691 
L 270.507796 198.672971 
L 270.761686 197.967106 
L 271.015576 198.372853 
L 271.269467 195.37099 
L 271.523357 198.524519 
L 271.777247 197.602271 
L 272.031137 199.268531 
L 272.285028 198.346431 
L 272.538918 198.630621 
L 272.792808 197.726925 
L 273.046698 199.187439 
L 273.300589 197.847081 
L 273.554479 198.626098 
L 273.808369 198.261222 
L 274.062259 198.830316 
L 274.31615 198.611217 
L 274.82393 198.794848 
L 275.07782 198.131044 
L 275.331711 198.255142 
L 275.585601 196.841122 
L 275.839491 198.241952 
L 276.347272 198.005228 
L 276.601162 198.50706 
L 276.855052 198.471115 
L 277.108942 197.85341 
L 277.362833 198.29279 
L 277.616723 197.693574 
L 277.870613 198.456232 
L 278.124503 198.535501 
L 278.378394 198.255248 
L 278.632284 198.446747 
L 278.886174 198.409303 
L 279.140064 198.035977 
L 279.393955 198.958822 
L 279.647845 198.489272 
L 279.901735 198.749161 
L 280.155626 198.775677 
L 280.409516 198.030423 
L 280.663406 198.240201 
L 280.917296 198.922413 
L 281.171187 198.257785 
L 281.425077 196.990914 
L 281.678967 197.879 
L 281.932857 197.512537 
L 282.186748 198.298881 
L 282.440638 198.474056 
L 282.694528 198.017946 
L 282.948418 198.064407 
L 283.202309 197.767593 
L 283.456199 199.020074 
L 283.710089 198.883889 
L 283.963979 198.463089 
L 284.21787 197.493968 
L 284.47176 198.228381 
L 284.72565 197.403151 
L 284.97954 198.474006 
L 285.233431 198.148576 
L 285.487321 198.921845 
L 285.741211 198.611408 
L 285.995101 198.080374 
L 286.502882 199.137988 
L 286.756772 199.054596 
L 287.010662 197.965769 
L 287.264553 198.264299 
L 287.772333 197.628617 
L 288.026223 197.958368 
L 288.534004 198.165579 
L 288.787894 197.139721 
L 289.041784 198.25165 
L 289.295675 198.103018 
L 289.549565 199.300846 
L 289.803455 196.717737 
L 290.057345 198.865288 
L 290.311236 198.487059 
L 290.565126 198.605524 
L 290.819016 198.418674 
L 291.072906 196.72561 
L 291.326797 198.582956 
L 291.580687 198.738083 
L 292.088467 198.0227 
L 292.342358 198.2992 
L 292.596248 196.98784 
L 292.850138 198.878917 
L 293.104028 198.440126 
L 293.357919 198.785363 
L 293.865699 198.433595 
L 294.37348 198.930968 
L 294.62737 198.063995 
L 294.88126 194.777209 
L 295.13515 198.919917 
L 295.389041 198.651025 
L 295.642931 198.916903 
L 295.896821 194.867966 
L 296.150712 196.045624 
L 296.404602 198.654801 
L 296.658492 198.209496 
L 296.912382 198.386185 
L 297.166273 197.461059 
L 297.420163 198.376217 
L 297.674053 197.566154 
L 297.927943 198.863141 
L 298.181834 198.113498 
L 298.435724 198.626952 
L 298.943504 196.427006 
L 299.197395 199.146226 
L 299.451285 197.743467 
L 299.705175 198.326637 
L 299.959065 198.23298 
L 300.212956 196.32866 
L 300.466846 198.917936 
L 300.720736 197.640623 
L 300.974626 198.197321 
L 301.228517 197.555695 
L 301.482407 198.408733 
L 301.736297 198.572991 
L 301.990187 197.982161 
L 302.244078 198.316263 
L 302.497968 197.725755 
L 303.005748 198.361178 
L 303.259639 198.472506 
L 303.513529 199.519874 
L 303.767419 198.805752 
L 304.2752 198.432908 
L 304.52909 197.957976 
L 305.03687 198.654492 
L 305.290761 198.236224 
L 305.544651 198.687077 
L 305.798541 198.762782 
L 306.052431 197.68218 
L 306.306322 198.504755 
L 306.560212 198.468761 
L 306.814102 197.729457 
L 307.067992 198.935384 
L 307.321883 198.933368 
L 307.575773 198.042952 
L 307.829663 199.015355 
L 308.083553 198.634104 
L 308.337444 198.538895 
L 308.591334 198.709661 
L 308.845224 198.733631 
L 309.099114 197.960172 
L 309.353005 198.886819 
L 309.606895 197.954514 
L 309.860785 198.905516 
L 310.114675 198.309896 
L 310.368566 198.599389 
L 310.622456 198.612316 
L 310.876346 198.226717 
L 311.130236 196.953214 
L 311.384127 198.416879 
L 311.638017 198.09682 
L 311.891907 197.151844 
L 312.145798 198.644697 
L 312.653578 198.072703 
L 312.907468 198.750749 
L 313.161359 197.98948 
L 313.415249 197.641987 
L 313.669139 198.041231 
L 313.923029 199.343333 
L 314.17692 199.258171 
L 314.6847 198.258685 
L 314.93859 198.342306 
L 315.192481 198.567931 
L 315.446371 198.43096 
L 315.700261 197.923088 
L 315.954151 197.882301 
L 316.208042 198.643875 
L 316.461932 198.344928 
L 316.461932 198.344928 
" clip-path="url(#p4f71161ac5)" style="fill: none; stroke: #ff0000; stroke-width: 0.6; stroke-linecap: square"/>
   </g>
   <g id="patch_3">
    <path d="M 50.14375 239.76 
L 50.14375 37.296 
" style="fill: none; stroke: #000000; stroke-width: 0.8; stroke-linejoin: miter; stroke-linecap: square"/>
   </g>
   <g id="patch_4">
    <path d="M 329.14375 239.76 
L 329.14375 37.296 
" style="fill: none; stroke: #000000; stroke-width: 0.8; stroke-linejoin: miter; stroke-linecap: square"/>
   </g>
   <g id="patch_5">
    <path d="M 50.14375 239.76 
L 329.14375 239.76 
" style="fill: none; stroke: #000000; stroke-width: 0.8; stroke-linejoin: miter; stroke-linecap: square"/>
   </g>
   <g id="patch_6">
    <path d="M 50.14375 37.296 
L 329.14375 37.296 
" style="fill: none; stroke: #000000; stroke-width: 0.8; stroke-linejoin: miter; stroke-linecap: square"/>
   </g>
   <g id="text_18">
    <!-- Baseline Model -->
    <g transform="translate(155.622344 31.296) scale(0.09 -0.09)">
     <defs>
      <path id="DejaVuSans-42" d="M 1259 2228 
L 1259 519 
L 2272 519 
Q 2781 519 3026 730 
Q 3272 941 3272 1375 
Q 3272 1813 3026 2020 
Q 2781 2228 2272 2228 
L 1259 2228 
z
M 1259 4147 
L 1259 2741 
L 2194 2741 
Q 2656 2741 2882 2914 
Q 3109 3088 3109 3444 
Q 3109 3797 2882 3972 
Q 2656 4147 2194 4147 
L 1259 4147 
z
M 628 4666 
L 2241 4666 
Q 2963 4666 3353 4366 
Q 3744 4066 3744 3513 
Q 3744 3084 3544 2831 
Q 3344 2578 2956 2516 
Q 3422 2416 3680 2098 
Q 3938 1781 3938 1306 
Q 3938 681 3513 340 
Q 3088 0 2303 0 
L 628 0 
L 628 4666 
z
" transform="scale(0.015625)"/>
      <path id="DejaVuSans-61" d="M 2194 1759 
Q 1497 1759 1228 1600 
Q 959 1441 959 1056 
Q 959 750 1161 570 
Q 1363 391 1709 391 
Q 2188 391 2477 730 
Q 2766 1069 2766 1631 
L 2766 1759 
L 2194 1759 
z
M 3341 1997 
L 3341 0 
L 2766 0 
L 2766 531 
Q 2569 213 2275 61 
Q 1981 -91 1556 -91 
Q 1019 -91 701 211 
Q 384 513 384 1019 
Q 384 1609 779 1909 
Q 1175 2209 1959 2209 
L 2766 2209 
L 2766 2266 
Q 2766 2663 2505 2880 
Q 2244 3097 1772 3097 
Q 1472 3097 1187 3025 
Q 903 2953 641 2809 
L 641 3341 
Q 956 3463 1253 3523 
Q 1550 3584 1831 3584 
Q 2591 3584 2966 3190 
Q 3341 2797 3341 1997 
z
" transform="scale(0.015625)"/>
      <path id="DejaVuSans-65" d="M 3597 1894 
L 3597 1613 
L 953 1613 
Q 991 1019 1311 708 
Q 1631 397 2203 397 
Q 2534 397 2845 478 
Q 3156 559 3463 722 
L 3463 178 
Q 3153 47 2828 -22 
Q 2503 -91 2169 -91 
Q 1331 -91 842 396 
Q 353 884 353 1716 
Q 353 2575 817 3079 
Q 1281 3584 2069 3584 
Q 2775 3584 3186 3129 
Q 3597 2675 3597 1894 
z
M 3022 2063 
Q 3016 2534 2758 2815 
Q 2500 3097 2075 3097 
Q 1594 3097 1305 2825 
Q 1016 2553 972 2059 
L 3022 2063 
z
" transform="scale(0.015625)"/>
      <path id="DejaVuSans-6c" d="M 603 4863 
L 1178 4863 
L 1178 0 
L 603 0 
L 603 4863 
z
" transform="scale(0.015625)"/>
      <path id="DejaVuSans-69" d="M 603 3500 
L 1178 3500 
L 1178 0 
L 603 0 
L 603 3500 
z
M 603 4863 
L 1178 4863 
L 1178 4134 
L 603 4134 
L 603 4863 
z
" transform="scale(0.015625)"/>
      <path id="DejaVuSans-6e" d="M 3513 2113 
L 3513 0 
L 2938 0 
L 2938 2094 
Q 2938 2591 2744 2837 
Q 2550 3084 2163 3084 
Q 1697 3084 1428 2787 
Q 1159 2491 1159 1978 
L 1159 0 
L 581 0 
L 581 3500 
L 1159 3500 
L 1159 2956 
Q 1366 3272 1645 3428 
Q 1925 3584 2291 3584 
Q 2894 3584 3203 3211 
Q 3513 2838 3513 2113 
z
" transform="scale(0.015625)"/>
      <path id="DejaVuSans-20" transform="scale(0.015625)"/>
      <path id="DejaVuSans-4d" d="M 628 4666 
L 1569 4666 
L 2759 1491 
L 3956 4666 
L 4897 4666 
L 4897 0 
L 4281 0 
L 4281 4097 
L 3078 897 
L 2444 897 
L 1241 4097 
L 1241 0 
L 628 0 
L 628 4666 
z
" transform="scale(0.015625)"/>
      <path id="DejaVuSans-64" d="M 2906 2969 
L 2906 4863 
L 3481 4863 
L 3481 0 
L 2906 0 
L 2906 525 
Q 2725 213 2448 61 
Q 2172 -91 1784 -91 
Q 1150 -91 751 415 
Q 353 922 353 1747 
Q 353 2572 751 3078 
Q 1150 3584 1784 3584 
Q 2172 3584 2448 3432 
Q 2725 3281 2906 2969 
z
M 947 1747 
Q 947 1113 1208 752 
Q 1469 391 1925 391 
Q 2381 391 2643 752 
Q 2906 1113 2906 1747 
Q 2906 2381 2643 2742 
Q 2381 3103 1925 3103 
Q 1469 3103 1208 2742 
Q 947 2381 947 1747 
z
" transform="scale(0.015625)"/>
     </defs>
     <use xlink:href="#DejaVuSans-42"/>
     <use xlink:href="#DejaVuSans-61" x="68.603516"/>
     <use xlink:href="#DejaVuSans-73" x="129.882812"/>
     <use xlink:href="#DejaVuSans-65" x="181.982422"/>
     <use xlink:href="#DejaVuSans-6c" x="243.505859"/>
     <use xlink:href="#DejaVuSans-69" x="271.289062"/>
     <use xlink:href="#DejaVuSans-6e" x="299.072266"/>
     <use xlink:href="#DejaVuSans-65" x="362.451172"/>
     <use xlink:href="#DejaVuSans-20" x="423.974609"/>
     <use xlink:href="#DejaVuSans-4d" x="455.761719"/>
     <use xlink:href="#DejaVuSans-6f" x="542.041016"/>
     <use xlink:href="#DejaVuSans-64" x="603.222656"/>
     <use xlink:href="#DejaVuSans-65" x="666.699219"/>
     <use xlink:href="#DejaVuSans-6c" x="728.222656"/>
    </g>
   </g>
   <g id="legend_1">
    <g id="patch_7">
     <path d="M 215.65 74.65225 
L 322.14375 74.65225 
Q 324.14375 74.65225 324.14375 72.65225 
L 324.14375 44.296 
Q 324.14375 42.296 322.14375 42.296 
L 215.65 42.296 
Q 213.65 42.296 213.65 44.296 
L 213.65 72.65225 
Q 213.65 74.65225 215.65 74.65225 
z
" style="fill: #ffffff; opacity: 0.8; stroke: #cccccc; stroke-linejoin: miter"/>
    </g>
    <g id="line2d_33">
     <path d="M 217.65 50.394438 
L 227.65 50.394438 
L 237.65 50.394438 
" style="fill: none; stroke: #0000ff; stroke-width: 0.6; stroke-linecap: square"/>
    </g>
    <g id="text_19">
     <!-- Training Loss -->
     <g transform="translate(245.65 53.894438) scale(0.1 -0.1)">
      <defs>
       <path id="DejaVuSans-54" d="M -19 4666 
L 3928 4666 
L 3928 4134 
L 2272 4134 
L 2272 0 
L 1638 0 
L 1638 4134 
L -19 4134 
L -19 4666 
z
" transform="scale(0.015625)"/>
       <path id="DejaVuSans-72" d="M 2631 2963 
Q 2534 3019 2420 3045 
Q 2306 3072 2169 3072 
Q 1681 3072 1420 2755 
Q 1159 2438 1159 1844 
L 1159 0 
L 581 0 
L 581 3500 
L 1159 3500 
L 1159 2956 
Q 1341 3275 1631 3429 
Q 1922 3584 2338 3584 
Q 2397 3584 2469 3576 
Q 2541 3569 2628 3553 
L 2631 2963 
z
" transform="scale(0.015625)"/>
       <path id="DejaVuSans-67" d="M 2906 1791 
Q 2906 2416 2648 2759 
Q 2391 3103 1925 3103 
Q 1463 3103 1205 2759 
Q 947 2416 947 1791 
Q 947 1169 1205 825 
Q 1463 481 1925 481 
Q 2391 481 2648 825 
Q 2906 1169 2906 1791 
z
M 3481 434 
Q 3481 -459 3084 -895 
Q 2688 -1331 1869 -1331 
Q 1566 -1331 1297 -1286 
Q 1028 -1241 775 -1147 
L 775 -588 
Q 1028 -725 1275 -790 
Q 1522 -856 1778 -856 
Q 2344 -856 2625 -561 
Q 2906 -266 2906 331 
L 2906 616 
Q 2728 306 2450 153 
Q 2172 0 1784 0 
Q 1141 0 747 490 
Q 353 981 353 1791 
Q 353 2603 747 3093 
Q 1141 3584 1784 3584 
Q 2172 3584 2450 3431 
Q 2728 3278 2906 2969 
L 2906 3500 
L 3481 3500 
L 3481 434 
z
" transform="scale(0.015625)"/>
      </defs>
      <use xlink:href="#DejaVuSans-54"/>
      <use xlink:href="#DejaVuSans-72" x="46.333984"/>
      <use xlink:href="#DejaVuSans-61" x="87.447266"/>
      <use xlink:href="#DejaVuSans-69" x="148.726562"/>
      <use xlink:href="#DejaVuSans-6e" x="176.509766"/>
      <use xlink:href="#DejaVuSans-69" x="239.888672"/>
      <use xlink:href="#DejaVuSans-6e" x="267.671875"/>
      <use xlink:href="#DejaVuSans-67" x="331.050781"/>
      <use xlink:href="#DejaVuSans-20" x="394.527344"/>
      <use xlink:href="#DejaVuSans-4c" x="426.314453"/>
      <use xlink:href="#DejaVuSans-6f" x="480.277344"/>
      <use xlink:href="#DejaVuSans-73" x="541.458984"/>
      <use xlink:href="#DejaVuSans-73" x="593.558594"/>
     </g>
    </g>
    <g id="line2d_34">
     <path d="M 217.65 65.072563 
L 227.65 65.072563 
L 237.65 65.072563 
" style="fill: none; stroke: #ff0000; stroke-width: 0.6; stroke-linecap: square"/>
    </g>
    <g id="text_20">
     <!-- Validation Loss -->
     <g transform="translate(245.65 68.572563) scale(0.1 -0.1)">
      <defs>
       <path id="DejaVuSans-56" d="M 1831 0 
L 50 4666 
L 709 4666 
L 2188 738 
L 3669 4666 
L 4325 4666 
L 2547 0 
L 1831 0 
z
" transform="scale(0.015625)"/>
       <path id="DejaVuSans-74" d="M 1172 4494 
L 1172 3500 
L 2356 3500 
L 2356 3053 
L 1172 3053 
L 1172 1153 
Q 1172 725 1289 603 
Q 1406 481 1766 481 
L 2356 481 
L 2356 0 
L 1766 0 
Q 1100 0 847 248 
Q 594 497 594 1153 
L 594 3053 
L 172 3053 
L 172 3500 
L 594 3500 
L 594 4494 
L 1172 4494 
z
" transform="scale(0.015625)"/>
      </defs>
      <use xlink:href="#DejaVuSans-56"/>
      <use xlink:href="#DejaVuSans-61" x="60.658203"/>
      <use xlink:href="#DejaVuSans-6c" x="121.9375"/>
      <use xlink:href="#DejaVuSans-69" x="149.720703"/>
      <use xlink:href="#DejaVuSans-64" x="177.503906"/>
      <use xlink:href="#DejaVuSans-61" x="240.980469"/>
      <use xlink:href="#DejaVuSans-74" x="302.259766"/>
      <use xlink:href="#DejaVuSans-69" x="341.46875"/>
      <use xlink:href="#DejaVuSans-6f" x="369.251953"/>
      <use xlink:href="#DejaVuSans-6e" x="430.433594"/>
      <use xlink:href="#DejaVuSans-20" x="493.8125"/>
      <use xlink:href="#DejaVuSans-4c" x="525.599609"/>
      <use xlink:href="#DejaVuSans-6f" x="579.5625"/>
      <use xlink:href="#DejaVuSans-73" x="640.744141"/>
      <use xlink:href="#DejaVuSans-73" x="692.84375"/>
     </g>
    </g>
   </g>
  </g>
  <g id="text_21">
   <!-- Training VS. Validation Loss - Dataset Size = 100.0% -->
   <g transform="translate(40.843516 15.558281) scale(0.11 -0.11)">
    <defs>
     <path id="DejaVuSans-53" d="M 3425 4513 
L 3425 3897 
Q 3066 4069 2747 4153 
Q 2428 4238 2131 4238 
Q 1616 4238 1336 4038 
Q 1056 3838 1056 3469 
Q 1056 3159 1242 3001 
Q 1428 2844 1947 2747 
L 2328 2669 
Q 3034 2534 3370 2195 
Q 3706 1856 3706 1288 
Q 3706 609 3251 259 
Q 2797 -91 1919 -91 
Q 1588 -91 1214 -16 
Q 841 59 441 206 
L 441 856 
Q 825 641 1194 531 
Q 1563 422 1919 422 
Q 2459 422 2753 634 
Q 3047 847 3047 1241 
Q 3047 1584 2836 1778 
Q 2625 1972 2144 2069 
L 1759 2144 
Q 1053 2284 737 2584 
Q 422 2884 422 3419 
Q 422 4038 858 4394 
Q 1294 4750 2059 4750 
Q 2388 4750 2728 4690 
Q 3069 4631 3425 4513 
z
" transform="scale(0.015625)"/>
     <path id="DejaVuSans-2d" d="M 313 2009 
L 1997 2009 
L 1997 1497 
L 313 1497 
L 313 2009 
z
" transform="scale(0.015625)"/>
     <path id="DejaVuSans-44" d="M 1259 4147 
L 1259 519 
L 2022 519 
Q 2988 519 3436 956 
Q 3884 1394 3884 2338 
Q 3884 3275 3436 3711 
Q 2988 4147 2022 4147 
L 1259 4147 
z
M 628 4666 
L 1925 4666 
Q 3281 4666 3915 4102 
Q 4550 3538 4550 2338 
Q 4550 1131 3912 565 
Q 3275 0 1925 0 
L 628 0 
L 628 4666 
z
" transform="scale(0.015625)"/>
     <path id="DejaVuSans-7a" d="M 353 3500 
L 3084 3500 
L 3084 2975 
L 922 459 
L 3084 459 
L 3084 0 
L 275 0 
L 275 525 
L 2438 3041 
L 353 3041 
L 353 3500 
z
" transform="scale(0.015625)"/>
     <path id="DejaVuSans-3d" d="M 678 2906 
L 4684 2906 
L 4684 2381 
L 678 2381 
L 678 2906 
z
M 678 1631 
L 4684 1631 
L 4684 1100 
L 678 1100 
L 678 1631 
z
" transform="scale(0.015625)"/>
     <path id="DejaVuSans-25" d="M 4653 2053 
Q 4381 2053 4226 1822 
Q 4072 1591 4072 1178 
Q 4072 772 4226 539 
Q 4381 306 4653 306 
Q 4919 306 5073 539 
Q 5228 772 5228 1178 
Q 5228 1588 5073 1820 
Q 4919 2053 4653 2053 
z
M 4653 2450 
Q 5147 2450 5437 2106 
Q 5728 1763 5728 1178 
Q 5728 594 5436 251 
Q 5144 -91 4653 -91 
Q 4153 -91 3862 251 
Q 3572 594 3572 1178 
Q 3572 1766 3864 2108 
Q 4156 2450 4653 2450 
z
M 1428 4353 
Q 1159 4353 1004 4120 
Q 850 3888 850 3481 
Q 850 3069 1003 2837 
Q 1156 2606 1428 2606 
Q 1700 2606 1854 2837 
Q 2009 3069 2009 3481 
Q 2009 3884 1853 4118 
Q 1697 4353 1428 4353 
z
M 4250 4750 
L 4750 4750 
L 1831 -91 
L 1331 -91 
L 4250 4750 
z
M 1428 4750 
Q 1922 4750 2215 4408 
Q 2509 4066 2509 3481 
Q 2509 2891 2217 2550 
Q 1925 2209 1428 2209 
Q 931 2209 642 2551 
Q 353 2894 353 3481 
Q 353 4063 643 4406 
Q 934 4750 1428 4750 
z
" transform="scale(0.015625)"/>
    </defs>
    <use xlink:href="#DejaVuSans-54"/>
    <use xlink:href="#DejaVuSans-72" x="46.333984"/>
    <use xlink:href="#DejaVuSans-61" x="87.447266"/>
    <use xlink:href="#DejaVuSans-69" x="148.726562"/>
    <use xlink:href="#DejaVuSans-6e" x="176.509766"/>
    <use xlink:href="#DejaVuSans-69" x="239.888672"/>
    <use xlink:href="#DejaVuSans-6e" x="267.671875"/>
    <use xlink:href="#DejaVuSans-67" x="331.050781"/>
    <use xlink:href="#DejaVuSans-20" x="394.527344"/>
    <use xlink:href="#DejaVuSans-56" x="426.314453"/>
    <use xlink:href="#DejaVuSans-53" x="494.722656"/>
    <use xlink:href="#DejaVuSans-2e" x="558.199219"/>
    <use xlink:href="#DejaVuSans-20" x="589.986328"/>
    <use xlink:href="#DejaVuSans-56" x="621.773438"/>
    <use xlink:href="#DejaVuSans-61" x="682.431641"/>
    <use xlink:href="#DejaVuSans-6c" x="743.710938"/>
    <use xlink:href="#DejaVuSans-69" x="771.494141"/>
    <use xlink:href="#DejaVuSans-64" x="799.277344"/>
    <use xlink:href="#DejaVuSans-61" x="862.753906"/>
    <use xlink:href="#DejaVuSans-74" x="924.033203"/>
    <use xlink:href="#DejaVuSans-69" x="963.242188"/>
    <use xlink:href="#DejaVuSans-6f" x="991.025391"/>
    <use xlink:href="#DejaVuSans-6e" x="1052.207031"/>
    <use xlink:href="#DejaVuSans-20" x="1115.585938"/>
    <use xlink:href="#DejaVuSans-4c" x="1147.373047"/>
    <use xlink:href="#DejaVuSans-6f" x="1201.335938"/>
    <use xlink:href="#DejaVuSans-73" x="1262.517578"/>
    <use xlink:href="#DejaVuSans-73" x="1314.617188"/>
    <use xlink:href="#DejaVuSans-20" x="1366.716797"/>
    <use xlink:href="#DejaVuSans-2d" x="1398.503906"/>
    <use xlink:href="#DejaVuSans-20" x="1434.587891"/>
    <use xlink:href="#DejaVuSans-44" x="1466.375"/>
    <use xlink:href="#DejaVuSans-61" x="1543.376953"/>
    <use xlink:href="#DejaVuSans-74" x="1604.65625"/>
    <use xlink:href="#DejaVuSans-61" x="1643.865234"/>
    <use xlink:href="#DejaVuSans-73" x="1705.144531"/>
    <use xlink:href="#DejaVuSans-65" x="1757.244141"/>
    <use xlink:href="#DejaVuSans-74" x="1818.767578"/>
    <use xlink:href="#DejaVuSans-20" x="1857.976562"/>
    <use xlink:href="#DejaVuSans-53" x="1889.763672"/>
    <use xlink:href="#DejaVuSans-69" x="1953.240234"/>
    <use xlink:href="#DejaVuSans-7a" x="1981.023438"/>
    <use xlink:href="#DejaVuSans-65" x="2033.513672"/>
    <use xlink:href="#DejaVuSans-20" x="2095.037109"/>
    <use xlink:href="#DejaVuSans-3d" x="2126.824219"/>
    <use xlink:href="#DejaVuSans-20" x="2210.613281"/>
    <use xlink:href="#DejaVuSans-31" x="2242.400391"/>
    <use xlink:href="#DejaVuSans-30" x="2306.023438"/>
    <use xlink:href="#DejaVuSans-30" x="2369.646484"/>
    <use xlink:href="#DejaVuSans-2e" x="2433.269531"/>
    <use xlink:href="#DejaVuSans-30" x="2465.056641"/>
    <use xlink:href="#DejaVuSans-25" x="2528.679688"/>
   </g>
  </g>
 </g>
 <defs>
  <clipPath id="p4f71161ac5">
   <rect x="50.14375" y="37.296" width="279" height="202.464"/>
  </clipPath>
 </defs>
</svg>
