<?xml version="1.0" encoding="utf-8" standalone="no"?>
<!DOCTYPE svg PUBLIC "-//W3C//DTD SVG 1.1//EN"
  "http://www.w3.org/Graphics/SVG/1.1/DTD/svg11.dtd">
<svg xmlns:xlink="http://www.w3.org/1999/xlink" width="343.006484pt" height="277.31625pt" viewBox="0 0 343.006484 277.31625" xmlns="http://www.w3.org/2000/svg" version="1.1">
 <metadata>
  <rdf:RDF xmlns:dc="http://purl.org/dc/elements/1.1/" xmlns:cc="http://creativecommons.org/ns#" xmlns:rdf="http://www.w3.org/1999/02/22-rdf-syntax-ns#">
   <cc:Work>
    <dc:type rdf:resource="http://purl.org/dc/dcmitype/StillImage"/>
    <dc:date>2026-06-15T17:36:48.644783</dc:date>
    <dc:format>image/svg+xml</dc:format>
    <dc:creator>
     <cc:Agent>
      <dc:title>Matplotlib v3.8.4, https://matplotlib.org/</dc:title>
     </cc:Agent>
    </dc:creator>
   </cc:Work>
  </rdf:RDF>
 </metadata>
 <defs>
  <style type="text/css">*{stroke-linejoin: round; stroke-linecap: butt}</style>
 </defs>
 <g id="figure_1">
  <g id="patch_1">
   <path d="M -0 277.31625 
L 343.006484 277.31625 
L 343.006484 0 
L -0 0 
z
" style="fill: #ffffff"/>
  </g>
  <g id="axes_1">
   <g id="patch_2">
    <path d="M 56.50625 239.76 
L 335.50625 239.76 
L 335.50625 37.296 
L 56.50625 37.296 
z
" style="fill: #ffffff"/>
   </g>
   <g id="matplotlib.axis_1">
    <g id="xtick_1">
     <g id="line2d_1">
      <path d="M 69.061187 239.76 
L 69.061187 37.296 
" clip-path="url(#p77fc290a2f)" style="fill: none; stroke-dasharray: 2.96,1.28; stroke-dashoffset: 0; stroke: #b0b0b0; stroke-opacity: 0.4; stroke-width: 0.8"/>
     </g>
     <g id="line2d_2">
      <defs>
       <path id="m386773817c" d="M 0 0 
L 0 3.5 
" style="stroke: #000000; stroke-width: 0.8"/>
      </defs>
      <g>
       <use xlink:href="#m386773817c" x="69.061187" y="239.76" style="stroke: #000000; stroke-width: 0.8"/>
      </g>
     </g>
     <g id="text_1">
      <!-- 0 -->
      <g transform="translate(65.879937 254.358437) scale(0.1 -0.1)">
       <defs>
        <path id="DejaVuSans-30" d="M 2034 4250 
Q 1547 4250 1301 3770 
Q 1056 3291 1056 2328 
Q 1056 1369 1301 889 
Q 1547 409 2034 409 
Q 2525 409 2770 889 
Q 3016 1369 3016 2328 
Q 3016 3291 2770 3770 
Q 2525 4250 2034 4250 
z
M 2034 4750 
Q 2819 4750 3233 4129 
Q 3647 3509 3647 2328 
Q 3647 1150 3233 529 
Q 2819 -91 2034 -91 
Q 1250 -91 836 529 
Q 422 1150 422 2328 
Q 422 3509 836 4129 
Q 1250 4750 2034 4750 
z
" transform="scale(0.015625)"/>
       </defs>
       <use xlink:href="#DejaVuSans-30"/>
      </g>
     </g>
    </g>
    <g id="xtick_2">
     <g id="line2d_3">
      <path d="M 100.781592 239.76 
L 100.781592 37.296 
" clip-path="url(#p77fc290a2f)" style="fill: none; stroke-dasharray: 2.96,1.28; stroke-dashoffset: 0; stroke: #b0b0b0; stroke-opacity: 0.4; stroke-width: 0.8"/>
     </g>
     <g id="line2d_4">
      <g>
       <use xlink:href="#m386773817c" x="100.781592" y="239.76" style="stroke: #000000; stroke-width: 0.8"/>
      </g>
     </g>
     <g id="text_2">
      <!-- 250 -->
      <g transform="translate(91.237842 254.358437) scale(0.1 -0.1)">
       <defs>
        <path id="DejaVuSans-32" d="M 1228 531 
L 3431 531 
L 3431 0 
L 469 0 
L 469 531 
Q 828 903 1448 1529 
Q 2069 2156 2228 2338 
Q 2531 2678 2651 2914 
Q 2772 3150 2772 3378 
Q 2772 3750 2511 3984 
Q 2250 4219 1831 4219 
Q 1534 4219 1204 4116 
Q 875 4013 500 3803 
L 500 4441 
Q 881 4594 1212 4672 
Q 1544 4750 1819 4750 
Q 2544 4750 2975 4387 
Q 3406 4025 3406 3419 
Q 3406 3131 3298 2873 
Q 3191 2616 2906 2266 
Q 2828 2175 2409 1742 
Q 1991 1309 1228 531 
z
" transform="scale(0.015625)"/>
        <path id="DejaVuSans-35" d="M 691 4666 
L 3169 4666 
L 3169 4134 
L 1269 4134 
L 1269 2991 
Q 1406 3038 1543 3061 
Q 1681 3084 1819 3084 
Q 2600 3084 3056 2656 
Q 3513 2228 3513 1497 
Q 3513 744 3044 326 
Q 2575 -91 1722 -91 
Q 1428 -91 1123 -41 
Q 819 9 494 109 
L 494 744 
Q 775 591 1075 516 
Q 1375 441 1709 441 
Q 2250 441 2565 725 
Q 2881 1009 2881 1497 
Q 2881 1984 2565 2268 
Q 2250 2553 1709 2553 
Q 1456 2553 1204 2497 
Q 953 2441 691 2322 
L 691 4666 
z
" transform="scale(0.015625)"/>
       </defs>
       <use xlink:href="#DejaVuSans-32"/>
       <use xlink:href="#DejaVuSans-35" x="63.623047"/>
       <use xlink:href="#DejaVuSans-30" x="127.246094"/>
      </g>
     </g>
    </g>
    <g id="xtick_3">
     <g id="line2d_5">
      <path d="M 132.501998 239.76 
L 132.501998 37.296 
" clip-path="url(#p77fc290a2f)" style="fill: none; stroke-dasharray: 2.96,1.28; stroke-dashoffset: 0; stroke: #b0b0b0; stroke-opacity: 0.4; stroke-width: 0.8"/>
     </g>
     <g id="line2d_6">
      <g>
       <use xlink:href="#m386773817c" x="132.501998" y="239.76" style="stroke: #000000; stroke-width: 0.8"/>
      </g>
     </g>
     <g id="text_3">
      <!-- 500 -->
      <g transform="translate(122.958248 254.358437) scale(0.1 -0.1)">
       <use xlink:href="#DejaVuSans-35"/>
       <use xlink:href="#DejaVuSans-30" x="63.623047"/>
       <use xlink:href="#DejaVuSans-30" x="127.246094"/>
      </g>
     </g>
    </g>
    <g id="xtick_4">
     <g id="line2d_7">
      <path d="M 164.222404 239.76 
L 164.222404 37.296 
" clip-path="url(#p77fc290a2f)" style="fill: none; stroke-dasharray: 2.96,1.28; stroke-dashoffset: 0; stroke: #b0b0b0; stroke-opacity: 0.4; stroke-width: 0.8"/>
     </g>
     <g id="line2d_8">
      <g>
       <use xlink:href="#m386773817c" x="164.222404" y="239.76" style="stroke: #000000; stroke-width: 0.8"/>
      </g>
     </g>
     <g id="text_4">
      <!-- 750 -->
      <g transform="translate(154.678654 254.358437) scale(0.1 -0.1)">
       <defs>
        <path id="DejaVuSans-37" d="M 525 4666 
L 3525 4666 
L 3525 4397 
L 1831 0 
L 1172 0 
L 2766 4134 
L 525 4134 
L 525 4666 
z
" transform="scale(0.015625)"/>
       </defs>
       <use xlink:href="#DejaVuSans-37"/>
       <use xlink:href="#DejaVuSans-35" x="63.623047"/>
       <use xlink:href="#DejaVuSans-30" x="127.246094"/>
      </g>
     </g>
    </g>
    <g id="xtick_5">
     <g id="line2d_9">
      <path d="M 195.942809 239.76 
L 195.942809 37.296 
" clip-path="url(#p77fc290a2f)" style="fill: none; stroke-dasharray: 2.96,1.28; stroke-dashoffset: 0; stroke: #b0b0b0; stroke-opacity: 0.4; stroke-width: 0.8"/>
     </g>
     <g id="line2d_10">
      <g>
       <use xlink:href="#m386773817c" x="195.942809" y="239.76" style="stroke: #000000; stroke-width: 0.8"/>
      </g>
     </g>
     <g id="text_5">
      <!-- 1000 -->
      <g transform="translate(183.217809 254.358437) scale(0.1 -0.1)">
       <defs>
        <path id="DejaVuSans-31" d="M 794 531 
L 1825 531 
L 1825 4091 
L 703 3866 
L 703 4441 
L 1819 4666 
L 2450 4666 
L 2450 531 
L 3481 531 
L 3481 0 
L 794 0 
L 794 531 
z
" transform="scale(0.015625)"/>
       </defs>
       <use xlink:href="#DejaVuSans-31"/>
       <use xlink:href="#DejaVuSans-30" x="63.623047"/>
       <use xlink:href="#DejaVuSans-30" x="127.246094"/>
       <use xlink:href="#DejaVuSans-30" x="190.869141"/>
      </g>
     </g>
    </g>
    <g id="xtick_6">
     <g id="line2d_11">
      <path d="M 227.663215 239.76 
L 227.663215 37.296 
" clip-path="url(#p77fc290a2f)" style="fill: none; stroke-dasharray: 2.96,1.28; stroke-dashoffset: 0; stroke: #b0b0b0; stroke-opacity: 0.4; stroke-width: 0.8"/>
     </g>
     <g id="line2d_12">
      <g>
       <use xlink:href="#m386773817c" x="227.663215" y="239.76" style="stroke: #000000; stroke-width: 0.8"/>
      </g>
     </g>
     <g id="text_6">
      <!-- 1250 -->
      <g transform="translate(214.938215 254.358437) scale(0.1 -0.1)">
       <use xlink:href="#DejaVuSans-31"/>
       <use xlink:href="#DejaVuSans-32" x="63.623047"/>
       <use xlink:href="#DejaVuSans-35" x="127.246094"/>
       <use xlink:href="#DejaVuSans-30" x="190.869141"/>
      </g>
     </g>
    </g>
    <g id="xtick_7">
     <g id="line2d_13">
      <path d="M 259.383621 239.76 
L 259.383621 37.296 
" clip-path="url(#p77fc290a2f)" style="fill: none; stroke-dasharray: 2.96,1.28; stroke-dashoffset: 0; stroke: #b0b0b0; stroke-opacity: 0.4; stroke-width: 0.8"/>
     </g>
     <g id="line2d_14">
      <g>
       <use xlink:href="#m386773817c" x="259.383621" y="239.76" style="stroke: #000000; stroke-width: 0.8"/>
      </g>
     </g>
     <g id="text_7">
      <!-- 1500 -->
      <g transform="translate(246.658621 254.358437) scale(0.1 -0.1)">
       <use xlink:href="#DejaVuSans-31"/>
       <use xlink:href="#DejaVuSans-35" x="63.623047"/>
       <use xlink:href="#DejaVuSans-30" x="127.246094"/>
       <use xlink:href="#DejaVuSans-30" x="190.869141"/>
      </g>
     </g>
    </g>
    <g id="xtick_8">
     <g id="line2d_15">
      <path d="M 291.104026 239.76 
L 291.104026 37.296 
" clip-path="url(#p77fc290a2f)" style="fill: none; stroke-dasharray: 2.96,1.28; stroke-dashoffset: 0; stroke: #b0b0b0; stroke-opacity: 0.4; stroke-width: 0.8"/>
     </g>
     <g id="line2d_16">
      <g>
       <use xlink:href="#m386773817c" x="291.104026" y="239.76" style="stroke: #000000; stroke-width: 0.8"/>
      </g>
     </g>
     <g id="text_8">
      <!-- 1750 -->
      <g transform="translate(278.379026 254.358437) scale(0.1 -0.1)">
       <use xlink:href="#DejaVuSans-31"/>
       <use xlink:href="#DejaVuSans-37" x="63.623047"/>
       <use xlink:href="#DejaVuSans-35" x="127.246094"/>
       <use xlink:href="#DejaVuSans-30" x="190.869141"/>
      </g>
     </g>
    </g>
    <g id="xtick_9">
     <g id="line2d_17">
      <path d="M 322.824432 239.76 
L 322.824432 37.296 
" clip-path="url(#p77fc290a2f)" style="fill: none; stroke-dasharray: 2.96,1.28; stroke-dashoffset: 0; stroke: #b0b0b0; stroke-opacity: 0.4; stroke-width: 0.8"/>
     </g>
     <g id="line2d_18">
      <g>
       <use xlink:href="#m386773817c" x="322.824432" y="239.76" style="stroke: #000000; stroke-width: 0.8"/>
      </g>
     </g>
     <g id="text_9">
      <!-- 2000 -->
      <g transform="translate(310.099432 254.358437) scale(0.1 -0.1)">
       <use xlink:href="#DejaVuSans-32"/>
       <use xlink:href="#DejaVuSans-30" x="63.623047"/>
       <use xlink:href="#DejaVuSans-30" x="127.246094"/>
       <use xlink:href="#DejaVuSans-30" x="190.869141"/>
      </g>
     </g>
    </g>
    <g id="text_10">
     <!-- Epochs -->
     <g transform="translate(178.090625 268.036562) scale(0.1 -0.1)">
      <defs>
       <path id="DejaVuSans-45" d="M 628 4666 
L 3578 4666 
L 3578 4134 
L 1259 4134 
L 1259 2753 
L 3481 2753 
L 3481 2222 
L 1259 2222 
L 1259 531 
L 3634 531 
L 3634 0 
L 628 0 
L 628 4666 
z
" transform="scale(0.015625)"/>
       <path id="DejaVuSans-70" d="M 1159 525 
L 1159 -1331 
L 581 -1331 
L 581 3500 
L 1159 3500 
L 1159 2969 
Q 1341 3281 1617 3432 
Q 1894 3584 2278 3584 
Q 2916 3584 3314 3078 
Q 3713 2572 3713 1747 
Q 3713 922 3314 415 
Q 2916 -91 2278 -91 
Q 1894 -91 1617 61 
Q 1341 213 1159 525 
z
M 3116 1747 
Q 3116 2381 2855 2742 
Q 2594 3103 2138 3103 
Q 1681 3103 1420 2742 
Q 1159 2381 1159 1747 
Q 1159 1113 1420 752 
Q 1681 391 2138 391 
Q 2594 391 2855 752 
Q 3116 1113 3116 1747 
z
" transform="scale(0.015625)"/>
       <path id="DejaVuSans-6f" d="M 1959 3097 
Q 1497 3097 1228 2736 
Q 959 2375 959 1747 
Q 959 1119 1226 758 
Q 1494 397 1959 397 
Q 2419 397 2687 759 
Q 2956 1122 2956 1747 
Q 2956 2369 2687 2733 
Q 2419 3097 1959 3097 
z
M 1959 3584 
Q 2709 3584 3137 3096 
Q 3566 2609 3566 1747 
Q 3566 888 3137 398 
Q 2709 -91 1959 -91 
Q 1206 -91 779 398 
Q 353 888 353 1747 
Q 353 2609 779 3096 
Q 1206 3584 1959 3584 
z
" transform="scale(0.015625)"/>
       <path id="DejaVuSans-63" d="M 3122 3366 
L 3122 2828 
Q 2878 2963 2633 3030 
Q 2388 3097 2138 3097 
Q 1578 3097 1268 2742 
Q 959 2388 959 1747 
Q 959 1106 1268 751 
Q 1578 397 2138 397 
Q 2388 397 2633 464 
Q 2878 531 3122 666 
L 3122 134 
Q 2881 22 2623 -34 
Q 2366 -91 2075 -91 
Q 1284 -91 818 406 
Q 353 903 353 1747 
Q 353 2603 823 3093 
Q 1294 3584 2113 3584 
Q 2378 3584 2631 3529 
Q 2884 3475 3122 3366 
z
" transform="scale(0.015625)"/>
       <path id="DejaVuSans-68" d="M 3513 2113 
L 3513 0 
L 2938 0 
L 2938 2094 
Q 2938 2591 2744 2837 
Q 2550 3084 2163 3084 
Q 1697 3084 1428 2787 
Q 1159 2491 1159 1978 
L 1159 0 
L 581 0 
L 581 4863 
L 1159 4863 
L 1159 2956 
Q 1366 3272 1645 3428 
Q 1925 3584 2291 3584 
Q 2894 3584 3203 3211 
Q 3513 2838 3513 2113 
z
" transform="scale(0.015625)"/>
       <path id="DejaVuSans-73" d="M 2834 3397 
L 2834 2853 
Q 2591 2978 2328 3040 
Q 2066 3103 1784 3103 
Q 1356 3103 1142 2972 
Q 928 2841 928 2578 
Q 928 2378 1081 2264 
Q 1234 2150 1697 2047 
L 1894 2003 
Q 2506 1872 2764 1633 
Q 3022 1394 3022 966 
Q 3022 478 2636 193 
Q 2250 -91 1575 -91 
Q 1294 -91 989 -36 
Q 684 19 347 128 
L 347 722 
Q 666 556 975 473 
Q 1284 391 1588 391 
Q 1994 391 2212 530 
Q 2431 669 2431 922 
Q 2431 1156 2273 1281 
Q 2116 1406 1581 1522 
L 1381 1569 
Q 847 1681 609 1914 
Q 372 2147 372 2553 
Q 372 3047 722 3315 
Q 1072 3584 1716 3584 
Q 2034 3584 2315 3537 
Q 2597 3491 2834 3397 
z
" transform="scale(0.015625)"/>
      </defs>
      <use xlink:href="#DejaVuSans-45"/>
      <use xlink:href="#DejaVuSans-70" x="63.183594"/>
      <use xlink:href="#DejaVuSans-6f" x="126.660156"/>
      <use xlink:href="#DejaVuSans-63" x="187.841797"/>
      <use xlink:href="#DejaVuSans-68" x="242.822266"/>
      <use xlink:href="#DejaVuSans-73" x="306.201172"/>
     </g>
    </g>
   </g>
   <g id="matplotlib.axis_2">
    <g id="ytick_1">
     <g id="line2d_19">
      <path d="M 56.50625 212.359063 
L 335.50625 212.359063 
" clip-path="url(#p77fc290a2f)" style="fill: none; stroke-dasharray: 2.96,1.28; stroke-dashoffset: 0; stroke: #b0b0b0; stroke-opacity: 0.4; stroke-width: 0.8"/>
     </g>
     <g id="line2d_20">
      <defs>
       <path id="mc1b7e0ffe8" d="M 0 0 
L -3.5 0 
" style="stroke: #000000; stroke-width: 0.8"/>
      </defs>
      <g>
       <use xlink:href="#mc1b7e0ffe8" x="56.50625" y="212.359063" style="stroke: #000000; stroke-width: 0.8"/>
      </g>
     </g>
     <g id="text_11">
      <!-- 0.695 -->
      <g transform="translate(20.878125 216.158282) scale(0.1 -0.1)">
       <defs>
        <path id="DejaVuSans-2e" d="M 684 794 
L 1344 794 
L 1344 0 
L 684 0 
L 684 794 
z
" transform="scale(0.015625)"/>
        <path id="DejaVuSans-36" d="M 2113 2584 
Q 1688 2584 1439 2293 
Q 1191 2003 1191 1497 
Q 1191 994 1439 701 
Q 1688 409 2113 409 
Q 2538 409 2786 701 
Q 3034 994 3034 1497 
Q 3034 2003 2786 2293 
Q 2538 2584 2113 2584 
z
M 3366 4563 
L 3366 3988 
Q 3128 4100 2886 4159 
Q 2644 4219 2406 4219 
Q 1781 4219 1451 3797 
Q 1122 3375 1075 2522 
Q 1259 2794 1537 2939 
Q 1816 3084 2150 3084 
Q 2853 3084 3261 2657 
Q 3669 2231 3669 1497 
Q 3669 778 3244 343 
Q 2819 -91 2113 -91 
Q 1303 -91 875 529 
Q 447 1150 447 2328 
Q 447 3434 972 4092 
Q 1497 4750 2381 4750 
Q 2619 4750 2861 4703 
Q 3103 4656 3366 4563 
z
" transform="scale(0.015625)"/>
        <path id="DejaVuSans-39" d="M 703 97 
L 703 672 
Q 941 559 1184 500 
Q 1428 441 1663 441 
Q 2288 441 2617 861 
Q 2947 1281 2994 2138 
Q 2813 1869 2534 1725 
Q 2256 1581 1919 1581 
Q 1219 1581 811 2004 
Q 403 2428 403 3163 
Q 403 3881 828 4315 
Q 1253 4750 1959 4750 
Q 2769 4750 3195 4129 
Q 3622 3509 3622 2328 
Q 3622 1225 3098 567 
Q 2575 -91 1691 -91 
Q 1453 -91 1209 -44 
Q 966 3 703 97 
z
M 1959 2075 
Q 2384 2075 2632 2365 
Q 2881 2656 2881 3163 
Q 2881 3666 2632 3958 
Q 2384 4250 1959 4250 
Q 1534 4250 1286 3958 
Q 1038 3666 1038 3163 
Q 1038 2656 1286 2365 
Q 1534 2075 1959 2075 
z
" transform="scale(0.015625)"/>
       </defs>
       <use xlink:href="#DejaVuSans-30"/>
       <use xlink:href="#DejaVuSans-2e" x="63.623047"/>
       <use xlink:href="#DejaVuSans-36" x="95.410156"/>
       <use xlink:href="#DejaVuSans-39" x="159.033203"/>
       <use xlink:href="#DejaVuSans-35" x="222.65625"/>
      </g>
     </g>
    </g>
    <g id="ytick_2">
     <g id="line2d_21">
      <path d="M 56.50625 177.482275 
L 335.50625 177.482275 
" clip-path="url(#p77fc290a2f)" style="fill: none; stroke-dasharray: 2.96,1.28; stroke-dashoffset: 0; stroke: #b0b0b0; stroke-opacity: 0.4; stroke-width: 0.8"/>
     </g>
     <g id="line2d_22">
      <g>
       <use xlink:href="#mc1b7e0ffe8" x="56.50625" y="177.482275" style="stroke: #000000; stroke-width: 0.8"/>
      </g>
     </g>
     <g id="text_12">
      <!-- 0.700 -->
      <g transform="translate(20.878125 181.281493) scale(0.1 -0.1)">
       <use xlink:href="#DejaVuSans-30"/>
       <use xlink:href="#DejaVuSans-2e" x="63.623047"/>
       <use xlink:href="#DejaVuSans-37" x="95.410156"/>
       <use xlink:href="#DejaVuSans-30" x="159.033203"/>
       <use xlink:href="#DejaVuSans-30" x="222.65625"/>
      </g>
     </g>
    </g>
    <g id="ytick_3">
     <g id="line2d_23">
      <path d="M 56.50625 142.605486 
L 335.50625 142.605486 
" clip-path="url(#p77fc290a2f)" style="fill: none; stroke-dasharray: 2.96,1.28; stroke-dashoffset: 0; stroke: #b0b0b0; stroke-opacity: 0.4; stroke-width: 0.8"/>
     </g>
     <g id="line2d_24">
      <g>
       <use xlink:href="#mc1b7e0ffe8" x="56.50625" y="142.605486" style="stroke: #000000; stroke-width: 0.8"/>
      </g>
     </g>
     <g id="text_13">
      <!-- 0.705 -->
      <g transform="translate(20.878125 146.404705) scale(0.1 -0.1)">
       <use xlink:href="#DejaVuSans-30"/>
       <use xlink:href="#DejaVuSans-2e" x="63.623047"/>
       <use xlink:href="#DejaVuSans-37" x="95.410156"/>
       <use xlink:href="#DejaVuSans-30" x="159.033203"/>
       <use xlink:href="#DejaVuSans-35" x="222.65625"/>
      </g>
     </g>
    </g>
    <g id="ytick_4">
     <g id="line2d_25">
      <path d="M 56.50625 107.728698 
L 335.50625 107.728698 
" clip-path="url(#p77fc290a2f)" style="fill: none; stroke-dasharray: 2.96,1.28; stroke-dashoffset: 0; stroke: #b0b0b0; stroke-opacity: 0.4; stroke-width: 0.8"/>
     </g>
     <g id="line2d_26">
      <g>
       <use xlink:href="#mc1b7e0ffe8" x="56.50625" y="107.728698" style="stroke: #000000; stroke-width: 0.8"/>
      </g>
     </g>
     <g id="text_14">
      <!-- 0.710 -->
      <g transform="translate(20.878125 111.527917) scale(0.1 -0.1)">
       <use xlink:href="#DejaVuSans-30"/>
       <use xlink:href="#DejaVuSans-2e" x="63.623047"/>
       <use xlink:href="#DejaVuSans-37" x="95.410156"/>
       <use xlink:href="#DejaVuSans-31" x="159.033203"/>
       <use xlink:href="#DejaVuSans-30" x="222.65625"/>
      </g>
     </g>
    </g>
    <g id="ytick_5">
     <g id="line2d_27">
      <path d="M 56.50625 72.851909 
L 335.50625 72.851909 
" clip-path="url(#p77fc290a2f)" style="fill: none; stroke-dasharray: 2.96,1.28; stroke-dashoffset: 0; stroke: #b0b0b0; stroke-opacity: 0.4; stroke-width: 0.8"/>
     </g>
     <g id="line2d_28">
      <g>
       <use xlink:href="#mc1b7e0ffe8" x="56.50625" y="72.851909" style="stroke: #000000; stroke-width: 0.8"/>
      </g>
     </g>
     <g id="text_15">
      <!-- 0.715 -->
      <g transform="translate(20.878125 76.651128) scale(0.1 -0.1)">
       <use xlink:href="#DejaVuSans-30"/>
       <use xlink:href="#DejaVuSans-2e" x="63.623047"/>
       <use xlink:href="#DejaVuSans-37" x="95.410156"/>
       <use xlink:href="#DejaVuSans-31" x="159.033203"/>
       <use xlink:href="#DejaVuSans-35" x="222.65625"/>
      </g>
     </g>
    </g>
    <g id="ytick_6">
     <g id="line2d_29">
      <path d="M 56.50625 37.975121 
L 335.50625 37.975121 
" clip-path="url(#p77fc290a2f)" style="fill: none; stroke-dasharray: 2.96,1.28; stroke-dashoffset: 0; stroke: #b0b0b0; stroke-opacity: 0.4; stroke-width: 0.8"/>
     </g>
     <g id="line2d_30">
      <g>
       <use xlink:href="#mc1b7e0ffe8" x="56.50625" y="37.975121" style="stroke: #000000; stroke-width: 0.8"/>
      </g>
     </g>
     <g id="text_16">
      <!-- 0.720 -->
      <g transform="translate(20.878125 41.77434) scale(0.1 -0.1)">
       <use xlink:href="#DejaVuSans-30"/>
       <use xlink:href="#DejaVuSans-2e" x="63.623047"/>
       <use xlink:href="#DejaVuSans-37" x="95.410156"/>
       <use xlink:href="#DejaVuSans-32" x="159.033203"/>
       <use xlink:href="#DejaVuSans-30" x="222.65625"/>
      </g>
     </g>
    </g>
    <g id="text_17">
     <!-- Loss -->
     <g transform="translate(14.798438 149.495187) rotate(-90) scale(0.1 -0.1)">
      <defs>
       <path id="DejaVuSans-4c" d="M 628 4666 
L 1259 4666 
L 1259 531 
L 3531 531 
L 3531 0 
L 628 0 
L 628 4666 
z
" transform="scale(0.015625)"/>
      </defs>
      <use xlink:href="#DejaVuSans-4c"/>
      <use xlink:href="#DejaVuSans-6f" x="53.962891"/>
      <use xlink:href="#DejaVuSans-73" x="115.144531"/>
      <use xlink:href="#DejaVuSans-73" x="167.244141"/>
     </g>
    </g>
   </g>
   <g id="line2d_31">
    <path d="M 69.188068 46.498909 
L 69.31495 55.638227 
L 69.568713 84.927534 
L 69.695595 82.689062 
L 69.949358 126.816144 
L 70.07624 105.934827 
L 70.203121 129.325694 
L 70.330003 128.231404 
L 70.456884 128.390225 
L 70.710648 155.206985 
L 70.964411 166.73154 
L 71.091293 147.636759 
L 71.471937 173.279818 
L 71.598819 167.069971 
L 71.725701 167.610464 
L 71.852582 168.809111 
L 71.979464 162.531079 
L 72.233227 180.690806 
L 72.360109 178.298918 
L 72.48699 183.456051 
L 72.613872 180.077555 
L 72.740754 180.92114 
L 72.867635 188.818571 
L 72.994517 187.237422 
L 73.121398 193.161223 
L 73.24828 191.856141 
L 73.375162 189.129978 
L 73.628925 190.428408 
L 73.755807 196.010452 
L 73.882688 189.851744 
L 74.00957 202.956617 
L 74.136451 195.097019 
L 74.263333 201.318092 
L 74.390215 199.921957 
L 74.517096 196.123124 
L 74.77086 211.10018 
L 74.897741 200.558076 
L 75.024623 204.586826 
L 75.151504 202.955785 
L 75.532149 208.48669 
L 75.659031 205.388003 
L 75.785913 214.941006 
L 75.912794 205.691926 
L 76.039676 205.181368 
L 76.166557 201.078196 
L 76.420321 209.0039 
L 76.547202 214.157291 
L 76.674084 205.414612 
L 76.800966 204.368134 
L 76.927847 209.19723 
L 77.054729 209.009721 
L 77.18161 212.098013 
L 77.562255 208.135369 
L 77.689137 211.581219 
L 77.816019 208.705381 
L 78.069782 210.214188 
L 78.196663 213.823849 
L 78.323545 211.70678 
L 78.450427 215.9642 
L 78.577308 212.975275 
L 78.70419 213.336158 
L 78.831072 209.500737 
L 79.084835 219.449132 
L 79.211716 217.529135 
L 79.338598 221.023629 
L 79.46548 210.157228 
L 79.846124 219.673644 
L 80.099888 214.629599 
L 80.226769 208.540323 
L 80.480533 216.396179 
L 80.607414 218.117025 
L 80.734296 221.990695 
L 80.861177 210.392966 
L 80.988059 214.247096 
L 81.114941 223.233829 
L 81.241822 220.226194 
L 81.368704 212.916236 
L 81.495586 220.68395 
L 81.622467 213.955646 
L 81.749349 214.913565 
L 82.003112 219.048335 
L 82.129994 211.036569 
L 82.256875 219.230856 
L 82.383757 215.409571 
L 82.510639 215.801637 
L 82.63752 218.350268 
L 82.764402 216.337972 
L 82.891283 220.75754 
L 83.018165 213.01602 
L 83.271928 218.931922 
L 83.39881 219.993782 
L 83.652573 217.005688 
L 83.906336 218.085011 
L 84.033218 218.13906 
L 84.1601 219.464515 
L 84.286981 216.611544 
L 84.540745 223.585565 
L 84.667626 217.86923 
L 84.921389 222.793535 
L 85.175153 217.799797 
L 85.302034 221.074768 
L 85.428916 217.601893 
L 85.555798 220.317246 
L 85.682679 219.383441 
L 85.809561 222.075927 
L 85.936442 217.381539 
L 86.063324 221.156258 
L 86.190206 216.749162 
L 86.317087 219.337291 
L 86.443969 217.408979 
L 86.57085 221.889249 
L 86.697732 221.776161 
L 86.824614 216.646468 
L 86.951495 229.496478 
L 87.078377 220.49644 
L 87.205259 224.632458 
L 87.459022 216.732947 
L 87.585903 225.630291 
L 87.712785 218.921943 
L 87.966548 225.671867 
L 88.09343 218.722377 
L 88.220312 225.979948 
L 88.347193 220.281906 
L 88.474075 224.911435 
L 88.727838 222.403549 
L 88.85472 222.65176 
L 88.981601 222.46425 
L 89.235365 217.123349 
L 89.362246 220.920935 
L 89.489128 220.040763 
L 89.616009 221.206981 
L 89.742891 223.835023 
L 89.869773 219.592154 
L 89.996654 220.654846 
L 90.250418 225.017455 
L 90.377299 225.895132 
L 90.504181 221.666815 
L 90.757944 223.458757 
L 90.884826 220.069035 
L 91.011707 223.911108 
L 91.138589 223.966404 
L 91.265471 223.728172 
L 91.392352 222.509153 
L 91.646115 224.401709 
L 91.772997 223.545652 
L 91.899879 226.581558 
L 92.02676 219.424602 
L 92.153642 220.526375 
L 92.280524 224.249955 
L 92.407405 221.916689 
L 92.534287 222.122077 
L 92.661168 225.138442 
L 92.78805 220.942555 
L 92.914932 222.085074 
L 93.041813 225.091045 
L 93.295576 219.035447 
L 93.422458 226.431468 
L 93.54934 225.196234 
L 93.676221 220.723447 
L 93.803103 222.359478 
L 93.929985 221.341688 
L 94.056866 223.584318 
L 94.310629 222.070106 
L 94.437511 221.554143 
L 94.564393 219.080349 
L 94.691274 222.026867 
L 94.818156 220.919688 
L 94.945038 224.779223 
L 95.071919 225.073583 
L 95.198801 223.186847 
L 95.325682 223.458757 
L 95.452564 225.177524 
L 95.579446 225.270655 
L 95.706327 224.481536 
L 95.833209 220.868965 
L 95.960091 221.469328 
L 96.086972 220.165908 
L 96.213854 225.446108 
L 96.340735 220.66233 
L 96.467617 222.540751 
L 96.594499 222.065949 
L 96.72138 223.317813 
L 96.975144 220.76045 
L 97.102025 225.93754 
L 97.228907 219.940149 
L 97.355788 224.261597 
L 97.48267 222.435562 
L 97.609552 222.27882 
L 97.863315 226.116734 
L 97.990197 223.292867 
L 98.117078 223.089975 
L 98.24396 223.682022 
L 98.370841 225.377091 
L 98.624605 220.554232 
L 98.878368 222.994349 
L 99.005249 220.723447 
L 99.132131 227.571076 
L 99.259013 226.942025 
L 99.385894 222.05597 
L 99.512776 221.780319 
L 99.639658 223.099953 
L 99.766539 221.679288 
L 99.893421 223.975551 
L 100.020302 223.48495 
L 100.147184 223.639614 
L 100.274066 223.391819 
L 100.400947 221.844346 
L 100.527829 227.723245 
L 100.781592 223.80883 
L 100.908474 223.22094 
L 101.035355 223.931065 
L 101.162237 226.243127 
L 101.289119 226.170368 
L 101.416 224.790448 
L 101.542882 225.24862 
L 101.669764 224.019622 
L 102.050408 225.392474 
L 102.304172 221.976975 
L 102.431053 222.820144 
L 102.557935 220.572525 
L 102.93858 225.303916 
L 103.192343 221.62025 
L 103.319225 217.61104 
L 103.446106 223.198073 
L 103.69987 221.964918 
L 103.953633 225.220764 
L 104.080514 225.232405 
L 104.207396 225.66272 
L 104.334278 223.73524 
L 104.461159 225.101439 
L 104.588041 225.031591 
L 104.714923 224.698149 
L 104.841804 227.298335 
L 104.968686 225.000409 
L 105.222449 225.382496 
L 105.476212 227.62762 
L 105.603094 224.408777 
L 105.729975 227.278378 
L 105.856857 224.672371 
L 106.11062 225.605345 
L 106.364384 223.874936 
L 106.491265 223.771827 
L 106.618147 224.517707 
L 106.745028 221.520882 
L 106.87191 224.754692 
L 106.998792 222.055554 
L 107.125673 224.264507 
L 107.252555 219.985051 
L 107.379437 227.0996 
L 107.6332 222.79603 
L 107.760081 224.521033 
L 107.886963 224.188007 
L 108.013845 220.172976 
L 108.140726 225.013713 
L 108.267608 223.378099 
L 108.39449 223.827539 
L 108.648253 225.255272 
L 108.775134 224.885658 
L 108.902016 222.339521 
L 109.028898 224.377595 
L 109.155779 223.864127 
L 109.282661 224.704385 
L 109.409543 226.74329 
L 109.536424 224.056625 
L 109.663306 224.476131 
L 109.790187 225.414925 
L 109.917069 220.895574 
L 110.043951 225.720927 
L 110.170832 221.960345 
L 110.424596 224.412103 
L 110.678359 222.118335 
L 110.80524 222.130392 
L 110.932122 223.502828 
L 111.059004 223.319476 
L 111.185885 223.487445 
L 111.312767 225.595367 
L 111.439649 219.986298 
L 111.693412 225.630707 
L 111.820293 226.517531 
L 111.947175 223.730666 
L 112.074057 227.909092 
L 112.200938 222.532851 
L 112.32782 222.955267 
L 112.454701 226.539982 
L 112.581583 220.840277 
L 112.708465 220.710559 
L 112.835346 223.843754 
L 112.962228 222.589811 
L 113.08911 226.881324 
L 113.215991 226.004062 
L 113.342873 227.295009 
L 113.469754 222.973561 
L 113.596636 225.493089 
L 113.723518 222.629308 
L 113.850399 223.923997 
L 113.977281 223.778064 
L 114.104163 225.388316 
L 114.231044 225.386238 
L 114.484807 224.507729 
L 114.611689 222.198161 
L 114.738571 225.161725 
L 114.865452 222.734912 
L 114.992334 223.38683 
L 115.119216 222.870451 
L 115.372979 225.139274 
L 115.49986 223.547315 
L 115.626742 224.521033 
L 115.753624 223.602611 
L 115.880505 224.977542 
L 116.007387 222.617667 
L 116.26115 225.567926 
L 116.388032 222.356152 
L 116.514913 224.564273 
L 116.641795 223.363131 
L 116.768677 224.661561 
L 116.895558 223.411776 
L 117.02244 223.51738 
L 117.149322 223.954347 
L 117.276203 223.950605 
L 117.403085 225.703465 
L 117.529966 221.987785 
L 117.656848 226.219012 
L 117.78373 223.271248 
L 117.910611 228.027584 
L 118.291256 222.747801 
L 118.418138 225.962902 
L 118.545019 224.938044 
L 118.671901 225.105597 
L 118.798783 225.917168 
L 118.925664 221.98529 
L 119.179427 225.771235 
L 119.306309 225.474379 
L 119.433191 224.035005 
L 119.560072 223.899051 
L 119.686954 224.487772 
L 119.813836 224.475299 
L 119.940717 225.56169 
L 120.067599 221.874281 
L 120.19448 224.573835 
L 120.321362 224.067019 
L 120.448244 224.915593 
L 120.702007 222.463419 
L 120.828889 222.075095 
L 120.95577 223.481208 
L 121.082652 226.241879 
L 121.209533 224.116911 
L 121.336415 225.54298 
L 121.463297 225.512214 
L 121.590178 223.338185 
L 121.71706 225.06901 
L 121.970823 221.781566 
L 122.224586 226.420242 
L 122.47835 225.370854 
L 122.605231 222.876272 
L 122.858995 226.328358 
L 122.985876 224.219189 
L 123.112758 226.200303 
L 123.239639 224.150172 
L 123.493403 226.320874 
L 123.620284 226.236474 
L 124.000929 224.364706 
L 124.127811 224.384247 
L 124.381574 226.615651 
L 124.635337 222.532435 
L 124.762219 225.13969 
L 124.889101 222.792703 
L 125.015982 225.979117 
L 125.142864 222.926164 
L 125.269745 224.708127 
L 125.396627 222.070106 
L 125.65039 225.530508 
L 125.777272 223.537752 
L 126.031035 226.264331 
L 126.157917 226.038571 
L 126.284798 222.10212 
L 126.538562 225.505978 
L 126.665443 227.224745 
L 126.919206 224.936797 
L 127.046088 224.528517 
L 127.17297 225.28978 
L 127.299851 224.170544 
L 127.426733 221.146695 
L 127.934259 225.623223 
L 128.188023 226.778214 
L 128.314904 223.58307 
L 128.441786 223.534842 
L 128.568668 222.393986 
L 128.695549 222.564449 
L 128.822431 224.693991 
L 128.949312 222.498343 
L 129.076194 224.930561 
L 129.203076 223.466656 
L 129.329957 225.918415 
L 129.456839 225.439871 
L 129.583721 225.500988 
L 129.710602 223.06295 
L 129.837484 224.366369 
L 130.091247 222.423921 
L 130.218129 225.488515 
L 130.34501 223.551057 
L 130.471892 224.415014 
L 130.598774 223.273742 
L 130.725655 226.617314 
L 130.852537 226.657643 
L 130.979418 226.251026 
L 131.1063 223.617163 
L 131.233182 224.330613 
L 131.360063 223.694079 
L 131.486945 226.942857 
L 131.613827 226.121308 
L 131.740708 226.437288 
L 131.994471 223.493681 
L 132.121353 225.460244 
L 132.375116 225.518866 
L 132.501998 223.824213 
L 132.628879 223.770164 
L 132.755761 223.038836 
L 132.882643 221.061879 
L 133.136406 224.168466 
L 133.390169 221.984459 
L 133.517051 226.565759 
L 133.643932 224.572172 
L 133.770814 225.950845 
L 133.897696 224.332692 
L 134.024577 224.546811 
L 134.151459 225.806575 
L 134.278341 224.200064 
L 134.405222 224.68817 
L 134.532104 225.797012 
L 134.658985 225.06901 
L 134.785867 225.837757 
L 134.912749 224.805 
L 135.03963 222.403133 
L 135.166512 223.589723 
L 135.293394 226.098025 
L 135.420275 223.464578 
L 135.547157 224.388405 
L 135.674038 226.359956 
L 135.80092 223.645851 
L 135.927802 225.731737 
L 136.054683 222.110435 
L 136.181565 226.627292 
L 136.308447 221.875944 
L 136.435328 225.201223 
L 136.689091 223.625478 
L 136.815973 227.892045 
L 136.942855 224.364706 
L 137.069736 224.403788 
L 137.196618 226.146254 
L 137.3235 226.088047 
L 137.450381 224.190501 
L 137.704144 226.587379 
L 137.831026 227.182337 
L 138.084789 223.200152 
L 138.211671 227.404355 
L 138.465434 224.325624 
L 138.719197 225.014545 
L 138.846079 221.722943 
L 138.972961 225.240304 
L 139.099842 223.428406 
L 139.353605 224.955506 
L 139.480487 224.810405 
L 139.607369 225.680598 
L 139.73425 227.41267 
L 139.861132 224.091549 
L 139.988014 224.82662 
L 140.114895 222.880014 
L 140.241777 223.333196 
L 140.368658 225.546307 
L 140.622422 223.03842 
L 140.749303 227.280873 
L 140.876185 222.987697 
L 141.003067 222.994349 
L 141.25683 226.773225 
L 141.383711 225.218685 
L 141.510593 225.217853 
L 141.637475 225.686835 
L 141.764356 227.302908 
L 142.01812 224.129384 
L 142.271883 223.398471 
L 142.525646 225.190413 
L 142.652528 227.262579 
L 142.906291 223.921502 
L 143.033173 224.183017 
L 143.160054 226.924563 
L 143.286936 223.159407 
L 143.413817 224.778391 
L 143.540699 222.389828 
L 143.794462 225.570005 
L 143.921344 223.170633 
L 144.048226 225.359629 
L 144.175107 223.538584 
L 144.42887 226.650991 
L 144.555752 224.881085 
L 144.682634 226.289276 
L 145.063279 224.014217 
L 145.19016 226.474291 
L 145.317042 226.583637 
L 145.443923 224.113585 
L 145.697687 227.117062 
L 145.824568 223.635457 
L 146.078331 224.985857 
L 146.205213 228.484093 
L 146.332095 222.036845 
L 146.458976 225.911347 
L 146.71274 224.504818 
L 146.839621 224.270744 
L 147.093384 228.090781 
L 147.220266 223.763512 
L 147.474029 226.230238 
L 147.600911 227.776463 
L 147.854674 225.129296 
L 147.981556 224.381752 
L 148.108437 225.98369 
L 148.235319 225.999073 
L 148.362201 226.29967 
L 148.615964 224.499414 
L 148.869727 226.292602 
L 149.12349 223.322386 
L 149.377254 226.03275 
L 149.504135 223.584318 
L 149.631017 223.911524 
L 149.757899 223.350243 
L 149.88478 227.017694 
L 150.138543 224.813731 
L 150.265425 227.149491 
L 150.392307 225.351313 
L 150.519188 226.1633 
L 150.64607 223.889072 
L 150.772952 228.94268 
L 151.026715 221.867629 
L 151.280478 228.816704 
L 151.534241 225.472716 
L 151.661123 227.580223 
L 151.788005 226.88756 
L 151.914886 227.175269 
L 152.168649 224.935134 
L 152.422413 225.45276 
L 152.549294 225.364202 
L 152.803057 222.201487 
L 153.056821 226.790272 
L 153.183702 223.595127 
L 153.437466 227.102926 
L 153.564347 223.392235 
L 153.691229 226.289276 
L 153.81811 224.138115 
L 153.944992 227.478776 
L 154.325637 225.197481 
L 154.452519 226.526677 
L 154.5794 224.854892 
L 154.706282 226.274309 
L 154.833163 225.055705 
L 154.960045 226.589874 
L 155.086927 224.418755 
L 155.213808 227.617641 
L 155.467572 224.560531 
L 155.594453 225.614492 
L 155.721335 223.173959 
L 155.975098 226.063932 
L 156.10198 225.009556 
L 156.228861 225.078157 
L 156.482625 226.59902 
L 156.609506 223.267506 
L 156.736388 224.339345 
L 156.863269 227.032662 
L 157.117033 224.930976 
L 157.497678 222.951109 
L 157.751441 226.042728 
L 157.878322 225.239889 
L 158.005204 226.240632 
L 158.258967 224.571341 
L 158.385849 227.524095 
L 158.512731 224.151004 
L 158.639612 226.515452 
L 158.766494 226.263499 
L 158.893375 225.407026 
L 159.020257 223.381425 
L 159.147139 226.323785 
L 159.27402 224.078661 
L 159.527783 226.44103 
L 159.908428 224.926403 
L 160.03531 226.137523 
L 160.289073 225.084809 
L 160.415955 225.375428 
L 160.542836 223.448779 
L 160.669718 226.026514 
L 160.7966 225.376675 
L 161.050363 226.886729 
L 161.177245 224.908525 
L 161.304126 224.711453 
L 161.431008 223.821303 
L 161.557889 225.510135 
L 161.684771 224.994172 
L 161.811653 226.05728 
L 161.938534 224.560947 
L 162.065416 227.295425 
L 162.192298 226.200719 
L 162.319179 227.035156 
L 162.446061 224.025027 
L 162.572942 225.091877 
L 162.699824 227.297503 
L 162.953587 224.390068 
L 163.080469 227.623462 
L 163.207351 225.22991 
L 163.461114 227.738213 
L 163.714877 223.965989 
L 163.841759 226.777383 
L 164.095522 225.780382 
L 164.222404 225.555869 
L 164.476167 224.166387 
L 164.603048 224.779638 
L 164.72993 228.264986 
L 164.856812 227.522016 
L 164.983693 225.582894 
L 165.110575 225.799922 
L 165.364338 227.548209 
L 165.49122 225.709286 
L 165.618101 225.631954 
L 165.744983 226.062269 
L 165.871865 224.204221 
L 166.125628 226.58239 
L 166.252509 223.188926 
L 166.506273 226.669284 
L 166.633154 226.7541 
L 166.886918 224.396304 
L 167.013799 224.688586 
L 167.140681 226.162053 
L 167.267562 224.506897 
L 167.394444 224.595039 
L 167.521326 224.317725 
L 167.648207 224.410856 
L 167.775089 226.348731 
L 167.901971 224.321051 
L 168.028852 224.33976 
L 168.155734 224.765502 
L 168.282615 224.560531 
L 168.409497 225.184592 
L 168.536379 224.636616 
L 168.66326 226.755763 
L 168.917024 224.882332 
L 169.043905 226.951172 
L 169.297668 225.130959 
L 169.42455 225.011219 
L 169.551432 225.21619 
L 169.678313 227.372757 
L 169.932077 225.444029 
L 170.058958 225.416173 
L 170.18584 226.545387 
L 170.312721 226.054786 
L 170.439603 224.921829 
L 170.566485 226.01903 
L 170.820248 225.12098 
L 171.074011 228.227151 
L 171.200893 226.523767 
L 171.327774 222.794367 
L 171.581538 227.966467 
L 171.835301 224.233741 
L 171.962183 226.959903 
L 172.089064 225.166299 
L 172.215946 225.478121 
L 172.342827 224.78338 
L 172.469709 227.308313 
L 172.596591 225.638606 
L 172.850354 226.917911 
L 172.977235 226.722918 
L 173.104117 227.505385 
L 173.230999 224.891063 
L 173.35788 226.206539 
L 173.484762 224.819552 
L 173.611644 225.754604 
L 173.738525 227.770642 
L 173.865407 226.455998 
L 173.992288 223.815482 
L 174.11917 227.571076 
L 174.246052 224.190501 
L 174.372933 224.457006 
L 174.626697 226.69132 
L 174.753578 225.313479 
L 175.007341 226.347068 
L 175.134223 227.88082 
L 175.261105 223.598869 
L 175.387986 224.342671 
L 175.514868 226.349146 
L 175.64175 225.311816 
L 175.768631 226.684668 
L 175.895513 224.933887 
L 176.149276 224.860712 
L 176.403039 226.71585 
L 176.529921 224.909357 
L 176.783684 225.939203 
L 176.910566 225.35755 
L 177.037447 226.576153 
L 177.164329 226.03566 
L 177.291211 227.333675 
L 177.418092 226.059775 
L 177.544974 226.135444 
L 177.671856 225.132206 
L 177.925619 225.524271 
L 178.0525 224.605018 
L 178.179382 225.323457 
L 178.306264 225.239057 
L 178.433145 226.19573 
L 178.560027 224.905199 
L 178.81379 226.929137 
L 178.940672 225.658147 
L 179.067553 227.231397 
L 179.194435 226.633529 
L 179.321317 224.809989 
L 179.57508 225.565432 
L 179.701961 225.392474 
L 179.828843 225.476043 
L 179.955725 227.531578 
L 180.082606 225.979948 
L 180.209488 227.598101 
L 180.33637 224.644099 
L 180.463251 224.81581 
L 180.590133 226.59902 
L 180.843896 224.734736 
L 180.970778 226.412758 
L 181.097659 226.41359 
L 181.224541 227.195641 
L 181.351423 224.561778 
L 181.478304 225.799091 
L 181.605186 224.336018 
L 181.858949 226.343741 
L 181.985831 225.815306 
L 182.239594 228.206779 
L 182.366476 223.673707 
L 182.493357 225.629875 
L 182.620239 225.3193 
L 182.74712 228.484093 
L 182.874002 227.664623 
L 183.000884 224.18468 
L 183.127765 226.686746 
L 183.254647 225.544228 
L 183.381529 225.942945 
L 183.50841 227.107915 
L 183.635292 225.976622 
L 183.762173 228.308641 
L 183.889055 226.203213 
L 184.015937 226.363698 
L 184.142818 226.024851 
L 184.2697 227.342406 
L 184.396582 226.332932 
L 184.523463 226.738301 
L 184.650345 226.592784 
L 184.777226 225.818216 
L 184.904108 227.428053 
L 185.03099 224.206716 
L 185.157871 227.958152 
L 185.411635 226.28013 
L 185.538516 227.672106 
L 185.792279 224.854892 
L 185.919161 225.986185 
L 186.046043 225.396632 
L 186.299806 227.351968 
L 186.426687 227.035156 
L 186.680451 225.602435 
L 186.807332 226.229822 
L 186.934214 225.515956 
L 187.061096 226.443525 
L 187.187977 225.574994 
L 187.314859 226.230238 
L 187.44174 224.64701 
L 187.568622 225.350898 
L 187.695504 225.393721 
L 187.949267 226.627292 
L 188.076149 226.505058 
L 188.20303 226.697556 
L 188.329912 226.07599 
L 188.456793 224.151004 
L 188.710557 227.931543 
L 189.091202 225.329694 
L 189.218083 226.818128 
L 189.344965 224.735567 
L 189.471846 226.63436 
L 189.598728 225.540486 
L 189.72561 225.794518 
L 189.979373 224.00507 
L 190.233136 226.337921 
L 190.360018 223.995924 
L 190.740663 228.251265 
L 190.867544 225.853556 
L 190.994426 226.462234 
L 191.121308 225.473132 
L 191.248189 226.047302 
L 191.375071 225.806575 
L 191.628834 227.210193 
L 191.882597 225.456502 
L 192.136361 227.033078 
L 192.263242 226.929137 
L 192.517005 224.82163 
L 192.770769 225.970801 
L 193.024532 226.897123 
L 193.151413 224.425823 
L 193.405177 227.164875 
L 193.532058 225.652742 
L 193.912703 227.772306 
L 194.039585 225.813227 
L 194.166466 227.004806 
L 194.293348 226.944936 
L 194.42023 228.670355 
L 194.547111 226.467639 
L 194.673993 227.422648 
L 194.800875 226.411927 
L 194.927756 227.203541 
L 195.435283 224.622895 
L 195.689046 227.220587 
L 195.815928 227.020605 
L 195.942809 225.056121 
L 196.196572 227.833839 
L 196.323454 224.831193 
L 196.450336 225.204965 
L 196.577217 226.836421 
L 196.704099 226.768236 
L 196.957862 226.431883 
L 197.084744 223.672044 
L 197.211625 226.125465 
L 197.338507 225.900122 
L 197.465389 226.298839 
L 197.59227 225.261508 
L 197.719152 225.409936 
L 197.846034 227.174022 
L 197.972915 226.668037 
L 198.099797 225.162141 
L 198.226678 226.748695 
L 198.35356 225.627796 
L 198.607323 228.148156 
L 198.861087 225.573331 
L 198.987968 225.120149 
L 199.11485 225.434466 
L 199.368613 226.965308 
L 199.495495 225.44486 
L 199.749258 227.947758 
L 199.876139 227.590201 
L 200.003021 227.467135 
L 200.129903 228.148987 
L 200.256784 225.155073 
L 200.383666 227.350305 
L 200.510548 224.550137 
L 200.637429 228.091196 
L 200.891192 225.910931 
L 201.018074 227.100847 
L 201.525601 225.169209 
L 201.652482 226.312143 
L 201.779364 225.442781 
L 201.906245 225.389564 
L 202.160009 227.119556 
L 202.28689 226.781125 
L 202.413772 227.729066 
L 202.540654 224.787538 
L 202.667535 226.576153 
L 202.921298 226.113408 
L 203.04818 226.234811 
L 203.175062 225.374596 
L 203.301943 226.666374 
L 203.428825 225.797012 
L 203.555707 228.075813 
L 203.682588 225.266498 
L 203.936351 227.716177 
L 204.063233 227.621383 
L 204.316996 224.078245 
L 204.443878 226.937452 
L 204.57076 225.510135 
L 204.697641 227.667117 
L 204.951404 225.873513 
L 205.205168 228.909004 
L 205.332049 225.253193 
L 205.458931 228.028832 
L 205.712694 225.494336 
L 205.839576 226.494248 
L 205.966457 226.56867 
L 206.093339 227.296256 
L 206.220221 226.434378 
L 206.347102 226.750774 
L 206.473984 225.799922 
L 206.854629 226.974871 
L 207.235274 226.843489 
L 207.362155 227.207698 
L 207.615918 224.041242 
L 207.869682 227.045966 
L 207.996563 225.173367 
L 208.250327 226.978613 
L 208.377208 224.886074 
L 208.630971 226.435625 
L 208.884735 227.173606 
L 209.011616 225.258598 
L 209.138498 227.478361 
L 209.26538 225.761672 
L 209.392261 227.42639 
L 209.519143 223.580991 
L 209.772906 227.983929 
L 210.026669 225.72259 
L 210.153551 225.800338 
L 210.280433 225.68143 
L 210.534196 227.58147 
L 210.661077 226.336258 
L 210.787959 227.261748 
L 210.914841 225.521777 
L 211.041722 227.618889 
L 211.295486 226.005725 
L 211.422367 227.443436 
L 211.67613 225.341335 
L 211.929894 226.833511 
L 212.056775 226.558691 
L 212.183657 227.55694 
L 212.310539 225.286039 
L 212.43742 226.727907 
L 212.564302 225.681846 
L 212.818065 227.185247 
L 212.944947 225.68143 
L 213.19871 227.152818 
L 213.325591 226.055201 
L 213.452473 226.305075 
L 213.579355 227.470877 
L 213.833118 225.95916 
L 214.086881 227.421401 
L 214.340644 225.212033 
L 214.594408 228.206779 
L 214.848171 225.385822 
L 214.975053 225.799922 
L 215.101934 227.119972 
L 215.228816 225.455254 
L 215.482579 226.452671 
L 215.609461 225.935461 
L 215.736342 224.779638 
L 215.863224 227.531994 
L 215.990106 227.132445 
L 216.116987 227.160717 
L 216.243869 228.132357 
L 216.37075 226.332932 
L 216.497632 226.307986 
L 216.624514 225.431556 
L 216.751395 225.875591 
L 216.878277 227.35571 
L 217.13204 225.766661 
L 217.385803 227.734887 
L 217.512685 227.901608 
L 217.639567 226.825196 
L 217.766448 226.777799 
L 217.89333 227.52451 
L 218.020212 225.721759 
L 218.147093 227.314134 
L 218.273975 227.199799 
L 218.400856 224.86778 
L 218.527738 226.254768 
L 218.65462 225.020781 
L 218.781501 227.546962 
L 218.908383 225.537991 
L 219.035265 225.824453 
L 219.162146 226.757842 
L 219.289028 226.257678 
L 219.415909 225.203717 
L 219.669673 227.477529 
L 219.796554 227.487923 
L 219.923436 226.546218 
L 220.050317 226.854715 
L 220.177199 228.026753 
L 220.304081 228.08205 
L 220.430962 226.7541 
L 220.684726 227.123298 
L 220.811607 225.837341 
L 220.938489 226.988175 
L 221.06537 226.243542 
L 221.319134 229.102749 
L 221.699779 225.009556 
L 221.953542 227.711604 
L 222.080423 226.572411 
L 222.207305 228.143998 
L 222.334187 227.729066 
L 222.461068 225.879333 
L 222.58795 226.104261 
L 222.841713 227.490418 
L 222.968595 228.568077 
L 223.095476 227.245949 
L 223.222358 227.20562 
L 223.476121 225.198312 
L 223.603003 227.879573 
L 223.729885 227.097105 
L 223.856766 227.214351 
L 223.983648 228.525669 
L 224.237411 225.695982 
L 224.618056 228.382231 
L 224.871819 227.07507 
L 224.998701 228.031326 
L 225.252464 227.160717 
L 225.379346 225.364202 
L 225.633109 227.230565 
L 225.759991 226.779046 
L 225.886872 227.930296 
L 226.140635 225.570421 
L 226.267517 227.449673 
L 226.394399 226.14168 
L 226.648162 228.300741 
L 226.901925 227.22225 
L 227.028807 227.289604 
L 227.155688 226.947846 
L 227.28257 225.279386 
L 227.409452 229.138921 
L 227.536333 227.203541 
L 227.663215 228.056272 
L 227.790096 227.574402 
L 227.916978 229.210016 
L 228.04386 225.056953 
L 228.297623 227.571492 
L 228.424505 227.178179 
L 228.678268 224.743883 
L 228.805149 228.435449 
L 229.185794 225.325952 
L 229.312676 225.99741 
L 229.439558 226.010715 
L 229.566439 225.53716 
L 229.693321 228.121963 
L 229.820202 224.605018 
L 230.073966 227.502475 
L 230.454611 226.710861 
L 230.581492 228.252097 
L 230.708374 226.926226 
L 230.835255 227.246364 
L 230.962137 228.102838 
L 231.2159 225.563769 
L 231.342782 227.969793 
L 231.469664 226.570333 
L 231.850308 228.219667 
L 231.97719 225.880581 
L 232.230953 226.713771 
L 232.357835 228.812962 
L 232.484717 225.926315 
L 232.611598 227.374835 
L 232.73848 225.243631 
L 232.865361 228.013864 
L 232.992243 227.247196 
L 233.119125 225.638606 
L 233.246006 225.989926 
L 233.499769 227.477945 
L 233.626651 226.512126 
L 233.753533 227.977693 
L 233.880414 227.529084 
L 234.007296 226.594863 
L 234.134178 226.914169 
L 234.261059 226.090126 
L 234.387941 227.040977 
L 234.514822 226.4244 
L 234.641704 227.32037 
L 234.768586 227.092532 
L 234.895467 229.16844 
L 235.022349 226.86303 
L 235.402994 227.620552 
L 235.529875 226.527093 
L 235.656757 226.722502 
L 235.783639 227.721998 
L 235.91052 226.292602 
L 236.037402 228.079555 
L 236.164284 226.205708 
L 236.418047 228.31654 
L 236.67181 225.682261 
L 236.798692 225.961239 
L 237.052455 227.853379 
L 237.179337 227.213103 
L 237.306218 227.195225 
L 237.4331 225.582894 
L 237.686863 226.56077 
L 237.813745 227.23597 
L 237.940626 226.613156 
L 238.19439 227.738629 
L 238.448153 226.447682 
L 238.575034 226.4244 
L 238.701916 228.753924 
L 238.828798 228.410087 
L 238.955679 225.626133 
L 239.336324 227.930712 
L 239.463206 227.340327 
L 239.590087 228.045462 
L 239.716969 227.538231 
L 239.843851 226.223586 
L 239.970732 228.924803 
L 240.224495 226.262252 
L 240.351377 227.031415 
L 240.478259 225.83942 
L 240.60514 227.122051 
L 240.732022 227.259253 
L 240.985785 226.49009 
L 241.112667 228.054609 
L 241.239548 227.201878 
L 241.36643 227.532826 
L 241.493312 229.520592 
L 241.620193 228.736046 
L 241.747075 226.886729 
L 241.873957 227.035156 
L 242.000838 228.191395 
L 242.12772 225.887649 
L 242.254601 227.973535 
L 242.381483 227.904518 
L 242.508365 228.250018 
L 242.635246 225.9866 
L 242.762128 225.936293 
L 242.88901 227.971456 
L 243.269654 226.072248 
L 243.396536 226.964477 
L 243.523418 225.285623 
L 243.650299 225.893054 
L 243.904063 227.999313 
L 244.157826 227.561929 
L 244.284707 225.72259 
L 244.411589 227.695389 
L 244.538471 227.438863 
L 244.665352 226.398622 
L 244.919116 228.454574 
L 245.172879 227.902024 
L 245.29976 227.301661 
L 245.426642 227.298751 
L 245.553524 227.699131 
L 245.680405 228.552694 
L 245.934169 225.580399 
L 246.06105 227.280041 
L 246.314813 226.653901 
L 246.441695 227.707862 
L 246.568577 225.584141 
L 246.695458 227.531994 
L 246.82234 226.028593 
L 247.202985 228.478688 
L 247.58363 225.805327 
L 247.710511 228.621295 
L 247.964274 226.935373 
L 248.091156 227.258837 
L 248.218038 228.024258 
L 248.344919 226.302997 
L 248.598683 227.328686 
L 248.852446 226.500484 
L 248.979327 228.694469 
L 249.106209 225.378754 
L 249.486854 227.115815 
L 249.613736 226.961151 
L 249.740617 228.193058 
L 249.867499 227.654644 
L 249.99438 226.589458 
L 250.121262 229.354702 
L 250.248144 226.525014 
L 250.501907 227.386477 
L 250.628789 226.406937 
L 250.75567 226.608167 
L 250.882552 227.688321 
L 251.009433 227.11041 
L 251.136315 227.455909 
L 251.263197 227.372341 
L 251.390078 227.443436 
L 251.51696 226.935373 
L 251.897605 227.487092 
L 252.024486 227.260916 
L 252.151368 227.953163 
L 252.27825 226.815217 
L 252.405131 228.047957 
L 252.532013 227.946095 
L 252.658895 226.230238 
L 252.912658 228.179338 
L 253.166421 226.579479 
L 253.293303 225.026186 
L 253.547066 227.647576 
L 253.673947 226.82187 
L 253.800829 227.723661 
L 253.927711 226.782372 
L 254.054592 227.08089 
L 254.181474 228.176012 
L 254.308356 228.048788 
L 254.435237 226.900033 
L 254.562119 229.236625 
L 254.689 226.951172 
L 254.815882 226.750358 
L 254.942764 228.876574 
L 255.069645 226.97695 
L 255.196527 226.939115 
L 255.323409 226.552871 
L 255.45029 227.985592 
L 255.704053 226.579064 
L 255.830935 226.607336 
L 255.957817 226.50381 
L 256.084698 227.442189 
L 256.21158 227.210193 
L 256.338462 226.31048 
L 256.592225 228.749766 
L 256.719106 227.662128 
L 256.845988 228.883226 
L 256.97287 225.567511 
L 257.099751 225.246541 
L 257.226633 227.355295 
L 257.480396 227.081722 
L 257.607278 227.91907 
L 257.734159 226.333347 
L 257.861041 227.85629 
L 257.987923 227.085464 
L 258.114804 227.313302 
L 258.241686 226.629371 
L 258.368568 227.587291 
L 258.495449 226.335426 
L 258.622331 228.163123 
L 258.876094 227.539062 
L 259.002976 226.256015 
L 259.129857 226.13877 
L 259.383621 227.49998 
L 259.510502 226.493416 
L 259.764265 227.760248 
L 260.018029 227.877494 
L 260.14491 228.482846 
L 260.271792 226.672195 
L 260.398673 226.717097 
L 260.652437 225.613245 
L 260.779318 226.038155 
L 260.9062 228.664119 
L 261.159963 227.177763 
L 261.286845 228.334002 
L 261.413726 227.807645 
L 261.540608 226.09553 
L 261.66749 227.097521 
L 261.794371 229.602913 
L 261.921253 225.457333 
L 262.175016 227.824276 
L 262.301898 227.362778 
L 262.428779 228.072903 
L 262.555661 226.731649 
L 262.682543 228.475778 
L 262.809424 225.348403 
L 263.063188 228.12321 
L 263.190069 227.601427 
L 263.316951 229.428292 
L 263.570714 227.44801 
L 263.697596 226.353304 
L 263.824477 227.221003 
L 263.951359 226.832264 
L 264.078241 227.06135 
L 264.205122 228.22133 
L 264.332004 225.883491 
L 264.458885 226.767405 
L 264.585767 225.579152 
L 264.712649 228.060846 
L 264.83953 228.092444 
L 265.093294 227.272973 
L 265.220175 228.223825 
L 265.347057 226.195314 
L 265.60082 227.136603 
L 265.727702 225.776224 
L 265.854583 228.446259 
L 266.235228 226.181594 
L 266.36211 228.93977 
L 266.488991 225.826116 
L 266.615873 227.522016 
L 266.742755 225.400374 
L 266.869636 226.309233 
L 266.996518 225.453591 
L 267.123399 226.416084 
L 267.250281 226.38906 
L 267.504044 227.805982 
L 267.630926 226.362451 
L 267.757808 228.027169 
L 267.884689 226.418163 
L 268.011571 228.062509 
L 268.138452 227.222666 
L 268.265334 227.991413 
L 268.392216 227.977277 
L 268.519097 229.536391 
L 268.645979 226.206124 
L 268.772861 227.717425 
L 269.026624 226.870514 
L 269.153505 226.670532 
L 269.280387 226.686331 
L 269.407269 226.816465 
L 269.661032 227.682501 
L 269.787914 227.348227 
L 269.914795 228.097849 
L 270.29544 227.202293 
L 270.422322 227.844233 
L 270.549203 226.866356 
L 270.676085 229.367591 
L 270.802967 227.213103 
L 270.929848 228.316124 
L 271.05673 227.359868 
L 271.183611 228.033405 
L 271.310493 226.415669 
L 271.437375 227.248027 
L 271.564256 227.035572 
L 271.691138 228.829593 
L 271.81802 227.013953 
L 271.944901 227.296256 
L 272.071783 227.25468 
L 272.198664 226.939531 
L 272.325546 227.565255 
L 272.452428 226.702961 
L 272.579309 228.197632 
L 272.706191 227.570244 
L 272.833073 227.915328 
L 272.959954 225.872681 
L 273.086836 225.743379 
L 273.213717 227.698715 
L 273.340599 225.592872 
L 273.467481 228.07415 
L 273.848125 226.950756 
L 273.975007 226.582806 
L 274.101889 227.059687 
L 274.22877 226.101351 
L 274.355652 228.08787 
L 274.482534 227.048877 
L 274.736297 228.500308 
L 274.863178 227.054697 
L 274.99006 228.230477 
L 275.116942 227.248859 
L 275.243823 228.044215 
L 275.370705 228.051699 
L 275.497587 228.450832 
L 275.624468 226.852636 
L 275.75135 228.891126 
L 276.131995 226.263915 
L 276.258876 227.452583 
L 276.385758 226.724165 
L 276.766403 228.331092 
L 277.020166 226.539982 
L 277.273929 227.472124 
L 277.400811 226.221507 
L 277.527693 227.31746 
L 277.654574 226.640181 
L 277.781456 227.810556 
L 277.908337 226.257263 
L 278.162101 227.561929 
L 278.288982 227.463809 
L 278.415864 228.186406 
L 278.542746 225.559611 
L 278.669627 227.611405 
L 278.796509 227.170695 
L 278.92339 226.270567 
L 279.050272 226.494248 
L 279.177154 227.748191 
L 279.304035 226.833095 
L 279.68468 228.339823 
L 279.811562 228.320282 
L 279.938443 228.107411 
L 280.065325 226.238969 
L 280.192207 227.625957 
L 280.319088 225.766246 
L 280.44597 225.843993 
L 280.699733 227.27921 
L 280.826615 227.672938 
L 280.953496 226.652654 
L 281.080378 228.995898 
L 281.20726 227.203541 
L 281.334141 227.05636 
L 281.461023 227.186079 
L 281.587904 227.123298 
L 281.714786 226.790272 
L 281.841668 228.342733 
L 281.968549 226.882987 
L 282.222313 228.50405 
L 282.349194 227.983513 
L 282.476076 228.729394 
L 282.729839 227.586875 
L 282.856721 228.900272 
L 282.983602 227.849638 
L 283.110484 229.012113 
L 283.364247 226.677184 
L 283.491129 227.495823 
L 283.61801 227.343237 
L 283.744892 228.008044 
L 283.871774 227.741123 
L 283.998655 229.069073 
L 284.3793 225.83942 
L 284.759945 228.654556 
L 284.886827 228.224241 
L 285.013708 228.484925 
L 285.14059 226.600268 
L 285.267472 226.459324 
L 285.394353 228.003886 
L 285.521235 227.127872 
L 285.648116 227.993492 
L 285.774998 228.084128 
L 285.90188 227.162796 
L 286.028761 227.485013 
L 286.155643 227.394792 
L 286.282525 228.348138 
L 286.536288 227.064676 
L 286.790051 228.862022 
L 287.043814 226.886729 
L 287.170696 228.512365 
L 287.424459 226.995243 
L 287.551341 227.079643 
L 287.678222 228.301157 
L 287.805104 228.154392 
L 287.931986 227.060934 
L 288.185749 227.440942 
L 288.439512 227.162796 
L 288.566394 228.726483 
L 288.693275 228.900272 
L 288.820157 227.737797 
L 288.947039 227.774384 
L 289.07392 228.614227 
L 289.200802 226.289692 
L 289.454565 227.884977 
L 289.581447 226.621472 
L 289.708328 228.037563 
L 289.83521 227.560682 
L 289.962092 227.990166 
L 290.088973 227.585628 
L 290.342736 228.737293 
L 290.469618 227.505385 
L 290.5965 227.572323 
L 290.723381 227.987255 
L 290.850263 226.829353 
L 290.977145 227.552782 
L 291.104026 229.330172 
L 291.230908 225.97288 
L 291.357789 228.067082 
L 291.611553 227.03682 
L 291.738434 227.523679 
L 291.865316 227.104589 
L 291.992198 229.389626 
L 292.119079 227.565671 
L 292.245961 227.364441 
L 292.372842 227.558187 
L 292.499724 228.642915 
L 292.626606 227.030583 
L 292.753487 227.548625 
L 293.007251 226.406106 
L 293.134132 226.509631 
L 293.261014 228.020516 
L 293.387895 227.873336 
L 293.514777 228.255007 
L 293.641659 226.819791 
L 293.76854 229.274044 
L 293.895422 227.301661 
L 294.022303 228.155224 
L 294.276067 226.529588 
L 294.402948 227.766069 
L 294.52983 227.708278 
L 294.656712 228.581797 
L 294.783593 227.732808 
L 294.910475 228.023427 
L 295.037356 226.105925 
L 295.29112 227.977277 
L 295.544883 226.319211 
L 295.671765 227.998897 
L 295.798646 226.74329 
L 295.925528 226.690073 
L 296.052409 228.778454 
L 296.179291 228.508207 
L 296.306173 227.124961 
L 296.559936 228.188485 
L 296.686818 227.178179 
L 296.813699 228.651646 
L 296.940581 227.198552 
L 297.067462 228.104501 
L 297.194344 228.125289 
L 297.321226 227.418906 
L 297.448107 227.815545 
L 297.701871 226.784451 
L 297.955634 228.636678 
L 298.082515 228.127784 
L 298.209397 228.794669 
L 298.590042 226.656811 
L 298.843805 228.24586 
L 298.970687 227.18691 
L 299.097568 227.909923 
L 299.22445 227.135356 
L 299.351332 228.691559 
L 299.605095 227.661297 
L 299.731976 230.332579 
L 299.98574 228.0359 
L 300.112621 228.335665 
L 300.239503 228.959311 
L 300.493266 226.88465 
L 300.620148 227.876662 
L 300.747029 227.322449 
L 300.873911 228.807973 
L 301.000793 227.9436 
L 301.127674 228.561009 
L 301.254556 226.218181 
L 301.508319 228.157718 
L 302.015846 226.620224 
L 302.142727 226.839748 
L 302.269609 228.067082 
L 302.396491 227.899945 
L 302.523372 228.104501 
L 302.777135 227.73946 
L 302.904017 228.050036 
L 303.030899 227.044719 
L 303.411544 229.331004 
L 303.538425 227.898282 
L 303.665307 228.710268 
L 303.792188 227.874168 
L 303.91907 229.226647 
L 304.045952 228.412166 
L 304.172833 225.890143 
L 304.299715 226.083058 
L 304.426597 228.799242 
L 304.553478 227.063844 
L 304.807241 228.706942 
L 304.934123 228.501971 
L 305.061005 226.95533 
L 305.187886 227.697468 
L 305.314768 226.351225 
L 305.44165 228.057935 
L 305.568531 227.86211 
L 305.695413 226.419826 
L 305.822294 228.516523 
L 305.949176 227.605584 
L 306.076058 228.277043 
L 306.202939 227.355295 
L 306.329821 228.277043 
L 306.456702 227.003974 
L 306.710466 228.793421 
L 306.837347 228.029663 
L 307.091111 228.378073 
L 307.217992 228.287437 
L 307.344874 227.724077 
L 307.471755 228.383062 
L 307.725519 227.76108 
L 307.8524 228.025506 
L 307.979282 228.81712 
L 308.106164 227.425974 
L 308.233045 229.505624 
L 308.486808 226.956993 
L 308.740572 228.194721 
L 308.994335 229.028743 
L 309.121217 227.527421 
L 309.37498 228.299078 
L 309.501861 227.437616 
L 309.755625 228.68948 
L 309.882506 227.749023 
L 310.009388 227.822613 
L 310.13627 226.56368 
L 310.263151 227.581054 
L 310.516914 227.177763 
L 310.897559 229.103997 
L 311.151323 227.93279 
L 311.278204 228.470373 
L 311.405086 228.230061 
L 311.531967 225.745457 
L 311.658849 228.416739 
L 311.785731 228.459147 
L 311.912612 227.39895 
L 312.039494 228.667861 
L 312.54702 227.32536 
L 312.673902 226.527093 
L 312.927665 227.958152 
L 313.054547 226.010715 
L 313.30831 228.60217 
L 313.435192 227.255511 
L 313.562073 228.233803 
L 313.688955 227.645498 
L 313.815837 227.878325 
L 313.942718 228.837076 
L 314.196481 226.608167 
L 314.323363 228.094522 
L 314.450245 227.636767 
L 314.83089 228.533569 
L 315.084653 227.565671 
L 315.211534 229.588777 
L 315.338416 228.099512 
L 315.465298 229.154304 
L 315.592179 226.699219 
L 315.719061 228.545626 
L 315.972824 226.807318 
L 316.099706 228.862022 
L 316.226587 229.074893 
L 316.353469 227.565671 
L 316.480351 228.479104 
L 316.607232 227.283367 
L 316.734114 227.408097 
L 316.860996 227.970209 
L 316.987877 229.508951 
L 317.114759 227.15947 
L 317.368522 229.420393 
L 317.495404 229.088198 
L 317.622285 228.199711 
L 317.749167 228.659961 
L 317.876049 227.768979 
L 318.129812 228.49324 
L 318.256693 228.298662 
L 318.383575 227.530747 
L 318.637338 228.945591 
L 318.76422 228.511533 
L 318.891102 229.947997 
L 319.144865 227.299998 
L 319.271746 228.852044 
L 319.398628 228.99673 
L 319.52551 227.28212 
L 319.779273 228.779701 
L 320.033036 227.79642 
L 320.159918 228.516107 
L 320.413681 227.096689 
L 320.540563 228.704032 
L 320.667444 227.001895 
L 320.794326 227.151155 
L 320.921207 228.769723 
L 321.048089 227.123298 
L 321.301852 227.2684 
L 321.428734 227.967299 
L 321.555616 227.992245 
L 321.682497 227.831344 
L 321.93626 229.089029 
L 322.063142 227.504138 
L 322.316905 229.460722 
L 322.443787 229.420809 
L 322.570669 227.768148 
L 322.824432 229.269886 
L 322.824432 229.269886 
" clip-path="url(#p77fc290a2f)" style="fill: none; stroke: #0000ff; stroke-width: 0.6; stroke-linecap: square"/>
   </g>
   <g id="line2d_32">
    <path d="M 69.188068 103.150457 
L 69.695595 139.766768 
L 70.203121 163.150567 
L 70.837529 181.893195 
L 71.598819 196.727645 
L 72.360109 206.524701 
L 73.121398 212.94825 
L 74.00957 218.208493 
L 75.024623 222.048486 
L 75.912794 224.365953 
L 76.927847 226.302997 
L 77.689137 227.338248 
L 78.70419 228.373084 
L 79.338598 228.812131 
L 80.353651 229.409167 
L 82.129994 230.065242 
L 84.033218 230.432362 
L 86.190206 230.552102 
L 90.631062 230.461465 
L 102.557935 229.766724 
L 105.349331 229.627443 
L 106.87191 229.576304 
L 111.693412 229.367175 
L 113.723518 229.311879 
L 118.925664 229.193802 
L 120.19448 229.155136 
L 124.635337 229.073646 
L 132.375116 229.030822 
L 133.517051 229.009203 
L 146.839621 228.943096 
L 156.863269 229.069488 
L 158.005204 229.036227 
L 161.304126 229.058263 
L 162.953587 229.0566 
L 166.125628 229.103581 
L 167.013799 229.083209 
L 168.282615 229.067825 
L 170.94713 229.076141 
L 173.484762 229.092771 
L 174.88046 229.103581 
L 180.843896 229.132269 
L 188.329912 229.192554 
L 192.390124 229.193802 
L 194.039585 229.200454 
L 199.241731 229.210848 
L 202.794417 229.219995 
L 204.951404 229.224568 
L 206.347102 229.222074 
L 210.026669 229.225815 
L 211.929894 229.200454 
L 215.101934 229.183408 
L 217.385803 229.171766 
L 218.400856 229.187565 
L 226.52128 229.205027 
L 227.663215 229.233299 
L 231.97719 229.26365 
L 264.458885 229.476937 
L 267.250281 229.457396 
L 302.396491 229.697292 
L 304.299715 229.701865 
L 307.091111 229.738868 
L 312.54702 229.773376 
L 314.83089 229.75342 
L 319.779273 229.814953 
L 321.174971 229.818695 
L 322.824432 229.827426 
L 322.824432 229.827426 
" clip-path="url(#p77fc290a2f)" style="fill: none; stroke: #ff0000; stroke-width: 0.6; stroke-linecap: square"/>
   </g>
   <g id="patch_3">
    <path d="M 56.50625 239.76 
L 56.50625 37.296 
" style="fill: none; stroke: #000000; stroke-width: 0.8; stroke-linejoin: miter; stroke-linecap: square"/>
   </g>
   <g id="patch_4">
    <path d="M 335.50625 239.76 
L 335.50625 37.296 
" style="fill: none; stroke: #000000; stroke-width: 0.8; stroke-linejoin: miter; stroke-linecap: square"/>
   </g>
   <g id="patch_5">
    <path d="M 56.50625 239.76 
L 335.50625 239.76 
" style="fill: none; stroke: #000000; stroke-width: 0.8; stroke-linejoin: miter; stroke-linecap: square"/>
   </g>
   <g id="patch_6">
    <path d="M 56.50625 37.296 
L 335.50625 37.296 
" style="fill: none; stroke: #000000; stroke-width: 0.8; stroke-linejoin: miter; stroke-linecap: square"/>
   </g>
   <g id="text_18">
    <!-- Constrained Model - Learning Rate = 1e-05 -->
    <g transform="translate(98.492656 31.296) scale(0.09 -0.09)">
     <defs>
      <path id="DejaVuSans-43" d="M 4122 4306 
L 4122 3641 
Q 3803 3938 3442 4084 
Q 3081 4231 2675 4231 
Q 1875 4231 1450 3742 
Q 1025 3253 1025 2328 
Q 1025 1406 1450 917 
Q 1875 428 2675 428 
Q 3081 428 3442 575 
Q 3803 722 4122 1019 
L 4122 359 
Q 3791 134 3420 21 
Q 3050 -91 2638 -91 
Q 1578 -91 968 557 
Q 359 1206 359 2328 
Q 359 3453 968 4101 
Q 1578 4750 2638 4750 
Q 3056 4750 3426 4639 
Q 3797 4528 4122 4306 
z
" transform="scale(0.015625)"/>
      <path id="DejaVuSans-6e" d="M 3513 2113 
L 3513 0 
L 2938 0 
L 2938 2094 
Q 2938 2591 2744 2837 
Q 2550 3084 2163 3084 
Q 1697 3084 1428 2787 
Q 1159 2491 1159 1978 
L 1159 0 
L 581 0 
L 581 3500 
L 1159 3500 
L 1159 2956 
Q 1366 3272 1645 3428 
Q 1925 3584 2291 3584 
Q 2894 3584 3203 3211 
Q 3513 2838 3513 2113 
z
" transform="scale(0.015625)"/>
      <path id="DejaVuSans-74" d="M 1172 4494 
L 1172 3500 
L 2356 3500 
L 2356 3053 
L 1172 3053 
L 1172 1153 
Q 1172 725 1289 603 
Q 1406 481 1766 481 
L 2356 481 
L 2356 0 
L 1766 0 
Q 1100 0 847 248 
Q 594 497 594 1153 
L 594 3053 
L 172 3053 
L 172 3500 
L 594 3500 
L 594 4494 
L 1172 4494 
z
" transform="scale(0.015625)"/>
      <path id="DejaVuSans-72" d="M 2631 2963 
Q 2534 3019 2420 3045 
Q 2306 3072 2169 3072 
Q 1681 3072 1420 2755 
Q 1159 2438 1159 1844 
L 1159 0 
L 581 0 
L 581 3500 
L 1159 3500 
L 1159 2956 
Q 1341 3275 1631 3429 
Q 1922 3584 2338 3584 
Q 2397 3584 2469 3576 
Q 2541 3569 2628 3553 
L 2631 2963 
z
" transform="scale(0.015625)"/>
      <path id="DejaVuSans-61" d="M 2194 1759 
Q 1497 1759 1228 1600 
Q 959 1441 959 1056 
Q 959 750 1161 570 
Q 1363 391 1709 391 
Q 2188 391 2477 730 
Q 2766 1069 2766 1631 
L 2766 1759 
L 2194 1759 
z
M 3341 1997 
L 3341 0 
L 2766 0 
L 2766 531 
Q 2569 213 2275 61 
Q 1981 -91 1556 -91 
Q 1019 -91 701 211 
Q 384 513 384 1019 
Q 384 1609 779 1909 
Q 1175 2209 1959 2209 
L 2766 2209 
L 2766 2266 
Q 2766 2663 2505 2880 
Q 2244 3097 1772 3097 
Q 1472 3097 1187 3025 
Q 903 2953 641 2809 
L 641 3341 
Q 956 3463 1253 3523 
Q 1550 3584 1831 3584 
Q 2591 3584 2966 3190 
Q 3341 2797 3341 1997 
z
" transform="scale(0.015625)"/>
      <path id="DejaVuSans-69" d="M 603 3500 
L 1178 3500 
L 1178 0 
L 603 0 
L 603 3500 
z
M 603 4863 
L 1178 4863 
L 1178 4134 
L 603 4134 
L 603 4863 
z
" transform="scale(0.015625)"/>
      <path id="DejaVuSans-65" d="M 3597 1894 
L 3597 1613 
L 953 1613 
Q 991 1019 1311 708 
Q 1631 397 2203 397 
Q 2534 397 2845 478 
Q 3156 559 3463 722 
L 3463 178 
Q 3153 47 2828 -22 
Q 2503 -91 2169 -91 
Q 1331 -91 842 396 
Q 353 884 353 1716 
Q 353 2575 817 3079 
Q 1281 3584 2069 3584 
Q 2775 3584 3186 3129 
Q 3597 2675 3597 1894 
z
M 3022 2063 
Q 3016 2534 2758 2815 
Q 2500 3097 2075 3097 
Q 1594 3097 1305 2825 
Q 1016 2553 972 2059 
L 3022 2063 
z
" transform="scale(0.015625)"/>
      <path id="DejaVuSans-64" d="M 2906 2969 
L 2906 4863 
L 3481 4863 
L 3481 0 
L 2906 0 
L 2906 525 
Q 2725 213 2448 61 
Q 2172 -91 1784 -91 
Q 1150 -91 751 415 
Q 353 922 353 1747 
Q 353 2572 751 3078 
Q 1150 3584 1784 3584 
Q 2172 3584 2448 3432 
Q 2725 3281 2906 2969 
z
M 947 1747 
Q 947 1113 1208 752 
Q 1469 391 1925 391 
Q 2381 391 2643 752 
Q 2906 1113 2906 1747 
Q 2906 2381 2643 2742 
Q 2381 3103 1925 3103 
Q 1469 3103 1208 2742 
Q 947 2381 947 1747 
z
" transform="scale(0.015625)"/>
      <path id="DejaVuSans-20" transform="scale(0.015625)"/>
      <path id="DejaVuSans-4d" d="M 628 4666 
L 1569 4666 
L 2759 1491 
L 3956 4666 
L 4897 4666 
L 4897 0 
L 4281 0 
L 4281 4097 
L 3078 897 
L 2444 897 
L 1241 4097 
L 1241 0 
L 628 0 
L 628 4666 
z
" transform="scale(0.015625)"/>
      <path id="DejaVuSans-6c" d="M 603 4863 
L 1178 4863 
L 1178 0 
L 603 0 
L 603 4863 
z
" transform="scale(0.015625)"/>
      <path id="DejaVuSans-2d" d="M 313 2009 
L 1997 2009 
L 1997 1497 
L 313 1497 
L 313 2009 
z
" transform="scale(0.015625)"/>
      <path id="DejaVuSans-67" d="M 2906 1791 
Q 2906 2416 2648 2759 
Q 2391 3103 1925 3103 
Q 1463 3103 1205 2759 
Q 947 2416 947 1791 
Q 947 1169 1205 825 
Q 1463 481 1925 481 
Q 2391 481 2648 825 
Q 2906 1169 2906 1791 
z
M 3481 434 
Q 3481 -459 3084 -895 
Q 2688 -1331 1869 -1331 
Q 1566 -1331 1297 -1286 
Q 1028 -1241 775 -1147 
L 775 -588 
Q 1028 -725 1275 -790 
Q 1522 -856 1778 -856 
Q 2344 -856 2625 -561 
Q 2906 -266 2906 331 
L 2906 616 
Q 2728 306 2450 153 
Q 2172 0 1784 0 
Q 1141 0 747 490 
Q 353 981 353 1791 
Q 353 2603 747 3093 
Q 1141 3584 1784 3584 
Q 2172 3584 2450 3431 
Q 2728 3278 2906 2969 
L 2906 3500 
L 3481 3500 
L 3481 434 
z
" transform="scale(0.015625)"/>
      <path id="DejaVuSans-52" d="M 2841 2188 
Q 3044 2119 3236 1894 
Q 3428 1669 3622 1275 
L 4263 0 
L 3584 0 
L 2988 1197 
Q 2756 1666 2539 1819 
Q 2322 1972 1947 1972 
L 1259 1972 
L 1259 0 
L 628 0 
L 628 4666 
L 2053 4666 
Q 2853 4666 3247 4331 
Q 3641 3997 3641 3322 
Q 3641 2881 3436 2590 
Q 3231 2300 2841 2188 
z
M 1259 4147 
L 1259 2491 
L 2053 2491 
Q 2509 2491 2742 2702 
Q 2975 2913 2975 3322 
Q 2975 3731 2742 3939 
Q 2509 4147 2053 4147 
L 1259 4147 
z
" transform="scale(0.015625)"/>
      <path id="DejaVuSans-3d" d="M 678 2906 
L 4684 2906 
L 4684 2381 
L 678 2381 
L 678 2906 
z
M 678 1631 
L 4684 1631 
L 4684 1100 
L 678 1100 
L 678 1631 
z
" transform="scale(0.015625)"/>
     </defs>
     <use xlink:href="#DejaVuSans-43"/>
     <use xlink:href="#DejaVuSans-6f" x="69.824219"/>
     <use xlink:href="#DejaVuSans-6e" x="131.005859"/>
     <use xlink:href="#DejaVuSans-73" x="194.384766"/>
     <use xlink:href="#DejaVuSans-74" x="246.484375"/>
     <use xlink:href="#DejaVuSans-72" x="285.693359"/>
     <use xlink:href="#DejaVuSans-61" x="326.806641"/>
     <use xlink:href="#DejaVuSans-69" x="388.085938"/>
     <use xlink:href="#DejaVuSans-6e" x="415.869141"/>
     <use xlink:href="#DejaVuSans-65" x="479.248047"/>
     <use xlink:href="#DejaVuSans-64" x="540.771484"/>
     <use xlink:href="#DejaVuSans-20" x="604.248047"/>
     <use xlink:href="#DejaVuSans-4d" x="636.035156"/>
     <use xlink:href="#DejaVuSans-6f" x="722.314453"/>
     <use xlink:href="#DejaVuSans-64" x="783.496094"/>
     <use xlink:href="#DejaVuSans-65" x="846.972656"/>
     <use xlink:href="#DejaVuSans-6c" x="908.496094"/>
     <use xlink:href="#DejaVuSans-20" x="936.279297"/>
     <use xlink:href="#DejaVuSans-2d" x="968.066406"/>
     <use xlink:href="#DejaVuSans-20" x="1004.150391"/>
     <use xlink:href="#DejaVuSans-4c" x="1035.9375"/>
     <use xlink:href="#DejaVuSans-65" x="1089.900391"/>
     <use xlink:href="#DejaVuSans-61" x="1151.423828"/>
     <use xlink:href="#DejaVuSans-72" x="1212.703125"/>
     <use xlink:href="#DejaVuSans-6e" x="1252.066406"/>
     <use xlink:href="#DejaVuSans-69" x="1315.445312"/>
     <use xlink:href="#DejaVuSans-6e" x="1343.228516"/>
     <use xlink:href="#DejaVuSans-67" x="1406.607422"/>
     <use xlink:href="#DejaVuSans-20" x="1470.083984"/>
     <use xlink:href="#DejaVuSans-52" x="1501.871094"/>
     <use xlink:href="#DejaVuSans-61" x="1569.103516"/>
     <use xlink:href="#DejaVuSans-74" x="1630.382812"/>
     <use xlink:href="#DejaVuSans-65" x="1669.591797"/>
     <use xlink:href="#DejaVuSans-20" x="1731.115234"/>
     <use xlink:href="#DejaVuSans-3d" x="1762.902344"/>
     <use xlink:href="#DejaVuSans-20" x="1846.691406"/>
     <use xlink:href="#DejaVuSans-31" x="1878.478516"/>
     <use xlink:href="#DejaVuSans-65" x="1942.101562"/>
     <use xlink:href="#DejaVuSans-2d" x="2003.625"/>
     <use xlink:href="#DejaVuSans-30" x="2039.708984"/>
     <use xlink:href="#DejaVuSans-35" x="2103.332031"/>
    </g>
   </g>
   <g id="legend_1">
    <g id="patch_7">
     <path d="M 222.0125 74.65225 
L 328.50625 74.65225 
Q 330.50625 74.65225 330.50625 72.65225 
L 330.50625 44.296 
Q 330.50625 42.296 328.50625 42.296 
L 222.0125 42.296 
Q 220.0125 42.296 220.0125 44.296 
L 220.0125 72.65225 
Q 220.0125 74.65225 222.0125 74.65225 
z
" style="fill: #ffffff; opacity: 0.8; stroke: #cccccc; stroke-linejoin: miter"/>
    </g>
    <g id="line2d_33">
     <path d="M 224.0125 50.394438 
L 234.0125 50.394438 
L 244.0125 50.394438 
" style="fill: none; stroke: #0000ff; stroke-width: 0.6; stroke-linecap: square"/>
    </g>
    <g id="text_19">
     <!-- Training Loss -->
     <g transform="translate(252.0125 53.894438) scale(0.1 -0.1)">
      <defs>
       <path id="DejaVuSans-54" d="M -19 4666 
L 3928 4666 
L 3928 4134 
L 2272 4134 
L 2272 0 
L 1638 0 
L 1638 4134 
L -19 4134 
L -19 4666 
z
" transform="scale(0.015625)"/>
      </defs>
      <use xlink:href="#DejaVuSans-54"/>
      <use xlink:href="#DejaVuSans-72" x="46.333984"/>
      <use xlink:href="#DejaVuSans-61" x="87.447266"/>
      <use xlink:href="#DejaVuSans-69" x="148.726562"/>
      <use xlink:href="#DejaVuSans-6e" x="176.509766"/>
      <use xlink:href="#DejaVuSans-69" x="239.888672"/>
      <use xlink:href="#DejaVuSans-6e" x="267.671875"/>
      <use xlink:href="#DejaVuSans-67" x="331.050781"/>
      <use xlink:href="#DejaVuSans-20" x="394.527344"/>
      <use xlink:href="#DejaVuSans-4c" x="426.314453"/>
      <use xlink:href="#DejaVuSans-6f" x="480.277344"/>
      <use xlink:href="#DejaVuSans-73" x="541.458984"/>
      <use xlink:href="#DejaVuSans-73" x="593.558594"/>
     </g>
    </g>
    <g id="line2d_34">
     <path d="M 224.0125 65.072563 
L 234.0125 65.072563 
L 244.0125 65.072563 
" style="fill: none; stroke: #ff0000; stroke-width: 0.6; stroke-linecap: square"/>
    </g>
    <g id="text_20">
     <!-- Validation Loss -->
     <g transform="translate(252.0125 68.572563) scale(0.1 -0.1)">
      <defs>
       <path id="DejaVuSans-56" d="M 1831 0 
L 50 4666 
L 709 4666 
L 2188 738 
L 3669 4666 
L 4325 4666 
L 2547 0 
L 1831 0 
z
" transform="scale(0.015625)"/>
      </defs>
      <use xlink:href="#DejaVuSans-56"/>
      <use xlink:href="#DejaVuSans-61" x="60.658203"/>
      <use xlink:href="#DejaVuSans-6c" x="121.9375"/>
      <use xlink:href="#DejaVuSans-69" x="149.720703"/>
      <use xlink:href="#DejaVuSans-64" x="177.503906"/>
      <use xlink:href="#DejaVuSans-61" x="240.980469"/>
      <use xlink:href="#DejaVuSans-74" x="302.259766"/>
      <use xlink:href="#DejaVuSans-69" x="341.46875"/>
      <use xlink:href="#DejaVuSans-6f" x="369.251953"/>
      <use xlink:href="#DejaVuSans-6e" x="430.433594"/>
      <use xlink:href="#DejaVuSans-20" x="493.8125"/>
      <use xlink:href="#DejaVuSans-4c" x="525.599609"/>
      <use xlink:href="#DejaVuSans-6f" x="579.5625"/>
      <use xlink:href="#DejaVuSans-73" x="640.744141"/>
      <use xlink:href="#DejaVuSans-73" x="692.84375"/>
     </g>
    </g>
   </g>
  </g>
  <g id="text_21">
   <!-- Training VS. Validation Loss - Dataset Size = 100.0% -->
   <g transform="translate(47.206016 15.558281) scale(0.11 -0.11)">
    <defs>
     <path id="DejaVuSans-53" d="M 3425 4513 
L 3425 3897 
Q 3066 4069 2747 4153 
Q 2428 4238 2131 4238 
Q 1616 4238 1336 4038 
Q 1056 3838 1056 3469 
Q 1056 3159 1242 3001 
Q 1428 2844 1947 2747 
L 2328 2669 
Q 3034 2534 3370 2195 
Q 3706 1856 3706 1288 
Q 3706 609 3251 259 
Q 2797 -91 1919 -91 
Q 1588 -91 1214 -16 
Q 841 59 441 206 
L 441 856 
Q 825 641 1194 531 
Q 1563 422 1919 422 
Q 2459 422 2753 634 
Q 3047 847 3047 1241 
Q 3047 1584 2836 1778 
Q 2625 1972 2144 2069 
L 1759 2144 
Q 1053 2284 737 2584 
Q 422 2884 422 3419 
Q 422 4038 858 4394 
Q 1294 4750 2059 4750 
Q 2388 4750 2728 4690 
Q 3069 4631 3425 4513 
z
" transform="scale(0.015625)"/>
     <path id="DejaVuSans-44" d="M 1259 4147 
L 1259 519 
L 2022 519 
Q 2988 519 3436 956 
Q 3884 1394 3884 2338 
Q 3884 3275 3436 3711 
Q 2988 4147 2022 4147 
L 1259 4147 
z
M 628 4666 
L 1925 4666 
Q 3281 4666 3915 4102 
Q 4550 3538 4550 2338 
Q 4550 1131 3912 565 
Q 3275 0 1925 0 
L 628 0 
L 628 4666 
z
" transform="scale(0.015625)"/>
     <path id="DejaVuSans-7a" d="M 353 3500 
L 3084 3500 
L 3084 2975 
L 922 459 
L 3084 459 
L 3084 0 
L 275 0 
L 275 525 
L 2438 3041 
L 353 3041 
L 353 3500 
z
" transform="scale(0.015625)"/>
     <path id="DejaVuSans-25" d="M 4653 2053 
Q 4381 2053 4226 1822 
Q 4072 1591 4072 1178 
Q 4072 772 4226 539 
Q 4381 306 4653 306 
Q 4919 306 5073 539 
Q 5228 772 5228 1178 
Q 5228 1588 5073 1820 
Q 4919 2053 4653 2053 
z
M 4653 2450 
Q 5147 2450 5437 2106 
Q 5728 1763 5728 1178 
Q 5728 594 5436 251 
Q 5144 -91 4653 -91 
Q 4153 -91 3862 251 
Q 3572 594 3572 1178 
Q 3572 1766 3864 2108 
Q 4156 2450 4653 2450 
z
M 1428 4353 
Q 1159 4353 1004 4120 
Q 850 3888 850 3481 
Q 850 3069 1003 2837 
Q 1156 2606 1428 2606 
Q 1700 2606 1854 2837 
Q 2009 3069 2009 3481 
Q 2009 3884 1853 4118 
Q 1697 4353 1428 4353 
z
M 4250 4750 
L 4750 4750 
L 1831 -91 
L 1331 -91 
L 4250 4750 
z
M 1428 4750 
Q 1922 4750 2215 4408 
Q 2509 4066 2509 3481 
Q 2509 2891 2217 2550 
Q 1925 2209 1428 2209 
Q 931 2209 642 2551 
Q 353 2894 353 3481 
Q 353 4063 643 4406 
Q 934 4750 1428 4750 
z
" transform="scale(0.015625)"/>
    </defs>
    <use xlink:href="#DejaVuSans-54"/>
    <use xlink:href="#DejaVuSans-72" x="46.333984"/>
    <use xlink:href="#DejaVuSans-61" x="87.447266"/>
    <use xlink:href="#DejaVuSans-69" x="148.726562"/>
    <use xlink:href="#DejaVuSans-6e" x="176.509766"/>
    <use xlink:href="#DejaVuSans-69" x="239.888672"/>
    <use xlink:href="#DejaVuSans-6e" x="267.671875"/>
    <use xlink:href="#DejaVuSans-67" x="331.050781"/>
    <use xlink:href="#DejaVuSans-20" x="394.527344"/>
    <use xlink:href="#DejaVuSans-56" x="426.314453"/>
    <use xlink:href="#DejaVuSans-53" x="494.722656"/>
    <use xlink:href="#DejaVuSans-2e" x="558.199219"/>
    <use xlink:href="#DejaVuSans-20" x="589.986328"/>
    <use xlink:href="#DejaVuSans-56" x="621.773438"/>
    <use xlink:href="#DejaVuSans-61" x="682.431641"/>
    <use xlink:href="#DejaVuSans-6c" x="743.710938"/>
    <use xlink:href="#DejaVuSans-69" x="771.494141"/>
    <use xlink:href="#DejaVuSans-64" x="799.277344"/>
    <use xlink:href="#DejaVuSans-61" x="862.753906"/>
    <use xlink:href="#DejaVuSans-74" x="924.033203"/>
    <use xlink:href="#DejaVuSans-69" x="963.242188"/>
    <use xlink:href="#DejaVuSans-6f" x="991.025391"/>
    <use xlink:href="#DejaVuSans-6e" x="1052.207031"/>
    <use xlink:href="#DejaVuSans-20" x="1115.585938"/>
    <use xlink:href="#DejaVuSans-4c" x="1147.373047"/>
    <use xlink:href="#DejaVuSans-6f" x="1201.335938"/>
    <use xlink:href="#DejaVuSans-73" x="1262.517578"/>
    <use xlink:href="#DejaVuSans-73" x="1314.617188"/>
    <use xlink:href="#DejaVuSans-20" x="1366.716797"/>
    <use xlink:href="#DejaVuSans-2d" x="1398.503906"/>
    <use xlink:href="#DejaVuSans-20" x="1434.587891"/>
    <use xlink:href="#DejaVuSans-44" x="1466.375"/>
    <use xlink:href="#DejaVuSans-61" x="1543.376953"/>
    <use xlink:href="#DejaVuSans-74" x="1604.65625"/>
    <use xlink:href="#DejaVuSans-61" x="1643.865234"/>
    <use xlink:href="#DejaVuSans-73" x="1705.144531"/>
    <use xlink:href="#DejaVuSans-65" x="1757.244141"/>
    <use xlink:href="#DejaVuSans-74" x="1818.767578"/>
    <use xlink:href="#DejaVuSans-20" x="1857.976562"/>
    <use xlink:href="#DejaVuSans-53" x="1889.763672"/>
    <use xlink:href="#DejaVuSans-69" x="1953.240234"/>
    <use xlink:href="#DejaVuSans-7a" x="1981.023438"/>
    <use xlink:href="#DejaVuSans-65" x="2033.513672"/>
    <use xlink:href="#DejaVuSans-20" x="2095.037109"/>
    <use xlink:href="#DejaVuSans-3d" x="2126.824219"/>
    <use xlink:href="#DejaVuSans-20" x="2210.613281"/>
    <use xlink:href="#DejaVuSans-31" x="2242.400391"/>
    <use xlink:href="#DejaVuSans-30" x="2306.023438"/>
    <use xlink:href="#DejaVuSans-30" x="2369.646484"/>
    <use xlink:href="#DejaVuSans-2e" x="2433.269531"/>
    <use xlink:href="#DejaVuSans-30" x="2465.056641"/>
    <use xlink:href="#DejaVuSans-25" x="2528.679688"/>
   </g>
  </g>
 </g>
 <defs>
  <clipPath id="p77fc290a2f">
   <rect x="56.50625" y="37.296" width="279" height="202.464"/>
  </clipPath>
 </defs>
</svg>
