<?xml version="1.0" encoding="utf-8" standalone="no"?>
<!DOCTYPE svg PUBLIC "-//W3C//DTD SVG 1.1//EN"
  "http://www.w3.org/Graphics/SVG/1.1/DTD/svg11.dtd">
<svg xmlns:xlink="http://www.w3.org/1999/xlink" width="349.691016pt" height="277.31625pt" viewBox="0 0 349.691016 277.31625" xmlns="http://www.w3.org/2000/svg" version="1.1">
 <metadata>
  <rdf:RDF xmlns:dc="http://purl.org/dc/elements/1.1/" xmlns:cc="http://creativecommons.org/ns#" xmlns:rdf="http://www.w3.org/1999/02/22-rdf-syntax-ns#">
   <cc:Work>
    <dc:type rdf:resource="http://purl.org/dc/dcmitype/StillImage"/>
    <dc:date>2026-06-11T18:08:44.747501</dc:date>
    <dc:format>image/svg+xml</dc:format>
    <dc:creator>
     <cc:Agent>
      <dc:title>Matplotlib v3.8.4, https://matplotlib.org/</dc:title>
     </cc:Agent>
    </dc:creator>
   </cc:Work>
  </rdf:RDF>
 </metadata>
 <defs>
  <style type="text/css">*{stroke-linejoin: round; stroke-linecap: butt}</style>
 </defs>
 <g id="figure_1">
  <g id="patch_1">
   <path d="M 0 277.31625 
L 349.691016 277.31625 
L 349.691016 0 
L 0 0 
z
" style="fill: #ffffff"/>
  </g>
  <g id="axes_1">
   <g id="patch_2">
    <path d="M 50.14375 239.76 
L 329.14375 239.76 
L 329.14375 37.296 
L 50.14375 37.296 
z
" style="fill: #ffffff"/>
   </g>
   <g id="matplotlib.axis_1">
    <g id="xtick_1">
     <g id="line2d_1">
      <path d="M 62.571678 239.76 
L 62.571678 37.296 
" clip-path="url(#p8b08ffd4d3)" style="fill: none; stroke-dasharray: 2.96,1.28; stroke-dashoffset: 0; stroke: #b0b0b0; stroke-opacity: 0.4; stroke-width: 0.8"/>
     </g>
     <g id="line2d_2">
      <defs>
       <path id="m8a2e0dad4e" d="M 0 0 
L 0 3.5 
" style="stroke: #000000; stroke-width: 0.8"/>
      </defs>
      <g>
       <use xlink:href="#m8a2e0dad4e" x="62.571678" y="239.76" style="stroke: #000000; stroke-width: 0.8"/>
      </g>
     </g>
     <g id="text_1">
      <!-- 0 -->
      <g transform="translate(59.390428 254.358437) scale(0.1 -0.1)">
       <defs>
        <path id="DejaVuSans-30" d="M 2034 4250 
Q 1547 4250 1301 3770 
Q 1056 3291 1056 2328 
Q 1056 1369 1301 889 
Q 1547 409 2034 409 
Q 2525 409 2770 889 
Q 3016 1369 3016 2328 
Q 3016 3291 2770 3770 
Q 2525 4250 2034 4250 
z
M 2034 4750 
Q 2819 4750 3233 4129 
Q 3647 3509 3647 2328 
Q 3647 1150 3233 529 
Q 2819 -91 2034 -91 
Q 1250 -91 836 529 
Q 422 1150 422 2328 
Q 422 3509 836 4129 
Q 1250 4750 2034 4750 
z
" transform="scale(0.015625)"/>
       </defs>
       <use xlink:href="#DejaVuSans-30"/>
      </g>
     </g>
    </g>
    <g id="xtick_2">
     <g id="line2d_3">
      <path d="M 113.349729 239.76 
L 113.349729 37.296 
" clip-path="url(#p8b08ffd4d3)" style="fill: none; stroke-dasharray: 2.96,1.28; stroke-dashoffset: 0; stroke: #b0b0b0; stroke-opacity: 0.4; stroke-width: 0.8"/>
     </g>
     <g id="line2d_4">
      <g>
       <use xlink:href="#m8a2e0dad4e" x="113.349729" y="239.76" style="stroke: #000000; stroke-width: 0.8"/>
      </g>
     </g>
     <g id="text_2">
      <!-- 200 -->
      <g transform="translate(103.805979 254.358437) scale(0.1 -0.1)">
       <defs>
        <path id="DejaVuSans-32" d="M 1228 531 
L 3431 531 
L 3431 0 
L 469 0 
L 469 531 
Q 828 903 1448 1529 
Q 2069 2156 2228 2338 
Q 2531 2678 2651 2914 
Q 2772 3150 2772 3378 
Q 2772 3750 2511 3984 
Q 2250 4219 1831 4219 
Q 1534 4219 1204 4116 
Q 875 4013 500 3803 
L 500 4441 
Q 881 4594 1212 4672 
Q 1544 4750 1819 4750 
Q 2544 4750 2975 4387 
Q 3406 4025 3406 3419 
Q 3406 3131 3298 2873 
Q 3191 2616 2906 2266 
Q 2828 2175 2409 1742 
Q 1991 1309 1228 531 
z
" transform="scale(0.015625)"/>
       </defs>
       <use xlink:href="#DejaVuSans-32"/>
       <use xlink:href="#DejaVuSans-30" x="63.623047"/>
       <use xlink:href="#DejaVuSans-30" x="127.246094"/>
      </g>
     </g>
    </g>
    <g id="xtick_3">
     <g id="line2d_5">
      <path d="M 164.127779 239.76 
L 164.127779 37.296 
" clip-path="url(#p8b08ffd4d3)" style="fill: none; stroke-dasharray: 2.96,1.28; stroke-dashoffset: 0; stroke: #b0b0b0; stroke-opacity: 0.4; stroke-width: 0.8"/>
     </g>
     <g id="line2d_6">
      <g>
       <use xlink:href="#m8a2e0dad4e" x="164.127779" y="239.76" style="stroke: #000000; stroke-width: 0.8"/>
      </g>
     </g>
     <g id="text_3">
      <!-- 400 -->
      <g transform="translate(154.584029 254.358437) scale(0.1 -0.1)">
       <defs>
        <path id="DejaVuSans-34" d="M 2419 4116 
L 825 1625 
L 2419 1625 
L 2419 4116 
z
M 2253 4666 
L 3047 4666 
L 3047 1625 
L 3713 1625 
L 3713 1100 
L 3047 1100 
L 3047 0 
L 2419 0 
L 2419 1100 
L 313 1100 
L 313 1709 
L 2253 4666 
z
" transform="scale(0.015625)"/>
       </defs>
       <use xlink:href="#DejaVuSans-34"/>
       <use xlink:href="#DejaVuSans-30" x="63.623047"/>
       <use xlink:href="#DejaVuSans-30" x="127.246094"/>
      </g>
     </g>
    </g>
    <g id="xtick_4">
     <g id="line2d_7">
      <path d="M 214.90583 239.76 
L 214.90583 37.296 
" clip-path="url(#p8b08ffd4d3)" style="fill: none; stroke-dasharray: 2.96,1.28; stroke-dashoffset: 0; stroke: #b0b0b0; stroke-opacity: 0.4; stroke-width: 0.8"/>
     </g>
     <g id="line2d_8">
      <g>
       <use xlink:href="#m8a2e0dad4e" x="214.90583" y="239.76" style="stroke: #000000; stroke-width: 0.8"/>
      </g>
     </g>
     <g id="text_4">
      <!-- 600 -->
      <g transform="translate(205.36208 254.358437) scale(0.1 -0.1)">
       <defs>
        <path id="DejaVuSans-36" d="M 2113 2584 
Q 1688 2584 1439 2293 
Q 1191 2003 1191 1497 
Q 1191 994 1439 701 
Q 1688 409 2113 409 
Q 2538 409 2786 701 
Q 3034 994 3034 1497 
Q 3034 2003 2786 2293 
Q 2538 2584 2113 2584 
z
M 3366 4563 
L 3366 3988 
Q 3128 4100 2886 4159 
Q 2644 4219 2406 4219 
Q 1781 4219 1451 3797 
Q 1122 3375 1075 2522 
Q 1259 2794 1537 2939 
Q 1816 3084 2150 3084 
Q 2853 3084 3261 2657 
Q 3669 2231 3669 1497 
Q 3669 778 3244 343 
Q 2819 -91 2113 -91 
Q 1303 -91 875 529 
Q 447 1150 447 2328 
Q 447 3434 972 4092 
Q 1497 4750 2381 4750 
Q 2619 4750 2861 4703 
Q 3103 4656 3366 4563 
z
" transform="scale(0.015625)"/>
       </defs>
       <use xlink:href="#DejaVuSans-36"/>
       <use xlink:href="#DejaVuSans-30" x="63.623047"/>
       <use xlink:href="#DejaVuSans-30" x="127.246094"/>
      </g>
     </g>
    </g>
    <g id="xtick_5">
     <g id="line2d_9">
      <path d="M 265.683881 239.76 
L 265.683881 37.296 
" clip-path="url(#p8b08ffd4d3)" style="fill: none; stroke-dasharray: 2.96,1.28; stroke-dashoffset: 0; stroke: #b0b0b0; stroke-opacity: 0.4; stroke-width: 0.8"/>
     </g>
     <g id="line2d_10">
      <g>
       <use xlink:href="#m8a2e0dad4e" x="265.683881" y="239.76" style="stroke: #000000; stroke-width: 0.8"/>
      </g>
     </g>
     <g id="text_5">
      <!-- 800 -->
      <g transform="translate(256.140131 254.358437) scale(0.1 -0.1)">
       <defs>
        <path id="DejaVuSans-38" d="M 2034 2216 
Q 1584 2216 1326 1975 
Q 1069 1734 1069 1313 
Q 1069 891 1326 650 
Q 1584 409 2034 409 
Q 2484 409 2743 651 
Q 3003 894 3003 1313 
Q 3003 1734 2745 1975 
Q 2488 2216 2034 2216 
z
M 1403 2484 
Q 997 2584 770 2862 
Q 544 3141 544 3541 
Q 544 4100 942 4425 
Q 1341 4750 2034 4750 
Q 2731 4750 3128 4425 
Q 3525 4100 3525 3541 
Q 3525 3141 3298 2862 
Q 3072 2584 2669 2484 
Q 3125 2378 3379 2068 
Q 3634 1759 3634 1313 
Q 3634 634 3220 271 
Q 2806 -91 2034 -91 
Q 1263 -91 848 271 
Q 434 634 434 1313 
Q 434 1759 690 2068 
Q 947 2378 1403 2484 
z
M 1172 3481 
Q 1172 3119 1398 2916 
Q 1625 2713 2034 2713 
Q 2441 2713 2670 2916 
Q 2900 3119 2900 3481 
Q 2900 3844 2670 4047 
Q 2441 4250 2034 4250 
Q 1625 4250 1398 4047 
Q 1172 3844 1172 3481 
z
" transform="scale(0.015625)"/>
       </defs>
       <use xlink:href="#DejaVuSans-38"/>
       <use xlink:href="#DejaVuSans-30" x="63.623047"/>
       <use xlink:href="#DejaVuSans-30" x="127.246094"/>
      </g>
     </g>
    </g>
    <g id="xtick_6">
     <g id="line2d_11">
      <path d="M 316.461932 239.76 
L 316.461932 37.296 
" clip-path="url(#p8b08ffd4d3)" style="fill: none; stroke-dasharray: 2.96,1.28; stroke-dashoffset: 0; stroke: #b0b0b0; stroke-opacity: 0.4; stroke-width: 0.8"/>
     </g>
     <g id="line2d_12">
      <g>
       <use xlink:href="#m8a2e0dad4e" x="316.461932" y="239.76" style="stroke: #000000; stroke-width: 0.8"/>
      </g>
     </g>
     <g id="text_6">
      <!-- 1000 -->
      <g transform="translate(303.736932 254.358437) scale(0.1 -0.1)">
       <defs>
        <path id="DejaVuSans-31" d="M 794 531 
L 1825 531 
L 1825 4091 
L 703 3866 
L 703 4441 
L 1819 4666 
L 2450 4666 
L 2450 531 
L 3481 531 
L 3481 0 
L 794 0 
L 794 531 
z
" transform="scale(0.015625)"/>
       </defs>
       <use xlink:href="#DejaVuSans-31"/>
       <use xlink:href="#DejaVuSans-30" x="63.623047"/>
       <use xlink:href="#DejaVuSans-30" x="127.246094"/>
       <use xlink:href="#DejaVuSans-30" x="190.869141"/>
      </g>
     </g>
    </g>
    <g id="text_7">
     <!-- Epochs -->
     <g transform="translate(171.728125 268.036562) scale(0.1 -0.1)">
      <defs>
       <path id="DejaVuSans-45" d="M 628 4666 
L 3578 4666 
L 3578 4134 
L 1259 4134 
L 1259 2753 
L 3481 2753 
L 3481 2222 
L 1259 2222 
L 1259 531 
L 3634 531 
L 3634 0 
L 628 0 
L 628 4666 
z
" transform="scale(0.015625)"/>
       <path id="DejaVuSans-70" d="M 1159 525 
L 1159 -1331 
L 581 -1331 
L 581 3500 
L 1159 3500 
L 1159 2969 
Q 1341 3281 1617 3432 
Q 1894 3584 2278 3584 
Q 2916 3584 3314 3078 
Q 3713 2572 3713 1747 
Q 3713 922 3314 415 
Q 2916 -91 2278 -91 
Q 1894 -91 1617 61 
Q 1341 213 1159 525 
z
M 3116 1747 
Q 3116 2381 2855 2742 
Q 2594 3103 2138 3103 
Q 1681 3103 1420 2742 
Q 1159 2381 1159 1747 
Q 1159 1113 1420 752 
Q 1681 391 2138 391 
Q 2594 391 2855 752 
Q 3116 1113 3116 1747 
z
" transform="scale(0.015625)"/>
       <path id="DejaVuSans-6f" d="M 1959 3097 
Q 1497 3097 1228 2736 
Q 959 2375 959 1747 
Q 959 1119 1226 758 
Q 1494 397 1959 397 
Q 2419 397 2687 759 
Q 2956 1122 2956 1747 
Q 2956 2369 2687 2733 
Q 2419 3097 1959 3097 
z
M 1959 3584 
Q 2709 3584 3137 3096 
Q 3566 2609 3566 1747 
Q 3566 888 3137 398 
Q 2709 -91 1959 -91 
Q 1206 -91 779 398 
Q 353 888 353 1747 
Q 353 2609 779 3096 
Q 1206 3584 1959 3584 
z
" transform="scale(0.015625)"/>
       <path id="DejaVuSans-63" d="M 3122 3366 
L 3122 2828 
Q 2878 2963 2633 3030 
Q 2388 3097 2138 3097 
Q 1578 3097 1268 2742 
Q 959 2388 959 1747 
Q 959 1106 1268 751 
Q 1578 397 2138 397 
Q 2388 397 2633 464 
Q 2878 531 3122 666 
L 3122 134 
Q 2881 22 2623 -34 
Q 2366 -91 2075 -91 
Q 1284 -91 818 406 
Q 353 903 353 1747 
Q 353 2603 823 3093 
Q 1294 3584 2113 3584 
Q 2378 3584 2631 3529 
Q 2884 3475 3122 3366 
z
" transform="scale(0.015625)"/>
       <path id="DejaVuSans-68" d="M 3513 2113 
L 3513 0 
L 2938 0 
L 2938 2094 
Q 2938 2591 2744 2837 
Q 2550 3084 2163 3084 
Q 1697 3084 1428 2787 
Q 1159 2491 1159 1978 
L 1159 0 
L 581 0 
L 581 4863 
L 1159 4863 
L 1159 2956 
Q 1366 3272 1645 3428 
Q 1925 3584 2291 3584 
Q 2894 3584 3203 3211 
Q 3513 2838 3513 2113 
z
" transform="scale(0.015625)"/>
       <path id="DejaVuSans-73" d="M 2834 3397 
L 2834 2853 
Q 2591 2978 2328 3040 
Q 2066 3103 1784 3103 
Q 1356 3103 1142 2972 
Q 928 2841 928 2578 
Q 928 2378 1081 2264 
Q 1234 2150 1697 2047 
L 1894 2003 
Q 2506 1872 2764 1633 
Q 3022 1394 3022 966 
Q 3022 478 2636 193 
Q 2250 -91 1575 -91 
Q 1294 -91 989 -36 
Q 684 19 347 128 
L 347 722 
Q 666 556 975 473 
Q 1284 391 1588 391 
Q 1994 391 2212 530 
Q 2431 669 2431 922 
Q 2431 1156 2273 1281 
Q 2116 1406 1581 1522 
L 1381 1569 
Q 847 1681 609 1914 
Q 372 2147 372 2553 
Q 372 3047 722 3315 
Q 1072 3584 1716 3584 
Q 2034 3584 2315 3537 
Q 2597 3491 2834 3397 
z
" transform="scale(0.015625)"/>
      </defs>
      <use xlink:href="#DejaVuSans-45"/>
      <use xlink:href="#DejaVuSans-70" x="63.183594"/>
      <use xlink:href="#DejaVuSans-6f" x="126.660156"/>
      <use xlink:href="#DejaVuSans-63" x="187.841797"/>
      <use xlink:href="#DejaVuSans-68" x="242.822266"/>
      <use xlink:href="#DejaVuSans-73" x="306.201172"/>
     </g>
    </g>
   </g>
   <g id="matplotlib.axis_2">
    <g id="ytick_1">
     <g id="line2d_13">
      <path d="M 50.14375 219.168278 
L 329.14375 219.168278 
" clip-path="url(#p8b08ffd4d3)" style="fill: none; stroke-dasharray: 2.96,1.28; stroke-dashoffset: 0; stroke: #b0b0b0; stroke-opacity: 0.4; stroke-width: 0.8"/>
     </g>
     <g id="line2d_14">
      <defs>
       <path id="ma087bd07a2" d="M 0 0 
L -3.5 0 
" style="stroke: #000000; stroke-width: 0.8"/>
      </defs>
      <g>
       <use xlink:href="#ma087bd07a2" x="50.14375" y="219.168278" style="stroke: #000000; stroke-width: 0.8"/>
      </g>
     </g>
     <g id="text_8">
      <!-- 0.48 -->
      <g transform="translate(20.878125 222.967497) scale(0.1 -0.1)">
       <defs>
        <path id="DejaVuSans-2e" d="M 684 794 
L 1344 794 
L 1344 0 
L 684 0 
L 684 794 
z
" transform="scale(0.015625)"/>
       </defs>
       <use xlink:href="#DejaVuSans-30"/>
       <use xlink:href="#DejaVuSans-2e" x="63.623047"/>
       <use xlink:href="#DejaVuSans-34" x="95.410156"/>
       <use xlink:href="#DejaVuSans-38" x="159.033203"/>
      </g>
     </g>
    </g>
    <g id="ytick_2">
     <g id="line2d_15">
      <path d="M 50.14375 186.506071 
L 329.14375 186.506071 
" clip-path="url(#p8b08ffd4d3)" style="fill: none; stroke-dasharray: 2.96,1.28; stroke-dashoffset: 0; stroke: #b0b0b0; stroke-opacity: 0.4; stroke-width: 0.8"/>
     </g>
     <g id="line2d_16">
      <g>
       <use xlink:href="#ma087bd07a2" x="50.14375" y="186.506071" style="stroke: #000000; stroke-width: 0.8"/>
      </g>
     </g>
     <g id="text_9">
      <!-- 0.50 -->
      <g transform="translate(20.878125 190.30529) scale(0.1 -0.1)">
       <defs>
        <path id="DejaVuSans-35" d="M 691 4666 
L 3169 4666 
L 3169 4134 
L 1269 4134 
L 1269 2991 
Q 1406 3038 1543 3061 
Q 1681 3084 1819 3084 
Q 2600 3084 3056 2656 
Q 3513 2228 3513 1497 
Q 3513 744 3044 326 
Q 2575 -91 1722 -91 
Q 1428 -91 1123 -41 
Q 819 9 494 109 
L 494 744 
Q 775 591 1075 516 
Q 1375 441 1709 441 
Q 2250 441 2565 725 
Q 2881 1009 2881 1497 
Q 2881 1984 2565 2268 
Q 2250 2553 1709 2553 
Q 1456 2553 1204 2497 
Q 953 2441 691 2322 
L 691 4666 
z
" transform="scale(0.015625)"/>
       </defs>
       <use xlink:href="#DejaVuSans-30"/>
       <use xlink:href="#DejaVuSans-2e" x="63.623047"/>
       <use xlink:href="#DejaVuSans-35" x="95.410156"/>
       <use xlink:href="#DejaVuSans-30" x="159.033203"/>
      </g>
     </g>
    </g>
    <g id="ytick_3">
     <g id="line2d_17">
      <path d="M 50.14375 153.843864 
L 329.14375 153.843864 
" clip-path="url(#p8b08ffd4d3)" style="fill: none; stroke-dasharray: 2.96,1.28; stroke-dashoffset: 0; stroke: #b0b0b0; stroke-opacity: 0.4; stroke-width: 0.8"/>
     </g>
     <g id="line2d_18">
      <g>
       <use xlink:href="#ma087bd07a2" x="50.14375" y="153.843864" style="stroke: #000000; stroke-width: 0.8"/>
      </g>
     </g>
     <g id="text_10">
      <!-- 0.52 -->
      <g transform="translate(20.878125 157.643082) scale(0.1 -0.1)">
       <use xlink:href="#DejaVuSans-30"/>
       <use xlink:href="#DejaVuSans-2e" x="63.623047"/>
       <use xlink:href="#DejaVuSans-35" x="95.410156"/>
       <use xlink:href="#DejaVuSans-32" x="159.033203"/>
      </g>
     </g>
    </g>
    <g id="ytick_4">
     <g id="line2d_19">
      <path d="M 50.14375 121.181656 
L 329.14375 121.181656 
" clip-path="url(#p8b08ffd4d3)" style="fill: none; stroke-dasharray: 2.96,1.28; stroke-dashoffset: 0; stroke: #b0b0b0; stroke-opacity: 0.4; stroke-width: 0.8"/>
     </g>
     <g id="line2d_20">
      <g>
       <use xlink:href="#ma087bd07a2" x="50.14375" y="121.181656" style="stroke: #000000; stroke-width: 0.8"/>
      </g>
     </g>
     <g id="text_11">
      <!-- 0.54 -->
      <g transform="translate(20.878125 124.980875) scale(0.1 -0.1)">
       <use xlink:href="#DejaVuSans-30"/>
       <use xlink:href="#DejaVuSans-2e" x="63.623047"/>
       <use xlink:href="#DejaVuSans-35" x="95.410156"/>
       <use xlink:href="#DejaVuSans-34" x="159.033203"/>
      </g>
     </g>
    </g>
    <g id="ytick_5">
     <g id="line2d_21">
      <path d="M 50.14375 88.519449 
L 329.14375 88.519449 
" clip-path="url(#p8b08ffd4d3)" style="fill: none; stroke-dasharray: 2.96,1.28; stroke-dashoffset: 0; stroke: #b0b0b0; stroke-opacity: 0.4; stroke-width: 0.8"/>
     </g>
     <g id="line2d_22">
      <g>
       <use xlink:href="#ma087bd07a2" x="50.14375" y="88.519449" style="stroke: #000000; stroke-width: 0.8"/>
      </g>
     </g>
     <g id="text_12">
      <!-- 0.56 -->
      <g transform="translate(20.878125 92.318668) scale(0.1 -0.1)">
       <use xlink:href="#DejaVuSans-30"/>
       <use xlink:href="#DejaVuSans-2e" x="63.623047"/>
       <use xlink:href="#DejaVuSans-35" x="95.410156"/>
       <use xlink:href="#DejaVuSans-36" x="159.033203"/>
      </g>
     </g>
    </g>
    <g id="ytick_6">
     <g id="line2d_23">
      <path d="M 50.14375 55.857242 
L 329.14375 55.857242 
" clip-path="url(#p8b08ffd4d3)" style="fill: none; stroke-dasharray: 2.96,1.28; stroke-dashoffset: 0; stroke: #b0b0b0; stroke-opacity: 0.4; stroke-width: 0.8"/>
     </g>
     <g id="line2d_24">
      <g>
       <use xlink:href="#ma087bd07a2" x="50.14375" y="55.857242" style="stroke: #000000; stroke-width: 0.8"/>
      </g>
     </g>
     <g id="text_13">
      <!-- 0.58 -->
      <g transform="translate(20.878125 59.656461) scale(0.1 -0.1)">
       <use xlink:href="#DejaVuSans-30"/>
       <use xlink:href="#DejaVuSans-2e" x="63.623047"/>
       <use xlink:href="#DejaVuSans-35" x="95.410156"/>
       <use xlink:href="#DejaVuSans-38" x="159.033203"/>
      </g>
     </g>
    </g>
    <g id="text_14">
     <!-- Accuracy -->
     <g transform="translate(14.798438 161.356125) rotate(-90) scale(0.1 -0.1)">
      <defs>
       <path id="DejaVuSans-41" d="M 2188 4044 
L 1331 1722 
L 3047 1722 
L 2188 4044 
z
M 1831 4666 
L 2547 4666 
L 4325 0 
L 3669 0 
L 3244 1197 
L 1141 1197 
L 716 0 
L 50 0 
L 1831 4666 
z
" transform="scale(0.015625)"/>
       <path id="DejaVuSans-75" d="M 544 1381 
L 544 3500 
L 1119 3500 
L 1119 1403 
Q 1119 906 1312 657 
Q 1506 409 1894 409 
Q 2359 409 2629 706 
Q 2900 1003 2900 1516 
L 2900 3500 
L 3475 3500 
L 3475 0 
L 2900 0 
L 2900 538 
Q 2691 219 2414 64 
Q 2138 -91 1772 -91 
Q 1169 -91 856 284 
Q 544 659 544 1381 
z
M 1991 3584 
L 1991 3584 
z
" transform="scale(0.015625)"/>
       <path id="DejaVuSans-72" d="M 2631 2963 
Q 2534 3019 2420 3045 
Q 2306 3072 2169 3072 
Q 1681 3072 1420 2755 
Q 1159 2438 1159 1844 
L 1159 0 
L 581 0 
L 581 3500 
L 1159 3500 
L 1159 2956 
Q 1341 3275 1631 3429 
Q 1922 3584 2338 3584 
Q 2397 3584 2469 3576 
Q 2541 3569 2628 3553 
L 2631 2963 
z
" transform="scale(0.015625)"/>
       <path id="DejaVuSans-61" d="M 2194 1759 
Q 1497 1759 1228 1600 
Q 959 1441 959 1056 
Q 959 750 1161 570 
Q 1363 391 1709 391 
Q 2188 391 2477 730 
Q 2766 1069 2766 1631 
L 2766 1759 
L 2194 1759 
z
M 3341 1997 
L 3341 0 
L 2766 0 
L 2766 531 
Q 2569 213 2275 61 
Q 1981 -91 1556 -91 
Q 1019 -91 701 211 
Q 384 513 384 1019 
Q 384 1609 779 1909 
Q 1175 2209 1959 2209 
L 2766 2209 
L 2766 2266 
Q 2766 2663 2505 2880 
Q 2244 3097 1772 3097 
Q 1472 3097 1187 3025 
Q 903 2953 641 2809 
L 641 3341 
Q 956 3463 1253 3523 
Q 1550 3584 1831 3584 
Q 2591 3584 2966 3190 
Q 3341 2797 3341 1997 
z
" transform="scale(0.015625)"/>
       <path id="DejaVuSans-79" d="M 2059 -325 
Q 1816 -950 1584 -1140 
Q 1353 -1331 966 -1331 
L 506 -1331 
L 506 -850 
L 844 -850 
Q 1081 -850 1212 -737 
Q 1344 -625 1503 -206 
L 1606 56 
L 191 3500 
L 800 3500 
L 1894 763 
L 2988 3500 
L 3597 3500 
L 2059 -325 
z
" transform="scale(0.015625)"/>
      </defs>
      <use xlink:href="#DejaVuSans-41"/>
      <use xlink:href="#DejaVuSans-63" x="66.658203"/>
      <use xlink:href="#DejaVuSans-63" x="121.638672"/>
      <use xlink:href="#DejaVuSans-75" x="176.619141"/>
      <use xlink:href="#DejaVuSans-72" x="239.998047"/>
      <use xlink:href="#DejaVuSans-61" x="281.111328"/>
      <use xlink:href="#DejaVuSans-63" x="342.390625"/>
      <use xlink:href="#DejaVuSans-79" x="397.371094"/>
     </g>
    </g>
   </g>
   <g id="line2d_25">
    <path d="M 62.825568 180.97944 
L 63.079458 168.084099 
L 63.333349 183.282236 
L 63.587239 176.373947 
L 63.841129 189.269386 
L 64.095019 193.41431 
L 64.34891 174.53177 
L 64.6028 187.42716 
L 64.85669 164.860264 
L 65.11058 228.416125 
L 65.618361 167.623482 
L 66.126141 176.373947 
L 66.380032 209.073016 
L 66.633922 204.467523 
L 66.887812 174.53177 
L 67.141702 211.375762 
L 67.395593 170.386797 
L 67.649483 180.51892 
L 67.903373 209.073016 
L 68.157264 205.84918 
L 68.411154 199.86203 
L 68.665044 220.126228 
L 68.918934 176.834565 
L 69.172825 190.651044 
L 69.426715 186.96664 
L 69.680605 164.860264 
L 69.934495 163.939126 
L 70.442276 196.638194 
L 70.696166 198.480372 
L 71.457837 172.228974 
L 71.711727 184.203276 
L 71.965617 188.808817 
L 72.219508 205.84918 
L 72.473398 186.045551 
L 72.727288 199.401461 
L 73.235069 157.030838 
L 73.488959 175.913427 
L 73.742849 163.478606 
L 73.996739 206.3097 
L 74.25063 196.638194 
L 74.50452 182.361098 
L 74.75841 189.269386 
L 75.0123 208.151927 
L 75.520081 156.109798 
L 75.773971 212.296851 
L 76.281752 167.162961 
L 76.789532 185.124413 
L 77.043422 181.440058 
L 77.297313 203.085865 
L 77.551203 184.663893 
L 77.805093 180.51892 
L 78.058983 197.559283 
L 78.312874 190.190475 
L 78.566764 195.717057 
L 78.820654 183.742756 
L 79.074544 165.781304 
L 79.328435 190.190475 
L 79.582325 158.873113 
L 79.836215 191.111564 
L 80.090105 197.559283 
L 80.343996 188.348249 
L 80.597886 198.940941 
L 80.851776 193.874879 
L 81.105666 173.610632 
L 81.359557 205.84918 
L 81.613447 181.440058 
L 81.867337 176.834565 
L 82.121227 200.783119 
L 82.375118 189.729906 
L 82.629008 186.506071 
L 82.882898 205.84918 
L 83.136788 173.610632 
L 83.390679 186.96664 
L 83.644569 181.900578 
L 83.898459 195.717057 
L 84.15235 165.781304 
L 84.40624 166.702441 
L 84.66013 181.440058 
L 84.91402 176.834565 
L 85.167911 153.346482 
L 85.421801 147.359332 
L 85.675691 163.017989 
L 85.929581 159.794153 
L 86.183472 167.623482 
L 86.437362 180.0584 
L 86.691252 159.333633 
L 87.199033 171.768454 
L 87.452923 171.307934 
L 87.706813 187.887728 
L 87.960703 149.20151 
L 88.214594 142.753839 
L 88.468484 157.491455 
L 88.722374 155.64918 
L 88.976264 162.096948 
L 89.230155 139.530004 
L 89.484045 169.005139 
L 89.737935 159.333633 
L 89.991825 158.412496 
L 90.245716 186.96664 
L 90.753496 169.005139 
L 91.007386 183.742756 
L 91.261277 162.096948 
L 91.515167 169.926277 
L 92.022947 155.64918 
L 92.276838 153.346482 
L 92.530728 167.623482 
L 92.784618 140.451044 
L 93.038508 175.913427 
L 93.292399 153.346482 
L 93.546289 176.834565 
L 93.800179 167.623482 
L 94.054069 147.819852 
L 94.30796 157.491455 
L 94.56185 146.898812 
L 95.06963 159.794153 
L 95.323521 166.241824 
L 95.577411 146.438194 
L 95.831301 171.768454 
L 96.085191 177.755605 
L 96.339082 145.517154 
L 96.592972 139.990524 
L 96.846862 165.320784 
L 97.100752 127.555702 
L 97.354643 123.87125 
L 97.608533 157.030838 
L 97.862423 172.689592 
L 98.116313 140.911661 
L 98.370204 135.385031 
L 98.624094 152.885962 
L 98.877984 136.306071 
L 99.131874 137.687728 
L 99.385765 148.280372 
L 99.639655 153.346482 
L 99.893545 151.504305 
L 100.147436 128.93736 
L 100.401326 142.293221 
L 100.655216 121.107934 
L 100.909106 130.31892 
L 101.162997 151.504305 
L 101.416887 140.911661 
L 101.670777 156.570318 
L 101.924667 129.39788 
L 102.178558 149.66203 
L 102.686338 144.135497 
L 102.940228 133.082235 
L 103.194119 138.148346 
L 103.448009 137.687728 
L 103.701899 152.425345 
L 103.955789 126.634565 
L 104.20968 136.766688 
L 104.46357 120.647414 
L 104.71746 139.990524 
L 104.97135 121.107934 
L 105.225241 132.621715 
L 105.479131 119.265757 
L 105.733021 123.410729 
L 105.986911 115.581401 
L 106.748582 134.924511 
L 107.002472 115.120784 
L 107.256363 128.016222 
L 107.510253 120.186894 
L 107.764143 137.687728 
L 108.018033 128.476743 
L 108.271924 111.896948 
L 108.525814 120.186894 
L 108.779704 115.581401 
L 109.033594 120.647414 
L 109.287485 113.278606 
L 109.541375 120.186894 
L 109.795265 119.726277 
L 110.049155 135.385031 
L 110.556936 105.909798 
L 110.810826 142.753839 
L 111.064716 107.751975 
L 111.318607 105.449278 
L 111.572497 110.515291 
L 111.826387 122.029072 
L 112.080277 109.594251 
L 112.334168 116.963059 
L 112.841948 104.52814 
L 113.095838 99.001607 
L 113.349729 124.331867 
L 113.603619 114.199743 
L 113.857509 98.080469 
L 114.111399 99.001607 
L 114.36529 117.423579 
L 114.61918 95.777674 
L 114.87307 106.830935 
L 115.12696 100.383265 
L 115.380851 119.265757 
L 115.634741 88.408963 
L 115.888631 88.869483 
L 116.142521 99.001607 
L 116.396412 88.869483 
L 116.650302 101.304305 
L 116.904192 92.553839 
L 117.158083 92.093319 
L 117.411973 107.291455 
L 117.665863 96.698812 
L 117.919753 104.988758 
L 118.173644 93.014456 
L 118.427534 97.619949 
L 118.681424 107.751975 
L 118.935314 89.790524 
L 119.189205 89.330004 
L 119.443095 99.922647 
L 119.696985 122.489592 
L 119.950875 113.278606 
L 120.458656 71.368552 
L 120.712546 92.093319 
L 120.966436 78.73736 
L 121.220327 99.922647 
L 121.474217 99.922647 
L 121.728107 113.739126 
L 121.981997 94.856634 
L 122.235888 114.660264 
L 122.489778 85.645648 
L 122.743668 95.317154 
L 122.997558 120.647414 
L 123.251449 100.843785 
L 123.505339 92.093319 
L 123.759229 95.777674 
L 124.26701 81.040155 
L 124.5209 81.500675 
L 124.77479 82.421813 
L 125.02868 99.922647 
L 125.282571 69.986894 
L 125.536461 99.462127 
L 126.044241 73.210729 
L 126.298132 100.383265 
L 126.552022 80.119018 
L 126.805912 81.961195 
L 127.059802 77.816222 
L 127.313693 79.19788 
L 127.567583 65.381401 
L 128.075363 99.001607 
L 128.329254 84.724511 
L 128.583144 94.396114 
L 128.837034 98.540989 
L 129.090924 90.251141 
L 129.344815 94.856634 
L 129.598705 106.830935 
L 129.852595 78.27684 
L 130.106485 90.711661 
L 130.360376 94.396114 
L 130.614266 68.605236 
L 130.868156 93.474976 
L 131.122046 82.882333 
L 131.375937 82.421813 
L 131.629827 81.500675 
L 131.883717 115.120784 
L 132.137607 87.027306 
L 132.391498 90.251141 
L 132.645388 73.671347 
L 133.153169 133.082235 
L 133.407059 107.751975 
L 133.660949 107.751975 
L 133.914839 98.080469 
L 134.16873 95.317154 
L 134.42262 104.52814 
L 134.67651 105.909798 
L 134.9304 122.950209 
L 135.184291 115.120784 
L 135.438181 93.014456 
L 135.692071 114.660264 
L 135.945961 75.513525 
L 136.453742 125.713427 
L 136.707632 93.014456 
L 136.961522 93.474976 
L 137.215413 88.408963 
L 137.469303 64.920881 
L 137.723193 85.645648 
L 137.977083 81.040155 
L 138.230974 66.302539 
L 138.484864 105.449278 
L 138.738754 75.974045 
L 138.992644 79.658497 
L 139.246535 67.223579 
L 139.500425 80.579538 
L 139.754315 84.26399 
L 140.008205 85.645648 
L 140.262096 49.722744 
L 140.515986 69.065854 
L 140.769876 77.816222 
L 141.023766 101.304305 
L 141.277657 75.974045 
L 141.531547 91.172181 
L 141.785437 70.908032 
L 142.039327 77.355702 
L 142.293218 69.065854 
L 142.547108 67.684196 
L 142.800998 74.592387 
L 143.054888 65.381401 
L 143.308779 62.157566 
L 143.562669 87.027306 
L 143.816559 87.027306 
L 144.070449 81.500675 
L 144.32434 84.26399 
L 144.57823 103.6071 
L 144.83212 93.474976 
L 145.08601 92.553839 
L 145.339901 81.961195 
L 145.593791 80.579538 
L 145.847681 59.39425 
L 146.101571 72.289689 
L 146.355462 56.630935 
L 146.609352 74.592387 
L 146.863242 66.763059 
L 147.117132 84.724511 
L 147.371023 57.091553 
L 147.624913 75.974045 
L 147.878803 75.053004 
L 148.132693 83.803373 
L 148.386584 74.131867 
L 148.640474 69.065854 
L 148.894364 94.856634 
L 149.148255 65.841921 
L 149.402145 59.39425 
L 149.656035 77.816222 
L 149.909925 104.52814 
L 150.163816 94.396114 
L 150.417706 89.330004 
L 150.671596 80.579538 
L 150.925486 82.421813 
L 151.179377 89.790524 
L 151.433267 80.119018 
L 151.687157 97.619949 
L 151.941047 85.645648 
L 152.194938 86.566688 
L 152.448828 74.592387 
L 152.702718 79.658497 
L 152.956608 81.961195 
L 153.464389 62.157566 
L 153.718279 80.119018 
L 154.22606 67.223579 
L 154.47995 78.73736 
L 154.73384 63.539223 
L 154.98773 87.487826 
L 155.241621 73.210729 
L 155.495511 65.841921 
L 155.749401 86.566688 
L 156.003291 74.131867 
L 156.257182 90.251141 
L 156.511072 79.19788 
L 156.764962 78.73736 
L 157.272743 94.856634 
L 158.034413 59.39425 
L 158.288304 75.513525 
L 158.542194 75.053004 
L 158.796084 77.355702 
L 159.049974 61.697046 
L 159.303865 72.289689 
L 159.557755 52.94658 
L 159.811645 77.355702 
L 160.065535 84.26399 
L 160.827206 92.553839 
L 161.081096 69.526374 
L 161.334987 69.986894 
L 161.588877 83.803373 
L 161.842767 66.302539 
L 162.096657 77.816222 
L 162.350548 67.223579 
L 162.604438 87.487826 
L 162.858328 74.592387 
L 163.112218 75.513525 
L 163.366109 86.106168 
L 163.873889 61.236428 
L 164.127779 60.775908 
L 164.63556 75.053004 
L 164.88945 79.19788 
L 165.14334 85.185031 
L 165.651121 62.618086 
L 166.158902 78.73736 
L 166.412792 75.053004 
L 166.666682 88.408963 
L 166.920572 88.869483 
L 167.174463 75.974045 
L 167.428353 75.974045 
L 167.682243 72.750209 
L 167.936133 65.841921 
L 168.190024 70.908032 
L 168.443914 66.302539 
L 168.697804 74.131867 
L 168.951694 71.829072 
L 169.205585 85.185031 
L 169.459475 68.144716 
L 169.713365 96.698812 
L 169.967255 63.078703 
L 170.221146 72.750209 
L 170.475036 73.671347 
L 170.728926 87.487826 
L 170.982816 87.027306 
L 171.236707 82.882333 
L 171.490597 76.434662 
L 171.744487 85.185031 
L 171.998377 98.540989 
L 172.506158 70.447512 
L 172.760048 69.065854 
L 173.013938 74.592387 
L 173.267829 69.986894 
L 173.521719 78.27684 
L 173.775609 97.159332 
L 174.28339 78.27684 
L 174.53728 86.106168 
L 174.79117 88.869483 
L 175.04506 75.053004 
L 175.298951 97.159332 
L 175.552841 75.513525 
L 175.806731 96.238292 
L 176.060621 86.566688 
L 176.314512 69.986894 
L 176.568402 93.474976 
L 176.822292 81.961195 
L 177.076182 81.961195 
L 177.330073 85.645648 
L 177.583963 75.974045 
L 177.837853 76.895182 
L 178.091743 77.355702 
L 178.345634 79.658497 
L 178.599524 79.19788 
L 178.853414 61.697046 
L 179.107304 90.251141 
L 179.361195 73.210729 
L 179.868975 85.185031 
L 180.122865 75.513525 
L 180.376756 72.289689 
L 180.630646 87.027306 
L 180.884536 82.882333 
L 181.138426 69.065854 
L 181.392317 93.935497 
L 181.646207 89.790524 
L 181.900097 87.948346 
L 182.407878 92.553839 
L 182.661768 88.408963 
L 182.915658 90.251141 
L 183.169549 85.645648 
L 183.423439 78.27684 
L 183.677329 77.816222 
L 183.931219 77.816222 
L 184.18511 76.434662 
L 184.69289 70.908032 
L 184.94678 97.159332 
L 185.200671 72.289689 
L 185.454561 62.157566 
L 185.708451 64.460361 
L 185.962341 88.408963 
L 186.216232 87.948346 
L 186.470122 87.027306 
L 186.724012 77.816222 
L 186.977902 75.513525 
L 187.231793 71.368552 
L 187.485683 81.040155 
L 187.739573 95.317154 
L 187.993463 80.579538 
L 188.247354 75.513525 
L 188.501244 78.73736 
L 188.755134 85.645648 
L 189.009024 86.106168 
L 189.262915 76.895182 
L 189.516805 77.816222 
L 189.770695 74.592387 
L 190.024585 75.974045 
L 190.278476 84.26399 
L 190.532366 78.27684 
L 190.786256 95.777674 
L 191.040146 83.803373 
L 191.294037 79.19788 
L 191.547927 80.579538 
L 191.801817 88.869483 
L 192.055707 92.553839 
L 192.309598 59.854771 
L 192.563488 52.94658 
L 192.817378 78.73736 
L 193.071268 76.434662 
L 193.325159 60.775908 
L 193.579049 79.658497 
L 193.832939 85.645648 
L 194.086829 57.552073 
L 194.34072 72.750209 
L 194.8485 53.86762 
L 195.10239 63.539223 
L 195.356281 79.19788 
L 195.610171 65.841921 
L 195.864061 76.434662 
L 196.117951 75.513525 
L 196.371842 84.26399 
L 196.625732 81.040155 
L 196.879622 113.739126 
L 197.133512 70.908032 
L 197.387403 67.684196 
L 197.895183 80.579538 
L 198.149074 74.131867 
L 198.402964 73.671347 
L 198.656854 80.579538 
L 198.910744 82.882333 
L 199.164635 92.093319 
L 199.418525 70.447512 
L 199.672415 89.790524 
L 199.926305 71.368552 
L 200.180196 83.803373 
L 200.434086 109.133633 
L 200.687976 84.26399 
L 200.941866 84.26399 
L 201.195757 77.355702 
L 201.703537 80.579538 
L 201.957427 89.790524 
L 202.211318 71.368552 
L 202.465208 90.251141 
L 202.719098 71.829072 
L 202.972988 79.19788 
L 203.226879 76.434662 
L 203.480769 89.330004 
L 203.734659 79.658497 
L 203.988549 80.579538 
L 204.49633 75.513525 
L 204.75022 83.803373 
L 205.00411 87.948346 
L 205.258001 82.421813 
L 205.511891 81.500675 
L 206.019671 65.381401 
L 206.273562 65.381401 
L 206.527452 82.421813 
L 206.781342 86.566688 
L 207.035232 92.553839 
L 207.289123 70.908032 
L 207.543013 77.355702 
L 207.796903 75.053004 
L 208.050793 68.144716 
L 208.304684 89.330004 
L 208.558574 68.605236 
L 208.812464 96.238292 
L 209.066354 66.763059 
L 209.320245 71.829072 
L 209.574135 69.065854 
L 209.828025 80.119018 
L 210.081915 80.579538 
L 210.335806 83.342853 
L 210.589696 66.302539 
L 210.843586 89.330004 
L 211.097476 77.355702 
L 211.351367 92.553839 
L 211.605257 67.223579 
L 212.113037 97.619949 
L 212.366928 56.170415 
L 212.620818 77.355702 
L 212.874708 68.144716 
L 213.128598 78.27684 
L 213.382489 105.449278 
L 213.636379 70.447512 
L 213.890269 81.500675 
L 214.14416 63.999743 
L 214.39805 76.895182 
L 214.90583 72.289689 
L 215.159721 51.104402 
L 215.413611 66.763059 
L 215.667501 62.157566 
L 216.175282 69.065854 
L 216.429172 65.841921 
L 216.683062 81.500675 
L 216.936952 74.131867 
L 217.190843 82.421813 
L 217.444733 63.078703 
L 217.698623 60.315388 
L 217.952513 61.697046 
L 218.206404 64.920881 
L 218.460294 87.027306 
L 218.714184 62.618086 
L 218.968074 86.566688 
L 219.475855 69.065854 
L 219.729745 77.816222 
L 219.983635 75.053004 
L 220.237526 75.974045 
L 220.491416 87.487826 
L 220.745306 92.553839 
L 220.999196 78.27684 
L 221.253087 91.172181 
L 221.506977 94.396114 
L 222.014757 71.829072 
L 222.268648 74.592387 
L 222.522538 119.726277 
L 222.776428 84.724511 
L 223.030318 68.144716 
L 223.284209 60.315388 
L 223.538099 77.816222 
L 223.791989 66.763059 
L 224.045879 62.157566 
L 224.55366 78.27684 
L 224.80755 52.94658 
L 225.06144 82.421813 
L 225.315331 81.040155 
L 225.569221 69.526374 
L 225.823111 86.106168 
L 226.077001 87.027306 
L 226.330892 65.381401 
L 226.584782 90.711661 
L 226.838672 67.684196 
L 227.346453 76.895182 
L 227.600343 65.381401 
L 227.854233 86.566688 
L 228.108123 67.223579 
L 228.362014 65.841921 
L 228.615904 76.895182 
L 228.869794 70.908032 
L 229.123684 76.895182 
L 229.377575 77.816222 
L 229.631465 64.460361 
L 229.885355 81.040155 
L 230.139245 78.73736 
L 230.393136 91.172181 
L 230.900916 69.526374 
L 231.408697 80.119018 
L 231.662587 99.001607 
L 232.170368 68.605236 
L 232.424258 76.434662 
L 232.678148 75.053004 
L 232.932038 88.408963 
L 233.185929 90.251141 
L 233.439819 90.251141 
L 234.20149 65.841921 
L 234.45538 73.671347 
L 234.70927 61.697046 
L 234.96316 87.487826 
L 235.217051 57.552073 
L 235.470941 82.882333 
L 235.724831 64.460361 
L 236.232612 98.080469 
L 236.486502 70.447512 
L 236.740392 77.816222 
L 236.994282 65.381401 
L 237.248173 70.447512 
L 237.502063 72.289689 
L 238.009843 81.500675 
L 238.263734 76.895182 
L 238.771514 71.829072 
L 239.025404 66.763059 
L 239.279295 82.421813 
L 239.533185 73.210729 
L 239.787075 82.421813 
L 240.040965 95.777674 
L 240.294856 72.289689 
L 240.548746 80.119018 
L 240.802636 81.040155 
L 241.056526 61.236428 
L 241.310417 86.566688 
L 241.564307 91.172181 
L 241.818197 89.330004 
L 242.072087 47.419949 
L 242.325978 77.816222 
L 242.579868 66.302539 
L 242.833758 76.434662 
L 243.087648 81.040155 
L 243.341539 75.513525 
L 243.595429 87.027306 
L 243.849319 71.368552 
L 244.103209 70.908032 
L 244.3571 65.841921 
L 244.61099 74.592387 
L 244.86488 77.816222 
L 245.11877 102.225442 
L 245.372661 66.302539 
L 245.626551 86.106168 
L 245.880441 73.671347 
L 246.134331 69.986894 
L 246.388222 69.986894 
L 246.896002 86.106168 
L 247.149893 77.355702 
L 247.403783 76.895182 
L 247.657673 99.001607 
L 247.911563 72.750209 
L 248.165454 86.106168 
L 248.419344 61.236428 
L 248.673234 70.908032 
L 249.181015 102.225442 
L 249.434905 79.658497 
L 249.688795 88.408963 
L 249.942685 87.027306 
L 250.196576 83.342853 
L 250.704356 69.986894 
L 250.958246 85.185031 
L 251.212137 65.841921 
L 251.466027 76.434662 
L 251.719917 75.053004 
L 252.481588 61.697046 
L 252.735478 54.788758 
L 252.989368 79.19788 
L 253.243259 84.26399 
L 253.497149 99.922647 
L 253.751039 93.935497 
L 254.004929 58.47321 
L 254.25882 89.330004 
L 254.7666 62.157566 
L 255.02049 81.500675 
L 255.274381 69.065854 
L 255.528271 75.053004 
L 255.782161 69.065854 
L 256.036051 75.053004 
L 256.289942 85.185031 
L 256.543832 77.816222 
L 256.797722 66.763059 
L 257.051612 67.684196 
L 257.305503 87.027306 
L 257.559393 83.803373 
L 258.067173 68.605236 
L 258.321064 83.342853 
L 258.574954 79.19788 
L 258.828844 84.724511 
L 259.082734 68.605236 
L 259.336625 82.882333 
L 259.590515 88.869483 
L 259.844405 84.724511 
L 260.098295 74.592387 
L 260.352186 95.317154 
L 260.606076 73.210729 
L 260.859966 85.645648 
L 261.113856 88.408963 
L 261.367747 71.368552 
L 261.621637 69.986894 
L 261.875527 70.908032 
L 262.129417 75.053004 
L 262.383308 82.421813 
L 262.637198 69.065854 
L 262.891088 65.381401 
L 263.144979 74.131867 
L 263.398869 75.974045 
L 263.652759 71.829072 
L 263.906649 71.829072 
L 264.16054 89.330004 
L 264.41443 67.684196 
L 264.66832 75.053004 
L 264.92221 75.053004 
L 265.176101 80.119018 
L 265.429991 78.73736 
L 265.683881 85.185031 
L 265.937771 75.974045 
L 266.191662 47.419949 
L 266.445552 77.355702 
L 266.699442 85.645648 
L 266.953332 75.513525 
L 267.207223 74.592387 
L 267.461113 89.330004 
L 268.222784 72.750209 
L 268.476674 96.238292 
L 268.730564 65.381401 
L 269.238345 82.882333 
L 269.492235 80.119018 
L 269.746125 62.157566 
L 270.000015 63.078703 
L 270.253906 78.73736 
L 270.507796 67.223579 
L 270.761686 70.908032 
L 271.015576 72.289689 
L 271.269467 69.526374 
L 271.777247 82.882333 
L 272.031137 79.658497 
L 272.285028 65.841921 
L 272.538918 78.73736 
L 272.792808 77.816222 
L 273.046698 58.47321 
L 273.554479 83.342853 
L 273.808369 81.040155 
L 274.062259 71.829072 
L 274.31615 70.908032 
L 274.82393 81.961195 
L 275.07782 64.460361 
L 275.331711 79.658497 
L 275.585601 84.26399 
L 275.839491 74.131867 
L 276.093381 71.829072 
L 276.601162 74.131867 
L 276.855052 69.065854 
L 277.108942 89.330004 
L 277.362833 80.579538 
L 277.616723 56.630935 
L 277.870613 70.447512 
L 278.124503 68.605236 
L 278.378394 77.355702 
L 278.632284 81.961195 
L 278.886174 78.73736 
L 279.140064 89.330004 
L 279.393955 81.500675 
L 279.647845 81.500675 
L 279.901735 81.961195 
L 280.155626 81.040155 
L 280.409516 86.106168 
L 280.663406 72.750209 
L 280.917296 80.579538 
L 281.171187 58.93373 
L 281.425077 74.131867 
L 281.678967 68.144716 
L 281.932857 73.671347 
L 282.186748 86.566688 
L 282.440638 72.750209 
L 282.694528 81.040155 
L 282.948418 63.999743 
L 283.202309 74.592387 
L 283.456199 66.763059 
L 283.710089 72.289689 
L 283.963979 75.053004 
L 284.21787 85.185031 
L 284.47176 82.882333 
L 284.72565 64.920881 
L 284.97954 71.368552 
L 285.233431 62.157566 
L 285.487321 64.920881 
L 285.741211 78.27684 
L 286.248992 70.447512 
L 286.502882 75.053004 
L 286.756772 69.986894 
L 287.010662 75.974045 
L 287.264553 52.025442 
L 287.518443 60.775908 
L 287.772333 75.053004 
L 288.026223 75.513525 
L 288.280114 81.040155 
L 288.534004 74.592387 
L 288.787894 78.73736 
L 289.041784 75.974045 
L 289.295675 64.920881 
L 289.803455 81.961195 
L 290.057345 83.342853 
L 290.311236 93.474976 
L 290.565126 73.210729 
L 291.072906 86.106168 
L 291.326797 68.144716 
L 291.580687 69.526374 
L 291.834577 65.841921 
L 292.088467 63.999743 
L 292.342358 93.014456 
L 292.596248 65.381401 
L 292.850138 68.144716 
L 293.104028 75.513525 
L 293.357919 77.816222 
L 293.611809 83.803373 
L 293.865699 83.803373 
L 294.119589 46.498909 
L 294.37348 66.302539 
L 294.62737 67.684196 
L 294.88126 75.053004 
L 295.13515 73.671347 
L 295.389041 90.711661 
L 295.642931 79.658497 
L 295.896821 82.421813 
L 296.150712 71.829072 
L 296.404602 70.447512 
L 296.658492 70.447512 
L 296.912382 61.236428 
L 297.166273 73.671347 
L 297.420163 76.434662 
L 297.674053 84.26399 
L 297.927943 104.52814 
L 298.181834 75.053004 
L 298.689614 78.73736 
L 298.943504 61.236428 
L 299.197395 75.974045 
L 299.451285 81.040155 
L 299.705175 78.73736 
L 299.959065 69.526374 
L 300.466846 73.671347 
L 300.720736 58.012593 
L 300.974626 81.500675 
L 301.228517 69.065854 
L 301.482407 91.172181 
L 301.736297 68.144716 
L 302.244078 75.053004 
L 302.497968 81.500675 
L 302.751858 83.803373 
L 303.005748 67.684196 
L 303.259639 91.632799 
L 303.513529 63.539223 
L 303.767419 69.526374 
L 304.021309 65.841921 
L 304.2752 67.223579 
L 304.52909 69.526374 
L 304.78298 73.210729 
L 305.03687 73.210729 
L 305.290761 84.26399 
L 305.544651 70.447512 
L 306.052431 79.658497 
L 306.306322 81.040155 
L 306.560212 61.697046 
L 306.814102 76.434662 
L 307.067992 53.4071 
L 307.321883 91.172181 
L 307.575773 67.223579 
L 307.829663 92.093319 
L 308.083553 64.920881 
L 308.337444 68.605236 
L 308.591334 74.131867 
L 308.845224 73.210729 
L 309.099114 74.592387 
L 309.353005 92.553839 
L 309.606895 63.999743 
L 310.114675 97.619949 
L 310.368566 72.750209 
L 310.622456 64.460361 
L 310.876346 75.053004 
L 311.130236 75.974045 
L 311.384127 79.19788 
L 311.638017 56.170415 
L 312.145798 87.948346 
L 312.399688 68.144716 
L 312.653578 98.540989 
L 312.907468 81.040155 
L 313.161359 71.829072 
L 313.415249 78.27684 
L 313.669139 64.460361 
L 313.923029 92.093319 
L 314.17692 84.724511 
L 314.43081 96.698812 
L 315.192481 67.223579 
L 315.446371 65.381401 
L 315.700261 91.632799 
L 315.954151 93.474976 
L 316.461932 55.709895 
L 316.461932 55.709895 
" clip-path="url(#p8b08ffd4d3)" style="fill: none; stroke: #0000ff; stroke-width: 0.6; stroke-linecap: square"/>
   </g>
   <g id="line2d_26">
    <path d="M 62.825568 191.878124 
L 63.079458 180.059568 
L 63.333349 199.399027 
L 63.587239 177.910766 
L 63.841129 191.878124 
L 64.095019 180.059568 
L 64.34891 192.952573 
L 64.6028 190.803723 
L 64.85669 192.952573 
L 65.11058 200.473477 
L 65.364471 192.952573 
L 65.618361 180.059568 
L 65.872251 181.134018 
L 66.126141 185.431621 
L 66.380032 180.059568 
L 66.633922 192.952573 
L 66.887812 174.687515 
L 67.141702 180.059568 
L 67.395593 192.952573 
L 67.903373 192.952573 
L 68.157264 180.059568 
L 68.411154 180.059568 
L 68.665044 192.952573 
L 68.918934 194.026974 
L 69.172825 181.134018 
L 69.426715 198.324627 
L 69.680605 181.134018 
L 69.934495 192.952573 
L 70.188386 176.836317 
L 70.442276 182.20837 
L 70.696166 180.059568 
L 70.950056 180.059568 
L 71.203947 192.952573 
L 71.457837 192.952573 
L 71.711727 180.059568 
L 71.965617 144.603901 
L 72.219508 191.878124 
L 72.473398 180.059568 
L 72.727288 184.357269 
L 72.981178 192.952573 
L 73.235069 177.910766 
L 73.488959 190.803723 
L 73.742849 181.134018 
L 73.996739 180.059568 
L 74.25063 192.952573 
L 74.50452 181.134018 
L 74.75841 192.952573 
L 75.0123 192.952573 
L 75.266191 191.878124 
L 75.520081 192.952573 
L 75.773971 177.910766 
L 76.027861 184.357269 
L 76.281752 199.399027 
L 76.535642 192.952573 
L 76.789532 192.952573 
L 77.043422 180.059568 
L 77.297313 189.729322 
L 77.551203 192.952573 
L 77.805093 187.580472 
L 78.058983 169.315462 
L 78.312874 192.952573 
L 79.074544 192.952573 
L 79.582325 205.84553 
L 79.836215 153.199206 
L 80.090105 192.952573 
L 80.343996 192.952573 
L 80.597886 196.175825 
L 80.851776 180.059568 
L 81.105666 228.40824 
L 81.359557 192.952573 
L 81.613447 177.910766 
L 81.867337 191.878124 
L 82.121227 187.580472 
L 82.375118 171.464264 
L 82.629008 180.059568 
L 82.882898 192.952573 
L 83.136788 192.952573 
L 83.390679 189.729322 
L 83.644569 151.050404 
L 83.898459 178.985216 
L 84.15235 118.817988 
L 84.40624 141.38065 
L 84.66013 194.026974 
L 84.91402 176.836317 
L 85.167911 147.827153 
L 85.421801 188.654921 
L 85.675691 180.059568 
L 85.929581 180.059568 
L 86.437362 229.482641 
L 86.945142 166.092211 
L 87.199033 180.059568 
L 87.452923 176.836317 
L 87.706813 194.026974 
L 87.960703 155.348007 
L 88.214594 159.645708 
L 88.468484 216.589685 
L 88.722374 173.613066 
L 88.976264 174.687515 
L 89.230155 162.86896 
L 89.484045 143.529452 
L 89.737935 230.557091 
L 89.991825 184.357269 
L 90.245716 191.878124 
L 90.499606 215.515284 
L 90.753496 158.571259 
L 91.007386 186.506071 
L 91.515167 166.092211 
L 92.022947 198.324627 
L 92.276838 180.059568 
L 92.530728 181.134018 
L 92.784618 165.017761 
L 93.038508 185.431621 
L 93.292399 129.562094 
L 93.546289 99.47848 
L 94.30796 180.059568 
L 94.56185 181.134018 
L 94.81574 180.059568 
L 95.06963 182.20837 
L 95.323521 188.654921 
L 95.577411 180.059568 
L 95.831301 185.431621 
L 96.085191 144.603901 
L 96.339082 185.431621 
L 96.592972 144.603901 
L 96.846862 177.910766 
L 97.100752 137.082949 
L 97.354643 188.654921 
L 97.608533 145.678351 
L 97.862423 129.562094 
L 98.116313 131.710896 
L 98.370204 157.496906 
L 98.624094 119.89234 
L 98.877984 176.836317 
L 99.131874 199.399027 
L 99.385765 195.101375 
L 99.639655 173.613066 
L 99.893545 180.059568 
L 100.655216 180.059568 
L 100.909106 167.166563 
L 101.162997 180.059568 
L 101.416887 160.720158 
L 101.670777 178.985216 
L 101.924667 146.752703 
L 102.178558 151.050404 
L 102.432448 178.985216 
L 102.686338 180.059568 
L 103.194119 153.199206 
L 103.448009 174.687515 
L 103.701899 146.752703 
L 103.955789 148.901602 
L 104.20968 177.910766 
L 104.46357 177.910766 
L 104.71746 189.729322 
L 105.225241 97.329679 
L 105.479131 180.059568 
L 105.733021 183.28282 
L 105.986911 124.190041 
L 106.240802 151.050404 
L 106.748582 120.96679 
L 107.002472 191.878124 
L 107.256363 175.761965 
L 107.510253 180.059568 
L 107.764143 128.487645 
L 108.018033 134.934147 
L 108.271924 154.273655 
L 108.525814 130.636544 
L 108.779704 180.059568 
L 109.033594 180.059568 
L 109.287485 177.910766 
L 109.541375 98.404031 
L 109.795265 195.101375 
L 110.049155 133.859795 
L 110.303046 140.3062 
L 110.556936 176.836317 
L 110.810826 180.059568 
L 111.064716 85.511123 
L 111.318607 180.059568 
L 111.572497 126.338843 
L 111.826387 138.157399 
L 112.080277 175.761965 
L 112.588058 118.817988 
L 112.841948 175.761965 
L 113.095838 180.059568 
L 113.349729 77.990171 
L 113.603619 181.134018 
L 113.857509 187.580472 
L 114.111399 177.910766 
L 114.36529 182.20837 
L 114.61918 176.836317 
L 114.87307 69.394866 
L 115.12696 156.422457 
L 115.380851 167.166563 
L 115.634741 167.166563 
L 115.888631 173.613066 
L 116.142521 131.710896 
L 116.650302 124.190041 
L 116.904192 143.529452 
L 117.158083 114.520287 
L 117.411973 120.96679 
L 117.665863 77.990171 
L 117.919753 134.934147 
L 118.173644 123.115592 
L 118.427534 139.231848 
L 118.935314 102.701732 
L 119.189205 96.255229 
L 119.443095 178.985216 
L 119.696985 138.157399 
L 119.950875 151.050404 
L 120.204766 68.320417 
L 120.458656 158.571259 
L 120.712546 73.692567 
L 120.966436 84.436673 
L 121.220327 120.96679 
L 121.474217 180.059568 
L 121.728107 147.827153 
L 121.981997 144.603901 
L 122.235888 130.636544 
L 122.489778 104.850533 
L 122.743668 146.752703 
L 122.997558 137.082949 
L 123.251449 141.38065 
L 123.505339 91.957528 
L 123.759229 180.059568 
L 124.013119 89.808726 
L 124.26701 176.836317 
L 124.5209 74.766919 
L 124.77479 87.659925 
L 125.02868 134.934147 
L 125.282571 104.850533 
L 125.536461 125.264393 
L 125.790351 86.585475 
L 126.044241 68.320417 
L 126.298132 80.138972 
L 126.805912 178.985216 
L 127.059802 120.96679 
L 127.313693 158.571259 
L 127.567583 147.827153 
L 127.821473 154.273655 
L 128.075363 104.850533 
L 128.329254 111.297036 
L 128.583144 158.571259 
L 128.837034 108.073785 
L 129.090924 129.562094 
L 129.344815 134.934147 
L 129.598705 101.627282 
L 129.852595 130.636544 
L 130.106485 173.613066 
L 130.360376 74.766919 
L 130.614266 141.38065 
L 130.868156 95.180779 
L 131.122046 116.669089 
L 131.375937 118.817988 
L 131.629827 168.241013 
L 131.883717 104.850533 
L 132.137607 139.231848 
L 132.391498 212.292033 
L 132.645388 136.008597 
L 132.899278 116.669089 
L 133.153169 88.734374 
L 133.407059 142.455099 
L 133.660949 76.915819 
L 133.914839 89.808726 
L 134.16873 115.594737 
L 134.42262 75.841369 
L 134.67651 221.961738 
L 135.438181 93.031978 
L 135.945961 128.487645 
L 136.199852 133.859795 
L 136.453742 118.817988 
L 136.707632 79.06462 
L 136.961522 112.371486 
L 137.215413 88.734374 
L 137.469303 119.89234 
L 137.723193 75.841369 
L 137.977083 75.841369 
L 138.230974 73.692567 
L 138.738754 171.464264 
L 138.992644 66.171615 
L 139.246535 108.073785 
L 139.500425 75.841369 
L 140.008205 159.645708 
L 140.262096 189.729322 
L 140.515986 124.190041 
L 140.769876 131.710896 
L 141.023766 145.678351 
L 141.277657 195.101375 
L 141.531547 141.38065 
L 141.785437 162.86896 
L 142.039327 136.008597 
L 142.293218 141.38065 
L 142.547108 114.520287 
L 142.800998 158.571259 
L 143.054888 147.827153 
L 143.308779 110.222586 
L 143.562669 156.422457 
L 143.816559 158.571259 
L 144.32434 109.148234 
L 144.57823 147.827153 
L 144.83212 149.975954 
L 145.08601 186.506071 
L 145.339901 95.180779 
L 145.593791 126.338843 
L 145.847681 122.041142 
L 146.101571 144.603901 
L 146.355462 127.413292 
L 146.609352 127.413292 
L 146.863242 87.659925 
L 147.117132 160.720158 
L 147.371023 131.710896 
L 147.624913 129.562094 
L 147.878803 143.529452 
L 148.132693 137.082949 
L 148.386584 104.850533 
L 148.640474 127.413292 
L 148.894364 104.850533 
L 149.148255 122.041142 
L 149.656035 130.636544 
L 149.909925 162.86896 
L 150.163816 130.636544 
L 150.417706 175.761965 
L 150.671596 162.86896 
L 150.925486 127.413292 
L 151.179377 147.827153 
L 151.433267 125.264393 
L 151.687157 147.827153 
L 151.941047 153.199206 
L 152.194938 143.529452 
L 152.448828 178.985216 
L 152.702718 93.031978 
L 152.956608 83.362224 
L 153.210499 93.031978 
L 153.464389 111.297036 
L 153.718279 103.776181 
L 153.972169 72.618118 
L 154.22606 118.817988 
L 154.47995 142.455099 
L 154.73384 145.678351 
L 154.98773 132.785346 
L 155.241621 87.659925 
L 155.495511 144.603901 
L 155.749401 136.008597 
L 156.003291 73.692567 
L 156.257182 130.636544 
L 156.511072 130.636544 
L 156.764962 138.157399 
L 157.018852 130.636544 
L 157.272743 130.636544 
L 157.526633 87.659925 
L 157.780523 96.255229 
L 158.034413 137.082949 
L 158.288304 126.338843 
L 158.542194 86.585475 
L 158.796084 134.934147 
L 159.049974 129.562094 
L 159.303865 154.273655 
L 159.557755 75.841369 
L 159.811645 124.190041 
L 160.065535 144.603901 
L 160.573316 72.618118 
L 161.081096 180.059568 
L 161.334987 89.808726 
L 161.588877 96.255229 
L 161.842767 109.148234 
L 162.096657 129.562094 
L 162.350548 119.89234 
L 162.604438 80.138972 
L 163.112218 174.687515 
L 163.366109 124.190041 
L 163.619999 178.985216 
L 163.873889 129.562094 
L 164.127779 136.008597 
L 164.38167 88.734374 
L 164.63556 100.55293 
L 164.88945 158.571259 
L 165.14334 89.808726 
L 165.397231 122.041142 
L 165.651121 73.692567 
L 165.905011 134.934147 
L 166.158902 144.603901 
L 166.666682 117.743539 
L 166.920572 141.38065 
L 167.174463 125.264393 
L 167.428353 180.059568 
L 167.682243 180.059568 
L 167.936133 169.315462 
L 168.190024 177.910766 
L 168.443914 66.171615 
L 168.697804 194.026974 
L 168.951694 178.985216 
L 169.205585 173.613066 
L 169.459475 73.692567 
L 169.713365 180.059568 
L 169.967255 181.134018 
L 170.221146 132.785346 
L 170.475036 175.761965 
L 170.728926 166.092211 
L 170.982816 86.585475 
L 171.236707 178.985216 
L 171.490597 175.761965 
L 171.744487 191.878124 
L 171.998377 133.859795 
L 172.252268 152.124756 
L 172.506158 144.603901 
L 172.760048 182.20837 
L 173.013938 181.134018 
L 173.267829 183.28282 
L 173.521719 87.659925 
L 173.775609 88.734374 
L 174.029499 93.031978 
L 174.28339 61.874012 
L 174.53728 70.469316 
L 174.79117 101.627282 
L 175.04506 181.134018 
L 175.298951 180.059568 
L 175.552841 77.990171 
L 175.806731 76.915819 
L 176.060621 74.766919 
L 176.568402 180.059568 
L 177.583963 180.059568 
L 178.091743 82.287872 
L 178.345634 174.687515 
L 178.599524 178.985216 
L 178.853414 180.059568 
L 179.107304 93.031978 
L 179.361195 132.785346 
L 179.615085 139.231848 
L 179.868975 116.669089 
L 180.122865 141.38065 
L 180.376756 114.520287 
L 180.630646 180.059568 
L 180.884536 186.506071 
L 181.138426 181.134018 
L 181.392317 180.059568 
L 182.407878 180.059568 
L 182.661768 181.134018 
L 182.915658 64.022813 
L 183.169549 70.469316 
L 183.423439 180.059568 
L 183.677329 114.520287 
L 184.18511 74.766919 
L 184.439 87.659925 
L 184.69289 129.562094 
L 184.94678 67.246065 
L 185.200671 81.213422 
L 185.454561 126.338843 
L 185.708451 138.157399 
L 185.962341 182.20837 
L 186.216232 129.562094 
L 186.724012 139.231848 
L 186.977902 88.734374 
L 187.485683 136.008597 
L 187.739573 133.859795 
L 187.993463 126.338843 
L 188.247354 148.901602 
L 188.501244 130.636544 
L 188.755134 125.264393 
L 189.009024 137.082949 
L 189.262915 118.817988 
L 189.516805 85.511123 
L 189.770695 109.148234 
L 190.024585 145.678351 
L 190.278476 136.008597 
L 190.532366 134.934147 
L 190.786256 134.934147 
L 191.040146 140.3062 
L 191.294037 130.636544 
L 191.547927 145.678351 
L 192.055707 89.808726 
L 192.309598 75.841369 
L 192.563488 131.710896 
L 192.817378 83.362224 
L 193.071268 91.957528 
L 193.325159 111.297036 
L 193.579049 76.915819 
L 193.832939 109.148234 
L 194.086829 79.06462 
L 194.34072 75.841369 
L 194.59461 81.213422 
L 194.8485 67.246065 
L 195.10239 147.827153 
L 195.356281 177.910766 
L 195.610171 113.445838 
L 195.864061 114.520287 
L 196.371842 140.3062 
L 196.625732 128.487645 
L 196.879622 131.710896 
L 197.387403 133.859795 
L 197.641293 140.3062 
L 197.895183 82.287872 
L 198.149074 81.213422 
L 198.402964 86.585475 
L 198.656854 88.734374 
L 198.910744 75.841369 
L 199.164635 86.585475 
L 199.418525 120.96679 
L 199.672415 70.469316 
L 199.926305 86.585475 
L 200.180196 68.320417 
L 200.941866 180.059568 
L 201.195757 115.594737 
L 201.703537 157.496906 
L 202.211318 108.073785 
L 202.465208 99.47848 
L 202.719098 123.115592 
L 202.972988 134.934147 
L 203.226879 168.241013 
L 203.480769 142.455099 
L 203.988549 177.910766 
L 204.24244 111.297036 
L 204.49633 168.241013 
L 204.75022 143.529452 
L 205.258001 119.89234 
L 205.511891 129.562094 
L 205.765781 144.603901 
L 206.273562 144.603901 
L 206.527452 134.934147 
L 206.781342 155.348007 
L 207.035232 134.934147 
L 207.289123 130.636544 
L 207.543013 113.445838 
L 208.050793 128.487645 
L 208.558574 69.394866 
L 208.812464 137.082949 
L 209.066354 116.669089 
L 209.574135 163.943409 
L 209.828025 144.603901 
L 210.081915 111.297036 
L 210.335806 112.371486 
L 210.589696 165.017761 
L 211.097476 129.562094 
L 211.351367 153.199206 
L 211.605257 133.859795 
L 211.859147 148.901602 
L 212.113037 154.273655 
L 212.366928 126.338843 
L 212.620818 141.38065 
L 212.874708 111.297036 
L 213.382489 138.157399 
L 213.636379 146.752703 
L 213.890269 177.910766 
L 214.14416 137.082949 
L 214.39805 118.817988 
L 214.65194 115.594737 
L 215.159721 133.859795 
L 215.413611 134.934147 
L 215.667501 132.785346 
L 215.921391 125.264393 
L 216.175282 72.618118 
L 216.429172 74.766919 
L 216.683062 165.017761 
L 216.936952 155.348007 
L 217.444733 119.89234 
L 217.698623 143.529452 
L 218.460294 168.241013 
L 218.714184 136.008597 
L 218.968074 119.89234 
L 219.475855 119.89234 
L 219.729745 147.827153 
L 219.983635 122.041142 
L 220.237526 161.79451 
L 220.491416 129.562094 
L 220.745306 130.636544 
L 220.999196 178.985216 
L 221.253087 139.231848 
L 221.506977 148.901602 
L 221.760867 85.511123 
L 222.014757 148.901602 
L 222.268648 153.199206 
L 222.522538 162.86896 
L 222.776428 120.96679 
L 223.030318 145.678351 
L 223.284209 128.487645 
L 223.538099 128.487645 
L 223.791989 130.636544 
L 224.045879 158.571259 
L 224.29977 127.413292 
L 224.55366 112.371486 
L 224.80755 129.562094 
L 225.06144 120.96679 
L 225.315331 175.761965 
L 225.569221 160.720158 
L 225.823111 165.017761 
L 226.077001 157.496906 
L 226.584782 130.636544 
L 226.838672 82.287872 
L 227.092562 105.924983 
L 227.600343 187.580472 
L 227.854233 136.008597 
L 228.108123 145.678351 
L 228.362014 123.115592 
L 228.615904 123.115592 
L 228.869794 161.79451 
L 229.123684 125.264393 
L 229.377575 132.785346 
L 229.631465 127.413292 
L 229.885355 127.413292 
L 230.139245 136.008597 
L 230.393136 132.785346 
L 230.900916 154.273655 
L 231.154807 126.338843 
L 231.408697 120.96679 
L 231.662587 132.785346 
L 231.916477 153.199206 
L 232.170368 145.678351 
L 232.424258 122.041142 
L 232.678148 126.338843 
L 232.932038 134.934147 
L 233.185929 152.124756 
L 233.439819 159.645708 
L 233.693709 143.529452 
L 233.947599 159.645708 
L 234.20149 139.231848 
L 234.70927 131.710896 
L 234.96316 159.645708 
L 235.217051 119.89234 
L 235.724831 166.092211 
L 235.978721 165.017761 
L 236.232612 166.092211 
L 236.486502 174.687515 
L 236.740392 173.613066 
L 236.994282 125.264393 
L 237.248173 165.017761 
L 237.502063 159.645708 
L 237.755953 126.338843 
L 238.009843 141.38065 
L 238.517624 155.348007 
L 238.771514 118.817988 
L 239.025404 146.752703 
L 239.279295 125.264393 
L 239.533185 192.952573 
L 239.787075 120.96679 
L 240.040965 128.487645 
L 240.548746 157.496906 
L 240.802636 137.082949 
L 241.056526 152.124756 
L 241.310417 124.190041 
L 241.564307 157.496906 
L 241.818197 163.943409 
L 242.072087 123.115592 
L 242.325978 143.529452 
L 242.579868 154.273655 
L 242.833758 117.743539 
L 243.087648 129.562094 
L 243.341539 127.413292 
L 243.595429 137.082949 
L 243.849319 120.96679 
L 244.103209 158.571259 
L 244.3571 128.487645 
L 244.61099 133.859795 
L 245.372661 168.241013 
L 245.626551 123.115592 
L 245.880441 143.529452 
L 246.134331 145.678351 
L 246.388222 127.413292 
L 246.896002 152.124756 
L 247.149893 134.934147 
L 247.403783 136.008597 
L 247.657673 184.357269 
L 248.165454 122.041142 
L 248.419344 136.008597 
L 248.673234 126.338843 
L 248.927124 143.529452 
L 249.181015 172.538713 
L 249.434905 158.571259 
L 249.688795 136.008597 
L 250.196576 149.975954 
L 250.450466 133.859795 
L 250.958246 69.394866 
L 251.212137 133.859795 
L 251.466027 131.710896 
L 251.719917 128.487645 
L 251.973807 140.3062 
L 252.227698 136.008597 
L 252.481588 127.413292 
L 252.735478 129.562094 
L 252.989368 130.636544 
L 253.243259 112.371486 
L 253.497149 130.636544 
L 253.751039 113.445838 
L 254.004929 114.520287 
L 254.25882 123.115592 
L 254.51271 119.89234 
L 254.7666 126.338843 
L 255.528271 189.729322 
L 255.782161 144.603901 
L 256.036051 186.506071 
L 256.289942 118.817988 
L 256.543832 132.785346 
L 256.797722 122.041142 
L 257.051612 131.710896 
L 257.305503 181.134018 
L 257.559393 84.436673 
L 257.813283 177.910766 
L 258.067173 138.157399 
L 258.321064 74.766919 
L 258.574954 136.008597 
L 258.828844 80.138972 
L 259.082734 123.115592 
L 259.336625 120.96679 
L 259.590515 156.422457 
L 259.844405 149.975954 
L 260.098295 128.487645 
L 260.352186 130.636544 
L 260.606076 167.166563 
L 260.859966 139.231848 
L 261.367747 116.669089 
L 261.621637 159.645708 
L 261.875527 122.041142 
L 262.129417 132.785346 
L 262.383308 155.348007 
L 262.637198 147.827153 
L 262.891088 130.636544 
L 263.144979 133.859795 
L 263.398869 143.529452 
L 263.652759 77.990171 
L 263.906649 148.901602 
L 264.16054 143.529452 
L 264.41443 133.859795 
L 264.66832 142.455099 
L 264.92221 166.092211 
L 265.176101 140.3062 
L 265.429991 155.348007 
L 265.683881 140.3062 
L 265.937771 76.915819 
L 266.191662 120.96679 
L 266.445552 79.06462 
L 266.953332 158.571259 
L 267.207223 152.124756 
L 267.461113 141.38065 
L 267.715003 86.585475 
L 267.968893 96.255229 
L 268.222784 70.469316 
L 268.476674 89.808726 
L 268.730564 148.901602 
L 268.984454 128.487645 
L 269.238345 163.943409 
L 269.492235 154.273655 
L 269.746125 133.859795 
L 270.000015 147.827153 
L 270.253906 137.082949 
L 270.507796 166.092211 
L 270.761686 139.231848 
L 271.015576 166.092211 
L 271.269467 126.338843 
L 271.523357 149.975954 
L 271.777247 162.86896 
L 272.031137 145.678351 
L 272.285028 147.827153 
L 272.538918 84.436673 
L 272.792808 70.469316 
L 273.046698 142.455099 
L 273.300589 124.190041 
L 273.554479 129.562094 
L 273.808369 127.413292 
L 274.062259 129.562094 
L 274.31615 133.859795 
L 274.57004 173.613066 
L 274.82393 140.3062 
L 275.07782 148.901602 
L 275.585601 120.96679 
L 275.839491 156.422457 
L 276.093381 154.273655 
L 276.347272 156.422457 
L 276.601162 124.190041 
L 276.855052 140.3062 
L 277.108942 123.115592 
L 277.616723 123.115592 
L 278.124503 136.008597 
L 278.378394 133.859795 
L 278.886174 183.28282 
L 279.140064 148.901602 
L 279.393955 143.529452 
L 279.647845 122.041142 
L 279.901735 153.199206 
L 280.155626 137.082949 
L 280.409516 128.487645 
L 280.663406 177.910766 
L 280.917296 129.562094 
L 281.425077 141.38065 
L 281.678967 149.975954 
L 281.932857 144.603901 
L 282.186748 130.636544 
L 282.440638 139.231848 
L 282.694528 133.859795 
L 282.948418 156.422457 
L 283.202309 142.455099 
L 283.456199 173.613066 
L 283.710089 117.743539 
L 283.963979 149.975954 
L 284.21787 113.445838 
L 284.47176 145.678351 
L 284.72565 134.934147 
L 284.97954 170.389814 
L 285.233431 137.082949 
L 285.487321 70.469316 
L 285.741211 124.190041 
L 285.995101 134.934147 
L 286.248992 137.082949 
L 286.502882 136.008597 
L 286.756772 122.041142 
L 287.264553 149.975954 
L 287.518443 157.496906 
L 287.772333 176.836317 
L 288.026223 127.413292 
L 288.280114 165.017761 
L 288.534004 151.050404 
L 288.787894 125.264393 
L 289.041784 158.571259 
L 289.295675 123.115592 
L 289.549565 127.413292 
L 289.803455 128.487645 
L 290.057345 132.785346 
L 290.311236 131.710896 
L 290.565126 123.115592 
L 290.819016 98.404031 
L 291.072906 152.124756 
L 291.326797 129.562094 
L 291.580687 125.264393 
L 291.834577 137.082949 
L 292.088467 93.031978 
L 292.342358 137.082949 
L 292.596248 140.3062 
L 292.850138 126.338843 
L 293.104028 146.752703 
L 293.357919 152.124756 
L 293.611809 118.817988 
L 293.865699 126.338843 
L 294.119589 146.752703 
L 294.62737 146.752703 
L 294.88126 171.464264 
L 295.13515 144.603901 
L 295.389041 129.562094 
L 295.642931 141.38065 
L 296.150712 148.901602 
L 296.404602 122.041142 
L 296.658492 155.348007 
L 296.912382 159.645708 
L 297.166273 119.89234 
L 297.420163 125.264393 
L 297.674053 160.720158 
L 297.927943 131.710896 
L 298.181834 142.455099 
L 298.435724 158.571259 
L 298.689614 124.190041 
L 298.943504 139.231848 
L 299.197395 127.413292 
L 299.451285 128.487645 
L 299.705175 120.96679 
L 300.212956 161.79451 
L 300.466846 143.529452 
L 300.720736 148.901602 
L 300.974626 129.562094 
L 301.228517 144.603901 
L 301.482407 134.934147 
L 301.736297 145.678351 
L 301.990187 139.231848 
L 302.244078 124.190041 
L 302.497968 139.231848 
L 302.751858 136.008597 
L 303.005748 166.092211 
L 303.259639 140.3062 
L 303.513529 138.157399 
L 303.767419 178.985216 
L 304.021309 181.134018 
L 304.2752 133.859795 
L 304.52909 137.082949 
L 304.78298 184.357269 
L 305.03687 128.487645 
L 305.290761 113.445838 
L 305.544651 149.975954 
L 305.798541 146.752703 
L 306.052431 185.431621 
L 306.306322 75.841369 
L 306.560212 126.338843 
L 306.814102 125.264393 
L 307.067992 154.273655 
L 307.321883 141.38065 
L 307.575773 167.166563 
L 307.829663 160.720158 
L 308.083553 122.041142 
L 308.337444 129.562094 
L 308.591334 141.38065 
L 308.845224 177.910766 
L 309.099114 132.785346 
L 309.353005 120.96679 
L 309.606895 162.86896 
L 309.860785 119.89234 
L 310.114675 132.785346 
L 310.368566 125.264393 
L 310.622456 105.924983 
L 310.876346 161.79451 
L 311.130236 141.38065 
L 311.384127 133.859795 
L 311.638017 153.199206 
L 311.891907 197.250226 
L 312.145798 162.86896 
L 312.399688 171.464264 
L 312.653578 166.092211 
L 312.907468 153.199206 
L 313.161359 124.190041 
L 313.415249 133.859795 
L 313.669139 137.082949 
L 313.923029 137.082949 
L 314.17692 157.496906 
L 314.43081 132.785346 
L 314.6847 127.413292 
L 314.93859 145.678351 
L 315.192481 133.859795 
L 315.446371 114.520287 
L 315.700261 174.687515 
L 315.954151 117.743539 
L 316.208042 124.190041 
L 316.461932 196.175825 
L 316.461932 196.175825 
" clip-path="url(#p8b08ffd4d3)" style="fill: none; stroke: #ff0000; stroke-width: 0.6; stroke-linecap: square"/>
   </g>
   <g id="patch_3">
    <path d="M 50.14375 239.76 
L 50.14375 37.296 
" style="fill: none; stroke: #000000; stroke-width: 0.8; stroke-linejoin: miter; stroke-linecap: square"/>
   </g>
   <g id="patch_4">
    <path d="M 329.14375 239.76 
L 329.14375 37.296 
" style="fill: none; stroke: #000000; stroke-width: 0.8; stroke-linejoin: miter; stroke-linecap: square"/>
   </g>
   <g id="patch_5">
    <path d="M 50.14375 239.76 
L 329.14375 239.76 
" style="fill: none; stroke: #000000; stroke-width: 0.8; stroke-linejoin: miter; stroke-linecap: square"/>
   </g>
   <g id="patch_6">
    <path d="M 50.14375 37.296 
L 329.14375 37.296 
" style="fill: none; stroke: #000000; stroke-width: 0.8; stroke-linejoin: miter; stroke-linecap: square"/>
   </g>
   <g id="text_15">
    <!-- Baseline Model -->
    <g transform="translate(155.622344 31.296) scale(0.09 -0.09)">
     <defs>
      <path id="DejaVuSans-42" d="M 1259 2228 
L 1259 519 
L 2272 519 
Q 2781 519 3026 730 
Q 3272 941 3272 1375 
Q 3272 1813 3026 2020 
Q 2781 2228 2272 2228 
L 1259 2228 
z
M 1259 4147 
L 1259 2741 
L 2194 2741 
Q 2656 2741 2882 2914 
Q 3109 3088 3109 3444 
Q 3109 3797 2882 3972 
Q 2656 4147 2194 4147 
L 1259 4147 
z
M 628 4666 
L 2241 4666 
Q 2963 4666 3353 4366 
Q 3744 4066 3744 3513 
Q 3744 3084 3544 2831 
Q 3344 2578 2956 2516 
Q 3422 2416 3680 2098 
Q 3938 1781 3938 1306 
Q 3938 681 3513 340 
Q 3088 0 2303 0 
L 628 0 
L 628 4666 
z
" transform="scale(0.015625)"/>
      <path id="DejaVuSans-65" d="M 3597 1894 
L 3597 1613 
L 953 1613 
Q 991 1019 1311 708 
Q 1631 397 2203 397 
Q 2534 397 2845 478 
Q 3156 559 3463 722 
L 3463 178 
Q 3153 47 2828 -22 
Q 2503 -91 2169 -91 
Q 1331 -91 842 396 
Q 353 884 353 1716 
Q 353 2575 817 3079 
Q 1281 3584 2069 3584 
Q 2775 3584 3186 3129 
Q 3597 2675 3597 1894 
z
M 3022 2063 
Q 3016 2534 2758 2815 
Q 2500 3097 2075 3097 
Q 1594 3097 1305 2825 
Q 1016 2553 972 2059 
L 3022 2063 
z
" transform="scale(0.015625)"/>
      <path id="DejaVuSans-6c" d="M 603 4863 
L 1178 4863 
L 1178 0 
L 603 0 
L 603 4863 
z
" transform="scale(0.015625)"/>
      <path id="DejaVuSans-69" d="M 603 3500 
L 1178 3500 
L 1178 0 
L 603 0 
L 603 3500 
z
M 603 4863 
L 1178 4863 
L 1178 4134 
L 603 4134 
L 603 4863 
z
" transform="scale(0.015625)"/>
      <path id="DejaVuSans-6e" d="M 3513 2113 
L 3513 0 
L 2938 0 
L 2938 2094 
Q 2938 2591 2744 2837 
Q 2550 3084 2163 3084 
Q 1697 3084 1428 2787 
Q 1159 2491 1159 1978 
L 1159 0 
L 581 0 
L 581 3500 
L 1159 3500 
L 1159 2956 
Q 1366 3272 1645 3428 
Q 1925 3584 2291 3584 
Q 2894 3584 3203 3211 
Q 3513 2838 3513 2113 
z
" transform="scale(0.015625)"/>
      <path id="DejaVuSans-20" transform="scale(0.015625)"/>
      <path id="DejaVuSans-4d" d="M 628 4666 
L 1569 4666 
L 2759 1491 
L 3956 4666 
L 4897 4666 
L 4897 0 
L 4281 0 
L 4281 4097 
L 3078 897 
L 2444 897 
L 1241 4097 
L 1241 0 
L 628 0 
L 628 4666 
z
" transform="scale(0.015625)"/>
      <path id="DejaVuSans-64" d="M 2906 2969 
L 2906 4863 
L 3481 4863 
L 3481 0 
L 2906 0 
L 2906 525 
Q 2725 213 2448 61 
Q 2172 -91 1784 -91 
Q 1150 -91 751 415 
Q 353 922 353 1747 
Q 353 2572 751 3078 
Q 1150 3584 1784 3584 
Q 2172 3584 2448 3432 
Q 2725 3281 2906 2969 
z
M 947 1747 
Q 947 1113 1208 752 
Q 1469 391 1925 391 
Q 2381 391 2643 752 
Q 2906 1113 2906 1747 
Q 2906 2381 2643 2742 
Q 2381 3103 1925 3103 
Q 1469 3103 1208 2742 
Q 947 2381 947 1747 
z
" transform="scale(0.015625)"/>
     </defs>
     <use xlink:href="#DejaVuSans-42"/>
     <use xlink:href="#DejaVuSans-61" x="68.603516"/>
     <use xlink:href="#DejaVuSans-73" x="129.882812"/>
     <use xlink:href="#DejaVuSans-65" x="181.982422"/>
     <use xlink:href="#DejaVuSans-6c" x="243.505859"/>
     <use xlink:href="#DejaVuSans-69" x="271.289062"/>
     <use xlink:href="#DejaVuSans-6e" x="299.072266"/>
     <use xlink:href="#DejaVuSans-65" x="362.451172"/>
     <use xlink:href="#DejaVuSans-20" x="423.974609"/>
     <use xlink:href="#DejaVuSans-4d" x="455.761719"/>
     <use xlink:href="#DejaVuSans-6f" x="542.041016"/>
     <use xlink:href="#DejaVuSans-64" x="603.222656"/>
     <use xlink:href="#DejaVuSans-65" x="666.699219"/>
     <use xlink:href="#DejaVuSans-6c" x="728.222656"/>
    </g>
   </g>
   <g id="legend_1">
    <g id="patch_7">
     <path d="M 191.928125 234.76 
L 322.14375 234.76 
Q 324.14375 234.76 324.14375 232.76 
L 324.14375 204.40375 
Q 324.14375 202.40375 322.14375 202.40375 
L 191.928125 202.40375 
Q 189.928125 202.40375 189.928125 204.40375 
L 189.928125 232.76 
Q 189.928125 234.76 191.928125 234.76 
z
" style="fill: #ffffff; opacity: 0.8; stroke: #cccccc; stroke-linejoin: miter"/>
    </g>
    <g id="line2d_27">
     <path d="M 193.928125 210.502187 
L 203.928125 210.502187 
L 213.928125 210.502187 
" style="fill: none; stroke: #0000ff; stroke-width: 0.6; stroke-linecap: square"/>
    </g>
    <g id="text_16">
     <!-- Training Accuracy -->
     <g transform="translate(221.928125 214.002187) scale(0.1 -0.1)">
      <defs>
       <path id="DejaVuSans-54" d="M -19 4666 
L 3928 4666 
L 3928 4134 
L 2272 4134 
L 2272 0 
L 1638 0 
L 1638 4134 
L -19 4134 
L -19 4666 
z
" transform="scale(0.015625)"/>
       <path id="DejaVuSans-67" d="M 2906 1791 
Q 2906 2416 2648 2759 
Q 2391 3103 1925 3103 
Q 1463 3103 1205 2759 
Q 947 2416 947 1791 
Q 947 1169 1205 825 
Q 1463 481 1925 481 
Q 2391 481 2648 825 
Q 2906 1169 2906 1791 
z
M 3481 434 
Q 3481 -459 3084 -895 
Q 2688 -1331 1869 -1331 
Q 1566 -1331 1297 -1286 
Q 1028 -1241 775 -1147 
L 775 -588 
Q 1028 -725 1275 -790 
Q 1522 -856 1778 -856 
Q 2344 -856 2625 -561 
Q 2906 -266 2906 331 
L 2906 616 
Q 2728 306 2450 153 
Q 2172 0 1784 0 
Q 1141 0 747 490 
Q 353 981 353 1791 
Q 353 2603 747 3093 
Q 1141 3584 1784 3584 
Q 2172 3584 2450 3431 
Q 2728 3278 2906 2969 
L 2906 3500 
L 3481 3500 
L 3481 434 
z
" transform="scale(0.015625)"/>
      </defs>
      <use xlink:href="#DejaVuSans-54"/>
      <use xlink:href="#DejaVuSans-72" x="46.333984"/>
      <use xlink:href="#DejaVuSans-61" x="87.447266"/>
      <use xlink:href="#DejaVuSans-69" x="148.726562"/>
      <use xlink:href="#DejaVuSans-6e" x="176.509766"/>
      <use xlink:href="#DejaVuSans-69" x="239.888672"/>
      <use xlink:href="#DejaVuSans-6e" x="267.671875"/>
      <use xlink:href="#DejaVuSans-67" x="331.050781"/>
      <use xlink:href="#DejaVuSans-20" x="394.527344"/>
      <use xlink:href="#DejaVuSans-41" x="426.314453"/>
      <use xlink:href="#DejaVuSans-63" x="492.972656"/>
      <use xlink:href="#DejaVuSans-63" x="547.953125"/>
      <use xlink:href="#DejaVuSans-75" x="602.933594"/>
      <use xlink:href="#DejaVuSans-72" x="666.3125"/>
      <use xlink:href="#DejaVuSans-61" x="707.425781"/>
      <use xlink:href="#DejaVuSans-63" x="768.705078"/>
      <use xlink:href="#DejaVuSans-79" x="823.685547"/>
     </g>
    </g>
    <g id="line2d_28">
     <path d="M 193.928125 225.180312 
L 203.928125 225.180312 
L 213.928125 225.180312 
" style="fill: none; stroke: #ff0000; stroke-width: 0.6; stroke-linecap: square"/>
    </g>
    <g id="text_17">
     <!-- Validation Accuracy -->
     <g transform="translate(221.928125 228.680312) scale(0.1 -0.1)">
      <defs>
       <path id="DejaVuSans-56" d="M 1831 0 
L 50 4666 
L 709 4666 
L 2188 738 
L 3669 4666 
L 4325 4666 
L 2547 0 
L 1831 0 
z
" transform="scale(0.015625)"/>
       <path id="DejaVuSans-74" d="M 1172 4494 
L 1172 3500 
L 2356 3500 
L 2356 3053 
L 1172 3053 
L 1172 1153 
Q 1172 725 1289 603 
Q 1406 481 1766 481 
L 2356 481 
L 2356 0 
L 1766 0 
Q 1100 0 847 248 
Q 594 497 594 1153 
L 594 3053 
L 172 3053 
L 172 3500 
L 594 3500 
L 594 4494 
L 1172 4494 
z
" transform="scale(0.015625)"/>
      </defs>
      <use xlink:href="#DejaVuSans-56"/>
      <use xlink:href="#DejaVuSans-61" x="60.658203"/>
      <use xlink:href="#DejaVuSans-6c" x="121.9375"/>
      <use xlink:href="#DejaVuSans-69" x="149.720703"/>
      <use xlink:href="#DejaVuSans-64" x="177.503906"/>
      <use xlink:href="#DejaVuSans-61" x="240.980469"/>
      <use xlink:href="#DejaVuSans-74" x="302.259766"/>
      <use xlink:href="#DejaVuSans-69" x="341.46875"/>
      <use xlink:href="#DejaVuSans-6f" x="369.251953"/>
      <use xlink:href="#DejaVuSans-6e" x="430.433594"/>
      <use xlink:href="#DejaVuSans-20" x="493.8125"/>
      <use xlink:href="#DejaVuSans-41" x="525.599609"/>
      <use xlink:href="#DejaVuSans-63" x="592.257812"/>
      <use xlink:href="#DejaVuSans-63" x="647.238281"/>
      <use xlink:href="#DejaVuSans-75" x="702.21875"/>
      <use xlink:href="#DejaVuSans-72" x="765.597656"/>
      <use xlink:href="#DejaVuSans-61" x="806.710938"/>
      <use xlink:href="#DejaVuSans-63" x="867.990234"/>
      <use xlink:href="#DejaVuSans-79" x="922.970703"/>
     </g>
    </g>
   </g>
  </g>
  <g id="text_18">
   <!-- Training VS. Validation Accuracy - Dataset Size = 100.0% -->
   <g transform="translate(27.796484 15.558281) scale(0.11 -0.11)">
    <defs>
     <path id="DejaVuSans-53" d="M 3425 4513 
L 3425 3897 
Q 3066 4069 2747 4153 
Q 2428 4238 2131 4238 
Q 1616 4238 1336 4038 
Q 1056 3838 1056 3469 
Q 1056 3159 1242 3001 
Q 1428 2844 1947 2747 
L 2328 2669 
Q 3034 2534 3370 2195 
Q 3706 1856 3706 1288 
Q 3706 609 3251 259 
Q 2797 -91 1919 -91 
Q 1588 -91 1214 -16 
Q 841 59 441 206 
L 441 856 
Q 825 641 1194 531 
Q 1563 422 1919 422 
Q 2459 422 2753 634 
Q 3047 847 3047 1241 
Q 3047 1584 2836 1778 
Q 2625 1972 2144 2069 
L 1759 2144 
Q 1053 2284 737 2584 
Q 422 2884 422 3419 
Q 422 4038 858 4394 
Q 1294 4750 2059 4750 
Q 2388 4750 2728 4690 
Q 3069 4631 3425 4513 
z
" transform="scale(0.015625)"/>
     <path id="DejaVuSans-2d" d="M 313 2009 
L 1997 2009 
L 1997 1497 
L 313 1497 
L 313 2009 
z
" transform="scale(0.015625)"/>
     <path id="DejaVuSans-44" d="M 1259 4147 
L 1259 519 
L 2022 519 
Q 2988 519 3436 956 
Q 3884 1394 3884 2338 
Q 3884 3275 3436 3711 
Q 2988 4147 2022 4147 
L 1259 4147 
z
M 628 4666 
L 1925 4666 
Q 3281 4666 3915 4102 
Q 4550 3538 4550 2338 
Q 4550 1131 3912 565 
Q 3275 0 1925 0 
L 628 0 
L 628 4666 
z
" transform="scale(0.015625)"/>
     <path id="DejaVuSans-7a" d="M 353 3500 
L 3084 3500 
L 3084 2975 
L 922 459 
L 3084 459 
L 3084 0 
L 275 0 
L 275 525 
L 2438 3041 
L 353 3041 
L 353 3500 
z
" transform="scale(0.015625)"/>
     <path id="DejaVuSans-3d" d="M 678 2906 
L 4684 2906 
L 4684 2381 
L 678 2381 
L 678 2906 
z
M 678 1631 
L 4684 1631 
L 4684 1100 
L 678 1100 
L 678 1631 
z
" transform="scale(0.015625)"/>
     <path id="DejaVuSans-25" d="M 4653 2053 
Q 4381 2053 4226 1822 
Q 4072 1591 4072 1178 
Q 4072 772 4226 539 
Q 4381 306 4653 306 
Q 4919 306 5073 539 
Q 5228 772 5228 1178 
Q 5228 1588 5073 1820 
Q 4919 2053 4653 2053 
z
M 4653 2450 
Q 5147 2450 5437 2106 
Q 5728 1763 5728 1178 
Q 5728 594 5436 251 
Q 5144 -91 4653 -91 
Q 4153 -91 3862 251 
Q 3572 594 3572 1178 
Q 3572 1766 3864 2108 
Q 4156 2450 4653 2450 
z
M 1428 4353 
Q 1159 4353 1004 4120 
Q 850 3888 850 3481 
Q 850 3069 1003 2837 
Q 1156 2606 1428 2606 
Q 1700 2606 1854 2837 
Q 2009 3069 2009 3481 
Q 2009 3884 1853 4118 
Q 1697 4353 1428 4353 
z
M 4250 4750 
L 4750 4750 
L 1831 -91 
L 1331 -91 
L 4250 4750 
z
M 1428 4750 
Q 1922 4750 2215 4408 
Q 2509 4066 2509 3481 
Q 2509 2891 2217 2550 
Q 1925 2209 1428 2209 
Q 931 2209 642 2551 
Q 353 2894 353 3481 
Q 353 4063 643 4406 
Q 934 4750 1428 4750 
z
" transform="scale(0.015625)"/>
    </defs>
    <use xlink:href="#DejaVuSans-54"/>
    <use xlink:href="#DejaVuSans-72" x="46.333984"/>
    <use xlink:href="#DejaVuSans-61" x="87.447266"/>
    <use xlink:href="#DejaVuSans-69" x="148.726562"/>
    <use xlink:href="#DejaVuSans-6e" x="176.509766"/>
    <use xlink:href="#DejaVuSans-69" x="239.888672"/>
    <use xlink:href="#DejaVuSans-6e" x="267.671875"/>
    <use xlink:href="#DejaVuSans-67" x="331.050781"/>
    <use xlink:href="#DejaVuSans-20" x="394.527344"/>
    <use xlink:href="#DejaVuSans-56" x="426.314453"/>
    <use xlink:href="#DejaVuSans-53" x="494.722656"/>
    <use xlink:href="#DejaVuSans-2e" x="558.199219"/>
    <use xlink:href="#DejaVuSans-20" x="589.986328"/>
    <use xlink:href="#DejaVuSans-56" x="621.773438"/>
    <use xlink:href="#DejaVuSans-61" x="682.431641"/>
    <use xlink:href="#DejaVuSans-6c" x="743.710938"/>
    <use xlink:href="#DejaVuSans-69" x="771.494141"/>
    <use xlink:href="#DejaVuSans-64" x="799.277344"/>
    <use xlink:href="#DejaVuSans-61" x="862.753906"/>
    <use xlink:href="#DejaVuSans-74" x="924.033203"/>
    <use xlink:href="#DejaVuSans-69" x="963.242188"/>
    <use xlink:href="#DejaVuSans-6f" x="991.025391"/>
    <use xlink:href="#DejaVuSans-6e" x="1052.207031"/>
    <use xlink:href="#DejaVuSans-20" x="1115.585938"/>
    <use xlink:href="#DejaVuSans-41" x="1147.373047"/>
    <use xlink:href="#DejaVuSans-63" x="1214.03125"/>
    <use xlink:href="#DejaVuSans-63" x="1269.011719"/>
    <use xlink:href="#DejaVuSans-75" x="1323.992188"/>
    <use xlink:href="#DejaVuSans-72" x="1387.371094"/>
    <use xlink:href="#DejaVuSans-61" x="1428.484375"/>
    <use xlink:href="#DejaVuSans-63" x="1489.763672"/>
    <use xlink:href="#DejaVuSans-79" x="1544.744141"/>
    <use xlink:href="#DejaVuSans-20" x="1603.923828"/>
    <use xlink:href="#DejaVuSans-2d" x="1635.710938"/>
    <use xlink:href="#DejaVuSans-20" x="1671.794922"/>
    <use xlink:href="#DejaVuSans-44" x="1703.582031"/>
    <use xlink:href="#DejaVuSans-61" x="1780.583984"/>
    <use xlink:href="#DejaVuSans-74" x="1841.863281"/>
    <use xlink:href="#DejaVuSans-61" x="1881.072266"/>
    <use xlink:href="#DejaVuSans-73" x="1942.351562"/>
    <use xlink:href="#DejaVuSans-65" x="1994.451172"/>
    <use xlink:href="#DejaVuSans-74" x="2055.974609"/>
    <use xlink:href="#DejaVuSans-20" x="2095.183594"/>
    <use xlink:href="#DejaVuSans-53" x="2126.970703"/>
    <use xlink:href="#DejaVuSans-69" x="2190.447266"/>
    <use xlink:href="#DejaVuSans-7a" x="2218.230469"/>
    <use xlink:href="#DejaVuSans-65" x="2270.720703"/>
    <use xlink:href="#DejaVuSans-20" x="2332.244141"/>
    <use xlink:href="#DejaVuSans-3d" x="2364.03125"/>
    <use xlink:href="#DejaVuSans-20" x="2447.820312"/>
    <use xlink:href="#DejaVuSans-31" x="2479.607422"/>
    <use xlink:href="#DejaVuSans-30" x="2543.230469"/>
    <use xlink:href="#DejaVuSans-30" x="2606.853516"/>
    <use xlink:href="#DejaVuSans-2e" x="2670.476562"/>
    <use xlink:href="#DejaVuSans-30" x="2702.263672"/>
    <use xlink:href="#DejaVuSans-25" x="2765.886719"/>
   </g>
  </g>
 </g>
 <defs>
  <clipPath id="p8b08ffd4d3">
   <rect x="50.14375" y="37.296" width="279" height="202.464"/>
  </clipPath>
 </defs>
</svg>
