<?xml version="1.0" encoding="utf-8" standalone="no"?>
<!DOCTYPE svg PUBLIC "-//W3C//DTD SVG 1.1//EN"
  "http://www.w3.org/Graphics/SVG/1.1/DTD/svg11.dtd">
<svg xmlns:xlink="http://www.w3.org/1999/xlink" width="349.691016pt" height="277.31625pt" viewBox="0 0 349.691016 277.31625" xmlns="http://www.w3.org/2000/svg" version="1.1">
 <metadata>
  <rdf:RDF xmlns:dc="http://purl.org/dc/elements/1.1/" xmlns:cc="http://creativecommons.org/ns#" xmlns:rdf="http://www.w3.org/1999/02/22-rdf-syntax-ns#">
   <cc:Work>
    <dc:type rdf:resource="http://purl.org/dc/dcmitype/StillImage"/>
    <dc:date>2026-06-11T17:27:59.477603</dc:date>
    <dc:format>image/svg+xml</dc:format>
    <dc:creator>
     <cc:Agent>
      <dc:title>Matplotlib v3.8.4, https://matplotlib.org/</dc:title>
     </cc:Agent>
    </dc:creator>
   </cc:Work>
  </rdf:RDF>
 </metadata>
 <defs>
  <style type="text/css">*{stroke-linejoin: round; stroke-linecap: butt}</style>
 </defs>
 <g id="figure_1">
  <g id="patch_1">
   <path d="M 0 277.31625 
L 349.691016 277.31625 
L 349.691016 0 
L 0 0 
z
" style="fill: #ffffff"/>
  </g>
  <g id="axes_1">
   <g id="patch_2">
    <path d="M 50.14375 239.76 
L 329.14375 239.76 
L 329.14375 37.296 
L 50.14375 37.296 
z
" style="fill: #ffffff"/>
   </g>
   <g id="matplotlib.axis_1">
    <g id="xtick_1">
     <g id="line2d_1">
      <path d="M 62.571678 239.76 
L 62.571678 37.296 
" clip-path="url(#p9cd5630440)" style="fill: none; stroke-dasharray: 2.96,1.28; stroke-dashoffset: 0; stroke: #b0b0b0; stroke-opacity: 0.4; stroke-width: 0.8"/>
     </g>
     <g id="line2d_2">
      <defs>
       <path id="m5baa8bae93" d="M 0 0 
L 0 3.5 
" style="stroke: #000000; stroke-width: 0.8"/>
      </defs>
      <g>
       <use xlink:href="#m5baa8bae93" x="62.571678" y="239.76" style="stroke: #000000; stroke-width: 0.8"/>
      </g>
     </g>
     <g id="text_1">
      <!-- 0 -->
      <g transform="translate(59.390428 254.358437) scale(0.1 -0.1)">
       <defs>
        <path id="DejaVuSans-30" d="M 2034 4250 
Q 1547 4250 1301 3770 
Q 1056 3291 1056 2328 
Q 1056 1369 1301 889 
Q 1547 409 2034 409 
Q 2525 409 2770 889 
Q 3016 1369 3016 2328 
Q 3016 3291 2770 3770 
Q 2525 4250 2034 4250 
z
M 2034 4750 
Q 2819 4750 3233 4129 
Q 3647 3509 3647 2328 
Q 3647 1150 3233 529 
Q 2819 -91 2034 -91 
Q 1250 -91 836 529 
Q 422 1150 422 2328 
Q 422 3509 836 4129 
Q 1250 4750 2034 4750 
z
" transform="scale(0.015625)"/>
       </defs>
       <use xlink:href="#DejaVuSans-30"/>
      </g>
     </g>
    </g>
    <g id="xtick_2">
     <g id="line2d_3">
      <path d="M 113.349729 239.76 
L 113.349729 37.296 
" clip-path="url(#p9cd5630440)" style="fill: none; stroke-dasharray: 2.96,1.28; stroke-dashoffset: 0; stroke: #b0b0b0; stroke-opacity: 0.4; stroke-width: 0.8"/>
     </g>
     <g id="line2d_4">
      <g>
       <use xlink:href="#m5baa8bae93" x="113.349729" y="239.76" style="stroke: #000000; stroke-width: 0.8"/>
      </g>
     </g>
     <g id="text_2">
      <!-- 200 -->
      <g transform="translate(103.805979 254.358437) scale(0.1 -0.1)">
       <defs>
        <path id="DejaVuSans-32" d="M 1228 531 
L 3431 531 
L 3431 0 
L 469 0 
L 469 531 
Q 828 903 1448 1529 
Q 2069 2156 2228 2338 
Q 2531 2678 2651 2914 
Q 2772 3150 2772 3378 
Q 2772 3750 2511 3984 
Q 2250 4219 1831 4219 
Q 1534 4219 1204 4116 
Q 875 4013 500 3803 
L 500 4441 
Q 881 4594 1212 4672 
Q 1544 4750 1819 4750 
Q 2544 4750 2975 4387 
Q 3406 4025 3406 3419 
Q 3406 3131 3298 2873 
Q 3191 2616 2906 2266 
Q 2828 2175 2409 1742 
Q 1991 1309 1228 531 
z
" transform="scale(0.015625)"/>
       </defs>
       <use xlink:href="#DejaVuSans-32"/>
       <use xlink:href="#DejaVuSans-30" x="63.623047"/>
       <use xlink:href="#DejaVuSans-30" x="127.246094"/>
      </g>
     </g>
    </g>
    <g id="xtick_3">
     <g id="line2d_5">
      <path d="M 164.127779 239.76 
L 164.127779 37.296 
" clip-path="url(#p9cd5630440)" style="fill: none; stroke-dasharray: 2.96,1.28; stroke-dashoffset: 0; stroke: #b0b0b0; stroke-opacity: 0.4; stroke-width: 0.8"/>
     </g>
     <g id="line2d_6">
      <g>
       <use xlink:href="#m5baa8bae93" x="164.127779" y="239.76" style="stroke: #000000; stroke-width: 0.8"/>
      </g>
     </g>
     <g id="text_3">
      <!-- 400 -->
      <g transform="translate(154.584029 254.358437) scale(0.1 -0.1)">
       <defs>
        <path id="DejaVuSans-34" d="M 2419 4116 
L 825 1625 
L 2419 1625 
L 2419 4116 
z
M 2253 4666 
L 3047 4666 
L 3047 1625 
L 3713 1625 
L 3713 1100 
L 3047 1100 
L 3047 0 
L 2419 0 
L 2419 1100 
L 313 1100 
L 313 1709 
L 2253 4666 
z
" transform="scale(0.015625)"/>
       </defs>
       <use xlink:href="#DejaVuSans-34"/>
       <use xlink:href="#DejaVuSans-30" x="63.623047"/>
       <use xlink:href="#DejaVuSans-30" x="127.246094"/>
      </g>
     </g>
    </g>
    <g id="xtick_4">
     <g id="line2d_7">
      <path d="M 214.90583 239.76 
L 214.90583 37.296 
" clip-path="url(#p9cd5630440)" style="fill: none; stroke-dasharray: 2.96,1.28; stroke-dashoffset: 0; stroke: #b0b0b0; stroke-opacity: 0.4; stroke-width: 0.8"/>
     </g>
     <g id="line2d_8">
      <g>
       <use xlink:href="#m5baa8bae93" x="214.90583" y="239.76" style="stroke: #000000; stroke-width: 0.8"/>
      </g>
     </g>
     <g id="text_4">
      <!-- 600 -->
      <g transform="translate(205.36208 254.358437) scale(0.1 -0.1)">
       <defs>
        <path id="DejaVuSans-36" d="M 2113 2584 
Q 1688 2584 1439 2293 
Q 1191 2003 1191 1497 
Q 1191 994 1439 701 
Q 1688 409 2113 409 
Q 2538 409 2786 701 
Q 3034 994 3034 1497 
Q 3034 2003 2786 2293 
Q 2538 2584 2113 2584 
z
M 3366 4563 
L 3366 3988 
Q 3128 4100 2886 4159 
Q 2644 4219 2406 4219 
Q 1781 4219 1451 3797 
Q 1122 3375 1075 2522 
Q 1259 2794 1537 2939 
Q 1816 3084 2150 3084 
Q 2853 3084 3261 2657 
Q 3669 2231 3669 1497 
Q 3669 778 3244 343 
Q 2819 -91 2113 -91 
Q 1303 -91 875 529 
Q 447 1150 447 2328 
Q 447 3434 972 4092 
Q 1497 4750 2381 4750 
Q 2619 4750 2861 4703 
Q 3103 4656 3366 4563 
z
" transform="scale(0.015625)"/>
       </defs>
       <use xlink:href="#DejaVuSans-36"/>
       <use xlink:href="#DejaVuSans-30" x="63.623047"/>
       <use xlink:href="#DejaVuSans-30" x="127.246094"/>
      </g>
     </g>
    </g>
    <g id="xtick_5">
     <g id="line2d_9">
      <path d="M 265.683881 239.76 
L 265.683881 37.296 
" clip-path="url(#p9cd5630440)" style="fill: none; stroke-dasharray: 2.96,1.28; stroke-dashoffset: 0; stroke: #b0b0b0; stroke-opacity: 0.4; stroke-width: 0.8"/>
     </g>
     <g id="line2d_10">
      <g>
       <use xlink:href="#m5baa8bae93" x="265.683881" y="239.76" style="stroke: #000000; stroke-width: 0.8"/>
      </g>
     </g>
     <g id="text_5">
      <!-- 800 -->
      <g transform="translate(256.140131 254.358437) scale(0.1 -0.1)">
       <defs>
        <path id="DejaVuSans-38" d="M 2034 2216 
Q 1584 2216 1326 1975 
Q 1069 1734 1069 1313 
Q 1069 891 1326 650 
Q 1584 409 2034 409 
Q 2484 409 2743 651 
Q 3003 894 3003 1313 
Q 3003 1734 2745 1975 
Q 2488 2216 2034 2216 
z
M 1403 2484 
Q 997 2584 770 2862 
Q 544 3141 544 3541 
Q 544 4100 942 4425 
Q 1341 4750 2034 4750 
Q 2731 4750 3128 4425 
Q 3525 4100 3525 3541 
Q 3525 3141 3298 2862 
Q 3072 2584 2669 2484 
Q 3125 2378 3379 2068 
Q 3634 1759 3634 1313 
Q 3634 634 3220 271 
Q 2806 -91 2034 -91 
Q 1263 -91 848 271 
Q 434 634 434 1313 
Q 434 1759 690 2068 
Q 947 2378 1403 2484 
z
M 1172 3481 
Q 1172 3119 1398 2916 
Q 1625 2713 2034 2713 
Q 2441 2713 2670 2916 
Q 2900 3119 2900 3481 
Q 2900 3844 2670 4047 
Q 2441 4250 2034 4250 
Q 1625 4250 1398 4047 
Q 1172 3844 1172 3481 
z
" transform="scale(0.015625)"/>
       </defs>
       <use xlink:href="#DejaVuSans-38"/>
       <use xlink:href="#DejaVuSans-30" x="63.623047"/>
       <use xlink:href="#DejaVuSans-30" x="127.246094"/>
      </g>
     </g>
    </g>
    <g id="xtick_6">
     <g id="line2d_11">
      <path d="M 316.461932 239.76 
L 316.461932 37.296 
" clip-path="url(#p9cd5630440)" style="fill: none; stroke-dasharray: 2.96,1.28; stroke-dashoffset: 0; stroke: #b0b0b0; stroke-opacity: 0.4; stroke-width: 0.8"/>
     </g>
     <g id="line2d_12">
      <g>
       <use xlink:href="#m5baa8bae93" x="316.461932" y="239.76" style="stroke: #000000; stroke-width: 0.8"/>
      </g>
     </g>
     <g id="text_6">
      <!-- 1000 -->
      <g transform="translate(303.736932 254.358437) scale(0.1 -0.1)">
       <defs>
        <path id="DejaVuSans-31" d="M 794 531 
L 1825 531 
L 1825 4091 
L 703 3866 
L 703 4441 
L 1819 4666 
L 2450 4666 
L 2450 531 
L 3481 531 
L 3481 0 
L 794 0 
L 794 531 
z
" transform="scale(0.015625)"/>
       </defs>
       <use xlink:href="#DejaVuSans-31"/>
       <use xlink:href="#DejaVuSans-30" x="63.623047"/>
       <use xlink:href="#DejaVuSans-30" x="127.246094"/>
       <use xlink:href="#DejaVuSans-30" x="190.869141"/>
      </g>
     </g>
    </g>
    <g id="text_7">
     <!-- Epochs -->
     <g transform="translate(171.728125 268.036562) scale(0.1 -0.1)">
      <defs>
       <path id="DejaVuSans-45" d="M 628 4666 
L 3578 4666 
L 3578 4134 
L 1259 4134 
L 1259 2753 
L 3481 2753 
L 3481 2222 
L 1259 2222 
L 1259 531 
L 3634 531 
L 3634 0 
L 628 0 
L 628 4666 
z
" transform="scale(0.015625)"/>
       <path id="DejaVuSans-70" d="M 1159 525 
L 1159 -1331 
L 581 -1331 
L 581 3500 
L 1159 3500 
L 1159 2969 
Q 1341 3281 1617 3432 
Q 1894 3584 2278 3584 
Q 2916 3584 3314 3078 
Q 3713 2572 3713 1747 
Q 3713 922 3314 415 
Q 2916 -91 2278 -91 
Q 1894 -91 1617 61 
Q 1341 213 1159 525 
z
M 3116 1747 
Q 3116 2381 2855 2742 
Q 2594 3103 2138 3103 
Q 1681 3103 1420 2742 
Q 1159 2381 1159 1747 
Q 1159 1113 1420 752 
Q 1681 391 2138 391 
Q 2594 391 2855 752 
Q 3116 1113 3116 1747 
z
" transform="scale(0.015625)"/>
       <path id="DejaVuSans-6f" d="M 1959 3097 
Q 1497 3097 1228 2736 
Q 959 2375 959 1747 
Q 959 1119 1226 758 
Q 1494 397 1959 397 
Q 2419 397 2687 759 
Q 2956 1122 2956 1747 
Q 2956 2369 2687 2733 
Q 2419 3097 1959 3097 
z
M 1959 3584 
Q 2709 3584 3137 3096 
Q 3566 2609 3566 1747 
Q 3566 888 3137 398 
Q 2709 -91 1959 -91 
Q 1206 -91 779 398 
Q 353 888 353 1747 
Q 353 2609 779 3096 
Q 1206 3584 1959 3584 
z
" transform="scale(0.015625)"/>
       <path id="DejaVuSans-63" d="M 3122 3366 
L 3122 2828 
Q 2878 2963 2633 3030 
Q 2388 3097 2138 3097 
Q 1578 3097 1268 2742 
Q 959 2388 959 1747 
Q 959 1106 1268 751 
Q 1578 397 2138 397 
Q 2388 397 2633 464 
Q 2878 531 3122 666 
L 3122 134 
Q 2881 22 2623 -34 
Q 2366 -91 2075 -91 
Q 1284 -91 818 406 
Q 353 903 353 1747 
Q 353 2603 823 3093 
Q 1294 3584 2113 3584 
Q 2378 3584 2631 3529 
Q 2884 3475 3122 3366 
z
" transform="scale(0.015625)"/>
       <path id="DejaVuSans-68" d="M 3513 2113 
L 3513 0 
L 2938 0 
L 2938 2094 
Q 2938 2591 2744 2837 
Q 2550 3084 2163 3084 
Q 1697 3084 1428 2787 
Q 1159 2491 1159 1978 
L 1159 0 
L 581 0 
L 581 4863 
L 1159 4863 
L 1159 2956 
Q 1366 3272 1645 3428 
Q 1925 3584 2291 3584 
Q 2894 3584 3203 3211 
Q 3513 2838 3513 2113 
z
" transform="scale(0.015625)"/>
       <path id="DejaVuSans-73" d="M 2834 3397 
L 2834 2853 
Q 2591 2978 2328 3040 
Q 2066 3103 1784 3103 
Q 1356 3103 1142 2972 
Q 928 2841 928 2578 
Q 928 2378 1081 2264 
Q 1234 2150 1697 2047 
L 1894 2003 
Q 2506 1872 2764 1633 
Q 3022 1394 3022 966 
Q 3022 478 2636 193 
Q 2250 -91 1575 -91 
Q 1294 -91 989 -36 
Q 684 19 347 128 
L 347 722 
Q 666 556 975 473 
Q 1284 391 1588 391 
Q 1994 391 2212 530 
Q 2431 669 2431 922 
Q 2431 1156 2273 1281 
Q 2116 1406 1581 1522 
L 1381 1569 
Q 847 1681 609 1914 
Q 372 2147 372 2553 
Q 372 3047 722 3315 
Q 1072 3584 1716 3584 
Q 2034 3584 2315 3537 
Q 2597 3491 2834 3397 
z
" transform="scale(0.015625)"/>
      </defs>
      <use xlink:href="#DejaVuSans-45"/>
      <use xlink:href="#DejaVuSans-70" x="63.183594"/>
      <use xlink:href="#DejaVuSans-6f" x="126.660156"/>
      <use xlink:href="#DejaVuSans-63" x="187.841797"/>
      <use xlink:href="#DejaVuSans-68" x="242.822266"/>
      <use xlink:href="#DejaVuSans-73" x="306.201172"/>
     </g>
    </g>
   </g>
   <g id="matplotlib.axis_2">
    <g id="ytick_1">
     <g id="line2d_13">
      <path d="M 50.14375 215.062636 
L 329.14375 215.062636 
" clip-path="url(#p9cd5630440)" style="fill: none; stroke-dasharray: 2.96,1.28; stroke-dashoffset: 0; stroke: #b0b0b0; stroke-opacity: 0.4; stroke-width: 0.8"/>
     </g>
     <g id="line2d_14">
      <defs>
       <path id="m9c1e1656e8" d="M 0 0 
L -3.5 0 
" style="stroke: #000000; stroke-width: 0.8"/>
      </defs>
      <g>
       <use xlink:href="#m9c1e1656e8" x="50.14375" y="215.062636" style="stroke: #000000; stroke-width: 0.8"/>
      </g>
     </g>
     <g id="text_8">
      <!-- 0.48 -->
      <g transform="translate(20.878125 218.861855) scale(0.1 -0.1)">
       <defs>
        <path id="DejaVuSans-2e" d="M 684 794 
L 1344 794 
L 1344 0 
L 684 0 
L 684 794 
z
" transform="scale(0.015625)"/>
       </defs>
       <use xlink:href="#DejaVuSans-30"/>
       <use xlink:href="#DejaVuSans-2e" x="63.623047"/>
       <use xlink:href="#DejaVuSans-34" x="95.410156"/>
       <use xlink:href="#DejaVuSans-38" x="159.033203"/>
      </g>
     </g>
    </g>
    <g id="ytick_2">
     <g id="line2d_15">
      <path d="M 50.14375 184.868306 
L 329.14375 184.868306 
" clip-path="url(#p9cd5630440)" style="fill: none; stroke-dasharray: 2.96,1.28; stroke-dashoffset: 0; stroke: #b0b0b0; stroke-opacity: 0.4; stroke-width: 0.8"/>
     </g>
     <g id="line2d_16">
      <g>
       <use xlink:href="#m9c1e1656e8" x="50.14375" y="184.868306" style="stroke: #000000; stroke-width: 0.8"/>
      </g>
     </g>
     <g id="text_9">
      <!-- 0.50 -->
      <g transform="translate(20.878125 188.667525) scale(0.1 -0.1)">
       <defs>
        <path id="DejaVuSans-35" d="M 691 4666 
L 3169 4666 
L 3169 4134 
L 1269 4134 
L 1269 2991 
Q 1406 3038 1543 3061 
Q 1681 3084 1819 3084 
Q 2600 3084 3056 2656 
Q 3513 2228 3513 1497 
Q 3513 744 3044 326 
Q 2575 -91 1722 -91 
Q 1428 -91 1123 -41 
Q 819 9 494 109 
L 494 744 
Q 775 591 1075 516 
Q 1375 441 1709 441 
Q 2250 441 2565 725 
Q 2881 1009 2881 1497 
Q 2881 1984 2565 2268 
Q 2250 2553 1709 2553 
Q 1456 2553 1204 2497 
Q 953 2441 691 2322 
L 691 4666 
z
" transform="scale(0.015625)"/>
       </defs>
       <use xlink:href="#DejaVuSans-30"/>
       <use xlink:href="#DejaVuSans-2e" x="63.623047"/>
       <use xlink:href="#DejaVuSans-35" x="95.410156"/>
       <use xlink:href="#DejaVuSans-30" x="159.033203"/>
      </g>
     </g>
    </g>
    <g id="ytick_3">
     <g id="line2d_17">
      <path d="M 50.14375 154.673977 
L 329.14375 154.673977 
" clip-path="url(#p9cd5630440)" style="fill: none; stroke-dasharray: 2.96,1.28; stroke-dashoffset: 0; stroke: #b0b0b0; stroke-opacity: 0.4; stroke-width: 0.8"/>
     </g>
     <g id="line2d_18">
      <g>
       <use xlink:href="#m9c1e1656e8" x="50.14375" y="154.673977" style="stroke: #000000; stroke-width: 0.8"/>
      </g>
     </g>
     <g id="text_10">
      <!-- 0.52 -->
      <g transform="translate(20.878125 158.473196) scale(0.1 -0.1)">
       <use xlink:href="#DejaVuSans-30"/>
       <use xlink:href="#DejaVuSans-2e" x="63.623047"/>
       <use xlink:href="#DejaVuSans-35" x="95.410156"/>
       <use xlink:href="#DejaVuSans-32" x="159.033203"/>
      </g>
     </g>
    </g>
    <g id="ytick_4">
     <g id="line2d_19">
      <path d="M 50.14375 124.479648 
L 329.14375 124.479648 
" clip-path="url(#p9cd5630440)" style="fill: none; stroke-dasharray: 2.96,1.28; stroke-dashoffset: 0; stroke: #b0b0b0; stroke-opacity: 0.4; stroke-width: 0.8"/>
     </g>
     <g id="line2d_20">
      <g>
       <use xlink:href="#m9c1e1656e8" x="50.14375" y="124.479648" style="stroke: #000000; stroke-width: 0.8"/>
      </g>
     </g>
     <g id="text_11">
      <!-- 0.54 -->
      <g transform="translate(20.878125 128.278867) scale(0.1 -0.1)">
       <use xlink:href="#DejaVuSans-30"/>
       <use xlink:href="#DejaVuSans-2e" x="63.623047"/>
       <use xlink:href="#DejaVuSans-35" x="95.410156"/>
       <use xlink:href="#DejaVuSans-34" x="159.033203"/>
      </g>
     </g>
    </g>
    <g id="ytick_5">
     <g id="line2d_21">
      <path d="M 50.14375 94.285318 
L 329.14375 94.285318 
" clip-path="url(#p9cd5630440)" style="fill: none; stroke-dasharray: 2.96,1.28; stroke-dashoffset: 0; stroke: #b0b0b0; stroke-opacity: 0.4; stroke-width: 0.8"/>
     </g>
     <g id="line2d_22">
      <g>
       <use xlink:href="#m9c1e1656e8" x="50.14375" y="94.285318" style="stroke: #000000; stroke-width: 0.8"/>
      </g>
     </g>
     <g id="text_12">
      <!-- 0.56 -->
      <g transform="translate(20.878125 98.084537) scale(0.1 -0.1)">
       <use xlink:href="#DejaVuSans-30"/>
       <use xlink:href="#DejaVuSans-2e" x="63.623047"/>
       <use xlink:href="#DejaVuSans-35" x="95.410156"/>
       <use xlink:href="#DejaVuSans-36" x="159.033203"/>
      </g>
     </g>
    </g>
    <g id="ytick_6">
     <g id="line2d_23">
      <path d="M 50.14375 64.090989 
L 329.14375 64.090989 
" clip-path="url(#p9cd5630440)" style="fill: none; stroke-dasharray: 2.96,1.28; stroke-dashoffset: 0; stroke: #b0b0b0; stroke-opacity: 0.4; stroke-width: 0.8"/>
     </g>
     <g id="line2d_24">
      <g>
       <use xlink:href="#m9c1e1656e8" x="50.14375" y="64.090989" style="stroke: #000000; stroke-width: 0.8"/>
      </g>
     </g>
     <g id="text_13">
      <!-- 0.58 -->
      <g transform="translate(20.878125 67.890208) scale(0.1 -0.1)">
       <use xlink:href="#DejaVuSans-30"/>
       <use xlink:href="#DejaVuSans-2e" x="63.623047"/>
       <use xlink:href="#DejaVuSans-35" x="95.410156"/>
       <use xlink:href="#DejaVuSans-38" x="159.033203"/>
      </g>
     </g>
    </g>
    <g id="text_14">
     <!-- Accuracy -->
     <g transform="translate(14.798438 161.356125) rotate(-90) scale(0.1 -0.1)">
      <defs>
       <path id="DejaVuSans-41" d="M 2188 4044 
L 1331 1722 
L 3047 1722 
L 2188 4044 
z
M 1831 4666 
L 2547 4666 
L 4325 0 
L 3669 0 
L 3244 1197 
L 1141 1197 
L 716 0 
L 50 0 
L 1831 4666 
z
" transform="scale(0.015625)"/>
       <path id="DejaVuSans-75" d="M 544 1381 
L 544 3500 
L 1119 3500 
L 1119 1403 
Q 1119 906 1312 657 
Q 1506 409 1894 409 
Q 2359 409 2629 706 
Q 2900 1003 2900 1516 
L 2900 3500 
L 3475 3500 
L 3475 0 
L 2900 0 
L 2900 538 
Q 2691 219 2414 64 
Q 2138 -91 1772 -91 
Q 1169 -91 856 284 
Q 544 659 544 1381 
z
M 1991 3584 
L 1991 3584 
z
" transform="scale(0.015625)"/>
       <path id="DejaVuSans-72" d="M 2631 2963 
Q 2534 3019 2420 3045 
Q 2306 3072 2169 3072 
Q 1681 3072 1420 2755 
Q 1159 2438 1159 1844 
L 1159 0 
L 581 0 
L 581 3500 
L 1159 3500 
L 1159 2956 
Q 1341 3275 1631 3429 
Q 1922 3584 2338 3584 
Q 2397 3584 2469 3576 
Q 2541 3569 2628 3553 
L 2631 2963 
z
" transform="scale(0.015625)"/>
       <path id="DejaVuSans-61" d="M 2194 1759 
Q 1497 1759 1228 1600 
Q 959 1441 959 1056 
Q 959 750 1161 570 
Q 1363 391 1709 391 
Q 2188 391 2477 730 
Q 2766 1069 2766 1631 
L 2766 1759 
L 2194 1759 
z
M 3341 1997 
L 3341 0 
L 2766 0 
L 2766 531 
Q 2569 213 2275 61 
Q 1981 -91 1556 -91 
Q 1019 -91 701 211 
Q 384 513 384 1019 
Q 384 1609 779 1909 
Q 1175 2209 1959 2209 
L 2766 2209 
L 2766 2266 
Q 2766 2663 2505 2880 
Q 2244 3097 1772 3097 
Q 1472 3097 1187 3025 
Q 903 2953 641 2809 
L 641 3341 
Q 956 3463 1253 3523 
Q 1550 3584 1831 3584 
Q 2591 3584 2966 3190 
Q 3341 2797 3341 1997 
z
" transform="scale(0.015625)"/>
       <path id="DejaVuSans-79" d="M 2059 -325 
Q 1816 -950 1584 -1140 
Q 1353 -1331 966 -1331 
L 506 -1331 
L 506 -850 
L 844 -850 
Q 1081 -850 1212 -737 
Q 1344 -625 1503 -206 
L 1606 56 
L 191 3500 
L 800 3500 
L 1894 763 
L 2988 3500 
L 3597 3500 
L 2059 -325 
z
" transform="scale(0.015625)"/>
      </defs>
      <use xlink:href="#DejaVuSans-41"/>
      <use xlink:href="#DejaVuSans-63" x="66.658203"/>
      <use xlink:href="#DejaVuSans-63" x="121.638672"/>
      <use xlink:href="#DejaVuSans-75" x="176.619141"/>
      <use xlink:href="#DejaVuSans-72" x="239.998047"/>
      <use xlink:href="#DejaVuSans-61" x="281.111328"/>
      <use xlink:href="#DejaVuSans-63" x="342.390625"/>
      <use xlink:href="#DejaVuSans-79" x="397.371094"/>
     </g>
    </g>
   </g>
   <g id="line2d_25">
    <path d="M 62.825568 152.936914 
L 63.079458 192.957608 
L 63.333349 161.026216 
L 63.587239 186.997063 
L 63.841129 153.788453 
L 64.095019 175.927556 
L 64.34891 171.244229 
L 64.6028 195.086365 
L 64.85669 207.433179 
L 65.11058 194.234871 
L 65.364471 189.125819 
L 65.618361 169.966966 
L 65.872251 191.680345 
L 66.126141 203.601391 
L 66.380032 196.363628 
L 66.633922 212.967955 
L 66.887812 184.442582 
L 67.141702 200.195371 
L 67.395593 203.601391 
L 67.649483 192.531839 
L 67.903373 204.878654 
L 68.157264 192.531839 
L 68.411154 199.769647 
L 68.665044 201.046865 
L 68.918934 178.056268 
L 69.172825 209.98766 
L 69.426715 197.215121 
L 69.680605 192.531839 
L 69.934495 191.680345 
L 70.188386 198.492384 
L 70.442276 196.789352 
L 70.696166 183.165319 
L 70.950056 185.7198 
L 71.203947 192.531839 
L 71.457837 204.02716 
L 71.711727 190.828852 
L 71.965617 188.700095 
L 72.219508 176.35328 
L 72.473398 192.10607 
L 72.727288 175.501742 
L 72.981178 187.422832 
L 73.235069 181.036518 
L 73.488959 186.997063 
L 73.742849 178.056268 
L 73.996739 178.907806 
L 74.25063 191.680345 
L 74.50452 183.165319 
L 74.75841 170.39278 
L 75.0123 189.551589 
L 75.266191 180.610793 
L 75.520081 166.986716 
L 75.773971 187.848557 
L 76.027861 165.283729 
L 76.281752 174.650293 
L 76.535642 164.43219 
L 76.789532 175.501742 
L 77.043422 162.303479 
L 77.297313 185.7198 
L 77.805093 155.065625 
L 78.058983 176.35328 
L 78.312874 173.798755 
L 78.566764 174.224479 
L 78.820654 209.561936 
L 79.074544 174.650293 
L 79.328435 176.779005 
L 79.582325 182.739505 
L 79.836215 178.056268 
L 80.090105 179.333531 
L 80.343996 157.194427 
L 80.597886 176.35328 
L 80.851776 152.085375 
L 81.105666 178.907806 
L 81.613447 161.026216 
L 81.867337 169.541242 
L 82.121227 166.560992 
L 82.375118 175.501742 
L 82.629008 162.303479 
L 82.882898 179.759255 
L 83.136788 166.986716 
L 83.390679 169.541242 
L 83.644569 161.877664 
L 83.898459 167.41244 
L 84.15235 156.342888 
L 84.40624 186.145569 
L 84.91402 148.679401 
L 85.167911 165.283729 
L 85.421801 155.065625 
L 85.675691 155.917164 
L 85.929581 148.679401 
L 86.183472 175.076018 
L 86.437362 184.442582 
L 86.691252 167.838254 
L 86.945142 178.056268 
L 87.199033 167.41244 
L 87.452923 166.560992 
L 87.706813 139.738561 
L 87.960703 151.659651 
L 88.214594 170.39278 
L 88.468484 167.41244 
L 88.722374 168.263979 
L 88.976264 156.342888 
L 89.230155 153.362638 
L 89.484045 175.501742 
L 89.737935 162.303479 
L 89.991825 163.580741 
L 90.245716 160.600401 
L 90.499606 165.709453 
L 90.753496 158.47169 
L 91.007386 141.867362 
L 91.261277 165.709453 
L 91.515167 140.164375 
L 91.769057 159.748953 
L 92.022947 150.382388 
L 92.276838 127.81756 
L 92.530728 129.094823 
L 92.784618 155.065625 
L 93.038508 144.421888 
L 93.292399 141.441638 
L 93.546289 169.541242 
L 93.800179 127.81756 
L 94.054069 143.144625 
L 94.30796 127.391836 
L 94.56185 162.303479 
L 94.81574 172.095767 
L 95.06963 129.946272 
L 95.323521 155.065625 
L 95.577411 154.214177 
L 95.831301 149.956664 
L 96.085191 132.926522 
L 96.339082 136.758311 
L 96.592972 159.323228 
L 97.100752 134.203785 
L 97.354643 118.450996 
L 97.608533 126.966022 
L 97.862423 123.134233 
L 98.116313 113.767758 
L 98.624094 144.421888 
L 98.877984 116.322284 
L 99.385765 96.311892 
L 99.893545 131.223535 
L 100.147436 133.77806 
L 100.401326 143.996074 
L 100.655216 115.470746 
L 100.909106 141.015824 
L 101.162997 107.381444 
L 101.670777 135.481048 
L 101.924667 134.203785 
L 102.178558 115.045021 
L 102.432448 135.906862 
L 102.940228 101.420944 
L 103.194119 114.193483 
L 103.448009 116.748009 
L 103.701899 117.599457 
L 103.955789 105.252732 
L 104.20968 109.93597 
L 104.46357 118.025271 
L 104.71746 139.312836 
L 104.97135 115.470746 
L 105.225241 127.81756 
L 105.479131 104.401194 
L 105.733021 130.372086 
L 105.986911 98.014879 
L 106.494692 140.590099 
L 106.748582 119.302534 
L 107.002472 114.193483 
L 107.256363 124.411496 
L 107.510253 110.787508 
L 107.764143 118.87672 
L 108.018033 120.579797 
L 108.271924 99.292142 
L 108.525814 120.579797 
L 108.779704 112.91622 
L 109.033594 109.510245 
L 109.287485 91.202841 
L 109.541375 95.460354 
L 109.795265 97.589155 
L 110.049155 110.787508 
L 110.303046 86.945328 
L 110.556936 86.093879 
L 110.810826 105.252732 
L 111.318607 93.757366 
L 111.572497 109.510245 
L 111.826387 87.796866 
L 112.080277 87.796866 
L 112.334168 93.757366 
L 112.588058 104.401194 
L 112.841948 88.22259 
L 113.095838 86.093879 
L 113.349729 105.678457 
L 113.603619 116.322284 
L 113.857509 97.589155 
L 114.111399 98.014879 
L 114.36529 89.499853 
L 114.61918 118.87672 
L 114.87307 85.24234 
L 115.12696 88.22259 
L 115.380851 80.984827 
L 115.634741 104.401194 
L 116.142521 74.598513 
L 116.396412 76.30159 
L 116.650302 85.24234 
L 116.904192 86.093879 
L 117.158083 89.499853 
L 117.411973 90.351392 
L 117.665863 88.22259 
L 117.919753 92.054379 
L 118.173644 98.440694 
L 118.427534 71.618263 
L 118.681424 77.153039 
L 118.935314 87.371142 
L 119.189205 79.28184 
L 119.443095 93.331642 
L 119.696985 90.777116 
L 119.950875 81.836366 
L 120.204766 82.26209 
L 120.458656 88.648405 
L 120.712546 104.401194 
L 120.966436 105.678457 
L 121.220327 89.925578 
L 121.474217 102.698207 
L 121.728107 81.410552 
L 121.981997 78.004577 
L 122.489778 97.163431 
L 122.743668 88.648405 
L 122.997558 106.529905 
L 123.251449 68.212288 
L 123.759229 99.717957 
L 124.013119 90.351392 
L 124.26701 93.757366 
L 124.5209 95.034629 
L 124.77479 119.302534 
L 125.282571 86.945328 
L 125.536461 89.925578 
L 125.790351 78.856026 
L 126.298132 90.777116 
L 126.552022 91.628655 
L 126.805912 77.153039 
L 127.059802 73.747064 
L 127.313693 83.539353 
L 127.567583 100.143681 
L 127.821473 80.133289 
L 128.075363 106.104181 
L 128.329254 101.846668 
L 128.583144 78.004577 
L 128.837034 81.836366 
L 129.090924 79.707564 
L 129.344815 90.777116 
L 129.598705 75.450051 
L 129.852595 103.549655 
L 130.106485 112.490496 
L 130.360376 86.945328 
L 130.614266 86.093879 
L 130.868156 91.202841 
L 131.122046 82.687815 
L 131.375937 89.499853 
L 131.629827 71.192538 
L 131.883717 88.648405 
L 132.391498 75.450051 
L 132.645388 72.044077 
L 132.899278 83.113629 
L 133.153169 66.509301 
L 133.660949 85.668065 
L 133.914839 82.26209 
L 134.16873 74.598513 
L 134.42262 75.024327 
L 134.67651 92.480103 
L 134.9304 69.063737 
L 135.184291 89.925578 
L 135.438181 78.004577 
L 135.692071 78.856026 
L 135.945961 80.133289 
L 136.199852 84.390802 
L 136.453742 91.202841 
L 136.707632 87.371142 
L 136.961522 61.825974 
L 137.215413 65.657763 
L 137.723193 101.846668 
L 137.977083 100.143681 
L 138.230974 76.727314 
L 138.484864 64.3805 
L 138.738754 95.886168 
L 138.992644 76.727314 
L 139.500425 95.034629 
L 139.754315 83.113629 
L 140.008205 88.22259 
L 140.262096 79.707564 
L 140.515986 93.757366 
L 140.769876 95.886168 
L 141.023766 67.36075 
L 141.277657 80.133289 
L 141.531547 64.806224 
L 141.785437 76.727314 
L 142.039327 74.598513 
L 142.293218 93.331642 
L 142.547108 79.28184 
L 142.800998 73.32125 
L 143.054888 81.410552 
L 143.308779 78.856026 
L 143.562669 78.004577 
L 143.816559 98.014879 
L 144.070449 82.687815 
L 144.32434 91.202841 
L 144.57823 92.905918 
L 144.83212 82.26209 
L 145.08601 79.28184 
L 145.339901 64.3805 
L 145.593791 82.687815 
L 145.847681 69.489551 
L 146.101571 73.32125 
L 146.355462 88.22259 
L 146.609352 69.489551 
L 146.863242 69.915276 
L 147.117132 70.766814 
L 147.371023 99.292142 
L 147.624913 73.747064 
L 147.878803 83.113629 
L 148.132693 80.133289 
L 148.386584 81.410552 
L 148.640474 76.727314 
L 148.894364 75.450051 
L 149.148255 77.153039 
L 149.402145 87.371142 
L 149.656035 68.638013 
L 149.909925 64.806224 
L 150.163816 66.083487 
L 150.417706 72.469801 
L 150.671596 69.915276 
L 150.925486 76.727314 
L 151.179377 67.786474 
L 151.687157 85.668065 
L 151.941047 81.836366 
L 152.194938 73.747064 
L 152.448828 71.192538 
L 152.702718 100.569405 
L 152.956608 76.30159 
L 153.210499 91.628655 
L 153.718279 72.469801 
L 153.972169 72.469801 
L 154.22606 78.430302 
L 154.47995 78.004577 
L 154.73384 72.895526 
L 154.98773 86.519603 
L 155.241621 59.697262 
L 155.495511 83.539353 
L 155.749401 62.251698 
L 156.003291 83.539353 
L 156.257182 92.054379 
L 156.511072 69.489551 
L 156.764962 70.341 
L 157.018852 77.153039 
L 157.272743 60.548711 
L 157.526633 73.747064 
L 157.780523 80.133289 
L 158.288304 67.786474 
L 158.542194 75.024327 
L 158.796084 74.172789 
L 159.049974 88.22259 
L 159.303865 75.024327 
L 159.557755 89.074129 
L 159.811645 94.183181 
L 160.065535 51.182146 
L 160.319426 81.836366 
L 160.573316 79.28184 
L 160.827206 61.825974 
L 161.081096 66.083487 
L 161.334987 81.410552 
L 161.588877 75.875776 
L 161.842767 56.291198 
L 162.096657 81.836366 
L 162.350548 83.113629 
L 162.604438 81.410552 
L 163.112218 93.757366 
L 163.366109 66.935025 
L 163.619999 73.32125 
L 163.873889 74.172789 
L 164.127779 89.074129 
L 164.38167 63.954775 
L 164.63556 72.469801 
L 164.88945 93.331642 
L 165.14334 95.460354 
L 165.651121 72.895526 
L 165.905011 97.589155 
L 166.158902 70.766814 
L 166.412792 70.341 
L 166.666682 72.895526 
L 166.920572 83.539353 
L 167.174463 88.648405 
L 167.428353 80.984827 
L 167.682243 89.925578 
L 167.936133 86.945328 
L 168.190024 62.677512 
L 168.443914 86.945328 
L 168.697804 72.895526 
L 168.951694 66.509301 
L 169.205585 83.965077 
L 169.459475 55.439749 
L 169.713365 88.648405 
L 169.967255 81.410552 
L 170.221146 81.836366 
L 170.475036 86.945328 
L 170.728926 74.598513 
L 170.982816 71.192538 
L 171.236707 87.796866 
L 171.744487 75.450051 
L 171.998377 79.28184 
L 172.252268 70.341 
L 172.506158 75.024327 
L 172.760048 92.054379 
L 173.013938 71.192538 
L 173.267829 85.24234 
L 173.775609 69.489551 
L 174.029499 83.113629 
L 174.28339 71.618263 
L 174.53728 88.648405 
L 174.79117 76.30159 
L 175.04506 75.024327 
L 175.298951 80.559103 
L 175.552841 90.351392 
L 175.806731 70.341 
L 176.060621 72.469801 
L 176.568402 86.519603 
L 176.822292 73.747064 
L 177.076182 71.192538 
L 177.837853 96.311892 
L 178.091743 86.093879 
L 178.345634 86.093879 
L 178.599524 82.26209 
L 178.853414 73.32125 
L 179.107304 76.30159 
L 179.361195 89.925578 
L 179.615085 95.034629 
L 179.868975 84.816616 
L 180.122865 68.212288 
L 180.376756 105.252732 
L 180.630646 82.687815 
L 180.884536 70.766814 
L 181.138426 64.806224 
L 181.392317 83.113629 
L 181.646207 89.499853 
L 181.900097 79.28184 
L 182.153988 93.331642 
L 182.407878 86.945328 
L 182.661768 68.212288 
L 182.915658 83.539353 
L 183.169549 72.469801 
L 183.423439 89.499853 
L 183.677329 86.093879 
L 183.931219 69.489551 
L 184.18511 75.875776 
L 184.69289 65.232038 
L 184.94678 75.875776 
L 185.200671 72.044077 
L 185.454561 86.093879 
L 185.708451 72.469801 
L 185.962341 65.657763 
L 186.216232 91.202841 
L 186.724012 74.172789 
L 186.977902 79.707564 
L 187.231793 80.984827 
L 187.485683 72.469801 
L 187.739573 82.26209 
L 187.993463 58.419999 
L 188.247354 78.856026 
L 188.501244 77.578853 
L 188.755134 94.183181 
L 189.009024 76.30159 
L 189.262915 93.757366 
L 189.516805 88.22259 
L 189.770695 74.598513 
L 190.024585 91.628655 
L 190.278476 82.687815 
L 190.532366 80.133289 
L 190.786256 90.351392 
L 191.040146 75.450051 
L 191.294037 81.410552 
L 191.547927 76.30159 
L 191.801817 80.984827 
L 192.055707 97.589155 
L 192.309598 73.32125 
L 192.563488 69.063737 
L 192.817378 89.499853 
L 193.071268 70.341 
L 193.325159 69.915276 
L 193.579049 74.598513 
L 193.832939 73.32125 
L 194.086829 85.668065 
L 194.34072 73.32125 
L 194.59461 67.786474 
L 194.8485 79.707564 
L 195.356281 61.825974 
L 195.610171 70.341 
L 195.864061 68.212288 
L 196.117951 72.895526 
L 196.371842 80.984827 
L 196.625732 76.30159 
L 196.879622 79.707564 
L 197.133512 66.935025 
L 197.641293 72.044077 
L 197.895183 69.915276 
L 198.149074 91.628655 
L 198.402964 71.618263 
L 198.656854 68.638013 
L 198.910744 82.26209 
L 199.164635 75.875776 
L 199.418525 63.954775 
L 199.672415 82.687815 
L 199.926305 72.469801 
L 200.180196 67.36075 
L 200.434086 51.182146 
L 200.941866 94.183181 
L 201.195757 68.638013 
L 201.449647 76.30159 
L 201.703537 80.133289 
L 201.957427 75.024327 
L 202.211318 87.371142 
L 202.465208 60.974525 
L 202.719098 81.410552 
L 203.226879 72.895526 
L 203.480769 68.212288 
L 203.734659 86.093879 
L 203.988549 73.32125 
L 204.24244 71.618263 
L 204.49633 71.192538 
L 204.75022 84.816616 
L 205.00411 83.113629 
L 205.258001 79.28184 
L 205.511891 80.559103 
L 205.765781 100.143681 
L 206.019671 80.984827 
L 206.273562 79.28184 
L 206.527452 83.539353 
L 206.781342 79.28184 
L 207.035232 69.915276 
L 207.289123 78.856026 
L 207.543013 71.192538 
L 207.796903 85.24234 
L 208.050793 89.925578 
L 208.304684 78.004577 
L 208.558574 86.093879 
L 208.812464 68.638013 
L 209.066354 71.618263 
L 209.320245 83.965077 
L 209.574135 60.122987 
L 209.828025 88.22259 
L 210.081915 75.450051 
L 210.335806 74.172789 
L 210.589696 75.024327 
L 210.843586 79.707564 
L 211.097476 80.984827 
L 211.351367 93.757366 
L 211.605257 84.816616 
L 211.859147 88.648405 
L 212.113037 76.727314 
L 212.366928 92.054379 
L 212.620818 73.32125 
L 212.874708 75.024327 
L 213.128598 82.687815 
L 213.382489 83.539353 
L 213.890269 67.36075 
L 214.39805 90.777116 
L 214.65194 85.24234 
L 214.90583 75.024327 
L 215.159721 69.489551 
L 215.667501 89.074129 
L 215.921391 79.28184 
L 216.175282 78.430302 
L 216.429172 78.430302 
L 216.683062 62.677512 
L 216.936952 68.212288 
L 217.190843 84.390802 
L 217.444733 87.796866 
L 217.698623 86.945328 
L 217.952513 75.875776 
L 218.206404 83.539353 
L 218.460294 74.172789 
L 218.714184 69.063737 
L 218.968074 72.469801 
L 219.221965 78.856026 
L 219.475855 82.26209 
L 219.729745 68.638013 
L 219.983635 82.687815 
L 220.237526 83.539353 
L 220.491416 62.677512 
L 220.745306 73.32125 
L 220.999196 74.172789 
L 221.253087 78.004577 
L 221.760867 91.202841 
L 222.014757 79.707564 
L 222.268648 79.707564 
L 222.522538 87.371142 
L 222.776428 82.687815 
L 223.030318 99.717957 
L 223.284209 68.638013 
L 223.791989 70.341 
L 224.045879 80.133289 
L 224.29977 76.727314 
L 224.55366 83.113629 
L 224.80755 82.26209 
L 225.06144 79.28184 
L 225.315331 91.628655 
L 225.569221 69.489551 
L 225.823111 87.796866 
L 226.077001 75.450051 
L 226.330892 73.32125 
L 226.838672 81.836366 
L 227.092562 97.163431 
L 227.346453 64.3805 
L 227.600343 75.875776 
L 227.854233 81.410552 
L 228.108123 96.737616 
L 228.615904 65.657763 
L 228.869794 81.410552 
L 229.123684 88.648405 
L 229.885355 62.251698 
L 230.393136 84.816616 
L 230.647026 75.875776 
L 230.900916 60.122987 
L 231.154807 61.40025 
L 231.408697 83.965077 
L 231.662587 80.559103 
L 231.916477 66.509301 
L 232.170368 68.212288 
L 232.424258 64.3805 
L 232.678148 73.747064 
L 232.932038 54.588211 
L 233.185929 75.024327 
L 233.439819 66.935025 
L 233.693709 69.915276 
L 233.947599 68.212288 
L 234.20149 55.439749 
L 234.45538 70.766814 
L 234.70927 65.232038 
L 235.217051 68.638013 
L 235.470941 77.153039 
L 235.724831 72.895526 
L 235.978721 71.192538 
L 236.232612 72.895526 
L 236.486502 76.727314 
L 236.740392 78.430302 
L 236.994282 59.697262 
L 237.248173 63.528961 
L 237.502063 85.24234 
L 237.755953 81.836366 
L 238.009843 83.113629 
L 238.263734 85.24234 
L 238.517624 85.24234 
L 239.025404 57.994185 
L 239.533185 81.836366 
L 239.787075 65.232038 
L 240.294856 87.796866 
L 240.548746 82.687815 
L 240.802636 68.212288 
L 241.056526 86.519603 
L 241.310417 77.578853 
L 241.564307 46.498909 
L 241.818197 92.905918 
L 242.072087 66.935025 
L 242.325978 74.598513 
L 242.579868 69.915276 
L 242.833758 85.668065 
L 243.087648 80.984827 
L 243.341539 64.806224 
L 243.595429 69.915276 
L 243.849319 80.984827 
L 244.103209 68.638013 
L 244.3571 65.232038 
L 244.61099 86.093879 
L 244.86488 72.044077 
L 245.11877 88.22259 
L 245.372661 88.22259 
L 245.626551 76.30159 
L 245.880441 90.777116 
L 246.134331 70.766814 
L 246.388222 74.172789 
L 246.642112 82.687815 
L 246.896002 75.024327 
L 247.149893 78.856026 
L 247.403783 80.559103 
L 247.657673 78.856026 
L 247.911563 97.163431 
L 248.419344 57.142737 
L 248.673234 68.212288 
L 248.927124 63.954775 
L 249.181015 80.133289 
L 249.434905 81.836366 
L 249.688795 78.004577 
L 250.196576 67.36075 
L 250.450466 54.162486 
L 250.958246 77.578853 
L 251.212137 75.024327 
L 251.466027 84.390802 
L 251.973807 66.083487 
L 252.481588 82.26209 
L 252.735478 79.28184 
L 252.989368 58.845724 
L 253.243259 72.044077 
L 253.497149 97.163431 
L 253.751039 69.915276 
L 254.004929 71.618263 
L 254.25882 78.004577 
L 254.51271 61.40025 
L 255.02049 86.093879 
L 255.274381 62.251698 
L 255.528271 93.757366 
L 255.782161 72.469801 
L 256.036051 73.32125 
L 256.289942 66.083487 
L 256.543832 86.093879 
L 256.797722 94.183181 
L 257.051612 46.924633 
L 257.305503 80.559103 
L 257.559393 64.3805 
L 258.067173 83.965077 
L 258.574954 54.588211 
L 258.828844 80.133289 
L 259.082734 73.747064 
L 259.336625 63.954775 
L 259.590515 83.113629 
L 259.844405 69.063737 
L 260.098295 83.965077 
L 260.352186 80.133289 
L 260.606076 79.28184 
L 260.859966 75.875776 
L 261.113856 69.489551 
L 261.367747 70.766814 
L 261.621637 63.528961 
L 261.875527 64.806224 
L 262.129417 76.30159 
L 262.383308 80.559103 
L 262.637198 70.766814 
L 262.891088 71.192538 
L 263.144979 103.549655 
L 263.398869 79.707564 
L 263.652759 83.539353 
L 264.16054 78.430302 
L 264.41443 76.727314 
L 264.66832 93.757366 
L 264.92221 72.044077 
L 265.176101 86.945328 
L 265.429991 62.251698 
L 265.683881 84.816616 
L 265.937771 79.707564 
L 266.191662 57.568461 
L 266.445552 81.410552 
L 266.699442 72.469801 
L 266.953332 83.539353 
L 267.207223 71.618263 
L 267.461113 82.26209 
L 267.715003 71.192538 
L 267.968893 75.450051 
L 268.222784 77.153039 
L 268.476674 55.865474 
L 268.730564 71.618263 
L 268.984454 69.915276 
L 269.238345 60.548711 
L 269.492235 77.153039 
L 269.746125 83.113629 
L 270.253906 63.954775 
L 270.507796 74.598513 
L 270.761686 73.32125 
L 271.015576 76.727314 
L 271.523357 66.083487 
L 271.777247 84.390802 
L 272.031137 54.162486 
L 272.285028 87.371142 
L 272.792808 66.083487 
L 273.046698 80.984827 
L 273.300589 71.192538 
L 273.554479 72.895526 
L 273.808369 57.568461 
L 274.062259 92.905918 
L 274.57004 64.3805 
L 274.82393 72.895526 
L 275.07782 73.32125 
L 275.331711 86.093879 
L 275.585601 67.36075 
L 275.839491 60.974525 
L 276.093381 104.826918 
L 276.347272 81.410552 
L 276.601162 82.26209 
L 276.855052 83.965077 
L 277.108942 75.024327 
L 277.362833 73.747064 
L 277.616723 63.954775 
L 278.124503 72.044077 
L 278.378394 71.192538 
L 278.632284 70.766814 
L 278.886174 91.202841 
L 279.140064 95.460354 
L 279.393955 75.875776 
L 279.647845 70.766814 
L 279.901735 72.895526 
L 280.155626 67.786474 
L 280.409516 80.984827 
L 280.663406 57.994185 
L 280.917296 78.856026 
L 281.171187 86.519603 
L 281.425077 72.895526 
L 281.678967 76.727314 
L 281.932857 73.32125 
L 282.186748 83.539353 
L 282.440638 56.291198 
L 282.694528 68.638013 
L 282.948418 69.915276 
L 283.202309 87.796866 
L 283.456199 78.430302 
L 283.710089 87.371142 
L 283.963979 65.657763 
L 284.21787 73.747064 
L 284.47176 64.806224 
L 284.72565 61.40025 
L 284.97954 84.816616 
L 285.233431 79.28184 
L 285.487321 84.816616 
L 285.995101 57.142737 
L 286.248992 77.153039 
L 286.502882 81.410552 
L 286.756772 75.875776 
L 287.010662 62.677512 
L 287.264553 80.559103 
L 287.518443 69.489551 
L 287.772333 71.618263 
L 288.026223 76.727314 
L 288.280114 78.856026 
L 288.534004 82.26209 
L 288.787894 80.559103 
L 289.041784 72.469801 
L 289.295675 78.004577 
L 289.549565 74.172789 
L 289.803455 94.608905 
L 290.057345 87.796866 
L 290.311236 84.816616 
L 290.565126 68.212288 
L 290.819016 69.915276 
L 291.072906 66.509301 
L 291.326797 77.153039 
L 291.580687 81.836366 
L 291.834577 81.836366 
L 292.088467 63.103237 
L 292.342358 76.727314 
L 292.596248 66.935025 
L 292.850138 77.578853 
L 293.104028 65.657763 
L 293.357919 87.371142 
L 293.611809 79.707564 
L 293.865699 68.638013 
L 294.119589 86.519603 
L 294.37348 77.578853 
L 294.62737 74.172789 
L 294.88126 67.36075 
L 295.13515 77.578853 
L 295.389041 75.875776 
L 295.642931 72.895526 
L 295.896821 66.935025 
L 296.150712 82.26209 
L 296.404602 73.32125 
L 296.658492 69.489551 
L 296.912382 77.153039 
L 297.166273 67.786474 
L 297.420163 83.539353 
L 297.674053 81.410552 
L 297.927943 67.786474 
L 298.181834 61.825974 
L 298.435724 90.351392 
L 298.689614 89.925578 
L 298.943504 74.172789 
L 299.197395 77.578853 
L 299.451285 73.747064 
L 299.705175 80.559103 
L 299.959065 75.450051 
L 300.466846 82.26209 
L 300.974626 78.856026 
L 301.228517 68.212288 
L 301.482407 74.598513 
L 301.736297 76.30159 
L 301.990187 71.618263 
L 302.244078 86.519603 
L 302.497968 61.40025 
L 303.005748 73.32125 
L 303.259639 77.153039 
L 303.513529 72.895526 
L 303.767419 72.469801 
L 304.021309 77.578853 
L 304.2752 86.519603 
L 304.52909 84.390802 
L 304.78298 74.598513 
L 305.03687 59.271448 
L 305.290761 89.925578 
L 305.544651 61.825974 
L 305.798541 77.153039 
L 306.052431 78.430302 
L 306.306322 69.063737 
L 306.560212 67.786474 
L 306.814102 67.786474 
L 307.067992 71.618263 
L 307.321883 52.885224 
L 307.829663 86.093879 
L 308.083553 63.528961 
L 308.337444 79.28184 
L 308.591334 71.192538 
L 308.845224 78.856026 
L 309.099114 80.133289 
L 309.353005 80.559103 
L 309.606895 70.341 
L 309.860785 79.28184 
L 310.368566 54.162486 
L 310.622456 77.153039 
L 310.876346 67.786474 
L 311.130236 87.371142 
L 311.638017 78.430302 
L 311.891907 60.548711 
L 312.145798 83.965077 
L 312.399688 67.36075 
L 312.653578 80.984827 
L 312.907468 78.856026 
L 313.161359 63.954775 
L 313.415249 84.816616 
L 313.669139 61.40025 
L 313.923029 78.004577 
L 314.17692 83.539353 
L 314.43081 75.024327 
L 314.6847 74.172789 
L 314.93859 70.766814 
L 315.192481 86.093879 
L 315.446371 72.044077 
L 315.700261 49.053435 
L 315.954151 88.648405 
L 316.208042 73.747064 
L 316.461932 72.044077 
L 316.461932 72.044077 
" clip-path="url(#p9cd5630440)" style="fill: none; stroke: #0000ff; stroke-width: 0.6; stroke-linecap: square"/>
   </g>
   <g id="line2d_26">
    <path d="M 62.825568 189.83446 
L 63.079458 191.820949 
L 63.333349 190.827727 
L 63.841129 190.827727 
L 64.095019 156.064471 
L 64.34891 176.922443 
L 64.6028 162.023892 
L 64.85669 190.827727 
L 65.11058 190.827727 
L 65.618361 178.908886 
L 65.872251 189.83446 
L 66.126141 178.908886 
L 66.380032 194.800659 
L 66.633922 190.827727 
L 66.887812 192.81417 
L 67.141702 178.908886 
L 67.395593 190.827727 
L 67.649483 190.827727 
L 68.157264 178.908886 
L 68.411154 179.902153 
L 68.665044 190.827727 
L 68.918934 137.193034 
L 69.172825 191.820949 
L 69.426715 178.908886 
L 69.934495 180.89533 
L 70.188386 178.908886 
L 70.442276 201.753301 
L 70.696166 178.908886 
L 70.950056 178.908886 
L 71.203947 190.827727 
L 71.457837 186.854795 
L 71.711727 178.908886 
L 71.965617 152.091584 
L 72.219508 190.827727 
L 72.473398 178.908886 
L 72.981178 190.827727 
L 73.235069 190.827727 
L 73.488959 224.597671 
L 73.996739 178.908886 
L 74.50452 190.827727 
L 74.75841 174.935999 
L 75.0123 207.712721 
L 75.266191 222.611227 
L 75.520081 179.902153 
L 75.773971 220.624739 
L 76.027861 230.557091 
L 76.281752 179.902153 
L 76.535642 227.577381 
L 76.789532 187.848017 
L 77.297313 224.597671 
L 77.551203 207.712721 
L 77.805093 220.624739 
L 78.058983 209.699165 
L 78.312874 224.597671 
L 78.566764 226.584159 
L 78.820654 222.611227 
L 79.074544 224.597671 
L 79.328435 188.841238 
L 79.836215 212.678875 
L 80.090105 188.841238 
L 80.343996 186.854795 
L 80.597886 221.618005 
L 81.105666 217.645028 
L 81.359557 226.584159 
L 81.613447 220.624739 
L 81.867337 190.827727 
L 82.121227 220.624739 
L 82.375118 222.611227 
L 82.629008 216.651807 
L 82.882898 167.983312 
L 83.390679 216.651807 
L 83.644569 189.83446 
L 83.898459 186.854795 
L 84.15235 176.922443 
L 84.66013 207.712721 
L 84.91402 173.942732 
L 85.167911 176.922443 
L 85.421801 165.996869 
L 85.675691 174.935999 
L 85.929581 177.915709 
L 86.183472 178.908886 
L 86.437362 203.739744 
L 86.691252 178.908886 
L 86.945142 181.888596 
L 87.199033 178.908886 
L 87.452923 179.902153 
L 87.706813 173.942732 
L 87.960703 174.935999 
L 88.214594 181.888596 
L 88.468484 152.091584 
L 88.722374 177.915709 
L 88.976264 187.848017 
L 89.230155 207.712721 
L 89.484045 183.87504 
L 89.737935 189.83446 
L 89.991825 155.071295 
L 90.245716 179.902153 
L 90.499606 184.868306 
L 90.753496 180.89533 
L 91.007386 138.1863 
L 91.261277 171.956289 
L 91.515167 184.868306 
L 91.769057 165.003602 
L 92.022947 166.990045 
L 92.276838 123.287749 
L 92.530728 159.044182 
L 92.784618 159.044182 
L 93.038508 178.908886 
L 93.292399 136.199857 
L 93.546289 162.023892 
L 93.800179 148.118608 
L 94.054069 168.976579 
L 94.30796 125.274193 
L 94.56185 126.26746 
L 94.81574 168.976579 
L 95.06963 166.990045 
L 95.323521 176.922443 
L 95.577411 139.179477 
L 95.831301 163.017158 
L 96.085191 150.105141 
L 96.339082 123.287749 
L 96.592972 175.929176 
L 96.846862 175.929176 
L 97.100752 139.179477 
L 97.354643 129.24717 
L 97.608533 176.922443 
L 97.862423 163.017158 
L 98.116313 157.057738 
L 98.370204 179.902153 
L 98.624094 175.929176 
L 98.877984 98.456891 
L 99.131874 179.902153 
L 99.639655 136.199857 
L 99.893545 179.902153 
L 100.147436 173.942732 
L 100.401326 118.321596 
L 100.655216 173.942732 
L 100.909106 179.902153 
L 101.162997 135.20659 
L 101.416887 189.83446 
L 101.670777 77.59901 
L 101.924667 171.956289 
L 102.178558 141.16601 
L 102.432448 177.915709 
L 102.686338 178.908886 
L 102.940228 144.145721 
L 103.194119 179.902153 
L 103.448009 122.294573 
L 103.701899 174.935999 
L 103.955789 178.908886 
L 104.46357 91.504294 
L 104.71746 151.098318 
L 104.97135 178.908886 
L 105.225241 166.990045 
L 105.479131 176.922443 
L 105.733021 111.368909 
L 105.986911 174.935999 
L 106.240802 179.902153 
L 106.494692 170.963022 
L 106.748582 120.308039 
L 107.002472 141.16601 
L 107.256363 133.220147 
L 107.510253 168.976579 
L 107.764143 89.517761 
L 108.018033 137.193034 
L 108.525814 110.375732 
L 108.779704 152.091584 
L 109.033594 124.281016 
L 109.287485 160.037448 
L 109.541375 136.199857 
L 109.795265 137.193034 
L 110.049155 165.996869 
L 110.303046 124.281016 
L 110.556936 115.341885 
L 110.810826 178.908886 
L 111.064716 151.098318 
L 111.318607 170.963022 
L 111.572497 159.044182 
L 111.826387 176.922443 
L 112.080277 136.199857 
L 112.334168 147.125431 
L 112.588058 98.456891 
L 112.841948 122.294573 
L 113.095838 86.53805 
L 113.349729 144.145721 
L 113.603619 159.044182 
L 113.857509 119.314862 
L 114.111399 178.908886 
L 114.36529 132.22688 
L 114.61918 163.017158 
L 114.87307 178.908886 
L 115.12696 72.632766 
L 115.380851 163.017158 
L 115.634741 78.592187 
L 115.888631 94.484004 
L 116.142521 77.59901 
L 116.396412 157.057738 
L 116.650302 128.253903 
L 116.904192 125.274193 
L 117.158083 151.098318 
L 117.665863 67.666613 
L 117.919753 83.55843 
L 118.173644 139.179477 
L 118.427534 107.396022 
L 118.681424 113.355442 
L 118.935314 123.287749 
L 119.189205 96.470448 
L 119.443095 172.949466 
L 119.696985 111.368909 
L 119.950875 117.328329 
L 120.204766 67.666613 
L 120.458656 123.287749 
L 120.712546 153.084761 
L 121.474217 108.389288 
L 121.728107 166.990045 
L 121.981997 110.375732 
L 122.235888 177.915709 
L 122.489778 132.22688 
L 122.743668 170.963022 
L 122.997558 132.22688 
L 123.251449 151.098318 
L 123.505339 82.565163 
L 123.759229 113.355442 
L 124.013119 108.389288 
L 124.26701 108.389288 
L 124.77479 112.362175 
L 125.02868 97.463624 
L 125.282571 179.902153 
L 125.536461 163.017158 
L 125.790351 117.328329 
L 126.044241 118.321596 
L 126.298132 108.389288 
L 126.552022 93.490737 
L 126.805912 139.179477 
L 127.059802 64.686902 
L 127.313693 97.463624 
L 127.567583 98.456891 
L 127.821473 178.908886 
L 128.075363 165.996869 
L 128.329254 180.89533 
L 128.583144 171.956289 
L 128.837034 77.59901 
L 129.344815 177.915709 
L 129.598705 177.915709 
L 129.852595 76.605743 
L 130.106485 102.429868 
L 130.360376 109.382465 
L 130.614266 76.605743 
L 130.868156 97.463624 
L 131.122046 172.949466 
L 131.375937 108.389288 
L 131.629827 105.409578 
L 131.883717 64.686902 
L 132.391498 113.355442 
L 132.645388 99.450158 
L 132.899278 167.983312 
L 133.153169 107.396022 
L 133.407059 158.051005 
L 133.660949 66.673436 
L 133.914839 178.908886 
L 134.16873 104.416311 
L 134.42262 178.908886 
L 134.67651 168.976579 
L 134.9304 76.605743 
L 135.184291 97.463624 
L 135.438181 154.078028 
L 135.692071 154.078028 
L 135.945961 133.220147 
L 136.199852 64.686902 
L 136.707632 108.389288 
L 136.961522 110.375732 
L 137.215413 118.321596 
L 137.469303 179.902153 
L 137.723193 161.030715 
L 138.230974 79.585453 
L 138.484864 165.003602 
L 138.738754 181.888596 
L 138.992644 79.585453 
L 139.246535 68.659879 
L 139.500425 82.565163 
L 139.754315 106.402755 
L 140.008205 176.922443 
L 140.262096 68.659879 
L 140.515986 107.396022 
L 140.769876 177.915709 
L 141.023766 94.484004 
L 141.277657 104.416311 
L 141.531547 145.138897 
L 141.785437 82.565163 
L 142.039327 168.976579 
L 142.293218 180.89533 
L 142.547108 78.592187 
L 142.800998 98.456891 
L 143.054888 93.490737 
L 143.308779 66.673436 
L 143.562669 179.902153 
L 143.816559 190.827727 
L 144.070449 128.253903 
L 144.32434 112.362175 
L 144.57823 179.902153 
L 144.83212 104.416311 
L 145.08601 124.281016 
L 145.593791 82.565163 
L 145.847681 165.003602 
L 146.101571 82.565163 
L 146.355462 68.659879 
L 146.609352 178.908886 
L 146.863242 173.942732 
L 147.117132 165.996869 
L 147.624913 139.179477 
L 147.878803 107.396022 
L 148.132693 179.902153 
L 148.640474 179.902153 
L 148.894364 105.409578 
L 149.148255 170.963022 
L 149.402145 102.429868 
L 149.656035 128.253903 
L 149.909925 82.565163 
L 150.163816 162.023892 
L 150.671596 69.653146 
L 150.925486 67.666613 
L 151.179377 107.396022 
L 151.433267 64.686902 
L 151.687157 174.935999 
L 151.941047 76.605743 
L 152.194938 115.341885 
L 152.448828 109.382465 
L 152.702718 126.26746 
L 152.956608 105.409578 
L 153.210499 174.935999 
L 153.464389 178.908886 
L 153.718279 112.362175 
L 153.972169 109.382465 
L 154.22606 133.220147 
L 154.47995 146.132164 
L 154.73384 74.6193 
L 154.98773 72.632766 
L 155.241621 76.605743 
L 155.495511 162.023892 
L 155.749401 118.321596 
L 156.003291 105.409578 
L 156.257182 74.6193 
L 156.511072 107.396022 
L 156.764962 73.626033 
L 157.018852 102.429868 
L 157.272743 82.565163 
L 157.526633 85.544874 
L 158.288304 114.348619 
L 158.542194 147.125431 
L 158.796084 89.517761 
L 159.049974 102.429868 
L 159.303865 104.416311 
L 159.557755 79.585453 
L 159.811645 111.368909 
L 160.065535 178.908886 
L 160.319426 179.902153 
L 160.573316 148.118608 
L 160.827206 70.646323 
L 161.081096 106.402755 
L 161.334987 103.423045 
L 161.588877 92.497471 
L 161.842767 106.402755 
L 162.096657 78.592187 
L 162.350548 178.908886 
L 162.604438 141.16601 
L 162.858328 177.915709 
L 163.112218 178.908886 
L 163.366109 73.626033 
L 163.873889 152.091584 
L 164.127779 109.382465 
L 164.38167 125.274193 
L 164.63556 75.612476 
L 164.88945 161.030715 
L 165.14334 180.89533 
L 165.397231 176.922443 
L 165.651121 107.396022 
L 165.905011 72.632766 
L 166.158902 167.983312 
L 166.412792 85.544874 
L 166.666682 160.037448 
L 166.920572 154.078028 
L 167.174463 182.881863 
L 167.428353 113.355442 
L 167.682243 157.057738 
L 167.936133 134.213323 
L 168.190024 174.935999 
L 168.443914 154.078028 
L 168.697804 65.680169 
L 168.951694 157.057738 
L 169.205585 89.517761 
L 169.459475 180.89533 
L 169.713365 104.416311 
L 169.967255 149.111874 
L 170.221146 91.504294 
L 170.475036 159.044182 
L 170.728926 162.023892 
L 170.982816 177.915709 
L 171.236707 144.145721 
L 171.744487 180.89533 
L 171.998377 132.22688 
L 172.506158 177.915709 
L 172.760048 173.942732 
L 173.013938 62.700459 
L 173.267829 107.396022 
L 173.775609 140.172744 
L 174.029499 121.301306 
L 174.28339 78.592187 
L 174.79117 130.240436 
L 175.04506 117.328329 
L 175.298951 179.902153 
L 175.552841 177.915709 
L 175.806731 178.908886 
L 176.060621 178.908886 
L 176.314512 174.935999 
L 176.568402 178.908886 
L 176.822292 178.908886 
L 177.076182 165.996869 
L 177.330073 178.908886 
L 177.583963 90.511027 
L 177.837853 177.915709 
L 178.091743 178.908886 
L 178.345634 144.145721 
L 178.599524 73.626033 
L 178.853414 179.902153 
L 179.107304 178.908886 
L 179.361195 74.6193 
L 179.615085 81.571897 
L 180.122865 151.098318 
L 180.376756 109.382465 
L 180.630646 179.902153 
L 180.884536 138.1863 
L 181.138426 171.956289 
L 181.392317 103.423045 
L 181.646207 180.89533 
L 181.900097 160.037448 
L 182.153988 114.348619 
L 182.407878 176.922443 
L 182.661768 104.416311 
L 182.915658 78.592187 
L 183.169549 89.517761 
L 183.423439 81.571897 
L 183.677329 167.983312 
L 183.931219 74.6193 
L 184.18511 132.22688 
L 184.439 111.368909 
L 184.69289 114.348619 
L 184.94678 154.078028 
L 185.200671 161.030715 
L 185.708451 76.605743 
L 185.962341 118.321596 
L 186.216232 112.362175 
L 186.470122 141.16601 
L 186.724012 112.362175 
L 186.977902 107.396022 
L 187.231793 109.382465 
L 187.485683 118.321596 
L 187.739573 120.308039 
L 187.993463 111.368909 
L 188.247354 135.20659 
L 188.501244 74.6193 
L 188.755134 71.639589 
L 189.009024 111.368909 
L 189.262915 76.605743 
L 189.516805 68.659879 
L 189.770695 103.423045 
L 190.024585 92.497471 
L 190.278476 169.969756 
L 190.532366 118.321596 
L 190.786256 179.902153 
L 191.040146 103.423045 
L 191.294037 178.908886 
L 191.547927 132.22688 
L 191.801817 111.368909 
L 192.055707 112.362175 
L 192.309598 178.908886 
L 192.563488 178.908886 
L 192.817378 110.375732 
L 193.325159 97.463624 
L 193.579049 108.389288 
L 193.832939 178.908886 
L 194.086829 178.908886 
L 194.34072 179.902153 
L 194.59461 178.908886 
L 194.8485 86.53805 
L 195.10239 94.484004 
L 195.356281 177.915709 
L 195.610171 178.908886 
L 195.864061 178.908886 
L 196.117951 71.639589 
L 196.371842 70.646323 
L 196.625732 178.908886 
L 196.879622 86.53805 
L 197.387403 185.861528 
L 197.641293 91.504294 
L 197.895183 77.59901 
L 198.149074 160.037448 
L 198.402964 177.915709 
L 198.656854 165.996869 
L 198.910744 96.470448 
L 199.164635 177.915709 
L 199.672415 173.942732 
L 199.926305 162.023892 
L 200.434086 66.673436 
L 200.687976 187.848017 
L 201.195757 121.301306 
L 201.449647 114.348619 
L 201.703537 79.585453 
L 201.957427 79.585453 
L 202.211318 165.996869 
L 202.465208 161.030715 
L 202.719098 81.571897 
L 203.226879 158.051005 
L 203.480769 161.030715 
L 203.734659 126.26746 
L 203.988549 120.308039 
L 204.24244 130.240436 
L 204.75022 179.902153 
L 205.00411 161.030715 
L 205.258001 65.680169 
L 205.511891 131.233613 
L 206.019671 112.362175 
L 206.273562 175.929176 
L 206.781342 63.693726 
L 207.035232 83.55843 
L 207.289123 71.639589 
L 207.543013 167.983312 
L 207.796903 152.091584 
L 208.050793 64.686902 
L 208.304684 106.402755 
L 208.558574 79.585453 
L 209.066354 164.010425 
L 209.320245 111.368909 
L 209.574135 118.321596 
L 209.828025 165.003602 
L 210.081915 156.064471 
L 210.335806 175.929176 
L 210.589696 180.89533 
L 210.843586 164.010425 
L 211.097476 167.983312 
L 211.351367 88.524584 
L 211.605257 83.55843 
L 211.859147 161.030715 
L 212.113037 108.389288 
L 212.366928 107.396022 
L 212.620818 167.983312 
L 212.874708 176.922443 
L 213.128598 162.023892 
L 213.382489 177.915709 
L 213.890269 106.402755 
L 214.14416 121.301306 
L 214.39805 173.942732 
L 214.65194 173.942732 
L 214.90583 109.382465 
L 215.413611 95.477181 
L 215.921391 175.929176 
L 216.175282 173.942732 
L 216.429172 179.902153 
L 216.683062 106.402755 
L 216.936952 109.382465 
L 217.190843 164.010425 
L 217.444733 171.956289 
L 217.698623 161.030715 
L 217.952513 177.915709 
L 218.206404 181.888596 
L 218.460294 75.612476 
L 218.714184 168.976579 
L 218.968074 79.585453 
L 219.221965 173.942732 
L 219.475855 146.132164 
L 219.729745 85.544874 
L 219.983635 175.929176 
L 220.237526 171.956289 
L 220.491416 79.585453 
L 220.745306 70.646323 
L 220.999196 176.922443 
L 221.253087 181.888596 
L 221.506977 178.908886 
L 221.760867 98.456891 
L 222.014757 107.396022 
L 222.268648 163.017158 
L 222.776428 107.396022 
L 223.030318 116.335152 
L 223.284209 178.908886 
L 223.538099 160.037448 
L 223.791989 175.929176 
L 224.045879 169.969756 
L 224.55366 123.287749 
L 224.80755 155.071295 
L 225.06144 118.321596 
L 225.315331 176.922443 
L 225.569221 117.328329 
L 225.823111 106.402755 
L 226.077001 104.416311 
L 226.330892 137.193034 
L 226.584782 112.362175 
L 226.838672 146.132164 
L 227.346453 106.402755 
L 227.600343 102.429868 
L 227.854233 172.949466 
L 228.108123 175.929176 
L 228.362014 167.983312 
L 228.869794 141.16601 
L 229.123684 171.956289 
L 229.377575 179.902153 
L 229.885355 111.368909 
L 230.139245 103.423045 
L 230.393136 113.355442 
L 230.647026 157.057738 
L 230.900916 75.612476 
L 231.154807 167.983312 
L 231.408697 110.375732 
L 231.662587 117.328329 
L 231.916477 112.362175 
L 232.170368 114.348619 
L 232.424258 163.017158 
L 232.678148 109.382465 
L 232.932038 166.990045 
L 233.185929 73.626033 
L 233.693709 178.908886 
L 233.947599 115.341885 
L 234.20149 171.956289 
L 234.45538 150.105141 
L 234.70927 178.908886 
L 234.96316 172.949466 
L 235.217051 117.328329 
L 235.470941 91.504294 
L 235.978721 137.193034 
L 236.486502 179.902153 
L 237.248173 70.646323 
L 237.502063 105.409578 
L 237.755953 104.416311 
L 238.009843 156.064471 
L 238.263734 139.179477 
L 238.517624 178.908886 
L 238.771514 180.89533 
L 239.025404 176.922443 
L 239.279295 177.915709 
L 239.533185 167.983312 
L 239.787075 150.105141 
L 240.040965 174.935999 
L 240.294856 177.915709 
L 240.548746 155.071295 
L 240.802636 143.152454 
L 241.056526 97.463624 
L 241.310417 172.949466 
L 241.564307 180.89533 
L 241.818197 172.949466 
L 242.072087 171.956289 
L 242.325978 75.612476 
L 242.579868 111.368909 
L 242.833758 100.443335 
L 243.087648 104.416311 
L 243.341539 87.531317 
L 244.103209 134.213323 
L 244.3571 115.341885 
L 244.61099 174.935999 
L 244.86488 179.902153 
L 245.11877 104.416311 
L 245.372661 173.942732 
L 245.626551 169.969756 
L 245.880441 109.382465 
L 246.134331 99.450158 
L 246.388222 110.375732 
L 246.642112 144.145721 
L 246.896002 106.402755 
L 247.149893 88.524584 
L 247.403783 162.023892 
L 247.657673 104.416311 
L 247.911563 99.450158 
L 248.165454 116.335152 
L 248.673234 172.949466 
L 248.927124 67.666613 
L 249.181015 178.908886 
L 249.434905 139.179477 
L 249.688795 120.308039 
L 249.942685 111.368909 
L 250.196576 173.942732 
L 250.450466 113.355442 
L 250.704356 104.416311 
L 250.958246 160.037448 
L 251.212137 143.152454 
L 251.466027 168.976579 
L 251.719917 177.915709 
L 251.973807 151.098318 
L 252.227698 173.942732 
L 252.735478 116.335152 
L 252.989368 102.429868 
L 253.243259 180.89533 
L 253.497149 170.963022 
L 253.751039 105.409578 
L 254.004929 121.301306 
L 254.25882 106.402755 
L 254.51271 116.335152 
L 254.7666 180.89533 
L 255.02049 115.341885 
L 255.274381 140.172744 
L 255.528271 100.443335 
L 255.782161 133.220147 
L 256.797722 77.59901 
L 257.051612 117.328329 
L 257.305503 88.524584 
L 257.559393 175.929176 
L 257.813283 79.585453 
L 258.067173 67.666613 
L 258.321064 73.626033 
L 258.574954 126.26746 
L 258.828844 78.592187 
L 259.336625 121.301306 
L 259.590515 104.416311 
L 259.844405 154.078028 
L 260.098295 135.20659 
L 260.352186 133.220147 
L 260.606076 112.362175 
L 260.859966 103.423045 
L 261.113856 179.902153 
L 261.367747 81.571897 
L 261.621637 105.409578 
L 261.875527 102.429868 
L 262.129417 103.423045 
L 262.383308 120.308039 
L 262.637198 104.416311 
L 262.891088 77.59901 
L 263.144979 139.179477 
L 263.398869 71.639589 
L 263.906649 115.341885 
L 264.16054 151.098318 
L 264.41443 98.456891 
L 264.66832 93.490737 
L 264.92221 73.626033 
L 265.176101 77.59901 
L 265.937771 142.159187 
L 266.191662 118.321596 
L 266.445552 153.084761 
L 266.699442 117.328329 
L 266.953332 177.915709 
L 267.207223 176.922443 
L 267.461113 104.416311 
L 267.715003 114.348619 
L 267.968893 150.105141 
L 268.222784 68.659879 
L 268.730564 165.003602 
L 268.984454 76.605743 
L 269.238345 169.969756 
L 269.492235 178.908886 
L 269.746125 74.6193 
L 270.000015 146.132164 
L 270.253906 132.22688 
L 270.507796 85.544874 
L 270.761686 157.057738 
L 271.015576 162.023892 
L 271.269467 117.328329 
L 271.523357 139.179477 
L 271.777247 108.389288 
L 272.031137 63.693726 
L 272.792808 171.956289 
L 273.046698 147.125431 
L 273.300589 98.456891 
L 273.554479 169.969756 
L 273.808369 178.908886 
L 274.062259 138.1863 
L 274.31615 74.6193 
L 274.57004 100.443335 
L 274.82393 177.915709 
L 275.07782 159.044182 
L 275.331711 178.908886 
L 275.585601 103.423045 
L 275.839491 100.443335 
L 276.093381 129.24717 
L 276.347272 112.362175 
L 276.601162 180.89533 
L 276.855052 114.348619 
L 277.362833 137.193034 
L 277.870613 98.456891 
L 278.124503 59.720749 
L 278.378394 143.152454 
L 278.632284 175.929176 
L 278.886174 170.963022 
L 279.140064 107.396022 
L 279.393955 139.179477 
L 279.901735 68.659879 
L 280.155626 81.571897 
L 280.409516 132.22688 
L 280.663406 135.20659 
L 280.917296 109.382465 
L 281.425077 87.531317 
L 281.678967 118.321596 
L 282.186748 67.666613 
L 282.440638 117.328329 
L 282.694528 138.1863 
L 282.948418 75.612476 
L 283.202309 78.592187 
L 283.456199 98.456891 
L 283.710089 72.632766 
L 283.963979 151.098318 
L 284.21787 78.592187 
L 284.47176 98.456891 
L 284.72565 75.612476 
L 284.97954 112.362175 
L 285.233431 173.942732 
L 285.487321 107.396022 
L 285.741211 171.956289 
L 285.995101 161.030715 
L 286.248992 75.612476 
L 286.502882 181.888596 
L 286.756772 140.172744 
L 287.010662 142.159187 
L 287.264553 165.996869 
L 287.518443 110.375732 
L 287.772333 108.389288 
L 288.280114 178.908886 
L 288.534004 176.922443 
L 288.787894 118.321596 
L 289.041784 128.253903 
L 289.295675 154.078028 
L 289.549565 99.450158 
L 289.803455 174.935999 
L 290.057345 178.908886 
L 290.311236 134.213323 
L 290.565126 109.382465 
L 290.819016 138.1863 
L 291.072906 147.125431 
L 291.326797 110.375732 
L 291.580687 110.375732 
L 291.834577 103.423045 
L 292.088467 75.612476 
L 292.342358 156.064471 
L 292.596248 135.20659 
L 292.850138 132.22688 
L 293.104028 127.260726 
L 293.357919 107.396022 
L 293.611809 116.335152 
L 293.865699 96.470448 
L 294.119589 177.915709 
L 294.37348 177.915709 
L 294.62737 175.929176 
L 294.88126 146.132164 
L 295.13515 68.659879 
L 295.389041 178.908886 
L 295.642931 156.064471 
L 295.896821 98.456891 
L 296.150712 135.20659 
L 296.404602 108.389288 
L 296.658492 118.321596 
L 296.912382 172.949466 
L 297.166273 111.368909 
L 297.420163 177.915709 
L 297.674053 123.287749 
L 297.927943 117.328329 
L 298.181834 117.328329 
L 298.689614 93.490737 
L 298.943504 146.132164 
L 299.197395 101.436601 
L 299.705175 66.673436 
L 299.959065 81.571897 
L 300.212956 157.057738 
L 300.466846 147.125431 
L 300.720736 178.908886 
L 300.974626 181.888596 
L 301.228517 81.571897 
L 301.482407 152.091584 
L 301.736297 81.571897 
L 302.244078 118.321596 
L 302.497968 115.341885 
L 302.751858 114.348619 
L 303.005748 85.544874 
L 303.259639 139.179477 
L 303.513529 73.626033 
L 303.767419 149.111874 
L 304.021309 116.335152 
L 304.2752 120.308039 
L 304.52909 103.423045 
L 304.78298 165.996869 
L 305.03687 169.969756 
L 305.290761 152.091584 
L 305.544651 145.138897 
L 305.798541 160.037448 
L 306.052431 156.064471 
L 306.306322 112.362175 
L 306.560212 142.159187 
L 306.814102 65.680169 
L 307.067992 101.436601 
L 307.321883 173.942732 
L 307.575773 176.922443 
L 308.083553 71.639589 
L 308.337444 96.470448 
L 308.591334 100.443335 
L 308.845224 107.396022 
L 309.099114 131.233613 
L 309.353005 103.423045 
L 309.606895 108.389288 
L 309.860785 116.335152 
L 310.114675 150.105141 
L 310.368566 101.436601 
L 310.622456 133.220147 
L 310.876346 77.59901 
L 311.130236 147.125431 
L 311.384127 178.908886 
L 311.638017 89.517761 
L 312.145798 124.281016 
L 312.399688 76.605743 
L 312.653578 135.20659 
L 312.907468 91.504294 
L 313.415249 173.942732 
L 313.669139 126.26746 
L 313.923029 142.159187 
L 314.17692 136.199857 
L 314.43081 101.436601 
L 314.6847 155.071295 
L 315.446371 73.626033 
L 315.954151 138.1863 
L 316.208042 112.362175 
L 316.461932 68.659879 
L 316.461932 68.659879 
" clip-path="url(#p9cd5630440)" style="fill: none; stroke: #ff0000; stroke-width: 0.6; stroke-linecap: square"/>
   </g>
   <g id="patch_3">
    <path d="M 50.14375 239.76 
L 50.14375 37.296 
" style="fill: none; stroke: #000000; stroke-width: 0.8; stroke-linejoin: miter; stroke-linecap: square"/>
   </g>
   <g id="patch_4">
    <path d="M 329.14375 239.76 
L 329.14375 37.296 
" style="fill: none; stroke: #000000; stroke-width: 0.8; stroke-linejoin: miter; stroke-linecap: square"/>
   </g>
   <g id="patch_5">
    <path d="M 50.14375 239.76 
L 329.14375 239.76 
" style="fill: none; stroke: #000000; stroke-width: 0.8; stroke-linejoin: miter; stroke-linecap: square"/>
   </g>
   <g id="patch_6">
    <path d="M 50.14375 37.296 
L 329.14375 37.296 
" style="fill: none; stroke: #000000; stroke-width: 0.8; stroke-linejoin: miter; stroke-linecap: square"/>
   </g>
   <g id="text_15">
    <!-- Baseline Model -->
    <g transform="translate(155.622344 31.296) scale(0.09 -0.09)">
     <defs>
      <path id="DejaVuSans-42" d="M 1259 2228 
L 1259 519 
L 2272 519 
Q 2781 519 3026 730 
Q 3272 941 3272 1375 
Q 3272 1813 3026 2020 
Q 2781 2228 2272 2228 
L 1259 2228 
z
M 1259 4147 
L 1259 2741 
L 2194 2741 
Q 2656 2741 2882 2914 
Q 3109 3088 3109 3444 
Q 3109 3797 2882 3972 
Q 2656 4147 2194 4147 
L 1259 4147 
z
M 628 4666 
L 2241 4666 
Q 2963 4666 3353 4366 
Q 3744 4066 3744 3513 
Q 3744 3084 3544 2831 
Q 3344 2578 2956 2516 
Q 3422 2416 3680 2098 
Q 3938 1781 3938 1306 
Q 3938 681 3513 340 
Q 3088 0 2303 0 
L 628 0 
L 628 4666 
z
" transform="scale(0.015625)"/>
      <path id="DejaVuSans-65" d="M 3597 1894 
L 3597 1613 
L 953 1613 
Q 991 1019 1311 708 
Q 1631 397 2203 397 
Q 2534 397 2845 478 
Q 3156 559 3463 722 
L 3463 178 
Q 3153 47 2828 -22 
Q 2503 -91 2169 -91 
Q 1331 -91 842 396 
Q 353 884 353 1716 
Q 353 2575 817 3079 
Q 1281 3584 2069 3584 
Q 2775 3584 3186 3129 
Q 3597 2675 3597 1894 
z
M 3022 2063 
Q 3016 2534 2758 2815 
Q 2500 3097 2075 3097 
Q 1594 3097 1305 2825 
Q 1016 2553 972 2059 
L 3022 2063 
z
" transform="scale(0.015625)"/>
      <path id="DejaVuSans-6c" d="M 603 4863 
L 1178 4863 
L 1178 0 
L 603 0 
L 603 4863 
z
" transform="scale(0.015625)"/>
      <path id="DejaVuSans-69" d="M 603 3500 
L 1178 3500 
L 1178 0 
L 603 0 
L 603 3500 
z
M 603 4863 
L 1178 4863 
L 1178 4134 
L 603 4134 
L 603 4863 
z
" transform="scale(0.015625)"/>
      <path id="DejaVuSans-6e" d="M 3513 2113 
L 3513 0 
L 2938 0 
L 2938 2094 
Q 2938 2591 2744 2837 
Q 2550 3084 2163 3084 
Q 1697 3084 1428 2787 
Q 1159 2491 1159 1978 
L 1159 0 
L 581 0 
L 581 3500 
L 1159 3500 
L 1159 2956 
Q 1366 3272 1645 3428 
Q 1925 3584 2291 3584 
Q 2894 3584 3203 3211 
Q 3513 2838 3513 2113 
z
" transform="scale(0.015625)"/>
      <path id="DejaVuSans-20" transform="scale(0.015625)"/>
      <path id="DejaVuSans-4d" d="M 628 4666 
L 1569 4666 
L 2759 1491 
L 3956 4666 
L 4897 4666 
L 4897 0 
L 4281 0 
L 4281 4097 
L 3078 897 
L 2444 897 
L 1241 4097 
L 1241 0 
L 628 0 
L 628 4666 
z
" transform="scale(0.015625)"/>
      <path id="DejaVuSans-64" d="M 2906 2969 
L 2906 4863 
L 3481 4863 
L 3481 0 
L 2906 0 
L 2906 525 
Q 2725 213 2448 61 
Q 2172 -91 1784 -91 
Q 1150 -91 751 415 
Q 353 922 353 1747 
Q 353 2572 751 3078 
Q 1150 3584 1784 3584 
Q 2172 3584 2448 3432 
Q 2725 3281 2906 2969 
z
M 947 1747 
Q 947 1113 1208 752 
Q 1469 391 1925 391 
Q 2381 391 2643 752 
Q 2906 1113 2906 1747 
Q 2906 2381 2643 2742 
Q 2381 3103 1925 3103 
Q 1469 3103 1208 2742 
Q 947 2381 947 1747 
z
" transform="scale(0.015625)"/>
     </defs>
     <use xlink:href="#DejaVuSans-42"/>
     <use xlink:href="#DejaVuSans-61" x="68.603516"/>
     <use xlink:href="#DejaVuSans-73" x="129.882812"/>
     <use xlink:href="#DejaVuSans-65" x="181.982422"/>
     <use xlink:href="#DejaVuSans-6c" x="243.505859"/>
     <use xlink:href="#DejaVuSans-69" x="271.289062"/>
     <use xlink:href="#DejaVuSans-6e" x="299.072266"/>
     <use xlink:href="#DejaVuSans-65" x="362.451172"/>
     <use xlink:href="#DejaVuSans-20" x="423.974609"/>
     <use xlink:href="#DejaVuSans-4d" x="455.761719"/>
     <use xlink:href="#DejaVuSans-6f" x="542.041016"/>
     <use xlink:href="#DejaVuSans-64" x="603.222656"/>
     <use xlink:href="#DejaVuSans-65" x="666.699219"/>
     <use xlink:href="#DejaVuSans-6c" x="728.222656"/>
    </g>
   </g>
   <g id="legend_1">
    <g id="patch_7">
     <path d="M 191.928125 234.76 
L 322.14375 234.76 
Q 324.14375 234.76 324.14375 232.76 
L 324.14375 204.40375 
Q 324.14375 202.40375 322.14375 202.40375 
L 191.928125 202.40375 
Q 189.928125 202.40375 189.928125 204.40375 
L 189.928125 232.76 
Q 189.928125 234.76 191.928125 234.76 
z
" style="fill: #ffffff; opacity: 0.8; stroke: #cccccc; stroke-linejoin: miter"/>
    </g>
    <g id="line2d_27">
     <path d="M 193.928125 210.502187 
L 203.928125 210.502187 
L 213.928125 210.502187 
" style="fill: none; stroke: #0000ff; stroke-width: 0.6; stroke-linecap: square"/>
    </g>
    <g id="text_16">
     <!-- Training Accuracy -->
     <g transform="translate(221.928125 214.002187) scale(0.1 -0.1)">
      <defs>
       <path id="DejaVuSans-54" d="M -19 4666 
L 3928 4666 
L 3928 4134 
L 2272 4134 
L 2272 0 
L 1638 0 
L 1638 4134 
L -19 4134 
L -19 4666 
z
" transform="scale(0.015625)"/>
       <path id="DejaVuSans-67" d="M 2906 1791 
Q 2906 2416 2648 2759 
Q 2391 3103 1925 3103 
Q 1463 3103 1205 2759 
Q 947 2416 947 1791 
Q 947 1169 1205 825 
Q 1463 481 1925 481 
Q 2391 481 2648 825 
Q 2906 1169 2906 1791 
z
M 3481 434 
Q 3481 -459 3084 -895 
Q 2688 -1331 1869 -1331 
Q 1566 -1331 1297 -1286 
Q 1028 -1241 775 -1147 
L 775 -588 
Q 1028 -725 1275 -790 
Q 1522 -856 1778 -856 
Q 2344 -856 2625 -561 
Q 2906 -266 2906 331 
L 2906 616 
Q 2728 306 2450 153 
Q 2172 0 1784 0 
Q 1141 0 747 490 
Q 353 981 353 1791 
Q 353 2603 747 3093 
Q 1141 3584 1784 3584 
Q 2172 3584 2450 3431 
Q 2728 3278 2906 2969 
L 2906 3500 
L 3481 3500 
L 3481 434 
z
" transform="scale(0.015625)"/>
      </defs>
      <use xlink:href="#DejaVuSans-54"/>
      <use xlink:href="#DejaVuSans-72" x="46.333984"/>
      <use xlink:href="#DejaVuSans-61" x="87.447266"/>
      <use xlink:href="#DejaVuSans-69" x="148.726562"/>
      <use xlink:href="#DejaVuSans-6e" x="176.509766"/>
      <use xlink:href="#DejaVuSans-69" x="239.888672"/>
      <use xlink:href="#DejaVuSans-6e" x="267.671875"/>
      <use xlink:href="#DejaVuSans-67" x="331.050781"/>
      <use xlink:href="#DejaVuSans-20" x="394.527344"/>
      <use xlink:href="#DejaVuSans-41" x="426.314453"/>
      <use xlink:href="#DejaVuSans-63" x="492.972656"/>
      <use xlink:href="#DejaVuSans-63" x="547.953125"/>
      <use xlink:href="#DejaVuSans-75" x="602.933594"/>
      <use xlink:href="#DejaVuSans-72" x="666.3125"/>
      <use xlink:href="#DejaVuSans-61" x="707.425781"/>
      <use xlink:href="#DejaVuSans-63" x="768.705078"/>
      <use xlink:href="#DejaVuSans-79" x="823.685547"/>
     </g>
    </g>
    <g id="line2d_28">
     <path d="M 193.928125 225.180312 
L 203.928125 225.180312 
L 213.928125 225.180312 
" style="fill: none; stroke: #ff0000; stroke-width: 0.6; stroke-linecap: square"/>
    </g>
    <g id="text_17">
     <!-- Validation Accuracy -->
     <g transform="translate(221.928125 228.680312) scale(0.1 -0.1)">
      <defs>
       <path id="DejaVuSans-56" d="M 1831 0 
L 50 4666 
L 709 4666 
L 2188 738 
L 3669 4666 
L 4325 4666 
L 2547 0 
L 1831 0 
z
" transform="scale(0.015625)"/>
       <path id="DejaVuSans-74" d="M 1172 4494 
L 1172 3500 
L 2356 3500 
L 2356 3053 
L 1172 3053 
L 1172 1153 
Q 1172 725 1289 603 
Q 1406 481 1766 481 
L 2356 481 
L 2356 0 
L 1766 0 
Q 1100 0 847 248 
Q 594 497 594 1153 
L 594 3053 
L 172 3053 
L 172 3500 
L 594 3500 
L 594 4494 
L 1172 4494 
z
" transform="scale(0.015625)"/>
      </defs>
      <use xlink:href="#DejaVuSans-56"/>
      <use xlink:href="#DejaVuSans-61" x="60.658203"/>
      <use xlink:href="#DejaVuSans-6c" x="121.9375"/>
      <use xlink:href="#DejaVuSans-69" x="149.720703"/>
      <use xlink:href="#DejaVuSans-64" x="177.503906"/>
      <use xlink:href="#DejaVuSans-61" x="240.980469"/>
      <use xlink:href="#DejaVuSans-74" x="302.259766"/>
      <use xlink:href="#DejaVuSans-69" x="341.46875"/>
      <use xlink:href="#DejaVuSans-6f" x="369.251953"/>
      <use xlink:href="#DejaVuSans-6e" x="430.433594"/>
      <use xlink:href="#DejaVuSans-20" x="493.8125"/>
      <use xlink:href="#DejaVuSans-41" x="525.599609"/>
      <use xlink:href="#DejaVuSans-63" x="592.257812"/>
      <use xlink:href="#DejaVuSans-63" x="647.238281"/>
      <use xlink:href="#DejaVuSans-75" x="702.21875"/>
      <use xlink:href="#DejaVuSans-72" x="765.597656"/>
      <use xlink:href="#DejaVuSans-61" x="806.710938"/>
      <use xlink:href="#DejaVuSans-63" x="867.990234"/>
      <use xlink:href="#DejaVuSans-79" x="922.970703"/>
     </g>
    </g>
   </g>
  </g>
  <g id="text_18">
   <!-- Training VS. Validation Accuracy - Dataset Size = 100.0% -->
   <g transform="translate(27.796484 15.558281) scale(0.11 -0.11)">
    <defs>
     <path id="DejaVuSans-53" d="M 3425 4513 
L 3425 3897 
Q 3066 4069 2747 4153 
Q 2428 4238 2131 4238 
Q 1616 4238 1336 4038 
Q 1056 3838 1056 3469 
Q 1056 3159 1242 3001 
Q 1428 2844 1947 2747 
L 2328 2669 
Q 3034 2534 3370 2195 
Q 3706 1856 3706 1288 
Q 3706 609 3251 259 
Q 2797 -91 1919 -91 
Q 1588 -91 1214 -16 
Q 841 59 441 206 
L 441 856 
Q 825 641 1194 531 
Q 1563 422 1919 422 
Q 2459 422 2753 634 
Q 3047 847 3047 1241 
Q 3047 1584 2836 1778 
Q 2625 1972 2144 2069 
L 1759 2144 
Q 1053 2284 737 2584 
Q 422 2884 422 3419 
Q 422 4038 858 4394 
Q 1294 4750 2059 4750 
Q 2388 4750 2728 4690 
Q 3069 4631 3425 4513 
z
" transform="scale(0.015625)"/>
     <path id="DejaVuSans-2d" d="M 313 2009 
L 1997 2009 
L 1997 1497 
L 313 1497 
L 313 2009 
z
" transform="scale(0.015625)"/>
     <path id="DejaVuSans-44" d="M 1259 4147 
L 1259 519 
L 2022 519 
Q 2988 519 3436 956 
Q 3884 1394 3884 2338 
Q 3884 3275 3436 3711 
Q 2988 4147 2022 4147 
L 1259 4147 
z
M 628 4666 
L 1925 4666 
Q 3281 4666 3915 4102 
Q 4550 3538 4550 2338 
Q 4550 1131 3912 565 
Q 3275 0 1925 0 
L 628 0 
L 628 4666 
z
" transform="scale(0.015625)"/>
     <path id="DejaVuSans-7a" d="M 353 3500 
L 3084 3500 
L 3084 2975 
L 922 459 
L 3084 459 
L 3084 0 
L 275 0 
L 275 525 
L 2438 3041 
L 353 3041 
L 353 3500 
z
" transform="scale(0.015625)"/>
     <path id="DejaVuSans-3d" d="M 678 2906 
L 4684 2906 
L 4684 2381 
L 678 2381 
L 678 2906 
z
M 678 1631 
L 4684 1631 
L 4684 1100 
L 678 1100 
L 678 1631 
z
" transform="scale(0.015625)"/>
     <path id="DejaVuSans-25" d="M 4653 2053 
Q 4381 2053 4226 1822 
Q 4072 1591 4072 1178 
Q 4072 772 4226 539 
Q 4381 306 4653 306 
Q 4919 306 5073 539 
Q 5228 772 5228 1178 
Q 5228 1588 5073 1820 
Q 4919 2053 4653 2053 
z
M 4653 2450 
Q 5147 2450 5437 2106 
Q 5728 1763 5728 1178 
Q 5728 594 5436 251 
Q 5144 -91 4653 -91 
Q 4153 -91 3862 251 
Q 3572 594 3572 1178 
Q 3572 1766 3864 2108 
Q 4156 2450 4653 2450 
z
M 1428 4353 
Q 1159 4353 1004 4120 
Q 850 3888 850 3481 
Q 850 3069 1003 2837 
Q 1156 2606 1428 2606 
Q 1700 2606 1854 2837 
Q 2009 3069 2009 3481 
Q 2009 3884 1853 4118 
Q 1697 4353 1428 4353 
z
M 4250 4750 
L 4750 4750 
L 1831 -91 
L 1331 -91 
L 4250 4750 
z
M 1428 4750 
Q 1922 4750 2215 4408 
Q 2509 4066 2509 3481 
Q 2509 2891 2217 2550 
Q 1925 2209 1428 2209 
Q 931 2209 642 2551 
Q 353 2894 353 3481 
Q 353 4063 643 4406 
Q 934 4750 1428 4750 
z
" transform="scale(0.015625)"/>
    </defs>
    <use xlink:href="#DejaVuSans-54"/>
    <use xlink:href="#DejaVuSans-72" x="46.333984"/>
    <use xlink:href="#DejaVuSans-61" x="87.447266"/>
    <use xlink:href="#DejaVuSans-69" x="148.726562"/>
    <use xlink:href="#DejaVuSans-6e" x="176.509766"/>
    <use xlink:href="#DejaVuSans-69" x="239.888672"/>
    <use xlink:href="#DejaVuSans-6e" x="267.671875"/>
    <use xlink:href="#DejaVuSans-67" x="331.050781"/>
    <use xlink:href="#DejaVuSans-20" x="394.527344"/>
    <use xlink:href="#DejaVuSans-56" x="426.314453"/>
    <use xlink:href="#DejaVuSans-53" x="494.722656"/>
    <use xlink:href="#DejaVuSans-2e" x="558.199219"/>
    <use xlink:href="#DejaVuSans-20" x="589.986328"/>
    <use xlink:href="#DejaVuSans-56" x="621.773438"/>
    <use xlink:href="#DejaVuSans-61" x="682.431641"/>
    <use xlink:href="#DejaVuSans-6c" x="743.710938"/>
    <use xlink:href="#DejaVuSans-69" x="771.494141"/>
    <use xlink:href="#DejaVuSans-64" x="799.277344"/>
    <use xlink:href="#DejaVuSans-61" x="862.753906"/>
    <use xlink:href="#DejaVuSans-74" x="924.033203"/>
    <use xlink:href="#DejaVuSans-69" x="963.242188"/>
    <use xlink:href="#DejaVuSans-6f" x="991.025391"/>
    <use xlink:href="#DejaVuSans-6e" x="1052.207031"/>
    <use xlink:href="#DejaVuSans-20" x="1115.585938"/>
    <use xlink:href="#DejaVuSans-41" x="1147.373047"/>
    <use xlink:href="#DejaVuSans-63" x="1214.03125"/>
    <use xlink:href="#DejaVuSans-63" x="1269.011719"/>
    <use xlink:href="#DejaVuSans-75" x="1323.992188"/>
    <use xlink:href="#DejaVuSans-72" x="1387.371094"/>
    <use xlink:href="#DejaVuSans-61" x="1428.484375"/>
    <use xlink:href="#DejaVuSans-63" x="1489.763672"/>
    <use xlink:href="#DejaVuSans-79" x="1544.744141"/>
    <use xlink:href="#DejaVuSans-20" x="1603.923828"/>
    <use xlink:href="#DejaVuSans-2d" x="1635.710938"/>
    <use xlink:href="#DejaVuSans-20" x="1671.794922"/>
    <use xlink:href="#DejaVuSans-44" x="1703.582031"/>
    <use xlink:href="#DejaVuSans-61" x="1780.583984"/>
    <use xlink:href="#DejaVuSans-74" x="1841.863281"/>
    <use xlink:href="#DejaVuSans-61" x="1881.072266"/>
    <use xlink:href="#DejaVuSans-73" x="1942.351562"/>
    <use xlink:href="#DejaVuSans-65" x="1994.451172"/>
    <use xlink:href="#DejaVuSans-74" x="2055.974609"/>
    <use xlink:href="#DejaVuSans-20" x="2095.183594"/>
    <use xlink:href="#DejaVuSans-53" x="2126.970703"/>
    <use xlink:href="#DejaVuSans-69" x="2190.447266"/>
    <use xlink:href="#DejaVuSans-7a" x="2218.230469"/>
    <use xlink:href="#DejaVuSans-65" x="2270.720703"/>
    <use xlink:href="#DejaVuSans-20" x="2332.244141"/>
    <use xlink:href="#DejaVuSans-3d" x="2364.03125"/>
    <use xlink:href="#DejaVuSans-20" x="2447.820312"/>
    <use xlink:href="#DejaVuSans-31" x="2479.607422"/>
    <use xlink:href="#DejaVuSans-30" x="2543.230469"/>
    <use xlink:href="#DejaVuSans-30" x="2606.853516"/>
    <use xlink:href="#DejaVuSans-2e" x="2670.476562"/>
    <use xlink:href="#DejaVuSans-30" x="2702.263672"/>
    <use xlink:href="#DejaVuSans-25" x="2765.886719"/>
   </g>
  </g>
 </g>
 <defs>
  <clipPath id="p9cd5630440">
   <rect x="50.14375" y="37.296" width="279" height="202.464"/>
  </clipPath>
 </defs>
</svg>
