<?xml version="1.0" encoding="utf-8" standalone="no"?>
<!DOCTYPE svg PUBLIC "-//W3C//DTD SVG 1.1//EN"
  "http://www.w3.org/Graphics/SVG/1.1/DTD/svg11.dtd">
<svg xmlns:xlink="http://www.w3.org/1999/xlink" width="349.691016pt" height="277.31625pt" viewBox="0 0 349.691016 277.31625" xmlns="http://www.w3.org/2000/svg" version="1.1">
 <metadata>
  <rdf:RDF xmlns:dc="http://purl.org/dc/elements/1.1/" xmlns:cc="http://creativecommons.org/ns#" xmlns:rdf="http://www.w3.org/1999/02/22-rdf-syntax-ns#">
   <cc:Work>
    <dc:type rdf:resource="http://purl.org/dc/dcmitype/StillImage"/>
    <dc:date>2026-06-11T18:29:49.623747</dc:date>
    <dc:format>image/svg+xml</dc:format>
    <dc:creator>
     <cc:Agent>
      <dc:title>Matplotlib v3.8.4, https://matplotlib.org/</dc:title>
     </cc:Agent>
    </dc:creator>
   </cc:Work>
  </rdf:RDF>
 </metadata>
 <defs>
  <style type="text/css">*{stroke-linejoin: round; stroke-linecap: butt}</style>
 </defs>
 <g id="figure_1">
  <g id="patch_1">
   <path d="M 0 277.31625 
L 349.691016 277.31625 
L 349.691016 0 
L 0 0 
z
" style="fill: #ffffff"/>
  </g>
  <g id="axes_1">
   <g id="patch_2">
    <path d="M 50.14375 239.76 
L 329.14375 239.76 
L 329.14375 37.296 
L 50.14375 37.296 
z
" style="fill: #ffffff"/>
   </g>
   <g id="matplotlib.axis_1">
    <g id="xtick_1">
     <g id="line2d_1">
      <path d="M 62.571678 239.76 
L 62.571678 37.296 
" clip-path="url(#p7ebb5030df)" style="fill: none; stroke-dasharray: 2.96,1.28; stroke-dashoffset: 0; stroke: #b0b0b0; stroke-opacity: 0.4; stroke-width: 0.8"/>
     </g>
     <g id="line2d_2">
      <defs>
       <path id="m02f4153b3b" d="M 0 0 
L 0 3.5 
" style="stroke: #000000; stroke-width: 0.8"/>
      </defs>
      <g>
       <use xlink:href="#m02f4153b3b" x="62.571678" y="239.76" style="stroke: #000000; stroke-width: 0.8"/>
      </g>
     </g>
     <g id="text_1">
      <!-- 0 -->
      <g transform="translate(59.390428 254.358437) scale(0.1 -0.1)">
       <defs>
        <path id="DejaVuSans-30" d="M 2034 4250 
Q 1547 4250 1301 3770 
Q 1056 3291 1056 2328 
Q 1056 1369 1301 889 
Q 1547 409 2034 409 
Q 2525 409 2770 889 
Q 3016 1369 3016 2328 
Q 3016 3291 2770 3770 
Q 2525 4250 2034 4250 
z
M 2034 4750 
Q 2819 4750 3233 4129 
Q 3647 3509 3647 2328 
Q 3647 1150 3233 529 
Q 2819 -91 2034 -91 
Q 1250 -91 836 529 
Q 422 1150 422 2328 
Q 422 3509 836 4129 
Q 1250 4750 2034 4750 
z
" transform="scale(0.015625)"/>
       </defs>
       <use xlink:href="#DejaVuSans-30"/>
      </g>
     </g>
    </g>
    <g id="xtick_2">
     <g id="line2d_3">
      <path d="M 113.349729 239.76 
L 113.349729 37.296 
" clip-path="url(#p7ebb5030df)" style="fill: none; stroke-dasharray: 2.96,1.28; stroke-dashoffset: 0; stroke: #b0b0b0; stroke-opacity: 0.4; stroke-width: 0.8"/>
     </g>
     <g id="line2d_4">
      <g>
       <use xlink:href="#m02f4153b3b" x="113.349729" y="239.76" style="stroke: #000000; stroke-width: 0.8"/>
      </g>
     </g>
     <g id="text_2">
      <!-- 200 -->
      <g transform="translate(103.805979 254.358437) scale(0.1 -0.1)">
       <defs>
        <path id="DejaVuSans-32" d="M 1228 531 
L 3431 531 
L 3431 0 
L 469 0 
L 469 531 
Q 828 903 1448 1529 
Q 2069 2156 2228 2338 
Q 2531 2678 2651 2914 
Q 2772 3150 2772 3378 
Q 2772 3750 2511 3984 
Q 2250 4219 1831 4219 
Q 1534 4219 1204 4116 
Q 875 4013 500 3803 
L 500 4441 
Q 881 4594 1212 4672 
Q 1544 4750 1819 4750 
Q 2544 4750 2975 4387 
Q 3406 4025 3406 3419 
Q 3406 3131 3298 2873 
Q 3191 2616 2906 2266 
Q 2828 2175 2409 1742 
Q 1991 1309 1228 531 
z
" transform="scale(0.015625)"/>
       </defs>
       <use xlink:href="#DejaVuSans-32"/>
       <use xlink:href="#DejaVuSans-30" x="63.623047"/>
       <use xlink:href="#DejaVuSans-30" x="127.246094"/>
      </g>
     </g>
    </g>
    <g id="xtick_3">
     <g id="line2d_5">
      <path d="M 164.127779 239.76 
L 164.127779 37.296 
" clip-path="url(#p7ebb5030df)" style="fill: none; stroke-dasharray: 2.96,1.28; stroke-dashoffset: 0; stroke: #b0b0b0; stroke-opacity: 0.4; stroke-width: 0.8"/>
     </g>
     <g id="line2d_6">
      <g>
       <use xlink:href="#m02f4153b3b" x="164.127779" y="239.76" style="stroke: #000000; stroke-width: 0.8"/>
      </g>
     </g>
     <g id="text_3">
      <!-- 400 -->
      <g transform="translate(154.584029 254.358437) scale(0.1 -0.1)">
       <defs>
        <path id="DejaVuSans-34" d="M 2419 4116 
L 825 1625 
L 2419 1625 
L 2419 4116 
z
M 2253 4666 
L 3047 4666 
L 3047 1625 
L 3713 1625 
L 3713 1100 
L 3047 1100 
L 3047 0 
L 2419 0 
L 2419 1100 
L 313 1100 
L 313 1709 
L 2253 4666 
z
" transform="scale(0.015625)"/>
       </defs>
       <use xlink:href="#DejaVuSans-34"/>
       <use xlink:href="#DejaVuSans-30" x="63.623047"/>
       <use xlink:href="#DejaVuSans-30" x="127.246094"/>
      </g>
     </g>
    </g>
    <g id="xtick_4">
     <g id="line2d_7">
      <path d="M 214.90583 239.76 
L 214.90583 37.296 
" clip-path="url(#p7ebb5030df)" style="fill: none; stroke-dasharray: 2.96,1.28; stroke-dashoffset: 0; stroke: #b0b0b0; stroke-opacity: 0.4; stroke-width: 0.8"/>
     </g>
     <g id="line2d_8">
      <g>
       <use xlink:href="#m02f4153b3b" x="214.90583" y="239.76" style="stroke: #000000; stroke-width: 0.8"/>
      </g>
     </g>
     <g id="text_4">
      <!-- 600 -->
      <g transform="translate(205.36208 254.358437) scale(0.1 -0.1)">
       <defs>
        <path id="DejaVuSans-36" d="M 2113 2584 
Q 1688 2584 1439 2293 
Q 1191 2003 1191 1497 
Q 1191 994 1439 701 
Q 1688 409 2113 409 
Q 2538 409 2786 701 
Q 3034 994 3034 1497 
Q 3034 2003 2786 2293 
Q 2538 2584 2113 2584 
z
M 3366 4563 
L 3366 3988 
Q 3128 4100 2886 4159 
Q 2644 4219 2406 4219 
Q 1781 4219 1451 3797 
Q 1122 3375 1075 2522 
Q 1259 2794 1537 2939 
Q 1816 3084 2150 3084 
Q 2853 3084 3261 2657 
Q 3669 2231 3669 1497 
Q 3669 778 3244 343 
Q 2819 -91 2113 -91 
Q 1303 -91 875 529 
Q 447 1150 447 2328 
Q 447 3434 972 4092 
Q 1497 4750 2381 4750 
Q 2619 4750 2861 4703 
Q 3103 4656 3366 4563 
z
" transform="scale(0.015625)"/>
       </defs>
       <use xlink:href="#DejaVuSans-36"/>
       <use xlink:href="#DejaVuSans-30" x="63.623047"/>
       <use xlink:href="#DejaVuSans-30" x="127.246094"/>
      </g>
     </g>
    </g>
    <g id="xtick_5">
     <g id="line2d_9">
      <path d="M 265.683881 239.76 
L 265.683881 37.296 
" clip-path="url(#p7ebb5030df)" style="fill: none; stroke-dasharray: 2.96,1.28; stroke-dashoffset: 0; stroke: #b0b0b0; stroke-opacity: 0.4; stroke-width: 0.8"/>
     </g>
     <g id="line2d_10">
      <g>
       <use xlink:href="#m02f4153b3b" x="265.683881" y="239.76" style="stroke: #000000; stroke-width: 0.8"/>
      </g>
     </g>
     <g id="text_5">
      <!-- 800 -->
      <g transform="translate(256.140131 254.358437) scale(0.1 -0.1)">
       <defs>
        <path id="DejaVuSans-38" d="M 2034 2216 
Q 1584 2216 1326 1975 
Q 1069 1734 1069 1313 
Q 1069 891 1326 650 
Q 1584 409 2034 409 
Q 2484 409 2743 651 
Q 3003 894 3003 1313 
Q 3003 1734 2745 1975 
Q 2488 2216 2034 2216 
z
M 1403 2484 
Q 997 2584 770 2862 
Q 544 3141 544 3541 
Q 544 4100 942 4425 
Q 1341 4750 2034 4750 
Q 2731 4750 3128 4425 
Q 3525 4100 3525 3541 
Q 3525 3141 3298 2862 
Q 3072 2584 2669 2484 
Q 3125 2378 3379 2068 
Q 3634 1759 3634 1313 
Q 3634 634 3220 271 
Q 2806 -91 2034 -91 
Q 1263 -91 848 271 
Q 434 634 434 1313 
Q 434 1759 690 2068 
Q 947 2378 1403 2484 
z
M 1172 3481 
Q 1172 3119 1398 2916 
Q 1625 2713 2034 2713 
Q 2441 2713 2670 2916 
Q 2900 3119 2900 3481 
Q 2900 3844 2670 4047 
Q 2441 4250 2034 4250 
Q 1625 4250 1398 4047 
Q 1172 3844 1172 3481 
z
" transform="scale(0.015625)"/>
       </defs>
       <use xlink:href="#DejaVuSans-38"/>
       <use xlink:href="#DejaVuSans-30" x="63.623047"/>
       <use xlink:href="#DejaVuSans-30" x="127.246094"/>
      </g>
     </g>
    </g>
    <g id="xtick_6">
     <g id="line2d_11">
      <path d="M 316.461932 239.76 
L 316.461932 37.296 
" clip-path="url(#p7ebb5030df)" style="fill: none; stroke-dasharray: 2.96,1.28; stroke-dashoffset: 0; stroke: #b0b0b0; stroke-opacity: 0.4; stroke-width: 0.8"/>
     </g>
     <g id="line2d_12">
      <g>
       <use xlink:href="#m02f4153b3b" x="316.461932" y="239.76" style="stroke: #000000; stroke-width: 0.8"/>
      </g>
     </g>
     <g id="text_6">
      <!-- 1000 -->
      <g transform="translate(303.736932 254.358437) scale(0.1 -0.1)">
       <defs>
        <path id="DejaVuSans-31" d="M 794 531 
L 1825 531 
L 1825 4091 
L 703 3866 
L 703 4441 
L 1819 4666 
L 2450 4666 
L 2450 531 
L 3481 531 
L 3481 0 
L 794 0 
L 794 531 
z
" transform="scale(0.015625)"/>
       </defs>
       <use xlink:href="#DejaVuSans-31"/>
       <use xlink:href="#DejaVuSans-30" x="63.623047"/>
       <use xlink:href="#DejaVuSans-30" x="127.246094"/>
       <use xlink:href="#DejaVuSans-30" x="190.869141"/>
      </g>
     </g>
    </g>
    <g id="text_7">
     <!-- Epochs -->
     <g transform="translate(171.728125 268.036562) scale(0.1 -0.1)">
      <defs>
       <path id="DejaVuSans-45" d="M 628 4666 
L 3578 4666 
L 3578 4134 
L 1259 4134 
L 1259 2753 
L 3481 2753 
L 3481 2222 
L 1259 2222 
L 1259 531 
L 3634 531 
L 3634 0 
L 628 0 
L 628 4666 
z
" transform="scale(0.015625)"/>
       <path id="DejaVuSans-70" d="M 1159 525 
L 1159 -1331 
L 581 -1331 
L 581 3500 
L 1159 3500 
L 1159 2969 
Q 1341 3281 1617 3432 
Q 1894 3584 2278 3584 
Q 2916 3584 3314 3078 
Q 3713 2572 3713 1747 
Q 3713 922 3314 415 
Q 2916 -91 2278 -91 
Q 1894 -91 1617 61 
Q 1341 213 1159 525 
z
M 3116 1747 
Q 3116 2381 2855 2742 
Q 2594 3103 2138 3103 
Q 1681 3103 1420 2742 
Q 1159 2381 1159 1747 
Q 1159 1113 1420 752 
Q 1681 391 2138 391 
Q 2594 391 2855 752 
Q 3116 1113 3116 1747 
z
" transform="scale(0.015625)"/>
       <path id="DejaVuSans-6f" d="M 1959 3097 
Q 1497 3097 1228 2736 
Q 959 2375 959 1747 
Q 959 1119 1226 758 
Q 1494 397 1959 397 
Q 2419 397 2687 759 
Q 2956 1122 2956 1747 
Q 2956 2369 2687 2733 
Q 2419 3097 1959 3097 
z
M 1959 3584 
Q 2709 3584 3137 3096 
Q 3566 2609 3566 1747 
Q 3566 888 3137 398 
Q 2709 -91 1959 -91 
Q 1206 -91 779 398 
Q 353 888 353 1747 
Q 353 2609 779 3096 
Q 1206 3584 1959 3584 
z
" transform="scale(0.015625)"/>
       <path id="DejaVuSans-63" d="M 3122 3366 
L 3122 2828 
Q 2878 2963 2633 3030 
Q 2388 3097 2138 3097 
Q 1578 3097 1268 2742 
Q 959 2388 959 1747 
Q 959 1106 1268 751 
Q 1578 397 2138 397 
Q 2388 397 2633 464 
Q 2878 531 3122 666 
L 3122 134 
Q 2881 22 2623 -34 
Q 2366 -91 2075 -91 
Q 1284 -91 818 406 
Q 353 903 353 1747 
Q 353 2603 823 3093 
Q 1294 3584 2113 3584 
Q 2378 3584 2631 3529 
Q 2884 3475 3122 3366 
z
" transform="scale(0.015625)"/>
       <path id="DejaVuSans-68" d="M 3513 2113 
L 3513 0 
L 2938 0 
L 2938 2094 
Q 2938 2591 2744 2837 
Q 2550 3084 2163 3084 
Q 1697 3084 1428 2787 
Q 1159 2491 1159 1978 
L 1159 0 
L 581 0 
L 581 4863 
L 1159 4863 
L 1159 2956 
Q 1366 3272 1645 3428 
Q 1925 3584 2291 3584 
Q 2894 3584 3203 3211 
Q 3513 2838 3513 2113 
z
" transform="scale(0.015625)"/>
       <path id="DejaVuSans-73" d="M 2834 3397 
L 2834 2853 
Q 2591 2978 2328 3040 
Q 2066 3103 1784 3103 
Q 1356 3103 1142 2972 
Q 928 2841 928 2578 
Q 928 2378 1081 2264 
Q 1234 2150 1697 2047 
L 1894 2003 
Q 2506 1872 2764 1633 
Q 3022 1394 3022 966 
Q 3022 478 2636 193 
Q 2250 -91 1575 -91 
Q 1294 -91 989 -36 
Q 684 19 347 128 
L 347 722 
Q 666 556 975 473 
Q 1284 391 1588 391 
Q 1994 391 2212 530 
Q 2431 669 2431 922 
Q 2431 1156 2273 1281 
Q 2116 1406 1581 1522 
L 1381 1569 
Q 847 1681 609 1914 
Q 372 2147 372 2553 
Q 372 3047 722 3315 
Q 1072 3584 1716 3584 
Q 2034 3584 2315 3537 
Q 2597 3491 2834 3397 
z
" transform="scale(0.015625)"/>
      </defs>
      <use xlink:href="#DejaVuSans-45"/>
      <use xlink:href="#DejaVuSans-70" x="63.183594"/>
      <use xlink:href="#DejaVuSans-6f" x="126.660156"/>
      <use xlink:href="#DejaVuSans-63" x="187.841797"/>
      <use xlink:href="#DejaVuSans-68" x="242.822266"/>
      <use xlink:href="#DejaVuSans-73" x="306.201172"/>
     </g>
    </g>
   </g>
   <g id="matplotlib.axis_2">
    <g id="ytick_1">
     <g id="line2d_13">
      <path d="M 50.14375 224.766506 
L 329.14375 224.766506 
" clip-path="url(#p7ebb5030df)" style="fill: none; stroke-dasharray: 2.96,1.28; stroke-dashoffset: 0; stroke: #b0b0b0; stroke-opacity: 0.4; stroke-width: 0.8"/>
     </g>
     <g id="line2d_14">
      <defs>
       <path id="med250f38ce" d="M 0 0 
L -3.5 0 
" style="stroke: #000000; stroke-width: 0.8"/>
      </defs>
      <g>
       <use xlink:href="#med250f38ce" x="50.14375" y="224.766506" style="stroke: #000000; stroke-width: 0.8"/>
      </g>
     </g>
     <g id="text_8">
      <!-- 0.48 -->
      <g transform="translate(20.878125 228.565725) scale(0.1 -0.1)">
       <defs>
        <path id="DejaVuSans-2e" d="M 684 794 
L 1344 794 
L 1344 0 
L 684 0 
L 684 794 
z
" transform="scale(0.015625)"/>
       </defs>
       <use xlink:href="#DejaVuSans-30"/>
       <use xlink:href="#DejaVuSans-2e" x="63.623047"/>
       <use xlink:href="#DejaVuSans-34" x="95.410156"/>
       <use xlink:href="#DejaVuSans-38" x="159.033203"/>
      </g>
     </g>
    </g>
    <g id="ytick_2">
     <g id="line2d_15">
      <path d="M 50.14375 193.331846 
L 329.14375 193.331846 
" clip-path="url(#p7ebb5030df)" style="fill: none; stroke-dasharray: 2.96,1.28; stroke-dashoffset: 0; stroke: #b0b0b0; stroke-opacity: 0.4; stroke-width: 0.8"/>
     </g>
     <g id="line2d_16">
      <g>
       <use xlink:href="#med250f38ce" x="50.14375" y="193.331846" style="stroke: #000000; stroke-width: 0.8"/>
      </g>
     </g>
     <g id="text_9">
      <!-- 0.50 -->
      <g transform="translate(20.878125 197.131065) scale(0.1 -0.1)">
       <defs>
        <path id="DejaVuSans-35" d="M 691 4666 
L 3169 4666 
L 3169 4134 
L 1269 4134 
L 1269 2991 
Q 1406 3038 1543 3061 
Q 1681 3084 1819 3084 
Q 2600 3084 3056 2656 
Q 3513 2228 3513 1497 
Q 3513 744 3044 326 
Q 2575 -91 1722 -91 
Q 1428 -91 1123 -41 
Q 819 9 494 109 
L 494 744 
Q 775 591 1075 516 
Q 1375 441 1709 441 
Q 2250 441 2565 725 
Q 2881 1009 2881 1497 
Q 2881 1984 2565 2268 
Q 2250 2553 1709 2553 
Q 1456 2553 1204 2497 
Q 953 2441 691 2322 
L 691 4666 
z
" transform="scale(0.015625)"/>
       </defs>
       <use xlink:href="#DejaVuSans-30"/>
       <use xlink:href="#DejaVuSans-2e" x="63.623047"/>
       <use xlink:href="#DejaVuSans-35" x="95.410156"/>
       <use xlink:href="#DejaVuSans-30" x="159.033203"/>
      </g>
     </g>
    </g>
    <g id="ytick_3">
     <g id="line2d_17">
      <path d="M 50.14375 161.897185 
L 329.14375 161.897185 
" clip-path="url(#p7ebb5030df)" style="fill: none; stroke-dasharray: 2.96,1.28; stroke-dashoffset: 0; stroke: #b0b0b0; stroke-opacity: 0.4; stroke-width: 0.8"/>
     </g>
     <g id="line2d_18">
      <g>
       <use xlink:href="#med250f38ce" x="50.14375" y="161.897185" style="stroke: #000000; stroke-width: 0.8"/>
      </g>
     </g>
     <g id="text_10">
      <!-- 0.52 -->
      <g transform="translate(20.878125 165.696404) scale(0.1 -0.1)">
       <use xlink:href="#DejaVuSans-30"/>
       <use xlink:href="#DejaVuSans-2e" x="63.623047"/>
       <use xlink:href="#DejaVuSans-35" x="95.410156"/>
       <use xlink:href="#DejaVuSans-32" x="159.033203"/>
      </g>
     </g>
    </g>
    <g id="ytick_4">
     <g id="line2d_19">
      <path d="M 50.14375 130.462525 
L 329.14375 130.462525 
" clip-path="url(#p7ebb5030df)" style="fill: none; stroke-dasharray: 2.96,1.28; stroke-dashoffset: 0; stroke: #b0b0b0; stroke-opacity: 0.4; stroke-width: 0.8"/>
     </g>
     <g id="line2d_20">
      <g>
       <use xlink:href="#med250f38ce" x="50.14375" y="130.462525" style="stroke: #000000; stroke-width: 0.8"/>
      </g>
     </g>
     <g id="text_11">
      <!-- 0.54 -->
      <g transform="translate(20.878125 134.261744) scale(0.1 -0.1)">
       <use xlink:href="#DejaVuSans-30"/>
       <use xlink:href="#DejaVuSans-2e" x="63.623047"/>
       <use xlink:href="#DejaVuSans-35" x="95.410156"/>
       <use xlink:href="#DejaVuSans-34" x="159.033203"/>
      </g>
     </g>
    </g>
    <g id="ytick_5">
     <g id="line2d_21">
      <path d="M 50.14375 99.027864 
L 329.14375 99.027864 
" clip-path="url(#p7ebb5030df)" style="fill: none; stroke-dasharray: 2.96,1.28; stroke-dashoffset: 0; stroke: #b0b0b0; stroke-opacity: 0.4; stroke-width: 0.8"/>
     </g>
     <g id="line2d_22">
      <g>
       <use xlink:href="#med250f38ce" x="50.14375" y="99.027864" style="stroke: #000000; stroke-width: 0.8"/>
      </g>
     </g>
     <g id="text_12">
      <!-- 0.56 -->
      <g transform="translate(20.878125 102.827083) scale(0.1 -0.1)">
       <use xlink:href="#DejaVuSans-30"/>
       <use xlink:href="#DejaVuSans-2e" x="63.623047"/>
       <use xlink:href="#DejaVuSans-35" x="95.410156"/>
       <use xlink:href="#DejaVuSans-36" x="159.033203"/>
      </g>
     </g>
    </g>
    <g id="ytick_6">
     <g id="line2d_23">
      <path d="M 50.14375 67.593204 
L 329.14375 67.593204 
" clip-path="url(#p7ebb5030df)" style="fill: none; stroke-dasharray: 2.96,1.28; stroke-dashoffset: 0; stroke: #b0b0b0; stroke-opacity: 0.4; stroke-width: 0.8"/>
     </g>
     <g id="line2d_24">
      <g>
       <use xlink:href="#med250f38ce" x="50.14375" y="67.593204" style="stroke: #000000; stroke-width: 0.8"/>
      </g>
     </g>
     <g id="text_13">
      <!-- 0.58 -->
      <g transform="translate(20.878125 71.392423) scale(0.1 -0.1)">
       <use xlink:href="#DejaVuSans-30"/>
       <use xlink:href="#DejaVuSans-2e" x="63.623047"/>
       <use xlink:href="#DejaVuSans-35" x="95.410156"/>
       <use xlink:href="#DejaVuSans-38" x="159.033203"/>
      </g>
     </g>
    </g>
    <g id="text_14">
     <!-- Accuracy -->
     <g transform="translate(14.798438 161.356125) rotate(-90) scale(0.1 -0.1)">
      <defs>
       <path id="DejaVuSans-41" d="M 2188 4044 
L 1331 1722 
L 3047 1722 
L 2188 4044 
z
M 1831 4666 
L 2547 4666 
L 4325 0 
L 3669 0 
L 3244 1197 
L 1141 1197 
L 716 0 
L 50 0 
L 1831 4666 
z
" transform="scale(0.015625)"/>
       <path id="DejaVuSans-75" d="M 544 1381 
L 544 3500 
L 1119 3500 
L 1119 1403 
Q 1119 906 1312 657 
Q 1506 409 1894 409 
Q 2359 409 2629 706 
Q 2900 1003 2900 1516 
L 2900 3500 
L 3475 3500 
L 3475 0 
L 2900 0 
L 2900 538 
Q 2691 219 2414 64 
Q 2138 -91 1772 -91 
Q 1169 -91 856 284 
Q 544 659 544 1381 
z
M 1991 3584 
L 1991 3584 
z
" transform="scale(0.015625)"/>
       <path id="DejaVuSans-72" d="M 2631 2963 
Q 2534 3019 2420 3045 
Q 2306 3072 2169 3072 
Q 1681 3072 1420 2755 
Q 1159 2438 1159 1844 
L 1159 0 
L 581 0 
L 581 3500 
L 1159 3500 
L 1159 2956 
Q 1341 3275 1631 3429 
Q 1922 3584 2338 3584 
Q 2397 3584 2469 3576 
Q 2541 3569 2628 3553 
L 2631 2963 
z
" transform="scale(0.015625)"/>
       <path id="DejaVuSans-61" d="M 2194 1759 
Q 1497 1759 1228 1600 
Q 959 1441 959 1056 
Q 959 750 1161 570 
Q 1363 391 1709 391 
Q 2188 391 2477 730 
Q 2766 1069 2766 1631 
L 2766 1759 
L 2194 1759 
z
M 3341 1997 
L 3341 0 
L 2766 0 
L 2766 531 
Q 2569 213 2275 61 
Q 1981 -91 1556 -91 
Q 1019 -91 701 211 
Q 384 513 384 1019 
Q 384 1609 779 1909 
Q 1175 2209 1959 2209 
L 2766 2209 
L 2766 2266 
Q 2766 2663 2505 2880 
Q 2244 3097 1772 3097 
Q 1472 3097 1187 3025 
Q 903 2953 641 2809 
L 641 3341 
Q 956 3463 1253 3523 
Q 1550 3584 1831 3584 
Q 2591 3584 2966 3190 
Q 3341 2797 3341 1997 
z
" transform="scale(0.015625)"/>
       <path id="DejaVuSans-79" d="M 2059 -325 
Q 1816 -950 1584 -1140 
Q 1353 -1331 966 -1331 
L 506 -1331 
L 506 -850 
L 844 -850 
Q 1081 -850 1212 -737 
Q 1344 -625 1503 -206 
L 1606 56 
L 191 3500 
L 800 3500 
L 1894 763 
L 2988 3500 
L 3597 3500 
L 2059 -325 
z
" transform="scale(0.015625)"/>
      </defs>
      <use xlink:href="#DejaVuSans-41"/>
      <use xlink:href="#DejaVuSans-63" x="66.658203"/>
      <use xlink:href="#DejaVuSans-63" x="121.638672"/>
      <use xlink:href="#DejaVuSans-75" x="176.619141"/>
      <use xlink:href="#DejaVuSans-72" x="239.998047"/>
      <use xlink:href="#DejaVuSans-61" x="281.111328"/>
      <use xlink:href="#DejaVuSans-63" x="342.390625"/>
      <use xlink:href="#DejaVuSans-79" x="397.371094"/>
     </g>
    </g>
   </g>
   <g id="line2d_25">
    <path d="M 62.825568 182.250788 
L 63.079458 175.158923 
L 63.333349 193.775105 
L 63.587239 195.548048 
L 64.34891 160.088767 
L 64.85669 199.53724 
L 65.11058 179.591327 
L 65.364471 179.591327 
L 65.618361 150.780652 
L 65.872251 164.077959 
L 66.126141 164.964383 
L 66.380032 156.099575 
L 66.633922 154.769844 
L 66.887812 162.748228 
L 67.141702 143.68888 
L 67.395593 159.645554 
L 67.649483 153.440113 
L 67.903373 160.975285 
L 68.157264 141.472631 
L 68.411154 136.597014 
L 68.665044 154.326632 
L 68.918934 151.66717 
L 69.172825 150.33744 
L 69.426715 139.256382 
L 69.680605 138.81317 
L 69.934495 133.937553 
L 70.188386 156.542787 
L 70.442276 152.553689 
L 70.696166 166.294114 
L 70.950056 133.494341 
L 71.203947 133.051035 
L 71.457837 148.564497 
L 71.711727 123.299708 
L 71.965617 135.710496 
L 72.219508 169.396788 
L 72.473398 133.494341 
L 72.727288 159.202248 
L 72.981178 154.326632 
L 73.235069 139.256382 
L 73.488959 148.564497 
L 73.742849 139.256382 
L 73.996739 153.883419 
L 74.25063 130.83488 
L 74.50452 133.051035 
L 74.75841 147.234766 
L 75.0123 147.234766 
L 75.266191 137.926745 
L 75.520081 167.623845 
L 76.281752 133.494341 
L 76.535642 152.553689 
L 76.789532 153.883419 
L 77.043422 146.348248 
L 77.297313 129.948361 
L 77.551203 131.721304 
L 77.805093 122.413283 
L 78.058983 150.780652 
L 78.312874 111.775438 
L 78.820654 146.348248 
L 79.074544 134.823978 
L 79.328435 144.132092 
L 79.582325 121.083553 
L 80.090105 150.780652 
L 80.343996 124.629439 
L 80.597886 128.618631 
L 81.105666 161.86171 
L 81.359557 149.894227 
L 81.613447 146.791554 
L 81.867337 138.369957 
L 82.121227 147.677978 
L 82.375118 140.586113 
L 82.882898 176.488653 
L 83.136788 120.197034 
L 83.390679 148.121284 
L 83.644569 126.845688 
L 84.15235 146.348248 
L 84.40624 144.575305 
L 84.91402 137.483439 
L 85.167911 137.483439 
L 85.421801 145.461823 
L 85.675691 134.380765 
L 85.929581 165.850902 
L 86.183472 141.915843 
L 86.437362 158.315824 
L 86.945142 117.980879 
L 87.199033 139.699688 
L 87.452923 141.472631 
L 87.706813 130.83488 
L 87.960703 144.132092 
L 88.214594 142.802362 
L 88.468484 121.970071 
L 88.722374 142.359149 
L 88.976264 150.780652 
L 89.230155 130.83488 
L 89.484045 142.802362 
L 89.737935 127.2889 
L 89.991825 99.364743 
L 90.245716 131.278092 
L 90.499606 119.753822 
L 90.753496 130.83488 
L 91.007386 130.83488 
L 91.261277 132.16461 
L 91.769057 109.559283 
L 92.022947 143.245574 
L 92.276838 141.915843 
L 92.530728 120.197034 
L 92.784618 137.926745 
L 93.038508 129.948361 
L 93.292399 126.402475 
L 93.546289 121.083553 
L 93.800179 144.575305 
L 94.054069 121.526765 
L 94.56185 102.467417 
L 94.81574 106.899821 
L 95.06963 125.959169 
L 95.323521 154.326632 
L 95.831301 100.251168 
L 96.085191 115.321418 
L 96.339082 121.083553 
L 96.592972 115.76463 
L 96.846862 136.153708 
L 97.100752 130.391573 
L 97.608533 113.105169 
L 97.862423 135.267284 
L 98.116313 137.483439 
L 98.370204 102.467417 
L 98.624094 110.002495 
L 98.877984 125.515957 
L 99.131874 118.424091 
L 99.385765 123.743014 
L 99.639655 115.76463 
L 99.893545 111.775438 
L 100.147436 117.980879 
L 100.401326 159.202248 
L 100.655216 115.76463 
L 100.909106 115.321418 
L 101.162997 106.456609 
L 101.416887 118.867304 
L 102.178558 84.7378 
L 102.432448 84.294494 
L 102.686338 120.197034 
L 102.940228 93.602608 
L 103.194119 106.456609 
L 103.448009 110.445801 
L 103.701899 125.959169 
L 103.955789 124.629439 
L 104.20968 127.2889 
L 104.46357 94.489033 
L 104.71746 111.332226 
L 104.97135 90.056629 
L 105.225241 111.775438 
L 105.479131 103.797148 
L 105.733021 117.094361 
L 105.986911 109.559283 
L 106.240802 107.343034 
L 106.494692 106.456609 
L 106.748582 97.5918 
L 107.002472 94.932339 
L 107.256363 118.424091 
L 107.510253 91.829665 
L 107.764143 98.478225 
L 108.018033 122.413283 
L 108.271924 101.137686 
L 108.525814 105.570091 
L 108.779704 116.651148 
L 109.033594 136.153708 
L 109.287485 119.31061 
L 109.541375 121.526765 
L 109.795265 128.175418 
L 110.049155 113.105169 
L 110.303046 115.321418 
L 110.556936 106.456609 
L 110.810826 135.710496 
L 111.064716 109.559283 
L 111.318607 106.013303 
L 111.572497 88.283686 
L 111.826387 106.899821 
L 112.080277 111.332226 
L 112.334168 122.856496 
L 112.588058 97.148494 
L 112.841948 90.499935 
L 113.095838 116.651148 
L 113.349729 119.31061 
L 113.603619 119.753822 
L 113.857509 133.494341 
L 114.111399 102.467417 
L 114.36529 95.818764 
L 114.61918 109.11607 
L 114.87307 93.602608 
L 115.12696 86.953955 
L 115.380851 100.694474 
L 115.634741 121.526765 
L 115.888631 119.753822 
L 116.396412 99.364743 
L 116.650302 114.878205 
L 116.904192 93.159396 
L 117.158083 105.126878 
L 117.411973 94.045821 
L 117.665863 99.807956 
L 117.919753 110.889013 
L 118.173644 103.353935 
L 118.427534 91.829665 
L 118.681424 103.353935 
L 118.935314 100.694474 
L 119.189205 100.694474 
L 119.443095 92.272878 
L 119.950875 101.580899 
L 120.204766 85.181012 
L 120.712546 111.775438 
L 120.966436 79.862089 
L 121.220327 72.770224 
L 121.728107 117.537573 
L 121.981997 96.705282 
L 122.235888 106.899821 
L 122.489778 88.726898 
L 122.997558 121.083553 
L 123.251449 102.024205 
L 123.505339 73.656742 
L 123.759229 95.375551 
L 124.013119 93.159396 
L 124.26701 95.818764 
L 124.5209 101.580899 
L 124.77479 98.921531 
L 125.02868 99.807956 
L 125.282571 82.078338 
L 125.536461 100.694474 
L 125.790351 78.975665 
L 126.044241 101.137686 
L 126.298132 105.126878 
L 126.552022 115.76463 
L 126.805912 87.397261 
L 127.059802 95.375551 
L 127.313693 83.408069 
L 127.567583 118.424091 
L 127.821473 102.467417 
L 128.075363 94.932339 
L 128.329254 135.267284 
L 128.583144 95.375551 
L 128.837034 90.499935 
L 129.090924 100.694474 
L 129.344815 104.683666 
L 129.598705 91.829665 
L 130.106485 103.353935 
L 130.360376 117.094361 
L 130.614266 85.181012 
L 130.868156 102.024205 
L 131.122046 94.932339 
L 131.375937 118.424091 
L 131.629827 96.705282 
L 131.883717 125.959169 
L 132.137607 89.613416 
L 132.391498 98.035013 
L 132.645388 94.489033 
L 132.899278 94.045821 
L 133.153169 87.840473 
L 133.407059 113.548475 
L 133.660949 114.434899 
L 133.914839 82.078338 
L 134.16873 87.397261 
L 134.42262 102.024205 
L 134.67651 106.456609 
L 134.9304 103.353935 
L 135.184291 93.602608 
L 135.438181 101.580899 
L 135.945961 80.748608 
L 136.199852 106.456609 
L 136.453742 89.170204 
L 136.707632 98.478225 
L 137.215413 80.748608 
L 137.469303 78.975665 
L 137.977083 102.467417 
L 138.230974 86.510743 
L 138.484864 85.181012 
L 138.738754 113.105169 
L 138.992644 102.467417 
L 139.246535 101.137686 
L 139.500425 90.499935 
L 139.754315 110.002495 
L 140.008205 90.056629 
L 140.262096 100.694474 
L 140.515986 98.478225 
L 140.769876 69.66755 
L 141.023766 79.418877 
L 141.277657 78.532359 
L 141.531547 85.181012 
L 141.785437 86.06753 
L 142.293218 91.386359 
L 142.800998 102.467417 
L 143.054888 88.726898 
L 143.308779 84.7378 
L 143.562669 106.013303 
L 143.816559 78.975665 
L 144.070449 104.683666 
L 144.32434 105.126878 
L 144.57823 86.510743 
L 144.83212 80.305395 
L 145.08601 96.26207 
L 145.339901 94.932339 
L 145.593791 105.570091 
L 145.847681 85.181012 
L 146.101571 78.532359 
L 146.355462 90.056629 
L 146.609352 94.489033 
L 146.863242 79.418877 
L 147.117132 87.840473 
L 147.371023 89.170204 
L 147.624913 96.705282 
L 147.878803 74.986473 
L 148.132693 98.035013 
L 148.386584 80.748608 
L 148.894364 120.64034 
L 149.148255 76.759416 
L 149.402145 90.943147 
L 149.656035 90.056629 
L 149.909925 76.759416 
L 150.163816 76.316203 
L 150.417706 97.5918 
L 150.671596 90.499935 
L 150.925486 79.418877 
L 151.179377 81.635126 
L 151.433267 88.283686 
L 151.687157 98.035013 
L 151.941047 82.964763 
L 152.194938 83.408069 
L 152.702718 91.386359 
L 152.956608 82.078338 
L 153.210499 79.418877 
L 153.464389 109.11607 
L 153.972169 78.532359 
L 154.22606 90.499935 
L 154.47995 86.953955 
L 154.73384 99.807956 
L 155.241621 76.316203 
L 155.495511 85.181012 
L 155.749401 71.883799 
L 156.003291 87.397261 
L 156.257182 79.862089 
L 156.511072 99.364743 
L 156.764962 81.635126 
L 157.018852 80.748608 
L 157.272743 97.5918 
L 157.526633 65.235146 
L 157.780523 78.975665 
L 158.034413 76.759416 
L 158.542194 99.807956 
L 158.796084 82.521551 
L 159.049974 82.964763 
L 159.303865 95.375551 
L 159.557755 77.202628 
L 159.811645 70.110856 
L 160.319426 82.521551 
L 160.573316 85.181012 
L 160.827206 91.829665 
L 161.081096 58.586586 
L 161.334987 103.353935 
L 161.588877 95.375551 
L 161.842767 70.997281 
L 162.350548 90.499935 
L 162.604438 87.840473 
L 162.858328 101.137686 
L 163.112218 84.294494 
L 163.366109 94.932339 
L 163.619999 94.932339 
L 163.873889 79.418877 
L 164.127779 91.386359 
L 164.63556 77.202628 
L 164.88945 89.613416 
L 165.397231 65.678358 
L 165.651121 87.397261 
L 165.905011 82.078338 
L 166.158902 70.110856 
L 166.412792 80.305395 
L 166.666682 102.024205 
L 166.920572 82.521551 
L 167.174463 92.272878 
L 167.428353 90.499935 
L 167.682243 86.510743 
L 167.936133 106.456609 
L 168.190024 86.510743 
L 168.443914 81.19182 
L 168.697804 92.272878 
L 168.951694 89.170204 
L 169.205585 73.21353 
L 169.459475 81.635126 
L 169.713365 78.975665 
L 169.967255 81.635126 
L 170.221146 78.975665 
L 170.475036 80.305395 
L 170.728926 78.975665 
L 170.982816 81.19182 
L 171.236707 92.272878 
L 171.490597 86.06753 
L 171.744487 74.099954 
L 171.998377 94.489033 
L 172.506158 84.294494 
L 172.760048 70.554068 
L 173.013938 80.305395 
L 173.267829 79.418877 
L 173.775609 89.613416 
L 174.029499 90.499935 
L 174.28339 82.521551 
L 174.53728 92.272878 
L 174.79117 84.294494 
L 175.04506 99.807956 
L 175.298951 105.570091 
L 175.806731 95.375551 
L 176.060621 91.829665 
L 176.314512 86.06753 
L 176.568402 88.726898 
L 176.822292 87.840473 
L 177.076182 76.759416 
L 177.330073 91.386359 
L 177.583963 94.045821 
L 177.837853 75.429685 
L 178.091743 90.943147 
L 178.345634 91.386359 
L 178.599524 95.818764 
L 178.853414 69.224338 
L 179.107304 77.202628 
L 179.361195 78.975665 
L 179.615085 90.056629 
L 179.868975 89.170204 
L 180.122865 76.316203 
L 180.376756 96.26207 
L 180.630646 97.5918 
L 180.884536 101.580899 
L 181.138426 91.829665 
L 181.392317 94.045821 
L 181.646207 85.181012 
L 181.900097 82.521551 
L 182.153988 86.510743 
L 182.407878 102.467417 
L 182.661768 79.862089 
L 182.915658 84.7378 
L 183.169549 96.705282 
L 183.423439 78.532359 
L 183.677329 78.975665 
L 183.931219 82.521551 
L 184.18511 71.440493 
L 184.439 90.499935 
L 184.69289 77.202628 
L 184.94678 77.645934 
L 185.200671 55.927125 
L 185.454561 92.272878 
L 185.708451 67.451395 
L 185.962341 65.235146 
L 186.216232 74.986473 
L 186.470122 77.202628 
L 186.724012 85.181012 
L 186.977902 78.089146 
L 187.485683 105.126878 
L 187.739573 102.024205 
L 187.993463 69.66755 
L 188.247354 85.624224 
L 188.501244 74.099954 
L 189.009024 89.613416 
L 189.262915 83.408069 
L 189.770695 63.462203 
L 190.024585 98.478225 
L 190.278476 112.218744 
L 190.532366 76.759416 
L 190.786256 86.510743 
L 191.040146 84.7378 
L 191.294037 75.429685 
L 191.547927 75.872991 
L 191.801817 74.986473 
L 192.055707 82.078338 
L 192.309598 63.462203 
L 192.563488 70.997281 
L 192.817378 72.770224 
L 193.071268 73.21353 
L 193.325159 79.862089 
L 193.579049 71.883799 
L 193.832939 87.840473 
L 194.34072 69.224338 
L 194.59461 89.170204 
L 194.8485 76.759416 
L 195.356281 67.451395 
L 195.610171 78.975665 
L 195.864061 72.327011 
L 196.117951 75.872991 
L 196.371842 69.224338 
L 196.625732 84.7378 
L 196.879622 83.408069 
L 197.133512 76.759416 
L 197.387403 92.272878 
L 197.641293 69.66755 
L 197.895183 87.397261 
L 198.149074 87.840473 
L 198.402964 70.997281 
L 198.656854 78.975665 
L 198.910744 74.099954 
L 199.164635 73.21353 
L 199.418525 68.337819 
L 199.672415 80.748608 
L 199.926305 67.451395 
L 200.180196 78.532359 
L 200.434086 75.872991 
L 200.941866 100.694474 
L 201.195757 68.781125 
L 201.703537 89.613416 
L 201.957427 88.283686 
L 202.211318 96.705282 
L 202.465208 63.905415 
L 202.719098 74.986473 
L 202.972988 75.872991 
L 203.226879 78.089146 
L 203.480769 109.11607 
L 203.734659 78.975665 
L 203.988549 74.986473 
L 204.24244 68.337819 
L 204.49633 96.705282 
L 204.75022 90.943147 
L 205.00411 127.2889 
L 205.511891 75.429685 
L 205.765781 97.148494 
L 206.019671 87.840473 
L 206.273562 87.397261 
L 206.527452 71.883799 
L 206.781342 88.283686 
L 207.289123 96.26207 
L 207.543013 70.110856 
L 207.796903 83.851281 
L 208.050793 70.110856 
L 208.304684 92.272878 
L 208.558574 76.316203 
L 208.812464 93.159396 
L 209.066354 91.386359 
L 209.320245 98.035013 
L 209.574135 80.305395 
L 209.828025 87.840473 
L 210.081915 82.521551 
L 210.335806 88.283686 
L 210.589696 67.894607 
L 210.843586 93.602608 
L 211.097476 92.272878 
L 211.351367 111.332226 
L 211.859147 81.635126 
L 212.113037 89.613416 
L 212.366928 80.305395 
L 212.620818 79.418877 
L 212.874708 101.580899 
L 213.128598 87.840473 
L 213.382489 95.818764 
L 213.636379 78.089146 
L 213.890269 82.964763 
L 214.39805 65.235146 
L 214.65194 90.499935 
L 214.90583 89.613416 
L 215.159721 93.602608 
L 215.413611 90.056629 
L 215.667501 90.943147 
L 215.921391 86.06753 
L 216.175282 97.148494 
L 216.429172 91.829665 
L 216.683062 90.499935 
L 216.936952 82.521551 
L 217.190843 82.078338 
L 217.444733 109.11607 
L 217.698623 72.770224 
L 217.952513 89.613416 
L 218.206404 90.499935 
L 218.460294 92.71609 
L 218.714184 74.099954 
L 218.968074 113.105169 
L 219.221965 89.170204 
L 219.475855 109.11607 
L 219.983635 72.770224 
L 220.237526 97.148494 
L 220.491416 90.943147 
L 220.745306 97.148494 
L 220.999196 79.862089 
L 221.253087 96.26207 
L 221.760867 91.829665 
L 222.014757 98.478225 
L 222.268648 113.105169 
L 222.522538 86.510743 
L 222.776428 83.851281 
L 223.030318 73.21353 
L 223.284209 97.5918 
L 223.538099 98.035013 
L 223.791989 83.851281 
L 224.045879 85.181012 
L 224.29977 91.829665 
L 224.55366 94.045821 
L 224.80755 92.71609 
L 225.06144 94.045821 
L 225.823111 80.748608 
L 226.077001 85.624224 
L 226.330892 104.683666 
L 226.584782 82.964763 
L 226.838672 99.364743 
L 227.092562 65.678358 
L 227.600343 88.726898 
L 227.854233 85.624224 
L 228.108123 78.089146 
L 228.362014 65.235146 
L 228.615904 82.964763 
L 228.869794 77.645934 
L 229.123684 93.602608 
L 229.377575 62.575684 
L 229.885355 95.375551 
L 230.139245 85.181012 
L 230.393136 59.916223 
L 230.647026 93.159396 
L 230.900916 77.645934 
L 231.154807 83.851281 
L 231.408697 84.7378 
L 231.662587 96.26207 
L 231.916477 73.656742 
L 232.424258 90.056629 
L 232.678148 103.353935 
L 232.932038 100.251168 
L 233.185929 89.613416 
L 233.439819 74.099954 
L 233.693709 71.883799 
L 233.947599 60.802741 
L 234.20149 94.932339 
L 234.45538 81.635126 
L 234.70927 93.159396 
L 234.96316 91.829665 
L 235.217051 82.964763 
L 235.470941 82.521551 
L 235.724831 92.71609 
L 235.978721 86.06753 
L 236.232612 90.943147 
L 236.486502 93.159396 
L 236.740392 89.170204 
L 236.994282 61.68926 
L 237.248173 85.181012 
L 237.502063 91.386359 
L 237.755953 90.943147 
L 238.009843 64.348721 
L 238.263734 70.110856 
L 238.517624 67.894607 
L 238.771514 106.013303 
L 239.025404 106.456609 
L 239.279295 73.21353 
L 239.533185 93.159396 
L 239.787075 67.894607 
L 240.040965 86.953955 
L 240.294856 72.770224 
L 240.548746 86.06753 
L 240.802636 74.099954 
L 241.056526 86.510743 
L 241.564307 89.613416 
L 241.818197 102.910629 
L 242.072087 78.532359 
L 242.325978 70.554068 
L 242.579868 101.580899 
L 242.833758 76.759416 
L 243.341539 93.602608 
L 243.595429 102.467417 
L 243.849319 86.953955 
L 244.103209 85.181012 
L 244.3571 88.726898 
L 244.61099 103.353935 
L 244.86488 91.829665 
L 245.11877 74.099954 
L 245.372661 110.445801 
L 245.626551 78.089146 
L 245.880441 74.54326 
L 246.134331 76.316203 
L 246.388222 90.943147 
L 246.642112 71.883799 
L 246.896002 86.510743 
L 247.149893 79.418877 
L 247.403783 60.802741 
L 247.657673 86.510743 
L 247.911563 66.564876 
L 248.165454 83.408069 
L 248.419344 60.802741 
L 248.927124 116.651148 
L 249.181015 81.635126 
L 249.434905 106.456609 
L 249.688795 83.851281 
L 249.942685 80.748608 
L 250.196576 72.770224 
L 250.450466 84.294494 
L 250.704356 105.570091 
L 250.958246 108.672764 
L 251.212137 81.19182 
L 251.466027 86.953955 
L 251.719917 89.613416 
L 251.973807 104.683666 
L 252.735478 85.181012 
L 252.989368 91.829665 
L 253.243259 85.624224 
L 253.497149 92.71609 
L 253.751039 88.726898 
L 254.004929 70.554068 
L 254.51271 114.878205 
L 254.7666 92.272878 
L 255.02049 91.829665 
L 255.274381 77.202628 
L 255.528271 86.510743 
L 255.782161 105.570091 
L 256.036051 67.894607 
L 256.289942 83.408069 
L 256.543832 74.986473 
L 256.797722 71.883799 
L 257.051612 86.06753 
L 257.305503 88.283686 
L 257.559393 72.327011 
L 257.813283 73.21353 
L 258.067173 108.229552 
L 258.321064 90.943147 
L 258.574954 87.840473 
L 258.828844 70.110856 
L 259.082734 70.110856 
L 259.590515 104.683666 
L 259.844405 82.521551 
L 260.098295 78.975665 
L 260.352186 95.818764 
L 260.606076 98.921531 
L 261.113856 81.19182 
L 261.367747 86.510743 
L 261.621637 98.035013 
L 261.875527 67.451395 
L 262.129417 78.532359 
L 262.383308 108.229552 
L 262.637198 75.872991 
L 262.891088 91.829665 
L 263.144979 73.21353 
L 263.398869 86.06753 
L 263.652759 75.429685 
L 263.906649 81.635126 
L 264.16054 84.294494 
L 264.41443 109.559283 
L 264.66832 88.726898 
L 264.92221 96.26207 
L 265.176101 109.559283 
L 265.429991 103.797148 
L 265.683881 85.624224 
L 265.937771 93.159396 
L 266.191662 80.748608 
L 266.445552 74.986473 
L 266.699442 78.532359 
L 266.953332 72.327011 
L 267.207223 91.386359 
L 267.461113 95.818764 
L 267.715003 86.510743 
L 267.968893 94.045821 
L 268.222784 72.327011 
L 268.476674 88.726898 
L 268.730564 68.337819 
L 268.984454 87.397261 
L 269.238345 81.635126 
L 269.492235 81.19182 
L 269.746125 87.397261 
L 270.000015 89.170204 
L 270.253906 94.932339 
L 270.761686 70.997281 
L 271.015576 81.19182 
L 271.269467 78.532359 
L 271.523357 85.624224 
L 271.777247 81.635126 
L 272.031137 67.451395 
L 272.285028 95.375551 
L 272.538918 104.683666 
L 272.792808 90.499935 
L 273.046698 98.478225 
L 273.300589 95.375551 
L 273.554479 98.478225 
L 273.808369 77.202628 
L 274.062259 78.975665 
L 274.31615 88.726898 
L 274.57004 81.19182 
L 274.82393 100.694474 
L 275.07782 88.726898 
L 275.331711 89.170204 
L 275.585601 99.807956 
L 275.839491 92.71609 
L 276.093381 89.170204 
L 276.347272 77.645934 
L 276.601162 78.532359 
L 276.855052 77.645934 
L 277.108942 103.353935 
L 277.362833 89.170204 
L 277.870613 104.24036 
L 278.124503 78.089146 
L 278.378394 80.748608 
L 278.632284 77.202628 
L 278.886174 89.170204 
L 279.140064 75.429685 
L 279.393955 70.554068 
L 279.647845 63.01899 
L 279.901735 88.283686 
L 280.409516 74.986473 
L 280.663406 80.748608 
L 281.171187 71.440493 
L 281.425077 73.21353 
L 281.678967 77.645934 
L 281.932857 68.337819 
L 282.186748 106.899821 
L 282.440638 75.872991 
L 282.694528 86.510743 
L 282.948418 91.386359 
L 283.202309 92.71609 
L 283.456199 60.359529 
L 283.710089 81.19182 
L 283.963979 82.964763 
L 284.21787 76.316203 
L 284.47176 85.181012 
L 284.72565 73.21353 
L 284.97954 90.499935 
L 285.233431 70.997281 
L 285.487321 92.272878 
L 285.741211 78.975665 
L 285.995101 72.327011 
L 286.248992 89.613416 
L 286.502882 92.71609 
L 286.756772 100.251168 
L 287.010662 83.851281 
L 287.264553 75.429685 
L 287.518443 76.316203 
L 287.772333 97.5918 
L 288.026223 75.872991 
L 288.280114 68.337819 
L 288.534004 93.159396 
L 288.787894 82.078338 
L 289.041784 82.521551 
L 289.295675 86.06753 
L 289.549565 80.748608 
L 289.803455 84.7378 
L 290.057345 94.489033 
L 290.311236 93.602608 
L 290.565126 64.348721 
L 290.819016 99.807956 
L 291.072906 67.008089 
L 291.326797 90.499935 
L 291.580687 78.975665 
L 291.834577 96.705282 
L 292.088467 67.008089 
L 292.342358 93.159396 
L 292.596248 93.159396 
L 292.850138 78.532359 
L 293.104028 101.580899 
L 293.357919 94.489033 
L 293.611809 71.440493 
L 293.865699 80.748608 
L 294.119589 77.645934 
L 294.37348 89.170204 
L 294.62737 78.089146 
L 294.88126 75.429685 
L 295.13515 74.986473 
L 295.389041 92.272878 
L 295.642931 64.791933 
L 295.896821 90.056629 
L 296.150712 74.54326 
L 296.404602 91.386359 
L 296.658492 87.397261 
L 296.912382 73.21353 
L 297.166273 72.327011 
L 297.420163 69.66755 
L 297.674053 81.19182 
L 297.927943 76.316203 
L 298.181834 104.683666 
L 298.435724 76.316203 
L 298.689614 74.986473 
L 298.943504 81.635126 
L 299.197395 102.024205 
L 299.451285 106.899821 
L 299.705175 81.19182 
L 299.959065 115.76463 
L 300.720736 85.624224 
L 300.974626 74.986473 
L 301.228517 78.975665 
L 301.482407 75.429685 
L 301.736297 86.510743 
L 301.990187 81.635126 
L 302.244078 68.337819 
L 302.497968 106.013303 
L 302.751858 68.337819 
L 303.005748 70.554068 
L 303.513529 95.375551 
L 304.021309 70.997281 
L 304.2752 88.283686 
L 304.52909 96.26207 
L 304.78298 116.207936 
L 305.03687 92.272878 
L 305.290761 88.726898 
L 305.544651 80.748608 
L 305.798541 86.510743 
L 306.052431 87.840473 
L 306.306322 76.759416 
L 306.560212 83.408069 
L 306.814102 93.159396 
L 307.067992 95.375551 
L 307.321883 86.953955 
L 307.575773 99.807956 
L 307.829663 100.694474 
L 308.083553 80.748608 
L 308.337444 99.807956 
L 308.591334 67.008089 
L 308.845224 76.316203 
L 309.099114 76.316203 
L 309.353005 87.840473 
L 309.606895 64.791933 
L 309.860785 86.510743 
L 310.114675 78.975665 
L 310.622456 55.483819 
L 310.876346 101.137686 
L 311.130236 101.580899 
L 311.384127 59.473011 
L 311.638017 91.386359 
L 311.891907 80.305395 
L 312.145798 94.489033 
L 312.399688 77.202628 
L 312.653578 101.580899 
L 312.907468 78.532359 
L 313.161359 94.932339 
L 313.415249 69.66755 
L 313.669139 83.408069 
L 313.923029 72.327011 
L 314.17692 90.499935 
L 314.43081 86.953955 
L 314.6847 78.532359 
L 314.93859 91.829665 
L 315.192481 95.375551 
L 315.446371 80.748608 
L 315.700261 95.375551 
L 315.954151 87.397261 
L 316.208042 88.726898 
L 316.461932 87.397261 
L 316.461932 87.397261 
" clip-path="url(#p7ebb5030df)" style="fill: none; stroke: #0000ff; stroke-width: 0.6; stroke-linecap: square"/>
   </g>
   <g id="line2d_26">
    <path d="M 62.825568 188.161691 
L 63.079458 219.182713 
L 63.333349 185.05958 
L 63.587239 194.365867 
L 63.841129 193.331846 
L 64.095019 187.127623 
L 64.34891 230.557091 
L 64.6028 195.399936 
L 64.85669 185.05958 
L 65.11058 225.386936 
L 65.364471 199.536069 
L 65.618361 187.127623 
L 65.872251 208.842357 
L 66.126141 200.570091 
L 66.380032 175.753245 
L 66.633922 196.433957 
L 66.887812 197.467979 
L 67.141702 201.604112 
L 67.395593 154.038558 
L 67.649483 206.774314 
L 67.903373 189.195666 
L 68.157264 127.153622 
L 68.411154 180.9234 
L 68.665044 181.957468 
L 69.172825 192.297778 
L 69.426715 142.66418 
L 69.680605 187.127623 
L 69.934495 195.399936 
L 70.188386 185.05958 
L 70.442276 188.161691 
L 70.696166 185.05958 
L 70.950056 172.651133 
L 71.203947 184.025511 
L 71.457837 189.195666 
L 71.711727 210.910447 
L 71.965617 159.208712 
L 72.219508 144.732223 
L 72.473398 163.344799 
L 72.727288 160.242687 
L 72.981178 159.208712 
L 73.235069 172.651133 
L 73.488959 143.698155 
L 73.996739 188.161691 
L 74.25063 160.242687 
L 74.75841 166.44691 
L 75.0123 187.127623 
L 75.266191 109.575021 
L 75.520081 145.766198 
L 75.773971 142.66418 
L 76.027861 132.323777 
L 76.281752 143.698155 
L 76.535642 177.821288 
L 76.789532 134.39182 
L 77.043422 161.276756 
L 77.297313 140.596043 
L 77.551203 190.229734 
L 77.805093 186.093648 
L 78.058983 173.685202 
L 78.312874 185.05958 
L 78.566764 139.562068 
L 78.820654 151.970421 
L 79.074544 191.263803 
L 79.328435 158.174644 
L 79.582325 197.467979 
L 79.836215 156.106601 
L 80.090105 159.208712 
L 80.343996 118.881356 
L 80.597886 193.331846 
L 80.851776 132.323777 
L 81.105666 134.39182 
L 81.359557 159.208712 
L 81.613447 134.39182 
L 81.867337 200.570091 
L 82.121227 185.05958 
L 82.375118 185.05958 
L 82.629008 165.412936 
L 82.882898 132.323777 
L 83.136788 202.638181 
L 83.390679 135.425888 
L 83.644569 148.868309 
L 83.898459 174.719177 
L 84.15235 186.093648 
L 84.66013 135.425888 
L 84.91402 193.331846 
L 85.167911 141.630112 
L 85.421801 170.58309 
L 85.675691 140.596043 
L 85.929581 188.161691 
L 86.183472 176.787313 
L 86.437362 184.025511 
L 86.691252 137.493932 
L 86.945142 133.357845 
L 87.199033 179.889425 
L 87.452923 151.970421 
L 87.706813 200.570091 
L 87.960703 134.39182 
L 88.468484 188.161691 
L 88.722374 141.630112 
L 88.976264 187.127623 
L 89.230155 141.630112 
L 89.484045 153.004489 
L 89.737935 146.800266 
L 89.991825 106.47291 
L 90.245716 149.902378 
L 90.499606 135.425888 
L 90.753496 145.766198 
L 91.007386 112.677133 
L 91.261277 182.991537 
L 91.515167 68.213596 
L 91.769057 190.229734 
L 92.022947 93.030489 
L 92.276838 201.604112 
L 92.530728 138.528 
L 93.038508 187.127623 
L 93.292399 109.575021 
L 93.546289 85.792197 
L 93.800179 144.732223 
L 94.054069 99.234712 
L 94.30796 187.127623 
L 94.56185 150.936446 
L 94.81574 135.425888 
L 95.06963 191.263803 
L 95.323521 185.05958 
L 95.577411 186.093648 
L 95.831301 136.459957 
L 96.085191 136.459957 
L 96.339082 137.493932 
L 96.592972 136.459957 
L 96.846862 142.66418 
L 97.100752 157.140669 
L 97.354643 130.255734 
L 97.608533 193.331846 
L 97.862423 198.502001 
L 98.370204 82.690086 
L 98.624094 147.834335 
L 98.877984 160.242687 
L 99.131874 199.536069 
L 99.385765 112.677133 
L 99.639655 133.357845 
L 99.893545 126.119554 
L 100.147436 158.174644 
L 100.401326 137.493932 
L 100.655216 139.562068 
L 100.909106 115.779244 
L 101.162997 187.127623 
L 101.416887 153.004489 
L 101.670777 199.536069 
L 102.178558 115.779244 
L 102.432448 187.127623 
L 102.686338 167.480979 
L 102.940228 107.506978 
L 103.194119 185.05958 
L 103.448009 170.58309 
L 103.701899 143.698155 
L 103.955789 187.127623 
L 104.20968 151.970421 
L 104.46357 87.860334 
L 104.71746 133.357845 
L 104.97135 131.289708 
L 105.225241 186.093648 
L 105.479131 186.093648 
L 105.733021 176.787313 
L 105.986911 200.570091 
L 106.494692 82.690086 
L 106.748582 170.58309 
L 107.002472 180.9234 
L 107.256363 141.630112 
L 107.764143 182.991537 
L 108.018033 134.39182 
L 108.271924 149.902378 
L 108.779704 124.051511 
L 109.033594 188.161691 
L 109.287485 141.630112 
L 109.541375 172.651133 
L 109.795265 181.957468 
L 110.049155 154.038558 
L 110.303046 187.127623 
L 110.556936 168.515047 
L 110.810826 187.127623 
L 111.064716 176.787313 
L 111.318607 137.493932 
L 111.572497 187.127623 
L 111.826387 148.868309 
L 112.080277 173.685202 
L 112.334168 187.127623 
L 113.095838 187.127623 
L 113.349729 126.119554 
L 113.603619 146.800266 
L 113.857509 150.936446 
L 114.111399 187.127623 
L 114.87307 187.127623 
L 115.12696 186.093648 
L 115.380851 108.540953 
L 115.634741 186.093648 
L 115.888631 131.289708 
L 116.142521 117.847288 
L 116.396412 199.536069 
L 116.904192 116.813219 
L 117.158083 74.417819 
L 117.411973 195.399936 
L 117.665863 110.60909 
L 117.919753 145.766198 
L 118.173644 115.779244 
L 118.427534 116.813219 
L 118.681424 128.187691 
L 118.935314 185.05958 
L 119.189205 133.357845 
L 119.443095 186.093648 
L 119.696985 184.025511 
L 119.950875 104.404867 
L 120.204766 173.685202 
L 120.458656 132.323777 
L 120.712546 184.025511 
L 120.966436 124.051511 
L 121.220327 149.902378 
L 121.728107 91.99642 
L 121.981997 102.33673 
L 122.235888 83.724154 
L 122.489778 182.991537 
L 122.743668 139.562068 
L 122.997558 187.127623 
L 123.251449 53.737107 
L 123.505339 148.868309 
L 123.759229 131.289708 
L 124.013119 75.451888 
L 124.26701 69.247665 
L 124.5209 130.255734 
L 124.77479 136.459957 
L 125.02868 113.711201 
L 125.282571 113.711201 
L 125.790351 50.634995 
L 126.044241 101.302755 
L 126.298132 105.438841 
L 126.552022 123.017442 
L 126.805912 117.847288 
L 127.059802 173.685202 
L 127.313693 187.127623 
L 127.567583 145.766198 
L 127.821473 187.127623 
L 128.075363 167.480979 
L 128.329254 187.127623 
L 128.837034 187.127623 
L 129.090924 88.894309 
L 129.344815 124.051511 
L 129.598705 187.127623 
L 129.852595 80.622043 
L 130.106485 157.140669 
L 130.360376 187.127623 
L 130.614266 187.127623 
L 130.868156 94.064463 
L 131.122046 116.813219 
L 131.375937 186.093648 
L 131.629827 157.140669 
L 131.883717 93.030489 
L 132.137607 118.881356 
L 132.391498 187.127623 
L 132.645388 187.127623 
L 133.153169 120.949399 
L 133.407059 197.467979 
L 133.660949 95.098532 
L 133.914839 174.719177 
L 134.16873 68.213596 
L 134.42262 83.724154 
L 134.67651 148.868309 
L 134.9304 113.711201 
L 135.184291 104.404867 
L 135.438181 187.127623 
L 135.945961 127.153622 
L 136.199852 172.651133 
L 136.453742 148.868309 
L 136.707632 110.60909 
L 136.961522 182.991537 
L 137.215413 161.276756 
L 137.469303 187.127623 
L 137.723193 119.915331 
L 137.977083 187.127623 
L 138.230974 182.991537 
L 138.484864 167.480979 
L 138.992644 187.127623 
L 139.246535 187.127623 
L 139.500425 88.894309 
L 139.754315 167.480979 
L 140.008205 141.630112 
L 140.262096 199.536069 
L 140.515986 89.928377 
L 140.769876 104.404867 
L 141.023766 187.127623 
L 141.531547 75.451888 
L 141.785437 190.229734 
L 142.039327 187.127623 
L 142.293218 125.085579 
L 142.547108 139.562068 
L 142.800998 69.247665 
L 143.816559 200.570091 
L 144.070449 166.44691 
L 144.32434 69.247665 
L 144.57823 187.127623 
L 144.83212 174.719177 
L 145.08601 187.127623 
L 145.339901 162.310824 
L 145.593791 95.098532 
L 145.847681 189.195666 
L 146.101571 195.399936 
L 146.355462 91.99642 
L 146.609352 119.915331 
L 146.863242 77.519931 
L 147.117132 94.064463 
L 147.371023 187.127623 
L 147.624913 87.860334 
L 147.878803 108.540953 
L 148.132693 107.506978 
L 148.386584 75.451888 
L 148.640474 73.383845 
L 148.894364 180.9234 
L 149.148255 110.60909 
L 149.402145 73.383845 
L 149.909925 107.506978 
L 150.163816 150.936446 
L 150.417706 94.064463 
L 150.671596 73.383845 
L 150.925486 84.758222 
L 151.179377 77.519931 
L 151.433267 90.962352 
L 151.687157 126.119554 
L 151.941047 105.438841 
L 152.194938 95.098532 
L 152.448828 79.587974 
L 152.702718 90.962352 
L 152.956608 76.485863 
L 153.210499 90.962352 
L 153.464389 91.99642 
L 153.718279 68.213596 
L 153.972169 124.051511 
L 154.22606 96.1326 
L 154.47995 99.234712 
L 154.98773 68.213596 
L 155.241621 86.826266 
L 155.495511 79.587974 
L 155.749401 128.187691 
L 156.003291 131.289708 
L 156.257182 128.187691 
L 156.511072 118.881356 
L 156.764962 97.166575 
L 157.018852 188.161691 
L 157.272743 100.268687 
L 157.526633 123.017442 
L 157.780523 83.724154 
L 158.288304 148.868309 
L 158.542194 104.404867 
L 158.796084 101.302755 
L 159.049974 91.99642 
L 159.303865 101.302755 
L 159.557755 132.323777 
L 160.065535 79.587974 
L 160.319426 119.915331 
L 160.573316 187.127623 
L 160.827206 127.153622 
L 161.081096 116.813219 
L 161.588877 78.553999 
L 161.842767 148.868309 
L 162.096657 187.127623 
L 162.350548 124.051511 
L 162.604438 105.438841 
L 162.858328 116.813219 
L 163.112218 90.962352 
L 163.366109 100.268687 
L 163.619999 97.166575 
L 163.873889 80.622043 
L 164.127779 187.127623 
L 164.38167 188.161691 
L 164.63556 102.33673 
L 164.88945 103.370798 
L 165.14334 110.60909 
L 165.397231 143.698155 
L 165.651121 75.451888 
L 165.905011 99.234712 
L 166.158902 75.451888 
L 166.412792 96.1326 
L 166.666682 187.127623 
L 167.174463 62.009373 
L 167.428353 75.451888 
L 167.682243 98.200643 
L 168.190024 187.127623 
L 168.443914 184.025511 
L 168.697804 85.792197 
L 168.951694 143.698155 
L 169.205585 75.451888 
L 169.713365 140.596043 
L 169.967255 114.745176 
L 170.221146 187.127623 
L 170.475036 135.425888 
L 170.728926 158.174644 
L 170.982816 101.302755 
L 171.236707 103.370798 
L 171.490597 124.051511 
L 171.744487 123.017442 
L 171.998377 93.030489 
L 172.760048 166.44691 
L 173.013938 176.787313 
L 173.267829 72.349776 
L 173.521719 159.208712 
L 174.029499 71.315708 
L 174.28339 113.711201 
L 174.53728 119.915331 
L 174.79117 94.064463 
L 175.298951 132.323777 
L 175.552841 135.425888 
L 175.806731 126.119554 
L 176.060621 100.268687 
L 176.314512 106.47291 
L 176.568402 70.281733 
L 176.822292 86.826266 
L 177.076182 85.792197 
L 177.330073 105.438841 
L 177.583963 83.724154 
L 177.837853 112.677133 
L 178.345634 81.656111 
L 178.599524 81.656111 
L 178.853414 77.519931 
L 179.107304 187.127623 
L 179.361195 103.370798 
L 179.615085 64.07751 
L 179.868975 93.030489 
L 180.122865 148.868309 
L 180.376756 144.732223 
L 180.630646 128.187691 
L 180.884536 119.915331 
L 181.138426 94.064463 
L 181.392317 187.127623 
L 181.646207 79.587974 
L 181.900097 65.111485 
L 182.153988 79.587974 
L 182.407878 78.553999 
L 182.661768 65.111485 
L 182.915658 85.792197 
L 183.169549 89.928377 
L 183.423439 107.506978 
L 183.677329 90.962352 
L 183.931219 146.800266 
L 184.18511 104.404867 
L 184.439 86.826266 
L 184.69289 87.860334 
L 184.94678 99.234712 
L 185.200671 87.860334 
L 185.454561 124.051511 
L 185.708451 98.200643 
L 185.962341 116.813219 
L 186.216232 172.651133 
L 186.470122 179.889425 
L 186.977902 81.656111 
L 187.231793 187.127623 
L 187.485683 187.127623 
L 187.993463 68.213596 
L 188.247354 66.145553 
L 188.501244 187.127623 
L 188.755134 96.1326 
L 189.009024 109.575021 
L 189.262915 74.417819 
L 189.516805 77.519931 
L 189.770695 101.302755 
L 190.024585 64.07751 
L 190.278476 168.515047 
L 190.532366 187.127623 
L 190.786256 187.127623 
L 191.040146 70.281733 
L 191.294037 103.370798 
L 191.801817 125.085579 
L 192.055707 63.043442 
L 192.309598 86.826266 
L 192.563488 67.179622 
L 193.071268 131.289708 
L 193.325159 104.404867 
L 193.579049 63.043442 
L 194.086829 116.813219 
L 194.34072 120.949399 
L 194.59461 175.753245 
L 194.8485 76.485863 
L 195.10239 71.315708 
L 195.356281 103.370798 
L 195.610171 62.009373 
L 195.864061 88.894309 
L 196.117951 60.975398 
L 196.371842 56.839218 
L 196.625732 94.064463 
L 196.879622 54.771175 
L 197.133512 142.66418 
L 197.387403 69.247665 
L 197.641293 126.119554 
L 197.895183 67.179622 
L 198.402964 120.949399 
L 198.656854 115.779244 
L 198.910744 117.847288 
L 199.164635 112.677133 
L 199.418525 72.349776 
L 199.672415 132.323777 
L 199.926305 144.732223 
L 200.180196 86.826266 
L 200.434086 81.656111 
L 200.687976 68.213596 
L 200.941866 83.724154 
L 201.195757 72.349776 
L 201.449647 83.724154 
L 201.703537 67.179622 
L 202.211318 76.485863 
L 202.465208 125.085579 
L 202.719098 145.766198 
L 203.226879 79.587974 
L 203.988549 65.111485 
L 204.24244 143.698155 
L 204.49633 77.519931 
L 205.258001 162.310824 
L 205.511891 94.064463 
L 205.765781 143.698155 
L 206.019671 131.289708 
L 206.273562 85.792197 
L 206.527452 118.881356 
L 206.781342 93.030489 
L 207.035232 88.894309 
L 207.289123 128.187691 
L 207.543013 109.575021 
L 207.796903 79.587974 
L 208.050793 67.179622 
L 208.558574 147.834335 
L 208.812464 110.60909 
L 209.066354 156.106601 
L 209.320245 69.247665 
L 209.574135 55.805244 
L 209.828025 66.145553 
L 210.081915 58.907355 
L 210.335806 80.622043 
L 210.589696 62.009373 
L 210.843586 133.357845 
L 211.097476 49.601021 
L 211.351367 138.528 
L 211.605257 98.200643 
L 211.859147 105.438841 
L 212.113037 141.630112 
L 212.366928 120.949399 
L 212.620818 110.60909 
L 213.128598 67.179622 
L 213.382489 88.894309 
L 213.636379 79.587974 
L 213.890269 128.187691 
L 214.14416 81.656111 
L 214.39805 69.247665 
L 214.65194 95.098532 
L 214.90583 86.826266 
L 215.159721 141.630112 
L 215.413611 126.119554 
L 215.667501 87.860334 
L 215.921391 134.39182 
L 216.175282 144.732223 
L 216.683062 63.043442 
L 216.936952 155.072533 
L 217.190843 187.127623 
L 217.444733 163.344799 
L 217.698623 194.365867 
L 217.952513 97.166575 
L 218.206404 116.813219 
L 218.460294 72.349776 
L 218.714184 101.302755 
L 218.968074 187.127623 
L 219.221965 96.1326 
L 219.475855 82.690086 
L 219.729745 113.711201 
L 219.983635 115.779244 
L 220.491416 102.33673 
L 220.745306 76.485863 
L 221.253087 187.127623 
L 221.506977 124.051511 
L 221.760867 94.064463 
L 222.014757 87.860334 
L 222.268648 119.915331 
L 222.522538 130.255734 
L 222.776428 135.425888 
L 223.030318 109.575021 
L 223.284209 108.540953 
L 223.538099 108.540953 
L 223.791989 187.127623 
L 224.045879 121.983467 
L 224.29977 105.438841 
L 224.55366 108.540953 
L 224.80755 115.779244 
L 225.06144 105.438841 
L 225.315331 109.575021 
L 225.569221 83.724154 
L 226.077001 116.813219 
L 226.330892 103.370798 
L 226.584782 141.630112 
L 226.838672 136.459957 
L 227.092562 71.315708 
L 227.346453 98.200643 
L 227.600343 151.970421 
L 227.854233 78.553999 
L 228.108123 121.983467 
L 228.362014 132.323777 
L 228.615904 70.281733 
L 229.377575 184.025511 
L 229.631465 80.622043 
L 230.139245 182.991537 
L 230.393136 180.9234 
L 230.647026 136.459957 
L 230.900916 187.127623 
L 231.154807 76.485863 
L 231.408697 157.140669 
L 231.662587 82.690086 
L 232.170368 186.093648 
L 232.424258 165.412936 
L 232.678148 97.166575 
L 232.932038 188.161691 
L 233.185929 126.119554 
L 233.439819 101.302755 
L 233.693709 120.949399 
L 233.947599 119.915331 
L 234.20149 102.33673 
L 234.45538 54.771175 
L 234.70927 72.349776 
L 234.96316 108.540953 
L 235.217051 57.873287 
L 235.470941 107.506978 
L 235.724831 93.030489 
L 235.978721 68.213596 
L 236.232612 104.404867 
L 236.486502 112.677133 
L 236.740392 89.928377 
L 236.994282 56.839218 
L 237.755953 189.195666 
L 238.009843 131.289708 
L 238.263734 129.221665 
L 238.517624 84.758222 
L 238.771514 69.247665 
L 239.025404 119.915331 
L 239.279295 108.540953 
L 239.533185 77.519931 
L 239.787075 120.949399 
L 240.040965 79.587974 
L 240.294856 64.07751 
L 240.548746 102.33673 
L 240.802636 110.60909 
L 241.056526 111.643064 
L 241.310417 82.690086 
L 241.564307 76.485863 
L 241.818197 151.970421 
L 242.072087 147.834335 
L 242.325978 94.064463 
L 242.579868 189.195666 
L 242.833758 147.834335 
L 243.087648 129.221665 
L 243.341539 81.656111 
L 243.595429 117.847288 
L 243.849319 82.690086 
L 244.103209 86.826266 
L 244.3571 101.302755 
L 244.61099 64.07751 
L 244.86488 128.187691 
L 245.11877 67.179622 
L 245.372661 172.651133 
L 245.626551 106.47291 
L 245.880441 114.745176 
L 246.134331 82.690086 
L 246.388222 82.690086 
L 246.642112 98.200643 
L 246.896002 187.127623 
L 247.149893 120.949399 
L 247.403783 115.779244 
L 247.657673 180.9234 
L 247.911563 111.643064 
L 248.165454 111.643064 
L 248.419344 129.221665 
L 248.673234 133.357845 
L 248.927124 109.575021 
L 249.181015 101.302755 
L 249.434905 88.894309 
L 249.688795 116.813219 
L 249.942685 124.051511 
L 250.196576 108.540953 
L 250.450466 58.907355 
L 250.704356 124.051511 
L 250.958246 106.47291 
L 251.212137 99.234712 
L 251.466027 186.093648 
L 251.719917 115.779244 
L 251.973807 113.711201 
L 252.481588 57.873287 
L 252.735478 119.915331 
L 252.989368 116.813219 
L 253.243259 75.451888 
L 253.497149 107.506978 
L 253.751039 186.093648 
L 254.004929 146.800266 
L 254.25882 158.174644 
L 254.7666 60.975398 
L 255.02049 79.587974 
L 255.274381 83.724154 
L 255.528271 123.017442 
L 255.782161 114.745176 
L 256.036051 54.771175 
L 256.289942 50.634995 
L 256.543832 170.58309 
L 256.797722 102.33673 
L 257.051612 126.119554 
L 257.305503 85.792197 
L 257.559393 95.098532 
L 257.813283 117.847288 
L 258.067173 60.975398 
L 258.574954 144.732223 
L 258.828844 87.860334 
L 259.082734 90.962352 
L 259.336625 115.779244 
L 259.590515 106.47291 
L 259.844405 127.153622 
L 260.098295 58.907355 
L 260.606076 161.276756 
L 261.113856 102.33673 
L 261.367747 184.025511 
L 261.875527 64.07751 
L 262.129417 171.617159 
L 262.383308 103.370798 
L 262.637198 66.145553 
L 263.144979 105.438841 
L 263.398869 97.166575 
L 263.652759 73.383845 
L 263.906649 137.493932 
L 264.16054 100.268687 
L 264.41443 81.656111 
L 264.66832 90.962352 
L 264.92221 63.043442 
L 265.176101 108.540953 
L 265.429991 72.349776 
L 265.683881 82.690086 
L 265.937771 74.417819 
L 266.191662 187.127623 
L 266.445552 103.370798 
L 266.699442 66.145553 
L 266.953332 144.732223 
L 267.207223 132.323777 
L 267.715003 85.792197 
L 267.968893 131.289708 
L 268.222784 91.99642 
L 268.476674 83.724154 
L 268.730564 115.779244 
L 268.984454 121.983467 
L 269.238345 114.745176 
L 269.492235 73.383845 
L 269.746125 107.506978 
L 270.000015 46.498909 
L 270.507796 105.438841 
L 270.761686 62.009373 
L 271.015576 189.195666 
L 271.269467 94.064463 
L 271.523357 90.962352 
L 271.777247 106.47291 
L 272.031137 67.179622 
L 272.285028 102.33673 
L 272.538918 187.127623 
L 272.792808 75.451888 
L 273.046698 134.39182 
L 273.300589 119.915331 
L 273.554479 141.630112 
L 273.808369 136.459957 
L 274.062259 74.417819 
L 274.31615 117.847288 
L 274.57004 124.051511 
L 274.82393 160.242687 
L 275.07782 120.949399 
L 275.331711 138.528 
L 275.585601 167.480979 
L 275.839491 137.493932 
L 276.093381 128.187691 
L 276.347272 188.161691 
L 276.601162 129.221665 
L 276.855052 132.323777 
L 277.108942 150.936446 
L 277.362833 101.302755 
L 277.616723 76.485863 
L 277.870613 68.213596 
L 278.124503 187.127623 
L 278.378394 154.038558 
L 278.632284 91.99642 
L 278.886174 69.247665 
L 279.140064 106.47291 
L 279.393955 84.758222 
L 279.647845 184.025511 
L 279.901735 70.281733 
L 280.155626 136.459957 
L 280.409516 81.656111 
L 280.663406 109.575021 
L 280.917296 82.690086 
L 281.171187 113.711201 
L 281.425077 98.200643 
L 281.678967 103.370798 
L 281.932857 187.127623 
L 282.186748 104.404867 
L 282.440638 67.179622 
L 282.694528 151.970421 
L 282.948418 187.127623 
L 283.202309 64.07751 
L 283.456199 150.936446 
L 283.710089 99.234712 
L 283.963979 94.064463 
L 284.21787 133.357845 
L 284.47176 151.970421 
L 284.72565 67.179622 
L 284.97954 141.630112 
L 285.487321 93.030489 
L 285.741211 124.051511 
L 285.995101 71.315708 
L 286.248992 107.506978 
L 286.502882 187.127623 
L 286.756772 117.847288 
L 287.010662 111.643064 
L 287.264553 96.1326 
L 287.518443 185.05958 
L 287.772333 98.200643 
L 288.026223 111.643064 
L 288.280114 138.528 
L 288.534004 79.587974 
L 288.787894 108.540953 
L 289.041784 82.690086 
L 289.295675 89.928377 
L 289.549565 86.826266 
L 289.803455 96.1326 
L 290.057345 158.174644 
L 290.819016 106.47291 
L 291.072906 187.127623 
L 291.326797 82.690086 
L 291.580687 90.962352 
L 291.834577 62.009373 
L 292.088467 79.587974 
L 292.342358 188.161691 
L 292.596248 113.711201 
L 292.850138 93.030489 
L 293.104028 108.540953 
L 293.357919 69.247665 
L 293.611809 55.805244 
L 293.865699 70.281733 
L 294.119589 72.349776 
L 294.37348 85.792197 
L 294.62737 124.051511 
L 295.13515 107.506978 
L 295.389041 109.575021 
L 295.642931 88.894309 
L 295.896821 186.093648 
L 296.150712 139.562068 
L 296.404602 67.179622 
L 296.658492 125.085579 
L 296.912382 109.575021 
L 297.166273 143.698155 
L 297.420163 99.234712 
L 297.674053 161.276756 
L 297.927943 66.145553 
L 298.181834 100.268687 
L 298.435724 85.792197 
L 298.689614 115.779244 
L 298.943504 116.813219 
L 299.197395 111.643064 
L 299.451285 83.724154 
L 299.959065 121.983467 
L 300.212956 65.111485 
L 300.720736 115.779244 
L 300.974626 73.383845 
L 301.228517 86.826266 
L 301.736297 186.093648 
L 301.990187 106.47291 
L 302.244078 179.889425 
L 302.497968 134.39182 
L 302.751858 64.07751 
L 303.005748 113.711201 
L 303.259639 78.553999 
L 303.513529 187.127623 
L 303.767419 123.017442 
L 304.021309 185.05958 
L 304.2752 116.813219 
L 304.52909 110.60909 
L 304.78298 96.1326 
L 305.03687 112.677133 
L 305.290761 118.881356 
L 305.544651 107.506978 
L 305.798541 68.213596 
L 306.052431 89.928377 
L 306.306322 186.093648 
L 306.560212 193.331846 
L 306.814102 84.758222 
L 307.067992 132.323777 
L 307.321883 112.677133 
L 307.575773 50.634995 
L 307.829663 116.813219 
L 308.083553 87.860334 
L 308.591334 170.58309 
L 309.099114 80.622043 
L 309.353005 172.651133 
L 309.860785 99.234712 
L 310.114675 188.161691 
L 310.368566 185.05958 
L 310.622456 89.928377 
L 310.876346 110.60909 
L 311.130236 80.622043 
L 311.638017 105.438841 
L 311.891907 55.805244 
L 312.145798 89.928377 
L 312.399688 96.1326 
L 312.653578 82.690086 
L 312.907468 83.724154 
L 313.161359 105.438841 
L 313.415249 88.894309 
L 313.669139 119.915331 
L 313.923029 109.575021 
L 314.17692 80.622043 
L 314.43081 82.690086 
L 314.6847 111.643064 
L 314.93859 110.60909 
L 315.192481 74.417819 
L 315.446371 71.315708 
L 315.954151 143.698155 
L 316.208042 137.493932 
L 316.461932 66.145553 
L 316.461932 66.145553 
" clip-path="url(#p7ebb5030df)" style="fill: none; stroke: #ff0000; stroke-width: 0.6; stroke-linecap: square"/>
   </g>
   <g id="patch_3">
    <path d="M 50.14375 239.76 
L 50.14375 37.296 
" style="fill: none; stroke: #000000; stroke-width: 0.8; stroke-linejoin: miter; stroke-linecap: square"/>
   </g>
   <g id="patch_4">
    <path d="M 329.14375 239.76 
L 329.14375 37.296 
" style="fill: none; stroke: #000000; stroke-width: 0.8; stroke-linejoin: miter; stroke-linecap: square"/>
   </g>
   <g id="patch_5">
    <path d="M 50.14375 239.76 
L 329.14375 239.76 
" style="fill: none; stroke: #000000; stroke-width: 0.8; stroke-linejoin: miter; stroke-linecap: square"/>
   </g>
   <g id="patch_6">
    <path d="M 50.14375 37.296 
L 329.14375 37.296 
" style="fill: none; stroke: #000000; stroke-width: 0.8; stroke-linejoin: miter; stroke-linecap: square"/>
   </g>
   <g id="text_15">
    <!-- Baseline Model -->
    <g transform="translate(155.622344 31.296) scale(0.09 -0.09)">
     <defs>
      <path id="DejaVuSans-42" d="M 1259 2228 
L 1259 519 
L 2272 519 
Q 2781 519 3026 730 
Q 3272 941 3272 1375 
Q 3272 1813 3026 2020 
Q 2781 2228 2272 2228 
L 1259 2228 
z
M 1259 4147 
L 1259 2741 
L 2194 2741 
Q 2656 2741 2882 2914 
Q 3109 3088 3109 3444 
Q 3109 3797 2882 3972 
Q 2656 4147 2194 4147 
L 1259 4147 
z
M 628 4666 
L 2241 4666 
Q 2963 4666 3353 4366 
Q 3744 4066 3744 3513 
Q 3744 3084 3544 2831 
Q 3344 2578 2956 2516 
Q 3422 2416 3680 2098 
Q 3938 1781 3938 1306 
Q 3938 681 3513 340 
Q 3088 0 2303 0 
L 628 0 
L 628 4666 
z
" transform="scale(0.015625)"/>
      <path id="DejaVuSans-65" d="M 3597 1894 
L 3597 1613 
L 953 1613 
Q 991 1019 1311 708 
Q 1631 397 2203 397 
Q 2534 397 2845 478 
Q 3156 559 3463 722 
L 3463 178 
Q 3153 47 2828 -22 
Q 2503 -91 2169 -91 
Q 1331 -91 842 396 
Q 353 884 353 1716 
Q 353 2575 817 3079 
Q 1281 3584 2069 3584 
Q 2775 3584 3186 3129 
Q 3597 2675 3597 1894 
z
M 3022 2063 
Q 3016 2534 2758 2815 
Q 2500 3097 2075 3097 
Q 1594 3097 1305 2825 
Q 1016 2553 972 2059 
L 3022 2063 
z
" transform="scale(0.015625)"/>
      <path id="DejaVuSans-6c" d="M 603 4863 
L 1178 4863 
L 1178 0 
L 603 0 
L 603 4863 
z
" transform="scale(0.015625)"/>
      <path id="DejaVuSans-69" d="M 603 3500 
L 1178 3500 
L 1178 0 
L 603 0 
L 603 3500 
z
M 603 4863 
L 1178 4863 
L 1178 4134 
L 603 4134 
L 603 4863 
z
" transform="scale(0.015625)"/>
      <path id="DejaVuSans-6e" d="M 3513 2113 
L 3513 0 
L 2938 0 
L 2938 2094 
Q 2938 2591 2744 2837 
Q 2550 3084 2163 3084 
Q 1697 3084 1428 2787 
Q 1159 2491 1159 1978 
L 1159 0 
L 581 0 
L 581 3500 
L 1159 3500 
L 1159 2956 
Q 1366 3272 1645 3428 
Q 1925 3584 2291 3584 
Q 2894 3584 3203 3211 
Q 3513 2838 3513 2113 
z
" transform="scale(0.015625)"/>
      <path id="DejaVuSans-20" transform="scale(0.015625)"/>
      <path id="DejaVuSans-4d" d="M 628 4666 
L 1569 4666 
L 2759 1491 
L 3956 4666 
L 4897 4666 
L 4897 0 
L 4281 0 
L 4281 4097 
L 3078 897 
L 2444 897 
L 1241 4097 
L 1241 0 
L 628 0 
L 628 4666 
z
" transform="scale(0.015625)"/>
      <path id="DejaVuSans-64" d="M 2906 2969 
L 2906 4863 
L 3481 4863 
L 3481 0 
L 2906 0 
L 2906 525 
Q 2725 213 2448 61 
Q 2172 -91 1784 -91 
Q 1150 -91 751 415 
Q 353 922 353 1747 
Q 353 2572 751 3078 
Q 1150 3584 1784 3584 
Q 2172 3584 2448 3432 
Q 2725 3281 2906 2969 
z
M 947 1747 
Q 947 1113 1208 752 
Q 1469 391 1925 391 
Q 2381 391 2643 752 
Q 2906 1113 2906 1747 
Q 2906 2381 2643 2742 
Q 2381 3103 1925 3103 
Q 1469 3103 1208 2742 
Q 947 2381 947 1747 
z
" transform="scale(0.015625)"/>
     </defs>
     <use xlink:href="#DejaVuSans-42"/>
     <use xlink:href="#DejaVuSans-61" x="68.603516"/>
     <use xlink:href="#DejaVuSans-73" x="129.882812"/>
     <use xlink:href="#DejaVuSans-65" x="181.982422"/>
     <use xlink:href="#DejaVuSans-6c" x="243.505859"/>
     <use xlink:href="#DejaVuSans-69" x="271.289062"/>
     <use xlink:href="#DejaVuSans-6e" x="299.072266"/>
     <use xlink:href="#DejaVuSans-65" x="362.451172"/>
     <use xlink:href="#DejaVuSans-20" x="423.974609"/>
     <use xlink:href="#DejaVuSans-4d" x="455.761719"/>
     <use xlink:href="#DejaVuSans-6f" x="542.041016"/>
     <use xlink:href="#DejaVuSans-64" x="603.222656"/>
     <use xlink:href="#DejaVuSans-65" x="666.699219"/>
     <use xlink:href="#DejaVuSans-6c" x="728.222656"/>
    </g>
   </g>
   <g id="legend_1">
    <g id="patch_7">
     <path d="M 191.928125 234.76 
L 322.14375 234.76 
Q 324.14375 234.76 324.14375 232.76 
L 324.14375 204.40375 
Q 324.14375 202.40375 322.14375 202.40375 
L 191.928125 202.40375 
Q 189.928125 202.40375 189.928125 204.40375 
L 189.928125 232.76 
Q 189.928125 234.76 191.928125 234.76 
z
" style="fill: #ffffff; opacity: 0.8; stroke: #cccccc; stroke-linejoin: miter"/>
    </g>
    <g id="line2d_27">
     <path d="M 193.928125 210.502187 
L 203.928125 210.502187 
L 213.928125 210.502187 
" style="fill: none; stroke: #0000ff; stroke-width: 0.6; stroke-linecap: square"/>
    </g>
    <g id="text_16">
     <!-- Training Accuracy -->
     <g transform="translate(221.928125 214.002187) scale(0.1 -0.1)">
      <defs>
       <path id="DejaVuSans-54" d="M -19 4666 
L 3928 4666 
L 3928 4134 
L 2272 4134 
L 2272 0 
L 1638 0 
L 1638 4134 
L -19 4134 
L -19 4666 
z
" transform="scale(0.015625)"/>
       <path id="DejaVuSans-67" d="M 2906 1791 
Q 2906 2416 2648 2759 
Q 2391 3103 1925 3103 
Q 1463 3103 1205 2759 
Q 947 2416 947 1791 
Q 947 1169 1205 825 
Q 1463 481 1925 481 
Q 2391 481 2648 825 
Q 2906 1169 2906 1791 
z
M 3481 434 
Q 3481 -459 3084 -895 
Q 2688 -1331 1869 -1331 
Q 1566 -1331 1297 -1286 
Q 1028 -1241 775 -1147 
L 775 -588 
Q 1028 -725 1275 -790 
Q 1522 -856 1778 -856 
Q 2344 -856 2625 -561 
Q 2906 -266 2906 331 
L 2906 616 
Q 2728 306 2450 153 
Q 2172 0 1784 0 
Q 1141 0 747 490 
Q 353 981 353 1791 
Q 353 2603 747 3093 
Q 1141 3584 1784 3584 
Q 2172 3584 2450 3431 
Q 2728 3278 2906 2969 
L 2906 3500 
L 3481 3500 
L 3481 434 
z
" transform="scale(0.015625)"/>
      </defs>
      <use xlink:href="#DejaVuSans-54"/>
      <use xlink:href="#DejaVuSans-72" x="46.333984"/>
      <use xlink:href="#DejaVuSans-61" x="87.447266"/>
      <use xlink:href="#DejaVuSans-69" x="148.726562"/>
      <use xlink:href="#DejaVuSans-6e" x="176.509766"/>
      <use xlink:href="#DejaVuSans-69" x="239.888672"/>
      <use xlink:href="#DejaVuSans-6e" x="267.671875"/>
      <use xlink:href="#DejaVuSans-67" x="331.050781"/>
      <use xlink:href="#DejaVuSans-20" x="394.527344"/>
      <use xlink:href="#DejaVuSans-41" x="426.314453"/>
      <use xlink:href="#DejaVuSans-63" x="492.972656"/>
      <use xlink:href="#DejaVuSans-63" x="547.953125"/>
      <use xlink:href="#DejaVuSans-75" x="602.933594"/>
      <use xlink:href="#DejaVuSans-72" x="666.3125"/>
      <use xlink:href="#DejaVuSans-61" x="707.425781"/>
      <use xlink:href="#DejaVuSans-63" x="768.705078"/>
      <use xlink:href="#DejaVuSans-79" x="823.685547"/>
     </g>
    </g>
    <g id="line2d_28">
     <path d="M 193.928125 225.180312 
L 203.928125 225.180312 
L 213.928125 225.180312 
" style="fill: none; stroke: #ff0000; stroke-width: 0.6; stroke-linecap: square"/>
    </g>
    <g id="text_17">
     <!-- Validation Accuracy -->
     <g transform="translate(221.928125 228.680312) scale(0.1 -0.1)">
      <defs>
       <path id="DejaVuSans-56" d="M 1831 0 
L 50 4666 
L 709 4666 
L 2188 738 
L 3669 4666 
L 4325 4666 
L 2547 0 
L 1831 0 
z
" transform="scale(0.015625)"/>
       <path id="DejaVuSans-74" d="M 1172 4494 
L 1172 3500 
L 2356 3500 
L 2356 3053 
L 1172 3053 
L 1172 1153 
Q 1172 725 1289 603 
Q 1406 481 1766 481 
L 2356 481 
L 2356 0 
L 1766 0 
Q 1100 0 847 248 
Q 594 497 594 1153 
L 594 3053 
L 172 3053 
L 172 3500 
L 594 3500 
L 594 4494 
L 1172 4494 
z
" transform="scale(0.015625)"/>
      </defs>
      <use xlink:href="#DejaVuSans-56"/>
      <use xlink:href="#DejaVuSans-61" x="60.658203"/>
      <use xlink:href="#DejaVuSans-6c" x="121.9375"/>
      <use xlink:href="#DejaVuSans-69" x="149.720703"/>
      <use xlink:href="#DejaVuSans-64" x="177.503906"/>
      <use xlink:href="#DejaVuSans-61" x="240.980469"/>
      <use xlink:href="#DejaVuSans-74" x="302.259766"/>
      <use xlink:href="#DejaVuSans-69" x="341.46875"/>
      <use xlink:href="#DejaVuSans-6f" x="369.251953"/>
      <use xlink:href="#DejaVuSans-6e" x="430.433594"/>
      <use xlink:href="#DejaVuSans-20" x="493.8125"/>
      <use xlink:href="#DejaVuSans-41" x="525.599609"/>
      <use xlink:href="#DejaVuSans-63" x="592.257812"/>
      <use xlink:href="#DejaVuSans-63" x="647.238281"/>
      <use xlink:href="#DejaVuSans-75" x="702.21875"/>
      <use xlink:href="#DejaVuSans-72" x="765.597656"/>
      <use xlink:href="#DejaVuSans-61" x="806.710938"/>
      <use xlink:href="#DejaVuSans-63" x="867.990234"/>
      <use xlink:href="#DejaVuSans-79" x="922.970703"/>
     </g>
    </g>
   </g>
  </g>
  <g id="text_18">
   <!-- Training VS. Validation Accuracy - Dataset Size = 100.0% -->
   <g transform="translate(27.796484 15.558281) scale(0.11 -0.11)">
    <defs>
     <path id="DejaVuSans-53" d="M 3425 4513 
L 3425 3897 
Q 3066 4069 2747 4153 
Q 2428 4238 2131 4238 
Q 1616 4238 1336 4038 
Q 1056 3838 1056 3469 
Q 1056 3159 1242 3001 
Q 1428 2844 1947 2747 
L 2328 2669 
Q 3034 2534 3370 2195 
Q 3706 1856 3706 1288 
Q 3706 609 3251 259 
Q 2797 -91 1919 -91 
Q 1588 -91 1214 -16 
Q 841 59 441 206 
L 441 856 
Q 825 641 1194 531 
Q 1563 422 1919 422 
Q 2459 422 2753 634 
Q 3047 847 3047 1241 
Q 3047 1584 2836 1778 
Q 2625 1972 2144 2069 
L 1759 2144 
Q 1053 2284 737 2584 
Q 422 2884 422 3419 
Q 422 4038 858 4394 
Q 1294 4750 2059 4750 
Q 2388 4750 2728 4690 
Q 3069 4631 3425 4513 
z
" transform="scale(0.015625)"/>
     <path id="DejaVuSans-2d" d="M 313 2009 
L 1997 2009 
L 1997 1497 
L 313 1497 
L 313 2009 
z
" transform="scale(0.015625)"/>
     <path id="DejaVuSans-44" d="M 1259 4147 
L 1259 519 
L 2022 519 
Q 2988 519 3436 956 
Q 3884 1394 3884 2338 
Q 3884 3275 3436 3711 
Q 2988 4147 2022 4147 
L 1259 4147 
z
M 628 4666 
L 1925 4666 
Q 3281 4666 3915 4102 
Q 4550 3538 4550 2338 
Q 4550 1131 3912 565 
Q 3275 0 1925 0 
L 628 0 
L 628 4666 
z
" transform="scale(0.015625)"/>
     <path id="DejaVuSans-7a" d="M 353 3500 
L 3084 3500 
L 3084 2975 
L 922 459 
L 3084 459 
L 3084 0 
L 275 0 
L 275 525 
L 2438 3041 
L 353 3041 
L 353 3500 
z
" transform="scale(0.015625)"/>
     <path id="DejaVuSans-3d" d="M 678 2906 
L 4684 2906 
L 4684 2381 
L 678 2381 
L 678 2906 
z
M 678 1631 
L 4684 1631 
L 4684 1100 
L 678 1100 
L 678 1631 
z
" transform="scale(0.015625)"/>
     <path id="DejaVuSans-25" d="M 4653 2053 
Q 4381 2053 4226 1822 
Q 4072 1591 4072 1178 
Q 4072 772 4226 539 
Q 4381 306 4653 306 
Q 4919 306 5073 539 
Q 5228 772 5228 1178 
Q 5228 1588 5073 1820 
Q 4919 2053 4653 2053 
z
M 4653 2450 
Q 5147 2450 5437 2106 
Q 5728 1763 5728 1178 
Q 5728 594 5436 251 
Q 5144 -91 4653 -91 
Q 4153 -91 3862 251 
Q 3572 594 3572 1178 
Q 3572 1766 3864 2108 
Q 4156 2450 4653 2450 
z
M 1428 4353 
Q 1159 4353 1004 4120 
Q 850 3888 850 3481 
Q 850 3069 1003 2837 
Q 1156 2606 1428 2606 
Q 1700 2606 1854 2837 
Q 2009 3069 2009 3481 
Q 2009 3884 1853 4118 
Q 1697 4353 1428 4353 
z
M 4250 4750 
L 4750 4750 
L 1831 -91 
L 1331 -91 
L 4250 4750 
z
M 1428 4750 
Q 1922 4750 2215 4408 
Q 2509 4066 2509 3481 
Q 2509 2891 2217 2550 
Q 1925 2209 1428 2209 
Q 931 2209 642 2551 
Q 353 2894 353 3481 
Q 353 4063 643 4406 
Q 934 4750 1428 4750 
z
" transform="scale(0.015625)"/>
    </defs>
    <use xlink:href="#DejaVuSans-54"/>
    <use xlink:href="#DejaVuSans-72" x="46.333984"/>
    <use xlink:href="#DejaVuSans-61" x="87.447266"/>
    <use xlink:href="#DejaVuSans-69" x="148.726562"/>
    <use xlink:href="#DejaVuSans-6e" x="176.509766"/>
    <use xlink:href="#DejaVuSans-69" x="239.888672"/>
    <use xlink:href="#DejaVuSans-6e" x="267.671875"/>
    <use xlink:href="#DejaVuSans-67" x="331.050781"/>
    <use xlink:href="#DejaVuSans-20" x="394.527344"/>
    <use xlink:href="#DejaVuSans-56" x="426.314453"/>
    <use xlink:href="#DejaVuSans-53" x="494.722656"/>
    <use xlink:href="#DejaVuSans-2e" x="558.199219"/>
    <use xlink:href="#DejaVuSans-20" x="589.986328"/>
    <use xlink:href="#DejaVuSans-56" x="621.773438"/>
    <use xlink:href="#DejaVuSans-61" x="682.431641"/>
    <use xlink:href="#DejaVuSans-6c" x="743.710938"/>
    <use xlink:href="#DejaVuSans-69" x="771.494141"/>
    <use xlink:href="#DejaVuSans-64" x="799.277344"/>
    <use xlink:href="#DejaVuSans-61" x="862.753906"/>
    <use xlink:href="#DejaVuSans-74" x="924.033203"/>
    <use xlink:href="#DejaVuSans-69" x="963.242188"/>
    <use xlink:href="#DejaVuSans-6f" x="991.025391"/>
    <use xlink:href="#DejaVuSans-6e" x="1052.207031"/>
    <use xlink:href="#DejaVuSans-20" x="1115.585938"/>
    <use xlink:href="#DejaVuSans-41" x="1147.373047"/>
    <use xlink:href="#DejaVuSans-63" x="1214.03125"/>
    <use xlink:href="#DejaVuSans-63" x="1269.011719"/>
    <use xlink:href="#DejaVuSans-75" x="1323.992188"/>
    <use xlink:href="#DejaVuSans-72" x="1387.371094"/>
    <use xlink:href="#DejaVuSans-61" x="1428.484375"/>
    <use xlink:href="#DejaVuSans-63" x="1489.763672"/>
    <use xlink:href="#DejaVuSans-79" x="1544.744141"/>
    <use xlink:href="#DejaVuSans-20" x="1603.923828"/>
    <use xlink:href="#DejaVuSans-2d" x="1635.710938"/>
    <use xlink:href="#DejaVuSans-20" x="1671.794922"/>
    <use xlink:href="#DejaVuSans-44" x="1703.582031"/>
    <use xlink:href="#DejaVuSans-61" x="1780.583984"/>
    <use xlink:href="#DejaVuSans-74" x="1841.863281"/>
    <use xlink:href="#DejaVuSans-61" x="1881.072266"/>
    <use xlink:href="#DejaVuSans-73" x="1942.351562"/>
    <use xlink:href="#DejaVuSans-65" x="1994.451172"/>
    <use xlink:href="#DejaVuSans-74" x="2055.974609"/>
    <use xlink:href="#DejaVuSans-20" x="2095.183594"/>
    <use xlink:href="#DejaVuSans-53" x="2126.970703"/>
    <use xlink:href="#DejaVuSans-69" x="2190.447266"/>
    <use xlink:href="#DejaVuSans-7a" x="2218.230469"/>
    <use xlink:href="#DejaVuSans-65" x="2270.720703"/>
    <use xlink:href="#DejaVuSans-20" x="2332.244141"/>
    <use xlink:href="#DejaVuSans-3d" x="2364.03125"/>
    <use xlink:href="#DejaVuSans-20" x="2447.820312"/>
    <use xlink:href="#DejaVuSans-31" x="2479.607422"/>
    <use xlink:href="#DejaVuSans-30" x="2543.230469"/>
    <use xlink:href="#DejaVuSans-30" x="2606.853516"/>
    <use xlink:href="#DejaVuSans-2e" x="2670.476562"/>
    <use xlink:href="#DejaVuSans-30" x="2702.263672"/>
    <use xlink:href="#DejaVuSans-25" x="2765.886719"/>
   </g>
  </g>
 </g>
 <defs>
  <clipPath id="p7ebb5030df">
   <rect x="50.14375" y="37.296" width="279" height="202.464"/>
  </clipPath>
 </defs>
</svg>
