<?xml version="1.0" encoding="utf-8" standalone="no"?>
<!DOCTYPE svg PUBLIC "-//W3C//DTD SVG 1.1//EN"
  "http://www.w3.org/Graphics/SVG/1.1/DTD/svg11.dtd">
<svg xmlns:xlink="http://www.w3.org/1999/xlink" width="349.691016pt" height="277.31625pt" viewBox="0 0 349.691016 277.31625" xmlns="http://www.w3.org/2000/svg" version="1.1">
 <metadata>
  <rdf:RDF xmlns:dc="http://purl.org/dc/elements/1.1/" xmlns:cc="http://creativecommons.org/ns#" xmlns:rdf="http://www.w3.org/1999/02/22-rdf-syntax-ns#">
   <cc:Work>
    <dc:type rdf:resource="http://purl.org/dc/dcmitype/StillImage"/>
    <dc:date>2026-06-11T17:58:26.129203</dc:date>
    <dc:format>image/svg+xml</dc:format>
    <dc:creator>
     <cc:Agent>
      <dc:title>Matplotlib v3.8.4, https://matplotlib.org/</dc:title>
     </cc:Agent>
    </dc:creator>
   </cc:Work>
  </rdf:RDF>
 </metadata>
 <defs>
  <style type="text/css">*{stroke-linejoin: round; stroke-linecap: butt}</style>
 </defs>
 <g id="figure_1">
  <g id="patch_1">
   <path d="M 0 277.31625 
L 349.691016 277.31625 
L 349.691016 0 
L 0 0 
z
" style="fill: #ffffff"/>
  </g>
  <g id="axes_1">
   <g id="patch_2">
    <path d="M 50.14375 239.76 
L 329.14375 239.76 
L 329.14375 37.296 
L 50.14375 37.296 
z
" style="fill: #ffffff"/>
   </g>
   <g id="matplotlib.axis_1">
    <g id="xtick_1">
     <g id="line2d_1">
      <path d="M 62.571678 239.76 
L 62.571678 37.296 
" clip-path="url(#p9773801973)" style="fill: none; stroke-dasharray: 2.96,1.28; stroke-dashoffset: 0; stroke: #b0b0b0; stroke-opacity: 0.4; stroke-width: 0.8"/>
     </g>
     <g id="line2d_2">
      <defs>
       <path id="m5e84fa1e08" d="M 0 0 
L 0 3.5 
" style="stroke: #000000; stroke-width: 0.8"/>
      </defs>
      <g>
       <use xlink:href="#m5e84fa1e08" x="62.571678" y="239.76" style="stroke: #000000; stroke-width: 0.8"/>
      </g>
     </g>
     <g id="text_1">
      <!-- 0 -->
      <g transform="translate(59.390428 254.358437) scale(0.1 -0.1)">
       <defs>
        <path id="DejaVuSans-30" d="M 2034 4250 
Q 1547 4250 1301 3770 
Q 1056 3291 1056 2328 
Q 1056 1369 1301 889 
Q 1547 409 2034 409 
Q 2525 409 2770 889 
Q 3016 1369 3016 2328 
Q 3016 3291 2770 3770 
Q 2525 4250 2034 4250 
z
M 2034 4750 
Q 2819 4750 3233 4129 
Q 3647 3509 3647 2328 
Q 3647 1150 3233 529 
Q 2819 -91 2034 -91 
Q 1250 -91 836 529 
Q 422 1150 422 2328 
Q 422 3509 836 4129 
Q 1250 4750 2034 4750 
z
" transform="scale(0.015625)"/>
       </defs>
       <use xlink:href="#DejaVuSans-30"/>
      </g>
     </g>
    </g>
    <g id="xtick_2">
     <g id="line2d_3">
      <path d="M 113.349729 239.76 
L 113.349729 37.296 
" clip-path="url(#p9773801973)" style="fill: none; stroke-dasharray: 2.96,1.28; stroke-dashoffset: 0; stroke: #b0b0b0; stroke-opacity: 0.4; stroke-width: 0.8"/>
     </g>
     <g id="line2d_4">
      <g>
       <use xlink:href="#m5e84fa1e08" x="113.349729" y="239.76" style="stroke: #000000; stroke-width: 0.8"/>
      </g>
     </g>
     <g id="text_2">
      <!-- 200 -->
      <g transform="translate(103.805979 254.358437) scale(0.1 -0.1)">
       <defs>
        <path id="DejaVuSans-32" d="M 1228 531 
L 3431 531 
L 3431 0 
L 469 0 
L 469 531 
Q 828 903 1448 1529 
Q 2069 2156 2228 2338 
Q 2531 2678 2651 2914 
Q 2772 3150 2772 3378 
Q 2772 3750 2511 3984 
Q 2250 4219 1831 4219 
Q 1534 4219 1204 4116 
Q 875 4013 500 3803 
L 500 4441 
Q 881 4594 1212 4672 
Q 1544 4750 1819 4750 
Q 2544 4750 2975 4387 
Q 3406 4025 3406 3419 
Q 3406 3131 3298 2873 
Q 3191 2616 2906 2266 
Q 2828 2175 2409 1742 
Q 1991 1309 1228 531 
z
" transform="scale(0.015625)"/>
       </defs>
       <use xlink:href="#DejaVuSans-32"/>
       <use xlink:href="#DejaVuSans-30" x="63.623047"/>
       <use xlink:href="#DejaVuSans-30" x="127.246094"/>
      </g>
     </g>
    </g>
    <g id="xtick_3">
     <g id="line2d_5">
      <path d="M 164.127779 239.76 
L 164.127779 37.296 
" clip-path="url(#p9773801973)" style="fill: none; stroke-dasharray: 2.96,1.28; stroke-dashoffset: 0; stroke: #b0b0b0; stroke-opacity: 0.4; stroke-width: 0.8"/>
     </g>
     <g id="line2d_6">
      <g>
       <use xlink:href="#m5e84fa1e08" x="164.127779" y="239.76" style="stroke: #000000; stroke-width: 0.8"/>
      </g>
     </g>
     <g id="text_3">
      <!-- 400 -->
      <g transform="translate(154.584029 254.358437) scale(0.1 -0.1)">
       <defs>
        <path id="DejaVuSans-34" d="M 2419 4116 
L 825 1625 
L 2419 1625 
L 2419 4116 
z
M 2253 4666 
L 3047 4666 
L 3047 1625 
L 3713 1625 
L 3713 1100 
L 3047 1100 
L 3047 0 
L 2419 0 
L 2419 1100 
L 313 1100 
L 313 1709 
L 2253 4666 
z
" transform="scale(0.015625)"/>
       </defs>
       <use xlink:href="#DejaVuSans-34"/>
       <use xlink:href="#DejaVuSans-30" x="63.623047"/>
       <use xlink:href="#DejaVuSans-30" x="127.246094"/>
      </g>
     </g>
    </g>
    <g id="xtick_4">
     <g id="line2d_7">
      <path d="M 214.90583 239.76 
L 214.90583 37.296 
" clip-path="url(#p9773801973)" style="fill: none; stroke-dasharray: 2.96,1.28; stroke-dashoffset: 0; stroke: #b0b0b0; stroke-opacity: 0.4; stroke-width: 0.8"/>
     </g>
     <g id="line2d_8">
      <g>
       <use xlink:href="#m5e84fa1e08" x="214.90583" y="239.76" style="stroke: #000000; stroke-width: 0.8"/>
      </g>
     </g>
     <g id="text_4">
      <!-- 600 -->
      <g transform="translate(205.36208 254.358437) scale(0.1 -0.1)">
       <defs>
        <path id="DejaVuSans-36" d="M 2113 2584 
Q 1688 2584 1439 2293 
Q 1191 2003 1191 1497 
Q 1191 994 1439 701 
Q 1688 409 2113 409 
Q 2538 409 2786 701 
Q 3034 994 3034 1497 
Q 3034 2003 2786 2293 
Q 2538 2584 2113 2584 
z
M 3366 4563 
L 3366 3988 
Q 3128 4100 2886 4159 
Q 2644 4219 2406 4219 
Q 1781 4219 1451 3797 
Q 1122 3375 1075 2522 
Q 1259 2794 1537 2939 
Q 1816 3084 2150 3084 
Q 2853 3084 3261 2657 
Q 3669 2231 3669 1497 
Q 3669 778 3244 343 
Q 2819 -91 2113 -91 
Q 1303 -91 875 529 
Q 447 1150 447 2328 
Q 447 3434 972 4092 
Q 1497 4750 2381 4750 
Q 2619 4750 2861 4703 
Q 3103 4656 3366 4563 
z
" transform="scale(0.015625)"/>
       </defs>
       <use xlink:href="#DejaVuSans-36"/>
       <use xlink:href="#DejaVuSans-30" x="63.623047"/>
       <use xlink:href="#DejaVuSans-30" x="127.246094"/>
      </g>
     </g>
    </g>
    <g id="xtick_5">
     <g id="line2d_9">
      <path d="M 265.683881 239.76 
L 265.683881 37.296 
" clip-path="url(#p9773801973)" style="fill: none; stroke-dasharray: 2.96,1.28; stroke-dashoffset: 0; stroke: #b0b0b0; stroke-opacity: 0.4; stroke-width: 0.8"/>
     </g>
     <g id="line2d_10">
      <g>
       <use xlink:href="#m5e84fa1e08" x="265.683881" y="239.76" style="stroke: #000000; stroke-width: 0.8"/>
      </g>
     </g>
     <g id="text_5">
      <!-- 800 -->
      <g transform="translate(256.140131 254.358437) scale(0.1 -0.1)">
       <defs>
        <path id="DejaVuSans-38" d="M 2034 2216 
Q 1584 2216 1326 1975 
Q 1069 1734 1069 1313 
Q 1069 891 1326 650 
Q 1584 409 2034 409 
Q 2484 409 2743 651 
Q 3003 894 3003 1313 
Q 3003 1734 2745 1975 
Q 2488 2216 2034 2216 
z
M 1403 2484 
Q 997 2584 770 2862 
Q 544 3141 544 3541 
Q 544 4100 942 4425 
Q 1341 4750 2034 4750 
Q 2731 4750 3128 4425 
Q 3525 4100 3525 3541 
Q 3525 3141 3298 2862 
Q 3072 2584 2669 2484 
Q 3125 2378 3379 2068 
Q 3634 1759 3634 1313 
Q 3634 634 3220 271 
Q 2806 -91 2034 -91 
Q 1263 -91 848 271 
Q 434 634 434 1313 
Q 434 1759 690 2068 
Q 947 2378 1403 2484 
z
M 1172 3481 
Q 1172 3119 1398 2916 
Q 1625 2713 2034 2713 
Q 2441 2713 2670 2916 
Q 2900 3119 2900 3481 
Q 2900 3844 2670 4047 
Q 2441 4250 2034 4250 
Q 1625 4250 1398 4047 
Q 1172 3844 1172 3481 
z
" transform="scale(0.015625)"/>
       </defs>
       <use xlink:href="#DejaVuSans-38"/>
       <use xlink:href="#DejaVuSans-30" x="63.623047"/>
       <use xlink:href="#DejaVuSans-30" x="127.246094"/>
      </g>
     </g>
    </g>
    <g id="xtick_6">
     <g id="line2d_11">
      <path d="M 316.461932 239.76 
L 316.461932 37.296 
" clip-path="url(#p9773801973)" style="fill: none; stroke-dasharray: 2.96,1.28; stroke-dashoffset: 0; stroke: #b0b0b0; stroke-opacity: 0.4; stroke-width: 0.8"/>
     </g>
     <g id="line2d_12">
      <g>
       <use xlink:href="#m5e84fa1e08" x="316.461932" y="239.76" style="stroke: #000000; stroke-width: 0.8"/>
      </g>
     </g>
     <g id="text_6">
      <!-- 1000 -->
      <g transform="translate(303.736932 254.358437) scale(0.1 -0.1)">
       <defs>
        <path id="DejaVuSans-31" d="M 794 531 
L 1825 531 
L 1825 4091 
L 703 3866 
L 703 4441 
L 1819 4666 
L 2450 4666 
L 2450 531 
L 3481 531 
L 3481 0 
L 794 0 
L 794 531 
z
" transform="scale(0.015625)"/>
       </defs>
       <use xlink:href="#DejaVuSans-31"/>
       <use xlink:href="#DejaVuSans-30" x="63.623047"/>
       <use xlink:href="#DejaVuSans-30" x="127.246094"/>
       <use xlink:href="#DejaVuSans-30" x="190.869141"/>
      </g>
     </g>
    </g>
    <g id="text_7">
     <!-- Epochs -->
     <g transform="translate(171.728125 268.036562) scale(0.1 -0.1)">
      <defs>
       <path id="DejaVuSans-45" d="M 628 4666 
L 3578 4666 
L 3578 4134 
L 1259 4134 
L 1259 2753 
L 3481 2753 
L 3481 2222 
L 1259 2222 
L 1259 531 
L 3634 531 
L 3634 0 
L 628 0 
L 628 4666 
z
" transform="scale(0.015625)"/>
       <path id="DejaVuSans-70" d="M 1159 525 
L 1159 -1331 
L 581 -1331 
L 581 3500 
L 1159 3500 
L 1159 2969 
Q 1341 3281 1617 3432 
Q 1894 3584 2278 3584 
Q 2916 3584 3314 3078 
Q 3713 2572 3713 1747 
Q 3713 922 3314 415 
Q 2916 -91 2278 -91 
Q 1894 -91 1617 61 
Q 1341 213 1159 525 
z
M 3116 1747 
Q 3116 2381 2855 2742 
Q 2594 3103 2138 3103 
Q 1681 3103 1420 2742 
Q 1159 2381 1159 1747 
Q 1159 1113 1420 752 
Q 1681 391 2138 391 
Q 2594 391 2855 752 
Q 3116 1113 3116 1747 
z
" transform="scale(0.015625)"/>
       <path id="DejaVuSans-6f" d="M 1959 3097 
Q 1497 3097 1228 2736 
Q 959 2375 959 1747 
Q 959 1119 1226 758 
Q 1494 397 1959 397 
Q 2419 397 2687 759 
Q 2956 1122 2956 1747 
Q 2956 2369 2687 2733 
Q 2419 3097 1959 3097 
z
M 1959 3584 
Q 2709 3584 3137 3096 
Q 3566 2609 3566 1747 
Q 3566 888 3137 398 
Q 2709 -91 1959 -91 
Q 1206 -91 779 398 
Q 353 888 353 1747 
Q 353 2609 779 3096 
Q 1206 3584 1959 3584 
z
" transform="scale(0.015625)"/>
       <path id="DejaVuSans-63" d="M 3122 3366 
L 3122 2828 
Q 2878 2963 2633 3030 
Q 2388 3097 2138 3097 
Q 1578 3097 1268 2742 
Q 959 2388 959 1747 
Q 959 1106 1268 751 
Q 1578 397 2138 397 
Q 2388 397 2633 464 
Q 2878 531 3122 666 
L 3122 134 
Q 2881 22 2623 -34 
Q 2366 -91 2075 -91 
Q 1284 -91 818 406 
Q 353 903 353 1747 
Q 353 2603 823 3093 
Q 1294 3584 2113 3584 
Q 2378 3584 2631 3529 
Q 2884 3475 3122 3366 
z
" transform="scale(0.015625)"/>
       <path id="DejaVuSans-68" d="M 3513 2113 
L 3513 0 
L 2938 0 
L 2938 2094 
Q 2938 2591 2744 2837 
Q 2550 3084 2163 3084 
Q 1697 3084 1428 2787 
Q 1159 2491 1159 1978 
L 1159 0 
L 581 0 
L 581 4863 
L 1159 4863 
L 1159 2956 
Q 1366 3272 1645 3428 
Q 1925 3584 2291 3584 
Q 2894 3584 3203 3211 
Q 3513 2838 3513 2113 
z
" transform="scale(0.015625)"/>
       <path id="DejaVuSans-73" d="M 2834 3397 
L 2834 2853 
Q 2591 2978 2328 3040 
Q 2066 3103 1784 3103 
Q 1356 3103 1142 2972 
Q 928 2841 928 2578 
Q 928 2378 1081 2264 
Q 1234 2150 1697 2047 
L 1894 2003 
Q 2506 1872 2764 1633 
Q 3022 1394 3022 966 
Q 3022 478 2636 193 
Q 2250 -91 1575 -91 
Q 1294 -91 989 -36 
Q 684 19 347 128 
L 347 722 
Q 666 556 975 473 
Q 1284 391 1588 391 
Q 1994 391 2212 530 
Q 2431 669 2431 922 
Q 2431 1156 2273 1281 
Q 2116 1406 1581 1522 
L 1381 1569 
Q 847 1681 609 1914 
Q 372 2147 372 2553 
Q 372 3047 722 3315 
Q 1072 3584 1716 3584 
Q 2034 3584 2315 3537 
Q 2597 3491 2834 3397 
z
" transform="scale(0.015625)"/>
      </defs>
      <use xlink:href="#DejaVuSans-45"/>
      <use xlink:href="#DejaVuSans-70" x="63.183594"/>
      <use xlink:href="#DejaVuSans-6f" x="126.660156"/>
      <use xlink:href="#DejaVuSans-63" x="187.841797"/>
      <use xlink:href="#DejaVuSans-68" x="242.822266"/>
      <use xlink:href="#DejaVuSans-73" x="306.201172"/>
     </g>
    </g>
   </g>
   <g id="matplotlib.axis_2">
    <g id="ytick_1">
     <g id="line2d_13">
      <path d="M 50.14375 223.214075 
L 329.14375 223.214075 
" clip-path="url(#p9773801973)" style="fill: none; stroke-dasharray: 2.96,1.28; stroke-dashoffset: 0; stroke: #b0b0b0; stroke-opacity: 0.4; stroke-width: 0.8"/>
     </g>
     <g id="line2d_14">
      <defs>
       <path id="mc7dd016104" d="M 0 0 
L -3.5 0 
" style="stroke: #000000; stroke-width: 0.8"/>
      </defs>
      <g>
       <use xlink:href="#mc7dd016104" x="50.14375" y="223.214075" style="stroke: #000000; stroke-width: 0.8"/>
      </g>
     </g>
     <g id="text_8">
      <!-- 0.50 -->
      <g transform="translate(20.878125 227.013294) scale(0.1 -0.1)">
       <defs>
        <path id="DejaVuSans-2e" d="M 684 794 
L 1344 794 
L 1344 0 
L 684 0 
L 684 794 
z
" transform="scale(0.015625)"/>
        <path id="DejaVuSans-35" d="M 691 4666 
L 3169 4666 
L 3169 4134 
L 1269 4134 
L 1269 2991 
Q 1406 3038 1543 3061 
Q 1681 3084 1819 3084 
Q 2600 3084 3056 2656 
Q 3513 2228 3513 1497 
Q 3513 744 3044 326 
Q 2575 -91 1722 -91 
Q 1428 -91 1123 -41 
Q 819 9 494 109 
L 494 744 
Q 775 591 1075 516 
Q 1375 441 1709 441 
Q 2250 441 2565 725 
Q 2881 1009 2881 1497 
Q 2881 1984 2565 2268 
Q 2250 2553 1709 2553 
Q 1456 2553 1204 2497 
Q 953 2441 691 2322 
L 691 4666 
z
" transform="scale(0.015625)"/>
       </defs>
       <use xlink:href="#DejaVuSans-30"/>
       <use xlink:href="#DejaVuSans-2e" x="63.623047"/>
       <use xlink:href="#DejaVuSans-35" x="95.410156"/>
       <use xlink:href="#DejaVuSans-30" x="159.033203"/>
      </g>
     </g>
    </g>
    <g id="ytick_2">
     <g id="line2d_15">
      <path d="M 50.14375 191.324411 
L 329.14375 191.324411 
" clip-path="url(#p9773801973)" style="fill: none; stroke-dasharray: 2.96,1.28; stroke-dashoffset: 0; stroke: #b0b0b0; stroke-opacity: 0.4; stroke-width: 0.8"/>
     </g>
     <g id="line2d_16">
      <g>
       <use xlink:href="#mc7dd016104" x="50.14375" y="191.324411" style="stroke: #000000; stroke-width: 0.8"/>
      </g>
     </g>
     <g id="text_9">
      <!-- 0.52 -->
      <g transform="translate(20.878125 195.123629) scale(0.1 -0.1)">
       <use xlink:href="#DejaVuSans-30"/>
       <use xlink:href="#DejaVuSans-2e" x="63.623047"/>
       <use xlink:href="#DejaVuSans-35" x="95.410156"/>
       <use xlink:href="#DejaVuSans-32" x="159.033203"/>
      </g>
     </g>
    </g>
    <g id="ytick_3">
     <g id="line2d_17">
      <path d="M 50.14375 159.434746 
L 329.14375 159.434746 
" clip-path="url(#p9773801973)" style="fill: none; stroke-dasharray: 2.96,1.28; stroke-dashoffset: 0; stroke: #b0b0b0; stroke-opacity: 0.4; stroke-width: 0.8"/>
     </g>
     <g id="line2d_18">
      <g>
       <use xlink:href="#mc7dd016104" x="50.14375" y="159.434746" style="stroke: #000000; stroke-width: 0.8"/>
      </g>
     </g>
     <g id="text_10">
      <!-- 0.54 -->
      <g transform="translate(20.878125 163.233965) scale(0.1 -0.1)">
       <use xlink:href="#DejaVuSans-30"/>
       <use xlink:href="#DejaVuSans-2e" x="63.623047"/>
       <use xlink:href="#DejaVuSans-35" x="95.410156"/>
       <use xlink:href="#DejaVuSans-34" x="159.033203"/>
      </g>
     </g>
    </g>
    <g id="ytick_4">
     <g id="line2d_19">
      <path d="M 50.14375 127.545081 
L 329.14375 127.545081 
" clip-path="url(#p9773801973)" style="fill: none; stroke-dasharray: 2.96,1.28; stroke-dashoffset: 0; stroke: #b0b0b0; stroke-opacity: 0.4; stroke-width: 0.8"/>
     </g>
     <g id="line2d_20">
      <g>
       <use xlink:href="#mc7dd016104" x="50.14375" y="127.545081" style="stroke: #000000; stroke-width: 0.8"/>
      </g>
     </g>
     <g id="text_11">
      <!-- 0.56 -->
      <g transform="translate(20.878125 131.3443) scale(0.1 -0.1)">
       <use xlink:href="#DejaVuSans-30"/>
       <use xlink:href="#DejaVuSans-2e" x="63.623047"/>
       <use xlink:href="#DejaVuSans-35" x="95.410156"/>
       <use xlink:href="#DejaVuSans-36" x="159.033203"/>
      </g>
     </g>
    </g>
    <g id="ytick_5">
     <g id="line2d_21">
      <path d="M 50.14375 95.655416 
L 329.14375 95.655416 
" clip-path="url(#p9773801973)" style="fill: none; stroke-dasharray: 2.96,1.28; stroke-dashoffset: 0; stroke: #b0b0b0; stroke-opacity: 0.4; stroke-width: 0.8"/>
     </g>
     <g id="line2d_22">
      <g>
       <use xlink:href="#mc7dd016104" x="50.14375" y="95.655416" style="stroke: #000000; stroke-width: 0.8"/>
      </g>
     </g>
     <g id="text_12">
      <!-- 0.58 -->
      <g transform="translate(20.878125 99.454635) scale(0.1 -0.1)">
       <use xlink:href="#DejaVuSans-30"/>
       <use xlink:href="#DejaVuSans-2e" x="63.623047"/>
       <use xlink:href="#DejaVuSans-35" x="95.410156"/>
       <use xlink:href="#DejaVuSans-38" x="159.033203"/>
      </g>
     </g>
    </g>
    <g id="ytick_6">
     <g id="line2d_23">
      <path d="M 50.14375 63.765751 
L 329.14375 63.765751 
" clip-path="url(#p9773801973)" style="fill: none; stroke-dasharray: 2.96,1.28; stroke-dashoffset: 0; stroke: #b0b0b0; stroke-opacity: 0.4; stroke-width: 0.8"/>
     </g>
     <g id="line2d_24">
      <g>
       <use xlink:href="#mc7dd016104" x="50.14375" y="63.765751" style="stroke: #000000; stroke-width: 0.8"/>
      </g>
     </g>
     <g id="text_13">
      <!-- 0.60 -->
      <g transform="translate(20.878125 67.56497) scale(0.1 -0.1)">
       <use xlink:href="#DejaVuSans-30"/>
       <use xlink:href="#DejaVuSans-2e" x="63.623047"/>
       <use xlink:href="#DejaVuSans-36" x="95.410156"/>
       <use xlink:href="#DejaVuSans-30" x="159.033203"/>
      </g>
     </g>
    </g>
    <g id="text_14">
     <!-- Accuracy -->
     <g transform="translate(14.798438 161.356125) rotate(-90) scale(0.1 -0.1)">
      <defs>
       <path id="DejaVuSans-41" d="M 2188 4044 
L 1331 1722 
L 3047 1722 
L 2188 4044 
z
M 1831 4666 
L 2547 4666 
L 4325 0 
L 3669 0 
L 3244 1197 
L 1141 1197 
L 716 0 
L 50 0 
L 1831 4666 
z
" transform="scale(0.015625)"/>
       <path id="DejaVuSans-75" d="M 544 1381 
L 544 3500 
L 1119 3500 
L 1119 1403 
Q 1119 906 1312 657 
Q 1506 409 1894 409 
Q 2359 409 2629 706 
Q 2900 1003 2900 1516 
L 2900 3500 
L 3475 3500 
L 3475 0 
L 2900 0 
L 2900 538 
Q 2691 219 2414 64 
Q 2138 -91 1772 -91 
Q 1169 -91 856 284 
Q 544 659 544 1381 
z
M 1991 3584 
L 1991 3584 
z
" transform="scale(0.015625)"/>
       <path id="DejaVuSans-72" d="M 2631 2963 
Q 2534 3019 2420 3045 
Q 2306 3072 2169 3072 
Q 1681 3072 1420 2755 
Q 1159 2438 1159 1844 
L 1159 0 
L 581 0 
L 581 3500 
L 1159 3500 
L 1159 2956 
Q 1341 3275 1631 3429 
Q 1922 3584 2338 3584 
Q 2397 3584 2469 3576 
Q 2541 3569 2628 3553 
L 2631 2963 
z
" transform="scale(0.015625)"/>
       <path id="DejaVuSans-61" d="M 2194 1759 
Q 1497 1759 1228 1600 
Q 959 1441 959 1056 
Q 959 750 1161 570 
Q 1363 391 1709 391 
Q 2188 391 2477 730 
Q 2766 1069 2766 1631 
L 2766 1759 
L 2194 1759 
z
M 3341 1997 
L 3341 0 
L 2766 0 
L 2766 531 
Q 2569 213 2275 61 
Q 1981 -91 1556 -91 
Q 1019 -91 701 211 
Q 384 513 384 1019 
Q 384 1609 779 1909 
Q 1175 2209 1959 2209 
L 2766 2209 
L 2766 2266 
Q 2766 2663 2505 2880 
Q 2244 3097 1772 3097 
Q 1472 3097 1187 3025 
Q 903 2953 641 2809 
L 641 3341 
Q 956 3463 1253 3523 
Q 1550 3584 1831 3584 
Q 2591 3584 2966 3190 
Q 3341 2797 3341 1997 
z
" transform="scale(0.015625)"/>
       <path id="DejaVuSans-79" d="M 2059 -325 
Q 1816 -950 1584 -1140 
Q 1353 -1331 966 -1331 
L 506 -1331 
L 506 -850 
L 844 -850 
Q 1081 -850 1212 -737 
Q 1344 -625 1503 -206 
L 1606 56 
L 191 3500 
L 800 3500 
L 1894 763 
L 2988 3500 
L 3597 3500 
L 2059 -325 
z
" transform="scale(0.015625)"/>
      </defs>
      <use xlink:href="#DejaVuSans-41"/>
      <use xlink:href="#DejaVuSans-63" x="66.658203"/>
      <use xlink:href="#DejaVuSans-63" x="121.638672"/>
      <use xlink:href="#DejaVuSans-75" x="176.619141"/>
      <use xlink:href="#DejaVuSans-72" x="239.998047"/>
      <use xlink:href="#DejaVuSans-61" x="281.111328"/>
      <use xlink:href="#DejaVuSans-63" x="342.390625"/>
      <use xlink:href="#DejaVuSans-79" x="397.371094"/>
     </g>
    </g>
   </g>
   <g id="line2d_25">
    <path d="M 62.825568 191.738049 
L 63.587239 151.268994 
L 63.841129 144.973827 
L 64.095019 153.0676 
L 64.34891 140.926893 
L 64.6028 169.704869 
L 64.85669 167.456635 
L 65.11058 151.268994 
L 65.364471 126.08823 
L 65.618361 145.423455 
L 65.872251 139.128288 
L 66.126141 142.725499 
L 66.633922 121.141946 
L 66.887812 132.833025 
L 67.141702 115.296406 
L 67.395593 129.685442 
L 67.649483 134.631631 
L 67.903373 133.282748 
L 68.157264 139.577915 
L 68.411154 153.96695 
L 68.665044 124.739252 
L 68.918934 111.249472 
L 69.172825 144.524105 
L 69.426715 131.484047 
L 69.680605 111.249472 
L 69.934495 123.839902 
L 70.188386 119.792968 
L 70.442276 110.350217 
L 70.696166 109.90059 
L 70.950056 120.242691 
L 71.203947 113.497801 
L 71.457837 128.336464 
L 71.711727 117.095012 
L 71.965617 123.839902 
L 72.219508 124.28953 
L 72.473398 129.235814 
L 72.727288 97.31016 
L 72.981178 97.759788 
L 73.488959 119.792968 
L 73.742849 127.886836 
L 73.996739 106.303283 
L 74.25063 118.893713 
L 74.75841 101.357094 
L 75.0123 119.34334 
L 75.266191 104.05505 
L 75.520081 104.954305 
L 75.773971 95.511554 
L 76.027861 101.806722 
L 76.281752 90.115642 
L 76.535642 109.90059 
L 76.789532 104.504678 
L 77.043422 109.001239 
L 77.551203 75.726607 
L 78.058983 97.31016 
L 78.312874 70.330695 
L 78.566764 82.471497 
L 78.820654 84.270103 
L 79.074544 88.317037 
L 79.328435 71.679673 
L 79.582325 90.115642 
L 79.836215 90.115642 
L 80.090105 101.806722 
L 80.343996 127.886836 
L 80.597886 98.659138 
L 80.851776 89.216292 
L 81.105666 88.317037 
L 81.359557 93.263226 
L 81.867337 70.330695 
L 82.121227 92.363971 
L 82.375118 89.216292 
L 82.629008 88.317037 
L 82.882898 85.619081 
L 83.136788 73.928002 
L 83.390679 81.572147 
L 83.644569 109.90059 
L 83.898459 60.438317 
L 84.15235 86.068708 
L 84.40624 82.471497 
L 84.66013 86.518431 
L 84.91402 70.780418 
L 85.167911 93.263226 
L 85.421801 65.384506 
L 85.675691 96.41081 
L 85.929581 93.712854 
L 86.183472 73.028651 
L 86.437362 93.712854 
L 86.691252 97.759788 
L 86.945142 96.41081 
L 87.199033 91.914248 
L 87.452923 92.813598 
L 87.706813 91.914248 
L 87.960703 73.028651 
L 88.214594 72.129396 
L 88.468484 83.820475 
L 88.976264 88.317037 
L 89.230155 89.216292 
L 89.484045 86.968059 
L 89.737935 87.867314 
L 89.991825 70.780418 
L 90.245716 98.659138 
L 90.499606 70.780418 
L 90.753496 72.579024 
L 91.007386 79.773541 
L 91.261277 96.41081 
L 91.769057 68.981812 
L 92.022947 80.223169 
L 92.276838 73.028651 
L 92.530728 70.780418 
L 92.784618 65.384506 
L 93.038508 85.619081 
L 93.292399 76.625957 
L 93.546289 77.525213 
L 93.800179 91.46462 
L 94.30796 76.176235 
L 94.56185 88.766664 
L 94.81574 74.827352 
L 95.06963 86.968059 
L 95.323521 87.867314 
L 95.577411 88.317037 
L 95.831301 62.236922 
L 96.085191 79.773541 
L 96.339082 85.619081 
L 96.592972 95.511554 
L 96.846862 74.377629 
L 97.354643 78.424563 
L 97.608533 95.961182 
L 97.862423 76.625957 
L 98.116313 81.122519 
L 98.370204 80.223169 
L 98.624094 75.726607 
L 98.877984 90.56527 
L 99.131874 69.881068 
L 99.385765 70.780418 
L 99.639655 87.867314 
L 99.893545 91.014993 
L 100.147436 80.223169 
L 100.401326 105.853656 
L 100.655216 82.021774 
L 100.909106 82.471497 
L 101.162997 86.968059 
L 101.416887 95.961182 
L 101.670777 81.122519 
L 101.924667 88.766664 
L 102.178558 80.672891 
L 102.432448 81.122519 
L 102.686338 80.223169 
L 102.940228 76.625957 
L 103.194119 79.323913 
L 103.448009 83.820475 
L 103.701899 61.787295 
L 104.20968 83.370752 
L 104.46357 72.579024 
L 104.97135 81.122519 
L 105.225241 77.974935 
L 105.479131 82.471497 
L 105.733021 79.323913 
L 105.986911 77.974935 
L 106.240802 78.874191 
L 106.494692 91.46462 
L 106.748582 77.974935 
L 107.002472 98.20951 
L 107.256363 69.881068 
L 107.510253 77.525213 
L 107.764143 94.162576 
L 108.018033 91.914248 
L 108.271924 84.71973 
L 108.525814 85.169453 
L 108.779704 86.968059 
L 109.033594 77.974935 
L 109.287485 63.136273 
L 109.541375 73.478374 
L 109.795265 63.5859 
L 110.049155 70.780418 
L 110.303046 85.169453 
L 110.556936 83.820475 
L 110.810826 86.968059 
L 111.064716 80.672891 
L 111.318607 65.384506 
L 111.826387 99.108766 
L 112.080277 77.525213 
L 112.334168 85.619081 
L 112.588058 80.223169 
L 112.841948 70.330695 
L 113.095838 79.773541 
L 113.603619 71.230046 
L 113.857509 74.377629 
L 114.111399 81.122519 
L 114.36529 77.075585 
L 114.61918 81.122519 
L 114.87307 87.417686 
L 115.12696 72.129396 
L 115.634741 99.558393 
L 115.888631 79.323913 
L 116.142521 82.021774 
L 116.396412 89.666015 
L 116.650302 90.115642 
L 116.904192 70.780418 
L 117.158083 86.068708 
L 117.665863 64.934878 
L 117.919753 82.471497 
L 118.173644 86.968059 
L 118.427534 82.021774 
L 118.681424 82.021774 
L 118.935314 73.028651 
L 119.189205 68.981812 
L 119.443095 86.518431 
L 119.696985 77.974935 
L 119.950875 73.928002 
L 120.204766 61.337572 
L 120.458656 67.632834 
L 120.712546 84.270103 
L 120.966436 80.223169 
L 121.220327 78.874191 
L 121.474217 83.370752 
L 121.728107 76.176235 
L 121.981997 83.370752 
L 122.235888 83.820475 
L 122.489778 77.075585 
L 122.743668 84.270103 
L 123.251449 74.377629 
L 123.505339 78.424563 
L 124.013119 69.43144 
L 124.26701 75.726607 
L 124.5209 95.061832 
L 124.77479 73.928002 
L 125.282571 85.619081 
L 125.536461 101.357094 
L 125.790351 82.471497 
L 126.044241 55.042405 
L 126.298132 72.129396 
L 126.552022 80.223169 
L 126.805912 60.438317 
L 127.059802 88.766664 
L 127.313693 64.035528 
L 127.567583 56.84101 
L 127.821473 77.525213 
L 128.075363 63.136273 
L 128.329254 78.424563 
L 128.583144 76.176235 
L 128.837034 77.974935 
L 129.090924 84.270103 
L 129.344815 84.71973 
L 129.598705 78.874191 
L 129.852595 94.612204 
L 130.106485 87.867314 
L 130.360376 73.028651 
L 130.614266 85.169453 
L 131.375937 66.733484 
L 131.629827 78.424563 
L 132.137607 85.619081 
L 132.391498 82.921125 
L 132.645388 85.619081 
L 133.153169 75.27698 
L 133.407059 79.773541 
L 133.660949 98.659138 
L 133.914839 83.370752 
L 134.16873 77.075585 
L 134.42262 79.773541 
L 134.67651 61.337572 
L 134.9304 59.988594 
L 135.184291 78.874191 
L 135.438181 75.726607 
L 135.692071 76.176235 
L 135.945961 78.874191 
L 136.199852 80.223169 
L 136.453742 83.370752 
L 136.707632 76.176235 
L 136.961522 81.572147 
L 137.215413 77.075585 
L 137.469303 76.176235 
L 137.723193 77.525213 
L 137.977083 59.538966 
L 138.230974 82.021774 
L 138.484864 67.632834 
L 138.738754 80.672891 
L 138.992644 82.471497 
L 139.246535 86.068708 
L 139.500425 94.162576 
L 139.754315 73.478374 
L 140.008205 81.572147 
L 140.262096 83.370752 
L 140.515986 69.43144 
L 140.769876 79.323913 
L 141.023766 82.921125 
L 141.277657 74.827352 
L 141.531547 78.874191 
L 141.785437 74.377629 
L 142.039327 73.928002 
L 142.293218 79.773541 
L 142.547108 81.122519 
L 142.800998 87.867314 
L 143.308779 71.230046 
L 143.562669 74.827352 
L 143.816559 86.068708 
L 144.070449 80.672891 
L 144.32434 70.780418 
L 144.57823 93.263226 
L 144.83212 73.478374 
L 145.08601 75.726607 
L 145.339901 72.129396 
L 145.593791 65.834134 
L 145.847681 78.874191 
L 146.101571 69.881068 
L 146.355462 95.511554 
L 146.609352 86.068708 
L 146.863242 71.679673 
L 147.117132 95.511554 
L 147.371023 55.941755 
L 147.624913 46.498909 
L 147.878803 91.46462 
L 148.132693 90.115642 
L 148.386584 72.129396 
L 148.640474 83.370752 
L 148.894364 100.008116 
L 149.148255 77.075585 
L 149.402145 95.961182 
L 149.656035 79.773541 
L 149.909925 86.968059 
L 150.163816 85.619081 
L 150.417706 81.122519 
L 150.671596 66.283856 
L 150.925486 69.43144 
L 151.179377 75.726607 
L 151.433267 67.632834 
L 151.687157 73.478374 
L 151.941047 82.921125 
L 152.194938 66.283856 
L 152.448828 76.625957 
L 152.702718 61.337572 
L 152.956608 76.625957 
L 153.210499 71.230046 
L 153.718279 75.726607 
L 153.972169 70.330695 
L 154.22606 85.169453 
L 154.47995 73.478374 
L 154.73384 71.679673 
L 155.241621 80.672891 
L 155.495511 70.330695 
L 155.749401 68.981812 
L 156.003291 84.71973 
L 156.257182 63.136273 
L 156.511072 91.014993 
L 156.764962 77.974935 
L 157.018852 79.773541 
L 157.272743 75.27698 
L 157.526633 61.787295 
L 157.780523 61.337572 
L 158.034413 79.323913 
L 158.288304 78.424563 
L 158.542194 67.183112 
L 158.796084 78.424563 
L 159.303865 59.089339 
L 159.557755 68.53209 
L 159.811645 62.68655 
L 160.065535 83.820475 
L 160.319426 76.176235 
L 160.573316 83.820475 
L 160.827206 73.478374 
L 161.081096 58.189988 
L 161.334987 88.766664 
L 161.588877 73.478374 
L 161.842767 78.424563 
L 162.096657 77.075585 
L 162.350548 73.478374 
L 162.604438 76.625957 
L 162.858328 58.639616 
L 163.366109 78.424563 
L 163.619999 72.579024 
L 163.873889 82.471497 
L 164.38167 67.183112 
L 164.63556 86.968059 
L 164.88945 68.981812 
L 165.397231 76.625957 
L 165.651121 89.216292 
L 166.158902 67.183112 
L 166.412792 86.068708 
L 166.666682 76.176235 
L 166.920572 72.129396 
L 167.174463 77.974935 
L 167.428353 64.035528 
L 167.682243 92.363971 
L 167.936133 57.290733 
L 168.190024 89.216292 
L 168.443914 61.337572 
L 168.951694 86.968059 
L 169.459475 65.834134 
L 169.713365 66.283856 
L 169.967255 71.230046 
L 170.221146 85.619081 
L 170.728926 65.834134 
L 170.982816 60.438317 
L 171.236707 80.223169 
L 171.998377 85.619081 
L 172.252268 71.679673 
L 172.506158 75.726607 
L 172.760048 92.813598 
L 173.013938 87.867314 
L 173.521719 72.129396 
L 173.775609 82.471497 
L 174.029499 71.230046 
L 174.28339 77.075585 
L 174.53728 73.028651 
L 174.79117 65.834134 
L 175.04506 79.773541 
L 175.298951 69.43144 
L 175.552841 66.283856 
L 175.806731 82.021774 
L 176.060621 61.337572 
L 176.314512 79.323913 
L 176.568402 72.129396 
L 176.822292 73.928002 
L 177.076182 73.928002 
L 177.330073 67.183112 
L 177.583963 86.968059 
L 177.837853 72.129396 
L 178.091743 83.820475 
L 178.345634 67.183112 
L 178.599524 70.330695 
L 178.853414 71.230046 
L 179.107304 70.330695 
L 179.361195 60.438317 
L 179.615085 74.827352 
L 179.868975 74.377629 
L 180.122865 65.834134 
L 180.376756 70.780418 
L 180.630646 61.787295 
L 180.884536 68.082462 
L 181.138426 69.881068 
L 181.392317 97.759788 
L 181.646207 71.679673 
L 181.900097 72.579024 
L 182.153988 80.223169 
L 182.407878 83.820475 
L 182.661768 56.391383 
L 182.915658 86.068708 
L 183.169549 62.68655 
L 183.677329 71.679673 
L 183.931219 63.5859 
L 184.18511 64.035528 
L 184.439 65.834134 
L 184.94678 82.021774 
L 185.200671 73.478374 
L 185.454561 85.169453 
L 185.708451 66.733484 
L 185.962341 67.183112 
L 186.216232 69.881068 
L 186.470122 57.290733 
L 186.724012 65.834134 
L 186.977902 60.438317 
L 187.231793 70.780418 
L 187.485683 53.693427 
L 187.739573 61.787295 
L 187.993463 60.438317 
L 188.247354 71.230046 
L 188.501244 73.478374 
L 188.755134 66.733484 
L 189.009024 70.330695 
L 189.262915 70.330695 
L 189.516805 68.53209 
L 189.770695 55.492032 
L 190.024585 66.283856 
L 190.278476 90.115642 
L 190.532366 75.726607 
L 190.786256 71.230046 
L 191.040146 74.827352 
L 191.294037 62.68655 
L 191.547927 94.162576 
L 191.801817 66.733484 
L 192.055707 63.5859 
L 192.309598 78.424563 
L 192.817378 63.136273 
L 193.071268 93.263226 
L 193.325159 63.136273 
L 193.579049 78.874191 
L 193.832939 82.921125 
L 194.086829 64.485156 
L 194.34072 59.089339 
L 194.59461 73.928002 
L 194.8485 72.129396 
L 195.10239 57.740361 
L 195.356281 70.780418 
L 195.610171 56.84101 
L 195.864061 79.773541 
L 196.117951 79.323913 
L 196.371842 80.223169 
L 196.625732 66.283856 
L 196.879622 71.230046 
L 197.133512 70.780418 
L 197.387403 74.827352 
L 197.641293 60.887944 
L 197.895183 81.572147 
L 198.149074 84.71973 
L 198.402964 53.243799 
L 198.656854 70.780418 
L 198.910744 73.028651 
L 199.164635 69.881068 
L 199.672415 77.075585 
L 199.926305 75.27698 
L 200.180196 74.377629 
L 200.434086 75.726607 
L 200.687976 66.283856 
L 200.941866 72.129396 
L 201.195757 68.082462 
L 201.449647 76.176235 
L 201.703537 75.27698 
L 201.957427 86.068708 
L 202.211318 76.625957 
L 202.465208 55.492032 
L 202.719098 80.223169 
L 202.972988 71.230046 
L 203.480769 76.176235 
L 203.734659 73.928002 
L 203.988549 84.71973 
L 204.24244 62.68655 
L 204.49633 70.330695 
L 204.75022 72.129396 
L 205.00411 81.122519 
L 205.258001 59.089339 
L 205.511891 67.632834 
L 205.765781 56.391383 
L 206.273562 83.820475 
L 206.527452 89.666015 
L 206.781342 71.679673 
L 207.035232 68.082462 
L 207.289123 75.726607 
L 207.543013 67.632834 
L 207.796903 69.43144 
L 208.050793 77.974935 
L 208.304684 94.162576 
L 208.558574 90.56527 
L 208.812464 56.84101 
L 209.066354 72.129396 
L 209.320245 78.424563 
L 209.574135 79.323913 
L 209.828025 77.075585 
L 210.081915 55.492032 
L 210.335806 80.672891 
L 210.589696 77.525213 
L 210.843586 79.323913 
L 211.097476 76.625957 
L 211.351367 58.189988 
L 211.605257 72.579024 
L 211.859147 76.625957 
L 212.113037 70.780418 
L 212.366928 72.129396 
L 212.620818 67.183112 
L 212.874708 76.176235 
L 213.382489 59.089339 
L 213.890269 83.820475 
L 214.14416 72.579024 
L 214.39805 79.323913 
L 214.65194 64.934878 
L 214.90583 74.377629 
L 215.159721 76.625957 
L 215.413611 65.384506 
L 215.667501 82.921125 
L 215.921391 91.014993 
L 216.175282 85.169453 
L 216.429172 73.928002 
L 216.683062 70.330695 
L 216.936952 76.176235 
L 217.190843 86.968059 
L 217.444733 64.934878 
L 217.698623 87.867314 
L 218.206404 55.042405 
L 218.460294 66.283856 
L 218.968074 68.53209 
L 219.221965 77.974935 
L 219.475855 66.733484 
L 219.729745 75.726607 
L 219.983635 61.337572 
L 220.237526 67.632834 
L 220.491416 51.445193 
L 220.745306 72.579024 
L 220.999196 81.122519 
L 221.253087 65.834134 
L 221.506977 68.53209 
L 221.760867 54.592777 
L 222.268648 77.525213 
L 222.522538 78.874191 
L 222.776428 55.042405 
L 223.030318 65.384506 
L 223.284209 62.236922 
L 223.538099 76.625957 
L 223.791989 81.122519 
L 224.045879 68.53209 
L 224.29977 92.363971 
L 224.55366 79.323913 
L 224.80755 75.726607 
L 225.06144 67.632834 
L 225.315331 81.572147 
L 225.569221 70.780418 
L 225.823111 68.082462 
L 226.077001 73.478374 
L 226.330892 73.478374 
L 226.584782 82.471497 
L 226.838672 82.021774 
L 227.092562 67.632834 
L 227.346453 83.820475 
L 227.600343 61.787295 
L 227.854233 71.230046 
L 228.108123 70.780418 
L 228.615904 78.874191 
L 228.869794 64.035528 
L 229.123684 67.632834 
L 229.377575 86.068708 
L 229.885355 55.042405 
L 230.139245 75.726607 
L 230.393136 73.928002 
L 230.647026 65.384506 
L 230.900916 92.363971 
L 231.154807 63.5859 
L 231.408697 68.53209 
L 231.662587 78.874191 
L 231.916477 82.921125 
L 232.170368 68.082462 
L 232.932038 83.820475 
L 233.185929 74.827352 
L 233.439819 76.176235 
L 233.693709 68.981812 
L 233.947599 74.827352 
L 234.20149 73.928002 
L 234.45538 58.639616 
L 234.70927 70.330695 
L 234.96316 70.330695 
L 235.217051 55.492032 
L 235.470941 81.122519 
L 235.724831 77.075585 
L 235.978721 78.874191 
L 236.232612 69.881068 
L 236.486502 73.028651 
L 236.740392 84.71973 
L 236.994282 64.485156 
L 237.248173 74.377629 
L 237.755953 77.525213 
L 238.263734 60.887944 
L 238.517624 66.733484 
L 238.771514 54.143054 
L 239.025404 73.478374 
L 239.279295 77.525213 
L 239.533185 64.485156 
L 239.787075 92.813598 
L 240.040965 81.572147 
L 240.294856 59.988594 
L 240.548746 68.53209 
L 240.802636 72.579024 
L 241.056526 82.921125 
L 241.564307 68.082462 
L 241.818197 91.014993 
L 242.072087 62.236922 
L 242.325978 80.223169 
L 242.579868 70.780418 
L 242.833758 72.579024 
L 243.087648 67.183112 
L 243.341539 73.478374 
L 243.595429 59.538966 
L 243.849319 79.773541 
L 244.3571 55.941755 
L 244.61099 79.323913 
L 244.86488 82.921125 
L 245.11877 62.236922 
L 245.372661 69.43144 
L 245.626551 80.672891 
L 245.880441 74.377629 
L 246.134331 64.934878 
L 246.388222 66.283856 
L 246.642112 70.330695 
L 246.896002 68.53209 
L 247.149893 85.169453 
L 247.403783 84.71973 
L 247.911563 57.290733 
L 248.165454 75.27698 
L 248.419344 67.183112 
L 248.673234 66.283856 
L 248.927124 58.189988 
L 249.181015 89.666015 
L 249.688795 75.27698 
L 249.942685 58.639616 
L 250.196576 86.968059 
L 250.450466 60.887944 
L 250.704356 46.948632 
L 250.958246 78.424563 
L 251.212137 71.679673 
L 251.466027 75.27698 
L 252.227698 66.733484 
L 252.481588 72.129396 
L 252.735478 88.766664 
L 252.989368 67.632834 
L 253.243259 96.860532 
L 253.751039 72.129396 
L 254.004929 69.43144 
L 254.25882 79.323913 
L 254.51271 59.089339 
L 254.7666 75.726607 
L 255.02049 75.27698 
L 255.528271 69.881068 
L 255.782161 75.726607 
L 256.036051 87.867314 
L 256.289942 83.370752 
L 256.543832 60.438317 
L 256.797722 85.619081 
L 257.051612 67.183112 
L 257.305503 78.874191 
L 257.559393 78.424563 
L 257.813283 73.028651 
L 258.067173 77.525213 
L 258.321064 68.53209 
L 258.574954 68.53209 
L 258.828844 72.579024 
L 259.082734 69.43144 
L 259.336625 75.27698 
L 259.590515 72.129396 
L 259.844405 64.934878 
L 260.098295 82.021774 
L 260.352186 64.934878 
L 260.859966 77.075585 
L 261.113856 70.330695 
L 261.367747 69.43144 
L 261.621637 63.136273 
L 261.875527 75.726607 
L 262.129417 60.887944 
L 262.383308 76.176235 
L 262.637198 77.974935 
L 262.891088 82.471497 
L 263.144979 64.035528 
L 263.398869 61.787295 
L 263.652759 85.169453 
L 263.906649 78.424563 
L 264.16054 75.726607 
L 264.41443 94.162576 
L 264.92221 68.981812 
L 265.176101 75.726607 
L 265.429991 74.827352 
L 265.937771 63.136273 
L 266.191662 74.827352 
L 266.445552 67.632834 
L 266.699442 73.028651 
L 266.953332 66.283856 
L 267.207223 54.143054 
L 267.461113 76.625957 
L 267.715003 64.934878 
L 267.968893 66.733484 
L 268.222784 80.672891 
L 268.476674 65.834134 
L 268.730564 80.223169 
L 269.238345 65.834134 
L 269.492235 63.5859 
L 269.746125 72.579024 
L 270.000015 73.928002 
L 270.253906 67.632834 
L 270.507796 57.740361 
L 270.761686 58.189988 
L 271.015576 73.478374 
L 271.269467 73.028651 
L 271.523357 67.632834 
L 271.777247 83.820475 
L 272.031137 76.625957 
L 272.285028 63.5859 
L 272.538918 72.579024 
L 272.792808 64.035528 
L 273.300589 79.773541 
L 273.554479 81.122519 
L 273.808369 74.827352 
L 274.062259 73.928002 
L 274.31615 80.223169 
L 274.57004 80.223169 
L 274.82393 63.5859 
L 275.07782 59.538966 
L 275.331711 63.5859 
L 275.585601 75.726607 
L 275.839491 57.740361 
L 276.093381 65.384506 
L 276.347272 88.317037 
L 276.601162 71.679673 
L 276.855052 75.726607 
L 277.108942 63.5859 
L 277.362833 73.478374 
L 277.616723 60.438317 
L 277.870613 75.726607 
L 278.124503 77.075585 
L 278.632284 63.136273 
L 278.886174 75.726607 
L 279.140064 81.122519 
L 279.393955 68.53209 
L 279.647845 69.43144 
L 279.901735 64.934878 
L 280.155626 71.230046 
L 280.409516 73.028651 
L 280.663406 83.820475 
L 280.917296 87.417686 
L 281.171187 71.679673 
L 281.425077 82.471497 
L 281.678967 79.773541 
L 282.186748 66.283856 
L 282.440638 68.53209 
L 282.694528 63.136273 
L 282.948418 60.438317 
L 283.202309 76.176235 
L 283.456199 57.740361 
L 283.710089 82.471497 
L 283.963979 63.136273 
L 284.21787 75.27698 
L 284.47176 73.478374 
L 284.72565 75.27698 
L 284.97954 78.874191 
L 285.233431 63.136273 
L 285.487321 73.478374 
L 285.741211 70.780418 
L 285.995101 73.928002 
L 286.248992 80.672891 
L 286.502882 83.820475 
L 287.264553 60.438317 
L 287.518443 59.089339 
L 287.772333 84.71973 
L 288.026223 64.485156 
L 288.280114 66.733484 
L 288.534004 65.834134 
L 288.787894 75.726607 
L 289.041784 66.733484 
L 289.295675 73.028651 
L 289.549565 66.283856 
L 290.057345 88.766664 
L 290.565126 62.68655 
L 290.819016 68.53209 
L 291.072906 99.108766 
L 291.326797 72.129396 
L 291.580687 73.028651 
L 291.834577 67.632834 
L 292.088467 56.391383 
L 292.342358 93.263226 
L 292.596248 74.377629 
L 292.850138 84.71973 
L 293.104028 79.323913 
L 293.357919 67.183112 
L 293.611809 69.881068 
L 293.865699 65.384506 
L 294.119589 67.183112 
L 294.37348 71.230046 
L 294.62737 71.230046 
L 294.88126 63.5859 
L 295.13515 68.53209 
L 295.389041 69.881068 
L 295.642931 68.981812 
L 295.896821 82.021774 
L 296.150712 74.827352 
L 296.404602 88.766664 
L 296.658492 71.679673 
L 297.166273 86.518431 
L 297.420163 59.988594 
L 297.674053 68.981812 
L 297.927943 69.881068 
L 298.181834 75.27698 
L 298.435724 73.478374 
L 298.689614 77.075585 
L 299.197395 61.337572 
L 299.451285 83.370752 
L 299.705175 68.53209 
L 299.959065 77.974935 
L 300.212956 57.740361 
L 300.720736 62.68655 
L 301.228517 72.579024 
L 301.482407 81.122519 
L 301.736297 73.478374 
L 301.990187 71.230046 
L 302.244078 61.787295 
L 302.497968 78.424563 
L 302.751858 82.021774 
L 303.005748 72.579024 
L 303.259639 77.525213 
L 303.513529 65.384506 
L 303.767419 75.27698 
L 304.021309 73.028651 
L 304.2752 91.914248 
L 304.52909 93.263226 
L 304.78298 69.881068 
L 305.03687 63.136273 
L 305.290761 59.988594 
L 305.544651 70.780418 
L 305.798541 71.230046 
L 306.052431 60.438317 
L 306.306322 80.672891 
L 306.560212 62.236922 
L 306.814102 80.672891 
L 307.067992 86.968059 
L 307.321883 75.726607 
L 307.575773 75.726607 
L 307.829663 75.27698 
L 308.083553 72.579024 
L 308.337444 76.625957 
L 308.591334 66.733484 
L 308.845224 70.330695 
L 309.099114 68.082462 
L 309.353005 70.780418 
L 309.606895 63.5859 
L 309.860785 76.176235 
L 310.114675 72.129396 
L 310.368566 80.223169 
L 310.622456 56.84101 
L 310.876346 66.733484 
L 311.130236 53.243799 
L 311.384127 60.438317 
L 311.638017 77.075585 
L 311.891907 79.323913 
L 312.145798 77.075585 
L 312.399688 77.075585 
L 312.653578 92.363971 
L 312.907468 84.270103 
L 313.161359 80.223169 
L 313.415249 85.619081 
L 313.669139 67.632834 
L 313.923029 65.834134 
L 314.17692 65.834134 
L 314.43081 88.766664 
L 314.6847 74.827352 
L 314.93859 73.028651 
L 315.192481 73.478374 
L 315.446371 74.377629 
L 315.700261 65.384506 
L 315.954151 73.478374 
L 316.208042 68.53209 
L 316.461932 70.780418 
L 316.461932 70.780418 
" clip-path="url(#p9773801973)" style="fill: none; stroke: #0000ff; stroke-width: 0.6; stroke-linecap: square"/>
   </g>
   <g id="line2d_26">
    <path d="M 62.825568 196.989027 
L 63.079458 219.018026 
L 63.333349 180.205019 
L 63.587239 178.106947 
L 63.841129 181.25396 
L 64.095019 215.871108 
L 64.34891 216.920049 
L 64.6028 230.557091 
L 64.85669 183.352032 
L 65.11058 184.400974 
L 65.364471 166.567929 
L 65.618361 210.626022 
L 65.872251 215.871108 
L 66.126141 156.077948 
L 66.380032 190.695 
L 66.633922 194.89105 
L 66.887812 205.381031 
L 67.141702 162.371975 
L 67.903373 207.479008 
L 68.411154 156.077948 
L 68.665044 204.331995 
L 68.918934 183.352032 
L 69.172825 187.547987 
L 69.426715 182.302996 
L 69.680605 170.763979 
L 69.934495 144.538931 
L 70.188386 200.136041 
L 70.442276 223.214075 
L 70.696166 161.322939 
L 70.950056 158.175925 
L 71.203947 146.636908 
L 71.711727 203.283054 
L 72.219508 121.460896 
L 72.473398 173.910992 
L 72.727288 120.411859 
L 72.981178 142.440953 
L 73.235069 214.822071 
L 73.488959 204.331995 
L 73.742849 109.921878 
L 73.996739 108.872842 
L 74.25063 179.155983 
L 74.50452 194.89105 
L 74.75841 148.734885 
L 75.0123 167.616965 
L 75.266191 196.989027 
L 75.520081 159.224961 
L 75.773971 157.126984 
L 76.027861 161.322939 
L 76.281752 157.126984 
L 76.535642 159.224961 
L 76.789532 169.714943 
L 77.043422 152.930935 
L 77.297313 146.636908 
L 77.551203 156.077948 
L 77.805093 143.489894 
L 78.058983 150.832957 
L 78.312874 121.460896 
L 78.566764 120.411859 
L 79.074544 150.832957 
L 79.328435 149.783921 
L 79.836215 155.028912 
L 80.090105 173.910992 
L 80.343996 152.930935 
L 80.597886 164.469952 
L 80.851776 153.979971 
L 81.105666 158.175925 
L 81.359557 149.783921 
L 81.613447 150.832957 
L 81.867337 160.273903 
L 82.121227 160.273903 
L 82.375118 141.391917 
L 82.629008 145.587872 
L 82.882898 136.146926 
L 83.136788 156.077948 
L 83.390679 156.077948 
L 83.644569 207.479008 
L 83.898459 195.939991 
L 84.15235 155.028912 
L 84.40624 142.440953 
L 84.66013 141.391917 
L 84.91402 192.792978 
L 85.421801 102.578815 
L 85.675691 115.166869 
L 85.929581 171.813015 
L 86.183472 202.234018 
L 86.437362 162.371975 
L 86.691252 204.331995 
L 87.199033 119.362823 
L 87.452923 114.117833 
L 87.706813 169.714943 
L 87.960703 142.440953 
L 88.214594 152.930935 
L 88.468484 148.734885 
L 88.722374 141.391917 
L 88.976264 109.921878 
L 89.230155 172.861956 
L 89.484045 199.087004 
L 89.737935 116.215905 
L 89.991825 105.725829 
L 90.245716 150.832957 
L 90.499606 144.538931 
L 90.753496 146.636908 
L 91.007386 152.930935 
L 91.261277 153.979971 
L 91.769057 141.391917 
L 92.022947 141.391917 
L 92.276838 161.322939 
L 93.038508 124.607909 
L 93.292399 179.155983 
L 93.546289 123.558873 
L 93.800179 112.019855 
L 94.30796 119.362823 
L 94.56185 128.803864 
L 94.81574 186.499046 
L 95.06963 150.832957 
L 95.323521 167.616965 
L 95.577411 121.460896 
L 95.831301 124.607909 
L 96.085191 119.362823 
L 96.339082 151.881898 
L 96.592972 168.666002 
L 96.846862 117.264846 
L 97.100752 104.676792 
L 97.354643 155.028912 
L 97.608533 149.783921 
L 97.862423 151.881898 
L 98.116313 163.420916 
L 98.370204 140.342881 
L 98.624094 156.077948 
L 98.877984 142.440953 
L 99.131874 143.489894 
L 99.385765 116.215905 
L 99.639655 144.538931 
L 99.893545 138.244904 
L 100.147436 156.077948 
L 100.401326 156.077948 
L 100.655216 155.028912 
L 100.909106 142.440953 
L 101.162997 147.685944 
L 101.416887 168.666002 
L 101.670777 148.734885 
L 101.924667 152.930935 
L 102.178558 147.685944 
L 102.432448 146.636908 
L 102.686338 152.930935 
L 102.940228 149.783921 
L 103.194119 150.832957 
L 103.448009 136.146926 
L 103.701899 157.126984 
L 103.955789 163.420916 
L 104.20968 147.685944 
L 104.46357 148.734885 
L 104.71746 153.979971 
L 104.97135 151.881898 
L 105.225241 138.244904 
L 105.733021 161.322939 
L 105.986911 146.636908 
L 106.240802 151.881898 
L 106.494692 146.636908 
L 106.748582 150.832957 
L 107.002472 166.567929 
L 107.256363 167.616965 
L 107.510253 141.391917 
L 107.764143 159.224961 
L 108.018033 157.126984 
L 108.271924 164.469952 
L 108.525814 142.440953 
L 108.779704 151.881898 
L 109.033594 146.636908 
L 109.287485 156.077948 
L 109.541375 156.077948 
L 110.049155 146.636908 
L 110.303046 170.763979 
L 110.810826 148.734885 
L 111.064716 147.685944 
L 111.318607 140.342881 
L 111.572497 155.028912 
L 111.826387 162.371975 
L 112.080277 165.518988 
L 112.334168 164.469952 
L 112.588058 145.587872 
L 112.841948 156.077948 
L 113.095838 148.734885 
L 113.349729 157.126984 
L 113.603619 160.273903 
L 114.111399 140.342881 
L 114.36529 171.813015 
L 114.61918 144.538931 
L 114.87307 140.342881 
L 115.12696 145.587872 
L 115.380851 140.342881 
L 115.634741 153.979971 
L 115.888631 147.685944 
L 116.396412 153.979971 
L 116.650302 140.342881 
L 116.904192 155.028912 
L 117.158083 157.126984 
L 117.411973 145.587872 
L 117.665863 150.832957 
L 117.919753 151.881898 
L 118.173644 153.979971 
L 118.427534 151.881898 
L 118.681424 135.09789 
L 118.935314 153.979971 
L 119.189205 152.930935 
L 119.443095 146.636908 
L 119.696985 148.734885 
L 119.950875 151.881898 
L 120.204766 144.538931 
L 120.458656 162.371975 
L 120.712546 148.734885 
L 120.966436 161.322939 
L 121.220327 115.166869 
L 121.474217 107.823806 
L 121.728107 162.371975 
L 121.981997 153.979971 
L 122.235888 153.979971 
L 122.489778 181.25396 
L 122.743668 152.930935 
L 122.997558 153.979971 
L 123.251449 144.538931 
L 123.759229 153.979971 
L 124.013119 102.578815 
L 124.26701 167.616965 
L 124.5209 140.342881 
L 124.77479 142.440953 
L 125.02868 106.774865 
L 125.282571 103.627851 
L 125.536461 155.028912 
L 125.790351 121.460896 
L 126.044241 150.832957 
L 126.298132 151.881898 
L 126.552022 140.342881 
L 126.805912 143.489894 
L 127.059802 143.489894 
L 127.313693 142.440953 
L 127.567583 144.538931 
L 127.821473 152.930935 
L 128.075363 113.068892 
L 128.329254 159.224961 
L 128.583144 113.068892 
L 129.090924 181.25396 
L 129.344815 138.244904 
L 129.598705 151.881898 
L 130.106485 141.391917 
L 130.360376 101.529874 
L 130.614266 159.224961 
L 130.868156 147.685944 
L 131.122046 156.077948 
L 131.375937 147.685944 
L 131.629827 171.813015 
L 132.137607 151.881898 
L 132.391498 101.529874 
L 132.645388 155.028912 
L 132.899278 139.29394 
L 133.153169 108.872842 
L 133.407059 113.068892 
L 133.660949 142.440953 
L 134.16873 157.126984 
L 134.42262 159.224961 
L 134.67651 99.431802 
L 134.9304 94.186811 
L 135.184291 102.578815 
L 135.438181 125.65685 
L 135.692071 105.725829 
L 135.945961 146.636908 
L 136.199852 96.284788 
L 136.707632 147.685944 
L 136.961522 105.725829 
L 137.215413 156.077948 
L 137.723193 151.881898 
L 137.977083 142.440953 
L 138.230974 100.480838 
L 138.484864 155.028912 
L 138.738754 112.019855 
L 138.992644 97.333825 
L 139.246535 100.480838 
L 139.500425 94.186811 
L 139.754315 110.970819 
L 140.008205 106.774865 
L 140.262096 94.186811 
L 140.515986 107.823806 
L 140.769876 113.068892 
L 141.023766 101.529874 
L 141.277657 101.529874 
L 141.531547 115.166869 
L 141.785437 113.068892 
L 142.039327 118.313882 
L 142.547108 146.636908 
L 142.800998 151.881898 
L 143.054888 144.538931 
L 143.308779 161.322939 
L 143.562669 142.440953 
L 143.816559 151.881898 
L 144.070449 147.685944 
L 144.32434 152.930935 
L 144.57823 146.636908 
L 144.83212 104.676792 
L 145.08601 110.970819 
L 145.339901 166.567929 
L 145.593791 167.616965 
L 145.847681 99.431802 
L 146.101571 164.469952 
L 146.355462 121.460896 
L 146.609352 108.872842 
L 146.863242 150.832957 
L 147.117132 137.195868 
L 147.371023 187.547987 
L 147.624913 128.803864 
L 147.878803 143.489894 
L 148.132693 146.636908 
L 148.386584 106.774865 
L 148.640474 100.480838 
L 148.894364 135.09789 
L 149.402145 115.166869 
L 149.656035 145.587872 
L 149.909925 146.636908 
L 150.163816 144.538931 
L 150.417706 135.09789 
L 150.671596 141.391917 
L 150.925486 144.538931 
L 151.179377 149.783921 
L 151.433267 148.734885 
L 151.687157 141.391917 
L 151.941047 146.636908 
L 152.194938 148.734885 
L 152.448828 148.734885 
L 152.702718 150.832957 
L 153.210499 161.322939 
L 153.464389 150.832957 
L 153.718279 149.783921 
L 153.972169 149.783921 
L 154.22606 150.832957 
L 154.47995 112.019855 
L 154.73384 127.754922 
L 154.98773 109.921878 
L 155.241621 144.538931 
L 155.495511 149.783921 
L 155.749401 134.048854 
L 156.003291 152.930935 
L 156.511072 110.970819 
L 156.764962 150.832957 
L 157.018852 161.322939 
L 157.272743 151.881898 
L 157.526633 136.146926 
L 157.780523 151.881898 
L 158.034413 138.244904 
L 158.288304 135.09789 
L 158.542194 143.489894 
L 158.796084 135.09789 
L 159.049974 132.999913 
L 159.557755 152.930935 
L 159.811645 146.636908 
L 160.065535 147.685944 
L 160.319426 136.146926 
L 160.573316 152.930935 
L 160.827206 141.391917 
L 161.081096 146.636908 
L 161.334987 146.636908 
L 161.588877 144.538931 
L 161.842767 156.077948 
L 162.096657 158.175925 
L 162.350548 150.832957 
L 162.604438 158.175925 
L 162.858328 152.930935 
L 163.112218 152.930935 
L 163.366109 145.587872 
L 163.619999 155.028912 
L 163.873889 140.342881 
L 164.127779 159.224961 
L 164.38167 135.09789 
L 164.63556 143.489894 
L 164.88945 145.587872 
L 165.14334 149.783921 
L 165.397231 167.616965 
L 165.651121 147.685944 
L 165.905011 147.685944 
L 166.158902 142.440953 
L 166.412792 150.832957 
L 166.666682 155.028912 
L 166.920572 135.09789 
L 167.174463 150.832957 
L 167.428353 150.832957 
L 167.682243 165.518988 
L 167.936133 147.685944 
L 168.190024 146.636908 
L 168.443914 204.331995 
L 168.697804 145.587872 
L 168.951694 162.371975 
L 169.205585 162.371975 
L 169.459475 152.930935 
L 169.713365 151.881898 
L 169.967255 145.587872 
L 170.221146 151.881898 
L 170.475036 153.979971 
L 170.728926 140.342881 
L 170.982816 139.29394 
L 171.236707 162.371975 
L 171.744487 136.146926 
L 171.998377 155.028912 
L 172.252268 143.489894 
L 172.506158 144.538931 
L 172.760048 157.126984 
L 173.013938 148.734885 
L 173.267829 150.832957 
L 173.521719 149.783921 
L 173.775609 152.930935 
L 174.029499 146.636908 
L 174.28339 144.538931 
L 174.53728 143.489894 
L 174.79117 169.714943 
L 175.04506 162.371975 
L 175.552841 136.146926 
L 175.806731 155.028912 
L 176.060621 162.371975 
L 176.314512 178.106947 
L 176.568402 140.342881 
L 176.822292 150.832957 
L 177.076182 167.616965 
L 177.330073 145.587872 
L 177.583963 140.342881 
L 177.837853 153.979971 
L 178.091743 138.244904 
L 178.345634 144.538931 
L 178.599524 108.872842 
L 178.853414 148.734885 
L 179.107304 142.440953 
L 179.361195 156.077948 
L 179.615085 144.538931 
L 179.868975 150.832957 
L 180.122865 129.8529 
L 180.376756 151.881898 
L 180.630646 212.724094 
L 180.884536 118.313882 
L 181.138426 145.587872 
L 181.646207 158.175925 
L 181.900097 178.106947 
L 182.153988 137.195868 
L 182.407878 159.224961 
L 182.915658 129.8529 
L 183.169549 152.930935 
L 183.423439 146.636908 
L 183.677329 144.538931 
L 184.18511 150.832957 
L 184.439 158.175925 
L 184.69289 138.244904 
L 185.200671 163.420916 
L 185.454561 140.342881 
L 185.708451 151.881898 
L 185.962341 143.489894 
L 186.216232 147.685944 
L 186.470122 153.979971 
L 186.724012 169.714943 
L 186.977902 144.538931 
L 187.231793 135.09789 
L 187.485683 140.342881 
L 187.739573 141.391917 
L 187.993463 149.783921 
L 188.247354 143.489894 
L 188.501244 149.783921 
L 188.755134 161.322939 
L 189.009024 143.489894 
L 189.262915 172.861956 
L 189.516805 152.930935 
L 189.770695 157.126984 
L 190.024585 147.685944 
L 190.278476 153.979971 
L 190.532366 141.391917 
L 190.786256 147.685944 
L 191.040146 144.538931 
L 191.294037 183.352032 
L 191.547927 151.881898 
L 191.801817 146.636908 
L 192.055707 145.587872 
L 192.309598 152.930935 
L 192.563488 142.440953 
L 192.817378 141.391917 
L 193.071268 166.567929 
L 193.325159 134.048854 
L 193.579049 132.999913 
L 193.832939 134.048854 
L 194.086829 157.126984 
L 194.34072 140.342881 
L 194.59461 136.146926 
L 194.8485 142.440953 
L 195.10239 125.65685 
L 195.356281 146.636908 
L 195.610171 145.587872 
L 195.864061 137.195868 
L 196.117951 155.028912 
L 196.371842 149.783921 
L 196.625732 139.29394 
L 196.879622 155.028912 
L 197.133512 146.636908 
L 197.387403 131.950877 
L 197.895183 150.832957 
L 198.149074 143.489894 
L 198.402964 145.587872 
L 198.656854 140.342881 
L 198.910744 153.979971 
L 199.164635 140.342881 
L 199.418525 143.489894 
L 199.672415 156.077948 
L 199.926305 153.979971 
L 200.180196 156.077948 
L 200.434086 169.714943 
L 200.687976 136.146926 
L 200.941866 145.587872 
L 201.195757 146.636908 
L 201.449647 149.783921 
L 201.703537 148.734885 
L 201.957427 150.832957 
L 202.211318 131.950877 
L 202.465208 167.616965 
L 202.972988 139.29394 
L 203.226879 151.881898 
L 203.480769 143.489894 
L 203.734659 156.077948 
L 203.988549 143.489894 
L 204.24244 138.244904 
L 204.49633 139.29394 
L 204.75022 148.734885 
L 205.00411 144.538931 
L 205.258001 161.322939 
L 205.511891 143.489894 
L 205.765781 153.979971 
L 206.019671 158.175925 
L 206.273562 149.783921 
L 206.781342 142.440953 
L 207.289123 157.126984 
L 207.543013 134.048854 
L 207.796903 167.616965 
L 208.050793 135.09789 
L 208.304684 160.273903 
L 208.558574 145.587872 
L 208.812464 153.979971 
L 209.066354 132.999913 
L 209.320245 148.734885 
L 209.574135 136.146926 
L 209.828025 160.273903 
L 210.081915 140.342881 
L 210.335806 156.077948 
L 210.589696 147.685944 
L 210.843586 158.175925 
L 211.097476 142.440953 
L 211.351367 157.126984 
L 211.605257 137.195868 
L 211.859147 147.685944 
L 212.113037 151.881898 
L 212.366928 152.930935 
L 212.620818 144.538931 
L 213.128598 144.538931 
L 213.382489 142.440953 
L 213.636379 147.685944 
L 213.890269 142.440953 
L 214.14416 158.175925 
L 214.39805 158.175925 
L 214.65194 149.783921 
L 214.90583 146.636908 
L 215.159721 152.930935 
L 215.413611 138.244904 
L 215.667501 146.636908 
L 215.921391 147.685944 
L 216.175282 136.146926 
L 216.429172 147.685944 
L 216.683062 151.881898 
L 216.936952 149.783921 
L 217.190843 161.322939 
L 217.444733 148.734885 
L 217.698623 142.440953 
L 217.952513 141.391917 
L 218.206404 150.832957 
L 218.714184 141.391917 
L 218.968074 146.636908 
L 219.221965 159.224961 
L 219.475855 134.048854 
L 219.729745 162.371975 
L 219.983635 139.29394 
L 220.237526 135.09789 
L 220.745306 164.469952 
L 221.253087 144.538931 
L 221.506977 144.538931 
L 221.760867 142.440953 
L 222.014757 148.734885 
L 222.268648 146.636908 
L 222.776428 151.881898 
L 223.030318 150.832957 
L 223.284209 135.09789 
L 223.538099 152.930935 
L 223.791989 150.832957 
L 224.045879 143.489894 
L 224.29977 145.587872 
L 224.55366 158.175925 
L 224.80755 137.195868 
L 225.06144 131.950877 
L 225.315331 159.224961 
L 225.569221 144.538931 
L 225.823111 153.979971 
L 226.077001 168.666002 
L 226.330892 168.666002 
L 226.584782 142.440953 
L 226.838672 152.930935 
L 227.092562 156.077948 
L 227.346453 141.391917 
L 227.600343 143.489894 
L 228.108123 158.175925 
L 228.362014 145.587872 
L 228.615904 142.440953 
L 228.869794 135.09789 
L 229.123684 158.175925 
L 229.377575 151.881898 
L 229.631465 135.09789 
L 229.885355 150.832957 
L 230.139245 144.538931 
L 230.393136 156.077948 
L 230.647026 148.734885 
L 230.900916 108.872842 
L 231.154807 144.538931 
L 231.408697 137.195868 
L 231.662587 106.774865 
L 231.916477 146.636908 
L 232.170368 155.028912 
L 232.424258 145.587872 
L 232.678148 148.734885 
L 232.932038 128.803864 
L 233.439819 146.636908 
L 233.693709 136.146926 
L 233.947599 144.538931 
L 234.20149 137.195868 
L 234.45538 191.744037 
L 234.70927 147.685944 
L 234.96316 150.832957 
L 235.217051 167.616965 
L 235.470941 143.489894 
L 235.724831 152.930935 
L 235.978721 144.538931 
L 236.232612 157.126984 
L 236.486502 156.077948 
L 236.740392 143.489894 
L 236.994282 146.636908 
L 237.248173 142.440953 
L 237.502063 149.783921 
L 237.755953 139.29394 
L 238.009843 149.783921 
L 238.263734 147.685944 
L 238.517624 160.273903 
L 238.771514 155.028912 
L 239.025404 152.930935 
L 239.279295 149.783921 
L 239.533185 144.538931 
L 239.787075 135.09789 
L 240.040965 152.930935 
L 240.294856 157.126984 
L 241.056526 143.489894 
L 241.310417 152.930935 
L 241.564307 132.999913 
L 241.818197 143.489894 
L 242.072087 145.587872 
L 242.325978 148.734885 
L 242.579868 148.734885 
L 242.833758 144.538931 
L 243.087648 167.616965 
L 243.595429 139.29394 
L 243.849319 138.244904 
L 244.103209 140.342881 
L 244.3571 138.244904 
L 244.61099 147.685944 
L 244.86488 146.636908 
L 245.11877 142.440953 
L 245.372661 150.832957 
L 245.880441 139.29394 
L 246.134331 127.754922 
L 246.388222 146.636908 
L 246.642112 145.587872 
L 246.896002 134.048854 
L 247.149893 141.391917 
L 247.403783 155.028912 
L 247.657673 155.028912 
L 247.911563 156.077948 
L 248.165454 145.587872 
L 248.419344 169.714943 
L 248.673234 138.244904 
L 248.927124 156.077948 
L 249.181015 162.371975 
L 249.434905 146.636908 
L 249.688795 181.25396 
L 249.942685 130.901841 
L 250.196576 123.558873 
L 250.450466 148.734885 
L 250.958246 123.558873 
L 251.212137 139.29394 
L 251.466027 146.636908 
L 251.973807 144.538931 
L 252.227698 170.763979 
L 252.481588 145.587872 
L 252.735478 141.391917 
L 252.989368 155.028912 
L 253.243259 150.832957 
L 253.497149 158.175925 
L 253.751039 148.734885 
L 254.004929 127.754922 
L 254.51271 147.685944 
L 254.7666 142.440953 
L 255.02049 140.342881 
L 255.274381 159.224961 
L 255.528271 140.342881 
L 255.782161 147.685944 
L 256.036051 141.391917 
L 256.289942 151.881898 
L 256.543832 143.489894 
L 256.797722 168.666002 
L 257.051612 148.734885 
L 257.305503 152.930935 
L 257.559393 150.832957 
L 257.813283 150.832957 
L 258.067173 148.734885 
L 258.321064 155.028912 
L 258.574954 136.146926 
L 258.828844 142.440953 
L 259.082734 151.881898 
L 259.336625 149.783921 
L 259.844405 130.901841 
L 260.098295 147.685944 
L 260.352186 153.979971 
L 260.606076 138.244904 
L 260.859966 147.685944 
L 261.113856 136.146926 
L 261.367747 146.636908 
L 261.621637 134.048854 
L 261.875527 136.146926 
L 262.129417 156.077948 
L 262.383308 157.126984 
L 262.637198 128.803864 
L 262.891088 142.440953 
L 263.144979 142.440953 
L 263.398869 149.783921 
L 263.652759 150.832957 
L 263.906649 148.734885 
L 264.16054 141.391917 
L 264.41443 151.881898 
L 264.66832 156.077948 
L 264.92221 142.440953 
L 265.176101 155.028912 
L 265.429991 136.146926 
L 265.683881 157.126984 
L 265.937771 145.587872 
L 266.191662 143.489894 
L 266.445552 148.734885 
L 266.699442 145.587872 
L 266.953332 148.734885 
L 267.207223 156.077948 
L 267.461113 145.587872 
L 267.715003 143.489894 
L 267.968893 136.146926 
L 268.476674 143.489894 
L 268.730564 129.8529 
L 269.238345 146.636908 
L 269.492235 157.126984 
L 269.746125 143.489894 
L 270.000015 144.538931 
L 270.253906 151.881898 
L 270.761686 135.09789 
L 271.015576 132.999913 
L 271.523357 155.028912 
L 271.777247 149.783921 
L 272.031137 137.195868 
L 272.538918 161.322939 
L 272.792808 155.028912 
L 273.046698 155.028912 
L 273.300589 147.685944 
L 273.554479 157.126984 
L 274.062259 144.538931 
L 274.31615 155.028912 
L 274.57004 145.587872 
L 274.82393 140.342881 
L 275.07782 149.783921 
L 275.331711 140.342881 
L 275.585601 186.499046 
L 275.839491 135.09789 
L 276.093381 149.783921 
L 276.347272 152.930935 
L 276.601162 142.440953 
L 276.855052 139.29394 
L 277.108942 146.636908 
L 277.362833 135.09789 
L 277.616723 157.126984 
L 277.870613 155.028912 
L 278.124503 145.587872 
L 278.632284 158.175925 
L 278.886174 128.803864 
L 279.140064 146.636908 
L 279.393955 151.881898 
L 279.647845 184.400974 
L 279.901735 156.077948 
L 280.155626 143.489894 
L 280.409516 151.881898 
L 280.663406 142.440953 
L 280.917296 167.616965 
L 281.171187 141.391917 
L 281.425077 141.391917 
L 281.932857 156.077948 
L 282.694528 126.705886 
L 282.948418 144.538931 
L 283.202309 152.930935 
L 283.456199 141.391917 
L 283.710089 138.244904 
L 283.963979 139.29394 
L 284.21787 145.587872 
L 284.47176 142.440953 
L 284.72565 162.371975 
L 284.97954 153.979971 
L 285.233431 155.028912 
L 285.487321 141.391917 
L 285.741211 153.979971 
L 286.248992 146.636908 
L 286.502882 135.09789 
L 286.756772 164.469952 
L 287.010662 150.832957 
L 287.518443 138.244904 
L 287.772333 143.489894 
L 288.026223 155.028912 
L 288.280114 147.685944 
L 288.534004 150.832957 
L 288.787894 165.518988 
L 289.041784 134.048854 
L 289.295675 191.744037 
L 289.549565 149.783921 
L 289.803455 137.195868 
L 290.057345 151.881898 
L 290.311236 156.077948 
L 290.565126 153.979971 
L 291.072906 171.813015 
L 291.326797 141.391917 
L 291.580687 169.714943 
L 292.088467 138.244904 
L 292.342358 159.224961 
L 292.596248 164.469952 
L 292.850138 142.440953 
L 293.104028 143.489894 
L 293.357919 141.391917 
L 293.611809 155.028912 
L 294.119589 137.195868 
L 294.62737 158.175925 
L 294.88126 161.322939 
L 295.13515 136.146926 
L 295.389041 130.901841 
L 295.642931 150.832957 
L 296.150712 139.29394 
L 296.404602 147.685944 
L 296.658492 136.146926 
L 296.912382 161.322939 
L 297.166273 140.342881 
L 297.420163 150.832957 
L 297.674053 141.391917 
L 297.927943 139.29394 
L 298.181834 138.244904 
L 298.435724 155.028912 
L 298.689614 142.440953 
L 298.943504 156.077948 
L 299.197395 158.175925 
L 299.451285 142.440953 
L 299.705175 150.832957 
L 299.959065 138.244904 
L 300.212956 141.391917 
L 300.466846 136.146926 
L 300.720736 144.538931 
L 300.974626 141.391917 
L 301.228517 153.979971 
L 301.482407 143.489894 
L 301.736297 145.587872 
L 302.244078 145.587872 
L 302.497968 147.685944 
L 302.751858 143.489894 
L 303.005748 156.077948 
L 303.259639 161.322939 
L 303.513529 141.391917 
L 303.767419 156.077948 
L 304.021309 150.832957 
L 304.2752 138.244904 
L 304.52909 155.028912 
L 305.03687 140.342881 
L 305.290761 139.29394 
L 305.544651 160.273903 
L 305.798541 152.930935 
L 306.052431 139.29394 
L 306.306322 132.999913 
L 306.560212 143.489894 
L 306.814102 129.8529 
L 307.321883 155.028912 
L 307.575773 140.342881 
L 307.829663 166.567929 
L 308.083553 149.783921 
L 308.337444 143.489894 
L 308.591334 167.616965 
L 308.845224 138.244904 
L 309.099114 141.391917 
L 309.353005 150.832957 
L 309.606895 148.734885 
L 309.860785 148.734885 
L 310.114675 149.783921 
L 310.368566 130.901841 
L 310.622456 140.342881 
L 310.876346 135.09789 
L 311.130236 137.195868 
L 311.384127 140.342881 
L 311.638017 132.999913 
L 311.891907 151.881898 
L 312.399688 160.273903 
L 312.653578 156.077948 
L 312.907468 143.489894 
L 313.161359 147.685944 
L 313.415249 155.028912 
L 313.669139 147.685944 
L 313.923029 145.587872 
L 314.17692 149.783921 
L 314.43081 136.146926 
L 314.6847 158.175925 
L 314.93859 145.587872 
L 315.192481 143.489894 
L 315.446371 148.734885 
L 315.700261 140.342881 
L 315.954151 140.342881 
L 316.208042 148.734885 
L 316.461932 145.587872 
L 316.461932 145.587872 
" clip-path="url(#p9773801973)" style="fill: none; stroke: #ff0000; stroke-width: 0.6; stroke-linecap: square"/>
   </g>
   <g id="patch_3">
    <path d="M 50.14375 239.76 
L 50.14375 37.296 
" style="fill: none; stroke: #000000; stroke-width: 0.8; stroke-linejoin: miter; stroke-linecap: square"/>
   </g>
   <g id="patch_4">
    <path d="M 329.14375 239.76 
L 329.14375 37.296 
" style="fill: none; stroke: #000000; stroke-width: 0.8; stroke-linejoin: miter; stroke-linecap: square"/>
   </g>
   <g id="patch_5">
    <path d="M 50.14375 239.76 
L 329.14375 239.76 
" style="fill: none; stroke: #000000; stroke-width: 0.8; stroke-linejoin: miter; stroke-linecap: square"/>
   </g>
   <g id="patch_6">
    <path d="M 50.14375 37.296 
L 329.14375 37.296 
" style="fill: none; stroke: #000000; stroke-width: 0.8; stroke-linejoin: miter; stroke-linecap: square"/>
   </g>
   <g id="text_15">
    <!-- Baseline Model -->
    <g transform="translate(155.622344 31.296) scale(0.09 -0.09)">
     <defs>
      <path id="DejaVuSans-42" d="M 1259 2228 
L 1259 519 
L 2272 519 
Q 2781 519 3026 730 
Q 3272 941 3272 1375 
Q 3272 1813 3026 2020 
Q 2781 2228 2272 2228 
L 1259 2228 
z
M 1259 4147 
L 1259 2741 
L 2194 2741 
Q 2656 2741 2882 2914 
Q 3109 3088 3109 3444 
Q 3109 3797 2882 3972 
Q 2656 4147 2194 4147 
L 1259 4147 
z
M 628 4666 
L 2241 4666 
Q 2963 4666 3353 4366 
Q 3744 4066 3744 3513 
Q 3744 3084 3544 2831 
Q 3344 2578 2956 2516 
Q 3422 2416 3680 2098 
Q 3938 1781 3938 1306 
Q 3938 681 3513 340 
Q 3088 0 2303 0 
L 628 0 
L 628 4666 
z
" transform="scale(0.015625)"/>
      <path id="DejaVuSans-65" d="M 3597 1894 
L 3597 1613 
L 953 1613 
Q 991 1019 1311 708 
Q 1631 397 2203 397 
Q 2534 397 2845 478 
Q 3156 559 3463 722 
L 3463 178 
Q 3153 47 2828 -22 
Q 2503 -91 2169 -91 
Q 1331 -91 842 396 
Q 353 884 353 1716 
Q 353 2575 817 3079 
Q 1281 3584 2069 3584 
Q 2775 3584 3186 3129 
Q 3597 2675 3597 1894 
z
M 3022 2063 
Q 3016 2534 2758 2815 
Q 2500 3097 2075 3097 
Q 1594 3097 1305 2825 
Q 1016 2553 972 2059 
L 3022 2063 
z
" transform="scale(0.015625)"/>
      <path id="DejaVuSans-6c" d="M 603 4863 
L 1178 4863 
L 1178 0 
L 603 0 
L 603 4863 
z
" transform="scale(0.015625)"/>
      <path id="DejaVuSans-69" d="M 603 3500 
L 1178 3500 
L 1178 0 
L 603 0 
L 603 3500 
z
M 603 4863 
L 1178 4863 
L 1178 4134 
L 603 4134 
L 603 4863 
z
" transform="scale(0.015625)"/>
      <path id="DejaVuSans-6e" d="M 3513 2113 
L 3513 0 
L 2938 0 
L 2938 2094 
Q 2938 2591 2744 2837 
Q 2550 3084 2163 3084 
Q 1697 3084 1428 2787 
Q 1159 2491 1159 1978 
L 1159 0 
L 581 0 
L 581 3500 
L 1159 3500 
L 1159 2956 
Q 1366 3272 1645 3428 
Q 1925 3584 2291 3584 
Q 2894 3584 3203 3211 
Q 3513 2838 3513 2113 
z
" transform="scale(0.015625)"/>
      <path id="DejaVuSans-20" transform="scale(0.015625)"/>
      <path id="DejaVuSans-4d" d="M 628 4666 
L 1569 4666 
L 2759 1491 
L 3956 4666 
L 4897 4666 
L 4897 0 
L 4281 0 
L 4281 4097 
L 3078 897 
L 2444 897 
L 1241 4097 
L 1241 0 
L 628 0 
L 628 4666 
z
" transform="scale(0.015625)"/>
      <path id="DejaVuSans-64" d="M 2906 2969 
L 2906 4863 
L 3481 4863 
L 3481 0 
L 2906 0 
L 2906 525 
Q 2725 213 2448 61 
Q 2172 -91 1784 -91 
Q 1150 -91 751 415 
Q 353 922 353 1747 
Q 353 2572 751 3078 
Q 1150 3584 1784 3584 
Q 2172 3584 2448 3432 
Q 2725 3281 2906 2969 
z
M 947 1747 
Q 947 1113 1208 752 
Q 1469 391 1925 391 
Q 2381 391 2643 752 
Q 2906 1113 2906 1747 
Q 2906 2381 2643 2742 
Q 2381 3103 1925 3103 
Q 1469 3103 1208 2742 
Q 947 2381 947 1747 
z
" transform="scale(0.015625)"/>
     </defs>
     <use xlink:href="#DejaVuSans-42"/>
     <use xlink:href="#DejaVuSans-61" x="68.603516"/>
     <use xlink:href="#DejaVuSans-73" x="129.882812"/>
     <use xlink:href="#DejaVuSans-65" x="181.982422"/>
     <use xlink:href="#DejaVuSans-6c" x="243.505859"/>
     <use xlink:href="#DejaVuSans-69" x="271.289062"/>
     <use xlink:href="#DejaVuSans-6e" x="299.072266"/>
     <use xlink:href="#DejaVuSans-65" x="362.451172"/>
     <use xlink:href="#DejaVuSans-20" x="423.974609"/>
     <use xlink:href="#DejaVuSans-4d" x="455.761719"/>
     <use xlink:href="#DejaVuSans-6f" x="542.041016"/>
     <use xlink:href="#DejaVuSans-64" x="603.222656"/>
     <use xlink:href="#DejaVuSans-65" x="666.699219"/>
     <use xlink:href="#DejaVuSans-6c" x="728.222656"/>
    </g>
   </g>
   <g id="legend_1">
    <g id="patch_7">
     <path d="M 191.928125 234.76 
L 322.14375 234.76 
Q 324.14375 234.76 324.14375 232.76 
L 324.14375 204.40375 
Q 324.14375 202.40375 322.14375 202.40375 
L 191.928125 202.40375 
Q 189.928125 202.40375 189.928125 204.40375 
L 189.928125 232.76 
Q 189.928125 234.76 191.928125 234.76 
z
" style="fill: #ffffff; opacity: 0.8; stroke: #cccccc; stroke-linejoin: miter"/>
    </g>
    <g id="line2d_27">
     <path d="M 193.928125 210.502187 
L 203.928125 210.502187 
L 213.928125 210.502187 
" style="fill: none; stroke: #0000ff; stroke-width: 0.6; stroke-linecap: square"/>
    </g>
    <g id="text_16">
     <!-- Training Accuracy -->
     <g transform="translate(221.928125 214.002187) scale(0.1 -0.1)">
      <defs>
       <path id="DejaVuSans-54" d="M -19 4666 
L 3928 4666 
L 3928 4134 
L 2272 4134 
L 2272 0 
L 1638 0 
L 1638 4134 
L -19 4134 
L -19 4666 
z
" transform="scale(0.015625)"/>
       <path id="DejaVuSans-67" d="M 2906 1791 
Q 2906 2416 2648 2759 
Q 2391 3103 1925 3103 
Q 1463 3103 1205 2759 
Q 947 2416 947 1791 
Q 947 1169 1205 825 
Q 1463 481 1925 481 
Q 2391 481 2648 825 
Q 2906 1169 2906 1791 
z
M 3481 434 
Q 3481 -459 3084 -895 
Q 2688 -1331 1869 -1331 
Q 1566 -1331 1297 -1286 
Q 1028 -1241 775 -1147 
L 775 -588 
Q 1028 -725 1275 -790 
Q 1522 -856 1778 -856 
Q 2344 -856 2625 -561 
Q 2906 -266 2906 331 
L 2906 616 
Q 2728 306 2450 153 
Q 2172 0 1784 0 
Q 1141 0 747 490 
Q 353 981 353 1791 
Q 353 2603 747 3093 
Q 1141 3584 1784 3584 
Q 2172 3584 2450 3431 
Q 2728 3278 2906 2969 
L 2906 3500 
L 3481 3500 
L 3481 434 
z
" transform="scale(0.015625)"/>
      </defs>
      <use xlink:href="#DejaVuSans-54"/>
      <use xlink:href="#DejaVuSans-72" x="46.333984"/>
      <use xlink:href="#DejaVuSans-61" x="87.447266"/>
      <use xlink:href="#DejaVuSans-69" x="148.726562"/>
      <use xlink:href="#DejaVuSans-6e" x="176.509766"/>
      <use xlink:href="#DejaVuSans-69" x="239.888672"/>
      <use xlink:href="#DejaVuSans-6e" x="267.671875"/>
      <use xlink:href="#DejaVuSans-67" x="331.050781"/>
      <use xlink:href="#DejaVuSans-20" x="394.527344"/>
      <use xlink:href="#DejaVuSans-41" x="426.314453"/>
      <use xlink:href="#DejaVuSans-63" x="492.972656"/>
      <use xlink:href="#DejaVuSans-63" x="547.953125"/>
      <use xlink:href="#DejaVuSans-75" x="602.933594"/>
      <use xlink:href="#DejaVuSans-72" x="666.3125"/>
      <use xlink:href="#DejaVuSans-61" x="707.425781"/>
      <use xlink:href="#DejaVuSans-63" x="768.705078"/>
      <use xlink:href="#DejaVuSans-79" x="823.685547"/>
     </g>
    </g>
    <g id="line2d_28">
     <path d="M 193.928125 225.180312 
L 203.928125 225.180312 
L 213.928125 225.180312 
" style="fill: none; stroke: #ff0000; stroke-width: 0.6; stroke-linecap: square"/>
    </g>
    <g id="text_17">
     <!-- Validation Accuracy -->
     <g transform="translate(221.928125 228.680312) scale(0.1 -0.1)">
      <defs>
       <path id="DejaVuSans-56" d="M 1831 0 
L 50 4666 
L 709 4666 
L 2188 738 
L 3669 4666 
L 4325 4666 
L 2547 0 
L 1831 0 
z
" transform="scale(0.015625)"/>
       <path id="DejaVuSans-74" d="M 1172 4494 
L 1172 3500 
L 2356 3500 
L 2356 3053 
L 1172 3053 
L 1172 1153 
Q 1172 725 1289 603 
Q 1406 481 1766 481 
L 2356 481 
L 2356 0 
L 1766 0 
Q 1100 0 847 248 
Q 594 497 594 1153 
L 594 3053 
L 172 3053 
L 172 3500 
L 594 3500 
L 594 4494 
L 1172 4494 
z
" transform="scale(0.015625)"/>
      </defs>
      <use xlink:href="#DejaVuSans-56"/>
      <use xlink:href="#DejaVuSans-61" x="60.658203"/>
      <use xlink:href="#DejaVuSans-6c" x="121.9375"/>
      <use xlink:href="#DejaVuSans-69" x="149.720703"/>
      <use xlink:href="#DejaVuSans-64" x="177.503906"/>
      <use xlink:href="#DejaVuSans-61" x="240.980469"/>
      <use xlink:href="#DejaVuSans-74" x="302.259766"/>
      <use xlink:href="#DejaVuSans-69" x="341.46875"/>
      <use xlink:href="#DejaVuSans-6f" x="369.251953"/>
      <use xlink:href="#DejaVuSans-6e" x="430.433594"/>
      <use xlink:href="#DejaVuSans-20" x="493.8125"/>
      <use xlink:href="#DejaVuSans-41" x="525.599609"/>
      <use xlink:href="#DejaVuSans-63" x="592.257812"/>
      <use xlink:href="#DejaVuSans-63" x="647.238281"/>
      <use xlink:href="#DejaVuSans-75" x="702.21875"/>
      <use xlink:href="#DejaVuSans-72" x="765.597656"/>
      <use xlink:href="#DejaVuSans-61" x="806.710938"/>
      <use xlink:href="#DejaVuSans-63" x="867.990234"/>
      <use xlink:href="#DejaVuSans-79" x="922.970703"/>
     </g>
    </g>
   </g>
  </g>
  <g id="text_18">
   <!-- Training VS. Validation Accuracy - Dataset Size = 100.0% -->
   <g transform="translate(27.796484 15.558281) scale(0.11 -0.11)">
    <defs>
     <path id="DejaVuSans-53" d="M 3425 4513 
L 3425 3897 
Q 3066 4069 2747 4153 
Q 2428 4238 2131 4238 
Q 1616 4238 1336 4038 
Q 1056 3838 1056 3469 
Q 1056 3159 1242 3001 
Q 1428 2844 1947 2747 
L 2328 2669 
Q 3034 2534 3370 2195 
Q 3706 1856 3706 1288 
Q 3706 609 3251 259 
Q 2797 -91 1919 -91 
Q 1588 -91 1214 -16 
Q 841 59 441 206 
L 441 856 
Q 825 641 1194 531 
Q 1563 422 1919 422 
Q 2459 422 2753 634 
Q 3047 847 3047 1241 
Q 3047 1584 2836 1778 
Q 2625 1972 2144 2069 
L 1759 2144 
Q 1053 2284 737 2584 
Q 422 2884 422 3419 
Q 422 4038 858 4394 
Q 1294 4750 2059 4750 
Q 2388 4750 2728 4690 
Q 3069 4631 3425 4513 
z
" transform="scale(0.015625)"/>
     <path id="DejaVuSans-2d" d="M 313 2009 
L 1997 2009 
L 1997 1497 
L 313 1497 
L 313 2009 
z
" transform="scale(0.015625)"/>
     <path id="DejaVuSans-44" d="M 1259 4147 
L 1259 519 
L 2022 519 
Q 2988 519 3436 956 
Q 3884 1394 3884 2338 
Q 3884 3275 3436 3711 
Q 2988 4147 2022 4147 
L 1259 4147 
z
M 628 4666 
L 1925 4666 
Q 3281 4666 3915 4102 
Q 4550 3538 4550 2338 
Q 4550 1131 3912 565 
Q 3275 0 1925 0 
L 628 0 
L 628 4666 
z
" transform="scale(0.015625)"/>
     <path id="DejaVuSans-7a" d="M 353 3500 
L 3084 3500 
L 3084 2975 
L 922 459 
L 3084 459 
L 3084 0 
L 275 0 
L 275 525 
L 2438 3041 
L 353 3041 
L 353 3500 
z
" transform="scale(0.015625)"/>
     <path id="DejaVuSans-3d" d="M 678 2906 
L 4684 2906 
L 4684 2381 
L 678 2381 
L 678 2906 
z
M 678 1631 
L 4684 1631 
L 4684 1100 
L 678 1100 
L 678 1631 
z
" transform="scale(0.015625)"/>
     <path id="DejaVuSans-25" d="M 4653 2053 
Q 4381 2053 4226 1822 
Q 4072 1591 4072 1178 
Q 4072 772 4226 539 
Q 4381 306 4653 306 
Q 4919 306 5073 539 
Q 5228 772 5228 1178 
Q 5228 1588 5073 1820 
Q 4919 2053 4653 2053 
z
M 4653 2450 
Q 5147 2450 5437 2106 
Q 5728 1763 5728 1178 
Q 5728 594 5436 251 
Q 5144 -91 4653 -91 
Q 4153 -91 3862 251 
Q 3572 594 3572 1178 
Q 3572 1766 3864 2108 
Q 4156 2450 4653 2450 
z
M 1428 4353 
Q 1159 4353 1004 4120 
Q 850 3888 850 3481 
Q 850 3069 1003 2837 
Q 1156 2606 1428 2606 
Q 1700 2606 1854 2837 
Q 2009 3069 2009 3481 
Q 2009 3884 1853 4118 
Q 1697 4353 1428 4353 
z
M 4250 4750 
L 4750 4750 
L 1831 -91 
L 1331 -91 
L 4250 4750 
z
M 1428 4750 
Q 1922 4750 2215 4408 
Q 2509 4066 2509 3481 
Q 2509 2891 2217 2550 
Q 1925 2209 1428 2209 
Q 931 2209 642 2551 
Q 353 2894 353 3481 
Q 353 4063 643 4406 
Q 934 4750 1428 4750 
z
" transform="scale(0.015625)"/>
    </defs>
    <use xlink:href="#DejaVuSans-54"/>
    <use xlink:href="#DejaVuSans-72" x="46.333984"/>
    <use xlink:href="#DejaVuSans-61" x="87.447266"/>
    <use xlink:href="#DejaVuSans-69" x="148.726562"/>
    <use xlink:href="#DejaVuSans-6e" x="176.509766"/>
    <use xlink:href="#DejaVuSans-69" x="239.888672"/>
    <use xlink:href="#DejaVuSans-6e" x="267.671875"/>
    <use xlink:href="#DejaVuSans-67" x="331.050781"/>
    <use xlink:href="#DejaVuSans-20" x="394.527344"/>
    <use xlink:href="#DejaVuSans-56" x="426.314453"/>
    <use xlink:href="#DejaVuSans-53" x="494.722656"/>
    <use xlink:href="#DejaVuSans-2e" x="558.199219"/>
    <use xlink:href="#DejaVuSans-20" x="589.986328"/>
    <use xlink:href="#DejaVuSans-56" x="621.773438"/>
    <use xlink:href="#DejaVuSans-61" x="682.431641"/>
    <use xlink:href="#DejaVuSans-6c" x="743.710938"/>
    <use xlink:href="#DejaVuSans-69" x="771.494141"/>
    <use xlink:href="#DejaVuSans-64" x="799.277344"/>
    <use xlink:href="#DejaVuSans-61" x="862.753906"/>
    <use xlink:href="#DejaVuSans-74" x="924.033203"/>
    <use xlink:href="#DejaVuSans-69" x="963.242188"/>
    <use xlink:href="#DejaVuSans-6f" x="991.025391"/>
    <use xlink:href="#DejaVuSans-6e" x="1052.207031"/>
    <use xlink:href="#DejaVuSans-20" x="1115.585938"/>
    <use xlink:href="#DejaVuSans-41" x="1147.373047"/>
    <use xlink:href="#DejaVuSans-63" x="1214.03125"/>
    <use xlink:href="#DejaVuSans-63" x="1269.011719"/>
    <use xlink:href="#DejaVuSans-75" x="1323.992188"/>
    <use xlink:href="#DejaVuSans-72" x="1387.371094"/>
    <use xlink:href="#DejaVuSans-61" x="1428.484375"/>
    <use xlink:href="#DejaVuSans-63" x="1489.763672"/>
    <use xlink:href="#DejaVuSans-79" x="1544.744141"/>
    <use xlink:href="#DejaVuSans-20" x="1603.923828"/>
    <use xlink:href="#DejaVuSans-2d" x="1635.710938"/>
    <use xlink:href="#DejaVuSans-20" x="1671.794922"/>
    <use xlink:href="#DejaVuSans-44" x="1703.582031"/>
    <use xlink:href="#DejaVuSans-61" x="1780.583984"/>
    <use xlink:href="#DejaVuSans-74" x="1841.863281"/>
    <use xlink:href="#DejaVuSans-61" x="1881.072266"/>
    <use xlink:href="#DejaVuSans-73" x="1942.351562"/>
    <use xlink:href="#DejaVuSans-65" x="1994.451172"/>
    <use xlink:href="#DejaVuSans-74" x="2055.974609"/>
    <use xlink:href="#DejaVuSans-20" x="2095.183594"/>
    <use xlink:href="#DejaVuSans-53" x="2126.970703"/>
    <use xlink:href="#DejaVuSans-69" x="2190.447266"/>
    <use xlink:href="#DejaVuSans-7a" x="2218.230469"/>
    <use xlink:href="#DejaVuSans-65" x="2270.720703"/>
    <use xlink:href="#DejaVuSans-20" x="2332.244141"/>
    <use xlink:href="#DejaVuSans-3d" x="2364.03125"/>
    <use xlink:href="#DejaVuSans-20" x="2447.820312"/>
    <use xlink:href="#DejaVuSans-31" x="2479.607422"/>
    <use xlink:href="#DejaVuSans-30" x="2543.230469"/>
    <use xlink:href="#DejaVuSans-30" x="2606.853516"/>
    <use xlink:href="#DejaVuSans-2e" x="2670.476562"/>
    <use xlink:href="#DejaVuSans-30" x="2702.263672"/>
    <use xlink:href="#DejaVuSans-25" x="2765.886719"/>
   </g>
  </g>
 </g>
 <defs>
  <clipPath id="p9773801973">
   <rect x="50.14375" y="37.296" width="279" height="202.464"/>
  </clipPath>
 </defs>
</svg>
